<?xml version="1.0" encoding="utf-8"?>
<!-- Generator: Adobe Illustrator 19.0.0, SVG Export Plug-In . SVG Version: 6.00 Build 0)  -->
<svg version="1.1" id="图层_1" xmlns="http://www.w3.org/2000/svg" xmlns:xlink="http://www.w3.org/1999/xlink" x="0px" y="0px"
	 viewBox="0 0 595.3 841.9" style="enable-background:new 0 0 595.3 841.9;" xml:space="preserve">
<style type="text/css">
	.st0{fill:#FFFFFF;}
</style>
<path class="st0" d="M588.5,832.3c-193.6,0-387.1,0-580.6,0c0-273.8,0-547.6,0-821.3c193.6,0,387.1,0,580.6,0
	C588.5,284.8,588.5,558.6,588.5,832.3z M280.2,63.2c0.2,1.3,0.3,2.2,0.4,3c0.7,3.8,1.1,7.6,2.1,11.3c1.9,7.2,4.1,14.4,6.2,21.6
	c0.8,2.6,1.7,5.2,2.7,7.7c2.5,6.3,3.7,12.7,2.8,19.5c-0.6,4.3-1.4,8.6-2.3,12.9c-0.5,2.4-1.4,4.8-2.2,7.2c-0.5,1.7-1.2,3.4-1.6,5.1
	c-0.3,1-0.9,1.6-1.8,2c-2.9,1.5-6,1.4-9.2,0.9c-2.9-0.5-4.9-2.2-5.9-5.1c-0.4-1.2-0.8-2.4-1.2-3.5c-0.1-0.3-0.4-0.6-0.7-0.9
	c0.1,1.7,0.5,3.2,0.8,4.7c0.6,3,2.4,4.8,5.2,5.7c3.2,1,6.4,1,9.7,0.2c0.5-0.1,1.1-0.3,1.6-0.4c-1.7,3-3.7,5.6-5.6,8.2
	c-1,1.3-2.2,2.4-3.8,3c-4.4,1.6-8.8,3.1-13.3,4.6c-4.5,1.4-8.9,3-13,5.2c-2.3,1.2-4.6,2.4-7,3.2c-2,0.7-3.4,1.8-4.6,3.4
	c-3.5,4.7-6.3,9.9-8.6,15.2c-3.2,7.4-5.8,15-6.5,23.1c-0.6,6.8-0.1,13.6,0.4,20.3c0,0.5,0.3,1.1,0.5,1.6c0.2-2.9,0.3-5.7,0.2-8.5
	c-0.5-11.4,1.2-22.4,5.6-32.9c2.6-6.2,5.6-12.2,9.6-17.7c1.1-1.5,2.3-2.6,4.2-3.1c1.6-0.4,3.2-1.3,4.7-2.1c4.5-2.3,9.1-4.5,14-5.9
	c0.5-0.1,0.9-0.2,1.8-0.3c-5,6-6.9,12.8-7.9,19.9c-0.6,4.6-1.2,9.3-1.3,14c-0.2,6.3-0.5,12.6-3.6,18.4c-0.1,0.3,0,0.6-0.1,1
	c0.1,0,0.2,0.1,0.4,0.1c0.9-2.2,1.9-4.4,2.8-6.7c0.7,2.3,1,4.4,1.2,6.6c0.6,5.7,1.4,11.3,1.2,17c-0.3,6.6,0.1,13.2,0.7,19.9
	c0.4,3.7,0.4,7.5,0,11.2c-0.5,4.9-1.5,9.7-2.5,14.5c-3.4,16.4-6,32.8-6.8,49.6c-0.3,7.7-1.4,15.2-3.1,22.7c-1.3,5.8-3.7,11.1-6,16.5
	c-0.6,1.4-1.1,2.9-1.7,4.4c-2.2-0.5-3.6,0.6-4.9,1.9c-0.4,0.4-1.1,0.6-1.6,0.5c-0.8-0.2-1.1-1-1-1.9c0.1-4.8,0.1-9.5,0-14.3
	c-0.1-3.9,0-7.8,1-11.6c2.2-8.2,4-16.5,7-24.5c1.8-4.8,3-9.8,4.7-14.7c4.5-13.3,7.6-27,10.1-40.8c0.5-2.6,0.8-5.3,1.1-7.9
	c-2.8,10.4-5.1,20.9-7.7,31.3c-2.7,10.5-5.8,20.8-9.4,31c-0.3-0.5-0.5-0.9-0.5-1.3c-0.4-4.1-0.7-8.2-1-12.4
	c-1.1-14.9-1.5-29.7-0.6-44.7c0.7-12.2,1-24.5,1.5-36.7c0.3-7.3,1-14.5,2.2-21.6c0.3-1.5,0.4-3.1,0.6-4.6c-0.6,1.1-0.9,2.2-1.2,3.3
	c-2.2,10.2-3.3,20.5-3.5,30.9c-0.1,4.8-0.4,9.5-0.6,14.3c0,0.6-0.2,1.2-0.4,2.3c-1.1-1.5-1.8-2.6-2.6-3.7c-0.1,1.9,0.3,3.6,1.5,4.8
	c1.1,1.2,1.2,2.4,1.2,3.8c-0.3,6.1-0.8,12.2-0.9,18.2c-0.2,11.6,0.1,23.1,1.3,34.6c0.1,0.9,0.1,1.8,0.1,2.7
	c-2.3-0.2-4.4-0.3-6.4-0.5c-1.2-0.1-2.5-0.3-3.7-0.5c-1.7-0.4-2.2-1-2.3-2.7c-0.1-1-0.1-2-0.1-3c0-1.9-0.5-3.6-1.7-5.2
	c-2.4-3.3-1.8-6.9-1-10.6c5,2.6,5,2.6,7,1.8c-1.1-0.7-2-1.4-3.1-1.9c-2.7-1.3-3.9-3.3-3.5-6.2c0.3-2.9,0.7-5.9,1.1-8.8
	c0.1-0.5,0.3-0.9,0.6-1.7c1.3,1.8,2.4,3.4,3.5,4.9c-0.2-2.5-0.9-4.6-2.4-6.5c-1.6-2.2-2.5-4.6-2.6-7.4c-0.1-3.2,0.5-6.2,1.5-9.2
	c0.1-0.5,0.4-0.9,0.7-1.4c1.3,1.2,2.5,2.3,3.6,3.4c0.1-0.1,0.2-0.2,0.4-0.3c-0.7-1.2-1.4-2.4-2.1-3.5c-2-3.3-2.5-6.7-0.9-10.3
	c0.5-1.2,1.1-2.4,1.6-3.6c0.2-0.6,0.3-1.3,0.5-1.9c-1.4,1.7-2.5,3.5-3.4,5.3c-1.1,2.3-1.5,4.8-0.9,7.3c0.3,1.1,0.2,2.1-0.3,3.2
	c-0.8,1.7-1.5,3.5-2,5.3c-1.1,4.1-1.4,8.2,0.8,12c0.8,1.4,0.8,2.5,0.2,3.9c-1.6,3.8-2.3,7.8-1.8,11.9c0.2,1.7,0.2,3.2-0.3,4.8
	c-1.1,4.1-1.2,8,1.7,11.6c0.4,0.5,0.5,1.4,0.6,2.2c0.1,1,0.1,2,0.1,3c0,2.4,0.2,4.6,2.8,5.4c0.3,4.1,0.5,8,0.7,11.9
	c0.1,1.4,0.3,2.9,1.7,3.6c1.1,0.6,1.2,1.5,1.2,2.5c0,2.1-0.1,4.2,0,6.3c0.3,4.4,0.6,8.7,1,13.1c0.2,1.6,0.7,3.2,1,4.8
	c0.3,1.4,0.7,2.7,0.7,4.1c0.2,3.9,0,7.8,0.3,11.7c0.2,2.5-0.5,5.4,2.1,7.1c-0.5,1.8-1.1,3.4-1.5,5.1c-1.4,6.1-2.8,12.2-4.1,18.3
	c-1.1,5-2,9.9-3,14.9c-0.3,1.6,0.1,3,1.3,4c1.5,1.4,3.1,2.8,4.9,4.3c0,1,0.2,2.2,1.7,2.7c3.8,1.2,7.5,2.5,11.4,3.5
	c1.7,0.5,3.5,0.4,5.4,0.6c0,1.5-0.1,2.8,0,4.1c0.5,7.8,2,15.5,3.2,23.2c1.6,10,3.7,19.8,6.9,29.3c1.9,5.7,3.3,11.5,4.2,17.5
	c0.7,4.7,1.5,9.4,2.6,14c1.8,8.1,3,16.2,3.3,24.5c0.2,4.5,0.4,9.1,1,13.5c1.3,9.2,2.7,18.4,4.3,27.5c2,12,5,23.8,7.9,35.6
	c2.3,9.2,4.7,18.5,8.4,27.3c2.3,5.3,3.8,10.9,4.6,16.6c0.9,6.3,1.9,12.7,2.7,19c0.5,3.5,1.1,6.9,1.3,10.4c0.6,8.5,0.3,17-0.2,25.5
	c-0.5,7.2-1.2,14.3-1.8,21.4c-0.5,6.4,0.5,12.4,3.2,18.2c1.2,2.6,2.2,5.3,3.3,8c0.6,1.4,1.1,2.8,1.9,4c1.4,2.2,3.7,3.1,6.3,2.4
	c0.9-0.2,1.8-0.6,2.6-1c5.6-2.6,10.4-6.2,14.6-10.8c0.4-0.4,0.5-0.9,1-1.8c0.7,1.3,1,1.8,1.2,2.3c2.7,5,5.3,10.1,8.1,15
	c0.9,1.7,2.4,3.1,3.7,4.5c1.3,1.3,2.4,1.3,4,0.3c1.9-1.1,3.2-2.7,4.3-4.6c1.5-2.6,2.8-5.3,4.7-7.6c4.1-5.2,7.2-10.9,10.4-16.6
	c1.3-2.4,2.3-5,2.6-7.7c0.9-7.1,0.4-14-1.8-20.8c-1.3-4.2-2.1-8.4-2.2-12.9c-0.1-4.5-0.4-9-0.9-13.5c-0.6-6-2.2-11.6-5.5-16.7
	c-0.6-0.9-1-2-1.8-2.7c-0.7-0.6-0.8-1.2-1-2c-0.6-3.2-1.1-6.5-1.7-9.7c-2.6-12.6-3.1-25.2-1.8-38c1.2-11.6,2.6-23.1,3.7-34.7
	c0.6-5.8,0.7-11.7-0.1-17.5c-1.2-8.6-2.6-17.3-4.1-25.9c-1.4-8.3-3.6-16.3-7.8-23.7c-0.3-0.6-0.6-1.3-0.5-2
	c0.1-4.8,0.2-9.7,1.3-14.4c1-4.3,1.8-8.5,2.6-12.8c1-5.3,1.6-10.6,2.8-15.9c1.8-7.9,3.7-15.8,5.8-23.6c3.1-11.6,6.5-23.1,9.8-34.7
	c0.4-1.2,1-1.9,2.2-2.4c2.6-1.1,5.3-1.3,8-1.6c3.9-0.4,7.7-0.9,11.6-1.3c0.1-0.9,0.1-1.6,0.2-2.6c1.6-0.6,3.3-1.3,5.1-2
	c1.2-0.4,2.4-0.7,3.5-1.3c2.5-1.3,3.3-2.7,1.8-5.5c-0.8-1.4-1.4-2.9-2-4.2c2.2-2.2,4.2-3.9,7-4.6c1.6-0.4,2.4-1.6,2.7-3.2
	c0.4-2.1,0.9-4.3,1.5-6.4c0.8-2.5,1.7-5,2.7-7.5c1.1-2.9,1-3.2-1.7-4.6c-2.1-1.1-4.1-2.3-5.5-4.3c-3.7-4.9-8.6-8-14-10.7
	c-2.6-1.3-4.8-3.4-7.2-5.2c-0.4-0.3-0.7-1-0.9-1.6c-0.5-1.5-0.9-3-1.5-4.4c-0.4-1-0.3-1.8,0.4-2.8c1.5-2.2,2.2-4.8,2.5-7.5
	c0.4-3.1-0.7-5.8-2.6-8.3c-2.7-3.6-5-7.5-6.6-11.8c-1.1-2.8-1.1-2.8,1.1-4.7c2.1-1.8,4.3-3.6,6.3-5.5c4.4-4.2,5.1-8.5,2.4-14
	c-0.4-0.8-0.7-1.5-1.1-2.3c0.3-0.4,0.5-0.8,0.7-1.1c3.6-4.7,5.4-9.8,4.5-15.9c-1-6.6-1.5-13.2-1.3-19.8c0.4-10.8,0.8-21.7,1.5-32.5
	c0.8-13.3-0.7-26.3-3.6-39.2c-0.4-1.5-1.2-3-2.2-4.3c-2.1-2.9-4.6-5.3-7.5-7.4c-0.4-0.3-0.7-0.9-1-1.4c-0.6-1.3-0.9-2.8-1.7-4
	c-1.9-2.8-4-5.6-6.1-8.3c-3.6-4.7-7.2-9.4-10.8-14.2c-0.7-1-1.3-2.2-1.5-3.4c-0.5-3.4-0.9-6.8-1.1-10.2c-0.3-5.7-0.3-11.4-0.5-17.1
	c0-1.1,0.3-2,0.9-2.8c1.1-1.5,1.5-3.2,1.6-5c0.2-4.3-1-8-3.5-11.4c-3-4.2-5.8-8.5-8.8-12.7c-0.1-0.2-0.4-0.3-0.6-0.4
	c0.4,1.7,0.9,3.3,1.7,4.7c1.7,2.9,3.5,5.7,5.4,8.5c2.3,3.3,4,6.9,4,11c0,1.5,0,3-0.9,4.5c-0.7-1.6-0.5-3.2-1.7-4.9
	c0.1,11.1,0.3,21.6,0.4,32.5c-0.5-0.5-0.8-0.7-0.9-1c-2.3-3.5-4.6-6.9-6.7-10.4c-3.4-5.8-5-12.1-5.3-18.7c-0.3-7-0.1-14-0.3-21.1
	c-0.1-2.4,0.3-4.4,2.4-5.9c0.3-0.2,0.6-0.5,0.8-0.9c1.6-2.2,1.6-4,0-6.2c-0.7-1-1.4-2.1-2.4-2.9c-1.5-1.2-2.1-2.8-2.5-4.6
	c-1.6-6.9-5.6-12.1-11.9-15.4c-3.4-1.8-6.9-3.2-10.7-4.1c-5.5-1.3-11.1-1.9-16.7-0.6c-2.6,0.6-5.3,1.4-7.8,2.6
	c-5,2.3-10,4.7-14.8,7.4c-7.7,4.2-14.1,9.9-19.5,16.9c-1,1.3-2,2.8-2.8,4.3c-1.4,2.7-1.8,5.6-0.9,8.6c0.5,1.7,0.9,3.5,1.5,5.2
	c0.6,1.7,1.3,3.4,3,5c-1-3.7-1.9-6.9-2.9-10.1c-1-3.1-0.6-6,1.1-8.8c0.6-0.9,1.2-1.8,1.8-2.7c6.3-8.4,14.6-14.5,23.5-19.7
	C278,63.6,278.9,63.5,280.2,63.2z M254.5,107.2c0,0.2,0,0.5,0.1,0.7c0.8,0,1.7,0.1,2.5-0.1c2.9-0.7,5.7-0.5,8.6-0.1
	c4.6,0.7,9.2,0.4,13.2-2.4c1.1-0.7,2.2-1.3,3.5-2c1.7,4.7,2.2,9.5,3.2,14.2c0.9,4.7,1.8,9.3,2.4,14.1c0.6,4.7,0.7,9.4,1,14.2
	c0.4-0.9,0.5-1.8,0.6-2.8c0.5-6.1,0-12.1-1.2-18.1c-2.6-13.5-4.9-27-9.4-40c-0.3-0.8-0.6-1.6-0.9-2.4c-0.1,0.1-0.3,0.1-0.4,0.2
	c0.2,0.9,0.4,1.8,0.6,2.7c1,4,1.9,8,3.1,12c0.7,2.6,0.7,4.8-1.7,6.5c-0.6,0.4-1,1.1-1.6,1.2c-4.7,1-9.3,1.7-14.1,0.8
	C260.6,105.2,257.5,106,254.5,107.2z M262.5,123c-0.5-4.7-0.9-9.4-3.3-13.7c-0.1,0.2-0.3,0.4-0.3,0.5c0,0.3,0.1,0.6,0.1,0.9
	c1.2,4.6,1.8,9.3,1.6,14.1c0,1.1,0,2.2,0.2,3.3c0.5,4.6,2.2,8.6,5.2,12c0.6,0.7,1.2,1.5,2.8,1.5c-0.7-1-1.3-1.7-1.7-2.4
	c-1.2-1.9-2.4-3.8-3.5-5.8c-0.2-0.4-0.2-0.9-0.3-1.5c3.7,1.3,8.6,0.8,9.7-0.6c-2.4,0-5.1,0-7.7,0c-2,0-2.8-0.9-2.7-3
	c0-0.9,0.2-1.9,0.3-2.8c0.4-2,0.8-4,1.1-6c-0.1,0-0.2-0.1-0.4-0.1C263.3,120.8,262.9,121.9,262.5,123z"/>
<path d="M280.2,63.2c-1.2,0.4-2.2,0.4-2.9,0.9c-8.9,5.3-17.2,11.4-23.5,19.7c-0.7,0.9-1.3,1.8-1.8,2.7c-1.7,2.8-2.1,5.7-1.1,8.8
	c1,3.2,1.8,6.4,2.9,10.1c-1.7-1.6-2.5-3.3-3-5c-0.5-1.7-1-3.5-1.5-5.2c-0.9-3-0.5-5.9,0.9-8.6c0.8-1.5,1.8-2.9,2.8-4.3
	c5.4-6.9,11.8-12.7,19.5-16.9c4.8-2.6,9.8-5.1,14.8-7.4c2.5-1.1,5.1-1.9,7.8-2.6c5.6-1.3,11.2-0.7,16.7,0.6
	c3.8,0.9,7.3,2.3,10.7,4.1c6.3,3.4,10.3,8.5,11.9,15.4c0.4,1.8,1,3.4,2.5,4.6c1,0.8,1.7,1.8,2.4,2.9c1.5,2.2,1.5,4,0,6.2
	c-0.2,0.3-0.5,0.7-0.8,0.9c-2.1,1.4-2.5,3.5-2.4,5.9c0.2,7,0,14,0.3,21.1c0.3,6.6,1.9,13,5.3,18.7c2.1,3.6,4.5,7,6.7,10.4
	c0.2,0.3,0.5,0.5,0.9,1c-0.1-10.9-0.3-21.5-0.4-32.5c1.2,1.7,0.9,3.3,1.7,4.9c0.9-1.5,0.9-3,0.9-4.5c0-4.2-1.7-7.7-4-11
	c-1.9-2.8-3.7-5.6-5.4-8.5c-0.8-1.4-1.3-3-1.7-4.7c0.2,0.1,0.4,0.2,0.6,0.4c2.9,4.2,5.8,8.5,8.8,12.7c2.4,3.4,3.7,7.2,3.5,11.4
	c-0.1,1.9-0.5,3.5-1.6,5c-0.6,0.8-0.9,1.7-0.9,2.8c0.2,5.7,0.2,11.4,0.5,17.1c0.2,3.4,0.6,6.8,1.1,10.2c0.2,1.2,0.7,2.4,1.5,3.4
	c3.5,4.8,7.2,9.4,10.8,14.2c2.1,2.7,4.2,5.4,6.1,8.3c0.8,1.2,1.1,2.7,1.7,4c0.2,0.5,0.5,1.1,1,1.4c2.9,2.1,5.4,4.5,7.5,7.4
	c0.9,1.3,1.8,2.8,2.2,4.3c3,12.9,4.4,26,3.6,39.2c-0.7,10.8-1.1,21.7-1.5,32.5c-0.2,6.6,0.3,13.3,1.3,19.8c1,6.1-0.9,11.2-4.5,15.9
	c-0.2,0.3-0.4,0.6-0.7,1.1c0.4,0.7,0.7,1.5,1.1,2.3c2.7,5.5,2,9.7-2.4,14c-2,1.9-4.2,3.7-6.3,5.5c-2.2,1.9-2.2,1.9-1.1,4.7
	c1.6,4.3,3.9,8.1,6.6,11.8c1.8,2.5,2.9,5.2,2.6,8.3c-0.3,2.7-1.1,5.2-2.5,7.5c-0.7,1-0.8,1.7-0.4,2.8c0.6,1.5,1,3,1.5,4.4
	c0.2,0.6,0.5,1.2,0.9,1.6c2.3,1.8,4.6,3.9,7.2,5.2c5.4,2.6,10.3,5.8,14,10.7c1.4,1.9,3.4,3.2,5.5,4.3c2.6,1.4,2.7,1.8,1.7,4.6
	c-0.9,2.5-1.9,5-2.7,7.5c-0.6,2.1-1.1,4.2-1.5,6.4c-0.3,1.7-1.1,2.8-2.7,3.2c-2.8,0.7-4.8,2.4-7,4.6c0.6,1.3,1.2,2.8,2,4.2
	c1.6,2.8,0.8,4.2-1.8,5.5c-1.1,0.6-2.3,0.8-3.5,1.3c-1.7,0.7-3.4,1.3-5.1,2c-0.1,1-0.1,1.7-0.2,2.6c-3.9,0.5-7.8,0.9-11.6,1.3
	c-2.7,0.3-5.4,0.6-8,1.6c-1.2,0.5-1.9,1.2-2.2,2.4c-3.2,11.6-6.6,23.1-9.8,34.7c-2.1,7.8-4,15.7-5.8,23.6
	c-1.2,5.2-1.8,10.6-2.8,15.9c-0.8,4.3-1.6,8.6-2.6,12.8c-1.1,4.8-1.1,9.6-1.3,14.4c0,0.7,0.2,1.4,0.5,2c4.2,7.4,6.4,15.4,7.8,23.7
	c1.5,8.6,2.9,17.2,4.1,25.9c0.8,5.8,0.7,11.7,0.1,17.5c-1.2,11.6-2.5,23.1-3.7,34.7c-1.3,12.7-0.8,25.4,1.8,38
	c0.7,3.2,1.2,6.4,1.7,9.7c0.1,0.8,0.3,1.4,1,2c0.8,0.7,1.2,1.8,1.8,2.7c3.3,5.1,4.9,10.8,5.5,16.7c0.5,4.5,0.8,9,0.9,13.5
	c0.1,4.4,0.9,8.7,2.2,12.9c2.2,6.8,2.7,13.8,1.8,20.8c-0.4,2.7-1.3,5.3-2.6,7.7c-3.2,5.7-6.3,11.5-10.4,16.6c-1.8,2.3-3.2,5-4.7,7.6
	c-1.1,1.9-2.4,3.5-4.3,4.6c-1.6,1-2.7,1-4-0.3c-1.4-1.3-2.8-2.8-3.7-4.5c-2.8-4.9-5.4-10-8.1-15c-0.3-0.5-0.6-1.1-1.2-2.3
	c-0.4,0.8-0.6,1.4-1,1.8c-4.1,4.6-9,8.2-14.6,10.8c-0.8,0.4-1.7,0.7-2.6,1c-2.6,0.7-4.9-0.1-6.3-2.4c-0.8-1.2-1.3-2.7-1.9-4
	c-1.1-2.7-2.1-5.4-3.3-8c-2.7-5.8-3.7-11.9-3.2-18.2c0.6-7.1,1.4-14.3,1.8-21.4c0.5-8.5,0.9-17,0.2-25.5c-0.3-3.5-0.8-7-1.3-10.4
	c-0.9-6.3-1.8-12.7-2.7-19c-0.8-5.7-2.3-11.3-4.6-16.6c-3.7-8.8-6-18-8.4-27.3c-3-11.8-5.9-23.6-7.9-35.6c-1.5-9.2-3-18.3-4.3-27.5
	c-0.6-4.5-0.8-9-1-13.5c-0.3-8.3-1.5-16.4-3.3-24.5c-1-4.6-1.8-9.3-2.6-14c-0.9-6-2.4-11.8-4.2-17.5c-3.2-9.6-5.4-19.4-6.9-29.3
	c-1.2-7.7-2.7-15.4-3.2-23.2c-0.1-1.3,0-2.6,0-4.1c-1.9-0.2-3.7-0.2-5.4-0.6c-3.8-1.1-7.6-2.3-11.4-3.5c-1.5-0.5-1.7-1.7-1.7-2.7
	c-1.8-1.5-3.4-2.9-4.9-4.3c-1.2-1.1-1.6-2.4-1.3-4c1-5,2-9.9,3-14.9c1.3-6.1,2.7-12.2,4.1-18.3c0.4-1.7,1-3.3,1.5-5.1
	c-2.6-1.7-1.9-4.6-2.1-7.1c-0.3-3.9-0.1-7.8-0.3-11.7c-0.1-1.4-0.5-2.7-0.7-4.1c-0.3-1.6-0.8-3.2-1-4.8c-0.4-4.3-0.7-8.7-1-13.1
	c-0.1-2.1-0.1-4.2,0-6.3c0-1.1,0-1.9-1.2-2.5c-1.4-0.7-1.6-2.2-1.7-3.6c-0.2-3.9-0.5-7.8-0.7-11.9c-2.6-0.8-2.8-3.1-2.8-5.4
	c0-1,0-2-0.1-3c-0.1-0.8-0.2-1.7-0.6-2.2c-2.9-3.5-2.8-7.5-1.7-11.6c0.4-1.6,0.4-3.1,0.3-4.8c-0.5-4.1,0.3-8.1,1.8-11.9
	c0.6-1.4,0.6-2.5-0.2-3.9c-2.2-3.8-1.9-8-0.8-12c0.5-1.8,1.2-3.5,2-5.3c0.5-1.1,0.6-2,0.3-3.2c-0.7-2.5-0.3-5,0.9-7.3
	c0.9-1.9,2.1-3.6,3.4-5.3c-0.2,0.6-0.2,1.3-0.5,1.9c-0.5,1.2-1.1,2.4-1.6,3.6c-1.6,3.6-1.2,7,0.9,10.3c0.7,1.2,1.4,2.3,2.1,3.5
	c-0.1,0.1-0.2,0.2-0.4,0.3c-1.2-1.1-2.3-2.2-3.6-3.4c-0.2,0.5-0.5,0.9-0.7,1.4c-0.9,3-1.6,6-1.5,9.2c0.1,2.8,0.9,5.2,2.6,7.4
	c1.4,1.9,2.2,4.1,2.4,6.5c-1.1-1.5-2.2-3.1-3.5-4.9c-0.3,0.8-0.6,1.2-0.6,1.7c-0.4,2.9-0.8,5.9-1.1,8.8c-0.3,2.9,0.9,4.9,3.5,6.2
	c1,0.5,1.9,1.2,3.1,1.9c-2,0.9-2,0.9-7-1.8c-0.8,3.7-1.3,7.3,1,10.6c1.2,1.6,1.7,3.3,1.7,5.2c0,1,0,2,0.1,3c0.1,1.7,0.6,2.4,2.3,2.7
	c1.2,0.3,2.5,0.4,3.7,0.5c2,0.2,4,0.3,6.4,0.5c0-0.9,0-1.8-0.1-2.7c-1.2-11.5-1.5-23.1-1.3-34.6c0.1-6.1,0.6-12.2,0.9-18.2
	c0.1-1.4,0-2.6-1.2-3.8c-1.2-1.2-1.6-2.9-1.5-4.8c0.7,1.1,1.5,2.2,2.6,3.7c0.2-1.1,0.3-1.7,0.4-2.3c0.2-4.8,0.6-9.5,0.6-14.3
	c0.2-10.4,1.4-20.7,3.5-30.9c0.2-1.1,0.6-2.3,1.2-3.3c-0.2,1.5-0.3,3.1-0.6,4.6c-1.2,7.2-1.9,14.4-2.2,21.6
	c-0.5,12.2-0.8,24.5-1.5,36.7c-0.9,14.9-0.5,29.8,0.6,44.7c0.3,4.1,0.7,8.2,1,12.4c0,0.4,0.2,0.9,0.5,1.3c3.6-10.2,6.7-20.5,9.4-31
	c2.7-10.4,5-20.9,7.7-31.3c-0.4,2.6-0.7,5.3-1.1,7.9c-2.5,13.8-5.6,27.5-10.1,40.8c-1.7,4.9-2.9,9.9-4.7,14.7c-3,8-4.8,16.3-7,24.5
	c-1,3.8-1.1,7.7-1,11.6c0.1,4.7,0,9.5,0,14.3c0,0.9,0.2,1.6,1,1.9c0.5,0.1,1.2-0.1,1.6-0.5c1.3-1.3,2.7-2.4,4.9-1.9
	c0.6-1.5,1.1-3,1.7-4.4c2.3-5.4,4.7-10.7,6-16.5c1.7-7.5,2.7-15,3.1-22.7c0.7-16.7,3.4-33.2,6.8-49.6c1-4.8,2-9.6,2.5-14.5
	c0.4-3.7,0.4-7.5,0-11.2c-0.7-6.6-1-13.2-0.7-19.9c0.2-5.7-0.6-11.4-1.2-17c-0.2-2.2-0.5-4.3-1.2-6.6c-0.9,2.2-1.9,4.4-2.8,6.7
	c-0.1,0-0.2-0.1-0.4-0.1c0-0.3-0.1-0.7,0.1-1c3.1-5.8,3.3-12,3.6-18.4c0.2-4.7,0.7-9.3,1.3-14c1-7.1,2.9-13.9,7.9-19.9
	c-0.8,0.1-1.3,0.2-1.8,0.3c-4.9,1.4-9.5,3.6-14,5.9c-1.5,0.8-3.1,1.6-4.7,2.1c-1.9,0.5-3.1,1.7-4.2,3.1c-4,5.5-7,11.4-9.6,17.7
	c-4.4,10.6-6.2,21.5-5.6,32.9c0.1,2.8,0,5.6-0.2,8.5c-0.2-0.5-0.4-1.1-0.5-1.6c-0.5-6.8-1-13.5-0.4-20.3c0.8-8.1,3.3-15.7,6.5-23.1
	c2.3-5.4,5.1-10.5,8.6-15.2c1.2-1.6,2.6-2.7,4.6-3.4c2.4-0.8,4.7-2,7-3.2c4.2-2.2,8.5-3.8,13-5.2c4.5-1.4,8.8-3,13.3-4.6
	c1.6-0.6,2.8-1.6,3.8-3c1.9-2.6,3.9-5.2,5.6-8.2c-0.5,0.1-1.1,0.3-1.6,0.4c-3.2,0.9-6.5,0.9-9.7-0.2c-2.8-0.9-4.6-2.8-5.2-5.7
	c-0.3-1.5-0.7-3-0.8-4.7c0.2,0.3,0.5,0.6,0.7,0.9c0.4,1.2,0.9,2.3,1.2,3.5c0.9,2.9,2.9,4.6,5.9,5.1c3.1,0.5,6.2,0.6,9.2-0.9
	c0.9-0.4,1.5-1,1.8-2c0.5-1.7,1.1-3.4,1.6-5.1c0.7-2.4,1.6-4.7,2.2-7.2c0.9-4.3,1.7-8.6,2.3-12.9c0.9-6.7-0.3-13.2-2.8-19.5
	c-1-2.5-1.9-5.1-2.7-7.7c-2.2-7.2-4.3-14.3-6.2-21.6c-1-3.7-1.4-7.5-2.1-11.3C280.5,65.3,280.4,64.5,280.2,63.2z M305.1,446.2
	c0,0.8,0,1.4,0,2c0.1,8.2,0.4,16.4-0.5,24.6c-0.7,6.7-1.4,13.5-2.4,20.2c-1.8,11.7-1.7,23.5-1,35.2c0.1,1.4,0.3,2.8,0.7,4.2
	c1.9,6.6,3.9,13.1,5.8,19.7c1.1,3.7,2.2,7.3,3.2,11c2.4,8.5,3.3,17.3,4.2,26.1c1,9.3,2.3,18.6,4.3,27.7c2.2,9.7,4.5,19.3,6.7,28.9
	c1.4,5.8,2.8,11.5,4.1,17.3c1.4,6.4,1.7,12.8-0.4,19.2c-0.7,2.1-1,4.4-1.2,6.7c-0.4,5.8-0.6,11.5-0.8,17.3
	c-0.2,4.9,0.3,9.8,1.2,14.6c1.3,6.5,2,13.1,1.5,19.8c-0.1,1.9-0.4,3.9-0.6,5.8c-0.3,3.5,0.7,5,4.1,6.1c2.5,0.8,4.9,0.6,7.4,0
	c1.7-0.5,3.5-1,5.2-1.3c1.2-0.2,2.6-0.3,3.6,0.2c2.4,1,4.3,0.3,6-1.3c4.9-4.6,7.1-10.2,6-16.9c-0.4-2.5-1-4.9-1.7-7.3
	c-2.4-8-4-16.2-3.9-24.6c0-4.9,0.3-9.8-2-14.4c-0.1-0.3-0.1-0.6-0.2-0.9c-0.5-2.2-0.8-4.4-1.4-6.6c-3.8-14.5-4.1-29.3-2.6-44.1
	c1-9.9,2.3-19.8,3.3-29.8c0.8-7.6,1.1-15.3-0.2-22.9c-1.2-7.5-2.5-14.9-3.7-22.4c-1-6-2.2-12-4.3-17.7c-0.8-2.3-2.1-4.4-2.9-6.6
	c-1.4-4.4-1.4-8.9-0.7-13.4c0.6-3.8,1.4-7.5,2.1-11.3c1.7-9.3,3.3-18.6,5.2-27.8c1.3-6,3.1-11.9,4.6-17.9c2.9-10.9,5.9-21.8,10-32.4
	c0.2-0.5,0.3-1.1,0.5-1.8c-1.4,0.3-1.4,0.3-1.6,0.8c-0.8,1.8-0.9,1.9-2.7,1.6c-4.4-0.7-8.9-0.5-13.3,0.4c-1.4,0.3-2.9,0.4-4.4,0.4
	c-2,0-2.6-0.6-2.8-2.6c-0.1-0.8-0.2-1.5-0.3-2.4c-1,0.1-1.9,0.2-2.7,0.3c-5.4,1.2-10.8,2.4-16.2,3.5c-1.6,0.3-2.6,1.1-3.4,2.7
	C314.7,441,311.3,445.2,305.1,446.2z M300.5,741.5c1.9,1.6,4.4,2.4,7,2.8c1.5,0.3,2.9,0.5,4.4,0.7c1.8,0.3,3.7,1.6,5.5,0.1
	c0.1-0.1,0.4,0.1,0.7,0.1c3.6-0.3,6.9-1.8,8.5-5c1.4-2.8,1.6-6.1,2.2-9.2c0.2-1-0.1-2-0.3-3c-0.5-2.8-1-5.7-1.5-8.5
	c-0.8-4.5-1.2-9-1-13.5c0.2-4.8,0.4-9.7,0.6-14.5c0-0.5,0-1.1-0.2-1.6c-2.3-6.3-4.6-12.6-7-18.9c-2.8-7.4-5-14.9-5.2-22.9
	c-0.2-6.9-0.7-13.9-1.2-20.8c-0.7-9-0.8-17.9,0.1-26.9c0.3-2.6,0.6-5.1,0.5-7.7c-0.3-8-1.3-16-3-23.9c-1.3-6.1-3-12.1-4.5-18.2
	c-0.9-3.7-1.9-7.4-3.6-10.8c-0.8-1.6-1.3-3.4-1.8-5.1c-1.4-4.3-1.2-8.8-1.5-13.2c-0.6-8.8-0.3-17.6,0.9-26.4
	c0.9-7,1.9-13.9,2.4-20.9c0.6-7.6,0.9-15.3,1.2-22.9c0.1-1.8,0-3.5,0-5.4c-0.6-0.3-1.3-0.6-1.7-0.8c-1.1,0.5-1.9,1.1-2.7,1.2
	c-1,0.1-2-0.2-3-0.4c-0.1,0.2-0.3,0.4-0.4,0.5c-2.3,3.1-4.1,3-6-0.2c-0.1-0.1-0.2-0.3-0.2-0.4c-0.5-1.3-1-2.6-1.6-4.1
	c-2.1-0.1-4.2-0.2-6.3-0.2c-1.6,0.1-3.3,0.4-4.9,0.7c-1.6,0.3-3,0.1-3.9-1.4c-0.5-0.9-1.3-1.2-2.3-1.5c-2.7-0.8-5.5-1.2-8.3-0.9
	c-2,0.2-4,0.6-6,0.8c-1.1,0.1-2.5,0.2-3.4-0.3c-1.5-0.8-2.6-0.5-4,0.1c0,0.5,0,1,0.1,1.4c1.3,8.2,2.8,16.3,4,24.5
	c1.6,10.7,4,21.1,7.4,31.4c1.7,5.1,2.9,10.3,3.8,15.7c1,5.8,2.1,11.5,3.3,17.2c1.4,6.7,2.5,13.4,2.7,20.2c0.4,9.8,1.4,19.4,2.9,29.1
	c2.5,15.6,5.6,31,9.4,46.3c2.9,11.4,5.9,22.8,10.4,33.7c1.5,3.8,2.4,7.9,3.2,12c1,5.1,1.3,10.4,2.3,15.5c2.1,11,2.8,22.1,2.4,33.3
	c-0.2,5.5-0.3,11.1-0.4,16.6C300.4,737.7,300.5,739.4,300.5,741.5z M326.9,329.1c1.5-3,2.7-5.6,4-8.2c0.5-1,0.4-1.8-0.2-2.8
	c-0.5-0.8-0.7-1.9-0.8-2.9c-0.3-3.4-0.7-6.8-0.8-10.2c-0.2-6.3-0.5-12.6-0.4-18.9c0.1-7.9,0.4-15.8,1.8-23.5
	c0.1-0.8,0.3-1.6,0.4-2.4c0.1,0,0.2,0,0.4,0.1c0.1,1,0.1,2,0.2,3c3.1-10.7,6.1-21.3,9.9-31.7c0,1-0.2,1.9-0.5,2.7
	c-1.3,4.9-2.6,9.8-3.9,14.7c-1.8,6.9-3.6,13.7-5.4,20.6c-0.3,1.3-0.7,2.6-0.7,3.9c-0.3,12.8-0.7,25.6-0.1,38.4
	c0,0.4,0.2,0.8,0.3,1.1c1.2-4.2,5.8-5.4,7.7-8.6c-1.2-1.5-2.3-2.9-3.4-4.3c-2.4-3.2-2.6-6.6-1.2-10.2c1.9-4.9,3.5-9.8,6.2-14.3
	c6.2-10.4,9.1-21.8,10.7-33.6c0.8-6.2,1.9-12.3,3.2-18.4c1.8-8.1,5.2-15.5,10.6-21.9c0.5-0.6,1.1-1.1,1.6-1.7c0.1,0.6-0.1,1-0.3,1.3
	c-4.3,5.8-7.4,12.3-9.5,19.2c-2.3,7.7-3.3,15.6-4.4,23.4c0,0.2,0.1,0.3,0.3,0.7c1-1.6,1.8-3.2,2.7-4.6c1-1.4,2-2.8,3.1-4.1
	c1.2-1.4,2.4-2.7,3.7-3.9c1.1-1.1,2.4-2.2,3.5-3.2c0.1,0.1,0.2,0.2,0.3,0.4c-0.9,0.9-1.8,1.7-2.6,2.7c-2.2,2.6-4.4,5.3-6.4,8
	c-1.5,2.1-2.6,4.5-4,6.6c-1.1,1.7-1.8,3.6-2.2,5.6c-1.2,6.2-3,12.3-5.9,18c-1.8,3.7-3.8,7.3-5.7,11c-0.4,0.7-0.7,1.5-1,2.2
	c3.6-1.8,7-0.9,10.4,0c1.1,0.3,2.3,0.6,3.4,0.7c5.5,0.5,11,0.9,16.6,1.3c1.6,0.1,3.3,0.2,4.9,0.6c2.1,0.5,3.9,1.5,5.4,3.2
	c-0.4,0.1-0.6,0-0.9-0.1c-4-1.3-8-1.8-12.2-2c-7.2-0.4-14.5-0.7-21.3-3.8c-1.5-0.7-2.9-0.4-4.1,0.7c-0.6,0.5-1.2,1-1.7,1.6
	c-3.2,3.9-5.9,9.2-1.4,14.8c2.2,2.7,2.1,2.8,5.6,1.8c4.8-1.5,9.6-1.1,14.1,0.9c2.3,1,4,2.8,4.8,5.2c-0.6-0.3-1.1-0.8-1.6-1.3
	c-5.3-4.7-11.3-6.1-18-3.5c-0.7,0.3-1.5,0.7-1.8,1.3c-1.2,2.2-2.8,3.9-4.8,5.4c-1.9,1.5-2.8,3.3-2.2,5.8c0.4,1.7,0.1,3.2-0.7,4.8
	c-1.9,3.8-3.8,7.5-5.6,11.3c-2.1,4.5-4.2,9.1-6.2,13.6c-0.6,1.3-0.6,2.7,0.3,3.9c3.1-1.1,4.4-1.3,7.6-0.3c2.4,0.8,4.9,1.7,7.1,2.9
	c3.9,1.9,7,4.9,10.2,7.8c0.4,0.4,0.8,0.8,1,1.3c0.2,0.5,0.3,1.1,0.4,1.9c0.7-0.8,1.3-1.3,1.7-2c1-1.6,2-3.2,2.8-4.8
	c2.6-5,5.2-10.1,7.8-15.2c1-1.8,2.2-3.6,3.2-5.2c-1.8-4.3-4.9-7.2-8.8-9.3c-5-2.7-10.3-4.8-15.9-6.2c-1.4-0.3-2.8-0.7-4.3-1.1
	c0-0.2,0.1-0.3,0.1-0.5c1.1,0,2.2-0.2,3.2,0c9.9,2.1,19.6,4.8,26.4,13.4c0.2-0.3,0.4-0.5,0.6-0.7c1.8-3.2,4.4-5.6,7.2-7.9
	c2.7-2.2,5.3-4.6,7.6-7.2c2.6-2.8,3.1-6.2,1.6-9.8c-0.9-2.2-1.9-4.4-2.9-6.6c-0.5-1.1-0.9-2.2-0.8-3.9c1.2,1.9,2.1,3.5,3.2,5.2
	c0.9-1.6,1.7-2.8,2.3-4c1.6-2.9,2.5-6.1,2.1-9.4c-0.1-1.2-0.2-2.3-0.3-3.5c-0.4-5-1.1-10-1-14.9c0.1-8.8,0.7-17.6,1.1-26.4
	c0.4-9.3,1.3-18.7,0.3-28.1c-0.7-6.4-1.5-12.9-3.4-19.1c-0.5-1.7-1.2-3.4-2.2-4.8c-4.7-6.5-11.3-9.7-18.7-11.3c-2.7,3-5.3,5.9-8,8.7
	c-3.5,3.7-6.7,7.7-8.8,12.3c-2.6,5.6-5.4,11.1-7.6,16.8c-4.5,11.4-8.7,22.9-13.2,34.3c-2.1,5.3-3.4,10.7-3.8,16.3
	c-0.6,9.8-1.2,19.6-1.7,29.4c-0.1,2.2,0,4.5,0.2,6.8c0.7,8.4,3.9,15.8,7.8,23.1C325.8,327.6,326.3,328.2,326.9,329.1z M370.5,180.3
	c-0.7-1.2-1-2-1.5-2.7c-1.8-2.5-3.5-5-5.4-7.4c-7.5-9.4-14.6-19.1-21.2-29.1c-4.5-6.9-7.3-14.5-7.7-22.8c-0.3-7.4-0.4-14.8-0.4-22.2
	c0-5.8-0.1-11.5-1-17.3c-1.1-7-4.2-12.7-10.4-16.4c-6.3-3.8-13.2-5.7-20.4-5.9c-2.7-0.1-5.5,0.4-8.1,1.1c-4.1,1.2-8.1,2.8-12.1,4.3
	c-1.1,0.4-1.6,1-1.2,2.3c0.7,2.5,1.1,5.2,1.8,7.7c2.2,8.4,4.5,16.7,6.8,25c0.1,0.3,0.3,0.6,0.6,0.9c1.4-2,2.8-3.8,4.1-5.6
	c0.1,0.1,0.3,0.2,0.4,0.2c-0.6,1.3-1.2,2.6-1.9,4.1c2.8,0.7,4.7,2.4,6.4,4.4c2.4,2.7,4.4,5.6,5.9,9c0.3,0.7,0.8,1.4,1.3,2.5
	c0.9-1.1,1.6-1.8,2.2-2.6c0.8-1.1,1.4-2.3,2.3-3.3c1.5-1.6,3-3.3,4.8-4.4c2.8-1.8,5.8-0.7,7.1,2.4c2.2,5.5,1.9,10.8-1.2,15.9
	c-1.1,1.8-2.6,3.3-4.6,4.2c-0.8,0.4-1.6,0.7-2.9,0.1c0.8-0.3,1.2-0.5,1.6-0.6c2-0.6,3.6-1.9,4.7-3.7c3.2-4.8,3.7-10,1.7-15.4
	c-1.3-3.4-4.3-3.9-6.8-1.3c-1.8,1.9-3.3,4.1-4.9,6.3c-1.1,1.5-2,2.9-3.5,3.8c-1.7-0.2-2.4-1.3-2.9-2.5c-1.6-4.1-4.2-7.5-7-10.7
	c-0.9-1-2.1-1.9-3.2-2.7c-0.7-0.5-1.4-0.4-2.1,0.3c-0.8,0.9-1.4,1.8-0.8,3.1c0.5,1,0.8,2.2,1.2,3.3c1.7,4.8,3,9.7,3.3,14.8
	c0.2,4.6-0.3,9.2-1.3,13.7c-1.2,5.2-2.7,10.3-4,15.4c-0.2,0.8-0.4,1.6-0.6,2.8c1.4-0.6,2.3-1.1,3.2-1.5c0.1,0.1,0.1,0.2,0.2,0.3
	c-0.5,0.5-0.9,1-1.1,1.2c0,2.3-0.2,4.3,0,6.2c1,8.2,4.8,15.2,9.7,21.7c1.1,1.4,2.5,2.6,4.3,3.2c0.4-0.3,0.8-0.5,1.1-0.8
	c4.8-5.1,10.4-9.2,16.2-13.1c4-2.7,7.7-5.8,10.9-9.5c1-1.1,1.7-2.4,1.9-4c-0.3-0.3-0.6-0.7-1-0.9c-2.7-2-5.2-4.2-8-6.1
	c-3.8-2.6-6.7-6-8.8-10.1c-0.8-1.5-1.1-3.2-1.3-4.9c-0.2-1.6,0-3.3,0-4.9c0-0.4,0.3-0.7,0.4-1.1c0.4,1.5,0.6,3,0.6,4.5
	c0.1,2.7,1,5.1,2.4,7.5c2.1,3.4,4.8,6,8.1,8.3c3.5,2.5,6.9,5.1,10.2,7.9c2.9,2.4,5.3,5.3,7.3,8.5c1.6,2.4,3.2,4.8,4.6,7.3
	c0.8,1.3,1.7,2.4,3.2,2.7c2.5-1.4,3.3-1.2,4.9,1c0.4,0.5,0.6,1.1,1.1,1.5c0.6,0.6,1.2,1.3,2,1.5
	C364.3,178.6,367.1,179.3,370.5,180.3z M263.8,353.2c-0.3,0.6-0.5,1.3-0.8,1.9c-2.4,5.1-5,10.3-7.3,15.4c-2.8,6.3-5.6,12.5-8.2,18.9
	c-3.7,9-7.4,18-10.9,27.1c-1.7,4.3-3.1,8.7-4.5,13c-0.4,1.1-0.4,2.4-0.6,3.5c8.6,3.2,14.4,5,20.7,2.8c-0.5-6.3,0.8-12.4,2.2-18.4
	c1.9-8.1,3.3-16.4,4.3-24.7c0.9-7.3,1.9-14.5,2.8-21.8c0.1-0.6,0.3-1.3,0.5-1.9c0.3,0.8,0.3,1.6,0.2,2.4c-0.5,5.4-1,10.7-1.5,16.1
	c-0.9,10.1-2.2,20.2-4.4,30.1c-1.2,5.1-2.3,10.2-2.5,15.5c-0.1,1.9,0.1,3.5,1.8,4.5c3.3-0.3,6.5-0.6,9.6-1c3.3-0.3,6.3,1,9.5,2.4
	c0.1-1.3,0.1-2.2,0.2-3.1c0.7-17.5,0.6-35.1,2.7-52.6c0.9-7.2,1.9-14.4,3.6-21.4c0.7-2.7,1.2-5.4,1.9-8.3c-8.9-0.7-17.6-0.7-25.5-5
	c-1.3,2.9-2.6,5.6-3.8,8.4c-0.9,2.3-1.9,4.6-2.5,7c-1.3,5.6-2.3,11.3-3.5,16.9c-0.5,2.4-1.4,3.5-3.8,3.7c-1.4,0.1-3.1,0.1-4.3-0.6
	c-2-1.2-3.4-1-4.8,0.7c-0.1,0.2-0.4,0.3-0.6,0.4c-0.9,0.4-1.2,1.1-1.3,2c-0.5,2.9-1.1,5.8-1.7,8.7c-1.7,8.2-3.4,16.5-5.1,24.7
	c-1.2,5.6-1.2,5.6,3.4,9.2c0.1,0.1,0.3,0.1,0.5,0.2c4-13.4,10.2-25.9,15.1-39C250.2,377.8,256.4,365.2,263.8,353.2z M310,442.3
	c3.5-2.2,5.8-5.4,6.9-9.2c0.8-2.5,1.3-5,2-7.4c0.5-1.6,1-3.1,1.6-4.6c3.4-7.4,5.6-15.2,6.1-23.4c0.1-2.2,0.8-4.1,2-5.9
	c2.6-4.1,5.1-8.2,7.4-12.4c3.2-5.9,5.4-12.4,9.4-17.9c-0.2-0.3-0.2-0.6-0.4-0.7c-4-3.7-8.1-7.3-13.4-9.3c-2.1-0.8-4.3-1.3-6.5-1.8
	c-1.7-0.4-2.2,0.1-2.7,1.5c-1.3,3.6-2.4,7.3-3.9,10.8c-4,9.4-8.1,18.7-12.2,28.1c-1.2,2.7-3,5.1-5,7.3c-6.2,6.9-10.3,14.8-10.2,24.4
	c0,4.6-0.4,9.2-1.2,13.7c-0.3,1.9-0.4,3.9-0.4,5.8c0.1,2.4,1,4.5,3,6.2c1.8-1,3.2-2,3.2-4.1c-0.1-4.8,0.8-9.5,1.6-14.2
	c0.1-0.8,0.4-1.6,0.5-2.3c0.2,0,0.4,0.1,0.6,0.1c-0.2,2.5-0.4,4.9-0.6,7.4c-0.3,3-0.6,5.9-0.8,8.9c0,0.6,0.2,1.6,0.6,1.7
	c0.6,0.2,1.6,0.1,2.2-0.3c1.2-0.8,2.3-1.9,2.5-3.5c0.1-1.1,0.3-2.2,0.6-3.2c0.5-2.1,1.1-4.1,1.6-6.2c0.2,0,0.4,0.1,0.6,0.1
	c-0.6,4-1.1,8.1-1.7,12.3c0.5,0,0.8-0.1,1.1-0.1c2.3,0.5,2.7,0.4,3.7-1.5c0.8-1.4,1.3-3,1.8-4.5c0.7-2.1,1.2-4.3,1.9-6.5
	c0.1-0.3,0.4-0.6,0.9-1.2C311.8,434.5,310.9,438.4,310,442.3z M264.1,312.1c-1.7,11.6-2.5,23.5-6.1,35.1c3.8,1.3,7.4,2.4,11.2,2.7
	c6,0.5,12,1,17.9,1.4c2.6,0.2,5.3,0.1,7.9-0.1c7.6-0.6,15.1-2.1,22.5-3.9c2.1-0.5,2.7-1.7,1.8-3.7c-0.9-2.1-1.8-4.1-2.8-6.2
	c-3.8-7.5-6.2-15.5-7.2-23.8c-0.1-1-0.3-1.9-0.5-3c-3.3,0.6-6.3,0.4-9.3-0.3c-1.1-0.2-2.4-0.2-3.4,0.1c-1.8,0.6-3.6,0.7-5.5,0.6
	c-0.5,0-0.9,0-1.4,0.1c-2.8,0.7-8-0.1-10.2-1.9c-0.8-0.6-1.4-0.6-2.3-0.1c-1.2,0.7-2.5,1.4-3.8,1.7
	C270.1,311.4,267.3,311.7,264.1,312.1z M283.9,353.6c0.8,5.8,1.5,11.4,2.2,16.9c0.7,5.5,1.3,11,1.8,16.5c0.4,5.5,0.6,11,0.2,16.5
	c-0.2,0-0.4,0-0.6,0c-1.4-14.7-2.9-29.4-4.3-44.1c-0.6,1.7-1,3.3-1.2,5c-1,6.6-2.3,13.2-2.8,19.9c-1.1,14.3-1.7,28.6-2.6,43
	c-0.2,3.9-0.6,7.8-0.9,11.7c0,0.4,0,0.7,0,1.3c4.3-0.8,8.3-1.2,12.6-0.5c0.3-2,0.5-3.8,0.7-5.6c0.5-4.3,1.2-8.5,1.4-12.8
	c0.5-9.5,4.3-17.6,10.1-24.9c2-2.6,3.9-5.2,5.2-8.3c1.7-4.3,3.5-8.5,5.1-12.8c0.3-0.7,0.4-1.7,0.1-2.4c-1.6-3.9-2.5-8-3.3-12.2
	c-0.3-1.4-0.6-2.8-1-4.2c-0.9,9.8-0.4,19.6-2.3,29.3c-0.5-11.3,0-22.6,1.1-34.1C298.1,353.5,291,353.6,283.9,353.6z M245.6,382.6
	c0.4-1.2,0.8-2.2,1.1-3.3c1.1-4.4,2.2-8.8,3.1-13.2c0.9-4.1,2.5-8,4.1-11.9c1.5-3.6,3.1-7.2,3.9-11c1.6-7.9,2.8-15.8,4-23.8
	c2.1-14.7,3.9-29.4,6-44.1c0.7-4.9,0.8-9.8-0.1-14.7c-0.6-3.4-1.3-6.8-1.4-10.2c-0.2-6.9-0.2-13.9-0.1-20.8c0.1-11,0.1-22,0.5-33
	c0.4-9.3,1.1-18.6,6.3-27c-3.7,0.6-6.7,1.9-8.5,5.4c-2.2,4.6-4.3,9.2-5.1,14.3c-0.4,2.5-0.8,4.9-1.1,7.4c-1.3,8.7-1.6,17.4-0.5,26.1
	c1,7.8,1.5,15.5,1.2,23.3c-0.1,3.7,0.2,7.3,0.4,11c0.2,3.7,0.7,7.3,1,11c0.5,6.8-1.2,13.3-2.6,19.9c-3.1,14.9-5.5,29.9-6.6,45.1
	c-0.4,5.7-0.8,11.4-1.6,17c-1.1,7.8-3,15.4-6.2,22.7c-1.3,2.8-2.1,5.8-3.2,8.8C241.8,383.1,243.6,382.7,245.6,382.6z M320.8,342
	c1.7-3.6,3.3-7,4.9-10.4c0.4-0.8,0.2-1.4-0.2-2.2c-1.2-2-2.3-4.1-3.4-6.1c-4.5-9-6.6-18.4-5.9-28.5c0.6-8,1-16,1.4-24.1
	c0.4-6.7,1.5-13.1,4.2-19.3c2.8-6.4,5.3-13,7.9-19.5c3.3-8.2,6.5-16.5,9.9-24.7c3.3-7.8,7.6-15,13.5-21.2c1.7-1.7,3.1-3.7,4.6-5.6
	c0.4-0.6,0.8-1.5,0.5-2.1c-0.4-1.1-1.1-2.2-1.9-3.2c-0.9-1-2.2-0.8-2.9,0.3c-0.7,1-1.3,2.1-2.1,3.1c-8.1,9.9-14.6,20.8-20.5,32.1
	c-4.4,8.5-8.7,16.9-13,25.4c-4.5,8.8-6.9,18-6.4,28c0.1,2.4,0.1,4.8,0,7.3c-0.3,9.5-0.7,19-1,28.5c-0.2,5.6,0.2,11.1,1,16.6
	C312.7,325.4,316.3,333.7,320.8,342z M308.9,308.9c0-1.5,0-2.6,0-3.7c0.1-3.7,0-7.3,0.3-11c0.8-11,1.5-22.1,1.2-33.2
	c-0.2-7.8,1.4-15.2,4.6-22.3c1.3-2.8,2.5-5.5,3.9-8.3c4.4-8.6,8.7-17.3,13.2-25.8c5-9.5,10.7-18.7,17.9-26.8c0.9-1,1.7-2.2,2.6-3.3
	c-0.7-0.6-1.3-1.1-2.1-1.7c-1.6,2.6-3.2,5.1-4.7,7.6c-2.4,4.1-5.2,8-8.7,11.3c-2.5,2.3-5,4.5-7.6,6.6c-1.5,1.2-3.1,2.3-4.9,3.2
	c-3.3,1.6-6.2,0.9-8.6-1.9c-0.9-1.1-1.6-2.3-2.5-3.4c-0.3-0.4-0.7-0.7-1.2-1.3c-0.1,0.7-0.1,1.1-0.1,1.5c0,9.7-1.2,19.3-3.2,28.8
	c-1.6,7.5-3.7,15-5.5,22.5c-2.6,10.3-3.1,20.8-2.9,31.4c0.2,9.1,0.6,18.2,0.9,27.4c0,0.7,0.1,1.5,0.2,2.4
	C304.1,308.9,306.4,308.9,308.9,308.9z M278.2,307.4c-0.1-0.8-0.2-1.3-0.3-1.8c-0.6-3.8-1.8-7.4-1.2-11.3c0.5-3.1,1.4-6.1,2.6-9
	c1.1-2.6,2.2-5.2,2.9-7.9c1.9-6.6,2.9-13.4,3.5-20.3c0.5-5.7,1.4-11.3,3.7-16.6c2.6-6,4.1-12.3,5.8-18.5c0.4-1.4,0.7-2.9,1-4.3
	c-0.8,0.2-1.1,0.6-1.6,0.9c-2.2,1.3-4.4,2.6-6.7,3.7c-0.8,0.4-1.5,0.7-2,1.4c-4.4,5.4-8.8,10.7-13.1,16.2c-1.7,2.1-3,4.5-4.2,7
	c-0.5,1-0.7,2.4-0.6,3.6c0.2,3.3,0.6,6.5,1.1,9.8c0.7,4.3,1,8.6,0.4,13c-1.7,11.5-3.3,23-4.9,34.5c-0.1,0.9-0.1,1.8-0.2,2.9
	C269.2,310.3,273.5,308.5,278.2,307.4z M345.9,384.4c2.7,8,5.4,15.8,8.1,23.6c2,5.8,4,11.6,6.1,17.4c0.5,1.4,1.2,2.7,1.8,3.9
	c0.4,0,0.6,0,0.7-0.1c6.4-2.8,13.2-3.5,20.1-3.5c0.7,0,1.5-0.1,2.3-0.2c-0.2-0.6-0.2-0.9-0.3-1.2c-2.6-6.8-5.4-13.4-9.1-19.7
	c-3-5-5.6-10.3-7.5-15.8c-1-2.8-1.9-5.6-2.9-8.4c-0.8-2.4-0.9-2.5-3.3-2.1c-1.3,0.2-2.5,0.7-3.8,0.9
	C353.6,380.2,349.6,381.9,345.9,384.4C345.9,384.3,345.9,384.4,345.9,384.4z M377.3,353.6c2.2-4,2.6-7.9-0.3-11.8
	c-1.5-2.1-2.8-4.3-4-6.6c-1.2-2.6-2.2-5.3-3.3-8.1c-2.5,1.7-4,4.1-4.9,7c-0.2,0.7-0.5,1.5-0.8,2.1c-2.3,4.3-4.6,8.7-7,13
	c-2.6,4.7-4.4,9.8-8.2,13.8c-0.7,0.7-0.3,1.4,0,2.2c0.8,2,1.5,3.9,2.3,5.9c1,2.4,2.1,4.7,3.2,7.2c1-0.3,1.9-0.5,2.8-0.7
	c1.5-0.4,3-1.1,4.5-1.1c4.9-0.2,9.8-0.3,14.7-0.4c1.5,0,3,0,4.7,0c-2.4-12.4-7.4-24.1-9.3-36.5C374.4,343.9,375.9,348.7,377.3,353.6
	z M337.4,156.3c-1,1.8-1.7,3.4-2.8,4.8c-1.4,1.7-3,3.2-4.7,4.6c-3,2.3-6.2,4.5-9.3,6.6c-4.3,2.9-8.4,6-11.9,9.8
	c-0.7,0.7-1.3,1.5-2,2.5c3.9,2.8,6,6.7,8.4,10.5c0.8,1.2,1.5,2.4,2.5,3.4c1.8,2.1,3.9,2.5,6.3,1.3c1.6-0.8,3.1-1.9,4.4-3
	c2.5-2.1,5-4.3,7.4-6.5c1.4-1.3,2.8-2.5,3.9-4c3.3-4.6,6.5-9.3,9.7-14C345.7,166.4,342.8,160.4,337.4,156.3z M281.2,199.6
	c4.4,0,21.7-12.1,23.2-16.2c-3.5-0.9-5.1-3.8-6.9-6.6c-1.4-2.2-2.6-4.6-3.8-7c-2-3.9-3-8.2-3.3-12.6c-0.1-1.5,0.1-3,0.2-4.6
	c-1.8,0.8-1.8,0.8-2.2,1.7c-1.6,4.5-4.4,8.3-7.2,12c-1.8,2.4-2.8,5.1-2.7,8c0.2,5.8,0.5,11.7,1,17.5
	C279.7,194.5,280.1,197.2,281.2,199.6z M396.4,418.1c-0.4-0.9-0.7-1.5-1-2.1c-1.5-3.7-3.3-7.3-4.3-11.1c-2.2-8.6-5.2-16.8-8.9-24.8
	c-0.6-1.4-1.4-1.9-2.8-1.9c-4.4,0-8.9-0.1-13.3-0.1c-0.3,0-0.6,0.1-1,0.2c0.8,1.9,1.7,3.5,2.3,5.2c2.4,6.4,5.2,12.7,8.7,18.6
	c3.6,6,6.5,12.4,9.2,18.9c0.3,0.7,0.6,1.4,1,2.4C389.2,420.4,393.4,420.7,396.4,418.1z M329,751.4c-0.3,1.5-0.7,2.9-0.8,4.2
	c0,3.4,0.4,6.7,1.8,9.8c3,6.8,6.2,13.4,10.2,19.7c0.8,1.3,2,2.4,3,3.5c0.7,0.8,1.7,0.9,2.5,0.2c1.2-1,2.5-2,3.3-3.3
	c2.6-4.5,5.4-8.8,8.5-12.8c1.1-1.4,2-3,2.8-4.6c1.4-2.5,2.7-5.1,4.1-7.6c1.6-2.9,2.4-5.9,2.6-9.2c0.4-6.5-0.1-12.9-2.3-19.2
	c-0.4-1.2-0.7-2.5-1.1-3.8c-1.2-4.7-1.1-9.4-1.4-14.2c-0.4-6.2-1.2-12.4-3.2-18.4c-0.3-0.9-0.7-1.8-1.1-2.7c-0.1,0-0.3,0.1-0.4,0.1
	c0.2,2.5,0.5,4.9,0.5,7.4c0,8.3,1.3,16.3,3.7,24.2c0.7,2.2,1.2,4.4,1.6,6.6c1.1,6.2,0.1,12-4.3,16.9c-1.4,1.5-2.5,3.3-4.8,4
	c2.1,2.2,3.3,4.5,3.9,7.2c1.2,5.6-1.6,11-6.9,13.1c-5.8,2.4-12.9,0.9-17.3-3.5c-2.8-2.9-3.4-6-1.7-9.6c0.7-1.5,1.6-3,2.4-4.3
	C333,754,331.2,752.8,329,751.4z M318.5,432.2c8.8-2.4,17-4.8,25.5-5.3c-1.3-4.9-2.7-9.4-3.7-14.1c-1.1-4.7-2.1-9.4-2.8-14.2
	c-0.7-4.6-1.2-9.3-1.8-14.4c-2,3.1-3.6,5.7-5.4,8.3c-1.3,1.9-1.9,3.9-2,6.1c-0.5,8.3-2.7,16.1-6.4,23.5
	C320.2,425.2,320.1,428.6,318.5,432.2z M360.4,431.7c-0.2-0.8-0.2-1-0.3-1.2c-3.1-6.3-5.1-13.1-7.2-19.8c-2.5-8.3-5-16.6-7.5-24.9
	c-0.2-0.6-0.4-1.3-0.8-1.6c-1.7-1.1-2.4-2.8-3.2-4.5c-0.5-1-1-2-1.6-3.1c-0.4,0.5-0.6,0.6-0.7,0.8c-0.7,1.2-1.3,2.5-2,3.7
	c-0.6,1.1-0.7,2.1-0.5,3.4c1.7,10.7,3.5,21.4,6.5,31.8c1.1,4,1.9,8.1,4,11.7c0.2,0.4,0,1.1,0,1.9c-2.2-0.8-4.2-1.2-6.3-0.6
	c0.4,1.1,0.8,2,1.2,3.1C348,432.3,354,430.1,360.4,431.7z M283.4,201.5c-3.2,0.4-4.1-1.4-4.5-3.8c-0.7-3.8-1.7-7.6-2-11.5
	c-0.4-5.7-1.1-11.5,0.4-17.2c0-0.1-0.2-0.2-0.3-0.3c-2.9,1.5-4.3,4.1-5.4,7c-2,5.5-3,11.2-3.2,16.9c-0.5,13.5-0.6,27-0.9,40.5
	c0,0.5,0.2,1,0.3,1.5c3.2-6.4,8.5-11,13.9-15.6c-1.2-1.1-2.3-2.1-3.3-3c-1-0.9-1.3-2.1-0.9-3.4c1-3.4,2.2-6.7,4.6-9.3
	C282.4,202.8,282.8,202.3,283.4,201.5z M309.8,190.6c-0.1,0.5-0.3,0.9-0.3,1.3c-0.2,4.5-0.8,9-1.9,13.4c-2.2,8.8-4.5,17.7-6.9,26.5
	c-2.8,10.3-5.1,20.6-5.4,31.3c-0.4,12.9-0.5,25.7-0.7,38.6c0,2.2,0,4.3,0,6.5c1.9,0,3.7,0,5.6,0c0-0.9,0-1.6,0-2.3
	c-0.2-7.6-0.2-15.1-0.5-22.7c-0.5-14.3,0.4-28.4,4.3-42.2c3.5-12.7,5.7-25.6,6.9-38.6c0.2-2.7,0.4-5.4,0.5-8.2
	C311.3,192.9,311,191.7,309.8,190.6z M305.7,185.6c-0.3,0.8-0.6,1.5-0.7,2.2c-0.2,0.8-0.2,1.5-0.4,2.3c-1.5,6.5-3,13.1-4.7,19.5
	c-0.5,2-1.6,3.9-2.4,5.8c-0.3,0.8-0.8,1.5-0.9,2.3c-0.7,6.1-2,12.1-4,18c-2,5.8-4.5,11.5-5.1,17.7c-0.5,4.3-1,8.5-1.6,12.8
	c-0.3,2.4-0.8,4.9-1.3,7.6c4-2,6.6-0.5,8.7,3.2c0.1-0.9,0.2-1.3,0.2-1.8c0.1-3.4,0.2-6.9,0.3-10.3c0.4-10.5,1.9-20.8,4.5-30.9
	c2.7-10.2,5.5-20.5,8-30.8c1-3.9,1.4-8,2-12C309,188.8,307.9,187.1,305.7,185.6z M314.9,603c-0.2,0-0.4,0.1-0.6,0.1
	c-0.3,5.4-0.5,10.9-0.1,16.3c0.6,9.4,1.4,18.8,1.9,28.3c0.3,6.2,1.3,12.2,3.5,18.1c2.3,6.2,4.6,12.4,6.9,18.6c0.1,0.3,0.3,0.5,0.6,1
	c0.6-2.2,1.1-4.1,1.6-6.1c0.7-3,1-6,0.7-9c-0.4-5.1-1.7-10-2.9-14.9c-2-8.4-3.8-16.9-5.7-25.3c-1.6-7.1-3.3-14.3-4.9-21.4
	C315.4,606.8,315.2,604.9,314.9,603z M394.8,409.9c0.2,0,0.4,0.1,0.6,0.1c0.6-2.8,2.7-3.9,5.1-4.6c0.4-0.1,0.9-0.3,1.3-0.5
	c0.8-0.3,1.2-0.9,1.4-1.7c0.7-4.8,2.4-9.3,4.3-13.8c0.2-0.5,0.3-1.1,0.5-1.9c-3.6-0.9-6.1-3.1-8.2-5.8c-2.8-3.6-6.3-6.2-10.3-8.2
	c-2.3-1.2-4.5-2.8-6.7-4.3c-0.3-0.2-0.7-0.4-1.3-0.8c0.5,2.3,1,4.1,1.4,6c0.2,0.9,0.5,2,0.1,2.7c-0.6,1.2-0.3,2.1,0.3,3
	c4.6,7.2,7.6,15,9.6,23.2C393.4,405.6,394.2,407.7,394.8,409.9z M320,747.2c-0.1,0.3-0.2,0.4-0.2,0.4c0.1,0.6,0.2,1.2,0.2,1.8
	c0.5,6.9-1.4,12.8-7.1,17.1c-3,2.2-6.4,2.8-9.8,0.7c-0.2-0.1-0.4-0.1-0.9-0.2c0.5,1.2,0.9,2.3,1.3,3.4c0.8,2,1.5,4.1,2.4,6.1
	c1.4,3.1,3.1,3.7,6.2,2.5c0.9-0.3,1.8-0.7,2.5-1.2c5.2-3.3,10.2-6.9,13.9-12c-0.3-1.4-0.7-2.7-1-4.1c-0.8-4-1.2-8,0.8-11.9
	c0.2-0.4,0.3-0.9,0.3-1.3c0.1-1.9,0.1-3.9,0.1-5.8c0-0.3-0.1-0.6-0.3-1.2C326.2,744.6,323.2,746.1,320,747.2z M336.3,755
	c-0.9,2-1.7,3.9-2.4,5.7c-1,2.7-0.2,5.1,1.8,7c3.7,3.3,7.9,4.8,12.9,3.7c8.7-2,9.8-10.9,5.4-16.5c-0.4-0.5-1.1-1.3-1.6-1.3
	c-2.1,0-4.1-0.9-6.2-0.3C343.1,754.2,340,755.4,336.3,755z M283.2,280.1c-0.8,1.8-1.3,3.4-2.1,4.9c-3.1,5.8-3.9,11.9-2.3,18.3
	c1.7,6.8,1.3,5.7,7.4,6.2c0.2,0,0.4-0.1,0.7-0.2c-0.2-0.6-0.3-1.2-0.4-1.8c-0.1-0.7-0.2-1.4-0.3-2.1c-0.1-6.8,1-13.3,5.4-18.9
	c1.2-1.6,1.8-3.4,1.9-5.5C289,284.4,287.4,284.2,283.2,280.1z M309.7,746.8c-0.1,0.1-0.2,0.2-0.3,0.3c0.3,0.2,0.5,0.3,0.8,0.5
	c3.5,3,1.5,8.3-1.2,9.9c-2.2,1.3-4.5,0.7-5.7-1.6c-1-1.9-0.8-4.5,0.6-6.2c0.9-1.1,1.9-2.2,2.8-3.3c-1.4-0.4-2.6-0.8-4-1.3
	c-0.6,0.8-1.3,1.6-1.7,2.5c-2.7,5.3-2,10.4,0.9,15.4c2.2,3.7,5.8,4.5,9.4,2.3c5.5-3.2,8.1-11.7,6.3-17
	C314.9,747.7,312.3,747.3,309.7,746.8z M312,371.9c0.4-0.6,0.7-1,0.9-1.4c0.8-1.8,1.7-3.7,2.4-5.6c1.8-4.3,3.7-8.6,5.4-12.9
	c0.9-2.3-0.3-3.6-2.7-3.2c-3.4,0.7-6.7,1.4-10,2.2c-0.4,0.1-0.8,0.4-1.2,0.6C308.6,358.4,310.3,365,312,371.9z M224.5,321.1
	c0.6,4.1,1.1,8.1,1.7,12c0.1,0.9,0.5,1.7,1.5,1.8c2.6,0.4,5.2,0.7,7.8,1c1-5,0.5-9.7-0.1-14.5C231.6,322.4,228.1,321.3,224.5,321.1z
	 M345.3,364.2c-1.7,3.7-3.3,7.3-4.9,10.9c-0.1,0.3,0,0.9,0.2,1.3c1.1,1.7,2.2,3.4,3.4,5c0.8,1.1,1.3,1.2,2.6,0.5
	c1.8-1.1,3.7-2.3,5.3-3.3c-1.5-4.6-2.9-9.2-4.4-13.9C347,364.5,346.4,364.4,345.3,364.2z M282.3,219.8c-2.2,2.2-4.3,4.3-6.4,6.4
	c-3.8,3.8-6.3,8.3-8.1,13.3c-0.5,1.5-0.5,3.1,0,4.7c5.6-7.8,11.7-15,18.1-22C284.7,221.3,283.6,220.6,282.3,219.8z M302.2,189.2
	c-0.8,0.7-1.7,1.3-2.5,2c-2.9,2.4-5.8,4.7-8.7,7.1c-1.6,1.3-3.2,2.5-4.8,3.7c-3.1,2.4-5.2,5.6-6.3,9.3c-0.9,2.7-0.8,3.1,1.9,4.6
	c0.1-0.3,0.2-0.6,0.3-0.9c0.3-4.7,3.1-7.7,6.9-10.2c2.4-1.5,4.7-3.3,6.8-5.2C298.9,196.9,301,193.4,302.2,189.2z M301.9,195.1
	c-1.9,2.3-3.8,4.3-5.6,6.5c-0.4,0.5-0.6,1.4-0.8,2.1c-0.4,2.1-0.5,4.2-1.2,6.2c-1.1,3.5-3.7,5.7-7.2,6.8c-1,0.3-2.2,0.2-3.4,0.3
	c0.5,2.3,2.9,3.7,5.1,3.1c4.8-1.2,7.7-4.4,9-9C299.5,205.9,300.6,200.5,301.9,195.1z M293.1,285.9c-0.4,0.7-0.8,1.5-1.2,2.2
	c-2.9,4.5-4.1,9.6-4.3,14.9c-0.1,2.1-0.2,4.2,1,6.2c1.5,0.2,2.9,0.3,4.3,0.5C293.5,307.4,293.9,289.5,293.1,285.9z M228,337.2
	c0.6,7.7,1.2,15.1,1.8,22.5c0.2,0,0.3,0,0.5,0c1.3-7.3,4-14.3,5.1-21.8c-2.2-0.2-4.2-0.5-6.2-0.7C228.8,337.1,228.5,337.2,228,337.2
	z M293.4,204.4c-6.2,3-9.8,6.2-9.5,10.7C288.3,216.5,293.2,211.1,293.4,204.4z M288.6,274c-1.8-0.1-3.8,1.7-3.8,3.4
	c-0.1,2.1,2.2,4.1,4.7,4.2c1.4,0,2.5-1.2,2.6-3C292.1,277.1,290.4,273.9,288.6,274z M304.1,752.3c0,2.1,0.9,3.5,2.3,3.7
	c1.1,0.1,2.3-0.9,2.9-2.6c1-2.7-0.3-4.2-3.2-4c-1.2,0.1-1.7,0.6-1.8,1.6C304.2,751.5,304.2,752,304.1,752.3z M336,89.9
	c3.1-4.2,2.9-6.1-0.7-9.2C335.5,83.8,335.7,86.9,336,89.9z M298.8,741.1c0,2.5,0,4.4,0,6.7c1.1-1.3,1.9-2.4,2.8-3.5
	C300.7,743.2,299.9,742.3,298.8,741.1z"/>
<path d="M254.5,107.2c3-1.2,6.1-2.1,9.4-1.4c4.8,1,9.5,0.3,14.1-0.8c0.6-0.1,1-0.9,1.6-1.2c2.4-1.7,2.5-4,1.7-6.5
	c-1.1-4-2.1-8-3.1-12c-0.2-0.9-0.4-1.8-0.6-2.7c0.1-0.1,0.3-0.1,0.4-0.2c0.3,0.8,0.6,1.6,0.9,2.4c4.5,13,6.8,26.5,9.4,40
	c1.2,6,1.7,12,1.2,18.1c-0.1,0.9-0.2,1.8-0.6,2.8c-0.3-4.7-0.5-9.5-1-14.2c-0.6-4.7-1.5-9.4-2.4-14.1c-0.9-4.7-1.5-9.5-3.2-14.2
	c-1.3,0.7-2.5,1.3-3.5,2c-4,2.8-8.6,3.1-13.2,2.4c-2.9-0.4-5.7-0.6-8.6,0.1c-0.8,0.2-1.7,0.1-2.5,0.1
	C254.6,107.7,254.5,107.5,254.5,107.2z"/>
<path d="M262.5,123c0.4-1.1,0.8-2.3,1.2-3.4c0.1,0,0.2,0.1,0.4,0.1c-0.4,2-0.8,4-1.1,6c-0.2,0.9-0.3,1.8-0.3,2.8c0,2,0.8,2.9,2.7,3
	c2.6,0.1,5.3,0,7.7,0c-1.1,1.4-6,1.9-9.7,0.6c0.1,0.6,0.1,1.1,0.3,1.5c1.1,1.9,2.3,3.9,3.5,5.8c0.4,0.7,1,1.4,1.7,2.4
	c-1.5,0-2.1-0.8-2.8-1.5c-3-3.5-4.7-7.5-5.2-12c-0.1-1.1-0.2-2.2-0.2-3.3c0.2-4.8-0.4-9.5-1.6-14.1c-0.1-0.3-0.1-0.6-0.1-0.9
	c0-0.1,0.1-0.2,0.3-0.5C261.6,113.7,262,118.3,262.5,123z"/>
<path class="st0" d="M305.1,446.2c6.2-1,9.6-5.1,12.1-10.2c0.8-1.6,1.7-2.3,3.4-2.7c5.4-1.1,10.8-2.3,16.2-3.5
	c0.8-0.2,1.7-0.2,2.7-0.3c0.1,0.9,0.2,1.7,0.3,2.4c0.2,2,0.8,2.6,2.8,2.6c1.5,0,3-0.2,4.4-0.4c4.4-0.9,8.8-1.1,13.3-0.4
	c1.8,0.3,1.9,0.2,2.7-1.6c0.2-0.4,0.2-0.4,1.6-0.8c-0.2,0.7-0.3,1.3-0.5,1.8c-4.2,10.5-7.2,21.4-10,32.4c-1.6,6-3.4,11.9-4.6,17.9
	c-1.9,9.2-3.5,18.5-5.2,27.8c-0.7,3.8-1.5,7.5-2.1,11.3c-0.7,4.5-0.7,9,0.7,13.4c0.7,2.3,2,4.4,2.9,6.6c2.1,5.7,3.3,11.7,4.3,17.7
	c1.2,7.5,2.5,14.9,3.7,22.4c1.2,7.6,0.9,15.3,0.2,22.9c-1,9.9-2.3,19.8-3.3,29.8c-1.5,14.8-1.2,29.6,2.6,44.1
	c0.6,2.2,0.9,4.4,1.4,6.6c0.1,0.3,0.1,0.6,0.2,0.9c2.3,4.6,2.1,9.6,2,14.4c-0.1,8.5,1.6,16.6,3.9,24.6c0.7,2.4,1.3,4.8,1.7,7.3
	c1.1,6.7-1.1,12.3-6,16.9c-1.7,1.6-3.6,2.3-6,1.3c-1.1-0.4-2.5-0.3-3.6-0.2c-1.8,0.3-3.5,0.8-5.2,1.3c-2.5,0.6-4.9,0.8-7.4,0
	c-3.4-1.1-4.4-2.6-4.1-6.1c0.2-1.9,0.4-3.9,0.6-5.8c0.5-6.7-0.1-13.2-1.5-19.8c-1-4.8-1.5-9.7-1.2-14.6c0.3-5.8,0.4-11.5,0.8-17.3
	c0.1-2.2,0.5-4.5,1.2-6.7c2.1-6.4,1.8-12.8,0.4-19.2c-1.3-5.8-2.8-11.5-4.1-17.3c-2.3-9.6-4.5-19.3-6.7-28.9
	c-2.1-9.1-3.3-18.4-4.3-27.7c-0.9-8.8-1.8-17.5-4.2-26.1c-1-3.7-2.2-7.3-3.2-11c-1.9-6.6-3.9-13.1-5.8-19.7
	c-0.4-1.3-0.6-2.8-0.7-4.2c-0.6-11.8-0.7-23.5,1-35.2c1-6.7,1.7-13.5,2.4-20.2c0.9-8.2,0.6-16.4,0.5-24.6
	C305.1,447.6,305.1,447,305.1,446.2z"/>
<path class="st0" d="M300.5,741.5c0-2,0-3.8,0-5.6c0.1-5.5,0.2-11.1,0.4-16.6c0.5-11.2-0.2-22.3-2.4-33.3c-1-5.1-1.3-10.4-2.3-15.5
	c-0.8-4-1.6-8.2-3.2-12c-4.4-11-7.5-22.3-10.4-33.7c-3.9-15.3-7-30.7-9.4-46.3c-1.5-9.6-2.5-19.3-2.9-29.1
	c-0.3-6.8-1.3-13.5-2.7-20.2c-1.2-5.7-2.3-11.5-3.3-17.2c-0.9-5.3-2.1-10.6-3.8-15.7c-3.4-10.2-5.8-20.7-7.4-31.4
	c-1.3-8.2-2.7-16.3-4-24.5c-0.1-0.4-0.1-0.9-0.1-1.4c1.4-0.6,2.6-0.9,4-0.1c0.9,0.5,2.2,0.4,3.4,0.3c2-0.2,4-0.6,6-0.8
	c2.8-0.3,5.6,0.1,8.3,0.9c1,0.3,1.7,0.6,2.3,1.5c0.9,1.5,2.3,1.7,3.9,1.4c1.6-0.3,3.2-0.6,4.9-0.7c2.1-0.1,4.2,0.1,6.3,0.2
	c0.6,1.5,1.1,2.8,1.6,4.1c0.1,0.1,0.1,0.3,0.2,0.4c1.9,3.2,3.7,3.3,6,0.2c0.1-0.2,0.3-0.4,0.4-0.5c1,0.2,2,0.5,3,0.4
	c0.9-0.1,1.7-0.7,2.7-1.2c0.4,0.2,1.1,0.6,1.7,0.8c0,1.9,0.1,3.7,0,5.4c-0.4,7.6-0.6,15.3-1.2,22.9c-0.6,7-1.5,14-2.4,20.9
	c-1.2,8.8-1.4,17.6-0.9,26.4c0.3,4.4,0.1,8.9,1.5,13.2c0.5,1.7,1,3.5,1.8,5.1c1.7,3.4,2.7,7.1,3.6,10.8c1.5,6.1,3.2,12.1,4.5,18.2
	c1.7,7.9,2.6,15.8,3,23.9c0.1,2.6-0.3,5.1-0.5,7.7c-0.9,9-0.7,17.9-0.1,26.9c0.5,6.9,1,13.9,1.2,20.8c0.2,8,2.4,15.5,5.2,22.9
	c2.4,6.3,4.7,12.6,7,18.9c0.2,0.5,0.2,1.1,0.2,1.6c-0.2,4.8-0.4,9.7-0.6,14.5c-0.2,4.5,0.2,9,1,13.5c0.5,2.8,1,5.7,1.5,8.5
	c0.2,1,0.4,2.1,0.3,3c-0.6,3.1-0.9,6.4-2.2,9.2c-1.6,3.2-4.8,4.7-8.5,5c-0.2,0-0.6-0.2-0.7-0.1c-1.9,1.5-3.7,0.2-5.5-0.1
	c-1.5-0.2-2.9-0.5-4.4-0.7C304.9,743.9,302.4,743.1,300.5,741.5z"/>
<path class="st0" d="M326.9,329.1c-0.7-1-1.1-1.5-1.5-2.1c-3.9-7.3-7.2-14.7-7.8-23.1c-0.2-2.3-0.3-4.5-0.2-6.8
	c0.5-9.8,1.1-19.6,1.7-29.4c0.3-5.6,1.7-11,3.8-16.3c4.5-11.4,8.7-22.9,13.2-34.3c2.3-5.7,5-11.3,7.6-16.8c2.2-4.6,5.3-8.6,8.8-12.3
	c2.7-2.8,5.3-5.7,8-8.7c7.4,1.6,14.1,4.8,18.7,11.3c1,1.4,1.7,3.2,2.2,4.8c1.9,6.2,2.6,12.7,3.4,19.1c1,9.4,0.1,18.7-0.3,28.1
	c-0.3,8.8-0.9,17.6-1.1,26.4c-0.1,5,0.6,10,1,14.9c0.1,1.2,0.2,2.3,0.3,3.5c0.4,3.4-0.4,6.5-2.1,9.4c-0.7,1.2-1.4,2.4-2.3,4
	c-1.1-1.7-2-3.2-3.2-5.2c-0.2,1.7,0.3,2.8,0.8,3.9c1,2.2,2,4.4,2.9,6.6c1.5,3.6,1.1,7-1.6,9.8c-2.4,2.6-4.9,5-7.6,7.2
	c-2.8,2.3-5.4,4.7-7.2,7.9c-0.1,0.2-0.4,0.5-0.6,0.7c-6.8-8.5-16.4-11.3-26.4-13.4c-1-0.2-2.1,0-3.2,0c0,0.2-0.1,0.3-0.1,0.5
	c1.4,0.4,2.8,0.8,4.3,1.1c5.6,1.3,10.8,3.4,15.9,6.2c3.9,2.1,7,5,8.8,9.3c-1,1.7-2.3,3.4-3.2,5.2c-2.7,5-5.2,10.1-7.8,15.2
	c-0.9,1.7-1.8,3.3-2.8,4.8c-0.4,0.6-1,1.2-1.7,2c-0.2-0.8-0.2-1.4-0.4-1.9c-0.2-0.5-0.6-0.9-1-1.3c-3.2-2.8-6.3-5.8-10.2-7.8
	c-2.3-1.1-4.7-2.1-7.1-2.9c-3.2-1-4.5-0.9-7.6,0.3c-0.9-1.2-0.9-2.5-0.3-3.9c2.1-4.5,4.1-9.1,6.2-13.6c1.8-3.8,3.7-7.5,5.6-11.3
	c0.8-1.5,1.1-3.1,0.7-4.8c-0.5-2.4,0.4-4.3,2.2-5.8c1.9-1.5,3.6-3.2,4.8-5.4c0.3-0.6,1.1-1,1.8-1.3c6.7-2.6,12.7-1.2,18,3.5
	c0.5,0.4,1,0.9,1.6,1.3c-0.8-2.5-2.5-4.2-4.8-5.2c-4.6-2.1-9.3-2.4-14.1-0.9c-3.5,1.1-3.4,1-5.6-1.8c-4.5-5.6-1.8-11,1.4-14.8
	c0.5-0.6,1.1-1.1,1.7-1.6c1.2-1.1,2.6-1.4,4.1-0.7c6.8,3.1,14,3.5,21.3,3.8c4.2,0.2,8.2,0.7,12.2,2c0.3,0.1,0.6,0.2,0.9,0.1
	c-1.4-1.7-3.3-2.7-5.4-3.2c-1.6-0.4-3.2-0.5-4.9-0.6c-5.5-0.5-11-0.8-16.6-1.3c-1.2-0.1-2.3-0.4-3.4-0.7c-3.4-1-6.8-1.9-10.4,0
	c0.3-0.7,0.7-1.5,1-2.2c1.9-3.7,3.9-7.3,5.7-11c2.8-5.7,4.7-11.7,5.9-18c0.4-2,1.1-3.9,2.2-5.6c1.4-2.2,2.5-4.5,4-6.6
	c2-2.8,4.2-5.4,6.4-8c0.8-1,1.7-1.8,2.6-2.7c-0.1-0.1-0.2-0.2-0.3-0.4c-1.2,1.1-2.4,2.1-3.5,3.2c-1.3,1.3-2.5,2.6-3.7,3.9
	c-1.1,1.3-2.2,2.7-3.1,4.1c-1,1.4-1.8,2.9-2.7,4.6c-0.1-0.4-0.3-0.5-0.3-0.7c1.1-7.9,2-15.8,4.4-23.4c2.1-6.9,5.2-13.4,9.5-19.2
	c0.2-0.3,0.4-0.6,0.3-1.3c-0.5,0.6-1.1,1.1-1.6,1.7c-5.4,6.4-8.8,13.8-10.6,21.9c-1.3,6.1-2.4,12.2-3.2,18.4
	c-1.6,11.9-4.6,23.3-10.7,33.6c-2.7,4.5-4.4,9.5-6.2,14.3c-1.4,3.6-1.2,7,1.2,10.2c1.1,1.4,2.2,2.8,3.4,4.3c-2,3.2-6.5,4.4-7.7,8.6
	c-0.1-0.4-0.2-0.7-0.3-1.1c-0.7-12.8-0.2-25.6,0.1-38.4c0-1.3,0.4-2.6,0.7-3.9c1.8-6.9,3.6-13.7,5.4-20.6c1.3-4.9,2.6-9.8,3.9-14.7
	c0.2-0.9,0.5-1.8,0.5-2.7c-3.9,10.4-6.8,21-9.9,31.7c-0.1-1-0.1-2-0.2-3c-0.1,0-0.2,0-0.4-0.1c-0.1,0.8-0.3,1.6-0.4,2.4
	c-1.3,7.8-1.7,15.7-1.8,23.5c-0.1,6.3,0.2,12.6,0.4,18.9c0.1,3.4,0.5,6.8,0.8,10.2c0.1,1,0.3,2,0.8,2.9c0.6,1,0.6,1.9,0.2,2.8
	C329.7,323.5,328.4,326.1,326.9,329.1z"/>
<path class="st0" d="M370.5,180.3c-3.4-1-6.3-1.7-9.1-2.6c-0.7-0.2-1.4-0.9-2-1.5c-0.4-0.4-0.7-1-1.1-1.5c-1.7-2.2-2.5-2.3-4.9-1
	c-1.5-0.4-2.4-1.4-3.2-2.7c-1.5-2.5-3.1-4.9-4.6-7.3c-2-3.2-4.4-6.1-7.3-8.5c-3.3-2.7-6.7-5.4-10.2-7.9c-3.2-2.3-6-4.9-8.1-8.3
	c-1.4-2.3-2.3-4.7-2.4-7.5c-0.1-1.5-0.2-2.9-0.6-4.5c-0.1,0.4-0.4,0.7-0.4,1.1c-0.1,1.6-0.2,3.3,0,4.9c0.2,1.7,0.6,3.4,1.3,4.9
	c2.1,4.1,5,7.5,8.8,10.1c2.8,1.9,5.4,4,8,6.1c0.4,0.3,0.7,0.6,1,0.9c-0.1,1.6-0.9,2.9-1.9,4c-3.1,3.7-6.9,6.8-10.9,9.5
	c-5.7,3.9-11.3,8-16.2,13.1c-0.3,0.3-0.7,0.6-1.1,0.8c-1.8-0.6-3.2-1.8-4.3-3.2c-4.9-6.5-8.7-13.5-9.7-21.7c-0.2-1.9,0-3.9,0-6.2
	c0.1-0.2,0.6-0.7,1.1-1.2c-0.1-0.1-0.1-0.2-0.2-0.3c-0.9,0.4-1.8,0.8-3.2,1.5c0.3-1.2,0.4-2,0.6-2.8c1.3-5.1,2.9-10.2,4-15.4
	c1-4.5,1.5-9.1,1.3-13.7c-0.2-5.1-1.6-10-3.3-14.8c-0.4-1.1-0.6-2.3-1.2-3.3c-0.7-1.3-0.1-2.2,0.8-3.1c0.6-0.7,1.3-0.8,2.1-0.3
	c1.1,0.8,2.3,1.7,3.2,2.7c2.8,3.2,5.5,6.6,7,10.7c0.5,1.3,1.3,2.4,2.9,2.5c1.5-0.9,2.5-2.4,3.5-3.8c1.6-2.1,3.1-4.3,4.9-6.3
	c2.5-2.7,5.5-2.1,6.8,1.3c2.1,5.4,1.5,10.6-1.7,15.4c-1.1,1.7-2.7,3-4.7,3.7c-0.4,0.1-0.8,0.3-1.6,0.6c1.3,0.6,2.1,0.3,2.9-0.1
	c2-0.9,3.5-2.4,4.6-4.2c3.1-5.1,3.4-10.4,1.2-15.9c-1.3-3.1-4.3-4.2-7.1-2.4c-1.8,1.1-3.3,2.8-4.8,4.4c-0.9,1-1.5,2.2-2.3,3.3
	c-0.6,0.8-1.3,1.5-2.2,2.6c-0.6-1-1-1.7-1.3-2.5c-1.4-3.3-3.5-6.3-5.9-9c-1.7-1.9-3.6-3.7-6.4-4.4c0.7-1.5,1.3-2.8,1.9-4.1
	c-0.1-0.1-0.3-0.2-0.4-0.2c-1.3,1.8-2.7,3.6-4.1,5.6c-0.2-0.4-0.5-0.6-0.6-0.9c-2.3-8.3-4.6-16.7-6.8-25c-0.7-2.6-1.1-5.2-1.8-7.7
	c-0.4-1.3,0.1-1.9,1.2-2.3c4-1.5,8-3.1,12.1-4.3c2.6-0.8,5.4-1.2,8.1-1.1c7.3,0.2,14.2,2.1,20.4,5.9c6.2,3.7,9.3,9.5,10.4,16.4
	c0.9,5.7,1,11.5,1,17.3c0,7.4,0.1,14.8,0.4,22.2c0.3,8.3,3.1,15.9,7.7,22.8c6.6,10.1,13.7,19.7,21.2,29.1c1.9,2.4,3.6,4.9,5.4,7.4
	C369.5,178.2,369.8,179,370.5,180.3z"/>
<path class="st0" d="M263.8,353.2c-7.3,12-13.5,24.6-18.5,37.7c-4.9,13-11.1,25.6-15.1,39c-0.2-0.1-0.4-0.1-0.5-0.2
	c-4.6-3.5-4.6-3.5-3.4-9.2c1.7-8.2,3.4-16.5,5.1-24.7c0.6-2.9,1.2-5.8,1.7-8.7c0.2-0.9,0.5-1.6,1.3-2c0.2-0.1,0.4-0.2,0.6-0.4
	c1.4-1.7,2.8-1.9,4.8-0.7c1.2,0.7,2.9,0.7,4.3,0.6c2.4-0.2,3.3-1.2,3.8-3.7c1.1-5.7,2.2-11.3,3.5-16.9c0.6-2.4,1.6-4.7,2.5-7
	c1.2-2.8,2.5-5.5,3.8-8.4c7.9,4.3,16.6,4.3,25.5,5c-0.7,2.9-1.2,5.6-1.9,8.3c-1.7,7.1-2.8,14.2-3.6,21.4c-2.1,17.5-2,35-2.7,52.6
	c0,0.9-0.1,1.8-0.2,3.1c-3.2-1.4-6.2-2.7-9.5-2.4c-3.2,0.3-6.3,0.6-9.6,1c-1.7-0.9-1.9-2.6-1.8-4.5c0.2-5.3,1.4-10.4,2.5-15.5
	c2.2-9.9,3.5-20,4.4-30.1c0.5-5.4,1-10.7,1.5-16.1c0.1-0.8,0.1-1.5-0.2-2.4c-0.2,0.6-0.4,1.2-0.5,1.9c-1,7.3-2,14.5-2.8,21.8
	c-1,8.3-2.3,16.5-4.3,24.7c-1.4,6.1-2.7,12.2-2.2,18.4c-6.3,2.3-12.1,0.4-20.7-2.8c0.2-1.1,0.3-2.4,0.6-3.5c1.4-4.4,2.8-8.8,4.5-13
	c3.6-9.1,7.2-18.1,10.9-27.1c2.6-6.3,5.4-12.6,8.2-18.9c2.3-5.2,4.9-10.3,7.3-15.4C263.3,354.5,263.5,353.9,263.8,353.2z"/>
<path class="st0" d="M310,442.3c0.9-3.9,1.8-7.8,2.9-12.1c-0.4,0.6-0.8,0.9-0.9,1.2c-0.7,2.2-1.2,4.4-1.9,6.5
	c-0.5,1.5-1.1,3.1-1.8,4.5c-1,1.9-1.4,2-3.7,1.5c-0.3-0.1-0.6,0-1.1,0.1c0.6-4.2,1.2-8.2,1.7-12.3c-0.2,0-0.4-0.1-0.6-0.1
	c-0.6,2.1-1.1,4.1-1.6,6.2c-0.3,1.1-0.4,2.1-0.6,3.2c-0.2,1.6-1.3,2.7-2.5,3.5c-0.5,0.4-1.5,0.5-2.2,0.3c-0.4-0.1-0.7-1.2-0.6-1.7
	c0.2-3,0.5-5.9,0.8-8.9c0.2-2.5,0.4-4.9,0.6-7.4c-0.2,0-0.4-0.1-0.6-0.1c-0.2,0.8-0.4,1.5-0.5,2.3c-0.8,4.7-1.7,9.4-1.6,14.2
	c0,2.1-1.4,3.1-3.2,4.1c-1.9-1.7-2.9-3.8-3-6.2c-0.1-1.9,0-3.9,0.4-5.8c0.8-4.5,1.3-9.1,1.2-13.7c-0.1-9.6,4-17.5,10.2-24.4
	c2-2.2,3.8-4.6,5-7.3c4.1-9.3,8.2-18.7,12.2-28.1c1.5-3.5,2.6-7.2,3.9-10.8c0.5-1.4,1-1.8,2.7-1.5c2.2,0.5,4.4,1,6.5,1.8
	c5.2,2,9.3,5.6,13.4,9.3c0.2,0.1,0.2,0.4,0.4,0.7c-4,5.5-6.2,12-9.4,17.9c-2.3,4.2-4.9,8.3-7.4,12.4c-1.2,1.8-1.8,3.7-2,5.9
	c-0.5,8.2-2.7,16-6.1,23.4c-0.7,1.5-1.2,3-1.6,4.6c-0.7,2.5-1.3,5-2,7.4C315.7,437,313.5,440.1,310,442.3z"/>
<path class="st0" d="M264.1,312.1c3.2-0.4,6-0.7,8.8-1.2c1.3-0.3,2.6-1,3.8-1.7c0.9-0.5,1.4-0.5,2.3,0.1c2.3,1.7,7.4,2.6,10.2,1.9
	c0.4-0.1,0.9-0.2,1.4-0.1c1.9,0.1,3.7,0,5.5-0.6c1.1-0.3,2.4-0.4,3.4-0.1c3,0.7,6,1,9.3,0.3c0.2,1,0.4,2,0.5,3
	c1,8.4,3.4,16.3,7.2,23.8c1,2,1.9,4.1,2.8,6.2c0.9,2,0.3,3.3-1.8,3.7c-7.4,1.8-14.9,3.3-22.5,3.9c-2.6,0.2-5.3,0.2-7.9,0.1
	c-6-0.4-12-0.9-17.9-1.4c-3.8-0.3-7.5-1.4-11.2-2.7C261.6,335.6,262.4,323.7,264.1,312.1z"/>
<path class="st0" d="M283.9,353.6c7.1,0,14.2-0.1,21.4-2c-1.1,11.6-1.6,22.8-1.1,34.1c1.9-9.7,1.4-19.5,2.3-29.3
	c0.3,1.4,0.7,2.8,1,4.2c0.8,4.1,1.7,8.2,3.3,12.2c0.3,0.7,0.2,1.7-0.1,2.4c-1.6,4.3-3.4,8.5-5.1,12.8c-1.2,3.1-3.1,5.7-5.2,8.3
	c-5.7,7.3-9.6,15.4-10.1,24.9c-0.2,4.3-0.9,8.5-1.4,12.8c-0.2,1.8-0.5,3.7-0.7,5.6c-4.2-0.7-8.3-0.3-12.6,0.5c0-0.5,0-0.9,0-1.3
	c0.3-3.9,0.7-7.8,0.9-11.7c0.9-14.3,1.5-28.7,2.6-43c0.5-6.7,1.9-13.3,2.8-19.9c0.2-1.7,0.6-3.3,1.2-5c1.4,14.7,2.9,29.4,4.3,44.1
	c0.2,0,0.4,0,0.6,0c0.3-5.5,0.2-11-0.2-16.5c-0.4-5.5-1.1-11-1.8-16.5C285.4,365,284.7,359.4,283.9,353.6z"/>
<path class="st0" d="M245.6,382.6c-2,0-3.8,0.4-5.6-0.9c1.1-2.9,1.9-5.9,3.2-8.8c3.2-7.3,5.1-14.9,6.2-22.7c0.8-5.6,1.2-11.3,1.6-17
	c1.1-15.2,3.5-30.2,6.6-45.1c1.3-6.5,3.1-13.1,2.6-19.9c-0.3-3.7-0.7-7.3-1-11c-0.2-3.7-0.5-7.3-0.4-11c0.2-7.8-0.3-15.6-1.2-23.3
	c-1.1-8.7-0.8-17.4,0.5-26.1c0.4-2.5,0.7-4.9,1.1-7.4c0.9-5.1,2.9-9.7,5.1-14.3c1.8-3.6,4.8-4.8,8.5-5.4c-5.2,8.4-5.9,17.7-6.3,27
	c-0.4,11-0.4,22-0.5,33c-0.1,6.9-0.1,13.9,0.1,20.8c0.1,3.4,0.8,6.8,1.4,10.2c0.9,4.9,0.8,9.7,0.1,14.7c-2,14.7-3.9,29.4-6,44.1
	c-1.1,7.9-2.4,15.9-4,23.8c-0.8,3.8-2.4,7.4-3.9,11c-1.6,3.9-3.2,7.8-4.1,11.9c-1,4.4-2.1,8.8-3.1,13.2
	C246.4,380.4,246,381.4,245.6,382.6z M256.1,336.1c0.4-0.7,1-1.3,1-2c0.1-0.7-0.2-1.5-0.6-2.2c-0.1-0.3-0.8-0.4-1.2-0.3
	c-0.3,0-0.6,0.6-0.6,0.8C255,333.6,254.9,334.9,256.1,336.1z M263.7,263c0,1.3-0.1,2.2-0.1,3.1c0,0.7,0.4,1.3,1.2,1.1
	c0.4-0.1,1-0.8,1-1.3C265.9,264.7,265.3,263.8,263.7,263z"/>
<path class="st0" d="M320.8,342c-4.4-8.3-8.1-16.6-9.5-25.8c-0.8-5.5-1.2-11-1-16.6c0.3-9.5,0.7-19,1-28.5c0.1-2.4,0.1-4.8,0-7.3
	c-0.5-9.9,1.9-19.2,6.4-28c4.3-8.5,8.6-17,13-25.4c5.8-11.3,12.3-22.2,20.5-32.1c0.8-1,1.4-2.1,2.1-3.1c0.8-1.1,2.1-1.3,2.9-0.3
	c0.8,0.9,1.5,2,1.9,3.2c0.2,0.6-0.1,1.6-0.5,2.1c-1.4,1.9-2.9,3.9-4.6,5.6c-5.9,6.2-10.2,13.4-13.5,21.2c-3.4,8.2-6.6,16.5-9.9,24.7
	c-2.6,6.5-5.1,13.1-7.9,19.5c-2.7,6.2-3.8,12.7-4.2,19.3c-0.4,8-0.8,16.1-1.4,24.1c-0.7,10.1,1.3,19.5,5.9,28.5
	c1.1,2.1,2.2,4.1,3.4,6.1c0.4,0.7,0.6,1.3,0.2,2.2C324,335,322.5,338.4,320.8,342z"/>
<path class="st0" d="M308.9,308.9c-2.5,0-4.8,0-7.2,0c-0.1-0.9-0.2-1.7-0.2-2.4c-0.3-9.1-0.7-18.2-0.9-27.4
	c-0.2-10.6,0.3-21,2.9-31.4c1.9-7.5,3.9-14.9,5.5-22.5c2-9.5,3.2-19.1,3.2-28.8c0-0.4,0.1-0.8,0.1-1.5c0.5,0.6,0.9,0.9,1.2,1.3
	c0.8,1.1,1.6,2.3,2.5,3.4c2.4,2.8,5.3,3.5,8.6,1.9c1.7-0.8,3.4-2,4.9-3.2c2.6-2.1,5.1-4.4,7.6-6.6c3.5-3.3,6.3-7.1,8.7-11.3
	c1.5-2.5,3.1-5,4.7-7.6c0.8,0.6,1.3,1.1,2.1,1.7c-0.9,1.2-1.7,2.3-2.6,3.3c-7.2,8.1-12.9,17.2-17.9,26.8
	c-4.5,8.6-8.8,17.2-13.2,25.8c-1.4,2.7-2.6,5.5-3.9,8.3c-3.2,7.1-4.8,14.5-4.6,22.3c0.3,11.1-0.4,22.1-1.2,33.2
	c-0.3,3.7-0.2,7.3-0.3,11C308.9,306.3,308.9,307.4,308.9,308.9z"/>
<path class="st0" d="M278.2,307.4c-4.7,1.1-8.9,2.9-13.8,3.2c0.1-1,0.1-2,0.2-2.9c1.6-11.5,3.2-23,4.9-34.5c0.6-4.4,0.3-8.7-0.4-13
	c-0.5-3.2-0.9-6.5-1.1-9.8c-0.1-1.2,0.1-2.6,0.6-3.6c1.2-2.4,2.6-4.8,4.2-7c4.3-5.5,8.7-10.8,13.1-16.2c0.5-0.7,1.2-1,2-1.4
	c2.3-1,4.5-2.4,6.7-3.7c0.5-0.3,0.8-0.7,1.6-0.9c-0.3,1.4-0.6,2.9-1,4.3c-1.7,6.2-3.3,12.5-5.8,18.5c-2.3,5.3-3.2,10.9-3.7,16.6
	c-0.6,6.9-1.6,13.6-3.5,20.3c-0.8,2.7-1.8,5.3-2.9,7.9c-1.2,2.9-2.2,5.8-2.6,9c-0.6,3.9,0.6,7.6,1.2,11.3
	C277.9,306.1,278,306.6,278.2,307.4z"/>
<path class="st0" d="M345.9,384.4C345.9,384.4,345.9,384.3,345.9,384.4c3.7-2.5,7.7-4.2,12-5c1.3-0.2,2.5-0.7,3.8-0.9
	c2.4-0.4,2.4-0.3,3.3,2.1c1,2.8,1.9,5.6,2.9,8.4c1.9,5.5,4.5,10.8,7.5,15.8c3.7,6.3,6.5,12.9,9.1,19.7c0.1,0.3,0.2,0.6,0.3,1.2
	c-0.8,0.1-1.6,0.2-2.3,0.2c-6.9,0-13.7,0.6-20.1,3.5c-0.1,0.1-0.3,0-0.7,0.1c-0.6-1.2-1.3-2.5-1.8-3.9c-2.1-5.8-4.1-11.6-6.1-17.4
	C351.3,400.2,348.6,392.4,345.9,384.4z"/>
<path class="st0" d="M377.3,353.6c-1.4-4.9-3-9.7-5.6-14.1c1.9,12.4,6.8,24.1,9.3,36.5c-1.6,0-3.2,0-4.7,0
	c-4.9,0.1-9.8,0.1-14.7,0.4c-1.5,0.1-3,0.7-4.5,1.1c-0.9,0.2-1.8,0.4-2.8,0.7c-1.1-2.5-2.2-4.8-3.2-7.2c-0.8-1.9-1.6-3.9-2.3-5.9
	c-0.3-0.7-0.6-1.4,0-2.2c3.8-4,5.6-9.1,8.2-13.8c2.4-4.3,4.7-8.6,7-13c0.4-0.7,0.6-1.4,0.8-2.1c0.9-2.9,2.5-5.3,4.9-7
	c1.1,2.9,2.1,5.6,3.3,8.1c1.1,2.3,2.4,4.5,4,6.6C380,345.7,379.5,349.6,377.3,353.6z"/>
<path class="st0" d="M337.4,156.3c5.4,4.1,8.2,10.1,11.8,15.9c-3.2,4.6-6.4,9.4-9.7,14c-1.1,1.5-2.5,2.8-3.9,4
	c-2.4,2.2-4.9,4.4-7.4,6.5c-1.4,1.1-2.9,2.2-4.4,3c-2.4,1.2-4.5,0.8-6.3-1.3c-0.9-1.1-1.7-2.2-2.5-3.4c-2.4-3.7-4.5-7.7-8.4-10.5
	c0.8-0.9,1.4-1.7,2-2.5c3.6-3.8,7.6-6.9,11.9-9.8c3.2-2.1,6.3-4.3,9.3-6.6c1.7-1.3,3.3-2.9,4.7-4.6
	C335.7,159.7,336.4,158,337.4,156.3z"/>
<path class="st0" d="M281.2,199.6c-1.2-2.4-1.5-5-1.7-7.6c-0.5-5.8-0.8-11.7-1-17.5c-0.1-2.9,0.9-5.6,2.7-8c2.8-3.7,5.6-7.5,7.2-12
	c0.3-1,0.4-0.9,2.2-1.7c-0.1,1.6-0.3,3.1-0.2,4.6c0.3,4.4,1.3,8.6,3.3,12.6c1.2,2.4,2.4,4.7,3.8,7c1.8,2.7,3.4,5.6,6.9,6.6
	C303,187.5,285.6,199.5,281.2,199.6z"/>
<path class="st0" d="M396.4,418.1c-3,2.6-7.2,2.3-10,5.3c-0.4-1-0.8-1.7-1-2.4c-2.7-6.5-5.6-12.9-9.2-18.9
	c-3.5-5.9-6.3-12.2-8.7-18.6c-0.6-1.7-1.5-3.4-2.3-5.2c0.5-0.1,0.8-0.2,1-0.2c4.4,0,8.9,0.1,13.3,0.1c1.4,0,2.2,0.5,2.8,1.9
	c3.7,8,6.7,16.2,8.9,24.8c1,3.8,2.8,7.4,4.3,11.1C395.7,416.6,396,417.2,396.4,418.1z"/>
<path class="st0" d="M329,751.4c2.2,1.4,4,2.6,5.9,3.8c-0.8,1.4-1.7,2.8-2.4,4.3c-1.7,3.6-1.1,6.8,1.7,9.6
	c4.4,4.5,11.5,5.9,17.3,3.5c5.3-2.2,8.1-7.5,6.9-13.1c-0.6-2.7-1.8-5-3.9-7.2c2.2-0.8,3.4-2.5,4.8-4c4.3-4.9,5.3-10.6,4.3-16.9
	c-0.4-2.2-0.9-4.4-1.6-6.6c-2.4-7.9-3.7-15.9-3.7-24.2c0-2.5-0.3-4.9-0.5-7.4c0.1,0,0.3-0.1,0.4-0.1c0.4,0.9,0.8,1.8,1.1,2.7
	c2,6,2.8,12.1,3.2,18.4c0.3,4.7,0.2,9.5,1.4,14.2c0.3,1.3,0.6,2.6,1.1,3.8c2.2,6.2,2.6,12.6,2.3,19.2c-0.2,3.2-1,6.3-2.6,9.2
	c-1.4,2.5-2.7,5.1-4.1,7.6c-0.9,1.6-1.7,3.2-2.8,4.6c-3.2,4.1-6,8.4-8.5,12.8c-0.7,1.3-2.1,2.2-3.3,3.3c-0.8,0.7-1.8,0.6-2.5-0.2
	c-1.1-1.1-2.2-2.2-3-3.5c-4-6.3-7.2-12.9-10.2-19.7c-1.4-3.1-1.8-6.5-1.8-9.8C328.2,754.3,328.7,752.9,329,751.4z"/>
<path class="st0" d="M318.5,432.2c1.5-3.6,1.7-7,3.2-10.2c3.7-7.4,5.9-15.2,6.4-23.5c0.1-2.2,0.7-4.2,2-6.1c1.8-2.5,3.4-5.2,5.4-8.3
	c0.6,5.2,1,9.8,1.8,14.4c0.8,4.8,1.7,9.5,2.8,14.2c1.1,4.6,2.4,9.2,3.7,14.1C335.5,427.4,327.3,429.8,318.5,432.2z"/>
<path class="st0" d="M360.4,431.7c-6.4-1.6-12.3,0.5-18.5,0.8c-0.4-1.1-0.8-2-1.2-3.1c2.2-0.6,4.1-0.3,6.3,0.6c0-0.8,0.3-1.5,0-1.9
	c-2.1-3.6-2.8-7.7-4-11.7c-3-10.4-4.8-21.1-6.5-31.8c-0.2-1.2-0.1-2.3,0.5-3.4c0.7-1.2,1.3-2.5,2-3.7c0.1-0.2,0.3-0.3,0.7-0.8
	c0.6,1.1,1.1,2.1,1.6,3.1c0.8,1.7,1.5,3.4,3.2,4.5c0.4,0.3,0.6,1,0.8,1.6c2.5,8.3,4.9,16.6,7.5,24.9c2.1,6.7,4.1,13.4,7.2,19.8
	C360.2,430.7,360.2,431,360.4,431.7z"/>
<path class="st0" d="M283.4,201.5c-0.7,0.8-1,1.3-1.4,1.7c-2.4,2.7-3.7,5.9-4.6,9.3c-0.4,1.3-0.1,2.5,0.9,3.4c1,0.9,2,1.9,3.3,3
	c-5.4,4.6-10.6,9.2-13.9,15.6c-0.1-0.5-0.3-1-0.3-1.5c0.3-13.5,0.4-27,0.9-40.5c0.2-5.8,1.2-11.5,3.2-16.9c1.1-2.9,2.5-5.5,5.4-7
	c0.1,0.1,0.4,0.2,0.3,0.3c-1.5,5.7-0.8,11.5-0.4,17.2c0.3,3.9,1.3,7.7,2,11.5C279.3,200,280.2,201.9,283.4,201.5z"/>
<path class="st0" d="M309.8,190.6c1.2,1.1,1.6,2.3,1.5,3.5c-0.1,2.7-0.2,5.5-0.5,8.2c-1.2,13.1-3.4,26-6.9,38.6
	c-3.9,13.8-4.8,27.9-4.3,42.2c0.3,7.6,0.3,15.1,0.5,22.7c0,0.7,0,1.4,0,2.3c-1.9,0-3.7,0-5.6,0c0-2.2,0-4.3,0-6.5
	c0.2-12.9,0.3-25.7,0.7-38.6c0.4-10.6,2.6-21,5.4-31.3c2.4-8.8,4.7-17.6,6.9-26.5c1.1-4.4,1.7-8.9,1.9-13.4
	C309.5,191.5,309.7,191.1,309.8,190.6z"/>
<path class="st0" d="M305.7,185.6c2.2,1.5,3.3,3.3,2.8,5.7c-0.7,4-1.1,8-2,12c-2.5,10.3-5.3,20.5-8,30.8
	c-2.7,10.1-4.2,20.5-4.5,30.9c-0.1,3.4-0.2,6.9-0.3,10.3c0,0.4-0.1,0.9-0.2,1.8c-2.1-3.7-4.8-5.2-8.7-3.2c0.5-2.8,0.9-5.2,1.3-7.6
	c0.6-4.2,1.1-8.5,1.6-12.8c0.7-6.2,3.2-11.9,5.1-17.7c2-5.9,3.3-11.8,4-18c0.1-0.8,0.6-1.6,0.9-2.3c0.8-1.9,1.8-3.8,2.4-5.8
	c1.7-6.5,3.2-13,4.7-19.5c0.2-0.8,0.2-1.5,0.4-2.3C305.2,187,305.5,186.4,305.7,185.6z"/>
<path class="st0" d="M314.9,603c0.3,1.9,0.5,3.8,0.9,5.6c1.6,7.2,3.3,14.3,4.9,21.4c1.9,8.4,3.7,16.9,5.7,25.3
	c1.2,4.9,2.5,9.8,2.9,14.9c0.3,3.1,0,6.1-0.7,9c-0.5,1.9-1,3.9-1.6,6.1c-0.3-0.5-0.5-0.7-0.6-1c-2.3-6.2-4.6-12.4-6.9-18.6
	c-2.1-5.8-3.1-11.9-3.5-18.1c-0.5-9.4-1.2-18.8-1.9-28.3c-0.4-5.5-0.2-10.9,0.1-16.3C314.5,603.1,314.7,603,314.9,603z"/>
<path class="st0" d="M394.8,409.9c-0.7-2.1-1.4-4.3-2-6.4c-2-8.3-5-16-9.6-23.2c-0.6-0.9-0.9-1.8-0.3-3c0.4-0.7,0.1-1.8-0.1-2.7
	c-0.4-1.9-0.9-3.8-1.4-6c0.7,0.4,1,0.6,1.3,0.8c2.2,1.4,4.3,3.1,6.7,4.3c4,2.1,7.5,4.7,10.3,8.2c2.1,2.7,4.6,4.9,8.2,5.8
	c-0.2,0.8-0.3,1.4-0.5,1.9c-1.8,4.5-3.6,9-4.3,13.8c-0.1,0.9-0.6,1.4-1.4,1.7c-0.4,0.2-0.9,0.3-1.3,0.5c-2.4,0.7-4.5,1.8-5.1,4.6
	C395.2,410,395,409.9,394.8,409.9z"/>
<path class="st0" d="M320,747.2c3.2-1.2,6.2-2.6,8.5-5.6c0.1,0.6,0.3,0.9,0.3,1.2c0,1.9,0,3.9-0.1,5.8c0,0.5-0.1,0.9-0.3,1.3
	c-2,3.8-1.6,7.8-0.8,11.9c0.3,1.4,0.7,2.7,1,4.1c-3.7,5.1-8.7,8.7-13.9,12c-0.8,0.5-1.7,0.8-2.5,1.2c-3.1,1.2-4.8,0.5-6.2-2.5
	c-0.9-2-1.6-4.1-2.4-6.1c-0.4-1.1-0.8-2.1-1.3-3.4c0.5,0.1,0.7,0.1,0.9,0.2c3.4,2.1,6.8,1.5,9.8-0.7c5.8-4.2,7.6-10.2,7.1-17.1
	c0-0.6-0.2-1.2-0.2-1.8C319.8,747.6,319.8,747.5,320,747.2z"/>
<path class="st0" d="M336.3,755c3.7,0.4,6.8-0.8,9.9-1.6c2.2-0.6,4.1,0.3,6.2,0.3c0.5,0,1.1,0.8,1.6,1.3c4.5,5.5,3.4,14.4-5.4,16.5
	c-5,1.2-9.2-0.4-12.9-3.7c-2.1-1.9-2.9-4.3-1.8-7C334.6,758.9,335.4,757,336.3,755z M344.9,766.3c2.7,0,5.3-2.6,5.3-5.2
	c0-2.4-2.8-4.8-5.4-4.9c-2.1,0-4.9,3.3-4.9,5.7C339.9,764.6,341.9,766.3,344.9,766.3z"/>
<path class="st0" d="M283.2,280.1c4.2,4.1,5.8,4.2,10.2,0.9c-0.1,2.1-0.7,3.9-1.9,5.5c-4.4,5.6-5.5,12.1-5.4,18.9
	c0,0.7,0.1,1.4,0.3,2.1c0.1,0.6,0.3,1.2,0.4,1.8c-0.3,0.1-0.5,0.2-0.7,0.2c-6.1-0.4-5.7,0.7-7.4-6.2c-1.6-6.4-0.9-12.5,2.3-18.3
	C281.8,283.5,282.4,281.9,283.2,280.1z"/>
<path class="st0" d="M309.7,746.8c2.6,0.5,5.2,1,7.8,1.5c1.8,5.3-0.8,13.7-6.3,17c-3.7,2.2-7.3,1.4-9.4-2.3
	c-2.9-4.9-3.6-10.1-0.9-15.4c0.5-0.9,1.1-1.6,1.7-2.5c1.4,0.4,2.7,0.8,4,1.3c-1,1.1-1.9,2.2-2.8,3.3c-1.4,1.7-1.6,4.2-0.6,6.2
	c1.2,2.3,3.5,2.9,5.7,1.6c2.7-1.6,4.7-6.8,1.2-9.9c-0.2-0.2-0.5-0.4-0.8-0.5C309.5,746.9,309.6,746.8,309.7,746.8z"/>
<path class="st0" d="M312,371.9c-1.7-6.9-3.4-13.5-5.1-20.3c0.4-0.2,0.8-0.5,1.2-0.6c3.3-0.8,6.7-1.5,10-2.2
	c2.3-0.5,3.6,0.9,2.7,3.2c-1.7,4.3-3.6,8.6-5.4,12.9c-0.8,1.9-1.6,3.7-2.4,5.6C312.7,370.9,312.4,371.3,312,371.9z"/>
<path class="st0" d="M224.5,321.1c3.6,0.2,7.1,1.3,10.8,0.3c0.6,4.8,1.1,9.5,0.1,14.5c-2.6-0.3-5.2-0.7-7.8-1
	c-1-0.1-1.4-0.9-1.5-1.8C225.6,329.2,225.1,325.2,224.5,321.1z"/>
<path class="st0" d="M345.3,364.2c1.1,0.2,1.7,0.3,2.1,0.4c1.5,4.7,3,9.3,4.4,13.9c-1.6,1-3.5,2.2-5.3,3.3c-1.2,0.8-1.7,0.7-2.6-0.5
	c-1.2-1.6-2.3-3.3-3.4-5c-0.2-0.3-0.3-0.9-0.2-1.3C342,371.4,343.6,367.8,345.3,364.2z"/>
<path class="st0" d="M282.3,219.8c1.3,0.8,2.4,1.6,3.7,2.4c-6.4,7-12.5,14.2-18.1,22c-0.6-1.6-0.6-3.2,0-4.7c1.8-5,4.3-9.5,8.1-13.3
	C278.1,224.1,280.1,222,282.3,219.8z"/>
<path class="st0" d="M302.2,189.2c-1.2,4.2-3.3,7.7-6.4,10.5c-2.1,1.9-4.4,3.7-6.8,5.2c-3.8,2.4-6.6,5.4-6.9,10.2
	c0,0.3-0.2,0.6-0.3,0.9c-2.7-1.6-2.8-1.9-1.9-4.6c1.2-3.7,3.3-6.9,6.3-9.3c1.6-1.3,3.2-2.5,4.8-3.7c2.9-2.3,5.8-4.7,8.7-7.1
	C300.5,190.5,301.4,189.9,302.2,189.2z"/>
<path class="st0" d="M301.9,195.1c-1.3,5.4-2.4,10.7-3.9,16c-1.3,4.5-4.2,7.8-9,9c-2.2,0.6-4.6-0.8-5.1-3.1c1.1-0.1,2.3,0.1,3.4-0.3
	c3.5-1.1,6-3.3,7.2-6.8c0.6-2,0.8-4.1,1.2-6.2c0.1-0.7,0.3-1.5,0.8-2.1C298.1,199.5,299.9,197.4,301.9,195.1z"/>
<path class="st0" d="M293.1,285.9c0.8,3.6,0.4,21.5-0.3,23.7c-1.4-0.1-2.8-0.3-4.3-0.5c-1.2-2-1-4.1-1-6.2
	c0.2-5.3,1.4-10.3,4.3-14.9C292.4,287.4,292.7,286.6,293.1,285.9z"/>
<path class="st0" d="M228,337.2c0.6,0,0.9,0,1.2,0c2,0.2,4,0.4,6.2,0.7c-1.2,7.5-3.8,14.5-5.1,21.8c-0.2,0-0.3,0-0.5,0
	C229.1,352.3,228.6,344.9,228,337.2z"/>
<path class="st0" d="M293.4,204.4c-0.2,6.7-5,12.1-9.5,10.7C283.6,210.6,287.2,207.4,293.4,204.4z"/>
<path class="st0" d="M288.6,274c1.9-0.1,3.5,3.1,3.5,4.6c-0.1,1.7-1.2,3-2.6,3c-2.5-0.1-4.8-2.1-4.7-4.2
	C284.8,275.7,286.8,274,288.6,274z"/>
<path class="st0" d="M304.1,752.3c0-0.3,0.1-0.8,0.1-1.3c0.2-1,0.6-1.5,1.8-1.6c2.9-0.2,4.2,1.3,3.2,4c-0.6,1.7-1.8,2.7-2.9,2.6
	C305,755.9,304.1,754.4,304.1,752.3z"/>
<path class="st0" d="M336,89.9c-0.2-3-0.4-6.1-0.7-9.2C338.8,83.8,339,85.7,336,89.9z"/>
<path class="st0" d="M298.8,741.1c1.1,1.3,1.9,2.2,2.8,3.2c-0.9,1.1-1.7,2.1-2.8,3.5C298.8,745.5,298.8,743.6,298.8,741.1z"/>
<path d="M256.1,336.1c-1.3-1.2-1.1-2.5-1.3-3.6c0-0.2,0.3-0.8,0.6-0.8c0.4-0.1,1,0.1,1.2,0.3c0.3,0.7,0.6,1.5,0.6,2.2
	C257.1,334.8,256.6,335.4,256.1,336.1z"/>
<path d="M263.7,263c1.6,0.8,2.2,1.7,2.1,2.8c0,0.5-0.6,1.1-1,1.3c-0.7,0.2-1.1-0.4-1.2-1.1C263.6,265.2,263.7,264.3,263.7,263z"/>
<path d="M344.9,766.3c-3,0-5-1.7-5-4.3c0-2.5,2.7-5.7,4.9-5.7c2.6,0,5.4,2.5,5.4,4.9C350.2,763.8,347.6,766.3,344.9,766.3z
	 M343.7,758.8c-1.7-0.1-2.2,0.5-2.3,2.3c-0.1,1.6,1.2,3,2.8,3.1c1.7,0.1,3.3-1.3,3.4-2.9C347.6,759.8,346.1,758.9,343.7,758.8z"/>
<path class="st0" d="M343.7,758.8c2.4,0.1,3.9,1.1,3.8,2.5c0,1.5-1.7,3-3.4,2.9c-1.6-0.1-2.9-1.5-2.8-3.1
	C341.5,759.3,342,758.7,343.7,758.8z"/>
</svg>
