<?xml version="1.0" encoding="utf-8"?>
<!-- Generator: Adobe Illustrator 19.0.0, SVG Export Plug-In . SVG Version: 6.00 Build 0)  -->
<svg version="1.1" id="图层_1" xmlns="http://www.w3.org/2000/svg" xmlns:xlink="http://www.w3.org/1999/xlink" x="0px" y="0px"
	 viewBox="0 0 595.3 841.9" style="enable-background:new 0 0 595.3 841.9;" xml:space="preserve">
<style type="text/css">
	.st0{fill:#FFFFFF;}
</style>
<path class="st0" d="M595.3,841.8c-198,0-396,0-593.9,0c0-280,0-560.1,0-840.1c198,0,396,0,593.9,0
	C595.3,281.7,595.3,561.8,595.3,841.8z M330.3,776.1c0.6,1.2,0.9,1.7,1.2,2.3c2.7,5.1,5.4,10.3,8.3,15.4c0.9,1.6,2.3,3.1,3.6,4.4
	c1.5,1.5,2.7,1.5,4.5,0.4c1.9-1.2,3.2-2.8,4.3-4.7c1.5-2.6,2.9-5.4,4.8-7.7c4.3-5.4,7.6-11.4,10.8-17.5c1.1-2.2,2-4.7,2.4-7.2
	c1.1-7.2,0.5-14.3-1.7-21.3c-1.4-4.3-2.2-8.6-2.3-13.1c-0.1-4.6-0.5-9.2-0.9-13.9c-0.6-6.1-2.3-11.9-5.6-17.1
	c-0.6-0.9-1-2.1-1.8-2.8c-0.7-0.6-0.9-1.2-1-2c-0.6-3.3-1.1-6.6-1.8-9.9c-2.7-12.9-3.2-26-1.9-39.1c1.2-11.8,2.6-23.6,3.8-35.5
	c0.6-6,0.7-12-0.1-17.9c-1.1-7.9-2.4-15.8-3.7-23.6c-1.6-9.4-3.7-18.6-8.6-27c-0.3-0.6-0.5-1.4-0.4-2.1c0.1-3.3,0.1-6.7,0.6-10
	c0.6-4.2,1.7-8.3,2.5-12.4c1.1-6.2,1.9-12.5,3.2-18.6c1.6-7.6,3.6-15.2,5.4-22.8c3.2-13.4,7.2-26.5,11.1-39.6c0.4-1.3,1-2,2.2-2.5
	c2.6-1.1,5.4-1.4,8.2-1.7c3.9-0.4,7.9-0.9,11.9-1.4c0.1-0.9,0.2-1.6,0.2-2.3c0.8-0.5,1.6-1.1,2.4-1.4c0.8-0.4,1.7-0.5,2.5-0.8
	c1.4-0.5,2.8-0.8,4-1.5c2.7-1.4,3-2.7,1.6-5.4c-0.7-1.5-1.4-3-2.1-4.3c2.2-2.2,4.2-4,7.1-4.7c1.6-0.4,2.5-1.6,2.8-3.3
	c0.3-2,0.7-3.9,1.3-5.8c1-3,2.1-6,3.2-9c0.8-2.2,0.6-2.8-1.5-3.8c-2.9-1.4-5.3-3.5-7.3-6c-2.8-3.5-6.2-6.1-10.3-8
	c-1.2-0.5-2.4-1-3.4-1.7c-3.8-2.3-7.8-4.5-8.5-9.6c-0.1-0.5-0.3-1.1-0.5-1.6c-0.5-1-0.4-1.8,0.3-2.9c1.6-2.3,2.3-4.9,2.6-7.6
	c0.4-3.3-0.8-6.1-2.7-8.7c-2.9-3.8-5.2-8-6.9-12.5c-0.8-2.2-0.8-2.3,1-3.9c2.5-2.2,5.2-4.3,7.5-6.7c3.8-3.8,4.4-8.1,2.2-12.9
	c-0.5-1-1-2-1.4-2.9c0.1-0.3,0.1-0.4,0.1-0.4c0.3-0.4,0.5-0.8,0.8-1.2c3.5-4.7,5.3-9.9,4.3-15.9c-1-6.6-1.6-13.3-1.3-20
	c0.4-11.2,0.8-22.3,1.5-33.5c0.8-13.6-0.7-26.9-3.7-40.1c-0.4-1.6-1.3-3.3-2.4-4.6c-2.3-3.2-5.2-5.8-8.5-8c0.1-1.9-0.8-3.6-1.9-5.1
	c-2.1-2.9-4.3-5.8-6.4-8.6c-3.5-4.6-7.1-9.3-10.6-13.9c-1-1.2-1.6-2.6-1.8-4.1c-0.3-3.3-0.8-6.6-1-10c-0.3-5.8-0.4-11.6-0.5-17.5
	c0-0.8,0.4-1.6,0.7-2.4c0.5-1.3,1.5-2.6,1.6-3.9c0.6-4.3-0.1-8.4-2.6-12.1c-0.9-1.4-2-2.7-2.9-4.1c-1.9-2.7-3.9-5.3-5.5-8.1
	c-1.3-2.3-2.4-4.7-2-7.5c0.1-0.7-0.2-1.6-0.6-2.2c-0.9-1.4-1.8-2.9-3.1-4c-1.5-1.3-2.1-2.9-2.5-4.7c-1.6-6.8-5.5-12-11.6-15.3
	c-3.5-1.9-7.2-3.4-11.1-4.4c-8.6-2.2-17.1-1.9-25.3,1.9c-3.7,1.7-7.3,3.6-10.9,5.3c-10,4.8-18.3,11.6-25,20.4
	c-1,1.3-1.9,2.8-2.6,4.3c-0.9,2-1.4,4.1-0.9,6.3c1,4.2,1.9,8.4,4.2,12.2c1.6,2.7,1.5,2.8,4.8,3.1c0.5,1.1,1.2,2.3,1.6,3.6
	c1.1,3.4,1.6,6.8,1.6,10.4c0,1.6,0,3.2,0.1,4.8c0.3,5.7,2.5,10.6,6.4,14.9c1,1.1,1.7,2.5,2.3,3.9c0.7,1.7,1,3.5,1.6,5.3
	c0.6,2,1.9,3.5,3.8,4.4c2.8,1.2,5.7,1.9,8.9,1.3c1.1-0.2,2.3-0.4,3.8-0.7c-0.6,1.1-1,1.9-1.5,2.6c-1.4,1.9-2.7,3.8-4.2,5.5
	c-1,1.2-2.3,2.3-3.7,2.9c-4.5,1.8-9.1,3.3-13.8,4.8c-4.5,1.4-8.9,3-13.1,5.2c-2.4,1.3-4.8,2.5-7.4,3.4c-1.8,0.7-3.3,1.6-4.3,3.2
	c-2.4,3.8-5,7.6-7,11.7c-6.4,12.6-10,25.8-9,40.1c0.3,3.7,0.5,7.3,0.7,11c0,0.8-0.2,1.7-0.5,2.5c-0.7,1.9-1.7,3.6-2.3,5.5
	c-0.4,1.3-0.9,2.9-0.6,4.2c0.7,3-0.1,5.6-1.3,8.3c-0.3,0.7-0.6,1.5-0.8,2.3c-1.2,4.2-1.4,8.4,0.7,12.3c0.7,1.3,0.8,2.3,0.3,3.6
	c-1.4,3.8-2.3,7.7-2,11.7c0.2,2.6,0.1,5-0.5,7.5c-0.3,1.1-0.3,2.4-0.4,3.6c-0.1,1.7,0.2,3.4,1.3,4.8c1.6,2,2,4.3,1.9,6.7
	c0,1.3-0.1,2.7,0.4,3.8c0.5,1.1,1.6,1.9,2.4,2.8c0.2,3.8,0.5,7.7,0.7,11.6c0.1,1.5,0.2,3,1.7,3.7c1.1,0.6,1.3,1.5,1.2,2.6
	c0,2.5,0,4.9,0.1,7.4c0.2,3.7,0.4,7.5,0.8,11.2c0.2,2.2,0.5,4.5,1,6.6c0.8,2.9,1.1,5.8,1.1,8.8c0,1.8-0.2,3.7-0.1,5.5
	c0.1,3.1-0.5,6.4,2.3,8.8c-0.6,2.1-1.3,4.2-1.8,6.3c-1.3,5.7-2.6,11.5-3.9,17.3c-1.1,5.1-2,10.2-3.1,15.2c-0.4,1.9,0.2,3.5,1.6,4.7
	c1.5,1.3,3,2.6,4.7,4.1c-0.2,1.1,0.2,2.3,1.7,2.8c3.9,1.3,7.7,2.6,11.6,3.6c1.7,0.5,3.6,0.4,5.5,0.7c0,1.5-0.1,2.8,0,4.2
	c0.5,8,2,15.8,3.3,23.7c1.6,10.2,3.8,20.2,7.1,30c1.9,5.8,3.4,11.8,4.3,17.9c0.8,4.8,1.6,9.6,2.6,14.4c1.9,8.3,3.1,16.6,3.4,25.1
	c0.2,4.6,0.4,9.3,1,13.8c1.3,9.4,2.8,18.8,4.4,28.1c2,12.3,5.1,24.4,8.1,36.4c2.3,9.3,4.6,18.6,8.4,27.4c2.4,5.7,4,11.6,4.9,17.7
	c0.9,6.5,1.9,12.9,2.8,19.4c0.5,3.5,1.1,6.9,1.3,10.4c0.6,8.7,0.3,17.4-0.2,26.1c-0.5,7.3-1.2,14.6-1.9,21.9
	c-0.4,5.2,0,10.2,1.8,15.1c1.8,4.8,3.8,9.5,5.8,14.2c1.8,4.2,4.7,5.3,9,3.6c0.5-0.2,1-0.4,1.5-0.7c5.5-2.7,10.4-6.3,14.5-10.8
	C329.6,777.4,329.8,776.9,330.3,776.1z"/>
<path d="M330.3,776.1c-0.5,0.8-0.7,1.3-1,1.7c-4.1,4.5-9,8.1-14.5,10.8c-0.5,0.2-1,0.5-1.5,0.7c-4.2,1.6-7.2,0.5-9-3.6
	c-2-4.7-4-9.4-5.8-14.2c-1.8-4.9-2.3-9.9-1.8-15.1c0.6-7.3,1.4-14.6,1.9-21.9c0.6-8.7,0.9-17.4,0.2-26.1c-0.3-3.5-0.8-7-1.3-10.4
	c-0.9-6.5-1.9-12.9-2.8-19.4c-0.9-6.1-2.5-12-4.9-17.7c-3.7-8.9-6-18.1-8.4-27.4c-3-12.1-6.1-24.1-8.1-36.4
	c-1.6-9.4-3.1-18.7-4.4-28.1c-0.6-4.6-0.8-9.2-1-13.8c-0.3-8.5-1.6-16.8-3.4-25.1c-1.1-4.7-1.9-9.6-2.6-14.4
	c-1-6.1-2.4-12.1-4.3-17.9c-3.3-9.8-5.5-19.8-7.1-30c-1.2-7.9-2.8-15.7-3.3-23.7c-0.1-1.3,0-2.7,0-4.2c-1.9-0.2-3.8-0.2-5.5-0.7
	c-3.9-1.1-7.8-2.4-11.6-3.6c-1.4-0.5-1.9-1.6-1.7-2.8c-1.7-1.5-3.2-2.8-4.7-4.1c-1.4-1.3-2-2.8-1.6-4.7c1.1-5.1,2-10.2,3.1-15.2
	c1.2-5.8,2.5-11.5,3.9-17.3c0.5-2.1,1.2-4.1,1.8-6.3c-2.8-2.4-2.1-5.7-2.3-8.8c-0.1-1.8,0.1-3.7,0.1-5.5c0-3-0.3-5.9-1.1-8.8
	c-0.6-2.1-0.8-4.4-1-6.6c-0.4-3.7-0.6-7.5-0.8-11.2c-0.1-2.5-0.1-4.9-0.1-7.4c0-1.1-0.1-2-1.2-2.6c-1.4-0.8-1.6-2.3-1.7-3.7
	c-0.2-3.9-0.5-7.8-0.7-11.6c-0.8-0.9-2-1.7-2.4-2.8c-0.5-1.1-0.5-2.5-0.4-3.8c0.1-2.5-0.3-4.7-1.9-6.7c-1.1-1.3-1.4-3.1-1.3-4.8
	c0.1-1.2,0.1-2.4,0.4-3.6c0.6-2.5,0.8-4.9,0.5-7.5c-0.4-4,0.6-7.9,2-11.7c0.5-1.3,0.4-2.3-0.3-3.6c-2.1-4-1.8-8.1-0.7-12.3
	c0.2-0.8,0.4-1.5,0.8-2.3c1.2-2.6,2-5.2,1.3-8.3c-0.3-1.3,0.2-2.9,0.6-4.2c0.6-1.9,1.6-3.7,2.3-5.5c0.3-0.8,0.5-1.6,0.5-2.5
	c-0.2-3.7-0.4-7.3-0.7-11c-1-14.3,2.6-27.5,9-40.1c2.1-4,4.6-7.8,7-11.7c1-1.6,2.5-2.5,4.3-3.2c2.5-0.9,5-2.1,7.4-3.4
	c4.2-2.2,8.6-3.8,13.1-5.2c4.6-1.5,9.2-3,13.8-4.8c1.4-0.5,2.7-1.7,3.7-2.9c1.5-1.7,2.8-3.6,4.2-5.5c0.5-0.7,0.9-1.5,1.5-2.6
	c-1.6,0.3-2.7,0.4-3.8,0.7c-3.1,0.6-6,0-8.9-1.3c-1.9-0.8-3.2-2.4-3.8-4.4c-0.5-1.7-0.9-3.6-1.6-5.3c-0.5-1.4-1.3-2.8-2.3-3.9
	c-3.9-4.2-6.1-9.1-6.4-14.9c-0.1-1.6-0.1-3.2-0.1-4.8c0-3.5-0.5-7-1.6-10.4c-0.4-1.3-1.1-2.5-1.6-3.6c-3.3-0.3-3.2-0.4-4.8-3.1
	c-2.2-3.8-3.2-8-4.2-12.2c-0.5-2.2,0-4.3,0.9-6.3c0.7-1.5,1.6-3,2.6-4.3c6.6-8.8,15-15.7,25-20.4c3.7-1.7,7.2-3.6,10.9-5.3
	c8.2-3.8,16.6-4.1,25.3-1.9c3.9,1,7.6,2.4,11.1,4.4c6.2,3.4,10,8.6,11.6,15.3c0.4,1.8,1.1,3.4,2.5,4.7c1.2,1.1,2.2,2.6,3.1,4
	c0.4,0.6,0.7,1.5,0.6,2.2c-0.4,2.8,0.7,5.2,2,7.5c1.6,2.8,3.6,5.4,5.5,8.1c1,1.4,2,2.7,2.9,4.1c2.5,3.7,3.2,7.8,2.6,12.1
	c-0.2,1.4-1.1,2.6-1.6,3.9c-0.3,0.8-0.7,1.6-0.7,2.4c0.1,5.8,0.2,11.6,0.5,17.5c0.2,3.3,0.6,6.7,1,10c0.2,1.6,0.8,2.9,1.8,4.1
	c3.6,4.6,7.1,9.2,10.6,13.9c2.2,2.9,4.3,5.7,6.4,8.6c1.1,1.5,1.9,3.1,1.9,5.1c3.3,2.2,6.2,4.9,8.5,8c1,1.4,2,3,2.4,4.6
	c3,13.2,4.5,26.6,3.7,40.1c-0.7,11.2-1.1,22.3-1.5,33.5c-0.2,6.7,0.3,13.4,1.3,20c0.9,6.1-0.8,11.2-4.3,15.9
	c-0.3,0.4-0.5,0.8-0.8,1.2c0,0.1,0,0.2-0.1,0.4c0.4,0.9,0.9,1.9,1.4,2.9c2.2,4.8,1.6,9.2-2.2,12.9c-2.4,2.4-5,4.5-7.5,6.7
	c-1.8,1.5-1.8,1.6-1,3.9c1.7,4.5,4,8.7,6.9,12.5c1.9,2.6,3.1,5.4,2.7,8.7c-0.3,2.7-1.1,5.4-2.6,7.6c-0.7,1-0.8,1.8-0.3,2.9
	c0.2,0.5,0.5,1,0.5,1.6c0.8,5.1,4.7,7.3,8.5,9.6c1.1,0.7,2.3,1.1,3.4,1.7c4,1.9,7.5,4.5,10.3,8c2,2.5,4.4,4.6,7.3,6
	c2.1,1,2.2,1.7,1.5,3.8c-1.1,3-2.2,6-3.2,9c-0.6,1.9-1,3.9-1.3,5.8c-0.3,1.7-1.2,2.9-2.8,3.3c-2.9,0.7-4.9,2.5-7.1,4.7
	c0.6,1.4,1.3,2.9,2.1,4.3c1.4,2.8,1.1,4-1.6,5.4c-1.3,0.7-2.7,1-4,1.5c-0.8,0.3-1.7,0.4-2.5,0.8c-0.9,0.4-1.6,1-2.4,1.4
	c-0.1,0.8-0.1,1.5-0.2,2.3c-4,0.5-8,0.9-11.9,1.4c-2.8,0.3-5.5,0.6-8.2,1.7c-1.3,0.5-1.9,1.2-2.2,2.5c-3.8,13.2-7.9,26.3-11.1,39.6
	c-1.8,7.6-3.8,15.2-5.4,22.8c-1.3,6.2-2.1,12.4-3.2,18.6c-0.7,4.2-1.9,8.3-2.5,12.4c-0.5,3.3-0.5,6.7-0.6,10c0,0.7,0.1,1.5,0.4,2.1
	c4.8,8.4,7,17.6,8.6,27c1.3,7.9,2.6,15.7,3.7,23.6c0.8,5.9,0.7,12,0.1,17.9c-1.2,11.8-2.6,23.6-3.8,35.5
	c-1.4,13.1-0.9,26.1,1.9,39.1c0.7,3.3,1.2,6.6,1.8,9.9c0.1,0.8,0.3,1.4,1,2c0.8,0.7,1.2,1.8,1.8,2.8c3.4,5.2,5,11,5.6,17.1
	c0.5,4.6,0.8,9.2,0.9,13.9c0.1,4.5,0.9,8.9,2.3,13.1c2.2,6.9,2.8,14.1,1.7,21.3c-0.4,2.5-1.2,5-2.4,7.2c-3.1,6.1-6.4,12.1-10.8,17.5
	c-1.9,2.3-3.3,5.1-4.8,7.7c-1.1,1.9-2.4,3.6-4.3,4.7c-1.8,1.1-3,1.1-4.5-0.4c-1.3-1.3-2.7-2.8-3.6-4.4c-2.9-5.1-5.5-10.2-8.3-15.4
	C331.2,777.8,330.9,777.3,330.3,776.1z M305.3,446.9c0,0.8,0,1.6,0,2.4c0.1,8.2,0.4,16.4-0.5,24.6c-0.8,7-1.5,14-2.5,20.9
	c-1.8,12-1.7,24-1,36.1c0.1,1.3,0.3,2.7,0.6,4c2,6.8,4,13.6,6,20.4c1.1,3.8,2.3,7.6,3.4,11.5c2.4,8.6,3.3,17.4,4.2,26.2
	c1,9.6,2.3,19.2,4.5,28.6c2.2,9.9,4.6,19.7,6.9,29.6c1.4,5.8,2.9,11.6,4.2,17.5c1.5,6.6,1.8,13.2-0.4,19.8c-0.7,2.1-1,4.4-1.2,6.6
	c-0.4,5.8-0.6,11.6-0.9,17.4c-0.2,5.2,0.2,10.4,1.3,15.5c1.4,6.6,2,13.3,1.5,20c-0.2,2-0.4,4-0.6,6c-0.3,3.7,0.7,5.3,4.3,6.5
	c2.5,0.8,5,0.6,7.5-0.1c1.8-0.5,3.5-1,5.3-1.3c1.1-0.2,2.5-0.3,3.5,0.1c2.8,1.1,4.8,0.2,6.7-1.7c4.8-4.8,6.9-10.5,5.7-17.2
	c-0.5-2.7-1.2-5.4-1.9-8.1c-1.4-5.6-3.2-11-3.5-16.8c-0.2-5.1-0.4-10.2-0.6-15.3c-0.1-1.3-0.4-2.7-0.7-4c-0.3-1.2-0.9-2.4-1.2-3.6
	c-0.6-2.3-0.9-4.7-1.5-7c-3.9-15-4.2-30.1-2.6-45.4c1.1-10.2,2.4-20.3,3.4-30.4c0.8-7.7,1-15.5-0.2-23.2c-1.2-7.6-2.5-15.1-3.7-22.7
	c-1-6.2-2.3-12.2-4.4-18.1c-0.8-2.3-2.2-4.5-2.9-6.8c-1.5-4.6-1.5-9.3-0.7-13.9c0.8-4.9,1.7-9.7,2.7-14.6c1.7-9.2,3.3-18.4,5.3-27.5
	c1.2-5.5,2.9-11,4.3-16.4c2.9-11.1,6-22.2,10.2-32.9c0.2-0.5,0.3-1.2,0.5-2.3c-0.8,0.6-1.4,0.8-1.6,1.2c-1.1,2-1,2.1-2.9,1.8
	c-4.5-0.7-8.9-0.5-13.3,0.4c-1.5,0.3-3,0.5-4.5,0.5c-2.2,0-2.8-0.6-3-2.8c-0.1-0.8-0.2-1.5-0.4-2.4c-0.9,0.1-1.6,0.1-2.3,0.2
	c-5.8,1.2-11.7,2.5-17.5,3.8c-1.4,0.3-2.1,1-2.7,2.3C315.3,441.4,311.8,445.8,305.3,446.9z M248.1,439.5c0,0.6-0.1,1,0,1.5
	c1.4,8.3,2.8,16.7,4.1,25c1.7,10.9,4.1,21.6,7.6,32.1c1.7,5.2,3,10.6,3.9,16c1,6,2.3,11.9,3.3,17.9c1,5.6,2.1,11.2,2.5,16.8
	c0.8,11.3,1.5,22.6,3.4,33.8c2.6,15.9,5.7,31.7,9.7,47.3c2.9,11.6,6.1,23.1,10.6,34.3c1.5,3.8,2.4,7.9,3.1,12
	c1,5.3,1.3,10.6,2.3,15.9c2.3,11.5,2.9,23.1,2.4,34.8c-0.3,7.3-0.4,14.6-0.6,21.8c2.2,1.7,4.7,2.7,7.1,3.1c2.1,0.3,4.2,0.8,6.3,1.2
	c1.3,0.2,2.6,1,3.8-0.3c0.1-0.1,0.4,0,0.7,0c5.1,0,9.2-3.5,10.1-8.4c0.2-1.3,0.7-2.6,0.9-3.9c0.2-0.8,0.3-1.8,0.2-2.6
	c-0.5-3.8-1.1-7.6-1.8-11.4c-0.8-4.5-1.2-9-1.1-13.6c0.2-5,0.4-10,0.6-15.1c0-0.5,0-1.1-0.2-1.6c-2.3-6.4-4.6-12.7-7.1-19.1
	c-3.3-8.6-5.5-17.3-5.5-26.6c0-5.9-0.6-11.8-1.1-17.7c-0.8-9.4-0.9-18.8,0-28.2c0.3-2.6,0.6-5.3,0.5-7.9c-0.3-8.2-1.3-16.4-3-24.4
	c-1.4-6.3-3.1-12.5-4.7-18.8c-0.9-3.6-1.9-7.2-3.5-10.6c-1.9-4-3-8.3-3.3-12.7c-0.7-12-0.8-24.1,0.9-36.1c2-13.7,3.5-27.6,3.5-41.5
	c0-2,0-4,0-6.1c-0.6-0.3-1.3-0.6-2.1-1c-1.5,2.1-3.5,1.6-5.4,0.9c-0.3,0.3-0.4,0.5-0.6,0.7c-2.3,3.2-4.2,3.1-6.1-0.2
	c-0.1-0.1-0.2-0.3-0.2-0.4c-0.5-1.3-1-2.6-1.5-3.9c-2.8-0.6-5.5-0.7-8.2-0.3c-1.2,0.2-2.4,0.3-3.5,0.5c-1.6,0.3-2.8,0-3.7-1.5
	c-0.5-0.9-1.3-1.2-2.3-1.5c-2.9-0.9-5.8-1.2-8.8-0.9c-2,0.2-3.9,0.7-5.9,0.8c-1.1,0.1-2.5,0.2-3.4-0.3
	C250.7,438.7,249.5,439,248.1,439.5z M382.5,298.3c1-1.9,1.9-3.4,2.7-4.9c1.5-2.7,2.1-5.7,1.7-8.8c-0.1-1.2-0.2-2.4-0.3-3.6
	c-0.4-5-1.2-10-1-15c0.3-12.7,0.9-25.4,1.6-38c0.7-12.2-0.5-24.2-3.2-36.1c-1.5-6.7-6-11-11.6-14.2c-3.2-1.8-6.9-2.7-10.1-3.9
	c-3,3.3-5.8,6.3-8.7,9.3c-3.4,3.6-6.4,7.4-8.5,11.8c-2.8,5.9-5.7,11.8-8.1,17.9c-4.7,11.8-9,23.7-13.7,35.5c-2,5-3.2,10.2-3.6,15.6
	c-0.7,10.2-1.3,20.4-1.8,30.6c-0.1,2.3,0,4.6,0.2,6.9c0.7,8.5,4,16.2,8,23.6c0.4,0.7,0.9,1.2,1.5,2.2c1.5-3.2,2.9-6,4.2-8.8
	c0.4-0.8,0.3-1.4-0.1-2.2c-0.5-1-0.9-2.2-1-3.4c-0.4-4.5-0.7-9.1-1-13.6c-0.7-13.8-0.3-27.6,1.7-41.3c0.1-0.4,0.3-0.8,0.7-1.8
	c0.1,1.6,0.1,2.6,0.2,3.6c3.2-11,6.2-21.9,10.2-32.6c0,1-0.2,1.9-0.5,2.8c-1.3,5-2.7,10-4,15c-1.8,7-3.7,14-5.5,21.1
	c-0.4,1.5-0.7,3-0.8,4.5c-0.1,11.1-0.2,22.2-0.3,33.3c0,2.2,0.2,4.5,0.4,6.7c1.2-2.6,3.1-4.3,5.2-6c1.1-0.8,2.3-1.7,2.7-2.9
	c-1.2-1.5-2.3-2.9-3.4-4.3c-2.5-3.3-2.6-6.9-1.3-10.7c2.1-5.6,4.3-11.1,7.3-16.3c5.2-9.1,7.9-18.9,9.5-29.2c1-6.8,2-13.6,3.4-20.3
	c1.8-8.9,5.3-17.2,11.2-24.3c0.5-0.6,1.1-1.2,1.7-1.8c0.1,0.6,0,0.9-0.2,1.2c-4.7,6.4-8,13.6-10.2,21.2c-1.8,6.2-2.6,12.6-3.6,19
	c-0.2,1.3-0.3,2.6-0.5,3.9c3.7-6.2,8.2-11.5,13.9-15.8c-0.7,1.1-1.6,1.9-2.4,2.9c-2.3,2.8-4.6,5.5-6.7,8.4c-1.5,2.1-2.6,4.5-4.1,6.8
	c-1.1,1.7-1.8,3.5-2.2,5.5c-1.5,8.1-4.3,15.7-8.3,22.9c-1.3,2.4-2.7,4.9-4,7.4c-0.3,0.6-0.5,1.2-0.7,1.8c3.2-1.8,6.2-1.1,9.3-0.4
	c2.8,0.6,5.6,1.3,8.5,1.5c4.8,0.5,9.7,0.6,14.6,0.9c3.5,0.2,6.7,1.2,9.1,3.9c-0.5,0-0.9,0-1.4-0.2c-3.8-1.2-7.7-1.7-11.8-1.9
	c-7.6-0.4-15.2-0.8-22.2-4c-1.2-0.5-2.4-0.5-3.4,0.3c-3.2,2.4-5.2,5.5-6.1,9.4c-0.8,3.6,1.1,6.3,3.2,8.9c1.5,1.8,1.6,1.9,3.8,1.1
	c4.5-1.6,8.9-1.6,13.4-0.2c3.2,1,5.8,2.8,7,6.2c-1.1-0.8-2.1-1.8-3.2-2.6c-5.4-3.9-11.2-4.6-17.4-2c-0.5,0.2-1,0.6-1.3,1
	c-1.2,2.4-3.1,4.2-5.2,5.9c-1.7,1.4-2.5,3.3-2,5.5c0.4,1.8,0.1,3.5-0.8,5.1c-1.9,3.9-3.9,7.7-5.8,11.6c-2.2,4.5-4.2,9.1-6.3,13.7
	c-0.6,1.4-0.5,2.7,0.3,4.2c2.6-1.5,5.2-1.1,7.9-0.4c7.1,1.8,12.6,6.3,17.8,11.2c0.7,0.6,0.9,1.7,1.4,2.7c0.7-0.8,1.5-1.6,2-2.5
	c1-1.6,1.9-3.3,2.8-5c2.5-4.9,5-9.8,7.6-14.7c1-1.9,2.3-3.6,3.4-5.4c-1.7-4.1-4.5-7-8.3-9.1c-4.3-2.4-8.7-4.4-13.4-5.7
	c-2.6-0.7-5.3-1.4-7.9-2.1c0-0.2,0.1-0.4,0.1-0.5c5.8-0.1,11.1,1.9,16.4,3.9c5.4,2.1,10.3,5,13.8,10.1c2.2-4,5.3-6.9,8.6-9.5
	c2.8-2.2,5.6-4.5,7.7-7.5c1.9-2.6,2.5-5.5,1.3-8.6c-1-2.5-2.1-5-3.2-7.5c-0.4-1.1-0.7-2.3-1.1-3.4c0.2-0.1,0.3-0.1,0.5-0.2
	C380.4,294.9,381.4,296.4,382.5,298.3z M232.8,255.6c0.2-0.1,0.3-0.1,0.5-0.2c0.1-0.9,0.2-1.7,0.2-2.6c0.3-6.4,0.5-12.8,0.8-19.1
	c0.3-7,0.9-14,2.4-20.9c0.6-3,1.2-6,1.8-8.9c0.2,0,0.3,0.1,0.5,0.1c-0.4,2.3-0.7,4.6-1.1,6.8c-1.6,9.8-1.9,19.7-2.3,29.6
	c-0.3,8.2-0.5,16.4-0.8,24.6c-0.2,6.2-0.6,12.4-0.7,18.7c-0.3,14.4,1.1,28.7,2.2,43c0,0.5,0.2,0.9,0.4,1.4
	c7.4-20.9,12.6-42.3,17.4-63.8c0.1,0.8,0.2,1.6,0,2.4c-1.3,6.9-2.6,13.8-3.9,20.7c-2.5,12.7-6.7,24.9-10.5,37.3
	c-1.4,4.5-3.2,8.9-4.5,13.4c-1.5,5.1-2.7,10.3-4.1,15.5c-0.9,3.6-1.3,7.2-1.2,10.9c0.1,5.3,0.1,10.5,0.2,15.8c0,1,0.1,2.1,1.4,2.7
	c0.9-0.7,1.7-1.7,2.7-2.2c1-0.5,2.2-0.7,3.4-1c1.7-3.9,3.7-7.9,5.2-12c3.1-8.7,5-17.7,5.4-26.9c0.6-11.9,1.6-23.7,3.6-35.5
	c1.7-9.6,3.4-19.2,5.3-28.7c1.2-6.2,1.7-12.3,1-18.6c-0.7-5.8-1.1-11.6-0.8-17.4c0.3-6.6-0.4-13.1-1.1-19.6
	c-0.2-2.3-0.6-4.5-0.8-6.8c-0.1,0-0.2,0-0.4-0.1c-2,4.7-4,9.4-6.1,14.2c-0.2-0.8-0.1-1.5,0.2-2.1c1.6-4.4,3.3-8.8,5-13.2
	c0.7-1.7,0.9-3.3,1-5.1c0.2-8.3,0.6-16.6,2.3-24.8c1.2-5.9,3.2-11.5,7.1-16.3c0.1-0.1,0-0.3-0.1-0.6c-4,1.1-7.9,2.5-11.6,4.3
	c-3,1.5-6,3-9.1,4.2c-1.6,0.6-2.9,1.4-3.7,2.8c-2.4,3.9-5,7.6-7,11.7c-6,11.9-9.5,24.5-8.8,38c0.3,5.2,0.6,10.3,0.8,15.5
	c-0.4,0.2-1.1,0.4-1.3,0.7c-2.3,4.4-3.3,8.8-0.3,13.3c0.8,1.1,1.4,2.4,2.1,3.5c-0.1,0.1-0.3,0.2-0.4,0.3c-1.2-1.1-2.4-2.2-3.9-3.6
	c-0.4,1.2-0.7,2.2-1,3.3c-1.5,5.7-1.8,11.1,2.2,16.1c1.3,1.6,1.9,3.6,1.9,5.8c-1.2-1.6-2.3-3.1-3.7-5c-1.5,4.5-1.9,8.6-1.6,12.8
	c0.1,1.3,0.8,2.4,1.9,3.2c0.8,0.5,1.7,0.9,2.5,1.4c0.7,0.5,1.4,1.1,2.4,1.9c-3.2,0.9-5-1.3-7.3-2.2c-0.8,4.2-1.2,8.1,1.5,11.6
	c0.7,0.9,1,2.3,1.2,3.6c0.2,1.3,0.1,2.7,0.2,4.1c0.1,1.8,0.6,2.6,2.3,2.8c3.4,0.5,6.7,0.8,10.1,1.2c0.1-0.5,0.2-0.7,0.2-0.9
	c-0.1-1.3-0.2-2.5-0.3-3.8c-1.2-13.7-1.6-27.4-0.9-41.1c0.2-3.8,0.4-7.6,0.6-11.5c0.1-1.2-0.1-2.2-1-3.2c-1.3-1.3-1.9-3.1-1.9-5.5
	C231.3,253.4,232,254.5,232.8,255.6z M354.8,168.1c2.6-1.4,3.4-1.2,5.1,1c0.1,0.1,0.2,0.2,0.3,0.4c1,2.2,2.8,3.1,5.1,3.5
	c1.5,0.3,2.9,0.8,4.4,1.2c0.7,0.2,1.5,0.4,2.6,0.7c-0.6-1.1-1-1.9-1.5-2.6c-1.8-2.5-3.6-5.1-5.5-7.5c-7.6-9.6-14.9-19.5-21.7-29.8
	c-3.9-6-6.7-12.5-7.5-19.7c-0.5-4.4-0.8-8.9-0.9-13.4c-0.1-5.5,0-11,0.1-16.5c0-5.5-0.3-11-1.5-16.4c-1.5-7-5.4-12.1-11.8-15.5
	c-4.7-2.5-9.7-4-15-4.8c-2.9-0.4-5.9-0.7-8.8-0.1c-5.8,1.1-11.2,3-16.5,5.5c-0.4,0.2-0.7,0.6-1,0.8c1.2,7.7,8.2,33.7,9.6,35.8
	c1.4-1.9,2.7-3.8,4.1-5.7c0.1,0.1,0.3,0.2,0.4,0.2c-0.6,1.4-1.2,2.8-1.9,4.3c2.8,0.6,4.5,2.2,6.2,4c2.6,2.8,4.8,6,6.4,9.5
	c0.3,0.8,0.8,1.5,1.3,2.6c0.9-0.9,1.6-1.6,2.1-2.3c0.8-1,1.3-2.2,2.2-3.2c1.6-1.7,3.2-3.6,5.1-4.9c2.9-1.9,6-0.8,7.3,2.3
	c2.7,6.5,1.9,12.6-2.5,18.2c-2.5,1.5-2.7,3.8-2.6,6.4c0.1,0.9-0.1,1.8-0.1,2.6c-0.1,2.5,0.6,4.9,1.9,7.1c2.2,3.9,5.2,7,8.9,9.5
	c3.6,2.5,7,5.3,10.4,8.1c3,2.5,5.4,5.4,7.5,8.7c1.5,2.4,3.1,4.8,4.6,7.3C352.3,166.5,353.2,167.5,354.8,168.1z M228.6,430.5
	c0.3-0.7,0.4-1.2,0.6-1.7c1.3-3.7,2.4-7.4,3.8-11.1c2.1-5.3,4.5-10.4,6.5-15.7c6.3-16.7,13.4-33,22-48.6c0.3-0.6,0.8-1.2,1.1-1.8
	c0.1,0.9-0.2,1.7-0.5,2.4c-2.6,5.6-5.4,11.1-7.9,16.7c-2.7,6-5.3,12.1-7.9,18.2c-3.8,9.1-7.5,18.3-11.1,27.5
	c-1.7,4.5-3.2,9-4.7,13.5c-0.4,1.2-0.5,2.4-0.7,3.8c7,2.2,13.7,5.2,21.3,2.8c-0.5-6.5,0.8-12.7,2.2-18.9c2-8.3,3.3-16.7,4.4-25.2
	c0.9-7.4,1.9-14.9,2.9-22.3c0.1-0.7,0.3-1.3,0.5-2c0.3,0.8,0.3,1.6,0.2,2.4c-0.5,5.6-1,11.1-1.5,16.7c-1,10.3-2.2,20.5-4.5,30.5
	c-1.2,5.3-2.4,10.6-2.6,16c-0.1,1.9,0.2,3.4,1.9,4.4c3.3-0.3,6.6-0.7,9.8-1c3.4-0.3,6.5,1,9.8,2.5c0.1-1.3,0.1-2.2,0.2-3.2
	c0.7-17.9,0.6-35.9,2.8-53.8c0.9-7.4,2-14.7,3.7-21.9c0.7-2.8,1.3-5.5,1.9-8.5c-9.1-0.8-18-0.7-26.1-5.2c-1.4,3.1-2.8,6-4.1,9
	c-0.8,1.9-1.6,3.8-2.1,5.8c-0.9,3.2-1.6,6.3-2.3,9.5c-0.6,3.1-1.1,6.3-1.7,9.4c-0.2,1.2-0.8,1.9-1.9,2.5c-2.2,1.1-4.4,1.1-6.4-0.1
	c-1.9-1.1-3.2-1-4.5,0.6c-0.1,0.1-0.2,0.2-0.4,0.3c-1.2,0.5-1.6,1.5-1.9,2.8c-1.5,7.8-3.1,15.7-4.7,23.5c-0.9,4.4-1.8,8.8-2.8,13.1
	c-0.4,1.9,0,3.3,1.5,4.4C226.6,428.6,227.5,429.5,228.6,430.5z M312.7,430.7c0.2,0.1,0.3,0.1,0.5,0.2c-0.9,4-1.9,8.1-2.9,12.6
	c3.6-2.8,5.9-5.9,7.1-9.7c0.8-2.5,1.4-5.1,2.1-7.6c0.5-1.7,1-3.4,1.7-4.9c3.5-7.6,5.7-15.6,6.3-23.9c0.1-2.2,0.8-4.1,2-6
	c2.6-4.2,5.3-8.4,7.6-12.7c3.3-6.1,5.5-12.7,9.7-18.3c-0.2-0.3-0.2-0.6-0.4-0.7c-4.1-3.8-8.3-7.5-13.7-9.5c-2.2-0.8-4.4-1.4-6.7-1.9
	c-1.7-0.4-2.2,0.1-2.7,1.5c-1.4,3.9-2.6,7.9-4.2,11.7c-4,9.4-8.1,18.7-12.3,28c-1.2,2.8-3.1,5.2-5.1,7.5c-6.3,7.1-10.5,15.1-10.5,25
	c0,4.5-0.3,9.1-1.2,13.6c-0.4,2.1-0.5,4.3-0.4,6.4c0.1,2.5,1,4.6,3,6.3c1.9-1.1,3.3-2.2,3.3-4.4c-0.1-5.1,0.9-10.2,1.8-15.2
	c0.1-0.5,0.3-0.9,0.5-1.4c0.2,0,0.3,0.1,0.5,0.1c-0.2,2.5-0.4,5-0.7,7.5c-0.3,3-0.6,6-0.8,9.1c0,0.6,0.2,1.7,0.6,1.8
	c0.6,0.2,1.7,0.1,2.2-0.3c1.2-0.9,2.3-1.9,2.5-3.6c0.1-1.2,0.3-2.4,0.6-3.5c0.5-2.1,1.1-4.1,1.7-6.1c0.2,0,0.4,0.1,0.6,0.1
	c-0.6,4.1-1.2,8.2-1.8,12.4c0.4,0,0.7,0,0.9,0.1c2.7,0.4,3.2,0.3,4.4-2.2c0.8-1.8,1.3-3.7,1.9-5.6
	C311.5,434.8,312.1,432.7,312.7,430.7z M289.4,144.7c0.1,0.1,0.3,0.2,0.4,0.3c1.8-1.1,3.5-2.2,5.3-3.2c-0.2,1.6-1.5,2.1-2.4,2.9
	c-0.5,0.4-1.1,1.1-1.1,1.7c-0.1,1.8-0.1,3.7,0.1,5.5c1.1,8.3,5,15.4,9.9,22c1.1,1.5,2.5,2.6,4.4,3.2c0.2-0.2,0.5-0.3,0.7-0.5
	c5.1-5.2,10.9-9.5,16.9-13.7c3.3-2.3,6.2-5,9.2-7.6c1.3-1.2,2.3-2.6,3.2-4.1c1-1.7,0.9-2-0.7-3.2c-2.6-2-5.1-4.1-7.8-5.9
	c-3.9-2.7-6.8-6.2-9.1-10.3c-0.9-1.7-1.5-3.5-1.4-5.5c0-2.5,0-4.9,0-7.4c-0.9-0.1-1.6-0.3-2.4-0.4c0.5-0.6,0.9-0.9,1.4-1.1
	c2.4-0.8,4.3-2.3,5.5-4.4c2.7-4.7,3.2-9.7,1.3-14.7c-1.4-3.6-4.5-4.3-7-1.5c-1.8,2-3.4,4.2-5,6.4c-1.1,1.5-2.1,3-3.6,3.9
	c-1.9-0.3-2.5-1.6-3.1-3.1c-2-4.8-5.2-8.8-8.9-12.3c-0.8-0.8-1.7-1.9-3.1-1c-1.4,0.9-1.6,1.9-1,3.7c0.4,1.2,0.8,2.4,1.3,3.6
	c3,7.2,3.8,14.8,3,22.5c-0.7,6.7-2.3,13.2-4.5,19.5C290.4,141.6,289.9,143.1,289.4,144.7z M257.1,345.6c3.8,1.3,7.4,2.4,11.1,2.7
	c6.5,0.6,13,1.1,19.6,1.5c2.5,0.2,4.9,0.1,7.4-0.1c7.8-0.6,15.5-2.2,23.1-4c2-0.5,2.7-1.8,1.8-3.7c-1-2.3-2.1-4.7-3.2-6.9
	c-3-6-5.1-12.2-6.3-18.8c-0.5-2.6-0.9-5.3-1.3-8.2c-3.5,0.7-6.7,0.3-10-0.4c-0.9-0.2-2-0.2-2.8,0.1c-3,1.3-6.1,0.4-9.2,1.1
	c-1.5,0.3-3.3-0.3-4.9-0.7c-1.3-0.3-2.5-0.9-3.6-1.6c-0.9-0.6-1.5-0.5-2.3,0c-1.2,0.7-2.5,1.4-3.9,1.7c-2.9,0.6-5.8,0.8-9,1.2
	c-0.8,5.6-1.6,11.6-2.4,17.6C260.2,333.4,259.1,339.5,257.1,345.6z M283.7,352.2c2.1,17.2,5,34,4.1,51.1c-1.1-7.4-1.9-14.9-2.7-22.4
	c-0.7-7.6-1.4-15.1-2-22.7c-0.2,0-0.3,0-0.5,0c-0.3,1.6-0.5,3.3-0.8,4.9c-1.7,8.6-2.9,17.3-3.4,26.1c-0.8,13.1-1.4,26.3-2.2,39.4
	c-0.2,3.6-0.6,7.2-0.9,10.7c0,0.4,0,0.9,0.1,1.5c4.3-0.9,8.5-1.2,12.8-0.6c0.3-2.1,0.6-4.1,0.8-6.1c0.5-4.2,1.2-8.4,1.4-12.6
	c0.5-9.8,4.5-18.2,10.4-25.7c2.2-2.8,4.2-5.8,5.5-9.2c1.6-4.1,3.2-8.1,4.9-12.2c0.4-0.9,0.5-1.8,0.1-2.8c-1.6-3.8-2.5-7.9-3.3-12
	c-0.3-1.5-0.7-3.1-1.1-4.6c-0.9,10-0.4,20-2.4,29.9c-0.4-11.6,0-23.1,1.1-34.9C298.2,352,291,352.1,283.7,352.2z M244.5,381.9
	c0.4-1.3,0.9-2.6,1.2-3.8c0.8-3.4,1.6-6.8,2.4-10.2c1.3-5.8,3.2-11.3,5.7-16.7c1.4-3.1,2.5-6.4,3.3-9.7c2.2-9.2,3.3-18.5,4.5-27.9
	c1.7-12.9,3.3-25.8,5.2-38.7c0.9-6.1,1.4-12.2,0.1-18.3c-0.7-3.2-1.2-6.5-1.3-9.7c-0.2-6.5-0.1-12.9-0.1-19.4
	c0.1-11.9,0.1-23.8,0.5-35.7c0.3-9.5,1.1-19.1,6.3-27.6c-4.9,0.7-6.6,1.8-8.7,5.7c-2.5,4.6-4.3,9.4-5.2,14.6
	c-0.4,2.4-0.8,4.9-1.1,7.3c-1.3,8.9-1.6,17.8-0.5,26.7c1,7.9,1.5,15.9,1.2,23.9c-0.1,3.1,0,6.2,0.2,9.3c0.3,4.1,0.8,8.1,1.1,12.2
	c0.2,2.5,0.3,5.1-0.1,7.6c-0.6,4.7-1.5,9.3-2.5,13.9c-3.2,15.2-5.6,30.4-6.7,45.9c-0.4,5.8-0.8,11.6-1.6,17.4
	c-1.1,8-3.1,15.8-6.4,23.2c-1.3,2.9-2.2,5.9-3.2,8.9C240.6,382.3,242.4,381.9,244.5,381.9z M279.2,56c-1.8-0.3-3.2,0.6-4.5,1.4
	c-8.1,4.9-15.5,10.6-21.3,18.2c-1.2,1.5-2.2,3.1-3.1,4.8c-1.1,2-1.3,4.3-0.7,6.5c0.9,3.1,1.9,6.1,2.9,9.1c0.3,0.9,0.9,1.7,1.3,2.5
	c0.4,0.8,1.1,1.2,2,0.8c3.1-1.2,6.3-1,9.4-0.4c1.3,0.2,2.5,0.2,3.8,0.2c4.2,0.1,7.8-1.3,11.1-3.7c1.3-0.9,1.7-1.9,1.3-3.4
	c-1.2-4.9-2.4-9.8-3.6-14.6c-0.2-0.8-0.4-1.7-0.5-2.6c0.2,0,0.4-0.1,0.6-0.1c1.5,4.8,3.1,9.5,4.3,14.4c1.8,7.5,3.3,15.1,4.8,22.7
	c1.8,8.7,3.3,17.4,2.4,26.4c0,0.5,0,1.1,0,1.6c0.6-0.8,1-1.5,1.2-2.4c1.4-5.4,2.8-10.8,3.5-16.4c1-7.7,0.1-15.1-3-22.2
	c-0.6-1.3-1-2.7-1.4-4.1c-1.8-6-3.6-12.1-5.3-18.1c-1.4-4.9-3-9.8-3.7-14.8C280.4,59.8,279.7,57.9,279.2,56z M321.4,340.3
	c1.7-3.7,3.3-7.2,5-10.6c0.4-0.8,0.2-1.5-0.2-2.2c-1.2-2.1-2.4-4.2-3.5-6.3c-4.6-9.2-6.8-18.8-6-29.2c0.6-8.2,1-16.4,1.4-24.6
	c0.4-6.8,1.5-13.4,4.3-19.8c3.8-8.8,7.1-17.8,10.7-26.7c2.5-6.2,5-12.4,7.6-18.6c3.4-8,7.7-15.4,13.8-21.7c1.7-1.8,3.2-3.8,4.7-5.8
	c0.4-0.6,0.8-1.6,0.6-2.2c-0.4-1.2-1.2-2.3-2-3.2c-0.9-1-2.2-0.8-3,0.3c-0.7,1.1-1.3,2.2-2.1,3.2c-8.4,10.2-15.1,21.4-21.1,33
	c-4.4,8.6-8.8,17.2-13.2,25.8c-4.6,9-7,18.5-6.5,28.6c0.1,2.5,0.1,5,0,7.4c-0.3,9.7-0.7,19.5-1,29.2c-0.2,5.7,0.2,11.3,1,16.9
	C313.1,323.3,316.8,331.8,321.4,340.3z M351.7,167.3c-1.8,2.8-3.4,5.4-4.9,8c-2.4,4.1-5.1,7.9-8.6,11.2c-2.7,2.5-5.4,4.9-8.3,7.2
	c-1.5,1.2-3.1,2.2-4.8,3c-3.2,1.5-6.1,0.8-8.4-1.8c-1-1.1-1.8-2.4-2.7-3.7c-0.3-0.4-0.7-0.7-1.2-1.2c0,0.8-0.1,1.2-0.1,1.6
	c-0.2,9.8-1.3,19.6-3.3,29.2c-1.6,7.3-3.4,14.6-5.3,21.8c-2.9,11-3.5,22.2-3.3,33.5c0.2,9.2,0.6,18.3,1,27.5c0,0.9,0.1,1.7,0.1,2.6
	c2.6,0.6,4.9,0.6,7.5-0.1c0-0.8,0-1.6,0-2.4c0.2-4.9,0.2-9.7,0.5-14.6c0.6-10.5,1.3-21,1-31.6c-0.3-8,1.4-15.7,4.7-23
	c1.3-2.8,2.5-5.5,3.9-8.2c4.5-8.8,8.9-17.7,13.5-26.4c5.1-9.8,10.9-19.1,18.3-27.4c0.9-1.1,1.8-2.2,2.7-3.4
	C353.1,168.5,352.5,168,351.7,167.3z M277.8,304.9c-0.1-0.8-0.3-1.3-0.3-1.8c-0.7-3.9-1.8-7.8-1.2-11.8c0.5-3.1,1.4-6,2.6-8.9
	c1.1-2.6,2.2-5.2,2.9-7.8c1.9-6.8,3-13.9,3.7-20.9c0.5-5.4,1.2-10.8,3.4-15.9c2.5-5.9,4.2-12,5.9-18.2c0.5-1.9,0.8-3.9,1.3-6.2
	c-0.6,0.3-0.8,0.4-1,0.6c-2.2,2.1-5,3-7.7,4.2c-0.6,0.3-1.2,0.8-1.6,1.3c-4.5,5.5-9,11-13.4,16.6c-1.7,2.2-3,4.7-4.3,7.1
	c-0.5,1-0.7,2.3-0.6,3.5c0.2,3.3,0.6,6.7,1.1,10c0.7,4.5,1.1,9,0.4,13.6c-1.7,11.8-3.4,23.5-5,35.3c-0.1,0.9-0.1,1.9-0.2,2.9
	C268.7,307.8,273.1,306.1,277.8,304.9z M347.1,383.6c2.8,8.2,5.5,16.2,8.3,24.2c2,6,4.1,11.9,6.2,17.8c0.5,1.4,1.2,2.7,1.8,4
	c0.4,0,0.6,0,0.7-0.1c6.6-2.9,13.5-3.6,20.6-3.5c0.7,0,1.5-0.1,2.4-0.2c-0.2-0.7-0.3-1-0.4-1.4c-2.7-6.9-5.6-13.7-9.4-20.1
	c-3.2-5.3-5.8-10.8-7.8-16.6c-0.9-2.6-1.8-5.1-2.6-7.7c-0.9-2.7-0.9-2.8-3.7-2.3c-1.2,0.2-2.3,0.6-3.5,0.8
	C355.1,379.3,351,381,347.1,383.6C347.1,383.6,347,383.7,347.1,383.6z M258.6,100.6c0.7,2.7,1.5,5.2,2,7.8c0.5,2.6,0.6,5.3,1,8.4
	c0.6-1.6,1-2.8,1.4-4c0.1,1.5-0.2,2.9-0.4,4.3c-0.3,1.7-0.6,3.5-0.7,5.2c-0.1,1.5,0.8,2.3,2.3,2.5c0.6,0.1,1.3,0,1.9,0
	c2.2,0,4.5,0,6.7,0c-1.8,1.5-5.8,1.9-10.4,0.8c0.3,0.8,0.5,1.6,0.9,2.3c1.2,1.9,2.4,3.8,3.7,5.5c1.4,1.8,2.5,3.6,3.1,5.8
	c0.4,1.6,1,3.2,1.6,4.8c0.5,1.5,1.6,2.5,3.1,3.2c3,1.4,6.2,1.5,9.4,0.8c2.8-0.6,3.5-1.5,3.8-4.4c0.7-7.1,0.7-14.2-0.4-21.2
	c-1.2-7.2-2.6-14.3-4-21.4c-0.3-1.5-0.8-3-1.2-4.5c-2.2,1.1-4.1,2.4-6.1,3.1c-4,1.5-8.1,1.6-12.3,0.9
	C262.2,100.3,260.5,99.6,258.6,100.6z M379.2,352.2c2.4-4.2,2.7-8.3-0.4-12.3c-1.5-2-2.7-4.1-3.8-6.3c-1.3-2.7-2.3-5.5-3.5-8.5
	c-2.5,1.7-4,4.1-5,6.9c-0.3,0.9-0.6,1.8-1,2.6c-2.6,4.8-5.2,9.5-7.7,14.3c-2.4,4.7-4.6,9.5-8.1,13.5c0,0.1,0,0.2-0.1,0.4
	c2,4.7,4,9.5,6,14.5c1.2-0.3,2.1-0.5,3-0.8c1.5-0.4,3.1-1.1,4.6-1.2c5-0.2,10-0.3,15.1-0.4c1.5,0,3.1,0,4.8,0
	c-2.5-12.7-7.6-24.7-9.5-37.4C376.1,342.2,377.8,347.1,379.2,352.2z M306.9,179.2c3.8,2.7,6,6.4,8.2,10c0.8,1.3,1.6,2.6,2.6,3.7
	c2.1,2.7,4.4,3.2,7.4,1.6c1.5-0.8,2.8-1.8,4.1-2.9c2.6-2.2,5.2-4.5,7.7-6.8c1.1-1,2.3-2,3.2-3.2c3.6-5,7-10,10.5-14.9
	c-3.7-6-6.6-12.2-12.3-16.5c-1.3,4.7-4.6,7.7-8.2,10.4c-2.9,2.1-5.8,4.2-8.8,6.2c-4.4,3-8.5,6.2-12.2,10
	C308.4,177.4,307.8,178.2,306.9,179.2z M304.9,178.2c-3-1-4.7-3-6.1-5.3c-1.6-2.5-3.1-5.2-4.6-7.8c-2.7-5.1-4-10.5-4-16.3
	c0-0.6-0.1-1.2-0.2-1.8c-0.4,0.2-0.7,0.2-0.8,0.4c-0.3,0.3-0.5,0.6-0.6,1c-1.6,4.4-4.3,8.2-7.1,11.8c-2.3,2.9-3.3,6.2-3.1,9.8
	c0.2,4.5,0.2,9.1,0.6,13.6c0.3,3.3,1,6.6,1.7,9.9c0.3,1.4,0.7,1.6,2,1.1c0.9-0.3,1.8-0.7,2.6-1.2c5.2-3.5,10.3-6.9,15.4-10.5
	c1.2-0.9,2.3-2,3.3-3.1C304.2,179.5,304.4,178.9,304.9,178.2z M366.8,377.5c0.8,1.8,1.7,3.5,2.3,5.2c2.5,6.7,5.4,13.1,9,19.2
	c3.6,6.1,6.6,12.6,9.3,19.1c0.3,0.7,0.6,1.4,1.1,2.5c2.8-3.1,7.2-2.7,10.2-5.4c-0.3-0.7-0.5-1.3-0.8-1.9c-2.2-4.1-3.8-8.4-4.9-12.9
	c-1.9-8.4-5.2-16.4-8.8-24.2c-0.5-1.2-1.2-1.7-2.5-1.7c-4.7,0-9.4-0.1-14.1-0.1C367.4,377.2,367.2,377.3,366.8,377.5z M356.1,760.2
	c1.8,2,3.1,4.3,3.7,7c1.3,5.8-1.6,11.5-7.1,13.6c-6.5,2.5-12.4,1-17.5-3.6c-3.2-2.9-3.7-6.3-1.7-10.2c0.7-1.5,1.6-2.9,2.3-4.1
	c-2-1.3-3.8-2.5-5.9-3.8c-0.3,1.4-0.8,2.8-0.8,4.1c0,3.7,0.4,7.4,2,10.7c3.1,6.4,6.4,12.6,9.8,18.9c0.8,1.4,1.9,2.7,3.1,3.9
	c1.4,1.5,2.2,1.5,3.7,0.2c1.3-1.1,2.4-2.5,3.4-4c1.7-2.5,2.9-5.4,4.8-7.7c4.5-5.5,7.6-11.8,10.8-18c0.8-1.5,1.3-3.1,1.6-4.7
	c1.3-7.6,0.8-15.1-1.6-22.5c-1.4-4.4-2.3-9-2.4-13.6c-0.1-3.7-0.4-7.5-0.8-11.2c-0.4-4.6-1.5-9.1-2.9-13.5c-0.3-0.8-0.7-1.5-1-2.2
	c-0.2,2.7,0,5.2,0.1,7.8c0.1,7.7,1,15.3,3.3,22.7c0.9,2.8,1.6,5.7,2.2,8.6C366.7,747.6,363.6,754.7,356.1,760.2z M345.3,427.1
	c-4.5-14.2-7.6-28.5-8.7-43.2c-0.6,0.5-1,1-1.3,1.5c-1.5,2.3-2.9,4.6-4.4,6.8c-1.2,1.6-1.7,3.4-1.8,5.3c-0.4,8.2-2.6,16.1-6,23.5
	c-1.2,2.6-2.1,5.1-2.7,7.9c-0.2,1.1-0.6,2.2-0.9,3.7C328.1,430.1,336.4,427.7,345.3,427.1z M340.7,375.5c-1,2-1.8,3.5-2.7,5
	c-0.6,1-0.7,2.1-0.5,3.2c1.7,11.3,3.7,22.5,6.9,33.5c1.1,3.8,1.8,7.8,3.9,11.3c0.2,0.4-0.1,1.1-0.2,1.9c-2.2-1-4.1-1.1-6.3-0.7
	c0.2,0.6,0.3,1.2,0.5,1.7c0.2,0.5,0.5,1,0.8,1.7c6.2-0.5,12.3-2.4,18.7-1c-0.2-0.6-0.2-1-0.3-1.2c-3.9-8.4-6.5-17.3-9.1-26.2
	c-2-6.5-3.9-13-5.8-19.5c-0.2-0.6-0.6-1.2-1-1.8c-0.8-1.1-1.8-2.2-2.5-3.4C342.2,378.7,341.6,377.3,340.7,375.5z M281.3,214.5
	c-1.2-1.1-2.1-2-3.1-2.9c-1.2-1.1-1.6-2.3-1.1-3.9c1-3.6,2.4-6.9,5-9.7c0.3-0.4,0.6-0.8,1-1.5c-2.2,0.2-3.5-0.3-4.1-2.4
	c-2.7-10-3.8-20.2-2.1-30.5c0-0.2-0.1-0.4-0.2-0.7c-3.1,1.6-4.6,4.2-5.7,7.2c-2.1,5.8-3.1,11.9-3.3,18c-0.4,13.2-0.6,26.5-0.9,39.7
	c0,0.8,0.1,1.7,0.1,2.5c0.2,0.1,0.3,0.1,0.5,0.2C270.4,223.9,275.8,219.2,281.3,214.5z M300.2,305.8c0-1,0.1-1.7,0.1-2.4
	c-0.2-9.4-0.4-18.8-0.6-28.2c-0.2-12.5,0.9-24.8,4.1-37c2.8-10.5,5.4-21,6.3-31.9c0.5-5.9,0.8-11.8,1.2-17.7c0.1-1,0.2-2-1-2.8
	c-0.3,2.5-0.6,4.8-1,7.2c-1.7,10.6-4.6,20.9-7.6,31.1c-5,16.7-7.2,33.8-7,51.2c0.1,9.9-0.2,19.8-0.3,29.6c0,0.2,0.1,0.4,0.2,0.7
	C296.4,305.8,298.2,305.8,300.2,305.8z M350,108.4c0.2,0,0.3,0,0.5,0c0.3,1.1,0.7,2.3,1,3.6c1.3-1.2,1.1-2.4,1.1-3.6
	c0-4.2-1.8-7.8-4.1-11.3c-2.1-3.1-4.1-6.3-5.9-9.5c-1-1.7-1.7-3.5-2.5-5.3c-2.4,1.4-3.4,3.4-3.3,6.2c0.2,7.2,0,14.3,0.3,21.5
	c0.3,6.9,1.9,13.6,5.5,19.6c2.1,3.6,4.6,7.1,6.9,10.6c0.2,0.3,0.5,0.5,0.9,0.9C350.3,130,350.1,119.2,350,108.4z M293.6,273.2
	c0.1-3.9,0.3-7.8,0.4-11.7c0.4-10.6,1.9-21,4.5-31.2c2.8-10.6,5.7-21.1,8.2-31.7c1-4.2,1.4-8.6,2.1-13c0.4-2.4-0.9-3.9-2.8-5.2
	c-0.4,1.7-0.7,3.2-1.1,4.8c-1.1,4.6-2.3,9.1-3.4,13.7c-1.1,4.1-1.4,8.5-3.9,12.2c-0.2,0.3-0.2,0.8-0.3,1.2
	c-1.7,8.7-3.6,17.3-6.9,25.6c-1.4,3.5-2.4,7.1-2.9,10.8c-0.7,5.7-1.5,11.4-2.3,17.1c-0.2,1.5-0.5,2.9-0.9,4.8
	C288.5,268.5,291.3,269.7,293.6,273.2z M327.8,691.4c0.6-2.2,1.1-4.3,1.6-6.4c0.7-2.9,0.9-5.8,0.7-8.8c-0.4-5.2-1.7-10.2-3-15.2
	c-2.1-8.7-3.9-17.4-5.9-26.1c-2.1-9-4.7-17.9-5.8-27.1c0-0.2-0.2-0.3-0.5-0.6c-0.1,0.5-0.2,0.8-0.2,1.1c0,5.3-0.2,10.7,0,16
	c0.5,9.5,1.3,18.9,1.9,28.4c0.3,5.1,0.6,10.2,2.4,15.1c2.8,7.8,5.7,15.6,8.5,23.4C327.5,691.1,327.6,691.2,327.8,691.4z
	 M383.5,367.7c0.4,1.8,0.9,3.7,1.3,5.5c0.2,0.9,0.6,2.1,0.3,2.8c-1,1.8,0,3,0.8,4.3c3.4,5.6,6.2,11.5,7.9,17.9
	c0.7,2.8,1.5,5.5,2.3,8.3c0.3,1.1,0.8,2.2,1.2,3.3c1.2-2.9,3.4-4.1,6.1-4.8c0.2-0.1,0.4-0.2,0.7-0.2c1-0.3,1.6-0.9,1.7-2
	c0.6-4.6,2.3-8.9,4-13.2c0.3-0.8,0.6-1.6,1-2.7c-4.6-1.1-7.2-4.4-10-7.6c-1.9-2.3-4.3-4-6.9-5.5
	C390.4,371.8,387.1,369.8,383.5,367.7z M329.3,773.9c-0.4-1.5-0.8-2.9-1.1-4.4c-0.8-4-1.2-8.1,0.8-11.9c0.2-0.5,0.3-1.1,0.3-1.6
	c0.1-1.7,0.1-3.5,0.1-5.2c0-0.5-0.1-1-0.2-1.8c-2.4,3.2-5.6,4.6-9,6c0.1,0.8,0.3,1.5,0.3,2.2c0.5,7-1.4,13.1-7.3,17.4
	c-3.1,2.3-6.5,2.8-10.1,0.7c-0.2-0.1-0.4-0.1-1-0.2c0.5,1.1,0.8,1.9,1.2,2.8c0.9,2.3,1.7,4.6,2.7,6.9c1.4,3.1,3.2,3.8,6.3,2.6
	c0.9-0.3,1.8-0.7,2.6-1.2C320.4,782.8,325.6,779.1,329.3,773.9z M347,780c0.9-0.1,2.1-0.3,3.2-0.6c8.7-2.2,9.6-11.3,5.1-16.8
	c-0.4-0.5-1.1-1.3-1.6-1.3c-2.2,0-4.3-0.9-6.6-0.2c-2.9,0.9-5.8,1.9-8.9,1.7c-0.4,0-1.1,0.6-1.4,1.1c-0.8,1.6-1.5,3.2-2.1,4.8
	c-1,2.6-0.2,4.9,1.7,6.8C339.2,778.3,342.7,779.8,347,780z M282.9,277c-0.8,1.8-1.3,3.5-2.2,5c-3.2,6-4,12.1-2.3,18.7
	c1.7,6.9,1.3,6,7.8,6.3c0.1,0,0.3-0.2,0.3-0.2c-0.2-1.5-0.6-3-0.6-4.5c0-6.8,1.1-13.3,5.5-18.9c1.5-1.8,1.8-3.1,1.7-5.3
	C290.1,281.2,287,281.3,282.9,277z M310,754.3c-0.1,0.1-0.2,0.3-0.3,0.4c0.3,0.2,0.7,0.3,1,0.5c3.4,3.1,1.5,8.5-1.6,10.2
	c-2,1-4,0.6-5.2-1.3c-1.4-2-1.2-5,0.4-6.9c0.9-1.1,1.9-2.2,2.8-3.3c-1.4-0.4-2.6-0.8-4-1.3c-0.6,0.8-1.3,1.5-1.8,2.4
	c-3.1,5.5-1.8,12.4,1.4,16.7c2.1,2.8,5,3.4,8.1,1.9c2.3-1.1,4-2.8,5.3-5c2-3.3,2.8-6.9,2.5-10.8c-0.1-0.8-0.3-1.5-0.3-2
	C315.3,755.3,312.6,754.8,310,754.3z M312.5,371.1c0.5-1,0.9-1.7,1.2-2.4c2.1-4.8,4.2-9.7,6.2-14.5c0.6-1.3,1.2-2.6,1.6-4
	c0.7-2.1-0.5-3.4-2.7-3c-3.4,0.7-6.7,1.4-10,2.2c-0.5,0.1-1,0.3-1.6,0.6C308.9,357,310.6,363.8,312.5,371.1z M234.1,334.1
	c1-5.2,0.5-9.9-0.2-14.9c-3.8,1.1-7.5-0.3-11.1-0.3c0.6,4.1,1.2,8,1.7,12c0.2,1.3,0.7,2.1,2,2.2C229,333.5,231.5,333.8,234.1,334.1z
	 M353.2,377.6c-1.5-4.6-3-9.3-4.5-14.2c-0.5-0.1-1.1-0.2-2.1-0.5c-1.7,3.7-3.4,7.4-5,11.1c-0.2,0.4-0.1,1,0.1,1.3
	c1.1,1.7,2.3,3.4,3.5,5.1c0.9,1.2,1.4,1.3,2.6,0.6C349.6,379.9,351.4,378.7,353.2,377.6z M267.2,240.4c5.9-8.2,12.1-15.5,18.6-22.7
	c-1.4-0.9-2.6-1.6-3.8-2.4c-2.1,2.1-4,4.1-6,6.1c-4,3.9-6.7,8.6-8.7,13.9C266.8,236.8,266.9,238.4,267.2,240.4z M302.3,184.1
	c-0.8,0.7-1.7,1.3-2.5,2c-2.9,2.4-5.8,4.8-8.7,7.1c-1.7,1.4-3.4,2.6-5.1,4c-3.2,2.5-5.3,5.7-6.5,9.5c-0.9,2.7-0.7,3.2,2,4.7
	c0.1-0.2,0.2-0.4,0.3-0.6c0.3-5,3.3-8.2,7.4-10.7c2.4-1.5,4.7-3.3,6.8-5.2C299,191.9,301.2,188.3,302.3,184.1z M283.6,212.3
	c0,0.3-0.1,0.6,0,0.9c0.8,1.7,3.4,2.8,5.3,2.3c5.2-1.3,8-5,9.4-9.9c0.7-2.2,1-4.5,1.6-6.8c0.7-2.9,1.5-5.8,2.2-8.8
	c-2.1,2.4-4.1,4.6-5.9,6.9c-0.4,0.5-0.5,1.3-0.6,2c-0.3,1.7-0.4,3.5-0.9,5.2C293.3,209.4,289.1,212.5,283.6,212.3z M292.8,307.1
	c0.9-6.8,1.1-22,0.4-24.2c-5.1,7.3-7.3,18.5-4.6,23.7C289.9,306.8,291.3,307,292.8,307.1z M228.2,358.2c0.2,0,0.4,0.1,0.6,0.1
	c1.3-7.5,4.1-14.6,5.2-22.3c-2.6-0.3-5-0.5-7.5-0.8C227.1,343.1,227.6,350.7,228.2,358.2z M293.4,199.3c-4.6,2.9-9.6,4.9-9.9,11.1
	C288.1,212,293.1,206.5,293.4,199.3z M291.8,275.4c0-2.2-1.3-4.2-2.8-4.5c-1.6-0.3-3.5,0.7-4.1,2.2c-0.6,1.3-0.2,3,1.2,4
	c0.6,0.5,1.4,0.8,2.1,1.1C290.3,279,291.8,277.8,291.8,275.4z M304.3,760.4c0.1,0.3,0.1,1.1,0.4,1.8c0.6,1.5,2.2,2,3.3,1.2
	c1.4-1,2.3-3.6,1.6-5.1c-0.2-0.5-0.7-1.1-1.2-1.3C306,756.2,304.5,757.4,304.3,760.4z M336.9,82.6c3.3-3.7,2.9-6.9-0.6-8.9
	C336.5,76.6,336.7,79.4,336.9,82.6z M298.9,755.3c1.1-1.4,2-2.5,2.9-3.6c-0.9-1-1.8-2-2.9-3.2C298.9,751,298.9,753,298.9,755.3z"/>
<path class="st0" d="M305.3,446.9c6.5-1.1,10-5.4,12.5-10.8c0.6-1.3,1.4-2,2.7-2.3c5.9-1.2,11.7-2.5,17.5-3.8
	c0.7-0.1,1.4-0.1,2.3-0.2c0.1,0.8,0.3,1.6,0.4,2.4c0.2,2.2,0.8,2.8,3,2.8c1.5,0,3-0.2,4.5-0.5c4.4-0.9,8.9-1.1,13.3-0.4
	c1.9,0.3,1.8,0.2,2.9-1.8c0.2-0.4,0.8-0.6,1.6-1.2c-0.3,1.1-0.3,1.7-0.5,2.3c-4.2,10.7-7.3,21.8-10.2,32.9
	c-1.4,5.5-3.1,10.9-4.3,16.4c-1.9,9.1-3.6,18.3-5.3,27.5c-0.9,4.9-1.9,9.7-2.7,14.6c-0.7,4.7-0.8,9.4,0.7,13.9
	c0.8,2.3,2.1,4.5,2.9,6.8c2.1,5.9,3.4,12,4.4,18.1c1.2,7.6,2.5,15.1,3.7,22.7c1.2,7.7,1,15.4,0.2,23.2c-1,10.2-2.3,20.3-3.4,30.4
	c-1.6,15.3-1.3,30.4,2.6,45.4c0.6,2.3,0.9,4.7,1.5,7c0.3,1.2,0.9,2.4,1.2,3.6c0.3,1.3,0.7,2.6,0.7,4c0.3,5.1,0.4,10.2,0.6,15.3
	c0.2,5.8,2,11.3,3.5,16.8c0.7,2.7,1.4,5.4,1.9,8.1c1.2,6.7-0.9,12.4-5.7,17.2c-1.9,1.9-3.9,2.9-6.7,1.7c-1-0.4-2.4-0.3-3.5-0.1
	c-1.8,0.3-3.6,0.8-5.3,1.3c-2.5,0.7-5,0.9-7.5,0.1c-3.5-1.1-4.6-2.7-4.3-6.5c0.2-2,0.4-4,0.6-6c0.5-6.7-0.1-13.4-1.5-20
	c-1-5.1-1.5-10.3-1.3-15.5c0.3-5.8,0.5-11.6,0.9-17.4c0.1-2.2,0.5-4.5,1.2-6.6c2.2-6.6,1.9-13.2,0.4-19.8
	c-1.3-5.8-2.8-11.6-4.2-17.5c-2.3-9.9-4.6-19.7-6.9-29.6c-2.1-9.4-3.4-19-4.5-28.6c-0.9-8.8-1.8-17.6-4.2-26.2
	c-1.1-3.8-2.2-7.7-3.4-11.5c-2-6.8-4-13.6-6-20.4c-0.4-1.3-0.6-2.7-0.6-4c-0.7-12-0.8-24.1,1-36.1c1-6.9,1.7-13.9,2.5-20.9
	c0.9-8.2,0.6-16.4,0.5-24.6C305.3,448.5,305.3,447.7,305.3,446.9z"/>
<path class="st0" d="M248.1,439.5c1.4-0.5,2.6-0.8,4.1,0c0.9,0.5,2.3,0.4,3.4,0.3c2-0.2,3.9-0.6,5.9-0.8c3-0.3,5.9,0,8.8,0.9
	c1,0.3,1.8,0.6,2.3,1.5c0.9,1.4,2.1,1.8,3.7,1.5c1.2-0.2,2.4-0.4,3.5-0.5c2.7-0.4,5.4-0.3,8.2,0.3c0.5,1.3,1,2.6,1.5,3.9
	c0.1,0.1,0.1,0.3,0.2,0.4c2,3.3,3.8,3.4,6.1,0.2c0.1-0.2,0.3-0.4,0.6-0.7c1.9,0.7,3.8,1.2,5.4-0.9c0.8,0.4,1.5,0.7,2.1,1
	c0,2.1,0,4.1,0,6.1c0,13.9-1.5,27.7-3.5,41.5c-1.8,12-1.6,24-0.9,36.1c0.3,4.4,1.3,8.7,3.3,12.7c1.7,3.4,2.6,7,3.5,10.6
	c1.5,6.3,3.3,12.5,4.7,18.8c1.8,8,2.7,16.2,3,24.4c0.1,2.6-0.3,5.3-0.5,7.9c-0.9,9.4-0.8,18.8,0,28.2c0.5,5.9,1.1,11.8,1.1,17.7
	c0,9.3,2.2,18,5.5,26.6c2.5,6.3,4.8,12.7,7.1,19.1c0.2,0.5,0.2,1.1,0.2,1.6c-0.2,5-0.4,10-0.6,15.1c-0.2,4.6,0.3,9.1,1.1,13.6
	c0.7,3.8,1.2,7.6,1.8,11.4c0.1,0.8,0,1.7-0.2,2.6c-0.2,1.3-0.7,2.6-0.9,3.9c-0.9,4.9-5,8.3-10.1,8.4c-0.2,0-0.6-0.1-0.7,0
	c-1.2,1.2-2.5,0.5-3.8,0.3c-2.1-0.4-4.2-0.8-6.3-1.2c-2.4-0.4-4.9-1.4-7.1-3.1c0.2-7.2,0.3-14.5,0.6-21.8
	c0.5-11.7-0.2-23.3-2.4-34.8c-1-5.2-1.3-10.6-2.3-15.9c-0.7-4.1-1.6-8.2-3.1-12c-4.5-11.1-7.6-22.7-10.6-34.3
	c-4-15.6-7.1-31.4-9.7-47.3c-1.8-11.2-2.5-22.5-3.4-33.8c-0.4-5.6-1.5-11.2-2.5-16.8c-1-6-2.3-11.9-3.3-17.9
	c-0.9-5.4-2.2-10.8-3.9-16c-3.5-10.5-5.9-21.2-7.6-32.1c-1.3-8.4-2.7-16.7-4.1-25C248.1,440.6,248.1,440.1,248.1,439.5z"/>
<path class="st0" d="M382.5,298.3c-1.2-1.9-2.1-3.4-3-5c-0.2,0.1-0.3,0.1-0.5,0.2c0.4,1.1,0.6,2.3,1.1,3.4c1,2.5,2.2,5,3.2,7.5
	c1.2,3.1,0.6,5.9-1.3,8.6c-2.1,3-4.9,5.3-7.7,7.5c-3.4,2.6-6.4,5.5-8.6,9.5c-3.5-5-8.4-8-13.8-10.1c-5.3-2.1-10.6-4-16.4-3.9
	c0,0.2-0.1,0.4-0.1,0.5c2.6,0.7,5.3,1.4,7.9,2.1c4.7,1.3,9.1,3.3,13.4,5.7c3.7,2.1,6.6,5,8.3,9.1c-1.1,1.8-2.4,3.5-3.4,5.4
	c-2.6,4.9-5,9.8-7.6,14.7c-0.9,1.7-1.8,3.4-2.8,5c-0.6,0.9-1.4,1.7-2,2.5c-0.5-1-0.7-2.1-1.4-2.7c-5.2-4.9-10.7-9.4-17.8-11.2
	c-2.7-0.7-5.3-1.1-7.9,0.4c-0.9-1.5-1-2.8-0.3-4.2c2.1-4.6,4.1-9.2,6.3-13.7c1.8-3.9,3.8-7.7,5.8-11.6c0.8-1.6,1.1-3.3,0.8-5.1
	c-0.5-2.3,0.3-4.1,2-5.5c2.1-1.7,4-3.4,5.2-5.9c0.2-0.4,0.8-0.8,1.3-1c6.2-2.6,12-1.9,17.4,2c1.1,0.8,2.1,1.8,3.2,2.6
	c-1.2-3.3-3.8-5.1-7-6.2c-4.5-1.4-8.9-1.4-13.4,0.2c-2.2,0.8-2.4,0.7-3.8-1.1c-2.1-2.6-3.9-5.3-3.2-8.9c0.8-3.9,2.9-7.1,6.1-9.4
	c1.1-0.8,2.2-0.8,3.4-0.3c7.1,3.2,14.7,3.6,22.2,4c4,0.2,7.9,0.7,11.8,1.9c0.4,0.1,0.9,0.2,1.4,0.2c-2.5-2.6-5.6-3.6-9.1-3.9
	c-4.9-0.3-9.7-0.5-14.6-0.9c-2.8-0.3-5.7-0.9-8.5-1.5c-3.1-0.7-6.1-1.4-9.3,0.4c0.2-0.6,0.4-1.2,0.7-1.8c1.3-2.5,2.6-4.9,4-7.4
	c4-7.2,6.8-14.8,8.3-22.9c0.4-2,1.1-3.8,2.2-5.5c1.4-2.2,2.5-4.6,4.1-6.8c2.1-2.9,4.4-5.6,6.7-8.4c0.8-1,1.7-1.8,2.4-2.9
	c-5.6,4.3-10.2,9.6-13.9,15.8c0.2-1.3,0.3-2.6,0.5-3.9c0.9-6.4,1.8-12.8,3.6-19c2.2-7.7,5.5-14.8,10.2-21.2c0.2-0.3,0.4-0.6,0.2-1.2
	c-0.6,0.6-1.2,1.2-1.7,1.8c-5.9,7.1-9.4,15.4-11.2,24.3c-1.4,6.7-2.3,13.5-3.4,20.3c-1.6,10.3-4.3,20.1-9.5,29.2
	c-3,5.2-5.2,10.7-7.3,16.3c-1.4,3.8-1.3,7.4,1.3,10.7c1.1,1.4,2.2,2.7,3.4,4.3c-0.5,1.2-1.6,2.1-2.7,2.9c-2.1,1.6-4.1,3.3-5.2,6
	c-0.1-2.2-0.4-4.5-0.4-6.7c0-11.1,0.1-22.2,0.3-33.3c0-1.5,0.4-3,0.8-4.5c1.8-7,3.6-14,5.5-21.1c1.3-5,2.7-10,4-15
	c0.2-0.9,0.5-1.8,0.5-2.8c-3.9,10.7-7,21.6-10.2,32.6c0-1-0.1-2-0.2-3.6c-0.4,0.9-0.6,1.3-0.7,1.8c-2,13.7-2.4,27.5-1.7,41.3
	c0.2,4.5,0.6,9.1,1,13.6c0.1,1.2,0.5,2.3,1,3.4c0.4,0.8,0.5,1.5,0.1,2.2c-1.3,2.8-2.7,5.6-4.2,8.8c-0.7-1-1.2-1.6-1.5-2.2
	c-4-7.4-7.3-15.1-8-23.6c-0.2-2.3-0.3-4.6-0.2-6.9c0.5-10.2,1.1-20.4,1.8-30.6c0.3-5.4,1.6-10.5,3.6-15.6c4.7-11.8,9-23.7,13.7-35.5
	c2.4-6.1,5.3-11.9,8.1-17.9c2.1-4.4,5.1-8.2,8.5-11.8c2.8-3,5.6-6.1,8.7-9.3c3.2,1.2,6.9,2.1,10.1,3.9c5.5,3.2,10,7.5,11.6,14.2
	c2.7,11.9,3.9,23.9,3.2,36.1c-0.7,12.7-1.3,25.3-1.6,38c-0.1,5,0.7,10,1,15c0.1,1.2,0.2,2.4,0.3,3.6c0.3,3.1-0.2,6-1.7,8.8
	C384.4,294.9,383.6,296.5,382.5,298.3z"/>
<path class="st0" d="M232.8,255.6c-0.8-1.1-1.5-2.3-2.6-3.8c0,2.4,0.6,4.2,1.9,5.5c1,1,1.1,2,1,3.2c-0.2,3.8-0.4,7.6-0.6,11.5
	c-0.7,13.7-0.3,27.4,0.9,41.1c0.1,1.3,0.2,2.5,0.3,3.8c0,0.2-0.1,0.4-0.2,0.9c-3.4-0.4-6.8-0.7-10.1-1.2c-1.7-0.3-2.2-1-2.3-2.8
	c-0.1-1.4,0-2.7-0.2-4.1c-0.2-1.2-0.4-2.6-1.2-3.6c-2.7-3.6-2.4-7.4-1.5-11.6c2.3,0.9,4.1,3.1,7.3,2.2c-1-0.8-1.6-1.4-2.4-1.9
	c-0.8-0.5-1.7-0.9-2.5-1.4c-1.1-0.7-1.8-1.8-1.9-3.2c-0.2-4.2,0.1-8.4,1.6-12.8c1.4,1.9,2.5,3.4,3.7,5c0-2.2-0.6-4.2-1.9-5.8
	c-4-5-3.7-10.5-2.2-16.1c0.3-1,0.6-2.1,1-3.3c1.5,1.4,2.7,2.5,3.9,3.6c0.1-0.1,0.3-0.2,0.4-0.3c-0.7-1.2-1.3-2.4-2.1-3.5
	c-3-4.5-2.1-9,0.3-13.3c0.2-0.4,0.9-0.5,1.3-0.7c-0.3-5.1-0.6-10.3-0.8-15.5c-0.7-13.5,2.8-26.1,8.8-38c2-4,4.6-7.8,7-11.7
	c0.9-1.4,2.2-2.2,3.7-2.8c3.1-1.2,6.1-2.8,9.1-4.2c3.7-1.8,7.6-3.3,11.6-4.3c0,0.3,0.1,0.5,0.1,0.6c-3.9,4.8-5.9,10.4-7.1,16.3
	c-1.7,8.2-2.1,16.5-2.3,24.8c0,1.8-0.3,3.4-1,5.1c-1.7,4.4-3.4,8.8-5,13.2c-0.2,0.6-0.4,1.3-0.2,2.1c2-4.7,4-9.4,6.1-14.2
	c0.1,0,0.2,0,0.4,0.1c0.3,2.3,0.6,4.5,0.8,6.8c0.7,6.5,1.5,13,1.1,19.6c-0.3,5.8,0.1,11.6,0.8,17.4c0.7,6.2,0.2,12.4-1,18.6
	c-1.9,9.5-3.6,19.1-5.3,28.7c-2,11.7-3,23.6-3.6,35.5c-0.5,9.2-2.4,18.2-5.4,26.9c-1.5,4.1-3.4,8-5.2,12c-1.2,0.3-2.4,0.4-3.4,1
	c-1,0.5-1.8,1.5-2.7,2.2c-1.3-0.6-1.4-1.7-1.4-2.7c-0.1-5.3-0.1-10.5-0.2-15.8c-0.1-3.7,0.3-7.3,1.2-10.9c1.3-5.2,2.6-10.4,4.1-15.5
	c1.3-4.5,3.1-8.9,4.5-13.4c3.8-12.3,8.1-24.6,10.5-37.3c1.3-6.9,2.6-13.8,3.9-20.7c0.1-0.8,0.1-1.6,0-2.4
	c-4.8,21.5-10,42.9-17.4,63.8c-0.1-0.5-0.3-0.9-0.4-1.4c-1.1-14.3-2.5-28.6-2.2-43c0.1-6.2,0.5-12.4,0.7-18.7
	c0.3-8.2,0.5-16.4,0.8-24.6c0.4-9.9,0.7-19.8,2.3-29.6c0.4-2.3,0.7-4.6,1.1-6.8c-0.2,0-0.3-0.1-0.5-0.1c-0.6,3-1.2,6-1.8,8.9
	c-1.4,6.9-2.1,13.9-2.4,20.9c-0.3,6.4-0.5,12.8-0.8,19.1c0,0.9-0.1,1.7-0.2,2.6C233.1,255.5,233,255.6,232.8,255.6z"/>
<path class="st0" d="M354.8,168.1c-1.6-0.6-2.5-1.6-3.2-2.9c-1.4-2.5-3-4.9-4.6-7.3c-2.1-3.3-4.5-6.2-7.5-8.7
	c-3.4-2.8-6.8-5.6-10.4-8.1c-3.7-2.6-6.7-5.6-8.9-9.5c-1.3-2.2-2-4.5-1.9-7.1c0-0.9,0.2-1.8,0.1-2.6c-0.2-2.6,0-4.9,2.6-6.4
	c4.4-5.6,5.2-11.7,2.5-18.2c-1.3-3.2-4.4-4.2-7.3-2.3c-1.9,1.3-3.5,3.2-5.1,4.9c-0.9,0.9-1.4,2.1-2.2,3.2c-0.6,0.7-1.2,1.4-2.1,2.3
	c-0.6-1.1-1-1.8-1.3-2.6c-1.6-3.6-3.7-6.7-6.4-9.5c-1.6-1.8-3.4-3.4-6.2-4c0.7-1.5,1.3-2.9,1.9-4.3c-0.1-0.1-0.3-0.2-0.4-0.2
	c-1.4,1.9-2.7,3.8-4.1,5.7c-1.4-2.1-8.4-28.1-9.6-35.8c0.3-0.2,0.6-0.6,1-0.8c5.3-2.5,10.8-4.4,16.5-5.5c2.9-0.5,5.9-0.3,8.8,0.1
	c5.2,0.8,10.2,2.3,15,4.8c6.3,3.4,10.2,8.5,11.8,15.5c1.2,5.4,1.5,10.9,1.5,16.4c0,5.5-0.2,11-0.1,16.5c0.1,4.5,0.4,8.9,0.9,13.4
	c0.8,7.2,3.5,13.7,7.5,19.7c6.7,10.3,14,20.2,21.7,29.8c1.9,2.4,3.7,5,5.5,7.5c0.5,0.7,0.8,1.5,1.5,2.6c-1.2-0.3-1.9-0.5-2.6-0.7
	c-1.5-0.4-2.9-1-4.4-1.2c-2.3-0.4-4.1-1.3-5.1-3.5c-0.1-0.1-0.2-0.3-0.3-0.4C358.1,166.9,357.4,166.7,354.8,168.1z"/>
<path class="st0" d="M228.6,430.5c-1.1-1-2-1.8-3-2.6c-1.5-1.2-1.9-2.5-1.5-4.4c1-4.3,1.9-8.7,2.8-13.1c1.6-7.8,3.2-15.6,4.7-23.5
	c0.2-1.3,0.6-2.3,1.9-2.8c0.1-0.1,0.3-0.2,0.4-0.3c1.3-1.6,2.7-1.7,4.5-0.6c2,1.2,4.2,1.2,6.4,0.1c1.1-0.6,1.7-1.3,1.9-2.5
	c0.5-3.1,1-6.3,1.7-9.4c0.7-3.2,1.4-6.4,2.3-9.5c0.5-2,1.3-3.9,2.1-5.8c1.3-3,2.7-5.9,4.1-9c8.1,4.5,17,4.4,26.1,5.2
	c-0.7,3-1.3,5.8-1.9,8.5c-1.8,7.2-2.8,14.6-3.7,21.9c-2.1,17.9-2.1,35.8-2.8,53.8c0,0.9-0.1,1.9-0.2,3.2c-3.3-1.5-6.3-2.8-9.8-2.5
	c-3.2,0.3-6.5,0.6-9.8,1c-1.6-0.9-1.9-2.5-1.9-4.4c0.2-5.5,1.4-10.8,2.6-16c2.3-10.1,3.5-20.3,4.5-30.5c0.5-5.6,1-11.1,1.5-16.7
	c0.1-0.8,0-1.6-0.2-2.4c-0.2,0.7-0.4,1.3-0.5,2c-1,7.4-2,14.9-2.9,22.3c-1,8.5-2.4,16.9-4.4,25.2c-1.5,6.2-2.8,12.5-2.2,18.9
	c-7.6,2.4-14.2-0.6-21.3-2.8c0.2-1.4,0.3-2.6,0.7-3.8c1.5-4.5,3-9.1,4.7-13.5c3.6-9.2,7.3-18.4,11.1-27.5c2.5-6.1,5.1-12.2,7.9-18.2
	c2.5-5.6,5.3-11.1,7.9-16.7c0.3-0.7,0.6-1.5,0.5-2.4c-0.4,0.6-0.8,1.2-1.1,1.8c-8.6,15.6-15.7,31.9-22,48.6
	c-2,5.3-4.4,10.4-6.5,15.7c-1.4,3.6-2.6,7.4-3.8,11.1C229.1,429.2,228.9,429.7,228.6,430.5z"/>
<path class="st0" d="M312.7,430.7c-0.6,2-1.2,4-1.9,6c-0.6,1.9-1.1,3.8-1.9,5.6c-1.2,2.5-1.7,2.7-4.4,2.2c-0.2,0-0.5,0-0.9-0.1
	c0.6-4.2,1.2-8.3,1.8-12.4c-0.2,0-0.4-0.1-0.6-0.1c-0.6,2-1.2,4.1-1.7,6.1c-0.3,1.2-0.5,2.4-0.6,3.5c-0.2,1.7-1.3,2.7-2.5,3.6
	c-0.5,0.4-1.6,0.5-2.2,0.3c-0.4-0.1-0.7-1.2-0.6-1.8c0.2-3,0.5-6,0.8-9.1c0.2-2.5,0.4-5,0.7-7.5c-0.2,0-0.3-0.1-0.5-0.1
	c-0.2,0.5-0.4,0.9-0.5,1.4c-0.9,5-1.9,10-1.8,15.2c0.1,2.3-1.4,3.4-3.3,4.4c-2-1.7-3-3.9-3-6.3c-0.1-2.1,0.1-4.3,0.4-6.4
	c0.8-4.5,1.2-9,1.2-13.6c0-9.8,4.1-17.9,10.5-25c2-2.3,3.9-4.7,5.1-7.5c4.1-9.3,8.3-18.7,12.3-28c1.6-3.8,2.8-7.8,4.2-11.7
	c0.5-1.4,1-1.9,2.7-1.5c2.3,0.5,4.5,1.1,6.7,1.9c5.3,2,9.5,5.7,13.7,9.5c0.2,0.1,0.2,0.4,0.4,0.7c-4.1,5.6-6.3,12.3-9.7,18.3
	c-2.4,4.3-5,8.5-7.6,12.7c-1.2,1.9-1.9,3.8-2,6c-0.5,8.4-2.8,16.3-6.3,23.9c-0.7,1.6-1.2,3.3-1.7,4.9c-0.7,2.5-1.3,5.1-2.1,7.6
	c-1.2,3.8-3.5,6.9-7.1,9.7c1-4.5,2-8.5,2.9-12.6C313,430.8,312.8,430.8,312.7,430.7z"/>
<path class="st0" d="M289.4,144.7c0.5-1.6,1-3.1,1.5-4.7c2.1-6.4,3.7-12.9,4.5-19.5c0.8-7.7,0-15.3-3-22.5c-0.5-1.2-0.9-2.4-1.3-3.6
	c-0.6-1.8-0.3-2.8,1-3.7c1.4-0.9,2.3,0.2,3.1,1c3.8,3.5,6.9,7.5,8.9,12.3c0.6,1.4,1.3,2.8,3.1,3.1c1.6-0.9,2.6-2.4,3.6-3.9
	c1.6-2.2,3.2-4.4,5-6.4c2.6-2.8,5.7-2.1,7,1.5c1.9,5.1,1.4,10.1-1.3,14.7c-1.2,2.1-3.1,3.6-5.5,4.4c-0.5,0.2-1,0.4-1.4,1.1
	c0.8,0.1,1.5,0.3,2.4,0.4c0,2.4,0,4.9,0,7.4c0,2,0.5,3.8,1.4,5.5c2.3,4.1,5.2,7.6,9.1,10.3c2.7,1.8,5.2,3.9,7.8,5.9
	c1.6,1.2,1.7,1.4,0.7,3.2c-0.9,1.5-1.9,3-3.2,4.1c-3,2.7-5.9,5.4-9.2,7.6c-6,4.2-11.8,8.5-16.9,13.7c-0.2,0.2-0.5,0.4-0.7,0.5
	c-1.9-0.5-3.3-1.7-4.4-3.2c-5-6.6-8.8-13.7-9.9-22c-0.2-1.8-0.2-3.7-0.1-5.5c0-0.6,0.6-1.2,1.1-1.7c0.9-0.8,2.1-1.3,2.4-2.9
	c-1.8,1.1-3.5,2.2-5.3,3.2C289.7,144.9,289.6,144.8,289.4,144.7z"/>
<path class="st0" d="M257.1,345.6c2-6.1,3.1-12.2,3.9-18.3c0.8-6,1.6-12,2.4-17.6c3.2-0.4,6.1-0.7,9-1.2c1.4-0.3,2.7-1,3.9-1.7
	c0.9-0.5,1.4-0.6,2.3,0c1.1,0.7,2.4,1.3,3.6,1.6c1.6,0.4,3.4,1,4.9,0.7c3-0.7,6.2,0.2,9.2-1.1c0.8-0.4,1.9-0.3,2.8-0.1
	c3.3,0.7,6.6,1.2,10,0.4c0.4,2.8,0.8,5.5,1.3,8.2c1.3,6.5,3.3,12.8,6.3,18.8c1.1,2.3,2.2,4.6,3.2,6.9c0.8,1.9,0.2,3.2-1.8,3.7
	c-7.6,1.8-15.2,3.4-23.1,4c-2.5,0.2-5,0.3-7.4,0.1c-6.5-0.4-13-0.9-19.6-1.5C264.5,348,260.9,346.9,257.1,345.6z"/>
<path class="st0" d="M283.7,352.2c7.3,0,14.5-0.2,21.9-2c-1.2,11.8-1.5,23.3-1.1,34.9c2-9.9,1.5-19.9,2.4-29.9
	c0.4,1.5,0.8,3.1,1.1,4.6c0.8,4.1,1.6,8.1,3.3,12c0.4,1,0.3,1.8-0.1,2.8c-1.7,4.1-3.3,8.1-4.9,12.2c-1.3,3.4-3.3,6.3-5.5,9.2
	c-5.9,7.6-9.9,15.9-10.4,25.7c-0.2,4.2-0.9,8.4-1.4,12.6c-0.2,2-0.5,3.9-0.8,6.1c-4.3-0.6-8.4-0.4-12.8,0.6c0-0.6-0.1-1-0.1-1.5
	c0.3-3.6,0.7-7.1,0.9-10.7c0.7-13.1,1.3-26.3,2.2-39.4c0.6-8.8,1.7-17.5,3.4-26.1c0.3-1.6,0.6-3.3,0.8-4.9c0.2,0,0.3,0,0.5,0
	c0.7,7.6,1.3,15.1,2,22.7c0.7,7.5,1.6,14.9,2.7,22.4C288.7,386.2,285.8,369.4,283.7,352.2z"/>
<path class="st0" d="M244.5,381.9c-2,0-3.9,0.4-5.7-0.9c1.1-3,2-6.1,3.2-8.9c3.3-7.4,5.2-15.2,6.4-23.2c0.8-5.8,1.2-11.6,1.6-17.4
	c1.1-15.5,3.5-30.7,6.7-45.9c1-4.6,1.8-9.2,2.5-13.9c0.3-2.5,0.3-5.1,0.1-7.6c-0.3-4.1-0.8-8.1-1.1-12.2c-0.2-3.1-0.3-6.2-0.2-9.3
	c0.3-8-0.3-15.9-1.2-23.9c-1.1-8.9-0.8-17.8,0.5-26.7c0.4-2.4,0.7-4.9,1.1-7.3c0.8-5.2,2.7-10,5.2-14.6c2.1-3.9,3.8-5,8.7-5.7
	c-5.2,8.5-6,18-6.3,27.6c-0.4,11.9-0.4,23.8-0.5,35.7c-0.1,6.5-0.1,12.9,0.1,19.4c0.1,3.2,0.7,6.5,1.3,9.7
	c1.3,6.1,0.7,12.2-0.1,18.3c-1.9,12.9-3.5,25.8-5.2,38.7c-1.2,9.3-2.2,18.7-4.5,27.9c-0.8,3.3-1.9,6.6-3.3,9.7
	c-2.5,5.4-4.4,10.9-5.7,16.7c-0.8,3.4-1.6,6.8-2.4,10.2C245.3,379.3,244.9,380.6,244.5,381.9z M254.6,334c0.3,0,0.5,0.1,0.8,0.1
	c0.3-0.6,0.9-1.2,0.9-1.9c0-0.7-0.3-1.5-0.6-2.2c-0.1-0.2-0.7-0.5-1-0.4c-0.4,0.2-0.8,0.7-0.8,1C254.1,331.7,254.4,332.8,254.6,334z
	 M263.1,259.5c0,1.3-0.1,2.2-0.1,3.1c0,0.7,0.4,1.3,1.2,1.1c0.5-0.1,1-0.8,1.1-1.3C265.3,261.2,264.7,260.3,263.1,259.5z"/>
<path class="st0" d="M279.2,56c0.5,2,1.2,3.8,1.5,5.8c0.7,5.1,2.3,9.9,3.7,14.8c1.8,6,3.5,12.1,5.3,18.1c0.4,1.4,0.9,2.7,1.4,4.1
	c3.1,7.1,3.9,14.5,3,22.2c-0.7,5.6-2.2,10.9-3.5,16.4c-0.2,0.8-0.6,1.6-1.2,2.4c0-0.5,0-1.1,0-1.6c0.8-8.9-0.6-17.7-2.4-26.4
	c-1.6-7.6-3-15.2-4.8-22.7c-1.2-4.9-2.9-9.6-4.3-14.4c-0.2,0-0.4,0.1-0.6,0.1c0.2,0.9,0.3,1.7,0.5,2.6c1.2,4.9,2.3,9.8,3.6,14.6
	c0.4,1.5,0,2.5-1.3,3.4c-3.3,2.4-7,3.8-11.1,3.7c-1.3,0-2.6,0-3.8-0.2c-3.2-0.5-6.3-0.8-9.4,0.4c-0.9,0.3-1.6,0-2-0.8
	c-0.5-0.8-1-1.6-1.3-2.5c-1-3-2-6-2.9-9.1c-0.6-2.2-0.4-4.5,0.7-6.5c0.9-1.7,2-3.3,3.1-4.8c5.8-7.6,13.2-13.4,21.3-18.2
	C276,56.5,277.4,55.7,279.2,56z"/>
<path class="st0" d="M321.4,340.3c-4.5-8.5-8.3-17-9.7-26.3c-0.9-5.6-1.2-11.3-1-16.9c0.3-9.7,0.7-19.5,1-29.2c0.1-2.5,0.1-5,0-7.4
	c-0.5-10.1,2-19.6,6.5-28.6c4.4-8.6,8.7-17.2,13.2-25.8c6-11.7,12.7-22.9,21.1-33c0.8-1,1.4-2.1,2.1-3.2c0.8-1.1,2.1-1.4,3-0.3
	c0.8,1,1.6,2.1,2,3.2c0.2,0.6-0.1,1.6-0.6,2.2c-1.5,2-3,4-4.7,5.8c-6,6.3-10.4,13.8-13.8,21.7c-2.6,6.2-5.1,12.4-7.6,18.6
	c-3.6,8.9-6.9,17.9-10.7,26.7c-2.7,6.4-3.9,12.9-4.3,19.8c-0.4,8.2-0.8,16.4-1.4,24.6c-0.7,10.3,1.4,20,6,29.2
	c1.1,2.1,2.3,4.2,3.5,6.3c0.4,0.8,0.6,1.4,0.2,2.2C324.7,333.1,323.1,336.6,321.4,340.3z"/>
<path class="st0" d="M351.7,167.3c0.8,0.7,1.4,1.2,2.1,1.8c-0.9,1.2-1.8,2.3-2.7,3.4c-7.4,8.3-13.2,17.6-18.3,27.4
	c-4.6,8.8-9,17.6-13.5,26.4c-1.4,2.7-2.6,5.5-3.9,8.2c-3.3,7.3-5,15-4.7,23c0.3,10.5-0.4,21.1-1,31.6c-0.3,4.9-0.3,9.7-0.5,14.6
	c0,0.8,0,1.6,0,2.4c-2.6,0.8-4.9,0.8-7.5,0.1c0-0.8-0.1-1.7-0.1-2.6c-0.3-9.2-0.8-18.3-1-27.5c-0.2-11.3,0.4-22.5,3.3-33.5
	c1.9-7.2,3.8-14.5,5.3-21.8c2.1-9.6,3.1-19.4,3.3-29.2c0-0.4,0-0.8,0.1-1.6c0.5,0.5,0.9,0.9,1.2,1.2c0.9,1.2,1.7,2.5,2.7,3.7
	c2.3,2.6,5.3,3.3,8.4,1.8c1.7-0.8,3.4-1.8,4.8-3c2.8-2.3,5.6-4.8,8.3-7.2c3.5-3.2,6.2-7.1,8.6-11.2
	C348.3,172.7,349.9,170.1,351.7,167.3z"/>
<path class="st0" d="M277.8,304.9c-4.8,1.2-9.2,2.9-14.1,3.3c0.1-1.1,0.1-2,0.2-2.9c1.7-11.8,3.3-23.5,5-35.3
	c0.7-4.6,0.2-9.1-0.4-13.6c-0.5-3.3-0.9-6.6-1.1-10c-0.1-1.1,0.1-2.5,0.6-3.5c1.3-2.5,2.6-4.9,4.3-7.1c4.4-5.6,8.9-11.1,13.4-16.6
	c0.4-0.5,1-1,1.6-1.3c2.7-1.2,5.5-2.1,7.7-4.2c0.2-0.2,0.4-0.2,1-0.6c-0.5,2.3-0.8,4.3-1.3,6.2c-1.6,6.2-3.4,12.3-5.9,18.2
	c-2.1,5.1-2.9,10.4-3.4,15.9c-0.6,7.1-1.7,14.1-3.7,20.9c-0.8,2.7-1.9,5.3-2.9,7.8c-1.2,2.9-2.2,5.8-2.6,8.9
	c-0.6,4.1,0.6,7.9,1.2,11.8C277.6,303.6,277.7,304.1,277.8,304.9z"/>
<path class="st0" d="M347.1,383.6C347,383.7,347.1,383.6,347.1,383.6c3.9-2.6,8-4.3,12.5-5.2c1.2-0.2,2.3-0.7,3.5-0.8
	c2.8-0.4,2.8-0.4,3.7,2.3c0.9,2.6,1.7,5.1,2.6,7.7c2,5.8,4.7,11.3,7.8,16.6c3.8,6.4,6.7,13.2,9.4,20.1c0.1,0.4,0.2,0.7,0.4,1.4
	c-0.9,0.1-1.6,0.2-2.4,0.2c-7.1,0-14,0.7-20.6,3.5c-0.1,0.1-0.3,0-0.7,0.1c-0.6-1.3-1.3-2.6-1.8-4c-2.1-5.9-4.2-11.9-6.2-17.8
	C352.6,399.8,349.9,391.8,347.1,383.6z"/>
<path class="st0" d="M258.6,100.6c1.8-0.9,3.6-0.3,5.3,0c4.2,0.7,8.3,0.6,12.3-0.9c2-0.8,3.9-2,6.1-3.1c0.4,1.5,0.9,3,1.2,4.5
	c1.4,7.1,2.8,14.2,4,21.4c1.2,7,1.1,14.1,0.4,21.2c-0.3,2.9-1,3.8-3.8,4.4c-3.2,0.7-6.3,0.6-9.4-0.8c-1.5-0.7-2.5-1.7-3.1-3.2
	c-0.6-1.6-1.1-3.2-1.6-4.8c-0.6-2.2-1.7-4.1-3.1-5.8c-1.4-1.7-2.6-3.6-3.7-5.5c-0.4-0.6-0.6-1.4-0.9-2.3c4.6,1,8.6,0.7,10.4-0.8
	c-2.2,0-4.5,0-6.7,0c-0.6,0-1.3,0.1-1.9,0c-1.5-0.2-2.3-1-2.3-2.5c0.1-1.7,0.4-3.5,0.7-5.2c0.2-1.4,0.5-2.8,0.4-4.3
	c-0.4,1.2-0.8,2.4-1.4,4c-0.3-3.1-0.5-5.8-1-8.4C260.1,105.8,259.3,103.3,258.6,100.6z"/>
<path class="st0" d="M379.2,352.2c-1.4-5.1-3.1-10-5.7-14.5c1.9,12.7,7,24.6,9.5,37.4c-1.7,0-3.2,0-4.8,0c-5,0.1-10,0.1-15.1,0.4
	c-1.6,0.1-3.1,0.8-4.6,1.2c-0.9,0.2-1.8,0.5-3,0.8c-2.1-5-4.1-9.8-6-14.5c0.1-0.3,0.1-0.4,0.1-0.4c3.5-4,5.7-8.8,8.1-13.5
	c2.5-4.8,5.2-9.5,7.7-14.3c0.4-0.8,0.7-1.7,1-2.6c1-2.9,2.5-5.2,5-6.9c1.2,3,2.2,5.8,3.5,8.5c1.1,2.2,2.3,4.4,3.8,6.3
	C381.9,343.9,381.6,348,379.2,352.2z"/>
<path class="st0" d="M306.9,179.2c0.9-1,1.4-1.7,2.1-2.4c3.6-3.9,7.8-7.1,12.2-10c3-2,5.9-4,8.8-6.2c3.6-2.7,6.9-5.7,8.2-10.4
	c5.7,4.3,8.7,10.5,12.3,16.5c-3.4,4.9-6.9,10-10.5,14.9c-0.9,1.2-2,2.2-3.2,3.2c-2.5,2.3-5.1,4.6-7.7,6.8c-1.3,1.1-2.7,2.1-4.1,2.9
	c-3,1.6-5.2,1.1-7.4-1.6c-0.9-1.2-1.8-2.5-2.6-3.7C312.9,185.5,310.8,181.9,306.9,179.2z"/>
<path class="st0" d="M304.9,178.2c-0.4,0.7-0.6,1.3-1,1.6c-1.1,1.1-2.1,2.2-3.3,3.1c-5.1,3.5-10.2,7-15.4,10.5
	c-0.8,0.5-1.7,0.9-2.6,1.2c-1.3,0.4-1.8,0.3-2-1.1c-0.7-3.3-1.4-6.6-1.7-9.9c-0.4-4.5-0.5-9.1-0.6-13.6c-0.1-3.6,0.9-6.8,3.1-9.8
	c2.8-3.7,5.5-7.4,7.1-11.8c0.1-0.4,0.4-0.7,0.6-1c0.1-0.2,0.4-0.2,0.8-0.4c0.1,0.7,0.2,1.3,0.2,1.8c0,5.8,1.3,11.2,4,16.3
	c1.4,2.7,2.9,5.3,4.6,7.8C300.2,175.1,301.8,177.2,304.9,178.2z"/>
<path class="st0" d="M366.8,377.5c0.4-0.1,0.6-0.2,0.8-0.2c4.7,0,9.4,0.1,14.1,0.1c1.3,0,1.9,0.5,2.5,1.7c3.6,7.8,6.8,15.8,8.8,24.2
	c1,4.5,2.7,8.8,4.9,12.9c0.3,0.5,0.5,1.2,0.8,1.9c-2.9,2.8-7.3,2.4-10.2,5.4c-0.5-1.1-0.8-1.8-1.1-2.5c-2.7-6.6-5.6-13-9.3-19.1
	c-3.6-6.1-6.5-12.6-9-19.2C368.5,380.9,367.6,379.3,366.8,377.5z"/>
<path class="st0" d="M356.1,760.2c7.5-5.4,10.6-12.6,9-21.7c-0.5-2.9-1.3-5.8-2.2-8.6c-2.3-7.4-3.1-15-3.3-22.7
	c0-2.5-0.3-5.1-0.1-7.8c0.3,0.7,0.7,1.4,1,2.2c1.5,4.4,2.5,8.9,2.9,13.5c0.3,3.7,0.6,7.5,0.8,11.2c0.2,4.7,1,9.2,2.4,13.6
	c2.4,7.3,2.9,14.9,1.6,22.5c-0.3,1.6-0.8,3.3-1.6,4.7c-3.2,6.2-6.3,12.5-10.8,18c-1.9,2.3-3.2,5.2-4.8,7.7c-1,1.4-2.1,2.8-3.4,4
	c-1.5,1.4-2.3,1.3-3.7-0.2c-1.2-1.2-2.3-2.5-3.1-3.9c-3.4-6.2-6.7-12.5-9.8-18.9c-1.6-3.3-2.1-7-2-10.7c0-1.4,0.5-2.7,0.8-4.1
	c2.1,1.4,4,2.6,5.9,3.8c-0.7,1.3-1.6,2.7-2.3,4.1c-1.9,3.9-1.5,7.3,1.7,10.2c5.1,4.6,11,6.1,17.5,3.6c5.6-2.1,8.4-7.7,7.1-13.6
	C359.2,764.5,357.9,762.2,356.1,760.2z"/>
<path class="st0" d="M345.3,427.1c-8.9,0.6-17.2,3-26,5.4c0.4-1.4,0.7-2.5,0.9-3.7c0.6-2.7,1.5-5.3,2.7-7.9c3.5-7.4,5.6-15.2,6-23.5
	c0.1-2,0.7-3.7,1.8-5.3c1.6-2.2,3-4.5,4.4-6.8c0.3-0.5,0.7-1,1.3-1.5C337.7,398.6,340.8,412.9,345.3,427.1z"/>
<path class="st0" d="M340.7,375.5c0.9,1.8,1.5,3.2,2.2,4.4c0.7,1.2,1.7,2.2,2.5,3.4c0.4,0.6,0.9,1.1,1,1.8c2,6.5,3.9,13,5.8,19.5
	c2.7,8.9,5.2,17.8,9.1,26.2c0.1,0.3,0.2,0.6,0.3,1.2c-6.4-1.5-12.5,0.5-18.7,1c-0.3-0.7-0.6-1.2-0.8-1.7c-0.2-0.5-0.3-1-0.5-1.7
	c2.1-0.4,4-0.3,6.3,0.7c0.1-0.8,0.4-1.5,0.2-1.9c-2.1-3.5-2.8-7.5-3.9-11.3c-3.2-11-5.1-22.2-6.9-33.5c-0.2-1.2-0.1-2.2,0.5-3.2
	C338.9,379,339.7,377.5,340.7,375.5z"/>
<path class="st0" d="M281.3,214.5c-5.5,4.7-10.8,9.4-13.8,16.1c-0.2-0.1-0.3-0.1-0.5-0.2c0-0.8-0.1-1.7-0.1-2.5
	c0.3-13.2,0.4-26.5,0.9-39.7c0.2-6.1,1.2-12.2,3.3-18c1.1-3,2.6-5.6,5.7-7.2c0.1,0.3,0.2,0.5,0.2,0.7c-1.7,10.3-0.6,20.5,2.1,30.5
	c0.6,2.1,1.9,2.6,4.1,2.4c-0.5,0.7-0.7,1.1-1,1.5c-2.6,2.8-3.9,6.1-5,9.7c-0.5,1.6-0.1,2.8,1.1,3.9
	C279.1,212.5,280.1,213.4,281.3,214.5z"/>
<path class="st0" d="M300.2,305.8c-2,0-3.7,0-5.5,0c-0.1-0.3-0.2-0.5-0.2-0.7c0.1-9.9,0.4-19.8,0.3-29.6c-0.2-17.4,2-34.5,7-51.2
	c3-10.2,5.9-20.5,7.6-31.1c0.4-2.3,0.7-4.7,1-7.2c1.1,0.8,1,1.8,1,2.8c-0.4,5.9-0.7,11.8-1.2,17.7c-1,10.8-3.6,21.4-6.3,31.9
	c-3.2,12.1-4.3,24.5-4.1,37c0.2,9.4,0.4,18.8,0.6,28.2C300.3,304.2,300.2,304.9,300.2,305.8z"/>
<path class="st0" d="M350,108.4c0.1,10.8,0.3,21.6,0.4,32.7c-0.4-0.4-0.7-0.6-0.9-0.9c-2.3-3.5-4.7-7-6.9-10.6
	c-3.6-6-5.2-12.7-5.5-19.6c-0.3-7.2-0.1-14.3-0.3-21.5c-0.1-2.8,0.9-4.7,3.3-6.2c0.8,1.8,1.5,3.6,2.5,5.3c1.9,3.2,3.9,6.4,5.9,9.5
	c2.3,3.4,4.1,7,4.1,11.3c0,1.2,0.2,2.4-1.1,3.6c-0.4-1.3-0.7-2.4-1-3.6C350.3,108.4,350.2,108.4,350,108.4z"/>
<path class="st0" d="M293.6,273.2c-2.3-3.4-5.1-4.7-9.1-2.6c0.3-1.9,0.7-3.3,0.9-4.8c0.8-5.7,1.5-11.4,2.3-17.1
	c0.5-3.7,1.5-7.4,2.9-10.8c3.3-8.3,5.2-16.9,6.9-25.6c0.1-0.4,0.1-0.9,0.3-1.2c2.5-3.7,2.8-8.1,3.9-12.2c1.2-4.6,2.3-9.1,3.4-13.7
	c0.4-1.5,0.7-3.1,1.1-4.8c2,1.3,3.2,2.8,2.8,5.2c-0.7,4.3-1.1,8.7-2.1,13c-2.6,10.6-5.5,21.2-8.2,31.7c-2.7,10.2-4.2,20.6-4.5,31.2
	C293.9,265.4,293.7,269.3,293.6,273.2z"/>
<path class="st0" d="M327.8,691.4c-0.3-0.2-0.4-0.3-0.4-0.4c-2.9-7.8-5.8-15.5-8.5-23.4c-1.7-4.9-2.1-10-2.4-15.1
	c-0.6-9.5-1.4-18.9-1.9-28.4c-0.3-5.3,0-10.7,0-16c0-0.3,0.1-0.6,0.2-1.1c0.3,0.3,0.5,0.5,0.5,0.6c1.1,9.2,3.7,18.1,5.8,27.1
	c2,8.7,3.8,17.5,5.9,26.1c1.2,5,2.5,10,3,15.2c0.2,3,0,5.9-0.7,8.8C328.9,687.1,328.4,689.2,327.8,691.4z"/>
<path class="st0" d="M383.5,367.7c3.6,2.1,6.9,4.1,10.3,6c2.6,1.5,4.9,3.2,6.9,5.5c2.8,3.2,5.3,6.6,10,7.6c-0.4,1.1-0.6,1.9-1,2.7
	c-1.8,4.3-3.4,8.6-4,13.2c-0.2,1.1-0.7,1.7-1.7,2c-0.2,0.1-0.4,0.2-0.7,0.2c-2.6,0.7-4.9,1.9-6.1,4.8c-0.4-1.1-0.8-2.2-1.2-3.3
	c-0.8-2.8-1.6-5.5-2.3-8.3c-1.7-6.4-4.5-12.3-7.9-17.9c-0.8-1.3-1.8-2.5-0.8-4.3c0.4-0.7-0.1-1.9-0.3-2.8
	C384.4,371.4,383.9,369.5,383.5,367.7z"/>
<path class="st0" d="M329.3,773.9c-3.8,5.2-8.9,8.9-14.2,12.3c-0.8,0.5-1.7,0.8-2.6,1.2c-3.1,1.2-5,0.5-6.3-2.6
	c-1-2.3-1.8-4.6-2.7-6.9c-0.3-0.9-0.7-1.7-1.2-2.8c0.5,0.1,0.8,0.1,1,0.2c3.5,2.1,7,1.6,10.1-0.7c5.9-4.3,7.8-10.4,7.3-17.4
	c-0.1-0.7-0.2-1.4-0.3-2.2c3.4-1.3,6.6-2.7,9-6c0.1,0.8,0.2,1.3,0.2,1.8c0,1.7,0,3.5-0.1,5.2c0,0.5-0.1,1.1-0.3,1.6
	c-2,3.9-1.7,7.9-0.8,11.9C328.5,770.9,329,772.4,329.3,773.9z"/>
<path class="st0" d="M347,780c-4.3-0.2-7.8-1.7-10.6-4.5c-1.9-1.9-2.6-4.2-1.7-6.8c0.6-1.6,1.3-3.3,2.1-4.8c0.2-0.5,0.9-1.1,1.4-1.1
	c3.1,0.2,6-0.8,8.9-1.7c2.3-0.7,4.4,0.2,6.6,0.2c0.5,0,1.2,0.7,1.6,1.3c4.6,5.6,3.6,14.6-5.1,16.8C349.1,779.7,347.9,779.8,347,780z
	 M345.8,774.3c3,0.4,5.5-2.9,5.7-5c0.1-2.5-2.7-5.2-5.5-5.2c-2.1,0-4.9,3.2-5,5.6C340.9,772.4,342.7,774.2,345.8,774.3z"/>
<path class="st0" d="M282.9,277c4.1,4.4,7.1,4.2,10.2,1.1c0.1,2.2-0.2,3.5-1.7,5.3c-4.4,5.6-5.6,12.1-5.5,18.9c0,1.5,0.4,3,0.6,4.5
	c-0.1,0-0.2,0.2-0.3,0.2c-6.6-0.4-6.1,0.6-7.8-6.3c-1.7-6.6-0.9-12.8,2.3-18.7C281.6,280.5,282.1,278.8,282.9,277z"/>
<path class="st0" d="M310,754.3c2.6,0.5,5.3,1,8.2,1.6c0.1,0.5,0.3,1.3,0.3,2c0.3,3.9-0.5,7.5-2.5,10.8c-1.3,2.2-3,3.9-5.3,5
	c-3.1,1.5-6,0.8-8.1-1.9c-3.2-4.3-4.6-11.2-1.4-16.7c0.5-0.9,1.2-1.6,1.8-2.4c1.4,0.5,2.6,0.8,4,1.3c-1,1.1-1.9,2.2-2.8,3.3
	c-1.6,1.9-1.8,4.9-0.4,6.9c1.3,1.9,3.2,2.3,5.2,1.3c3.2-1.6,5.1-7.1,1.6-10.2c-0.3-0.2-0.7-0.4-1-0.5
	C309.7,754.6,309.9,754.4,310,754.3z"/>
<path class="st0" d="M312.5,371.1c-1.8-7.3-3.5-14.1-5.3-21.1c0.6-0.2,1.1-0.5,1.6-0.6c3.3-0.7,6.7-1.5,10-2.2
	c2.1-0.4,3.4,0.9,2.7,3c-0.5,1.4-1.1,2.7-1.6,4c-2.1,4.8-4.1,9.7-6.2,14.5C313.4,369.4,313,370.1,312.5,371.1z"/>
<path class="st0" d="M234.1,334.1c-2.6-0.3-5.1-0.6-7.5-0.9c-1.3-0.2-1.9-1-2-2.2c-0.5-3.9-1.1-7.9-1.7-12c3.6-0.1,7.2,1.3,11.1,0.3
	C234.6,324.2,235.1,329,234.1,334.1z"/>
<path class="st0" d="M353.2,377.6c-1.7,1.1-3.6,2.3-5.5,3.4c-1.2,0.7-1.7,0.6-2.6-0.6c-1.2-1.7-2.4-3.4-3.5-5.1
	c-0.2-0.3-0.3-1-0.1-1.3c1.6-3.7,3.3-7.4,5-11.1c1,0.2,1.7,0.4,2.1,0.5C350.2,368.3,351.7,372.9,353.2,377.6z"/>
<path class="st0" d="M267.2,240.4c-0.3-2-0.4-3.6,0.2-5.2c1.9-5.2,4.6-10,8.7-13.9c2-1.9,3.9-4,6-6.1c1.3,0.8,2.4,1.5,3.8,2.4
	C279.3,224.9,273.1,232.3,267.2,240.4z"/>
<path class="st0" d="M302.3,184.1c-1.1,4.3-3.3,7.8-6.4,10.7c-2.1,1.9-4.4,3.7-6.8,5.2c-4.1,2.5-7,5.7-7.4,10.7
	c0,0.2-0.2,0.4-0.3,0.6c-2.7-1.5-2.8-1.9-2-4.7c1.2-3.8,3.3-7,6.5-9.5c1.7-1.3,3.4-2.6,5.1-4c2.9-2.3,5.8-4.7,8.7-7.1
	C300.6,185.4,301.4,184.7,302.3,184.1z"/>
<path class="st0" d="M283.6,212.3c5.5,0.2,9.7-2.9,11.1-8.2c0.4-1.7,0.5-3.5,0.9-5.2c0.1-0.7,0.2-1.5,0.6-2c1.9-2.3,3.8-4.5,5.9-6.9
	c-0.8,3.1-1.5,5.9-2.2,8.8c-0.5,2.2-0.9,4.5-1.6,6.8c-1.5,4.9-4.2,8.5-9.4,9.9c-1.9,0.5-4.5-0.6-5.3-2.3
	C283.4,213,283.6,212.6,283.6,212.3z"/>
<path class="st0" d="M292.8,307.1c-1.5-0.2-2.9-0.3-4.2-0.5c-2.6-5.2-0.4-16.4,4.6-23.7C293.9,285.1,293.7,300.3,292.8,307.1z"/>
<path class="st0" d="M228.2,358.2c-0.6-7.6-1.2-15.1-1.8-23c2.6,0.3,4.9,0.5,7.5,0.8c-1.1,7.7-3.9,14.8-5.2,22.3
	C228.6,358.3,228.4,358.3,228.2,358.2z"/>
<path class="st0" d="M293.4,199.3c-0.3,7.3-5.3,12.7-9.9,11.1C283.8,204.2,288.8,202.2,293.4,199.3z"/>
<path class="st0" d="M291.8,275.4c0,2.4-1.4,3.5-3.7,2.8c-0.7-0.2-1.5-0.6-2.1-1.1c-1.3-1-1.8-2.7-1.2-4c0.7-1.5,2.5-2.5,4.1-2.2
	C290.5,271.2,291.8,273.2,291.8,275.4z"/>
<path class="st0" d="M304.3,760.4c0.1-3,1.7-4.2,4.1-3.4c0.5,0.2,1,0.8,1.2,1.3c0.7,1.5-0.2,4.2-1.6,5.1c-1.1,0.8-2.7,0.3-3.3-1.2
	C304.4,761.6,304.4,760.7,304.3,760.4z"/>
<path class="st0" d="M336.9,82.6c-0.2-3.1-0.4-6-0.6-8.9C339.9,75.7,340.2,78.9,336.9,82.6z"/>
<path class="st0" d="M298.9,755.3c0-2.4,0-4.4,0-6.8c1.1,1.3,2,2.2,2.9,3.2C300.9,752.8,300.1,753.9,298.9,755.3z"/>
<path d="M254.6,334c-0.2-1.1-0.6-2.2-0.7-3.4c0-0.3,0.4-0.8,0.8-1c0.2-0.1,0.9,0.1,1,0.4c0.3,0.7,0.7,1.5,0.6,2.2
	c0,0.6-0.6,1.3-0.9,1.9C255.2,334.1,254.9,334,254.6,334z"/>
<path d="M263.1,259.5c1.6,0.9,2.2,1.8,2.1,3c-0.1,0.5-0.6,1.1-1.1,1.3c-0.7,0.2-1.1-0.4-1.2-1.1C262.9,261.7,263,260.8,263.1,259.5z
	"/>
<path d="M345.8,774.3c-3.1-0.1-4.9-1.9-4.8-4.7c0.1-2.4,2.9-5.6,5-5.6c2.8,0,5.6,2.7,5.5,5.2C351.3,771.4,348.8,774.7,345.8,774.3z
	 M344.7,766.6c-1.6,0-2.2,0.7-2.3,2.5c0,1.6,1.4,3,3.1,3c1.6,0,3.2-1.4,3.3-2.9C348.9,767.7,347.3,766.7,344.7,766.6z"/>
<path class="st0" d="M344.7,766.6c2.6,0,4.2,1.1,4.1,2.6c-0.1,1.5-1.7,2.9-3.3,2.9c-1.6,0-3.1-1.4-3.1-3
	C342.5,767.3,343.1,766.6,344.7,766.6z"/>
</svg>
