<?xml version="1.0" encoding="utf-8"?>
<!-- Generator: Adobe Illustrator 19.0.0, SVG Export Plug-In . SVG Version: 6.00 Build 0)  -->
<svg version="1.1" id="图层_1" xmlns="http://www.w3.org/2000/svg" xmlns:xlink="http://www.w3.org/1999/xlink" x="0px" y="0px"
	 viewBox="0 0 595.3 841.9" style="enable-background:new 0 0 595.3 841.9;" xml:space="preserve">
<style type="text/css">
	.st0{fill:#FFFFFF;}
</style>
<path class="st0" d="M591.2,836c-195.3,0-390.5,0-585.9,0c0-276.2,0-552.4,0-828.7c195.3,0,390.6,0,585.9,0
	C591.2,283.5,591.2,559.8,591.2,836z M278.9,104.1c-0.5,0-1.2,0.2-1.6,0c-2.7-1.5-5.6-0.8-8.2-0.4c-6.5,1.1-11.5,8.2-10.9,14.7
	c0.1,0.9-0.1,1.8-0.1,2.8c0,0,0.1-0.1,0.1-0.1c-0.8,1.3-1.7,2.6-2.5,4c-0.8,1.3-0.6,2.5,0.3,3.7c2.7,3.8,5.4,7.8,8.2,11.6
	c1.2,1.5,1.4,3,1,4.8c-0.6,2.8-0.9,5.7-1.3,8.6c3.4-7.5,3.6-15.7,5.8-23.4c1,0,1.8,0,2.5,0c0.2,2.8,0.5,5.5,0.7,8.1
	c0.5,6.8,0.9,13.5,1.4,20.3c0.4,5.1,0.6,10.2,2.2,15.1c0.2,0.5,0,1,0,1.6c-3.2-0.5-4.1-1.7-4.2-4.5c-0.1-3.8-0.3-7.5-0.5-11.3
	c-0.1-1-0.2-2.1-1-2.9c-0.1,2-0.2,4.1-0.3,6.3c-3.5-2.9-5.7-4.3-7.5-4.5c0.4,0.5,0.6,1.1,1,1.4c1.7,1.4,3.3,3,5.1,4.1
	c1.2,0.7,1.6,1.5,1.6,2.8c-0.1,1.7-0.2,3.3-0.1,5c0,0.8,0.1,2,0.6,2.4c1.6,1.2,3.3,2.3,5.2,3.2c1,0.5,1.7-0.2,1.6-1.3
	c0-0.6-0.3-1.2-0.5-1.8c-0.2-0.9-0.3-1.7-0.5-2.6c1.2,0.8,1.9,1.9,2.9,2.5c1,0.6,1.1,1.3,1.2,2.3c0.1,3.7-0.8,7.3-1.7,10.9
	c-0.2,0.6-0.5,1.2-0.8,1.7c-0.8,1.2-1.8,2.4-2.6,3.6c-1.6,2.1-3.3,3.7-6.3,2.9c-2.8-0.7-5.7-1-8.6-1.4c-5.1-0.7-9.7,0.3-13.5,4
	c-4.1,3.9-8.2,7.8-12.3,11.7c-3.1,3-5,6.6-5.8,10.9c-1.1,5.7-1.7,11.4-1.7,17.1c-0.1,11.2,1.1,22.3,3.6,33.3c1.2,5,3.2,9.6,7.3,12.9
	c1.6,1.3,1.9,2.5,1.4,4.5c-2.5,10.3-5.4,20.4-9.2,30.2c-2.9,7.5-4.4,15.2-6,23c-0.2,0.9-0.4,1.9,0.1,2.8c0.7-1.4,1.4-2.9,1.7-4.4
	c1.9-8.9,4.3-17.5,7.5-26c3.3-8.8,5.9-17.8,7.2-27.1c0-0.1,0.2-0.2,0.6-0.4c5.1,4.5,11.4,6.5,17.9,8.5c-0.1,0.8-0.2,1.4-0.3,2
	c-1,3.1-1.9,6.2-3.1,9.1c-3.4,7.9-7,15.7-10.6,23.5c-2.6,5.7-5.2,11.3-7.8,16.9c-0.5,1.1-0.9,2.3-1.4,3.6c-0.7-0.3-1.2-0.5-1.6-0.8
	c-4.6-2.5-9.4-3.9-14.7-2.4c-0.9,0.2-1.5,0-2.1-0.6c-1.4-1.4-2.8-2.8-4.3-4c-2-1.7-3.7-3.9-6.3-4.9l0.1,0.1
	c-0.4-0.4-0.7-1.2-1.1-1.3c-3.1-0.6-6.1-0.6-8.4,2.2c-4.4,5.3-8.9,10.4-12,16.6c-1.7,3.4-3.3,6.8-5,10.2c-0.7,1.4-0.6,2.6,0.5,3.7
	c1.1,1.1,2.1,2.3,3.3,3.4c3.8,3.4,7.7,6.7,11.6,10.1c1.5,1.3,3.4,2.4,4.2,4c0.8,1.6,0.5,3.8,0.5,5.8c0,1.8,0.7,3.2,2.1,4.2
	c1.2,0.8,2.2,1.7,3.8,1.8c0.5,0,1.1,0.5,1.6,0.9c0.7,0.6,1.4,1.3,2.1,1.9c1.8,1.5,3.7,2.9,6.1,0.6c5.5,4.4,11.1,8.5,15.9,13.5
	c0.7,0.7,1.4,1.4,2.2,2.2c1.2,1.2,2.7,1.5,4.3,1c1.7-0.5,3.5-1.1,5.3-1.2c1.8-0.1,2.9-1,3.6-2.5c0.4-0.9,1-1.8,1.4-2.7
	c1.5-3.1,2.9-6.1,4.3-9.2c0.2-0.4,0.6-0.8,0.9-1.3c0.2,0.3,0.4,0.4,0.4,0.5c0.1,0.7,0.1,1.4,0.2,2.1c0.5,5.1,1.6,9.9,4.2,14.4
	c0.4,0.7,0.6,1.6,0.5,2.4c-0.3,5.2-0.5,10.4-1.1,15.5c-0.9,7.9-0.6,15.7,0.7,23.5c0.5,3.2,2.1,5.6,5,7c2.8,1.4,5.7,2.6,8.6,3.8
	c0.8,0.3,1.6,0.6,2.6,1c0,2.7-0.2,5.4,0,8.1c0.7,6.7,1.7,13.3,2.3,19.9c0.7,6.7,0.7,13.4-1.1,19.9c-1.3,4.6-2.3,9.3-3.6,13.9
	c-3.4,11.6-3.5,23.3-1.8,35.1c1,6.7,2.9,13,4.6,19.5c1.8,6.8,3.4,13.6,5.2,20.3c0.3,1.2,0.1,2.1-0.5,3.1c-3.2,5.3-6,10.7-8.1,16.5
	c-1.8,4.9-4,9.6-6.4,14.2c-1.8,3.5-3.4,7.1-4.9,10.7c-1.6,3.6-3,7.3-4.6,10.9c-0.5,1.2-0.7,2.4-0.2,3.7c0.7,1.9,1.4,3.8,2.3,5.7
	c0.8,1.7,1.3,1.9,3.2,1.5c1.9-0.4,3.8-0.8,5.8-1.2c-0.3,1.9-0.5,3.5-0.9,5.1c-0.6,2.7,0,5,1.6,7.1c1.7,2.4,3.3,4.8,5.1,7.1
	c2.3,3,5.3,5.3,9.1,7c0,3.6,0.1,7.4,0,11.3c0,1.3,0,2.3,1.2,3.1c2.1,1.5,4.2,3,6.4,4.5c0.8,0.6,1.6,0.7,2.6,0.2
	c1.5-0.8,3.1-1.3,4.8-2c0.2,0.8,0.3,1.2,0.4,1.7c0.4,3.3,2.2,5.5,5,7.3c9.1,5.7,18.9,7.1,29.2,5.4c0.5-0.1,1.1-0.3,1.6-0.4
	c1.2-0.4,1.7-1.1,1.8-2.4c0.5-4.6,0.7-9.1,0.3-13.7c-0.3-3.5-0.8-6.9-2.8-9.9c-0.6-0.8-1.3-1.6-1.7-2.6c-1.4-3.7-3.7-6.7-5.7-10
	c-5.3-8.6-9.9-17.6-12.6-27.4c-0.3-1.1-0.3-2.3-0.6-3.4c-0.7-2.3-1.7-4.6-2.3-6.9c-4.8-17-7.2-34.3-7-52c0-1.1,0.1-2.2,0.5-3.2
	c1.6-3.3,3.4-6.6,5-9.9c4.9-10.7,9.7-21.3,14.6-32c3.8-8.4,7.5-16.8,11.6-25.1c4.3-8.5,9-16.8,13.6-25.1c3.7-6.7,5.7-13.7,5.6-21.4
	c-0.2-8.4,0.2-16.8,0.3-25.3c0-1.1,0.2-1.9,1.2-2.6c3.3-2.2,4.9-5.5,5.4-9.3c0.9-6.2,1.3-12.4,0.3-18.6c-1.4-8.2-1.3-16.5-1.4-24.7
	c-0.2-9.2,0.5-18.4,0.5-27.6c0.1-6.6-0.1-13.2-0.4-19.8c-0.2-4.4-0.7-8.8-1.1-13.2c-0.1-1.2-0.3-2.3-0.4-3.6c0.8-0.3,1.5-0.6,2-0.9
	c3.2,2.9,6.2,5.7,9.3,8.5c-0.2,0.2-0.5,0.7-0.8,1.1c-1.5,2.4-2.4,4.9-2,7.8c0.7,4.4,3.1,7.5,7.3,9.1c2.1,0.8,4.3,1.4,6.3,2.1
	c-0.2,1.9-0.8,3.9-0.4,5.6c0.5,1.7,2.1,3.2,3.4,5c-0.1,0.7-0.2,1.8-0.2,2.9c0,3.7,0.8,4.8,4.5,5.3c4.5,0.6,9.1,1,13.6,1.4
	c0.6,0,1.4-0.4,1.7-0.8c1.7-2.7,3-5.5,3.7-8.6c0.7-3.1-0.1-5.8-2.2-8c-1.5-1.5-2.9-3.1-4.4-4.6c-2-2.1-4.1-4.1-6.1-6.2l0,0
	c2-2,3.1-4.4,2.4-7.2c-1.1-4-3.2-7.5-6.6-10.1c-1.4-1.1-2.9-1.5-4.7-1.1c-1.1,0.3-2.3,0.5-3.6,0.8c-2.3-5.2-5.4-10-7-15.4
	c-1.5-5-3.5-9.8-5.9-14.4c-1.6-3.2-2.9-6.4-4.3-9.7c-1.1-2.7-2.1-5.4-3.2-8.1c-0.6-1.4-1.3-2.8-2-4.2c1.3-1,2.5-1.9,3.6-2.9
	c4.9-4.2,8-9.4,8.6-16c0.7-6.9,0.1-13.7-1.4-20.4c-2.4-10.5-4.8-21-7.4-31.5c-0.8-3.5-1.7-7-3.8-10.1c-2.9-4.3-6.1-8.2-10.9-10.6
	c-0.2-0.1-0.3-0.3-0.4-0.6c1-2.6,2-5.3,3.1-7.9c1.6-3.7,2.2-7.4,1.3-11.3c-0.8-3.7-1.7-7.3-2.9-10.9c-1.6-4.9-3.5-9.8-5.1-14.7
	c-1.2-3.7-2-7.6-1.8-11.6c0.1-0.9-0.3-1.8-0.4-2.8c0,0,0.1,0.1,0.1,0.1c0.4-1.6,0.9-3.2,1.3-4.8c0.5-2,1.2-3.9,1.5-5.9
	c0.9-5.7-0.1-11.3-1.1-16.9c-0.3-1.8-0.4-3.7-0.4-5.6c0-4.7-1.7-8.9-3.9-12.9c-0.3-0.5-0.8-0.9-1.3-1.3c-4.2-3.5-8.6-6.6-13.8-8.4
	c-0.8-0.3-1.5-0.8-2.2-1.3c-2.1-1.4-4.3-2.8-6.8-3.2c-3.3-0.5-6.6-0.9-9.8-1c-2.1,0-4.3,0.3-6.2,1c-8,2.6-15.1,7-21.7,12.2
	c-2.9,2.4-5.7,5-7.6,8.3c-0.2,0.4-0.4,0.9-0.6,1.3c0.1,0.1,0.3,0.2,0.4,0.3c0.5-0.6,0.9-1.2,1.5-1.8c2-2,3.7-4.3,6-6
	c4.7-3.4,9.5-6.8,14.5-9.7c3.2-1.8,6.7-3.1,10.3-4c4.8-1.2,9.7-0.2,14.5,1c1.2,0.3,2.2,1,3.3,1.5c0,0.2-0.1,0.3-0.1,0.5
	c-1.5,0.1-3.1,0.2-4.6,0.2c-5.3,0.3-10.5,1-15.5,3c-8.3,3.3-14.8,8.9-20.4,15.6C279.1,103.2,279,103.7,278.9,104.1L278.9,104.1z"/>
<path d="M394.2,360.8c2,2.1,4.1,4.1,6.1,6.2c1.5,1.5,3,3,4.4,4.6c2.2,2.3,2.9,4.9,2.2,8c-0.7,3.1-2.1,5.9-3.7,8.6
	c-0.3,0.5-1.2,0.9-1.7,0.8c-4.5-0.4-9.1-0.8-13.6-1.4c-3.7-0.5-4.5-1.6-4.5-5.3c0-1.1,0.2-2.2,0.2-2.9c-1.3-1.8-2.9-3.2-3.4-5
	c-0.5-1.7,0.2-3.7,0.4-5.6c-2-0.6-4.2-1.3-6.3-2.1c-4.2-1.6-6.6-4.7-7.3-9.1c-0.5-2.9,0.4-5.4,2-7.8c0.3-0.5,0.6-0.9,0.8-1.1
	c-3.1-2.8-6.1-5.6-9.3-8.5c-0.5,0.2-1.2,0.5-2,0.9c0.1,1.3,0.3,2.4,0.4,3.6c0.4,4.4,0.9,8.8,1.1,13.2c0.3,6.6,0.4,13.2,0.4,19.8
	c-0.1,9.2-0.7,18.4-0.5,27.6c0.1,8.2,0.1,16.5,1.4,24.7c1,6.2,0.7,12.4-0.3,18.6c-0.6,3.8-2.2,7.1-5.4,9.3c-1,0.7-1.2,1.5-1.2,2.6
	c-0.1,8.4-0.4,16.8-0.3,25.3c0.2,7.7-1.8,14.7-5.6,21.4c-4.7,8.3-9.3,16.6-13.6,25.1c-4.1,8.2-7.8,16.7-11.6,25.1
	c-4.9,10.7-9.7,21.4-14.6,32c-1.5,3.4-3.4,6.6-5,9.9c-0.4,0.9-0.5,2.1-0.5,3.2c-0.2,17.7,2.2,35,7,52c0.7,2.3,1.6,4.6,2.3,6.9
	c0.3,1.1,0.3,2.3,0.6,3.4c2.7,9.8,7.3,18.8,12.6,27.4c2,3.3,4.3,6.4,5.7,10c0.4,0.9,1.1,1.7,1.7,2.6c2,3,2.5,6.4,2.8,9.9
	c0.4,4.6,0.2,9.1-0.3,13.7c-0.1,1.3-0.7,2-1.8,2.4c-0.5,0.2-1,0.4-1.6,0.4c-10.4,1.7-20.2,0.3-29.2-5.4c-2.8-1.8-4.6-4-5-7.3
	c-0.1-0.5-0.2-0.9-0.4-1.7c-1.7,0.7-3.3,1.2-4.8,2c-1,0.6-1.8,0.4-2.6-0.2c-2.1-1.5-4.2-3-6.4-4.5c-1.2-0.8-1.2-1.8-1.2-3.1
	c0.1-3.8,0-7.7,0-11.3c-3.8-1.7-6.8-4-9.1-7c-1.8-2.3-3.4-4.7-5.1-7.1c-1.5-2.2-2.2-4.5-1.6-7.1c0.4-1.6,0.6-3.2,0.9-5.1
	c-2,0.4-3.9,0.8-5.8,1.2c-1.9,0.4-2.4,0.2-3.2-1.5c-0.8-1.9-1.5-3.8-2.3-5.7c-0.5-1.3-0.3-2.4,0.2-3.7c1.6-3.6,3-7.3,4.6-10.9
	c1.6-3.6,3.1-7.2,4.9-10.7c2.4-4.6,4.6-9.3,6.4-14.2c2.1-5.8,4.9-11.2,8.1-16.5c0.6-1,0.8-1.9,0.5-3.1c-1.7-6.8-3.4-13.6-5.2-20.3
	c-1.7-6.5-3.7-12.9-4.6-19.5c-1.7-11.8-1.5-23.5,1.8-35.1c1.3-4.6,2.4-9.3,3.6-13.9c1.8-6.6,1.8-13.2,1.1-19.9
	c-0.7-6.7-1.7-13.3-2.3-19.9c-0.3-2.6,0-5.3,0-8.1c-1-0.4-1.8-0.7-2.6-1c-2.9-1.3-5.8-2.5-8.6-3.8c-2.9-1.4-4.5-3.8-5-7
	c-1.3-7.8-1.6-15.6-0.7-23.5c0.6-5.2,0.8-10.4,1.1-15.5c0-0.8-0.1-1.8-0.5-2.4c-2.6-4.4-3.8-9.3-4.2-14.4c-0.1-0.7-0.1-1.4-0.2-2.1
	c0-0.1-0.2-0.2-0.4-0.5c-0.3,0.4-0.7,0.8-0.9,1.3c-1.5,3-2.9,6.1-4.3,9.2c-0.4,0.9-0.9,1.8-1.4,2.7c-0.7,1.5-1.8,2.4-3.6,2.5
	c-1.8,0.1-3.5,0.7-5.3,1.2c-1.7,0.5-3.1,0.2-4.3-1c-0.7-0.7-1.5-1.4-2.2-2.2c-4.8-5-10.4-9.1-15.9-13.5c-2.3,2.2-4.2,0.9-6.1-0.6
	c-0.7-0.6-1.4-1.3-2.1-1.9c-0.5-0.4-1-0.9-1.6-0.9c-1.5-0.1-2.6-1-3.8-1.8c-1.5-1-2.2-2.4-2.1-4.2c0-1.9,0.3-4.1-0.5-5.8
	c-0.8-1.6-2.7-2.7-4.2-4c-3.9-3.4-7.8-6.7-11.6-10.1c-1.2-1-2.2-2.2-3.3-3.4c-1-1.1-1.2-2.3-0.5-3.7c1.7-3.4,3.3-6.8,5-10.2
	c3.1-6.2,7.6-11.4,12-16.6c2.3-2.8,5.3-2.8,8.4-2.2c0.4,0.1,0.8,0.8,1.1,1.3c-2.5,0.1-5,0.2-7.5,0.4c-2.3,3.2-4.6,6.4-6.8,9.6
	c5.1,5.3,10.5,9.9,16.4,14.7c0-2.6,0-4.7,0-6.8c0.1-2.4,2-3.7,3.4-5.4c-3.3-3-6-6.2-8.6-9.6c0.1-0.1,0.3-0.3,0.4-0.4
	c3.2,3.1,6.4,6.1,9.6,9.3c1-0.5,1.8-1,2.8-1.5c-3.3-3.6-6.5-7-9.6-10.4c2.6,1,4.3,3.2,6.3,4.9c1.5,1.3,2.9,2.7,4.3,4
	c0.6,0.6,1.2,0.9,2.1,0.6c5.3-1.4,10.1-0.1,14.7,2.4c0.5,0.3,1,0.5,1.6,0.8c0.5-1.3,0.8-2.5,1.4-3.6c2.6-5.6,5.3-11.3,7.8-16.9
	c3.6-7.8,7.1-15.6,10.6-23.5c1.3-2.9,2.1-6.1,3.1-9.1c0.2-0.6,0.2-1.2,0.3-2c-6.5-2-12.9-4.1-17.9-8.5c-0.4,0.2-0.6,0.3-0.6,0.4
	c-1.3,9.3-3.9,18.3-7.2,27.1c-3.2,8.5-5.6,17.2-7.5,26c-0.3,1.5-1,2.9-1.7,4.4c-0.5-1-0.3-1.9-0.1-2.8c1.6-7.8,3.2-15.6,6-23
	c3.8-9.9,6.7-20,9.2-30.2c0.5-1.9,0.2-3.2-1.4-4.5c-4.1-3.3-6.2-7.9-7.3-12.9c-2.5-10.9-3.7-22-3.6-33.3c0-5.8,0.6-11.5,1.7-17.1
	c0.8-4.3,2.7-7.9,5.8-10.9c4.1-4,8.2-7.8,12.3-11.7c3.8-3.7,8.4-4.7,13.5-4c2.9,0.4,5.8,0.7,8.6,1.4c3,0.7,4.7-0.8,6.3-2.9
	c0.9-1.2,1.8-2.4,2.6-3.6c0.4-0.5,0.7-1.1,0.8-1.7c1-3.6,1.8-7.2,1.7-10.9c0-1-0.2-1.7-1.2-2.3c-1-0.6-1.7-1.7-2.9-2.5
	c0.2,0.9,0.3,1.7,0.5,2.6c0.1,0.6,0.4,1.2,0.5,1.8c0,1.1-0.7,1.8-1.6,1.3c-1.8-0.9-3.6-1.9-5.2-3.2c-0.5-0.4-0.6-1.6-0.6-2.4
	c-0.1-1.6,0-3.3,0.1-5c0.1-1.3-0.3-2.1-1.6-2.8c-1.9-1.1-3.5-2.7-5.1-4.1c-0.4-0.3-0.6-0.9-1-1.4c1.8,0.3,4,1.6,7.5,4.5
	c0.1-2.3,0.2-4.3,0.3-6.3c0.8,0.9,1,1.9,1,2.9c0.2,3.8,0.4,7.5,0.5,11.3c0.1,2.8,1.1,4,4.2,4.5c0-0.5,0.1-1.1,0-1.6
	c-1.6-4.9-1.9-10-2.2-15.1c-0.5-6.7-0.9-13.5-1.4-20.3c-0.2-2.7-0.4-5.3-0.7-8.1c-0.7,0-1.5,0-2.5,0c-2.2,7.7-2.4,15.9-5.8,23.4
	c0.4-2.9,0.7-5.8,1.3-8.6c0.4-1.8,0.2-3.2-1-4.8c-2.8-3.8-5.4-7.7-8.2-11.6c-0.9-1.2-1.1-2.4-0.3-3.7c0.8-1.3,1.7-2.6,2.5-4
	c-0.5,1.2-0.9,2.5-1.4,3.7c-0.5,1.2-0.5,2.1,0.3,3.2c2.5,3.3,4.8,6.8,7.2,10.2c0.4,0.6,0.9,1.2,1.5,1.9c1.1-3.5,2-6.7,3-9.9
	c0,0-0.1-0.2-0.3-0.2c-4.5-1-7.4-3.9-9.3-7.9c-0.2-0.4-0.7-0.7-1.1-1c0-0.9,0.2-1.9,0.1-2.8c-0.5-6.5,4.5-13.6,10.9-14.7
	c2.6-0.4,5.5-1.1,8.2,0.4c0.4,0.2,1,0,1.6,0c-0.4,0.9,0.4,1.2,0.8,1.8c1.3,1.8,2.6,3.7,3.9,5.6c0.3,0.4,0.5,0.9,0.8,1.5
	c0.4-0.3,0.7-0.4,0.9-0.6c3.2-3.2,6.9-5.8,10.6-8.2c8.8-5.6,18.3-8.3,28.7-7.5c6.1,0.5,11.2,2.9,15.1,7.6c0.6,0.7,1.4,1.2,2.2,1.8
	c0.1-0.5,0.2-0.8,0.2-1c-0.9-2.9-1.8-5.8-2.9-8.7c-0.4-1-1.2-1.9-2.1-2.5c-3.1-2.2-6.3-4.5-9.6-6.4c-1.7-1-3.8-1.7-5.8-1.8
	c-7.5-0.5-14.9,0.3-22,3c-5.1,2-9.4,5.3-13.6,8.8c-2.5,2.2-4.9,4.4-7.4,6.6c0.2-0.4,0.3-0.9,0.6-1.3c5.6-6.7,12.1-12.4,20.4-15.6
	c5-2,10.2-2.7,15.5-3c1.5-0.1,3.1-0.2,4.6-0.2c0-0.2,0.1-0.3,0.1-0.5c-1.1-0.5-2.2-1.2-3.3-1.5c-4.8-1.2-9.6-2.2-14.5-1
	c-3.5,0.9-7.1,2.2-10.3,4c-5,2.9-9.8,6.2-14.5,9.7c-2.2,1.7-4,4-6,6c-0.5,0.6-1,1.2-1.5,1.8c-0.1-0.1-0.3-0.2-0.4-0.3
	c0.2-0.4,0.4-0.9,0.6-1.3c1.9-3.4,4.6-6,7.6-8.3c6.5-5.3,13.6-9.6,21.7-12.2c2-0.7,4.2-1,6.2-1c3.3,0.1,6.6,0.5,9.8,1
	c2.5,0.4,4.7,1.7,6.8,3.2c0.7,0.5,1.4,1,2.2,1.3c5.2,1.8,9.6,4.9,13.8,8.4c0.5,0.4,1,0.8,1.3,1.3c2.1,4,3.9,8.2,3.9,12.9
	c0,1.9,0.1,3.8,0.4,5.6c1,5.6,2,11.2,1.1,16.9c-0.3,2-1,3.9-1.5,5.9c-0.4,1.6-0.9,3.2-1.3,4.8c-2,0.7-3.1,2.3-3.9,4.1
	c-2,4.1-3.3,8.5-4.1,13c-1.2,6.7-4.5,12-10.3,15.7c-1.7,1.1-3.2,2.2-4.9,3.3c-3.5,2.3-7.3,3.3-11.5,2.4c-0.2,0-0.4,0-1,0.1
	c0.1,3,0.1,6,0.5,8.9c0.3,2.1,1.5,3.6,3.9,3.8c0.9,0.1,1.7,0.5,2.5,0.5c1.7,0.1,3.1,0.9,4.5,1.9c3.6,2.7,6.2,6.2,8.2,10.2
	c0.7,1.5,1.3,3,1.6,4.6c0.5,2.2,1.1,4.4,2.5,6.5c0.2-0.7,0.4-1.2,0.5-1.8c0.7-3.4,2.4-6.3,4.9-8.7c1.3-1.3,2.9-2.5,4.3-3.7
	c1.8-1.6,3.8-3.1,5.5-4.8c4.2-4.4,6.1-9.7,5-15.8c-0.5-2.6-1.1-5.2-1.8-7.8c-1.6-5.3-3.4-10.5-5.1-15.7c-1.4-4.5-2.5-9.1-1.7-13.9
	c0.2-1,0.3-2,0.4-3c0.1,0.9,0.4,1.9,0.4,2.8c-0.2,4,0.5,7.8,1.8,11.6c1.6,4.9,3.5,9.8,5.1,14.7c1.1,3.6,2.1,7.3,2.9,10.9
	c0.9,3.9,0.3,7.6-1.3,11.3c-1.1,2.6-2.1,5.2-3.1,7.9c0.2,0.2,0.3,0.5,0.4,0.6c4.7,2.4,8,6.3,10.9,10.6c2.1,3.1,2.9,6.6,3.8,10.1
	c2.5,10.5,5,21,7.4,31.5c1.5,6.7,2.1,13.5,1.4,20.4c-0.6,6.6-3.7,11.8-8.6,16c-1.1,1-2.3,1.8-3.6,2.9c0.7,1.4,1.4,2.7,2,4.2
	c1.1,2.7,2.1,5.4,3.2,8.1c1.4,3.3,2.7,6.6,4.3,9.7c2.3,4.6,4.4,9.4,5.9,14.4c1.6,5.4,4.7,10.3,7,15.4c1.3-0.3,2.5-0.5,3.6-0.8
	c1.7-0.4,3.3,0,4.7,1.1c3.4,2.6,5.5,6,6.6,10.1C397.4,356.5,396.2,358.8,394.2,360.8c-2.9,4.7-6.7,8.2-12.8,8.3
	c0.1,1.9,0,3.6,0.4,5.1c0.6,2.3,3.2,2.7,5,4.3c-0.8,0.4-1.4,0.7-2,1c0.1,1,0.2,1.9,0.3,2.9c0.3,2.5,0.7,3,3.1,3.3
	c3.5,0.5,7,0.9,10.5,1.1c1.2,0.1,2.5-0.4,3.7-0.7c0.3-0.1,0.6-0.5,0.8-0.8c0.7-1.8,1.3-3.7,1.9-5.6c0.9-2.8,0.2-5.3-1.8-7.4
	c-0.9-0.9-1.7-1.9-2.6-2.8C398.2,367,395.7,364.3,394.2,360.8z M269.3,202c-0.4-0.3-0.7-0.7-0.3-1.3c0.9-1.2,1.8-2.5,2.7-3.8
	c-2.5-0.3-4.7-0.5-7-0.8c-1.6-0.2-3.3-0.5-4.9-0.7c-4.3-0.4-8.1,0.4-11.3,3.5c-4.2,4-8.5,8-12.6,12.1c-2.6,2.5-4.4,5.6-5.1,9.1
	c-1.6,7.7-2.1,15.6-1.8,23.5c0.3,8.8,1.4,17.4,3.2,26c1.3,6,3.8,11.1,8.8,14.9c4.5,3.5,9.3,6.1,14.8,7.7c3.8,1.2,7.7,2.3,11.5,3.6
	c5.4,1.8,10.6,3.9,16.1,5.5c8.5,2.6,17,2.7,25.4-0.7c2.3-0.9,4.8-1.4,7.2-2.1c2.3-0.7,4.6-1.4,6.9-2.2c1.8-0.6,3.5-1.6,5.3-2
	c2-0.4,3.5-1.4,4.6-3c1.7-2.5,2.5-5.2,2.2-8.3c-0.3-3.4-1.4-6.6-2.7-9.7c-2-5.1-5.6-8.5-10.4-10.7c-6.2-2.8-11.5-6.8-15.9-12
	c-1.7-2-3.4-3.9-5.1-5.9c-2.5-2.9-5.3-5.3-8.6-7.3c-3.1-1.8-6.2-3.7-9.4-5.4c-4.8-2.6-8.8-6.1-12.5-10c-0.3-0.3-0.4-0.7-0.6-1
	c0.7,0.1,1.1,0.5,1.5,0.8c2.8,2.2,5.6,4.3,8.4,6.4c1,0.7,2,1,3.3,0.8c2.6-0.3,5.2-0.6,7.7-0.6c6.6,0,13,1.1,19.4,2.6
	c3.9,0.9,7.8,1.8,10.8,4.4c3.4-2.2,6.7-4.3,10-6.4c-3.1-5.9-4.4-12.5-5.8-19.2c-1.6,0.8-2.9,1.4-4.2,2.1c-2.1,1-4.2,1.4-6.4,0.6
	c-1.5-0.5-2.9-0.4-4.4,0.2c-3.2,1.3-6.3,1.1-9.3-0.6c-2.7-1.4-5.4-1.9-8.4-1.4c-3.2,0.5-6.2-0.1-8.5-2.5c-1.9-1.9-4.1-2.8-6.8-2.7
	c-0.5,0-1.1-0.1-1.6-0.2c-1.8-0.3-3.1-1.2-3.8-2.8c-0.3-0.6-0.5-1.1-0.7-1.7C269.7,201.3,269.7,201.3,269.3,202L269.3,202z
	 M264.1,348.7c-0.4,1.3-0.7,2.3-1,3.2c-1.3,4.3-2.7,8.5-3.8,12.9c-0.8,3-1.1,6.2-1.8,9.3c-0.2,1,0.4,1.5,1,2
	c1.7,1.6,3.3,3.4,4.4,5.5c0.8,1.4,1,2.5,0.1,3.9c-2.3,4-4.4,8-6.5,12c-0.4,0.9-0.9,2-0.7,2.9c0.8,4.2,1.6,8.4,2.9,12.4
	c1.5,4.7,3.9,9,8.5,11.5c0.1,0.1,0.3,0.2,0.4,0.3c6.9,5.6,14.8,9,23.2,11.2c6.8,1.8,13.7,2.3,20.6,0.6c5.6-1.3,11.1-3,16.6-4.5
	c7.6-2.2,15.1-4.6,21.9-8.6c1.7-1,3.3-2.1,4.9-3.3c1.5-1.1,2.3-2.6,2.5-4.4c0.5-3.4,1-6.9,1.1-10.3c0.2-9.1,0.2-18.3,0.1-27.4
	c-0.2-11.4-0.7-22.8-1.1-34.2c0-0.5-0.2-1.1-0.3-1.9c-6.7,0.8-13.3,0.6-19.9,2c0,0.5,0,0.9,0,1.2c0.4,4.4-0.4,5.3-4.8,5.4
	c-5.4,0.1-10.8,0.3-16,0.5c-1.7,2.7-2,2.8-4.8,2c-3-0.9-6.1-1.4-9.3-1.5c-1.3,0-2.5-0.1-3.8-0.2c-0.4,0-0.7-0.2-1.5-0.5
	c5.9-1.2,11.2-0.7,16.8,0.7c0-3.7,0-7.1,0-10.8c-5.1-0.7-10.3-1.3-15.3-2c-0.7,4-1.4,7.6-2.1,11.2c-0.2,0.8-0.5,1.7-0.8,2.4
	c-1,1.9-2,2.4-4,1.9c-1.7-0.4-3.3-1-5-1.5c-2.2-0.7-4.5-1.4-6.7-2c-0.4,0.5-0.5,0.8-0.7,1c-1.3,1.8-1.9,2-4,1.2
	c-0.6-0.2-1.2-0.5-1.8-0.7C270.3,350.9,267.3,349.8,264.1,348.7z M287.6,670.1c5.2-8,11.9-12.4,21.6-11.5c-0.3-1-0.5-1.8-0.7-2.6
	c-4.4-15.7-7.1-31.6-7.3-47.9c-0.1-13.4-0.2-26.8-0.1-40.1c0.1-15,1.7-29.8,4-44.6c0.1-0.7,0-1.4,0.1-2.1c0.2-1.2,0.3-2.4,0.6-3.6
	c0.2-0.7,0.8-1.4,0.9-2.1c1.2-5.9,2.7-11.9,3.2-17.9c0.6-6.3,0.3-12.7,0.3-19.1c0-2.6-0.3-5.1-0.5-7.8c-0.9,0.1-1.5,0.2-2.1,0.3
	c-3,0.8-6.1,1.5-9.1,2.4c-5.8,1.6-11.7,1.6-17.5-0.1c-1.3-0.4-2.7-0.7-4.3-1.1c0.1,1.3,0.1,2.3,0.2,3.3c0.3,2.3,0.7,4.5,0.9,6.8
	c0.8,6.9,1.6,13.7,2.3,20.6c0.5,5.1,0.2,10.2-1,15.2c-1.2,5-2.5,9.9-3.8,14.9c-1.4,5.4-2.8,10.8-3,16.4c-0.5,10.5,0.7,20.9,3.6,31.1
	c3.3,11.7,6.7,23.4,8.6,35.5c1.7,11,3.4,22.1,3.1,33.3c-0.1,4.3-0.2,8.7-0.3,13C287.6,664.7,287.6,667.2,287.6,670.1z M357.5,420.3
	c-5.7,4.8-12,7.6-18.4,10.2c-8.3,3.3-16.8,5.6-25.5,7.8c-6,1.6-12.1,1.8-18.3,0.8c-5.2-0.8-10-2.7-14.8-4.6
	c-6.9-2.7-12.6-6.9-17.6-12.3c-0.4-0.4-0.8-0.7-1.4-1.3c0,0.8-0.1,1.2-0.1,1.7c0.5,4.4,0,8.8-0.5,13.2c-0.9,7.6-0.7,15.1,0.4,22.6
	c0.5,3.7,2.2,6.1,5.6,7.5c3.9,1.6,7.7,3.3,11.6,4.6c6.6,2.2,13.3,2.5,20.2,0.6c6-1.7,12.2-3.2,18.4-4.1c9.1-1.3,17.9-3.3,26.7-6
	c2.7-0.8,5.3-2.1,7.8-3.3c4.6-2.2,6.5-6.2,7.1-11.1C359.8,437.7,358.6,429.2,357.5,420.3z M347.6,295c-5.5,0.1-10.5-0.3-15.2-1.7
	c-2.4,1.3-4.7,2.7-7.1,3.9c-1.9,0.9-3.8,1.8-5.8,2.5c-4.3,1.4-8.6,2.4-12.9,3.8c-4.8,1.6-9.7,2-14.7,1.6c-5.2-0.4-10-2-14.8-3.8
	c-0.9-0.3-1.7-0.6-2.8-1c-2.5,11-10.7,17-19.2,22.9c2.8,2.4,5.3,4.7,6.5,8.6c2.8-3.7,5.2-7,8.3-9.6c-2.2,3.8-4.2,7.7-8.3,10.1
	c-0.9-0.7-1.8-1.4-2.8-2.2c-1.1,1.8-2.1,3.5-3.3,5.6c5.4,2.6,11,4.2,16.9,6.1c1.7-4.7,3.3-9.1,4.9-13.5c0.3,3.9-1.1,7.4-2.2,11.2
	c5.6,0.1,10.8,0.3,16.3,0.4c1.6-7.1,1-14.5,2.9-21.5c0.4,3,0.5,6,0.4,9c-0.1,3-0.4,6.1-0.6,9.1c6.4,0.5,12.7,1,19.2,1.6
	c0.2-0.7,0.8-1.6,0.9-2.6c0.4-3,0.6-6.1,0.9-9.2c0.3-3.1,0.6-6.2,1-9.3c0.2,0,0.3,0,0.5,0c0.7,6.8,0.8,13.5-0.5,20.3
	c5.2,0.7,10.3,1.3,15.8,2c-1-8.8-3.1-17.3-2.8-26.1c2,7.5,3.3,15.2,4.6,23.5c2.6-3.5,5.7-5.3,9.1-6.7c1.6-0.7,3.2-1.3,4.8-2
	c0.8-0.3,1.5-0.7,2.2-1.1c-2.1-3.7-4.1-7.1-5.8-10.6c-2.1-4.2-3.2-9-2.8-11.5c1.8,7.5,5.2,13.7,9.6,19.5c3.7-2.8,8.6-2.4,12.1-5.1
	c-0.1-0.4-0.1-0.6-0.2-0.7c-0.5-0.6-1-1.2-1.6-1.8c-3.8-4.1-7-8.5-9.4-13.5C350.5,300.6,349,297.8,347.6,295z M321.3,468.9
	c0,0.7,0,1.3,0,1.8c0,5.8,0.1,11.6,0.1,17.5c-0.1,7.4-1.6,14.4-6.5,20.2c-1.7,2-3,4.2-4.6,6.3c-1.1,1.4-1.8,2.9-2.1,4.7
	c-2.2,10.3-3.2,20.7-4.2,31.1c-1.4,14.8-1.1,29.6-0.9,44.4c0,0.5,0.2,1,0.3,1.9c0.5-0.8,0.7-1.2,0.9-1.6c2.3-5.1,4.7-10.1,6.9-15.3
	c4.1-9.3,8-18.6,12.1-27.9c2.9-6.5,5.8-13.1,9.1-19.4c4.5-8.7,9.3-17.3,14-26c2.8-5.2,5.1-10.5,5.4-16.4c0.1-2.3,0-4.6,0-6.8
	c0.2-5.7,0.3-11.5,0.6-17.2c0.1-2,0.3-3.9,0.5-6C342.8,464.8,332.1,466.7,321.3,468.9z M282.3,159c0.5,0.5,0.9,1,1.4,1.5
	c2.3,2.5,4.4,5.2,7,7.4c4.6,3.9,9.4,7.5,15.4,9.3c4.6,1.3,8.7,0.6,12.6-2c1.5-1,3-2.1,4.5-3c5.5-3.5,8.5-8.6,9.7-15
	c0.5-2.8,1.2-5.5,2.1-8.2c0.9-2.7,2.2-5.3,3.5-8.2c-1.4-1.1-2.7-2.4-4.3-3.4c-1.9-1.3-2.6-3-2-5.3c0.3-1.2,0.4-2.5,0.6-3.8
	c-1.6,1.9-1.8,4.4-3.3,5.8c-3.8,0.3-7-0.9-10.1-2.1c-0.6-0.2-1.2-0.4-1.8-0.5c-4.3-0.7-8.7-1.5-13-2c-7.2-0.9-14.3-0.4-21.2,1.9
	c-1.6,0.5-3.2,0.8-4.8,1.2c-0.1,0-0.3,0.2-0.4,0.2c-0.3,0.6-0.5,1.1-0.8,1.7c-0.1-0.1-0.3-0.1-0.4-0.2c0.5-1.7,1-3.3,1.5-5.3
	c-1.9,0.4-3.5,0.8-5.2,1.2c0.3,2.3,0.6,4.4,0.9,6.5c1.1,0.3,2.8-0.4,2.9,1.7c-0.9-0.2-1.7-0.3-2.6-0.5c0.6,6.1,1.1,12,1.6,17.9
	c1.6,0.5,2.8-1.4,4.5-0.4c-0.9,1.7-0.4,3.3,0.1,5c0.6,2,1.1,3.9,1.4,6c0.6,4.8,0.9,9.7,0.2,14.6c-0.1,0.5,0,1,0.1,1.7
	c7.7-0.8,15,1.1,22.5,2c0.3-2,0.6-4,0.9-6C295.4,175,287.7,168.4,282.3,159z M342.1,229.6c0.6,2.9,1.3,5.2,1.7,7.5
	c1.3,7.7-0.3,14.7-5.1,20.9c-1.4,1.8-2.9,3.5-4.4,5.3c-1.1,1.3-2.1,2.7-2.8,3.6c1.6,3.9,3.2,7.3,4.4,10.9c1.5,4.4,1.2,8.8-1.2,13
	c-0.2,0.3-0.3,0.7-0.5,1.2c1.5,0.2,2.8,0.5,4.1,0.7c2.6,0.2,5.2,0.5,7.8,0.4c9.1-0.1,15.9-4.2,20.9-11.6c1.7-2.5,2.5-5.4,2.9-8.4
	c0.8-7.3-0.1-14.5-1.7-21.5c-2.3-10-4.8-19.9-7-29.9c-1.6-7.2-5-13.2-10.3-18.2c-1-0.9-2.1-1.7-3.3-2.8c-1.7,3.4-2.4,6.7-3.1,10
	c-0.6,3.2,0,6.1,1.7,8.8c1.9,3.2,4.7,5.4,7.5,7.8c1.5,1.3,3,2.6,4.3,4.1c1.6,2,2.3,4.3,1.4,6.8c-0.2,0.5-0.3,1.1-0.3,1.6
	c-0.3,5.1-4.3,8.8-11.2,8.5c1.9-0.9,3.7-1.6,5.4-2.5c4.7-2.5,5.1-7.8,0.9-11c-0.6-0.4-1.1-0.9-1.8-1.2
	C348.9,232.2,345.6,231,342.1,229.6z M334.5,116.8c0.7,2.8,0.6,5.7,0.3,8.6c-0.3,2.6-0.7,5.1-1,7.7c-0.1,0.6-0.1,1.6,0.3,2
	c1.8,1.7,3.8,3.2,6,5c0.5-0.9,1-1.5,1.2-2.2c0.4-1.1,0.6-2.3,1-3.4c1.4-4.1,1.7-8.3,1.2-12.6c-0.5-4.2-0.2-8.6-2-12.7
	c-0.9-1.9-1.6-3.5-3.3-4.9c-4.5-3.7-9.5-6.1-15.4-6.2c-8.6-0.1-16.5,2-23.9,6.3c-3.9,2.3-7.5,5.1-11.4,7.5c-2,1.3-2.9,2.5-2.6,5.1
	c0.5,4.4-0.6,8.5-4.7,11.1c-1,0.6-1.1,1.6-0.9,2.8c1-0.3,1.8-0.5,2.6-0.7c4.2-1.4,8.5-2.5,12.9-2.5c4.7,0,9.4,0.2,14.1,0.7
	c5.2,0.5,10.3,1.5,15.1,3.6c1.5,0.7,3.3,0.9,5.1,1.4c1.1-2.9,2.2-5.6,3.1-8.4C333.1,122.3,333.7,119.6,334.5,116.8z M261.3,339.2
	c-1.5-0.6-2.6-1-3.8-1.4c-3.4-1.4-3.7-2.6-1.5-5.3c2.9-3.7,3.5-3.5-0.5-7.7c-0.6-0.6-1.5-1-1.3-2.2c0.5-0.5,1.1-1,1.7-1.5
	c3-2.7,6-5.3,9-8c3.1-2.8,5.5-6.1,7.2-9.8c0.5-1,1-2.1,1.6-3.3c-4.5-1.5-8.7-3-13.1-4.5c-0.3,1.5-0.5,2.7-0.8,3.9
	c-1.6,6.5-4.1,12.7-7,18.7c-5.1,10.7-10.2,21.4-15.4,32.2c5.1,3.3,4.9,8.4,4.8,13.1c4.9,3.6,9.6,7,14.5,10.6
	c-0.9-4.8,0.4-9.1,1.4-13.4c1-4.3,3.1-8.2,5.3-12.1c-0.8-0.3-1.4-0.5-2-0.7c-1.4-0.3-2.8-0.6-4.1-0.9c-1.9-0.5-2.1-1.1-0.9-2.5
	c0.8-0.9,1.8-1.8,2.6-2.7C259.7,341,260.4,340.2,261.3,339.2z M330.5,704.8c0.1-0.1,0.2-0.3,0.3-0.4c-0.4-1.1-0.8-2.2-1.4-3.2
	c-1-1.8-2.1-3.5-3.3-5.2c-4.5-6.1-8-12.8-11-19.7c-0.8-1.7-1.4-3.5-2.1-5c-1.6-0.7-3-1.5-4.5-2c-4.7-1.3-9,0-12.6,3
	c-2.8,2.4-5.2,5.2-7.8,7.9c0.9,1.9,1.6,3.7,2.5,5.3c2.2,4.3,4.5,8.7,6.7,13c1.7,3.2,3.8,6,6.7,8.1c0.9,0.7,1.8,0.9,2.8,0.2
	c4.2-2.7,8.9-3.3,13.8-3.5C324.1,703.1,327.3,703.5,330.5,704.8z M293.1,700.4c2.7,2.5,4,5.3,4.7,8.3c0.8,3.2,1.6,6.4,2.2,9.6
	c0.5,2.4,1.5,4.3,3.7,5.4c1.9,1,3.8,2.2,5.8,3.1c4.8,2.2,9.8,2.8,15,2.6c3-0.1,6-0.1,8.9-0.9c0.7-4,0.9-7.9,0.5-12.2
	c-2.6,1.3-5.1,1.8-7.8,1.5c-5.1-0.7-9.9-2.3-14.4-4.9c-1.7-1-3.4-2-5.1-2.9c-4.8-2.5-8.2-6.3-10.7-11c-1.9-3.7-3.7-7.5-5.6-11.2
	c-0.8-1.6-1.8-3.2-2.4-4.9c-1.2-3.4-2.9-6.8-2.1-10.7c0.1-0.3-0.1-0.7-0.2-1.1c-0.3,0.1-0.5,0.1-0.5,0.2c-0.2,0.4-0.4,0.9-0.5,1.3
	c-1.1,4.2-1.3,8.5-1.2,12.9c0.2,5.2,0.5,10.4,0.7,15.6c0.1,3.5,0,6.9,0,10.4c0,0.5,0.2,1.1,0.6,1.4c2.1,1.4,4.3,2.8,6.7,4.3
	C292.1,711.6,292.6,706.2,293.1,700.4z M254.2,379.6c-5.5-2.4-9.7-6.6-14-10.6c-1.6,1.3-3,2.7-4.6,3.5c-1.6,0.8-3.5,1-5.3,1.4
	c-0.1,1.4-0.2,3-0.5,4.5c-0.2,1.2,0.1,2,1,2.6c1.5,1,2.9,2.1,4.4,3.2c2.7,1.9,5.5,3.7,8.1,5.8c2.2,1.7,4.2,3.7,6.6,5.7
	c1.4-2.6,2.9-5.3,4.4-8.1c0.2,0.1,0.3,0.2,0.5,0.2c-1.9,4.8-4,9.5-6.6,14c-2.5,4.5-5.1,8.9-7.8,13.7c1.5-0.3,2.6-0.5,3.7-0.6
	c1.1-0.1,1.7-0.6,2.2-1.5c1.4-2.6,3-5.2,4.4-7.8c2.7-5,5.3-10,7.9-15c1.1-2.2,2.3-4.3,3.5-6.4c0.8-1.6,0.7-2.1-0.7-3.1
	c-1.1-0.8-2.1-1.6-3.1-2.6c-4.7-4.6-9.8-8.9-15.1-12.8c-0.3-0.3-0.8-0.4-1.3-0.6c-0.5,1.1-0.9,2.1-1.3,3.1
	C245.4,371.9,250.3,375.1,254.2,379.6z M380.3,344.1c-0.2-0.5-0.4-0.7-0.5-1c-2.8-5.6-6-11-7.8-17.1c-1-3.3-2.4-6.5-4-9.5
	c-3.8-7.4-6.6-15.1-8.8-23.1c-0.1-0.4-0.4-0.8-0.5-1c-3.2,1-6.2,1.9-9.4,2.9c2.6,5.8,5.5,11.3,9.7,16.1c1.7,2,3.5,3.8,5.3,5.7
	c1.7,2,1.4,3.6-1,4.7c-1.5,0.7-3.1,1.1-4.7,1.6c-1.6,0.5-3.3,0.9-5,1.4c0.1,0.5,0.2,0.8,0.3,1.1c1.4,3.6,3.6,6.8,6.5,9.4
	c1.4,1.3,2.6,2.6,1.3,4.6c1.1,0.9,2.1,1.7,3,2.5c2.2,1.8,4.3,3.6,6.5,5.5c0.9,0.7,1.7,0.7,2.6,0.2
	C375.8,346.8,378,345.5,380.3,344.1z M330.1,265.7c2.6-3.1,5.2-6.1,7.6-9.3c2.7-3.5,4.4-7.4,4.8-11.8c0.5-5.2-0.5-10.3-1.5-15.4
	c-3,0.1-5.7,0.6-8.3,1.6c-3.7,1.4-7.2,3.2-10.4,5.5c-0.9,0.6-1.3,1.4-1,2.4c1.3,5.5,1.5,11.2,1.3,16.9c0,1-0.1,2.1,0.1,3.1
	c0.2,1.1,0.3,2.3,1.5,3C326.2,262.9,328,264.2,330.1,265.7z M216.3,398.5c0.2,0.1,0.3,0.1,0.5,0.2c0.3-0.4,0.7-0.7,1-1.1
	c1.9-2.6,3.8-5.2,5.6-7.8c0.8-1.1,1.7-2.1,2.2-3.3c1.5-3.9,2.8-7.8,3.3-12c0.2-1.6-0.3-2.5-1.5-3.4c-3.7-2.8-8-3.6-12.4-3.8
	c-0.5,0-1.2,0.4-1.5,0.9c-2.6,4.5-6.1,8.2-9.5,12c-1.2,1.4-1.9,2.8-2,4.6c0,2.7,0,5.3,0,8c0,1.5,0.8,2.4,2.4,2.8
	c0.1-1.4,0.1-2.7,0.2-3.9c0.6,0.9,0.6,2,1,2.8c0.3,0.8-0.2,2.1,1.4,2.4c0.1-0.7,0.2-1.3,0.3-1.9c0.1-0.6,0.2-1.3,0.2-1.9
	c0.2,0,0.3,0,0.5,0c0.3,1.8-0.3,3.8,1.3,5.2c1.5,1.2,2.7,2.8,5,3.3c0.8-2.8-2.3-3.6-2.6-5.6c1.2-2,2.3-4,3.5-5.9
	c1.2-1.9,2-4,4.2-5.3C217.6,389.1,217.4,393.9,216.3,398.5z M237.3,416.8c0.5-0.7,0.7-0.9,0.9-1.2c3.4-5.7,6.7-11.3,10.2-17
	c0.8-1.3,0.1-2.1-0.8-2.8c-3.2-2.6-6.4-5.1-9.6-7.7c-2.6-2.1-5.1-4.2-7.6-6.3c-0.3-0.2-0.6-0.4-1-0.6c-0.3,0.9-0.5,1.7-0.7,2.4
	c-0.7,3-2.1,5.5-4.4,7.7c-2.7,2.6-4.7,5.7-6.6,9.2C224.9,404.9,231.2,410.5,237.3,416.8z M200.6,383.5c2.9-6.5,8.7-10.7,12.1-16.3
	c-0.9-1.2-1.8-2.4-2.8-3.5c-0.4-0.5-1-0.9-1.6-1.3c-4.2-2.3-8.1-5.2-11.3-8.7c-1.5-1.7-2.9-3.5-4.4-5.4c-4.4,5.7-7,12.3-10.2,18.8
	C187.9,373.1,194.5,377.9,200.6,383.5z M210.8,357.8c0.1,0.9,0.1,1.9,0.2,2.8c0.5,3.7,1.3,4.5,5,5c0.5,0.1,1.1,0.2,1.6,0.2
	c4.6,0.5,8.7,1.9,12.2,5.1c1.4,1.3,2.9,1.5,4.5,0.6c3-1.8,5.3-4.1,6-7.8c0.4-2.4,0.3-4.9-0.4-7.2c-0.5-1.7-1.2-3.3-2.8-4.2
	c-2.1-1.1-4.2-2.2-6.4-3c-3.8-1.3-7.6-1.9-11.5-0.3c-1.5,0.6-2.9,1.4-4.3,2.1C212,352.5,210.6,354.6,210.8,357.8z M282.6,674.9
	c-1.7-1.8-3.2-3-4.2-4.5c-3-4.5-5.7-9.3-6.6-14.8c-0.7-4.4-0.9-8.9-1.4-13.4c-0.1-0.8,0.3-1.7-0.5-2.5c-2.9,5.1-5.3,10.2-7.3,15.5
	c-1.2,3.1-2.6,6.1-3.8,9.1c-0.3,0.7-0.7,1.5-0.5,2.2c0.5,2.3,1.3,4.5,2.6,6.4c1.3,0,1.9-0.5,2.3-1.5c1.5-3.2,3-6.4,4.5-9.6
	c0.2-0.4,0.4-0.9,0.7-1.2c0.3-0.4,0.9-0.9,1.2-0.8c0.5,0.1,1,0.7,1.3,1.2c0.3,0.5,0.4,1.2,0.4,1.8c0,1.9,0,3.8-0.3,5.6
	c-0.6,3.8-1.5,7.6-2.3,11.3c-0.3,1.5,0,3,0.8,4.3c2.2,3.5,4.6,7,7.7,9.8c1.5,1.4,3.2,2.7,5.3,3.6C282.4,689.6,281.5,682,282.6,674.9
	z M320.4,236.5c-6.2-2.5-12-4.2-18.1-5c-6.1-0.9-12.1-2.3-18.9-1.2c1,0.6,1.4,1,1.9,1.2c12.4,6.8,12.8,7.1,22,17.8
	c0.2,0.2,0.3,0.4,0.5,0.5c3,3.7,6.8,6.5,10.8,9c1.1,0.7,2.3,1.1,3.8,1.8c0.1-1.3,0.2-2.1,0.1-3c-0.1-2.3-0.3-4.7-0.5-7
	c-0.2-2.6-0.3-5.2-0.6-7.8C321.1,240.6,320.7,238.5,320.4,236.5z M271,129c2.2-0.4,4.5-0.8,6.7-1.4c3-0.8,4.8-2.9,5.6-5.9
	c1.5-5.5-0.8-12.5-5.5-15.8c-2.3-1.6-4.9-2.4-7.8-1.8c-3.6,0.7-6.1,2.9-8.2,5.5c-3,3.7-3.4,7.7-1.5,11.9
	C262.3,126.2,265.8,128.8,271,129z M382.4,366.9c2.3,0.2,4.3-0.7,5.8-2.2c2.1-2.1,3.9-4.5,5.7-6.8c1.1-1.5,1.2-3.3,0.3-4.9
	c-1.1-2.1-2.3-4.2-3.7-6c-2.4-3.1-4.5-3.4-8.1-1.9c-3.5,1.6-7,3.1-10.6,4.7c-0.5,0.2-1,0.5-1.3,0.9c-3.4,3.9-2.3,10.7,2.2,13.4
	C375.7,365.8,379,366.6,382.4,366.9z M321.1,199.8c-1.3,0.8-2.5,1.6-3.6,2.3c-1.1,0.7-2.3,1.3-3.5,0.7c-1.7-0.8-3.2-0.4-4.7,0.3
	c-1.3,0.6-2.7,0.6-4.1,0.2c-1.4-0.4-3-0.6-4.4-0.4c-2.1,0.3-3.8-0.3-5.6-1.4c-1.6-1-3.3-1.8-5.1-2.4c-1.2-0.4-2.7-0.2-4-0.3
	c-2.1,0-4-0.7-5.6-2.2c-0.7-0.7-1.3-1.3-2.1-1.9c-0.7-0.5-1.6-0.9-2.4-1.4c-1.7,2.5-3.3,4.7-4.8,6.9c1.2,2.8,3.2,3.7,5.9,3.4
	c2.9-0.3,5.4,0.5,7.5,2.6c2.2,2.1,4.7,2.7,7.6,2.2c3-0.5,5.9-0.2,8.7,1.4c2.8,1.7,5.8,1.9,8.8,0.6c1.7-0.7,3.3-0.7,5.1-0.2
	c1,0.3,2,0.4,3,0.3c1.4-0.1,5.8-2.5,7.1-3.7C324.2,204.6,322.9,202.2,321.1,199.8z M282.9,672.6c1.1-2.3,2.5-4,2.6-6.2
	c0.2-7.6,0.3-15.3,0.4-22.9c0-0.8-0.1-1.7-0.1-2.7c-4-0.6-7.8-0.2-11.5,1c-1.9,0.6-2.3,1.3-2.2,3.3c0.4,8.4,2.6,16.3,7.4,23.3
	C280.5,669.8,281.6,671,282.9,672.6z M346.3,199c-0.1-0.1-0.2-0.1-0.3-0.2c-3.1,2.6-6.3,5.1-9.4,7.8c-0.9,0.8-1.5,1.8-2.2,2.8
	c-4,6.1-2.9,11.5,3.1,15.7c2.9,2,6.1,3.3,9.4,4.3c3.6,1,6.9,2.5,9.7,5.2c0.1,0.1,0.3,0.1,0.6,0.2c-0.7-2.4-1.1-2.9-3.3-4.9
	c-2.2-2-4.6-3.8-6.6-6c-3.9-4.2-5.6-9.1-4.1-14.8c0.4-1.4,0.9-2.7,1.3-4C345.1,203,345.7,201,346.3,199z M319.9,198.3
	c-0.8-1.5-1.7-2.3-3.1-2.4c-0.6-0.1-1.2-0.4-1.8-0.6c-1.4-0.5-2.8-1-4.2-1.4c-1.4-0.4-2.8-0.5-3.8-1.6c-0.7-0.7-1.4-0.4-2.2-0.3
	c-2.6,0.3-5.3,0.7-8,0.7c-5.9-0.2-11.8-0.8-17.2-3.8c-0.8,1.4-1.6,2.6-2.3,3.9c1,0.6,2.1,1.1,2.8,1.8c2.2,2.2,4.8,2.8,7.7,2.7
	c3.1-0.1,5.9,0.8,8.4,2.7c1.4,1.1,2.9,1.3,4.6,1.1c1.4-0.2,3-0.1,4.4,0.3c1.4,0.4,2.6,0.4,3.9-0.2c1.5-0.7,3.1-0.9,4.8-0.3
	c0.6,0.2,1.4,0.2,2-0.1C317.2,200,318.5,199.1,319.9,198.3z M311.1,470.2c1.7,13.8,2.5,27.2-0.8,40.5c1.3-1.4,2.2-2.9,3.3-4.3
	c3.6-4.6,5.4-9.9,5.6-15.7c0.3-6.9,0.6-13.8,1-20.7c0-0.4-0.2-0.7-0.3-1.3C316.8,469.3,314,469.8,311.1,470.2z M352.5,326.4
	c-1.1,2.2-1.2,2.3-3.4,3.3c-1.2,0.5-2.5,1-3.8,1.4c-3.9,1.1-7.2,3.3-10.2,5.9c0.5,2,1.1,3.9,1.7,6.1c1.3-0.4,2.3-0.7,3.4-0.9
	c4.2-1.1,8.5-1.7,12.8-1.4c2.9,0.2,5.1-1,7.7-2.5C357.1,334.7,354.1,331.1,352.5,326.4z M333.9,713.8c0-0.3,0.1-0.6-0.1-0.8
	c-0.9-1.4-1.9-2.8-1.7-4.7c0-0.4-0.6-1-1-1.2c-1.6-0.7-3.3-1.5-5-1.9c-3.7-0.8-7.5-0.5-11.3,0.1c-2.6,0.4-5.1,1.3-7.7,2.6
	c0.5,0.4,0.9,0.8,1.3,1c4.4,2.9,9.3,4.9,14.4,6.2C326.6,716,330.3,715.9,333.9,713.8z M334.6,338.5c-1.1,2.8-1.8,3.2-4.8,2.7
	c-0.4-0.1-0.8-0.2-1.1-0.3c-1.8-0.4-3.7-0.9-5.5-1.3c-2.4-0.5-4.9-1-7.5-1.5c0.1,4,0.3,7.8,0.4,11.7c6.4-0.6,12.7-1.1,19.3-1.7
	C335,344.7,334.8,341.6,334.6,338.5z M257.6,345.4c0.3,0.2,0.4,0.3,0.5,0.3c6,1.3,11.7,3.6,17.4,5.7c1.5,0.6,2,0.4,2.7-1.3
	c1-2.8,1.8-5.8,2.8-8.8c-2.2-0.4-4.2-0.7-6-1.1c-0.3,0.4-0.4,0.6-0.6,0.8c-1.2,2.1-1.6,2.3-4,1.6c-2.3-0.7-4.5-1.5-6.7-2.2
	c-0.6-0.2-1.3-0.5-1.9-0.7C260.4,341.6,259.1,343.4,257.6,345.4z M294.2,337.6c-1.7,4.6-1.7,4.6-6.4,3.9c-0.2,0-0.3-0.1-0.5-0.1
	c-1.7,0-3.4,0-5.2,0c-0.7,2.8-1.4,5.6-2.1,8.2c3.6,0.9,6.9,1.6,10.3,2.5c2.7,0.7,3.3,0.6,4.1-2.2c1.1-3.7,1.8-7.6,2.7-11.5
	C296.1,338.1,295.2,337.9,294.2,337.6z M312.1,668.2c-0.5-1.7-0.9-3.2-1.4-4.8c-0.7-2.2-1.1-2.6-3.5-2.8c-4.2-0.3-8.1,0.8-11.5,3.3
	c-3.5,2.6-6.2,6-8.3,9.9c-0.9,1.7-0.6,3.3,0.5,5c0.4-0.6,0.8-1,1-1.4c1.9-2.8,4-5.3,6.7-7.3c3.5-2.6,7.4-3.8,11.8-3.2
	C308.8,667.1,310.3,667.7,312.1,668.2z M282.1,611.9c-2.3,3-8.3,17.7-8.8,21.3c3.6-2.2,7.3-3.7,11.9-2.7
	C284.1,624.2,283.1,618.2,282.1,611.9z M305.5,189.8c-0.3-1.4-0.5-2.4-0.7-3.4c-7.9-0.3-15.3-2.7-23.1-2.3c-0.6,1-1.3,2-2.2,3.5
	C288.2,190,296.5,191.3,305.5,189.8z M272.1,641.7c4.2-3.1,8.8-3.4,13.6-3.2c-0.2-2.2-0.3-4.1-0.5-6c-4.1-0.5-6-0.3-9.2,1.1
	c-4.3,1.9-4.4,2.1-4.2,6.6C271.9,640.6,271.9,640.9,272.1,641.7z M276,157.1c0.3,3.2,0.6,6.2,0.8,9.2c0.2,2.8,1.9,4.6,3.9,6.4
	c0-5.2,0.2-10.5-1.9-15.4C277.7,157.2,277,157.2,276,157.1z M336.9,227.6c0-0.2,0.1-0.4,0.1-0.6c-4.2-3.1-6.7-7.6-10-11.5
	c1.7,4.5,3.3,8.9,5.1,13.5C333.8,228.4,335.4,228,336.9,227.6z M269.3,663c-1.7,3-3.4,5.9-5.3,9.1c1.5,0.1,2.7,0.2,3.9,0.3
	C269,669.9,269.9,665.4,269.3,663z M293.8,716.3c1.3-0.6,2.3-1,3.5-1.5c-0.8-3.2-1.7-6.2-2.5-9.2c-0.2,0-0.4,0.1-0.6,0.1
	C294.1,709.1,294,712.5,293.8,716.3z M212.7,396.1c0.8,0.5,1.4,0.8,2.1,1.3c0.6-1.9,1.1-3.5,1.6-5.1c-0.1-0.1-0.2-0.1-0.3-0.2
	C215.1,393.3,214,394.6,212.7,396.1z"/>
<path class="st0" d="M264.1,348.7c3.2,1.1,6.2,2.2,9.2,3.3c0.6,0.2,1.2,0.5,1.8,0.7c2.1,0.8,2.7,0.6,4-1.2c0.2-0.2,0.4-0.5,0.7-1
	c2.2,0.7,4.4,1.3,6.7,2c1.7,0.5,3.3,1.1,5,1.5c2.1,0.5,3.1,0.1,4-1.9c0.4-0.8,0.7-1.6,0.8-2.4c0.7-3.6,1.3-7.3,2.1-11.2
	c5,0.6,10.2,1.3,15.3,2c0,3.7,0,7.1,0,10.8c-5.5-1.4-10.9-2-16.8-0.7c0.8,0.3,1.1,0.5,1.5,0.5c1.3,0.1,2.5,0.1,3.8,0.2
	c3.2,0.1,6.3,0.6,9.3,1.5c2.9,0.8,3.1,0.7,4.8-2c5.2-0.2,10.6-0.4,16-0.5c4.4-0.1,5.2-1,4.8-5.4c0-0.3,0-0.6,0-1.2
	c6.5-1.4,13.2-1.2,19.9-2c0.1,0.8,0.3,1.3,0.3,1.9c0.4,11.4,0.9,22.8,1.1,34.2c0.2,9.1,0.1,18.3-0.1,27.4c-0.1,3.4-0.6,6.9-1.1,10.3
	c-0.2,1.7-1,3.3-2.5,4.4c-1.6,1.1-3.2,2.3-4.9,3.3c-6.8,4.1-14.3,6.5-21.9,8.6c-5.5,1.6-11,3.2-16.6,4.5c-6.9,1.7-13.8,1.2-20.6-0.6
	c-8.4-2.2-16.4-5.6-23.2-11.2c-0.1-0.1-0.2-0.2-0.4-0.3c-4.6-2.5-6.9-6.8-8.5-11.5c-1.3-4-2.1-8.2-2.9-12.4c-0.2-0.9,0.2-2,0.7-2.9
	c2.1-4,4.3-8.1,6.5-12c0.8-1.4,0.6-2.5-0.1-3.9c-1.2-2.1-2.7-3.9-4.4-5.5c-0.6-0.5-1.2-1-1-2c0.6-3.1,1-6.2,1.8-9.3
	c1.1-4.3,2.5-8.6,3.8-12.9C263.3,350.9,263.7,350,264.1,348.7z"/>
<path class="st0" d="M269.3,202c0.4-0.7,0.4-0.7,1.5-1.1c0.2,0.6,0.5,1.1,0.7,1.7c0.8,1.6,2,2.6,3.8,2.8c0.5,0.1,1.1,0.2,1.6,0.2
	c2.7-0.1,4.9,0.8,6.8,2.7c2.4,2.4,5.4,3,8.5,2.5c3-0.5,5.8-0.1,8.4,1.4c3,1.6,6.1,1.9,9.3,0.6c1.4-0.6,2.9-0.8,4.4-0.2
	c2.2,0.8,4.3,0.5,6.4-0.6c1.3-0.7,2.6-1.3,4.2-2.1c1.4,6.7,2.8,13.2,5.8,19.2c-3.3,2.1-6.6,4.2-10,6.4c-2.9-2.6-6.9-3.5-10.8-4.4
	c-6.4-1.5-12.8-2.6-19.4-2.6c-2.6,0-5.2,0.3-7.7,0.6c-1.3,0.2-2.4-0.1-3.3-0.8c-2.8-2.1-5.6-4.3-8.4-6.4c-0.4-0.3-0.8-0.7-1.5-0.8
	c0.2,0.3,0.3,0.7,0.6,1c3.7,4,7.7,7.4,12.5,10c3.2,1.7,6.3,3.6,9.4,5.4c3.3,1.9,6.1,4.4,8.6,7.3c1.7,2,3.4,3.9,5.1,5.9
	c4.4,5.2,9.7,9.2,15.9,12c4.9,2.2,8.5,5.6,10.4,10.7c1.2,3.2,2.4,6.3,2.7,9.7c0.3,3-0.5,5.8-2.2,8.3c-1.1,1.6-2.5,2.6-4.6,3
	c-1.8,0.4-3.5,1.4-5.3,2c-2.3,0.8-4.6,1.5-6.9,2.2c-2.4,0.7-4.9,1.2-7.2,2.1c-8.4,3.4-16.9,3.3-25.4,0.7c-5.4-1.7-10.7-3.7-16.1-5.5
	c-3.8-1.3-7.6-2.4-11.5-3.6c-5.4-1.6-10.3-4.2-14.8-7.7c-5-3.8-7.5-8.9-8.8-14.9c-1.8-8.6-2.8-17.2-3.2-26
	c-0.3-7.9,0.2-15.7,1.8-23.5c0.8-3.6,2.5-6.6,5.1-9.1c4.2-4.1,8.4-8,12.6-12.1c3.2-3.1,7.1-3.9,11.3-3.5c1.6,0.2,3.3,0.5,4.9,0.7
	c2.2,0.3,4.5,0.5,7,0.8c-0.9,1.3-1.8,2.6-2.7,3.8C268.5,201.3,268.8,201.7,269.3,202c-0.5,0.9,0,1.6,0.4,2.4
	c2.8,6.2,5.6,12.5,8.5,18.7c0.7,1.5,1.3,3.2,2.8,4.3c-0.3-1.9-0.6-3.9-1.3-5.6c-2.7-6.5-5.6-12.8-9.8-18.5
	C269.6,202.9,269.4,202.4,269.3,202z M330.1,286.9c-0.1-1.7-0.7-3.3-2.1-4.5c-1.3-1.1-2.1-1-3.3,0.2c-0.4,0.4-1,0.8-1.5,1.2
	c-1.6,1.4-2.1,3.4-1.2,5.1c0.9,1.8,3,2.8,5,2.3C328.8,290.7,330.1,289,330.1,286.9z"/>
<path class="st0" d="M287.6,670.1c0-3,0-5.4,0-7.8c0.1-4.3,0.2-8.7,0.3-13c0.3-11.2-1.4-22.2-3.1-33.3c-1.9-12.1-5.2-23.8-8.6-35.5
	c-2.9-10.2-4-20.5-3.6-31.1c0.2-5.6,1.6-11,3-16.4c1.3-5,2.5-9.9,3.8-14.9c1.2-5,1.5-10.1,1-15.2c-0.7-6.9-1.5-13.8-2.3-20.6
	c-0.3-2.3-0.6-4.5-0.9-6.8c-0.1-1-0.1-2-0.2-3.3c1.6,0.4,2.9,0.8,4.3,1.1c5.8,1.7,11.6,1.7,17.5,0.1c3-0.9,6.1-1.6,9.1-2.4
	c0.6-0.2,1.2-0.2,2.1-0.3c0.2,2.7,0.5,5.3,0.5,7.8c0,6.4,0.3,12.8-0.3,19.1c-0.6,6-2.1,11.9-3.2,17.9c-0.1,0.7-0.7,1.4-0.9,2.1
	c-0.3,1.2-0.5,2.4-0.6,3.6c-0.1,0.7,0,1.4-0.1,2.1c-2.3,14.8-4,29.6-4,44.6c-0.1,13.4,0,26.8,0.1,40.1c0.2,16.3,2.9,32.3,7.3,47.9
	c0.2,0.8,0.4,1.6,0.7,2.6C299.4,657.7,292.8,662.1,287.6,670.1z"/>
<path class="st0" d="M357.5,420.3c1.1,8.9,2.3,17.5,1.2,26.2c-0.6,5-2.5,8.9-7.1,11.1c-2.5,1.2-5.1,2.5-7.8,3.3
	c-8.7,2.7-17.6,4.6-26.7,6c-6.2,0.9-12.3,2.4-18.4,4.1c-6.9,1.9-13.6,1.7-20.2-0.6c-3.9-1.3-7.8-3-11.6-4.6
	c-3.4-1.4-5.1-3.8-5.6-7.5c-1-7.5-1.3-15-0.4-22.6c0.5-4.4,1-8.8,0.5-13.2c0-0.4,0-0.9,0.1-1.7c0.6,0.6,1,0.9,1.4,1.3
	c5,5.4,10.7,9.6,17.6,12.3c4.9,1.9,9.7,3.8,14.8,4.6c6.1,1,12.2,0.7,18.3-0.8c8.6-2.2,17.2-4.6,25.5-7.8
	C345.5,427.9,351.8,425,357.5,420.3z"/>
<path class="st0" d="M347.6,295c1.4,2.8,2.9,5.6,4.3,8.4c2.4,5,5.6,9.5,9.4,13.5c0.5,0.6,1.1,1.2,1.6,1.8c0.1,0.1,0.1,0.3,0.2,0.7
	c-3.6,2.6-8.4,2.2-12.1,5.1c-4.5-5.8-7.8-12-9.6-19.5c-0.4,2.5,0.7,7.2,2.8,11.5c1.7,3.5,3.8,6.9,5.8,10.6c-0.7,0.4-1.4,0.8-2.2,1.1
	c-1.6,0.7-3.2,1.3-4.8,2c-3.4,1.4-6.5,3.2-9.1,6.7c-1.3-8.3-2.6-16-4.6-23.5c-0.3,8.7,1.8,17.2,2.8,26.1c-5.5-0.7-10.6-1.3-15.8-2
	c1.3-6.8,1.2-13.6,0.5-20.3c-0.2,0-0.3,0-0.5,0c-0.3,3.1-0.7,6.2-1,9.3c-0.3,3.1-0.5,6.1-0.9,9.2c-0.1,1-0.6,1.9-0.9,2.6
	c-6.5-0.5-12.8-1.1-19.2-1.6c0.2-3.1,0.5-6.1,0.6-9.1c0.1-3,0-6-0.4-9c-1.9,7-1.3,14.3-2.9,21.5c-5.5-0.1-10.8-0.3-16.3-0.4
	c1-3.8,2.5-7.3,2.2-11.2c-1.6,4.4-3.2,8.8-4.9,13.5c-5.8-1.8-11.5-3.4-16.9-6.1c1.2-2,2.2-3.7,3.3-5.6c1,0.8,1.8,1.5,2.8,2.2
	c4.1-2.3,6.1-6.3,8.3-10.1c-3.1,2.7-5.6,5.9-8.3,9.6c-1.2-3.9-3.7-6.2-6.5-8.6c8.5-5.9,16.7-12,19.2-22.9c1.1,0.4,2,0.7,2.8,1
	c4.8,1.8,9.6,3.4,14.8,3.8c5,0.4,9.9-0.1,14.7-1.6c4.3-1.4,8.6-2.4,12.9-3.8c2-0.6,3.9-1.5,5.8-2.5c2.4-1.2,4.7-2.5,7.1-3.9
	C337.1,294.7,342.1,295.1,347.6,295z"/>
<path class="st0" d="M321.3,468.9c10.7-2.2,21.5-4.1,31.6-8.9c-0.2,2.1-0.4,4.1-0.5,6c-0.2,5.7-0.4,11.5-0.6,17.2
	c-0.1,2.3,0.1,4.6,0,6.8c-0.3,6-2.5,11.3-5.4,16.4c-4.8,8.6-9.5,17.2-14,26c-3.3,6.4-6.2,12.9-9.1,19.4c-4.1,9.3-8.1,18.6-12.1,27.9
	c-2.2,5.1-4.6,10.2-6.9,15.3c-0.2,0.4-0.5,0.8-0.9,1.6c-0.2-0.9-0.3-1.4-0.3-1.9c-0.2-14.8-0.5-29.6,0.9-44.4
	c1-10.4,1.9-20.8,4.2-31.1c0.4-1.7,1.1-3.3,2.1-4.7c1.6-2.1,2.9-4.3,4.6-6.3c4.9-5.9,6.5-12.8,6.5-20.2c0-5.8,0-11.6-0.1-17.5
	C321.3,470.1,321.3,469.6,321.3,468.9z"/>
<path class="st0" d="M282.3,159c5.5,9.3,13.1,16,23.4,19.6c-0.3,2-0.6,4-0.9,6c-7.6-0.9-14.8-2.8-22.5-2c0-0.6-0.1-1.2-0.1-1.7
	c0.6-4.9,0.3-9.7-0.2-14.6c-0.2-2-0.8-4-1.4-6c-0.5-1.7-1-3.3-0.1-5c-1.7-1-2.9,0.8-4.5,0.4c-0.5-5.9-1.1-11.8-1.6-17.9
	c0.9,0.2,1.7,0.3,2.6,0.5c-0.1-2.1-1.8-1.4-2.9-1.7c-0.3-2.1-0.6-4.2-0.9-6.5c1.7-0.4,3.3-0.8,5.2-1.2c-0.6,2-1.1,3.6-1.5,5.3
	c0.1,0.1,0.3,0.1,0.4,0.2c0.3-0.5,0.5-1.1,0.8-1.7c0.1-0.1,0.2-0.2,0.4-0.2c1.6-0.4,3.2-0.7,4.8-1.2c6.9-2.3,14-2.8,21.2-1.9
	c4.4,0.5,8.7,1.3,13,2c0.6,0.1,1.2,0.3,1.8,0.5c3.2,1.1,6.3,2.4,10.1,2.1c1.5-1.4,1.7-3.9,3.3-5.8c-0.2,1.3-0.3,2.6-0.6,3.8
	c-0.6,2.3,0.1,3.9,2,5.3c1.5,1.1,2.9,2.3,4.3,3.4c-1.2,2.9-2.5,5.5-3.5,8.2c-0.9,2.7-1.6,5.4-2.1,8.2c-1.2,6.4-4.2,11.5-9.7,15
	c-1.5,1-3,2.1-4.5,3c-3.9,2.6-7.9,3.3-12.6,2c-6-1.7-10.8-5.4-15.4-9.3c-2.6-2.2-4.7-4.9-7-7.4C283.2,160.1,282.7,159.6,282.3,159z
	 M293.9,140.7c-1.3,2.1-0.5,4.4,2,5.3c1.3,0.4,2.8,0.6,4.2,0.6c3.1,0,4.3-1.2,4.8-4.3c0-0.2,0.1-0.4,0.2-0.7
	c0.8,0.1,1.7,0.2,2.5,0.2c-0.1-0.8-0.4-1.4-0.9-1.6c-3.4-2-6.9-2.8-10.8-1.7C294.5,138.9,293.9,139.5,293.9,140.7L293.9,140.7z
	 M331.1,145.4c0.9,1.4,0.7,2.7,0.3,3.9c-0.4,1.2-2.3,2.3-3.3,2.1c-1.3-0.3-2.1-1.4-2.2-2.9c0-0.3,0-0.6-0.1-0.9
	c-1,1.4-0.9,2.8,0.3,3.8c1.3,1.2,3.1,1.3,4.7,0.7c1.5-0.5,2.1-1.9,2.1-3.4c0-0.9-0.3-1.8-0.4-2.8c0.5-0.4,1-0.8,1.5-1.3
	c-2.5-1.5-5.4-1.1-7.6,1.2C328,145.6,329.6,145.5,331.1,145.4z M318.5,168.1c0-0.2,0.1-0.5,0.1-0.7c-1.9-0.2-3.7-0.4-5.6-0.7
	C314.8,167.8,316.6,168.2,318.5,168.1z M321,157.3c0.2,0.1,0.3,0.2,0.5,0.3c0.1-0.3,0.2-0.7,0.4-1c-0.1,0-0.2-0.1-0.3-0.1
	C321.3,156.7,321.2,157,321,157.3z"/>
<path class="st0" d="M342.1,229.6c3.5,1.4,6.8,2.7,10,4c0.6,0.3,1.2,0.7,1.8,1.2c4.2,3.2,3.7,8.5-0.9,11c-1.7,0.9-3.5,1.6-5.4,2.5
	c6.8,0.3,10.9-3.4,11.2-8.5c0-0.5,0.1-1.1,0.3-1.6c0.9-2.6,0.2-4.9-1.4-6.8c-1.3-1.5-2.8-2.8-4.3-4.1c-2.8-2.4-5.6-4.6-7.5-7.8
	c-1.7-2.8-2.3-5.7-1.7-8.8c0.7-3.3,1.4-6.6,3.1-10c1.2,1,2.3,1.8,3.3,2.8c5.3,5,8.7,11,10.3,18.2c2.2,10,4.7,19.9,7,29.9
	c1.6,7.1,2.5,14.3,1.7,21.5c-0.3,3-1.2,5.9-2.9,8.4c-5,7.4-11.9,11.6-20.9,11.6c-2.6,0-5.2-0.2-7.8-0.4c-1.3-0.1-2.6-0.4-4.1-0.7
	c0.2-0.5,0.3-0.9,0.5-1.2c2.4-4.1,2.7-8.5,1.2-13c-1.2-3.6-2.8-7-4.4-10.9c0.7-0.9,1.8-2.3,2.8-3.6c1.4-1.8,3-3.5,4.4-5.3
	c4.9-6.2,6.5-13.2,5.1-20.9C343.3,234.7,342.7,232.4,342.1,229.6z"/>
<path class="st0" d="M334.5,116.8c-0.7,2.8-1.4,5.6-2.2,8.3c-0.9,2.8-2,5.4-3.1,8.4c-1.8-0.5-3.5-0.8-5.1-1.4
	c-4.8-2.1-9.9-3.1-15.1-3.6c-4.7-0.5-9.4-0.6-14.1-0.7c-4.4,0-8.7,1.1-12.9,2.5c-0.8,0.3-1.6,0.5-2.6,0.7c-0.2-1.2-0.1-2.2,0.9-2.8
	c4.1-2.6,5.2-6.7,4.7-11.1c-0.3-2.6,0.5-3.8,2.6-5.1c3.9-2.4,7.5-5.2,11.4-7.5c7.3-4.3,15.3-6.4,23.9-6.3c6,0.1,10.9,2.4,15.4,6.2
	c1.7,1.4,2.5,3,3.3,4.9c1.9,4.1,1.5,8.4,2,12.7c0.5,4.2,0.2,8.5-1.2,12.6c-0.4,1.1-0.6,2.3-1,3.4c-0.2,0.7-0.7,1.3-1.2,2.2
	c-2.1-1.8-4.1-3.3-6-5c-0.4-0.4-0.4-1.3-0.3-2c0.3-2.6,0.7-5.1,1-7.7C335.1,122.5,335.2,119.6,334.5,116.8z"/>
<path class="st0" d="M342.1,140.4c-0.1,1-0.2,2-0.4,3c-0.8,4.8,0.3,9.4,1.7,13.9c1.6,5.3,3.5,10.5,5.1,15.7c0.8,2.5,1.3,5.2,1.8,7.8
	c1.1,6.1-0.8,11.4-5,15.8c-1.7,1.8-3.6,3.2-5.5,4.8c-1.4,1.2-2.9,2.4-4.3,3.7c-2.5,2.4-4.2,5.3-4.9,8.7c-0.1,0.5-0.3,1-0.5,1.8
	c-1.4-2.1-2.1-4.3-2.5-6.5c-0.3-1.6-0.9-3.1-1.6-4.6c-1.9-4-4.6-7.5-8.2-10.2c-1.3-1-2.7-1.8-4.5-1.9c-0.9-0.1-1.7-0.5-2.5-0.5
	c-2.4-0.2-3.6-1.7-3.9-3.8c-0.4-2.9-0.4-5.9-0.5-8.9c0.6-0.1,0.8-0.2,1-0.1c4.2,0.9,8-0.2,11.5-2.4c1.7-1.1,3.2-2.3,4.9-3.3
	c5.8-3.7,9.1-9,10.3-15.7c0.8-4.5,2.1-8.9,4.1-13C339,142.8,340.1,141.2,342.1,140.4C342.1,140.5,342.1,140.4,342.1,140.4z"/>
<path class="st0" d="M261.3,339.2c-0.9,1-1.6,1.8-2.3,2.5c-0.9,0.9-1.8,1.8-2.6,2.7c-1.3,1.4-1,2.1,0.9,2.5c1.4,0.3,2.8,0.6,4.1,0.9
	c0.6,0.1,1.2,0.4,2,0.7c-2.3,3.9-4.4,7.8-5.3,12.1c-1,4.3-2.3,8.5-1.4,13.4c-4.9-3.6-9.6-7-14.5-10.6c0.1-4.7,0.3-9.8-4.8-13.1
	c5.1-10.8,10.3-21.5,15.4-32.2c2.9-6,5.4-12.2,7-18.7c0.3-1.2,0.5-2.4,0.8-3.9c4.4,1.5,8.6,3,13.1,4.5c-0.6,1.2-1.1,2.2-1.6,3.3
	c-1.7,3.8-4.1,7.1-7.2,9.8c-3,2.7-6,5.3-9,8c-0.6,0.5-1.2,1-1.7,1.5c-0.1,1.2,0.8,1.6,1.3,2.2c4,4.2,3.5,4,0.5,7.7
	c-2.2,2.7-1.9,4,1.5,5.3C258.7,338.3,259.8,338.7,261.3,339.2z"/>
<path class="st0" d="M330.5,704.8c-3.1-1.3-6.4-1.7-9.7-1.6c-4.8,0.2-9.6,0.8-13.8,3.5c-1,0.7-1.9,0.5-2.8-0.2c-2.9-2.2-5-5-6.7-8.1
	c-2.3-4.3-4.5-8.6-6.7-13c-0.9-1.7-1.6-3.4-2.5-5.3c2.6-2.6,5-5.5,7.8-7.9c3.6-3,7.9-4.3,12.6-3c1.5,0.4,2.8,1.2,4.5,2
	c0.6,1.5,1.3,3.3,2.1,5c3,6.9,6.5,13.6,11,19.7c1.2,1.6,2.3,3.4,3.3,5.2c0.6,1,0.9,2.2,1.4,3.2C330.7,704.5,330.6,704.7,330.5,704.8
	z"/>
<path class="st0" d="M293.1,700.4c-0.5,5.8-1,11.2-1.5,16.8c-2.3-1.5-4.5-2.8-6.7-4.3c-0.4-0.2-0.6-0.9-0.6-1.4
	c0-3.5,0.1-6.9,0-10.4c-0.2-5.2-0.5-10.4-0.7-15.6c-0.2-4.3,0-8.7,1.2-12.9c0.1-0.4,0.3-0.9,0.5-1.3c0-0.1,0.3-0.1,0.5-0.2
	c0.1,0.4,0.3,0.8,0.2,1.1c-0.9,3.9,0.9,7.2,2.1,10.7c0.6,1.7,1.6,3.3,2.4,4.9c1.9,3.7,3.7,7.5,5.6,11.2c2.4,4.7,5.8,8.5,10.7,11
	c1.7,0.9,3.4,2,5.1,2.9c4.5,2.5,9.3,4.2,14.4,4.9c2.6,0.4,5.1-0.2,7.8-1.5c0.4,4.3,0.1,8.2-0.5,12.2c-3,0.9-6,0.8-8.9,0.9
	c-5.2,0.2-10.2-0.4-15-2.6c-2-0.9-3.9-2.1-5.8-3.1c-2.2-1.2-3.2-3-3.7-5.4c-0.6-3.2-1.5-6.4-2.2-9.6
	C297.1,705.7,295.8,702.9,293.1,700.4z"/>
<path class="st0" d="M278.8,104.2c2.5-2.2,4.9-4.4,7.4-6.6c4.1-3.6,8.4-6.9,13.6-8.8c7.1-2.7,14.5-3.6,22-3c2,0.1,4.1,0.8,5.8,1.8
	c3.3,1.9,6.5,4.2,9.6,6.4c0.9,0.6,1.7,1.5,2.1,2.5c1.1,2.8,2,5.8,2.9,8.7c0.1,0.2-0.1,0.5-0.2,1c-0.8-0.7-1.6-1.1-2.2-1.8
	c-4-4.7-9.1-7.1-15.1-7.6c-10.4-0.8-19.9,1.9-28.7,7.5c-3.8,2.4-7.5,5-10.6,8.2c-0.2,0.2-0.5,0.3-0.9,0.6c-0.3-0.6-0.5-1-0.8-1.5
	c-1.3-1.9-2.6-3.7-3.9-5.6C279.3,105.3,278.5,105,278.8,104.2C278.9,104.1,278.8,104.2,278.8,104.2z"/>
<path class="st0" d="M254.2,379.6c-3.9-4.5-8.9-7.6-13.7-11.3c0.4-1,0.8-2,1.3-3.1c0.5,0.2,0.9,0.3,1.3,0.6
	c5.3,3.9,10.4,8.2,15.1,12.8c0.9,0.9,2,1.8,3.1,2.6c1.4,1,1.6,1.5,0.7,3.1c-1.1,2.2-2.3,4.3-3.5,6.4c-2.6,5-5.3,10-7.9,15
	c-1.4,2.6-3,5.2-4.4,7.8c-0.5,0.9-1.1,1.4-2.2,1.5c-1.1,0.1-2.1,0.3-3.7,0.6c2.7-4.8,5.3-9.3,7.8-13.7c2.6-4.5,4.6-9.2,6.6-14
	c-0.2-0.1-0.3-0.2-0.5-0.2c-1.5,2.7-2.9,5.4-4.4,8.1c-2.4-2.1-4.4-4-6.6-5.7c-2.6-2-5.4-3.9-8.1-5.8c-1.5-1.1-2.9-2.2-4.4-3.2
	c-0.9-0.7-1.3-1.4-1-2.6c0.3-1.5,0.4-3.1,0.5-4.5c1.8-0.5,3.7-0.6,5.3-1.4c1.6-0.8,3-2.2,4.6-3.5C244.5,373,248.7,377.2,254.2,379.6
	z"/>
<path class="st0" d="M380.3,344.1c-2.3,1.4-4.5,2.7-6.6,4c-0.9,0.5-1.7,0.6-2.6-0.2c-2.1-1.8-4.3-3.6-6.5-5.5c-1-0.8-1.9-1.6-3-2.5
	c1.3-2,0.1-3.4-1.3-4.6c-2.9-2.6-5-5.8-6.5-9.4c-0.1-0.3-0.2-0.6-0.3-1.1c1.7-0.5,3.4-0.9,5-1.4c1.6-0.5,3.2-0.9,4.7-1.6
	c2.4-1.1,2.7-2.7,1-4.7c-1.7-2-3.5-3.8-5.3-5.7c-4.2-4.8-7.1-10.3-9.7-16.1c3.2-1,6.2-1.9,9.4-2.9c0.1,0.2,0.4,0.6,0.5,1
	c2.2,8,5,15.7,8.8,23.1c1.6,3.1,3,6.3,4,9.5c1.8,6.1,5,11.5,7.8,17.1C379.9,343.3,380.1,343.6,380.3,344.1z"/>
<path class="st0" d="M330.1,265.7c-2.1-1.5-3.9-2.8-5.8-4.1c-1.2-0.8-1.3-1.9-1.5-3c-0.2-1-0.2-2-0.1-3.1c0.2-5.7,0-11.3-1.3-16.9
	c-0.2-1,0.1-1.8,1-2.4c3.2-2.4,6.7-4.1,10.4-5.5c2.7-1,5.3-1.6,8.3-1.6c1,5.2,2,10.2,1.5,15.4c-0.4,4.4-2.2,8.4-4.8,11.8
	C335.2,259.6,332.6,262.6,330.1,265.7z"/>
<path class="st0" d="M216.3,398.5c1-4.6,1.3-9.3,3.3-13.7c-2.2,1.2-3,3.4-4.2,5.3c-1.2,1.9-2.3,3.9-3.5,5.9c0.4,1.9,3.5,2.7,2.6,5.6
	c-2.3-0.5-3.5-2-5-3.3c-1.7-1.4-1-3.4-1.3-5.2c-0.2,0-0.3,0-0.5,0c-0.1,0.6-0.2,1.3-0.2,1.9c-0.1,0.6-0.2,1.2-0.3,1.9
	c-1.7-0.3-1.1-1.6-1.4-2.4c-0.4-0.9-0.4-1.9-1-2.8c-0.1,1.3-0.1,2.5-0.2,3.9c-1.6-0.4-2.4-1.2-2.4-2.8c0-2.7-0.1-5.3,0-8
	c0-1.8,0.7-3.2,2-4.6c3.4-3.8,6.9-7.6,9.5-12c0.3-0.4,1-0.9,1.5-0.9c4.5,0.2,8.7,1,12.4,3.8c1.2,0.9,1.7,1.8,1.5,3.4
	c-0.5,4.2-1.8,8.1-3.3,12c-0.5,1.2-1.4,2.3-2.2,3.3c-1.9,2.6-3.7,5.2-5.6,7.8c-0.3,0.4-0.7,0.7-1,1.1
	C216.6,398.6,216.5,398.5,216.3,398.5z"/>
<path class="st0" d="M237.3,416.8c-6.1-6.4-12.4-12-19.7-16.3c1.9-3.4,3.9-6.6,6.6-9.2c2.3-2.1,3.6-4.7,4.4-7.7
	c0.2-0.8,0.4-1.5,0.7-2.4c0.4,0.2,0.7,0.4,1,0.6c2.5,2.1,5,4.2,7.6,6.3c3.2,2.6,6.4,5.1,9.6,7.7c0.9,0.7,1.6,1.5,0.8,2.8
	c-3.4,5.7-6.8,11.3-10.2,17C238,415.9,237.8,416.2,237.3,416.8z"/>
<path class="st0" d="M200.6,383.5c-6.1-5.5-12.7-10.4-18.2-16.5c3.2-6.5,5.8-13.1,10.2-18.8c1.5,1.9,2.9,3.7,4.4,5.4
	c3.3,3.5,7.1,6.4,11.3,8.7c0.6,0.3,1.2,0.8,1.6,1.3c1,1.1,1.8,2.3,2.8,3.5C209.3,372.8,203.5,377,200.6,383.5z"/>
<path class="st0" d="M210.8,357.8c-0.2-3.2,1.3-5.3,4.1-6.7c1.4-0.7,2.8-1.5,4.3-2.1c3.9-1.6,7.7-1,11.5,0.3c2.2,0.8,4.3,1.9,6.4,3
	c1.6,0.9,2.4,2.5,2.8,4.2c0.7,2.4,0.8,4.8,0.4,7.2c-0.6,3.6-2.9,6-6,7.8c-1.6,0.9-3.2,0.8-4.5-0.6c-3.4-3.2-7.6-4.6-12.2-5.1
	c-0.5-0.1-1.1-0.1-1.6-0.2c-3.7-0.5-4.5-1.3-5-5C210.9,359.7,210.8,358.8,210.8,357.8z"/>
<path class="st0" d="M282.6,674.9c-1.1,7.1-0.2,14.7,0,22.6c-2.2-0.9-3.8-2.2-5.3-3.6c-3.1-2.9-5.4-6.3-7.7-9.8
	c-0.8-1.3-1.1-2.8-0.8-4.3c0.8-3.8,1.6-7.5,2.3-11.3c0.3-1.8,0.3-3.7,0.3-5.6c0-0.6-0.1-1.3-0.4-1.8c-0.3-0.5-0.8-1-1.3-1.2
	c-0.3-0.1-0.9,0.5-1.2,0.8c-0.3,0.3-0.5,0.8-0.7,1.2c-1.5,3.2-3,6.4-4.5,9.6c-0.4,0.9-1,1.5-2.3,1.5c-1.3-1.9-2.1-4.1-2.6-6.4
	c-0.1-0.7,0.2-1.5,0.5-2.2c1.2-3.1,2.7-6,3.8-9.1c2-5.3,4.4-10.4,7.3-15.5c0.7,0.9,0.4,1.8,0.5,2.5c0.4,4.5,0.7,8.9,1.4,13.4
	c0.8,5.5,3.5,10.2,6.6,14.8C279.4,671.9,280.9,673.1,282.6,674.9z"/>
<path class="st0" d="M320.4,236.5c0.3,2,0.7,4.2,1,6.4c0.3,2.6,0.4,5.2,0.6,7.8c0.2,2.3,0.4,4.7,0.5,7c0,0.8-0.1,1.7-0.1,3
	c-1.4-0.7-2.7-1.2-3.8-1.8c-4-2.5-7.8-5.3-10.8-9c-0.1-0.2-0.3-0.4-0.5-0.5c-9.2-10.7-9.6-11-22-17.8c-0.5-0.3-1-0.6-1.9-1.2
	c6.8-1.1,12.8,0.4,18.9,1.2C308.4,232.3,314.2,234,320.4,236.5z"/>
<path class="st0" d="M271,129c-5.2-0.2-8.7-2.8-10.8-7.4c-1.9-4.2-1.5-8.3,1.5-11.9c2.2-2.7,4.7-4.9,8.2-5.5
	c2.9-0.5,5.5,0.2,7.8,1.8c4.7,3.3,7,10.3,5.5,15.8c-0.8,3-2.6,5-5.6,5.9C275.5,128.3,273.2,128.6,271,129z"/>
<path class="st0" d="M382.4,366.9c-3.4-0.3-6.7-1.1-9.6-2.9c-4.5-2.7-5.6-9.5-2.2-13.4c0.3-0.4,0.8-0.7,1.3-0.9
	c3.5-1.6,7-3.1,10.6-4.7c3.6-1.6,5.7-1.2,8.1,1.9c1.4,1.8,2.6,3.9,3.7,6c0.9,1.6,0.8,3.5-0.3,4.9c-1.8,2.4-3.7,4.7-5.7,6.8
	C386.7,366.2,384.7,367.1,382.4,366.9z"/>
<path class="st0" d="M321.1,199.8c1.8,2.4,3.1,4.8,3.8,7.4c-1.3,1.2-5.7,3.5-7.1,3.7c-1,0.1-2,0-3-0.3c-1.7-0.5-3.4-0.5-5.1,0.2
	c-3,1.3-6,1.1-8.8-0.6c-2.7-1.6-5.6-1.9-8.7-1.4c-2.9,0.5-5.4-0.1-7.6-2.2c-2.1-2-4.6-2.9-7.5-2.6c-2.7,0.3-4.8-0.6-5.9-3.4
	c1.5-2.2,3.1-4.4,4.8-6.9c0.8,0.5,1.7,0.8,2.4,1.4c0.8,0.6,1.4,1.2,2.1,1.9c1.6,1.5,3.4,2.2,5.6,2.2c1.3,0,2.7-0.1,4,0.3
	c1.8,0.6,3.5,1.4,5.1,2.4c1.8,1.1,3.5,1.6,5.6,1.4c1.4-0.2,3,0,4.4,0.4c1.5,0.4,2.8,0.5,4.1-0.2c1.5-0.7,3-1.1,4.7-0.3
	c1.3,0.6,2.4,0,3.5-0.7C318.7,201.4,319.8,200.6,321.1,199.8z"/>
<path class="st0" d="M394.2,360.8c1.4,3.5,3.9,6.2,6.5,8.9c0.9,0.9,1.7,1.9,2.6,2.8c2,2.1,2.6,4.6,1.8,7.4c-0.6,1.9-1.2,3.7-1.9,5.6
	c-0.1,0.3-0.5,0.7-0.8,0.8c-1.2,0.3-2.5,0.7-3.7,0.7c-3.5-0.2-7-0.6-10.5-1.1c-2.4-0.3-2.9-0.8-3.1-3.3c-0.1-0.9-0.2-1.9-0.3-2.9
	c0.7-0.3,1.3-0.6,2-1c-1.7-1.6-4.4-2-5-4.3c-0.4-1.5-0.3-3.2-0.4-5.1C387.6,369.1,391.3,365.5,394.2,360.8
	C394.3,360.9,394.2,360.8,394.2,360.8z M399.7,380.7c-0.5-2.5-5.2-5.7-9.1-6.4c1.3,1.6,3.6,1.6,4.7,3.5c-1.1,0.1-1.9,0.1-2.7,0.1
	c1.1,0.6,2.4,0.8,3.5,1.1C397.3,379.4,398.4,380,399.7,380.7z"/>
<path class="st0" d="M282.9,672.6c-1.3-1.6-2.5-2.8-3.4-4.1c-4.8-7-7-14.9-7.4-23.3c-0.1-2.1,0.2-2.7,2.2-3.3
	c3.7-1.2,7.5-1.6,11.5-1c0.1,1,0.2,1.9,0.1,2.7c-0.1,7.6-0.2,15.3-0.4,22.9C285.5,668.6,284.1,670.3,282.9,672.6z"/>
<path class="st0" d="M207.3,337.4c3.1,3.4,6.3,6.8,9.6,10.4c-0.9,0.5-1.8,0.9-2.8,1.5c-3.2-3.1-6.4-6.2-9.6-9.3
	c-0.1,0.1-0.3,0.3-0.4,0.4c2.6,3.4,5.3,6.6,8.6,9.6c-1.4,1.7-3.3,3-3.4,5.4c-0.1,2.1,0,4.2,0,6.8c-5.9-4.8-11.3-9.4-16.4-14.7
	c2.3-3.2,4.6-6.4,6.8-9.6C202.4,337.8,204.9,337.6,207.3,337.4C207.4,337.5,207.3,337.4,207.3,337.4z"/>
<path class="st0" d="M346.3,199c-0.6,2-1.3,4-1.9,6c-0.4,1.3-0.9,2.7-1.3,4c-1.5,5.7,0.2,10.6,4.1,14.8c2,2.2,4.4,4,6.6,6
	c2.2,2,2.6,2.5,3.3,4.9c-0.3-0.1-0.5,0-0.6-0.2c-2.8-2.6-6.1-4.1-9.7-5.2c-3.3-1-6.5-2.2-9.4-4.3c-6-4.2-7.1-9.5-3.1-15.7
	c0.6-1,1.3-2,2.2-2.8c3.1-2.7,6.3-5.2,9.4-7.8C346.1,198.9,346.2,198.9,346.3,199z"/>
<path class="st0" d="M319.9,198.3c-1.4,0.9-2.6,1.7-3.9,2.4c-0.6,0.3-1.4,0.3-2,0.1c-1.7-0.5-3.3-0.4-4.8,0.3
	c-1.3,0.6-2.5,0.6-3.9,0.2c-1.4-0.4-2.9-0.5-4.4-0.3c-1.7,0.2-3.2,0-4.6-1.1c-2.4-1.9-5.3-2.8-8.4-2.7c-2.9,0.1-5.6-0.5-7.7-2.7
	c-0.7-0.8-1.8-1.2-2.8-1.8c0.8-1.3,1.5-2.6,2.3-3.9c5.4,3,11.3,3.6,17.2,3.8c2.6,0.1,5.3-0.4,8-0.7c0.8-0.1,1.5-0.4,2.2,0.3
	c1,1.1,2.5,1.3,3.8,1.6c1.4,0.4,2.8,0.9,4.2,1.4c0.6,0.2,1.2,0.6,1.8,0.6C318.1,196,319,196.8,319.9,198.3z"/>
<path class="st0" d="M311.1,470.2c2.9-0.5,5.8-1,8.7-1.4c0.1,0.5,0.3,0.9,0.3,1.3c-0.3,6.9-0.7,13.8-1,20.7
	c-0.2,5.8-1.9,11.1-5.6,15.7c-1.1,1.4-2.1,2.9-3.3,4.3C313.6,497.4,312.7,484.1,311.1,470.2z"/>
<path class="st0" d="M352.5,326.4c1.6,4.7,4.6,8.3,8.2,11.7c-2.6,1.6-4.8,2.7-7.7,2.5c-4.3-0.3-8.6,0.4-12.8,1.4
	c-1,0.3-2.1,0.6-3.4,0.9c-0.6-2.1-1.1-4.1-1.7-6.1c3-2.7,6.3-4.8,10.2-5.9c1.3-0.4,2.5-0.8,3.8-1.4
	C351.3,328.7,351.4,328.6,352.5,326.4z"/>
<path class="st0" d="M333.9,713.8c-3.5,2.1-7.2,2.2-11,1.2c-5.1-1.3-10-3.3-14.4-6.2c-0.4-0.2-0.7-0.6-1.3-1
	c2.6-1.3,5.1-2.2,7.7-2.6c3.7-0.6,7.5-0.9,11.3-0.1c1.7,0.4,3.4,1.2,5,1.9c0.4,0.2,1,0.8,1,1.2c-0.2,1.9,0.8,3.2,1.7,4.7
	C333.9,713.2,333.8,713.6,333.9,713.8z"/>
<path class="st0" d="M334.6,338.5c0.2,3.1,0.4,6.2,0.7,9.7c-6.5,0.6-12.8,1.1-19.3,1.7c-0.1-3.9-0.3-7.7-0.4-11.7
	c2.7,0.5,5.1,1,7.5,1.5c1.8,0.4,3.7,0.9,5.5,1.3c0.4,0.1,0.8,0.2,1.1,0.3C332.8,341.7,333.5,341.3,334.6,338.5z"/>
<path class="st0" d="M257.6,345.4c1.5-2,2.8-3.8,4.3-5.8c0.6,0.2,1.2,0.4,1.9,0.7c2.2,0.8,4.4,1.6,6.7,2.2c2.4,0.7,2.7,0.5,4-1.6
	c0.1-0.2,0.3-0.4,0.6-0.8c1.9,0.3,3.9,0.7,6,1.1c-1,3.1-1.8,6-2.8,8.8c-0.6,1.7-1.1,1.9-2.7,1.3c-5.7-2.1-11.4-4.4-17.4-5.7
	C258,345.6,257.9,345.5,257.6,345.4z"/>
<path class="st0" d="M294.2,337.6c1,0.3,1.9,0.5,2.9,0.7c-0.9,3.9-1.7,7.8-2.7,11.5c-0.8,2.8-1.4,2.9-4.1,2.2
	c-3.3-0.8-6.7-1.6-10.3-2.5c0.7-2.6,1.4-5.4,2.1-8.2c1.7,0,3.4,0,5.2,0c0.2,0,0.3,0.1,0.5,0.1C292.5,342.2,292.5,342.2,294.2,337.6z
	"/>
<path class="st0" d="M312.1,668.2c-1.8-0.5-3.2-1.1-4.7-1.3c-4.4-0.6-8.3,0.6-11.8,3.2c-2.7,2-4.8,4.5-6.7,7.3
	c-0.3,0.4-0.6,0.8-1,1.4c-1.1-1.7-1.5-3.3-0.5-5c2.1-3.9,4.8-7.2,8.3-9.9c3.4-2.5,7.3-3.6,11.5-3.3c2.4,0.2,2.8,0.5,3.5,2.8
	C311.1,665,311.6,666.5,312.1,668.2z"/>
<path class="st0" d="M282.1,611.9c1,6.4,2,12.3,3,18.6c-4.6-1-8.3,0.6-11.9,2.7C273.7,629.5,279.8,614.9,282.1,611.9z"/>
<path class="st0" d="M305.5,189.8c-9,1.6-17.3,0.2-26-2.1c0.9-1.5,1.6-2.5,2.2-3.5c7.8-0.5,15.2,2,23.1,2.3
	C305,187.4,305.2,188.4,305.5,189.8z"/>
<path class="st0" d="M258,121.1c0.4,0.3,0.9,0.6,1.1,1c2,4,4.8,6.9,9.3,7.9c0.1,0,0.2,0.2,0.3,0.2c-1,3.2-2,6.4-3,9.9
	c-0.6-0.8-1.1-1.3-1.5-1.9c-2.4-3.4-4.7-6.8-7.2-10.2c-0.8-1.1-0.8-2.1-0.3-3.2C257.2,123.6,257.6,122.3,258,121.1
	C258.1,121.1,258,121.1,258,121.1z"/>
<path class="st0" d="M272.1,641.7c-0.1-0.8-0.2-1.1-0.2-1.4c-0.2-4.5-0.1-4.8,4.2-6.6c3.2-1.4,5.1-1.6,9.2-1.1
	c0.2,1.9,0.3,3.8,0.5,6C280.8,638.4,276.3,638.6,272.1,641.7z"/>
<path class="st0" d="M276,157.1c1.1,0.1,1.8,0.1,2.8,0.2c2.2,4.9,1.9,10.1,1.9,15.4c-2-1.7-3.7-3.5-3.9-6.4
	C276.5,163.3,276.2,160.3,276,157.1z"/>
<path class="st0" d="M336.9,227.6c-1.6,0.4-3.1,0.8-4.9,1.3c-1.7-4.5-3.4-9-5.1-13.5c3.3,3.9,5.8,8.5,10,11.5
	C337,227.1,336.9,227.4,336.9,227.6z"/>
<path class="st0" d="M269.3,663c0.5,2.3-0.3,6.9-1.4,9.3c-1.2-0.1-2.4-0.2-3.9-0.3C265.9,669,267.6,666,269.3,663z"/>
<path class="st0" d="M293.8,716.3c0.1-3.8,0.3-7.2,0.4-10.6c0.2,0,0.4-0.1,0.6-0.1c0.8,3,1.6,6,2.5,9.2
	C296.2,715.2,295.2,715.7,293.8,716.3z"/>
<path class="st0" d="M212.7,396.1c1.3-1.5,2.4-2.7,3.4-4c0.1,0.1,0.2,0.1,0.3,0.2c-0.5,1.6-1,3.2-1.6,5.1
	C214.1,396.9,213.5,396.5,212.7,396.1z"/>
<path d="M269.3,202c0.2,0.4,0.3,0.9,0.6,1.2c4.2,5.7,7.1,12,9.8,18.5c0.7,1.8,1,3.7,1.3,5.6c-1.5-1.1-2.1-2.7-2.8-4.3
	c-2.8-6.2-5.6-12.5-8.5-18.7C269.3,203.6,268.8,202.9,269.3,202C269.3,202,269.3,202,269.3,202z"/>
<path d="M330.1,286.9c0,2.1-1.3,3.8-3.2,4.3c-2,0.5-4.1-0.5-5-2.3c-0.8-1.7-0.4-3.7,1.2-5.1c0.5-0.4,1-0.7,1.5-1.2
	c1.3-1.2,2.1-1.3,3.3-0.2C329.4,283.6,330.1,285.1,330.1,286.9z M325.3,283.2c-1.2,0.8-1.8,1.8-2.1,3.1c-0.3,1,0.1,1.9,1,2.5
	c0.8,0.6,1.7,0.7,2.7,0.2c0.9-0.5,1.2-1.4,1.1-2.4C327.8,284.9,326.9,283.8,325.3,283.2z"/>
<path d="M293.8,140.8c0.1-1.2,0.7-1.8,2-2.2c3.9-1.1,7.4-0.3,10.8,1.7c0.5,0.3,0.8,0.8,0.9,1.6c-0.8-0.1-1.6-0.2-2.5-0.2
	c-0.1,0.2-0.2,0.4-0.2,0.7c-0.5,3.1-1.7,4.3-4.8,4.3c-1.4,0-2.8-0.1-4.2-0.6C293.4,145.1,292.6,142.8,293.8,140.8
	c0.1,0.5,0.1,1.2,0.2,1.8c0.3,1.6,2,3.2,3.4,3.1c1.2-0.1,2.5-0.2,3.7-0.5c1.8-0.4,2.8-1.5,3-3.2c0.1-0.8-0.2-1.3-1-1.6
	c-2.5-1.1-5-1-7.6-0.7C294.9,139.7,294.4,140.4,293.8,140.8z"/>
<path d="M331.1,145.4c-1.5,0.1-3.1,0.2-4.8,0.4c2.2-2.3,5.1-2.7,7.6-1.2c-0.5,0.4-1,0.9-1.5,1.3c0.2,0.9,0.4,1.9,0.4,2.8
	c0,1.5-0.6,2.9-2.1,3.4c-1.6,0.6-3.3,0.5-4.7-0.7c-1.2-1-1.3-2.4-0.3-3.8c0,0.3,0.1,0.6,0.1,0.9c0.1,1.5,0.9,2.6,2.2,2.9
	c1.1,0.2,2.9-0.9,3.3-2.1C331.8,148,332,146.8,331.1,145.4z"/>
<path d="M318.5,168.1c-1.9,0.1-3.7-0.2-5.4-1.4c1.9,0.2,3.7,0.4,5.6,0.7C318.6,167.6,318.5,167.8,318.5,168.1z"/>
<path d="M321,157.3c0.2-0.3,0.3-0.6,0.5-0.9c0.1,0,0.2,0.1,0.3,0.1c-0.1,0.3-0.2,0.7-0.4,1C321.3,157.5,321.1,157.4,321,157.3z"/>
<path d="M399.7,380.7c-1.3-0.6-2.4-1.3-3.5-1.6c-1.1-0.4-2.4-0.5-3.5-1.1c0.8,0,1.6-0.1,2.7-0.1c-1.2-1.9-3.4-1.9-4.7-3.5
	C394.6,374.9,399.2,378.2,399.7,380.7z"/>
<path class="st0" d="M325.3,283.2c1.5,0.6,2.4,1.7,2.7,3.3c0.1,1-0.2,1.9-1.1,2.4c-0.9,0.5-1.8,0.4-2.7-0.2c-0.8-0.6-1.2-1.4-1-2.5
	C323.5,285,324.2,283.9,325.3,283.2z"/>
<path class="st0" d="M293.8,140.8c0.6-0.4,1.1-1.1,1.7-1.2c2.6-0.3,5.2-0.3,7.6,0.7c0.8,0.3,1,0.8,1,1.6c-0.2,1.6-1.2,2.8-3,3.2
	c-1.2,0.2-2.5,0.4-3.7,0.5c-1.4,0.1-3.1-1.5-3.4-3.1C293.9,141.9,293.9,141.3,293.8,140.8C293.9,140.7,293.8,140.8,293.8,140.8z"/>
</svg>
