<?xml version="1.0" encoding="utf-8"?>
<!-- Generator: Adobe Illustrator 19.0.0, SVG Export Plug-In . SVG Version: 6.00 Build 0)  -->
<svg version="1.1" id="图层_1" xmlns="http://www.w3.org/2000/svg" xmlns:xlink="http://www.w3.org/1999/xlink" x="0px" y="0px"
	 viewBox="0 0 595.3 841.9" style="enable-background:new 0 0 595.3 841.9;" xml:space="preserve">
<style type="text/css">
	.st0{fill:#FFFFFF;}
</style>
<path class="st0" d="M1.4,841.7c0-280,0-560,0-840c198,0,395.9,0,593.9,0c0,280,0,559.9,0,840C397.3,841.7,199.3,841.7,1.4,841.7z
	 M348.5,196.9c1.1-2.7,2-5.4,3.1-7.9c1.7-3.8,2.3-7.8,1.4-11.9c-0.8-3.7-1.7-7.3-2.9-10.9c-1.6-5.1-3.5-10.1-5.3-15.1
	c-2.3-6.6-2.2-13.3-0.3-19.8c1.6-5.9,1.7-11.6,0.9-17.5c-0.4-3-0.9-6-1.3-9c-0.2-1.5,0.3-3.1,0-4.5c-0.8-2.9-1.8-5.8-2.9-8.6
	c-0.3-0.8-0.9-1.6-1.5-2.1c-4.1-3.8-8.8-6.9-14-9c-1-0.4-2-0.9-3-1.5c-2.2-1.5-4.5-2.9-7.1-3.3c-3.2-0.5-6.5-1-9.7-1
	c-2.3,0-4.8,0.5-7,1.2c-7.8,2.6-14.8,6.8-21.1,12c-3.3,2.7-6.2,6-8.9,9.3c-1.3,1.6-2.6,2.8-4.3,3.9c-3.7,2.4-6.6,5.7-6.8,10.2
	c-0.1,3.4-0.8,6.4-2.6,9.2c-0.1,0.2-0.2,0.4-0.3,0.7c-0.6,1.4-0.5,2.6,0.4,3.8c2.8,3.9,5.4,7.9,8.3,11.7c1.2,1.6,1.4,3,1,4.9
	c-0.8,3.7-1.4,7.5-2.2,11.3c-0.4,1.8,0.1,3.3,1.6,4.4c1.5,1.2,3,2.4,4.5,3.5c1.1,0.8,1.7,1.6,1.6,3c-0.1,1.6-0.2,3.2-0.1,4.8
	c0,0.8,0.1,2,0.6,2.4c1.6,1.2,3.4,2.3,5.2,3.2c1,0.5,1.6-0.2,1.7-1.3c0-0.8-0.2-1.6-0.3-2.3c-0.1-0.7-0.3-1.3-0.5-2
	c0.9,0.6,1.3,1.5,2.1,2c2,1.4,2.1,3.4,1.8,5.5c-0.1,0.9-0.2,1.7-0.3,2.6c-0.7,4.6-3.4,8.2-6,11.8c-1.3,1.9-3,2.4-5.1,2.1
	c-3-0.5-6-0.9-9-1.3c-5.1-0.7-9.7,0.3-13.5,4c-4.2,4-8.5,8-12.6,12.1c-2.8,2.7-4.7,6-5.6,9.9c-1.8,8.2-2.2,16.6-1.9,25
	c0.4,8.7,1.4,17.3,3.2,25.9c1.2,5.8,3.4,11,8.2,14.8c1.1,0.9,1.5,1.8,1.1,3.3c-2,6.9-3.6,13.9-5.8,20.7C230,317,226,327.2,224,338
	c-0.4,2-1.2,4-2,5.8c-1.1,2.5-3.5,3-5.5,1.2c-2.8-2.6-5.6-5.3-8.4-7.9c-1.5-1.4-2.9-2.4-5.4-2.3c-2.5,0.1-4.3,0.8-6,2.4
	c-0.5,0.5-1,1.1-1.5,1.6c-7,7.6-11.9,16.5-16.1,25.9c-0.6,1.3-0.5,2.5,0.5,3.5c1.1,1.2,2.3,2.5,3.5,3.6c4.2,3.7,8.4,7.6,12.9,11.1
	c2.9,2.3,4.1,4.9,3.6,8.4c-0.5,3.5,2.3,5.5,5,6.4c1.4,0.4,2.4,1,3.4,1.9c0.7,0.7,1.4,1.3,2.2,1.9c1.6,1.2,3.2,1.8,5,0.2
	c0.1-0.1,0.3,0,0.6,0c2,1.6,4.3,3.2,6.3,5c3.7,3.2,7.3,6.4,10.8,9.8c1.8,1.8,3.6,2.6,6.2,1.7c1.6-0.6,3.4-0.9,5.1-1.1
	c1.1-0.2,2-0.6,2.5-1.6c0.6-1.1,1.3-2.2,1.8-3.4c1.4-2.9,2.8-5.9,4.2-8.9c0.3-0.7,0.8-1.3,1.1-2c0.2,0,0.3,0.1,0.5,0.1
	c0.1,0.8,0.2,1.7,0.3,2.5c0.4,5.1,1.6,10.1,4.2,14.6c0.4,0.7,0.6,1.6,0.6,2.5c-0.3,5.3-0.5,10.5-1.1,15.8
	c-0.9,7.7-0.5,15.3,0.5,22.9c0.6,4.4,2.8,7.2,6.7,8.9c2.5,1.1,5,2.1,7.5,3.2c0.7,0.3,1.5,0.6,2.5,1c0,2.7-0.2,5.4,0,8.1
	c0.7,6.7,1.7,13.5,2.4,20.2c0.7,6.8,0.7,13.5-1.1,20.2c-1.1,4.2-2.1,8.4-3.2,12.5c-2.4,8.7-3.9,17.6-3.4,26.7
	c0.6,9.1,2.1,18,4.7,26.8c2.3,7.9,4.8,15.7,6.2,23.8c0.3,1.4,0.1,2.6-0.7,3.8c-3.1,5-5.8,10.1-7.7,15.6c-2,5.7-4.7,11.2-7.5,16.6
	c-1.9,3.7-3.4,7.6-5,11.4c-1.3,2.9-2.4,5.9-3.8,8.8c-0.6,1.4-0.9,2.7-0.4,4.1c0.7,1.9,1.4,3.7,2.2,5.6c0.8,1.8,1.4,2,3.4,1.5
	c1.8-0.4,3.7-0.8,5.7-1.2c-0.3,1.8-0.5,3.5-0.9,5.1c-0.7,2.8,0.1,5.2,1.6,7.5c1.7,2.3,3.2,4.8,5,7c2.4,3.1,5.4,5.5,9.3,7.1
	c0,3.8,0.1,7.7,0,11.6c0,1.2,0,2.2,1.1,2.9c2.2,1.5,4.4,3.1,6.6,4.7c0.9,0.6,1.6,0.6,2.6,0c1.4-0.8,3-1.3,4.7-1.9
	c0.2,0.7,0.4,1.2,0.5,1.8c0.4,3.3,2.2,5.4,5,7.2c9.2,5.9,19.2,7.3,29.9,5.5c0.5-0.1,1.1-0.3,1.6-0.5c1.1-0.4,1.6-1.1,1.7-2.3
	c0.5-4.7,0.8-9.4,0.3-14.1c-0.3-2.5-0.6-5.1-1.6-7.4c-1.4-3.4-3.4-6.5-5.1-9.7c-0.3-0.6-0.8-1.2-1.2-1.8c-2.8-4.7-5.7-9.4-8.3-14.3
	c-1.9-3.7-3.4-7.5-5-11.4c-1.6-3.9-2.4-8-3.6-12c-5.7-18.8-8.6-37.9-8.3-57.6c0-0.9,0.1-1.8,0.5-2.5c1.7-3.4,3.5-6.8,5.1-10.3
	c4.4-9.5,9.1-18.8,13.1-28.5c7.5-18.5,16.4-36.3,26.5-53.6c4.3-7.3,6.6-15.1,6.3-23.7c-0.3-8.3,0.2-16.6,0.3-24.9
	c0-1,0.1-1.8,1.1-2.4c3.6-2.4,5.1-6,5.7-10.1c0.9-6.3,1.1-12.6,0.1-18.8c-0.3-1.8-0.5-3.6-0.6-5.5c-0.7-7.8-0.7-15.6-0.6-23.4
	c0.1-6.2,0-12.5,0.3-18.7c0.4-10,0-19.9-0.5-29.9c-0.2-3.5-0.7-7-1.1-10.5c-0.2-1.3,0.1-2.2,1.8-2.3c1.5,1.4,3.1,2.8,4.7,4.3
	c1.6,1.4,3.1,2.9,4.7,4.3c-0.4,0.6-0.7,1-0.9,1.4c-3.9,5.9-1.4,14,5.1,16.6c1.3,0.5,2.5,0.9,3.8,1.4c1,0.3,2,0.6,3.1,0.9
	c-0.2,1-0.4,1.8-0.5,2.7c-0.3,2.1-0.3,4.3,1.6,5.7c1.6,1.2,1.9,2.6,1.7,4.4c0,0.4,0,0.8,0,1.2c0.1,3.5,0.9,4.6,4.4,5.1
	c4.7,0.6,9.4,1,14,1.5c0.9,0.1,1.6-0.2,1.9-1.1c1.2-2.7,2.5-5.4,3.4-8.1c1.2-3.4,0.1-6.4-2.4-8.9c-1.7-1.7-3.5-3.3-5-5.2
	c-1.4-1.6-2.4-3.5-3.6-5.3c-0.5-0.8-0.5-1.8,0.1-2.7c0.8-1.4,1.1-3,0.6-4.6c-1.2-4.1-3.3-7.6-6.7-10.2c-1.4-1.1-3-1.5-4.7-1.1
	c-1.2,0.3-2.3,0.5-3.7,0.8c-2.3-5.3-5.4-10.2-7.1-15.7c-1.5-5.1-3.5-9.9-6-14.6c-1.4-2.8-2.7-5.6-3.8-8.5c-1.9-4.6-3.6-9.2-5.5-13.9
	c1.1-0.9,2.5-1.9,3.8-3.1c4.6-4.1,7.6-9.1,8.3-15.4c0.8-7.1,0.2-14-1.4-20.9c-2.4-10.7-4.9-21.5-7.6-32.1c-0.8-3.2-1.9-6.5-3.4-9.4
	C357.6,203.7,353.8,199.7,348.5,196.9z"/>
<path d="M348.5,196.9c5.3,2.8,9.2,6.8,11.9,11.8c1.6,2.9,2.6,6.2,3.4,9.4c2.6,10.7,5.1,21.4,7.6,32.1c1.6,6.9,2.1,13.9,1.4,20.9
	c-0.7,6.3-3.6,11.3-8.3,15.4c-1.3,1.2-2.7,2.2-3.8,3.1c1.9,4.7,3.6,9.4,5.5,13.9c1.2,2.9,2.4,5.7,3.8,8.5c2.4,4.7,4.4,9.5,6,14.6
	c1.7,5.5,4.8,10.4,7.1,15.7c1.4-0.3,2.6-0.5,3.7-0.8c1.8-0.4,3.3,0,4.7,1.1c3.4,2.6,5.5,6.1,6.7,10.2c0.5,1.6,0.2,3.2-0.6,4.6
	c-0.5,1-0.6,1.9-0.1,2.7c1.1,1.8,2.2,3.7,3.6,5.3c1.5,1.8,3.3,3.5,5,5.2c2.5,2.5,3.6,5.5,2.4,8.9c-1,2.8-2.3,5.4-3.4,8.1
	c-0.4,0.8-1.1,1.2-1.9,1.1c-4.7-0.5-9.4-0.9-14-1.5c-3.4-0.5-4.3-1.6-4.4-5.1c0-0.4,0-0.8,0-1.2c0.2-1.7-0.1-3.2-1.7-4.4
	c-1.9-1.4-2-3.5-1.6-5.7c0.1-0.8,0.3-1.7,0.5-2.7c-1.1-0.3-2.1-0.6-3.1-0.9c-1.3-0.4-2.6-0.8-3.8-1.4c-6.5-2.6-9-10.8-5.1-16.6
	c0.3-0.4,0.5-0.8,0.9-1.4c-1.6-1.4-3.1-2.9-4.7-4.3c-1.6-1.4-3.2-2.9-4.7-4.3c-1.6,0.1-1.9,1-1.8,2.3c0.4,3.5,0.9,7,1.1,10.5
	c0.5,10,0.9,19.9,0.5,29.9c-0.2,6.2-0.2,12.4-0.3,18.7c-0.1,7.8-0.1,15.6,0.6,23.4c0.2,1.8,0.4,3.7,0.6,5.5
	c0.9,6.3,0.7,12.6-0.1,18.8c-0.6,4.1-2.2,7.7-5.7,10.1c-1,0.6-1.1,1.4-1.1,2.4c-0.1,8.3-0.5,16.6-0.3,24.9c0.3,8.6-2,16.3-6.3,23.7
	c-10.1,17.2-19,35.1-26.5,53.6c-3.9,9.7-8.6,19-13.1,28.5c-1.6,3.5-3.5,6.8-5.1,10.3c-0.4,0.8-0.5,1.7-0.5,2.5
	c-0.3,19.6,2.7,38.8,8.3,57.6c1.2,4,2,8.1,3.6,12c1.6,3.8,3.1,7.7,5,11.4c2.6,4.9,5.5,9.5,8.3,14.3c0.4,0.6,0.8,1.2,1.2,1.8
	c1.8,3.2,3.7,6.3,5.1,9.7c1,2.3,1.3,4.9,1.6,7.4c0.6,4.7,0.2,9.4-0.3,14.1c-0.1,1.2-0.7,1.9-1.7,2.3c-0.5,0.2-1.1,0.4-1.6,0.5
	c-10.6,1.8-20.6,0.4-29.9-5.5c-2.7-1.7-4.6-3.9-5-7.2c-0.1-0.5-0.3-1.1-0.5-1.8c-1.6,0.6-3.3,1.1-4.7,1.9c-1,0.6-1.7,0.6-2.6,0
	c-2.2-1.6-4.4-3.2-6.6-4.7c-1.1-0.7-1.2-1.7-1.1-2.9c0.1-3.9,0-7.8,0-11.6c-3.9-1.6-6.9-4-9.3-7.1c-1.8-2.3-3.3-4.7-5-7
	c-1.6-2.3-2.3-4.7-1.6-7.5c0.4-1.6,0.6-3.2,0.9-5.1c-2.1,0.4-3.9,0.8-5.7,1.2c-2.1,0.4-2.6,0.3-3.4-1.5c-0.8-1.8-1.5-3.7-2.2-5.6
	c-0.6-1.4-0.3-2.8,0.4-4.1c1.3-2.9,2.5-5.9,3.8-8.8c1.6-3.8,3.1-7.7,5-11.4c2.8-5.4,5.4-10.8,7.5-16.6c2-5.5,4.7-10.7,7.7-15.6
	c0.8-1.2,0.9-2.4,0.7-3.8c-1.4-8.1-3.9-16-6.2-23.8c-2.6-8.8-4.2-17.7-4.7-26.8c-0.6-9.1,0.9-18,3.4-26.7c1.1-4.2,2.1-8.4,3.2-12.5
	c1.8-6.7,1.8-13.4,1.1-20.2c-0.7-6.7-1.7-13.5-2.4-20.2c-0.3-2.7,0-5.4,0-8.1c-1-0.4-1.8-0.7-2.5-1c-2.5-1.1-5-2.1-7.5-3.2
	c-3.9-1.7-6.1-4.5-6.7-8.9c-1-7.6-1.4-15.2-0.5-22.9c0.6-5.2,0.8-10.5,1.1-15.8c0-0.8-0.2-1.8-0.6-2.5c-2.6-4.5-3.8-9.4-4.2-14.6
	c-0.1-0.8-0.2-1.7-0.3-2.5c-0.2,0-0.3-0.1-0.5-0.1c-0.4,0.7-0.8,1.3-1.1,2c-1.4,3-2.8,5.9-4.2,8.9c-0.6,1.1-1.2,2.3-1.8,3.4
	c-0.5,1-1.4,1.4-2.5,1.6c-1.7,0.2-3.5,0.5-5.1,1.1c-2.6,1-4.4,0.1-6.2-1.7c-3.5-3.4-7.1-6.6-10.8-9.8c-2-1.8-4.2-3.4-6.3-5
	c-0.3,0-0.5-0.1-0.6,0c-1.7,1.6-3.4,1-5-0.2c-0.8-0.6-1.5-1.2-2.2-1.9c-1-1-2.1-1.5-3.4-1.9c-2.7-0.9-5.5-2.9-5-6.4
	c0.5-3.5-0.6-6.1-3.6-8.4c-4.5-3.4-8.6-7.3-12.9-11.1c-1.3-1.1-2.4-2.4-3.5-3.6c-1-1-1.1-2.2-0.5-3.5c4.1-9.4,9.1-18.3,16.1-25.9
	c0.5-0.5,0.9-1.1,1.5-1.6c1.7-1.6,3.5-2.3,6-2.4c2.4-0.1,3.9,0.9,5.4,2.3c2.8,2.6,5.5,5.3,8.4,7.9c2,1.8,4.4,1.4,5.5-1.2
	c0.8-1.9,1.7-3.8,2-5.8c2-10.8,6-21,9.4-31.4c2.2-6.8,3.8-13.8,5.8-20.7c0.4-1.5,0-2.4-1.1-3.3c-4.8-3.8-6.9-9-8.2-14.8
	c-1.8-8.5-2.9-17.1-3.2-25.9c-0.3-8.4,0.1-16.8,1.9-25c0.8-3.9,2.8-7.1,5.6-9.9c4.2-4.1,8.4-8,12.6-12.1c3.8-3.7,8.4-4.6,13.5-4
	c3,0.4,6,0.9,9,1.3c2.2,0.3,3.8-0.2,5.1-2.1c2.6-3.7,5.3-7.2,6-11.8c0.1-0.9,0.2-1.7,0.3-2.6c0.3-2.1,0.2-4.1-1.8-5.5
	c-0.7-0.5-1.1-1.4-2.1-2c0.2,0.7,0.4,1.3,0.5,2c0.2,0.8,0.4,1.6,0.3,2.3c0,1.2-0.7,1.8-1.7,1.3c-1.8-0.9-3.6-2-5.2-3.2
	c-0.5-0.4-0.6-1.6-0.6-2.4c-0.1-1.6,0-3.2,0.1-4.8c0.1-1.3-0.5-2.2-1.6-3c-1.6-1.1-3-2.4-4.5-3.5c-1.5-1.1-1.9-2.6-1.6-4.4
	c0.8-3.8,1.3-7.5,2.2-11.3c0.4-1.8,0.2-3.3-1-4.9c-2.9-3.8-5.5-7.8-8.3-11.7c-0.9-1.2-1-2.5-0.4-3.8c0.1-0.2,0.2-0.5,0.3-0.7
	c1.8-2.8,2.5-5.7,2.6-9.2c0.2-4.5,3.1-7.8,6.8-10.2c1.7-1.1,3-2.4,4.3-3.9c2.7-3.3,5.6-6.6,8.9-9.3c6.3-5.2,13.3-9.4,21.1-12
	c2.2-0.7,4.7-1.2,7-1.2c3.3,0,6.5,0.5,9.7,1c2.6,0.4,4.9,1.8,7.1,3.3c0.9,0.6,1.9,1.1,3,1.5c5.2,2.1,9.9,5.2,14,9
	c0.6,0.6,1.2,1.3,1.5,2.1c1,2.8,2.1,5.7,2.9,8.6c0.4,1.4-0.1,3,0,4.5c0.3,3,0.8,6,1.3,9c0.8,5.9,0.7,11.7-0.9,17.5
	c-1.8,6.5-2,13.2,0.3,19.8c1.8,5,3.6,10.1,5.3,15.1c1.1,3.6,2,7.2,2.9,10.9c0.9,4.1,0.3,8.1-1.4,11.9
	C350.5,191.5,349.5,194.1,348.5,196.9z M269,199.1c-0.5-0.4-0.7-0.7-0.3-1.3c0.9-1.2,1.6-2.5,2.5-3.7c-3.9-0.6-7.6-1.1-11.3-1.6
	c-4.5-0.6-8.6,0.3-12,3.5c-4.3,4.1-8.6,8.1-12.8,12.2c-2.6,2.6-4.4,5.6-5.2,9.3c-1.7,7.9-2.2,15.8-1.8,23.8
	c0.3,8.9,1.4,17.6,3.2,26.3c1.3,6.1,4,11.3,9.1,15.2c4.4,3.4,9.2,5.9,14.5,7.6c8,2.6,15.9,5.3,23.8,7.9c2.1,0.7,4.2,1.4,6.4,2
	c8,2,15.9,1.9,23.7-1.3c1.2-0.5,2.4-1,3.6-1.2c5.6-1,10.8-3.2,16.1-5.3c4.8-2,7.4-6.2,6.9-11.4c-0.3-3.4-1.4-6.5-2.6-9.7
	c-2-5.3-5.8-8.8-10.9-11.1c-6.1-2.7-11.3-6.6-15.5-11.7c-1.7-2-3.4-4-5.2-6c-2.7-3.1-5.7-5.8-9.3-7.8c-3.2-1.8-6.3-3.8-9.5-5.5
	c-4.8-2.6-8.8-6.1-12.4-10c-0.2-0.3-0.4-0.7-0.5-1c0.7,0.2,1.1,0.6,1.5,0.9c2.8,2.2,5.7,4.4,8.6,6.5c1.1,0.9,2.4,1,3.8,0.7
	c1.9-0.4,3.8-0.5,5.7-0.6c7.2-0.1,14.3,1.1,21.3,2.7c3.9,0.9,8,1.8,10.9,4.5c3.5-2.2,6.8-4.4,10.1-6.5c-3.1-6.1-4.5-12.6-5.9-19.4
	c-1.7,0.8-3.1,1.6-4.5,2.3c-1.9,1-4,1.3-6,0.5c-1.6-0.6-3.1-0.5-4.7,0.2c-3.2,1.3-6.4,1-9.5-0.6c-2.6-1.4-5.3-1.9-8.3-1.4
	c-3.3,0.6-6.4,0-8.9-2.5c-1.9-1.9-4.2-2.9-6.9-2.8c-0.6,0-1.1-0.1-1.7-0.2c-1.8-0.3-3.1-1.2-3.9-2.9c-0.3-0.6-0.5-1.2-0.8-1.8
	C269.8,198.2,268.9,198,269,199.1L269,199.1z M264,347.8c-0.8,2.1-1.6,4-2.3,5.8c-2.4,6.4-3.4,13.1-4.4,19.8c-0.2,1,0.4,1.6,1,2.3
	c1.4,1.5,2.6,3,4,4.5c1.4,1.5,1.5,3,0.5,4.8c-2.3,4-4.5,8.1-6.6,12.2c-0.5,0.9-0.9,2-0.8,2.9c0.9,4.4,1.7,8.9,3.2,13.2
	c1.5,4.5,3.8,8.6,8.3,11c0.1,0.1,0.3,0.2,0.4,0.3c6.9,5.6,14.8,9,23.3,11.3c7.5,2,15.1,2.4,22.7,0.3c7.8-2.1,15.5-4.5,23.2-6.7
	c5.3-1.6,10.3-4,15-6.7c1.5-0.9,2.9-1.9,4.3-3c1.5-1.1,2.2-2.7,2.4-4.5c0.9-6.6,1.5-13.3,1.4-20c-0.2-10.3-0.2-20.6-0.5-30.9
	c-0.2-7.3-0.7-14.5-1-21.8c0-0.6-0.2-1.2-0.4-2c-6.6,1.2-13.3,0.2-19.5,2.6c-0.1,0.5-0.2,0.7-0.2,0.9c-0.3,4.8-0.8,5.3-5.6,5.2
	c-4.9,0-9.9-0.1-14.8,0.9c-0.6,0.1-1.4,0.4-1.7,0.9c-0.8,1.1-1.8,1.3-2.9,1c-0.9-0.2-1.7-0.4-2.5-0.7c-4.3-1.2-8.6-1.4-13-0.9
	c-0.9,0.1-1.7,0.3-2.2,1.2c-0.9,1.6-2.4,1.8-4,1.3c-1.6-0.5-3.2-1-4.8-1.5c-2.3-0.7-4.6-1.3-6.7-1.9c-2.5,2.9-2.5,2.9-6.1,1.6
	C270.5,350.2,267.4,349.1,264,347.8z M276.8,473c0.1,1.4,0.1,2.4,0.2,3.4c0.3,2.2,0.6,4.4,0.9,6.6c0.8,7,1.7,13.9,2.4,20.9
	c0.6,5.4,0.3,10.7-1,15.9c-1.1,4.3-2.2,8.7-3.3,13c-1.5,5.7-3.1,11.4-3.5,17.3c-0.6,9.9,0.2,19.6,2.6,29.2c1,3.9,2,7.7,3.2,11.5
	c3.7,11.4,5.6,23.2,7.5,35c1.4,8.8,2.2,17.7,2,26.6c-0.1,6.4-0.3,12.8-0.5,19.1c0,0.5,0.1,1,0.2,1.7c5.8-8.6,12.4-12.2,21.9-11.5
	c-0.2-0.9-0.5-1.7-0.7-2.5c-4.5-15.8-7.2-31.9-7.4-48.3c-0.1-14-0.2-27.9-0.1-41.9c0.1-14.9,1.8-29.6,4.1-44.3
	c0.1-0.7,0-1.4,0.1-2.1c0.2-1.2,0.3-2.5,0.6-3.7c0.2-0.8,0.8-1.4,0.9-2.2c1.2-6,2.7-12,3.3-18.1c0.8-8.7,0.5-17.5-0.1-26.3
	c0-0.3-0.2-0.6-0.3-0.9c-0.7,0.1-1.3,0.2-1.9,0.3c-3.1,0.8-6.2,1.6-9.3,2.4c-5.5,1.5-11,1.6-16.6,0.2
	C280.5,474,278.8,473.5,276.8,473z M261,421c0,0.8,0,1.1,0,1.4c0.5,4.7,0.1,9.4-0.5,14.1c-0.9,7.5-0.6,14.9,0.4,22.4
	c0.5,3.7,2.2,6.2,5.6,7.6c4.2,1.7,8.4,3.6,12.7,4.9c6.4,2,12.9,2.1,19.6,0.3c6.3-1.7,12.7-3.3,19.1-4.2c9.6-1.4,19-3.5,28.1-6.5
	c2.8-0.9,5.5-2.5,8.1-3.9c2.9-1.6,4.5-4.2,5-7.5c0.4-2.6,0.7-5.2,0.9-7.8c0.4-5.7-0.4-11.3-1.1-16.9c-0.2-1.4-0.3-2.8-0.5-4.4
	c-5.9,4.8-12.4,7.8-19.1,10.4c-8.7,3.4-17.7,5.9-26.7,8.1c-5.2,1.3-10.6,1.4-15.9,0.7c-8.7-1.2-16.7-4.7-24.4-8.9
	c-1.5-0.8-2.9-2-4.2-3.2C265.9,425.5,263.6,423.4,261,421z M363.9,318.2c-0.1-0.3-0.1-0.5-0.1-0.6c-0.5-0.6-1-1.2-1.6-1.8
	c-3.9-4.2-7.3-8.9-9.7-14.1c-1.3-2.8-2.8-5.5-4.2-8.2c-5.5,0.1-10.6-0.5-15.8-1.4c-2.2,1.2-4.5,2.5-6.9,3.7
	c-1.8,0.9-3.7,1.8-5.7,2.4c-4.3,1.4-8.7,2.4-13.1,3.8c-4.9,1.6-10,2.1-15.1,1.7c-5.2-0.4-10.1-2.1-15-3.9c-0.9-0.3-1.7-0.6-2.6-0.9
	c-0.6,1.6-0.9,3-1.5,4.3c-2.3,5.6-6.3,9.9-11,13.6c-2.2,1.7-4.4,3.3-6.6,5c2.1,2.7,4.2,5.2,6.3,7.9c2.6-2.9,5.3-5.9,8-9
	c-1.8,4.4-4.6,7.9-8.3,11.4c-0.8-1.1-1.5-2-2.4-3.1c-1.3,1.9-2.4,3.5-3.8,5.5c5.7,2.5,11.3,4.3,17,6c2.4-4.4,3.2-9.3,5.4-13.5
	c0.2,0.1,0.4,0.1,0.6,0.2c-0.9,3.5-1.7,7-2.7,10.9c5.4,0.3,10.7,0.5,16.3,0.8c1.7-7.3,1-14.8,2.9-21.8c0.9,6,0.2,11.9-0.1,18.1
	c6.6,0.7,12.9,1.4,19.4,2.1c0.3-1,0.8-1.9,0.9-2.9c0.4-3.1,0.6-6.2,0.9-9.3c0.3-3.1,0.7-6.2,1-9.3c0.2,0,0.4,0,0.5,0
	c0.6,6.6,0.7,13.3-0.4,20c5.3,1.1,10.4,2.1,15.9,2.6c-0.4-2.6-0.6-4.8-1-6.9c-0.3-2.1-0.8-4.2-1.1-6.4c-0.3-2.2-0.5-4.4-0.7-6.7
	c-0.2-2.1-0.3-4.3-0.4-6.4c0.2,0,0.4,0,0.6-0.1c1.4,7.5,2.9,15.1,4.4,23c0.7-0.5,1.2-0.9,1.7-1.2c1.9-1.3,3.7-2.8,5.7-3.9
	c1.9-1,4-1.7,5.9-2.5c1-0.4,1.9-0.9,3-1.4c-2.1-3.7-4.1-7.1-5.9-10.7c-1.8-3.5-2.7-7.3-3.1-11.2c2,7,5.3,13.3,9.8,19
	C355.4,320.6,360.2,320.7,363.9,318.2z M321.7,469.6c0,0.6,0,1.2,0,1.7c0,5.8,0.1,11.6,0.1,17.5c0,7.7-1.7,14.9-6.7,21
	c-1.6,2-2.9,4.2-4.5,6.2c-1.2,1.5-1.9,3.1-2.2,4.9c-2.3,10.6-3.3,21.3-4.2,32c-1.3,14.6-1,29.2-0.9,43.8c0,0.7,0.1,1.3,0.2,2
	c0.8-0.6,1.2-1.4,1.6-2.1c3.5-7.8,7.1-15.5,10.5-23.3c2.7-6.2,5.4-12.4,8-18.7c3.9-9.5,8.5-18.7,13.4-27.8
	c3.4-6.4,6.9-12.8,10.5-19.1c3.9-6.7,6-13.9,5.4-21.7c-0.1-0.8-0.1-1.6-0.1-2.4c0.2-5.6,0.4-11.2,0.6-16.7c0.1-2,0.3-4,0.5-6.2
	C343.4,465.4,332.6,467.4,321.7,469.6z M339.3,137.3c-1.4-1.2-2.6-2.4-4-3.3c-2.4-1.5-3.4-3.5-2.5-6.3c0.3-0.8,0.3-1.8,0.4-2.6
	c-1,1.4-1.7,2.9-2.5,4.4c-0.9,1.7-1.6,1.9-3.3,1.3c-6.1-2.3-12.4-4.1-18.9-4.8c-5.9-0.6-11.8-1.2-17.7-0.2c-4.2,0.8-8.3,2-12.7,3.1
	c-0.2,2.1-0.4,4-0.5,6.2c-1.1-0.2-2.2-0.4-3.3-0.6c0.6,6.1,1.1,12.1,1.6,18c1.7,0.2,2.8-1.3,4.1-0.7c0.7,4.8,1.7,9.3,2.1,13.9
	c0.3,4.6,0.1,9.2,0.1,13.9c7.8-0.9,15.3,1.2,22.9,2c0.3-2.1,0.6-4.1,0.9-6.1c-10.4-3.7-18.2-10.5-23.9-19.8c0.6,0.4,1.1,0.9,1.5,1.4
	c2.3,2.5,4.5,5.3,7.1,7.5c4.7,4,9.5,7.7,15.7,9.4c4.7,1.3,8.8,0.6,12.7-2c1.6-1.1,3.1-2.2,4.8-3.2c5.4-3.4,8.4-8.4,9.5-14.6
	C334.3,148.3,336,142.7,339.3,137.3z M334.6,290c0.7,0.2,1,0.4,1.4,0.5c3.4,0.3,6.8,0.8,10.2,0.9c9.2,0.1,16.2-4,21.4-11.4
	c1.8-2.7,2.8-5.7,3.1-8.9c0.8-7.3-0.1-14.5-1.7-21.6c-2.3-10.2-4.8-20.3-7.1-30.5c-1.4-6.1-3.9-11.6-8.3-16.2
	c-1.7-1.7-3.2-3.5-5.5-4.8c-0.4,0.9-0.9,1.7-1.1,2.5c-0.7,2.4-1.4,4.9-2,7.4c-0.7,3.3-0.1,6.3,1.7,9.2c1.9,3.1,4.7,5.4,7.4,7.7
	c1.5,1.2,2.9,2.5,4.2,3.9c1.8,2.1,2.6,4.5,1.6,7.3c-0.3,0.7-0.2,1.6-0.4,2.4c-0.5,2.9-2,5.2-4.7,6.6c-2.1,1-4.4,1.4-6.7,1.4
	c1.8-1,3.7-1.7,5.5-2.7c4.9-2.5,5.3-8,1-11.3c-3.5-2.7-7.7-3.5-11.8-4.9c0.6,2.6,1.2,5,1.6,7.4c1.2,7.3-0.1,14.1-4.6,20.2
	c-1.4,1.9-2.9,3.6-4.4,5.4c-1.3,1.6-2.6,3.2-3.7,4.6c1.2,2.7,2.4,5.1,3.5,7.6C337.7,278.3,338.2,284.1,334.6,290z M340.8,136.3
	c0.5-1,1-1.6,1.2-2.3c1.8-5.4,2.9-10.9,2.2-16.7c-0.3-2.3-0.7-4.6-0.7-6.9c0.1-3.3-1.9-5.8-3.1-8.6c-0.2-0.4-0.6-0.7-1-1
	c-5.6-5.4-12.2-7.5-19.9-6.9c-7.9,0.6-15.2,2.9-21.9,7c-3.7,2.3-7.2,5-10.9,7.3c-1.7,1.1-2.2,2.2-2,4.3c0.5,4.6-0.4,8.8-4.5,11.6
	c-1,0.7-1.3,1.7-1,3c1-0.3,1.8-0.5,2.7-0.8c4.2-1.4,8.4-2.5,12.9-2.5c4.9,0,9.7,0.2,14.5,0.7c5.2,0.5,10.4,1.6,15.3,3.7
	c1.4,0.6,2.9,0.8,4.5,1.2c3.1-5.2,4.3-11,5.8-17.1c0.8,3.3,0.7,6.2,0.4,9.2c-0.3,2.6-0.7,5.2-1,7.8c-0.1,0.8-0.2,1.6,0.5,2.2
	C336.8,133,338.6,134.5,340.8,136.3z M330.3,212.7c0.2,0,0.5,0.1,0.7,0.1c0.7-6.7,5-10.9,10-14.6c1.1-0.8,2.1-1.7,3.1-2.6
	c6.3-5.5,8.8-12.2,6.6-20.4c-1.3-4.8-2.8-9.7-4.3-14.4c-2.5-7.4-4.8-14.7-4.4-22.6c0-0.2-0.2-0.4-0.5-0.8c-0.6,0.7-1.2,1.2-1.6,1.8
	c-1,1.9-2,3.8-2.7,5.8c-1,3-1.8,6.1-2.4,9.2c-1.3,6.7-4.5,12-10.3,15.7c-1.1,0.7-2.1,1.4-3.2,2.2c-4.2,3.1-8.8,4.9-14.2,3.6
	c-0.1,0.7-0.2,1.2-0.2,1.7c0,1.8,0.1,3.7,0.2,5.5c0.2,4.3,1,5.2,5.2,6.1c1.5,0.3,3.1,0.4,4.3,1.2c5.8,3.8,9.7,9,11.5,15.8
	C328.6,208.2,329.5,210.4,330.3,212.7z M259.2,293.7c-3.5-1.3-6.8-2.2-9.9-3.7c-3.1-1.4-5.9-3.3-8.9-5c-0.3,1.9-0.5,3.6-0.9,5.3
	c-1.8,9.2-4.8,18-8,26.8c-1.5,4.1-2.8,8.3-3.9,12.5c-1.4,5-2,10.2-4,15c-0.1,0.2,0,0.5,0.1,0.8c4.2,0.3,8.1,1.5,11.7,3.9
	c0.8-1.9,1.4-3.7,2.2-5.3c4.2-9.1,8.5-18.2,12.8-27.3c3-6.4,5.8-13,7.9-19.7C258.6,296,258.9,294.9,259.2,293.7z M252.9,321.4
	c8.3-6.5,16.7-12.6,20.3-23c-4.4-1.5-8.7-3-13.1-4.5c-0.2,0.7-0.3,1-0.4,1.4c-1.4,7.7-4.4,14.8-7.8,21.8
	c-4.1,8.6-8.3,17.3-12.4,25.9c-1,2.1-1.7,4.4-2.5,6.5c3.7,3.8,4,4.6,4.4,13.2c4.8,3.5,9.4,6.8,14.2,10.4c0-9.2,2.8-17.5,6.9-25.7
	c-2-0.5-3.8-0.9-5.5-1.3c-2.3-0.6-2.5-1.2-0.9-2.9c0.6-0.6,1.2-1.2,1.8-1.9c0.8-0.9,1.6-1.9,2.6-3.1c-1-0.4-1.7-0.7-2.4-1
	c-1-0.4-1.9-0.7-2.8-1.3c-1.6-0.9-1.7-1.8-0.8-3.4c0.6-0.9,1.3-1.8,1.9-2.8c0.5-0.8,0.9-1.6,1.4-2.5
	C256.3,325.4,254.8,323.6,252.9,321.4z M288.2,683.7c0.3,0.7,0.5,1.1,0.6,1.5c3.1,6,6.1,12.1,9.3,18.1c1.5,2.8,3.6,5.3,6.2,7.2
	c0.9,0.7,1.8,1,2.8,0.3c3.2-2.2,6.9-3,10.6-3.4c4.2-0.5,8.4-0.5,12.5,1.1c0.3,0.1,0.6,0.1,1.1,0.1c-0.2-0.7-0.3-1.3-0.6-1.7
	c-1.4-2.4-2.6-4.9-4.2-7.2c-5.3-7.3-9.3-15.2-12.6-23.6c-0.2-0.6-0.5-1.1-0.6-1.4c-1.1-0.5-1.9-0.8-2.7-1.1c-1-0.4-1.9-0.9-2.9-1.1
	c-4.5-0.8-8.5,0.5-11.8,3.4C293.2,678.3,290.8,681.1,288.2,683.7z M293.1,704.3c2.8,2.7,4.1,5.6,4.8,8.7c0.8,3.3,1.6,6.5,2.2,9.8
	c0.4,2.1,1.3,3.9,3.3,5c2.1,1.1,4.1,2.4,6.3,3.4c7,3.2,14.4,2.9,21.9,2.1c0.8-0.1,1.5-0.3,2.4-0.4c0.7-4.1,0.9-8.1,0.5-12.3
	c-2.6,1.2-5.1,1.8-7.6,1.5c-5.4-0.7-10.4-2.4-15.1-5.1c-1.7-1-3.3-2-5-2.8c-4.9-2.5-8.3-6.4-10.8-11.2c-1.9-3.8-3.8-7.6-5.6-11.3
	c-0.8-1.6-1.8-3.2-2.4-4.9c-1.2-3.5-3-6.9-2.1-10.8c0.1-0.3-0.1-0.7-0.3-1.5c-1.2,2.1-1.4,4-1.7,6c-0.8,4.9-0.2,9.9-0.1,14.8
	c0.2,6.8,0.3,13.7,0.4,20.6c0,0.5,0.3,1.1,0.6,1.4c2.2,1.5,4.4,2.8,6.7,4.3C292.1,715.7,292.6,710.2,293.1,704.3z M284.6,108.6
	c0.2-0.1,0.4-0.2,0.6-0.3c3.3-3.4,7.2-6.1,11.2-8.6c8.8-5.6,18.4-8.2,28.9-7.4c4.8,0.4,9,2,12.6,5.1c1.6,1.4,3.2,2.8,4.9,4.3
	c0-0.5,0.1-1,0-1.4c-0.7-2.4-1.4-4.7-2.4-7c-0.5-1.3-1.4-2.5-2.4-3.5c-3-2.8-6.4-5-10.1-6.8c-1.8-0.9-3.9-1.6-5.9-1.7
	c-8-0.5-16,0.3-23.4,3.7c-7,3.2-12.6,8.2-18,13.7c-0.7,0.7-1.2,1.4-1.7,1.9C280.9,103.2,282.7,105.8,284.6,108.6z M229.5,372.8
	c-0.2,1.9-0.1,3.4-0.5,4.9c-0.4,1.5,0.1,2.4,1.3,3.2c3.7,2.6,7.4,5.3,11.1,7.9c2.6,1.9,5.2,3.7,7.1,6.4c0.1,0.1,0.4,0.2,0.8,0.3
	c0.5-0.9,1-1.8,1.5-2.7c0.5-1,1-2,1.6-3c0.5-0.8,0.6-1.8,1.9-2.6c-3.8,10.3-9.4,19.1-14.7,28.4c1.4-0.2,2.4-0.5,3.4-0.6
	c1.3,0,2-0.6,2.6-1.7c1.3-2.4,2.8-4.8,4.1-7.3c3.9-7.3,7.8-14.7,11.7-22c0.8-1.5,0.7-2.1-0.6-3.3c-0.8-0.7-1.7-1.4-2.5-2.2
	c-4.9-4.9-10.1-9.3-15.7-13.3c-0.4-0.3-0.9-0.5-1.5-0.8c-0.5,1.2-0.9,2.2-1.4,3.2c4.9,3.8,10,6.9,13.9,11.5
	c-5.6-2.4-9.8-6.7-14.3-10.8C236.6,370.9,234,373.8,229.5,372.8z M354.4,323.6c0.1,0.5,0.2,0.8,0.3,1.1c1.5,3.8,3.7,7,6.7,9.8
	c1.3,1.2,2.5,2.4,1.3,4.3c2.9,2.5,5.6,5,8.4,7.4c1.4,1.2,3.1,1.3,4.7,0.5c2-1,3.8-2.2,5.8-3.4c-0.3-0.5-0.5-0.9-0.7-1.3
	c-2.4-5.1-5.4-9.9-7.2-15.4c-1.3-4-3-7.9-4.8-11.7c-3-6.2-5.7-12.5-7.6-19.1c-0.5-1.7-1.1-3.4-1.6-5c-3.3,1-6.4,2-9.6,3
	c0.2,0.5,0.3,1.1,0.5,1.5c2.4,5,4.9,9.8,8.5,14.1c2,2.3,4.1,4.5,6.1,6.7c1.6,1.8,1.3,3.4-0.8,4.4c-1.6,0.8-3.3,1.2-4.9,1.8
	C357.8,322.6,356.1,323.1,354.4,323.6z M341.7,226.7c-4.1-0.1-7.5,1.1-10.8,2.6c-2.8,1.3-5.4,3-8.1,4.6c-1.1,0.6-1.3,1.5-1,2.6
	c1.3,5.3,1.5,10.7,1.3,16.1c0,1.2-0.1,2.4,0.1,3.6c0.2,1.1,0.6,2.5,1.4,3.1c1.8,1.6,4,2.9,6.1,4.4c2.8-3.4,5.7-6.8,8.3-10.4
	c2.5-3.4,4-7.3,4.3-11.5C343.6,236.7,342.7,231.7,341.7,226.7z M213.1,366.5c-2.8,5-6.5,9.1-10.2,13.3c-1.2,1.3-1.9,2.8-1.9,4.5
	c-0.1,2.7,0,5.4,0,8.1c0,1.6,0.8,2.5,2.4,2.9c0.1-1.4,0.2-2.7,0.3-4.1c1,1.8,0.5,3.9,2.3,5.7c0.3-1.8,0.5-3.1,0.7-4.3
	c0.7,1.9,0.1,4,1.9,5.4c1.5,1.2,2.7,2.9,5,3.1c0.8-2.8-2.3-3.5-2.7-5.7c2.7-3.5,4.3-7.9,7.7-11.2c-0.3,1.6-1.1,3.1-1.5,4.6
	c-0.4,1.5-0.5,3.1-0.8,4.7c-0.2,1.6-1,3.1-0.4,4.9c0.5-0.2,0.6-0.6,0.8-0.9c2-2.9,4.1-5.7,6.1-8.5c0.7-1,1.6-2,2-3.2
	c1.5-3.9,2.8-7.8,3.3-11.9c0.2-1.7-0.4-2.7-1.6-3.6C222.5,367.4,217.9,366.7,213.1,366.5z M228.4,380.4c-0.6,5.5-3.4,9.1-6.7,12.6
	c-1.9,2-3.4,4.6-5.1,7c0.3,0.3,0.5,0.5,0.8,0.7c6.4,4.1,12.3,8.9,17.5,14.4c0.5,0.5,1.2,0.9,1.7,1.4c0.3-0.3,0.5-0.3,0.6-0.4
	c3.6-5.9,7.1-11.9,10.7-17.8c0.6-1,0.2-1.7-0.6-2.3c-2.8-2.3-5.5-4.6-8.3-6.8c-2.4-1.9-4.8-3.7-7.2-5.5
	C230.7,382.8,229.8,381.8,228.4,380.4z M181,366.5c5.7,6.1,12.3,11.1,18.3,16.5c3.1-6.4,8.8-10.7,12.4-16.5
	c-0.8-0.8-1.7-1.5-2.2-2.4c-0.7-1.3-1.7-2-2.9-2.7c-6-3.4-11.1-7.7-14.9-13.5c-0.1-0.2-0.4-0.2-0.5-0.3
	C187.9,351.4,184.7,358.2,181,366.5z M209.7,357.2c0.1,1,0.1,1.9,0.3,2.9c0.5,3.6,1.3,4.5,5,4.8c5.3,0.6,10.4,1.8,14.4,5.7
	c1.3,1.2,2.8,1.1,4.2,0.3c3.1-1.8,5.4-4.1,6.1-7.8c0.4-2.5,0.4-5-0.4-7.3c-0.5-1.5-1.5-3-2.7-4.1c-1.2-1.1-2.8-1.8-4.4-2.4
	c-4.6-1.9-9.2-3.2-14.1-1c-1.4,0.6-2.7,1.5-4.2,2.1C210.8,351.6,209.4,353.9,209.7,357.2z M282.5,678.4c-1.6-1.7-3.2-2.9-4.2-4.4
	c-3.5-5.1-6.3-10.6-7.1-16.8c-0.5-4-0.7-8.1-1-12.1c-0.1-0.7-0.1-1.4-0.2-2.5c-0.5,0.7-0.8,1-0.9,1.3c-2.3,4.8-4.5,9.7-6.7,14.5
	c-1.4,3.1-2.7,6.3-4,9.5c-0.3,0.6-0.6,1.4-0.5,2c0.5,2.4,1.4,4.7,2.6,6.7c1.4,0,2-0.6,2.4-1.6c1.5-3.3,3-6.5,4.6-9.7
	c0.3-0.6,0.5-1.2,0.9-1.7c0.6-0.7,1.5-0.7,2,0.2c0.3,0.6,0.6,1.4,0.6,2c0,2.1,0,4.2-0.3,6.2c-0.6,3.9-1.6,7.6-2.2,11.5
	c-0.2,1.2,0,2.7,0.5,3.7c3.1,5.3,6.5,10.2,11.9,13.5c0.4,0.3,0.9,0.4,1.6,0.7C282.3,693.3,281.4,685.6,282.5,678.4z M320.8,234.1
	c-6.3-2.6-12.3-4.3-18.5-5.1c-6.2-0.9-12.3-2.4-18.7-1.1c1.8,1.3,3.6,2.3,5.5,3.3c5.6,2.8,10.4,6.5,14.4,11.3
	c1.5,1.8,3.1,3.5,4.5,5.2c3.1,3.8,6.9,6.6,11,9.1c1,0.6,2.2,1.1,3.7,1.7c0-1.4,0.1-2.3,0-3.3c-0.2-3.7-0.5-7.3-0.8-11
	c-0.1-1-0.1-2.1-0.3-3.1C321.5,238.7,321.2,236.3,320.8,234.1z M270.8,125.1c2.3-0.5,4.6-0.8,6.8-1.4c2.9-0.8,4.8-2.8,5.5-5.8
	c1.4-5.5,0-10.2-3.6-14.5c-2.5-2.9-5.8-3.8-9.5-3.3c-3.5,0.5-6.1,2.5-8.4,5.1c-3.2,3.7-3.8,7.9-1.9,12.3
	C261.8,122.3,265.4,124.9,270.8,125.1z M383.6,366.3c2.3,0.2,4.3-0.7,5.9-2.2c2.1-2.1,3.9-4.4,5.7-6.7c1.3-1.6,1.4-3.6,0.4-5.4
	c-1.1-2.1-2.3-4.2-3.8-6c-2.4-3-4.5-3.3-8-1.8c-3.6,1.6-7.3,3.2-10.9,4.8c-0.5,0.2-0.9,0.6-1.3,1c-3.4,4.2-2.2,10.9,2.5,13.6
	C377,365.2,380.2,366,383.6,366.3z M270.9,197.4c1.2,3,3.3,3.9,6.1,3.6c3-0.3,5.5,0.5,7.7,2.6c2.2,2.1,4.7,2.8,7.7,2.3
	c3.1-0.5,6-0.2,8.8,1.5c2.9,1.7,5.9,1.9,9,0.6c1.7-0.7,3.4-0.7,5.1-0.1c0.9,0.3,1.9,0.5,2.8,0.3c2.8-0.6,5-2.2,7.5-3.5
	c-0.9-2.9-2.1-5.4-4-7.8c-1.3,0.9-2.5,1.6-3.7,2.4c-1.1,0.7-2.3,1.3-3.6,0.7c-1.6-0.7-3.1-0.5-4.6,0.3c-1.4,0.7-2.8,0.7-4.4,0.2
	c-1.3-0.4-2.8-0.6-4.2-0.4c-2.2,0.3-4.1-0.1-5.8-1.4c-2.3-1.8-4.9-2.7-7.8-2.5c-3.4,0.2-6-1-8.3-3.4c-0.7-0.8-1.7-1.3-2.8-2.1
	C274.4,193,272.7,195.2,270.9,197.4z M383.5,368.5c-1.5,5-1.1,6.2,3.1,8.6c0.4,0.3,0.8,0.6,1.4,1c-0.8,0.4-1.4,0.8-2,1.1
	c0.1,1,0.1,1.9,0.2,2.7c0.2,2.6,0.6,3.1,3.3,3.5c3.5,0.4,7,0.8,10.5,1.1c1.1,0.1,2.4-0.3,3.5-0.6c0.4-0.1,0.8-0.5,1-0.9
	c0.7-1.7,1.4-3.4,2-5.1c1-3,0.5-5.7-1.7-8c-1.2-1.2-2.3-2.4-3.4-3.7c-2-2.4-3.9-4.8-5.9-7.3C392.4,364.6,389.1,368.5,383.5,368.5z
	 M285.6,643.8c-3.9-0.4-7.7-0.1-11.3,1.1c-2.1,0.7-2.5,1.3-2.4,3.5c0.2,4.7,1.1,9.3,2.6,13.8c1.4,4.3,3.7,8.1,6.4,11.7
	c0.5,0.7,1.3,1.2,2.3,2.1c0.9-2.3,2.1-4.1,2.1-5.9c0.3-8,0.4-16.1,0.5-24.1C285.8,645.3,285.7,644.7,285.6,643.8z M198.6,336.9
	c-2.3,3.2-4.6,6.5-6.9,9.7c5.2,5.4,10.6,10.1,16.6,14.9c0-2.6,0-4.7,0-6.9c0.1-2.4,2.1-3.8,3.4-5.4c-1.6-1.7-3.1-3.2-4.6-4.8
	c-1.4-1.6-2.8-3.3-4.2-5c0.1-0.1,0.3-0.3,0.4-0.4c3.2,3.1,6.5,6.3,9.7,9.4c1-0.6,1.9-1,2.4-1.3c-3.1-3.3-6-6.4-9-9.5
	c-0.8-0.9-1.8-1.2-3-1.1C201.9,336.7,200.3,336.8,198.6,336.9z M277.3,99.5c2.2-2,4.3-3.9,6.4-5.9c6.4-6,13.4-11,22.1-12.6
	c4.2-0.8,8.5-1,12.8-1.5c0.5-0.1,1-0.1,2.1-0.3c-1.2-0.7-1.8-1.1-2.5-1.4c-5.8-1.9-11.7-2.9-17.6-1.1c-3.3,0.9-6.5,2.3-9.4,4.1
	c-4.6,2.7-8.9,5.8-13.3,8.9c-3.3,2.3-5.7,5.5-8.2,8.6c-0.1,0.1,0,0.3,0,0.3C272.4,99,274.9,99.3,277.3,99.5z M347.1,196.1
	c-0.1-0.1-0.3-0.2-0.4-0.3c-3.4,2.9-6.8,5.7-10.1,8.6c-0.6,0.6-1.1,1.4-1.6,2.1c-4.1,6.3-3,11.7,3.2,16.1c2.9,2,6.2,3.3,9.6,4.3
	c3.2,0.9,6.3,2.3,8.9,4.5c0.4,0.3,0.8,0.6,1.5,1.1c-0.5-2.5-1.9-3.8-3.4-5.2c-2.3-2-4.7-3.9-6.7-6.1c-4-4.2-5.7-9.2-4.2-14.9
	c0.4-1.4,0.9-2.7,1.3-4.1C345.8,200.2,346.5,198.1,347.1,196.1z M277.3,189.6c1,0.6,2,1,2.7,1.8c2.2,2.3,4.9,2.9,7.8,2.8
	c3.1-0.1,6,0.7,8.5,2.7c1.4,1.1,2.9,1.3,4.7,1.1c1.5-0.2,3,0,4.4,0.3c1.3,0.3,2.5,0.5,3.7-0.1c1.7-0.8,3.5-1.1,5.3-0.3
	c0.5,0.2,1.2,0.2,1.6,0c1.4-0.8,2.8-1.7,4.2-2.6c-0.8-1.4-1.7-2.2-3.1-2.4c-0.5-0.1-1-0.4-1.6-0.5c-1.6-0.6-3.3-1.1-4.9-1.7
	c-1.1-0.4-2.3-0.7-3.2-1.4c-0.8-0.6-1.5-0.6-2.4-0.5c-2.6,0.3-5.2,0.8-7.8,0.7c-6-0.2-11.9-0.7-17.5-3.7
	C278.8,187.1,278.1,188.3,277.3,189.6z M310.3,512c0.2,0.1,0.4,0.1,0.6,0.2c1-1.5,2-3,3.1-4.5c3.6-4.6,5.3-9.9,5.6-15.7
	c0.3-7.1,0.7-14.2,1-21.3c0-0.3-0.1-0.6-0.2-1c-3.1,0.3-6.1,0.6-8.9,1.6C313,485,313.9,498.5,310.3,512z M275.9,172.6
	c0.2-0.7,0.2-0.9,0.2-1c-1.6-5.7-1.8-11.6-2.3-17.5c-0.6-7.5-1.2-14.9-1.7-22.4c-0.1-1.7-0.2-3.4-0.3-5.1c-1.6-0.7-2.2,0.2-2.4,1.3
	c-1,4.1-2,8.2-2.8,12.3c-0.9,4.3-1.6,8.6-2.3,12.9c-0.1,0.6,0,1.6,0.4,1.9c1.6,1.5,3.4,2.9,5.6,4.6c-0.2-3.1-0.3-5.5-0.5-8.4
	c0.6,0.6,1.1,0.9,1.2,1.3c0.3,0.8,0.4,1.7,0.4,2.6c0.2,4.4,0.3,8.8,0.6,13.1c0,0.7,0.2,1.7,0.6,2.1
	C273.5,171.3,274.6,171.8,275.9,172.6z M337.6,341.6c1.9-0.4,3.4-0.8,5-1c4.2-0.6,8.3-1.3,12.6-1c2.3,0.2,4.4-1,6.3-2.8
	c-3.7-3.3-6.5-7-8.4-11.6c-0.2,2-1.6,2.6-3,3.2c-1.5,0.6-3.1,1.2-4.7,1.7c-3.6,1.1-6.6,3-9.4,5.7C336.5,337.7,337,339.6,337.6,341.6
	z M307.5,711.5c-0.1,0.2-0.2,0.5-0.3,0.7c0.3,0.1,0.6,0.2,0.9,0.4c5.2,3.4,10.8,5.8,16.9,7c3.3,0.6,6.5,0.2,9.5-1.7
	c-0.2-0.4-0.3-0.9-0.5-1.3c-0.5-1-1.5-2-1.3-2.9c0.2-2-0.9-2.6-2.2-3.2c-1.2-0.5-2.5-1-3.8-1.3c-3.9-0.8-7.8-0.6-11.6,0.1
	C312.5,709.8,310,710.8,307.5,711.5z M296.4,349.3c6.1-0.3,11.8-0.6,17.6,1.2c0-3.8,0-7.2,0-11c-5-0.7-10.2-1.3-15.4-2
	C297.8,341.4,297.1,345.2,296.4,349.3z M335.2,338.4c-1.1,2.3-2.9,2.1-4.8,1.8c-0.5-0.1-0.9-0.2-1.4-0.3c-3.4-0.7-6.8-1.5-10.3-2.2
	c-0.9-0.2-1.8-0.1-2.8-0.1c0.2,3.9,0.3,7.5,0.5,11.4c6.5-0.8,13-0.8,19.5-1.8C335.6,344,335.4,341.2,335.2,338.4z M261.9,338.8
	c-1.6,1.9-3.2,3.7-5.1,5.8c1.5,0.3,2.6,0.5,3.6,0.9c4.8,1.6,9.6,3.3,14.4,4.9c2,0.7,2.6,0.6,3.3-1.4c1-2.8,1.7-5.7,2.6-8.8
	c-2.3-0.3-4.3-0.6-6.2-0.8c-1.7,2.8-1.9,2.9-4.7,2.1C267.3,340.6,264.7,339.7,261.9,338.8z M282.3,340.2c-0.8,2.8-1.5,5.4-2.3,8
	c0.5,0.2,0.8,0.4,1.2,0.5c3.1,0.8,6.1,1.7,9.2,2.5c2.7,0.7,3.3,0.6,4-2.1c1-3.7,1.7-7.6,2.5-11.4c0-0.1-0.1-0.3-0.3-0.6
	c-0.7-0.2-1.5-0.3-2.4-0.5c-0.2,0.3-0.3,0.5-0.4,0.7c-1.2,3.6-1.4,3.7-5.1,3.3c-0.4,0-0.8-0.2-1.2-0.2
	C285.8,340.4,284.1,340.3,282.3,340.2z M287.9,682.5c0.5-0.7,0.8-1.2,1.1-1.6c1.9-2.8,4-5.4,6.8-7.3c5-3.5,10.3-4.6,16-1.9
	c0.1,0,0.2-0.1,0.6-0.2c-0.4-1.5-0.9-3-1.3-4.5c-0.7-2.4-1.2-2.8-3.7-2.9c-4.4-0.3-8.4,0.9-11.9,3.6c-3.3,2.6-5.9,5.8-8,9.5
	C286.4,678.8,286.6,680.5,287.9,682.5z M284.8,633.4c-0.6-6.4-1.8-12.5-3-18.8c-2.6,3.6-8.7,18.8-8.7,21.6
	C276.7,634,280.4,632.4,284.8,633.4z M305,183.3c-7.9-0.3-15.5-2.7-23.5-2.3c-0.5,1.1-1,2.3-1.4,3.4c5.7,2.9,21.3,3.9,25.4,1.8
	C305.4,185.3,305.2,184.4,305,183.3z M268.4,126.2c-4.9-1-7.8-4.3-10.1-8.9c-0.8,1.4-1.4,2.6-2.1,3.7c-0.6,1.1-0.4,2,0.3,3.1
	c2.5,3.4,4.9,6.9,7.3,10.4c0.4,0.6,1,1.2,1.6,2C266.4,132.9,267.3,129.7,268.4,126.2z M285.1,635.6c-4.8-1-8.9,0.5-12.6,3
	c-0.5,0.3-1,1-1,1.5c-0.1,1.5,0,2.9,0.1,4.9c4.3-3.2,8.9-3.6,13.9-3.3C285.4,639.4,285.3,637.5,285.1,635.6z M280.6,169.7
	c0.1-5.8-0.3-11-2.2-16c-0.9-0.1-1.6-0.1-2.4-0.2c0,0.6-0.1,1.2-0.1,1.7c0.2,2.2,0.5,4.4,0.5,6.7
	C276.5,165.1,278.3,167.2,280.6,169.7z M337.5,225c0-0.2,0.1-0.4,0.1-0.6c-4.2-3.2-6.9-7.7-9.9-11.9c1.3,4.7,3.1,9.2,5,13.8
	C334.4,225.8,335.9,225.4,337.5,225z M276.3,133c0.5-2.7,0.9-5.2,1.3-7.8c-1.7,0.4-3.1,0.8-4.5,1.1c0.3,2.4,0.6,4.5,0.8,6.6
	C274.9,133,275.6,133,276.3,133z M269.5,666.6c-0.2,0-0.3-0.1-0.5-0.1c-1.7,3-3.5,6-5.3,9.1c1.5,0.1,2.8,0.2,4.2,0.3
	C268.5,672.7,269.6,669.7,269.5,666.6z M294.9,709.6c-0.2,0-0.4,0-0.6,0c-0.2,3.5-0.5,6.9-0.4,10.7c1.4-0.6,2.3-1,3.4-1.5
	C296.5,715.7,295.7,712.7,294.9,709.6z M215.5,392c-0.1-0.1-0.2-0.1-0.4-0.2c-1.1,1.3-2.2,2.6-3.5,4c0.7,0.5,1.4,0.8,2.1,1.3
	C214.4,395.2,215,393.6,215.5,392z"/>
<path class="st0" d="M264,347.8c3.4,1.2,6.6,2.3,9.7,3.5c3.6,1.3,3.5,1.4,6.1-1.6c2.2,0.6,4.4,1.2,6.7,1.9c1.6,0.5,3.2,1,4.8,1.5
	c1.6,0.5,3.1,0.3,4-1.3c0.5-0.9,1.2-1.1,2.2-1.2c4.4-0.6,8.8-0.3,13,0.9c0.8,0.2,1.7,0.5,2.5,0.7c1.2,0.2,2.2,0.1,2.9-1
	c0.3-0.5,1.1-0.8,1.7-0.9c4.9-1,9.8-0.9,14.8-0.9c4.7,0,5.2-0.4,5.6-5.2c0-0.2,0.1-0.5,0.2-0.9c6.2-2.4,12.9-1.4,19.5-2.6
	c0.2,0.8,0.3,1.4,0.4,2c0.4,7.3,0.9,14.5,1,21.8c0.3,10.3,0.3,20.6,0.5,30.9c0.1,6.7-0.5,13.4-1.4,20c-0.3,1.8-1,3.4-2.4,4.5
	c-1.4,1-2.8,2.1-4.3,3c-4.8,2.8-9.7,5.2-15,6.7c-7.7,2.3-15.4,4.6-23.2,6.7c-7.6,2.1-15.2,1.7-22.7-0.3c-8.5-2.3-16.4-5.7-23.3-11.3
	c-0.1-0.1-0.2-0.2-0.4-0.3c-4.5-2.4-6.8-6.5-8.3-11c-1.4-4.3-2.3-8.8-3.2-13.2c-0.2-0.9,0.3-2,0.8-2.9c2.1-4.1,4.3-8.2,6.6-12.2
	c1-1.8,0.9-3.3-0.5-4.8c-1.4-1.4-2.6-3-4-4.5c-0.6-0.7-1.1-1.3-1-2.3c1.1-6.7,2-13.4,4.4-19.8C262.4,351.8,263.1,350,264,347.8z"/>
<path class="st0" d="M268.9,199.1c-0.1-1.1,0.8-0.9,1.5-1.2c0.3,0.6,0.5,1.2,0.8,1.8c0.8,1.6,2.1,2.6,3.9,2.9
	c0.6,0.1,1.1,0.2,1.7,0.2c2.7-0.1,5,0.8,6.9,2.8c2.5,2.5,5.6,3.1,8.9,2.5c3-0.5,5.7,0,8.3,1.4c3.1,1.6,6.2,1.9,9.5,0.6
	c1.5-0.6,3.1-0.7,4.7-0.2c2.1,0.7,4.1,0.4,6-0.5c1.4-0.7,2.8-1.4,4.5-2.3c1.4,6.8,2.8,13.4,5.9,19.4c-3.3,2.2-6.6,4.3-10.1,6.5
	c-3-2.7-7-3.6-10.9-4.5c-7-1.6-14.1-2.8-21.3-2.7c-1.9,0-3.8,0.2-5.7,0.6c-1.4,0.3-2.7,0.2-3.8-0.7c-2.9-2.1-5.7-4.3-8.6-6.5
	c-0.4-0.3-0.8-0.7-1.5-0.9c0.2,0.3,0.3,0.7,0.5,1c3.6,3.9,7.6,7.4,12.4,10c3.2,1.8,6.3,3.7,9.5,5.5c3.6,2.1,6.6,4.7,9.3,7.8
	c1.7,2,3.5,4,5.2,6c4.3,5.1,9.5,9,15.5,11.7c5.1,2.3,8.9,5.8,10.9,11.1c1.2,3.1,2.3,6.3,2.6,9.7c0.5,5.2-2.1,9.4-6.9,11.4
	c-5.2,2.2-10.4,4.4-16.1,5.3c-1.2,0.2-2.4,0.7-3.6,1.2c-7.7,3.2-15.7,3.3-23.7,1.3c-2.2-0.5-4.3-1.3-6.4-2
	c-7.9-2.6-15.9-5.3-23.8-7.9c-5.3-1.7-10.1-4.2-14.5-7.6c-5.1-3.9-7.8-9.1-9.1-15.2c-1.8-8.7-2.9-17.5-3.2-26.3
	c-0.3-8,0.2-15.9,1.8-23.8c0.8-3.6,2.5-6.7,5.2-9.3c4.2-4.1,8.5-8.2,12.8-12.2c3.4-3.2,7.5-4.1,12-3.5c3.7,0.5,7.4,1,11.3,1.6
	c-0.8,1.3-1.6,2.5-2.5,3.7C268.2,198.4,268.5,198.8,268.9,199.1c-0.5,0.9,0,1.7,0.4,2.5c2.9,6.3,5.7,12.6,8.6,18.9
	c0.7,1.6,1.3,3.2,2.8,4.3c-0.3-2-0.6-3.9-1.3-5.7c-2.7-6.6-5.7-13-9.9-18.8C269.3,200,269.1,199.5,268.9,199.1z M330.6,285
	c0-1.7-1-3.6-2.3-4.6c-1.3-0.9-2-0.8-3.2,0.3c-0.4,0.4-1,0.8-1.5,1.2c-1.7,1.5-2.2,3.6-1.2,5.4c1,1.7,3,2.6,4.9,2.1
	C329.4,289,330.7,287.2,330.6,285z"/>
<path class="st0" d="M276.8,473c2.1,0.6,3.8,1,5.5,1.5c5.5,1.4,11,1.3,16.6-0.2c3.1-0.9,6.2-1.6,9.3-2.4c0.6-0.2,1.2-0.2,1.9-0.3
	c0.1,0.4,0.3,0.7,0.3,0.9c0.6,8.8,0.9,17.6,0.1,26.3c-0.6,6.1-2.1,12.1-3.3,18.1c-0.1,0.8-0.7,1.4-0.9,2.2c-0.3,1.2-0.5,2.4-0.6,3.7
	c-0.1,0.7,0,1.4-0.1,2.1c-2.3,14.7-4,29.4-4.1,44.3c-0.1,14-0.1,27.9,0.1,41.9c0.2,16.5,2.9,32.5,7.4,48.3c0.2,0.8,0.4,1.6,0.7,2.5
	c-9.5-0.6-16.1,3-21.9,11.5c-0.1-0.7-0.2-1.2-0.2-1.7c0.1-6.4,0.3-12.8,0.5-19.1c0.2-8.9-0.5-17.8-2-26.6c-1.9-11.8-3.8-23.6-7.5-35
	c-1.2-3.8-2.2-7.7-3.2-11.5c-2.4-9.6-3.2-19.3-2.6-29.2c0.4-5.9,2-11.6,3.5-17.3c1.1-4.3,2.2-8.7,3.3-13c1.3-5.2,1.6-10.6,1-15.9
	c-0.7-7-1.6-13.9-2.4-20.9c-0.3-2.2-0.6-4.4-0.9-6.6C276.9,475.4,276.9,474.3,276.8,473z"/>
<path class="st0" d="M261,421c2.6,2.4,4.8,4.6,7.1,6.6c1.3,1.2,2.7,2.3,4.2,3.2c7.7,4.2,15.6,7.6,24.4,8.9
	c5.3,0.8,10.7,0.6,15.9-0.7c9.1-2.2,18-4.7,26.7-8.1c6.7-2.6,13.2-5.6,19.1-10.4c0.2,1.6,0.3,3,0.5,4.4c0.7,5.6,1.5,11.2,1.1,16.9
	c-0.2,2.6-0.5,5.2-0.9,7.8c-0.5,3.3-2.1,5.9-5,7.5c-2.6,1.5-5.3,3-8.1,3.9c-9.2,3-18.6,5.1-28.1,6.5c-6.4,1-12.8,2.5-19.1,4.2
	c-6.6,1.8-13.1,1.7-19.6-0.3c-4.3-1.4-8.5-3.3-12.7-4.9c-3.4-1.4-5.1-3.9-5.6-7.6c-1-7.5-1.3-14.9-0.4-22.4c0.6-4.7,1-9.4,0.5-14.1
	C261,422,261,421.7,261,421z"/>
<path class="st0" d="M363.9,318.2c-3.7,2.5-8.5,2.4-12.4,4.8c-4.5-5.8-7.7-12.1-9.8-19c0.3,3.9,1.3,7.7,3.1,11.2
	c1.8,3.5,3.8,7,5.9,10.7c-1,0.5-2,1-3,1.4c-2,0.9-4.1,1.5-5.9,2.5c-2,1.1-3.8,2.6-5.7,3.9c-0.5,0.3-1,0.7-1.7,1.2
	c-1.5-7.9-2.9-15.4-4.4-23c-0.2,0-0.4,0-0.6,0.1c0.1,2.1,0.3,4.3,0.4,6.4c0.2,2.2,0.4,4.5,0.7,6.7c0.3,2.1,0.7,4.2,1.1,6.4
	c0.3,2.2,0.6,4.4,1,6.9c-5.5-0.6-10.6-1.6-15.9-2.6c1.2-6.7,1.1-13.3,0.4-20c-0.2,0-0.4,0-0.5,0c-0.3,3.1-0.7,6.2-1,9.3
	c-0.3,3.1-0.5,6.2-0.9,9.3c-0.1,1-0.6,1.9-0.9,2.9c-6.5-0.7-12.8-1.4-19.4-2.1c0.3-6.1,1-12.1,0.1-18.1c-1.9,7.1-1.3,14.5-2.9,21.8
	c-5.5-0.3-10.8-0.5-16.3-0.8c0.9-3.9,1.8-7.4,2.7-10.9c-0.2-0.1-0.4-0.1-0.6-0.2c-2.2,4.2-2.9,9-5.4,13.5c-5.7-1.7-11.3-3.5-17-6
	c1.4-2,2.5-3.6,3.8-5.5c0.8,1.1,1.5,2,2.4,3.1c3.6-3.5,6.5-7,8.3-11.4c-2.7,3-5.4,6.1-8,9c-2.1-2.7-4.2-5.3-6.3-7.9
	c2.1-1.6,4.4-3.2,6.6-5c4.7-3.7,8.7-8,11-13.6c0.5-1.3,0.9-2.7,1.5-4.3c0.9,0.3,1.8,0.5,2.6,0.9c4.9,1.8,9.8,3.5,15,3.9
	c5.1,0.4,10.2-0.1,15.1-1.7c4.3-1.4,8.7-2.5,13.1-3.8c2-0.6,3.8-1.5,5.7-2.4c2.4-1.2,4.8-2.5,6.9-3.7c5.2,0.9,10.3,1.4,15.8,1.4
	c1.4,2.7,2.9,5.4,4.2,8.2c2.4,5.3,5.8,9.9,9.7,14.1c0.5,0.6,1.1,1.2,1.6,1.8C363.9,317.6,363.9,317.8,363.9,318.2z"/>
<path class="st0" d="M321.7,469.6c10.9-2.2,21.7-4.2,32.1-9c-0.2,2.2-0.4,4.2-0.5,6.2c-0.2,5.6-0.4,11.2-0.6,16.7
	c0,0.8,0,1.6,0.1,2.4c0.5,7.8-1.6,15-5.4,21.7c-3.6,6.3-7.1,12.7-10.5,19.1c-4.8,9.1-9.4,18.3-13.4,27.8c-2.6,6.3-5.3,12.5-8,18.7
	c-3.4,7.8-7,15.6-10.5,23.3c-0.3,0.8-0.7,1.5-1.6,2.1c-0.1-0.7-0.2-1.3-0.2-2c-0.1-14.6-0.5-29.2,0.9-43.8c1-10.7,2-21.4,4.2-32
	c0.4-1.8,1.1-3.5,2.2-4.9c1.6-2,2.9-4.2,4.5-6.2c5.1-6.1,6.7-13.3,6.7-21c0-5.8,0-11.6-0.1-17.5
	C321.7,470.8,321.7,470.3,321.7,469.6z"/>
<path class="st0" d="M339.3,137.3c-3.3,5.4-5,11-6,16.9c-1.1,6.2-4.2,11.2-9.5,14.6c-1.6,1-3.2,2.2-4.8,3.2c-3.9,2.6-8,3.4-12.7,2
	c-6.1-1.8-11-5.4-15.7-9.4c-2.6-2.2-4.7-5-7.1-7.5c-0.5-0.5-0.9-1-1.5-1.4c5.7,9.3,13.5,16.1,23.9,19.8c-0.3,2-0.6,4-0.9,6.1
	c-7.6-0.8-15.1-2.9-22.9-2c0-4.8,0.3-9.4-0.1-13.9c-0.3-4.6-1.3-9.1-2.1-13.9c-1.3-0.6-2.5,0.9-4.1,0.7c-0.5-5.9-1.1-11.9-1.6-18
	c1.2,0.2,2.2,0.4,3.3,0.6c0.2-2.2,0.4-4.1,0.5-6.2c4.4-1.1,8.5-2.3,12.7-3.1c5.9-1.1,11.8-0.5,17.7,0.2c6.6,0.7,12.8,2.6,18.9,4.8
	c1.7,0.6,2.4,0.4,3.3-1.3c0.8-1.5,1.4-3,2.5-4.4c-0.1,0.9-0.2,1.8-0.4,2.6c-0.9,2.8,0.1,4.7,2.5,6.3
	C336.7,134.8,337.8,136.1,339.3,137.3z M293.9,137c-1.3,2.1-0.5,4.5,2.1,5.4c1.3,0.4,2.8,0.6,4.2,0.6c3.1,0,4.4-1.2,4.8-4.3
	c0-0.2,0.1-0.4,0.2-0.7c0.8,0.1,1.7,0.2,2.5,0.2c-0.1-0.8-0.5-1.4-0.9-1.7c-3.4-2-7-2.8-11-1.7C294.6,135.2,294,135.8,293.9,137
	L293.9,137z M334.6,141c-2.4-1.8-5.9-1.3-7.7,1.1c1.3-0.2,2.5-0.4,3.7-0.4c0.5,0,1.4,0.3,1.5,0.7c0.5,1.3,0.4,2.7-0.4,3.9
	c-1.3,1.9-4,1.8-4.9,0c-0.4-0.7-0.3-1.6-0.4-2.5c-0.2,0.1-0.3,0.2-0.4,0.3c-0.6,1.4-0.4,2.7,0.8,3.7c1.4,1.1,3.1,1.2,4.8,0.6
	c1.5-0.6,2.1-2,2-3.5c0-0.9-0.3-1.9-0.5-2.8C333.4,141.7,333.9,141.5,334.6,141z M312.8,163.2c2.5,1.5,4.8,1.8,6.5,0.8
	C317.1,163.8,315.2,163.5,312.8,163.2z M321.4,153.8c0.2,0.1,0.3,0.2,0.5,0.3c0.1-0.3,0.2-0.7,0.4-1c-0.1,0-0.2-0.1-0.3-0.1
	C321.7,153.2,321.6,153.5,321.4,153.8z"/>
<path class="st0" d="M334.6,290c3.7-5.9,3.1-11.6,0.7-17.4c-1-2.5-2.2-4.9-3.5-7.6c1.1-1.4,2.4-3,3.7-4.6c1.5-1.8,3-3.5,4.4-5.4
	c4.5-6,5.8-12.8,4.6-20.2c-0.4-2.4-1.1-4.8-1.6-7.4c4.1,1.4,8.3,2.2,11.8,4.9c4.4,3.3,3.9,8.7-1,11.3c-1.8,0.9-3.7,1.7-5.5,2.7
	c2.4,0,4.6-0.4,6.7-1.4c2.7-1.3,4.2-3.6,4.7-6.6c0.1-0.8,0.1-1.6,0.4-2.4c1-2.8,0.2-5.2-1.6-7.3c-1.2-1.4-2.7-2.7-4.2-3.9
	c-2.7-2.3-5.5-4.6-7.4-7.7c-1.8-2.9-2.4-5.9-1.7-9.2c0.6-2.5,1.3-4.9,2-7.4c0.2-0.8,0.7-1.6,1.1-2.5c2.3,1.4,3.9,3.1,5.5,4.8
	c4.4,4.5,6.9,10.1,8.3,16.2c2.4,10.2,4.9,20.3,7.1,30.5c1.6,7.1,2.5,14.3,1.7,21.6c-0.4,3.2-1.3,6.3-3.1,8.9
	c-5.2,7.5-12.2,11.6-21.4,11.4c-3.4,0-6.8-0.5-10.2-0.9C335.6,290.4,335.2,290.2,334.6,290z"/>
<path class="st0" d="M340.8,136.3c-2.2-1.8-4-3.3-5.9-4.8c-0.7-0.6-0.7-1.4-0.5-2.2c0.4-2.6,0.7-5.2,1-7.8c0.3-2.9,0.4-5.9-0.4-9.2
	c-1.5,6.1-2.7,11.8-5.8,17.1c-1.6-0.4-3.1-0.7-4.5-1.2c-4.9-2.1-10.1-3.1-15.3-3.7c-4.8-0.5-9.7-0.7-14.5-0.7
	c-4.4,0-8.7,1.1-12.9,2.5c-0.8,0.3-1.7,0.5-2.7,0.8c-0.3-1.3,0-2.3,1-3c4.2-2.8,5-7,4.5-11.6c-0.2-2,0.3-3.2,2-4.3
	c3.7-2.3,7.2-5,10.9-7.3c6.7-4.2,14-6.4,21.9-7c7.7-0.6,14.3,1.5,19.9,6.9c0.3,0.3,0.8,0.6,1,1c1.2,2.8,3.2,5.3,3.1,8.6
	c0,2.3,0.4,4.6,0.7,6.9c0.7,5.8-0.4,11.3-2.2,16.7C341.8,134.7,341.3,135.3,340.8,136.3z"/>
<path class="st0" d="M330.3,212.7c-0.8-2.2-1.6-4.5-2.2-6.7c-1.8-6.8-5.7-12-11.5-15.8c-1.2-0.8-2.9-0.9-4.3-1.2
	c-4.2-0.9-4.9-1.8-5.2-6.1c-0.1-1.8-0.2-3.7-0.2-5.5c0-0.5,0.1-1.1,0.2-1.7c5.5,1.3,10-0.5,14.2-3.6c1-0.8,2.1-1.5,3.2-2.2
	c5.8-3.7,9-9.1,10.3-15.7c0.6-3.1,1.5-6.2,2.4-9.2c0.7-2,1.7-3.9,2.7-5.8c0.3-0.6,1-1.1,1.6-1.8c0.3,0.5,0.5,0.6,0.5,0.8
	c-0.4,7.9,1.9,15.3,4.4,22.6c1.6,4.8,3,9.6,4.3,14.4c2.2,8.2-0.3,14.9-6.6,20.4c-1,0.9-2.1,1.8-3.1,2.6c-5,3.7-9.3,7.9-10,14.6
	C330.7,212.7,330.5,212.7,330.3,212.7z"/>
<path class="st0" d="M259.2,293.7c-0.3,1.3-0.6,2.3-0.9,3.4c-2.1,6.8-4.9,13.3-7.9,19.7c-4.3,9.1-8.5,18.2-12.8,27.3
	c-0.8,1.6-1.4,3.4-2.2,5.3c-3.6-2.4-7.5-3.6-11.7-3.9c0-0.4-0.1-0.7-0.1-0.8c2-4.8,2.6-10,4-15c1.1-4.2,2.4-8.4,3.9-12.5
	c3.2-8.8,6.1-17.6,8-26.8c0.3-1.7,0.6-3.4,0.9-5.3c3,1.7,5.8,3.6,8.9,5C252.4,291.4,255.7,292.4,259.2,293.7z"/>
<path class="st0" d="M252.9,321.4c1.8,2.2,3.4,4,5,6c-0.5,0.8-0.9,1.7-1.4,2.5c-0.6,0.9-1.3,1.8-1.9,2.8c-1,1.6-0.8,2.5,0.8,3.4
	c0.9,0.5,1.9,0.9,2.8,1.3c0.7,0.3,1.4,0.6,2.4,1c-1,1.2-1.8,2.1-2.6,3.1c-0.6,0.7-1.2,1.2-1.8,1.9c-1.6,1.8-1.4,2.4,0.9,2.9
	c1.8,0.4,3.5,0.8,5.5,1.3c-4.1,8.3-7,16.5-6.9,25.7c-4.8-3.5-9.4-6.9-14.2-10.4c-0.4-8.6-0.6-9.4-4.4-13.2c0.8-2.1,1.5-4.4,2.5-6.5
	c4.1-8.7,8.2-17.3,12.4-25.9c3.3-7,6.4-14.1,7.8-21.8c0.1-0.4,0.2-0.7,0.4-1.4c4.4,1.5,8.6,3,13.1,4.5
	C269.6,308.8,261.3,315,252.9,321.4z"/>
<path class="st0" d="M288.2,683.7c2.6-2.7,5-5.4,7.7-7.8c3.3-2.9,7.3-4.2,11.8-3.4c1,0.2,1.9,0.7,2.9,1.1c0.8,0.3,1.6,0.7,2.7,1.1
	c0.1,0.3,0.4,0.8,0.6,1.4c3.3,8.3,7.3,16.3,12.6,23.6c1.6,2.2,2.9,4.8,4.2,7.2c0.3,0.5,0.3,1,0.6,1.7c-0.5-0.1-0.8,0-1.1-0.1
	c-4.1-1.6-8.3-1.5-12.5-1.1c-3.8,0.4-7.4,1.2-10.6,3.4c-1.1,0.7-1.9,0.4-2.8-0.3c-2.6-1.9-4.7-4.4-6.2-7.2c-3.2-6-6.2-12.1-9.3-18.1
	C288.7,684.8,288.6,684.5,288.2,683.7z"/>
<path class="st0" d="M293.1,704.3c-0.5,5.9-1,11.4-1.6,17c-2.3-1.5-4.6-2.9-6.7-4.3c-0.4-0.2-0.6-0.9-0.6-1.4
	c-0.2-6.9-0.2-13.7-0.4-20.6c-0.1-4.9-0.7-9.9,0.1-14.8c0.3-1.9,0.5-3.9,1.7-6c0.2,0.8,0.4,1.1,0.3,1.5c-0.9,3.9,0.9,7.3,2.1,10.8
	c0.6,1.7,1.6,3.3,2.4,4.9c1.9,3.8,3.7,7.6,5.6,11.3c2.5,4.8,5.9,8.7,10.8,11.2c1.7,0.9,3.3,1.9,5,2.8c4.7,2.7,9.7,4.4,15.1,5.1
	c2.6,0.3,5-0.3,7.6-1.5c0.4,4.3,0.1,8.2-0.5,12.3c-0.8,0.2-1.6,0.4-2.4,0.4c-7.4,0.8-14.8,1.1-21.9-2.1c-2.2-1-4.2-2.3-6.3-3.4
	c-2-1.1-2.9-2.8-3.3-5c-0.7-3.3-1.5-6.5-2.2-9.8C297.2,709.9,296,707,293.1,704.3z"/>
<path class="st0" d="M284.6,108.6c-1.9-2.8-3.7-5.4-5.6-8.2c0.4-0.5,1-1.2,1.7-1.9c5.3-5.4,10.9-10.5,18-13.7
	c7.5-3.3,15.4-4.2,23.4-3.7c2,0.1,4.1,0.9,5.9,1.7c3.7,1.7,7.1,4,10.1,6.8c1,0.9,1.9,2.2,2.4,3.5c1,2.3,1.6,4.7,2.4,7
	c0.1,0.4,0,0.9,0,1.4c-1.7-1.5-3.3-2.9-4.9-4.3c-3.7-3.1-7.9-4.7-12.6-5.1c-10.5-0.8-20.1,1.9-28.9,7.4c-4,2.5-7.9,5.2-11.2,8.6
	C285,108.4,284.7,108.5,284.6,108.6z"/>
<path class="st0" d="M229.5,372.8c4.5,1,7.1-1.9,9.9-4.5c4.4,4.2,8.7,8.4,14.3,10.8c-3.9-4.6-9-7.7-13.9-11.5c0.4-1,0.9-2,1.4-3.2
	c0.6,0.3,1.1,0.5,1.5,0.8c5.5,4.1,10.8,8.5,15.7,13.3c0.8,0.8,1.7,1.5,2.5,2.2c1.3,1.2,1.4,1.8,0.6,3.3c-3.9,7.3-7.7,14.7-11.7,22
	c-1.3,2.5-2.8,4.8-4.1,7.3c-0.6,1.1-1.4,1.7-2.6,1.7c-1,0-2,0.3-3.4,0.6c5.3-9.4,10.9-18.2,14.7-28.4c-1.3,0.8-1.4,1.8-1.9,2.6
	c-0.6,1-1,2-1.6,3c-0.5,0.9-1,1.8-1.5,2.7c-0.4-0.1-0.7-0.1-0.8-0.3c-1.9-2.7-4.5-4.5-7.1-6.4c-3.7-2.7-7.4-5.3-11.1-7.9
	c-1.2-0.8-1.7-1.7-1.3-3.2C229.4,376.2,229.3,374.7,229.5,372.8z"/>
<path class="st0" d="M354.4,323.6c1.8-0.5,3.5-0.9,5.1-1.5c1.7-0.5,3.4-1,4.9-1.8c2.2-1.1,2.4-2.6,0.8-4.4c-2-2.3-4.1-4.4-6.1-6.7
	c-3.6-4.2-6.2-9.1-8.5-14.1c-0.2-0.5-0.4-1-0.5-1.5c3.2-1,6.3-1.9,9.6-3c0.5,1.6,1.1,3.3,1.6,5c1.9,6.6,4.6,12.9,7.6,19.1
	c1.9,3.8,3.5,7.7,4.8,11.7c1.8,5.4,4.7,10.3,7.2,15.4c0.2,0.4,0.4,0.8,0.7,1.3c-2,1.2-3.8,2.4-5.8,3.4c-1.6,0.8-3.3,0.7-4.7-0.5
	c-2.8-2.4-5.5-4.8-8.4-7.4c1.2-1.9,0-3.1-1.3-4.3c-3-2.7-5.2-6-6.7-9.8C354.6,324.4,354.5,324.1,354.4,323.6z"/>
<path class="st0" d="M341.7,226.7c1,5.1,1.9,10.1,1.6,15.2c-0.3,4.2-1.8,8.1-4.3,11.5c-2.7,3.6-5.6,6.9-8.3,10.4
	c-2.1-1.5-4.3-2.8-6.1-4.4c-0.8-0.7-1.1-2-1.4-3.1c-0.2-1.1-0.1-2.4-0.1-3.6c0.2-5.4,0-10.8-1.3-16.1c-0.3-1.1,0-2,1-2.6
	c2.7-1.5,5.3-3.3,8.1-4.6C334.2,227.7,337.6,226.5,341.7,226.7z"/>
<path class="st0" d="M213.1,366.5c4.8,0.2,9.4,0.9,13.4,3.8c1.3,0.9,1.8,1.9,1.6,3.6c-0.5,4.2-1.8,8.1-3.3,11.9
	c-0.4,1.2-1.3,2.2-2,3.2c-2,2.9-4.1,5.7-6.1,8.5c-0.2,0.3-0.3,0.7-0.8,0.9c-0.7-1.9,0.1-3.4,0.4-4.9c0.2-1.6,0.3-3.2,0.8-4.7
	c0.4-1.5,1.2-3,1.5-4.6c-3.4,3.2-5,7.7-7.7,11.2c0.4,2.2,3.5,2.9,2.7,5.7c-2.3-0.2-3.5-1.9-5-3.1c-1.8-1.4-1.2-3.5-1.9-5.4
	c-0.2,1.3-0.4,2.6-0.7,4.3c-1.8-1.9-1.4-4-2.3-5.7c-0.1,1.3-0.2,2.6-0.3,4.1c-1.6-0.5-2.4-1.4-2.4-2.9c0-2.7-0.1-5.4,0-8.1
	c0-1.7,0.7-3.1,1.9-4.5C206.6,375.6,210.3,371.5,213.1,366.5z"/>
<path class="st0" d="M228.4,380.4c1.5,1.3,2.4,2.3,3.4,3.1c2.4,1.9,4.8,3.6,7.2,5.5c2.8,2.2,5.5,4.5,8.3,6.8
	c0.7,0.6,1.1,1.3,0.6,2.3c-3.6,5.9-7.1,11.9-10.7,17.8c-0.1,0.1-0.2,0.2-0.6,0.4c-0.5-0.4-1.2-0.8-1.7-1.4
	c-5.2-5.6-11.1-10.3-17.5-14.4c-0.3-0.2-0.5-0.4-0.8-0.7c1.7-2.4,3.1-4.9,5.1-7C224.9,389.6,227.8,385.9,228.4,380.4z"/>
<path class="st0" d="M181,366.5c3.7-8.3,7-15.1,10.2-19c0.2,0.1,0.4,0.2,0.5,0.3c3.8,5.8,8.9,10.1,14.9,13.5
	c1.2,0.7,2.2,1.4,2.9,2.7c0.5,0.9,1.5,1.6,2.2,2.4c-3.6,5.8-9.4,10.1-12.4,16.5C193.3,377.6,186.7,372.6,181,366.5z"/>
<path class="st0" d="M209.7,357.2c-0.2-3.3,1.1-5.7,4.3-7c1.4-0.6,2.7-1.5,4.2-2.1c4.9-2.1,9.5-0.9,14.1,1c1.5,0.6,3.2,1.3,4.4,2.4
	c1.2,1.1,2.1,2.6,2.7,4.1c0.8,2.3,0.8,4.8,0.4,7.3c-0.7,3.7-3,6.1-6.1,7.8c-1.4,0.8-2.9,0.9-4.2-0.3c-4-3.9-9-5.1-14.4-5.7
	c-3.7-0.4-4.5-1.2-5-4.8C209.8,359.1,209.7,358.2,209.7,357.2z"/>
<path class="st0" d="M282.5,678.4c-1.1,7.2-0.2,14.9,0,22.9c-0.7-0.3-1.1-0.5-1.6-0.7c-5.3-3.3-8.8-8.3-11.9-13.5
	c-0.6-1-0.7-2.5-0.5-3.7c0.6-3.9,1.6-7.6,2.2-11.5c0.3-2,0.3-4.1,0.3-6.2c0-0.7-0.3-1.4-0.6-2c-0.4-0.8-1.4-0.9-2-0.2
	c-0.4,0.5-0.7,1.1-0.9,1.7c-1.5,3.2-3.1,6.5-4.6,9.7c-0.4,1-1,1.6-2.4,1.6c-1.2-2-2.1-4.3-2.6-6.7c-0.1-0.6,0.3-1.4,0.5-2
	c1.3-3.2,2.6-6.3,4-9.5c2.2-4.9,4.5-9.7,6.7-14.5c0.1-0.3,0.4-0.6,0.9-1.3c0.1,1.2,0.1,1.8,0.2,2.5c0.3,4.1,0.5,8.1,1,12.1
	c0.8,6.2,3.7,11.7,7.1,16.8C279.3,675.6,280.9,676.8,282.5,678.4z"/>
<path class="st0" d="M320.8,234.1c0.3,2.3,0.7,4.7,1,7.1c0.1,1,0.2,2.1,0.3,3.1c0.3,3.7,0.5,7.3,0.8,11c0.1,0.9,0,1.9,0,3.3
	c-1.5-0.7-2.7-1.1-3.7-1.7c-4.1-2.5-8-5.3-11-9.1c-1.5-1.8-3.1-3.5-4.5-5.2c-4-4.8-8.8-8.5-14.4-11.3c-1.9-1-3.7-2-5.5-3.3
	c6.4-1.3,12.5,0.2,18.7,1.1C308.6,229.8,314.5,231.5,320.8,234.1z"/>
<path class="st0" d="M270.8,125.1c-5.4-0.2-9-2.9-11.1-7.6c-2-4.4-1.3-8.6,1.9-12.3c2.2-2.6,4.9-4.6,8.4-5.1c3.7-0.5,7,0.4,9.5,3.3
	c3.6,4.2,5,9,3.6,14.5c-0.8,2.9-2.6,4.9-5.5,5.8C275.3,124.3,273,124.7,270.8,125.1z"/>
<path class="st0" d="M383.6,366.3c-3.4-0.3-6.6-1.1-9.6-2.8c-4.6-2.7-5.8-9.4-2.5-13.6c0.3-0.4,0.8-0.8,1.3-1
	c3.6-1.6,7.3-3.2,10.9-4.8c3.5-1.5,5.6-1.2,8,1.8c1.5,1.8,2.7,4,3.8,6c1,1.8,0.9,3.8-0.4,5.4c-1.8,2.3-3.6,4.6-5.7,6.7
	C387.9,365.6,385.9,366.5,383.6,366.3z"/>
<path class="st0" d="M270.9,197.4c1.8-2.2,3.5-4.4,5.4-6.8c1.1,0.8,2,1.4,2.8,2.1c2.3,2.4,5,3.6,8.3,3.4c2.9-0.2,5.5,0.7,7.8,2.5
	c1.7,1.4,3.6,1.8,5.8,1.4c1.4-0.2,2.9,0,4.2,0.4c1.6,0.5,3,0.5,4.4-0.2c1.5-0.7,3-1,4.6-0.3c1.3,0.6,2.5,0,3.6-0.7
	c1.2-0.8,2.4-1.5,3.7-2.4c1.9,2.4,3.1,4.8,4,7.8c-2.5,1.3-4.8,2.9-7.5,3.5c-0.9,0.2-1.9,0-2.8-0.3c-1.8-0.5-3.4-0.6-5.1,0.1
	c-3.1,1.3-6.1,1.1-9-0.6c-2.7-1.7-5.7-2-8.8-1.5c-3,0.5-5.5-0.1-7.7-2.3c-2.1-2.1-4.7-3-7.7-2.6
	C274.2,201.3,272.2,200.3,270.9,197.4z"/>
<path class="st0" d="M383.5,368.5c5.6,0,8.8-3.9,11.9-7.6c2,2.5,4,5,5.9,7.3c1.1,1.3,2.2,2.5,3.4,3.7c2.2,2.3,2.7,5,1.7,8
	c-0.6,1.7-1.3,3.4-2,5.1c-0.2,0.4-0.6,0.8-1,0.9c-1.1,0.3-2.3,0.7-3.5,0.6c-3.5-0.2-7-0.6-10.5-1.1c-2.7-0.3-3.1-0.9-3.3-3.5
	c-0.1-0.9-0.1-1.7-0.2-2.7c0.6-0.3,1.2-0.6,2-1.1c-0.6-0.4-1-0.8-1.4-1C382.5,374.7,382,373.5,383.5,368.5z M401.2,380.2
	c-0.5-2.5-5.2-5.8-9.2-6.5c1.3,1.6,3.6,1.7,4.8,3.6c-1.1,0.1-1.9,0.1-2.8,0.1c1.2,0.6,2.4,0.8,3.6,1.2
	C398.8,378.9,399.9,379.6,401.2,380.2z"/>
<path class="st0" d="M285.6,643.8c0.1,0.9,0.2,1.5,0.2,2.1c-0.1,8-0.1,16.1-0.5,24.1c-0.1,1.9-1.3,3.7-2.1,5.9
	c-1-0.9-1.8-1.4-2.3-2.1c-2.8-3.5-5-7.4-6.4-11.7c-1.5-4.5-2.4-9.1-2.6-13.8c-0.1-2.2,0.2-2.8,2.4-3.5
	C277.9,643.7,281.7,643.4,285.6,643.8z"/>
<path class="st0" d="M198.6,336.9c1.7-0.1,3.4-0.2,5-0.4c1.2-0.1,2.2,0.2,3,1.1c2.9,3.2,5.9,6.3,9,9.5c-0.6,0.3-1.4,0.8-2.4,1.3
	c-3.3-3.2-6.5-6.3-9.7-9.4c-0.1,0.1-0.3,0.3-0.4,0.4c1.4,1.7,2.7,3.4,4.2,5c1.4,1.6,2.9,3.1,4.6,4.8c-1.3,1.6-3.3,3-3.4,5.4
	c-0.1,2.1,0,4.3,0,6.9c-6-4.8-11.4-9.5-16.6-14.9C194,343.4,196.3,340.1,198.6,336.9z"/>
<path class="st0" d="M277.3,99.5c-2.4-0.3-5-0.5-7.6-0.8c0,0-0.1-0.2,0-0.3c2.4-3.2,4.9-6.4,8.2-8.6c4.4-3,8.7-6.2,13.3-8.9
	c2.9-1.7,6.1-3.1,9.4-4.1c5.9-1.7,11.8-0.7,17.6,1.1c0.7,0.2,1.3,0.7,2.5,1.4c-1.1,0.1-1.6,0.2-2.1,0.3c-4.3,0.5-8.6,0.7-12.8,1.5
	c-8.8,1.6-15.8,6.6-22.1,12.6C281.7,95.6,279.5,97.5,277.3,99.5z"/>
<path class="st0" d="M347.1,196.1c-0.6,2-1.3,4.1-1.9,6.1c-0.4,1.4-1,2.7-1.3,4.1c-1.5,5.8,0.2,10.7,4.2,14.9
	c2.1,2.2,4.5,4.1,6.7,6.1c1.5,1.3,2.9,2.7,3.4,5.2c-0.7-0.5-1.1-0.8-1.5-1.1c-2.6-2.2-5.6-3.6-8.9-4.5c-3.4-1-6.6-2.2-9.6-4.3
	c-6.2-4.3-7.3-9.7-3.2-16.1c0.5-0.7,0.9-1.5,1.6-2.1c3.3-2.9,6.7-5.8,10.1-8.6C346.8,195.9,347,196,347.1,196.1z"/>
<path class="st0" d="M277.3,189.6c0.8-1.3,1.6-2.6,2.4-3.9c5.6,3,11.5,3.6,17.5,3.7c2.6,0.1,5.2-0.4,7.8-0.7
	c0.9-0.1,1.6-0.1,2.4,0.5c0.9,0.7,2.1,1,3.2,1.4c1.6,0.6,3.3,1.1,4.9,1.7c0.5,0.2,1,0.5,1.6,0.5c1.4,0.2,2.3,1,3.1,2.4
	c-1.4,0.9-2.7,1.8-4.2,2.6c-0.4,0.2-1.1,0.2-1.6,0c-1.9-0.7-3.6-0.5-5.3,0.3c-1.2,0.6-2.4,0.4-3.7,0.1c-1.4-0.4-3-0.5-4.4-0.3
	c-1.8,0.2-3.3,0-4.7-1.1c-2.5-1.9-5.3-2.8-8.5-2.7c-3,0.1-5.7-0.5-7.8-2.8C279.3,190.7,278.2,190.3,277.3,189.6z"/>
<path class="st0" d="M310.3,512c3.6-13.4,2.7-27,1.1-40.7c2.8-1,5.8-1.3,8.9-1.6c0.1,0.4,0.2,0.7,0.2,1c-0.3,7.1-0.7,14.2-1,21.3
	c-0.2,5.8-1.9,11.1-5.6,15.7c-1.1,1.4-2.1,3-3.1,4.5C310.6,512.1,310.4,512,310.3,512z"/>
<path class="st0" d="M275.9,172.6c-1.2-0.8-2.4-1.3-3.3-2.1c-0.5-0.4-0.6-1.4-0.6-2.1c-0.2-4.4-0.4-8.8-0.6-13.1
	c0-0.9-0.2-1.8-0.4-2.6c-0.1-0.4-0.6-0.7-1.2-1.3c0.2,2.9,0.3,5.4,0.5,8.4c-2.1-1.8-3.9-3.1-5.6-4.6c-0.4-0.4-0.5-1.3-0.4-1.9
	c0.7-4.3,1.4-8.6,2.3-12.9c0.8-4.1,1.8-8.2,2.8-12.3c0.3-1.1,0.8-1.9,2.4-1.3c0.1,1.6,0.2,3.3,0.3,5.1c0.6,7.5,1.2,14.9,1.7,22.4
	c0.4,5.9,0.7,11.8,2.3,17.5C276.1,171.7,276,171.9,275.9,172.6z"/>
<path class="st0" d="M337.6,341.6c-0.6-2.1-1.1-4-1.7-5.9c2.8-2.6,5.8-4.6,9.4-5.7c1.6-0.5,3.2-1.1,4.7-1.7c1.4-0.6,2.8-1.2,3-3.2
	c1.8,4.6,4.7,8.3,8.4,11.6c-1.9,1.8-4,3-6.3,2.8c-4.3-0.3-8.4,0.4-12.6,1C341,340.9,339.5,341.3,337.6,341.6z"/>
<path class="st0" d="M307.5,711.5c2.5-0.8,4.9-1.7,7.4-2.2c3.8-0.7,7.8-0.9,11.6-0.1c1.3,0.3,2.6,0.7,3.8,1.3
	c1.3,0.6,2.5,1.2,2.2,3.2c-0.1,0.9,0.9,1.9,1.3,2.9c0.2,0.4,0.3,0.8,0.5,1.3c-3,1.9-6.2,2.4-9.5,1.7c-6.1-1.2-11.7-3.5-16.9-7
	c-0.3-0.2-0.6-0.2-0.9-0.4C307.4,712,307.5,711.7,307.5,711.5z"/>
<path class="st0" d="M296.4,349.3c0.8-4.1,1.4-7.8,2.2-11.8c5.3,0.7,10.4,1.4,15.4,2c0,3.8,0,7.2,0,11
	C308.1,348.7,302.4,349,296.4,349.3z"/>
<path class="st0" d="M335.2,338.4c0.2,2.8,0.5,5.6,0.8,8.7c-6.6,1-13,1-19.5,1.8c-0.2-3.8-0.3-7.4-0.5-11.4c1,0,1.9,0,2.8,0.1
	c3.4,0.7,6.8,1.4,10.3,2.2c0.5,0.1,0.9,0.3,1.4,0.3C332.2,340.5,334.1,340.7,335.2,338.4z"/>
<path class="st0" d="M261.9,338.8c2.8,0.9,5.4,1.8,7.9,2.6c2.8,0.9,3.1,0.7,4.7-2.1c1.9,0.2,3.9,0.5,6.2,0.8c-0.9,3.1-1.7,6-2.6,8.8
	c-0.7,2-1.2,2.1-3.3,1.4c-4.8-1.7-9.6-3.3-14.4-4.9c-1-0.3-2.1-0.5-3.6-0.9C258.7,342.5,260.3,340.6,261.9,338.8z"/>
<path class="st0" d="M282.3,340.2c1.8,0.1,3.6,0.2,5.3,0.3c0.4,0,0.8,0.1,1.2,0.2c3.7,0.4,3.9,0.3,5.1-3.3c0.1-0.2,0.2-0.4,0.4-0.7
	c0.8,0.2,1.7,0.4,2.4,0.5c0.2,0.3,0.3,0.5,0.3,0.6c-0.8,3.8-1.5,7.7-2.5,11.4c-0.7,2.7-1.4,2.8-4,2.1c-3.1-0.8-6.1-1.7-9.2-2.5
	c-0.4-0.1-0.7-0.3-1.2-0.5C280.7,345.6,281.5,343,282.3,340.2z"/>
<path class="st0" d="M287.9,682.5c-1.2-2-1.4-3.7-0.4-5.5c2.1-3.7,4.6-6.9,8-9.5c3.5-2.7,7.5-3.8,11.9-3.6c2.5,0.2,2.9,0.6,3.7,2.9
	c0.5,1.5,0.9,3,1.3,4.5c-0.3,0.1-0.5,0.3-0.6,0.2c-5.7-2.7-11-1.6-16,1.9c-2.8,1.9-4.9,4.6-6.8,7.3
	C288.6,681.3,288.3,681.8,287.9,682.5z"/>
<path class="st0" d="M284.8,633.4c-4.5-1-8.1,0.6-11.7,2.7c0-2.8,6.1-18,8.7-21.6C283,620.9,284.2,627,284.8,633.4z"/>
<path class="st0" d="M305,183.3c0.2,1.1,0.3,2,0.5,2.9c-4.1,2.2-19.7,1.1-25.4-1.8c0.5-1.1,1-2.3,1.4-3.4
	C289.6,180.6,297.1,183,305,183.3z"/>
<path class="st0" d="M268.4,126.2c-1,3.5-1.9,6.7-2.9,10.2c-0.6-0.8-1.2-1.3-1.6-2c-2.4-3.5-4.8-7-7.3-10.4c-0.8-1-1-1.9-0.3-3.1
	c0.7-1.1,1.3-2.3,2.1-3.7C260.5,121.9,263.4,125.3,268.4,126.2z"/>
<path class="st0" d="M285.1,635.6c0.1,1.9,0.3,3.9,0.4,6.1c-5-0.3-9.6,0.1-13.9,3.3c-0.1-2-0.2-3.5-0.1-4.9c0-0.5,0.5-1.2,1-1.5
	C276.3,636,280.3,634.6,285.1,635.6z"/>
<path class="st0" d="M280.6,169.7c-2.3-2.5-4.1-4.7-4.2-7.8c-0.1-2.2-0.4-4.4-0.5-6.7c0-0.5,0.1-1.1,0.1-1.7
	c0.8,0.1,1.5,0.1,2.4,0.2C280.3,158.7,280.7,163.9,280.6,169.7z"/>
<path class="st0" d="M337.5,225c-1.6,0.4-3.2,0.8-4.8,1.3c-1.9-4.6-3.8-9.1-5-13.8c3.1,4.2,5.7,8.7,9.9,11.9
	C337.6,224.6,337.5,224.8,337.5,225z"/>
<path class="st0" d="M276.3,133c-0.7,0-1.4-0.1-2.4-0.1c-0.3-2.1-0.5-4.2-0.8-6.6c1.5-0.4,2.9-0.7,4.5-1.1
	C277.2,127.9,276.8,130.3,276.3,133z"/>
<path class="st0" d="M269.5,666.6c0.1,3.2-1,6.1-1.6,9.3c-1.5-0.1-2.7-0.2-4.2-0.3c1.8-3.2,3.6-6.1,5.3-9.1
	C269.1,666.5,269.3,666.6,269.5,666.6z"/>
<path class="st0" d="M294.9,709.6c0.8,3,1.6,6.1,2.4,9.2c-1.1,0.5-2,0.9-3.4,1.5c-0.1-3.8,0.2-7.2,0.4-10.7
	C294.5,709.7,294.7,709.6,294.9,709.6z"/>
<path class="st0" d="M215.5,392c-0.5,1.6-1.1,3.3-1.7,5.2c-0.8-0.5-1.4-0.9-2.1-1.3c1.3-1.5,2.4-2.8,3.5-4
	C215.3,391.8,215.4,391.9,215.5,392z"/>
<path d="M268.9,199.1c0.2,0.4,0.3,0.9,0.6,1.2c4.3,5.8,7.2,12.2,9.9,18.8c0.7,1.8,1,3.8,1.3,5.7c-1.5-1.1-2.1-2.8-2.8-4.3
	c-2.9-6.3-5.7-12.6-8.6-18.9C269,200.8,268.5,200,268.9,199.1C269,199.1,268.9,199.1,268.9,199.1z"/>
<path d="M330.6,285c0,2.1-1.3,4-3.3,4.5c-1.9,0.5-3.9-0.4-4.9-2.1c-1-1.8-0.6-3.8,1.2-5.4c0.5-0.4,1-0.8,1.5-1.2
	c1.2-1.2,1.9-1.3,3.2-0.3C329.6,281.4,330.6,283.3,330.6,285z M325.4,281.2c-0.7,1.2-1.4,2.3-1.8,3.4c-0.4,1,0.2,1.8,1.1,2.4
	c0.8,0.5,1.6,0.6,2.5,0.2c1-0.5,1.3-1.3,1.2-2.4C328.3,283.2,327.4,282.1,325.4,281.2z"/>
<path d="M293.9,137c0.1-1.2,0.7-1.9,2-2.2c4-1.1,7.5-0.3,11,1.7c0.5,0.3,0.8,0.8,0.9,1.7c-0.8-0.1-1.7-0.2-2.5-0.2
	c-0.1,0.2-0.2,0.4-0.2,0.7c-0.5,3.1-1.7,4.3-4.8,4.3c-1.4,0-2.9-0.1-4.2-0.6C293.4,141.5,292.6,139.1,293.9,137
	c0.1,0.5,0.1,1.2,0.2,1.8c0.3,1.6,2,3.2,3.4,3.1c1.3-0.1,2.5-0.2,3.8-0.5c1.8-0.4,2.8-1.6,3-3.2c0.1-0.8-0.2-1.3-1-1.7
	c-2.5-1.1-5.1-1-7.7-0.7C294.9,135.9,294.4,136.6,293.9,137z"/>
<path d="M334.6,141c-0.7,0.4-1.1,0.7-1.6,1c0.2,1,0.4,1.9,0.5,2.8c0,1.5-0.6,2.9-2,3.5c-1.6,0.7-3.3,0.5-4.8-0.6
	c-1.2-0.9-1.4-2.3-0.8-3.7c0.1-0.1,0.2-0.2,0.4-0.3c0.1,0.8,0.1,1.8,0.4,2.5c0.9,1.9,3.7,1.9,4.9,0c0.8-1.2,1-2.6,0.4-3.9
	c-0.2-0.4-1-0.7-1.5-0.7c-1.2,0-2.3,0.3-3.7,0.4C328.7,139.8,332.1,139.3,334.6,141z"/>
<path d="M312.8,163.2c2.3,0.3,4.2,0.5,6.5,0.8C317.6,165,315.3,164.7,312.8,163.2z"/>
<path d="M321.4,153.8c0.2-0.3,0.3-0.6,0.5-0.9c0.1,0,0.2,0.1,0.3,0.1c-0.1,0.3-0.2,0.7-0.4,1C321.7,153.9,321.6,153.8,321.4,153.8z"
	/>
<path d="M401.2,380.2c-1.3-0.6-2.4-1.3-3.6-1.7c-1.2-0.4-2.4-0.5-3.6-1.2c0.8,0,1.7-0.1,2.8-0.1c-1.2-1.9-3.5-2-4.8-3.6
	C396,374.4,400.7,377.7,401.2,380.2z"/>
<path class="st0" d="M325.4,281.2c1.9,0.9,2.9,2,3.1,3.7c0.1,1-0.3,1.9-1.2,2.4c-0.9,0.5-1.7,0.4-2.5-0.2c-0.9-0.6-1.5-1.4-1.1-2.4
	C324.1,283.5,324.8,282.5,325.4,281.2z"/>
<path class="st0" d="M293.9,137c0.6-0.4,1.1-1.1,1.7-1.2c2.6-0.3,5.2-0.4,7.7,0.7c0.8,0.3,1.1,0.8,1,1.7c-0.2,1.7-1.2,2.8-3,3.2
	c-1.2,0.2-2.5,0.4-3.8,0.5c-1.4,0.1-3.2-1.5-3.4-3.1C293.9,138.2,293.9,137.6,293.9,137C293.9,137,293.9,137,293.9,137z"/>
</svg>
