<?xml version="1.0" encoding="utf-8"?>
<!-- Generator: Adobe Illustrator 19.0.0, SVG Export Plug-In . SVG Version: 6.00 Build 0)  -->
<svg version="1.1" id="图层_1" xmlns="http://www.w3.org/2000/svg" xmlns:xlink="http://www.w3.org/1999/xlink" x="0px" y="0px"
	 viewBox="0 0 595.3 841.9" style="enable-background:new 0 0 595.3 841.9;" xml:space="preserve">
<style type="text/css">
	.st0{fill:#FFFFFF;}
</style>
<path class="st0" d="M590,834.4c-194.6,0-389.1,0-583.7,0c0-275.2,0-550.4,0-825.6c194.6,0,389.1,0,583.7,0
	C590,284.1,590,559.2,590,834.4z M426.7,448.5l0.1-0.1c-1.2,1.1-2.2,2.4-2.4,4.1c-0.3,0.3-0.6,0.6-0.9,0.9c-2.1,3.1-4.2,6.2-6.3,9.3
	c-5,7.5-9.8,15.1-13.7,23.2c-4.3,9-8.5,18.1-12.7,27.2c-0.2,0.5-0.2,1-0.3,1.6c-0.3,0.9-0.6,1.7-0.9,2.6c-1.5,1.3-2,3.1-2.7,4.9
	c0.1,0.1,0.3,0.2,0.4,0.2c1.3-2,2.5-4.1,3.8-6.1l-0.1,0.1c1.2-1.2,2.4-2.4,2.9-4.1c0.1-0.1,0.1-0.1,0.2-0.2c1.7-0.8,2.7-2.3,3.6-3.8
	l-0.1,0.1c1-1.3,1.9-2.6,2.9-3.9l-0.1,0.1c0.5-0.8,1-1.6,1.5-2.5l-0.1,0.1c0.8-1.5,1.6-3,2.4-4.6c0.1-0.1,0.3-0.3,0.4-0.4
	c0.6-1.2,1.3-2.4,1.9-3.6l-0.1,0.1c1.6-2.4,3.1-4.7,4.7-7.1c0.3-0.4,0.4-1,0.6-1.5l-0.1,0.1c0.7-0.9,1.5-1.8,2-2.7
	c1.4-2.4,2.8-4.8,4.2-7.2l-0.1,0.1c1.3-1.9,2.6-3.8,3.8-5.7l-0.1,0.1c1.5-1.4,2.9-2.9,3.4-5c1.2-1.7,2.5-3.4,3.7-5.1
	c1.3-2.2,2.7-4.4,4-6.6c2.4-3.9,4.7-7.7,7.2-11.6c0.8-1.2,1.2-2.4,1-3.8c-0.3-2.2-0.5-4.4-1.2-6.5c-2.2-6.8-4.6-13.7-7.1-20.4
	c-6.1-16.4-11.6-32.9-16-49.9c-3.4-13.2-7.2-26.3-11.8-39.1c-2.2-6.3-4.5-12.5-5.7-19.1c-0.4-2-1-3.9-1.5-5.8c0,0,0.1,0.1,0.1,0.1
	c-0.4-2.2-1-4.4-1.3-6.7c-0.3-2.3-0.4-4.7-0.7-7c-0.2-2.3-0.4-4.5-0.6-6.8c-0.2-2.2-0.7-4.5-0.2-7.2c0.4,0.9,0.6,1.3,0.7,1.8
	c2.4,7.1,4.8,14.2,7.2,21.4c0.5,1.5,0.9,3,1.3,4.5c1.4,6,3.1,12,5.2,17.8c1.5,4.1,2.6,8.4,3.9,12.6c1.4,4.4,2.6,8.9,4.3,13.2
	c6.2,15.1,13,29.9,21.7,43.7c0.3,0.4,0.6,0.7,1.1,1.2c0.3-0.5,0.5-0.7,0.6-1c2-4.6,4-9.2,6-13.8c0.3-0.7,0.7-1.4,0.9-2.2
	c0.4-1.5,0.3-1.9-1.1-2.6c-2.4-1.2-4.4-2.7-6.1-4.8c-1.8-2.3-3.6-4.6-5.1-7c-5.6-9-10.5-18.4-14.5-28.2
	c-5.2-12.6-9.9-25.4-14.5-38.2c-4.4-12.3-8.3-24.8-12.4-37.2c-0.3-0.8-0.5-1.7-0.4-2.5c0.4-13.1,0.7-26.2,1.1-39.3
	c0.2-6.5,0.4-13,0.7-19.5c0.2-5-2.5-8.1-6.3-10.8c-0.2-0.2-0.4-0.4-0.7-0.7c-0.1-0.5-0.4-1-0.4-1.6c-0.5-6.3-3.5-11.4-7.3-16.2
	c-4.8-6-10-11.6-16.1-16.4c-6.5-5.1-12.8-10.6-19.2-15.9c-1.6-1.3-2.5-2.8-2.5-5c0-2-0.2-4.1-0.6-6.1c-1.4-6.6-4-12.6-8.9-17.3
	c-5-4.8-11.3-7.5-17.9-9.4c-0.7-0.6-1.4-1-1.6-2.1c-0.4-2-1.1-3.9-1.7-5.8c-0.6-1.9-1.6-3.6-1.4-5.7c0.3-2.4-0.6-4.2-2.1-5.9
	c-2.1-2.5-3.7-5.2-3.7-8.7c0-1.9-0.2-3.8-0.5-5.6c-0.5-3.2-1.1-6.5-1.9-9.7c-0.5-2.1-1.7-3.8-3.5-4.8c-2.5-1.4-5.2-2.6-7.9-3.6
	c-1.1-0.4-1.8-0.9-2.5-1.8c-2.1-3.2-4.9-5.5-8.8-6.1c-7.6-1.1-14.8,0.4-21.7,3.6c-1.2,0.6-2.5,1.5-3.4,2.5c-1.5,1.9-3.1,3.8-4.1,6
	c-1.8,3.8-4.3,6.8-7.8,9.2c-1.6,1.2-3.1,1.6-5,1c-2.9-0.9-5.8-0.4-8.5,0.6c-1.8,0.7-3.2,2-4,3.8c-0.9,2-1.5,4,0.8,5.6
	c-0.5,1-0.9,1.9-1.3,2.9c-1,2.1-2,4.3-2.9,6.4c-1,2.4-1.4,4.9,0.9,6.7c-0.8,1.6-1.6,2.9-2,4.4c-1.8,6.7,2.1,14.1,8.8,16.8
	c1.9,0.7,3.6,1.7,5,3.1c3.5,3.4,7.7,5.3,12.3,6.5c0.5,0.1,1,0.3,1.5,0.5c-1.5,1.8-3,3.6-4.4,5.3c1,1.6,1.8,2.9,2.6,4.1
	c-3.6,1.7-6.9,3.3-10.2,4.8c-8.4,3.9-16.3,8.4-22.7,15.2c-0.5,0.6-1.1,1.1-2,0.8c-1.1-0.3-1.7,0.5-1.7,1.4c0,0.9,0.3,1.8,0.5,2.7
	c0.1,0.7,0.4,1.4,0.3,2c-2.2,8.7-4.5,17.4-6.7,26.2c-1.4,5.9-2.5,12-3.9,17.9c-2.7,11.3-5.7,22.5-8.3,33.8c-2.1,8.8-3.4,17.7-3,26.8
	c0,0.2-0.1,0.4-0.2,0.9c-1.3,0.4-2.7,0.9-4.2,1.2c-1.5,0.3-2.9,0.5-4.4,0.7c-1.4,0.1-2.8,0.1-4.2,0c-1.5-0.2-2.9-0.5-4.3-1
	c-1.3-0.4-2.5-1.2-3.7-1.8c3.2,4.3,5.5,8.7,3.9,14.2c3.4,0.4,6.6,0.8,9.7,1.2c0.1,0.4,0.2,0.5,0.2,0.7c-0.4,5-0.8,10-1.3,15
	c-0.1,0.7-0.5,1.5-1.1,2c-2,2-3.9,4.1-6.1,5.9c-4.1,3.5-8.3,6.9-13.7,8.4c-0.3,0.1-0.5,0.3-0.6,0.5c1.6,1.6,3.1,3.2,4.6,4.7
	c0.7,0.7,1.6,0.6,2.4,0.1c1.3-0.8,2.5-1.6,3.6-2.6c2.9-2.3,5.7-4.7,8.5-7.1c0.5-0.4,1-0.7,1.8-1.3c-0.1,1.7-0.2,3-0.3,4.3
	c-0.5,4.7-1,9.3-1.4,14c-0.1,1.5-0.1,2.9-1,4.2c-1.4,2-2.2,4.1-0.1,6.2c0.1,0.1,0,0.3,0.1,0.7c-1.5-0.6-2.8-1.1-4.2-1.6
	c-1.9-0.6-3.8-1.1-5.4,0.6c-1.1,0.1-1.3,1-1.4,1.9c0,1,0,2,0.2,3c0.5,2.5,1.1,5.1,1.8,7.5c0.9,3.2,1.3,6.4,1.1,9.8
	c-0.1,2,0,3.9,0,5.9c0,2.3,1.1,3.9,3.1,4.9c2.6,1.4,5.4,1.5,8.2,0.5c4.6-1.7,8.6-4.1,12.1-7.6c1.6-1.6,3-3.4,4.6-5
	c0.5-0.5,1.2-0.8,1.9-1.2c0.3,0.6,0.6,1.3,1,1.9c-1,1.5-2,2.9-2.9,4.4c-4.2,7.1-8.4,14.3-12.6,21.4c-2.4,4.1-4.1,8.6-7.3,12.3
	c-0.7,0.8-0.4,1.6,0.4,2.2c0.8,0.7,1.7,1.3,2.5,2c-1.1,2.4-1.1,2.4,1.1,4c0.4,0.3,0.7,0.6,1.2,0.8c2.9,1.7,5.4,4,7.2,6.9
	c0.2,0.4,0.7,0.6,1.2,1c0.7-0.7,1.4-1.4,2-2.1c1.7-2.1,2.3-4.6,3-7.1c0.4-1.6,0.6-3.4,1.9-4.6c-0.1,0.9-0.1,1.7-0.2,2.6
	c-1.1,6.3-1.9,12.5-1.7,18.9c0.2,6.6,2.3,12.3,7.2,16.8c1.3,1.2,1.5,2.5,1.3,4.2c-1.5,12-1.6,24.1,0.8,36.1c1,4.9,0.5,9.6-1.4,14.2
	c-3.3,8.1-7.5,15.5-13.5,21.9c-1.7,1.8-1.6,2.1,0,3.9c2.1,2.5,4.3,5,6.4,7.6c1.6,1.9,2.2,2.1,4.1,0.6c3.3-2.5,6.2-5.3,8.1-9
	c0.2-0.4,0.5-0.8,1-1.5c1.2,5.2,3.9,9.1,6.8,12.9c1.3,1.6,2.4,3.3,3.5,5c0.8,1.1,1.1,2.4,1,3.8c-0.6,5.6-0.8,11.3-1.9,16.8
	c-2.8,14.2-9.2,26.7-18.4,37.9c-3.8,4.6-8.1,8.7-13.5,11.6c-0.4,0.2-0.8,0.7-1.4,1.2c0.8,0.8,1.4,1.4,2.1,2c2.3,2.2,4.7,4.4,7,6.6
	c1.8,1.8,2.1,1.9,4.5,1c1-0.4,1.9-0.8,3.3-1.4c-2.5,5.4-6.2,9-10.8,12c2.4,4.1,5,7.7,8,11c0.9,1,1.7,1,2.9,0c2-1.6,3.9-3.4,5.8-5.2
	c0.8-0.8,1.4-1.3,2.6-1.3c1.9,0.1,3.8,0,5.6,0.1c3.1,0.1,6.1,0.7,8.8,2.2c6.4,3.6,9.7,9.1,9.5,16.4c-0.1,4.5-0.6,9.1-1.1,13.6
	c-0.5,5.1,1,9.4,4.9,12.9c0.9,0.8,1.2,1.6,1.1,2.7c-0.2,2.4-0.2,4.9-0.7,7.2c-1.3,5.6-2.7,11.3-4.5,16.8c-2.9,9.1-3.1,18.1,1.2,26.8
	c2.3,4.6,4.8,9.2,7.6,13.5c2.8,4.5,5.9,8.9,10.7,11.7c-0.3,0.6-0.5,1.2-0.7,1.8c-1.5,4.5-3,9.1-4.3,13.7c-0.9,3.3-1.1,6.6-0.1,10
	c0.9,3.1,1.7,6.2,2.6,9.3c0.9,3,1.1,6,0.1,9c-1.5,4.8-3,9.6-4.7,14.3c-1.8,5.2-1.1,8.4,3.3,11.8c0.5,0.4,1,0.8,1.5,1.1
	c8.4,4.6,17.2,6,26.6,3.6c3-0.8,5.3-2.5,6.6-5.2c2.2-4.5,3.5-9.2,3.1-14.3c-0.2-2.2-0.1-4.4-0.3-6.6c-0.1-0.9-0.3-2-0.8-2.6
	c-2-2-2.7-4.6-3-7.2c-0.5-4.4-0.8-8.7-1.4-13.1c-0.7-5.7-0.6-11.3,1-16.8c0.4-1.3-0.1-1.8-1.3-2.3c-1.9-0.8-2.1-2.1-0.5-3.6
	c0.2-0.2,0.4-0.3,0.6-0.4c1.5-0.9,2-2.3,2-4c0.3-10.4,1.4-20.8,2.5-31.2c0.6-6,1.8-11.8,4.9-17c1.3-2.2,1.1-2.7-0.9-4.3
	c-0.2-0.1-0.3-0.4-0.5-0.6c0.2-0.8,0.4-1.7,0.7-2.4c3.5-9.3,6.8-18.7,10.6-27.9c3.9-9.5,8-18.9,10.5-28.9c2-8.1,3.8-16.3,5.5-24.5
	c2.1-10.3,4.2-20.6,6.2-30.9c1.1-5.6,1.1-11.2-0.6-16.8c-1.2-3.8-1.4-7.7-0.9-11.7c0.3-2.1,0.4-4.2,0.8-6.3
	c0.9-4.8,1.9-9.5,2.9-14.3c0.2-0.8,0.2-1.8,1.3-2c0.2,0.3,0.4,0.7,0.6,0.9c4.5,4.4,7.8,9.6,10.1,15.5c3,7.7,5.5,15.5,7,23.6
	c1.4,7.6,2,15.2,0.7,22.9c-1.3,8.3-3.4,16.4-6,24.4c-2.4,7.2-5.6,14-10,20.2c-1.5,2.1-3,4.2-4.4,6.4c-1.1,1.7-0.5,3,1.5,3.3
	c1.5,0.3,2.6-0.5,3.6-1.3c5.7-4.7,10.9-9.9,15.4-15.8c9.9-13.1,16-28,18.6-44.2c1-6.5,1.5-13.1,2.5-19.6c2.1-13.9,2.4-28,2.4-42
	c0-10-0.5-20.1-0.7-30.1c0-2.1-0.6-4.5,0.2-6.3c0.8-1.8,2.9-3,4.4-4.5c1-0.5,2-1.1,3-1.6c0.8-0.4,1.6-0.8,2.4-1.2l-0.1,0.1
	c2-0.8,4-1.6,6-2.4c0.5-0.7,1.1-1.4,1.6-2.1c1.9-3.9,3.8-7.7,5.7-11.6l-0.1,0.1c1.9-1.2,2-3,1.9-4.9c-0.4-6.7-0.8-13.4-1.3-20.1
	c-0.2-3-0.1-5.8,2.4-7.9c0.7-0.6,1.1-1.6,0.7-2.6c-0.4-0.9-0.9-1.8-1.3-2.6c-0.1-0.6-0.2-1.2-0.3-1.8c-1.6-6-2.8-12.1-3.3-18.2
	c-1-11.9-1.6-23.8-1.4-35.7c0.3-17.1-0.4-34.2-3.4-51.1c-1.2-6.8-2.2-13.6-3.2-20.4c0-0.2,0-0.5,0.1-1.2c0.4,0.9,0.6,1.3,0.8,1.7
	c3.3,8.6,6.5,17.3,9.9,25.9c6.1,15.4,9.2,31.4,9.9,47.9c0.3,7.3-0.2,14.6-1.1,21.8c-0.8,7.1-2.4,14-5.8,20.4
	c-0.2,0.3-0.3,0.7-0.4,1.1c-1.2,3.1-0.8,5.9,1.4,8.3c1.8,1.9,3.9,3.6,5.9,5.4c1.9,1.6,4.1,2.7,6.6,2.8c3.8,0.2,6.4,2.2,8.8,4.8
	c2,2.2,4.3,4.2,6.2,6.4c1.7,2,3.2,4.2,4.8,6.3c0.8,1.1,0.7,2.1,0,3.3c-0.7,1.1-1.2,2.3-1.8,3.5c-0.1,0.2-0.1,0.4-0.2,0.7
	C427.7,446.7,427.2,447.6,426.7,448.5z"/>
<path class="st0" d="M428.1,445.9c0.1-0.2,0.1-0.4,0.2-0.7c1.8-1.4,2.6-3.6,3.8-5.5c1.7-2.6,1.9-5.5,1.3-8.6
	c-1.5-7.5-4-14.7-6.6-21.8c-3.8-10.9-7.9-21.6-10.9-32.8c-0.9-3.3-1.7-6.6-2.6-10c-0.3,0.4-0.3,0.8-0.2,1.2
	c2.9,12.2,6.6,24.2,10.9,36c3,8.1,5.9,16.2,7.9,24.6c0.5,2,0.7,4,0.9,6c0.1,1.6-0.3,3-1.7,4.4c-2.9-5.4-7.6-8.9-11.4-13.3
	c-2.6-3-5.6-5.1-9.8-5.3c-1.6-0.1-3.3-0.9-4.8-1.8c-1.8-1.1-3.4-2.5-5-3.9c-4.3-3.9-4.7-6.4-2.3-11.7c0.3-0.7,0.7-1.4,1-2.1
	c1-3,2.2-5.9,2.9-8.9c1.7-7.4,2.4-15,2.7-22.6c0.4-11.2-0.9-22.2-3-33.2c-1.5-7.8-4.1-15.3-7-22.7c-3.2-8.3-6.5-16.6-9.6-25
	c-2.6-7-5.5-13.9-9.2-20.3c-1.3-2.2-2.7-4.3-4.1-6.3c-1.5-2.1-3.6-3.4-6.3-3.6c-0.4,0-0.7-0.1-1.2-0.2c-1.1-6.6-2.2-13.2-3.3-19.7
	c0.7,7,1.6,14,2.6,21c1,7,2.5,13.9,2.4,21c-3.3-5.2-8-8.2-13.6-10c-0.6-0.2-1.2-0.4-1.8-0.6c-1.8-0.6-2.8-1.6-2.8-3.8
	c0-1.5,0.2-3.3-1-4.6c0.3-2.8-1.3-5-2.4-7.4c0,0.7,0.3,1.3,0.5,2c0.6,1.8,1.2,3.6,1.9,5.5c-0.1,2-1.7,2.7-3.1,3.4
	c-5.2,3-10.9,4-17.1,5.6c2.4-2.6,4.7-4.6,7.2-6.4c3.5-2.5,7.6-3.1,11.8-3.1c-4.2-1-8.1-0.3-11.6,2c-2.1,1.4-4,3-5.9,4.6
	c-1.8,1.5-3.3,3.4-5.1,4.9c-1.3,1.1-2.9,2-4.5,2.5c-2.2,0.7-4.5,0.7-6.3-1.4c1.4-0.4,2.7-0.7,3.9-1.2c2.6-1,2.9-1.5,2.3-4.2
	c-0.2-0.8-0.3-1.7-0.7-2.5c-2.3-5.1-4.6-10.3-6.2-15.7c0,0-0.1,0-0.3-0.1c0.1,0.5,0.1,1,0.2,1.4c1,4.6,2.9,8.9,4.7,13.3
	c0.6,1.4,0.9,3,1.3,4.5c0.3,1-0.1,1.7-1,2c-1.7,0.6-3.3,1.2-5.2,1.9c-1-4.6-1.9-8.9-2.8-13.3c-0.2,0-0.3,0.1-0.5,0.1
	c0.7,4.1,1.4,8.3,2.1,12.4c0.1,0.3,0.2,0.6,0.4,0.8c2.1,2.1,4.5,3.6,7.7,2.9c2-0.4,3.7-1.6,5.5-2.5c3.2-1.8,6.4-3.5,10.2-4
	c3.5-0.5,6.9-1.6,9.9-3.5c1-0.6,2-1.4,3.2-2.3c0.1,1.2,0.2,2,0.2,2.8c-0.1,2,0.9,3.2,2.7,3.9c1.5,0.6,2.9,1.1,4.4,1.6
	c4.3,1.6,7.9,4.2,10.3,8.2c2,3.3,3.9,6.6,5.7,10c8.9,17.6,12.7,36.1,10.2,55.8c-0.9,7.2-3,13.9-7.1,20c-0.5,0.7-1,1.3-1.5,2
	c0.4-2.3,1.3-4.4,1.9-6.5c0.6-2.2,0.6-5,0.4-6.3c-0.5,2.5-0.6,5.5-1.7,8.1c-2.4,5.7-5.2,11.2-8.1,16.7c-1.1,2.1-2.8,3.9-4.6,5.6
	c-1.9,1.8-3.2,1.6-4.5-0.8c-3.5-6.1-8.2-11.1-13.3-15.7c-3.8-3.4-7.8-6.6-11.4-10.2c-7.1-7.1-15.2-12.8-23.7-18
	c-1.2-0.7-2.5-1.3-3.8-1.9c-2-0.8-4-1.4-5.9-2.2c-5.6-2.4-11.3-2.9-17.2-1.8c-3.3,0.6-6.6,1.3-9.9,1.8c-1.8,0.3-3.5,0.4-5.1-0.9
	c-1.3-1.2-1.5-1.5-0.2-2.6c0.9-0.7,1.8-1.5,2.7-2.2l0,0c4.1-0.7,8.2-0.9,12.2,0.7c1.6,0.6,3.3,0.8,5,0.3c-1.9-0.4-3.9-0.2-5.8-1.6
	c4.9-1,9.2-2.9,13.4-5c9.3-4.6,19.3-6.8,29.4-8.6c1.7-0.3,3.6,0,5.3,0.4c1.2,0.2,2.4,0.9,2.6,2.5c-2.1,1.8-4.5,2.5-7.1,2.7
	c-2.3,0.1-4.5-0.1-6.8,0c-4.1,0.1-8.1,0.2-12.2,0.5c-2.6,0.2-5.1,0.8-7.4,2.2c-1.9,1.2-3,2.9-2.6,5.1c0.4,2.4,1.6,4.2,4.1,4.8
	c0.6,0.4,1.2,0.7,1.8,1.1c0.1-0.2,0.1-0.3,0.2-0.5c-0.7-0.2-1.4-0.3-2-0.5c-0.4-0.4-0.9-0.8-1.3-1.2c-3.2-2.7-2.9-6.5,0.7-8.5
	c1-0.6,2.2-0.9,3.3-1.2c5.6-1.4,11.3-1.4,17-1.2c2.4,0.1,4.9,0,7.2-0.3c1.5-0.2,3-1,4.3-1.7c1.8-1.1,1.8-2.4,0-3.6
	c-0.9-0.6-2-1.1-3-1.2c-2-0.1-4.1-0.2-6.1,0.2c-10.5,2.1-21,4.4-30.6,9.4c-3,1.5-6.2,2.7-9.4,3.6c-4.3,1.1-8.9,0.2-13.3,0.4
	c-0.1,0-0.2-0.2-0.4-0.4c1-2.6,2.1-5.3,3.2-7.9c0.1-0.3,0.4-0.5,0.6-0.7c2.1-2.1,2.2-4.4,0.9-6.8c-0.9-1.5-1.2-3-1.3-4.7
	c-0.3-5-0.6-10.1-0.9-15.1c-0.9,5.6-0.1,11.1,0.3,16.9c-5.7-3.2-12-4.6-17.3-8.1c-0.3-0.2-0.6-0.4-0.9-0.6c-0.3-0.7-0.6-1.4-0.9-2.1
	c2.2,0.5,4.4,1,6.5,1.4c1.7,0.3,2.9-0.5,3.6-2c0.3-0.7,0.6-1.4,0.8-2.2c0.6-2,1.1-4.1,1.8-6.1c0.3-1,0.8-2,1.3-2.9
	c0.6-1,1.6-1.8,2-2.8c1.5-3.4,2.8-7,4.2-10.5c0.2-0.5,0.3-1.1,0.4-1.6c-1.1,2.1-1.9,4.3-2.8,6.5c-0.8,2.1-1.5,4.2-3.5,5.8
	c0-1,0-2.1,0-3.2c-8.3,1.9-16.1,0.6-24.3-1.3c1.1-1.7,1.9-3.2,3.5-4c0.3,0.4,0.5,0.6,0.6,0.9c1.5,1.9,2.3,1.9,3.7-0.2
	c0.2-0.3,0.4-0.7,0.6-1c1.2-2.3,2.5-4.5,3.7-6.8c0.4-0.7,0.7-1.3,1-2c-2.9,3.2-4.3,7.3-7,11c-0.9-1.1-1.6-1.8-2.3-2.6
	c3.2-4.2,6.3-8.1,8.4-12.9c-4.4,5.9-8.6,11.6-13,17.4c-3.6-1-7.2-1.7-10.3-3.8c-3.1-2.1-5.3-4.7-5-8.9c0.2-2.9,0-5.8-0.1-8.7
	c0-2.1-0.4-4.1-2.8-4.9c0.1-0.8,0.1-1.4,0.2-2c0.8-4.6,1.4-9.3,1.2-14c-0.1-2.5-0.2-5,0-7.5c0.4-4.8,1.5-9.4,3.6-13.8
	c2.2-4.4,4.1-9,6.1-13.5c0.5-1.1,0.8-2.4,1.1-3.6c0.1-0.5,0.3-0.9,0.5-1.4c1.3,3.9,2.6,7.7,3.9,11.5c2.2,5.9,4.5,11.9,6.9,17.7
	c0.9,2.3,2.1,4.5,3.2,6.7l-0.1-0.1c0.2,1.3,0.5,2.6,1.7,3.4c0.1,0.2,0.1,0.4,0.2,0.6c0,1-0.7,1.1-1.5,1.1c-2,0-4.1-0.1-6.1,0
	c-0.8,0-1.8-0.3-2,0.9c-1.5-0.7-2.4,0.2-3.2,1.2c-0.9,1-0.3,2.1,0.4,3c1.1,1.3,2.3,2.5,3.6,3.7c2.6,2.3,5.2,4.5,7.8,6.8
	c1.3,1.1,2,2.5,2.5,4.2c0.6,2.2,0.8,2.2,3.2,2.2c2.5-0.1,4.9,0.2,6.9,1.7c2.2,1.7,4.2,3.5,6.3,5.2c0.6,0.5,1.2,1,1.9,1.5
	c0.1-0.1,0.2-0.3,0.4-0.4c-0.7-0.7-1.4-1.3-2.1-2c-3.9-3.8-7.9-7.3-13.9-6.7c-1.1,0.1-1.7-0.5-1.9-1.6c-0.4-1.9-1.5-3.5-2.9-4.7
	c-2.5-2.2-5-4.3-7.5-6.4c-1-0.9-2.1-1.7-3-2.7c-2.4-2.6-2.1-3.6,1.5-4.8c0.4-0.1,0.9-0.4,1.3-0.4c2.5,0,5,0,7.5,0.2
	c6.3,0.3,12.3-0.5,18.1-3c4.1-1.8,8.1-3.7,12.2-5.5c2.5-1.1,4.5-2.8,6.3-4.8c4-4.6,9-7.8,14.5-10.1c4.9-2,9.8-2.5,14.9-0.6
	c1.2,0.5,2.6,0.6,3.9,1c4.3,1.1,8.1,0,11.3-2.9c0.8-0.7,1.3-1.9,1.9-2.8l-0.1,0.1c1.6-1.5,1.9-3.5,2.3-5.5c0.3-1.9,0.5-3.9,0.9-5.8
	c2-11.3,2.8-22.7,4-34.1c0.7-6,1.4-12,2.1-18c0.8-6.4,2.1-12.8,2.2-19.4c0-0.7,0.2-1.3,0.3-2.2c0.5,0.3,0.7,0.5,0.9,0.7
	c6.4,5.5,12.7,11.2,19.3,16.4c6.5,5.2,12.1,11.1,17.2,17.6c4.5,5.5,6.7,11.7,6.8,18.8c0.1,3.7,0.4,7.3,0.6,11c0.2-4,0.2-8,0.2-12
	c0-0.4,0.1-0.9,0.2-1.3c0.2,0.2,0.4,0.4,0.7,0.7c0.5,0.6,0.9,1.3,1.5,1.8c3.5,2.8,4.4,6.5,4.1,10.7c0,0.5,0,1.1,0,1.6
	c-0.6,14.6-1.2,29.1-1.7,43.7c-0.2,7.2,0.1,14.4,0.1,21.6c0,0.4,0.2,0.9,0.2,1.3c0.4-2.2,0.2-4.4,0.5-6.6c0.5,0.9,0.8,1.7,1.1,2.6
	c4.8,15.5,9.6,31,15.4,46.2c5.7,14.9,11.3,29.8,19,43.7c2.7,4.9,5.7,9.6,8.7,14.2c2,3.1,4.8,5.6,8.2,7.2c0.3,0.2,0.6,0.5,1,0.8
	c-2.5,5.5-4.9,11-7.5,16.6c-2.2-3.8-4.3-7.3-6.4-10.9c-5.6-9.8-10.1-20.2-14.4-30.6c-2-4.7-3.5-9.6-5-14.4
	c-1.6-4.9-3.1-9.9-4.6-14.8c-1.4-4.6-2.7-9.2-4.1-13.7c-1.1-3.8-2.2-7.5-3.4-11.2c-2.6-8-5.2-15.9-7.8-23.9c-0.1-0.4-0.4-0.7-0.6-1
	c0.9,17.3,2.4,34.4,5.1,51.4c-0.4-5.1-1-10.1-1.4-15.2c-0.1-0.9,0.1-1.8,0.2-2.7c0,0-0.1-0.1-0.1-0.1c0.2,1.1,0.3,2.3,0.6,3.4
	c0.9,4.8,1.9,9.7,3.5,14.4c3.7,11.2,7.4,22.3,10.8,33.6c3.2,10.7,5.6,21.5,9,32.1c4.5,13.9,9.6,27.7,14.4,41.5
	c1.5,4.2,2.7,8.5,3.9,12.8c0.7,2.4,0.3,4.7-1.1,6.9c-3.3,5.3-6.3,10.8-9.4,16.3c-0.3,0.5-0.4,1.1-0.6,1.7c-1.2,1.7-2.5,3.4-3.7,5.1
	c-1.1,1.7-2.2,3.4-3.4,5l0.1-0.1c-1.7,1.6-3,3.5-3.8,5.7c0,0,0.1-0.1,0.1-0.1c-1.5,2.2-3,4.4-4.5,6.7c-0.7,1-1.1,2.2-1.7,3.3
	c0,0,0.1-0.1,0.1-0.1c-1.2,1.7-2.4,3.3-3.5,5.1c-0.7,1.1-1.2,2.3-1.7,3.5c0,0,0.1-0.1,0.1-0.1c-1.1,1-1.8,2.1-1.9,3.6
	c-0.1,0.1-0.3,0.3-0.4,0.4c-0.8,1.5-1.6,3-2.4,4.6l0.1-0.1c-0.5,0.8-1,1.6-1.5,2.5c0,0,0.1-0.1,0.1-0.1c-1,1.3-1.9,2.6-2.9,3.9
	l0.1-0.1c-1.2,1.3-2.4,2.6-3.6,3.8c-0.1,0.1-0.1,0.1-0.2,0.2c-1,1.4-1.9,2.7-2.9,4.1l0.1-0.1c-0.5,0.3-1,0.7-1.4,1
	c0.3-0.9,0.6-1.7,0.9-2.6c0.3-0.5,0.6-0.9,0.9-1.4c2.2-4.7,4.5-9.3,6.6-14c4.6-10.2,9.4-20.4,15.5-29.8c3-4.6,6-9.2,9-13.8
	c0.4-0.7,0.7-1.5,1-2.3c0.3-0.3,0.6-0.6,0.9-0.9c0.8-1.4,1.6-2.7,2.4-4.1c0,0-0.1,0.1-0.1,0.1C427.2,447.6,427.7,446.7,428.1,445.9z
	 M394.5,305.1c0.1,1.1,0.2,2.2,0.2,3.2c0.1,0,0.3,0,0.4,0C394.9,307.3,394.6,306.2,394.5,305.1c-1.3-5.5-2.4-11-3.9-16.4
	c-5.7-21.1-9.9-42.6-13.7-64.1c-3-16.8-6-33.6-9.1-50.4c-0.5-2.8-1.3-5.6-1.9-8.5c-0.3,0.4-0.3,0.8-0.2,1.2
	c1.4,6.8,2.9,13.5,4.1,20.3c3.3,18.7,6.7,37.5,9.8,56.3c3.4,20.5,9.3,40.5,14.2,60.6C393.8,304.5,394.2,304.8,394.5,305.1z
	 M334.5,273.4c-0.4-0.4-0.8-0.8-1.2-1.2c-0.1,0.1-0.2,0.3-0.3,0.4C333.4,272.9,334,273.1,334.5,273.4c0.5,0.5,0.8,1,1.3,1.5
	c4.5,3.9,7.8,8.5,10.1,14c2.1,5.1,3.1,10.5,3.7,16c0.7,7.5,0.3,15-0.2,22.6c-0.2,2.5-0.1,5,0.3,7.5c0.5,3.4,2.2,6.2,5.3,8
	c2.2,1.3,4.5,2.3,7,2.6c1.9,0.2,3.7,0.3,5.6,0.3c4.8,0.2,7.8,3.3,8.1,8.1c0,0.6,0,1.1,0,1.7c0.5-0.2,0.6-0.5,0.7-0.7
	c1.2-3.3-2.1-9.4-7.1-9.9c-1.7-0.2-3.4-0.3-5.2-0.3c-2.7-0.1-5.2-0.9-7.6-2.1c-2.9-1.5-4.9-3.8-5.5-7c-0.4-2.3-0.5-4.7-0.5-7
	c0.1-6.2,0.5-12.4,0.5-18.6c0-5.6-0.8-11.1-2.3-16.5c-2.1-7.4-5.9-13.8-11.9-18.7C336,274.2,335.2,273.8,334.5,273.4z M349.4,256.4
	c0.2-0.1,0.4-0.2,0.6-0.2c0-0.4,0.1-0.9,0.1-1.3c-0.3-6.3-0.5-12.7-1.1-19c-0.9-9.8-3-19.3-6.1-28.7c-0.8-2.6-1.8-5.1-3.6-7.3
	c4,8.6,5.9,17.7,7.6,27c1.7,9.2,2.2,18.6,2.4,28c-1.3-1.2-2.3-2.6-3.4-3.9c-2.5-3-5.5-5.1-9.4-5.9c-1.8-0.3-3.5-0.7-5.3-1.1
	c-4.2-0.9-4.8-1.9-4.1-6.3c0.8-5.2,1.6-10.4,2.4-15.6c0.3-1.9,0.4-3.9,0.7-5.8c-0.5,1-0.8,2-0.9,3.1c-0.9,5.5-1.8,11-2.7,16.5
	c-0.2,1.1-0.4,2.2-0.5,3.3c-0.3,3,0.7,4.5,3.7,5.3c1.2,0.3,2.5,0.5,3.7,0.7c2.9,0.6,5.8,1.2,8.3,3c2.2,1.5,3.8,3.5,5.4,5.5
	C347.9,254.6,348.7,255.5,349.4,256.4z M270.9,268.8c0.1,0.2,0.1,0.4,0.2,0.6c2.9-0.7,5.9-1.4,8.8-2.1c2.1-0.5,3.9-1.6,5.5-3
	c2.6-2.4,5.2-4.8,7.8-7.1c1.2-1.1,2.4-2.3,3.8-3.1c4.1-2.6,8.3-5,12.5-7.5c0.5-0.3,1.1-0.7,1.4-1.2c2.6-3.6,6.3-5.8,10.4-7.3
	c1.3-0.4,2.5-1,3.3-2.2c-2.6,1-5,2-7.5,3.2c-2.1,1-3.9,2.4-5.3,4.2c-1.3,1.6-2.9,2.8-4.8,3.7c-0.6,0.3-1.1,0.6-1.6,1
	c-6.8,4.6-14.1,8.1-21.8,10.9c-0.7,0.3-1.4,0.6-2.2,1c0.1,0.1,0.1,0.3,0.2,0.4c3.7-1.4,7.5-2.8,11.2-4.2c-2.4,2.6-5,4.8-7.5,7.2
	c-2.5,2.3-5.5,3.5-8.8,4.1C274.8,267.7,272.9,268.3,270.9,268.8z M349.8,159.8c0,0-0.1,0-0.1,0c0,0.6-0.1,1.2,0,1.8
	c0.8,4.8,1.4,9.6,2.5,14.4c3.6,16,6.2,32.1,7.9,48.4c0.4,3.7,1,7.3,1.4,11c0.2-1.7,0-3.4-0.2-5.1c-1-8.7-1.8-17.5-3.1-26.1
	c-1.5-9.7-3.6-19.2-5.5-28.8C351.7,170.1,350.7,164.9,349.8,159.8z M310.8,274.8c-2,2.7-4.8,4.3-7.8,5.6c-5.9,2.4-11.9,4.7-17.8,7.3
	c-3.2,1.4-6.4,2.2-9.8,2.2c-4,0-7.9-0.3-11.9-0.5c1.5,0.4,3,0.8,4.6,1c1.6,0.3,3.2,0.4,4.8,0.6c-0.2,0.5-0.3,0.8-0.4,1.2
	c1.4-0.5,2.5-1.3,3.7-1.4c3.3-0.3,6.4-1.5,9.5-2.7c7.2-2.8,14.3-5.5,21.5-8.2c0.2-0.1,0.6-0.1,0.6-0.2c0.3-1.7,2.1-2,2.9-3.1
	C311.2,276.1,311.7,275.5,310.8,274.8z M264.2,257c0.1,0.1,0.2,0.2,0.2,0.3c0.4-0.1,0.7-0.2,1.1-0.3c10.8-3.5,20.7-8.9,29.9-15.6
	c5.6-4,11.2-8,16.9-12c0.6-0.4,1.2-0.8,1.8-1.1c-1.9,0.5-3.6,1.3-5.1,2.3c-3.9,2.7-7.8,5.5-11.6,8.4c-9.1,6.9-18.9,12.7-29.6,16.6
	C266.5,256.1,265.3,256.6,264.2,257z M321.4,275.8c5.6,13.7,9.8,27.7,9.9,42.8C333.9,311.3,327.8,284.9,321.4,275.8z M385,175.3
	c-0.7-5-2.8-9.2-6.5-12.7c-4.2-4-9.4-6.8-12.1-6.7C375.6,159.4,382.4,165.3,385,175.3z M302.7,307c-0.5-4.3-0.4-4.3,1.8-8.3
	c1.5-2.6,2.9-5.2,4.2-7.8c1.1-2.1,1.6-4.4,1.5-6.8c-0.7,4.8-3.3,8.8-5.6,12.9c-0.9,1.6-1.8,3.1-2.5,4.7
	C301.3,303.6,301.5,305.3,302.7,307z M344,307.3c-1.9,7.5-6.6,12.5-13.5,15.7C338.4,320.8,343.6,313.5,344,307.3z M279.5,261.1
	c-0.1-0.1-0.2-0.3-0.3-0.4c-1,0.4-2,0.7-3.1,1.1c0,0.1,0.1,0.3,0.1,0.4C277.4,261.8,278.5,261.4,279.5,261.1z"/>
<path d="M327.9,517.6c-1.2,0.2-1.2,1.2-1.3,2c-1,4.7-2,9.5-2.9,14.3c-0.4,2.1-0.6,4.2-0.8,6.3c-0.5,3.9-0.3,7.9,0.9,11.7
	c1.7,5.6,1.7,11.1,0.6,16.8c-2,10.3-4,20.6-6.2,30.9c-1.7,8.2-3.5,16.4-5.5,24.5c-2.5,10-6.6,19.4-10.5,28.9
	c-3.8,9.2-7.1,18.6-10.6,27.9c-0.3,0.8-0.5,1.6-0.7,2.4c0.2,0.3,0.3,0.5,0.5,0.6c2,1.7,2.2,2.2,0.9,4.3c-3.1,5.3-4.3,11.1-4.9,17
	c-1,10.4-2.2,20.7-2.5,31.2c-0.1,1.7-0.5,3.1-2,4c-0.2,0.1-0.4,0.3-0.6,0.4c-1.5,1.4-1.4,2.8,0.5,3.6c1.2,0.5,1.6,1,1.3,2.3
	c-1.6,5.5-1.7,11.1-1,16.8c0.5,4.4,0.9,8.7,1.4,13.1c0.3,2.7,0.9,5.2,3,7.2c0.6,0.6,0.7,1.7,0.8,2.6c0.2,2.2,0.1,4.4,0.3,6.6
	c0.4,5.1-0.9,9.8-3.1,14.3c-1.4,2.7-3.6,4.4-6.6,5.2c-9.4,2.3-18.2,1-26.6-3.6c-0.5-0.3-1.1-0.7-1.5-1.1c-4.3-3.5-5.1-6.6-3.3-11.8
	c1.7-4.7,3.2-9.5,4.7-14.3c0.9-3,0.8-6-0.1-9c-0.9-3.1-1.7-6.2-2.6-9.3c-1-3.4-0.9-6.7,0.1-10c1.3-4.6,2.9-9.1,4.3-13.7
	c0.2-0.6,0.4-1.2,0.7-1.8c-4.8-2.8-7.9-7.2-10.7-11.7c-2.8-4.4-5.3-8.9-7.6-13.5c-4.3-8.7-4-17.7-1.2-26.8
	c1.7-5.5,3.1-11.2,4.5-16.8c0.6-2.3,0.5-4.8,0.7-7.2c0.1-1.1-0.3-1.9-1.1-2.7c-3.9-3.4-5.4-7.7-4.9-12.9c0.5-4.5,1-9.1,1.1-13.6
	c0.2-7.3-3.1-12.8-9.5-16.4c-2.7-1.5-5.7-2-8.8-2.2c-1.9-0.1-3.8,0-5.6-0.1c-1.2-0.1-1.8,0.5-2.6,1.3c-1.8,1.8-3.8,3.5-5.8,5.2
	c-1.2,1-2,1-2.9,0c-3-3.3-5.6-6.9-8-11c4.6-3,8.2-6.7,10.8-12c-1.4,0.6-2.3,1-3.3,1.4c-2.4,0.9-2.7,0.8-4.5-1
	c-2.3-2.3-4.7-4.4-7-6.6c-0.7-0.6-1.3-1.3-2.1-2c0.6-0.5,0.9-0.9,1.4-1.2c5.3-2.9,9.6-7,13.5-11.6c9.2-11.1,15.6-23.7,18.4-37.9
	c1.1-5.5,1.3-11.2,1.9-16.8c0.2-1.4-0.2-2.6-1-3.8c-1.2-1.7-2.3-3.4-3.5-5c-3-3.8-5.6-7.7-6.8-12.9c-0.5,0.7-0.8,1.1-1,1.5
	c-1.9,3.7-4.8,6.5-8.1,9c-1.9,1.4-2.6,1.2-4.1-0.6c-2.1-2.5-4.2-5.1-6.4-7.6c-1.6-1.8-1.6-2.2,0-3.9c6-6.4,10.2-13.8,13.5-21.9
	c1.9-4.7,2.4-9.3,1.4-14.2c-2.4-12-2.3-24-0.8-36.1c0.2-1.7,0-3-1.3-4.2c-4.9-4.5-7-10.2-7.2-16.8c-0.2-6.4,0.6-12.7,1.7-18.9
	c0.2-0.8,0.2-1.7,0.2-2.6c0,0-0.1,0.1-0.1,0.1c0.1,0.7,0.4,1.3,0.4,2c-0.3,2.7-0.7,5.4-1.1,8.2c-0.7,5.7-0.6,11.4,0.5,17.1
	c0.6,3.3,2.2,6.1,5,8.6c-1.3-8-1.1-15.7,0.7-23.3c0.1,0.6,0.1,1.2,0,1.8c-0.3,3.7-0.8,7.5-0.8,11.2c0,3.3,0.6,6.5,0.9,9.8
	c0,0.3,0.4,0.7,0.6,1.1c1.6-8.4,1.3-16.6,1.5-24.8c0.9,3.3,0,6.7,0.9,10.4c4.1-9.4,5.6-19,6.7-29c0.1,0.4,0.2,0.6,0.2,0.7
	c0,0.4,0,0.8,0,1.2c-0.7,7.8-1.8,15.6-4.6,23c-1.5,3.9-2.4,7.9-2.7,12.1c-0.2,3.7-0.5,7.3-0.8,11c-0.3,3.2-0.6,6.4-0.9,9.6
	c-0.9,9.8-0.1,19.6,2,29.2c1.5,6.8,3.7,13.4,6.4,19.9c0.5,1.1,0.8,2.3,1.2,3.5c-0.2,0.1-0.3,0.1-0.5,0.2c-1.1-2.9-2.3-5.7-3.4-8.6
	c-1-2.8-2-5.7-2.9-8.6c-0.4,0.8-0.4,1.5-0.4,2.2c0.5,8.1,1.9,16,3.1,24c1,6.2,3.5,11.7,7.5,16.4c0.9,1,1.6,2.1,2.4,3.2
	c0.3,0.4,0.6,0.7,1.3,1.4c-0.2-2.1-0.3-3.7-0.5-5.3c0.5,0.4,0.7,0.8,0.8,1.3c0.2,2.3,0.5,4.5,0.5,6.8c0,6.8-0.7,13.5-2.2,20.1
	c-3.5,15.7-11,29.2-22.1,40.9c-2.6,2.7-5.6,5-8.9,6.9c-0.6,0.3-1.1,0.8-1.8,1.2c0.7,0.6,1.1,1.1,1.6,1.6c2.3,2.2,4.7,4.3,7,6.7
	c1.2,1.2,2.3,1.5,3.8,0.8c1.3-0.6,2.7-1.2,4.1-1.8c0,3.5-4,8.9-10,13.6c0.4,0.7,0.8,1.5,1.3,2.1c1.6,2.2,3.2,4.5,4.9,6.6
	c1.6,2.1,2.2,2.2,4.2,0.4c2.4-2.3,4.8-4.7,6.9-7.3c8.2-9.8,13.6-21.3,17.8-33.2c3-8.5,4.8-17.4,7.1-26.1c0.4-1.5,0.6-3.1,0.9-4.6
	c0.8-4.9-0.1-9.5-2.8-13.7c-1-1.6-1.9-3.2-2.8-4.8c0.9,1.1,1.8,2.1,2.6,3.2c3.8,5.2,5,10.9,3.7,17.2c-0.7,3.1-1.3,6.3-2.1,9.4
	c-2.4,10.2-5.3,20.3-9.8,29.9c-3.8,8.1-7.8,16.1-13.7,23c-0.2,0.3-0.4,0.6-0.8,1.3c1.2-0.1,2-0.1,2.9-0.1c3.5-0.2,6.9,0,10.2,1
	c4.4,1.4,7.8,3.9,10.1,8c2,3.5,2.8,7.3,2.6,11.3c-0.1,1.2-0.3,2.5,0.7,3.6c0,0,0,0,0,0c-0.3,0.5-0.9,1-0.9,1.5
	c-0.4,3.4-0.8,6.9-1,10.3c-0.2,2.6,0.7,4.9,2.2,7c2.8,3.9,6.8,5.9,11.4,6.8c3.3,0.7,6.7,0.3,10,0.2c4.3-0.2,8.4,0.4,12.4,2.2
	c0.6,0.3,1.3,0.5,2,0.8c0.1-0.4,0.3-0.7,0.3-1c0.3-4.2,0.6-8.4,1-12.7c0.7-7.7,1.2-15.5,2.2-23.2c1.3-9.9,2.9-19.7,4.5-29.5
	c0.7-4.2,1.4-8.5,2.2-12.7c1.1-5.8,2.3-11.5,2.7-17.4c0.2-3.1,0.6-6.2,1.1-9.3c1.5-7.9,2.7-15.8,2.9-23.8c0.2-8.6-0.2-17.2-0.6-25.9
	c-0.2-4.8-0.1-9.6,1-14.3c1.6-7.4,3.5-14.6,5.1-22c5-22.1,10-44.2,14.9-66.3c1-4.5,1.9-9.1,2.9-13.6c0.2,0.7,0.2,1.3,0.1,1.9
	c-1.6,8.1-3,16.2-4.8,24.2c-5.3,23.1-10.7,46.1-16.1,69.1c-1.2,5.3-2.5,10.5-2.4,16c0.1,6.7,0.1,13.5,0.6,20.2
	c0.7,9.6-0.5,19.1-1.9,28.6c-0.7,4.5-2,8.9-2.3,13.4c-0.4,5.8-1.1,11.5-2.1,17.2c-1.8,10-3.4,20.1-5,30.1c-1.9,11.6-3.3,23.3-4,35
	c-0.2,3.3-0.5,6.6-0.8,9.8c-0.3,3.2-0.3,6.4-0.9,9.6c-0.4,2-0.6,4-0.8,6.1c-0.2,1.8-0.4,3.5-0.6,5.3c6,0.5,11.9-0.9,17.3,2.1
	c0.2-0.5,0.4-0.8,0.5-1.1c4.3-11.2,8.4-22.4,12.8-33.6c3.1-7.7,6.3-15.4,8.3-23.5c4.5-18.3,8.3-36.7,11.7-55.2
	c1.1-6.1,1.2-12.1-0.5-18.2c-0.8-2.7-1.2-5.8-1-8.6c0.5-5.6,1.4-11.2,2.4-16.7c1.4-7.5,3.9-14.7,6.3-21.9
	c4.6-13.4,9.9-26.4,16.6-38.9c0.4-0.7,0.9-1.2,1.3-1.9c-0.3,0.7-0.4,1.5-0.8,2.2c-4.5,8.7-8.1,17.8-11.7,27
	c-2.9,7.5-5.3,15.1-7.9,22.6C327.5,516.1,327,516.9,327.9,517.6L327.9,517.6z M269.6,689c-0.2,0.5-0.4,1-0.5,1.6
	c-1.6,8.5-3.2,17.1-4.8,25.6c-2.1,11.1-3.9,22.2-7.2,33c-0.4,1.2-0.7,2.5-0.6,3.7c0.4,5.3,1,10.6,1.5,15.9
	c0.5,5.5,1.2,11.1,1.4,16.6c0.2,5.6,0,11.1,0,16.7c0,1.2,0.1,2.3,0.2,3.5c0.6-0.5,0.8-1,0.9-1.5c1-4.6,1.2-9.2,0.7-13.8
	c-0.7-6.2-0.7-12.3,1-18.4c0.7-2.5,1.8-4.6,3.6-6.5c1.9-1.9,3.9-3.9,5.7-5.9c0.3-0.3,0.5-0.8,0.7-1.2c-1.5,0.6-2.6,1.5-3.8,2.1
	c-1,0.5-2.2,0.8-3.3,0.9c-1.2,0-2.2-0.8-2.2-2c-0.1-3.3-0.7-6.6,1.1-9.7c0.9-1.6,1.2-3.3,0.9-5.2c-0.2-1.4-0.2-3,0.1-4.4
	c1.2-5,2.6-10,3.8-15c0.2-1,0.4-2.4-0.1-3.2c-1.4-2.1-1.1-4.2-0.2-6.3c1-2.3,1.4-4.7,1-7.1c-0.4-3.3,0.4-6.3,2.2-9.2
	c0.8-1.2,1.4-2.6,2.1-3.9c0.4-0.8,0.2-1.5-0.4-2.2C272.3,691.9,271,690.5,269.6,689z M189.7,500.4c2.7,3.2,5.1,6.2,7.6,9.1
	c1.2,1.5,1.6,1.6,3.1,0.4c3.2-2.4,5.9-5.3,8-8.8c1-1.7,1.1-3.3,0.8-5.1c-1-6.9-1.9-13.8-2.8-20.7c-0.1-0.8-0.2-1.7-0.4-2.5
	C202.7,483.3,197.4,492.5,189.7,500.4z M273.4,667.1c-5.5-2.7-11-3.7-17-2.8c-0.3,1.4-0.5,2.7-0.7,4c-0.3,1.4,0,2.7,1.1,3.6
	c1.4,1.2,1.6,2.8,1.6,4.5c-0.1,3-0.1,6-0.1,8.9c0.1,4.3,0.4,8.6,0.5,12.9c0.1,6.4,0,12.7,0,19.1c0.4-1.1,0.7-2.1,0.7-3.2
	c0.2-6.7,0.5-13.5,0.6-20.2c0.1-4.5,0-8.9,0-13.4c0-1.3,0.2-2.6,1-3.8c1.3-2.1,3.1-3.3,5.5-3.7c2.1-0.3,4.1-0.7,6.2-1
	C273,670.4,273.2,668.8,273.4,667.1z"/>
<path d="M167.9,320.9c1.6-1.7,3.5-1.2,5.4-0.6c1.4,0.4,2.7,1,4.2,1.6c-0.1-0.4,0-0.6-0.1-0.7c-2.1-2.1-1.3-4.2,0.1-6.2
	c0.9-1.3,0.8-2.8,1-4.2c0.4-4.7,0.9-9.4,1.4-14c0.1-1.3,0.2-2.6,0.3-4.3c-0.8,0.6-1.4,0.9-1.8,1.3c-2.8,2.4-5.6,4.7-8.5,7.1
	c-1.2,0.9-2.4,1.8-3.6,2.6c-0.8,0.5-1.7,0.6-2.4-0.1c-1.5-1.5-3-3.1-4.6-4.7c0.1-0.1,0.3-0.4,0.6-0.5c5.4-1.5,9.6-4.9,13.7-8.4
	c2.1-1.8,4.1-3.9,6.1-5.9c0.5-0.5,1-1.3,1.1-2c0.5-5,0.9-10,1.3-15c0-0.1-0.1-0.3-0.2-0.7c-3.1-0.4-6.4-0.8-9.7-1.2
	c1.6-5.5-0.6-9.9-3.9-14.2c1.2,0.6,2.4,1.4,3.7,1.8c1.4,0.5,2.9,0.8,4.3,1c1.4,0.2,2.8,0.1,4.2,0c1.5-0.1,3-0.3,4.4-0.7
	c1.4-0.3,2.8-0.8,4.2-1.2c0.1-0.5,0.2-0.7,0.2-0.9c-0.4-9.1,0.9-18,3-26.8c2.7-11.3,5.6-22.5,8.3-33.8c1.4-5.9,2.4-12,3.9-17.9
	c2.1-8.7,4.5-17.4,6.7-26.2c0.2-0.6-0.1-1.3-0.3-2c-0.2-0.9-0.5-1.8-0.5-2.7c0-0.9,0.6-1.7,1.7-1.4c1,0.3,1.5-0.2,2-0.8
	c6.4-6.9,14.3-11.4,22.7-15.2c3.3-1.5,6.6-3.1,10.2-4.8c-0.8-1.2-1.6-2.5-2.6-4.1c1.4-1.7,2.9-3.4,4.4-5.3c-0.6-0.2-1.1-0.4-1.5-0.5
	c-4.6-1.2-8.9-3.1-12.3-6.5c-1.4-1.4-3.1-2.3-5-3.1c-6.7-2.7-10.6-10.1-8.8-16.8c0.4-1.5,1.3-2.8,2-4.4c-2.3-1.8-1.9-4.2-0.9-6.7
	c0.9-2.2,1.9-4.3,2.9-6.4c0.4-0.9,0.8-1.8,1.3-2.9c-2.3-1.6-1.7-3.6-0.8-5.6c0.8-1.8,2.2-3.1,4-3.8c2.8-1,5.6-1.5,8.5-0.6
	c1.9,0.6,3.3,0.2,5-1c3.4-2.4,5.9-5.4,7.8-9.2c1-2.2,2.6-4.1,4.1-6c0.9-1,2.1-1.9,3.4-2.5c6.9-3.2,14.1-4.8,21.7-3.6
	c3.9,0.6,6.7,2.9,8.8,6.1c0.7,1,1.4,1.4,2.5,1.8c2.7,1,5.3,2.2,7.9,3.6c1.9,1,3.1,2.7,3.5,4.8c0.7,3.2,1.3,6.4,1.9,9.7
	c0.3,1.9,0.5,3.7,0.5,5.6c-0.1,3.5,1.6,6.2,3.7,8.7c1.5,1.8,2.4,3.6,2.1,5.9c-0.3,2,0.8,3.8,1.4,5.7c0.6,1.9,1.3,3.9,1.7,5.8
	c0.2,1.1,0.9,1.5,1.6,2.1c0,0,0,0,0,0c-0.4,0.1-0.7,0.2-0.8,0.2c-0.7,3.6-1.2,7.1-2.2,10.5c-2,6.8-8.2,9.7-14.8,7.1
	c-0.7-0.3-1.6-0.4-2.2-0.2c-2.1,0.7-3.6,2-4.7,4.2c1.1,0.3,1.9,0.6,2.8,0.9c6.7,2,13.5,3.8,20.1,6.6c4.8,2,8.9,4.9,12.3,8.8
	c0.3,0.3,0.5,0.7,0.8,1.1c-0.8-0.3-1.3-0.7-1.8-1.2c-4.7-5-10.7-7.9-17-10.1c-9.5-3.3-19.1-6-29.1-7.1c-1.6-0.2-3-0.8-4.2-1.9
	c-2.6-2.2-5.2-4.3-7.8-6.5c-2.8-2.3-4.5-5.2-5.2-8.7c0.2,0.4,0.6,0.7,0.7,1.1c1.2,3.3,3.4,5.9,6.2,8.1c2,1.5,3.9,3.1,5.8,4.8
	c2.3,2.1,4.8,2.1,7.4,0.9c1-0.5,2-1.2,2.8-2c1.8-1.7,3.4-3.5,5.1-5.2c1.6-1.7,2.8-3.7,3.1-6c0.5-3.3,0.9-6.7,1.2-10
	c0.1-0.8-0.1-1.7-0.3-2.6c-0.5-2.8-1-5.5-1.5-8.3c-0.1-0.5-0.3-0.9-0.5-1.7c-0.8,1-1.3,1.8-1.8,2.4c-1.9,0.9-2.7-0.4-3.4-1.8
	c-0.4,0.2-0.6,0.3-0.8,0.4c-0.2,0.1-0.5,0.1-1,0.2c2-2.9,4.9-2,7.3-2.7c0-0.8-0.1-1.6-0.1-2.5c-2.7,0.6-5.1,1.2-7.5,1.8
	c2-2.3,4.9-2.7,7.4-3.4c0-2.6,0.2-5,0-7.4c-0.3-4-2.5-7-5.5-9.5c-0.8-0.7-1.5-0.8-2.6-0.3c-2.7,1.2-4,3.4-4.8,6.1
	c-1.2,4.5-2.5,9.1-5,13c0.6,0.8,1.1,1.5,1.8,2.5c-3.1-0.4-3.1-0.4-3.9,1.1c0.4,0.4,0.9,0.7,1.4,1.1c-2.1,1.2-4.3,1.9-5.8,3.9
	c-2.4,3.3-5.8,5.5-9.8,6.5c-0.4,0.1-0.8,0.3-1.2,0.5c0.5,1.1,1.4,1.3,2.3,1.2c0.7-0.1,1.4-0.4,2.2-0.7c0.3,2.8,0.6,5.7,0.9,8.5
	c-0.3-0.5-0.7-1-1-1.5c-2.2,1.5-3.4,3.6-4.4,6c-2.2,5.3-5,10.2-9.2,14.3c-0.9,0.8-1.5,1.9-2.2,2.9c2,3,3.9,5.7,5.7,8.4
	c4.8,7,8.7,14.5,11.1,22.7c1.2,4.1,2.5,8.1,3.8,12.1c2.1,6.4,5.6,11.6,10.9,15.8c6,4.8,12.7,7.6,20.2,8.9c4.2,0.7,8.4,1.3,12.5,2.4
	c8.4,2.1,14.6,7.3,19.3,14.4c0.8,1.3,1.4,2.6,1,4.3c-0.6-1.4-0.9-2.8-1.7-3.9c-2.4-3.6-5.3-6.8-8.9-9.3c-4.7-3.4-10.1-5-15.7-5.9
	c-5-0.8-10.1-1.4-14.9-3.2c-11.6-4.4-20.2-11.8-23.8-24.1c-1-3.5-2.2-7-3.3-10.6c-2.1-7.2-5.3-13.9-9.3-20.2c-1.5-2.4-3.2-4.6-4.8-7
	c-1.5,0.6-2.8,1-4.1,1.6c-3.2,1.5-6.4,3-9.5,4.7c-6.5,3.4-12.9,6.8-18,12.3c-1.3,1.4-2.5,2.8-4.6,2.4c-1,3,1.8,4.2,2.8,6.5
	c-0.9-0.7-1.5-1.2-2.4-1.9c-0.4,1.5-0.8,2.7-1.1,4c-2.6,11.1-5,22.3-7.7,33.4c-2.4,10.2-5.1,20.4-7.6,30.6
	c-1.9,7.5-3.8,15.1-4.7,22.8c-0.4,3.4-0.8,6.8-1,10.3c-0.1,1.4,0.3,2.9,0.4,4.5c0.6-0.2,1-0.2,1.4-0.4c5.2-2.1,10.5-2.6,15.9-1.6
	c2.9,0.5,5.8,0.9,8.5,2.4c-2-0.4-4-0.9-6-1.2c-6.2-1.2-12.3-1.2-18.2,1.4c-1.8,0.8-3.6,1.4-5.5,1.9c-4.9,1.4-9.9,1.7-14.8-0.1
	c-0.1,0-0.2,0.1-0.5,0.2c1.7,3.3,3.1,6.7,2,10.6c1.7,0.1,3.1,0.2,4.6,0.3c1.5,0.1,3,0.4,4.5,0.6c1-3.5,1-3.5,2-4.5
	c-2.1,6.7-1.7,13.7-2.3,20.6c5.7-4.4,10.2-10.1,16.9-13.2c-4,2.6-7.4,5.7-10.8,9c-4.1,3.9-8.1,7.9-12.1,11.8
	c-3.2,3.1-6.6,5.7-10.5,7.9c-1.4,0.8-2.9,1.4-4,1.9c1.3,1.3,2.7,2.7,4.3,4.3c4-1.7,7-5.5,10.7-8.3c3.7-2.8,7.2-6,10.9-9.1
	c-0.3,0.9-0.8,1.7-1.5,2.3c-1,1-2.1,1.8-3.3,2.7c-0.7,0.6-1.2,1.1-1.3,2.1c-0.5,5.5-1.1,11.1-1.6,16.6c0,0.4,0.1,0.8,0.2,1.7
	c0.4-0.9,0.6-1.2,0.8-1.6c1.9-3.9,3.6-7.9,5.6-11.6c2.8-5.1,5.2-10.3,7-15.9c0.5-1.6,1.1-3.3,1.8-4.9c1.7-4.4,4.9-7.5,9.1-9.4
	c4.5-2.1,9.1-2.2,13.6,0c0.7,0.4,1.6,0.7,1.5,1.9c-0.3-0.2-0.6-0.2-0.9-0.4c-5.4-3.1-10.6-2.6-15.8,0.6c-3.5,2.1-5.7,5.3-7,9.1
	c-2.4,7.6-5.6,14.8-9.5,21.7c-2.9,5.3-5.4,10.8-8.1,16.2c-0.3,0.6-0.5,1.1-0.7,1.8c0.6,1.1,1.2,2.2,1.9,3.3c0.7,1,1.4,1.9,2.2,2.7
	c0.8,0.8,1.7,1.5,2.6,2.3c-1.6,0-2.4-0.9-3.2-1.8c-0.5-0.6-1-1.4-1.7-1.6C175.1,321.9,171.8,319.6,167.9,320.9L167.9,320.9z
	 M252.1,59.1c-2.6,2.2-5.1,4.2-7.5,6.2c0.4,0.6,1.1,0.2,1.8,0.1c1.2-0.3,2.3-0.6,3.6,0.2c0.4,0.3,1.5,0,2.1-0.4
	c3-1.9,4.4-4.7,4.6-8.3C254.4,59.9,254.4,59.9,252.1,59.1z M293.6,59c0.1,6.6-0.7,13.2,0.7,19.7C295,72.1,295.8,65.5,293.6,59z
	 M305.7,75.6c2.6-4.3,2.6-4.9-0.2-8.2C305.4,70.2,305.1,72.8,305.7,75.6z M257.7,64.7c1.1,0.1,1.9,0,2.6,0.3
	c0.6,0.2,1.1,0.8,1.9,1.4c0-1.5,0-2.8,0-4.2c-1.4,0.2-2.6,0.3-3.9,0.5C258.1,63.3,258,63.8,257.7,64.7z M245,53.2
	c-2.1,1.2-4,2.2-6.1,3.3c0.5,0.3,1,0.8,1.3,0.7C242.4,56.8,244,55.5,245,53.2z M240.8,67.5c-3.2,0.2-6.1,0.3-9.1,0.5
	C234.8,69.1,237.7,68.7,240.8,67.5z M265.7,69.8c2.4-1.4,3.6-3,3.9-5.5C268.2,66.2,267.1,67.8,265.7,69.8z M238.9,87.6
	c-2.6,1.3-2.6,1.3-2.8,3C237.1,89.5,238,88.5,238.9,87.6z M247,60.2c2,0.4,2,0.3,2.6-1.6C248.6,59.2,247.8,59.7,247,60.2z M276.5,52
	c0.5-0.6,1-1.2,1.5-1.8C277,50.4,276.4,51,276.5,52z"/>
<path d="M346.5,261.1c1.2,1.3,1,3.1,1,4.6c0.1,2.2,1.1,3.1,2.8,3.8c0.6,0.2,1.2,0.4,1.8,0.6c5.6,1.8,10.3,4.8,13.6,10
	c0-7.1-1.4-14.1-2.4-21c-1-7-1.9-13.9-2.6-21c1.1,6.5,2.2,13.1,3.3,19.7c0.5,0.1,0.9,0.2,1.2,0.2c2.7,0.2,4.8,1.5,6.3,3.6
	c1.5,2,2.9,4.1,4.1,6.3c3.8,6.5,6.7,13.3,9.2,20.3c3.1,8.4,6.4,16.7,9.6,25c2.8,7.4,5.5,14.9,7,22.7c2.1,11,3.4,22,3,33.2
	c-0.3,7.6-0.9,15.2-2.7,22.6c-0.7,3-1.9,5.9-2.9,8.9c-0.3,0.7-0.7,1.4-1,2.1c-2.4,5.3-1.9,7.8,2.3,11.7c1.5,1.4,3.2,2.8,5,3.9
	c1.4,0.9,3.1,1.7,4.8,1.8c4.2,0.2,7.2,2.3,9.8,5.3c3.8,4.4,8.5,7.9,11.4,13.3c1.4-1.4,1.8-2.8,1.7-4.4c-0.2-2-0.4-4.1-0.9-6
	c-1.9-8.4-4.9-16.5-7.9-24.6c-4.4-11.8-8-23.8-10.9-36c-0.1-0.4-0.1-0.7,0.2-1.2c0.9,3.3,1.7,6.6,2.6,10c3,11.1,7.1,21.9,10.9,32.8
	c2.5,7.2,5.1,14.3,6.6,21.8c0.6,3.1,0.4,6-1.3,8.6c-1.2,1.9-2,4.1-3.8,5.5c0.6-1.2,1.2-2.4,1.8-3.5c0.7-1.1,0.7-2.2,0-3.3
	c-1.6-2.1-3.1-4.3-4.8-6.3c-2-2.2-4.2-4.2-6.2-6.4c-2.4-2.6-5.1-4.6-8.8-4.8c-2.5-0.1-4.7-1.2-6.6-2.8c-2-1.7-4.1-3.4-5.9-5.4
	c-2.2-2.4-2.7-5.2-1.4-8.3c0.1-0.4,0.3-0.7,0.4-1.1c3.4-6.4,5-13.3,5.8-20.4c0.9-7.2,1.4-14.5,1.1-21.8c-0.7-16.5-3.8-32.5-9.9-47.9
	c-3.4-8.6-6.6-17.3-9.9-25.9c-0.2-0.4-0.4-0.8-0.8-1.7c-0.1,0.7-0.1,1-0.1,1.2c1.1,6.8,2,13.6,3.2,20.4c3,16.9,3.6,33.9,3.4,51.1
	c-0.2,11.9,0.4,23.8,1.4,35.7c0.5,6.2,1.7,12.2,3.3,18.2c0.2,0.6,0.2,1.2,0.3,1.8c0,0,0.1,0,0.1,0c-0.5-1-1.1-2-1.4-3.1
	c-2.3-8.1-3.3-16.4-3.7-24.8c-0.5-10.7-0.6-21.5-0.9-32.2c-0.3-9.1,0-18.2-1-27.3c-1.6-14.6-3.5-29.1-6.2-43.5
	c-0.3-1.4-0.6-2.9-1.2-4.3c-2.1-4.2-4.2-8.4-6.5-12.5c-1-1.8-2.3-3.6-3.7-5.2c-1.5-1.8-3.4-2.9-6.1-2.5c0,0.7,0,1.3,0.1,1.9
	c0.7,5.8,1.6,11.6,2.2,17.5c0.4,3.7,1.6,7,3.4,10.2c4.6,8.3,8.1,17.1,9.9,26.5c2.2,11.6,3.1,23.2,0.7,34.8
	c-1.7,8.1-4.8,15.6-10.9,21.4c-0.4,0.4-0.6,0.9-0.9,1.3c-1.1,2.1-2.2,4.2-3.3,6.2c-1.6,2.6-3.2,5.2-5.7,7.1
	c-2.2,1.8-3.9,1.5-5.2-0.9c-3.8-6.6-9-12-14.7-17c-4.5-4-9-8.1-13.4-12.2c-9.7-8.9-20.5-16-33.1-20c-2.4-0.8-4.8-1.2-7.5-1
	c0.3,0.8,0.5,1.6,0.7,2.3c-0.2-0.1-0.4-0.2-0.5-0.4c-0.7-1.8-2-2.2-3.8-1.8c-3,0.6-6,1-9,1.6c-2.9,0.6-5.8,1.2-9,0.1
	c-1.1,2.5-2.1,4.9-3.2,7.3c0.1,0.3,0.2,0.5,0.3,0.7c0.9,2.2,0.7,2.5-1.6,3.3c-0.6,0.2-1,0.8-1.5,1.3c0.2-0.9-0.3-1.2-1.1-1.4
	c-3.2-0.4-6.4-0.9-9.5-1.3c-0.6-0.1-1.3,0-1.9,0c-0.9,0.1-1.6,0.5-1.6,1.4c0,0.6,0.5,1.2,0.8,1.8c0.1,0.1,0.3,0.2,0.4,0.2
	c1.7,0.6,2,2,1.8,3.6c-0.1,0.8-0.2,1.6-0.4,2.3c-0.4,2-0.9,4-1.3,6c-0.6,2.7-1.4,5.3-2.9,7.7c-1.3,2.1-3.3,3.2-5.7,2.9
	c-1.2-0.1-2.4-0.6-3.6-1c-0.9-0.3-1.7-0.7-2.7-1.1c-1,3.2-1.8,6.2-2.7,9.1c-0.4-2.2,0.5-4.1,1.2-6.1c0.8-2,1.1-3.8-1.3-5.1
	c-0.8-0.4-1.4-1.3-1.8-2.1c-1.1-1.7-2.2-3.5-3-5.3c-1.1-2.4-2.8-4.1-5.1-5.3c-0.6-0.3-1.3-0.6-1.9-1c-0.7-0.5-1.5-0.9-1.4-2l0,0
	c0.8,0.5,1.4,1.2,2.3,1.6c3.7,1.5,6.1,4.2,7.7,7.8c1.9,4.5,5.4,7.3,10.1,8.9c3.7,1.2,6.1,0.4,7.8-3c0.9-1.7,1.5-3.6,2-5.5
	c0.7-2.4,1.1-4.9,1.7-7.3c0.5-2,0.7-3.9-1.7-4.9c-0.9-0.4-1.3-1.4-1-2.4c0.2-1,0.8-1.8,1.8-1.9c0.8-0.1,1.7-0.2,2.6-0.1
	c2.9,0.3,5.7,0.7,8.6,1.1c1.5,0.2,3,0.4,4.3-0.5c-0.1-2.1-1.6-2.7-3.2-3.3c-2-0.8-4.4-1.3-6-2.6c-2.8-2.4-5.6-3.2-9.2-2.1
	c-2.9,0.8-5.7-0.1-8.2-1.9c2.2,0.5,4.3,1.7,6.7,1c-2.8-2.7-1.3-6.4-2.4-9.6c-1.3,2.2-2.5,4.4-3.8,6.6c0.7-3.4,1.4-6.8,2.9-9.9
	c0.4-0.8,0.5-1.8,0.5-2.7c-0.1-2.1,0.5-4,1.8-5.7c0.5-0.6,1-1.2,1.4-1.9c2.1-3,1.2-5.4-2.3-6.4c-4.3-1.3-8.3-0.3-11.8,2.2
	c-2.6,1.8-5,4-7.4,6.1c-7.7,6.7-13.7,14.8-19.8,22.9c-0.4,0.5-0.4,1.2-0.6,1.9l0,0c-0.6,0.4-1.4,0.7-1.9,1.2c-1.6,1.6-3,3.4-4.6,5
	c-3.4,3.5-7.5,5.9-12.1,7.6c-2.8,1-5.5,0.9-8.2-0.5c-2-1-3.1-2.6-3.1-4.9c0-2-0.1-3.9,0-5.9c0.1-3.3-0.2-6.6-1.1-9.8
	c-0.7-2.5-1.2-5-1.8-7.5c-0.2-1-0.2-2-0.2-3c0-0.9,0.3-1.7,1.4-1.9c0,0,0,0,0,0c-0.7,0.9-0.9,2-0.6,3.1c0.7,3.3,1.4,6.6,2.1,9.9
	c0.4,2,0.8,4,0.9,6c0.2,2.9,0.2,5.8,0.2,8.7c0,2.2,1,3.7,2.9,4.7c2.4,1.2,4.8,1.2,7.3,0.3c5.9-2.1,10.8-5.7,14.7-10.6
	c3.6-4.5,7.1-9,10.6-13.5c5.3-6.9,11.4-13.1,18.2-18.6c2.5-2,5.1-3.6,8.3-4.2c3.4-0.7,6.7-0.5,9.7,1.6c3,2,3.7,4.6,1.8,7.7
	c-1.3,2.1-2.8,4.1-4.4,6.4c-0.4-1.6,0.5-2.2,1-3.1c1-1.7,2.2-3.3,3.1-5c0.7-1.2,0.5-2.5-0.9-3.8c0.3,2.4-0.8,4-2,5.6
	c-1.4,1.7-2.1,3.6-1.9,5.9c0.1,0.9-0.3,2-0.7,2.9c-0.5,1.2-1.1,2.4-1.6,3.5c1.9-1.9,3.6-3.8,5.1-5.9c2.1-2.9,4.2-5.9,6-9
	c1.7-3,2.6-6.2,2-9.7c0-0.1,0.2-0.3,0.3-0.6c1.2,1.8,0.9,3.6,0.5,5.4c-0.8,3.6-2.5,6.7-4.7,9.7c-1.8,2.4-3.6,4.7-5.4,7.1
	c-0.4,0.5-0.9,1.1-0.9,1.6c0.2,2.6,0.4,5.1,0.7,7.7c0.1,1.2,0.9,1.6,2,1.4c0.5,0,0.9-0.2,1.4-0.2c5.7-1.1,9.2-5.3,12.9-9.5
	c-0.5-0.1-0.7-0.2-0.9-0.1c-3,0.6-6,1.2-8.9,2c-1.1,0.3-2.2,0.8-3.2,1.5c-0.6,0.4-1.1,1.2-1.6,1.8c0.1,0.1,0.2,0.3,0.3,0.4
	c0.7-0.1,1.4-0.1,2.6-0.3c-0.7,0.4-0.9,0.7-1.2,0.7c-0.7,0.2-1.7,0.6-2.1-0.3c-0.2-0.5,0.2-1.5,0.6-2c0.7-0.7,1.5-1.3,2.4-1.8
	c1-0.5,2.1-0.8,3.1-1c3.2-0.8,6.4-1.4,9.6-2.3c3.5-0.9,6.9-2.1,10-4.1c3.3-2.1,3.8-4.2,1.7-7.5c-0.6-0.9-1.4-1.7-2.3-2.3
	c-1.7-1-3.6-1.8-5.5-2.7c-3-1.5-6-3-9-4.6c-0.4-0.2-0.7-0.8-1-1.1c5.3,3.6,11.6,5,17.3,8.1c-0.3-5.8-1.2-11.4-0.3-16.9
	c0.3,5,0.6,10.1,0.9,15.1c0.1,1.7,0.4,3.2,1.3,4.7c1.4,2.4,1.3,4.8-0.9,6.8c-0.2,0.2-0.5,0.4-0.6,0.7c-1.1,2.7-2.1,5.3-3.2,7.9
	c0.2,0.2,0.3,0.4,0.4,0.4c4.4-0.2,9,0.7,13.3-0.4c3.2-0.8,6.4-2,9.4-3.6c9.7-5,20.1-7.3,30.6-9.4c2-0.4,4.1-0.3,6.1-0.2
	c1,0.1,2.1,0.6,3,1.2c1.8,1.2,1.8,2.5,0,3.6c-1.3,0.8-2.8,1.5-4.3,1.7c-2.4,0.4-4.8,0.4-7.2,0.3c-5.7-0.3-11.4-0.2-17,1.2
	c-1.1,0.3-2.3,0.7-3.3,1.2c-3.6,2-3.9,5.8-0.7,8.5c0.5,0.4,0.9,0.8,1.3,1.2l0,0c-2.5-0.6-3.7-2.4-4.1-4.8c-0.4-2.3,0.8-3.9,2.6-5.1
	c2.2-1.4,4.8-2,7.4-2.2c4.1-0.3,8.1-0.4,12.2-0.5c2.3-0.1,4.6,0.1,6.8,0c2.6-0.1,5.1-0.9,7.1-2.7c-0.2-1.6-1.4-2.3-2.6-2.5
	c-1.7-0.3-3.6-0.7-5.3-0.4c-10.1,1.8-20.1,4-29.4,8.6c-4.2,2.1-8.5,3.9-13.4,5c1.9,1.4,3.9,1.2,5.8,1.6c-1.7,0.5-3.4,0.4-5-0.3
	c-4-1.6-8.1-1.5-12.2-0.7c-0.9-0.4-1.8-0.8-2.7-1.1c1.1-2.7,2.8-4.8,3.4-7.5c-2.4,1-4.6,1.9-6.8,2.6c-1.4,0.4-2.5,1.2-3.5,2.2
	c-3.3,3.5-6.2,7.5-10.9,9.2c1.4,0.9,2.6,1.8,3.9,2.6c1.6,1,3.2,2,4.9,2.7c1.6,0.7,3.2,1.1,5.1,1.7c0.9-2.1,1.9-4.2,2.9-6.3
	c0.1-0.3,0-0.7-0.1-1.1c-0.6-2-0.5-2.4,1.2-3.5c0.8-0.5,1.8-0.9,2.7-1.4c-0.9,0.7-1.8,1.4-2.7,2.2c-1.3,1.1-1.2,1.4,0.2,2.6
	c1.6,1.4,3.3,1.2,5.1,0.9c3.3-0.5,6.6-1.2,9.9-1.8c5.9-1.1,11.7-0.6,17.2,1.8c1.9,0.8,4,1.4,5.9,2.2c1.3,0.5,2.6,1.1,3.8,1.9
	c8.5,5.2,16.7,10.8,23.7,18c3.6,3.6,7.6,6.8,11.4,10.2c5.1,4.7,9.9,9.6,13.3,15.7c1.3,2.3,2.6,2.6,4.5,0.8c1.7-1.7,3.5-3.5,4.6-5.6
	c2.9-5.5,5.7-11,8.1-16.7c1.1-2.6,1.2-5.6,1.7-8.1c0.3,1.3,0.2,4.1-0.4,6.3c-0.6,2.2-1.4,4.2-1.9,6.5c0.5-0.7,1-1.3,1.5-2
	c4.1-6,6.2-12.8,7.1-20c2.5-19.7-1.2-38.2-10.2-55.8c-1.7-3.4-3.7-6.7-5.7-10c-2.4-3.9-6-6.5-10.3-8.2c-1.5-0.6-2.9-1.1-4.4-1.6
	c-1.8-0.7-2.8-1.9-2.7-3.9c0.1-0.8-0.1-1.7-0.2-2.8c-1.3,0.9-2.2,1.7-3.2,2.3c-3,1.9-6.4,3-9.9,3.5c-3.8,0.5-7,2.2-10.2,4
	c-1.8,1-3.5,2.1-5.5,2.5c-3.2,0.7-5.6-0.8-7.7-2.9c-0.2-0.2-0.3-0.5-0.4-0.8c-0.7-4.1-1.4-8.3-2.1-12.4c0.2,0,0.3-0.1,0.5-0.1
	c0.9,4.3,1.8,8.7,2.8,13.3c1.9-0.7,3.5-1.3,5.2-1.9c1-0.4,1.3-1,1-2c-0.4-1.5-0.7-3.1-1.3-4.5c-1.8-4.3-3.7-8.6-4.7-13.3
	c-0.1-0.4-0.1-0.9-0.2-1.4c0.2,0.1,0.3,0.1,0.3,0.1c1.6,5.4,3.9,10.6,6.2,15.7c0.3,0.8,0.5,1.7,0.7,2.5c0.6,2.7,0.3,3.2-2.3,4.2
	c-1.2,0.5-2.5,0.8-3.9,1.2c1.8,2.1,4.1,2.1,6.3,1.4c1.6-0.5,3.2-1.4,4.5-2.5c1.8-1.5,3.3-3.3,5.1-4.9c1.9-1.6,3.8-3.3,5.9-4.6
	c3.5-2.3,7.4-2.9,11.6-2c-4.2,0-8.2,0.6-11.8,3.1c-2.5,1.8-4.8,3.7-7.2,6.4c6.1-1.7,11.9-2.7,17.1-5.6
	C344.7,263.7,346.4,263,346.5,261.1L346.5,261.1z"/>
<path class="st0" d="M376.8,469.5c-1,0.5-2,1.1-3,1.6c-0.7,0.4-1.4,0.6-1.9,1.1c-0.8,0.7-1.6,1.4-2.5,2.4c-0.7-2.8,0.1-5,1.1-7.1
	c-0.5,0.4-0.9,0.8-1.5,1.3c-0.1-0.5-0.1-0.7-0.1-1c-0.2-15.3-0.3-30.6-0.6-45.9c0-1.5,0.6-2.1,1.8-2.6c6.9-2.6,13.5-1.6,20,1.4
	c0.4,0.2,0.8,0.5,1.1,0.8c0.2,0.2,0.5,0.5,0.5,0.7c-0.2,1.6,0.5,3,0.6,4.6c0.1,5.5,0.6,11,0.9,16.4c0.2,3,0.9,6.1-0.9,8.9l0.1-0.1
	c-0.2,0.2-0.6,0.3-0.7,0.5c-1.7,3.7-3.3,7.4-5,11.1c-0.5,0.7-1.1,1.4-1.6,2.1c-2,0.8-4,1.6-6,2.4l0.1-0.1
	C378.2,468.3,377.3,468.4,376.8,469.5z M374.5,464.5c1.8-0.5,3.8-1.6,4.7-3C377.6,462.5,376.1,463.5,374.5,464.5
	c-1.7,0.5-1.7,0.5-2.6,2.1C372.9,465.7,373.7,465.1,374.5,464.5z M379.3,439.2c-0.3-0.4-0.5-0.7-0.9-1.2c-0.7,1.2-1.2,2.2-1.8,3.2
	c-1,1.8-1.3,3.6-0.8,5.6c0.4,1.7,0.5,3.6,0.5,5.4c0,1.7-0.7,3.2-2,4.4c-1.4,1.2-2.9,0.8-3.4-1c-0.1-0.4-0.2-0.9-0.2-1.4
	c-0.2-3-0.3-5.9-0.6-8.9c-0.2-1.7-0.2-3.4-1-4.9c0,1.3,0.2,2.5,0.3,3.7c0.3,3.7,0.5,7.3,0.8,11c0.1,1.2,0.5,2.2,1.6,2.6
	c1.2,0.5,2.4,0.2,3.2-0.8c0.8-1,1.7-2.3,1.8-3.4c0.2-2.3,0-4.7-0.4-7C375.9,443.4,376.8,440.8,379.3,439.2c1.1-0.5,1.8,0,1.9,1.2
	c0.1,2,0.2,4,0.2,6.1c0,1.7-0.1,3.4,0,5.1c0.1,2.8,0.8,5.6,0.1,8.5c0.5-0.9,0.9-1.8,1-2.8c0.1-1.4-0.2-2.8-0.2-4.2
	c-0.1-2.3,0-4.5-0.1-6.8c0-1.9,0-3.7-0.1-5.6c0-0.6-0.3-1.2-0.6-1.7C380.8,438.2,380.2,438.3,379.3,439.2z"/>
<path d="M392.3,452.3c1.8-2.8,1.1-5.9,0.9-8.9c-0.3-5.5-0.7-10.9-0.9-16.4c0-1.6-0.8-3-0.6-4.6c0-0.2-0.3-0.6-0.5-0.7
	c-0.3-0.3-0.7-0.6-1.1-0.8c-6.5-3-13.1-4-20-1.4c-1.2,0.5-1.9,1.1-1.8,2.6c0.2,15.3,0.4,30.6,0.6,45.9c0,0.2,0.1,0.5,0.1,1
	c0.6-0.5,1-0.9,1.5-1.3c-1,2.1-1.8,4.3-1.1,7.1c1-0.9,1.7-1.7,2.5-2.4c0.6-0.5,1.3-0.7,1.9-1.1c-1.5,1.5-3.6,2.7-4.4,4.5
	c-0.8,1.8-0.2,4.2-0.2,6.3c0.2,10,0.7,20.1,0.7,30.1c0,14-0.3,28.1-2.4,42c-1,6.5-1.5,13.1-2.5,19.6c-2.6,16.2-8.6,31.1-18.6,44.2
	c-4.5,5.9-9.7,11.1-15.4,15.8c-1,0.9-2.1,1.6-3.6,1.3c-2-0.4-2.7-1.6-1.5-3.3c1.4-2.2,2.9-4.3,4.4-6.4c4.4-6.2,7.6-13,10-20.2
	c2.6-8,4.7-16.1,6-24.4c1.3-7.7,0.7-15.3-0.7-22.9c-1.5-8.1-4-16-7-23.6c-2.2-5.8-5.6-11-10.1-15.5c-0.3-0.3-0.4-0.6-0.6-0.9
	c0,0-0.1,0.1-0.1,0.1c0.9,0.7,2,1.2,2.8,2c4,3.9,6.9,8.5,9,13.7c2.9,7.2,5.4,14.6,6.8,22.2c1.3,6.5,2.3,13,1.7,19.6
	c-0.6,7.2-2.3,14.2-4,21.2c-3.2,12.9-8.6,24.7-17,35.1c-0.2,0.2-0.5,0.5-0.5,0.8c-0.1,0.4-0.3,1.1-0.1,1.3c0.3,0.3,1,0.6,1.4,0.5
	c0.8-0.3,1.5-0.8,2.2-1.4c0.9-0.7,1.6-1.6,2.5-2.2c6.1-4.2,10.6-10.1,14.9-15.8c6.4-8.5,10.8-18.1,13.8-28.4
	c2.7-9,3.5-18.3,4.6-27.6c0.4-3.3,0.4-6.8,1.1-10c0.8-4.2,1.5-8.5,1.6-12.8c0.3-11.1,0.7-22.3,0.2-33.4c-0.4-9.7-0.5-19.4-0.7-29.1
	c-0.2-8-0.6-16-0.7-24c0-12.2,0.1-24.5,0.3-36.7c0.1-10.6,0.4-21.2,0.5-31.8c0-1.1,0-2.2,0-3.3c0.2,0,0.4,0,0.5,0
	c-0.2,13.9-0.3,27.7-0.5,41.9c4-2,8.1-2.7,12.4-2.2c4.2,0.5,8.3,1.3,11.6,4.1c2.4-1.9,3.7-3.9,2.2-6.8c-0.1-0.1,0-0.3,0-0.5
	c0,0-0.1,0-0.1,0c0.5,0.9,1,1.7,1.3,2.6c0.4,1,0.1,1.9-0.7,2.6c-2.5,2.1-2.6,4.9-2.4,7.9c0.5,6.7,0.9,13.4,1.3,20.1
	C394.3,449.3,394.2,451.1,392.3,452.3z"/>
<path d="M397.6,296.9c-0.1,0.9-0.3,1.8-0.2,2.7c0.5,5.1,1,10.1,1.4,15.2c-2.7-17-4.2-34.1-5.1-51.4c0.2,0.3,0.5,0.6,0.6,1
	c2.6,8,5.3,15.9,7.8,23.9c1.2,3.7,2.3,7.5,3.4,11.2c1.4,4.6,2.7,9.2,4.1,13.7c1.5,4.9,3,9.9,4.6,14.8c1.6,4.8,3.1,9.7,5,14.4
	c4.4,10.4,8.8,20.8,14.4,30.6c2.1,3.6,4.2,7.1,6.4,10.9c2.6-5.7,5-11.1,7.5-16.6c-0.5-0.4-0.7-0.7-1-0.8c-3.5-1.6-6.2-4.1-8.2-7.2
	c-3-4.7-6-9.4-8.7-14.2c-7.7-14-13.3-28.8-19-43.7c-5.8-15.2-10.7-30.6-15.4-46.2c-0.3-0.9-0.6-1.8-1.1-2.6
	c-0.3,2.2-0.1,4.4-0.5,6.6c-0.1-0.4-0.2-0.9-0.2-1.3c-0.1-7.2-0.3-14.4-0.1-21.6c0.4-14.6,1.1-29.2,1.7-43.7c0-0.5,0-1.1,0-1.6
	c0.4-4.2-0.6-7.9-4.1-10.7c-0.6-0.5-1-1.2-1.5-1.8c3.8,2.6,6.5,5.7,6.3,10.8c-0.3,6.5-0.5,13-0.7,19.5c-0.4,13.1-0.8,26.2-1.1,39.3
	c0,0.8,0.2,1.7,0.4,2.5c4.1,12.4,8,24.9,12.4,37.2c4.6,12.8,9.3,25.6,14.5,38.2c4,9.8,8.8,19.2,14.5,28.2c1.5,2.4,3.3,4.8,5.1,7
	c1.6,2,3.7,3.6,6.1,4.8c1.4,0.7,1.6,1.1,1.1,2.6c-0.2,0.7-0.6,1.5-0.9,2.2c-2,4.6-4,9.2-6,13.8c-0.1,0.3-0.3,0.5-0.6,1
	c-0.4-0.5-0.8-0.8-1.1-1.2c-8.7-13.8-15.5-28.7-21.7-43.7c-1.8-4.3-2.9-8.8-4.3-13.2c-1.3-4.2-2.4-8.4-3.9-12.6
	c-2.1-5.8-3.7-11.8-5.2-17.8c-0.4-1.5-0.8-3-1.3-4.5c-2.4-7.1-4.8-14.2-7.2-21.4c-0.1-0.4-0.3-0.9-0.7-1.8c-0.5,2.8,0,5,0.2,7.2
	c0.2,2.3,0.4,4.5,0.6,6.8c0.2,2.3,0.3,4.7,0.7,7C396.6,292.5,397.1,294.7,397.6,296.9z"/>
<path d="M388.6,177.6c-0.1,0.4-0.2,0.9-0.2,1.3c0,4,0,8-0.2,12c-0.2-3.7-0.5-7.3-0.6-11c-0.1-7.1-2.3-13.3-6.8-18.8
	c-5.2-6.4-10.7-12.4-17.2-17.6c-6.6-5.2-12.9-10.9-19.3-16.4c-0.2-0.2-0.5-0.4-0.9-0.7c-0.1,0.9-0.3,1.6-0.3,2.2
	c0,6.5-1.4,12.9-2.2,19.4c-0.7,6-1.5,12-2.1,18c-1.2,11.4-2,22.8-4,34.1c-0.3,1.9-0.5,3.9-0.9,5.8c-0.3,2-0.6,4-2.3,5.5
	c0.5-2.1,1-4.2,1.5-6.4c2.5-11.8,3.3-23.9,4.7-35.8c0.6-5.4,1.1-10.9,1.8-16.3c0.9-7.2,2-14.4,2.7-21.7c0.6-5.9,0.4-11.9-1.5-17.7
	c-2.4-7-6-13.3-12.6-17.3c-2.6-1.6-5.4-2.8-8.1-4.2c-1.4-0.7-2.9-1.5-4.3-2.2c0,0,0,0,0,0c6.6,1.9,12.9,4.5,17.9,9.4
	c4.9,4.7,7.5,10.7,8.9,17.3c0.4,2,0.6,4,0.6,6.1c0,2.2,0.9,3.7,2.5,5c6.4,5.3,12.7,10.7,19.2,15.9c6.1,4.8,11.3,10.3,16.1,16.4
	c3.8,4.8,6.8,10,7.3,16.2C388.2,176.6,388.5,177.1,388.6,177.6z"/>
<path d="M428.6,459.6c0.2-0.6,0.3-1.2,0.6-1.7c3.1-5.4,6.2-10.9,9.4-16.3c1.4-2.3,1.8-4.5,1.1-6.9c-1.2-4.3-2.5-8.6-3.9-12.8
	c-4.8-13.8-9.9-27.6-14.4-41.5c-3.4-10.6-5.8-21.5-9-32.1c-3.4-11.3-7.1-22.4-10.8-33.6c-1.6-4.7-2.5-9.5-3.5-14.4
	c-0.2-1.1-0.4-2.3-0.6-3.4c0.5,1.9,1.2,3.9,1.5,5.8c1.2,6.6,3.4,12.9,5.7,19.1c4.6,12.8,8.4,25.9,11.8,39.1
	c4.4,16.9,9.9,33.5,16,49.9c2.5,6.7,4.8,13.6,7.1,20.4c0.7,2.1,0.9,4.3,1.2,6.5c0.2,1.3-0.2,2.6-1,3.8c-2.4,3.8-4.8,7.7-7.2,11.6
	C431.3,455.2,429.9,457.4,428.6,459.6z"/>
<path d="M198,383.9c-1.4,1.2-1.5,3-1.9,4.6c-0.7,2.5-1.3,5-3,7.1c-0.6,0.7-1.3,1.3-2,2.1c-0.5-0.4-0.9-0.7-1.2-1
	c-1.8-2.9-4.3-5.2-7.2-6.9c-0.4-0.2-0.8-0.5-1.2-0.8c-2.2-1.5-2.2-1.5-1.1-4c-0.8-0.6-1.7-1.3-2.5-2c-0.8-0.6-1.1-1.4-0.4-2.2
	c3.2-3.7,4.9-8.2,7.3-12.3c4.2-7.2,8.4-14.3,12.6-21.4c0.9-1.5,1.9-2.9,2.9-4.4l-0.1-0.1c-0.7,1.5-1.4,3.1-2.2,4.6
	c-6.7,11.6-13.4,23.1-20.2,34.9c1,0.7,2.1,1.5,3.3,2.3c2.1-2.9,4.3-5.4,5.8-8.5c2.4-5.3,4.9-10.5,7.3-15.8c0.2-0.4,0.3-0.7,0.5-1.1
	c0.2-0.3,0.4-0.7,0.6-1c-4.2,10-7.4,20.6-15.1,29c2.2,1.5,4.2,2.7,6,4.3c1.8,1.6,3.3,3.4,5,5.3c1.5-1.8,2.7-3.6,3.3-5.8
	c2-7.8,5.9-14.8,9.7-21.9c0.4-0.8,1-1.6,1.6-2.4c0.6-0.8,1.2-1.5,1.8-2.2C203.8,370.7,200.5,377.2,198,383.9L198,383.9z"/>
<path d="M200.4,342.6c-0.3-0.6-0.6-1.3-1-1.9c0,0,0,0,0,0c0.2,0,0.5,0,0.7,0.2c3.5,2.8,7.2,5.3,9.7,9.1c1.4,2,1.8,2.1,3.7,0.5
	c1.9-1.6,3.8-3.3,5.5-5.1c3.2-3.7,7-6.7,11.3-9.1c0.8-0.4,1.5-1,2.3-1.6c-1.3-1.7-2.7-2.2-4.5-1.9c-4.3,0.8-8.6,1.8-12.7,3.4
	c-0.6,0.2-1.3,0.5-1.9,0.7c4.5-2.8,9.6-3.9,14.8-5c-0.8-1.3-1.5-2.4-2.1-3.5c-1.7-3.2-3.4-6.3-5.1-9.5c-0.3-0.7-0.7-1.3-1-2
	c0.5,0.2,0.8,0.4,1,0.8c2,3.4,4,6.9,6.1,10.3c1,1.7,1.6,3.6,3.7,4.4c1,0.4,2.2,0.8,2.4,2.1c0.2,1.5-1.3,1.8-2.2,2.4
	c-3.8,2.2-7.1,4.9-10.1,8c-1.7,1.8-3.5,3.6-5.4,5.3c-0.7,0.7-1.3,1.4-1.1,2.4c0,0,0,0,0,0c-0.5-0.2-0.7-0.8-1.6-0.4
	c-1.9,0.9-2.2,0.7-3.5-0.9c-0.3-0.4-0.7-0.8-1-1.3c-1.7-2.7-4-4.7-6.5-6.6C201.5,342.9,200.8,342.8,200.4,342.6L200.4,342.6z"/>
<path d="M423.4,453.4c-0.3,0.8-0.6,1.6-1,2.3c-3,4.6-6,9.2-9,13.8c-6.1,9.4-10.9,19.5-15.5,29.8c-2.1,4.7-4.4,9.4-6.6,14
	c-0.2,0.5-0.6,0.9-0.9,1.4c0.1-0.5,0.1-1.1,0.3-1.6c4.2-9.1,8.4-18.2,12.7-27.2c3.9-8.1,8.7-15.7,13.7-23.2
	C419.2,459.6,421.3,456.5,423.4,453.4z"/>
<path d="M386.7,463.8c1.7-3.7,3.3-7.4,5-11.1c0.1-0.2,0.5-0.3,0.7-0.5C390.5,456.1,388.6,459.9,386.7,463.8z"/>
<path d="M411.6,485.2c0.6-1.1,1-2.2,1.7-3.3c1.5-2.3,3-4.5,4.5-6.7c-1.4,2.4-2.7,4.9-4.2,7.2C413.1,483.5,412.3,484.3,411.6,485.2z"
	/>
<path d="M406.4,493.7c0.6-1.2,1-2.4,1.7-3.5c1.1-1.7,2.3-3.4,3.5-5.1c-0.2,0.5-0.3,1-0.6,1.5C409.6,489,408,491.3,406.4,493.7z"/>
<path d="M389.5,517.2c0.5-0.3,1-0.7,1.4-1c-1.3,2-2.5,4.1-3.8,6.1c-0.1-0.1-0.3-0.2-0.4-0.2C387.5,520.4,388,518.5,389.5,517.2z"/>
<path d="M417.7,475.4c0.8-2.2,2.1-4.1,3.8-5.7C420.3,471.5,419,473.4,417.7,475.4z"/>
<path d="M379.1,468.3c2-0.8,4-1.6,6-2.4C383.1,466.7,381.1,467.5,379.1,468.3z"/>
<path d="M421.5,469.7c1.1-1.7,2.2-3.4,3.4-5C424.4,466.8,423,468.3,421.5,469.7z"/>
<path d="M394,512c1.2-1.3,2.4-2.6,3.6-3.8C396.7,509.8,395.7,511.2,394,512z"/>
<path d="M390.9,516.3c1-1.4,1.9-2.7,2.9-4.1C393.3,513.9,392.1,515.1,390.9,516.3z"/>
<path d="M401.7,502.2c0.8-1.5,1.6-3,2.4-4.6C403.3,499.2,402.5,500.7,401.7,502.2z"/>
<path d="M397.5,508.3c1-1.3,1.9-2.6,2.9-3.9C399.4,505.7,398.5,507,397.5,508.3z"/>
<path d="M426.8,448.4c-0.8,1.4-1.6,2.7-2.4,4.1C424.6,450.8,425.6,449.6,426.8,448.4z"/>
<path d="M404.6,497.2c0.1-1.5,0.8-2.7,1.9-3.6C405.9,494.8,405.2,496,404.6,497.2z"/>
<path d="M400.3,504.5c0.5-0.8,1-1.6,1.5-2.5C401.3,502.9,400.8,503.7,400.3,504.5z"/>
<path d="M428.1,445.9c-0.5,0.9-1,1.8-1.5,2.7C427.2,447.6,427.7,446.7,428.1,445.9z"/>
<path d="M376.8,469.5c0.5-1.1,1.4-1.2,2.4-1.2C378.4,468.6,377.6,469,376.8,469.5z"/>
<path class="st0" d="M315.7,89.8c1.4,0.7,2.9,1.5,4.3,2.2c2.7,1.4,5.5,2.6,8.1,4.2c6.6,4,10.2,10.2,12.6,17.3
	c2,5.7,2.1,11.7,1.5,17.7c-0.7,7.2-1.8,14.4-2.7,21.7c-0.7,5.4-1.2,10.9-1.8,16.3c-1.3,12-2.2,24-4.7,35.8c-0.4,2.1-1,4.3-1.5,6.4
	c0,0,0.1-0.1,0.1-0.1c-0.3,0.3-0.7,0.5-1,0.9c-3.3,3.9-7.5,5.3-12.5,4c-1.6-0.4-3.2-0.8-4.8-1.3c-3-0.8-6-1.1-9.1-0.4
	c-7.7,1.7-14,5.6-19.4,11.2c-0.7,0.7-1.4,1.4-2.2,2.3c-2.4-2.3-5-3.8-8.1-4.4c-1.2-0.3-2.4-0.6-3.7-0.8
	c-10.4-2.2-18.8-7.6-25.9-15.6c-4.4-4.9-6.5-10.2-6-16.7c0.1-1.1,0-2.2,0.1-3.3c1.1-8.5,2-17.1,3.5-25.6c1.5-8.9,3.7-17.6,5.5-26.5
	c0.7-3.3,0.9-6.6,1.4-10c-1,3.7-1.5,7.5-2.3,11.3c-1.3,6.5-2.8,13-4.3,19.5c-1.9,8.2-2.8,16.5-3.9,24.8c-0.5,4.3-0.7,8.6-0.8,12.9
	c-0.1,4.5,1.4,8.5,4.5,11.8c1.1,1.2,2.1,2.4,3.1,3.6c6.2,7.1,13.8,11.7,22.9,14c2.8,0.7,5.6,1.4,8.4,2.2c2,0.6,3.6,1.8,5.2,3.5
	c-1.2,0.7-2.1,1.2-3.1,1.7c-3.9,1.8-7.8,3.4-11.6,5.2c-4.9,2.3-10.2,3.1-15.5,3.6c-1.1,0.1-2,0-2.7-1c-0.1-0.2-0.1-0.4-0.2-0.6
	c-0.6-1.1-1.1-2.3-1.7-3.4c0,0,0.1,0.1,0.1,0.1c-0.2-0.7-0.3-1.4-0.6-2c-5.3-12.9-10.6-25.8-14.1-39.3c-1.7-6.6-2.7-13.2-2.7-20
	c0-6.6,0.5-13.2,0.7-19.7c0.1-2.5,0-5,0-7.5c-0.3,1.5-0.3,3-0.3,4.5c-0.3,8.5-0.7,17.1-0.8,25.6c-0.1,5.2,0.6,10.3,2,15.3
	c1,3.6,0.9,7.2-0.4,10.6c-1.8,4.5-3.4,9.1-5.6,13.5c-2.9,5.8-4.2,11.8-4.2,18.1c0,2.2,0,4.4-0.1,6.6c-0.1,4.1-0.6,8.1-1.3,12
	c-1.5-0.3-2.9-0.6-4.2-0.9l0.1,0.1c-2.6-1.5-5.6-1.8-8.5-2.4c-5.5-1-10.8-0.5-15.9,1.6c-0.3,0.1-0.7,0.2-1.4,0.4
	c-0.2-1.6-0.5-3-0.4-4.5c0.2-3.4,0.6-6.9,1-10.3c0.9-7.7,2.8-15.2,4.7-22.8c2.5-10.2,5.2-20.3,7.6-30.6c2.7-11.1,5.1-22.3,7.7-33.4
	c0.3-1.3,0.7-2.5,1.1-4c0.8,0.7,1.5,1.2,2.4,1.9c-1-2.3-3.8-3.5-2.8-6.5c2.1,0.4,3.4-1,4.6-2.4c5-5.5,11.5-8.9,18-12.3
	c3.1-1.6,6.3-3.2,9.5-4.7c1.3-0.6,2.6-1,4.1-1.6c1.6,2.4,3.3,4.6,4.8,7c4,6.3,7.2,13,9.3,20.2c1,3.5,2.2,7,3.3,10.6
	c3.6,12.4,12.2,19.7,23.8,24.1c4.8,1.8,9.9,2.4,14.9,3.2c5.6,0.9,11,2.5,15.7,5.9c3.6,2.6,6.5,5.7,8.9,9.3c0.8,1.1,1.1,2.5,1.7,3.9
	c0.5-1.7-0.1-3-1-4.3c-4.7-7.1-10.9-12.3-19.3-14.4c-4.1-1-8.3-1.7-12.5-2.4c-7.5-1.3-14.2-4.1-20.2-8.9c-5.3-4.2-8.9-9.4-10.9-15.8
	c-1.3-4-2.6-8.1-3.8-12.1c-2.4-8.2-6.3-15.7-11.1-22.7c-1.9-2.7-3.7-5.4-5.7-8.4c0.7-1,1.3-2.1,2.2-2.9c4.1-4.1,7-9,9.2-14.3
	c1-2.3,2.2-4.4,4.4-6c0.3,0.5,0.7,1,1,1.5l-0.1-0.1c0.7,3.5,2.4,6.4,5.2,8.7c2.6,2.2,5.2,4.3,7.8,6.5c1.2,1,2.6,1.7,4.2,1.9
	c10,1.2,19.6,3.9,29.1,7.1c6.3,2.2,12.3,5.1,17,10.1c0.5,0.5,1,0.9,1.8,1.2c-0.3-0.4-0.5-0.8-0.8-1.1c-3.4-3.9-7.5-6.7-12.3-8.8
	c-6.5-2.8-13.3-4.5-20.1-6.6c-0.9-0.3-1.7-0.5-2.8-0.9c1.1-2.1,2.6-3.5,4.7-4.2c0.7-0.2,1.6-0.1,2.2,0.2c6.6,2.6,12.8-0.3,14.8-7.1
	c1-3.4,1.4-6.9,2.2-10.5C314.9,89.9,315.3,89.9,315.7,89.8z M337.3,120.8c0,2.3,0,4.6,0,6.9c-0.1,6.9-3.3,11.6-9.9,13.9
	c-3.6,1.2-7.3,2.3-11,3.4c-5,1.4-10,2.7-14.9,4.2c-6.4,2-12.5,4.5-18,8.5c-2.3,1.7-4.3,3.7-5.5,6.3c-1.6,3.3-0.2,6,3.4,6.2
	c2.8,0.2,5.6-0.2,8.4-0.3c-1.4-0.4-2.8-0.4-4.2-0.4c-1.4,0-2.8,0.1-4.2-0.1c-2.8-0.3-3.9-2.1-2.8-4.6c0.4-0.9,1-1.8,1.6-2.6
	c2.4-3,5.5-5.2,8.8-6.9c5.4-2.8,11-4.9,16.8-6.6c5.8-1.6,11.6-3.2,17.4-4.8c3.1-0.9,6.1-2,8.8-3.8c2.7-1.7,4.4-4.1,5.2-7.3
	C338.2,128.9,338.3,124.8,337.3,120.8z M208.5,191c-0.1,5.9-0.5,12.3,1,18.5C209.1,203.2,208.8,196.9,208.5,191z M220.9,188.2
	c-0.1,0-0.1-0.1-0.2-0.1c0,0.9,0,1.7,0,2.6c0.1,0,0.1,0,0.2,0C220.9,189.9,220.9,189.1,220.9,188.2z"/>
<path class="st0" d="M251.1,302.4c0.3,0.4,0.6,0.9,1,1.1c3,1.6,6,3.1,9,4.6c1.8,0.9,3.7,1.7,5.5,2.7c0.9,0.5,1.7,1.4,2.3,2.3
	c2.1,3.3,1.6,5.4-1.7,7.5c-3.1,2-6.5,3.1-10,4.1c-3.2,0.9-6.4,1.5-9.6,2.3c-1.1,0.3-2.1,0.5-3.1,1c-0.9,0.4-1.8,1-2.4,1.8
	c-0.4,0.5-0.8,1.5-0.6,2c0.4,0.9,1.3,0.5,2.1,0.3c0.3-0.1,0.5-0.3,1.2-0.7c-1.2,0.1-1.9,0.2-2.6,0.3c-0.1-0.1-0.2-0.3-0.3-0.4
	c0.5-0.6,0.9-1.3,1.6-1.8c1-0.6,2.1-1.2,3.2-1.5c3-0.7,6-1.3,8.9-2c0.2,0,0.4,0.1,0.9,0.1c-3.7,4.2-7.2,8.3-12.9,9.5
	c-0.5,0.1-0.9,0.2-1.4,0.2c-1.1,0.1-1.9-0.3-2-1.4c-0.3-2.6-0.6-5.1-0.7-7.7c0-0.5,0.5-1.1,0.9-1.6c1.8-2.4,3.7-4.7,5.4-7.1
	c2.2-2.9,3.9-6.1,4.7-9.7c0.4-1.7,0.7-3.5-0.5-5.4c-0.2,0.3-0.3,0.5-0.3,0.6c0.7,3.5-0.2,6.8-2,9.7c-1.8,3.1-3.9,6-6,9
	c-1.5,2.1-3.2,4.1-5.1,5.9c0.5-1.2,1.1-2.3,1.6-3.5c0.3-0.9,0.8-1.9,0.7-2.9c-0.2-2.3,0.5-4.2,1.9-5.9c1.3-1.5,2.3-3.2,2-5.6
	c1.4,1.3,1.5,2.6,0.9,3.8c-0.9,1.7-2,3.3-3.1,5c-0.5,0.8-1.4,1.5-1,3.1c1.6-2.3,3.1-4.3,4.4-6.4c1.8-3.1,1.1-5.7-1.8-7.7
	c-3-2-6.3-2.2-9.7-1.6c-3.1,0.6-5.8,2.2-8.3,4.2c-6.8,5.5-12.9,11.7-18.2,18.6c-3.5,4.5-7,9-10.6,13.5c-3.9,4.9-8.7,8.5-14.7,10.6
	c-2.5,0.9-4.9,0.9-7.3-0.3c-2-1-2.9-2.5-2.9-4.7c0-2.9,0-5.8-0.2-8.7c-0.1-2-0.5-4-0.9-6c-0.7-3.3-1.4-6.6-2.1-9.9
	c-0.2-1.1-0.1-2.2,0.6-3.1c4-1.3,7.3,1,10.7,2.3c0.7,0.3,1.1,1.1,1.7,1.6c0.9,0.9,1.7,1.8,3.2,1.8c-0.9-0.8-1.8-1.5-2.6-2.3
	c-0.8-0.8-1.6-1.7-2.2-2.7c-0.7-1-1.3-2.2-1.9-3.3c0.3-0.6,0.5-1.2,0.7-1.8c2.7-5.4,5.2-10.9,8.1-16.2c3.9-6.9,7.1-14.1,9.5-21.7
	c1.2-3.9,3.5-7,7-9.1c5.1-3.1,10.4-3.7,15.8-0.6c0.3,0.1,0.5,0.2,0.9,0.4c0.1-1.2-0.7-1.5-1.5-1.9c-4.5-2.3-9.1-2.1-13.6,0
	c-4.2,2-7.3,5-9.1,9.4c-0.6,1.6-1.2,3.2-1.8,4.9c-1.7,5.6-4.2,10.8-7,15.9c-2.1,3.8-3.8,7.7-5.6,11.6c-0.2,0.3-0.3,0.7-0.8,1.6
	c-0.1-0.9-0.2-1.3-0.2-1.7c0.5-5.5,1.1-11.1,1.6-16.6c0.1-1,0.6-1.6,1.3-2.1c1.1-0.9,2.2-1.7,3.3-2.7c0.7-0.6,1.1-1.4,1.5-2.3
	c-3.6,3-7.1,6.2-10.9,9.1c-3.7,2.8-6.7,6.6-10.7,8.3c-1.6-1.6-2.9-3-4.3-4.3c1.1-0.5,2.6-1.1,4-1.9c3.9-2.1,7.4-4.8,10.5-7.9
	c4-3.9,8.1-7.9,12.1-11.8c3.4-3.3,6.9-6.4,10.8-9c-6.6,3-11.2,8.7-16.9,13.2c0.6-7,0.3-13.9,2.3-20.6c-1,1-1,1-2,4.5
	c-1.5-0.2-3-0.4-4.5-0.6c-1.5-0.1-2.9-0.2-4.6-0.3c1.1-4-0.3-7.4-2-10.6c0.2-0.1,0.4-0.3,0.5-0.2c4.9,1.8,9.9,1.5,14.8,0.1
	c1.9-0.5,3.7-1.1,5.5-1.9c5.9-2.6,12-2.6,18.2-1.4c2,0.4,4,0.8,6,1.2c0,0-0.1-0.1-0.1-0.1c1,0.9,2.7,0.8,3.7,2.5
	c-1.6-0.6-2.9-1.1-4.1-1.5c-5.5-1.4-10.7-0.7-15.5,2.6c-3,2.1-6.3,3.5-9.8,4.3c-1,0.2-2.1,0.5-3.1,0.7c1.1,0.2,2.1,0.2,3.1,0
	c3.8-0.6,7.4-2,10.6-4.2c2-1.3,4.1-2.2,6.5-2.7c4.4-0.9,8.5,0.3,12.5,2.1c1.8,0.8,2.5,1.9,2.5,3.8c0,3.8,0.2,7.5,0.3,11.3
	c0,0.2-0.2,0.3-0.6,1c-0.2-1.1-0.3-1.8-0.4-2.4c-1-5.3-5.6-9.6-11-10c-5.7-0.4-10.3,1.9-14.6,5.3c-0.1,0.1-0.1,0.3-0.1,0.4
	c-1,0-1.3,0.7-1.5,1.6c0.5-0.5,1-1.1,1.5-1.6c0.6-0.3,1.2-0.7,1.8-1c2.6-1.2,5.2-2.7,7.9-3.5c5.5-1.6,10.4,0.4,13.4,5.2
	c0.7,1.2,1.4,2.5,1.7,3.8c0.5,1.9,1.4,3.4,2.9,4.7c0.5,0.4,1,1,1.5,1.5c1.9,2.2,4.3,3.6,7,4.5c5.5,2,11.1,3.4,16.9,3.9
	c4.7,0.4,9.4,0.9,14-0.7c0.1,0,0.3,0.1,0.5,0.3c-0.1,0.6-0.2,1.3-0.4,2c-1.1,3.9-2.3,7.8-3.4,11.7c-0.2,0.8-0.6,1.7-1.1,2.3
	c-0.4,0.5-1.1,1.1-1.7,1.1c-3.4,0.1-6.7-0.8-9.5-2.9c-1.8-1.3-3.4-3-5.3-4.3c-4.7-3.3-9.5-6.4-15-8.1c-2.1-0.7-4.3-0.7-6-2.3
	c-0.2-0.2-0.6-0.3-0.9-0.3c-4-1.1-7.9-1-11.7,0.9c-3.7,1.8-4.6,3.4-4,8.1c0.1-0.9,0.2-1.4,0.2-1.8c-0.2-2.5,1.2-4,3.2-5.1
	c2.5-1.4,5.2-2.1,8.1-1.9c2.5,0.1,4.1,0.7,5.5,1.7c-0.1,0-0.1,0.1-0.2,0.1c-0.4,0.1-0.8,0.1-1.2,0.2c-9,1.9-16.1,6.5-20.5,14.7
	c-1.8,3.3-3.1,6.9-4.4,10.4c-2.5,6.5-5.4,12.8-10.6,17.9c-2.8,2.8-6.2,3.4-9.9,3c-1-0.1-1.9-0.9-2.9-1.5c-0.4-0.3-0.8-0.7-1.1-1
	c0.8,2,2.4,3.2,4.4,3.3c4.3,0.3,8.3-0.5,11.3-4c3.1-3.6,5.6-7.5,7.4-11.9c1.7-4.2,3.4-8.4,5-12.7c2.8-7,7.7-11.9,14.4-15.1
	c4.8-2.3,9.9-3.4,15-1.3c6.9,2.8,13.1,6.7,18.5,11.9c1.2,1.2,2.4,2.5,3.6,3.7C250.5,302,250.8,302.2,251.1,302.4z"/>
<path d="M195.6,264.5c0-0.1,0-0.4,0.1-0.4c4.3-3.4,8.9-5.8,14.6-5.3c5.4,0.4,10,4.7,11,10c0.1,0.6,0.2,1.3,0.4,2.4
	c0.4-0.7,0.6-0.8,0.6-1c-0.1-3.8-0.2-7.5-0.3-11.3c0-1.9-0.7-3-2.5-3.8c-4-1.8-8.1-2.9-12.5-2.1c-2.4,0.5-4.5,1.4-6.5,2.7
	c-3.2,2.2-6.8,3.6-10.6,4.2c-1,0.2-2,0.2-3.1,0c1-0.2,2.1-0.4,3.1-0.7c3.5-0.8,6.8-2.2,9.8-4.3c4.7-3.3,9.9-4,15.5-2.6
	c1.3,0.3,2.5,0.9,4.1,1.5c-1-1.7-2.6-1.7-3.7-2.5c1.3,0.3,2.7,0.6,4.2,0.9c0.8-3.9,1.2-7.9,1.3-12c0.1-2.2,0.1-4.4,0.1-6.6
	c0-6.4,1.4-12.4,4.2-18.1c2.2-4.3,3.8-8.9,5.6-13.5c1.3-3.5,1.5-7,0.4-10.6c-1.4-5-2.1-10.2-2-15.3c0.1-8.5,0.5-17.1,0.8-25.6
	c0-1.5,0-3,0.3-4.5c0,2.5,0.1,5,0,7.5c-0.2,6.6-0.7,13.2-0.7,19.7c0,6.7,1,13.4,2.7,20c3.5,13.5,8.8,26.4,14.1,39.3
	c0.3,0.6,0.4,1.3,0.6,2c-1.1-2.2-2.3-4.4-3.2-6.7c-2.4-5.9-4.7-11.8-6.9-17.7c-1.4-3.7-2.6-7.5-3.9-11.5c-0.2,0.5-0.4,1-0.5,1.4
	c-0.4,1.2-0.6,2.4-1.1,3.6c-2,4.5-3.9,9.1-6.1,13.5c-2.2,4.4-3.2,9-3.6,13.8c-0.2,2.5-0.1,5,0,7.5c0.2,4.7-0.4,9.4-1.2,14
	c-0.1,0.6-0.1,1.2-0.2,2c2.4,0.8,2.7,2.8,2.8,4.9c0.1,2.9,0.3,5.8,0.1,8.7c-0.3,4.2,1.9,6.8,5,8.9c3.1,2.1,6.7,2.8,10.3,3.8
	c4.3-5.8,8.6-11.5,13-17.4c-2.1,4.8-5.2,8.7-8.4,12.9c0.7,0.8,1.3,1.5,2.3,2.6c2.7-3.7,4.2-7.8,7-11c-0.3,0.7-0.6,1.4-1,2
	c-1.2,2.3-2.5,4.5-3.7,6.8c-0.2,0.3-0.4,0.7-0.6,1c-1.4,2-2.2,2.1-3.7,0.2c-0.2-0.2-0.4-0.5-0.6-0.9c-1.6,0.9-2.4,2.3-3.5,4
	c8.1,1.9,16,3.1,24.3,1.3c0,1.2,0,2.2,0,3.2c1.9-1.6,2.6-3.8,3.5-5.8c0.9-2.2,1.6-4.4,2.8-6.5c-0.1,0.5-0.2,1.1-0.4,1.6
	c-1.4,3.5-2.7,7-4.2,10.5c-0.4,1-1.4,1.8-2,2.8c-0.5,0.9-1,1.9-1.3,2.9c-0.7,2-1.2,4.1-1.8,6.1c-0.2,0.7-0.5,1.5-0.8,2.2
	c-0.7,1.5-1.9,2.3-3.6,2c-2.1-0.4-4.3-0.9-6.5-1.4c0.3,0.7,0.6,1.4,0.9,2.1c-1.2-1.2-2.3-2.6-3.6-3.7c-5.4-5.1-11.7-9-18.5-11.9
	c-5.2-2.1-10.2-1-15,1.3c-6.7,3.2-11.6,8.1-14.4,15.1c-1.7,4.2-3.3,8.5-5,12.7c-1.8,4.4-4.3,8.4-7.4,11.9c-3,3.5-7,4.3-11.3,4
	c-2-0.2-3.6-1.3-4.4-3.3c0.4,0.3,0.7,0.8,1.1,1c0.9,0.6,1.9,1.3,2.9,1.5c3.7,0.5,7.1-0.2,9.9-3c5.1-5,8-11.3,10.6-17.9
	c1.4-3.5,2.6-7.1,4.4-10.4c4.4-8.2,11.5-12.8,20.5-14.7c0.4-0.1,0.8-0.1,1.2-0.2c0.1,0,0.1-0.1,0.2-0.1c-1.4-1-2.9-1.6-5.5-1.7
	c-2.9-0.2-5.6,0.6-8.1,1.9c-2,1.1-3.3,2.6-3.2,5.1c0,0.5-0.1,0.9-0.2,1.8c-0.6-4.7,0.3-6.3,4-8.1c3.8-1.8,7.7-1.9,11.7-0.9
	c0.3,0.1,0.7,0.1,0.9,0.3c1.7,1.6,4,1.6,6,2.3c5.5,1.7,10.3,4.8,15,8.1c1.9,1.3,3.4,3,5.3,4.3c2.8,2.1,6,3,9.5,2.9
	c0.6,0,1.3-0.6,1.7-1.1c0.5-0.7,0.8-1.5,1.1-2.3c1.2-3.9,2.3-7.8,3.4-11.7c0.2-0.7,0.3-1.3,0.4-2c-0.3-0.1-0.4-0.3-0.5-0.3
	c-4.6,1.6-9.3,1.1-14,0.7c-5.8-0.5-11.4-2-16.9-3.9c-2.7-1-5.1-2.3-7-4.5c-0.5-0.5-1-1-1.5-1.5c-1.5-1.2-2.4-2.8-2.9-4.7
	c-0.3-1.3-1-2.6-1.7-3.8c-3-4.8-7.9-6.8-13.4-5.2c-2.7,0.8-5.3,2.3-7.9,3.5C196.8,263.7,196.2,264.1,195.6,264.5
	C195.6,264.4,195.6,264.5,195.6,264.5z"/>
<path d="M249.3,238.3c0.7,1,1.6,1.1,2.7,1c5.3-0.5,10.6-1.3,15.5-3.6c3.8-1.8,7.7-3.5,11.6-5.2c1-0.4,1.9-1,3.1-1.7
	c-1.6-1.7-3.2-2.9-5.2-3.5c-2.8-0.8-5.6-1.5-8.4-2.2c-9.1-2.3-16.8-6.9-22.9-14c-1-1.2-2-2.4-3.1-3.6c-3.1-3.4-4.6-7.3-4.5-11.8
	c0.1-4.3,0.3-8.6,0.8-12.9c1-8.3,2-16.7,3.9-24.8c1.5-6.5,2.9-13,4.3-19.5c0.8-3.7,1.3-7.5,2.3-11.3c-0.4,3.3-0.7,6.7-1.4,10
	c-1.8,8.8-4,17.6-5.5,26.5c-1.5,8.5-2.4,17.1-3.5,25.6c-0.1,1.1,0,2.2-0.1,3.3c-0.4,6.4,1.6,11.8,6,16.7
	c7.1,7.9,15.5,13.4,25.9,15.6c1.2,0.3,2.4,0.6,3.7,0.8c3.1,0.6,5.7,2,8.1,4.4c0.8-0.9,1.5-1.6,2.2-2.3c5.4-5.6,11.7-9.6,19.4-11.2
	c3.1-0.7,6.1-0.4,9.1,0.4c1.6,0.4,3.2,0.8,4.8,1.3c5,1.3,9.1-0.1,12.5-4c0.3-0.3,0.7-0.6,1-0.9c-0.6,0.9-1.1,2.1-1.9,2.8
	c-3.2,2.9-7,4-11.3,2.9c-1.3-0.3-2.6-0.5-3.9-1c-5.1-1.8-10-1.4-14.9,0.6c-5.6,2.3-10.5,5.5-14.5,10.1c-1.8,2-3.8,3.7-6.3,4.8
	c-4.1,1.8-8.1,3.8-12.2,5.5c-5.8,2.5-11.9,3.3-18.1,3c-2.5-0.1-5-0.1-7.5-0.2c-0.4,0-0.9,0.3-1.3,0.4c0,0,0,0,0,0
	c0.2-1.3,1.2-0.9,2-1c2,0,4.1,0,6.1,0C248.6,239.4,249.2,239.3,249.3,238.3z"/>
<path d="M334.5,273.4c0.7,0.4,1.5,0.8,2.1,1.3c6.1,4.9,9.8,11.3,11.9,18.7c1.5,5.4,2.3,10.9,2.3,16.5c0,6.2-0.4,12.4-0.5,18.6
	c0,2.3,0.1,4.7,0.5,7c0.6,3.2,2.6,5.5,5.5,7c2.4,1.2,4.9,2,7.6,2.1c1.7,0,3.4,0.2,5.2,0.3c5,0.5,8.3,6.6,7.1,9.9
	c-0.1,0.3-0.3,0.5-0.7,0.7c0-0.6,0-1.2,0-1.7c-0.2-4.8-3.3-7.9-8.1-8.1c-1.9-0.1-3.8-0.1-5.6-0.3c-2.5-0.3-4.8-1.3-7-2.6
	c-3-1.8-4.7-4.6-5.3-8c-0.4-2.5-0.5-5-0.3-7.5c0.5-7.5,1-15,0.2-22.6c-0.5-5.5-1.6-10.8-3.7-16c-2.2-5.5-5.6-10.1-10.1-14
	C335.3,274.4,334.9,273.9,334.5,273.4L334.5,273.4z"/>
<path d="M394.5,305.1c-0.2-0.3-0.6-0.7-0.7-1.1c-4.9-20.2-10.7-40.1-14.2-60.6c-3.2-18.8-6.5-37.5-9.8-56.3
	c-1.2-6.8-2.7-13.5-4.1-20.3c-0.1-0.4-0.1-0.8,0.2-1.2c0.6,2.8,1.4,5.6,1.9,8.5c3.1,16.8,6.1,33.6,9.1,50.4
	c3.8,21.5,7.9,43,13.7,64.1C392,294.2,393.1,299.7,394.5,305.1C394.4,305.2,394.5,305.1,394.5,305.1z"/>
<path d="M349.4,256.4c-0.7-0.9-1.5-1.8-2.2-2.7c-1.6-2-3.2-4-5.4-5.5c-2.5-1.8-5.4-2.4-8.3-3c-1.2-0.3-2.5-0.4-3.7-0.7
	c-3-0.8-4-2.3-3.7-5.3c0.1-1.1,0.3-2.2,0.5-3.3c0.9-5.5,1.8-11,2.7-16.5c0.2-1.1,0.4-2.1,0.9-3.1c-0.2,1.9-0.4,3.9-0.7,5.8
	c-0.8,5.2-1.5,10.4-2.4,15.6c-0.7,4.3-0.1,5.3,4.1,6.3c1.8,0.4,3.5,0.7,5.3,1.1c3.9,0.8,6.9,2.9,9.4,5.9c1.1,1.3,2.1,2.6,3.4,3.9
	c-0.2-9.4-0.7-18.8-2.4-28c-1.7-9.2-3.6-18.4-7.6-27c1.7,2.2,2.7,4.7,3.6,7.3c3,9.3,5.1,18.9,6.1,28.7c0.6,6.3,0.7,12.7,1.1,19
	c0,0.4-0.1,0.9-0.1,1.3C349.8,256.2,349.6,256.3,349.4,256.4z"/>
<path d="M270.9,268.8c1.9-0.5,3.8-1.1,5.8-1.5c3.3-0.6,6.3-1.7,8.8-4.1c2.5-2.3,5.1-4.6,7.5-7.2c-3.7,1.4-7.5,2.8-11.2,4.2
	c-0.1-0.1-0.1-0.3-0.2-0.4c0.7-0.3,1.4-0.7,2.2-1c7.7-2.8,15-6.3,21.8-10.9c0.5-0.4,1.1-0.7,1.6-1c1.9-0.9,3.5-2.1,4.8-3.7
	c1.4-1.8,3.3-3.2,5.3-4.2c2.4-1.2,4.9-2.3,7.5-3.2c-0.8,1.2-2.1,1.7-3.3,2.2c-4.2,1.5-7.8,3.6-10.4,7.3c-0.4,0.5-0.9,0.9-1.4,1.2
	c-4.2,2.5-8.4,4.9-12.5,7.5c-1.4,0.9-2.6,2-3.8,3.1c-2.6,2.3-5.2,4.7-7.8,7.1c-1.6,1.4-3.4,2.5-5.5,3c-2.9,0.7-5.9,1.4-8.8,2.1
	C271.1,269.2,271,269,270.9,268.8z"/>
<path d="M349.8,159.8c1,5.1,1.9,10.3,2.9,15.4c1.8,9.6,4,19.2,5.5,28.8c1.4,8.7,2.1,17.4,3.1,26.1c0.2,1.7,0.3,3.4,0.2,5.1
	c-0.5-3.7-1.1-7.3-1.4-11c-1.7-16.3-4.2-32.5-7.9-48.4c-1.1-4.7-1.7-9.6-2.5-14.4c-0.1-0.6,0-1.2,0-1.8
	C349.7,159.8,349.7,159.8,349.8,159.8z"/>
<path d="M310.8,274.8c0.9,0.7,0.4,1.3,0,1.9c-0.8,1.2-2.6,1.5-2.9,3.1c0,0.1-0.4,0.1-0.6,0.2c-7.2,2.7-14.3,5.4-21.5,8.2
	c-3.1,1.2-6.1,2.3-9.5,2.7c-1.2,0.1-2.3,0.8-3.7,1.4c0.1-0.4,0.2-0.7,0.4-1.2c-1.6-0.2-3.2-0.4-4.8-0.6c-1.6-0.3-3.1-0.6-4.6-1
	c4,0.2,7.9,0.5,11.9,0.5c3.4,0,6.6-0.8,9.8-2.2c5.9-2.6,11.9-4.9,17.8-7.3C306,279.1,308.7,277.5,310.8,274.8z"/>
<path d="M264.2,257c1.2-0.5,2.3-0.9,3.5-1.4c10.8-4,20.5-9.8,29.6-16.6c3.8-2.9,7.7-5.7,11.6-8.4c1.5-1.1,3.3-1.8,5.1-2.3
	c-0.6,0.4-1.2,0.7-1.8,1.1c-5.6,4-11.3,7.9-16.9,12c-9.2,6.7-19,12.1-29.9,15.6c-0.4,0.1-0.7,0.2-1.1,0.3
	C264.3,257.3,264.3,257.1,264.2,257z"/>
<path d="M321.4,275.8c6.4,9.1,12.5,35.5,9.9,42.8C331.2,303.4,326.9,289.5,321.4,275.8z"/>
<path d="M239.7,240.3c-3.5,1.2-3.9,2.2-1.5,4.8c0.9,1,2,1.8,3,2.7c2.5,2.1,5,4.2,7.5,6.4c1.4,1.3,2.5,2.8,2.9,4.7
	c0.2,1.1,0.8,1.7,1.9,1.6c6-0.5,10,2.9,13.9,6.7c0.7,0.7,1.4,1.3,2.1,2c-0.1,0.1-0.2,0.3-0.4,0.4c-0.6-0.5-1.2-1-1.9-1.5
	c-2.1-1.8-4.1-3.6-6.3-5.2c-2-1.5-4.5-1.8-6.9-1.7c-2.4,0.1-2.5,0-3.2-2.2c-0.5-1.6-1.3-3.1-2.5-4.2c-2.6-2.3-5.2-4.5-7.8-6.8
	c-1.3-1.1-2.5-2.4-3.6-3.7c-0.7-0.8-1.3-2-0.4-3C237.3,240.5,238.2,239.6,239.7,240.3C239.7,240.3,239.7,240.3,239.7,240.3z"/>
<path d="M385,175.3c-2.6-10-9.4-15.9-18.6-19.3c2.7-0.2,7.9,2.7,12.1,6.7C382.2,166.1,384.4,170.3,385,175.3z"/>
<path d="M302.7,307c-1.2-1.7-1.4-3.4-0.6-5.2c0.8-1.6,1.7-3.2,2.5-4.7c2.3-4.1,4.9-8.1,5.6-12.9c0.1,2.4-0.4,4.7-1.5,6.8
	c-1.3,2.6-2.8,5.2-4.2,7.8C302.3,302.7,302.3,302.7,302.7,307z"/>
<path d="M344,307.3c-0.4,6.2-5.6,13.5-13.5,15.7C337.4,319.8,342.1,314.8,344,307.3z"/>
<path d="M346.5,261.1c-0.6-1.8-1.2-3.6-1.9-5.5c-0.2-0.6-0.5-1.3-0.5-2C345.2,256,346.8,258.2,346.5,261.1
	C346.5,261.1,346.5,261.1,346.5,261.1z"/>
<path d="M279.5,261.1c-1.1,0.4-2.1,0.7-3.2,1.1c0-0.1-0.1-0.3-0.1-0.4c1-0.4,2-0.7,3.1-1.1C279.4,260.8,279.4,260.9,279.5,261.1z"/>
<path d="M394.4,305.2c0.2,1.1,0.4,2.1,0.6,3.2c-0.1,0-0.3,0-0.4,0C394.6,307.3,394.5,306.2,394.4,305.2
	C394.5,305.1,394.4,305.2,394.4,305.2z"/>
<path d="M247.4,234.3c0.6,1.1,1.1,2.3,1.7,3.4C247.9,236.8,247.5,235.6,247.4,234.3z"/>
<path d="M334.5,273.3c-0.5-0.2-1.1-0.5-1.6-0.7c0.1-0.1,0.2-0.3,0.3-0.4C333.6,272.6,334,273,334.5,273.3
	C334.5,273.4,334.5,273.3,334.5,273.3z"/>
<path d="M297.2,334.6c0.7,0.2,1.4,0.3,2,0.5c-0.1,0.2-0.1,0.3-0.2,0.5C298.5,335.3,297.9,334.9,297.2,334.6
	C297.3,334.6,297.2,334.6,297.2,334.6z"/>
<path class="st0" d="M258.1,349c0.5-0.4,0.9-1.1,1.5-1.3c2.3-0.8,2.5-1.1,1.6-3.3c-0.1-0.2-0.2-0.4-0.3-0.7c1-2.4,2.1-4.8,3.2-7.3
	c3.2,1.1,6.1,0.5,9-0.1c3-0.6,6-1,9-1.6c1.8-0.3,3.1,0,3.8,1.8c0.1,0.2,0.3,0.3,0.5,0.4c0,0-0.1-0.1-0.1-0.1
	c0.1,0.4,0.1,0.8,0.3,1.1c2.8,5.4,5.7,10.8,8.6,16.2c5.8,10.8,11.7,21.6,17.6,32.4c0.8,1.4,1.2,2.9,0.9,4.5c0,0.1,0.1,0.3,0.1,0.4
	c0.2-0.3,0.4-0.5,0.8-0.9c0.4,0.7,0.7,1.2,1,1.8c4.5,8.7,9,17.4,13.6,26c7.2,13.6,13.5,27.5,18.6,42.1c0.4,1.1,0.5,2.1,0.1,3.2
	l0.1-0.1c-0.4,0.6-1,1.2-1.3,1.9c-6.7,12.5-12,25.5-16.6,38.9c-2.4,7.2-5,14.4-6.3,21.9c-1,5.5-1.9,11.1-2.4,16.7
	c-0.2,2.8,0.2,5.8,1,8.6c1.7,6.1,1.6,12.1,0.5,18.2c-3.5,18.5-7.2,36.9-11.7,55.2c-2,8.1-5.3,15.7-8.3,23.5
	c-4.4,11.1-8.6,22.4-12.8,33.6c-0.1,0.3-0.2,0.6-0.5,1.1c-5.4-3-11.3-1.6-17.3-2.1c0.2-1.8,0.3-3.6,0.6-5.3c0.2-2,0.4-4.1,0.8-6.1
	c0.7-3.2,0.7-6.4,0.9-9.6c0.3-3.3,0.6-6.6,0.8-9.8c0.7-11.7,2.1-23.4,4-35c1.6-10.1,3.3-20.1,5-30.1c1-5.7,1.8-11.4,2.1-17.2
	c0.3-4.5,1.6-8.9,2.3-13.4c1.4-9.5,2.5-18.9,1.9-28.6c-0.5-6.7-0.5-13.5-0.6-20.2c-0.1-5.4,1.2-10.7,2.4-16
	c5.4-23,10.8-46.1,16.1-69.1c1.8-8,3.2-16.1,4.8-24.2c0.1-0.6,0.1-1.2-0.1-1.9c-1,4.5-1.9,9.1-2.9,13.6c-5,22.1-9.9,44.2-14.9,66.3
	c-1.7,7.3-3.5,14.6-5.1,22c-1,4.7-1.2,9.5-1,14.3c0.4,8.6,0.7,17.2,0.6,25.9c-0.1,8-1.4,15.9-2.9,23.8c-0.6,3.1-0.9,6.2-1.1,9.3
	c-0.4,5.9-1.6,11.6-2.7,17.4c-0.8,4.2-1.5,8.5-2.2,12.7c-1.5,9.8-3.2,19.6-4.5,29.5c-1,7.7-1.5,15.4-2.2,23.2
	c-0.4,4.2-0.6,8.4-1,12.7c0,0.3-0.2,0.6-0.3,1c-0.7-0.3-1.4-0.6-2-0.8c-4-1.7-8.1-2.4-12.4-2.2c-3.3,0.2-6.7,0.5-10-0.2
	c-4.6-0.9-8.6-2.9-11.4-6.8c-1.5-2.1-2.4-4.4-2.2-7c0.2-3.4,0.6-6.9,1-10.3c0.1-0.5,0.6-1,0.9-1.6c0.6-3.1,1.6-6.1,1.2-9.3
	c-0.1-1.1-0.1-2.2-0.1-3.3c-0.2-3.4-1.6-6.3-3.4-9.1c-0.2,0.3-0.2,0.5-0.1,0.7c2.9,5.1,3.2,10.5,2.3,16.2c-0.2,1.6,0.1,3.2,0.1,4.9
	c-1-1-0.8-2.3-0.7-3.6c0.3-4-0.5-7.8-2.6-11.3c-2.3-4-5.7-6.6-10.1-8c-3.3-1-6.8-1.2-10.2-1c-0.8,0-1.7,0.1-2.9,0.1
	c0.4-0.7,0.6-1,0.8-1.3c5.9-6.9,9.8-14.9,13.7-23c4.5-9.6,7.4-19.6,9.8-29.9c0.7-3.1,1.4-6.3,2.1-9.4c1.3-6.3,0.1-12-3.7-17.2
	c-0.8-1.1-1.7-2.2-2.6-3.2c0,0,0.1,0.1,0.1,0.1c-0.2-0.6-0.5-1.1-0.8-1.7c-0.9-1.6-1.8-3.1-2.6-4.7c-1.1-2.3-2-4.7-3-7.1
	c-0.7-1.7-1.5-3.3-1.8-5.1c-0.7-4.1-0.6-8.3,0.4-12.4c1.2-5,2.5-9.9,3.4-14.9c2.6-13.9,5.1-27.9,7.5-41.9
	c1.9-10.8,3.8-21.6,7.2-32.1c2.7-8.6,5.4-17.2,8.1-25.8c0.2-0.7,0.4-1.3,0.7-2.5c-0.4,0.6-0.5,0.7-0.6,0.8c-0.7,1.8-1.3,3.7-1.9,5.5
	c-6,17.9-11.8,35.9-14.6,54.6c-0.5,3.2-1,6.4-2,9.4c-1.1,3.7-2.6,7.4-4.1,11c-3,7.2-6,14.5-9.1,21.7c-0.2,0.5-0.4,1.1-0.5,1.7
	c0.1,0,0.2,0.1,0.3,0.1c4-9.3,8-18.6,12-27.9c0.2,0.5,0.3,0.9,0.2,1.3c-1.8,9.5-3.6,18.9-5.3,28.4c-0.9,5.1-1.9,10.2-2.7,15.3
	c-0.3,1.6,0,3.3,0,5.5c-0.6-0.8-0.9-1.1-1.2-1.5c-0.1-0.5-0.2-1-0.2-1.5c-1.3-4.3-2.5-8.5-3.8-12.8c-0.3-1-0.5-2-0.7-3
	c-0.6-3.7-1.3-7.4-1.8-11.1c-0.7-5-1.2-9.9-1.7-14.9c-0.1-0.9,0.1-1.9,0.3-2.8c2.4-8.3,4.3-16.7,5.5-25.2l-0.1,0.1
	c0.5,0.7,1,1.4,1.5,2.1c0.6,0.8,1.3,0.9,2,0.2c0.8-0.8,1.5-1.8,2.2-2.7c2-2.5,4-5,5.9-7.6c0.9-1.2,1.6-2.5,2.1-3.9
	c1-2.5,0.3-5-0.5-7.4c-0.7-2.1-0.5-3.7,0.8-5.4c3.2-4.4,6.1-8.9,8.2-14c2.7-6.4,5.5-12.8,7.9-19.4c3.2-8.7,6.2-17.6,9.2-26.4
	c0.2-0.6,0.2-1.4,0.4-2.1C257.9,349.6,258,349.3,258.1,349z M294.6,434.4c0.2-0.5,0.7-1,0.7-1.6c0.6-4.2,1-8.4,1.5-12.6
	c1.4-11.3,2.3-22.6,2.2-34c-0.1-7.9-0.4-15.7-1.7-23.5c-0.1,0.6-0.1,1.2-0.1,1.9c0.9,10.1,1.3,20.2,0.7,30.3
	c-0.6,10.2-1.5,20.5-2.4,30.7C295.5,428.6,295,431.5,294.6,434.4c0,0.8,0,1.5,0,2.2c0.1,0,0.2,0,0.3,0
	C294.8,435.9,294.7,435.2,294.6,434.4z M243,435.9c-0.1,0-0.2,0-0.3,0c0,1.1,0,2.2,0,3.3c0,9.8-0.1,19.6-0.1,29.4
	c0,9.8,0.6,19.6,1.8,29.3c1.5,12.1,3.4,24.2,6.1,36.1c2.6,11.8,5.7,23.6,8.5,35.4c2.1,8.8,4.6,17.6,8.2,26c0.2,0.6,0.6,1.1,0.8,1.7
	c0.1-0.7,0-1.3-0.2-1.9c-2.8-7.4-5.1-15-7-22.7c-5.1-20.5-10.6-41-13.8-61.9c-1.5-9.6-2.9-19.2-3.3-28.9c-0.5-11-0.5-21.9-0.7-32.9
	C243,444.5,243,440.2,243,435.9z M254.7,445.4c-0.1,0-0.1,0-0.2,0c0.1,1.3,0.1,2.7,0.2,4c0.4,4.2,0.8,8.4,1.2,12.6
	c0.9,7.9,1.6,15.9,2.7,23.8c1.2,9,2.5,18,3.9,27c2,12.9,4.1,25.8,7.4,38.5c2.9,11.2,6.4,22.1,10.9,32.7c0.4,1,1,2,1.5,3
	c0.1-0.9-0.1-1.6-0.4-2.3c-4.9-11.4-8.5-23.2-11.5-35.3c-3-12.1-5-24.4-7-36.7c-1.6-10.3-3.3-20.6-4.6-30.9
	C257.2,469.7,256,457.5,254.7,445.4z M268.7,640c-0.2,0-0.3,0-0.5,0.1c-0.2-0.5-0.4-0.9-0.6-1.4c-1-2.6-2-5.3-3.1-7.9
	c-2-4.7-4.8-8.8-8.7-12.1c-2.7-2.3-5.9-3.4-9.5-3.3c0.4,0.3,0.8,0.4,1.3,0.5c4,0.5,7.2,2.6,9.7,5.6c2.5,2.9,4.5,6,6,9.5
	c1.1,2.5,2,5.1,3,7.7c0.4,1,0.7,2.1,1.1,3.1c0.3,0.7,0.4,1.8,1.4,1.5c0.4-0.1,0.7-1.1,0.8-1.7c0.2-1.2,0.2-2.3,0.2-3.5
	c-0.1-8.5-0.2-17.1-0.3-25.6c0-0.6-0.1-1.3-0.1-1.9c-0.4,4.9-0.6,9.9-0.7,14.8C268.6,630.2,268.7,635.1,268.7,640z M244,614
	c0.2-0.4,0.4-0.9,0.4-1.3c0.9-5.4,2-10.8,2.5-16.2c1.5-17.4,1.7-34.9,1.3-52.4c-0.1-4.2-0.4-8.3-0.6-12.5c-0.1,3.1-0.2,6.1-0.1,9.2
	C247.8,565.2,247.5,589.6,244,614z M281.4,355.5c-0.7,17.6-1.4,35.2-2,52.8C280.7,390.7,281.6,373.1,281.4,355.5z M271.5,603.5
	c3.3,0.6,5.8-0.8,7.1-4.3C276.5,601.3,274.7,603.6,271.5,603.5z M279.1,414.1C279.2,414.1,279.2,414.1,279.1,414.1c0-0.3,0-0.7,0-1
	c0,0,0,0,0,0C279.1,413.4,279.1,413.8,279.1,414.1z M232.8,612.2c-0.1,0.1-0.2,0.1-0.3,0.2c0.3,0.4,0.6,0.8,0.9,1.2
	c0.1-0.1,0.2-0.1,0.3-0.2C233.4,613,233.1,612.6,232.8,612.2z"/>
<path class="st0" d="M394.7,414.1c0,0.2-0.1,0.3,0,0.5c1.4,2.9,0.2,4.9-2.2,6.8c-3.3-2.8-7.4-3.6-11.6-4.1
	c-4.3-0.5-8.4,0.2-12.4,2.2c0.2-14.2,0.3-28,0.5-41.9c-0.2,0-0.4,0-0.5,0c0,1.1,0,2.2,0,3.3c-0.2,10.6-0.4,21.2-0.5,31.8
	c-0.1,12.2-0.3,24.5-0.3,36.7c0,8,0.5,16,0.7,24c0.3,9.7,0.3,19.4,0.7,29.1c0.5,11.1,0.1,22.3-0.2,33.4c-0.1,4.3-0.8,8.5-1.6,12.8
	c-0.7,3.3-0.7,6.7-1.1,10c-1.1,9.2-2,18.5-4.6,27.6c-3,10.3-7.4,19.9-13.8,28.4c-4.4,5.7-8.8,11.6-14.9,15.8
	c-0.9,0.6-1.6,1.5-2.5,2.2c-0.7,0.5-1.4,1.1-2.2,1.4c-0.4,0.1-1.1-0.1-1.4-0.5c-0.2-0.2-0.1-0.8,0.1-1.3c0.1-0.3,0.3-0.5,0.5-0.8
	c8.4-10.4,13.8-22.2,17-35.1c1.8-7,3.4-14,4-21.2c0.6-6.6-0.5-13.1-1.7-19.6c-1.5-7.6-4-15-6.8-22.2c-2-5.2-5-9.8-9-13.7
	c-0.8-0.8-1.9-1.3-2.8-2c-0.8-0.8-0.3-1.6-0.1-2.4c2.6-7.6,5-15.2,7.9-22.6c3.5-9.1,7.1-18.3,11.7-27c0.4-0.7,0.5-1.5,0.8-2.2
	c0,0-0.1,0.1-0.1,0.1c1.3-0.4,1.2,0.8,1.4,1.3c4.2,12,7.9,24.1,11.1,36.4c2.4,9.4,4.6,18.9,5.7,28.6c0.4,3.9,0.7,7.8,1,11.6
	c0.3-1.4,0.6-2.8,0.4-4.1c-0.6-5.5-1-11.1-2-16.6c-2.1-12.5-5.4-24.6-9-36.7c-5.6-18.6-11.9-37-20.5-54.5
	c-8.2-16.6-16.7-33-25.3-49.4c-7.5-14.1-15.5-28-23.2-42c-0.3-0.5-0.8-0.9-1.1-1.4c0,0,0.1,0.1,0.1,0.1c-0.2-0.7-0.4-1.4-0.7-2.3
	c2.6-0.1,5.1,0.3,7.5,1c12.7,4,23.4,11.1,33.1,20c4.4,4.1,8.9,8.2,13.4,12.2c5.6,5,10.9,10.4,14.7,17c1.4,2.4,3,2.7,5.2,0.9
	c2.4-1.9,4.1-4.5,5.7-7.1c1.2-2,2.2-4.1,3.3-6.2c0.3-0.5,0.5-1,0.9-1.3c6.2-5.9,9.2-13.3,10.9-21.4c2.5-11.6,1.6-23.2-0.7-34.8
	c-1.8-9.4-5.3-18.2-9.9-26.5c-1.8-3.2-3-6.5-3.4-10.2c-0.7-5.8-1.5-11.7-2.2-17.5c-0.1-0.6-0.1-1.2-0.1-1.9c2.6-0.4,4.6,0.7,6.1,2.5
	c1.4,1.6,2.7,3.3,3.7,5.2c2.3,4.1,4.4,8.3,6.5,12.5c0.6,1.3,1,2.8,1.2,4.3c2.6,14.4,4.6,29,6.2,43.5c1,9,0.7,18.2,1,27.3
	c0.3,10.7,0.4,21.5,0.9,32.2c0.4,8.4,1.3,16.7,3.7,24.8C393.7,412.1,394.3,413.1,394.7,414.1z M345.2,500.8
	c-0.8,1.6-1.7,3.2-2.7,5.1c2.1,3.5,4.3,7.3,6.8,10.9c2.2,3.1,3.4,6.5,4,10.2c1,6.8,1.7,13.7,2.4,20.5c1,9.8,0.3,19.6-2.3,29.1
	c-2.9,10.6-6.1,21.1-9.3,31.6c-1.6,5.3-3.5,10.4-6.6,15c-0.1,0.1,0,0.3,0,0.8c2.4-3.1,4.2-6.2,5.4-9.6c3.5-10.9,7-21.8,10.4-32.7
	c2.2-7.1,3.6-14.4,3.8-21.9c0.3-11.7-1.2-23.3-3.1-34.8c-1.5-8.9-4.9-17.3-7.7-25.9c-0.4-1.2-1.1-2.3-1.7-3.4
	C344.8,497.4,345.9,499,345.2,500.8L345.2,500.8z"/>
<path class="st0" d="M220.4,505.9c0.1,0.5,0.2,1,0.2,1.5c0.1,0.5,0.2,1.1,0.4,1.6c1.2,2.9,2.5,5.7,3.7,8.6c0.7,1.7,1.5,3.3,2,5
	c1.8,6.4,2.2,13,1.2,19.5c-1,6.6-2.1,13.1-3.2,19.7c-1.1,6.5-2.5,12.9-5.6,18.8c-2.9,5.7-6.6,10.7-12.4,13.7
	c-0.6,0.3-1.1,0.7-1.6,1.1c0.1,0.1,0.2,0.3,0.3,0.4c3.2-1.7,6.3-3.5,8.8-6.3c4.9-5.7,8.2-12.3,9.7-19.6c1.6-7.9,2.9-15.9,4.2-23.8
	c1-6,1.6-12.1,0.5-18.2c0-0.3,0-0.6,0-1.2c0.9,1.1,1.6,1.9,2.3,2.8l-0.1-0.1c0.9,1.6,1.8,3.3,2.8,4.8c2.7,4.2,3.7,8.8,2.8,13.7
	c-0.3,1.5-0.5,3.1-0.9,4.6c-2.3,8.7-4.2,17.6-7.1,26.1c-4.2,11.9-9.6,23.4-17.8,33.2c-2.2,2.6-4.5,5-6.9,7.3c-2,1.8-2.5,1.7-4.2-0.4
	c-1.7-2.2-3.3-4.4-4.9-6.6c-0.5-0.7-0.9-1.4-1.3-2.1c6-4.7,10-10,10-13.6c-1.4,0.6-2.7,1.2-4.1,1.8c-1.5,0.7-2.6,0.5-3.8-0.8
	c-2.2-2.3-4.6-4.4-7-6.7c-0.5-0.5-1-1-1.6-1.6c0.7-0.5,1.2-0.9,1.8-1.2c3.3-1.9,6.3-4.2,8.9-6.9c11-11.6,18.5-25.2,22.1-40.9
	c1.5-6.6,2.3-13.3,2.2-20.1c0-2.3-0.3-4.5-0.5-6.8c0-0.4-0.3-0.9-0.8-1.3c0.1,1.6,0.3,3.2,0.5,5.3c-0.6-0.7-1-1-1.3-1.4
	c-0.8-1.1-1.5-2.2-2.4-3.2c-4-4.8-6.5-10.2-7.5-16.4c-1.2-8-2.6-15.9-3.1-24c0-0.7,0-1.4,0.4-2.2c1,2.9,1.9,5.7,2.9,8.6
	c1.1,2.9,2.3,5.7,3.4,8.6c0.2-0.1,0.3-0.1,0.5-0.2c-0.4-1.2-0.7-2.4-1.2-3.5c-2.7-6.5-4.9-13.1-6.4-19.9c-2.1-9.6-2.9-19.4-2-29.2
	c0.3-3.2,0.7-6.4,0.9-9.6c0.3-3.7,0.6-7.3,0.8-11c0.2-4.2,1.2-8.2,2.7-12.1c2.8-7.4,3.9-15.2,4.6-23c0-0.4,0-0.8,0-1.2
	c0-0.1-0.1-0.3-0.2-0.7c-1.1,10-2.6,19.6-6.7,29c-0.8-3.6,0-7.1-0.9-10.4c-0.1,8.2,0.2,16.4-1.5,24.8c-0.3-0.5-0.6-0.8-0.6-1.1
	c-0.4-3.3-0.9-6.5-0.9-9.8c0-3.7,0.5-7.5,0.8-11.2c0-0.6,0.1-1.2,0-1.8c-1.9,7.6-2,15.3-0.7,23.3c-2.7-2.5-4.3-5.3-5-8.6
	c-1.1-5.7-1.1-11.4-0.5-17.1c0.3-2.7,0.8-5.4,1.1-8.2c0.1-0.6-0.2-1.3-0.4-2c2.6-6.8,5.9-13.3,9.6-19.6c-0.6,0.7-1.2,1.4-1.8,2.2
	c-0.6,0.8-1.1,1.5-1.6,2.4c-3.7,7.1-7.7,14-9.7,21.9c-0.6,2.2-1.8,4-3.3,5.8c-1.7-1.8-3.2-3.7-5-5.3c-1.7-1.5-3.8-2.7-6-4.3
	c7.7-8.4,10.9-18.9,15.1-29c-0.2,0.3-0.4,0.7-0.6,1c-0.2,0.3-0.3,0.7-0.5,1.1c-2.4,5.3-4.9,10.5-7.3,15.8c-1.4,3.1-3.6,5.6-5.8,8.5
	c-1.2-0.9-2.3-1.6-3.3-2.3c6.8-11.8,13.6-23.3,20.2-34.9c0.9-1.5,1.5-3.1,2.2-4.6c0.6,0.2,1.2,0.3,1.6,0.7c2.5,1.9,4.8,3.9,6.5,6.6
	c0.3,0.5,0.6,0.9,1,1.3c1.3,1.6,1.6,1.8,3.5,0.9c0.8-0.4,1.1,0.2,1.6,0.4c-0.1,1.1,0.7,1.5,1.4,2c0.6,0.4,1.2,0.7,1.9,1
	c2.3,1.2,4,2.9,5.1,5.3c0.8,1.8,1.9,3.6,3,5.3c0.5,0.8,1.1,1.7,1.8,2.1c2.4,1.3,2.1,3.1,1.3,5.1c-0.8,2-1.6,3.9-1.2,6.1
	c0.9-3,1.8-6,2.7-9.1c1,0.4,1.9,0.8,2.7,1.1c1.2,0.4,2.4,0.8,3.6,1c2.5,0.2,4.4-0.8,5.7-2.9c1.5-2.4,2.3-5,2.9-7.7
	c0.4-2,0.9-4,1.3-6c0.2-0.8,0.3-1.5,0.4-2.3c0.2-1.6-0.1-3-1.8-3.6c-0.1-0.1-0.3-0.1-0.4-0.2c-0.3-0.6-0.8-1.2-0.8-1.8
	c0-0.9,0.8-1.3,1.6-1.4c0.6,0,1.3-0.1,1.9,0c3.2,0.4,6.4,0.9,9.5,1.3c0.9,0.1,1.3,0.4,1.1,1.4c-0.1,0.3-0.3,0.5-0.4,0.8
	c-1.4,3.5-2.9,6.9-4.2,10.4c-3.5,9.6-6.9,19.2-10.5,28.7c-2.9,7.6-6.2,15.1-11.2,21.6c-0.5,0.7-1,1.5-1.5,2.3
	c-0.2,0-0.4-0.1-0.5-0.1c-0.6-3.1-1.4-6.1-1.8-9.2c-0.4-3.1-0.6-6.2-0.7-9.4c-0.2-3-0.2-6-0.3-9.6c-1,3.7-0.8,6.9-0.5,10.1
	c0.1,0.6,0,1.3,0.1,1.9c0.2,5.3,0.9,10.6,2.4,15.8c0.8,2.6,1.5,5.2,2.2,7.9c0.6,2.6,0.1,5.1-1.7,7c-2.7,2.9-4.9,6.1-7.1,9.4
	c-0.4,0.7-1.1,1.2-1.9,2c-0.6-1-1-1.7-1.2-2.4c-1-2.9-2-5.9-3.1-8.9c-0.3-0.8-0.7-1.5-1-2.2c0.4-1.1,0.1-2.1-0.8-3.3
	c0.3,1.3,0.6,2.3,0.8,3.3c0.7,2.8,1.5,5.5,2.2,8.3c0.3,1,0.5,1.9,0.7,2.9c0,0,0.1-0.1,0.1-0.1c-0.3,0.9-0.7,1.9-0.9,2.8
	c-1.4,6.2-2.8,12.4-4.3,18.5c-0.1,0.5-0.4,1-0.6,1.5c-0.2,0-0.3-0.1-0.5-0.1c-0.1-6.3-0.4-12.7-0.4-19c0-13.9,2.5-27.4,7.6-40.4
	c1.8-4.4,3.6-8.9,5.4-13.3c0.3-0.7,0.5-1.5,0.7-2.2c-0.6,0.4-0.9,1-1.2,1.6c-1.8,4.3-3.6,8.5-5.3,12.8c-2.4,5.9-4.3,11.9-5.6,18.2
	c-1.7,8.8-2.8,17.6-2.5,26.6c0.2,5.6,0.3,11.3,0.6,16.9c0.3,4.8,0.7,9.7,1.3,14.5c0.7,5.6,1.7,11.1,2.6,16.7
	c0.1,0.5,0.3,1.1,0.4,1.6c1.2,3.7,2.3,7.5,3.5,11.2C219.4,504.7,220,505.3,220.4,505.9z"/>
<path class="st0" d="M269.6,689c1.4,1.5,2.6,2.9,3.9,4.3c0.6,0.6,0.8,1.4,0.4,2.2c-0.7,1.3-1.3,2.7-2.1,3.9
	c-1.8,2.8-2.7,5.8-2.2,9.2c0.3,2.5-0.1,4.8-1,7.1c-0.9,2.1-1.2,4.1,0.2,6.3c0.5,0.8,0.4,2.2,0.1,3.2c-1.2,5-2.6,10-3.8,15
	c-0.3,1.4-0.3,3-0.1,4.4c0.3,1.9,0,3.6-0.9,5.2c-1.7,3.1-1.2,6.4-1.1,9.7c0,1.2,1,2.1,2.2,2c1.1,0,2.3-0.4,3.3-0.9
	c1.2-0.6,2.4-1.5,3.8-2.1c-0.2,0.4-0.4,0.9-0.7,1.2c-1.9,2-3.8,4-5.7,5.9c-1.8,1.8-2.9,4-3.6,6.5c-1.7,6.1-1.7,12.2-1,18.4
	c0.5,4.6,0.3,9.2-0.7,13.8c-0.1,0.5-0.3,1-0.9,1.5c-0.1-1.2-0.2-2.3-0.2-3.5c0-5.6,0.3-11.1,0-16.7c-0.2-5.5-0.9-11.1-1.4-16.6
	c-0.5-5.3-1.1-10.6-1.5-15.9c-0.1-1.2,0.2-2.5,0.6-3.7c3.3-10.8,5.1-22,7.2-33c1.6-8.5,3.2-17.1,4.8-25.6
	C269.2,690.1,269.5,689.5,269.6,689z"/>
<path class="st0" d="M189.7,500.4c7.6-7.9,13-17.1,16.3-27.6c0.1,0.8,0.3,1.7,0.4,2.5c0.9,6.9,1.8,13.8,2.8,20.7
	c0.3,1.9,0.2,3.4-0.8,5.1c-2,3.5-4.8,6.4-8,8.8c-1.5,1.1-1.9,1-3.1-0.4C194.8,506.6,192.4,503.7,189.7,500.4z"/>
<path class="st0" d="M273.4,667.1c-0.2,1.7-0.4,3.3-0.6,5c-2.1,0.4-4.2,0.7-6.2,1c-2.4,0.4-4.2,1.6-5.5,3.7c-0.8,1.2-1,2.5-1,3.8
	c0,4.5,0.1,8.9,0,13.4c-0.1,6.7-0.4,13.5-0.6,20.2c0,1.1-0.3,2.2-0.7,3.2c0-6.4,0.1-12.7,0-19.1c-0.1-4.3-0.4-8.6-0.5-12.9
	c-0.1-3,0-6,0.1-8.9c0-1.7-0.2-3.3-1.6-4.5c-1.1-1-1.4-2.2-1.1-3.6c0.3-1.3,0.5-2.6,0.7-4C262.3,663.5,267.9,664.4,273.4,667.1z"/>
<path class="st0" d="M261.9,93.5c-0.3-2.9-0.6-5.7-0.9-8.5c-0.8,0.3-1.5,0.6-2.2,0.7c-0.9,0.1-1.7-0.1-2.3-1.2
	c0.4-0.2,0.8-0.4,1.2-0.5c4-1,7.4-3.2,9.8-6.5c1.5-2,3.7-2.7,5.8-3.9c-0.5-0.4-0.9-0.8-1.4-1.1c0.7-1.5,0.7-1.5,3.9-1.1
	c-0.7-0.9-1.2-1.6-1.8-2.5c2.5-4,3.7-8.5,5-13c0.7-2.7,2.1-4.9,4.8-6.1c1-0.5,1.7-0.4,2.6,0.3c3.1,2.5,5.2,5.5,5.5,9.5
	c0.2,2.4,0,4.8,0,7.4c-2.6,0.8-5.4,1.1-7.4,3.4c2.4-0.6,4.9-1.2,7.5-1.8c0.1,1,0.1,1.7,0.1,2.5c-2.5,0.7-5.4-0.2-7.3,2.7
	c0.6-0.1,0.8-0.1,1-0.2c0.2-0.1,0.4-0.2,0.8-0.4c0.7,1.4,1.4,2.7,3.4,1.8c0.5-0.6,1-1.4,1.8-2.4c0.2,0.8,0.4,1.2,0.5,1.7
	c0.5,2.8,1.1,5.5,1.5,8.3c0.2,0.8,0.4,1.7,0.3,2.6c-0.3,3.3-0.7,6.7-1.2,10c-0.4,2.3-1.5,4.3-3.1,6c-1.7,1.7-3.3,3.5-5.1,5.2
	c-0.8,0.8-1.8,1.6-2.8,2c-2.6,1.1-5.1,1.2-7.4-0.9c-1.8-1.7-3.8-3.3-5.8-4.8c-2.8-2.1-5-4.7-6.2-8.1
	C262.4,94.1,262.1,93.8,261.9,93.5C261.8,93.4,261.9,93.5,261.9,93.5z M281.2,88.4c0-0.2-0.1-0.5-0.1-0.7c-0.6,0.1-1.3,0.2-1.9,0.3
	c0,0.1,0,0.3,0,0.4C279.9,88.4,280.6,88.4,281.2,88.4z M278.1,99.4c0,0.1,0,0.2,0,0.3c0.6,0,1.1-0.1,1.7-0.1c0-0.1,0-0.2,0-0.3
	C279.3,99.4,278.7,99.4,278.1,99.4z"/>
<path class="st0" d="M252.1,59.1c2.3,0.8,2.3,0.8,4.6-2.2c-0.2,3.6-1.6,6.4-4.6,8.3c-0.6,0.4-1.7,0.7-2.1,0.4
	c-1.2-0.8-2.4-0.5-3.6-0.2c-0.6,0.2-1.4,0.6-1.8-0.1C247,63.3,249.5,61.3,252.1,59.1z"/>
<path class="st0" d="M293.6,59c2.2,6.5,1.4,13.1,0.7,19.7C292.8,72.2,293.7,65.6,293.6,59z"/>
<path class="st0" d="M305.7,75.6c-0.7-2.8-0.3-5.3-0.2-8.2C308.3,70.7,308.3,71.3,305.7,75.6z"/>
<path class="st0" d="M257.7,64.7c0.3-0.9,0.5-1.5,0.6-2c1.3-0.2,2.5-0.3,3.9-0.5c0,1.3,0,2.7,0,4.2c-0.8-0.6-1.3-1.1-1.9-1.4
	C259.6,64.7,258.8,64.8,257.7,64.7z"/>
<path class="st0" d="M245,53.2c-1,2.3-2.6,3.6-4.8,4.1c-0.3,0.1-0.8-0.4-1.3-0.7C241,55.4,242.9,54.4,245,53.2z"/>
<path class="st0" d="M240.8,67.5c-3.1,1.2-6,1.6-9.1,0.5C234.7,67.8,237.6,67.7,240.8,67.5z"/>
<path class="st0" d="M265.7,69.8c1.5-2.1,2.6-3.7,3.9-5.5C269.3,66.9,268.1,68.5,265.7,69.8z"/>
<path class="st0" d="M238.9,87.6c-0.9,0.9-1.7,1.8-2.8,3C236.2,89,236.2,89,238.9,87.6z"/>
<path class="st0" d="M247,60.2c0.8-0.5,1.6-1,2.6-1.6C249.1,60.5,249,60.5,247,60.2z"/>
<path class="st0" d="M276.5,52c-0.1-1.1,0.5-1.6,1.5-1.8C277.5,50.8,277,51.4,276.5,52z"/>
<path class="st0" d="M214.4,352.5c-0.2-1,0.4-1.7,1.1-2.4c1.8-1.7,3.6-3.5,5.4-5.3c3-3.1,6.3-5.9,10.1-8c1-0.5,2.4-0.9,2.2-2.4
	c-0.2-1.2-1.4-1.7-2.4-2.1c-2.1-0.8-2.7-2.7-3.7-4.4c-2-3.4-4-6.9-6.1-10.3c-0.2-0.3-0.4-0.6-1-0.8c0.3,0.7,0.7,1.3,1,2
	c1.7,3.2,3.4,6.4,5.1,9.5c0.6,1.1,1.3,2.3,2.1,3.5c-5.2,1.1-10.3,2.2-14.8,5c0.6-0.2,1.3-0.5,1.9-0.7c4.1-1.6,8.4-2.6,12.7-3.4
	c1.8-0.3,3.2,0.2,4.5,1.9c-0.9,0.6-1.6,1.2-2.3,1.6c-4.3,2.4-8.1,5.4-11.3,9.1c-1.6,1.9-3.6,3.5-5.5,5.1c-1.9,1.6-2.4,1.5-3.7-0.5
	c-2.5-3.8-6.3-6.3-9.7-9.1c-0.2-0.1-0.4-0.1-0.7-0.2c0.2-0.6,0.2-1.4,0.6-1.9c6-8.1,12.1-16.2,19.8-22.9c2.4-2.1,4.8-4.3,7.4-6.1
	c3.6-2.5,7.6-3.4,11.8-2.2c3.5,1,4.3,3.5,2.3,6.4c-0.4,0.6-1,1.2-1.4,1.9c-1.3,1.7-1.9,3.6-1.8,5.7c0,0.9-0.1,1.9-0.5,2.7
	c-1.6,3.1-2.2,6.5-2.9,9.9c1.3-2.2,2.5-4.4,3.8-6.6c1.1,3.3-0.4,6.9,2.4,9.6c-2.4,0.7-4.5-0.5-6.7-1c2.5,1.8,5.3,2.7,8.2,1.9
	c3.6-1.1,6.4-0.3,9.2,2.1c1.6,1.3,3.9,1.8,6,2.6c1.6,0.6,3.1,1.2,3.2,3.3c-1.4,0.9-2.9,0.7-4.3,0.5c-2.9-0.3-5.7-0.8-8.6-1.1
	c-0.8-0.1-1.7,0-2.6,0.1c-1.1,0.2-1.6,1-1.8,1.9c-0.3,1,0.1,2,1,2.4c2.5,1,2.2,2.9,1.7,4.9c-0.6,2.4-1.1,4.9-1.7,7.3
	c-0.5,1.9-1.2,3.8-2,5.5c-1.7,3.5-4.1,4.3-7.8,3c-4.6-1.5-8.1-4.4-10.1-8.9c-1.6-3.7-4-6.3-7.7-7.8
	C215.9,353.7,215.2,353,214.4,352.5z M226,336.3c-3.2,1.2-4.8,2.4-6.2,4.6C222.1,339.2,224,337.7,226,336.3z"/>
<path class="st0" d="M267.1,330.5c-0.9,0.5-1.8,0.9-2.7,1.4c-1.7,1.1-1.8,1.5-1.2,3.5c0.1,0.3,0.2,0.8,0.1,1.1
	c-0.9,2.1-1.9,4.2-2.9,6.3c-1.9-0.6-3.6-1-5.1-1.7c-1.7-0.8-3.3-1.8-4.9-2.7c-1.3-0.8-2.5-1.6-3.9-2.6c4.7-1.7,7.6-5.6,10.9-9.2
	c1-1.1,2.1-1.8,3.5-2.2c2.2-0.7,4.4-1.7,6.8-2.6c-0.5,2.8-2.3,4.9-3.4,7.5C265.2,329.8,266.1,330.2,267.1,330.5
	C267,330.5,267.1,330.5,267.1,330.5z"/>
<path d="M379.2,439.1c-2.4,1.6-3.3,4.3-2.8,7.4c0.4,2.3,0.5,4.7,0.4,7c-0.1,1.2-1,2.4-1.8,3.4c-0.8,1-2,1.3-3.2,0.8
	c-1.2-0.4-1.6-1.4-1.6-2.6c-0.2-3.7-0.5-7.3-0.8-11c-0.1-1.2-0.3-2.5-0.3-3.7c0.8,1.5,0.9,3.2,1,4.9c0.3,3,0.4,5.9,0.6,8.9
	c0,0.5,0.1,0.9,0.2,1.4c0.5,1.8,2,2.2,3.4,1c1.3-1.1,2-2.6,2-4.4c0-1.8-0.1-3.6-0.5-5.4c-0.5-2.1-0.2-3.9,0.8-5.6
	c0.6-1,1.1-2,1.8-3.2C378.8,438.5,379,438.9,379.2,439.1L379.2,439.1z"/>
<path d="M379.3,439.2c0.9-0.9,1.5-1,2-0.2c0.3,0.5,0.6,1.1,0.6,1.7c0.1,1.9,0.1,3.7,0.1,5.6c0,2.3,0,4.5,0.1,6.8
	c0,1.4,0.3,2.8,0.2,4.2c0,0.9-0.5,1.9-1,2.8c0.7-2.9,0.1-5.7-0.1-8.5c-0.1-1.7,0-3.4,0-5.1c0-2-0.1-4-0.2-6.1
	C381.1,439.2,380.4,438.8,379.3,439.2C379.2,439.1,379.3,439.2,379.3,439.2z"/>
<path d="M374.5,464.5c1.6-1,3.1-2,4.7-3C378.3,462.8,376.3,464,374.5,464.5L374.5,464.5z"/>
<path d="M374.5,464.5c-0.8,0.6-1.5,1.2-2.6,2.1C372.8,465,372.8,465,374.5,464.5C374.5,464.5,374.5,464.5,374.5,464.5z"/>
<path d="M337.3,120.8c1,4,0.9,8.1-0.1,12.1c-0.7,3.1-2.5,5.5-5.2,7.3c-2.7,1.8-5.7,2.9-8.8,3.8c-5.8,1.6-11.6,3.2-17.4,4.8
	c-5.8,1.6-11.4,3.8-16.8,6.6c-3.4,1.7-6.5,3.9-8.8,6.9c-0.6,0.8-1.2,1.7-1.6,2.6c-1.1,2.5,0,4.3,2.8,4.6c1.4,0.1,2.8,0.1,4.2,0.1
	c1.4,0,2.8,0,4.2,0.4c-2.8,0.1-5.6,0.5-8.4,0.3c-3.6-0.2-5-2.9-3.4-6.2c1.3-2.6,3.2-4.6,5.5-6.3c5.4-4,11.6-6.5,18-8.5
	c4.9-1.6,9.9-2.8,14.9-4.2c3.7-1.1,7.4-2.2,11-3.4c6.6-2.2,9.8-7,9.9-13.9C337.4,125.4,337.3,123.1,337.3,120.8z"/>
<path d="M208.5,191c0.3,5.9,0.6,12.2,1,18.5C207.9,203.3,208.4,196.9,208.5,191z"/>
<path d="M220.9,188.2c0,0.8,0,1.7,0,2.5c-0.1,0-0.1,0-0.2,0c0-0.9,0-1.7,0-2.6C220.8,188.2,220.8,188.2,220.9,188.2z"/>
<path d="M195.6,264.4c-0.5,0.5-1,1.1-1.5,1.6C194.3,265.2,194.7,264.5,195.6,264.4C195.6,264.5,195.6,264.4,195.6,264.4z"/>
<path d="M231,529.5c-0.7-0.8-1.4-1.7-2.3-2.8c0,0.6-0.1,0.9,0,1.2c1,6.1,0.5,12.2-0.5,18.2c-1.3,8-2.6,15.9-4.2,23.8
	c-1.5,7.3-4.8,13.9-9.7,19.6c-2.4,2.8-5.6,4.6-8.8,6.3c-0.1-0.1-0.2-0.3-0.3-0.4c0.5-0.4,1-0.8,1.6-1.1c5.8-3,9.5-8,12.4-13.7
	c3.1-5.9,4.5-12.3,5.6-18.8c1.1-6.6,2.1-13.1,3.2-19.7c1-6.6,0.6-13.1-1.2-19.5c-0.5-1.7-1.3-3.4-2-5c-1.2-2.9-2.5-5.7-3.7-8.6
	c-0.2-0.5-0.3-1-0.4-1.6c0.3,0.4,0.6,0.7,1.2,1.5c0-2.2-0.2-3.9,0-5.5c0.8-5.1,1.8-10.2,2.7-15.3c1.8-9.5,3.6-18.9,5.3-28.4
	c0.1-0.4,0-0.9-0.2-1.3c-4,9.3-8,18.6-12,27.9c-0.1,0-0.2-0.1-0.3-0.1c0.2-0.6,0.3-1.2,0.5-1.7c3-7.2,6.1-14.4,9.1-21.7
	c1.5-3.6,3-7.3,4.1-11c0.9-3.1,1.5-6.2,2-9.4c2.8-18.8,8.7-36.7,14.6-54.6c0.6-1.9,1.3-3.7,1.9-5.5c0.1-0.1,0.2-0.3,0.6-0.8
	c-0.3,1.2-0.5,1.8-0.7,2.5c-2.7,8.6-5.4,17.2-8.1,25.8c-3.3,10.5-5.3,21.3-7.2,32.1c-2.4,14-4.9,27.9-7.5,41.9
	c-0.9,5-2.3,9.9-3.4,14.9c-1,4.1-1.1,8.2-0.4,12.4c0.3,1.7,1.1,3.4,1.8,5.1c1,2.4,1.9,4.8,3,7.1c0.8,1.6,1.7,3.1,2.6,4.7
	C230.5,528.3,230.7,528.9,231,529.5z"/>
<path d="M286.4,336.9c0.4,0.5,0.9,0.9,1.1,1.4c7.8,14,15.7,27.8,23.2,42c8.7,16.3,17.1,32.8,25.3,49.4c8.7,17.5,14.9,35.9,20.5,54.5
	c3.7,12.1,6.9,24.3,9,36.7c0.9,5.5,1.4,11,2,16.6c0.1,1.4-0.2,2.8-0.4,4.1c-0.3-3.9-0.6-7.8-1-11.6c-1.1-9.7-3.3-19.2-5.7-28.6
	c-3.2-12.3-6.8-24.5-11.1-36.4c-0.2-0.6,0-1.8-1.4-1.3c0.3-1.1,0.2-2.1-0.1-3.2c-5.1-14.5-11.4-28.5-18.6-42.1
	c-4.6-8.6-9.1-17.4-13.6-26c-0.3-0.5-0.6-1.1-1-1.8c-0.4,0.4-0.6,0.7-0.8,0.9c-0.1-0.1-0.2-0.3-0.1-0.4c0.3-1.6-0.1-3.1-0.9-4.5
	c-5.9-10.8-11.8-21.6-17.6-32.4c-2.9-5.4-5.7-10.8-8.6-16.2C286.5,337.7,286.5,337.2,286.4,336.9z"/>
<path d="M243,435.9c0,4.3-0.1,8.6,0,12.8c0.2,11,0.2,22,0.7,32.9c0.4,9.7,1.9,19.3,3.3,28.9c3.2,21,8.7,41.4,13.8,61.9
	c1.9,7.7,4.2,15.2,7,22.7c0.2,0.6,0.4,1.2,0.2,1.9c-0.3-0.6-0.6-1.1-0.8-1.7c-3.6-8.4-6.1-17.1-8.2-26c-2.8-11.8-5.9-23.6-8.5-35.4
	c-2.7-11.9-4.6-24-6.1-36.1c-1.2-9.7-1.8-19.5-1.8-29.3c0-9.8,0-19.6,0.1-29.4c0-1.1,0-2.2,0-3.3C242.8,435.9,242.9,435.9,243,435.9
	z"/>
<path d="M220.4,505.9c-0.4-0.6-0.9-1.2-1.2-1.9c-1.2-3.7-2.4-7.5-3.5-11.2c-0.2-0.5-0.4-1-0.4-1.6c-0.9-5.6-1.9-11.1-2.6-16.7
	c-0.6-4.8-1-9.7-1.3-14.5c-0.3-5.6-0.4-11.3-0.6-16.9c-0.3-9,0.8-17.8,2.5-26.6c1.2-6.3,3.2-12.3,5.6-18.2c1.7-4.3,3.5-8.5,5.3-12.8
	c0.2-0.6,0.5-1.1,1.2-1.6c-0.2,0.7-0.5,1.5-0.7,2.2c-1.8,4.4-3.6,8.9-5.4,13.3c-5.2,13-7.6,26.4-7.6,40.4c0,6.3,0.2,12.7,0.4,19
	c0.2,0,0.3,0.1,0.5,0.1c0.2-0.5,0.5-1,0.6-1.5c1.4-6.2,2.8-12.4,4.3-18.5c0.2-1,0.6-1.9,0.9-2.8c-1.2,8.5-3.1,16.9-5.5,25.2
	c-0.3,0.9-0.4,1.9-0.3,2.8c0.5,5,1,10,1.7,14.9c0.5,3.7,1.2,7.4,1.8,11.1c0.2,1,0.4,2,0.7,3C217.8,497.4,219.1,501.7,220.4,505.9z"
	/>
<path d="M254.7,445.4c1.4,12.1,2.6,24.3,4.1,36.4c1.3,10.3,3,20.6,4.6,30.9c2,12.3,4,24.6,7,36.7c2.9,12,6.6,23.8,11.5,35.3
	c0.3,0.7,0.5,1.4,0.4,2.3c-0.5-1-1.1-1.9-1.5-3c-4.5-10.6-8-21.6-10.9-32.7c-3.3-12.7-5.4-25.6-7.4-38.5c-1.4-9-2.8-18-3.9-27
	c-1-7.9-1.8-15.9-2.7-23.8c-0.5-4.2-0.8-8.4-1.2-12.6c-0.1-1.3-0.1-2.6-0.2-4C254.5,445.4,254.6,445.4,254.7,445.4z"/>
<path d="M215.2,425.1c0.3,0.7,0.7,1.5,1,2.2c1,3,2,5.9,3.1,8.9c0.3,0.7,0.7,1.4,1.2,2.4c0.8-0.8,1.5-1.3,1.9-2
	c2.2-3.3,4.4-6.5,7.1-9.4c1.8-1.9,2.3-4.5,1.7-7c-0.6-2.6-1.4-5.3-2.2-7.9c-1.5-5.1-2.2-10.4-2.4-15.8c0-0.6,0-1.3-0.1-1.9
	c-0.3-3.2-0.5-6.4,0.5-10.1c0.1,3.6,0.1,6.6,0.3,9.6c0.2,3.1,0.3,6.3,0.7,9.4c0.4,3.1,1.2,6.1,1.8,9.2c0.2,0,0.4,0.1,0.5,0.1
	c0.5-0.8,1-1.5,1.5-2.3c5-6.6,8.3-14,11.2-21.6c3.6-9.5,6.9-19.1,10.5-28.7c1.3-3.5,2.8-7,4.2-10.4c-0.1,0.7-0.1,1.4-0.4,2.1
	c-3,8.8-6,17.7-9.2,26.4c-2.4,6.5-5.2,12.9-7.9,19.4c-2.1,5-5,9.6-8.2,14c-1.3,1.7-1.5,3.3-0.8,5.4c0.8,2.3,1.5,4.9,0.5,7.4
	c-0.5,1.4-1.2,2.7-2.1,3.9c-1.9,2.6-3.9,5.1-5.9,7.6c-0.7,0.9-1.4,1.9-2.2,2.7c-0.7,0.7-1.4,0.6-2-0.2c-0.5-0.7-1-1.4-1.5-2.1
	c-0.2-1-0.5-1.9-0.7-2.9C216.7,430.6,216,427.8,215.2,425.1L215.2,425.1z"/>
<path d="M268.7,640c0-4.9-0.1-9.8,0-14.6c0.1-4.9,0.3-9.9,0.7-14.8c0,0.6,0.1,1.3,0.1,1.9c0.1,8.5,0.2,17.1,0.3,25.6
	c0,1.2,0,2.4-0.2,3.5c-0.1,0.6-0.4,1.6-0.8,1.7c-1,0.3-1.1-0.8-1.4-1.5c-0.4-1-0.7-2.1-1.1-3.1c-1-2.6-1.9-5.1-3-7.7
	c-1.5-3.5-3.5-6.6-6-9.5c-2.6-3-5.7-5.1-9.7-5.6c-0.5-0.1-0.9-0.2-1.3-0.5c3.6-0.1,6.7,1,9.5,3.3c3.9,3.3,6.7,7.4,8.7,12.1
	c1.1,2.6,2.1,5.2,3.1,7.9c0.2,0.5,0.4,0.9,0.6,1.4C268.4,640,268.5,640,268.7,640z"/>
<path d="M244,614c3.6-24.4,3.8-48.8,3.5-73.3c0-3,0-6.1,0.1-9.2c0.2,4.2,0.5,8.3,0.6,12.5c0.3,17.5,0.1,35-1.3,52.4
	c-0.5,5.4-1.6,10.8-2.5,16.2C244.3,613.1,244.1,613.5,244,614z"/>
<path d="M294.6,434.5c0.4-2.9,0.9-5.9,1.1-8.8c0.8-10.2,1.8-20.5,2.4-30.7c0.6-10.1,0.2-20.2-0.7-30.3c-0.1-0.6,0-1.2,0.1-1.9
	c1.2,7.8,1.6,15.7,1.7,23.5c0.1,11.4-0.8,22.7-2.2,34c-0.5,4.2-1,8.4-1.5,12.6C295.3,433.4,294.9,433.9,294.6,434.5L294.6,434.5z"/>
<path d="M281.4,355.5c0.2,17.6-0.7,35.2-2,52.8C280.1,390.7,280.7,373.1,281.4,355.5z"/>
<path d="M237.3,637c0-1.6-0.3-3.3-0.1-4.9c0.8-5.6,0.6-11.1-2.3-16.2c-0.1-0.2-0.1-0.4,0.1-0.7c1.8,2.8,3.2,5.7,3.4,9.1
	c0,1.1,0,2.2,0.1,3.3C238.8,630.9,237.8,633.9,237.3,637C237.2,637,237.3,637,237.3,637z"/>
<path d="M271.5,603.5c3.3,0.2,5-2.2,7.1-4.3C277.3,602.6,274.8,604.1,271.5,603.5z"/>
<path d="M294.6,434.4c0.1,0.7,0.2,1.5,0.3,2.2c-0.1,0-0.2,0-0.3,0C294.7,436,294.7,435.2,294.6,434.4
	C294.6,434.5,294.6,434.4,294.6,434.4z"/>
<path d="M279.1,414.1c0-0.3,0-0.7,0-1c0,0,0,0,0,0C279.2,413.4,279.2,413.8,279.1,414.1C279.2,414.1,279.2,414.1,279.1,414.1z"/>
<path d="M232.8,612.2c0.3,0.4,0.6,0.8,0.9,1.2c-0.1,0.1-0.2,0.1-0.3,0.2c-0.3-0.4-0.6-0.8-0.9-1.2
	C232.6,612.3,232.7,612.3,232.8,612.2z"/>
<path d="M345.2,500.9c0.8-1.9-0.3-3.5-0.7-5.3c0.6,1.1,1.3,2.2,1.7,3.4c2.8,8.5,6.2,16.9,7.7,25.9c1.9,11.5,3.4,23.1,3.1,34.8
	c-0.2,7.5-1.7,14.8-3.8,21.9c-3.3,10.9-6.8,21.8-10.4,32.7c-1.1,3.4-2.9,6.6-5.4,9.6c0-0.4-0.1-0.7,0-0.8c3.1-4.6,5.1-9.7,6.6-15
	c3.1-10.5,6.4-21,9.3-31.6c2.6-9.5,3.3-19.3,2.3-29.1c-0.7-6.9-1.4-13.7-2.4-20.5c-0.5-3.6-1.8-7.1-4-10.2
	c-2.5-3.6-4.6-7.4-6.8-10.9C343.5,504,344.4,502.4,345.2,500.9c-0.3,1.1-0.6,2.3-1,3.4c-0.5,1.2-0.5,2.2,0.3,3.3
	c1.9,2.9,3.7,6,5.6,8.9c0.3,0.5,0.8,0.9,1.2,1.4c0.1-0.1,0.3-0.1,0.4-0.2c-1.8-5.7-3.6-11.4-5.5-17.1
	C345.6,500.7,345.4,500.8,345.2,500.9z"/>
<path d="M215.3,425.1c-0.2-1-0.5-1.9-0.8-3.3C215.3,423,215.6,424,215.3,425.1C215.2,425.1,215.3,425.1,215.3,425.1z"/>
<path d="M281.2,88.4c-0.7,0-1.4,0-2,0c0-0.1,0-0.3,0-0.4c0.6-0.1,1.3-0.2,1.9-0.3C281.2,88,281.2,88.2,281.2,88.4z"/>
<path d="M278.1,99.4c0.6,0,1.1,0,1.7,0c0,0.1,0,0.2,0,0.3c-0.6,0-1.1,0.1-1.7,0.1C278.2,99.6,278.1,99.5,278.1,99.4z"/>
<path d="M226,336.3c-2,1.5-3.9,2.9-6.2,4.6C221.2,338.7,222.8,337.5,226,336.3z"/>
<path class="st0" d="M345.2,500.9c0.2-0.1,0.4-0.2,1-0.4c1.8,5.7,3.6,11.4,5.5,17.1c-0.1,0.1-0.3,0.1-0.4,0.2
	c-0.4-0.4-0.9-0.9-1.2-1.4c-1.9-3-3.7-6-5.6-8.9c-0.7-1.1-0.8-2.1-0.3-3.3C344.6,503.2,344.9,502,345.2,500.9
	C345.2,500.8,345.2,500.9,345.2,500.9z"/>
</svg>
