<?xml version="1.0" encoding="utf-8"?>
<!-- Generator: Adobe Illustrator 19.0.0, SVG Export Plug-In . SVG Version: 6.00 Build 0)  -->
<svg version="1.1" id="图层_1" xmlns="http://www.w3.org/2000/svg" xmlns:xlink="http://www.w3.org/1999/xlink" x="0px" y="0px"
	 viewBox="0 0 595.3 841.9" style="enable-background:new 0 0 595.3 841.9;" xml:space="preserve">
<style type="text/css">
	.st0{fill:#FFFFFF;}
</style>
<path class="st0" d="M595.8,842.5c-198.3,0-396.6,0-595,0c0-280.5,0-561,0-841.6c198.3,0,396.7,0,595,0
	C595.8,281.4,595.8,561.9,595.8,842.5z M429.2,449.1l0.1-0.1c-1.2,1.2-2.2,2.4-2.5,4.2c-0.3,0.3-0.6,0.6-0.9,0.9
	c-2.2,3.2-4.3,6.3-6.5,9.5c-5.2,7.7-10.1,15.5-14.1,23.9c-4.3,9.1-8.5,18.3-12.8,27.5c-0.2,0.5-0.2,1.1-0.3,1.6
	c-0.3,0.9-0.6,1.7-0.9,2.6c-1.6,1.3-2.1,3.2-2.8,5c0.1,0.1,0.3,0.2,0.4,0.2c1.3-2.1,2.6-4.1,3.9-6.2l-0.1,0.1
	c1.3-1.2,2.5-2.4,2.9-4.2c0.1-0.1,0.1-0.1,0.2-0.2c1.7-0.8,2.8-2.3,3.7-3.9l-0.1,0.1c1-1.3,2-2.6,3-3.9l-0.1,0.1
	c0.5-0.8,1-1.7,1.5-2.5l-0.1,0.1c0.8-1.5,1.6-3.1,2.5-4.6c0.1-0.1,0.3-0.3,0.4-0.4c0.7-1.2,1.3-2.5,2-3.7l-0.1,0.1
	c1.6-2.4,3.2-4.8,4.8-7.2c0.3-0.4,0.4-1,0.6-1.5l-0.1,0.1c0.7-0.9,1.4-1.7,1.9-2.6c1.5-2.5,2.9-5.1,4.4-7.6l-0.1,0.1
	c1.3-2,2.6-3.9,3.9-5.9l-0.1,0.1c1.6-1.4,2.9-3,3.4-5.1c1.3-1.7,2.5-3.5,3.8-5.2c1-1.6,2.2-3.2,3.1-4.8c1.9-3.4,3.7-6.9,6.2-9.9
	c0.9-1.1,1.5-2.4,2.3-3.7c0.7-1.2,1.1-2.5,0.9-3.9c-0.4-2.3-0.6-4.6-1.3-6.8c-2.3-6.9-4.6-13.8-7.1-20.6
	c-6-16.2-11.5-32.5-15.9-49.2c-3.5-13.4-7.2-26.7-11.8-39.7c-2.5-7-5.1-14-6.4-21.3c-0.4-2-1-4-1.6-5.9l0.1,0.1
	c-0.4-2.3-1-4.5-1.3-6.8c-0.3-2.4-0.5-4.8-0.7-7.2c-0.2-2.3-0.4-4.6-0.6-6.9c-0.2-2.3-0.7-4.6-0.2-7.4c0.4,1,0.6,1.4,0.7,1.8
	c2.5,7.3,4.9,14.5,7.4,21.8c0.5,1.5,0.9,3.1,1.3,4.6c1.5,5.2,2.9,10.5,4.4,15.7c1.7,5.6,3.4,11.1,5.2,16.7c1.3,4,2.3,8,3.9,11.8
	c6.4,15.4,13.3,30.6,22.3,44.8c0.3,0.4,0.7,0.8,1.1,1.3c0.3-0.5,0.5-0.7,0.6-1c2.1-4.7,4.2-9.5,6.3-14.3c0.3-0.7,0.6-1.3,0.8-2
	c0.4-1.5,0.3-2-1.1-2.7c-2.4-1.2-4.5-2.8-6.2-4.9c-1.8-2.2-3.6-4.5-5.1-7c-5.8-9.2-10.8-18.9-14.9-29c-5.3-12.8-10.1-25.9-14.8-39
	c-4.5-12.6-8.5-25.3-12.6-38c-0.3-0.8-0.5-1.7-0.4-2.6c0.4-13.3,0.8-26.7,1.2-40c0.2-6.6,0.4-13.3,0.7-19.9c0.2-5.1-2.6-8.3-6.4-11
	c-0.2-0.2-0.4-0.5-0.7-0.7c-0.2-0.9-0.5-1.9-0.6-2.8c-0.7-4.4-2.2-8.5-4.9-12.1c-1.4-1.8-2.8-3.7-4.2-5.5
	c-4.7-6.1-10.5-11.1-16.5-15.9c-6-4.8-11.8-9.8-17.7-14.7c-1.6-1.4-2.6-2.9-2.6-5.1c0-2.1-0.2-4.2-0.6-6.2c-1.4-6.7-4.1-12.8-9-17.6
	c-5.1-4.9-11.5-7.7-18.2-9.6c-0.7-0.6-1.4-1-1.6-2.1c-0.4-2-1.1-4-1.7-5.9c-0.6-1.9-1.7-3.7-1.4-5.8c0.3-2.4-0.6-4.2-2.2-6.1
	c-2.1-2.5-3.8-5.3-3.7-8.8c0-1.9-0.2-3.8-0.5-5.7c-0.5-3.3-1.1-6.6-1.9-9.9c-0.5-2.1-1.7-3.9-3.6-4.9c-2.6-1.4-5.3-2.6-8-3.7
	c-1.1-0.4-1.9-0.9-2.5-1.9c-2.2-3.2-5-5.6-9-6.2c-7.8-1.2-15.1,0.4-22.1,3.7c-1.3,0.6-2.5,1.5-3.4,2.6c-1.6,1.9-3.1,3.9-4.2,6.1
	c-1.9,3.9-4.4,6.9-7.9,9.4c-1.7,1.2-3.1,1.6-5.1,1c-2.9-0.9-5.9-0.4-8.7,0.7c-1.9,0.7-3.3,2-4.1,3.9c-0.9,2-1.6,4.1,0.8,5.8
	c-0.5,1.1-1,2.1-1.5,3.1c-1,2.2-2,4.4-2.9,6.6c-1,2.4-1.3,4.9,1,6.5c-0.8,1.7-1.7,3-2.1,4.5c-1.8,6.8,2.1,14.4,9,17.1
	c2,0.8,3.7,1.8,5.2,3.3c3.4,3.4,7.7,5.1,12.2,6.4c0.6,0.2,1.2,0.4,1.8,0.6c-1.6,1.9-3.1,3.7-4.5,5.4c1,1.6,1.9,3,2.6,4.2
	c-3.6,1.7-7,3.3-10.4,4.9c-8.5,3.9-16.6,8.5-23.1,15.5c-0.5,0.6-1.1,1.1-2.1,0.8c-1.1-0.3-1.7,0.5-1.7,1.4c0,0.9,0.3,1.8,0.5,2.8
	c0.1,0.7,0.4,1.4,0.3,2c-2.2,8.9-4.6,17.8-6.8,26.7c-1.5,6.1-2.5,12.2-4,18.3c-2.8,11.5-5.8,22.9-8.5,34.4c-2.1,9-3.4,18-3.1,27.3
	c0,0.2-0.1,0.5-0.2,0.9c-1.4,0.4-2.8,0.9-4.2,1.2c-1.5,0.3-3,0.6-4.5,0.7c-1.4,0.1-2.9,0.1-4.3,0c-1.5-0.2-3-0.5-4.4-1
	c-1.3-0.5-2.5-1.2-3.8-1.8c3.3,4.4,5.6,8.9,3.9,14.5c3.4,0.4,6.7,0.8,9.9,1.2c0.1,0.4,0.2,0.6,0.2,0.7c-0.4,5.1-0.8,10.2-1.3,15.3
	c-0.1,0.7-0.6,1.5-1.1,2c-2,2.1-4,4.2-6.2,6c-4.2,3.6-8.5,7.1-14,8.6c-0.3,0.1-0.5,0.3-0.6,0.5c1.6,1.6,3.1,3.2,4.7,4.8
	c0.7,0.7,1.7,0.6,2.4,0.1c1.3-0.8,2.5-1.7,3.7-2.6c2.9-2.4,5.8-4.8,8.7-7.2c0.5-0.4,1-0.7,1.8-1.3c-0.1,1.7-0.2,3.1-0.3,4.4
	c-0.5,4.8-1.1,9.5-1.4,14.3c-0.1,1.5-0.1,3-1,4.3c-1.4,2.1-2.2,4.2-0.1,6.4c0.1,0.1,0,0.3,0.1,0.7c-1.5-0.6-2.9-1.1-4.3-1.6
	c-1.9-0.6-3.9-1.1-5.5,0.6c-1.1,0.1-1.4,1-1.4,1.9c0,1,0,2.1,0.2,3.1c0.5,2.6,1.1,5.2,1.8,7.7c0.9,3.3,1.3,6.6,1.1,10
	c-0.1,2,0,4,0,6c0,2.3,1.1,3.9,3.1,5c2.7,1.4,5.5,1.6,8.4,0.5c3.9-1.4,7.5-3.3,10.5-6.1c2.2-2.1,4.2-4.4,6.3-6.6
	c0.6-0.6,1-1.5,2.1-1.4c0.3,0.7,0.7,1.3,1,2c-0.4,0.4-0.8,0.7-1,1.2c-0.7,1.1-1.4,2.3-2.1,3.5c-4.2,7.1-8.4,14.2-12.5,21.2
	c-2.5,4.3-4.3,9.1-7.6,13c-0.7,0.9-0.4,1.6,0.4,2.3c0.9,0.7,1.7,1.4,2.6,2c-1.1,2.5-1.1,2.5,1.2,4.1c0.4,0.3,0.8,0.6,1.2,0.8
	c3,1.8,5.5,4.1,7.4,7.1c0.2,0.4,0.7,0.6,1.2,1.1c0.7-0.8,1.4-1.4,2-2.1c1.7-2.1,2.4-4.7,3-7.2c0.4-1.7,0.6-3.5,2-4.7
	c-0.1,0.9-0.1,1.7-0.3,2.6c-1.3,6.7-2.1,13.4-1.6,20.3c0.4,5.3,1.6,10.3,5.5,14.2c0.6,0.6,1.1,1.4,1.8,2c1.5,1.1,1.5,2.6,1.3,4.3
	c-1.5,12.3-1.7,24.6,0.8,36.8c1,5,0.5,9.8-1.5,14.5c-3.4,8.2-7.7,15.8-13.8,22.3c-1.7,1.8-1.6,2.2,0,4c2.2,2.6,4.3,5.1,6.5,7.7
	c1.6,1.9,2.3,2.1,4.2,0.6c3.4-2.6,6.4-5.5,8.4-9.4c0.2-0.4,0.5-0.7,0.9-1.3c1.1,5.3,3.9,9.3,6.9,13.2c1.3,1.6,2.4,3.4,3.6,5.1
	c0.8,1.2,1.2,2.4,1,3.8c-0.6,5.7-0.9,11.5-2,17.1c-2.8,14.4-9.3,27.1-18.6,38.4c-4,4.8-8.4,9-13.9,12c-0.5,0.2-0.8,0.7-1.4,1.2
	c0.8,0.8,1.5,1.4,2.1,2.1c2.4,2.3,4.8,4.5,7.1,6.8c1.8,1.8,2.2,2,4.6,1c1-0.4,1.9-0.8,3.3-1.4c-2.6,5.5-6.3,9.2-11,12.3
	c2.5,4.1,5.1,7.8,8.2,11.2c0.9,1,1.8,1,3,0c2-1.7,4-3.4,5.9-5.3c0.9-0.9,1.7-1.3,2.9-1.3c1.8,0.1,3.5,0,5.3,0.1
	c3.2,0.1,6.4,0.7,9.2,2.2c6.4,3.6,9.8,9.1,9.7,16.5c-0.1,4.7-0.6,9.4-1.1,14.1c-0.5,5.2,1,9.6,5,13.1c0.9,0.8,1.2,1.6,1.1,2.7
	c-0.2,2.5-0.2,5-0.8,7.4c-1.3,5.5-2.6,11-4.3,16.4c-3.1,9.5-3.5,18.9,1,28c2.3,4.7,4.9,9.4,7.7,13.8c2.9,4.6,6,9.1,10.9,12
	c-0.3,0.7-0.5,1.2-0.7,1.8c-1.5,4.6-3.1,9.2-4.4,13.9c-1,3.3-1.1,6.8-0.1,10.2c0.9,3.1,1.7,6.3,2.6,9.5c1,3.1,1.1,6.1,0.1,9.2
	c-1.5,4.9-3.1,9.7-4.8,14.6c-1.9,5.3-1.1,8.5,3.3,12.1c0.4,0.4,0.9,0.7,1.4,1c8.7,4.8,17.8,6.3,27.5,3.8c3-0.8,5.2-2.5,6.5-5.2
	c2.3-4.6,3.6-9.4,3.1-14.6c-0.2-2.2-0.1-4.5-0.3-6.7c-0.1-0.9-0.3-2-0.8-2.6c-2.1-2.1-2.7-4.7-3-7.4c-0.5-4.4-0.9-8.9-1.4-13.4
	c-0.7-5.8-0.6-11.5,1-17.1c0.4-1.3-0.1-1.8-1.3-2.3c-2-0.8-2.1-2.2-0.5-3.6c0.2-0.2,0.4-0.3,0.6-0.4c1.5-0.9,2-2.4,2.1-4.1
	c0.3-10.6,1.5-21.2,2.5-31.8c0.6-6.1,1.9-12,5-17.4c1.3-2.2,1.1-2.7-1-4.4c-0.2-0.1-0.3-0.4-0.5-0.6c0.2-0.8,0.4-1.7,0.7-2.5
	c3.6-9.5,6.9-19.1,10.8-28.5c4-9.7,8.2-19.3,10.7-29.5c2-8.3,3.8-16.7,5.6-25c2.2-10.5,4.2-21,6.3-31.5c1.1-5.7,1.1-11.4-0.6-17.1
	c-1.2-3.9-1.4-7.9-0.9-11.9c0.3-2.1,0.5-4.3,0.9-6.4c0.9-4.9,1.9-9.7,3-14.6c0.2-0.8,0.2-1.8,1.3-2c0.2,0.3,0.4,0.7,0.7,0.9
	c4.5,4.5,8,9.8,10.3,15.8c3,7.8,5.5,15.7,7.1,23.9c1.5,7.9,2.1,15.8,0.7,23.8c-1.4,8.5-3.4,16.7-6.2,24.9c-2.4,7.2-5.6,13.9-10,20.1
	c-1.6,2.2-3.1,4.4-4.6,6.7c-1.1,1.7-0.5,3,1.6,3.4c1.5,0.3,2.6-0.5,3.7-1.4c5.8-4.8,11.1-10.1,15.7-16.1
	c10.1-13.4,16.3-28.5,18.9-45.1c1.1-6.6,1.6-13.3,2.6-20c2.1-14.2,2.5-28.5,2.4-42.8c0-10.2-0.5-20.5-0.7-30.7
	c-0.1-2.2-0.6-4.6,0.2-6.4c0.8-1.8,2.9-3.1,4.5-4.6c1-0.5,2-1.1,3.1-1.6c0.8-0.4,1.7-0.8,2.5-1.3l-0.1,0.1c2-0.8,4.1-1.6,6.1-2.4
	c0.5-0.7,1.1-1.4,1.6-2.1c1.9-3.9,3.9-7.9,5.8-11.8l-0.1,0.1c1.9-1.2,2.1-3,1.9-5c-0.4-6.8-0.8-13.7-1.3-20.5
	c-0.2-3-0.1-5.9,2.5-8.1c0.8-0.7,1.1-1.6,0.7-2.6c-0.4-0.9-0.9-1.8-1.4-2.7c-0.1-0.6-0.2-1.3-0.3-1.9c-1.6-6.1-2.9-12.3-3.4-18.6
	c-1-12.1-1.7-24.2-1.5-36.4c0.3-17.5-0.4-34.8-3.4-52.1c-1.2-6.9-2.2-13.9-3.3-20.8c0-0.3,0-0.5,0.1-1.3c0.4,0.9,0.6,1.3,0.8,1.7
	c3.4,8.8,6.6,17.6,10.1,26.4c6.2,15.7,9.4,32,10.1,48.8c0.3,7.5-0.2,14.9-1.1,22.2c-0.9,7.3-2.5,14.3-5.9,20.8
	c-0.2,0.4-0.4,0.9-0.5,1.3c-1.1,3-0.7,5.8,1.4,8.1c1.9,2,4,3.8,6.1,5.7c1.9,1.7,4.2,2.7,6.7,2.9c3.8,0.2,6.5,2.2,9,4.9
	c2.1,2.2,4.3,4.3,6.3,6.5c1.8,2,3.3,4.3,4.9,6.4c0.8,1.1,0.8,2.2,0,3.3c-0.7,1.1-1.3,2.4-1.9,3.6c-0.1,0.2-0.1,0.4-0.2,0.7
	C430.2,447.3,429.7,448.2,429.2,449.1z"/>
<path class="st0" d="M430.7,446.3c0.1-0.2,0.1-0.4,0.2-0.7c1.9-1.5,2.7-3.7,3.9-5.6c1.8-2.7,2-5.6,1.4-8.8c-1.5-7.6-4.1-15-6.7-22.2
	c-4.8-13.4-9.6-26.8-13-40.6c-0.2-1-0.6-1.9-0.8-2.9c-0.2,0.3-0.3,0.6-0.2,0.8c2.9,12.2,6.5,24.2,10.8,36c3.2,8.6,6.3,17.2,8.4,26.2
	c0.4,1.9,0.7,3.9,0.9,5.9c0.1,1.6-0.4,3.1-1.5,4.4c-0.3-0.3-0.5-0.4-0.6-0.6c-3.4-5.5-8.5-9.5-12.8-14.3c-2.1-2.3-4.8-3.6-8-3.8
	c-2.1-0.1-4.1-0.9-5.8-2.2c-1.6-1.2-3.2-2.4-4.7-3.8c-4.4-4.1-4.9-6.6-2.4-12.1c0.4-0.8,0.8-1.6,1.1-2.4c1-2.9,2.2-5.7,2.8-8.6
	c1.8-7.7,2.5-15.5,2.7-23.3c0.4-11.4-1-22.7-3.1-33.8c-1.5-7.8-4.1-15.2-6.9-22.6c-3.7-9.6-7.4-19.2-11-28.9
	c-3.1-8.1-6.8-15.9-11.7-23c-2-2.9-4.5-4.8-8.1-4.8c-0.1,0-0.3-0.2-0.5-0.4c-1.1-6.5-2.2-13.2-3.3-19.8c0.5,6.2,1.4,12.4,2.2,18.5
	c1,7,2,14.1,2.9,21.1c0.1,1,0.3,2.1,0,3.6c-3.4-5.8-8.2-8.9-14-10.7c-0.6-0.2-1.2-0.4-1.8-0.6c-1.8-0.6-2.8-1.6-2.9-3.8
	c0-1.5,0.2-3.3-1-4.7c0.3-2.9-1.3-5.1-2.4-7.6c0,0.7,0.3,1.4,0.5,2c0.6,1.9,1.3,3.7,1.9,5.6c-0.1,2-1.8,2.7-3.2,3.5
	c-5.3,3-11.2,4-17.3,5.7c2.3-2.6,4.6-4.6,7-6.4c3.7-2.6,7.8-3.3,12.2-3.4c-4.2-1-8.2-0.3-11.8,2c-2.1,1.4-4.1,3.1-6,4.7
	c-1.8,1.6-3.3,3.5-5.2,5c-1.3,1.1-2.9,2-4.6,2.5c-2.2,0.7-4.6,0.7-6.4-1.5c1.4-0.4,2.7-0.8,4-1.2c2.7-1,3-1.5,2.3-4.3
	c-0.2-0.9-0.3-1.8-0.7-2.5c-2.4-5.2-4.7-10.5-6.4-16c0,0-0.1,0-0.3-0.1c0.1,0.5,0.1,1,0.2,1.5c1,4.7,2.9,9.1,4.8,13.5
	c0.6,1.5,0.9,3,1.3,4.6c0.3,1-0.1,1.7-1,2.1c-1.7,0.6-3.4,1.3-5.2,1.9c-1.5-4.5-1.6-9.1-3.3-13.3c0.5,4,1.1,7.9,1.8,11.8
	c0.1,0.5,0.2,1.2,0.6,1.5c2.1,2.2,4.6,3.7,7.9,3c2.1-0.5,3.8-1.6,5.6-2.6c2.8-1.4,5.6-2.7,8.5-3.8c2-0.7,4.2-0.9,6.3-1.4
	c3.3-0.9,6.3-2.3,9-5.1c0.1,1.4,0.2,2.3,0.2,3.1c-0.2,2.1,0.9,3.3,2.7,4c1.5,0.6,3,1.1,4.5,1.7c4.4,1.7,8,4.3,10.5,8.3
	c2.1,3.3,4,6.7,5.8,10.2c9.1,17.9,12.9,36.8,10.4,56.9c-0.9,7.3-3.1,14.2-7.3,20.4c-0.5,0.7-1,1.3-1.5,2c0.4-2.3,1.3-4.5,1.9-6.7
	c0.6-2.2,0.7-5.1,0.4-6.5c-0.5,2.5-0.6,5.6-1.7,8.3c-2.4,5.8-5.3,11.5-8.2,17c-1.1,2.1-2.9,4-4.7,5.7c-2,1.9-3.2,1.6-4.6-0.8
	c-3.5-6.2-8.4-11.3-13.6-16c-3.8-3.5-7.9-6.7-11.6-10.4c-7.2-7.3-15.5-13.1-24.2-18.3c-1.2-0.7-2.4-1.3-3.6-1.8
	c-2.1-0.9-4.4-1.5-6.5-2.4c-5.6-2.4-11.4-2.8-17.4-1.7c-3.4,0.6-6.7,1.3-10.1,1.9c-1.8,0.3-3.6,0.4-5.2-1c-1.4-1.2-1.5-1.5-0.2-2.7
	c0.9-0.8,1.8-1.5,2.8-2.2l0,0c4.2-0.7,8.4-0.9,12.5,0.7c1.6,0.7,3.4,0.8,5.1,0.3c-1.9-0.4-3.9-0.2-5.9-1.6c5-1.1,9.4-2.9,13.7-5
	c9.5-4.7,19.7-7,30-8.8c1.7-0.3,3.7,0,5.4,0.4c1.2,0.2,2.4,0.9,2.6,2.4c-1.9,1.8-4.3,2.8-7.2,2.9c-2.3,0.1-4.6-0.1-6.9,0
	c-4.1,0.1-8.3,0.2-12.4,0.5c-2.6,0.2-5.2,0.8-7.5,2.3c-1.9,1.2-3.1,2.9-2.7,5.2c0.4,2.4,1.6,4.3,4.2,4.9c0.6,0.4,1.2,0.7,1.8,1.1
	c0.1-0.2,0.2-0.3,0.2-0.5c-0.7-0.2-1.4-0.4-2.1-0.5c-0.4-0.4-0.9-0.9-1.3-1.3c-3.3-2.7-3-6.6,0.7-8.6c1-0.6,2.2-1,3.3-1.3
	c5.7-1.4,11.5-1.5,17.4-1.2c2.5,0.1,5,0,7.4-0.3c1.5-0.2,3-1,4.4-1.7c1.9-1.1,1.9-2.5,0-3.7c-0.9-0.6-2-1.1-3.1-1.2
	c-2.1-0.1-4.2-0.2-6.2,0.2c-10.8,2.2-21.5,4.6-31.5,9.7c-3,1.5-6.2,2.7-9.4,3.5c-4.4,1.1-9,0.2-13.6,0.4c-0.1,0-0.2-0.2-0.4-0.4
	c1.1-2.7,2.1-5.4,3.3-8.1c0.1-0.3,0.4-0.5,0.6-0.7c2.2-2.1,2.3-4.5,0.9-7c-0.9-1.5-1.2-3.1-1.3-4.8c-0.3-5.1-0.6-10.2-0.9-15.4
	c-1.1,5.7,0,11.3,0.2,17.2c-5.8-3.2-12.2-4.6-17.6-8.3c-0.3-0.2-0.6-0.4-0.9-0.6c-0.3-0.7-0.6-1.5-1-2.3c2,0.5,3.7,1.1,5.5,1.4
	c3.1,0.6,4.3-0.1,5.3-3c0.7-1.9,1.2-3.8,1.7-5.7c0.6-2,1-4.2,2.8-5.6c0.4-0.3,0.7-0.9,0.9-1.4c1.4-3.5,2.9-6.9,4.3-10.4
	c0.3-0.7,0.4-1.6,0.6-2.4c-1.2,2.1-2,4.4-2.8,6.6c-0.8,2.1-1.6,4.3-3,6.1c-0.2-0.1-0.3-0.1-0.5-0.2c0-1.1,0-2.1,0-3.7
	c-4.2,1.9-8.2,1.3-12.3,1.1c-4.1-0.2-8.2-0.9-12.3-2.1c0.8-1.8,1.9-3.1,3.4-4.1c0.4,0.6,0.7,1,1.1,1.4c1.1,1.2,1.6,1.2,2.7,0
	c0.4-0.5,0.8-1,1.1-1.6c1.1-2,2.1-3.9,3.2-5.9c0.6-1.1,1.2-2.2,1.8-3.3c-2.9,3.2-4.5,7.3-7.2,11.2c-1-1.1-1.7-1.9-2.1-2.4
	c3.2-5,6.3-9.6,9.3-14.3c0.6-0.9,1.2-1.2,2.2-1.1c2.3,0.1,4.7,0.4,6.6,1.9c2.2,1.7,4.3,3.6,6.4,5.4c0.6,0.5,1,1.3,1.8,1.2
	c-0.8-1-1.6-2.2-2.6-3.1c-3.7-3.5-7.6-6.6-13.3-6.1c-1.1,0.1-1.8-0.4-2-1.6c-0.4-2.1-1.7-3.8-3.3-5.2c-2.5-2.2-5.1-4.3-7.7-6.5
	c-1.1-0.9-2.2-1.9-3.1-3c-1.8-2.1-1.6-2.7,0.8-4.2c0.3-0.2,0.5-0.4,0.7-0.6c1,0,1.9-0.1,2.9-0.1c4,0,8,0.2,11.9,0.1
	c4.2-0.2,8.4-1,12.3-2.7c4.3-1.9,8.6-3.9,12.9-5.8c2.7-1.2,4.9-3,6.8-5.2c4.8-5.3,10.7-9,17.6-11.1c3.8-1.1,7.6-1.2,11.3,0.1
	c1.2,0.4,2.4,0.7,3.7,1c2.6,0.6,5.2,1.1,7.8,0.1c2.9-1.1,5.8-2.3,6.8-5.7c1.6-1.5,1.9-3.6,2.3-5.6c0.4-2,0.6-4.1,0.9-6.2
	c2-11.4,2.8-23,4-34.5c0.7-6.1,1.4-12.2,2.2-18.3c0.8-6.6,2.2-13.1,2.2-19.7c0-0.7,0.2-1.4,0.3-2.2c0.4,0.2,0.6,0.3,0.8,0.5
	c6.6,5.7,13.1,11.5,19.9,16.9c6.6,5.3,12.3,11.4,17.6,17.9c4.6,5.7,6.8,12,6.9,19.2c0.1,3.7,0.4,7.5,0.6,11.2c0.2-4,0.2-8,0.2-12
	c0-0.5,0.1-1.1,0.2-1.6c0.2,0.2,0.4,0.5,0.7,0.7c0.5,0.6,0.9,1.4,1.5,1.8c3.6,2.8,4.5,6.6,4.1,10.9c0,0.6,0,1.1,0,1.7
	c-0.6,14.9-1.3,29.7-1.7,44.6c-0.2,7.3,0.1,14.7,0.1,22.1c0,0.4,0.2,0.9,0.2,1.3c0.4-2.2,0.3-4.5,0.5-6.7c0.5,0.9,0.9,1.8,1.2,2.7
	c4.9,15.9,9.8,31.7,15.8,47.3c5.6,14.5,11,29,18.4,42.7c3,5.6,6,11.1,9.8,16.2c2.3,3.1,4.9,5.7,8.4,7.3c0.3,0.2,0.6,0.5,1.1,0.8
	c-2.5,5.6-5,11.2-7.6,17c-2.3-3.8-4.4-7.5-6.5-11.1c-5.5-9.6-9.7-19.8-14.2-29.9c-2.5-5.6-4.5-11.4-6-17.4
	c-1.1-4.2-2.5-8.2-3.8-12.4c-1.6-5.2-3.1-10.4-4.7-15.6c-1.1-3.7-2.2-7.5-3.4-11.2c-2.6-8.1-5.3-16.2-8-24.3c-0.1-0.4-0.4-0.7-0.6-1
	c0.9,17.6,2.4,35.1,5.2,52.4c-0.4-5.2-1-10.3-1.4-15.5c-0.1-0.9,0.1-1.8,0.2-2.8c0,0-0.1-0.1-0.1-0.1c0.2,1.2,0.4,2.4,0.6,3.5
	c1,4.9,1.9,9.9,3.6,14.6c4.3,12.5,8.6,25.1,12.1,37.9c2.6,9.8,5,19.7,8.2,29.3c4.6,14.1,9.8,28,14.6,42.1c1.4,4,2.5,8.1,3.8,12.1
	c1.1,3.3,0.3,6.2-1.5,9.1c-3.3,5.3-6.3,10.8-9.4,16.2c-0.2,0.3-0.2,0.8-0.2,1.1c-1.3,1.7-2.5,3.5-3.8,5.2c-1.1,1.7-2.3,3.4-3.4,5.1
	c0,0,0.1-0.1,0.1-0.1c-1.7,1.7-3.1,3.6-3.9,5.9l0.1-0.1c-1.5,2.3-3.1,4.5-4.6,6.8c-0.7,1-1.2,2.2-1.7,3.3c0,0,0.1-0.1,0.1-0.1
	c-1.2,1.7-2.5,3.4-3.6,5.2c-0.7,1.1-1.2,2.4-1.8,3.5c0,0,0.1-0.1,0.1-0.1c-1.1,1-1.8,2.2-2,3.7c-0.1,0.1-0.3,0.3-0.4,0.4
	c-0.8,1.5-1.6,3.1-2.5,4.6l0.1-0.1c-0.5,0.8-1,1.7-1.5,2.5l0.1-0.1c-1,1.3-2,2.6-3,3.9l0.1-0.1c-1.2,1.3-2.5,2.6-3.7,3.9
	c-0.1,0.1-0.1,0.1-0.2,0.2c-1,1.4-2,2.8-2.9,4.2l0.1-0.1c-0.5,0.3-1,0.7-1.5,1c0.3-0.9,0.6-1.7,0.9-2.6c0.3-0.5,0.6-0.9,0.9-1.4
	c2.3-4.8,4.6-9.5,6.8-14.3c4.6-10.4,9.5-20.8,15.8-30.4c3.1-4.7,6.1-9.4,9.2-14.1c0.5-0.7,0.7-1.6,1-2.3c0.3-0.3,0.6-0.6,0.9-0.9
	c0.8-1.4,1.6-2.8,2.5-4.2c0,0-0.1,0.1-0.1,0.1C429.7,448.2,430.2,447.3,430.7,446.3z M396.3,302.9c0.1,1.1,0.2,2.2,0.2,3.3
	c0.1,0,0.3,0,0.4,0C396.8,305.1,396.5,304,396.3,302.9c-1.3-5.6-2.5-11.2-4-16.7c-5.9-21.5-10.1-43.4-13.9-65.4
	c-3-17.1-6.1-34.3-9.3-51.4c-0.5-2.9-1.3-5.8-1.9-8.6c-0.3,0.5-0.3,0.8-0.2,1.2c1.4,6.9,2.9,13.7,4.2,20.7
	c3.4,19.1,6.8,38.2,10,57.4c3.5,20.9,9.5,41.3,14.5,61.8C395.7,302.2,396.1,302.5,396.3,302.9z M335.2,270.5
	c-0.4-0.4-0.8-0.8-1.3-1.2c-0.1,0.1-0.2,0.3-0.3,0.4C334.1,270,334.7,270.2,335.2,270.5c0.5,0.5,0.9,1.1,1.4,1.5
	c4.6,3.9,8,8.7,10.3,14.3c2.1,5.2,3.2,10.7,3.7,16.3c0.8,7.7,0.3,15.3-0.2,23c-0.2,2.5-0.1,5.1,0.3,7.6c0.5,3.4,2.3,6.3,5.4,8.1
	c2.2,1.3,4.6,2.4,7.1,2.6c1.9,0.2,3.8,0.3,5.7,0.4c4.8,0.2,8,3.3,8.2,8.2c0,0.6,0,1.2,0,1.8c0.5-0.2,0.6-0.5,0.7-0.7
	c1.2-3.4-2.1-9.6-7.2-10.1c-1.7-0.2-3.5-0.3-5.3-0.3c-2.8-0.1-5.3-0.9-7.8-2.2c-2.9-1.5-5-3.8-5.6-7.1c-0.4-2.3-0.6-4.8-0.5-7.1
	c0.1-6.3,0.5-12.6,0.5-18.9c0-5.7-0.8-11.3-2.4-16.8c-2.2-7.6-6-14.1-12.2-19.1C336.7,271.3,335.9,271,335.2,270.5z M350.6,251.3
	c-0.2,0.1-0.3,0.2-0.5,0.3c-0.7-0.9-1.5-1.8-2.1-2.8c-3.2-4.4-7.4-7-12.7-7.7c-1.7-0.2-3.5-0.6-5.1-1.2c-2.1-0.7-2.6-1.5-2.6-3.7
	c0-0.6,0.1-1.1,0.2-1.7c0.9-6.2,1.8-12.3,2.7-18.5c0.2-1.2,0.3-2.5,0.5-3.7c-0.8,2.8-1.2,5.6-1.7,8.4c-0.8,4.7-1.6,9.4-2.4,14.2
	c-0.6,3.9,0.5,5.4,4.4,6.3c1.9,0.4,3.8,0.7,5.6,1.1c3.9,0.8,7.1,2.8,9.6,5.9c0.9,1.1,1.7,2.3,2.7,3.4c0.5,0.6,1.1,1,1.9,1.8
	c0.1-0.9,0.1-1.3,0.1-1.6c0.1-11.1-0.9-22-3.2-32.9c-1.3-6.5-2.8-13-5.3-19.1c-0.6-1.5-1.4-2.9-2.2-4.4
	C347.7,213.4,349.9,232.2,350.6,251.3z M270.5,266.4c0.4-0.1,0.8-0.1,1.3-0.2c1.9-0.5,3.9-1,5.8-1.4c3-0.6,5.6-1.7,7.9-3.8
	c2.6-2.4,5.3-4.9,8-7.3c1.1-1,2.2-2.1,3.5-2.9c4.2-2.6,8.5-5.1,12.8-7.6c0.7-0.4,1.3-0.9,1.8-1.5c2.6-3.5,6.1-5.6,10.1-7
	c1.4-0.5,2.7-1.3,4-1.9c-0.1-0.2-0.2-0.4-0.3-0.6c-2.4,1.1-4.8,2-7,3.2c-1.7,0.9-3.5,2-4.9,3.4c-2.1,2.3-4.5,4.3-7.3,5.7
	c-0.4,0.2-0.8,0.5-1.2,0.8c-6.2,4.2-12.9,7.4-19.9,10c-1.3,0.5-2.5,1-3.7,1.5c0.1,0.2,0.1,0.3,0.2,0.5c3.8-1.4,7.7-2.9,11.5-4.3
	c-2.3,2.5-4.8,4.6-7.1,6.9c-2.8,2.6-6,4.1-9.8,4.6C274.1,264.6,272.1,265.1,270.5,266.4z M362.6,231.7c0.1,0,0.2-0.1,0.3-0.1
	c0-0.7,0-1.4-0.1-2.1c-0.6-5.6-1.1-11.1-1.8-16.7c-1.1-8.3-2.3-16.6-3.7-24.9c-1.3-7.5-3.1-15-4.6-22.5c-0.7-3.6-1.2-7.2-1.9-10.7
	c-0.3,0.7-0.3,1.3-0.2,1.9c1.1,6.4,2.1,12.9,3.5,19.3c2.6,12.1,4.7,24.3,6.1,36.6C361,218.9,361.8,225.3,362.6,231.7z M272.1,289.7
	c1.3-0.5,2.4-1.3,3.6-1.4c3.6-0.3,6.8-1.6,10.1-2.9c6.3-2.5,12.6-5,19-7.4c1.6-0.6,3.4-0.7,4.4-2.6c0.4-0.8,1.4-1.2,2.1-1.9
	c0.5-0.5,0.5-1.1-0.2-1.6c-2.1,2.8-4.9,4.4-8,5.7c-5.8,2.4-11.7,4.6-17.5,7.2c-3.9,1.7-7.9,2.6-12.1,2.5c-3.5-0.1-7.1-0.4-10.7-0.6
	c3.1,1.2,6.4,1.3,9.7,1.8C272.2,288.9,272.2,289.3,272.1,289.7z M263.5,253.8c0.1,0.1,0.2,0.2,0.2,0.4c0.4-0.1,0.7-0.2,1.1-0.3
	c11.1-3.6,21.1-9.1,30.5-15.9c5.6-4.1,11.3-8.1,17-12.1c0.7-0.5,1.3-0.9,2-1.3c-1.9,0.5-3.7,1.3-5.2,2.4c-4,2.8-8,5.6-11.9,8.5
	c-9.3,7-19.2,12.9-30.2,16.9C265.9,252.9,264.7,253.4,263.5,253.8z M331.9,316.5c2.7-6.7-3.2-33.5-10-43.6
	C327.5,286.9,331.9,301.1,331.9,316.5z M386.8,170.5c-0.6-3.1-1.3-6.2-3.2-8.9c-3.4-4.7-7.8-8.2-13.2-10.4c-0.9-0.4-1.9-0.5-2.8-0.7
	C377.1,154.2,384,160.3,386.8,170.5z M310.5,281.5c-0.6,3.2-1.8,6.2-3.4,9.1c-1.2,2.1-2.4,4.1-3.5,6.2c-0.6,1.1-1.2,2.3-1.6,3.5
	c-0.5,1.5-0.2,3,0.9,4.3c-1-2.8,0-5.1,1.3-7.5c1.6-2.9,3.2-5.8,4.8-8.8C310,286.2,310.6,283.9,310.5,281.5z M345.1,304.6
	c-1.6,3.9-2.6,7.4-5.2,10.1c-2.5,2.7-5.5,4.7-8.8,6.4C338.7,319,344.4,311.8,345.1,304.6z M275.7,258.6c0,0.1,0.1,0.3,0.1,0.4
	c1.1-0.4,2.2-0.7,3.3-1.1c0-0.1-0.1-0.3-0.1-0.4C277.9,257.9,276.8,258.3,275.7,258.6z"/>
<path d="M328.5,519.5c-1.2,0.2-1.2,1.2-1.3,2c-1,4.8-2.1,9.7-3,14.6c-0.4,2.1-0.6,4.3-0.9,6.4c-0.5,4-0.3,8,0.9,11.9
	c1.7,5.7,1.7,11.4,0.6,17.1c-2,10.5-4.1,21-6.3,31.5c-1.7,8.4-3.6,16.7-5.6,25c-2.5,10.2-6.7,19.8-10.7,29.5
	c-3.8,9.4-7.2,19-10.8,28.5c-0.3,0.8-0.5,1.7-0.7,2.5c0.2,0.3,0.3,0.5,0.5,0.6c2.1,1.7,2.2,2.2,1,4.4c-3.1,5.4-4.4,11.3-5,17.4
	c-1.1,10.6-2.2,21.2-2.5,31.8c-0.1,1.7-0.6,3.1-2.1,4.1c-0.2,0.1-0.4,0.3-0.6,0.4c-1.6,1.5-1.4,2.8,0.5,3.6c1.2,0.5,1.7,1,1.3,2.3
	c-1.6,5.6-1.7,11.3-1,17.1c0.5,4.4,0.9,8.9,1.4,13.4c0.3,2.7,0.9,5.3,3,7.4c0.6,0.6,0.8,1.7,0.8,2.6c0.2,2.2,0.1,4.5,0.3,6.7
	c0.4,5.2-0.9,10-3.1,14.6c-1.3,2.7-3.5,4.5-6.5,5.2c-9.7,2.5-18.9,1.1-27.5-3.8c-0.5-0.3-0.9-0.6-1.4-1c-4.4-3.6-5.2-6.7-3.3-12.1
	c1.7-4.8,3.3-9.7,4.8-14.6c1-3.1,0.8-6.1-0.1-9.2c-1-3.1-1.7-6.3-2.6-9.5c-1-3.4-0.9-6.8,0.1-10.2c1.3-4.7,2.9-9.3,4.4-13.9
	c0.2-0.6,0.5-1.2,0.7-1.8c-4.9-2.9-8-7.4-10.9-12c-2.8-4.5-5.4-9.1-7.7-13.8c-4.5-9.1-4.1-18.5-1-28c1.7-5.4,3.1-10.9,4.3-16.4
	c0.6-2.4,0.5-4.9,0.8-7.4c0.1-1.1-0.3-2-1.1-2.7c-4-3.5-5.5-7.9-5-13.1c0.5-4.7,1-9.4,1.1-14.1c0.1-7.3-3.2-12.9-9.7-16.5
	c-2.8-1.6-6-2.1-9.2-2.2c-1.8-0.1-3.5,0-5.3-0.1c-1.2-0.1-2,0.4-2.9,1.3c-1.8,1.9-3.8,3.6-5.9,5.3c-1.2,1-2.1,1-3,0
	c-3.1-3.4-5.7-7-8.2-11.2c4.6-3.1,8.4-6.8,11-12.3c-1.4,0.6-2.4,1-3.3,1.4c-2.4,0.9-2.8,0.8-4.6-1c-2.3-2.3-4.7-4.5-7.1-6.8
	c-0.7-0.6-1.3-1.3-2.1-2.1c0.6-0.5,1-0.9,1.4-1.2c5.5-3,9.9-7.2,13.9-12c9.3-11.3,15.8-24,18.6-38.4c1.1-5.6,1.3-11.4,2-17.1
	c0.2-1.4-0.2-2.7-1-3.8c-1.2-1.7-2.3-3.4-3.6-5.1c-3-3.9-5.8-7.8-6.9-13.2c-0.5,0.7-0.7,1-0.9,1.3c-1.9,3.9-5,6.8-8.4,9.4
	c-1.9,1.5-2.6,1.3-4.2-0.6c-2.2-2.6-4.3-5.2-6.5-7.7c-1.6-1.9-1.7-2.2,0-4c6.1-6.5,10.4-14.1,13.8-22.3c1.9-4.8,2.5-9.5,1.5-14.5
	c-2.5-12.2-2.3-24.5-0.8-36.8c0.2-1.7,0.1-3.1-1.3-4.3c-0.7-0.5-1.2-1.3-1.8-2c-3.9-3.9-5.1-8.9-5.5-14.2
	c-0.5-6.9,0.4-13.6,1.6-20.3c0.2-0.9,0.2-1.7,0.3-2.6c0,0-0.1,0.1-0.1,0.1c0.1,0.7,0.4,1.4,0.4,2c-0.3,2.8-0.8,5.5-1.1,8.3
	c-0.7,5.8-0.6,11.7,0.5,17.4c0.6,3.4,2.3,6.2,5.1,8.8c-1.3-8.2-1.1-16,0.8-23.8c0.1,0.6,0.1,1.2,0,1.8c-0.3,3.8-0.8,7.6-0.8,11.5
	c0,3.3,0.6,6.7,0.9,10c0,0.4,0.4,0.7,0.7,1.1c1.6-8.5,1.3-16.9,1.5-25.3c0.9,3.4,0,6.9,0.9,10.6c4.2-9.6,5.7-19.4,7-29.3
	c0.1,0.6,0.2,1.1,0.1,1.7c-0.7,8-1.8,15.9-4.7,23.4c-1.5,4-2.5,8.1-2.7,12.4c-0.2,3.7-0.5,7.5-0.8,11.2c-0.3,3.3-0.6,6.5-1,9.8
	c-1.1,11.4,0,22.7,3,33.7c1.6,5.8,3.8,11.3,5.8,17c0.3,0.9,0.6,1.9,0.9,2.9c-1.6-2.8-2.8-5.6-3.8-8.6c-1.1-2.9-2-5.8-3-8.8
	c-0.4,0.8-0.4,1.5-0.4,2.2c0.5,8.2,1.9,16.3,3.2,24.5c1,6.4,3.5,11.9,7.7,16.8c0.9,1,1.6,2.2,2.4,3.3c0.3,0.4,0.6,0.7,1.3,1.4
	c-0.2-2.2-0.3-3.8-0.5-5.5c0.5,0.4,0.7,0.8,0.8,1.3c0.2,2.3,0.5,4.6,0.5,6.9c0,6.9-0.7,13.7-2.3,20.5c-3.6,16-11.2,29.8-22.5,41.7
	c-2.7,2.8-5.7,5.1-9,7.1c-0.6,0.3-1.1,0.8-2,1.4c0.7,0.6,1.3,1,1.8,1.5c2.4,2.2,4.8,4.4,7.1,6.8c1.2,1.2,2.3,1.5,3.8,0.8
	c1.4-0.6,2.7-1.2,4.1-1.9c0.1,0.1,0.3,0.2,0.4,0.3c-2,5.5-5.5,9.9-10.6,13.4c2.1,3.6,4.6,6.9,7.3,10.1c0.6,0.7,1.4,0.7,2.2,0.2
	c0.5-0.3,0.9-0.6,1.3-1c4.5-3.5,7.7-8.1,10.9-12.7c5.7-8,9.7-16.9,13.2-26c3.7-9.4,5.8-19.3,8.1-29.1c0.4-1.9,0.7-3.8,1-5.7
	c0.7-4.5-0.3-8.6-2.6-12.4c-1.1-1.8-2.2-3.7-3.2-5.5c0.9,1.1,1.8,2.2,2.7,3.3c3.9,5.3,5.1,11.1,3.8,17.5c-0.7,3.2-1.3,6.4-2.1,9.6
	c-2.5,10.4-5.4,20.7-10,30.5c-3.9,8.3-8,16.4-13.9,23.4c-0.2,0.3-0.4,0.6-0.8,1.3c1.2-0.1,2.1-0.1,2.9-0.1c3.5-0.2,7,0,10.4,1.1
	c4.5,1.4,7.9,4,10.3,8.1c2.1,3.6,2.9,7.4,2.6,11.5c-0.1,1.3-0.3,2.6,0.7,3.6l0,0c-0.3,0.5-0.9,1-1,1.6c-0.4,3.6-0.8,7.1-1,10.7
	c-0.2,2.4,0.6,4.6,2,6.5c2.9,4.2,7,6.4,11.9,7.3c3.4,0.7,6.8,0.4,10.2,0.2c4.5-0.2,8.9,0.5,13.1,2.4c0.5,0.2,1,0.4,1.6,0.7
	c0.1-0.5,0.3-0.7,0.3-1c0.3-4.3,0.6-8.6,1-12.9c0.7-7.9,1.2-15.8,2.2-23.6c1.3-10.1,3-20.2,4.6-30.3c0.7-4.3,1.4-8.5,2.2-12.7
	c1.1-5.9,2.3-11.8,2.7-17.8c0.2-3.2,0.6-6.4,1.2-9.5c1.5-7.9,2.8-15.9,2.9-24c0.2-8.9-0.2-17.7-0.6-26.6c-0.2-5-0.1-9.9,1-14.8
	c1.6-7.4,3.5-14.8,5.2-22.2c4.7-20.3,9.3-40.6,13.9-61c1.8-8.2,3.5-16.4,4.3-24.8c0.1-1.4-0.1-2.7-0.7-3.9
	c-4.4-8.2-8.8-16.5-13.2-24.7c-4.2-7.8-8.5-15.6-12.8-23.3c-0.4-0.7-0.5-1.5-0.8-2.2l-0.1,0c0.6,0.9,1.3,1.7,1.9,2.6
	c2.8,5.1,5.5,10.3,8.4,15.4c4.2,7.6,8.8,15.1,12.8,22.8c7.3,13.8,14.2,27.7,21.4,41.5c5.6,10.8,11,21.7,15.3,33
	c6.7,17.6,12.5,35.6,17.1,53.9c2.4,9.8,4.5,19.6,5.5,29.7c0.3,3.2,0.9,6.5-0.1,9.9c-0.1-0.4-0.1-0.6-0.1-0.8
	c-0.2-9.7-1.8-19.2-3.9-28.7c-2.8-12.9-6.4-25.6-10.4-38.1c-1.2-3.7-2.5-7.4-3.8-11.1c-0.2-0.6-0.3-1.3-1.2-1c0-0.9,0.2-1.9-0.1-2.8
	c-4.6-13.3-10.2-26.2-16.7-38.7c-5.4-10.3-10.7-20.5-16.1-30.8c-0.3-0.5-0.6-1.1-1.1-1.9c-0.2,0.7-0.4,1-0.5,1.4
	c-0.5,2.8-1,5.6-1.6,8.5c-1.3,6.7-2.6,13.5-4.1,20.2c-5.4,23.5-10.9,47-16.4,70.5c-1.3,5.5-2.6,11.1-2.5,16.8
	c0.1,6.7,0.1,13.4,0.6,20.1c0.7,9.9-0.5,19.6-1.9,29.4c-0.7,4.6-2,9.1-2.3,13.7c-0.4,5.8-1.2,11.6-2.2,17.3
	c-1.8,10.3-3.5,20.6-5.2,31c-1.9,11.8-3.3,23.7-4.1,35.7c-0.3,4.3-0.7,8.6-0.9,12.9c-0.1,1.5,0.1,3-0.1,4.5c-0.2,1.6-0.8,3.2-1,4.9
	c-0.4,3-0.7,6-1.1,9.1c6,0.7,12.1-1,17.6,2.2c0.3-0.7,0.4-1.1,0.6-1.5c4.3-11.3,8.5-22.6,13-33.8c3.1-7.9,6.5-15.7,8.5-23.9
	c4.6-18.7,8.5-37.6,12-56.5c1.2-6.2,1.2-12.3-0.5-18.5c-0.8-2.8-1.2-5.9-1-8.7c0.5-5.8,1.5-11.6,2.5-17.3c1.4-7.6,3.9-14.8,6.4-22.1
	c4.6-13.6,10.1-26.9,16.9-39.6c0.4-0.7,0.9-1.3,1.3-1.9c-0.3,0.8-0.5,1.7-0.9,2.4c-4.6,8.9-8.3,18.3-11.9,27.6
	c-2.9,7.5-5.3,15.2-7.9,22.8C328.1,518,327.6,518.8,328.5,519.5L328.5,519.5z M258.8,813.1c0.2,0,0.4,0.1,0.5,0.1
	c0.2-0.5,0.4-1,0.5-1.5c1-4.6,1.3-9.3,0.7-14.1c-0.7-6.1-0.8-12.1,0.8-18.1c0.8-2.9,2-5.5,4.2-7.7c1.9-1.8,3.7-3.7,5.5-5.6
	c0.3-0.3,0.5-0.8,0.8-1.2c-1.3,0.4-2.2,1.1-3.2,1.7c-0.8,0.5-1.6,1-2.5,1.3c-1.8,0.5-3.6-0.4-3.7-2c-0.2-3.3-0.7-6.7,1.1-9.8
	c1-1.7,1.2-3.5,0.9-5.5c-0.2-1.5-0.1-3.2,0.3-4.7c1.2-5.1,2.6-10.2,3.8-15.3c0.2-0.9,0.3-2.1-0.2-2.8c-1.5-2.2-1.1-4.4-0.2-6.6
	c1-2.4,1.3-4.9,1-7.5c-0.3-3.1,0.4-5.9,2-8.5c0.7-1.2,1.4-2.3,2-3.5c1-2,0.9-2.3-0.8-3.9c-0.8-0.8-1.4-1.7-2.1-2.6
	c-0.3-0.4-0.6-0.8-1-1.4c-0.2,0.9-0.4,1.4-0.5,1.9c-1.6,8.7-3.3,17.4-4.9,26.1c-2.1,11.3-4,22.6-7.4,33.7c-0.4,1.3-0.7,2.7-0.6,4
	c0.4,5,0.6,10.1,1.4,15c1.6,10,1.9,20,1.7,30.1C258.7,807.6,258.8,810.4,258.8,813.1z M204.3,474c-3.4,10.7-8.9,19.9-16.6,28
	c0.3,0.5,0.5,0.8,0.8,1.1c2.3,2.7,4.5,5.4,6.8,8c1.4,1.7,1.7,1.8,3.5,0.3c3.2-2.5,6-5.4,8-9.1c0.8-1.5,1-2.9,0.7-4.5
	c-0.9-5.5-1.7-11-2.4-16.6C204.7,478.9,204.5,476.4,204.3,474z M258,723.2c0.1,0,0.2,0,0.3,0c0.2-1.2,0.5-2.4,0.5-3.5
	c0.2-5.6,0.5-11.2,0.6-16.8c0.1-5.8,0.1-11.5,0-17.3c-0.1-3.1,2.7-7.1,6.2-7.5c2.2-0.3,4.4-0.7,6.8-1.2c0.2-1.7,0.4-3.4,0.6-5.1
	c-5.6-2.8-11.3-3.7-17.3-2.8c-0.2,1.3-0.4,2.5-0.7,3.6c-0.4,1.7-0.1,3.2,1.2,4.4c1.2,1.1,1.4,2.4,1.4,3.9c-0.1,2.9-0.2,5.8-0.1,8.6
	c0.1,3.9,0.5,7.8,0.5,11.7C258,708.7,258,715.9,258,723.2z"/>
<path d="M332.3,207.1c-1,3.4-4,4.5-6.8,5.7c-2.6,1-5.2,0.5-7.8-0.1c-1.2-0.3-2.5-0.6-3.7-1c-3.8-1.2-7.6-1.2-11.3-0.1
	c-6.9,2.1-12.7,5.8-17.6,11.1c-2,2.1-4.1,4-6.8,5.2c-4.3,1.9-8.6,3.9-12.9,5.8c-3.9,1.7-8.1,2.5-12.3,2.7c-4,0.2-8,0-11.9-0.1
	c-1,0-1.9,0-2.9,0.1c0,0,0,0.1,0,0.1c0.9-0.2,1.9-0.5,2.8-0.6c2.2-0.1,4.5-0.1,6.9-0.2c-0.6-1.9-1-3.5-1.5-5l0,0
	c0.8,1.3,1.7,2.6,2.4,4c0.5,0.8,1,1.1,2,1c4.7-0.5,9.4-0.9,13.8-2.8c4.9-2.1,9.6-4.3,14.4-6.4c0.9-0.4,1.7-1,3-1.8
	c-0.7-0.4-1.1-0.6-1.3-0.9c-2.4-2.3-5.5-2.8-8.5-3.7c-3.6-1-7.3-1.8-10.8-3.2c-9.3-3.7-16.2-10.4-21.9-18.4
	c-1.2-1.7-2.1-3.7-2.2-5.8c-0.2-3.3-0.6-6.6-0.3-9.8c0.8-7.7,1.6-15.4,2.9-23.1c1.5-8.3,3.5-16.6,5.3-24.8
	c1.2-5.5,2.2-11.1,2.4-16.8c0-1.6,0.3-3.2-1.5-4.3c-1.2,0.5-2.5,0.9-3.7,1.5c-3.8,1.8-7.6,3.7-11.4,5.7c-6.1,3.2-12.1,6.6-16.8,11.8
	c-1.3,1.4-2.6,2.9-4.7,2.4c-0.9,3,1.9,4.3,3,6.6c-0.9-0.8-1.6-1.3-2.4-2c-0.4,1.5-0.8,2.8-1.1,4.1c-2.6,11.4-5.1,22.7-7.8,34.1
	c-2.5,10.4-5.2,20.8-7.7,31.1c-1.9,7.8-3.9,15.5-4.8,23.5c-0.4,3-0.4,6.1-0.8,9.1c-0.3,1.9,0.1,3.7,0.4,5.7c0.5-0.1,0.9-0.2,1.3-0.3
	c5.3-2.2,10.9-2.7,16.5-1.6c2.8,0.6,5.6,1.5,8.4,2.3l0-0.1c-2-0.4-4-0.8-6.1-1.2c-6.3-1.2-12.5-1.3-18.6,1.4c-1.8,0.8-3.7,1.4-5.6,2
	c-5,1.4-10.1,1.8-15.1-0.1c-0.1,0-0.2,0.1-0.5,0.2c1.7,3.4,3.2,6.8,2.1,10.8c3.3,0.3,6.3,0.6,9.3,0.9c1-3.5,1-3.5,2-4.5
	c-2.1,6.8-1.8,14-2.4,21.1c2-1.5,3.8-3.2,5.6-4.8c1.8-1.7,3.6-3.4,5.5-4.9c2.7-2.3,4.5-3.2,5.4-3.4c-3.1,2.7-6.8,5.6-10.3,8.8
	c-3.9,3.6-7.7,7.4-11.5,11.2c-3.5,3.4-7.2,6.5-11.6,8.9c-1.5,0.8-3.1,1.5-4.7,2.2c0.2-0.2,0.5-0.4,0.7-0.6c1.2,1.5,2.4,3.1,3.9,4.9
	c4.1-1.9,7.2-5.7,11-8.6c3.8-2.9,7.4-6.1,11.1-9.2c-0.2,0.6-0.4,1.2-0.9,1.6c-1.2,1.1-2.3,2.2-3.6,3.1c-1.1,0.8-1.6,1.8-1.7,3.2
	c-0.3,3.7-0.8,7.3-1.1,11c-0.2,2.1-0.3,4.2-0.5,6.4c0.2,0.1,0.3,0.1,0.5,0.2c0.4-0.7,0.7-1.5,1.1-2.2c1.7-3.6,3.3-7.3,5.2-10.8
	c2.9-5.2,5.4-10.5,7.1-16.2c0.5-1.7,1.1-3.3,1.8-5c1.8-4.5,5-7.6,9.2-9.6c4.6-2.1,9.3-2.3,13.9,0c0.8,0.4,1.6,0.7,1.5,1.8
	c-0.1,0-0.2,0.1-0.3,0c-0.3-0.1-0.6-0.3-0.8-0.4c-5.1-2.9-10.1-2.5-15.1,0.2c-4,2.2-6.6,5.5-7.9,9.8c-2.5,7.7-5.8,15-9.7,22.1
	c-3,5.4-5.6,11-8.3,16.5c-0.3,0.6-0.5,1.2-0.7,1.8c0.6,1.1,1.2,2.3,1.9,3.3c0.7,1,1.5,1.9,2.3,2.8c0.8,0.8,1.7,1.6,2.6,2.3
	c-0.1,0.1-0.2,0.3-0.4,0.4c-1.2-0.4-2.1-1.3-2.9-2.2c-0.6-0.6-1-1.4-1.7-1.7c-3.5-1.4-6.8-3.7-10.9-2.4l0,0c1.7-1.7,3.6-1.3,5.5-0.6
	c1.4,0.5,2.8,1,4.3,1.6c-0.1-0.4,0-0.7-0.1-0.7c-2.1-2.2-1.3-4.3,0.1-6.4c0.9-1.4,0.9-2.8,1-4.3c0.4-4.8,1-9.5,1.4-14.3
	c0.1-1.3,0.2-2.6,0.3-4.4c-0.9,0.6-1.4,0.9-1.8,1.3c-2.9,2.4-5.7,4.8-8.7,7.2c-1.2,1-2.4,1.8-3.7,2.6c-0.8,0.5-1.7,0.6-2.4-0.1
	c-1.6-1.5-3.1-3.1-4.7-4.8c0.1-0.1,0.4-0.4,0.6-0.5c5.5-1.5,9.8-5,14-8.6c2.2-1.9,4.2-4,6.2-6c0.5-0.5,1-1.3,1.1-2
	c0.5-5.1,0.9-10.2,1.3-15.3c0-0.1-0.1-0.3-0.2-0.7c-3.2-0.4-6.5-0.8-9.9-1.2c1.7-5.6-0.6-10.1-3.9-14.5c1.3,0.6,2.5,1.4,3.8,1.8
	c1.4,0.5,2.9,0.8,4.4,1c1.4,0.2,2.9,0.1,4.3,0c1.5-0.1,3-0.3,4.5-0.7c1.5-0.3,2.9-0.8,4.2-1.2c0.1-0.5,0.2-0.7,0.2-0.9
	c-0.4-9.3,0.9-18.3,3.1-27.3c2.7-11.5,5.8-22.9,8.5-34.4c1.5-6.1,2.5-12.2,4-18.3c2.2-8.9,4.5-17.8,6.8-26.7c0.2-0.6-0.1-1.3-0.3-2
	c-0.2-0.9-0.5-1.8-0.5-2.8c0-0.9,0.6-1.7,1.7-1.4c1,0.3,1.5-0.2,2.1-0.8c6.5-7,14.6-11.6,23.1-15.5c3.4-1.6,6.8-3.2,10.4-4.9
	c-0.8-1.2-1.6-2.6-2.6-4.2c1.5-1.8,2.9-3.5,4.5-5.4c-0.7-0.2-1.3-0.4-1.8-0.6c-4.5-1.3-8.7-3.1-12.2-6.4c-1.5-1.5-3.3-2.5-5.2-3.3
	c-6.9-2.8-10.8-10.3-9-17.1c0.4-1.5,1.3-2.9,2.1-4.5c-2.3-1.7-2-4.1-1-6.5c0.9-2.2,1.9-4.4,2.9-6.6c0.5-1,0.9-2,1.5-3.1
	c-2.4-1.7-1.7-3.7-0.8-5.8c0.8-1.8,2.2-3.2,4.1-3.9c2.8-1,5.7-1.6,8.7-0.7c1.9,0.6,3.4,0.2,5.1-1c3.5-2.5,6.1-5.6,7.9-9.4
	c1.1-2.2,2.6-4.2,4.2-6.1c0.9-1.1,2.2-2,3.4-2.6c7-3.2,14.4-4.9,22.1-3.7c4,0.6,6.8,3,9,6.2c0.7,1,1.4,1.4,2.5,1.9
	c2.7,1,5.4,2.3,8,3.7c1.9,1,3.1,2.8,3.6,4.9c0.7,3.3,1.4,6.6,1.9,9.9c0.3,1.9,0.5,3.8,0.5,5.7c-0.1,3.5,1.6,6.3,3.7,8.8
	c1.6,1.8,2.5,3.6,2.2,6.1c-0.3,2.1,0.8,3.9,1.4,5.8c0.6,2,1.4,3.9,1.7,5.9c0.2,1.1,0.9,1.5,1.6,2.1c0,0,0,0,0,0
	c-0.4,0.1-0.7,0.2-0.9,0.2c-0.4,1.9-0.7,3.6-1,5.3c-0.4,1.8-0.6,3.6-1.1,5.4c-2.1,6.9-8.4,9.9-15.1,7.2c-0.7-0.3-1.6-0.4-2.3-0.2
	c-2.1,0.7-3.7,2.1-4.8,4.3c1.1,0.3,2,0.6,2.9,0.9c6.9,2.1,13.8,3.9,20.5,6.7c4.9,2.1,9.1,5,12.6,8.9c0.3,0.3,0.6,0.7,0.8,1.1
	c-0.8-0.3-1.4-0.8-1.8-1.3c-4.8-5.1-10.9-8-17.4-10.2c-9.7-3.3-19.5-6.1-29.7-7.3c-1.6-0.2-3-0.9-4.3-1.9c-2.6-2.2-5.3-4.4-7.9-6.6
	c-2.8-2.3-4.6-5.3-5.3-8.9c0.3,0.4,0.6,0.7,0.7,1.2c1.2,3.3,3.3,5.9,6.1,8.1c2.1,1.6,4.1,3.3,6.1,5c2.3,2,5,2.3,7.7,0.9
	c1-0.5,1.9-1.2,2.7-2c1.8-1.7,3.5-3.6,5.2-5.3c1.7-1.7,2.8-3.7,3.2-6.1c0.5-3.4,0.9-6.8,1.2-10.2c0.1-0.9-0.1-1.7-0.3-2.6
	c-0.5-2.8-1-5.6-1.6-8.5c-0.1-0.5-0.3-1-0.5-1.7c-0.8,1-1.4,1.8-1.9,2.5c-1.9,0.7-2.8-0.3-3.4-1.8c-0.6,0.2-1.1,0.3-1.9,0.6
	c2-3,5-2.1,7.5-2.8c0-0.8-0.1-1.6-0.1-2.6c-2.7,0.6-5.2,1.2-7.7,1.8c2.1-2.3,5-2.7,7.6-3.5c0-2.6,0.2-5.1,0-7.5
	c-0.3-4.1-2.5-7.2-5.6-9.7c-0.9-0.7-1.6-0.8-2.6-0.3c-2.7,1.2-4.1,3.5-4.9,6.2c-1.3,4.6-2.5,9.2-5.1,13.3c0.6,0.9,1.2,1.6,1.9,2.6
	c-1.7,0.1-3.5-1.5-4,1c0.5,0.4,0.9,0.8,1.4,1.2c-2.1,1.2-4.4,1.9-5.9,4c-2.5,3.4-5.9,5.6-10,6.6c-0.4,0.1-0.8,0.3-1.2,0.5
	c0.5,1.2,1.4,1.3,2.3,1.2c0.7-0.1,1.4-0.4,2.2-0.7c0.3,2.8,0.6,5.8,0.9,8.7c-0.3-0.5-0.7-1-1-1.6c-2.2,1.6-3.5,3.7-4.5,6.1
	c-2.2,5.4-5.1,10.4-9.4,14.6c-0.9,0.9-1.5,2-2.2,2.9c1.5,2.3,2.8,4.3,4.2,6.2c6,8.3,10.7,17.2,13.5,27.1c1,3.6,2.2,7.2,3.4,10.7
	c1.7,5.3,4.4,10.1,8.6,13.9c6.1,5.5,13.1,9.4,21.3,10.8c4.3,0.7,8.7,1.4,13,2.4c9.1,2,16,7.3,21.2,14.9c1.3,1.9,1.4,2.6,1,4.4
	c-0.5-1.2-0.8-2.6-1.6-3.8c-2.4-3.6-5.3-6.8-8.8-9.4c-4.9-3.6-10.5-5.3-16.4-6.2c-5.1-0.8-10.3-1.4-15.2-3.3
	c-11.7-4.5-20.4-12-24.1-24.5c-1.3-4.4-2.7-8.7-4.1-13c-2.2-7.2-5.7-13.7-9.7-20c-0.3-0.5-0.8-0.9-1.3-1.5
	c-0.7,4.2-1.2,8.1-1.9,11.9c-1.5,7.3-3,14.6-4.6,21.8c-2.1,9.2-3.1,18.6-4.2,28c-0.4,3.7-0.3,7.5-0.2,11.2c0,2.8,0.9,5.6,2.6,7.9
	c3.4,4.5,7,8.7,11.6,12.1c6.4,4.8,13.7,7.5,21.5,9c3,0.6,5.7,1.7,7.9,3.8c0.3,0.2,0.7,0.4,1.2,0.7c0.5-0.6,0.9-1.2,1.4-1.7
	c4.6-5.1,10.1-8.8,16.6-11c4.6-1.6,9.2-1.8,13.9-0.3c1.6,0.5,3.2,0.9,4.9,1.2c4.5,0.9,8.2-0.4,11.3-3.7
	C331.3,208.1,331.8,207.6,332.3,207.1L332.3,207.1z M243.5,58.4c0.6,0.8,1.5,0.1,2.3-0.1c1-0.2,2-0.5,2.9,0.3
	c0.8,0.7,1.7,0.2,2.4-0.3c3.1-2,4.4-4.8,4.6-8.5c-1,2.2-2.2,3.9-4.6,2.3C248.5,54.3,246,56.3,243.5,58.4z M293.5,51.9
	c0.1,6.7-0.7,13.4,0.7,20.1C294.9,65.2,295.8,58.5,293.5,51.9z M305.9,68.8c2.6-4.5,2.6-5.1-0.2-8.3C305.5,63.4,305.2,66,305.9,68.8
	z M261,59.5c0.2-0.1,0.3-0.2,0.5-0.3c0-1.4,0-2.7,0-4.1c-1.4,0.2-2.7,0.4-4,0.5c-0.1,0.7-0.3,1.3-0.4,2
	C258.6,58.2,260.5,57.2,261,59.5z M244,46c-2.2,1.2-4.1,2.2-6.2,3.4c0.5,0.3,0.9,0.9,1.3,0.8C241.3,49.7,242.9,48.4,244,46z
	 M239.3,60.6c-2.8,0.1-5.8,0.3-8.8,0.5C233.2,62.2,236.4,62,239.3,60.6z M265.3,62.6c2.5-1.1,3.6-2.8,3.4-4.8
	C267.6,59.3,266.5,60.9,265.3,62.6z M234.4,83.3c0.2,0.2,0.4,0.4,0.6,0.6c0.9-0.9,1.8-1.9,2.7-2.8c-0.1-0.1-0.2-0.2-0.3-0.3
	C236.4,81.6,235.4,82.5,234.4,83.3z M248.8,52c-0.1-0.1-0.2-0.3-0.3-0.4c-0.8,0.6-1.7,1.1-2.8,1.8C247.7,54.1,248.2,52.9,248.8,52z
	 M277.6,43c-0.9,0.2-1.7,0.6-1.8,2C276.6,44.2,277.1,43.6,277.6,43z"/>
<path d="M347.4,257.9c1.2,1.4,1,3.2,1,4.7c0.1,2.2,1.1,3.2,2.9,3.8c0.6,0.2,1.2,0.5,1.8,0.6c5.7,1.8,10.5,4.9,14,10.7
	c0.3-1.6,0.1-2.6,0-3.6c-1-7-1.9-14.1-2.9-21.1c-0.9-6.2-1.7-12.3-2.2-18.5c1.1,6.6,2.2,13.3,3.3,19.8c0.3,0.2,0.4,0.4,0.5,0.4
	c3.6,0.1,6.1,2,8.1,4.8c4.9,7.2,8.6,14.9,11.7,23c3.7,9.6,7.4,19.2,11,28.9c2.8,7.4,5.5,14.9,6.9,22.6c2.1,11.2,3.5,22.4,3.1,33.8
	c-0.3,7.8-1,15.6-2.7,23.3c-0.7,2.9-1.9,5.8-2.8,8.6c-0.3,0.8-0.7,1.6-1.1,2.4c-2.5,5.5-2,8.1,2.4,12.1c1.5,1.3,3.1,2.5,4.7,3.8
	c1.7,1.3,3.6,2,5.8,2.2c3.2,0.2,5.9,1.5,8,3.8c4.3,4.7,9.3,8.8,12.8,14.3c0.1,0.2,0.3,0.3,0.6,0.6c1.1-1.3,1.6-2.8,1.5-4.4
	c-0.2-2-0.4-4-0.9-5.9c-2.1-9-5.2-17.6-8.4-26.2c-4.4-11.8-7.9-23.8-10.8-36c-0.1-0.2,0-0.5,0.2-0.8c0.3,1,0.6,1.9,0.8,2.9
	c3.4,13.8,8.2,27.2,13,40.6c2.6,7.3,5.2,14.6,6.7,22.2c0.6,3.1,0.4,6.1-1.4,8.8c-1.2,1.9-2,4.1-3.9,5.6c0.6-1.2,1.2-2.4,1.9-3.6
	c0.7-1.2,0.8-2.2,0-3.3c-1.6-2.2-3.1-4.4-4.9-6.4c-2-2.3-4.3-4.3-6.3-6.5c-2.5-2.6-5.2-4.7-9-4.9c-2.5-0.1-4.8-1.2-6.7-2.9
	c-2.1-1.8-4.3-3.6-6.1-5.7c-2.1-2.3-2.5-5.1-1.4-8.1c0.2-0.4,0.3-0.9,0.5-1.3c3.5-6.5,5.1-13.6,5.9-20.8c0.9-7.4,1.5-14.8,1.1-22.2
	c-0.7-16.8-3.9-33.1-10.1-48.8c-3.5-8.8-6.7-17.6-10.1-26.4c-0.2-0.4-0.4-0.9-0.8-1.7c-0.1,0.7-0.1,1-0.1,1.3
	c1.1,6.9,2.1,13.9,3.3,20.8c3,17.2,3.7,34.6,3.4,52.1c-0.2,12.2,0.4,24.3,1.5,36.4c0.5,6.3,1.8,12.5,3.4,18.6
	c0.2,0.6,0.2,1.2,0.3,1.9c0,0,0.1,0,0.1,0c-0.5-1.1-1.1-2.1-1.4-3.2c-2.4-8.3-3.4-16.8-3.7-25.3c-0.5-10.9-0.6-21.9-0.9-32.8
	c-0.3-9.3,0-18.6-1-27.8c-1.6-14.8-3.6-29.7-6.3-44.4c-0.3-1.5-0.6-3-1.3-4.3c-2.1-4.3-4.3-8.6-6.6-12.8c-1-1.9-2.4-3.6-3.7-5.3
	c-1.5-1.8-3.5-2.9-6.2-2.5c0,0.7,0,1.4,0.1,2c0.8,5.9,1.6,11.9,2.3,17.8c0.4,3.7,1.7,7.1,3.5,10.4c4.7,8.5,8.3,17.4,10.1,27
	c2.3,11.8,3.2,23.6,0.7,35.5c-1.7,8.3-4.9,15.9-11.1,21.9c-0.4,0.4-0.7,0.9-0.9,1.4c-1.6,2.8-3,5.7-4.7,8.3c-1.3,2-2.9,3.8-4.7,5.4
	c-2,1.8-3.8,1.4-5.1-1c-3.9-6.8-9.2-12.2-15-17.4c-4.5-4-9-7.9-13.3-12.1c-6.8-6.6-14.9-11.6-22.9-16.5c-0.3-0.2-0.7-0.4-1.1-0.5
	c-3-1.1-6-2.2-9-3.3c-2.8-1-5.7-1.6-8.8-1.4c0.2,0.8,0.4,1.6,0.6,2.3l0.1,0c-0.2-0.1-0.5-0.2-0.5-0.4c-0.7-1.8-2.1-2.2-3.9-1.8
	c-3,0.6-6,1-9,1.6c-3.1,0.6-6.1,1.3-9.4,0.2c-1.1,2.5-2.2,5-3.2,7.4c0.1,0.3,0.2,0.5,0.3,0.7c0.9,2.3,0.7,2.5-1.7,3.4
	c-0.6,0.2-1,0.9-1.5,1.3c0.2-1.2-0.5-1.3-1.4-1.4c-3-0.4-6-0.9-9-1.3c-0.8-0.1-1.6-0.1-2.4,0c-0.9,0-1.6,0.5-1.7,1.4
	c0,0.6,0.5,1.2,0.8,1.8c0.1,0.1,0.3,0.2,0.4,0.2c1.8,0.7,2,2.1,1.9,3.7c-0.1,0.7-0.2,1.4-0.3,2.1c-0.5,2.2-0.8,4.4-1.4,6.5
	c-0.7,2.4-1.4,4.8-2.5,7c-1.6,3.3-4.6,4.4-8.1,3.3c-0.9-0.3-1.8-0.7-2.7-1c-0.6-0.2-1.1-0.4-1.8-0.6c-0.6,1.6-1.2,3.1-1.7,4.6
	c-0.5,1.5-0.8,3.1-1.2,4.9c-0.5-2.5,0.4-4.5,1.2-6.5c0.8-2.1,1.1-3.9-1.3-5.2c-0.7-0.4-1.3-1.2-1.7-2c-1.1-1.8-2.3-3.7-3.2-5.6
	c-1.1-2.5-2.9-4.2-5.2-5.4c-0.6-0.3-1.3-0.6-1.9-1c-0.7-0.5-1.6-0.9-1.4-2l0,0c0.8,0.5,1.5,1.2,2.3,1.6c3.8,1.6,6.2,4.2,7.8,8
	c2,4.6,5.5,7.5,10.3,9.1c3.8,1.3,6.2,0.4,7.9-3.1c0.9-1.8,1.5-3.7,2.1-5.6c0.7-2.5,1.2-5,1.8-7.5c0.5-2.1,0.7-3.9-1.8-5
	c-0.9-0.4-1.3-1.4-1.1-2.5c0.2-1,0.8-1.8,1.8-2c0.9-0.1,1.7-0.2,2.6-0.1c2.9,0.3,5.9,0.8,8.8,1.1c1.5,0.2,3,0.4,4.4-0.6
	c-0.2-2-1.7-2.7-3.3-3.3c-2.1-0.8-4.5-1.3-6.1-2.6c-2.9-2.4-5.7-3.3-9.4-2.2c-2.9,0.9-5.8-0.1-8.3-1.9c2.3,0.4,4.4,1.7,6.9,1
	c-2.9-2.8-1.3-6.5-2.5-9.8c-1.3,2.3-2.6,4.5-3.9,6.8c0.7-3.5,1.4-6.9,3-10.1c0.4-0.8,0.6-1.8,0.5-2.7c-0.1-2.2,0.5-4.1,1.9-5.8
	c0.5-0.6,1-1.2,1.5-1.9c2.1-3,1.2-5.5-2.3-6.6c-4.4-1.3-8.5-0.3-12.1,2.2c-2.7,1.8-5.1,4.1-7.5,6.2c-7.9,6.8-14,15.1-20.2,23.3
	c-0.4,0.5-0.4,1.3-0.6,1.9l0,0c-1.1-0.1-1.5,0.8-2.1,1.4c-2.1,2.2-4.1,4.5-6.3,6.6c-3,2.8-6.6,4.7-10.5,6.1c-2.8,1-5.7,0.9-8.4-0.5
	c-2-1-3.2-2.6-3.1-5c0-2-0.1-4,0-6c0.1-3.4-0.3-6.7-1.1-10c-0.7-2.5-1.3-5.1-1.8-7.7c-0.2-1-0.3-2.1-0.2-3.1c0-0.9,0.3-1.8,1.4-1.9
	c0,0,0,0,0,0c-0.7,1-0.9,2-0.6,3.2c0.7,3.4,1.5,6.7,2.1,10.1c0.4,2,0.8,4.1,1,6.1c0.2,2.8,0.3,5.6,0.2,8.4c-0.1,2.8,1.1,4.5,3.6,5.5
	c2.3,0.9,4.5,0.8,6.8,0c6.1-2.1,11-5.9,15-10.8c3.7-4.6,7.3-9.1,10.8-13.8c5.4-7.1,11.6-13.4,18.6-19c3.8-3.1,8-5,13-4.5
	c2.5,0.2,4.7,1,6.5,2.8c1.9,1.9,2.4,3.8,1.1,6.1c-1.3,2.5-3.1,4.7-4.6,7.1c-0.1-0.1-0.3-0.2-0.4-0.3c0.1-1.5,1.3-2.4,2-3.6
	c0.9-1.4,1.8-2.8,2.5-4.3c0.6-1.2,0.3-2.4-1.1-3.5c0.4,2.3-0.6,3.9-1.8,5.4c-1.5,1.9-2.4,3.9-2.1,6.4c0.1,0.9-0.4,2-0.8,2.9
	c-0.4,1.2-1,2.3-1.5,3.5c2-1.9,3.7-4,5.2-6.1c2-2.8,4-5.6,5.8-8.5c1.9-3.2,3-6.7,2.3-10.6c0-0.1,0.2-0.2,0.4-0.4
	c1.1,1.7,0.8,3.5,0.4,5.3c-0.8,3.6-2.6,6.9-4.8,9.9c-1.8,2.4-3.7,4.8-5.5,7.2c-0.4,0.6-1,1.2-0.9,1.8c0.1,2.4,0.3,4.8,0.6,7.2
	c0.3,1.9,1,2.3,2.8,1.9c2.7-0.5,5.3-1.4,7.4-3.3c2-1.8,3.8-3.7,5.7-5.5c0.3-0.3,0.4-0.7,0.9-1.4c-3.9,0.9-7.4,1.7-10.9,2.5
	c-0.8,0.2-1.6,0.7-2.3,1.2c-0.6,0.5-1.1,1.2-1.7,1.8c0.1,0.1,0.2,0.3,0.3,0.4c0.7-0.1,1.5-0.1,2.6-0.2c-1.4,0.9-2.3,1.3-3.4,0.6
	c-0.3-1.8,0.9-2.8,2.1-3.4c1.9-0.9,3.9-1.5,5.8-2c4.3-1.2,8.7-2.2,12.9-3.5c2.1-0.7,4.1-1.8,6-3c2.7-1.8,3.1-3.7,1.5-6.6
	c-0.7-1.1-1.6-2.2-2.7-2.9c-1.7-1.1-3.7-1.8-5.6-2.8c-3.1-1.5-6.1-3.1-9.1-4.7c-0.4-0.2-0.7-0.8-1.1-1.2c5.4,3.7,11.8,5.1,17.6,8.3
	c-0.2-5.9-1.3-11.6-0.2-17.2c0.3,5.1,0.6,10.2,0.9,15.4c0.1,1.7,0.4,3.3,1.3,4.8c1.4,2.5,1.3,4.9-0.9,7c-0.2,0.2-0.5,0.4-0.6,0.7
	c-1.1,2.7-2.2,5.4-3.3,8.1c0.2,0.2,0.3,0.4,0.4,0.4c4.5-0.2,9.1,0.7,13.6-0.4c3.2-0.8,6.4-2,9.4-3.5c9.9-5.1,20.7-7.5,31.5-9.7
	c2-0.4,4.1-0.3,6.2-0.2c1.1,0.1,2.2,0.6,3.1,1.2c1.8,1.2,1.9,2.6,0,3.7c-1.4,0.8-2.9,1.5-4.4,1.7c-2.4,0.4-4.9,0.5-7.4,0.3
	c-5.8-0.3-11.7-0.2-17.4,1.2c-1.1,0.3-2.3,0.7-3.3,1.3c-3.7,2-4,5.9-0.7,8.6c0.5,0.4,0.9,0.8,1.3,1.3l0,0c-2.6-0.6-3.8-2.5-4.2-4.9
	c-0.4-2.3,0.8-4,2.7-5.2c2.3-1.5,4.9-2.1,7.5-2.3c4.1-0.3,8.3-0.4,12.4-0.5c2.3-0.1,4.6,0.1,6.9,0c3-0.1,5.3-1.1,7.2-2.9
	c-0.2-1.5-1.4-2.1-2.6-2.4c-1.8-0.3-3.7-0.7-5.4-0.4c-10.3,1.8-20.5,4.1-30,8.8c-4.3,2.1-8.7,4-13.7,5c1.9,1.4,4,1.2,5.9,1.6
	c-1.7,0.5-3.5,0.4-5.1-0.3c-4.1-1.6-8.3-1.5-12.5-0.7c-0.9-0.4-1.8-0.8-2.7-1.2c1.1-2.7,2.9-4.9,3.4-7.7c-2.5,1-4.6,2-6.9,2.7
	c-1.5,0.4-2.5,1.2-3.6,2.3c-3.3,3.6-6.4,7.6-11.1,9.4c1.4,0.9,2.7,1.8,4,2.6c1.6,1,3.3,2,5,2.8c1.6,0.7,3.3,1.1,5.2,1.7
	c1-2.1,2-4.3,2.9-6.4c0.1-0.3,0-0.8-0.1-1.1c-0.6-2.1-0.5-2.5,1.2-3.6c0.9-0.6,1.8-1,2.8-1.4c-0.9,0.7-1.8,1.5-2.8,2.2
	c-1.3,1.1-1.2,1.5,0.2,2.7c1.6,1.4,3.4,1.3,5.2,1c3.4-0.5,6.7-1.3,10.1-1.9c5.9-1.1,11.7-0.7,17.4,1.7c2.1,0.9,4.4,1.6,6.5,2.4
	c1.3,0.5,2.5,1.1,3.6,1.8c8.7,5.3,17,11.1,24.2,18.3c3.7,3.7,7.8,6.9,11.6,10.4c5.2,4.8,10.1,9.8,13.6,16c1.3,2.4,2.6,2.7,4.6,0.8
	c1.8-1.7,3.5-3.6,4.7-5.7c3-5.6,5.8-11.2,8.2-17c1.1-2.7,1.2-5.7,1.7-8.3c0.3,1.4,0.2,4.2-0.4,6.5c-0.6,2.2-1.5,4.3-1.9,6.7
	c0.5-0.7,1-1.3,1.5-2c4.2-6.2,6.3-13,7.3-20.4c2.6-20.1-1.3-39-10.4-56.9c-1.8-3.5-3.7-6.9-5.8-10.2c-2.5-4-6.1-6.7-10.5-8.3
	c-1.5-0.6-3-1.1-4.5-1.7c-1.8-0.7-2.9-1.9-2.7-4c0.1-0.8-0.1-1.7-0.2-3.1c-2.8,2.8-5.8,4.2-9,5.1c-2.1,0.6-4.3,0.7-6.3,1.4
	c-2.9,1.1-5.7,2.4-8.5,3.8c-1.8,0.9-3.5,2.1-5.6,2.6c-3.3,0.7-5.7-0.8-7.9-3c-0.4-0.4-0.5-1-0.6-1.5c-0.7-3.9-1.3-7.9-1.8-11.8
	c1.7,4.2,1.8,8.8,3.3,13.3c1.8-0.7,3.5-1.3,5.2-1.9c1-0.4,1.4-1,1-2.1c-0.4-1.5-0.7-3.1-1.3-4.6c-1.9-4.4-3.8-8.8-4.8-13.5
	c-0.1-0.5-0.1-0.9-0.2-1.5c0.2,0.1,0.3,0.1,0.3,0.1c1.6,5.5,4,10.8,6.4,16c0.4,0.8,0.5,1.7,0.7,2.5c0.6,2.8,0.4,3.3-2.3,4.3
	c-1.3,0.5-2.6,0.8-4,1.2c1.8,2.1,4.2,2.2,6.4,1.5c1.6-0.5,3.2-1.4,4.6-2.5c1.9-1.5,3.4-3.4,5.2-5c1.9-1.7,3.9-3.3,6-4.7
	c3.6-2.4,7.6-3,11.8-2c-4.4,0-8.6,0.7-12.2,3.4c-2.5,1.8-4.8,3.7-7,6.4c6.1-1.7,12-2.7,17.3-5.7
	C345.7,260.6,347.3,259.9,347.4,257.9L347.4,257.9z"/>
<path class="st0" d="M388.4,464.6c-0.5,0.7-1.1,1.4-1.6,2.1c-2,0.8-4.1,1.6-6.1,2.4c0,0,0.1-0.1,0.1-0.1c-1,0.1-2,0.2-2.5,1.3
	c-1,0.5-2,1.1-3.1,1.6c-0.7,0.4-1.4,0.7-2,1.1c-0.8,0.7-1.6,1.5-2.6,2.4c-0.7-2.9,0.1-5.1,1.2-7.2c-0.5,0.4-1,0.8-1.5,1.3
	c-0.1-0.4-0.2-0.6-0.2-0.7c-0.2-15.7-0.3-31.3-0.6-47c0-1.5,0.6-2.1,1.9-2.6c7-2.6,13.8-1.6,20.4,1.5c0.4,0.2,0.8,0.5,1.2,0.8
	c0.2,0.2,0.5,0.5,0.5,0.8c-0.2,1.6,0.6,3.1,0.6,4.7c0.1,5.6,0.6,11.2,0.9,16.7c0.2,3.1,1,6.2-0.9,9c0,0,0.1-0.1,0.1-0.1
	c-0.2,0.2-0.6,0.3-0.7,0.5C391.8,457.1,390.1,460.9,388.4,464.6z M376,465.3c1.9-0.5,3.9-1.6,4.8-3
	C379.2,463.3,377.6,464.3,376,465.3c-1.7,0.6-1.7,0.6-2.6,2.1C374.4,466.6,375.2,465.9,376,465.3z M380.9,439.6
	c-0.3-0.4-0.5-0.7-0.9-1.3c-0.7,1.2-1.3,2.3-1.8,3.3c-1,1.8-1.3,3.6-0.8,5.7c0.5,1.7,0.5,3.6,0.5,5.5c0,1.8-0.7,3.3-2,4.4
	c-1.4,1.3-3,0.8-3.5-1c-0.1-0.5-0.2-0.9-0.2-1.4c-0.2-3-0.3-6.1-0.6-9.1c-0.2-1.7-0.2-3.4-1-5c0,1.3,0.2,2.5,0.3,3.8
	c0.3,3.7,0.5,7.5,0.8,11.2c0.1,1.2,0.5,2.2,1.7,2.7c1.2,0.5,2.5,0.2,3.2-0.9c0.8-1.1,1.7-2.3,1.8-3.5c0.2-2.3,0-4.8-0.4-7.1
	C377.4,443.9,378.3,441.2,380.9,439.6c1.1-0.5,1.8,0,1.9,1.2c0.1,2.1,0.2,4.1,0.2,6.2c0,1.7-0.1,3.5,0,5.2c0.1,2.9,0.8,5.7,0.1,8.6
	c0.5-0.9,0.9-1.8,1-2.8c0.1-1.4-0.2-2.9-0.2-4.3c-0.1-2.3,0-4.6-0.1-6.9c0-1.9,0-3.8-0.1-5.7c0-0.6-0.3-1.2-0.7-1.8
	C382.4,438.5,381.8,438.6,380.9,439.6z"/>
<path d="M394.2,452.9c1.9-2.9,1.1-6,0.9-9c-0.3-5.6-0.7-11.2-0.9-16.7c0-1.6-0.8-3.1-0.6-4.7c0-0.2-0.3-0.6-0.5-0.8
	c-0.4-0.3-0.7-0.6-1.2-0.8c-6.6-3.1-13.4-4.1-20.4-1.5c-1.3,0.5-1.9,1.1-1.9,2.6c0.2,15.7,0.4,31.3,0.6,47c0,0.2,0.1,0.3,0.2,0.7
	c0.6-0.5,1-0.9,1.5-1.3c-1.1,2.2-1.9,4.3-1.2,7.2c1-0.9,1.7-1.7,2.6-2.4c0.6-0.5,1.3-0.8,2-1.1c-1.5,1.5-3.7,2.7-4.5,4.6
	c-0.8,1.8-0.2,4.2-0.2,6.4c0.2,10.2,0.7,20.5,0.7,30.7c0,14.3-0.3,28.6-2.4,42.8c-1,6.6-1.5,13.3-2.6,20
	c-2.6,16.5-8.8,31.7-18.9,45.1c-4.5,6-9.9,11.3-15.7,16.1c-1.1,0.9-2.2,1.6-3.7,1.4c-2.1-0.4-2.7-1.7-1.6-3.4c1.5-2.3,3-4.5,4.6-6.7
	c4.4-6.2,7.6-13,10-20.1c2.7-8.1,4.8-16.4,6.2-24.9c1.3-8,0.8-15.9-0.7-23.8c-1.6-8.2-4.1-16.1-7.1-23.9
	c-2.3-5.9-5.7-11.2-10.3-15.8c-0.3-0.3-0.4-0.6-0.7-0.9l-0.1,0.1c1,0.7,2,1.2,2.9,2c4,3.9,7,8.6,9,13.7c3,7.5,5.6,15.2,7.1,23.1
	c1.6,8.3,2.5,16.6,1.2,25c-1,6.3-2.6,12.5-4.2,18.7c-2.9,10.8-7.3,21-14.1,30c-1,1.3-2,2.7-3,4.1c-0.3,0.4-0.4,1.3-0.2,1.4
	c0.4,0.3,1.2,0.6,1.7,0.4c0.8-0.3,1.5-0.9,2.2-1.5c0.9-0.7,1.6-1.6,2.5-2.2c6.2-4.3,10.7-10.3,15.2-16.2
	c6.1-8.1,10.3-17.2,13.4-26.9c3.1-9.8,4.1-19.9,5.3-29.9c0.4-3.5,0.5-7,1.2-10.5c0.8-4.2,1.5-8.3,1.6-12.6
	c0.4-12.1,0.7-24.1,0.2-36.2c-0.4-9.3-0.5-18.5-0.7-27.8c-0.2-8.1-0.7-16.1-0.7-24.2c0-12.6,0.1-25.1,0.3-37.7
	c0.1-10.8,0.4-21.6,0.5-32.4c0-1.1,0-2.2,0-3.4c0.2,0,0.4,0,0.6,0c-0.2,14.1-0.3,28.3-0.5,42.6c8.7-3.7,16.9-2.8,24.7,2
	c2.2-1.8,3.6-3.9,2.1-6.8c-0.1-0.1,0-0.3,0-0.5c0,0-0.1,0-0.1,0c0.5,0.9,1,1.8,1.4,2.7c0.4,1,0.1,2-0.7,2.6c-2.5,2.2-2.7,5-2.5,8.1
	c0.5,6.8,0.9,13.7,1.3,20.5C396.2,449.9,396.1,451.7,394.2,452.9z"/>
<path d="M399.5,294.5c-0.1,0.9-0.3,1.9-0.2,2.8c0.5,5.2,1,10.3,1.4,15.5c-2.8-17.3-4.3-34.8-5.2-52.4c0.2,0.3,0.5,0.7,0.6,1
	c2.7,8.1,5.4,16.2,8,24.3c1.2,3.7,2.3,7.5,3.4,11.2c1.6,5.2,3.1,10.4,4.7,15.6c1.3,4.1,2.7,8.2,3.8,12.4c1.5,6,3.5,11.8,6,17.4
	c4.5,10.1,8.7,20.3,14.2,29.9c2.1,3.7,4.3,7.3,6.5,11.1c2.6-5.8,5.1-11.4,7.6-17c-0.5-0.4-0.7-0.7-1.1-0.8c-3.5-1.6-6.1-4.3-8.4-7.3
	c-3.7-5.1-6.8-10.6-9.8-16.2c-7.4-13.7-12.8-28.2-18.4-42.7c-6-15.5-11-31.4-15.8-47.3c-0.3-0.9-0.6-1.8-1.2-2.7
	c-0.3,2.2-0.2,4.4-0.5,6.7c-0.1-0.4-0.2-0.9-0.2-1.3c-0.1-7.4-0.3-14.7-0.1-22.1c0.4-14.9,1.1-29.7,1.7-44.6c0-0.6,0-1.1,0-1.7
	c0.4-4.3-0.6-8.1-4.1-10.9c-0.6-0.5-1-1.2-1.5-1.8c3.8,2.7,6.7,5.8,6.4,11c-0.3,6.6-0.5,13.3-0.7,19.9c-0.4,13.3-0.8,26.7-1.2,40
	c0,0.9,0.2,1.8,0.4,2.6c4.2,12.7,8.2,25.4,12.6,38c4.7,13.1,9.5,26.1,14.8,39c4.1,10,9.1,19.7,14.9,29c1.5,2.4,3.3,4.7,5.1,7
	c1.7,2.1,3.8,3.7,6.2,4.9c1.5,0.7,1.6,1.1,1.1,2.7c-0.2,0.7-0.5,1.3-0.8,2c-2.1,4.8-4.2,9.5-6.3,14.3c-0.1,0.3-0.3,0.5-0.6,1
	c-0.4-0.5-0.8-0.8-1.1-1.3c-8.9-14.2-15.9-29.4-22.3-44.8c-1.6-3.8-2.7-7.9-3.9-11.8c-1.8-5.6-3.5-11.1-5.2-16.7
	c-1.5-5.2-3-10.4-4.4-15.7c-0.4-1.5-0.8-3.1-1.3-4.6c-2.4-7.3-4.9-14.5-7.4-21.8c-0.1-0.4-0.4-0.9-0.7-1.8c-0.5,2.8,0,5.1,0.2,7.4
	c0.2,2.3,0.4,4.6,0.6,6.9c0.2,2.4,0.3,4.8,0.7,7.2C398.5,290,399.1,292.2,399.5,294.5z"/>
<path d="M390.4,172.8c-0.1,0.5-0.2,1.1-0.2,1.6c0,4,0,8-0.2,12c-0.2-3.7-0.5-7.5-0.6-11.2c-0.1-7.2-2.4-13.5-6.9-19.2
	c-5.3-6.5-10.9-12.7-17.6-17.9c-6.8-5.4-13.3-11.3-19.9-16.9c-0.2-0.1-0.4-0.2-0.8-0.5c-0.1,0.8-0.3,1.5-0.3,2.2
	c0,6.7-1.4,13.2-2.2,19.7c-0.8,6.1-1.5,12.2-2.2,18.3c-1.3,11.5-2,23.1-4,34.5c-0.4,2-0.6,4.1-0.9,6.2c-0.3,2-0.6,4.1-2.3,5.6
	c0,0,0,0,0,0c0.5-2.2,1-4.3,1.5-6.5c2.5-12.1,3.4-24.3,4.8-36.5c0.6-5.6,1.1-11.1,1.8-16.7c0.9-7.4,2-14.7,2.8-22.1
	c0.6-6.1,0.4-12.2-1.6-18c-2.5-7.2-6.2-13.5-12.9-17.6c-2.7-1.6-5.5-2.8-8.3-4.2c-1.5-0.7-2.9-1.5-4.4-2.2c0,0,0,0,0,0
	c6.8,1.9,13.1,4.6,18.2,9.6c5,4.8,7.6,11,9,17.6c0.4,2,0.6,4.1,0.6,6.2c0,2.2,0.9,3.7,2.6,5.1c5.9,4.9,11.7,9.9,17.7,14.7
	c6,4.8,11.8,9.8,16.5,15.9c1.4,1.8,2.8,3.7,4.2,5.5c2.7,3.6,4.3,7.6,4.9,12.1C389.9,171,390.2,171.9,390.4,172.8z"/>
<path d="M431.1,460.3c0.1-0.4,0-0.8,0.2-1.1c3.1-5.4,6.1-10.9,9.4-16.2c1.8-2.9,2.6-5.8,1.5-9.1c-1.3-4-2.4-8.1-3.8-12.1
	c-4.9-14-10-28-14.6-42.1c-3.1-9.6-5.5-19.5-8.2-29.3c-3.5-12.8-7.8-25.3-12.1-37.9c-1.6-4.8-2.6-9.7-3.6-14.6
	c-0.2-1.2-0.4-2.3-0.6-3.5c0.5,2,1.2,3.9,1.6,5.9c1.3,7.4,3.9,14.3,6.4,21.3c4.6,13,8.3,26.3,11.8,39.7c4.4,16.7,9.8,33.1,15.9,49.2
	c2.5,6.8,4.9,13.7,7.1,20.6c0.7,2.2,0.9,4.5,1.3,6.8c0.2,1.4-0.2,2.7-0.9,3.9c-0.8,1.2-1.4,2.6-2.3,3.7c-2.5,3-4.3,6.5-6.2,9.9
	C433.3,457.2,432.2,458.7,431.1,460.3z"/>
<path d="M196,383.2c-1.4,1.3-1.5,3.1-2,4.7c-0.7,2.6-1.4,5.1-3,7.2c-0.6,0.7-1.3,1.3-2,2.1c-0.5-0.5-1-0.7-1.2-1.1
	c-1.9-3-4.4-5.3-7.4-7.1c-0.4-0.2-0.8-0.6-1.2-0.8c-2.3-1.6-2.3-1.6-1.2-4.1c-0.8-0.7-1.7-1.3-2.6-2c-0.8-0.6-1.1-1.4-0.4-2.3
	c3.3-3.9,5.1-8.7,7.6-13c4.2-7.1,8.3-14.2,12.5-21.2c0.7-1.2,1.4-2.4,2.1-3.5c0.3-0.4,0.7-0.8,1-1.2c0,0-0.1-0.1-0.1-0.1
	c-0.7,1.6-1.4,3.2-2.3,4.7c-6.8,11.8-13.7,23.6-20.6,35.6c1.1,0.7,2.1,1.5,3.4,2.3c2.3-2.9,4.4-5.5,5.9-8.7c2.5-5.4,5-10.7,7.4-16.1
	c0.2-0.4,0.3-0.7,0.5-1.1c0.2-0.4,0.4-0.7,0.6-1c-4.3,10.2-7.5,21-15.3,29.5c2.2,1.6,4.3,2.8,6.1,4.3c1.8,1.6,3.3,3.5,5.1,5.4
	c1.5-1.8,2.8-3.7,3.3-5.9c2.1-8,6.1-15.1,9.9-22.3c0.4-0.8,1-1.6,1.6-2.4c0.6-0.8,1.2-1.5,1.8-2.2C202,369.8,198.6,376.3,196,383.2
	L196,383.2z"/>
<path d="M198.5,341.1c-0.3-0.7-0.7-1.3-1-2c0,0,0,0,0,0c0.2,0,0.5,0,0.7,0.2c3.5,2.9,7.3,5.4,9.9,9.3c1.4,2.1,1.9,2.1,3.8,0.5
	c2-1.6,3.9-3.3,5.6-5.2c3.3-3.8,7.1-6.8,11.5-9.2c0.8-0.4,1.5-1,2.4-1.7c-1.3-1.7-2.8-2.2-4.6-1.9c-4.4,0.8-8.8,1.8-12.9,3.4
	c-0.6,0.2-1.3,0.5-1.9,0.7c4.6-2.9,9.8-3.9,15.1-5.1c-0.8-1.3-1.5-2.4-2.1-3.6c-1.7-3.2-3.5-6.5-5.2-9.7c-0.4-0.7-0.7-1.3-1-2
	c2.9,3.5,5.2,7.3,7.2,11.3c1,2,2,4,4.4,4.7c0.4,0.1,0.7,0.4,1,0.7c1.1,0.9,1.1,1.8-0.1,2.7c-0.6,0.4-1.3,0.7-1.8,1.1
	c-2.7,2.1-5.6,4-8.1,6.3c-2.6,2.3-5.1,4.9-7.5,7.4c-0.5,0.5-0.6,1.4-0.8,2.1c0,0,0,0,0,0c-0.5-0.2-0.7-0.8-1.6-0.4
	c-2,0.9-2.2,0.7-3.6-0.9c-0.3-0.4-0.7-0.9-1-1.3c-1.7-2.7-4.1-4.8-6.6-6.7C199.6,341.4,198.9,341.2,198.5,341.1L198.5,341.1z"/>
<path d="M425.9,454c-0.3,0.8-0.6,1.6-1,2.3c-3,4.7-6.1,9.4-9.2,14.1c-6.3,9.6-11.2,19.9-15.8,30.4c-2.1,4.8-4.5,9.5-6.8,14.3
	c-0.2,0.5-0.6,0.9-0.9,1.4c0.1-0.5,0.1-1.1,0.3-1.6c4.2-9.2,8.5-18.4,12.8-27.5c4-8.4,8.9-16.2,14.1-23.9
	C421.6,460.3,423.7,457.2,425.9,454z"/>
<path d="M388.4,464.6c1.7-3.8,3.4-7.6,5.1-11.3c0.1-0.2,0.5-0.3,0.7-0.5C392.3,456.8,390.4,460.7,388.4,464.6z"/>
<path d="M413.8,486.5c0.6-1.1,1.1-2.3,1.7-3.3c1.5-2.3,3.1-4.6,4.6-6.8c-1.5,2.5-2.9,5.1-4.4,7.6
	C415.2,484.8,414.5,485.6,413.8,486.5z"/>
<path d="M408.6,495.1c0.6-1.2,1.1-2.4,1.8-3.5c1.1-1.8,2.4-3.5,3.6-5.2c-0.2,0.5-0.3,1.1-0.6,1.5
	C411.8,490.3,410.2,492.7,408.6,495.1z"/>
<path d="M391.3,519.1c0.5-0.3,1-0.7,1.5-1c-1.3,2.1-2.6,4.1-3.9,6.2c-0.1-0.1-0.3-0.2-0.4-0.2C389.3,522.3,389.8,520.4,391.3,519.1z
	"/>
<path d="M420.1,476.4c0.8-2.3,2.2-4.2,3.9-5.9C422.7,472.5,421.4,474.5,420.1,476.4z"/>
<path d="M423.9,470.7c1.1-1.7,2.3-3.4,3.4-5.1C426.8,467.7,425.5,469.2,423.9,470.7z"/>
<path d="M380.7,469.2c2-0.8,4.1-1.6,6.1-2.4C384.8,467.6,382.7,468.4,380.7,469.2z"/>
<path d="M395.9,513.8c1.2-1.3,2.5-2.6,3.7-3.9C398.6,511.5,397.6,513,395.9,513.8z"/>
<path d="M403.8,503.8c0.8-1.5,1.6-3.1,2.5-4.6C405.4,500.7,404.6,502.2,403.8,503.8z"/>
<path d="M392.7,518.2c1-1.4,2-2.8,2.9-4.2C395.2,515.8,394,517,392.7,518.2z"/>
<path d="M399.4,510c1-1.3,2-2.6,3-3.9C401.4,507.4,400.4,508.7,399.4,510z"/>
<path d="M429.3,449c-0.8,1.4-1.6,2.8-2.5,4.2C427.1,451.4,428.1,450.1,429.3,449z"/>
<path d="M406.7,498.7c0.2-1.5,0.8-2.7,2-3.7C408,496.3,407.3,497.5,406.7,498.7z"/>
<path d="M430.7,446.3c-0.5,0.9-1,1.8-1.5,2.7C429.7,448.2,430.2,447.3,430.7,446.3z"/>
<path d="M402.3,506.2c0.5-0.8,1-1.7,1.5-2.5C403.3,504.5,402.8,505.3,402.3,506.2z"/>
<path d="M378.3,470.4c0.5-1.1,1.5-1.2,2.5-1.3C380,469.6,379.2,470,378.3,470.4z"/>
<path class="st0" d="M250.2,300.1c0.4,0.4,0.6,0.9,1.1,1.2c3,1.6,6.1,3.2,9.1,4.7c1.9,0.9,3.8,1.7,5.6,2.8c1.1,0.7,2,1.8,2.7,2.9
	c1.6,2.8,1.2,4.7-1.5,6.6c-1.8,1.2-3.9,2.3-6,3c-4.3,1.4-8.6,2.3-12.9,3.5c-2,0.6-4,1.1-5.8,2c-1.2,0.6-2.5,1.5-2.1,3.4
	c1.1,0.7,2,0.4,3.4-0.6c-1.2,0.1-1.9,0.2-2.6,0.2c-0.1-0.1-0.2-0.3-0.3-0.4c0.5-0.6,1-1.3,1.7-1.8c0.7-0.5,1.5-1,2.3-1.2
	c3.5-0.9,7-1.6,10.9-2.5c-0.4,0.7-0.6,1.1-0.9,1.4c-1.9,1.9-3.7,3.8-5.7,5.5c-2.1,1.9-4.7,2.7-7.4,3.3c-1.9,0.4-2.6,0-2.8-1.9
	c-0.3-2.4-0.5-4.8-0.6-7.2c0-0.6,0.5-1.3,0.9-1.8c1.8-2.4,3.7-4.8,5.5-7.2c2.2-3,3.9-6.2,4.8-9.9c0.4-1.8,0.7-3.6-0.4-5.3
	c-0.2,0.2-0.4,0.3-0.4,0.4c0.7,3.8-0.3,7.3-2.3,10.6c-1.8,2.9-3.8,5.7-5.8,8.5c-1.5,2.1-3.2,4.1-5.2,6.1c0.5-1.1,1.1-2.3,1.5-3.5
	c0.4-1,0.9-2,0.8-2.9c-0.2-2.5,0.6-4.5,2.1-6.4c1.2-1.5,2.1-3,1.8-5.4c1.4,1.1,1.7,2.3,1.1,3.5c-0.7,1.5-1.6,2.9-2.5,4.3
	c-0.7,1.2-1.9,2.1-2,3.6c0.1,0.1,0.3,0.2,0.4,0.3c1.6-2.3,3.3-4.6,4.6-7.1c1.3-2.3,0.8-4.2-1.1-6.1c-1.8-1.8-4-2.6-6.5-2.8
	c-5-0.5-9.2,1.5-13,4.5c-6.9,5.6-13.1,11.9-18.6,19c-3.6,4.6-7.2,9.2-10.8,13.8c-4,5-8.9,8.7-15,10.8c-2.3,0.8-4.5,1-6.8,0
	c-2.5-1-3.7-2.7-3.6-5.5c0.1-2.8,0-5.6-0.2-8.4c-0.1-2.1-0.6-4.1-1-6.1c-0.7-3.4-1.4-6.7-2.1-10.1c-0.3-1.2-0.1-2.2,0.6-3.2
	c4.1-1.3,7.4,1,10.9,2.4c0.7,0.3,1.1,1.1,1.7,1.7c0.9,0.9,1.7,1.8,2.9,2.2c0.1-0.1,0.2-0.3,0.4-0.4c-0.9-0.8-1.8-1.5-2.6-2.3
	c-0.8-0.9-1.6-1.8-2.3-2.8c-0.7-1-1.3-2.2-1.9-3.3c0.3-0.6,0.5-1.2,0.7-1.8c2.7-5.5,5.3-11.1,8.3-16.5c4-7.1,7.2-14.4,9.7-22.1
	c1.4-4.3,4-7.6,7.9-9.8c5-2.7,10-3.1,15.1-0.2c0.3,0.2,0.6,0.3,0.8,0.4c0.1,0,0.1,0,0.3,0c0.1-1.1-0.7-1.4-1.5-1.8
	c-4.6-2.3-9.3-2.2-13.9,0c-4.3,2-7.5,5.1-9.2,9.6c-0.6,1.6-1.3,3.3-1.8,5c-1.8,5.7-4.3,11-7.1,16.2c-1.9,3.5-3.5,7.2-5.2,10.8
	c-0.4,0.8-0.7,1.5-1.1,2.2c-0.2-0.1-0.3-0.1-0.5-0.2c0.2-2.1,0.3-4.2,0.5-6.4c0.4-3.7,0.8-7.3,1.1-11c0.1-1.4,0.6-2.4,1.7-3.2
	c1.3-0.9,2.5-2,3.6-3.1c0.4-0.4,0.7-1,0.9-1.6c-3.7,3.1-7.3,6.3-11.1,9.2c-3.8,2.9-6.9,6.7-11,8.6c-1.4-1.8-2.7-3.3-3.9-4.9
	c-0.2,0.2-0.5,0.4-0.7,0.6c1.6-0.7,3.1-1.4,4.7-2.2c4.3-2.4,8.1-5.4,11.6-8.9c3.8-3.8,7.6-7.6,11.5-11.2c3.5-3.2,7.1-6.1,10.3-8.8
	c-1,0.2-2.7,1.2-5.4,3.4c-1.9,1.6-3.7,3.3-5.5,4.9c-1.8,1.6-3.6,3.3-5.6,4.8c0.6-7.1,0.3-14.2,2.4-21.1c-1,1-1,1-2,4.5
	c-3-0.3-6-0.6-9.3-0.9c1.1-4-0.4-7.4-2.1-10.8c0.2-0.1,0.4-0.3,0.5-0.2c5,1.9,10.1,1.5,15.1,0.1c1.9-0.5,3.8-1.2,5.6-2
	c6-2.7,12.3-2.6,18.6-1.4c2,0.4,4.1,0.8,6.1,1.2c1.2,0.7,2.4,1.3,3.6,2c-0.9,0.2-1.6-0.2-2.4-0.3c-2-0.5-4-1-6.1-1.2
	c-4.3-0.4-8.2,0.9-11.7,3.4c-3.4,2.4-7.2,3.7-11.2,4.6c-0.6,0.1-1.2,0.2-1.8,0.3c1,0.3,2,0.3,3,0.1c4-0.7,7.6-2.1,11.1-4.3
	c1.9-1.2,4.1-2.1,6.3-2.7c4.5-1.2,8.6,0.2,12.8,1.9c2,0.8,2.8,2.1,2.8,4.2c0,3.7,0.2,7.3,0.3,11c0,0.2-0.1,0.5-0.2,0.7
	c-0.6-0.6-0.7-1.2-0.8-1.7c-1-5.7-5.7-10.1-11.5-10.5c-5.7-0.4-10.4,2-14.7,5.4c-0.1,0.1-0.1,0.3-0.1,0.4c-1,0-1.3,0.8-1.5,1.6
	c0.5-0.6,1-1.1,1.5-1.7c0.6-0.3,1.2-0.7,1.9-1c2.7-1.2,5.3-2.7,8.1-3.6c5.6-1.7,10.6,0.4,13.7,5.3c0.8,1.2,1.4,2.5,1.8,3.9
	c0.5,2,1.4,3.5,3,4.8c0.6,0.5,1.1,1,1.5,1.5c1.9,2.3,4.4,3.6,7.2,4.6c5.5,2,11.2,3.4,17,4c4.8,0.5,9.7,1,14.5-0.7
	c0.1,0,0.3,0.1,0.5,0.3c-0.1,0.6-0.2,1.3-0.4,2c-1.2,4-2.3,8-3.5,12c-0.3,0.8-0.6,1.7-1.1,2.4c-0.4,0.5-1.1,1.1-1.7,1.1
	c-3.5,0.1-6.8-0.9-9.6-3c-1.9-1.4-3.5-3.1-5.4-4.4c-4.8-3.4-9.7-6.5-15.3-8.3c-2.1-0.7-4.4-0.7-6.2-2.3c-0.2-0.2-0.6-0.3-0.9-0.3
	c-4.1-1.1-8.1-1-11.9,0.9c-3.8,1.8-4.7,3.5-4.1,8.3c0.1-1.1,0.2-1.6,0.2-2.1c-0.1-2.2,1.1-3.7,2.8-4.7c4.7-2.7,9.5-3,14.8-0.6
	c-0.9,0.2-1.5,0.4-2.1,0.5c-9,2-16.1,6.6-20.5,14.7c-1.9,3.4-3.2,7.1-4.6,10.8c-2.6,6.7-5.5,13.1-10.8,18.2c-2.9,2.8-6.4,3.5-10.1,3
	c-1-0.1-2-0.9-2.9-1.5c-0.4-0.3-0.8-0.7-1.5-1.4c1.5,2.5,2.9,3.6,4.8,3.7c4.4,0.3,8.5-0.5,11.5-4.1c3.2-3.7,5.8-7.8,7.6-12.4
	c1.7-4.2,3.4-8.5,5-12.7c2.8-7.1,7.8-12.2,14.7-15.4c4.9-2.3,10-3.5,15.3-1.3c7,2.9,13.4,6.8,18.9,12.1c1.3,1.2,2.4,2.5,3.6,3.8
	C249.6,299.7,249.9,299.9,250.2,300.1z"/>
<path d="M193.6,261.4c0-0.1,0-0.4,0.1-0.4c4.3-3.4,9-5.8,14.7-5.4c5.8,0.4,10.5,4.8,11.5,10.5c0.1,0.6,0.2,1.2,0.8,1.7
	c0.1-0.2,0.2-0.5,0.2-0.7c-0.1-3.7-0.3-7.3-0.3-11c0-2.1-0.8-3.3-2.8-4.2c-4.1-1.7-8.3-3.1-12.8-1.9c-2.2,0.6-4.4,1.5-6.3,2.7
	c-3.4,2.2-7.1,3.6-11.1,4.3c-1,0.2-2,0.2-3-0.1c0.6-0.1,1.2-0.2,1.8-0.3c4-0.9,7.8-2.2,11.2-4.6c3.5-2.5,7.4-3.8,11.7-3.4
	c2,0.2,4.1,0.8,6.1,1.2c0.7,0.2,1.5,0.5,2.4,0.3c-1.2-0.7-2.4-1.3-3.6-2c0,0,0,0.1,0,0.1c1.4,0.3,2.7,0.5,4.3,0.8
	c0.7-4.2,1.2-8.4,1.3-12.7c0.1-3.3-0.1-6.6,0.2-9.8c0.4-4.7,1.5-9.2,3.5-13.6c2.3-4.9,4.3-10,6.3-15c1.4-3.5,1.5-7.1,0.4-10.8
	c-1.5-5.1-2.1-10.4-2.1-15.6c0-7.4,0.3-14.9,0.6-22.3c0.1-2.8,0.3-5.6,0.5-8.4c0.1,6.9-0.1,13.7-0.4,20.6c-0.5,9.6,0,19,2.9,28.2
	c1.6,5.1,2.9,10.3,4.7,15.3c3,8.2,6.4,16.4,9.6,24.5c0.2,0.5,0.3,1.1,0.4,1.6c0,0,0,0,0,0c-0.3-0.4-0.7-0.8-0.9-1.3
	c-1.4-3.4-2.9-6.8-4.2-10.2c-3.1-7.8-6.4-15.5-8.6-23.6c-0.1-0.5-0.3-0.9-0.6-1.7c-0.7,2.1-1.1,3.9-1.8,5.6
	c-1.7,4.1-3.4,8.3-5.5,12.2c-3.2,6.2-4.5,12.7-4.4,19.6c0,4.2-0.2,8.5-0.4,12.7c-0.1,2.3-0.6,4.6-1,7c2.4,0.8,2.8,2.7,2.8,4.8
	c0,1.4,0.1,2.7,0.1,4.1c0.1,2.3,0.1,4.6,0.2,7c0.1,1.6,0.6,3,1.8,4.3c3.7,4.3,8.7,5.3,13.6,6.6c3-3.9,6.1-7.5,8.8-11.4
	c1.7-2.4,2.9-5.1,4.2-7.8c0.2-0.4,0.2-0.9,0.1-1.3c-0.6-2.5-1.7-4.7-3.6-6.3c-2.5-2.1-5-4.2-7.5-6.4c-1.3-1.2-2.6-2.4-3.6-3.8
	c-1.4-1.9-1-3.1,1.2-4.1c0.4-0.2,0.9-0.2,1.4-0.3c0,0,0-0.1,0-0.1c-0.2,0.2-0.4,0.4-0.7,0.6c-2.5,1.4-2.6,2.1-0.8,4.2
	c0.9,1.1,2,2,3.1,3c2.5,2.2,5.1,4.3,7.7,6.5c1.6,1.4,2.8,3.1,3.3,5.2c0.2,1.1,0.9,1.7,2,1.6c5.6-0.6,9.5,2.6,13.3,6.1
	c1,0.9,1.7,2.1,2.6,3.1c-0.7,0.1-1.2-0.7-1.8-1.2c-2.1-1.8-4.2-3.7-6.4-5.4c-1.9-1.5-4.2-1.8-6.6-1.9c-0.9,0-1.6,0.2-2.2,1.1
	c-3,4.7-6,9.4-9.3,14.3c0.4,0.5,1.1,1.3,2.1,2.4c2.7-3.9,4.3-7.9,7.2-11.2c-0.6,1.1-1.2,2.2-1.8,3.3c-1.1,2-2.1,3.9-3.2,5.9
	c-0.3,0.6-0.7,1.1-1.1,1.6c-1.1,1.2-1.7,1.2-2.7,0c-0.4-0.4-0.7-0.9-1.1-1.4c-1.5,1-2.5,2.3-3.4,4.1c4.1,1.2,8.2,1.9,12.3,2.1
	c4,0.2,8.1,0.8,12.3-1.1c0,1.6,0,2.6,0,3.7c0.2,0.1,0.3,0.1,0.5,0.2c1.4-1.8,2.2-4,3-6.1c0.9-2.2,1.7-4.5,2.8-6.6
	c-0.2,0.8-0.3,1.6-0.6,2.4c-1.4,3.5-2.8,6.9-4.3,10.4c-0.2,0.5-0.5,1.1-0.9,1.4c-1.9,1.4-2.2,3.6-2.8,5.6c-0.6,1.9-1.1,3.9-1.7,5.7
	c-1,2.9-2.2,3.6-5.3,3c-1.8-0.3-3.5-0.9-5.5-1.4c0.3,0.8,0.7,1.5,1,2.3c-1.2-1.3-2.4-2.6-3.6-3.8c-5.5-5.2-11.9-9.2-18.9-12.1
	c-5.3-2.2-10.4-1-15.3,1.3c-6.8,3.3-11.9,8.3-14.7,15.4c-1.7,4.2-3.4,8.5-5,12.7c-1.8,4.6-4.4,8.7-7.6,12.4
	c-3.1,3.5-7.1,4.4-11.5,4.1c-2-0.1-3.4-1.3-4.8-3.7c0.7,0.7,1.1,1.1,1.5,1.4c0.9,0.6,1.9,1.4,2.9,1.5c3.8,0.5,7.2-0.2,10.1-3
	c5.2-5.1,8.2-11.5,10.8-18.2c1.4-3.6,2.8-7.4,4.6-10.8c4.4-8.2,11.6-12.8,20.5-14.7c0.6-0.1,1.2-0.3,2.1-0.5
	c-5.3-2.4-10.1-2.1-14.8,0.6c-1.8,1-2.9,2.5-2.8,4.7c0,0.5-0.1,1.1-0.2,2.1c-0.6-4.8,0.3-6.5,4.1-8.3c3.9-1.9,7.8-2,11.9-0.9
	c0.3,0.1,0.7,0.1,0.9,0.3c1.8,1.6,4.1,1.7,6.2,2.3c5.6,1.8,10.6,4.9,15.3,8.3c1.9,1.3,3.5,3,5.4,4.4c2.8,2.1,6.1,3,9.6,3
	c0.6,0,1.3-0.6,1.7-1.1c0.5-0.7,0.8-1.5,1.1-2.4c1.2-4,2.4-8,3.5-12c0.2-0.7,0.3-1.4,0.4-2c-0.3-0.1-0.4-0.3-0.5-0.3
	c-4.8,1.7-9.7,1.1-14.5,0.7c-5.8-0.6-11.5-2-17-4c-2.8-1-5.2-2.4-7.2-4.6c-0.5-0.5-1-1.1-1.5-1.5c-1.5-1.3-2.5-2.8-3-4.8
	c-0.3-1.4-1-2.7-1.8-3.9c-3.1-4.9-8.1-6.9-13.7-5.3c-2.8,0.8-5.4,2.3-8.1,3.6C194.8,260.7,194.2,261,193.6,261.4L193.6,261.4z"/>
<path d="M335.2,270.5c0.7,0.4,1.5,0.8,2.2,1.4c6.2,5,10,11.5,12.2,19.1c1.6,5.5,2.4,11.1,2.4,16.8c0,6.3-0.4,12.6-0.5,18.9
	c0,2.4,0.1,4.8,0.5,7.1c0.6,3.3,2.6,5.6,5.6,7.1c2.4,1.3,5,2.1,7.8,2.2c1.8,0,3.5,0.2,5.3,0.3c5.1,0.5,8.4,6.8,7.2,10.1
	c-0.1,0.3-0.3,0.5-0.7,0.7c0-0.6,0-1.2,0-1.8c-0.2-4.9-3.4-8-8.2-8.2c-1.9-0.1-3.8-0.1-5.7-0.4c-2.6-0.3-4.9-1.3-7.1-2.6
	c-3.1-1.8-4.8-4.7-5.4-8.1c-0.4-2.5-0.5-5.1-0.3-7.6c0.5-7.7,1-15.3,0.2-23c-0.6-5.6-1.6-11-3.7-16.3c-2.3-5.6-5.7-10.3-10.3-14.3
	C336,271.6,335.7,271,335.2,270.5L335.2,270.5z"/>
<path d="M396.4,302.9c-0.2-0.4-0.6-0.7-0.7-1.1c-5-20.6-10.9-40.9-14.5-61.8c-3.2-19.1-6.6-38.3-10-57.4c-1.2-6.9-2.8-13.8-4.2-20.7
	c-0.1-0.4-0.1-0.8,0.2-1.2c0.6,2.9,1.4,5.7,1.9,8.6c3.1,17.1,6.3,34.3,9.3,51.4c3.9,22,8.1,43.8,13.9,65.4
	C393.9,291.7,395,297.3,396.4,302.9L396.4,302.9z"/>
<path d="M350.6,251.3c-0.7-19.1-2.9-38-10.2-56c0.7,1.5,1.6,2.9,2.2,4.4c2.6,6.2,4,12.6,5.3,19.1c2.2,10.8,3.2,21.8,3.2,32.9
	c0,0.4-0.1,0.8-0.1,1.6c-0.8-0.8-1.4-1.2-1.9-1.8c-0.9-1.1-1.8-2.3-2.7-3.4c-2.5-3.1-5.7-5.1-9.6-5.9c-1.9-0.4-3.8-0.7-5.6-1.1
	c-3.9-0.8-5-2.4-4.4-6.3c0.8-4.7,1.6-9.4,2.4-14.2c0.5-2.8,0.8-5.7,1.7-8.4c-0.1,1.2-0.3,2.5-0.5,3.7c-0.9,6.2-1.8,12.3-2.7,18.5
	c-0.1,0.6-0.1,1.1-0.2,1.7c-0.1,2.2,0.4,3.1,2.6,3.7c1.7,0.5,3.4,0.9,5.1,1.2c5.4,0.7,9.6,3.4,12.7,7.7c0.7,0.9,1.4,1.8,2.1,2.8
	C350.3,251.5,350.4,251.4,350.6,251.3z"/>
<path d="M270.5,266.4c1.6-1.4,3.5-1.8,5.4-2.1c3.8-0.5,7-2,9.8-4.6c2.4-2.2,4.9-4.4,7.1-6.9c-3.8,1.4-7.7,2.9-11.5,4.3
	c-0.1-0.2-0.1-0.3-0.2-0.5c1.2-0.5,2.5-1,3.7-1.5c7-2.6,13.7-5.9,19.9-10c0.4-0.3,0.8-0.5,1.2-0.8c2.8-1.4,5.2-3.4,7.3-5.7
	c1.3-1.4,3.1-2.5,4.9-3.4c2.3-1.2,4.7-2.1,7-3.2c0.1,0.2,0.2,0.4,0.3,0.6c-1.3,0.7-2.6,1.4-4,1.9c-4,1.5-7.5,3.6-10.1,7
	c-0.5,0.6-1.1,1.1-1.8,1.5c-4.2,2.6-8.5,5-12.8,7.6c-1.3,0.8-2.4,1.9-3.5,2.9c-2.7,2.4-5.3,4.8-8,7.3c-2.2,2.1-4.9,3.2-7.9,3.8
	c-2,0.4-3.9,0.9-5.8,1.4C271.4,266.3,270.9,266.4,270.5,266.4z"/>
<path d="M362.6,231.7c-0.8-6.4-1.7-12.8-2.4-19.2c-1.4-12.3-3.4-24.5-6.1-36.6c-1.4-6.4-2.4-12.9-3.5-19.3c-0.1-0.6-0.1-1.2,0.2-1.9
	c0.6,3.6,1.1,7.2,1.9,10.7c1.5,7.5,3.3,15,4.6,22.5c1.4,8.3,2.6,16.6,3.7,24.9c0.7,5.5,1.2,11.1,1.8,16.7c0.1,0.7,0.1,1.4,0.1,2.1
	C362.9,231.7,362.8,231.7,362.6,231.7z"/>
<path d="M272.1,289.7c0.1-0.4,0.2-0.8,0.3-1.2c-3.2-0.5-6.5-0.5-9.7-1.8c3.7,0.2,7.2,0.5,10.7,0.6c4.2,0.1,8.2-0.8,12.1-2.5
	c5.7-2.6,11.6-4.8,17.5-7.2c3.1-1.3,6-2.9,8-5.7c0.7,0.4,0.7,1,0.2,1.6c-0.7,0.7-1.7,1.1-2.1,1.9c-0.9,1.9-2.8,2-4.4,2.6
	c-6.3,2.5-12.7,4.9-19,7.4c-3.3,1.3-6.5,2.5-10.1,2.9C274.5,288.4,273.3,289.2,272.1,289.7z"/>
<path d="M263.5,253.8c1.2-0.5,2.3-1,3.5-1.4c11-4,20.9-10,30.2-16.9c3.9-2.9,7.9-5.8,11.9-8.5c1.6-1.1,3.3-1.8,5.2-2.4
	c-0.7,0.4-1.4,0.8-2,1.3c-5.7,4-11.4,8-17,12.1c-9.4,6.8-19.4,12.3-30.5,15.9c-0.4,0.1-0.7,0.2-1.1,0.3
	C263.7,254.1,263.6,253.9,263.5,253.8z"/>
<path d="M331.9,316.5c0-15.4-4.4-29.7-10-43.6C328.7,283,334.6,309.8,331.9,316.5z"/>
<path d="M386.8,170.5c-2.8-10.2-9.7-16.3-19.2-20c0.9,0.2,1.9,0.4,2.8,0.7c5.4,2.2,9.8,5.7,13.2,10.4
	C385.5,164.2,386.2,167.3,386.8,170.5z"/>
<path d="M310.5,281.5c0.1,2.4-0.4,4.6-1.5,6.7c-1.5,3-3.1,5.9-4.8,8.8c-1.3,2.3-2.4,4.7-1.3,7.5c-1.2-1.3-1.5-2.7-0.9-4.3
	c0.4-1.2,1-2.3,1.6-3.5c1.1-2.1,2.3-4.2,3.5-6.2C308.7,287.7,309.9,284.7,310.5,281.5z"/>
<path d="M345.1,304.6c-0.7,7.2-6.4,14.5-13.9,16.5c3.2-1.7,6.3-3.7,8.8-6.4C342.5,311.9,343.5,308.4,345.1,304.6z"/>
<path d="M347.4,257.9c-0.6-1.9-1.3-3.7-1.9-5.6c-0.2-0.7-0.5-1.3-0.5-2C346.1,252.8,347.7,255,347.4,257.9
	C347.4,257.9,347.4,257.9,347.4,257.9z"/>
<path d="M275.7,258.6c1.1-0.4,2.2-0.7,3.3-1.1c0,0.1,0.1,0.3,0.1,0.4c-1.1,0.4-2.2,0.7-3.3,1.1C275.8,258.9,275.8,258.8,275.7,258.6
	z"/>
<path d="M396.3,302.9c0.2,1.1,0.4,2.2,0.6,3.2c-0.1,0-0.3,0-0.4,0C396.5,305.1,396.4,304,396.3,302.9
	C396.4,302.9,396.3,302.9,396.3,302.9z"/>
<path d="M297.2,332.9c0.7,0.2,1.4,0.4,2.1,0.5c-0.1,0.2-0.2,0.3-0.2,0.5C298.5,333.6,297.9,333.2,297.2,332.9
	C297.3,332.9,297.2,332.9,297.2,332.9z"/>
<path d="M335.2,270.5c-0.5-0.2-1.1-0.5-1.6-0.7c0.1-0.1,0.2-0.3,0.3-0.4C334.3,269.7,334.8,270.1,335.2,270.5
	C335.2,270.5,335.2,270.5,335.2,270.5z"/>
<path class="st0" d="M257.4,347.6c0.5-0.4,0.9-1.1,1.5-1.3c2.4-0.9,2.5-1.1,1.7-3.4c-0.1-0.2-0.2-0.4-0.3-0.7
	c1.1-2.4,2.1-4.9,3.2-7.4c3.3,1.1,6.4,0.5,9.4-0.2c3-0.6,6-1,9-1.6c1.8-0.3,3.1,0,3.9,1.8c0.1,0.2,0.3,0.3,0.5,0.4
	c0.3,0.7,0.4,1.5,0.8,2.2c4.2,7.8,8.5,15.5,12.8,23.3c4.4,8.2,8.8,16.5,13.2,24.7c0.7,1.2,0.9,2.5,0.7,3.9
	c-0.8,8.4-2.5,16.6-4.3,24.8c-4.5,20.3-9.2,40.7-13.9,61c-1.7,7.4-3.5,14.8-5.2,22.2c-1.1,4.9-1.2,9.8-1,14.8
	c0.4,8.9,0.7,17.7,0.6,26.6c-0.2,8.1-1.4,16.1-2.9,24c-0.6,3.1-0.9,6.3-1.2,9.5c-0.4,6-1.6,11.9-2.7,17.8c-0.8,4.2-1.5,8.5-2.2,12.7
	c-1.6,10.1-3.3,20.2-4.6,30.3c-1,7.8-1.5,15.7-2.2,23.6c-0.4,4.3-0.7,8.6-1,12.9c0,0.3-0.2,0.6-0.3,1c-0.6-0.3-1.1-0.5-1.6-0.7
	c-4.2-1.9-8.5-2.6-13.1-2.4c-3.4,0.2-6.8,0.5-10.2-0.2c-4.9-1-9-3.1-11.9-7.3c-1.3-2-2.1-4.2-2-6.5c0.2-3.6,0.6-7.2,1-10.7
	c0.1-0.6,0.6-1.1,1-1.6c0.6-3.1,1.6-6.2,1.2-9.5c-0.1-1.1-0.1-2.2-0.1-3.3c-0.2-3.5-1.7-6.5-3.4-9.6c-0.2,0.4-0.3,0.4-0.3,0.5
	c0,0.2,0,0.3,0.1,0.5c3,5.2,3.2,10.7,2.4,16.5c-0.2,1.6,0.1,3.3,0.1,5c-1-1.1-0.8-2.4-0.7-3.6c0.3-4.1-0.6-7.9-2.6-11.5
	c-2.4-4.1-5.8-6.7-10.3-8.1c-3.4-1.1-6.9-1.2-10.4-1.1c-0.8,0-1.7,0.1-2.9,0.1c0.4-0.7,0.6-1,0.8-1.3c6-7,10-15.2,13.9-23.4
	c4.6-9.7,7.5-20,10-30.5c0.8-3.2,1.4-6.4,2.1-9.6c1.4-6.4,0.1-12.2-3.8-17.5c-0.8-1.1-1.8-2.2-2.7-3.3c0,0,0.1,0.1,0.1,0.1
	c-0.3-0.6-0.5-1.2-0.8-1.7c-0.9-1.6-1.9-3.1-2.6-4.8c-1.1-2.4-2.1-4.8-3.1-7.3c-0.7-1.7-1.5-3.4-1.8-5.2c-0.7-4.2-0.6-8.4,0.4-12.6
	c1.2-5.1,2.5-10.1,3.5-15.2c2.7-14.2,5.1-28.5,7.7-42.7c1.2-6.5,2.1-13.1,3.7-19.5c2.9-10.8,6.3-21.5,9.5-32.2
	c0.9-3.1,1.9-6.2,2.9-9.3c-1,1.9-1.8,3.9-2.5,6c-6.1,18.3-12.1,36.6-14.9,55.7c-0.5,3.2-1.1,6.5-2,9.6c-1.2,3.8-2.7,7.5-4.2,11.2
	c-2.6,6.3-5.4,12.6-8,19c-0.7,1.6-1.2,3.2-1.8,4.8c0.1,0,0.2,0.1,0.3,0.1c4.1-9.5,8.2-19,12.3-28.5c0.3,0.5,0.3,0.9,0.2,1.4
	c-1.8,9.7-3.6,19.3-5.4,29c-1,5.2-1.9,10.4-2.8,15.6c-0.3,1.7,0,3.4,0,5.6c-0.7-0.8-1-1.2-1.2-1.5c-0.1-0.5-0.2-1-0.2-1.5
	c-1.3-4.4-2.6-8.7-3.8-13.1c-0.3-1-0.6-2-0.7-3c-0.6-3.8-1.3-7.5-1.8-11.3c-0.7-5.1-1.2-10.1-1.7-15.2c-0.1-0.9,0.1-1.9,0.3-2.8
	c2.5-8.4,4.4-17,5.6-25.7l-0.1,0.1c0.5,0.7,1,1.4,1.5,2.1c0.6,0.8,1.3,0.9,2,0.2c0.8-0.9,1.5-1.8,2.3-2.8c2-2.6,4.1-5.1,6-7.8
	c0.8-1.1,1.5-2.4,2.1-3.7c1.1-2.6,0.4-5.3-0.5-7.7c-0.7-2.1-0.5-3.7,0.8-5.5c3.3-4.4,6.2-9.1,8.4-14.2c2.7-6.5,5.5-12.9,8-19.5
	c3.3-9,6.4-18.1,9.5-27.1c0.2-0.7,0.2-1.4,0.4-2.1C257.1,348.2,257.2,347.9,257.4,347.6z M294.6,434.7c0.3-0.5,0.7-1,0.7-1.6
	c0.7-5.8,1.3-11.6,2.1-17.4c1.3-10.5,1.9-21,1.8-31.6c-0.1-7.6-0.5-15.1-1.7-22.6c-0.1,0.6-0.1,1.3-0.1,1.9
	c0.9,10.4,1.3,20.8,0.7,31.1c-0.6,10.4-1.5,20.7-2.4,31.1C295.5,428.7,295,431.7,294.6,434.7c0,0.8,0,1.5,0,2.3c0.1,0,0.2,0,0.3,0
	C294.8,436.2,294.7,435.5,294.6,434.7z M242,436.2c-0.1,0-0.2,0-0.4,0c0,1.1,0,2.2,0,3.3c0,10.1-0.1,20.3-0.1,30.4
	c0,9.8,0.7,19.6,1.9,29.4c1.5,12.5,3.5,24.8,6.2,37.1c2.7,12,5.7,23.9,8.6,35.9c2.2,9,4.6,17.9,8.3,26.5c0.3,0.6,0.6,1.2,0.9,1.8
	c0.2-0.7,0-1.3-0.2-1.9c-2.9-7.6-5.2-15.4-7.2-23.3c-5.1-20.9-10.8-41.6-14-62.9c-1.5-10-3-19.9-3.4-30c-0.5-12.4-0.5-24.8-0.7-37.2
	C242,442.3,242,439.2,242,436.2z M253.8,445.9c-0.1,0-0.1,0-0.2,0c0.1,1.4,0.1,2.7,0.2,4.1c0.4,4.3,0.8,8.6,1.2,12.9
	c0.9,8.1,1.7,16.2,2.7,24.3c1.2,9.2,2.6,18.3,4,27.5c2.1,13.3,4.3,26.5,7.6,39.5c2.9,11.3,6.5,22.4,11,33.1c0.4,1,1,2,1.5,3
	c0.1-0.8-0.1-1.5-0.3-2.1c-6.2-14.5-10.6-29.4-13.7-44.8c-2.1-10.3-3.8-20.7-5.5-31.1c-1.6-9.7-3.1-19.4-4.3-29.1
	C256.4,470.7,255.2,458.3,253.8,445.9z M268,644.2c-0.1,0-0.3,0-0.4,0.1c-0.2-0.5-0.4-1-0.6-1.5c-1.1-2.7-2-5.4-3.2-8
	c-2-4.7-4.8-8.8-8.7-12.1c-2.9-2.4-6.1-3.6-9.8-3.5c0.5,0.3,1,0.5,1.5,0.5c3.9,0.5,7,2.5,9.6,5.4c2.6,3,4.8,6.4,6.3,10.1
	c1.4,3.3,2.6,6.7,3.8,10.1c0.2,0.6,0.4,1.2,0.7,1.8c0.2,0.3,0.7,0.7,0.9,0.6c0.4-0.1,0.8-0.6,0.9-0.9c0.2-1.1,0.3-2.2,0.3-3.3
	c-0.1-9.3-0.2-18.5-0.3-27.8c0-0.5-0.1-0.9-0.1-1.4c-0.1,0-0.2,0-0.4,0C268.3,624.2,268.1,634.2,268,644.2z M242.9,617.8
	c0.2-0.4,0.4-0.9,0.5-1.3c0.9-5.5,2.1-11,2.5-16.6c1.5-17.4,1.7-34.8,1.4-52.2c-0.1-4.7-0.4-9.3-0.6-14
	C246.8,561.8,247,589.9,242.9,617.8z M279,408.1c1.3-18,2.2-36,2.1-54C280.4,372.1,279.7,390.1,279,408.1z M278.2,602.9
	c-2.1,1.9-3.9,4.3-7.7,4C273.7,608.2,276.7,606.1,278.2,602.9z M232.2,617.3c0.1-0.1,0.2-0.1,0.3-0.2c-0.3-0.4-0.6-0.8-1-1.2
	c-0.1,0.1-0.2,0.1-0.3,0.2C231.5,616.5,231.9,616.9,232.2,617.3z M278.8,414C278.8,414,278.8,414,278.8,414c0.1-0.3,0.1-0.7,0.1-1.1
	c0,0-0.1,0-0.1,0C278.8,413.3,278.8,413.6,278.8,414z"/>
<path class="st0" d="M396.6,414c0,0.2-0.1,0.3,0,0.5c1.5,2.9,0.1,5-2.1,6.8c-7.8-4.8-16-5.7-24.7-2c0.2-14.3,0.3-28.5,0.5-42.6
	c-0.2,0-0.4,0-0.6,0c0,1.1,0,2.2,0,3.4c-0.2,10.8-0.4,21.6-0.5,32.4c-0.2,12.6-0.3,25.1-0.3,37.7c0,8.1,0.5,16.1,0.7,24.2
	c0.2,9.3,0.3,18.5,0.7,27.8c0.5,12.1,0.2,24.1-0.2,36.2c-0.1,4.2-0.8,8.4-1.6,12.6c-0.7,3.4-0.7,7-1.2,10.5
	c-1.2,10.1-2.2,20.2-5.3,29.9c-3.1,9.7-7.3,18.9-13.4,26.9c-4.4,5.9-9,11.8-15.2,16.2c-0.9,0.6-1.7,1.5-2.5,2.2
	c-0.7,0.6-1.4,1.2-2.2,1.5c-0.5,0.2-1.2-0.1-1.7-0.4c-0.2-0.2-0.1-1.1,0.2-1.4c0.9-1.4,2-2.7,3-4.1c6.8-9,11.2-19.1,14.1-30
	c1.7-6.2,3.2-12.4,4.2-18.7c1.4-8.4,0.5-16.7-1.2-25c-1.6-7.9-4.1-15.6-7.1-23.1c-2.1-5.2-5-9.8-9-13.7c-0.8-0.8-1.9-1.3-2.9-2
	c-0.8-0.8-0.3-1.6-0.1-2.4c2.6-7.6,5-15.3,7.9-22.8c3.6-9.4,7.3-18.7,11.9-27.6c0.4-0.8,0.6-1.6,0.9-2.4l-0.1,0.1
	c0.9-0.3,1,0.4,1.2,1c1.3,3.7,2.6,7.4,3.8,11.1c4,12.6,7.6,25.2,10.4,38.1c2.1,9.5,3.6,19,3.9,28.7c0,0.2,0.1,0.4,0.1,0.8
	c0.9-3.4,0.4-6.7,0.1-9.9c-1-10-3.1-19.9-5.5-29.7c-4.6-18.3-10.3-36.3-17.1-53.9c-4.3-11.3-9.7-22.3-15.3-33
	c-7.2-13.8-14.2-27.8-21.4-41.5c-4.1-7.7-8.6-15.2-12.8-22.8c-2.8-5.1-5.6-10.3-8.4-15.4c-0.5-0.9-1.2-1.8-1.9-2.6
	c-0.2-0.7-0.4-1.5-0.6-2.3c3.1-0.2,6,0.4,8.8,1.4c3,1.1,6,2.2,9,3.3c0.4,0.1,0.7,0.3,1.1,0.5c8.1,4.9,16.1,9.8,22.9,16.5
	c4.3,4.2,8.8,8.1,13.3,12.1c5.8,5.1,11.1,10.6,15,17.4c1.4,2.4,3.1,2.8,5.1,1c1.8-1.6,3.4-3.4,4.7-5.4c1.8-2.7,3.2-5.5,4.7-8.3
	c0.3-0.5,0.5-1,0.9-1.4c6.3-6,9.4-13.6,11.1-21.9c2.5-11.9,1.6-23.7-0.7-35.5c-1.8-9.6-5.4-18.5-10.1-27c-1.8-3.3-3-6.6-3.5-10.4
	c-0.7-5.9-1.5-11.9-2.3-17.8c-0.1-0.6-0.1-1.2-0.1-2c2.7-0.4,4.7,0.7,6.2,2.5c1.4,1.6,2.7,3.4,3.7,5.3c2.3,4.2,4.5,8.5,6.6,12.8
	c0.7,1.3,1,2.9,1.3,4.3c2.7,14.7,4.7,29.5,6.3,44.4c1,9.2,0.7,18.5,1,27.8c0.3,10.9,0.4,21.9,0.9,32.8c0.4,8.5,1.4,17,3.7,25.3
	C395.5,411.9,396.2,412.9,396.6,414z M346.2,502.4c-0.9,1.6-1.7,3.3-2.7,5.2c2.2,3.6,4.4,7.5,6.9,11.1c2.2,3.2,3.5,6.7,4,10.4
	c1,6.9,1.8,13.9,2.5,20.9c1,10,0.3,20-2.4,29.7c-3,10.8-6.3,21.5-9.5,32.2c-1.6,5.4-3.6,10.6-6.8,15.3c-0.1,0.1,0,0.3,0,0.8
	c2.5-3.1,4.3-6.3,5.5-9.8c3.6-11.1,7.2-22.2,10.6-33.3c2.2-7.3,3.7-14.7,3.9-22.4c0.3-12-1.2-23.8-3.2-35.5
	c-1.5-9.1-5-17.7-7.9-26.4c-0.4-1.2-1.2-2.3-1.8-3.4C345.7,498.9,346.9,500.5,346.2,502.4L346.2,502.4z"/>
<path class="st0" d="M349.2,464.3c-0.5,0.6-1,1.2-1.3,1.9c-6.8,12.7-12.3,26-16.9,39.6c-2.5,7.3-5,14.5-6.4,22.1
	c-1,5.7-2,11.5-2.5,17.3c-0.3,2.9,0.2,6,1,8.7c1.8,6.2,1.7,12.3,0.5,18.5c-3.5,18.9-7.4,37.8-12,56.5c-2,8.2-5.4,16-8.5,23.9
	c-4.5,11.2-8.6,22.5-13,33.8c-0.2,0.4-0.3,0.9-0.6,1.5c-5.6-3.2-11.6-1.6-17.6-2.2c0.4-3.1,0.7-6.1,1.1-9.1c0.2-1.6,0.8-3.2,1-4.9
	c0.2-1.5,0-3,0.1-4.5c0.3-4.3,0.7-8.6,0.9-12.9c0.8-12,2.2-23.9,4.1-35.7c1.7-10.3,3.4-20.7,5.2-31c1-5.7,1.8-11.5,2.2-17.3
	c0.3-4.6,1.6-9.1,2.3-13.7c1.5-9.7,2.6-19.5,1.9-29.4c-0.5-6.7-0.5-13.4-0.6-20.1c-0.1-5.7,1.2-11.3,2.5-16.8
	c5.5-23.5,11-47,16.4-70.5c1.5-6.7,2.8-13.5,4.1-20.2c0.6-2.8,1-5.6,1.6-8.5c0.1-0.4,0.2-0.7,0.5-1.4c0.5,0.8,0.8,1.3,1.1,1.9
	c5.4,10.3,10.7,20.6,16.1,30.8c6.5,12.5,12.1,25.4,16.7,38.7C349.3,462.4,349.1,463.5,349.2,464.3
	C349.1,464.4,349.2,464.3,349.2,464.3z"/>
<path class="st0" d="M257.4,347.6c-0.1,0.3-0.3,0.5-0.4,0.8c-1.3,3.2-2.6,6.3-3.8,9.5c-3.7,10.1-7.3,20.3-11.1,30.4
	c-2.9,7.8-6.4,15.3-11.4,22.1c-0.6,0.7-1,1.5-1.6,2.3c-0.2,0-0.4-0.1-0.6-0.1c-0.6-3.1-1.4-6.2-1.8-9.4c-0.4-3.2-0.6-6.4-0.7-9.5
	c-0.2-3.1-0.2-6.2-0.3-9.2c-0.4,1.6-0.7,3.2-0.7,4.8c0,1.7,0.1,3.3,0.2,5c0,0.6,0,1.3,0.1,1.9c0.2,5.4,0.9,10.8,2.4,16.1
	c0.8,2.7,1.6,5.3,2.2,8c0.6,2.6,0.1,5.2-1.7,7.2c-2.8,2.9-5,6.2-7.2,9.5c-0.4,0.7-1.1,1.2-1.9,2c-0.6-1.1-1-1.7-1.3-2.4
	c-1.1-3-2.1-6-3.1-9c-0.3-0.8-0.7-1.5-1-2.3c0.4-1.1,0.1-2.1-0.8-3.4c0.3,1.4,0.6,2.4,0.8,3.3c0.7,2.8,1.5,5.6,2.2,8.4
	c0.3,1,0.5,2,0.7,3c0,0,0.1-0.1,0.1-0.1c-0.3,1-0.7,1.9-0.9,2.9c-1.5,6.3-2.9,12.6-4.4,18.9c-0.1,0.5-0.4,1-0.6,1.5
	c-0.2,0-0.3-0.1-0.5-0.1c-0.1-6.5-0.4-12.9-0.4-19.4c0-14.2,2.5-27.9,7.8-41.2c1.8-4.5,3.6-9,5.5-13.6c0.3-0.7,0.5-1.5,0.8-2.2
	c-0.6,0.5-0.9,1-1.2,1.6c-1.8,4.3-3.6,8.5-5.3,12.8c-2.4,6.1-4.5,12.3-5.8,18.7c-1.8,9-2.9,18-2.6,27.1c0.2,5.7,0.3,11.5,0.6,17.2
	c0.3,4.9,0.7,9.9,1.3,14.8c0.7,5.7,1.8,11.3,2.7,17c0.1,0.5,0.3,1.1,0.5,1.6c1.2,3.8,2.3,7.6,3.6,11.4c0.2,0.7,0.8,1.3,1.2,1.9
	c0.1,0.5,0.2,1,0.2,1.5c0.1,0.5,0.2,1.1,0.4,1.6c1.2,2.9,2.5,5.9,3.8,8.8c0.7,1.7,1.5,3.4,2,5.1c1.8,6.5,2.3,13.2,1.2,19.9
	c-1,6.7-2.1,13.4-3.2,20.1c-0.9,5.4-2,10.7-4.1,15.7c-3.2,7.4-7.4,14-14.9,17.8c-0.4,0.2-0.6,0.5-1,0.8c3.4-1.4,6.6-3.1,9-6
	c5.1-5.9,8.5-12.6,10.1-20.1c1.7-8,3-16.2,4.3-24.3c1-6.2,1.6-12.4,0.5-18.6c0-0.3,0-0.6,0-1.2c0.9,1.1,1.7,1.9,2.4,2.8
	c0,0-0.1-0.1-0.1-0.1c1.1,1.8,2.2,3.7,3.2,5.5c2.3,3.8,3.3,8,2.6,12.4c-0.3,1.9-0.6,3.8-1,5.7c-2.3,9.8-4.4,19.7-8.1,29.1
	c-3.6,9.1-7.6,18-13.2,26c-3.2,4.6-6.5,9.1-10.9,12.7c-0.4,0.3-0.9,0.7-1.3,1c-0.8,0.5-1.5,0.5-2.2-0.2c-2.7-3.2-5.2-6.5-7.3-10.1
	c5.1-3.5,8.6-7.9,10.6-13.4c-0.1-0.1-0.3-0.2-0.4-0.3c-1.4,0.6-2.8,1.2-4.1,1.9c-1.5,0.7-2.6,0.5-3.8-0.8c-2.3-2.4-4.7-4.5-7.1-6.8
	c-0.5-0.5-1.1-0.9-1.8-1.5c0.9-0.6,1.4-1,2-1.4c3.3-1.9,6.4-4.3,9-7.1c11.2-11.9,18.9-25.7,22.5-41.7c1.5-6.7,2.3-13.6,2.3-20.5
	c0-2.3-0.3-4.6-0.5-6.9c0-0.4-0.3-0.9-0.8-1.3c0.1,1.6,0.3,3.3,0.5,5.5c-0.6-0.7-1-1-1.3-1.4c-0.8-1.1-1.6-2.2-2.4-3.3
	c-4.1-4.9-6.7-10.4-7.7-16.8c-1.3-8.1-2.7-16.2-3.2-24.5c0-0.7,0-1.4,0.4-2.2c1,2.9,1.9,5.9,3,8.8c1.1,2.9,2.3,5.8,3.8,8.6
	c-0.3-1-0.5-1.9-0.9-2.9c-1.9-5.7-4.2-11.2-5.8-17c-3-11-4.1-22.3-3-33.7c0.3-3.3,0.7-6.5,1-9.8c0.3-3.7,0.6-7.5,0.8-11.2
	c0.2-4.3,1.2-8.4,2.7-12.4c2.9-7.5,3.9-15.5,4.7-23.4c0-0.5,0-1.1-0.1-1.7c-1.2,9.9-2.8,19.7-7,29.3c-0.8-3.7,0-7.2-0.9-10.6
	c-0.2,8.4,0.2,16.7-1.5,25.3c-0.3-0.5-0.6-0.8-0.7-1.1c-0.4-3.3-0.9-6.7-0.9-10c0-3.8,0.5-7.6,0.8-11.5c0-0.6,0.1-1.2,0-1.8
	c-1.9,7.8-2,15.6-0.8,23.8c-2.8-2.5-4.4-5.4-5.1-8.8c-1.1-5.8-1.2-11.6-0.5-17.4c0.3-2.8,0.8-5.5,1.1-8.3c0.1-0.7-0.2-1.3-0.4-2
	c2.6-6.9,6-13.5,9.7-20c-0.6,0.7-1.2,1.5-1.8,2.2c-0.6,0.8-1.1,1.6-1.6,2.4c-3.8,7.2-7.8,14.3-9.9,22.3c-0.6,2.2-1.8,4-3.3,5.9
	c-1.7-1.9-3.3-3.8-5.1-5.4c-1.8-1.6-3.9-2.8-6.1-4.3c7.8-8.6,11.1-19.3,15.3-29.5c-0.2,0.3-0.4,0.7-0.6,1c-0.2,0.4-0.3,0.7-0.5,1.1
	c-2.5,5.4-5,10.7-7.4,16.1c-1.5,3.1-3.6,5.8-5.9,8.7c-1.2-0.8-2.3-1.6-3.4-2.3c7-12,13.8-23.8,20.6-35.6c0.9-1.5,1.5-3.1,2.3-4.7
	c0.6,0.2,1.2,0.3,1.7,0.7c2.5,1.9,4.9,4,6.6,6.7c0.3,0.5,0.7,0.9,1,1.3c1.3,1.7,1.6,1.8,3.6,0.9c0.8-0.4,1.1,0.2,1.6,0.4
	c-0.1,1.1,0.7,1.5,1.4,2c0.6,0.4,1.3,0.7,1.9,1c2.3,1.2,4.1,2.9,5.2,5.4c0.9,2,2.1,3.8,3.2,5.6c0.5,0.7,1,1.6,1.7,2
	c2.4,1.3,2.1,3.2,1.3,5.2c-0.8,2-1.7,4-1.2,6.5c0.4-1.8,0.7-3.4,1.2-4.9c0.5-1.5,1.1-3,1.7-4.6c0.6,0.2,1.2,0.4,1.8,0.6
	c0.9,0.3,1.8,0.8,2.7,1c3.5,1,6.4,0,8.1-3.3c1.1-2.2,1.8-4.6,2.5-7c0.6-2.1,1-4.4,1.4-6.5c0.1-0.7,0.2-1.4,0.3-2.1
	c0.2-1.6-0.1-3-1.9-3.7c-0.1-0.1-0.4-0.1-0.4-0.2c-0.3-0.6-0.8-1.2-0.8-1.8c0-0.9,0.8-1.4,1.7-1.4c0.8,0,1.6-0.1,2.4,0
	c3,0.4,6,0.9,9,1.3C256.9,346.3,257.6,346.5,257.4,347.6z"/>
<path class="st0" d="M258.8,813.1c0-2.8-0.1-5.6,0-8.4c0.2-10.1-0.1-20.1-1.7-30.1c-0.8-5-1-10-1.4-15c-0.1-1.3,0.2-2.7,0.6-4
	c3.4-11,5.2-22.4,7.4-33.7c1.6-8.7,3.3-17.4,4.9-26.1c0.1-0.5,0.3-1.1,0.5-1.9c0.4,0.6,0.7,1.1,1,1.4c0.7,0.9,1.3,1.8,2.1,2.6
	c1.7,1.6,1.8,1.9,0.8,3.9c-0.6,1.2-1.3,2.4-2,3.5c-1.6,2.6-2.4,5.4-2,8.5c0.3,2.6,0.1,5.1-1,7.5c-0.9,2.2-1.4,4.4,0.2,6.6
	c0.5,0.7,0.4,1.9,0.2,2.8c-1.2,5.1-2.6,10.2-3.8,15.3c-0.4,1.5-0.5,3.2-0.3,4.7c0.3,2,0,3.8-0.9,5.5c-1.8,3.1-1.3,6.5-1.1,9.8
	c0.1,1.6,1.9,2.5,3.7,2c0.9-0.3,1.7-0.8,2.5-1.3c1-0.6,2-1.3,3.2-1.7c-0.3,0.4-0.5,0.9-0.8,1.2c-1.8,1.9-3.6,3.8-5.5,5.6
	c-2.2,2.1-3.4,4.7-4.2,7.7c-1.5,6-1.5,12-0.8,18.1c0.5,4.7,0.3,9.4-0.7,14.1c-0.1,0.5-0.3,1-0.5,1.5
	C259.1,813.2,259,813.2,258.8,813.1z"/>
<path class="st0" d="M204.3,474c0.3,2.4,0.5,4.9,0.8,7.3c0.8,5.5,1.5,11.1,2.4,16.6c0.3,1.7,0.1,3-0.7,4.5c-2,3.7-4.8,6.6-8,9.1
	c-1.8,1.4-2.1,1.3-3.5-0.3c-2.3-2.7-4.5-5.4-6.8-8c-0.2-0.3-0.4-0.6-0.8-1.1C195.3,493.9,200.9,484.6,204.3,474z"/>
<path class="st0" d="M258,723.2c0-7.3,0.1-14.5,0-21.8c0-3.9-0.4-7.8-0.5-11.7c-0.1-2.9,0-5.8,0.1-8.6c0-1.5-0.3-2.9-1.4-3.9
	c-1.3-1.2-1.6-2.7-1.2-4.4c0.3-1.2,0.4-2.3,0.7-3.6c6.1-0.9,11.7,0,17.3,2.8c-0.2,1.7-0.4,3.4-0.6,5.1c-2.4,0.4-4.6,0.9-6.8,1.2
	c-3.5,0.4-6.3,4.4-6.2,7.5c0.2,5.8,0.1,11.5,0,17.3c-0.1,5.6-0.3,11.2-0.6,16.8c0,1.2-0.3,2.4-0.5,3.5
	C258.2,723.2,258.1,723.2,258,723.2z"/>
<path class="st0" d="M316,83.3c1.5,0.7,2.9,1.5,4.4,2.2c2.8,1.4,5.6,2.6,8.3,4.2c6.7,4,10.4,10.4,12.9,17.6c2,5.9,2.1,12,1.6,18
	c-0.7,7.4-1.9,14.7-2.8,22.1c-0.7,5.5-1.2,11.1-1.8,16.7c-1.4,12.2-2.2,24.5-4.8,36.5c-0.5,2.2-1,4.3-1.5,6.5
	c-0.5,0.5-1,0.9-1.5,1.4c-3.1,3.2-6.8,4.6-11.3,3.7c-1.6-0.3-3.3-0.7-4.9-1.2c-4.7-1.5-9.3-1.3-13.9,0.3c-6.5,2.3-12,5.9-16.6,11
	c-0.5,0.5-0.9,1.1-1.4,1.7c-0.6-0.3-1-0.4-1.2-0.7c-2.2-2.1-4.9-3.2-7.9-3.8c-7.8-1.5-15.1-4.2-21.5-9c-4.5-3.4-8.2-7.6-11.6-12.1
	c-1.7-2.3-2.5-5-2.6-7.9c-0.1-3.7-0.2-7.5,0.2-11.2c1.1-9.4,2.1-18.7,4.2-28c1.6-7.2,3.2-14.5,4.6-21.8c0.8-3.8,1.3-7.7,1.9-11.9
	c0.6,0.7,1,1.1,1.3,1.5c4,6.3,7.6,12.8,9.7,20c1.3,4.4,2.8,8.7,4.1,13c3.6,12.5,12.4,20,24.1,24.5c4.9,1.9,10.1,2.5,15.2,3.3
	c5.9,1,11.5,2.6,16.4,6.2c3.5,2.6,6.4,5.8,8.8,9.4c0.8,1.2,1.1,2.6,1.6,3.8c0.3-1.7,0.2-2.5-1-4.4c-5.2-7.7-12.1-12.9-21.2-14.9
	c-4.3-0.9-8.6-1.6-13-2.4c-8.2-1.4-15.2-5.3-21.3-10.8c-4.2-3.8-6.9-8.6-8.6-13.9c-1.2-3.6-2.4-7.1-3.4-10.7
	c-2.7-9.9-7.5-18.8-13.5-27.1c-1.4-1.9-2.7-4-4.2-6.2c0.7-1,1.3-2.1,2.2-2.9c4.2-4.2,7.2-9.1,9.4-14.6c1-2.4,2.3-4.5,4.5-6.1
	c0.3,0.5,0.7,1,1,1.6l-0.1-0.1c0.7,3.6,2.5,6.5,5.3,8.9c2.6,2.2,5.3,4.4,7.9,6.6c1.3,1.1,2.6,1.7,4.3,1.9c10.2,1.2,20,3.9,29.7,7.3
	c6.5,2.2,12.6,5.2,17.4,10.2c0.5,0.5,1.1,1,1.8,1.3c-0.3-0.4-0.5-0.8-0.8-1.1c-3.5-3.9-7.7-6.9-12.6-8.9c-6.6-2.8-13.6-4.6-20.5-6.7
	c-0.9-0.3-1.8-0.5-2.9-0.9c1.1-2.2,2.7-3.6,4.8-4.3c0.7-0.2,1.6-0.1,2.3,0.2c6.7,2.6,13-0.3,15.1-7.2c0.5-1.7,0.8-3.6,1.1-5.4
	c0.3-1.7,0.6-3.4,1-5.3C315.3,83.5,315.6,83.4,316,83.3z M289.7,164.9c0-0.1,0-0.3,0-0.4c-1.4,0-2.8,0-4.2,0c-1.4,0-2.9,0.1-4.3-0.1
	c-3.1-0.3-4.2-2.2-2.9-5c0.4-0.9,1-1.8,1.7-2.6c2.4-2.9,5.4-5,8.7-6.7c5.2-2.7,10.6-4.8,16.2-6.4c6.3-1.8,12.6-3.5,18.9-5.2
	c3.2-0.9,6.2-2,9-3.9c2-1.4,3.7-3,4.6-5.4c1.7-4.7,1.8-9.4,0.9-14.3c-0.1,0.9-0.1,1.9-0.1,2.8c-0.2,2.7-0.2,5.4-0.6,8.1
	c-0.6,3.8-2.5,6.7-6,8.5c-2.1,1-4.2,2.1-6.4,2.8c-4,1.3-8,2.3-12,3.4c-8.1,2.1-16.2,4.5-23.7,8.3c-2.4,1.2-4.7,2.7-6.9,4.3
	c-2.2,1.5-3.9,3.6-5.1,6c-1.5,3.2-0.2,5.8,3.4,6.3c0.2,0,0.5,0.1,0.7,0C284.4,165.2,287,165.1,289.7,164.9z"/>
<path class="st0" d="M246.4,230.7c-0.1-0.5-0.2-1.1-0.4-1.6c-3.2-8.2-6.6-16.3-9.6-24.5c-1.8-5-3.1-10.2-4.7-15.3
	c-2.9-9.2-3.3-18.6-2.9-28.2c0.3-6.9,0.5-13.7,0.4-20.6c-0.2,2.8-0.4,5.6-0.5,8.4c-0.2,7.4-0.6,14.9-0.6,22.3
	c0,5.3,0.6,10.5,2.1,15.6c1.1,3.7,1,7.3-0.4,10.8c-2,5-4,10.1-6.3,15c-2,4.3-3.2,8.9-3.5,13.6c-0.3,3.3-0.1,6.5-0.2,9.8
	c-0.1,4.3-0.6,8.6-1.3,12.7c-1.5-0.3-2.9-0.5-4.3-0.8c-2.8-0.8-5.6-1.8-8.4-2.3c-5.6-1.1-11.1-0.6-16.5,1.6
	c-0.4,0.1-0.7,0.2-1.3,0.3c-0.3-2-0.7-3.8-0.4-5.7c0.4-3,0.5-6,0.8-9.1c0.9-8,2.9-15.7,4.8-23.5c2.6-10.4,5.3-20.7,7.7-31.1
	c2.7-11.3,5.2-22.7,7.8-34.1c0.3-1.3,0.7-2.6,1.1-4.1c0.8,0.7,1.5,1.2,2.4,2c-1.1-2.4-3.9-3.6-3-6.6c2.2,0.4,3.4-1,4.7-2.4
	c4.7-5.2,10.7-8.5,16.8-11.8c3.7-2,7.6-3.8,11.4-5.7c1.2-0.6,2.5-1,3.7-1.5c1.8,1.1,1.5,2.8,1.5,4.3c-0.2,5.7-1.2,11.3-2.4,16.8
	c-1.8,8.3-3.8,16.5-5.3,24.8c-1.3,7.6-2.2,15.3-2.9,23.1c-0.3,3.2,0.1,6.5,0.3,9.8c0.1,2.1,1,4.1,2.2,5.8c5.7,8,12.6,14.7,21.9,18.4
	c3.5,1.4,7.2,2.2,10.8,3.2c3,0.8,6.1,1.4,8.5,3.7c0.3,0.3,0.7,0.4,1.3,0.9c-1.3,0.8-2.1,1.3-3,1.8c-4.8,2.2-9.6,4.4-14.4,6.4
	c-4.4,1.9-9.1,2.3-13.8,2.8c-0.9,0.1-1.5-0.2-2-1C248,233.3,247.2,232,246.4,230.7z M206.7,186.4c-0.1,6.3-0.5,12.7,1,19
	C207.4,199,207,192.6,206.7,186.4z M219.4,183.5c-0.1,0-0.1,0-0.2,0c0,0.9,0,1.8,0,2.7c0.1,0,0.1,0,0.2,0
	C219.4,185.4,219.4,184.5,219.4,183.5z"/>
<path class="st0" d="M238.3,236.5c-0.5,0.1-1,0.1-1.4,0.3c-2.2,1-2.7,2.2-1.2,4.1c1,1.4,2.3,2.6,3.6,3.8c2.4,2.2,5,4.3,7.5,6.4
	c2,1.7,3,3.9,3.6,6.3c0.1,0.4,0.1,1-0.1,1.3c-1.4,2.6-2.5,5.4-4.2,7.8c-2.7,3.9-5.7,7.5-8.8,11.4c-4.9-1.3-9.9-2.3-13.6-6.6
	c-1.1-1.3-1.7-2.7-1.8-4.3c-0.1-2.3-0.1-4.6-0.2-7c0-1.4-0.1-2.7-0.1-4.1c-0.1-2.1-0.5-4-2.8-4.8c0.4-2.4,0.8-4.7,1-7
	c0.3-4.2,0.5-8.5,0.4-12.7c-0.1-6.9,1.2-13.4,4.4-19.6c2.1-4,3.8-8.1,5.5-12.2c0.7-1.7,1.1-3.5,1.8-5.6c0.3,0.7,0.4,1.2,0.6,1.7
	c2.2,8.1,5.5,15.8,8.6,23.6c1.4,3.4,2.8,6.8,4.2,10.2c0.2,0.5,0.6,0.9,0.9,1.3c0.5,1.6,0.9,3.1,1.5,5c-2.4,0-4.6,0-6.9,0.2
	C240.1,235.9,239.2,236.2,238.3,236.5z"/>
<path class="st0" d="M261.2,87.1c-0.3-2.9-0.6-5.8-0.9-8.7c-0.8,0.3-1.5,0.6-2.2,0.7c-0.9,0.1-1.8,0-2.3-1.2
	c0.4-0.2,0.8-0.4,1.2-0.5c4.1-1,7.5-3.2,10-6.6c1.5-2.1,3.8-2.7,5.9-4c-0.5-0.4-0.9-0.8-1.4-1.2c0.5-2.6,2.3-0.9,4-1
	c-0.8-1-1.3-1.7-1.9-2.6c2.5-4,3.8-8.7,5.1-13.3c0.7-2.7,2.2-4.9,4.9-6.2c1-0.5,1.8-0.4,2.6,0.3c3.1,2.5,5.3,5.6,5.6,9.7
	c0.2,2.4,0,4.9,0,7.5c-2.6,0.8-5.5,1.2-7.6,3.5c2.5-0.6,4.9-1.2,7.7-1.8c0.1,1,0.1,1.8,0.1,2.6c-2.5,0.7-5.5-0.3-7.5,2.8
	c0.9-0.3,1.3-0.4,1.9-0.6c0.6,1.4,1.5,2.5,3.4,1.8c0.5-0.7,1.1-1.5,1.9-2.5c0.2,0.8,0.4,1.2,0.5,1.7c0.5,2.8,1.1,5.6,1.6,8.5
	c0.2,0.9,0.4,1.8,0.3,2.6c-0.3,3.4-0.7,6.8-1.2,10.2c-0.4,2.3-1.5,4.4-3.2,6.1c-1.7,1.8-3.4,3.6-5.2,5.3c-0.8,0.8-1.7,1.5-2.7,2
	c-2.7,1.5-5.4,1.1-7.7-0.9c-2-1.7-4-3.4-6.1-5c-2.8-2.1-4.9-4.8-6.1-8.1C261.7,87.7,261.4,87.4,261.2,87.1
	C261.1,87,261.2,87.1,261.2,87.1z M278.4,81.6c1.9,0.6,1.9,0.6,2.4-0.4C280,81.3,279.4,81.4,278.4,81.6z M279.5,93.3
	c0-0.1,0-0.2-0.1-0.4c-0.6,0-1.1,0.1-1.7,0.1c0,0.1,0,0.2,0,0.2C278.3,93.3,278.9,93.3,279.5,93.3z"/>
<path class="st0" d="M243.5,58.4c2.5-2.1,5-4.1,7.6-6.3c2.4,1.6,3.6-0.1,4.6-2.3c-0.2,3.7-1.5,6.6-4.6,8.5c-0.8,0.5-1.6,1-2.4,0.3
	c-1-0.8-1.9-0.5-2.9-0.3C245,58.5,244.2,59.2,243.5,58.4z"/>
<path class="st0" d="M293.5,51.9c2.3,6.6,1.4,13.3,0.7,20.1C292.8,65.3,293.6,58.6,293.5,51.9z"/>
<path class="st0" d="M305.9,68.8c-0.7-2.8-0.4-5.4-0.2-8.3C308.5,63.8,308.5,64.4,305.9,68.8z"/>
<path class="st0" d="M261,59.5c-0.5-2.3-2.5-1.3-4-1.9c0.1-0.7,0.3-1.3,0.4-2c1.4-0.2,2.6-0.4,4-0.5c0,1.4,0,2.7,0,4.1
	C261.3,59.3,261.2,59.4,261,59.5z"/>
<path class="st0" d="M244,46c-1.1,2.4-2.7,3.7-4.9,4.2c-0.3,0.1-0.8-0.5-1.3-0.8C239.9,48.2,241.8,47.2,244,46z"/>
<path class="st0" d="M239.3,60.6c-2.8,1.4-6.1,1.6-8.8,0.5C233.5,60.9,236.5,60.8,239.3,60.6z"/>
<path class="st0" d="M265.3,62.6c1.2-1.7,2.3-3.3,3.4-4.8C268.9,59.7,267.8,61.4,265.3,62.6z"/>
<path class="st0" d="M234.4,83.3c1-0.8,2-1.7,3-2.5c0.1,0.1,0.2,0.2,0.3,0.3c-0.9,0.9-1.8,1.9-2.7,2.8
	C234.8,83.7,234.6,83.5,234.4,83.3z"/>
<path class="st0" d="M248.8,52c-0.6,0.9-1.1,2.1-3.1,1.4c1.1-0.7,1.9-1.3,2.8-1.8C248.6,51.7,248.7,51.8,248.8,52z"/>
<path class="st0" d="M277.6,43c-0.5,0.6-1,1.2-1.8,2C275.9,43.7,276.7,43.2,277.6,43z"/>
<path class="st0" d="M212.8,351.1c0.3-0.7,0.3-1.6,0.8-2.1c2.4-2.5,4.9-5.1,7.5-7.4c2.6-2.2,5.4-4.2,8.1-6.3
	c0.6-0.4,1.3-0.7,1.8-1.1c1.2-0.9,1.2-1.8,0.1-2.7c-0.3-0.3-0.6-0.5-1-0.7c-2.4-0.7-3.4-2.7-4.4-4.7c-1.9-4-4.2-7.8-7.2-11.3
	c0.3,0.7,0.7,1.4,1,2c1.7,3.2,3.4,6.5,5.2,9.7c0.6,1.2,1.3,2.3,2.1,3.6c-5.3,1.2-10.5,2.2-15.1,5.1c0.6-0.2,1.3-0.5,1.9-0.7
	c4.2-1.6,8.5-2.7,12.9-3.4c1.8-0.3,3.3,0.2,4.6,1.9c-0.9,0.6-1.6,1.2-2.4,1.7c-4.4,2.4-8.2,5.5-11.5,9.2c-1.7,1.9-3.6,3.6-5.6,5.2
	c-1.9,1.6-2.4,1.6-3.8-0.5c-2.6-3.9-6.4-6.5-9.9-9.3c-0.2-0.1-0.5-0.1-0.7-0.2c0.2-0.6,0.2-1.4,0.6-1.9c6.2-8.3,12.3-16.5,20.2-23.3
	c2.5-2.1,4.9-4.4,7.5-6.2c3.6-2.5,7.7-3.5,12.1-2.2c3.5,1,4.4,3.5,2.3,6.6c-0.5,0.7-1,1.3-1.5,1.9c-1.3,1.7-1.9,3.6-1.9,5.8
	c0,0.9-0.1,1.9-0.5,2.7c-1.6,3.2-2.3,6.6-3,10.1c1.3-2.3,2.6-4.5,3.9-6.8c1.2,3.3-0.4,7,2.5,9.8c-2.5,0.8-4.6-0.6-6.9-1
	c2.5,1.8,5.4,2.7,8.3,1.9c3.7-1.1,6.5-0.3,9.4,2.2c1.6,1.4,4,1.9,6.1,2.6c1.7,0.6,3.1,1.3,3.3,3.3c-1.4,1-3,0.7-4.4,0.6
	c-2.9-0.3-5.9-0.8-8.8-1.1c-0.9-0.1-1.7,0-2.6,0.1c-1.1,0.2-1.6,1-1.8,2c-0.3,1.1,0.1,2.1,1.1,2.5c2.5,1.1,2.3,2.9,1.8,5
	c-0.6,2.5-1.1,5-1.8,7.5c-0.5,1.9-1.2,3.8-2.1,5.6c-1.7,3.5-4.2,4.3-7.9,3.1c-4.7-1.6-8.3-4.5-10.3-9.1c-1.6-3.7-4.1-6.4-7.8-8
	C214.3,352.4,213.6,351.7,212.8,351.1z M218.6,339.1c2-1.5,4-3,5.9-4.5C222.1,335.5,220,336.9,218.6,339.1z"/>
<path class="st0" d="M266.5,328.7c-0.9,0.5-1.9,0.9-2.8,1.4c-1.7,1.1-1.8,1.5-1.2,3.6c0.1,0.4,0.2,0.8,0.1,1.1
	c-0.9,2.2-1.9,4.3-2.9,6.4c-1.9-0.6-3.6-1-5.2-1.7c-1.7-0.8-3.4-1.8-5-2.8c-1.3-0.8-2.6-1.7-4-2.6c4.8-1.7,7.8-5.7,11.1-9.4
	c1-1.1,2.1-1.8,3.6-2.3c2.3-0.7,4.5-1.7,6.9-2.7c-0.5,2.8-2.3,4.9-3.4,7.7C264.6,328,265.5,328.4,266.5,328.7
	C266.4,328.8,266.5,328.7,266.5,328.7z"/>
<path d="M380.8,439.5c-2.5,1.7-3.4,4.4-2.9,7.5c0.4,2.3,0.6,4.8,0.4,7.1c-0.1,1.2-1,2.4-1.8,3.5c-0.8,1.1-2,1.3-3.2,0.9
	c-1.2-0.4-1.6-1.5-1.7-2.7c-0.2-3.7-0.5-7.5-0.8-11.2c-0.1-1.3-0.3-2.5-0.3-3.8c0.8,1.5,0.9,3.3,1,5c0.3,3,0.4,6,0.6,9.1
	c0,0.5,0.1,1,0.2,1.4c0.5,1.8,2,2.3,3.5,1c1.3-1.2,2.1-2.7,2-4.4c0-1.8-0.1-3.7-0.5-5.5c-0.5-2.1-0.2-3.9,0.8-5.7
	c0.6-1,1.2-2.1,1.8-3.3C380.4,438.9,380.6,439.2,380.8,439.5L380.8,439.5z"/>
<path d="M380.9,439.6c0.9-1,1.5-1.1,2.1-0.2c0.3,0.5,0.6,1.2,0.7,1.8c0.1,1.9,0.1,3.8,0.1,5.7c0,2.3,0,4.6,0.1,6.9
	c0,1.4,0.3,2.9,0.2,4.3c0,1-0.5,1.9-1,2.8c0.7-2.9,0.1-5.8-0.1-8.6c-0.1-1.7,0-3.5,0-5.2c0-2.1-0.1-4.1-0.2-6.2
	C382.7,439.6,382,439.1,380.9,439.6C380.8,439.5,380.9,439.6,380.9,439.6z"/>
<path d="M376,465.4c1.6-1,3.2-2.1,4.8-3.1C379.9,463.7,377.8,464.8,376,465.4L376,465.4z"/>
<path d="M376,465.3c-0.8,0.6-1.6,1.3-2.6,2.1C374.3,465.9,374.3,465.9,376,465.3C376,465.4,376,465.3,376,465.3z"/>
<path d="M193.6,261.4c-0.5,0.6-1,1.1-1.5,1.7C192.3,262.2,192.6,261.4,193.6,261.4C193.6,261.4,193.6,261.4,193.6,261.4z"/>
<path d="M229.6,531.6c-0.7-0.9-1.5-1.7-2.4-2.8c0,0.6-0.1,0.9,0,1.2c1.1,6.2,0.5,12.4-0.5,18.6c-1.4,8.1-2.6,16.2-4.3,24.3
	c-1.6,7.5-5,14.3-10.1,20.1c-2.4,2.8-5.6,4.6-9,6c0.3-0.3,0.6-0.6,1-0.8c7.5-3.8,11.7-10.4,14.9-17.8c2.1-5,3.2-10.4,4.1-15.7
	c1.1-6.7,2.2-13.4,3.2-20.1c1-6.7,0.6-13.4-1.2-19.9c-0.5-1.8-1.3-3.4-2-5.1c-1.2-2.9-2.5-5.9-3.8-8.8c-0.2-0.5-0.3-1.1-0.4-1.6
	c0.3,0.4,0.6,0.7,1.2,1.5c0-2.2-0.2-3.9,0-5.6c0.8-5.2,1.8-10.4,2.8-15.6c1.8-9.7,3.6-19.3,5.4-29c0.1-0.4,0-0.9-0.2-1.4
	c-4.1,9.5-8.2,19-12.3,28.5c-0.1,0-0.2-0.1-0.3-0.1c0.6-1.6,1.1-3.3,1.8-4.8c2.7-6.3,5.4-12.6,8-19c1.5-3.7,3-7.4,4.2-11.2
	c0.9-3.1,1.5-6.4,2-9.6c2.9-19.1,8.8-37.4,14.9-55.7c0.7-2,1.4-4.1,2.5-6c-1,3.1-2,6.2-2.9,9.3c-3.2,10.7-6.6,21.4-9.5,32.2
	c-1.7,6.4-2.6,13-3.7,19.5c-2.6,14.2-5.1,28.5-7.7,42.7c-1,5.1-2.3,10.1-3.5,15.2c-1,4.2-1.1,8.4-0.4,12.6c0.3,1.8,1.1,3.5,1.8,5.2
	c1,2.4,1.9,4.9,3.1,7.3c0.8,1.7,1.8,3.2,2.6,4.8C229.2,530.4,229.4,531,229.6,531.6z"/>
<path d="M242,436.2c0,3,0,6.1,0,9.1c0.2,12.4,0.2,24.8,0.7,37.2c0.4,10.1,1.9,20,3.4,30c3.2,21.3,8.8,42,14,62.9
	c1.9,7.9,4.3,15.7,7.2,23.3c0.2,0.6,0.4,1.2,0.2,1.9c-0.3-0.6-0.6-1.2-0.9-1.8c-3.7-8.5-6.2-17.5-8.3-26.5
	c-2.9-12-5.9-23.9-8.6-35.9c-2.7-12.2-4.7-24.6-6.2-37.1c-1.2-9.8-1.8-19.6-1.9-29.4c0-10.1,0-20.3,0.1-30.4c0-1.1,0-2.2,0-3.3
	C241.8,436.2,241.9,436.2,242,436.2z"/>
<path d="M218.8,507.6c-0.4-0.6-1-1.2-1.2-1.9c-1.2-3.8-2.4-7.6-3.6-11.4c-0.2-0.5-0.4-1.1-0.5-1.6c-0.9-5.7-1.9-11.3-2.7-17
	c-0.6-4.9-1-9.8-1.3-14.8c-0.3-5.7-0.4-11.5-0.6-17.2c-0.3-9.2,0.8-18.2,2.6-27.1c1.3-6.5,3.3-12.7,5.8-18.7
	c1.7-4.3,3.5-8.6,5.3-12.8c0.2-0.6,0.5-1.1,1.2-1.6c-0.2,0.7-0.5,1.5-0.8,2.2c-1.8,4.5-3.7,9-5.5,13.6c-5.2,13.2-7.8,27-7.8,41.2
	c0,6.5,0.2,12.9,0.4,19.4c0.2,0,0.3,0.1,0.5,0.1c0.2-0.5,0.5-1,0.6-1.5c1.5-6.3,2.9-12.6,4.4-18.9c0.2-1,0.6-1.9,0.9-2.9
	c-1.2,8.7-3.1,17.3-5.6,25.7c-0.3,0.9-0.4,1.9-0.3,2.8c0.5,5.1,1,10.1,1.7,15.2c0.5,3.8,1.2,7.5,1.8,11.3c0.2,1,0.4,2,0.7,3
	C216.3,498.9,217.6,503.2,218.8,507.6z"/>
<path d="M253.8,445.9c1.4,12.4,2.6,24.8,4.2,37.1c1.2,9.7,2.7,19.5,4.3,29.1c1.7,10.4,3.5,20.8,5.5,31.1
	c3.1,15.4,7.6,30.4,13.7,44.8c0.3,0.6,0.5,1.3,0.3,2.1c-0.5-1-1.1-2-1.5-3c-4.5-10.8-8.1-21.8-11-33.1c-3.3-13-5.5-26.3-7.6-39.5
	c-1.4-9.2-2.8-18.3-4-27.5c-1.1-8.1-1.9-16.2-2.7-24.3c-0.5-4.3-0.8-8.6-1.2-12.9c-0.1-1.3-0.1-2.7-0.2-4.1
	C253.7,445.9,253.8,445.9,253.8,445.9z"/>
<path d="M216.6,436.6c-0.2-1-0.5-2-0.7-3c-0.7-2.8-1.5-5.6-2.2-8.4l0,0c0.3,0.8,0.7,1.5,1,2.3c1.1,3,2,6,3.1,9
	c0.3,0.7,0.7,1.4,1.3,2.4c0.8-0.8,1.5-1.3,1.9-2c2.2-3.3,4.5-6.6,7.2-9.5c1.9-2,2.3-4.5,1.7-7.2c-0.6-2.7-1.4-5.4-2.2-8
	c-1.6-5.2-2.2-10.6-2.4-16.1c0-0.6,0-1.3-0.1-1.9c-0.1-1.7-0.3-3.4-0.2-5c0-1.6,0.3-3.2,0.7-4.8c0.1,3.1,0.1,6.2,0.3,9.2
	c0.2,3.2,0.3,6.4,0.7,9.5c0.4,3.1,1.2,6.2,1.8,9.4c0.2,0,0.4,0.1,0.6,0.1c0.5-0.8,1-1.6,1.6-2.3c5.1-6.7,8.5-14.3,11.4-22.1
	c3.8-10.1,7.4-20.3,11.1-30.4c1.2-3.2,2.5-6.4,3.8-9.5c-0.1,0.7-0.1,1.4-0.4,2.1c-3.1,9.1-6.2,18.1-9.5,27.1c-2.4,6.6-5.2,13-8,19.5
	c-2.1,5.1-5.1,9.8-8.4,14.2c-1.3,1.8-1.6,3.4-0.8,5.5c0.9,2.5,1.6,5.1,0.5,7.7c-0.5,1.3-1.2,2.6-2.1,3.7c-1.9,2.6-4,5.2-6,7.8
	c-0.7,0.9-1.4,1.9-2.3,2.8c-0.7,0.7-1.4,0.6-2-0.2C217.6,438,217.1,437.3,216.6,436.6z"/>
<path d="M268,644.2c0.1-10,0.3-20,0.4-30c0.1,0,0.2,0,0.4,0c0,0.5,0.1,0.9,0.1,1.4c0.1,9.3,0.2,18.5,0.3,27.8c0,1.1-0.1,2.2-0.3,3.3
	c-0.1,0.4-0.5,0.8-0.9,0.9c-0.2,0.1-0.7-0.3-0.9-0.6c-0.3-0.5-0.5-1.2-0.7-1.8c-1.3-3.4-2.5-6.7-3.8-10.1c-1.5-3.7-3.7-7.1-6.3-10.1
	c-2.6-2.9-5.7-4.9-9.6-5.4c-0.5-0.1-1.1-0.3-1.5-0.5c3.7-0.1,7,1.1,9.8,3.5c3.9,3.3,6.7,7.5,8.7,12.1c1.1,2.6,2.1,5.3,3.2,8
	c0.2,0.5,0.4,1,0.6,1.5C267.7,644.3,267.9,644.3,268,644.2z"/>
<path d="M242.9,617.8c4.1-27.9,4-56,3.8-84.1c0.2,4.7,0.5,9.3,0.6,14c0.3,17.4,0.1,34.8-1.4,52.2c-0.5,5.6-1.7,11-2.5,16.6
	C243.3,616.9,243,617.3,242.9,617.8z"/>
<path d="M294.6,434.7c0.4-3,0.9-6,1.1-9c0.9-10.4,1.8-20.7,2.4-31.1c0.6-10.4,0.2-20.8-0.7-31.1c-0.1-0.6,0-1.3,0.1-1.9
	c1.2,7.5,1.6,15,1.7,22.6c0.1,10.6-0.4,21.1-1.8,31.6c-0.7,5.8-1.4,11.6-2.1,17.4C295.2,433.7,294.8,434.2,294.6,434.7L294.6,434.7z
	"/>
<path d="M279,408.1c0.7-18,1.4-36,2.1-54C281.3,372.2,280.4,390.1,279,408.1z"/>
<path d="M236.1,641.2c0-1.7-0.3-3.3-0.1-5c0.8-5.8,0.6-11.3-2.4-16.5c-0.1-0.1-0.1-0.3-0.1-0.5c0-0.1,0.1-0.1,0.3-0.5
	c1.7,3.1,3.2,6.1,3.4,9.6c0,1.1,0,2.2,0.1,3.3C237.6,635,236.7,638.1,236.1,641.2C236.1,641.2,236.1,641.2,236.1,641.2z"/>
<path d="M278.2,602.9c-1.5,3.2-4.5,5.3-7.7,4C274.3,607.2,276.1,604.8,278.2,602.9z"/>
<path d="M294.6,434.7c0.1,0.8,0.2,1.5,0.3,2.3c-0.1,0-0.2,0-0.3,0C294.6,436.2,294.6,435.5,294.6,434.7
	C294.6,434.7,294.6,434.7,294.6,434.7z"/>
<path d="M232.2,617.3c-0.3-0.4-0.6-0.8-1-1.2c0.1-0.1,0.2-0.1,0.3-0.2c0.3,0.4,0.6,0.8,1,1.2C232.4,617.2,232.3,617.3,232.2,617.3z"
	/>
<path d="M278.8,414c0-0.4,0-0.7,0-1.1c0,0,0.1,0,0.1,0C278.8,413.3,278.8,413.7,278.8,414C278.8,414,278.8,414,278.8,414z"/>
<path d="M346.1,502.4c0.8-1.9-0.3-3.5-0.7-5.4c0.6,1.1,1.4,2.2,1.8,3.4c2.9,8.7,6.3,17.2,7.9,26.4c2,11.8,3.5,23.5,3.2,35.5
	c-0.2,7.7-1.7,15.1-3.9,22.4c-3.4,11.2-7,22.2-10.6,33.3c-1.1,3.5-3,6.7-5.5,9.8c0-0.4-0.1-0.7,0-0.8c3.2-4.7,5.2-9.9,6.8-15.3
	c3.2-10.7,6.5-21.4,9.5-32.2c2.7-9.7,3.4-19.7,2.4-29.7c-0.7-7-1.5-14-2.5-20.9c-0.5-3.7-1.8-7.2-4-10.4c-2.6-3.7-4.7-7.6-6.9-11.1
	C344.4,505.6,345.3,504,346.1,502.4c-0.3,1.1-0.6,2.4-1.1,3.5c-0.5,1.2-0.5,2.2,0.3,3.3c2,3,3.8,6.1,5.7,9.1
	c0.3,0.5,0.8,0.9,1.2,1.4c0.2-0.1,0.3-0.1,0.5-0.2c-1.9-5.8-3.7-11.6-5.6-17.5C346.5,502.3,346.3,502.4,346.1,502.4z"/>
<path d="M213.6,425.1c-0.2-1-0.5-2-0.8-3.3C213.7,423.1,214,424.1,213.6,425.1C213.6,425.2,213.6,425.1,213.6,425.1z"/>
<path d="M289.7,164.9c-2.7,0.1-5.4,0.3-8.1,0.4c-0.2,0-0.5,0-0.7,0c-3.5-0.5-4.9-3-3.4-6.3c1.1-2.4,2.9-4.4,5.1-6
	c2.2-1.6,4.5-3.1,6.9-4.3c7.5-3.8,15.6-6.2,23.7-8.3c4-1,8-2.1,12-3.4c2.2-0.7,4.3-1.7,6.4-2.8c3.5-1.8,5.4-4.7,6-8.5
	c0.4-2.7,0.4-5.4,0.6-8.1c0.1-0.9,0-1.9,0.1-2.8c0.9,4.8,0.8,9.6-0.9,14.3c-0.8,2.4-2.5,4-4.6,5.4c-2.8,1.8-5.8,3-9,3.9
	c-6.3,1.8-12.6,3.5-18.9,5.2c-5.6,1.6-11,3.8-16.2,6.4c-3.3,1.7-6.3,3.8-8.7,6.7c-0.7,0.8-1.3,1.7-1.7,2.6c-1.3,2.8-0.2,4.7,2.9,5
	c1.4,0.1,2.9,0.1,4.3,0.1c1.4,0,2.8,0,4.2,0C289.7,164.7,289.7,164.8,289.7,164.9z"/>
<path d="M206.7,186.4c0.3,6.2,0.7,12.6,1,19C206.2,199.1,206.6,192.7,206.7,186.4z"/>
<path d="M219.4,183.5c0,0.9,0,1.8,0,2.7c-0.1,0-0.1,0-0.2,0c0-0.9,0-1.8,0-2.7C219.3,183.5,219.3,183.5,219.4,183.5z"/>
<path d="M278.4,81.6c1-0.2,1.6-0.3,2.4-0.4C280.3,82.2,280.3,82.2,278.4,81.6z"/>
<path d="M279.5,93.3c-0.6,0-1.2,0-1.8,0c0-0.1,0-0.2,0-0.2c0.6,0,1.1-0.1,1.7-0.1C279.4,93.1,279.4,93.2,279.5,93.3z"/>
<path d="M218.6,339.1c1.4-2.2,3.5-3.6,5.9-4.5C222.6,336.1,220.6,337.6,218.6,339.1z"/>
<path class="st0" d="M346.1,502.4c0.2-0.1,0.4-0.2,1-0.4c1.9,5.8,3.7,11.6,5.6,17.5c-0.2,0.1-0.3,0.1-0.5,0.2
	c-0.4-0.5-0.9-0.9-1.2-1.4c-1.9-3-3.7-6.1-5.7-9.1c-0.7-1.1-0.8-2.1-0.3-3.3C345.5,504.8,345.8,503.5,346.1,502.4
	C346.2,502.4,346.1,502.4,346.1,502.4z"/>
</svg>
