<?xml version="1.0" encoding="utf-8"?>
<!-- Generator: Adobe Illustrator 19.0.0, SVG Export Plug-In . SVG Version: 6.00 Build 0)  -->
<svg version="1.1" id="图层_1" xmlns="http://www.w3.org/2000/svg" xmlns:xlink="http://www.w3.org/1999/xlink" x="0px" y="0px"
	 viewBox="0 0 595.3 841.9" style="enable-background:new 0 0 595.3 841.9;" xml:space="preserve">
<style type="text/css">
	.st0{fill:#FFFFFF;}
</style>
<path class="st0" d="M593.1,838.7c-196.5,0-393,0-589.5,0c0-278,0-555.9,0-833.9c196.5,0,393,0,589.5,0
	C593.1,282.8,593.1,560.7,593.1,838.7z M275.7,768.1c0.5,1.1,0.8,2.2,1.4,3.2c0.8,1.3,1,2.6,1.1,4.1c0,0.7,0,1.4,0,2.1
	c0.4,4.7,1.4,5.7,6.1,5.4c7.6-0.5,15.2-1.1,22.8-1.6c5.2-0.4,9.4-2.7,12.7-6.7c1.7-2,3.1-4.2,4.5-6.4c2.3-3.7,4.5-7.4,6.8-11.2
	c1.3,0.9,2.5,0.5,3.6-0.2c0.9-0.6,1.8-1.1,2.7-1.5c4.2-2,8.3-3.9,12.5-5.8c2.3-1.1,4.4-2.6,6-4.5c2.8-3.3,5.6-6.7,8.2-10.1
	c1.7-2.2,3.1-4.6,4.4-7c0.9-1.5,1-3.1-0.2-4.7c-3.3-4.3-6.5-8.6-8.7-13.5c-0.2-0.4-0.4-0.7-0.7-1c-4.1-5.6-8.2-11.2-12.4-16.8
	c-1.1-1.5-2.2-2.9-3.4-4.3c-1.2-1.3-2.7-1.8-4.5-1.3c-0.7,0.2-1.5,0.4-2.5,0.6c-1.1-3.1-2.2-6.2-3.2-9.2
	c-3.5-10.9-6.8-21.9-11.9-32.3c-3.7-7.6-7.2-15.3-10.8-23c-0.5-1.1-0.7-2.1-0.5-3.4c0.6-4.1,1.2-8.3,0.4-12.5
	c-0.4-2.3-0.7-4.5-1.1-6.8c-1.4-8.9-3.1-17.8-5.8-26.4c-2.1-6.6-3.9-13.2-5.7-19.8c-0.3-1-0.5-2.3-0.2-3.3
	c2.2-7.8,4.3-15.6,6.7-23.3c3.4-10.6,7.1-21,10.4-31.6c3.5-11.3,4.5-23,5.4-34.7c0-0.7,0.1-1.4,0.1-1.7c2.3-0.6,4.3-1.2,6.5-1.8
	c-0.9,3.5-1.2,7.1-2.9,10.3c-0.8,1.5-1.3,3-1.8,4.6c-0.3,1-0.5,2.3,0.6,3c1.1,0.7,2.1,0.1,3.1-0.3c0.5-0.2,1-0.5,1.4-0.9
	c1.2-1.1,2.5-2.2,3.6-3.4c0.7-0.8,1.4-1.2,2.4-1.2c1.2,0,2.3-0.4,3.3,0.6c0.2,0.2,0.7,0.3,1.1,0.3c4.6,0.2,8.8-1.4,12.2-4.4
	c5.1-4.5,8.3-10.1,8.3-17.2c0-5.5,0.2-11.1,0.3-16.6c0-0.5-0.1-1.1,0.1-1.4c1.2-1.7,0.9-3.6,1.3-5.5c0.6-2.7,1.3-5.4,1.9-8.1
	c0.3-1.2,1.1-2,2.2-2.7c2.8-1.8,3.1-2.8,1.7-5.9c-0.2-0.5-0.5-1-0.8-1.5c-1.6-2.6-3.3-5.2-4.9-7.8c-0.7-1.1-1-2.1-0.5-3.3
	c1-2.8,2-5.7,3.1-8.5c0.6-1.7,1.5-3.3,2-5.1c2.7-8.5,5.3-17.1,7.9-25.6c1.6-5.1,2.2-10.4,1.8-15.7c-0.7-10.3-0.8-20.6-0.5-30.9
	c0.2-7.1,0.3-14.3,1-21.4c1.3-13.4,2.3-26.8,2.6-40.3c0.2-8.7,1-17.4,0.1-26.1c-0.2-1.6-0.5-3.3-1-4.9c-1.6-4.6-3-9.3-3.9-14.2
	c-0.5-2.6-1.2-5.1-2-7.6c-1.4-4.3-4.2-7.4-8.2-9.3c-2.7-1.2-5.3-2.4-8.1-3.4c-6.4-2.4-12.6-5.2-18.1-9.3c-1.7-1.3-3.4-2.5-5.2-3.8
	c0.7-1.1,1.2-2.1,1.9-3c4.3-5.9,6.8-12.5,8.6-19.4c1-4,1.3-8.1,0.9-12.3c-0.4-3.4-1.6-6.6-2.6-9.8c-0.7-2.3-1.7-4.6-1-7.1
	c0.3-1.1-0.4-2.2-1.6-2.3c-1.4-0.2-1.6-1.1-2-2c-1.5-3.6-1.7-7.3-1.2-11.2c0.5-3.5,2-6.1,4.8-8.1c1.1-0.8,2.5-1.4,3.7-2.1
	c2-1.2,4.2-2.3,6.1-3.7c2.3-1.6,2.6-3.6,1.2-6c-1.4-2.4-3.6-3.9-6.3-4.2c-2.4-0.3-4.9-0.2-7.3-0.2c-1,0-2,0.1-2.9,0.1
	c-0.5-1.1-0.7-2-1.2-2.8c-4.1-7.3-9.7-13.3-16.5-18.1c-4.5-3.2-9.5-4.8-15.1-5.2c-7.8-0.6-15.1,1.5-22.1,4.5
	c-4.7,2-8.9,4.9-12.4,8.6c-4.9,5.2-9,10.8-12.5,17c-3.8,7-4.2,14-0.9,21.2c1,2.2,1.6,4.5,2.7,6.6c1.1,2.1,0.7,4.7,2.5,6.5
	c0.1,0.1,0,0.5,0,0.7c-0.4,3.3-0.5,6.7-1.2,9.9c-1.4,6.4-3.5,12.7-6,18.8c-1.3,3.2-2.5,6.5-3.5,9.8c-3.4,11.2-6.6,22.5-9.9,33.7
	c-0.5,1.7-1.2,3.2-2.7,4.3c-2,1.5-3.9,3.2-5.9,4.8c-2.7,2.1-4.3,4.9-5.3,8.2c-1.3,4.6-2.9,9.2-4.7,13.7c-1.2,3-2.8,5.9-4.3,8.7
	c-1.8,3.2-3.1,6.6-3.7,10.2c-1,6.4-1.9,12.8-2.9,19.3c-2.3,14.7-4.4,29.5-7,44.1c-3.1,17.1-7.3,33.9-12.1,50.6
	c-4,13.6-7.9,27.2-11.9,40.8c-1.2,4.2-2.7,8.3-3.9,12.5c-1,3.4-0.1,5,3.1,6.4c1,0.4,1.9,1.1,2.9,1.7c-0.4,0.9-0.7,1.7-1.1,2.3
	c-2.2,4.1-4.2,8.3-6.6,12.4c-1.3,2.3-1.9,4.7-1.7,7.3c0.1,1.6-0.2,2.9-0.8,4.4c-0.9,2.6-1.9,5.2-2.6,7.9c-0.9,3.5-0.3,4.8,2.6,6.9
	c0.7,0.5,1.3,1,2,1.5c-1.6,2.1-3,4-4.4,5.9c-3.1,4.5-6.2,9-9.3,13.5c-0.5,0.8-1,1.6-1.6,2.4c-1.4,2-1.2,4,0.2,6c1,1.3,1.9,2.5,3,3.7
	c1.9,2,3.3,1.6,4.3-1c0.1-0.4,0.2-0.8,0.4-1.1c1.4-3.7,2.8-7.4,4.3-11c1.1-2.6,2.2-5.3,3.3-7.9c0.9-2.2,1.8-4.4,2.8-6.6
	c0.2-0.5,0.5-0.8,0.8-1.3c0.2,0,0.3,0.1,0.5,0.1c0.1,1.1,0.2,2.1,0.2,3.2c-0.2,14.9,0.4,29.8,1.7,44.6c0.2,1.7,0.2,3.5,0.4,5.2
	c0.3,2.5,1.5,3.6,3.9,4.1c4,0.7,9.1-2.3,7.7-7.7c-1.1-4.1-1.8-8.4-2.6-12.6c-0.4-2.3-0.7-4.7-1-6.8c1.2,1,2.3,2.2,3.6,3
	c2.6,1.7,5.4,3.1,7.9,4.8c1.6,1.1,3,1.3,4.6,0.3c2.6-1.6,5.2-3.2,7.9-4.9c0.6-0.4,1.1-1.2,2.1-0.9c-0.1,1-0.2,2-0.3,2.9
	c-0.9,7.3-1.8,14.6-2.7,21.9c-0.9,7.2-1.8,14.3-4,21.2c-4,12.4-6.2,25.2-8.4,38c-0.5,2.7,0.3,4.8,2.3,6.6c1.2,1,2.5,1.9,3.9,3
	c-0.7,1.4-1.4,2.9-2,4.4c-1.9,4.6-3.8,9.2-5.6,13.8c-1.1,2.9-1,5.9-0.2,8.9c0.6,2,1.8,3.3,3.9,3.7c1.5,0.3,3,0.5,4.5,0.6
	c13.2,0.5,26.1,2.7,39,5.7c1.4,0.3,2.2,0.9,2.6,2.3c0.8,2.6,1.8,5.1,2.8,7.6c2.1,5.7,3.9,11.4,4.8,17.4c1.2,8.2,3.2,16.1,5.5,24.1
	c1.3,4.6,2.4,9.4,3.3,14.1c0.7,3.8,0.8,7.7,1.4,11.5c0.4,2.5,0.2,4.6-1.3,6.9c-4.8,7.6-8.3,15.8-11.3,24.3c-0.8,2.2-1.8,4.4-3.1,6.3
	c-4.7,6.6-10.9,11.1-18.8,13.4c-4.3,1.3-6.2,3.6-6.3,7.8c-0.1,3.6-0.7,7.1-1.1,10.6c-0.2,2.4-0.5,4.7-0.8,7.1
	c-0.2,1.8,0.7,3.1,2.2,3.8c1.9,1,3.8,2,5.8,2.8c6.3,2.5,12.9,3.5,19.5,1.5c8.9-2.6,17-6.9,24.5-12.4
	C273,771.3,274.3,769.6,275.7,768.1z"/>
<path d="M275.7,768.1c-1.5,1.5-2.7,3.2-4.3,4.4c-7.5,5.5-15.6,9.8-24.5,12.4c-6.7,2-13.2,1-19.5-1.5c-2-0.8-3.9-1.8-5.8-2.8
	c-1.5-0.8-2.4-2-2.2-3.8c0.2-2.4,0.5-4.7,0.8-7.1c0.4-3.5,0.9-7.1,1.1-10.6c0.1-4.2,1.9-6.5,6.3-7.8c7.8-2.3,14.1-6.7,18.8-13.4
	c1.3-1.9,2.4-4.1,3.1-6.3c3-8.5,6.5-16.7,11.3-24.3c1.4-2.3,1.7-4.4,1.3-6.9c-0.6-3.8-0.7-7.7-1.4-11.5c-0.9-4.7-2-9.5-3.3-14.1
	c-2.3-7.9-4.2-15.9-5.5-24.1c-0.9-6-2.7-11.7-4.8-17.4c-0.9-2.5-2-5-2.8-7.6c-0.4-1.4-1.2-2-2.6-2.3c-12.8-3-25.8-5.1-39-5.7
	c-1.5-0.1-3-0.3-4.5-0.6c-2.1-0.4-3.3-1.7-3.9-3.7c-0.8-3-0.9-6,0.2-8.9c1.8-4.6,3.7-9.2,5.6-13.8c0.6-1.5,1.4-3,2-4.4
	c-1.4-1.1-2.7-2-3.9-3c-2-1.7-2.8-3.8-2.3-6.6c2.2-12.8,4.4-25.6,8.4-38c2.2-6.9,3.2-14,4-21.2c0.9-7.3,1.8-14.6,2.7-21.9
	c0.1-0.9,0.2-1.9,0.3-2.9c-1.1-0.2-1.5,0.6-2.1,0.9c-2.6,1.6-5.2,3.3-7.9,4.9c-1.6,1-3,0.7-4.6-0.3c-2.6-1.7-5.3-3.1-7.9-4.8
	c-1.3-0.8-2.4-2-3.6-3c0.3,2.1,0.6,4.5,1,6.8c0.8,4.2,1.4,8.4,2.6,12.6c1.4,5.3-3.7,8.4-7.7,7.7c-2.4-0.5-3.6-1.6-3.9-4.1
	c-0.2-1.7-0.3-3.5-0.4-5.2c-1.3-14.8-1.9-29.7-1.7-44.6c0-1.1-0.1-2.1-0.2-3.2c-0.2,0-0.3-0.1-0.5-0.1c-0.3,0.4-0.6,0.8-0.8,1.3
	c-0.9,2.2-1.8,4.4-2.8,6.6c-1.1,2.6-2.3,5.2-3.3,7.9c-1.5,3.7-2.9,7.4-4.3,11c-0.1,0.4-0.2,0.8-0.4,1.1c-1,2.7-2.4,3-4.3,1
	c-1.1-1.1-2.1-2.4-3-3.7c-1.4-1.9-1.6-3.9-0.2-6c0.5-0.8,1-1.6,1.6-2.4c3.1-4.5,6.2-9,9.3-13.5c1.4-1.9,2.8-3.8,4.4-5.9
	c-0.7-0.5-1.3-1.1-2-1.5c-2.9-2-3.5-3.4-2.6-6.9c0.7-2.7,1.7-5.3,2.6-7.9c0.5-1.4,0.9-2.8,0.8-4.4c-0.2-2.6,0.4-4.9,1.7-7.3
	c2.3-4,4.4-8.2,6.6-12.4c0.4-0.7,0.6-1.4,1.1-2.3c-1-0.6-1.9-1.2-2.9-1.7c-3.2-1.4-4-3.1-3.1-6.4c1.2-4.2,2.6-8.3,3.9-12.5
	c4-13.6,7.9-27.2,11.9-40.8c4.8-16.7,9.1-33.5,12.1-50.6c2.6-14.7,4.7-29.4,7-44.1c1-6.4,1.9-12.8,2.9-19.3c0.6-3.6,1.9-7,3.7-10.2
	c1.5-2.9,3.2-5.7,4.3-8.7c1.8-4.5,3.4-9,4.7-13.7c1-3.4,2.6-6.1,5.3-8.2c2-1.6,3.9-3.3,5.9-4.8c1.5-1.1,2.2-2.5,2.7-4.3
	c3.2-11.3,6.5-22.5,9.9-33.7c1-3.3,2.2-6.6,3.5-9.8c2.5-6.1,4.6-12.3,6-18.8c0.7-3.2,0.8-6.6,1.2-9.9c0-0.2,0.1-0.6,0-0.7
	c-1.8-1.8-1.4-4.4-2.5-6.5c-1.1-2.1-1.7-4.4-2.7-6.6c-3.3-7.2-3-14.2,0.9-21.2c3.4-6.2,7.6-11.9,12.5-17c3.5-3.7,7.6-6.7,12.4-8.6
	c7.1-2.9,14.3-5,22.1-4.5c5.5,0.4,10.5,2,15.1,5.2c6.8,4.8,12.4,10.8,16.5,18.1c0.5,0.8,0.7,1.7,1.2,2.8c0.9,0,1.9-0.1,2.9-0.1
	c2.4,0,4.9,0,7.3,0.2c2.7,0.3,4.9,1.8,6.3,4.2c1.4,2.4,1.1,4.4-1.2,6c-1.9,1.4-4.1,2.5-6.1,3.7c-1.2,0.7-2.6,1.3-3.7,2.1
	c-2.7,2-4.3,4.6-4.8,8.1c-0.5,3.9-0.3,7.5,1.2,11.2c0.4,1,0.6,1.8,2,2c1.1,0.1,1.9,1.2,1.6,2.3c-0.8,2.6,0.2,4.8,1,7.1
	c1,3.2,2.2,6.4,2.6,9.8c0.4,4.2,0.1,8.2-0.9,12.3c-1.7,7-4.3,13.6-8.6,19.4c-0.6,0.9-1.2,1.9-1.9,3c1.8,1.3,3.5,2.5,5.2,3.8
	c5.5,4.2,11.7,6.9,18.1,9.3c2.7,1,5.4,2.2,8.1,3.4c4.1,1.9,6.9,5.1,8.2,9.3c0.8,2.5,1.5,5,2,7.6c0.9,4.8,2.3,9.5,3.9,14.2
	c0.5,1.5,0.8,3.2,1,4.9c0.8,8.7,0.1,17.4-0.1,26.1c-0.3,13.5-1.4,26.9-2.6,40.3c-0.7,7.1-0.7,14.2-1,21.4
	c-0.3,10.3-0.2,20.6,0.5,30.9c0.4,5.4-0.2,10.6-1.8,15.7c-2.6,8.6-5.3,17.1-7.9,25.6c-0.5,1.7-1.4,3.4-2,5.1c-1.1,2.8-2,5.6-3.1,8.5
	c-0.5,1.2-0.2,2.3,0.5,3.3c1.7,2.6,3.3,5.2,4.9,7.8c0.3,0.5,0.5,1,0.8,1.5c1.4,3.1,1.2,4.1-1.7,5.9c-1.1,0.7-1.9,1.4-2.2,2.7
	c-0.7,2.7-1.4,5.4-1.9,8.1c-0.4,1.8,0,3.8-1.3,5.5c-0.2,0.3-0.1,0.9-0.1,1.4c-0.1,5.5-0.3,11.1-0.3,16.6c0,7.1-3.2,12.7-8.3,17.2
	c-3.4,3-7.5,4.5-12.2,4.4c-0.4,0-0.9-0.1-1.1-0.3c-1-1.1-2.2-0.6-3.3-0.6c-1,0-1.7,0.4-2.4,1.2c-1.1,1.2-2.4,2.3-3.6,3.4
	c-0.4,0.4-0.9,0.7-1.4,0.9c-1,0.5-2,1.1-3.1,0.3c-1.1-0.8-0.9-2-0.6-3c0.4-1.6,1-3.2,1.8-4.6c1.7-3.2,2-6.8,2.9-10.3
	c-2.2,0.6-4.2,1.2-6.5,1.8c0,0.3,0,1-0.1,1.7c-0.9,11.7-1.9,23.4-5.4,34.7c-3.3,10.6-7.1,21-10.4,31.6c-2.4,7.7-4.6,15.5-6.7,23.3
	c-0.3,1-0.1,2.2,0.2,3.3c1.8,6.6,3.6,13.3,5.7,19.8c2.7,8.6,4.4,17.5,5.8,26.4c0.4,2.3,0.6,4.5,1.1,6.8c0.8,4.2,0.2,8.4-0.4,12.5
	c-0.2,1.3,0,2.3,0.5,3.4c3.6,7.7,7,15.4,10.8,23c5.1,10.4,8.3,21.4,11.9,32.3c1,3.1,2.1,6.1,3.2,9.2c1-0.2,1.7-0.4,2.5-0.6
	c1.8-0.5,3.3,0,4.5,1.3c1.2,1.4,2.3,2.8,3.4,4.3c4.1,5.6,8.3,11.2,12.4,16.8c0.2,0.3,0.5,0.6,0.7,1c2.3,4.9,5.4,9.2,8.7,13.5
	c1.2,1.5,1.1,3.2,0.2,4.7c-1.4,2.4-2.8,4.8-4.4,7c-2.6,3.5-5.4,6.8-8.2,10.1c-1.6,2-3.7,3.4-6,4.5c-4.2,1.9-8.3,3.8-12.5,5.8
	c-0.9,0.4-1.8,0.9-2.7,1.5c-1.1,0.8-2.3,1.1-3.6,0.2c-2.3,3.8-4.5,7.5-6.8,11.2c-1.4,2.2-2.9,4.4-4.5,6.4c-3.3,4-7.5,6.3-12.7,6.7
	c-7.6,0.6-15.2,1.1-22.8,1.6c-4.7,0.3-5.8-0.7-6.1-5.4c-0.1-0.7,0-1.4,0-2.1c-0.1-1.4-0.3-2.8-1.1-4.1
	C276.5,770.3,276.2,769.2,275.7,768.1z M287,516.6c0.2,0,0.4,0,0.6,0.1c0.4-1.1,0.8-2.2,1.1-3.3c1.9-6.8,5-13.1,8-19.6
	c2-4.5,4.2-8.9,6-13.4c6.2-15.3,9.4-31.4,11.4-47.7c1.7-13.5,1.9-27,2.8-40.5c0.7-10.8,0.2-21.7,0-32.5c-0.1-3.2-0.2-6.5-0.3-9.7
	c0-1.1-0.5-1.8-1.5-2.1c-1.9-0.5-3.8-1.3-5.7-1.6c-5.6-0.7-11.2-1.2-16.8-1.9c-3.1-0.4-6.1-0.8-9.1-1.6c-1.7-0.5-3.3-0.7-5.1-0.6
	c-6.1,0.3-12.2,0.7-18.3,0.6c-5-0.1-10,0-14.9,0.6c-7.2,0.9-13.6,3.4-19.3,7.9c-3.5,2.8-6.7,5.8-9.5,9.3c-0.9,1.2-1.6,2.3-1.9,3.7
	c-0.9,5.4-2.2,10.7-2.7,16.1c-1.3,15.4-2,30.8-0.8,46.3c0.3,4,0.5,8.1,1,12.1c0.8,7.7,1.9,15.4,2.4,23.1c0.6,10.1-0.2,20.3-1.1,30.4
	c-0.7,7.7-1.8,15.4-2.6,23.1c-1.1,9.9-2.9,19.7-6,29.3c-3.4,10.7-5.1,21.7-7,32.7c-0.1,0.9-0.1,2,0.3,2.7c1.2,1.7,2.6,3.3,4.6,4.4
	c0.2-0.4,0.4-0.6,0.5-0.9c3.3-7.4,6.2-14.9,8.1-22.8c2.1-8.6,3.8-17.3,5.7-26c0.8-3.9,1.3-7.8,2-11.7c0.2,1.2,0.3,2.3,0.1,3.5
	c-1.2,10.1-2.7,20.1-4.8,30c-2.5,12.2-7.1,23.6-12.3,34.8c-2,4.4-3.8,8.9-5.5,13.4c-0.8,2.1-1,4.3-0.6,6.5c0.6,2.9,1.1,3.5,4,3.9
	c2.1,0.3,4.3,0.4,6.4,0.5c6.2,0.6,12.5,0.7,18.7,1.8c9.6,1.7,19.1,4,28.6,6c4.2,0.9,8.3,1.7,12.6,2.6c3.3-5.6,6.5-11,8.9-16.8
	c3.4-8,6.1-16.3,7.9-24.9c2.2-10.4,4.5-20.8,5-31.4c0.4-7.4,0.5-14.7,0.7-22.1c0-1.2-0.2-2.4-0.4-3.5c-1.5-7.3-3.1-14.6-4.6-21.8
	c-0.2-0.9-0.2-1.8-0.4-2.6c0.1,0,0.3-0.1,0.4-0.1C284.7,507.6,285.9,512.1,287,516.6z M256.6,268.7c0.1-0.8,0.2-1.2,0.3-1.7
	c0.8-5.6,1.4-11.2,2.5-16.7c1.8-8.9,4.4-17.7,8-26.1c0.8-1.7,0.8-3.2,0.2-4.9c-3.3-10-6.1-20.2-7.5-30.6c-0.2-1.3-0.2-2.7-0.3-4
	c0.9,2.8,1.3,5.8,2,8.6c2.4,9.2,4.5,18.5,8.3,27.2c1.4,3.3,2.6,6.6,4.2,9.8c4,7.6,8.2,15.2,12.3,22.8c4.1,7.4,6.2,15.2,5.9,23.7
	c-0.1,1.3,0,2.6,0,3.9c0.2,0.1,0.3,0.1,0.5,0.2c1.9-1.9,4.3-3.3,5.8-5.7c5-7.9,9.6-16,13.3-24.6c2.3-5.2,3.6-10.6,4.2-16.3
	c1-9.4-0.8-18.3-4.4-26.9c-4.5-10.5-9.3-20.8-14.7-30.9c-3.9-7.1-5.8-14.7-6.1-22.7c-0.2-5.2-0.7-10.4-1.2-15.6
	c-0.5-4.8-0.7-9.6,0-14.5c0.5-3.2,0.8-6.5,1.8-9.5c0.9-3,2.6-5.8,3.9-8.6c0.4-0.7,0.9-1.4,1.3-2.1c0.1,0.1,0.3,0.1,0.4,0.2
	c-0.3,1-0.6,2-0.8,3.1c0.1,0.1,0.2,0.2,0.4,0.2c5-4.5,10-9,15.3-13.9c-0.9,0-1.4,0-1.8,0c-9.5,1.2-18.8,3.6-27.8,6.9
	c-4.9,1.8-9.8,3.5-14.7,5.2c-0.5,0.2-0.9,0.6-1.4,0.9c-1,0.8-2,1.5-2.9,2.4c-1.3,1.2-2.5,2.4-3.7,3.7c-0.7,0.7-0.7,1.5-0.5,2.6
	c0.6,2.9,1.3,5.8,1.4,8.7c0.3,6.2,0.3,12.5,0.4,18.8c0,0.4-0.1,0.8-0.2,1.2c-0.1,0-0.3,0-0.4,0c-0.3-5.2-0.7-10.5-1-15.7
	c-0.5,0.5-0.6,1-0.8,1.5c-1.6,5-3.1,10-4.8,14.9c-1.5,4.3-3.4,8.4-4.6,12.7c-4.6,15.7-9.1,31.3-13.3,47.1
	c-3.7,13.5-4.6,27.3-3.1,41.2c0.6,5.6,1.8,11.1,4.2,16.3c2.5,5.5,6,10.4,9.4,15.4c0.1,0.1,0.3,0.2,0.8,0.4c-0.4-0.9-0.6-1.6-0.9-2.2
	c-2.6-6.2-4.1-12.7-4.3-19.4c-0.3-10.1,0.8-20.1,3.4-29.9c1.9-7.4,4.5-14.7,6.8-22c0.2-0.5,0.5-1,0.7-1.5c0.1,0.9-0.1,1.8-0.3,2.6
	c-1.2,4.1-2.4,8.2-3.5,12.3c-2.6,9.3-4.9,18.7-3.5,28.5c0.9,6.9,2.9,13.3,7,19C253.5,266.1,254.6,267.6,256.6,268.7z M336.9,348.7
	c0-1.4,0-2.3,0-3.1c-0.2-7.8-0.5-15.7-0.5-23.5c0-11.6,0.2-23.1,0.6-34.7c0.3-8.2,1.1-16.4,1.4-24.7c0.4-12,1.2-23.9,4-35.6
	c1.1-4.6,1.4-9.2,0.6-13.9c-0.3-2-0.6-3.9-1-5.9c-1.5-6.7-3.8-13.1-8.6-18.2c-2.3-2.5-5.1-4.6-6.1-8c-7,3-13.9,5.6-21.1,7.1
	c0.1,0.5,0.1,0.7,0.2,0.9c2.5,5.4,4.9,10.8,7.4,16.2c0.2,0.4,0.5,0.8,0.8,1.1c0.8,1,1.8,2,2.5,3.1c1.5,2.4,2.8,4.8,4.2,7.2
	c6.2,10.8,9.5,22.4,10.4,34.7c0.6,8-0.3,15.8-1.9,23.6c-2.5,11.7-5.6,23.2-11.2,33.9c-3,5.7-6.8,10.9-11.3,15.5
	c-6,6.1-13,10.5-21,13.5c-0.7,0.3-1.3,0.5-1.9,0.8c0.7,0.4,1.3,0.3,1.8,0.3c5,0.1,10-0.2,14.9,0.3c7.1,0.8,14.1,2,21.1,3.3
	C327.2,343.7,332.3,344.9,336.9,348.7z M272.6,331.6c0-1.6,0-2.9,0-4.2c0-11.6-1.6-22.9-4.7-34c-1.9-6.7-5-12.8-9.5-18.1
	c-2.7-3.2-4.8-6.9-7.5-10.1c-3.5-4.1-5.2-8.8-6.2-13.9c-0.1-0.4-0.2-0.7-0.3-1.1c-0.3,0.5-0.4,1-0.4,1.4c-0.1,8.4,1.4,16.5,5,24.2
	c1,2.2,2,4.5,2.3,7c-3.1-3-6.1-6-8.8-9.3c-1.8-2.2-3.2-4.7-5-6.9c-2.4-2.9-4.1-6-4.6-9.7c-0.9-6.8-1.7-13.7-2.4-20.5
	c-0.6-5.6-0.3-11.2,0.3-16.8c0.8-7.4,2.5-14.7,4.3-21.9c0.2-0.9,0.4-1.8,0.6-2.6c-2.4,1.8-4.4,3.8-6.5,5.7c-2.8,2.5-3.9,5.6-3.7,9.3
	c0.3,4,0.5,7.9,0.6,11.9c0.1,4,0.1,8.1-0.1,12.1c-0.2,3.6-0.7,7.1-1,10.6c-0.1,1,0,2.1,0.4,3c3.2,9.3,7.7,18,13.8,25.9
	c4.1,5.3,8.2,10.7,12.1,16.2c8.3,11.8,12.5,25.1,13.9,39.4c0.1,0.9,0.2,1.8-0.9,2.2c-1.1-1-1.1-1-1.3-2.1c-0.2-1.6-0.4-3.3-0.6-5
	c-1.6-11.5-5.4-22.1-11.8-31.8c-3.3-5-6.9-9.9-10.7-14.6c-6-7.4-10.8-15.4-14-24.4c-0.2-0.6-0.5-1.2-0.9-1.9
	c-0.3,0.3-0.4,0.4-0.5,0.5c-0.1,0.6-0.2,1.3-0.2,1.9c-0.3,10.7-0.8,21.4-0.1,32.1c0.4,5.2,0.5,10.4,0.4,15.7c-0.1,3,0.5,5.8,1.9,8.4
	c5.4,10.1,14,16.4,24.8,19.6c6.2,1.8,12.6,2.3,19.1,2C271,331.8,271.8,331.7,272.6,331.6z M278.1,718.3c3.7-0.7,4.4-0.5,7.4,1.9
	c1,0.8,2,1.6,3,2.3c1.4,1,5,0.9,6.3-0.1c0.2-0.2,0.5-0.5,0.5-0.8c0.2-1.3,0.5-2.7,0.3-4c-0.4-3.6-1.2-7.2-1.6-10.8
	c-0.7-5.7-1.2-11.3-1.9-17c-0.6-4.6-1.7-9.2-2.3-13.8c-0.8-6.8-1.5-13.5-2-20.3c-0.2-2.3-0.9-4.3-2.2-6.1
	c-4.3-6.3-8.5-12.6-12.8-18.9c-0.5-0.8-1.2-1.1-2.1-1.3c-7.6-1.5-15.2-3.1-22.8-4.6c-0.7-0.1-1.5-0.3-2.5-0.5c0.6,1.5,1,2.7,1.6,3.8
	c3.4,6.9,5.5,14.2,7,21.6c1.9,9.9,4.2,19.8,6.8,29.6c2,7.8,3.1,15.7,3.3,23.7c0,0.4,0.1,0.8,0.2,1.3c1.9-0.3,3.6-0.8,5.3-1
	c4.5-0.5,7.5,1.2,7.9,5.7C277.7,712.1,277.9,715.1,278.1,718.3z M307.5,694.3c1.6,0,3.2,0.1,4.7,0c4.6-0.2,8,2,10.6,5.6
	c0.3,0.5,0.6,1,1,1.3c0.5,0.4,1.1,0.9,1.7,1c2.6,0.4,5.2,0.2,7.8-0.6c4.2-1.4,6.4-5.9,4.9-9.9c-0.2-0.5-0.5-1.1-0.9-1.3
	c-2-1.2-3-3.3-3.8-5.3c-1.1-2.6-2-5.3-2.8-8.1c-3.3-10.2-6.5-20.3-11-30.1c-3.7-8-6.8-16.4-10.2-24.5c-0.2-0.5-0.5-0.9-0.7-1.5
	c-10.5,6.4-21.8,9.5-34.3,9.1c0.5,0.7,0.7,1.2,1,1.6c3.3,4.7,6.7,9.4,10,14.2c4.5,6.4,8.2,13.3,11.1,20.6
	C300.3,675.6,304.5,684.6,307.5,694.3z M270.6,64.2c-0.4,0.3-0.7,0.4-0.9,0.6c-6.6,6.2-11.9,13.4-15.6,21.6c-2.3,4.9-2.2,10-0.1,15
	c1.2,2.9,2.3,5.7,3.5,8.6c0.2,0.5,0.5,0.9,0.7,1.2c1.6-1.6,3-3.4,4.7-4.5c2.4-1.6,4.4-3.6,6.4-5.6c7.2-7,15.3-12.5,25.1-15.2
	c11.4-3.1,22.9-5.4,34.6-6.9c0.8-0.1,1.6-0.3,2.7-0.4c-0.5-1.1-0.8-1.9-1.3-2.6c-3.8-5.5-8.4-10.3-13.5-14.6
	c-6.4-5.4-13.9-7.2-22.1-6.6c-0.6,0-1.1,0.2-1.8,0.3c2,3.3,1.9,6.2-0.5,9.2c-3,3.8-6.9,6-11.8,6.2C275.3,70.5,272.6,68.8,270.6,64.2
	z M199.1,404.8c0-0.8,0-1.7,0-2.5c0.2-3.9,0.2-7.8,0.6-11.6c1-9.1,3.4-17.9,5.7-26.7c4.4-17.2,8.8-34.3,11.4-51.9
	c1.5-10.2,3.1-20.3,4.6-30.5c0.3-1.9,0.7-3.8,0.7-5.6c0.1-12.2,0.4-24.4,1.5-36.5c0.1-1.1,0.2-2.2,0.2-3.2c-1.9-1-3.6-1.7-5.7-1.3
	c-0.1,0.4-0.2,0.8-0.2,1.2c0,3.3,0.2,6.7,0,10c-0.3,4.7-0.5,9.3-1.3,13.9c-1.7,9.9-3.9,19.7-5.6,29.6c-1.5,8.8-2.9,17.6-5,26.4
	c-3.1,12.9-6.5,25.8-10.9,38.4c-1.3,3.9-2.4,7.9-3.3,11.9c-2,8.3-3.9,16.6-5.8,25c-0.9,3.9-1.8,7.9-2.6,11.8c-0.2,1-0.1,2-0.2,2.8
	C188.6,405.4,193.7,405.1,199.1,404.8z M367.5,218.9c0,1.3,0,2.2,0,3.2c0.3,6.3,0.7,12.6,1.1,19c0.8,14.2,0.2,28.3-2.1,42.4
	c-1.4,8.5-2.6,17.1-3.8,25.6c-0.8,5.6-1.1,11.4-2.3,16.9c-2.9,14-6.1,28-9.3,41.9c-1.5,6.7-2.9,13.5-3.6,20.3c0,0.5,0.1,1,0.1,1.6
	c1-0.5,1.8-0.9,2.6-1.4c-4.5,4.9-7.4,10.2-6.2,17.3c5.1-0.3,9.3,1.7,13.3,4.7c1.9-3.2,2-6.3,1-9.4c-1-3.1-0.9-6,0.3-9
	c1.6-3.9,3.1-7.8,4.6-11.7c0.4-1.1,0.5-2.3,0.6-3.5c0.6-6.1-0.2-12.2-1-18.2c-0.9-6.1-0.3-12,2.3-17.6c1.6-3.6,3.1-7.3,4.6-10.9
	c0.5-1.3,1-2.7,1.4-4c0.3-1,0.7-2.1,0.7-3.1c0.1-5.2-0.1-10.5,0.1-15.7c0.3-7.7,0.8-15.3,1.3-23c0.5-7.3,1.2-14.5,1.6-21.8
	c0.4-7.5,0.6-15,0.7-22.6c0.1-5.7-0.2-11.4-0.4-17.1c0-1.3-0.4-2.6-0.7-4c-0.3-1.1-1-1.5-2.1-1.3
	C370.9,217.9,369.3,218.4,367.5,218.9z M323.2,261.7c-0.2-0.1-0.4-0.1-0.7-0.2c-1.4,1.6-2.7,3.3-4.2,4.8
	c-10.4,10.4-21.8,19.5-34.8,26.5c-2.2,1.2-4.5,2.4-6.7,3.7c-1.5,0.9-2.8,2-4.3,3c-0.8,0.6-1,1.3-0.8,2.3c1.9,9.3,2.9,18.8,2.7,28.3
	c0,0.4,0.1,0.9,0.2,1.4c7.5-0.8,14.4-3,20.2-7.8c15.4-12.8,24.8-29,27.5-48.9C323,270.4,323,266,323.2,261.7z M357.6,220.3
	c-0.4,3.5-0.8,7-1.1,10.4c-1.1,11.8-1.2,23.6,0,35.3c0.6,6.3,1.4,12.6,2,18.9c0.5,5.7-0.1,11.2-1.9,16.6c-2.2,6.9-4.5,13.8-6.5,20.9
	c-2.9,10.5-5,21.1-5.5,32c-0.2,3.6-0.5,7.3-1.2,10.8c-1.5,7.8-3,15.5-3.2,23.5c-0.1,2.1-0.3,4.2-0.5,6.9c1.8-1.3,3.2-2.2,4.5-3.1
	c1.1-0.7,1.6-1.7,1.8-3.1c0.8-5.5,1.4-11,2.6-16.4c2.7-12.6,5.6-25.2,8.4-37.8c1.3-6.1,2.5-12.2,3.1-18.5c0.9-8.6,1.7-17.2,3.2-25.7
	c2.6-15.2,4-30.4,3.6-45.9c-0.2-8.3-0.3-16.6-0.4-24.9c0-0.3-0.2-0.5-0.2-0.7C363.4,219.8,360.7,220,357.6,220.3z M338.6,451
	c-1.5,5.7-3.3,11.3-6,17.1c1.2-0.3,2.1-0.6,3-0.9c2.8-0.9,5.1-2.4,6.2-5.4c0.6-1.7,1.6-3.2,2.4-4.8c0.2,0.1,0.3,0.1,0.5,0.2
	c-0.8,2.2-1.7,4.5-2.5,6.7c-0.5,1.5-1.5,2.6-3,3.2c-0.4,0.2-0.7,0.6-1.4,1.2c4.4,0.1,7.5-0.8,9.4-4.6c1.1-2.1,2.4-4.2,3.6-6.2
	c-0.1,2.4-1.7,4.3-2,7.2c2.6-2.4,4.2-4.7,5.6-7.3c1.3-2.5,2-5.1,2-7.9c-0.1-3.9,0.1-7.8,0.2-11.6c0.1-2.2,0.2-4.4,0.3-6.6
	c0-0.6-0.1-1.3-0.5-1.7c-0.7-0.9-1.6-1.8-2.5-2.5c-5.8-4.2-12-7.3-19.1-8.5c-1-0.2-2.1-0.1-3.1,0c-1.3,0.1-2.1,0.8-2.5,2.2
	c-0.3,1.2-0.9,2.4-1.4,3.5c-1.8,4.4-4.1,8.6-4,13.5c0,0.2-0.1,0.5-0.1,0.7c-1.2,5.4-2.4,10.8-3.6,16.2c-0.1,0.6-0.1,1.6,0.1,1.7
	c0.6,0.3,1.5,0.4,2.2,0.2c1.2-0.4,2.3-1.1,3.4-1.6c1-0.5,1.4-1.2,1.5-2.2c0.3-3.3,0.7-6.6,1-9.9c0.2-1.6,0.4-3.2,0.5-4.8
	c0.5,0.3,0.7,0.7,0.7,1c0.1,2.1,0.2,4.3,0.1,6.4c-0.5,8.5-1.6,16.9-6,24.4c-0.7,1.2-1,2.6-0.4,4.3c0.9-0.5,1.7-0.7,2.3-1.2
	c2.6-1.8,5-4,6.4-6.9c1.5-3.1,2.7-6.4,4-9.6C336.7,454.5,337.1,452.5,338.6,451z M195.5,442.2c-2.5-0.6-4.9-0.7-7.3,0
	c-2.7,0.8-4.7,2.4-5.8,5.1c-2,4.6-2.6,9.4-2.6,14.4c0,0.8,0.6,1.8,0.4,2.5c-0.4,1.4,0.1,2.5,0.5,3.7c2.1,6.6,4.3,13.1,6.4,19.7
	c0.6,1.8,1.5,3.1,3.1,4c2.4,1.4,4.9,2.6,7.1,4.2c1.5,1.1,2.8,1.1,4.3,0.1c3.2-2.1,6.4-4.2,9.5-6.3c0.5-0.3,0.7-1.2,0.8-1.8
	c0.8-10,1.3-20.1,0.4-30.1c-0.5-5.8-1.4-11.6-2.1-17.4c-0.1-0.5-0.4-1-0.5-1.6c-0.2,0-0.3,0.1-0.5,0.1c0.1,0.7,0.3,1.3,0.4,2
	c0.9,4.2,0.7,8.5,0.2,12.8c-0.1,0.9,0,2.1-1.2,2.4c-1.2,0.3-1.8-0.7-2.5-1.5c-1.7-1.8-2.8-4-3.5-6.4c-0.4-1.3-0.8-2.6-1.3-3.8
	c-0.9-2.2-2.2-2.7-4.8-1.8c2.9,10.7,6.7,21.2,8.5,32.6C202.1,469.8,196.8,453.1,195.5,442.2z M336.9,397.1c1,0,1.4-0.7,1.5-1.8
	c0.1-1.7,0.3-3.5,0.4-5.2c0.6-6.6,1.3-13.2,2.7-19.7c0.9-4.1,1.7-8.3,1.9-12.4c0.7-13.3,2.7-26.3,6-39.1c1.7-6.3,3.7-12.6,5.6-18.9
	c1.3-4.4,2-8.8,1.6-13.4c-0.3-3.4-0.5-6.8-1-10.2c-2-13.9-2.6-27.9-1.1-41.9c0.5-4.6,1.4-9.2,2.1-13.8c0-0.2-0.1-0.4-0.2-0.8
	c-3.6-0.4-7.1,0.2-10.6,1.1c-0.4,0.1-1,0.6-1.1,1.1c-0.2,1.2-0.4,2.5-0.4,3.7c0,1.3,0.3,2.7,0.3,4c0,4.7,0,9.3,0,14
	c0,8.2-0.3,16.3,0.7,24.4c1.6,12.8,1.3,25.6,0.5,38.4c-0.2,4.2-0.8,8.3-1.2,12.5c-0.1,1.2,0,2.4,0.1,3.5c0.2,0,0.3,0,0.5,0
	c1.2-4.4,2.3-8.8,4.4-12.9c-0.3,2-0.8,3.9-1.3,5.8c-1.3,5.7-2.5,11.4-4,17.1c-1.9,7.4-4.2,14.8-6.1,22.2c-1.2,4.4-2.2,8.8-3,13.3
	c-1,5.3-0.5,10.7,0.1,16.1C336,388.6,336.4,392.8,336.9,397.1z M177.5,460.4c0.2-1.7,0.4-3.2,0.5-4.7c0.4-4.2,2-8,4.4-11.4
	c1.2-1.7,2.7-2.8,4.8-3.3c4-0.9,7.9-1.4,12-0.4c0-1.4-1.4-2.4-1-3.9c0.3,0.2,0.6,0.3,0.7,0.4c3,3.9,5,8.2,6.6,12.8
	c0.5,1.5,1.3,2.5,2.6,3.4c0.2-2.6,0.3-5.1,0.2-7.6c0-1.3-0.1-2.7-0.4-4c-1.9-7.3-4-14.6-6-22c-0.1-0.5-0.5-1-0.8-1.4
	c-1.9-2.4-4.1-4.4-6.9-5.7c-3.4-1.7-6.9-1.7-10.3-0.4c-1.9,0.7-3.8,1.8-4.4,3.7c-1.8,5.4-4.8,10.1-7.5,15.1
	c-0.7,1.3-1.1,2.7-1.6,3.7c0.5,0.7,0.9,1,0.9,1.4c0,0.5-0.2,1.1-0.3,1.6c-1.1,3.9-2.4,7.9-3.4,11.8c-0.8,3-0.1,3.9,2.8,4.9
	c-0.2-5.9,1.9-11.1,4.7-16.1c0.1,0.6-0.1,1.2-0.2,1.8c-0.9,3.6-1.7,7.2-2.6,10.8c-0.4,1.6,0.1,2.9,1.1,4.2
	C175,456.8,176.1,458.5,177.5,460.4z M260,273.8c2.4,3.9,5,7.5,6.9,11.5c1.9,3.9,3,8.2,4.5,12.2c6.3-3.6,12.5-7.3,18.6-10.8
	c1.9-15.1-0.9-28.9-10.1-41.1c-3.5,5.9-8.2,10.9-12.6,16.1C264.1,265.5,261.4,269.5,260,273.8z M294.6,549.8c-0.2,0-0.4,0-0.6,0
	c0,0.9,0,1.9,0,2.8c0.2,9.4,0.4,18.8-0.4,28.3c-1.2,14.3-5.5,27.7-12.2,40.4c-1,1.9-2.1,3.8-3.4,6.1c1,0,1.6,0,2.2,0
	c5.8-0.2,11.5-1.5,16.9-3.6c2.9-1.1,5.8-2.6,8.6-4c0.7-0.3,1.4-0.9,1.6-1.6c1-3,1.8-6.1,1.2-9.3c-0.5-2.6-0.8-5.2-1.2-7.7
	c-1.5-10.2-3.8-20.2-7.1-30c-1.3-3.8-2.3-7.7-3.3-11.6C296.1,556.2,295.3,553,294.6,549.8z M357.9,196.9
	c-4.4,3.5-12.9,18.7-12.3,22.3c0.1,0,0.3,0.1,0.4,0.1c0.3-0.1,0.6-0.1,0.9-0.2c2.9-1.2,6-1.5,9.1-1.2c6,0.5,11.5-1.4,16.9-3
	c-1.1-4.6-2.1-9.1-3.2-13.6c-0.4-1.5-0.7-3.1-1.2-4.6c-1.4-4.3-4.1-7.2-8.3-8.9c-3.4-1.4-6.9-2.8-10.3-4.2c-4.7-2-9.5-3.9-13.4-7.5
	c-0.2-0.1-0.4-0.1-0.6-0.2c-2.3,1.6-4.6,3.1-6.9,4.6c1,2.3,2.5,3.9,4.1,5.5c3.4,3.3,6.2,7,7.8,11.5c1.4,4,2.3,8.1,3.4,12.1
	c0.3,1.3,0.5,2.6,0.7,3.8c0.8-1,1.3-2.1,1.7-3.1c1.7-4.2,4-8.1,6.7-11.7c1-1.4,2.4-2.6,3.7-3.7c0.4-0.4,1.4-0.4,1.9-0.2
	c0.3,0.1,0.5,1.1,0.5,1.6c-0.2,2.2-1,4.2-2.4,6.1C357.4,200.7,357.6,199,357.9,196.9z M224.6,310.2c-0.1,0-0.3,0-0.4,0
	c-0.1,1-0.1,2.1-0.3,3.1c-0.6,3.1,0.3,5.8,2,8.3c2.3,3.5,5.3,6.4,8.9,8.4c3.9,2.3,7.9,4.3,12,6.2c7,3.2,14.4,4.1,22,3.8
	c2.7-0.1,5.5-0.7,8.2-1.3c12.6-3,23.3-9.1,31.8-19.1c5.3-6.2,9-13.2,12-20.6c3.7-9.1,5.7-18.6,7.6-28.2c2-10.1,1.7-20.1-0.3-30.2
	c-1.8-9.1-5.5-17.3-9.8-25.4c-0.3-0.5-0.6-1-1-1.5c0.6,4.2,1.3,8.2,1.8,12.3c0.2,1.4,0.2,2.7,1.7,3.7c0.7,0.5,1.2,1.5,1.5,2.4
	c0.7,2.2,1.5,4.4,1.8,6.6c0.5,5.6,0.9,11.2,1,16.8c0.2,7.7,0.3,15.4-1.2,23c-3.7,18.6-12.5,34.2-27.2,46.3c-4,3.3-8.4,5.6-13.4,6.9
	c-11.5,3.1-23.1,2.9-34.5-0.6c-9.9-3.1-17.6-9.2-22.7-18.3C225.4,312,225,311.1,224.6,310.2z M292.9,145.2c-0.1,0.3-0.2,0.4-0.2,0.5
	c0.5,5.1,0.9,10.2,1.4,15.3c0.3,2.9,2.5,4.8,4.8,6.1c2.5,1.3,5.3,2.1,8,2.9c2.3,0.7,4.7,0.8,7,0.1c1.1-0.3,2.3-0.8,3.1-1.6
	c2.1-2,4-4.3,5.1-7.1c0.9-2.2,2-4.3,3-6.5c1.3-3.1,2.6-6.3,3.7-9.5c0.6-1.7,1.1-3.6,0.8-5.5c-1.7,0.1-3.3,0.4-4.8,0.4
	c-6.3,0.2-8.5-1.4-10.6-7.3c-0.3-0.7-0.4-1.5-0.7-2.3c-0.2-0.7-0.5-1.5-0.7-2.2c-1.3-0.2-2,0-2.3,1.4c-0.7,3.1-1.6,6.1-2.4,9.2
	c-0.7,2.6-2.4,4.2-5,4.9c-3.1,0.8-6.1,1.8-9.3,1C293.5,145.1,293.2,145.2,292.9,145.2z M337.7,746.2c0-1.3-0.4-2.2-1.5-2.9
	c-2.5-1.4-3.8-3.8-5.3-6c-0.9-1.4-0.9-2.9-0.1-4.3c1-1.6,2-3.3,3.1-4.7c2.3-2.9,5.5-3.5,8.6-1.4c1.6,1.1,3.3,2.2,5.1,3.3
	c2-3.2,4-6.3,6-9.4c-1.4-1-2.8-2-4.1-3.1c-3.6-2.9-7.7-5-12.1-6.3c-4.6-1.4-9.2-1-13.8-0.1c-1.2,0.2-1.9,0.9-2.3,2.1
	c-1.8,5.2-4.5,9.9-7.3,14.6c-0.8,1.4-1.7,2.7-2.4,4.1c-0.7,1.4-0.4,2.3,0.9,3c6,3.3,10.9,7.8,14.7,13.5c1,1.5,2.1,3,3.1,4.4
	C333.9,751.8,335.2,748.4,337.7,746.2z M317.5,349.1c0,0.6,0,1.1,0,1.5c0.4,5.7,0.9,11.4,1.1,17.1c0.5,11.5,0,23-0.7,34.4
	c-0.8,13.4-1.7,26.7-3.9,39.9c-2.8,17-7.4,33.3-14.7,49c-4.2,9.1-8.7,18.1-10.7,28.1c-0.3,1.3-0.4,2.4,0,3.7
	c1.3,4.2,2.6,8.5,3.9,12.7c0.1,0.4,0.3,0.7,0.5,1.1c0.4-0.9,0.4-1.8,0.5-2.6c0.4-5,0.6-10,1.4-14.9c1.7-10.2,4.4-20.1,7.6-29.9
	c5.5-17,11.2-34,17-50.9c2.9-8.6,4.2-17.4,4.6-26.3c0.3-6.6,0-13.1,0.1-19.7c0-12-0.4-24.1,0.8-36.1c0.1-0.7,0-1.7-0.5-2.2
	C322.7,351.8,320.4,350.2,317.5,349.1z M263,746.6c-1.4,1.2-2.4,2.2-3.5,3.1c-3.6,3.1-7.3,6.1-11.7,8.1c-3.2,1.5-6,1.3-8.7-1.3
	c-1.6-1.6-3.6-2.9-5.5-4.1c-0.6-0.4-1.5-0.5-2.2-0.3c-1.5,0.3-2.9,0.8-4.3,1.4c-2.2,0.8-3.8,2.2-3.9,4.8c-0.2,3.1-0.4,6.2-0.8,9.2
	c-0.2,1.4,0.4,2.2,1.6,2.8c3.6,2.2,7.6,3.4,11.7,4.6c1.9,0.5,3.9,0.7,5.9,0.6c7.7-0.4,14.7-3.2,21.1-7.3c1.8-1.1,3.1-3.1,4.5-4.8
	c0.3-0.4,0.3-1.2,0.3-1.7c0-3.6-1.5-6.8-2.5-10.1C264.5,750.1,263.8,748.6,263,746.6z M286,755.8c-1.6,1.4-3.2,3-4.9,4.5
	c-2.9,2.7-4.4,6.6-1.6,10.9c1.3,1.9,2.7,3.1,5.2,3c4.7-0.3,9.3-0.2,14-0.6c5.5-0.5,10.7-2.2,15.2-5.5c2.4-1.8,4.9-3.5,7.3-5.3
	c2.8-2.1,5.2-4.6,7.5-7.4c-3.3-4.4-5.7-9.3-10-12.9c-3.3,3.4-6.3,6.7-9.6,9.9c-2.3,2.3-4.8,4.4-7.2,6.5c-0.9,0.8-2,1.2-3.3,0.6
	c-3-1.4-6.2-2-9.4-2.4C288.1,756.8,287.1,756.2,286,755.8z M216.9,235.1c-3.1-0.3-3.1-0.2-3.9,2.5c-0.1,0.4-0.2,0.8-0.3,1.2
	c-1,5.9-1.9,11.7-2.8,17.6c-2.3,14.9-4.4,29.9-7,44.8c-3.2,18-7.6,35.8-12.7,53.4c-3.2,11-6.2,21.9-9.4,32.9c-1.9,6.4-4,12.7-6,19
	c-0.3,0.9-0.4,1.9-0.5,2.8c2.5-1.1,4.7-2,7.1-3.1c0.1-0.7,0.3-1.5,0.5-2.3c0.9-4.3,1.8-8.5,2.7-12.8c1.3-5.6,2.7-11.2,3.9-16.9
	c1.6-7.3,3.3-14.7,5.7-21.8c5.2-14.9,8.9-30.2,11.9-45.7c2.2-11.6,4.1-23.2,6.1-34.9c1.2-6.9,2.6-13.7,3.5-20.6
	C216.5,245.9,216.5,240.6,216.9,235.1z M322,436.7c-0.1,0-0.3-0.1-0.4-0.1c-0.3,0.9-0.7,1.7-1,2.6c-3.3,10.1-6.5,20.4-10.1,30.4
	c-4,11.1-7.6,22.3-10.6,33.7c-2.2,8.3-4.3,16.7-4.7,25.4c-0.2,3.8,0.2,7.6-0.4,11.4c-0.5,3.2,1.1,5.7,1.9,8.6
	c0.4-0.8,0.6-1.6,0.7-2.5c0.6-5.7,1.8-11.3,3.6-16.7c2.7-7.9,5.4-15.7,8.1-23.6c5.1-14.5,8-29.5,9.3-44.7c0.2-2.2,0-4.4,0.4-6.6
	c0.6-4.1,1.5-8.1,2.3-12.1C321.4,440.6,321.7,438.6,322,436.7z M304.9,120.6c1.4,0.8,3,1.3,4.1,2.3c1.4,1.4,2.7,1,4.1,0.3
	c0.7-0.4,1.3-0.9,1.9-1.4c3.2-2.8,6.9-4.4,11-5.3c1.8-0.4,3.6-0.7,5.4-1.1c0.2-3.7,0.5-7.4,0.7-10.6c-3.1-2.2-6-3.9-8.5-6
	c-1.8-1.5-3.4-3.3-4.7-5.2c-0.8-1.2-1.6-1.5-2.9-1.3c-1,0.2-1.8,0.4-2.4,1.3c-0.8,1-1.8,2-2.7,3c-5,4.8-10.1,9.6-15.1,14.5
	c-0.8,0.7-1.4,1.7-1.7,2.7c-0.6,1.7-0.9,3.5-1.3,5.3c-0.1,0.5,0,1,0,1.6c5.9-2.1,10.3-2.4,12.9-1
	C305.4,120.1,305.1,120.3,304.9,120.6z M336.3,118.1c-0.4-0.2-0.6-0.3-0.7-0.3c-0.4-0.1-0.8-0.1-1.2-0.1c-6.6-0.1-12.7,1.2-17.9,5.7
	c-0.4,0.3-0.7,0.6-1.1,0.9c-2.3,1.7-5,1.6-7.4,0.1c-2-1.2-4.2-2.2-6.4-3c-2.6-0.9-5.3-0.7-7.9,0.2c-1,0.3-1.6,0.9-1.7,2
	c-0.1,2.8-0.5,5.7-0.4,8.5c0.1,3.8,0.6,7.5,1,11.2c2.7,0.8,5.1,0.3,7.5-0.1c4.4-0.7,6.5-3.3,7.5-7.4c0.7-2.8,1.8-5.6,2.7-8.2
	c3.4-0.6,3.8-0.4,4.9,2.4c0.7,1.9,1.5,3.8,2.3,5.7c0.6,1.4,1.7,2.3,3.2,2.5c1.6,0.2,3.3,0.4,4.9,0.4c4.8-0.1,7.3-1.9,8.7-6.5
	c0.4-1.3,0.5-2.6,0.6-4c0.1-1.7,0-3.3,0-5C334.7,121.2,334.9,119.5,336.3,118.1z M300.9,738c0.6,0,1.1-0.1,1.7-0.1
	c4.2-0.6,4.2-0.7,6.7-4.2c1.8-2.5,3.5-5.1,4.6-8c2.6-7,5.4-13.9,8.1-20.8c0.2-0.4,0.3-1,0.1-1.3c-1.6-2.8-3.2-5.7-6.5-6.5
	c-5.7-1.4-11.4-1.3-16.8,1.6c-0.1,1-0.3,2-0.3,2.9c0.1,2.7,0.2,5.4,0.4,8.1c0.7,9.3,2.2,18.6,1.8,27.9
	C300.7,737.6,300.8,737.7,300.9,738z M209,435.8c0.2-0.1,0.3-0.2,0.5-0.2c-0.1-1.7-0.2-3.3-0.3-5c-0.4-8.5-1.1-17.1-1.1-25.6
	c0-7.8,0.8-15.7,1.4-23.5c0.6-7,1.6-14,4.6-20.5c0.2-0.4,0.3-0.9,0.3-1.4c-0.3-4,0.8-7.7,1.8-11.4c5.2-19,7.2-38.4,6.5-58.1
	c0-0.8-0.1-1.6-0.2-2.5c-0.8,3.5-1.4,7-1.8,10.5c-1.9,15.7-4.5,31.3-8.4,46.7c-3.2,12.8-6.3,25.7-9.4,38.5
	c-1.6,6.8-2.2,13.8-1.8,20.8c0,0.9,0,1.7,0.9,2.3c3.6,2.5,5,6.1,5.6,10.3c0.2,1.1-0.2,1.7-1,2.1c-0.9,0.4-1.9,0.8-3,1.3
	c1.5,4.8,3,9.5,4.5,14.2C208.2,435,208.7,435.4,209,435.8z M247.8,739.8c1.5,1.2,2.9,2.2,4.2,3.2c1,0.8,2.2,0.9,3.4,0.5
	c1.7-0.7,3.4-1.3,5.1-2c0.5-0.2,1-0.6,1.1-1.1c0.4-1.9,1.8-2.9,3.2-4c4.7-3.6,7.7-8.2,8.9-14.1c0.1-0.5,0.5-1,0.7-1.5
	c0.3-0.5,0.6-0.9,0.8-1.4c0.8-3.6,0.9-7.2,0.2-10.8c-0.3-1.7-1.4-2.7-3.1-3.1c-3.6-0.8-6.7,0.5-9.7,2c-0.5,0.3-0.8,1.1-1.1,1.7
	c-2.1,4.5-4.2,9.1-6.2,13.6c-1,2.3-1.9,4.7-2.7,7.1C251.3,733.3,250.2,736.7,247.8,739.8z M268,626.5c1.6,0.1,2.7,0.1,3.9,0.2
	c1.2,0.1,2.3,0.3,3.5,0.5c0.8,0.1,1.3-0.2,1.7-0.9c2.7-4.8,5.8-9.4,7.8-14.6c5.1-13.4,7.9-27.2,7.9-41.5c0-6.8-0.1-13.6,0.3-20.4
	c0.3-5.2-1.3-9.8-2.9-14.5c0-0.1-0.2,0-0.4-0.1C290.5,567.4,284.7,598,268,626.5z M271.4,101.9c0.1,0.1,0.1,0.3,0.2,0.4
	c0.4-0.1,0.7-0.2,1.1-0.3c3.1-1.3,6.3-2.7,9.4-3.9c11.9-4.5,24.3-7.1,37-8.1c5.7-0.4,10.9,0.7,14.8,5.6c2.4-2.8,5.6-4.2,8.6-5.9
	c1.2-0.7,2.3-1.3,3.5-2.1c2.7-1.7,2.8-3.1,0.4-5.1c-0.9-0.7-2-1.3-3.1-1.6c-1.8-0.4-3.6-0.5-5.4-0.4c-2.5,0.1-5,0.4-7.6,0.6
	c-8.3,0.7-16.4,2.7-24.5,4.4c-6.1,1.3-12.2,2.9-17.9,5.3C281.6,93.5,276.3,97.4,271.4,101.9z M276.1,723.7
	c-2.4,6.7-6.1,12.1-12.3,15.8c0.9,0.4,1.5,0.6,2.2,0.9c-0.8,0.9-1.4,1.7-2.1,2.4c1.1,2.9,2.2,5.6,3.2,8.5c0.9,2.9,1.6,5.9,2.5,9
	c2-1.8,3.8-3.4,5.6-5c0.3-0.3,0.7-0.6,1.1-1c-0.3-0.4-0.6-0.8-0.8-1.2c-0.6-1.3-1.4-2.5-1.8-3.8c-1-3.6,1.6-6.5,5.3-6.2
	c2.1,0.2,3.4,1.5,4.5,3.1c0.5,0.6,0.8,1.3,1.2,1.9c0.3-0.1,0.5-0.1,0.6-0.1c2.4-0.8,3.7-3.1,5.6-4.6c0.9-0.7,1-1.9,0.2-3
	c-2.6-4.1-4.7-8.5-8.3-11.8C280.8,726.8,279,724.9,276.1,723.7z M342.8,237.3c-0.1,0-0.2,0-0.3,0c-0.3,2.5-0.8,5-1,7.4
	c-0.3,4.6-0.5,9.2-0.8,13.7c-0.6,10.3-1.3,20.7-1.8,31c-0.4,8.6-0.6,17.2-0.8,25.9c-0.1,2.8-0.3,5.7-0.2,8.5
	c0.1,6.8,0.3,13.6,0.5,20.4c0,0.6,0.1,1.2,0.1,1.8c1.1-2.2,1.7-4.4,2.4-6.7c1.2-4,2.3-8.1,2.5-12.3c0.5-9.2,1.3-18.3,1.3-27.5
	c0.1-9.2-0.3-18.5-1-27.7c-0.7-8.8-1.3-17.5-0.9-26.3C342.9,242.8,342.8,240,342.8,237.3z M223.2,321.3c-0.2,0.9-0.3,1.9-0.5,2.8
	c-1.1,6-2.1,12-3.3,18c-0.9,4.4-2.1,8.8-3.1,13.2c-0.2,0.8-0.2,1.6-0.3,2.4c1-0.5,1.6-1.1,2.1-1.8c6.8-8.2,15.4-13.3,26-14.6
	c2.2-0.3,4.4-0.5,6.5-0.8c-0.5-0.6-1.1-0.8-1.6-1c-3-1.3-6-2.5-8.9-3.9C233.6,332.2,227.2,328.4,223.2,321.3z M360.6,714.8
	c-1.3,2.2-2.2,4.3-3.6,6.1c-3.9,4.9-7.3,10.1-10.4,15.5c-1.4,2.4-2.8,4.8-4.3,7.1c-0.9,1.4-1.7,2.9-2.7,4.1
	c-1.1,1.4-2.5,2.6-3.8,3.9c-0.7,0.7-1.3,1.3-1,2.6c4.9-2.3,9.6-4.5,14.2-6.8c1.5-0.7,2.8-1.8,4-2.9c3.6-3.1,6.3-7,9.1-10.9
	c1.5-2,2.7-4.2,4.1-6.4c0.7-1.1,0.6-2.1-0.3-3.2c-1.4-2-2.6-4.1-3.9-6.2C361.7,716.8,361.2,715.8,360.6,714.8z M297.9,719.6
	c-0.2,0-0.4,0-0.6,0c0,0.8,0.1,1.6,0,2.4c-0.3,2.3-0.8,4.5-0.9,6.8c-0.2,4.5-1.1,9-2.6,13.2c-1.3,3.7-3.6,7-5.5,10.5
	c-0.4,0.7-0.8,1.3-1.4,2.1c1.1,0.2,1.9,0.3,2.8,0.5c2.6,0.6,5.3,0.9,7.8,1.8c1.7,0.6,2.9,0.6,4.2-0.7c4.6-4.1,9.4-8,14-12.1
	c0.8-0.7,1.2-1.7,1.9-2.7c-2.6-1.9-4.5-4.1-7.3-5.4c-0.3,0.5-0.5,0.8-0.6,1.2c-0.7,1.6-1.7,2.4-3.5,2.3c-1.3-0.1-2.5,0-3.8,0
	c-1.1,0-2.1,0.1-3.2,0.2c-0.1-0.2-0.3-0.5-0.3-0.8C298.6,732.3,298.2,726,297.9,719.6z M269.1,224.1c-0.3,0.7-0.6,1.2-0.7,1.7
	c-1.4,4.7-2.8,9.4-4.2,14.1c-2.6,8.8-4.4,17.8-5.2,27c-0.1,1-0.3,2.1,0.1,3.6c2-4.2,4.4-7.4,7-10.4c3.9-4.5,7.8-8.9,11.7-13.4
	c1.8-2.1,1.7-2.1,0.5-4.5c-2.8-5.5-5.5-11-8.3-16.5C269.7,225.2,269.4,224.8,269.1,224.1z M335.5,397.9c-2-10.7-3.1-21.2-1.1-31.8
	c-4.2-2.2-5-6.9-8.4-10c-0.1,0.8-0.2,1.2-0.2,1.6c0,6.1-0.1,12.2,0,18.3c0.1,8.9,0.3,17.9,0.3,26.8c0,7.6-0.4,15.2-2,22.7
	c-0.2,0.8-0.2,1.6-0.3,2.3c0.1,0,0.3,0.1,0.4,0.1c1.2-2.4,2.5-4.7,3.8-7.3c-1.4-0.6-1.1-1.7-0.6-2.8c0.7-1.8,1.5-3.6,2.2-5.5
	c-0.2-0.4-0.5-0.8-0.7-1.2c-1.5-2.9-1.4-5.7,0.7-8.2c1.2-1.4,2.7-2.6,4.1-3.8C334.2,398.6,334.9,398.3,335.5,397.9z M336.8,121.5
	c-0.2,0-0.4,0-0.6,0c0,0.7,0,1.4,0,2.1c0,1.9,0.2,3.8,0,5.7c-0.3,3.5-1.3,6.8-4.1,9.3c-0.5,0.4-0.8,1.2-0.8,1.8
	c-0.2,4.2-1.3,8.2-3.3,11.8c-3,5.5-4.7,11.6-9,16.5c0.8,1.2,1.5,2.2,2.4,3.5c2.5-1,5-1.9,7.4-2.8c0.4-0.2,0.7-0.6,1-1
	c3.6-5.3,6.6-10.7,8.3-17c1.7-6.3,2.9-12.5,1.6-19C339,128.7,337.8,125.1,336.8,121.5z M319.2,231.5c-0.1,1.3-0.3,2.7-0.5,4
	c-1,7.4-3,14.4-6.7,20.9c-2.2,3.8-4.3,7.6-6.8,11.2c-3.1,4.4-6.4,8.6-9.7,12.9c-1,1.3-2,2.6-2.9,3.9c0.1,0.1,0.2,0.3,0.4,0.4
	c0.8-0.5,1.7-1,2.5-1.6c5.6-4.4,11.3-8.7,16.7-13.3c3.4-2.8,6.4-6.1,9.6-9.2c0.8-0.8,1.4-1.7,1.3-2.9c-0.3-6.2-0.6-12.5-1.1-18.7
	C321.8,236.4,321,233.8,319.2,231.5z M339.3,688c0.5,1.2,0.9,2.1,1.3,3.1c1.7,4.6-0.4,10.4-5.6,12.2c-2.1,0.7-4.1,1.1-6.3,0.9
	c-1.2-0.1-2.3-0.3-3.5-0.4c-0.9,2-1.7,4-2.8,6.4c6.3-2.1,12.1-2.1,17.9-0.1c5.6,1.9,10.7,5,14.6,9.6c1.8-1.7,2.7-3.7,3-6.2
	c0.2-1.3-0.2-2.3-0.9-3.3c-4.2-5.7-8.4-11.5-12.5-17.3c-0.7-1-1.3-2.2-2.1-3.1C341.6,688.7,340.9,687.8,339.3,688z M221.3,771.5
	c0,1.6,0,3.2,0,4.8c0,1.2,0.5,2.1,1.7,2.6c2.3,1.1,4.5,2.3,6.9,3.1c5.8,2,11.7,2.5,17.5,0.4c7.7-2.7,15-6.4,21.7-11.2
	c0.9-0.6,1.8-1.4,2.5-2.2c2.9-3.1,3.8-6.9,4.1-11.4c-2.8,2.4-5,4.4-6.7,7.1c-1.6,2.5-3.6,4.6-6.2,6.1c-4,2.2-8.1,4-12.4,5.3
	c-6.7,2-13.4,2.2-19.9-0.8C227.4,774,224.4,772.8,221.3,771.5z M330,416.9c2.1,0,4-0.2,5.8,0c7.4,1,13.8,4.4,19.7,8.7
	c0.4,0.3,0.8,0.6,1.2,0.9c0.9-4,1.8-7.8,2.6-11.5c-1.3-0.9-2.6-1.8-3.8-2.8c-2.4-2-5.2-3.4-8.2-4c-4-0.8-8-0.4-12,0.4
	c-0.7,0.1-1.5,0.4-1.9,0.9C332,411.7,330.6,414.1,330,416.9z M176.8,462.6c0,5.3-0.2,10,0,14.8c0.4,8.5,1.1,17.1,1.7,25.6
	c0.2,3.2,0.4,6.5,0.8,9.7c0.2,1.8,0.6,2.1,2.3,2.5c3.3,0.7,5.9-1.8,5.3-5.2c-1.4-8.7-2.8-17.5-4.3-26.2c-0.6-3.5-1.4-7-2.3-10.4
	c-0.8-3-1.7-5.9-2.6-8.9C177.6,464.1,177.3,463.6,176.8,462.6z M296.9,710.8c0,0-0.1,0-0.1-0.1c0-1.3,0-2.5,0-3.8
	c0.1-2.3,0.1-4.6,0.3-6.9c0.2-1.7,0.9-3.1,2.9-3.7c2.1-0.7,4.2-1.7,6.3-2.6c-2.6-6.3-5.1-12.6-7.8-18.9c-2.7-6.2-5-12.6-9-18.2
	C291.9,674.8,294.4,692.8,296.9,710.8z M301.4,179.5c1.3,2.5,2.6,5,3.8,7.3c4.9,0,26.2-8.8,29.4-12.2c-0.7-0.5-1.6-0.8-2.2-1.4
	c-2.2-2.1-4.2-1.8-6.9-0.6C317.9,176,310.1,178.7,301.4,179.5z M280,775.7c0.1,0.6,0.1,1.1,0.2,1.6c0.5,3.4,0.6,3.6,4,3.4
	c7.3-0.4,14.7-1,22-1.4c5.1-0.3,9.3-2.5,12.4-6.5c1.9-2.4,3.5-5.1,5.2-7.7c0.3-0.4,0.4-0.9,0.7-1.7c-3.2,2.3-6,4.3-8.8,6.3
	c-4.1,3-8.6,5-13.6,5.7C294.7,776.5,287.4,776.8,280,775.7z M371.9,328c-0.5,0.5-0.7,0.6-0.7,0.7c-0.8,4.3-2.6,8.3-4.4,12.2
	c-2.4,5.5-3.1,11.2-2.2,17.2c0.5,3.5,0.7,7.1,1.1,10.6c0,0.5,0.1,1,0.2,1.4c1.4-3.2,2.5-6.4,3.4-9.7c1-3.5,2-7,2.6-10.6
	C373.3,342.7,371.9,335.6,371.9,328z M247.1,741c-2,1.9-3.8,3.8-5.8,5.4c-2,1.6-4.3,3-6.5,4.4c1.8,1.2,3.5,2.2,5.1,3.4
	c4,2.8,4.1,2.8,8.5,0.6c5-2.5,9.1-6.3,13.1-10.1c0.2-0.2,0.2-0.5,0.5-1.2c-1.9,0.7-3.5,1.3-5.1,2c-2.7,1.1-5,0.4-6.9-1.5
	C249,743,248.2,742.1,247.1,741z M280,68.3c4.9,0,8.2-2.6,10.9-6.3c0.5-0.7,0.9-1.7,1.1-2.6c0.5-2-1.6-4.1-3.6-3.6
	c-5.2,1.2-10.1,3.1-14.6,6c-1.8,1.1-2.1,2.2-0.7,3.9c0.6,0.8,1.7,1.5,2.6,1.8C277,67.9,278.6,68,280,68.3z M287.2,341.6
	c0,0.2,0,0.4-0.1,0.6c1,0.1,2,0.2,3,0.2c3.6,0.2,7.1,0.2,10.7,0.5c3.8,0.4,7.7,0.9,11.5,1.8c7.6,1.8,13.8,5.8,17.9,12.6
	c0.9,1.4,1.8,2.8,2.8,4.1c0.5,0.7,0.9,1.5,2,1.6c0.4-2,0.9-4,1.1-5.9c0.6-4.8-0.9-7.5-5.4-9.3c-2.4-0.9-4.8-1.7-7.3-2.2
	c-6.3-1.2-12.6-2.3-18.9-3.3C298.7,341.5,293,341.3,287.2,341.6z M347.2,731.5c-2.6-1.2-4.9-2.3-7.1-3.4c-0.3-0.2-0.8-0.2-1.2-0.1
	c-2.3,0.5-4.5,1-5.3,3.7c-0.2,0.7-0.6,1.3-0.9,1.9c-0.5,1.2-0.4,2.3,0.4,3.4c1.8,2.5,3.7,4.9,5.5,7.4c0.1,0.1,0.3,0.1,0.7,0.2
	C341.8,740.3,344.4,736.1,347.2,731.5z M160.3,487.7c2.1-5,4.1-9.7,6.1-14.4c1.9-4.5,3.8-9,5.7-13.6c0.1-0.3,0-0.8,0-1.1
	c-0.2-0.1-0.4-0.2-0.6-0.4c-0.2,0.3-0.3,0.7-0.5,1c-3.5,5.2-7.1,10.5-10.6,15.7c-1.2,1.8-2.3,3.6-3.5,5.4c-0.5,0.8-1,1.7-0.4,2.7
	C157.6,484.8,158.8,486.4,160.3,487.7z M319.3,173c-0.5-1.3-0.9-2.3-1.4-3.5c-4,2.9-8.2,2.7-12.4,1.5c-3.4-1-6.8-1.8-10.1-4.5
	c1.4,4.4,3.4,7.9,5.2,11.5C307.3,177.8,312.9,174.6,319.3,173z M292.7,737.7c1.5-4.3,2.2-8.6,2.3-13.4c-3.3,2.3-6,1.6-8.5-0.7
	c-0.6-0.5-1.2-1-1.8-1.5c-0.9-0.7-1.8-1.4-2.7-1.9c-1.3-0.7-2.6-0.5-3.9,0c-0.9,0.4-1.3,1.1-1.1,2.2
	C284.3,725.3,288.8,731.1,292.7,737.7z M224.2,234c0.9-7.2,0.1-14.1,0.1-21.3c-3.3,7.1-6.4,13.9-9.6,20.8
	C217.9,233.1,220.9,232.4,224.2,234z M179.5,413.2c7.7-6,14.9-4.5,21.8,1.9c0-1.5-0.2-2.8-0.4-4c-0.4-3.9-0.7-4.2-4.6-4.5
	c-1.3-0.1-2.7-0.1-4,0c-2.7,0.2-5.4,0.5-8,0.9c-2.2,0.3-4.3,0.8-6.5,1.4c-0.9,0.3-1.7,1-2.7,1.6
	C176.8,411.5,178.1,412.3,179.5,413.2z M330.9,410.6c1.4-1.6,2.7-3.3,4.8-3.8c2-0.5,4.1-1,6.2-1.5c-1.1-3.5,0.4-6.6,1.4-9.9
	c-3.3,2-6.5,3.8-9.5,5.8c-1,0.6-1.8,1.6-2.5,2.5C329.6,405.8,329.4,408,330.9,410.6z M319.2,92.3c3.4,5,8.7,7.2,12.8,10.8
	c2-4.4,0.5-6.7-2.5-8.8C326.4,92.2,323,91.9,319.2,92.3z M276.9,753.9c2.4-1.6,4.3-3,6.2-4.2c-0.5-2.2-1.3-3.7-3.7-4.1
	c-2.7-0.5-4.3,0.5-4,3.2C275.7,750.3,276.3,751.9,276.9,753.9z M278.2,759.6c4.4-2.7,9.7-8.8,10.2-11.5c-1.9,1.5-3.9,3.1-6,4.6
	c-1,0.8-2.1,1.4-3.1,2.2c-0.4,0.3-0.8,0.8-0.9,1.3C278.3,757.3,278.3,758.4,278.2,759.6z M363.7,411.6c-0.5-3-1.2-4.6-2.6-5.8
	c-0.5,1.6-0.8,3.3-1.6,4.8c-0.6,1.3-0.4,2.2,0.6,3.2C361.4,413,362.5,412.3,363.7,411.6z M201.6,408.9c0.8,2.9,1.6,5.8,2.4,8.9
	c0.7-0.4,1.2-0.6,1.7-0.9C205.1,413.7,204.3,410.8,201.6,408.9z M334.4,115.5c-0.5-1-0.9-1.6-1.2-2.2c-0.1,0-0.3,0.1-0.4,0.1
	c0,0.7-0.1,1.3-0.1,2C333.2,115.5,333.6,115.5,334.4,115.5z M258.1,272.2c0.4-1.2,0.4-1.2-1.3-1.4
	C257.3,271.4,257.7,271.8,258.1,272.2z"/>
<path class="st0" d="M287,516.6c-1.1-4.5-2.3-9-3.4-13.5c-0.1,0-0.3,0.1-0.4,0.1c0.1,0.9,0.2,1.8,0.4,2.6c1.5,7.3,3.1,14.5,4.6,21.8
	c0.2,1.2,0.4,2.4,0.4,3.5c-0.2,7.4-0.3,14.7-0.7,22.1c-0.5,10.6-2.8,21-5,31.4c-1.8,8.5-4.5,16.8-7.9,24.9
	c-2.4,5.8-5.6,11.1-8.9,16.8c-4.2-0.9-8.4-1.7-12.6-2.6c-9.5-2-19-4.4-28.6-6c-6.1-1.1-12.4-1.2-18.7-1.8c-2.1-0.2-4.3-0.3-6.4-0.5
	c-2.8-0.4-3.4-1-4-3.9c-0.5-2.3-0.3-4.4,0.6-6.5c1.8-4.5,3.5-9,5.5-13.4c5.2-11.2,9.8-22.7,12.3-34.8c2-9.9,3.6-19.9,4.8-30
	c0.1-1.1,0-2.3-0.1-3.5c-0.7,3.9-1.2,7.8-2,11.7c-1.8,8.7-3.6,17.4-5.7,26c-1.9,7.9-4.8,15.4-8.1,22.8c-0.1,0.3-0.3,0.5-0.5,0.9
	c-2-1.1-3.4-2.7-4.6-4.4c-0.5-0.7-0.5-1.8-0.3-2.7c1.9-11,3.5-22.1,7-32.7c3.1-9.6,4.9-19.3,6-29.3c0.8-7.7,1.9-15.4,2.6-23.1
	c1-10.1,1.8-20.2,1.1-30.4c-0.5-7.7-1.7-15.4-2.4-23.1c-0.4-4-0.6-8.1-1-12.1c-1.2-15.4-0.6-30.9,0.8-46.3
	c0.5-5.4,1.8-10.8,2.7-16.1c0.2-1.4,1-2.6,1.9-3.7c2.8-3.5,6-6.5,9.5-9.3c5.7-4.5,12.1-7,19.3-7.9c5-0.6,9.9-0.7,14.9-0.6
	c6.1,0.1,12.2-0.3,18.3-0.6c1.8-0.1,3.4,0.2,5.1,0.6c3,0.8,6,1.2,9.1,1.6c5.6,0.7,11.2,1.1,16.8,1.9c1.9,0.3,3.8,1.1,5.7,1.6
	c1.1,0.3,1.5,1,1.5,2.1c0.1,3.2,0.2,6.5,0.3,9.7c0.2,10.8,0.7,21.7,0,32.5c-0.9,13.5-1.1,27.1-2.8,40.5c-2,16.3-5.2,32.4-11.4,47.7
	c-1.8,4.5-4,9-6,13.4c-2.9,6.4-6.1,12.7-8,19.6c-0.3,1.1-0.8,2.2-1.1,3.3C287.4,516.6,287.2,516.6,287,516.6z"/>
<path class="st0" d="M256.6,268.7c-2-1.1-3.1-2.7-4.2-4.2c-4.1-5.7-6-12.1-7-19c-1.4-9.9,1-19.2,3.5-28.5c1.1-4.1,2.4-8.2,3.5-12.3
	c0.2-0.8,0.3-1.7,0.3-2.6c-0.3,0.5-0.6,1-0.7,1.5c-2.3,7.3-4.9,14.6-6.8,22c-2.5,9.8-3.6,19.8-3.4,29.9c0.2,6.7,1.7,13.2,4.3,19.4
	c0.3,0.6,0.5,1.3,0.9,2.2c-0.5-0.2-0.7-0.2-0.8-0.4c-3.4-5-6.9-9.9-9.4-15.4c-2.4-5.2-3.6-10.6-4.2-16.3
	c-1.5-13.9-0.5-27.7,3.1-41.2c4.3-15.7,8.8-31.4,13.3-47.1c1.3-4.3,3.2-8.5,4.6-12.7c1.7-4.9,3.2-9.9,4.8-14.9
	c0.2-0.5,0.3-1,0.8-1.5c0.3,5.2,0.7,10.5,1,15.7c0.1,0,0.3,0,0.4,0c0.1-0.4,0.2-0.8,0.2-1.2c-0.1-6.3-0.1-12.5-0.4-18.8
	c-0.1-2.9-0.8-5.8-1.4-8.7c-0.2-1.1-0.2-1.9,0.5-2.6c1.2-1.2,2.4-2.5,3.7-3.7c0.9-0.9,1.9-1.6,2.9-2.4c0.4-0.3,0.9-0.7,1.4-0.9
	c4.9-1.8,9.9-3.4,14.7-5.2c9-3.3,18.3-5.7,27.8-6.9c0.4-0.1,0.9,0,1.8,0c-5.3,4.8-10.3,9.4-15.3,13.9c-0.1-0.1-0.2-0.2-0.4-0.2
	c0.3-1,0.6-2,0.8-3.1c-0.1-0.1-0.3-0.1-0.4-0.2c-0.4,0.7-1,1.3-1.3,2.1c-1.4,2.9-3,5.6-3.9,8.6c-1,3.1-1.4,6.3-1.8,9.5
	c-0.7,4.8-0.5,9.6,0,14.5c0.5,5.2,1,10.4,1.2,15.6c0.4,8,2.3,15.6,6.1,22.7c5.4,10,10.2,20.4,14.7,30.9c3.7,8.6,5.4,17.5,4.4,26.9
	c-0.6,5.6-1.9,11.1-4.2,16.3c-3.7,8.6-8.4,16.7-13.3,24.6c-1.5,2.4-3.9,3.7-5.8,5.7c-0.2-0.1-0.3-0.1-0.5-0.2c0-1.3,0-2.6,0-3.9
	c0.3-8.5-1.8-16.3-5.9-23.7c-4.2-7.6-8.3-15.1-12.3-22.8c-1.6-3.1-2.8-6.5-4.2-9.8c-3.8-8.7-5.9-18-8.3-27.2c-0.7-2.8-1.1-5.7-2-8.6
	c0.1,1.3,0.1,2.7,0.3,4c1.4,10.5,4.2,20.6,7.5,30.6c0.6,1.8,0.5,3.2-0.2,4.9c-3.7,8.4-6.2,17.1-8,26.1c-1.1,5.5-1.7,11.1-2.5,16.7
	C256.8,267.5,256.8,267.9,256.6,268.7z"/>
<path class="st0" d="M336.9,348.7c-4.6-3.8-9.7-5-14.8-5.9c-7-1.3-14-2.5-21.1-3.3c-4.9-0.5-10-0.3-14.9-0.3c-0.5,0-1.1,0.1-1.8-0.3
	c0.6-0.3,1.3-0.6,1.9-0.8c8-3,15-7.4,21-13.5c4.5-4.6,8.3-9.8,11.3-15.5c5.7-10.7,8.7-22.2,11.2-33.9c1.7-7.8,2.5-15.6,1.9-23.6
	c-0.9-12.3-4.3-24-10.4-34.7c-1.4-2.4-2.7-4.8-4.2-7.2c-0.7-1.1-1.7-2.1-2.5-3.1c-0.3-0.4-0.6-0.7-0.8-1.1
	c-2.5-5.4-4.9-10.8-7.4-16.2c-0.1-0.2-0.1-0.4-0.2-0.9c7.2-1.5,14.1-4,21.1-7.1c1.1,3.4,3.8,5.5,6.1,8c4.8,5.2,7.2,11.5,8.6,18.2
	c0.4,1.9,0.7,3.9,1,5.9c0.7,4.7,0.5,9.3-0.6,13.9c-2.8,11.7-3.6,23.6-4,35.6c-0.3,8.2-1.1,16.4-1.4,24.7
	c-0.4,11.6-0.5,23.1-0.6,34.7c0,7.8,0.3,15.7,0.5,23.5C336.9,346.5,336.9,347.3,336.9,348.7z"/>
<path class="st0" d="M272.6,331.6c-0.8,0.1-1.5,0.2-2.3,0.3c-6.5,0.3-12.9-0.2-19.1-2c-10.9-3.1-19.4-9.5-24.8-19.6
	c-1.4-2.6-2-5.4-1.9-8.4c0.1-5.2,0-10.5-0.4-15.7c-0.8-10.7-0.2-21.4,0.1-32.1c0-0.6,0.1-1.3,0.2-1.9c0-0.1,0.2-0.2,0.5-0.5
	c0.3,0.7,0.6,1.3,0.9,1.9c3.2,8.9,8,17,14,24.4c3.8,4.7,7.3,9.6,10.7,14.6c6.5,9.6,10.2,20.3,11.8,31.8c0.2,1.6,0.4,3.3,0.6,5
	c0.1,1.1,0.1,1.1,1.3,2.1c1.1-0.4,0.9-1.3,0.9-2.2c-1.4-14.3-5.6-27.6-13.9-39.4c-3.9-5.5-8-10.9-12.1-16.2
	c-6.1-7.9-10.5-16.5-13.8-25.9c-0.3-0.9-0.4-2-0.4-3c0.3-3.6,0.8-7.1,1-10.6c0.2-4,0.2-8.1,0.1-12.1c-0.1-4-0.4-7.9-0.6-11.9
	c-0.2-3.7,0.9-6.8,3.7-9.3c2.1-1.9,4.1-3.9,6.5-5.7c-0.2,0.9-0.4,1.8-0.6,2.6c-1.8,7.2-3.5,14.5-4.3,21.9
	c-0.6,5.6-0.9,11.2-0.3,16.8c0.7,6.8,1.5,13.7,2.4,20.5c0.5,3.7,2.1,6.9,4.6,9.7c1.8,2.2,3.2,4.7,5,6.9c2.8,3.2,5.8,6.2,8.8,9.3
	c-0.3-2.5-1.2-4.8-2.3-7c-3.6-7.7-5-15.8-5-24.2c0-0.5,0.1-0.9,0.4-1.4c0.1,0.4,0.3,0.7,0.3,1.1c1,5.1,2.7,9.9,6.2,13.9
	c2.7,3.2,4.8,6.9,7.5,10.1c4.6,5.4,7.7,11.4,9.5,18.1c3.1,11.1,4.7,22.5,4.7,34C272.6,328.7,272.6,330,272.6,331.6z"/>
<path class="st0" d="M278.1,718.3c-0.2-3.2-0.4-6.1-0.7-9.1c-0.4-4.5-3.4-6.2-7.9-5.7c-1.7,0.2-3.4,0.6-5.3,1
	c-0.1-0.4-0.2-0.8-0.2-1.3c-0.3-8-1.3-15.9-3.3-23.7c-2.6-9.8-4.9-19.7-6.8-29.6c-1.4-7.5-3.6-14.8-7-21.6c-0.6-1.1-1-2.3-1.6-3.8
	c1.1,0.2,1.8,0.3,2.5,0.5c7.6,1.5,15.2,3.1,22.8,4.6c0.9,0.2,1.6,0.5,2.1,1.3c4.2,6.3,8.5,12.6,12.8,18.9c1.3,1.9,2,3.9,2.2,6.1
	c0.6,6.8,1.2,13.6,2,20.3c0.6,4.6,1.7,9.2,2.3,13.8c0.8,5.6,1.2,11.3,1.9,17c0.5,3.6,1.2,7.2,1.6,10.8c0.2,1.3-0.1,2.7-0.3,4
	c0,0.3-0.3,0.6-0.5,0.8c-1.3,1-4.9,1.1-6.3,0.1c-1-0.7-2-1.6-3-2.3C282.5,717.8,281.9,717.6,278.1,718.3z"/>
<path class="st0" d="M307.5,694.3c-3-9.7-7.2-18.7-10.9-27.8c-2.9-7.3-6.6-14.2-11.1-20.6c-3.3-4.7-6.7-9.4-10-14.2
	c-0.3-0.4-0.6-0.9-1-1.6c12.5,0.4,23.8-2.7,34.3-9.1c0.3,0.5,0.5,1,0.7,1.5c3.4,8.2,6.5,16.5,10.2,24.5c4.5,9.7,7.7,19.9,11,30.1
	c0.9,2.7,1.7,5.4,2.8,8.1c0.8,2,1.8,4,3.8,5.3c0.4,0.3,0.7,0.9,0.9,1.3c1.5,4-0.7,8.6-4.9,9.9c-2.5,0.8-5.1,1-7.8,0.6
	c-0.6-0.1-1.2-0.6-1.7-1c-0.4-0.4-0.6-0.9-1-1.3c-2.6-3.7-6-5.8-10.6-5.6C310.7,694.3,309.1,694.3,307.5,694.3z"/>
<path class="st0" d="M270.6,64.2c2,4.6,4.8,6.3,10,6.1c4.9-0.2,8.8-2.3,11.8-6.2c2.3-3,2.4-5.9,0.5-9.2c0.6-0.1,1.2-0.3,1.8-0.3
	c8.2-0.5,15.7,1.2,22.1,6.6c5.1,4.3,9.7,9.1,13.5,14.6c0.5,0.7,0.8,1.5,1.3,2.6c-1.1,0.2-1.9,0.3-2.7,0.4
	c-11.7,1.5-23.3,3.8-34.6,6.9c-9.8,2.7-17.9,8.2-25.1,15.2c-2,2-4,4-6.4,5.6c-1.7,1.2-3.1,2.9-4.7,4.5c-0.2-0.4-0.5-0.8-0.7-1.2
	c-1.2-2.9-2.3-5.7-3.5-8.6c-2.1-5-2.2-10,0.1-15c3.8-8.2,9-15.4,15.6-21.6C269.9,64.6,270.2,64.5,270.6,64.2z"/>
<path class="st0" d="M199.1,404.8c-5.4,0.3-10.5,0.6-15.9,0.9c0-0.8,0-1.8,0.2-2.8c0.8-3.9,1.7-7.9,2.6-11.8
	c1.9-8.3,3.8-16.7,5.8-25c1-4,2-8,3.3-11.9c4.4-12.6,7.7-25.4,10.9-38.4c2.1-8.7,3.4-17.5,5-26.4c1.7-9.9,3.9-19.7,5.6-29.6
	c0.8-4.6,1.1-9.3,1.3-13.9c0.2-3.3,0-6.6,0-10c0-0.4,0.1-0.7,0.2-1.2c2.1-0.3,3.8,0.4,5.7,1.3c-0.1,1-0.1,2.1-0.2,3.2
	c-1.2,12.1-1.5,24.3-1.5,36.5c0,1.9-0.4,3.8-0.7,5.6c-1.5,10.2-3.1,20.3-4.6,30.5c-2.5,17.6-7,34.7-11.4,51.9
	c-2.2,8.8-4.7,17.6-5.7,26.7c-0.4,3.8-0.4,7.7-0.6,11.6C199.1,403.1,199.1,404,199.1,404.8z"/>
<path class="st0" d="M367.5,218.9c1.8-0.5,3.3-0.9,5-1.3c1.1-0.3,1.9,0.1,2.1,1.3c0.3,1.3,0.7,2.6,0.7,4c0.2,5.7,0.5,11.4,0.4,17.1
	c-0.1,7.5-0.3,15-0.7,22.6c-0.4,7.3-1.2,14.5-1.6,21.8c-0.5,7.7-1,15.3-1.3,23c-0.2,5.2,0,10.5-0.1,15.7c0,1.1-0.4,2.1-0.7,3.1
	c-0.4,1.4-0.9,2.7-1.4,4c-1.5,3.7-3,7.3-4.6,10.9c-2.6,5.7-3.2,11.5-2.3,17.6c0.9,6,1.6,12.1,1,18.2c-0.1,1.2-0.2,2.4-0.6,3.5
	c-1.5,3.9-3.1,7.8-4.6,11.7c-1.2,3-1.3,5.9-0.3,9c1,3.1,0.9,6.2-1,9.4c-4-3-8.2-5-13.3-4.7c-1.2-7.1,1.6-12.4,6.2-17.3
	c-0.8,0.4-1.6,0.8-2.6,1.4c0-0.6-0.2-1.1-0.1-1.6c0.7-6.9,2.1-13.6,3.6-20.3c3.2-14,6.4-27.9,9.3-41.9c1.2-5.6,1.5-11.3,2.3-16.9
	c1.2-8.5,2.4-17.1,3.8-25.6c2.3-14.1,2.8-28.2,2.1-42.4c-0.3-6.3-0.7-12.6-1.1-19C367.5,221.1,367.5,220.1,367.5,218.9z"/>
<path class="st0" d="M323.2,261.7c-0.3,4.3-0.3,8.7-0.9,13c-2.7,19.9-12.1,36.1-27.5,48.9c-5.8,4.8-12.6,7.1-20.2,7.8
	c-0.1-0.5-0.2-0.9-0.2-1.4c0.2-9.5-0.8-19-2.7-28.3c-0.2-1-0.1-1.7,0.8-2.3c1.4-1,2.8-2.1,4.3-3c2.2-1.3,4.4-2.5,6.7-3.7
	c13-7,24.4-16.1,34.8-26.5c1.5-1.5,2.8-3.2,4.2-4.8C322.8,261.6,323,261.6,323.2,261.7z"/>
<path class="st0" d="M357.6,220.3c3.1-0.2,5.8-0.4,8.6-0.7c0.1,0.2,0.2,0.4,0.2,0.7c0.2,8.3,0.2,16.6,0.4,24.9
	c0.5,15.4-0.9,30.7-3.6,45.9c-1.5,8.5-2.3,17.1-3.2,25.7c-0.6,6.2-1.8,12.4-3.1,18.5c-2.8,12.6-5.7,25.2-8.4,37.8
	c-1.1,5.4-1.8,10.9-2.6,16.4c-0.2,1.4-0.6,2.4-1.8,3.1c-1.4,0.9-2.7,1.8-4.5,3.1c0.2-2.7,0.4-4.8,0.5-6.9c0.2-8,1.7-15.7,3.2-23.5
	c0.7-3.6,1-7.2,1.2-10.8c0.5-10.9,2.6-21.5,5.5-32c2-7,4.2-13.9,6.5-20.9c1.8-5.4,2.4-11,1.9-16.6c-0.6-6.3-1.4-12.6-2-18.9
	c-1.2-11.8-1.1-23.6,0-35.3C356.9,227.2,357.3,223.8,357.6,220.3z"/>
<path class="st0" d="M338.6,451c-1.5,1.5-1.9,3.5-2.7,5.4c-1.3,3.2-2.4,6.5-4,9.6c-1.4,2.9-3.8,5-6.4,6.9c-0.6,0.4-1.4,0.7-2.3,1.2
	c-0.5-1.7-0.3-3,0.4-4.3c4.4-7.6,5.4-15.9,6-24.4c0.1-2.1,0-4.3-0.1-6.4c0-0.3-0.1-0.7-0.7-1c-0.2,1.6-0.4,3.2-0.5,4.8
	c-0.3,3.3-0.7,6.6-1,9.9c-0.1,1-0.5,1.8-1.5,2.2c-1.1,0.5-2.2,1.2-3.4,1.6c-0.6,0.2-1.5,0.1-2.2-0.2c-0.3-0.1-0.2-1.1-0.1-1.7
	c1.2-5.4,2.4-10.8,3.6-16.2c0.1-0.2,0.1-0.5,0.1-0.7c-0.1-4.9,2.2-9.2,4-13.5c0.5-1.2,1-2.3,1.4-3.5c0.4-1.4,1.2-2,2.5-2.2
	c1-0.1,2.1-0.2,3.1,0c7.1,1.2,13.4,4.3,19.1,8.5c1,0.7,1.8,1.6,2.5,2.5c0.4,0.4,0.5,1.1,0.5,1.7c0,2.2-0.2,4.4-0.3,6.6
	c-0.1,3.9-0.3,7.8-0.2,11.6c0.1,2.9-0.7,5.5-2,7.9c-1.4,2.6-3,5-5.6,7.3c0.3-2.9,1.9-4.8,2-7.2c-1.2,2.1-2.6,4.1-3.6,6.2
	c-1.9,3.8-5,4.7-9.4,4.6c0.7-0.6,1-1.1,1.4-1.2c1.5-0.6,2.4-1.7,3-3.2c0.8-2.3,1.7-4.5,2.5-6.7c-0.2-0.1-0.3-0.1-0.5-0.2
	c-0.8,1.6-1.8,3.1-2.4,4.8c-1.1,2.9-3.4,4.4-6.2,5.4c-0.9,0.3-1.8,0.5-3,0.9C335.3,462.3,337.1,456.7,338.6,451z"/>
<path class="st0" d="M195.5,442.2c1.3,10.9,6.6,27.6,9.5,32.8c-1.8-11.4-5.7-21.9-8.5-32.6c2.6-0.9,3.9-0.4,4.8,1.8
	c0.5,1.2,0.9,2.5,1.3,3.8c0.7,2.4,1.8,4.6,3.5,6.4c0.7,0.7,1.3,1.8,2.5,1.5c1.2-0.3,1.1-1.5,1.2-2.4c0.5-4.3,0.7-8.5-0.2-12.8
	c-0.1-0.7-0.3-1.3-0.4-2c0.2,0,0.3-0.1,0.5-0.1c0.2,0.5,0.5,1,0.5,1.6c0.7,5.8,1.6,11.6,2.1,17.4c0.9,10.1,0.4,20.1-0.4,30.1
	c-0.1,0.6-0.3,1.5-0.8,1.8c-3.1,2.2-6.3,4.2-9.5,6.3c-1.5,1-2.8,0.9-4.3-0.1c-2.3-1.6-4.7-2.9-7.1-4.2c-1.6-0.9-2.5-2.3-3.1-4
	c-2.1-6.6-4.3-13.1-6.4-19.7c-0.4-1.2-0.9-2.3-0.5-3.7c0.2-0.7-0.4-1.7-0.4-2.5c0-4.9,0.6-9.8,2.6-14.4c1.1-2.7,3.1-4.4,5.8-5.1
	C190.6,441.5,193,441.5,195.5,442.2z M194.9,486.7c-2,0.5-3.8,1.4-5.3,2.7C191.7,489.1,193.3,488,194.9,486.7z"/>
<path class="st0" d="M336.9,397.1c-0.5-4.3-0.9-8.5-1.3-12.8c-0.6-5.4-1.1-10.8-0.1-16.1c0.8-4.5,1.8-8.9,3-13.3
	c2-7.4,4.2-14.8,6.1-22.2c1.5-5.7,2.7-11.4,4-17.1c0.4-1.9,1-3.8,1.3-5.8c-2.1,4.1-3.2,8.5-4.4,12.9c-0.2,0-0.3,0-0.5,0
	c0-1.2-0.2-2.4-0.1-3.5c0.4-4.2,0.9-8.3,1.2-12.5c0.7-12.8,1-25.6-0.5-38.4c-1-8.1-0.6-16.3-0.7-24.4c0-4.7,0-9.3,0-14
	c0-1.3-0.3-2.7-0.3-4c0-1.2,0.1-2.5,0.4-3.7c0.1-0.4,0.6-1,1.1-1.1c3.5-0.9,6.9-1.5,10.6-1.1c0.1,0.4,0.2,0.6,0.2,0.8
	c-0.7,4.6-1.5,9.2-2.1,13.8c-1.6,14-0.9,28,1.1,41.9c0.5,3.4,0.7,6.8,1,10.2c0.4,4.6-0.3,9-1.6,13.4c-1.9,6.3-3.9,12.5-5.6,18.9
	c-3.4,12.8-5.4,25.9-6,39.1c-0.2,4.2-1,8.3-1.9,12.4c-1.4,6.5-2.1,13.1-2.7,19.7c-0.2,1.7-0.3,3.5-0.4,5.2
	C338.3,396.5,337.9,397.2,336.9,397.1z"/>
<path class="st0" d="M177.5,460.4c-1.4-1.9-2.6-3.6-3.9-5.1c-1-1.3-1.5-2.6-1.1-4.2c0.8-3.6,1.7-7.2,2.6-10.8
	c0.1-0.6,0.3-1.2,0.2-1.8c-2.9,5-5,10.2-4.7,16.1c-2.9-1-3.6-1.9-2.8-4.9c1-4,2.3-7.9,3.4-11.8c0.2-0.5,0.4-1.1,0.3-1.6
	c0-0.3-0.4-0.7-0.9-1.4c0.4-1,0.8-2.4,1.6-3.7c2.7-4.9,5.7-9.7,7.5-15.1c0.6-2,2.5-3,4.4-3.7c3.5-1.4,6.9-1.4,10.3,0.4
	c2.7,1.4,5,3.3,6.9,5.7c0.3,0.4,0.6,0.9,0.8,1.4c2,7.3,4,14.6,6,22c0.3,1.3,0.4,2.7,0.4,4c0.1,2.5,0,5-0.2,7.6
	c-1.3-0.9-2.1-2-2.6-3.4c-1.6-4.6-3.7-8.9-6.6-12.8c-0.1-0.2-0.4-0.2-0.7-0.4c-0.4,1.5,1,2.5,1,3.9c-4.1-1-8.1-0.6-12,0.4
	c-2,0.5-3.6,1.6-4.8,3.3c-2.4,3.4-4,7.2-4.4,11.4C177.9,457.2,177.7,458.7,177.5,460.4z"/>
<path class="st0" d="M260,273.8c1.5-4.4,4.1-8.4,7.3-12.1c4.4-5.2,9-10.2,12.6-16.1c9.2,12.3,12,26,10.1,41.1
	c-6,3.5-12.3,7.2-18.6,10.8c-1.4-4-2.6-8.3-4.5-12.2C264.9,281.4,262.3,277.8,260,273.8z"/>
<path class="st0" d="M294.6,549.8c0.8,3.2,1.5,6.4,2.4,9.6c1,3.9,2,7.8,3.3,11.6c3.4,9.8,5.6,19.8,7.1,30c0.4,2.6,0.7,5.2,1.2,7.7
	c0.6,3.2-0.1,6.3-1.2,9.3c-0.2,0.6-1,1.3-1.6,1.6c-2.8,1.4-5.6,2.9-8.6,4c-5.4,2.1-11,3.4-16.9,3.6c-0.6,0-1.2,0-2.2,0
	c1.2-2.2,2.3-4.1,3.4-6.1c6.7-12.7,10.9-26.1,12.2-40.4c0.8-9.4,0.6-18.8,0.4-28.3c0-0.9,0-1.9,0-2.8
	C294.2,549.8,294.4,549.8,294.6,549.8z"/>
<path class="st0" d="M357.9,196.9c-0.3,2.1-0.5,3.8-0.7,5.5c1.3-1.9,2.1-3.9,2.4-6.1c0.1-0.5-0.1-1.5-0.5-1.6
	c-0.5-0.2-1.5-0.1-1.9,0.2c-1.3,1.1-2.6,2.3-3.7,3.7c-2.7,3.6-5,7.5-6.7,11.7c-0.4,1.1-0.9,2.1-1.7,3.1c-0.2-1.3-0.4-2.6-0.7-3.8
	c-1.1-4.1-2-8.1-3.4-12.1c-1.5-4.5-4.3-8.2-7.8-11.5c-1.6-1.5-3.1-3.2-4.1-5.5c2.3-1.5,4.5-3,6.9-4.6c0.2,0.1,0.4,0.1,0.6,0.2
	c3.9,3.5,8.7,5.5,13.4,7.5c3.4,1.5,6.9,2.8,10.3,4.2c4.2,1.7,6.9,4.6,8.3,8.9c0.5,1.5,0.8,3.1,1.2,4.6c1.1,4.5,2.1,8.9,3.2,13.6
	c-5.5,1.6-11,3.5-16.9,3c-3.1-0.2-6.2,0-9.1,1.2c-0.3,0.1-0.6,0.2-0.9,0.2c-0.1,0-0.3-0.1-0.4-0.1
	C345,215.5,353.5,200.3,357.9,196.9z"/>
<path class="st0" d="M224.6,310.2c0.4,0.9,0.8,1.9,1.3,2.7c5.1,9.2,12.9,15.3,22.7,18.3c11.3,3.5,22.9,3.7,34.5,0.6
	c5-1.3,9.4-3.7,13.4-6.9c14.7-12.1,23.6-27.8,27.2-46.3c1.5-7.6,1.4-15.3,1.2-23c-0.1-5.6-0.5-11.2-1-16.8c-0.2-2.2-1.1-4.5-1.8-6.6
	c-0.3-0.9-0.8-1.9-1.5-2.4c-1.4-0.9-1.5-2.2-1.7-3.7c-0.5-4.1-1.2-8.1-1.8-12.3c0.3,0.5,0.7,1,1,1.5c4.3,8,8,16.3,9.8,25.4
	c2,10.1,2.3,20.1,0.3,30.2c-1.9,9.6-3.9,19.1-7.6,28.2c-3,7.5-6.8,14.5-12,20.6c-8.5,9.9-19.2,16.1-31.8,19.1
	c-2.7,0.6-5.4,1.2-8.2,1.3c-7.6,0.2-15-0.6-22-3.8c-4.1-1.9-8.1-4-12-6.2c-3.6-2.1-6.6-4.9-8.9-8.4c-1.6-2.5-2.6-5.2-2-8.3
	c0.2-1,0.2-2,0.3-3.1C224.3,310.2,224.4,310.2,224.6,310.2z"/>
<path class="st0" d="M292.9,145.2c0.2,0,0.6-0.1,0.8-0.1c3.2,0.7,6.3-0.2,9.3-1c2.6-0.7,4.3-2.4,5-4.9c0.9-3,1.7-6.1,2.4-9.2
	c0.3-1.4,1-1.6,2.3-1.4c0.2,0.7,0.5,1.5,0.7,2.2c0.2,0.8,0.4,1.5,0.7,2.3c2,5.9,4.3,7.5,10.6,7.3c1.6,0,3.1-0.3,4.8-0.4
	c0.2,1.9-0.3,3.8-0.8,5.5c-1.1,3.2-2.4,6.4-3.7,9.5c-0.9,2.2-2.1,4.3-3,6.5c-1.1,2.8-3,5-5.1,7.1c-0.8,0.8-2,1.3-3.1,1.6
	c-2.3,0.7-4.7,0.6-7-0.1c-2.7-0.8-5.5-1.6-8-2.9c-2.3-1.3-4.5-3.1-4.8-6.1c-0.6-5.1-1-10.2-1.4-15.3
	C292.7,145.6,292.8,145.5,292.9,145.2z M320.1,155.2c-4.7,0.7-9.3,1.3-14,2C311,157.6,315.7,157.2,320.1,155.2z M316,161.3
	c-0.7,0.1-1.4,0.2-2.6,0.3C314.7,162.9,315.4,162.5,316,161.3z M317.4,146.2c-0.1-0.2-0.2-0.4-0.3-0.6c-0.5,0.5-1.5,0.1-1.8,1.5
	C316.1,146.7,316.7,146.5,317.4,146.2z"/>
<path class="st0" d="M337.7,746.2c-2.5,2.1-3.9,5.6-7.5,6.8c-1-1.5-2.1-2.9-3.1-4.4c-3.8-5.7-8.7-10.2-14.7-13.5
	c-1.2-0.7-1.6-1.5-0.9-3c0.7-1.4,1.6-2.7,2.4-4.1c2.8-4.7,5.5-9.4,7.3-14.6c0.4-1.2,1.1-1.8,2.3-2.1c4.6-0.9,9.2-1.3,13.8,0.1
	c4.4,1.4,8.5,3.4,12.1,6.3c1.3,1.1,2.7,2.1,4.1,3.1c-2,3.1-3.9,6.2-6,9.4c-1.8-1.2-3.4-2.2-5.1-3.3c-3.1-2.1-6.3-1.5-8.6,1.4
	c-1.2,1.5-2.2,3.1-3.1,4.7c-0.8,1.4-0.8,2.9,0.1,4.3c1.5,2.2,2.8,4.6,5.3,6C337.3,744,337.7,744.9,337.7,746.2z"/>
<path class="st0" d="M317.5,349.1c2.9,1.1,5.2,2.7,7,4.9c0.4,0.5,0.5,1.5,0.5,2.2c-1.2,12-0.8,24.1-0.8,36.1
	c0,6.6,0.2,13.2-0.1,19.7c-0.4,9-1.6,17.8-4.6,26.3c-5.8,16.9-11.5,33.9-17,50.9c-3.2,9.8-5.9,19.7-7.6,29.9
	c-0.8,4.9-1,9.9-1.4,14.9c-0.1,0.8-0.1,1.7-0.5,2.6c-0.2-0.4-0.4-0.7-0.5-1.1c-1.3-4.2-2.6-8.5-3.9-12.7c-0.4-1.3-0.2-2.4,0-3.7
	c2-10,6.5-19,10.7-28.1c7.3-15.6,11.8-32,14.7-49c2.2-13.2,3.1-26.6,3.9-39.9c0.7-11.5,1.2-22.9,0.7-34.4
	c-0.2-5.7-0.7-11.4-1.1-17.1C317.4,350.2,317.5,349.7,317.5,349.1z"/>
<path class="st0" d="M263,746.6c0.7,1.9,1.4,3.4,1.9,5c1.1,3.3,2.5,6.5,2.5,10.1c0,0.6,0,1.4-0.3,1.7c-1.4,1.7-2.7,3.7-4.5,4.8
	c-6.4,4-13.4,6.8-21.1,7.3c-1.9,0.1-4-0.1-5.9-0.6c-4-1.1-8-2.4-11.7-4.6c-1.1-0.7-1.7-1.4-1.6-2.8c0.4-3.1,0.6-6.1,0.8-9.2
	c0.2-2.6,1.7-4,3.9-4.8c1.4-0.5,2.8-1,4.3-1.4c0.7-0.2,1.6-0.1,2.2,0.3c1.9,1.3,3.9,2.5,5.5,4.1c2.7,2.6,5.4,2.8,8.7,1.3
	c4.4-2,8.1-4.9,11.7-8.1C260.6,748.8,261.7,747.9,263,746.6z"/>
<path class="st0" d="M286,755.8c1.2,0.5,2.1,1.1,3.2,1.2c3.2,0.5,6.4,1,9.4,2.4c1.3,0.6,2.3,0.2,3.3-0.6c2.4-2.1,4.9-4.2,7.2-6.5
	c3.2-3.2,6.3-6.5,9.6-9.9c4.3,3.5,6.7,8.5,10,12.9c-2.3,2.7-4.7,5.2-7.5,7.4c-2.4,1.8-4.9,3.5-7.3,5.3c-4.5,3.3-9.7,5-15.2,5.5
	c-4.6,0.4-9.3,0.3-14,0.6c-2.5,0.2-3.9-1-5.2-3c-2.8-4.3-1.3-8.2,1.6-10.9C282.7,758.7,284.4,757.2,286,755.8z"/>
<path class="st0" d="M216.9,235.1c-0.3,5.4-0.4,10.8-1.1,16c-0.9,6.9-2.3,13.7-3.5,20.6c-2,11.6-4,23.3-6.1,34.9
	c-2.9,15.5-6.6,30.8-11.9,45.7c-2.5,7.1-4.1,14.5-5.7,21.8c-1.2,5.6-2.7,11.2-3.9,16.9c-1,4.2-1.8,8.5-2.7,12.8
	c-0.2,0.8-0.4,1.7-0.5,2.3c-2.4,1-4.6,2-7.1,3.1c0.2-0.9,0.2-1.9,0.5-2.8c2-6.3,4.1-12.6,6-19c3.2-10.9,6.2-21.9,9.4-32.9
	c5.1-17.6,9.6-35.3,12.7-53.4c2.6-14.9,4.7-29.9,7-44.8c0.9-5.9,1.9-11.7,2.8-17.6c0.1-0.4,0.2-0.8,0.3-1.2
	C213.7,234.9,213.8,234.8,216.9,235.1z"/>
<path class="st0" d="M322,436.7c-0.3,1.9-0.6,3.9-1,5.8c-0.8,4-1.7,8.1-2.3,12.1c-0.3,2.2-0.2,4.4-0.4,6.6
	c-1.3,15.3-4.2,30.2-9.3,44.7c-2.8,7.8-5.4,15.7-8.1,23.6c-1.9,5.4-3,11-3.6,16.7c-0.1,0.8-0.3,1.6-0.7,2.5
	c-0.8-2.9-2.3-5.4-1.9-8.6c0.5-3.7,0.2-7.6,0.4-11.4c0.4-8.7,2.5-17.1,4.7-25.4c3-11.4,6.7-22.6,10.6-33.7
	c3.6-10.1,6.7-20.3,10.1-30.4c0.3-0.9,0.6-1.7,1-2.6C321.7,436.6,321.9,436.6,322,436.7z"/>
<path class="st0" d="M304.9,120.6c0.2-0.3,0.5-0.6,0.7-0.9c-2.6-1.5-7.1-1.2-12.9,1c0-0.6-0.1-1.1,0-1.6c0.4-1.8,0.7-3.6,1.3-5.3
	c0.3-1,0.9-2,1.7-2.7c5-4.9,10-9.6,15.1-14.5c1-0.9,1.9-1.9,2.7-3c0.7-0.8,1.5-1.1,2.4-1.3c1.3-0.2,2.1,0.1,2.9,1.3
	c1.4,1.9,2.9,3.8,4.7,5.2c2.5,2.1,5.4,3.8,8.5,6c-0.2,3.1-0.4,6.8-0.7,10.6c-1.9,0.4-3.7,0.7-5.4,1.1c-4.1,0.8-7.8,2.5-11,5.3
	c-0.6,0.5-1.2,1-1.9,1.4c-1.4,0.7-2.6,1.1-4.1-0.3C307.9,121.9,306.3,121.4,304.9,120.6z M314.3,119c2,0.2,6.9-2,9.6-4.2
	C320.3,115.4,317.1,116.3,314.3,119z"/>
<path class="st0" d="M336.3,118.1c-1.4,1.4-1.6,3.1-1.6,4.9c0.1,1.7,0.1,3.3,0,5c-0.1,1.3-0.2,2.7-0.6,4c-1.4,4.6-3.9,6.4-8.7,6.5
	c-1.6,0-3.3-0.2-4.9-0.4c-1.5-0.2-2.6-1.1-3.2-2.5c-0.8-1.9-1.6-3.8-2.3-5.7c-1.1-2.8-1.5-3-4.9-2.4c-0.9,2.6-2,5.4-2.7,8.2
	c-1,4.1-3,6.7-7.5,7.4c-2.4,0.4-4.8,1-7.5,0.1c-0.3-3.7-0.8-7.4-1-11.2c-0.1-2.8,0.3-5.7,0.4-8.5c0.1-1.1,0.6-1.6,1.7-2
	c2.6-0.9,5.3-1.1,7.9-0.2c2.2,0.8,4.4,1.8,6.4,3c2.4,1.5,5.2,1.6,7.4-0.1c0.4-0.3,0.7-0.6,1.1-0.9c5.2-4.4,11.3-5.7,17.9-5.7
	c0.4,0,0.8,0.1,1.2,0.1C335.8,117.8,335.9,117.9,336.3,118.1z"/>
<path class="st0" d="M300.9,738c-0.2-0.3-0.2-0.4-0.2-0.4c0.4-9.4-1.1-18.6-1.8-27.9c-0.2-2.7-0.3-5.4-0.4-8.1
	c0-0.9,0.2-1.9,0.3-2.9c5.4-2.9,11.1-3,16.8-1.6c3.4,0.8,5,3.7,6.5,6.5c0.2,0.3,0,0.9-0.1,1.3c-2.7,6.9-5.5,13.8-8.1,20.8
	c-1.1,2.9-2.7,5.5-4.6,8c-2.5,3.5-2.5,3.6-6.7,4.2C302.1,737.9,301.5,738,300.9,738z"/>
<path class="st0" d="M209,435.8c-0.3-0.5-0.9-0.9-1-1.4c-1.5-4.7-3-9.4-4.5-14.2c1.2-0.5,2.1-0.9,3-1.3c0.9-0.4,1.2-1,1-2.1
	c-0.6-4.2-2-7.8-5.6-10.3c-0.9-0.6-0.8-1.4-0.9-2.3c-0.4-7,0.2-13.9,1.8-20.8c3.1-12.9,6.2-25.7,9.4-38.5c3.9-15.4,6.5-31,8.4-46.7
	c0.4-3.5,1-7,1.8-10.5c0.1,0.8,0.1,1.6,0.2,2.5c0.7,19.7-1.3,39.1-6.5,58.1c-1,3.7-2.1,7.5-1.8,11.4c0,0.4-0.1,1-0.3,1.4
	c-3,6.5-4,13.5-4.6,20.5c-0.7,7.8-1.4,15.6-1.4,23.5c0,8.5,0.7,17.1,1.1,25.6c0.1,1.7,0.2,3.3,0.3,5
	C209.4,435.7,209.2,435.8,209,435.8z"/>
<path class="st0" d="M247.8,739.8c2.4-3.1,3.5-6.5,4.6-9.9c0.8-2.4,1.7-4.8,2.7-7.1c2-4.6,4.1-9.1,6.2-13.6c0.3-0.6,0.6-1.5,1.1-1.7
	c3-1.5,6.2-2.9,9.7-2c1.7,0.4,2.8,1.4,3.1,3.1c0.7,3.6,0.6,7.2-0.2,10.8c-0.1,0.5-0.5,1-0.8,1.4c-0.3,0.5-0.6,0.9-0.7,1.5
	c-1.1,5.9-4.2,10.5-8.9,14.1c-1.4,1.1-2.8,2.1-3.2,4c-0.1,0.4-0.7,0.9-1.1,1.1c-1.7,0.7-3.4,1.4-5.1,2c-1.2,0.5-2.3,0.3-3.4-0.5
	C250.6,742,249.3,741,247.8,739.8z"/>
<path class="st0" d="M268,626.5c16.8-28.5,22.6-59.2,21.8-91.3c0.2,0,0.4,0,0.4,0.1c1.5,4.7,3.2,9.4,2.9,14.5
	c-0.4,6.8-0.3,13.6-0.3,20.4c0,14.3-2.8,28.1-7.9,41.5c-2,5.2-5.1,9.8-7.8,14.6c-0.4,0.7-0.9,1-1.7,0.9c-1.2-0.2-2.3-0.4-3.5-0.5
	C270.7,626.7,269.6,626.6,268,626.5z"/>
<path class="st0" d="M271.4,101.9c4.9-4.5,10.2-8.4,16.4-11.1c5.8-2.5,11.8-4.1,17.9-5.3c8.1-1.7,16.2-3.7,24.5-4.4
	c2.5-0.2,5-0.5,7.6-0.6c1.8,0,3.7,0.1,5.4,0.4c1.1,0.2,2.3,0.8,3.1,1.6c2.4,2.1,2.3,3.4-0.4,5.1c-1.1,0.7-2.3,1.4-3.5,2.1
	c-3,1.7-6.2,3.1-8.6,5.9c-4-4.8-9.1-6-14.8-5.6c-12.7,0.9-25.1,3.5-37,8.1c-3.2,1.2-6.3,2.6-9.4,3.9c-0.3,0.1-0.7,0.2-1.1,0.3
	C271.5,102.2,271.4,102.1,271.4,101.9z"/>
<path class="st0" d="M276.1,723.7c2.9,1.2,4.7,3.2,6.7,4.9c3.7,3.3,5.7,7.7,8.3,11.8c0.7,1.1,0.6,2.4-0.2,3
	c-1.9,1.5-3.1,3.8-5.6,4.6c-0.1,0-0.3,0.1-0.6,0.1c-0.4-0.6-0.8-1.3-1.2-1.9c-1.1-1.6-2.5-2.9-4.5-3.1c-3.7-0.4-6.3,2.6-5.3,6.2
	c0.4,1.3,1.2,2.6,1.8,3.8c0.2,0.4,0.5,0.8,0.8,1.2c-0.4,0.4-0.7,0.7-1.1,1c-1.8,1.6-3.6,3.2-5.6,5c-0.9-3.2-1.6-6.1-2.5-9
	c-0.9-2.8-2.1-5.6-3.2-8.5c0.7-0.8,1.3-1.5,2.1-2.4c-0.8-0.3-1.3-0.5-2.2-0.9C270,735.8,273.7,730.4,276.1,723.7z"/>
<path class="st0" d="M342.8,237.3c0,2.8,0.1,5.5,0,8.3c-0.3,8.8,0.2,17.5,0.9,26.3c0.7,9.2,1.1,18.5,1,27.7
	c-0.1,9.2-0.9,18.3-1.3,27.5c-0.2,4.2-1.3,8.3-2.5,12.3c-0.7,2.2-1.3,4.5-2.4,6.7c0-0.6-0.1-1.2-0.1-1.8c-0.2-6.8-0.4-13.6-0.5-20.4
	c0-2.8,0.2-5.7,0.2-8.5c0.3-8.6,0.4-17.2,0.8-25.9c0.5-10.4,1.2-20.7,1.8-31c0.3-4.6,0.4-9.2,0.8-13.7c0.2-2.5,0.6-5,1-7.4
	C342.6,237.2,342.7,237.3,342.8,237.3z"/>
<path class="st0" d="M223.2,321.3c3.9,7.1,10.3,10.8,17,14.2c2.9,1.5,5.9,2.6,8.9,3.9c0.6,0.2,1.1,0.5,1.6,1
	c-2.2,0.3-4.4,0.5-6.5,0.8c-10.7,1.3-19.2,6.4-26,14.6c-0.5,0.6-1.1,1.3-2.1,1.8c0.1-0.8,0.1-1.6,0.3-2.4c1-4.4,2.2-8.7,3.1-13.2
	c1.2-6,2.2-12,3.3-18C222.9,323.2,223.1,322.3,223.2,321.3z"/>
<path class="st0" d="M360.6,714.8c0.6,1,1,2,1.6,3c1.3,2.1,2.5,4.2,3.9,6.2c0.8,1.1,1,2.1,0.3,3.2c-1.3,2.1-2.6,4.3-4.1,6.4
	c-2.8,3.8-5.5,7.8-9.1,10.9c-1.3,1.1-2.6,2.2-4,2.9c-4.6,2.3-9.4,4.5-14.2,6.8c-0.3-1.3,0.3-2,1-2.6c1.3-1.3,2.7-2.5,3.8-3.9
	c1-1.3,1.8-2.7,2.7-4.1c1.4-2.4,2.9-4.7,4.3-7.1c3.1-5.4,6.5-10.7,10.4-15.5C358.5,719.1,359.4,716.9,360.6,714.8z"/>
<path class="st0" d="M297.9,719.6c0.3,6.4,0.7,12.8,1,19.1c0,0.3,0.2,0.6,0.3,0.8c1.1-0.1,2.2-0.1,3.2-0.2c1.3,0,2.5-0.1,3.8,0
	c1.8,0.1,2.8-0.7,3.5-2.3c0.1-0.4,0.4-0.7,0.6-1.2c2.7,1.3,4.7,3.5,7.3,5.4c-0.7,1-1.2,2-1.9,2.7c-4.6,4.1-9.4,8-14,12.1
	c-1.4,1.2-2.5,1.2-4.2,0.7c-2.5-0.9-5.2-1.2-7.8-1.8c-0.8-0.2-1.7-0.3-2.8-0.5c0.5-0.8,1-1.4,1.4-2.1c1.9-3.5,4.2-6.8,5.5-10.5
	c1.5-4.2,2.4-8.7,2.6-13.2c0.1-2.3,0.6-4.5,0.9-6.8c0.1-0.8,0-1.6,0-2.4C297.5,719.6,297.7,719.6,297.9,719.6z"/>
<path class="st0" d="M269.1,224.1c0.4,0.7,0.7,1.1,0.9,1.6c2.8,5.5,5.5,11,8.3,16.5c1.2,2.4,1.3,2.4-0.5,4.5
	c-3.9,4.5-7.8,9-11.7,13.4c-2.7,3-5.1,6.2-7,10.4c-0.3-1.6-0.2-2.6-0.1-3.6c0.8-9.2,2.6-18.1,5.2-27c1.4-4.7,2.8-9.4,4.2-14.1
	C268.5,225.3,268.7,224.8,269.1,224.1z"/>
<path class="st0" d="M335.5,397.9c-0.6,0.4-1.3,0.7-1.8,1.1c-1.4,1.2-2.9,2.4-4.1,3.8c-2.1,2.5-2.2,5.3-0.7,8.2
	c0.2,0.4,0.5,0.8,0.7,1.2c-0.8,1.9-1.5,3.7-2.2,5.5c-0.4,1.1-0.8,2.2,0.6,2.8c-1.3,2.6-2.6,4.9-3.8,7.3c-0.1,0-0.3-0.1-0.4-0.1
	c0.1-0.8,0.2-1.6,0.3-2.3c1.6-7.5,2-15,2-22.7c0-8.9-0.2-17.9-0.3-26.8c0-6.1,0-12.2,0-18.3c0-0.4,0.1-0.9,0.2-1.6
	c3.4,3.1,4.3,7.8,8.4,10C332.4,376.7,333.5,387.3,335.5,397.9z"/>
<path class="st0" d="M336.8,121.5c1,3.6,2.2,7.2,2.9,10.9c1.3,6.4,0.1,12.7-1.6,19c-1.7,6.2-4.8,11.7-8.3,17c-0.3,0.4-0.6,0.8-1,1
	c-2.4,1-4.8,1.9-7.4,2.8c-0.9-1.2-1.6-2.3-2.4-3.5c4.3-4.9,6-11,9-16.5c2-3.6,3.1-7.6,3.3-11.8c0-0.6,0.4-1.4,0.8-1.8
	c2.8-2.5,3.8-5.8,4.1-9.3c0.2-1.9,0-3.8,0-5.7c0-0.7,0-1.4,0-2.1C336.4,121.4,336.6,121.4,336.8,121.5z"/>
<path class="st0" d="M319.2,231.5c1.9,2.2,2.6,4.8,2.8,7.5c0.5,6.2,0.7,12.5,1.1,18.7c0.1,1.2-0.5,2.1-1.3,2.9
	c-3.2,3.1-6.2,6.3-9.6,9.2c-5.5,4.6-11.1,8.9-16.7,13.3c-0.8,0.6-1.6,1.1-2.5,1.6c-0.1-0.1-0.2-0.3-0.4-0.4c1-1.3,2-2.6,2.9-3.9
	c3.2-4.3,6.6-8.5,9.7-12.9c2.5-3.6,4.6-7.4,6.8-11.2c3.7-6.5,5.7-13.5,6.7-20.9C318.9,234.2,319,232.9,319.2,231.5z"/>
<path class="st0" d="M339.3,688c1.6-0.1,2.3,0.7,3,1.6c0.8,1,1.4,2.1,2.1,3.1c4.2,5.8,8.3,11.5,12.5,17.3c0.8,1,1.1,2,0.9,3.3
	c-0.3,2.5-1.2,4.5-3,6.2c-3.9-4.6-8.9-7.6-14.6-9.6c-5.7-2-11.6-2-17.9,0.1c1.1-2.4,1.9-4.3,2.8-6.4c1.2,0.2,2.3,0.3,3.5,0.4
	c2.2,0.2,4.2-0.1,6.3-0.9c5.2-1.8,7.3-7.6,5.6-12.2C340.2,690.1,339.8,689.2,339.3,688z"/>
<path class="st0" d="M221.3,771.5c3.1,1.3,6.1,2.5,9,3.9c6.6,3,13.2,2.8,19.9,0.8c4.3-1.3,8.5-3.1,12.4-5.3c2.7-1.5,4.6-3.6,6.2-6.1
	c1.7-2.6,4-4.7,6.7-7.1c-0.3,4.6-1.2,8.3-4.1,11.4c-0.8,0.8-1.6,1.5-2.5,2.2c-6.7,4.8-14,8.4-21.7,11.2c-5.8,2.1-11.7,1.6-17.5-0.4
	c-2.4-0.8-4.6-2.1-6.9-3.1c-1.1-0.5-1.7-1.4-1.7-2.6C221.3,774.7,221.3,773.1,221.3,771.5z"/>
<path class="st0" d="M330,416.9c0.7-2.8,2-5.2,3.5-7.4c0.3-0.5,1.2-0.8,1.9-0.9c4-0.8,8-1.1,12-0.4c3.1,0.6,5.8,2,8.2,4
	c1.2,1,2.5,1.9,3.8,2.8c-0.8,3.7-1.7,7.5-2.6,11.5c-0.4-0.3-0.8-0.6-1.2-0.9c-6-4.3-12.3-7.7-19.7-8.7
	C334,416.7,332.1,416.9,330,416.9z"/>
<path class="st0" d="M176.8,462.6c0.5,1,0.8,1.4,0.9,1.9c0.9,2.9,1.9,5.9,2.6,8.9c0.9,3.4,1.7,6.9,2.3,10.4
	c1.5,8.7,2.9,17.5,4.3,26.2c0.5,3.3-2,5.9-5.3,5.2c-1.7-0.4-2.1-0.7-2.3-2.5c-0.3-3.2-0.5-6.5-0.8-9.7c-0.6-8.5-1.2-17-1.7-25.6
	C176.6,472.7,176.8,467.9,176.8,462.6z"/>
<path class="st0" d="M296.9,710.8c-2.5-18-5-36-7.5-54c3.9,5.7,6.3,12,9,18.2c2.7,6.2,5.2,12.6,7.8,18.9c-2.1,0.9-4.1,1.9-6.3,2.6
	c-1.9,0.6-2.7,1.9-2.9,3.7c-0.2,2.3-0.2,4.6-0.3,6.9c0,1.3,0,2.5,0,3.8C296.8,710.8,296.8,710.8,296.9,710.8z"/>
<path class="st0" d="M301.4,179.5c8.7-0.8,16.5-3.5,24.1-6.9c2.7-1.2,4.7-1.5,6.9,0.6c0.6,0.6,1.4,0.9,2.2,1.4
	c-3.3,3.4-24.5,12.3-29.4,12.2C304,184.4,302.7,182,301.4,179.5z"/>
<path class="st0" d="M280,775.7c7.5,1.1,14.8,0.8,22-0.2c5-0.7,9.5-2.8,13.6-5.7c2.8-2,5.6-4,8.8-6.3c-0.3,0.8-0.4,1.3-0.7,1.7
	c-1.7,2.6-3.3,5.2-5.2,7.7c-3.1,4-7.3,6.2-12.4,6.5c-7.3,0.5-14.7,1-22,1.4c-3.4,0.2-3.5,0-4-3.4C280.1,776.8,280,776.3,280,775.7z"
	/>
<path class="st0" d="M371.9,328c-0.1,7.6,1.4,14.7,0.1,21.9c-0.6,3.6-1.7,7.1-2.6,10.6c-0.9,3.3-2,6.5-3.4,9.7
	c-0.1-0.5-0.2-1-0.2-1.4c-0.4-3.5-0.6-7.1-1.1-10.6c-0.9-6-0.2-11.7,2.2-17.2c1.7-4,3.6-7.9,4.4-12.2
	C371.3,328.6,371.5,328.5,371.9,328z"/>
<path class="st0" d="M247.1,741c1,1.1,1.9,2,2.8,2.9c2,1.9,4.3,2.6,6.9,1.5c1.6-0.6,3.2-1.2,5.1-2c-0.3,0.7-0.3,1-0.5,1.2
	c-4,3.8-8.1,7.5-13.1,10.1c-4.4,2.2-4.6,2.2-8.5-0.6c-1.6-1.1-3.3-2.2-5.1-3.4c2.1-1.4,4.4-2.8,6.5-4.4
	C243.3,744.8,245.1,742.9,247.1,741z"/>
<path class="st0" d="M280,68.3c-1.5-0.3-3-0.4-4.4-0.9c-1-0.3-2-1-2.6-1.8c-1.3-1.6-1-2.7,0.7-3.9c4.5-2.8,9.4-4.8,14.6-6
	c2-0.5,4.1,1.6,3.6,3.6c-0.2,0.9-0.5,1.9-1.1,2.6C288.2,65.7,284.9,68.3,280,68.3z"/>
<path class="st0" d="M287.2,341.6c5.8-0.3,11.5,0,17.3,0.9c6.3,1,12.6,2.1,18.9,3.3c2.5,0.5,4.9,1.3,7.3,2.2
	c4.5,1.8,6.1,4.5,5.4,9.3c-0.3,2-0.7,3.9-1.1,5.9c-1.1-0.2-1.5-1-2-1.6c-1-1.4-1.9-2.7-2.8-4.1c-4.1-6.8-10.4-10.8-17.9-12.6
	c-3.8-0.9-7.6-1.4-11.5-1.8c-3.5-0.4-7.1-0.4-10.7-0.5c-1,0-2-0.1-3-0.2C287.2,342,287.2,341.8,287.2,341.6z"/>
<path class="st0" d="M347.2,731.5c-2.8,4.6-5.3,8.9-7.8,13.1c-0.5-0.2-0.7-0.2-0.7-0.2c-1.8-2.5-3.7-4.9-5.5-7.4
	c-0.8-1-0.9-2.2-0.4-3.4c0.3-0.7,0.7-1.3,0.9-1.9c0.8-2.6,3-3.2,5.3-3.7c0.4-0.1,0.8,0,1.2,0.1C342.3,729.1,344.6,730.2,347.2,731.5
	z"/>
<path class="st0" d="M160.3,487.7c-1.5-1.3-2.7-2.9-3.8-4.6c-0.6-1-0.1-1.8,0.4-2.7c1.1-1.8,2.3-3.6,3.5-5.4
	c3.5-5.2,7.1-10.5,10.6-15.7c0.2-0.3,0.4-0.7,0.5-1c0.2,0.1,0.4,0.2,0.6,0.4c0,0.4,0.1,0.8,0,1.1c-1.9,4.5-3.8,9-5.7,13.6
	C164.4,478,162.4,482.7,160.3,487.7z"/>
<path class="st0" d="M319.3,173c-6.4,1.6-12,4.8-18.7,4.9c-1.9-3.6-3.8-7.1-5.2-11.5c3.2,2.7,6.7,3.5,10.1,4.5
	c4.2,1.2,8.4,1.5,12.4-1.5C318.4,170.7,318.8,171.7,319.3,173z"/>
<path class="st0" d="M292.7,737.7c-3.9-6.6-8.4-12.4-15.7-15.3c-0.2-1.1,0.2-1.8,1.1-2.2c1.3-0.6,2.6-0.8,3.9,0
	c1,0.6,1.8,1.3,2.7,1.9c0.6,0.5,1.3,1,1.8,1.5c2.5,2.3,5.2,3,8.5,0.7C294.9,729,294.2,733.3,292.7,737.7z"/>
<path class="st0" d="M224.2,234c-3.3-1.6-6.3-1-9.6-0.4c3.2-7,6.3-13.7,9.6-20.8C224.3,220,225.1,226.8,224.2,234z"/>
<path class="st0" d="M179.5,413.2c-1.4-0.8-2.7-1.6-4.4-2.6c1.1-0.6,1.8-1.3,2.7-1.6c2.1-0.6,4.3-1.1,6.5-1.4c2.7-0.4,5.3-0.6,8-0.9
	c1.3-0.1,2.7-0.1,4,0c3.9,0.3,4.2,0.6,4.6,4.5c0.1,1.3,0.3,2.6,0.4,4C194.4,408.7,187.2,407.2,179.5,413.2z"/>
<path class="st0" d="M330.9,410.6c-1.4-2.6-1.3-4.8,0.3-6.9c0.7-0.9,1.5-1.9,2.5-2.5c3-2,6.2-3.8,9.5-5.8c-1,3.3-2.5,6.4-1.4,9.9
	c-2.1,0.5-4.1,1-6.2,1.5C333.5,407.3,332.3,409,330.9,410.6z"/>
<path class="st0" d="M319.2,92.3c3.9-0.4,7.2,0,10.2,2c3,2.1,4.6,4.4,2.5,8.8C327.8,99.4,322.6,97.3,319.2,92.3z"/>
<path class="st0" d="M276.9,753.9c-0.6-2-1.2-3.5-1.4-5.1c-0.3-2.8,1.3-3.7,4-3.2c2.4,0.4,3.2,2,3.7,4.1
	C281.2,750.9,279.3,752.3,276.9,753.9z"/>
<path class="st0" d="M278.2,759.6c0.1-1.2,0.1-2.3,0.2-3.5c0.1-0.5,0.5-1,0.9-1.3c1-0.8,2.1-1.4,3.1-2.2c2.1-1.5,4.1-3.1,6-4.6
	C287.9,750.8,282.7,756.9,278.2,759.6z"/>
<path class="st0" d="M363.7,411.6c-1.2,0.8-2.3,1.5-3.5,2.2c-1-1-1.3-1.9-0.6-3.2c0.7-1.5,1.1-3.2,1.6-4.8
	C362.5,407,363.2,408.6,363.7,411.6z"/>
<path class="st0" d="M201.6,408.9c2.8,1.9,3.6,4.8,4.1,8c-0.5,0.3-1,0.6-1.7,0.9C203.1,414.7,202.3,411.8,201.6,408.9z"/>
<path class="st0" d="M334.4,115.5c-0.8,0-1.2,0-1.7,0c0-0.7,0.1-1.4,0.1-2c0.1,0,0.3-0.1,0.4-0.1C333.5,114,333.9,114.6,334.4,115.5
	z"/>
<path class="st0" d="M258.1,272.2c-0.4-0.5-0.8-0.9-1.3-1.4C258.5,271,258.5,271,258.1,272.2z"/>
<path d="M194.9,486.7c-1.6,1.3-3.3,2.4-5.3,2.7C191.1,488.1,192.9,487.2,194.9,486.7z"/>
<path d="M320.1,155.2c-4.4,2.1-9.1,2.4-14,2C310.8,156.5,315.4,155.8,320.1,155.2z"/>
<path d="M316,161.3c-0.6,1.1-1.3,1.5-2.6,0.3C314.5,161.5,315.3,161.4,316,161.3z"/>
<path d="M317.4,146.2c-0.7,0.3-1.3,0.5-2.2,0.9c0.3-1.4,1.3-1,1.8-1.5C317.2,145.8,317.3,146,317.4,146.2z"/>
<path d="M314.3,119c2.7-2.7,5.9-3.6,9.6-4.2C321.3,117,316.3,119.2,314.3,119z"/>
</svg>
