<?xml version="1.0" encoding="utf-8"?>
<!-- Generator: Adobe Illustrator 19.0.0, SVG Export Plug-In . SVG Version: 6.00 Build 0)  -->
<svg version="1.1" id="图层_1" xmlns="http://www.w3.org/2000/svg" xmlns:xlink="http://www.w3.org/1999/xlink" x="0px" y="0px"
	 viewBox="0 0 595.3 841.9" style="enable-background:new 0 0 595.3 841.9;" xml:space="preserve">
<style type="text/css">
	.st0{fill:#FFFFFF;}
</style>
<path class="st0" d="M595.8,842.6c-198.4,0-396.8,0-595.2,0c0-280.6,0-561.3,0-841.9c198.4,0,396.8,0,595.2,0
	C595.8,281.3,595.8,562,595.8,842.6z M318.6,166L318.6,166c1.3-1.7,2.8-3.3,3.9-5.1c2-3.6,3.9-7.4,5.7-11.1c1.9-3.9,3.3-8,3.4-12.4
	c0-0.5,0.4-1.2,0.8-1.6c3-2.7,4.1-6.3,4.2-10.1c0.1-2.1-0.1-4.2-0.2-6.2c0-1.1-0.1-2,1.3-2.5c0.9-0.3,1.5-1.2,1.3-2.3
	c-0.1-1.1-0.8-1.9-1.8-1.9c-1.4-0.1-1.6-1-1.9-2c-1.2-3.6-1.7-7.2-1.1-11.1c0.6-3.8,2.3-6.5,5.3-8.6c1.1-0.8,2.4-1.3,3.5-2
	c2-1.2,4.1-2.3,5.9-3.6c2.2-1.6,2.6-3.5,1.2-5.9c-1.5-2.6-3.8-4-6.7-4.5c-3.8-0.6-7.7-0.2-11.5,0.2c-5.2,0.6-10.5,1.3-15.6,2.3
	c-7.7,1.6-15.3,3.3-22.9,5.3c-6.4,1.7-12.3,4.5-17.4,8.8c-2.9,2.5-5.8,5.1-8.6,7.6c-1.1,1-2.1,2.3-3.3,3c-2.1,1.3-3.9,2.8-5.3,4.8
	c-0.3,0.4-0.5,0.9-0.8,1.4c-1.8-3.5-3-6.6-4.3-9.7c-2.5-5.8-2.4-11.5,0.5-17.1c3.7-7.3,8.5-13.9,14.4-19.6c0.5-0.5,1.1-0.9,1.7-1.4
	c0.2,0.3,0.4,0.5,0.5,0.7c0.8,3.2,3.1,4.5,6,5.1c5.7,1.1,10.6-0.5,14.6-4.7c3.1-3.3,3.6-6.5,1.6-10.4c0.1-0.1,0.2-0.2,0.4-0.2
	c8.3-0.9,16,0.5,22.6,5.8c2.4,1.9,4.7,3.9,6.7,6.1c2.9,3.1,5.5,6.5,8.2,9.7c0.5,0.6,0.8,1.5,2.2,1.7c-0.4-0.9-0.6-1.6-0.9-2.2
	c-4.2-7.5-10-13.7-17.1-18.6c-3.4-2.3-7.1-3.8-11.2-4.6c-6.8-1.2-13.4-0.2-19.9,1.8c-5.2,1.6-10.1,3.7-14.3,7.1
	c-7.7,6.5-13.6,14.4-18,23.4c-2.5,5.2-2.7,10.6-0.8,16.1c0.6,1.8,1.4,3.6,2.1,5.3c0.7,1.9,1.2,3.8,2.2,5.6c0.9,1.6,0.1,3.8,1.9,5
	c0.1,0.1,0.1,0.5,0.1,0.7c-0.3,3.1-0.4,6.2-1,9.3c-1.4,6.6-3.5,13-6,19.2c-1.4,3.4-2.7,6.9-3.8,10.4c-3.4,11.5-6.8,23-10.1,34.5
	c-0.5,1.6-1.2,2.9-2.5,3.9c-2,1.5-4,3.2-6,4.8c-2.8,2.2-4.7,4.9-5.4,8.5c-1.1,5.3-3,10.3-5.3,15.1c-1.2,2.5-2.4,4.9-3.7,7.3
	c-1.9,3.4-3.2,7-3.8,10.8c-0.8,5.2-1.6,10.4-2.4,15.6c-2.3,15.2-4.4,30.4-7.1,45.5c-3.1,18.1-7.7,36-12.7,53.6
	c-3.9,13.7-7.4,27.5-11.9,41c-1.4,4.2-2.7,8.4-3.9,12.6c-1,3.5-0.2,5.2,3.1,6.7c1.2,0.6,2.3,1.3,3.5,2.1c-2,3.5-3.9,6.8-5.7,10
	c-1.2,2-2.3,4-3.5,6c-0.7,1.3-1,2.6-0.3,4.3c0.4-0.4,0.6-0.6,0.7-0.9c1.6-3,3.3-6,4.7-9.1c1.5-3.1,2.7-6.3,4.2-9.4
	c0.3-0.8,0.7-1.7,1.4-2.1c1.5-1,3.2-1.9,4.9-2.4c3.6-1.1,7.2-0.5,10.3,1.7c3.3,2.3,6.4,4.6,7.3,9c1.3,6.1,3.1,12.1,4.7,18.1
	c1.2,4.4,0.7,8.8,0.6,13.6c-2.1-1.7-3-3.6-3.8-5.7c-0.7-1.8-1.4-3.6-2.2-5.3c-1-1.9-2.2-3.8-3.4-5.6c-0.1,0.1-0.3,0.1-0.4,0.2
	c0.2,1,0.5,2,0.7,3.1c-4.9-1-9.5-0.8-13.8,1.5c3.3-0.4,6.6-0.7,9.9-0.4c2.1,12.7,7.2,30.4,9.9,33.6c-1.3-5.4-2.4-10.3-3.7-15.1
	c-1.6-5.7-3.3-11.3-5-17c-0.1-0.4-0.1-0.9-0.1-1.4c0.8,0.1,1.5,0.3,2.1,0.3c1.6-0.2,2.2,0.8,2.6,1.9c0.5,1.5,1.1,3,1.5,4.5
	c0.8,2.7,2.3,4.9,4.2,6.9c1,1.1,2.7,0.9,2.8-0.8c0-0.4,0.2-0.8,0.3-1.2c0.4-4.4,0.7-8.8-0.4-13.1c-0.1-0.5-0.2-1.1-0.3-1.9
	c0.4,0.4,0.6,0.4,0.7,0.5c0.2,1.3,0.4,2.7,0.7,4c2.4,13.8,2.6,27.7,1.6,41.6c-0.1,1.6,0.2,3.4-0.5,4.7c-0.8,1.3-2.4,2.2-3.8,3.1
	c-2.4,1.6-4.9,3-7.3,4.5c-0.7,0.4-1.4,0.5-2.2,0c-2.6-1.6-5.2-3.2-7.8-4.6c-2-1.1-3.1-2.8-3.8-5c-1.8-5.8-3.5-11.6-5.6-17.3
	c-1.2-3.2-1.4-6.5-1.4-9.7c0-5.1,1-10,3.4-14.6c0.3-0.6,0.5-1.3,0.7-2c-5.1,4.6-5.9,10.7-6.3,17c-1.4-1.9-2.6-3.7-3.9-5.3
	c-1-1.3-1.6-2.6-1.2-4.2c0.9-3.7,1.8-7.5,2.7-11.2c0.1-0.3,0.3-0.6,0.3-0.9c0.1-0.3,0-0.6,0-0.9c-2.9,5.2-5.3,10.5-4.9,16.5
	c-3.1-1.2-3.6-2-2.9-5.1c0.8-3,1.7-6,2.6-9c0.4-1.4,0.7-2.9,1.1-4.3c-0.2-0.1-0.4-0.1-0.6-0.2c-0.7,1.6-1.6,3.2-2.2,4.9
	c-1.1,2.9-2.1,5.9-3,8.9c-0.7,2.5,0.1,4.5,2.4,6c1.5,1,2.9,2.1,4.3,3.2c-3.6,9.9-8.8,19-12,29.5c-1.2-1.4-2.2-2.4-3-3.5
	c-1.7-2.2-1.7-2.7-0.2-5.1c3-4.7,6.1-9.4,9.2-14.1c1.2-1.9,2.4-3.8,3.7-5.7c-0.4-0.1-0.7,0-0.8,0.1c-5.2,6.1-9.6,12.8-14.1,19.4
	c-0.1,0.2-0.2,0.4-0.4,0.6c-0.9,1.6-0.9,3.2,0.1,4.8c0.7,1.1,1.4,2.1,2.3,3.1c1,1.1,1.9,2.9,3.8,2.5c1.8-0.4,1.8-2.3,2.3-3.7
	c1-2.7,1.9-5.4,3-8.1c1.7-4.2,3.5-8.4,5.3-12.6c0.9-2,1.8-4,2.7-6c0.2,0,0.4,0,0.7,0.1c0.1,0.6,0.4,1.3,0.4,1.9
	c0,1.6-0.1,3.2-0.1,4.8c0,13.7,0.5,27.3,1.7,41c0.2,2,0.2,4,0.5,6c0.3,2.5,1.5,3.6,4,4.1c3.7,0.7,9.3-2.2,7.7-7.8
	c-1.1-4.1-1.8-8.3-2.5-12.5c-0.5-2.4-0.8-4.9-1.1-7.2c1.4,1.2,2.6,2.4,4,3.3c2.5,1.7,5.3,3,7.8,4.7c1.5,1,2.9,1.2,4.5,0.3
	c2.6-1.6,5.2-3.2,7.8-4.7c0.7-0.4,1.4-0.9,2.5-1.7c-0.1,1.5-0.2,2.4-0.3,3.3c-0.9,7.5-1.8,14.9-2.7,22.4c-0.9,7.7-2.1,15.4-4.5,22.8
	c-4,12.2-6,24.9-8.2,37.5c-0.3,1.9,0.2,3.5,1.3,4.9c1.4,1.9,3.4,2.6,5.5,3.1c0,0,0,0,0,0c-1,2.2-2.1,4.3-3,6.5
	c-1.8,4.4-3.6,8.7-5.3,13.1c-1,2.6-0.9,5.3-0.4,8c0.6,2.8,2.1,4.4,4.9,4.7c3.4,0.3,6.8,0.7,10.3,0.9c11.3,0.6,22.3,3,33.3,5.4
	c1.1,0.2,1.6,0.8,2,1.8c1,2.8,2,5.6,3,8.3c2.1,5.6,3.7,11.4,4.7,17.3c1.1,6.2,2.1,12.5,4,18.5c3.7,11.9,5.6,24.1,7.1,36.6
	c-0.2,0.3-0.6,0.8-1.1,1.4c0,0,0.1-0.1,0.1-0.1c-1,1.2-2.2,2.3-2.9,3.7c-3.6,6.9-7.1,14-9.5,21.5c-1,3-2.5,5.7-4.5,8.2
	c-4.7,5.9-10.6,9.8-17.9,11.9c-4.2,1.2-6.1,3.6-6.2,7.7c-0.1,3.7-0.7,7.3-1.1,11c-0.3,2.4-0.5,4.7-0.7,7.1c-0.2,1.7,0.7,2.9,2.2,3.7
	c2.1,1.1,4.1,2.2,6.3,3c6.8,2.6,13.6,3.3,20.7,1c8.4-2.8,16.2-6.8,23.3-12.1c1.2-0.9,2.2-2.1,3.2-3.2c0.4-0.4,0.8-0.9,1.1-1.3
	c0.8,1.6,1.7,3,2.1,4.5c0.4,1.6,0.4,3.3,0.6,5c0.4,4.9,1.4,5.8,6.3,5.5c7.7-0.5,15.3-1.1,23-1.6c5.1-0.4,9.2-2.6,12.4-6.5
	c1.7-2,3.2-4.2,4.6-6.4c2.4-3.8,4.7-7.6,7.1-11.6c1.5,1,2.7,0.4,3.9-0.5c0.7-0.5,1.5-0.9,2.3-1.3c4.2-2,8.4-3.9,12.6-5.9
	c2.4-1.1,4.6-2.7,6.3-4.7c2.8-3.3,5.5-6.6,8.2-10.1c1.6-2.2,3-4.5,4.4-6.9c1.2-2,1-3.8-0.6-5.7c-3.1-3.9-6.1-8-8.1-12.6
	c-0.2-0.5-0.6-0.9-0.9-1.4c-4-5.5-8-10.9-12.1-16.4c-1.2-1.6-2.4-3.2-3.7-4.7c-1.2-1.5-2.9-2-4.8-1.4c-0.7,0.2-1.5,0.3-2.4,0.6
	c-1.1-3.2-2.3-6.3-3.3-9.4c-3.5-10.7-6.6-21.5-11.6-31.7c-3.9-8-7.5-16.1-11.3-24.1c-0.5-1.1-0.6-2.1-0.4-3.4
	c0.6-4.1,1.2-8.2,0.4-12.4c-0.5-2.4-0.7-4.7-1.1-7.1c-1.4-8.8-3.1-17.5-5.7-26c-2.1-6.9-4-13.8-6-20.7c-0.3-1-0.4-2.3-0.2-3.3
	c1.8-6.6,3.5-13.3,5.6-19.8c3-9.4,6.3-18.6,9.5-27.9c4.4-12.8,6.5-26,7.4-39.5c0.1-1.7,0.2-3.4,0.4-5.1c3.9-0.1,4.4-0.3,5.4-2.6
	c-1.3,0.3-2.3,0.6-3.4,0.9c-1.7,0.4-2.4-0.4-2-2.1c0.1-0.3,0.2-0.6,0.3-0.9c1.7-6.4,3.2-12.9,3.8-19.5c0.1-1.3,0.5-2.7,1-3.9
	c1.3-3.5,2.8-7,4.2-10.4c0.4-0.9,0.9-1.5,1.8-1.7c1.2-0.2,2.4-0.4,3.6-0.1c2.9,0.7,5.8,1.3,8.5,2.4c4.8,2,9.4,4.4,13.1,8.2
	c0.9,0.9,1.2,1.6,1.2,2.8c-0.3,6.3-0.6,12.6-0.9,18.9c-0.1,1.3,0,2.7-0.6,3.7c-1.7,3.3-3.5,6.4-5.4,9.6c-0.3,0.6-0.9,0.9-1.7,0.2
	c0.8-2.1,1.7-4.2,2.6-6.3c-0.6,0.2-0.9,0.5-1.1,0.9c-1.1,1.9-2.1,3.7-3.2,5.6c-0.9,1.5-1.9,3-3.7,3.5c-1.6,0.4-3.2,0.7-4.9,1
	c-0.6-0.8,0-1.1,0.6-1.4c0.9-0.5,2-1,2.5-1.8c1.5-2.6,2.5-5.5,3.1-8.4c-1.2,1.9-2.2,3.8-3.2,5.8c-1.5,2.8-5.3,5-8.6,4.9
	c4-9.4,5.8-14.8,5.6-17.5c-0.8,2.1-1.5,3.7-2.1,5.3c-0.9,2.4-1.6,4.8-2.6,7.2c-1.6,4-4.2,7.3-7.7,9.9c-0.8,0.6-1.7,0.9-2.8,1.5
	c-0.6-1.9-0.1-3.3,0.7-4.6c0.7-1.3,1.6-2.6,2.1-4c2.8-8.6,4.3-17.4,3.7-26.4c0-0.4-0.1-0.8-0.2-1.3c-0.5,0.4-0.6,0.8-0.6,1.3
	c-0.6,6.1-0.9,12.3-2.3,18.3c-0.9,4-1.4,8-3.6,11.6c-0.6,0.9-0.8,2.1-1,3.2c-0.2,1.1-0.5,2.3,0.7,3.1c1.1,0.7,2.2,0.1,3.2-0.3
	c0.5-0.2,1-0.5,1.4-0.9c1.4-1.2,2.8-2.4,4-3.8c0.8-0.9,1.5-1.3,2.6-1.2c1.7,0.1,3.3-0.1,5-0.2c-0.1,0.3-0.2,0.6-0.3,0.9
	c2.7,0.6,5.2,0.4,7-0.9c2.1-1.5,4.4-2.9,6.2-4.7c4.1-4.1,6.7-8.9,6.7-14.9c0-5.7,0.1-11.4,0.2-17c0-0.6-0.1-1.5,0.2-1.9
	c1.2-1.4,0.9-3.2,1.3-4.8c0.7-3,1.4-6.1,2.1-9.1c0.3-1.1,1-1.7,1.9-2.3c3.2-2,3.4-3.1,1.7-6.5c-0.2-0.4-0.4-0.7-0.6-1.1
	c-1.7-2.6-3.3-5.3-5-7.9c-0.8-1.2-1.1-2.2-0.5-3.6c1.2-3,2.3-6.1,3.4-9.2c0.5-1.4,1.2-2.8,1.6-4.2c2.7-8.7,5.4-17.4,8.1-26.1
	c1.5-5.1,2-10.3,1.8-15.6c-0.3-8.2-0.6-16.5-0.6-24.7c0-11.8,0.5-23.6,1.7-35.4c0.8-8.1,1.2-16.3,1.7-24.4
	c0.3-5.3,0.5-10.5,0.6-15.8c0.1-6.5,0-13.1-0.1-19.7c0-1.6-0.4-3.2-0.9-4.7c-1.6-4.7-3-9.4-4-14.3c-0.5-2.6-1.2-5.1-2-7.7
	c-1.4-4.4-4.2-7.7-8.5-9.6c-3.2-1.5-6.5-2.8-9.7-4.1c-5.3-2.1-10.6-4.4-15.3-7.9c-0.6-0.4-1.2-0.8-1.8-1.2c-1.6-1.2-3.2-2.3-4.8-3.5
	c1-1.6,1.8-3,2.7-4.3c4-5.5,6.2-11.9,7.9-18.4c1.1-4,1.3-8.2,0.9-12.4c-0.5-4.4-2.1-8.3-3.7-12.4c-0.1-0.4-0.4-0.7-0.6-1
	c-0.1,1.7,0.3,3.2,0.6,4.8c0.6,3.1,1.3,6.1,1.7,9.2c0.8,7-1.2,13.6-3.5,20.1c-0.8,2.2-1.8,4.4-3,6.5c-1.1,2.1-2.5,4.1-3.8,6.1
	c-0.3,0.5-0.6,1-1.1,1.2c-2.4,1-4.9,1.9-7.3,2.8C320.6,168.3,319.6,167.2,318.6,166z M188.3,489.7c2.6-0.2,4.4-1.2,5.8-3
	C191.9,487.9,190.1,488.8,188.3,489.7z"/>
<path d="M261.3,709.2c0.4-0.5,0.9-1.1,1.1-1.4c-1.5-12.5-3.4-24.7-7.1-36.6c-1.9-6-2.8-12.3-4-18.5c-1.1-5.9-2.7-11.7-4.7-17.3
	c-1-2.8-2.1-5.5-3-8.3c-0.3-1-0.9-1.6-2-1.8c-11-2.4-22-4.8-33.3-5.4c-3.4-0.2-6.8-0.6-10.3-0.9c-2.8-0.3-4.4-1.9-4.9-4.7
	c-0.6-2.7-0.6-5.4,0.4-8c1.7-4.4,3.5-8.8,5.3-13.1c0.9-2.2,2-4.4,3-6.6c3.7-7.8,6.8-15.9,8.8-24.3c2.3-9.7,4.3-19.5,6.3-29.3
	c0.6-2.9,1-5.9,1.5-8.9c0.1,1.3,0.3,2.6,0.1,3.9c-0.7,5.4-1.4,10.8-2.3,16.1c-1.4,8.8-3,17.5-5.7,26c-2.5,7.9-5.9,15.5-9.3,23.1
	c-2,4.4-3.8,9-5.5,13.5c-0.9,2.2-1,4.5-0.4,6.8c0.6,2.5,1.1,3.1,3.6,3.4c2.3,0.3,4.6,0.4,6.9,0.6c6.2,0.6,12.5,0.7,18.6,1.8
	c9,1.6,18,3.7,27,5.7c4.8,1,9.7,2.1,14.4,3.1c0.4-0.4,0.6-0.7,0.7-0.9c3.5-6,6.9-12.1,9.5-18.6c3.2-8,5.6-16.2,7.3-24.6
	c2.1-9.9,4.2-19.7,4.6-29.8c0.3-7.4,0.5-14.9,0.7-22.3c0-1.3-0.2-2.5-0.5-3.8c-1.2-5.9-2.6-11.7-3.8-17.6c-0.5-2.2-0.8-4.5-1.2-6.8
	c0.2,0,0.3-0.1,0.5-0.1c1.2,4.6,2.3,9.2,3.5,13.8c0.6-0.4,0.8-0.8,0.9-1.2c1.9-5.2,3.7-10.4,5.9-15.4c2.8-6.6,6.1-13,8.8-19.7
	c6.4-15.6,9.6-31.9,11.6-48.6c1.7-13.6,1.9-27.3,2.8-40.9c0.6-9.7,0.3-19.3,0.1-29c-0.1-4.5-0.3-9-0.4-13.4c0-1.2-0.5-1.9-1.7-2.3
	c-1.8-0.5-3.6-1.3-5.5-1.5c-5.6-0.7-11.3-1.2-16.9-1.9c-3.1-0.4-6.2-0.7-9.2-1.6c-1.8-0.5-3.5-0.7-5.4-0.6
	c-6.1,0.2-12.1,0.7-18.2,0.6c-5.1-0.1-10.2,0-15.3,0.6c-7.1,0.9-13.5,3.3-19.1,7.7c-3.6,2.8-6.9,6-9.8,9.5c-1,1.2-1.6,2.5-2,4
	c-1.8,6.8-2.7,13.8-3.1,20.8c-0.8,13.8-1.5,27.6-0.3,41.5c0.4,4.3,0.6,8.6,1,12.9c0.8,7.7,1.9,15.4,2.4,23.1
	c0.7,10.2-0.2,20.5-1.1,30.7c-0.7,7.9-1.8,15.7-2.7,23.6c-1.1,9.6-2.7,19.1-5.7,28.4c-3.6,11.1-5.3,22.5-7.4,34
	c-0.3,1.8,0.2,3.1,1.4,4.3c1.2,1.2,2.3,2.4,3.5,3.7c-2.1-0.5-4.1-1.2-5.5-3.1c-1.1-1.5-1.7-3.1-1.3-4.9c2.2-12.6,4.2-25.2,8.2-37.5
	c2.4-7.4,3.6-15.1,4.5-22.8c0.9-7.5,1.8-14.9,2.7-22.4c0.1-0.9,0.2-1.9,0.3-3.3c-1.1,0.7-1.8,1.2-2.5,1.7c-2.6,1.6-5.2,3.2-7.8,4.7
	c-1.5,0.9-2.9,0.7-4.5-0.3c-2.5-1.7-5.3-3-7.8-4.7c-1.4-0.9-2.6-2.2-4-3.3c0.4,2.3,0.7,4.7,1.1,7.2c0.8,4.2,1.4,8.4,2.5,12.5
	c1.6,5.6-4,8.5-7.7,7.8c-2.5-0.4-3.7-1.6-4-4.1c-0.3-2-0.3-4-0.5-6c-1.2-13.6-1.7-27.3-1.7-41c0-1.6,0.1-3.2,0.1-4.8
	c0-0.6-0.2-1.3-0.4-1.9c-0.2,0-0.4,0-0.7-0.1c-0.9,2-1.8,4-2.7,6c-1.8,4.2-3.6,8.4-5.3,12.6c-1.1,2.7-2,5.4-3,8.1
	c-0.5,1.4-0.5,3.3-2.3,3.7c-1.9,0.5-2.7-1.3-3.8-2.5c-0.9-0.9-1.6-2-2.3-3.1c-1-1.5-1-3.2-0.1-4.8c0.1-0.2,0.2-0.4,0.4-0.6
	c4.6-6.6,8.9-13.3,14.1-19.4c0.1-0.2,0.4-0.2,0.8-0.1c-1.2,1.9-2.4,3.8-3.7,5.7c-3.1,4.7-6.1,9.4-9.2,14.1c-1.6,2.4-1.6,2.9,0.2,5.1
	c0.9,1.1,1.8,2.1,3,3.5c3.1-10.5,8.3-19.6,12-29.5c-1.4-1-2.8-2.2-4.3-3.2c-2.3-1.4-3.1-3.5-2.4-6c0.8-3,1.9-5.9,3-8.9
	c0.6-1.7,1.5-3.3,2.2-4.9c0.2,0.1,0.4,0.1,0.6,0.2c-0.4,1.4-0.7,2.9-1.1,4.3c-0.8,3-1.8,6-2.6,9c-0.8,3-0.2,3.9,2.9,5.1
	c-0.4-6,1.9-11.3,4.9-16.5c0,0.3,0,0.6,0,0.9c-0.1,0.3-0.2,0.6-0.3,0.9c-0.9,3.7-1.8,7.4-2.7,11.2c-0.4,1.6,0.2,2.9,1.2,4.2
	c1.3,1.7,2.5,3.4,3.9,5.3c0.4-6.3,1.2-12.4,6.3-17c-0.2,0.7-0.4,1.4-0.7,2c-2.4,4.6-3.4,9.5-3.4,14.6c0,3.3,0.3,6.5,1.4,9.7
	c2.1,5.7,3.8,11.5,5.6,17.3c0.7,2.2,1.7,3.9,3.8,5c2.7,1.5,5.3,3,7.8,4.6c0.8,0.5,1.5,0.4,2.2,0c2.5-1.5,4.9-3,7.3-4.5
	c1.4-0.9,3.1-1.8,3.8-3.1c0.7-1.3,0.4-3.1,0.5-4.7c1.1-13.9,0.8-27.8-1.6-41.6c-0.2-1.3-0.4-2.7-0.7-4c0-0.1-0.2-0.2-0.7-0.5
	c0.1,0.8,0.1,1.4,0.3,1.9c1,4.3,0.8,8.7,0.4,13.1c0,0.4-0.2,0.8-0.3,1.2c-0.1,1.7-1.8,1.9-2.8,0.8c-1.9-2-3.4-4.2-4.2-6.9
	c-0.5-1.5-1-3-1.5-4.5c-0.4-1.2-1-2.2-2.6-1.9c-0.6,0.1-1.2-0.1-2.1-0.3c0,0.5,0,1,0.1,1.4c1.7,5.7,3.4,11.3,5,17
	c1.3,4.8,2.4,9.7,3.7,15.1c-2.7-3.1-7.8-20.9-9.9-33.6c-3.3-0.3-6.6,0-9.9,0.4c4.3-2.3,8.9-2.5,13.8-1.5c-0.3-1.1-0.5-2.1-0.7-3.1
	c0.1-0.1,0.3-0.1,0.4-0.2c1.1,1.9,2.4,3.7,3.4,5.6c0.9,1.7,1.6,3.5,2.2,5.3c0.8,2,1.7,3.9,3.8,5.7c0.1-4.8,0.5-9.2-0.6-13.6
	c-1.6-6-3.4-12-4.7-18.1c-0.9-4.4-4-6.7-7.3-9c-3.1-2.2-6.7-2.8-10.3-1.7c-1.7,0.5-3.4,1.5-4.9,2.4c-0.7,0.4-1.1,1.3-1.4,2.1
	c-1.4,3.1-2.7,6.3-4.2,9.4c-1.5,3.1-3.1,6.1-4.7,9.1c-0.1,0.2-0.4,0.4-0.7,0.9c-0.7-1.7-0.4-3,0.3-4.3c1.1-2,2.3-4,3.5-6
	c1.9-3.3,3.7-6.5,5.7-10c-1.3-0.8-2.4-1.6-3.5-2.1c-3.3-1.5-4.1-3.1-3.1-6.7c1.2-4.2,2.5-8.4,3.9-12.6c4.5-13.5,8-27.3,11.9-41
	c5.1-17.7,9.6-35.5,12.7-53.6c2.6-15.1,4.7-30.3,7.1-45.5c0.8-5.2,1.6-10.4,2.4-15.6c0.6-3.8,1.9-7.4,3.8-10.8
	c1.3-2.4,2.6-4.8,3.7-7.3c2.3-4.9,4.2-9.9,5.3-15.1c0.8-3.5,2.6-6.3,5.4-8.5c2-1.6,3.9-3.3,6-4.8c1.4-1,2.1-2.3,2.5-3.9
	c3.3-11.5,6.6-23,10.1-34.5c1.1-3.5,2.4-7,3.8-10.4c2.5-6.3,4.6-12.6,6-19.2c0.6-3,0.7-6.2,1-9.3c0-0.2,0.1-0.6-0.1-0.7
	c-1.8-1.2-1.1-3.4-1.9-5c-1-1.7-1.5-3.7-2.2-5.6c-0.7-1.8-1.5-3.5-2.1-5.3c-1.9-5.5-1.7-10.9,0.8-16.1c4.3-9.1,10.3-17,18-23.4
	c4.1-3.5,9.1-5.5,14.3-7.1c6.5-2,13.1-3,19.9-1.8c4.1,0.7,7.8,2.2,11.2,4.6c7.1,4.9,12.8,11,17.1,18.6c0.3,0.6,0.5,1.3,0.9,2.2
	c-1.4-0.2-1.7-1-2.2-1.7c-2.7-3.2-5.3-6.6-8.2-9.7c-2-2.2-4.4-4.2-6.7-6.1c-6.6-5.3-14.4-6.7-22.6-5.8c-0.1,0-0.2,0.2-0.4,0.2
	c2,3.9,1.5,7.1-1.6,10.4c-4,4.2-8.9,5.8-14.6,4.7c-2.9-0.6-5.3-1.9-6-5.1c-0.1-0.2-0.3-0.4-0.5-0.7c-0.6,0.5-1.1,0.9-1.7,1.4
	c-5.9,5.7-10.7,12.3-14.4,19.6c-2.9,5.6-3,11.3-0.5,17.1c1.3,3.1,2.5,6.2,4.3,9.7c0.3-0.5,0.5-1,0.8-1.4c1.4-2,3.2-3.5,5.3-4.8
	c1.3-0.8,2.2-2,3.3-3c2.9-2.6,5.7-5.2,8.6-7.6c5.1-4.3,11-7.1,17.4-8.8c7.6-2,15.2-3.7,22.9-5.3c5.2-1,10.4-1.8,15.6-2.3
	c3.8-0.4,7.6-0.8,11.5-0.2c2.9,0.5,5.3,1.8,6.7,4.5c1.3,2.4,1,4.3-1.2,5.9c-1.9,1.3-3.9,2.4-5.9,3.6c-1.2,0.7-2.4,1.2-3.5,2
	c-3,2.1-4.8,4.8-5.3,8.6c-0.6,3.9,0,7.4,1.1,11.1c0.3,1,0.5,2,1.9,2c1,0.1,1.7,0.9,1.8,1.9c0.2,1.1-0.5,2-1.3,2.3
	c-1.3,0.5-1.3,1.4-1.3,2.5c0.1,2.1,0.2,4.2,0.2,6.2c-0.2,3.9-1.2,7.4-4.2,10.1c-0.4,0.4-0.8,1.1-0.8,1.6c0,4.4-1.5,8.5-3.4,12.4
	c-1.8,3.7-3.6,7.5-5.7,11.1c-1,1.9-2.5,3.4-3.8,5.2c-2,2-4.5,2.6-7.2,2.6c-5.6,0-11-1.1-15.9-4.2c1.1,2.9,2.4,5.7,3.7,8.5
	c1.4,2.8,1.5,2.9,4.6,2.3c2.7-0.6,5.4-1.4,8-2.3c2.6-0.8,5.1-1.7,7.7-2.6c-0.4-1.5-0.7-2.9-1-4.3c1,1.1,2,2.2,3.2,3.5
	c2.4-0.9,4.9-1.8,7.3-2.8c0.5-0.2,0.8-0.7,1.1-1.2c1.3-2,2.7-4,3.8-6.1c1.1-2.1,2.2-4.3,3-6.5c2.3-6.5,4.3-13.1,3.5-20.1
	c-0.4-3.1-1.1-6.1-1.7-9.2c-0.3-1.5-0.7-3.1-0.6-4.8c0.2,0.3,0.5,0.6,0.6,1c1.6,4,3.2,8,3.7,12.4c0.5,4.2,0.2,8.3-0.9,12.4
	c-1.7,6.5-3.8,12.9-7.9,18.4c-0.9,1.3-1.7,2.7-2.7,4.3c1.6,1.2,3.2,2.4,4.8,3.5c0.6,0.4,1.2,0.8,1.8,1.2c4.7,3.5,10,5.7,15.3,7.9
	c3.3,1.3,6.5,2.6,9.7,4.1c4.2,1.9,7.1,5.2,8.5,9.6c0.8,2.5,1.5,5.1,2,7.7c0.9,4.9,2.3,9.6,4,14.3c0.5,1.5,0.9,3.1,0.9,4.7
	c0.1,6.5,0.2,13.1,0.1,19.7c-0.1,5.3-0.3,10.6-0.6,15.8c-0.5,8.1-0.8,16.3-1.7,24.4c-1.2,11.8-1.7,23.6-1.7,35.4
	c0,8.2,0.2,16.5,0.6,24.7c0.2,5.3-0.3,10.5-1.8,15.6c-2.7,8.7-5.4,17.4-8.1,26.1c-0.5,1.4-1.1,2.8-1.6,4.2c-1.2,3.1-2.3,6.1-3.4,9.2
	c-0.5,1.3-0.2,2.4,0.5,3.6c1.7,2.6,3.3,5.3,5,7.9c0.2,0.3,0.4,0.7,0.6,1.1c1.7,3.4,1.5,4.5-1.7,6.5c-0.9,0.6-1.7,1.3-1.9,2.3
	c-0.7,3-1.4,6-2.1,9.1c-0.4,1.6,0,3.3-1.3,4.8c-0.3,0.4-0.2,1.2-0.2,1.9c-0.1,5.7-0.1,11.4-0.2,17c0,6-2.6,10.8-6.7,14.9
	c-1.8,1.8-4.1,3.3-6.2,4.7c-1.8,1.3-4.3,1.5-7,0.9c0.1-0.3,0.2-0.6,0.3-0.9l-0.1,0c1.6-0.3,3.3-0.5,4.9-1c1.8-0.5,2.8-2,3.7-3.5
	c1.1-1.9,2.2-3.7,3.2-5.6c0.2-0.4,0.5-0.7,1.1-0.9c-0.9,2.1-1.7,4.2-2.6,6.3c0.8,0.7,1.4,0.4,1.7-0.2c1.8-3.2,3.7-6.3,5.4-9.6
	c0.5-1.1,0.5-2.5,0.6-3.7c0.3-6.3,0.6-12.6,0.9-18.9c0.1-1.2-0.3-1.9-1.2-2.8c-3.7-3.8-8.3-6.2-13.1-8.2c-2.7-1.1-5.6-1.8-8.5-2.4
	c-1.1-0.3-2.4,0-3.6,0.1c-0.9,0.1-1.5,0.7-1.8,1.7c-1.4,3.5-2.9,6.9-4.2,10.4c-0.5,1.2-0.9,2.6-1,3.9c-0.7,6.6-2.1,13.1-3.8,19.5
	c-0.1,0.3-0.2,0.6-0.3,0.9c-0.4,1.7,0.3,2.4,2,2.1c1.1-0.2,2.1-0.5,3.4-0.9c-1,2.3-1.5,2.5-5.4,2.6c-0.1,1.7-0.3,3.4-0.4,5.1
	c-0.9,13.5-3,26.7-7.4,39.5c-3.2,9.3-6.5,18.6-9.5,27.9c-2.1,6.5-3.8,13.2-5.6,19.8c-0.3,1-0.1,2.2,0.2,3.3c1.9,6.9,3.8,13.9,6,20.7
	c2.6,8.5,4.3,17.2,5.7,26c0.4,2.4,0.7,4.8,1.1,7.1c0.8,4.2,0.2,8.3-0.4,12.4c-0.2,1.3-0.1,2.3,0.4,3.4c3.8,8,7.4,16.1,11.3,24.1
	c5,10.2,8.1,21,11.6,31.7c1,3.1,2.1,6.2,3.3,9.4c0.9-0.2,1.7-0.3,2.4-0.6c1.9-0.6,3.5-0.1,4.8,1.4c1.3,1.5,2.5,3.1,3.7,4.7
	c4,5.5,8.1,10.9,12.1,16.4c0.3,0.5,0.7,0.9,0.9,1.4c2.1,4.6,5,8.7,8.1,12.6c1.5,1.9,1.7,3.8,0.6,5.7c-1.4,2.3-2.8,4.7-4.4,6.9
	c-2.6,3.4-5.4,6.7-8.2,10.1c-1.7,2-3.8,3.6-6.3,4.7c-4.2,1.9-8.4,3.9-12.6,5.9c-0.8,0.4-1.6,0.8-2.3,1.3c-1.2,0.9-2.5,1.5-3.9,0.5
	c-2.4,4-4.7,7.8-7.1,11.6c-1.4,2.2-2.9,4.4-4.6,6.4c-3.2,3.8-7.4,6.1-12.4,6.5c-7.7,0.6-15.3,1.2-23,1.6c-4.9,0.3-5.9-0.7-6.3-5.5
	c-0.1-1.7-0.1-3.4-0.6-5c-0.4-1.5-1.3-2.9-2.1-4.5c-0.4,0.4-0.7,0.9-1.1,1.3c-1.1,1.1-2,2.3-3.2,3.2c-7.2,5.2-14.9,9.3-23.3,12.1
	c-7,2.3-13.9,1.6-20.7-1c-2.2-0.8-4.2-2-6.3-3c-1.5-0.8-2.3-2-2.2-3.7c0.2-2.4,0.5-4.8,0.7-7.1c0.4-3.7,1-7.3,1.1-11
	c0.1-4.1,2-6.5,6.2-7.7c7.2-2.1,13.2-6,17.9-11.9c2-2.5,3.5-5.1,4.5-8.2c2.4-7.5,5.8-14.5,9.5-21.5
	C259.1,711.4,260.4,710.3,261.3,709.2c-0.1,0.6-0.1,1.4-0.4,2c-1.7,4-3.5,7.9-5.1,11.9c-1.6,3.8-3,7.7-4.5,11.6
	c-1,2.4-2.1,4.6-3.2,7c-0.2,0.4-0.4,0.8-0.6,1.3c1.4,1.1,2.8,2.1,4.1,3.1c1,0.7,2.1,0.9,3.2,0.4c1.8-0.7,3.6-1.4,5.3-2.1
	c0.4-0.2,0.9-0.6,1-0.9c0.4-2.3,2.3-3.3,3.9-4.6c4.2-3.6,7.2-8,8.2-13.6c0.1-0.5,0.3-1,0.6-1.3c1.1-1.1,1.3-2.6,1.4-4
	c0.2-2.1,0.3-4.2,0.1-6.2c-0.3-4.8-2.2-6.4-7-5.9c-0.6,0.1-1.3,0.2-1.9,0.3C264.7,708.4,263,708.8,261.3,709.2z M259,124.7
	c-0.1,0-0.3,0-0.4,0c-0.1,0.4-0.2,0.9-0.3,1.3c-1.7,5.2-3.3,10.4-5,15.5c-1.4,4.1-3.2,8-4.4,12.2c-4.6,16-9.2,31.9-13.6,48
	c-3.7,13.7-4.6,27.7-3.1,41.9c0.6,5.6,1.8,11,4.2,16.2c2.1,4.6,4.9,8.8,7.7,13c0.7,1,1.4,2,2.1,2.9c0.1-1-0.2-1.7-0.5-2.4
	c-2.5-6.2-4-12.6-4.2-19.3c-0.3-10.2,0.8-20.3,3.4-30.2c1.9-7.5,4.5-14.8,6.9-22.2c0.2-0.6,0.5-1.1,0.8-1.7c0.1,1-0.1,1.9-0.3,2.9
	c-1.1,4.1-2.4,8.1-3.5,12.2c-2.6,9.5-5,19-3.6,29c1.1,7.8,3.5,14.9,8.6,21c0.7,0.8,1.5,1.5,2.6,2.5c0.2-0.9,0.3-1.4,0.3-1.8
	c0.5-4,0.8-8.1,1.5-12.1c1.9-10.8,4.9-21.4,9.2-31.4c0.7-1.5,0.7-2.8,0.2-4.3c-3.4-10.2-6.2-20.5-7.7-31.1c-0.2-1.4-0.3-2.8-0.4-4.2
	c0.5,0.6,0.7,1.2,0.8,1.8c1,4.7,1.9,9.4,3.1,14c1.9,7.6,4,15.1,7.2,22.3c2.6,5.8,5.5,11.4,8.4,17c2.8,5.3,5.8,10.5,8.6,15.8
	c1.9,3.5,3.2,7.3,4.1,11.2c0.9,4.2,0.9,8.4,0.9,12.6c0,0.7,0.1,1.5,0.2,2.6c2.3-2.3,4.7-3.7,6.3-6.1c4.9-7.8,9.4-15.8,13.2-24.2
	c2.4-5.4,3.9-11.2,4.5-17.1c1-9.5-0.8-18.5-4.5-27.1c-4.6-10.8-9.6-21.4-15.2-31.8c-3.7-6.8-5.4-14.1-5.8-21.8
	c-0.3-5.3-0.7-10.7-1.3-16c-0.5-5-0.7-9.9,0-14.8c0.4-3.2,0.8-6.4,1.8-9.4c1.2-3.5,3.1-6.7,4.7-10c0.2-0.3,0.5-0.6,1.2-1.3
	c-0.4,1.6-0.7,2.7-0.9,3.7c0.1,0.1,0.2,0.1,0.3,0.2c5-4.6,10.1-9.2,15.1-13.8c-0.6-0.3-1-0.3-1.3-0.3c-10.6,1.3-20.8,4.1-30.8,7.9
	c-4.1,1.6-8.3,2.9-12.4,4.4c-0.4,0.2-0.8,0.5-1.2,0.8c-1.1,0.9-2.3,1.8-3.3,2.7c-1.3,1.2-2.5,2.5-3.7,3.7c-0.6,0.6-0.6,1.3-0.4,2.2
	c0.6,3.1,1.3,6.1,1.5,9.2c0.3,6.1,0.3,12.3,0.4,18.5c0,0.5-0.2,1-0.3,1.4c-0.1,0-0.3,0-0.4,0C259.7,135.3,259.3,130,259,124.7z
	 M337.1,347.9c0-1.4,0-2.3,0-3.2c-0.2-7.8-0.5-15.7-0.5-23.5c0-11.8,0.2-23.5,0.6-35.3c0.3-8.3,1.1-16.6,1.4-24.9
	c0.4-12.1,1.2-24.1,4.1-35.9c1.1-4.6,1.4-9.3,0.7-14c-0.3-2-0.6-4-1-5.9c-1.5-6.8-3.9-13.2-8.7-18.4c-1.1-1.2-2.4-2.3-3.5-3.6
	c-1.1-1.3-2-2.8-3-4.3c-6.8,3-13.7,5.5-21,7c0.1,0.5,0.1,0.7,0.2,0.9c2.5,5.5,5,10.9,7.5,16.4c0.2,0.4,0.5,0.8,0.8,1.2
	c0.8,1,1.8,2,2.5,3.1c1.5,2.4,2.8,4.8,4.2,7.3c6.3,10.9,9.7,22.7,10.5,35.3c0.6,8-0.3,15.8-2,23.6c-2.5,11.8-5.6,23.3-11.2,34
	c-3.1,5.9-7,11.3-11.7,16c-6,6.1-13.1,10.5-21,13.5c-0.7,0.3-1.4,0.4-2.1,1.3c0.9-0.1,1.4-0.1,1.9-0.1c5,0.1,10.1-0.2,15.1,0.3
	c7.1,0.8,14.2,2,21.3,3.3C327.4,342.9,332.5,344.1,337.1,347.9z M264.1,330.8c-1.6-1.4-1.6-1.4-1.7-2.5c-0.2-1.7-0.4-3.3-0.6-5
	c-1.7-11.6-5.4-22.4-12-32.1c-3.3-5-6.8-9.9-10.6-14.5c-6.2-7.6-11.1-15.8-14.4-25c-0.2-0.5-0.5-1-0.8-1.6c-0.5,0.8-0.6,1.6-0.6,2.3
	c-0.3,10.8-0.8,21.6-0.1,32.4c0.4,5.3,0.5,10.5,0.4,15.8c-0.1,3.1,0.5,5.9,1.9,8.5c5.5,10.2,14.1,16.6,25.1,19.8
	c6.2,1.8,12.7,2.3,19.2,2c0.8,0,1.5-0.2,2.3-0.3c0-1.6,0-2.9,0-4.3c0-11.7-1.7-23.1-4.8-34.3c-1.9-6.8-5-12.9-9.6-18.3
	c-2.7-3.2-4.8-7-7.6-10.2c-3.5-4.1-5.2-8.9-6.2-14.1c-0.1-0.4-0.2-0.7-0.3-1.1c-0.3,0.5-0.4,1-0.4,1.5c-0.1,8.5,1.4,16.7,5,24.5
	c1.1,2.2,2,4.6,2.3,7.1c-3.1-3.1-6.2-6.2-9.1-9.5c-1.9-2.2-3.3-4.7-5.1-7c-2.2-2.7-3.9-5.7-4.4-9.2c-0.9-7-1.8-14.1-2.5-21.2
	c-0.6-5.7-0.3-11.3,0.3-17c0.8-7.5,2.5-14.8,4.3-22.1c0.2-0.9,0.4-1.8,0.6-2.6c-2.4,1.8-4.4,3.9-6.6,5.8c-2.8,2.5-4,5.7-3.7,9.4
	c0.3,4.1,0.5,8.1,0.6,12.2c0.1,4,0.1,8-0.2,12c-0.2,3.6-0.7,7.2-1,10.7c-0.1,1,0,2.1,0.4,3c3.1,9.1,7.5,17.7,13.3,25.4
	c3.8,5,7.5,10,11.2,14.9c9.3,12.4,14,26.4,15.5,41.7C264.5,328.7,264.3,329.5,264.1,330.8z M244.8,626.2c0.7,1.8,1.2,3,1.7,4.3
	c3.4,6.9,5.4,14.3,7,21.9c1.9,8.8,3.8,17.7,6,26.4c1.8,7,3.3,14,3.8,21.2c0.2,2.4,0.4,4.7,0.5,7.1c2.1-0.4,4.1-0.8,6.2-1
	c4.1-0.4,6.5,1.4,7.1,5.4c0.4,2.5,0.4,5.1,0.5,7.6c0,0.7,0,1.3,0,2.1c3.9-0.8,4.6-0.6,7.7,1.9c0.8,0.6,1.6,1.3,2.4,1.9
	c1.9,1.4,4.8,1.6,6.7,0.4c0.3-0.2,0.7-0.6,0.7-0.9c0.1-1.4,0.3-2.8,0.2-4.2c-0.2-1.9-0.8-3.7-1-5.6c-0.7-6-1.1-12.1-1.9-18.1
	c-0.6-4.7-1.8-9.4-2.4-14.2c-1-8.2-1.8-16.5-2.6-24.8c-0.2-1.9-0.7-3.5-1.8-5.1c-4.5-6.5-8.9-13.1-13.3-19.7
	c-0.6-0.9-1.4-1.1-2.4-1.3c-5.5-1-11-2-16.5-3.2C250.8,627.6,248,626.9,244.8,626.2z M274.1,631.9c0.6,0.9,0.9,1.3,1.2,1.8
	c3.9,5.6,7.8,11.1,11.7,16.7c3.8,5.5,6.8,11.4,9.3,17.6c3.8,9.5,8.1,18.8,11.3,28.8c0.9,0,1.7,0.1,2.6,0c6.1-0.5,10.8,1.7,13.9,7.1
	c0.3,0.5,1.1,1,1.7,1.1c2.7,0.4,5.4,0.2,8.1-0.7c4.1-1.4,6.3-5.9,4.8-9.9c-0.2-0.5-0.4-1.1-0.9-1.4c-2.1-1.3-3.1-3.4-4-5.5
	c-1.1-2.6-1.9-5.3-2.8-7.9c-3.2-9.9-6.2-19.8-10.6-29.3c-3.1-6.6-5.8-13.3-8.6-20c-1-2.4-1.9-4.9-2.9-7.4
	C298.2,629.1,286.8,632.3,274.1,631.9z M217.1,232.5c0,4.2,0,7.8,0,11.4c0,4.8-0.4,9.6-1.3,14.3c-1.9,10-4,19.9-5.7,29.9
	c-1.6,9-2.9,18-5.1,26.8c-3,12.2-6.1,24.3-10.1,36.2c-1.6,4.8-3,9.6-4.2,14.5c-2.2,9-4.3,18-6.4,27.1c-0.8,3.3-1.4,6.6-2.1,9.8
	c-0.2,1-0.2,2-0.2,3c5.5-0.3,10.8-0.6,16.1-0.9c0-0.7,0-1.3,0-1.9c-0.2-5.3,0-10.6,1.1-15.7c1.9-9.1,3.9-18.3,6.2-27.3
	c4.4-17,8.4-34.1,10.9-51.5c1.3-9.3,2.8-18.5,4.1-27.7c0.4-2.6,0.7-5.2,0.7-7.8c0.2-11.5,0.4-23,1.5-34.5c0.1-1.2,0.2-2.4,0.3-3.8
	C221.2,233.6,219.4,233.1,217.1,232.5z M350.6,388c0.1,0.1,0.2,0.3,0.3,0.4c-3,1.8-4.3,4.7-5.6,7.6c-1.3,3-1.9,6.1-0.8,9.4
	c5-0.2,9.2,1.6,13.1,4.7c0.4-0.6,0.7-0.9,0.9-1.4c1-2.1,0.9-4.4,0.7-6.6c-0.2-1.7-0.7-3.4-0.8-5.2c-0.3-3,0.8-5.8,1.9-8.6
	c1.2-2.9,2.4-5.8,3.4-8.7c0.4-1.1,0.5-2.3,0.6-3.5c0.6-6.2-0.2-12.3-1-18.4c-0.9-6.1-0.3-11.9,2.3-17.6c1.7-3.7,3.2-7.5,4.8-11.3
	c0.5-1.3,1-2.7,1.4-4.1c0.3-1,0.7-2.1,0.7-3.2c0.1-5.1-0.1-10.2,0.1-15.4c0.3-7.9,0.8-15.8,1.3-23.7c0.4-6.3,1.1-12.6,1.5-18.9
	c0.4-6.8,0.5-13.6,0.8-20.4c0.3-7.5,0.4-15-0.3-22.5c-0.1-1.5-0.5-3-0.9-4.4c-0.2-0.8-0.8-1.2-1.6-1.1c-1.9,0.3-3.7,0.7-5.5,1.7
	c0,0.6,0,1.2,0,1.7c0.4,6.6,0.7,13.2,1.1,19.9c0.7,13.4,0.4,26.7-1.6,40c-1.3,8.2-2.6,16.4-3.7,24.7c-0.8,5.9-1,11.8-2.2,17.6
	c-2.5,13-5.4,26-8.2,38.9c-1.5,7.1-3.2,14.2-4.7,21.3c-0.5,2.6-1,5.3-0.8,8.2C349,388.8,349.8,388.4,350.6,388z M323,259.6
	c-0.8,0.8-1.4,1.5-2,2.1c-2.4,2.5-4.7,5-7.2,7.4c-10.5,9.8-22,18.1-34.7,24.6c-2.3,1.2-4.3,2.7-6.5,4.1c-1.1,0.7-1.4,1.6-1.2,3
	c1.7,8.8,2.8,17.7,2.7,26.7c0,0.9,0,1.9,0,3c8.1-0.8,15.2-3.3,21.2-8.4c1.5-1.3,3-2.6,4.4-4c15.9-15.7,23.7-34.7,23.4-57.1
	C323.2,260.5,323.1,260.3,323,259.6z M358.2,218.2c-0.2,1-0.3,2-0.4,2.9c-0.4,4.3-0.9,8.6-1.2,12.9c-0.7,10.1-0.7,20.3,0.4,30.4
	c0.7,6.4,1.4,12.7,2,19.1c0.6,5.7-0.1,11.3-1.9,16.8c-2.3,7-4.5,14-6.5,21.1c-3,10.6-5,21.3-5.5,32.3c-0.2,3.7-0.4,7.4-1.2,10.9
	c-2.1,9.3-3.1,18.7-3.6,28.3c0,0.6,0,1.2,0,2.3c1.7-1.2,3-2.1,4.4-3c1.2-0.8,1.6-1.8,1.8-3.2c0.8-5.5,1.5-11.1,2.6-16.6
	c2.7-12.7,5.7-25.4,8.5-38.1c1.3-6.2,2.5-12.4,3.2-18.7c0.9-8.7,1.7-17.4,3.2-25.9c2.6-15.2,4-30.4,3.6-45.8
	c-0.2-8.5-0.3-16.9-0.4-25.4c0-0.3-0.1-0.6-0.1-0.9C364.1,217.8,361.3,218,358.2,218.2z M337.1,396.8c1,0,1.5-0.6,1.5-1.7
	c0.1-1.8,0.3-3.7,0.4-5.5c0.6-6.7,1.3-13.3,2.8-19.9c0.9-4.1,1.7-8.2,1.9-12.3c0.7-13.5,2.7-26.9,6.2-40c1.7-6.3,3.7-12.4,5.5-18.6
	c1.6-5.2,2-10.5,1.5-15.9c-0.8-7.3-1.6-14.6-2.3-21.9c-1.2-13.1-0.3-26,1.6-39c0.2-1.3,0.6-2.6,0.9-4.1c-1-0.1-1.8-0.2-2.5-0.2
	c-2.2,0.2-4.5,0.4-6.7,0.8c-2.8,0.4-3,0.7-3.3,3.5c0,0.5-0.1,1,0,1.4c0.1,2.1,0.4,4.1,0.4,6.2c0,7.6,0,15.2,0,22.8
	c0,3.4,0.1,6.9,0.4,10.3c0.9,9.5,1.7,19,1.4,28.5c-0.3,8.7-0.4,17.4-1.7,26.1c-0.2,1.4,0,2.9,0,4.4c0.2,0,0.3,0.1,0.5,0.1
	c1.3-4.5,2.4-9,4.5-13.2c-0.3,2-0.8,3.9-1.3,5.8c-1.4,5.8-2.6,11.7-4.1,17.5c-2,7.5-4.2,14.9-6.2,22.4c-1.2,4.8-2.4,9.7-3.1,14.6
	c-1.1,7.4,0.2,14.7,1,22C336.8,392.8,337,394.7,337.1,396.8z M259.3,272.8c6,6.8,9.5,14.9,11.3,23.7c6.6-3.8,13-7.5,19.1-11.1
	c1.9-15.2-0.9-29.1-10.2-41.5c-0.1,0.2-0.2,0.4-0.4,0.6c-2.8,4.8-6.4,9-10.1,13.1C265.1,262,261.5,266.8,259.3,272.8z M294.2,550.9
	c-0.1,0-0.2,0.1-0.4,0.1c0,0.9,0,1.9,0,2.8c0.2,9.5,0.4,19-0.4,28.5c-1.2,14.5-5.5,28-12.3,40.8c-1,1.9-2.1,3.9-3.4,6.1
	c1,0,1.6,0.1,2.2,0c3.6-0.5,7.3-0.9,10.9-1.7c5.1-1.1,9.9-3.2,14.4-5.7c0.8-0.5,1.8-1.1,2.1-1.9c1.1-2.9,1.8-6,1.2-9.2
	c-0.5-2.7-0.9-5.4-1.3-8.1c-1.3-8.9-3-17.7-5.9-26.2c-2.1-6.3-4-12.6-5.4-19.1c-0.4-1.6-0.8-3.3-1.2-4.9
	C294.7,552,294.4,551.4,294.2,550.9z M358.4,194.8c-2.6,1.7-7,8.1-9.7,13.9c-1.2,2.7-2.6,5.4-3,8.7c1-0.3,1.6-0.4,2.2-0.6
	c2.3-0.8,4.6-1.3,7.1-1.1c6.5,0.5,12.7-1,18.7-3.1c-1.1-4.6-2.1-9.1-3.2-13.7c-0.5-1.9-1-3.9-1.7-5.7c-1.3-3.5-3.8-5.9-7.1-7.4
	c-3.1-1.4-6.3-2.7-9.5-4c-5.4-2.2-10.9-4.3-15.3-8.2c-0.1-0.1-0.3-0.1-0.5-0.2c-2.3,1.5-4.6,3-7,4.6c0.9,2.3,2.4,3.9,4,5.4
	c3.6,3.4,6.5,7.3,8.1,12c1.3,3.9,2.3,8,3.3,12c0.3,1.2,0.5,2.5,0.7,3.8c0.9-1.1,1.3-2.1,1.8-3.2c1.8-4.3,4.1-8.3,6.9-12
	c1.1-1.4,2.4-2.5,3.8-3.7c0.3-0.3,1.2-0.4,1.5-0.2c0.4,0.3,0.7,1.1,0.7,1.6c-0.2,2.3-1,4.4-2.4,6.4
	C357.9,198.4,358.1,196.8,358.4,194.8z M317.3,211.5c0.7,4.5,1.3,8.5,1.9,12.6c0.2,1.5,0.2,2.8,1.7,3.7c0.7,0.5,1.2,1.5,1.5,2.4
	c0.7,2.2,1.6,4.4,1.8,6.7c0.5,5.6,0.9,11.2,1,16.7c0.2,7.8,0.3,15.7-1.2,23.4c-3.7,18.8-12.7,34.5-27.5,46.8c-4,3.3-8.5,5.6-13.5,7
	c-8.9,2.4-17.8,2.6-26.9,1.2c-5.8-0.9-11.2-2.5-16.2-5.6c-6.2-3.8-11.6-8.6-14.9-15.2c-0.4-0.8-0.8-1.6-1.4-3
	c-0.2,1.9-0.2,3.1-0.4,4.4c-0.3,2.1,0.1,4,1,5.8c2.2,4.4,5.6,7.6,9.6,10.1c3.5,2.2,7.2,4.2,11,5.9c9.2,4.1,18.6,5.6,28.7,3.8
	c4.8-0.9,9.5-2.2,14-4.1c14-5.9,23.8-16.1,30.5-29.5c5.2-10.4,8-21.5,10.3-32.8c2.4-11.4,2.4-22.7-0.1-34
	C326,228.6,322.1,220.1,317.3,211.5z M330.3,137.4c-3,0-5.7,0.2-8.4,0.1c-3-0.1-5.3-1.6-6.5-4.5c-0.6-1.6-1.2-3.3-1.8-4.9
	c-0.3-0.8-0.5-1.6-0.7-2.3c-1.5-0.3-2.1,0.2-2.4,1.5c-0.7,3.1-1.6,6.2-2.5,9.2c-0.6,2.2-2.1,3.9-4.3,4.5c-3.2,1-6.4,2-9.9,1.3
	c-0.4-0.1-0.9,0.1-1.4,0.1c0.2,2.5,0.3,4.8,0.5,7.1c0.3,2.8,0.6,5.6,0.9,8.3c0.3,3.1,2.3,5.3,4.7,6.5c3.1,1.6,6.5,2.7,9.9,3.4
	c6.2,1.2,9.4-0.9,12.4-5.8c0.2-0.3,0.3-0.6,0.4-0.9c2.1-4.7,4.3-9.5,6.3-14.2C329,143.9,329.8,140.6,330.3,137.4z M354.1,723.7
	c-1.4-1.1-2.9-2.2-4.3-3.3c-3.6-2.9-7.6-4.9-12-6.3c-4.7-1.4-9.3-1-14-0.1c-1.2,0.2-2,0.9-2.4,2.1c-1.8,5.2-4.5,10-7.3,14.8
	c-0.8,1.4-1.7,2.7-2.4,4.1c-0.7,1.5-0.4,2.3,0.9,3c6.1,3.4,11,7.9,14.8,13.7c1,1.5,2.1,3,3.2,4.5c0.9-0.5,1.7-0.7,2.2-1.2
	c1.8-1.9,3.6-3.9,5.3-5.8c0-1.3-0.4-2.2-1.5-2.9c-2.5-1.4-3.8-3.8-5.3-6.1c-0.9-1.4-0.9-2.9-0.1-4.3c1-1.7,2-3.3,3.2-4.8
	c2.3-2.9,5.5-3.5,8.7-1.4c1.6,1.1,3.3,2.2,5.1,3.3C350.1,730,352.1,726.9,354.1,723.7z M292.6,537.7c0.2,0,0.4,0,0.6,0
	c0.1-0.8,0.1-1.7,0.2-2.5c0.4-5,0.6-10.1,1.4-15c1.7-10.3,4.5-20.3,7.7-30.2c5.5-17.1,11.3-34.2,17-51.2c3.5-10.2,4.7-20.7,4.8-31.4
	c0.2-17.3-0.8-34.7,0.8-52c0.1-0.7-0.1-1.7-0.6-2.2c-1.8-2.2-4.1-3.8-6.9-4.8c0,0.6,0,1.1,0,1.5c0.4,5.8,0.9,11.6,1.1,17.5
	c0.5,11.8,0,23.5-0.8,35.2c-0.8,12.3-1.5,24.6-3.4,36.8c-2.2,14.2-5.4,28.1-10.7,41.5c-3.1,7.9-6.7,15.6-10.2,23.3
	c-2.5,5.4-4,11.1-5.5,16.8c-0.2,0.6-0.2,1.3,0,1.9C289.6,527.8,291.1,532.7,292.6,537.7z M262.6,749.7c-1.4,1.2-2.4,2.2-3.5,3.2
	c-3.6,3.2-7.4,6.1-11.8,8.2c-3.3,1.5-6.1,1.3-8.7-1.4c-1.6-1.6-3.5-2.8-5.3-4c-0.6-0.4-1.5-0.6-2.2-0.5c-1.7,0.4-3.4,0.9-5,1.6
	c-1.9,0.8-3.3,2.1-3.4,4.5c-0.2,3.1-0.5,6.2-0.8,9.3c-0.2,1.5,0.3,2.4,1.6,3.1c3.8,2.2,7.9,3.5,12,4.7c1.7,0.5,3.6,0.6,5.4,0.6
	c7.9-0.4,15-3.2,21.5-7.4c1.8-1.1,3.1-3.2,4.5-4.9c0.3-0.4,0.3-1.2,0.3-1.8c0-3.7-1.5-7-2.6-10.4C264,753,263.3,751.5,262.6,749.7z
	 M285.7,758.9c-1.5,1.3-3.2,2.9-4.9,4.5c-3.1,2.9-4.5,6.8-1.6,11.1c1.3,1.9,2.7,3,5.1,2.9c4.8-0.3,9.6-0.2,14.4-0.6
	c5.6-0.5,10.8-2.2,15.3-5.6c2.4-1.8,5-3.5,7.4-5.4c2.8-2.1,5.2-4.6,7.4-7.4c-3.3-4.5-5.8-9.4-10-12.9c-0.3,0.2-0.6,0.3-0.7,0.5
	c-3.1,3.3-6.2,6.7-9.4,9.9c-2.2,2.2-4.6,4.2-7,6.2c-1,0.9-2.1,1.1-3.3,0.5c-2.8-1.3-5.7-1.9-8.8-2.3
	C288.3,760,287.1,759.4,285.7,758.9z M180.2,405.8c0.6-3.1,1.1-6.2,1.8-9.3c2.2-9.6,4.4-19.2,6.8-28.7c1.3-5.2,2.5-10.4,4.3-15.5
	c4.3-12.2,7.5-24.6,10.2-37.2c1.8-8.2,2.9-16.5,4.4-24.8c1.6-8.8,3.4-17.6,5-26.4c1-5.7,1.9-11.4,2.6-17.1c0.5-4.4,0.7-8.8,1-13.1
	c0-0.2-0.2-0.4-0.2-0.6c-3.1-0.1-3.1-0.1-3.8,2.7c-0.6,2.6-1.3,5.3-1.7,8c-1.8,12.3-3.6,24.7-5.4,37c-2,13.4-4.4,26.7-7.4,39.8
	c-4.5,20-10.4,39.6-15.9,59.3c-2.4,8.6-5.3,17.1-8,25.6c-0.3,1.1-0.5,2.2-0.8,3.4C175.4,407.9,177.6,406.9,180.2,405.8z
	 M322.2,436.7c-0.2,0-0.3-0.1-0.5-0.1c-0.3,0.9-0.7,1.7-1,2.6c-3.4,10.2-6.5,20.6-10.2,30.7c-4,11.2-7.7,22.5-10.8,34
	c-2.9,10.7-5.1,21.5-5.1,32.6c0,1.5,0.3,3.1,0,4.5c-0.7,3.2,1,5.8,1.8,8.6c0.4-0.7,0.6-1.4,0.7-2.1c0.7-8.4,3.3-16.3,6.1-24.1
	c5.9-16.6,11.9-33.1,14-50.7c0.7-5.5,2-11,1.5-16.6c0-0.5,0.1-1.1,0.2-1.7c0.4-2.4,0.9-4.9,1.4-7.3
	C320.9,443.8,321.6,440.2,322.2,436.7z M332.1,101.3c-5.4-3-10.5-6.2-13.7-11.5c-0.2-0.3-0.6-0.7-0.9-0.7c-1.4,0-2.8,0-4,1.2
	c-5.6,5.7-11.2,11.4-17.1,16.8c-3.3,3-3.2,6.8-4.2,10.7c7.2-2.3,11.1-2.5,13.3-0.9c-0.2,0.3-0.5,0.5-0.7,0.7
	c1.5,0.9,3.1,1.4,4.3,2.5c1.3,1.1,2.4,1,3.7,0.3c0.8-0.4,1.5-0.9,2.2-1.5c3.2-2.8,6.9-4.6,11.1-5.4c2.8-0.5,5.6-0.9,8.6-1.3
	c-0.5-0.9-0.9-1.7-1.5-2.7c-0.4,0.6-0.7,0.9-1.1,1.5C332.1,107.5,332.1,104.5,332.1,101.3z M336.2,114.9c0,0-0.1-0.1-0.3-0.2
	c-0.3-0.1-0.6-0.1-0.9-0.1c-6.6-0.2-12.7,1.1-18,5.4c-0.6,0.5-1.1,1-1.7,1.4c-2.2,1.6-5,1.5-7.3,0c-1.8-1.1-3.6-2-5.6-2.8
	c-2.9-1.2-5.9-1.1-8.9-0.2c-1.1,0.3-1.6,0.8-1.7,1.9c-1,6.7-0.3,13.4,0.7,20c0.6,0.1,1,0.3,1.5,0.4c3.1,0.6,5.8-0.6,8.7-1.3
	c1.9-0.5,3.1-1.7,3.7-3.4c0.6-1.5,1-3,1.5-4.6c0.8-2.4,1.7-4.8,2.4-7.1c3.6-0.5,3.7-0.4,4.9,2.7c0.7,1.9,1.5,3.7,2.2,5.6
	c0.6,1.5,1.8,2.6,3.4,2.7c2.5,0.1,5.1,0.2,7.6,0c2-0.2,3.5-1.4,4.6-3.2c1.7-2.8,2.7-5.8,2.7-9.1c0-1.6-0.2-3.2-0.1-4.8
	C335.6,117.2,336,116.2,336.2,114.9z M300.9,741c0.6,0,1.1-0.1,1.7-0.1c4.3-0.6,4.2-0.7,6.8-4.2c1.8-2.5,3.5-5.1,4.6-8.1
	c2.6-7,5.4-14,8.2-21c0.2-0.4,0.3-1,0.1-1.4c-1.6-2.8-3.2-5.7-6.6-6.5c-5.8-1.4-11.5-1.4-16.9,1.6c-0.1,1-0.3,2-0.3,2.9
	c0.1,2.7,0.2,5.4,0.4,8.1c0.7,9.4,2.2,18.7,1.8,28.2C300.7,740.6,300.7,740.6,300.9,741z M221.9,286.3c-0.1,0-0.3-0.1-0.4-0.1
	c-0.5,3.6-1.1,7.2-1.5,10.9c-1.9,15.2-4.3,30.2-8,45.1c-3.4,13.6-6.7,27.3-10,41c-1.6,6.8-2.2,13.7-1.8,20.7c0,1,0.1,1.8,1,2.5
	c3.6,2.5,5,6.3,5.6,10.5c0.1,1-0.3,1.5-1,1.9c-1.1,0.5-2.2,0.9-3.3,1.4c0,0.3,0,0.6,0,0.8c1.5,4.4,2.9,8.8,4.5,13.1
	c0.2,0.7,0.8,1.3,1.1,1.9c0.4-1,0.5-1.7,0.4-2.5c-0.4-7.5-1.1-15-1.3-22.5c-0.3-11.3,0.8-22.5,1.9-33.7c0.5-4.9,1.4-9.7,3.2-14.2
	c0.8-2.1,1.6-4.1,1.4-6.5c-0.1-1.1,0.2-2.2,0.4-3.3c1-4.2,2.1-8.4,3.1-12.6c2.6-11.2,4.2-22.5,4.7-33.9
	C222.1,299.9,221.9,293.1,221.9,286.3z M289.8,536.1c0.6,32.5-5.3,63.5-22.2,92.2c1,0.1,1.7,0.2,2.4,0.3c0.6,0.1,1.2,0.2,1.8,0.2
	c1.1,0.1,2.2,0.3,3.3,0.3c0.5,0,1.3-0.4,1.5-0.8c2.7-4.8,5.9-9.3,7.9-14.5c5.3-13.6,8.2-27.7,8.1-42.4c0-6.7-0.1-13.4,0.3-20.1
	C293.3,545.9,291.6,541.1,289.8,536.1z M333.8,92c2.7-1.7,5.3-3.4,7.8-5c1.6-1,3.2-1.8,4.8-2.8c2.6-1.6,2.7-3,0.4-5
	c-0.9-0.8-2-1.3-3.1-1.6c-1.4-0.4-2.8-0.5-4.3-0.5c-3,0.1-5.9,0.3-8.8,0.6c-10.8,1.1-21.4,3.6-32,6.1c-9.7,2.3-18.5,6.6-25.9,13.4
	c-0.6,0.5-1.1,1.1-2.1,2c1-0.2,1.5-0.3,1.9-0.4c1.9-0.8,3.8-1.6,5.7-2.4c13.3-5.5,27.1-8.6,41.4-9.6C325.1,86.4,330.2,87.6,333.8,92
	z M269.4,763.3c2.2-1.9,4.4-3.9,6.4-5.8c-0.8-1.6-1.7-3-2.3-4.4c-1-2.5-0.3-4.8,1.6-6.2c1.8-1.3,4.5-1.2,6.4,0.6
	c1.2,1,2.1,2.4,3.1,3.6c0.1,0,0.2,0,0.4,0c2.5-0.9,3.9-3.2,5.8-4.8c0.8-0.6,0.8-1.8,0.2-2.9c-3.3-5.7-6.7-11.3-12.2-15.2
	c-0.9-0.6-1.8-1.1-2.6-1.6c-1.8,3.2-3.2,6.3-5.2,8.9c-2,2.7-4.7,4.8-7.1,7.2c0.5,0.2,1,0.5,1.7,0.8c-0.8,0.9-1.4,1.6-2,2.2
	C265.6,751.6,267.5,757.4,269.4,763.3z M338.9,345.2c0.2,0,0.3,0,0.5,0c0.9-3.3,1.9-6.6,2.7-9.9c0.7-2.7,1.4-5.5,1.5-8.2
	c0.7-10.7,1.4-21.4,1.5-32.1c0.1-8.7-0.5-17.4-1.2-26.1c-0.7-8.4-1.1-16.7-0.8-25.1c0.1-2.8,0-5.5,0-8.3c-0.6,2.4-1.1,4.9-1.3,7.3
	c-0.3,4.5-0.5,9.1-0.8,13.6c-0.6,10.5-1.4,21-1.9,31.6c-0.4,8.8-0.6,17.6-0.8,26.4c-0.1,2.8-0.3,5.6-0.2,8.4
	c0.1,6.9,0.3,13.7,0.5,20.6C338.8,344,338.8,344.6,338.9,345.2z M250.2,339.6c0-0.1,0-0.2,0-0.3c-0.6-0.3-1.3-0.5-1.9-0.8
	c-5.1-2-10-4.3-14.6-7.2c-4.4-2.8-8.3-6-10.7-10.8c-0.1-0.2-0.3-0.2-0.6-0.4c-0.2,1.1-0.3,2-0.5,2.9c-1.1,6-2.1,12.1-3.4,18.1
	c-0.9,4.5-2.1,8.9-3.1,13.3c-0.2,0.8-0.2,1.6-0.3,2.5c0.4,0,0.5,0,0.5,0c0.7-0.8,1.5-1.7,2.2-2.5c6.7-7.8,15.1-12.6,25.4-14
	C245.7,340.2,247.9,339.9,250.2,339.6z M334.9,756.7c0.2,0.2,0.3,0.3,0.5,0.5c4.7-2.2,9.4-4.4,14-6.7c1.5-0.8,3-1.9,4.3-3
	c3.7-3.1,6.4-7.1,9.2-11c1.5-2.1,2.8-4.4,4.2-6.7c0.6-1,0.5-1.9-0.2-2.9c-1.6-2.4-3.1-5-4.6-7.5c-0.4-0.6-0.8-1.3-1.1-1.9
	c-1.2,2.1-2,4.2-3.4,5.9c-4.2,5.2-7.7,10.8-11,16.5c-2.6,4.5-5.1,9.2-8.8,13c-0.6,0.6-1.3,1.2-1.8,1.9
	C335.5,755.4,335.2,756.1,334.9,756.7z M299.1,742.6c-1-3.4-0.2-6.9-0.6-10.2c-0.4-3.3-0.6-6.7-0.9-10.1c-0.4,0.8-0.4,1.7-0.5,2.5
	c-0.3,2.3-0.8,4.6-0.9,6.8c-0.2,4.6-1.1,9.1-2.6,13.3c-1.3,3.7-3.6,7.1-5.5,10.6c-0.4,0.7-0.9,1.3-1.4,2.1c1.1,0.2,1.9,0.3,2.8,0.5
	c2.6,0.6,5.4,0.9,7.9,1.8c1.9,0.7,3.1,0.4,4.5-0.8c4.6-4.1,9.3-8,14-12.1c0.8-0.7,1.3-1.7,2-2.8c-2.6-2-4.6-4.1-7.5-5.6
	c-0.7,3.7-3.4,3.8-6.1,3.6c-0.9,0-1.8-0.1-2.6-0.1C300.9,742.3,300.2,742.4,299.1,742.6z M258.6,268.4c2-3.6,4.4-6.9,7.1-10
	c4-4.6,8-9.1,12-13.7c1.7-2,1.6-2,0.4-4.3c-2.8-5.5-5.6-11.1-8.4-16.7c-0.2-0.5-0.5-0.9-1-1.9C263.8,237.3,259,252.4,258.6,268.4z
	 M326.1,355.3c-0.1,1-0.2,1.5-0.2,2.1c0.1,12.3,0.2,24.6,0.3,36.9c0.1,8.7,0.1,17.4-1.2,26.1c-0.4,2.5-0.8,5-1.3,7.5
	c0.1,0.1,0.3,0.1,0.4,0.2c1.2-2.4,2.5-4.7,3.9-7.4c-1.7-0.9-0.9-2.2-0.4-3.5c0.6-1.6,1.4-3.2,2.1-4.9c-3-5.4-1.6-8.4,2.1-12.1
	c0.7-0.7,1.6-1.1,2.4-1.6c0.5-0.3,1-0.7,1.5-1c-2-10.7-3.1-21.3-1.1-32C330.5,363.3,329.6,358.5,326.1,355.3z M292.5,282.9
	c0.1,0.1,0.3,0.3,0.4,0.4c0.8-0.6,1.7-1.1,2.5-1.7c5.7-4.5,11.5-8.9,17.1-13.6c3.3-2.8,6.2-6,9.3-8.9c1.1-1,1.5-2.2,1.4-3.7
	c-0.2-4.9-0.2-9.9-0.7-14.8c-0.3-3-1.1-5.9-1.8-8.9c-0.2-0.8-0.7-1.5-1-2.3c-0.6,1.4-0.7,2.8-0.9,4.1c-0.9,6.9-2.7,13.6-6,19.8
	c-5,9.2-10.6,18-17.6,25.9C294.3,280.4,293.4,281.7,292.5,282.9z M355.4,722.4c1.7-1.8,2.5-3.9,2.9-6.2c0.2-1.3-0.2-2.4-1-3.5
	c-4.6-6.4-9.2-12.8-13.8-19.2c-0.7-1-1.5-1.8-2.4-2.6c-0.3-0.3-0.9-0.2-1.6-0.3c0.4,0.8,0.6,1.3,0.8,1.8c0.2,0.6,0.5,1.2,0.6,1.8
	c1.4,4.8-0.8,9.6-5.4,11.6c-2.7,1.2-5.6,1.3-8.5,0.9c-0.6-0.1-1.2-0.2-1.8-0.3c-0.9,2.1-1.7,4-2.8,6.4c6.3-2.1,12.1-2.1,17.8-0.2
	C346.2,714.5,351.2,717.6,355.4,722.4z M275.3,760.8c-2.8,2.4-5.1,4.5-6.8,7.1c-1.6,2.4-3.5,4.6-6.1,6c-4.1,2.3-8.4,4.3-13,5.5
	c-4.4,1.2-8.9,2.3-13.5,1.1c-4.9-1.2-9.7-2.8-14-5.4c-0.4-0.3-0.9-0.4-1.5-0.6c0,1.8,0,3.4,0,5c0,1.3,0.6,2.1,1.7,2.6
	c2.3,1.1,4.6,2.3,7,3.2c5.7,2,11.6,2.5,17.4,0.5c8-2.8,15.6-6.6,22.5-11.6C273.5,771.1,275,766.6,275.3,760.8z M357.2,426.4
	c0.9-4,1.8-7.8,2.6-11.5c-1.3-1-2.7-1.9-4-3c-2-1.6-4.2-2.9-6.7-3.5c-4.6-1.3-9.2-0.8-13.7,0.1c-0.7,0.1-1.5,0.5-1.8,1
	c-1.4,2.3-2.8,4.6-3.4,7.3C340.8,415.8,349.1,420.6,357.2,426.4z M175.5,462.2c-0.2,0.1-0.5,0.2-0.7,0.3c0.1,1.7,0.3,3.3,0.4,5
	c0.7,12.3,1.4,24.5,2.1,36.8c0.2,3,0.4,6.1,0.7,9.1c0.3,2.5,3.1,3.8,5.3,2.5c2.5-1.5,2.8-2.3,2.3-5.3c-1.4-8.7-2.8-17.3-4.2-26
	c-0.6-4-1.4-8-2.8-11.9c-1-2.8-1.5-5.7-2.4-8.5C176.2,463.4,175.8,462.8,175.5,462.2z M289.2,659c0.3,2,0.6,4.1,0.9,6.1
	c0.8,6.3,1.4,12.7,2.5,19c1.2,6.9,2.4,13.8,3,20.9c0.2,2.8,0.5,5.6,0.8,8.5c0.2-1.3,0.2-2.6,0.2-3.9c0.1-2.3,0.1-4.6,0.3-6.9
	c0.2-1.7,1-3.1,2.9-3.7c2.2-0.7,4.2-1.7,6.3-2.6c-2.6-6.4-5.2-12.8-7.9-19C295.5,671.1,293.1,664.7,289.2,659z M330.2,168.4
	c-4.8,1.8-9.3,3.7-14,5.3c-4.7,1.6-9.4,3.4-14.9,3.2c1.4,2.8,2.7,5.2,3.9,7.6c5-0.1,24.6-8.2,29.8-12.2
	C333.4,170.9,331.8,169.6,330.2,168.4z M324.8,766.6c-0.8,0.4-1,0.5-1.3,0.7c-2.6,1.9-5.2,3.7-7.7,5.6c-5.7,4.2-12.2,6.2-19.2,6.5
	c-5.6,0.2-11.2,0.8-16.9-0.5c0.1,0.9,0.2,1.5,0.3,2.1c0.5,3,0.7,3.3,3.7,3.1c8-0.5,15.9-1,23.9-1.6c2.3-0.2,4.4-0.9,6.3-2.2
	c1.4-1,2.9-2,4.1-3.3C320.6,774.1,322.7,770.6,324.8,766.6z M366.6,369.7c5.9-13.7,8.1-27.7,5.5-42.3c0,0-0.2,0.1-0.3,0.2
	c-0.9,4.9-3.2,9.3-5,13.9c-1.8,4.4-2.4,9-1.9,13.6C365.4,359.9,366,364.7,366.6,369.7z M234.1,753.9c1.9,1.2,3.6,2.3,5.3,3.5
	c3.8,2.7,4,2.7,8.2,0.6c0.1-0.1,0.3-0.2,0.4-0.2c5-2.5,9-6.2,13-10.1c0.2-0.2,0.2-0.5,0.6-1.3c-1.9,0.7-3.5,1.3-5,1.9
	c-3,1.2-5.4,0.5-7.6-1.8c-0.8-0.9-1.6-1.7-2.5-2.6c-2,1.9-3.8,3.8-5.9,5.4C238.6,751.1,236.4,752.4,234.1,753.9z M279.7,64.8
	c5,0,8.4-2.7,11.2-6.5c0.5-0.7,0.8-1.6,1-2.4c0.5-2.1-1.5-4.2-3.6-3.8c-5.3,1.2-10.4,3.2-15,6.1c-1.6,1-1.8,1.6-1,3.4
	c0.6,1.3,1.7,2,2.9,2.3C276.7,64.3,278.2,64.5,279.7,64.8z M335,363c0.7-3.5,1.6-6.4,1.2-9.5c-0.3-2.7-1.5-4.5-3.8-5.6
	c-1.7-0.8-3.5-1.6-5.4-2c-12.2-2.9-24.5-5.2-37.2-5.2c-1,0-2,0-3,0c0,0.2,0,0.4,0,0.7c0.9,0.1,1.8,0.2,2.7,0.3
	c3.7,0.2,7.4,0.2,11,0.5c6.4,0.5,12.7,1.5,18.5,4.3c3.1,1.5,5.9,3.3,8,6c1.9,2.5,3.8,5.2,5.6,7.7C333.4,360.9,334,361.7,335,363z
	 M347.5,734.3c-2.5-1.2-4.7-2.5-7.1-3.3c-1.8-0.6-3.9,0-5.1,1.3c-1.3,1.4-1.9,3.5-2.6,5.3c-0.2,0.4,0,1.2,0.3,1.6
	c1.8,2.6,3.6,5,5.4,7.6c0.2,0.3,0.4,0.7,0.7,1.3C342.4,743.4,344.8,738.9,347.5,734.3z M294.9,727.1c-3.5,2.5-6.3,1.5-8.9-0.9
	c-0.5-0.4-1-0.8-1.5-1.2c-1-0.7-1.9-1.5-2.9-2.1c-1.2-0.7-2.5-0.5-3.7,0.1c-0.9,0.4-1.4,1-1.3,1.9c2,1.2,3.9,2.3,5.7,3.6
	c3.5,2.4,6.1,5.6,8.2,9.3c0.6,1,1.3,1.9,2.1,3.2C294.2,736.3,294.8,731.9,294.9,727.1z M222.9,211c-0.3,0.9-0.7,1.8-1,2.7
	c-1.9,5.4-4.5,10.4-7.2,15.4c-0.4,0.8-0.7,1.6-1.3,2.8c3.6-0.7,6.6-1.2,9.6,0.2C224,229.1,224.1,215.8,222.9,211z M200.4,414.6
	c-0.2-1.3-0.4-2.7-0.6-4c-0.4-3.6-0.7-3.9-4.3-4.3c-0.8-0.1-1.6-0.1-2.4-0.1c-2.9,0.2-5.7,0.4-8.6,0.7c-2.3,0.3-4.6,0.7-6.8,1.2
	c-1.3,0.3-2.8,0.7-3.6,2.1c1.3,0.9,2.6,1.8,4,2.8c3.1-2.7,6.8-4.3,11.1-3.9C193.6,409.6,196.9,412.1,200.4,414.6z M331.2,410.5
	c2.5-4.3,6.9-4.5,11.1-5.3c-1.1-3.7,0.3-6.8,1.4-10.1c-3.4,2-6.5,3.8-9.6,5.8c-1,0.6-1.8,1.6-2.5,2.5
	C329.8,405.6,329.7,407.8,331.2,410.5z M332.2,99.9c1.3-2.5,1.4-4.7-0.4-7c-2.5-3.1-8.4-5-12.4-3.6c0.3,0.4,0.6,0.7,0.9,1.1
	C323.5,94.5,328.4,96.5,332.2,99.9z M283,752.7c-0.3-0.8-0.6-1.3-0.8-1.9c-0.3-1.2-0.9-1.8-2.1-1.8c-0.4,0-0.8-0.2-1.1-0.3
	c-2.3-0.7-3.9,0.4-3.8,2.9c0,1.9,0.7,3.5,1.7,5.3C278.9,755.4,281,754,283,752.7z M288.7,750.8c-0.5,0.2-0.8,0.2-0.9,0.3
	c-1.5,1.3-2.9,2.7-4.5,3.9c-1.2,1-2.6,1.8-3.9,2.7c-0.5,0.4-1,0.9-1.1,1.4c-0.2,1.2-0.2,2.4-0.3,3.9
	C282.3,759.4,286.2,756,288.7,750.8z M364.3,411.3c-0.6-3.2-1.3-4.7-2.6-5.9c-0.5,1.5-0.7,3.2-1.5,4.7c-0.7,1.4-0.6,2.3,0.6,3.4
	C362,412.8,363.2,412,364.3,411.3z M200.5,408.6c0.8,2.9,1.6,5.9,2.4,9c0.7-0.3,1.2-0.6,1.7-0.8C204,412.5,203,410.4,200.5,408.6z
	 M256.5,269.4c0.4,0.4,0.8,0.8,1.4,1.3C258.4,269,257.3,269.3,256.5,269.4z"/>
<path d="M338.8,469c-1.7,0.1-3.3,0.2-5,0.2c-1.2,0-1.9,0.3-2.6,1.2c-1.2,1.4-2.6,2.6-4,3.8c-0.4,0.4-0.9,0.7-1.4,0.9
	c-1,0.5-2,1.1-3.2,0.3c-1.2-0.8-0.9-2-0.7-3.1c0.2-1.1,0.5-2.2,1-3.2c2.2-3.6,2.7-7.7,3.6-11.6c1.4-6,1.7-12.2,2.3-18.3
	c0-0.4,0.2-0.8,0.6-1.3c0.1,0.4,0.2,0.8,0.2,1.3c0.7,9.1-0.8,17.9-3.7,26.4c-0.5,1.4-1.3,2.7-2.1,4c-0.7,1.4-1.2,2.7-0.7,4.6
	c1-0.5,2-0.9,2.8-1.5c3.5-2.5,6.1-5.8,7.7-9.9c0.9-2.4,1.7-4.8,2.6-7.2c0.6-1.6,1.3-3.2,2.1-5.3c0.2,2.7-1.6,8.1-5.6,17.5
	c3.3,0,7.1-2.2,8.6-4.9c1-1.9,2.1-3.9,3.2-5.8c-0.6,3-1.5,5.8-3.1,8.4c-0.5,0.8-1.6,1.2-2.5,1.8C338.7,468,338.2,468.3,338.8,469
	C338.7,469,338.8,469,338.8,469z"/>
<path d="M188.3,489.7c1.8-0.9,3.6-1.8,5.8-3C192.7,488.5,190.9,489.5,188.3,489.7z"/>
<path class="st0" d="M201.7,586.6c-1.1-1.2-2.3-2.5-3.5-3.7c-1.2-1.2-1.7-2.6-1.4-4.3c2-11.4,3.8-22.9,7.4-34
	c3-9.3,4.6-18.8,5.7-28.4c0.9-7.9,1.9-15.7,2.7-23.6c1-10.2,1.8-20.4,1.1-30.7c-0.5-7.7-1.7-15.4-2.4-23.1c-0.4-4.3-0.7-8.6-1-12.9
	c-1.2-13.8-0.5-27.7,0.3-41.5c0.4-7,1.4-14,3.1-20.8c0.4-1.5,1-2.7,2-4c2.9-3.6,6.2-6.7,9.8-9.5c5.6-4.4,12-6.9,19.1-7.7
	c5.1-0.6,10.2-0.7,15.3-0.6c6.1,0.1,12.1-0.4,18.2-0.6c1.8-0.1,3.6,0.1,5.4,0.6c3,0.9,6.1,1.2,9.2,1.6c5.6,0.7,11.3,1.2,16.9,1.9
	c1.9,0.2,3.7,1,5.5,1.5c1.1,0.3,1.7,1,1.7,2.3c0.1,4.5,0.3,9,0.4,13.4c0.2,9.7,0.5,19.4-0.1,29c-0.9,13.6-1.1,27.3-2.8,40.9
	c-2.1,16.6-5.3,33-11.6,48.6c-2.7,6.7-6,13.1-8.8,19.7c-2.2,5.1-3.9,10.3-5.9,15.4c-0.2,0.4-0.3,0.8-0.9,1.2
	c-1.2-4.6-2.3-9.2-3.5-13.8c-0.2,0-0.3,0.1-0.5,0.1c0.4,2.3,0.8,4.5,1.2,6.8c1.2,5.9,2.6,11.7,3.8,17.6c0.3,1.2,0.5,2.5,0.5,3.8
	c-0.2,7.4-0.3,14.9-0.7,22.3c-0.5,10.1-2.6,20-4.6,29.8c-1.8,8.4-4.2,16.6-7.3,24.6c-2.6,6.5-6,12.5-9.5,18.6
	c-0.2,0.3-0.4,0.5-0.7,0.9c-4.8-1-9.6-2.1-14.4-3.1c-9-1.9-17.9-4.1-27-5.7c-6.1-1.1-12.4-1.2-18.6-1.8c-2.3-0.2-4.6-0.3-6.9-0.6
	c-2.5-0.3-3.1-1-3.6-3.4c-0.5-2.3-0.4-4.6,0.4-6.8c1.8-4.5,3.5-9.1,5.5-13.5c3.5-7.6,6.8-15.2,9.3-23.1c2.7-8.5,4.3-17.2,5.7-26
	c0.9-5.4,1.6-10.8,2.3-16.1c0.2-1.3,0-2.6-0.1-3.9c-0.5,3-0.8,6-1.5,8.9c-2,9.8-4,19.6-6.3,29.3
	C208.4,570.7,205.3,578.7,201.7,586.6C201.6,586.6,201.7,586.6,201.7,586.6z"/>
<path class="st0" d="M259,124.7c0.3,5.3,0.7,10.6,1,15.9c0.1,0,0.3,0,0.4,0c0.1-0.5,0.3-1,0.3-1.4c-0.1-6.2-0.1-12.3-0.4-18.5
	c-0.2-3.1-0.9-6.2-1.5-9.2c-0.2-0.9-0.2-1.6,0.4-2.2c1.2-1.3,2.4-2.6,3.7-3.7c1-1,2.2-1.8,3.3-2.7c0.4-0.3,0.8-0.6,1.2-0.8
	c4.1-1.5,8.3-2.8,12.4-4.4c10-3.8,20.2-6.6,30.8-7.9c0.4,0,0.7,0,1.3,0.3c-5,4.6-10.1,9.2-15.1,13.8c-0.1-0.1-0.2-0.1-0.3-0.2
	c0.3-1,0.5-2.1,0.9-3.7c-0.7,0.7-1,1-1.2,1.3c-1.6,3.3-3.5,6.5-4.7,10c-1,3-1.3,6.2-1.8,9.4c-0.7,4.9-0.5,9.9,0,14.8
	c0.6,5.3,1,10.7,1.3,16c0.4,7.7,2.1,15,5.8,21.8c5.6,10.4,10.6,21,15.2,31.8c3.7,8.7,5.5,17.7,4.5,27.1c-0.6,5.9-2.1,11.6-4.5,17.1
	c-3.7,8.4-8.3,16.4-13.2,24.2c-1.5,2.5-4,3.8-6.3,6.1c-0.1-1.2-0.2-1.9-0.2-2.6c0-4.2,0-8.5-0.9-12.6c-0.9-3.9-2.2-7.7-4.1-11.2
	c-2.8-5.3-5.8-10.5-8.6-15.8c-2.9-5.6-5.8-11.2-8.4-17c-3.2-7.2-5.3-14.7-7.2-22.3c-1.2-4.6-2.1-9.4-3.1-14
	c-0.1-0.6-0.3-1.2-0.8-1.8c0.1,1.4,0.2,2.8,0.4,4.2c1.5,10.7,4.3,21,7.7,31.1c0.5,1.5,0.5,2.8-0.2,4.3c-4.4,10.1-7.3,20.6-9.2,31.4
	c-0.7,4-1,8.1-1.5,12.1c-0.1,0.5-0.2,0.9-0.3,1.8c-1.1-1-1.9-1.7-2.6-2.5c-5.1-6.1-7.5-13.2-8.6-21c-1.4-10,1-19.5,3.6-29
	c1.1-4.1,2.3-8.1,3.5-12.2c0.3-0.9,0.4-1.9,0.3-2.9c-0.3,0.6-0.6,1.1-0.8,1.7c-2.3,7.4-4.9,14.7-6.9,22.2c-2.5,9.9-3.6,20-3.4,30.2
	c0.2,6.7,1.7,13.1,4.2,19.3c0.3,0.7,0.6,1.4,0.5,2.4c-0.7-1-1.4-1.9-2.1-2.9c-2.9-4.2-5.6-8.4-7.7-13c-2.4-5.2-3.6-10.6-4.2-16.2
	c-1.5-14.1-0.6-28.1,3.1-41.9c4.4-16,9-32,13.6-48c1.2-4.1,3-8.1,4.4-12.2c1.8-5.1,3.4-10.3,5-15.5c0.1-0.4,0.2-0.9,0.3-1.3
	C258.7,124.7,258.8,124.7,259,124.7z"/>
<path class="st0" d="M337.1,347.9c-4.6-3.8-9.8-5.1-14.9-6c-7.1-1.3-14.2-2.5-21.3-3.3c-5-0.5-10.1-0.3-15.1-0.3
	c-0.5,0-1.1,0.1-1.9,0.1c0.6-0.9,1.4-1,2.1-1.3c8-3,15-7.4,21-13.5c4.7-4.7,8.6-10.1,11.7-16c5.6-10.7,8.7-22.3,11.2-34
	c1.7-7.8,2.5-15.6,2-23.6c-0.9-12.6-4.3-24.4-10.5-35.3c-1.4-2.4-2.7-4.9-4.2-7.3c-0.7-1.1-1.7-2.1-2.5-3.1
	c-0.3-0.4-0.6-0.7-0.8-1.2c-2.5-5.4-5-10.9-7.5-16.4c-0.1-0.2-0.1-0.4-0.2-0.9c7.3-1.5,14.2-4.1,21-7c1,1.5,1.9,3,3,4.3
	c1.1,1.3,2.3,2.4,3.5,3.6c4.8,5.2,7.2,11.6,8.7,18.4c0.4,2,0.7,3.9,1,5.9c0.7,4.7,0.5,9.4-0.7,14c-2.9,11.8-3.7,23.8-4.1,35.9
	c-0.3,8.3-1.2,16.6-1.4,24.9c-0.4,11.7-0.5,23.5-0.6,35.3c0,7.8,0.3,15.7,0.5,23.5C337.2,345.6,337.1,346.5,337.1,347.9z"/>
<path class="st0" d="M264.1,330.8c0.2-1.2,0.4-2.1,0.4-2.9c-1.5-15.3-6.2-29.3-15.5-41.7c-3.7-5-7.5-10-11.2-14.9
	c-5.9-7.7-10.2-16.2-13.3-25.4c-0.3-0.9-0.4-2-0.4-3c0.3-3.6,0.8-7.2,1-10.7c0.2-4,0.2-8,0.2-12c-0.1-4.1-0.4-8.1-0.6-12.2
	c-0.2-3.8,0.9-6.9,3.7-9.4c2.1-1.9,4.2-3.9,6.6-5.8c-0.2,0.9-0.4,1.8-0.6,2.6c-1.8,7.3-3.5,14.6-4.3,22.1c-0.6,5.7-0.9,11.3-0.3,17
	c0.7,7.1,1.5,14.1,2.5,21.2c0.5,3.5,2.1,6.5,4.4,9.2c1.8,2.2,3.2,4.8,5.1,7c2.8,3.3,5.9,6.4,9.1,9.5c-0.3-2.5-1.2-4.9-2.3-7.1
	c-3.6-7.8-5.1-15.9-5-24.5c0-0.5,0.1-0.9,0.4-1.5c0.1,0.4,0.3,0.7,0.3,1.1c1,5.2,2.7,10,6.2,14.1c2.7,3.2,4.8,7,7.6,10.2
	c4.6,5.4,7.7,11.6,9.6,18.3c3.1,11.2,4.8,22.7,4.8,34.3c0,1.4,0,2.7,0,4.3c-0.8,0.1-1.6,0.2-2.3,0.3c-6.5,0.3-13-0.2-19.2-2
	c-11-3.2-19.6-9.6-25.1-19.8c-1.4-2.7-2-5.4-1.9-8.5c0.1-5.3,0-10.6-0.4-15.8c-0.8-10.8-0.2-21.6,0.1-32.4c0-0.8,0.2-1.5,0.6-2.3
	c0.3,0.5,0.6,1,0.8,1.6c3.3,9.2,8.2,17.4,14.4,25c3.8,4.6,7.3,9.5,10.6,14.5c6.5,9.7,10.3,20.5,12,32.1c0.2,1.7,0.4,3.3,0.6,5
	C262.5,329.4,262.5,329.4,264.1,330.8z"/>
<path class="st0" d="M244.8,626.2c3.3,0.8,6,1.5,8.8,2c5.5,1.1,11,2.1,16.5,3.2c1,0.2,1.8,0.4,2.4,1.3c4.4,6.6,8.8,13.1,13.3,19.7
	c1.1,1.6,1.6,3.2,1.8,5.1c0.8,8.3,1.6,16.5,2.6,24.8c0.6,4.8,1.7,9.4,2.4,14.2c0.8,6,1.2,12.1,1.9,18.1c0.2,1.9,0.8,3.7,1,5.6
	c0.1,1.4-0.1,2.8-0.2,4.2c0,0.3-0.4,0.7-0.7,0.9c-1.9,1.2-4.9,1-6.7-0.4c-0.8-0.6-1.6-1.3-2.4-1.9c-3.1-2.4-3.8-2.6-7.7-1.9
	c0-0.7,0-1.4,0-2.1c-0.2-2.5-0.2-5.1-0.5-7.6c-0.6-4-3.1-5.8-7.1-5.4c-2.1,0.2-4.1,0.7-6.2,1c-0.2-2.4-0.4-4.8-0.5-7.1
	c-0.5-7.2-2-14.2-3.8-21.2c-2.2-8.8-4-17.6-6-26.4c-1.7-7.5-3.6-14.9-7-21.9C245.9,629.2,245.5,627.9,244.8,626.2z"/>
<path class="st0" d="M274.1,631.9c12.7,0.4,24.1-2.8,34.8-9.2c1,2.5,1.8,5,2.9,7.4c2.8,6.7,5.5,13.5,8.6,20
	c4.4,9.5,7.3,19.4,10.6,29.3c0.9,2.7,1.7,5.3,2.8,7.9c0.9,2.1,1.9,4.2,4,5.5c0.4,0.3,0.7,0.9,0.9,1.4c1.5,4-0.7,8.5-4.8,9.9
	c-2.6,0.9-5.3,1.1-8.1,0.7c-0.6-0.1-1.4-0.5-1.7-1.1c-3.2-5.3-7.8-7.5-13.9-7.1c-0.9,0.1-1.7,0-2.6,0c-3.1-10-7.4-19.3-11.3-28.8
	c-2.5-6.2-5.5-12.1-9.3-17.6c-3.9-5.6-7.8-11.1-11.7-16.7C275,633.2,274.7,632.8,274.1,631.9z"/>
<path class="st0" d="M217.1,232.5c2.3,0.6,4.1,1.1,6,1.6c-0.1,1.5-0.2,2.7-0.3,3.8c-1.1,11.5-1.4,23-1.5,34.5c0,2.6-0.4,5.2-0.7,7.8
	c-1.3,9.3-2.8,18.5-4.1,27.7c-2.5,17.4-6.6,34.5-10.9,51.5c-2.3,9-4.3,18.2-6.2,27.3c-1.1,5.2-1.4,10.5-1.1,15.7c0,0.6,0,1.3,0,1.9
	c-5.3,0.3-10.6,0.6-16.1,0.9c0.1-1,0-2,0.2-3c0.6-3.3,1.3-6.6,2.1-9.8c2.1-9,4.1-18.1,6.4-27.1c1.2-4.9,2.6-9.7,4.2-14.5
	c4-11.9,7.2-24,10.1-36.2c2.2-8.9,3.5-17.9,5.1-26.8c1.8-10,3.8-19.9,5.7-29.9c0.9-4.7,1.3-9.5,1.3-14.3
	C217.1,240.3,217.1,236.7,217.1,232.5z"/>
<path class="st0" d="M350.6,388c-0.8,0.4-1.6,0.9-2.6,1.4c-0.2-2.9,0.3-5.6,0.8-8.2c1.5-7.1,3.2-14.2,4.7-21.3
	c2.8-13,5.7-25.9,8.2-38.9c1.1-5.8,1.4-11.7,2.2-17.6c1.1-8.2,2.4-16.4,3.7-24.7c2-13.3,2.3-26.6,1.6-40c-0.3-6.6-0.7-13.2-1.1-19.9
	c0-0.6,0-1.1,0-1.7c1.7-1,3.6-1.4,5.5-1.7c0.8-0.1,1.4,0.2,1.6,1.1c0.3,1.5,0.7,3,0.9,4.4c0.7,7.5,0.5,15,0.3,22.5
	c-0.2,6.8-0.4,13.6-0.8,20.4c-0.4,6.3-1.1,12.6-1.5,18.9c-0.5,7.9-1,15.8-1.3,23.7c-0.2,5.1,0,10.2-0.1,15.4c0,1.1-0.4,2.1-0.7,3.2
	c-0.4,1.4-0.9,2.7-1.4,4.1c-1.6,3.8-3.1,7.5-4.8,11.3c-2.6,5.6-3.1,11.5-2.3,17.6c0.9,6.1,1.6,12.2,1,18.4c-0.1,1.2-0.2,2.4-0.6,3.5
	c-1.1,2.9-2.3,5.8-3.4,8.7c-1.1,2.8-2.2,5.5-1.9,8.6c0.2,1.7,0.6,3.5,0.8,5.2c0.3,2.2,0.3,4.5-0.7,6.6c-0.2,0.4-0.5,0.8-0.9,1.4
	c-3.9-3.1-8.1-4.9-13.1-4.7c-1.1-3.3-0.5-6.4,0.8-9.4c1.3-2.9,2.6-5.8,5.6-7.6C350.9,388.3,350.7,388.1,350.6,388z"/>
<path class="st0" d="M323,259.6c0.1,0.6,0.2,0.9,0.2,1.2c0.3,22.4-7.4,41.4-23.4,57.1c-1.4,1.4-2.9,2.7-4.4,4
	c-6.1,5.1-13.2,7.6-21.2,8.4c0-1.1,0-2,0-3c0.2-9-0.9-17.9-2.7-26.7c-0.3-1.4,0.1-2.3,1.2-3c2.1-1.4,4.2-2.9,6.5-4.1
	c12.8-6.5,24.3-14.8,34.7-24.6c2.5-2.3,4.8-4.9,7.2-7.4C321.7,261.1,322.2,260.5,323,259.6z"/>
<path class="st0" d="M358.2,218.2c3.1-0.2,5.8-0.4,8.7-0.7c0,0.3,0.1,0.6,0.1,0.9c0.1,8.5,0.2,16.9,0.4,25.4
	c0.4,15.4-1,30.6-3.6,45.8c-1.5,8.6-2.3,17.3-3.2,25.9c-0.6,6.3-1.8,12.5-3.2,18.7c-2.8,12.7-5.8,25.4-8.5,38.1
	c-1.2,5.5-1.8,11-2.6,16.6c-0.2,1.4-0.6,2.4-1.8,3.2c-1.4,0.9-2.7,1.8-4.4,3c0-1.1,0-1.7,0-2.3c0.5-9.5,1.5-18.9,3.6-28.3
	c0.8-3.6,1-7.3,1.2-10.9c0.5-11,2.6-21.7,5.5-32.3c2-7.1,4.3-14.1,6.5-21.1c1.8-5.5,2.5-11.1,1.9-16.8c-0.6-6.4-1.4-12.7-2-19.1
	c-1.1-10.1-1.1-20.3-0.4-30.4c0.3-4.3,0.8-8.6,1.2-12.9C357.9,220.2,358.1,219.3,358.2,218.2z"/>
<path class="st0" d="M337.1,396.8c-0.2-2.1-0.3-4-0.5-5.9c-0.8-7.3-2.1-14.6-1-22c0.8-4.9,1.9-9.8,3.1-14.6
	c1.9-7.5,4.2-14.9,6.2-22.4c1.5-5.8,2.7-11.7,4.1-17.5c0.5-1.9,1-3.8,1.3-5.8c-2.1,4.2-3.2,8.7-4.5,13.2c-0.2,0-0.3-0.1-0.5-0.1
	c0-1.5-0.2-3,0-4.4c1.3-8.6,1.4-17.4,1.7-26.1c0.3-9.5-0.5-19-1.4-28.5c-0.3-3.4-0.4-6.9-0.4-10.3c0-7.6,0-15.2,0-22.8
	c0-2.1-0.3-4.1-0.4-6.2c0-0.5,0-1,0-1.4c0.3-2.8,0.4-3,3.3-3.5c2.2-0.3,4.4-0.6,6.7-0.8c0.8-0.1,1.5,0.1,2.5,0.2
	c-0.4,1.5-0.7,2.8-0.9,4.1c-1.9,12.9-2.8,25.9-1.6,39c0.7,7.3,1.5,14.6,2.3,21.9c0.6,5.4,0.1,10.7-1.5,15.9
	c-1.9,6.2-3.9,12.4-5.5,18.6c-3.5,13.1-5.5,26.4-6.2,40c-0.2,4.1-1,8.2-1.9,12.3c-1.4,6.6-2.2,13.2-2.8,19.9
	c-0.2,1.8-0.3,3.7-0.4,5.5C338.6,396.2,338.1,396.8,337.1,396.8z"/>
<path class="st0" d="M259.3,272.8c2.2-6,5.8-10.8,9.8-15.3c3.7-4.1,7.3-8.3,10.1-13.1c0.1-0.2,0.3-0.4,0.4-0.6
	c9.3,12.4,12.1,26.3,10.2,41.5c-6.1,3.6-12.5,7.2-19.1,11.1C268.8,287.7,265.3,279.6,259.3,272.8z"/>
<path class="st0" d="M294.2,550.9c0.2,0.6,0.5,1.1,0.6,1.7c0.4,1.6,0.8,3.2,1.2,4.9c1.4,6.5,3.3,12.8,5.4,19.1
	c2.9,8.5,4.5,17.3,5.9,26.2c0.4,2.7,0.8,5.4,1.3,8.1c0.6,3.2-0.2,6.2-1.2,9.2c-0.3,0.8-1.3,1.4-2.1,1.9c-4.5,2.6-9.3,4.6-14.4,5.7
	c-3.6,0.8-7.2,1.2-10.9,1.7c-0.6,0.1-1.2,0-2.2,0c1.3-2.3,2.4-4.2,3.4-6.1c6.7-12.8,11-26.3,12.3-40.8c0.8-9.5,0.6-19,0.4-28.5
	c0-0.9,0-1.9,0-2.8C294,550.9,294.1,550.9,294.2,550.9z"/>
<path class="st0" d="M358.4,194.8c-0.2,1.9-0.5,3.6-0.7,5.3c1.4-1.9,2.2-4.1,2.4-6.4c0.1-0.5-0.3-1.3-0.7-1.6
	c-0.3-0.2-1.2-0.1-1.5,0.2c-1.3,1.1-2.7,2.3-3.8,3.7c-2.9,3.7-5.2,7.7-6.9,12c-0.4,1.1-0.9,2.2-1.8,3.2c-0.2-1.3-0.4-2.6-0.7-3.8
	c-1-4-2-8.1-3.3-12c-1.6-4.7-4.5-8.6-8.1-12c-1.6-1.5-3.1-3.2-4-5.4c2.4-1.6,4.7-3.1,7-4.6c0.2,0.1,0.4,0.1,0.5,0.2
	c4.5,4,9.9,6,15.3,8.2c3.2,1.3,6.4,2.6,9.5,4c3.3,1.5,5.8,4,7.1,7.4c0.7,1.9,1.2,3.8,1.7,5.7c1.1,4.6,2.2,9.1,3.2,13.7
	c-6.1,2.1-12.2,3.6-18.7,3.1c-2.4-0.2-4.8,0.2-7.1,1.1c-0.6,0.2-1.2,0.3-2.2,0.6c0.4-3.3,1.8-6,3-8.7
	C351.4,202.9,355.8,196.6,358.4,194.8z"/>
<path class="st0" d="M317.3,211.5c4.8,8.6,8.8,17.1,10.8,26.4c2.4,11.4,2.5,22.6,0.1,34c-2.4,11.3-5.1,22.4-10.3,32.8
	c-6.7,13.4-16.5,23.6-30.5,29.5c-4.5,1.9-9.1,3.2-14,4.1c-10.1,1.9-19.6,0.3-28.7-3.8c-3.8-1.7-7.5-3.7-11-5.9
	c-4-2.5-7.4-5.8-9.6-10.1c-0.9-1.8-1.4-3.7-1-5.8c0.2-1.3,0.3-2.5,0.4-4.4c0.6,1.3,1,2.1,1.4,3c3.3,6.7,8.6,11.4,14.9,15.2
	c5,3,10.5,4.7,16.2,5.6c9,1.4,18,1.2,26.9-1.2c5-1.4,9.5-3.7,13.5-7c14.9-12.2,23.8-28,27.5-46.8c1.5-7.7,1.4-15.6,1.2-23.4
	c-0.1-5.6-0.5-11.2-1-16.7c-0.2-2.3-1.1-4.5-1.8-6.7c-0.3-0.9-0.8-1.9-1.5-2.4c-1.4-0.9-1.5-2.2-1.7-3.7
	C318.6,220,318,216,317.3,211.5z"/>
<path class="st0" d="M330.3,137.4c-0.5,3.2-1.3,6.5-2.6,9.5c-2.1,4.8-4.2,9.5-6.3,14.2c-0.1,0.3-0.3,0.6-0.4,0.9
	c-3,5-6.1,7.1-12.4,5.8c-3.4-0.7-6.8-1.8-9.9-3.4c-2.4-1.2-4.4-3.4-4.7-6.5c-0.2-2.8-0.6-5.6-0.9-8.3c-0.2-2.3-0.3-4.6-0.5-7.1
	c0.5-0.1,1-0.2,1.4-0.1c3.4,0.7,6.7-0.3,9.9-1.3c2.2-0.7,3.6-2.3,4.3-4.5c0.9-3.1,1.8-6.1,2.5-9.2c0.3-1.3,0.8-1.8,2.4-1.5
	c0.2,0.7,0.5,1.5,0.7,2.3c0.6,1.7,1.2,3.3,1.8,4.9c1.2,2.9,3.4,4.4,6.5,4.5C324.6,137.6,327.3,137.5,330.3,137.4z M306.2,154.5
	c5.4,0.7,12.3-0.4,13.8-2C315.6,153.2,310.9,153.8,306.2,154.5z M316.1,158.7c-0.7,0.1-1.5,0.1-2.2,0.2
	C314.7,160.2,315.4,159.9,316.1,158.7z M315.3,143.6c0,0.2,0.1,0.4,0.1,0.6c0.7-0.3,1.4-0.5,2.1-0.8c-0.1-0.2-0.1-0.4-0.2-0.5
	C316.6,143.2,316,143.4,315.3,143.6z"/>
<path class="st0" d="M354.1,723.7c-2,3.1-4,6.3-6,9.5c-1.8-1.2-3.5-2.2-5.1-3.3c-3.2-2.1-6.4-1.5-8.7,1.4c-1.2,1.5-2.2,3.1-3.2,4.8
	c-0.8,1.4-0.8,2.9,0.1,4.3c1.5,2.2,2.8,4.7,5.3,6.1c1.1,0.6,1.5,1.6,1.5,2.9c-1.7,1.9-3.5,3.9-5.3,5.8c-0.5,0.5-1.4,0.8-2.2,1.2
	c-1.1-1.5-2.2-3-3.2-4.5c-3.8-5.8-8.8-10.3-14.8-13.7c-1.3-0.7-1.6-1.5-0.9-3c0.7-1.4,1.6-2.8,2.4-4.1c2.8-4.7,5.6-9.5,7.3-14.8
	c0.4-1.2,1.2-1.8,2.4-2.1c4.7-0.9,9.3-1.4,14,0.1c4.4,1.4,8.4,3.4,12,6.3C351.2,721.6,352.6,722.6,354.1,723.7z"/>
<path class="st0" d="M292.6,537.7c-1.5-5-2.9-9.9-4.4-14.9c-0.2-0.6-0.2-1.3,0-1.9c1.5-5.7,3-11.4,5.5-16.8
	c3.5-7.7,7.1-15.4,10.2-23.3c5.3-13.4,8.4-27.3,10.7-41.5c1.9-12.2,2.7-24.5,3.4-36.8c0.7-11.7,1.3-23.5,0.8-35.2
	c-0.2-5.8-0.8-11.6-1.1-17.5c0-0.4,0-0.9,0-1.5c2.9,1.1,5.1,2.7,6.9,4.8c0.4,0.5,0.7,1.5,0.6,2.2c-1.6,17.3-0.6,34.7-0.8,52
	c-0.1,10.7-1.4,21.2-4.8,31.4c-5.8,17-11.5,34.1-17,51.2c-3.2,9.9-6,19.9-7.7,30.2c-0.8,5-1,10-1.4,15c-0.1,0.8-0.1,1.7-0.2,2.5
	C293,537.7,292.8,537.7,292.6,537.7z"/>
<path class="st0" d="M262.6,749.7c0.7,1.8,1.4,3.3,1.9,4.8c1.1,3.4,2.6,6.7,2.6,10.4c0,0.6,0,1.4-0.3,1.8c-1.4,1.7-2.7,3.7-4.5,4.9
	c-6.6,4.1-13.7,7-21.5,7.4c-1.8,0.1-3.7-0.1-5.4-0.6c-4.2-1.1-8.2-2.5-12-4.7c-1.3-0.7-1.7-1.7-1.6-3.1c0.3-3.1,0.6-6.2,0.8-9.3
	c0.1-2.3,1.5-3.6,3.4-4.5c1.6-0.7,3.3-1.2,5-1.6c0.7-0.2,1.6,0.1,2.2,0.5c1.8,1.2,3.8,2.5,5.3,4c2.7,2.6,5.5,2.8,8.7,1.4
	c4.4-2,8.2-5,11.8-8.2C260.2,751.9,261.2,750.9,262.6,749.7z"/>
<path class="st0" d="M285.7,758.9c1.4,0.5,2.5,1.1,3.8,1.3c3,0.5,6,1,8.8,2.3c1.2,0.6,2.3,0.4,3.3-0.5c2.4-2,4.8-4,7-6.2
	c3.2-3.2,6.3-6.6,9.4-9.9c0.2-0.2,0.4-0.2,0.7-0.5c4.2,3.5,6.7,8.5,10,12.9c-2.2,2.7-4.6,5.2-7.4,7.4c-2.4,1.9-4.9,3.6-7.4,5.4
	c-4.6,3.4-9.8,5.1-15.3,5.6c-4.8,0.4-9.6,0.4-14.4,0.6c-2.4,0.1-3.8-1-5.1-2.9c-2.9-4.3-1.5-8.3,1.6-11.1
	C282.5,761.8,284.3,760.3,285.7,758.9z"/>
<path class="st0" d="M180.2,405.8c-2.5,1.1-4.8,2.1-7.3,3.1c0.3-1.1,0.5-2.3,0.8-3.4c2.7-8.5,5.6-17,8-25.6
	c5.5-19.7,11.4-39.3,15.9-59.3c3-13.2,5.4-26.5,7.4-39.8c1.8-12.3,3.5-24.7,5.4-37c0.4-2.7,1-5.3,1.7-8c0.7-2.8,0.7-2.8,3.8-2.7
	c0.1,0.2,0.2,0.4,0.2,0.6c-0.3,4.4-0.5,8.8-1,13.1c-0.7,5.7-1.6,11.4-2.6,17.1c-1.6,8.8-3.4,17.6-5,26.4c-1.5,8.3-2.6,16.6-4.4,24.8
	c-2.7,12.6-5.9,25-10.2,37.2c-1.8,5-3,10.3-4.3,15.5c-2.3,9.5-4.6,19.1-6.8,28.7C181.2,399.6,180.7,402.8,180.2,405.8z"/>
<path class="st0" d="M322.2,436.7c-0.6,3.5-1.3,7-2,10.5c-0.5,2.4-0.9,4.9-1.4,7.3c-0.1,0.5-0.2,1.1-0.2,1.7
	c0.5,5.6-0.9,11.1-1.5,16.6c-2.1,17.6-8.1,34.2-14,50.7c-2.8,7.8-5.3,15.7-6.1,24.1c-0.1,0.7-0.3,1.4-0.7,2.1
	c-0.8-2.9-2.5-5.4-1.8-8.6c0.3-1.4,0-3,0-4.5c0-11.1,2.2-21.9,5.1-32.6c3.1-11.5,6.7-22.8,10.8-34c3.6-10.1,6.8-20.5,10.2-30.7
	c0.3-0.9,0.7-1.8,1-2.6C321.9,436.7,322.1,436.7,322.2,436.7z"/>
<path class="st0" d="M332.1,101.3c0,3.1,0,6.2,0,9.7c0.5-0.6,0.7-0.9,1.1-1.5c0.5,1,1,1.8,1.5,2.7c-3,0.5-5.8,0.8-8.6,1.3
	c-4.2,0.8-7.9,2.5-11.1,5.4c-0.7,0.6-1.4,1.1-2.2,1.5c-1.3,0.7-2.4,0.8-3.7-0.3c-1.2-1-2.7-1.6-4.3-2.5c0.2-0.2,0.4-0.5,0.7-0.7
	c-2.1-1.6-6-1.4-13.3,0.9c1-3.9,0.8-7.7,4.2-10.7c5.9-5.3,11.5-11.1,17.1-16.8c1.2-1.2,2.5-1.2,4-1.2c0.3,0,0.7,0.4,0.9,0.7
	C321.7,95.2,326.7,98.4,332.1,101.3z M323.8,112c-3.4,0.4-6.7,1.2-9.1,4.1C318.1,115.5,321,113.8,323.8,112z"/>
<path class="st0" d="M336.2,114.9c-0.3,1.3-0.6,2.3-0.7,3.4c-0.1,1.6,0.1,3.2,0.1,4.8c0,3.3-1,6.3-2.7,9.1c-1,1.7-2.6,3-4.6,3.2
	c-2.5,0.2-5.1,0.1-7.6,0c-1.6-0.1-2.8-1.1-3.4-2.7c-0.8-1.8-1.5-3.7-2.2-5.6c-1.1-3-1.3-3.1-4.9-2.7c-0.8,2.3-1.6,4.7-2.4,7.1
	c-0.5,1.5-0.9,3.1-1.5,4.6c-0.7,1.7-1.9,3-3.7,3.4c-2.8,0.7-5.6,2-8.7,1.3c-0.5-0.1-0.9-0.2-1.5-0.4c-1-6.7-1.6-13.3-0.7-20
	c0.2-1.1,0.7-1.6,1.7-1.9c3-0.9,6-1,8.9,0.2c1.9,0.8,3.8,1.7,5.6,2.8c2.3,1.4,5.1,1.6,7.3,0c0.6-0.4,1.1-0.9,1.7-1.4
	c5.2-4.3,11.4-5.5,18-5.4c0.3,0,0.6,0.1,0.9,0.1C336.1,114.8,336.2,114.9,336.2,114.9z"/>
<path class="st0" d="M300.9,741c-0.2-0.3-0.2-0.4-0.2-0.5c0.4-9.5-1.1-18.8-1.8-28.2c-0.2-2.7-0.3-5.4-0.4-8.1
	c0-0.9,0.2-1.9,0.3-2.9c5.5-3,11.2-3,16.9-1.6c3.4,0.8,5,3.7,6.6,6.5c0.2,0.3,0,0.9-0.1,1.4c-2.7,7-5.5,14-8.2,21
	c-1.1,3-2.8,5.5-4.6,8.1c-2.6,3.6-2.5,3.6-6.8,4.2C302,740.9,301.5,740.9,300.9,741z"/>
<path class="st0" d="M221.9,286.3c0,6.8,0.2,13.6-0.1,20.4c-0.5,11.4-2.1,22.8-4.7,33.9c-1,4.2-2.1,8.4-3.1,12.6
	c-0.3,1.1-0.5,2.2-0.4,3.3c0.2,2.3-0.6,4.4-1.4,6.5c-1.8,4.6-2.7,9.4-3.2,14.2c-1.1,11.2-2.2,22.5-1.9,33.7c0.2,7.5,0.9,15,1.3,22.5
	c0,0.8,0,1.5-0.4,2.5c-0.4-0.6-0.9-1.2-1.1-1.9c-1.5-4.4-3-8.8-4.5-13.1c-0.1-0.2,0-0.5,0-0.8c1.1-0.5,2.2-0.9,3.3-1.4
	c0.8-0.4,1.2-0.9,1-1.9c-0.6-4.2-2-7.9-5.6-10.5c-1-0.7-1-1.5-1-2.5c-0.4-7,0.2-13.9,1.8-20.7c3.3-13.7,6.6-27.3,10-41
	c3.7-14.8,6.1-29.9,8-45.1c0.5-3.6,1-7.2,1.5-10.9C221.6,286.3,221.7,286.3,221.9,286.3z"/>
<path class="st0" d="M261.3,709.2c1.7-0.4,3.4-0.8,5.1-1.1c0.6-0.1,1.3-0.2,1.9-0.3c4.8-0.4,6.7,1.1,7,5.9c0.1,2.1,0,4.2-0.1,6.2
	c-0.1,1.4-0.3,2.9-1.4,4c-0.3,0.3-0.5,0.8-0.6,1.3c-1,5.6-4,10-8.2,13.6c-1.6,1.3-3.5,2.3-3.9,4.6c-0.1,0.4-0.6,0.7-1,0.9
	c-1.8,0.8-3.5,1.5-5.3,2.1c-1.1,0.4-2.2,0.3-3.2-0.4c-1.3-1-2.7-2-4.1-3.1c0.3-0.5,0.5-0.9,0.6-1.3c1.1-2.3,2.2-4.6,3.2-7
	c1.6-3.8,3-7.7,4.5-11.6c1.6-4,3.4-7.9,5.1-11.9C261.1,710.5,261.2,709.8,261.3,709.2C261.3,709.1,261.3,709.2,261.3,709.2z"/>
<path class="st0" d="M289.8,536.1c1.8,5,3.4,9.8,3.1,15.2c-0.4,6.7-0.3,13.4-0.3,20.1c0,14.7-2.9,28.7-8.1,42.4
	c-2,5.2-5.1,9.7-7.9,14.5c-0.3,0.4-1,0.8-1.5,0.8c-1.1,0-2.2-0.2-3.3-0.3c-0.6-0.1-1.2-0.1-1.8-0.2c-0.7-0.1-1.4-0.2-2.4-0.3
	C284.5,599.7,290.4,568.7,289.8,536.1z"/>
<path class="st0" d="M333.8,92c-3.6-4.4-8.7-5.6-14.3-5.3c-14.3,1-28.1,4.1-41.4,9.6c-1.9,0.8-3.8,1.6-5.7,2.4
	c-0.4,0.2-0.9,0.2-1.9,0.4c1-0.9,1.5-1.5,2.1-2c7.5-6.7,16.2-11.1,25.9-13.4c10.6-2.5,21.1-5,32-6.1c2.9-0.3,5.9-0.5,8.8-0.6
	c1.4,0,2.9,0.1,4.3,0.5c1.1,0.3,2.3,0.9,3.1,1.6c2.3,2.1,2.2,3.4-0.4,5c-1.5,1-3.2,1.8-4.8,2.8C339.1,88.6,336.6,90.3,333.8,92z"/>
<path class="st0" d="M269.4,763.3c-1.9-6-3.8-11.8-5.8-17.7c0.5-0.6,1.2-1.3,2-2.2c-0.7-0.3-1.2-0.6-1.7-0.8
	c2.4-2.4,5.1-4.5,7.1-7.2c2-2.6,3.4-5.7,5.2-8.9c0.8,0.5,1.7,1,2.6,1.6c5.5,3.9,8.9,9.5,12.2,15.2c0.6,1.1,0.6,2.2-0.2,2.9
	c-1.9,1.6-3.3,3.9-5.8,4.8c-0.1,0-0.3,0-0.4,0c-1-1.3-1.9-2.6-3.1-3.6c-1.9-1.7-4.6-1.9-6.4-0.6c-2,1.4-2.6,3.7-1.6,6.2
	c0.6,1.5,1.4,2.8,2.3,4.4C273.8,759.4,271.6,761.4,269.4,763.3z"/>
<path class="st0" d="M338.9,345.2c0-0.6-0.1-1.2-0.1-1.8c-0.2-6.9-0.4-13.7-0.5-20.6c0-2.8,0.1-5.6,0.2-8.4
	c0.3-8.8,0.4-17.6,0.8-26.4c0.5-10.5,1.2-21.1,1.9-31.6c0.3-4.5,0.4-9.1,0.8-13.6c0.2-2.5,0.6-4.9,1.3-7.3c0,2.8,0.1,5.5,0,8.3
	c-0.3,8.4,0.1,16.8,0.8,25.1c0.7,8.7,1.3,17.4,1.2,26.1c-0.1,10.7-0.9,21.4-1.5,32.1c-0.2,2.8-0.9,5.5-1.5,8.2
	c-0.8,3.3-1.8,6.6-2.7,9.9C339.2,345.2,339,345.2,338.9,345.2z"/>
<path class="st0" d="M250.2,339.6c-2.3,0.3-4.6,0.6-6.8,0.8c-10.3,1.3-18.7,6.1-25.4,14c-0.7,0.8-1.5,1.7-2.2,2.5c0,0-0.1,0-0.5,0
	c0.1-0.8,0.1-1.7,0.3-2.5c1-4.4,2.2-8.8,3.1-13.3c1.2-6,2.2-12.1,3.4-18.1c0.2-0.9,0.3-1.9,0.5-2.9c0.3,0.2,0.6,0.3,0.6,0.4
	c2.4,4.8,6.3,8,10.7,10.8c4.6,2.9,9.6,5.2,14.6,7.2c0.6,0.3,1.3,0.5,1.9,0.8C250.2,339.4,250.2,339.5,250.2,339.6z"/>
<path class="st0" d="M334.9,756.7c0.4-0.7,0.7-1.4,1.1-1.9c0.5-0.7,1.2-1.3,1.8-1.9c3.8-3.8,6.2-8.4,8.8-13
	c3.3-5.7,6.8-11.3,11-16.5c1.4-1.7,2.2-3.8,3.4-5.9c0.3,0.6,0.7,1.3,1.1,1.9c1.5,2.5,3,5.1,4.6,7.5c0.7,1,0.8,1.9,0.2,2.9
	c-1.4,2.2-2.7,4.5-4.2,6.7c-2.8,3.9-5.5,7.8-9.2,11c-1.3,1.1-2.7,2.3-4.3,3c-4.6,2.3-9.3,4.5-14,6.7
	C335.2,757,335,756.9,334.9,756.7z"/>
<path class="st0" d="M299.1,742.6c1.1-0.2,1.8-0.3,2.5-0.3c0.9,0,1.8,0,2.6,0.1c2.8,0.2,5.4,0,6.1-3.6c2.9,1.5,4.9,3.7,7.5,5.6
	c-0.7,1-1.2,2.1-2,2.8c-4.6,4.1-9.3,8-14,12.1c-1.4,1.2-2.6,1.5-4.5,0.8c-2.5-1-5.2-1.3-7.9-1.8c-0.9-0.2-1.7-0.3-2.8-0.5
	c0.5-0.8,1-1.4,1.4-2.1c1.9-3.5,4.2-6.9,5.5-10.6c1.5-4.3,2.4-8.8,2.6-13.3c0.1-2.3,0.6-4.6,0.9-6.8c0.1-0.8,0-1.6,0.5-2.5
	c0.3,3.4,0.5,6.7,0.9,10.1C298.9,735.7,298.1,739.2,299.1,742.6z"/>
<path class="st0" d="M258.6,268.4c0.4-16,5.2-31,10-46.5c0.5,0.9,0.8,1.4,1,1.9c2.8,5.6,5.6,11.1,8.4,16.7c1.2,2.4,1.3,2.4-0.4,4.3
	c-4,4.6-7.9,9.2-12,13.7C263,261.5,260.6,264.7,258.6,268.4z"/>
<path class="st0" d="M326.1,355.3c3.5,3.3,4.4,8.1,8.5,10.2c-2,10.7-0.9,21.3,1.1,32c-0.5,0.3-1,0.7-1.5,1c-0.8,0.5-1.7,1-2.4,1.6
	c-3.7,3.7-5.2,6.7-2.1,12.1c-0.7,1.6-1.5,3.2-2.1,4.9c-0.4,1.2-1.3,2.6,0.4,3.5c-1.4,2.6-2.6,5-3.9,7.4c-0.1-0.1-0.3-0.1-0.4-0.2
	c0.4-2.5,0.9-5,1.3-7.5c1.2-8.7,1.2-17.4,1.2-26.1c-0.1-12.3-0.2-24.6-0.3-36.9C326,356.8,326,356.3,326.1,355.3z"/>
<path class="st0" d="M292.5,282.9c0.9-1.2,1.7-2.5,2.7-3.6c6.9-7.9,12.6-16.7,17.6-25.9c3.3-6.2,5.1-12.9,6-19.8
	c0.2-1.3,0.3-2.6,0.9-4.1c0.3,0.8,0.8,1.5,1,2.3c0.7,3,1.5,5.9,1.8,8.9c0.4,4.9,0.4,9.9,0.7,14.8c0.1,1.5-0.3,2.6-1.4,3.7
	c-3.1,3-6,6.2-9.3,8.9c-5.6,4.7-11.4,9.1-17.1,13.6c-0.8,0.6-1.7,1.1-2.5,1.7C292.8,283.2,292.7,283,292.5,282.9z"/>
<path class="st0" d="M355.4,722.4c-4.2-4.8-9.2-7.9-15-9.8c-5.7-1.9-11.6-2-17.8,0.2c1-2.4,1.9-4.3,2.8-6.4c0.6,0.1,1.2,0.2,1.8,0.3
	c2.9,0.4,5.7,0.3,8.5-0.9c4.6-2,6.9-6.8,5.4-11.6c-0.2-0.6-0.4-1.2-0.6-1.8c-0.2-0.5-0.5-1-0.8-1.8c0.7,0.1,1.3,0,1.6,0.3
	c0.9,0.8,1.7,1.7,2.4,2.6c4.6,6.4,9.2,12.9,13.8,19.2c0.8,1.1,1.2,2.2,1,3.5C357.9,718.5,357.1,720.6,355.4,722.4z"/>
<path class="st0" d="M275.3,760.8c-0.3,5.7-1.9,10.3-6.2,13.4c-6.9,5-14.5,8.8-22.5,11.6c-5.8,2-11.7,1.5-17.4-0.5
	c-2.4-0.8-4.7-2.1-7-3.2c-1.1-0.5-1.7-1.4-1.7-2.6c0-1.6,0-3.2,0-5c0.5,0.2,1,0.4,1.5,0.6c4.4,2.6,9.1,4.2,14,5.4
	c4.6,1.2,9.1,0,13.5-1.1c4.6-1.2,8.9-3.2,13-5.5c2.6-1.4,4.5-3.6,6.1-6C270.3,765.3,272.6,763.3,275.3,760.8z"/>
<path class="st0" d="M357.2,426.4c-8.1-5.8-16.4-10.5-27-9.7c0.6-2.7,2-5,3.4-7.3c0.3-0.5,1.2-0.9,1.8-1c4.6-0.9,9.2-1.3,13.7-0.1
	c2.5,0.7,4.7,1.9,6.7,3.5c1.3,1,2.6,2,4,3C359,418.6,358.1,422.4,357.2,426.4z"/>
<path class="st0" d="M175.5,462.2c0.3,0.7,0.8,1.3,1,2c0.8,2.8,1.4,5.7,2.4,8.5c1.4,3.9,2.1,7.8,2.8,11.9c1.4,8.7,2.7,17.3,4.2,26
	c0.5,3,0.2,3.8-2.3,5.3c-2.2,1.3-5,0-5.3-2.5c-0.3-3-0.5-6-0.7-9.1c-0.7-12.3-1.4-24.5-2.1-36.8c-0.1-1.7-0.3-3.3-0.4-5
	C175,462.3,175.3,462.3,175.5,462.2z"/>
<path class="st0" d="M289.2,659c3.9,5.7,6.3,12.1,9,18.4c2.7,6.3,5.3,12.7,7.9,19c-2.1,0.9-4.2,1.9-6.3,2.6c-1.9,0.6-2.7,2-2.9,3.7
	c-0.2,2.3-0.2,4.6-0.3,6.9c0,1.3,0,2.5-0.2,3.9c-0.3-2.8-0.6-5.6-0.8-8.5c-0.6-7-1.8-13.9-3-20.9c-1.1-6.3-1.7-12.7-2.5-19
	C289.8,663.1,289.5,661,289.2,659z"/>
<path class="st0" d="M330.2,168.4c1.5,1.3,3.1,2.5,4.7,3.9c-5.2,4-24.8,12.1-29.8,12.2c-1.2-2.4-2.5-4.8-3.9-7.6
	c5.5,0.1,10.2-1.6,14.9-3.2C320.9,172.1,325.5,170.2,330.2,168.4z"/>
<path class="st0" d="M324.8,766.6c-2.1,4.1-4.2,7.5-7,10.5c-1.2,1.3-2.6,2.3-4.1,3.3c-1.9,1.3-4,2-6.3,2.2c-8,0.6-15.9,1.1-23.9,1.6
	c-3,0.2-3.1-0.1-3.7-3.1c-0.1-0.6-0.2-1.2-0.3-2.1c5.7,1.2,11.3,0.6,16.9,0.5c7-0.2,13.5-2.3,19.2-6.5c2.6-1.9,5.2-3.8,7.7-5.6
	C323.8,767.1,324.1,767,324.8,766.6z"/>
<path class="st0" d="M366.6,369.7c-0.6-5-1.2-9.8-1.7-14.5c-0.4-4.7,0.1-9.2,1.9-13.6c1.8-4.6,4.1-9,5-13.9c0-0.1,0.2-0.2,0.3-0.2
	C374.7,342,372.5,356,366.6,369.7z"/>
<path class="st0" d="M234.1,753.9c2.3-1.5,4.5-2.8,6.6-4.5c2-1.6,3.8-3.5,5.9-5.4c0.9,0.9,1.7,1.8,2.5,2.6c2.1,2.3,4.6,3,7.6,1.8
	c1.5-0.6,3-1.2,5-1.9c-0.3,0.7-0.4,1.1-0.6,1.3c-4,3.8-8,7.5-13,10.1c-0.1,0.1-0.3,0.2-0.4,0.2c-4.2,2.1-4.4,2.1-8.2-0.6
	C237.7,756.2,236,755.1,234.1,753.9z"/>
<path class="st0" d="M279.7,64.8c-1.5-0.3-3-0.5-4.4-0.9c-1.2-0.3-2.3-1.1-2.9-2.3c-0.8-1.7-0.7-2.3,1-3.4c4.6-2.9,9.7-4.9,15-6.1
	c2.1-0.5,4.1,1.7,3.6,3.8c-0.2,0.8-0.5,1.7-1,2.4C288.1,62.1,284.7,64.8,279.7,64.8z"/>
<path class="st0" d="M335,363c-1-1.3-1.7-2-2.3-2.9c-1.9-2.6-3.7-5.2-5.6-7.7c-2.1-2.7-4.9-4.5-8-6c-5.9-2.9-12.2-3.8-18.5-4.3
	c-3.7-0.3-7.3-0.3-11-0.5c-0.9,0-1.8-0.2-2.7-0.3c0-0.2,0-0.4,0-0.7c1,0,2,0,3,0c12.6,0,24.9,2.3,37.2,5.2c1.8,0.4,3.6,1.2,5.4,2
	c2.3,1.1,3.5,2.9,3.8,5.6C336.6,356.6,335.8,359.4,335,363z"/>
<path class="st0" d="M347.5,734.3c-2.6,4.6-5,9.1-8.3,13.7c-0.3-0.6-0.5-0.9-0.7-1.3c-1.8-2.5-3.6-5-5.4-7.6
	c-0.3-0.4-0.5-1.2-0.3-1.6c0.8-1.8,1.3-3.9,2.6-5.3c1.2-1.3,3.3-1.9,5.1-1.3C342.8,731.8,345,733.1,347.5,734.3z"/>
<path class="st0" d="M318.6,166c0.3,1.4,0.7,2.7,1,4.3c-2.7,0.9-5.2,1.8-7.7,2.6c-2.7,0.8-5.3,1.7-8,2.3c-3.1,0.7-3.2,0.6-4.6-2.3
	c-1.3-2.8-2.6-5.6-3.7-8.5c5,3.1,10.3,4.2,15.9,4.2C314.1,168.7,316.7,168.1,318.6,166C318.6,166.1,318.6,166,318.6,166z"/>
<path class="st0" d="M294.9,727.1c-0.2,4.8-0.8,9.2-2.3,13.9c-0.8-1.3-1.5-2.2-2.1-3.2c-2.1-3.7-4.7-6.9-8.2-9.3
	c-1.8-1.3-3.8-2.4-5.7-3.6c-0.1-0.9,0.3-1.5,1.3-1.9c1.2-0.5,2.5-0.7,3.7-0.1c1,0.6,2,1.4,2.9,2.1c0.5,0.4,1,0.8,1.5,1.2
	C288.6,728.6,291.4,729.6,294.9,727.1z"/>
<path class="st0" d="M222.9,211c1.1,4.8,1.1,18.1,0.2,21c-3-1.3-6-0.9-9.6-0.2c0.5-1.2,0.8-2,1.3-2.8c2.7-5,5.3-10,7.2-15.4
	C222.2,212.7,222.6,211.9,222.9,211z"/>
<path class="st0" d="M200.4,414.6c-3.6-2.5-6.9-5-11.2-5.4c-4.3-0.3-8,1.2-11.1,3.9c-1.4-1-2.7-1.9-4-2.8c0.8-1.4,2.3-1.8,3.6-2.1
	c2.2-0.6,4.5-1,6.8-1.2c2.8-0.4,5.7-0.5,8.6-0.7c0.8-0.1,1.6,0,2.4,0.1c3.6,0.4,3.9,0.7,4.3,4.3C200,412,200.3,413.3,200.4,414.6z"
	/>
<path class="st0" d="M331.2,410.5c-1.5-2.7-1.4-4.9,0.3-7c0.7-0.9,1.5-1.9,2.5-2.5c3.1-2,6.2-3.8,9.6-5.8c-1,3.3-2.5,6.4-1.4,10.1
	C338.1,406,333.7,406.2,331.2,410.5z"/>
<path class="st0" d="M332.2,99.9c-3.8-3.4-8.7-5.5-11.9-9.5c-0.3-0.4-0.6-0.7-0.9-1.1c4-1.3,10,0.5,12.4,3.6
	C333.6,95.2,333.5,97.4,332.2,99.9z"/>
<path class="st0" d="M283,752.7c-2,1.4-4,2.7-6.1,4.1c-1-1.8-1.7-3.4-1.7-5.3c0-2.5,1.5-3.6,3.8-2.9c0.4,0.1,0.7,0.3,1.1,0.3
	c1.2,0.1,1.9,0.7,2.1,1.8C282.3,751.3,282.7,751.9,283,752.7z"/>
<path class="st0" d="M288.7,750.8c-2.5,5.2-6.4,8.6-10.7,12.3c0.1-1.5,0-2.8,0.3-3.9c0.1-0.5,0.7-1.1,1.1-1.4
	c1.3-0.9,2.7-1.7,3.9-2.7c1.5-1.2,3-2.6,4.5-3.9C287.9,751,288.1,751,288.7,750.8z"/>
<path class="st0" d="M364.3,411.3c-1.1,0.7-2.3,1.5-3.5,2.2c-1.2-1.1-1.2-2.1-0.6-3.4c0.7-1.5,1-3.1,1.5-4.7
	C363,406.7,363.6,408.1,364.3,411.3z"/>
<path class="st0" d="M200.5,408.6c2.5,1.8,3.5,3.9,4.1,8.2c-0.5,0.2-1,0.5-1.7,0.8C202.1,414.5,201.3,411.6,200.5,408.6z"/>
<path class="st0" d="M256.5,269.4c0.9-0.1,2-0.5,1.4,1.3C257.3,270.2,256.9,269.8,256.5,269.4z"/>
<path d="M306.2,154.5c4.7-0.7,9.4-1.3,13.8-2C318.5,154,311.5,155.2,306.2,154.5z"/>
<path d="M316.1,158.7c-0.6,1.2-1.3,1.5-2.2,0.2C314.6,158.9,315.3,158.8,316.1,158.7z"/>
<path d="M315.3,143.6c0.7-0.2,1.3-0.5,2-0.7c0.1,0.2,0.1,0.4,0.2,0.5c-0.7,0.3-1.4,0.5-2.1,0.8C315.4,144,315.3,143.8,315.3,143.6z"
	/>
<path d="M323.8,112c-2.8,1.8-5.7,3.5-9.1,4.1C317.1,113.2,320.4,112.4,323.8,112z"/>
</svg>
