<?xml version="1.0" encoding="utf-8"?>
<!-- Generator: Adobe Illustrator 19.0.0, SVG Export Plug-In . SVG Version: 6.00 Build 0)  -->
<svg version="1.1" id="图层_1" xmlns="http://www.w3.org/2000/svg" xmlns:xlink="http://www.w3.org/1999/xlink" x="0px" y="0px"
	 viewBox="0 0 595.3 841.9" style="enable-background:new 0 0 595.3 841.9;" xml:space="preserve">
<style type="text/css">
	.st0{fill:#FFFFFF;}
</style>
<path class="st0" d="M2.7,803.8c0-254.9,0-509.8,0-764.7c197,0,394,0,591,0c0,254.9,0,509.7,0,764.7
	C396.7,803.8,199.7,803.8,2.7,803.8z M253,692.2c0.1,0,0.2-0.1,0.4-0.1c0.2,0.6,0.5,1.1,0.6,1.7c1.1,6.6,2.3,13.2,3.1,19.9
	c0.6,5.3,0.7,10.6,1.1,15.9c0.2,3.2,1.8,5.5,4.7,6.9c4.6,2.1,9.3,3.8,14.4,4c4,0.2,8,0,12-0.4c2.6-0.2,3.4-1.4,3.6-4
	c0.1-1.5,0-3,0-4.5c1.4-0.3,2.8-0.7,4.2-1.1c1.8-0.4,2.3-0.8,2.2-2.7c0-2.5,0.6-4.9,1.5-7.2c0.4-1.1,0.5-2.2-0.1-3.4
	c-2.2-4-3-8.4-4.1-12.8c-2.3-9.9-3.4-19.9-4.4-30c-0.5-4.8-0.8-9.5-1.4-14.3c-0.2-1.6-0.6-3.3-1.4-4.6c-0.7-1.2-0.9-2.2-0.7-3.5
	c0.3-2.7,0.6-5.4,0.9-8.1c1-10.1,2-20.3,3.1-30.4c0.8-7.3,1.6-14.6,2.5-21.8c1.4-10.6,3-21.1,4.5-31.6c1.2-8.3,2.4-16.7,3.5-25
	c1.4-10.1,2.9-20.2,3.5-30.4c0.3-4.4,0.8-8.8,1.2-13.1c0.1-1.5,0-3,0.2-4.4c0.8-4.6,1.9-9.1,2.7-13.6c2.2-13,6.1-25.5,10.3-37.9
	c2.7-8,5.2-16,7.5-24.1c1.4-4.9,2-9.9,3.1-15c1.2-0.3,2.6-0.7,3.9-1c1.3-0.3,1.9-1.2,2.1-2.5c0.2-1.2,0.3-2.4,0.5-3.6
	c2-11.7,3.9-23.4,5.2-35.3c0.4-3.5-0.1-6.7-1.7-9.8c-2.1-4-4.1-8.1-6.1-12.2c-1-2.1-2-4.3-3.1-6.6c3.7-3.2,6.9-6.8,11.2-9.3
	c-0.1-0.5-0.1-1.1-0.4-1.6c-1.9-3.2-3.8-6.3-5.7-9.5c-3.5-5.9-6.7-12-11.9-16.7c0.3-0.7,0.5-1.3,0.8-1.8c-0.2-0.3-0.4-0.5-0.6-0.6
	c-4.9-2.8-9.8-5.6-14.7-8.4c-1.3-0.7-3-1-4.1-2c-1-1-1.4-2.7-2-4.1c-0.1-0.2-0.1-0.4-0.1-0.5c1.1-1.3,2.2-2.5,3.3-3.7
	c1.2-1.5,1.6-3.3,1.3-5c-0.2-1.1,0.1-1.7,0.7-2.5c2.4-3.1,4.8-6.2,7.2-9.4c4.9-6.6,10.1-13.1,13.7-20.6c0.9-1.9,2-3.8,3.8-5.1
	c0.8-0.6,1.5-1.6,2-2.5c1.6-2.8,3.1-5.7,4.5-8.6c1.1-2.2,1.4-4.5,1.2-7c-0.1-1,0-2.2,0.3-3.1c0.8-2.5,0.6-3.8-1.5-5.5
	c-2.4-1.9-4.9-3.8-7.5-5.5c-0.9-0.6-2.2-0.9-3.3-0.9c-4.8,0-8.5-2.6-12.1-5.3c-0.9-0.7-1.2-1.5-0.8-2.6c0.4-1.3,0.6-2.7,0.9-4.1
	c1.5-7.3,2.2-14.7,1.2-22.1c-0.2-1.6-0.4-3.3-0.5-4.9c0.8,0.4,1.2,0.9,1.6,1.4c2.4,2.6,4.7,5.4,7.2,7.8c1.6,1.6,3.6,2.9,5.6,4.1
	c1,0.6,2.4,0.9,3.5,0.8c1.7-0.2,3.4-0.8,5.6-1.4c-1.6-0.4-2.8-0.6-3.8-1c-2.5-0.9-4.3-2.8-5.6-5c-1.1-1.8-2.1-3.8-2.7-5.9
	c-1.8-6.4-3.5-12.9-5.2-19.4c0.8,0.1,1.2,0.4,1.6,0.8c1.5,1.4,2.8,3,4.4,4.1c2.4,1.6,5,3,6,6c0.1-0.1,0.3-0.2,0.4-0.3
	c-0.2-0.8-0.4-1.6-0.6-2.4c0.5-0.1,0.8-0.2,1.1-0.2c-1.7-0.8-2.2-2.3-2.9-3.8c-1.3-2.4-2.7-4.7-4.3-6.8c-2.2-2.9-5.3-4.7-8.3-6
	c-0.5-2.9-0.8-5.6-1.5-8.2c-1.7-5.6-5.1-10.2-9.2-14.2c-1.3-1.3-2.5-2.6-1.8-4.6c0.9-0.3,1.8-0.5,3-0.9c-0.6-0.3-0.8-0.5-1-0.6
	c-2.4-0.4-4.8-0.9-7.3-1.3c-1.7-0.3-3.3-0.6-5-0.8c-2.1-0.2-4.2-0.3-6.2-0.4c-2.5-0.1-4.9,0.1-7.2,1.3c-0.6,0.3-1.4,0.4-2,0.3
	c-1.7-0.5-3.2-0.2-4.7,0.6c-2.7,1.4-5.3,2.8-7.9,4.3c-0.2,0.1-0.3,0.5-0.8,1.1c0.6,0.2,1.2,0.4,1.9,0.7c-0.8,0.7-1.2,1-1.7,1.4
	c-2.6,2.2-4.9,4.7-5.4,8.3c-0.1,0.5-0.4,1-0.6,1.5c-0.6,1.8-1.2,3.5-1.6,5.3c-0.2,0.7-0.1,1.7,0.3,2.2c1.2,1.8,0.9,3.8,1.2,5.7
	c-2.4,0.9-2.8,1.5-1.8,3.6c1.4,2.9,3,5.7,4.5,8.6c0.2,0.3,0.5,0.6,0.7,0.9c0.7,0.9,1.6,1.6,2.2,2.6c1.4,2.5,2.7,5,4.1,7.5
	c1.3,2.3,2.4,4.6,2.1,7.3c0,0.4,0.2,0.9,0.2,1.4c0.1,1.4,0.2,2.9,0.3,4.6c-1.5-0.3-2.7-0.4-3.8-0.7c-1.5-0.4-2.4,0.2-3.3,1.4
	c-1.5,2.3-3.3,4.4-4.9,6.7c-0.6,0.8-0.8,1.8-1.4,3.1c-1.3,0.7-3.1,1.3-5.1,1c-0.7-0.1-1.4,0.1-2.1,0.1c-3.2,0-6.5,0.5-9.7,0
	c-3.1-0.4-5.6,0.2-8,2c-0.7,0.5-1.4,0.9-2.1,1.4c-3.8,2.5-6.3,5.9-7.4,10.3c-0.2,1-0.4,2-0.6,2.9c-0.7,2.4-1.4,4.8-2.1,7.3
	c-2.5-1.3-4.1-0.7-4.6,1.7c-0.2,1.1,0,2.3,0.1,3.4c0.1,0.7,0.2,1.3,0.4,2c-3.7-0.1-4.3,0.2-4.9,3.5c-0.3,1.6-0.9,3.1-1.2,4.6
	c-1.2,5.4-2.1,10.9-3.2,16.4c-0.2,1.1,0,2.3,0.9,3c3.1,2.6,5.3,6.5,10,7.2c0.3,6.3,0.6,12.6,0,18.8c-1.1,9.8-2.7,19.6-3.8,29.4
	c-0.4,3.9-0.5,7.9-0.3,11.8c0.2,4.4,1,8.7,1.5,13.1c0.5,4.8,0.9,9.5,1.3,14.3c0.2,3,0.4,6,0.6,9.2c-3.2,0.2-5.4,1.8-6.8,4.2
	c1.9,3,3.8,5.8,5.6,8.7c3.9,6.2,6.1,13,5.9,20.4c-0.1,5.5-0.4,11-0.6,16.4c-0.2,4.8-0.2,4.8,3.2,8.1c0.2,0.2,0.4,0.3,0.5,0.5
	c4.5,4.4,8.9,8.8,13.4,13.1c0.7,0.7,1.7,1.2,2.7,2c0.5,1.9,1,4.1,1.8,6.3c3.4,9.1,6.9,18.2,10.5,27.2c4,9.8,6.9,20,9,30.4
	c1,4.9,1,9.6-1,14.3c-1.4,3.2-2.4,6.5-3.7,9.8c-2.9,7.6-6,15.1-8.1,22.9c-2.9,10.6-4.3,21.5-4.8,32.4c-0.5,10.7-0.1,21.3,0.7,31.9
	c0.7,9.6,1.5,19.2,2.2,28.9c0.4,5.1,0.4,10.2,1.1,15.2c1.4,10.2-0.1,20.1-1.4,30.2c-0.5,0.2-1,0.3-1.5,0.6c-2,0.9-3.2,2.5-3.3,4.7
	c-0.1,2.9-1,5.5-2.1,8c-1.2,2.6-1.5,5.2-1.1,7.9c0.7,4.8,1.3,9.6,2.1,14.4c1.5,9.2,2.8,18.5,3.3,27.8c0.1,1.5,0.5,2.7,1.5,3.7
	c1.6,1.7,2.8,1.5,4.1-0.6c-1.4-0.6-1.1-1.9-1.2-3c-0.3-3.9-0.5-7.9-0.9-11.8C254.7,705.7,253.8,699,253,692.2z"/>
<path d="M253,692.2c0.8,6.7,1.7,13.5,2.4,20.2c0.4,3.9,0.6,7.8,0.9,11.8c0.1,1.1-0.3,2.4,1.2,3c-1.2,2.1-2.5,2.3-4.1,0.6
	c-1-1.1-1.4-2.2-1.5-3.7c-0.5-9.3-1.8-18.6-3.3-27.8c-0.8-4.8-1.4-9.6-2.1-14.4c-0.4-2.7-0.1-5.3,1.1-7.9c1.2-2.5,2.1-5.1,2.1-8
	c0.1-2.2,1.3-3.7,3.3-4.7c0.5-0.2,1-0.4,1.5-0.6c1.3-10.1,2.8-20.1,1.4-30.2c-0.7-5-0.7-10.2-1.1-15.2c-0.7-9.6-1.5-19.2-2.2-28.9
	c-0.8-10.6-1.3-21.3-0.7-31.9c0.5-11,2-21.8,4.8-32.4c2.1-7.8,5.2-15.3,8.1-22.9c1.2-3.2,2.3-6.6,3.7-9.8c2-4.7,2-9.4,1-14.3
	c-2.1-10.4-5-20.5-9-30.4c-3.6-9-7.1-18.1-10.5-27.2c-0.8-2.2-1.3-4.4-1.8-6.3c-1.1-0.8-2-1.3-2.7-2c-4.5-4.4-8.9-8.8-13.4-13.1
	c-0.2-0.2-0.4-0.3-0.5-0.5c-3.4-3.3-3.4-3.3-3.2-8.1c0.3-5.5,0.5-11,0.6-16.4c0.2-7.4-2.1-14.1-5.9-20.4c-1.8-2.9-3.7-5.7-5.6-8.7
	c1.4-2.5,3.6-4,6.8-4.2c-0.2-3.3-0.4-6.3-0.6-9.2c-0.4-4.8-0.8-9.5-1.3-14.3c-0.4-4.4-1.3-8.7-1.5-13.1c-0.2-3.9-0.2-7.9,0.3-11.8
	c1.1-9.8,2.7-19.6,3.8-29.4c0.7-6.2,0.4-12.5,0-18.8c-4.7-0.6-6.8-4.6-10-7.2c-0.9-0.7-1.1-1.9-0.9-3c1-5.5,1.9-10.9,3.2-16.4
	c0.3-1.5,1-3,1.2-4.6c0.5-3.3,1.2-3.7,4.9-3.5c-0.1-0.7-0.3-1.3-0.4-2c-0.1-1.1-0.3-2.3-0.1-3.4c0.5-2.4,2.1-3,4.6-1.7
	c0.7-2.5,1.5-4.9,2.1-7.3c0.3-1,0.4-2,0.6-2.9c1.1-4.4,3.6-7.8,7.4-10.3c0.7-0.5,1.5-0.9,2.1-1.4c2.4-1.7,4.9-2.4,8-2
	c3.2,0.5,6.5,0.1,9.7,0c0.7,0,1.4-0.2,2.1-0.1c2,0.2,3.8-0.3,5.1-1c0.6-1.3,0.8-2.3,1.4-3.1c1.6-2.3,3.4-4.4,4.9-6.7
	c0.9-1.3,1.7-1.8,3.3-1.4c1.2,0.3,2.4,0.4,3.8,0.7c-0.1-1.7-0.2-3.2-0.3-4.6c0-0.5-0.2-0.9-0.2-1.4c0.3-2.7-0.8-5-2.1-7.3
	c-1.4-2.5-2.6-5.1-4.1-7.5c-0.6-1-1.4-1.7-2.2-2.6c-0.2-0.3-0.5-0.6-0.7-0.9c-1.5-2.9-3.2-5.7-4.5-8.6c-1-2.2-0.7-2.7,1.8-3.6
	c-0.3-1.9,0-3.9-1.2-5.7c-0.4-0.6-0.5-1.5-0.3-2.2c0.4-1.8,1.1-3.5,1.6-5.3c0.2-0.5,0.5-1,0.6-1.5c0.5-3.7,2.8-6.1,5.4-8.3
	c0.4-0.4,0.8-0.7,1.7-1.4c-0.7-0.3-1.3-0.5-1.9-0.7c0.5-0.7,0.6-1,0.8-1.1c2.6-1.4,5.3-2.9,7.9-4.3c1.5-0.8,3-1,4.7-0.6
	c0.6,0.2,1.4,0,2-0.3c2.3-1.2,4.7-1.4,7.2-1.3c2.1,0.1,4.2,0.2,6.2,0.4c1.7,0.2,3.4,0.5,5,0.8c2.4,0.4,4.9,0.8,7.3,1.3
	c0.2,0,0.4,0.2,1,0.6c-1.3,0.4-2.1,0.7-3,0.9c-0.7,2,0.5,3.3,1.8,4.6c4.1,4.1,7.6,8.6,9.2,14.2c0.8,2.6,1,5.3,1.5,8.2
	c3,1.2,6.1,3.1,8.3,6c1.6,2.1,3,4.5,4.3,6.8c0.8,1.4,1.2,3,2.9,3.8c-0.3,0.1-0.6,0.1-1.1,0.2c0.2,0.8,0.4,1.6,0.6,2.4
	c-0.1,0.1-0.3,0.2-0.4,0.3c-1-3.1-3.6-4.4-6-6c-1.6-1.1-2.9-2.7-4.4-4.1c-0.4-0.3-0.8-0.7-1.6-0.8c1.7,6.5,3.3,13,5.2,19.4
	c0.6,2,1.6,4,2.7,5.9c1.3,2.2,3.1,4.1,5.6,5c1,0.4,2.2,0.6,3.8,1c-2.2,0.6-3.9,1.2-5.6,1.4c-1.2,0.1-2.5-0.2-3.5-0.8
	c-2-1.2-3.9-2.5-5.6-4.1c-2.5-2.5-4.8-5.2-7.2-7.8c-0.4-0.5-0.9-1-1.6-1.4c0.2,1.6,0.3,3.3,0.5,4.9c0.9,7.4,0.2,14.8-1.2,22.1
	c-0.3,1.4-0.5,2.7-0.9,4.1c-0.4,1.1-0.1,2,0.8,2.6c3.6,2.7,7.2,5.3,12.1,5.3c1.1,0,2.4,0.3,3.3,0.9c2.6,1.7,5.1,3.5,7.5,5.5
	c2.1,1.7,2.3,3,1.5,5.5c-0.3,1-0.4,2.1-0.3,3.1c0.3,2.5-0.1,4.8-1.2,7c-1.4,2.9-3,5.8-4.5,8.6c-0.5,0.9-1.2,1.9-2,2.5
	c-1.9,1.3-2.9,3.2-3.8,5.1c-3.6,7.5-8.8,14-13.7,20.6c-2.4,3.2-4.8,6.3-7.2,9.4c-0.6,0.7-0.9,1.4-0.7,2.5c0.3,1.8-0.1,3.6-1.3,5
	c-1,1.2-2.1,2.4-3.3,3.7c0,0.1,0,0.3,0.1,0.5c0.6,1.4,1,3.1,2,4.1c1,1,2.7,1.3,4.1,2c4.9,2.8,9.8,5.6,14.7,8.4
	c0.2,0.1,0.3,0.3,0.6,0.6c-0.2,0.6-0.5,1.1-0.8,1.8c5.2,4.6,8.5,10.8,11.9,16.7c1.9,3.2,3.8,6.3,5.7,9.5c0.3,0.5,0.3,1.1,0.4,1.6
	c-4.4,2.5-7.5,6.1-11.2,9.3c1,2.3,2,4.4,3.1,6.6c2,4.1,4,8.2,6.1,12.2c1.7,3.1,2.1,6.3,1.7,9.8c-1.3,11.8-3.2,23.6-5.2,35.3
	c-0.2,1.2-0.3,2.4-0.5,3.6c-0.2,1.2-0.8,2.1-2.1,2.5c-1.3,0.3-2.7,0.7-3.9,1c-1,5.1-1.7,10.1-3.1,15c-2.3,8.1-4.8,16.1-7.5,24.1
	c-4.2,12.4-8.1,24.9-10.3,37.9c-0.8,4.6-1.9,9.1-2.7,13.6c-0.3,1.4-0.1,2.9-0.2,4.4c-0.4,4.4-0.9,8.7-1.2,13.1
	c-0.6,10.2-2.1,20.3-3.5,30.4c-1.1,8.3-2.3,16.7-3.5,25c-1.5,10.5-3.1,21.1-4.5,31.6c-1,7.3-1.7,14.6-2.5,21.8
	c-1.1,10.1-2.1,20.3-3.1,30.4c-0.3,2.7-0.6,5.4-0.9,8.1c-0.1,1.2,0,2.3,0.7,3.5c0.8,1.3,1.2,3,1.4,4.6c0.6,4.7,0.9,9.5,1.4,14.3
	c1,10.1,2.1,20.1,4.4,30c1,4.3,1.9,8.8,4.1,12.8c0.6,1.1,0.5,2.2,0.1,3.4c-0.9,2.3-1.5,4.7-1.5,7.2c0,1.9-0.5,2.2-2.2,2.7
	c-1.4,0.3-2.8,0.7-4.2,1.1c0,1.5,0.1,3,0,4.5c-0.2,2.6-1.1,3.8-3.6,4c-4,0.3-8,0.5-12,0.4c-5.1-0.2-9.8-1.9-14.4-4
	c-2.9-1.3-4.5-3.6-4.7-6.9c-0.4-5.3-0.5-10.7-1.1-15.9c-0.8-6.7-2-13.3-3.1-19.9c-0.1-0.6-0.4-1.2-0.6-1.7
	C253.3,692.2,253.1,692.2,253,692.2z M268.8,115.7c0.3-0.1,0.7-0.1,0.7-0.3c0.4-1.1,0.7-2.3,1-3.7c-4.1,2.3-6,7.1-4.3,10.4
	c0.2-1.1,0.3-2.1,0.6-3C267.4,117.9,267.3,116.4,268.8,115.7c-0.2,1-0.4,2-0.8,3.3C269.4,117.9,269.8,116.9,268.8,115.7z M320,209
	c0.1-0.3,0.2-0.6,0.4-0.8c4.8-4.3,10.3-7.5,16.4-9.6c0.5-0.2,1.1-0.4,1.9-0.6c-1.5-1.1-2.8-2.1-4.1-3.1c-1.3-1-2.6-1.5-4.2-1.5
	c-2.8,0-5.5-0.8-7.7-2.6c-1.2-0.9-2.4-1.7-3.9-2.7c1,7.1-0.3,13.8-1.3,20.8c0.5-0.4,0.7-0.6,1-0.8c0.2-0.2,0.5-0.3,0.9-0.5
	C319.6,208.2,319.8,208.6,320,209c-1,0.4-2,0.7-3,1.3c-0.3,0.2-0.3,0.9-0.5,1.6C317.9,210.8,318.9,209.9,320,209z M313.4,143.6
	c-0.2,0.4-0.3,0.8-0.6,1.2c-1.2,1.9-2.2,3.8-2.5,6.1c-0.9,5.6-2,11.2-3,16.8c-0.4,2.6-0.6,5.2-0.9,7.8c3.1-9,4.9-18.4,7.1-27.6
	c0.1,2.1,0,4.3-0.3,6.4c-1.5,9.3-3.4,18.5-6.4,27.4c-0.2,0.5-0.3,1.2-0.2,1.8c1,3.2,0.9,6.4,0.4,9.6c-0.1,0.5,0,1.1,0,1.6
	c1-1.1,1.8-2.3,2.2-3.5c1.2-3.5,2.4-7,3.4-10.6c2.5-8.2,3.7-16.6,2.6-25.1C314.6,151.5,314,147.5,313.4,143.6c0.9,0.4,1.2,1.1,1.3,2
	c0.2,1.4,0.6,2.7,0.8,4.1c1.4,8.9,2.1,17.9,1.5,26.9c-0.1,1.2,0,2.4,0,4.1c0.3-0.8,0.5-1.2,0.6-1.6c0.6-4.4,1.4-8.8,1.6-13.3
	c0.2-3.9-0.3-7.8-0.4-11.8c-0.1-1.9-0.2-3.6-1.5-5.2c-0.8-1.1-1.2-2.5-1.8-3.7c-0.3-0.7-0.6-1.3-0.9-2
	C314.1,143.3,313.7,143.4,313.4,143.6z M237.2,211.9c-0.6,1-1.2,2.1-1.9,3.2c4.9,0,8.9,1.5,12.2,4.7c1.4,1.4,2.9,2.6,4.3,3.9
	c0.2-1.3,0.1-2.2-0.1-3.2c-0.8-4.4-1.6-8.8-2.4-13.2c-0.4-2,0.2-2.5,2.2-2.3c0.5,0,0.9,0.2,1.4,0.2c1.2,0,2.5,0,4.2,0
	c-4.2-2.8-7.8-5.5-12.3-6.8c-2.4-0.7-2.5-1.5-1.2-3.5c2.8-4.2,5.6-8.3,8.3-12.5c1.3-2,2.7-3.7,4.9-4.7c0.1,0,0.1-0.3,0.1-0.2
	c-1.6,0-3.2,0-4.8,0c-0.3,0-0.7,0.2-1,0.3c-0.7,0.4-1.3,0.8-2.4,1.5c0.4-1.1,0.6-1.5,0.8-2c-0.1-0.1-0.2-0.2-0.4-0.3
	c-0.4,0.3-1,0.6-1.3,1.1c-1.8,2.2-3.6,4.4-5.5,6.6c-2.1,2.5-3.2,5.4-3.5,8.6c-0.2,2.6-0.6,5.2-0.8,7.8
	C237.7,204.8,237.4,208.4,237.2,211.9L237.2,211.9z M305.9,103.2c-2.2-0.8-4.4-1.8-6.7-2.4c-3.9-1.1-8-1.9-12.1-1.1
	c-0.6,0.1-1.3,0.2-1.8,0c-0.8-0.4-1.3-0.1-1.9,0.3c-1.8,1.1-2.9,2.7-3.6,4.7c-0.4,1.2-1.3,2-2.5,2.6c-1.5,0.7-2.9,1.5-4.3,2.3
	c-0.4,0.3-1,0.7-1.1,1.1c-0.4,2.2-2,4.1-1.6,6.6c0.1,0.4-0.3,0.8-0.6,1.2c-0.8,1.3-1.7,2.4-2.3,3.8c-0.4,1-1.2,2.2-0.2,3.4
	c0.3-0.2,0.6-0.4,0.8-0.5c5.5-4.2,11.6-4.2,17.8-2c1.3,0.4,2.4,0.5,3.7,0.4c2.8-0.2,5.6-0.6,8.3-0.9c6-0.7,11.8,0.8,17.2,3.6
	c0.5,0.2,1.3,0.4,1.6,0.2c0.4-0.3,0.5-1.1,0.5-1.6c-0.3-3.5-1.6-6.7-3.8-9.5c-1.5-1.8-2.9-3.6-4.2-5.5
	C308,107.6,307,105.3,305.9,103.2c0.2,0.1,0.6,0.2,0.8,0.5c3,3.9,6,7.9,8.8,11.9c1.9,2.7,3.5,5.7,3.3,8.9c0.9,0.7,1.7,1.3,2.4,1.9
	c1-1.4,1.2-1.8,0.7-3.4c-0.8-2.6-1.6-5.2-2.7-7.6c-2.6-5.8-6.5-10.6-11.4-14.7c-0.1-0.1,0-0.3,0-0.5c0.4,0,0.8-0.1,1.4-0.1
	c-1-1.3-2.4-0.8-3.6-1.3c0-0.3,0.1-0.7,0.1-1.1c-0.7-0.2-1.4-0.4-2.2-0.5c-3.4-0.4-6.8-0.8-10.1-0.9c-1.9-0.1-3.8,0.5-5.7,0.9
	c-0.4,0.1-0.6,0.6-1,0.9c2.8,0.1,5.4,0.2,8,0.4c3.5,0.3,6.8,1.2,9.8,3.3C305.1,102.1,305.4,102.7,305.9,103.2z M275.9,677.2
	c-0.4-2.8-0.7-5-1-7.2c-0.8-5.6-1.8-11.1-2.5-16.7c-0.7-5.8-0.6-11.7-0.2-17.6c0.5-7.3,0.9-14.6,1.4-21.9
	c0.8-10.9,2.5-21.6,4.6-32.3c1.7-8.8,3.6-17.5,5.1-26.4c1.7-10,3.1-20.1,4.6-30.2c0.4-2.5,0.4-5,0.6-7.5c-4.3,23-5.2,26.5-7.2,28.4
	c0.5-2.8,1-5.4,1.5-8c1-4.9,2.2-9.8,2.9-14.8c1.2-9.3,3.3-18.3,7.2-27c2.6-6,4.5-12.2,5.1-18.7c0.5-5.8,0.8-11.6,0.9-17.3
	c0.1-7.8,0.1-15.6-0.2-23.4c-0.2-7.1-0.8-14.2-1.2-21.3c-0.4-7.8-1.2-15.5-3.2-23.1c-0.4-1.5-0.6-3.1-0.9-5c-2.2-2-5.2-2.6-8.3-2.4
	c-4,0.2-8,0.7-12,0.9c-6.8,0.4-13.4,1.9-19.7,4.7c-2.5,1.1-5,2.4-7.6,3.7c0.5,2,1.1,3.8,1.5,5.6c1.6,6.1,2.8,12.4,4.8,18.3
	c3.1,8.9,6.7,17.6,10.2,26.3c4.1,10.2,6.9,20.8,9,31.6c0.8,4.1,0.9,8.2-0.7,12.3c-2.2,5.6-4.2,11.3-6.4,16.9c-3.7,9.4-6.8,19-8.5,29
	c-3.1,18-2.8,36.1-1.3,54.3c0.8,9,1.4,18,2.1,27c0.3,4.1,0.5,8.2,0.9,12.2c0.6,7.4,1.2,14.8,0.2,22.2c-0.5,3.7-0.8,7.4-1.1,11.1
	c-0.1,1.2-0.2,2.5-0.3,3.7c-0.1,0.8-0.5,1.3-1.4,1.2c-0.9-0.2-0.7-0.8-0.5-1.4c0.1-0.2-0.1-0.4-0.1-0.7c-0.9,0.7-0.9,1.5-0.5,2.3
	c0.4,1,0.8,2,1.4,2.9c2.8,4.1,5.7,8.1,8.5,12.1c0.1,0.1,0.3,0.1,0.5,0.2c1.1-0.9,2.1-2,3.3-2.8C269.8,676.6,272.4,675,275.9,677.2z
	 M331.6,327c-8.1,5.1-16,10.3-26.1,9.8c-0.8,4.1-4.6,5.3-7.5,7.8c3.8,0.3,7.2,0.7,10.7,1c-0.2,0.5-0.5,0.7-0.7,0.8
	c-1.7,0.2-3.4,0.4-5.1,0.4c-2.1,0-4.2-0.2-6.2-0.4c-0.5-0.1-1.3-0.5-1.4-0.9c-0.1-0.6,0.3-1.3,0.7-1.8c0.3-0.4,0.9-0.6,1.3-0.9
	c1.4-1,2.8-1.9,4.2-2.9c0.7-0.5,1.3-1.2,2.2-2c-1.2-0.3-2.2-0.2-2.7-0.7c-0.8-0.9-1.8-0.8-2.7-0.8c-1,0-2-0.1-3-0.1
	c-1.4,0-2.6-0.6-3.4-1.7c-0.8-1-1.5-2-2.2-3c-2.2-3.3-4.3-6.6-6.4-9.9c-0.3-0.5-0.7-1-1.1-1.4c-0.2,0.5-0.2,0.8-0.1,1.1
	c1.6,5,3.1,10,4.9,15c1.2,3.4,1.8,6.8,2.2,10.4c0.3,2.3-0.5,3.1-2.8,3.1c-4.8,0.1-8.6-2-11.3-5.8c-2.5-3.5-4.7-7.3-5.8-11.5
	c-1-4-1.6-8.2-2.3-12.3c-0.4-2.2-0.5-4.4-0.7-6.6c-0.5,0-0.8,0-1.1,0.1c-2,0.5-4.1,0.9-6.1,1.5c-1.2,0.3-1.8-0.2-2.1-1.2
	c-0.2-0.6-0.3-1.3-0.5-2.1c-1.7,0.6-3.2,1.1-4.6,1.6c-0.1,0.4-0.1,0.6-0.2,0.8c-0.4,5.1-0.8,10.2-1.3,15.2c-0.4,3.1-1,6.1-1.8,9.1
	c-0.5,1.9-1.2,2.2-3.1,1.9c-1-0.2-1.9-0.5-2.9-0.7c-0.2,0-0.4,0.1-0.7,0.1c0,0.4,0.1,0.7,0.1,1c0,0.3,0,0.7,0,1.4
	c-1.6-1.7-1.7-4.3-4.9-4.3c0.7,0.6,1.2,1,1.7,1.3c1.5,1.2,2.1,2.5,1.4,4.5c-0.2,0.6-0.3,1.4-0.1,2c0.5,2.1,1.1,4.2,1.6,6.3
	c0.5,2.3,1.2,4.7,1.4,7c0.5,7.5,1.8,14.9,3,22.2c0.3,2,0.8,4,1.3,6.2c0.8-0.4,1.3-0.7,1.9-1c2.9-1.2,5.7-2.8,8.7-3.6
	c5.6-1.5,11.2-2.7,16.9-3.8c6.9-1.3,13.5-0.4,19.8,2.9c0.3,0.2,0.7,0.2,1.2,0.4c-0.1-0.5-0.1-0.8-0.1-1.1
	c-1.2-5.8-2.3-11.7-3.6-17.5c-0.3-1.2-0.2-2.1,0.8-2.9c0.2-0.2,0.4-0.5,0.8-1c-2.9,1-5.4,2-8,2.8c-2.6,0.8-5,2.2-7.8,1.9
	c0.7-0.6,1.5-1,2.3-1.3c3.8-1.5,7.6-3,11.4-4.5c0.8-0.3,1.6-0.7,2.4-0.9c0.9-0.3,1.8-0.8,2.5,0.2c0.6,1-0.2,1.7-0.8,2.4
	c-0.5,0.6-1.2,1-1.6,1.6c-0.2,0.3-0.2,0.8-0.4,1.4c4.2-0.8,7.3-3.8,11.2-4.4c0.1,0.2,0.2,0.3,0.3,0.5c-2.5,1.6-5,3.2-7.7,4.8
	c4.3,2.1,8.6,3.4,13,4.9c-2.7-0.2-5.5-0.5-8.1-1.1c-2.7-0.7-5.3-1.7-8.1-2.6c0.2,0.9,0.3,1.9,0.5,2.8c1,4.6,2.2,9.2,2.8,13.8
	c0.4,2.8,1.7,4.3,4.2,5c1,0.3,2,0.7,3.1,0.9c3.6,0.6,7.1,1.3,10.7,1.7c6.7,0.8,13.4,0.2,20-1.6c1.1-0.3,1.7-0.9,1.9-2
	c1.9-10.4,3.6-20.8,4.7-31.4c0.4-3.6-0.3-6.9-2-10.3c-2.8-5.4-5.8-10.7-7.7-16.6C332,327.7,331.8,327.4,331.6,327z M295.9,392.4
	c0.1,0.7,0.3,1.5,0.4,2.2c0.8,5.7,1.9,11.4,2.4,17.2c0.7,8.8,1.1,17.6,1.4,26.3c0.4,10.1,0.7,20.2,0.1,30.3
	c-0.6,10.6-2.4,21-6.9,30.8c-1.2,2.6-2,5.3-2.3,8.2c-0.8,8.1-1.4,16.3-2.5,24.4c-1.2,9.4-2.6,18.8-4.4,28.1
	c-3.1,16.1-6.5,32.1-8.2,48.4c-1.2,11.6-2.1,23.2-2.1,34.9c0,4.1,0.3,8.2,0.5,12.3c0.1,0.9,0.2,1.8,1.1,2.6
	c3.8,3.5,6.9,7.5,7.7,12.8c0.2,1.4,0.5,2.8,0.8,4.3c2-0.9,3.9-1.6,4.1-3.9c0.2-2.6,0.5-5.2,0.4-7.8c-0.1-2.2-0.4-4.4-1.9-6.3
	c-0.4-0.5-0.5-1.7-0.3-2.4c1-3.2,1.3-6.5,1.6-9.8c0.9-8.2,1.7-16.4,2.6-24.6c0.6-5.4,0.9-10.9,1.6-16.4c1.2-9.9,2.6-19.7,4-29.6
	c1.7-12.5,3.6-25,5.3-37.6c1.1-8.3,2.1-16.5,3.1-24.8c0.6-5.1,1.1-10.1,1.7-15.2c0.2-1.8,0.3-3.7,0.5-5.5c-1.7,1.5-3,3.2-5.1,3.8
	c0.8-1.4,1.6-2.9,2.7-4c1.9-1.9,3-4,3.4-6.6c0.8-4.6,1.6-9.1,2.5-13.6c2.5-12.7,6.5-25.1,10.6-37.4c3.3-9.9,6.6-19.8,8.4-30.1
	c0.3-1.9,0.7-3.9,1-6C318.1,399.3,307.2,395.2,295.9,392.4z M313.7,220.1c1.9,2,1.9,2,0.2,4.3c-3,4.2-6,8.4-9.1,12.6
	c-6,8-12.7,15.6-17.4,24.5c-0.7,1.3-1,1.3-2.4,0.6c-1.2-0.6-2.3-1.2-3.6-1.9c-1.3,1-2.7,2-3.9,3.1c-0.3,0.3-0.4,0.9-0.5,1.4
	c-0.1,1.5-0.7,2.5-2.1,3.4c-1.6,1.1-3,2.5-4.6,3.9c3.9,3.2,7.3,6.4,11.5,8.6c2.3,1.2,3.2,1.3,5.2-0.4c2.5-2,4.9-4,7.4-6
	c5.8-4.5,11-9.7,15.5-15.5c2.6-3.4,5.2-6.7,7.7-10.1c4.5-6,9.1-11.9,12.4-18.7c0.8-1.7,1.9-3.4,3.2-4.8c3.6-3.9,5.9-8.5,7.9-13.3
	c0.7-1.7,0.7-3.2,0.1-4.9c-0.7-2-1.3-4.1-1.9-6.3c-0.9-0.7-2.1-0.6-3.3-0.1c-4.5,1.8-8.8,4.2-12.6,7.2
	C319.1,211,315.9,215.1,313.7,220.1z M246.6,339.1c0.3-1,0.7-1.9,0.8-2.8c0.8-5.8,1.7-11.6,2.4-17.4c0.7-6,1.2-12,2.1-17.9
	c1.1-7.9,3.6-15.5,6-23c1.1-3.6,2.4-7.2,3.6-10.8c-4.2-3.3-8.4-6.5-12.6-9.7c-0.9,0.5-1.8,1-2.6,1.6c-1.7,1.1-2.1,1.2-3.6,0
	c-2.7-2.1-6-3.6-7.3-7.3c-0.5,1.5-0.8,2.8-0.5,4.3c0.4,2,0.9,4.1,1.2,6.1c0.6,4,1.4,7.9,0.7,11.9c-0.4,2.1-1,4.2-1.7,6.3
	c-0.8,2.4-1.6,4.8-2.6,7.5c1.9,0.3,3.6,0.6,5.4,0.8c1.1,0.1,1.6-0.4,1.7-1.4c0.2-1.7,0.3-3.4,0.5-5.1c0.3-3.6-0.1-7.5,2.4-10.7
	c0.3-0.4,0.1-1.3-0.1-1.9c-0.8-1.8-1.8-3.6-2.6-5.4c-0.4-0.8-0.8-1.7-1.1-2.6c-0.2-0.8-0.1-1.7,0.9-1.8c0.9-0.1,1.8,0.2,2.7,0.3
	c0.9,0.2,2,0,2.7,1.4c-1.6,0-3,0-4.5,0c0.3,0.8,0.5,1.4,0.7,1.9c0.8,1.7,1.6,3.5,2.6,5.2c0.9,1.5,1,2.9-0.1,4.3
	c-1.4,1.8-1.6,3.9-1.7,6.1c-0.1,2.8-0.3,5.5-0.6,8.3c-0.2,2.5-1.1,3.2-3.6,3.1c-1.9-0.1-3.8-0.5-6-0.8c-1.7,5.2-3.8,10.4-5.2,15.7
	c-1.1,4.4-2.8,8.8-2,13.6c0.2,1.4,0.4,2.7,1.3,3.9c0.3,0.4,0.5,1,0.7,1.5c1.3,2.9,2.7,5.8,4.9,8.1c0.7,0.7,1.6,1.4,2.5,1.5
	c1.3,0.2,2.3,0.7,3.3,1.6C239.8,337.5,243,338.6,246.6,339.1z M304.9,279.7c-3,1.2-6,2.4-9,3.6c-3.2,1.2-3,0.8-5-1.6
	c-0.4-0.5-0.4-1.2-0.7-2c-0.7,0.6-1.3,1.2-2,1.6c-0.9,0.7-1.9,1.4-2.9,1.8c-0.7,0.3-1.8,0.3-2.4-0.1c-3.3-2.2-6.5-4.6-9.8-7
	c-0.7-0.5-1.3-1-1.9-1.5c-0.3,1.5-0.4,2.9,0.1,4.1c1.8,4.5,3.9,8.9,7.4,12.4c1.8,1.8,3.6,3.5,2.8,6.4c2.6,1.1,4.6,2.6,5.9,4.9
	c1.5,2.7,3,5.4,4.5,8.1c2.4,4.6,4.6,9.3,7.2,13.7c1.8,3.1,4.2,5.9,6.4,8.7c1.7,2.1,3.8,2.8,6.6,2.1c7-1.8,13.2-5.1,18.9-9.5
	c3.5-2.7,6.6-5.8,9.9-8.7c0.3-0.2,0.5-0.6,0.8-0.9c-1.7-2.9-3.3-5.7-5.1-8.8c-1.7,2.1-3.2,3.9-4.6,5.7c-1.3,1.8-2.7,3.4-4.7,4.4
	c-3.3,1.6-6.7,3.1-10.1,4.5c-1.5,0.6-2.2,0.3-3.1-1.1c-3.8-5.9-8.3-11.3-11.5-17.6c-0.3-0.7-0.7-1.4-1.3-1.9c-1-1-1.9-2-1.5-3.6
	c0.1-0.4-0.3-1-0.7-1.4c-1.1-1.2-2.2-2.4-3.4-3.5c-0.4-0.4-0.9-0.5-1.6-0.8C297.2,287.2,301.5,284,304.9,279.7z M266.8,175
	c-3,1.4-5.9,2.7-8.8,4c-1.8,0.8-3.1,1.9-4.2,3.5c-2.9,4.5-5.9,8.9-8.8,13.3c-0.2,0.3-0.2,0.7-0.4,1.1c1.6,0.5,3.1,0.9,4.5,1.5
	c1.5,0.7,2.8,1.6,4.2,2.4c1.3,0.8,2.6,1.6,3.9,2.5c1.3,0.9,2.9,1.4,3.8,3.1c-1.6,1-3.2,0.9-4.8,0.8c-1.7,0-3.3-0.2-5.1-0.3
	c0.4,1.9,0.6,3.5,1,5.1c1.4,7.2,2.8,14.4,4.2,21.6c0.2,1.2,0.7,2.2,1.8,3.1c1.7,1.4,1,3.9-1.2,4.5c-0.5,0.1-0.9,0.4-1.7,0.8
	c3.7,3.1,7.1,6.1,10.5,9c1.9-2.8,3.6-5.5,4.3-8.7c0.6-2.7,1.3-5.4,1.8-8.1c0.5-2.7,1-5.5,1.3-8.2c0.3-2.7,0.4-5.4,0.2-8.1
	c-0.1-2.4-0.6-4.9-1.2-7.3c-2-8.2-4.2-16.3-6.4-24.4c-0.6-2.2-0.8-4.4-0.6-6.6c0-0.4,0.3-0.7,0.5-1.2c0.6,1.3-0.3,2.8,1.1,3.7
	c1.3-1.2,2-2.7,2.5-4.3C268.3,176.8,267.5,175.9,266.8,175z M251.6,664.6c-0.1,0.9-0.2,1.8-0.4,2.7c-0.2,0.9-0.2,1.8-0.5,2.7
	c-0.7,2-1.4,3.9-2.3,5.8c-1,2-0.9,3.9,0.3,5.7c1.6,2.3,2.2,5.1,4.5,6.9c0.3,0.2,0.4,0.7,0.5,1c0.5,1.6,1.2,3.2,1.6,4.8
	c1.9,7.7,3,15.5,3.3,23.3c0.3,5.6,2.8,9.9,7.5,12.8c2.5,1.5,5.3,2.5,8,3.5c5.7,2.2,11.3,1.5,16.8-1c-0.5-1.8-7.9-12-10.4-14.1
	c-1.9,0.9-3.8,0.4-5.8-0.2c-2.2-0.6-3.4-2-3.6-4.3c-0.3-3.2-0.6-6.5-0.9-9.7c-0.5-4.7-1.2-9.5-1.8-14.2c-0.1-0.4-0.2-1.1-0.4-1.2
	c-1.3-0.4-1.9-1.6-2.5-2.5c-3.3-4.6-6.6-9.2-9.7-13.9C254.1,670.4,251.9,668,251.6,664.6z M313.8,138c-9.3,1.2-16.4-1.4-20.3-10.3
	c-0.6,0-1.1-0.1-1.6-0.1c-2.9,0-3.2,0.3-4.4,2.9c-2.3,4.7-5.9,7.8-11.2,8.7c-1.6,0.3-3.1,0.5-4.6,0.8c0,0.3-0.1,0.5,0,0.6
	c2.2,4.1,4.3,8.2,6.5,12.2c0.3,0.6,1,1.2,1.7,1.5c3.4,1.4,6.8,2.9,10.3,4.1c3.9,1.3,7.7,1.2,11.4-1c0.7-0.4,1.4-0.9,2.2-1.3
	c1.5-0.8,2.5-1.9,3.2-3.5c0.9-2,1.8-3.9,2.8-5.8c0.8-1.5,1.6-3.1,2.8-4.2c2.7-2.3,4.3-5.3,6.3-7.9c1.4-1.8,1.5-4.1,0.9-6.5
	c-1,1.5-0.2,3.3-1.7,4.8c-0.1-1.6-0.1-2.9-0.2-4.3c-0.8,0.4-1.4,0.7-2,1C315.3,132.6,315.5,135.6,313.8,138z M217.9,230.3
	c0.9,0.3,1.7,0.5,2.3,0.9c2.5,1.9,5,3.9,7.4,5.9c0.4,0.3,0.8,0.8,0.9,1.3c0.5,1.9,1.7,3.2,2.9,4.7c2.5,3,5.3,5.8,6.6,9.7
	c0.3,0.8,1.1,1.5,1.8,2c1.2,0.9,2.4,1.6,3.7,2.4c1.6,1,4,0,4.3-1.9c0.3-1.7,0.4-3.5,0.6-5.3c0.2-2.1,0.3-4.2,0.6-6.2
	c0.2-1.4,0.8-2.4,2.4-2.6c2-0.3,4-0.9,5.9-1.4c0.5-1.4-0.1-2-1.2-2.5c-2.9-1.2-5.7-2.4-8.5-3.6c-0.4-0.2-0.9-0.2-1.8-0.5
	c0.8,0.7,1.2,1,1.6,1.4c0.9,1.1,0.9,1.9-0.3,2.7c-2.1,1.3-4.2,2.6-6.3,3.8c-0.6,0.4-1.3,0.6-1.9,0c-1.5-1.3-3.1-2.7-4.8-4.2
	c-0.4-0.1-1-0.1-1.6-0.2c-0.9-2.5-0.9-2.8,1.1-4.2c1.5-1,3.1-2,4.6-3c1-0.6,1.9-1.3,2.9-2c-0.4-0.8-0.8-1.5-1.2-2.2
	c-1.8-2.7-3.5-5.4-5.3-8.1c-3.3-5-6.6-10-7.8-16.1c-0.1-0.5-0.5-0.9-0.7-1.3c-1.4,0.3-1.8,1.4-1.6,2.3c0.4,2.4,1,4.7,1.5,6.8
	c-0.6,0.8-1.1,1.6-1.7,2.4c-0.4,0.5-0.9,1-1.4,1.3c-0.7,0.4-1.4,0.7-2.2,0.7c-1.5,0-1.8,0.9-2,2c-0.4,2.5-1,5-1.4,7.5
	c-0.5,2.6-0.8,5.2-1.3,7.8c-0.3,1.5,0.2,2.5,1.3,3.4c1.8,1.5,3.4,3.1,5.1,4.7c0.4,0.3,0.8,0.6,1.4,1.1c0.3-1.1,0.5-2,0.7-2.8
	C219.2,234,217.9,232.8,217.9,230.3z M275,659.5c0.1,0.7,0.1,1.3,0.2,2c0.8,4.8,1.5,9.6,2.3,14.4c0.1,0.4,0.1,0.9,0.4,1
	c1,0.7,0.9,1.7,1.2,2.7c1,4,1.5,8,1.3,12.1c-0.1,3.5-0.3,6.9-0.4,10.4c-0.1,3.6-0.1,7.3-0.2,10.9c0,1.6,0.5,2.8,1.5,4
	c1.9,2.2,3.7,4.5,5.6,6.8c0.5,0.7,1.1,0.9,2,0.9c2.1-0.1,4.3-0.1,6.5-0.2c0.7,0,1.4,0,2.2,0c0.6-1.6,1.2-3.2,1.7-4.8
	c0.1-0.3,0.2-0.7,0.1-0.9c-0.4-1.1-0.9-2.1-1.4-3.2c-0.3-0.7-0.6-1.4-0.8-2.2c-0.6-2.7-1.3-5.4-1.8-8.1c-1.5-7.9-3-15.8-3.6-23.8
	c-0.4-4.5-1-8.9-1.5-13.3c-0.1,2.9-1.5,5.6-0.7,8.7c0.7,2.6,0.6,5.5,0.7,8.3c0,1.2,0,2.5-1.3,3.5c-0.3-3.8-0.7-7.6-1-11.3
	c-1.5-0.4-3.1,0.8-3.9-1.5c-0.3,1.1-0.4,1.9-0.7,3c-1.1-2.4-1.4-4.5-1.6-6.6C281.2,667.2,278.6,663.2,275,659.5z M305.2,335.4
	c0.1-0.2,0.1-0.3,0.2-0.5c-4.8-4.9-8.2-10.8-11.3-16.8c-1.2-2.4-2.3-4.9-3.5-7.3c-1.4-2.7-2.9-5.3-4.4-7.9c-1-1.8-2.3-3.3-4.3-4
	c-1.2-0.4-1.5-1.3-1.6-2.5c0-0.9-0.4-1.8-0.9-2.5c-1.8-2.3-3.8-4.4-5.5-6.4c-1.1,0.8-2.2,1.7-3.4,2.2c-1.5,0.6-2.9,0.1-4-1.1
	c-0.8-1-1-2.1-0.3-3.2c0.8-1.4,1.9-2.4,3.8-2.1c0.5,0.1,1,0.1,1.9,0.2c-1.2-3.4-3.1-6.5-1.8-10.1c-2.8,0.2-3.3-0.2-4.6-2.7
	c-0.6-1.2-1.6-1.9-2.9-2.4c-1.6,3.8-2.9,7.4-1.3,11.5c2,5.2,2.8,10.9,6.2,15.6c0.1,0.2,0.2,0.4,0.3,0.6c0.6,2.4,2,4.3,3.3,6.2
	c5.3,7.7,10.6,15.4,15.8,23.1c1.7,2.4,3.3,4.9,4.9,7.3c1.1,1.6,2.4,2.4,4.4,2.3c1.3-0.1,2.6,0.1,3.9,0.2
	C301.8,335.3,303.5,335.3,305.2,335.4z M315.2,176.7c-0.4,1.4-0.7,2.8-1.1,4.2c-1.1,4.5-2.3,9-4.5,13.1c-1.4,2.7-3.5,4.6-6.6,5.9
	c2.4-4.6,2.6-9.3,3-13.9c-0.8-0.3-1.4-0.5-2-0.7c0.2-1.4,0.4-2.7,0.5-4c0.1-1.3,0-2.5,0-3.8c-1.5-0.2-1.7,0.9-2.2,1.6
	c-2.9,4.5-6.7,8.3-10.4,12.1c-0.1,0.1-0.2,0.2-0.4,0.3c-3.7,3-10.6,2.8-13.5-2.7c-0.1-0.3-0.3-0.5-0.5-0.8c-1.7-2.1-3.3-4.2-5-6.3
	c-0.8-1-1.7-1.9-2.5-2.9c-0.5,1.2-0.8,2-1.2,2.8c-0.4,0.9-0.5,1.7,0,2.6c1,2,2,4,3.7,5.6c3,2.7,6.1,5.5,9.1,8.3
	c1.4,1.4,2.8,1.6,4.5,0.5c3.3-2,6.7-3.9,10-5.8c0.9-0.5,1.7-0.8,2.2-1.9c0.3-0.7,1.2-1.1,2-1.5c0.8-0.5,1.5-0.1,1.8,0.8
	c0.4,1.3,0.5,2.5-0.4,3.7c-1.6,2.2-3,4.5-4.7,6.6c-1.9,2.4-3.9,4.7-5.8,7c2.5,3.3,5,6.6,7.5,9.9c0.1-0.9-0.3-1.7-0.1-2.4
	c0.1-0.5,0.9-0.9,1.5-1.4c-1.9-1.1-3.8-2.2-5.7-3.3c-1.3-0.8-1.4-1.6-0.7-2.9c0.2-0.3,0.3-0.5,0.5-0.8c3-3.8,6.1-7.6,9.2-11.3
	c0.1-0.1,0.4-0.1,1-0.2c-2.8,5-6.8,8.9-9.7,13.6c1.2,0.6,2.2,1.1,3.1,1.7c3.7,2.2,7.4,4,11.7,4.7c3.4,0.5,3.8,0.5,5.1-2.8
	c0.2-0.4,0.3-0.9,0.4-1.3c1.8-6.5,2.5-13.2,2.3-19.9c0-0.8-0.2-1.5-0.4-2.3c-3.1,7.3-7.2,13.6-12.9,18.9c0.3-2,1.4-3.5,2.7-5
	c2.4-2.8,4.7-5.8,5.9-9.3C314.5,188,315.3,182.4,315.2,176.7z M278.9,155.4c0,1.1,0,1.8,0,2.6c0.2,2.4,0.5,4.8,0.6,7.1
	c0.2,3.4-0.1,6.8-1.5,10c-0.9,2.2-0.8,2.5,0.9,4c0.4,0.3,0.7,0.6,1.1,0.9c4.7,3.1,9.6,4.5,15,1.7c1.2-0.6,2.5-1.3,3.9-1.5
	c1.1-0.2,1.7-0.8,2.4-1.6c1-1.2,2.1-2.3,3-3.4c0.3-0.3,0.5-0.8,0.5-1.2c0.8-4.2,1.5-8.3,2.2-12.5c0.4-2.1,0.7-4.3,1-6.3
	c-2.1,1.3-4,2.5-6,3.7c-3.9,2.3-8.1,2.4-12.3,0.9c-1.8-0.6-3.6-1.5-5.4-2.2C282.7,156.9,280.9,156.2,278.9,155.4z M234.7,249.5
	c-2.6-3.7-6.4-6.8-8.4-11.2c-0.1,1.5,0,2.8,0.1,4.2c0.7,12.2-0.5,24.3-2.5,36.4c-1.1,6.9-2.1,13.9-1.5,20.9c0.2,2.9,0.6,5.8,1,9.1
	c0.4-0.7,0.5-0.8,0.6-1c1.1-3.8,2.2-7.6,3.4-11.3c2.1-6.4,4.5-12.7,6.7-19c0.9-2.6,1.4-5.2,1.1-8c-0.4-3.5-0.8-6.9-1.2-10.3
	c-0.2-1.7-0.7-3.4-0.6-5C233.6,252.8,234.3,251.3,234.7,249.5z M288.2,229.8c1.1,0.4,1.7,0.6,2.2,0.8c3.6,1,6.8,2.9,9.5,5.5
	c1.2,1.2,1.4,1.5,0.5,2.7c-2,2.8-3.9,5.5-5.9,8.3c-0.3,0.5-0.9,0.8-1.6,1.5c-2.5-3.2-4.8-6.2-8.1-8.8c-1.7,6.5-6.1,11.1-9.4,16.3
	c0.7,1.2,1.5,1.1,2.3,0.7c0.6-0.3,1.5-0.8,1.9-0.6c1.4,0.9,3.6,0.9,3.3,3.3c1.1,0.5,2.1,0.8,2.8,1.1c4.5-6.2,8.8-12.3,13.3-18.4
	c4.4-6,9-11.9,13.5-17.8c-1.2-2.3-1.2-2.3,0.2-6.8c-0.8-0.2-1.6-0.4-2.4-0.6c-2.3-0.6-4.7-1.1-6.9-1.9c-1.3-0.4-2.2-0.4-3,0.6
	c0.1,0.3,0.2,0.6,0.3,0.9c1.5,4.2,1.1,5.4-2.8,7.7c-0.3,0.2-0.7,0.4-1,0.6C294.1,226.5,291.4,228,288.2,229.8z M275.8,311.1
	c-2.3,0.6-4.4,1.2-6.4,1.7c0,0.4,0,0.6,0,0.8c0,0.2-0.1,0.5-0.2,1c-0.7-0.7-0.6-2-1.9-1.3c0.5,3.7,1,7.4,1.5,11.1
	c0.9,5.9,2.9,11.5,6,16.6c1.4,2.3,3.1,4.3,5.4,5.6c2.4,1.4,5,1.9,7.8,1.1c0-0.9,0.1-1.7,0-2.5c-0.3-4.2-2.1-8-3.6-11.9
	c-1.9-4.9-3.4-9.9-4.2-15.1c-0.1-0.6-0.3-1.2-0.6-1.7C278.4,314.7,277,312.9,275.8,311.1z M219.4,342c0.4,0.6,0.6,0.9,0.8,1.2
	c3,4.4,5.8,8.9,7.9,13.9c1.6,3.8,2.4,7.7,2.3,11.7c-0.2,6.7-0.4,13.4-0.9,20.1c-0.2,2.4,0.8,3.9,2.5,5.3c4.9,4.1,9.7,8.4,13.9,13.2
	c0.3,0.4,0.7,0.7,1.1,1c-0.2-2.8-0.8-5.4-1.5-8c-0.1-0.5-0.8-1-1.3-1.2c-2.3-0.7-3.7-2.4-5.3-3.9c-2-1.8-3.1-4-3-6.7
	c0-1.2,0.1-2.5,0-3.7c-0.7-6.7-1.4-13.4-2.3-20c-1.3-8.8-2.9-17.5-4.4-26.4C225.9,339.1,222.3,339.1,219.4,342z M245.1,388.6
	c0-0.3,0-0.6,0-0.8c-1.1-6.9-2.4-13.8-3.3-20.8c-0.8-6-1.1-12.1-3-18c-0.7-2.1-1.6-4.4-0.4-6.7c0.4-0.8-0.2-1.5-0.9-2
	c-1.4-1.2-2.4-2.6-2.2-4.6c-1.5-0.4-2.8-0.7-4.2-1c-0.1,0.7-0.4,1.4-0.3,2.1c0.4,3.6,0.8,7.3,1.5,10.9c0.9,5.1,2.3,10.1,2.6,15.3
	c0.2,4,0.8,8,1.2,12c0.4,4.8,1.9,9.5,1.6,14.5c-0.1,1.4,0.7,2.5,1.6,3.6C241.4,391.5,243.3,390,245.1,388.6z M274.8,218.1
	c2.2-1.4,4.1-2.6,5.9-3.9c7.7-5.5,14.4-12.1,19.5-20.2c0.3-0.5,0.7-0.9,0.8-1.4c0.2-0.7,0.1-1.4-0.9-1.5c-0.3,1.9-0.3,1.9-2.3,2.8
	c-1.5,0.7-3,1.5-4.5,2.3c-2.4,1.3-4.9,2.7-7.2,4.1c-1.9,1.2-3.4,0.9-5-0.5c-3.1-2.9-6.3-5.6-9.4-8.5c-1.7-1.6-3-3.5-3.9-5.7
	c-0.2-0.4-0.4-0.8-0.6-1.2C269.1,195.7,273.3,206.4,274.8,218.1z M316.1,321c4.3-2,8.3-3.9,12.4-5.7c-0.4-1-0.8-1.9-1.2-2.7
	c-2.5-5-5.6-9.6-9.1-13.9c-0.6-0.8-1.3-0.9-2.2-0.8c-3.5,0.2-7.1,0.3-10.6,0.4c-1.3,0-2.5,0-4.1,0
	C306.2,305.9,311.1,313.3,316.1,321z M324.1,287.1c-1.9-1.2-4-2.5-6.1-3.7c-2.7-1.5-5.5-2.8-8.2-4.3c-1-0.5-1.7-0.5-2.4,0.4
	c-3.2,3.4-6.5,6.8-9.7,10.3c-0.4,0.4-0.7,0.8-0.9,1.1c1.4,1.5,2.8,3.1,4.2,4.5c0.6,0.6,1.4,1.1,2.1,1.2c3.9,0.2,7.9,0.4,11.8,0.3
	c3.7-0.1,6.4-1.8,7.5-5.6C322.8,289.7,323.5,288.5,324.1,287.1z M290.1,208.3c-4.5,4.9-10,8.2-15.2,11.7c-0.4,4-0.7,7.7-1.1,11.5
	c4.9-3.2,9.6-6.3,14.3-9.4c1.4-0.9,2-0.8,2.8,0.5c0.7,1.2,0.6,1.5-1,2.5c-0.7,0.4-1.5,0.9-2.2,1.2c-5,2.5-9.7,5.3-13.9,9.1
	c-0.7,0.7-1.4,1.2-0.8,2.5c8.2-6.4,17.8-10.5,26.1-16.5C296.1,217,293.2,212.7,290.1,208.3z M274.7,258.1c-3.9-2.4-7.6-4.3-11-6.8
	c-3.4-2.5-6.4-5.5-9.6-8.2c-1.2,1-2.5,2-3.6,3.1c-0.3,0.3-0.3,0.8-0.4,1.3c-0.2,2.7-0.4,5.4-0.7,8.4c5.4,4.1,11,8.4,16.7,12.7
	c0.7-0.9,1.4-1.8,2-2.7c0.2-0.3,0.3-0.8,0.3-1.2c-0.1-2.3,0.8-4,3-5C272.4,259.2,273.5,258.7,274.7,258.1z M337.1,165.7
	c0.1-0.1,0.2-0.3,0.3-0.4c-4.5-2.2-6.3-6.3-7.8-10.7c-2-6.1-3-12.4-4.2-18.7c-0.2-1.2-0.3-2.4-0.5-3.9c3.7,1.6,5.7,5.2,9.5,6.8
	c-2.6-5.6-6.4-9.4-11.4-12c-1.3,1-1.9,2.2-1.8,3.8c0.1,2.1-0.5,3.9-1.8,5.6c-1,1.3-1.7,2.8-2.7,4c-1.1,1.4-1.3,2.7-0.3,4.2
	c0.3,0.4,0.4,0.8,0.6,1.2c3.2,5.8,7.6,10.7,12.4,15.1c1.2,1.1,2.6,2.2,4,3.1C334.5,164.7,335.8,165.2,337.1,165.7z M233.9,214.1
	c2.2-3,2.3-3.3,2.4-6.1c0.3-4.6,0.6-9.2,0.9-13.8c0.3-4.3,1.5-8.1,4.7-11.3c1.5-1.5,2.8-3.1,4.1-4.7c0.3-0.3,0.5-0.7,1-1.3
	c-1.9-0.1-3.4-0.6-4.8,0.7c-0.6,0.6-1.4,0.9-2.1,1.4c-4,2.7-7.2,5.9-8.4,10.9c-0.8,3.5-1.8,7-2.9,10.5c-0.4,1.2-0.5,2.2,0.1,3.3
	C230.5,207.1,232.1,210.4,233.9,214.1z M269.2,688.5c0.3,1.7,0.7,3,0.9,4.3c0.9,7,1.8,14,2.8,21.1c0.1,1.1,0,2.3,1.3,2.7
	c1.6,0.5,3.2,1.4,4.7,0.7c-0.3-1.9-0.7-3.6-0.7-5.2c0.1-4.9,0.5-9.8,0.7-14.8c0.1-3.7,0.3-7.4,0.2-11.1c-0.1-2.1-0.7-4.1-1-6.2
	c-0.1,0-0.3,0-0.4,0c-0.6,2.3-1.1,4.5-1.6,6.7c0.5,0.4,0.9,0.7,1.7,1.3C274.5,688.2,271.9,688.4,269.2,688.5z M273.5,255.4
	c6.3-7,10.3-14.7,12.1-24.1c-4.8,3-9.1,5.7-12.9,9.3c-0.4,0.3-0.7,0.8-0.8,1.3c-0.8,2.9-1.9,5.5-3.5,8c-0.4,0.6-0.6,1.4-1,2.3
	C269.5,253.3,271.5,254.4,273.5,255.4z M295,386.1c0.5-1.3,0.6-1.5-0.2-2.1c-0.5-0.4-1-0.7-1.6-1c-4.6-2.2-9.5-3.2-14.6-2.8
	c-6.6,0.5-13.1,2.2-19.5,3.8c-6.2,1.5-11.6,4.7-16.6,8.5c-0.7,0.5-1.2,1.1-1.9,1.7c0.5,0.7,0.8,1.2,1.6,0.8c0.6-0.3,1.2-0.7,1.8-1.1
	c7-4.4,14.5-7.6,22.7-8.8c5.8-0.9,11.6-1.3,17.5-1.6c2-0.1,4.2,0.2,6.2,0.7C292,384.5,293.5,385.5,295,386.1z M295,390
	c2,0.7,3.6,1.4,5.3,1.9c5.2,1.3,10.5,2.4,15.8,3.6c6,1.3,12,0.7,17.8-0.9c0.6-0.2,1.4-0.5,1.6-1c0.5-1.1,0.6-2.3,1-3.7
	c-1,0.2-1.5,0.3-2.1,0.5c-4.4,1-8.8,1.8-13.3,1.6c-4.4-0.2-8.7-0.7-13.1-1.3c-4-0.5-7.7-1.7-11-4.4C296.4,387.4,295.8,388.5,295,390
	z M267.2,297.7c-4.1-6.5-6-13.3-7.8-20.1c-2.7,8-5.3,16-6.5,24.7c1.2-0.6,2.7-0.8,3-1.5c0.9-2,2.5-1.9,4.2-2.1
	C262.3,298.5,264.5,298.1,267.2,297.7z M335.9,305.7c-3.3-5.6-6.2-11.5-11.2-16.3c-0.6,1.4-1,2.6-1.6,3.7c-0.7,1.2-1.5,2.2-2.2,3.2
	c2,2.4,4,4.6,5.8,7c1.8,2.4,3.5,4.8,5.2,7.3C333.2,309,334.5,307.4,335.9,305.7z M235.9,216.5c0.5,0.8,0.7,1.2,0.9,1.6
	c1.6,2.8,3.3,5.5,4.9,8.3c1.3,2.3,3.4,3.8,5.4,5.3c0.6,0.4,1.4,0.5,2.2,0.8c1.1-2.1,2.1-3.9,3.2-6c-2.8-2.5-5.5-5-8.3-7.2
	C242,217.6,239.3,216.5,235.9,216.5z M297.8,182.5c-3.3,1.1-6.2,3.1-9.9,2.2c-3.5-0.8-6.7-2-9.3-4.3c-0.1,2-0.3,3.7-0.4,5.5
	c0,0.5,0.1,1.2,0.4,1.5c1.6,1.4,3.1,3.1,5,4c1.9,0.9,4.1,0.9,6-0.3C292.9,188.9,295.3,185.7,297.8,182.5z M299.1,237.7
	c-2.7-2.9-7.7-5.4-12-6c-0.6,2.3-1.2,4.5-1.7,6.7c1.6,1.3,3,2.3,4.3,3.5c1.3,1.2,2.4,2.7,3.8,4.2
	C295.4,243.2,297.3,240.4,299.1,237.7z M291.4,734.7c-2.3,0.7-4.5,1.4-6.8,2c-2.4,0.6-4.8,0.4-7.1-0.2c-2.2-0.5-4.5-1.2-6.6-2.1
	c-2.2-0.9-4.4-1.9-6.3-3.3c-1.9-1.3-3.3-3.2-5.1-5c0,1.4-0.1,2.7,0,4c0.2,2,1.3,3.4,3.1,4.3c8.2,4.1,16.9,5.3,25.9,4.1
	C291.3,738.3,291.7,737.6,291.4,734.7z M268.4,300.6c-2.8,0.3-5.6,0.5-8.4,0.8c0.4,3.1,0.8,5.9,1.1,8.7c4.1-0.9,7.9-1.8,12.1-2.8
	C271.5,304.9,270,302.8,268.4,300.6z M266.8,173.2c3.7,3.7,7.4,7.3,10.2,11.8c0.2-0.8,0.3-1.7,0.1-2.4c-1-3.7-2.1-7.4-3-11.1
	c-0.4-1.3-0.7-2.7-0.7-4.1c-0.1-1.4,0.5-1.8,1.8-1.4c0.9,0.3,1.7,0.6,2.6,0.9c0.1,0,0.3-0.1,0.5-0.2c0-0.4-0.1-0.8-0.1-1.3
	c-1.8-0.2-3.4-0.3-5.1-0.5C271.1,167.6,269,170.3,266.8,173.2z M264.7,682.5c1.3,1.8,2.4,3.5,3.5,5c2.1-0.2,4-0.4,6-0.7
	c0.7-2.2,1.4-4.4,2.1-6.6c-0.7-0.5-1.5-0.8-1.9-1.3c-0.9-1.3-2-1.3-3.2-0.8C268.8,679,266.7,680.3,264.7,682.5z M286.6,124.9
	c-5.9-3.3-14.6-2.4-18.9,2.2c0.9,3.4,1.8,6.9,2.7,10.5c0.3,1.1,1,1.4,2.1,1.2c1-0.2,2-0.4,3-0.5
	C282.2,137.2,286.9,133.3,286.6,124.9z M304.1,272c-4.1,2.1-8,4.2-12,6.3c-0.1,0.2-0.2,0.6-0.3,1c-0.5,1.7,1,3.3,2.7,2.6
	c3.3-1.2,6.4-2.5,9.6-3.8c0.5-0.2,1-0.7,1.5-1.1C305.2,275.3,304.7,273.7,304.1,272z M314.3,127.2c-1.5-0.5-2.9-1-4.2-1.5
	c-4.1-1.5-8.3-2.2-12.7-1.9c-3,0.2-3.8,1.6-2.3,4.3c0.6,1,1.1,2,1.9,2.9c2.8,3.6,6.3,5.9,11,5.9c1.7,0,3.4,0,5,0
	C314.2,133.8,314.5,131.3,314.3,127.2z M248.8,685.2c0,0.4,0,0.7,0,1.1c0.3,2.5,0.7,5,1.1,7.6c1.1,7.8,2.1,15.6,3.1,23.4
	c0.3,2.4,0.3,4.8,0.5,7.2c0,0.7-0.1,1.6,1.4,1.7c-0.4-4.8-0.8-9.5-1.2-14.2c-0.7-6.9-1.4-13.8-2.1-20.7
	C251.4,688.8,250.3,686.9,248.8,685.2z M260,311.5c-0.3-3.6-1.2-7.2-0.8-10.8c0.9-0.2,1.5-0.4,2.2-0.5c-0.5-0.3-1-0.3-1.4-0.2
	c-2.4,0.4-2.4,0.4-2.3,2.8c0.1,2.8,0.3,5.7,0.6,8.5c0.1,0.7,0.3,1.3,0.5,2.1c5.4-1.2,10.6-2.4,15.8-3.7c0-0.2-0.1-0.5-0.1-0.7
	c-1.6-0.1-3,0.9-4.6,1.1c-1.6,0.1-3.2,0.7-4.7,0.9C263.4,311.2,261.9,312.3,260,311.5z M252.7,303.4c-0.4,3-0.7,5.8-1.1,8.9
	c1.7-0.8,3.1-1.5,4.7-2.3c-0.1-2.4-0.3-4.8-0.4-7.5C254.7,302.9,253.9,303.1,252.7,303.4z M330.9,312.1c-2.2-5.1-5.9-9-9.3-13.1
	c-0.5-0.6-1-1.2-1.6-1.7c-0.3-0.2-0.9-0.1-1.3-0.2c4.4,5.1,8,10.5,10.8,16.7C330.1,313.1,330.5,312.6,330.9,312.1z M229.5,337.1
	c0.5-2.4,0.7-4.4-1.1-6.1c-0.6-0.6-0.9-1.4-1.3-2.1c-0.4-0.7-0.9-1.3-1.4-2c-0.1,0.1-0.3,0.1-0.4,0.2c0.3,3.3,0.6,6.6,0.8,10.1
	C227.2,337.1,228.3,337.1,229.5,337.1z M289.3,726.7c0.8,1.1,1.5,1.9,2,2.8c0.5,0.8,1.1,0.9,2,0.6c1.4-0.5,2.8-0.9,4.3-1.5
	c0.1-0.7,0.2-1.4,0.3-2.3C295,726.4,292.3,726.5,289.3,726.7z M275.3,264.3c-0.1-0.3-0.3-1.1-0.7-1.8c-0.5-0.8-1.1-1.5-2.2-1.4
	c-1.1,0.1-1.7,0.8-2.2,1.8c-0.9,1.8,0.7,3.3,2.6,3.8C274.5,267,275.3,266.4,275.3,264.3z M276.2,103.2c-0.1-0.1-0.2-0.3-0.3-0.4
	c-2.3,2.2-5.3,3.7-6.8,7c2.7-1.4,5.3-2.6,7.7-4c1-0.6,1.9-1.4,2-2.6C277.8,103.2,277,103.2,276.2,103.2z M308.3,263
	c-3.5,3.6-6.8,7-10.1,10.4c3.7-1.6,6.9-3.7,9.3-7C308.2,265.5,308.8,264.5,308.3,263z M242.4,231.4c-2.5,1.7-4.8,3.3-7.1,4.9
	c0.6,1.3,1.3,1.2,2.2,0.7c1.5-0.8,3-1.6,4.4-2.4c0.6-0.4,1.3-0.7,2-1.2C243.3,232.7,242.9,232.1,242.4,231.4z M245.4,234.4
	c-2.7,1.4-5.2,2.6-7.9,4c1,0.9,1.7,1.8,3,1c1.9-1.2,3.7-2.3,5.7-3.5C245.9,235.4,245.7,235,245.4,234.4z M271.9,268.3
	c-0.9-0.7-1.7-1.3-2.5-1.9c-2.7,3.5-2.8,4-1.1,5.4C269.4,270.7,270.6,269.5,271.9,268.3z M276.8,174.5c1.2-2.3,1.4-4.4,1.5-6.5
	c-1.1-0.1-2.1-0.3-3.5-0.4C275.5,170,276.1,172.1,276.8,174.5z M269.6,288.2c1.4,0,2.5-0.8,2.5-1.8c0-0.7-1.6-1.9-2.6-1.9
	c-0.8,0-2,1.3-2,2.2C267.4,287.6,268.2,288.2,269.6,288.2z M279.1,257.4c-1.5,0.9-2.9,1.7-4.5,2.6c0.7,0.8,1.2,1.4,1.8,2
	c1.6-1.2,3.1-2.3,4.6-3.4C280.3,258.2,279.8,257.8,279.1,257.4z M268.7,136.6c-0.5-2.4-1-4.9-1.5-7.5c-0.8-0.1-1.5-0.1-2.5-0.2
	C265.6,132.1,267,134.4,268.7,136.6z M242,229.1c-3.6,1.3-8.3,4.6-8.7,6C235.1,234.7,240.7,230.9,242,229.1z M254.8,234.9
	c-0.3-2.2-0.7-3.9-1.7-5.9c-0.8,1.6-1.4,2.9-2.1,4.3C252.4,233.8,253.5,234.3,254.8,234.9z M288.3,124.6c-0.2,0.9-0.3,1.8-0.5,2.4
	c2-0.3,3.7-0.6,5.6-1c0-0.2,0.1-0.6,0.2-1.1C291.8,124.8,290.2,124.7,288.3,124.6z M276.3,101.5c2.1,0.1,5.7-1.8,6.9-3.6
	C280.4,98.2,278.5,100.1,276.3,101.5z M220.1,210.6c2.8,1.4,2.7-1.4,4.2-2.2c-1.5,0-2.5,0-3.6,0
	C220.6,209.2,220.4,209.8,220.1,210.6z M242.6,396c0,0.2,0.1,0.3,0.1,0.5c0.7,0.2,1.4,0.4,2.3,0.6c-0.1-0.9-0.2-1.4-0.3-2.3
	C243.8,395.3,243.2,395.6,242.6,396z M317.9,127.7c0.6-0.3,1.1-0.6,2-1.2C318.3,126.5,318.3,126.5,317.9,127.7z M252.4,242.7
	c-1.7-0.3-2.2,0.2-1.6,1.6C251.2,243.9,251.7,243.4,252.4,242.7z"/>
<path class="st0" d="M275.9,677.2c-3.6-2.2-6.1-0.6-8.6,1.1c-1.2,0.8-2.2,1.9-3.3,2.8c-0.2-0.1-0.4-0.1-0.5-0.2
	c-2.9-4-5.7-8-8.5-12.1c-0.6-0.9-1-1.9-1.4-2.9c-0.3-0.8-0.3-1.6,0.5-2.3c0.1,0.3,0.2,0.6,0.1,0.7c-0.2,0.6-0.4,1.3,0.5,1.4
	c0.9,0.2,1.3-0.4,1.4-1.2c0.1-1.2,0.2-2.5,0.3-3.7c0.4-3.7,0.6-7.4,1.1-11.1c1-7.4,0.4-14.8-0.2-22.2c-0.3-4.1-0.5-8.2-0.9-12.2
	c-0.7-9-1.3-18-2.1-27c-1.6-18.1-1.8-36.2,1.3-54.3c1.7-10,4.8-19.6,8.5-29c2.2-5.6,4.1-11.3,6.4-16.9c1.6-4.1,1.5-8.2,0.7-12.3
	c-2-10.8-4.9-21.3-9-31.6c-3.5-8.7-7.1-17.4-10.2-26.3c-2.1-6-3.2-12.2-4.8-18.3c-0.5-1.8-1-3.5-1.5-5.6c2.6-1.3,5.1-2.6,7.6-3.7
	c6.3-2.8,12.9-4.3,19.7-4.7c4-0.2,8-0.7,12-0.9c3.1-0.2,6.2,0.4,8.3,2.4c0.3,1.9,0.6,3.4,0.9,5c1.9,7.6,2.8,15.3,3.2,23.1
	c0.3,7.1,0.9,14.2,1.2,21.3c0.2,7.8,0.3,15.6,0.2,23.4c-0.1,5.8-0.4,11.6-0.9,17.3c-0.6,6.5-2.5,12.7-5.1,18.7
	c-3.8,8.6-6,17.6-7.2,27c-0.6,5-1.9,9.8-2.9,14.8c-0.5,2.6-1,5.3-1.5,8c2.1-1.9,3-5.4,7.2-28.4c-0.2,2.5-0.2,5-0.6,7.5
	c-1.5,10.1-2.9,20.2-4.6,30.2c-1.5,8.8-3.5,17.6-5.1,26.4c-2,10.7-3.7,21.4-4.6,32.3c-0.5,7.3-0.9,14.6-1.4,21.9
	c-0.4,5.9-0.5,11.7,0.2,17.6c0.6,5.6,1.6,11.1,2.5,16.7C275.3,672.1,275.6,674.4,275.9,677.2z"/>
<path class="st0" d="M331.6,327c0.2,0.4,0.4,0.7,0.5,1c1.9,5.8,4.9,11.2,7.7,16.6c1.7,3.3,2.4,6.6,2,10.3c-1.1,10.5-2.7,21-4.7,31.4
	c-0.2,1.1-0.7,1.7-1.9,2c-6.6,1.8-13.2,2.3-20,1.6c-3.6-0.4-7.2-1.1-10.7-1.7c-1.1-0.2-2.1-0.6-3.1-0.9c-2.5-0.7-3.8-2.2-4.2-5
	c-0.6-4.7-1.9-9.2-2.8-13.8c-0.2-1-0.3-1.9-0.5-2.8c2.8,0.9,5.4,1.9,8.1,2.6c2.6,0.6,5.3,0.9,8.1,1.1c-4.3-1.5-8.7-2.8-13-4.9
	c2.7-1.7,5.2-3.3,7.7-4.8c-0.1-0.2-0.2-0.3-0.3-0.5c-3.9,0.6-7,3.6-11.2,4.4c0.1-0.5,0.1-1.1,0.4-1.4c0.5-0.6,1.1-1.1,1.6-1.6
	c0.6-0.7,1.5-1.4,0.8-2.4c-0.7-1.1-1.6-0.5-2.5-0.2c-0.8,0.3-1.6,0.6-2.4,0.9c-3.8,1.5-7.6,3-11.4,4.5c-0.8,0.3-1.6,0.8-2.3,1.3
	c2.8,0.3,5.3-1.1,7.8-1.9c2.6-0.8,5-1.8,8-2.8c-0.5,0.6-0.6,0.9-0.8,1c-1,0.8-1.1,1.6-0.8,2.9c1.3,5.8,2.4,11.6,3.6,17.5
	c0.1,0.3,0.1,0.6,0.1,1.1c-0.5-0.2-0.9-0.2-1.2-0.4c-6.3-3.2-12.9-4.2-19.8-2.9c-5.7,1.1-11.4,2.3-16.9,3.8c-3,0.8-5.8,2.4-8.7,3.6
	c-0.6,0.2-1.1,0.5-1.9,1c-0.4-2.2-0.9-4.2-1.3-6.2c-1.1-7.4-2.5-14.8-3-22.2c-0.2-2.4-0.9-4.7-1.4-7c-0.5-2.1-1.1-4.2-1.6-6.3
	c-0.1-0.6-0.1-1.4,0.1-2c0.7-1.9,0.1-3.3-1.4-4.5c-0.5-0.4-0.9-0.8-1.7-1.3c3.1-0.1,3.3,2.5,4.9,4.3c0-0.7,0-1,0-1.4
	c0-0.3,0-0.6-0.1-1c0.3,0,0.5-0.2,0.7-0.1c1,0.2,1.9,0.6,2.9,0.7c1.9,0.3,2.6-0.1,3.1-1.9c0.7-3,1.4-6,1.8-9.1
	c0.6-5.1,0.9-10.1,1.3-15.2c0-0.2,0.1-0.4,0.2-0.8c1.4-0.5,2.9-1,4.6-1.6c0.2,0.8,0.4,1.5,0.5,2.1c0.3,1.1,0.9,1.5,2.1,1.2
	c2-0.5,4-1,6.1-1.5c0.3-0.1,0.6-0.1,1.1-0.1c0.2,2.2,0.4,4.4,0.7,6.6c0.7,4.1,1.3,8.2,2.3,12.3c1,4.2,3.2,8,5.8,11.5
	c2.7,3.8,6.5,5.9,11.3,5.8c2.3,0,3.1-0.8,2.8-3.1c-0.4-3.5-1.1-7-2.2-10.4c-1.8-4.9-3.3-10-4.9-15c-0.1-0.3-0.1-0.6,0.1-1.1
	c0.4,0.5,0.8,0.9,1.1,1.4c2.1,3.3,4.2,6.6,6.4,9.9c0.7,1,1.4,2,2.2,3c0.9,1.1,2,1.7,3.4,1.7c1,0,2,0.1,3,0.1c1,0,1.9-0.1,2.7,0.8
	c0.5,0.5,1.5,0.5,2.7,0.7c-0.9,0.8-1.5,1.4-2.2,2c-1.4,1-2.8,1.9-4.2,2.9c-0.4,0.3-1,0.5-1.3,0.9c-0.4,0.5-0.7,1.2-0.7,1.8
	c0.1,0.4,0.9,0.9,1.4,0.9c2.1,0.2,4.1,0.4,6.2,0.4c1.7,0,3.4-0.3,5.1-0.4c0.3,0,0.5-0.2,0.7-0.8c-3.4-0.3-6.9-0.6-10.7-1
	c3-2.5,6.7-3.7,7.5-7.8C315.6,337.3,323.5,332.1,331.6,327z M271.2,357.9c5.2,1.8,30.1-5.9,33.8-10.3c-3.6,1.1-6.8,2-10,3.2
	c-5,1.9-9.9,3.8-15.1,5C277,356.5,274.1,357.2,271.2,357.9z M295.9,355.2c-2.7,0.1-12.6,3.8-14.5,5.3c0.9,0,1.5,0.1,2,0
	C287.9,359.4,292.2,358.1,295.9,355.2z M249.5,383c0.3-2.1,0.2-4.1-1.5-6.3C247.8,379.3,248,381.3,249.5,383z M243,351.5
	c-0.3-2,0.1-4.2-2-6C241,347.9,241.8,349.7,243,351.5z M247.4,373.1c0-1.7,0-3.4-1.4-5.1C245.7,370.1,246.5,371.6,247.4,373.1z
	 M244.4,357.4c-0.7,2,0.1,3.4,0.8,4.8C245.4,360.6,245.5,359.1,244.4,357.4z M248.5,385.4c0.2-0.1,0.4-0.1,0.6-0.2
	c0.1-0.7,0.2-1.4-1.2-1.7C248.2,384.4,248.4,384.9,248.5,385.4z"/>
<path class="st0" d="M295.9,392.4c11.3,2.8,22.2,6.9,34.3,4.9c-0.4,2.1-0.7,4.1-1,6c-1.7,10.3-5,20.2-8.4,30.1
	c-4.1,12.3-8.1,24.6-10.6,37.4c-0.9,4.5-1.8,9.1-2.5,13.6c-0.4,2.6-1.5,4.8-3.4,6.6c-1.1,1.1-1.9,2.5-2.7,4c2.1-0.7,3.4-2.4,5.1-3.8
	c-0.2,1.8-0.3,3.7-0.5,5.5c-0.5,5.1-1.1,10.1-1.7,15.2c-1,8.3-2,16.5-3.1,24.8c-1.7,12.5-3.6,25-5.3,37.6c-1.4,9.9-2.7,19.7-4,29.6
	c-0.7,5.4-1,10.9-1.6,16.4c-0.8,8.2-1.7,16.4-2.6,24.6c-0.3,3.3-0.6,6.6-1.6,9.8c-0.2,0.7-0.1,1.9,0.3,2.4c1.5,1.9,1.8,4.1,1.9,6.3
	c0.1,2.6-0.2,5.2-0.4,7.8c-0.2,2.3-2.1,3-4.1,3.9c-0.3-1.5-0.6-2.9-0.8-4.3c-0.8-5.3-3.9-9.3-7.7-12.8c-0.9-0.8-1-1.7-1.1-2.6
	c-0.2-4.1-0.5-8.2-0.5-12.3c0.1-11.7,0.9-23.3,2.1-34.9c1.7-16.3,5.1-32.3,8.2-48.4c1.8-9.3,3.2-18.7,4.4-28.1
	c1.1-8.1,1.7-16.3,2.5-24.4c0.3-2.9,1.1-5.6,2.3-8.2c4.4-9.8,6.2-20.1,6.9-30.8c0.6-10.1,0.3-20.2-0.1-30.3
	c-0.4-8.8-0.7-17.6-1.4-26.3c-0.5-5.8-1.6-11.4-2.4-17.2C296.2,393.9,296.1,393.2,295.9,392.4z"/>
<path class="st0" d="M313.7,220.1c2.2-5,5.4-9.1,9.7-12.4c3.9-3,8.1-5.4,12.6-7.2c1.2-0.5,2.4-0.6,3.3,0.1c0.7,2.2,1.2,4.3,1.9,6.3
	c0.6,1.7,0.6,3.2-0.1,4.9c-2,4.8-4.3,9.4-7.9,13.3c-1.3,1.4-2.4,3.1-3.2,4.8c-3.3,6.8-7.9,12.7-12.4,18.7c-2.5,3.4-5.1,6.8-7.7,10.1
	c-4.5,5.8-9.7,11-15.5,15.5c-2.5,1.9-4.9,4-7.4,6c-2.1,1.7-2.9,1.7-5.2,0.4c-4.2-2.3-7.6-5.4-11.5-8.6c1.6-1.4,3-2.8,4.6-3.9
	c1.3-0.9,1.9-1.9,2.1-3.4c0-0.5,0.2-1.1,0.5-1.4c1.3-1.1,2.6-2.1,3.9-3.1c1.3,0.7,2.4,1.3,3.6,1.9c1.4,0.7,1.8,0.7,2.4-0.6
	c4.7-9,11.3-16.5,17.4-24.5c3.1-4.1,6.1-8.4,9.1-12.6C315.6,222.2,315.6,222.2,313.7,220.1z"/>
<path class="st0" d="M246.6,339.1c-3.6-0.5-6.7-1.6-9.4-3.8c-1-0.8-1.9-1.4-3.3-1.6c-0.9-0.1-1.8-0.8-2.5-1.5
	c-2.2-2.3-3.6-5.2-4.9-8.1c-0.2-0.5-0.3-1.1-0.7-1.5c-0.9-1.1-1.1-2.5-1.3-3.9c-0.8-4.8,0.8-9.2,2-13.6c1.4-5.4,3.4-10.5,5.2-15.7
	c2.2,0.3,4.1,0.7,6,0.8c2.6,0.2,3.4-0.5,3.6-3.1c0.3-2.8,0.4-5.5,0.6-8.3c0.1-2.2,0.4-4.3,1.7-6.1c1.1-1.4,1-2.8,0.1-4.3
	c-1-1.7-1.7-3.4-2.6-5.2c-0.3-0.5-0.4-1.1-0.7-1.9c1.6,0,2.9,0,4.5,0c-0.7-1.3-1.8-1.2-2.7-1.4c-0.9-0.2-1.8-0.4-2.7-0.3
	c-1,0.1-1.1,1-0.9,1.8c0.3,0.9,0.7,1.7,1.1,2.6c0.9,1.8,1.8,3.6,2.6,5.4c0.2,0.6,0.4,1.5,0.1,1.9c-2.5,3.2-2,7-2.4,10.7
	c-0.2,1.7-0.3,3.4-0.5,5.1c-0.1,1-0.6,1.6-1.7,1.4c-1.7-0.2-3.4-0.5-5.4-0.8c0.9-2.7,1.8-5.1,2.6-7.5c0.6-2.1,1.3-4.1,1.7-6.3
	c0.7-4-0.1-8-0.7-11.9c-0.3-2.1-0.8-4.1-1.2-6.1c-0.3-1.5,0-2.8,0.5-4.3c1.3,3.6,4.6,5.2,7.3,7.3c1.5,1.2,1.9,1.1,3.6,0
	c0.8-0.6,1.7-1,2.6-1.6c4.1,3.2,8.3,6.4,12.6,9.7c-1.2,3.7-2.5,7.2-3.6,10.8c-2.4,7.6-4.9,15.1-6,23c-0.8,6-1.3,12-2.1,17.9
	c-0.7,5.8-1.6,11.6-2.4,17.4C247.3,337.2,246.9,338.1,246.6,339.1z M246.4,297.8c0.1-2.3-0.5-2.8-2.1-2.1c-3.3,1.4-6.5,2.8-9.8,4.2
	c-1.3,0.6-2.1,1.5-2.4,2.9c-1,5.5-1.9,10.9-2.9,16.4c-0.2,1.2,0.1,2.2,1.2,2.7c2.4,1.1,4.7,2.2,7.2,3.1c2,0.7,3,0.1,3.5-2
	c0.8-2.9,1.6-5.8,2.2-8.7C244.6,308.6,245.5,302.9,246.4,297.8z"/>
<path class="st0" d="M304.9,279.7c-3.3,4.3-7.6,7.5-10.6,12.1c0.6,0.3,1.2,0.5,1.6,0.8c1.2,1.1,2.3,2.3,3.4,3.5
	c0.3,0.4,0.8,1,0.7,1.4c-0.4,1.6,0.6,2.6,1.5,3.6c0.5,0.6,0.9,1.2,1.3,1.9c3.2,6.3,7.7,11.7,11.5,17.6c0.9,1.4,1.7,1.7,3.1,1.1
	c3.4-1.4,6.8-2.9,10.1-4.5c2-1,3.4-2.6,4.7-4.4c1.4-1.9,2.9-3.6,4.6-5.7c1.8,3.1,3.4,5.9,5.1,8.8c-0.3,0.4-0.5,0.7-0.8,0.9
	c-3.3,2.9-6.4,6-9.9,8.7c-5.6,4.4-11.8,7.7-18.9,9.5c-2.8,0.7-4.9,0-6.6-2.1c-2.3-2.8-4.6-5.6-6.4-8.7c-2.6-4.4-4.8-9.1-7.2-13.7
	c-1.4-2.7-3-5.4-4.5-8.1c-1.3-2.3-3.3-3.8-5.9-4.9c0.8-2.9-1-4.6-2.8-6.4c-3.5-3.5-5.6-7.9-7.4-12.4c-0.5-1.2-0.4-2.5-0.1-4.1
	c0.6,0.5,1.2,1,1.9,1.5c3.2,2.3,6.5,4.7,9.8,7c0.6,0.4,1.7,0.4,2.4,0.1c1.1-0.4,2-1.2,2.9-1.8c0.7-0.5,1.3-1.1,2-1.6
	c0.3,0.8,0.3,1.6,0.7,2c2,2.4,1.8,2.8,5,1.6C298.9,282.1,301.9,280.9,304.9,279.7z"/>
<path class="st0" d="M266.8,175c0.8,0.9,1.6,1.8,2.5,2.8c-0.5,1.6-1.2,3-2.5,4.3c-1.4-1-0.5-2.4-1.1-3.7c-0.2,0.5-0.5,0.9-0.5,1.2
	c-0.2,2.2,0,4.4,0.6,6.6c2.2,8.1,4.3,16.3,6.4,24.4c0.6,2.4,1,4.8,1.2,7.3c0.2,2.7,0,5.4-0.2,8.1c-0.3,2.8-0.8,5.5-1.3,8.2
	c-0.5,2.7-1.2,5.4-1.8,8.1c-0.7,3.1-2.4,5.8-4.3,8.7c-3.5-3-6.9-5.9-10.5-9c0.8-0.4,1.3-0.6,1.7-0.8c2.2-0.7,3-3.1,1.2-4.5
	c-1.1-0.9-1.5-1.9-1.8-3.1c-1.4-7.2-2.8-14.4-4.2-21.6c-0.3-1.6-0.6-3.2-1-5.1c1.8,0.1,3.5,0.3,5.1,0.3c1.6,0,3.2,0.1,4.8-0.8
	c-0.9-1.7-2.5-2.2-3.8-3.1c-1.2-0.9-2.6-1.7-3.9-2.5c-1.4-0.8-2.7-1.8-4.2-2.4c-1.4-0.6-2.9-1-4.5-1.5c0.1-0.4,0.2-0.8,0.4-1.1
	c2.9-4.4,5.9-8.9,8.8-13.3c1.1-1.6,2.4-2.7,4.2-3.5C260.9,177.8,263.7,176.4,266.8,175z"/>
<path class="st0" d="M251.6,664.6c0.3,3.3,2.5,5.7,4.1,8.2c3.1,4.7,6.4,9.3,9.7,13.9c0.7,1,1.2,2.1,2.5,2.5c0.2,0.1,0.4,0.8,0.4,1.2
	c0.6,4.7,1.2,9.5,1.8,14.2c0.4,3.2,0.7,6.4,0.9,9.7c0.2,2.3,1.4,3.6,3.6,4.3c2,0.6,3.9,1.1,5.8,0.2c2.4,2.1,9.9,12.3,10.4,14.1
	c-5.5,2.5-11,3.2-16.8,1c-2.7-1-5.6-2-8-3.5c-4.6-2.9-7.2-7.1-7.5-12.8c-0.4-7.9-1.4-15.7-3.3-23.3c-0.4-1.6-1-3.2-1.6-4.8
	c-0.1-0.4-0.2-0.8-0.5-1c-2.3-1.8-2.9-4.7-4.5-6.9c-1.3-1.8-1.3-3.7-0.3-5.7c0.9-1.9,1.6-3.9,2.3-5.8c0.3-0.9,0.4-1.8,0.5-2.7
	C251.4,666.4,251.5,665.5,251.6,664.6z"/>
<path class="st0" d="M305.8,103.1c1.2,2.2,2.2,4.5,3.6,6.7c1.2,2,2.7,3.7,4.2,5.5c2.3,2.8,3.5,6,3.8,9.5c0.1,0.5-0.1,1.3-0.5,1.6
	c-0.3,0.2-1.1,0.1-1.6-0.2c-5.4-2.7-11.2-4.2-17.2-3.6c-2.8,0.3-5.6,0.6-8.3,0.9c-1.4,0.1-2.5,0-3.7-0.4c-6.2-2.2-12.2-2.2-17.8,2
	c-0.2,0.2-0.5,0.3-0.8,0.5c-1.1-1.2-0.3-2.4,0.2-3.4c0.6-1.3,1.5-2.5,2.3-3.8c0.2-0.4,0.6-0.9,0.6-1.2c-0.4-2.4,1.2-4.4,1.6-6.6
	c0.1-0.4,0.6-0.8,1.1-1.1c1.4-0.8,2.8-1.7,4.3-2.3c1.2-0.5,2-1.3,2.5-2.6c0.7-1.9,1.8-3.6,3.6-4.7c0.6-0.4,1.1-0.7,1.9-0.3
	c0.5,0.2,1.2,0.2,1.8,0c4.1-0.8,8.1-0.1,12.1,1.1C301.4,101.4,303.6,102.3,305.8,103.1C305.9,103.2,305.8,103.1,305.8,103.1z"/>
<path class="st0" d="M313.8,138c1.7-2.4,1.5-5.3,1.9-8.2c0.6-0.3,1.1-0.6,2-1c0.1,1.4,0.1,2.7,0.2,4.3c1.5-1.5,0.7-3.3,1.7-4.8
	c0.7,2.5,0.5,4.7-0.9,6.5c-2,2.7-3.6,5.7-6.3,7.9c-1.2,1-2,2.7-2.8,4.2c-1,1.9-1.9,3.9-2.8,5.8c-0.7,1.5-1.7,2.7-3.2,3.5
	c-0.8,0.4-1.5,0.8-2.2,1.3c-3.6,2.2-7.5,2.3-11.4,1c-3.5-1.2-6.9-2.7-10.3-4.1c-0.7-0.3-1.3-0.9-1.7-1.5c-2.2-4.1-4.4-8.2-6.5-12.2
	c-0.1-0.1,0-0.3,0-0.6c1.5-0.2,3.1-0.5,4.6-0.8c5.3-0.9,8.9-4,11.2-8.7c1.3-2.6,1.6-3,4.4-2.9c0.5,0,1.1,0.1,1.6,0.1
	C297.4,136.6,304.5,139.2,313.8,138z M296.1,145.6c-0.4-1.2-1.4-1.1-2.3-1.1c-3.1,0-4.5,0.5-5.4,1.5
	C292.7,146.5,294.7,146.4,296.1,145.6z M294.4,136.6c-2.3-1.1-4.2,0-6.1-0.6c0,0.5,0,0.8,0.1,0.9c0.4,0.2,0.8,0.5,1.2,0.5
	C291.1,137.4,292.6,137.6,294.4,136.6z"/>
<path class="st0" d="M217.9,230.3c0,2.5,1.3,3.7,6.6,6.7c-0.2,0.8-0.4,1.7-0.7,2.8c-0.6-0.5-1-0.7-1.4-1.1c-1.7-1.6-3.4-3.2-5.1-4.7
	c-1.1-0.9-1.6-2-1.3-3.4c0.5-2.6,0.8-5.2,1.3-7.8c0.4-2.5,1-5,1.4-7.5c0.2-1.2,0.5-2,2-2c0.7,0,1.5-0.3,2.2-0.7
	c0.6-0.3,1-0.8,1.4-1.3c0.6-0.7,1.1-1.5,1.7-2.4c-0.5-2.1-1.1-4.4-1.5-6.8c-0.2-1,0.2-2,1.6-2.3c0.2,0.4,0.6,0.8,0.7,1.3
	c1.1,6.1,4.4,11.1,7.8,16.1c1.8,2.7,3.6,5.4,5.3,8.1c0.4,0.6,0.7,1.3,1.2,2.2c-1,0.7-1.9,1.3-2.9,2c-1.5,1-3.1,2-4.6,3
	c-2,1.3-2,1.7-1.1,4.2c0.6,0.1,1.3,0.2,1.6,0.2c1.7,1.5,3.3,2.8,4.8,4.2c0.6,0.6,1.3,0.3,1.9,0c2.1-1.3,4.3-2.5,6.3-3.8
	c1.2-0.8,1.3-1.6,0.3-2.7c-0.4-0.4-0.8-0.7-1.6-1.4c0.9,0.2,1.4,0.3,1.8,0.5c2.9,1.2,5.7,2.4,8.5,3.6c1.1,0.4,1.7,1,1.2,2.5
	c-1.9,0.4-3.9,1-5.9,1.4c-1.6,0.3-2.3,1.2-2.4,2.6c-0.2,2.1-0.4,4.1-0.6,6.2c-0.2,1.8-0.3,3.5-0.6,5.3c-0.3,1.9-2.7,2.9-4.3,1.9
	c-1.3-0.8-2.5-1.5-3.7-2.4c-0.7-0.5-1.5-1.2-1.8-2c-1.3-3.9-4.1-6.7-6.6-9.7c-1.2-1.4-2.4-2.8-2.9-4.7c-0.1-0.5-0.5-1-0.9-1.3
	c-2.5-2-4.9-4-7.4-5.9C219.6,230.8,218.8,230.7,217.9,230.3z"/>
<path class="st0" d="M275,659.5c3.6,3.6,6.2,7.6,6.7,12.8c0.2,2.1,0.6,4.2,1.6,6.6c0.3-1.2,0.4-1.9,0.7-3c0.8,2.3,2.5,1.1,3.9,1.5
	c0.3,3.7,0.7,7.5,1,11.3c1.3-1,1.3-2.3,1.3-3.5c-0.1-2.8,0-5.6-0.7-8.3c-0.8-3.1,0.7-5.8,0.7-8.7c0.5,4.4,1.1,8.9,1.5,13.3
	c0.7,8,2.1,15.9,3.6,23.8c0.5,2.7,1.2,5.4,1.8,8.1c0.2,0.7,0.5,1.5,0.8,2.2c0.4,1.1,0.9,2.1,1.4,3.2c0.1,0.3,0,0.6-0.1,0.9
	c-0.5,1.6-1.1,3.2-1.7,4.8c-0.9,0-1.6,0-2.2,0c-2.2,0-4.3,0-6.5,0.2c-0.9,0.1-1.4-0.2-2-0.9c-1.8-2.3-3.7-4.6-5.6-6.8
	c-1-1.2-1.6-2.4-1.5-4c0.1-3.6,0.1-7.3,0.2-10.9c0.1-3.5,0.2-6.9,0.4-10.4c0.2-4.1-0.3-8.2-1.3-12.1c-0.2-1-0.2-2-1.2-2.7
	c-0.2-0.2-0.3-0.7-0.4-1c-0.8-4.8-1.5-9.6-2.3-14.4C275.1,660.9,275.1,660.2,275,659.5z"/>
<path class="st0" d="M305.2,335.4c-1.7-0.1-3.4-0.2-5.1-0.3c-1.3-0.1-2.6-0.3-3.9-0.2c-2,0.1-3.4-0.7-4.4-2.3
	c-1.6-2.5-3.2-4.9-4.9-7.3c-5.3-7.7-10.5-15.4-15.8-23.1c-1.3-2-2.7-3.9-3.3-6.2c-0.1-0.2-0.1-0.5-0.3-0.6
	c-3.4-4.7-4.2-10.4-6.2-15.6c-1.6-4.1-0.4-7.7,1.3-11.5c1.3,0.5,2.3,1.2,2.9,2.4c1.2,2.5,1.8,2.9,4.6,2.7c-1.3,3.6,0.6,6.7,1.8,10.1
	c-0.8-0.1-1.3-0.1-1.9-0.2c-1.8-0.3-2.9,0.7-3.8,2.1c-0.7,1.1-0.5,2.2,0.3,3.2c1.1,1.2,2.5,1.7,4,1.1c1.2-0.5,2.2-1.4,3.4-2.2
	c1.7,1.9,3.7,4.1,5.5,6.4c0.5,0.7,0.9,1.7,0.9,2.5c0,1.3,0.4,2.1,1.6,2.5c2,0.7,3.3,2.2,4.3,4c1.5,2.6,3,5.2,4.4,7.9
	c1.3,2.4,2.3,4.9,3.5,7.3c3.1,6.1,6.5,11.9,11.3,16.8C305.3,335.1,305.3,335.3,305.2,335.4z M283.5,313c2.2,0,4.6-1.9,4.5-3.5
	c0-1.8-2.2-3.7-4.9-3.8c-1.8-0.1-3.4,1.8-3.4,3.7C279.8,311.3,281.6,313.1,283.5,313z"/>
<path class="st0" d="M315.2,176.7c0.1,5.7-0.7,11.3-2.5,16.6c-1.2,3.5-3.5,6.5-5.9,9.3c-1.3,1.5-2.3,3-2.7,5
	c5.8-5.2,9.8-11.6,12.9-18.9c0.1,0.8,0.4,1.5,0.4,2.3c0.2,6.8-0.5,13.4-2.3,19.9c-0.1,0.4-0.3,0.9-0.4,1.3c-1.3,3.3-1.7,3.3-5.1,2.8
	c-4.3-0.7-8-2.5-11.7-4.7c-0.9-0.5-1.9-1-3.1-1.7c2.9-4.7,6.8-8.5,9.7-13.6c-0.6,0.1-0.9,0-1,0.2c-3.1,3.8-6.1,7.6-9.2,11.3
	c-0.2,0.2-0.4,0.5-0.5,0.8c-0.8,1.3-0.6,2.1,0.7,2.9c1.8,1.1,3.7,2.2,5.7,3.3c-0.6,0.5-1.4,0.9-1.5,1.4c-0.2,0.7,0.2,1.5,0.1,2.4
	c-2.5-3.3-5-6.5-7.5-9.9c1.9-2.3,4-4.6,5.8-7c1.7-2.1,3.1-4.4,4.7-6.6c0.9-1.2,0.8-2.4,0.4-3.7c-0.3-0.9-0.9-1.3-1.8-0.8
	c-0.7,0.4-1.6,0.8-2,1.5c-0.5,1-1.4,1.4-2.2,1.9c-3.4,1.9-6.7,3.8-10,5.8c-1.7,1.1-3.1,0.9-4.5-0.5c-3-2.8-6-5.5-9.1-8.3
	c-1.7-1.5-2.7-3.5-3.7-5.6c-0.4-0.9-0.4-1.8,0-2.6c0.4-0.8,0.7-1.7,1.2-2.8c0.9,1,1.7,1.9,2.5,2.9c1.7,2.1,3.3,4.2,5,6.3
	c0.2,0.2,0.3,0.5,0.5,0.8c2.9,5.5,9.8,5.8,13.5,2.7c0.1-0.1,0.3-0.2,0.4-0.3c3.7-3.9,7.5-7.6,10.4-12.1c0.5-0.7,0.7-1.8,2.2-1.6
	c0,1.2,0.1,2.5,0,3.8c-0.1,1.3-0.3,2.6-0.5,4c0.5,0.2,1.1,0.4,2,0.7c-0.4,4.6-0.6,9.3-3,13.9c3.1-1.3,5.2-3.2,6.6-5.9
	c2.2-4.1,3.4-8.6,4.5-13.1C314.4,179.5,314.8,178.1,315.2,176.7z"/>
<path class="st0" d="M278.9,155.4c2,0.8,3.8,1.4,5.6,2.1c1.8,0.7,3.5,1.6,5.4,2.2c4.2,1.4,8.4,1.4,12.3-0.9c2-1.2,3.9-2.4,6-3.7
	c-0.3,2-0.6,4.1-1,6.3c-0.7,4.2-1.5,8.4-2.2,12.5c-0.1,0.4-0.3,0.9-0.5,1.2c-1,1.2-2.1,2.3-3,3.4c-0.7,0.8-1.3,1.4-2.4,1.6
	c-1.3,0.3-2.6,0.9-3.9,1.5c-5.4,2.8-10.3,1.4-15-1.7c-0.4-0.2-0.7-0.6-1.1-0.9c-1.7-1.5-1.8-1.8-0.9-4c1.3-3.2,1.7-6.6,1.5-10
	c-0.1-2.4-0.4-4.8-0.6-7.1C278.9,157.3,278.9,156.5,278.9,155.4z"/>
<path class="st0" d="M234.7,249.5c-0.4,1.7-1.1,3.3-1.2,4.8c-0.1,1.7,0.4,3.4,0.6,5c0.4,3.4,0.8,6.9,1.2,10.3c0.3,2.7-0.2,5.4-1.1,8
	c-2.2,6.3-4.5,12.6-6.7,19c-1.3,3.7-2.3,7.5-3.4,11.3c-0.1,0.2-0.2,0.4-0.6,1c-0.4-3.3-0.8-6.2-1-9.1c-0.6-7.1,0.4-14,1.5-20.9
	c1.9-12.1,3.2-24.2,2.5-36.4c-0.1-1.4-0.2-2.7-0.1-4.2C228.3,242.8,232.1,245.8,234.7,249.5z"/>
<path class="st0" d="M288.2,229.8c3.2-1.8,5.9-3.3,8.7-4.9c0.3-0.2,0.7-0.4,1-0.6c3.9-2.3,4.3-3.5,2.8-7.7c-0.1-0.3-0.2-0.6-0.3-0.9
	c0.9-1,1.7-1.1,3-0.6c2.2,0.8,4.6,1.3,6.9,1.9c0.8,0.2,1.6,0.4,2.4,0.6c-1.4,4.5-1.4,4.5-0.2,6.8c-4.4,5.8-9,11.7-13.5,17.8
	c-4.4,6-8.8,12.1-13.3,18.4c-0.7-0.3-1.7-0.7-2.8-1.1c0.3-2.4-1.9-2.5-3.3-3.3c-0.4-0.2-1.3,0.3-1.9,0.6c-0.9,0.5-1.6,0.5-2.3-0.7
	c3.3-5.2,7.7-9.8,9.4-16.3c3.4,2.5,5.7,5.6,8.1,8.8c0.7-0.7,1.2-1,1.6-1.5c2-2.7,4-5.5,5.9-8.3c0.8-1.2,0.7-1.6-0.5-2.7
	c-2.7-2.6-5.9-4.4-9.5-5.5C289.8,230.4,289.3,230.2,288.2,229.8z"/>
<path class="st0" d="M275.8,311.1c1.3,1.8,2.6,3.6,3.8,5.4c0.3,0.5,0.6,1.1,0.6,1.7c0.7,5.2,2.3,10.2,4.2,15.1
	c1.5,3.9,3.3,7.7,3.6,11.9c0.1,0.8,0,1.6,0,2.5c-2.9,0.9-5.4,0.4-7.8-1.1c-2.3-1.4-4-3.3-5.4-5.6c-3.1-5.2-5.1-10.7-6-16.6
	c-0.5-3.7-1-7.4-1.5-11.1c1.4-0.7,1.3,0.6,1.9,1.3c0.1-0.6,0.1-0.8,0.2-1c0-0.2,0-0.5,0-0.8C271.4,312.3,273.5,311.7,275.8,311.1z
	 M278.4,342.8c0.9,1.2,1.9,2.3,4,2.4C281.3,343.6,280.2,342.7,278.4,342.8z M271.5,327.6c0.3-2,0.2-2.2-1.3-3.2
	C269.9,325.8,270.3,326.8,271.5,327.6z M276.1,337.2c-0.1,0.1-0.3,0.3-0.4,0.4c0.1,1.4,1.3,1.3,2.2,1.8c0.1-0.1,0.2-0.2,0.3-0.4
	C277.5,338.4,276.8,337.8,276.1,337.2z M270.2,318.3c-0.2,0-0.4,0.1-0.5,0.1c0.2,0.7,0.3,1.5,0.6,2.7
	C270.9,319.3,270.9,319.3,270.2,318.3z M272.7,331.1c-0.1,0.1-0.3,0.2-0.4,0.3c0.3,1.3,0.2,1.3,1.9,1.8
	C273.6,332.3,273.2,331.7,272.7,331.1z M286.5,347.2c0-0.2-0.1-0.3-0.1-0.5c-1.6-0.3-1.6-0.3-2.3,0.9
	C285.1,347.4,285.8,347.3,286.5,347.2z"/>
<path class="st0" d="M237.1,212c0.3-3.6,0.6-7.2,0.9-10.8c0.2-2.6,0.6-5.2,0.8-7.8c0.3-3.2,1.4-6.1,3.5-8.6c1.8-2.2,3.6-4.4,5.5-6.6
	c0.4-0.4,0.9-0.7,1.3-1.1c0.1,0.1,0.2,0.2,0.4,0.3c-0.2,0.5-0.4,1-0.8,2c1.1-0.7,1.8-1.1,2.4-1.5c0.3-0.2,0.7-0.3,1-0.3
	c1.6,0,3.2,0,4.8,0c0,0,0,0.2-0.1,0.2c-2.2,1-3.6,2.7-4.9,4.7c-2.7,4.2-5.5,8.4-8.3,12.5c-1.3,2-1.2,2.9,1.2,3.5
	c4.5,1.3,8.1,4,12.3,6.8c-1.7,0-2.9,0-4.2,0c-0.5,0-0.9-0.2-1.4-0.2c-2-0.2-2.6,0.3-2.2,2.3c0.8,4.4,1.6,8.8,2.4,13.2
	c0.2,1,0.3,2,0.1,3.2c-1.5-1.3-2.9-2.6-4.3-3.9c-3.3-3.2-7.3-4.8-12.2-4.7C236,214,236.6,213,237.1,212c0.1,0.6,0.1,1.3,0.1,2.4
	C238.5,212.4,238.5,212.4,237.1,212z M239.9,201.2c0-1.4,0-2.7,0-4.1C239,198.5,239,199.8,239.9,201.2z M240.9,190.9
	c-1,1.6-0.5,2.9-0.1,4.1C241.2,193.8,241.6,192.5,240.9,190.9z M244.6,185.6c-0.2-0.1-0.4-0.3-0.6-0.4c-1.2,0.7-1.5,2-1.4,3.4
	C243.3,187.7,244,186.7,244.6,185.6z M238.4,207.8c0.2,0,0.5,0,0.7,0c0.1-1.1,0.9-2.1,0.5-3.3c-0.2,0-0.4-0.1-0.6-0.1
	C238.8,205.6,238.6,206.7,238.4,207.8z M247.6,181.3c-0.2-0.1-0.4-0.3-0.6-0.4c-1.1,0.5-1.4,1.5-1.1,2.8
	C246.5,182.9,247.1,182.1,247.6,181.3z"/>
<path class="st0" d="M219.4,342c2.9-2.9,6.5-2.8,9.9-3.5c1.5,9,3.1,17.7,4.4,26.4c1,6.6,1.6,13.3,2.3,20c0.1,1.2,0,2.5,0,3.7
	c-0.1,2.7,1,4.9,3,6.7c1.7,1.5,3.1,3.2,5.3,3.9c0.5,0.2,1.1,0.7,1.3,1.2c0.7,2.6,1.3,5.2,1.5,8c-0.4-0.3-0.8-0.6-1.1-1
	c-4.2-4.8-9.1-9.1-13.9-13.2c-1.7-1.5-2.6-2.9-2.5-5.3c0.4-6.7,0.7-13.4,0.9-20.1c0.1-4-0.7-8-2.3-11.7c-2.1-4.9-4.9-9.5-7.9-13.9
	C220.1,342.8,219.8,342.5,219.4,342z"/>
<path class="st0" d="M245.1,388.6c-1.8,1.4-3.7,2.9-5.8,4.5c-0.9-1.1-1.7-2.2-1.6-3.6c0.3-4.9-1.2-9.6-1.6-14.5c-0.3-4-0.9-8-1.2-12
	c-0.3-5.2-1.7-10.2-2.6-15.3c-0.6-3.6-1-7.2-1.5-10.9c-0.1-0.7,0.2-1.4,0.3-2.1c1.4,0.3,2.8,0.7,4.2,1c-0.3,2,0.7,3.4,2.2,4.6
	c0.6,0.5,1.3,1.2,0.9,2c-1.2,2.3-0.3,4.7,0.4,6.7c1.9,5.9,2.3,11.9,3,18c0.9,7,2.2,13.9,3.3,20.8
	C245.1,388.1,245.1,388.3,245.1,388.6z"/>
<path class="st0" d="M274.8,218.1c-1.5-11.7-5.7-22.4-7.6-33.6c0.2,0.4,0.4,0.8,0.6,1.2c0.9,2.2,2.2,4.1,3.9,5.7
	c3.1,2.9,6.3,5.7,9.4,8.5c1.6,1.4,3.1,1.7,5,0.5c2.3-1.5,4.8-2.8,7.2-4.1c1.5-0.8,3-1.6,4.5-2.3c2-0.9,2-0.8,2.3-2.8
	c1,0.1,1,0.8,0.9,1.5c-0.1,0.5-0.5,1-0.8,1.4c-5.1,8-11.8,14.6-19.5,20.2C278.8,215.4,276.9,216.6,274.8,218.1z"/>
<path class="st0" d="M316.1,321c-5-7.7-9.9-15.1-14.9-22.8c1.6,0,2.9,0,4.1,0c3.5-0.1,7.1-0.2,10.6-0.4c0.9,0,1.6,0.1,2.2,0.8
	c3.6,4.3,6.6,8.9,9.1,13.9c0.4,0.8,0.7,1.7,1.2,2.7C324.4,317.1,320.4,319,316.1,321z"/>
<path class="st0" d="M324.1,287.1c-0.6,1.4-1.3,2.6-1.7,3.9c-1.1,3.8-3.8,5.6-7.5,5.6c-3.9,0.1-7.9-0.1-11.8-0.3
	c-0.7,0-1.6-0.6-2.1-1.2c-1.4-1.4-2.8-2.9-4.2-4.5c0.2-0.2,0.5-0.7,0.9-1.1c3.2-3.4,6.5-6.8,9.7-10.3c0.8-0.8,1.5-0.9,2.4-0.4
	c2.7,1.5,5.5,2.8,8.2,4.3C320.2,284.6,322.2,285.9,324.1,287.1z M319.4,292.7c0-1.3-0.9-2.2-2.3-2.3c-1.3-0.1-2.2,0.9-2.2,2.3
	c0,1.3,0.9,2.4,2.1,2.5C318.3,295.3,319.4,294.2,319.4,292.7z"/>
<path class="st0" d="M290.1,208.3c3.1,4.5,6,8.7,9,13.2c-8.3,6.1-17.9,10.1-26.1,16.5c-0.6-1.3,0-1.8,0.8-2.5
	c4.1-3.8,8.9-6.6,13.9-9.1c0.8-0.4,1.5-0.8,2.2-1.2c1.6-0.9,1.7-1.3,1-2.5c-0.8-1.3-1.4-1.4-2.8-0.5c-4.7,3.1-9.4,6.1-14.3,9.4
	c0.4-3.8,0.7-7.6,1.1-11.5C280.1,216.4,285.6,213.2,290.1,208.3z"/>
<path class="st0" d="M274.7,258.1c-1.3,0.6-2.3,1.1-3.3,1.6c-2.1,1-3,2.7-3,5c0,0.4-0.1,0.9-0.3,1.2c-0.6,0.9-1.3,1.7-2,2.7
	c-5.7-4.3-11.3-8.6-16.7-12.7c0.3-3.1,0.5-5.8,0.7-8.4c0-0.4,0.1-1,0.4-1.3c1.2-1.1,2.4-2.1,3.6-3.1c3.2,2.8,6.2,5.7,9.6,8.2
	C267.1,253.8,270.9,255.7,274.7,258.1z"/>
<path class="st0" d="M337.1,165.7c-1.2-0.6-2.5-1-3.6-1.7c-1.4-0.9-2.8-2-4-3.1c-4.8-4.5-9.2-9.3-12.4-15.1
	c-0.2-0.4-0.4-0.8-0.6-1.2c-1-1.5-0.8-2.8,0.3-4.2c1-1.3,1.7-2.7,2.7-4c1.3-1.7,1.9-3.5,1.8-5.6c-0.1-1.6,0.4-2.8,1.8-3.8
	c5,2.6,8.8,6.4,11.4,12c-3.9-1.6-5.9-5.2-9.5-6.8c0.2,1.5,0.3,2.7,0.5,3.9c1.2,6.3,2.2,12.6,4.2,18.7c1.5,4.4,3.3,8.5,7.8,10.7
	C337.2,165.5,337.2,165.6,337.1,165.7z"/>
<path class="st0" d="M313.4,143.5c0.6,4,1.2,7.9,1.7,11.9c1.1,8.6-0.2,16.9-2.6,25.1c-1.1,3.5-2.2,7.1-3.4,10.6
	c-0.4,1.3-1.2,2.4-2.2,3.5c0-0.5-0.1-1.1,0-1.6c0.5-3.2,0.6-6.4-0.4-9.6c-0.2-0.5,0-1.2,0.2-1.8c3.1-8.9,4.9-18.2,6.4-27.4
	c0.3-2.1,0.4-4.2,0.3-6.4c-2.2,9.3-4,18.6-7.1,27.6c0.3-2.6,0.5-5.2,0.9-7.8c1-5.6,2.1-11.2,3-16.8c0.4-2.3,1.3-4.2,2.5-6.1
	C313.1,144.4,313.2,144,313.4,143.5C313.4,143.6,313.4,143.5,313.4,143.5z"/>
<path class="st0" d="M233.9,214.1c-1.8-3.7-3.4-7.1-5-10.5c-0.5-1.1-0.4-2.1-0.1-3.3c1.1-3.5,2.1-6.9,2.9-10.5
	c1.1-5,4.4-8.2,8.4-10.9c0.7-0.5,1.5-0.8,2.1-1.4c1.4-1.3,2.9-0.8,4.8-0.7c-0.5,0.7-0.7,1-1,1.3c-1.4,1.6-2.7,3.2-4.1,4.7
	c-3.1,3.1-4.4,7-4.7,11.3c-0.3,4.6-0.6,9.2-0.9,13.8C236.2,210.9,236.1,211.1,233.9,214.1z"/>
<path class="st0" d="M269.2,688.5c2.7-0.2,5.3-0.3,8.3-0.5c-0.8-0.6-1.1-0.9-1.7-1.3c0.5-2.1,1.1-4.4,1.6-6.7c0.1,0,0.3,0,0.4,0
	c0.4,2.1,0.9,4.1,1,6.2c0.1,3.7,0,7.4-0.2,11.1c-0.2,4.9-0.5,9.8-0.7,14.8c0,1.6,0.4,3.3,0.7,5.2c-1.5,0.8-3.1-0.2-4.7-0.7
	c-1.3-0.4-1.1-1.7-1.3-2.7c-0.9-7-1.8-14-2.8-21.1C269.9,691.5,269.5,690.3,269.2,688.5z"/>
<path class="st0" d="M320,209c-0.2-0.4-0.5-0.8-0.7-1.2c-0.4,0.2-0.7,0.3-0.9,0.5c-0.3,0.2-0.5,0.4-1,0.8c1-7,2.4-13.7,1.3-20.8
	c1.5,1,2.7,1.8,3.9,2.7c2.3,1.8,4.9,2.6,7.7,2.6c1.6,0,3,0.5,4.2,1.5c1.3,1,2.6,1.9,4.1,3.1c-0.8,0.2-1.3,0.4-1.9,0.6
	c-6.1,2.1-11.6,5.3-16.4,9.6C320.2,208.4,320.2,208.7,320,209L320,209z M336.6,197.5c-0.1-0.2-0.1-0.4-0.2-0.5
	c-1.6-0.2-1.6-0.2-2.8,1.7C334.8,198.2,335.7,197.9,336.6,197.5z M328,201.2c-0.1-0.2-0.2-0.4-0.3-0.7c-1,0.3-1.9,0.7-2.3,2
	C326.3,202.1,327.2,201.7,328,201.2z M323.4,204.1c-1.7-0.3-2.1,0.7-3,2.1C321.9,205.7,322.9,205.4,323.4,204.1z M331.9,199.3
	c-1.1-0.8-1.7-0.3-2.1,0.7C330.5,199.8,331.2,199.6,331.9,199.3z"/>
<path class="st0" d="M273.5,255.4c-2-1-4-2.1-6.1-3.2c0.4-0.9,0.6-1.7,1-2.3c1.6-2.5,2.7-5.2,3.5-8c0.1-0.5,0.5-1,0.8-1.3
	c3.8-3.5,8.2-6.3,12.9-9.3C283.9,240.7,279.9,248.4,273.5,255.4z"/>
<path class="st0" d="M295,386.1c-1.5-0.7-3-1.6-4.6-2c-2-0.5-4.1-0.8-6.2-0.7c-5.8,0.4-11.7,0.8-17.5,1.6
	c-8.2,1.2-15.7,4.4-22.7,8.8c-0.6,0.4-1.2,0.8-1.8,1.1c-0.7,0.4-1.1-0.1-1.6-0.8c0.7-0.6,1.2-1.2,1.9-1.7c5-3.8,10.4-7,16.6-8.5
	c6.4-1.6,12.9-3.3,19.5-3.8c5.1-0.4,10,0.7,14.6,2.8c0.6,0.3,1.1,0.6,1.6,1C295.6,384.6,295.6,384.9,295,386.1z"/>
<path class="st0" d="M295,390c0.8-1.5,1.4-2.6,2.1-3.9c3.3,2.7,7,4,11,4.4c4.4,0.5,8.7,1,13.1,1.3c4.5,0.2,8.9-0.6,13.3-1.6
	c0.6-0.1,1.2-0.2,2.1-0.5c-0.3,1.4-0.5,2.6-1,3.7c-0.2,0.5-1,0.9-1.6,1c-5.9,1.6-11.8,2.2-17.8,0.9c-5.3-1.1-10.5-2.3-15.8-3.6
	C298.6,391.4,297,390.7,295,390z"/>
<path class="st0" d="M305.9,103.2c-0.4-0.5-0.8-1.1-1.3-1.4c-2.9-2-6.3-2.9-9.8-3.3c-2.6-0.3-5.2-0.3-8-0.4c0.4-0.3,0.6-0.9,1-0.9
	c1.9-0.4,3.8-0.9,5.7-0.9c3.4,0.1,6.8,0.6,10.1,0.9c0.7,0.1,1.5,0.3,2.2,0.5c0,0.4-0.1,0.8-0.1,1.1c1.2,0.5,2.6,0,3.6,1.3
	c-0.6,0.1-1,0.1-1.4,0.1c0,0.2-0.1,0.4,0,0.5c4.9,4,8.8,8.9,11.4,14.7c1.1,2.4,1.9,5.1,2.7,7.6c0.5,1.5,0.3,1.9-0.7,3.4
	c-0.7-0.6-1.5-1.1-2.4-1.9c0.2-3.2-1.4-6.2-3.3-8.9c-2.9-4-5.9-7.9-8.8-11.9C306.5,103.4,306.1,103.3,305.9,103.2
	C305.8,103.1,305.9,103.2,305.9,103.2z"/>
<path class="st0" d="M267.2,297.7c-2.7,0.4-4.9,0.8-7.1,1.1c-1.7,0.2-3.3,0-4.2,2.1c-0.3,0.7-1.8,0.9-3,1.5
	c1.3-8.7,3.8-16.7,6.5-24.7C261.3,284.4,263.1,291.1,267.2,297.7z"/>
<path class="st0" d="M335.9,305.7c-1.4,1.7-2.7,3.3-4,4.9c-1.8-2.5-3.4-5-5.2-7.3c-1.8-2.4-3.8-4.6-5.8-7c0.7-1,1.5-2,2.2-3.2
	c0.6-1.1,1-2.4,1.6-3.7C329.7,294.1,332.6,300.1,335.9,305.7z"/>
<path class="st0" d="M235.9,216.5c3.4,0,6.1,1.1,8.3,2.9c2.9,2.2,5.5,4.7,8.3,7.2c-1.1,2-2.1,3.9-3.2,6c-0.8-0.3-1.6-0.4-2.2-0.8
	c-2-1.6-4.1-3-5.4-5.3c-1.6-2.8-3.3-5.6-4.9-8.3C236.6,217.7,236.4,217.3,235.9,216.5z"/>
<path class="st0" d="M297.8,182.5c-2.5,3.2-4.9,6.3-8.3,8.5c-1.9,1.2-4.1,1.3-6,0.3c-1.9-0.9-3.4-2.6-5-4c-0.3-0.3-0.4-1-0.4-1.5
	c0.1-1.7,0.2-3.5,0.4-5.5c2.6,2.3,5.9,3.5,9.3,4.3C291.5,185.6,294.5,183.7,297.8,182.5z"/>
<path class="st0" d="M299.1,237.7c-1.9,2.7-3.7,5.5-5.7,8.4c-1.3-1.5-2.5-2.9-3.8-4.2c-1.3-1.2-2.7-2.2-4.3-3.5
	c0.6-2.1,1.1-4.4,1.7-6.7C291.4,232.3,296.4,234.8,299.1,237.7z"/>
<path class="st0" d="M291.4,734.7c0.3,2.9-0.1,3.5-3,3.9c-9,1.2-17.7,0-25.9-4.1c-1.8-0.9-2.9-2.3-3.1-4.3c-0.1-1.3,0-2.6,0-4
	c1.7,1.8,3.2,3.6,5.1,5c1.9,1.4,4.1,2.4,6.3,3.3c2.1,0.9,4.4,1.5,6.6,2.1c2.3,0.5,4.7,0.8,7.1,0.2
	C286.8,736.1,289.1,735.4,291.4,734.7z"/>
<path class="st0" d="M268.4,300.6c1.6,2.2,3.1,4.3,4.8,6.7c-4.2,1-8,1.8-12.1,2.8c-0.4-2.9-0.7-5.6-1.1-8.7
	C262.8,301.2,265.6,300.9,268.4,300.6z"/>
<path class="st0" d="M266.8,173.2c2.2-2.9,4.3-5.6,6.4-8.3c1.6,0.1,3.3,0.3,5.1,0.5c0,0.5,0.1,0.9,0.1,1.3c-0.3,0.1-0.4,0.2-0.5,0.2
	c-0.9-0.3-1.7-0.6-2.6-0.9c-1.4-0.4-1.9,0-1.8,1.4c0.1,1.4,0.4,2.7,0.7,4.1c1,3.7,2.1,7.4,3,11.1c0.2,0.7,0,1.6-0.1,2.4
	C274.2,180.5,270.5,176.9,266.8,173.2z"/>
<path class="st0" d="M264.7,682.5c1.9-2.2,4.1-3.5,6.5-4.4c1.2-0.5,2.3-0.4,3.2,0.8c0.4,0.6,1.2,0.8,1.9,1.3
	c-0.7,2.1-1.4,4.4-2.1,6.6c-2,0.2-3.9,0.4-6,0.7C267.2,686,266,684.3,264.7,682.5z"/>
<path class="st0" d="M286.6,124.9c0.3,8.4-4.4,12.3-11.2,13.4c-1,0.2-2,0.3-3,0.5c-1.1,0.2-1.8,0-2.1-1.2c-0.9-3.6-1.8-7.1-2.7-10.5
	C272,122.5,280.7,121.6,286.6,124.9z M272.2,137.5c4.7-0.9,9.2-2.1,12.1-6.5c1.1-1.7,1.4-3.1,0.7-5c-0.7-1.7-0.8-1.9-2.7-1.8
	c-2.8,0.2-5.7,0.6-8.5,0.9c-3.8,0.3-5.2,1.6-4,5.9C270.3,133.2,270.5,135.5,272.2,137.5z"/>
<path class="st0" d="M304.1,272c0.5,1.7,1,3.3,1.5,5c-0.5,0.4-1,0.9-1.5,1.1c-3.2,1.3-6.4,2.6-9.6,3.8c-1.7,0.6-3.2-0.9-2.7-2.6
	c0.1-0.4,0.2-0.7,0.3-1C296.2,276.2,300.1,274.1,304.1,272z"/>
<path class="st0" d="M313.4,143.6c0.3-0.1,0.7-0.3,1.2-0.5c0.3,0.6,0.6,1.3,0.9,2c0.6,1.3,1,2.7,1.8,3.7c1.2,1.6,1.4,3.3,1.5,5.2
	c0.1,3.9,0.6,7.9,0.4,11.8c-0.2,4.4-1,8.9-1.6,13.3c-0.1,0.4-0.3,0.8-0.6,1.6c0-1.6-0.1-2.8,0-4.1c0.6-9-0.1-18-1.5-26.9
	c-0.2-1.4-0.6-2.7-0.8-4.1C314.6,144.7,314.3,143.9,313.4,143.6C313.4,143.5,313.4,143.6,313.4,143.6z"/>
<path class="st0" d="M314.3,127.2c0.2,4.1-0.1,6.6-1.4,9.6c-1.6,0-3.3,0-5,0c-4.7,0-8.2-2.3-11-5.9c-0.7-0.9-1.3-1.9-1.9-2.9
	c-1.5-2.7-0.8-4.1,2.3-4.3c4.4-0.3,8.6,0.5,12.7,1.9C311.4,126.2,312.8,126.7,314.3,127.2z M301.8,125.1c0,0.1,0,0.1,0,0.2
	c-0.9,0-1.9-0.1-2.8,0c-2.1,0.2-2.8,1.5-1.9,3.4c0.4,0.8,0.9,1.4,1.4,2.1c2,2.4,4.5,4.1,7.4,4.9c1.4,0.4,3,0.5,4.5,0.4
	c1.7-0.1,2.7-1.1,2.7-2.8c0-1.5-0.3-3-0.6-4.5c-0.3-1.3-1.3-2.1-2.6-2.3C307.3,125.9,304.5,125.5,301.8,125.1z"/>
<path class="st0" d="M248.8,685.2c1.5,1.8,2.5,3.6,2.7,5.9c0.6,6.9,1.4,13.8,2.1,20.7c0.5,4.7,0.8,9.4,1.2,14.2
	c-1.4-0.1-1.3-0.9-1.4-1.7c-0.1-2.4-0.2-4.8-0.5-7.2c-1-7.8-2.1-15.6-3.1-23.4c-0.3-2.5-0.7-5-1.1-7.6
	C248.8,685.9,248.8,685.5,248.8,685.2z"/>
<path class="st0" d="M260,311.5c1.9,0.8,3.4-0.3,5.1-0.5c1.6-0.3,3.2-0.8,4.7-0.9c1.6-0.1,3-1.1,4.6-1.1c0,0.2,0.1,0.5,0.1,0.7
	c-5.2,1.2-10.5,2.4-15.8,3.7c-0.2-0.8-0.4-1.4-0.5-2.1c-0.2-2.8-0.4-5.7-0.6-8.5c-0.1-2.3,0-2.4,2.3-2.8c0.4-0.1,0.9-0.1,1.4,0.2
	c-0.6,0.2-1.3,0.3-2.2,0.5C258.8,304.3,259.6,307.9,260,311.5z"/>
<path class="st0" d="M252.7,303.4c1.2-0.3,2-0.5,3.1-0.8c0.2,2.6,0.3,5.1,0.4,7.5c-1.5,0.8-3,1.5-4.7,2.3
	C252,309.3,252.3,306.4,252.7,303.4z"/>
<path class="st0" d="M330.9,312.1c-0.4,0.5-0.8,1-1.4,1.8c-2.7-6.2-6.4-11.6-10.8-16.7c0.4,0,1-0.1,1.3,0.2c0.6,0.5,1.1,1.1,1.6,1.7
	C325,303.2,328.7,307.1,330.9,312.1z"/>
<path class="st0" d="M229.5,337.1c-1.2,0-2.2,0-3.4,0c-0.3-3.4-0.6-6.7-0.8-10.1c0.1-0.1,0.3-0.1,0.4-0.2c0.5,0.7,1,1.3,1.4,2
	c0.5,0.7,0.8,1.6,1.3,2.1C230.1,332.7,230,334.7,229.5,337.1z"/>
<path class="st0" d="M289.3,726.7c3-0.1,5.6-0.3,8.6-0.4c-0.1,1-0.2,1.7-0.3,2.3c-1.5,0.5-2.9,1-4.3,1.5c-0.8,0.3-1.5,0.2-2-0.6
	C290.8,728.6,290.1,727.7,289.3,726.7z"/>
<path class="st0" d="M275.3,264.3c0,2.1-0.8,2.8-2.5,2.3c-1.9-0.5-3.5-2-2.6-3.8c0.5-1,1.1-1.6,2.2-1.8c1.1-0.1,1.7,0.6,2.2,1.4
	C275,263.1,275.2,263.9,275.3,264.3z"/>
<path class="st0" d="M276.2,103.2c0.8,0,1.6,0,2.6,0c-0.1,1.3-0.9,2.1-2,2.6c-2.5,1.3-5,2.6-7.7,4c1.5-3.3,4.5-4.9,6.8-7
	C276,103,276.1,103.1,276.2,103.2z"/>
<path class="st0" d="M308.3,263c0.5,1.5-0.1,2.4-0.8,3.4c-2.4,3.3-5.6,5.4-9.3,7C301.5,270,304.8,266.6,308.3,263z"/>
<path class="st0" d="M242.4,231.4c0.5,0.7,0.9,1.3,1.5,2c-0.7,0.4-1.3,0.8-2,1.2c-1.5,0.8-3,1.6-4.4,2.4c-0.9,0.5-1.6,0.6-2.2-0.7
	C237.5,234.7,239.8,233.1,242.4,231.4z"/>
<path class="st0" d="M245.4,234.4c0.3,0.6,0.5,1,0.8,1.5c-1.9,1.2-3.8,2.3-5.7,3.5c-1.2,0.8-1.9-0.1-3-1
	C240.2,237.1,242.7,235.8,245.4,234.4z"/>
<path class="st0" d="M268.8,115.7c-1.5,0.7-1.4,2.2-1.9,3.5c-0.4,0.9-0.4,1.9-0.6,3c-1.7-3.3,0.3-8.1,4.3-10.4
	c-0.4,1.4-0.7,2.5-1,3.7C269.5,115.6,269.1,115.6,268.8,115.7C268.8,115.7,268.8,115.7,268.8,115.7z"/>
<path class="st0" d="M271.9,268.3c-1.3,1.2-2.5,2.3-3.7,3.5c-1.7-1.3-1.5-1.9,1.1-5.4C270.2,267,271,267.6,271.9,268.3z"/>
<path class="st0" d="M276.8,174.5c-0.7-2.4-1.3-4.5-2-7c1.4,0.2,2.4,0.3,3.5,0.4C278.2,170.2,278,172.3,276.8,174.5z"/>
<path class="st0" d="M269.6,288.2c-1.4,0-2.2-0.6-2.1-1.5c0.1-0.9,1.3-2.2,2-2.2c1,0,2.5,1.2,2.6,1.9
	C272.1,287.4,271,288.2,269.6,288.2z"/>
<path class="st0" d="M279.1,257.4c0.7,0.4,1.2,0.7,1.9,1.2c-1.6,1.2-3,2.3-4.6,3.4c-0.6-0.6-1.1-1.2-1.8-2
	C276.2,259.1,277.6,258.3,279.1,257.4z"/>
<path class="st0" d="M268.7,136.6c-1.7-2.2-3.1-4.6-3.9-7.6c1,0.1,1.7,0.1,2.5,0.2C267.7,131.7,268.2,134.2,268.7,136.6z"/>
<path class="st0" d="M242,229.1c-1.3,1.8-6.9,5.6-8.7,6C233.8,233.7,238.4,230.4,242,229.1z"/>
<path class="st0" d="M254.8,234.9c-1.4-0.6-2.5-1-3.8-1.6c0.7-1.4,1.3-2.7,2.1-4.3C254.1,231,254.5,232.7,254.8,234.9z"/>
<path class="st0" d="M288.3,124.6c1.9,0.1,3.5,0.2,5.3,0.3c-0.1,0.6-0.1,0.9-0.2,1.1c-1.9,0.3-3.6,0.6-5.6,1
	C287.9,126.3,288.1,125.5,288.3,124.6z"/>
<path class="st0" d="M276.3,101.5c2.2-1.4,4.1-3.3,6.9-3.6C282,99.6,278.5,101.6,276.3,101.5z"/>
<path class="st0" d="M220.1,210.6c0.2-0.8,0.4-1.4,0.7-2.2c1.1,0,2.1,0,3.6,0C222.8,209.2,223,212,220.1,210.6z"/>
<path class="st0" d="M242.6,396c0.6-0.4,1.2-0.7,2.1-1.2c0.1,0.8,0.2,1.4,0.3,2.3c-1-0.3-1.6-0.4-2.3-0.6
	C242.7,396.3,242.6,396.1,242.6,396z"/>
<path class="st0" d="M320,209c-1.1,0.9-2.2,1.8-3.5,2.9c0.2-0.7,0.2-1.4,0.5-1.6C318,209.7,319,209.4,320,209
	C320,209,320,209,320,209z"/>
<path class="st0" d="M317.9,127.7c0.3-1.2,0.3-1.2,2-1.2C319.1,127.1,318.5,127.4,317.9,127.7z"/>
<path class="st0" d="M268.8,115.7c1,1.2,0.6,2.2-0.8,3.3C268.3,117.7,268.6,116.7,268.8,115.7C268.8,115.7,268.8,115.7,268.8,115.7z
	"/>
<path class="st0" d="M252.4,242.7c-0.7,0.7-1.2,1.2-1.6,1.6C250.2,242.9,250.7,242.4,252.4,242.7z"/>
<path d="M271.2,357.9c2.9-0.7,5.8-1.4,8.7-2.1c5.2-1.2,10.1-3.1,15.1-5c3.1-1.2,6.4-2.1,10-3.2C301.3,352,276.4,359.7,271.2,357.9z"
	/>
<path d="M295.9,355.2c-3.7,2.9-8,4.2-12.5,5.3c-0.5,0.1-1.1,0-2,0C283.3,359,293.2,355.3,295.9,355.2z"/>
<path d="M249.5,383c-1.5-1.7-1.7-3.7-1.5-6.3C249.6,378.8,249.8,380.8,249.5,383z"/>
<path d="M243,351.5c-1.1-1.7-2-3.5-2-6C243.1,347.3,242.7,349.5,243,351.5z"/>
<path d="M247.4,373.1c-0.9-1.5-1.7-3-1.4-5.1C247.4,369.6,247.4,371.4,247.4,373.1z"/>
<path d="M244.4,357.4c1.1,1.7,1,3.2,0.8,4.8C244.5,360.8,243.7,359.4,244.4,357.4z"/>
<path d="M248.5,385.4c-0.2-0.5-0.3-1-0.6-1.9c1.5,0.4,1.4,1,1.2,1.7C248.9,385.3,248.7,385.4,248.5,385.4z"/>
<path d="M246.4,297.8c-0.9,5.1-1.9,10.8-3,16.5c-0.6,2.9-1.4,5.8-2.2,8.7c-0.6,2.1-1.5,2.7-3.5,2c-2.5-0.9-4.8-2-7.2-3.1
	c-1.1-0.5-1.4-1.6-1.2-2.7c0.9-5.5,1.9-10.9,2.9-16.4c0.2-1.4,1-2.4,2.4-2.9c3.3-1.4,6.5-2.8,9.8-4.2
	C246,295,246.6,295.4,246.4,297.8z M230.9,320.3c2.8,1.3,5.5,2.6,7.9,3.8c2.1-9.1,3.5-18.2,6.2-27.5c-3.1,1.5-5.8,3-8.6,4.1
	c-2,0.8-2.7,2.2-3,4.2c-0.4,3.2-1,6.4-1.6,9.6C231.6,316.4,231.3,318.3,230.9,320.3z"/>
<path d="M296.1,145.6c-1.4,0.8-3.4,0.9-7.6,0.4c0.9-1.1,2.3-1.5,5.4-1.5C294.7,144.5,295.7,144.4,296.1,145.6z"/>
<path d="M294.4,136.6c-1.8,1-3.4,0.8-4.8,0.8c-0.4,0-0.8-0.3-1.2-0.5c-0.1-0.1-0.1-0.4-0.1-0.9C290.2,136.7,292.1,135.5,294.4,136.6
	z"/>
<path d="M283.5,313c-1.9,0-3.7-1.7-3.7-3.7c0-1.9,1.6-3.8,3.4-3.7c2.6,0.2,4.8,2,4.9,3.8C288.1,311.2,285.7,313,283.5,313z
	 M283.6,311.3c1.4,0,2.8-0.9,2.8-1.9c0.1-1.2-1.3-2.5-2.4-2.5c-1.5,0-2.7,1-2.6,2.3C281.4,310.4,282.3,311.3,283.6,311.3z"/>
<path d="M278.4,342.8c1.7,0,2.8,0.9,4,2.4C280.4,345.1,279.4,344,278.4,342.8z"/>
<path d="M271.5,327.6c-1.1-0.8-1.5-1.8-1.3-3.2C271.7,325.4,271.8,325.6,271.5,327.6z"/>
<path d="M276.1,337.2c0.7,0.6,1.4,1.2,2,1.8c-0.1,0.1-0.2,0.2-0.3,0.4c-0.8-0.5-2.1-0.4-2.2-1.8C275.8,337.4,276,337.3,276.1,337.2z
	"/>
<path d="M270.2,318.3c0.7,1,0.7,1,0.1,2.9c-0.3-1.2-0.5-2-0.6-2.7C269.8,318.4,270,318.3,270.2,318.3z"/>
<path d="M272.7,331.1c0.4,0.6,0.9,1.2,1.5,2.1c-1.7-0.4-1.7-0.4-1.9-1.8C272.4,331.3,272.6,331.2,272.7,331.1z"/>
<path d="M286.5,347.2c-0.7,0.1-1.4,0.3-2.4,0.4c0.7-1.2,0.7-1.2,2.3-0.9C286.4,346.8,286.5,347,286.5,347.2z"/>
<path d="M239.9,201.2c-1-1.4-0.9-2.7,0-4.1C239.9,198.5,239.9,199.8,239.9,201.2z"/>
<path d="M240.9,190.9c0.7,1.6,0.3,2.9-0.1,4.1C240.4,193.8,239.9,192.5,240.9,190.9z"/>
<path d="M244.6,185.6c-0.7,1-1.3,2-2,3.1c-0.2-1.5,0.2-2.7,1.4-3.4C244.2,185.4,244.4,185.5,244.6,185.6z"/>
<path d="M238.4,207.8c0.2-1.1,0.4-2.2,0.6-3.4c0.2,0,0.4,0.1,0.6,0.1c0.4,1.2-0.4,2.2-0.5,3.3C238.9,207.9,238.7,207.8,238.4,207.8z
	"/>
<path d="M247.6,181.3c-0.6,0.8-1.1,1.6-1.7,2.4c-0.3-1.3,0.1-2.3,1.1-2.8C247.3,181,247.4,181.2,247.6,181.3z"/>
<path d="M237.1,212c1.4,0.4,1.4,0.4,0.1,2.4C237.2,213.3,237.2,212.6,237.1,212C237.2,211.9,237.1,212,237.1,212z"/>
<path d="M319.4,292.7c0,1.5-1.1,2.6-2.4,2.5c-1.3-0.1-2.2-1.2-2.1-2.5c0-1.4,1-2.4,2.2-2.3C318.5,290.4,319.5,291.4,319.4,292.7z
	 M317,291.6c-0.9,0.5-1,1.1-0.3,1.7c0.2,0.1,0.7,0.1,0.8,0C318,292.7,317.8,292.1,317,291.6z"/>
<path d="M336.6,197.5c-0.9,0.3-1.8,0.7-3,1.2c1.2-1.9,1.2-1.9,2.8-1.7C336.5,197.2,336.6,197.4,336.6,197.5z"/>
<path d="M328,201.2c-0.9,0.5-1.7,0.9-2.6,1.4c0.4-1.3,1.3-1.8,2.3-2C327.8,200.8,327.9,201,328,201.2z"/>
<path d="M323.4,204.1c-0.5,1.3-1.5,1.6-3,2.1C321.3,204.8,321.8,203.8,323.4,204.1z"/>
<path d="M331.9,199.3c-0.7,0.2-1.4,0.5-2.1,0.7C330.2,199,330.8,198.6,331.9,199.3z"/>
<path d="M272.2,137.5c-1.6-1.9-1.9-4.3-2.5-6.5c-1.2-4.2,0.3-5.6,4-5.9c2.8-0.2,5.7-0.6,8.5-0.9c1.9-0.2,2,0.1,2.7,1.8
	c0.7,1.8,0.4,3.3-0.7,5C281.4,135.4,276.9,136.5,272.2,137.5z M282.9,125.5c-3.2,0.3-6.3,0.7-9.4,1c-1.4,0.1-2.5,0.8-3.3,2.1
	c0.9,2.5,1.3,5.3,2.7,7.6c1.5-0.6,2.8-1.2,4.1-1.5c2.6-0.7,4.4-2.4,6-4.5C284.3,128.5,284,127.1,282.9,125.5z"/>
<path d="M301.8,125.1c2.7,0.4,5.5,0.8,8.2,1.3c1.3,0.2,2.3,1,2.6,2.3c0.3,1.5,0.6,3,0.6,4.5c0,1.7-1,2.8-2.7,2.8
	c-1.5,0.1-3.1,0-4.5-0.4c-3-0.8-5.4-2.5-7.4-4.9c-0.5-0.6-1.1-1.3-1.4-2.1c-0.9-1.9-0.2-3.2,1.9-3.4c0.9-0.1,1.8,0,2.8,0
	C301.8,125.2,301.8,125.1,301.8,125.1z M297.6,126.6c0.4,0.9,0.6,1.6,1,2.1c2.5,3.7,6.2,5.6,10.6,6.4c0.4,0.1,0.9-0.1,1.3-0.4
	c1.6-0.9,1.9-2.5,1-4.9c-0.3-1-0.8-1.7-2-1.8c-3.1-0.4-6.2-1.1-9.3-1.5C299.4,126.4,298.7,126.6,297.6,126.6z"/>
<path class="st0" d="M230.9,320.3c0.4-2,0.7-3.9,1-5.8c0.5-3.2,1.1-6.4,1.6-9.6c0.3-2,1-3.4,3-4.2c2.8-1.1,5.5-2.6,8.6-4.1
	c-2.7,9.3-4.1,18.4-6.2,27.5C236.4,322.9,233.7,321.6,230.9,320.3z M236.3,308.3c-0.5,0.3-1.2,0.5-1.7,0.9c-1.3,0.9-1.5,2.6-0.6,3.9
	c0.8,1.1,2.1,1.1,2.9,0C238,311.5,237.8,309.9,236.3,308.3z"/>
<path class="st0" d="M283.6,311.3c-1.2,0-2.2-0.9-2.2-2.1c-0.1-1.3,1.1-2.3,2.6-2.3c1.2,0,2.5,1.4,2.4,2.5
	C286.3,310.3,284.9,311.3,283.6,311.3z"/>
<path class="st0" d="M317,291.6c0.8,0.5,1,1.1,0.4,1.7c-0.1,0.1-0.6,0.1-0.8,0C316,292.7,316.1,292.2,317,291.6z"/>
<path class="st0" d="M282.9,125.5c1.1,1.6,1.4,3,0.1,4.7c-1.6,2.1-3.4,3.8-6,4.5c-1.3,0.4-2.6,1-4.1,1.5c-1.4-2.3-1.8-5.1-2.7-7.6
	c0.8-1.3,1.9-1.9,3.3-2.1C276.6,126.1,279.8,125.8,282.9,125.5z"/>
<path class="st0" d="M297.6,126.6c1-0.1,1.8-0.3,2.5-0.2c3.1,0.5,6.2,1.1,9.3,1.5c1.2,0.2,1.7,0.8,2,1.8c0.8,2.4,0.5,4-1,4.9
	c-0.4,0.2-0.9,0.4-1.3,0.4c-4.3-0.7-8-2.6-10.6-6.4C298.3,128.2,298.1,127.6,297.6,126.6z"/>
<path d="M236.3,308.3c1.5,1.6,1.7,3.2,0.5,4.8c-0.8,1.1-2,1.1-2.9,0c-0.9-1.2-0.7-3,0.6-3.9C235.2,308.9,235.8,308.6,236.3,308.3z
	 M235.2,312.7c0.9-1.1,1.4-1.9,0.5-3C234.6,310.5,234.7,311.4,235.2,312.7z"/>
<path class="st0" d="M235.2,312.7c-0.5-1.3-0.5-2.2,0.5-3C236.6,310.8,236.1,311.6,235.2,312.7z"/>
</svg>
