<?xml version="1.0" encoding="utf-8"?>
<!-- Generator: Adobe Illustrator 19.0.0, SVG Export Plug-In . SVG Version: 6.00 Build 0)  -->
<svg version="1.1" id="图层_1" xmlns="http://www.w3.org/2000/svg" xmlns:xlink="http://www.w3.org/1999/xlink" x="0px" y="0px"
	 viewBox="0 0 595.3 841.9" style="enable-background:new 0 0 595.3 841.9;" xml:space="preserve">
<style type="text/css">
	.st0{fill:#FFFFFF;}
</style>
<path class="st0" d="M1.1,805.9c0-256.3,0-512.6,0-768.9c198.1,0,396.2,0,594.2,0c0,256.3,0,512.5,0,768.9
	C397.2,805.9,199.1,805.9,1.1,805.9z M252.8,693.7c0.1,0,0.2-0.1,0.4-0.1c0.2,0.6,0.5,1.2,0.6,1.7c1.1,6.7,2.3,13.3,3.1,20
	c0.6,5.3,0.7,10.7,1.1,16c0.2,3.2,1.8,5.5,4.7,6.9c4.6,2.1,9.4,3.8,14.5,4.1c4,0.2,8.1,0,12.1-0.4c2.6-0.2,3.5-1.4,3.7-4
	c0.1-1.5,0-3,0-4.6c1.4-0.3,2.8-0.7,4.2-1.1c1.8-0.4,2.3-0.8,2.3-2.7c0-2.5,0.6-4.9,1.5-7.2c0.4-1.1,0.5-2.3-0.1-3.4
	c-2.2-4-3.1-8.5-4.1-12.8c-2.3-9.9-3.4-20-4.4-30.1c-0.5-4.8-0.8-9.6-1.4-14.4c-0.2-1.6-0.6-3.3-1.4-4.6c-0.8-1.2-0.9-2.2-0.7-3.5
	c0.3-2.7,0.6-5.4,0.9-8.1c1-10.2,2-20.4,3.1-30.6c0.8-7.3,1.6-14.7,2.5-22c1.4-10.6,3-21.2,4.5-31.8c1.2-8.4,2.4-16.7,3.5-25.1
	c1.4-10.1,2.9-20.3,3.5-30.5c0.3-4.4,0.8-8.8,1.2-13.2c0.1-1.5,0-3,0.2-4.4c0.8-4.6,1.9-9.1,2.7-13.7c2.2-13.1,6.1-25.6,10.4-38.1
	c2.7-8,5.2-16.1,7.5-24.2c1.4-4.9,2.1-10,3.1-15.1c1.3-0.3,2.6-0.7,4-1c1.3-0.3,1.9-1.2,2.1-2.5c0.2-1.2,0.3-2.5,0.5-3.7
	c2-11.8,3.9-23.6,5.2-35.5c0.4-3.5-0.1-6.7-1.7-9.9c-2.1-4-4.1-8.2-6.1-12.3c-1-2.1-2-4.3-3.1-6.6c3.7-3.2,6.9-6.8,11.3-9.4
	c-0.1-0.5-0.1-1.1-0.4-1.6c-1.9-3.2-3.8-6.4-5.7-9.6c-3.5-5.9-6.7-12.1-12-16.8c0.3-0.7,0.5-1.3,0.8-1.8c-0.2-0.3-0.4-0.5-0.6-0.6
	c-4.9-2.8-9.8-5.7-14.8-8.4c-1.3-0.7-3.1-1-4.1-2c-1-1-1.4-2.7-2-4.1c-0.1-0.2-0.1-0.4-0.1-0.5c1.1-1.3,2.3-2.5,3.3-3.7
	c1.2-1.5,1.6-3.3,1.3-5c-0.2-1.1,0.1-1.7,0.7-2.5c2.4-3.1,4.9-6.3,7.2-9.4c5-6.7,10.2-13.2,13.8-20.7c0.9-2,2-3.8,3.9-5.1
	c0.9-0.6,1.5-1.6,2-2.5c1.6-2.8,3.1-5.7,4.6-8.6c1.1-2.2,1.4-4.5,1.2-7c-0.1-1,0-2.2,0.3-3.2c0.8-2.6,0.7-3.8-1.5-5.6
	c-2.4-1.9-4.9-3.8-7.5-5.5c-0.9-0.6-2.2-0.9-3.3-0.9c-4.8,0-8.5-2.6-12.1-5.3c-0.9-0.7-1.2-1.5-0.8-2.6c0.4-1.3,0.6-2.7,0.9-4.1
	c1.5-7.3,2.2-14.7,1.2-22.2c-0.2-1.6-0.4-3.3-0.5-4.9c0.8,0.4,1.2,0.9,1.6,1.4c2.4,2.6,4.7,5.4,7.2,7.9c1.7,1.6,3.6,2.9,5.6,4.1
	c1,0.6,2.4,0.9,3.5,0.8c1.7-0.2,3.4-0.8,5.6-1.4c-1.6-0.4-2.8-0.6-3.8-1c-2.5-0.9-4.3-2.8-5.6-5c-1.1-1.8-2.1-3.8-2.7-5.9
	c-1.9-6.5-3.5-13-5.2-19.5c0.8,0.1,1.2,0.4,1.6,0.8c1.5,1.4,2.8,3,4.4,4.1c2.4,1.6,5,3,6,6.1c0.1-0.1,0.3-0.2,0.4-0.3
	c-0.2-0.8-0.4-1.6-0.6-2.4c0.5-0.1,0.8-0.2,1.1-0.2c-1.7-0.8-2.2-2.4-3-3.8c-1.3-2.4-2.7-4.7-4.3-6.9c-2.2-2.9-5.3-4.7-8.3-6
	c-0.5-2.9-0.8-5.6-1.5-8.2c-1.7-5.6-5.1-10.2-9.3-14.3c-1.3-1.3-2.5-2.6-1.8-4.7c0.9-0.3,1.8-0.6,3.1-0.9c-0.7-0.4-0.8-0.5-1.1-0.6
	c-2.4-0.4-4.9-0.9-7.3-1.3c-1.7-0.3-3.4-0.6-5.1-0.8c-2.1-0.2-4.2-0.3-6.3-0.4c-2.5-0.1-4.9,0.1-7.2,1.3c-0.6,0.3-1.4,0.4-2,0.3
	c-1.7-0.5-3.2-0.2-4.7,0.6c-2.7,1.4-5.3,2.8-8,4.3c-0.2,0.1-0.3,0.5-0.8,1.1c0.6,0.2,1.2,0.4,1.9,0.7c-0.8,0.7-1.3,1-1.7,1.4
	c-2.6,2.3-5,4.7-5.4,8.4c-0.1,0.5-0.4,1-0.6,1.5c-0.6,1.8-1.2,3.5-1.7,5.3c-0.2,0.7-0.1,1.7,0.3,2.2c1.2,1.8,0.9,3.8,1.2,5.7
	c-2.4,0.9-2.8,1.5-1.8,3.6c1.4,2.9,3,5.8,4.6,8.6c0.2,0.3,0.5,0.6,0.7,0.9c0.7,0.9,1.6,1.6,2.2,2.6c1.4,2.5,2.7,5.1,4.1,7.6
	c1.3,2.3,2.4,4.6,2.1,7.4c0,0.4,0.2,0.9,0.2,1.4c0.1,1.4,0.2,2.9,0.3,4.6c-1.5-0.3-2.7-0.4-3.9-0.7c-1.5-0.4-2.4,0.2-3.3,1.4
	c-1.5,2.3-3.3,4.5-4.9,6.8c-0.6,0.8-0.8,1.8-1.4,3.1c-1.3,0.7-3.1,1.3-5.1,1c-0.7-0.1-1.4,0.1-2.1,0.1c-3.3,0-6.6,0.5-9.8,0
	c-3.1-0.5-5.6,0.2-8.1,2c-0.7,0.5-1.4,0.9-2.2,1.4c-3.8,2.5-6.3,5.9-7.4,10.3c-0.2,1-0.4,2-0.7,3c-0.7,2.4-1.4,4.9-2.1,7.4
	c-2.5-1.3-4.1-0.7-4.6,1.7c-0.2,1.1,0,2.3,0.1,3.4c0.1,0.7,0.2,1.3,0.4,2c-3.7-0.1-4.4,0.2-4.9,3.6c-0.3,1.6-0.9,3.1-1.2,4.6
	c-1.3,5.4-2.2,11-3.2,16.4c-0.2,1.1,0,2.3,0.9,3c3.2,2.6,5.3,6.6,10,7.2c0.3,6.4,0.6,12.7,0,18.9c-1.1,9.9-2.7,19.7-3.8,29.5
	c-0.4,3.9-0.5,7.9-0.3,11.8c0.2,4.4,1.1,8.8,1.5,13.2c0.5,4.8,0.9,9.6,1.3,14.4c0.2,3,0.4,6,0.6,9.3c-3.2,0.2-5.5,1.8-6.8,4.2
	c2,3,3.9,5.8,5.6,8.7c3.9,6.3,6.1,13.1,6,20.5c-0.1,5.5-0.4,11-0.6,16.5c-0.2,4.8-0.2,4.9,3.2,8.1c0.2,0.2,0.4,0.3,0.5,0.5
	c4.5,4.4,8.9,8.8,13.5,13.2c0.7,0.7,1.7,1.2,2.7,2c0.5,1.9,1,4.2,1.9,6.3c3.5,9.1,6.9,18.3,10.6,27.4c4,9.9,6.9,20.1,9,30.5
	c1,4.9,1,9.7-1,14.4c-1.4,3.2-2.4,6.5-3.7,9.8c-2.9,7.6-6,15.1-8.1,23c-2.9,10.7-4.3,21.6-4.9,32.6c-0.5,10.7-0.1,21.4,0.7,32.1
	c0.7,9.7,1.5,19.3,2.2,29c0.4,5.1,0.4,10.3,1.1,15.3c1.4,10.2-0.1,20.3-1.4,30.4c-0.5,0.2-1,0.3-1.5,0.6c-2,1-3.2,2.5-3.3,4.7
	c-0.1,2.9-1,5.5-2.2,8c-1.2,2.6-1.5,5.2-1.1,7.9c0.7,4.8,1.3,9.7,2.1,14.5c1.5,9.3,2.8,18.6,3.3,28c0.1,1.5,0.5,2.7,1.5,3.7
	c1.6,1.7,2.8,1.5,4.1-0.6c-1.5-0.6-1.1-1.9-1.2-3c-0.3-3.9-0.5-7.9-0.9-11.8C254.5,707.3,253.6,700.5,252.8,693.7z"/>
<path d="M252.8,693.7c0.8,6.8,1.7,13.5,2.4,20.3c0.4,3.9,0.6,7.9,0.9,11.8c0.1,1.1-0.3,2.4,1.2,3c-1.2,2.2-2.5,2.3-4.1,0.6
	c-1-1.1-1.4-2.2-1.5-3.7c-0.5-9.4-1.8-18.7-3.3-28c-0.8-4.8-1.4-9.7-2.1-14.5c-0.4-2.7-0.1-5.3,1.1-7.9c1.2-2.5,2.1-5.2,2.2-8
	c0.1-2.2,1.3-3.8,3.3-4.7c0.5-0.2,1-0.4,1.5-0.6c1.3-10.1,2.8-20.2,1.4-30.4c-0.7-5.1-0.7-10.2-1.1-15.3c-0.7-9.7-1.5-19.3-2.2-29
	c-0.8-10.7-1.3-21.4-0.7-32.1c0.6-11.1,2-21.9,4.9-32.6c2.1-7.9,5.2-15.4,8.1-23c1.3-3.3,2.3-6.6,3.7-9.8c2-4.7,2-9.5,1-14.4
	c-2.1-10.5-5-20.6-9-30.5c-3.7-9.1-7.1-18.2-10.6-27.4c-0.8-2.2-1.3-4.5-1.9-6.3c-1.1-0.8-2-1.3-2.7-2c-4.5-4.4-9-8.8-13.5-13.2
	c-0.2-0.2-0.4-0.3-0.5-0.5c-3.4-3.3-3.4-3.4-3.2-8.1c0.3-5.5,0.5-11,0.6-16.5c0.2-7.4-2.1-14.2-6-20.5c-1.8-2.9-3.7-5.7-5.6-8.7
	c1.4-2.5,3.6-4,6.8-4.2c-0.2-3.3-0.4-6.3-0.6-9.3c-0.4-4.8-0.8-9.6-1.3-14.4c-0.5-4.4-1.3-8.8-1.5-13.2c-0.2-3.9-0.2-7.9,0.3-11.8
	c1.1-9.9,2.7-19.7,3.8-29.5c0.7-6.2,0.4-12.5,0-18.9c-4.7-0.6-6.9-4.6-10-7.2c-0.9-0.7-1.1-1.9-0.9-3c1-5.5,1.9-11,3.2-16.4
	c0.4-1.5,1-3,1.2-4.6c0.5-3.3,1.2-3.7,4.9-3.6c-0.1-0.7-0.3-1.3-0.4-2c-0.1-1.1-0.3-2.3-0.1-3.4c0.5-2.4,2.1-3,4.6-1.7
	c0.7-2.5,1.5-4.9,2.1-7.4c0.3-1,0.4-2,0.7-3c1.1-4.4,3.6-7.8,7.4-10.3c0.7-0.5,1.5-0.9,2.2-1.4c2.4-1.7,4.9-2.4,8.1-2
	c3.2,0.5,6.5,0.1,9.8,0c0.7,0,1.4-0.2,2.1-0.1c2,0.2,3.8-0.3,5.1-1c0.6-1.3,0.8-2.3,1.4-3.1c1.6-2.3,3.4-4.4,4.9-6.8
	c0.9-1.3,1.7-1.8,3.3-1.4c1.2,0.3,2.4,0.4,3.9,0.7c-0.1-1.7-0.2-3.2-0.3-4.6c0-0.5-0.2-0.9-0.2-1.4c0.3-2.8-0.8-5.1-2.1-7.4
	c-1.4-2.5-2.7-5.1-4.1-7.6c-0.6-1-1.4-1.7-2.2-2.6c-0.2-0.3-0.5-0.6-0.7-0.9c-1.5-2.9-3.2-5.7-4.6-8.6c-1-2.2-0.7-2.7,1.8-3.6
	c-0.3-1.9,0-3.9-1.2-5.7c-0.4-0.6-0.5-1.5-0.3-2.2c0.4-1.8,1.1-3.5,1.7-5.3c0.2-0.5,0.5-1,0.6-1.5c0.5-3.7,2.8-6.1,5.4-8.4
	c0.4-0.4,0.8-0.7,1.7-1.4c-0.7-0.3-1.3-0.5-1.9-0.7c0.5-0.7,0.6-1,0.8-1.1c2.7-1.5,5.3-2.9,8-4.3c1.5-0.8,3-1.1,4.7-0.6
	c0.6,0.2,1.4,0,2-0.3c2.3-1.2,4.7-1.4,7.2-1.3c2.1,0.1,4.2,0.2,6.3,0.4c1.7,0.2,3.4,0.5,5.1,0.8c2.4,0.4,4.9,0.8,7.3,1.3
	c0.2,0,0.4,0.2,1.1,0.6c-1.3,0.4-2.2,0.7-3.1,0.9c-0.7,2,0.5,3.3,1.8,4.7c4.1,4.1,7.6,8.7,9.3,14.3c0.8,2.6,1,5.3,1.5,8.2
	c3,1.3,6.1,3.1,8.3,6c1.6,2.1,3.1,4.5,4.3,6.9c0.8,1.4,1.2,3,3,3.8c-0.3,0.1-0.6,0.1-1.1,0.2c0.2,0.8,0.4,1.6,0.6,2.4
	c-0.1,0.1-0.3,0.2-0.4,0.3c-1-3.1-3.6-4.5-6-6.1c-1.7-1.1-3-2.7-4.4-4.1c-0.4-0.3-0.8-0.7-1.6-0.8c1.7,6.5,3.3,13,5.2,19.5
	c0.6,2.1,1.6,4,2.7,5.9c1.3,2.2,3.1,4.1,5.6,5c1.1,0.4,2.2,0.6,3.8,1c-2.2,0.6-3.9,1.2-5.6,1.4c-1.2,0.1-2.5-0.2-3.5-0.8
	c-2-1.2-3.9-2.5-5.6-4.1c-2.6-2.5-4.8-5.2-7.2-7.9c-0.5-0.5-0.9-1-1.6-1.4c0.2,1.6,0.3,3.3,0.5,4.9c0.9,7.5,0.2,14.9-1.2,22.2
	c-0.3,1.4-0.5,2.8-0.9,4.1c-0.4,1.2-0.1,2,0.8,2.6c3.6,2.7,7.3,5.3,12.1,5.3c1.1,0,2.4,0.3,3.3,0.9c2.6,1.7,5.1,3.5,7.5,5.5
	c2.2,1.7,2.3,3,1.5,5.6c-0.3,1-0.4,2.1-0.3,3.2c0.3,2.5-0.1,4.8-1.2,7c-1.4,2.9-3,5.8-4.6,8.6c-0.5,0.9-1.2,1.9-2,2.5
	c-1.9,1.3-2.9,3.2-3.9,5.1c-3.6,7.6-8.8,14-13.8,20.7c-2.4,3.2-4.8,6.3-7.2,9.4c-0.6,0.7-0.9,1.4-0.7,2.5c0.3,1.8-0.1,3.6-1.3,5
	c-1,1.3-2.1,2.4-3.3,3.7c0,0.1,0,0.3,0.1,0.5c0.6,1.4,1,3.1,2,4.1c1,1,2.7,1.3,4.1,2c4.9,2.8,9.8,5.6,14.8,8.4
	c0.2,0.1,0.3,0.3,0.6,0.6c-0.2,0.6-0.5,1.2-0.8,1.8c5.3,4.7,8.5,10.8,12,16.8c1.9,3.2,3.8,6.4,5.7,9.6c0.3,0.5,0.3,1.1,0.4,1.6
	c-4.4,2.6-7.6,6.2-11.3,9.4c1.1,2.3,2,4.5,3.1,6.6c2,4.1,4,8.3,6.1,12.3c1.7,3.1,2.1,6.3,1.7,9.9c-1.3,11.9-3.2,23.7-5.2,35.5
	c-0.2,1.2-0.3,2.4-0.5,3.7c-0.2,1.2-0.8,2.2-2.1,2.5c-1.4,0.3-2.7,0.7-4,1c-1,5.1-1.7,10.2-3.1,15.1c-2.3,8.1-4.8,16.2-7.5,24.2
	c-4.2,12.5-8.1,25.1-10.4,38.1c-0.8,4.6-1.9,9.1-2.7,13.7c-0.3,1.4-0.1,2.9-0.2,4.4c-0.4,4.4-0.9,8.8-1.2,13.2
	c-0.6,10.2-2.1,20.4-3.5,30.5c-1.1,8.4-2.3,16.8-3.5,25.1c-1.5,10.6-3.1,21.2-4.5,31.8c-1,7.3-1.8,14.6-2.5,22
	c-1.1,10.2-2.1,20.4-3.1,30.6c-0.3,2.7-0.6,5.4-0.9,8.1c-0.1,1.2,0,2.3,0.7,3.5c0.8,1.3,1.2,3,1.4,4.6c0.6,4.8,0.9,9.6,1.4,14.4
	c1,10.1,2.1,20.2,4.4,30.1c1,4.4,1.9,8.8,4.1,12.8c0.6,1.1,0.5,2.2,0.1,3.4c-0.9,2.3-1.5,4.7-1.5,7.2c0,1.9-0.5,2.3-2.3,2.7
	c-1.4,0.3-2.8,0.7-4.2,1.1c0,1.5,0.1,3.1,0,4.6c-0.2,2.6-1.1,3.8-3.7,4c-4,0.3-8.1,0.5-12.1,0.4c-5.1-0.2-9.9-2-14.5-4.1
	c-2.9-1.3-4.5-3.7-4.7-6.9c-0.4-5.3-0.5-10.7-1.1-16c-0.8-6.7-2-13.3-3.1-20c-0.1-0.6-0.4-1.2-0.6-1.7
	C253,693.7,252.9,693.7,252.8,693.7z M268.6,114c0.3-0.1,0.7-0.1,0.8-0.3c0.4-1.1,0.7-2.3,1-3.7c-4.1,2.4-6,7.1-4.3,10.5
	c0.2-1.1,0.3-2.1,0.6-3C267.2,116.3,267.1,114.7,268.6,114c-0.2,1-0.5,2-0.8,3.3C269.2,116.2,269.6,115.3,268.6,114z M320.1,207.8
	c0.1-0.3,0.2-0.6,0.4-0.8c4.9-4.3,10.4-7.5,16.5-9.6c0.5-0.2,1.1-0.4,1.9-0.6c-1.5-1.1-2.8-2.1-4.1-3.1c-1.3-1-2.6-1.5-4.3-1.5
	c-2.8,0-5.5-0.8-7.8-2.6c-1.2-0.9-2.5-1.7-3.9-2.7c1.1,7.2-0.3,13.9-1.4,20.9c0.5-0.4,0.7-0.6,1-0.8c0.2-0.2,0.5-0.3,0.9-0.5
	C319.7,207,319.9,207.4,320.1,207.8c-1,0.4-2,0.7-3,1.3c-0.3,0.2-0.3,0.9-0.5,1.6C318,209.6,319.1,208.7,320.1,207.8z M313.5,142
	c-0.2,0.4-0.3,0.8-0.6,1.2c-1.3,1.9-2.2,3.8-2.6,6.1c-0.9,5.7-2.1,11.3-3,16.9c-0.4,2.6-0.6,5.2-1,7.8c3.1-9.1,5-18.5,7.1-27.8
	c0.1,2.2,0,4.3-0.3,6.4c-1.5,9.3-3.4,18.6-6.5,27.6c-0.2,0.5-0.3,1.2-0.2,1.8c1,3.2,0.9,6.4,0.4,9.7c-0.1,0.5,0,1.1,0,1.7
	c1-1.1,1.8-2.3,2.2-3.5c1.2-3.5,2.4-7.1,3.4-10.6c2.5-8.2,3.7-16.6,2.6-25.3C314.7,150,314,146,313.5,142c0.9,0.4,1.2,1.1,1.4,2
	c0.2,1.4,0.6,2.7,0.8,4.1c1.4,9,2.1,18,1.6,27.1c-0.1,1.2,0,2.4,0,4.1c0.3-0.8,0.5-1.2,0.6-1.6c0.6-4.4,1.4-8.9,1.6-13.4
	c0.2-3.9-0.3-7.9-0.4-11.8c-0.1-1.9-0.2-3.6-1.5-5.2c-0.8-1.1-1.2-2.5-1.8-3.8c-0.3-0.7-0.6-1.3-0.9-2
	C314.2,141.8,313.8,141.9,313.5,142z M236.9,210.8c-0.6,1-1.2,2.1-1.9,3.2c5,0,9,1.5,12.3,4.8c1.4,1.4,2.9,2.6,4.4,4
	c0.2-1.3,0.1-2.2-0.1-3.2c-0.8-4.4-1.7-8.8-2.5-13.3c-0.4-2,0.2-2.6,2.2-2.3c0.5,0.1,0.9,0.2,1.4,0.2c1.2,0,2.5,0,4.2,0
	c-4.2-2.8-7.8-5.5-12.3-6.8c-2.4-0.7-2.5-1.5-1.2-3.6c2.8-4.2,5.6-8.4,8.4-12.6c1.3-2,2.7-3.7,5-4.7c0.1,0,0.1-0.3,0.1-0.2
	c-1.6,0-3.2,0-4.8,0c-0.3,0-0.7,0.2-1,0.3c-0.7,0.4-1.3,0.8-2.5,1.5c0.4-1.1,0.6-1.5,0.8-2c-0.1-0.1-0.2-0.2-0.4-0.3
	c-0.4,0.4-1,0.6-1.3,1.1c-1.8,2.2-3.6,4.4-5.5,6.6c-2.1,2.5-3.2,5.4-3.5,8.7c-0.2,2.6-0.6,5.2-0.8,7.9
	C237.4,203.6,237.1,207.2,236.9,210.8L236.9,210.8z M305.9,101.4c-2.3-0.8-4.5-1.8-6.8-2.4c-4-1.1-8-1.9-12.2-1.1
	c-0.6,0.1-1.3,0.2-1.8,0c-0.8-0.4-1.3-0.1-1.9,0.3c-1.8,1.1-2.9,2.7-3.6,4.7c-0.4,1.3-1.3,2-2.5,2.6c-1.5,0.7-2.9,1.5-4.3,2.3
	c-0.4,0.3-1,0.7-1.1,1.1c-0.4,2.2-2.1,4.2-1.6,6.6c0.1,0.4-0.3,0.8-0.6,1.2c-0.8,1.3-1.7,2.4-2.3,3.8c-0.4,1-1.2,2.2-0.2,3.5
	c0.3-0.2,0.6-0.4,0.8-0.5c5.6-4.2,11.6-4.2,17.9-2c1.3,0.4,2.4,0.5,3.7,0.4c2.8-0.2,5.6-0.6,8.4-0.9c6-0.7,11.8,0.9,17.3,3.6
	c0.5,0.2,1.3,0.4,1.6,0.2c0.4-0.3,0.5-1.1,0.5-1.6c-0.3-3.6-1.6-6.8-3.8-9.6c-1.5-1.8-3-3.6-4.2-5.6
	C308.1,105.9,307,103.6,305.9,101.4c0.2,0.1,0.6,0.2,0.8,0.5c3,4,6,7.9,8.9,12c1.9,2.7,3.5,5.7,3.3,8.9c0.9,0.7,1.7,1.3,2.4,1.9
	c1-1.4,1.2-1.8,0.7-3.4c-0.8-2.6-1.6-5.2-2.7-7.7c-2.6-5.8-6.5-10.7-11.5-14.7c-0.1-0.1,0-0.3,0-0.5c0.4,0,0.8-0.1,1.5-0.1
	c-1-1.3-2.4-0.8-3.6-1.3c0-0.3,0.1-0.7,0.1-1.1c-0.7-0.2-1.5-0.4-2.2-0.5c-3.4-0.4-6.8-0.8-10.2-0.9c-1.9-0.1-3.8,0.5-5.7,0.9
	c-0.4,0.1-0.7,0.6-1,1c2.9,0.1,5.5,0.2,8.1,0.4c3.5,0.4,6.9,1.2,9.8,3.3C305.1,100.3,305.5,100.9,305.9,101.4z M275.8,678.6
	c-0.4-2.8-0.7-5-1-7.3c-0.8-5.6-1.9-11.2-2.5-16.8c-0.7-5.9-0.6-11.8-0.2-17.7c0.5-7.3,0.9-14.7,1.4-22.1
	c0.8-10.9,2.5-21.7,4.6-32.5c1.7-8.8,3.6-17.6,5.2-26.5c1.7-10.1,3.2-20.2,4.6-30.4c0.4-2.5,0.4-5,0.6-7.6
	c-4.3,23.1-5.2,26.7-7.3,28.6c0.5-2.8,1-5.4,1.5-8.1c1-4.9,2.3-9.9,2.9-14.8c1.2-9.4,3.4-18.4,7.2-27.1c2.6-6,4.5-12.2,5.1-18.8
	c0.5-5.8,0.8-11.6,0.9-17.4c0.1-7.8,0.1-15.7-0.2-23.5c-0.2-7.1-0.8-14.2-1.2-21.4c-0.4-7.8-1.2-15.6-3.2-23.2
	c-0.4-1.5-0.6-3.1-0.9-5c-2.2-2-5.2-2.6-8.4-2.4c-4,0.2-8,0.7-12.1,0.9c-6.9,0.4-13.5,1.9-19.8,4.7c-2.5,1.1-5,2.4-7.6,3.7
	c0.6,2,1.1,3.8,1.5,5.6c1.6,6.2,2.8,12.4,4.9,18.4c3.1,8.9,6.8,17.7,10.3,26.5c4.1,10.3,7,20.9,9,31.7c0.8,4.2,0.9,8.3-0.7,12.4
	c-2.2,5.6-4.2,11.4-6.4,17c-3.7,9.5-6.9,19.1-8.6,29.2c-3.1,18.1-2.8,36.3-1.3,54.6c0.8,9,1.4,18.1,2.1,27.2
	c0.3,4.1,0.5,8.2,0.9,12.3c0.6,7.4,1.2,14.9,0.2,22.3c-0.5,3.7-0.8,7.4-1.1,11.1c-0.1,1.2-0.2,2.5-0.3,3.7c-0.1,0.8-0.5,1.3-1.4,1.2
	c-0.9-0.2-0.7-0.8-0.5-1.4c0.1-0.2-0.1-0.4-0.1-0.8c-0.9,0.7-0.9,1.5-0.5,2.4c0.4,1,0.8,2,1.5,2.9c2.8,4.1,5.7,8.1,8.6,12.2
	c0.1,0.1,0.3,0.1,0.5,0.2c1.1-0.9,2.1-2,3.3-2.9C269.7,678,272.2,676.4,275.8,678.6z M331.8,326.5c-8.1,5.1-16.1,10.3-26.3,9.8
	c-0.8,4.1-4.6,5.4-7.6,7.8c3.8,0.3,7.3,0.7,10.7,1c-0.2,0.6-0.5,0.7-0.8,0.8c-1.7,0.2-3.4,0.4-5.1,0.4c-2.1,0-4.2-0.2-6.3-0.4
	c-0.5-0.1-1.3-0.5-1.4-0.9c-0.1-0.6,0.3-1.3,0.7-1.8c0.3-0.4,0.9-0.6,1.3-1c1.4-1,2.8-1.9,4.2-2.9c0.7-0.5,1.3-1.2,2.2-2
	c-1.2-0.3-2.2-0.2-2.7-0.7c-0.8-0.9-1.8-0.8-2.8-0.8c-1,0-2-0.1-3-0.1c-1.4,0-2.6-0.6-3.4-1.7c-0.8-1-1.5-2-2.2-3
	c-2.2-3.3-4.3-6.7-6.4-10c-0.3-0.5-0.7-1-1.1-1.5c-0.2,0.5-0.2,0.8-0.1,1.1c1.6,5,3.2,10.1,4.9,15c1.2,3.4,1.8,6.9,2.3,10.4
	c0.3,2.3-0.5,3.1-2.8,3.2c-4.8,0.1-8.6-2-11.3-5.8c-2.5-3.5-4.8-7.3-5.8-11.6c-1-4.1-1.6-8.2-2.3-12.3c-0.4-2.2-0.5-4.4-0.7-6.6
	c-0.5,0-0.8,0-1.1,0.1c-2,0.5-4.1,0.9-6.1,1.5c-1.2,0.3-1.8-0.2-2.1-1.2c-0.2-0.6-0.3-1.3-0.5-2.1c-1.7,0.6-3.2,1.1-4.7,1.6
	c-0.1,0.4-0.1,0.6-0.2,0.8c-0.4,5.1-0.8,10.2-1.4,15.3c-0.4,3.1-1.1,6.1-1.8,9.1c-0.5,1.9-1.2,2.2-3.1,1.9c-1-0.2-2-0.5-2.9-0.7
	c-0.2,0-0.4,0.1-0.7,0.1c0,0.4,0.1,0.7,0.1,1c0,0.3,0,0.7,0,1.4c-1.6-1.7-1.7-4.4-4.9-4.3c0.7,0.6,1.2,1,1.7,1.3
	c1.5,1.2,2.1,2.6,1.4,4.5c-0.2,0.6-0.3,1.4-0.1,2c0.5,2.1,1.1,4.2,1.6,6.3c0.5,2.3,1.3,4.7,1.4,7.1c0.5,7.5,1.9,14.9,3,22.4
	c0.3,2,0.8,4.1,1.3,6.3c0.8-0.4,1.4-0.7,1.9-1c2.9-1.3,5.7-2.8,8.8-3.7c5.6-1.5,11.3-2.7,17-3.8c6.9-1.3,13.6-0.4,19.9,2.9
	c0.3,0.2,0.7,0.2,1.2,0.4c-0.1-0.5-0.1-0.8-0.1-1.1c-1.2-5.9-2.3-11.7-3.6-17.6c-0.3-1.2-0.2-2.1,0.8-2.9c0.2-0.2,0.4-0.5,0.8-1
	c-2.9,1-5.4,2.1-8,2.8c-2.6,0.8-5,2.2-7.9,1.9c0.7-0.6,1.5-1,2.3-1.3c3.8-1.5,7.7-3,11.5-4.5c0.8-0.3,1.6-0.7,2.4-0.9
	c0.9-0.3,1.8-0.8,2.5,0.2c0.6,1-0.2,1.7-0.8,2.4c-0.5,0.6-1.2,1.1-1.6,1.7c-0.2,0.3-0.2,0.8-0.4,1.4c4.3-0.8,7.3-3.8,11.3-4.4
	c0.1,0.2,0.2,0.4,0.3,0.5c-2.5,1.6-5,3.2-7.7,4.9c4.3,2.1,8.7,3.4,13,4.9c-2.8-0.2-5.5-0.5-8.1-1.1c-2.7-0.7-5.4-1.7-8.2-2.6
	c0.2,0.9,0.3,1.9,0.5,2.9c1,4.6,2.2,9.2,2.8,13.9c0.4,2.9,1.7,4.3,4.2,5.1c1,0.3,2.1,0.7,3.1,0.9c3.6,0.6,7.2,1.3,10.8,1.7
	c6.8,0.8,13.5,0.2,20.1-1.6c1.2-0.3,1.7-0.9,1.9-2c1.9-10.5,3.6-21,4.7-31.5c0.4-3.6-0.3-7-2-10.3c-2.8-5.4-5.9-10.8-7.8-16.7
	C332.2,327.2,332,326.8,331.8,326.5z M295.9,392.2c0.1,0.7,0.3,1.5,0.4,2.2c0.8,5.8,1.9,11.5,2.4,17.3c0.7,8.8,1.1,17.7,1.4,26.5
	c0.4,10.2,0.7,20.3,0.1,30.5c-0.6,10.7-2.4,21.1-6.9,30.9c-1.2,2.6-2,5.3-2.3,8.2c-0.8,8.2-1.4,16.4-2.5,24.5
	c-1.2,9.5-2.6,18.9-4.4,28.3c-3.1,16.1-6.5,32.2-8.2,48.6c-1.2,11.7-2.1,23.3-2.2,35.1c0,4.1,0.3,8.2,0.5,12.3
	c0.1,1,0.2,1.8,1.1,2.6c3.8,3.5,6.9,7.5,7.7,12.9c0.2,1.4,0.5,2.8,0.8,4.3c2-0.9,4-1.6,4.2-4c0.2-2.6,0.5-5.3,0.4-7.9
	c-0.1-2.2-0.4-4.5-1.9-6.3c-0.4-0.5-0.5-1.7-0.3-2.4c1.1-3.2,1.3-6.5,1.6-9.9c0.9-8.3,1.8-16.5,2.6-24.8c0.6-5.5,0.9-11,1.6-16.4
	c1.2-9.9,2.6-19.8,4-29.8c1.8-12.6,3.6-25.2,5.4-37.8c1.1-8.3,2.1-16.6,3.1-24.9c0.6-5.1,1.1-10.2,1.7-15.3c0.2-1.9,0.3-3.7,0.5-5.6
	c-1.8,1.5-3,3.2-5.2,3.8c0.8-1.4,1.6-2.9,2.7-4c1.9-1.9,3-4,3.4-6.7c0.8-4.6,1.6-9.2,2.5-13.7c2.6-12.8,6.5-25.2,10.7-37.6
	c3.3-9.9,6.7-19.9,8.4-30.2c0.3-1.9,0.7-3.9,1-6C318.2,399.1,307.3,395.1,295.9,392.2z M313.8,219c1.9,2,1.9,2,0.2,4.3
	c-3.1,4.2-6,8.5-9.2,12.6c-6.1,8-12.8,15.7-17.5,24.7c-0.7,1.3-1,1.3-2.4,0.6c-1.2-0.6-2.3-1.2-3.6-1.9c-1.3,1-2.7,2-4,3.2
	c-0.3,0.3-0.4,0.9-0.5,1.4c-0.1,1.5-0.7,2.5-2.1,3.4c-1.6,1.1-3.1,2.5-4.7,3.9c3.9,3.2,7.4,6.4,11.6,8.7c2.3,1.3,3.2,1.3,5.2-0.4
	c2.5-2,4.9-4.1,7.4-6c5.9-4.5,11.1-9.7,15.6-15.6c2.6-3.4,5.2-6.8,7.8-10.2c4.5-6.1,9.2-12,12.5-18.8c0.8-1.7,1.9-3.4,3.2-4.8
	c3.6-3.9,5.9-8.5,7.9-13.3c0.7-1.7,0.8-3.2,0.1-4.9c-0.7-2-1.3-4.1-1.9-6.3c-0.9-0.7-2.1-0.6-3.3-0.1c-4.6,1.8-8.8,4.2-12.7,7.2
	C319.2,209.9,316,214,313.8,219z M246.3,338.6c0.3-1,0.7-1.9,0.8-2.8c0.8-5.8,1.7-11.7,2.4-17.5c0.7-6,1.2-12,2.1-18
	c1.1-7.9,3.6-15.6,6-23.2c1.2-3.6,2.4-7.2,3.6-10.9c-4.3-3.3-8.5-6.5-12.6-9.8c-0.9,0.5-1.8,1-2.6,1.6c-1.7,1.1-2.1,1.2-3.6,0
	c-2.7-2.1-6-3.6-7.4-7.3c-0.5,1.5-0.8,2.9-0.5,4.3c0.4,2.1,0.9,4.1,1.2,6.2c0.6,4,1.4,8,0.7,12c-0.4,2.1-1,4.2-1.7,6.3
	c-0.8,2.4-1.6,4.8-2.6,7.5c1.9,0.3,3.7,0.6,5.4,0.8c1.1,0.1,1.6-0.4,1.7-1.5c0.2-1.7,0.3-3.4,0.5-5.1c0.3-3.7-0.1-7.5,2.4-10.7
	c0.3-0.4,0.1-1.3-0.1-1.9c-0.8-1.8-1.8-3.6-2.6-5.4c-0.4-0.8-0.8-1.7-1.1-2.6c-0.2-0.8-0.1-1.7,0.9-1.8c0.9-0.1,1.8,0.2,2.7,0.3
	c0.9,0.2,2,0,2.7,1.4c-1.6,0-3,0-4.5,0c0.3,0.8,0.5,1.4,0.7,1.9c0.8,1.7,1.6,3.5,2.6,5.2c0.9,1.5,1,2.9-0.1,4.3
	c-1.4,1.8-1.7,3.9-1.7,6.2c-0.1,2.8-0.3,5.6-0.6,8.4c-0.2,2.5-1.1,3.2-3.6,3.1c-1.9-0.1-3.8-0.5-6-0.8c-1.8,5.2-3.8,10.4-5.2,15.8
	c-1.1,4.4-2.8,8.9-2,13.7c0.2,1.4,0.4,2.7,1.3,3.9c0.3,0.4,0.5,1,0.7,1.5c1.3,2.9,2.7,5.8,4.9,8.1c0.7,0.7,1.6,1.4,2.5,1.5
	c1.3,0.2,2.3,0.7,3.3,1.6C239.5,337.1,242.7,338.2,246.3,338.6z M304.9,278.9c-3,1.2-6,2.4-9,3.6c-3.2,1.2-3,0.8-5-1.6
	c-0.4-0.5-0.4-1.2-0.7-2c-0.7,0.6-1.3,1.2-2,1.6c-0.9,0.7-1.9,1.4-2.9,1.8c-0.7,0.3-1.8,0.3-2.4-0.1c-3.3-2.2-6.6-4.6-9.8-7
	c-0.7-0.5-1.3-1-1.9-1.5c-0.3,1.6-0.4,3,0.1,4.1c1.9,4.5,3.9,9,7.5,12.5c1.8,1.8,3.7,3.5,2.8,6.4c2.6,1.1,4.6,2.6,5.9,5
	c1.5,2.7,3,5.4,4.5,8.2c2.4,4.6,4.6,9.3,7.3,13.8c1.8,3.1,4.2,5.9,6.5,8.8c1.7,2.1,3.8,2.8,6.6,2.1c7.1-1.8,13.3-5.2,19-9.6
	c3.5-2.7,6.7-5.8,10-8.8c0.3-0.2,0.5-0.6,0.8-0.9c-1.7-2.9-3.3-5.7-5.1-8.8c-1.7,2.1-3.2,3.9-4.6,5.8c-1.3,1.8-2.7,3.4-4.7,4.4
	c-3.3,1.6-6.7,3.1-10.2,4.6c-1.5,0.6-2.2,0.3-3.2-1.1c-3.9-5.9-8.4-11.4-11.6-17.7c-0.3-0.7-0.8-1.4-1.3-1.9c-1-1.1-1.9-2-1.5-3.7
	c0.1-0.4-0.3-1-0.7-1.4c-1.1-1.2-2.2-2.4-3.4-3.5c-0.4-0.4-0.9-0.5-1.6-0.8C297.2,286.5,301.6,283.2,304.9,278.9z M266.6,173.7
	c-3,1.4-5.9,2.7-8.8,4c-1.8,0.8-3.1,1.9-4.2,3.5c-2.9,4.5-5.9,8.9-8.9,13.4c-0.2,0.3-0.2,0.7-0.4,1.1c1.6,0.5,3.1,0.9,4.5,1.5
	c1.5,0.7,2.8,1.6,4.2,2.4c1.3,0.8,2.7,1.6,3.9,2.5c1.3,0.9,2.9,1.4,3.8,3.1c-1.6,1-3.2,0.9-4.8,0.8c-1.7,0-3.3-0.2-5.1-0.3
	c0.4,1.9,0.7,3.5,1,5.1c1.4,7.2,2.8,14.5,4.3,21.7c0.2,1.2,0.7,2.2,1.8,3.1c1.7,1.4,1,3.9-1.2,4.6c-0.5,0.1-0.9,0.4-1.7,0.8
	c3.7,3.2,7.1,6.1,10.6,9.1c2-2.9,3.6-5.5,4.4-8.7c0.6-2.7,1.3-5.4,1.8-8.2c0.5-2.7,1-5.5,1.3-8.3c0.3-2.7,0.4-5.5,0.2-8.2
	c-0.1-2.5-0.6-4.9-1.2-7.3c-2.1-8.2-4.2-16.4-6.4-24.5c-0.6-2.2-0.8-4.4-0.6-6.7c0-0.4,0.3-0.7,0.5-1.2c0.6,1.3-0.3,2.8,1.1,3.8
	c1.3-1.2,2-2.7,2.5-4.3C268.2,175.5,267.4,174.6,266.6,173.7z M251.3,666c-0.1,0.9-0.2,1.8-0.4,2.7c-0.2,0.9-0.2,1.9-0.5,2.7
	c-0.7,2-1.4,4-2.3,5.8c-1,2-0.9,3.9,0.3,5.7c1.6,2.3,2.2,5.1,4.5,7c0.3,0.2,0.4,0.7,0.5,1c0.5,1.6,1.2,3.2,1.6,4.9
	c1.9,7.7,3,15.5,3.3,23.5c0.3,5.6,2.8,9.9,7.5,12.8c2.5,1.5,5.3,2.5,8.1,3.6c5.7,2.2,11.4,1.5,16.9-1c-0.5-1.8-8-12.1-10.4-14.2
	c-1.9,0.9-3.8,0.4-5.8-0.2c-2.2-0.6-3.4-2-3.6-4.3c-0.3-3.2-0.6-6.5-0.9-9.7c-0.5-4.8-1.2-9.5-1.8-14.3c-0.1-0.4-0.2-1.1-0.4-1.2
	c-1.3-0.4-1.9-1.6-2.6-2.6c-3.3-4.6-6.6-9.2-9.7-13.9C253.8,671.7,251.7,669.3,251.3,666z M313.9,136.4c-9.4,1.2-16.5-1.4-20.4-10.4
	c-0.6,0-1.1-0.1-1.7-0.1c-2.9,0-3.2,0.3-4.5,3c-2.3,4.8-5.9,7.8-11.2,8.8c-1.6,0.3-3.1,0.5-4.7,0.8c0,0.3-0.1,0.5,0,0.6
	c2.2,4.1,4.3,8.2,6.5,12.3c0.3,0.6,1,1.2,1.7,1.5c3.4,1.4,6.9,2.9,10.4,4.1c3.9,1.4,7.8,1.2,11.4-1c0.7-0.4,1.4-0.9,2.2-1.3
	c1.5-0.8,2.6-2,3.2-3.5c0.9-2,1.8-4,2.8-5.9c0.8-1.5,1.6-3.2,2.8-4.2c2.7-2.3,4.3-5.3,6.3-8c1.4-1.8,1.5-4.1,0.9-6.6
	c-1,1.5-0.2,3.3-1.7,4.8c-0.1-1.6-0.1-2.9-0.2-4.3c-0.8,0.4-1.4,0.7-2,1C315.4,131.1,315.6,134,313.9,136.4z M217.4,229.3
	c1,0.3,1.7,0.5,2.3,0.9c2.5,1.9,5,3.9,7.5,5.9c0.4,0.3,0.8,0.8,0.9,1.3c0.5,1.9,1.8,3.3,2.9,4.7c2.5,3,5.3,5.9,6.6,9.8
	c0.3,0.8,1.1,1.5,1.8,2.1c1.2,0.9,2.4,1.6,3.7,2.4c1.6,1,4,0,4.3-1.9c0.3-1.8,0.4-3.5,0.6-5.3c0.2-2.1,0.3-4.2,0.6-6.3
	c0.2-1.4,0.8-2.4,2.4-2.7c2-0.4,4-0.9,6-1.4c0.5-1.4-0.1-2-1.2-2.5c-2.9-1.2-5.7-2.4-8.6-3.6c-0.4-0.2-0.9-0.2-1.9-0.5
	c0.8,0.7,1.2,1,1.6,1.4c1,1.1,0.9,1.9-0.3,2.7c-2.1,1.3-4.2,2.6-6.4,3.9c-0.6,0.4-1.3,0.6-1.9,0c-1.5-1.3-3.1-2.7-4.8-4.2
	c-0.4-0.1-1-0.1-1.6-0.2c-0.9-2.5-0.9-2.8,1.1-4.2c1.5-1,3.1-2,4.7-3.1c1-0.6,1.9-1.3,2.9-2c-0.4-0.8-0.8-1.6-1.2-2.2
	c-1.8-2.7-3.5-5.5-5.3-8.2c-3.3-5-6.7-10.1-7.8-16.2c-0.1-0.5-0.5-0.9-0.7-1.3c-1.4,0.3-1.8,1.4-1.7,2.4c0.4,2.4,1,4.7,1.5,6.8
	c-0.6,0.8-1.1,1.6-1.7,2.4c-0.4,0.5-0.9,1-1.4,1.3c-0.7,0.4-1.4,0.7-2.2,0.7c-1.5,0-1.8,0.9-2,2c-0.4,2.5-1,5-1.4,7.5
	c-0.5,2.6-0.8,5.2-1.3,7.8c-0.3,1.5,0.2,2.5,1.3,3.5c1.8,1.5,3.4,3.1,5.2,4.7c0.4,0.3,0.8,0.6,1.4,1.1c0.3-1.1,0.5-2,0.7-2.8
	C218.8,233,217.5,231.7,217.4,229.3z M274.9,660.8c0.1,0.7,0.1,1.3,0.2,2c0.8,4.8,1.5,9.6,2.3,14.5c0.1,0.4,0.1,0.9,0.4,1
	c1,0.7,0.9,1.7,1.2,2.7c1,4,1.5,8.1,1.3,12.2c-0.1,3.5-0.3,7-0.4,10.5c-0.1,3.6-0.1,7.3-0.2,10.9c0,1.6,0.5,2.8,1.5,4
	c1.9,2.2,3.8,4.5,5.6,6.8c0.5,0.7,1.1,0.9,2,0.9c2.2-0.1,4.3-0.1,6.5-0.2c0.7,0,1.4,0,2.3,0c0.6-1.7,1.2-3.2,1.7-4.9
	c0.1-0.3,0.2-0.7,0.1-0.9c-0.4-1.1-0.9-2.1-1.4-3.2c-0.3-0.7-0.6-1.4-0.8-2.2c-0.6-2.7-1.3-5.4-1.8-8.2c-1.5-7.9-3-15.8-3.7-23.9
	c-0.4-4.5-1-8.9-1.5-13.4c-0.1,2.9-1.5,5.7-0.7,8.8c0.7,2.7,0.6,5.5,0.7,8.3c0.1,1.2,0,2.5-1.3,3.5c-0.3-3.8-0.7-7.6-1-11.3
	c-1.5-0.4-3.1,0.8-4-1.6c-0.3,1.2-0.4,1.9-0.7,3c-1.1-2.4-1.5-4.5-1.6-6.6C281.2,668.5,278.5,664.5,274.9,660.8z M305.2,334.9
	c0.1-0.2,0.1-0.3,0.2-0.5c-4.9-4.9-8.3-10.8-11.4-16.9c-1.2-2.4-2.3-4.9-3.6-7.3c-1.4-2.7-2.9-5.3-4.4-7.9c-1-1.8-2.3-3.3-4.3-4
	c-1.2-0.4-1.5-1.3-1.6-2.6c0-0.9-0.4-1.9-0.9-2.5c-1.8-2.3-3.8-4.4-5.5-6.4c-1.1,0.8-2.2,1.7-3.4,2.2c-1.5,0.6-2.9,0.1-4-1.1
	c-0.8-1-1-2.1-0.3-3.2c0.8-1.4,1.9-2.4,3.8-2.1c0.5,0.1,1.1,0.1,1.9,0.2c-1.2-3.4-3.1-6.5-1.8-10.2c-2.8,0.2-3.4-0.2-4.6-2.7
	c-0.6-1.2-1.6-2-2.9-2.4c-1.6,3.8-2.9,7.4-1.3,11.5c2.1,5.2,2.8,11,6.3,15.7c0.1,0.2,0.2,0.4,0.3,0.6c0.6,2.4,2,4.3,3.3,6.3
	c5.3,7.7,10.6,15.5,15.9,23.2c1.7,2.4,3.3,4.9,4.9,7.4c1.1,1.6,2.5,2.5,4.5,2.3c1.3-0.1,2.6,0.1,3.9,0.2
	C301.8,334.8,303.5,334.9,305.2,334.9z M315.3,175.4c-0.4,1.4-0.7,2.8-1.1,4.2c-1.1,4.5-2.3,9-4.5,13.2c-1.4,2.7-3.5,4.6-6.7,5.9
	c2.5-4.6,2.6-9.3,3-14c-0.8-0.3-1.4-0.5-2-0.7c0.2-1.4,0.4-2.7,0.5-4c0.1-1.3,0-2.5,0-3.8c-1.5-0.2-1.7,0.9-2.2,1.6
	c-2.9,4.6-6.7,8.3-10.4,12.2c-0.1,0.1-0.2,0.2-0.4,0.3c-3.8,3-10.6,2.8-13.6-2.8c-0.1-0.3-0.3-0.5-0.5-0.8c-1.7-2.1-3.3-4.2-5-6.3
	c-0.8-1-1.7-1.9-2.5-2.9c-0.5,1.2-0.8,2-1.2,2.9c-0.4,0.9-0.5,1.7,0,2.7c1,2,2,4,3.7,5.6c3.1,2.8,6.1,5.5,9.1,8.3
	c1.5,1.4,2.8,1.6,4.5,0.5c3.3-2,6.7-3.9,10.1-5.8c0.9-0.5,1.7-0.8,2.3-1.9c0.3-0.7,1.3-1.1,2-1.5c0.8-0.5,1.5-0.1,1.8,0.8
	c0.4,1.3,0.5,2.6-0.4,3.8c-1.6,2.2-3,4.5-4.7,6.6c-1.9,2.4-3.9,4.7-5.9,7c2.6,3.4,5.1,6.6,7.6,9.9c0.1-0.9-0.3-1.7-0.1-2.4
	c0.1-0.5,0.9-0.9,1.5-1.4c-2-1.1-3.9-2.2-5.7-3.3c-1.3-0.8-1.4-1.6-0.7-2.9c0.2-0.3,0.3-0.5,0.5-0.8c3.1-3.8,6.1-7.6,9.2-11.4
	c0.1-0.1,0.4-0.1,1-0.2c-2.9,5.1-6.8,9-9.7,13.7c1.2,0.6,2.2,1.1,3.1,1.7c3.7,2.2,7.4,4.1,11.8,4.7c3.4,0.5,3.8,0.5,5.1-2.8
	c0.2-0.4,0.3-0.9,0.4-1.3c1.8-6.6,2.6-13.2,2.4-20c0-0.8-0.2-1.5-0.4-2.3c-3.1,7.3-7.2,13.7-13,19c0.3-2,1.4-3.5,2.7-5
	c2.5-2.8,4.7-5.9,6-9.4C314.6,186.7,315.4,181.1,315.3,175.4z M278.8,154c0,1.1,0,1.8,0,2.6c0.2,2.4,0.5,4.8,0.6,7.2
	c0.2,3.4-0.1,6.8-1.5,10c-0.9,2.2-0.8,2.5,0.9,4c0.4,0.3,0.7,0.7,1.1,0.9c4.7,3.1,9.7,4.5,15.1,1.7c1.2-0.6,2.5-1.3,3.9-1.5
	c1.1-0.2,1.8-0.8,2.4-1.6c1-1.2,2.1-2.3,3.1-3.4c0.3-0.3,0.5-0.8,0.5-1.2c0.8-4.2,1.5-8.4,2.3-12.6c0.4-2.1,0.7-4.3,1-6.3
	c-2.1,1.3-4,2.5-6,3.7c-4,2.3-8.1,2.4-12.4,1c-1.8-0.6-3.6-1.5-5.4-2.2C282.6,155.4,280.8,154.7,278.8,154z M234.3,248.6
	c-2.6-3.7-6.4-6.8-8.4-11.3c-0.1,1.5,0,2.8,0.1,4.2c0.7,12.3-0.5,24.5-2.5,36.6c-1.1,7-2.1,14-1.5,21.1c0.2,2.9,0.6,5.8,1,9.2
	c0.4-0.7,0.5-0.8,0.6-1c1.1-3.8,2.2-7.6,3.5-11.3c2.2-6.4,4.5-12.7,6.7-19.1c0.9-2.6,1.4-5.3,1.1-8c-0.4-3.5-0.8-6.9-1.2-10.4
	c-0.2-1.7-0.7-3.4-0.6-5.1C233.3,251.9,233.9,250.3,234.3,248.6z M288.1,228.8c1.1,0.4,1.7,0.6,2.3,0.8c3.7,1,6.8,2.9,9.6,5.5
	c1.2,1.2,1.4,1.5,0.5,2.7c-2,2.8-4,5.6-6,8.3c-0.3,0.5-0.9,0.8-1.6,1.5c-2.5-3.2-4.8-6.3-8.2-8.8c-1.7,6.5-6.1,11.2-9.4,16.4
	c0.7,1.2,1.5,1.1,2.4,0.7c0.6-0.3,1.5-0.8,1.9-0.6c1.4,0.9,3.7,0.9,3.3,3.3c1.1,0.5,2.1,0.8,2.8,1.1c4.5-6.3,8.9-12.4,13.4-18.5
	c4.5-6,9.1-12,13.5-17.9c-1.2-2.4-1.2-2.4,0.2-6.9c-0.8-0.2-1.6-0.4-2.5-0.6c-2.3-0.6-4.7-1.1-6.9-1.9c-1.3-0.4-2.2-0.4-3,0.6
	c0.1,0.3,0.2,0.6,0.3,0.9c1.6,4.2,1.1,5.4-2.8,7.7c-0.3,0.2-0.7,0.4-1,0.6C294.1,225.4,291.4,227,288.1,228.8z M275.6,310.5
	c-2.3,0.6-4.4,1.2-6.4,1.7c0,0.4,0,0.6,0,0.8c0,0.2-0.1,0.5-0.2,1c-0.7-0.7-0.6-2-2-1.3c0.5,3.7,1,7.4,1.5,11.2
	c0.9,6,2.9,11.5,6,16.7c1.4,2.3,3.1,4.3,5.4,5.7c2.4,1.4,5,1.9,7.9,1.1c0-0.9,0.1-1.7,0-2.5c-0.3-4.3-2.1-8.1-3.6-12
	c-1.9-4.9-3.5-9.9-4.2-15.2c-0.1-0.6-0.3-1.2-0.6-1.7C278.2,314.1,276.9,312.3,275.6,310.5z M219,341.5c0.4,0.6,0.6,0.9,0.9,1.2
	c3,4.4,5.8,9,8,13.9c1.6,3.8,2.4,7.7,2.3,11.8c-0.2,6.7-0.4,13.5-0.9,20.2c-0.2,2.4,0.8,3.9,2.5,5.4c4.9,4.2,9.8,8.4,14,13.3
	c0.3,0.4,0.7,0.7,1.1,1c-0.2-2.8-0.8-5.4-1.5-8c-0.1-0.5-0.8-1.1-1.3-1.2c-2.3-0.7-3.7-2.4-5.4-3.9c-2-1.8-3.1-4-3-6.8
	c0-1.2,0.1-2.5,0-3.7c-0.7-6.7-1.4-13.4-2.4-20.1c-1.3-8.8-2.9-17.6-4.5-26.6C225.5,338.7,221.9,338.7,219,341.5z M244.8,388.4
	c0-0.3,0-0.6,0-0.8c-1.1-7-2.4-13.9-3.3-20.9c-0.8-6.1-1.1-12.2-3-18.1c-0.7-2.1-1.6-4.4-0.4-6.8c0.4-0.8-0.2-1.5-0.9-2
	c-1.4-1.2-2.4-2.6-2.2-4.6c-1.5-0.4-2.9-0.7-4.3-1c-0.1,0.7-0.4,1.4-0.3,2.1c0.4,3.7,0.8,7.3,1.5,10.9c0.9,5.1,2.3,10.1,2.6,15.4
	c0.2,4,0.8,8,1.2,12c0.4,4.9,1.9,9.6,1.6,14.5c-0.1,1.4,0.7,2.6,1.6,3.7C241.1,391.3,243,389.9,244.8,388.4z M274.6,216.9
	c2.2-1.4,4.1-2.6,5.9-3.9c7.8-5.5,14.4-12.2,19.6-20.3c0.3-0.5,0.7-0.9,0.8-1.4c0.2-0.7,0.1-1.4-0.9-1.5c-0.3,1.9-0.3,1.9-2.3,2.8
	c-1.5,0.7-3.1,1.5-4.5,2.3c-2.4,1.4-4.9,2.7-7.3,4.2c-1.9,1.2-3.4,0.9-5-0.5c-3.1-2.9-6.4-5.7-9.5-8.6c-1.7-1.6-3-3.5-3.9-5.7
	c-0.2-0.4-0.4-0.8-0.6-1.2C268.9,194.4,273.1,205.2,274.6,216.9z M316.2,320.4c4.3-2,8.4-3.9,12.4-5.8c-0.4-1-0.8-1.9-1.2-2.7
	c-2.5-5-5.6-9.7-9.2-14c-0.6-0.8-1.3-0.9-2.2-0.8c-3.6,0.2-7.1,0.3-10.7,0.4c-1.3,0-2.5,0-4.1,0
	C306.3,305.3,311.1,312.7,316.2,320.4z M324.3,286.4c-1.9-1.2-4-2.5-6.2-3.7c-2.7-1.5-5.5-2.9-8.2-4.3c-1-0.5-1.7-0.5-2.4,0.4
	c-3.2,3.5-6.5,6.9-9.7,10.3c-0.4,0.4-0.7,0.8-0.9,1.1c1.4,1.6,2.8,3.1,4.2,4.5c0.6,0.6,1.4,1.1,2.2,1.2c3.9,0.2,7.9,0.4,11.8,0.3
	c3.8-0.1,6.5-1.8,7.5-5.7C323,289,323.7,287.8,324.3,286.4z M290.1,207.1c-4.5,4.9-10.1,8.2-15.3,11.7c-0.4,4-0.7,7.8-1.1,11.6
	c4.9-3.2,9.7-6.3,14.4-9.4c1.4-0.9,2-0.8,2.8,0.5c0.7,1.2,0.6,1.6-1,2.5c-0.7,0.4-1.5,0.9-2.2,1.3c-5,2.5-9.8,5.4-14,9.2
	c-0.7,0.7-1.4,1.2-0.8,2.5c8.2-6.4,17.9-10.5,26.2-16.6C296.1,215.9,293.2,211.6,290.1,207.1z M274.6,257.2
	c-3.9-2.4-7.7-4.4-11.1-6.9c-3.4-2.5-6.4-5.5-9.6-8.3c-1.2,1-2.5,2.1-3.6,3.2c-0.3,0.3-0.3,0.8-0.4,1.3c-0.2,2.7-0.5,5.4-0.7,8.5
	c5.4,4.1,11.1,8.4,16.8,12.7c0.7-0.9,1.4-1.8,2-2.7c0.2-0.3,0.3-0.8,0.3-1.2c-0.1-2.3,0.8-4,3-5
	C272.3,258.3,273.3,257.8,274.6,257.2z M337.3,164.3c0.1-0.1,0.2-0.3,0.3-0.4c-4.5-2.2-6.3-6.4-7.8-10.8c-2.1-6.1-3-12.5-4.2-18.8
	c-0.2-1.2-0.3-2.4-0.6-3.9c3.7,1.6,5.7,5.2,9.6,6.9c-2.7-5.6-6.4-9.4-11.5-12c-1.3,1-1.9,2.2-1.8,3.8c0.1,2.1-0.5,3.9-1.8,5.6
	c-1,1.3-1.7,2.8-2.7,4c-1.1,1.4-1.3,2.7-0.3,4.2c0.3,0.4,0.4,0.8,0.6,1.2c3.3,5.8,7.6,10.7,12.5,15.2c1.3,1.2,2.6,2.2,4,3.1
	C334.7,163.3,336.1,163.7,337.3,164.3z M233.6,213c2.2-3.1,2.3-3.3,2.4-6.2c0.3-4.6,0.6-9.3,0.9-13.9c0.3-4.3,1.5-8.2,4.7-11.3
	c1.5-1.5,2.8-3.1,4.2-4.7c0.3-0.3,0.5-0.7,1-1.3c-1.9-0.1-3.4-0.6-4.8,0.7c-0.6,0.6-1.4,0.9-2.1,1.4c-4,2.7-7.3,6-8.4,11
	c-0.8,3.5-1.8,7-2.9,10.5c-0.4,1.2-0.5,2.3,0.1,3.4C230.1,205.9,231.8,209.3,233.6,213z M269,690c0.4,1.7,0.7,3,0.9,4.3
	c0.9,7.1,1.9,14.1,2.8,21.2c0.1,1.1,0,2.3,1.3,2.8c1.6,0.5,3.2,1.5,4.7,0.7c-0.3-2-0.7-3.6-0.7-5.3c0.1-5,0.5-9.9,0.7-14.9
	c0.1-3.7,0.3-7.4,0.2-11.1c-0.1-2.1-0.7-4.1-1-6.2c-0.2,0-0.3,0-0.5,0c-0.6,2.3-1.1,4.6-1.6,6.7c0.5,0.4,0.9,0.7,1.7,1.3
	C274.4,689.7,271.8,689.9,269,690z M273.4,254.5c6.4-7,10.4-14.8,12.2-24.2c-4.8,3-9.2,5.8-13,9.3c-0.4,0.3-0.7,0.8-0.8,1.3
	c-0.8,2.9-1.9,5.6-3.5,8.1c-0.4,0.6-0.6,1.4-1,2.3C269.4,252.4,271.4,253.4,273.4,254.5z M295,385.9c0.5-1.3,0.6-1.5-0.2-2.1
	c-0.5-0.4-1-0.7-1.6-1c-4.7-2.2-9.6-3.2-14.7-2.8c-6.7,0.5-13.1,2.2-19.6,3.8c-6.2,1.5-11.6,4.7-16.7,8.5c-0.7,0.5-1.2,1.1-1.9,1.7
	c0.5,0.7,0.8,1.2,1.6,0.8c0.6-0.3,1.2-0.7,1.8-1.1c7-4.4,14.6-7.6,22.8-8.8c5.8-0.9,11.7-1.3,17.6-1.7c2.1-0.1,4.2,0.2,6.2,0.7
	C292,384.3,293.5,385.3,295,385.9z M295,389.8c2,0.7,3.7,1.5,5.4,1.9c5.3,1.3,10.6,2.5,15.9,3.6c6,1.3,12,0.7,17.9-0.9
	c0.6-0.2,1.4-0.6,1.6-1.1c0.5-1.1,0.6-2.3,1-3.8c-1,0.2-1.5,0.3-2.1,0.5c-4.4,1-8.8,1.9-13.3,1.6c-4.4-0.2-8.8-0.7-13.2-1.3
	c-4-0.5-7.7-1.7-11-4.5C296.4,387.2,295.8,388.3,295,389.8z M267.1,297c-4.2-6.5-6-13.3-7.8-20.2c-2.7,8-5.3,16.1-6.6,24.9
	c1.3-0.6,2.7-0.8,3-1.5c0.9-2.1,2.5-1.9,4.2-2.1C262.1,297.8,264.3,297.4,267.1,297z M336.1,305c-3.3-5.6-6.2-11.6-11.3-16.4
	c-0.6,1.4-1,2.6-1.6,3.8c-0.7,1.2-1.5,2.3-2.2,3.2c2,2.4,4,4.6,5.8,7c1.8,2.4,3.5,4.9,5.2,7.4C333.4,308.4,334.7,306.8,336.1,305z
	 M235.6,215.4c0.5,0.8,0.7,1.2,0.9,1.6c1.7,2.8,3.4,5.6,5,8.4c1.3,2.3,3.4,3.8,5.4,5.3c0.6,0.4,1.4,0.5,2.2,0.8c1.1-2.1,2.1-4,3.3-6
	c-2.9-2.5-5.5-5-8.4-7.2C241.7,216.5,239,215.3,235.6,215.4z M297.8,181.2c-3.3,1.1-6.3,3.1-10,2.3c-3.5-0.8-6.7-2-9.4-4.3
	c-0.1,2-0.3,3.7-0.4,5.5c0,0.5,0.1,1.2,0.4,1.5c1.6,1.4,3.1,3.1,5,4c1.9,0.9,4.1,0.9,6-0.4C292.8,187.6,295.3,184.4,297.8,181.2z
	 M299.1,236.7c-2.7-2.9-7.8-5.5-12.1-6c-0.6,2.3-1.2,4.6-1.7,6.7c1.6,1.3,3,2.3,4.3,3.6c1.3,1.2,2.4,2.7,3.8,4.2
	C295.4,242.2,297.2,239.5,299.1,236.7z M291.3,736.4c-2.3,0.7-4.5,1.4-6.8,2c-2.4,0.6-4.8,0.4-7.2-0.2c-2.3-0.5-4.5-1.2-6.7-2.1
	c-2.2-0.9-4.5-1.9-6.4-3.3c-1.9-1.4-3.3-3.2-5.1-5c0,1.4-0.1,2.7,0,4c0.2,2,1.3,3.5,3.1,4.4c8.2,4.1,17,5.3,26,4.1
	C291.2,740,291.6,739.4,291.3,736.4z M268.3,300c-2.8,0.3-5.6,0.5-8.5,0.8c0.4,3.1,0.8,5.9,1.2,8.8c4.1-0.9,7.9-1.8,12.1-2.8
	C271.3,304.3,269.8,302.2,268.3,300z M266.6,171.8c3.7,3.7,7.4,7.3,10.2,11.9c0.2-0.8,0.3-1.7,0.1-2.4c-1-3.7-2.1-7.5-3.1-11.2
	c-0.4-1.3-0.7-2.7-0.7-4.1c-0.1-1.4,0.5-1.8,1.9-1.4c0.9,0.3,1.8,0.6,2.6,0.9c0.1,0,0.3-0.1,0.5-0.2c0-0.4-0.1-0.8-0.1-1.3
	c-1.8-0.2-3.5-0.3-5.1-0.5C270.9,166.2,268.9,168.9,266.6,171.8z M264.6,683.9c1.3,1.8,2.5,3.5,3.5,5c2.1-0.2,4-0.4,6.1-0.7
	c0.7-2.2,1.4-4.4,2.1-6.6c-0.7-0.5-1.5-0.8-1.9-1.4c-0.9-1.3-2-1.3-3.3-0.8C268.7,680.4,266.5,681.8,264.6,683.9z M286.5,123.2
	c-5.9-3.3-14.7-2.4-19,2.2c0.9,3.4,1.8,7,2.7,10.6c0.3,1.2,1,1.4,2.1,1.2c1-0.2,2-0.4,3-0.5C282.1,135.6,286.9,131.7,286.5,123.2z
	 M304.2,271.2c-4.1,2.2-8,4.2-12.1,6.3c-0.1,0.2-0.2,0.6-0.3,1c-0.5,1.7,1,3.3,2.7,2.7c3.3-1.2,6.5-2.5,9.7-3.8
	c0.5-0.2,1-0.7,1.5-1.1C305.2,274.5,304.7,272.9,304.2,271.2z M314.4,125.6c-1.5-0.5-2.9-1-4.3-1.5c-4.1-1.5-8.4-2.2-12.8-2
	c-3.1,0.2-3.8,1.6-2.3,4.3c0.6,1,1.1,2,1.9,2.9c2.8,3.6,6.3,5.9,11.1,5.9c1.7,0,3.4,0,5,0C314.3,132.2,314.6,129.7,314.4,125.6z
	 M248.6,686.6c0,0.4,0,0.7,0,1.1c0.4,2.5,0.7,5.1,1.1,7.6c1.1,7.8,2.2,15.7,3.2,23.5c0.3,2.4,0.3,4.8,0.5,7.2c0,0.7-0.1,1.6,1.4,1.7
	c-0.4-4.8-0.8-9.5-1.2-14.2c-0.7-6.9-1.5-13.9-2.1-20.8C251.1,690.3,250,688.4,248.6,686.6z M259.7,310.9c-0.3-3.6-1.2-7.2-0.8-10.8
	c0.9-0.2,1.6-0.4,2.2-0.5c-0.5-0.3-1-0.3-1.5-0.2c-2.4,0.4-2.4,0.4-2.3,2.8c0.1,2.9,0.3,5.7,0.6,8.6c0.1,0.7,0.3,1.3,0.5,2.1
	c5.4-1.2,10.7-2.5,15.9-3.7c0-0.2-0.1-0.5-0.1-0.7c-1.6-0.1-3,0.9-4.6,1.1c-1.6,0.1-3.2,0.7-4.8,0.9
	C263.2,310.6,261.7,311.7,259.7,310.9z M252.5,302.8c-0.4,3-0.7,5.9-1.1,9c1.7-0.8,3.1-1.5,4.7-2.3c-0.1-2.4-0.3-4.9-0.4-7.5
	C254.5,302.2,253.6,302.5,252.5,302.8z M331.1,311.5c-2.3-5.1-6-9-9.3-13.2c-0.5-0.6-1-1.2-1.6-1.7c-0.3-0.2-0.9-0.1-1.3-0.2
	c4.4,5.2,8.1,10.6,10.8,16.8C330.3,312.5,330.7,312,331.1,311.5z M229.1,336.6c0.5-2.4,0.7-4.4-1.1-6.2c-0.6-0.6-0.9-1.4-1.4-2.1
	c-0.4-0.7-0.9-1.3-1.4-2c-0.1,0.1-0.3,0.1-0.4,0.2c0.3,3.3,0.6,6.7,0.8,10.1C226.9,336.6,227.9,336.6,229.1,336.6z M289.3,728.4
	c0.8,1.1,1.5,1.9,2,2.8c0.5,0.8,1.1,0.9,2,0.6c1.4-0.5,2.8-0.9,4.3-1.5c0.1-0.7,0.2-1.4,0.3-2.3
	C294.9,728.1,292.3,728.2,289.3,728.4z M275.2,263.4c-0.1-0.4-0.3-1.1-0.7-1.8c-0.5-0.8-1.1-1.5-2.2-1.4c-1.1,0.1-1.7,0.8-2.2,1.8
	c-0.9,1.8,0.7,3.3,2.6,3.8C274.4,266.2,275.2,265.5,275.2,263.4z M276.1,101.5c-0.1-0.1-0.2-0.3-0.3-0.4c-2.4,2.2-5.3,3.7-6.8,7.1
	c2.8-1.4,5.3-2.7,7.8-4c1.1-0.6,1.9-1.4,2-2.7C277.7,101.5,276.9,101.5,276.1,101.5z M308.4,262.1c-3.5,3.6-6.8,7-10.1,10.5
	c3.7-1.6,7-3.7,9.3-7C308.3,264.6,308.8,263.6,308.4,262.1z M242,230.3c-2.5,1.8-4.9,3.4-7.1,4.9c0.6,1.3,1.3,1.2,2.2,0.7
	c1.5-0.8,3-1.6,4.5-2.5c0.6-0.4,1.3-0.7,2-1.2C243,231.6,242.6,231.1,242,230.3z M245.1,233.4c-2.7,1.4-5.2,2.7-7.9,4
	c1.1,0.9,1.7,1.8,3,1c1.9-1.2,3.8-2.3,5.7-3.5C245.6,234.4,245.4,234,245.1,233.4z M271.8,267.5c-0.9-0.7-1.7-1.3-2.5-1.9
	c-2.7,3.5-2.8,4-1.2,5.4C269.3,269.8,270.5,268.7,271.8,267.5z M276.6,173.2c1.2-2.3,1.4-4.4,1.5-6.6c-1.1-0.1-2.2-0.3-3.5-0.4
	C275.3,168.6,275.9,170.7,276.6,173.2z M269.4,287.4c1.4,0,2.5-0.8,2.5-1.8c0-0.7-1.6-2-2.6-2c-0.8,0-2,1.3-2,2.2
	C267.2,286.8,268,287.4,269.4,287.4z M279,256.5c-1.5,0.9-3,1.7-4.5,2.6c0.7,0.8,1.2,1.4,1.8,2c1.6-1.2,3.1-2.3,4.7-3.5
	C280.2,257.3,279.7,256.9,279,256.5z M268.5,135.1c-0.5-2.5-1-4.9-1.5-7.5c-0.8-0.1-1.5-0.1-2.5-0.2
	C265.4,130.5,266.9,132.8,268.5,135.1z M241.7,228c-3.6,1.3-8.3,4.6-8.7,6.1C234.8,233.7,240.4,229.9,241.7,228z M254.6,233.8
	c-0.3-2.2-0.7-3.9-1.7-6c-0.8,1.6-1.4,2.9-2.1,4.3C252.1,232.8,253.2,233.2,254.6,233.8z M288.2,123c-0.2,1-0.4,1.8-0.5,2.4
	c2-0.3,3.7-0.6,5.6-1c0-0.2,0.1-0.6,0.2-1.1C291.8,123.2,290.1,123.1,288.2,123z M276.2,99.7c2.1,0.1,5.7-1.9,7-3.6
	C280.3,96.4,278.4,98.3,276.2,99.7z M219.7,209.4c2.9,1.4,2.7-1.4,4.3-2.2c-1.5,0-2.5,0-3.6,0C220.1,208,219.9,208.7,219.7,209.4z
	 M242.3,395.8c0,0.2,0.1,0.3,0.1,0.5c0.7,0.2,1.4,0.4,2.3,0.6c-0.1-0.9-0.2-1.5-0.3-2.3C243.5,395.1,242.9,395.5,242.3,395.8z
	 M318,126.1c0.6-0.3,1.1-0.6,2-1.2C318.4,124.9,318.4,124.9,318,126.1z M252.2,241.7c-1.7-0.3-2.2,0.2-1.6,1.6
	C251,242.9,251.4,242.4,252.2,241.7z"/>
<path class="st0" d="M275.8,678.6c-3.6-2.2-6.1-0.6-8.6,1.1c-1.2,0.8-2.2,1.9-3.3,2.9c-0.2-0.1-0.4-0.1-0.5-0.2
	c-2.9-4-5.8-8.1-8.6-12.2c-0.6-0.9-1-1.9-1.5-2.9c-0.3-0.8-0.3-1.6,0.5-2.4c0.1,0.3,0.2,0.6,0.1,0.8c-0.2,0.6-0.4,1.3,0.5,1.4
	c0.9,0.2,1.3-0.4,1.4-1.2c0.1-1.2,0.2-2.5,0.3-3.7c0.4-3.7,0.6-7.4,1.1-11.1c1-7.5,0.4-14.9-0.2-22.3c-0.3-4.1-0.5-8.2-0.9-12.3
	c-0.7-9.1-1.3-18.1-2.1-27.2c-1.6-18.2-1.8-36.4,1.3-54.6c1.7-10.1,4.8-19.7,8.6-29.2c2.2-5.6,4.2-11.4,6.4-17
	c1.6-4.1,1.5-8.2,0.7-12.4c-2-10.9-4.9-21.5-9-31.7c-3.5-8.8-7.2-17.5-10.3-26.5c-2.1-6-3.3-12.3-4.9-18.4c-0.5-1.8-1-3.6-1.5-5.6
	c2.6-1.3,5.1-2.6,7.6-3.7c6.3-2.8,12.9-4.3,19.8-4.7c4-0.2,8-0.7,12.1-0.9c3.2-0.2,6.2,0.4,8.4,2.4c0.3,1.9,0.6,3.5,0.9,5
	c1.9,7.6,2.8,15.4,3.2,23.2c0.3,7.1,1,14.2,1.2,21.4c0.2,7.8,0.3,15.7,0.2,23.5c-0.1,5.8-0.4,11.6-0.9,17.4
	c-0.6,6.5-2.5,12.8-5.1,18.8c-3.8,8.7-6,17.7-7.2,27.1c-0.6,5-1.9,9.9-2.9,14.8c-0.5,2.6-1,5.3-1.5,8.1c2.1-1.9,3-5.5,7.3-28.6
	c-0.2,2.5-0.2,5.1-0.6,7.6c-1.5,10.1-2.9,20.3-4.6,30.4c-1.5,8.9-3.5,17.7-5.2,26.5c-2,10.7-3.8,21.6-4.6,32.5
	c-0.6,7.3-0.9,14.7-1.4,22.1c-0.4,5.9-0.5,11.8,0.2,17.7c0.6,5.6,1.7,11.2,2.5,16.8C275.2,673.5,275.4,675.7,275.8,678.6z"/>
<path class="st0" d="M331.8,326.5c0.2,0.4,0.4,0.7,0.5,1c1.9,5.9,4.9,11.2,7.8,16.7c1.7,3.3,2.4,6.7,2,10.3
	c-1.1,10.6-2.7,21.1-4.7,31.5c-0.2,1.1-0.7,1.7-1.9,2c-6.6,1.8-13.3,2.3-20.1,1.6c-3.6-0.4-7.2-1.1-10.8-1.7
	c-1.1-0.2-2.1-0.6-3.1-0.9c-2.5-0.7-3.9-2.2-4.2-5.1c-0.6-4.7-1.9-9.3-2.8-13.9c-0.2-1-0.3-2-0.5-2.9c2.8,0.9,5.4,1.9,8.2,2.6
	c2.6,0.7,5.4,0.9,8.1,1.1c-4.3-1.5-8.7-2.8-13-4.9c2.7-1.7,5.2-3.3,7.7-4.9c-0.1-0.2-0.2-0.4-0.3-0.5c-4,0.7-7,3.6-11.3,4.4
	c0.1-0.5,0.1-1.1,0.4-1.4c0.5-0.6,1.1-1.1,1.6-1.7c0.6-0.7,1.5-1.4,0.8-2.4c-0.7-1.1-1.7-0.5-2.5-0.2c-0.8,0.3-1.6,0.6-2.4,0.9
	c-3.8,1.5-7.7,3-11.5,4.5c-0.8,0.3-1.6,0.8-2.3,1.3c2.9,0.3,5.3-1.1,7.9-1.9c2.6-0.8,5.1-1.8,8-2.8c-0.5,0.6-0.6,0.9-0.8,1
	c-1,0.8-1.1,1.6-0.8,2.9c1.3,5.8,2.4,11.7,3.6,17.6c0.1,0.3,0.1,0.6,0.1,1.1c-0.5-0.2-0.9-0.2-1.2-0.4c-6.3-3.2-13-4.2-19.9-2.9
	c-5.7,1.1-11.4,2.3-17,3.8c-3,0.8-5.9,2.4-8.8,3.7c-0.6,0.2-1.1,0.5-1.9,1c-0.5-2.2-1-4.2-1.3-6.3c-1.1-7.4-2.5-14.8-3-22.4
	c-0.2-2.4-0.9-4.7-1.4-7.1c-0.5-2.1-1.1-4.2-1.6-6.3c-0.1-0.6-0.1-1.4,0.1-2c0.8-1.9,0.1-3.3-1.4-4.5c-0.5-0.4-0.9-0.8-1.7-1.3
	c3.2-0.1,3.3,2.6,4.9,4.3c0-0.7,0-1,0-1.4c0-0.3,0-0.6-0.1-1c0.3,0,0.5-0.2,0.7-0.1c1,0.2,1.9,0.6,2.9,0.7c1.9,0.3,2.6-0.1,3.1-1.9
	c0.7-3,1.4-6.1,1.8-9.1c0.6-5.1,0.9-10.2,1.4-15.3c0-0.2,0.1-0.5,0.2-0.8c1.4-0.5,3-1,4.7-1.6c0.2,0.9,0.4,1.5,0.5,2.1
	c0.3,1.1,0.9,1.5,2.1,1.2c2-0.5,4.1-1,6.1-1.5c0.3-0.1,0.6-0.1,1.1-0.1c0.2,2.2,0.4,4.5,0.7,6.6c0.7,4.1,1.3,8.3,2.3,12.3
	c1,4.3,3.3,8.1,5.8,11.6c2.7,3.8,6.5,5.9,11.3,5.8c2.3,0,3.1-0.8,2.8-3.2c-0.4-3.5-1.1-7-2.3-10.4c-1.8-5-3.3-10-4.9-15
	c-0.1-0.3-0.1-0.6,0.1-1.1c0.4,0.5,0.8,0.9,1.1,1.5c2.2,3.3,4.3,6.7,6.4,10c0.7,1,1.4,2,2.2,3c0.9,1.1,2,1.7,3.4,1.7
	c1,0,2,0.1,3,0.1c1,0,1.9-0.1,2.8,0.8c0.5,0.5,1.5,0.5,2.7,0.7c-0.9,0.8-1.5,1.5-2.2,2c-1.4,1-2.8,1.9-4.2,2.9c-0.4,0.3-1,0.5-1.3,1
	c-0.4,0.5-0.7,1.2-0.7,1.8c0.1,0.4,0.9,0.9,1.4,0.9c2.1,0.2,4.2,0.4,6.3,0.4c1.7,0,3.4-0.3,5.1-0.4c0.3,0,0.5-0.2,0.8-0.8
	c-3.5-0.3-6.9-0.6-10.7-1c3-2.5,6.7-3.8,7.6-7.8C315.7,336.8,323.7,331.6,331.8,326.5z M271,357.6c5.3,1.8,30.3-5.9,33.9-10.4
	c-3.6,1.1-6.9,2-10,3.2c-5,1.9-10,3.8-15.2,5C276.9,356.1,274,356.8,271,357.6z M295.9,354.8c-2.7,0.1-12.7,3.8-14.5,5.3
	c0.9,0,1.5,0.1,2,0C287.8,359,292.2,357.8,295.9,354.8z M249.2,382.7c0.4-2.1,0.2-4.1-1.5-6.3C247.5,379.1,247.8,381,249.2,382.7z
	 M242.6,351.1c-0.3-2,0.1-4.2-2-6.1C240.7,347.5,241.5,349.3,242.6,351.1z M247.1,372.8c0-1.7,0-3.4-1.5-5.1
	C245.4,369.8,246.2,371.3,247.1,372.8z M244.1,357c-0.7,2,0.1,3.4,0.8,4.8C245.1,360.3,245.2,358.7,244.1,357z M248.3,385.2
	c0.2-0.1,0.4-0.1,0.6-0.2c0.1-0.7,0.2-1.4-1.2-1.7C247.9,384.2,248.1,384.7,248.3,385.2z"/>
<path class="st0" d="M295.9,392.2c11.3,2.8,22.3,6.9,34.5,4.9c-0.4,2.2-0.7,4.1-1,6c-1.7,10.4-5.1,20.3-8.4,30.2
	c-4.2,12.4-8.1,24.8-10.7,37.6c-0.9,4.6-1.8,9.1-2.5,13.7c-0.4,2.6-1.5,4.8-3.4,6.7c-1.1,1.1-1.9,2.5-2.7,4c2.1-0.7,3.4-2.4,5.2-3.8
	c-0.2,1.9-0.3,3.7-0.5,5.6c-0.5,5.1-1.1,10.2-1.7,15.3c-1,8.3-2,16.6-3.1,24.9c-1.7,12.6-3.6,25.2-5.4,37.8
	c-1.4,9.9-2.7,19.8-4,29.8c-0.7,5.5-1,11-1.6,16.4c-0.8,8.3-1.7,16.5-2.6,24.8c-0.3,3.3-0.6,6.6-1.6,9.9c-0.2,0.7-0.1,1.9,0.3,2.4
	c1.5,1.9,1.8,4.2,1.9,6.3c0.1,2.6-0.2,5.3-0.4,7.9c-0.2,2.3-2.1,3-4.2,4c-0.3-1.5-0.6-2.9-0.8-4.3c-0.8-5.4-3.9-9.4-7.7-12.9
	c-0.9-0.8-1-1.7-1.1-2.6c-0.2-4.1-0.5-8.2-0.5-12.3c0.1-11.7,1-23.4,2.2-35.1c1.7-16.4,5.1-32.5,8.2-48.6c1.8-9.4,3.2-18.8,4.4-28.3
	c1.1-8.1,1.7-16.3,2.5-24.5c0.3-2.9,1.1-5.6,2.3-8.2c4.5-9.8,6.3-20.2,6.9-30.9c0.6-10.2,0.3-20.3-0.1-30.5
	c-0.4-8.8-0.7-17.7-1.4-26.5c-0.5-5.8-1.6-11.5-2.4-17.3C296.2,393.7,296,393,295.9,392.2z"/>
<path class="st0" d="M313.8,219c2.2-5.1,5.5-9.2,9.7-12.5c3.9-3,8.1-5.4,12.7-7.2c1.2-0.5,2.4-0.6,3.3,0.1c0.7,2.2,1.2,4.3,1.9,6.3
	c0.6,1.7,0.6,3.3-0.1,4.9c-2,4.8-4.3,9.4-7.9,13.3c-1.3,1.4-2.4,3.1-3.2,4.8c-3.3,6.9-8,12.8-12.5,18.8c-2.5,3.4-5.1,6.8-7.8,10.2
	c-4.5,5.9-9.8,11-15.6,15.6c-2.5,1.9-5,4-7.4,6c-2.1,1.7-2.9,1.7-5.2,0.4c-4.2-2.3-7.7-5.5-11.6-8.7c1.6-1.4,3-2.8,4.7-3.9
	c1.3-0.9,1.9-1.9,2.1-3.4c0-0.5,0.2-1.1,0.5-1.4c1.3-1.1,2.6-2.1,4-3.2c1.3,0.7,2.4,1.3,3.6,1.9c1.4,0.7,1.8,0.7,2.4-0.6
	c4.7-9,11.4-16.6,17.5-24.7c3.1-4.2,6.1-8.4,9.2-12.6C315.7,221.1,315.7,221.1,313.8,219z"/>
<path class="st0" d="M246.3,338.6c-3.6-0.5-6.8-1.6-9.4-3.8c-1-0.8-2-1.4-3.3-1.6c-0.9-0.1-1.8-0.8-2.5-1.5
	c-2.3-2.3-3.6-5.2-4.9-8.1c-0.2-0.5-0.3-1.1-0.7-1.5c-1-1.1-1.1-2.5-1.3-3.9c-0.8-4.8,0.8-9.2,2-13.7c1.4-5.4,3.5-10.6,5.2-15.8
	c2.2,0.3,4.1,0.7,6,0.8c2.6,0.2,3.4-0.5,3.6-3.1c0.3-2.8,0.5-5.6,0.6-8.4c0.1-2.2,0.4-4.3,1.7-6.2c1.1-1.4,1-2.8,0.1-4.3
	c-1-1.7-1.8-3.5-2.6-5.2c-0.3-0.5-0.4-1.1-0.7-1.9c1.6,0,2.9,0,4.5,0c-0.7-1.4-1.8-1.2-2.7-1.4c-0.9-0.2-1.8-0.4-2.7-0.3
	c-1,0.1-1.1,1-0.9,1.8c0.3,0.9,0.7,1.7,1.1,2.6c0.9,1.8,1.8,3.6,2.6,5.4c0.2,0.6,0.4,1.5,0.1,1.9c-2.5,3.2-2.1,7-2.4,10.7
	c-0.2,1.7-0.3,3.4-0.5,5.1c-0.1,1-0.6,1.6-1.7,1.5c-1.7-0.2-3.5-0.5-5.4-0.8c0.9-2.7,1.8-5.1,2.6-7.5c0.6-2.1,1.3-4.2,1.7-6.3
	c0.7-4-0.1-8-0.7-12c-0.3-2.1-0.8-4.1-1.2-6.2c-0.3-1.5,0-2.9,0.5-4.3c1.4,3.7,4.6,5.2,7.4,7.3c1.5,1.2,1.9,1.1,3.6,0
	c0.8-0.6,1.7-1,2.6-1.6c4.2,3.2,8.4,6.5,12.6,9.8c-1.2,3.7-2.5,7.3-3.6,10.9c-2.4,7.6-4.9,15.2-6,23.2c-0.8,6-1.3,12-2.1,18
	c-0.7,5.8-1.6,11.7-2.4,17.5C247,336.7,246.6,337.6,246.3,338.6z M246.2,297.1c0.1-2.4-0.5-2.8-2.1-2.1c-3.3,1.4-6.5,2.8-9.8,4.2
	c-1.3,0.6-2.1,1.5-2.4,2.9c-1,5.5-1.9,11-2.9,16.5c-0.2,1.2,0.1,2.2,1.2,2.8c2.4,1.1,4.8,2.3,7.2,3.1c2.1,0.7,3,0.1,3.6-2
	c0.8-2.9,1.6-5.8,2.2-8.8C244.3,308,245.2,302.2,246.2,297.1z"/>
<path class="st0" d="M304.9,278.9c-3.3,4.3-7.7,7.6-10.7,12.2c0.6,0.3,1.2,0.5,1.6,0.8c1.2,1.1,2.3,2.3,3.4,3.5
	c0.3,0.4,0.8,1,0.7,1.4c-0.4,1.6,0.6,2.6,1.5,3.7c0.5,0.6,0.9,1.3,1.3,1.9c3.2,6.3,7.7,11.8,11.6,17.7c0.9,1.4,1.7,1.7,3.2,1.1
	c3.4-1.4,6.8-2.9,10.2-4.6c2-1,3.4-2.6,4.7-4.4c1.4-1.9,2.9-3.6,4.6-5.8c1.8,3.1,3.4,5.9,5.1,8.8c-0.3,0.4-0.5,0.7-0.8,0.9
	c-3.3,2.9-6.5,6-10,8.8c-5.7,4.4-11.9,7.8-19,9.6c-2.8,0.7-4.9,0-6.6-2.1c-2.3-2.8-4.6-5.7-6.5-8.8c-2.6-4.5-4.8-9.2-7.3-13.8
	c-1.4-2.7-3-5.4-4.5-8.2c-1.3-2.3-3.3-3.8-5.9-5c0.8-2.9-1-4.6-2.8-6.4c-3.6-3.5-5.6-8-7.5-12.5c-0.5-1.2-0.4-2.6-0.1-4.1
	c0.6,0.5,1.3,1,1.9,1.5c3.3,2.4,6.5,4.8,9.8,7c0.6,0.4,1.7,0.4,2.4,0.1c1.1-0.4,2-1.2,2.9-1.8c0.7-0.5,1.3-1.1,2-1.6
	c0.3,0.8,0.3,1.6,0.7,2c2,2.4,1.8,2.8,5,1.6C298.9,281.3,301.9,280.1,304.9,278.9z"/>
<path class="st0" d="M266.6,173.7c0.8,0.9,1.6,1.8,2.5,2.8c-0.5,1.6-1.2,3.1-2.5,4.3c-1.4-1-0.5-2.4-1.1-3.8
	c-0.2,0.5-0.5,0.9-0.5,1.2c-0.2,2.3,0,4.5,0.6,6.7c2.2,8.2,4.3,16.3,6.4,24.5c0.6,2.4,1,4.9,1.2,7.3c0.2,2.7,0,5.5-0.2,8.2
	c-0.3,2.8-0.8,5.5-1.3,8.3c-0.5,2.7-1.2,5.4-1.8,8.2c-0.7,3.2-2.4,5.8-4.4,8.7c-3.5-3-6.9-5.9-10.6-9.1c0.8-0.4,1.3-0.6,1.7-0.8
	c2.2-0.7,3-3.1,1.2-4.6c-1.1-0.9-1.5-1.9-1.8-3.1c-1.4-7.2-2.8-14.5-4.3-21.7c-0.3-1.6-0.6-3.2-1-5.1c1.8,0.1,3.5,0.3,5.1,0.3
	c1.6,0,3.2,0.1,4.8-0.8c-0.9-1.7-2.5-2.2-3.8-3.1c-1.3-0.9-2.6-1.7-3.9-2.5c-1.4-0.9-2.7-1.8-4.2-2.4c-1.4-0.6-2.9-1-4.5-1.5
	c0.1-0.4,0.2-0.8,0.4-1.1c3-4.5,6-8.9,8.9-13.4c1.1-1.6,2.4-2.8,4.2-3.5C260.7,176.4,263.6,175.1,266.6,173.7z"/>
<path class="st0" d="M251.3,666c0.3,3.3,2.5,5.7,4.2,8.3c3.1,4.7,6.4,9.3,9.7,13.9c0.7,1,1.2,2.2,2.6,2.6c0.2,0.1,0.4,0.8,0.4,1.2
	c0.6,4.8,1.2,9.5,1.8,14.3c0.4,3.2,0.7,6.5,0.9,9.7c0.2,2.3,1.4,3.7,3.6,4.3c2,0.6,3.9,1.1,5.8,0.2c2.4,2.1,9.9,12.3,10.4,14.2
	c-5.5,2.6-11.1,3.2-16.9,1c-2.7-1.1-5.6-2-8.1-3.6c-4.7-2.9-7.2-7.2-7.5-12.8c-0.4-7.9-1.4-15.8-3.3-23.5c-0.4-1.7-1-3.2-1.6-4.9
	c-0.1-0.4-0.2-0.8-0.5-1c-2.3-1.8-2.9-4.7-4.5-7c-1.3-1.8-1.3-3.7-0.3-5.7c0.9-1.9,1.6-3.9,2.3-5.8c0.3-0.9,0.4-1.8,0.5-2.7
	C251.1,667.8,251.2,666.9,251.3,666z"/>
<path class="st0" d="M305.8,101.3c1.2,2.2,2.2,4.6,3.6,6.7c1.2,2,2.7,3.8,4.2,5.6c2.3,2.8,3.5,6,3.8,9.6c0.1,0.5-0.1,1.3-0.5,1.6
	c-0.3,0.2-1.1,0.1-1.6-0.2c-5.4-2.8-11.2-4.3-17.3-3.6c-2.8,0.3-5.6,0.6-8.4,0.9c-1.4,0.1-2.5,0-3.7-0.4c-6.3-2.2-12.3-2.2-17.9,2
	c-0.2,0.2-0.5,0.3-0.8,0.5c-1.1-1.2-0.3-2.4,0.2-3.5c0.6-1.3,1.5-2.5,2.3-3.8c0.2-0.4,0.6-0.9,0.6-1.2c-0.4-2.5,1.2-4.4,1.6-6.6
	c0.1-0.4,0.7-0.8,1.1-1.1c1.4-0.8,2.8-1.7,4.3-2.3c1.2-0.6,2-1.3,2.5-2.6c0.7-1.9,1.8-3.6,3.6-4.7c0.6-0.4,1.1-0.7,1.9-0.3
	c0.5,0.2,1.2,0.2,1.8,0c4.2-0.8,8.2-0.1,12.2,1.1C301.5,99.6,303.7,100.6,305.8,101.3C305.9,101.4,305.8,101.3,305.8,101.3z"/>
<path class="st0" d="M313.9,136.4c1.7-2.4,1.5-5.4,1.9-8.3c0.6-0.3,1.2-0.6,2-1c0.1,1.4,0.1,2.7,0.2,4.3c1.5-1.5,0.7-3.3,1.7-4.8
	c0.7,2.5,0.5,4.7-0.9,6.6c-2,2.7-3.7,5.7-6.3,8c-1.2,1.1-2,2.7-2.8,4.2c-1,1.9-1.9,3.9-2.8,5.9c-0.7,1.5-1.7,2.7-3.2,3.5
	c-0.8,0.4-1.5,0.8-2.2,1.3c-3.6,2.2-7.5,2.3-11.4,1c-3.5-1.2-6.9-2.7-10.4-4.1c-0.7-0.3-1.3-0.9-1.7-1.5c-2.2-4.1-4.4-8.2-6.5-12.3
	c-0.1-0.1,0-0.3,0-0.6c1.5-0.3,3.1-0.5,4.7-0.8c5.3-0.9,9-4,11.2-8.8c1.3-2.7,1.6-3,4.5-3c0.5,0,1.1,0.1,1.7,0.1
	C297.4,135,304.5,137.7,313.9,136.4z M296.1,144c-0.4-1.2-1.4-1.1-2.3-1.1c-3.1,0-4.5,0.5-5.4,1.5C292.7,145,294.7,144.8,296.1,144z
	 M294.4,135c-2.3-1.1-4.2,0-6.2-0.6c0,0.5,0,0.8,0.1,0.9c0.4,0.2,0.8,0.5,1.2,0.5C291,135.8,292.6,136.1,294.4,135z"/>
<path class="st0" d="M217.4,229.3c0,2.5,1.3,3.7,6.6,6.8c-0.2,0.8-0.4,1.7-0.7,2.8c-0.6-0.5-1-0.7-1.4-1.1c-1.7-1.6-3.4-3.2-5.2-4.7
	c-1.1-0.9-1.6-2-1.3-3.5c0.5-2.6,0.8-5.2,1.3-7.8c0.4-2.5,1-5,1.4-7.5c0.2-1.2,0.5-2.1,2-2c0.7,0,1.5-0.3,2.2-0.7
	c0.6-0.3,1-0.8,1.4-1.3c0.6-0.7,1.1-1.5,1.7-2.4c-0.5-2.1-1.1-4.4-1.5-6.8c-0.2-1,0.2-2,1.7-2.4c0.2,0.4,0.6,0.8,0.7,1.3
	c1.1,6.1,4.5,11.2,7.8,16.2c1.8,2.7,3.6,5.4,5.3,8.2c0.4,0.6,0.7,1.4,1.2,2.2c-1,0.7-1.9,1.3-2.9,2c-1.6,1-3.1,2-4.7,3.1
	c-2,1.3-2,1.7-1.1,4.2c0.6,0.1,1.3,0.2,1.6,0.2c1.7,1.5,3.3,2.9,4.8,4.2c0.7,0.6,1.3,0.3,1.9,0c2.1-1.3,4.3-2.5,6.4-3.9
	c1.2-0.8,1.3-1.6,0.3-2.7c-0.4-0.4-0.8-0.7-1.6-1.4c0.9,0.2,1.4,0.3,1.9,0.5c2.9,1.2,5.7,2.4,8.6,3.6c1.1,0.4,1.7,1,1.2,2.5
	c-1.9,0.5-3.9,1-6,1.4c-1.6,0.3-2.3,1.2-2.4,2.7c-0.2,2.1-0.4,4.2-0.6,6.3c-0.2,1.8-0.3,3.6-0.6,5.3c-0.3,1.9-2.7,2.9-4.3,1.9
	c-1.3-0.8-2.5-1.5-3.7-2.4c-0.7-0.5-1.5-1.3-1.8-2.1c-1.3-3.9-4.1-6.7-6.6-9.8c-1.2-1.4-2.4-2.8-2.9-4.7c-0.1-0.5-0.5-1-0.9-1.3
	c-2.5-2-5-4-7.5-5.9C219.2,229.7,218.4,229.6,217.4,229.3z"/>
<path class="st0" d="M274.9,660.8c3.6,3.7,6.3,7.7,6.8,12.9c0.2,2.1,0.6,4.2,1.6,6.6c0.3-1.2,0.4-1.9,0.7-3c0.8,2.3,2.5,1.1,4,1.6
	c0.3,3.7,0.7,7.5,1,11.3c1.3-1,1.3-2.3,1.3-3.5c-0.1-2.8,0-5.7-0.7-8.3c-0.8-3.1,0.7-5.8,0.7-8.8c0.5,4.5,1.1,8.9,1.5,13.4
	c0.7,8.1,2.1,16,3.7,23.9c0.5,2.7,1.2,5.5,1.8,8.2c0.2,0.8,0.5,1.5,0.8,2.2c0.4,1.1,0.9,2.1,1.4,3.2c0.1,0.3,0,0.6-0.1,0.9
	c-0.5,1.6-1.1,3.2-1.7,4.9c-0.9,0-1.6,0-2.3,0c-2.2,0-4.3,0-6.5,0.2c-0.9,0.1-1.4-0.2-2-0.9c-1.8-2.3-3.7-4.6-5.6-6.8
	c-1-1.2-1.6-2.4-1.5-4c0.1-3.6,0.1-7.3,0.2-10.9c0.1-3.5,0.2-7,0.4-10.5c0.2-4.1-0.3-8.2-1.3-12.2c-0.2-1-0.2-2-1.2-2.7
	c-0.2-0.2-0.3-0.7-0.4-1c-0.8-4.8-1.5-9.6-2.3-14.5C275,662.2,275,661.5,274.9,660.8z"/>
<path class="st0" d="M305.2,334.9c-1.7-0.1-3.4-0.2-5.1-0.3c-1.3-0.1-2.6-0.3-3.9-0.2c-2,0.1-3.4-0.7-4.5-2.3
	c-1.6-2.5-3.2-4.9-4.9-7.4c-5.3-7.8-10.6-15.5-15.9-23.2c-1.4-2-2.8-3.9-3.3-6.3c-0.1-0.2-0.1-0.5-0.3-0.6
	c-3.4-4.7-4.2-10.4-6.3-15.7c-1.6-4.1-0.4-7.7,1.3-11.5c1.3,0.5,2.3,1.2,2.9,2.4c1.3,2.6,1.8,2.9,4.6,2.7c-1.3,3.6,0.6,6.7,1.8,10.2
	c-0.8-0.1-1.3-0.1-1.9-0.2c-1.8-0.3-2.9,0.7-3.8,2.1c-0.7,1.1-0.5,2.3,0.3,3.2c1.1,1.3,2.5,1.7,4,1.1c1.2-0.5,2.3-1.4,3.4-2.2
	c1.7,2,3.7,4.1,5.5,6.4c0.5,0.7,0.9,1.7,0.9,2.5c0,1.3,0.4,2.1,1.6,2.6c2,0.7,3.3,2.2,4.3,4c1.5,2.6,3,5.2,4.4,7.9
	c1.3,2.4,2.3,4.9,3.6,7.3c3.1,6.1,6.5,12,11.4,16.9C305.4,334.6,305.3,334.8,305.2,334.9z M283.4,312.5c2.2,0,4.6-1.9,4.6-3.6
	c0-1.8-2.2-3.7-4.9-3.8c-1.8-0.1-3.4,1.8-3.4,3.7C279.7,310.7,281.5,312.5,283.4,312.5z"/>
<path class="st0" d="M315.3,175.4c0.1,5.7-0.7,11.4-2.6,16.7c-1.2,3.5-3.5,6.6-6,9.4c-1.3,1.5-2.4,3-2.7,5c5.8-5.2,9.9-11.7,13-19
	c0.1,0.8,0.4,1.5,0.4,2.3c0.2,6.8-0.5,13.5-2.4,20c-0.1,0.4-0.3,0.9-0.4,1.3c-1.3,3.3-1.7,3.4-5.1,2.8c-4.3-0.7-8.1-2.6-11.8-4.7
	c-0.9-0.5-1.9-1-3.1-1.7c2.9-4.7,6.8-8.6,9.7-13.7c-0.6,0.1-0.9,0-1,0.2c-3.1,3.8-6.1,7.6-9.2,11.4c-0.2,0.2-0.4,0.5-0.5,0.8
	c-0.8,1.3-0.6,2.1,0.7,2.9c1.8,1.1,3.7,2.2,5.7,3.3c-0.6,0.5-1.4,0.9-1.5,1.4c-0.2,0.7,0.2,1.5,0.1,2.4c-2.5-3.3-5-6.6-7.6-9.9
	c1.9-2.3,4-4.6,5.9-7c1.7-2.1,3.1-4.4,4.7-6.6c0.9-1.2,0.8-2.5,0.4-3.8c-0.3-0.9-0.9-1.3-1.8-0.8c-0.7,0.4-1.7,0.9-2,1.5
	c-0.5,1-1.4,1.4-2.3,1.9c-3.4,1.9-6.8,3.8-10.1,5.8c-1.8,1.1-3.1,0.9-4.5-0.5c-3-2.8-6.1-5.6-9.1-8.3c-1.7-1.6-2.7-3.6-3.7-5.6
	c-0.4-0.9-0.4-1.8,0-2.7c0.4-0.8,0.7-1.7,1.2-2.9c0.9,1,1.8,1.9,2.5,2.9c1.7,2.1,3.4,4.2,5,6.3c0.2,0.2,0.4,0.5,0.5,0.8
	c2.9,5.6,9.8,5.8,13.6,2.8c0.1-0.1,0.3-0.2,0.4-0.3c3.7-3.9,7.5-7.6,10.4-12.2c0.5-0.7,0.7-1.8,2.2-1.6c0,1.2,0.1,2.5,0,3.8
	c-0.1,1.3-0.3,2.6-0.5,4c0.5,0.2,1.1,0.4,2,0.7c-0.4,4.7-0.6,9.4-3,14c3.1-1.4,5.2-3.2,6.7-5.9c2.2-4.1,3.5-8.6,4.5-13.2
	C314.5,178.1,314.9,176.8,315.3,175.4z"/>
<path class="st0" d="M278.8,154c2,0.8,3.8,1.4,5.6,2.1c1.8,0.7,3.6,1.6,5.4,2.2c4.2,1.4,8.4,1.4,12.4-1c2-1.2,3.9-2.4,6-3.7
	c-0.3,2-0.6,4.2-1,6.3c-0.7,4.2-1.5,8.4-2.3,12.6c-0.1,0.4-0.3,0.9-0.5,1.2c-1,1.2-2.1,2.3-3.1,3.4c-0.7,0.8-1.3,1.4-2.4,1.6
	c-1.3,0.3-2.6,0.9-3.9,1.5c-5.4,2.8-10.4,1.4-15.1-1.7c-0.4-0.3-0.7-0.6-1.1-0.9c-1.7-1.5-1.8-1.8-0.9-4c1.3-3.2,1.7-6.6,1.5-10
	c-0.1-2.4-0.4-4.8-0.6-7.2C278.8,155.8,278.8,155.1,278.8,154z"/>
<path class="st0" d="M234.3,248.6c-0.4,1.7-1.1,3.3-1.2,4.9c-0.1,1.7,0.4,3.4,0.6,5.1c0.4,3.5,0.8,6.9,1.2,10.4
	c0.3,2.8-0.2,5.4-1.1,8c-2.2,6.4-4.5,12.7-6.7,19.1c-1.3,3.7-2.3,7.6-3.5,11.3c-0.1,0.2-0.2,0.4-0.6,1c-0.4-3.4-0.8-6.3-1-9.2
	c-0.6-7.1,0.4-14.1,1.5-21.1c2-12.1,3.2-24.3,2.5-36.6c-0.1-1.4-0.2-2.7-0.1-4.2C227.9,241.8,231.7,244.9,234.3,248.6z"/>
<path class="st0" d="M288.1,228.8c3.2-1.8,6-3.4,8.7-4.9c0.3-0.2,0.7-0.4,1-0.6c3.9-2.3,4.3-3.5,2.8-7.7c-0.1-0.3-0.2-0.6-0.3-0.9
	c0.9-1,1.8-1.1,3-0.6c2.3,0.8,4.6,1.3,6.9,1.9c0.8,0.2,1.6,0.4,2.5,0.6c-1.4,4.5-1.4,4.5-0.2,6.9c-4.5,5.9-9.1,11.8-13.5,17.9
	c-4.5,6-8.8,12.2-13.4,18.5c-0.7-0.3-1.7-0.7-2.8-1.1c0.3-2.4-2-2.5-3.3-3.3c-0.4-0.2-1.3,0.3-1.9,0.6c-0.9,0.5-1.6,0.5-2.4-0.7
	c3.3-5.2,7.8-9.9,9.4-16.4c3.4,2.6,5.7,5.7,8.2,8.8c0.7-0.7,1.2-1,1.6-1.5c2-2.8,4-5.5,6-8.3c0.8-1.2,0.7-1.6-0.5-2.7
	c-2.8-2.6-5.9-4.5-9.6-5.5C289.8,229.4,289.2,229.1,288.1,228.8z"/>
<path class="st0" d="M275.6,310.5c1.3,1.8,2.6,3.6,3.9,5.5c0.3,0.5,0.6,1.1,0.6,1.7c0.7,5.3,2.3,10.3,4.2,15.2
	c1.5,3.9,3.3,7.7,3.6,12c0.1,0.8,0,1.7,0,2.5c-2.9,0.9-5.5,0.4-7.9-1.1c-2.3-1.4-4-3.4-5.4-5.7c-3.1-5.2-5.2-10.7-6-16.7
	c-0.5-3.7-1-7.5-1.5-11.2c1.4-0.7,1.3,0.6,2,1.3c0.1-0.6,0.1-0.8,0.2-1c0-0.2,0-0.5,0-0.8C271.3,311.7,273.3,311.1,275.6,310.5z
	 M278.3,342.3c0.9,1.2,1.9,2.3,4,2.4C281.2,343.2,280.1,342.3,278.3,342.3z M271.3,327.1c0.3-2,0.2-2.2-1.3-3.2
	C269.8,325.3,270.2,326.3,271.3,327.1z M276,336.7c-0.1,0.1-0.3,0.3-0.4,0.4c0.1,1.4,1.3,1.3,2.2,1.8c0.1-0.1,0.2-0.2,0.3-0.4
	C277.3,337.9,276.7,337.3,276,336.7z M270,317.7c-0.2,0-0.4,0.1-0.5,0.1c0.2,0.7,0.3,1.5,0.6,2.7C270.7,318.7,270.7,318.7,270,317.7
	z M272.6,330.6c-0.1,0.1-0.3,0.2-0.4,0.3c0.3,1.3,0.3,1.3,1.9,1.8C273.5,331.8,273,331.2,272.6,330.6z M286.4,346.8
	c0-0.2-0.1-0.3-0.1-0.5c-1.6-0.3-1.6-0.3-2.3,0.9C285,347,285.7,346.9,286.4,346.8z"/>
<path class="st0" d="M236.8,210.9c0.3-3.6,0.6-7.2,1-10.9c0.2-2.6,0.6-5.2,0.8-7.9c0.3-3.3,1.4-6.2,3.5-8.7c1.8-2.2,3.6-4.4,5.5-6.6
	c0.4-0.4,0.9-0.7,1.3-1.1c0.1,0.1,0.2,0.2,0.4,0.3c-0.2,0.5-0.4,1-0.8,2c1.1-0.7,1.8-1.1,2.5-1.5c0.3-0.2,0.7-0.3,1-0.3
	c1.6,0,3.2,0,4.8,0c0,0,0,0.2-0.1,0.2c-2.2,1-3.7,2.8-5,4.7c-2.7,4.2-5.6,8.4-8.4,12.6c-1.3,2-1.2,2.9,1.2,3.6
	c4.5,1.3,8.2,4,12.3,6.8c-1.7,0-2.9,0-4.2,0c-0.5,0-0.9-0.2-1.4-0.2c-2-0.2-2.6,0.3-2.2,2.3c0.8,4.4,1.6,8.8,2.5,13.3
	c0.2,1,0.3,2,0.1,3.2c-1.5-1.3-3-2.6-4.4-4c-3.4-3.2-7.3-4.8-12.3-4.8C235.7,212.8,236.3,211.8,236.8,210.9c0.1,0.6,0.1,1.3,0.1,2.5
	C238.2,211.2,238.2,211.2,236.8,210.9z M239.6,200c0-1.4,0-2.7,0-4.1C238.7,197.2,238.6,198.6,239.6,200z M240.6,189.6
	c-1,1.6-0.5,2.9-0.1,4.2C240.9,192.5,241.2,191.2,240.6,189.6z M244.3,184.3c-0.2-0.1-0.4-0.3-0.6-0.4c-1.2,0.8-1.5,2-1.4,3.5
	C243,186.4,243.7,185.4,244.3,184.3z M238.1,206.6c0.2,0,0.5,0,0.7,0c0.1-1.1,0.9-2.2,0.5-3.3c-0.2,0-0.4-0.1-0.6-0.1
	C238.5,204.4,238.3,205.5,238.1,206.6z M247.4,180c-0.2-0.1-0.4-0.3-0.6-0.4c-1.1,0.5-1.4,1.5-1.1,2.8
	C246.2,181.6,246.8,180.8,247.4,180z"/>
<path class="st0" d="M219,341.5c2.9-2.9,6.5-2.9,9.9-3.6c1.5,9,3.2,17.8,4.5,26.6c1,6.7,1.6,13.4,2.4,20.1c0.1,1.2,0,2.5,0,3.7
	c-0.1,2.7,1,5,3,6.8c1.7,1.5,3.1,3.2,5.4,3.9c0.5,0.2,1.2,0.7,1.3,1.2c0.7,2.6,1.3,5.2,1.5,8c-0.4-0.3-0.8-0.6-1.1-1
	c-4.3-4.9-9.1-9.1-14-13.3c-1.7-1.5-2.7-3-2.5-5.4c0.4-6.7,0.7-13.5,0.9-20.2c0.1-4.1-0.7-8-2.3-11.8c-2.1-4.9-4.9-9.5-8-13.9
	C219.6,342.4,219.4,342.1,219,341.5z"/>
<path class="st0" d="M244.8,388.4c-1.8,1.4-3.7,2.9-5.8,4.5c-0.9-1.1-1.7-2.2-1.6-3.7c0.3-4.9-1.2-9.7-1.6-14.5c-0.3-4-0.9-8-1.2-12
	c-0.3-5.2-1.7-10.2-2.6-15.4c-0.6-3.6-1.1-7.3-1.5-10.9c-0.1-0.7,0.2-1.4,0.3-2.1c1.4,0.3,2.8,0.7,4.3,1c-0.3,2,0.7,3.4,2.2,4.6
	c0.6,0.5,1.3,1.2,0.9,2c-1.2,2.4-0.3,4.7,0.4,6.8c1.9,5.9,2.3,12,3,18.1c0.9,7,2.2,13.9,3.3,20.9
	C244.8,387.9,244.8,388.1,244.8,388.4z"/>
<path class="st0" d="M274.6,216.9c-1.5-11.8-5.7-22.5-7.7-33.8c0.2,0.4,0.4,0.8,0.6,1.2c0.9,2.2,2.2,4.1,3.9,5.7
	c3.1,2.9,6.3,5.7,9.5,8.6c1.6,1.5,3.1,1.7,5,0.5c2.4-1.5,4.8-2.8,7.3-4.2c1.5-0.8,3-1.6,4.5-2.3c2-0.9,2-0.9,2.3-2.8
	c1,0.1,1,0.8,0.9,1.5c-0.1,0.5-0.5,1-0.8,1.4c-5.2,8.1-11.8,14.7-19.6,20.3C278.7,214.3,276.8,215.5,274.6,216.9z"/>
<path class="st0" d="M316.2,320.4c-5.1-7.7-9.9-15.2-15-22.9c1.6,0,2.9,0,4.1,0c3.6-0.1,7.1-0.2,10.7-0.4c0.9,0,1.6,0.1,2.2,0.8
	c3.6,4.3,6.7,8.9,9.2,14c0.4,0.8,0.7,1.7,1.2,2.7C324.5,316.6,320.5,318.4,316.2,320.4z"/>
<path class="st0" d="M324.3,286.4c-0.6,1.4-1.3,2.6-1.7,3.9c-1.1,3.9-3.8,5.6-7.5,5.7c-3.9,0.1-7.9-0.1-11.8-0.3
	c-0.7,0-1.6-0.6-2.2-1.2c-1.4-1.4-2.8-2.9-4.2-4.5c0.2-0.2,0.5-0.7,0.9-1.1c3.2-3.4,6.5-6.8,9.7-10.3c0.8-0.8,1.5-0.9,2.4-0.4
	c2.7,1.5,5.5,2.8,8.2,4.3C320.3,283.8,322.3,285.2,324.3,286.4z M319.5,292c0-1.3-0.9-2.3-2.3-2.3c-1.3-0.1-2.2,0.9-2.3,2.3
	c0,1.3,0.9,2.4,2.1,2.5C318.4,294.6,319.5,293.5,319.5,292z"/>
<path class="st0" d="M290.1,207.1c3.1,4.5,6,8.7,9.1,13.2c-8.3,6.1-18,10.2-26.2,16.6c-0.6-1.3,0-1.8,0.8-2.5c4.2-3.8,9-6.7,14-9.2
	c0.8-0.4,1.5-0.8,2.2-1.3c1.6-0.9,1.7-1.3,1-2.5c-0.8-1.3-1.4-1.4-2.8-0.5c-4.7,3.1-9.5,6.2-14.4,9.4c0.4-3.8,0.7-7.6,1.1-11.6
	C280,215.3,285.6,212,290.1,207.1z"/>
<path class="st0" d="M274.6,257.2c-1.3,0.6-2.3,1.1-3.4,1.6c-2.2,1-3.1,2.7-3,5c0,0.4-0.1,0.9-0.3,1.2c-0.6,0.9-1.3,1.7-2,2.7
	c-5.7-4.3-11.4-8.6-16.8-12.7c0.3-3.1,0.5-5.8,0.7-8.5c0-0.4,0.1-1,0.4-1.3c1.2-1.1,2.4-2.1,3.6-3.2c3.2,2.8,6.2,5.8,9.6,8.3
	C266.9,252.8,270.7,254.8,274.6,257.2z"/>
<path class="st0" d="M337.3,164.3c-1.2-0.6-2.5-1-3.7-1.7c-1.4-0.9-2.8-2-4-3.1c-4.9-4.5-9.2-9.4-12.5-15.2
	c-0.2-0.4-0.4-0.9-0.6-1.2c-1-1.5-0.8-2.8,0.3-4.2c1-1.3,1.8-2.7,2.7-4c1.3-1.7,2-3.6,1.8-5.6c-0.1-1.6,0.4-2.8,1.8-3.8
	c5.1,2.6,8.8,6.4,11.5,12c-3.9-1.6-5.9-5.2-9.6-6.9c0.2,1.5,0.3,2.7,0.6,3.9c1.2,6.3,2.2,12.7,4.2,18.8c1.5,4.4,3.3,8.5,7.8,10.8
	C337.5,164,337.4,164.2,337.3,164.3z"/>
<path class="st0" d="M313.5,142c0.6,4,1.2,8,1.7,12c1.1,8.6-0.2,17-2.6,25.3c-1.1,3.6-2.2,7.1-3.4,10.6c-0.4,1.3-1.2,2.4-2.2,3.5
	c0-0.6-0.1-1.1,0-1.7c0.6-3.2,0.6-6.5-0.4-9.7c-0.2-0.5,0-1.2,0.2-1.8c3.1-9,4.9-18.3,6.5-27.6c0.3-2.1,0.4-4.2,0.3-6.4
	c-2.2,9.3-4,18.7-7.1,27.8c0.3-2.6,0.5-5.2,1-7.8c1-5.7,2.2-11.3,3-16.9c0.4-2.3,1.3-4.3,2.6-6.1C313.1,142.9,313.3,142.4,313.5,142
	C313.5,142,313.5,142,313.5,142z"/>
<path class="st0" d="M233.6,213c-1.8-3.7-3.4-7.1-5-10.5c-0.5-1.1-0.4-2.2-0.1-3.4c1.1-3.5,2.1-7,2.9-10.5c1.1-5,4.4-8.2,8.4-11
	c0.7-0.5,1.5-0.8,2.1-1.4c1.4-1.3,2.9-0.8,4.8-0.7c-0.5,0.7-0.7,1-1,1.3c-1.4,1.6-2.7,3.2-4.2,4.7c-3.2,3.1-4.4,7-4.7,11.3
	c-0.3,4.6-0.6,9.3-0.9,13.9C235.8,209.7,235.8,209.9,233.6,213z"/>
<path class="st0" d="M269,690c2.8-0.2,5.3-0.3,8.4-0.5c-0.8-0.6-1.1-0.9-1.7-1.3c0.5-2.1,1.1-4.4,1.6-6.7c0.2,0,0.3,0,0.5,0
	c0.4,2.1,0.9,4.1,1,6.2c0.1,3.7,0,7.4-0.2,11.1c-0.2,5-0.5,9.9-0.7,14.9c0,1.6,0.4,3.3,0.7,5.3c-1.5,0.8-3.1-0.2-4.7-0.7
	c-1.3-0.4-1.2-1.7-1.3-2.8c-0.9-7.1-1.8-14.1-2.8-21.2C269.7,693,269.4,691.7,269,690z"/>
<path class="st0" d="M320.2,207.8c-0.2-0.4-0.5-0.8-0.7-1.2c-0.4,0.2-0.7,0.3-0.9,0.5c-0.3,0.2-0.5,0.4-1,0.8c1-7,2.4-13.8,1.4-20.9
	c1.5,1,2.8,1.8,3.9,2.7c2.3,1.8,4.9,2.6,7.8,2.6c1.6,0,3,0.5,4.3,1.5c1.3,1,2.6,1.9,4.1,3.1c-0.8,0.3-1.3,0.4-1.9,0.6
	c-6.1,2.1-11.7,5.3-16.5,9.6C320.4,207.2,320.3,207.5,320.2,207.8L320.2,207.8z M336.8,196.3c-0.1-0.2-0.1-0.4-0.2-0.5
	c-1.6-0.2-1.6-0.2-2.8,1.7C335,197,335.9,196.7,336.8,196.3z M328.2,200c-0.1-0.2-0.2-0.4-0.3-0.7c-1,0.3-1.9,0.7-2.3,2.1
	C326.4,200.9,327.3,200.5,328.2,200z M323.6,202.9c-1.7-0.3-2.1,0.7-3,2.1C322,204.5,323.1,204.2,323.6,202.9z M332,198.1
	c-1.1-0.8-1.7-0.4-2.1,0.7C330.6,198.6,331.3,198.3,332,198.1z"/>
<path class="st0" d="M273.4,254.5c-2-1-4-2.1-6.2-3.2c0.4-0.9,0.6-1.7,1-2.3c1.6-2.5,2.7-5.2,3.5-8.1c0.1-0.5,0.5-1,0.8-1.3
	c3.8-3.6,8.2-6.3,13-9.3C283.8,239.7,279.8,247.5,273.4,254.5z"/>
<path class="st0" d="M295,385.9c-1.5-0.7-3-1.6-4.6-2c-2-0.5-4.2-0.8-6.2-0.7c-5.9,0.4-11.8,0.8-17.6,1.7
	c-8.2,1.2-15.8,4.4-22.8,8.8c-0.6,0.4-1.2,0.8-1.8,1.1c-0.8,0.4-1.1-0.1-1.6-0.8c0.7-0.6,1.2-1.2,1.9-1.7c5-3.8,10.4-7,16.7-8.5
	c6.5-1.6,12.9-3.3,19.6-3.8c5.1-0.4,10,0.7,14.7,2.8c0.6,0.3,1.1,0.6,1.6,1C295.6,384.4,295.5,384.7,295,385.9z"/>
<path class="st0" d="M295,389.8c0.8-1.5,1.4-2.7,2.1-3.9c3.3,2.7,7.1,4,11,4.5c4.4,0.5,8.8,1,13.2,1.3c4.5,0.2,8.9-0.6,13.3-1.6
	c0.6-0.1,1.2-0.3,2.1-0.5c-0.3,1.4-0.5,2.7-1,3.8c-0.2,0.5-1,0.9-1.6,1.1c-5.9,1.6-11.9,2.2-17.9,0.9c-5.3-1.1-10.6-2.3-15.9-3.6
	C298.7,391.3,297,390.5,295,389.8z"/>
<path class="st0" d="M305.9,101.4c-0.4-0.5-0.8-1.1-1.3-1.5c-2.9-2.1-6.3-2.9-9.8-3.3c-2.6-0.3-5.2-0.3-8.1-0.4c0.4-0.3,0.6-0.9,1-1
	c1.9-0.4,3.8-0.9,5.7-0.9c3.4,0.1,6.8,0.6,10.2,0.9c0.8,0.1,1.5,0.3,2.2,0.5c0,0.4-0.1,0.8-0.1,1.1c1.2,0.5,2.6,0,3.6,1.3
	c-0.6,0.1-1,0.1-1.5,0.1c0,0.2-0.1,0.4,0,0.5c4.9,4.1,8.8,8.9,11.5,14.7c1.1,2.5,1.9,5.1,2.7,7.7c0.5,1.5,0.3,1.9-0.7,3.4
	c-0.7-0.6-1.5-1.2-2.4-1.9c0.2-3.3-1.4-6.2-3.3-8.9c-2.9-4-5.9-8-8.9-12C306.6,101.6,306.2,101.5,305.9,101.4
	C305.8,101.3,305.9,101.4,305.9,101.4z"/>
<path class="st0" d="M267.1,297c-2.7,0.4-4.9,0.8-7.1,1.1c-1.7,0.2-3.3,0-4.2,2.1c-0.3,0.7-1.8,0.9-3,1.5c1.3-8.8,3.8-16.8,6.6-24.9
	C261.1,283.6,262.9,290.4,267.1,297z"/>
<path class="st0" d="M336.1,305c-1.4,1.7-2.7,3.3-4.1,5c-1.8-2.5-3.4-5-5.2-7.4c-1.8-2.4-3.8-4.6-5.8-7c0.7-1,1.5-2,2.2-3.2
	c0.6-1.1,1-2.4,1.6-3.8C329.9,293.4,332.8,299.4,336.1,305z"/>
<path class="st0" d="M235.6,215.4c3.5,0,6.1,1.1,8.4,2.9c2.9,2.2,5.5,4.7,8.4,7.2c-1.1,2-2.1,3.9-3.3,6c-0.8-0.3-1.6-0.4-2.2-0.8
	c-2-1.6-4.1-3-5.4-5.3c-1.6-2.8-3.3-5.6-5-8.4C236.3,216.5,236,216.1,235.6,215.4z"/>
<path class="st0" d="M297.8,181.2c-2.5,3.2-4.9,6.3-8.3,8.6c-1.9,1.3-4.1,1.3-6,0.4c-1.9-1-3.4-2.6-5-4c-0.3-0.3-0.4-1-0.4-1.5
	c0.1-1.7,0.2-3.5,0.4-5.5c2.7,2.4,5.9,3.6,9.4,4.3C291.5,184.3,294.5,182.3,297.8,181.2z"/>
<path class="st0" d="M299.1,236.7c-1.9,2.7-3.7,5.5-5.8,8.5c-1.4-1.5-2.5-2.9-3.8-4.2c-1.3-1.2-2.7-2.3-4.3-3.6
	c0.6-2.2,1.2-4.4,1.7-6.7C291.3,231.2,296.4,233.8,299.1,236.7z"/>
<path class="st0" d="M291.3,736.4c0.3,2.9-0.1,3.6-3,3.9c-9.1,1.2-17.8,0-26-4.1c-1.8-0.9-2.9-2.3-3.1-4.4c-0.1-1.3,0-2.6,0-4
	c1.8,1.8,3.2,3.7,5.1,5c1.9,1.4,4.2,2.4,6.4,3.3c2.1,0.9,4.4,1.6,6.7,2.1c2.3,0.5,4.8,0.8,7.2,0.2
	C286.8,737.9,289.1,737.1,291.3,736.4z"/>
<path class="st0" d="M268.3,300c1.6,2.2,3.1,4.3,4.8,6.8c-4.2,1-8,1.9-12.1,2.8c-0.4-2.9-0.7-5.7-1.2-8.8
	C262.6,300.5,265.4,300.3,268.3,300z"/>
<path class="st0" d="M266.6,171.8c2.2-2.9,4.3-5.6,6.4-8.3c1.6,0.1,3.3,0.3,5.1,0.5c0,0.5,0.1,0.9,0.1,1.3c-0.3,0.1-0.4,0.2-0.5,0.2
	c-0.9-0.3-1.7-0.6-2.6-0.9c-1.4-0.4-1.9,0-1.9,1.4c0.1,1.4,0.4,2.8,0.7,4.1c1,3.7,2.1,7.5,3.1,11.2c0.2,0.7,0,1.6-0.1,2.4
	C274.1,179.2,270.3,175.6,266.6,171.8z"/>
<path class="st0" d="M264.6,683.9c2-2.2,4.1-3.5,6.5-4.4c1.3-0.5,2.4-0.4,3.3,0.8c0.4,0.6,1.2,0.9,1.9,1.4c-0.7,2.2-1.4,4.4-2.1,6.6
	c-2,0.2-3.9,0.4-6.1,0.7C267,687.4,265.8,685.8,264.6,683.9z"/>
<path class="st0" d="M286.5,123.2c0.3,8.5-4.5,12.4-11.3,13.5c-1,0.2-2,0.3-3,0.5c-1.1,0.2-1.8,0-2.1-1.2c-0.9-3.6-1.8-7.2-2.7-10.6
	C271.8,120.8,280.6,119.9,286.5,123.2z M272,135.9c4.8-0.9,9.2-2.1,12.1-6.5c1.1-1.7,1.4-3.2,0.7-5c-0.7-1.7-0.8-2-2.7-1.8
	c-2.9,0.2-5.7,0.6-8.6,0.9c-3.8,0.3-5.2,1.6-4,5.9C270.1,131.6,270.4,134,272,135.9z"/>
<path class="st0" d="M304.2,271.2c0.5,1.8,1,3.4,1.5,5c-0.5,0.4-1,0.9-1.5,1.1c-3.2,1.3-6.4,2.7-9.7,3.8c-1.7,0.6-3.2-0.9-2.7-2.7
	c0.1-0.4,0.2-0.7,0.3-1C296.1,275.4,300.1,273.3,304.2,271.2z"/>
<path class="st0" d="M313.5,142c0.3-0.1,0.7-0.3,1.2-0.5c0.3,0.6,0.6,1.3,0.9,2c0.6,1.3,1,2.7,1.8,3.8c1.2,1.6,1.4,3.4,1.5,5.2
	c0.1,3.9,0.6,7.9,0.4,11.8c-0.2,4.5-1,8.9-1.6,13.4c-0.1,0.4-0.3,0.8-0.6,1.6c0-1.6-0.1-2.9,0-4.1c0.6-9.1-0.1-18.1-1.6-27.1
	c-0.2-1.4-0.6-2.7-0.8-4.1C314.7,143.1,314.4,142.4,313.5,142C313.5,142,313.5,142,313.5,142z"/>
<path class="st0" d="M314.4,125.6c0.2,4.1-0.1,6.6-1.4,9.7c-1.6,0-3.3,0-5,0c-4.8,0-8.2-2.3-11.1-5.9c-0.7-0.9-1.3-1.9-1.9-2.9
	c-1.5-2.7-0.8-4.1,2.3-4.3c4.4-0.3,8.7,0.5,12.8,2C311.5,124.6,312.9,125.1,314.4,125.6z M301.8,123.5c0,0.1,0,0.1,0,0.2
	c-0.9,0-1.9-0.1-2.8,0c-2.1,0.2-2.8,1.5-1.9,3.4c0.4,0.8,0.9,1.5,1.4,2.1c2,2.4,4.5,4.1,7.5,4.9c1.5,0.4,3,0.5,4.6,0.4
	c1.7-0.1,2.7-1.1,2.7-2.9c0-1.5-0.3-3.1-0.6-4.6c-0.3-1.3-1.3-2.1-2.6-2.3C307.3,124.3,304.6,123.9,301.8,123.5z"/>
<path class="st0" d="M248.6,686.6c1.5,1.8,2.5,3.6,2.8,6c0.6,6.9,1.4,13.9,2.1,20.8c0.5,4.7,0.8,9.4,1.2,14.2
	c-1.4-0.1-1.3-0.9-1.4-1.7c-0.1-2.4-0.2-4.8-0.5-7.2c-1-7.8-2.1-15.7-3.2-23.5c-0.3-2.5-0.7-5.1-1.1-7.6
	C248.5,687.3,248.6,687,248.6,686.6z"/>
<path class="st0" d="M259.7,310.9c1.9,0.8,3.5-0.3,5.1-0.6c1.6-0.3,3.2-0.8,4.8-0.9c1.6-0.1,3-1.1,4.6-1.1c0,0.2,0.1,0.5,0.1,0.7
	c-5.3,1.2-10.5,2.4-15.9,3.7c-0.2-0.8-0.4-1.4-0.5-2.1c-0.2-2.9-0.4-5.7-0.6-8.6c-0.1-2.3,0-2.4,2.3-2.8c0.4-0.1,0.9-0.1,1.5,0.2
	c-0.7,0.2-1.3,0.3-2.2,0.5C258.6,303.7,259.4,307.3,259.7,310.9z"/>
<path class="st0" d="M252.5,302.8c1.2-0.3,2-0.5,3.1-0.8c0.2,2.7,0.3,5.1,0.4,7.5c-1.6,0.8-3,1.5-4.7,2.3
	C251.7,308.7,252.1,305.8,252.5,302.8z"/>
<path class="st0" d="M331.1,311.5c-0.4,0.5-0.8,1-1.4,1.8c-2.8-6.2-6.4-11.7-10.8-16.8c0.4,0,1-0.1,1.3,0.2c0.6,0.5,1.1,1.1,1.6,1.7
	C325.1,302.5,328.8,306.4,331.1,311.5z"/>
<path class="st0" d="M229.1,336.6c-1.2,0-2.2,0-3.4,0c-0.3-3.5-0.6-6.8-0.8-10.1c0.1-0.1,0.3-0.1,0.4-0.2c0.5,0.7,1,1.3,1.4,2
	c0.5,0.7,0.8,1.6,1.4,2.1C229.8,332.2,229.6,334.2,229.1,336.6z"/>
<path class="st0" d="M289.3,728.4c3-0.1,5.7-0.3,8.6-0.4c-0.1,1-0.2,1.7-0.3,2.3c-1.5,0.5-2.9,1-4.3,1.5c-0.9,0.3-1.5,0.2-2-0.6
	C290.7,730.3,290.1,729.4,289.3,728.4z"/>
<path class="st0" d="M275.2,263.4c0,2.1-0.8,2.8-2.5,2.4c-1.9-0.5-3.5-2-2.6-3.8c0.5-1,1.1-1.6,2.2-1.8c1.1-0.1,1.7,0.6,2.2,1.4
	C274.9,262.3,275,263,275.2,263.4z"/>
<path class="st0" d="M276.1,101.5c0.8,0,1.6,0,2.6,0c-0.1,1.3-1,2.1-2,2.7c-2.5,1.3-5,2.6-7.8,4c1.5-3.3,4.5-4.9,6.8-7.1
	C275.9,101.2,276,101.3,276.1,101.5z"/>
<path class="st0" d="M308.4,262.1c0.5,1.5-0.1,2.5-0.8,3.4c-2.4,3.3-5.6,5.5-9.3,7C301.6,269.2,304.9,265.7,308.4,262.1z"/>
<path class="st0" d="M242,230.3c0.5,0.7,0.9,1.3,1.5,2c-0.7,0.4-1.3,0.8-2,1.2c-1.5,0.8-3,1.6-4.5,2.5c-0.9,0.5-1.6,0.6-2.2-0.7
	C237.2,233.7,239.5,232.1,242,230.3z"/>
<path class="st0" d="M245.1,233.4c0.3,0.6,0.5,1,0.8,1.5c-2,1.2-3.8,2.4-5.7,3.5c-1.3,0.8-1.9-0.1-3-1
	C239.9,236,242.4,234.8,245.1,233.4z"/>
<path class="st0" d="M268.6,114c-1.5,0.7-1.5,2.2-1.9,3.5c-0.4,0.9-0.4,1.9-0.6,3c-1.7-3.3,0.3-8.1,4.3-10.5c-0.4,1.4-0.7,2.6-1,3.7
	C269.3,113.9,268.9,113.9,268.6,114C268.6,114,268.6,114,268.6,114z"/>
<path class="st0" d="M271.8,267.5c-1.3,1.2-2.5,2.3-3.7,3.5c-1.7-1.3-1.6-1.9,1.2-5.4C270,266.2,270.8,266.8,271.8,267.5z"/>
<path class="st0" d="M276.6,173.2c-0.7-2.5-1.3-4.6-2-7c1.4,0.2,2.4,0.3,3.5,0.4C278.1,168.8,277.9,170.9,276.6,173.2z"/>
<path class="st0" d="M269.4,287.4c-1.4,0-2.2-0.6-2.1-1.5c0.1-0.9,1.3-2.2,2-2.2c1,0,2.6,1.2,2.6,2
	C271.9,286.6,270.8,287.5,269.4,287.4z"/>
<path class="st0" d="M279,256.5c0.7,0.4,1.2,0.8,1.9,1.2c-1.6,1.2-3,2.3-4.7,3.5c-0.6-0.6-1.1-1.2-1.8-2
	C276.1,258.2,277.5,257.4,279,256.5z"/>
<path class="st0" d="M268.5,135.1c-1.7-2.3-3.1-4.6-4-7.7c1,0.1,1.7,0.1,2.5,0.2C267.6,130.1,268.1,132.6,268.5,135.1z"/>
<path class="st0" d="M241.7,228c-1.3,1.9-6.9,5.6-8.7,6.1C233.4,232.7,238.1,229.3,241.7,228z"/>
<path class="st0" d="M254.6,233.8c-1.4-0.6-2.5-1-3.9-1.6c0.7-1.4,1.3-2.7,2.1-4.3C253.9,229.9,254.3,231.7,254.6,233.8z"/>
<path class="st0" d="M288.2,123c1.9,0.1,3.5,0.2,5.3,0.3c-0.1,0.6-0.1,0.9-0.2,1.1c-1.9,0.3-3.6,0.6-5.6,1
	C287.9,124.7,288,123.9,288.2,123z"/>
<path class="st0" d="M276.2,99.7c2.2-1.4,4.1-3.3,7-3.6C282,97.9,278.3,99.8,276.2,99.7z"/>
<path class="st0" d="M219.7,209.4c0.2-0.8,0.4-1.4,0.7-2.2c1.1,0,2.1,0,3.6,0C222.4,208,222.6,210.9,219.7,209.4z"/>
<path class="st0" d="M242.3,395.8c0.6-0.4,1.3-0.7,2.1-1.2c0.1,0.8,0.2,1.4,0.3,2.3c-1-0.3-1.6-0.4-2.3-0.6
	C242.4,396.2,242.3,396,242.3,395.8z"/>
<path class="st0" d="M320.1,207.8c-1.1,0.9-2.2,1.8-3.5,2.9c0.2-0.7,0.2-1.5,0.5-1.6C318.1,208.5,319.1,208.2,320.1,207.8
	C320.2,207.8,320.1,207.8,320.1,207.8z"/>
<path class="st0" d="M318,126.1c0.3-1.3,0.3-1.3,2-1.2C319.2,125.5,318.6,125.8,318,126.1z"/>
<path class="st0" d="M268.6,114c1,1.2,0.6,2.2-0.8,3.3C268.2,116,268.4,115,268.6,114C268.6,114,268.6,114,268.6,114z"/>
<path class="st0" d="M252.2,241.7c-0.7,0.7-1.2,1.2-1.6,1.6C250,241.9,250.4,241.4,252.2,241.7z"/>
<path d="M271,357.6c2.9-0.7,5.8-1.4,8.7-2.1c5.2-1.2,10.2-3.1,15.2-5c3.1-1.2,6.4-2.1,10-3.2C301.3,351.6,276.3,359.3,271,357.6z"/>
<path d="M295.9,354.8c-3.7,3-8.1,4.2-12.6,5.3c-0.5,0.1-1.1,0-2,0C283.2,358.6,293.2,354.9,295.9,354.8z"/>
<path d="M249.2,382.7c-1.5-1.7-1.7-3.7-1.5-6.3C249.4,378.6,249.6,380.6,249.2,382.7z"/>
<path d="M242.6,351.1c-1.1-1.7-2-3.6-2-6.1C242.8,346.9,242.4,349.1,242.6,351.1z"/>
<path d="M247.1,372.8c-0.9-1.5-1.7-3-1.5-5.1C247.1,369.3,247.1,371.1,247.1,372.8z"/>
<path d="M244.1,357c1.1,1.7,1,3.2,0.8,4.8C244.3,360.4,243.4,359,244.1,357z"/>
<path d="M248.3,385.2c-0.2-0.5-0.3-1-0.6-1.9c1.5,0.4,1.4,1,1.2,1.7C248.7,385.1,248.5,385.2,248.3,385.2z"/>
<path d="M246.2,297.1c-0.9,5.2-1.9,10.9-3,16.6c-0.6,3-1.4,5.9-2.2,8.8c-0.6,2.1-1.5,2.7-3.6,2c-2.5-0.9-4.9-2-7.2-3.1
	c-1.1-0.5-1.4-1.6-1.2-2.8c1-5.5,1.9-11,2.9-16.5c0.2-1.4,1-2.4,2.4-2.9c3.3-1.4,6.5-2.8,9.8-4.2
	C245.7,294.3,246.3,294.7,246.2,297.1z M230.6,319.7c2.8,1.3,5.5,2.6,8,3.8c2.1-9.1,3.6-18.3,6.3-27.6c-3.1,1.5-5.8,3-8.6,4.2
	c-2,0.8-2.7,2.2-3,4.2c-0.4,3.2-1,6.4-1.6,9.6C231.2,315.8,230.9,317.7,230.6,319.7z"/>
<path d="M296.1,144c-1.4,0.8-3.4,0.9-7.7,0.4c0.9-1.1,2.3-1.5,5.4-1.5C294.7,142.9,295.7,142.9,296.1,144z"/>
<path d="M294.4,135c-1.8,1-3.4,0.8-4.9,0.8c-0.4,0-0.8-0.3-1.2-0.5c-0.1-0.1-0.1-0.4-0.1-0.9C290.2,135.1,292.1,133.9,294.4,135z"/>
<path d="M283.4,312.5c-1.9,0-3.7-1.8-3.8-3.7c0-1.9,1.6-3.8,3.4-3.7c2.7,0.2,4.9,2,4.9,3.8C288,310.6,285.6,312.4,283.4,312.5z
	 M283.5,310.7c1.4,0,2.8-0.9,2.8-1.9c0.1-1.2-1.3-2.5-2.5-2.5c-1.5,0-2.7,1-2.6,2.3C281.3,309.7,282.3,310.7,283.5,310.7z"/>
<path d="M278.3,342.3c1.7,0,2.9,0.9,4,2.4C280.3,344.6,279.2,343.5,278.3,342.3z"/>
<path d="M271.3,327.1c-1.1-0.8-1.5-1.8-1.3-3.2C271.5,324.9,271.6,325.1,271.3,327.1z"/>
<path d="M276,336.7c0.7,0.6,1.4,1.2,2.1,1.9c-0.1,0.1-0.2,0.2-0.3,0.4c-0.8-0.5-2.1-0.4-2.2-1.8C275.7,337,275.8,336.8,276,336.7z"
	/>
<path d="M270,317.7c0.7,1,0.7,1,0.1,2.9c-0.3-1.2-0.5-2-0.6-2.7C269.7,317.8,269.9,317.8,270,317.7z"/>
<path d="M272.6,330.6c0.4,0.6,0.9,1.2,1.5,2.1c-1.7-0.4-1.7-0.4-1.9-1.8C272.3,330.8,272.4,330.7,272.6,330.6z"/>
<path d="M286.4,346.8c-0.7,0.1-1.5,0.3-2.4,0.4c0.7-1.2,0.7-1.2,2.3-0.9C286.4,346.4,286.4,346.6,286.4,346.8z"/>
<path d="M239.6,200c-1-1.4-0.9-2.8,0-4.1C239.6,197.2,239.6,198.6,239.6,200z"/>
<path d="M240.6,189.6c0.7,1.6,0.3,2.9-0.1,4.2C240,192.5,239.5,191.2,240.6,189.6z"/>
<path d="M244.3,184.3c-0.7,1-1.3,2.1-2,3.1c-0.2-1.5,0.2-2.7,1.4-3.5C243.9,184.1,244.1,184.2,244.3,184.3z"/>
<path d="M238.1,206.6c0.2-1.1,0.4-2.3,0.6-3.4c0.2,0,0.4,0.1,0.6,0.1c0.4,1.2-0.4,2.2-0.5,3.3C238.6,206.7,238.4,206.7,238.1,206.6z
	"/>
<path d="M247.4,180c-0.6,0.8-1.1,1.6-1.7,2.4c-0.3-1.3,0.1-2.3,1.1-2.8C247,179.7,247.2,179.9,247.4,180z"/>
<path d="M236.8,210.9c1.4,0.4,1.4,0.4,0.1,2.5C236.9,212.2,236.9,211.5,236.8,210.9C236.9,210.8,236.8,210.9,236.8,210.9z"/>
<path d="M319.5,292c0,1.5-1.1,2.6-2.4,2.5c-1.3-0.1-2.2-1.2-2.1-2.5c0-1.4,1-2.4,2.3-2.3C318.7,289.7,319.6,290.7,319.5,292z
	 M317.1,290.9c-0.9,0.5-1,1.1-0.3,1.7c0.2,0.1,0.7,0.1,0.8,0C318.1,292,317.9,291.4,317.1,290.9z"/>
<path d="M336.8,196.3c-0.9,0.4-1.8,0.7-3,1.2c1.2-1.9,1.2-1.9,2.8-1.7C336.7,196,336.8,196.1,336.8,196.3z"/>
<path d="M328.2,200c-0.9,0.5-1.7,0.9-2.6,1.4c0.4-1.3,1.3-1.8,2.3-2.1C328,199.6,328.1,199.8,328.2,200z"/>
<path d="M323.6,202.9c-0.5,1.3-1.5,1.6-3,2.1C321.4,203.6,321.9,202.6,323.6,202.9z"/>
<path d="M332,198.1c-0.7,0.2-1.4,0.5-2.1,0.7C330.3,197.8,331,197.3,332,198.1z"/>
<path d="M272,135.9c-1.6-1.9-1.9-4.3-2.5-6.5c-1.2-4.3,0.3-5.6,4-5.9c2.9-0.2,5.7-0.6,8.6-0.9c1.9-0.2,2,0.1,2.7,1.8
	c0.7,1.8,0.4,3.3-0.7,5C281.3,133.8,276.8,135,272,135.9z M282.8,123.8c-3.2,0.3-6.3,0.7-9.5,1c-1.4,0.1-2.5,0.8-3.3,2.1
	c0.9,2.5,1.3,5.3,2.7,7.7c1.5-0.6,2.8-1.2,4.1-1.5c2.6-0.7,4.4-2.4,6-4.5C284.2,126.8,284,125.4,282.8,123.8z"/>
<path d="M301.8,123.5c2.7,0.4,5.5,0.8,8.2,1.3c1.3,0.2,2.3,1,2.6,2.3c0.3,1.5,0.6,3,0.6,4.6c0,1.7-1,2.8-2.7,2.9
	c-1.5,0.1-3.1,0-4.6-0.4c-3-0.8-5.5-2.5-7.5-4.9c-0.5-0.6-1.1-1.3-1.4-2.1c-0.9-1.9-0.2-3.2,1.9-3.4c0.9-0.1,1.9,0,2.8,0
	C301.8,123.6,301.8,123.5,301.8,123.5z M297.6,125c0.4,0.9,0.6,1.6,1,2.1c2.5,3.8,6.2,5.7,10.6,6.4c0.4,0.1,0.9-0.1,1.3-0.4
	c1.6-0.9,1.9-2.5,1.1-4.9c-0.3-1-0.8-1.7-2.1-1.9c-3.1-0.4-6.2-1.1-9.4-1.6C299.4,124.7,298.7,124.9,297.6,125z"/>
<path class="st0" d="M230.6,319.7c0.4-2,0.7-3.9,1-5.8c0.5-3.2,1.1-6.4,1.6-9.6c0.3-2,1-3.4,3-4.2c2.9-1.2,5.6-2.7,8.6-4.2
	c-2.7,9.3-4.1,18.5-6.3,27.6C236.1,322.3,233.4,321.1,230.6,319.7z M236,307.7c-0.6,0.3-1.2,0.5-1.7,0.9c-1.3,0.9-1.6,2.6-0.6,3.9
	c0.8,1.1,2.1,1.1,2.9,0C237.7,310.9,237.5,309.3,236,307.7z"/>
<path class="st0" d="M283.5,310.7c-1.2,0-2.2-0.9-2.3-2.1c-0.1-1.3,1.1-2.3,2.6-2.3c1.2,0,2.5,1.4,2.5,2.5
	C286.3,309.7,284.9,310.7,283.5,310.7z"/>
<path class="st0" d="M317.1,290.9c0.9,0.5,1,1.1,0.4,1.7c-0.1,0.1-0.6,0.1-0.8,0C316.1,292,316.2,291.4,317.1,290.9z"/>
<path class="st0" d="M282.8,123.8c1.1,1.6,1.4,3,0.1,4.7c-1.6,2.1-3.4,3.8-6,4.5c-1.3,0.4-2.6,1-4.1,1.5c-1.4-2.3-1.8-5.1-2.7-7.7
	c0.8-1.3,1.9-1.9,3.3-2.1C276.5,124.5,279.7,124.2,282.8,123.8z"/>
<path class="st0" d="M297.6,125c1-0.1,1.8-0.3,2.5-0.2c3.1,0.5,6.2,1.1,9.4,1.6c1.2,0.2,1.7,0.8,2.1,1.9c0.8,2.5,0.5,4-1.1,4.9
	c-0.4,0.2-0.9,0.4-1.3,0.4c-4.4-0.7-8.1-2.6-10.6-6.4C298.3,126.6,298.1,125.9,297.6,125z"/>
<path d="M236,307.7c1.5,1.6,1.7,3.2,0.6,4.8c-0.8,1.1-2.1,1.1-2.9,0c-0.9-1.2-0.7-3,0.6-3.9C234.8,308.3,235.4,308,236,307.7z
	 M234.8,312.1c0.9-1.1,1.4-1.9,0.5-3C234.3,309.9,234.3,310.8,234.8,312.1z"/>
<path class="st0" d="M234.8,312.1c-0.5-1.3-0.6-2.2,0.5-3C236.3,310.2,235.8,311,234.8,312.1z"/>
</svg>
