<?xml version="1.0" encoding="utf-8"?>
<!-- Generator: Adobe Illustrator 19.0.0, SVG Export Plug-In . SVG Version: 6.00 Build 0)  -->
<svg version="1.1" id="图层_1" xmlns="http://www.w3.org/2000/svg" xmlns:xlink="http://www.w3.org/1999/xlink" x="0px" y="0px"
	 viewBox="0 0 595.3 841.9" style="enable-background:new 0 0 595.3 841.9;" xml:space="preserve">
<style type="text/css">
	.st0{fill:#FFFFFF;}
</style>
<path class="st0" d="M1.3,1.7c198,0,396,0,593.9,0c0,280,0,560.1,0,840.1c-198,0-396,0-593.9,0C1.3,561.8,1.3,281.7,1.3,1.7z
	 M259.9,612.8c0.4,0.2,0.7,0.3,0.9,0.5c5.5,4.4,18.4,4.6,24.1,1.4c3.6-2,6.9-4.3,9.5-7.5c2.2-2.7,5.1-4,8.7-3.3
	c2.4,0.5,4.8,1.1,7.2,1.6c1,0.2,1.5,0.7,1.7,1.7c0.4,2.1,0.9,4.2,1.5,6.3c1.8,6.2,3.9,12.3,5.6,18.6c2.3,8.6,4.1,17.2,6.4,25.8
	c2.3,8.6,3.8,17.3,5.2,26c0.7,4.4,0,8.6-1.9,12.6c-0.2,0.4-0.3,0.9-0.6,1c-2,0.7-2.1,2.5-2.4,4.1c-0.3,1.7-0.1,3.6-0.7,5.1
	c-1.1,2.9-1.3,5.9-1.3,8.9c0,0.6-0.1,1.3-0.4,1.8c-1,2.1-1.3,4.3-1,6.5c0.7,4.7,1.5,9.5,2.1,14.2c0.5,3.7,2.4,6,5.9,6.9
	c5.3,1.5,10,4,15,6.2c7.9,3.5,15.6,7.4,24,9.4c5,1.2,10,1.7,15.2,1.2c4.6-0.5,8.5-2.5,12.3-4.8c0.4-0.3,0.8-1,0.8-1.6
	c0.5-4.7,1.2-9.4,0.5-14.1c-0.1-1-0.3-2.1-0.9-2.9c-0.9-1.3-2.5-2.2-3.2-3.6c-0.8-1.6-1.6-2.9-2.9-4c-0.1-0.1-0.3-0.2-0.4-0.3
	c-2.3-1.9-4.7-3.9-7-5.8c-0.3-0.3-0.8-0.8-0.8-1.1c0.4-1.8-1-2.1-2-2.8c-1.6-1-3.2-2-4.8-3c-0.7-0.4-1.3-0.9-2-1.3
	c-2.7-1.8-5.5-3.5-8.2-5.3c-0.5-0.3-1.2-0.9-1.2-1.4c-0.3-2.8-2.6-4.3-4.2-6.2c-0.5-0.6-1-1.2-1.4-1.9c-0.6-1.2-1.2-2.4-1.7-3.7
	c-1.2-2.9-2.7-5.8-3.5-8.9c-1.6-5.8-3.2-11.5-3.9-17.5c-0.9-7.5-1.8-15-1.6-22.7c0.2-13.4,0.4-26.8,0.5-40.2c0-2.3-0.2-4.6-0.3-6.9
	c1-0.4,1.8-0.6,2.6-1c2.3-1,4.6-1.9,6.8-3c0.9-0.4,1.8-1.2,2.2-2.1c0.6-1.2,1.6-1.6,2.7-2.1c6.6-2.7,12.1-6.8,16.3-12.6
	c1.4-2,2-4.3,2.2-6.7c0.5-7.1-0.4-14-1.7-20.9c-2-11-5.5-21.6-9.4-32.1c-2-5.3-4-10.6-5.7-16c-2.5-8-4.9-16-7-24.1
	c-5.3-20.2-9.1-40.6-11.5-61.3c-1.3-11.1-2.5-22.2-4.1-33.3c-1.7-12.3-4.6-24.5-8-36.4c-0.1-0.5-0.2-1.1-0.2-1.6c0-3,0.1-6,0.1-9
	c0-1.9-0.2-3.8-0.4-5.7c-0.2-1.8-0.4-3.7-1.1-5.4c-1.1-2.8-1.7-5.6-1.7-8.6c0-1.5-0.3-3-0.6-4.5c-0.5-2.6-1.1-5.2-1.7-8.1
	c2.3,0.2,4.2,0.4,6.1,0.6c3.4,0.3,6.7-0.4,9.6-2.3c2.8-1.8,3.4-3.1,2.7-6.4c-0.8-3.7-2.1-7.4-2.6-11.2c-1.3-9.1-2.3-18.2-3.3-27.3
	c-1.1-9.4-2.3-18.7-4.5-27.9c-0.5-2-1.1-4-1.9-5.9c-2.3-4.9-4-9.9-4.7-15.2c-0.5-4-1.2-7.9-1.9-11.8c-0.7-3.4-2.5-6.1-5.5-8.1
	c-2-1.4-4-3-5.9-4.6c-2.2-1.8-4.3-3.1-7-1c-4-2.7-7-5.9-8.8-10.3c-1.8-4.3-2.3-8.9-3.2-13.5c-0.1-0.3,0.1-0.7,0.2-1.2
	c2,0.3,3.9,0.7,5.8,1c5.1,0.8,9-1.1,12-5.4c0.7,0,1.6,0,2.5,0c3.4,0,6.2-1.4,8.7-3.5c2.5-2.1,4.2-4.8,6-7.4c1.5-2.2,1.9-4.7,1.8-7.3
	c-0.1-0.8-0.1-1.7-0.1-2.6c4.4-1.1,8.5-2.5,12.2-4.8c6.1-3.7,8.7-9.1,8.1-16.1c-0.7-7.2-3.5-13.6-8.2-19.1
	c-3.2-3.8-6.9-7.1-10.9-10.1c-1.7-1.2-3.7-2.2-4.9-3.8c-1.2-1.6-1.5-3.8-2.2-5.8c-1.2-3.8-3.4-6.9-6.3-9.4c-1.3-1.1-2.5-2.2-3.9-3.2
	c-7-5.2-14.1-10.5-21.2-15.7c-2.3-1.7-4.8-3.2-7.1-4.9c-3.9-2.8-8-3.2-12.4-1c-4.7,2.3-9.5,4.5-14.2,6.8c-1.2,0.6-2.3,0.8-3.6,0.6
	c-5.8-1.1-11.7-1.5-17.6-0.1c-7.4,1.8-14.2,4.7-19.6,10.4c-5.7,6-9.2,13-10.8,21c-1.6,7.9-0.8,15.4,3.1,22.5
	c0.9,1.5,1.6,3.1,2.5,4.6c3.1,5.3,6.6,10.2,11.5,14c0.9,0.7,1.7,1.6,2.6,2.3c-0.4,1.1-0.7,1.9-1.1,2.7c-2.5,5.9-3.9,12.1-4.4,18.5
	c-0.6,7.2,3.7,11.7,9.4,14.8c3.6,1.9,7.8,2.1,11.9,2c4.4-0.1,8.7-1.2,13-2c0.4-0.1,0.8-0.5,1.3-0.8c-0.4-0.5-0.6-0.9-1-1.1
	c-4-2.2-7-5.5-10-8.8c-4.5-5-4.1-11-3.6-17c2.1,6,3.6,12.3,8.1,17.1c4.4,4.7,8.9,9.4,15.3,11.2c1,8.7,0.6,13.1-1.3,15.6
	c-0.4-0.2-0.8-0.4-1.2-0.7c-3.3-2.2-6.4-4.8-10.2-6.3c-0.5-0.2-1-0.8-1.4-1.3c-2-2.9-5-4-8.3-4.7c-4.9-1-9.7-0.2-14.5,0.7
	c-3.9,0.8-6.5,2.9-8.6,6.3c-6.2,10.3-11.8,20.8-16,32.1c-3.3,8.9-6.1,18-8,27.3c-0.2,0.9-0.1,1.9,0,2.8c0.1,1.3,0.4,2.6,0.6,3.8
	c-3.1,3.3-3.2,4.5-1.6,8.5c0.6,1.3,1.1,2.7,1.4,4.1c0.6,2.5,2.1,3.6,4.5,3.9c1.9,0.2,3.8,0.3,5.7,0.6c2,0.3,4,0.6,6.1,1
	c0.1,1.1,0.2,1.9,0.2,2.7c0.1,6.2,0.1,12.4,0.3,18.7c0.3,8.4,0.3,16.8-0.3,25.1c-0.5,6.9-0.9,13.8-2.7,20.6c-0.6,2.4-1,4.9-1.1,7.3
	c-0.3,7.2-0.4,14.4-0.5,21.5c0,1.1,0.1,2.2,0.3,3.3c1.4,11.2,2.9,22.5,4.3,33.7c0.3,2.6,0.7,5.3,0.1,7.8
	c-2.2,10.6-4.8,21.1-8.9,31.3c-2.6,6.4-5.3,12.8-7.5,19.4c-4.2,12.4-7.9,24.9-12,37.4c-5.9,17.9-9.6,36.4-14.6,54.5
	c-2.6,9.5-4.7,19.2-6.9,28.9c-1.4,6-2.6,12-3.9,18c-0.3,1.6-0.5,3.3-0.5,5c0.1,2.8,0.9,5.6,4.4,6.6c1.9,0.5,3.6,1.6,5.4,2.6
	c2.9,1.7,6.1,2.8,9.3,3.6c2.6,0.6,5.2,0.6,7.8-0.4c1-0.4,2-1,2.6-1.3c2.1,1.5,3.9,3.2,6,4.2c2.2,1,4.7,1.5,7,2.2
	c0,0.1,0.1,0.3,0.1,0.4c-1,9.4,0.1,18.8,0.9,28.2c0.7,8.9,1.8,17.8,2.2,26.7c0.4,8.4,0.3,16.9,0.4,25.4c0.1,6.1-0.8,12.1-2.6,17.9
	c-0.9,2.8-1.7,5.7-2.5,8.5c-0.4,1.4-0.7,2.9-1.1,4.4c-0.7,2.9-1.9,5.8-2,8.8c-0.4,7-0.3,14-0.4,21.1c0,0.7,0.3,1.7,0.8,2.1
	c1.7,1.5,3.4,3.1,5.9,3.1c1.6,3.2,3.2,6.4,4.6,9.6c2.8,6.1,7.7,9.5,14.1,10.7c6.5,1.3,13,0.7,19.5-0.2c1.8-0.2,3.6-1,4.9-2.4
	c0.5-0.5,1-1.3,1-2c0.1-4.5,0.3-9.1,0.2-13.6c-0.2-4.3-0.8-8.6-3.8-12.1c-1-1.2-1.6-2.5-1.8-4.1c-0.1-1.1-0.8-2.4-1.7-3.1
	c-2.1-1.7-3.8-3.8-5-6.2c-0.1-0.2-0.3-0.4-0.4-0.6c-1.8-2.7-4.1-5.1-5.4-8.1c-1-2.1-2.2-4.1-4.1-5.5c-0.4-0.3-0.7-0.9-0.9-1.4
	c-0.5-2.1-1.3-4.2-1.3-6.3c-0.1-8.6,0.6-17.1,1.7-25.5c0.9-6.6,2.3-13.1,3-19.6c1.7-14.8,3.2-29.7,4.9-44.5c0.2-1.7,0.7-3.4,1.1-5.3
	c1.1,0.3,1.8,0.6,2.6,0.8c2.3,0.6,4.6,1.4,6.9,1.8C252.8,617.1,257,617,259.9,612.8z"/>
<path d="M259.9,612.8c-2.9,4.2-7,4.3-11.4,3.5c-2.3-0.4-4.6-1.2-6.9-1.8c-0.8-0.2-1.5-0.4-2.6-0.8c-0.4,1.9-0.9,3.6-1.1,5.3
	c-1.6,14.8-3.1,29.7-4.9,44.5c-0.8,6.6-2.1,13.1-3,19.6c-1.2,8.5-1.8,17-1.7,25.5c0,2.1,0.8,4.2,1.3,6.3c0.1,0.5,0.5,1.1,0.9,1.4
	c1.9,1.5,3.1,3.4,4.1,5.5c1.4,3,3.6,5.4,5.4,8.1c0.1,0.2,0.3,0.4,0.4,0.6c1.3,2.4,2.9,4.5,5,6.2c0.8,0.7,1.5,2,1.7,3.1
	c0.2,1.6,0.8,2.9,1.8,4.1c3,3.5,3.6,7.8,3.8,12.1c0.2,4.5,0,9.1-0.2,13.6c0,0.7-0.5,1.5-1,2c-1.3,1.4-3,2.2-4.9,2.4
	c-6.5,0.9-13,1.4-19.5,0.2c-6.4-1.2-11.3-4.6-14.1-10.7c-1.5-3.2-3.1-6.3-4.6-9.6c-2.5,0-4.2-1.6-5.9-3.1c-0.5-0.4-0.8-1.4-0.8-2.1
	c0.1-7,0-14.1,0.4-21.1c0.2-3,1.3-5.9,2-8.8c0.4-1.5,0.7-2.9,1.1-4.4c0.8-2.8,1.6-5.7,2.5-8.5c1.8-5.8,2.7-11.8,2.6-17.9
	c-0.1-8.5,0-16.9-0.4-25.4c-0.5-8.9-1.5-17.8-2.2-26.7c-0.8-9.4-1.9-18.8-0.9-28.2c0-0.1-0.1-0.3-0.1-0.4c-2.4-0.7-4.8-1.1-7-2.2
	c-2.1-1-3.9-2.7-6-4.2c-0.7,0.3-1.6,0.9-2.6,1.3c-2.5,0.9-5.1,1-7.8,0.4c-3.3-0.7-6.4-1.9-9.3-3.6c-1.7-1-3.5-2-5.4-2.6
	c-3.5-1-4.3-3.8-4.4-6.6c0-1.7,0.1-3.4,0.5-5c1.2-6,2.5-12,3.9-18c2.2-9.6,4.3-19.3,6.9-28.9c5-18.2,8.7-36.6,14.6-54.5
	c4.1-12.4,7.8-25,12-37.4c2.2-6.6,4.9-13,7.5-19.4c4.1-10.1,6.7-20.6,8.9-31.3c0.5-2.5,0.2-5.2-0.1-7.8c-1.3-11.2-2.8-22.5-4.3-33.7
	c-0.1-1.1-0.3-2.2-0.3-3.3c0.1-7.2,0.2-14.4,0.5-21.5c0.1-2.5,0.5-4.9,1.1-7.3c1.8-6.8,2.2-13.7,2.7-20.6c0.6-8.4,0.6-16.7,0.3-25.1
	c-0.2-6.2-0.2-12.4-0.3-18.7c0-0.8-0.1-1.6-0.2-2.7c-2-0.3-4-0.7-6.1-1c-1.9-0.2-3.8-0.4-5.7-0.6c-2.4-0.3-4-1.5-4.5-3.9
	c-0.3-1.4-0.8-2.7-1.4-4.1c-1.7-4-1.5-5.2,1.6-8.5c-0.2-1.2-0.5-2.5-0.6-3.8c-0.1-0.9-0.2-1.9,0-2.8c1.9-9.3,4.6-18.4,8-27.3
	c4.2-11.3,9.8-21.8,16-32.1c2-3.4,4.7-5.5,8.6-6.3c4.8-1,9.6-1.7,14.5-0.7c3.2,0.7,6.2,1.9,8.3,4.7c0.4,0.5,0.8,1.1,1.4,1.3
	c3.8,1.5,6.8,4.1,10.2,6.3c0.4,0.3,0.8,0.5,1.2,0.7c1.9-2.5,2.2-6.9,1.3-15.6c-6.4-1.8-10.9-6.5-15.3-11.2c-4.5-4.8-6-11.1-8.1-17.1
	c-0.5,6-0.9,12,3.6,17c3,3.3,6,6.7,10,8.8c0.4,0.2,0.6,0.7,1,1.1c-0.5,0.3-0.8,0.7-1.3,0.8c-4.3,0.8-8.6,1.9-13,2
	c-4.1,0.1-8.4-0.1-11.9-2c-5.7-3-10-7.5-9.4-14.8c0.5-6.4,1.9-12.6,4.4-18.5c0.3-0.8,0.7-1.6,1.1-2.7c-0.8-0.7-1.7-1.6-2.6-2.3
	c-4.9-3.8-8.4-8.7-11.5-14c-0.9-1.5-1.6-3.1-2.5-4.6c-3.9-7.1-4.7-14.6-3.1-22.5c1.6-8,5.2-15,10.8-21c5.4-5.7,12.2-8.5,19.6-10.4
	c5.8-1.5,11.7-1.1,17.6,0.1c1.4,0.3,2.4,0,3.6-0.6c4.7-2.3,9.5-4.5,14.2-6.8c4.4-2.2,8.4-1.8,12.4,1c2.3,1.7,4.8,3.2,7.1,4.9
	c7.1,5.2,14.1,10.4,21.2,15.7c1.3,1,2.6,2.1,3.9,3.2c2.9,2.6,5.1,5.7,6.3,9.4c0.6,2,1,4.2,2.2,5.8c1.2,1.6,3.2,2.5,4.9,3.8
	c4,3,7.6,6.3,10.9,10.1c4.7,5.5,7.5,11.9,8.2,19.1c0.7,7-2,12.5-8.1,16.1c-3.7,2.2-7.8,3.6-12.2,4.8c0,0.9,0.1,1.7,0.1,2.6
	c0.2,2.6-0.3,5.1-1.8,7.3c-1.7,2.7-3.5,5.4-6,7.4c-2.5,2.1-5.4,3.5-8.7,3.5c-0.9,0-1.8,0-2.5,0c-3,4.3-7,6.1-12,5.4
	c-1.9-0.3-3.8-0.6-5.8-1c-0.1,0.4-0.2,0.8-0.2,1.2c0.9,4.5,1.5,9.1,3.2,13.5c1.8,4.4,4.9,7.6,8.8,10.3c2.7-2.1,4.8-0.8,7,1
	c1.9,1.6,3.8,3.1,5.9,4.6c2.9,2,4.8,4.7,5.5,8.1c0.8,3.9,1.4,7.8,1.9,11.8c0.7,5.4,2.3,10.4,4.7,15.2c0.9,1.9,1.4,3.9,1.9,5.9
	c2.3,9.2,3.5,18.5,4.5,27.9c1,9.1,2.1,18.2,3.3,27.3c0.5,3.8,1.8,7.4,2.6,11.2c0.7,3.3,0.1,4.6-2.7,6.4c-2.9,1.9-6.2,2.6-9.6,2.3
	c-1.9-0.2-3.8-0.4-6.1-0.6c0.6,2.9,1.2,5.4,1.7,8.1c0.3,1.5,0.6,3,0.6,4.5c0,3,0.6,5.8,1.7,8.6c0.6,1.7,0.8,3.6,1.1,5.4
	c0.2,1.9,0.4,3.8,0.4,5.7c0,3-0.1,6-0.1,9c0,0.5,0.1,1.1,0.2,1.6c3.4,12,6.3,24.1,8,36.4c1.5,11.1,2.8,22.2,4.1,33.3
	c2.4,20.7,6.2,41.2,11.5,61.3c2.1,8.1,4.5,16.1,7,24.1c1.7,5.4,3.8,10.7,5.7,16c3.9,10.5,7.4,21.1,9.4,32.1
	c1.3,6.9,2.2,13.9,1.7,20.9c-0.2,2.5-0.8,4.7-2.2,6.7c-4.2,5.8-9.7,9.9-16.3,12.6c-1.1,0.5-2.1,0.9-2.7,2.1
	c-0.4,0.9-1.4,1.6-2.2,2.1c-2.2,1.1-4.5,2-6.8,3c-0.8,0.3-1.6,0.6-2.6,1c0.1,2.3,0.3,4.6,0.3,6.9c-0.1,13.4-0.2,26.8-0.5,40.2
	c-0.1,7.6,0.7,15.1,1.6,22.7c0.7,6,2.3,11.7,3.9,17.5c0.8,3.1,2.3,5.9,3.5,8.9c0.5,1.3,1,2.5,1.7,3.7c0.4,0.7,0.9,1.3,1.4,1.9
	c1.6,1.9,3.9,3.4,4.2,6.2c0.1,0.5,0.7,1,1.2,1.4c2.7,1.8,5.5,3.5,8.2,5.3c0.7,0.4,1.3,0.9,2,1.3c1.6,1,3.2,2,4.8,3
	c1.1,0.7,2.4,1,2,2.8c-0.1,0.3,0.4,0.8,0.8,1.1c2.3,2,4.7,3.9,7,5.8c0.1,0.1,0.3,0.2,0.4,0.3c1.3,1.1,2.1,2.4,2.9,4
	c0.7,1.4,2.3,2.3,3.2,3.6c0.6,0.8,0.7,1.9,0.9,2.9c0.7,4.7,0,9.4-0.5,14.1c-0.1,0.6-0.4,1.3-0.8,1.6c-3.8,2.4-7.8,4.4-12.3,4.8
	c-5.1,0.5-10.1,0-15.2-1.2c-8.5-2-16.2-5.9-24-9.4c-5-2.2-9.8-4.7-15-6.2c-3.5-1-5.5-3.3-5.9-6.9c-0.6-4.7-1.4-9.5-2.1-14.2
	c-0.3-2.3,0-4.4,1-6.5c0.3-0.5,0.4-1.2,0.4-1.8c0-3,0.2-6,1.3-8.9c0.6-1.6,0.4-3.4,0.7-5.1c0.3-1.6,0.5-3.4,2.4-4.1
	c0.3-0.1,0.5-0.6,0.6-1c1.9-4,2.6-8.2,1.9-12.6c-1.4-8.7-2.9-17.5-5.2-26c-2.3-8.5-4.2-17.2-6.4-25.8c-1.7-6.2-3.8-12.4-5.6-18.6
	c-0.6-2.1-1.1-4.2-1.5-6.3c-0.2-1-0.7-1.5-1.7-1.7c-2.4-0.5-4.8-1.1-7.2-1.6c-3.5-0.7-6.5,0.6-8.7,3.3c-2.6,3.3-5.9,5.6-9.5,7.5
	c-5.7,3.1-18.7,2.9-24.1-1.4C260.6,613.2,260.3,613,259.9,612.8z M216.9,754.7c-0.6-2-1.2-4.1-1.8-6.1c-0.1-0.2,0-0.5-0.1-0.7
	c-0.2-0.3-0.6-0.4-0.9-0.6c-0.2,0.3-0.6,0.7-0.5,0.9C214.6,750.4,215,752.9,216.9,754.7c0.2,0.4,0.3,0.9,0.6,1.2
	c1.5,1.8,3.5,2.4,5.7,2.6c7,0.8,14,0,21-1.1c1.6-0.3,3.2-0.9,4.8-1.5c1.4-0.6,1.4-1.2,0.8-2.4c-1,0.4-1.9,1-2.9,1
	c-1-0.1-2-0.8-3.1-1.3c-2,2.3-4.5,2.3-7.1,1c-1.6,1.6-3.3,0.8-4.9,0.2c-1.9,1.5-3.8,1.8-5.9,0.8c-1.1-0.5-1.9-0.1-2.7,0.4
	c-1.9,0.9-3.7,0.9-5.4-0.5C217.5,754.9,217.1,754.8,216.9,754.7z M296.6,602.7c5.4-1.1,5.4-1.1,9.1-0.2c0.9,0.2,1.7,0.5,2.6,0.6
	c4.9,0.9,9.7,1.2,14.2-1.3c3.4-1.9,6.8-2.6,10.6-1.8c0.8,0.2,1.6,0.2,2.4,0.3c3.4,0.5,6.9,1.1,10.2,0.1c3.6-1.1,7.2-2.5,10.8-3.9
	c2.1-0.8,3-2.4,2.8-4.7c-0.3-3.7-0.6-7.3-0.9-11c-0.4-5.6-0.6-11.3-1.3-16.9c-1-8.8-2.3-17.6-3.4-26.3c-0.1-0.9-0.1-1.8-0.2-2.6
	c0.2,0,0.3,0,0.5,0c0.4,2.1,0.8,4.2,1.2,6.3c1.2,6.7,2.8,13.3,3.6,20c1.2,10.1,1.8,20.2,2.7,30.3c0,0.3,0.1,0.6,0.2,0.9
	c0.3-0.1,0.6-0.1,0.8-0.2c6-3.2,11.2-7.3,15.4-12.7c0.7-0.8,1.2-1.9,1.3-3c0.3-2.5,0.7-5.1,0.5-7.6c-0.5-5.5-1-11-2-16.4
	c-2-10.8-5.5-21.1-9.5-31.3c-2.6-6.6-5-13.3-6.9-20.1c-2.1-7.9-4.8-15.7-6.8-23.7c-4.1-16.7-7.4-33.5-9.5-50.5
	c-1.2-9.4-2.4-18.8-3.6-28.3c-0.9-7-1.6-14-2.7-20.9c-1.2-7.2-2.9-14.2-4.4-21.3c-0.5-2.4-1.1-4.8-1.7-7.2
	c-10.8,0.9-21.4-1-31.9,0.1c-0.1,6.5-0.3,12.9-0.4,19.2c-0.2,0-0.3,0-0.5,0c0-6.3,0-12.6,0-19.1c-1,0-1.6,0-2.3,0
	c-4.1,0.2-8.1,0.3-12.2,0.7c-10.8,1.1-21.5,0.3-32-2.9c-4.2-1.3-8.5-2.6-12.9-3.9c-0.7,1.5-1.4,3-2.1,4.6c-2.3,5-4.7,9.9-7,15
	c-5.7,12.6-9.4,25.9-12.3,39.4c-1.9,8.6-4.4,17-7.6,25.2c-5.8,14.6-11.4,29.3-16,44.3c-4.8,15.9-9.5,31.8-13.3,48
	c-4.4,18.6-9.3,37-13.8,55.5c-1.1,4.6-1.7,9.4-2.2,14.2c-0.4,3.1,1.1,4.9,4.1,5.8c0.9,0.3,1.8,0.6,2.7,1c1.5,0.6,3,1.2,4.7,1.9
	c0.2-0.7,0.3-1.1,0.4-1.6c1.1-7.1,2.9-14.1,5.2-20.9c5.7-17.2,11.6-34.3,17.2-51.5c4-12.2,7.6-24.5,11.5-36.8
	c0.3-0.9,0.6-1.8,0.9-2.7c0.2,0,0.3,0.1,0.5,0.1c-0.2,0.9-0.4,1.8-0.6,2.7c-2.1,7.2-4,14.5-6.3,21.6c-4.9,15.5-10,31-15,46.5
	c-3.4,10.4-7.5,20.5-10.2,31.2c-1,4-1.9,8-2.9,12.2c3.2,1.3,6.3,2.3,9.6,2.1c2.9-0.2,5-1.5,5.8-4.5c0.2-0.9,0.6-1.8,0.8-2.8
	c1.5-8.2,4-16.1,6.4-24c0.1-0.4,0.4-0.7,0.6-1c-2,10.7-3.4,21.4-6.9,31.8c1.6,0.9,3.2,1.8,4.8,2.6c4.1,1.9,8.4,2.5,12.8,0.9
	c2-0.7,4.2-1.1,6.2-1.7c4-1.1,7.2-0.1,9.8,3.2c1.5,1.9,3.5,3.2,5.8,4c4.1,1.5,8.3,2.9,12.5,4.2c1.4,0.5,3,0.6,4.5,0.8
	c0.6,0.1,1.3,0.1,1.9,0.1c3.7-0.2,5.5-0.9,5.4-5.5c-0.2-7.4,0.8-14.7,1.9-21.9c2.3-14.5,3.5-29.2,3.9-43.8
	c0.4-11.4,0.8-22.8,1.2-34.5c0.1,3.5,0.4,6.6,0.3,9.8c-0.1,9.7-0.5,19.5-0.5,29.2c-0.1,13.6-1.7,27.1-3.7,40.5
	c-1.1,7.1-1.8,14.2-2.7,21.2c3.5,2.7,7,4.8,11.2,5.2c1.7,0.2,3.3,0.2,5,0.3c6.7,0.3,12-2.6,16.7-7.1c1.3-1.3,2.6-2.6,3.7-4.1
	c1.3-1.7-0.4-3.5,0-5.3c0-0.1,0.1-0.2,0.2-0.4C295.7,599.7,296.1,601.2,296.6,602.7z M232.2,122.6c1-2.3,2-4.5,2.9-6.7
	c3.4-7.9,6.7-15.9,10.1-23.8c0.7-1.8,1.5-3.5,2-5.3c1.6-5.8,5-9.9,10.8-11.8c3.1-1,6.2-2,9.4-2.7c4-0.9,8.1-1.2,12.1-0.4
	c8.5,1.7,16.2,5.3,23.3,10.2c1.8,1.2,3.2,2.8,4.3,4.7c2.5,4.1,5.1,8.3,7.8,12.3c4.4,6.7,8.7,13.4,12.3,20.5
	c2.1,4.3,3.9,8.7,5.8,13.1c0.2,0.5,0.4,1,0.6,1.5c4.3-0.9,8.2-2.6,11.7-4.9c5.8-3.8,7.8-9.2,6.6-15.9c-1.1-6.4-3.7-12-8.1-16.8
	c-1.9-2-3.8-4.1-6-5.8c-4.4-3.4-9-6.6-13.5-9.9c-10.9-8.2-23.1-14.2-35.7-19.4c-8.1-3.3-16.4-6.2-24.7-9c-7.6-2.6-15.3-3.1-23.1-1
	c-6.9,1.8-13.1,4.8-18,10.3c-6.2,6.8-9.3,14.7-10.1,23.8c-0.4,5.4,0.4,10.5,2.7,15.4c2.2,4.6,4.8,8.8,7.8,12.9
	C226,117.1,228.8,119.9,232.2,122.6z M284,331.8c0-0.1,0-0.3,0.1-0.4c4.4,0.4,8.9,0.8,13.3,1.1c7.1,0.6,14.1,1.6,21.2,1.2
	c4.4-0.3,8.7-0.5,13.1,0.4c0.4-2,0.4-2.4-0.4-4.2c-1.5-3.3-2-6.9-2.3-10.5c-0.1-1.3-0.4-2.7-0.6-4c-0.4-2.1-0.9-4.2-1.3-6.3
	c-0.4-2-0.3-2-2.4-2.2c-3.6-0.5-7.3-0.6-10.8-1.9c-0.8-0.3-1.7-0.3-2.4-0.4c-0.3,0.4-0.4,0.6-0.5,0.8c-1.3,3.9-4.3,5.6-8.2,5.8
	c-2.4,0.1-4.8,0.3-7.2,0.4c-1.7,0.1-3.4,0.3-4.7,1.4c-2.3,2.1-4.9,2.4-7.8,2c-5.2-0.7-10-2.6-14.9-4.4c-2.6-1-4.7-2.7-6.4-4.9
	c-0.2-0.3-0.6-0.6-1.2-1.1c-0.1,1.1-0.3,1.7-0.3,2.4c-0.2,2-1.1,3.5-3,4.2c-2.3,0.9-3.6,2.7-4.2,5.1c-0.3,1.1-1,2.2-1.9,2.9
	c-2.9,2.5-4.7,5.6-6,9.1c-0.8,2.2-1.8,4.4-2.8,6.6c-1,2.1-1.5,4.2-1,6.5c6.1,2,12.4,3.6,18.6,5.2c6.7,1.7,13.6,2,20.4,1.6
	c7.6-0.4,15.3-1.1,22.9-1.2c7-0.2,14,0.2,21.1,0.3c2,0,4,0,6-0.2c1.7-0.1,2.4-0.8,2.3-2.4c-0.2-3.1-0.5-6.2-0.8-9.6
	c-2.5,0-4.9-0.2-7.1,0c-5.2,0.4-10.3,0.6-15.5,0c-3.8-0.5-7.6-0.7-11.4-1.2C293.2,333.3,288.6,332.5,284,331.8z M257.5,159.3
	c-2.6-2.8-4.8-5.4-7.4-7.7c-2.7-2.5-4-5.5-4.6-9c-0.9-5.4,0.1-10.7,0.9-15.9c0.8-4.9,3.6-8.8,6.3-12.7c1.3-1.9,2.7-3.7,3.9-5.7
	c2.5-4.2,4.9-8.4,7.3-12.6c2.5-4.5,5-9.1,6.6-14c0.3-0.9,1-1.8,1.5-2.6c-0.2,3.5-0.2,3.7,2.5,6.3c2,2,4.3,3.8,6.3,5.9
	c2,2,3.9,4.2,5.8,6.3c1.2,1.4,2.1,3,3.2,4.5c2.7,3.7,6.1,6.5,10.3,8.3c3.8,1.6,7.4,3.4,9.4,7.2c0.2,0.4,0.6,0.7,0.9,1.1
	c2.9,3.3,6.2,5.9,9.8,8.3c2.7,1.8,5.4,3.7,8,5.6c1,0.7,1.8,1.7,3.1,2.8c-0.1-1-0.1-1.6-0.2-2c-0.7-1.9-1.3-4-2.3-5.8
	c-3.4-6.4-6.8-12.8-10.4-19.1c-3.5-6.1-7.6-12-11-18.2c-1.9-3.5-4.4-6.2-7.7-8.2c-5.6-3.4-11.6-5.9-18-7.7
	c-3.4-0.9-6.8-1.2-10.2-0.8c-3.4,0.4-6.8,1.1-10.1,1.9c-3.1,0.8-6.1,1.9-8.6,4.1c-1.1,1-2.1,2.2-2.8,3.5c-0.9,1.7-1.3,3.6-2.1,5.3
	c-5.2,12.5-10.4,25-15.7,37.5c-2.6,6-4.3,12.2-5,18.6c-0.6,6.3,1.5,10.5,7.2,13.5c3.7,1.9,7.6,2.5,11.6,2.4
	C249.9,160.2,253.6,159.7,257.5,159.3z M271.1,83.9c-0.3,0.5-0.5,1.2-0.8,1.8c-4.8,10.4-9.9,20.5-17,29.6c-1.5,1.9-2.7,4.1-3.9,6.3
	c-1.6,2.9-2.1,5.7-1.2,9.1c3.7,13.5,5.4,16.4,15.5,24.7c0.2,0.2,0.5,0.4,0.8,0.6c3.8,3,8,3.6,12.6,2.1c4.1-1.4,7.3-4.1,10.5-6.9
	c5.3-4.6,8.8-10.4,11.7-16.7c0.5-1.2,1.2-1.8,2.6-2c2.2-0.3,4.5-1.1,5.5-3.4c1.9-4.1,1.4-8.3-0.5-12.2c-0.6-1.3-1.6-1.5-3-0.9
	c-1.2,0.6-2.2,1.4-2.5,3c-1-1.5-1.8-3.1-2.7-4.6c-1.1-2-2.2-4.1-4.2-5.5c-3.3-2.3-5.9-5.3-8.2-8.6c-1.8-2.6-4-5-6.1-7.3
	C277.2,89.9,274.2,87,271.1,83.9z M312.9,605.9c0.7,2.1,1.3,4.1,2,6c1,2.8,2.2,5.5,3,8.3c4.5,14.6,7.2,29.7,10.9,44.6
	c1.5,6.1,2.4,12.4,2.8,18.7c0.3,4.9,0.4,9.7-1.9,14.3c-0.4,0.8-0.1,1.4,0.4,2c3.2,4.2,6.8,7.8,11.7,10.1c4.2-4.3,8.9-7.8,15.2-8.8
	c-0.4-0.9-0.8-1.5-1.1-2.3c-1.1-2.6-2.4-5.1-3.1-7.8c-1.5-5.9-2.8-11.8-3.8-17.8c-1.5-8.9-2.3-17.9-2.2-26.9
	c0.2-13.9,0.3-27.8,0.5-41.6c0-0.7,0-1.5-0.1-2.1c-2.7,0.1-5.1,0.4-7.4,0.3c-2.2-0.1-4.4-0.4-6.6-0.8c-3.3-0.5-6.4-0.2-9.5,1.4
	c-2.1,1.1-4.5,1.6-6.8,2.2C315.7,605.9,314.4,605.8,312.9,605.9z M228.1,715.3c-0.2-1-0.3-1.9-0.4-2.7c-0.3-2.5-0.7-5.1-0.7-7.6
	c0-10.6,1.2-21.2,2.7-31.7c1.1-8.1,2.2-16.3,3.1-24.4c0.9-7.1,1.5-14.3,2.4-21.4c0.6-4.7,1.3-9.4,2-14.3c-1.1-0.4-2.2-0.9-3.4-1.3
	c-3-1.1-5.6-2.7-7.6-5.2c-0.4-0.4-0.8-0.8-1.2-1.2c-1.3-1.2-2.8-1.8-4.6-1.3c-2.5,0.6-5,1.1-7.5,1.7c-1.7,0.4-3.3,0.9-5.2,1.5
	c0.4,6.7,0.7,13.2,1.2,19.7c0.5,6.4,1.2,12.9,1.7,19.3c1.1,15.1,0.4,30.1,0.3,45.2c0,4.3-0.8,8.6-2,12.7c-0.9,3.1-1.8,6.1-2.7,9.2
	c-0.8,3,0.3,7.3,2.6,9.7c2.1-3.1,5.5-4.3,8.7-5.6C220.8,716.2,224.3,715.4,228.1,715.3z M220.1,386.4c0.1,0,0.3,0.1,0.4,0.1
	c0.1-0.3,0.3-0.6,0.3-0.9c3.6-12.8,8.6-25,14.5-36.9c0.5-1,0.8-2.1,0.8-3.2c0-4.4,0.1-8.8-0.3-13.1c-1-10.3-1.1-20.5-0.7-30.8
	c0-1,0.1-1.9,0.2-2.9c0.8-4.3,1.6-8.6,2.4-12.9c1.4-7.4,2.8-14.7,4.2-22.1c0.2-1.2-0.3-1.8-1.2-2.3c-4.8-2.8-9.6-5.7-14.4-8.4
	c-2.1-1.1-4.5-1.6-7-1.9c0,0.7,0,1.2,0,1.8c0.3,2.9,0.8,5.8,0.8,8.8c-0.2,11.5,1,23,0,34.4c-0.6,7.1-1.5,14.1-2.4,21.1
	c-0.4,3.2-1.6,6.4-1.8,9.6c-0.5,7.5-0.7,15-0.9,22.5c0,2.1,0.3,4.3,0.6,6.4c1.8,9.7,3.2,19.5,4.1,29.4
	C219.9,385.5,220,386,220.1,386.4z M241.3,279.1c-0.9,3.7-1.7,7.1-2.4,10.6c-0.6,3-1,6-1.6,8.9c-0.2,1.1,0.2,1.8,1.2,2.3
	c1.6,0.9,3.3,1.5,5.2,1.3c2.7-0.2,5.4-0.4,8.1-0.6c2.1-0.2,4.1-0.4,6.2-0.6c1.9-0.2,3.4,0.6,4.3,2.4c1.5,2.8,3.8,4.8,6.7,5.8
	c4,1.4,8.2,2.7,12.3,3.9c1.2,0.4,2.5,0.3,3.8,0.4c1.5,0.1,2.8-0.3,4-1.3c1.8-1.6,4-2.2,6.4-2.3c3-0.1,6-0.4,9-0.8
	c2.3-0.2,3.9-1.6,4.5-3.7c0.7-2.3,1.5-4.6,1.6-6.9c0.3-5.1,0.3-10.2,0.4-15.3c0-0.6-0.2-1.2-0.3-2.1c-1.6,0-3.2,0-4.7,0
	c-2.5-0.1-4.9,0.4-7.1,1.6c-1.4,0.8-3,1.4-4.6,1.9c-8.8,2.5-17.7,2.3-26.4-0.7c-3.8-1.3-7.6-2-11.5-2
	C251.4,282,246.3,281.5,241.3,279.1z M259.1,171.8c-0.1,0.1-0.2,0.3-0.3,0.4c0.5,0.7,0.9,1.5,1.4,2.2c4,5.8,8.7,11,13.8,15.9
	c1.9,1.8,3.7,3.8,5.5,5.7c2.6,2.8,5.2,5.6,7.9,8.3c1.9,1.9,4,3.4,6.7,4c3.6,0.7,7.2,1.3,10.8,1.9c2.2,0.4,4.1-0.3,5.7-1.7
	c2.1-1.8,3.7-4.1,3.9-6.9c0.3-3.2,0.4-6.4,0.5-9.5c0-0.8-0.3-1.7-0.6-2.5c-0.4-1.1-1.3-1.5-2.3-1.9c-1-0.4-1.2,0.6-1.7,1.1
	c-2.5-0.9-4.5-2.5-6.4-4.2c-4.7-4.3-6.7-10-7.6-16.1c-0.4-2.6-0.6-5.2-1-8c-3.4-0.6-5.9-2.7-8.4-4.8c3.3-1.8,3.3-1.8,4-5.5
	c-2.9,2.4-5.7,5-8.7,7.2c-3.1,2.3-6.9,3.1-10.7,3.6c0.2,2.1,0.4,4,0.5,5.9c0.2,3.7,0.8,7.5-1.9,10.7c3.5,3,7.4,5.1,10.4,8.4
	C272.7,182.4,266.4,176.3,259.1,171.8z M315.7,245.6c1.5-0.3,2.6-0.6,3.8-0.8c5.6-0.9,11-3.3,17-1.9c0-0.7,0.1-1.2,0-1.6
	c-0.8-3.7-1.6-7.5-2.6-11.2c-0.4-1.5-1.2-2.9-1.9-4.3c-0.6-1.1-1.5-1.8-2.9-1.8c-1.4,0-2.7-0.2-4.1-0.2c-5.3-0.1-10.6,0.2-15.8-0.3
	c-9.9-0.9-19.8-2.2-29.7-3.3c-5.6-0.6-11.2-1.6-16.9-1.1c-2.8,0.3-5.6,0.4-8.2,1.6c-1.2,0.5-1.9,1.3-2.1,2.6
	c-0.4,2.3-0.8,4.6-1.6,6.7c-1.2,3.4-1.3,7-1.7,10.6c-0.1,0.6,0,1.2,0,2c1.2-0.4,2.1-0.8,3-1c11.2-3.6,22.7-5.2,34.4-5
	c5.1,0.1,10.2,0.3,15.1,2.2c2.8,1.1,5.6,1.6,8.6,2c2,0.2,3.9,0.6,5.9,0.9C315.9,243,315.8,244.1,315.7,245.6z M312,262.7
	c-2.4-0.6-4.8-1.2-7.1-1.8c-1.6-0.5-3.1-0.6-4.7-0.1c-3.9,1.2-7.9,1.7-12,1.6c-3.4-0.1-6.9,0-10.3-0.2c-2.5-0.2-5-0.4-7.3-1.2
	c-7-2.4-14.1-2.1-21.3-2.1c-1,0-1.7,0.4-1.9,1.4c-0.5,2.2-1.7,3.5-4.1,3.2c-0.6,5-1.1,9.9-1.7,14.8c0.6,0.2,0.9,0.3,1.2,0.3
	c4.9,1.2,9.9,1.4,14.9,1.5c3.5,0,6.8,0.8,10.1,1.7c3.3,1,6.6,1.9,10,2.3c7.3,0.8,14.5,0.3,21.2-3.3c2.5-1.3,5.1-1.6,7.9-1.5
	c1.3,0.1,2.7,0.2,4.1,0.3C311.3,273.9,311.7,268.5,312,262.7z M315.1,243.2c-1-0.1-1.5-0.1-2.1-0.1c-4.5-0.3-8.9-0.6-13.1-2.5
	c-0.9-0.4-2-0.6-3-0.8c-8.3-1.6-16.7-1.3-25-0.2c-7.1,1-14.1,2.5-21.2,3.9c-2.1,0.4-2.2,0.4-2.3,2.6c-0.2,3.5,0.4,7-0.3,10.4
	c0,0.1,0.1,0.3,0.3,0.5c0.8,0,1.7,0.1,2.5,0c6.9-0.5,13.7-0.3,20.3,2c1.6,0.6,3.4,0.8,5.2,0.9c3.5,0.3,7,0.4,10.5,0.7
	c4.1,0.4,8.1,0.1,12.1-1c2.4-0.6,4.7-0.7,7,0.1c1.9,0.6,4,0.9,6.3,1.5C313.3,255.1,314.1,249.3,315.1,243.2z M396.8,740.7
	c-4.5,3.9-9.3,5.6-14.6,5.9c-6.3,0.3-12.1-1.5-17.3-5.3c-2.5-1.8-5.1-3.8-7.9-4.9c-7.2-2.8-14.3-5.9-21.8-7.9
	c-2.3-0.6-4.5-1.6-6.6-2.7c-1.9-1-3.3-2.6-3.7-4.9c2.5,2.5,5.3,4.5,9,5.3c0-0.9,0-1.6,0-2.2c-1.8-0.7-3.6-1.1-5.2-2
	c-1.5-0.9-2.7-2.3-4.3-3.7c-0.1,1.8-0.3,3.3-0.1,4.7c0.7,5.5,1.5,10.9,2.1,16.4c0.2,1.6,0.9,2.3,2.4,2.8c3.8,1.2,7.6,2.3,11.3,3.8
	c4.7,1.9,9.4,4,14,6.3c5.5,2.8,11.3,4.7,17.2,6.4c3.6,1,7.2,1.5,10.9,1.2c3.9-0.4,7.8-0.7,11.3-2.7c1.9-1.1,3.2-2.4,2.8-4.8
	c-0.1-0.7,0.1-1.4,0.1-2.1C396.5,747.3,396.6,744.3,396.8,740.7z M252.8,219.9c1.6-0.6,2.8-1.3,4.1-1.5c5-0.9,10-1.3,15-0.8
	c2.3,0.2,4.6,0.5,6.9,0.8c5.8,0.7,11.6,1.1,17.3,2.1c9.6,1.6,19.1,2.4,28.8,2.1c1.2,0,2.3,0,3.5,0c0.1-0.2,0.1-0.3,0.2-0.5
	c-1.3-1.2-2.6-2.5-3.9-3.7c-2.5-2.2-3-2.8-3.4-4.4c2.8,2.2,5.5,4.4,8.4,6.7c-0.4-2-0.9-3.6-1.1-5.2c-0.2-1.5-0.9-2.5-2.1-3.2
	c-1.1-0.5-2.1-1.2-3.3-1.4c-3-0.6-6.1-1-9.2-1.4c-0.9-0.1-1.9,0.3-2.6,0.7c-2,1.3-4.3,1.9-6.6,1.6c-3.8-0.5-7.6-1.2-11.3-2
	c-1.3-0.3-2.7-0.7-3.8-1.4c-1.7-1.2-3.4-1.6-5.5-1.7c-5.6-0.4-11.1-1.1-16.6-1.9c-4.1-0.6-8.2-1.5-11.8-3.7
	c-0.9-0.5-1.6-1.2-2.2-2.1c-0.5-0.8-1.3-1.7-2.2-2c-1.7-0.5-3.5-0.6-5.5-0.9c1,5.1,2,9.8,3,14.4c1.4,0,2.4,0,3.6,0
	c0.2-1.5,0.5-3.1,0.7-4.6c0.2,0,0.4,0,0.6,0.1C253.6,210.4,253.2,215,252.8,219.9z M284.8,204.8c-0.4-0.6-0.5-0.8-0.6-1
	c-4.5-4.6-9-9.3-13.5-13.9c-1.1-1.2-2.1-2.7-4.1-2.1c-0.2,0.1-0.5-0.1-0.7-0.2c-3.1-1-6.3-1.9-9.3-3.1c-1.9-0.8-3.8-1.7-5.4-3
	c-4.6-3.8-9.8-6.5-15.3-8.8c-0.7-0.3-1.5-0.6-2.2-0.8c-3.8-1.1-7.8,0.5-9.8,3.9c-1.7,2.9-3.4,5.8-5,8.7c-0.2,0.4-0.3,0.9-0.6,1.6
	c2.2-0.4,4.2-0.8,6.1-1.1c5.1-0.8,10.2-0.4,15.1,1.1c2.7,0.8,4.9,2.6,5.4,5.2c0.6,3.4,2.3,4.2,5.3,3.9c1.6-0.2,3.4,0.3,4.2,1.8
	c1.4,2.5,3.7,3.3,6.2,4.1C268.4,203.6,276.5,203.6,284.8,204.8z M312.3,303.1c2.9,0.5,5.9,1.1,8.9,1.5c3.7,0.5,7.5,0.8,11.2,1.2
	c3.1,0.3,6.2,0.4,9.2-0.9c3.9-1.8,4.4-2.7,3.5-6.8c-1-4.3-2-8.5-3-12.8c-0.1-0.5-0.3-1-0.4-1.6c-1,0.4-1.8,0.7-2.6,1
	c-2.9,1.1-6,1.8-9.1,1.4c-4.7-0.6-9.3-1.2-14-1.8c-0.9-0.1-1.8-0.3-2.7-0.5C312.9,290.2,312.6,296.5,312.3,303.1z M250.9,756.1
	c-0.6,0.3-1,0.6-1.4,0.7c-1.8,0.7-3.5,1.7-5.4,2c-6.3,1-12.7,1.4-19.1,1c-4.5-0.3-8.1-2-10.3-6.3c-1.9-3.7-3.9-7.3-5.9-10.9
	c-0.9-1.6-2.1-3.2-3-4.8c-0.6-1.1-1.2-2.2-1.7-3.4c-0.5-1.4-0.8-2.9-1.1-4.3c-0.3,0.5-0.3,0.9-0.3,1.4c0,5.5,0,11-0.1,16.5
	c0,1.8,2.8,4.8,4.5,4.3c1.4-0.4,1.7,0.2,2.2,1c1.7,3.2,3.6,6.4,5.2,9.7c2.9,5.9,7.7,9,14,10c5.9,0.9,11.8,0.4,17.6-0.4
	c0.9-0.1,1.9-0.4,2.8-0.7c1.7-0.6,2.6-1.8,2.6-3.6c0-1.3-0.1-2.6-0.1-3.8C251.1,761.7,251,759.1,250.9,756.1z M263.8,50.5
	c6.1,2.8,12,4.6,17.8,6.5c15.6,5.1,30.4,12.1,43.7,21.9c0.6,0.4,1.3,0.8,2.4,1.6c-1.4-4.2-2.7-7.7-5.6-10.4c-1.9-1.8-3.9-3.6-6-5.1
	c-6.7-5-13.4-10-20.2-14.9c-2.7-2-5.5-3.8-8.3-5.6c-2.5-1.6-5.1-2-8-0.7c-3.1,1.4-6.3,2.8-9.4,4.1C268.2,48.7,266.3,49.5,263.8,50.5
	z M210.5,250.3c0-0.1-0.1-0.2-0.1-0.4c0.2-0.1,0.4-0.3,0.6-0.4c6-0.9,11.8-0.6,17.3,2.1c5,2.4,9.9,5.1,14.4,8.5
	c0.6,0.4,1.2,0.7,1.7,1.1c1.2-1.5,1.3-1.5,1.5-3c0.3-2.1,0.5-4.1,0.8-6.2c0.2-1.7-0.3-3.2-1.2-4.5c-1.4-2.2-3.3-3.9-5.8-4.8
	c-1.3-0.4-2.6-0.5-3.9-0.9c-3.3-0.9-6.6-1.8-9.9-2.8c-7.2-2.1-14.5-1.8-21.8-1.6c-1.6,0-2.4,0.9-3.1,2.2c-0.6,1.2-0.3,2.3,0.1,3.5
	c0.7,1.9,1.5,3.8,2.1,5.8c0.4,1.3,1.2,2,2.5,2.2c1.2,0.2,2.4,0.3,3.6,0.4c2.7,0.3,5.5,0.6,8.2,0.9c0.4-1.4-0.2-1.7-1.3-1.7
	C214.3,250.6,212.4,250.4,210.5,250.3z M311.3,148.1c-0.1-0.1-0.2-0.2-0.3-0.3c0.4-0.7,0.7-1.4,1.1-2.1c3.3-6.2,4-12.6,2.2-19.4
	c-0.6-2.3-2.2-3.7-3.9-5.4c0,3.5,0.5,6.7-1.5,9.4c-2,2.6-4.7,3.9-8,4.3c-0.2,0.4-0.4,0.8-0.6,1.2c-1.7,3.7-3.4,7.4-6,10.6
	c-0.3,0.4-0.5,0.8-0.6,1.3c-0.4,1.7-0.7,3.4-1,5.1c2.7-0.9,4.1-2.2,8.1-7.3c-1.1,5.7-5.5,8.4-10.3,10.9c5,2.9,10.3,4.2,15.9,4.2
	c1.2,0,2.4-0.3,3.6-0.4c1-0.1,1.8-0.6,2.3-1.6c1.7-3.3,2.8-6.8,2.6-10.5c0-0.6-0.2-1.2-0.4-2C313.1,146.6,312.2,147.4,311.3,148.1z
	 M224.1,193.3c-0.4,2-0.7,3.8-1.2,5.5c-1.8,6.6-4.4,13-7.6,19.1c-2.3,4.2-3.6,8.7-4.1,13.4c-0.1,1.2,0,2.5,0,3.7
	c4.3,0.4,8.3,0.7,12.3,1.1c0.8-2.5,1.5-5.1,2.3-7.5c1.1-3.1,2.3-6.1,3.5-9.2c2.1-5.3,3.1-10.9,3.9-16.5c0.1-1,0.6-2.1-0.4-2.9
	C230.1,197.6,227.4,195.2,224.1,193.3z M313.6,264.8c1.5,0.1,2.6,0.4,3.6,0.3c4.1-0.6,8.1-0.4,12.1,0.8c1.9,0.6,4,0.7,5.9-0.2
	c1.5-0.7,3-1.7,4-2.9c0.5-0.6,0-2.1,0-3.2c0-0.4-0.1-0.8-0.1-1.2c-0.5-3.7-1.1-7.4-1.5-11.1c-0.2-1.4-0.9-2.3-2.2-2.3
	c-2.1-0.1-4.1-0.2-6.2,0c-3.6,0.4-7.1,1-10.6,1.6c-0.9,0.1-1.8,0.4-2.8,0.6C315,252.9,314.3,258.6,313.6,264.8z M313.7,266.4
	c0,0.1-0.2,0.5-0.2,0.9c-0.2,3.5-0.3,7-0.4,10.5c-0.1,4.5,0.2,4.8,4.7,5.1c0.3,0,0.6,0,1,0c3,0.3,6,0.4,9,1
	c4.9,0.9,9.3-0.2,13.8-2.3c-0.6-5.4-1.2-10.7-1.8-16.2c-0.5,0.3-0.8,0.4-1.1,0.6c-2.5,2.1-5.5,2.5-8.6,2.1c-1.4-0.2-2.8-0.7-4.2-0.9
	c-1.7-0.3-3.5-0.5-5.2-0.6C318.5,266.3,316.2,266.4,313.7,266.4z M259.8,302.7c-1.5,0-2.7-0.1-3.8,0c-3.2,0.3-6.3,0.7-9.5,1
	c-3.2,0.3-6.3,0.2-9.4-1.2c-0.1,1-0.3,1.9-0.3,2.7c-0.1,6.3-0.1,12.6-0.1,18.9c0,3.3,0.2,6.5,0.3,9.8c0.1,2.9,0.1,5.7,0.2,8.6
	c0,0.4,0.2,0.8,0.4,1.5c1.1-1.9,1.7-3.6,1.9-5.4c0.1-1.5,0.6-3,1.1-4.4c0.9-2.5,2-5,3.1-7.5c1.4-3.4,3.1-6.4,5.9-8.9
	c0.8-0.7,1.3-1.8,1.6-2.8c0.6-1.8,1.3-3.7,3-4.4c3.1-1.3,4.4-3.6,5-6.7C259.4,303.7,259.5,303.5,259.8,302.7z M234.2,201.4
	c-0.1,0.9-0.2,1.2-0.2,1.5c-0.3,7.3-1.9,14.3-4.9,21c-0.9,2-1.7,4.1-2.4,6.2c-0.7,2.1-1.2,4.2-1.8,6.6c3.8,0.9,7.3,1.8,10.7,2.6
	c0.5,0.1,1.3-0.3,1.6-0.7c1.8-2.1,3.5-4.3,4.2-7.1c0.9-3.2,1.5-6.5,1.3-9.9c-0.2-2.8-0.3-5.6-0.5-8.3c0-0.5-0.1-1-0.3-1.4
	C240.1,208,237.6,204.7,234.2,201.4z M240.2,746.7c2.2,1,3.3,2.7,3.7,4.8c0.3,1.3,1,2,2.2,2.2c2.2,0.3,4.3-2,3.7-4.2
	c-0.1-0.5-0.3-0.9-0.6-1.3c-1.1-2.3-2.2-4.5-3.5-7.1c-7.2-0.3-14.7-1.2-22.1,0.4c-2.6,0.6-4.9,1.9-7,3.4c-1.1,0.8-1.5,1.8-1,2.9
	c0.8,1.9,1.6,3.8,2.7,5.5c1.4,2.1,3.5,2.1,5.4,0.5c0.2-0.2,0.6-0.3,0.7-0.4c-0.4-1.3-1.6-2-1.1-3.7c0.8,1.2,1.2,2.1,1.8,2.9
	c0.5,0.6,1,1.3,1.6,1.5c1.2,0.5,2.5,0.3,3.6-0.5c0.5-0.4,1.5-0.8,1.8-0.6c1.6,1.1,3,0.7,4.2-0.3c3.7,1.7,5,1.6,6.8-0.8
	C242.2,750.2,241.2,748.4,240.2,746.7z M216.4,189.2c-0.6,1.3-1,2.2-1.4,3.2c-1.8,4.5-3.7,9-5.5,13.5c-2.8,7.2-4.8,14.7-6.6,22.2
	c-0.7,2.8-0.5,5.3,0.9,7.9c0.9-0.1,1.9-0.1,2.8-0.2c1-0.1,2-0.3,3-0.5c0-0.5,0.1-0.8,0.1-1.1c-0.1-6.3,1.7-12,4.5-17.6
	c2.5-4.9,4.4-10.1,6.3-15.2c1-2.8,1.5-5.8,2.3-8.8C220.6,191.3,218.6,190.3,216.4,189.2z M386.4,732.7c2.2,0.4,3.4,2.1,5.1,3.1
	c0.6-1.6,0.6-2-0.8-3c-3.2-2.4-6-5.2-8.4-8.4c-8.3,1.7-15.7,4.6-19.7,12.8c5.6,4.9,11.7,7.8,19.1,7.5c1.6-3.3,1.4-3.8-1.6-5.4
	c-1.1-0.6-2.2-1.2-3.3-2c-0.7-0.4-1.4-0.9-1.7-2.1c1.8,0.8,3.3,1.5,4.8,2.2c2.3,1,4.5,2.1,5.1,4.8c2.3-0.6,5.4-2.8,6.3-4.4
	C388.8,736.1,387.6,734.9,386.4,732.7z M315,125.7c1.9,5.6,2.4,8.1,1.8,11.7c-0.7,3.9-1.3,7.8-0.8,11.8c0.2,1.5-0.2,3-0.4,4.5
	c0,0.5-0.1,1-0.1,1.6c0.5,0,0.8,0.1,1.1,0.1c0.4,0,0.8,0,1.2-0.1c5.4-1.1,9.5-3.9,12.3-8.7c1.8-3,2-8.1-1.6-11.1
	c-1.2-1-2.3-1.9-3.6-2.8c-2.8-2-5.6-4-8.4-6C316.3,126.5,315.8,126.2,315,125.7z M246.9,208.1c-0.5-3.5-1.2-7.1-1.6-10.7
	c-0.3-2.5-1.1-4.8-2.6-6.8c-1.1-1.5-2.4-2.6-4.2-3c-4.3-1.1-8.7-1.9-13.2-1.1c-2.2,0.4-4.4,0.5-6.6,0.7c-0.6,0.1-1.2,0.4-1.8,0.7
	c0.6,0.7,1.2,1,1.7,1.2c1.9,0.8,3.9,1.4,5.7,2.5c6.5,3.9,12.3,8.5,16.7,14.8c0.3,0.4,0.8,0.8,1.3,0.9
	C243.7,207.6,245.1,207.8,246.9,208.1z M227,170.8c0.7-0.2,1.3-0.3,1.7-0.5c2.3-1,4.5-0.7,6.7,0.1c6.1,2.3,11.8,5.2,16.8,9.4
	c1,0.9,2.2,1.7,3.4,2.2c3.1,1.3,6.3,2.4,9.4,3.5c0.3,0.1,0.7,0.1,1.2,0.2c-0.1-0.3-0.1-0.5-0.2-0.6c-4.1-4.4-7.3-9.4-10.4-14.6
	c-0.9-1.4-2.5-2.4-3.8-3.5c-1.7-1.3-3.8-1.5-5.9-1.7c-4.7-0.4-9.4-0.3-14,1.1C229.8,167.1,228.1,168.4,227,170.8z M211.2,739.9
	c0.2,0.1,0.5,0.3,0.7,0.4c0.3-0.5,0.4-1.1,0.8-1.5c2.7-2.6,5.6-4.8,9.3-5.6c4-0.9,8-1.3,12.1-0.9c1.7,0.2,3.4,0.3,5.5,0.4
	c-1.3-2.2-2.4-3.9-3.3-5.7c-2.5-4.9-7.4-6.4-11.9-5.4c-5.8,1.3-9.8,5-13.4,9.4c-1,1.3-1.3,2.7-0.8,4.3c0.3,0.9,0.3,1.9,0.5,2.8
	C210.8,738.8,211,739.4,211.2,739.9z M363,709.2c-1.3-1.9-2.4-3.4-3.4-5.1c-0.6-1.1-1.5-1.4-2.6-1.3c-0.7,0.1-1.4,0.3-2.1,0.5
	c-9.3,3.2-14.9,10-18.4,18.8c-0.6,1.4-0.7,3.1-1,4.7c2.4,0.6,4.6,1.2,7,1.8C345.1,717.5,352.9,712.2,363,709.2z M363.3,710.6
	c-2.7,1.3-5.7,2.6-8.7,4.1c-4.6,2.2-7.5,6-9.4,10.7c-0.2,0.5-0.3,1-0.4,1.6c3.4,1.7,6.6,3.4,9.9,5.1c1.5-3.7,3.6-6.7,6.5-9.3
	c2.9-2.6,6.5-3.9,10-5.4C368.5,715.1,366,713,363.3,710.6z M212.2,745.9c0.3-0.1,0.4,0,0.4-0.1c0.2-0.2,0.5-0.4,0.7-0.6
	c3.7-4.1,8.4-6.4,13.9-6.4c5.5,0,11,0.4,16.5,0.6c0.5,0,1.1,0,1.8,0c-1.6-3-4-4.7-7-4.9c-4.2-0.4-8.4-0.5-12.6-0.3
	c-5,0.2-9.2,2.5-12.7,5.9c-0.8,0.8-1.5,1.8-2.4,2.8C211.2,743.9,211.7,745,212.2,745.9z M360.8,736.1c0.3-0.3,0.5-0.5,0.6-0.7
	c3.8-6.5,9.5-10.4,16.8-12.1c0.6-0.1,1.3-0.4,2.2-0.8c-1.1-0.6-2-0.9-2.5-1.5c-2.6-3-5.4-2.2-8.3-0.7c-0.3,0.1-0.6,0.3-0.9,0.4
	c-5,1.9-8.5,5.5-11.5,9.7c-0.7,0.9-1.5,1.9-1.1,3.4C357.5,734.5,359.1,735.3,360.8,736.1z M232.9,721.2c0.1-0.1,0.2-0.3,0.3-0.4
	c-0.7-0.6-1.5-1.1-2.1-1.8c-1.7-2.1-3.8-2.4-6.2-2c-3.7,0.6-7.3,1.7-10.6,3.6c-1.2,0.7-2.5,1.5-3.4,2.6c-2.7,3.6-4.4,7.7-6.2,11.9
	c0.4,0.3,0.7,0.6,1,0.8c0.3,0.2,0.6,0.4,1.1,0.6c0.4-0.7,0.8-1.2,1-1.7c2.4-5.4,6.6-9.1,11.5-12.1c2.8-1.7,6-2.7,9.3-2.3
	C230.2,720.4,231.5,720.9,232.9,721.2z M244.1,217c0.2,4,0.5,8-0.3,12c-0.8,4.2-3.1,7.6-5.6,10.8c1.8,0.9,3.4,1.5,4.7,2.5
	c1.4,1,2.6,2.2,4,3.5C248.5,235.8,248.8,226.2,244.1,217z M328,210.6c-0.3-2.4-0.7-4.1-0.8-5.9c-0.1-2.5-1.6-3.9-3.7-4.8
	c-2.2-1-4.5-1.3-7-0.7c-0.5,2.9-0.3,6-2.6,8.8C318.7,208.8,323.5,207.7,328,210.6z M337.1,716.2c-1.9-1.5-3.7-2.8-5.5-4.3
	c-1.8-1.5-3.5-3-5.5-4.7c-0.2,1-0.4,1.5-0.4,2.1c-0.1,1.5-0.1,3-0.1,4.5c-0.1,3.6,2.9,8.4,8.7,8.5
	C335.2,720.3,336.1,718.4,337.1,716.2z M328.5,699.8c-0.2,0.1-0.3,0.1-0.5,0.2c-0.2,1.8-1,3.8-0.5,5.3c0.5,1.6,2.2,2.8,3.6,4
	c2.2,1.9,4.1,4.1,6.9,5.6c0.9-1.3,1.8-2.5,2.7-3.8C335.3,708.5,331.5,704.6,328.5,699.8z M325.5,198.9c-0.6-3.3-4.3-7-8.9-9.1
	c0,2.5,0,5.1,0,7.9C319.8,197.5,322.7,197.5,325.5,198.9z M242.9,208.5c2,5,4,10.1,5.9,15.1c-0.2-3.4-0.5-6.8-1-10.2
	C247.4,211,245.2,208.9,242.9,208.5z M383.5,744.3c0.9,0.2,1.2,0.3,1.5,0.3c3.6-0.5,7-1.7,10-3.8c1.8-1.3,2.1-2.7,0-3.8
	c-0.3-0.1-0.5-0.3-0.9-0.5c-0.5,0.7-0.9,1.4-1.5,2c-1.9,2.3-3.6,4.9-7.3,4.7C384.9,743.1,384.4,743.7,383.5,744.3z M250.6,223.1
	c0.1,0,0.3,0,0.4,0c0.4-2.9,0.9-5.9,1.3-8.8c0.3-2.1-0.4-2.6-3-2.6C249.7,215.5,250.1,219.3,250.6,223.1z M204.7,720
	c-0.6,3.8-0.6,7.1,0.2,10.5c1.1-1.7,1.9-3.5,2.6-5.3c0.2-0.5-0.1-1.2-0.4-1.7C206.5,722.4,205.8,721.5,204.7,720z M297.9,111.4
	c1.1,1.5,2.2,3.1,3.4,4.6c0.9-0.8,1.7-1.4,2.4-2.1C302.4,111.8,300,112,297.9,111.4z M210.1,741.6c-0.4-2-0.8-3.7-1.2-5.7
	c-0.4,1-0.7,1.6-1,2.2C208.6,739.2,209.3,740.3,210.1,741.6z M344.5,727.8c-0.9,1.6,0.2,1.7,0.9,2.1c0.7,0.3,1.4,0.6,2.1,0.8
	c0.1-0.1,0.1-0.3,0.2-0.4C346.7,729.5,345.7,728.7,344.5,727.8z"/>
<path class="st0" d="M296.6,602.7c-0.4-1.5-0.8-3-1.3-4.6c-0.1,0.2-0.2,0.3-0.2,0.4c-0.4,1.8,1.3,3.6,0,5.3
	c-1.1,1.4-2.4,2.8-3.7,4.1c-4.6,4.5-10,7.4-16.7,7.1c-1.7-0.1-3.4-0.1-5-0.3c-4.2-0.4-7.7-2.5-11.2-5.2c0.9-7,1.6-14.1,2.7-21.2
	c2-13.4,3.7-26.9,3.7-40.5c0-9.7,0.4-19.5,0.5-29.2c0-3.2-0.2-6.3-0.3-9.8c-0.4,11.7-0.8,23.1-1.2,34.5c-0.5,14.7-1.7,29.3-3.9,43.8
	c-1.1,7.2-2.1,14.5-1.9,21.9c0.1,4.6-1.6,5.3-5.4,5.5c-0.6,0-1.3,0-1.9-0.1c-1.5-0.2-3-0.3-4.5-0.8c-4.2-1.3-8.3-2.8-12.5-4.2
	c-2.3-0.8-4.3-2.1-5.8-4c-2.6-3.3-5.8-4.2-9.8-3.2c-2.1,0.6-4.2,0.9-6.2,1.7c-4.4,1.6-8.6,1-12.8-0.9c-1.7-0.8-3.2-1.7-4.8-2.6
	c3.5-10.4,4.9-21.2,6.9-31.8c-0.2,0.3-0.5,0.7-0.6,1c-2.4,7.9-5,15.8-6.4,24c-0.2,0.9-0.5,1.8-0.8,2.8c-0.8,3-2.9,4.3-5.8,4.5
	c-3.4,0.3-6.4-0.8-9.6-2.1c1-4.2,1.9-8.2,2.9-12.2c2.7-10.6,6.8-20.8,10.2-31.2c5-15.5,10.1-30.9,15-46.5c2.3-7.1,4.2-14.4,6.3-21.6
	c0.3-0.9,0.4-1.8,0.6-2.7c-0.2,0-0.3-0.1-0.5-0.1c-0.3,0.9-0.6,1.8-0.9,2.7c-3.8,12.3-7.5,24.6-11.5,36.8
	c-5.6,17.2-11.5,34.3-17.2,51.5c-2.3,6.8-4.1,13.8-5.2,20.9c-0.1,0.5-0.2,0.9-0.4,1.6c-1.6-0.7-3.2-1.3-4.7-1.9
	c-0.9-0.3-1.8-0.7-2.7-1c-3-1-4.4-2.7-4.1-5.8c0.5-4.7,1.1-9.5,2.2-14.2c4.5-18.5,9.4-37,13.8-55.5c3.8-16.2,8.4-32.1,13.3-48
	c4.6-15,10.2-29.7,16-44.3c3.2-8.2,5.7-16.6,7.6-25.2c3-13.5,6.6-26.8,12.3-39.4c2.3-5,4.7-10,7-15c0.7-1.6,1.5-3.2,2.1-4.6
	c4.4,1.3,8.7,2.6,12.9,3.9c10.5,3.2,21.1,4,32,2.9c4-0.4,8.1-0.5,12.2-0.7c0.7,0,1.4,0,2.3,0c0,6.5,0,12.8,0,19.1c0.2,0,0.3,0,0.5,0
	c0.1-6.3,0.2-12.7,0.4-19.2c10.5-1.1,21.2,0.8,31.9-0.1c0.6,2.4,1.2,4.8,1.7,7.2c1.5,7.1,3.2,14.2,4.4,21.3
	c1.2,6.9,1.9,13.9,2.7,20.9c1.2,9.4,2.4,18.8,3.6,28.3c2.1,17,5.5,33.9,9.5,50.5c1.9,8,4.6,15.8,6.8,23.7c1.9,6.9,4.3,13.5,6.9,20.1
	c4,10.2,7.4,20.6,9.5,31.3c1,5.4,1.6,10.9,2,16.4c0.2,2.5-0.2,5.1-0.5,7.6c-0.1,1-0.7,2.2-1.3,3c-4.2,5.3-9.5,9.4-15.4,12.7
	c-0.2,0.1-0.4,0.1-0.8,0.2c-0.1-0.3-0.2-0.6-0.2-0.9c-0.9-10.1-1.5-20.2-2.7-30.3c-0.8-6.7-2.3-13.3-3.6-20
	c-0.4-2.1-0.8-4.2-1.2-6.3c-0.2,0-0.3,0-0.5,0c0.1,0.9,0.1,1.8,0.2,2.6c1.1,8.8,2.4,17.5,3.4,26.3c0.6,5.6,0.8,11.3,1.3,16.9
	c0.3,3.7,0.6,7.3,0.9,11c0.2,2.3-0.7,3.9-2.8,4.7c-3.6,1.4-7.1,2.8-10.8,3.9c-3.4,1-6.8,0.4-10.2-0.1c-0.8-0.1-1.6-0.2-2.4-0.3
	c-3.8-0.8-7.2-0.1-10.6,1.8c-4.5,2.5-9.4,2.2-14.2,1.3c-0.9-0.2-1.7-0.4-2.6-0.6C302,601.6,302,601.6,296.6,602.7z M290.1,558.5
	c0-2.2,0-4.4,0-6.6c-0.1-5.8-0.3-11.7-0.2-17.5c0.4-14.8,1.1-29.7,1.5-44.5c0.2-10.5,0.1-21.1-0.1-31.6c-0.1-6.6-0.5-13.2-0.7-19.9
	c0-1.5,0.2-3,0.7-4.4c1.3-3.3,3.1-6.3,4.2-9.6c3-9.1,5.7-18.3,8.4-27.5c1.8-6.1,3.3-12.3,3.8-18.7c0.2-3,0.3-6-0.1-9
	c-0.3,0.9-0.4,1.9-0.4,2.8c-0.1,2.2,0,4.5-0.5,6.7c-1.4,6.2-2.7,12.5-4.5,18.6c-3.4,11.7-7.2,23.3-10.8,35c-0.1,0.5-0.4,0.9-0.6,1.3
	c-0.5-3.1-0.6-6.1-0.8-9.1c-0.2-2.9-0.5-5.9-0.8-8.8c-0.4-2.9-0.9-5.8-1.3-8.7c-0.3,0.9-0.4,1.8-0.3,2.7c0.4,7.6,1,15.1,1.3,22.7
	c0.5,12.3,0.8,24.6,1.1,36.9c0.5,16.7,0.4,33.3-0.3,50C289,532.4,288.7,545.5,290.1,558.5z M266.1,352c-0.2,0-0.4,0-0.6,0
	c-1.3,15.1-2.5,30.2-3.8,45.4c0.2,0,0.4,0,0.7,0.1C264,382.3,266.8,367.3,266.1,352z M330.2,393.5c-2.9-14.4-5.7-28.8-10.1-42.9
	C322.2,365.3,326.4,379.4,330.2,393.5z M317.3,547.8c1.3,13.4,3.6,26.7,7.6,39.6c0.1-0.4,0.2-0.8,0.1-1.2c-3-11.7-5.3-23.5-7-35.4
	C317.8,549.8,317.5,548.8,317.3,547.8z M224.4,576.8c-2.1,3.3-5.6,16.8-5.3,19.5C221,589.6,222.7,583.2,224.4,576.8z M247,359.6
	c0.2,0,0.4,0.1,0.6,0.1c0.8-3.1,1.6-6.2,2.4-9.3c-0.2,0-0.4-0.1-0.6-0.1C248.3,353.3,247.6,356.4,247,359.6z M290.4,564.3
	c0,0,0.1-0.1,0.1-0.1c0-0.8,0-1.6,0-2.4c0,0-0.1,0-0.1,0C290.4,562.6,290.4,563.5,290.4,564.3z M261.8,399.7c-0.1,0-0.1,0-0.2,0
	c0,0.3,0,0.5,0,0.8c0,0,0.1,0,0.1,0.1C261.7,400.3,261.8,400,261.8,399.7z"/>
<path class="st0" d="M232.2,122.6c-3.4-2.7-6.3-5.6-8.7-8.8c-3-4-5.6-8.3-7.8-12.9c-2.3-4.9-3.2-10-2.7-15.4
	c0.7-9.1,3.9-17,10.1-23.8c4.9-5.4,11.2-8.4,18-10.3c7.8-2.1,15.6-1.6,23.1,1c8.3,2.8,16.6,5.7,24.7,9c12.6,5.1,24.7,11.1,35.7,19.4
	c4.5,3.4,9.1,6.5,13.5,9.9c2.2,1.7,4.1,3.8,6,5.8c4.4,4.8,7,10.4,8.1,16.8c1.2,6.7-0.8,12.2-6.6,15.9c-3.5,2.3-7.4,4-11.7,4.9
	c-0.2-0.5-0.4-1-0.6-1.5c-1.9-4.4-3.7-8.8-5.8-13.1c-3.5-7.2-7.9-13.9-12.3-20.5c-2.7-4.1-5.2-8.2-7.8-12.3
	c-1.1-1.9-2.5-3.5-4.3-4.7c-7.1-4.9-14.8-8.4-23.3-10.2c-4.1-0.8-8.1-0.5-12.1,0.4c-3.2,0.7-6.3,1.7-9.4,2.7
	c-5.8,1.9-9.2,6-10.8,11.8c-0.5,1.8-1.3,3.6-2,5.3c-3.3,7.9-6.7,15.9-10.1,23.8C234.2,118.1,233.2,120.3,232.2,122.6z"/>
<path class="st0" d="M284,331.8c4.6,0.7,9.2,1.5,13.9,2.2c3.8,0.5,7.6,0.8,11.4,1.2c5.2,0.6,10.3,0.4,15.5,0c2.3-0.2,4.6,0,7.1,0
	c0.3,3.4,0.6,6.5,0.8,9.6c0.1,1.6-0.6,2.3-2.3,2.4c-2,0.2-4,0.2-6,0.2c-7-0.1-14-0.4-21.1-0.3c-7.7,0.2-15.3,0.8-22.9,1.2
	c-6.9,0.4-13.7,0.1-20.4-1.6c-6.3-1.5-12.5-3.1-18.6-5.2c-0.5-2.4-0.1-4.5,1-6.5c1.1-2.1,2-4.3,2.8-6.6c1.3-3.5,3.1-6.6,6-9.1
	c0.9-0.7,1.6-1.9,1.9-2.9c0.7-2.4,1.9-4.2,4.2-5.1c1.9-0.8,2.8-2.3,3-4.2c0.1-0.7,0.2-1.4,0.3-2.4c0.6,0.5,1,0.7,1.2,1.1
	c1.6,2.3,3.8,3.9,6.4,4.9c4.8,1.8,9.7,3.7,14.9,4.4c2.9,0.4,5.5,0.1,7.8-2c1.3-1.2,3-1.4,4.7-1.4c2.4-0.1,4.8-0.3,7.2-0.4
	c4-0.2,6.9-1.8,8.2-5.8c0.1-0.2,0.2-0.4,0.5-0.8c0.7,0.1,1.6,0.1,2.4,0.4c3.5,1.3,7.2,1.4,10.8,1.9c2.1,0.3,2,0.3,2.4,2.2
	c0.4,2.1,0.9,4.2,1.3,6.3c0.3,1.3,0.5,2.7,0.6,4c0.3,3.6,0.7,7.1,2.3,10.5c0.8,1.8,0.8,2.2,0.4,4.2c-4.3-0.9-8.7-0.7-13.1-0.4
	c-7.1,0.4-14.2-0.6-21.2-1.2c-4.4-0.4-8.9-0.8-13.3-1.1C284,331.5,284,331.6,284,331.8z"/>
<path class="st0" d="M257.5,159.3c-3.9,0.4-7.6,0.9-11.2,1.1c-4,0.2-7.9-0.4-11.6-2.4c-5.7-3-7.9-7.2-7.2-13.5
	c0.7-6.5,2.4-12.6,5-18.6c5.3-12.5,10.5-25,15.7-37.5c0.7-1.8,1.2-3.7,2.1-5.3c0.7-1.3,1.7-2.5,2.8-3.5c2.4-2.2,5.5-3.3,8.6-4.1
	c3.3-0.8,6.7-1.5,10.1-1.9c3.4-0.4,6.8-0.1,10.2,0.8c6.3,1.8,12.3,4.3,18,7.7c3.4,2,5.8,4.7,7.7,8.2c3.4,6.2,7.4,12.1,11,18.2
	c3.6,6.3,7,12.7,10.4,19.1c1,1.8,1.6,3.8,2.3,5.8c0.2,0.5,0.1,1,0.2,2c-1.3-1.2-2.1-2.1-3.1-2.8c-2.6-1.9-5.3-3.8-8-5.6
	c-3.6-2.4-7-5.1-9.8-8.3c-0.3-0.4-0.7-0.7-0.9-1.1c-2-3.9-5.7-5.6-9.4-7.2c-4.2-1.8-7.7-4.5-10.3-8.3c-1.1-1.5-2-3.1-3.2-4.5
	c-1.8-2.2-3.8-4.3-5.8-6.3c-2-2-4.3-3.8-6.3-5.9c-2.7-2.7-2.6-2.8-2.5-6.3c-0.5,0.9-1.2,1.7-1.5,2.6c-1.6,4.9-4.1,9.5-6.6,14
	c-2.4,4.3-4.8,8.5-7.3,12.6c-1.2,2-2.6,3.8-3.9,5.7c-2.8,3.9-5.6,7.8-6.3,12.7c-0.8,5.3-1.8,10.6-0.9,15.9c0.6,3.4,1.9,6.5,4.6,9
	C252.7,153.9,254.9,156.5,257.5,159.3z"/>
<path class="st0" d="M271.1,83.9c3.1,3.1,6.1,6.1,9,9.1c2.2,2.3,4.3,4.7,6.1,7.3c2.3,3.3,4.9,6.3,8.2,8.6c2,1.4,3,3.4,4.2,5.5
	c0.9,1.5,1.7,3,2.7,4.6c0.3-1.6,1.3-2.4,2.5-3c1.4-0.6,2.4-0.5,3,0.9c1.9,4,2.3,8.1,0.5,12.2c-1,2.3-3.3,3-5.5,3.4
	c-1.4,0.2-2,0.8-2.6,2c-2.9,6.3-6.4,12.1-11.7,16.7c-3.2,2.8-6.4,5.5-10.5,6.9c-4.6,1.5-8.8,0.9-12.6-2.1c-0.3-0.2-0.5-0.4-0.8-0.6
	c-10-8.3-11.8-11.1-15.5-24.7c-0.9-3.4-0.4-6.3,1.2-9.1c1.2-2.1,2.4-4.3,3.9-6.3c7-9.1,12.2-19.2,17-29.6
	C270.6,85.1,270.9,84.4,271.1,83.9z M286.1,116.4c0-0.2,0-0.3,0-0.5c-0.8-0.1-1.7-0.4-2.5-0.4c-3.6,0-7,0.7-9.3,3.9
	c-0.3,0.4-0.3,0.9-0.6,1.9c1.5-1,2.5-1.8,3.8-2.6c0.2,2.4,0.7,4.2,2.6,5.2c0.2,0.1,0.1,0.9,0.2,1.4c2.4,0.5,5.7-0.5,6.3-1.8
	c-0.2-0.3-0.5-0.5-0.7-0.8c1.4-2.4,1.4-2.5,0.8-4.8c-0.7,1.6-1.3,3-2,4.4c-0.7,1.4-1.7,1.7-3.1,0.9c-1.4-0.8-2.4-2.1-2.9-3.6
	c-0.3-0.9-0.1-1.5,0.8-2c1.5-0.7,3-1.4,4.8-1.1C284.9,116.5,285.5,116.4,286.1,116.4z M252.8,125.9c1,0.2,2,0.4,2.9,0.7
	c1.7,0.6,2.4,2.1,1.6,3.7c-0.4,0.8-1,1.4-1.6,2c-0.3,0.4-0.7,0.7-1.2,1.2c1.4,0.5,2-0.2,2.6-0.9c1-1.4,1.4-2.9,1.5-4.7
	c0-1.2-0.3-1.8-1.1-2.3c-2.5-1.4-5-2-7.7-0.4c-0.2,0.1-0.2,0.4-0.4,0.6c0.7,0.1,1.3,0.1,1.9,0.2c0,3.3,0.4,4.1,2.4,4.7
	C252.7,129.4,251.6,128,252.8,125.9z M270.2,112.3c4.5-0.1,9.2-1.2,10.8-2.4C276.8,109.4,272.5,110.3,270.2,112.3z M277.1,142.6
	c-3.6,1-7,1.9-10.3,2.8C270.3,145.9,274.8,144.7,277.1,142.6z M268.7,147.2c2,1,4.7,0.5,6.7-1.4
	C273.1,146.3,270.8,146.8,268.7,147.2z M258.5,123.4c-0.6-2.3-0.8-2.5-2.8-3.2C256.7,121.5,257.6,122.5,258.5,123.4z"/>
<path class="st0" d="M312.9,605.9c1.6-0.1,2.8,0,3.9-0.3c2.3-0.6,4.7-1.1,6.8-2.2c3.1-1.6,6.2-1.9,9.5-1.4c2.2,0.3,4.4,0.7,6.6,0.8
	c2.4,0.1,4.8-0.2,7.4-0.3c0,0.6,0.1,1.4,0.1,2.1c-0.2,13.9-0.3,27.8-0.5,41.6c-0.1,9,0.7,18,2.2,26.9c1,6,2.3,11.9,3.8,17.8
	c0.7,2.7,2,5.2,3.1,7.8c0.3,0.7,0.7,1.4,1.1,2.3c-6.3,1-10.9,4.6-15.2,8.8c-4.9-2.3-8.5-6-11.7-10.1c-0.4-0.6-0.8-1.1-0.4-2
	c2.3-4.5,2.3-9.4,1.9-14.3c-0.4-6.3-1.3-12.6-2.8-18.7c-3.7-14.8-6.4-29.9-10.9-44.6c-0.9-2.8-2-5.5-3-8.3
	C314.1,610,313.5,608,312.9,605.9z"/>
<path class="st0" d="M228.1,715.3c-3.8,0.1-7.3,0.8-10.6,2.2c-3.2,1.4-6.6,2.5-8.7,5.6c-2.2-2.4-3.4-6.8-2.6-9.7
	c0.9-3.1,1.8-6.1,2.7-9.2c1.2-4.2,2-8.4,2-12.7c0.1-15.1,0.8-30.2-0.3-45.2c-0.5-6.4-1.2-12.9-1.7-19.3c-0.5-6.5-0.8-13-1.2-19.7
	c1.8-0.5,3.5-1,5.2-1.5c2.5-0.6,5-1.1,7.5-1.7c1.8-0.4,3.3,0.1,4.6,1.3c0.4,0.4,0.8,0.8,1.2,1.2c2,2.5,4.7,4.1,7.6,5.2
	c1.2,0.4,2.4,0.9,3.4,1.3c-0.7,4.9-1.5,9.6-2,14.3c-0.9,7.1-1.5,14.3-2.4,21.4c-1,8.2-2,16.3-3.1,24.4c-1.4,10.5-2.7,21.1-2.7,31.7
	c0,2.5,0.4,5.1,0.7,7.6C227.8,713.4,227.9,714.3,228.1,715.3z"/>
<path class="st0" d="M220.1,386.4c-0.1-0.5-0.2-0.9-0.3-1.4c-0.9-9.9-2.3-19.6-4.1-29.4c-0.4-2.1-0.7-4.3-0.6-6.4
	c0.2-7.5,0.4-15,0.9-22.5c0.2-3.2,1.4-6.4,1.8-9.6c0.9-7,1.8-14.1,2.4-21.1c1-11.5-0.2-23,0-34.4c0-2.9-0.5-5.8-0.8-8.8
	c0-0.5,0-1.1,0-1.8c2.6,0.3,4.9,0.7,7,1.9c4.9,2.7,9.6,5.6,14.4,8.4c0.9,0.5,1.4,1.1,1.2,2.3c-1.4,7.4-2.8,14.7-4.2,22.1
	c-0.8,4.3-1.7,8.6-2.4,12.9c-0.2,0.9-0.2,1.9-0.2,2.9c-0.4,10.3-0.3,20.6,0.7,30.8c0.4,4.4,0.3,8.8,0.3,13.1c0,1.1-0.3,2.2-0.8,3.2
	c-5.9,11.9-10.9,24.1-14.5,36.9c-0.1,0.3-0.2,0.6-0.3,0.9C220.4,386.5,220.3,386.5,220.1,386.4z"/>
<path class="st0" d="M241.3,279.1c5,2.4,10.1,2.8,15.2,2.9c3.9,0.1,7.7,0.7,11.5,2c8.7,3,17.5,3.2,26.4,0.7c1.6-0.5,3.2-1.1,4.6-1.9
	c2.2-1.2,4.6-1.7,7.1-1.6c1.5,0.1,3,0,4.7,0c0.1,0.9,0.3,1.5,0.3,2.1c-0.1,5.1-0.1,10.2-0.4,15.3c-0.2,2.3-0.9,4.7-1.6,6.9
	c-0.7,2.2-2.2,3.5-4.5,3.7c-3,0.3-6,0.6-9,0.8c-2.4,0.1-4.6,0.7-6.4,2.3c-1.1,1-2.5,1.4-4,1.3c-1.3-0.1-2.6-0.1-3.8-0.4
	c-4.1-1.2-8.2-2.5-12.3-3.9c-2.9-1.1-5.2-3.1-6.7-5.8c-0.9-1.8-2.4-2.5-4.3-2.4c-2.1,0.2-4.1,0.4-6.2,0.6c-2.7,0.2-5.4,0.4-8.1,0.6
	c-1.9,0.2-3.6-0.4-5.2-1.3c-1-0.5-1.4-1.2-1.2-2.3c0.6-3,1-6,1.6-8.9C239.6,286.3,240.5,282.9,241.3,279.1z"/>
<path class="st0" d="M259.1,171.8c7.3,4.5,13.6,10.6,21.6,14.1c-3-3.3-6.9-5.4-10.4-8.4c2.7-3.2,2.1-7,1.9-10.7
	c-0.1-1.9-0.3-3.8-0.5-5.9c3.8-0.6,7.6-1.3,10.7-3.6c3-2.2,5.8-4.8,8.7-7.2c-0.7,3.7-0.7,3.7-4,5.5c2.6,2.1,5.1,4.1,8.4,4.8
	c0.3,2.8,0.6,5.4,1,8c0.9,6.1,2.9,11.8,7.6,16.1c1.9,1.7,3.9,3.3,6.4,4.2c0.5-0.5,0.6-1.4,1.7-1.1c1,0.4,1.9,0.8,2.3,1.9
	c0.3,0.8,0.6,1.7,0.6,2.5c-0.1,3.2-0.2,6.4-0.5,9.5c-0.3,2.8-1.8,5.1-3.9,6.9c-1.7,1.4-3.5,2.2-5.7,1.7c-3.6-0.7-7.2-1.2-10.8-1.9
	c-2.7-0.5-4.8-2.1-6.7-4c-2.7-2.7-5.3-5.5-7.9-8.3c-1.8-1.9-3.6-3.8-5.5-5.7c-5.1-4.9-9.8-10.1-13.8-15.9c-0.5-0.7-0.9-1.5-1.4-2.2
	C258.9,172,259,171.9,259.1,171.8z"/>
<path class="st0" d="M315.7,245.6c0.1-1.5,0.2-2.5,0.2-3.9c-2-0.3-4-0.7-5.9-0.9c-2.9-0.3-5.8-0.9-8.6-2c-4.8-1.9-10-2.1-15.1-2.2
	c-11.7-0.2-23.2,1.5-34.4,5c-0.9,0.3-1.8,0.6-3,1c0-0.8-0.1-1.4,0-2c0.4-3.6,0.5-7.1,1.7-10.6c0.8-2.2,1.2-4.5,1.6-6.7
	c0.2-1.3,0.9-2.1,2.1-2.6c2.6-1.2,5.4-1.3,8.2-1.6c5.7-0.5,11.3,0.5,16.9,1.1c9.9,1.1,19.8,2.4,29.7,3.3c5.2,0.5,10.5,0.2,15.8,0.3
	c1.4,0,2.7,0.2,4.1,0.2c1.4,0,2.3,0.7,2.9,1.8c0.7,1.4,1.5,2.8,1.9,4.3c1,3.7,1.8,7.4,2.6,11.2c0.1,0.4,0,0.9,0,1.6
	c-6-1.5-11.4,0.9-17,1.9C318.3,245,317.2,245.3,315.7,245.6z"/>
<path class="st0" d="M312,262.7c-0.4,5.8-0.7,11.2-1.1,16.8c-1.5-0.1-2.8-0.2-4.1-0.3c-2.7-0.1-5.4,0.1-7.9,1.5
	c-6.7,3.6-13.9,4.1-21.2,3.3c-3.4-0.4-6.7-1.3-10-2.3c-3.3-1-6.6-1.7-10.1-1.7c-5-0.1-10-0.2-14.9-1.5c-0.3-0.1-0.6-0.2-1.2-0.3
	c0.6-4.9,1.1-9.8,1.7-14.8c2.4,0.3,3.7-1,4.1-3.2c0.2-1,0.9-1.4,1.9-1.4c7.2,0,14.3-0.3,21.3,2.1c2.3,0.8,4.8,1,7.3,1.2
	c3.4,0.2,6.9,0.2,10.3,0.2c4.1,0.1,8.1-0.4,12-1.6c1.6-0.5,3.1-0.4,4.7,0.1C307.2,261.6,309.6,262.1,312,262.7z"/>
<path class="st0" d="M315.1,243.2c-0.9,6.1-1.8,11.9-2.7,18c-2.3-0.5-4.4-0.8-6.3-1.5c-2.4-0.8-4.6-0.7-7-0.1c-4,1-8,1.4-12.1,1
	c-3.5-0.4-7-0.4-10.5-0.7c-1.7-0.2-3.5-0.4-5.2-0.9c-6.6-2.3-13.4-2.5-20.3-2c-0.9,0.1-1.7,0-2.5,0c-0.1-0.2-0.3-0.4-0.3-0.5
	c0.7-3.5,0.2-7,0.3-10.4c0.1-2.1,0.2-2.2,2.3-2.6c7-1.3,14.1-2.9,21.2-3.9c8.3-1.1,16.7-1.4,25,0.2c1,0.2,2.1,0.4,3,0.8
	c4.2,1.9,8.6,2.2,13.1,2.5C313.5,243.1,314.1,243.1,315.1,243.2z"/>
<path class="st0" d="M396.8,740.7c-0.1,3.5-0.3,6.5-0.4,9.5c0,0.7-0.2,1.4-0.1,2.1c0.3,2.4-1,3.7-2.8,4.8c-3.5,2-7.4,2.4-11.3,2.7
	c-3.7,0.3-7.3-0.2-10.9-1.2c-5.9-1.7-11.7-3.6-17.2-6.4c-4.5-2.3-9.2-4.4-14-6.3c-3.7-1.5-7.5-2.6-11.3-3.8
	c-1.5-0.5-2.2-1.2-2.4-2.8c-0.7-5.5-1.5-10.9-2.1-16.4c-0.2-1.4,0.1-2.9,0.1-4.7c1.6,1.4,2.8,2.8,4.3,3.7c1.5,0.9,3.4,1.4,5.2,2
	c0,0.6,0,1.3,0,2.2c-3.7-0.8-6.5-2.8-9-5.3c0.4,2.3,1.8,3.9,3.7,4.9c2.1,1.1,4.3,2.1,6.6,2.7c7.5,1.9,14.6,5.1,21.8,7.9
	c2.8,1.1,5.4,3,7.9,4.9c5.2,3.8,10.9,5.5,17.3,5.3C387.5,746.4,392.3,744.6,396.8,740.7z"/>
<path class="st0" d="M252.8,219.9c0.4-4.8,0.7-9.5,1.1-14.1c-0.2,0-0.4,0-0.6-0.1c-0.2,1.5-0.5,3.1-0.7,4.6c-1.2,0-2.3,0-3.6,0
	c-0.9-4.6-1.9-9.3-3-14.4c1.9,0.3,3.8,0.4,5.5,0.9c0.9,0.3,1.7,1.2,2.2,2c0.6,0.9,1.3,1.6,2.2,2.1c3.7,2.1,7.7,3.1,11.8,3.7
	c5.5,0.8,11.1,1.5,16.6,1.9c2.1,0.2,3.8,0.5,5.5,1.7c1.1,0.7,2.5,1.2,3.8,1.4c3.7,0.8,7.5,1.5,11.3,2c2.3,0.3,4.6-0.3,6.6-1.6
	c0.7-0.5,1.8-0.8,2.6-0.7c3.1,0.3,6.2,0.8,9.2,1.4c1.1,0.2,2.2,0.8,3.3,1.4c1.3,0.7,2,1.7,2.1,3.2c0.2,1.6,0.7,3.2,1.1,5.2
	c-2.9-2.3-5.6-4.5-8.4-6.7c0.3,1.6,0.9,2.2,3.4,4.4c1.3,1.2,2.6,2.5,3.9,3.7c-0.1,0.2-0.1,0.3-0.2,0.5c-1.2,0-2.3,0-3.5,0
	c-9.7,0.3-19.3-0.6-28.8-2.1c-5.7-0.9-11.6-1.4-17.3-2.1c-2.3-0.3-4.6-0.5-6.9-0.8c-5-0.5-10-0.1-15,0.8
	C255.7,218.6,254.5,219.3,252.8,219.9z"/>
<path class="st0" d="M284.8,204.8c-8.3-1.2-16.4-1.3-24.2-3.7c-2.5-0.8-4.8-1.6-6.2-4.1c-0.8-1.5-2.6-2-4.2-1.8
	c-3.1,0.4-4.7-0.5-5.3-3.9c-0.5-2.6-2.7-4.4-5.4-5.2c-5-1.5-10-1.9-15.1-1.1c-2,0.3-3.9,0.7-6.1,1.1c0.2-0.7,0.3-1.2,0.6-1.6
	c1.7-2.9,3.3-5.8,5-8.7c2-3.4,6-5,9.8-3.9c0.8,0.2,1.5,0.5,2.2,0.8c5.4,2.4,10.7,5,15.3,8.8c1.6,1.3,3.5,2.3,5.4,3
	c3,1.2,6.2,2.1,9.3,3.1c0.2,0.1,0.5,0.3,0.7,0.2c2-0.6,3,0.9,4.1,2.1c4.5,4.6,9,9.3,13.5,13.9C284.3,204,284.4,204.2,284.8,204.8z"
	/>
<path class="st0" d="M312.3,303.1c0.3-6.6,0.7-12.9,1-19.4c0.9,0.2,1.8,0.4,2.7,0.5c4.7,0.6,9.3,1.3,14,1.8c3.2,0.4,6.2-0.3,9.1-1.4
	c0.8-0.3,1.6-0.6,2.6-1c0.2,0.6,0.3,1.1,0.4,1.6c1,4.3,2,8.5,3,12.8c0.9,4.2,0.4,5-3.5,6.8c-3,1.4-6,1.2-9.2,0.9
	c-3.7-0.4-7.5-0.7-11.2-1.2C318.2,304.2,315.1,303.6,312.3,303.1z"/>
<path class="st0" d="M250.9,756.1c0.1,2.9,0.2,5.6,0.4,8.3c0.1,1.3,0.2,2.6,0.1,3.8c0,1.8-0.8,3.1-2.6,3.6c-0.9,0.3-1.8,0.5-2.8,0.7
	c-5.9,0.7-11.7,1.3-17.6,0.4c-6.3-1-11.1-4.1-14-10c-1.6-3.3-3.5-6.5-5.2-9.7c-0.5-0.9-0.8-1.4-2.2-1c-1.7,0.5-4.5-2.5-4.5-4.3
	c0.1-5.5,0.1-11,0.1-16.5c0-0.4,0-0.9,0.3-1.4c0.4,1.4,0.6,2.9,1.1,4.3c0.4,1.2,1,2.3,1.7,3.4c1,1.6,2.1,3.2,3,4.8
	c2,3.6,4.1,7.2,5.9,10.9c2.1,4.3,5.8,6,10.3,6.3c6.4,0.4,12.8,0,19.1-1c1.8-0.3,3.6-1.3,5.4-2C249.9,756.7,250.3,756.4,250.9,756.1z
	"/>
<path class="st0" d="M263.8,50.5c2.4-1,4.4-1.8,6.3-2.6c3.1-1.4,6.3-2.7,9.4-4.1c2.8-1.3,5.4-1,8,0.7c2.8,1.8,5.6,3.6,8.3,5.6
	c6.8,4.9,13.5,9.9,20.2,14.9c2.1,1.6,4.1,3.3,6,5.1c2.8,2.7,4.2,6.3,5.6,10.4c-1.1-0.7-1.8-1.1-2.4-1.6
	c-13.3-9.8-28.1-16.8-43.7-21.9C275.8,55.1,270,53.3,263.8,50.5z"/>
<path class="st0" d="M210.5,250.3c1.9,0.1,3.8,0.3,5.7,0.4c1.1,0.1,1.7,0.4,1.3,1.7c-2.7-0.3-5.5-0.6-8.2-0.9
	c-1.2-0.1-2.4-0.2-3.6-0.4c-1.3-0.2-2.1-0.9-2.5-2.2c-0.6-2-1.4-3.9-2.1-5.8c-0.4-1.1-0.7-2.2-0.1-3.5c0.6-1.3,1.4-2.2,3.1-2.2
	c7.3-0.2,14.7-0.5,21.8,1.6c3.3,1,6.6,1.9,9.9,2.8c1.3,0.3,2.7,0.5,3.9,0.9c2.5,0.9,4.4,2.6,5.8,4.8c0.9,1.4,1.4,2.9,1.2,4.5
	c-0.2,2.1-0.5,4.1-0.8,6.2c-0.2,1.6-0.3,1.6-1.5,3c-0.6-0.4-1.2-0.7-1.7-1.1c-4.5-3.4-9.4-6.1-14.4-8.5c-5.5-2.7-11.3-2.9-17.3-2.1
	c-0.2,0-0.4,0.2-0.6,0.4C210.5,250.1,210.5,250.2,210.5,250.3z M226.2,247c6.3,0.3,11.6,3.5,17.3,5.3
	C238.6,247.7,232.9,245.8,226.2,247z"/>
<path class="st0" d="M311.3,148.1c0.9-0.7,1.8-1.5,2.8-2.3c0.2,0.8,0.4,1.4,0.4,2c0.1,3.8-0.9,7.2-2.6,10.5
	c-0.5,0.9-1.2,1.4-2.3,1.6c-1.2,0.2-2.4,0.4-3.6,0.4c-5.6,0-10.9-1.3-15.9-4.2c4.8-2.5,9.2-5.2,10.3-10.9c-4,5.1-5.4,6.4-8.1,7.3
	c0.3-1.7,0.7-3.4,1-5.1c0.1-0.4,0.3-0.9,0.6-1.3c2.7-3.1,4.3-6.9,6-10.6c0.2-0.4,0.4-0.8,0.6-1.2c3.3-0.4,6-1.7,8-4.3
	c2-2.7,1.5-5.9,1.5-9.4c1.8,1.8,3.3,3.1,3.9,5.4c1.8,6.8,1.1,13.2-2.2,19.4c-0.4,0.7-0.7,1.4-1.1,2.1
	C311.1,147.9,311.2,148,311.3,148.1z"/>
<path class="st0" d="M224.1,193.3c3.4,1.9,6.1,4.2,8.7,6.7c0.9,0.8,0.5,2,0.4,2.9c-0.9,5.6-1.9,11.2-3.9,16.5
	c-1.2,3-2.4,6.1-3.5,9.2c-0.9,2.5-1.5,5-2.3,7.5c-4-0.4-8-0.7-12.3-1.1c0-1.2-0.1-2.5,0-3.7c0.5-4.7,1.8-9.2,4.1-13.4
	c3.3-6.1,5.8-12.4,7.6-19.1C223.3,197.1,223.6,195.3,224.1,193.3z"/>
<path class="st0" d="M313.6,264.8c0.7-6.1,1.4-11.9,2.1-17.8c0.9-0.2,1.9-0.4,2.8-0.6c3.5-0.6,7.1-1.2,10.6-1.6c2-0.2,4.1-0.1,6.2,0
	c1.4,0.1,2.1,0.9,2.2,2.3c0.5,3.7,1,7.4,1.5,11.1c0.1,0.4,0.1,0.8,0.1,1.2c0,1.1,0.5,2.6,0,3.2c-1,1.2-2.5,2.2-4,2.9
	c-1.8,0.9-3.9,0.8-5.9,0.2c-4-1.2-8-1.3-12.1-0.8C316.2,265.2,315.1,264.9,313.6,264.8z"/>
<path class="st0" d="M313.7,266.4c2.4,0,4.7-0.1,7,0c1.7,0.1,3.5,0.3,5.2,0.6c1.4,0.2,2.8,0.7,4.2,0.9c3.1,0.4,6,0,8.6-2.1
	c0.2-0.2,0.5-0.3,1.1-0.6c0.6,5.5,1.2,10.9,1.8,16.2c-4.5,2.2-8.9,3.3-13.8,2.3c-3-0.5-6-0.7-9-1c-0.3,0-0.6,0-1,0
	c-4.5-0.3-4.8-0.6-4.7-5.1c0.1-3.5,0.3-7,0.4-10.5C313.5,266.9,313.7,266.5,313.7,266.4z"/>
<path class="st0" d="M259.8,302.7c-0.3,0.7-0.5,1-0.5,1.3c-0.6,3-1.9,5.4-5,6.7c-1.7,0.7-2.4,2.7-3,4.4c-0.4,1-0.9,2.1-1.6,2.8
	c-2.8,2.4-4.5,5.5-5.9,8.9c-1,2.5-2.1,5-3.1,7.5c-0.5,1.4-1,2.9-1.1,4.4c-0.2,1.9-0.8,3.5-1.9,5.4c-0.2-0.7-0.4-1.1-0.4-1.5
	c-0.1-2.9-0.1-5.7-0.2-8.6c-0.1-3.3-0.3-6.5-0.3-9.8c0-6.3,0-12.6,0.1-18.9c0-0.9,0.2-1.7,0.3-2.7c3.1,1.4,6.3,1.5,9.4,1.2
	c3.2-0.3,6.3-0.7,9.5-1C257.2,302.6,258.3,302.7,259.8,302.7z"/>
<path class="st0" d="M234.2,201.4c3.4,3.3,5.9,6.6,7.7,10.5c0.2,0.4,0.3,0.9,0.3,1.4c0.2,2.8,0.3,5.6,0.5,8.3
	c0.2,3.4-0.4,6.6-1.3,9.9c-0.8,2.8-2.4,5-4.2,7.1c-0.3,0.4-1.1,0.8-1.6,0.7c-3.5-0.8-6.9-1.6-10.7-2.6c0.6-2.3,1.1-4.5,1.8-6.6
	c0.7-2.1,1.5-4.2,2.4-6.2c3-6.7,4.7-13.7,4.9-21C234,202.6,234.1,202.3,234.2,201.4z"/>
<path class="st0" d="M240.2,746.7c1,1.8,2.1,3.5,3.1,5.2c-1.8,2.4-3.1,2.6-6.8,0.8c-1.3,1-2.6,1.3-4.2,0.3c-0.3-0.2-1.3,0.2-1.8,0.6
	c-1.2,0.8-2.4,1-3.6,0.5c-0.6-0.2-1.2-0.9-1.6-1.5c-0.6-0.8-1.1-1.7-1.8-2.9c-0.4,1.8,0.8,2.4,1.1,3.7c-0.1,0.1-0.4,0.2-0.7,0.4
	c-1.9,1.6-4,1.5-5.4-0.5c-1.2-1.7-2-3.6-2.7-5.5c-0.5-1.1-0.1-2.1,1-2.9c2.2-1.5,4.4-2.9,7-3.4c7.4-1.6,14.9-0.7,22.1-0.4
	c1.3,2.6,2.4,4.9,3.5,7.1c0.2,0.4,0.4,0.9,0.6,1.3c0.7,2.1-1.4,4.5-3.7,4.2c-1.2-0.2-2-0.9-2.2-2.2
	C243.4,749.4,242.4,747.6,240.2,746.7z M230.3,749.6c0.2,1.4,0.2,1.4,1.7,2.1C231.2,750.8,230.8,750.2,230.3,749.6z M235.6,751.3
	c0.1,0,0.2-0.1,0.3-0.1c-0.1-0.4-0.3-0.8-0.4-1.2c-0.1,0-0.2,0.1-0.4,0.1C235.3,750.5,235.5,750.9,235.6,751.3z"/>
<path class="st0" d="M216.4,189.2c2.2,1.2,4.2,2.2,6.4,3.3c-0.8,3-1.3,6-2.3,8.8c-1.9,5.1-3.9,10.3-6.3,15.2
	c-2.8,5.6-4.6,11.3-4.5,17.6c0,0.3-0.1,0.6-0.1,1.1c-1,0.2-2,0.4-3,0.5c-0.9,0.1-1.9,0.1-2.8,0.2c-1.4-2.6-1.5-5.2-0.9-7.9
	c1.8-7.5,3.8-15,6.6-22.2c1.7-4.5,3.6-9,5.5-13.5C215.3,191.4,215.8,190.5,216.4,189.2z"/>
<path class="st0" d="M386.4,732.7c1.2,2.1,2.4,3.4,4.8,5c-0.9,1.7-3.9,3.9-6.3,4.4c-0.5-2.8-2.8-3.8-5.1-4.8c-1.5-0.7-3-1.4-4.8-2.2
	c0.3,1.2,1,1.7,1.7,2.1c1.1,0.7,2.2,1.3,3.3,2c2.9,1.6,3.1,2.1,1.6,5.4c-7.4,0.3-13.5-2.7-19.1-7.5c4-8.2,11.4-11,19.7-12.8
	c2.4,3.2,5.2,6,8.4,8.4c1.4,1.1,1.4,1.4,0.8,3C389.8,734.8,388.6,733.1,386.4,732.7z M388.2,739.7c-1.3-2.2-2.9-3.5-5-3.8
	C384.7,737.4,385.7,739.1,388.2,739.7z"/>
<path class="st0" d="M315,125.7c0.8,0.5,1.3,0.8,1.7,1.1c2.8,2,5.6,3.9,8.4,6c1.2,0.9,2.4,1.9,3.6,2.8c3.6,2.9,3.3,8.1,1.6,11.1
	c-2.8,4.7-6.9,7.6-12.3,8.7c-0.4,0.1-0.8,0.1-1.2,0.1c-0.3,0-0.6,0-1.1-0.1c0-0.6,0.1-1.1,0.1-1.6c0.1-1.5,0.6-3.1,0.4-4.5
	c-0.5-4,0.1-7.9,0.8-11.8C317.5,133.8,316.9,131.3,315,125.7z"/>
<path class="st0" d="M246.9,208.1c-1.8-0.3-3.3-0.5-4.7-0.9c-0.5-0.1-1-0.5-1.3-0.9c-4.4-6.3-10.2-10.9-16.7-14.8
	c-1.8-1-3.8-1.7-5.7-2.5c-0.6-0.2-1.1-0.5-1.7-1.2c0.6-0.2,1.2-0.6,1.8-0.7c2.2-0.3,4.4-0.4,6.6-0.7c4.5-0.7,8.9,0,13.2,1.1
	c1.8,0.4,3.1,1.6,4.2,3c1.5,2,2.3,4.3,2.6,6.8C245.7,201,246.4,204.6,246.9,208.1z"/>
<path class="st0" d="M227,170.8c1.1-2.4,2.8-3.7,5.1-4.4c4.6-1.4,9.2-1.6,14-1.1c2.1,0.2,4.2,0.4,5.9,1.7c1.4,1,3,2.1,3.8,3.5
	c3.1,5.1,6.3,10.2,10.4,14.6c0.1,0.1,0.1,0.3,0.2,0.6c-0.4-0.1-0.8-0.1-1.2-0.2c-3.1-1.1-6.3-2.2-9.4-3.5c-1.2-0.5-2.4-1.3-3.4-2.2
	c-5-4.2-10.8-7.1-16.8-9.4c-2.2-0.8-4.5-1.1-6.7-0.1C228.2,170.5,227.7,170.6,227,170.8z"/>
<path class="st0" d="M211.2,739.9c-0.2-0.6-0.3-1.1-0.5-1.7c-0.2-0.9-0.2-1.9-0.5-2.8c-0.5-1.6-0.2-3,0.8-4.3
	c3.6-4.3,7.7-8.1,13.4-9.4c4.4-1,9.3,0.5,11.9,5.4c0.9,1.8,2,3.6,3.3,5.7c-2.1-0.2-3.8-0.2-5.5-0.4c-4.1-0.4-8.1,0-12.1,0.9
	c-3.7,0.8-6.6,3-9.3,5.6c-0.4,0.4-0.5,1-0.8,1.5C211.6,740.2,211.4,740.1,211.2,739.9z"/>
<path class="st0" d="M363,709.2c-10.1,3-17.9,8.4-20.4,19.5c-2.4-0.6-4.6-1.2-7-1.8c0.3-1.6,0.4-3.2,1-4.7
	c3.4-8.9,9.1-15.7,18.4-18.8c0.7-0.2,1.4-0.4,2.1-0.5c1.1-0.1,1.9,0.2,2.6,1.3C360.6,705.7,361.7,707.2,363,709.2z"/>
<path class="st0" d="M363.3,710.6c2.8,2.4,5.2,4.5,7.9,6.8c-3.5,1.5-7.1,2.8-10,5.4c-2.8,2.5-5,5.6-6.5,9.3
	c-3.3-1.7-6.6-3.4-9.9-5.1c0.1-0.5,0.2-1.1,0.4-1.6c1.9-4.7,4.8-8.4,9.4-10.7C357.5,713.2,360.6,711.8,363.3,710.6z"/>
<path class="st0" d="M212.2,745.9c-0.5-1-1-2-1.4-3c0.9-1,1.6-2,2.4-2.8c3.6-3.4,7.8-5.7,12.7-5.9c4.2-0.2,8.4-0.1,12.6,0.3
	c3,0.3,5.5,1.9,7,4.9c-0.8,0-1.3,0-1.8,0c-5.5-0.2-11-0.6-16.5-0.6c-5.5,0-10.2,2.2-13.9,6.4c-0.2,0.2-0.5,0.4-0.7,0.6
	C212.6,745.9,212.5,745.9,212.2,745.9z"/>
<path class="st0" d="M360.8,736.1c-1.7-0.8-3.2-1.6-4.8-2.3c-0.4-1.5,0.4-2.4,1.1-3.4c3-4.2,6.5-7.8,11.5-9.7
	c0.3-0.1,0.6-0.2,0.9-0.4c2.9-1.5,5.7-2.3,8.3,0.7c0.5,0.6,1.5,0.9,2.5,1.5c-0.9,0.3-1.5,0.6-2.2,0.8c-7.3,1.7-12.9,5.6-16.8,12.1
	C361.3,735.6,361.1,735.8,360.8,736.1z"/>
<path class="st0" d="M232.9,721.2c-1.4-0.3-2.7-0.7-4.1-0.9c-3.4-0.3-6.5,0.6-9.3,2.3c-4.9,3-9.1,6.7-11.5,12.1
	c-0.3,0.6-0.6,1.1-1,1.7c-0.4-0.3-0.8-0.4-1.1-0.6c-0.3-0.2-0.6-0.5-1-0.8c1.7-4.3,3.4-8.4,6.2-11.9c0.8-1.1,2.1-1.9,3.4-2.6
	c3.3-1.8,6.9-3,10.6-3.6c2.4-0.4,4.6-0.1,6.2,2c0.5,0.7,1.4,1.2,2.1,1.8C233.1,720.9,233,721,232.9,721.2z"/>
<path class="st0" d="M244.1,217c4.7,9.2,4.5,18.8,2.8,28.8c-1.4-1.3-2.6-2.5-4-3.5c-1.4-0.9-2.9-1.5-4.7-2.5
	c2.5-3.3,4.8-6.6,5.6-10.8C244.6,225,244.3,221,244.1,217z"/>
<path class="st0" d="M328,210.6c-4.5-2.9-9.3-1.8-14.1-2.6c2.3-2.8,2.1-5.9,2.6-8.8c2.5-0.6,4.8-0.2,7,0.7c2,0.9,3.6,2.3,3.7,4.8
	C327.3,206.5,327.6,208.2,328,210.6z"/>
<path class="st0" d="M216.9,754.7c0.3,0.1,0.6,0.2,0.8,0.4c1.7,1.3,3.5,1.4,5.4,0.5c0.8-0.4,1.6-0.9,2.7-0.4c2,1,4,0.7,5.9-0.8
	c1.6,0.6,3.3,1.4,4.9-0.2c2.6,1.4,5.1,1.3,7.1-1c1.1,0.5,2.1,1.2,3.1,1.3c0.9,0.1,1.9-0.6,2.9-1c0.6,1.3,0.6,1.8-0.8,2.4
	c-1.5,0.7-3.1,1.3-4.8,1.5c-6.9,1.1-13.9,2-21,1.1c-2.2-0.3-4.2-0.9-5.7-2.6C217.2,755.6,217.1,755.1,216.9,754.7L216.9,754.7z"/>
<path class="st0" d="M337.1,716.2c-1,2.2-1.9,4.1-2.7,6.1c-5.8-0.1-8.8-4.9-8.7-8.5c0-1.5,0-3,0.1-4.5c0-0.5,0.2-1.1,0.4-2.1
	c2,1.7,3.7,3.3,5.5,4.7C333.4,713.4,335.2,714.8,337.1,716.2z"/>
<path class="st0" d="M328.5,699.8c3,4.8,6.8,8.7,12.2,11.3c-0.9,1.3-1.8,2.5-2.7,3.8c-2.8-1.4-4.7-3.6-6.9-5.6
	c-1.4-1.2-3.1-2.5-3.6-4c-0.5-1.5,0.3-3.5,0.5-5.3C328.2,699.9,328.3,699.9,328.5,699.8z"/>
<path class="st0" d="M325.5,198.9c-2.8-1.4-5.7-1.5-8.9-1.3c0-2.8,0-5.3,0-7.9C321.1,191.9,324.8,195.6,325.5,198.9z"/>
<path class="st0" d="M242.9,208.5c2.4,0.4,4.6,2.4,4.9,4.9c0.5,3.4,0.8,6.8,1,10.2C246.8,218.6,244.8,213.5,242.9,208.5z"/>
<path class="st0" d="M383.5,744.3c0.9-0.6,1.4-1.1,1.9-1.1c3.6,0.2,5.3-2.4,7.3-4.7c0.5-0.6,0.9-1.3,1.5-2c0.4,0.2,0.7,0.3,0.9,0.5
	c2.1,1.1,1.8,2.6,0,3.8c-3,2.1-6.4,3.3-10,3.8C384.7,744.6,384.4,744.4,383.5,744.3z"/>
<path class="st0" d="M250.6,223.1c-0.4-3.8-0.9-7.6-1.3-11.4c2.6-0.1,3.3,0.5,3,2.6c-0.4,3-0.8,5.9-1.3,8.8
	C250.9,223.1,250.7,223.1,250.6,223.1z"/>
<path class="st0" d="M204.7,720c1.1,1.5,1.8,2.4,2.4,3.4c0.3,0.5,0.6,1.3,0.4,1.7c-0.7,1.8-1.5,3.6-2.6,5.3
	C204.2,727.1,204.1,723.8,204.7,720z"/>
<path class="st0" d="M297.9,111.4c2.1,0.6,4.5,0.4,5.8,2.5c-0.8,0.7-1.5,1.3-2.4,2.1C300.1,114.5,299,113,297.9,111.4z"/>
<path class="st0" d="M216.9,754.7c-1.9-1.7-2.3-4.3-3.4-6.4c-0.1-0.2,0.3-0.6,0.5-0.9c0.3,0.2,0.6,0.4,0.9,0.6
	c0.1,0.1,0.1,0.5,0.1,0.7C215.6,750.7,216.3,752.7,216.9,754.7C216.9,754.7,216.9,754.7,216.9,754.7z"/>
<path class="st0" d="M210.1,741.6c-0.8-1.3-1.5-2.4-2.2-3.5c0.3-0.6,0.6-1.3,1-2.2C209.3,737.9,209.7,739.6,210.1,741.6z"/>
<path class="st0" d="M344.5,727.8c1.2,0.9,2.2,1.7,3.2,2.5c-0.1,0.1-0.1,0.3-0.2,0.4c-0.7-0.3-1.4-0.5-2.1-0.8
	C344.7,729.6,343.6,729.4,344.5,727.8z"/>
<path d="M290.1,558.5c-1.4-13.1-1.1-26.1-0.6-39.2c0.7-16.7,0.8-33.3,0.3-50c-0.3-12.3-0.6-24.6-1.1-36.9
	c-0.3-7.6-0.8-15.1-1.3-22.7c0-0.9,0-1.7,0.3-2.7c0.4,2.9,0.9,5.8,1.3,8.7c0.4,2.9,0.6,5.9,0.8,8.8c0.2,3,0.3,6,0.8,9.1
	c0.2-0.4,0.5-0.9,0.6-1.3c3.6-11.6,7.4-23.3,10.8-35c1.8-6.1,3.2-12.4,4.5-18.6c0.5-2.2,0.3-4.4,0.5-6.7c0.1-0.9,0.1-1.9,0.4-2.8
	c0.5,3,0.3,6,0.1,9c-0.5,6.4-2,12.6-3.8,18.7c-2.7,9.2-5.4,18.4-8.4,27.5c-1.1,3.3-2.9,6.4-4.2,9.6c-0.5,1.4-0.7,2.9-0.7,4.4
	c0.2,6.6,0.6,13.2,0.7,19.9c0.2,10.5,0.3,21.1,0.1,31.6c-0.3,14.8-1,29.7-1.5,44.5c-0.2,5.8,0.1,11.6,0.2,17.5
	C290.1,554.1,290.1,556.3,290.1,558.5z"/>
<path d="M266.1,352c0.7,15.3-2.1,30.3-3.7,45.4c-0.2,0-0.4,0-0.7-0.1c1.3-15.1,2.5-30.2,3.8-45.4C265.7,352,265.9,352,266.1,352z"/>
<path d="M330.2,393.5c-3.8-14.2-8-28.3-10.1-42.9C324.5,364.7,327.3,379.1,330.2,393.5z"/>
<path d="M317.3,547.8c0.2,1,0.6,2,0.7,3c1.7,11.9,4,23.7,7,35.4c0.1,0.4,0,0.8-0.1,1.2C320.8,574.5,318.5,561.3,317.3,547.8z"/>
<path d="M224.4,576.8c-1.7,6.4-3.5,12.9-5.3,19.5C218.8,593.6,222.3,580.1,224.4,576.8z"/>
<path d="M247,359.6c0.6-3.2,1.3-6.3,2.4-9.3c0.2,0,0.4,0.1,0.6,0.1c-0.8,3.1-1.6,6.2-2.4,9.3C247.4,359.6,247.2,359.6,247,359.6z"/>
<path d="M290.4,564.3c0-0.8,0-1.6,0-2.5c0,0,0.1,0,0.1,0c0,0.8,0,1.6,0,2.4C290.4,564.2,290.4,564.2,290.4,564.3z"/>
<path d="M261.8,399.7c0,0.3-0.1,0.6-0.1,0.9c0,0-0.1,0-0.1-0.1c0-0.3,0-0.5,0-0.8C261.7,399.7,261.7,399.7,261.8,399.7z"/>
<path d="M286.1,116.4c-0.6,0-1.2,0.1-1.8,0c-1.8-0.3-3.3,0.4-4.8,1.1c-0.9,0.4-1.1,1.1-0.8,2c0.5,1.6,1.5,2.8,2.9,3.6
	c1.4,0.8,2.4,0.6,3.1-0.9c0.7-1.4,1.3-2.8,2-4.4c0.6,2.3,0.6,2.4-0.8,4.8c0.2,0.3,0.5,0.5,0.7,0.8c-0.6,1.3-3.9,2.3-6.3,1.8
	c0-0.5,0.1-1.3-0.2-1.4c-1.9-1.1-2.4-2.9-2.6-5.2c-1.3,0.9-2.3,1.6-3.8,2.6c0.3-0.9,0.3-1.5,0.6-1.9c2.3-3.2,5.7-3.9,9.3-3.9
	c0.8,0,1.7,0.3,2.5,0.4C286.2,116.1,286.2,116.2,286.1,116.4z"/>
<path d="M252.8,125.9c-1.2,2.1-0.1,3.5,0.9,5.1c-2.1-0.6-2.4-1.4-2.4-4.7c-0.6-0.1-1.2-0.1-1.9-0.2c0.2-0.3,0.2-0.5,0.4-0.6
	c2.6-1.6,5.2-1.1,7.7,0.4c0.8,0.5,1.1,1.1,1.1,2.3c0,1.8-0.5,3.3-1.5,4.7c-0.6,0.8-1.2,1.5-2.6,0.9c0.5-0.5,0.9-0.8,1.2-1.2
	c0.6-0.7,1.2-1.3,1.6-2c0.8-1.6,0.1-3.1-1.6-3.7C254.7,126.3,253.7,126.1,252.8,125.9z"/>
<path d="M270.2,112.3c2.4-2,6.6-2.9,10.8-2.4C279.3,111.2,274.6,112.2,270.2,112.3z"/>
<path d="M277.1,142.6c-2.3,2.1-6.7,3.3-10.3,2.8C270.1,144.5,273.4,143.6,277.1,142.6z"/>
<path d="M268.7,147.2c2.1-0.5,4.5-0.9,6.7-1.4C273.4,147.7,270.7,148.3,268.7,147.2z"/>
<path d="M258.5,123.4c-0.9-1-1.7-2-2.8-3.2C257.6,120.9,257.8,121.2,258.5,123.4z"/>
<path d="M226.2,247c6.7-1.2,12.5,0.7,17.3,5.3C237.8,250.5,232.4,247.4,226.2,247z"/>
<path d="M230.3,749.6c0.5,0.6,0.9,1.2,1.7,2.1C230.5,751,230.5,751,230.3,749.6z"/>
<path d="M235.6,751.3c-0.1-0.4-0.3-0.8-0.4-1.2c0.1,0,0.2-0.1,0.4-0.1c0.1,0.4,0.3,0.8,0.4,1.2C235.9,751.2,235.7,751.3,235.6,751.3
	z"/>
<path d="M388.2,739.7c-2.5-0.6-3.5-2.3-5-3.8C385.3,736.3,386.9,737.5,388.2,739.7z"/>
</svg>
