<?xml version="1.0" encoding="utf-8"?>
<!-- Generator: Adobe Illustrator 19.0.0, SVG Export Plug-In . SVG Version: 6.00 Build 0)  -->
<svg version="1.1" id="图层_1" xmlns="http://www.w3.org/2000/svg" xmlns:xlink="http://www.w3.org/1999/xlink" x="0px" y="0px"
	 viewBox="0 0 595.3 841.9" style="enable-background:new 0 0 595.3 841.9;" xml:space="preserve">
<style type="text/css">
	.st0{fill:#FFFFFF;}
</style>
<path class="st0" d="M595.8,842.5c-198.4,0-396.7,0-595.1,0c0-280.6,0-561.1,0-841.7c198.4,0,396.7,0,595.1,0
	C595.8,281.4,595.8,561.9,595.8,842.5z M208.1,754.5c1.7,3.4,3.2,6.5,4.7,9.7c2.8,6,7.6,9.4,13.9,10.6c6.6,1.3,13.2,0.7,19.8-0.2
	c1.8-0.3,3.5-1,4.8-2.5c0.4-0.5,0.9-1.2,0.9-1.8c0.1-4.9,0.4-9.8,0.1-14.6c-0.2-4-0.9-7.9-3.7-11.2c-0.7-0.8-1.5-1.9-1.5-2.9
	c-0.2-2.9-1.9-4.6-4-6.2c-0.6-0.5-1.1-1.3-1.6-2c-0.6-0.9-1-1.8-1.7-2.6c-2.3-3.1-4.6-6.1-6.3-9.6c-0.6-1.3-1.6-2.6-2.7-3.6
	c-1-0.9-1.7-1.9-2-3.2c-0.4-1.8-0.9-3.6-0.9-5.4c-0.1-8.6,0.6-17.1,1.8-25.6c1.3-8.9,2.9-17.7,4-26.6c1.5-12.5,2.6-25,3.9-37.4
	c0.2-1.8,0.3-3.6,1.4-5.3c1.4,0.4,2.6,0.9,3.9,1.2c3.2,0.9,6.3,1.8,9.6,1.6c2.6-0.2,4.8-1,6.4-3.2c0.2-0.2,0.4-0.4,0.7-0.7
	c5,3.9,10.7,4.2,16.5,4.1c3.6-0.1,6.9-1.2,10-2.9c3.1-1.8,5.7-4,8-6.8c2.2-2.7,5.2-4,8.7-3.2c2.3,0.5,4.7,1.1,7,1.6
	c1.1,0.2,1.5,0.8,1.8,1.8c0.7,2.9,1.5,5.9,2.4,8.8c2.1,7.5,4.3,14.9,6.4,22.4c0.9,3.1,1.4,6.2,2.2,9.3c3.1,11.9,6.2,23.8,7.8,36.1
	c0.6,4.4,0,8.6-1.9,12.6c-0.2,0.4-0.4,1-0.8,1.1c-1.7,0.6-1.9,2.1-2.2,3.5c-0.3,1.9-0.2,3.9-0.8,5.6c-1.1,3.1-1.4,6.2-1.3,9.4
	c0,0.5-0.2,1.1-0.5,1.6c-1,2.1-1.3,4.3-1,6.5c0.6,4.5,1.4,9,1.9,13.5c0.5,4.2,2.6,6.7,6.7,7.7c2.3,0.6,4.6,1.5,6.8,2.4
	c5.2,2.3,10.4,4.5,15.5,7c5.1,2.5,10.5,4.4,15.9,5.8c9.7,2.6,19,2.5,27.6-3.4c0.5-0.4,1.1-1,1.1-1.6c0.6-4.8,1.2-9.7,0.6-14.6
	c-0.3-2.2-1.2-4.1-3.3-5.3c-0.4-0.2-0.8-0.7-1-1.2c-0.5-1.6-1.6-2.7-2.9-3.8c-2.4-2-4.8-4-7.2-6c-0.4-0.3-0.9-0.9-0.8-1.3
	c0.3-1.6-1-2-2-2.6c-1.5-0.9-3-1.8-4.5-2.7c-0.9-0.6-1.8-1.2-2.8-1.8c-2.7-1.7-5.4-3.4-8-5.3c-0.5-0.4-0.9-1.1-1.2-1.7
	c-0.6-1.1-1-2.4-1.9-3.3c-2.4-2.3-4.1-5-5.3-8.1c-1.2-3.1-2.7-6-3.6-9.1c-1.5-5.7-3.1-11.4-3.9-17.3c-0.9-7.6-1.8-15.2-1.6-22.9
	c0.3-13.4,0.4-26.7,0.5-40.1c0-2.3-0.2-4.6-0.3-7.1c0.9-0.3,1.7-0.6,2.5-0.9c2.3-1,4.6-1.9,6.8-3c0.9-0.4,1.8-1.2,2.3-2
	c0.6-1.2,1.5-1.7,2.7-2.2c6.6-2.7,12.1-6.7,16.3-12.5c1.5-2.1,2.1-4.4,2.3-6.9c0.5-7-0.4-13.9-1.7-20.7c-2-11.1-5.6-21.8-9.5-32.4
	c-2-5.3-4-10.6-5.7-16c-2.5-7.9-4.8-15.9-7-23.9c-5.3-20.2-9.1-40.7-11.5-61.4c-1.3-11.1-2.5-22.2-4.1-33.3
	c-1.7-12.4-4.6-24.5-8-36.5c-0.2-0.6-0.2-1.2-0.2-1.8c0-3.1,0-6.2,0-9.3c0-1.5-0.3-3-0.3-4.5c0-2.4-0.5-4.7-1.3-7
	c-0.7-2-1.4-4.2-1.3-6.3c0.2-4.2-1.8-7.9-2.2-12c0-0.2-0.2-0.4-0.4-0.8c-0.9,1.9-0.8,3.6-0.4,5.2c0.3,1.6,0.8,3.3,1,4.9
	c0.3,3.9,0.7,7.8,2.4,11.4c0.6,1.2,0.9,2.5,0.4,3.6c-3.5-0.1-6.9-0.2-10.2-0.2c-4.2,0-8.3,0.3-12.5,0c-6.9-0.4-13.9-1.2-20.8-1.8
	c-1.4-0.1-2.9-0.3-4.3-0.4c1.4,0.6,2.7,1,4.2,1.2c5.7,0.8,11.4,1.5,17.1,2.3c6.5,0.8,13.1,1.1,19.6,0.4c2.3-0.2,4.6,0,6.9,0.1
	c0.2,2,0.5,3.7,0.6,5.3c0.1,1.4,0.3,2.7,0.3,4.1c0,1.7-0.5,2.4-2.2,2.5c-1.7,0.2-3.5,0.4-5.3,0.2c-15-1-29.9,0-44.8,0.9
	c-5.4,0.4-10.9,0.5-16.2-0.7c-7.2-1.7-14.4-3.7-21.6-5.6c-0.5-0.1-1-0.4-1.5-0.6c-0.3-2.1-0.1-4,0.8-5.9c1.2-2.6,2.3-5.3,3.4-7.9
	c1.2-3.1,2.8-5.9,5.5-8c1.1-0.9,1.9-2,2.2-3.4c0.5-2.4,1.8-4,4.1-4.9c2-0.8,2.9-2.4,3.1-4.5c0.1-0.7,0.2-1.3,0.4-2.4
	c0.7,0.8,1,1.2,1.4,1.5c1.4,1.3,2.7,2.9,4.4,3.7c5.5,2.7,11.2,4.6,17.3,5.4c0.8,0.1,1.6,0.2,2.4,0c1.2-0.3,2.6-0.5,3.5-1.3
	c2.1-1.7,4.5-2.2,7.1-2.3c3-0.1,6-0.5,9-0.9c1.9-0.3,3.3-1.5,4.2-3.2c0.5-0.9,0.9-1.8,1.5-2.8c0.8,0.1,1.5,0.2,2.2,0.3
	c3.1,0.6,6.3,1.3,9.4,1.7c3.9,0.6,7.8,1,11.7,1.3c3.9,0.4,7.4-0.6,10.6-3c1.5-1.2,2.2-2.7,1.8-4.6c-0.2-1.2-0.4-2.4-0.7-3.5
	c-0.9-3.8-2.1-7.6-2.6-11.4c-1.3-9.7-2.2-19.5-3.4-29.3c-1-8.6-2.3-17.1-4.6-25.5c-0.4-1.3-0.8-2.6-1.4-3.8c-2.3-4.8-3.9-9.7-4.6-15
	c-0.5-4-1.2-8.1-2-12.1c-0.4-2.3-1.3-4.5-3.2-6.1c-3.2-2.7-6.6-5.3-10-7.9c-1.3-1-2.8-1.1-4.3-0.2c-0.3,0.2-0.7,0.3-1,0.4
	c-5.6-3.5-8.8-8.5-10.2-14.6c-0.7-2.8-1.3-5.6-1.8-8.4c-0.1-0.6-0.1-1.2-0.1-1.8c2.4,0.4,4.6,0.9,6.8,1.1c4.8,0.5,8.5-1.4,11.3-5.5
	c0,0,0.1-0.1,0.3-0.1c0.3,0,0.6,0,1,0c3.1,0.3,5.8-0.6,8.4-2.2c3.4-2.1,5.4-5.4,7.5-8.6c1.6-2.3,2-4.8,1.8-7.5c0-0.8,0-1.6,0-2.4
	c0.9-0.3,1.7-0.5,2.5-0.7c3.5-1,6.8-2.3,9.9-4.2c5.8-3.6,8.4-8.9,7.8-15.6c-0.6-7.4-3.5-13.9-8.3-19.5c-4-4.7-8.7-8.7-13.9-12.1
	c-1.2-0.8-2.1-1.7-2.5-3.3c-1.7-6.5-5-12-10.6-16C311.1,58,303.1,52,295,46.1c-1.7-1.3-3.6-2.4-5.4-3.6c-3.9-2.7-7.9-3.1-12.2-1
	c-4.8,2.4-9.7,4.6-14.5,7c-1.1,0.6-2.1,0.8-3.4,0.5c-5.9-1.1-11.7-1.5-17.6-0.1c-7.6,1.9-14.5,4.8-20,10.7
	c-5.5,5.9-9,12.8-10.5,20.7c-1.2,6-1.4,11.9,0.9,17.7c2.5,6.2,5.8,11.9,9.8,17.2c2.5,3.3,5.6,5.8,8.9,8.2c0,0.3,0,0.5,0,0.6
	c-0.3,0.7-0.5,1.3-0.8,2c-2.5,5.9-3.7,12-4.6,18.3c-1,6.4,4.8,12.9,8.8,15.4c0.3,0.2,0.6,0.3,0.9,0.4c4,1.4,8.2,1.9,12.5,1.8
	c4.1-0.1,8-1.2,12.1-1.9c0.5-0.1,0.9-0.5,1.6-1c-0.8-0.6-1.4-1-1.9-1.4c-1.6-1.2-3.3-2.3-4.7-3.7c-2-1.9-3.9-4-5.8-6
	c-0.4-0.4-0.8-0.7-1.3-1.1c2.4,5.1,6.1,8.9,10.8,12.4c-2.5,0.2-4.5,0.3-6.6,0.5c-4.3,0.3-8.7,0.8-12.9-0.4
	c-5.1-1.4-9.8-3.7-11.4-9.4c-0.5-1.9-0.5-4-0.3-5.9c0.6-6.8,2.5-13.3,5.4-19.5c1.5-3.2,2.8-6.4,4.2-9.7c3.1-7.4,6.2-14.8,9.2-22.1
	c1.1-2.7,2.4-5.3,3.1-8c0.5-2.3,1.6-4,3.4-5.3c1.4-1.1,3-2.2,4.7-2.8c9.9-3.9,19.9-5.1,30.1-0.9c6.6,2.7,13.1,5.6,18.4,10.6
	c0.2,0.2,0.5,0.3,1,0.6c-0.3-1.7-1.1-2.7-2.1-3.6c-0.9-0.8-1.8-1.6-2.8-2.2c-6.1-4-12.7-7.1-19.8-9c-3.8-1-7.6-1.3-11.4-0.7
	c-3.5,0.6-7.1,1.3-10.5,2.4c-2.4,0.7-4.8,1.9-6.9,3.2c-2.2,1.4-4.2,3.2-4.4,6c-0.1,1.6-0.7,2.9-1.4,4.2c-0.8,1.6-1.7,3.3-2.4,4.9
	c-3.4,7.9-6.7,15.7-10,23.6c-0.9,2.2-1.9,4.4-2.9,6.6c-8.6-6.5-15.6-18.6-18-25.3c-1-2.8-1.5-5.7-1.4-8.7c0.1-4.5,0.6-9,2.1-13.2
	c3.5-9.9,9.7-17.4,19.4-21.6c11.1-4.9,22.2-4.6,33.3-0.1c2.5,1,5,2,7.6,2.9c3.7,1.3,7.5,2.4,11.1,3.8c12.1,4.8,23.9,10.3,34.7,17.8
	c3.7,2.6,7.3,5.1,11,7.7c4.7,3.3,9,7,12.7,11.3c4.3,5,6.9,10.7,7.8,17.2c0.8,5.8-0.9,10.8-5.8,14.3c-3.3,2.4-7,4.1-11,5.2
	c-0.6,0.2-1.2,0.2-1.9,0.4c-2.7-8.4-6.9-15.9-11.2-23.5c-5.7-10-12.1-19.1-15.1-21.4c0.7,1.3,1.1,2.3,1.6,3.1c1.5,2.6,3,5.1,4.6,7.6
	c5,7.9,9.8,15.9,14,24.3c1.4,2.9,2.6,5.9,3.8,8.8c0.2,0.6,0.7,1.3,0,1.7c-1.7-1.4-3.2-2.8-4.9-4c-2.2-1.6-4.5-3.1-6.7-4.6
	c-4.4-3-8.5-6.2-11.3-10.9c-0.2-0.4-0.6-0.8-1-1.1c-2.4-1.4-4.8-2.8-7.2-4.2c-1-0.5-2-1-3-1.5c-3.4-2-6-4.7-8.2-7.9
	c-2-2.8-3.9-5.7-6.3-8.1c-3.7-3.7-7.7-7.1-11.7-10.7c-0.4,0.7-0.8,1.3-1.2,2.1c-5.3,11-11,21.6-18.3,31.5c-2.1,2.8-4.1,5.8-4.8,9.3
	c-0.8,4.3-1.2,8.7-1.5,13.1c-0.2,2,0.4,3.9,1.4,5.7c0-2.1-0.3-4.2-0.3-6.3c0-2.1-0.2-4.2,0.8-6.3c1.1,6.6,2.7,13,7.3,18.2
	c4.5,5,9.1,9.9,16.2,11.7c-0.6,5.2,1,10.5-1.5,15.9c-1.3-0.9-2.4-1.6-3.5-2.4c-2.6-1.8-5.2-3.7-8.2-4.9c-0.8-0.3-1.6-0.9-2-1.6
	c-1.9-2.7-4.6-3.8-7.7-4.4c-5.1-1-10-0.2-15,0.9c-3.4,0.8-5.8,2.7-7.6,5.7c-6.8,11-12.6,22.4-17.1,34.5c-2.8,7.7-5,15.5-6.9,23.4
	c-0.7,2.9-0.7,5.7,1.2,8.2c-0.3,0.3-0.5,0.4-0.6,0.6c-3,2.3-3.5,4.3-2.2,7.7c0.6,1.6,1.3,3.3,1.7,5c0.6,2.4,2.1,3.5,4.4,3.8
	c1.8,0.2,3.7,0.3,5.5,0.6c2.1,0.3,4.2,0.6,6.4,1c0.1,1.1,0.2,1.9,0.2,2.6c0.1,6.3,0.1,12.6,0.3,18.9c0.3,8.4,0.3,16.8-0.3,25.2
	c-0.5,6.9-0.9,13.7-2.7,20.4c-0.7,2.6-1.1,5.4-1.2,8c-0.3,7.2-0.3,14.4-0.4,21.6c0,1,0.2,1.9,0.3,2.9c1.4,11.2,2.9,22.4,4.2,33.5
	c0.3,2.7,0.7,5.5,0.1,8.1c-2.2,11.1-5.1,21.9-9.3,32.4c-2.4,5.9-4.8,11.9-7,17.9c-10.6,29.6-18.6,60-26.3,90.4
	c-2.4,9.5-4.5,19.1-6.8,28.7c-1.3,5.7-2.8,11.3-4,17c-0.5,2.6-0.8,5.2-1,7.8c-0.2,3.5,1.4,5.7,4.5,6.9c1.8,0.8,3.6,1.7,5.4,2.6
	c2.5,1.4,5.2,2.5,8,3.2c4.2,1.1,8.2,1.1,12-1.6c3.3,4.1,7.9,5.9,12.9,6.4c-1.1,10,0,19.6,0.9,29.2c0.9,9.3,2.2,18.6,2.3,28
	c0.1,7.9,0.2,15.8,0.3,23.7c0.1,6.2-0.8,12.3-2.7,18.2c-0.9,2.7-1.7,5.5-2.4,8.3c-0.4,1.5-0.7,2.9-1.1,4.4c-0.7,3.1-1.9,6.2-2.1,9.3
	c-0.4,6.9-0.3,13.7-0.4,20.6c0,0.7,0.3,1.7,0.8,2.1C203.8,752.8,205.5,754.5,208.1,754.5z"/>
<path d="M208.1,754.5c-2.6,0-4.2-1.7-6-3.2c-0.5-0.4-0.8-1.4-0.8-2.1c0-6.9,0-13.8,0.4-20.6c0.2-3.1,1.4-6.2,2.1-9.3
	c0.3-1.5,0.7-2.9,1.1-4.4c0.8-2.8,1.6-5.5,2.4-8.3c1.9-5.9,2.7-12,2.7-18.2c-0.1-7.9-0.2-15.8-0.3-23.7c-0.1-9.4-1.4-18.6-2.3-28
	c-0.9-9.6-2-19.3-0.9-29.2c-5.1-0.5-9.6-2.3-12.9-6.4c-3.8,2.7-7.8,2.7-12,1.6c-2.8-0.7-5.4-1.8-8-3.2c-1.7-1-3.5-1.9-5.4-2.6
	c-3.1-1.3-4.7-3.5-4.5-6.9c0.2-2.6,0.4-5.3,1-7.8c1.2-5.7,2.6-11.4,4-17c2.3-9.6,4.4-19.2,6.8-28.7c7.7-30.5,15.6-60.8,26.3-90.4
	c2.2-6,4.6-11.9,7-17.9c4.2-10.5,7.1-21.4,9.3-32.4c0.5-2.6,0.2-5.4-0.1-8.1c-1.3-11.2-2.8-22.4-4.2-33.5c-0.1-1-0.3-1.9-0.3-2.9
	c0.1-7.2,0.2-14.4,0.4-21.6c0.1-2.7,0.5-5.4,1.2-8c1.7-6.7,2.2-13.6,2.7-20.4c0.6-8.4,0.6-16.8,0.3-25.2c-0.2-6.3-0.2-12.6-0.3-18.9
	c0-0.8-0.1-1.6-0.2-2.6c-2.2-0.3-4.3-0.7-6.4-1c-1.8-0.2-3.7-0.3-5.5-0.6c-2.3-0.3-3.8-1.4-4.4-3.8c-0.4-1.7-1.1-3.3-1.7-5
	c-1.4-3.4-0.8-5.4,2.2-7.7c0.2-0.1,0.4-0.3,0.6-0.6c-1.9-2.5-1.9-5.2-1.2-8.2c1.9-7.9,4.1-15.8,6.9-23.4
	c4.5-12.1,10.3-23.6,17.1-34.5c1.8-2.9,4.2-4.9,7.6-5.7c4.9-1.1,9.9-1.9,15-0.9c3.1,0.6,5.8,1.7,7.7,4.4c0.5,0.7,1.3,1.3,2,1.6
	c3,1.2,5.6,3.1,8.2,4.9c1.1,0.8,2.2,1.5,3.5,2.4c2.5-5.3,0.9-10.6,1.5-15.9c-7.1-1.9-11.7-6.7-16.2-11.7c-4.6-5.1-6.2-11.5-7.3-18.2
	c-1.1,2-0.8,4.2-0.8,6.3c0,2.1,0.3,4.2,0.3,6.3c-1-1.8-1.5-3.7-1.4-5.7c0.4-4.4,0.7-8.8,1.5-13.1c0.6-3.5,2.7-6.5,4.8-9.3
	c7.2-9.8,13-20.5,18.3-31.5c0.3-0.7,0.8-1.4,1.2-2.1c4,3.6,8,7,11.7,10.7c2.4,2.4,4.4,5.3,6.3,8.1c2.2,3.2,4.9,5.9,8.2,7.9
	c1,0.6,2,1,3,1.5c2.4,1.4,4.8,2.8,7.2,4.2c0.4,0.2,0.7,0.7,1,1.1c2.8,4.7,6.9,7.9,11.3,10.9c2.2,1.5,4.5,3,6.7,4.6
	c1.7,1.2,3.2,2.6,4.9,4c0.7-0.4,0.2-1.2,0-1.7c-1.2-3-2.3-6-3.8-8.8c-4.2-8.4-9-16.4-14-24.3c-1.6-2.5-3.1-5.1-4.6-7.6
	c-0.5-0.9-0.9-1.8-1.6-3.1c3.1,2.2,9.4,11.4,15.1,21.4c4.3,7.5,8.5,15,11.2,23.5c0.7-0.1,1.3-0.2,1.9-0.4c4-1.1,7.7-2.7,11-5.2
	c4.9-3.6,6.6-8.5,5.8-14.3c-0.9-6.5-3.5-12.3-7.8-17.2c-3.8-4.3-8-8-12.7-11.3c-3.7-2.6-7.3-5.1-11-7.7c-10.8-7.5-22.6-13-34.7-17.8
	c-3.6-1.5-7.4-2.5-11.1-3.8c-2.6-0.9-5.1-1.9-7.6-2.9c-11.1-4.5-22.2-4.8-33.3,0.1c-9.8,4.3-15.9,11.8-19.4,21.6
	c-1.5,4.3-2,8.7-2.1,13.2c-0.1,3,0.4,5.9,1.4,8.7c2.3,6.7,9.4,18.7,18,25.3c1-2.2,2-4.4,2.9-6.6c3.4-7.9,6.7-15.7,10-23.6
	c0.7-1.7,1.6-3.3,2.4-4.9c0.7-1.3,1.3-2.6,1.4-4.2c0.2-2.7,2.3-4.6,4.4-6c2.2-1.3,4.5-2.5,6.9-3.2c3.4-1,7-1.8,10.5-2.4
	c3.8-0.6,7.6-0.3,11.4,0.7c7.1,1.9,13.7,5,19.8,9c1,0.7,2,1.4,2.8,2.2c1,0.9,1.8,1.9,2.1,3.6c-0.5-0.3-0.8-0.4-1-0.6
	c-5.3-5-11.7-7.9-18.4-10.6c-10.2-4.2-20.2-3-30.1,0.9c-1.7,0.7-3.3,1.7-4.7,2.8c-1.7,1.3-2.8,3-3.4,5.3c-0.6,2.8-2,5.4-3.1,8
	c-3,7.4-6.1,14.8-9.2,22.1c-1.4,3.2-2.8,6.5-4.2,9.7c-2.8,6.2-4.8,12.7-5.4,19.5c-0.2,2-0.2,4,0.3,5.9c1.6,5.7,6.3,8,11.4,9.4
	c4.2,1.2,8.6,0.7,12.9,0.4c2-0.1,4.1-0.3,6.6-0.5c-4.6-3.5-8.4-7.3-10.8-12.4c0.4,0.4,0.9,0.7,1.3,1.1c1.9,2,3.8,4.1,5.8,6
	c1.4,1.4,3.1,2.5,4.7,3.7c0.5,0.4,1.1,0.8,1.9,1.4c-0.7,0.5-1.1,0.9-1.6,1c-4,0.7-7.9,1.8-12.1,1.9c-4.3,0.1-8.4-0.4-12.5-1.8
	c-0.3-0.1-0.6-0.2-0.9-0.4c-4-2.5-9.8-9-8.8-15.4c0.9-6.3,2.2-12.4,4.6-18.3c0.3-0.7,0.6-1.3,0.8-2c0.1-0.1,0-0.3,0-0.6
	c-3.2-2.4-6.4-4.9-8.9-8.2c-4.1-5.3-7.3-11-9.8-17.2c-2.3-5.8-2.1-11.8-0.9-17.7c1.5-7.9,5-14.7,10.5-20.7c5.5-5.9,12.4-8.8,20-10.7
	c5.9-1.5,11.8-1,17.6,0.1c1.3,0.2,2.3,0,3.4-0.5c4.8-2.4,9.7-4.6,14.5-7c4.3-2.1,8.3-1.7,12.2,1c1.8,1.2,3.6,2.3,5.4,3.6
	c8.1,5.9,16,11.9,24.1,17.8c5.6,4,8.9,9.5,10.6,16c0.4,1.5,1.3,2.4,2.5,3.3c5.2,3.4,9.8,7.4,13.9,12.1c4.8,5.6,7.7,12.2,8.3,19.5
	c0.6,6.7-2,12-7.8,15.6c-3.1,1.9-6.4,3.3-9.9,4.2c-0.8,0.2-1.7,0.5-2.5,0.7c0,0.9,0,1.7,0,2.4c0.2,2.7-0.3,5.3-1.8,7.5
	c-2.2,3.2-4.2,6.4-7.5,8.6c-2.6,1.6-5.3,2.5-8.4,2.2c-0.3,0-0.6,0-1,0c-0.2,0-0.3,0.1-0.3,0.1c-2.8,4.1-6.5,6-11.3,5.5
	c-2.2-0.2-4.4-0.7-6.8-1.1c0,0.6,0,1.3,0.1,1.8c0.6,2.8,1.2,5.6,1.8,8.4c1.5,6.2,4.6,11.2,10.2,14.6c0.3-0.1,0.6-0.2,1-0.4
	c1.5-0.9,3-0.8,4.3,0.2c3.4,2.6,6.7,5.1,10,7.9c1.8,1.5,2.7,3.8,3.2,6.1c0.8,4,1.5,8,2,12.1c0.7,5.3,2.3,10.3,4.6,15
	c0.6,1.2,1.1,2.5,1.4,3.8c2.3,8.4,3.5,16.9,4.6,25.5c1.2,9.8,2.1,19.6,3.4,29.3c0.5,3.9,1.7,7.6,2.6,11.4c0.3,1.2,0.5,2.3,0.7,3.5
	c0.4,1.9-0.3,3.4-1.8,4.6c-3.1,2.4-6.7,3.4-10.6,3c-3.9-0.4-7.8-0.8-11.7-1.3c-3.2-0.5-6.3-1.1-9.4-1.7c-0.7-0.1-1.4-0.2-2.2-0.3
	c-0.5,1-1,1.9-1.5,2.8c-0.9,1.7-2.3,3-4.2,3.2c-3,0.4-6,0.8-9,0.9c-2.7,0.1-5,0.6-7.1,2.3c-0.9,0.7-2.3,1-3.5,1.3
	c-0.8,0.2-1.6,0.1-2.4,0c-6.1-0.7-11.8-2.7-17.3-5.4c-1.7-0.8-2.9-2.4-4.4-3.7c-0.4-0.3-0.7-0.8-1.4-1.5c-0.2,1.1-0.3,1.7-0.4,2.4
	c-0.2,2.1-1.1,3.7-3.1,4.5c-2.3,0.9-3.6,2.6-4.1,4.9c-0.3,1.4-1.1,2.5-2.2,3.4c-2.7,2.1-4.3,4.9-5.5,8c-1.1,2.7-2.2,5.3-3.4,7.9
	c-0.9,1.9-1.1,3.8-0.8,5.9c0.5,0.2,1,0.5,1.5,0.6c7.2,1.9,14.3,3.9,21.6,5.6c5.3,1.2,10.8,1.1,16.2,0.7c14.9-1,29.8-1.9,44.8-0.9
	c1.7,0.1,3.5-0.1,5.3-0.2c1.7-0.2,2.2-0.8,2.2-2.5c0-1.4-0.1-2.7-0.3-4.1c-0.2-1.7-0.4-3.3-0.6-5.3c-2.4,0-4.7-0.3-6.9-0.1
	c-6.6,0.7-13.1,0.4-19.6-0.4c-5.7-0.7-11.4-1.5-17.1-2.3c-1.4-0.2-2.8-0.6-4.2-1.2c1.4,0.1,2.9,0.3,4.3,0.4
	c6.9,0.6,13.8,1.4,20.8,1.8c4.1,0.3,8.3,0,12.5,0c3.3,0,6.7,0.1,10.2,0.2c0.4-1.1,0.1-2.4-0.4-3.6c-1.7-3.6-2.1-7.5-2.4-11.4
	c-0.1-1.7-0.6-3.3-1-4.9c-0.3-1.6-0.5-3.3,0.4-5.2c0.2,0.4,0.4,0.6,0.4,0.8c0.3,4,2.3,7.8,2.2,12c-0.1,2.1,0.6,4.2,1.3,6.3
	c0.8,2.3,1.3,4.6,1.3,7c0,1.5,0.3,3,0.3,4.5c0.1,3.1,0,6.2,0,9.3c0,0.6,0,1.2,0.2,1.8c3.4,12,6.3,24.1,8,36.5
	c1.5,11.1,2.7,22.2,4.1,33.3c2.4,20.7,6.2,41.3,11.5,61.4c2.1,8,4.5,16,7,23.9c1.7,5.4,3.7,10.7,5.7,16c4,10.6,7.5,21.3,9.5,32.4
	c1.2,6.8,2.1,13.7,1.7,20.7c-0.2,2.5-0.8,4.9-2.3,6.9c-4.2,5.8-9.7,9.9-16.3,12.5c-1.2,0.5-2,1-2.7,2.2c-0.5,0.8-1.4,1.6-2.3,2
	c-2.2,1.1-4.5,2-6.8,3c-0.8,0.3-1.6,0.6-2.5,0.9c0.1,2.5,0.3,4.8,0.3,7.1c-0.1,13.4-0.2,26.7-0.5,40.1c-0.1,7.7,0.7,15.3,1.6,22.9
	c0.7,5.9,2.3,11.6,3.9,17.3c0.8,3.1,2.4,6.1,3.6,9.1c1.2,3.1,3,5.7,5.3,8.1c0.9,0.8,1.2,2.2,1.9,3.3c0.3,0.6,0.7,1.3,1.2,1.7
	c2.6,1.8,5.3,3.5,8,5.3c0.9,0.6,1.8,1.2,2.8,1.8c1.5,0.9,3,1.8,4.5,2.7c1,0.6,2.2,1,2,2.6c-0.1,0.4,0.5,0.9,0.8,1.3
	c2.4,2,4.8,4,7.2,6c1.3,1,2.3,2.1,2.9,3.8c0.1,0.5,0.5,1,1,1.2c2.1,1.2,3,3,3.3,5.3c0.7,4.9,0,9.7-0.6,14.6
	c-0.1,0.6-0.6,1.3-1.1,1.6c-8.6,5.8-17.9,6-27.6,3.4c-5.5-1.5-10.8-3.3-15.9-5.8c-5.1-2.5-10.3-4.8-15.5-7c-2.2-1-4.4-1.8-6.8-2.4
	c-4.1-1.1-6.2-3.6-6.7-7.7c-0.5-4.5-1.3-9-1.9-13.5c-0.3-2.3-0.1-4.5,1-6.5c0.2-0.5,0.5-1.1,0.5-1.6c-0.1-3.2,0.2-6.3,1.3-9.4
	c0.6-1.7,0.5-3.7,0.8-5.6c0.2-1.4,0.5-2.8,2.2-3.5c0.4-0.1,0.6-0.7,0.8-1.1c1.9-4,2.4-8.2,1.9-12.6c-1.6-12.2-4.7-24.1-7.8-36.1
	c-0.8-3.1-1.4-6.2-2.2-9.3c-2.1-7.5-4.2-14.9-6.4-22.4c-0.8-2.9-1.7-5.8-2.4-8.8c-0.3-1.1-0.7-1.6-1.8-1.8c-2.4-0.4-4.7-1.1-7-1.6
	c-3.6-0.7-6.5,0.5-8.7,3.2c-2.3,2.8-4.9,5-8,6.8c-3.1,1.8-6.4,2.9-10,2.9c-5.8,0.1-11.5-0.2-16.5-4.1c-0.3,0.3-0.5,0.4-0.7,0.7
	c-1.6,2.2-3.8,3-6.4,3.2c-3.3,0.2-6.5-0.7-9.6-1.6c-1.3-0.4-2.6-0.8-3.9-1.2c-1.1,1.7-1.3,3.5-1.4,5.3c-1.3,12.5-2.4,25-3.9,37.4
	c-1.1,8.9-2.7,17.7-4,26.6c-1.2,8.5-1.8,17-1.8,25.6c0,1.8,0.6,3.6,0.9,5.4c0.3,1.3,1,2.2,2,3.2c1.1,1,2,2.3,2.7,3.6
	c1.7,3.5,4,6.5,6.3,9.6c0.6,0.8,1.1,1.8,1.7,2.6c0.5,0.7,0.9,1.5,1.6,2c2,1.6,3.8,3.4,4,6.2c0.1,1,0.8,2.1,1.5,2.9
	c2.8,3.2,3.5,7.2,3.7,11.2c0.2,4.9,0,9.7-0.1,14.6c0,0.6-0.5,1.3-0.9,1.8c-1.3,1.4-3,2.2-4.8,2.5c-6.6,0.9-13.2,1.5-19.8,0.2
	c-6.3-1.2-11.2-4.6-13.9-10.6C211.3,761,209.7,757.9,208.1,754.5z M216.6,755.2c-0.6-2-1.2-4.1-1.8-6.1c-0.1-0.2,0-0.5-0.1-0.7
	c-0.2-0.3-0.6-0.4-0.9-0.6c-0.2,0.3-0.6,0.7-0.5,0.9C214.4,750.9,214.8,753.5,216.6,755.2c0.3,0.4,0.4,1,0.8,1.4
	c1.5,1.7,3.5,2.2,5.6,2.5c7.1,0.8,14,0,21-1.1c1.6-0.3,3.2-0.9,4.8-1.5c1.4-0.6,1.4-1.2,0.7-2.7c-1.9,2.1-3.9,1.2-5.8-0.1
	c-2.1,2.4-4.6,2.5-7.2,1.1c-1.6,1.6-3.3,0.8-4.9,0.2c-1.9,1.5-3.9,1.8-5.9,0.8c-1.1-0.5-1.9-0.1-2.7,0.4c-1.9,0.9-3.7,0.9-5.4-0.5
	C217.2,755.4,216.9,755.4,216.6,755.2z M177.2,598.2c0.1-0.5,0.3-1.1,0.4-1.6c1.1-7.4,3.1-14.5,5.4-21.6c5.8-17.5,11.8-35,17.5-52.5
	c3.8-11.6,7.3-23.3,10.9-35c0.3-0.9,0.6-1.8,1-2.8c0.2,0,0.3,0.1,0.5,0.1c-0.2,0.8-0.3,1.5-0.5,2.3c-2.2,7.5-4.2,15.1-6.5,22.6
	c-5.8,18.1-11.7,36.2-17.7,54.3c-3.1,9.4-6.5,18.7-8.7,28.4c-0.5,2.2-1,4.5-1.6,7c2.5,0.6,4.8,1.4,7.1,1.7c1.5,0.2,3.2-0.2,4.7-0.4
	c1.3-0.2,2.3-1.1,2.8-2.3c0.6-1.5,1.1-3,1.5-4.5c1.5-6,3-11.9,4.6-17.9c0.6-2.4,1.5-4.8,2.3-7.2c0.3,0.5,0.4,0.9,0.3,1.2
	c-2.3,10.2-3.7,20.6-7.1,30.7c1.4,0.8,2.8,1.7,4.3,2.4c4.3,2.1,8.8,2.8,13.5,1.1c2-0.7,4.2-1.1,6.3-1.6c2.9-0.7,5.7-0.7,8.1,1.6
	c0.5,0.5,1.1,1,1.5,1.5c1.6,1.9,3.7,3.3,6,4.2c4.1,1.4,8.1,3,12.3,4.1c2.3,0.6,4.9,0.7,7.3,0.9c0.7,0.1,1.4-0.2,2.1-0.4
	c2.5-0.9,2.5-3.1,2.4-5.1c-0.2-7.2,0.8-14.4,1.9-21.5c2.1-13.5,3.4-27,3.9-40.6c0.3-7.7,0.5-15.3,0.8-23c0.2-5,0.3-10,0.5-15
	c0.4,3.8,0.4,7.7,0.4,11.5c-0.2,10.2-0.3,20.5-0.6,30.7c-0.2,6.8-0.6,13.6-1.4,20.3c-1,8.8-2.5,17.6-3.6,26.4
	c-0.5,3.9-0.8,7.9-1.1,11.8c3.4,2.5,6.8,4.6,10.9,5c2.1,0.2,4.1,0.3,6.2,0.3c6.9-0.1,12.2-3.3,16.7-8.3c0.8-0.9,1.5-1.9,2.4-2.6
	c0.7-0.6,0.8-1.3,0.7-2.1c-0.2-1.3-0.4-2.5-0.5-3.8c0.1,0,0.2,0,0.3-0.1c0.4,1.6,0.9,3.1,1.4,4.9c3.4-1.8,6.7-1.2,10-0.2
	c0.5,0.2,1.1,0.2,1.6,0.4c5.1,1,10.2,1,14.9-1.7c2.8-1.6,5.8-2.1,9-1.5c1.1,0.2,2.2,0.2,3.3,0.5c7.7,1.7,14.7-0.8,21.4-4.1
	c1.6-0.8,2.4-2.1,2.3-3.9c-0.1-2.1-0.1-4.2-0.3-6.2c-0.4-4.2-0.9-8.4-1.2-12.6c-0.6-6.8-1.1-13.5-1.9-20.3
	c-0.6-5.5-1.5-10.9-2.2-16.4c-0.1-0.7-0.1-1.4-0.1-2.1c0.5,0.6,0.7,1.2,0.9,1.9c0.3,1.5,0.5,3,0.8,4.5c1.3,7.2,2.7,14.3,3.7,21.5
	c0.7,5.2,0.8,10.5,1.3,15.8c0.4,4.5,0.8,8.9,1.3,13.4c0,0.2,0.2,0.4,0.3,0.6c6.6-3,12.4-8.1,16.5-13.3c0.6-0.7,0.9-1.7,1-2.6
	c0.3-2.5,0.7-5.1,0.5-7.6c-0.5-5.5-1.1-11-2.1-16.4c-1.9-9.9-5-19.5-8.6-28.9c-2.8-7.4-5.7-14.8-7.7-22.4c-2.1-8-4.8-15.7-6.8-23.7
	c-4-16.2-7.2-32.6-9.3-49.2c-1.3-10-2.6-20-3.8-30c-0.6-4.7-0.8-9.4-1.6-14c-2-10.8-4.3-21.6-6.5-32.4c-0.2-1-0.5-2-0.7-2.7
	c-4.5,0-8.7,0-12.9,0c-5.7-0.1-11.3-0.2-17-0.3c-0.8,0-1.5,0.2-2.2,0.2c0,3.5,0.1,6.7,0,9.8c-0.1,3.1-0.3,6.2-0.4,9.3
	c-0.1,0-0.3,0-0.4,0c0-6.3,0-12.6,0-18.9c-0.7-0.1-1.2-0.1-1.7-0.1c-4.7,0.3-9.4,0.5-14.1,0.8c-6.2,0.4-12.5,0.9-18.7-0.3
	c-6.1-1.2-12.1-2.9-18.1-4.5c-2.3-0.6-4.5-1.5-6.8-2.3c-0.8,1.8-1.6,3.4-2.4,5.1c-2.3,4.9-4.6,9.7-6.8,14.6
	c-5.7,12.7-9.4,26.1-12.4,39.7c-1.6,7.2-3.5,14.3-6.1,21.2c-3.1,8.2-6.5,16.3-9.5,24.6c-6.1,16.9-11.6,34.1-16.1,51.5
	c-5.2,20-10.7,40-15,60.3c-1.4,6.8-3.4,13.5-4.9,20.3c-0.7,3.3-1,6.6-1.3,10c-0.2,2.1,0.7,4.1,2.6,5
	C171.2,596.2,174.2,597.1,177.2,598.2z M301.5,133.3c-0.1-0.2-0.2-0.4-0.2-0.6c0.8-0.4,1.7-0.8,2.5-1.2c1.6-0.7,3-1.7,3.6-3.3
	c1.6-4,1.2-8-0.5-11.8c-0.7-1.5-1.7-1.7-3.2-1c-1.2,0.6-2.2,1.4-2.4,3.5c-1.2-2.1-2-3.7-2.8-5.2c-1.2-2-2.2-4.1-4.2-5.5
	c-3.2-2.3-5.9-5.1-8.1-8.4c-2.1-3.3-4.7-6.1-7.5-8.7c-1.9-1.8-3.7-3.7-5.5-5.6c-0.8-0.8-1.3-1.9-2-2.8c-0.2,0.3-0.4,0.4-0.4,0.5
	c-0.2,0.4-0.4,0.9-0.6,1.3c-4.6,10.9-10.2,21.3-17.5,30.8c-2.2,2.8-4.1,6-5,9.5c-0.3,1.2-0.5,2.6-0.2,3.7c0.6,2.6,1.5,5.2,2.3,7.8
	c1.4,4.5,3.3,8.9,6.8,12.2c2.7,2.5,5.4,5,8.3,7.3c2.6,2.1,5.7,2.9,9,2.4c3.2-0.4,6-1.6,8.6-3.5c5.4-3.9,10.1-8.6,13.6-14.3
	c0.6-1,1.2-2.1,2.6-3.1c-0.6,2.9-1.8,5-3.4,6.7c-2.1,2.4-1.9,5.4-3.1,8.5c3.8-2.1,6.4-4.7,8.4-7.8c-1.1,5.7-5.4,8.5-10.2,10.9
	c4.1,2.6,8.6,3.7,13.2,4.1c1.9,0.2,3.8-0.1,5.7-0.2c1.6-0.1,2.7-1,3.2-2.4c0.8-2.6,1.6-5.2,2.2-7.8c0.3-1.2,0.2-2.6-0.4-3.8
	c-1.3,0.5-1.7,1.9-3.2,2.1c0.5-0.9,0.8-1.6,1.2-2.3c3.3-6.2,4.1-12.7,2.2-19.5c-0.6-2.3-2.2-3.7-3.9-5.5c-0.1,3.3,0.5,6.4-1.3,9
	C307.2,131.8,304.7,133.2,301.5,133.3z M313,606.2c0.1,0.5,0.1,0.9,0.2,1.3c0.4,1.3,0.7,2.6,1.2,3.9c3.7,8.9,6,18.2,8.2,27.5
	c1.8,7.4,3.4,14.8,5.2,22.2c1.9,7.9,3.3,16,3.8,24.1c0.2,4.4,0.1,8.8-2,12.9c-0.5,0.9,0,1.5,0.4,2.2c2.4,3.2,5.2,6,8.6,8.3
	c1,0.7,2,1.2,3,1.7c4.4-4.4,9.1-7.8,15.2-8.9c-0.5-0.9-0.8-1.6-1.1-2.4c-1-2.5-2.4-4.9-3-7.6c-1.5-5.9-2.8-11.8-3.8-17.8
	c-1.5-8.9-2.3-17.9-2.2-27c0.2-13.9,0.3-27.8,0.5-41.7c0-0.8,0-1.5,0-2.2c-2.8,0.1-5.2,0.3-7.7,0.3c-2.1-0.1-4.3-0.4-6.4-0.8
	c-3.3-0.5-6.5-0.4-9.5,1.4c-1.4,0.8-3.1,1.4-4.7,1.7C317.1,605.8,315.2,606,313,606.2z M237.2,613.5c-0.9-0.3-1.6-0.6-2.3-0.9
	c-3.6-1.3-6.9-3-9.3-6.1c-0.4-0.5-0.9-0.9-1.4-1.3c-1.1-0.8-2.3-1.2-3.6-0.9c-4.3,1-8.5,2-13,3.1c0.4,6.7,0.7,13.2,1.2,19.8
	c0.5,6.5,1.2,13.1,1.7,19.6c1,12.6,0.5,25.2,0.4,37.9c0,5,0.1,10.1-1,15c-1,4.4-2.1,8.7-3.6,12.9c-1.5,4.2,0.2,7.6,2,11.5
	c2.2-3.6,5.7-4.7,9-6.1c3.3-1.4,6.8-2.1,10.6-2.2c-0.2-1.1-0.4-1.9-0.4-2.8c-0.3-2.9-0.7-5.7-0.7-8.6c0-10.3,1.3-20.6,2.7-30.8
	c1.4-10.7,2.7-21.4,3.9-32.1C234.5,632.2,235.3,622.9,237.2,613.5z M220.1,386.7c0.3-0.6,0.4-0.9,0.5-1.2
	c3.6-12.9,8.7-25.2,14.6-37.2c0.5-1,0.7-2.3,0.7-3.5c-0.2-6.3-0.4-12.6-0.8-18.9c-0.7-9.7-0.8-19.3,0.3-29c0.5-4.6,1.8-9.1,2.7-13.6
	c1.3-6.7,2.4-13.4,3.7-20c0.2-1.2-0.3-1.8-1.1-2.3c-3.6-2.2-7.2-4.4-10.8-6.6c-2.8-1.7-5.9-2.8-9.1-3.5c-0.6-0.1-1.2-0.1-1.7-0.1
	c0.3,3.7,1,7.2,0.9,10.6c-0.2,11.3,1,22.7,0,34c-0.6,7.2-1.5,14.3-2.4,21.4c-0.4,3.2-1.6,6.4-1.8,9.6c-0.5,7.2-0.7,14.5-0.9,21.8
	c-0.1,2.5,0.3,5.1,0.7,7.6c1.8,9.6,3.2,19.2,4.1,29C219.7,385.4,219.9,385.9,220.1,386.7z M237,300c2.5,1.6,5.1,2.2,7.9,1.9
	c2.3-0.3,4.6-0.4,6.9-0.6c2-0.2,4-0.4,6-0.6c2-0.2,3.5,0.6,4.5,2.5c1.4,2.7,3.7,4.7,6.6,5.7c4,1.5,8.2,2.7,12.3,3.9
	c1.3,0.4,2.7,0.3,4,0.5c1.4,0.1,2.7-0.3,3.8-1.2c1.9-1.7,4.1-2.3,6.6-2.4c2.9-0.1,5.9-0.4,8.8-0.7c2.4-0.2,4-1.6,4.7-3.9
	c0.7-2.5,1.5-5.1,1.6-7.7c0.3-4.5,0.3-9.1,0.4-13.7c0-0.9-0.1-1.7-0.2-2.9c-1.6,0-3.1,0.1-4.5,0c-2.7-0.1-5.2,0.3-7.6,1.7
	c-1.4,0.8-2.9,1.4-4.4,1.8c-8.8,2.5-17.6,2.4-26.2-0.5c-4.1-1.4-8.2-2-12.5-2.2c-3.3-0.2-6.7-0.6-10-1.2c-1.5-0.2-3-1-4.7-1.5
	C239.6,286,237.4,292.9,237,300z M310.3,188c-0.7-0.4-1.6-0.7-2.4-1.2c-6.2-4-9.8-9.7-11-16.9c-0.6-3.3-1-6.6-1.4-9.7
	c-2.8-1.8-5.4-3.5-8.3-5.4c3.1-0.6,3.3-3.1,4.2-5.6c-3.3,2.7-6.1,5.3-9.2,7.6c-3.1,2.3-6.9,3-10.8,3.6c0.1,0.8,0.3,1.5,0.3,2.1
	c0.4,4.9,1.9,10-1.4,14.6c3.4,3,7.4,5.1,10.4,8.3c-2.3-0.6-4.2-1.8-6.1-3.1c-4.5-3.2-8.9-6.5-13.4-9.7c-0.7-0.5-1.4-1.2-2.7-1.2
	c0.9,1.4,1.6,2.7,2.5,3.8c3,3.6,6,7.3,9.1,10.8c3.1,3.4,6.4,6.5,9.5,9.8c2.6,2.7,5.2,5.5,7.8,8.1c1.7,1.7,3.7,3.2,6.1,3.7
	c4.1,0.9,8.2,1.6,12.3,2.1c1.1,0.1,2.4-0.3,3.4-0.8c2.3-1.3,4.1-3.2,4.9-5.7c1.3-4.2,1.2-8.5,0.9-12.8c0-0.6-0.4-1.2-0.7-1.8
	c-0.6-1.1-1.6-1.5-2.8-1.5C311.1,187,310.8,187.5,310.3,188z M336.5,242.5c0-0.7,0.1-1.1,0-1.4c-0.9-3.9-1.7-7.8-2.7-11.7
	c-0.4-1.5-1.3-2.9-2-4.3c-0.5-0.9-1.2-1.5-2.3-1.5c-1.4,0-2.9-0.3-4.3-0.3c-5.1-0.1-10.3,0.3-15.3-0.2c-10.1-0.9-20.2-2.2-30.3-3.3
	c-5.7-0.6-11.4-1.6-17.2-1.1c-2.8,0.3-5.6,0.4-8.2,1.6c-1.2,0.6-1.8,1.3-2.1,2.7c-0.4,2.3-0.8,4.6-1.6,6.8c-1.2,3.5-1.3,7-1.7,10.6
	c-0.1,0.6,0.1,1.2,0.1,1.9c1.1-0.4,2-0.7,2.9-1c11.2-3.6,22.7-5.2,34.5-5c5,0.1,10.1,0.3,14.9,2.1c2.9,1.1,5.8,1.7,8.8,2
	c2,0.2,3.9,0.6,5.9,0.9c-0.1,1.4-0.2,2.5-0.2,3.9c3.6-0.8,6.8-1.4,9.9-2.2C329.1,242.2,332.7,241.7,336.5,242.5z M241.4,277.8
	c0.6,0.2,0.9,0.3,1.3,0.4c4.8,1.2,9.8,1.4,14.7,1.5c3.5,0,7,0.6,10.3,1.8c5.7,2.1,11.6,2.9,17.7,2.4c4.3-0.3,8.6-0.9,12.5-3
	c3.1-1.7,6.3-2.2,9.7-1.9c1.1,0.1,2.2,0.2,3.4,0.3c0.4-5.8,0.7-11.3,1-16.9c-2.2-0.5-4.3-0.9-6.3-1.6c-2.1-0.7-4.2-0.8-6.3-0.1
	c-3.3,1.1-6.7,1.4-10.2,1.4c-3.6,0-7.2,0.1-10.8-0.2c-3.1-0.3-6.1-1-9.2-1.5c-1.8-0.3-3.5-1.1-5.3-1.2c-4.9-0.3-9.9-0.4-14.8-0.6
	c-1.3-0.1-1.6,0.7-2,1.7c-1.1,2.7-1.1,2.7-4,3.1C242.5,268,241.9,272.8,241.4,277.8z M247.8,256.5c1.2,0,2.1,0.1,2.9,0
	c6.9-0.5,13.7-0.3,20.4,2c1.6,0.6,3.4,0.8,5.2,0.9c3.5,0.3,7,0.3,10.5,0.7c4,0.4,7.9,0.1,11.7-0.9c2.8-0.8,5.5-0.7,8.2,0.2
	c1.7,0.6,3.5,0.8,5.5,1.2c1-6.2,2-12,2.7-18c-0.9-0.1-1.5-0.1-2.2-0.1c-3.4-0.5-6.9-0.5-10.1-1.6c-5.2-1.8-10.5-2.6-16-2.7
	c-11.8-0.2-23.4,1.7-34.9,4.4c-3.6,0.8-3.7,1.1-3.7,4.8c0,0.3,0.1,0.6,0.1,1c0,1.6,0.1,3.2,0,4.7C248.2,254.3,248,255.3,247.8,256.5
	z M396.9,741.4c-0.6,0.4-0.8,0.4-1,0.6c-3.8,3.3-8.3,4.8-13.1,5.1c-6.5,0.4-12.5-1.3-17.8-5.2c-2.5-1.8-5.1-3.8-7.9-4.9
	c-7.2-2.8-14.3-6-21.8-7.9c-2.3-0.6-4.5-1.6-6.6-2.6c-1.9-1-3.3-2.6-3.8-4.8c1.4,1,2.7,2.2,4.1,3.1c1.4,0.9,3.1,1.5,4.9,2.3
	c0.1-1.1,0.1-1.8,0.2-2.4c-1.9-0.7-3.7-1.1-5.3-2.1c-1.5-0.9-2.7-2.3-4.4-3.8c0,1.8-0.3,3.4-0.1,4.9c0.6,5.2,1.4,10.3,2,15.4
	c0.2,2.1,1.1,3.2,3.2,3.7c6.4,1.7,12.4,4.4,18.5,7.1c7,3.1,13.8,6.5,21.3,8.6c5.7,1.6,11.4,2.3,17.3,1.3c2.9-0.5,5.7-1.1,8-2.9
	c0.8-0.6,1.7-1.5,1.7-2.4C396.6,750.4,396.7,746.1,396.9,741.4z M245.9,195.5c1.1,5.1,2,9.8,3,14.4c1.4,0,2.5,0,3.6,0
	c0.2-1.5,0.5-2.9,0.7-4.3c0.2,0,0.4,0.1,0.6,0.1c-0.4,4.5-0.7,9.1-1.1,13.8c1.6-0.6,2.8-1.3,4.1-1.5c5-0.9,10-1.3,15-0.8
	c2.3,0.2,4.6,0.5,6.9,0.8c5.8,0.7,11.6,1.1,17.4,2.1c9.7,1.6,19.3,2.4,29.1,2.1c1.1,0,2.2,0,3.6,0c-2.3-3.3-5.8-5-7.6-8.2
	c0.1-0.1,0.2-0.3,0.3-0.4c2.7,2.1,5.4,4.3,8.3,6.6c-0.4-2-0.9-3.6-1.1-5.2c-0.2-1.5-0.9-2.5-2.2-3.2c-1.1-0.5-2.1-1.2-3.3-1.4
	c-3.1-0.6-6.1-1-9.2-1.4c-0.9-0.1-1.9,0.3-2.6,0.8c-2.1,1.3-4.3,1.9-6.6,1.6c-3.7-0.5-7.4-1.2-11.1-2c-1.4-0.3-2.9-0.7-4-1.5
	c-1.7-1.2-3.4-1.5-5.5-1.7c-5.6-0.4-11.1-1.2-16.7-2c-3.9-0.6-7.7-1.4-11.2-3.3c-1.2-0.6-2.3-1.3-2.9-2.7c-0.4-1.1-1.5-1.7-2.6-1.9
	C249.3,195.9,247.7,195.7,245.9,195.5z M218.1,185.5c1.4-0.3,2.7-0.5,4-0.8c5.3-1.1,10.6-1,15.9,0.3c2.2,0.5,4,1.5,5.5,3.2
	c1.1,1.3,1.5,2.8,1.9,4.3c0.4,1.8,0.5,1.9,2.4,1.9c1.1,0,2.3-0.2,3.3,0.2c1.2,0.4,2.6,0.9,3.2,1.8c1.4,2.3,3.5,3.2,5.8,3.9
	c5.3,1.7,10.8,2.3,16.2,2.9c2.7,0.3,5.3,0.6,8.6,0.9c-5.7-6-11.1-11.6-16.4-17.1c-2.5,0.5-4.4-0.6-6.5-1.2c-5-1.4-9.6-3.6-13.8-7
	c-4.3-3.5-9.4-5.8-14.6-7.6c-3.1-1.1-7.8,0-9.2,2.2c-2.2,3.6-4.3,7.3-6.4,11C218.1,184.9,218.2,185.1,218.1,185.5z M341.6,283.3
	c-1.2,0.4-2.3,0.8-3.4,1.3c-2.7,1-5.6,1.5-8.5,1.1c-4.4-0.5-8.9-1.2-13.3-1.8c-1.1-0.1-2.1-0.4-3.2-0.6c-0.3,6.5-0.7,12.8-1,19.4
	c2.8,0.5,5.7,1.1,8.7,1.5c3.9,0.5,7.8,0.8,11.7,1.2c3.2,0.3,6.4,0.3,9.4-1.2c3.5-1.7,4-2.5,3.1-6.4
	C344,293.1,342.8,288.3,341.6,283.3z M250.8,757c-2.5,0.9-4.7,2-7,2.4c-6.2,1-12.6,1.4-18.9,1c-4.5-0.3-8.2-1.9-10.3-6.2
	c-1.9-3.7-3.9-7.3-6-10.9c-0.9-1.7-2.1-3.2-3-4.8c-0.7-1.2-1.2-2.4-1.7-3.6c-0.3-0.7-0.4-1.4-0.6-2.1c-0.2-0.7-0.3-1.4-0.4-2
	c-0.2,0-0.3,0.1-0.5,0.1c0,6.1,0,12.1,0,18.2c0,1.5,3,4.4,4.4,3.9c1.5-0.5,1.8,0.3,2.3,1.2c1.7,3.2,3.6,6.4,5.2,9.7
	c2.9,5.8,7.7,8.8,13.9,9.8c5.9,0.9,11.8,0.4,17.7-0.4c0.9-0.1,1.9-0.4,2.8-0.7c1.7-0.6,2.7-1.8,2.6-3.6
	C251.1,764.9,250.9,760.9,250.8,757z M327.2,79.5c-0.8-3.4-1.8-6.7-4.3-9.2c-2.1-2.1-4.4-4.2-6.8-6c-6.7-5.1-13.5-10-20.3-15
	c-2.4-1.7-4.9-3.3-7.3-5c-3.2-2.3-6.5-2.6-10.1-0.9c-4.3,2.1-8.8,3.8-13.2,5.7c-0.4,0.2-0.7,0.4-1.3,0.8c0.8,0.3,1.3,0.5,1.8,0.8
	c5.1,2.2,10.5,3.8,15.8,5.6c15.6,5.2,30.4,12.2,43.7,21.9C325.9,78.6,326.5,79,327.2,79.5z M244.2,260.8c1.2-0.7,1.4-1.8,1.5-2.9
	c0.2-1.7,0.3-3.3,0.6-5c0.5-2.6-0.2-4.9-1.8-6.9c-2.1-2.7-4.9-4-8.1-4.6c-0.4-0.1-0.8,0-1.2-0.1c-5.1-1.3-10.2-2.7-15.3-3.8
	c-5.4-1.2-11-0.4-16.5-0.4c-0.7,0-1.5,0.5-2,1c-1.1,1.3-1.4,2.8-0.7,4.5c0.8,1.8,1.6,3.7,2.1,5.6c0.5,1.7,1.4,2.6,3.1,2.8
	c3.7,0.4,7.4,0.8,11.3,1.2c0.1-0.5,0.2-1,0.3-1.6c-2.6-0.2-5-0.4-7.4-0.6c0.2-0.5,0.5-0.7,0.8-0.7c6-0.8,12-0.5,17.5,2.3
	c4.9,2.5,9.8,5.1,14.2,8.5C243.1,260.2,243.7,260.5,244.2,260.8z M210.9,234.6c4.4,0.4,8.4,0.7,12.2,1.1c1.8-5,3.4-9.9,5.3-14.8
	c2.2-5.7,3.6-11.6,4.6-17.6c0.4-2.2,0.2-4-1.9-5.4c-1.7-1.1-3.3-2.6-4.9-3.8c-0.6-0.5-1.3-0.8-2.2-1.3c-0.4,2-0.7,3.8-1.2,5.6
	c-1.7,6.3-4.2,12.4-7.2,18.3c-0.9,1.7-1.8,3.4-2.5,5.2C211.5,225.9,210.7,230.1,210.9,234.6z M313.6,264.4c1.5,0.1,2.6,0.4,3.7,0.2
	c4.1-0.6,8.1-0.3,12.1,0.8c3.5,1,6.6,0.2,9.3-2.5c0.5-0.5,1-1,0.8-1.8c-0.7-4.9-1.4-9.8-2-14.7c-0.2-1.2-0.8-1.9-2-2
	c-1.9-0.1-3.8-0.4-5.7-0.2c-4,0.5-8.1,1.2-12.1,1.8c-0.7,0.1-1.4,0.4-2,0.5C314.9,252.5,314.3,258.2,313.6,264.4z M313.4,266
	c-0.1,4.6-0.3,9.3-0.4,14c0,1.1,0.5,1.7,1.4,1.9c1.4,0.3,2.8,0.5,4.2,0.6c3,0.3,6.1,0.4,9,1c4.9,0.9,9.3-0.2,13.8-2.3
	c-0.6-5.4-1.2-10.7-1.8-16c-0.3-0.1-0.4-0.1-0.4-0.1c-0.2,0.1-0.4,0.2-0.6,0.3c-2.5,2.1-5.5,2.5-8.6,2.1c-1.4-0.2-2.8-0.7-4.2-0.9
	c-1.8-0.3-3.6-0.5-5.4-0.6C318.3,265.9,316.1,266,313.4,266z M237.4,343.8c1.1-1.8,1.7-3.4,1.9-5.2c0.2-1.6,0.7-3.3,1.3-4.8
	c0.9-2.4,1.9-4.7,2.9-7.1c1.4-3.4,3.1-6.6,6-9.1c0.6-0.5,1.2-1.3,1.4-2.1c0.8-3.1,2.5-5.2,5.5-6.5c0.7-0.3,1.4-1.1,1.7-1.8
	c0.6-1.4,0.9-3,1.4-4.8c-1.3,0-2.5-0.1-3.6,0c-3.6,0.3-7.1,0.8-10.7,1.1c-2.7,0.3-5.3,0.1-7.6-1.4c-0.2-0.1-0.4,0-0.6,0
	C236.1,307.5,236.4,340,237.4,343.8z M224.6,236.2c3.9,1,7.4,1.8,10.9,2.6c0.4,0.1,1.1-0.2,1.4-0.5c1.8-2.1,3.4-4.2,4.3-6.9
	c1.6-4.9,1.5-9.8,1.2-14.9c-0.2-4.1-1.4-7.5-3.8-10.5c-1-1.3-2.1-2.6-3.2-3.8c-0.3-0.4-0.8-0.6-1.4-1c-0.1,0.9-0.1,1.4-0.1,2
	c-0.3,6.5-1.7,12.8-4.2,18.8c-0.9,2.2-1.9,4.4-2.7,6.7C226,231,225.4,233.4,224.6,236.2z M240,747.1c2.3,1,3.2,2.8,3.8,5
	c0.4,1.5,1.2,2.1,2.5,2.1c2.2,0.1,4-2.3,3.3-4.3c-0.2-0.7-0.6-1.3-0.9-2c-1-2-1.9-4-3-6.2c-0.2-0.1-0.7-0.2-1.2-0.2
	c-6.1-0.4-12.3-0.9-18.4-0.1c-3.6,0.4-6.9,1.8-9.8,4c-1,0.8-1.4,1.7-1,2.7c0.8,1.9,1.6,3.9,2.7,5.6c1.5,2.2,3.5,2.3,5.6,0.6
	c0.2-0.2,0.4-0.5,0.5-0.6c-0.5-1-1-1.8-1.5-2.7c0.2-0.1,0.4-0.2,0.5-0.3c0.6,0.8,1.3,1.5,1.6,2.4c0.4,1.2,1.2,1.6,2.3,1.8
	c1.1,0.2,2.2,0,3.2-0.7c0.5-0.4,1.5-0.8,1.9-0.5c1.5,1,2.8,0.7,4-0.3c4,1.7,5.2,1.6,6.9-0.9C242,750.6,241,748.9,240,747.1z
	 M209,234.9c0.2-0.3,0.3-0.4,0.3-0.4c0-0.7,0.1-1.4,0.1-2.1c0.1-5,1.3-9.8,3.5-14.3c2.1-4.3,4-8.7,5.9-13.1
	c1.8-4.1,2.9-8.4,3.7-13.1c-2.1-1.1-4.1-2.1-6.3-3.2c-0.6,1.2-1,2.1-1.4,3c-1.8,4.5-3.9,8.9-5.4,13.6c-2.4,7.2-4.4,14.5-6.5,21.8
	c-0.8,2.9-0.8,5.6,0.7,8.5C205.3,235.3,207.2,235.1,209,234.9z M382.3,724.8c-8.3,1.8-15.7,4.6-19.7,12.8c6.3,5.6,13.6,8.3,19.2,7.4
	c1.5-3.1,1.3-3.6-1.6-5.3c-1.1-0.6-2.2-1.2-3.3-2c-0.7-0.5-1.4-0.9-1.7-2.1c1.8,0.8,3.3,1.5,4.8,2.2c2.3,1,4.5,2.1,5.1,4.8
	c2.3-0.6,5.4-2.8,6.3-4.6c-2.2-0.9-3.5-2.7-5.2-4.9c2.4,0.5,3.7,2.2,5.3,3.2c0.5-1.3,0.5-1.5,0.2-2c-0.5-0.6-0.9-1.1-1.5-1.5
	C387.2,730.6,384.7,727.9,382.3,724.8z M315.2,125.4c0,0.1-0.1,0.1-0.1,0.2c0,0.2,0.1,0.5,0.2,0.7c2.1,4.5,2.1,9.2,1,13.8
	c-0.4,1.8-0.5,3.6-0.4,5.4c0.1,2.6-0.1,5.2-0.2,7.9c0,0.6,0,1.2,0,2.1c2.8-0.9,5.4-1.5,7.7-2.7c2-1,4-2.2,5.4-3.9
	c2.2-2.7,3.2-6.1,2.9-9.7c-0.1-1-0.4-1.7-1.1-2.5c-4.3-4.7-10.1-7.5-15-11.4C315.4,125.3,315.3,125.4,315.2,125.4z M216.7,187.2
	c0,0.2,0.1,0.4,0.1,0.7c0.5,0.2,1,0.4,1.5,0.6c1.8,0.8,3.8,1.3,5.5,2.3c6.5,3.9,12.5,8.6,16.9,14.9c0.3,0.4,0.8,0.9,1.2,1
	c1.5,0.4,3,0.6,4.7,0.9c-0.1-0.9-0.2-2-0.4-3.1c-0.4-2.5-0.9-5-1.2-7.6c-0.3-2.4-0.9-4.6-2.4-6.6c-1.2-1.7-2.7-2.9-4.7-3.4
	c-4.3-1-8.6-1.8-13-1c-2.1,0.4-4.3,0.4-6.4,0.7C217.9,186.7,217.3,187,216.7,187.2z M226.7,170.3c0.7-0.2,1.1-0.3,1.4-0.4
	c2.5-1.1,4.9-0.8,7.4,0.1c6,2.3,11.7,5.2,16.6,9.3c1.1,0.9,2.3,1.7,3.6,2.3c2.9,1.2,5.8,2.2,8.8,3.2c0.5,0.2,1,0.2,1.6,0.3
	c-0.1-0.4-0.1-0.5-0.2-0.6c-4.5-4.7-7.8-10.3-11-15.9c-0.4-0.7-1.2-1.3-1.9-1.7c-2.3-1.3-4.7-2-7.3-2.2c-4.7-0.4-9.4-0.2-14,1.2
	C229.6,166.5,227.9,167.8,226.7,170.3z M239.4,733.3c-1.3-2.2-2.4-4-3.4-5.8c-2.6-4.8-7.3-6.3-11.7-5.3c-5.9,1.3-10,5.1-13.7,9.5
	c-1.1,1.3-1.2,2.7-0.8,4.3c0.3,1,0.3,2,0.5,3.1c0.1,0.5,0.4,0.9,0.5,1.4c0.2,0.1,0.4,0.2,0.6,0.3c0.2-0.4,0.4-0.9,0.7-1.2
	c2.7-2.7,5.7-4.9,9.5-5.7c4-0.9,8-1.3,12.1-0.8C235.6,733.1,237.3,733.2,239.4,733.3z M363,709.6c-1.3-2-2.4-3.8-3.7-5.6
	c-0.3-0.4-1-0.8-1.6-0.8c-0.9,0-1.8,0.1-2.6,0.4c-9.4,3.1-15.1,10-18.6,19c-0.6,1.4-0.6,3.1-1,4.6c2.4,0.6,4.5,1.2,7,1.9
	C345.1,718.1,352.9,712.6,363,709.6z M363.4,711.1c-3.7,1.4-7.6,3-11,5.3c-3.9,2.6-6.3,6.4-7.8,10.9c1.8,1,3.4,1.8,5,2.7
	c1.7,0.9,3.4,1.6,5.1,2.5c2.5-5.7,6.1-10,11.6-12.5c1.2-0.5,2.3-1,3.5-1.5c0.4-0.2,0.9-0.5,1.2-0.7
	C368.5,715.5,366.1,713.4,363.4,711.1z M245.4,740c-1.6-3-4-4.5-6.9-5c-4.4-0.8-8.9-0.8-13.4-0.3c-4.8,0.5-8.8,2.7-12.3,6
	c-0.8,0.8-1.5,1.8-2.4,2.9c0.4,0.9,1,1.9,1.4,2.9c0.3-0.1,0.4-0.1,0.5-0.1c0.3-0.3,0.6-0.5,0.8-0.8c3-3.2,6.6-5.3,10.9-5.9
	c2.1-0.3,4.3-0.4,6.4-0.3C235.5,739.4,240.2,739.7,245.4,740z M360.8,736.6c0.3-0.4,0.5-0.5,0.6-0.7c3.9-6.5,9.5-10.4,16.8-12.1
	c0.6-0.1,1.2-0.4,2.2-0.8c-1.1-0.7-2-0.9-2.6-1.6c-2.5-2.8-5.2-2.3-8.1-0.8c-0.5,0.3-1,0.5-1.5,0.7c-4.9,1.9-8.3,5.6-11.2,9.8
	c-0.6,0.9-1.4,1.8-0.9,3.2C357.6,735,359.2,735.8,360.8,736.6z M232.7,721.6c0.1-0.1,0.2-0.3,0.3-0.4c-0.7-0.6-1.5-1.1-2-1.8
	c-1.7-2.2-4-2.4-6.5-2c-3.6,0.6-7,1.7-10.2,3.4c-1.4,0.8-2.8,1.7-3.7,2.9c-2.7,3.5-4.3,7.6-6,11.7c0.7,0.5,1.3,1,1.9,1.4
	c0.3-0.2,0.4-0.3,0.5-0.4c0.2-0.4,0.5-0.8,0.7-1.3c2.4-5.3,6.5-9,11.3-12c2.9-1.8,6.1-2.8,9.6-2.5
	C229.9,720.9,231.3,721.3,232.7,721.6z M243.9,216.6c0.3,4.1,0.5,8.1-0.4,12.2c-0.8,4.1-3.1,7.4-5.7,10.9c3.7,1,6.5,3,8.9,6
	C248.4,235.3,248.6,225.7,243.9,216.6z M316.4,198.5c-0.5,3.1-0.4,6.1-2.6,9c4.8,0.8,9.6-0.3,14.1,2.6c-0.4-2.9-0.7-5.2-1.2-7.6
	c-0.1-0.6-0.7-1.2-1.2-1.7C323,198.5,319.9,198.2,316.4,198.5z M337,716.8c-3.6-3-7.2-5.9-11.2-9.2c-0.1,2.4-0.2,4.3-0.2,6.2
	c0,5.1,3.5,8.8,8.7,9.1C335.2,720.8,336.1,718.7,337,716.8z M328.3,699.9c-0.2,0.7-0.2,1-0.3,1.2c-1.5,3.6-0.1,6.1,2.7,8.4
	c2.4,1.9,4.4,4.3,7.3,5.9c0.9-1.3,1.8-2.5,2.8-3.8C335.4,708.9,331.5,705.1,328.3,699.9z M316.5,189.1c0,2.7,0,5.3,0,8
	c3.2-0.2,6.1-0.2,8.9,1.3C324.8,194.4,322.2,193.3,316.5,189.1z M248.6,223.2c0.1,0,0.1,0,0.2,0c-0.4-3.5-0.7-6.9-1.3-10.4
	c-0.4-2.5-2.8-4.6-4.8-4.7C244.7,213.1,246.6,218.1,248.6,223.2z M384.1,744.4c0.1,0.2,0.2,0.5,0.3,0.7c4.1-0.3,7.9-1.7,11.2-4.2
	c1.5-1.1,1.3-2.1-0.2-3.2c-0.4-0.3-0.8-0.4-1.3-0.6c-0.5,0.8-0.9,1.5-1.4,2.1c-1.9,2.2-3.6,4.8-7.1,4.6
	C385.1,743.6,384.6,744.1,384.1,744.4z M250.4,222.6c0.2,0,0.3,0,0.5,0.1c0.4-3,0.9-5.9,1.3-8.9c0.3-2.1-0.4-2.7-3-2.5
	C249.5,215,250,218.8,250.4,222.6z M204.5,720.4c-0.6,3.9-0.5,7.2,0.2,10.5c1-1.7,1.9-3.4,2.5-5.1c0.2-0.5-0.1-1.4-0.4-2
	C206.3,722.8,205.5,721.9,204.5,720.4z M298.2,110.4c-0.1,0.1-0.2,0.3-0.3,0.4c1.1,1.5,2.2,3,3.4,4.6c0.9-0.8,1.6-1.5,2.4-2.2
	C302.2,111.1,299.9,111.3,298.2,110.4z M208.8,736.6c-1.3,2.2-1.3,2.3,1,4.9C209.4,740.1,209.1,738.4,208.8,736.6z M347.8,730.9
	c-1.1-0.8-2.1-1.7-3.3-2.6C344.1,730,344.1,730,347.8,730.9z"/>
<path class="st0" d="M177.2,598.2c-3-1.1-6-2-8.8-3.3c-1.9-0.9-2.9-2.8-2.6-5c0.3-3.3,0.6-6.7,1.3-10c1.5-6.8,3.5-13.5,4.9-20.3
	c4.3-20.3,9.8-40.2,15-60.3c4.5-17.4,10-34.6,16.1-51.5c3-8.3,6.4-16.4,9.5-24.6c2.6-6.9,4.5-14,6.1-21.2c3-13.6,6.7-27,12.4-39.7
	c2.2-4.9,4.5-9.7,6.8-14.6c0.8-1.7,1.5-3.3,2.4-5.1c2.3,0.8,4.5,1.7,6.8,2.3c6,1.6,12,3.3,18.1,4.5c6.1,1.2,12.4,0.7,18.7,0.3
	c4.7-0.3,9.4-0.6,14.1-0.8c0.5,0,0.9,0.1,1.7,0.1c0,6.3,0,12.6,0,18.9c0.1,0,0.3,0,0.4,0c0.2-3.1,0.4-6.2,0.4-9.3
	c0.1-3.2,0-6.4,0-9.8c0.6-0.1,1.4-0.2,2.2-0.2c5.7,0.1,11.3,0.2,17,0.3c4.2,0,8.4,0,12.9,0c0.2,0.7,0.5,1.7,0.7,2.7
	c2.2,10.8,4.5,21.6,6.5,32.4c0.9,4.6,1.1,9.4,1.6,14c1.3,10,2.6,20,3.8,30c2.1,16.6,5.3,33,9.3,49.2c2,8,4.7,15.8,6.8,23.7
	c2,7.7,4.9,15,7.7,22.4c3.6,9.4,6.7,19,8.6,28.9c1,5.4,1.6,10.9,2.1,16.4c0.2,2.5-0.2,5.1-0.5,7.6c-0.1,0.9-0.5,1.9-1,2.6
	c-4,5.2-9.8,10.3-16.5,13.3c-0.1-0.2-0.3-0.4-0.3-0.6c-0.4-4.5-0.9-8.9-1.3-13.4c-0.4-5.3-0.5-10.6-1.3-15.8
	c-1-7.2-2.5-14.3-3.7-21.5c-0.3-1.5-0.5-3-0.8-4.5c-0.1-0.7-0.3-1.3-0.9-1.9c0,0.7,0,1.4,0.1,2.1c0.7,5.5,1.6,10.9,2.2,16.4
	c0.7,6.7,1.2,13.5,1.9,20.3c0.4,4.2,0.9,8.4,1.2,12.6c0.2,2.1,0.2,4.1,0.3,6.2c0.1,1.8-0.7,3-2.3,3.9c-6.8,3.4-13.7,5.8-21.4,4.1
	c-1.1-0.2-2.2-0.3-3.3-0.5c-3.2-0.6-6.2-0.1-9,1.5c-4.7,2.7-9.8,2.7-14.9,1.7c-0.6-0.1-1.1-0.2-1.6-0.4c-3.3-1-6.5-1.6-10,0.2
	c-0.5-1.8-1-3.4-1.4-4.9c-0.1,0-0.2,0-0.3,0.1c0.2,1.3,0.3,2.5,0.5,3.8c0.1,0.8,0.1,1.5-0.7,2.1c-0.9,0.8-1.6,1.7-2.4,2.6
	c-4.5,4.9-9.8,8.2-16.7,8.3c-2.1,0-4.2-0.1-6.2-0.3c-4.2-0.4-7.5-2.5-10.9-5c0.4-3.9,0.6-7.8,1.1-11.8c1.2-8.8,2.6-17.6,3.6-26.4
	c0.8-6.7,1.2-13.5,1.4-20.3c0.4-10.2,0.5-20.5,0.6-30.7c0.1-3.8,0-7.7-0.4-11.5c-0.2,5-0.3,10-0.5,15c-0.2,7.7-0.4,15.3-0.8,23
	c-0.6,13.6-1.8,27.1-3.9,40.6c-1.1,7.1-2.1,14.2-1.9,21.5c0.1,2,0.1,4.3-2.4,5.1c-0.7,0.2-1.4,0.5-2.1,0.4c-2.5-0.2-5-0.2-7.3-0.9
	c-4.1-1.1-8.2-2.7-12.3-4.1c-2.4-0.8-4.4-2.2-6-4.2c-0.5-0.5-1-1-1.5-1.5c-2.3-2.3-5.2-2.2-8.1-1.6c-2.1,0.5-4.2,0.9-6.3,1.6
	c-4.7,1.7-9.1,1-13.5-1.1c-1.5-0.7-2.9-1.6-4.3-2.4c3.4-10.1,4.8-20.5,7.1-30.7c0.1-0.4,0-0.8-0.3-1.2c-0.8,2.4-1.6,4.8-2.3,7.2
	c-1.6,5.9-3,11.9-4.6,17.9c-0.4,1.5-0.9,3.1-1.5,4.5c-0.5,1.3-1.5,2.1-2.8,2.3c-1.6,0.3-3.2,0.6-4.7,0.4c-2.3-0.3-4.6-1.1-7.1-1.7
	c0.6-2.5,1.1-4.8,1.6-7c2.2-9.7,5.5-19,8.7-28.4c6-18,11.9-36.1,17.7-54.3c2.4-7.5,4.4-15,6.5-22.6c0.2-0.7,0.4-1.5,0.5-2.3
	c-0.2,0-0.3-0.1-0.5-0.1c-0.3,0.9-0.7,1.8-1,2.8c-3.6,11.7-7.1,23.4-10.9,35c-5.7,17.6-11.7,35-17.5,52.5
	c-2.3,7.1-4.3,14.2-5.4,21.6C177.5,597.2,177.3,597.7,177.2,598.2z M289.9,558.6c0-3.1,0-6.2,0-9.3c0-5-0.2-9.9-0.1-14.9
	c0.4-14.8,1.1-29.6,1.5-44.3c0.2-10.5,0.1-21.1-0.1-31.7c-0.1-6.6-0.5-13.3-0.8-19.9c-0.1-1.9,0.2-3.7,1.2-5.5
	c1.5-2.7,2.8-5.6,3.7-8.6c2.9-9.1,5.7-18.1,8.3-27.3c1.8-6.2,3.4-12.5,3.9-19c0.2-3.1,0.4-6.1-0.1-9.2c-0.2,0.9-0.3,1.8-0.4,2.8
	c-0.1,2.2,0,4.5-0.5,6.7c-1.4,6.3-2.8,12.6-4.6,18.8c-3.4,11.7-7.2,23.4-10.8,35c-0.1,0.4-0.4,0.8-0.6,1.2c-0.5-9-1.2-17.7-3-26.4
	c-0.2,0.8-0.2,1.6-0.2,2.4c0.4,8.2,1,16.4,1.3,24.7c0.3,8.6,0.5,17.3,0.8,25.9c0.7,18.9,0.8,37.9,0.1,56.8
	C289,530.8,288.6,544.7,289.9,558.6z M265.3,351.8c-1.3,15.2-2.5,30.3-3.8,45.5C263.9,392.3,266.8,357.3,265.3,351.8z M320.2,350.4
	c-0.3,3.6,8.3,40.2,10.1,42.9C327.2,379,324.5,364.5,320.2,350.4z M317.2,548c1.3,13.4,3.6,26.7,7.7,40.1c0-1,0.1-1.5,0-1.9
	C321.6,573.7,319.4,560.9,317.2,548z M218.5,596.2c0.2,0,0.3,0,0.5,0.1c1.7-6.5,3.5-12.9,5.2-19.4c-0.2,0-0.3-0.1-0.5-0.1
	C221.6,583.1,219.7,589.6,218.5,596.2z M249.8,350.3c-1.6,2.2-2.9,7.4-2.5,9.6C248.2,356.4,249,353.3,249.8,350.3z M290.3,561.9
	C290.3,561.9,290.3,561.9,290.3,561.9c-0.1,0.8-0.1,1.7-0.1,2.5c0,0,0,0,0.1,0C290.3,563.6,290.3,562.8,290.3,561.9z M261.5,400.5
	C261.5,400.5,261.5,400.5,261.5,400.5c0.1-0.3,0.1-0.6,0.1-0.9c0,0-0.1,0.1-0.1,0.1C261.5,400,261.5,400.3,261.5,400.5z"/>
<path class="st0" d="M301.5,133.3c3.2-0.1,5.7-1.5,7.5-4.2c1.7-2.6,1.2-5.7,1.3-9c1.7,1.8,3.3,3.2,3.9,5.5
	c1.8,6.8,1.1,13.3-2.2,19.5c-0.4,0.7-0.7,1.4-1.2,2.3c1.5-0.2,1.9-1.6,3.2-2.1c0.6,1.2,0.7,2.6,0.4,3.8c-0.6,2.6-1.4,5.2-2.2,7.8
	c-0.5,1.5-1.6,2.4-3.2,2.4c-1.9,0.1-3.8,0.4-5.7,0.2c-4.6-0.4-9.1-1.5-13.2-4.1c4.8-2.4,9.1-5.2,10.2-10.9c-2,3.2-4.5,5.7-8.4,7.8
	c1.3-3.1,1-6.1,3.1-8.5c1.6-1.7,2.8-3.8,3.4-6.7c-1.3,1-1.9,2.1-2.6,3.1c-3.5,5.7-8.2,10.4-13.6,14.3c-2.6,1.9-5.4,3.1-8.6,3.5
	c-3.3,0.5-6.4-0.4-9-2.4c-2.9-2.3-5.6-4.8-8.3-7.3c-3.5-3.4-5.3-7.7-6.8-12.2c-0.8-2.6-1.7-5.2-2.3-7.8c-0.3-1.2-0.1-2.6,0.2-3.7
	c1-3.5,2.8-6.6,5-9.5c7.3-9.4,12.8-19.8,17.5-30.8c0.2-0.4,0.4-0.9,0.6-1.3c0.1-0.1,0.2-0.2,0.4-0.5c0.7,1,1.3,2,2,2.8
	c1.8,1.9,3.6,3.9,5.5,5.6c2.8,2.6,5.4,5.4,7.5,8.7c2.1,3.4,4.8,6.2,8.1,8.4c2,1.4,3.1,3.4,4.2,5.5c0.9,1.5,1.7,3.1,2.8,5.2
	c0.2-2.1,1.1-2.9,2.4-3.5c1.5-0.7,2.5-0.5,3.2,1c1.8,3.9,2.2,7.8,0.5,11.8c-0.7,1.6-2,2.6-3.6,3.3c-0.9,0.4-1.7,0.8-2.5,1.2
	C301.3,132.9,301.4,133.1,301.5,133.3z M286.8,116.9c-0.9,1.9-1.5,3.3-2.2,4.7c-0.6,1.2-1.6,1.6-2.8,1c-1.6-0.8-2.7-2.1-3.3-3.9
	c-0.3-0.9,0-1.5,0.9-1.9c1.5-0.7,3-1.3,4.8-1.1c0.6,0.1,1.3,0.4,1.9-0.4c-6-1.4-11.5,0.8-12.3,5.1c0.7-0.4,1.1-0.8,1.6-1.1
	c0.6-0.4,1.2-0.8,1.7-1.1c0.4,1.3,0.8,2.4,1.2,3.5c0.3,1.1,2.4,1.2,1.8,2.8c0.4,0.1,0.9,0.4,1.3,0.4c1.9,0,3.6-0.7,5.4-2.2
	c-0.5-0.2-0.8-0.3-1.3-0.5C286.8,120.6,287.5,119.2,286.8,116.9z M252.6,125.2c1.1,0.3,2,0.5,2.9,0.8c1.8,0.6,2.5,2.1,1.7,3.7
	c-0.4,0.8-1,1.4-1.6,2.1c-0.4,0.4-0.9,0.6-1.6,1c1.6,0.8,2.3,0.3,2.8-0.4c0.9-1.3,1.9-2.6,1.6-4.4c-0.1-0.7,0.1-1.7-0.3-2.2
	c-1.9-2.4-6.4-2.6-8.8-0.4c0.7,0.1,1.3,0.1,1.8,0.2c0.1,3.4,0.3,4,2.7,4.9C252.4,128.8,251.5,127.3,252.6,125.2z M270.3,111.4
	c3.6-0.3,7.2-0.6,10.6-2.1C277.1,108.9,273.5,109.3,270.3,111.4z M266.5,144.8c3.1,0.7,8.3-0.7,10.3-2.8
	C273.3,143,270,143.9,266.5,144.8z M267.9,146.4c3,1.2,5.7,0.6,7.5-1.5c-1.3,0.5-2.4,1-3.5,1.2C270.7,146.3,269.5,146.3,267.9,146.4
	z M256.3,119.3c-0.1,0.1-0.3,0.2-0.4,0.4c0.6,1.2,1.6,2.2,2.6,3c0.1-0.1,0.3-0.2,0.4-0.4C258,121.4,257.1,120.3,256.3,119.3z"/>
<path class="st0" d="M313,606.2c2.2-0.3,4.1-0.4,5.9-0.8c1.6-0.4,3.3-0.9,4.7-1.7c3-1.8,6.2-1.9,9.5-1.4c2.1,0.3,4.3,0.7,6.4,0.8
	c2.5,0.1,4.9-0.2,7.7-0.3c0,0.6,0,1.4,0,2.2c-0.2,13.9-0.3,27.8-0.5,41.7c-0.1,9.1,0.7,18,2.2,27c1,6,2.3,11.9,3.8,17.8
	c0.6,2.6,2,5,3,7.6c0.3,0.7,0.7,1.4,1.1,2.4c-6.2,1.1-10.9,4.5-15.2,8.9c-1-0.6-2.1-1.1-3-1.7c-3.3-2.3-6.1-5.1-8.6-8.3
	c-0.5-0.6-0.9-1.2-0.4-2.2c2.1-4,2.2-8.5,2-12.9c-0.4-8.2-1.9-16.2-3.8-24.1c-1.8-7.4-3.4-14.8-5.2-22.2c-2.2-9.3-4.5-18.6-8.2-27.5
	c-0.5-1.2-0.8-2.6-1.2-3.9C313.1,607.2,313.1,606.8,313,606.2z"/>
<path class="st0" d="M237.2,613.5c-1.9,9.4-2.7,18.8-3.8,28c-1.2,10.7-2.5,21.4-3.9,32.1c-1.4,10.2-2.6,20.5-2.7,30.8
	c0,2.9,0.4,5.7,0.7,8.6c0.1,0.9,0.3,1.7,0.4,2.8c-3.8,0.2-7.3,0.8-10.6,2.2c-3.3,1.4-6.8,2.5-9,6.1c-1.9-3.9-3.5-7.3-2-11.5
	c1.5-4.2,2.6-8.6,3.6-12.9c1.1-4.9,1-10,1-15c0.1-12.6,0.6-25.3-0.4-37.9c-0.5-6.5-1.2-13.1-1.7-19.6c-0.5-6.5-0.8-13.1-1.2-19.8
	c4.5-1.1,8.8-2.1,13-3.1c1.3-0.3,2.5,0.1,3.6,0.9c0.5,0.4,1,0.8,1.4,1.3c2.4,3,5.7,4.8,9.3,6.1C235.6,612.8,236.3,613.1,237.2,613.5
	z"/>
<path class="st0" d="M220.1,386.7c-0.2-0.8-0.4-1.3-0.5-1.9c-0.9-9.7-2.3-19.4-4.1-29c-0.5-2.5-0.8-5.1-0.7-7.6
	c0.2-7.3,0.4-14.5,0.9-21.8c0.2-3.2,1.4-6.4,1.8-9.6c0.9-7.1,1.8-14.3,2.4-21.4c1-11.3-0.2-22.7,0-34c0.1-3.5-0.6-6.9-0.9-10.6
	c0.5,0,1.1,0,1.7,0.1c3.2,0.7,6.3,1.7,9.1,3.5c3.6,2.2,7.2,4.4,10.8,6.6c0.9,0.5,1.4,1.1,1.1,2.3c-1.3,6.7-2.4,13.4-3.7,20
	c-0.9,4.5-2.2,9-2.7,13.6c-1,9.6-0.9,19.3-0.3,29c0.4,6.3,0.6,12.6,0.8,18.9c0,1.2-0.2,2.4-0.7,3.5c-5.9,12-11,24.3-14.6,37.2
	C220.5,385.8,220.4,386.1,220.1,386.7z"/>
<path class="st0" d="M237,300c0.4-7.1,2.6-14,4.1-21.1c1.8,0.6,3.2,1.3,4.7,1.5c3.3,0.5,6.6,1,10,1.2c4.3,0.2,8.4,0.8,12.5,2.2
	c8.6,2.9,17.4,3,26.2,0.5c1.5-0.4,3-1,4.4-1.8c2.4-1.4,4.9-1.8,7.6-1.7c1.4,0.1,2.8,0,4.5,0c0.1,1.2,0.2,2,0.2,2.9
	c-0.1,4.6,0,9.1-0.4,13.7c-0.2,2.6-0.9,5.2-1.6,7.7c-0.6,2.3-2.3,3.7-4.7,3.9c-2.9,0.3-5.9,0.6-8.8,0.7c-2.5,0.1-4.7,0.7-6.6,2.4
	c-1.1,1-2.3,1.3-3.8,1.2c-1.3-0.1-2.8-0.1-4-0.5c-4.1-1.2-8.3-2.5-12.3-3.9c-2.9-1-5.1-3-6.6-5.7c-1-1.9-2.5-2.6-4.5-2.5
	c-2,0.2-4,0.4-6,0.6c-2.3,0.2-4.6,0.3-6.9,0.6C242.1,302.2,239.5,301.6,237,300z"/>
<path class="st0" d="M310.3,188c0.6-0.5,0.9-1.1,1.2-1.1c1.2,0,2.2,0.4,2.8,1.5c0.3,0.5,0.6,1.2,0.7,1.8c0.3,4.3,0.5,8.7-0.9,12.8
	c-0.8,2.5-2.5,4.5-4.9,5.7c-1,0.5-2.3,1-3.4,0.8c-4.1-0.6-8.2-1.3-12.3-2.1c-2.4-0.5-4.4-2-6.1-3.7c-2.7-2.6-5.2-5.4-7.8-8.1
	c-3.2-3.3-6.5-6.4-9.5-9.8c-3.2-3.5-6.1-7.2-9.1-10.8c-0.9-1.1-1.6-2.4-2.5-3.8c1.3,0,2,0.7,2.7,1.2c4.5,3.2,8.9,6.5,13.4,9.7
	c1.9,1.3,3.8,2.5,6.1,3.1c-3-3.3-7-5.4-10.4-8.3c3.3-4.6,1.8-9.6,1.4-14.6c0-0.6-0.2-1.2-0.3-2.1c3.9-0.6,7.7-1.3,10.8-3.6
	c3.1-2.3,5.9-4.8,9.2-7.6c-0.8,2.5-1.1,5-4.2,5.6c2.9,1.9,5.5,3.6,8.3,5.4c0.4,3.1,0.8,6.4,1.4,9.7c1.2,7.2,4.8,13,11,16.9
	C308.7,187.3,309.5,187.6,310.3,188z"/>
<path class="st0" d="M336.5,242.5c-3.9-0.8-7.4-0.4-10.9,0.5c-3.2,0.8-6.4,1.4-9.9,2.2c0.1-1.4,0.2-2.5,0.2-3.9
	c-2-0.3-3.9-0.7-5.9-0.9c-3-0.3-6-0.9-8.8-2c-4.8-1.9-9.8-2.1-14.9-2.1c-11.8-0.2-23.3,1.5-34.5,5c-0.9,0.3-1.8,0.6-2.9,1
	c0-0.7-0.2-1.3-0.1-1.9c0.4-3.6,0.5-7.2,1.7-10.6c0.8-2.2,1.2-4.5,1.6-6.8c0.2-1.3,0.9-2.1,2.1-2.7c2.6-1.2,5.4-1.3,8.2-1.6
	c5.8-0.5,11.5,0.5,17.2,1.1c10.1,1.1,20.2,2.4,30.3,3.3c5.1,0.5,10.2,0.1,15.3,0.2c1.4,0,2.9,0.3,4.3,0.3c1.1,0,1.8,0.6,2.3,1.5
	c0.8,1.4,1.6,2.8,2,4.3c1,3.9,1.9,7.8,2.7,11.7C336.6,241.5,336.5,241.9,336.5,242.5z"/>
<path class="st0" d="M241.4,277.8c0.6-5,1.1-9.8,1.7-14.7c2.9-0.4,2.9-0.4,4-3.1c0.4-0.9,0.7-1.7,2-1.7c4.9,0.2,9.9,0.3,14.8,0.6
	c1.8,0.1,3.6,0.9,5.3,1.2c3,0.6,6.1,1.3,9.2,1.5c3.6,0.3,7.2,0.2,10.8,0.2c3.5,0,6.9-0.3,10.2-1.4c2.1-0.7,4.2-0.6,6.3,0.1
	c2,0.7,4.2,1,6.3,1.6c-0.3,5.6-0.7,11.1-1,16.9c-1.2-0.1-2.3-0.2-3.4-0.3c-3.4-0.3-6.6,0.2-9.7,1.9c-3.8,2.2-8.2,2.7-12.5,3
	c-6.1,0.5-12-0.4-17.7-2.4c-3.3-1.2-6.8-1.8-10.3-1.8c-5-0.1-9.9-0.2-14.7-1.5C242.3,278.1,241.9,278,241.4,277.8z"/>
<path class="st0" d="M247.8,256.5c0.2-1.3,0.4-2.3,0.4-3.3c0.1-1.6,0-3.2,0-4.7c0-0.3-0.1-0.6-0.1-1c-0.1-3.7,0.1-4,3.7-4.8
	c11.5-2.7,23-4.6,34.9-4.4c5.5,0.1,10.8,0.9,16,2.7c3.2,1.1,6.7,1.1,10.1,1.6c0.6,0.1,1.2,0.1,2.2,0.1c-0.6,6-1.7,11.8-2.7,18
	c-2-0.4-3.8-0.7-5.5-1.2c-2.7-0.9-5.4-1-8.2-0.2c-3.8,1-7.7,1.3-11.7,0.9c-3.5-0.4-7-0.4-10.5-0.7c-1.7-0.2-3.5-0.4-5.2-0.9
	c-6.7-2.3-13.5-2.5-20.4-2C249.9,256.6,249,256.5,247.8,256.5z"/>
<path class="st0" d="M396.9,741.4c-0.2,4.7-0.3,9-0.7,13.3c-0.1,0.8-1,1.8-1.7,2.4c-2.3,1.8-5.2,2.4-8,2.9c-5.9,1-11.5,0.3-17.3-1.3
	c-7.5-2-14.3-5.4-21.3-8.6c-6-2.7-12.1-5.5-18.5-7.1c-2.1-0.5-3-1.6-3.2-3.7c-0.6-5.2-1.4-10.3-2-15.4c-0.2-1.5,0-3.1,0.1-4.9
	c1.7,1.5,2.9,2.9,4.4,3.8c1.5,0.9,3.4,1.4,5.3,2.1c0,0.6-0.1,1.3-0.2,2.4c-1.8-0.9-3.5-1.4-4.9-2.3c-1.4-0.9-2.7-2.1-4.1-3.1
	c0.5,2.2,1.9,3.9,3.8,4.8c2.1,1.1,4.4,2.1,6.6,2.6c7.5,1.9,14.6,5.1,21.8,7.9c2.8,1.1,5.4,3.1,7.9,4.9c5.3,3.9,11.3,5.6,17.8,5.2
	c4.9-0.3,9.4-1.8,13.1-5.1C396.1,741.8,396.3,741.7,396.9,741.4z"/>
<path class="st0" d="M245.9,195.5c1.9,0.2,3.4,0.4,5,0.7c1.1,0.2,2.2,0.8,2.6,1.9c0.5,1.4,1.7,2.1,2.9,2.7c3.5,1.9,7.3,2.8,11.2,3.3
	c5.5,0.8,11.1,1.5,16.7,2c2.1,0.2,3.8,0.5,5.5,1.7c1.1,0.8,2.6,1.2,4,1.5c3.7,0.8,7.4,1.5,11.1,2c2.3,0.3,4.6-0.3,6.6-1.6
	c0.7-0.5,1.8-0.8,2.6-0.8c3.1,0.3,6.2,0.8,9.2,1.4c1.1,0.2,2.2,0.8,3.3,1.4c1.3,0.7,2,1.7,2.2,3.2c0.2,1.6,0.7,3.2,1.1,5.2
	c-3-2.3-5.6-4.5-8.3-6.6c-0.1,0.1-0.2,0.3-0.3,0.4c1.8,3.1,5.3,4.8,7.6,8.2c-1.4,0-2.5,0-3.6,0c-9.8,0.3-19.5-0.5-29.1-2.1
	c-5.8-0.9-11.6-1.4-17.4-2.1c-2.3-0.3-4.6-0.6-6.9-0.8c-5.1-0.5-10.1-0.1-15,0.8c-1.3,0.2-2.5,0.9-4.1,1.5c0.4-4.7,0.7-9.2,1.1-13.8
	c-0.2,0-0.4-0.1-0.6-0.1c-0.2,1.4-0.5,2.9-0.7,4.3c-1.1,0-2.2,0-3.6,0C247.9,205.3,246.9,200.6,245.9,195.5z"/>
<path class="st0" d="M218.1,185.5c0-0.4,0-0.7,0.1-0.8c2.1-3.7,4.1-7.4,6.4-11c1.4-2.2,6.1-3.3,9.2-2.2c5.2,1.8,10.3,4.1,14.6,7.6
	c4.1,3.4,8.7,5.5,13.8,7c2,0.6,4,1.7,6.5,1.2c5.3,5.5,10.6,11.1,16.4,17.1c-3.3-0.4-5.9-0.7-8.6-0.9c-5.5-0.5-11-1.2-16.2-2.9
	c-2.3-0.7-4.4-1.6-5.8-3.9c-0.6-0.9-2-1.5-3.2-1.8c-1-0.3-2.2-0.1-3.3-0.2c-1.9,0-1.9-0.1-2.4-1.9c-0.4-1.5-0.8-3-1.9-4.3
	c-1.5-1.7-3.3-2.7-5.5-3.2c-5.3-1.3-10.6-1.5-15.9-0.3C220.8,185.1,219.5,185.3,218.1,185.5z"/>
<path class="st0" d="M341.6,283.3c1.2,5,2.4,9.8,3.5,14.6c0.9,3.8,0.4,4.6-3.1,6.4c-3,1.5-6.2,1.5-9.4,1.2
	c-3.9-0.4-7.8-0.7-11.7-1.2c-3-0.4-5.9-1-8.7-1.5c0.3-6.6,0.7-12.9,1-19.4c1.1,0.2,2.1,0.4,3.2,0.6c4.4,0.6,8.9,1.2,13.3,1.8
	c2.9,0.3,5.7-0.1,8.5-1.1C339.3,284.2,340.4,283.7,341.6,283.3z"/>
<path class="st0" d="M250.8,757c0.2,3.9,0.4,7.9,0.5,11.9c0,1.8-0.9,3-2.6,3.6c-0.9,0.3-1.8,0.5-2.8,0.7c-5.9,0.7-11.8,1.3-17.7,0.4
	c-6.2-1-11-4-13.9-9.8c-1.6-3.3-3.5-6.5-5.2-9.7c-0.5-0.9-0.7-1.7-2.3-1.2c-1.4,0.5-4.4-2.4-4.4-3.9c0-6.1,0-12.1,0-18.2
	c0.2,0,0.3-0.1,0.5-0.1c0.1,0.7,0.3,1.4,0.4,2c0.2,0.7,0.3,1.4,0.6,2.1c0.5,1.2,1.1,2.5,1.7,3.6c1,1.6,2.1,3.2,3,4.8
	c2,3.6,4.1,7.2,6,10.9c2.2,4.3,5.9,5.9,10.3,6.2c6.3,0.4,12.6,0.1,18.9-1C246.1,759,248.3,757.9,250.8,757z"/>
<path class="st0" d="M327.2,79.5c-0.6-0.4-1.3-0.8-1.9-1.3c-13.3-9.8-28.1-16.8-43.7-21.9c-5.3-1.8-10.7-3.4-15.8-5.6
	c-0.5-0.2-1-0.4-1.8-0.8c0.6-0.4,0.9-0.6,1.3-0.8c4.4-1.9,8.9-3.7,13.2-5.7c3.6-1.7,6.9-1.4,10.1,0.9c2.4,1.7,4.9,3.3,7.3,5
	c6.8,4.9,13.6,9.9,20.3,15c2.4,1.8,4.7,3.9,6.8,6C325.3,72.7,326.3,76,327.2,79.5z"/>
<path class="st0" d="M244.2,260.8c-0.5-0.3-1.1-0.6-1.6-1c-4.4-3.4-9.2-6-14.2-8.5c-5.6-2.8-11.5-3.1-17.5-2.3
	c-0.3,0-0.5,0.3-0.8,0.7c2.4,0.2,4.9,0.4,7.4,0.6c-0.1,0.6-0.2,1.1-0.3,1.6c-3.9-0.4-7.6-0.8-11.3-1.2c-1.7-0.2-2.7-1-3.1-2.8
	c-0.5-1.9-1.3-3.8-2.1-5.6c-0.7-1.7-0.4-3.2,0.7-4.5c0.5-0.5,1.3-1,2-1c5.5,0,11.1-0.7,16.5,0.4c5.1,1.1,10.2,2.5,15.3,3.8
	c0.4,0.1,0.8,0.1,1.2,0.1c3.2,0.6,6,2,8.1,4.6c1.6,2.1,2.3,4.3,1.8,6.9c-0.3,1.6-0.4,3.3-0.6,5C245.6,259,245.4,260.1,244.2,260.8z
	 M225.9,246.6c3,0.7,6,1.2,8.9,2.1c2.9,0.9,5.7,2.3,8.5,3.5c0.1-0.2,0.1-0.3,0.2-0.5C238.4,247.3,232.7,245.4,225.9,246.6z"/>
<path class="st0" d="M210.9,234.6c-0.2-4.5,0.6-8.7,2.1-12.7c0.7-1.8,1.6-3.5,2.5-5.2c2.9-5.9,5.5-11.9,7.2-18.3
	c0.5-1.8,0.8-3.6,1.2-5.6c0.9,0.5,1.6,0.9,2.2,1.3c1.7,1.3,3.2,2.7,4.9,3.8c2.1,1.4,2.3,3.2,1.9,5.4c-1,6-2.4,11.9-4.6,17.6
	c-1.9,4.8-3.5,9.8-5.3,14.8C219.2,235.3,215.2,235,210.9,234.6z"/>
<path class="st0" d="M313.6,264.4c0.7-6.1,1.4-11.9,2.1-17.8c0.7-0.2,1.4-0.4,2-0.5c4-0.6,8-1.4,12.1-1.8c1.9-0.2,3.8,0,5.7,0.2
	c1.2,0.1,1.8,0.8,2,2c0.6,4.9,1.3,9.8,2,14.7c0.1,0.8-0.3,1.3-0.8,1.8c-2.6,2.6-5.8,3.4-9.3,2.5c-4-1.1-8-1.4-12.1-0.8
	C316.2,264.8,315.1,264.5,313.6,264.4z"/>
<path class="st0" d="M313.4,266c2.6,0,4.9-0.1,7.1,0c1.8,0.1,3.6,0.3,5.4,0.6c1.4,0.2,2.8,0.7,4.2,0.9c3.1,0.4,6.1,0,8.6-2.1
	c0.2-0.1,0.4-0.2,0.6-0.3c0.1,0,0.1,0,0.4,0.1c0.6,5.3,1.2,10.6,1.8,16c-4.5,2.2-9,3.3-13.8,2.3c-3-0.6-6-0.6-9-1
	c-1.4-0.2-2.8-0.4-4.2-0.6c-1-0.2-1.5-0.8-1.4-1.9C313.2,275.3,313.3,270.6,313.4,266z"/>
<path class="st0" d="M237.4,343.8c-1-3.8-1.4-36.4-0.5-41.6c0.2,0,0.5-0.1,0.6,0c2.4,1.4,5,1.6,7.6,1.4c3.6-0.3,7.1-0.8,10.7-1.1
	c1.1-0.1,2.3,0,3.6,0c-0.5,1.8-0.8,3.3-1.4,4.8c-0.3,0.7-1,1.5-1.7,1.8c-2.9,1.3-4.7,3.4-5.5,6.5c-0.2,0.8-0.8,1.6-1.4,2.1
	c-2.9,2.5-4.6,5.6-6,9.1c-0.9,2.4-2,4.7-2.9,7.1c-0.6,1.6-1.1,3.2-1.3,4.8C239.1,340.4,238.5,342,237.4,343.8z"/>
<path class="st0" d="M224.6,236.2c0.8-2.8,1.5-5.3,2.3-7.7c0.8-2.3,1.8-4.4,2.7-6.7c2.5-6,3.9-12.3,4.2-18.8c0-0.6,0.1-1.1,0.1-2
	c0.6,0.4,1.1,0.7,1.4,1c1.1,1.3,2.2,2.5,3.2,3.8c2.5,3.1,3.7,6.5,3.8,10.5c0.2,5.1,0.3,10-1.2,14.9c-0.9,2.7-2.5,4.8-4.3,6.9
	c-0.3,0.3-1,0.6-1.4,0.5C232,238.1,228.5,237.2,224.6,236.2z"/>
<path class="st0" d="M240,747.1c1,1.7,2,3.5,3,5.2c-1.7,2.4-2.9,2.6-6.9,0.9c-1.2,1-2.5,1.3-4,0.3c-0.4-0.2-1.3,0.2-1.9,0.5
	c-1,0.7-2,0.9-3.2,0.7c-1-0.2-1.9-0.6-2.3-1.8c-0.3-0.9-1.1-1.6-1.6-2.4c-0.2,0.1-0.4,0.2-0.5,0.3c0.5,0.9,0.9,1.7,1.5,2.7
	c-0.1,0.2-0.3,0.4-0.5,0.6c-2,1.7-4.1,1.6-5.6-0.6c-1.1-1.7-1.9-3.7-2.7-5.6c-0.4-1,0-1.9,1-2.7c2.9-2.3,6.2-3.6,9.8-4
	c6.1-0.7,12.3-0.3,18.4,0.1c0.5,0,0.9,0.2,1.2,0.2c1.1,2.2,2,4.2,3,6.2c0.3,0.6,0.7,1.3,0.9,2c0.7,2-1.1,4.4-3.3,4.3
	c-1.3,0-2.1-0.7-2.5-2.1C243.2,750,242.2,748.1,240,747.1z M230.9,752.3c0.2-0.1,0.3-0.2,0.5-0.4c-0.4-0.6-0.9-1.2-1.3-1.8
	c-0.2,0.1-0.3,0.2-0.5,0.4C230.1,751.1,230.5,751.7,230.9,752.3z M235.3,750.5c-0.1,0.1-0.3,0.2-0.4,0.3c0.2,0.3,0.4,0.7,0.6,1
	c0.1-0.1,0.2-0.1,0.3-0.2C235.7,751.2,235.5,750.8,235.3,750.5z"/>
<path class="st0" d="M209,234.9c-1.7,0.2-3.7,0.4-5.5,0.6c-1.5-2.9-1.6-5.7-0.7-8.5c2.2-7.3,4.2-14.6,6.5-21.8
	c1.5-4.6,3.6-9,5.4-13.6c0.4-0.9,0.9-1.9,1.4-3c2.2,1.1,4.2,2.2,6.3,3.2c-0.8,4.6-1.9,9-3.7,13.1c-1.9,4.4-3.8,8.8-5.9,13.1
	c-2.2,4.5-3.4,9.3-3.5,14.3c0,0.7-0.1,1.4-0.1,2.1C209.3,234.6,209.2,234.6,209,234.9z"/>
<path class="st0" d="M382.3,724.8c2.4,3.1,4.8,5.8,7.9,7.9c0.6,0.4,1.1,1,1.5,1.5c0.4,0.5,0.3,0.7-0.2,2c-1.7-1-2.9-2.7-5.3-3.2
	c1.6,2.1,3,4,5.2,4.9c-1,1.8-4,4-6.3,4.6c-0.6-2.7-2.8-3.8-5.1-4.8c-1.5-0.7-3-1.4-4.8-2.2c0.3,1.2,1,1.7,1.7,2.1
	c1,0.7,2.2,1.3,3.3,2c2.9,1.6,3.1,2.1,1.6,5.3c-5.6,0.9-12.8-1.8-19.2-7.4C366.6,729.4,374,726.6,382.3,724.8z M388.3,740.2
	c-1-2.4-2.9-3.1-4.6-4C384.6,738,385.8,739.5,388.3,740.2z"/>
<path class="st0" d="M315.2,125.4c0.1,0,0.2-0.1,0.2,0c4.9,3.9,10.7,6.7,15,11.4c0.7,0.8,1,1.5,1.1,2.5c0.3,3.6-0.6,6.9-2.9,9.7
	c-1.4,1.7-3.4,2.9-5.4,3.9c-2.3,1.1-4.9,1.7-7.7,2.7c0-0.9,0-1.5,0-2.1c0.1-2.6,0.3-5.2,0.2-7.9c0-1.8,0-3.6,0.4-5.4
	c1.1-4.7,1.2-9.3-1-13.8c-0.1-0.2-0.1-0.5-0.2-0.7C315.1,125.5,315.2,125.4,315.2,125.4z"/>
<path class="st0" d="M216.7,187.2c0.6-0.2,1.2-0.5,1.8-0.6c2.1-0.3,4.3-0.4,6.4-0.7c4.4-0.8,8.7,0,13,1c2.1,0.5,3.5,1.7,4.7,3.4
	c1.5,2,2.1,4.2,2.4,6.6c0.3,2.5,0.8,5,1.2,7.6c0.2,1.1,0.3,2.2,0.4,3.1c-1.7-0.3-3.2-0.5-4.7-0.9c-0.5-0.1-0.9-0.6-1.2-1
	c-4.4-6.3-10.4-11-16.9-14.9c-1.7-1-3.7-1.6-5.5-2.3c-0.5-0.2-1-0.4-1.5-0.6C216.8,187.7,216.7,187.5,216.7,187.2z"/>
<path class="st0" d="M226.7,170.3c1.1-2.4,2.8-3.7,5-4.4c4.6-1.4,9.2-1.6,14-1.2c2.6,0.2,5,0.9,7.3,2.2c0.7,0.4,1.5,1,1.9,1.7
	c3.2,5.6,6.5,11.2,11,15.9c0.1,0.1,0.1,0.3,0.2,0.6c-0.6-0.1-1.1-0.1-1.6-0.3c-2.9-1-5.9-2-8.8-3.2c-1.3-0.5-2.6-1.3-3.6-2.3
	c-5-4.1-10.6-7-16.6-9.3c-2.5-0.9-4.9-1.2-7.4-0.1C227.8,170,227.4,170.1,226.7,170.3z"/>
<path class="st0" d="M239.4,733.3c-2.1-0.2-3.8-0.2-5.5-0.4c-4.1-0.5-8.1,0-12.1,0.8c-3.8,0.8-6.8,3.1-9.5,5.7
	c-0.3,0.3-0.5,0.8-0.7,1.2c-0.2-0.1-0.4-0.2-0.6-0.3c-0.2-0.5-0.4-0.9-0.5-1.4c-0.2-1-0.3-2.1-0.5-3.1c-0.4-1.6-0.3-3,0.8-4.3
	c3.7-4.4,7.8-8.2,13.7-9.5c4.4-1,9.1,0.5,11.7,5.3C237,729.4,238.1,731.1,239.4,733.3z"/>
<path class="st0" d="M363,709.6c-10.2,3-18,8.5-20.4,19.5c-2.4-0.6-4.6-1.2-7-1.9c0.3-1.6,0.4-3.2,1-4.6c3.5-9,9.2-15.8,18.6-19
	c0.8-0.3,1.7-0.5,2.6-0.4c0.5,0,1.3,0.4,1.6,0.8C360.6,705.8,361.7,707.6,363,709.6z"/>
<path class="st0" d="M363.4,711.1c2.7,2.3,5.1,4.4,7.6,6.6c-0.4,0.2-0.8,0.5-1.2,0.7c-1.2,0.5-2.4,1-3.5,1.5
	c-5.5,2.5-9.2,6.8-11.6,12.5c-1.7-0.8-3.4-1.6-5.1-2.5c-1.6-0.8-3.2-1.7-5-2.7c1.5-4.5,3.8-8.3,7.8-10.9
	C355.9,714.1,359.7,712.5,363.4,711.1z"/>
<path class="st0" d="M245.4,740c-5.2-0.3-10-0.6-14.8-0.7c-2.1-0.1-4.3,0-6.4,0.3c-4.4,0.6-8,2.7-10.9,5.9c-0.3,0.3-0.6,0.6-0.8,0.8
	c0,0-0.2,0-0.5,0.1c-0.5-1-1-2-1.4-2.9c0.9-1,1.5-2.1,2.4-2.9c3.4-3.3,7.5-5.4,12.3-6c4.5-0.5,8.9-0.5,13.4,0.3
	C241.5,735.5,243.8,737,245.4,740z"/>
<path class="st0" d="M360.8,736.6c-1.7-0.8-3.2-1.6-4.8-2.3c-0.4-1.4,0.3-2.3,0.9-3.2c2.9-4.2,6.3-7.8,11.2-9.8
	c0.5-0.2,1-0.4,1.5-0.7c2.9-1.5,5.6-2,8.1,0.8c0.6,0.6,1.5,0.9,2.6,1.6c-0.9,0.3-1.5,0.6-2.2,0.8c-7.3,1.7-13,5.6-16.8,12.1
	C361.4,736.1,361.2,736.2,360.8,736.6z"/>
<path class="st0" d="M232.7,721.6c-1.4-0.3-2.7-0.7-4.1-0.9c-3.5-0.3-6.7,0.7-9.6,2.5c-4.8,3-9,6.7-11.3,12
	c-0.2,0.4-0.4,0.9-0.7,1.3c-0.1,0.1-0.2,0.2-0.5,0.4c-0.6-0.4-1.2-0.9-1.9-1.4c1.7-4.2,3.4-8.2,6-11.7c0.9-1.2,2.4-2.1,3.7-2.9
	c3.2-1.8,6.6-2.8,10.2-3.4c2.5-0.4,4.8-0.2,6.5,2c0.5,0.7,1.4,1.2,2,1.8C232.9,721.3,232.8,721.5,232.7,721.6z"/>
<path class="st0" d="M243.9,216.6c4.7,9.1,4.5,18.8,2.8,29.1c-2.5-3-5.2-5-8.9-6c2.6-3.4,4.9-6.8,5.7-10.9
	C244.4,224.7,244.2,220.7,243.9,216.6z"/>
<path class="st0" d="M316.4,198.5c3.5-0.3,6.6,0,9.2,2.3c0.5,0.5,1,1.1,1.2,1.7c0.5,2.3,0.7,4.7,1.2,7.6c-4.5-2.9-9.3-1.8-14.1-2.6
	C316,204.7,315.9,201.6,316.4,198.5z"/>
<path class="st0" d="M216.6,755.2c0.3,0.1,0.6,0.2,0.8,0.4c1.7,1.3,3.5,1.4,5.4,0.5c0.8-0.4,1.6-0.9,2.7-0.4c2,1,4,0.7,5.9-0.8
	c1.6,0.6,3.3,1.4,4.9-0.2c2.6,1.4,5.1,1.3,7.2-1.1c1.9,1.4,3.9,2.3,5.8,0.1c0.8,1.5,0.7,2.1-0.7,2.7c-1.5,0.7-3.1,1.3-4.8,1.5
	c-7,1.1-13.9,2-21,1.1c-2.1-0.2-4.1-0.8-5.6-2.5C217.1,756.2,216.9,755.7,216.6,755.2L216.6,755.2z"/>
<path class="st0" d="M337,716.8c-0.9,2-1.8,4-2.7,6c-5.2-0.2-8.7-3.9-8.7-9.1c0-1.9,0.1-3.8,0.2-6.2
	C329.8,710.8,333.4,713.8,337,716.8z"/>
<path class="st0" d="M328.3,699.9c3.2,5.2,7.1,9,12.5,11.6c-1,1.3-1.8,2.5-2.8,3.8c-2.8-1.6-4.9-4-7.3-5.9c-2.8-2.2-4.3-4.8-2.7-8.4
	C328,700.9,328.1,700.6,328.3,699.9z"/>
<path class="st0" d="M316.5,189.1c5.7,4.2,8.3,5.3,8.9,9.3c-2.8-1.4-5.7-1.5-8.9-1.3C316.5,194.4,316.5,191.8,316.5,189.1z"/>
<path class="st0" d="M248.6,223.2c-2-5-4-10.1-5.9-15.1c2,0,4.5,2.2,4.8,4.7c0.5,3.4,0.8,6.9,1.3,10.4
	C248.7,223.2,248.7,223.2,248.6,223.2z"/>
<path class="st0" d="M384.1,744.4c0.5-0.3,1-0.7,1.5-0.7c3.5,0.2,5.2-2.4,7.1-4.6c0.5-0.6,0.9-1.3,1.4-2.1c0.5,0.2,0.9,0.3,1.3,0.6
	c1.5,1.1,1.7,2.1,0.2,3.2c-3.3,2.5-7.1,3.9-11.2,4.2C384.3,744.8,384.2,744.6,384.1,744.4z"/>
<path class="st0" d="M250.4,222.6c-0.4-3.8-0.8-7.5-1.3-11.3c2.6-0.2,3.3,0.4,3,2.5c-0.4,3-0.8,5.9-1.3,8.9
	C250.7,222.6,250.5,222.6,250.4,222.6z"/>
<path class="st0" d="M204.5,720.4c1.1,1.5,1.8,2.4,2.4,3.5c0.3,0.6,0.6,1.4,0.4,2c-0.6,1.8-1.5,3.4-2.5,5.1
	C203.9,727.6,203.9,724.3,204.5,720.4z"/>
<path class="st0" d="M298.2,110.4c1.8,0.9,4.1,0.7,5.5,2.8c-0.8,0.7-1.5,1.4-2.4,2.2c-1.2-1.6-2.3-3.1-3.4-4.6
	C297.9,110.7,298,110.5,298.2,110.4z"/>
<path class="st0" d="M216.7,755.2c-1.9-1.7-2.3-4.3-3.4-6.4c-0.1-0.2,0.3-0.6,0.5-0.9c0.3,0.2,0.6,0.4,0.9,0.6
	c0.1,0.1,0.1,0.5,0.1,0.7C215.4,751.2,216,753.2,216.7,755.2C216.6,755.2,216.7,755.2,216.7,755.2z"/>
<path class="st0" d="M208.8,736.6c0.4,1.8,0.7,3.4,1,4.9C207.4,738.9,207.4,738.8,208.8,736.6z"/>
<path class="st0" d="M347.8,730.9c-3.7-0.8-3.7-0.8-3.3-2.6C345.7,729.2,346.7,730,347.8,730.9z"/>
<path d="M289.9,558.6c-1.3-13.9-1-27.8-0.4-41.7c0.7-18.9,0.6-37.9-0.1-56.8c-0.3-8.6-0.4-17.3-0.8-25.9c-0.3-8.2-0.9-16.4-1.3-24.7
	c0-0.8,0-1.6,0.2-2.4c1.8,8.7,2.6,17.4,3,26.4c0.2-0.4,0.5-0.8,0.6-1.2c3.6-11.7,7.4-23.3,10.8-35c1.8-6.2,3.2-12.5,4.6-18.8
	c0.5-2.2,0.3-4.5,0.5-6.7c0.1-0.9,0.1-1.9,0.4-2.8c0.6,3.1,0.3,6.1,0.1,9.2c-0.5,6.5-2.1,12.8-3.9,19c-2.7,9.1-5.4,18.2-8.3,27.3
	c-0.9,3-2.2,5.8-3.7,8.6c-1,1.8-1.3,3.6-1.2,5.5c0.3,6.6,0.7,13.3,0.8,19.9c0.2,10.5,0.3,21.1,0.1,31.7c-0.3,14.8-1,29.6-1.5,44.3
	c-0.1,5,0.1,9.9,0.1,14.9C290,552.4,289.9,555.5,289.9,558.6z"/>
<path d="M265.3,351.8c1.5,5.5-1.5,40.5-3.8,45.5C262.8,382.1,264.1,366.9,265.3,351.8z"/>
<path d="M320.2,350.4c4.3,14.1,7,28.6,10.1,42.9C328.5,390.7,319.9,354,320.2,350.4z"/>
<path d="M317.2,548c2.2,12.8,4.4,25.7,7.7,38.3c0.1,0.4,0,0.9,0,1.9C320.8,574.7,318.5,561.5,317.2,548z"/>
<path d="M218.5,596.2c1.2-6.6,3.1-13.1,5.3-19.5c0.2,0,0.3,0.1,0.5,0.1c-1.7,6.5-3.5,12.9-5.2,19.4
	C218.8,596.3,218.7,596.3,218.5,596.2z"/>
<path d="M249.8,350.3c-0.8,3.1-1.6,6.1-2.5,9.6C246.9,357.7,248.2,352.4,249.8,350.3z"/>
<path d="M290.3,561.9c0,0.8,0,1.7,0,2.5c0,0,0,0-0.1,0C290.3,563.6,290.3,562.8,290.3,561.9C290.3,561.9,290.3,561.9,290.3,561.9z"
	/>
<path d="M261.5,400.5c0-0.3,0-0.5,0-0.8c0,0,0.1-0.1,0.1-0.1C261.6,399.9,261.6,400.2,261.5,400.5
	C261.5,400.5,261.5,400.5,261.5,400.5z"/>
<path d="M286.8,116.9c0.7,2.3,0,3.8-1.1,5.3c0.5,0.2,0.8,0.3,1.3,0.5c-1.9,1.5-3.5,2.3-5.4,2.2c-0.4,0-0.9-0.2-1.3-0.4
	c0.6-1.7-1.4-1.7-1.8-2.8c-0.3-1.1-0.7-2.2-1.2-3.5c-0.6,0.4-1.2,0.8-1.7,1.1c-0.5,0.3-1,0.7-1.6,1.1c0.8-4.3,6.3-6.4,12.3-5.1
	c-0.6,0.8-1.3,0.5-1.9,0.4c-1.8-0.3-3.3,0.3-4.8,1.1c-0.9,0.4-1.2,1-0.9,1.9c0.5,1.8,1.7,3.1,3.3,3.9c1.1,0.6,2.1,0.2,2.8-1
	C285.3,120.2,285.9,118.8,286.8,116.9z"/>
<path d="M252.6,125.2c-1.1,2.2-0.1,3.7,1.1,5.3c-2.3-0.9-2.6-1.5-2.7-4.9c-0.6-0.1-1.1-0.1-1.8-0.2c2.5-2.2,7-2,8.8,0.4
	c0.4,0.5,0.2,1.4,0.3,2.2c0.2,1.8-0.7,3.1-1.6,4.4c-0.5,0.7-1.2,1.3-2.8,0.4c0.7-0.4,1.3-0.6,1.6-1c0.6-0.6,1.2-1.3,1.6-2.1
	c0.8-1.6,0.1-3.1-1.7-3.7C254.6,125.6,253.6,125.4,252.6,125.2z"/>
<path d="M270.3,111.4c3.2-2.2,6.8-2.5,10.6-2.1C277.5,110.9,273.9,111.2,270.3,111.4z"/>
<path d="M266.5,144.8c3.5-0.9,6.8-1.8,10.3-2.8C274.9,144.1,269.6,145.5,266.5,144.8z"/>
<path d="M267.9,146.4c1.6-0.1,2.8-0.1,4-0.3c1.1-0.2,2.2-0.7,3.5-1.2C273.6,147,270.9,147.6,267.9,146.4z"/>
<path d="M256.3,119.3c0.9,1,1.7,2,2.6,3c-0.1,0.1-0.3,0.2-0.4,0.4c-1-0.9-2-1.8-2.6-3C256,119.6,256.1,119.4,256.3,119.3z"/>
<path d="M225.9,246.6c6.7-1.2,12.5,0.7,17.5,5.1c-0.1,0.2-0.1,0.3-0.2,0.5c-2.8-1.2-5.6-2.5-8.5-3.5
	C231.9,247.8,228.9,247.3,225.9,246.6z"/>
<path d="M230.9,752.3c-0.4-0.6-0.9-1.2-1.3-1.8c0.2-0.1,0.3-0.2,0.5-0.4c0.4,0.6,0.9,1.2,1.3,1.8
	C231.3,752.1,231.1,752.2,230.9,752.3z"/>
<path d="M235.3,750.5c0.2,0.4,0.3,0.7,0.5,1.1c-0.1,0.1-0.2,0.1-0.3,0.2c-0.2-0.3-0.4-0.7-0.6-1
	C235.1,750.7,235.2,750.6,235.3,750.5z"/>
<path d="M388.3,740.2c-2.4-0.7-3.6-2.2-4.6-4C385.4,737.2,387.3,737.8,388.3,740.2z"/>
</svg>
