<?xml version="1.0" encoding="utf-8"?>
<!-- Generator: Adobe Illustrator 19.0.0, SVG Export Plug-In . SVG Version: 6.00 Build 0)  -->
<svg version="1.1" id="图层_1" xmlns="http://www.w3.org/2000/svg" xmlns:xlink="http://www.w3.org/1999/xlink" x="0px" y="0px"
	 viewBox="0 0 595.3 841.9" style="enable-background:new 0 0 595.3 841.9;" xml:space="preserve">
<style type="text/css">
	.st0{fill:#FFFFFF;}
</style>
<path class="st0" d="M1.3,37.4c197.8,0,395.6,0,593.5,0c0,256,0,512,0,768c-197.8,0-395.6,0-593.5,0C1.3,549.4,1.3,293.4,1.3,37.4z
	 M295,161.3c-4.5-0.4-7.7,1.5-10.5,4.4c-0.6,0.6-1.2,1.2-1.7,1.9c-2.5,3-5.5,5.3-9.3,6.1c-0.6,0.1-1.5,0.5-1.7,1
	c-0.8,1.5-2.2,1.9-3.6,2.4c-3.9,1.4-7.7,2.9-11.6,4.1c-9.4,3-17.2,8-22.3,16.8c-2.7,4.6-6,8.9-9.2,13.1
	c-10.6,13.9-21.3,27.8-32.1,41.7c-0.9,1.2-1.2,2.3-0.7,3.6c1.4,3.4,3.1,6.6,5.4,9.5c-0.3,0.9-0.7,1.7-1,2.6
	c-0.5,1.7-1.2,3.5-1.2,5.2c0.1,4.2,1.6,7.9,5,10.6c1.4,1.1,2.9,2.1,4.3,3.2c2.9,2.4,5.9,4.8,8.8,7.3c0.5,0.4,0.9,1.1,1.1,1.7
	c0.9,2.4,0.8,4.8,0.6,7.3c-0.2,2.7-0.3,5.4,0,8.1c0.6,4.9,0.6,9.9,0.5,14.9c0,4.2-0.3,8.4-0.3,12.6c0.1,8.3,0.1,16.6,0.4,24.9
	c0.2,5.1,0.7,10.2,1.2,15.3c0.5,5.4,1.1,10.8,1.1,16.2c0,5.7,0,11.5,1.9,17c0.3,1,0.2,1.7-0.2,2.7c-1.8,4.6-3.6,9.1-5.1,13.7
	c-2.9,9.3-5.6,18.7-8.3,28.1c-1.8,6.4-4,12.7-4.3,19.5c0,0.5-0.6,1.2-1.1,1.6c-1.8,1.4-3.6,2.7-5.4,4c-1.4,1-2.2,2.3-2.6,4
	c-1.8,7.6-3.9,15.2-5.7,22.8c-1.2,4.9-2,9.9-3,14.8c-0.3,1.5,0,2.9,0.7,4.3c0.6,1.1,1.2,2.1,2,3.2c3.2,4.6,6.2,9.3,7.6,14.8
	c0,0.1,0.1,0.3,0.2,0.4c0.6,1.4,1.2,1.6,2.5,0.8c1.5-0.9,2.8-1.8,4.1-2.6c2,0.7,3.6,1.6,5.4,2c3.6,0.8,7,2,9.7,4.6
	c1,1,1.7,0.7,2.4-0.5c0.6-1,1-2.1,1.8-2.9c2.5-2.5,5-5.1,7.7-7.4c9.8-8.4,19.1-17.2,28-26.6c2.3-2.4,4.4-5,6.5-7.6
	c0.3-0.4,0.6-0.7,0.8-1c1,7.3,1.9,14.6,3.1,21.7c0.8,4.7,0.5,9-1.6,13.3c-2.5,5-4.1,10.3-5.1,15.9c-1.2,6.8-1.7,13.7-0.8,20.6
	c0.9,7.1,1.9,14.3,3,21.4c1.4,9,3.4,17.8,6.5,26.4c1.8,5,3.3,10,4.9,15c0.7,2.2,1.1,4.5,1.4,6.8c0.2,1.7,0.2,3.5,0.1,5.3
	c0,1.9-0.2,3.7-0.3,5.6c0,1-0.3,2-0.1,3c0.2,1.1,0.3,2.1,0,3.2c-0.3,0.9-0.1,1.8,0.5,2.6c1.2,1.5,1.8,3.2,1.8,5.2
	c0,1.3,0.2,2.6,0.3,3.9c0,0.3,0,0.6-0.2,0.9c-1.2,2.3-0.5,4.5,0.2,6.7c0.1,0.3,0.2,0.6,0.2,0.9c-0.2,2.5,1.2,4.9,0.3,7.4
	c-0.3,0.8-0.3,1.7-0.3,2.5c0,1-0.3,2.1,0.1,3c0.7,1.5,0.3,2.9,0,4.3c-0.2,1.2-0.6,2.4-0.9,3.6c-1.5,5.6-0.3,10.9,2.9,15.5
	c1.9,2.9,4.3,5.7,7.4,8c-0.7,2.4-1.3,5-2.2,7.5c-2,5.4-4.1,10.7-6.1,16.1c-0.5,1.3-0.7,2.5-0.2,3.8c1.8,4.3,3.7,8.5,7.6,11.5
	c1.3,1,2.5,2.1,3.7,3.2c1.3,1.2,2.7,1.5,4.3,0.7c0.8-0.4,1.6-0.7,2.3-1.2c4-3,7.8-6.1,10.8-10.2c1.8-2.4,2.6-5,2.6-8
	c-0.1-6.5-0.3-12.9-0.6-19.4c-0.1-1.2,0.2-2.4,0.4-3.7c0.2-1.8,0.5-3.7,0.7-5.5c0.2-1.8,0.4-3.5,0.5-5.3c0-0.8,0.1-1.9-0.3-2.5
	c-1.2-1.7-0.6-3.4-0.2-5.1c0.1-0.4,0.6-1,1-1.1c1.4-0.5,2-1.7,2.3-3c0.6-2.6,1.2-5.1,1.7-7.7c0.6-2.8,0.1-5.5-0.8-8.1
	c-0.2-0.5-0.1-1.1,0-1.6c1.1-5.6,2.2-11.1,3.2-16.7c0.2-0.8,0.4-1.4,1.3-1.7c1-0.3,1.3-1.1,1.5-2.1c0.3-1.6,0.5-3.3,1.3-4.7
	c1.6-3,2.2-6.3,2.4-9.6c0.5-9.5,2.1-18.8,3.6-28.1c1.7-10.7,4.6-21.2,5.1-32.1c0.3-8.2,0.3-16.3-0.5-24.4
	c-0.6-5.8-1.2-11.6-1.5-17.4c-0.2-2.8-0.1-5.8,0.4-8.6c0.5-2.9,1.7-5.8,2.7-8.6c0.8-2.3,1.2-4.6,0.2-7c-0.6-1.4-1-2.9-1.4-4.4
	c-0.1-0.6-0.2-1.2,0-1.8c1.8-7.7,3.7-15.4,5.4-23.1c1.7-7.9,3.1-15.8,5-23.7c3.2-13.5,7.8-26.6,13.3-39.4c1.2-2.8,2.2-5.5,3.8-8.2
	c2-3.3,4.3-6.5,6.9-9.3c1.1-1.3,1.8-2.7,1.7-4.5c-0.2-2.7-0.4-5.4-0.6-8.1c-0.1-0.8,0-1.5,0-2.3c0.1-1,0.3-2,0.3-3
	c0-14.1-0.1-28.2-0.1-42.4c0-2.1,0-4.2,0-6.2c1.2-0.9,2.4-1.7,3.4-2.6c1.6-1.5,2.3-3.3,1.3-5.4c-0.7-1.6-1.6-3.1-2.6-4.6
	c-0.8-1.3-1.8-2.5-2.8-3.9c2.2-1.7,4.1-3.5,6.6-4.4c1-0.4,2-0.9,2.9-1.4c0.8-0.4,1.1-1.1,1-2.1c-0.2-2.3-1.1-4.3-2.2-6.3
	c-0.6-1.1-0.7-2-0.1-3.1c1.3-2.2,2.4-4.6,4-6.5c1.9-2.4,4.2-4.4,6.3-6.5c3.6-3.6,7.3-7.2,10.8-10.9c3.1-3.4,5.8-7,8-11.1
	c2-3.7,1.4-7-1.2-10.1c-0.8-0.9-1.5-1.8-2.4-2.8c0.8-1.2,1.4-2.5,2.4-3.5c3.8-4.1,3.9-9.9,0.1-14c-2.9-3.1-5.9-6.2-8.8-9.2
	c-2.8-2.8-5.2-6-7.3-9.4c-2.9-4.8-5.7-9.8-8.8-14.5c-2.9-4.5-5.1-9.4-8.7-13.5c-1.3-1.5-2.5-3.2-3.6-4.8c-1.1-1.5-2.3-2.6-4.2-3
	c-0.8-0.1-1.5-0.7-2.1-1.2c-5-4.2-10.5-7.4-16.7-9.3c-0.8-0.2-1.4-0.5-1.7-1.4c-0.7-2.1-2.1-3.7-3.8-5.2c-4.6-4-9-8-12.3-13.3
	c-1.1-1.7-2.7-2.7-4.7-3.3c-1.4-0.4-2.8-0.8-4.3-1.3c0-1.3,0-2.5,0-3.8c0-1.5,0.7-2.5,2.1-3.3c1.3-0.7,2.5-1.6,3.3-2.7
	c1.4-1.9,2.5-4,3.7-6c0.7,1.1,1.5,2.4,2.4,3.7c0-4.5,0.2-8.7,0.8-13c0.3-2.3,1-4.5,2-6.6c0.8-1.7,1.4-3.6,1.8-5.5
	c0.3-1.2,0.3-2.5,0.4-3.7c0.2-1.8,0.2-1.9-1.8-2.6c0.5-0.7,1-1.4,1.4-2c0.8,0.5,1.4,0.9,2,1.4c0.1-0.3,0.2-0.3,0.2-0.4
	c-0.1-0.2-0.1-0.5-0.3-0.6c-1.2-1.6-1-3.4-0.8-5.3c0.7-6.4,1.2-12.8,1.7-19.2c0.3-3.3-0.9-6-3.8-7.7c-1.5-0.9-3.1-1.7-4.3-2.3
	c-0.7-1.4-1.2-2.6-1.8-3.6c-0.4-0.6-1.1-1-1.5-1.6c-2.4-3.2-5.2-5.7-9-7.1c-4.5-1.6-9.1-1.9-14-1.2c-7.7,1.1-13.5,4.7-17.9,11.2
	c-2.8,4.2-4.7,8.4-5.2,13.4c-0.4,4.9-1.1,9.7-1.8,14.5c-0.6,3.8-0.9,7.7-3.7,10.8c0,0,0.1,0.2,0.2,0.3c2.8-0.4,3.8-2.8,5.3-5.3
	c0.3,3.8-1.1,6.6-1.6,9.8c0.7-0.3,1.2-0.6,1.9-0.9c-0.1,1.2-0.3,2.1-0.3,3c-0.2,3.1-0.5,6.2-0.6,9.3c-0.1,1.7,0.6,3.4-0.1,5.1
	c-0.1,0.3,0,1,0.2,1.1c0.9,0.5,0.5,1.2,0.4,1.8c-0.3,3.3,0.1,6.5,0.5,9.7c0.9-2.3,1.7-4.6,2.4-6.9c0.8-2.4,1.6-4.7,3.1-7.2
	c0.6,1.5,1,2.4,1.4,3.4c1.1,2.8,2.6,5.3,4.8,7.3c2.3,2.1,3.1,4.9,3.9,7.7C295,158.4,294.9,159.8,295,161.3z"/>
<path d="M295,161.3c-0.1-1.5-0.1-2.9-0.4-4.2c-0.8-2.8-1.6-5.6-3.9-7.7c-2.2-2-3.7-4.5-4.8-7.3c-0.4-1-0.8-2-1.4-3.4
	c-1.5,2.5-2.3,4.9-3.1,7.2c-0.8,2.3-1.5,4.6-2.4,6.9c-0.4-3.2-0.9-6.5-0.5-9.7c0.1-0.7,0.5-1.3-0.4-1.8c-0.2-0.1-0.3-0.8-0.2-1.1
	c0.7-1.7,0-3.4,0.1-5.1c0.1-3.1,0.4-6.2,0.6-9.3c0.1-0.9,0.2-1.8,0.3-3c-0.7,0.3-1.2,0.6-1.9,0.9c0.5-3.2,1.9-6,1.6-9.8
	c-1.5,2.5-2.5,4.9-5.3,5.3c0-0.1-0.2-0.3-0.2-0.3c2.8-3.1,3.1-7,3.7-10.8c0.8-4.8,1.4-9.7,1.8-14.5c0.5-5,2.4-9.2,5.2-13.4
	c4.4-6.5,10.2-10.1,17.9-11.2c4.8-0.7,9.4-0.4,14,1.2c3.8,1.3,6.6,3.9,9,7.1c0.4,0.6,1.1,1,1.5,1.6c0.6,1.1,1.1,2.2,1.8,3.6
	c1.2,0.6,2.7,1.4,4.3,2.3c2.9,1.7,4.1,4.4,3.8,7.7c-0.5,6.4-1,12.8-1.7,19.2c-0.2,1.9-0.4,3.7,0.8,5.3c0.1,0.2,0.2,0.4,0.3,0.6
	c0,0.1-0.1,0.1-0.2,0.4c-0.6-0.4-1.2-0.8-2-1.4c-0.5,0.7-0.9,1.3-1.4,2c1.9,0.7,2,0.8,1.8,2.6c-0.2,1.2-0.1,2.5-0.4,3.7
	c-0.5,1.9-1,3.7-1.8,5.5c-1,2.1-1.7,4.3-2,6.6c-0.6,4.3-0.8,8.5-0.8,13c-0.8-1.3-1.7-2.6-2.4-3.7c-1.2,2-2.3,4.1-3.7,6
	c-0.8,1.1-2.1,2.1-3.3,2.7c-1.4,0.8-2.1,1.7-2.1,3.3c0,1.2,0,2.5,0,3.8c1.5,0.4,2.9,0.9,4.3,1.3c1.9,0.6,3.6,1.6,4.7,3.3
	c3.2,5.2,7.7,9.3,12.3,13.3c1.7,1.4,3.1,3.1,3.8,5.2c0.3,0.8,0.8,1.1,1.7,1.4c6.2,1.9,11.8,5.1,16.7,9.3c0.6,0.5,1.4,1.1,2.1,1.2
	c1.9,0.3,3.2,1.5,4.2,3c1.2,1.6,2.3,3.3,3.6,4.8c3.5,4.1,5.8,9,8.7,13.5c3,4.8,5.9,9.7,8.8,14.5c2.1,3.4,4.5,6.5,7.3,9.4
	c3,3,5.9,6.1,8.8,9.2c3.8,4.1,3.7,9.9-0.1,14c-0.9,1-1.6,2.2-2.4,3.5c0.9,1.1,1.6,2,2.4,2.8c2.7,3.1,3.2,6.3,1.2,10.1
	c-2.1,4.1-4.9,7.8-8,11.1c-3.5,3.8-7.2,7.3-10.8,10.9c-2.1,2.2-4.4,4.2-6.3,6.5c-1.6,2-2.7,4.3-4,6.5c-0.6,1-0.5,2,0.1,3.1
	c1.1,2,2,4,2.2,6.3c0.1,1-0.2,1.7-1,2.1c-0.9,0.5-1.9,1.1-2.9,1.4c-2.6,0.9-4.5,2.7-6.6,4.4c1,1.4,2,2.6,2.8,3.9
	c0.9,1.5,1.8,3,2.6,4.6c1,2.1,0.3,4-1.3,5.4c-1,0.9-2.2,1.7-3.4,2.6c0,2,0,4.1,0,6.2c0.1,14.1,0.1,28.2,0.1,42.4c0,1-0.2,2-0.3,3
	c-0.1,0.8-0.1,1.5,0,2.3c0.2,2.7,0.4,5.4,0.6,8.1c0.1,1.7-0.5,3.2-1.7,4.5c-2.6,2.9-4.8,6-6.9,9.3c-1.6,2.6-2.6,5.4-3.8,8.2
	c-5.5,12.8-10.1,25.9-13.3,39.4c-1.9,7.8-3.2,15.8-5,23.7c-1.7,7.7-3.6,15.4-5.4,23.1c-0.1,0.6-0.1,1.2,0,1.8c0.4,1.5,0.8,3,1.4,4.4
	c1,2.4,0.5,4.7-0.2,7c-1,2.9-2.1,5.7-2.7,8.6c-0.5,2.8-0.6,5.7-0.4,8.6c0.4,5.8,1,11.6,1.5,17.4c0.8,8.1,0.8,16.2,0.5,24.4
	c-0.5,10.9-3.3,21.4-5.1,32.1c-1.5,9.3-3.1,18.7-3.6,28.1c-0.2,3.3-0.8,6.6-2.4,9.6c-0.7,1.4-1,3.1-1.3,4.7c-0.2,1-0.5,1.9-1.5,2.1
	c-1,0.3-1.2,0.9-1.3,1.7c-1.1,5.6-2.2,11.1-3.2,16.7c-0.1,0.5-0.2,1.1,0,1.6c0.9,2.6,1.4,5.3,0.8,8.1c-0.5,2.6-1.1,5.1-1.7,7.7
	c-0.3,1.3-0.9,2.4-2.3,3c-0.4,0.2-0.9,0.7-1,1.1c-0.4,1.7-1,3.4,0.2,5.1c0.4,0.6,0.4,1.6,0.3,2.5c-0.1,1.8-0.3,3.5-0.5,5.3
	c-0.2,1.8-0.5,3.7-0.7,5.5c-0.1,1.2-0.4,2.5-0.4,3.7c0.3,6.5,0.5,12.9,0.6,19.4c0.1,3-0.8,5.6-2.6,8c-3,4.1-6.8,7.2-10.8,10.2
	c-0.7,0.5-1.5,0.8-2.3,1.2c-1.6,0.7-3,0.5-4.3-0.7c-1.2-1.1-2.4-2.2-3.7-3.2c-3.9-2.9-5.8-7.1-7.6-11.5c-0.5-1.3-0.3-2.6,0.2-3.8
	c2.1-5.4,4.2-10.7,6.1-16.1c0.9-2.5,1.5-5,2.2-7.5c-3.1-2.3-5.4-5.1-7.4-8c-3.1-4.6-4.3-9.9-2.9-15.5c0.3-1.2,0.7-2.4,0.9-3.6
	c0.3-1.4,0.7-2.8,0-4.3c-0.4-0.8-0.1-2-0.1-3c0-0.8,0-1.7,0.3-2.5c0.8-2.5-0.5-5-0.3-7.4c0-0.3-0.1-0.6-0.2-0.9
	c-0.7-2.2-1.4-4.5-0.2-6.7c0.1-0.3,0.2-0.6,0.2-0.9c-0.1-1.3-0.3-2.6-0.3-3.9c0-2-0.5-3.7-1.8-5.2c-0.7-0.8-0.8-1.7-0.5-2.6
	c0.4-1.1,0.2-2.1,0-3.2c-0.2-1,0.1-2,0.1-3c0.1-1.9,0.2-3.7,0.3-5.6c0-1.8,0.1-3.6-0.1-5.3c-0.3-2.3-0.7-4.6-1.4-6.8
	c-1.5-5-3.1-10.1-4.9-15c-3.1-8.6-5.1-17.4-6.5-26.4c-1.1-7.1-2.1-14.3-3-21.4c-0.9-6.9-0.4-13.8,0.8-20.6c1-5.5,2.6-10.8,5.1-15.9
	c2.1-4.3,2.4-8.6,1.6-13.3c-1.2-7.2-2.1-14.4-3.1-21.7c-0.2,0.3-0.5,0.7-0.8,1c-2.2,2.5-4.2,5.2-6.5,7.6c-8.8,9.4-18.2,18.2-28,26.6
	c-2.7,2.3-5.2,4.9-7.7,7.4c-0.8,0.8-1.3,1.9-1.8,2.9c-0.7,1.2-1.3,1.5-2.4,0.5c-2.8-2.6-6.1-3.8-9.7-4.6c-1.8-0.4-3.5-1.3-5.4-2
	c-1.3,0.8-2.7,1.8-4.1,2.6c-1.4,0.8-1.9,0.6-2.5-0.8c-0.1-0.1-0.1-0.3-0.2-0.4c-1.4-5.5-4.4-10.2-7.6-14.8c-0.7-1-1.3-2.1-2-3.2
	c-0.8-1.3-1.1-2.7-0.7-4.3c1-4.9,1.9-9.9,3-14.8c1.8-7.6,3.8-15.2,5.7-22.8c0.4-1.7,1.2-3,2.6-4c1.8-1.3,3.6-2.6,5.4-4
	c0.5-0.4,1.1-1,1.1-1.6c0.4-6.7,2.5-13.1,4.3-19.5c2.7-9.4,5.4-18.8,8.3-28.1c1.5-4.7,3.3-9.2,5.1-13.7c0.4-0.9,0.5-1.7,0.2-2.7
	c-1.8-5.5-1.8-11.3-1.9-17c0-5.4-0.6-10.8-1.1-16.2c-0.5-5.1-1-10.2-1.2-15.3c-0.3-8.3-0.4-16.6-0.4-24.9c0-4.2,0.2-8.4,0.3-12.6
	c0-5,0-9.9-0.5-14.9c-0.3-2.7-0.2-5.4,0-8.1c0.2-2.5,0.3-4.9-0.6-7.3c-0.2-0.6-0.6-1.2-1.1-1.7c-2.9-2.5-5.8-4.9-8.8-7.3
	c-1.4-1.1-2.9-2.1-4.3-3.2c-3.4-2.7-4.9-6.4-5-10.6c0-1.7,0.7-3.5,1.2-5.2c0.2-0.9,0.6-1.7,1-2.6c-2.4-2.9-4-6.1-5.4-9.5
	c-0.6-1.4-0.3-2.4,0.7-3.6c10.7-13.8,21.5-27.7,32.1-41.7c3.2-4.3,6.5-8.5,9.2-13.1c5.1-8.8,12.9-13.8,22.3-16.8
	c3.9-1.2,7.8-2.7,11.6-4.1c1.4-0.5,2.8-1,3.6-2.4c0.3-0.5,1.1-0.8,1.7-1c3.9-0.9,6.8-3.1,9.3-6.1c0.5-0.7,1.1-1.3,1.7-1.9
	C287.3,162.8,290.5,160.8,295,161.3z M279.1,106.2c-0.2,0.2-0.6,0.3-0.7,0.5c-0.2,1-0.3,2.1-0.5,3.1c0.1,0,0.2,0,0.3,0.1
	C278.5,108.6,278.8,107.4,279.1,106.2c-0.1-1.7-0.1-3.3-0.1-5c0.2-0.3,0.6-0.5,0.7-0.8c0.2-1,0.4-2,0.6-3c1-4.6,2.7-8.9,6-12.4
	c0.3-0.3,0.7-0.4,1.1-0.7c0,0.6-0.2,0.9-0.4,1.3c-2.5,3.6-4.5,7.4-5,11.9c-0.7,5.6-2.1,11.1-1.8,16.8c0.1,1.3-0.2,2.6-0.4,4.4
	c1.6-1.5,2-3,2.3-4.5c0.6-2.5,1-5,1.5-7.5c0.1-0.5,0.3-1,0.5-1.6c0.5,4.6-0.1,8.9-2.2,12.9c-0.8,1.6-1.4,3.1-1.6,4.8
	c-0.3,2.4-0.6,4.8-0.9,7.1c-0.1,0.9-0.1,1.9-0.1,2.8c0,0.9,0,1.7,0,2.6c0.6-0.4,0.9-0.8,1.1-1.2c2.6-4.9,5.2-9.9,7.9-14.7
	c4.4-7.9,9.2-15.6,15.5-22.3c1.6-1.7,3.2-3.3,4.9-4.9c0.6-0.6,1.5-0.9,2.2-1.4c-4.4,4.7-8.4,9.6-12.2,14.7
	c-3.7,5.1-6.7,10.6-9.5,16.3c1.8-0.5,3.5-1.2,5-2c7.3-3.7,13.8-8.6,19.6-14.4c3.8-3.7,7.6-7.6,9.3-12.9c0-0.1,0.3-0.1,0.5-0.2
	c-0.1,4.9-2.6,8.9-4.3,13.2c5-3.5,5.7-9.2,7.3-14.4c0.2,2.6,0.2,5.1,0.4,7.6c0.2,2.6,0.7,5.1,1.9,7.4c1.1,2.2,1.9,4.6,4,6.6
	c0.2-1.5,0.4-2.7,0.6-3.9c0.7-5.6,1.4-11.2,1.1-16.9c-0.2-4.3-3.8-7.9-8-8.2c-0.9-1.5-1.7-2.8-2.5-4.2c-2.2-4-5.5-6.6-9.8-8.1
	c-6.3-2.1-12.5-1.3-18.7,0.5c-3.1,0.9-5.6,2.6-7.6,5.1c-1.9,2.5-3.6,5-5.5,7.5c-1.8,2.4-2.6,5.1-2.8,8c-0.2,2.9-0.5,5.8-0.7,8.8
	C279,102.9,279,104.6,279.1,106.2z M350.7,436.8c-2.2,2.3-4.4,4.6-7.1,6.2c-0.5,0.3-1,0.5-1.5,0.6c-1.6,0.4-2.7-0.5-2.3-2.1
	c0.3-1.2,0.9-2.5,1.8-3.5c1.9-2,3.9-4,6.1-5.7c3.4-2.6,7-4.9,10.5-7.3c0.9-0.7,1.9-1.4,2.7-2.2c1.9-2.1,3.6-4.2,5.5-6.3
	c1.1-1.2,1.5-2.4,1.5-4c0.2-6.6-0.7-13.1-2.2-19.6c-0.7-2.9-1.6-5.8-2.3-8.7c-0.4-1.6-0.6-3.2-1.1-4.7c-1.3-4.5-2.8-8.9-4.1-13.3
	c-1.3-4.2-2.6-8.4-3.9-12.7c-0.8-2.6-1-5.2-0.3-7.8c0.2-0.7,0-1.7-0.3-2.4c-1-3-2-6-2.3-9.2c0-0.5-0.2-1-0.3-1.7
	c-0.9,0.2-1.7,0.4-2.4,0.5c-1.7,0.2-3.4,0.6-5.1,0.6c-3.5,0-7-0.1-10.5-0.2c-3.6-0.1-3.6-0.2-4.4-3.6c-0.8,0.1-1.6,0.1-2.5,0.2
	c0.3,2.3,0.6,4.4,0.9,6.4c0.9,6.3,1.6,12.6,1.5,19c-0.1,5.6,0.3,11.2,0.5,16.7c0.2,3.8,0.5,7.6,0.6,11.4c0,1.2-0.1,2.5-0.4,3.7
	c-0.3,1.2-1.3,1.4-2.4,1.4c-1.1-0.1-1.8-0.5-2-1.6c-0.1-0.6-0.2-1.2-0.1-1.8c0.4-5.8,0.8-11.6,0.3-17.4c-0.3-3.3-0.3-6.7-0.6-10
	c-0.4-4.8-0.3-9.6-1.5-14.3c-0.9-3.5-1.8-7.1-2.6-10.6c-0.1-0.5-0.3-0.9-0.5-1.5c-0.6,0.4-1.1,0.6-1.5,1c-1.1,0.9-2.5,1.2-4-0.3
	c-1.2-1.2-2.3-1.3-3.7-1.3c-1.9,0-3.7,0-5.6,0.2c-5.8,0.7-11.6,1.3-17.4,1.3c-0.9,0-1.8,0.1-2.8,0.1c0,1.7,0,3.3,0,5.2
	c-0.9,0.4-2,0.9-3.1,1.2c-6,1.5-11.9,0.9-17.3-2.2c-1.7-1-3.3-2.1-4.9-3.1c-0.4-0.3-0.9-0.4-1.4-0.7c-0.1,0.4-0.1,0.7-0.1,0.9
	c-0.6,8.2-2.9,15.9-7,23.2c-3.8,6.9-7.6,13.9-10.1,21.4c-1.6,4.9-3.3,9.9-5,14.8c-1.7,4.9-2.1,9.8-1.4,15c0.8,5.8,3.2,10.8,6.2,15.6
	c2,3.3,4.6,6.3,7.2,9.8c-0.4-1.7-0.6-3.1-1-4.4c-2.2-8.5-5-16.8-8.5-24.8c-0.2-0.5-0.7-1,0.1-1.7c0.2,0.4,0.4,0.6,0.5,0.9
	c3.3,6.3,5.6,12.9,7.7,19.7c1.6,5,2.8,10.1,3,15.5c0,1.4,0.5,2.7,0.9,4.1c0.4,1.3,0.8,2.7,1.2,4c1.7,5.2,3.3,10.3,5,15.5
	c1.6,4.9,3.8,9.8,4.7,14.8c1.6,8.5,2.6,17.2,3.7,25.7c1.1,8.3,2,16.6,3.3,24.9c0.6,4.3,0.4,8.3-1.4,12.2c-1.4,3-2.4,6.2-3.5,9.4
	c-2.9,8.7-3.7,17.8-2.8,26.9c0.6,6.4,1.7,12.8,2.7,19.1c1.5,9.6,3.3,19.1,6.6,28.3c1.8,4.9,3.3,9.8,4.9,14.8c0.5,1.5,0.8,3,1.1,4.2
	c3.8,0.3,7.4,0.5,11,0.7c0-1,0.1-2.1,0-3.2c-0.8-10.5-1.5-21-2.3-31.5c-0.8-10.6-0.6-21.1,1.3-31.5c1-5.5,2.1-11,3-16.5
	c1.5-8.7,1.1-17.5,1.8-26.2c0.6-7.4,1.3-14.8,2.2-22.2c1.2-10.1,3.8-19.9,6.5-29.7c4-14.6,8-29.3,11.2-44.2c3.3-15,6.5-30,9.8-45
	c0.1-0.5,0.4-1,0.5-1.5c0.2,0,0.3,0.1,0.5,0.1c-0.6,3.2-1.1,6.4-1.7,9.5c-1.7,8.3-3.6,16.7-5.3,25c-2.9,13.9-5.7,27.8-9.3,41.5
	c-0.5,1.9-1.2,3.6-0.7,5.8c0.5,2.5,0.3,5.1,0.5,7.6c0.6,8.4,1.7,16.8,1.9,25.3c0.4,12.7,0.2,25.4,0.3,38.2c0,6.8,0.1,13.6,0.2,20.5
	c0.1,9.1,0.5,18.3-0.6,27.4c-1.3,10.8-2.2,21.6-3,32.4c-0.7,9-1.2,18.1-0.4,27.2c0.4,4.7,0.7,9.4,1,14.1c0,0.5,0,1,0,1.9
	c5-2.7,9.6-1.8,14.2,0.5c0.3-0.9,0.4-1.4,0.6-2c0.5-1.5,0.8-3.2,1.5-4.6c1-2,1.6-4,1.8-6.2c0.6-8.6,1.7-17.1,3.1-25.6
	c2-12.1,5.5-23.9,5.9-36.2c0.2-5.8,0.3-11.6,0-17.4c-0.4-6.8-1.2-13.6-1.9-20.4c-0.8-7.8-0.3-15.3,3-22.5c1.4-3.1,1-5.9-0.9-9.4
	c-2,5.5-5.6,10.1-7.6,15.7c1-0.1,1.6-0.2,2.5-0.3c-0.3,0.4-0.4,0.6-0.6,0.7c-1,0.5-1.8,2-3,1.1c-1.1-0.9-0.3-2.2,0.1-3.2
	c1-2.3,2.1-4.5,3.4-6.6c3.6-6.4,6.2-13.2,7.6-20.4c1.7-8.7,3.5-17.5,5.3-26.2c4-19.5,10.1-38.2,18.4-56.2c0.2-0.5,0.3-1.1,0.5-1.7
	c-2.2,1-4.1,2.1-5.9,3.4c-3,2.4-6,4.9-8.9,7.5c-1.2,1.1-2.2,2.3-2.5,4.6C344.7,440.5,347.5,438.4,350.7,436.8z M274.9,251.7
	c0.2,0,0.3,0,0.5,0c0.1,0.5,0.3,1,0.3,1.6c0.1,0.6,0.1,1.2,0,1.9c-0.8,7.8-1.8,15.5-3.4,23.2c-2.8,12.6-5.6,25.3-8.2,37.9
	c-1.1,5-1.6,10.1-1.3,15.2c0.1,1.8,0.8,2.8,2.3,3.6c4.1,2.1,8.5,2.9,13.1,2.4c1.7-0.2,3.5-0.4,5.1-1.4c0.3-7-0.5-13.8-1.5-20.7
	c-1.3-9.5-2.2-18.9-2.1-28.5c0-4.1,0-8.2-0.2-12.3c-0.3-6.5-0.2-13,0.6-19.5c0-0.4,0.3-0.7,0.6-1.3c0.2,0.6,0.3,0.8,0.3,1
	c-0.1,3.2-0.3,6.3-0.3,9.5c0.1,10,0.3,20,0.5,30c0.1,3,0.3,6,0.5,9.1c0,0.4,0.3,0.7,0.5,1.1c0.5-1.7,0.8-3.3,0.8-4.9
	c-0.2-4.7,0.9-9.2,2.2-13.7c4.8-15.5,8.8-31.2,12.1-47c0.8-3.7,1.6-7.4,1.3-11.3c-0.1-1.2-0.4-2.2-1.4-3c-3.4-2.7-6.8-5.4-10.3-8
	c-2.2-1.7-3.7-3.7-4-6.5c-0.1-0.7-0.3-1.3-0.5-2.1c-3.2-0.3-6-0.1-8.2,2.4c-0.6,0.7-1.3,1.4-1.9,2c-7.3,6.9-13.1,14.8-16.9,24.2
	c-1.3,3.2-1.8,6.1-0.9,9.4c1.3,4.5,2.3,9.1,5.1,12.9c2,2.7,1.9,5.3,0.5,8c-0.8,1.5-1.8,2.9-2.7,4.3c-3,4.5-6.2,8.9-9,13.5
	c-4.6,7.4-8,15.4-9.5,24.1c-0.2,1.1-0.5,2.3-0.7,3.4c-0.3,2-0.6,4-0.9,6.3c3-1.1,5.4-1,8,0.1c2.9,1.3,5.3,3.1,7.3,5.6
	c2.1,2.6,4.3,5.1,7.1,7c0.4,0.3,0.8,0.4,1.1,0.6c0.4-4.2,0.4-8.4,1.1-12.4c1.8-9.7,3.9-19.3,6-28.9c2.5-11.2,5.2-22.3,6.5-33.8
	C274.5,255.2,274.7,253.5,274.9,251.7z M326.2,251.3c0.2,0,0.4,0,0.5,0c0.4,4.5,1.1,9,1.2,13.5c0.3,9,0.2,18,0.4,27
	c0.2,7.9,0.5,15.8,0.8,23.7c0.2,4.9,0.6,9.8,0.8,14.6c0,0.5,0.1,1,0.2,1.6c0.4,0.1,0.7,0.2,1,0.2c3.8,0.1,7.6,0.3,11.4,0.4
	c5.8,0.1,11.3-1.2,16.5-4.1c2.8-1.5,6-2.6,9-3.7c2.2-0.8,4.6-0.8,6.8,0c0.6,0.2,1.1,0.3,1.9,0.5c-0.2-0.6-0.3-1-0.4-1.3
	c-1.2-2.7-2.5-5.3-3.5-8.1c-2-5.7-3.9-11.4-5.6-17.2c-2.9-9.3-6.8-18-14.5-24.5c-2.5-2.1-4.1-5-5.3-8.1c-0.9-2.5-1.1-5,0.5-7.3
	c0.3-0.4,0.4-0.8,0.5-1.3c1.2-3.4,2.4-6.9,3.7-10.3c0.8-2.1,1.6-4.1,2.3-5.9c-0.9-1.5-1.6-2.8-2.2-4c-3.6-6.3-7.1-12.5-10.7-18.8
	c-1.6-2.8-4.1-4.9-6.5-6.9c-0.4-0.4-1.1-0.7-1.7-0.7c-1.7-0.1-3.4,0-5.1,0c-0.3,1-0.5,1.9-0.8,2.7c-1.1,3.4-2.9,6.2-6.1,8.2
	c-2.6,1.6-5,3.5-7.7,5.4c0.2,1,0.4,2.2,0.6,3.3c2.3,10.1,4.6,20.2,7,30.3c1.9,8.1,4,16.1,4.6,24.4c0.1,1.6,0.4,3.2,0.7,4.7
	c0.4-0.4,0.4-0.8,0.4-1.1c0-5.6,0-11.2-0.2-16.8c-0.1-3.8-0.4-7.6-0.6-11.4c-0.2-2.6-0.3-5.3-0.5-7.9
	C325.8,252.2,326.1,251.7,326.2,251.3z M225.1,217.4c0.2,0.1,0.4,0.2,0.6,0.3c-0.5,1-0.8,2.1-1.4,3c-3.9,6.8-7.7,13.7-11.7,20.3
	c-4.9,8.1-9.2,16.5-13.2,25.1c-0.5,1-0.8,2.1-1.2,3.1c1.2,0.1,2,0,2.8,0.1c4.5,0.9,9,1.4,13.6,1.1c2.3-0.2,4.6-0.4,7-0.4
	c6.3,0,12-1.7,17.4-5.1c2.4-1.5,5-2.9,7.5-4.2c3.1-1.7,6.3-3,9.9-2.8c0.1,0,0.2-0.2,0.3-0.2c-0.9-2.4-1.9-4.7-2.6-7.2
	c-2.5-8.5-3.5-17.3-4.2-26.1c-0.3-3.7-0.5-7.4-0.8-11.1c-0.4-4.5-1-8.9-1.4-13.4c0-0.4,0.1-0.7,0.2-1.1c3.3,12.5,3,25.5,5.4,38.1
	c0.5-0.6,0.9-1.3,1.2-2c1.5-3,2.9-6.2,4.6-9.1c3.1-5.2,7.1-9.8,11.6-13.9c0.5-0.5,0.9-1,1.4-1.5c-1.5,0.5-2.7,1.4-3.8,2.3
	c-1.1,0.8-2.2,1.7-3.4,2.4c-0.8,0.5-1.7,0.9-2.9-0.1c0.8-12.5,3.9-24.7,8-36.9c-5.6,2-10.9,4-16.2,5.8c-7.6,2.6-13.3,7.3-17.6,14.1
	c-3.2,5-6.7,9.9-10.3,14.6c-10.4,13.7-20.9,27.4-31.4,41c-0.8,1-0.9,1.9-0.3,3c1.2,2.1,2.3,4.2,3.5,6.3c0.2,0.4,0.6,0.7,1,1.1
	c2.8-5.4,5.4-10.8,8.2-16c2.9-5.2,6-10.3,9.1-15.4C218.8,227.4,221.7,222.3,225.1,217.4z M299.8,684.3c0.3-0.4,0.5-0.6,0.6-0.9
	c1-3.3,2-6.5,2.9-9.8c0.3-1.2,0.7-2.7,0.2-3.6c-0.7-1.3-0.4-2.5-0.5-3.8c-0.1-2.6-0.2-5.1-0.4-7.7c-0.3-5.9-0.9-11.8-0.8-17.6
	c0.1-7.3,0.5-14.6,1-21.8c0.5-7.3,1.3-14.5,2.1-21.7c0.9-8.6,1.7-17.1,1.4-25.7c-0.2-8.1-0.2-16.1-0.3-24.2
	c-0.1-13.6-0.3-27.1-0.5-40.7c0-3.3-0.3-6.5-0.6-9.7c-0.5-7.5-1.1-14.9-1.7-22.2c-0.1,0.2-0.3,0.7-0.5,1.2c-0.7,2.5-1.3,4.9-2,7.4
	c-5.7,19.8-8.5,40-8.9,60.5c-0.1,8.6-1,17.2-3,25.6c-3.6,15.4-3.8,30.9-2.2,46.5c0.6,6.2,1.1,12.5,1.5,18.8
	c0.2,3.6,0.2,7.1,0.1,10.7c-0.2,3.9,0.5,7.5,1.8,11.2c0.2,0.5,0.7,0.8,1,1.2c0.3,0.6,0.6,1.2,0.7,1.8c0.2,1,0.1,2.2,0.3,3.2
	c0.6,2.2,1.5,4.4,2,6.7c0.2,0.9,0.4,1.7,1.1,2.5c0.8,0.8,1.1,1.8,0.7,3c-0.2,0.5-0.1,1.4,0.3,1.9C298,679.1,299.2,681.4,299.8,684.3
	z M400.3,267.6c1.2-1.3,2.2-2.5,3.2-3.7c2.5-2.9,2.5-8.1,0-10.9c-1.7-1.8-3.5-3.5-5.2-5.3c-4.5-4.5-8.9-9.1-12.1-14.7
	c-2.7-4.8-5.5-9.5-8.4-14.2c-2.6-4.2-5.3-8.4-8-12.5c-1.3-1.9-2.8-3.7-4.2-5.6c-0.9-1.2-1.9-2.2-3.5-2.4c-0.8-0.1-1.6-0.7-2.2-1.2
	c-3.9-3.7-8.6-6.1-13.3-8.4c-1-0.5-2.3-0.7-3.6-1.1c0.1,0.7,0.1,1.1,0.2,1.5c0.8,3.6,1.6,7.3,2.4,10.9c0.8,3.5,1.5,6.9,2.3,10.4
	c0.4,1.7,0.8,3.5,1.1,5.2c0.1,0.9,0,1.8,0,3c-3.4-1.2-5.5-4.2-8.8-5.1c1,1.3,2,2.4,2.7,3.6c3.8,6.6,7.5,13.2,11.3,19.8
	c0.3,0.6,0.7,1.2,1.2,2.1c0.7-2.1,1.2-3.8,1.7-5.4c2.3-7.2,3.5-14.6,4.7-22c0.6-3.9,1.7-7.7,1-11.7c0-0.1,0.2-0.3,0.6-1
	c0.4,1.3,0.8,2.1,0.8,2.9c0,1.6-0.1,3.3-0.3,4.9c-0.2,1.8-0.5,3.7-0.7,5.5c-1.2,9.2-3,18.2-6.2,26.9c-1.8,4.8-3.8,9.5-5.7,14.2
	c-0.4,1.1-0.7,2.3-1.2,3.7c2.3-0.6,3.8,0.4,5.3,1.4c1.3,0.9,2.5,1.9,3.9,2.6c8.4,4.1,16.9,8.2,25.4,12.1c2.9,1.3,6,2.1,9.1,2.8
	c3.6,0.8,7.2,0.5,10.8-1.2c-0.8-1-1.5-1.8-2.1-2.6c-2.2-3-4.5-5.9-6.6-9c-7.5-11.1-13.7-23-19.3-35.3c-0.8-1.8-1.5-3.7-2.2-5.6
	c-0.1-0.3,0-0.7,0-1.6C382.1,237.1,390.1,252.9,400.3,267.6z M323.4,218.4c-0.8-1.1-1.5-2.1-2.2-3c-1.3-1.6-1.3-3.2-0.6-5
	c0.5-1.1,0.9-2.3,1.1-3.5c1.2-6.7,1.4-13.5,1.1-20.4c-0.1-2.4-0.8-4.3-2.5-6c-1.8-1.7-2.8-3.9-3.4-6.2c-1.5-5.9-1.3-11.8-1.1-17.8
	c0-0.4,0-0.8,0-1.4c-0.5,0.3-0.7,0.4-1,0.6c-4.8,3.6-9.8,3.8-14.9,0.7c-1.5-0.9-3-1.9-4.8-3c0.3,0.9,0.4,1.4,0.6,1.8
	c1,2.2,1.2,4.5,1,6.8c-0.4,6.5-2.2,12.4-7.1,16.9c-0.3,0.3-0.7,0.7-0.9,1c-0.3,0.4-0.6,0.9-0.7,1.4c-0.6,2.9-1.1,5.8-0.1,8.7
	c0.3,0.9,0.4,1.8,0.6,2.7c2.4,11,5.4,21.8,10.8,31.8c0.2,0.4,0.4,0.9,0.4,1.3c0,3.2,0,6.3-0.3,9.5c-0.2,2.2-0.8,4.4-1.3,6.8
	c1.2,0.8,2.4,1.7,3.7,2.4c1.2,0.6,1.7,1.4,1.7,2.8c0,1.8,0.2,3.6,0.4,5.3c0.4,3.5,1.6,6.8,3.1,10.4c0.3-0.7,0.5-1,0.6-1.4
	c0.9-4.3,2-8.6,2.7-12.9c0.4-2.1,1.3-3.6,3.2-4.4c0.8-0.4,1.6-0.9,2.5-1.4c-0.3-1.3-0.5-2.5-0.8-3.7c-0.9-3.8-1.8-7.7-2.7-11.5
	c-0.3-1.1,0-1.7,1-2.3c3-1.9,5.9-4,8.8-6C322.7,219.1,323,218.7,323.4,218.4z M321.9,324.1c-0.3-1.9-0.6-4-0.9-6.1
	c-0.9-5.8-1.4-11.7-2.6-17.4c-2.5-11.7-6.4-23-11.6-33.8c-2-4.2-3.6-8.6-4.2-13.2c-0.3-2.4-0.4-4.8-0.6-7.1
	c-1.4-0.9-2.7-1.8-4.2-2.8c-0.7,3.2-1.4,6.3-2.1,9.3c-2.5,11-5.6,21.7-8.9,32.5c-1.1,3.6-2.5,7.3-2.3,11.1c0.2,3.7-0.4,7.3-0.9,10.8
	c-0.4,2.3-1.2,4.6-0.6,7c0.3,1.5,0.3,3.1,0.5,4.6c0.3,2.4,0.6,4.7,0.9,7.1c2.1,0,4.1,0,6,0c1.9,0.1,3.7,0.4,5.5,0.3
	c4.8-0.2,9.6-0.7,14.4-0.8C314.2,325.4,318.1,326,321.9,324.1z M203.1,543.6c2.9,0.8,5.4,1.2,7.7,2.2c2.4,0.9,4.6,2.3,7.1,3.6
	c0.1-0.4,0.4-0.8,0.5-1.3c0.7-3.2,1.5-6.5,2.2-9.7c0.8-3.7,1.7-7.4,1.4-11.3c-0.1-2.1-0.4-4.2-0.5-6.2c-0.4-7.4-1.6-14.6-3.3-21.8
	c-1-4.2-2-8.4-3.8-12.3c-1.2-0.3-2.2-0.5-3.3-0.7c-1.4-0.3-2.9-0.7-4.3-0.6c-2.5,0.1-4.9,0-7.1-1.5c-1.3-0.9-2.7,0-4,0.3
	c-1.1,0.3-1,1.4-1.2,2.3c-1.9,7.6-3.9,15.3-5.8,23c-1.1,4.4-1.8,8.8-2.8,13.2c-0.4,1.9-0.1,3.7,1,5.3c1.1,1.7,2.2,3.4,3.3,5
	c2.4,3.6,4.5,7.4,5.7,11.6c0.1,0.4,0.4,0.8,0.6,1.2c2.8-1.4,4.8-4.2,8.5-4.2C204.4,542.2,203.9,542.8,203.1,543.6z M217,315.8
	c0,1.6,0,3.4,0,5.3c0,1.8,0.1,3.6,0.1,5.3c0.1,12.9,0,25.9,0.2,38.8c0,3.5,0.5,6.9,0.8,10.4c0.3,3.9,0.9,7.7,1.1,11.6
	c0.3,5.4,0.3,10.8,0.5,16.3c0.1,2.8,0.4,5.5,1.8,8c0.2-0.2,0.4-0.3,0.4-0.4c0.8-1.4,1.6-2.8,2.4-4.2c1.9-3.3,1.8-4.8-0.4-7.7
	c-0.3-0.4-0.5-0.8-0.7-1.3c0.3-0.1,0.4-0.2,0.4-0.1c4.8,3.1,7.7,7.3,7.2,13.3c0,0.5,0.2,1,0.4,1.7c2-1.5,2-1.5,1.9-3.4
	c-0.1-2.5-0.3-4.9-0.3-7.4c0-2.2-0.7-4.1-2.2-5.7c-0.4-0.4-0.7-0.8-1.1-1.2c-1.4-1.4-2-3.1-2.1-5c-0.3-3.7-0.6-7.4-1-11.1
	c-1.1-11.4-0.3-22.6,2.7-33.6c2-7.3,4.1-14.6,6-22c0.7-2.9,1.4-6,1.1-8.9c-0.3-3,0-5.8,0-8.8c0-3,0.1-6.1-0.5-9
	c-1.6-8-5.1-15.4-8.2-22.9c-0.2-0.4-0.4-0.9-0.7-1.2c-0.2-0.3-0.6-0.5-1.1-0.9c0,0.6,0,0.9,0,1.2c0.9,5.2,1.4,10.4,1.2,15.7
	c-0.2,4.3-0.5,8.7-0.9,13c-0.2,2.5-0.7,5.1-1.3,7.5c-0.3,1.2-0.9,2.6-1.9,3.3C221.2,313.7,219.2,314.6,217,315.8z M319.2,102.4
	c-0.1,0-0.1-0.1-0.2-0.1c-3.3,3.1-6.5,6.2-9.8,9.2c-2.1,1.9-3.8,4-5.4,6.3c-3.4,4.9-7.5,9.3-12.6,12.6c-1.3,0.8-2.4,1.9-3.5,3
	c-2.1,2-3.1,4.2-1.1,6.9c0.3,0.4,0.4,0.9,0.5,1.3c1,2.8,2.6,5.4,4.9,7.3c2.9,2.4,6,4.7,9.1,6.8c4.3,2.9,10.5,2.2,14.8-2.8
	c1.5-1.8,2.9-3.6,4.4-5.4c2.3-2.8,3.7-6,4.4-9.6c0.9-4.5,1.8-9,2.9-13.4c1.1-3.9,0.8-7.8,0.6-11.8c0-1.6,0.1-3.3-0.4-4.8
	c-0.8-2.7-1.8-5.3-2.1-8.2c-0.4,0.4-0.5,0.8-0.7,1.2c-1.7,3.6-4.1,6.6-7.7,8.4c-0.8,0.4-1.7,1-2.7,0.6
	C316.3,107.3,317.8,104.8,319.2,102.4z M217.6,484.7c-1.9,0.3-1.5,1.3-1.3,2.2c1,3.7,2.1,7.5,3,11.2c1.6,6.6,2.8,13.2,3.1,19.9
	c0,0.6,0.2,1.2,0.3,2c0.5-0.3,0.8-0.4,1.1-0.6c4.2-2.4,7.8-5.6,11.2-9c4.9-4.9,9.8-9.8,14.6-14.7c1.9-1.9,3.7-4,5.5-5.9
	c1.1-1.2,2.2-2.4,3.6-3.8c-0.8-4-1.7-8.4-2.7-12.6c-0.6-2.6-2.2-4.5-3.8-6.4c-1.3,0.3-2.4,0.5-3.6,0.8c-0.1-0.9-0.1-1.4-0.2-2.6
	c-2.1,1.4-3,3.4-4.7,4.5c-1.7,1.2-3.2,2.7-4.9,3.9c-1.6,1.2-3.2,2.4-4.9,3.6c-1.7,1.2-3.5,2.3-5.4,3.3c-1.8,1-3.7,1.8-5.7,2.7
	c0,1.1,0,2,0,2.9c-0.1,2.1-1,3.1-3,3.4c-1.4,0.2-2.2-0.3-2.4-1.8C217.8,486.7,217.7,485.8,217.6,484.7z M371.3,268.7
	c0.2,1.5,0.3,2.7,0.4,4c0.5,6.6-0.4,13.2-1.5,19.7c-1,5.7-1.1,11.2,1.5,16.5c0.3,0.6,0.4,1.2,0.6,1.7c0.7,1.8,1.5,3.7,2.4,5.9
	c2.2-5.8,6.2-9.6,10.2-13.4c1.2-1.2,2.5-2.3,3.7-3.5c4.3-4.1,8.7-8.2,12-13.2c1.5-2.2,2.8-4.7,4-7.1c0.5-0.9,0.9-2.1-0.4-2.9
	c-0.3,0.1-0.7,0.1-1.1,0.2c-4.2,1.5-8.4,1.3-12.6,0c-3.4-1.1-6.7-2.4-10-3.8C377.6,271.6,374.6,270.2,371.3,268.7z M235.7,327.3
	c-0.2,0.5-0.4,1-0.5,1.5c-1.7,6-3.5,12.1-5.1,18.1c-2.1,7.8-3,15.7-2.7,23.7c0.2,6.7,1,13.4,1.6,20.1c0.1,0.9,0.4,1.8,0.9,2.6
	c0.9,1.3,2,2.5,3.1,3.7c2.5-7.1,4.9-14.1,7.3-21c2.4-7,6.1-13.3,9.4-19.6c-1.3-1.3-2.4-2.4-3.5-3.4c-2.1-1.9-4.1-3.7-6.3-5.5
	c-1.4-1.2-1.7-1.7-1.2-2.9c0.9-2.5,1.8-4.9,2.6-7.4c0.2-0.5,0.1-1.2-0.2-1.7C239.3,332.7,237.5,330,235.7,327.3z M347.8,216.7
	c-0.6-2.6-1.1-4.9-1.5-7.1c-1.5-6.9-3-13.8-4.5-20.6c-0.8-3.5-2.2-6.5-5.2-8.7c-1.2-0.9-2.2-1.9-3.3-2.9c-2.7-2.4-5.3-5.1-7.2-8.2
	c-2.1-3.4-5.3-4.7-9.1-5.4c0,1.2-0.1,2.3,0,3.4c0.3,5.4,1.4,10.5,5.7,14.3c1.1,1,1.3,2,1.3,3.3c0,4.8,0.1,9.6,0,14.4
	c-0.1,2.7-0.5,5.4-0.7,8.1c-0.1,0.6-0.2,1.2-0.4,2c4.5-0.2,8.9-0.4,13.2,0.7C340.5,211,343.7,214.2,347.8,216.7z M288,731.6
	c-0.6,1.7-1.1,3.1-1.7,4.5c-2,5.1-4.1,10.2-6,15.4c-0.3,0.9-0.6,2.1-0.3,2.9c1.3,2.9,2.3,6,4.6,8.3c2.1,2.1,4.4,4,6.5,6
	c0.9,0.8,1.8,0.8,2.8,0.4c0.6-0.3,1.3-0.5,1.9-1c4.3-3.2,8.4-6.6,11.3-11.3c0.7-1.2,1.3-2.5,1.4-3.9c0.2-2.1,0.1-4.3,0.1-6.5
	c-0.1-3.7-0.3-7.4-0.4-11.3c-2.1,0.8-3.8,1.4-5.5,2.1c-2.3,0.9-4.7,0.8-7.1,0.1C292.4,736.3,289.8,734.6,288,731.6z M285.3,207
	c0-1.1,0-1.8,0-2.6c-0.1-1.5-0.3-2.9-0.4-4.4c-0.4-10.6,1.4-21,4.2-31.2c0.3-0.9,0.8-1.7,1.3-2.5c0.2,0.1,0.4,0.2,0.6,0.2
	c-0.4,1.7-0.9,3.3-1.2,5c-0.4,1.7-1,3.5-0.8,5.5c4-4.5,5.8-9,5.6-13.9c-1.4-0.4-2.9-0.4-4.2,0.4c-1.8,1.1-3.6,2.3-5.3,3.7
	c-1.4,1.1-2.5,2.6-3.7,3.8c-1.6,1.6-3.4,3.1-5.7,3.4c-2.7,0.4-4,2.1-4.7,4.4c-0.1,0.4-0.3,0.9-0.5,1.3c-3,8.7-4.9,17.6-6.5,26.6
	c-0.4,2.2-0.5,4.5-0.8,7.4c3.9-2.1,6.5-5.3,10.2-6.5C277.2,206.5,281,205.8,285.3,207z M328.5,324c0-1.1,0-2,0-2.9
	c-0.3-4.7-0.5-9.4-0.8-14.2c-0.2-3.5-0.3-7-0.5-10.4c0-0.6-0.2-1.2-0.4-1.8c-0.6-2.9-1.4-5.9-1.9-8.8c-0.7-4-1-8.2-1.8-12.2
	c-1.2-6.2-2.8-12.4-4.2-18.6c-0.8-3.5-1.7-7-2.6-10.7c-2.2,1.2-4,2.1-4.4,4.8c-0.8,5.1-2,10.2-3.2,15.2c-0.3,1.2-0.2,2,0.3,3.1
	c3.2,6.8,5.9,13.8,7.8,21.1c1.3,5,2.7,10,3.6,15.1c1.1,5.9,1.7,11.8,2.6,17.7c0.2,1,0.6,2,0.9,3.1
	C325.4,324.4,326.8,324.2,328.5,324z M259.8,491.2c-0.9,0.9-1.4,1.5-1.9,2.1c-7.1,8.1-14.4,16-22.8,22.8c-2.5,2-5.3,3.8-8,5.5
	c-1.2,0.8-2.6,1.2-4,1.9c1.2,7.4-1.3,14.3-2.4,21.7c1.1-1,1.9-1.8,2.8-2.5c10.6-9.3,21.2-18.6,30.8-28.9c2.3-2.5,4.6-5,6.9-7.5
	c0.9-0.9,1-2,0.8-3.2c-0.4-1.6-0.6-3.2-0.9-4.8C260.6,496,260.2,493.9,259.8,491.2z M228,271.3c0.9,2.3,1.7,4.7,2.8,6.9
	c2.5,5.1,4,10.6,5.6,16c0.9,2.9,1.3,5.9,1.3,8.9c0,0.9,0,1.7,0,2.6c0.6-0.7,0.8-1.4,1-2.2c1.3-4.8,2.9-9.5,5.3-13.9
	c1.7-3.1,3.4-6.1,5.2-9c2.4-3.6,5-7.1,7.4-10.7c1-1.5,2-3.1,2.7-4.8c1.2-2.8-0.6-5.5-3.5-5.6c-1.6,0-3.3,0.1-4.7,0.7
	c-3.2,1.4-6.2,3.1-9.2,4.8C237.4,267.6,233.1,270.3,228,271.3z M224.5,271.6c-0.7-0.1-1.3-0.2-1.8-0.1c-2.6,0.1-5.3,0.3-7.9,0.4
	c-4.7,0.2-9.3,0-13.8-1.1c-2.4-0.6-3.6,0.5-3.8,3c-0.2,3.9,1.5,6.9,4.4,9.3c3.1,2.5,6.4,4.9,9.5,7.5c4.9,4.2,8.8,9.1,11.6,14.9
	c0.2,0.4,0.4,0.7,0.6,1.1C225.1,294.9,226,283.3,224.5,271.6z M278.3,677.6c0.3,1.7-0.2,3.5,0.9,5.1c0.1,0.1,0,0.3,0,0.5
	c0.2,1,0.4,2.1,0.6,3.1c0.1,0.4,0.2,0.8,0.2,1.1c-0.1,1.9-0.1,3.9-0.5,5.8c-0.2,1.2-0.1,2.1,0.7,2.9c2.3-0.2,4.5-0.4,6.8-0.5
	c5.1-0.2,5.1-0.2,6.8,1c-4.8,1-9.6,0.2-14.1,1.3c0,1.9-0.1,1.9,0.7,2.7c2.9,2.8,5.9,5.6,10.5,4.7c0.3-0.1,0.6,0,0.9,0
	c1.7,0,2.2-0.4,2.4-2.1c0.2-1.4,0.3-2.8,0.7-4.1c0.6-2.4,1.4-4.7,1-7.3c-0.1-0.6,0.2-1.2,0.4-1.8c0.1-0.4,0.5-1,0.3-1.3
	c-0.6-1.7,0.1-2.8,1.5-3.6c-0.1-3.1-1.5-5.4-3.1-7.6C289.2,679.5,283.8,678.7,278.3,677.6z M368,296.5c0.1,0,0.2,0,0.3,0
	c0.2-1.3,0.3-2.6,0.5-3.9c0.5-4.5,1.1-9.1,1.4-13.6c0.2-3-0.1-6-0.2-9c0-1.5-0.8-2.3-2.1-3c-5.3-2.4-10.5-4.9-15.1-8.6
	c-1.2-1-2.1-0.7-3.2,0.5c-1.7,1.9-2,4-1,6.2c1.4,3.2,3.1,6.3,5.7,8.6c5.1,4.4,8.7,9.9,11.2,16.1C366.3,292,367.2,294.3,368,296.5z
	 M307.9,733.4c0.1-1.9,0.2-3.6,0.4-5.3c0.2-1.8,0.8-3.6,1-5.5c0.2-2.4,0.1-4.9-0.7-7.3c-5.8,0.4-11.3,0.1-15.9-3.8
	c-0.4,2-0.8,3.8-1.2,5.5c-0.7,2.6-1.1,5.3-2.1,7.8c-1,2.5,0,4.7,0.3,7c0,0.3,0.4,0.5,0.6,0.7c3,3,6.8,4.1,10.8,3.3
	C303.4,735.4,305.6,734.2,307.9,733.4z M233,461.8c5.3,0.8,10.2,1.5,15.2,2.3c-2.4-6.8-4.8-13.4-6.9-20.1c-2.1-6.8-4-13.6-6-20.5
	c-1-0.1-1.8-0.1-2.5-0.1C233,436.3,234.2,449.1,233,461.8z M251.9,350.4c0.2,0,0.4,0,0.6,0c0.6-1.5,1.3-2.9,1.6-4.5
	c1-4.5,1.9-9.1,2.7-13.6c0.1-0.4-0.1-1.1-0.4-1.4c-2-2.3-4.1-4.6-6.2-6.9c-2-2.1-4.3-3.8-7.1-4.7c-2.4-0.8-4.6,0.2-5.2,2.1
	c-0.9,3-0.5,5.8,1.3,8.4c2.9,4,5.7,8.1,8.7,12.1C249.8,344.5,251.5,347.1,251.9,350.4z M317.1,669.5c-4.2-2.5-8.4-2.7-12.7,0.2
	c-0.1,6.7-2.1,12.9-4.8,19.1c4,1.9,7.9,3.5,12.5,3.9C313.8,685,315.5,677.3,317.1,669.5z M276.1,644c0,0.5-0.1,0.8-0.1,1.1
	c0.6,4.4,0.4,8.8-0.1,13.2c0,0.3,0,0.6,0,0.9c0.3,2.2,1,3.2,2.5,3.3c2.2,0.1,4.5,0.2,6.7,0.1c1.2,0,2.5-0.2,3.6-0.6
	c1.7-0.5,1.9-1.9,0.9-3.4c-0.4-0.6-0.7-1.2-0.8-1.9c-0.8-3.9-1.6-7.8-2.4-12C283.4,643.3,279.9,643.2,276.1,644z M314.2,693.7
	c-1.9,0.8-3.6,0.7-5.3,0.2c-3.5-1-6.9-2.1-10.4-3.2c-0.4-0.1-0.6-0.5-1.3-1.1c-0.1,1.3-0.1,2.2-0.1,3c-0.1,1.3-0.1,2.6-0.2,3.9
	c-0.1,0.8-0.4,1.7-0.7,2.5c-0.5,1.3-0.2,2.4,0.8,3.4c0.5,0.5,1,1,1.6,1.4c3.3,2.7,7.2,3.2,11.4,3c1.3-0.1,2-0.6,2.3-1.8
	c0.7-3.2,1.5-6.5,2.2-9.7C314.5,694.9,314.3,694.4,314.2,693.7z M367.3,351.4c-3,1.2-5.8,2.8-7.6,5.4c-1.4,2-2,4.5-1.1,7.2
	c1.2,3.5,2,7.1,3,10.7c0.4,1.5,0.9,3,1.3,4.4c0.5,1.6,1.1,3.2,1.5,4.8c0.9,3.6,1.6,7.1,2.4,10.7c0.2,0,0.3,0,0.5-0.1
	C367.3,380.3,367.3,365.9,367.3,351.4z M278.9,701.3c-0.3,2.1-0.7,3.9-0.9,5.8c-0.1,0.7-0.2,1.4-0.2,2.1c0,0.8,0.2,1.7,0.3,2.5
	c0.8,5.9,4.9,9.8,8.9,13.7c0.1,0.1,0.3,0,0.5,0c0.6-1.6,1.2-3.1,1.7-4.8c0.7-2.5,1.5-5.1,1.7-7.7c0.2-2.2,0.1-4.3,1.5-6.3
	c-1.5,0-2.8-0.1-4.1,0c-1.6,0.1-3-0.4-4.3-1.4C282.4,703.9,280.8,702.8,278.9,701.3z M226.9,405.8c-0.5,0.5-0.7,0.7-0.8,1
	c-4.5,8.1-8.4,16.6-10.9,25.6c-3.5,12.4-7.1,24.9-10.6,37.3c-0.6,2-1,4-0.7,6.2c1.6-0.5,2.6-1.4,3-3c0.4-1.7,0.9-3.3,1.4-4.9
	c1.6-4.9,3.5-9.8,4.8-14.8c2.1-8,3.9-16.1,5.6-24.2c1.6-7.7,3.8-15.1,8.4-21.6C227.2,407,227,406.5,226.9,405.8z M354.9,343
	c0.7-0.5,1.3-0.9,1.9-1.4c1.5-1.3,2.8-2.7,4.3-3.9c3-2.4,6.1-4.7,9.3-7c1.2-0.8,2.6-1.4,3.9-2.1c0.9-0.5,1.8-1,3.1-1.6
	c-3.1-1.8-5.9-2.5-9-1.4c-3.7,1.4-7.3,2.9-11,4.3c-1.8,0.7-3.6,1.4-5.4,2.1C352.7,335.9,353.1,339.5,354.9,343z M241,427.4
	c1.3,4.3,2.5,8.6,3.8,12.8c1.4,4.3,2.9,8.7,4.3,13c1.2,3.7,2.8,7.2,3.1,11.2c0,0.5,0.5,1,0.9,1.5c2.2,2.2,4.1,4.7,4.7,7.9
	c1.2,6.3,2.5,12.6,3.7,18.9c0.7,3.5,1.4,6.9,2.1,10.9c0-1.2,0.1-1.9,0-2.6c-0.6-4.5-1.2-8.9-1.7-13.3c-0.9-8.1-2.9-15.9-5.8-23.6
	c-2.3-5.9-4.1-12-6.1-18c-0.6-1.9-0.9-4-1.7-5.8c-0.8-1.7-1.6-3.3-2.1-5.1C245.5,431.8,243.3,429.6,241,427.4z M221.3,482.7
	c0.2-1,0.7-2.2,0.7-3.3c0-6.2-0.1-12.5-0.4-18.7c-0.2-5.1,0.1-10.2,0.6-15.3c0.7-6.4,1.3-12.8,2-19.2c0.4-3.6,1.1-7.2,1.6-10.8
	c0.1-1,0.2-2.1,0.2-3.1c-0.2,0-0.4-0.1-0.5-0.1c-0.9,2-2.1,3.8-2.2,6.1c-0.1,2.4-0.5,4.8-0.7,7.2c-0.7,6.4-1.4,12.8-2,19.2
	c-0.3,3.4-0.4,6.8-0.7,10.2c-0.5,6.5-1.2,13-1.6,19.5c-0.3,4.6-0.6,9.2,1.3,13.6c2.1-0.2,2.3-0.3,2.2-2.2
	C221.8,484.7,221.5,483.7,221.3,482.7z M223.4,480.8c5.6-1.5,21.2-12.2,22.4-15.5c-2.9-0.4-5.8-0.9-8.7-1.2
	c-0.5-0.1-1.2,0.1-1.7,0.4c-4,2.6-8,5.3-12,8C223.4,475.2,223.4,478,223.4,480.8z M221.1,423.9c-0.3,1.4-0.7,2.8-1,4.3
	c-2.9,12.8-5.2,25.8-10,38.1c-0.8,2.1-1.3,4.4-2.1,7c3.4-2,6.4-3.8,9.4-5.5C219.2,453.1,219,438.4,221.1,423.9z M226.3,423.7
	c-0.2,0.5-0.5,1-0.5,1.5c-1,13.2-4,26.3-2.4,39.9c1.6-0.9,2.8-1.6,4-2.3C228,449.7,228.3,436.8,226.3,423.7z M276,663.6
	c0.8,1.7,1.8,3.1,2.3,4.7c0.5,1.6,0.4,3.4,0.6,5.1c2.9-0.3,5.6-0.5,8.3-0.8c1.3-0.1,2.6-0.4,3.8-0.8c1.6-0.5,2.1-1.2,1.7-2.8
	c-0.5-2.1-1.3-4.1-1.9-6.1C286.1,664.2,283.1,664.3,276,663.6z M231.5,461.2c0.6-12.7,0.1-25.4,0.2-38.2c-1.3,0.2-2.5,0.3-3.9,0.5
	c1.9,12.8,1.2,25.6,1,38.6C229.9,461.7,230.6,461.5,231.5,461.2z M280.2,144.9c0.9-1.8,1.9-3.6,2.6-5.5c1.7-4.6,4.5-8.2,8.6-11
	c3.9-2.7,7.4-5.9,10.3-9.7c0.3-0.4,0.6-1,1.1-1.9c-0.7,0.4-1,0.5-1.3,0.6c-4.1,2.7-8.2,5.2-13,6.7c-0.6,0.2-1.3,0.9-1.6,1.5
	c-1.7,3-3.2,6-4.8,9C280.3,137.8,279.3,141.1,280.2,144.9z M367,335.1c-3.6,2.6-7.1,4.9-9.8,8.1c-1.2,1.4-1.5,2.4-0.8,3.3
	c0.8,1.2,2,0.9,3.2,0.7c0.6-0.1,1.2-0.3,1.8-0.4c2.4-0.5,4.8-1.1,7.2-1.5c1.2-0.2,2.4-0.4,3.8-0.6
	C371.5,340.9,368.8,338.4,367,335.1z M296,702.7c-0.8,1.5-1.3,2.8-2.1,3.9c-1.6,2.4-1.7,3.2,1.1,5c4.2,2.6,8.8,2.1,13.5,1.9
	c0.1-1.9,0.2-3.4,0.3-5.2C303.6,708.1,299,707,296,702.7z M321,330.7c0.1,0.6,0.2,0.9,0.3,1.3c1.3,5.6,2.7,11.1,3.7,16.8
	c0.7,3.9,0.5,8,0.9,12c0.6,7.8,0.7,15.6,0,23.4c-0.1,0.6-0.2,1.3,0,1.8c0.1,0.4,0.7,0.8,1.1,0.9c0.3,0.1,0.9-0.4,1-0.7
	c0.2-0.6,0.2-1.4,0.2-2.1c-0.2-4.6-0.5-9.3-0.7-13.9c-0.3-4.6-0.8-9.3-0.7-13.9c0.1-6.7-0.4-13.3-1.4-19.9c-0.3-2.1-0.7-4.2-1-6.6
	C322.9,330.3,322,330.5,321,330.7z M198.1,481.8c1.4,0.5,2.4,1,3.5,1.3c2.6,0.8,3.7,1.2,6-1.2c2.9-2.9,6.2-5.5,9.6-8.4
	c0-1,0.2-2.4,0-4.2C210.7,473.6,204.5,477.7,198.1,481.8z M315.6,326.9c-4-0.2-7.8-0.1-11.7,0.2c-5.2,0.4-10.3,1.2-15.5,0
	c-1.4-0.3-2.7,0-3.9,0.6c0,1.1,0,2.1,0,3.2c1.3-0.1,2.3-0.1,3.4-0.2c4.7-0.3,9.4-0.6,14.1-0.9c3.1-0.2,6.2-0.6,9.2-0.5
	C313.3,329.4,314.5,328.7,315.6,326.9z M354.8,347.1c-0.4,3.8,0.7,9.1,2.4,11.6c0.7-3.1,2.8-4.8,5.3-6.2c2-1.1,4.1-2.2,6.1-3.3
	c1.2-0.7,2.5-1.4,3.1-3c-0.5,0-0.9-0.1-1.3,0c-3.1,0.6-6.2,1.3-9.3,1.9C359,348.6,356.9,349.2,354.8,347.1z M286.7,192.1
	c-0.1,1-0.4,2.1-0.4,3.1c0.1,4,0.3,8,0.4,12c0,0.8,0.3,1.3,1,1.6c2.1,0.9,2.6,2.7,2.5,4.8c0,0.7-0.3,1.4-0.2,2.1
	c0,0.6,0.1,1.3,0.5,1.6c1.6,1.3,3.4,2.5,5.1,3.7c0.1-0.1,0.3-0.2,0.4-0.3C291.5,211.7,289.4,201.8,286.7,192.1z M236.3,423.4
	c4.9,14.1,8,28.7,14.4,42.3c0.1-1.3,0.2-2.6-0.2-3.8c-1-3.3-2.2-6.6-3.3-9.9c-1.8-5.3-3.7-10.6-5.3-16c-1.1-3.8-2-7.6-3.7-11.2
	C237.9,424.1,237.9,423.1,236.3,423.4z M240.2,345.1c3.1,2.9,6.2,5.9,9.7,9.1c0.2-1.3,0.4-2.2,0.3-3c-0.2-2.2-0.8-4.3-2.1-6.1
	c-1.4-2-2.8-3.9-4.2-5.8c-0.3-0.4-0.7-0.7-1.2-1.2C241.9,340.6,241.1,342.9,240.2,345.1z M259.3,488.1c-0.2,0-0.4,0-0.5-0.1
	c-2,2.3-3.9,4.6-6,6.8c-5.4,5.5-10.8,10.9-16.2,16.3c-3.9,4-8.3,7.4-13.3,10.1c-0.1,0.1-0.2,0.3-0.5,1c1.9-0.9,3.6-1.4,4.9-2.3
	c2.7-1.8,5.4-3.7,7.8-5.8c8.3-7.4,15.9-15.6,23.2-24C259.1,489.5,259.1,488.7,259.3,488.1z M217,313.3c3.2-0.3,5.4-2.8,5-5.5
	c-0.5-3.5-2.7-6-5-9C217,303.9,217,308.5,217,313.3z M294.3,672.3c-2.1,0.5-3.7,1.1-5.3,1.4c-2.7,0.4-5.5,0.6-8.3,1
	c-1,0.1-2,0.4-2,1.9c4.4,0.8,8.8,1.2,13.2,0.4c0.4-0.1,0.7-0.3,1.1-0.4c1.2-0.4,1.4-1.4,1.7-2.3
	C294.8,673.6,294.4,672.9,294.3,672.3z M207.7,483.1c0.1,0.2,0.2,0.3,0.3,0.5c1,0.2,2,0.2,2.9,0.6c1.6,0.7,3.1,0.9,4.4-0.5
	c0.3-0.3,0.9-0.4,1.6-0.7c0-2.2,0-4.4,0-7.1C213.7,478.4,210.7,480.7,207.7,483.1z M328.4,135.4c-1.5,1.7-2.6,3.4-3.1,5.5
	c-0.7,2.6-2.1,5-3.8,7.1c-0.8,1-1.5,1.9-2.3,2.9c-0.5,0.7-1,1.5-0.5,2.7c3.9-2,5.1-6,7.3-9.2c0.6,0.4,1,0.7,1.3,1
	C327.7,142,328,138.8,328.4,135.4z M326.7,135.3c4-4.4,5.9-9.1,5.8-14.8c-1,0.3-1.9,0.6-2.8,0.8c-0.5,2.2-1,4.3-1.6,6.5
	c0.1,0,0.2,0.1,0.3,0.1c0.5-0.8,1-1.6,1.4-2.5c0.3,0.5,0.4,1,0.2,1.4c-0.7,1.5-1.4,2.9-2.2,4.3C327.2,132.3,326.6,133.5,326.7,135.3
	z M231,462.5c-2.7,1.5-5.2,3-7.8,4.4c0.3,1.4-0.1,2.6,0.3,3.9c3.2-2.3,6.3-4.5,9.5-6.7C232.4,463.6,231.8,463.1,231,462.5z
	 M237.7,421.6c-0.6-1.5-1.8-1.8-2.9-2c-2.6-0.2-5.2-0.3-7.9-0.5c-0.2,1-0.4,1.9-0.7,3.1c1.1-0.1,1.9-0.3,2.7-0.3
	c1.5-0.1,3.1-0.4,4.6-0.1C235,422.4,236.2,422,237.7,421.6z M227.6,417.7c1,0.1,2.2,0.3,3.6,0.5c-0.5-2.1-1.1-3.9-1.4-5.7
	c-0.3-1.8-0.3-3.6-0.5-5.6c-1.7,1.8-1.7,1.8-1.7,2.8C227.6,412.3,227.6,414.8,227.6,417.7z M323.4,328.2c-0.1-1.6-0.6-2.3-2-2.1
	c-2.5,0.3-4.4,1.7-6.1,3.4c-0.3,0.3-0.3,1.1-0.1,1.5c0.2,0.3,0.9,0.5,1.4,0.5c0.3,0,0.7-0.3,1-0.5
	C319.4,330.1,321.3,329.2,323.4,328.2z M324.4,217.4c1.1-2.4,2-4.4,3-6.7c-0.7-0.1-1-0.2-1.4-0.2c-0.8,0-1.6,0-2.3,0.1
	c-2.1,0.2-2.7,1.6-1.6,3.4C322.7,215.1,323.4,216,324.4,217.4z M284.4,208.7c-0.4,3.1,1.2,5.7,3.9,6.5
	C289,211.4,288.6,210.7,284.4,208.7z M234.2,413.1c-1,0.5-1.9,1-2.8,1.5c1.3,4.2,1.3,4.2,4.9,3.9C235.6,416.7,234.9,415,234.2,413.1
	z M328.7,328.4c-0.1-1.1-0.1-2-0.2-3.1c-1.4,0.2-2.5,0.4-3.7,0.6c0.1,1,0.2,1.8,0.2,2.5C326.3,328.4,327.4,328.4,328.7,328.4z
	 M332.5,115.4c-1.1-1.2-1.5-2.6-2.9-3.6c0.1,2.4,0.3,4.5,0.4,7.1C331,117.6,331.7,116.6,332.5,115.4z M227.9,405.5
	c0.2-0.1,0.4-0.3,0.6-0.4c-0.4-0.8-0.7-1.5-1.1-2.3c-0.2,0.1-0.3,0.1-0.5,0.2C227.3,403.9,227.6,404.7,227.9,405.5z"/>
<path class="st0" d="M350.7,436.8c-3.2,1.6-6,3.7-9.5,5.6c0.3-2.3,1.3-3.5,2.5-4.6c2.9-2.6,5.8-5.1,8.9-7.5c1.7-1.4,3.7-2.5,5.9-3.4
	c-0.2,0.6-0.3,1.1-0.5,1.7c-8.3,18-14.5,36.8-18.4,56.2c-1.8,8.7-3.6,17.5-5.3,26.2c-1.4,7.2-4,14-7.6,20.4
	c-1.2,2.2-2.3,4.4-3.4,6.6c-0.5,1-1.3,2.3-0.1,3.2c1.2,0.9,2-0.6,3-1.1c0.2-0.1,0.3-0.3,0.6-0.7c-0.9,0.1-1.5,0.2-2.5,0.3
	c2-5.6,5.6-10.2,7.6-15.7c1.9,3.4,2.3,6.2,0.9,9.4c-3.3,7.2-3.8,14.8-3,22.5c0.7,6.8,1.6,13.6,1.9,20.4c0.3,5.8,0.2,11.6,0,17.4
	c-0.4,12.3-4,24.1-5.9,36.2c-1.4,8.5-2.5,17-3.1,25.6c-0.2,2.2-0.8,4.2-1.8,6.2c-0.7,1.4-1,3.1-1.5,4.6c-0.2,0.6-0.3,1.1-0.6,2
	c-4.6-2.3-9.2-3.2-14.2-0.5c0-0.9,0-1.4,0-1.9c-0.3-4.7-0.6-9.4-1-14.1c-0.8-9.1-0.4-18.1,0.4-27.2c0.9-10.8,1.8-21.6,3-32.4
	c1.1-9.1,0.7-18.3,0.6-27.4c-0.1-6.8-0.1-13.6-0.2-20.5c-0.1-12.7,0.1-25.4-0.3-38.2c-0.3-8.4-1.3-16.8-1.9-25.3
	c-0.2-2.5,0-5.2-0.5-7.6c-0.5-2.1,0.2-3.9,0.7-5.8c3.6-13.7,6.5-27.6,9.3-41.5c1.7-8.3,3.6-16.7,5.3-25c0.7-3.2,1.1-6.4,1.7-9.5
	c-0.2,0-0.3-0.1-0.5-0.1c-0.2,0.5-0.4,1-0.5,1.5c-3.3,15-6.5,30-9.8,45c-3.3,14.8-7.2,29.5-11.2,44.2c-2.7,9.8-5.3,19.6-6.5,29.7
	c-0.9,7.4-1.6,14.8-2.2,22.2c-0.7,8.7-0.4,17.5-1.8,26.2c-0.9,5.5-1.9,11-3,16.5c-2,10.4-2.1,21-1.3,31.5c0.8,10.5,1.6,21,2.3,31.5
	c0.1,1.1,0,2.2,0,3.2c-3.7-0.2-7.2-0.5-11-0.7c-0.3-1.2-0.6-2.7-1.1-4.2c-1.6-4.9-3.1-9.9-4.9-14.8c-3.3-9.2-5-18.7-6.6-28.3
	c-1-6.3-2.1-12.7-2.7-19.1c-0.9-9.1-0.1-18.1,2.8-26.9c1-3.2,2.1-6.4,3.5-9.4c1.9-4,2.1-8,1.4-12.2c-1.2-8.3-2.1-16.6-3.3-24.9
	c-1.2-8.6-2.1-17.2-3.7-25.7c-1-5.1-3.1-9.9-4.7-14.8c-1.7-5.2-3.4-10.3-5-15.5c-0.4-1.3-0.9-2.7-1.2-4c-0.4-1.3-0.9-2.7-0.9-4.1
	c-0.1-5.3-1.4-10.4-3-15.5c-2.1-6.7-4.4-13.4-7.7-19.7c-0.1-0.3-0.3-0.5-0.5-0.9c-0.8,0.6-0.3,1.2-0.1,1.7
	c3.5,8.1,6.3,16.3,8.5,24.8c0.4,1.3,0.6,2.7,1,4.4c-2.6-3.5-5.1-6.5-7.2-9.8c-3-4.8-5.4-9.8-6.2-15.6c-0.7-5.2-0.3-10.1,1.4-15
	c1.7-4.9,3.4-9.8,5-14.8c2.5-7.6,6.2-14.5,10.1-21.4c4-7.2,6.3-14.9,7-23.2c0-0.2,0.1-0.5,0.1-0.9c0.5,0.2,1,0.4,1.4,0.7
	c1.6,1,3.2,2.2,4.9,3.1c5.4,3.2,11.3,3.7,17.3,2.2c1.1-0.3,2.1-0.8,3.1-1.2c0-1.8,0-3.4,0-5.2c1,0,1.9-0.1,2.8-0.1
	c5.8,0,11.6-0.6,17.4-1.3c1.8-0.2,3.7-0.2,5.6-0.2c1.4,0,2.6,0.1,3.7,1.3c1.4,1.5,2.8,1.2,4,0.3c0.4-0.3,0.9-0.6,1.5-1
	c0.2,0.6,0.4,1,0.5,1.5c0.9,3.5,1.8,7.1,2.6,10.6c1.2,4.7,1.1,9.5,1.5,14.3c0.3,3.3,0.3,6.7,0.6,10c0.5,5.8,0,11.6-0.3,17.4
	c0,0.6,0,1.2,0.1,1.8c0.2,1.1,0.9,1.6,2,1.6c1.1,0.1,2.1-0.2,2.4-1.4c0.3-1.2,0.5-2.5,0.4-3.7c-0.1-3.8-0.5-7.6-0.6-11.4
	c-0.2-5.6-0.6-11.2-0.5-16.7c0.1-6.4-0.6-12.7-1.5-19c-0.3-2.1-0.6-4.1-0.9-6.4c0.9-0.1,1.7-0.1,2.5-0.2c0.8,3.5,0.8,3.5,4.4,3.6
	c3.5,0.1,7,0.2,10.5,0.2c1.7,0,3.4-0.4,5.1-0.6c0.8-0.1,1.5-0.3,2.4-0.5c0.1,0.7,0.3,1.2,0.3,1.7c0.2,3.2,1.3,6.2,2.3,9.2
	c0.3,0.8,0.5,1.7,0.3,2.4c-0.6,2.7-0.4,5.2,0.3,7.8c1.3,4.2,2.6,8.4,3.9,12.7c1.4,4.4,2.8,8.9,4.1,13.3c0.5,1.6,0.7,3.2,1.1,4.7
	c0.8,2.9,1.7,5.8,2.3,8.7c1.5,6.4,2.4,12.9,2.2,19.6c0,1.6-0.4,2.8-1.5,4c-1.9,2-3.6,4.2-5.5,6.3c-0.8,0.8-1.7,1.6-2.7,2.2
	c-3.5,2.5-7.1,4.8-10.5,7.3c-2.2,1.7-4.2,3.7-6.1,5.7c-0.9,0.9-1.4,2.2-1.8,3.5c-0.4,1.6,0.7,2.5,2.3,2.1c0.5-0.1,1-0.4,1.5-0.6
	C346.3,441.4,348.5,439.1,350.7,436.8z M278.7,603.4c0.2,0,0.4,0,0.5,0c-0.1-4.8,0.3-9.6-0.5-14.4c-0.4-2.3-0.8-4.6-0.8-6.9
	c0-6.2,0-12.4,0.3-18.6c0.4-7.3,1.1-14.7,1.6-22c0.6-8.6,1.4-17.2,1.6-25.8c0.3-9.7,0.2-19.4,0.2-29.1c0-2.6-0.1-5.3-0.2-7.9
	c-0.3-6.7-1-13.5-1.1-20.2c-0.3-18-0.9-36-2-53.9c-0.5-8-0.9-16.1-1.4-24.1c-0.3-5.4-0.7-10.8-1.1-16.6c-0.8,2.7-0.8,5.2-0.7,7.6
	c0.2,4.2,0.5,8.3,0.8,12.5c0.6,11,1.3,22,1.8,33c0.5,10.4,0.7,20.8,1,31.1c0.1,3.5,0.2,7,0.3,10.5c0.3,6.8,0.7,13.6,1,20.4
	c0.2,4.8,0.3,9.6,0.3,14.4c-0.1,10.2-0.2,20.3-0.5,30.5c-0.3,8.7-1,17.3-1.5,26c-0.3,5.1-0.9,10.2-1.1,15.3
	c-0.2,6.3-0.5,12.6-0.3,18.8c0.2,6.2,0.9,12.4,1.5,18.5C278.4,602.8,278.6,603.1,278.7,603.4z M325.7,436.3
	c-0.1-0.1-0.2-0.2-0.3-0.3c1-1,1.9-2,2.9-3c3.7-3.2,7.3-6.5,11.1-9.6c4.4-3.6,9-7.1,13.5-10.6c0.6-0.5,1.1-1,1.1-2.1
	c-0.9,0.6-1.5,1.1-2.1,1.6c-2,1.5-3.9,3-5.9,4.5c-8.5,6.2-16.6,12.7-23.9,20.2c-0.5,0.5-1,1-1.3,1.6c-0.2,0.3-0.2,1,0,1.2
	c0.2,0.3,0.8,0.3,1.2,0.3c0.4-0.1,0.8-0.4,1.2-0.6c2.8-1.6,5.7-3.1,8.5-4.7c0.2-0.1,0.3-0.3,0.5-0.5c-1.2,0.1-2.2,0.4-3.2,0.8
	C327.9,435.4,326.8,435.8,325.7,436.3z"/>
<path class="st0" d="M274.9,251.7c-0.2,1.8-0.4,3.5-0.6,5.3c-1.3,11.4-4,22.6-6.5,33.8c-2.1,9.6-4.2,19.2-6,28.9
	c-0.7,4-0.8,8.2-1.1,12.4c-0.3-0.1-0.7-0.3-1.1-0.6c-2.8-1.9-4.9-4.4-7.1-7c-2-2.4-4.4-4.3-7.3-5.6c-2.6-1.2-5-1.2-8-0.1
	c0.3-2.3,0.6-4.3,0.9-6.3c0.2-1.1,0.5-2.3,0.7-3.4c1.5-8.7,4.9-16.7,9.5-24.1c2.9-4.6,6-9,9-13.5c0.9-1.4,1.9-2.8,2.7-4.3
	c1.4-2.7,1.5-5.3-0.5-8c-2.8-3.8-3.8-8.4-5.1-12.9c-1-3.3-0.4-6.2,0.9-9.4c3.8-9.4,9.6-17.3,16.9-24.2c0.7-0.6,1.3-1.3,1.9-2
	c2.2-2.5,5-2.7,8.2-2.4c0.2,0.7,0.4,1.4,0.5,2.1c0.3,2.8,1.7,4.9,4,6.5c3.5,2.6,6.8,5.3,10.3,8c1,0.8,1.3,1.8,1.4,3
	c0.4,3.9-0.5,7.6-1.3,11.3c-3.3,15.9-7.3,31.6-12.1,47c-1.4,4.5-2.4,9-2.2,13.7c0.1,1.6-0.3,3.2-0.8,4.9c-0.2-0.4-0.4-0.7-0.5-1.1
	c-0.2-3-0.4-6-0.5-9.1c-0.2-10-0.4-20-0.5-30c0-3.2,0.2-6.3,0.3-9.5c0-0.2-0.1-0.4-0.3-1c-0.3,0.6-0.6,1-0.6,1.3
	c-0.8,6.5-0.9,13-0.6,19.5c0.2,4.1,0.3,8.2,0.2,12.3c-0.1,9.6,0.8,19,2.1,28.5c0.9,6.8,1.8,13.7,1.5,20.7c-1.5,1.1-3.3,1.2-5.1,1.4
	c-4.6,0.5-8.9-0.3-13.1-2.4c-1.5-0.8-2.3-1.8-2.3-3.6c-0.2-5.2,0.3-10.2,1.3-15.2c2.7-12.7,5.5-25.3,8.2-37.9
	c1.7-7.7,2.6-15.4,3.4-23.2c0.1-0.6,0-1.2,0-1.9c-0.1-0.5-0.2-1-0.3-1.6C275.3,251.7,275.1,251.7,274.9,251.7z"/>
<path class="st0" d="M326.2,251.3c-0.1,0.5-0.3,0.9-0.3,1.4c0.1,2.6,0.3,5.3,0.5,7.9c0.2,3.8,0.5,7.6,0.6,11.4
	c0.1,5.6,0.1,11.2,0.2,16.8c0,0.4,0,0.7-0.4,1.1c-0.2-1.6-0.6-3.1-0.7-4.7c-0.6-8.3-2.7-16.3-4.6-24.4c-2.4-10.1-4.7-20.2-7-30.3
	c-0.3-1.1-0.4-2.3-0.6-3.3c2.6-1.9,5-3.8,7.7-5.4c3.2-1.9,5-4.8,6.1-8.2c0.3-0.9,0.5-1.8,0.8-2.7c1.7,0,3.4-0.1,5.1,0
	c0.6,0,1.2,0.3,1.7,0.7c2.4,2.1,4.9,4.1,6.5,6.9c3.6,6.3,7.1,12.5,10.7,18.8c0.7,1.2,1.4,2.4,2.2,4c-0.7,1.7-1.6,3.8-2.3,5.9
	c-1.3,3.4-2.5,6.8-3.7,10.3c-0.2,0.4-0.3,0.9-0.5,1.3c-1.6,2.4-1.5,4.8-0.5,7.3c1.1,3.1,2.8,6,5.3,8.1c7.7,6.5,11.6,15.1,14.5,24.5
	c1.8,5.8,3.6,11.5,5.6,17.2c1,2.8,2.3,5.4,3.5,8.1c0.1,0.3,0.2,0.7,0.4,1.3c-0.8-0.2-1.4-0.3-1.9-0.5c-2.3-0.8-4.6-0.8-6.8,0
	c-3,1.1-6.2,2.2-9,3.7c-5.2,2.8-10.7,4.1-16.5,4.1c-3.8,0-7.6-0.2-11.4-0.4c-0.3,0-0.6-0.1-1-0.2c-0.1-0.6-0.1-1.1-0.2-1.6
	c-0.3-4.9-0.6-9.7-0.8-14.6c-0.3-7.9-0.6-15.8-0.8-23.7c-0.2-9-0.1-18-0.4-27c-0.1-4.5-0.8-9-1.2-13.5
	C326.5,251.3,326.3,251.3,326.2,251.3z"/>
<path class="st0" d="M225.1,217.4c-3.4,4.8-6.3,9.9-9.3,15c-3,5.1-6.2,10.2-9.1,15.4c-2.9,5.2-5.5,10.6-8.2,16
	c-0.4-0.4-0.8-0.7-1-1.1c-1.2-2.1-2.3-4.2-3.5-6.3c-0.6-1.1-0.5-1.9,0.3-3c10.5-13.6,21-27.3,31.4-41c3.6-4.8,7.1-9.6,10.3-14.6
	c4.3-6.8,10-11.5,17.6-14.1c5.3-1.8,10.6-3.8,16.2-5.8c-4.1,12.2-7.3,24.4-8,36.9c1.2,1,2.1,0.6,2.9,0.1c1.2-0.7,2.3-1.6,3.4-2.4
	c1.2-0.8,2.4-1.7,3.8-2.3c-0.5,0.5-0.9,1.1-1.4,1.5c-4.4,4.2-8.4,8.7-11.6,13.9c-1.7,2.9-3.1,6.1-4.6,9.1c-0.3,0.7-0.7,1.3-1.2,2
	c-2.4-12.6-2.2-25.5-5.4-38.1c-0.1,0.4-0.2,0.7-0.2,1.1c0.5,4.5,1,8.9,1.4,13.4c0.4,3.7,0.5,7.4,0.8,11.1c0.7,8.8,1.6,17.6,4.2,26.1
	c0.7,2.4,1.7,4.8,2.6,7.2c-0.1,0.1-0.2,0.3-0.3,0.2c-3.6-0.2-6.8,1.1-9.9,2.8c-2.5,1.4-5.1,2.7-7.5,4.2c-5.3,3.4-11,5.1-17.4,5.1
	c-2.3,0-4.6,0.2-7,0.4c-4.6,0.4-9.1-0.2-13.6-1.1c-0.8-0.2-1.7-0.1-2.8-0.1c0.4-1.1,0.8-2.1,1.2-3.1c4-8.6,8.2-17,13.2-25.1
	c4.1-6.7,7.9-13.5,11.7-20.3c0.5-1,0.9-2,1.4-3C225.5,217.6,225.3,217.5,225.1,217.4z"/>
<path class="st0" d="M299.8,684.3c-0.6-2.9-1.9-5.3-3.4-7.5c-0.3-0.5-0.4-1.3-0.3-1.9c0.4-1.2,0.1-2.2-0.7-3
	c-0.7-0.7-0.8-1.5-1.1-2.5c-0.5-2.3-1.4-4.4-2-6.7c-0.3-1-0.2-2.1-0.3-3.2c-0.1-0.6-0.4-1.3-0.7-1.8c-0.2-0.5-0.8-0.8-1-1.2
	c-1.2-3.6-1.9-7.3-1.8-11.2c0.2-3.6,0.1-7.1-0.1-10.7c-0.4-6.3-0.9-12.5-1.5-18.8c-1.6-15.6-1.4-31.1,2.2-46.5c2-8.4,2.8-17,3-25.6
	c0.3-20.6,3.1-40.8,8.9-60.5c0.7-2.5,1.3-4.9,2-7.4c0.1-0.5,0.4-1,0.5-1.2c0.6,7.3,1.2,14.7,1.7,22.2c0.2,3.2,0.5,6.5,0.6,9.7
	c0.2,13.6,0.3,27.1,0.5,40.7c0.1,8.1,0,16.1,0.3,24.2c0.3,8.6-0.5,17.2-1.4,25.7c-0.8,7.2-1.5,14.5-2.1,21.7c-0.5,7.3-1,14.5-1,21.8
	c-0.1,5.9,0.5,11.8,0.8,17.6c0.1,2.6,0.2,5.1,0.4,7.7c0.1,1.3-0.3,2.5,0.5,3.8c0.5,0.9,0.1,2.5-0.2,3.6c-0.9,3.3-1.9,6.5-2.9,9.8
	C300.3,683.7,300.1,683.9,299.8,684.3z"/>
<path class="st0" d="M400.3,267.6c-10.2-14.7-18.2-30.6-26.3-47.1c0,0.9-0.1,1.3,0,1.6c0.7,1.9,1.4,3.8,2.2,5.6
	c5.6,12.2,11.7,24.1,19.3,35.3c2.1,3.1,4.4,6,6.6,9c0.6,0.9,1.3,1.7,2.1,2.6c-3.6,1.7-7.2,2-10.8,1.2c-3.1-0.7-6.2-1.5-9.1-2.8
	c-8.5-3.9-17-8-25.4-12.1c-1.4-0.7-2.6-1.7-3.9-2.6c-1.5-1-3-2-5.3-1.4c0.4-1.4,0.7-2.6,1.2-3.7c1.9-4.8,4-9.4,5.7-14.2
	c3.2-8.7,5-17.7,6.2-26.9c0.2-1.8,0.6-3.7,0.7-5.5c0.2-1.6,0.3-3.2,0.3-4.9c0-0.8-0.4-1.7-0.8-2.9c-0.4,0.7-0.6,0.9-0.6,1
	c0.7,4-0.3,7.9-1,11.7c-1.2,7.4-2.4,14.8-4.7,22c-0.5,1.6-1,3.3-1.7,5.4c-0.5-0.9-0.9-1.5-1.2-2.1c-3.8-6.6-7.5-13.2-11.3-19.8
	c-0.7-1.2-1.7-2.3-2.7-3.6c3.4,0.9,5.4,3.9,8.8,5.1c0-1.2,0.1-2.1,0-3c-0.3-1.8-0.7-3.5-1.1-5.2c-0.8-3.5-1.5-6.9-2.3-10.4
	c-0.8-3.6-1.6-7.3-2.4-10.9c-0.1-0.4-0.1-0.7-0.2-1.5c1.4,0.4,2.6,0.6,3.6,1.1c4.7,2.3,9.4,4.7,13.3,8.4c0.6,0.6,1.4,1.1,2.2,1.2
	c1.6,0.2,2.6,1.2,3.5,2.4c1.4,1.9,2.9,3.6,4.2,5.6c2.7,4.1,5.4,8.3,8,12.5c2.9,4.7,5.6,9.5,8.4,14.2c3.2,5.6,7.6,10.2,12.1,14.7
	c1.7,1.8,3.6,3.4,5.2,5.3c2.6,2.8,2.5,8,0,10.9C402.6,265.1,401.5,266.3,400.3,267.6z"/>
<path class="st0" d="M323.4,218.4c-0.4,0.3-0.7,0.7-1,0.9c-2.9,2-5.8,4.1-8.8,6c-0.9,0.6-1.2,1.2-1,2.3c0.9,3.8,1.8,7.7,2.7,11.5
	c0.3,1.2,0.5,2.4,0.8,3.7c-0.9,0.5-1.7,1-2.5,1.4c-1.9,0.9-2.9,2.3-3.2,4.4c-0.7,4.3-1.8,8.6-2.7,12.9c-0.1,0.4-0.3,0.7-0.6,1.4
	c-1.5-3.6-2.6-6.9-3.1-10.4c-0.2-1.8-0.4-3.5-0.4-5.3c0-1.3-0.5-2.1-1.7-2.8c-1.3-0.7-2.4-1.6-3.7-2.4c0.5-2.4,1.1-4.6,1.3-6.8
	c0.3-3.2,0.2-6.3,0.3-9.5c0-0.4-0.2-0.9-0.4-1.3c-5.3-10-8.4-20.8-10.8-31.8c-0.2-0.9-0.3-1.8-0.6-2.7c-1-2.9-0.5-5.8,0.1-8.7
	c0.1-0.5,0.4-1,0.7-1.4c0.3-0.4,0.6-0.7,0.9-1c4.9-4.6,6.7-10.5,7.1-16.9c0.1-2.3-0.1-4.6-1-6.8c-0.2-0.5-0.3-1-0.6-1.8
	c1.8,1.2,3.3,2.1,4.8,3c5.1,3.1,10.1,2.9,14.9-0.7c0.2-0.2,0.5-0.3,1-0.6c0,0.6,0,1,0,1.4c-0.2,6-0.4,11.9,1.1,17.8
	c0.6,2.4,1.6,4.5,3.4,6.2c1.7,1.7,2.4,3.6,2.5,6c0.2,6.8,0.1,13.6-1.1,20.4c-0.2,1.2-0.6,2.4-1.1,3.5c-0.7,1.8-0.7,3.5,0.6,5
	C321.9,216.3,322.5,217.3,323.4,218.4z"/>
<path class="st0" d="M321.9,324.1c-3.9,1.9-7.8,1.3-11.6,1.4c-4.8,0.1-9.6,0.6-14.4,0.8c-1.8,0.1-3.7-0.2-5.5-0.3
	c-1.9-0.1-3.9,0-6,0c-0.3-2.4-0.6-4.7-0.9-7.1c-0.2-1.5-0.2-3.1-0.5-4.6c-0.5-2.4,0.3-4.7,0.6-7c0.6-3.6,1.1-7.2,0.9-10.8
	c-0.2-3.8,1.2-7.5,2.3-11.1c3.3-10.7,6.4-21.5,8.9-32.5c0.7-3,1.3-6,2.1-9.3c1.5,1,2.8,1.9,4.2,2.8c0.2,2.3,0.3,4.7,0.6,7.1
	c0.6,4.7,2.2,9,4.2,13.2c5.1,10.8,9.1,22.1,11.6,33.8c1.2,5.7,1.8,11.6,2.6,17.4C321.4,320.1,321.7,322.2,321.9,324.1z"/>
<path class="st0" d="M279,101.3c0.2-2.9,0.5-5.8,0.7-8.8c0.2-2.9,1.1-5.6,2.8-8c1.9-2.5,3.6-5,5.5-7.5c1.9-2.5,4.5-4.2,7.6-5.1
	c6.2-1.8,12.4-2.5,18.7-0.5c4.3,1.4,7.6,4,9.8,8.1c0.8,1.4,1.6,2.8,2.5,4.2c4.2,0.3,7.8,3.9,8,8.2c0.3,5.7-0.4,11.3-1.1,16.9
	c-0.2,1.2-0.3,2.4-0.6,3.9c-2.1-1.9-2.9-4.4-4-6.6c-1.2-2.3-1.7-4.8-1.9-7.4c-0.2-2.5-0.2-5-0.4-7.6c-1.6,5.2-2.3,10.9-7.3,14.4
	c1.8-4.3,4.3-8.3,4.3-13.2c-0.3,0.1-0.5,0.1-0.5,0.2c-1.7,5.3-5.5,9.1-9.3,12.9c-5.8,5.8-12.3,10.7-19.6,14.4c-1.6,0.8-3.2,1.4-5,2
	c2.8-5.7,5.8-11.2,9.5-16.3c3.7-5.1,7.7-10,12.2-14.7c-0.7,0.5-1.6,0.8-2.2,1.4c-1.7,1.6-3.3,3.2-4.9,4.9
	c-6.2,6.7-11,14.4-15.5,22.3c-2.7,4.9-5.3,9.8-7.9,14.7c-0.2,0.4-0.5,0.8-1.1,1.2c0-0.9,0-1.7,0-2.6c0-0.9,0-1.9,0.1-2.8
	c0.3-2.4,0.6-4.8,0.9-7.1c0.2-1.7,0.8-3.2,1.6-4.8c2.1-4,2.7-8.3,2.2-12.9c-0.2,0.5-0.4,1-0.5,1.6c-0.5,2.5-1,5-1.5,7.5
	c-0.3,1.5-0.8,3-2.3,4.5c0.2-1.8,0.4-3.1,0.4-4.4c-0.3-5.7,1.1-11.2,1.8-16.8c0.6-4.4,2.5-8.3,5-11.9c0.2-0.3,0.4-0.6,0.4-1.3
	c-0.4,0.2-0.8,0.4-1.1,0.7c-3.3,3.5-5,7.8-6,12.4c-0.2,1-0.3,2-0.6,3C279.5,100.7,279.2,101,279,101.3
	C278.9,101.2,279,101.3,279,101.3z"/>
<path class="st0" d="M203.1,543.6c0.8-0.8,1.3-1.4,2-2.1c-3.7,0-5.7,2.8-8.5,4.2c-0.2-0.4-0.5-0.8-0.6-1.2c-1.2-4.2-3.3-8-5.7-11.6
	c-1.1-1.7-2.2-3.4-3.3-5c-1.1-1.6-1.5-3.4-1-5.3c0.9-4.4,1.7-8.8,2.8-13.2c1.9-7.7,3.9-15.3,5.8-23c0.2-0.9,0.1-2,1.2-2.3
	c1.3-0.3,2.7-1.2,4-0.3c2.2,1.5,4.6,1.6,7.1,1.5c1.4-0.1,2.9,0.4,4.3,0.6c1.1,0.2,2.1,0.5,3.3,0.7c1.8,3.9,2.8,8.1,3.8,12.3
	c1.7,7.2,2.9,14.4,3.3,21.8c0.1,2.1,0.4,4.2,0.5,6.2c0.2,3.8-0.6,7.5-1.4,11.3c-0.7,3.3-1.4,6.5-2.2,9.7c-0.1,0.5-0.4,1-0.5,1.3
	c-2.4-1.2-4.7-2.6-7.1-3.6C208.5,544.9,205.9,544.4,203.1,543.6z"/>
<path class="st0" d="M217,315.8c2.2-1.2,4.2-2.1,5.9-3.4c0.9-0.7,1.6-2.1,1.9-3.3c0.6-2.5,1-5,1.3-7.5c0.4-4.3,0.7-8.7,0.9-13
	c0.2-5.3-0.3-10.5-1.2-15.7c0-0.3,0-0.6,0-1.2c0.5,0.4,0.8,0.6,1.1,0.9c0.3,0.4,0.5,0.8,0.7,1.2c3.1,7.5,6.6,14.9,8.2,22.9
	c0.6,2.9,0.5,6,0.5,9c0,2.9-0.3,5.8,0,8.8c0.3,2.9-0.4,6-1.1,8.9c-1.9,7.4-4,14.6-6,22c-3,11-3.7,22.3-2.7,33.6
	c0.3,3.7,0.7,7.4,1,11.1c0.1,2,0.8,3.6,2.1,5c0.4,0.4,0.7,0.8,1.1,1.2c1.5,1.6,2.2,3.5,2.2,5.7c0,2.5,0.2,4.9,0.3,7.4
	c0.1,1.9,0,1.9-1.9,3.4c-0.2-0.7-0.5-1.2-0.4-1.7c0.6-6-2.3-10.2-7.2-13.3c0,0-0.1,0-0.4,0.1c0.2,0.4,0.4,0.9,0.7,1.3
	c2.3,2.9,2.3,4.5,0.4,7.7c-0.8,1.4-1.6,2.8-2.4,4.2c-0.1,0.1-0.2,0.2-0.4,0.4c-1.4-2.5-1.7-5.3-1.8-8c-0.2-5.4-0.2-10.9-0.5-16.3
	c-0.2-3.9-0.7-7.7-1.1-11.6c-0.3-3.5-0.8-6.9-0.8-10.4c-0.1-12.9-0.1-25.9-0.2-38.8c0-1.8-0.1-3.6-0.1-5.3
	C217,319.2,217,317.4,217,315.8z"/>
<path class="st0" d="M319.2,102.4c-1.5,2.4-2.9,4.9-4.4,7.4c1,0.4,1.8-0.2,2.7-0.6c3.6-1.8,6-4.8,7.7-8.4c0.2-0.4,0.3-0.8,0.7-1.2
	c0.3,2.9,1.3,5.5,2.1,8.2c0.5,1.5,0.4,3.2,0.4,4.8c0.1,3.9,0.4,7.9-0.6,11.8c-1.2,4.4-2,8.9-2.9,13.4c-0.7,3.6-2.1,6.8-4.4,9.6
	c-1.5,1.8-2.9,3.6-4.4,5.4c-4.3,5.1-10.5,5.7-14.8,2.8c-3.2-2.1-6.2-4.4-9.1-6.8c-2.3-1.9-3.9-4.4-4.9-7.3c-0.2-0.4-0.3-0.9-0.5-1.3
	c-2-2.7-1-4.9,1.1-6.9c1.1-1.1,2.2-2.2,3.5-3c5.1-3.3,9.2-7.7,12.6-12.6c1.6-2.3,3.3-4.4,5.4-6.3c3.3-3,6.6-6.1,9.8-9.2
	C319.1,102.3,319.2,102.4,319.2,102.4z M311.5,142.5c0-0.1,0-0.2,0-0.3c-1-1.8-3-2.1-4.7-2.7c-1.3-0.5-2.8-0.2-4.3-0.3
	c-0.1,0-0.3,0.1-0.4,0.2c-1.3,0.8-2.6,1.6-3.9,2.5c-0.2,0.1-0.4,0.6-0.4,0.8c0.1,0.3,0.5,0.5,0.8,0.7c0.2,0.1,0.4-0.1,0.7-0.1
	c3,0,6,0,8.9,0C309.4,143.2,310.6,143.4,311.5,142.5z M324.4,121.4c0-1.3-0.6-1.9-1.6-2.2c-0.6-0.2-1.2-0.2-1.8-0.3
	c-2.7-0.4-5.1,1-7.6,1.5c-1.1,0.2-1.5,1.3-1.3,2.9c1.3-1.9,2.8-1.9,4.7-1.1c1.3,0.6,2.5,0.2,3.4-1c0.2-0.3,0.4-0.6,0.8-1.2
	C322.1,120.4,323.1,120.9,324.4,121.4z M324.6,115.9c-0.4-2.1-1.9-2.1-3.3-2.2c-3.9-0.3-7.2,1.4-10.6,3c-1,0.5-1.6,1.6-1.9,3.1
	C313.6,115.8,318.5,113.8,324.6,115.9z M301.4,133c-0.2,1.8,0,2.3,1.3,2.4c1.5,0.1,3.1,0.2,4.6,0c2.2-0.2,2.6-1.6,1.2-3.3
	c-0.1-0.1-0.4,0-0.7-0.1c0,0.7,0,1.4,0,2.3C305.6,133.8,303.3,135.4,301.4,133z M302.3,146.1c2.2,0.9,3.4,0.7,5.2-0.5
	C305.7,145.3,304.1,145,302.3,146.1z"/>
<path class="st0" d="M217.6,484.7c0.1,1.1,0.1,2,0.2,2.9c0.2,1.5,0.9,2,2.4,1.8c2-0.3,2.9-1.4,3-3.4c0-0.9,0-1.8,0-2.9
	c1.9-0.9,3.8-1.7,5.7-2.7c1.8-1,3.6-2.1,5.4-3.3c1.7-1.1,3.3-2.3,4.9-3.6c1.7-1.3,3.2-2.7,4.9-3.9c1.6-1.2,2.6-3.1,4.7-4.5
	c0.1,1.2,0.1,1.8,0.2,2.6c1.2-0.3,2.3-0.5,3.6-0.8c1.6,1.9,3.2,3.8,3.8,6.4c1,4.3,1.8,8.6,2.7,12.6c-1.4,1.5-2.5,2.6-3.6,3.8
	c-1.8,2-3.6,4-5.5,5.9c-4.8,4.9-9.7,9.8-14.6,14.7c-3.4,3.4-7,6.6-11.2,9c-0.3,0.2-0.6,0.4-1.1,0.6c-0.1-0.8-0.3-1.4-0.3-2
	c-0.3-6.8-1.6-13.4-3.1-19.9c-0.9-3.8-2-7.5-3-11.2C216.1,486,215.7,485,217.6,484.7z"/>
<path class="st0" d="M371.3,268.7c3.3,1.5,6.3,2.9,9.4,4.2c3.3,1.4,6.6,2.7,10,3.8c4.1,1.3,8.4,1.5,12.6,0c0.4-0.1,0.7-0.1,1.1-0.2
	c1.4,0.9,0.9,2.1,0.4,2.9c-1.2,2.4-2.5,4.8-4,7.1c-3.3,5-7.7,9.1-12,13.2c-1.2,1.2-2.5,2.3-3.7,3.5c-4,3.8-8,7.6-10.2,13.4
	c-0.9-2.3-1.7-4.1-2.4-5.9c-0.2-0.6-0.4-1.2-0.6-1.7c-2.6-5.3-2.5-10.9-1.5-16.5c1.2-6.5,2-13,1.5-19.7
	C371.7,271.5,371.5,270.3,371.3,268.7z"/>
<path class="st0" d="M235.7,327.3c1.8,2.8,3.6,5.4,5.4,8.2c0.3,0.4,0.4,1.2,0.2,1.7c-0.8,2.5-1.7,5-2.6,7.4
	c-0.4,1.2-0.2,1.6,1.2,2.9c2.1,1.8,4.2,3.6,6.3,5.5c1.1,1,2.2,2.1,3.5,3.4c-3.3,6.3-7,12.7-9.4,19.6c-2.4,7-4.8,13.9-7.3,21
	c-1.1-1.3-2.2-2.4-3.1-3.7c-0.5-0.7-0.8-1.7-0.9-2.6c-0.6-6.7-1.3-13.4-1.6-20.1c-0.3-8,0.7-15.9,2.7-23.7
	c1.6-6.1,3.4-12.1,5.1-18.1C235.3,328.2,235.5,327.8,235.7,327.3z"/>
<path class="st0" d="M347.8,216.7c-4.1-2.5-7.3-5.7-11.7-6.9c-4.3-1.1-8.7-0.9-13.2-0.7c0.2-0.8,0.3-1.4,0.4-2
	c0.3-2.7,0.7-5.4,0.7-8.1c0.1-4.8,0-9.6,0-14.4c0-1.3-0.2-2.3-1.3-3.3c-4.3-3.7-5.4-8.9-5.7-14.3c-0.1-1.1,0-2.2,0-3.4
	c3.8,0.7,7,2,9.1,5.4c1.9,3.1,4.4,5.8,7.2,8.2c1.1,1,2.1,2.1,3.3,2.9c3,2.2,4.5,5.2,5.2,8.7c1.5,6.9,3,13.8,4.5,20.6
	C346.8,211.8,347.3,214.1,347.8,216.7z"/>
<path class="st0" d="M288,731.6c1.8,3.1,4.4,4.7,7.6,5.7c2.4,0.7,4.7,0.8,7.1-0.1c1.7-0.6,3.5-1.3,5.5-2.1c0.2,3.9,0.3,7.6,0.4,11.3
	c0.1,2.2,0.2,4.3-0.1,6.5c-0.1,1.3-0.7,2.7-1.4,3.9c-2.9,4.6-7,8-11.3,11.3c-0.5,0.4-1.2,0.7-1.9,1c-1,0.4-1.9,0.4-2.8-0.4
	c-2.2-2-4.4-3.9-6.5-6c-2.3-2.3-3.3-5.4-4.6-8.3c-0.3-0.8,0-2,0.3-2.9c2-5.1,4-10.2,6-15.4C286.9,734.7,287.4,733.3,288,731.6z"/>
<path class="st0" d="M285.3,207c-4.3-1.3-8.1-0.5-11.9,0.7c-3.8,1.2-6.3,4.3-10.2,6.5c0.3-2.9,0.4-5.2,0.8-7.4
	c1.6-9,3.5-17.9,6.5-26.6c0.2-0.4,0.3-0.9,0.5-1.3c0.7-2.4,2-4.1,4.7-4.4c2.3-0.3,4.1-1.8,5.7-3.4c1.3-1.2,2.4-2.7,3.7-3.8
	c1.7-1.4,3.4-2.6,5.3-3.7c1.3-0.8,2.8-0.8,4.2-0.4c0.2,5-1.6,9.4-5.6,13.9c-0.3-2,0.4-3.8,0.8-5.5c0.3-1.7,0.8-3.4,1.2-5
	c-0.2-0.1-0.4-0.2-0.6-0.2c-0.4,0.8-1,1.6-1.3,2.5c-2.9,10.2-4.6,20.5-4.2,31.2c0.1,1.5,0.3,2.9,0.4,4.4
	C285.3,205.2,285.3,206,285.3,207z"/>
<path class="st0" d="M328.5,324c-1.7,0.2-3,0.4-4.6,0.5c-0.3-1-0.7-2-0.9-3.1c-0.9-5.9-1.5-11.8-2.6-17.7
	c-0.9-5.1-2.3-10.1-3.6-15.1c-2-7.3-4.6-14.3-7.8-21.1c-0.5-1-0.6-1.9-0.3-3.1c1.2-5,2.4-10.1,3.2-15.2c0.4-2.7,2.2-3.7,4.4-4.8
	c0.9,3.6,1.8,7.1,2.6,10.7c1.4,6.2,3,12.4,4.2,18.6c0.8,4,1.1,8.1,1.8,12.2c0.5,3,1.3,5.9,1.9,8.8c0.1,0.6,0.3,1.2,0.4,1.8
	c0.2,3.5,0.3,7,0.5,10.4c0.3,4.7,0.5,9.4,0.8,14.2C328.5,322,328.5,322.9,328.5,324z"/>
<path class="st0" d="M259.8,491.2c0.5,2.6,0.9,4.8,1.2,7c0.3,1.6,0.5,3.2,0.9,4.8c0.3,1.2,0.1,2.3-0.8,3.2c-2.3,2.5-4.6,5-6.9,7.5
	c-9.6,10.3-20.2,19.6-30.8,28.9c-0.9,0.8-1.7,1.5-2.8,2.5c1.1-7.4,3.6-14.3,2.4-21.7c1.4-0.6,2.8-1.1,4-1.9c2.7-1.7,5.5-3.5,8-5.5
	c8.4-6.8,15.7-14.7,22.8-22.8C258.4,492.7,258.9,492.2,259.8,491.2z"/>
<path class="st0" d="M228,271.3c5.1-1,9.4-3.7,13.8-6.3c3-1.7,6.1-3.4,9.2-4.8c1.4-0.6,3.2-0.8,4.7-0.7c3,0.1,4.7,2.8,3.5,5.6
	c-0.7,1.7-1.7,3.3-2.7,4.8c-2.4,3.6-5,7.1-7.4,10.7c-1.9,2.9-3.6,6-5.2,9c-2.4,4.4-4,9.1-5.3,13.9c-0.2,0.7-0.4,1.5-1,2.2
	c0-0.9,0-1.7,0-2.6c0-3-0.4-6-1.3-8.9c-1.6-5.4-3.1-10.9-5.6-16C229.7,276,229,273.6,228,271.3z"/>
<path class="st0" d="M224.5,271.6c1.5,11.7,0.6,23.3-1.2,35c-0.2-0.4-0.4-0.7-0.6-1.1c-2.8-5.8-6.8-10.7-11.6-14.9
	c-3.1-2.6-6.3-5-9.5-7.5c-2.9-2.4-4.6-5.4-4.4-9.3c0.1-2.5,1.4-3.6,3.8-3c4.6,1.1,9.2,1.3,13.8,1.1c2.6-0.1,5.3-0.3,7.9-0.4
	C223.2,271.4,223.8,271.5,224.5,271.6z"/>
<path class="st0" d="M278.3,677.6c5.5,1.1,10.9,1.9,16.6-0.1c1.6,2.2,2.9,4.5,3.1,7.6c-1.4,0.8-2.1,1.9-1.5,3.6
	c0.1,0.3-0.2,0.9-0.3,1.3c-0.1,0.6-0.5,1.2-0.4,1.8c0.5,2.6-0.3,4.9-1,7.3c-0.3,1.3-0.5,2.7-0.7,4.1c-0.2,1.6-0.7,2.1-2.4,2.1
	c-0.3,0-0.6-0.1-0.9,0c-4.6,0.9-7.6-1.9-10.5-4.7c-0.8-0.8-0.8-0.8-0.7-2.7c4.5-1.1,9.3-0.3,14.1-1.3c-1.6-1.2-1.6-1.2-6.8-1
	c-2.2,0.1-4.5,0.3-6.8,0.5c-0.8-0.8-0.9-1.7-0.7-2.9c0.4-1.9,0.4-3.8,0.5-5.8c0-0.4-0.1-0.8-0.2-1.1c-0.2-1-0.4-2.1-0.6-3.1
	c0-0.2,0-0.3,0-0.5C278,681.1,278.6,679.3,278.3,677.6z"/>
<path class="st0" d="M368,296.5c-0.9-2.2-1.7-4.5-2.6-6.7c-2.5-6.2-6.1-11.7-11.2-16.1c-2.7-2.3-4.3-5.5-5.7-8.6
	c-1-2.2-0.7-4.4,1-6.2c1.1-1.2,2-1.4,3.2-0.5c4.6,3.7,9.9,6.1,15.1,8.6c1.4,0.6,2.1,1.5,2.1,3c0.1,3,0.4,6,0.2,9
	c-0.3,4.6-0.9,9.1-1.4,13.6c-0.1,1.3-0.3,2.6-0.5,3.9C368.3,296.5,368.1,296.5,368,296.5z"/>
<path class="st0" d="M307.9,733.4c-2.2,0.8-4.5,2-6.9,2.4c-4.1,0.8-7.8-0.3-10.8-3.3c-0.2-0.2-0.5-0.4-0.6-0.7
	c-0.3-2.3-1.2-4.5-0.3-7c1-2.5,1.5-5.2,2.1-7.8c0.4-1.8,0.8-3.6,1.2-5.5c4.5,3.9,10,4.3,15.9,3.8c0.8,2.4,0.9,4.9,0.7,7.3
	c-0.1,1.8-0.7,3.6-1,5.5C308,729.8,308,731.4,307.9,733.4z"/>
<path class="st0" d="M233,461.8c1.2-12.7-0.1-25.5-0.3-38.5c0.8,0,1.5,0.1,2.5,0.1c2,6.9,3.8,13.8,6,20.5c2.1,6.7,4.6,13.3,6.9,20.1
	C243.2,463.4,238.4,462.6,233,461.8z"/>
<path class="st0" d="M251.9,350.4c-0.4-3.3-2.1-5.9-4-8.5c-2.9-4-5.8-8-8.7-12.1c-1.8-2.6-2.2-5.4-1.3-8.4c0.6-1.9,2.8-2.9,5.2-2.1
	c2.8,0.9,5.1,2.6,7.1,4.7c2.1,2.3,4.2,4.5,6.2,6.9c0.3,0.3,0.5,1,0.4,1.4c-0.9,4.6-1.7,9.1-2.7,13.6c-0.3,1.5-1.1,3-1.6,4.5
	C252.3,350.5,252.1,350.4,251.9,350.4z"/>
<path class="st0" d="M317.1,669.5c-1.7,7.8-3.3,15.5-5,23.2c-4.6-0.4-8.5-2-12.5-3.9c2.7-6.2,4.7-12.4,4.8-19.1
	C308.7,666.8,312.9,667,317.1,669.5z"/>
<path class="st0" d="M276.1,644c3.8-0.8,7.2-0.7,10.4,0.7c0.8,4.1,1.6,8,2.4,12c0.1,0.7,0.4,1.3,0.8,1.9c1,1.5,0.7,2.9-0.9,3.4
	c-1.2,0.4-2.4,0.6-3.6,0.6c-2.2,0.1-4.5,0-6.7-0.1c-1.5-0.1-2.2-1-2.5-3.3c0-0.3,0-0.6,0-0.9c0.6-4.4,0.8-8.8,0.1-13.2
	C276,644.8,276.1,644.5,276.1,644z"/>
<path class="st0" d="M314.2,693.7c0.1,0.7,0.3,1.1,0.3,1.5c-0.7,3.3-1.5,6.5-2.2,9.7c-0.3,1.2-1,1.7-2.3,1.8
	c-4.1,0.2-8.1-0.3-11.4-3c-0.5-0.4-1.1-0.9-1.6-1.4c-1-0.9-1.3-2-0.8-3.4c0.3-0.8,0.6-1.6,0.7-2.5c0.2-1.3,0.2-2.6,0.2-3.9
	c0-0.9,0.1-1.8,0.1-3c0.7,0.6,0.9,1,1.3,1.1c3.4,1.1,6.9,2.2,10.4,3.2C310.5,694.4,312.2,694.5,314.2,693.7z"/>
<path class="st0" d="M367.3,351.4c0,14.6,0,28.9,0,43.3c-0.2,0-0.3,0-0.5,0.1c-0.8-3.6-1.6-7.2-2.4-10.7c-0.4-1.6-1-3.2-1.5-4.8
	c-0.5-1.5-0.9-2.9-1.3-4.4c-1-3.6-1.8-7.2-3-10.7c-0.9-2.7-0.2-5.2,1.1-7.2C361.5,354.2,364.3,352.6,367.3,351.4z"/>
<path class="st0" d="M278.9,701.3c1.9,1.5,3.5,2.7,5.1,4c1.3,1.1,2.6,1.5,4.3,1.4c1.3-0.1,2.6,0,4.1,0c-1.4,2-1.3,4.1-1.5,6.3
	c-0.2,2.6-1,5.1-1.7,7.7c-0.4,1.6-1.1,3.2-1.7,4.8c-0.3,0-0.5,0-0.5,0c-4-3.9-8-7.7-8.9-13.7c-0.1-0.8-0.3-1.7-0.3-2.5
	c0-0.7,0.1-1.4,0.2-2.1C278.2,705.2,278.5,703.4,278.9,701.3z"/>
<path class="st0" d="M226.9,405.8c0.1,0.8,0.3,1.3,0.1,1.5c-4.7,6.5-6.8,13.9-8.4,21.6c-1.7,8.1-3.5,16.2-5.6,24.2
	c-1.3,5-3.2,9.9-4.8,14.8c-0.5,1.6-1.1,3.2-1.4,4.9c-0.4,1.6-1.3,2.5-3,3c-0.2-2.2,0.2-4.2,0.7-6.2c3.5-12.4,7.1-24.9,10.6-37.3
	c2.5-9,6.4-17.4,10.9-25.6C226.2,406.5,226.5,406.3,226.9,405.8z"/>
<path class="st0" d="M354.9,343c-1.8-3.5-2.2-7.2-2.9-10.8c1.8-0.7,3.6-1.4,5.4-2.1c3.7-1.5,7.3-3,11-4.3c3-1.2,5.9-0.4,9,1.4
	c-1.2,0.6-2.2,1.1-3.1,1.6c-1.3,0.7-2.7,1.2-3.9,2.1c-3.2,2.3-6.3,4.6-9.3,7c-1.5,1.2-2.9,2.6-4.3,3.9
	C356.2,342.1,355.6,342.5,354.9,343z"/>
<path class="st0" d="M241,427.4c2.4,2.2,4.6,4.5,5.3,7.7c0.4,1.8,1.3,3.4,2.1,5.1c0.9,1.8,1.1,3.9,1.7,5.8c2,6,3.8,12.1,6.1,18
	c2.9,7.6,5,15.4,5.8,23.6c0.5,4.5,1.2,8.9,1.7,13.3c0.1,0.7,0,1.4,0,2.6c-0.8-4-1.5-7.4-2.1-10.9c-1.2-6.3-2.5-12.6-3.7-18.9
	c-0.6-3.2-2.5-5.6-4.7-7.9c-0.4-0.4-0.9-1-0.9-1.5c-0.2-3.9-1.8-7.5-3.1-11.2c-1.5-4.3-3-8.6-4.3-13
	C243.5,435.9,242.3,431.6,241,427.4z"/>
<path class="st0" d="M221.3,482.7c0.2,1.1,0.5,2.1,0.6,3.1c0.1,1.8-0.1,2-2.2,2.2c-1.9-4.4-1.6-9-1.3-13.6c0.4-6.5,1.1-13,1.6-19.5
	c0.3-3.4,0.4-6.8,0.7-10.2c0.6-6.4,1.3-12.8,2-19.2c0.2-2.4,0.6-4.8,0.7-7.2c0.1-2.3,1.3-4.2,2.2-6.1c0.2,0,0.4,0.1,0.5,0.1
	c-0.1,1-0.1,2.1-0.2,3.1c-0.5,3.6-1.2,7.2-1.6,10.8c-0.7,6.4-1.3,12.8-2,19.2c-0.6,5.1-0.8,10.2-0.6,15.3c0.2,6.2,0.3,12.5,0.4,18.7
	C222,480.5,221.5,481.7,221.3,482.7z"/>
<path class="st0" d="M223.4,480.8c0-2.8,0-5.5,0-8.3c4.1-2.7,8-5.4,12-8c0.5-0.3,1.1-0.5,1.7-0.4c2.9,0.4,5.8,0.8,8.7,1.2
	C244.6,468.5,229.1,479.3,223.4,480.8z"/>
<path class="st0" d="M221.1,423.9c-2.1,14.5-2,29.3-3.7,43.9c-3,1.7-6,3.5-9.4,5.5c0.8-2.6,1.3-4.8,2.1-7c4.8-12.3,7.1-25.3,10-38.1
	C220.4,426.7,220.8,425.3,221.1,423.9z"/>
<path class="st0" d="M226.3,423.7c2,13.1,1.8,26.1,1.1,39.2c-1.2,0.7-2.5,1.4-4,2.3c-1.6-13.6,1.4-26.7,2.4-39.9
	C225.8,424.7,226.1,424.2,226.3,423.7z"/>
<path class="st0" d="M276,663.6c7.1,0.7,10,0.5,14.8-0.6c0.6,2,1.4,4,1.9,6.1c0.4,1.6-0.1,2.3-1.7,2.8c-1.3,0.4-2.5,0.7-3.8,0.8
	c-2.7,0.3-5.4,0.5-8.3,0.8c-0.2-1.7-0.2-3.4-0.6-5.1C277.8,666.8,276.9,665.3,276,663.6z"/>
<path class="st0" d="M231.5,461.2c-0.9,0.3-1.6,0.5-2.7,0.9c0.2-13,0.8-25.7-1-38.6c1.4-0.2,2.6-0.3,3.9-0.5
	C231.6,435.8,232.1,448.5,231.5,461.2z"/>
<path class="st0" d="M280.2,144.9c-0.9-3.8,0.1-7.1,1.8-10.2c1.6-3,3.2-6,4.8-9c0.3-0.6,1-1.3,1.6-1.5c4.7-1.5,8.9-4,13-6.7
	c0.2-0.2,0.5-0.3,1.3-0.6c-0.5,0.9-0.8,1.4-1.1,1.9c-2.9,3.8-6.3,7-10.3,9.7c-4,2.7-6.9,6.4-8.6,11C282,141.3,281,143.1,280.2,144.9
	z"/>
<path class="st0" d="M367,335.1c1.8,3.3,4.5,5.8,5.3,9.6c-1.4,0.2-2.6,0.3-3.8,0.6c-2.4,0.5-4.8,1-7.2,1.5c-0.6,0.1-1.2,0.3-1.8,0.4
	c-1.1,0.3-2.3,0.5-3.2-0.7c-0.6-0.9-0.4-1.9,0.8-3.3C359.9,340,363.4,337.6,367,335.1z"/>
<path class="st0" d="M296,702.7c3,4.3,7.6,5.4,12.8,5.7c-0.1,1.7-0.2,3.3-0.3,5.2c-4.7,0.2-9.3,0.7-13.5-1.9c-2.9-1.8-2.7-2.6-1.1-5
	C294.7,705.5,295.2,704.1,296,702.7z"/>
<path class="st0" d="M321,330.7c1-0.2,1.9-0.5,3.2-0.8c0.4,2.3,0.7,4.5,1,6.6c1,6.6,1.5,13.2,1.4,19.9c0,4.6,0.5,9.3,0.7,13.9
	c0.3,4.6,0.5,9.3,0.7,13.9c0,0.7,0,1.4-0.2,2.1c-0.1,0.3-0.7,0.8-1,0.7c-0.4-0.1-1-0.5-1.1-0.9c-0.2-0.6-0.1-1.2,0-1.8
	c0.7-7.8,0.6-15.6,0-23.4c-0.3-4-0.2-8.1-0.9-12c-0.9-5.6-2.4-11.2-3.7-16.8C321.3,331.7,321.2,331.3,321,330.7z"/>
<path class="st0" d="M198.1,481.8c6.4-4.2,12.5-8.2,19.1-12.5c0.2,1.8,0,3.2,0,4.2c-3.4,2.9-6.7,5.5-9.6,8.4c-2.3,2.3-3.4,1.9-6,1.2
	C200.6,482.8,199.5,482.3,198.1,481.8z"/>
<path class="st0" d="M315.6,326.9c-1.1,1.8-2.2,2.5-4.2,2.4c-3.1-0.1-6.2,0.3-9.2,0.5c-4.7,0.3-9.4,0.6-14.1,0.9
	c-1.1,0.1-2.1,0.1-3.4,0.2c0-1.1,0-2,0-3.2c1.1-0.6,2.5-1,3.9-0.6c5.2,1.2,10.3,0.4,15.5,0C307.7,326.8,311.5,326.8,315.6,326.9z"/>
<path class="st0" d="M354.8,347.1c2,2.1,4.2,1.5,6.3,1c3.1-0.7,6.2-1.3,9.3-1.9c0.4-0.1,0.8,0,1.3,0c-0.5,1.6-1.8,2.3-3.1,3
	c-2,1.1-4.1,2.2-6.1,3.3c-2.5,1.4-4.6,3.1-5.3,6.2C355.6,356.1,354.4,350.8,354.8,347.1z"/>
<path class="st0" d="M286.7,192.1c2.7,9.7,4.8,19.6,9.4,28.6c-0.1,0.1-0.3,0.2-0.4,0.3c-1.7-1.2-3.5-2.4-5.1-3.7
	c-0.4-0.3-0.5-1.1-0.5-1.6c0-0.7,0.2-1.4,0.2-2.1c0.1-2.1-0.4-3.9-2.5-4.8c-0.7-0.3-1-0.8-1-1.6c-0.1-4-0.3-8-0.4-12
	C286.3,194.2,286.5,193.1,286.7,192.1z"/>
<path class="st0" d="M236.3,423.4c1.5-0.4,1.6,0.6,1.9,1.2c1.7,3.6,2.6,7.4,3.7,11.2c1.6,5.4,3.5,10.7,5.3,16
	c1.1,3.3,2.3,6.6,3.3,9.9c0.4,1.2,0.3,2.5,0.2,3.8C244.4,452.2,241.2,437.6,236.3,423.4z"/>
<path class="st0" d="M240.2,345.1c0.8-2.3,1.6-4.5,2.5-7c0.5,0.5,0.9,0.8,1.2,1.2c1.4,1.9,2.8,3.9,4.2,5.8c1.3,1.8,1.9,3.9,2.1,6.1
	c0.1,0.8-0.2,1.6-0.3,3C246.5,351,243.4,348.1,240.2,345.1z"/>
<path class="st0" d="M259.3,488.1c-0.2,0.6-0.2,1.5-0.6,1.9c-7.3,8.5-14.9,16.6-23.2,24c-2.4,2.2-5.1,4-7.8,5.8
	c-1.4,0.9-3,1.4-4.9,2.3c0.3-0.6,0.4-0.9,0.5-1c4.9-2.7,9.3-6.1,13.3-10.1c5.4-5.5,10.9-10.8,16.2-16.3c2.1-2.2,4-4.5,6-6.8
	C259,488,259.2,488.1,259.3,488.1z"/>
<path class="st0" d="M217,313.3c0-4.8,0-9.4,0-14.5c2.3,3,4.5,5.5,5,9C222.4,310.5,220.2,313,217,313.3z"/>
<path class="st0" d="M294.3,672.3c0.1,0.5,0.5,1.3,0.4,1.9c-0.2,0.9-0.5,2-1.7,2.3c-0.4,0.1-0.7,0.3-1.1,0.4
	c-4.4,0.8-8.7,0.4-13.2-0.4c0-1.5,0.9-1.8,2-1.9c2.8-0.3,5.5-0.5,8.3-1C290.7,673.4,292.3,672.9,294.3,672.3z"/>
<path class="st0" d="M207.7,483.1c3-2.3,5.9-4.7,9.2-7.2c0,2.7,0,4.8,0,7.1c-0.6,0.3-1.2,0.3-1.6,0.7c-1.4,1.4-2.8,1.2-4.4,0.5
	c-0.9-0.4-1.9-0.4-2.9-0.6C207.9,483.4,207.8,483.2,207.7,483.1z"/>
<path class="st0" d="M328.4,135.4c-0.4,3.4-0.7,6.6-1.1,10c-0.3-0.2-0.7-0.5-1.3-1c-2.2,3.2-3.4,7.2-7.3,9.2
	c-0.5-1.1-0.1-1.9,0.5-2.7c0.7-1,1.5-2,2.3-2.9c1.7-2.1,3.1-4.5,3.8-7.1C325.8,138.8,326.8,137.2,328.4,135.4z"/>
<path class="st0" d="M326.7,135.3c-0.1-1.8,0.5-3,1.2-4.2c0.9-1.3,1.5-2.8,2.2-4.3c0.2-0.4,0.1-0.8-0.2-1.4c-0.5,0.8-1,1.6-1.4,2.5
	c-0.1,0-0.2-0.1-0.3-0.1c0.5-2.2,1-4.3,1.6-6.5c0.9-0.3,1.7-0.5,2.8-0.8C332.6,126.1,330.8,130.9,326.7,135.3z"/>
<path class="st0" d="M231,462.5c0.7,0.6,1.3,1,2.1,1.6c-3.2,2.3-6.3,4.5-9.5,6.7c-0.5-1.3-0.1-2.6-0.3-3.9
	C225.8,465.5,228.3,464.1,231,462.5z"/>
<path class="st0" d="M237.7,421.6c-1.5,0.4-2.7,0.7-4.2,0.4c-1.4-0.4-3,0-4.6,0.1c-0.8,0-1.6,0.2-2.7,0.3c0.3-1.2,0.5-2.2,0.7-3.1
	c2.7,0.1,5.3,0.2,7.9,0.5C235.9,419.8,237.1,420.1,237.7,421.6z"/>
<path class="st0" d="M227.6,417.7c0-2.9,0-5.4,0-8c0-1,0-1,1.7-2.8c0.2,2,0.2,3.8,0.5,5.6c0.3,1.8,0.9,3.6,1.4,5.7
	C229.7,418,228.5,417.8,227.6,417.7z"/>
<path class="st0" d="M323.4,328.2c-2.1,1-3.9,1.9-5.8,2.8c-0.3,0.2-0.7,0.5-1,0.5c-0.5,0-1.2-0.2-1.4-0.5c-0.2-0.3-0.2-1.2,0.1-1.5
	c1.7-1.7,3.6-3.1,6.1-3.4C322.8,325.9,323.3,326.6,323.4,328.2z"/>
<path class="st0" d="M324.4,217.4c-1-1.4-1.7-2.3-2.3-3.4c-1.1-1.8-0.5-3.2,1.6-3.4c0.8-0.1,1.5-0.1,2.3-0.1c0.4,0,0.7,0.1,1.4,0.2
	C326.4,212.9,325.4,215,324.4,217.4z"/>
<path class="st0" d="M284.4,208.7c4.2,2,4.6,2.7,3.9,6.5C285.6,214.4,284,211.8,284.4,208.7z"/>
<path class="st0" d="M234.2,413.1c0.7,2,1.4,3.7,2,5.4c-3.5,0.2-3.5,0.2-4.9-3.9C232.3,414.1,233.2,413.6,234.2,413.1z"/>
<path class="st0" d="M328.7,328.4c-1.3,0-2.4,0-3.7,0c-0.1-0.7-0.1-1.5-0.2-2.5c1.2-0.2,2.3-0.4,3.7-0.6
	C328.6,326.3,328.6,327.2,328.7,328.4z"/>
<path class="st0" d="M332.5,115.4c-0.8,1.2-1.5,2.2-2.5,3.5c-0.2-2.6-0.3-4.7-0.4-7.1C331,112.8,331.4,114.3,332.5,115.4z"/>
<path class="st0" d="M279.1,106.2c-0.3,1.2-0.6,2.4-0.9,3.6c-0.1,0-0.2,0-0.3-0.1c0.2-1,0.3-2.1,0.5-3.1
	C278.4,106.5,278.8,106.4,279.1,106.2L279.1,106.2z"/>
<path class="st0" d="M227.9,405.5c-0.3-0.8-0.6-1.6-1-2.4c0.2-0.1,0.3-0.1,0.5-0.2c0.4,0.8,0.7,1.5,1.1,2.3
	C228.4,405.3,228.2,405.4,227.9,405.5z"/>
<path class="st0" d="M279.1,106.2c0-1.7-0.1-3.3-0.1-5c0,0,0,0,0,0C279,102.9,279,104.6,279.1,106.2
	C279.1,106.2,279.1,106.2,279.1,106.2z"/>
<path d="M278.7,603.4c-0.1-0.3-0.3-0.5-0.3-0.8c-0.5-6.2-1.3-12.3-1.5-18.5c-0.2-6.3,0-12.5,0.3-18.8c0.2-5.1,0.7-10.2,1.1-15.3
	c0.5-8.7,1.2-17.3,1.5-26c0.4-10.1,0.4-20.3,0.5-30.5c0-4.8-0.1-9.6-0.3-14.4c-0.3-6.8-0.7-13.6-1-20.4c-0.2-3.5-0.2-7-0.3-10.5
	c-0.3-10.4-0.6-20.8-1-31.1c-0.5-11-1.2-22-1.8-33c-0.2-4.2-0.6-8.3-0.8-12.5c-0.1-2.5-0.1-4.9,0.7-7.6c0.4,5.8,0.8,11.2,1.1,16.6
	c0.5,8,0.9,16.1,1.4,24.1c1.1,18,1.7,35.9,2,53.9c0.1,6.7,0.7,13.5,1.1,20.2c0.1,2.6,0.2,5.3,0.2,7.9c0,9.7,0.1,19.4-0.2,29.1
	c-0.3,8.6-1,17.2-1.6,25.8c-0.5,7.3-1.2,14.7-1.6,22c-0.3,6.2-0.3,12.4-0.3,18.6c0,2.3,0.4,4.6,0.8,6.9c0.8,4.8,0.4,9.6,0.5,14.4
	C279.1,603.3,278.9,603.4,278.7,603.4z"/>
<path d="M325.7,436.3c1.1-0.4,2.1-0.8,3.2-1.2c1-0.4,2-0.7,3.2-0.8c-0.1,0.2-0.3,0.4-0.5,0.5c-2.8,1.6-5.7,3.2-8.5,4.7
	c-0.4,0.2-0.8,0.5-1.2,0.6c-0.4,0.1-1,0-1.2-0.3c-0.2-0.3-0.2-0.9,0-1.2c0.3-0.6,0.8-1.1,1.3-1.6c7.3-7.5,15.5-14,23.9-20.2
	c2-1.5,3.9-3,5.9-4.5c0.6-0.5,1.2-0.9,2.1-1.6c0,1.1-0.5,1.6-1.1,2.1c-4.5,3.5-9.1,7-13.5,10.6c-3.8,3.1-7.4,6.4-11.1,9.6
	c-1,0.9-1.9,2-2.9,3C325.5,436.1,325.6,436.2,325.7,436.3z"/>
<path d="M311.5,142.5c-0.9,0.9-2.1,0.7-3.2,0.8c-3,0-6,0-8.9,0c-0.2,0-0.5,0.1-0.7,0.1c-0.3-0.1-0.7-0.4-0.8-0.7
	c-0.1-0.2,0.2-0.6,0.4-0.8c1.3-0.9,2.6-1.7,3.9-2.5c0.1-0.1,0.3-0.2,0.4-0.2c1.4,0.1,3-0.2,4.3,0.3c1.7,0.6,3.7,0.9,4.7,2.7
	C311.5,142.3,311.5,142.4,311.5,142.5z M301.5,141.2c1.5,0.8,2.6,1,3.8,0.6c1-0.3,2.1,0,3.1,0.1c-1.4-2.4-3.8-0.9-5.6-1.5
	C302.5,140.2,301.9,140.9,301.5,141.2z"/>
<path d="M324.4,121.4c-1.2-0.5-2.3-0.9-3.5-1.4c-0.4,0.6-0.5,0.9-0.8,1.2c-0.9,1.2-2.1,1.6-3.4,1c-1.8-0.9-3.4-0.8-4.7,1.1
	c-0.1-1.6,0.2-2.6,1.3-2.9c2.5-0.5,4.9-1.9,7.6-1.5c0.6,0.1,1.2,0.2,1.8,0.3C323.8,119.5,324.4,120.1,324.4,121.4z M316.1,120.9
	c1.1,0.5,1.8,0.9,2.1-0.5C317.6,120.5,317.1,120.6,316.1,120.9z"/>
<path d="M324.6,115.9c-6.1-2.1-11-0.2-15.8,3.9c0.3-1.5,0.9-2.6,1.9-3.1c3.4-1.6,6.7-3.3,10.6-3
	C322.7,113.9,324.2,113.9,324.6,115.9z"/>
<path d="M301.4,133c1.9,2.3,4.2,0.7,6.4,1.3c0-0.9,0-1.6,0-2.3c0.3,0,0.6,0,0.7,0.1c1.4,1.7,1,3.1-1.2,3.3c-1.5,0.2-3.1,0.1-4.6,0
	C301.4,135.3,301.2,134.9,301.4,133z"/>
<path d="M302.3,146.1c1.8-1.1,3.4-0.8,5.2-0.5C305.7,146.8,304.5,147,302.3,146.1z"/>
<path class="st0" d="M301.5,141.2c0.4-0.3,1-0.9,1.3-0.8c1.8,0.7,4.2-0.8,5.6,1.5c-1.1-0.1-2.2-0.4-3.1-0.1
	C304.1,142.1,303,142,301.5,141.2z"/>
<path class="st0" d="M316.1,120.9c1-0.2,1.5-0.3,2.1-0.5C317.9,121.8,317.2,121.3,316.1,120.9z"/>
</svg>
