<?xml version="1.0" encoding="utf-8"?>
<!-- Generator: Adobe Illustrator 19.0.0, SVG Export Plug-In . SVG Version: 6.00 Build 0)  -->
<svg version="1.1" id="图层_1" xmlns="http://www.w3.org/2000/svg" xmlns:xlink="http://www.w3.org/1999/xlink" x="0px" y="0px"
	 viewBox="0 0 595.3 841.9" style="enable-background:new 0 0 595.3 841.9;" xml:space="preserve">
<style type="text/css">
	.st0{fill:#FFFFFF;}
</style>
<path class="st0" d="M1,37c198.1,0,396.2,0,594.2,0c0,256.3,0,512.7,0,769c-198.1,0-396.2,0-594.2,0C1,549.7,1,293.3,1,37z
	 M295.1,161c-4.5-0.4-7.7,1.5-10.5,4.4c-0.6,0.6-1.2,1.2-1.8,1.9c-2.5,3-5.5,5.3-9.4,6.1c-0.6,0.1-1.5,0.5-1.7,1
	c-0.8,1.5-2.2,1.9-3.6,2.4c-3.9,1.4-7.7,2.9-11.6,4.1c-9.4,3-17.2,8-22.3,16.8c-2.7,4.6-6,8.9-9.2,13.1
	c-10.6,14-21.4,27.8-32.1,41.7c-0.9,1.2-1.2,2.3-0.7,3.6c1.4,3.4,3.1,6.6,5.4,9.5c-0.3,0.9-0.7,1.7-1,2.6c-0.5,1.7-1.2,3.5-1.2,5.2
	c0.1,4.2,1.6,7.9,5,10.6c1.4,1.1,2.9,2.1,4.3,3.2c3,2.4,5.9,4.8,8.8,7.3c0.5,0.4,0.9,1.1,1.1,1.7c0.9,2.4,0.8,4.8,0.6,7.3
	c-0.2,2.7-0.3,5.5,0,8.1c0.6,5,0.6,9.9,0.5,14.9c0,4.2-0.3,8.4-0.3,12.6c0.1,8.3,0.1,16.6,0.4,24.9c0.2,5.1,0.7,10.2,1.2,15.3
	c0.5,5.4,1.1,10.8,1.1,16.2c0,5.7,0,11.5,1.9,17c0.3,1,0.2,1.7-0.2,2.7c-1.8,4.6-3.6,9.1-5.1,13.7c-2.9,9.3-5.7,18.7-8.3,28.1
	c-1.8,6.4-4,12.8-4.3,19.5c0,0.5-0.6,1.2-1.1,1.6c-1.8,1.4-3.6,2.7-5.4,4c-1.4,1-2.2,2.3-2.6,4c-1.8,7.6-3.9,15.2-5.7,22.8
	c-1.2,4.9-2,9.9-3,14.8c-0.3,1.5,0,2.9,0.7,4.3c0.6,1.1,1.2,2.2,2,3.2c3.2,4.6,6.2,9.3,7.6,14.8c0,0.1,0.1,0.3,0.2,0.4
	c0.7,1.4,1.2,1.6,2.5,0.8c1.5-0.9,2.8-1.8,4.1-2.6c2,0.7,3.7,1.6,5.4,2c3.6,0.9,7,2,9.7,4.7c1,1,1.7,0.7,2.4-0.5
	c0.6-1,1-2.1,1.8-2.9c2.5-2.5,5-5.1,7.7-7.4c9.8-8.4,19.1-17.3,28-26.6c2.3-2.4,4.4-5,6.5-7.6c0.3-0.4,0.6-0.7,0.8-1
	c1,7.3,1.9,14.6,3.1,21.8c0.8,4.7,0.5,9-1.6,13.3c-2.5,5-4.1,10.4-5.1,15.9c-1.2,6.8-1.7,13.7-0.8,20.6c0.9,7.2,1.9,14.3,3,21.4
	c1.4,9,3.4,17.8,6.5,26.4c1.8,5,3.3,10,4.9,15.1c0.7,2.2,1.1,4.5,1.4,6.8c0.2,1.8,0.2,3.6,0.1,5.3c0,1.9-0.2,3.7-0.3,5.6
	c-0.1,1-0.3,2-0.1,3c0.2,1.1,0.3,2.1,0,3.2c-0.3,0.9-0.1,1.8,0.5,2.6c1.2,1.5,1.8,3.2,1.8,5.2c0,1.3,0.2,2.6,0.3,3.9
	c0,0.3,0,0.6-0.2,0.9c-1.2,2.3-0.5,4.5,0.2,6.7c0.1,0.3,0.2,0.6,0.2,0.9c-0.2,2.5,1.2,4.9,0.3,7.5c-0.3,0.8-0.3,1.7-0.3,2.5
	c0,1-0.3,2.1,0.1,3c0.7,1.5,0.3,2.9,0,4.3c-0.2,1.2-0.6,2.4-0.9,3.6c-1.5,5.6-0.3,10.9,2.9,15.5c2,2.9,4.3,5.7,7.4,8
	c-0.7,2.4-1.3,5-2.2,7.5c-2,5.4-4.1,10.7-6.1,16.1c-0.5,1.3-0.7,2.5-0.2,3.8c1.8,4.3,3.8,8.5,7.6,11.5c1.3,1,2.5,2.1,3.7,3.2
	c1.3,1.2,2.7,1.5,4.3,0.7c0.8-0.4,1.6-0.7,2.3-1.2c4-3,7.8-6.1,10.8-10.2c1.8-2.4,2.6-5,2.6-8c-0.1-6.5-0.3-13-0.6-19.4
	c-0.1-1.2,0.2-2.4,0.4-3.7c0.2-1.8,0.5-3.7,0.7-5.5c0.2-1.8,0.4-3.5,0.5-5.3c0-0.8,0.1-1.9-0.3-2.5c-1.2-1.7-0.6-3.4-0.2-5.1
	c0.1-0.4,0.6-1,1-1.1c1.4-0.5,2-1.7,2.3-3c0.6-2.6,1.2-5.1,1.7-7.7c0.6-2.8,0.1-5.5-0.8-8.1c-0.2-0.5-0.1-1.1,0-1.6
	c1.1-5.6,2.2-11.1,3.2-16.7c0.2-0.8,0.4-1.4,1.3-1.7c1-0.3,1.3-1.1,1.5-2.1c0.3-1.6,0.5-3.3,1.3-4.7c1.6-3,2.2-6.3,2.4-9.6
	c0.5-9.5,2.1-18.8,3.6-28.2c1.7-10.7,4.6-21.2,5.1-32.2c0.3-8.2,0.3-16.3-0.5-24.4c-0.6-5.8-1.2-11.6-1.5-17.4
	c-0.2-2.8-0.1-5.8,0.4-8.6c0.5-2.9,1.7-5.8,2.7-8.7c0.8-2.3,1.2-4.6,0.2-7c-0.6-1.4-1-2.9-1.4-4.4c-0.1-0.6-0.2-1.2,0-1.8
	c1.8-7.7,3.7-15.4,5.4-23.1c1.7-7.9,3.1-15.8,5-23.7c3.2-13.5,7.8-26.6,13.3-39.4c1.2-2.8,2.2-5.6,3.8-8.2c2.1-3.3,4.3-6.5,6.9-9.4
	c1.1-1.3,1.8-2.7,1.7-4.5c-0.2-2.7-0.4-5.4-0.6-8.1c-0.1-0.8,0-1.5,0-2.3c0.1-1,0.3-2,0.3-3c0-14.1-0.1-28.3-0.1-42.4
	c0-2.1,0-4.2,0-6.2c1.2-0.9,2.4-1.7,3.4-2.6c1.6-1.5,2.3-3.3,1.3-5.5c-0.7-1.6-1.6-3.1-2.6-4.6c-0.8-1.3-1.8-2.5-2.8-3.9
	c2.2-1.7,4.1-3.5,6.6-4.4c1-0.4,2-0.9,2.9-1.4c0.8-0.4,1.1-1.1,1-2.1c-0.2-2.3-1.1-4.3-2.2-6.3c-0.6-1.1-0.7-2.1-0.1-3.1
	c1.3-2.2,2.4-4.6,4-6.5c1.9-2.4,4.2-4.4,6.3-6.5c3.6-3.6,7.3-7.2,10.8-11c3.1-3.4,5.8-7,8-11.1c2-3.7,1.4-7-1.2-10.1
	c-0.8-0.9-1.5-1.8-2.4-2.8c0.8-1.2,1.4-2.5,2.4-3.5c3.8-4.1,3.9-9.9,0.1-14c-2.9-3.1-5.9-6.2-8.9-9.3c-2.8-2.8-5.2-6-7.3-9.4
	c-2.9-4.9-5.8-9.8-8.8-14.5c-2.9-4.5-5.1-9.4-8.7-13.5c-1.3-1.5-2.5-3.2-3.7-4.8c-1.1-1.5-2.3-2.7-4.2-3c-0.8-0.1-1.5-0.7-2.2-1.2
	c-5-4.2-10.5-7.5-16.7-9.4c-0.8-0.2-1.4-0.5-1.7-1.4c-0.7-2.1-2.1-3.7-3.8-5.2c-4.6-4-9.1-8.1-12.3-13.3c-1.1-1.7-2.7-2.7-4.7-3.3
	c-1.4-0.4-2.8-0.8-4.3-1.3c0-1.3,0-2.5,0-3.8c0-1.5,0.7-2.5,2.1-3.3c1.3-0.7,2.5-1.6,3.4-2.8c1.4-1.9,2.5-4,3.7-6
	c0.7,1.1,1.5,2.4,2.4,3.7c0-4.5,0.2-8.8,0.8-13c0.3-2.3,1-4.5,2-6.6c0.8-1.7,1.4-3.6,1.8-5.5c0.3-1.2,0.3-2.5,0.4-3.7
	c0.2-1.8,0.2-1.9-1.8-2.6c0.5-0.7,1-1.4,1.4-2c0.8,0.5,1.4,0.9,2,1.4c0.1-0.3,0.2-0.3,0.2-0.4c-0.1-0.2-0.1-0.5-0.3-0.6
	c-1.2-1.6-1-3.4-0.8-5.3c0.7-6.4,1.2-12.8,1.7-19.2c0.3-3.3-0.9-6-3.8-7.7c-1.5-0.9-3.1-1.7-4.3-2.3c-0.7-1.4-1.2-2.6-1.8-3.7
	c-0.4-0.6-1.1-1-1.5-1.6c-2.4-3.2-5.2-5.8-9-7.1c-4.5-1.6-9.2-1.9-14-1.2c-7.7,1.1-13.5,4.7-17.9,11.2c-2.8,4.2-4.8,8.4-5.2,13.4
	c-0.4,4.9-1.1,9.7-1.8,14.5c-0.6,3.8-0.9,7.7-3.7,10.8c0,0,0.1,0.2,0.2,0.3c2.8-0.4,3.8-2.8,5.3-5.3c0.3,3.8-1.1,6.6-1.6,9.8
	c0.7-0.3,1.2-0.6,1.9-0.9c-0.1,1.2-0.3,2.1-0.3,3c-0.2,3.1-0.5,6.2-0.6,9.3c-0.1,1.7,0.6,3.4-0.1,5.1c-0.1,0.3,0,1,0.2,1.1
	c0.9,0.5,0.5,1.2,0.4,1.8c-0.3,3.3,0.1,6.5,0.5,9.8c0.9-2.3,1.7-4.6,2.4-6.9c0.8-2.4,1.6-4.7,3.1-7.2c0.6,1.5,1,2.4,1.4,3.5
	c1.1,2.8,2.6,5.3,4.8,7.3c2.3,2.1,3.1,4.9,3.9,7.7C295,158.1,295,159.5,295.1,161z"/>
<path d="M295.1,161c-0.1-1.5-0.1-2.9-0.4-4.2c-0.8-2.8-1.6-5.6-3.9-7.7c-2.2-2-3.8-4.5-4.8-7.3c-0.4-1-0.8-2-1.4-3.5
	c-1.5,2.5-2.3,4.9-3.1,7.2c-0.8,2.3-1.5,4.6-2.4,6.9c-0.4-3.3-0.9-6.5-0.5-9.8c0.1-0.7,0.5-1.3-0.4-1.8c-0.2-0.1-0.3-0.8-0.2-1.1
	c0.7-1.7,0-3.4,0.1-5.1c0.1-3.1,0.4-6.2,0.6-9.3c0.1-0.9,0.2-1.8,0.3-3c-0.7,0.3-1.2,0.6-1.9,0.9c0.5-3.2,1.9-6,1.6-9.8
	c-1.5,2.5-2.5,4.9-5.3,5.3c0-0.1-0.2-0.3-0.2-0.3c2.8-3.1,3.1-7,3.7-10.8c0.8-4.8,1.4-9.7,1.8-14.5c0.5-5,2.4-9.3,5.2-13.4
	c4.4-6.5,10.2-10.1,17.9-11.2c4.8-0.7,9.4-0.4,14,1.2c3.8,1.3,6.7,3.9,9,7.1c0.4,0.6,1.1,1,1.5,1.6c0.6,1.1,1.1,2.2,1.8,3.7
	c1.2,0.6,2.8,1.4,4.3,2.3c2.9,1.7,4.1,4.4,3.8,7.7c-0.5,6.4-1,12.8-1.7,19.2c-0.2,1.9-0.4,3.7,0.8,5.3c0.1,0.2,0.2,0.4,0.3,0.6
	c0,0.1-0.1,0.1-0.2,0.4c-0.6-0.4-1.2-0.8-2-1.4c-0.5,0.7-0.9,1.3-1.4,2c1.9,0.7,2,0.8,1.8,2.6c-0.2,1.2-0.1,2.5-0.4,3.7
	c-0.5,1.9-1,3.7-1.8,5.5c-1,2.1-1.7,4.3-2,6.6c-0.6,4.3-0.8,8.6-0.8,13c-0.8-1.3-1.7-2.6-2.4-3.7c-1.2,2-2.3,4.1-3.7,6
	c-0.8,1.1-2.1,2.1-3.4,2.8c-1.4,0.8-2.1,1.7-2.1,3.3c0,1.2,0,2.5,0,3.8c1.5,0.4,2.9,0.9,4.3,1.3c1.9,0.6,3.6,1.6,4.7,3.3
	c3.2,5.2,7.7,9.3,12.3,13.3c1.7,1.4,3.1,3.1,3.8,5.2c0.3,0.8,0.8,1.1,1.7,1.4c6.2,1.9,11.8,5.1,16.7,9.4c0.6,0.5,1.4,1.1,2.2,1.2
	c1.9,0.3,3.2,1.5,4.2,3c1.2,1.6,2.3,3.3,3.7,4.8c3.5,4.1,5.8,9,8.7,13.5c3,4.8,5.9,9.7,8.8,14.5c2.1,3.4,4.5,6.5,7.3,9.4
	c3,3,5.9,6.1,8.9,9.3c3.8,4.1,3.7,9.9-0.1,14c-0.9,1-1.6,2.3-2.4,3.5c0.9,1.1,1.6,2,2.4,2.8c2.7,3.1,3.2,6.3,1.2,10.1
	c-2.1,4.1-4.9,7.8-8,11.1c-3.5,3.8-7.2,7.3-10.8,11c-2.1,2.2-4.4,4.2-6.3,6.5c-1.6,2-2.7,4.3-4,6.5c-0.6,1-0.5,2,0.1,3.1
	c1.1,2,2,4,2.2,6.3c0.1,1-0.2,1.7-1,2.1c-0.9,0.5-1.9,1.1-2.9,1.4c-2.6,0.9-4.5,2.7-6.6,4.4c1,1.4,2,2.6,2.8,3.9
	c0.9,1.5,1.8,3,2.6,4.6c1,2.1,0.3,4-1.3,5.5c-1,0.9-2.2,1.7-3.4,2.6c0,2,0,4.1,0,6.2c0.1,14.1,0.1,28.3,0.1,42.4c0,1-0.2,2-0.3,3
	c-0.1,0.8-0.1,1.5,0,2.3c0.2,2.7,0.4,5.4,0.6,8.1c0.1,1.7-0.5,3.2-1.7,4.5c-2.6,2.9-4.8,6-6.9,9.4c-1.6,2.6-2.6,5.4-3.8,8.2
	c-5.5,12.8-10.1,25.9-13.3,39.4c-1.9,7.8-3.2,15.8-5,23.7c-1.7,7.7-3.6,15.4-5.4,23.1c-0.1,0.6-0.1,1.2,0,1.8c0.4,1.5,0.8,3,1.4,4.4
	c1,2.4,0.5,4.7-0.2,7c-1,2.9-2.1,5.7-2.7,8.7c-0.5,2.8-0.6,5.7-0.4,8.6c0.4,5.8,1,11.6,1.5,17.4c0.8,8.1,0.8,16.3,0.5,24.4
	c-0.5,10.9-3.3,21.4-5.1,32.2c-1.5,9.3-3.1,18.7-3.6,28.2c-0.2,3.3-0.8,6.6-2.4,9.6c-0.7,1.4-1,3.1-1.3,4.7c-0.2,1-0.5,1.9-1.5,2.1
	c-1,0.3-1.2,0.9-1.3,1.7c-1.1,5.6-2.2,11.1-3.2,16.7c-0.1,0.5-0.2,1.1,0,1.6c0.9,2.6,1.4,5.3,0.8,8.1c-0.5,2.6-1.1,5.1-1.7,7.7
	c-0.3,1.3-0.9,2.4-2.3,3c-0.4,0.2-0.9,0.7-1,1.1c-0.4,1.7-1,3.4,0.2,5.1c0.4,0.6,0.4,1.6,0.3,2.5c-0.1,1.8-0.3,3.5-0.5,5.3
	c-0.2,1.8-0.5,3.7-0.7,5.5c-0.1,1.2-0.4,2.5-0.4,3.7c0.3,6.5,0.5,12.9,0.6,19.4c0.1,3-0.8,5.6-2.6,8c-3,4.1-6.8,7.2-10.8,10.2
	c-0.7,0.5-1.5,0.8-2.3,1.2c-1.6,0.7-3,0.5-4.3-0.7c-1.2-1.1-2.4-2.2-3.7-3.2c-3.9-2.9-5.8-7.2-7.6-11.5c-0.5-1.3-0.3-2.6,0.2-3.8
	c2.1-5.4,4.2-10.7,6.1-16.1c0.9-2.5,1.5-5,2.2-7.5c-3.1-2.3-5.4-5.1-7.4-8c-3.1-4.6-4.3-9.9-2.9-15.5c0.3-1.2,0.7-2.4,0.9-3.6
	c0.3-1.4,0.7-2.8,0-4.3c-0.4-0.8-0.1-2-0.1-3c0-0.8,0-1.7,0.3-2.5c0.8-2.5-0.5-5-0.3-7.5c0-0.3-0.1-0.6-0.2-0.9
	c-0.7-2.2-1.4-4.5-0.2-6.7c0.1-0.3,0.2-0.6,0.2-0.9c-0.1-1.3-0.3-2.6-0.3-3.9c0-2-0.5-3.7-1.8-5.2c-0.7-0.8-0.8-1.7-0.5-2.6
	c0.4-1.1,0.2-2.1,0-3.2c-0.2-1,0.1-2,0.1-3c0.1-1.9,0.2-3.7,0.3-5.6c0-1.8,0.1-3.6-0.1-5.3c-0.3-2.3-0.8-4.6-1.4-6.8
	c-1.5-5-3.1-10.1-4.9-15.1c-3.1-8.6-5.1-17.4-6.5-26.4c-1.1-7.1-2.1-14.3-3-21.4c-0.9-6.9-0.4-13.8,0.8-20.6
	c1-5.5,2.6-10.9,5.1-15.9c2.1-4.3,2.4-8.6,1.6-13.3c-1.2-7.2-2.1-14.4-3.1-21.8c-0.2,0.3-0.5,0.7-0.8,1c-2.2,2.5-4.3,5.2-6.5,7.6
	c-8.9,9.4-18.2,18.2-28,26.6c-2.7,2.3-5.2,4.9-7.7,7.4c-0.8,0.8-1.3,1.9-1.8,2.9c-0.7,1.2-1.4,1.5-2.4,0.5c-2.8-2.6-6.1-3.8-9.7-4.7
	c-1.8-0.4-3.5-1.3-5.4-2c-1.3,0.8-2.7,1.8-4.1,2.6c-1.4,0.8-1.9,0.6-2.5-0.8c-0.1-0.1-0.1-0.3-0.2-0.4c-1.4-5.5-4.4-10.2-7.6-14.8
	c-0.7-1-1.3-2.1-2-3.2c-0.8-1.3-1.1-2.7-0.7-4.3c1-4.9,1.9-9.9,3-14.8c1.8-7.6,3.8-15.2,5.7-22.8c0.4-1.7,1.2-3,2.6-4
	c1.8-1.3,3.6-2.7,5.4-4c0.5-0.4,1.1-1,1.1-1.6c0.4-6.7,2.5-13.1,4.3-19.5c2.7-9.4,5.4-18.8,8.3-28.1c1.5-4.7,3.3-9.2,5.1-13.7
	c0.4-0.9,0.5-1.7,0.2-2.7c-1.8-5.5-1.9-11.3-1.9-17c0-5.5-0.6-10.8-1.1-16.2c-0.5-5.1-1-10.2-1.2-15.3c-0.3-8.3-0.4-16.6-0.4-24.9
	c0-4.2,0.2-8.4,0.3-12.6c0-5,0-9.9-0.5-14.9c-0.3-2.7-0.2-5.4,0-8.1c0.2-2.5,0.3-4.9-0.6-7.3c-0.2-0.6-0.6-1.3-1.1-1.7
	c-2.9-2.5-5.8-4.9-8.8-7.3c-1.4-1.1-2.9-2.1-4.3-3.2c-3.4-2.7-4.9-6.4-5-10.6c0-1.7,0.7-3.5,1.2-5.2c0.2-0.9,0.6-1.7,1-2.6
	c-2.4-2.9-4-6.1-5.4-9.5c-0.6-1.4-0.3-2.4,0.7-3.6c10.8-13.9,21.5-27.8,32.1-41.7c3.2-4.3,6.5-8.5,9.2-13.1
	c5.1-8.8,12.9-13.8,22.3-16.8c3.9-1.2,7.8-2.7,11.6-4.1c1.4-0.5,2.8-1,3.6-2.4c0.3-0.5,1.1-0.8,1.7-1c3.9-0.9,6.9-3.1,9.4-6.1
	c0.5-0.7,1.1-1.3,1.8-1.9C287.4,162.6,290.6,160.6,295.1,161z M279.1,105.9c-0.2,0.2-0.6,0.3-0.7,0.5c-0.2,1-0.3,2.1-0.5,3.1
	c0.1,0,0.2,0,0.3,0.1C278.6,108.3,278.8,107.1,279.1,105.9c-0.1-1.7-0.1-3.3-0.1-5c0.2-0.3,0.6-0.5,0.7-0.8c0.2-1,0.4-2,0.6-3
	c1-4.6,2.7-8.9,6-12.4c0.3-0.3,0.7-0.4,1.1-0.7c0,0.6-0.2,0.9-0.4,1.3c-2.5,3.6-4.5,7.4-5,11.9c-0.7,5.6-2.1,11.1-1.8,16.9
	c0.1,1.3-0.2,2.6-0.4,4.4c1.6-1.5,2-3,2.3-4.5c0.6-2.5,1-5,1.5-7.5c0.1-0.5,0.3-1,0.5-1.6c0.5,4.6-0.1,8.9-2.2,12.9
	c-0.8,1.6-1.4,3.1-1.6,4.8c-0.3,2.4-0.6,4.8-0.9,7.2c-0.1,0.9-0.1,1.9-0.1,2.8c0,0.9,0,1.7,0,2.6c0.6-0.4,0.9-0.8,1.1-1.2
	c2.6-4.9,5.2-9.9,8-14.8c4.4-7.9,9.2-15.6,15.5-22.3c1.6-1.7,3.2-3.3,4.9-4.9c0.6-0.6,1.5-0.9,2.2-1.4c-4.5,4.7-8.4,9.6-12.2,14.7
	c-3.7,5.1-6.8,10.6-9.5,16.3c1.8-0.5,3.5-1.2,5-2c7.3-3.7,13.8-8.7,19.6-14.4c3.8-3.7,7.6-7.6,9.3-12.9c0-0.1,0.3-0.1,0.5-0.2
	c-0.1,4.9-2.6,8.9-4.3,13.2c5-3.5,5.7-9.2,7.3-14.5c0.2,2.6,0.2,5.1,0.4,7.6c0.2,2.6,0.7,5.1,1.9,7.4c1.1,2.2,1.9,4.6,4,6.6
	c0.2-1.5,0.4-2.7,0.6-3.9c0.7-5.6,1.4-11.2,1.1-16.9c-0.2-4.3-3.8-7.9-8-8.2c-0.9-1.5-1.7-2.8-2.5-4.2c-2.2-4-5.5-6.6-9.8-8.1
	c-6.3-2.1-12.5-1.3-18.8,0.5c-3.1,0.9-5.6,2.6-7.6,5.1c-1.9,2.5-3.6,5-5.5,7.5c-1.8,2.4-2.6,5.1-2.8,8c-0.2,2.9-0.5,5.9-0.7,8.8
	C279.1,102.6,279.1,104.3,279.1,105.9z M350.8,437c-2.2,2.3-4.4,4.6-7.1,6.2c-0.5,0.3-1,0.5-1.5,0.6c-1.6,0.4-2.7-0.5-2.3-2.1
	c0.3-1.2,0.9-2.5,1.8-3.5c1.9-2,3.9-4,6.1-5.7c3.4-2.6,7-4.9,10.5-7.3c0.9-0.7,1.9-1.4,2.7-2.2c1.9-2.1,3.6-4.3,5.5-6.3
	c1.1-1.2,1.5-2.4,1.5-4c0.2-6.6-0.7-13.2-2.2-19.6c-0.7-2.9-1.6-5.8-2.4-8.7c-0.4-1.6-0.6-3.2-1.1-4.7c-1.3-4.5-2.8-8.9-4.1-13.3
	c-1.3-4.2-2.6-8.4-3.9-12.7c-0.8-2.6-1-5.2-0.3-7.8c0.2-0.7,0-1.7-0.3-2.4c-1-3-2-6-2.3-9.2c0-0.5-0.2-1-0.3-1.7
	c-0.9,0.2-1.7,0.4-2.4,0.5c-1.7,0.2-3.4,0.6-5.1,0.6c-3.5,0-7-0.1-10.5-0.2c-3.6-0.1-3.6-0.2-4.4-3.6c-0.8,0.1-1.6,0.1-2.5,0.2
	c0.3,2.3,0.6,4.4,0.9,6.4c0.9,6.3,1.6,12.6,1.5,19c-0.1,5.6,0.3,11.2,0.5,16.7c0.2,3.8,0.5,7.6,0.6,11.4c0,1.2-0.1,2.5-0.4,3.7
	c-0.3,1.2-1.3,1.4-2.4,1.4c-1.1-0.1-1.8-0.5-2-1.6c-0.1-0.6-0.2-1.2-0.1-1.8c0.4-5.8,0.8-11.6,0.3-17.4c-0.3-3.3-0.3-6.7-0.6-10
	c-0.4-4.8-0.3-9.6-1.5-14.3c-0.9-3.5-1.8-7.1-2.6-10.6c-0.1-0.5-0.3-0.9-0.5-1.5c-0.6,0.4-1.1,0.6-1.6,1c-1.1,0.9-2.5,1.2-4-0.3
	c-1.2-1.2-2.3-1.3-3.7-1.3c-1.9,0-3.7,0-5.6,0.2c-5.8,0.7-11.6,1.3-17.4,1.3c-0.9,0-1.8,0.1-2.8,0.1c0,1.7,0,3.3,0,5.2
	c-0.9,0.4-2,0.9-3.1,1.2c-6,1.5-11.9,1-17.3-2.2c-1.7-1-3.3-2.1-4.9-3.1c-0.4-0.3-0.9-0.4-1.4-0.7c-0.1,0.4-0.1,0.7-0.1,0.9
	c-0.6,8.3-2.9,16-7,23.2c-3.9,6.9-7.6,13.9-10.1,21.5c-1.6,4.9-3.3,9.9-5,14.8c-1.7,4.9-2.1,9.8-1.4,15c0.8,5.8,3.2,10.8,6.2,15.6
	c2.1,3.3,4.6,6.3,7.2,9.8c-0.4-1.7-0.6-3.1-1-4.4c-2.2-8.5-5-16.8-8.5-24.9c-0.2-0.5-0.7-1,0.1-1.7c0.2,0.4,0.4,0.6,0.5,0.9
	c3.3,6.3,5.6,13,7.7,19.7c1.6,5.1,2.8,10.2,3,15.5c0,1.4,0.5,2.7,0.9,4.1c0.4,1.3,0.8,2.7,1.2,4c1.7,5.2,3.3,10.3,5,15.5
	c1.6,4.9,3.8,9.8,4.7,14.8c1.6,8.5,2.6,17.2,3.7,25.8c1.1,8.3,2.1,16.6,3.3,24.9c0.6,4.3,0.4,8.3-1.4,12.3c-1.4,3-2.4,6.2-3.5,9.4
	c-2.9,8.8-3.7,17.8-2.8,26.9c0.6,6.4,1.7,12.8,2.7,19.1c1.5,9.6,3.3,19.1,6.6,28.3c1.8,4.9,3.3,9.9,4.9,14.8c0.5,1.5,0.8,3,1.1,4.2
	c3.8,0.3,7.4,0.5,11.1,0.7c0-1,0.1-2.1,0-3.2c-0.8-10.5-1.5-21.1-2.3-31.6c-0.8-10.6-0.6-21.1,1.3-31.5c1-5.5,2.1-11,3-16.5
	c1.5-8.7,1.1-17.5,1.8-26.2c0.6-7.4,1.3-14.8,2.2-22.2c1.2-10.1,3.9-20,6.5-29.8c4-14.7,8-29.4,11.2-44.2c3.3-15,6.5-30,9.8-45
	c0.1-0.5,0.4-1,0.5-1.5c0.2,0,0.3,0.1,0.5,0.1c-0.6,3.2-1.1,6.4-1.7,9.6c-1.7,8.4-3.6,16.7-5.3,25c-2.9,13.9-5.7,27.8-9.3,41.6
	c-0.5,1.9-1.2,3.6-0.7,5.8c0.5,2.5,0.3,5.1,0.5,7.6c0.6,8.4,1.7,16.9,1.9,25.3c0.4,12.7,0.2,25.5,0.3,38.2c0,6.8,0.1,13.7,0.2,20.5
	c0.1,9.2,0.5,18.3-0.6,27.4c-1.3,10.8-2.2,21.6-3,32.4c-0.7,9.1-1.2,18.1-0.4,27.2c0.4,4.7,0.7,9.4,1,14.2c0,0.5,0,1,0,1.9
	c5-2.7,9.6-1.8,14.3,0.5c0.3-0.9,0.4-1.4,0.6-2c0.5-1.5,0.8-3.2,1.5-4.6c1-2,1.6-4,1.8-6.2c0.6-8.6,1.7-17.1,3.1-25.7
	c2-12.1,5.5-23.9,6-36.2c0.2-5.8,0.3-11.6,0-17.4c-0.4-6.8-1.2-13.6-1.9-20.4c-0.8-7.8-0.3-15.3,3-22.6c1.4-3.1,1-5.9-0.9-9.4
	c-2,5.5-5.6,10.1-7.6,15.7c1-0.1,1.6-0.2,2.5-0.3c-0.3,0.4-0.4,0.6-0.6,0.7c-1,0.5-1.8,2-3,1.1c-1.1-0.9-0.3-2.2,0.1-3.2
	c1-2.3,2.1-4.5,3.4-6.6c3.6-6.4,6.2-13.2,7.6-20.4c1.7-8.8,3.5-17.5,5.3-26.2c4-19.5,10.2-38.2,18.5-56.3c0.2-0.5,0.3-1.1,0.5-1.7
	c-2.2,1-4.1,2.1-5.9,3.4c-3,2.4-6,4.9-8.9,7.5c-1.2,1.1-2.2,2.3-2.5,4.6C344.8,440.7,347.6,438.6,350.8,437z M275,251.6
	c0.2,0,0.4,0,0.5,0c0.1,0.5,0.3,1,0.3,1.6c0.1,0.6,0.1,1.2,0,1.9c-0.8,7.8-1.8,15.6-3.4,23.2c-2.8,12.7-5.6,25.3-8.3,38
	c-1.1,5-1.6,10.1-1.3,15.3c0.1,1.8,0.8,2.8,2.3,3.6c4.1,2.1,8.5,2.9,13.1,2.4c1.7-0.2,3.5-0.4,5.1-1.4c0.3-7-0.5-13.9-1.5-20.7
	c-1.3-9.5-2.2-19-2.1-28.5c0-4.1,0-8.2-0.2-12.3c-0.3-6.5-0.2-13,0.6-19.5c0-0.4,0.3-0.7,0.6-1.3c0.2,0.6,0.3,0.8,0.3,1
	c-0.1,3.2-0.3,6.3-0.3,9.5c0.1,10,0.3,20,0.5,30c0.1,3,0.3,6,0.5,9.1c0,0.4,0.3,0.7,0.5,1.1c0.5-1.7,0.8-3.3,0.8-4.9
	c-0.2-4.7,0.9-9.3,2.2-13.7c4.8-15.5,8.8-31.2,12.1-47.1c0.8-3.7,1.6-7.4,1.3-11.3c-0.1-1.2-0.4-2.2-1.4-3c-3.4-2.7-6.8-5.4-10.3-8
	c-2.2-1.7-3.7-3.7-4-6.5c-0.1-0.7-0.3-1.3-0.5-2.1c-3.2-0.3-6-0.1-8.2,2.4c-0.6,0.7-1.3,1.4-1.9,2c-7.3,6.9-13.1,14.9-16.9,24.3
	c-1.3,3.2-1.8,6.1-0.9,9.4c1.3,4.5,2.3,9.1,5.1,12.9c2,2.7,1.9,5.3,0.5,8.1c-0.8,1.5-1.8,2.9-2.7,4.3c-3,4.5-6.2,8.9-9.1,13.5
	c-4.7,7.4-8,15.4-9.5,24.1c-0.2,1.1-0.5,2.3-0.7,3.4c-0.3,2-0.6,4-0.9,6.3c3-1.1,5.5-1,8,0.1c2.9,1.3,5.3,3.2,7.3,5.6
	c2.1,2.6,4.3,5.1,7.1,7.1c0.4,0.3,0.8,0.4,1.1,0.6c0.4-4.2,0.4-8.4,1.1-12.4c1.8-9.7,3.9-19.3,6-28.9c2.5-11.2,5.2-22.4,6.5-33.8
	C274.6,255.1,274.8,253.3,275,251.6z M326.3,251.1c0.2,0,0.4,0,0.5,0c0.4,4.5,1.1,9,1.2,13.5c0.3,9,0.2,18,0.4,27
	c0.2,7.9,0.5,15.8,0.8,23.7c0.2,4.9,0.6,9.8,0.8,14.6c0,0.5,0.1,1,0.2,1.6c0.4,0.1,0.7,0.2,1,0.2c3.8,0.1,7.6,0.3,11.4,0.4
	c5.8,0.1,11.3-1.2,16.5-4.1c2.8-1.5,6-2.6,9-3.7c2.2-0.8,4.6-0.8,6.8,0c0.6,0.2,1.1,0.3,1.9,0.5c-0.2-0.6-0.3-1-0.4-1.3
	c-1.2-2.7-2.6-5.3-3.5-8.1c-2-5.7-3.9-11.5-5.6-17.2c-2.9-9.3-6.8-18-14.5-24.5c-2.5-2.1-4.1-5-5.3-8.1c-0.9-2.5-1.1-5,0.5-7.3
	c0.3-0.4,0.4-0.8,0.5-1.3c1.2-3.4,2.4-6.9,3.7-10.3c0.8-2.1,1.6-4.2,2.3-5.9c-0.9-1.6-1.6-2.8-2.3-4c-3.6-6.3-7.1-12.6-10.7-18.8
	c-1.6-2.8-4.1-4.9-6.5-6.9c-0.4-0.4-1.1-0.7-1.7-0.7c-1.7-0.1-3.4,0-5.1,0c-0.3,1-0.5,1.9-0.8,2.7c-1.1,3.4-2.9,6.3-6.1,8.2
	c-2.6,1.6-5.1,3.5-7.7,5.4c0.2,1,0.4,2.2,0.6,3.3c2.3,10.1,4.6,20.3,7,30.4c1.9,8.1,4,16.1,4.6,24.4c0.1,1.6,0.4,3.2,0.7,4.7
	c0.4-0.4,0.4-0.8,0.4-1.1c0-5.6,0-11.2-0.2-16.8c-0.1-3.8-0.4-7.6-0.6-11.4c-0.2-2.6-0.3-5.3-0.5-7.9
	C326,252.1,326.2,251.6,326.3,251.1z M225.1,217.3c0.2,0.1,0.4,0.2,0.6,0.3c-0.5,1-0.8,2.1-1.4,3c-3.9,6.8-7.7,13.7-11.8,20.4
	c-5,8.1-9.2,16.5-13.2,25.1c-0.5,1-0.8,2.1-1.2,3.2c1.2,0.1,2,0,2.8,0.1c4.5,0.9,9,1.4,13.6,1.1c2.3-0.2,4.6-0.4,7-0.4
	c6.3,0,12.1-1.7,17.4-5.1c2.4-1.5,5-2.9,7.5-4.2c3.1-1.7,6.3-3,9.9-2.8c0.1,0,0.2-0.2,0.3-0.2c-0.9-2.4-1.9-4.8-2.6-7.2
	c-2.5-8.5-3.5-17.3-4.2-26.1c-0.3-3.7-0.5-7.4-0.8-11.1c-0.4-4.5-1-8.9-1.4-13.4c0-0.4,0.1-0.7,0.2-1.1c3.3,12.5,3,25.5,5.4,38.1
	c0.5-0.6,0.9-1.3,1.2-2c1.5-3.1,2.9-6.2,4.6-9.1c3.1-5.2,7.1-9.8,11.6-13.9c0.5-0.5,0.9-1,1.4-1.5c-1.5,0.6-2.7,1.4-3.8,2.3
	c-1.1,0.8-2.2,1.7-3.4,2.4c-0.8,0.5-1.7,0.9-2.9-0.1c0.8-12.5,3.9-24.8,8-37c-5.6,2-10.9,4-16.3,5.8c-7.6,2.6-13.3,7.3-17.6,14.1
	c-3.2,5.1-6.7,9.9-10.3,14.7c-10.4,13.7-20.9,27.4-31.4,41c-0.8,1-0.9,1.9-0.3,3c1.2,2.1,2.3,4.2,3.5,6.3c0.2,0.4,0.6,0.7,1,1.1
	c2.8-5.4,5.4-10.8,8.2-16c2.9-5.2,6-10.3,9.1-15.5C218.8,227.2,221.7,222.1,225.1,217.3z M299.9,684.8c0.3-0.4,0.5-0.6,0.6-0.9
	c1-3.3,2-6.5,2.9-9.8c0.3-1.2,0.7-2.7,0.2-3.6c-0.7-1.3-0.4-2.5-0.5-3.8c-0.1-2.6-0.2-5.1-0.4-7.7c-0.3-5.9-0.9-11.8-0.8-17.7
	c0.1-7.3,0.5-14.6,1.1-21.8c0.5-7.3,1.3-14.5,2.1-21.8c0.9-8.6,1.7-17.1,1.4-25.8c-0.2-8.1-0.2-16.1-0.3-24.2
	c-0.1-13.6-0.3-27.2-0.5-40.8c0-3.3-0.3-6.5-0.6-9.8c-0.6-7.5-1.1-14.9-1.7-22.2c-0.1,0.2-0.3,0.7-0.5,1.2c-0.7,2.5-1.3,5-2,7.4
	c-5.7,19.8-8.5,40-8.9,60.6c-0.1,8.6-1,17.2-3,25.6c-3.6,15.4-3.8,30.9-2.2,46.5c0.6,6.2,1.1,12.5,1.5,18.8
	c0.2,3.6,0.2,7.1,0.1,10.7c-0.2,3.9,0.5,7.6,1.8,11.2c0.2,0.5,0.7,0.8,1,1.2c0.3,0.6,0.6,1.2,0.7,1.8c0.2,1,0.1,2.2,0.3,3.2
	c0.6,2.2,1.5,4.4,2,6.7c0.2,0.9,0.4,1.7,1.1,2.5c0.8,0.8,1.1,1.8,0.7,3c-0.2,0.5-0.1,1.4,0.3,1.9C298,679.5,299.3,681.9,299.9,684.8
	z M400.6,267.5c1.2-1.3,2.2-2.5,3.2-3.7c2.5-2.9,2.5-8.1,0-11c-1.7-1.8-3.5-3.5-5.3-5.3c-4.5-4.5-8.9-9.1-12.1-14.7
	c-2.7-4.8-5.5-9.6-8.4-14.3c-2.6-4.2-5.3-8.4-8-12.5c-1.3-1.9-2.8-3.7-4.2-5.6c-0.9-1.2-1.9-2.2-3.6-2.4c-0.8-0.1-1.6-0.7-2.2-1.2
	c-3.9-3.7-8.6-6.1-13.4-8.4c-1-0.5-2.3-0.7-3.6-1.1c0.1,0.7,0.1,1.1,0.2,1.5c0.8,3.6,1.6,7.3,2.4,10.9c0.8,3.5,1.5,7,2.3,10.4
	c0.4,1.7,0.8,3.5,1.1,5.2c0.1,0.9,0,1.8,0,3c-3.5-1.2-5.5-4.2-8.9-5.1c1,1.3,2,2.4,2.7,3.6c3.8,6.6,7.6,13.2,11.3,19.8
	c0.3,0.6,0.7,1.2,1.2,2.1c0.7-2.1,1.2-3.8,1.7-5.4c2.3-7.2,3.5-14.6,4.7-22.1c0.6-3.9,1.7-7.7,1-11.7c0-0.1,0.2-0.3,0.6-1
	c0.4,1.3,0.8,2.1,0.8,2.9c0,1.6-0.1,3.3-0.3,4.9c-0.2,1.9-0.5,3.7-0.7,5.5c-1.2,9.2-3,18.2-6.2,26.9c-1.8,4.8-3.8,9.5-5.7,14.3
	c-0.4,1.1-0.7,2.3-1.2,3.7c2.3-0.6,3.8,0.4,5.3,1.4c1.3,0.9,2.5,1.9,3.9,2.6c8.4,4.1,16.9,8.2,25.4,12.1c2.9,1.3,6,2.1,9.1,2.8
	c3.6,0.8,7.2,0.5,10.8-1.2c-0.8-1-1.5-1.8-2.1-2.7c-2.2-3-4.5-5.9-6.6-9c-7.6-11.1-13.7-23.1-19.3-35.3c-0.8-1.8-1.5-3.7-2.2-5.6
	c-0.1-0.3,0-0.7,0-1.6C382.3,236.9,390.4,252.8,400.6,267.5z M323.5,218.2c-0.8-1.1-1.5-2.1-2.2-3c-1.3-1.6-1.3-3.2-0.6-5
	c0.5-1.1,0.9-2.3,1.1-3.5c1.2-6.8,1.4-13.6,1.1-20.4c-0.1-2.4-0.8-4.4-2.5-6c-1.8-1.7-2.8-3.9-3.4-6.3c-1.5-5.9-1.3-11.8-1.1-17.8
	c0-0.4,0-0.8,0-1.4c-0.5,0.3-0.7,0.4-1,0.6c-4.8,3.6-9.8,3.9-14.9,0.7c-1.5-0.9-3-1.9-4.8-3c0.3,0.9,0.4,1.4,0.6,1.8
	c1,2.2,1.2,4.5,1,6.8c-0.4,6.5-2.2,12.4-7.1,16.9c-0.3,0.3-0.7,0.7-0.9,1c-0.3,0.4-0.6,0.9-0.7,1.4c-0.6,2.9-1.1,5.8-0.1,8.7
	c0.3,0.9,0.4,1.8,0.6,2.7c2.4,11,5.5,21.8,10.8,31.8c0.2,0.4,0.4,0.9,0.4,1.3c0,3.2,0,6.4-0.3,9.5c-0.2,2.2-0.8,4.4-1.3,6.8
	c1.2,0.8,2.4,1.7,3.7,2.4c1.2,0.6,1.7,1.4,1.7,2.8c0,1.8,0.2,3.6,0.4,5.3c0.4,3.5,1.6,6.8,3.1,10.4c0.3-0.7,0.5-1,0.6-1.4
	c0.9-4.3,2-8.6,2.7-13c0.4-2.1,1.3-3.6,3.2-4.4c0.8-0.4,1.6-0.9,2.5-1.4c-0.3-1.3-0.5-2.5-0.8-3.7c-0.9-3.9-1.8-7.7-2.7-11.6
	c-0.3-1.1,0-1.7,1-2.3c3-1.9,5.9-4,8.8-6C322.9,218.9,323.2,218.5,323.5,218.2z M322.1,324.1c-0.3-1.9-0.6-4-0.9-6.1
	c-0.9-5.8-1.4-11.7-2.6-17.5c-2.5-11.7-6.4-23-11.6-33.8c-2-4.2-3.6-8.6-4.2-13.3c-0.3-2.4-0.4-4.8-0.6-7.1
	c-1.4-0.9-2.7-1.8-4.3-2.8c-0.7,3.2-1.4,6.3-2.1,9.3c-2.5,11-5.6,21.8-8.9,32.5c-1.1,3.6-2.5,7.3-2.3,11.1c0.2,3.7-0.4,7.3-0.9,10.9
	c-0.4,2.3-1.2,4.6-0.6,7c0.3,1.5,0.3,3.1,0.5,4.6c0.3,2.4,0.6,4.7,0.9,7.1c2.1,0,4.1,0,6,0c1.9,0.1,3.7,0.4,5.6,0.3
	c4.8-0.2,9.6-0.7,14.4-0.8C314.3,325.4,318.2,326,322.1,324.1z M203.1,543.9c2.9,0.8,5.4,1.2,7.8,2.2c2.4,0.9,4.6,2.3,7.1,3.6
	c0.1-0.4,0.4-0.8,0.5-1.3c0.7-3.2,1.5-6.5,2.2-9.7c0.8-3.7,1.7-7.4,1.4-11.3c-0.1-2.1-0.4-4.2-0.5-6.3c-0.4-7.4-1.6-14.6-3.3-21.8
	c-1-4.2-2-8.4-3.8-12.3c-1.2-0.3-2.2-0.5-3.3-0.7c-1.4-0.3-2.9-0.7-4.3-0.6c-2.5,0.1-4.9,0-7.1-1.5c-1.3-0.9-2.7,0-4,0.3
	c-1.1,0.3-1,1.4-1.2,2.3c-1.9,7.7-4,15.3-5.8,23c-1.1,4.4-1.8,8.8-2.8,13.2c-0.4,1.9-0.1,3.7,1.1,5.3c1.1,1.7,2.2,3.4,3.3,5.1
	c2.4,3.6,4.5,7.4,5.7,11.6c0.1,0.4,0.4,0.8,0.6,1.2c2.8-1.4,4.8-4.2,8.5-4.2C204.4,542.5,203.9,543,203.1,543.9z M217,315.8
	c0,1.6,0,3.4,0,5.3c0,1.8,0.1,3.6,0.1,5.4c0.1,13,0,25.9,0.2,38.9c0,3.5,0.5,7,0.8,10.4c0.3,3.9,0.9,7.7,1.1,11.6
	c0.3,5.4,0.3,10.9,0.5,16.3c0.1,2.8,0.4,5.5,1.8,8.1c0.2-0.2,0.4-0.3,0.4-0.4c0.8-1.4,1.6-2.8,2.4-4.2c1.9-3.3,1.8-4.8-0.4-7.7
	c-0.3-0.4-0.5-0.8-0.7-1.3c0.3-0.1,0.4-0.2,0.4-0.1c4.8,3.1,7.8,7.3,7.2,13.3c0,0.5,0.2,1,0.4,1.7c2-1.5,2-1.5,1.9-3.4
	c-0.1-2.5-0.3-4.9-0.3-7.4c0-2.2-0.7-4.1-2.2-5.7c-0.4-0.4-0.7-0.8-1.1-1.2c-1.4-1.4-2-3.1-2.1-5c-0.3-3.7-0.6-7.4-1-11.1
	c-1.1-11.4-0.3-22.6,2.7-33.7c2-7.3,4.1-14.6,6-22c0.7-2.9,1.4-6,1.1-8.9c-0.3-3,0-5.8,0-8.8c0-3,0.1-6.1-0.5-9
	c-1.6-8-5.2-15.4-8.2-22.9c-0.2-0.4-0.4-0.9-0.7-1.2c-0.2-0.3-0.6-0.5-1.1-0.9c0,0.6,0,0.9,0,1.2c0.9,5.2,1.4,10.5,1.2,15.7
	c-0.2,4.3-0.5,8.7-0.9,13c-0.2,2.5-0.7,5.1-1.3,7.6c-0.3,1.2-0.9,2.6-1.9,3.4C221.2,313.7,219.2,314.5,217,315.8z M319.3,102.1
	c-0.1,0-0.1-0.1-0.2-0.1c-3.3,3.1-6.5,6.2-9.8,9.2c-2.1,1.9-3.8,4-5.4,6.3c-3.4,4.9-7.5,9.3-12.6,12.6c-1.3,0.8-2.4,1.9-3.5,3
	c-2.1,2-3.1,4.2-1.1,6.9c0.3,0.4,0.4,0.9,0.5,1.3c1,2.8,2.6,5.4,4.9,7.3c2.9,2.4,6,4.7,9.1,6.8c4.3,2.9,10.6,2.2,14.8-2.8
	c1.5-1.8,2.9-3.6,4.4-5.4c2.3-2.8,3.7-6.1,4.5-9.6c0.9-4.5,1.8-9,2.9-13.4c1.1-3.9,0.8-7.8,0.6-11.8c0-1.6,0.1-3.3-0.4-4.8
	c-0.8-2.7-1.8-5.3-2.1-8.2c-0.4,0.4-0.5,0.8-0.7,1.2c-1.7,3.6-4.1,6.6-7.7,8.4c-0.8,0.4-1.7,1-2.7,0.6
	C316.4,106.9,317.9,104.5,319.3,102.1z M217.6,484.9c-1.9,0.3-1.5,1.3-1.3,2.2c1,3.7,2.1,7.5,3,11.2c1.6,6.6,2.8,13.2,3.1,20
	c0,0.6,0.2,1.2,0.3,2c0.5-0.3,0.8-0.4,1.1-0.6c4.2-2.4,7.8-5.6,11.2-9c4.9-4.9,9.8-9.8,14.6-14.7c1.9-1.9,3.7-4,5.6-6
	c1.1-1.2,2.2-2.4,3.6-3.8c-0.8-4-1.7-8.4-2.7-12.7c-0.6-2.6-2.2-4.5-3.8-6.4c-1.3,0.3-2.4,0.5-3.6,0.8c-0.1-0.9-0.1-1.4-0.2-2.6
	c-2.1,1.4-3,3.4-4.7,4.5c-1.7,1.2-3.2,2.7-4.9,3.9c-1.6,1.2-3.2,2.4-4.9,3.6c-1.7,1.2-3.5,2.3-5.4,3.3c-1.8,1-3.7,1.8-5.7,2.7
	c0,1.1,0,2,0,2.9c-0.1,2.1-1,3.1-3,3.4c-1.4,0.2-2.2-0.3-2.4-1.8C217.8,486.9,217.7,486,217.6,484.9z M371.5,268.6
	c0.2,1.5,0.3,2.8,0.4,4c0.5,6.6-0.4,13.2-1.5,19.7c-1,5.7-1.1,11.2,1.5,16.6c0.3,0.6,0.4,1.2,0.6,1.7c0.7,1.8,1.5,3.7,2.4,6
	c2.2-5.8,6.2-9.6,10.2-13.4c1.3-1.2,2.5-2.3,3.7-3.5c4.3-4.1,8.7-8.2,12.1-13.2c1.5-2.2,2.8-4.7,4-7.1c0.5-0.9,0.9-2.1-0.4-3
	c-0.3,0.1-0.7,0.1-1.1,0.2c-4.2,1.5-8.4,1.3-12.6,0c-3.4-1.1-6.7-2.4-10-3.8C377.8,271.5,374.8,270.1,371.5,268.6z M235.7,327.2
	c-0.2,0.5-0.4,1-0.5,1.5c-1.7,6-3.5,12.1-5.1,18.1c-2.1,7.8-3,15.7-2.7,23.7c0.2,6.7,1,13.5,1.6,20.2c0.1,0.9,0.4,1.8,0.9,2.6
	c0.9,1.3,2,2.5,3.1,3.7c2.5-7.1,4.9-14.1,7.3-21c2.4-7,6.1-13.4,9.4-19.7c-1.3-1.3-2.4-2.4-3.5-3.4c-2.1-1.9-4.1-3.7-6.3-5.5
	c-1.4-1.2-1.7-1.7-1.2-2.9c0.9-2.5,1.8-4.9,2.6-7.4c0.2-0.5,0.1-1.2-0.2-1.7C239.3,332.7,237.5,330,235.7,327.2z M348,216.5
	c-0.6-2.7-1.1-4.9-1.5-7.2c-1.5-6.9-3-13.8-4.5-20.7c-0.8-3.5-2.2-6.6-5.3-8.7c-1.2-0.9-2.2-1.9-3.3-2.9c-2.7-2.5-5.3-5.1-7.2-8.2
	c-2.1-3.4-5.3-4.7-9.1-5.4c0,1.2-0.1,2.3,0,3.4c0.3,5.4,1.4,10.5,5.7,14.3c1.1,1,1.3,2,1.3,3.3c0,4.8,0.1,9.6,0,14.4
	c-0.1,2.7-0.5,5.4-0.7,8.1c-0.1,0.6-0.2,1.2-0.4,2c4.5-0.2,8.9-0.4,13.3,0.7C340.6,210.8,343.8,214,348,216.5z M288.1,732.1
	c-0.6,1.7-1.1,3.1-1.7,4.5c-2,5.1-4.1,10.2-6,15.4c-0.3,0.9-0.6,2.1-0.3,2.9c1.3,2.9,2.3,6,4.6,8.3c2.1,2.1,4.4,4,6.5,6
	c0.9,0.8,1.8,0.8,2.8,0.4c0.6-0.3,1.3-0.5,1.9-1c4.3-3.2,8.5-6.6,11.3-11.3c0.7-1.2,1.3-2.5,1.4-3.9c0.2-2.1,0.1-4.3,0.1-6.5
	c-0.1-3.7-0.3-7.4-0.4-11.3c-2.1,0.8-3.8,1.4-5.5,2.1c-2.3,0.9-4.7,0.8-7.1,0.1C292.5,736.8,289.9,735.1,288.1,732.1z M285.4,206.8
	c0-1.1,0-1.8,0-2.6c-0.1-1.5-0.3-2.9-0.4-4.4c-0.4-10.6,1.4-21,4.2-31.2c0.3-0.9,0.8-1.7,1.3-2.5c0.2,0.1,0.4,0.2,0.6,0.2
	c-0.4,1.7-0.9,3.3-1.2,5c-0.4,1.7-1,3.5-0.8,5.5c4-4.5,5.8-9,5.6-14c-1.4-0.4-2.9-0.4-4.2,0.4c-1.8,1.1-3.6,2.3-5.3,3.7
	c-1.4,1.1-2.5,2.6-3.7,3.8c-1.6,1.6-3.4,3.1-5.7,3.4c-2.8,0.4-4,2.1-4.7,4.5c-0.1,0.4-0.3,0.9-0.5,1.3c-3,8.7-4.9,17.6-6.5,26.6
	c-0.4,2.2-0.5,4.5-0.8,7.4c3.9-2.1,6.5-5.3,10.2-6.5C277.2,206.3,281.1,205.6,285.4,206.8z M328.6,324c0-1.1,0-2,0-2.9
	c-0.3-4.7-0.5-9.4-0.8-14.2c-0.2-3.5-0.3-7-0.5-10.5c0-0.6-0.2-1.2-0.4-1.8c-0.6-2.9-1.4-5.9-1.9-8.8c-0.7-4-1-8.2-1.8-12.2
	c-1.2-6.2-2.8-12.4-4.2-18.6c-0.8-3.5-1.7-7-2.6-10.7c-2.2,1.2-4,2.1-4.4,4.8c-0.8,5.1-2,10.2-3.2,15.2c-0.3,1.2-0.2,2,0.3,3.1
	c3.2,6.8,5.9,13.9,7.8,21.1c1.3,5,2.7,10,3.6,15.1c1.1,5.9,1.7,11.8,2.6,17.7c0.2,1,0.6,2,0.9,3.1
	C325.6,324.3,326.9,324.2,328.6,324z M259.8,491.4c-0.9,0.9-1.4,1.5-1.9,2.1c-7.1,8.1-14.4,16-22.8,22.8c-2.5,2-5.3,3.8-8,5.5
	c-1.2,0.8-2.6,1.2-4,1.9c1.2,7.4-1.3,14.3-2.4,21.7c1.1-1,1.9-1.8,2.8-2.5c10.6-9.3,21.2-18.6,30.9-29c2.3-2.5,4.6-5,6.9-7.5
	c0.9-0.9,1-2,0.8-3.2c-0.4-1.6-0.6-3.2-0.9-4.8C260.7,496.2,260.3,494,259.8,491.4z M228,271.2c0.9,2.3,1.7,4.7,2.8,6.9
	c2.5,5.1,4,10.6,5.6,16c0.9,2.9,1.3,5.9,1.3,8.9c0,0.9,0,1.7,0,2.6c0.6-0.7,0.8-1.4,1-2.2c1.3-4.8,2.9-9.5,5.3-13.9
	c1.7-3.1,3.4-6.1,5.3-9c2.4-3.6,5-7.1,7.4-10.7c1-1.5,2.1-3.1,2.7-4.8c1.2-2.8-0.6-5.5-3.5-5.6c-1.6,0-3.3,0.1-4.7,0.7
	c-3.2,1.4-6.2,3.1-9.3,4.8C237.4,267.5,233.1,270.2,228,271.2z M224.5,271.5c-0.7-0.1-1.3-0.2-1.8-0.1c-2.6,0.1-5.3,0.3-7.9,0.4
	c-4.7,0.2-9.3,0-13.9-1.1c-2.4-0.6-3.7,0.5-3.8,3c-0.2,3.9,1.5,6.9,4.4,9.3c3.1,2.5,6.4,4.9,9.5,7.5c4.9,4.2,8.9,9.1,11.7,14.9
	c0.2,0.4,0.4,0.7,0.6,1.1C225.1,294.8,226,283.2,224.5,271.5z M278.4,678c0.3,1.7-0.2,3.5,0.9,5.1c0.1,0.1,0,0.3,0,0.5
	c0.2,1,0.4,2.1,0.6,3.1c0.1,0.4,0.2,0.8,0.2,1.1c-0.1,1.9-0.1,3.9-0.5,5.8c-0.2,1.2-0.1,2.1,0.7,2.9c2.3-0.2,4.5-0.4,6.8-0.5
	c5.2-0.2,5.2-0.2,6.8,1c-4.8,1-9.6,0.2-14.1,1.4c0,1.9-0.1,1.9,0.7,2.7c2.9,2.8,5.9,5.6,10.5,4.7c0.3-0.1,0.6,0,0.9,0
	c1.7,0,2.2-0.4,2.4-2.1c0.2-1.4,0.3-2.8,0.7-4.1c0.6-2.4,1.5-4.7,1-7.3c-0.1-0.6,0.2-1.2,0.4-1.8c0.1-0.4,0.5-1,0.3-1.3
	c-0.6-1.7,0.1-2.8,1.5-3.6c-0.1-3.1-1.5-5.4-3.1-7.6C289.3,679.9,283.9,679.1,278.4,678z M368.2,296.4c0.1,0,0.2,0,0.3,0
	c0.2-1.3,0.3-2.6,0.5-3.9c0.5-4.6,1.1-9.1,1.4-13.7c0.2-3-0.1-6-0.2-9.1c0-1.5-0.8-2.3-2.1-3c-5.3-2.4-10.6-4.9-15.2-8.6
	c-1.2-1-2.1-0.7-3.2,0.5c-1.7,1.9-2,4-1,6.2c1.4,3.2,3.1,6.3,5.8,8.7c5.1,4.4,8.7,9.9,11.2,16.1C366.5,292,367.4,294.2,368.2,296.4z
	 M308,733.9c0.1-1.9,0.2-3.6,0.4-5.3c0.2-1.8,0.8-3.6,1-5.5c0.2-2.4,0.1-4.9-0.7-7.3c-5.9,0.4-11.4,0.1-15.9-3.8
	c-0.4,2-0.8,3.8-1.2,5.5c-0.7,2.6-1.1,5.3-2.1,7.8c-1,2.5,0,4.7,0.3,7c0,0.3,0.4,0.5,0.6,0.7c3,3,6.8,4.1,10.9,3.3
	C303.5,735.9,305.7,734.7,308,733.9z M233.1,462c5.3,0.8,10.2,1.5,15.2,2.3c-2.4-6.8-4.8-13.4-6.9-20.1c-2.1-6.8-4-13.7-6-20.6
	c-1-0.1-1.8-0.1-2.5-0.1C233,436.5,234.2,449.3,233.1,462z M251.9,350.4c0.2,0,0.4,0,0.6,0c0.6-1.5,1.3-3,1.7-4.5
	c1-4.5,1.9-9.1,2.7-13.6c0.1-0.4-0.1-1.1-0.4-1.4c-2-2.3-4.1-4.6-6.2-6.9c-2-2.1-4.3-3.8-7.1-4.7c-2.4-0.8-4.6,0.2-5.2,2.1
	c-0.9,3-0.5,5.8,1.3,8.4c2.9,4,5.7,8.1,8.7,12.1C249.8,344.5,251.6,347.1,251.9,350.4z M317.3,669.9c-4.2-2.5-8.4-2.7-12.7,0.2
	c-0.1,6.7-2.1,12.9-4.8,19.1c4.1,1.9,7.9,3.5,12.5,3.9C314,685.4,315.6,677.8,317.3,669.9z M276.2,644.4c0,0.5-0.1,0.8-0.1,1.1
	c0.6,4.4,0.4,8.8-0.1,13.2c0,0.3,0,0.6,0,0.9c0.3,2.2,1,3.2,2.6,3.3c2.2,0.1,4.5,0.2,6.7,0.1c1.2,0,2.5-0.2,3.6-0.6
	c1.7-0.5,2-1.9,0.9-3.4c-0.4-0.6-0.7-1.2-0.8-1.9c-0.8-3.9-1.6-7.9-2.4-12C283.5,643.7,280,643.6,276.2,644.4z M314.3,694.2
	c-2,0.8-3.6,0.7-5.3,0.2c-3.5-1-6.9-2.1-10.4-3.2c-0.4-0.1-0.6-0.5-1.3-1.1c-0.1,1.3-0.1,2.2-0.1,3c-0.1,1.3-0.1,2.6-0.2,3.9
	c-0.1,0.8-0.4,1.7-0.7,2.5c-0.5,1.3-0.2,2.4,0.8,3.4c0.5,0.5,1,1,1.6,1.4c3.3,2.7,7.3,3.2,11.4,3c1.3-0.1,2-0.6,2.3-1.8
	c0.7-3.2,1.5-6.5,2.2-9.7C314.6,695.3,314.4,694.8,314.3,694.2z M367.5,351.4c-3,1.2-5.8,2.8-7.6,5.5c-1.4,2-2,4.5-1.1,7.3
	c1.2,3.5,2,7.2,3,10.7c0.4,1.5,0.9,3,1.3,4.4c0.5,1.6,1.1,3.2,1.5,4.8c0.9,3.6,1.6,7.1,2.4,10.7c0.2,0,0.3,0,0.5-0.1
	C367.5,380.3,367.5,366,367.5,351.4z M278.9,701.7c-0.3,2.1-0.7,4-0.9,5.8c-0.1,0.7-0.2,1.4-0.2,2.1c0,0.8,0.2,1.7,0.3,2.5
	c0.8,6,4.9,9.8,8.9,13.7c0.1,0.1,0.3,0,0.5,0c0.6-1.6,1.2-3.1,1.7-4.8c0.7-2.5,1.5-5.1,1.7-7.7c0.2-2.2,0.1-4.3,1.5-6.3
	c-1.5,0-2.8-0.1-4.1,0c-1.6,0.1-3-0.4-4.3-1.4C282.5,704.4,280.9,703.2,278.9,701.7z M226.9,405.8c-0.5,0.5-0.7,0.7-0.8,1
	c-4.5,8.1-8.4,16.6-11,25.6c-3.5,12.5-7.1,24.9-10.6,37.3c-0.6,2-1,4-0.7,6.2c1.6-0.5,2.6-1.4,3-3c0.4-1.7,0.9-3.3,1.4-4.9
	c1.6-4.9,3.5-9.8,4.8-14.8c2.1-8,3.9-16.1,5.6-24.2c1.6-7.7,3.8-15.2,8.4-21.6C227.2,407.1,227,406.6,226.9,405.8z M355.1,343
	c0.7-0.5,1.3-0.9,1.9-1.4c1.5-1.3,2.8-2.7,4.3-3.9c3.1-2.4,6.2-4.7,9.3-7c1.2-0.8,2.6-1.4,3.9-2.1c0.9-0.5,1.8-1,3.1-1.6
	c-3.1-1.8-6-2.5-9-1.4c-3.7,1.4-7.3,2.9-11,4.4c-1.8,0.7-3.6,1.4-5.4,2.1C352.9,335.9,353.3,339.5,355.1,343z M241,427.5
	c1.3,4.3,2.5,8.6,3.8,12.9c1.4,4.4,2.9,8.7,4.4,13c1.2,3.7,2.8,7.2,3.1,11.2c0,0.5,0.5,1,0.9,1.5c2.2,2.2,4.1,4.7,4.7,7.9
	c1.2,6.3,2.5,12.6,3.7,18.9c0.7,3.5,1.4,6.9,2.1,10.9c0-1.2,0.1-1.9,0-2.6c-0.6-4.5-1.2-8.9-1.7-13.4c-0.9-8.1-2.9-16-5.9-23.6
	c-2.3-5.9-4.1-12-6.1-18.1c-0.6-1.9-0.9-4-1.7-5.8c-0.8-1.7-1.6-3.3-2.1-5.1C245.6,432,243.4,429.7,241,427.5z M221.3,482.9
	c0.2-1,0.7-2.2,0.7-3.3c0-6.2-0.1-12.5-0.4-18.7c-0.2-5.1,0.1-10.2,0.6-15.3c0.7-6.4,1.3-12.8,2-19.2c0.4-3.6,1.1-7.2,1.6-10.8
	c0.1-1,0.2-2.1,0.2-3.1c-0.2,0-0.4-0.1-0.5-0.1c-0.9,2-2.1,3.8-2.2,6.2c-0.1,2.4-0.5,4.8-0.7,7.2c-0.7,6.4-1.4,12.8-2,19.2
	c-0.3,3.4-0.4,6.8-0.7,10.2c-0.5,6.5-1.2,13-1.6,19.5c-0.3,4.6-0.6,9.2,1.3,13.6c2.1-0.2,2.3-0.3,2.2-2.2
	C221.8,484.9,221.5,483.9,221.3,482.9z M223.4,480.9c5.7-1.5,21.3-12.2,22.5-15.5c-2.9-0.4-5.8-0.9-8.8-1.3
	c-0.5-0.1-1.2,0.1-1.7,0.4c-4,2.6-8,5.3-12,8C223.4,475.4,223.4,478.2,223.4,480.9z M221.1,424c-0.3,1.4-0.7,2.8-1,4.3
	c-2.9,12.8-5.2,25.8-10,38.2c-0.8,2.1-1.3,4.4-2.1,7c3.4-2,6.4-3.8,9.4-5.5C219.2,453.3,219,438.5,221.1,424z M226.3,423.8
	c-0.2,0.5-0.5,1-0.5,1.5c-1,13.2-4,26.3-2.4,40c1.6-0.9,2.8-1.6,4-2.3C228,449.9,228.3,436.9,226.3,423.8z M276.1,664
	c0.8,1.7,1.8,3.1,2.3,4.7c0.5,1.6,0.4,3.4,0.6,5.1c2.9-0.3,5.6-0.5,8.3-0.8c1.3-0.1,2.6-0.4,3.8-0.8c1.6-0.5,2.1-1.2,1.7-2.8
	c-0.5-2.1-1.3-4.1-1.9-6.1C286.1,664.6,283.2,664.7,276.1,664z M231.5,461.3c0.6-12.7,0.1-25.4,0.2-38.2c-1.3,0.2-2.5,0.3-3.9,0.5
	c1.9,12.9,1.2,25.6,1,38.6C229.9,461.9,230.6,461.6,231.5,461.3z M280.2,144.6c0.9-1.8,1.9-3.6,2.6-5.5c1.7-4.6,4.5-8.2,8.6-11
	c3.9-2.7,7.4-5.9,10.3-9.7c0.3-0.4,0.6-1,1.1-1.9c-0.7,0.4-1,0.5-1.3,0.6c-4.1,2.7-8.3,5.2-13,6.7c-0.6,0.2-1.3,0.9-1.6,1.5
	c-1.7,3-3.2,6-4.9,9C280.3,137.5,279.3,140.8,280.2,144.6z M367.2,335c-3.6,2.6-7.1,4.9-9.8,8.1c-1.2,1.4-1.5,2.4-0.8,3.3
	c0.8,1.2,2,0.9,3.2,0.7c0.6-0.1,1.2-0.3,1.8-0.4c2.4-0.5,4.8-1.1,7.2-1.6c1.2-0.2,2.4-0.4,3.8-0.6C371.7,340.9,369,338.3,367.2,335z
	 M296.1,703.2c-0.8,1.5-1.3,2.8-2.1,3.9c-1.6,2.4-1.7,3.2,1.1,5c4.2,2.6,8.8,2.1,13.5,1.9c0.1-1.9,0.2-3.4,0.3-5.2
	C303.7,708.6,299.1,707.5,296.1,703.2z M321.1,330.7c0.1,0.6,0.2,0.9,0.3,1.3c1.3,5.6,2.7,11.1,3.7,16.8c0.7,4,0.5,8,0.9,12.1
	c0.6,7.8,0.7,15.6,0,23.5c-0.1,0.6-0.2,1.3,0,1.8c0.1,0.4,0.7,0.8,1.1,0.9c0.3,0.1,0.9-0.4,1-0.7c0.2-0.6,0.2-1.4,0.2-2.1
	c-0.2-4.6-0.5-9.3-0.7-13.9c-0.3-4.6-0.8-9.3-0.8-13.9c0.1-6.7-0.4-13.3-1.4-19.9c-0.3-2.1-0.7-4.2-1-6.6
	C323.1,330.2,322.1,330.5,321.1,330.7z M198.1,482c1.4,0.5,2.4,1,3.5,1.3c2.6,0.8,3.7,1.2,6-1.2c2.9-2.9,6.2-5.5,9.6-8.4
	c0-1,0.2-2.4,0-4.2C210.7,473.8,204.5,477.8,198.1,482z M315.7,326.9c-4-0.2-7.9-0.1-11.7,0.2c-5.2,0.4-10.3,1.2-15.5,0
	c-1.4-0.3-2.7,0-3.9,0.6c0,1.1,0,2.1,0,3.2c1.3-0.1,2.3-0.1,3.4-0.2c4.7-0.3,9.4-0.6,14.1-0.9c3.1-0.2,6.2-0.6,9.3-0.5
	C313.4,329.4,314.6,328.7,315.7,326.9z M355,347.1c-0.4,3.8,0.7,9.1,2.4,11.6c0.7-3.1,2.8-4.8,5.3-6.2c2-1.1,4.1-2.2,6.1-3.4
	c1.2-0.7,2.5-1.4,3.1-3c-0.5,0-0.9-0.1-1.3,0c-3.1,0.6-6.2,1.3-9.3,1.9C359.2,348.6,357.1,349.2,355,347.1z M286.8,191.9
	c-0.1,1.1-0.4,2.1-0.4,3.2c0.1,4,0.3,8,0.4,12.1c0,0.8,0.3,1.3,1,1.6c2.1,0.9,2.6,2.7,2.5,4.8c0,0.7-0.3,1.4-0.2,2.1
	c0,0.6,0.1,1.3,0.5,1.6c1.6,1.3,3.4,2.5,5.1,3.7c0.1-0.1,0.3-0.2,0.4-0.3C291.5,211.5,289.4,201.6,286.8,191.9z M236.3,423.5
	c4.9,14.2,8.1,28.8,14.4,42.3c0.1-1.3,0.2-2.6-0.2-3.8c-1-3.3-2.2-6.6-3.3-9.9c-1.8-5.4-3.7-10.7-5.3-16.1c-1.1-3.8-2-7.7-3.7-11.2
	C238,424.2,237.9,423.2,236.3,423.5z M240.3,345.1c3.1,2.9,6.2,5.9,9.7,9.1c0.2-1.3,0.4-2.2,0.3-3c-0.2-2.2-0.8-4.3-2.1-6.1
	c-1.4-2-2.8-3.9-4.2-5.8c-0.3-0.4-0.7-0.7-1.2-1.2C241.9,340.6,241.1,342.9,240.3,345.1z M259.4,488.3c-0.2,0-0.4,0-0.5-0.1
	c-2,2.3-3.9,4.6-6,6.8c-5.4,5.5-10.8,10.9-16.2,16.3c-3.9,4-8.3,7.4-13.3,10.1c-0.1,0.1-0.2,0.3-0.5,1c1.9-0.9,3.6-1.4,4.9-2.3
	c2.7-1.8,5.4-3.7,7.8-5.8c8.4-7.4,16-15.6,23.3-24.1C259.2,489.7,259.2,488.9,259.4,488.3z M217,313.3c3.2-0.3,5.4-2.8,5-5.5
	c-0.5-3.5-2.7-6-5-9C217,303.9,217,308.5,217,313.3z M294.4,672.8c-2.1,0.5-3.7,1.1-5.3,1.4c-2.7,0.4-5.5,0.6-8.3,1
	c-1,0.1-2,0.4-2,1.9c4.4,0.8,8.8,1.2,13.2,0.4c0.4-0.1,0.7-0.3,1.1-0.4c1.2-0.4,1.4-1.4,1.7-2.3
	C294.9,674.1,294.5,673.3,294.4,672.8z M207.7,483.3c0.1,0.2,0.2,0.3,0.3,0.5c1,0.2,2,0.2,2.9,0.6c1.6,0.7,3.1,0.9,4.4-0.5
	c0.3-0.3,0.9-0.4,1.6-0.7c0-2.2,0-4.4,0-7.1C213.7,478.6,210.7,480.9,207.7,483.3z M328.5,135.1c-1.5,1.7-2.6,3.4-3.2,5.5
	c-0.7,2.6-2.1,5-3.8,7.1c-0.8,1-1.5,1.9-2.3,2.9c-0.5,0.7-1,1.5-0.5,2.7c3.9-2,5.1-6,7.3-9.2c0.6,0.4,1,0.7,1.3,1
	C327.8,141.8,328.1,138.5,328.5,135.1z M326.9,135c4-4.4,5.9-9.2,5.8-14.8c-1,0.3-1.9,0.6-2.8,0.8c-0.5,2.2-1,4.3-1.6,6.5
	c0.1,0,0.2,0.1,0.3,0.1c0.5-0.8,1-1.6,1.4-2.5c0.3,0.5,0.4,1,0.2,1.4c-0.7,1.5-1.4,2.9-2.2,4.3C327.3,132,326.8,133.2,326.9,135z
	 M231.1,462.7c-2.7,1.5-5.2,3-7.8,4.4c0.3,1.4-0.1,2.6,0.3,3.9c3.2-2.3,6.3-4.5,9.5-6.8C232.4,463.7,231.8,463.3,231.1,462.7z
	 M237.7,421.7c-0.6-1.5-1.8-1.9-2.9-2c-2.6-0.2-5.2-0.3-7.9-0.5c-0.2,1-0.4,1.9-0.7,3.1c1.1-0.1,1.9-0.3,2.7-0.3
	c1.5-0.1,3.1-0.4,4.6-0.1C235,422.4,236.2,422.1,237.7,421.7z M227.6,417.8c1,0.1,2.2,0.3,3.6,0.5c-0.5-2.1-1.1-3.9-1.4-5.7
	c-0.3-1.8-0.3-3.6-0.5-5.6c-1.7,1.8-1.7,1.8-1.7,2.8C227.6,412.4,227.6,414.9,227.6,417.8z M323.5,328.1c-0.1-1.6-0.6-2.3-2-2.1
	c-2.5,0.3-4.4,1.7-6.1,3.4c-0.3,0.3-0.3,1.1-0.1,1.5c0.2,0.3,0.9,0.5,1.4,0.5c0.3,0,0.7-0.3,1-0.5
	C319.6,330.1,321.4,329.2,323.5,328.1z M324.5,217.2c1.1-2.4,2-4.4,3-6.7c-0.7-0.1-1-0.2-1.4-0.2c-0.8,0-1.6,0-2.3,0.1
	c-2.1,0.2-2.7,1.6-1.6,3.4C322.8,214.9,323.6,215.9,324.5,217.2z M284.5,208.5c-0.4,3.1,1.2,5.7,3.9,6.5
	C289.1,211.2,288.7,210.5,284.5,208.5z M234.2,413.2c-1,0.5-1.9,1-2.9,1.5c1.3,4.2,1.3,4.2,4.9,3.9
	C235.6,416.8,235,415.1,234.2,413.2z M328.8,328.3c-0.1-1.1-0.1-2-0.2-3.1c-1.4,0.2-2.5,0.4-3.7,0.6c0.1,1,0.2,1.8,0.2,2.5
	C326.4,328.3,327.5,328.3,328.8,328.3z M332.6,115.1c-1.1-1.2-1.5-2.6-2.9-3.6c0.1,2.4,0.3,4.5,0.4,7.1
	C331.1,117.3,331.8,116.3,332.6,115.1z M227.9,405.6c0.2-0.1,0.4-0.3,0.6-0.4c-0.4-0.8-0.7-1.5-1.1-2.3c-0.2,0.1-0.3,0.1-0.5,0.2
	C227.3,404,227.6,404.8,227.9,405.6z"/>
<path class="st0" d="M350.8,437c-3.2,1.6-6,3.7-9.5,5.6c0.3-2.3,1.3-3.5,2.5-4.6c2.9-2.6,5.9-5.1,8.9-7.5c1.7-1.4,3.7-2.5,5.9-3.4
	c-0.2,0.6-0.3,1.2-0.5,1.7c-8.3,18.1-14.5,36.8-18.5,56.3c-1.8,8.7-3.6,17.5-5.3,26.2c-1.4,7.2-4.1,14-7.6,20.4
	c-1.2,2.2-2.3,4.4-3.4,6.6c-0.5,1-1.3,2.3-0.1,3.2c1.2,0.9,2-0.6,3-1.1c0.2-0.1,0.3-0.3,0.6-0.7c-0.9,0.1-1.5,0.2-2.5,0.3
	c2-5.6,5.6-10.2,7.6-15.7c1.9,3.4,2.3,6.2,0.9,9.4c-3.3,7.3-3.8,14.8-3,22.6c0.7,6.8,1.6,13.6,1.9,20.4c0.3,5.8,0.2,11.6,0,17.4
	c-0.4,12.3-4,24.2-6,36.2c-1.4,8.5-2.5,17-3.1,25.7c-0.2,2.2-0.8,4.2-1.8,6.2c-0.7,1.4-1,3.1-1.5,4.6c-0.2,0.6-0.3,1.1-0.6,2
	c-4.7-2.3-9.3-3.2-14.3-0.5c0-0.9,0-1.4,0-1.9c-0.3-4.7-0.6-9.4-1-14.2c-0.8-9.1-0.4-18.2,0.4-27.2c0.9-10.8,1.8-21.7,3-32.4
	c1.1-9.2,0.7-18.3,0.6-27.4c-0.1-6.8-0.1-13.7-0.2-20.5c-0.1-12.7,0.1-25.5-0.3-38.2c-0.3-8.4-1.3-16.9-1.9-25.3
	c-0.2-2.5,0-5.2-0.5-7.6c-0.5-2.1,0.2-3.9,0.7-5.8c3.7-13.7,6.5-27.6,9.3-41.6c1.7-8.4,3.6-16.7,5.3-25c0.7-3.2,1.1-6.4,1.7-9.6
	c-0.2,0-0.3-0.1-0.5-0.1c-0.2,0.5-0.4,1-0.5,1.5c-3.3,15-6.5,30-9.8,45c-3.3,14.9-7.2,29.6-11.2,44.2c-2.7,9.8-5.3,19.6-6.5,29.8
	c-0.9,7.4-1.6,14.8-2.2,22.2c-0.7,8.7-0.4,17.6-1.8,26.2c-0.9,5.5-2,11-3,16.5c-2,10.5-2.1,21-1.3,31.5c0.8,10.5,1.6,21,2.3,31.6
	c0.1,1.1,0,2.2,0,3.2c-3.7-0.2-7.2-0.5-11.1-0.7c-0.3-1.2-0.6-2.7-1.1-4.2c-1.6-4.9-3.1-9.9-4.9-14.8c-3.3-9.2-5-18.7-6.6-28.3
	c-1-6.4-2.1-12.7-2.7-19.1c-0.9-9.1-0.1-18.2,2.8-26.9c1-3.2,2.1-6.4,3.5-9.4c1.9-4,2.1-8,1.4-12.3c-1.2-8.3-2.2-16.6-3.3-24.9
	c-1.2-8.6-2.1-17.3-3.7-25.8c-1-5.1-3.1-9.9-4.7-14.8c-1.7-5.2-3.4-10.3-5-15.5c-0.4-1.3-0.9-2.7-1.2-4c-0.4-1.3-0.9-2.7-0.9-4.1
	c-0.1-5.3-1.4-10.4-3-15.5c-2.1-6.8-4.4-13.4-7.7-19.7c-0.1-0.3-0.3-0.5-0.5-0.9c-0.8,0.6-0.3,1.2-0.1,1.7
	c3.5,8.1,6.3,16.4,8.5,24.9c0.4,1.3,0.6,2.7,1,4.4c-2.6-3.5-5.1-6.5-7.2-9.8c-3-4.8-5.4-9.8-6.2-15.6c-0.7-5.2-0.3-10.1,1.4-15
	c1.7-4.9,3.4-9.8,5-14.8c2.5-7.6,6.2-14.6,10.1-21.5c4-7.3,6.4-15,7-23.2c0-0.2,0.1-0.5,0.1-0.9c0.5,0.2,1,0.4,1.4,0.7
	c1.6,1,3.2,2.2,4.9,3.1c5.5,3.2,11.3,3.7,17.3,2.2c1.1-0.3,2.1-0.8,3.1-1.2c0-1.8,0-3.4,0-5.2c1,0,1.9-0.1,2.8-0.1
	c5.8,0,11.6-0.6,17.4-1.3c1.8-0.2,3.7-0.2,5.6-0.2c1.4,0,2.6,0.1,3.7,1.3c1.4,1.5,2.8,1.2,4,0.3c0.4-0.3,0.9-0.6,1.6-1
	c0.2,0.6,0.4,1,0.5,1.5c0.9,3.5,1.8,7.1,2.6,10.6c1.2,4.7,1.1,9.5,1.5,14.3c0.3,3.3,0.3,6.7,0.6,10c0.5,5.8,0,11.6-0.3,17.4
	c0,0.6,0,1.2,0.1,1.8c0.2,1.1,0.9,1.6,2,1.6c1.1,0.1,2.1-0.2,2.4-1.4c0.3-1.2,0.5-2.5,0.4-3.7c-0.1-3.8-0.5-7.6-0.6-11.4
	c-0.2-5.6-0.6-11.2-0.5-16.7c0.1-6.4-0.6-12.7-1.5-19c-0.3-2.1-0.6-4.1-0.9-6.4c0.9-0.1,1.7-0.1,2.5-0.2c0.9,3.5,0.8,3.5,4.4,3.6
	c3.5,0.1,7,0.2,10.5,0.2c1.7,0,3.4-0.4,5.1-0.6c0.8-0.1,1.5-0.3,2.4-0.5c0.1,0.7,0.3,1.2,0.3,1.7c0.2,3.2,1.3,6.2,2.3,9.2
	c0.3,0.8,0.5,1.7,0.3,2.4c-0.6,2.7-0.4,5.3,0.3,7.8c1.3,4.2,2.6,8.5,3.9,12.7c1.4,4.4,2.8,8.9,4.1,13.3c0.5,1.6,0.7,3.2,1.1,4.7
	c0.8,2.9,1.7,5.8,2.4,8.7c1.5,6.4,2.4,13,2.2,19.6c0,1.6-0.4,2.8-1.5,4c-1.9,2-3.6,4.2-5.5,6.3c-0.8,0.8-1.7,1.6-2.7,2.2
	c-3.5,2.5-7.1,4.8-10.5,7.3c-2.2,1.7-4.2,3.7-6.1,5.7c-0.9,0.9-1.5,2.2-1.8,3.5c-0.4,1.6,0.7,2.5,2.3,2.1c0.5-0.1,1-0.4,1.5-0.6
	C346.5,441.5,348.7,439.2,350.8,437z M278.8,603.7c0.2,0,0.4,0,0.5,0c-0.1-4.8,0.3-9.6-0.5-14.4c-0.4-2.3-0.8-4.6-0.8-6.9
	c0-6.2,0-12.4,0.3-18.6c0.4-7.4,1.1-14.7,1.6-22c0.6-8.6,1.4-17.2,1.6-25.8c0.3-9.7,0.2-19.4,0.2-29.1c0-2.6-0.1-5.3-0.2-7.9
	c-0.3-6.7-1-13.5-1.1-20.2c-0.3-18-0.9-36-2-54c-0.5-8.1-0.9-16.1-1.4-24.2c-0.3-5.4-0.7-10.8-1.1-16.6c-0.8,2.7-0.8,5.2-0.7,7.7
	c0.2,4.2,0.5,8.4,0.8,12.5c0.6,11,1.3,22,1.8,33c0.5,10.4,0.7,20.8,1,31.2c0.1,3.5,0.2,7,0.3,10.5c0.3,6.8,0.7,13.6,1,20.5
	c0.2,4.8,0.3,9.6,0.3,14.4c-0.1,10.2-0.2,20.3-0.5,30.5c-0.3,8.7-1,17.3-1.5,26c-0.3,5.1-0.9,10.2-1.1,15.3
	c-0.2,6.3-0.5,12.6-0.3,18.8c0.2,6.2,0.9,12.4,1.5,18.5C278.5,603.2,278.7,603.4,278.8,603.7z M325.9,436.4
	c-0.1-0.1-0.2-0.2-0.3-0.3c1-1,1.9-2,2.9-3c3.7-3.2,7.3-6.5,11.1-9.6c4.4-3.6,9-7.1,13.5-10.6c0.6-0.5,1.1-1,1.1-2.1
	c-0.9,0.6-1.5,1.1-2.1,1.6c-2,1.5-3.9,3-5.9,4.5c-8.5,6.2-16.7,12.7-24,20.2c-0.5,0.5-1,1-1.3,1.6c-0.2,0.3-0.2,1,0,1.2
	c0.2,0.3,0.8,0.3,1.2,0.3c0.4-0.1,0.8-0.4,1.2-0.6c2.8-1.6,5.7-3.1,8.5-4.7c0.2-0.1,0.3-0.3,0.5-0.5c-1.2,0.1-2.2,0.4-3.2,0.8
	C328,435.5,326.9,436,325.9,436.4z"/>
<path class="st0" d="M275,251.6c-0.2,1.8-0.4,3.5-0.6,5.3c-1.3,11.4-4,22.6-6.5,33.8c-2.1,9.6-4.2,19.3-6,28.9
	c-0.7,4-0.8,8.2-1.1,12.4c-0.3-0.1-0.7-0.3-1.1-0.6c-2.8-1.9-5-4.5-7.1-7.1c-2-2.4-4.4-4.3-7.3-5.6c-2.6-1.2-5-1.2-8-0.1
	c0.3-2.3,0.6-4.3,0.9-6.3c0.2-1.1,0.5-2.3,0.7-3.4c1.5-8.7,4.9-16.7,9.5-24.1c2.9-4.6,6-9,9.1-13.5c0.9-1.4,1.9-2.8,2.7-4.3
	c1.4-2.7,1.5-5.3-0.5-8.1c-2.8-3.8-3.8-8.4-5.1-12.9c-1-3.3-0.4-6.3,0.9-9.4c3.8-9.4,9.6-17.3,16.9-24.3c0.7-0.6,1.3-1.3,1.9-2
	c2.2-2.5,5-2.7,8.2-2.4c0.2,0.7,0.4,1.4,0.5,2.1c0.3,2.8,1.7,4.9,4,6.5c3.5,2.6,6.8,5.3,10.3,8c1,0.8,1.3,1.8,1.4,3
	c0.4,3.9-0.5,7.6-1.3,11.3c-3.3,15.9-7.3,31.6-12.1,47.1c-1.4,4.5-2.4,9-2.2,13.7c0.1,1.6-0.3,3.2-0.8,4.9c-0.2-0.4-0.4-0.7-0.5-1.1
	c-0.2-3-0.4-6-0.5-9.1c-0.2-10-0.4-20-0.5-30c0-3.2,0.2-6.3,0.3-9.5c0-0.2-0.1-0.4-0.3-1c-0.3,0.6-0.6,1-0.6,1.3
	c-0.8,6.5-0.9,13-0.6,19.5c0.2,4.1,0.3,8.2,0.2,12.3c-0.1,9.6,0.8,19.1,2.1,28.5c0.9,6.8,1.8,13.7,1.5,20.7
	c-1.5,1.1-3.4,1.2-5.1,1.4c-4.6,0.5-9-0.3-13.1-2.4c-1.5-0.8-2.3-1.8-2.3-3.6c-0.2-5.2,0.3-10.3,1.3-15.3c2.7-12.7,5.5-25.3,8.3-38
	c1.7-7.7,2.6-15.4,3.4-23.2c0.1-0.6,0-1.2,0-1.9c-0.1-0.5-0.2-1-0.3-1.6C275.3,251.6,275.2,251.6,275,251.6z"/>
<path class="st0" d="M326.3,251.1c-0.1,0.5-0.3,0.9-0.3,1.4c0.1,2.6,0.3,5.3,0.5,7.9c0.2,3.8,0.5,7.6,0.6,11.4
	c0.1,5.6,0.1,11.2,0.2,16.8c0,0.4,0,0.7-0.4,1.1c-0.2-1.6-0.6-3.2-0.7-4.7c-0.6-8.3-2.7-16.4-4.6-24.4c-2.4-10.1-4.7-20.3-7-30.4
	c-0.3-1.1-0.4-2.3-0.6-3.3c2.6-1.9,5.1-3.8,7.7-5.4c3.2-2,5-4.8,6.1-8.2c0.3-0.9,0.5-1.8,0.8-2.7c1.7,0,3.4-0.1,5.1,0
	c0.6,0,1.2,0.3,1.7,0.7c2.4,2.1,4.9,4.1,6.5,6.9c3.6,6.3,7.1,12.5,10.7,18.8c0.7,1.2,1.4,2.4,2.3,4c-0.7,1.7-1.6,3.8-2.3,5.9
	c-1.3,3.4-2.5,6.9-3.7,10.3c-0.2,0.4-0.3,0.9-0.5,1.3c-1.6,2.4-1.5,4.8-0.5,7.3c1.2,3.1,2.8,6,5.3,8.1c7.7,6.5,11.6,15.1,14.5,24.5
	c1.8,5.8,3.6,11.5,5.6,17.2c1,2.8,2.3,5.4,3.5,8.1c0.1,0.3,0.2,0.7,0.4,1.3c-0.8-0.2-1.4-0.3-1.9-0.5c-2.3-0.8-4.6-0.8-6.8,0
	c-3.1,1.1-6.2,2.2-9,3.7c-5.2,2.8-10.7,4.1-16.5,4.1c-3.8,0-7.6-0.2-11.4-0.4c-0.3,0-0.6-0.1-1-0.2c-0.1-0.6-0.1-1.1-0.2-1.6
	c-0.3-4.9-0.6-9.8-0.8-14.6c-0.3-7.9-0.6-15.8-0.8-23.7c-0.2-9-0.1-18-0.4-27c-0.1-4.5-0.8-9-1.2-13.5
	C326.7,251.1,326.5,251.1,326.3,251.1z"/>
<path class="st0" d="M225.1,217.3c-3.4,4.8-6.3,10-9.4,15c-3.1,5.1-6.2,10.2-9.1,15.5c-2.9,5.2-5.5,10.6-8.2,16
	c-0.4-0.4-0.8-0.7-1-1.1c-1.2-2.1-2.3-4.2-3.5-6.3c-0.6-1.1-0.5-1.9,0.3-3c10.5-13.7,21-27.3,31.4-41c3.6-4.8,7.1-9.6,10.3-14.7
	c4.3-6.8,10-11.5,17.6-14.1c5.3-1.8,10.6-3.8,16.3-5.8c-4.1,12.2-7.3,24.4-8,37c1.2,1,2.1,0.6,2.9,0.1c1.2-0.7,2.3-1.6,3.4-2.4
	c1.2-0.8,2.4-1.7,3.8-2.3c-0.5,0.5-0.9,1.1-1.4,1.5c-4.4,4.2-8.4,8.7-11.6,13.9c-1.7,2.9-3.1,6.1-4.6,9.1c-0.3,0.7-0.7,1.3-1.2,2
	c-2.4-12.6-2.2-25.6-5.4-38.1c-0.1,0.4-0.2,0.7-0.2,1.1c0.5,4.5,1,8.9,1.4,13.4c0.4,3.7,0.5,7.4,0.8,11.1c0.7,8.8,1.6,17.6,4.2,26.1
	c0.7,2.4,1.7,4.8,2.6,7.2c-0.1,0.1-0.2,0.3-0.3,0.2c-3.6-0.2-6.8,1.1-9.9,2.8c-2.5,1.4-5.1,2.7-7.5,4.2c-5.3,3.4-11.1,5.2-17.4,5.1
	c-2.3,0-4.6,0.2-7,0.4c-4.6,0.4-9.1-0.2-13.6-1.1c-0.8-0.2-1.7-0.1-2.8-0.1c0.4-1.1,0.8-2.1,1.2-3.2c4-8.6,8.2-17,13.2-25.1
	c4.1-6.7,7.9-13.6,11.8-20.4c0.5-1,0.9-2,1.4-3C225.5,217.5,225.3,217.4,225.1,217.3z"/>
<path class="st0" d="M299.9,684.8c-0.6-2.9-1.9-5.3-3.5-7.5c-0.3-0.5-0.4-1.3-0.3-1.9c0.4-1.2,0.1-2.2-0.7-3
	c-0.7-0.7-0.8-1.5-1.1-2.5c-0.5-2.3-1.4-4.4-2-6.7c-0.3-1-0.2-2.1-0.3-3.2c-0.1-0.6-0.4-1.3-0.7-1.8c-0.2-0.5-0.8-0.8-1-1.2
	c-1.2-3.6-2-7.3-1.8-11.2c0.2-3.6,0.1-7.1-0.1-10.7c-0.4-6.3-0.9-12.5-1.5-18.8c-1.6-15.6-1.4-31.1,2.2-46.5c2-8.4,2.8-17,3-25.6
	c0.3-20.6,3.2-40.8,8.9-60.6c0.7-2.5,1.3-4.9,2-7.4c0.1-0.5,0.4-1,0.5-1.2c0.6,7.3,1.2,14.8,1.7,22.2c0.2,3.2,0.5,6.5,0.6,9.8
	c0.2,13.6,0.3,27.2,0.5,40.8c0.1,8.1,0,16.2,0.3,24.2c0.3,8.6-0.5,17.2-1.4,25.8c-0.8,7.2-1.5,14.5-2.1,21.8
	c-0.5,7.3-1,14.6-1.1,21.8c-0.1,5.9,0.5,11.8,0.8,17.7c0.1,2.6,0.2,5.1,0.4,7.7c0.1,1.3-0.3,2.5,0.5,3.8c0.5,0.9,0.1,2.5-0.2,3.6
	c-0.9,3.3-1.9,6.5-2.9,9.8C300.4,684.1,300.2,684.3,299.9,684.8z"/>
<path class="st0" d="M400.6,267.5c-10.2-14.7-18.2-30.6-26.3-47.1c0,0.9-0.1,1.3,0,1.6c0.7,1.9,1.4,3.8,2.2,5.6
	c5.6,12.2,11.8,24.2,19.3,35.3c2.1,3.1,4.4,6,6.6,9c0.6,0.9,1.3,1.7,2.1,2.7c-3.6,1.7-7.2,2-10.8,1.2c-3.1-0.7-6.2-1.5-9.1-2.8
	c-8.5-3.9-17-8-25.4-12.1c-1.4-0.7-2.6-1.7-3.9-2.6c-1.5-1-3-2-5.3-1.4c0.4-1.4,0.7-2.6,1.2-3.7c1.9-4.8,4-9.5,5.7-14.3
	c3.2-8.7,5.1-17.7,6.2-26.9c0.2-1.8,0.6-3.7,0.7-5.5c0.2-1.6,0.3-3.3,0.3-4.9c0-0.8-0.4-1.7-0.8-2.9c-0.4,0.7-0.6,0.9-0.6,1
	c0.8,4-0.3,7.9-1,11.7c-1.2,7.4-2.4,14.9-4.7,22.1c-0.5,1.6-1,3.3-1.7,5.4c-0.5-0.9-0.9-1.5-1.2-2.1c-3.8-6.6-7.5-13.2-11.3-19.8
	c-0.7-1.2-1.7-2.3-2.7-3.6c3.4,0.9,5.4,3.9,8.9,5.1c0-1.2,0.1-2.1,0-3c-0.3-1.8-0.7-3.5-1.1-5.2c-0.8-3.5-1.5-7-2.3-10.4
	c-0.8-3.6-1.6-7.3-2.4-10.9c-0.1-0.4-0.1-0.7-0.2-1.5c1.4,0.4,2.6,0.6,3.6,1.1c4.7,2.3,9.5,4.7,13.4,8.4c0.6,0.6,1.4,1.1,2.2,1.2
	c1.6,0.2,2.6,1.2,3.6,2.4c1.4,1.9,2.9,3.6,4.2,5.6c2.7,4.1,5.4,8.3,8,12.5c2.9,4.7,5.7,9.5,8.4,14.3c3.2,5.6,7.6,10.2,12.1,14.7
	c1.8,1.8,3.6,3.4,5.3,5.3c2.6,2.8,2.5,8,0,11C402.8,265,401.8,266.2,400.6,267.5z"/>
<path class="st0" d="M323.5,218.2c-0.4,0.3-0.7,0.7-1,0.9c-2.9,2-5.8,4.1-8.8,6c-0.9,0.6-1.2,1.2-1,2.3c0.9,3.8,1.8,7.7,2.7,11.6
	c0.3,1.2,0.5,2.4,0.8,3.7c-0.9,0.5-1.7,1-2.5,1.4c-1.9,0.9-2.9,2.3-3.2,4.4c-0.8,4.3-1.8,8.6-2.7,13c-0.1,0.4-0.3,0.7-0.6,1.4
	c-1.5-3.6-2.6-6.9-3.1-10.4c-0.2-1.8-0.4-3.5-0.4-5.3c0-1.3-0.5-2.1-1.7-2.8c-1.3-0.7-2.5-1.6-3.7-2.4c0.5-2.4,1.1-4.6,1.3-6.8
	c0.3-3.2,0.2-6.3,0.3-9.5c0-0.4-0.2-0.9-0.4-1.3c-5.3-10-8.4-20.8-10.8-31.8c-0.2-0.9-0.3-1.8-0.6-2.7c-1-2.9-0.5-5.8,0.1-8.7
	c0.1-0.5,0.4-1,0.7-1.4c0.3-0.4,0.6-0.7,0.9-1c4.9-4.6,6.7-10.5,7.1-16.9c0.1-2.3-0.1-4.7-1-6.8c-0.2-0.5-0.3-1-0.6-1.8
	c1.8,1.2,3.3,2.1,4.8,3c5.1,3.1,10.1,2.9,14.9-0.7c0.2-0.2,0.5-0.3,1-0.6c0,0.6,0,1,0,1.4c-0.2,6-0.4,11.9,1.1,17.8
	c0.6,2.4,1.6,4.5,3.4,6.3c1.7,1.7,2.4,3.6,2.5,6c0.2,6.8,0.1,13.7-1.1,20.4c-0.2,1.2-0.6,2.4-1.1,3.5c-0.7,1.8-0.7,3.5,0.6,5
	C322,216.2,322.7,217.1,323.5,218.2z"/>
<path class="st0" d="M322.1,324.1c-3.9,1.9-7.8,1.3-11.6,1.4c-4.8,0.1-9.6,0.6-14.4,0.8c-1.8,0.1-3.7-0.2-5.6-0.3
	c-1.9-0.1-3.9,0-6,0c-0.3-2.4-0.6-4.7-0.9-7.1c-0.2-1.5-0.2-3.1-0.5-4.6c-0.5-2.4,0.3-4.7,0.6-7c0.6-3.6,1.1-7.2,0.9-10.9
	c-0.2-3.8,1.2-7.5,2.3-11.1c3.3-10.8,6.4-21.6,8.9-32.5c0.7-3,1.3-6,2.1-9.3c1.5,1,2.8,1.9,4.3,2.8c0.2,2.3,0.3,4.7,0.6,7.1
	c0.6,4.7,2.2,9,4.2,13.3c5.1,10.8,9.1,22.1,11.6,33.8c1.2,5.8,1.8,11.6,2.6,17.5C321.5,320.1,321.8,322.1,322.1,324.1z"/>
<path class="st0" d="M279,100.9c0.2-2.9,0.5-5.9,0.7-8.8c0.2-2.9,1.1-5.6,2.8-8c1.9-2.5,3.6-5,5.5-7.5c1.9-2.5,4.5-4.2,7.6-5.1
	c6.2-1.8,12.4-2.5,18.8-0.5c4.3,1.4,7.6,4,9.8,8.1c0.8,1.4,1.6,2.8,2.5,4.2c4.2,0.3,7.8,3.9,8,8.2c0.3,5.7-0.4,11.3-1.1,16.9
	c-0.2,1.2-0.3,2.4-0.6,3.9c-2.1-2-2.9-4.4-4-6.6c-1.2-2.3-1.7-4.8-1.9-7.4c-0.2-2.5-0.2-5-0.4-7.6c-1.6,5.2-2.3,10.9-7.3,14.5
	c1.8-4.3,4.3-8.3,4.3-13.2c-0.3,0.1-0.5,0.1-0.5,0.2c-1.7,5.3-5.5,9.1-9.3,12.9c-5.8,5.8-12.3,10.7-19.6,14.4c-1.6,0.8-3.2,1.4-5,2
	c2.8-5.7,5.8-11.2,9.5-16.3c3.7-5.1,7.7-10,12.2-14.7c-0.7,0.5-1.6,0.8-2.2,1.4c-1.7,1.6-3.3,3.2-4.9,4.9
	c-6.3,6.7-11.1,14.4-15.5,22.3c-2.7,4.9-5.3,9.8-8,14.8c-0.2,0.4-0.5,0.8-1.1,1.2c0-0.9,0-1.7,0-2.6c0-0.9,0-1.9,0.1-2.8
	c0.3-2.4,0.6-4.8,0.9-7.2c0.2-1.7,0.8-3.2,1.6-4.8c2.1-4,2.7-8.3,2.2-12.9c-0.2,0.5-0.4,1-0.5,1.6c-0.5,2.5-1,5-1.5,7.5
	c-0.3,1.5-0.8,3-2.3,4.5c0.2-1.8,0.4-3.1,0.4-4.4c-0.3-5.7,1.1-11.2,1.8-16.9c0.6-4.4,2.5-8.3,5-11.9c0.2-0.3,0.4-0.6,0.4-1.3
	c-0.4,0.2-0.8,0.4-1.1,0.7c-3.3,3.5-5,7.8-6,12.4c-0.2,1-0.3,2-0.6,3C279.6,100.4,279.2,100.7,279,100.9
	C279,100.9,279,100.9,279,100.9z"/>
<path class="st0" d="M203.1,543.9c0.8-0.8,1.3-1.4,2-2.2c-3.7,0-5.7,2.8-8.5,4.2c-0.2-0.4-0.5-0.8-0.6-1.2c-1.2-4.2-3.3-8-5.7-11.6
	c-1.1-1.7-2.2-3.4-3.3-5.1c-1.1-1.6-1.5-3.4-1.1-5.3c0.9-4.4,1.7-8.8,2.8-13.2c1.9-7.7,3.9-15.3,5.8-23c0.2-0.9,0.1-2,1.2-2.3
	c1.3-0.3,2.7-1.2,4-0.3c2.2,1.5,4.6,1.6,7.1,1.5c1.4-0.1,2.9,0.4,4.3,0.6c1.1,0.2,2.1,0.5,3.3,0.7c1.8,3.9,2.8,8.1,3.8,12.3
	c1.7,7.2,2.9,14.4,3.3,21.8c0.1,2.1,0.4,4.2,0.5,6.3c0.2,3.8-0.6,7.6-1.4,11.3c-0.7,3.3-1.4,6.5-2.2,9.7c-0.1,0.5-0.4,1-0.5,1.3
	c-2.4-1.3-4.7-2.6-7.1-3.6C208.5,545.1,205.9,544.6,203.1,543.9z"/>
<path class="st0" d="M217,315.8c2.2-1.2,4.2-2.1,5.9-3.4c0.9-0.7,1.6-2.1,1.9-3.4c0.6-2.5,1-5,1.3-7.6c0.4-4.3,0.7-8.7,0.9-13
	c0.2-5.3-0.3-10.5-1.2-15.7c0-0.3,0-0.6,0-1.2c0.5,0.4,0.8,0.6,1.1,0.9c0.3,0.4,0.5,0.8,0.7,1.2c3.1,7.5,6.6,14.9,8.2,22.9
	c0.6,2.9,0.5,6,0.5,9c0,2.9-0.3,5.8,0,8.8c0.3,2.9-0.4,6-1.1,8.9c-1.9,7.4-4,14.7-6,22c-3,11.1-3.7,22.3-2.7,33.7
	c0.3,3.7,0.7,7.4,1,11.1c0.1,2,0.8,3.6,2.1,5c0.4,0.4,0.7,0.8,1.1,1.2c1.5,1.6,2.2,3.5,2.2,5.7c0,2.5,0.2,4.9,0.3,7.4
	c0.1,1.9,0,1.9-1.9,3.4c-0.2-0.7-0.5-1.2-0.4-1.7c0.6-6.1-2.3-10.2-7.2-13.3c0,0-0.1,0-0.4,0.1c0.2,0.4,0.4,0.9,0.7,1.3
	c2.3,2.9,2.3,4.5,0.4,7.7c-0.8,1.4-1.6,2.8-2.4,4.2c-0.1,0.1-0.2,0.2-0.4,0.4c-1.4-2.5-1.7-5.3-1.8-8.1c-0.2-5.4-0.2-10.9-0.5-16.3
	c-0.2-3.9-0.7-7.7-1.1-11.6c-0.3-3.5-0.8-6.9-0.8-10.4c-0.1-13-0.1-25.9-0.2-38.9c0-1.8-0.1-3.6-0.1-5.4
	C217,319.2,217,317.4,217,315.8z"/>
<path class="st0" d="M319.3,102.1c-1.5,2.4-2.9,4.9-4.5,7.4c1,0.4,1.8-0.2,2.7-0.6c3.6-1.8,6.1-4.8,7.7-8.4c0.2-0.4,0.3-0.8,0.7-1.2
	c0.3,2.9,1.3,5.5,2.1,8.2c0.5,1.5,0.4,3.2,0.4,4.8c0.1,3.9,0.4,7.9-0.6,11.8c-1.2,4.4-2,8.9-2.9,13.4c-0.7,3.6-2.2,6.8-4.5,9.6
	c-1.5,1.8-2.9,3.6-4.4,5.4c-4.3,5.1-10.5,5.7-14.8,2.8c-3.2-2.1-6.2-4.4-9.1-6.8c-2.3-1.9-3.9-4.4-4.9-7.3c-0.2-0.4-0.3-0.9-0.5-1.3
	c-2-2.7-1-4.9,1.1-6.9c1.1-1.1,2.2-2.2,3.5-3c5.1-3.3,9.2-7.7,12.6-12.6c1.6-2.3,3.3-4.4,5.4-6.3c3.3-3,6.6-6.1,9.8-9.2
	C319.2,102,319.3,102,319.3,102.1z M311.6,142.2c0-0.1,0-0.2,0-0.3c-1-1.8-3-2.1-4.7-2.7c-1.3-0.5-2.9-0.2-4.3-0.3
	c-0.1,0-0.3,0.1-0.4,0.2c-1.3,0.8-2.6,1.6-3.9,2.5c-0.2,0.1-0.4,0.6-0.4,0.8c0.1,0.3,0.5,0.5,0.8,0.7c0.2,0.1,0.4-0.1,0.7-0.1
	c3,0,6,0,9,0C309.5,143,310.7,143.2,311.6,142.2z M324.5,121.1c0-1.3-0.6-1.9-1.6-2.2c-0.6-0.2-1.2-0.2-1.8-0.3
	c-2.7-0.4-5.1,1-7.6,1.5c-1.1,0.2-1.5,1.3-1.3,2.9c1.3-1.9,2.8-1.9,4.7-1.1c1.3,0.6,2.5,0.2,3.4-1c0.2-0.3,0.4-0.6,0.8-1.2
	C322.2,120.1,323.3,120.6,324.5,121.1z M324.7,115.6c-0.4-2.1-1.9-2.1-3.3-2.2c-3.9-0.3-7.2,1.4-10.6,3c-1,0.5-1.6,1.6-1.9,3.1
	C313.7,115.5,318.6,113.5,324.7,115.6z M301.5,132.7c-0.2,1.8,0,2.3,1.3,2.4c1.5,0.1,3.1,0.2,4.6,0c2.2-0.2,2.6-1.6,1.2-3.4
	c-0.1-0.1-0.4,0-0.7-0.1c0,0.7,0,1.4,0,2.3C305.7,133.5,303.4,135.1,301.5,132.7z M302.4,145.8c2.2,0.9,3.4,0.7,5.2-0.5
	C305.8,145,304.2,144.8,302.4,145.8z"/>
<path class="st0" d="M217.6,484.9c0.1,1.1,0.1,2,0.2,2.9c0.2,1.5,0.9,2.1,2.4,1.8c2-0.3,3-1.4,3-3.4c0-0.9,0-1.9,0-2.9
	c1.9-0.9,3.8-1.7,5.7-2.7c1.8-1,3.6-2.1,5.4-3.3c1.7-1.1,3.3-2.3,4.9-3.6c1.7-1.3,3.2-2.7,4.9-3.9c1.6-1.2,2.6-3.1,4.7-4.5
	c0.1,1.2,0.1,1.8,0.2,2.6c1.2-0.3,2.3-0.5,3.6-0.8c1.6,1.9,3.2,3.8,3.8,6.4c1,4.3,1.8,8.6,2.7,12.7c-1.4,1.5-2.5,2.6-3.6,3.8
	c-1.8,2-3.7,4-5.6,6c-4.8,4.9-9.7,9.8-14.6,14.7c-3.4,3.4-7,6.6-11.2,9c-0.3,0.2-0.6,0.4-1.1,0.6c-0.1-0.8-0.3-1.4-0.3-2
	c-0.3-6.8-1.6-13.4-3.1-20c-0.9-3.8-2-7.5-3-11.2C216.1,486.2,215.7,485.2,217.6,484.9z"/>
<path class="st0" d="M371.5,268.6c3.3,1.5,6.3,2.9,9.4,4.2c3.3,1.4,6.6,2.7,10,3.8c4.1,1.3,8.4,1.5,12.6,0c0.4-0.1,0.8-0.1,1.1-0.2
	c1.4,0.9,0.9,2.1,0.4,3c-1.2,2.4-2.5,4.8-4,7.1c-3.3,5-7.7,9.1-12.1,13.2c-1.2,1.2-2.5,2.3-3.7,3.5c-4.1,3.8-8,7.6-10.2,13.4
	c-0.9-2.3-1.7-4.1-2.4-6c-0.2-0.6-0.4-1.2-0.6-1.7c-2.6-5.3-2.5-10.9-1.5-16.6c1.2-6.5,2-13,1.5-19.7
	C371.9,271.4,371.7,270.2,371.5,268.6z"/>
<path class="st0" d="M235.7,327.2c1.8,2.8,3.6,5.4,5.4,8.2c0.3,0.4,0.4,1.2,0.2,1.7c-0.8,2.5-1.7,5-2.6,7.4
	c-0.4,1.2-0.2,1.6,1.2,2.9c2.1,1.8,4.2,3.7,6.3,5.5c1.1,1,2.2,2.1,3.5,3.4c-3.3,6.3-7,12.7-9.4,19.7c-2.4,7-4.8,13.9-7.3,21
	c-1.1-1.3-2.2-2.4-3.1-3.7c-0.5-0.7-0.8-1.7-0.9-2.6c-0.6-6.7-1.3-13.4-1.6-20.2c-0.3-8,0.7-16,2.7-23.7c1.6-6.1,3.4-12.1,5.1-18.1
	C235.3,328.2,235.5,327.7,235.7,327.2z"/>
<path class="st0" d="M348,216.5c-4.1-2.5-7.3-5.7-11.7-6.9c-4.3-1.1-8.7-0.9-13.3-0.7c0.2-0.8,0.3-1.4,0.4-2
	c0.3-2.7,0.7-5.4,0.7-8.1c0.1-4.8,0-9.6,0-14.4c0-1.3-0.2-2.3-1.3-3.3c-4.3-3.7-5.4-8.9-5.7-14.3c-0.1-1.1,0-2.2,0-3.4
	c3.8,0.7,7,2,9.1,5.4c1.9,3.1,4.4,5.8,7.2,8.2c1.1,1,2.1,2.1,3.3,2.9c3,2.2,4.5,5.2,5.3,8.7c1.5,6.9,3,13.8,4.5,20.7
	C346.9,211.6,347.4,213.9,348,216.5z"/>
<path class="st0" d="M288.1,732.1c1.8,3.1,4.4,4.7,7.6,5.7c2.4,0.7,4.7,0.8,7.1-0.1c1.7-0.6,3.5-1.3,5.5-2.1
	c0.2,3.9,0.3,7.6,0.4,11.3c0.1,2.2,0.2,4.4-0.1,6.5c-0.1,1.3-0.7,2.7-1.4,3.9c-2.9,4.6-7,8-11.3,11.3c-0.5,0.4-1.2,0.7-1.9,1
	c-1,0.4-1.9,0.4-2.8-0.4c-2.2-2-4.4-3.9-6.5-6c-2.3-2.3-3.3-5.4-4.6-8.3c-0.3-0.8,0-2,0.3-2.9c2-5.1,4-10.3,6-15.4
	C287,735.2,287.4,733.8,288.1,732.1z"/>
<path class="st0" d="M285.4,206.8c-4.3-1.3-8.1-0.5-11.9,0.7c-3.8,1.2-6.3,4.4-10.2,6.5c0.3-2.9,0.4-5.2,0.8-7.4
	c1.6-9,3.5-18,6.5-26.6c0.2-0.4,0.3-0.9,0.5-1.3c0.7-2.4,2-4.1,4.7-4.5c2.3-0.3,4.1-1.8,5.7-3.4c1.3-1.2,2.4-2.7,3.7-3.8
	c1.7-1.4,3.4-2.6,5.3-3.7c1.3-0.8,2.8-0.8,4.2-0.4c0.2,5-1.6,9.4-5.6,14c-0.3-2,0.4-3.8,0.8-5.5c0.3-1.7,0.8-3.4,1.2-5
	c-0.2-0.1-0.4-0.2-0.6-0.2c-0.4,0.8-1,1.6-1.3,2.5c-2.9,10.2-4.6,20.6-4.2,31.2c0.1,1.5,0.3,2.9,0.4,4.4
	C285.4,205,285.4,205.8,285.4,206.8z"/>
<path class="st0" d="M328.6,324c-1.7,0.2-3,0.4-4.6,0.5c-0.3-1-0.7-2-0.9-3.1c-0.9-5.9-1.5-11.9-2.6-17.7
	c-0.9-5.1-2.3-10.1-3.6-15.1c-2-7.3-4.6-14.3-7.8-21.1c-0.5-1-0.6-1.9-0.3-3.1c1.2-5,2.4-10.1,3.2-15.2c0.4-2.7,2.2-3.7,4.4-4.8
	c0.9,3.7,1.8,7.2,2.6,10.7c1.4,6.2,3,12.4,4.2,18.6c0.8,4,1.1,8.1,1.8,12.2c0.5,3,1.3,5.9,1.9,8.8c0.1,0.6,0.3,1.2,0.4,1.8
	c0.2,3.5,0.3,7,0.5,10.5c0.3,4.7,0.5,9.4,0.8,14.2C328.6,321.9,328.6,322.9,328.6,324z"/>
<path class="st0" d="M259.8,491.4c0.5,2.6,0.9,4.8,1.3,7c0.3,1.6,0.5,3.2,0.9,4.8c0.3,1.2,0.1,2.3-0.8,3.2c-2.3,2.5-4.6,5-6.9,7.5
	c-9.6,10.3-20.3,19.6-30.9,29c-0.9,0.8-1.7,1.5-2.8,2.5c1.1-7.4,3.6-14.3,2.4-21.7c1.4-0.6,2.8-1.1,4-1.9c2.7-1.7,5.5-3.5,8-5.5
	c8.4-6.8,15.7-14.8,22.8-22.8C258.4,492.9,258.9,492.4,259.8,491.4z"/>
<path class="st0" d="M228,271.2c5.1-1,9.4-3.7,13.8-6.3c3-1.7,6.1-3.4,9.3-4.8c1.4-0.6,3.2-0.8,4.7-0.7c3,0.1,4.7,2.8,3.5,5.6
	c-0.7,1.7-1.7,3.3-2.7,4.8c-2.4,3.6-5,7.1-7.4,10.7c-1.9,2.9-3.6,6-5.3,9c-2.4,4.4-4,9.1-5.3,13.9c-0.2,0.7-0.4,1.5-1,2.2
	c0-0.9,0-1.7,0-2.6c0-3-0.4-6-1.3-8.9c-1.6-5.4-3.1-10.9-5.6-16C229.7,275.9,229,273.5,228,271.2z"/>
<path class="st0" d="M224.5,271.5c1.5,11.7,0.6,23.3-1.2,35c-0.2-0.4-0.4-0.7-0.6-1.1c-2.8-5.8-6.8-10.8-11.7-14.9
	c-3.1-2.6-6.4-5-9.5-7.5c-3-2.4-4.6-5.4-4.4-9.3c0.1-2.5,1.4-3.6,3.8-3c4.6,1.1,9.2,1.3,13.9,1.1c2.6-0.1,5.3-0.3,7.9-0.4
	C223.2,271.3,223.8,271.4,224.5,271.5z"/>
<path class="st0" d="M278.4,678c5.5,1.1,11,1.9,16.6-0.1c1.6,2.2,2.9,4.5,3.1,7.6c-1.4,0.8-2.1,1.9-1.5,3.6c0.1,0.3-0.2,0.9-0.3,1.3
	c-0.1,0.6-0.5,1.2-0.4,1.8c0.5,2.6-0.3,4.9-1,7.3c-0.3,1.3-0.5,2.7-0.7,4.1c-0.2,1.6-0.7,2.1-2.4,2.1c-0.3,0-0.6-0.1-0.9,0
	c-4.6,0.9-7.6-1.9-10.5-4.7c-0.8-0.8-0.8-0.8-0.7-2.7c4.5-1.1,9.3-0.3,14.1-1.4c-1.6-1.2-1.6-1.2-6.8-1c-2.2,0.1-4.5,0.3-6.8,0.5
	c-0.8-0.8-0.9-1.7-0.7-2.9c0.4-1.9,0.4-3.8,0.5-5.8c0-0.4-0.1-0.8-0.2-1.1c-0.2-1-0.4-2.1-0.6-3.1c0-0.2,0-0.3,0-0.5
	C278.1,681.6,278.6,679.7,278.4,678z"/>
<path class="st0" d="M368.2,296.4c-0.9-2.2-1.7-4.5-2.6-6.7c-2.5-6.2-6.1-11.7-11.2-16.1c-2.7-2.3-4.3-5.5-5.8-8.7
	c-1-2.2-0.7-4.4,1-6.2c1.1-1.2,2-1.4,3.2-0.5c4.6,3.7,9.9,6.1,15.2,8.6c1.4,0.6,2.1,1.5,2.1,3c0.1,3,0.4,6.1,0.2,9.1
	c-0.3,4.6-0.9,9.1-1.4,13.7c-0.1,1.3-0.3,2.6-0.5,3.9C368.5,296.4,368.3,296.4,368.2,296.4z"/>
<path class="st0" d="M308,733.9c-2.3,0.8-4.5,2-6.9,2.4c-4.1,0.8-7.8-0.3-10.9-3.3c-0.2-0.2-0.5-0.4-0.6-0.7c-0.3-2.3-1.2-4.5-0.3-7
	c1-2.5,1.5-5.2,2.1-7.8c0.4-1.8,0.8-3.6,1.2-5.5c4.5,3.9,10,4.3,15.9,3.8c0.8,2.4,0.9,4.9,0.7,7.3c-0.1,1.8-0.7,3.6-1,5.5
	C308.1,730.3,308.1,732,308,733.9z"/>
<path class="st0" d="M233.1,462c1.2-12.7-0.1-25.5-0.3-38.6c0.8,0,1.5,0.1,2.5,0.1c2,6.9,3.8,13.8,6,20.6c2.1,6.7,4.6,13.3,6.9,20.1
	C243.2,463.5,238.4,462.8,233.1,462z"/>
<path class="st0" d="M251.9,350.4c-0.4-3.3-2.1-5.9-4-8.5c-2.9-4-5.8-8.1-8.7-12.1c-1.8-2.6-2.2-5.4-1.3-8.4
	c0.6-1.9,2.8-2.9,5.2-2.1c2.8,0.9,5.1,2.6,7.1,4.7c2.1,2.3,4.2,4.6,6.2,6.9c0.3,0.3,0.5,1,0.4,1.4c-0.9,4.6-1.7,9.1-2.7,13.6
	c-0.3,1.5-1.1,3-1.7,4.5C252.3,350.5,252.1,350.5,251.9,350.4z"/>
<path class="st0" d="M317.3,669.9c-1.7,7.9-3.3,15.5-5,23.2c-4.6-0.4-8.5-2-12.5-3.9c2.7-6.2,4.7-12.4,4.8-19.1
	C308.8,667.2,313,667.4,317.3,669.9z"/>
<path class="st0" d="M276.2,644.4c3.8-0.8,7.3-0.7,10.4,0.7c0.8,4.1,1.6,8.1,2.4,12c0.1,0.7,0.4,1.3,0.8,1.9c1,1.5,0.7,2.9-0.9,3.4
	c-1.2,0.4-2.4,0.6-3.6,0.6c-2.2,0.1-4.5,0-6.7-0.1c-1.5-0.1-2.2-1-2.6-3.3c0-0.3,0-0.6,0-0.9c0.6-4.4,0.8-8.8,0.1-13.2
	C276.1,645.2,276.2,644.9,276.2,644.4z"/>
<path class="st0" d="M314.3,694.2c0.1,0.7,0.3,1.1,0.3,1.5c-0.7,3.3-1.5,6.5-2.2,9.7c-0.3,1.2-1,1.7-2.3,1.8
	c-4.2,0.2-8.1-0.3-11.4-3c-0.5-0.4-1.1-0.9-1.6-1.4c-1-0.9-1.3-2-0.8-3.4c0.3-0.8,0.6-1.6,0.7-2.5c0.2-1.3,0.2-2.6,0.2-3.9
	c0-0.9,0.1-1.8,0.1-3c0.7,0.6,0.9,1,1.3,1.1c3.5,1.1,6.9,2.2,10.4,3.2C310.6,694.9,312.3,695,314.3,694.2z"/>
<path class="st0" d="M367.5,351.4c0,14.6,0,29,0,43.3c-0.2,0-0.3,0-0.5,0.1c-0.8-3.6-1.6-7.2-2.4-10.7c-0.4-1.6-1-3.2-1.5-4.8
	c-0.5-1.5-0.9-3-1.3-4.4c-1-3.6-1.8-7.2-3-10.7c-0.9-2.7-0.2-5.2,1.1-7.3C361.7,354.2,364.5,352.6,367.5,351.4z"/>
<path class="st0" d="M278.9,701.7c1.9,1.5,3.5,2.7,5.1,4c1.3,1.1,2.6,1.5,4.3,1.4c1.3-0.1,2.6,0,4.1,0c-1.4,2-1.3,4.1-1.5,6.3
	c-0.2,2.6-1,5.1-1.7,7.7c-0.4,1.6-1.1,3.2-1.7,4.8c-0.3,0-0.5,0-0.5,0c-4-3.9-8.1-7.8-8.9-13.7c-0.1-0.8-0.3-1.7-0.3-2.5
	c0-0.7,0.1-1.4,0.2-2.1C278.3,705.7,278.6,703.9,278.9,701.7z"/>
<path class="st0" d="M226.9,405.8c0.1,0.8,0.3,1.3,0.1,1.5c-4.7,6.5-6.8,13.9-8.4,21.6c-1.7,8.1-3.5,16.2-5.6,24.2
	c-1.3,5-3.2,9.9-4.8,14.8c-0.5,1.6-1.1,3.2-1.4,4.9c-0.4,1.6-1.3,2.5-3,3c-0.2-2.2,0.2-4.3,0.7-6.2c3.5-12.5,7.1-24.9,10.6-37.3
	c2.5-9,6.4-17.4,11-25.6C226.2,406.6,226.5,406.4,226.9,405.8z"/>
<path class="st0" d="M355.1,343c-1.8-3.5-2.2-7.2-2.9-10.8c1.8-0.7,3.6-1.4,5.4-2.1c3.7-1.5,7.3-3,11-4.4c3.1-1.2,5.9-0.4,9,1.4
	c-1.2,0.7-2.2,1.1-3.1,1.6c-1.3,0.7-2.7,1.2-3.9,2.1c-3.2,2.3-6.3,4.6-9.3,7c-1.5,1.2-2.9,2.6-4.3,3.9
	C356.4,342.1,355.8,342.5,355.1,343z"/>
<path class="st0" d="M241,427.5c2.4,2.2,4.6,4.5,5.3,7.7c0.4,1.8,1.3,3.4,2.1,5.1c0.9,1.8,1.1,3.9,1.7,5.8c2,6,3.8,12.1,6.1,18.1
	c2.9,7.7,5,15.5,5.9,23.6c0.5,4.5,1.2,8.9,1.7,13.4c0.1,0.7,0,1.4,0,2.6c-0.8-4-1.5-7.4-2.1-10.9c-1.2-6.3-2.5-12.6-3.7-18.9
	c-0.6-3.2-2.5-5.6-4.7-7.9c-0.4-0.4-0.9-1-0.9-1.5c-0.2-4-1.8-7.5-3.1-11.2c-1.5-4.3-3-8.6-4.4-13
	C243.5,436.1,242.3,431.8,241,427.5z"/>
<path class="st0" d="M221.3,482.9c0.2,1.1,0.5,2.1,0.6,3.1c0.1,1.9-0.1,2-2.2,2.2c-1.9-4.4-1.6-9-1.3-13.6c0.4-6.5,1.1-13,1.6-19.5
	c0.3-3.4,0.4-6.8,0.7-10.2c0.6-6.4,1.3-12.8,2-19.2c0.2-2.4,0.6-4.8,0.7-7.2c0.1-2.3,1.3-4.2,2.2-6.2c0.2,0,0.4,0.1,0.5,0.1
	c-0.1,1-0.1,2.1-0.2,3.1c-0.5,3.6-1.2,7.2-1.6,10.8c-0.7,6.4-1.3,12.8-2,19.2c-0.6,5.1-0.8,10.2-0.6,15.3c0.2,6.2,0.3,12.5,0.4,18.7
	C222,480.7,221.5,481.8,221.3,482.9z"/>
<path class="st0" d="M223.4,480.9c0-2.8,0-5.5,0-8.3c4.1-2.7,8-5.4,12-8c0.5-0.3,1.1-0.5,1.7-0.4c2.9,0.4,5.8,0.8,8.8,1.3
	C244.7,468.7,229.1,479.4,223.4,480.9z"/>
<path class="st0" d="M221.1,424c-2.1,14.6-2,29.3-3.7,43.9c-3,1.7-6,3.5-9.4,5.5c0.8-2.6,1.3-4.8,2.1-7c4.8-12.3,7.1-25.3,10-38.2
	C220.4,426.8,220.8,425.4,221.1,424z"/>
<path class="st0" d="M226.3,423.8c2,13.1,1.8,26.1,1.1,39.2c-1.2,0.7-2.5,1.4-4,2.3c-1.6-13.6,1.4-26.7,2.4-40
	C225.8,424.8,226.1,424.3,226.3,423.8z"/>
<path class="st0" d="M276.1,664c7.1,0.7,10,0.5,14.8-0.6c0.6,2,1.4,4,1.9,6.1c0.4,1.6-0.1,2.3-1.7,2.8c-1.3,0.4-2.6,0.7-3.8,0.8
	c-2.7,0.3-5.4,0.5-8.3,0.8c-0.2-1.7-0.2-3.4-0.6-5.1C277.9,667.2,276.9,665.7,276.1,664z"/>
<path class="st0" d="M231.5,461.3c-0.9,0.3-1.6,0.5-2.7,0.9c0.2-13,0.8-25.7-1-38.6c1.4-0.2,2.6-0.3,3.9-0.5
	C231.6,435.9,232.1,448.6,231.5,461.3z"/>
<path class="st0" d="M280.2,144.6c-0.9-3.8,0.1-7.1,1.8-10.2c1.6-3,3.2-6,4.9-9c0.3-0.6,1-1.3,1.6-1.5c4.7-1.5,8.9-4,13-6.7
	c0.2-0.2,0.5-0.3,1.3-0.6c-0.5,0.9-0.8,1.4-1.1,1.9c-2.9,3.8-6.3,7-10.3,9.7c-4,2.7-6.9,6.4-8.6,11
	C282.1,141,281.1,142.8,280.2,144.6z"/>
<path class="st0" d="M367.2,335c1.8,3.3,4.5,5.8,5.3,9.6c-1.4,0.2-2.6,0.3-3.8,0.6c-2.4,0.5-4.8,1-7.2,1.6c-0.6,0.1-1.2,0.3-1.8,0.4
	c-1.1,0.3-2.3,0.5-3.2-0.7c-0.6-0.9-0.4-1.9,0.8-3.3C360.1,340,363.5,337.6,367.2,335z"/>
<path class="st0" d="M296.1,703.2c3,4.3,7.6,5.4,12.8,5.7c-0.1,1.7-0.2,3.3-0.3,5.2c-4.7,0.2-9.3,0.7-13.5-1.9
	c-2.9-1.8-2.7-2.6-1.1-5C294.8,705.9,295.3,704.6,296.1,703.2z"/>
<path class="st0" d="M321.1,330.7c1-0.2,1.9-0.5,3.2-0.8c0.4,2.4,0.7,4.5,1,6.6c1,6.6,1.5,13.2,1.4,19.9c0,4.6,0.5,9.3,0.8,13.9
	c0.3,4.6,0.5,9.3,0.7,13.9c0,0.7,0,1.4-0.2,2.1c-0.1,0.3-0.7,0.8-1,0.7c-0.4-0.1-1-0.5-1.1-0.9c-0.2-0.6-0.1-1.2,0-1.8
	c0.7-7.8,0.6-15.6,0-23.5c-0.3-4-0.2-8.1-0.9-12.1c-0.9-5.6-2.4-11.2-3.7-16.8C321.4,331.6,321.3,331.3,321.1,330.7z"/>
<path class="st0" d="M198.1,482c6.4-4.2,12.6-8.2,19.1-12.5c0.2,1.8,0,3.2,0,4.2c-3.4,2.9-6.7,5.5-9.6,8.4c-2.3,2.3-3.4,1.9-6,1.2
	C200.5,483,199.5,482.5,198.1,482z"/>
<path class="st0" d="M315.7,326.9c-1.1,1.8-2.2,2.5-4.2,2.4c-3.1-0.1-6.2,0.3-9.3,0.5c-4.7,0.3-9.4,0.6-14.1,0.9
	c-1.1,0.1-2.1,0.1-3.4,0.2c0-1.1,0-2,0-3.2c1.1-0.6,2.5-1,3.9-0.6c5.2,1.2,10.3,0.4,15.5,0C307.8,326.8,311.7,326.7,315.7,326.9z"/>
<path class="st0" d="M355,347.1c2,2.1,4.2,1.5,6.3,1c3.1-0.7,6.2-1.3,9.3-1.9c0.4-0.1,0.8,0,1.3,0c-0.5,1.6-1.8,2.3-3.1,3
	c-2,1.1-4.1,2.2-6.1,3.4c-2.5,1.4-4.6,3.1-5.3,6.2C355.8,356.1,354.6,350.8,355,347.1z"/>
<path class="st0" d="M286.8,191.9c2.7,9.7,4.8,19.6,9.4,28.6c-0.1,0.1-0.3,0.2-0.4,0.3c-1.7-1.2-3.5-2.4-5.1-3.7
	c-0.4-0.3-0.5-1.1-0.5-1.6c0-0.7,0.2-1.4,0.2-2.1c0.1-2.1-0.4-3.9-2.5-4.8c-0.7-0.3-1-0.8-1-1.6c-0.1-4-0.3-8-0.4-12.1
	C286.3,194,286.6,192.9,286.8,191.9z"/>
<path class="st0" d="M236.3,423.5c1.6-0.4,1.6,0.6,1.9,1.2c1.8,3.6,2.6,7.4,3.7,11.2c1.6,5.4,3.6,10.7,5.3,16.1
	c1.1,3.3,2.3,6.6,3.3,9.9c0.4,1.2,0.3,2.5,0.2,3.8C244.4,452.3,241.2,437.7,236.3,423.5z"/>
<path class="st0" d="M240.3,345.1c0.8-2.3,1.6-4.5,2.5-7c0.5,0.5,0.9,0.8,1.2,1.2c1.4,1.9,2.8,3.9,4.2,5.8c1.3,1.8,1.9,3.9,2.1,6.1
	c0.1,0.8-0.2,1.6-0.3,3C246.5,351,243.4,348.1,240.3,345.1z"/>
<path class="st0" d="M259.4,488.3c-0.2,0.6-0.2,1.5-0.6,1.9c-7.3,8.5-14.9,16.6-23.3,24.1c-2.4,2.2-5.1,4-7.8,5.8
	c-1.4,0.9-3,1.4-4.9,2.3c0.3-0.7,0.4-0.9,0.5-1c4.9-2.7,9.3-6.1,13.3-10.1c5.4-5.5,10.9-10.9,16.2-16.3c2.1-2.2,4-4.5,6-6.8
	C259,488.2,259.2,488.2,259.4,488.3z"/>
<path class="st0" d="M217,313.3c0-4.8,0-9.4,0-14.5c2.3,3,4.5,5.5,5,9C222.4,310.5,220.2,313,217,313.3z"/>
<path class="st0" d="M294.4,672.8c0.1,0.5,0.5,1.3,0.4,1.9c-0.2,0.9-0.5,2-1.7,2.3c-0.4,0.1-0.7,0.3-1.1,0.4
	c-4.4,0.8-8.7,0.4-13.2-0.4c0-1.5,0.9-1.8,2-1.9c2.8-0.3,5.5-0.5,8.3-1C290.7,673.9,292.3,673.3,294.4,672.8z"/>
<path class="st0" d="M207.7,483.3c3-2.3,5.9-4.7,9.2-7.3c0,2.7,0,4.8,0,7.1c-0.6,0.3-1.2,0.3-1.6,0.7c-1.4,1.4-2.8,1.2-4.4,0.5
	c-0.9-0.4-1.9-0.4-2.9-0.6C207.9,483.6,207.8,483.4,207.7,483.3z"/>
<path class="st0" d="M328.5,135.1c-0.4,3.4-0.7,6.6-1.1,10c-0.3-0.2-0.7-0.5-1.3-1c-2.2,3.2-3.4,7.3-7.3,9.2
	c-0.5-1.1-0.1-1.9,0.5-2.7c0.7-1,1.5-2,2.3-2.9c1.7-2.1,3.1-4.5,3.8-7.1C325.9,138.6,327,136.9,328.5,135.1z"/>
<path class="st0" d="M326.9,135c-0.1-1.8,0.5-3,1.2-4.2c0.9-1.3,1.5-2.8,2.2-4.3c0.2-0.4,0.1-0.8-0.2-1.4c-0.5,0.8-1,1.6-1.4,2.5
	c-0.1,0-0.2-0.1-0.3-0.1c0.5-2.2,1-4.3,1.6-6.5c0.9-0.3,1.7-0.5,2.8-0.8C332.8,125.8,330.9,130.6,326.9,135z"/>
<path class="st0" d="M231.1,462.7c0.7,0.6,1.3,1,2.1,1.6c-3.2,2.3-6.3,4.5-9.5,6.8c-0.5-1.3-0.1-2.6-0.3-3.9
	C225.8,465.7,228.4,464.2,231.1,462.7z"/>
<path class="st0" d="M237.7,421.7c-1.5,0.4-2.7,0.7-4.2,0.4c-1.4-0.4-3.1,0-4.6,0.1c-0.8,0-1.6,0.2-2.7,0.3c0.3-1.2,0.5-2.2,0.7-3.1
	c2.7,0.1,5.3,0.2,7.9,0.5C235.9,419.9,237.1,420.2,237.7,421.7z"/>
<path class="st0" d="M227.6,417.8c0-2.9,0-5.4,0-8c0-1,0-1,1.7-2.8c0.2,2,0.2,3.8,0.5,5.6c0.3,1.8,0.9,3.6,1.4,5.7
	C229.7,418.1,228.6,417.9,227.6,417.8z"/>
<path class="st0" d="M323.5,328.1c-2.1,1-3.9,1.9-5.8,2.8c-0.3,0.2-0.7,0.5-1,0.5c-0.5,0-1.2-0.2-1.4-0.5c-0.2-0.3-0.2-1.2,0.1-1.5
	c1.7-1.7,3.6-3.1,6.1-3.4C322.9,325.9,323.4,326.5,323.5,328.1z"/>
<path class="st0" d="M324.5,217.2c-1-1.4-1.7-2.3-2.3-3.4c-1.1-1.8-0.5-3.2,1.6-3.4c0.8-0.1,1.6-0.1,2.3-0.1c0.4,0,0.7,0.1,1.4,0.2
	C326.5,212.8,325.6,214.8,324.5,217.2z"/>
<path class="st0" d="M284.5,208.5c4.2,2,4.6,2.7,3.9,6.5C285.6,214.2,284.1,211.6,284.5,208.5z"/>
<path class="st0" d="M234.2,413.2c0.7,2,1.4,3.7,2,5.4c-3.5,0.2-3.5,0.2-4.9-3.9C232.3,414.2,233.2,413.7,234.2,413.2z"/>
<path class="st0" d="M328.8,328.3c-1.3,0-2.4,0-3.7,0c-0.1-0.7-0.1-1.5-0.2-2.5c1.2-0.2,2.3-0.4,3.7-0.6
	C328.7,326.3,328.8,327.2,328.8,328.3z"/>
<path class="st0" d="M332.6,115.1c-0.8,1.2-1.5,2.2-2.5,3.5c-0.2-2.6-0.3-4.7-0.4-7.1C331.1,112.5,331.5,114,332.6,115.1z"/>
<path class="st0" d="M279.1,105.9c-0.3,1.2-0.6,2.4-0.9,3.6c-0.1,0-0.2,0-0.3-0.1c0.2-1,0.3-2.1,0.5-3.1
	C278.5,106.2,278.9,106.1,279.1,105.9L279.1,105.9z"/>
<path class="st0" d="M227.9,405.6c-0.3-0.8-0.6-1.6-1-2.4c0.2-0.1,0.3-0.1,0.5-0.2c0.4,0.8,0.7,1.5,1.1,2.3
	C228.4,405.4,228.2,405.5,227.9,405.6z"/>
<path class="st0" d="M279.1,105.9c0-1.7-0.1-3.3-0.1-5c0,0,0,0,0,0C279.1,102.6,279.1,104.2,279.1,105.9
	C279.1,105.9,279.1,105.9,279.1,105.9z"/>
<path d="M278.8,603.7c-0.1-0.3-0.3-0.5-0.3-0.8c-0.5-6.2-1.3-12.4-1.5-18.5c-0.2-6.3,0-12.6,0.3-18.8c0.2-5.1,0.7-10.2,1.1-15.3
	c0.5-8.7,1.2-17.3,1.5-26c0.4-10.2,0.4-20.3,0.5-30.5c0-4.8-0.1-9.6-0.3-14.4c-0.3-6.8-0.7-13.6-1-20.5c-0.2-3.5-0.2-7-0.3-10.5
	c-0.3-10.4-0.6-20.8-1-31.2c-0.5-11-1.2-22-1.8-33c-0.2-4.2-0.6-8.4-0.8-12.5c-0.1-2.5-0.1-4.9,0.7-7.7c0.4,5.8,0.8,11.2,1.1,16.6
	c0.5,8.1,0.9,16.1,1.4,24.2c1.1,18,1.7,36,2,54c0.1,6.7,0.7,13.5,1.1,20.2c0.1,2.6,0.2,5.3,0.2,7.9c0,9.7,0.1,19.4-0.2,29.1
	c-0.3,8.6-1,17.2-1.6,25.8c-0.5,7.3-1.2,14.7-1.6,22c-0.3,6.2-0.3,12.4-0.3,18.6c0,2.3,0.4,4.6,0.8,6.9c0.8,4.8,0.4,9.6,0.5,14.4
	C279.1,603.7,279,603.7,278.8,603.7z"/>
<path d="M325.9,436.4c1.1-0.4,2.1-0.8,3.2-1.2c1-0.4,2-0.7,3.2-0.8c-0.1,0.2-0.3,0.4-0.5,0.5c-2.8,1.6-5.7,3.2-8.5,4.7
	c-0.4,0.2-0.8,0.5-1.2,0.6c-0.4,0.1-1,0-1.2-0.3c-0.2-0.3-0.2-0.9,0-1.2c0.3-0.6,0.8-1.1,1.3-1.6c7.3-7.5,15.5-14.1,24-20.2
	c2-1.5,4-3,5.9-4.5c0.6-0.5,1.2-0.9,2.1-1.6c0,1.1-0.5,1.6-1.1,2.1c-4.5,3.5-9.1,7-13.5,10.6c-3.8,3.1-7.4,6.4-11.1,9.6
	c-1,0.9-2,2-2.9,3C325.6,436.2,325.7,436.3,325.9,436.4z"/>
<path d="M311.6,142.2c-0.9,0.9-2.1,0.7-3.2,0.8c-3,0-6,0-9,0c-0.2,0-0.5,0.1-0.7,0.1c-0.3-0.1-0.7-0.4-0.8-0.7
	c-0.1-0.2,0.2-0.6,0.4-0.8c1.3-0.9,2.6-1.7,3.9-2.5c0.1-0.1,0.3-0.2,0.4-0.2c1.4,0.1,3-0.2,4.3,0.3c1.7,0.6,3.7,0.9,4.7,2.7
	C311.6,142,311.6,142.1,311.6,142.2z M301.6,140.9c1.5,0.8,2.6,1,3.8,0.6c1-0.3,2.1,0,3.1,0.1c-1.4-2.4-3.8-0.9-5.6-1.5
	C302.6,140,302,140.6,301.6,140.9z"/>
<path d="M324.5,121.1c-1.2-0.5-2.3-0.9-3.5-1.4c-0.4,0.6-0.5,0.9-0.8,1.2c-0.9,1.2-2.1,1.6-3.4,1c-1.8-0.9-3.4-0.8-4.7,1.1
	c-0.1-1.6,0.2-2.6,1.3-2.9c2.5-0.5,4.9-1.9,7.6-1.5c0.6,0.1,1.2,0.2,1.8,0.3C323.9,119.2,324.6,119.8,324.5,121.1z M316.2,120.6
	c1.1,0.5,1.8,0.9,2.1-0.5C317.7,120.2,317.2,120.3,316.2,120.6z"/>
<path d="M324.7,115.6c-6.1-2.1-11-0.2-15.8,3.9c0.3-1.5,0.9-2.6,1.9-3.1c3.4-1.6,6.7-3.3,10.6-3
	C322.9,113.5,324.3,113.6,324.7,115.6z"/>
<path d="M301.5,132.7c1.9,2.3,4.2,0.7,6.4,1.3c0-0.9,0-1.6,0-2.3c0.3,0,0.6,0,0.7,0.1c1.4,1.7,1,3.1-1.2,3.4c-1.5,0.2-3.1,0.1-4.6,0
	C301.5,135.1,301.3,134.6,301.5,132.7z"/>
<path d="M302.4,145.8c1.8-1.1,3.4-0.8,5.2-0.5C305.8,146.6,304.6,146.7,302.4,145.8z"/>
<path class="st0" d="M301.6,140.9c0.4-0.3,1-0.9,1.3-0.8c1.8,0.7,4.2-0.8,5.6,1.5c-1.1-0.1-2.2-0.4-3.1-0.1
	C304.2,141.8,303.1,141.7,301.6,140.9z"/>
<path class="st0" d="M316.2,120.6c1-0.2,1.5-0.3,2.1-0.5C318,121.5,317.4,121,316.2,120.6z"/>
</svg>
