<?xml version="1.0" encoding="utf-8"?>
<!-- Generator: Adobe Illustrator 19.0.0, SVG Export Plug-In . SVG Version: 6.00 Build 0)  -->
<svg version="1.1" id="图层_1" xmlns="http://www.w3.org/2000/svg" xmlns:xlink="http://www.w3.org/1999/xlink" x="0px" y="0px"
	 viewBox="0 0 595.3 841.9" style="enable-background:new 0 0 595.3 841.9;" xml:space="preserve">
<style type="text/css">
	.st0{fill:#FFFFFF;}
</style>
<path class="st0" d="M1.3,37.4c197.8,0,395.6,0,593.5,0c0,256,0,512,0,768c-197.8,0-395.6,0-593.5,0C1.3,549.4,1.3,293.4,1.3,37.4z
	 M203.9,408.4c0.6-0.4,1.1-0.6,1.4-0.9c0.9-1.2,0.9-2.6,0.9-4c0-1.1-0.7-1.6-1.5-2.2c-1.2-0.9-1.1-1.8,0.2-2.7
	c0.4-0.3,0.8-0.5,1.2-0.7c1.7-0.8,2.3-2.2,2.4-4c0.1-1.8,0.1-3.6,0.1-5.4c0-5.9,1-11.7,2.8-17.4c0.4-1.3,1-2.5,1.4-3.8
	c0.2,0,0.3,0.1,0.5,0.1c-0.1,1.2-0.3,2.4-0.4,3.6c-1.4,10.8-2.8,21.7-4,32.5c-0.9,7.7-1.5,15.4-1.3,23.2c0.2,7.8,0.5,15.5,0.6,23.3
	c0,4.3-0.1,8.6-0.7,12.8c-1.4,10.4-3.2,20.7-4.6,31c-1.1,7.9-1.8,15.9-2.5,23.8c-0.5,6.2-0.5,12.4-1,18.6
	c-0.7,9.2-2.3,18.3-4.5,27.3c-1.1,4.7-2.3,9.5-5.1,13.7c-0.7,1.1-1.2,2.3-1.7,3.5c-0.1,0.3-0.1,0.8,0.1,1c0.2,0.2,0.7,0.2,1,0.1
	c0.6-0.3,1.2-0.8,1.7-1.2c9-7.6,17.6-15.6,25.9-24.1c0.3-0.3,0.6-0.7,0.9-1.1c2.5-3.4,5.2-6.8,5.1-11.4c0-0.6,0.3-1.1,0.5-1.7
	c0.8,0.1,1.5,0,2,0.2c2.3,0.7,4.4,0,6.5-1c1.1-0.5,2.2-1.2,3.3-1.7c1.4-0.6,2.7-1.1,4.2-1.4c1.3-0.3,2.6-0.4,3.6,0.6
	c-0.4,3.6-1,7-1.2,10.5c-0.3,5-0.5,10.1-0.5,15.1c-0.1,6.6,0.2,13.2,1.9,19.6c2.3,8.5,4.8,16.8,7.3,25.2c3.1,10.3,6.7,20.5,9.4,30.9
	c2.5,9.7,4.2,19.7,6.1,29.6c1.6,7.8,3,15.7,3.3,23.7c0.1,3.2,0.2,6.5-0.2,9.7c-0.2,1.9-0.4,3.8-0.1,5.8c0.1,0.5,0.1,1.1,0.2,1.6
	c-0.5,0.4-1.1,0.7-1.5,1.2c-1.5,1.8-3,3.5-4.4,5.4c-0.5,0.7-0.6,1.6,0.2,2.3c0.8,0.7,1.8,1,2.8,0.4c0.5-0.3,0.8-0.7,1.2-1.1
	c0.8-0.7,1.5-1.4,2.6-2.5c0.3,4.5,0.4,8.5-0.2,12.4c-0.9,6.1-1.8,12.1-1.7,18.3c0,2.2-0.1,4.5,0,6.7c0,0.7,0.5,1.4,1,1.9
	c1.3,1.1,2.6,2.1,4,3.1c1.4,1,2.9,2.1,4.4,2.9c1.8,0.9,3.7,1.5,5.6,2.2c4.7,1.8,9.6,1.7,14.5,1.3c2.4-0.2,4-1.5,5.2-3.4
	c1.5-2.5,2.5-5.3,3.1-8.2c0.5-2.2,0.1-4.3-0.7-6.4c-1.2-3.2-2.3-6.4-3.4-9.6c-1.2-3.5-2.3-7.1-3.4-10.6c-0.6-2.1-1.1-4.2-1.6-6.3
	c-0.6-2.5-1.2-5-1.8-7.4c-0.1-0.4-0.2-0.9-0.4-1.3c1.3-0.6,2,0.3,2.8,0.8c1.3,0.8,2.2,0.4,2.7-1c0.6-1.6,0.2-3-1.4-4
	c-2.7-1.9-5.5-3.8-8.9-4.3c-0.8-0.1-1.8-0.5-2.1-1.1c-0.8-1.3-1.2-2.9-1.8-4.5c1.5,0.7,2.7,1.2,3.8,1.9c1,0.6,1.9,0.8,3.1,0.6
	c1-0.2,2.2-0.3,3.2,0c1.3,0.3,2-0.2,2.4-1.2c0.6-1.5,1.4-3,1.8-4.5c1.5-5.9,2.9-11.7,4.3-17.6c0.4-1.7,0.2-3.2-0.5-4.8
	c-2.6-6.2-4.8-12.6-8.5-18.3c-0.8-1.2-1.4-2.5-2.2-3.9c0.8-0.3,1.2-0.4,1.7-0.6c0.5-0.2,1-0.3,1.5-0.5c1.7-0.7,1.8-1.4,0.4-2.6
	c-1.6-1.4-3.1-2.8-4.6-4.2c-0.4-0.3-0.8-0.6-1.2-1c-1,0.6-1.9,1.2-3,1.8c-0.4-1.2-0.8-2.1-1-3.1c-0.3-2.6-0.7-5.2-0.8-7.9
	c-0.1-5.4,0.8-10.7,2-15.9c3.6-14.6,8.7-28.6,13.9-42.6c3.4-9.4,6-18.9,5.9-29c0-1.9,0-3.7,0.1-5.6c0-0.9,0.3-1.7,0.5-3.1
	c1.1,1,1.8,1.5,2.4,2.1c1.4,1.3,2.9,1.9,4.9,1.4c1.1-0.3,2.3-0.3,3.4-0.1c1.7,0.3,3.1,0.9,3.4,2.9c0.1,0.7,0.4,1.4,0.9,1.9
	c1.5,1.7,2.2,3.7,2.9,5.8c0.6,2,1.6,3.6,3.8,4.3c1.1,0.3,2.2,1.2,2.1,2.7c-0.3,3.9-0.6,7.9-1,11.8c-0.4,4.4-0.5,8.8,0.9,13.1
	c0.3,1,0.4,2.1,0.7,3.1c0.2,0.6,0.5,1.2,0.8,1.7c0.2,0,0.3,0,0.5,0c0.3-0.8,0.5-1.7,1-2.4c0.6-0.8,1.4-1.4,2.1-2.2
	c1.6-1.8,3.6-2.9,5.9-3.5c1.3-0.3,2.7-0.7,3.9-1.4c3.5-2,6.9-4.2,10.3-6.3c2.6-1.6,3.2-3.8,2.6-6.6c-0.6-2.5-1.3-5-1.8-7.4
	c-2.2-9.6-4.4-19.2-6.5-28.8c-0.7-3-1.1-6.1-1.1-9.2c0.1-7.6,0-15.2-0.1-22.8c-0.1-3.9-0.5-7.7-0.4-11.6c0.1-4.8,0.6-9.6,0.7-14.4
	c0.2-8.4,0.3-16.8,0.4-25.1c0-2.9,0-5.9-0.4-8.8c-0.8-5.5-1.8-11-2.9-16.5c-1.4-7.8-3.2-15.6-4.4-23.5c-1.6-10.6-2.9-21.2-4.3-31.8
	c-1.8-13.7-3.6-27.5-5.4-41.3c-0.2-1.7-0.7-3.5,0.7-5.1c0.5-0.5,0.4-1.5,0.6-2.2c1.9-7.1,4.1-14,7.6-20.4c0.2-0.4,0.5-0.8,1-1.4
	c0.2,0.6,0.2,0.9,0.3,1.2c1.5,4.8,2.6,9.8,5.1,14.2c2.7,5,5.7,9.8,9.3,14.2c1.9,2.3,3.7,4.6,5.2,7.1c4.2,7.1,8.3,14.2,12.3,21.4
	c3.7,6.6,7.3,13.3,10.9,20c0.3,0.6,0.4,1.5,0.4,2.2c0,4-0.1,7.9,0,11.9c0.2,5.8,1.4,11.3,4.9,16.2c1.3,1.8,2.3,3.9,3.1,5.9
	c0.8,2.1,1.7,4,4.6,3.9c-0.5,0.7-0.8,1.3-1.1,1.8c-1.2,1.6-2.5,3-3.5,4.6c-0.7,1.1-1.3,2.3-1.5,3.6c-0.2,1.6,1,2.3,2.4,1.4
	c1.3-0.9,2.4-1.9,3.5-3.1c1.1-1.2,2-2.6,2.9-3.9c0.6-0.9,1.3-1.4,2.4-1.6c3-0.5,4.3-2.7,3.4-5.7c-0.7-2.6-0.8-5.1,0.1-7.7
	c1.1-3.1,1-6.1-0.5-9.2c-2.3-4.8-3.4-9.9-3.3-15.3c0-2.8-1.5-4.8-3.1-6.8c-1.1-1.5-2.7-2.8-3.7-4.5c-2-3.3-4-6.6-5.7-10.1
	c-1.7-3.5-3.1-7.1-4.3-10.8c-2.5-7.7-4.7-15.4-7.1-23.1c-2.3-7.2-4.9-14.2-8.9-20.7c-3.6-5.9-7-11.8-9.8-18.2
	c-2.1-4.8-4.1-9.5-5.2-14.6c-1.1-5.1-3-9.9-4.9-14.7c-0.6-1.4-0.2-2.3,0.8-3.3c2-2,4.1-4,5.9-6.2c2.7-3.2,5.4-6.4,8-9.7
	c1.1-1.4,1-1.5-0.1-3c-0.5-0.7-0.9-1.4-1.3-2.2c-1.5-3.4-2.8-6.9-4.4-10.2c-1.4-2.9-2.8-5.9-4.7-8.5c-3.4-5-7.2-9.7-10.9-14.5
	c-0.7-0.9-1.7-1.6-2.8-2c-6.3-2.5-12.5-5.2-19.1-6.7c-1.2-0.3-1.6-1-1.9-2c-0.4-1.6-0.9-3.3-1.5-4.9c-1.5-3.8-3.1-7.6-4.5-11.5
	c-0.7-2-1.2-4.1-1.8-6.4c2.9,1.8,4.9,4.4,8.6,4.5c-0.5-1.2-0.9-2.1-1.4-2.9c-4-7.5-6.2-15.5-6.2-24.1c0-3.6-0.2-7.3-0.3-10.9
	c-0.1-7.4-2.4-14.2-5.6-20.7c-1.7-3.5-4-6.4-6.9-9c-2.1-1.9-4.3-3.8-6.4-5.8c-3.8-3.8-8.6-5-13.8-5.1c-3,0-5.8,1-8.1,3
	c-2.4,2-4.9,4-7.2,6.2c-4.7,4.4-8.2,9.6-9.6,16.1c-1,4.7-0.8,9.4-0.7,14.1c0,0.8,0.1,1.5-0.6,2.1c-0.9,0.8-0.9,1.9-0.8,3
	c0.3,2.8,0.5,5.6,0.9,8.3c0.1,0.9,0.3,2,0.9,2.5c1.5,1.4,3.3,2.5,5.2,4c1.5,3.7,3.2,7.8,4.8,11.9c-1.8,1.1-3.7,2.1-5.5,3.3
	c-2.5,1.8-3.4,4.3-2.5,7.4c0.4,1.3,0.7,2.7,1.1,4c-1.3,1.2-3,2.1-2.7,4c-0.2,0.2-0.3,0.3-0.5,0.4c-1.6,0.7-3.1,1.5-3,3.7
	c0,0.4-0.7,1-1.1,1.3c-3.3,2.3-6.8,4.4-10.7,5.6c-6.4,1.9-12.8,3.8-19.2,5.6c-1.8,0.5-3.3,1.4-4.4,2.9c-1.2,1.7-2.5,3.4-3.6,5.2
	c-4.4,7-8.8,13.9-14.3,20c-0.3,0.3-0.6,0.7-0.8,1.1c-0.9,1.4-0.7,3.3,0.5,4.4c3,2.8,5,6.3,6.7,10c1.2,2.8,2.3,5.8,3.5,8.6
	c1.3,3,2.7,5.9,4.2,8.8c1.1,2,2.5,3.7,4.8,4.5c-0.4,3.3-0.8,6.4-1.2,9.6c-0.8,6-1.6,12-2.3,18c-0.2,1.9-0.1,3.9,0.2,5.8
	c0.2,1.1,0.3,2.1-0.1,3.1c-0.9,2.3-1.8,4.6-2.8,6.9c-3.3,7.3-6.2,14.7-8.2,22.5c-1.1,4-2.3,7.9-3.4,11.8c-3.6,0-4.4,1-4,4.3
	c0.2,1.4,0.2,2.8,0.3,4.1c-2.9,1.3-3,1.5-1.8,4.6c0.3,0.6,0.5,1.3,0.7,2c0.5,1.8,0.4,3.6-0.4,5.2c-2.6,4.9-3.8,10.1-4.5,15.5
	c-0.5,4.1-0.9,8.3-1.1,12.5c-0.1,2-1.1,3.1-2.5,4.1c-1.6,1.2-3.1,2.5-4.2,4.3c0.3,0.7,0.6,1.5,0.9,2.1c0.6,1.2,1,1.4,2.2,0.7
	c0.6-0.3,1.1-0.6,2-1.2c-0.4,1.8-0.4,3.5-1.1,4.6c-2.9,4.5-3.3,9.5-3.7,14.6c-0.2,3.4-0.5,6.8-2.1,9.9c-0.3,0.5-0.3,1.1-0.5,1.6
	c1.1,1.1,2.3,1.9,3.1,3c2.1,3.1,4,6.4,6.1,9.5c0.6,0.8,1.6,1.6,2.5,1.8c1.1,0.2,1.2-1.2,1.6-1.9c0-0.1,0.1-0.1,0.1-0.2
	c3.3-0.4,6.7,0.6,10.1-1.1c-0.5-1.7-1.1-3.4-1.6-5.1c-0.3-1.2-1-1.6-2.2-1.5c-1.4,0.1-2.8,0-4.4,0c0.3-1,0.6-1.8,0.9-2.6
	c1.5-4.1,3.1-8.3,4.6-12.4C204,414.3,204.5,411.5,203.9,408.4z"/>
<path d="M203.9,408.4c0.7,3.1,0.1,5.9-0.8,8.6c-1.5,4.2-3.1,8.3-4.6,12.4c-0.3,0.8-0.5,1.6-0.9,2.6c1.7,0,3,0.1,4.4,0
	c1.2-0.1,1.9,0.4,2.2,1.5c0.5,1.7,1,3.3,1.6,5.1c-3.5,1.6-6.9,0.7-10.1,1.1c0,0-0.1,0.1-0.1,0.2c-0.4,0.8-0.5,2.2-1.6,1.9
	c-0.9-0.2-2-1-2.5-1.8c-2.1-3.1-4-6.4-6.1-9.5c-0.8-1.1-1.9-1.9-3.1-3c0.1-0.5,0.2-1.1,0.5-1.6c1.5-3.2,1.8-6.5,2.1-9.9
	c0.4-5.1,0.8-10.1,3.7-14.6c0.7-1.1,0.7-2.8,1.1-4.6c-0.9,0.5-1.4,0.9-2,1.2c-1.2,0.6-1.6,0.4-2.2-0.7c-0.3-0.7-0.6-1.4-0.9-2.1
	c1-1.8,2.5-3.2,4.2-4.3c1.5-1,2.4-2.2,2.5-4.1c0.2-4.2,0.6-8.3,1.1-12.5c0.7-5.4,1.8-10.7,4.5-15.5c0.9-1.6,0.9-3.4,0.4-5.2
	c-0.2-0.7-0.5-1.3-0.7-2c-1.2-3-1.1-3.3,1.8-4.6c-0.1-1.4-0.1-2.8-0.3-4.1c-0.5-3.3,0.4-4.4,4-4.3c1.1-3.9,2.3-7.8,3.4-11.8
	c2.1-7.7,5-15.2,8.2-22.5c1-2.3,1.9-4.6,2.8-6.9c0.4-1,0.3-2,0.1-3.1c-0.3-1.9-0.4-3.9-0.2-5.8c0.6-6,1.5-12,2.3-18
	c0.4-3.1,0.8-6.3,1.2-9.6c-2.3-0.7-3.7-2.5-4.8-4.5c-1.5-2.9-2.9-5.8-4.2-8.8c-1.3-2.8-2.3-5.8-3.5-8.6c-1.6-3.7-3.7-7.2-6.7-10
	c-1.2-1.2-1.4-3-0.5-4.4c0.2-0.4,0.5-0.8,0.8-1.1c5.5-6.1,10-13.1,14.3-20c1.1-1.8,2.4-3.5,3.6-5.2c1.1-1.5,2.5-2.4,4.4-2.9
	c6.4-1.8,12.8-3.7,19.2-5.6c3.9-1.2,7.3-3.3,10.7-5.6c0.5-0.3,1.1-0.9,1.1-1.3c-0.1-2.2,1.4-3,3-3.7c0.1-0.1,0.2-0.2,0.5-0.4
	c-0.3-1.9,1.3-2.8,2.7-4c-0.4-1.4-0.7-2.7-1.1-4c-0.9-3.1-0.1-5.6,2.5-7.4c1.7-1.2,3.7-2.2,5.5-3.3c-1.6-4.1-3.3-8.2-4.8-11.9
	c-2-1.5-3.7-2.6-5.2-4c-0.6-0.5-0.8-1.7-0.9-2.5c-0.4-2.8-0.6-5.5-0.9-8.3c-0.1-1.1-0.1-2.2,0.8-3c0.7-0.6,0.6-1.3,0.6-2.1
	c-0.2-4.7-0.3-9.4,0.7-14.1c1.4-6.5,4.8-11.7,9.6-16.1c2.3-2.2,4.8-4.1,7.2-6.2c2.3-2,5.1-3,8.1-3c5.2,0,10,1.2,13.8,5.1
	c2,2,4.2,3.9,6.4,5.8c2.9,2.6,5.2,5.5,6.9,9c3.2,6.5,5.5,13.3,5.6,20.7c0,3.6,0.3,7.3,0.3,10.9c0,8.6,2.2,16.5,6.2,24.1
	c0.5,0.9,0.8,1.8,1.4,2.9c-3.7-0.1-5.7-2.7-8.6-4.5c0.7,2.4,1.1,4.5,1.8,6.4c1.4,3.9,3,7.6,4.5,11.5c0.6,1.6,1.1,3.2,1.5,4.9
	c0.3,1.1,0.7,1.8,1.9,2c6.6,1.5,12.8,4.2,19.1,6.7c1,0.4,2.1,1.1,2.8,2c3.7,4.8,7.4,9.6,10.9,14.5c1.8,2.7,3.3,5.6,4.7,8.5
	c1.6,3.4,2.9,6.8,4.4,10.2c0.3,0.8,0.8,1.5,1.3,2.2c1.1,1.5,1.2,1.6,0.1,3c-2.6,3.3-5.2,6.5-8,9.7c-1.9,2.2-3.9,4.2-5.9,6.2
	c-1,1-1.3,1.8-0.8,3.3c2,4.8,3.8,9.7,4.9,14.7c1.1,5.1,3.1,9.9,5.2,14.6c2.8,6.3,6.3,12.3,9.8,18.2c3.9,6.5,6.6,13.5,8.9,20.7
	c2.4,7.7,4.6,15.4,7.1,23.1c1.2,3.7,2.7,7.3,4.3,10.8c1.7,3.5,3.7,6.8,5.7,10.1c1,1.6,2.5,2.9,3.7,4.5c1.5,2,3.1,4.1,3.1,6.8
	c-0.1,5.4,1,10.5,3.3,15.3c1.5,3.1,1.7,6.1,0.5,9.2c-0.9,2.6-0.9,5.1-0.1,7.7c0.9,3-0.4,5.1-3.4,5.7c-1.1,0.2-1.8,0.7-2.4,1.6
	c-0.9,1.3-1.8,2.7-2.9,3.9c-1,1.1-2.2,2.2-3.5,3.1c-1.3,0.9-2.6,0.1-2.4-1.4c0.2-1.2,0.8-2.5,1.5-3.6c1-1.6,2.3-3.1,3.5-4.6
	c0.4-0.5,0.7-1,1.1-1.8c-2.9,0-3.8-1.8-4.6-3.9c-0.8-2.1-1.9-4.1-3.1-5.9c-3.4-4.9-4.7-10.4-4.9-16.2c-0.1-4,0-7.9,0-11.9
	c0-0.7-0.1-1.6-0.4-2.2c-3.6-6.7-7.2-13.4-10.9-20c-4-7.2-8.1-14.3-12.3-21.4c-1.5-2.5-3.3-4.9-5.2-7.1c-3.6-4.4-6.6-9.2-9.3-14.2
	c-2.5-4.4-3.6-9.4-5.1-14.2c-0.1-0.3-0.2-0.6-0.3-1.2c-0.4,0.6-0.7,1-1,1.4c-3.5,6.4-5.7,13.4-7.6,20.4c-0.2,0.7-0.2,1.7-0.6,2.2
	c-1.4,1.6-0.9,3.3-0.7,5.1c1.8,13.8,3.6,27.5,5.4,41.3c1.4,10.6,2.7,21.2,4.3,31.8c1.2,7.9,2.9,15.7,4.4,23.5c1,5.5,2.1,11,2.9,16.5
	c0.4,2.9,0.5,5.9,0.4,8.8c-0.1,8.4-0.2,16.8-0.4,25.1c-0.1,4.8-0.6,9.6-0.7,14.4c-0.1,3.9,0.4,7.7,0.4,11.6
	c0.1,7.6,0.2,15.2,0.1,22.8c-0.1,3.1,0.4,6.2,1.1,9.2c2.1,9.6,4.3,19.2,6.5,28.8c0.6,2.5,1.2,5,1.8,7.4c0.6,2.8,0,5-2.6,6.6
	c-3.4,2.1-6.8,4.3-10.3,6.3c-1.2,0.7-2.6,1.1-3.9,1.4c-2.3,0.6-4.3,1.7-5.9,3.5c-0.7,0.7-1.5,1.3-2.1,2.2c-0.5,0.7-0.7,1.6-1,2.4
	c-0.2,0-0.3,0-0.5,0c-0.3-0.6-0.6-1.1-0.8-1.7c-0.3-1-0.4-2.1-0.7-3.1c-1.4-4.3-1.4-8.7-0.9-13.1c0.4-3.9,0.7-7.9,1-11.8
	c0.1-1.4-1-2.4-2.1-2.7c-2.3-0.7-3.2-2.3-3.8-4.3c-0.6-2.1-1.4-4.1-2.9-5.8c-0.4-0.5-0.8-1.2-0.9-1.9c-0.3-2-1.7-2.7-3.4-2.9
	c-1.1-0.2-2.3-0.1-3.4,0.1c-2,0.5-3.5-0.1-4.9-1.4c-0.6-0.6-1.3-1.2-2.4-2.1c-0.3,1.4-0.5,2.3-0.5,3.1c-0.1,1.9-0.2,3.7-0.1,5.6
	c0.1,10.1-2.4,19.6-5.9,29c-5.1,14-10.3,28.1-13.9,42.6c-1.3,5.2-2.2,10.5-2,15.9c0.1,2.6,0.4,5.2,0.8,7.9c0.1,1,0.6,1.9,1,3.1
	c1.1-0.7,2-1.2,3-1.8c0.4,0.3,0.8,0.6,1.2,1c1.5,1.4,3,2.9,4.6,4.2c1.4,1.2,1.4,1.9-0.4,2.6c-0.5,0.2-1,0.3-1.5,0.5
	c-0.5,0.2-1,0.3-1.7,0.6c0.8,1.4,1.4,2.7,2.2,3.9c3.8,5.7,6,12.1,8.5,18.3c0.6,1.5,0.9,3.1,0.5,4.8c-1.4,5.9-2.8,11.8-4.3,17.6
	c-0.4,1.6-1.1,3-1.8,4.5c-0.4,1-1.1,1.5-2.4,1.2c-1-0.2-2.2-0.1-3.2,0c-1.1,0.2-2.1,0-3.1-0.6c-1.1-0.7-2.3-1.2-3.8-1.9
	c0.6,1.6,1,3.1,1.8,4.5c0.3,0.6,1.4,1,2.1,1.1c3.4,0.5,6.2,2.4,8.9,4.3c1.5,1.1,1.9,2.5,1.4,4c-0.5,1.4-1.4,1.7-2.7,1
	c-0.8-0.5-1.5-1.4-2.8-0.8c0.1,0.4,0.2,0.9,0.4,1.3c0.6,2.5,1.2,5,1.8,7.4c0.5,2.1,1,4.2,1.6,6.3c1.1,3.6,2.2,7.1,3.4,10.6
	c1.1,3.2,2.2,6.5,3.4,9.6c0.8,2.1,1.1,4.1,0.7,6.4c-0.6,2.9-1.6,5.7-3.1,8.2c-1.2,2-2.8,3.3-5.2,3.4c-4.9,0.4-9.8,0.5-14.5-1.3
	c-1.9-0.7-3.8-1.3-5.6-2.2c-1.6-0.8-3-1.9-4.4-2.9c-1.4-1-2.8-2-4-3.1c-0.5-0.5-1-1.2-1-1.9c-0.1-2.2,0-4.5,0-6.7
	c-0.1-6.2,0.8-12.2,1.7-18.3c0.6-4,0.5-8,0.2-12.4c-1.1,1-1.8,1.8-2.6,2.5c-0.4,0.4-0.8,0.8-1.2,1.1c-1,0.6-2,0.3-2.8-0.4
	c-0.8-0.7-0.7-1.6-0.2-2.3c1.4-1.8,2.9-3.6,4.4-5.4c0.4-0.5,0.9-0.8,1.5-1.2c-0.1-0.6-0.1-1.1-0.2-1.6c-0.3-1.9-0.1-3.8,0.1-5.8
	c0.3-3.2,0.3-6.5,0.2-9.7c-0.3-8-1.7-15.9-3.3-23.7c-2-9.9-3.6-19.8-6.1-29.6c-2.7-10.4-6.3-20.6-9.4-30.9c-2.5-8.4-5-16.8-7.3-25.2
	c-1.7-6.4-2-13-1.9-19.6c0.1-5,0.2-10.1,0.5-15.1c0.2-3.5,0.8-6.9,1.2-10.5c-1-1-2.4-0.9-3.6-0.6c-1.4,0.3-2.8,0.9-4.2,1.4
	c-1.1,0.5-2.2,1.1-3.3,1.7c-2.1,1-4.1,1.7-6.5,1c-0.6-0.2-1.2-0.1-2-0.2c-0.2,0.5-0.5,1.1-0.5,1.7c0.1,4.6-2.6,8-5.1,11.4
	c-0.3,0.4-0.6,0.7-0.9,1.1c-8.2,8.4-16.9,16.5-25.9,24.1c-0.5,0.4-1.1,0.9-1.7,1.2c-0.3,0.1-0.8,0.1-1-0.1c-0.2-0.2-0.2-0.7-0.1-1
	c0.5-1.2,1-2.4,1.7-3.5c2.8-4.2,3.9-8.9,5.1-13.7c2.1-9,3.8-18.1,4.5-27.3c0.5-6.2,0.5-12.4,1-18.6c0.7-7.9,1.4-15.9,2.5-23.8
	c1.4-10.4,3.2-20.7,4.6-31c0.6-4.2,0.7-8.5,0.7-12.8c-0.1-7.8-0.4-15.5-0.6-23.3c-0.2-7.8,0.4-15.5,1.3-23.2
	c1.3-10.8,2.7-21.7,4-32.5c0.1-1.2,0.3-2.4,0.4-3.6c-0.2,0-0.3-0.1-0.5-0.1c-0.5,1.3-1,2.5-1.4,3.8c-1.7,5.7-2.8,11.4-2.8,17.4
	c0,1.8,0,3.6-0.1,5.4c-0.1,1.7-0.7,3.2-2.4,4c-0.4,0.2-0.8,0.4-1.2,0.7c-1.3,0.9-1.4,1.8-0.2,2.7c0.8,0.6,1.5,1.1,1.5,2.2
	c0,1.4,0.1,2.8-0.9,4C205,407.9,204.4,408.1,203.9,408.4z M259.4,128.4c0.1,1.2,0.1,1.2,1.3,1.8C260.3,129.6,259.9,129,259.4,128.4
	c-0.8-0.3-1-0.9-1-1.9c1.1,0.9,1.9,1.6,2.8,2.2c-1.5-1.9-2.3-4.1-3-6.3c-0.5-1.6-0.3-2.9,1.1-4.1c1.2,2.5,1.2,5.4,3.1,8
	c0.4-1.8,0.8-3.1,0.1-4.6c-0.6-1.3-0.8-2.7,0-4.4c0.2,1.1,0.4,1.8,0.5,2.4c1.2-4.5,4.7-6.5,8.1-8.6c0-2.3,0-4.4,0-6.5
	c0.2,0,0.4,0,0.5-0.1c0.4,1.8,0.7,3.7,1.1,5.5c1.8,0.9,3.7,1.5,5.5-0.1c0.4-0.4,1.4-0.5,2-0.3c1.8,0.6,3.5,0.3,5.3-0.1
	c1.3-0.2,2.5-0.4,3.9,0c1.7,0.5,2.4-0.1,3.2-1.8c0.4-0.9,0.9-1.9,1.3-2.8c0.2,0.1,0.4,0.1,0.5,0.2c-0.3,1.4-0.7,2.9-1,4.4
	c2.5,0.8,2.9,3.3,4.2,5c1.3,1.8,2.2,3.8,3.3,5.8c0.6-0.5,1.2-1.6,1.9-0.1c-0.9,0.3-1.4,0.7-0.9,1.9c0.3-0.6,0.6-1.3,0.8-1.9
	c0.3,0.1,0.6,0.2,0.9,0.3c-0.5,1-1,1.8-1.4,2.7c0.1,0.1,0.2,0.1,0.3,0.2c0.6-0.4,1.1-0.8,1.7-1.2c0.1,0.1,0.2,0.2,0.3,0.3
	c-0.6,0.7-1.1,1.4-1.7,2.1c0.2,0.7,0.4,1.4,0.7,2.1c3-3.6,1.8-7.6,1.6-11.5c0-0.1-0.1-0.2-0.2-0.3c-0.3,0.5-0.5,1.1-0.9,1.9
	c-0.8-1.4-0.3-2.5,0-3.5c0.1-0.4,0.5-0.8,0.5-1.1c-0.9-4.8-3.2-9-6.6-12.3c-2.9-2.8-6.4-5-10.3-6.2c-6.9-2-13.6-2.1-19.2,3.5
	c-2.9,2.9-5.7,5.9-7.8,9.5c-1.1,1.8-1.9,3.7-1.6,5.9c0.1,0.6-0.2,1.8-0.5,1.9c-1.1,0.1-0.9,0.9-1,1.5c-0.3,2.3-0.6,4.6-0.6,6.9
	c0,1.9,0.1,4,1,5.8C258.6,128.6,259,128.5,259.4,128.4z M289.3,324.2c-1.2,0.4-2,0.8-2.8,0.9c-1.6,0.3-2.4,1.3-3.4,2.6
	c-1.9,2.5-4,4.9-6.2,7.2c-1.5,1.6-2.4,1.5-4.4,0.4c-2.7-1.5-3.9-4.1-5-6.8c-1.2-3.1-1.1-6.1,1.5-8.6c0.2-0.1,0.2-0.4,0.3-0.6
	c-1.6-0.2-3.2-0.4-4.9-0.6c-0.7-1.3-1.9-1.7-3.6-1.2c-1.1,0.4-2.1,0-2.7-1.2c-0.4-0.9-1.1-1.2-2.2-0.9c-1.1,3.1-2.2,6.3-3.2,9.4
	c-1.4,0.6-2.4-0.1-3.3-0.8c-1.5-1.1-2.8-2.4-4.8-2.9c-0.2,0.6-0.3,1-0.4,1.5c-1.2,5-2.6,9.9-4.6,14.6c-2,4.7-3.9,9.5-5.8,14.2
	c-5.4,13.2-8.6,26.8-9.6,41c-0.4,5.6-1,11.1-1.6,16.7c-1.1,10-2.3,20-3.6,30c-0.2,1.4,0,2.5,0.5,3.8c2.3,6.3,4.4,12.6,5.5,19.2
	c0.7,4.1,1.7,8.2,2.6,12.3c0.2,0.7,0.5,1.4,0.8,2.2c0.5-0.3,0.7-0.5,1-0.7c2.9-2.6,6.2-4.3,9.9-5.4c6.8-2.1,13.7-2.1,20.7-0.8
	c8.3,1.5,16,4.7,23.6,8.3c2.3,1.1,4.7,2,7.1,2.8c6,1.8,12.2,2.8,18.6,2.2c3.8-0.4,7.7-0.7,11.4,1.6c0.1-0.8,0.3-1.3,0.3-1.8
	c1.3-7.6,2.5-15.3,4-22.9c1.1-5.6,2.7-11,5.1-16.1c1-2.1,1.3-4.2,1.3-6.5c0-13.8,0-27.6-0.9-41.4c-0.3-4.6-0.2-9.3-0.8-13.9
	c-1.2-8.9-2.8-17.8-4-26.6c-1.5-10.4-2.7-20.7-4.1-31.1c-0.1-0.6-0.3-1.1-0.4-1.7c-3-0.5-5.3,0.6-7.5,2.3c-1.5,1.2-2.8,2.8-5.1,3.6
	c0.5,0.7,1.3,1.1,1.9,1.7c1.8,1.8,3.3,3.8,3.5,6.4c0.2,3.1,0.1,6.2-0.1,9.3c0,0.9-0.4,1.9-1,2.5c-2.6,2.8-5.5,5-9.2,6.1
	c-2.1,0.6-2.9,0.2-3.9-1.8c-1.1-2.2-1-4.5-1.1-6.8c-0.1-2.9,0-5.8-0.4-8.6C297.3,331.5,293.8,327.5,289.3,324.2z M284.9,700.5
	c-1.2-4.6-2.6-8.9-3.6-13.4c-2.6-11-3.9-22.1-4.8-33.3c-0.8-9.3-1.2-18.6-0.6-27.9c0.4-6,0.6-12.1,0.8-18.1
	c0.2-5.8,0.3-11.6,0.4-17.4c0.1-6.7-0.8-13.3-1.5-19.9c-1-8.7-2.6-17.3-4.9-25.8c-0.5-2-0.7-4.1-0.7-6.2c0-1.9,0.3-3.9,0.7-5.8
	c1.2-6.1,1.9-12.3,1.5-18.5c-0.1-1.6-0.3-3.2-0.3-4.9c-0.1-3.1-0.1-6.2-0.2-9.3c0-1.6-0.5-3.1-2.1-3.8c-5.8-2.6-11.7-4.9-18.2-5.3
	c-4-0.2-7.3,1.2-10.9,2.6c0.1,1.3,0.1,2.3,0.3,3.2c0.6,3.4,1.2,6.7,1.9,10c1.6,7.9,2.4,15.8,2.4,23.8c0,0.9-0.1,1.9-0.2,2.8
	c-0.5,3.6-1.1,7.2-1.6,10.8c-1,8.4-1.4,16.8-1,25.3c0.3,7.3,1.5,14.5,3.6,21.5c2.9,9.4,5.9,18.8,8.9,28.2c2.4,7.6,5.2,15.1,7,22.9
	c3.7,16.4,7.3,32.8,8.8,49.6c0.4,4.4,0.8,9-0.3,13.4c-0.2,1,0,2.1,0,3.5c0.8-0.4,1.2-0.6,1.5-0.9c1.6-1.1,3.2-2.4,4.9-3.4
	c1-0.6,1.7-1.2,1.5-2.5C280.4,700.8,282.5,700,284.9,700.5z M341.9,461.5c0.2,0,0.4,0,0.6,0c0.7,8,1.1,16,2.2,24
	c1.1,8,2.9,15.9,4.4,23.9c0.4-3,0.4-5.9,0.4-8.8c-0.1-6.7-1.1-13.3-0.5-20c0.2-2.9,0.4-5.7,0.5-8.6c0.2-6.2,0.4-12.4,0.4-18.6
	c0.1-4.6,0.1-9.2-0.1-13.7c-0.4-7-2-13.8-3.3-20.6c-1.6-8.2-3.2-16.4-4.5-24.7c-1.4-8.6-2.4-17.2-3.6-25.8c-1-7.7-2.1-15.4-3.1-23
	c-0.7-5.5-1.2-10.9-1.9-16.4c-1.4-10.6-2.4-21.3-2.8-31.9c-0.3-6.4-0.1-12.9-0.2-19.3c0-0.6,0-1.2,0-1.9c-2.1-1.2-4.1-2.5-6.2-3.4
	c-2.1-0.8-3.2-3.5-5.9-3.4c-0.2,0.6-0.4,1.1-0.4,1.6c-0.3,4.1-0.9,8.2-0.8,12.3c0.2,6,0.9,11.9,2,17.8c1.6,9,3.7,17.9,4,27.1
	c0,0.3,0.1,0.6,0.1,0.9c0.9,6.5,1.7,13.1,2.6,19.6c0.9,6.4,1.8,12.9,2.8,19.3c0.9,6.2,2.4,12.4,2.9,18.6c0.8,11.1,1.3,22.3,1.4,33.5
	c0.2,23,0.9,46.1,0.5,69.1c-0.1,6.9,0,13.8,0.3,20.7c0.4,8.4,1.3,16.7,1.7,25c0.2,4.3,0.2,8.7-0.1,13c-0.6,8.4-1.5,16.8-2.2,25.2
	c-0.3,3.6,0.4,7,1.8,10.5c0.4-0.4,0.8-0.6,1-0.9c1.9-2.8,4.6-4.4,8-5.2c1.1-0.2,2.3-0.7,3.2-1.2c3.1-1.8,6.3-3.7,9.3-5.7
	c2.9-1.9,3.3-3.2,2.5-6.5c-1.7-6.9-3.4-13.8-5-20.8c-1.6-7.1-3-14.3-4.3-21.4c-1.6-8.4-2.9-17-4.6-25.4c-1.9-9.2-3.5-18.4-3.1-27.9
	C342,466.1,341.9,463.8,341.9,461.5z M247.3,200.6c0.1,0,0.2,0.1,0.3,0.1c-0.1,0.4-0.1,0.9-0.3,1.3c-1.5,3.6-3,7.1-4.6,10.7
	c-1.9,4.2-4,8.2-5.8,12.4c-2.2,5.3-4.2,10.7-6.4,16c-2.3,5.4-3.9,10.9-4.6,16.7c-0.3,2.4,0.3,3.3,2.8,3.5c1.4,0.1,2.8,0,4.2,0.1
	c4.7,0.3,9.2,1.2,12.7,4.9c0.3,0.3,1,0.6,1.4,0.4c0.4-0.1,0.6-0.8,0.7-1.3c0.5-2.5,0-4.9-0.3-7.7c-1.5,0-3-0.1-4.4,0
	c-4.6,0.2-9,1.2-13.5,2.4c-0.4,0.1-0.9,0.1-1.3,0.1c0-0.2,0-0.3,0-0.5c13.1-5.4,25.7-4,38,3.3c0-0.6,0.1-0.9,0.1-1.3
	c-0.2-4.3-1-8.5-2.1-12.6c-2.4-8.8-3.8-17.9-4.5-27c-0.5-6.5-1.2-13-1.7-19.5c-0.2-2.7-0.2-5.4-0.2-8.1c0-1.7,0.5-3.2,2.4-3.7
	c-1.4-2.6-2.9-5-5.8-6.3c-0.6,0.4-1.3,0.8-2,1.3c-3.7,2.5-7.6,4.4-11.9,5.6c-5.5,1.6-11,3.3-16.5,4.7c-2.1,0.6-3.7,1.6-4.8,3.3
	c-2,3.1-4,6.3-6.1,9.3c-3.7,5.3-7.5,10.4-11.3,15.6c-1.1,1.5-1.3,2.1,0,3.3c3.5,3.3,5.9,7.4,7.7,11.8c1.3,3.3,2.5,6.7,4,9.9
	c1.1,2.4,2.3,4.7,3.6,7c0.5,0.8,1.3,1.4,2.2,2.4c0.3-1.6-0.6-2.2-1-3.1c-0.4-0.8-1-1.7-1-2.5c0-2.4,0.2-4.8,0.4-7.1
	c0.6-7.5,1.1-15,1.9-22.5c0.4-3.9,1.1-7.8,1.8-11.7c0.1-0.8,0.6-1.5,0.9-2.3c-1.1,6.9-1.6,13.8-1.8,20.7c-0.3,6.8-1.8,13.6-1.4,20
	c2.4,0.9,4.4,1.6,6.2,2.2c1.6-4.6,3.3-9.1,4.9-13.7c0.1-0.4,0.2-0.9,0.2-1.3c-0.2-4-0.3-8-0.7-12.1c-0.5-6.4-1.2-12.8-1.8-19.2
	c-0.1-1.4-0.4-2.7,0.1-4.1c2.1,10.5,3.1,21.2,3.6,31.9c2.6-5.6,4.9-11.4,7.5-16.9C241.5,211.7,244.5,206.2,247.3,200.6z M253,274.2
	c-0.5,0-0.6-0.1-0.8-0.1c-5.2,1.2-9.8,3.7-14.3,6.5c-0.8,0.5-0.9,1.2-0.9,2c0,2,0,4,0,6c-0.1,3.1,0.1,6.3-0.6,9.2
	c-1.2,5.3-2.9,10.6-4.7,15.8c-1.3,4-2.9,7.8-4.4,11.7c-1.5,3.9-3,7.8-4.6,11.7c-1.6,3.8-2.7,7.8-4.3,11.7c-0.7,1.7-0.8,3.8-1.2,5.6
	c-0.3,1.7-0.3,3.6-0.9,5.2c-1.3,3.8-1.8,7.7-2.3,11.6c-1,8.2-1.8,16.5-3,24.7c-1.9,13.2-3,26.5-2.1,39.8c0.1,1.9,0.1,3.7,0.2,5.6
	c0.4,8.1,0.4,16.3-0.9,24.4c-1,6.3-2.1,12.5-3,18.8c-1,7.1-1.9,14.1-2.6,21.2c-0.6,6-1.2,12-1.5,18.1c-0.5,9.2-0.9,18.4-2.7,27.5
	c-0.3,1.3-0.3,2.6-0.5,3.8c0.6-0.8,0.9-1.7,1.1-2.6c2.1-8.8,4.5-17.6,7.9-26c0.3-0.6,0.5-1.3,0.6-2c3.7-13.8,6.1-27.8,6.5-42.2
	c0.1-6.2,0.1-12.4,0.7-18.6c1.2-12.4,2.8-24.8,4.2-37.2c1.5-12.9,3-25.7,4.4-38.6c0.8-7.5,2.1-14.9,4.1-22.1
	c2.5-8.9,6.1-17.4,9.7-25.9c2.9-6.8,5.1-13.8,6.7-21c1.1-4.9,2.6-9.7,3.8-14.6c0.8-3.1,1.5-6.3,2.1-9.5c0.3-1.7,0.3-3.4,0.4-5.1
	C250.5,284.6,251.5,279.5,253,274.2z M307.5,257c0.2,0.1,0.3,0.2,0.5,0.2c3-2.5,6.3-4.4,10.2-5.4c3.9-1,7.7-1.6,11.7-1.8
	c3.9-0.2,7.5,1.1,11.1,2.6c-3.8-11.5-7.5-22.6-11.2-33.8c-3.8-11.1-9.8-21.3-13.8-32.3c1.6,1.4,2.4,3.3,3.3,5.2
	c2.6,5.5,5.3,11,7.9,16.6c0.9,1.8,1.7,3.7,2.4,5.6c2.1,5.9,4.1,11.9,6.1,17.8c1.8,5.5,3.6,11,5.4,16.6c0.9,2.9,2.8,5.5,2.8,9.2
	c8-8.2,16.1-15.6,22.1-24.4c-0.7-1.4-1.4-2.5-2-3.7c-1.5-3.5-3-7-4.5-10.5c-1.4-3.1-3-6.1-5.1-8.9c-3.3-4.4-6.6-8.8-9.9-13.2
	c-0.4-0.6-1.1-1.2-1.8-1.4c-4.9-1.9-9.8-4-14.8-5.5c-5.5-1.6-10.8-3.4-15.3-7c0,0-0.2,0-0.4,0c-0.2,1.7-0.4,3.5-0.5,5.2
	c-0.6,12.2-1.1,24.3-1.7,36.5c-0.4,7-1.1,14.1-1.7,21.1C308,249.5,307.7,253.2,307.5,257z M286.7,643.9c-1.6-2.8-1.8-6-2-9.2
	c-0.5-7.4,0.7-14.7,2.7-21.8c3.6-13.3,8.2-26.3,13.1-39.2c3.5-9.3,6.1-18.7,6.1-28.7c0-1.7,0.1-3.4,0.2-5.1
	c0.5-6.9,1.4-13.7,2.8-20.5c0.8-4.2,1.4-8.6,4.6-12.3c-10.5-2.4-20.6-5.2-31.2-6.8c-0.1,2.9-0.3,5.6-0.4,8.3
	c-0.1,6.3-0.1,12.6,0,18.8c0.1,6.8-1,13.4-1.7,20.1c-0.4,4.2-0.9,8.5-1.3,12.7c-0.8,8.2-1.4,16.3-1.4,24.5c0.1,9-0.2,18-0.4,27
	c-0.2,6.6-0.8,13.2-0.7,19.7c0,7.2,0.6,14.4,0.9,21.6c0,0.6,0.2,1.2,0.3,2C281.1,651.3,283.9,647.7,286.7,643.9z M335.8,263.9
	c0.1,0.4,0.1,0.7,0.2,1c2.3,6.7,4,13.7,7.4,20c1,1.8,1.6,3.9,1.8,5.9c0.9,7.5,3.2,14.5,7.2,20.9c2.4,3.9,5.3,7.5,7.9,11.2
	c2.3,3.4,4.9,6.6,6.9,10.2c5.6,9.7,10.9,19.5,16.4,29.2c1.3,2.3,2.6,4.7,3.9,7c0.4-0.3,0.7-0.5,1.3-0.9c0.1,2.1,0.2,3.8,0.2,5.4
	c0,4.6-0.1,9.3,0.1,13.9c0.2,4.1,0.8,8.3,3.3,11.7c2.2,3,4,6.2,5.5,9.6c0.2,0.4,0.6,0.7,0.9,1.1c0.2-0.1,0.3-0.2,0.5-0.3
	c-0.7-2.2-1.6-4.4-2.1-6.7c-0.5-2.4-1-4.9-0.9-7.3c0-2.3,0.2-4.7,1.3-6.8c0,1.3,0,2.5,0,4c0.9,0,1.8,0,2.6,0
	c1.6,0.1,2.1,0.6,2.5,2.2c0.2,0.9,0.2,1.9,0.5,2.7c0.5,1.4,0.2,2.7-0.1,4.1c-0.6,2.7-1.1,5.5-1.4,8.2c-0.2,1.4-0.4,2.6-1.3,3.7
	c-1,1.4-2.1,2.7-3.1,4.1c-0.9,1.3-1.9,2.6-1.8,4.4c0.3,0,0.5,0,0.6-0.1c3.3-2.4,5.5-5.8,7.8-9.2c0.2-0.2,0.1-0.6,0.2-0.9
	c1-3,2-6,3-9c1.2-3.5,1.6-7-0.1-10.6c-2.4-4.9-3.4-10.3-3.4-15.8c0-1.4-0.2-2.7-1.2-3.6c-3.3-3.3-6-7-8.2-11.2
	c-3.2-5.9-6.2-11.8-8-18.3c-0.9-3.2-1.9-6.4-2.7-9.6c-3.8-14.5-8.8-28.4-17.5-40.8c-2.7-5.8-5.4-11.5-8-17.3
	c-0.3-0.6-0.4-1.2-0.6-1.8c-0.9-3.4-1.7-6.9-2.8-10.3c-1.2-3.7-2.5-7.4-3.9-11.3C346.1,257.3,341.2,261,335.8,263.9z M278.4,226
	c-1.1,11.8-4.5,23.1-7,34.4c-2.6,11.5-5.4,22.8-9.4,33.8c3.4,1.8,4.6,3.3,4.6,6.3c0,1.1,0.1,2.1,1.3,2.5c1.2,0.4,2.5,0.4,3.5-0.6
	c0.4-0.4,0.7-1,1.1-1.5c0.8-1.1,1.7-2,3.5-1.9c0.7,2.4,1.3,4.8,2,7.3c1.2,0.2,2.3,0.7,3.4,0.5c3.7-0.4,7.1-1.9,10.9-2.9
	c-2.5-1.5-2.5-3.4-0.4-4.5c0.7-0.4,1.6-0.6,2.4-0.7c1.2-0.1,2.5,0,3.7-0.1c1.6-0.1,3.2-0.3,4.8-0.5c0-0.8,0-1.2-0.1-1.7
	c-0.8-4.6-1.5-9.2-2.6-13.7c-2.9-12.2-6-24.4-6.5-37c-0.1-3.3-0.6-6.7-0.4-10c0.3-4.5,1-8.9,1.5-13.4c0.2-1.4,0.3-2.8,0.4-4.2
	c-0.8,0.5-1.2,1.2-1.6,1.8c-1.4,2.2-2.7,4.3-4.1,6.4c-1.2,1.7-2.9,3.1-4.9,3.8c-2,0.7-3,0.4-4.2-1.3
	C279.8,228.2,279.1,227.1,278.4,226z M231.3,497.8c4.6-4.4,9.8-6.8,15.6-8.1c0.8-0.2,1.7-0.2,2.5-0.2c6.2,0.2,12.1,1.6,17.7,4.2
	c5.4,2.5,11.1,4,16.8,5.3c8.8,2,17.7,3.9,26.5,5.8c2.5,0.6,5,1.3,7.7,2c0.7-6.5,1.5-12.9,2.2-19.2c0.1-0.6-0.3-1.3-0.8-1.8
	c-1.2-1.1-2.8-1.7-4.5-1.7c-2.6,0-5.3,0.1-7.9,0.1c-3.2,0-6.5,0.4-9.7-0.3c-6.1-1.2-11.8-3-17.3-5.9c-5.7-3-11.8-5.1-18-6.7
	c-6.9-1.7-13.9-2-20.9-0.2c-4.8,1.2-8.8,3.5-12.6,6.7C230.7,484.4,231.5,490.9,231.3,497.8z M302.1,137.5c0.3-3.6-0.3-7-0.8-10.6
	c-0.3-2.4-0.9-4.7-2-6.8c-1.5-2.9-3.1-5.7-4.7-8.5c-0.3-0.4-0.9-0.9-1.4-0.9c-2.4,0-4.9,0-7.3,0.2c-1.8,0.1-3.5,0.6-5.3,0
	c-0.6-0.2-1.5,0.1-2.1,0.5c-1.5,1-2.9,1.4-4.5,0.4c-0.4-0.2-1.1-0.2-1.5-0.1c-4.6,2.1-7.8,5.2-8.2,10.6c-0.1,1.7-0.4,3.4-0.8,5
	c-1.1,4.2-2.1,8.4-1.2,12.8c0.2,1.1,0.5,2.3,0.4,3.4c-0.5,3.1,1,5.7,2.1,8.4c0.4,1.2,1.1,2.2,1.5,3.4c0.8,2,1.6,3.9,3.3,5.5
	c2.3,2.2,4.4,4.4,7.2,6.1c2.9,1.8,5.7,1.9,8.8,1.5c2.2-0.3,3.9-1.4,5.2-3.1c1.8-2.4,3.5-4.9,5.5-7.2c3.3-3.6,4.9-7.8,5.3-12.6
	C301.9,142.9,302,140.2,302.1,137.5z M316.7,268.4c-0.5-0.3-1.2-0.7-1.8-1c-2.3-1.3-4.6-2.5-6.9-3.9c-1.4-0.8-2.4-1.9-2.3-3.7
	c0.4-5.9,0.6-11.8,1.2-17.6c0.9-8.9,1.6-17.7,1.8-26.7c0.1-4.5,0.3-9,0.5-13.5c0.2-4.8,0.6-9.6,0.8-14.4c0-0.7-0.1-1.4-0.2-2.6
	c-0.8,2.9-1.3,5.4-2.3,7.7c-1.8,4.2-4,8.2-7,11.8c-0.7,0.8-1.4,1.8-2.3,2.3c-1.3,0.7-1.4,1.7-1.4,3.1c-0.2,5.8-0.4,11.6-0.8,17.4
	c-0.3,5-1.4,10-1,15.1c0.2,2.2,0.3,4.5,0.5,6.7c0.7,5.6,1.1,11.3,2.2,16.8c1.8,9.2,4.1,18.3,5.8,27.5c1.3,7.4,2,14.9,3,22.3
	c0.3,2.1,0.7,4.2,1,6.3c2.3-1.1,4.2-2.2,6.3-3c2.1-0.8,4.4-1.2,6.8-1.8c-0.9-4.9-1.7-9.8-2.6-14.7c-1.4-7.6-2.5-15.3-2.1-23.1
	C316.1,275.8,316.4,272.2,316.7,268.4z M275.9,208.4c-2-0.6-2.9-2.3-4-3.9c-2.7-4.1-5.5-8.1-9.4-11.2c-0.7-0.6-1.5-1.2-2.3-0.7
	c-0.5,0.3-1.1,1.2-1.1,1.8c-0.1,2.6-0.1,5.3,0.1,7.9c0.5,6.1,1.2,12.2,1.6,18.3c0.7,9.7,1.7,19.4,4.5,28.9c1.4,4.9,2,10,2.1,15.2
	c0.1,2.8-1.2,4.7-3.8,5.8c-2.4,1-4.9,1.8-7.4,2.7c-1.2,0.4-2.1,0.9-2.4,2.2c-0.8,4.1-1.7,8.2-2.3,12.3c-0.5,3.5-0.4,7.1-1.1,10.6
	c-0.7,3.9-2,7.6-3.1,11.4c-0.6,2.1-1.1,4.1-1.7,6.2c2.5,1.4,4.7,2.6,6.9,3.8c0.3-0.7,0.6-1.2,0.8-1.8c1.1-3.4,2.3-6.9,3.3-10.4
	c1.6-5.1,3-10.3,4.5-15.4c1.8-6.2,3.8-12.3,5.4-18.5c3.2-12.5,6.3-24.9,8.4-37.6c0.7-4.3,1.4-8.8,1.5-13.1
	C276.8,218,276.2,213.3,275.9,208.4z M325.2,493.3c1.3,0.4,0.9,1.2,0.8,1.8c-0.4,2.9-1,5.8-1.1,8.7c-0.3,8-0.4,16-0.6,23.9
	c-0.1,3.6-0.2,7.3-0.3,10.9c0,2,0.6,3.7,1.8,5.4c0.9,1.3,1.8,2.8,2.1,4.3c0.7,2.7,2,4.4,4.9,4.7c0.1-0.1,0.2-0.3,0.2-0.4
	c0.9-6.6,1.1-13.1,0.5-19.7c-1.1-12.3-2.1-24.6-2.1-36.9c0-3.6,0.3-7.1,0.3-10.7c-0.1-13.4-0.3-26.8-0.4-40.2c0-0.2-0.1-0.4-0.3-0.8
	c-0.3,0.4-0.5,0.7-0.6,0.9c-1.6,5.6-3.3,11.1-4.7,16.8c-1.1,4.6-1.5,9.3-2.4,14c-0.9,4.7-0.9,9.5-1.7,14.2c-0.7,4.6-1,9.2-1.6,13.9
	c-0.2,1.8-0.5,3.5-1,5.3c-0.4,1.6-1.2,3-2.9,3.7c-3,1.3-5.1,3.3-5.5,6.8c-0.1,1.5-0.6,2.9-0.8,4.3c-0.6,3.5-1.1,7-1.5,10.1
	c1.5,0.9,2.6,1.6,3.6,2.3c1,0.7,1.9,1.5,3.1,1.2c2.3-0.6,4.5-0.5,6.9,0.6c0.1-0.7,0.2-1.1,0.2-1.4c0.2-7.8,0.3-15.7,0.7-23.5
	c0.3-5.6,0.9-11.3,1.4-16.9C324.5,495.5,324.9,494.4,325.2,493.3z M243.2,536.9c0.2-2,0.5-3.7,0.5-5.5c0-3.5-0.1-7-0.4-10.4
	c-0.2-2.9-0.7-5.8-1-8.8c-0.2-1.5-0.9-2.4-2.2-3.2c-2.3-1.3-4.4-2.8-6.5-4.4c-2.6-1.9-3.9-4.5-3.7-7.8c0.4-6.4-0.8-12.6-2.7-18.8
	c-1.1-3.6-2-7.2-2.8-10.8c-1.1-4.8-1.9-9.6-3-14.3c-0.4-1.9-1.2-3.8-1.8-5.6c-0.2,1.7,0,3.3,0.2,4.9c1.2,8.8,0.8,17.6,0.1,26.4
	c-0.4,5.7-0.6,11.5-0.6,17.2c0,4.3,0.4,8.5,0.8,12.8c0.3,4.1,0.7,8.2,1.1,12.3c0.7,6.2,1.7,12.3,1.6,18.5c0,0.5,0.2,1,0.2,1.5
	c3.3,1.1,6.2,0.3,9.1-1.3C235.5,537.7,238.9,536.1,243.2,536.9z M220.1,284.8c0,1.1,0.1,1.8,0,2.5c-0.8,4.6-1.8,9.1-3.7,13.4
	c-2.4,5.5-5,10.9-6.9,16.5c-2.4,6.7-4.2,13.6-6.2,20.5c-0.1,0.3-0.1,0.5-0.1,1c5.7,0.1,10.9,1.5,15.7,4.4c0.5-1.4,1-2.7,1.5-4
	c2.4-6.1,4.7-12.1,7.1-18.2c0.2-0.6,0.6-1.3,0.6-2c-0.3-4.1-0.6-8.2-1.2-12.2c-0.6-4.5-1.7-9-2.3-13.5c-0.2-1.7-0.1-3.7,0.6-5.2
	c2.6-5.1,4.2-10.5,5.6-16c0.7-3,1.7-5.9,1.7-9.2c-1.5-0.1-2.9-0.1-4.3-0.2c-2.6-0.3-3.7-1.6-3.5-4.2c0.1-1.2,0.3-2.4,0.4-3.7
	c-2-1.3-3.9-2.3-6.7-1.5c0.5,0.9,0.8,1.6,1.3,2.2c1.1,1.7,1.9,3.4,1,5.4c-0.1,0.3-0.1,0.6-0.1,0.9c-0.9,8.1-1.8,16.2-2.7,24.3
	c-0.1,1.3,0,2.6,0,4.2C219.1,288.4,218.4,286.4,220.1,284.8z M218.3,449.3c-0.1,0-0.2,0-0.3,0c-0.1,0.2-0.2,0.4-0.2,0.6
	c-0.6,7.3-1.3,14.5-1.8,21.8c-0.3,5.6-0.3,11.3-0.5,17c-0.4,7.2-1.5,14.3-2.8,21.4c-1.6,8.2-3.3,16.4-6.6,24.2
	c-0.9,2.1-1.6,4.4-2.2,6.6c-2.4,9.2-4.7,18.4-7.9,27.5c-0.9,2.6-1.8,5.1-3.3,7.4c-0.4,0.6-0.7,1.3-1,1.9c0.7-0.1,1.2-0.4,1.6-0.8
	c3.2-2.8,6.4-5.6,9.5-8.6c4.3-4.1,8.5-8.1,12.6-12.4c3.8-4,6.3-8.7,6.1-14.4c-0.1-4.3-0.2-8.7-0.6-13c-0.8-9.6-1.9-19.1-2.6-28.7
	c-0.5-7-0.3-13.9,0.3-20.9c0.5-5.6,0.7-11.1,0.6-16.7C219.2,457.9,218.6,453.6,218.3,449.3z M197.1,349c0.6,1.4,1,2.6,1.4,3.7
	c0.8,1.9,0.9,4-0.2,5.6c-1.5,2.2-2.4,4.6-3.1,7.2c-1.4,5.7-1.9,11.5-2.2,17.3c-0.1,0.9-0.1,1.9-0.1,2.8c0.1,0.1,0.3,0.1,0.4,0.2
	c2.6-3.5,5.2-7,7.8-10.4c0.1,0.1,0.3,0.2,0.4,0.2c-0.3,0.8-0.6,1.7-1,2.4c-1,1.7-2,3.5-3.2,5.1c-2.4,3.2-4.6,6.6-7.9,9.1
	c-0.9,0.7-1.7,1.3-2.5,2.1c-0.6,0.5-0.9,1.1,0,1.9c0.5-0.3,1-0.6,1.5-0.9c2.8-1.9,5.9-3.1,9.2-3.8c1.4-0.3,3-0.5,4.2,0.5
	c0.4,0.3,0.9,1,0.8,1.5c-0.1,0.4-0.7,1-1.2,1.2c-1.3,0.4-2.7,0.1-4-0.5c0.7-0.3,1.4-0.6,2.2-0.9c-2.2-0.1-4.2,0.7-6.3,1.3
	c-2,0.6-2.9,2.3-2.8,3.8c0.3,2.5-0.9,4.1-1.8,6c-0.8,1.8-1.8,3.6-1.7,6.1c2.6-1.9,5-3.8,8-4.1c3-0.2,6,0,9.3,0.1
	c-0.1-1,0-2.2-0.3-3.2c-0.4-1-1.3-1.9-2.1-3c-0.5,0.1-1.2,0.3-2.3,0.6c0.8,0.5,1.2,0.9,1.7,1.2c-0.8,0.5-1.6,0.7-2.2,0.5
	c-0.6-0.2-1.2-0.9-1.3-1.4c-0.1-0.5,0.5-1.3,1-1.6c0.6-0.4,1.5-0.5,2.2-0.7c1.6-0.6,3.1-1.3,4.7-2c1-0.5,1.3-1.3,1.3-2.5
	c0-2.9-0.1-5.9,0.1-8.8c0.8-7.9,2.5-15.6,6.4-22.6c1.2-2.1,1.7-4.4,1.8-6.7c0.1-2.8,0.7-5.4,1.9-7.8c0.3-0.6,0.5-1.3,0.8-1.9
	c0.3-0.8,0.1-1.4-0.5-1.8c-0.4-0.3-0.9-0.6-1.4-0.9c-4.8-2.4-10-3.2-15.2-3.9c-1.3-0.2-2,0.9-1.7,2.3c0.2,0.9,0.3,1.8,0.4,2.7
	c0.1,0.6,0.1,1.3,0.2,1.9c2.5-0.2,3.2-0.9,2.9-3c-0.1-0.7-0.1-1.4-0.2-2.6c2.7,3.3,1.9,6.4-1.4,7.3
	C199.9,348.6,198.6,348.7,197.1,349z M293,92.5c-0.7,1.6-0.1,2.4,1,2.9c3.8,1.9,6.6,4.8,8.5,8.6c0.1,0.2,0.3,0.4,0.4,0.6
	c1,2.3,2.3,4.5,2.8,6.8c1.5,6.5,2,13,0.1,19.5c-0.1,0.3,0,0.6,0,0.9c0.2,2.8,0.2,5.6,0.8,8.3c0.7,3.3,0,5.9-2.4,8.2
	c-0.4,0.4-0.9,0.8-1.3,1.3c-1,1.6-2.3,3.1-2.5,5.1c-0.2,1.6-0.5,3.2-0.8,4.8c-0.5,2.7-0.3,3.3,2.1,4.6c3.1,1.7,4.7,4.2,4.3,7.8
	c-0.1,0.8,0,1.7,0,2.4c0.2,0.1,0.4,0.2,0.5,0.3c2.5,1.1,2.6,1.3,2.4,4c0,0.6,0.3,1.3,0.5,2.3c1.5-1.8,2.5-1,3.6-0.1
	c0.9,0.8,1.9,1.5,2.9,2.2c0.1-0.4,0.3-0.6,0.2-0.7c-1.3-3.3-2.6-6.6-3.9-9.9c-1.1-2.7-2.3-5.4-3.3-8.2c-0.4-0.9-0.5-2-0.7-3
	c0.5,0,0.8,0.2,0.8,0.3c2.9,6.7,5.7,13.4,8.5,20.1c0.6,1.4,1.5,2.4,3.7,2.9c-3.7-8.5-8-16.3-8.4-25.4c1.8,2,3.9,3.5,6.6,5.2
	c-0.4-0.9-0.6-1.4-0.8-1.9c-1.6-4.1-3.3-8.2-4-12.6c-0.8-5-1.1-10-1-15.1c0-4-0.2-8.1-0.7-12.1c-0.7-5.5-2.9-10.6-5.5-15.5
	c-1.3-2.6-3.1-4.8-5.3-6.8c-2.4-2.2-4.8-4.4-7.2-6.6C294.4,93.6,293.8,93.2,293,92.5z M267.1,177.1c-2.9-5.4-1.8-10.6,1.1-16
	c-2.5,0.8-4.4,2-6.1,3.4c-1.7,1.4-2.4,3.2-1.7,5.4c0.7,2.1,1.3,4.1,1.9,6.2c0.3,0.9,0.5,1.8,0.6,2.7c0.1,0.6-0.4,1.1-1,0.9
	c-0.6-0.3-1.2-0.8-1.5-1.3c-0.1-0.2,0.3-0.8,0.4-1.3c0.1-0.3,0.1-0.6,0.1-1.1c-2.4,1.3-2.4,1.3-0.9,4.9c4.5,0.3,9,0.5,13.6-0.2
	c1.3-0.2,2.3-0.8,2.9-2.1c-0.3-0.5-0.6-0.9-1-1.5c2,0.4,2.4,1.3,1.5,2.6c-0.8,1.1-2,1.6-3.4,1.9c-5.3,1.1-10.6,0.7-16,0.6
	c-0.2,0-0.4-0.2-0.6-0.3c0.3-0.6,0.6-1.1,0.8-1.6c-0.2-0.1-0.3-0.3-0.5-0.4c-0.7,0.6-1.8,1.1-2.1,1.9c-0.4,1.1,0.4,2.2,1.4,2.9
	c0.6,0.4,1.1,0.8,1.8,1.1c1.1,0.5,2.3,1,3.4,1.4c3.9,1.5,7.8,3.1,11.1,5.8c1.2,1,2.2,2.1,3.1,3.4c0.9,1.4,1,3-0.1,5.1
	c0-3.2-1.1-5.4-3.2-7.1c-3.5-2.9-7.6-4.7-11.9-6.2c-0.2-0.1-0.4,0-0.8,0.1c0.2,0.3,0.3,0.6,0.5,0.8c0.5,0.6,1,1.2,1.6,1.7
	c4.6,3.9,8.4,8.5,11.5,13.6c0.1,0.2,0.3,0.4,0.4,0.6c0.1,0.1,0.2,0.3,0.3,0.4c1.9,2.5,4.3,2.4,6-0.3c1.8-3,1.6-6.3,1.4-9.6
	c-1.2,1.8-0.8,3.9-0.9,5.9c-0.9-1.7-1.6-3.4-0.9-5.2c0.6-1.6,1.4-3.1,2-4.7c0.8-1.8,1.8-3.6,2.4-5.5c1.3-3.7,0.2-6.8-2.9-9.3
	c-2.8-2.3-6-3.8-9.3-5.1c-1-0.4-2-0.8-2.9-1.5c-1.6-1.2-1.6-2.9-0.1-4.7c0.2,0.7,0.3,1.4,0.6,2.5c0.2-4.4,0.1-5-0.8-6.1
	C267.1,166.9,266.3,171.9,267.1,177.1z M269.2,746.2c0.8,1,1.6,1.8,2.2,2.8c2.3,3.8,5.5,6.7,9.2,9c5.4,3.4,11.1,4.1,17,1.2
	c0.8-0.4,1.7-1,2.1-1.8c1.4-2.8,2.6-5.7,3.9-8.6c0.2-0.5,0.4-1.1,0.2-1.6c-0.8-2.2-1.8-4.4-2.7-6.6c-3.1,1.1-6,0.6-8.8-0.7
	c-1.5-0.7-3-1.2-4.6-1.6c-0.7-0.2-1.5,0-2.2,0.3c-2.2,1.2-4.3,2.5-6.4,3.8c-2.5,1.6-3.8,1.6-6.1-0.2c-1.2-0.9-2.2-1.8-3.4-2.9
	C269.4,741.7,269.3,744,269.2,746.2z M288.7,180.9c-2.7,2.5-2.7,3.4,0.1,5.5c0.4,0.3,0.9,0.6,1.3,1c2,2.1,3.3,4.5,3.2,7.5
	c0,0.2-0.2,0.3-0.4,0.5c-0.4-0.6-0.8-1.1-1.3-1.9c-0.1,1.8-0.1,3.1-0.3,4.4c-0.1,1.4-0.4,2.8-0.5,4.2c-0.2,3.1,1.4,4.6,4.4,4.6
	c1.5,0,2.7-0.8,3.6-1.9c1.1-1.3,2.1-2.7,3.1-4.1c3.2-5,5.9-10.2,6.4-16.2c0.1-0.8,0.3-1.6-0.5-2.5c-2.2,5.4-4.3,10.6-6.5,15.9
	c-0.3-0.8-0.3-1.5-0.1-2.1c0.6-2,1.3-4,2-5.9c1.2-3.3,2.6-6.5,3.8-9.8c0.8-2.1,0.4-2.9-1.8-3.9c-0.4,1.5-0.7,3-1.2,4.9
	c-0.6-1.6-0.7-2.8-0.4-4.1c0.3-1.6,0.7-3.2,0.8-4.8c0-1.2-0.2-2.5-0.7-3.6c-1.3-2.6-5.7-4.5-9-4.1c-0.2,1.8-0.4,3.6,0,5.5
	c1.5-0.6,1.2-2.6,2.9-3c0.2,1.9-0.7,3.2-1.6,4.6c-1.8,2.8-3.7,5.5-5.4,8.4c-1.1,1.9-0.5,3,1.6,3.6c0.5,0.1,1.1,0.1,1.6,0.3
	c0.9,0.2,1.8,0.6,2.7,0.8C291.7,185.4,289.5,184.3,288.7,180.9z M228.4,285.1c3.4-2.3,6.6-4.5,9.9-6.6c4.7-3,9.9-5.1,15.3-6.5
	c3.5-0.9,7-2.1,10.2-3.1c0.4-1.1,0.7-1.8,1.1-2.6c0.5-1,0.2-1.8-0.6-2.5c-0.5-0.4-1.1-0.9-1.8-1.1c-4-1.5-8-2.9-12-4.4
	c-0.5-0.2-1-0.1-1.6-0.1c0.1,0.9,0.2,1.6,0.2,2.3c0,1.8,0,3.6,0,5.3c0,1.3-1,1.8-2.1,2.2c-1.1,0.3-1.9,0.4-2.9-0.6
	c-2.8-3-6.4-4.1-10.4-4.6C232.9,270.5,231,277.9,228.4,285.1z M277.2,208.6c0.2,3.4,0.6,6.8,0.6,10.1c-0.1,4,1.8,7.1,4.2,10
	c0.8,1,1.7,1.1,2.6,0.4c1.4-1,2.9-1.9,3.8-3.3c2.5-3.6,4.6-7.3,6.9-11c0.2-0.3,0.3-0.7,0.3-1.1c0-1.8,0-3.7,0-5.7
	c-0.6-0.1-1.3-0.2-2-0.4c-3.1-0.9-4.2-2.4-4.1-5.6c0-0.8,0.2-1.5,0.3-2.3c0-0.7,0-1.3,0-2.1c-2.2,0.2-4.3,0.3-6.6,0.5
	c-0.1,1.1-0.1,2.2-0.2,3.3C282.4,204.8,281.7,208.2,277.2,208.6z M307,260.7c0.9,0.7,1.4,1.1,2,1.5c2.8,1.6,5.6,3.3,8.5,4.9
	c1.1,0.6,2.3,0.8,3.6,0.4c5-1.8,9.9-3.5,14.8-5.5c1.8-0.7,3.4-2.1,4.9-3.5c2-1.9,1.5-3.6-1.1-4.7c-5.5-2.3-11.2-2.1-16.9-1.1
	c-4.9,0.9-9.6,2.4-13.5,5.9C308.5,259.1,307.9,259.7,307,260.7z M281.2,680.3c0.8,3.5,1.5,6.6,2.1,9.8c0.5,2.8,1.4,5,4.6,5.9
	c1.6,0.4,3.1,0.8,4.7,0.3c0.9-0.2,1.7-0.7,2.6-0.9c1.4-0.4,2.2-1.4,2.5-2.7c0.3-1.4,0.7-2.9,0.9-4.3c0.8-5,1.5-10,2.4-14.9
	c0.4-1.9,0.4-3.6-0.9-5.3c-0.8,1.8-1.6,3.4-2.4,5.1c-0.9,1.8-2.3,3.3-4.1,4.4c-1.8,1-3.7,1.1-5.4-0.2c-1.8-1.3-2-1.3-3.2,0.4
	C284.3,679.2,283.2,680.2,281.2,680.3z M193.5,440.8c0.5-2,0.8-3.6,1.3-5c1.2-3.4,2.6-6.8,3.8-10.2c1.2-3.2,2.3-6.4,3.4-9.6
	c0.8-2.5,1.1-5.1,0.5-7.7c-5.6-1.6-9.6-0.3-12.5,1.8c-0.9,0.7-1.7,1.6-2.6,2.3c-1,0.7-1.5,1.5-1.5,2.7c0,1.5,0,3-0.3,4.4
	c-0.5,2.6-1.2,5.2-1.9,8c3.2,1.4,3.9,5.3,6.3,7.9c0.7-1.3,0.9-2.3-0.1-3.4c-0.8-1-1.3-2.3-2-3.4c-0.6-0.8-0.6-1.5-0.1-2.3
	c1.2-1.9,1.8-4,1.8-6.3c2.1-0.6,2.5-0.5,3.8,1.1c-0.1,1.2-0.2,2.1-0.3,3.1c-0.1,1.8-0.1,3.6-0.3,5.3c-0.2,1.8-0.7,3.6-1.1,5.5
	C191.3,436.9,191.7,438.8,193.5,440.8z M280.7,537.1c0.2-6.3,0.4-12.5,0.4-18.7c0.1-6.2,0-12.3,0-18.5c-2.8-0.8-5.5-1.8-8.3-2.3
	c0.3,6.9,0.4,13.5,0.7,20c0.3,6.6-1.5,13-2.1,19.5C274.5,537.1,277.4,537.1,280.7,537.1z M271.4,739.1c1.4,1,2.7,1.9,4.1,2.7
	c0.7,0.5,1.4,0.3,2.2-0.1c2.2-1.3,4.4-2.5,6.5-4c1.4-0.9,2.7-1.2,4.1-0.7c1.9,0.6,3.8,1.5,5.7,2c1.5,0.4,3.2,0.7,4.8,0.7
	c1.3,0,1.7-0.6,1.4-1.8c-0.3-1.3-0.7-2.8-1.5-3.8c-1.9-2.4-4-4.5-6-6.7c-1.2-1.3-2.6-1.9-4.4-1.4c-1.2,0.3-2.5,0.5-3.7,0.4
	c-2.1,0-3.4,0.9-4.6,2.4c-2.4,3-5,5.9-7.6,8.8C272.2,738.1,271.9,738.5,271.4,739.1z M331.9,277.4c-0.8,2.8,0.2,34.3,1.6,38.4
	c0.2-0.6,0.4-1,0.6-1.4c1.8-6.9,4.1-13.6,7.6-19.9c0.2-0.3,0.3-0.7,0.5-1.1c0.6-1.1,0.5-2.2-0.1-3.3c-2.2-4.7-5.5-8.6-9.1-12.2
	C332.7,277.8,332.4,277.7,331.9,277.4z M291.9,650.4c-5.7,0.6-10,3.5-13.3,8c-0.2,0.3-0.3,0.7-0.2,1.1c0.3,2.9,0.6,5.7,1,9.1
	c0.9-1.4,1.6-2.3,2.2-3.3c0.9-1.4,2-2.1,3.7-1.5c2.1,0.7,4.2,0.3,6.4-0.1c1.7-0.3,3.5-0.1,5.3-0.1c0.5,0,1,0.2,1.9,0.4
	C296.4,659.2,294.2,654.8,291.9,650.4z M298.4,665.8c-2.6-1.4-3-1.5-5.3-1c-2.8,0.6-5.6,1-8.5,0.3c-0.4-0.1-1.1,0.2-1.4,0.5
	c-2,2.4-4.3,4.7-3.1,8.3c0.2,0.5,0.2,1.1,0.3,1.6c0.1,0.7,0.2,1.4,0.4,2.1c0.5,1.5,1.4,1.7,2.6,0.7c0.6-0.6,1.1-1.3,1.7-1.9
	c1.5-1.5,2.3-1.6,3.9-0.2c1.4,1.2,2.5,1.3,4,0.3C296.6,673.9,298.3,670.3,298.4,665.8z M229.2,315.2c4.4-10.5,7.3-21.3,6.2-32.8
	c-4,2.1-7,5.1-9.3,8.9c-0.4,0.6-0.4,1.5-0.4,2.2c0.1,1.5,0.4,3.1,0.6,4.6C227.3,303.8,229.4,309.3,229.2,315.2z M269.8,737.6
	c0.2,0,0.3,0.1,0.5,0.1c0.3-0.3,0.5-0.5,0.8-0.8c2.5-2.8,4.9-5.8,7.6-8.5c1.8-1.9,2.7-3.9,2.1-6.6c-0.4-1.6-0.4-3.3-0.5-5
	c-0.1-1-0.2-2-0.1-2.9c0.3-1.7,0.1-3.2-0.8-4.8c-2.6,1.4-4.7,3.4-7,5.1c-0.9,0.7-1.1,1.5-1.1,2.6c0.3,5.1,0.2,10.2-0.8,15.2
	C270.1,733.9,270,735.8,269.8,737.6z M305.5,351.7c2.3-0.8,3.8-2.1,5.3-3.4c0.9-0.8,1.5-1.7,1.6-3c0.1-2.3,0.3-4.6,0.2-6.9
	c0-3-1.3-5.6-3.6-7.5c-1.4-1.2-2.8-2.4-4.3-3.5c-2.5-1.7-4.8-3.6-6.5-6.2c-0.6-1-1.5-1.8-2.4-2.9c-0.7,0.8-1.2,1.3-1.9,2
	c3.2,1.9,4.6,4.8,6.2,7.6c0.5,0.9,0.9,2,1.4,2.9c0.7,1.4,1.1,3.1,2.6,4c0.3,0.2,0.4,0.6,0.6,1c0.8,1.8,1.7,3.7,2.4,5.5
	c1,2.6,1,5.1-0.3,7.6C306.4,349.7,306,350.5,305.5,351.7z M280.3,538.5c-1.7-0.1-3.2-0.3-4.6-0.3c-1.4,0-2.9,0.2-4.4,0.3
	c-0.2,2.1,0,3.8,0.4,5.5c1.4,5.8,2.7,11.6,3.8,17.4c0.7,3.5,1.1,7.2,1.6,10.8C278.1,561,279.2,549.8,280.3,538.5z M271.3,164.6
	c0,1.9,0,3.5,0,5.3c6.2,2.2,11.8,5.2,15.1,11.7c2.2-3.1,4.2-6,6.2-8.8c0.3-0.4,0.6-1,0.6-1.5c0.1-2.4,0-4.8,0-7.3
	c-1,1.2-2,2.4-3,3.5c-1,1-2,1.8-3.6,1.8c-1.8,0-3.5,0.5-5.3,0.6c-1,0-2.3-0.1-3.1-0.6c-2-1.3-4.3-2.1-5.9-4.1
	C272.1,164.9,271.8,164.9,271.3,164.6z M343.1,287.1c-4.1-7.2-6.1-14.9-8.5-22.4c-4.4,1.4-8.6,2.8-13,4.2c4.1,2.5,8.3,4.6,11.8,7.5
	C336.9,279.4,339.7,283.3,343.1,287.1z M275,300.8c-1.4,1.4-2.3,2.9-3.6,3.4c-1.4,0.5-3.1,0.1-4.8,0.1c0,0.7-0.1,1.4,0,2.1
	c0.7,3.2,1.4,6.5,2.2,9.7c0.5,2,1.8,2.4,3.4,1.1c1.7-1.3,3.4-2.6,5.3-4.1C276.8,309.4,275.9,305.2,275,300.8z M266.9,317.4
	c-0.5-6-1-11.9-1.6-17.8c-0.2-1.8-1.6-3.2-3.7-3.6c-0.2,0.5-0.5,1.1-0.6,1.7c-0.6,2.1-1.1,4.2-1.7,6.3c-0.5,1.7-0.4,3.4,0,5
	c0.5,1.9,1.4,3.8,2.2,5.6c0.2,0.4,0.6,1,0.8,1c1.4,0,1.9,1.2,2.6,2.1C265.7,317.5,266.5,317.5,266.9,317.4z M304.8,750.6
	c-0.1,0-0.2-0.1-0.3-0.1c-0.6,1.3-1.1,2.7-1.8,3.9c-1.3,2.5-2.7,4.9-5.4,6.2c-3.9,1.9-8,2.3-12.2,0.8c-6.1-2.2-11-6-14.7-11.3
	c-0.3-0.5-0.7-0.9-1.4-1.8c-0.2,1.7-0.3,2.9-0.3,4.1c0,0.5,0.2,1.2,0.5,1.4c3.1,2.3,6,5,9.4,6.8c5.7,3.1,12,4,18.5,3.3
	c2.1-0.2,3.6-1.1,4.7-2.9c1.6-2.8,2.5-5.8,3.1-9C304.8,751.7,304.8,751.1,304.8,750.6z M297.9,731.4c0.1-0.1,0.2-0.1,0.3-0.2
	c-0.1-0.5-0.2-1-0.4-1.5c-1.5-3.4-2.4-7-2.9-10.7c-0.2-2-0.9-3.9-1.6-5.8c-0.8-2.4-2.8-3.4-5.1-4.1c-0.5,2.5-0.4,2.5,0,4.7
	c0.4,2.7,0.1,5.4,0.7,8.1c0.2,0.7,0.1,1.5,0.1,2.4c3,0.1,4.7,1.9,6.2,4.1C296,729.6,297,730.5,297.9,731.4z M292.3,301.5
	c0,0.2,0.1,0.4,0.1,0.6c0.2,0.1,0.4,0.1,0.7,0.2c0.9,0,1.9,0.3,1.9,1.3c0,0.7-0.7,1.4-1.3,1.9c-0.6,0.5-1.5,0.7-2.1,1
	c0.2,3.1,0.4,6,0.6,9c1.5,0.8,3.1,0.4,4.9,0.1c1.9-4.7,3-9.5,2.7-14.8C297.2,300.4,294.7,300.1,292.3,301.5z M286.1,708.5
	c-1.5-0.1-3.2-0.2-5-0.3c0,0.6-0.2,1-0.1,1.4c0.6,1.8,0.8,3.6,0.1,5.4c-0.1,0.2,0,0.5,0,0.7c0.5,3.1,1,6.1,1.5,9.4
	c1.6-0.1,3-0.2,4.4-0.3c0-0.9,0-1.5,0-2.1c0.1-2.7-0.9-5.2-0.5-7.9C286.8,712.8,286.3,710.8,286.1,708.5z M279.7,313.4
	c1.5,0.4,2.9,0.6,4.1,1.1c2.2,1.1,4.3,0.8,6.5,0.6c0.7-3.6,0.5-6.3-0.6-8.4c-3.5,0.6-6.8,2.6-10.7,1.7
	C279.2,310.2,279.4,311.8,279.7,313.4z M300.6,349.8c0.6-3.3,1.3-6.6,1.9-9.9c0.2-1-0.1-2-0.3-3c-0.7-3.7-2.6-6.9-4.3-10.2
	c-1.2-2.3-3-4.1-5.5-5.1c-0.6,0.6-1.2,1.1-1.8,1.7c0.1,0.2,0.1,0.3,0.1,0.3c0.2,0.1,0.4,0.3,0.6,0.4c4.3,3,7.3,7,8.2,12.2
	c0.4,2.5,0.4,5.1,0.5,7.6C299.9,345.8,299.6,347.8,300.6,349.8z M271.2,320.4c-1.4,0.9-2.2,1.8-2.5,3.2c-0.8,3.3,1.8,8.8,4.7,10.4
	c1.1,0.6,1.9,0.5,2.7-0.3c1.4-1.4,2.8-2.9,4.2-4.4c0.3-0.3,0.5-0.8,0.8-1.4C273.7,328.8,271.6,327.2,271.2,320.4z M239,494.3
	c-1.5,0.9-2.9,1.7-4.2,2.7c-2.2,1.6-2.4,4.1-0.6,6c1.9,2,4.3,3.5,7.3,4.4C240.6,503,239.8,498.8,239,494.3z M305.4,316.1
	c-0.7-5.7-1.1-10.8-2.2-16.1c-0.9,0.3-1.5,0.4-2.1,0.6c0.1,5.3-0.1,10.3-2.6,15.5c1.2,0,2.1,0.3,2.7-0.1
	C302.5,315.4,303.7,315,305.4,316.1z M290,195.9c0.8-6.1-0.1-8.2-4-9.7c-0.7,1.5-1.2,3-2,4.4c-1.2,1.9-1.1,3.7-0.4,5.8
	C285.7,196.9,287.8,196.6,290,195.9z M305.3,317.2c-0.8,0-1.9-0.4-2.7-0.1c-1.5,0.6-2.8,0.7-4.2,0.1c-0.3-0.1-0.6,0-1.1,0
	c1.6,2.1,2.9,4,4.5,5.8c1.6,1.9,3.8,2.9,5.8,4.3C306.8,324,306.1,320.8,305.3,317.2z M400.5,408.2c0.7-2.6,1.3-4.9,2-7.2
	c0.1-0.2,0.1-0.5,0.1-0.7c-0.3-1.4-0.6-2.7-0.9-4.1c0-0.1,0-0.2,0-0.2c0-1.3-0.8-1.8-2-1.7c-0.7,0.1-1.3,0.1-2,0.2
	C397.1,399.4,398.4,403.6,400.5,408.2z M277.3,326.4c2.9,0.5,4.2-0.1,6.1-2.3c2.2-2.6,4.7-4.6,8.3-5.2c0-0.5-0.1-0.9-0.1-1.4
	c-3.3-0.8-6.1,0.2-8.4,2.4C281.1,321.9,279.3,324.2,277.3,326.4z M283.4,651.1c4.1-1.2,8.1-2.3,12.1-3.5c-1.6-1.7-3-3.2-4.6-4.8
	C287.9,645.1,285.5,647.8,283.4,651.1z M257.5,130.6c-0.3,0.1-0.5,0.1-0.8,0.2c-0.1,0.8-0.3,1.6-0.3,2.4c0.2,2.8,0.5,5.5,0.8,8.3
	c0.1,0.6,0.2,1.3,0.6,1.7c0.9,0.9,2,1.6,3,2.3c1.1-1,0.6-2,0.5-3c-0.2-2.2-0.6-4.3-0.7-6.4C260.6,133.5,258.8,132.3,257.5,130.6z
	 M278.2,705c-6.1,3.6-13.1,10.6-13.7,14c1.6-0.8,2.5-2.1,3.6-3c1.2-1,2.3-2,3.5-3c1.3-1,2.6-2,3.8-3c1.2-1,2.3-2,3.5-3
	C278.7,706.3,278.5,705.7,278.2,705z M284.9,316.4c-2.2-0.8-4.2-1.2-6.3-1c-3.1,0.3-5,2.2-5.2,5.2c2.1-0.8,4.3-1.6,6.2,0.2
	C281.3,319.4,282.9,318,284.9,316.4z M301.5,353.3c5.7-5.1,5.4-10.1,2.4-14.6C303.8,343.6,301.7,348,301.5,353.3z M309,326.6
	c0.6-0.3,1-0.5,1.3-0.8c2.8-2.4,5.5-4.8,9.4-4.9c0.4,0,0.8-0.6,1.2-1c-5.1-1.2-9.1,1.1-13.2,3.5C308.3,324.5,308.6,325.5,309,326.6z
	 M279.7,702c0.2,4.1,1.1,5,4.1,5.1c2,0,3-0.8,2.3-3.3c-0.4-1.6-1.2-2.2-2.9-2.1C282.1,701.7,280.9,701.9,279.7,702z M298.4,711
	c0.6-0.7,0.1-1.3-0.6-1.7c-2.9-2.1-5.8-4.1-9.5-4.1c-0.1,2.2-0.1,2.2,1.6,3c0.8,0.4,1.6,0.9,2.4,1.3c0.5,0.2,0.9,0.5,1.5,0.6
	C295.3,710.4,296.8,710.7,298.4,711z M275.1,92.1c5.5-1.4,10.8-1,16,1.6c0-2.3,0-2.4-1.5-2.8c-2.3-0.6-4.7-1.2-7-1.3
	C279.9,89.7,277.3,90.4,275.1,92.1z M195.4,438.5c3.1-0.5,5.9,0.1,9.1-0.7c-2.6-2.5-5.6-1.7-8.3-2.2
	C195.9,436.6,195.7,437.4,195.4,438.5z M191.2,430.7c0.8-3.1,1.1-5.9,0.8-8.7c0-0.3-0.6-0.5-0.9-0.8c-0.7,2.2-1.3,4.2-2,6.3
	C189.7,428.5,190.3,429.4,191.2,430.7z M275.3,326.4c1.2-1.6,2.3-2.9,3.5-4.6c-1-0.2-1.7-0.4-2.3-0.4c-1.3,0-2.8,0.2-3.3,1.6
	C272.7,324.5,274,325.3,275.3,326.4z M252.3,321.6c-2.2-1.7-4.1-3.5-6.7-4.1c-0.7,1.3-0.5,2,0.7,2.6c1,0.5,1.8,1.4,2.7,2.1
	C250.1,323.1,250.8,323,252.3,321.6z M297.1,698.9c0.4-1,0.8-2.1,1.2-3.2c-2.9,0.9-5.6,1.8-8.3,2.7c0.5,1,1.5,0.9,2.5,0.8
	C294,699.1,295.3,699,297.1,698.9z M305.1,137.9c-1.1,2.9-2.5,5.8-2,9.2c1.5-1.2,2.4-2.5,2.2-4.4
	C305.2,141.1,305.2,139.5,305.1,137.9z M312.2,513.6c1.8-1.1,3.2-1.8,4.4-2.8c1.3-1,1.1-1.9-0.5-3C314.1,509,313,510.9,312.2,513.6z
	 M407,406.6c-1.5,2.5-1.4,4.9-2.1,7.3C407.8,412.8,407.9,412.6,407,406.6z M256.7,313.6c1.8,0.3,2.1,2.4,4,2.8
	c-0.9-2.6-1.8-4.9-2.7-7.5C257.5,310.7,257.1,312.1,256.7,313.6z M298.5,157.7c-1.3,1.5-3.6,2.4-3.4,5c1,0.1,1.8,0.1,2.5,0.2
	C297.9,161,298.2,159.3,298.5,157.7z M300.5,685.3c0.2,0,0.4,0.1,0.6,0.1c0.6-3.2,1.2-6.5,1.8-9.8c0.1-0.5-0.2-1-0.3-1.5
	c-0.1,0-0.2,0.1-0.4,0.1C301.6,677.9,301.1,681.6,300.5,685.3z M196.5,434.4c2.3,0.2,4.4,0.4,6.6,0.6c-0.2-0.7-0.3-1.1-0.4-1.5
	c-1.1,0-2.1-0.1-3,0C198.7,433.7,197.6,432.4,196.5,434.4z M303.5,138c0.5-1.4,1.2-2.4,1.3-3.5c0.1-1.1,0.1-2.5-1.3-3.8
	C303.5,133.4,303.5,135.5,303.5,138z"/>
<path class="st0" d="M289.3,324.2c4.5,3.2,8,7.3,8.9,13c0.4,2.8,0.4,5.7,0.4,8.6c0,2.3,0,4.7,1.1,6.8c1,2,1.8,2.4,3.9,1.8
	c3.7-1.1,6.6-3.3,9.2-6.1c0.6-0.6,1-1.7,1-2.5c0.1-3.1,0.3-6.2,0.1-9.3c-0.2-2.6-1.7-4.6-3.5-6.4c-0.6-0.6-1.4-1-1.9-1.7
	c2.3-0.8,3.6-2.4,5.1-3.6c2.1-1.7,4.4-2.8,7.5-2.3c0.1,0.5,0.3,1.1,0.4,1.7c1.4,10.4,2.6,20.7,4.1,31.1c1.2,8.9,2.9,17.7,4,26.6
	c0.6,4.6,0.5,9.3,0.8,13.9c0.9,13.8,0.9,27.6,0.9,41.4c0,2.3-0.3,4.3-1.3,6.5c-2.5,5.1-4,10.6-5.1,16.1c-1.5,7.6-2.6,15.3-4,22.9
	c-0.1,0.5-0.2,1-0.3,1.8c-3.7-2.3-7.6-2-11.4-1.6c-6.4,0.6-12.5-0.4-18.6-2.2c-2.4-0.7-4.8-1.7-7.1-2.8c-7.6-3.6-15.3-6.8-23.6-8.3
	c-7-1.3-13.9-1.3-20.7,0.8c-3.7,1.1-7,2.9-9.9,5.4c-0.2,0.2-0.5,0.3-1,0.7c-0.3-0.8-0.6-1.5-0.8-2.2c-0.9-4.1-1.9-8.1-2.6-12.3
	c-1.1-6.6-3.2-12.9-5.5-19.2c-0.5-1.3-0.6-2.5-0.5-3.8c1.2-10,2.4-20,3.6-30c0.6-5.5,1.2-11.1,1.6-16.7c1-14.2,4.3-27.8,9.6-41
	c1.9-4.7,3.8-9.5,5.8-14.2c2-4.7,3.5-9.6,4.6-14.6c0.1-0.4,0.3-0.9,0.4-1.5c2,0.6,3.3,1.9,4.8,2.9c1,0.7,1.9,1.4,3.3,0.8
	c1.1-3.1,2.1-6.3,3.2-9.4c1.1-0.4,1.8-0.1,2.2,0.9c0.5,1.2,1.6,1.6,2.7,1.2c1.7-0.6,2.8-0.1,3.6,1.2c1.8,0.2,3.3,0.4,4.9,0.6
	c-0.1,0.2-0.2,0.5-0.3,0.6c-2.7,2.5-2.7,5.5-1.5,8.6c1,2.7,2.2,5.3,5,6.8c1.9,1,2.9,1.1,4.4-0.4c2.2-2.3,4.3-4.7,6.2-7.2
	c0.9-1.2,1.8-2.2,3.4-2.6C287.3,325,288.1,324.6,289.3,324.2z"/>
<path class="st0" d="M284.9,700.5c-2.4-0.5-4.5,0.3-6.7,1.3c0.3,1.3-0.4,1.9-1.5,2.5c-1.7,1-3.3,2.3-4.9,3.4
	c-0.4,0.2-0.8,0.4-1.5,0.9c0-1.4-0.2-2.5,0-3.5c1-4.5,0.7-9,0.3-13.4c-1.6-16.8-5.1-33.2-8.8-49.6c-1.8-7.8-4.6-15.3-7-22.9
	c-2.9-9.4-6-18.7-8.9-28.2c-2.1-7-3.3-14.1-3.6-21.5c-0.3-8.5,0-16.9,1-25.3c0.4-3.6,1.1-7.2,1.6-10.8c0.1-0.9,0.2-1.8,0.2-2.8
	c0-8-0.9-15.9-2.4-23.8c-0.7-3.3-1.3-6.7-1.9-10c-0.2-1-0.2-2-0.3-3.2c3.6-1.4,6.9-2.8,10.9-2.6c6.5,0.3,12.4,2.6,18.2,5.3
	c1.6,0.7,2,2.2,2.1,3.8c0.1,3.1,0.1,6.2,0.2,9.3c0,1.6,0.2,3.2,0.3,4.9c0.3,6.2-0.3,12.4-1.5,18.5c-0.4,1.9-0.7,3.8-0.7,5.8
	c0,2.1,0.2,4.2,0.7,6.2c2.3,8.5,3.8,17.1,4.9,25.8c0.8,6.6,1.6,13.2,1.5,19.9c-0.1,5.8-0.2,11.6-0.4,17.4c-0.2,6-0.4,12.1-0.8,18.1
	c-0.6,9.3-0.2,18.6,0.6,27.9c0.9,11.2,2.3,22.4,4.8,33.3C282.3,691.6,283.7,695.9,284.9,700.5z"/>
<path class="st0" d="M341.9,461.5c0,2.3,0.1,4.6,0,6.9c-0.4,9.5,1.2,18.7,3.1,27.9c1.7,8.4,3,16.9,4.6,25.4
	c1.3,7.2,2.8,14.3,4.3,21.4c1.5,7,3.3,13.9,5,20.8c0.8,3.3,0.4,4.6-2.5,6.5c-3,2-6.2,3.9-9.3,5.7c-1,0.6-2.1,1-3.2,1.2
	c-3.3,0.7-6,2.3-8,5.2c-0.2,0.3-0.5,0.5-1,0.9c-1.4-3.5-2.1-6.9-1.8-10.5c0.7-8.4,1.6-16.8,2.2-25.2c0.3-4.3,0.4-8.7,0.1-13
	c-0.4-8.4-1.3-16.7-1.7-25c-0.3-6.9-0.5-13.8-0.3-20.7c0.5-23-0.3-46.1-0.5-69.1c-0.1-11.2-0.6-22.3-1.4-33.5
	c-0.4-6.2-1.9-12.4-2.9-18.6c-1-6.4-1.9-12.9-2.8-19.3c-0.9-6.5-1.8-13-2.6-19.6c0-0.3-0.1-0.6-0.1-0.9c-0.3-9.2-2.4-18.1-4-27.1
	c-1.1-5.9-1.8-11.8-2-17.8c-0.1-4.1,0.5-8.2,0.8-12.3c0-0.5,0.3-1,0.4-1.6c2.7-0.1,3.8,2.6,5.9,3.4c2.1,0.8,4.1,2.2,6.2,3.4
	c0,0.7,0,1.3,0,1.9c0,6.4-0.1,12.9,0.2,19.3c0.4,10.7,1.4,21.3,2.8,31.9c0.7,5.5,1.2,10.9,1.9,16.4c1,7.7,2,15.4,3.1,23
	c1.2,8.6,2.2,17.2,3.6,25.8c1.3,8.3,2.9,16.5,4.5,24.7c1.3,6.8,2.9,13.7,3.3,20.6c0.2,4.6,0.2,9.1,0.1,13.7
	c-0.1,6.2-0.2,12.4-0.4,18.6c-0.1,2.9-0.2,5.7-0.5,8.6c-0.6,6.7,0.4,13.3,0.5,20c0.1,2.9,0,5.9-0.4,8.8c-1.5-8-3.3-15.9-4.4-23.9
	c-1.1-7.9-1.5-16-2.2-24C342.3,461.5,342.1,461.5,341.9,461.5z"/>
<path class="st0" d="M247.3,200.6c-2.8,5.6-5.8,11.1-8.4,16.7c-2.6,5.6-4.9,11.3-7.5,16.9c-0.4-10.7-1.5-21.4-3.6-31.9
	c-0.5,1.4-0.2,2.7-0.1,4.1c0.6,6.4,1.2,12.8,1.8,19.2c0.3,4,0.5,8,0.7,12.1c0,0.4,0,0.9-0.2,1.3c-1.6,4.6-3.3,9.1-4.9,13.7
	c-1.8-0.6-3.8-1.4-6.2-2.2c-0.4-6.4,1.1-13.2,1.4-20c0.3-6.9,0.7-13.7,1.8-20.7c-0.3,0.8-0.8,1.5-0.9,2.3c-0.7,3.9-1.4,7.8-1.8,11.7
	c-0.7,7.5-1.3,15-1.9,22.5c-0.2,2.4-0.4,4.8-0.4,7.1c0,0.8,0.6,1.7,1,2.5c0.5,0.8,1.3,1.5,1,3.1c-0.9-0.9-1.7-1.6-2.2-2.4
	c-1.3-2.3-2.6-4.6-3.6-7c-1.4-3.3-2.6-6.6-4-9.9c-1.8-4.4-4.2-8.5-7.7-11.8c-1.3-1.3-1.2-1.8,0-3.3c3.8-5.2,7.6-10.4,11.3-15.6
	c2.1-3,4.1-6.2,6.1-9.3c1.2-1.8,2.7-2.8,4.8-3.3c5.5-1.5,11-3.2,16.5-4.7c4.3-1.2,8.2-3.1,11.9-5.6c0.7-0.5,1.4-0.9,2-1.3
	c2.9,1.3,4.4,3.7,5.8,6.3c-1.9,0.5-2.4,2-2.4,3.7c0,2.7,0,5.4,0.2,8.1c0.5,6.5,1.2,13,1.7,19.5c0.7,9.1,2.1,18.2,4.5,27
	c1.1,4.1,1.9,8.3,2.1,12.6c0,0.4,0,0.7-0.1,1.3c-12.3-7.3-24.9-8.7-38-3.3c0,0.2,0,0.3,0,0.5c0.5,0,0.9,0,1.3-0.1
	c4.4-1.2,8.9-2.2,13.5-2.4c1.4-0.1,2.9,0,4.4,0c0.3,2.8,0.8,5.2,0.3,7.7c-0.1,0.5-0.3,1.1-0.7,1.3c-0.4,0.1-1.1-0.1-1.4-0.4
	c-3.4-3.7-8-4.5-12.7-4.9c-1.4-0.1-2.8,0-4.2-0.1c-2.4-0.2-3.1-1.1-2.8-3.5c0.7-5.8,2.3-11.4,4.6-16.7c2.2-5.3,4.2-10.7,6.4-16
	c1.8-4.2,3.9-8.3,5.8-12.4c1.6-3.5,3.1-7.1,4.6-10.7c0.2-0.4,0.2-0.8,0.3-1.3C247.5,200.7,247.4,200.7,247.3,200.6z"/>
<path class="st0" d="M253,274.2c-1.6,5.2-2.5,10.4-2.9,15.7c-0.1,1.7-0.1,3.4-0.4,5.1c-0.6,3.2-1.3,6.4-2.1,9.5
	c-1.2,4.9-2.7,9.7-3.8,14.6c-1.6,7.2-3.8,14.2-6.7,21c-3.6,8.5-7.2,17-9.7,25.9c-2,7.3-3.3,14.6-4.1,22.1
	c-1.4,12.9-2.9,25.7-4.4,38.6c-1.4,12.4-3,24.8-4.2,37.2c-0.6,6.2-0.6,12.4-0.7,18.6c-0.3,14.3-2.7,28.4-6.5,42.2
	c-0.2,0.7-0.4,1.4-0.6,2c-3.5,8.4-5.9,17.1-7.9,26c-0.2,0.9-0.5,1.8-1.1,2.6c0.2-1.3,0.3-2.6,0.5-3.8c1.9-9.1,2.3-18.3,2.7-27.5
	c0.3-6,0.8-12.1,1.5-18.1c0.7-7.1,1.6-14.2,2.6-21.2c0.9-6.3,2-12.5,3-18.8c1.3-8.1,1.3-16.2,0.9-24.4c-0.1-1.9-0.1-3.7-0.2-5.6
	c-0.9-13.4,0.2-26.6,2.1-39.8c1.2-8.2,2-16.5,3-24.7c0.5-3.9,1-7.8,2.3-11.6c0.6-1.7,0.6-3.5,0.9-5.2c0.3-1.9,0.5-3.9,1.2-5.6
	c1.6-3.8,2.6-7.9,4.3-11.7c1.6-3.8,3.1-7.8,4.6-11.7c1.5-3.9,3.1-7.8,4.4-11.7c1.7-5.2,3.4-10.5,4.7-15.8c0.7-3,0.5-6.2,0.6-9.2
	c0.1-2,0-4,0-6c0-0.8,0.1-1.5,0.9-2c4.5-2.8,9.1-5.3,14.3-6.5C252.4,274.2,252.6,274.2,253,274.2z"/>
<path class="st0" d="M307.5,257c0.3-3.8,0.5-7.5,0.8-11.3c0.6-7,1.3-14,1.7-21.1c0.7-12.2,1.2-24.3,1.7-36.5
	c0.1-1.8,0.3-3.5,0.5-5.2c0.2,0,0.3,0,0.4,0c4.5,3.6,9.8,5.4,15.3,7c5,1.5,9.9,3.6,14.8,5.5c0.7,0.3,1.3,0.9,1.8,1.4
	c3.3,4.4,6.6,8.8,9.9,13.2c2.1,2.7,3.7,5.7,5.1,8.9c1.5,3.5,3,7,4.5,10.5c0.5,1.2,1.2,2.3,2,3.7c-6.1,8.8-14.1,16.2-22.1,24.4
	c0-3.8-1.9-6.4-2.8-9.2c-1.8-5.5-3.6-11.1-5.4-16.6c-2-6-4-11.9-6.1-17.8c-0.7-1.9-1.5-3.7-2.4-5.6c-2.6-5.5-5.2-11.1-7.9-16.6
	c-0.9-1.8-1.7-3.7-3.3-5.2c4,11,10,21.2,13.8,32.3c3.8,11.1,7.4,22.3,11.2,33.8c-3.6-1.4-7.2-2.8-11.1-2.6c-4,0.2-7.8,0.8-11.7,1.8
	c-3.8,1-7.1,2.9-10.2,5.4C307.8,257.2,307.7,257.1,307.5,257z"/>
<path class="st0" d="M286.7,643.9c-2.9,3.8-5.6,7.4-8.5,11.3c-0.1-0.8-0.3-1.4-0.3-2c-0.3-7.2-0.9-14.4-0.9-21.6
	c0-6.6,0.6-13.2,0.7-19.7c0.2-9,0.4-18,0.4-27c-0.1-8.2,0.6-16.4,1.4-24.5c0.4-4.2,0.9-8.5,1.3-12.7c0.7-6.7,1.8-13.4,1.7-20.1
	c-0.1-6.3,0-12.6,0-18.8c0-2.7,0.2-5.4,0.4-8.3c10.6,1.6,20.7,4.4,31.2,6.8c-3.2,3.7-3.8,8-4.6,12.3c-1.3,6.8-2.3,13.6-2.8,20.5
	c-0.1,1.7-0.2,3.4-0.2,5.1c0,10-2.5,19.5-6.1,28.7c-4.9,12.9-9.5,25.9-13.1,39.2c-2,7.1-3.1,14.4-2.7,21.8
	C284.9,637.9,285.1,641,286.7,643.9z"/>
<path class="st0" d="M335.8,263.9c5.5-2.9,10.3-6.6,14.9-11.2c1.4,4,2.8,7.6,3.9,11.3c1.1,3.4,1.9,6.9,2.8,10.3
	c0.2,0.6,0.3,1.2,0.6,1.8c2.7,5.8,5.3,11.5,8,17.3c8.6,12.4,13.7,26.3,17.5,40.8c0.9,3.2,1.9,6.4,2.7,9.6c1.8,6.5,4.8,12.4,8,18.3
	c2.2,4.1,4.9,7.9,8.2,11.2c1,1,1.2,2.3,1.2,3.6c0,5.5,1,10.8,3.4,15.8c1.8,3.6,1.3,7,0.1,10.6c-1,3-2,6-3,9
	c-0.1,0.3-0.1,0.6-0.2,0.9c-2.2,3.4-4.4,6.7-7.8,9.2c-0.1,0.1-0.3,0-0.6,0.1c-0.1-1.8,0.9-3.1,1.8-4.4c1-1.4,2-2.7,3.1-4.1
	c0.8-1.1,1.1-2.3,1.3-3.7c0.3-2.8,0.8-5.5,1.4-8.2c0.3-1.4,0.6-2.7,0.1-4.1c-0.3-0.9-0.3-1.8-0.5-2.7c-0.3-1.6-0.8-2.1-2.5-2.2
	c-0.8,0-1.7,0-2.6,0c0-1.5,0-2.7,0-4c-1.1,2.2-1.3,4.6-1.3,6.8c0,2.4,0.4,4.9,0.9,7.3c0.5,2.3,1.4,4.5,2.1,6.7
	c-0.2,0.1-0.3,0.2-0.5,0.3c-0.3-0.4-0.8-0.7-0.9-1.1c-1.5-3.4-3.3-6.6-5.5-9.6c-2.5-3.4-3.1-7.6-3.3-11.7c-0.2-4.6,0-9.3-0.1-13.9
	c0-1.7-0.1-3.4-0.2-5.4c-0.6,0.4-0.9,0.6-1.3,0.9c-1.3-2.4-2.6-4.7-3.9-7c-5.4-9.7-10.8-19.5-16.4-29.2c-2-3.5-4.5-6.8-6.9-10.2
	c-2.6-3.7-5.5-7.3-7.9-11.2c-4-6.4-6.3-13.4-7.2-20.9c-0.3-2-0.8-4.1-1.8-5.9c-3.4-6.4-5.1-13.3-7.4-20
	C335.8,264.6,335.8,264.3,335.8,263.9z"/>
<path class="st0" d="M278.4,226c0.7,1.1,1.4,2.2,2.1,3.3c1.2,1.7,2.2,2,4.2,1.3c2-0.8,3.7-2.1,4.9-3.8c1.5-2.1,2.8-4.3,4.1-6.4
	c0.4-0.6,0.8-1.3,1.6-1.8c-0.1,1.4-0.3,2.8-0.4,4.2c-0.5,4.5-1.3,8.9-1.5,13.4c-0.2,3.3,0.2,6.6,0.4,10c0.5,12.6,3.6,24.8,6.5,37
	c1.1,4.5,1.7,9.1,2.6,13.7c0.1,0.4,0,0.9,0.1,1.7c-1.6,0.2-3.2,0.4-4.8,0.5c-1.2,0.1-2.5,0-3.7,0.1c-0.8,0.1-1.7,0.3-2.4,0.7
	c-2.2,1.1-2.1,3,0.4,4.5c-3.8,1-7.2,2.4-10.9,2.9c-1.1,0.1-2.3-0.3-3.4-0.5c-0.7-2.5-1.4-4.9-2-7.3c-1.8-0.1-2.7,0.7-3.5,1.9
	c-0.3,0.5-0.6,1.1-1.1,1.5c-1,1-2.3,1-3.5,0.6c-1.2-0.4-1.2-1.4-1.3-2.5c-0.1-3-1.2-4.6-4.6-6.3c4-11,6.8-22.4,9.4-33.8
	C274,249.1,277.3,237.9,278.4,226z"/>
<path class="st0" d="M231.3,497.8c0.1-6.9-0.7-13.4-2.8-19.9c3.8-3.1,7.9-5.5,12.6-6.7c7-1.7,14-1.5,20.9,0.2
	c6.3,1.5,12.3,3.7,18,6.7c5.5,2.8,11.3,4.7,17.3,5.9c3.3,0.6,6.5,0.3,9.7,0.3c2.6,0,5.3-0.1,7.9-0.1c1.7,0,3.2,0.6,4.5,1.7
	c0.4,0.4,0.8,1.2,0.8,1.8c-0.7,6.4-1.4,12.8-2.2,19.2c-2.7-0.7-5.2-1.4-7.7-2c-8.8-2-17.7-3.8-26.5-5.8c-5.7-1.3-11.4-2.8-16.8-5.3
	c-5.6-2.6-11.5-4-17.7-4.2c-0.8,0-1.7,0-2.5,0.2C241.1,491,235.9,493.4,231.3,497.8z"/>
<path class="st0" d="M302.1,137.5c-0.2,2.7-0.3,5.4-0.5,8.1c-0.4,4.7-2,9-5.3,12.6c-2,2.2-3.7,4.7-5.5,7.2c-1.3,1.8-3,2.9-5.2,3.1
	c-3.1,0.4-5.9,0.3-8.8-1.5c-2.8-1.7-4.9-4-7.2-6.1c-1.6-1.5-2.5-3.4-3.3-5.5c-0.4-1.2-1-2.2-1.5-3.4c-1.1-2.7-2.6-5.3-2.1-8.4
	c0.2-1.1-0.1-2.3-0.4-3.4c-0.9-4.4,0.1-8.6,1.2-12.8c0.4-1.6,0.7-3.3,0.8-5c0.4-5.4,3.6-8.5,8.2-10.6c0.4-0.2,1.1-0.2,1.5,0.1
	c1.6,1.1,3,0.6,4.5-0.4c0.6-0.4,1.5-0.7,2.1-0.5c1.8,0.6,3.5,0.1,5.3,0c2.4-0.2,4.9-0.2,7.3-0.2c0.5,0,1.2,0.4,1.4,0.9
	c1.6,2.8,3.2,5.6,4.7,8.5c1.1,2.1,1.7,4.4,2,6.8C301.8,130.5,302.5,134,302.1,137.5z M289.8,155.4c-1.6-1.7-4-1.6-5.6-3
	c-0.7,0.8-1.5,1-2.5,0.7c-1.2-0.4-4.6,1.2-5.3,2.3c-0.1,0.1,0.1,0.4,0,0.3c1.8,0.4,3.4,0.8,5,1.1c0.4,0.1,0.8,0.2,1.1,0.1
	C284.9,156.4,287.2,155.9,289.8,155.4z M288.3,136.8c1.6-2,1.6-2,3.7-0.8c1.4,0.8,1.8,0.7,2.8-0.8c0.9-1.4,1.5-1.4,2.5,0
	c0.4-0.3,0.9-0.7,1.3-1c0.5-0.2,1-0.3,1.9-0.6c-2.8-1.1-9.4-0.5-11.5,0.7C288.1,135,288.1,135.8,288.3,136.8z M269.3,133.8
	c0.9,0.9,1.5,2,2.2,2.2c0.8,0.2,1.9-0.4,3-0.6c0.7,0.4,1.7,0.9,2.7,1.4c0.1-0.2,0.3-0.5,0.4-0.7c-1.9-1.2-3.1-3.6-5.5-3.4
	c-2.3,0.2-5.2-0.2-6.8,2.4C266.7,134.6,268.1,134.2,269.3,133.8z M264.6,131.5c1.2-0.1,2.4-0.2,3.6-0.4c3.1-0.5,6-0.2,8.6,1.7
	c0.4,0.3,0.9,0.3,1.6,0.5C276.5,129.4,269.4,128.4,264.6,131.5z M279.4,145.2c-1.6,2.1-1.5,3.5,0.4,3.8c2.2,0.4,4.5,1,6.7-0.2
	c0.4-2.7,0.2-3.3-1.2-4.5c0.2,1.3,0.3,2.5,0.5,3.8c-1.4,0-2.6,0-3.8,0C279.5,148,279.4,147.9,279.4,145.2z M288.8,132.7
	c1.8-0.8,3.4-1.5,4.9-2.3c1.5-0.7,3.3-0.4,4.9-1.4C295.1,128,290.7,129.7,288.8,132.7z M285.2,158.6c-1.4-0.1-2.8-0.2-4.6-0.3
	C282.2,160.1,283.3,160.2,285.2,158.6z"/>
<path class="st0" d="M316.7,268.4c-0.3,3.8-0.6,7.4-0.7,11c-0.3,7.8,0.7,15.5,2.1,23.1c0.9,4.9,1.8,9.7,2.6,14.7
	c-2.4,0.6-4.7,1-6.8,1.8c-2.1,0.8-4,1.9-6.3,3c-0.4-2.1-0.8-4.2-1-6.3c-1-7.4-1.7-14.9-3-22.3c-1.7-9.2-4.1-18.3-5.8-27.5
	c-1.1-5.5-1.5-11.2-2.2-16.8c-0.3-2.2-0.4-4.5-0.5-6.7c-0.4-5.1,0.7-10,1-15.1c0.4-5.8,0.6-11.6,0.8-17.4c0-1.3,0.1-2.3,1.4-3.1
	c0.9-0.5,1.6-1.4,2.3-2.3c2.9-3.6,5.2-7.6,7-11.8c1-2.3,1.5-4.9,2.3-7.7c0.1,1.1,0.2,1.9,0.2,2.6c-0.3,4.8-0.6,9.6-0.8,14.4
	c-0.2,4.5-0.4,9-0.5,13.5c-0.2,8.9-0.9,17.8-1.8,26.7c-0.6,5.9-0.8,11.7-1.2,17.6c-0.1,1.8,0.9,2.9,2.3,3.7c2.3,1.4,4.6,2.6,6.9,3.9
	C315.5,267.7,316.1,268.1,316.7,268.4z"/>
<path class="st0" d="M275.9,208.4c0.3,4.9,0.9,9.6,0.8,14.3c-0.1,4.4-0.8,8.8-1.5,13.1c-2.1,12.7-5.2,25.2-8.4,37.6
	c-1.6,6.2-3.6,12.3-5.4,18.5c-1.5,5.1-3,10.3-4.5,15.4c-1.1,3.5-2.2,6.9-3.3,10.4c-0.2,0.6-0.5,1.1-0.8,1.8
	c-2.3-1.3-4.5-2.5-6.9-3.8c0.6-2,1.1-4.1,1.7-6.2c1.1-3.8,2.3-7.6,3.1-11.4c0.7-3.5,0.6-7.1,1.1-10.6c0.6-4.1,1.5-8.2,2.3-12.3
	c0.3-1.3,1.2-1.8,2.4-2.2c2.5-0.8,5-1.7,7.4-2.7c2.6-1,3.9-3,3.8-5.8c-0.1-5.1-0.7-10.2-2.1-15.2c-2.8-9.4-3.7-19.1-4.5-28.9
	c-0.5-6.1-1.2-12.2-1.6-18.3c-0.2-2.6-0.2-5.3-0.1-7.9c0-0.6,0.5-1.5,1.1-1.8c0.8-0.4,1.6,0.2,2.3,0.7c3.8,3.1,6.7,7.1,9.4,11.2
	C273,206.1,274,207.8,275.9,208.4z"/>
<path class="st0" d="M325.2,493.3c-0.3,1.1-0.7,2.2-0.8,3.3c-0.5,5.6-1.2,11.2-1.4,16.9c-0.4,7.8-0.5,15.7-0.7,23.5
	c0,0.4-0.1,0.7-0.2,1.4c-2.3-1.1-4.6-1.2-6.9-0.6c-1.3,0.3-2.2-0.5-3.1-1.2c-1-0.7-2.1-1.4-3.6-2.3c0.5-3.1,1-6.6,1.5-10.1
	c0.2-1.5,0.6-2.9,0.8-4.3c0.3-3.5,2.4-5.5,5.5-6.8c1.7-0.7,2.5-2.1,2.9-3.7c0.4-1.7,0.8-3.5,1-5.3c0.6-4.6,0.9-9.3,1.6-13.9
	c0.7-4.7,0.8-9.5,1.7-14.2c0.9-4.6,1.3-9.4,2.4-14c1.3-5.6,3.1-11.2,4.7-16.8c0.1-0.3,0.3-0.5,0.6-0.9c0.2,0.4,0.3,0.6,0.3,0.8
	c0.2,13.4,0.3,26.8,0.4,40.2c0,3.6-0.3,7.1-0.3,10.7c0,12.3,1,24.6,2.1,36.9c0.6,6.6,0.4,13.2-0.5,19.7c0,0.1-0.2,0.3-0.2,0.4
	c-2.9-0.3-4.2-2-4.9-4.7c-0.4-1.5-1.2-3.1-2.1-4.3c-1.2-1.6-1.8-3.4-1.8-5.4c0.1-3.6,0.2-7.3,0.3-10.9c0.2-8,0.3-16,0.6-23.9
	c0.1-2.9,0.7-5.8,1.1-8.7C326.1,494.5,326.5,493.7,325.2,493.3z"/>
<path class="st0" d="M243.2,536.9c-4.3-0.7-7.8,0.8-11.1,2.7c-2.8,1.6-5.7,2.3-9.1,1.3c-0.1-0.4-0.2-0.9-0.2-1.5
	c0.1-6.2-0.9-12.3-1.6-18.5c-0.4-4.1-0.8-8.2-1.1-12.3c-0.3-4.2-0.8-8.5-0.8-12.8c0-5.7,0.1-11.5,0.6-17.2
	c0.6-8.8,1.1-17.6-0.1-26.4c-0.2-1.6-0.3-3.2-0.2-4.9c0.6,1.9,1.4,3.7,1.8,5.6c1.1,4.8,1.9,9.6,3,14.3c0.8,3.6,1.7,7.2,2.8,10.8
	c1.9,6.1,3.1,12.3,2.7,18.8c-0.2,3.3,1.1,5.9,3.7,7.8c2.1,1.6,4.3,3.1,6.5,4.4c1.4,0.8,2.1,1.7,2.2,3.2c0.3,2.9,0.8,5.8,1,8.8
	c0.3,3.5,0.4,7,0.4,10.4C243.7,533.1,243.4,534.9,243.2,536.9z"/>
<path class="st0" d="M220.1,284.8c-1.7,1.6-1,3.6-2.2,5.3c0-1.6-0.1-2.9,0-4.2c0.9-8.1,1.8-16.2,2.7-24.3c0-0.3,0-0.6,0.1-0.9
	c0.9-2.1,0.1-3.8-1-5.4c-0.4-0.6-0.7-1.3-1.3-2.2c2.8-0.7,4.7,0.3,6.7,1.5c-0.1,1.2-0.3,2.4-0.4,3.7c-0.2,2.6,0.9,3.9,3.5,4.2
	c1.4,0.2,2.8,0.2,4.3,0.2c0,3.3-1,6.2-1.7,9.2c-1.4,5.5-3,10.9-5.6,16c-0.7,1.5-0.8,3.5-0.6,5.2c0.6,4.5,1.6,9,2.3,13.5
	c0.6,4.1,0.8,8.2,1.2,12.2c0.1,0.6-0.3,1.3-0.6,2c-2.3,6.1-4.7,12.1-7.1,18.2c-0.5,1.3-0.9,2.6-1.5,4c-4.8-2.9-10-4.3-15.7-4.4
	c0.1-0.5,0-0.7,0.1-1c2-6.8,3.8-13.7,6.2-20.5c2-5.6,4.5-11,6.9-16.5c1.9-4.3,2.8-8.8,3.7-13.4C220.2,286.6,220.1,285.9,220.1,284.8
	z"/>
<path class="st0" d="M218.3,449.3c0.3,4.3,0.9,8.6,0.9,12.9c0,5.6-0.2,11.2-0.6,16.7c-0.6,7-0.8,13.9-0.3,20.9
	c0.7,9.6,1.8,19.1,2.6,28.7c0.4,4.3,0.5,8.7,0.6,13c0.1,5.7-2.3,10.4-6.1,14.4c-4.1,4.2-8.3,8.3-12.6,12.4c-3.1,2.9-6.3,5.7-9.5,8.6
	c-0.4,0.4-0.8,0.7-1.6,0.8c0.3-0.6,0.6-1.3,1-1.9c1.5-2.3,2.4-4.8,3.3-7.4c3.1-9,5.5-18.2,7.9-27.5c0.6-2.2,1.3-4.5,2.2-6.6
	c3.3-7.8,5-15.9,6.6-24.2c1.3-7.1,2.4-14.2,2.8-21.4c0.3-5.6,0.2-11.3,0.5-17c0.4-7.3,1.2-14.5,1.8-21.8c0-0.2,0.1-0.4,0.2-0.6
	C218.1,449.3,218.2,449.3,218.3,449.3z"/>
<path class="st0" d="M197.1,349c1.6-0.3,2.8-0.4,4-0.8c3.3-1,4.1-4,1.4-7.3c0.1,1.2,0.2,1.9,0.2,2.6c0.3,2-0.4,2.8-2.9,3
	c-0.1-0.6-0.1-1.3-0.2-1.9c-0.1-0.9-0.2-1.8-0.4-2.7c-0.3-1.4,0.4-2.5,1.7-2.3c5.2,0.7,10.4,1.6,15.2,3.9c0.5,0.2,0.9,0.5,1.4,0.9
	c0.6,0.5,0.9,1.1,0.5,1.8c-0.3,0.6-0.5,1.3-0.8,1.9c-1.3,2.5-1.9,5-1.9,7.8c-0.1,2.3-0.6,4.6-1.8,6.7c-4,7-5.6,14.7-6.4,22.6
	c-0.3,2.9-0.2,5.9-0.1,8.8c0,1.1-0.3,2-1.3,2.5c-1.5,0.7-3.1,1.3-4.7,2c-0.7,0.3-1.6,0.3-2.2,0.7c-0.5,0.3-1,1.1-1,1.6
	c0.1,0.5,0.7,1.2,1.3,1.4c0.6,0.2,1.4,0,2.2-0.5c-0.5-0.3-0.9-0.6-1.7-1.2c1.1-0.3,1.8-0.4,2.3-0.6c0.8,1.1,1.7,2,2.1,3
	c0.4,1,0.3,2.2,0.3,3.2c-3.3,0-6.3-0.3-9.3-0.1c-3,0.2-5.4,2.1-8,4.1c-0.1-2.5,0.9-4.3,1.7-6.1c0.9-1.9,2.1-3.6,1.8-6
	c-0.2-1.4,0.7-3.2,2.8-3.8c2.1-0.6,4.1-1.4,6.3-1.3c-0.7,0.3-1.4,0.6-2.2,0.9c1.3,0.6,2.6,0.9,4,0.5c0.5-0.1,1.1-0.7,1.2-1.2
	c0.1-0.5-0.4-1.2-0.8-1.5c-1.3-1-2.8-0.8-4.2-0.5c-3.3,0.7-6.4,1.9-9.2,3.8c-0.5,0.3-1,0.6-1.5,0.9c-0.9-0.7-0.6-1.3,0-1.9
	c0.8-0.7,1.6-1.4,2.5-2.1c3.2-2.5,5.4-5.9,7.9-9.1c1.2-1.6,2.2-3.4,3.2-5.1c0.4-0.7,0.7-1.6,1-2.4c-0.1-0.1-0.3-0.2-0.4-0.2
	c-2.6,3.5-5.2,7-7.8,10.4c-0.1-0.1-0.3-0.1-0.4-0.2c0-0.9,0.1-1.9,0.1-2.8c0.4-5.8,0.9-11.6,2.2-17.3c0.6-2.6,1.5-5,3.1-7.2
	c1.1-1.6,1-3.7,0.2-5.6C198,351.6,197.6,350.4,197.1,349z"/>
<path class="st0" d="M303,120.3c-0.6-1.5-1.2-0.3-1.9,0.1c-1.1-2-2-4.1-3.3-5.8c-1.3-1.7-1.7-4.3-4.2-5c0.3-1.5,0.7-3,1-4.4
	c-0.2-0.1-0.4-0.1-0.5-0.2c-0.4,0.9-0.9,1.9-1.3,2.8c-0.8,1.7-1.5,2.3-3.2,1.8c-1.4-0.4-2.6-0.2-3.9,0c-1.8,0.3-3.5,0.7-5.3,0.1
	c-0.6-0.2-1.5-0.1-2,0.3c-1.9,1.6-3.7,1-5.5,0.1c-0.4-1.9-0.7-3.7-1.1-5.5c-0.2,0-0.4,0-0.5,0.1c0,2.1,0,4.3,0,6.5
	c-3.4,2-6.9,4.1-8.1,8.6c-0.1-0.7-0.3-1.3-0.5-2.4c-0.8,1.8-0.6,3.2,0,4.4c0.7,1.5,0.3,2.8-0.1,4.6c-1.8-2.6-1.9-5.4-3.1-8
	c-1.4,1.2-1.7,2.5-1.1,4.1c0.7,2.2,1.5,4.4,3,6.3c-0.8-0.7-1.7-1.4-2.8-2.2c0,1,0.2,1.6,1,1.9c0,0,0,0,0,0c-0.4,0.1-0.9,0.2-1.4,0.4
	c-0.9-1.8-1-3.9-1-5.8c0-2.3,0.3-4.6,0.6-6.9c0.1-0.6-0.1-1.4,1-1.5c0.2,0,0.5-1.2,0.5-1.9c-0.3-2.2,0.6-4.1,1.6-5.9
	c2.1-3.6,4.8-6.6,7.8-9.5c5.6-5.6,12.3-5.5,19.2-3.5c3.9,1.1,7.4,3.4,10.3,6.2c3.4,3.3,5.7,7.5,6.6,12.3c0.1,0.3-0.3,0.7-0.5,1.1
	c-0.3,1-0.9,2.1,0,3.5c0.4-0.8,0.6-1.4,0.9-1.9c0.1,0.1,0.2,0.2,0.2,0.3c0.2,3.9,1.4,7.9-1.6,11.5c-0.2-0.7-0.4-1.4-0.7-2.1
	c0.6-0.7,1.1-1.4,1.7-2.1c-0.1-0.1-0.2-0.2-0.3-0.3c-0.6,0.4-1.1,0.8-1.7,1.2c-0.1-0.1-0.2-0.1-0.3-0.2c0.5-0.9,0.9-1.8,1.4-2.7
	C303.5,120.4,303.2,120.3,303,120.3L303,120.3z"/>
<path class="st0" d="M293,92.5c0.8,0.6,1.4,1.1,2,1.6c2.4,2.2,4.8,4.4,7.2,6.6c2.1,2,3.9,4.2,5.3,6.8c2.6,4.9,4.8,10,5.5,15.5
	c0.5,4,0.7,8,0.7,12.1c0,5.1,0.3,10.1,1,15.1c0.7,4.4,2.3,8.5,4,12.6c0.2,0.5,0.4,1,0.8,1.9c-2.7-1.6-4.8-3.1-6.6-5.2
	c0.4,9.1,4.6,17,8.4,25.4c-2.2-0.5-3.1-1.4-3.7-2.9c-2.8-6.7-5.7-13.4-8.5-20.1c-0.1-0.2-0.3-0.3-0.8-0.3c0.2,1,0.4,2,0.7,3
	c1.1,2.7,2.2,5.4,3.3,8.2c1.3,3.3,2.6,6.6,3.9,9.9c0,0.1-0.1,0.3-0.2,0.7c-1-0.8-2-1.4-2.9-2.2c-1.1-0.9-2.1-1.8-3.6,0.1
	c-0.2-1.1-0.5-1.7-0.5-2.3c0.1-2.7,0.1-2.9-2.4-4c-0.1-0.1-0.3-0.1-0.5-0.3c0-0.8-0.1-1.6,0-2.4c0.4-3.6-1.2-6.1-4.3-7.8
	c-2.4-1.3-2.6-1.9-2.1-4.6c0.3-1.6,0.6-3.2,0.8-4.8c0.3-2,1.5-3.5,2.5-5.1c0.3-0.5,0.8-0.9,1.3-1.3c2.4-2.3,3.1-4.9,2.4-8.2
	c-0.6-2.7-0.5-5.5-0.8-8.3c0-0.3-0.1-0.6,0-0.9c1.9-6.5,1.3-13-0.1-19.5c-0.5-2.4-1.8-4.6-2.8-6.8c-0.1-0.2-0.3-0.4-0.4-0.6
	c-1.8-3.8-4.7-6.7-8.5-8.6C292.8,94.9,292.3,94.1,293,92.5z"/>
<path class="st0" d="M267.1,177.1c-0.8-5.2,0-10.2,1.8-15.3c0.9,1.1,1,1.7,0.8,6.1c-0.3-1.1-0.4-1.7-0.6-2.5
	c-1.4,1.8-1.4,3.4,0.1,4.7c0.8,0.7,1.9,1.1,2.9,1.5c3.4,1.3,6.5,2.8,9.3,5.1c3.1,2.5,4.2,5.5,2.9,9.3c-0.6,1.9-1.6,3.7-2.4,5.5
	c-0.7,1.6-1.5,3.1-2,4.7c-0.7,1.9,0.1,3.6,0.9,5.2c0.1-2-0.3-4.1,0.9-5.9c0.2,3.3,0.4,6.6-1.4,9.6c-1.6,2.7-4.1,2.8-6,0.3
	c-0.1-0.1-0.2-0.2-0.3-0.4c-0.1-0.2-0.3-0.4-0.4-0.6c-3.2-5.1-6.9-9.7-11.5-13.6c-0.6-0.5-1.1-1.1-1.6-1.7c-0.2-0.2-0.3-0.5-0.5-0.8
	c0.3,0,0.6-0.1,0.8-0.1c4.3,1.5,8.4,3.3,11.9,6.2c2.1,1.7,3.2,3.9,3.2,7.1c1.1-2.1,1.1-3.7,0.1-5.1c-0.8-1.3-1.9-2.4-3.1-3.4
	c-3.3-2.7-7.2-4.3-11.1-5.8c-1.2-0.4-2.3-0.9-3.4-1.4c-0.6-0.3-1.2-0.7-1.8-1.1c-1-0.7-1.8-1.8-1.4-2.9c0.3-0.8,1.3-1.3,2.1-1.9
	c0.2,0.1,0.3,0.3,0.5,0.4c-0.3,0.5-0.5,1-0.8,1.6c0.2,0.1,0.4,0.3,0.6,0.3c5.3,0.1,10.7,0.5,16-0.6c1.3-0.3,2.5-0.7,3.4-1.9
	c1-1.3,0.5-2.2-1.5-2.6c0.4,0.6,0.7,1.1,1,1.5c-0.6,1.3-1.6,1.9-2.9,2.1c-4.5,0.7-9.1,0.5-13.6,0.2c-1.5-3.6-1.5-3.6,0.9-4.9
	c0,0.4,0,0.8-0.1,1.1c-0.1,0.5-0.6,1.1-0.4,1.3c0.3,0.5,0.9,1.1,1.5,1.3c0.6,0.3,1.1-0.2,1-0.9c-0.1-0.9-0.4-1.8-0.6-2.7
	c-0.6-2.1-1.2-4.2-1.9-6.2c-0.7-2.2-0.1-4,1.7-5.4c1.7-1.4,3.6-2.6,6.1-3.4C265.3,166.6,264.2,171.8,267.1,177.1z"/>
<path class="st0" d="M269.2,746.2c0.1-2.2,0.2-4.5,0.3-6.9c1.2,1,2.3,2,3.4,2.9c2.4,1.7,3.6,1.7,6.1,0.2c2.1-1.3,4.2-2.6,6.4-3.8
	c0.6-0.3,1.5-0.5,2.2-0.3c1.6,0.4,3.1,1,4.6,1.6c2.8,1.3,5.7,1.8,8.8,0.7c0.9,2.2,1.8,4.4,2.7,6.6c0.2,0.4,0,1.1-0.2,1.6
	c-1.3,2.9-2.5,5.8-3.9,8.6c-0.4,0.8-1.3,1.4-2.1,1.8c-5.9,2.9-11.6,2.2-17-1.2c-3.7-2.3-6.9-5.2-9.2-9
	C270.8,748,269.9,747.2,269.2,746.2z"/>
<path class="st0" d="M288.7,180.9c0.8,3.5,3,4.5,8,3.7c-0.9-0.3-1.8-0.6-2.7-0.8c-0.5-0.1-1.1-0.1-1.6-0.3c-2.2-0.6-2.7-1.7-1.6-3.6
	c1.7-2.9,3.6-5.6,5.4-8.4c0.9-1.4,1.8-2.7,1.6-4.6c-1.7,0.4-1.4,2.4-2.9,3c-0.4-1.9-0.2-3.7,0-5.5c3.3-0.4,7.7,1.5,9,4.1
	c0.5,1,0.7,2.4,0.7,3.6c-0.1,1.6-0.5,3.2-0.8,4.8c-0.3,1.3-0.2,2.6,0.4,4.1c0.4-1.9,0.8-3.4,1.2-4.9c2.2,1,2.6,1.7,1.8,3.9
	c-1.2,3.3-2.5,6.5-3.8,9.8c-0.7,1.9-1.4,3.9-2,5.9c-0.2,0.6-0.2,1.3,0.1,2.1c2.1-5.2,4.3-10.5,6.5-15.9c0.8,0.9,0.6,1.7,0.5,2.5
	c-0.5,6.1-3.2,11.3-6.4,16.2c-0.9,1.4-2,2.8-3.1,4.1c-0.9,1.1-2.1,1.9-3.6,1.9c-3.1,0-4.6-1.6-4.4-4.6c0.1-1.4,0.4-2.8,0.5-4.2
	c0.1-1.3,0.2-2.6,0.3-4.4c0.6,0.8,0.9,1.3,1.3,1.9c0.1-0.2,0.4-0.3,0.4-0.5c0.1-3-1.1-5.4-3.2-7.5c-0.4-0.4-0.8-0.7-1.3-1
	C286,184.3,286,183.3,288.7,180.9z"/>
<path class="st0" d="M228.4,285.1c2.6-7.2,4.4-14.6,5.4-22.4c4,0.5,7.6,1.6,10.4,4.6c1,1,1.8,0.9,2.9,0.6c1.1-0.3,2.1-0.8,2.1-2.2
	c0-1.8,0-3.6,0-5.3c0-0.7-0.1-1.4-0.2-2.3c0.6,0,1.2,0,1.6,0.1c4,1.4,8,2.9,12,4.4c0.6,0.2,1.2,0.7,1.8,1.1c0.8,0.6,1.1,1.5,0.6,2.5
	c-0.4,0.8-0.7,1.5-1.1,2.6c-3.3,1-6.7,2.2-10.2,3.1c-5.5,1.4-10.6,3.5-15.3,6.5C235,280.6,231.8,282.8,228.4,285.1z"/>
<path class="st0" d="M277.2,208.6c4.5-0.4,5.2-3.8,5.8-7.3c0.2-1.1,0.2-2.1,0.2-3.3c2.2-0.2,4.3-0.3,6.6-0.5c0,0.7,0,1.4,0,2.1
	c-0.1,0.8-0.2,1.5-0.3,2.3c-0.1,3.2,1,4.7,4.1,5.6c0.7,0.2,1.5,0.3,2,0.4c0,2,0,3.8,0,5.7c0,0.4-0.1,0.8-0.3,1.1
	c-2.3,3.7-4.4,7.5-6.9,11c-0.9,1.3-2.5,2.3-3.8,3.3c-0.9,0.7-1.8,0.6-2.6-0.4c-2.4-2.9-4.3-6-4.2-10
	C277.9,215.4,277.4,212,277.2,208.6z"/>
<path class="st0" d="M307,260.7c0.9-0.9,1.5-1.6,2.2-2.2c3.8-3.5,8.5-5,13.5-5.9c5.7-1,11.4-1.2,16.9,1.1c2.6,1.1,3.1,2.8,1.1,4.7
	c-1.4,1.4-3.1,2.8-4.9,3.5c-4.9,2-9.9,3.7-14.8,5.5c-1.2,0.4-2.5,0.3-3.6-0.4c-2.8-1.6-5.6-3.2-8.5-4.9
	C308.4,261.8,307.8,261.3,307,260.7z"/>
<path class="st0" d="M281.2,680.3c2-0.1,3-1.2,4-2.5c1.2-1.8,1.5-1.8,3.2-0.4c1.8,1.3,3.6,1.3,5.4,0.2c1.8-1,3.1-2.5,4.1-4.4
	c0.8-1.6,1.6-3.3,2.4-5.1c1.3,1.7,1.3,3.3,0.9,5.3c-0.9,4.9-1.6,9.9-2.4,14.9c-0.2,1.4-0.6,2.9-0.9,4.3c-0.3,1.4-1.1,2.3-2.5,2.7
	c-0.9,0.3-1.7,0.7-2.6,0.9c-1.6,0.4-3.1,0.1-4.7-0.3c-3.2-0.8-4.1-3.1-4.6-5.9C282.7,687,282,683.8,281.2,680.3z"/>
<path class="st0" d="M193.5,440.8c-1.8-2-2.2-3.9-1.8-6c0.4-1.8,0.9-3.6,1.1-5.5c0.2-1.8,0.2-3.5,0.3-5.3c0.1-1,0.2-1.9,0.3-3.1
	c-1.2-1.5-1.6-1.7-3.8-1.1c0,2.2-0.6,4.4-1.8,6.3c-0.5,0.8-0.5,1.5,0.1,2.3c0.8,1.1,1.2,2.4,2,3.4c1,1.2,0.7,2.2,0.1,3.4
	c-2.4-2.6-3.1-6.5-6.3-7.9c0.7-2.8,1.4-5.4,1.9-8c0.3-1.4,0.3-2.9,0.3-4.4c0-1.2,0.5-2,1.5-2.7c0.9-0.6,1.7-1.6,2.6-2.3
	c2.9-2.1,6.9-3.4,12.5-1.8c0.5,2.6,0.3,5.2-0.5,7.7c-1.1,3.2-2.2,6.4-3.4,9.6c-1.3,3.4-2.6,6.8-3.8,10.2
	C194.3,437.3,194,438.9,193.5,440.8z"/>
<path class="st0" d="M280.7,537.1c-3.3,0-6.2,0-9.3,0c0.6-6.5,2.5-12.9,2.1-19.5c-0.3-6.6-0.5-13.1-0.7-20c2.9,0.5,5.5,1.4,8.3,2.3
	c0,6.2,0.1,12.4,0,18.5C281.1,524.6,280.8,530.8,280.7,537.1z"/>
<path class="st0" d="M271.4,739.1c0.5-0.6,0.8-1,1.1-1.3c2.5-2.9,5.2-5.8,7.6-8.8c1.3-1.6,2.6-2.5,4.6-2.4c1.2,0,2.5-0.1,3.7-0.4
	c1.8-0.5,3.2,0.1,4.4,1.4c2.1,2.2,4.2,4.4,6,6.7c0.8,1,1.2,2.5,1.5,3.8c0.3,1.2-0.2,1.8-1.4,1.8c-1.6,0-3.2-0.3-4.8-0.7
	c-1.9-0.5-3.8-1.4-5.7-2c-1.5-0.5-2.8-0.2-4.1,0.7c-2.1,1.4-4.4,2.6-6.5,4c-0.7,0.5-1.4,0.6-2.2,0.1
	C274.1,741,272.8,740.1,271.4,739.1z"/>
<path class="st0" d="M331.9,277.4c0.4,0.3,0.7,0.4,0.9,0.6c3.6,3.6,6.9,7.5,9.1,12.2c0.5,1.1,0.7,2.2,0.1,3.3
	c-0.2,0.3-0.3,0.7-0.5,1.1c-3.4,6.3-5.7,13-7.6,19.9c-0.1,0.4-0.3,0.8-0.6,1.4C332.1,311.7,331.1,280.2,331.9,277.4z"/>
<path class="st0" d="M291.9,650.4c2.2,4.3,4.5,8.7,7,13.5c-1-0.2-1.5-0.4-1.9-0.4c-1.8,0-3.6-0.2-5.3,0.1c-2.2,0.4-4.3,0.8-6.4,0.1
	c-1.7-0.5-2.8,0.1-3.7,1.5c-0.6,1-1.2,1.9-2.2,3.3c-0.4-3.4-0.7-6.3-1-9.1c0-0.4,0-0.8,0.2-1.1C281.9,654,286.2,651,291.9,650.4z"/>
<path class="st0" d="M298.4,665.8c-0.1,4.5-1.7,8.1-5.5,10.7c-1.5,1-2.6,0.9-4-0.3c-1.6-1.4-2.4-1.4-3.9,0.2
	c-0.6,0.6-1.1,1.3-1.7,1.9c-1.1,1-2.1,0.8-2.6-0.7c-0.2-0.7-0.3-1.4-0.4-2.1c-0.1-0.5-0.1-1.1-0.3-1.6c-1.3-3.6,1.1-5.9,3.1-8.3
	c0.3-0.3,1-0.6,1.4-0.5c2.9,0.8,5.7,0.3,8.5-0.3C295.4,664.3,295.8,664.4,298.4,665.8z"/>
<path class="st0" d="M229.2,315.2c0.2-5.9-2-11.4-2.8-17.1c-0.2-1.5-0.5-3.1-0.6-4.6c-0.1-0.7,0-1.6,0.4-2.2
	c2.3-3.8,5.3-6.8,9.3-8.9C236.6,294,233.7,304.7,229.2,315.2z"/>
<path class="st0" d="M269.8,737.6c0.2-1.8,0.4-3.7,0.7-5.5c0.9-5.1,1.1-10.1,0.8-15.2c-0.1-1.1,0.2-1.9,1.1-2.6
	c2.3-1.7,4.4-3.7,7-5.1c0.9,1.6,1.1,3.1,0.8,4.8c-0.2,0.9,0,2,0.1,2.9c0.1,1.7,0.1,3.4,0.5,5c0.6,2.7-0.3,4.7-2.1,6.6
	c-2.6,2.7-5,5.6-7.6,8.5c-0.2,0.3-0.5,0.5-0.8,0.8C270.1,737.7,269.9,737.6,269.8,737.6z"/>
<path class="st0" d="M305.5,351.7c0.5-1.1,0.9-2,1.3-2.8c1.2-2.5,1.3-5.1,0.3-7.6c-0.7-1.9-1.6-3.7-2.4-5.5c-0.2-0.4-0.3-0.8-0.6-1
	c-1.5-0.9-1.9-2.5-2.6-4c-0.5-1-0.9-2-1.4-2.9c-1.6-2.8-3-5.7-6.2-7.6c0.7-0.7,1.2-1.2,1.9-2c0.9,1.1,1.8,1.9,2.4,2.9
	c1.7,2.6,3.9,4.5,6.5,6.2c1.5,1,3,2.2,4.3,3.5c2.3,2,3.5,4.5,3.6,7.5c0,2.3-0.1,4.6-0.2,6.9c-0.1,1.2-0.6,2.2-1.6,3
	C309.3,349.5,307.8,350.8,305.5,351.7z"/>
<path class="st0" d="M280.3,538.5c-1.1,11.3-2.1,22.5-3.2,33.8c-0.5-3.6-0.9-7.2-1.6-10.8c-1.1-5.8-2.4-11.6-3.8-17.4
	c-0.4-1.8-0.6-3.5-0.4-5.5c1.5-0.1,2.9-0.3,4.4-0.3C277.1,538.2,278.6,538.4,280.3,538.5z"/>
<path class="st0" d="M271.3,164.6c0.5,0.3,0.8,0.3,0.9,0.5c1.6,1.9,3.9,2.8,5.9,4.1c0.8,0.5,2.1,0.6,3.1,0.6
	c1.8-0.1,3.5-0.5,5.3-0.6c1.6,0,2.7-0.8,3.6-1.8c1-1.1,2-2.3,3-3.5c0,2.5,0,4.9,0,7.3c0,0.5-0.3,1-0.6,1.5c-2,2.9-4,5.7-6.2,8.8
	c-3.3-6.5-8.9-9.5-15.1-11.7C271.3,168.1,271.3,166.5,271.3,164.6z"/>
<path class="st0" d="M343.1,287.1c-3.3-3.7-6.1-7.6-9.7-10.6c-3.5-2.9-7.7-5-11.8-7.5c4.4-1.4,8.6-2.8,13-4.2
	C336.9,272.1,339,279.9,343.1,287.1z"/>
<path class="st0" d="M275,300.8c0.9,4.4,1.8,8.6,2.6,12.3c-2,1.5-3.7,2.8-5.3,4.1c-1.6,1.2-2.9,0.8-3.4-1.1
	c-0.8-3.2-1.5-6.5-2.2-9.7c-0.1-0.6,0-1.3,0-2.1c1.7,0,3.4,0.4,4.8-0.1C272.7,303.7,273.6,302.2,275,300.8z"/>
<path class="st0" d="M266.9,317.4c-0.5,0-1.2,0.1-2,0.2c-0.7-0.9-1.2-2.1-2.6-2.1c-0.3,0-0.7-0.6-0.8-1c-0.8-1.8-1.6-3.7-2.2-5.6
	c-0.5-1.6-0.5-3.3,0-5c0.6-2.1,1.1-4.2,1.7-6.3c0.2-0.6,0.4-1.1,0.6-1.7c2.1,0.5,3.5,1.8,3.7,3.6
	C265.9,305.5,266.4,311.4,266.9,317.4z"/>
<path class="st0" d="M304.8,750.6c0,0.5,0.1,1,0,1.5c-0.6,3.1-1.5,6.2-3.1,9c-1,1.8-2.6,2.7-4.7,2.9c-6.5,0.7-12.8-0.2-18.5-3.3
	c-3.4-1.8-6.3-4.5-9.4-6.8c-0.3-0.3-0.5-1-0.5-1.4c0-1.2,0.2-2.4,0.3-4.1c0.7,0.8,1.1,1.3,1.4,1.8c3.7,5.3,8.5,9.1,14.7,11.3
	c4.2,1.5,8.2,1,12.2-0.8c2.7-1.3,4.1-3.7,5.4-6.2c0.7-1.3,1.2-2.6,1.8-3.9C304.5,750.6,304.7,750.6,304.8,750.6z"/>
<path class="st0" d="M297.9,731.4c-0.9-1-1.9-1.8-2.6-2.9c-1.5-2.2-3.3-4-6.2-4.1c0-0.9,0-1.7-0.1-2.4c-0.6-2.7-0.3-5.4-0.7-8.1
	c-0.3-2.3-0.5-2.2,0-4.7c2.3,0.7,4.3,1.7,5.1,4.1c0.7,1.9,1.4,3.8,1.6,5.8c0.5,3.7,1.4,7.3,2.9,10.7c0.2,0.5,0.3,1,0.4,1.5
	C298.1,731.3,298,731.4,297.9,731.4z"/>
<path class="st0" d="M292.3,301.5c2.3-1.3,4.8-1.1,7.4-0.7c0.3,5.3-0.8,10.1-2.7,14.8c-1.8,0.2-3.4,0.6-4.9-0.1
	c-0.2-3-0.4-5.9-0.6-9c0.6-0.3,1.5-0.5,2.1-1c0.6-0.5,1.3-1.3,1.3-1.9c0-1-0.9-1.3-1.9-1.3c-0.2,0-0.4-0.1-0.7-0.2
	C292.4,301.8,292.4,301.6,292.3,301.5z"/>
<path class="st0" d="M286.1,708.5c0.2,2.3,0.7,4.3,0.4,6.2c-0.3,2.7,0.7,5.3,0.5,7.9c0,0.6,0,1.2,0,2.1c-1.4,0.1-2.8,0.2-4.4,0.3
	c-0.5-3.2-1-6.3-1.5-9.4c0-0.2-0.1-0.5,0-0.7c0.6-1.8,0.4-3.6-0.1-5.4c-0.1-0.3,0-0.7,0.1-1.4C282.9,708.3,284.7,708.4,286.1,708.5z
	"/>
<path class="st0" d="M279.7,313.4c-0.2-1.6-0.5-3.2-0.7-4.9c3.9,0.9,7.2-1.1,10.7-1.7c1.1,2,1.3,4.7,0.6,8.4
	c-2.2,0.2-4.4,0.5-6.5-0.6C282.6,313.9,281.2,313.8,279.7,313.4z"/>
<path class="st0" d="M300.6,349.8c-1-2-0.7-4-0.8-6c0-2.5,0-5.1-0.5-7.6c-0.9-5.2-3.9-9.2-8.2-12.2c-0.2-0.1-0.4-0.3-0.6-0.4
	c0,0,0-0.1-0.1-0.3c0.6-0.5,1.2-1.1,1.8-1.7c2.5,1,4.3,2.8,5.5,5.1c1.8,3.3,3.6,6.5,4.3,10.2c0.2,1,0.4,2,0.3,3
	C301.9,343.2,301.2,346.5,300.6,349.8z"/>
<path class="st0" d="M271.2,320.4c0.4,6.8,2.5,8.4,9.9,7.6c-0.3,0.5-0.5,1-0.8,1.4c-1.4,1.5-2.8,2.9-4.2,4.4
	c-0.8,0.8-1.7,0.9-2.7,0.3c-3-1.7-5.5-7.2-4.7-10.4C268.9,322.2,269.8,321.3,271.2,320.4z"/>
<path class="st0" d="M239,494.3c0.9,4.5,1.6,8.7,2.5,13.1c-3-1-5.4-2.4-7.3-4.4c-1.8-1.9-1.6-4.5,0.6-6
	C236.1,496,237.5,495.2,239,494.3z"/>
<path class="st0" d="M305.4,316.1c-1.8-1.1-2.9-0.7-4.1-0.1c-0.6,0.3-1.5,0.1-2.7,0.1c2.4-5.1,2.7-10.2,2.6-15.5
	c0.6-0.2,1.2-0.3,2.1-0.6C304.3,305.2,304.8,310.3,305.4,316.1z"/>
<path class="st0" d="M290,195.9c-2.2,0.7-4.3,1-6.5,0.5c-0.7-2-0.8-3.9,0.4-5.8c0.9-1.3,1.4-2.9,2-4.4
	C289.9,187.8,290.7,189.8,290,195.9z"/>
<path class="st0" d="M305.3,317.2c0.8,3.6,1.5,6.8,2.2,10.1c-2-1.3-4.2-2.4-5.8-4.3c-1.5-1.8-2.9-3.8-4.5-5.8c0.4,0,0.8-0.1,1.1,0
	c1.4,0.6,2.8,0.5,4.2-0.1C303.4,316.8,304.5,317.2,305.3,317.2z"/>
<path class="st0" d="M400.5,408.2c-2.1-4.6-3.4-8.9-2.9-13.7c0.7-0.1,1.4-0.1,2-0.2c1.2-0.1,1.9,0.4,2,1.7c0,0.1,0,0.2,0,0.2
	c0.3,1.4,0.6,2.7,0.9,4.1c0,0.2,0,0.5-0.1,0.7C401.8,403.3,401.2,405.6,400.5,408.2z"/>
<path class="st0" d="M277.3,326.4c1.9-2.2,3.8-4.5,5.9-6.5c2.3-2.2,5.1-3.2,8.4-2.4c0,0.4,0.1,0.8,0.1,1.4c-3.5,0.6-6.1,2.6-8.3,5.2
	C281.6,326.2,280.3,326.8,277.3,326.4z"/>
<path class="st0" d="M283.4,651.1c2.1-3.2,4.5-6,7.5-8.3c1.5,1.6,3,3.2,4.6,4.8C291.4,648.7,287.5,649.9,283.4,651.1z"/>
<path class="st0" d="M257.5,130.6c1.3,1.7,3.1,2.9,3.2,5.4c0.1,2.2,0.5,4.3,0.7,6.4c0.1,0.9,0.7,2-0.5,3c-1-0.8-2.1-1.5-3-2.3
	c-0.4-0.4-0.5-1.1-0.6-1.7c-0.3-2.8-0.6-5.5-0.8-8.3c-0.1-0.8,0.2-1.6,0.3-2.4C257,130.7,257.2,130.7,257.5,130.6z M258.2,141
	c1.5,0.3,1.6,0.3,2-0.8c0.6-1.8-0.4-4.5-2.5-5.9c0.7,2,1.2,3.8,1.8,5.5C259,140.2,258.7,140.5,258.2,141z"/>
<path class="st0" d="M278.2,705c0.3,0.7,0.5,1.3,0.7,2c-1.2,1-2.3,2-3.5,3c-1.3,1-2.6,2-3.8,3c-1.2,1-2.3,2-3.5,3
	c-1.1,0.9-2,2.2-3.6,3C265.1,715.6,272.1,708.6,278.2,705z"/>
<path class="st0" d="M284.9,316.4c-1.9,1.6-3.6,3-5.3,4.4c-1.9-1.9-4-1.1-6.2-0.2c0.2-3,2.1-4.9,5.2-5.2
	C280.7,315.2,282.7,315.6,284.9,316.4z"/>
<path class="st0" d="M301.5,353.3c0.2-5.3,2.3-9.7,2.4-14.6C306.9,343.2,307.2,348.2,301.5,353.3z"/>
<path class="st0" d="M309,326.6c-0.4-1.1-0.8-2.1-1.2-3.2c4.2-2.4,8.1-4.7,13.2-3.5c-0.4,0.3-0.8,1-1.2,1c-4,0.1-6.7,2.5-9.4,4.9
	C310.1,326.1,309.6,326.3,309,326.6z"/>
<path class="st0" d="M279.7,702c1.3-0.1,2.4-0.3,3.6-0.3c1.7,0,2.4,0.5,2.9,2.1c0.7,2.5-0.4,3.4-2.3,3.3
	C280.7,707.1,279.8,706.1,279.7,702z"/>
<path class="st0" d="M298.4,711c-1.6-0.3-3.1-0.6-4.5-0.9c-0.5-0.1-1-0.4-1.5-0.6c-0.8-0.4-1.6-0.9-2.4-1.3c-1.8-0.8-1.8-0.8-1.6-3
	c3.8,0,6.6,2,9.5,4.1C298.5,709.7,299,710.3,298.4,711z"/>
<path class="st0" d="M275.1,92.1c2.2-1.8,4.8-2.4,7.4-2.4c2.4,0,4.7,0.7,7,1.3c1.6,0.4,1.6,0.5,1.5,2.8
	C285.9,91.1,280.6,90.8,275.1,92.1z"/>
<path class="st0" d="M195.4,438.5c0.3-1.1,0.5-1.9,0.8-2.9c2.7,0.5,5.7-0.3,8.3,2.2C201.3,438.6,198.4,438,195.4,438.5z"/>
<path class="st0" d="M191.2,430.7c-0.9-1.3-1.5-2.2-2.1-3.1c0.7-2.1,1.3-4.1,2-6.3c0.3,0.3,0.9,0.5,0.9,0.8
	C192.3,424.8,192,427.6,191.2,430.7z"/>
<path class="st0" d="M275.3,326.4c-1.4-1.1-2.7-1.9-2.2-3.4c0.5-1.4,2-1.5,3.3-1.6c0.7,0,1.3,0.2,2.3,0.4
	C277.6,323.5,276.5,324.9,275.3,326.4z"/>
<path class="st0" d="M252.3,321.6c-1.4,1.4-2.1,1.4-3.3,0.6c-0.9-0.7-1.7-1.5-2.7-2.1c-1.1-0.6-1.4-1.3-0.7-2.6
	C248.2,318.1,250.1,320,252.3,321.6z"/>
<path class="st0" d="M297.1,698.9c-1.8,0.1-3.2,0.2-4.5,0.3c-1,0.1-2,0.2-2.5-0.8c2.7-0.9,5.4-1.8,8.3-2.7
	C297.9,696.8,297.5,697.9,297.1,698.9z"/>
<path class="st0" d="M305.1,137.9c0.1,1.6,0.1,3.2,0.3,4.8c0.2,1.9-0.8,3.2-2.2,4.4C302.6,143.7,304,140.8,305.1,137.9z"/>
<path class="st0" d="M312.2,513.6c0.8-2.7,1.9-4.6,3.9-5.9c1.6,1.1,1.8,2,0.5,3C315.4,511.8,314,512.5,312.2,513.6z"/>
<path class="st0" d="M407,406.6c0.9,6,0.9,6.2-2.1,7.3C405.5,411.5,405.5,409.1,407,406.6z"/>
<path class="st0" d="M256.7,313.6c0.4-1.6,0.8-3,1.3-4.7c0.9,2.6,1.8,4.9,2.7,7.5C258.7,316,258.4,313.9,256.7,313.6z"/>
<path class="st0" d="M298.5,157.7c-0.3,1.7-0.6,3.3-0.9,5.1c-0.8,0-1.6-0.1-2.5-0.2C294.8,160.1,297.1,159.2,298.5,157.7z"/>
<path class="st0" d="M300.5,685.3c0.6-3.7,1.1-7.4,1.7-11.1c0.1,0,0.2-0.1,0.4-0.1c0.1,0.5,0.4,1,0.3,1.5c-0.5,3.3-1.2,6.5-1.8,9.8
	C300.9,685.3,300.7,685.3,300.5,685.3z"/>
<path class="st0" d="M196.5,434.4c1.1-2,2.2-0.7,3.1-0.9c0.9-0.2,2,0,3,0c0.1,0.4,0.2,0.8,0.4,1.5
	C200.9,434.8,198.9,434.6,196.5,434.4z"/>
<path class="st0" d="M303.5,138c0-2.6,0-4.7,0-7.2c1.4,1.2,1.3,2.6,1.3,3.8C304.7,135.6,304.1,136.6,303.5,138z"/>
<path class="st0" d="M259.4,128.4c0.4,0.6,0.9,1.2,1.4,1.8C259.6,129.6,259.6,129.6,259.4,128.4
	C259.5,128.4,259.4,128.4,259.4,128.4z"/>
<path class="st0" d="M302.9,120.2c-0.3,0.6-0.6,1.3-0.8,1.9C301.6,121,302.1,120.5,302.9,120.2C303,120.3,302.9,120.2,302.9,120.2z"
	/>
<path d="M289.8,155.4c-2.6,0.6-4.9,1.1-7.2,1.6c-0.4,0.1-0.8,0-1.1-0.1c-1.6-0.3-3.2-0.7-5-1.1c0,0.1-0.1-0.2,0-0.3
	c0.7-1.1,4.1-2.7,5.3-2.3c1,0.3,1.8,0.1,2.5-0.7C285.8,153.7,288.1,153.6,289.8,155.4z M279.2,154.2c2.6,2.1,5,1.1,7.3,0.5
	C284.2,154.3,282,154.1,279.2,154.2z"/>
<path d="M288.3,136.8c-0.2-1.1-0.2-1.8,0.8-2.4c2.1-1.3,8.6-1.9,11.5-0.7c-0.9,0.3-1.5,0.3-1.9,0.6c-0.5,0.3-0.9,0.7-1.3,1
	c-1-1.4-1.6-1.4-2.5,0c-1,1.5-1.4,1.6-2.8,0.8C289.9,134.8,289.9,134.8,288.3,136.8z"/>
<path d="M269.3,133.8c-1.1,0.3-2.6,0.8-4,1.2c1.7-2.6,4.5-2.2,6.8-2.4c2.4-0.2,3.7,2.2,5.5,3.4c-0.1,0.2-0.3,0.5-0.4,0.7
	c-1-0.5-1.9-1-2.7-1.4c-1.1,0.3-2.2,0.8-3,0.6C270.7,135.8,270.2,134.7,269.3,133.8z M272.1,135.5c0.3-1.4,0.1-1.8-1.1-1.5
	C271.4,134.4,271.6,134.8,272.1,135.5z"/>
<path d="M264.6,131.5c4.8-3.1,11.8-2.1,13.8,1.8c-0.7-0.2-1.2-0.2-1.6-0.5c-2.6-1.9-5.5-2.2-8.6-1.7
	C267,131.3,265.8,131.4,264.6,131.5z"/>
<path d="M279.4,145.2c0.1,2.7,0.1,2.8,2.5,2.8c1.2,0,2.4,0,3.8,0c-0.2-1.3-0.3-2.5-0.5-3.8c1.5,1.2,1.6,1.9,1.2,4.5
	c-2.2,1.2-4.5,0.6-6.7,0.2C277.9,148.8,277.8,147.3,279.4,145.2z"/>
<path d="M288.8,132.7c1.9-3.1,6.3-4.7,9.8-3.7c-1.6,1-3.5,0.7-4.9,1.4C292.1,131.2,290.6,131.9,288.8,132.7z"/>
<path d="M285.2,158.6c-2,1.5-3,1.4-4.6-0.3C282.4,158.5,283.8,158.5,285.2,158.6z"/>
<path d="M258.2,141c0.5-0.4,0.8-0.7,1.3-1.1c-0.5-1.7-1.1-3.5-1.8-5.5c2.1,1.4,3.1,4.1,2.5,5.9C259.8,141.2,259.7,141.3,258.2,141z"
	/>
<path class="st0" d="M279.2,154.2c2.7-0.1,5,0.1,7.3,0.5C284.2,155.3,281.8,156.3,279.2,154.2z"/>
<path class="st0" d="M272.1,135.5c-0.5-0.7-0.8-1-1.1-1.5C272.3,133.7,272.4,134.1,272.1,135.5z"/>
</svg>
