<?xml version="1.0" encoding="utf-8"?>
<!-- Generator: Adobe Illustrator 19.0.0, SVG Export Plug-In . SVG Version: 6.00 Build 0)  -->
<svg version="1.1" id="图层_1" xmlns="http://www.w3.org/2000/svg" xmlns:xlink="http://www.w3.org/1999/xlink" x="0px" y="0px"
	 viewBox="0 0 595.3 841.9" style="enable-background:new 0 0 595.3 841.9;" xml:space="preserve">
<style type="text/css">
	.st0{fill:#FFFFFF;}
</style>
<path class="st0" d="M1,37c198.1,0,396.2,0,594.2,0c0,256.3,0,512.7,0,769c-198.1,0-396.2,0-594.2,0C1,549.7,1,293.3,1,37z
	 M203.8,408.5c0.6-0.4,1.1-0.6,1.4-0.9c0.9-1.2,0.9-2.6,0.9-4c0-1.1-0.7-1.6-1.5-2.2c-1.2-0.9-1.1-1.8,0.2-2.7
	c0.4-0.3,0.8-0.5,1.2-0.7c1.7-0.8,2.3-2.2,2.4-4c0.1-1.8,0.1-3.6,0.1-5.4c0-6,1-11.7,2.8-17.4c0.4-1.3,1-2.5,1.4-3.8
	c0.2,0,0.3,0.1,0.5,0.1c-0.1,1.2-0.3,2.4-0.4,3.6c-1.4,10.8-2.8,21.7-4,32.6c-0.9,7.7-1.5,15.4-1.3,23.2c0.2,7.8,0.5,15.5,0.6,23.3
	c0,4.3-0.1,8.6-0.7,12.8c-1.4,10.4-3.3,20.7-4.6,31.1c-1.1,7.9-1.8,15.9-2.5,23.8c-0.5,6.2-0.6,12.4-1,18.6
	c-0.7,9.2-2.3,18.3-4.5,27.3c-1.1,4.7-2.3,9.5-5.1,13.7c-0.7,1.1-1.2,2.3-1.7,3.5c-0.1,0.3-0.1,0.8,0.1,1c0.2,0.2,0.7,0.2,1,0.1
	c0.6-0.3,1.2-0.8,1.7-1.2c9-7.6,17.7-15.7,25.9-24.1c0.3-0.3,0.6-0.7,0.9-1.1c2.5-3.4,5.2-6.8,5.1-11.4c0-0.6,0.3-1.1,0.5-1.7
	c0.8,0.1,1.5,0,2,0.2c2.3,0.7,4.4,0,6.5-1c1.1-0.5,2.2-1.2,3.3-1.7c1.4-0.6,2.7-1.1,4.2-1.4c1.3-0.3,2.6-0.4,3.6,0.6
	c-0.4,3.6-1,7-1.2,10.5c-0.3,5-0.5,10.1-0.5,15.1c-0.1,6.6,0.2,13.2,1.9,19.6c2.3,8.5,4.8,16.9,7.3,25.3c3.1,10.3,6.7,20.5,9.4,30.9
	c2.5,9.7,4.2,19.7,6.1,29.6c1.6,7.8,3,15.7,3.3,23.7c0.1,3.2,0.2,6.5-0.2,9.8c-0.2,2-0.4,3.8-0.1,5.8c0.1,0.5,0.1,1.1,0.2,1.6
	c-0.5,0.4-1.1,0.7-1.5,1.2c-1.5,1.8-3,3.5-4.4,5.4c-0.5,0.7-0.6,1.6,0.2,2.3c0.8,0.7,1.8,1,2.8,0.4c0.5-0.3,0.8-0.7,1.2-1.1
	c0.8-0.7,1.5-1.4,2.6-2.5c0.3,4.5,0.4,8.5-0.2,12.5c-0.9,6.1-1.8,12.1-1.7,18.3c0,2.2-0.1,4.5,0,6.7c0,0.7,0.5,1.4,1,1.9
	c1.3,1.1,2.6,2.1,4,3.1c1.4,1,2.9,2.1,4.5,2.9c1.8,0.9,3.7,1.5,5.6,2.2c4.7,1.8,9.6,1.7,14.5,1.3c2.4-0.2,4-1.5,5.2-3.4
	c1.6-2.6,2.5-5.3,3.1-8.2c0.5-2.2,0.1-4.3-0.7-6.4c-1.2-3.2-2.3-6.4-3.4-9.7c-1.2-3.5-2.4-7.1-3.4-10.6c-0.6-2.1-1.1-4.2-1.6-6.3
	c-0.6-2.5-1.2-5-1.8-7.4c-0.1-0.4-0.2-0.9-0.4-1.3c1.3-0.6,2,0.3,2.8,0.8c1.3,0.8,2.2,0.4,2.7-1c0.6-1.6,0.2-3-1.4-4.1
	c-2.7-1.9-5.5-3.8-8.9-4.3c-0.8-0.1-1.8-0.5-2.1-1.1c-0.8-1.3-1.2-2.9-1.8-4.5c1.5,0.7,2.7,1.2,3.8,1.9c1,0.6,1.9,0.8,3.1,0.6
	c1-0.2,2.2-0.3,3.2,0c1.3,0.3,2-0.2,2.4-1.2c0.6-1.5,1.4-3,1.8-4.5c1.5-5.9,2.9-11.8,4.3-17.6c0.4-1.7,0.2-3.3-0.5-4.8
	c-2.6-6.2-4.8-12.6-8.6-18.3c-0.8-1.2-1.4-2.5-2.2-3.9c0.8-0.3,1.3-0.4,1.8-0.6c0.5-0.2,1-0.3,1.5-0.5c1.7-0.7,1.8-1.4,0.4-2.6
	c-1.6-1.4-3.1-2.8-4.6-4.2c-0.4-0.3-0.8-0.6-1.2-1c-1,0.6-1.9,1.2-3,1.8c-0.4-1.2-0.8-2.1-1-3.1c-0.3-2.6-0.7-5.2-0.8-7.9
	c-0.1-5.4,0.8-10.7,2-15.9c3.6-14.6,8.7-28.6,13.9-42.7c3.4-9.4,6-18.9,5.9-29c0-1.9,0-3.7,0.2-5.6c0-0.9,0.3-1.7,0.5-3.1
	c1.1,1,1.8,1.5,2.4,2.1c1.4,1.3,2.9,1.9,4.9,1.4c1.1-0.3,2.3-0.3,3.4-0.1c1.7,0.3,3.1,0.9,3.4,2.9c0.1,0.7,0.4,1.4,0.9,1.9
	c1.5,1.7,2.2,3.7,2.9,5.8c0.6,2,1.6,3.6,3.8,4.3c1.1,0.3,2.2,1.2,2.1,2.7c-0.3,3.9-0.6,7.9-1,11.8c-0.4,4.4-0.5,8.8,0.9,13.1
	c0.3,1,0.4,2.1,0.7,3.2c0.2,0.6,0.5,1.2,0.8,1.7c0.2,0,0.3,0,0.5,0c0.3-0.8,0.6-1.7,1-2.4c0.6-0.8,1.4-1.4,2.1-2.2
	c1.6-1.8,3.6-2.9,5.9-3.5c1.3-0.3,2.7-0.7,3.9-1.4c3.5-2,6.9-4.2,10.3-6.3c2.6-1.6,3.2-3.8,2.6-6.6c-0.6-2.5-1.3-5-1.8-7.5
	c-2.2-9.6-4.4-19.2-6.5-28.8c-0.7-3-1.1-6.1-1.1-9.2c0.1-7.6,0-15.2-0.1-22.8c-0.1-3.9-0.5-7.8-0.4-11.6c0.1-4.8,0.6-9.6,0.7-14.4
	c0.2-8.4,0.3-16.8,0.4-25.2c0-2.9,0-5.9-0.5-8.8c-0.8-5.5-1.8-11-2.9-16.5c-1.4-7.9-3.2-15.7-4.4-23.6c-1.6-10.6-2.9-21.2-4.3-31.8
	c-1.8-13.8-3.6-27.5-5.4-41.3c-0.2-1.7-0.7-3.5,0.7-5.1c0.5-0.5,0.4-1.5,0.6-2.2c1.9-7.1,4.1-14,7.6-20.5c0.2-0.4,0.5-0.8,1-1.4
	c0.2,0.6,0.2,0.9,0.3,1.2c1.5,4.8,2.6,9.8,5.1,14.2c2.7,5,5.7,9.8,9.3,14.2c1.9,2.3,3.7,4.6,5.2,7.2c4.2,7.1,8.3,14.2,12.3,21.4
	c3.7,6.6,7.3,13.3,10.9,20c0.3,0.6,0.4,1.5,0.4,2.2c0,4-0.1,7.9,0,11.9c0.2,5.8,1.4,11.3,4.9,16.3c1.3,1.8,2.3,3.9,3.2,5.9
	c0.8,2.1,1.7,4,4.6,3.9c-0.5,0.7-0.8,1.3-1.1,1.8c-1.2,1.6-2.5,3-3.5,4.6c-0.7,1.1-1.3,2.3-1.5,3.6c-0.2,1.6,1,2.3,2.4,1.4
	c1.3-0.9,2.4-1.9,3.5-3.1c1.1-1.2,2-2.6,2.9-3.9c0.6-0.9,1.3-1.4,2.4-1.6c3-0.5,4.3-2.7,3.4-5.7c-0.7-2.6-0.8-5.2,0.1-7.8
	c1.1-3.1,1-6.2-0.5-9.2c-2.3-4.8-3.4-10-3.4-15.3c0-2.8-1.5-4.8-3.1-6.8c-1.2-1.5-2.7-2.8-3.7-4.5c-2-3.3-4-6.7-5.7-10.1
	c-1.7-3.5-3.1-7.1-4.3-10.8c-2.5-7.7-4.7-15.4-7.1-23.1c-2.3-7.2-5-14.2-8.9-20.7c-3.6-5.9-7-11.9-9.9-18.2
	c-2.1-4.8-4.1-9.5-5.2-14.6c-1.1-5.1-3-10-4.9-14.8c-0.6-1.4-0.2-2.3,0.8-3.3c2-2,4.1-4.1,6-6.2c2.7-3.2,5.4-6.4,8-9.7
	c1.1-1.4,1-1.5-0.1-3c-0.5-0.7-0.9-1.4-1.3-2.2c-1.5-3.4-2.8-6.9-4.4-10.3c-1.4-2.9-2.8-5.9-4.7-8.6c-3.5-5-7.2-9.8-10.9-14.5
	c-0.7-0.9-1.7-1.6-2.8-2c-6.3-2.5-12.5-5.2-19.1-6.7c-1.2-0.3-1.6-1-1.9-2c-0.4-1.6-0.9-3.3-1.5-4.9c-1.5-3.8-3.1-7.6-4.5-11.5
	c-0.7-2-1.2-4.1-1.8-6.4c2.9,1.8,4.9,4.4,8.6,4.6c-0.5-1.2-0.9-2.1-1.4-3c-4-7.5-6.2-15.5-6.2-24.1c0-3.6-0.2-7.3-0.3-10.9
	c-0.1-7.4-2.4-14.2-5.6-20.7c-1.7-3.5-4-6.4-6.9-9c-2.2-1.9-4.3-3.8-6.4-5.8c-3.9-3.8-8.6-5-13.8-5.1c-3.1,0-5.8,1-8.1,3
	c-2.4,2-4.9,4-7.2,6.2c-4.7,4.5-8.2,9.6-9.6,16.2c-1,4.7-0.8,9.4-0.7,14.1c0,0.8,0.1,1.5-0.6,2.1c-0.9,0.8-0.9,1.9-0.8,3
	c0.3,2.8,0.5,5.6,0.9,8.3c0.1,0.9,0.3,2,0.9,2.5c1.5,1.4,3.3,2.5,5.2,4c1.5,3.7,3.2,7.8,4.8,11.9c-1.8,1.1-3.7,2.1-5.5,3.3
	c-2.5,1.8-3.4,4.3-2.5,7.4c0.4,1.3,0.7,2.7,1.1,4c-1.3,1.2-3,2.1-2.7,4c-0.2,0.2-0.3,0.3-0.5,0.4c-1.6,0.7-3.1,1.5-3,3.7
	c0,0.4-0.7,1-1.1,1.3c-3.3,2.3-6.8,4.4-10.7,5.6c-6.4,1.9-12.8,3.8-19.2,5.6c-1.8,0.5-3.3,1.4-4.4,2.9c-1.2,1.7-2.5,3.4-3.6,5.2
	c-4.4,7-8.8,13.9-14.3,20.1c-0.3,0.3-0.6,0.7-0.8,1.1c-0.9,1.4-0.7,3.3,0.5,4.4c3,2.8,5,6.3,6.7,10c1.3,2.8,2.3,5.8,3.5,8.6
	c1.3,3,2.7,5.9,4.2,8.8c1.1,2,2.5,3.7,4.8,4.5c-0.4,3.3-0.8,6.5-1.2,9.6c-0.8,6-1.6,12-2.3,18c-0.2,1.9-0.1,3.9,0.2,5.8
	c0.2,1.1,0.3,2.1-0.1,3.1c-0.9,2.3-1.8,4.6-2.8,6.9c-3.3,7.3-6.2,14.7-8.2,22.5c-1.1,4-2.3,7.9-3.4,11.8c-3.6,0-4.5,1-4,4.3
	c0.2,1.4,0.2,2.8,0.3,4.1c-2.9,1.3-3,1.5-1.8,4.6c0.3,0.6,0.5,1.3,0.7,2c0.5,1.8,0.4,3.6-0.4,5.2c-2.6,4.9-3.8,10.2-4.5,15.6
	c-0.5,4.2-0.9,8.3-1.1,12.5c-0.1,2-1.1,3.1-2.5,4.1c-1.6,1.2-3.1,2.5-4.2,4.3c0.3,0.7,0.6,1.5,0.9,2.2c0.6,1.2,1,1.4,2.2,0.7
	c0.6-0.3,1.1-0.6,2-1.2c-0.4,1.8-0.4,3.5-1.1,4.6c-2.9,4.5-3.3,9.6-3.7,14.7c-0.2,3.4-0.6,6.8-2.1,10c-0.3,0.5-0.3,1.2-0.5,1.6
	c1.1,1.1,2.3,1.9,3.1,3c2.1,3.1,4,6.4,6.1,9.5c0.6,0.8,1.6,1.6,2.5,1.8c1.1,0.2,1.2-1.2,1.6-1.9c0-0.1,0.1-0.1,0.1-0.2
	c3.3-0.4,6.7,0.6,10.1-1.1c-0.5-1.7-1.1-3.4-1.6-5.1c-0.3-1.2-1-1.6-2.2-1.5c-1.4,0.1-2.8,0-4.4,0c0.3-1,0.6-1.8,0.9-2.6
	c1.5-4.1,3.1-8.3,4.6-12.4C204,414.4,204.5,411.6,203.8,408.5z"/>
<path d="M203.8,408.5c0.7,3.1,0.1,5.9-0.8,8.6c-1.5,4.2-3.1,8.3-4.6,12.4c-0.3,0.8-0.5,1.6-0.9,2.6c1.7,0,3.1,0.1,4.4,0
	c1.2-0.1,1.9,0.4,2.2,1.5c0.5,1.7,1,3.3,1.6,5.1c-3.5,1.6-6.9,0.7-10.1,1.1c0,0-0.1,0.1-0.1,0.2c-0.4,0.8-0.5,2.2-1.6,1.9
	c-0.9-0.2-2-1-2.5-1.8c-2.1-3.1-4-6.4-6.1-9.5c-0.8-1.1-1.9-1.9-3.1-3c0.1-0.5,0.2-1.1,0.5-1.6c1.5-3.2,1.8-6.5,2.1-10
	c0.4-5.1,0.8-10.1,3.7-14.7c0.7-1.1,0.7-2.8,1.1-4.6c-0.9,0.5-1.4,0.9-2,1.2c-1.2,0.6-1.6,0.5-2.2-0.7c-0.3-0.7-0.6-1.4-0.9-2.2
	c1-1.8,2.5-3.2,4.2-4.3c1.5-1,2.4-2.2,2.5-4.1c0.2-4.2,0.6-8.4,1.1-12.5c0.7-5.4,1.8-10.7,4.5-15.6c0.9-1.6,0.9-3.4,0.4-5.2
	c-0.2-0.7-0.5-1.3-0.7-2c-1.2-3-1.1-3.3,1.8-4.6c-0.1-1.4-0.1-2.8-0.3-4.1c-0.5-3.3,0.4-4.4,4-4.3c1.1-3.9,2.4-7.8,3.4-11.8
	c2.1-7.8,5-15.2,8.2-22.5c1-2.3,1.9-4.6,2.8-6.9c0.4-1,0.3-2,0.1-3.1c-0.3-1.9-0.4-3.9-0.2-5.8c0.7-6,1.5-12,2.3-18
	c0.4-3.1,0.8-6.3,1.2-9.6c-2.3-0.7-3.7-2.5-4.8-4.5c-1.5-2.9-2.9-5.8-4.2-8.8c-1.3-2.8-2.3-5.8-3.5-8.6c-1.6-3.7-3.7-7.2-6.7-10
	c-1.2-1.2-1.4-3-0.5-4.4c0.2-0.4,0.5-0.8,0.8-1.1c5.5-6.1,10-13.1,14.3-20.1c1.1-1.8,2.4-3.5,3.6-5.2c1.1-1.5,2.5-2.4,4.4-2.9
	c6.4-1.8,12.8-3.7,19.2-5.6c3.9-1.2,7.3-3.3,10.7-5.6c0.5-0.3,1.1-0.9,1.1-1.3c-0.1-2.2,1.4-3,3-3.7c0.1-0.1,0.2-0.2,0.5-0.4
	c-0.3-2,1.3-2.8,2.7-4c-0.4-1.4-0.7-2.7-1.1-4c-0.9-3.1-0.1-5.6,2.5-7.4c1.7-1.2,3.7-2.2,5.5-3.3c-1.6-4.1-3.3-8.2-4.8-11.9
	c-2-1.5-3.7-2.6-5.2-4c-0.6-0.5-0.8-1.7-0.9-2.5c-0.4-2.8-0.6-5.5-0.9-8.3c-0.1-1.1-0.1-2.2,0.8-3c0.7-0.6,0.6-1.3,0.6-2.1
	c-0.2-4.7-0.3-9.4,0.7-14.1c1.4-6.5,4.8-11.7,9.6-16.2c2.3-2.2,4.8-4.2,7.2-6.2c2.4-2,5.1-3,8.1-3c5.2,0,10,1.2,13.8,5.1
	c2,2,4.2,3.9,6.4,5.8c2.9,2.6,5.2,5.5,6.9,9c3.2,6.5,5.5,13.3,5.6,20.7c0,3.6,0.3,7.3,0.3,10.9c0,8.6,2.2,16.6,6.2,24.1
	c0.5,0.9,0.8,1.8,1.4,3c-3.7-0.1-5.7-2.7-8.6-4.6c0.7,2.4,1.1,4.5,1.8,6.4c1.4,3.9,3,7.6,4.5,11.5c0.6,1.6,1.1,3.2,1.5,4.9
	c0.3,1.1,0.7,1.8,1.9,2c6.6,1.5,12.8,4.2,19.1,6.7c1,0.4,2.1,1.1,2.8,2c3.7,4.8,7.4,9.6,10.9,14.5c1.8,2.7,3.3,5.6,4.7,8.6
	c1.6,3.4,3,6.8,4.4,10.3c0.3,0.8,0.8,1.5,1.3,2.2c1.1,1.5,1.2,1.6,0.1,3c-2.6,3.3-5.2,6.6-8,9.7c-1.9,2.2-3.9,4.2-6,6.2
	c-1,1-1.3,1.8-0.8,3.3c2,4.8,3.8,9.7,4.9,14.8c1.1,5.1,3.1,9.9,5.2,14.6c2.8,6.3,6.3,12.3,9.9,18.2c3.9,6.5,6.6,13.5,8.9,20.7
	c2.4,7.7,4.6,15.5,7.1,23.1c1.2,3.7,2.7,7.3,4.3,10.8c1.7,3.5,3.7,6.8,5.7,10.1c1,1.6,2.5,2.9,3.7,4.5c1.5,2,3.1,4.1,3.1,6.8
	c-0.1,5.4,1,10.5,3.4,15.3c1.5,3.1,1.7,6.1,0.5,9.2c-0.9,2.6-0.9,5.1-0.1,7.8c0.9,3-0.4,5.1-3.4,5.7c-1.1,0.2-1.8,0.7-2.4,1.6
	c-0.9,1.4-1.8,2.7-2.9,3.9c-1,1.1-2.2,2.2-3.5,3.1c-1.3,0.9-2.6,0.1-2.4-1.4c0.2-1.3,0.8-2.5,1.5-3.6c1-1.6,2.3-3.1,3.5-4.6
	c0.4-0.5,0.7-1,1.1-1.8c-2.9,0-3.8-1.8-4.6-3.9c-0.8-2.1-1.9-4.1-3.2-5.9c-3.4-4.9-4.7-10.4-4.9-16.3c-0.1-4,0-7.9,0-11.9
	c0-0.7-0.1-1.6-0.4-2.2c-3.6-6.7-7.2-13.4-10.9-20c-4-7.2-8.1-14.3-12.3-21.4c-1.5-2.5-3.3-4.9-5.2-7.2c-3.6-4.4-6.6-9.2-9.3-14.2
	c-2.5-4.4-3.6-9.4-5.1-14.2c-0.1-0.3-0.2-0.6-0.3-1.2c-0.4,0.6-0.7,1-1,1.4c-3.5,6.4-5.7,13.4-7.6,20.5c-0.2,0.8-0.2,1.7-0.6,2.2
	c-1.4,1.6-0.9,3.3-0.7,5.1c1.8,13.8,3.6,27.5,5.4,41.3c1.4,10.6,2.7,21.2,4.3,31.8c1.2,7.9,2.9,15.7,4.4,23.6c1,5.5,2.1,11,2.9,16.5
	c0.4,2.9,0.5,5.9,0.5,8.8c-0.1,8.4-0.2,16.8-0.4,25.2c-0.1,4.8-0.6,9.6-0.7,14.4c-0.1,3.9,0.4,7.8,0.4,11.6
	c0.1,7.6,0.2,15.2,0.1,22.8c-0.1,3.2,0.4,6.2,1.1,9.2c2.1,9.6,4.3,19.2,6.5,28.8c0.6,2.5,1.2,5,1.8,7.5c0.6,2.8,0,5-2.6,6.6
	c-3.5,2.1-6.8,4.3-10.3,6.3c-1.2,0.7-2.6,1.1-3.9,1.4c-2.3,0.6-4.3,1.7-5.9,3.5c-0.7,0.7-1.5,1.3-2.1,2.2c-0.5,0.7-0.7,1.6-1,2.4
	c-0.2,0-0.3,0-0.5,0c-0.3-0.6-0.6-1.1-0.8-1.7c-0.3-1-0.4-2.1-0.7-3.2c-1.4-4.3-1.4-8.7-0.9-13.1c0.4-3.9,0.7-7.9,1-11.8
	c0.1-1.4-1.1-2.4-2.1-2.7c-2.3-0.7-3.2-2.3-3.8-4.3c-0.6-2.1-1.4-4.1-2.9-5.8c-0.4-0.5-0.8-1.2-0.9-1.9c-0.3-2-1.7-2.7-3.4-2.9
	c-1.1-0.2-2.3-0.1-3.4,0.1c-2,0.5-3.5-0.1-4.9-1.4c-0.6-0.6-1.3-1.2-2.4-2.1c-0.3,1.4-0.5,2.3-0.5,3.1c-0.1,1.9-0.2,3.7-0.2,5.6
	c0.1,10.1-2.5,19.6-5.9,29c-5.2,14.1-10.3,28.1-13.9,42.7c-1.3,5.2-2.2,10.5-2,15.9c0.1,2.6,0.4,5.3,0.8,7.9c0.1,1,0.6,1.9,1,3.1
	c1.1-0.7,2-1.2,3-1.8c0.4,0.3,0.9,0.6,1.2,1c1.5,1.4,3,2.9,4.6,4.2c1.4,1.2,1.4,1.9-0.4,2.6c-0.5,0.2-1,0.3-1.5,0.5
	c-0.5,0.2-1,0.3-1.8,0.6c0.8,1.4,1.4,2.7,2.2,3.9c3.8,5.7,6,12.1,8.6,18.3c0.6,1.5,0.9,3.1,0.5,4.8c-1.4,5.9-2.8,11.8-4.3,17.6
	c-0.4,1.6-1.1,3-1.8,4.5c-0.4,1-1.1,1.5-2.4,1.2c-1-0.2-2.2-0.1-3.2,0c-1.2,0.2-2.1,0-3.1-0.6c-1.1-0.7-2.3-1.2-3.8-1.9
	c0.6,1.6,1,3.1,1.8,4.5c0.3,0.6,1.4,1,2.1,1.1c3.5,0.5,6.2,2.4,8.9,4.3c1.5,1.1,1.9,2.5,1.4,4.1c-0.5,1.4-1.4,1.7-2.7,1
	c-0.8-0.5-1.5-1.4-2.8-0.8c0.1,0.4,0.2,0.9,0.4,1.3c0.6,2.5,1.2,5,1.8,7.4c0.5,2.1,1,4.2,1.6,6.3c1.1,3.6,2.3,7.1,3.4,10.6
	c1.1,3.2,2.2,6.5,3.4,9.7c0.8,2.1,1.2,4.1,0.7,6.4c-0.6,2.9-1.6,5.7-3.1,8.2c-1.2,2-2.8,3.3-5.2,3.4c-4.9,0.4-9.8,0.5-14.5-1.3
	c-1.9-0.7-3.8-1.3-5.6-2.2c-1.6-0.8-3-1.9-4.5-2.9c-1.4-1-2.8-2-4-3.1c-0.5-0.5-1-1.2-1-1.9c-0.1-2.2,0-4.5,0-6.7
	c-0.1-6.2,0.8-12.2,1.7-18.3c0.6-4,0.5-8,0.2-12.5c-1.1,1-1.8,1.8-2.6,2.5c-0.4,0.4-0.8,0.8-1.2,1.1c-1,0.6-2,0.3-2.8-0.4
	c-0.8-0.7-0.7-1.6-0.2-2.3c1.4-1.8,2.9-3.6,4.4-5.4c0.4-0.5,0.9-0.8,1.5-1.2c-0.1-0.6-0.1-1.1-0.2-1.6c-0.3-1.9-0.1-3.8,0.1-5.8
	c0.3-3.2,0.3-6.5,0.2-9.8c-0.3-8-1.7-15.9-3.3-23.7c-2-9.9-3.6-19.9-6.1-29.6c-2.7-10.4-6.3-20.6-9.4-30.9c-2.5-8.4-5-16.8-7.3-25.3
	c-1.7-6.4-2-13-1.9-19.6c0.1-5,0.2-10.1,0.5-15.1c0.2-3.5,0.8-6.9,1.2-10.5c-1-1-2.4-0.9-3.6-0.6c-1.4,0.3-2.8,0.9-4.2,1.4
	c-1.1,0.5-2.2,1.1-3.3,1.7c-2.1,1-4.2,1.7-6.5,1c-0.6-0.2-1.2-0.1-2-0.2c-0.2,0.5-0.5,1.1-0.5,1.7c0.1,4.6-2.6,8-5.1,11.4
	c-0.3,0.4-0.6,0.7-0.9,1.1c-8.3,8.4-16.9,16.5-25.9,24.1c-0.5,0.4-1.1,0.9-1.7,1.2c-0.3,0.1-0.8,0.1-1-0.1c-0.2-0.2-0.2-0.7-0.1-1
	c0.5-1.2,1-2.5,1.7-3.5c2.8-4.2,3.9-8.9,5.1-13.7c2.2-9,3.8-18.1,4.5-27.3c0.5-6.2,0.5-12.4,1-18.6c0.7-8,1.4-15.9,2.5-23.8
	c1.4-10.4,3.2-20.7,4.6-31.1c0.6-4.2,0.7-8.5,0.7-12.8c-0.1-7.8-0.4-15.5-0.6-23.3c-0.2-7.8,0.4-15.5,1.3-23.2
	c1.3-10.9,2.7-21.7,4-32.6c0.1-1.2,0.3-2.4,0.4-3.6c-0.2,0-0.3-0.1-0.5-0.1c-0.5,1.3-1,2.5-1.4,3.8c-1.7,5.7-2.8,11.4-2.8,17.4
	c0,1.8,0,3.6-0.1,5.4c-0.1,1.7-0.7,3.2-2.4,4c-0.4,0.2-0.8,0.4-1.2,0.7c-1.3,0.9-1.4,1.8-0.2,2.7c0.8,0.6,1.5,1.1,1.5,2.2
	c0,1.4,0.1,2.8-0.9,4C205,408,204.4,408.2,203.8,408.5z M259.5,128.1c0.1,1.2,0.1,1.2,1.3,1.8C260.3,129.3,259.9,128.7,259.5,128.1
	c-0.8-0.3-1-0.9-1-1.9c1.1,0.9,1.9,1.6,2.8,2.3c-1.5-1.9-2.3-4.1-3-6.3c-0.5-1.6-0.3-2.9,1.1-4.1c1.2,2.5,1.2,5.4,3.1,8
	c0.4-1.8,0.8-3.1,0.1-4.6c-0.6-1.3-0.8-2.7,0-4.4c0.2,1.1,0.4,1.8,0.5,2.4c1.2-4.5,4.7-6.5,8.1-8.6c0-2.3,0-4.4,0-6.6
	c0.2,0,0.4,0,0.5-0.1c0.4,1.8,0.7,3.7,1.1,5.6c1.8,0.9,3.7,1.5,5.6-0.1c0.4-0.4,1.4-0.5,2-0.3c1.8,0.6,3.5,0.3,5.3-0.1
	c1.3-0.2,2.5-0.4,3.9,0c1.7,0.5,2.4-0.1,3.2-1.8c0.4-0.9,0.9-1.9,1.3-2.8c0.2,0.1,0.4,0.1,0.5,0.2c-0.3,1.5-0.7,2.9-1,4.4
	c2.5,0.8,2.9,3.3,4.2,5c1.3,1.8,2.2,3.8,3.3,5.8c0.6-0.5,1.2-1.6,1.9-0.1c-0.9,0.3-1.4,0.7-0.9,1.9c0.3-0.6,0.6-1.3,0.8-1.9
	c0.3,0.1,0.6,0.2,0.9,0.3c-0.5,1-1,1.8-1.4,2.7c0.1,0.1,0.2,0.1,0.3,0.2c0.6-0.4,1.1-0.8,1.7-1.2c0.1,0.1,0.2,0.2,0.3,0.3
	c-0.6,0.7-1.1,1.4-1.7,2.1c0.2,0.7,0.4,1.4,0.7,2.1c3-3.6,1.8-7.6,1.6-11.5c0-0.1-0.1-0.2-0.2-0.3c-0.3,0.5-0.5,1.1-0.9,1.9
	c-0.8-1.4-0.3-2.5,0-3.5c0.1-0.4,0.5-0.8,0.5-1.1c-0.9-4.8-3.2-9-6.6-12.3c-2.9-2.8-6.4-5-10.3-6.2c-6.9-2-13.6-2.1-19.2,3.5
	c-2.9,2.9-5.7,5.9-7.8,9.5c-1.1,1.8-1.9,3.7-1.6,5.9c0.1,0.6-0.2,1.8-0.5,1.9c-1.1,0.1-0.9,0.9-1,1.5c-0.3,2.3-0.6,4.6-0.6,6.9
	c0,1.9,0.1,4,1,5.8C258.6,128.3,259.1,128.2,259.5,128.1z M289.4,324.2c-1.2,0.4-2,0.8-2.8,0.9c-1.6,0.3-2.4,1.3-3.4,2.6
	c-1.9,2.5-4,4.9-6.2,7.2c-1.5,1.6-2.5,1.5-4.4,0.4c-2.8-1.5-3.9-4.1-5-6.8c-1.2-3.1-1.1-6.1,1.5-8.6c0.2-0.1,0.2-0.4,0.3-0.6
	c-1.6-0.2-3.2-0.4-4.9-0.6c-0.7-1.3-1.9-1.7-3.6-1.2c-1.1,0.4-2.1,0-2.7-1.2c-0.4-0.9-1.1-1.2-2.2-0.9c-1.1,3.1-2.2,6.3-3.2,9.4
	c-1.4,0.6-2.4-0.1-3.3-0.8c-1.5-1.1-2.8-2.4-4.8-2.9c-0.2,0.6-0.3,1-0.4,1.5c-1.2,5-2.6,9.9-4.6,14.6c-2,4.7-3.9,9.5-5.8,14.2
	c-5.4,13.2-8.6,26.9-9.6,41.1c-0.4,5.6-1,11.1-1.6,16.7c-1.1,10-2.3,20-3.6,30.1c-0.2,1.4,0,2.5,0.5,3.8c2.3,6.3,4.4,12.6,5.5,19.2
	c0.7,4.1,1.7,8.2,2.6,12.3c0.2,0.7,0.5,1.4,0.8,2.2c0.5-0.3,0.7-0.5,1-0.7c2.9-2.6,6.2-4.3,9.9-5.4c6.8-2.1,13.8-2.1,20.7-0.8
	c8.3,1.5,16.1,4.7,23.6,8.3c2.3,1.1,4.7,2,7.1,2.8c6.1,1.8,12.2,2.8,18.6,2.2c3.8-0.4,7.7-0.7,11.4,1.6c0.1-0.8,0.3-1.3,0.3-1.8
	c1.3-7.6,2.5-15.3,4-22.9c1.1-5.6,2.7-11,5.1-16.2c1-2.1,1.3-4.2,1.3-6.5c0-13.8,0-27.6-0.9-41.4c-0.3-4.6-0.2-9.3-0.8-13.9
	c-1.2-8.9-2.8-17.8-4-26.7c-1.5-10.4-2.7-20.8-4.1-31.1c-0.1-0.6-0.3-1.1-0.4-1.7c-3-0.5-5.3,0.6-7.5,2.4c-1.5,1.2-2.8,2.8-5.1,3.6
	c0.5,0.7,1.3,1.1,1.9,1.7c1.8,1.8,3.3,3.8,3.5,6.4c0.2,3.1,0.1,6.2-0.1,9.3c0,0.9-0.4,1.9-1,2.5c-2.6,2.8-5.5,5-9.2,6.1
	c-2.1,0.6-2.9,0.2-3.9-1.8c-1.1-2.2-1-4.5-1.1-6.8c-0.1-2.9,0-5.8-0.4-8.6C297.4,331.5,293.9,327.4,289.4,324.2z M285,700.9
	c-1.2-4.6-2.6-8.9-3.6-13.4c-2.6-11-3.9-22.1-4.9-33.4c-0.8-9.3-1.2-18.6-0.6-27.9c0.4-6,0.6-12.1,0.8-18.1
	c0.2-5.8,0.3-11.6,0.4-17.5c0.1-6.7-0.8-13.3-1.5-19.9c-1-8.7-2.6-17.3-4.9-25.8c-0.5-2-0.7-4.1-0.7-6.2c0-1.9,0.3-3.9,0.7-5.8
	c1.2-6.1,1.9-12.3,1.5-18.5c-0.1-1.6-0.3-3.2-0.3-4.9c-0.1-3.1-0.1-6.2-0.2-9.3c0-1.6-0.5-3.1-2.1-3.8c-5.8-2.6-11.7-4.9-18.2-5.3
	c-4-0.2-7.4,1.2-10.9,2.6c0.1,1.3,0.1,2.3,0.3,3.3c0.6,3.4,1.2,6.7,1.9,10.1c1.6,7.9,2.4,15.8,2.4,23.8c0,0.9-0.1,1.9-0.2,2.8
	c-0.5,3.6-1.1,7.2-1.6,10.8c-1,8.4-1.4,16.8-1,25.3c0.3,7.3,1.5,14.5,3.6,21.5c2.9,9.4,5.9,18.8,8.9,28.2c2.4,7.6,5.3,15.1,7,22.9
	c3.7,16.4,7.3,32.9,8.8,49.7c0.4,4.5,0.8,9-0.3,13.5c-0.2,1,0,2.1,0,3.5c0.8-0.4,1.2-0.6,1.5-0.9c1.6-1.1,3.2-2.4,4.9-3.4
	c1-0.6,1.7-1.2,1.5-2.5C280.5,701.3,282.6,700.5,285,700.9z M342.1,461.6c0.2,0,0.4,0,0.6,0c0.7,8,1.1,16,2.2,24
	c1.1,8,2.9,16,4.4,23.9c0.4-3,0.4-5.9,0.4-8.8c-0.1-6.7-1.1-13.3-0.5-20c0.2-2.9,0.4-5.7,0.5-8.6c0.2-6.2,0.4-12.4,0.4-18.6
	c0.1-4.6,0.1-9.2-0.1-13.7c-0.4-7-2-13.8-3.3-20.7c-1.6-8.2-3.2-16.4-4.5-24.7c-1.4-8.6-2.4-17.2-3.6-25.8c-1-7.7-2.1-15.4-3.1-23.1
	c-0.7-5.5-1.2-11-1.9-16.4c-1.4-10.6-2.4-21.3-2.8-32c-0.3-6.4-0.1-12.9-0.2-19.3c0-0.6,0-1.2,0-1.9c-2.1-1.2-4.1-2.5-6.2-3.4
	c-2.1-0.8-3.2-3.5-5.9-3.4c-0.2,0.6-0.4,1.1-0.4,1.6c-0.3,4.1-0.9,8.2-0.8,12.3c0.2,6,0.9,11.9,2,17.8c1.6,9,3.7,17.9,4,27.1
	c0,0.3,0.1,0.6,0.1,0.9c0.9,6.5,1.7,13.1,2.6,19.6c0.9,6.5,1.8,12.9,2.8,19.3c0.9,6.2,2.4,12.4,2.9,18.6c0.8,11.1,1.3,22.3,1.4,33.5
	c0.2,23.1,1,46.1,0.5,69.2c-0.1,6.9,0,13.8,0.3,20.7c0.4,8.4,1.3,16.7,1.7,25.1c0.2,4.3,0.2,8.7-0.1,13c-0.6,8.4-1.5,16.8-2.2,25.3
	c-0.3,3.6,0.4,7,1.8,10.5c0.4-0.4,0.8-0.6,1-0.9c1.9-2.8,4.7-4.5,8-5.2c1.1-0.2,2.3-0.7,3.2-1.2c3.1-1.8,6.3-3.7,9.3-5.7
	c2.9-1.9,3.3-3.2,2.5-6.5c-1.7-6.9-3.4-13.9-5-20.8c-1.6-7.1-3-14.3-4.3-21.4c-1.6-8.5-2.9-17-4.6-25.4c-1.9-9.2-3.5-18.4-3.1-27.9
	C342.2,466.2,342.1,463.9,342.1,461.6z M247.3,200.4c0.1,0,0.2,0.1,0.3,0.1c-0.1,0.4-0.1,0.9-0.3,1.3c-1.5,3.6-3,7.1-4.6,10.7
	c-1.9,4.2-4,8.2-5.8,12.5c-2.2,5.3-4.2,10.7-6.4,16c-2.3,5.4-3.9,10.9-4.6,16.8c-0.3,2.4,0.3,3.3,2.8,3.5c1.4,0.1,2.8,0,4.2,0.1
	c4.7,0.3,9.2,1.2,12.7,4.9c0.3,0.3,1,0.6,1.4,0.4c0.4-0.1,0.6-0.8,0.7-1.3c0.5-2.5,0-4.9-0.3-7.7c-1.5,0-3-0.1-4.4,0
	c-4.6,0.2-9.1,1.2-13.5,2.4c-0.4,0.1-0.9,0.1-1.4,0.1c0-0.2,0-0.3,0-0.5c13.1-5.4,25.7-4,38,3.3c0-0.6,0.1-0.9,0.1-1.3
	c-0.2-4.3-1-8.5-2.1-12.6c-2.4-8.9-3.8-17.9-4.5-27c-0.5-6.5-1.2-13-1.7-19.5c-0.2-2.7-0.2-5.4-0.2-8.1c0-1.7,0.5-3.2,2.4-3.7
	c-1.4-2.6-2.9-5-5.8-6.3c-0.6,0.4-1.3,0.8-2,1.3c-3.7,2.5-7.6,4.4-11.9,5.7c-5.5,1.6-11,3.3-16.5,4.7c-2.1,0.6-3.7,1.6-4.8,3.3
	c-2,3.1-4,6.3-6.1,9.3c-3.7,5.3-7.5,10.5-11.3,15.6c-1.1,1.5-1.3,2.1,0,3.3c3.5,3.3,5.9,7.4,7.7,11.8c1.3,3.3,2.5,6.7,4,9.9
	c1.1,2.4,2.3,4.7,3.6,7c0.5,0.8,1.3,1.4,2.2,2.4c0.3-1.6-0.6-2.3-1-3.1c-0.4-0.8-1-1.7-1-2.5c0-2.4,0.2-4.8,0.4-7.2
	c0.6-7.5,1.1-15,1.9-22.5c0.4-3.9,1.1-7.8,1.8-11.7c0.1-0.8,0.6-1.5,0.9-2.3c-1.1,6.9-1.6,13.8-1.8,20.7c-0.3,6.8-1.8,13.6-1.4,20.1
	c2.4,0.9,4.4,1.6,6.2,2.2c1.6-4.6,3.3-9.1,4.9-13.7c0.1-0.4,0.2-0.9,0.2-1.3c-0.2-4-0.3-8.1-0.7-12.1c-0.5-6.4-1.2-12.8-1.8-19.2
	c-0.1-1.4-0.4-2.7,0.1-4.1c2.1,10.6,3.1,21.2,3.6,32c2.6-5.7,4.9-11.4,7.5-17C241.5,211.5,244.5,206,247.3,200.4z M253.1,274.1
	c-0.5,0-0.6-0.1-0.8-0.1c-5.2,1.2-9.9,3.7-14.4,6.5c-0.8,0.5-0.9,1.2-0.9,2c0,2,0,4,0,6.1c-0.1,3.1,0.1,6.3-0.6,9.3
	c-1.3,5.4-3,10.6-4.7,15.8c-1.3,4-2.9,7.8-4.4,11.8c-1.5,3.9-3,7.8-4.6,11.7c-1.6,3.8-2.7,7.9-4.3,11.7c-0.7,1.8-0.8,3.8-1.2,5.7
	c-0.3,1.8-0.3,3.6-0.9,5.3c-1.3,3.8-1.8,7.7-2.3,11.6c-1,8.2-1.8,16.5-3,24.7c-1.9,13.2-3,26.5-2.1,39.9c0.1,1.9,0.1,3.7,0.2,5.6
	c0.4,8.2,0.4,16.3-0.9,24.4c-1,6.3-2.1,12.5-3,18.8c-1,7.1-1.9,14.1-2.6,21.2c-0.6,6-1.2,12-1.5,18.1c-0.5,9.2-0.9,18.4-2.7,27.5
	c-0.3,1.3-0.3,2.6-0.5,3.9c0.6-0.8,0.9-1.7,1.1-2.6c2.1-8.9,4.5-17.6,8-26c0.3-0.6,0.5-1.3,0.6-2c3.8-13.8,6.1-27.9,6.5-42.2
	c0.1-6.2,0.1-12.4,0.7-18.6c1.2-12.4,2.8-24.8,4.2-37.2c1.5-12.9,3-25.7,4.4-38.6c0.8-7.5,2.1-14.9,4.1-22.2
	c2.5-8.9,6.1-17.4,9.7-25.9c2.9-6.8,5.1-13.8,6.7-21c1.1-4.9,2.6-9.7,3.8-14.6c0.8-3.2,1.5-6.3,2.1-9.5c0.3-1.7,0.3-3.4,0.4-5.1
	C250.6,284.6,251.5,279.4,253.1,274.1z M307.6,256.9c0.2,0.1,0.3,0.2,0.5,0.2c3-2.5,6.3-4.4,10.2-5.4c3.9-1,7.7-1.6,11.7-1.8
	c3.9-0.2,7.5,1.1,11.1,2.6c-3.8-11.5-7.5-22.7-11.3-33.8c-3.8-11.1-9.8-21.3-13.8-32.3c1.6,1.4,2.4,3.3,3.3,5.2
	c2.7,5.5,5.3,11.1,7.9,16.6c0.9,1.8,1.7,3.7,2.4,5.6c2.1,5.9,4.1,11.9,6.1,17.9c1.8,5.5,3.6,11.1,5.4,16.6c0.9,2.9,2.8,5.5,2.8,9.3
	c8-8.2,16.1-15.6,22.2-24.4c-0.7-1.4-1.4-2.5-2-3.7c-1.5-3.5-3-7-4.5-10.5c-1.4-3.2-3-6.1-5.1-8.9c-3.3-4.4-6.6-8.8-9.9-13.2
	c-0.5-0.6-1.1-1.2-1.8-1.4c-4.9-1.9-9.8-4-14.8-5.5c-5.5-1.6-10.8-3.4-15.3-7.1c0,0-0.2,0-0.4,0c-0.2,1.7-0.4,3.5-0.5,5.2
	c-0.6,12.2-1.1,24.4-1.7,36.5c-0.4,7-1.1,14.1-1.7,21.1C308.1,249.3,307.9,253.1,307.6,256.9z M286.8,644.2c-1.6-2.8-1.8-6-2-9.2
	c-0.5-7.5,0.7-14.7,2.7-21.9c3.7-13.3,8.2-26.4,13.1-39.3c3.6-9.3,6.1-18.7,6.1-28.7c0-1.7,0.1-3.4,0.2-5.1
	c0.5-6.9,1.4-13.7,2.8-20.5c0.8-4.3,1.4-8.6,4.6-12.3c-10.5-2.4-20.6-5.2-31.2-6.8c-0.1,2.9-0.3,5.6-0.4,8.3
	c-0.1,6.3-0.1,12.6,0,18.9c0.1,6.8-1,13.5-1.7,20.2c-0.4,4.2-0.9,8.5-1.3,12.7c-0.8,8.2-1.4,16.3-1.4,24.6c0.1,9-0.2,18-0.4,27
	c-0.2,6.6-0.8,13.2-0.7,19.8c0,7.2,0.6,14.4,0.9,21.6c0,0.6,0.2,1.2,0.3,2C281.2,651.7,283.9,648.1,286.8,644.2z M335.9,263.8
	c0.1,0.4,0.1,0.7,0.2,1c2.3,6.8,4,13.7,7.4,20.1c1,1.8,1.6,3.9,1.8,6c0.9,7.5,3.2,14.5,7.2,20.9c2.4,3.9,5.3,7.5,7.9,11.2
	c2.4,3.4,4.9,6.7,6.9,10.2c5.6,9.7,10.9,19.5,16.4,29.2c1.3,2.3,2.6,4.7,3.9,7.1c0.4-0.3,0.7-0.5,1.3-0.9c0.1,2.1,0.2,3.8,0.2,5.5
	c0,4.7-0.1,9.3,0.1,13.9c0.2,4.1,0.9,8.3,3.3,11.7c2.2,3,4,6.2,5.5,9.7c0.2,0.4,0.6,0.7,0.9,1.1c0.2-0.1,0.3-0.2,0.5-0.3
	c-0.7-2.2-1.6-4.5-2.1-6.7c-0.5-2.4-1-4.9-0.9-7.3c0-2.3,0.2-4.7,1.3-6.8c0,1.3,0,2.5,0,4c0.9,0,1.8,0,2.6,0
	c1.6,0.1,2.1,0.6,2.5,2.2c0.2,0.9,0.2,1.9,0.5,2.7c0.5,1.4,0.2,2.7-0.1,4.1c-0.6,2.7-1.1,5.5-1.4,8.2c-0.2,1.4-0.4,2.6-1.3,3.7
	c-1,1.4-2.1,2.7-3.1,4.1c-0.9,1.3-1.9,2.6-1.8,4.4c0.3,0,0.5,0,0.6-0.1c3.3-2.4,5.6-5.8,7.8-9.2c0.2-0.2,0.1-0.6,0.2-0.9
	c1-3,2-6,3-9c1.2-3.6,1.6-7-0.1-10.6c-2.4-4.9-3.4-10.3-3.4-15.8c0-1.4-0.2-2.7-1.2-3.6c-3.3-3.3-6-7.1-8.2-11.2
	c-3.2-5.9-6.2-11.8-8-18.3c-0.9-3.2-1.9-6.4-2.7-9.6c-3.8-14.5-8.9-28.5-17.5-40.9c-2.7-5.8-5.4-11.5-8-17.3
	c-0.3-0.6-0.4-1.2-0.6-1.8c-0.9-3.4-1.7-6.9-2.8-10.3c-1.2-3.7-2.5-7.4-3.9-11.4C346.2,257.1,341.4,260.9,335.9,263.8z M278.5,225.9
	c-1.1,11.8-4.5,23.1-7,34.5c-2.6,11.5-5.4,22.9-9.4,33.9c3.4,1.8,4.6,3.3,4.7,6.4c0,1.1,0.1,2.1,1.3,2.5c1.2,0.4,2.5,0.4,3.5-0.6
	c0.4-0.4,0.7-1,1.1-1.5c0.8-1.1,1.7-2,3.5-1.9c0.7,2.4,1.3,4.8,2,7.4c1.2,0.2,2.3,0.7,3.4,0.5c3.7-0.4,7.1-1.9,10.9-2.9
	c-2.5-1.5-2.5-3.4-0.4-4.5c0.7-0.4,1.6-0.6,2.4-0.7c1.2-0.1,2.5,0,3.7-0.1c1.6-0.1,3.2-0.3,4.8-0.5c0-0.8,0-1.2-0.1-1.7
	c-0.8-4.6-1.5-9.2-2.6-13.7c-2.9-12.2-6-24.4-6.5-37c-0.1-3.3-0.6-6.7-0.4-10c0.3-4.5,1-8.9,1.5-13.4c0.2-1.4,0.3-2.8,0.4-4.2
	c-0.8,0.5-1.2,1.2-1.6,1.8c-1.4,2.2-2.7,4.4-4.2,6.5c-1.2,1.8-2.9,3.1-4.9,3.8c-2,0.7-3,0.4-4.2-1.3
	C279.9,228.1,279.2,227,278.5,225.9z M231.4,498c4.6-4.4,9.8-6.8,15.6-8.1c0.8-0.2,1.7-0.2,2.5-0.2c6.2,0.2,12.1,1.6,17.8,4.2
	c5.4,2.5,11.1,4,16.8,5.3c8.8,2,17.7,3.9,26.6,5.8c2.5,0.6,5,1.3,7.7,2c0.7-6.5,1.5-12.9,2.2-19.3c0.1-0.6-0.3-1.4-0.8-1.8
	c-1.2-1.1-2.8-1.7-4.5-1.7c-2.6,0-5.3,0.1-7.9,0.1c-3.2,0-6.5,0.4-9.7-0.3c-6.1-1.2-11.9-3-17.3-5.9c-5.7-3-11.8-5.1-18.1-6.7
	c-7-1.7-13.9-2-21-0.2c-4.8,1.2-8.8,3.6-12.6,6.7C230.7,484.6,231.5,491.1,231.4,498z M302.2,137.2c0.3-3.6-0.3-7.1-0.8-10.6
	c-0.3-2.4-0.9-4.7-2-6.9c-1.5-2.9-3.1-5.7-4.7-8.5c-0.3-0.4-0.9-0.9-1.4-0.9c-2.4,0-4.9,0-7.3,0.2c-1.8,0.1-3.5,0.6-5.3,0
	c-0.6-0.2-1.5,0.1-2.1,0.5c-1.5,1-2.9,1.4-4.5,0.4c-0.4-0.2-1.1-0.2-1.5-0.1c-4.6,2.1-7.8,5.3-8.2,10.6c-0.1,1.7-0.4,3.4-0.8,5
	c-1.1,4.2-2.1,8.4-1.2,12.8c0.2,1.1,0.5,2.3,0.4,3.5c-0.5,3.1,1,5.7,2.1,8.4c0.4,1.2,1.1,2.2,1.5,3.4c0.8,2,1.6,3.9,3.3,5.5
	c2.3,2.2,4.4,4.4,7.2,6.2c2.9,1.8,5.7,1.9,8.9,1.5c2.2-0.3,3.9-1.4,5.2-3.2c1.8-2.4,3.5-4.9,5.5-7.2c3.3-3.6,4.9-7.9,5.3-12.6
	C302,142.7,302.1,139.9,302.2,137.2z M316.8,268.3c-0.5-0.3-1.2-0.7-1.9-1c-2.3-1.3-4.6-2.5-6.9-3.9c-1.4-0.8-2.4-1.9-2.3-3.7
	c0.4-5.9,0.6-11.8,1.2-17.6c0.9-8.9,1.6-17.8,1.8-26.7c0.1-4.5,0.3-9,0.5-13.5c0.2-4.8,0.6-9.6,0.8-14.4c0-0.7-0.1-1.4-0.2-2.6
	c-0.8,2.9-1.3,5.4-2.3,7.7c-1.8,4.2-4,8.2-7,11.8c-0.7,0.8-1.4,1.8-2.3,2.3c-1.3,0.7-1.4,1.7-1.4,3.1c-0.2,5.8-0.4,11.6-0.8,17.4
	c-0.3,5-1.4,10-1,15.1c0.2,2.2,0.3,4.5,0.5,6.7c0.7,5.6,1.1,11.3,2.2,16.8c1.8,9.2,4.1,18.3,5.8,27.5c1.3,7.4,2,14.9,3,22.3
	c0.3,2.1,0.7,4.2,1,6.3c2.3-1.1,4.2-2.3,6.3-3c2.1-0.8,4.4-1.2,6.8-1.8c-0.9-4.9-1.7-9.8-2.6-14.7c-1.4-7.6-2.5-15.3-2.1-23.1
	C316.2,275.7,316.5,272.1,316.8,268.3z M276,208.3c-2-0.6-2.9-2.3-4-4c-2.7-4.1-5.5-8.1-9.4-11.2c-0.7-0.6-1.5-1.2-2.3-0.7
	c-0.5,0.3-1.1,1.2-1.1,1.8c-0.1,2.6-0.1,5.3,0.1,7.9c0.5,6.1,1.2,12.2,1.6,18.3c0.7,9.8,1.7,19.5,4.5,28.9c1.4,4.9,2,10,2.1,15.2
	c0.1,2.8-1.2,4.8-3.8,5.8c-2.5,1-4.9,1.8-7.4,2.7c-1.2,0.4-2.1,0.9-2.4,2.2c-0.8,4.1-1.7,8.2-2.3,12.3c-0.5,3.5-0.4,7.1-1.1,10.6
	c-0.7,3.9-2,7.6-3.1,11.4c-0.6,2.1-1.1,4.1-1.7,6.2c2.5,1.4,4.7,2.6,7,3.8c0.3-0.7,0.6-1.2,0.8-1.8c1.1-3.5,2.3-6.9,3.4-10.4
	c1.6-5.1,3-10.3,4.5-15.4c1.8-6.2,3.8-12.3,5.4-18.5c3.2-12.5,6.3-25,8.4-37.7c0.7-4.4,1.4-8.8,1.5-13.2
	C276.9,217.8,276.3,213.1,276,208.3z M325.3,493.5c1.3,0.4,0.9,1.2,0.8,1.8c-0.4,2.9-1,5.8-1.1,8.8c-0.3,8-0.4,16-0.6,24
	c-0.1,3.6-0.2,7.3-0.3,10.9c0,2,0.6,3.7,1.8,5.4c1,1.3,1.8,2.8,2.1,4.3c0.7,2.7,2,4.4,4.9,4.7c0.1-0.1,0.2-0.3,0.2-0.4
	c0.9-6.6,1.1-13.1,0.5-19.7c-1.1-12.3-2.1-24.6-2.1-36.9c0-3.6,0.3-7.1,0.3-10.7c-0.1-13.4-0.3-26.9-0.4-40.3c0-0.2-0.1-0.4-0.3-0.8
	c-0.3,0.4-0.5,0.7-0.6,0.9c-1.6,5.6-3.3,11.1-4.7,16.8c-1.1,4.6-1.5,9.3-2.4,14c-0.9,4.7-0.9,9.5-1.7,14.2c-0.7,4.6-1,9.3-1.6,13.9
	c-0.2,1.8-0.5,3.5-1,5.3c-0.4,1.6-1.2,3-2.9,3.7c-3.1,1.3-5.2,3.3-5.5,6.8c-0.1,1.5-0.6,2.9-0.8,4.3c-0.6,3.5-1.1,7-1.6,10.1
	c1.5,0.9,2.6,1.6,3.6,2.3c1,0.7,1.9,1.5,3.1,1.2c2.3-0.6,4.6-0.5,6.9,0.6c0.1-0.7,0.2-1.1,0.2-1.4c0.2-7.8,0.3-15.7,0.7-23.5
	c0.3-5.6,0.9-11.3,1.4-16.9C324.6,495.7,325.1,494.6,325.3,493.5z M243.3,537.1c0.2-2,0.5-3.7,0.5-5.5c0-3.5-0.1-7-0.4-10.5
	c-0.2-2.9-0.7-5.9-1-8.8c-0.2-1.5-0.9-2.4-2.2-3.2c-2.3-1.3-4.5-2.8-6.6-4.4c-2.6-1.9-3.9-4.5-3.7-7.8c0.4-6.4-0.8-12.6-2.7-18.8
	c-1.1-3.6-2-7.2-2.8-10.8c-1.1-4.8-1.9-9.6-3-14.3c-0.4-1.9-1.2-3.8-1.8-5.7c-0.2,1.7,0,3.4,0.2,5c1.2,8.8,0.8,17.6,0.1,26.5
	c-0.4,5.7-0.6,11.5-0.6,17.2c0,4.3,0.4,8.5,0.8,12.8c0.3,4.1,0.7,8.2,1.1,12.3c0.7,6.2,1.7,12.3,1.6,18.5c0,0.5,0.2,1,0.2,1.5
	c3.3,1.1,6.2,0.3,9.1-1.3C235.5,537.9,238.9,536.4,243.3,537.1z M220.1,284.7c0,1.1,0.1,1.8,0,2.5c-0.8,4.6-1.8,9.1-3.7,13.4
	c-2.4,5.5-5,10.9-7,16.5c-2.4,6.7-4.2,13.6-6.2,20.5c-0.1,0.3-0.1,0.5-0.1,1c5.7,0.1,10.9,1.5,15.8,4.4c0.5-1.4,1-2.7,1.5-4
	c2.4-6.1,4.7-12.1,7.1-18.2c0.2-0.6,0.6-1.3,0.6-2c-0.3-4.1-0.6-8.2-1.2-12.3c-0.6-4.5-1.7-9-2.3-13.5c-0.2-1.7-0.1-3.7,0.6-5.2
	c2.6-5.1,4.2-10.5,5.6-16c0.7-3,1.7-5.9,1.7-9.2c-1.5-0.1-2.9-0.1-4.3-0.2c-2.6-0.3-3.7-1.6-3.5-4.2c0.1-1.2,0.3-2.4,0.4-3.7
	c-2-1.3-3.9-2.3-6.7-1.5c0.5,0.9,0.8,1.6,1.3,2.2c1.1,1.7,1.9,3.4,1,5.4c-0.1,0.3-0.1,0.6-0.1,0.9c-0.9,8.1-1.8,16.2-2.7,24.3
	c-0.1,1.3,0,2.6,0,4.2C219,288.3,218.4,286.3,220.1,284.7z M218.3,449.4c-0.1,0-0.2,0-0.3,0c-0.1,0.2-0.2,0.4-0.2,0.6
	c-0.6,7.3-1.3,14.5-1.8,21.8c-0.3,5.7-0.3,11.3-0.5,17c-0.4,7.2-1.5,14.3-2.8,21.4c-1.6,8.2-3.3,16.4-6.6,24.2
	c-0.9,2.1-1.6,4.4-2.2,6.6c-2.4,9.2-4.8,18.5-7.9,27.5c-0.9,2.6-1.8,5.1-3.3,7.4c-0.4,0.6-0.7,1.3-1,1.9c0.7-0.1,1.2-0.4,1.6-0.8
	c3.2-2.8,6.4-5.6,9.5-8.6c4.3-4.1,8.5-8.2,12.6-12.4c3.8-4,6.3-8.7,6.1-14.4c-0.1-4.3-0.2-8.7-0.6-13c-0.8-9.6-1.9-19.1-2.6-28.7
	c-0.5-7-0.3-13.9,0.3-20.9c0.5-5.6,0.7-11.2,0.6-16.7C219.2,458.1,218.6,453.8,218.3,449.4z M197,349c0.6,1.4,1,2.6,1.4,3.7
	c0.8,1.9,0.9,4-0.2,5.6c-1.5,2.2-2.4,4.6-3.1,7.2c-1.4,5.7-1.9,11.5-2.2,17.3c-0.1,0.9-0.1,1.9-0.1,2.8c0.1,0.1,0.3,0.1,0.4,0.2
	c2.6-3.5,5.2-7,7.8-10.5c0.1,0.1,0.3,0.2,0.4,0.2c-0.3,0.8-0.6,1.7-1,2.4c-1,1.7-2,3.5-3.2,5.1c-2.4,3.2-4.7,6.6-7.9,9.1
	c-0.9,0.7-1.7,1.3-2.5,2.1c-0.6,0.5-0.9,1.1,0,1.9c0.5-0.3,1-0.6,1.5-0.9c2.8-1.9,5.9-3.1,9.2-3.8c1.4-0.3,3-0.5,4.2,0.5
	c0.4,0.3,0.9,1,0.8,1.5c-0.1,0.4-0.7,1-1.2,1.2c-1.3,0.4-2.7,0.1-4-0.5c0.7-0.3,1.4-0.6,2.2-0.9c-2.2-0.1-4.3,0.7-6.3,1.3
	c-2,0.6-2.9,2.3-2.8,3.8c0.3,2.5-0.9,4.1-1.8,6.1c-0.8,1.8-1.8,3.6-1.7,6.1c2.6-1.9,5-3.8,8-4.1c3-0.2,6,0,9.3,0.1
	c-0.1-1,0-2.2-0.3-3.2c-0.4-1.1-1.3-1.9-2.1-3c-0.5,0.1-1.2,0.3-2.3,0.6c0.8,0.5,1.2,0.9,1.7,1.2c-0.8,0.5-1.6,0.7-2.2,0.5
	c-0.6-0.2-1.2-0.9-1.3-1.4c-0.1-0.5,0.5-1.3,1-1.6c0.6-0.4,1.5-0.5,2.2-0.7c1.6-0.6,3.1-1.3,4.7-2c1-0.5,1.3-1.3,1.3-2.5
	c0-2.9-0.1-5.9,0.1-8.8c0.8-7.9,2.5-15.6,6.4-22.7c1.2-2.1,1.7-4.4,1.8-6.7c0.1-2.8,0.7-5.4,1.9-7.8c0.3-0.6,0.5-1.3,0.8-1.9
	c0.3-0.8,0.1-1.4-0.5-1.8c-0.4-0.3-0.9-0.6-1.4-0.9c-4.8-2.4-10-3.2-15.3-3.9c-1.3-0.2-2,0.9-1.7,2.3c0.2,0.9,0.3,1.8,0.4,2.7
	c0.1,0.6,0.1,1.3,0.2,1.9c2.5-0.2,3.2-0.9,2.9-3c-0.1-0.7-0.1-1.4-0.2-2.6c2.7,3.3,1.9,6.4-1.4,7.3C199.8,348.6,198.6,348.7,197,349
	z M293,92.2c-0.7,1.6-0.1,2.4,1,2.9c3.8,2,6.6,4.8,8.5,8.6c0.1,0.2,0.3,0.4,0.4,0.6c1,2.3,2.3,4.5,2.8,6.9c1.5,6.5,2,13,0.1,19.5
	c-0.1,0.3,0,0.6,0,0.9c0.2,2.8,0.2,5.6,0.8,8.3c0.7,3.3,0,5.9-2.4,8.2c-0.4,0.4-0.9,0.8-1.3,1.3c-1,1.6-2.3,3.1-2.5,5.1
	c-0.2,1.6-0.5,3.2-0.8,4.8c-0.5,2.7-0.3,3.3,2.1,4.6c3.1,1.7,4.7,4.2,4.3,7.8c-0.1,0.8,0,1.7,0,2.4c0.2,0.1,0.4,0.2,0.5,0.3
	c2.5,1.1,2.6,1.3,2.4,4c0,0.6,0.3,1.3,0.5,2.3c1.5-1.8,2.5-1,3.6-0.1c0.9,0.8,1.9,1.5,3,2.2c0.1-0.4,0.3-0.6,0.2-0.7
	c-1.3-3.3-2.6-6.7-3.9-10c-1.1-2.7-2.3-5.4-3.3-8.2c-0.4-0.9-0.5-2-0.7-3c0.5,0,0.8,0.2,0.8,0.3c2.9,6.7,5.7,13.4,8.5,20.1
	c0.6,1.4,1.5,2.4,3.7,2.9c-3.7-8.5-8-16.3-8.4-25.5c1.8,2,3.9,3.6,6.6,5.2c-0.4-0.9-0.6-1.4-0.8-1.9c-1.6-4.1-3.3-8.2-4-12.6
	c-0.8-5-1.1-10-1-15.1c0-4-0.2-8.1-0.7-12.1c-0.7-5.5-2.9-10.6-5.5-15.5c-1.3-2.6-3.1-4.8-5.3-6.8c-2.4-2.2-4.8-4.4-7.2-6.6
	C294.5,93.3,293.8,92.9,293,92.2z M267.2,176.9c-2.9-5.4-1.8-10.6,1.1-16c-2.5,0.8-4.4,2-6.1,3.4c-1.7,1.4-2.4,3.2-1.7,5.4
	c0.7,2.1,1.3,4.1,1.9,6.2c0.3,0.9,0.5,1.8,0.6,2.7c0.1,0.6-0.4,1.1-1,0.9c-0.6-0.3-1.2-0.8-1.5-1.3c-0.2-0.2,0.3-0.8,0.4-1.3
	c0.1-0.3,0.1-0.6,0.1-1.1c-2.4,1.3-2.4,1.3-0.9,4.9c4.5,0.3,9,0.5,13.6-0.2c1.3-0.2,2.3-0.8,2.9-2.1c-0.3-0.5-0.6-0.9-1-1.5
	c2,0.4,2.4,1.3,1.5,2.6c-0.8,1.1-2,1.6-3.4,1.9c-5.3,1.1-10.7,0.7-16,0.6c-0.2,0-0.4-0.2-0.6-0.3c0.3-0.6,0.6-1.1,0.8-1.6
	c-0.2-0.1-0.3-0.3-0.5-0.4c-0.7,0.6-1.8,1.1-2.1,1.9c-0.4,1.1,0.4,2.2,1.4,2.9c0.6,0.4,1.2,0.8,1.8,1.1c1.1,0.5,2.3,1,3.4,1.4
	c3.9,1.5,7.8,3.1,11.1,5.8c1.2,1,2.3,2.1,3.1,3.4c0.9,1.4,1,3-0.1,5.1c0-3.2-1.1-5.4-3.2-7.1c-3.5-2.9-7.7-4.7-11.9-6.2
	c-0.2-0.1-0.4,0-0.8,0.1c0.2,0.3,0.3,0.6,0.5,0.8c0.5,0.6,1,1.2,1.6,1.7c4.6,3.9,8.4,8.5,11.5,13.6c0.1,0.2,0.3,0.4,0.4,0.6
	c0.1,0.1,0.2,0.3,0.3,0.4c1.9,2.5,4.3,2.4,6-0.3c1.8-3,1.6-6.3,1.4-9.6c-1.2,1.8-0.8,3.9-0.9,5.9c-0.9-1.7-1.6-3.4-0.9-5.2
	c0.6-1.6,1.4-3.1,2.1-4.7c0.8-1.8,1.8-3.6,2.4-5.5c1.3-3.7,0.2-6.8-2.9-9.3c-2.8-2.3-6-3.8-9.4-5.1c-1-0.4-2-0.8-2.9-1.5
	c-1.6-1.2-1.6-2.9-0.1-4.7c0.2,0.7,0.3,1.4,0.6,2.5c0.2-4.4,0.1-5-0.8-6.1C267.2,166.7,266.4,171.7,267.2,176.9z M269.2,746.7
	c0.8,1,1.6,1.8,2.2,2.8c2.3,3.8,5.5,6.7,9.2,9c5.4,3.4,11.1,4.1,17,1.2c0.8-0.4,1.7-1,2.1-1.8c1.4-2.8,2.6-5.8,3.9-8.7
	c0.2-0.5,0.4-1.1,0.2-1.6c-0.8-2.2-1.8-4.4-2.7-6.6c-3.1,1.1-6,0.6-8.8-0.7c-1.5-0.7-3-1.2-4.6-1.6c-0.7-0.2-1.6,0-2.2,0.3
	c-2.2,1.2-4.3,2.5-6.4,3.8c-2.5,1.6-3.8,1.6-6.1-0.2c-1.2-0.9-2.2-1.8-3.4-2.9C269.5,742.2,269.3,744.5,269.2,746.7z M288.8,180.6
	c-2.8,2.5-2.7,3.4,0.1,5.5c0.4,0.3,0.9,0.6,1.3,1c2,2.1,3.3,4.5,3.2,7.5c0,0.2-0.2,0.3-0.4,0.5c-0.4-0.6-0.8-1.1-1.3-1.9
	c-0.1,1.8-0.1,3.1-0.3,4.4c-0.1,1.4-0.4,2.8-0.5,4.2c-0.2,3.1,1.4,4.6,4.4,4.7c1.5,0,2.7-0.8,3.6-1.9c1.1-1.3,2.1-2.7,3.1-4.1
	c3.2-5,5.9-10.2,6.4-16.3c0.1-0.8,0.3-1.6-0.5-2.5c-2.2,5.4-4.3,10.7-6.5,15.9c-0.3-0.8-0.3-1.5-0.1-2.1c0.6-2,1.3-4,2-5.9
	c1.2-3.3,2.6-6.5,3.8-9.8c0.8-2.1,0.4-2.9-1.8-3.9c-0.4,1.5-0.7,3-1.2,4.9c-0.6-1.6-0.7-2.8-0.4-4.1c0.3-1.6,0.8-3.2,0.8-4.8
	c0-1.2-0.2-2.5-0.7-3.6c-1.3-2.6-5.7-4.5-9-4.1c-0.2,1.8-0.4,3.6,0,5.5c1.5-0.6,1.2-2.6,2.9-3c0.2,1.9-0.7,3.2-1.6,4.6
	c-1.8,2.8-3.7,5.5-5.4,8.4c-1.1,1.9-0.5,3,1.6,3.6c0.5,0.1,1.1,0.1,1.6,0.3c0.9,0.2,1.8,0.6,2.7,0.8
	C291.8,185.2,289.6,184.1,288.8,180.6z M228.4,285c3.4-2.3,6.6-4.5,9.9-6.6c4.7-3,9.9-5.1,15.3-6.5c3.5-0.9,7-2.1,10.2-3.1
	c0.4-1.1,0.7-1.8,1.1-2.6c0.5-1,0.2-1.8-0.6-2.5c-0.5-0.4-1.1-0.9-1.8-1.1c-4-1.5-8-3-12-4.4c-0.5-0.2-1-0.1-1.6-0.1
	c0.1,0.9,0.2,1.6,0.2,2.3c0,1.8,0,3.6,0,5.3c0,1.3-1,1.8-2.1,2.2c-1.1,0.3-1.9,0.4-2.9-0.6c-2.8-3-6.4-4.1-10.4-4.6
	C232.9,270.4,231.1,277.8,228.4,285z M277.3,208.4c0.2,3.4,0.6,6.8,0.6,10.1c-0.1,4.1,1.8,7.1,4.2,10c0.8,1,1.7,1.1,2.6,0.4
	c1.4-1,2.9-1.9,3.8-3.3c2.5-3.6,4.6-7.3,6.9-11c0.2-0.3,0.3-0.7,0.3-1.1c0-1.8,0-3.7,0-5.7c-0.6-0.1-1.3-0.2-2.1-0.4
	c-3.1-0.9-4.2-2.4-4.1-5.6c0-0.8,0.2-1.5,0.3-2.3c0-0.7,0-1.3,0-2.1c-2.2,0.2-4.3,0.3-6.6,0.5c-0.1,1.1-0.1,2.2-0.2,3.3
	C282.5,204.6,281.7,208,277.3,208.4z M307.1,260.6c0.9,0.7,1.4,1.1,2,1.5c2.8,1.6,5.6,3.3,8.5,4.9c1.1,0.6,2.3,0.8,3.6,0.4
	c5-1.8,10-3.5,14.8-5.5c1.8-0.7,3.4-2.1,4.9-3.5c2-1.9,1.5-3.6-1.1-4.7c-5.5-2.3-11.2-2.1-16.9-1.1c-5,0.9-9.6,2.4-13.5,5.9
	C308.6,258.9,308,259.6,307.1,260.6z M281.3,680.8c0.8,3.5,1.5,6.6,2.1,9.8c0.5,2.8,1.4,5,4.6,5.9c1.6,0.4,3.1,0.8,4.7,0.3
	c0.9-0.2,1.7-0.7,2.6-0.9c1.4-0.4,2.2-1.4,2.5-2.7c0.3-1.4,0.7-2.9,0.9-4.3c0.8-5,1.5-10,2.4-14.9c0.4-1.9,0.4-3.6-0.9-5.3
	c-0.8,1.8-1.6,3.4-2.4,5.1c-0.9,1.8-2.3,3.3-4.1,4.4c-1.8,1-3.7,1.1-5.4-0.2c-1.8-1.3-2-1.3-3.2,0.4
	C284.3,679.6,283.3,680.7,281.3,680.8z M193.5,441c0.5-2,0.8-3.6,1.3-5.1c1.2-3.4,2.6-6.8,3.8-10.2c1.2-3.2,2.3-6.4,3.4-9.6
	c0.8-2.5,1.1-5.1,0.5-7.7c-5.6-1.6-9.6-0.3-12.5,1.8c-0.9,0.7-1.7,1.6-2.6,2.3c-1,0.7-1.5,1.5-1.5,2.7c0,1.5,0,3-0.3,4.4
	c-0.5,2.6-1.2,5.2-1.9,8c3.2,1.4,3.9,5.3,6.4,7.9c0.7-1.3,0.9-2.3-0.1-3.4c-0.8-1-1.3-2.3-2-3.4c-0.6-0.8-0.6-1.5-0.1-2.3
	c1.2-1.9,1.8-4.1,1.8-6.3c2.1-0.6,2.5-0.5,3.8,1.1c-0.1,1.2-0.2,2.1-0.3,3.1c-0.1,1.8-0.1,3.6-0.3,5.3c-0.2,1.8-0.7,3.6-1.1,5.5
	C191.3,437.1,191.7,438.9,193.5,441z M280.8,537.3c0.2-6.3,0.4-12.5,0.4-18.7c0.1-6.2,0-12.4,0-18.6c-2.8-0.8-5.5-1.8-8.3-2.3
	c0.3,6.9,0.4,13.5,0.7,20.1c0.3,6.6-1.5,13-2.1,19.5C274.6,537.3,277.4,537.3,280.8,537.3z M271.5,739.6c1.4,1,2.7,1.9,4.1,2.7
	c0.7,0.5,1.4,0.3,2.2-0.1c2.2-1.3,4.5-2.5,6.6-4c1.4-0.9,2.7-1.2,4.2-0.7c1.9,0.6,3.8,1.5,5.7,2c1.5,0.4,3.2,0.7,4.8,0.7
	c1.3,0,1.7-0.6,1.4-1.8c-0.3-1.3-0.7-2.8-1.5-3.8c-1.9-2.4-4-4.5-6-6.7c-1.2-1.3-2.6-1.9-4.4-1.4c-1.2,0.3-2.5,0.5-3.7,0.4
	c-2.1,0-3.4,0.9-4.6,2.5c-2.4,3-5,5.9-7.6,8.8C272.2,738.6,272,739,271.5,739.6z M332.1,277.3c-0.8,2.9,0.2,34.3,1.6,38.5
	c0.2-0.6,0.4-1,0.6-1.4c1.8-6.9,4.1-13.6,7.6-19.9c0.2-0.3,0.3-0.7,0.5-1.1c0.6-1.1,0.5-2.2-0.1-3.3c-2.3-4.7-5.5-8.6-9.2-12.2
	C332.8,277.7,332.5,277.6,332.1,277.3z M292,650.8c-5.7,0.6-10,3.5-13.3,8c-0.2,0.3-0.3,0.7-0.2,1.1c0.3,2.9,0.6,5.8,1,9.1
	c0.9-1.4,1.6-2.4,2.2-3.3c0.9-1.4,2-2.1,3.7-1.5c2.1,0.7,4.3,0.3,6.4-0.1c1.7-0.3,3.5-0.1,5.3-0.1c0.5,0,1,0.2,1.9,0.4
	C296.5,659.6,294.2,655.2,292,650.8z M298.5,666.2c-2.6-1.4-3-1.5-5.3-1c-2.8,0.6-5.6,1-8.5,0.3c-0.4-0.1-1.1,0.2-1.4,0.5
	c-2,2.4-4.3,4.7-3.1,8.3c0.2,0.5,0.2,1.1,0.3,1.6c0.1,0.7,0.2,1.4,0.4,2.1c0.5,1.5,1.4,1.7,2.6,0.7c0.6-0.6,1.1-1.3,1.7-1.9
	c1.5-1.5,2.3-1.6,3.9-0.2c1.4,1.2,2.5,1.3,4,0.3C296.7,674.4,298.4,670.7,298.5,666.2z M229.3,315.2c4.4-10.5,7.3-21.3,6.2-32.9
	c-4,2.1-7,5.1-9.3,8.9c-0.4,0.6-0.4,1.5-0.4,2.2c0.1,1.5,0.4,3.1,0.6,4.6C227.3,303.8,229.4,309.3,229.3,315.2z M269.8,738.1
	c0.2,0,0.3,0.1,0.5,0.1c0.3-0.3,0.5-0.5,0.8-0.8c2.5-2.8,4.9-5.8,7.6-8.5c1.8-1.9,2.7-3.9,2.1-6.6c-0.4-1.6-0.4-3.3-0.5-5
	c-0.1-1-0.2-2-0.1-2.9c0.3-1.7,0.1-3.2-0.8-4.8c-2.6,1.4-4.8,3.4-7,5.1c-0.9,0.7-1.1,1.5-1.1,2.6c0.3,5.1,0.2,10.2-0.8,15.3
	C270.2,734.4,270.1,736.3,269.8,738.1z M305.6,351.7c2.3-0.8,3.8-2.1,5.3-3.4c0.9-0.8,1.5-1.7,1.6-3c0.1-2.3,0.3-4.6,0.2-6.9
	c0-3-1.3-5.6-3.6-7.5c-1.4-1.2-2.8-2.4-4.4-3.5c-2.5-1.7-4.8-3.6-6.5-6.2c-0.6-1-1.5-1.8-2.4-2.9c-0.7,0.8-1.2,1.3-1.9,2
	c3.2,1.9,4.7,4.8,6.2,7.6c0.5,0.9,0.9,2,1.4,2.9c0.7,1.4,1.1,3.1,2.6,4c0.3,0.2,0.4,0.6,0.6,1c0.8,1.8,1.7,3.7,2.4,5.5
	c1,2.6,1,5.1-0.3,7.7C306.5,349.7,306.1,350.5,305.6,351.7z M280.4,538.8c-1.7-0.1-3.2-0.3-4.6-0.3c-1.4,0-2.9,0.2-4.4,0.3
	c-0.2,2.1,0,3.8,0.4,5.6c1.4,5.8,2.7,11.6,3.8,17.5c0.7,3.5,1.1,7.2,1.6,10.8C278.2,561.3,279.3,550.1,280.4,538.8z M271.4,164.4
	c0,1.9,0,3.5,0,5.3c6.2,2.2,11.8,5.2,15.1,11.7c2.2-3.1,4.2-6,6.2-8.8c0.3-0.4,0.6-1,0.6-1.5c0.1-2.4,0-4.8,0-7.4
	c-1,1.2-2,2.4-3.1,3.5c-1,1-2,1.8-3.6,1.8c-1.8,0-3.5,0.5-5.3,0.6c-1,0-2.3-0.1-3.1-0.6c-2-1.3-4.4-2.1-5.9-4.1
	C272.2,164.7,271.8,164.6,271.4,164.4z M343.2,287c-4.1-7.2-6.1-15-8.5-22.4c-4.4,1.4-8.7,2.8-13,4.2c4.1,2.5,8.3,4.6,11.8,7.5
	C337.1,279.4,339.9,283.2,343.2,287z M275,300.8c-1.4,1.4-2.3,2.9-3.6,3.4c-1.4,0.5-3.1,0.1-4.8,0.1c0,0.7-0.1,1.4,0,2.1
	c0.7,3.2,1.4,6.5,2.2,9.7c0.5,2,1.8,2.4,3.4,1.1c1.7-1.3,3.4-2.6,5.3-4.1C276.9,309.3,276,305.2,275,300.8z M267,317.4
	c-0.5-6-1-11.9-1.6-17.8c-0.2-1.8-1.6-3.2-3.7-3.6c-0.2,0.5-0.5,1.1-0.6,1.7c-0.6,2.1-1.1,4.2-1.7,6.3c-0.5,1.7-0.4,3.4,0,5
	c0.5,1.9,1.4,3.8,2.2,5.6c0.2,0.4,0.6,1,0.8,1c1.4,0,1.9,1.2,2.6,2.1C265.8,317.5,266.5,317.4,267,317.4z M304.9,751.1
	c-0.1,0-0.2-0.1-0.3-0.1c-0.6,1.3-1.1,2.7-1.8,3.9c-1.3,2.5-2.8,4.9-5.4,6.2c-3.9,1.9-8,2.3-12.2,0.8c-6.1-2.2-11-6-14.7-11.3
	c-0.3-0.5-0.7-0.9-1.4-1.8c-0.2,1.7-0.3,2.9-0.3,4.1c0,0.5,0.2,1.2,0.5,1.4c3.1,2.4,6,5,9.4,6.8c5.7,3.1,12,4,18.5,3.3
	c2.1-0.2,3.6-1.1,4.7-2.9c1.6-2.8,2.5-5.8,3.1-9C305,752.2,304.9,751.7,304.9,751.1z M298,731.9c0.1-0.1,0.2-0.1,0.3-0.2
	c-0.1-0.5-0.2-1-0.4-1.5c-1.5-3.4-2.4-7-2.9-10.7c-0.2-2-1-3.9-1.6-5.8c-0.8-2.4-2.8-3.4-5.1-4.1c-0.5,2.5-0.4,2.5,0,4.7
	c0.4,2.7,0.1,5.5,0.7,8.1c0.2,0.7,0.1,1.5,0.1,2.4c3,0.1,4.7,1.9,6.2,4.1C296.1,730.1,297.1,731,298,731.9z M292.4,301.4
	c0,0.2,0.1,0.4,0.1,0.6c0.2,0.1,0.4,0.1,0.7,0.2c0.9,0,1.9,0.3,1.9,1.3c0,0.7-0.7,1.4-1.3,1.9c-0.6,0.5-1.5,0.7-2.1,1
	c0.2,3.1,0.4,6,0.6,9c1.5,0.8,3.1,0.4,4.9,0.1c1.9-4.7,3.1-9.5,2.7-14.8C297.3,300.3,294.7,300.1,292.4,301.4z M286.2,709
	c-1.5-0.1-3.2-0.2-5-0.3c0,0.6-0.2,1-0.1,1.4c0.6,1.8,0.8,3.6,0.1,5.5c-0.1,0.2,0,0.5,0,0.7c0.5,3.1,1,6.2,1.5,9.4
	c1.6-0.1,3-0.2,4.4-0.3c0-0.9,0-1.5,0-2.1c0.1-2.7-0.9-5.2-0.5-7.9C286.9,713.3,286.4,711.3,286.2,709z M279.7,313.3
	c1.5,0.4,2.9,0.6,4.1,1.1c2.2,1.1,4.3,0.8,6.5,0.6c0.7-3.6,0.5-6.3-0.6-8.4c-3.5,0.6-6.8,2.6-10.7,1.7
	C279.3,310.1,279.5,311.7,279.7,313.3z M300.7,349.8c0.6-3.3,1.3-6.6,1.9-9.9c0.2-1-0.1-2-0.3-3c-0.7-3.7-2.6-6.9-4.3-10.2
	c-1.2-2.3-3-4.1-5.5-5.1c-0.6,0.6-1.2,1.1-1.8,1.7c0.1,0.2,0.1,0.3,0.1,0.3c0.2,0.1,0.4,0.3,0.6,0.4c4.3,3,7.3,7,8.2,12.2
	c0.4,2.5,0.4,5.1,0.5,7.6C300,345.8,299.7,347.8,300.7,349.8z M271.2,320.4c-1.4,0.9-2.2,1.8-2.5,3.2c-0.8,3.3,1.8,8.8,4.8,10.5
	c1.1,0.6,1.9,0.5,2.7-0.3c1.4-1.4,2.8-2.9,4.2-4.4c0.3-0.3,0.5-0.8,0.8-1.4C273.7,328.8,271.6,327.2,271.2,320.4z M239,494.5
	c-1.5,0.9-2.9,1.7-4.2,2.7c-2.2,1.6-2.4,4.1-0.6,6c1.9,2,4.3,3.5,7.3,4.4C240.7,503.2,239.9,499,239,494.5z M305.5,316
	c-0.7-5.8-1.1-10.9-2.2-16.1c-0.9,0.3-1.5,0.4-2.1,0.6c0.1,5.3-0.1,10.4-2.6,15.5c1.2,0,2.1,0.3,2.8-0.1
	C302.6,315.3,303.8,315,305.5,316z M290,195.7c0.8-6.1-0.1-8.2-4.1-9.7c-0.7,1.5-1.2,3-2,4.4c-1.2,1.9-1.1,3.7-0.4,5.8
	C285.8,196.7,287.9,196.4,290,195.7z M305.4,317.2c-0.8,0-1.9-0.4-2.7-0.1c-1.5,0.6-2.8,0.7-4.3,0.1c-0.3-0.1-0.6,0-1.1,0
	c1.6,2.1,2.9,4,4.5,5.8c1.6,1.9,3.8,3,5.8,4.3C306.9,324,306.2,320.8,305.4,317.2z M400.7,408.3c0.7-2.6,1.3-5,2-7.3
	c0.1-0.2,0.1-0.5,0.1-0.7c-0.3-1.4-0.6-2.7-0.9-4.1c0-0.1,0-0.2,0-0.2c0-1.3-0.8-1.8-2-1.7c-0.7,0.1-1.3,0.1-2,0.2
	C397.3,399.4,398.6,403.7,400.7,408.3z M277.4,326.3c3,0.5,4.3-0.1,6.1-2.3c2.2-2.6,4.7-4.6,8.3-5.2c0-0.5-0.1-0.9-0.1-1.4
	c-3.3-0.8-6.1,0.2-8.4,2.4C281.2,321.9,279.3,324.2,277.4,326.3z M283.5,651.5c4.2-1.2,8.1-2.3,12.1-3.5c-1.6-1.7-3-3.2-4.6-4.8
	C287.9,645.5,285.5,648.2,283.5,651.5z M257.5,130.3c-0.3,0.1-0.5,0.1-0.8,0.2c-0.1,0.8-0.3,1.6-0.3,2.4c0.2,2.8,0.5,5.5,0.8,8.3
	c0.1,0.6,0.2,1.3,0.6,1.7c0.9,0.9,2,1.6,3,2.3c1.1-1,0.6-2,0.5-3c-0.2-2.2-0.6-4.3-0.7-6.5C260.7,133.2,258.8,132,257.5,130.3z
	 M278.3,705.5c-6.1,3.6-13.1,10.6-13.7,14c1.6-0.8,2.5-2.1,3.6-3c1.2-1,2.3-2,3.5-3c1.3-1,2.6-2,3.8-3c1.2-1,2.3-2,3.5-3
	C278.7,706.7,278.5,706.2,278.3,705.5z M284.9,316.3c-2.2-0.8-4.2-1.2-6.3-1c-3.1,0.3-5.1,2.2-5.2,5.2c2.1-0.8,4.3-1.6,6.2,0.2
	C281.4,319.3,283,318,284.9,316.3z M301.6,353.3c5.7-5.1,5.4-10.1,2.4-14.6C303.9,343.6,301.8,348,301.6,353.3z M309.2,326.6
	c0.6-0.3,1-0.5,1.3-0.8c2.8-2.4,5.5-4.8,9.5-4.9c0.4,0,0.8-0.6,1.2-1c-5.1-1.2-9.1,1.1-13.3,3.5
	C308.4,324.5,308.7,325.5,309.2,326.6z M279.7,702.5c0.2,4.1,1.1,5,4.1,5.1c2,0,3-0.8,2.4-3.3c-0.4-1.6-1.2-2.2-2.9-2.1
	C282.2,702.2,281,702.4,279.7,702.5z M298.5,711.5c0.6-0.7,0.1-1.3-0.6-1.7c-2.9-2.1-5.8-4.1-9.5-4.1c-0.1,2.2-0.1,2.2,1.6,3
	c0.8,0.4,1.6,0.9,2.4,1.3c0.5,0.2,1,0.5,1.5,0.6C295.4,710.9,296.9,711.2,298.5,711.5z M275.2,91.8c5.5-1.4,10.8-1,16,1.6
	c0-2.3,0-2.4-1.5-2.8c-2.3-0.6-4.7-1.2-7.1-1.3C280,89.4,277.4,90,275.2,91.8z M195.3,438.6c3.1-0.5,5.9,0.1,9.1-0.7
	c-2.6-2.5-5.6-1.7-8.3-2.2C195.8,436.7,195.6,437.5,195.3,438.6z M191.1,430.8c0.8-3.1,1.1-5.9,0.8-8.7c0-0.3-0.6-0.5-0.9-0.8
	c-0.7,2.2-1.3,4.2-2,6.3C189.6,428.6,190.3,429.5,191.1,430.8z M275.4,326.4c1.2-1.6,2.3-2.9,3.5-4.6c-1-0.2-1.7-0.4-2.3-0.4
	c-1.3,0-2.8,0.2-3.3,1.6C272.7,324.5,274,325.3,275.4,326.4z M252.3,321.6c-2.2-1.7-4.1-3.5-6.7-4.1c-0.7,1.3-0.5,2,0.7,2.6
	c1,0.5,1.8,1.4,2.7,2.1C250.2,323,250.9,323,252.3,321.6z M297.2,699.4c0.4-1,0.8-2.1,1.2-3.2c-2.9,0.9-5.6,1.8-8.3,2.7
	c0.5,1,1.5,0.9,2.5,0.8C294.1,699.5,295.4,699.5,297.2,699.4z M305.2,137.6c-1.2,2.9-2.5,5.8-2,9.2c1.5-1.2,2.4-2.5,2.2-4.4
	C305.3,140.9,305.3,139.2,305.2,137.6z M312.3,513.8c1.8-1.1,3.2-1.8,4.4-2.8c1.3-1,1.1-1.9-0.5-3
	C314.2,509.2,313.1,511.1,312.3,513.8z M407.2,406.7c-1.5,2.5-1.4,4.9-2.1,7.3C408.1,412.9,408.1,412.7,407.2,406.7z M256.7,313.6
	c1.8,0.3,2.1,2.4,4,2.8c-0.9-2.6-1.8-4.9-2.7-7.5C257.5,310.6,257.1,312,256.7,313.6z M298.6,157.4c-1.4,1.5-3.6,2.4-3.4,5
	c1,0.1,1.8,0.1,2.5,0.2C298,160.8,298.3,159.1,298.6,157.4z M300.6,685.7c0.2,0,0.4,0.1,0.6,0.1c0.6-3.3,1.2-6.5,1.8-9.8
	c0.1-0.5-0.2-1-0.3-1.5c-0.1,0-0.2,0.1-0.4,0.1C301.7,678.3,301.2,682,300.6,685.7z M196.5,434.5c2.3,0.2,4.4,0.4,6.6,0.6
	c-0.2-0.7-0.3-1.1-0.4-1.5c-1.1,0-2.1-0.1-3,0C198.7,433.8,197.6,432.5,196.5,434.5z M303.6,137.8c0.5-1.4,1.2-2.4,1.3-3.5
	c0.1-1.2,0.1-2.5-1.3-3.8C303.6,133.1,303.6,135.2,303.6,137.8z"/>
<path class="st0" d="M289.4,324.2c4.5,3.2,8,7.3,8.9,13c0.4,2.8,0.4,5.7,0.4,8.6c0,2.3,0,4.7,1.1,6.8c1,2,1.8,2.4,3.9,1.8
	c3.7-1.1,6.7-3.3,9.2-6.1c0.6-0.6,1-1.7,1-2.5c0.1-3.1,0.3-6.2,0.1-9.3c-0.2-2.6-1.7-4.6-3.5-6.4c-0.6-0.6-1.4-1-1.9-1.7
	c2.3-0.8,3.6-2.4,5.1-3.6c2.1-1.7,4.4-2.8,7.5-2.4c0.1,0.5,0.3,1.1,0.4,1.7c1.4,10.4,2.6,20.8,4.1,31.1c1.2,8.9,2.9,17.8,4,26.7
	c0.6,4.6,0.5,9.3,0.8,13.9c0.9,13.8,0.9,27.6,0.9,41.4c0,2.3-0.3,4.3-1.3,6.5c-2.5,5.1-4.1,10.6-5.1,16.2c-1.5,7.6-2.7,15.3-4,22.9
	c-0.1,0.5-0.2,1-0.3,1.8c-3.7-2.3-7.6-2-11.4-1.6c-6.4,0.6-12.5-0.4-18.6-2.2c-2.4-0.7-4.8-1.7-7.1-2.8c-7.6-3.6-15.3-6.8-23.6-8.3
	c-7-1.3-13.9-1.3-20.7,0.8c-3.7,1.1-7,2.9-9.9,5.4c-0.2,0.2-0.5,0.3-1,0.7c-0.3-0.8-0.6-1.5-0.8-2.2c-0.9-4.1-1.9-8.2-2.6-12.3
	c-1.1-6.6-3.2-12.9-5.5-19.2c-0.5-1.3-0.6-2.5-0.5-3.8c1.2-10,2.4-20,3.6-30.1c0.6-5.5,1.2-11.1,1.6-16.7c1-14.2,4.3-27.9,9.6-41.1
	c1.9-4.7,3.8-9.5,5.8-14.2c2-4.7,3.5-9.6,4.6-14.6c0.1-0.4,0.3-0.9,0.4-1.5c2,0.6,3.3,1.9,4.8,2.9c1,0.7,1.9,1.4,3.3,0.8
	c1.1-3.1,2.2-6.3,3.2-9.4c1.1-0.4,1.8-0.1,2.2,0.9c0.5,1.2,1.6,1.6,2.7,1.2c1.7-0.6,2.8-0.1,3.6,1.2c1.8,0.2,3.3,0.4,4.9,0.6
	c-0.1,0.2-0.2,0.5-0.3,0.6c-2.7,2.5-2.7,5.5-1.5,8.6c1,2.7,2.2,5.3,5,6.8c1.9,1,2.9,1.1,4.4-0.4c2.2-2.3,4.3-4.7,6.2-7.2
	c0.9-1.2,1.8-2.2,3.4-2.6C287.4,325,288.2,324.6,289.4,324.2z"/>
<path class="st0" d="M285,700.9c-2.4-0.5-4.5,0.3-6.7,1.3c0.3,1.3-0.4,1.9-1.5,2.5c-1.7,1-3.3,2.3-4.9,3.4c-0.4,0.2-0.8,0.4-1.5,0.9
	c0-1.4-0.2-2.5,0-3.5c1-4.5,0.7-9,0.3-13.5c-1.6-16.8-5.1-33.3-8.8-49.7c-1.8-7.8-4.6-15.3-7-22.9c-3-9.4-6-18.8-8.9-28.2
	c-2.1-7-3.3-14.2-3.6-21.5c-0.3-8.5,0-16.9,1-25.3c0.4-3.6,1.1-7.2,1.6-10.8c0.1-0.9,0.2-1.9,0.2-2.8c0-8-0.9-15.9-2.4-23.8
	c-0.7-3.3-1.3-6.7-1.9-10.1c-0.2-1-0.2-2-0.3-3.3c3.6-1.4,7-2.8,10.9-2.6c6.5,0.3,12.4,2.6,18.2,5.3c1.6,0.7,2,2.2,2.1,3.8
	c0.1,3.1,0.1,6.2,0.2,9.3c0,1.6,0.2,3.2,0.3,4.9c0.3,6.2-0.3,12.4-1.5,18.5c-0.4,1.9-0.7,3.8-0.7,5.8c0,2.1,0.2,4.2,0.7,6.2
	c2.3,8.5,3.8,17.1,4.9,25.8c0.8,6.6,1.6,13.3,1.5,19.9c-0.1,5.8-0.2,11.6-0.4,17.5c-0.2,6-0.4,12.1-0.8,18.1
	c-0.6,9.3-0.2,18.6,0.6,27.9c0.9,11.2,2.3,22.4,4.9,33.4C282.4,692,283.7,696.4,285,700.9z"/>
<path class="st0" d="M342.1,461.6c0,2.3,0.1,4.6,0,6.9c-0.4,9.5,1.2,18.7,3.1,27.9c1.7,8.4,3,17,4.6,25.4c1.3,7.2,2.8,14.3,4.3,21.4
	c1.5,7,3.3,13.9,5,20.8c0.8,3.3,0.4,4.6-2.5,6.5c-3.1,2-6.2,3.9-9.3,5.7c-1,0.6-2.1,1-3.2,1.2c-3.3,0.7-6.1,2.3-8,5.2
	c-0.2,0.3-0.5,0.5-1,0.9c-1.4-3.5-2.1-7-1.8-10.5c0.7-8.4,1.6-16.8,2.2-25.3c0.3-4.3,0.4-8.7,0.1-13c-0.4-8.4-1.3-16.7-1.7-25.1
	c-0.3-6.9-0.5-13.8-0.3-20.7c0.5-23.1-0.3-46.1-0.5-69.2c-0.1-11.2-0.6-22.4-1.4-33.5c-0.4-6.2-1.9-12.4-2.9-18.6
	c-1-6.4-1.9-12.9-2.8-19.3c-0.9-6.5-1.8-13.1-2.6-19.6c0-0.3-0.1-0.6-0.1-0.9c-0.3-9.2-2.4-18.1-4-27.1c-1.1-5.9-1.8-11.8-2-17.8
	c-0.1-4.1,0.5-8.2,0.8-12.3c0-0.5,0.3-1,0.4-1.6c2.7-0.1,3.8,2.6,5.9,3.4c2.1,0.8,4.1,2.2,6.2,3.4c0,0.7,0,1.3,0,1.9
	c0,6.4-0.1,12.9,0.2,19.3c0.4,10.7,1.4,21.4,2.8,32c0.7,5.5,1.2,10.9,1.9,16.4c1,7.7,2,15.4,3.1,23.1c1.2,8.6,2.2,17.2,3.6,25.8
	c1.3,8.3,2.9,16.5,4.5,24.7c1.3,6.9,2.9,13.7,3.3,20.7c0.2,4.6,0.2,9.2,0.1,13.7c-0.1,6.2-0.2,12.4-0.4,18.6
	c-0.1,2.9-0.2,5.7-0.5,8.6c-0.6,6.7,0.4,13.3,0.5,20c0.1,2.9,0,5.9-0.4,8.8c-1.5-8-3.3-15.9-4.4-23.9c-1.1-7.9-1.5-16-2.2-24
	C342.5,461.6,342.3,461.6,342.1,461.6z"/>
<path class="st0" d="M247.3,200.4c-2.8,5.6-5.8,11.1-8.4,16.7c-2.6,5.6-4.9,11.3-7.5,17c-0.4-10.8-1.5-21.4-3.6-32
	c-0.5,1.4-0.2,2.7-0.1,4.1c0.6,6.4,1.2,12.8,1.8,19.2c0.3,4,0.5,8,0.7,12.1c0,0.4-0.1,0.9-0.2,1.3c-1.6,4.6-3.3,9.2-4.9,13.7
	c-1.8-0.7-3.8-1.4-6.2-2.2c-0.4-6.4,1.1-13.2,1.4-20.1c0.3-6.9,0.7-13.8,1.8-20.7c-0.3,0.8-0.8,1.5-0.9,2.3
	c-0.7,3.9-1.4,7.8-1.8,11.7c-0.7,7.5-1.3,15-1.9,22.5c-0.2,2.4-0.4,4.8-0.4,7.2c0,0.8,0.6,1.7,1,2.5c0.5,0.8,1.3,1.5,1,3.1
	c-0.9-0.9-1.7-1.6-2.2-2.4c-1.3-2.3-2.6-4.6-3.6-7c-1.4-3.3-2.6-6.6-4-9.9c-1.8-4.4-4.2-8.5-7.7-11.8c-1.3-1.3-1.2-1.8,0-3.3
	c3.8-5.2,7.6-10.4,11.3-15.6c2.1-3,4.1-6.2,6.1-9.3c1.2-1.8,2.7-2.8,4.8-3.3c5.5-1.5,11-3.2,16.5-4.7c4.3-1.2,8.3-3.2,11.9-5.7
	c0.7-0.5,1.4-0.9,2-1.3c2.9,1.3,4.4,3.7,5.8,6.3c-1.9,0.5-2.4,2-2.4,3.7c0,2.7,0,5.4,0.2,8.1c0.5,6.5,1.2,13,1.7,19.5
	c0.7,9.2,2.1,18.2,4.5,27c1.1,4.1,1.9,8.3,2.1,12.6c0,0.4,0,0.7-0.1,1.3c-12.3-7.3-24.9-8.7-38-3.3c0,0.2,0,0.3,0,0.5
	c0.5,0,0.9,0,1.4-0.1c4.4-1.2,8.9-2.2,13.5-2.4c1.4-0.1,2.9,0,4.4,0c0.3,2.8,0.8,5.2,0.3,7.7c-0.1,0.5-0.4,1.1-0.7,1.3
	c-0.4,0.1-1.1-0.1-1.4-0.4c-3.5-3.7-8-4.5-12.7-4.9c-1.4-0.1-2.8,0-4.2-0.1c-2.4-0.2-3.1-1.1-2.8-3.5c0.7-5.8,2.3-11.4,4.6-16.8
	c2.2-5.3,4.2-10.7,6.4-16c1.8-4.2,3.9-8.3,5.8-12.5c1.6-3.5,3.1-7.1,4.6-10.7c0.2-0.4,0.2-0.8,0.3-1.3
	C247.5,200.5,247.4,200.5,247.3,200.4z"/>
<path class="st0" d="M253.1,274.1c-1.6,5.2-2.5,10.4-2.9,15.7c-0.1,1.7-0.1,3.4-0.4,5.1c-0.6,3.2-1.3,6.4-2.1,9.5
	c-1.2,4.9-2.7,9.7-3.8,14.6c-1.6,7.2-3.8,14.2-6.7,21c-3.6,8.5-7.2,17-9.7,25.9c-2,7.3-3.3,14.7-4.1,22.2
	c-1.4,12.9-2.9,25.8-4.4,38.6c-1.4,12.4-3,24.8-4.2,37.2c-0.6,6.2-0.6,12.4-0.7,18.6c-0.3,14.4-2.7,28.4-6.5,42.2
	c-0.2,0.7-0.4,1.4-0.6,2c-3.5,8.4-5.9,17.2-8,26c-0.2,0.9-0.5,1.8-1.1,2.6c0.2-1.3,0.3-2.6,0.5-3.9c1.9-9.1,2.3-18.3,2.7-27.5
	c0.3-6,0.8-12.1,1.5-18.1c0.7-7.1,1.6-14.2,2.6-21.2c0.9-6.3,2-12.6,3-18.8c1.3-8.1,1.3-16.2,0.9-24.4c-0.1-1.9-0.1-3.7-0.2-5.6
	c-0.9-13.4,0.2-26.7,2.1-39.9c1.2-8.2,2-16.5,3-24.7c0.5-3.9,1-7.8,2.3-11.6c0.6-1.7,0.6-3.5,0.9-5.3c0.3-1.9,0.5-3.9,1.2-5.7
	c1.6-3.8,2.6-7.9,4.3-11.7c1.6-3.9,3.1-7.8,4.6-11.7c1.5-3.9,3.1-7.8,4.4-11.8c1.7-5.2,3.4-10.5,4.7-15.8c0.7-3,0.5-6.2,0.6-9.3
	c0.1-2,0-4,0-6.1c0-0.8,0.1-1.5,0.9-2c4.5-2.8,9.2-5.3,14.4-6.5C252.4,274.1,252.6,274.1,253.1,274.1z"/>
<path class="st0" d="M307.6,256.9c0.3-3.8,0.5-7.6,0.8-11.3c0.6-7,1.3-14.1,1.7-21.1c0.7-12.2,1.2-24.3,1.7-36.5
	c0.1-1.8,0.3-3.5,0.5-5.2c0.2,0,0.3,0,0.4,0c4.5,3.6,9.8,5.4,15.3,7.1c5,1.5,9.9,3.6,14.8,5.5c0.7,0.3,1.3,0.9,1.8,1.4
	c3.3,4.4,6.6,8.8,9.9,13.2c2.1,2.7,3.7,5.7,5.1,8.9c1.5,3.5,3,7,4.5,10.5c0.5,1.2,1.2,2.3,2,3.7c-6.1,8.9-14.1,16.2-22.2,24.4
	c0-3.8-1.9-6.4-2.8-9.3c-1.8-5.5-3.6-11.1-5.4-16.6c-2-6-4-11.9-6.1-17.9c-0.7-1.9-1.5-3.7-2.4-5.6c-2.6-5.6-5.2-11.1-7.9-16.6
	c-0.9-1.8-1.7-3.8-3.3-5.2c4,11,10.1,21.2,13.8,32.3c3.8,11.2,7.4,22.4,11.3,33.8c-3.6-1.4-7.2-2.8-11.1-2.6
	c-4,0.2-7.9,0.8-11.7,1.8c-3.8,1-7.1,2.9-10.2,5.4C307.9,257.1,307.8,257,307.6,256.9z"/>
<path class="st0" d="M286.8,644.2c-2.9,3.8-5.6,7.5-8.5,11.3c-0.1-0.8-0.3-1.4-0.3-2c-0.3-7.2-0.9-14.4-0.9-21.6
	c0-6.6,0.6-13.2,0.7-19.8c0.2-9,0.4-18,0.4-27c-0.1-8.2,0.6-16.4,1.4-24.6c0.4-4.2,0.9-8.5,1.3-12.7c0.7-6.7,1.8-13.4,1.7-20.2
	c-0.1-6.3,0-12.6,0-18.9c0-2.7,0.2-5.4,0.4-8.3c10.6,1.6,20.7,4.4,31.2,6.8c-3.2,3.7-3.8,8-4.6,12.3c-1.3,6.8-2.3,13.6-2.8,20.5
	c-0.1,1.7-0.2,3.4-0.2,5.1c0,10-2.5,19.5-6.1,28.7c-4.9,12.9-9.5,25.9-13.1,39.3c-2,7.1-3.1,14.4-2.7,21.9
	C285,638.3,285.2,641.4,286.8,644.2z"/>
<path class="st0" d="M335.9,263.8c5.5-2.9,10.3-6.6,14.9-11.2c1.4,4,2.8,7.6,3.9,11.4c1.1,3.4,1.9,6.9,2.8,10.3
	c0.2,0.6,0.3,1.2,0.6,1.8c2.7,5.8,5.3,11.5,8,17.3c8.7,12.4,13.7,26.4,17.5,40.9c0.9,3.2,1.9,6.4,2.7,9.6c1.8,6.5,4.8,12.4,8,18.3
	c2.2,4.1,4.9,7.9,8.2,11.2c1,1,1.2,2.3,1.2,3.6c0,5.5,1,10.8,3.4,15.8c1.8,3.6,1.3,7,0.1,10.6c-1,3-2,6-3,9
	c-0.1,0.3-0.1,0.7-0.2,0.9c-2.2,3.4-4.5,6.7-7.8,9.2c-0.1,0.1-0.3,0-0.6,0.1c-0.1-1.8,0.9-3.1,1.8-4.4c1-1.4,2-2.7,3.1-4.1
	c0.8-1.1,1.1-2.3,1.3-3.7c0.3-2.8,0.8-5.5,1.4-8.2c0.3-1.4,0.6-2.7,0.1-4.1c-0.3-0.9-0.3-1.8-0.5-2.7c-0.3-1.6-0.8-2.1-2.5-2.2
	c-0.8,0-1.7,0-2.6,0c0-1.5,0-2.7,0-4c-1.1,2.2-1.3,4.6-1.3,6.8c0,2.4,0.4,4.9,0.9,7.3c0.5,2.3,1.4,4.5,2.1,6.7
	c-0.2,0.1-0.3,0.2-0.5,0.3c-0.3-0.4-0.8-0.7-0.9-1.1c-1.5-3.4-3.3-6.6-5.5-9.7c-2.5-3.4-3.1-7.6-3.3-11.7c-0.2-4.6,0-9.3-0.1-13.9
	c0-1.7-0.1-3.4-0.2-5.5c-0.6,0.4-0.9,0.6-1.3,0.9c-1.3-2.4-2.6-4.7-3.9-7.1c-5.4-9.8-10.8-19.6-16.4-29.2c-2-3.6-4.6-6.8-6.9-10.2
	c-2.6-3.8-5.5-7.4-7.9-11.2c-4-6.4-6.3-13.4-7.2-20.9c-0.3-2-0.8-4.2-1.8-6c-3.4-6.4-5.1-13.3-7.4-20.1
	C336,264.5,336,264.2,335.9,263.8z"/>
<path class="st0" d="M278.5,225.9c0.7,1.1,1.4,2.2,2.1,3.3c1.2,1.7,2.2,2,4.2,1.3c2-0.8,3.7-2.1,4.9-3.8c1.5-2.1,2.8-4.3,4.2-6.5
	c0.4-0.6,0.8-1.3,1.6-1.8c-0.1,1.4-0.3,2.8-0.4,4.2c-0.5,4.5-1.3,8.9-1.5,13.4c-0.2,3.3,0.2,6.6,0.4,10c0.5,12.6,3.6,24.8,6.5,37
	c1.1,4.5,1.7,9.1,2.6,13.7c0.1,0.4,0,0.9,0.1,1.7c-1.6,0.2-3.2,0.4-4.8,0.5c-1.2,0.1-2.5,0-3.7,0.1c-0.8,0.1-1.7,0.3-2.4,0.7
	c-2.2,1.1-2.1,3,0.4,4.5c-3.8,1-7.3,2.5-10.9,2.9c-1.1,0.1-2.3-0.3-3.4-0.5c-0.7-2.5-1.4-4.9-2-7.4c-1.8-0.1-2.7,0.7-3.5,1.9
	c-0.3,0.5-0.6,1.1-1.1,1.5c-1,1-2.3,1-3.5,0.6c-1.2-0.4-1.2-1.4-1.3-2.5c-0.1-3-1.2-4.6-4.7-6.4c4-11,6.8-22.4,9.4-33.9
	C274,249,277.4,237.7,278.5,225.9z"/>
<path class="st0" d="M231.4,498c0.1-6.9-0.7-13.5-2.8-20c3.8-3.1,7.9-5.5,12.6-6.7c7-1.7,14-1.5,21,0.2c6.3,1.5,12.3,3.7,18.1,6.7
	c5.5,2.8,11.3,4.7,17.3,5.9c3.3,0.6,6.5,0.3,9.7,0.3c2.6,0,5.3-0.1,7.9-0.1c1.7,0,3.2,0.6,4.5,1.7c0.4,0.4,0.8,1.2,0.8,1.8
	c-0.7,6.4-1.4,12.8-2.2,19.3c-2.7-0.7-5.2-1.4-7.7-2c-8.8-2-17.7-3.8-26.6-5.8c-5.7-1.3-11.4-2.8-16.8-5.3c-5.6-2.6-11.6-4-17.8-4.2
	c-0.8,0-1.7,0-2.5,0.2C241.1,491.2,235.9,493.6,231.4,498z"/>
<path class="st0" d="M302.2,137.2c-0.2,2.7-0.3,5.4-0.5,8.1c-0.4,4.8-2,9-5.3,12.6c-2,2.2-3.7,4.7-5.5,7.2c-1.3,1.8-3,2.9-5.2,3.2
	c-3.1,0.4-5.9,0.3-8.9-1.5c-2.8-1.7-4.9-4-7.2-6.2c-1.6-1.6-2.5-3.5-3.3-5.5c-0.4-1.2-1-2.2-1.5-3.4c-1.1-2.7-2.6-5.3-2.1-8.4
	c0.2-1.1-0.1-2.3-0.4-3.5c-0.9-4.4,0.1-8.6,1.2-12.8c0.4-1.6,0.7-3.3,0.8-5c0.4-5.4,3.6-8.5,8.2-10.6c0.4-0.2,1.1-0.2,1.5,0.1
	c1.6,1.1,3,0.6,4.5-0.4c0.6-0.4,1.5-0.7,2.1-0.5c1.8,0.6,3.5,0.1,5.3,0c2.4-0.2,4.9-0.2,7.3-0.2c0.5,0,1.2,0.4,1.4,0.9
	c1.6,2.8,3.2,5.7,4.7,8.5c1.1,2.1,1.7,4.4,2,6.9C301.9,130.2,302.6,133.7,302.2,137.2z M289.8,155.1c-1.6-1.7-4-1.6-5.6-3
	c-0.7,0.8-1.5,1-2.5,0.7c-1.2-0.4-4.6,1.2-5.3,2.4c-0.1,0.1,0.1,0.4,0,0.3c1.8,0.4,3.4,0.8,5,1.1c0.4,0.1,0.8,0.2,1.1,0.1
	C285,156.2,287.3,155.7,289.8,155.1z M288.4,136.5c1.6-2,1.6-2,3.7-0.8c1.4,0.8,1.8,0.7,2.8-0.8c0.9-1.4,1.5-1.4,2.5,0
	c0.4-0.3,0.9-0.7,1.3-1c0.5-0.2,1-0.3,1.9-0.6c-2.8-1.1-9.4-0.5-11.5,0.7C288.2,134.7,288.2,135.5,288.4,136.5z M269.4,133.5
	c0.9,0.9,1.5,2,2.3,2.2c0.8,0.2,1.9-0.4,3-0.6c0.7,0.4,1.7,0.9,2.7,1.4c0.1-0.2,0.3-0.5,0.4-0.7c-1.9-1.2-3.1-3.6-5.5-3.4
	c-2.3,0.2-5.2-0.2-6.9,2.4C266.8,134.3,268.2,133.9,269.4,133.5z M264.7,131.2c1.2-0.1,2.4-0.2,3.6-0.4c3.1-0.5,6-0.2,8.6,1.7
	c0.4,0.3,0.9,0.3,1.6,0.5C276.5,129.1,269.5,128.1,264.7,131.2z M279.5,145c-1.6,2.1-1.5,3.5,0.4,3.9c2.2,0.4,4.5,1,6.7-0.2
	c0.4-2.7,0.2-3.3-1.2-4.5c0.2,1.3,0.3,2.5,0.5,3.8c-1.4,0-2.6,0-3.8,0C279.5,147.7,279.5,147.7,279.5,145z M288.9,132.5
	c1.8-0.8,3.4-1.5,4.9-2.3c1.5-0.7,3.3-0.4,4.9-1.4C295.1,127.7,290.8,129.4,288.9,132.5z M285.3,158.4c-1.4-0.1-2.8-0.2-4.6-0.3
	C282.3,159.8,283.3,159.9,285.3,158.4z"/>
<path class="st0" d="M316.8,268.3c-0.3,3.8-0.6,7.4-0.7,11c-0.3,7.8,0.7,15.5,2.1,23.1c0.9,4.9,1.8,9.8,2.6,14.7
	c-2.4,0.6-4.7,1-6.8,1.8c-2.1,0.8-4.1,1.9-6.3,3c-0.4-2.1-0.8-4.2-1-6.3c-1-7.4-1.7-15-3-22.3c-1.7-9.2-4.1-18.3-5.8-27.5
	c-1.1-5.5-1.5-11.2-2.2-16.8c-0.3-2.2-0.4-4.5-0.5-6.7c-0.4-5.1,0.7-10.1,1-15.1c0.4-5.8,0.6-11.6,0.8-17.4c0-1.3,0.1-2.3,1.4-3.1
	c0.9-0.5,1.6-1.4,2.3-2.3c2.9-3.6,5.2-7.6,7-11.8c1-2.3,1.5-4.9,2.3-7.7c0.1,1.1,0.2,1.9,0.2,2.6c-0.3,4.8-0.6,9.6-0.8,14.4
	c-0.2,4.5-0.4,9-0.5,13.5c-0.2,8.9-0.9,17.8-1.8,26.7c-0.6,5.9-0.8,11.8-1.2,17.6c-0.1,1.8,0.9,2.9,2.3,3.7c2.3,1.4,4.6,2.6,6.9,3.9
	C315.6,267.6,316.3,268,316.8,268.3z"/>
<path class="st0" d="M276,208.3c0.3,4.9,0.9,9.6,0.8,14.3c-0.1,4.4-0.8,8.8-1.5,13.2c-2.1,12.7-5.2,25.2-8.4,37.7
	c-1.6,6.2-3.6,12.4-5.4,18.5c-1.5,5.1-3,10.3-4.5,15.4c-1.1,3.5-2.2,6.9-3.4,10.4c-0.2,0.6-0.5,1.1-0.8,1.8c-2.3-1.3-4.5-2.5-7-3.8
	c0.6-2,1.1-4.1,1.7-6.2c1.1-3.8,2.4-7.6,3.1-11.4c0.7-3.5,0.6-7.1,1.1-10.6c0.6-4.1,1.5-8.2,2.3-12.3c0.3-1.3,1.2-1.8,2.4-2.2
	c2.5-0.8,5-1.7,7.4-2.7c2.6-1,3.9-3,3.8-5.8c-0.1-5.1-0.7-10.2-2.1-15.2c-2.8-9.5-3.8-19.2-4.5-28.9c-0.5-6.1-1.2-12.2-1.6-18.3
	c-0.2-2.6-0.2-5.3-0.1-7.9c0-0.6,0.5-1.5,1.1-1.8c0.8-0.4,1.6,0.2,2.3,0.7c3.8,3.1,6.7,7.1,9.4,11.2
	C273.1,205.9,274,207.6,276,208.3z"/>
<path class="st0" d="M325.3,493.5c-0.3,1.1-0.7,2.2-0.8,3.3c-0.5,5.6-1.2,11.3-1.4,16.9c-0.4,7.8-0.5,15.7-0.7,23.5
	c0,0.4-0.1,0.7-0.2,1.4c-2.3-1.1-4.6-1.2-6.9-0.6c-1.3,0.3-2.2-0.5-3.1-1.2c-1-0.7-2.1-1.4-3.6-2.3c0.5-3.1,1-6.6,1.6-10.1
	c0.2-1.5,0.6-2.9,0.8-4.3c0.4-3.5,2.4-5.5,5.5-6.8c1.7-0.7,2.5-2.1,2.9-3.7c0.4-1.7,0.8-3.5,1-5.3c0.6-4.6,0.9-9.3,1.6-13.9
	c0.7-4.7,0.8-9.5,1.7-14.2c0.9-4.6,1.3-9.4,2.4-14c1.3-5.7,3.1-11.2,4.7-16.8c0.1-0.3,0.3-0.5,0.6-0.9c0.2,0.4,0.3,0.6,0.3,0.8
	c0.2,13.4,0.3,26.9,0.4,40.3c0,3.6-0.3,7.1-0.3,10.7c0,12.4,1,24.6,2.1,36.9c0.6,6.6,0.4,13.2-0.5,19.7c0,0.1-0.2,0.3-0.2,0.4
	c-2.9-0.3-4.2-2-4.9-4.7c-0.4-1.5-1.2-3.1-2.1-4.3c-1.2-1.7-1.8-3.4-1.8-5.4c0.1-3.6,0.2-7.3,0.3-10.9c0.2-8,0.3-16,0.6-24
	c0.1-2.9,0.7-5.8,1.1-8.8C326.2,494.7,326.6,493.9,325.3,493.5z"/>
<path class="st0" d="M243.3,537.1c-4.3-0.7-7.8,0.8-11.1,2.7c-2.8,1.6-5.7,2.3-9.1,1.3c-0.1-0.4-0.2-0.9-0.2-1.5
	c0.1-6.2-0.9-12.4-1.6-18.5c-0.4-4.1-0.8-8.2-1.1-12.3c-0.3-4.3-0.8-8.5-0.8-12.8c0-5.7,0.1-11.5,0.6-17.2
	c0.6-8.8,1.1-17.7-0.1-26.5c-0.2-1.6-0.3-3.2-0.2-5c0.6,1.9,1.4,3.7,1.8,5.7c1.1,4.8,1.9,9.6,3,14.3c0.8,3.6,1.7,7.2,2.8,10.8
	c1.9,6.1,3.1,12.3,2.7,18.8c-0.2,3.3,1.1,5.9,3.7,7.8c2.1,1.6,4.3,3.1,6.6,4.4c1.4,0.8,2.1,1.7,2.2,3.2c0.3,2.9,0.8,5.8,1,8.8
	c0.3,3.5,0.4,7,0.4,10.5C243.8,533.4,243.4,535.1,243.3,537.1z"/>
<path class="st0" d="M220.1,284.7c-1.7,1.6-1,3.6-2.2,5.3c0-1.6-0.1-2.9,0-4.2c0.9-8.1,1.8-16.2,2.7-24.3c0-0.3,0-0.6,0.1-0.9
	c0.9-2.1,0.1-3.8-1-5.4c-0.4-0.6-0.7-1.3-1.3-2.2c2.8-0.7,4.7,0.3,6.7,1.5c-0.1,1.2-0.3,2.4-0.4,3.7c-0.2,2.6,0.9,3.9,3.5,4.2
	c1.4,0.2,2.8,0.2,4.3,0.2c0,3.3-1,6.2-1.7,9.2c-1.4,5.5-3,10.9-5.6,16c-0.7,1.5-0.8,3.5-0.6,5.2c0.6,4.5,1.6,9,2.3,13.5
	c0.6,4.1,0.8,8.2,1.2,12.3c0.1,0.6-0.3,1.3-0.6,2c-2.3,6.1-4.7,12.1-7.1,18.2c-0.5,1.3-1,2.6-1.5,4c-4.8-2.9-10-4.3-15.8-4.4
	c0.1-0.5,0-0.7,0.1-1c2-6.8,3.8-13.8,6.2-20.5c2-5.6,4.5-11,7-16.5c1.9-4.3,2.8-8.9,3.7-13.4C220.2,286.6,220.1,285.8,220.1,284.7z"
	/>
<path class="st0" d="M218.3,449.4c0.3,4.3,0.9,8.6,0.9,12.9c0,5.6-0.2,11.2-0.6,16.7c-0.6,7-0.8,14-0.3,20.9
	c0.7,9.6,1.8,19.1,2.6,28.7c0.4,4.3,0.5,8.7,0.6,13c0.1,5.7-2.3,10.4-6.1,14.4c-4.1,4.2-8.4,8.3-12.6,12.4c-3.1,2.9-6.3,5.7-9.5,8.6
	c-0.4,0.4-0.8,0.7-1.6,0.8c0.3-0.6,0.6-1.3,1-1.9c1.5-2.3,2.4-4.8,3.3-7.4c3.1-9,5.5-18.3,7.9-27.5c0.6-2.2,1.3-4.5,2.2-6.6
	c3.3-7.8,5-16,6.6-24.2c1.3-7.1,2.4-14.2,2.8-21.4c0.3-5.7,0.2-11.3,0.5-17c0.4-7.3,1.2-14.5,1.8-21.8c0-0.2,0.1-0.4,0.2-0.6
	C218.1,449.4,218.2,449.4,218.3,449.4z"/>
<path class="st0" d="M197,349c1.6-0.3,2.8-0.4,4-0.8c3.3-1,4.1-4,1.4-7.3c0.1,1.2,0.2,1.9,0.2,2.6c0.3,2-0.4,2.8-2.9,3
	c-0.1-0.6-0.1-1.3-0.2-1.9c-0.1-0.9-0.2-1.8-0.4-2.7c-0.3-1.4,0.4-2.5,1.7-2.3c5.2,0.7,10.4,1.6,15.3,3.9c0.5,0.2,0.9,0.6,1.4,0.9
	c0.6,0.5,0.9,1.1,0.5,1.8c-0.3,0.6-0.5,1.3-0.8,1.9c-1.3,2.5-1.9,5-1.9,7.8c-0.1,2.3-0.6,4.6-1.8,6.7c-4,7-5.6,14.7-6.4,22.7
	c-0.3,2.9-0.2,5.9-0.1,8.8c0,1.1-0.3,2-1.3,2.5c-1.5,0.7-3.1,1.3-4.7,2c-0.7,0.3-1.6,0.3-2.2,0.7c-0.5,0.3-1,1.1-1,1.6
	c0.1,0.5,0.7,1.2,1.3,1.4c0.6,0.2,1.4,0,2.2-0.5c-0.5-0.3-0.9-0.6-1.7-1.2c1.1-0.3,1.8-0.4,2.3-0.6c0.8,1.1,1.7,2,2.1,3
	c0.4,1,0.3,2.2,0.3,3.2c-3.3,0-6.3-0.3-9.3-0.1c-3,0.2-5.4,2.1-8,4.1c-0.1-2.5,0.9-4.3,1.7-6.1c0.9-1.9,2.1-3.6,1.8-6.1
	c-0.2-1.4,0.7-3.2,2.8-3.8c2.1-0.6,4.1-1.4,6.3-1.3c-0.7,0.3-1.4,0.6-2.2,0.9c1.3,0.6,2.6,0.9,4,0.5c0.5-0.1,1.1-0.7,1.2-1.2
	c0.1-0.5-0.4-1.2-0.8-1.5c-1.3-1-2.8-0.8-4.2-0.5c-3.3,0.7-6.4,1.9-9.2,3.8c-0.5,0.3-1,0.6-1.5,0.9c-0.9-0.7-0.6-1.3,0-1.9
	c0.8-0.7,1.6-1.4,2.5-2.1c3.2-2.5,5.5-5.9,7.9-9.1c1.2-1.6,2.2-3.4,3.2-5.1c0.4-0.8,0.7-1.6,1-2.4c-0.1-0.1-0.3-0.2-0.4-0.2
	c-2.6,3.5-5.2,7-7.8,10.5c-0.1-0.1-0.3-0.1-0.4-0.2c0-0.9,0.1-1.9,0.1-2.8c0.4-5.8,0.9-11.6,2.2-17.3c0.6-2.6,1.5-5,3.1-7.2
	c1.1-1.6,1-3.7,0.2-5.6C198,351.6,197.6,350.4,197,349z"/>
<path class="st0" d="M303.1,120c-0.6-1.5-1.2-0.3-1.9,0.1c-1.1-2-2-4.1-3.3-5.8c-1.3-1.7-1.7-4.3-4.2-5c0.3-1.5,0.7-3,1-4.4
	c-0.2-0.1-0.4-0.1-0.5-0.2c-0.5,0.9-0.9,1.9-1.3,2.8c-0.8,1.7-1.5,2.3-3.2,1.8c-1.4-0.4-2.6-0.2-3.9,0c-1.8,0.3-3.5,0.7-5.3,0.1
	c-0.6-0.2-1.5-0.1-2,0.3c-1.9,1.6-3.7,1-5.6,0.1c-0.4-1.9-0.7-3.7-1.1-5.6c-0.2,0-0.4,0-0.5,0.1c0,2.1,0,4.3,0,6.6
	c-3.4,2-6.9,4.1-8.1,8.6c-0.1-0.7-0.3-1.3-0.5-2.4c-0.8,1.8-0.6,3.2,0,4.4c0.7,1.5,0.3,2.8-0.1,4.6c-1.8-2.6-1.9-5.4-3.1-8
	c-1.4,1.2-1.7,2.5-1.1,4.1c0.7,2.2,1.5,4.4,3,6.3c-0.8-0.7-1.7-1.4-2.8-2.3c0,1,0.2,1.6,1,1.9c0,0,0,0,0,0c-0.4,0.1-0.9,0.2-1.4,0.4
	c-0.9-1.8-1-3.9-1-5.8c0-2.3,0.3-4.6,0.6-6.9c0.1-0.6-0.1-1.4,1-1.5c0.2,0,0.5-1.2,0.5-1.9c-0.3-2.2,0.6-4.1,1.6-5.9
	c2.1-3.6,4.8-6.6,7.8-9.5c5.6-5.6,12.3-5.5,19.2-3.5c3.9,1.1,7.4,3.4,10.3,6.2c3.4,3.3,5.7,7.5,6.6,12.3c0.1,0.3-0.3,0.7-0.5,1.1
	c-0.3,1-0.9,2.1,0,3.5c0.4-0.8,0.6-1.4,0.9-1.9c0.1,0.1,0.2,0.2,0.2,0.3c0.2,3.9,1.4,7.9-1.6,11.5c-0.2-0.7-0.4-1.4-0.7-2.1
	c0.6-0.7,1.1-1.4,1.7-2.1c-0.1-0.1-0.2-0.2-0.3-0.3c-0.6,0.4-1.1,0.8-1.7,1.2c-0.1-0.1-0.2-0.1-0.3-0.2c0.5-0.9,0.9-1.8,1.4-2.7
	C303.6,120.1,303.3,120,303.1,120L303.1,120z"/>
<path class="st0" d="M293,92.2c0.8,0.6,1.4,1.1,2,1.6c2.4,2.2,4.8,4.4,7.2,6.6c2.1,2,3.9,4.2,5.3,6.8c2.6,4.9,4.8,10,5.5,15.5
	c0.5,4,0.7,8,0.7,12.1c0,5.1,0.3,10.1,1,15.1c0.7,4.4,2.3,8.5,4,12.6c0.2,0.5,0.4,1,0.8,1.9c-2.7-1.6-4.8-3.1-6.6-5.2
	c0.4,9.1,4.7,17,8.4,25.5c-2.2-0.5-3.1-1.4-3.7-2.9c-2.8-6.7-5.7-13.4-8.5-20.1c-0.1-0.2-0.3-0.3-0.8-0.3c0.2,1,0.4,2,0.7,3
	c1.1,2.7,2.2,5.5,3.3,8.2c1.3,3.3,2.6,6.6,3.9,10c0,0.1-0.1,0.3-0.2,0.7c-1-0.8-2-1.4-3-2.2c-1.1-0.9-2.1-1.8-3.6,0.1
	c-0.2-1.1-0.5-1.7-0.5-2.3c0.1-2.7,0.1-2.9-2.4-4c-0.1-0.1-0.3-0.1-0.5-0.3c0-0.8-0.1-1.6,0-2.4c0.4-3.6-1.2-6.1-4.3-7.8
	c-2.4-1.3-2.6-1.9-2.1-4.6c0.3-1.6,0.6-3.2,0.8-4.8c0.3-2,1.5-3.5,2.5-5.1c0.3-0.5,0.8-0.9,1.3-1.3c2.4-2.3,3.1-4.9,2.4-8.2
	c-0.6-2.7-0.5-5.5-0.8-8.3c0-0.3-0.1-0.6,0-0.9c1.9-6.5,1.3-13.1-0.1-19.5c-0.5-2.4-1.8-4.6-2.8-6.9c-0.1-0.2-0.3-0.4-0.4-0.6
	c-1.8-3.8-4.7-6.7-8.5-8.6C292.9,94.6,292.3,93.8,293,92.2z"/>
<path class="st0" d="M267.2,176.9c-0.8-5.2,0-10.2,1.9-15.3c0.9,1.1,1,1.7,0.8,6.1c-0.3-1.1-0.4-1.7-0.6-2.5
	c-1.4,1.8-1.4,3.4,0.1,4.7c0.8,0.7,1.9,1.1,2.9,1.5c3.4,1.3,6.5,2.8,9.4,5.1c3.1,2.5,4.2,5.5,2.9,9.3c-0.6,1.9-1.6,3.7-2.4,5.5
	c-0.7,1.6-1.5,3.1-2.1,4.7c-0.7,1.9,0.1,3.6,0.9,5.2c0.1-2-0.3-4.1,0.9-5.9c0.2,3.3,0.4,6.6-1.4,9.6c-1.6,2.7-4.1,2.8-6,0.3
	c-0.1-0.1-0.2-0.2-0.3-0.4c-0.1-0.2-0.3-0.4-0.4-0.6c-3.2-5.1-6.9-9.7-11.5-13.6c-0.6-0.5-1.1-1.1-1.6-1.7c-0.2-0.2-0.3-0.5-0.5-0.8
	c0.3,0,0.6-0.1,0.8-0.1c4.3,1.5,8.4,3.3,11.9,6.2c2.1,1.7,3.2,3.9,3.2,7.1c1.1-2.1,1.1-3.7,0.1-5.1c-0.8-1.3-1.9-2.4-3.1-3.4
	c-3.3-2.7-7.2-4.3-11.1-5.8c-1.2-0.4-2.3-0.9-3.4-1.4c-0.6-0.3-1.2-0.7-1.8-1.1c-1-0.7-1.8-1.8-1.4-2.9c0.3-0.8,1.3-1.3,2.1-1.9
	c0.2,0.1,0.3,0.3,0.5,0.4c-0.3,0.5-0.5,1-0.8,1.6c0.2,0.1,0.4,0.3,0.6,0.3c5.3,0.1,10.7,0.5,16-0.6c1.3-0.3,2.5-0.7,3.4-1.9
	c1-1.3,0.5-2.2-1.5-2.6c0.4,0.6,0.7,1.1,1,1.5c-0.6,1.3-1.6,1.9-2.9,2.1c-4.5,0.7-9.1,0.5-13.6,0.2c-1.5-3.6-1.5-3.6,0.9-4.9
	c0,0.4,0,0.8-0.1,1.1c-0.1,0.5-0.6,1.1-0.4,1.3c0.3,0.5,0.9,1.1,1.5,1.3c0.6,0.3,1.1-0.2,1-0.9c-0.1-0.9-0.4-1.8-0.6-2.7
	c-0.6-2.1-1.2-4.2-1.9-6.2c-0.7-2.2-0.1-4,1.7-5.4c1.7-1.4,3.6-2.6,6.1-3.4C265.3,166.3,264.3,171.5,267.2,176.9z"/>
<path class="st0" d="M269.2,746.7c0.1-2.2,0.2-4.5,0.3-6.9c1.2,1,2.3,2,3.4,2.9c2.4,1.7,3.6,1.7,6.1,0.2c2.1-1.3,4.2-2.6,6.4-3.8
	c0.6-0.3,1.5-0.5,2.2-0.3c1.6,0.4,3.1,1,4.6,1.6c2.9,1.3,5.7,1.8,8.8,0.7c0.9,2.2,1.8,4.4,2.7,6.6c0.2,0.4,0,1.1-0.2,1.6
	c-1.3,2.9-2.5,5.8-3.9,8.7c-0.4,0.8-1.3,1.4-2.1,1.8c-5.9,2.9-11.6,2.2-17-1.2c-3.7-2.3-6.9-5.2-9.2-9
	C270.8,748.5,270,747.7,269.2,746.7z"/>
<path class="st0" d="M288.8,180.6c0.8,3.5,3,4.6,8,3.7c-0.9-0.3-1.8-0.6-2.7-0.8c-0.5-0.1-1.1-0.1-1.6-0.3c-2.2-0.6-2.7-1.7-1.6-3.6
	c1.7-2.9,3.6-5.6,5.4-8.4c0.9-1.4,1.8-2.7,1.6-4.6c-1.7,0.4-1.4,2.4-2.9,3c-0.4-1.9-0.2-3.7,0-5.5c3.3-0.4,7.7,1.5,9,4.1
	c0.5,1,0.7,2.4,0.7,3.6c-0.1,1.6-0.5,3.2-0.8,4.8c-0.3,1.3-0.2,2.6,0.4,4.1c0.4-1.9,0.8-3.4,1.2-4.9c2.2,1,2.6,1.7,1.8,3.9
	c-1.2,3.3-2.5,6.5-3.8,9.8c-0.7,2-1.4,3.9-2,5.9c-0.2,0.6-0.2,1.4,0.1,2.1c2.1-5.3,4.3-10.5,6.5-15.9c0.8,0.9,0.6,1.7,0.5,2.5
	c-0.5,6.1-3.2,11.3-6.4,16.3c-0.9,1.4-2,2.8-3.1,4.1c-0.9,1.1-2.1,1.9-3.6,1.9c-3.1,0-4.6-1.6-4.4-4.7c0.1-1.4,0.4-2.8,0.5-4.2
	c0.1-1.3,0.2-2.6,0.3-4.4c0.6,0.8,0.9,1.3,1.3,1.9c0.1-0.2,0.4-0.3,0.4-0.5c0.1-3-1.1-5.4-3.2-7.5c-0.4-0.4-0.8-0.7-1.3-1
	C286,184,286,183.1,288.8,180.6z"/>
<path class="st0" d="M228.4,285c2.6-7.2,4.4-14.7,5.4-22.4c4,0.5,7.7,1.6,10.4,4.6c1,1,1.8,0.9,2.9,0.6c1.1-0.3,2.1-0.8,2.1-2.2
	c0-1.8,0-3.6,0-5.3c0-0.7-0.1-1.4-0.2-2.3c0.6,0,1.2,0,1.6,0.1c4,1.4,8,2.9,12,4.4c0.6,0.2,1.2,0.7,1.8,1.1c0.8,0.6,1.1,1.5,0.6,2.5
	c-0.4,0.8-0.7,1.5-1.1,2.6c-3.3,1-6.7,2.2-10.2,3.1c-5.5,1.4-10.6,3.5-15.3,6.5C235.1,280.5,231.8,282.7,228.4,285z"/>
<path class="st0" d="M277.3,208.4c4.5-0.4,5.2-3.8,5.8-7.3c0.2-1.1,0.2-2.1,0.2-3.3c2.2-0.2,4.3-0.3,6.6-0.5c0,0.7,0,1.4,0,2.1
	c-0.1,0.8-0.2,1.5-0.3,2.3c-0.1,3.2,1,4.7,4.1,5.6c0.7,0.2,1.5,0.3,2.1,0.4c0,2,0,3.8,0,5.7c0,0.4-0.1,0.8-0.3,1.1
	c-2.3,3.7-4.4,7.5-6.9,11c-0.9,1.3-2.5,2.3-3.8,3.3c-0.9,0.7-1.8,0.6-2.6-0.4c-2.4-2.9-4.3-6-4.2-10
	C277.9,215.2,277.5,211.9,277.3,208.4z"/>
<path class="st0" d="M307.1,260.6c0.9-0.9,1.5-1.6,2.2-2.2c3.8-3.5,8.5-5,13.5-5.9c5.7-1,11.4-1.2,16.9,1.1c2.6,1.1,3.1,2.8,1.1,4.7
	c-1.4,1.4-3.1,2.8-4.9,3.5c-4.9,2-9.9,3.7-14.8,5.5c-1.2,0.4-2.5,0.3-3.6-0.4c-2.8-1.6-5.7-3.2-8.5-4.9
	C308.5,261.7,308,261.2,307.1,260.6z"/>
<path class="st0" d="M281.3,680.8c2-0.1,3-1.2,4-2.5c1.2-1.8,1.5-1.8,3.2-0.4c1.8,1.3,3.6,1.3,5.4,0.2c1.8-1,3.1-2.5,4.1-4.4
	c0.8-1.6,1.6-3.3,2.4-5.1c1.3,1.7,1.3,3.3,0.9,5.3c-0.9,4.9-1.6,9.9-2.4,14.9c-0.2,1.4-0.6,2.9-0.9,4.3c-0.3,1.4-1.1,2.3-2.5,2.7
	c-0.9,0.3-1.7,0.7-2.6,0.9c-1.6,0.4-3.1,0.1-4.7-0.3c-3.3-0.8-4.1-3.1-4.6-5.9C282.8,687.4,282,684.3,281.3,680.8z"/>
<path class="st0" d="M193.5,441c-1.8-2-2.2-3.9-1.8-6c0.4-1.8,0.9-3.6,1.1-5.5c0.2-1.8,0.2-3.6,0.3-5.3c0.1-1,0.2-1.9,0.3-3.1
	c-1.2-1.5-1.6-1.7-3.8-1.1c0,2.2-0.6,4.4-1.8,6.3c-0.5,0.8-0.5,1.5,0.1,2.3c0.8,1.1,1.2,2.4,2,3.4c1,1.2,0.7,2.2,0.1,3.4
	c-2.4-2.6-3.1-6.5-6.4-7.9c0.7-2.8,1.4-5.4,1.9-8c0.3-1.4,0.3-2.9,0.3-4.4c0-1.2,0.5-2,1.5-2.7c0.9-0.6,1.7-1.6,2.6-2.3
	c2.9-2.1,6.9-3.4,12.5-1.8c0.5,2.6,0.3,5.2-0.5,7.7c-1.1,3.2-2.2,6.4-3.4,9.6c-1.3,3.4-2.6,6.8-3.8,10.2
	C194.2,437.4,194,439,193.5,441z"/>
<path class="st0" d="M280.8,537.3c-3.3,0-6.2,0-9.3,0c0.6-6.5,2.5-12.9,2.1-19.5c-0.3-6.6-0.5-13.2-0.7-20.1
	c2.9,0.5,5.5,1.4,8.3,2.3c0,6.2,0.1,12.4,0,18.6C281.1,524.8,280.9,531,280.8,537.3z"/>
<path class="st0" d="M271.5,739.6c0.5-0.6,0.8-1,1.1-1.3c2.5-2.9,5.2-5.8,7.6-8.8c1.3-1.6,2.6-2.5,4.6-2.5c1.2,0,2.5-0.1,3.7-0.4
	c1.8-0.5,3.2,0.1,4.4,1.4c2.1,2.2,4.2,4.4,6,6.7c0.8,1,1.2,2.5,1.5,3.8c0.3,1.2-0.2,1.8-1.4,1.8c-1.6,0-3.2-0.3-4.8-0.7
	c-1.9-0.5-3.8-1.4-5.7-2c-1.5-0.5-2.8-0.2-4.2,0.7c-2.1,1.4-4.4,2.6-6.6,4c-0.7,0.5-1.4,0.6-2.2,0.1
	C274.2,741.5,272.9,740.6,271.5,739.6z"/>
<path class="st0" d="M332.1,277.3c0.4,0.3,0.7,0.4,0.9,0.6c3.6,3.6,6.9,7.5,9.2,12.2c0.6,1.1,0.7,2.2,0.1,3.3
	c-0.2,0.3-0.3,0.7-0.5,1.1c-3.4,6.3-5.7,13-7.6,19.9c-0.1,0.4-0.3,0.8-0.6,1.4C332.3,311.7,331.3,280.2,332.1,277.3z"/>
<path class="st0" d="M292,650.8c2.2,4.4,4.5,8.7,7,13.5c-1-0.2-1.5-0.4-1.9-0.4c-1.8,0-3.6-0.2-5.3,0.1c-2.2,0.4-4.3,0.8-6.4,0.1
	c-1.7-0.5-2.8,0.1-3.7,1.5c-0.6,1-1.2,1.9-2.2,3.3c-0.4-3.4-0.7-6.3-1-9.1c0-0.4,0-0.8,0.2-1.1C282,654.4,286.3,651.4,292,650.8z"/>
<path class="st0" d="M298.5,666.2c-0.1,4.5-1.7,8.2-5.5,10.7c-1.5,1-2.6,0.9-4-0.3c-1.6-1.4-2.4-1.4-3.9,0.2
	c-0.6,0.6-1.1,1.3-1.7,1.9c-1.1,1-2.1,0.8-2.6-0.7c-0.2-0.7-0.3-1.4-0.4-2.1c-0.1-0.5-0.1-1.1-0.3-1.6c-1.3-3.6,1.1-5.9,3.1-8.3
	c0.3-0.3,1-0.6,1.4-0.5c2.9,0.8,5.7,0.3,8.5-0.3C295.5,664.7,295.9,664.8,298.5,666.2z"/>
<path class="st0" d="M229.3,315.2c0.2-5.9-2-11.4-2.8-17.2c-0.2-1.5-0.5-3.1-0.6-4.6c-0.1-0.7,0-1.6,0.4-2.2
	c2.3-3.8,5.3-6.8,9.3-8.9C236.6,293.9,233.7,304.7,229.3,315.2z"/>
<path class="st0" d="M269.8,738.1c0.2-1.8,0.4-3.7,0.7-5.5c0.9-5.1,1.1-10.2,0.8-15.3c-0.1-1.1,0.2-1.9,1.1-2.6
	c2.3-1.7,4.4-3.7,7-5.1c0.9,1.6,1.1,3.1,0.8,4.8c-0.2,0.9,0,2,0.1,2.9c0.1,1.7,0.1,3.4,0.5,5c0.6,2.7-0.3,4.7-2.1,6.6
	c-2.6,2.7-5.1,5.7-7.6,8.5c-0.2,0.3-0.5,0.5-0.8,0.8C270.2,738.2,270,738.1,269.8,738.1z"/>
<path class="st0" d="M305.6,351.7c0.5-1.1,0.9-2,1.3-2.8c1.2-2.5,1.3-5.1,0.3-7.7c-0.7-1.9-1.6-3.7-2.4-5.5c-0.2-0.4-0.3-0.8-0.6-1
	c-1.5-0.9-1.9-2.5-2.6-4c-0.5-1-0.9-2-1.4-2.9c-1.6-2.8-3-5.8-6.2-7.6c0.7-0.7,1.2-1.2,1.9-2c0.9,1.1,1.8,1.9,2.4,2.9
	c1.7,2.6,4,4.5,6.5,6.2c1.5,1,3,2.2,4.4,3.5c2.3,2,3.5,4.5,3.6,7.5c0,2.3-0.1,4.6-0.2,6.9c-0.1,1.2-0.6,2.2-1.6,3
	C309.4,349.5,307.9,350.9,305.6,351.7z"/>
<path class="st0" d="M280.4,538.8c-1.1,11.3-2.1,22.5-3.2,33.8c-0.5-3.6-0.9-7.2-1.6-10.8c-1.1-5.8-2.4-11.7-3.8-17.5
	c-0.4-1.8-0.6-3.5-0.4-5.6c1.5-0.1,2.9-0.3,4.4-0.3C277.2,538.5,278.6,538.7,280.4,538.8z"/>
<path class="st0" d="M271.4,164.4c0.5,0.3,0.8,0.3,0.9,0.5c1.6,2,3.9,2.8,5.9,4.1c0.8,0.5,2.1,0.6,3.1,0.6c1.8-0.1,3.5-0.5,5.3-0.6
	c1.6,0,2.7-0.8,3.6-1.8c1-1.1,2-2.3,3.1-3.5c0,2.5,0,5,0,7.4c0,0.5-0.3,1-0.6,1.5c-2,2.9-4,5.7-6.2,8.8c-3.3-6.5-8.9-9.5-15.1-11.7
	C271.4,167.9,271.4,166.3,271.4,164.4z"/>
<path class="st0" d="M343.2,287c-3.3-3.7-6.1-7.6-9.7-10.6c-3.5-3-7.7-5-11.8-7.5c4.4-1.4,8.6-2.8,13-4.2
	C337.1,272,339.1,279.8,343.2,287z"/>
<path class="st0" d="M275,300.8c1,4.4,1.8,8.6,2.6,12.3c-2,1.5-3.7,2.8-5.3,4.1c-1.6,1.2-2.9,0.8-3.4-1.1c-0.8-3.2-1.5-6.5-2.2-9.7
	c-0.1-0.6,0-1.3,0-2.1c1.7,0,3.4,0.4,4.8-0.1C272.8,303.7,273.6,302.2,275,300.8z"/>
<path class="st0" d="M267,317.4c-0.5,0-1.2,0.1-2,0.2c-0.7-0.9-1.2-2.1-2.6-2.1c-0.3,0-0.7-0.6-0.8-1c-0.8-1.9-1.6-3.7-2.2-5.6
	c-0.5-1.6-0.5-3.3,0-5c0.6-2.1,1.1-4.2,1.7-6.3c0.2-0.6,0.4-1.1,0.6-1.7c2.1,0.5,3.5,1.8,3.7,3.6C265.9,305.5,266.5,311.4,267,317.4
	z"/>
<path class="st0" d="M304.9,751.1c0,0.5,0.1,1,0,1.5c-0.6,3.1-1.5,6.2-3.1,9c-1,1.8-2.6,2.7-4.7,2.9c-6.5,0.7-12.8-0.2-18.5-3.3
	c-3.4-1.8-6.3-4.5-9.4-6.8c-0.3-0.3-0.5-1-0.5-1.4c0-1.2,0.2-2.4,0.3-4.1c0.7,0.8,1.1,1.3,1.4,1.8c3.7,5.3,8.6,9.1,14.7,11.3
	c4.2,1.5,8.3,1,12.2-0.8c2.7-1.3,4.1-3.7,5.4-6.2c0.7-1.3,1.2-2.6,1.8-3.9C304.6,751.1,304.8,751.1,304.9,751.1z"/>
<path class="st0" d="M298,731.9c-0.9-1-1.9-1.8-2.6-2.9c-1.5-2.2-3.3-4-6.2-4.1c0-0.9,0-1.7-0.1-2.4c-0.6-2.7-0.3-5.5-0.7-8.1
	c-0.3-2.3-0.5-2.2,0-4.7c2.3,0.7,4.3,1.7,5.1,4.1c0.7,1.9,1.4,3.8,1.6,5.8c0.5,3.7,1.4,7.3,2.9,10.7c0.2,0.5,0.3,1,0.4,1.5
	C298.2,731.8,298.1,731.9,298,731.9z"/>
<path class="st0" d="M292.4,301.4c2.3-1.3,4.8-1.1,7.4-0.7c0.3,5.3-0.8,10.1-2.7,14.8c-1.8,0.2-3.4,0.6-4.9-0.1
	c-0.2-3-0.4-5.9-0.6-9c0.6-0.3,1.5-0.5,2.1-1c0.6-0.5,1.3-1.3,1.3-1.9c0-1-0.9-1.3-1.9-1.3c-0.2,0-0.4-0.1-0.7-0.2
	C292.5,301.8,292.5,301.6,292.4,301.4z"/>
<path class="st0" d="M286.2,709c0.2,2.3,0.7,4.3,0.4,6.2c-0.3,2.7,0.7,5.3,0.5,7.9c0,0.6,0,1.2,0,2.1c-1.4,0.1-2.8,0.2-4.4,0.3
	c-0.5-3.2-1-6.3-1.5-9.4c0-0.2-0.1-0.5,0-0.7c0.6-1.8,0.5-3.6-0.1-5.5c-0.1-0.3,0-0.7,0.1-1.4C283,708.8,284.7,708.9,286.2,709z"/>
<path class="st0" d="M279.7,313.3c-0.2-1.6-0.5-3.2-0.7-5c3.9,0.9,7.2-1.1,10.7-1.7c1.1,2,1.3,4.8,0.6,8.4c-2.2,0.2-4.4,0.5-6.5-0.6
	C282.6,313.9,281.3,313.8,279.7,313.3z"/>
<path class="st0" d="M300.7,349.8c-1-2-0.7-4-0.8-6c0-2.5,0-5.1-0.5-7.6c-0.9-5.2-3.9-9.2-8.2-12.2c-0.2-0.1-0.4-0.3-0.6-0.4
	c0,0,0-0.1-0.1-0.3c0.6-0.5,1.2-1.1,1.8-1.7c2.6,1,4.3,2.8,5.5,5.1c1.8,3.3,3.6,6.5,4.3,10.2c0.2,1,0.4,2,0.3,3
	C302,343.2,301.3,346.5,300.7,349.8z"/>
<path class="st0" d="M271.2,320.4c0.4,6.8,2.5,8.4,9.9,7.6c-0.3,0.5-0.5,1-0.8,1.4c-1.4,1.5-2.8,2.9-4.2,4.4
	c-0.8,0.8-1.7,0.9-2.7,0.3c-3-1.7-5.5-7.2-4.8-10.5C269,322.2,269.8,321.3,271.2,320.4z"/>
<path class="st0" d="M239,494.5c0.9,4.5,1.6,8.7,2.5,13.2c-3-1-5.4-2.4-7.3-4.4c-1.8-1.9-1.6-4.5,0.6-6
	C236.1,496.2,237.5,495.4,239,494.5z"/>
<path class="st0" d="M305.5,316c-1.8-1.1-2.9-0.7-4.1-0.1c-0.6,0.3-1.5,0.1-2.8,0.1c2.4-5.1,2.7-10.2,2.6-15.5
	c0.6-0.2,1.2-0.3,2.1-0.6C304.4,305.2,304.9,310.3,305.5,316z"/>
<path class="st0" d="M290,195.7c-2.2,0.7-4.3,1-6.5,0.5c-0.7-2-0.8-3.9,0.4-5.8c0.9-1.4,1.4-2.9,2-4.4
	C290,187.6,290.8,189.6,290,195.7z"/>
<path class="st0" d="M305.4,317.2c0.8,3.6,1.5,6.8,2.2,10.1c-2-1.3-4.2-2.4-5.8-4.3c-1.5-1.8-2.9-3.8-4.5-5.8c0.4,0,0.8-0.1,1.1,0
	c1.4,0.6,2.8,0.5,4.3-0.1C303.5,316.8,304.6,317.2,305.4,317.2z"/>
<path class="st0" d="M400.7,408.3c-2.1-4.6-3.4-8.9-2.9-13.8c0.7-0.1,1.4-0.1,2-0.2c1.2-0.1,1.9,0.4,2,1.7c0,0.1,0,0.2,0,0.2
	c0.3,1.4,0.6,2.7,0.9,4.1c0,0.2,0,0.5-0.1,0.7C402.1,403.4,401.4,405.7,400.7,408.3z"/>
<path class="st0" d="M277.4,326.3c1.9-2.2,3.8-4.5,5.9-6.5c2.3-2.2,5.1-3.2,8.4-2.4c0,0.4,0.1,0.8,0.1,1.4c-3.5,0.6-6.1,2.6-8.3,5.2
	C281.6,326.2,280.3,326.8,277.4,326.3z"/>
<path class="st0" d="M283.5,651.5c2.1-3.2,4.5-6,7.5-8.4c1.5,1.6,3,3.2,4.6,4.8C291.5,649.1,287.6,650.3,283.5,651.5z"/>
<path class="st0" d="M257.5,130.3c1.3,1.7,3.1,2.9,3.2,5.4c0.1,2.2,0.5,4.3,0.7,6.5c0.1,0.9,0.7,2-0.5,3c-1-0.8-2.1-1.5-3-2.3
	c-0.4-0.4-0.5-1.1-0.6-1.7c-0.3-2.8-0.6-5.5-0.8-8.3c-0.1-0.8,0.2-1.6,0.3-2.4C257,130.4,257.3,130.4,257.5,130.3z M258.2,140.7
	c1.5,0.3,1.6,0.3,2-0.8c0.6-1.8-0.4-4.5-2.5-5.9c0.7,2,1.2,3.8,1.8,5.5C259.1,140,258.7,140.3,258.2,140.7z"/>
<path class="st0" d="M278.3,705.5c0.3,0.7,0.5,1.3,0.7,2c-1.2,1-2.3,2-3.5,3c-1.3,1-2.6,2-3.8,3c-1.2,1-2.3,2-3.5,3
	c-1.1,0.9-2,2.2-3.6,3C265.2,716.1,272.2,709.1,278.3,705.5z"/>
<path class="st0" d="M284.9,316.3c-1.9,1.6-3.6,3-5.3,4.4c-1.9-1.9-4-1.1-6.2-0.2c0.2-3,2.1-4.9,5.2-5.2
	C280.7,315.2,282.8,315.6,284.9,316.3z"/>
<path class="st0" d="M301.6,353.3c0.2-5.3,2.3-9.7,2.4-14.6C307,343.2,307.3,348.2,301.6,353.3z"/>
<path class="st0" d="M309.2,326.6c-0.4-1.1-0.8-2.1-1.2-3.2c4.2-2.4,8.1-4.7,13.3-3.5c-0.4,0.3-0.8,1-1.2,1c-4,0.1-6.7,2.5-9.5,4.9
	C310.2,326.1,309.7,326.3,309.2,326.6z"/>
<path class="st0" d="M279.7,702.5c1.3-0.1,2.4-0.3,3.6-0.3c1.7,0,2.4,0.5,2.9,2.1c0.7,2.5-0.4,3.4-2.4,3.3
	C280.8,707.5,279.9,706.6,279.7,702.5z"/>
<path class="st0" d="M298.5,711.5c-1.6-0.3-3.1-0.6-4.5-0.9c-0.5-0.1-1-0.4-1.5-0.6c-0.8-0.4-1.6-0.9-2.4-1.3
	c-1.8-0.8-1.8-0.8-1.6-3c3.8,0,6.7,2,9.5,4.1C298.6,710.2,299.1,710.8,298.5,711.5z"/>
<path class="st0" d="M275.2,91.8c2.2-1.8,4.8-2.4,7.4-2.4c2.4,0,4.7,0.7,7.1,1.3c1.6,0.4,1.6,0.5,1.5,2.8
	C286,90.8,280.7,90.4,275.2,91.8z"/>
<path class="st0" d="M195.3,438.6c0.3-1.1,0.5-1.9,0.8-2.9c2.8,0.5,5.7-0.3,8.3,2.2C201.2,438.7,198.4,438.1,195.3,438.6z"/>
<path class="st0" d="M191.1,430.8c-0.9-1.3-1.5-2.2-2.1-3.1c0.7-2.1,1.3-4.1,2-6.3c0.3,0.3,0.9,0.5,0.9,0.8
	C192.3,424.9,192,427.7,191.1,430.8z"/>
<path class="st0" d="M275.4,326.4c-1.4-1.1-2.7-1.9-2.2-3.4c0.5-1.4,2-1.6,3.3-1.6c0.7,0,1.3,0.2,2.3,0.4
	C277.7,323.5,276.6,324.8,275.4,326.4z"/>
<path class="st0" d="M252.3,321.6c-1.4,1.4-2.1,1.4-3.3,0.6c-0.9-0.7-1.7-1.5-2.7-2.1c-1.1-0.6-1.4-1.3-0.7-2.6
	C248.2,318.1,250.1,319.9,252.3,321.6z"/>
<path class="st0" d="M297.2,699.4c-1.8,0.1-3.2,0.2-4.5,0.3c-1,0.1-2,0.2-2.5-0.8c2.7-0.9,5.4-1.8,8.3-2.7
	C298,697.3,297.6,698.4,297.2,699.4z"/>
<path class="st0" d="M305.2,137.6c0.1,1.6,0.1,3.2,0.3,4.8c0.2,1.9-0.8,3.2-2.2,4.4C302.7,143.4,304.1,140.6,305.2,137.6z"/>
<path class="st0" d="M312.3,513.8c0.8-2.7,1.9-4.6,3.9-5.9c1.6,1.1,1.8,2,0.5,3C315.5,512,314.1,512.7,312.3,513.8z"/>
<path class="st0" d="M407.2,406.7c0.9,6,0.9,6.2-2.1,7.3C405.8,411.6,405.7,409.2,407.2,406.7z"/>
<path class="st0" d="M256.7,313.6c0.4-1.6,0.8-3,1.3-4.7c0.9,2.6,1.8,4.9,2.7,7.5C258.8,316,258.5,313.9,256.7,313.6z"/>
<path class="st0" d="M298.6,157.4c-0.3,1.7-0.6,3.3-0.9,5.1c-0.8,0-1.6-0.1-2.5-0.2C294.9,159.8,297.2,158.9,298.6,157.4z"/>
<path class="st0" d="M300.6,685.7c0.6-3.7,1.1-7.4,1.7-11.1c0.1,0,0.2-0.1,0.4-0.1c0.1,0.5,0.4,1,0.3,1.5c-0.5,3.3-1.2,6.5-1.8,9.8
	C301,685.8,300.8,685.8,300.6,685.7z"/>
<path class="st0" d="M196.5,434.5c1.1-2,2.2-0.7,3.1-0.9c0.9-0.2,2,0,3,0c0.1,0.4,0.2,0.8,0.4,1.5
	C200.9,434.9,198.8,434.7,196.5,434.5z"/>
<path class="st0" d="M303.6,137.8c0-2.6,0-4.7,0-7.2c1.4,1.2,1.3,2.6,1.3,3.8C304.8,135.4,304.2,136.4,303.6,137.8z"/>
<path class="st0" d="M259.5,128.1c0.4,0.6,0.9,1.2,1.4,1.8C259.6,129.3,259.6,129.3,259.5,128.1
	C259.5,128.1,259.5,128.1,259.5,128.1z"/>
<path class="st0" d="M303,119.9c-0.3,0.6-0.6,1.3-0.8,1.9C301.7,120.7,302.2,120.2,303,119.9C303.1,120,303,119.9,303,119.9z"/>
<path d="M289.8,155.1c-2.6,0.6-4.9,1.1-7.2,1.6c-0.4,0.1-0.8,0-1.1-0.1c-1.6-0.3-3.2-0.7-5-1.1c0,0.1-0.1-0.2,0-0.3
	c0.7-1.1,4.1-2.7,5.3-2.4c1,0.3,1.8,0.1,2.5-0.7C285.9,153.5,288.2,153.4,289.8,155.1z M279.3,153.9c2.6,2.1,5,1.1,7.3,0.5
	C284.3,154,282,153.9,279.3,153.9z"/>
<path d="M288.4,136.5c-0.2-1.1-0.2-1.8,0.8-2.4c2.1-1.3,8.7-1.9,11.5-0.7c-0.9,0.3-1.5,0.3-1.9,0.6c-0.5,0.3-0.9,0.7-1.3,1
	c-1-1.4-1.6-1.4-2.5,0c-1,1.5-1.4,1.6-2.8,0.8C290,134.5,290,134.5,288.4,136.5z"/>
<path d="M269.4,133.5c-1.2,0.3-2.6,0.8-4,1.2c1.7-2.6,4.5-2.2,6.9-2.4c2.4-0.2,3.7,2.2,5.5,3.4c-0.1,0.2-0.3,0.5-0.4,0.7
	c-1-0.5-1.9-1-2.7-1.4c-1.1,0.3-2.2,0.8-3,0.6C270.8,135.5,270.2,134.5,269.4,133.5z M272.2,135.2c0.3-1.4,0.1-1.8-1.1-1.5
	C271.4,134.1,271.7,134.5,272.2,135.2z"/>
<path d="M264.7,131.2c4.8-3.1,11.9-2.1,13.8,1.8c-0.7-0.2-1.2-0.2-1.6-0.5c-2.6-1.9-5.5-2.2-8.6-1.7
	C267.1,131,265.9,131.1,264.7,131.2z"/>
<path d="M279.5,145c0.1,2.7,0.1,2.8,2.5,2.9c1.2,0,2.4,0,3.8,0c-0.2-1.3-0.3-2.5-0.5-3.8c1.5,1.2,1.6,1.9,1.2,4.5
	c-2.2,1.2-4.5,0.6-6.7,0.2C278,148.5,277.8,147.1,279.5,145z"/>
<path d="M288.9,132.5c1.9-3.1,6.3-4.7,9.8-3.7c-1.6,1-3.5,0.7-4.9,1.4C292.2,130.9,290.7,131.6,288.9,132.5z"/>
<path d="M285.3,158.4c-2,1.5-3,1.4-4.6-0.3C282.5,158.2,283.9,158.3,285.3,158.4z"/>
<path d="M258.2,140.7c0.5-0.4,0.8-0.7,1.3-1.1c-0.5-1.7-1.1-3.5-1.8-5.5c2.1,1.4,3.1,4.1,2.5,5.9C259.9,141,259.8,141,258.2,140.7z"
	/>
<path class="st0" d="M279.3,153.9c2.7-0.1,5,0.1,7.3,0.5C284.3,155.1,281.9,156.1,279.3,153.9z"/>
<path class="st0" d="M272.2,135.2c-0.5-0.7-0.8-1-1.1-1.5C272.3,133.4,272.5,133.8,272.2,135.2z"/>
</svg>
