<?xml version="1.0" encoding="utf-8"?>
<!-- Generator: Adobe Illustrator 19.0.0, SVG Export Plug-In . SVG Version: 6.00 Build 0)  -->
<svg version="1.1" id="图层_1" xmlns="http://www.w3.org/2000/svg" xmlns:xlink="http://www.w3.org/1999/xlink" x="0px" y="0px"
	 viewBox="0 0 595.3 841.9" style="enable-background:new 0 0 595.3 841.9;" xml:space="preserve">
<style type="text/css">
	.st0{fill:#FFFFFF;}
</style>
<path class="st0" d="M13.1,790.4c0-245.9,0-491.9,0-737.8c190.1,0,380.1,0,570.2,0c0,245.9,0,491.8,0,737.8
	C393.2,790.4,203.1,790.4,13.1,790.4z M326.5,126.9c-1.6-1.6-2.9-2.8-4-4.1c-0.4-0.4-0.7-1.2-0.6-1.8c0.4-4.1,1-8.1,1.4-12.2
	c0.4-4.1,1-8.3,1-12.5c0-5.7-2.6-10.5-6.7-14.3c-1.1-1-2.4-1.7-3.7-2.6c0.9-2.8,0.4-5.5-1.3-7.8c-2.3-3.3-5.3-5.9-9.2-7.1
	c-3.1-0.9-6.2-1.7-9.3-2.2c-9.8-1.5-18.9,0.7-27.3,5.9c-1.3,0.8-2.6,1.8-3.7,2.9c-6,6.1-9.6,13.5-11.9,21.7
	c-1.4,5.1-1.4,10.5-1.6,15.7c-0.2,4.7-1.5,9.1-3.7,13.2c-0.9,1.7-1.6,3.5-2.4,5.2c0.1,0.1,0.3,0.2,0.4,0.3c2.3-1.8,4.7-3.7,7.2-5.6
	c-0.2,2.2-0.5,4.2-0.7,6.3c-0.2,3-0.4,6.1-0.5,9.1c0,1.5,0.4,3.1,0.2,4.7c-0.5,3.9-0.6,7.9-0.3,11.8c0.1,1.8,0.5,3.5,0.9,5.5
	c0.6-0.8,0.8-1.3,1.2-1.8c2.2-2.5,4-5.2,5.1-8.3c0.4-1.1,0.8-2.2,1.3-3.3c0.2-0.5,0.5-1,0.9-1.8c0.2,1.6,0.4,2.8,0.5,3.9
	c0.6,6.6,2.2,12.9,6.1,18.5c1,1.5,2,3.1,2.7,4.8c1.1,2.5,0.6,5.3,1,7.9c0.1,0.9,0,1.8,0,2.6c-0.8,0.4-1.5,0.7-2.1,1.1
	c-2.1,1.1-4.4,1.9-6.3,3.3c-2.5,1.9-4.9,4.1-7,6.5c-5.3,5.8-11,10.9-18.6,13.6c-0.7,0.2-1.4,0.6-1.9,1.1c-3.8,3.1-7.6,6.3-11.4,9.4
	c-1.3,1.1-2.1,2.5-2.7,4c-2.9,7-4.7,14.3-5.3,21.8c-0.8,10.1-1.7,20.2-2.6,30.3c-0.9,10.5-1.8,21.1-2.8,31.6
	c-1,10.2-2.2,20.4-4.3,30.5c-0.7,3.4-1.4,6.9-1.1,10.4c0.1,1.4,0.6,1.7,1.9,1.2c0.9-0.4,1.8-0.9,2.8-1.3c0.4,4.7,0.7,9.1,1.1,13.5
	c0.4,4.4,1,8.9,1.5,13.3c0.1,0.9,0,2.1,0.5,2.7c0.6,0.7,1.9,0.7,2.9,1.1c0.1,0,0.2,0.2,0.4,0.3c-0.5,0.8-1.1,1.6-1.6,2.4
	c-2.8,3.8-4.9,8-6.2,12.5c-0.3,1.2-0.2,2.1,0.6,2.8c1,0.9,2,1.8,3.2,2.5c2.1,1.3,4.3,2.4,6.2,3.5c0.4,5,0.8,9.9,1.2,14.8
	c0.3,3.3,0.7,6.7,0.8,10c0.1,1.8-0.1,3.6-0.6,5.3c-1.3,4.9-2.8,9.7-4.1,14.6c-0.5,1.9-1.3,3.8-1.2,5.6c0.2,3.8,1.5,7.4,3.9,10.5
	c0.9,1.2,1.5,2.4,1.1,4.1c-2.3,9.9-4.5,19.7-7.5,29.4c-5.7,18.3-11.3,36.7-17.8,54.8c-1.2,3.3-0.9,4.1,2.4,5.5
	c0.5,0.2,1,0.3,1.5,0.6c0.8,0.4,1.5,0.9,2.2,1.3c-0.1,0.4-0.1,0.6-0.2,0.8c-0.6,2.5-0.2,3.2,2.5,3.5c1.9,0.2,3.9,0.2,5.8,0.2
	c3.8,0,7.6,0.2,10.4-2.3c1.8,0.9,3.3,1.8,4.8,2.5c1,0.5,2.1,0.7,3.2,1.1c4.2,1.6,8.2,1.4,11.8-1.4c0.1-0.1,0.3-0.1,0.5-0.1
	c0.5,2.1,2.1,2.9,4,3.2c3.1,0.5,6.1,0.4,9.1-0.4c2.3-0.7,4.4-2,4.7-4.8c0-0.2,0.2-0.5,0.4-0.7c0.8,0.8,1.4,1.5,2.2,2.1
	c0.6,0.5,0.8,1,0.7,1.7c-0.2,1.9,0.3,3.7,1.2,5.4c0.8,1.5,0.6,2.7-0.2,4c-0.3,0.5-0.6,1.1-0.8,1.6c-2.6,4.8-3.1,9.7-1.3,14.9
	c1.9,5.5,3.8,11,5.8,16.4c2.7,7.6,5.5,15,7,23c1.8,9.9,2.9,19.7,2.3,29.8c-0.3,4.7,0.3,9.2,2,13.6c0.8,2.1,1.9,4,2.8,6.1
	c1.2,2.8,3,5.5,1.5,8.9c-0.7,1.6-0.6,3.6-0.9,5.5c-0.6,4.5-0.9,9.1-1.9,13.5c-1.2,5.3-1.4,10.4-0.8,15.7c0.5,4.9,0.3,9.8-0.6,14.6
	c-0.7,4.3-1,8.7-1.4,13.1c-0.1,1.1,0.2,2.2-0.9,3c-0.3,0.2-0.3,1-0.2,1.5c0,1.6,0.1,3.1,0.1,4.7c0,1.2,0.5,1.9,1.5,2.5
	c1.9,1.2,3.7,2.5,5.5,3.7c0.8,0.5,1.6,1.1,2.4,1.6c1.8,1.1,3.6,1.3,5.6,0.6c3.3-1.1,6.6-2.2,9.9-3.5c1.5-0.6,3-1.4,4.3-2.3
	c3.9-2.5,5-7.1,2.8-11.2c-0.2-0.4-0.5-0.8-0.6-1.2c-0.4-2-0.8-3.9-1.1-5.9c-1-5.7-1.9-11.5-3.1-17.1c-0.7-3.5-1-7.2-3-10.5
	c-0.5-0.9-0.3-1.7,0.3-2.5c2.8-3.5,2.9-7.5,2.4-11.7c-0.2-1.7-0.1-3.4,0.2-5.1c0.3-2,0.7-4,1.6-5.9c0.9-2.1,1-4.6,1.6-6.9
	c1.9-7.6,4.1-15.1,5.8-22.7c2.9-12.9,5.4-25.8,8.1-38.7c1.4-6.4,2.6-12.8,2.3-19.5c-0.1-2.5-0.4-4.9-0.4-7.4
	c0.1-10.2,0.2-20.4,0.4-30.6c0-0.8,0.3-1.7,0.4-2.6c1,0.2,1.7,0.3,2.5,0.4c2.8,0.3,5.7,0.6,8.4-0.4c1.1-0.4,2.1-1.2,3.2-1.6
	c6.3-2.3,12.8-4.1,19.6-3.3c2.6,0.3,4.8-0.3,6.9-2c0.9-0.7,2-1.3,3.2-1.5c3.2-0.6,5.8-2.1,8-4.3c0.3,0.2,0.6,0.3,0.8,0.5
	c1.1-1.1,1.1-2.2,1-3.4c-0.4-4.9-0.9-9.8-1.2-14.7c-0.5-9.5-2-18.8-4-28.1c-1.6-7.4-3.8-14.7-5.7-22.1c-0.6-2.2-1.1-4.4-1.5-6.2
	c1.2-1.3,2.4-2.1,3-3.2c1.1-2.2,1.9-4.5,1.9-7.1c0-1.3,0.3-2.7,0.3-4c0.1-2.8,0.7-5.6,0.2-8.4c-2.4-12.5-3.4-25.2-4.6-37.9
	c-0.4-4.1-0.7-8.2-1.4-12.2c-0.3-2-0.3-3.6,1.1-5.3c2-2.3,3-5.1,1.5-8.2c-0.5-1-0.7-2.1-1-3.2c-0.8-2.4-1-4.9-0.5-7.4
	c4-1.7,4.4-2.9,2.3-5.5c0.1-1,0.2-2,0.2-2.9c0-1.8-0.2-3.6-0.1-5.3c0.3-4.2,0.8-8.4,1-12.7c0.3-4.4,0.3-8.8,0.7-13.2
	c0.8-8.2,1.4-16.5,1.3-24.8c0-1.9-0.1-3.7,0.1-5.6c0.5-6.3,0.2-12.7-0.4-19c-0.8-7.4-1.7-14.8-2.4-22.2c-0.5-4.7-0.9-9.5-1.3-14.2
	c-0.2-2.4-0.4-4.8-0.2-7.1c0.1-2.3,0.3-4.5-1.3-6.3c-0.2-0.3-0.3-0.7-0.4-1c-1.7-5.3-4.2-10.2-6.7-15.1c-2-3.9-4.7-6.9-8.4-9
	c-1.9-1.1-3.8-2.1-5.7-3.1c-2.5-1.2-5-2.3-7.5-3.5c-0.5-0.3-1.3-0.8-1.4-1.3c-0.2-1.4-1.2-2-2.2-2.6c-4.4-2.6-8.1-5.9-11.5-9.8
	c-2.9-3.3-6.2-6.2-9.4-9.3c-0.6-0.5-1.3-1-2.1-1.2c-2.9-0.9-3.7-1.8-3.7-4.8c0-0.9,0-1.8,0-2.7c-0.1-1.7,0.4-2.9,1.6-4.1
	c3.9-3.9,6.8-8.5,7.5-14.1c0.1-0.5,0.3-1,0.3-1.2c1.1-0.9,2.1-1.6,2.9-2.4c0.9-0.9,1.7-1.8,2.7-2.7c4.5-4.1,5.6-9.5,5.6-15.2
	c0-2.6-1-3.4-3.7-3.7c-0.1,0-0.2-0.2-0.2-0.2c0.7-2.7,1.4-5.4,2.2-8.2C321.6,124.5,323.6,126,326.5,126.9z"/>
<path d="M326.5,126.9c-2.9-0.9-4.8-2.4-6.5-4.5c-0.8,2.8-1.5,5.5-2.2,8.2c0,0,0.1,0.2,0.2,0.2c2.7,0.3,3.7,1.1,3.7,3.7
	c0,5.7-1.1,11.1-5.6,15.2c-0.9,0.8-1.7,1.8-2.7,2.7c-0.9,0.8-1.8,1.5-2.9,2.4c-0.1,0.2-0.3,0.7-0.3,1.2c-0.7,5.7-3.6,10.2-7.5,14.1
	c-1.2,1.2-1.7,2.5-1.6,4.1c0.1,0.9,0,1.8,0,2.7c0,3,0.8,3.9,3.7,4.8c0.8,0.2,1.5,0.7,2.1,1.2c3.2,3,6.5,6,9.4,9.3
	c3.4,3.9,7.1,7.2,11.5,9.8c1,0.6,2,1.2,2.2,2.6c0.1,0.5,0.8,1,1.4,1.3c2.5,1.2,5,2.3,7.5,3.5c1.9,1,3.8,2,5.7,3.1
	c3.7,2.1,6.4,5.1,8.4,9c2.5,4.9,5,9.8,6.7,15.1c0.1,0.4,0.2,0.8,0.4,1c1.7,1.9,1.5,4,1.3,6.3c-0.1,2.4,0,4.8,0.2,7.1
	c0.4,4.8,0.8,9.5,1.3,14.2c0.8,7.4,1.6,14.8,2.4,22.2c0.7,6.3,0.9,12.6,0.4,19c-0.1,1.9-0.1,3.7-0.1,5.6c0.1,8.3-0.5,16.5-1.3,24.8
	c-0.4,4.4-0.4,8.8-0.7,13.2c-0.3,4.2-0.7,8.4-1,12.7c-0.1,1.8,0.1,3.6,0.1,5.3c0,0.9-0.1,1.9-0.2,2.9c2.1,2.6,1.7,3.8-2.3,5.5
	c-0.5,2.5-0.2,4.9,0.5,7.4c0.3,1.1,0.5,2.2,1,3.2c1.5,3.1,0.5,5.9-1.5,8.2c-1.4,1.7-1.5,3.2-1.1,5.3c0.7,4,1,8.1,1.4,12.2
	c1.2,12.7,2.3,25.4,4.6,37.9c0.5,2.9-0.1,5.6-0.2,8.4c-0.1,1.3-0.3,2.7-0.3,4c0,2.5-0.8,4.9-1.9,7.1c-0.6,1.1-1.7,1.9-3,3.2
	c0.4,1.8,0.9,4,1.5,6.2c1.9,7.3,4.1,14.6,5.7,22.1c2,9.2,3.5,18.6,4,28.1c0.2,4.9,0.7,9.8,1.2,14.7c0.1,1.2,0.1,2.4-1,3.4
	c-0.2-0.1-0.5-0.3-0.8-0.5c-2.3,2.2-4.9,3.7-8,4.3c-1.1,0.2-2.3,0.8-3.2,1.5c-2,1.7-4.3,2.3-6.9,2c-6.9-0.8-13.3,1.1-19.6,3.3
	c-1.1,0.4-2.1,1.2-3.2,1.6c-2.7,1-5.6,0.7-8.4,0.4c-0.7-0.1-1.5-0.2-2.5-0.4c-0.2,0.9-0.4,1.8-0.4,2.6c-0.2,10.2-0.3,20.4-0.4,30.6
	c0,2.5,0.3,4.9,0.4,7.4c0.4,6.6-0.9,13-2.3,19.5c-2.7,12.9-5.3,25.8-8.1,38.7c-1.7,7.6-3.9,15.1-5.8,22.7c-0.6,2.3-0.7,4.7-1.6,6.9
	c-0.8,1.9-1.2,3.9-1.6,5.9c-0.3,1.7-0.3,3.4-0.2,5.1c0.4,4.2,0.4,8.2-2.4,11.7c-0.6,0.8-0.8,1.6-0.3,2.5c1.9,3.2,2.2,6.9,3,10.5
	c1.2,5.7,2.1,11.4,3.1,17.1c0.4,2,0.7,3.9,1.1,5.9c0.1,0.4,0.4,0.8,0.6,1.2c2.1,4.1,1,8.6-2.8,11.2c-1.4,0.9-2.8,1.7-4.3,2.3
	c-3.3,1.2-6.6,2.3-9.9,3.5c-2,0.7-3.8,0.4-5.6-0.6c-0.8-0.5-1.6-1-2.4-1.6c-1.8-1.3-3.7-2.6-5.5-3.7c-1-0.6-1.5-1.3-1.5-2.5
	c0-1.6-0.1-3.1-0.1-4.7c0-0.5,0-1.3,0.2-1.5c1.1-0.8,0.8-2,0.9-3c0.4-4.4,0.7-8.8,1.4-13.1c0.8-4.9,1.1-9.8,0.6-14.6
	c-0.6-5.3-0.4-10.5,0.8-15.7c1-4.4,1.3-9,1.9-13.5c0.3-1.8,0.2-3.8,0.9-5.5c1.5-3.4-0.2-6.1-1.5-8.9c-0.9-2-2-4-2.8-6.1
	c-1.6-4.4-2.3-8.9-2-13.6c0.6-10-0.5-19.9-2.3-29.8c-1.5-8-4.3-15.5-7-23c-1.9-5.5-3.8-11-5.8-16.4c-1.8-5.2-1.3-10.1,1.3-14.9
	c0.3-0.5,0.5-1.1,0.8-1.6c0.8-1.3,1-2.5,0.2-4c-0.9-1.6-1.4-3.4-1.2-5.4c0.1-0.7-0.1-1.2-0.7-1.7c-0.8-0.6-1.4-1.3-2.2-2.1
	c-0.1,0.3-0.3,0.5-0.4,0.7c-0.3,2.8-2.4,4.1-4.7,4.8c-2.9,0.9-6,0.9-9.1,0.4c-2-0.3-3.6-1.1-4-3.2c-0.2,0-0.4,0-0.5,0.1
	c-3.7,2.8-7.6,3-11.8,1.4c-1-0.4-2.2-0.6-3.2-1.1c-1.5-0.7-3-1.5-4.8-2.5c-2.8,2.5-6.6,2.4-10.4,2.3c-1.9,0-3.9,0-5.8-0.2
	c-2.6-0.3-3.1-1-2.5-3.5c0-0.2,0.1-0.4,0.2-0.8c-0.7-0.4-1.5-0.9-2.2-1.3c-0.5-0.2-1-0.4-1.5-0.6c-3.2-1.4-3.5-2.2-2.4-5.5
	c6.5-18.1,12.1-36.4,17.8-54.8c3-9.7,5.2-19.6,7.5-29.4c0.4-1.7-0.2-2.9-1.1-4.1c-2.4-3.1-3.7-6.7-3.9-10.5
	c-0.1-1.9,0.7-3.8,1.2-5.6c1.4-4.9,2.8-9.7,4.1-14.6c0.4-1.7,0.6-3.5,0.6-5.3c-0.1-3.3-0.5-6.7-0.8-10c-0.4-4.9-0.8-9.8-1.2-14.8
	c-2-1.1-4.1-2.2-6.2-3.5c-1.1-0.7-2.2-1.6-3.2-2.5c-0.8-0.7-1-1.7-0.6-2.8c1.4-4.5,3.4-8.7,6.2-12.5c0.6-0.8,1.1-1.6,1.6-2.4
	c-0.2-0.2-0.3-0.3-0.4-0.3c-1-0.3-2.2-0.4-2.9-1.1c-0.5-0.5-0.4-1.8-0.5-2.7c-0.5-4.4-1-8.9-1.5-13.3c-0.4-4.4-0.7-8.9-1.1-13.5
	c-1,0.5-1.9,1-2.8,1.3c-1.3,0.5-1.8,0.2-1.9-1.2c-0.3-3.5,0.4-7,1.1-10.4c2.1-10.1,3.4-20.3,4.3-30.5c1-10.5,1.9-21.1,2.8-31.6
	c0.9-10.1,1.8-20.2,2.6-30.3c0.6-7.6,2.4-14.8,5.3-21.8c0.6-1.5,1.4-2.9,2.7-4c3.8-3.1,7.6-6.3,11.4-9.4c0.6-0.5,1.3-0.8,1.9-1.1
	c7.6-2.7,13.3-7.8,18.6-13.6c2.2-2.3,4.5-4.6,7-6.5c1.9-1.4,4.2-2.2,6.3-3.3c0.7-0.3,1.3-0.7,2.1-1.1c0-0.9,0.1-1.8,0-2.6
	c-0.4-2.6,0-5.4-1-7.9c-0.7-1.7-1.7-3.3-2.7-4.8c-3.9-5.6-5.5-11.8-6.1-18.5c-0.1-1.2-0.3-2.3-0.5-3.9c-0.4,0.8-0.7,1.3-0.9,1.8
	c-0.4,1.1-0.9,2.2-1.3,3.3c-1.1,3.1-2.8,5.9-5.1,8.3c-0.4,0.4-0.7,0.9-1.2,1.8c-0.3-2-0.8-3.7-0.9-5.5c-0.2-3.9-0.2-7.9,0.3-11.8
	c0.2-1.5-0.2-3.1-0.2-4.7c0.1-3,0.3-6.1,0.5-9.1c0.2-2.1,0.4-4.1,0.7-6.3c-2.5,1.9-4.8,3.8-7.2,5.6c-0.1-0.1-0.3-0.2-0.4-0.3
	c0.8-1.7,1.5-3.5,2.4-5.2c2.2-4.2,3.5-8.5,3.7-13.2c0.3-5.3,0.2-10.6,1.6-15.7c2.3-8.2,5.9-15.6,11.9-21.7c1.1-1.1,2.3-2.1,3.7-2.9
	c8.4-5.2,17.5-7.4,27.3-5.9c3.1,0.5,6.3,1.2,9.3,2.2c3.9,1.2,6.9,3.9,9.2,7.1c1.7,2.3,2.2,5,1.3,7.8c1.3,0.9,2.7,1.6,3.7,2.6
	c4.2,3.9,6.7,8.6,6.7,14.3c0,4.2-0.6,8.3-1,12.5c-0.4,4.1-1,8.1-1.4,12.2c-0.1,0.6,0.2,1.4,0.6,1.8
	C323.6,124.2,324.9,125.3,326.5,126.9z M300.6,453.6c0.1,0,0.2,0,0.4,0c0.1,0.5,0.1,1,0.2,1.5c0.2,2.8,0.3,5.6,0.6,8.5
	c0.5,5.4,1.1,10.8,1.5,16.2c0.4,5.9,0.3,11.9,0.7,17.9c0.6,9.3,0.9,18.6,0.3,27.9c-0.4,6.4-0.8,12.8-1.3,19.2
	c-0.4,5.1-1.1,10.2-1.6,15.3c-0.1,0.6,0,1.2,0,2c0.8-0.3,1.5-0.5,2.1-0.8c5.3-2.8,10.9-3.4,16.7-2.6c1.4,0.2,2.7,0.2,4.1,0.4
	c0-2.6,0.1-4.9,0-7.2c-0.3-4.8-0.8-9.5-1.3-14.2c-0.4-4.6-0.8-9.2-1.5-13.8c-1.2-8.6-2.4-17.2-3.7-25.9c-2.2-14.2-4.5-28.4-6.5-42.6
	c-1.3-9-2.4-18-3.3-27c-0.5-4.8-0.7-9.7-0.7-14.5c0-3.7,0.4-7.4,0.7-11.1c0-0.6,0-1.4,1.1-1.6c-0.2,1.3-0.5,2.5-0.5,3.8
	c0,5.2,0.1,10.4,0.2,15.6c0.1,8.2,1.3,16.3,2.6,24.4c1.3,8.9,2.8,17.8,4.2,26.7c1.6,10.3,3.2,20.6,4.7,30.9
	c1.2,8.2,2.3,16.4,3.4,24.6c0.7,5.4,1.2,10.8,1.6,16.2c0.4,5.2,1.3,10.3,0.7,15.6c1.5,0.2,3,0.1,4-0.9c1.2-1.1,2.6-1.7,4.1-2.2
	c5.5-1.7,11.1-3,16.9-2.8c0.3,0,0.7-0.1,1-0.2c-0.1-0.9-0.1-1.7-0.2-2.6c-0.4-4-0.6-8-1.2-12c-1.8-12.7-5.1-25.1-8.5-37.4
	c-3.8-14-7.6-28-10.9-42.2c-4-17-7.5-34.2-11.2-51.3c-0.6-2.6-1.2-5.2-1.7-7.7c-1.2,0-2.3,0-3.3,0c-14,0.4-28,0.8-42,1.3
	c-2,0.1-4,0.4-6,0.7c-1.3,0.2-2.5,0.5-4.1,0.9c0-2.6,0-5,0-7.8c-0.9,0.2-1.8,0.2-2,0.6c-1.2,1.8-3,1.8-4.8,1.8
	c-4.8-0.1-9.5-0.3-14.3-0.5c-2.2-0.1-4.4-0.3-6.5-0.5c-0.3,0.6-0.5,1-0.6,1.5c-1.8,6.6-3.7,13.2-5.2,19.9
	c-3.2,13.9-6.2,27.9-9.3,41.9c-1.9,8.7-3.5,17.5-6,26.1c-6.1,21.6-12.9,43.1-20.6,64.2c-0.2,0.5-0.3,1.1-0.6,2
	c1.9,0.9,3.8,1.8,6.1,2.8c1.3-4.2,2.7-8.1,3.7-12.1c2.1-8.5,4.1-16.9,5.9-25.5c2.2-10.6,4.2-21.2,6.3-31.8c0.1-0.4,0.3-0.8,0.5-1.1
	c0.1,2.1,0,4.1-0.3,6.1c-1.5,8.6-3,17.2-4.8,25.7c-2.8,13.5-5.9,26.9-10.5,39.9c-0.3,0.9-0.4,1.8-0.7,3.1c4,0,7.6,0,11.3,0
	c2.2,0,4.1-0.7,5.7-2.1c0.9-0.8,1.8-1.2,2.9-0.1c0.2-1,0.3-1.6,0.4-2.3c0.7-7.1,1.4-14.2,2.1-21.3c0.9-9.9,1.6-19.9,2.8-29.8
	c1-8.5,2.3-17,3.9-25.4c1.6-8.9,3.7-17.6,5.6-26.4c0.1-0.5,0.3-0.9,0.5-1.4c0.3,0.5,0.3,1,0.2,1.5c-1.8,9.4-3.6,18.7-5.4,28.1
	c-3.5,18.3-5,36.9-6.5,55.4c-0.5,6-1.2,12-1.7,18c-0.2,1.8-0.2,3.7-0.3,5.8c2.6,0.8,5,1.7,7.6,2.2c2.3,0.4,4.6,0.1,6.6-1.3
	c0.8-0.5,1.2-1.1,1.3-2.1c1-9.3,2.1-18.6,3.1-28c0.9-8.2,1.3-16.3,1.2-24.5c-0.1-10.1-0.1-20.1,0.1-30.2c0.1-6.2,0.8-12.3,1.1-18.5
	c0.3-6.4,0.3-12.8,0.4-19.2c0.1-8.2,0.1-16.4,0.2-24.6c0-3.9,0.2-7.9,0.3-11.8c0-1,0-2,0.9-2.8c0.2,1,0.2,2,0.2,3
	c-0.1,10.9-0.3,21.8-0.4,32.6c0,4.5,0,9.1,0,13.6c0,2.6-0.1,5.2-0.2,7.8c-0.4,7.5-1,15-1.2,22.5c-0.2,10.3-0.1,20.6-0.2,30.8
	c-0.1,10-0.7,19.9-1.9,29.9c-0.7,5.5-1.3,10.9-1.9,16.4c-0.2,1.6-0.8,3.2,0.9,4.5c0.2,0.1,0.2,0.5,0.3,0.8c0.1,1.1,0.8,1.5,1.8,1.7
	c3.2,0.5,6.4,0.6,9.5-0.3c1.7-0.5,3.2-1.6,3.4-3.7c0.2-1.7,0.5-3.4,0.7-5.1c0.4-4.5,0.8-9,1.1-13.6c0.4-6.2,1-12.3,1.1-18.5
	c0.1-9.8,0-19.7-0.4-29.5c-0.4-8.9-1.1-17.7-1.9-26.5c-0.8-9.4-2-18.8-3-28.2c-0.7-6.5-1.5-13-2.1-19.5c-0.4-4.7-0.5-9.5-0.7-14.3
	c0-1-0.2-2.2,0.8-3.2c0,1.2-0.1,2.2,0,3.3c0.4,5.6,0.8,11.3,1.4,16.9c1.1,10,2.3,20,3.4,30c0.9,8.2,1.8,16.4,2.4,24.7
	c0.6,8,1.1,16.1,1.3,24.1c0.2,11.4,0.3,22.8-0.7,34.2c-0.6,7.3-1.2,14.7-1.8,22c0,0.6,0,1.3,0.3,1.7c1.5,1.7,3.1,3.2,5.5,3.5
	c3,0.4,6.1,0.6,9-0.6c3.4-1.3,6.9-2.2,10.6-1.9c0-0.8,0.1-1.5,0-2.1c-0.6-6.7-1.1-13.4-1.9-20c-0.9-7.5-2.2-15-3.3-22.5
	c-1.4-9.5-3-19-4.3-28.5c-0.8-6-1.4-12.1-1.9-18.2c-0.6-7.6-1.1-15.3-1.6-22.9c-0.4-6-0.6-12-0.8-18.1c-0.2-6.3-0.4-12.7,0.3-19
	c0.1-0.8,0-1.6,1.2-2.2c-1.1,5.4-0.6,10.7-0.4,15.9c0.3,7.4,0.6,14.7,0.9,22.1c0.2,4.3,0.3,8.6,0.7,12.9c0.8,9.1,1.6,18.2,2.6,27.3
	c0.7,6.1,1.6,12.3,2.5,18.4c1.2,7.6,2.6,15.3,3.8,22.9c1.1,7.7,2,15.3,3,23c0.6,5,1.1,9.9,0.7,14.9c0,0.1,0.1,0.3,0.3,0.5
	c0.5,0,1,0,1.5,0c0-2.6-0.2-5.2,0-7.7c0.4-5.7,1-11.4,1.5-17.1c0.8-8.1,1.7-16.3,2.5-24.4c0.7-6.7,1.4-13.3,1.9-20
	c0.5-6.5,0.8-13.1,1.1-19.6c0.5-13.5,0.8-27,1.2-40.4c0.3-9.5,0.6-18.9,0.9-28.4c0-0.4,0.2-0.8,0.4-1.2c0.2,0,0.3,0.1,0.5,0.1
	c-0.1,1.5-0.2,3.1-0.2,4.6c-0.1,6-0.1,12.1-0.2,18.1c-0.1,4.5-0.2,9.1-0.3,13.6c-0.1,7.6,0,15.2-0.1,22.8
	c-0.2,7.2-0.4,14.4-0.8,21.7c-0.4,6.3-0.9,12.6-1.5,18.9c-0.9,9.3-2,18.5-3,27.8c-0.6,5.6-1.2,11.3-1.6,16.9
	c-0.4,4.3-0.6,8.6-0.9,12.9c5.5-1.3,6.4-1.2,11.8,1c0.7,0.3,1.5,0.5,2.4,0.8c0.3-2.1,0.7-3.9,0.8-5.8c0.9-11.7,2.2-23.5,2.6-35.2
	c0.4-11.9,0-23.8-0.4-35.7c-0.3-8.6-1.1-17.1-1.6-25.6C300.5,457.6,300.6,455.6,300.6,453.6z M335.5,231c-9.7-4.5-19.6-7.2-29.9-8.4
	c1.4,1.5,2.9,2.8,4.5,4c4.6,3.8,8.9,7.9,12.8,12.5c1.9,2.3,1.4,5-1.1,6.6c0.4,2.2,0.3,2.5-1.7,3.4c-4.5,2-8.9,4.1-13.5,6
	c-9,3.6-18,7.1-27,10.8c-5.1,2.1-10.1,4.4-14.7,7.5c-0.9,0.6-1.4,1.2-1.5,2.3c-0.2,3.2-0.5,6.4-0.7,9.6c-0.1,1.2,0.2,2.5,0.3,3.8
	c0.6,4.8,1.3,9.6,2,14.4c0.3,2,0.5,4.1,0.8,6.4c1.4-0.1,2.8-0.1,4.1-0.2c2.9-0.2,5.8-0.5,8.7-0.7c0.7,0,1.4,0.3,2,0.6
	c3,1.5,6,3,8.9,4.5c0.1,0.1,0.1,0.3,0.3,0.7c-3.4-0.9-6.4-1.9-9.2-4c0,0.6-0.1,0.9-0.1,1.1c0.8,5.2,0.8,10.4,0.9,15.6
	c0,1.8-0.3,3.3-1.5,4.8c-0.4-0.6-0.7-1.1-1-1.6c-4.4,0.8-8.7-0.3-12.9,0.7c-0.3,7.2-0.5,14.1-0.8,21c-0.3,7-0.6,14-0.7,21
	c-0.1,6.9-0.7,13.8-0.5,20.7c0.9,0.1,1.5,0.1,2.1,0.1c8.9-0.2,17.7-0.4,26.6-0.6c3.2-0.1,6.4-0.4,9.6-0.7c5.5-0.6,11.1-1.2,16.6-1.9
	c8.4-1.1,16.8-2.3,25.2-3.4c5.1-0.7,10.2-1.3,15.4-1.1c-0.1-1.8-1-3.1-2.3-4.4c-5.1-4.7-8.5-10.5-10.1-17.2c-1.3-5-3-9.8-5.4-14.4
	c-1.2-2.3-2.5-4.7-5-6.1c-0.4-0.2-0.6-0.8-0.9-1.2c-0.5-0.7-0.8-1.4-1.3-2c-2.2-2.4-4.5-4.8-6.8-7.1c-3.1-3-3.9-6.7-3.1-10.7
	c0.8-3.9,2.1-7.6,3.1-11.4c0.6-2,1.4-4,1.7-6c0.4-3.5,0.6-7.1,0.7-10.7c0.2-5.4,0.3-10.9,0.5-16.3c0.1-1.4,0.3-2.9,0.5-4.8
	c-4.5,2.7-7.4,6.5-10.8,9.9c2.5-4.1,5.2-8,9-11c-1-2.4-2.8-4.3-3.5-6.7c2.5,1.5,3.4,4.4,5.4,6.2c1.8-6.3,3.5-12.6,5.3-18.8
	c1.8-6.2,3.5-12.4,5.4-19c-0.6,1-1.1,1.7-1.5,2.4c-2.6,5.3-5.3,10.5-7.8,15.8c-1.2,2.5-2.1,5.1-3.3,7.6c-0.5,1-1.3,2-2.2,2.7
	c-3.3,2.3-6.7,4.5-10.1,6.6c-1.2,0.8-2.5,1.4-3.8,2.1c-0.1-0.1-0.2-0.3-0.3-0.4c1-1.3,2-2.5,3.3-3.4c2.9-1.9,5.7-3.8,8.7-5.5
	c1.7-0.9,2.7-2.1,3.5-3.8c3.6-8.8,7.8-17.2,12.7-25.3c1-1.6,2.2-3,3.3-4.5c0.2-0.3,0.7-0.3,1-0.5c-1.8,4.8-3.3,9.6-4.7,14.6
	c5.8-2.1,11.4-4,17.1-6c-0.1-0.5-0.3-1.1-0.5-1.6c-1.9-5.4-4.6-10.5-7.3-15.5c-1-1.8-2.4-3.3-4.2-4.3c-3.9-2.3-7.9-4.5-11.9-6.7
	c-1.1-0.6-2.2-1.1-3.8-1.8c0.3,1.1,0.4,1.8,0.6,2.5c1.3,4,2.7,7.9,3.8,11.9c0.6,2.3,1,4.6,1.3,7C336.1,229.2,335.7,229.9,335.5,231z
	 M217.7,368.1c1-2.5,2.1-4.8,3.1-7.2c2.3-5.8,5.6-11,9.7-15.7c1.6-1.8,3-3.7,4.5-5.6c0.6-0.7,1-1.7,1.2-2.6
	c1.3-5.2,1.7-10.4,1.6-15.7c-0.1-10.4-0.2-20.7-0.6-31.1c-0.2-6.1,0-12.2-1.9-18.1c-0.2-0.6-0.3-1.2-0.4-1.7
	c-2.7-12.8-5.8-25.5-9.4-38.1c-0.9-3.1-1.6-6.2-4.1-8.6c-0.1-0.1-0.2-0.2-0.2-0.4c0-0.3,0-0.8,0.2-1c0.2-0.2,0.8-0.2,1-0.1
	c0.4,0.3,0.7,0.7,1,1.1c2,2.3,2.7,5.1,3.5,7.8c1.1,3.9,2.1,7.9,3,11.9c1.8,7.5,3.6,15.1,5.3,22.6c2.7,11.8,5.5,23.5,8,35.3
	c1.1,5.2,1.7,10.4,2.3,15.7c0.5,4.1-0.1,8-2,11.8c-1.1,2.2-2.2,4.4-3.6,6.4c-3.3,4.7-6.8,9.2-10.2,13.8c-1,1.4-2,2.7-3.3,4.5
	c1.9-0.2,3.3-0.4,4.7-0.4c7-0.2,14-0.4,21-0.6c0.1,0,0.3,0,0.4,0c1.1-0.1,1.8,0.4,2.3,1.4c0.2,0.5,0.1,1.2,1,1.3
	c0.8,0.1,0.9,0.9,0.6,1.4c-0.2,0.4-0.8,0.8-1.3,0.9c-0.9,0.1-1.9,0-2.9,0c-0.4,3.4-0.8,6.7-1.2,9.9c-0.3,2.7-0.5,5.5-0.9,8.2
	c-0.2,1.1-0.8,2.3-1.5,3.1c-0.4,0.4-1.5,0.3-2.3,0.4c-0.2,0-0.5,0-0.7,0.1c-1.7,1-3.5,0.5-5.2,0.4c-5.8-0.3-11.5-1.5-17.2-2.6
	c-1.1-0.2-2.2-0.6-3.3-0.9c0-0.2,0-0.3,0-0.5c0.6-0.1,1.2-0.3,1.5-0.3c1.6-5.8,3.1-11.5,4.6-17.3c-1.3-0.3-2,0-2.4,1
	c-0.3,0.9-0.8,1.8-1.2,2.7c-3.2,7.4-5.7,15.1-10.9,21.4c-0.5,0.7-0.9,1.6-1.3,2.4c-0.4,0.8-0.7,1.6-1.1,2.5
	c3.7,0.4,7.2,0.9,10.6,1.2c5.5,0.5,11,0.8,16.5,1.3c4.4,0.4,8.7,1,13.1,1.5c2.7,0.3,5.4,0.3,8-0.2c0.6-7,1.4-13.8,1.8-20.6
	c0.7-10.7,1.3-21.4,1.9-32.1c0.1-2.3,0.2-4.6,0.3-6.9c-0.3,0-0.5,0-0.6,0c-0.8,0.3-1.5,0.6-2.3,0.9c-1.6,0.6-1.8,0.6-2.8-0.8
	c-2.3-3.3-4.5-6.6-6.9-9.9c-0.8-1.1-0.8-2,0.1-3c2.3-2.8,4.6-5.7,6.8-8.6c0.5-0.7,1.1-0.9,1.9-0.9c1.2,0,2.3,0,3.9,0
	c-0.7-7.3-1.5-14.4-2.2-21.3c-1.7-1.2-1.7-1.2-1.7-3.1c0-1.2,0-2.4,0-3.6c-0.2-3-0.1-6.2-0.7-9.1c-1.8-8.1-4-16-5.9-24.1
	c-0.3-1.3-0.9-1.9-1.9-2.5c-3.3-1.8-6.8-3-10.6-3.4c-2-0.2-2.4-1-1.6-2.7c1.4-2.9,2.7-6,4.6-8.7c3-4.2,6.5-8.2,9.8-12.2
	c0.4-0.6,0.9-1.1,1.4-1.8c-0.4-0.1-0.6-0.1-0.7-0.1c-6.8,1.8-13.5,3.6-20.3,5.4c-1.9,0.5-3.7,1-5.6,1.3c-0.5,0.1-1.1-0.3-1.6-0.5
	c0.2-0.5,0.3-1.1,0.6-1.5c3-3.1,4.1-7.1,5.2-11.1c-3.2,2.4-6.2,5.1-8.9,8c-0.3,0.4-0.5,0.9-0.7,1.4c-2.2,5.3-4.2,10.7-4.8,16.5
	c-1.1,10.4-2.1,20.7-3.1,31.1c-1.1,12.4-2.1,24.8-3.3,37.1c-0.7,6.7-1.5,13.3-2.5,19.9c-0.8,5.7-1.9,11.4-2.9,17.2
	c-0.1,0.8,0,1.7,0,2.8c1-0.5,1.5-0.7,2.1-1c1.3-0.7,2.6-1.5,4-2.1c2.2-0.9,4.4-0.8,6.4,0.5c1.2,0.8,1,1.8-0.3,2.3
	c-0.9,0.4-1.9,0.6-2.8,0.9c0.2-0.6,0.6-0.8,0.9-1.1c0.4-0.3,0.7-0.6,1.2-1.1c-2.6-1.1-4.7-0.7-6.7,0.8c-0.1,4.5,1.8,24.6,2.5,26.4
	C213.5,369.5,215.2,368,217.7,368.1z M286.7,561.5c0.5,3.4,1.1,6.6,1.4,9.8c0.4,4.3,0.6,8.6,0.7,12.9c0.1,1.8,0,3.6-0.1,5.4
	c-0.3,4.6-1.5,9.1-2.7,13.6c-2.1,7.6-3,15.3-3.5,23.1c-0.5,6.9-0.4,13.9,0.4,20.8c1.3,10.8,1.2,21.5,0.3,32.3
	c-0.1,1.5-0.3,3.1-0.5,4.7c5.4,1.8,10.7,3,16.4,1.4c0.2-0.4,0.4-0.9,0.6-1.5c2.2-8.3,4.7-16.5,6.6-24.8c3.1-13.6,5.7-27.3,8.6-40.9
	c1.4-6.7,2.1-13.3,1.8-20.2c-0.3-7.3-0.5-14.6-0.4-21.9c0.1-4.9,0.7-9.8,1-14.7c0-0.4,0-0.9,0-1.5c-1-0.1-2-0.3-2.9-0.2
	c-3.5,0.4-6.9,1-10,2.8c-2.4,1.4-4.9,1.5-7.5,0.3c-1-0.4-1.9-0.9-2.9-1.3C291.6,560.8,289.1,560.7,286.7,561.5z M279.9,82.9
	c0.2,0.1,0.3,0.3,0.5,0.4c-4.8,5-8.1,11-11.8,16.8c-6,9.5-11,19.4-14.3,30.2c-2.6,8.4-3.9,16.9-3,26c3.7-6.3,6.1-12.9,8.8-19.6
	c-0.7,0-1.3,0-1.9,0c1.3-1.2,2.7-2.1,3.6-3.4c1.8-2.4,3.5-4.8,4.8-7.5c3.5-7.1,6.8-14.3,10.1-21.4c0.2-0.4,0.5-0.8,0.7-1.2
	c-1.3,5-3.1,9.8-5.2,14.4c-2.1,4.7-4.4,9.3-6.9,14.4c4-2.1,7.7-3.9,11.2-6c6.4-3.8,12.4-8,16.7-14.2c0.2-0.2,0.4-0.5,0.6-0.6
	c1.2-0.3,1.5-1.3,1.8-2.4c0.8-2.9,1.7-5.7,2.5-8.6c0.1-0.5,0.4-0.9,0.6-1.3c0.1,0,0.3,0.1,0.4,0.1c-1.1,6.7-3.3,13.1-4.9,20.2
	c2.5-3,4.9-5.5,6.9-8.3c2.1-2.9,4-5.9,5.6-9.1c1.5-3.1,2.6-6.4,3.9-9.7c0.4,2.2,0.8,4.1,1.2,6c0.1,0.7,0.3,1.3,0.3,2
	c0.2,2.7,0.4,5.3,0.6,8c1.4-4.9,1.5-10,2.4-15c0.3,0.4,0.4,0.7,0.4,1.1c0.1,3.8-0.8,7.7,0.6,11.4c0,0.1,0,0.1,0,0.2
	c0,4.6,1.2,8.8,3.4,12.8c0.2,0.4,0.5,0.7,1,1.3c0.3-3.3,0.6-6.1,0.8-9c0.4-4.2,0.8-8.5,1.1-12.7c0.4-5.3-1.6-10-5-13.9
	c-1.5-1.7-3.1-3.4-5.7-3.6c0.1-0.5,0.2-0.9,0.3-1.3c0.7-2.2,0.4-4.3-0.9-6.2c-2.1-3.2-4.9-5.7-8.5-7c-11.4-4-22.5-3.6-33.3,2
	c-2.4,1.3-4.5,2.9-6.4,4.9c-3.1,3.4-5.4,7.3-7.4,11.4c-3.4,7.1-4.6,14.8-4.7,22.6c-0.1,4.8-1,9.3-2.9,13.7c-0.1,0.3-0.2,0.7-0.2,1.1
	c5.3-5.5,8.8-12.1,12.2-18.8c0.1,0.3,0.2,0.7,0.1,0.9c-2.1,5.2-4.4,10.3-7.4,15c-0.5,0.8-0.7,1.8-0.8,2.7c-0.2,1.8-0.3,3.6-0.3,5.4
	c0,1.9,0,3.9,0,6.2c0.8-2.4,1.5-4.4,2.2-6.4c3.2-9.4,8-18.1,13.2-26.6c3.2-5.2,6.6-10.3,10.5-15C278.3,84.3,279.1,83.6,279.9,82.9z
	 M319.4,399.6c0.1,0.7,0.1,1,0.2,1.4c2.3,10.5,4.8,21.1,7,31.6c5.6,26.8,12.3,53.2,20.1,79.4c3.3,11.1,5.4,22.4,6.4,34
	c0.2,2.4,0.4,4.9,0.6,7.4c1.7,0.3,2.9-0.6,4.1-1.4c1.1-0.7,2.3-1.5,3.5-1.8c1.8-0.4,3.6-1,5.1-2c1.4-1,2.7-2,4.1-3.1
	c-0.2-2-0.4-3.9-0.5-5.8c-0.4-5.9-0.6-11.8-1.3-17.6c-0.9-7.2-1.9-14.5-3.5-21.6c-2.3-10.4-5.2-20.8-7.9-31.1
	c-1.9-7.2-3.8-14.4-5.8-21.6c-2-7-4-14-4.9-21.3c-0.5-4.1-0.9-8.1-1.6-12.2c-0.8-4.9-1.9-9.8-1.9-14.8c0-1.2-0.2-2.3-0.4-3.7
	C335,397.7,327.3,398.9,319.4,399.6z M351.1,247.4c-0.1-0.1-0.2-0.1-0.3-0.2c-0.6,0.6-1.2,1.2-1.7,1.9c-2.5,3.9-5.3,7.6-7.4,11.7
	c-3.3,6.6-6.1,13.4-9.1,20.1c-0.2,0.4-0.3,0.9-0.2,1.3c0.2,4.8,0.3,9.5,0.7,14.3c0.6,7.9,1.4,15.9,2.1,23.8c0.6,6.5,1.3,13,1.9,19.6
	c0.1,1.3,0.6,2.4,1.5,3.4c2.3,2.5,4.1,5.3,5.5,8.4c2.2,4.8,3.8,9.7,4.8,14.8c0.3,1.3,0.7,2.5,1.5,3.6c3.7-0.8,7.3-0.4,10.8,0.5
	c0.1-3.8,0.2-7.3,0.4-10.9c0.4-6.2,0.8-12.5,1.3-18.7c0.4-5.4,1-10.8,1.3-16.2c0.3-6.2,0.3-12.4,0.4-18.5c0.1-4.4,0.3-8.8-0.1-13.2
	c-0.6-6.7-1.5-13.3-2.3-20c-1.1-9.2-2-18.5-2.1-27.8c0-1.4-0.4-2.7-0.6-4.1c-2,0.6-3.7,1.1-5.3,1.5c0.3,2.2-4,12.4-6.3,14.7
	C348.9,253.8,350,250.6,351.1,247.4z M269.5,132c-1.4,0.7-2.7,1.6-4.2,2c-3,0.8-4.4,2.7-5.2,5.7c-0.4,1.7-0.5,3.2-0.3,4.8
	c0.4,2.6,0.9,5.1,1.4,7.7c0.6,3.3,1.3,6.6,3.2,9.5c1.5,2.4,2.9,4.8,4.5,7.2c2.8,4,6.5,7.2,10.9,9c5.2,2.2,10.6,1.6,15.1-2.3
	c2.6-2.3,5.1-4.8,7.6-7.2c3.9-3.7,5.8-8.3,6.7-13.5c1.2-6.8,2.2-13.7,5-20.1c1.4-3.3,1.6-6.7,0.9-10.2c-0.4-1.9-0.8-3.8-1.3-5.7
	c-0.3-1.3-0.5-2.5-0.8-3.8c0.2,0,0.4-0.1,0.5-0.1c2,3.9,2.5,8.2,3.7,12.4c0.6-1.5,1-2.9,1.4-4.3c0.4-1.3,0.2-2.4-0.4-3.6
	c-1.7-3.6-2.9-7.3-3-11.3c0-0.3-0.2-0.6-0.3-0.9c-0.8,2-1.1,3.9-1.6,5.8c-0.7,2.4-1.7,4.2-2.8,5.1c1.5-7,0.8-14,0-21.1
	c-1.3,2.5-2.3,5.1-3.6,7.6c-1.3,2.5-2.8,4.9-4.4,7.2c-1.7,2.3-3.6,4.4-5.5,6.5c-1.9,2-3.9,3.8-5.9,5.7c-0.2-0.1-0.3-0.2-0.5-0.3
	c1.3-3.2,3.1-6.2,3.6-10.1c-0.9,0.7-1.6,1.1-2,1.7c-2.8,3.7-6.3,6.6-9.9,9.3c-0.1,0.1-0.1,0.3-0.2,0.3c0.4,0.4,0.7,0.9,1.1,1.3
	c-1.9,1-3.6,1.7-5.7,1.7c-0.7,0-1.5,0.2-1.7,1.1c1.2,0.2,2.3,0.3,3.8,0.6c-1.9,1-1.9,1-2.9,2.8c-1.2,2.2-3.3,2.8-5.5,2.2
	C270,133.9,270.6,132.6,269.5,132z M305.6,183.6c-0.2,0.3-0.2,0.4-0.2,0.4c0,0.2,0.1,0.4,0.1,0.6c1.6,4.7,1.3,9.4-0.1,14.1
	c-3.3,10.8-7.9,20.9-15.4,29.5c-3.5,4.1-6.6,8.5-8.7,13.5c-2.7,6.3-10.3,19.7-14.3,25.6c-0.1,0.2-0.1,0.4-0.3,0.9
	c0.7-0.4,1.1-0.6,1.5-0.8c5.4-3,10.7-6.2,16.3-8.9c5.3-2.5,10.9-4.5,16.4-6.6c6.5-2.5,13-4.9,19.5-7.3c2.4-0.9,3-2.4,1.3-4.3
	c-2.1-2.4-4.2-4.8-6.6-7c-3.6-3.4-7.4-6.5-11.1-9.8c-1-0.9-1.9-1.8-3.4-2c-0.9-0.1-1.3-0.9-0.9-1.6c0.4-0.7,0.9-0.5,1.5-0.4
	c1.6,0.4,3.1,0.9,4.7,1.2c7.3,1.3,14.6,2.8,21.5,5.7c2.3,1,4.7,1.8,7.2,2.8c0-0.8,0.1-1.4,0-1.9c-0.5-2.3-1.1-4.6-1.7-6.9
	c-1.4-4.8-3-9.5-4.3-14.3c-0.4-1.3-0.9-2.2-2.1-2.9c-3.6-2.1-6.9-4.6-9.7-7.8c-2.1-2.4-4.1-4.7-6.3-7
	C309,186.7,307.3,185.2,305.6,183.6z M260,202.2c0.3,3.6,1,7.4,2.7,10.8c2.9,6,5.9,11.8,9,17.7c2.4,4.6,4.8,9.1,5.5,14.3
	c0,0.3,0.2,0.5,0.4,1.2c0.7-1.5,1.4-2.6,1.9-3.8c2.1-5.4,5.2-10.2,9-14.6c7.3-8.2,11.8-17.8,15.2-28.1c0.4-1.3,0.7-2.6,1.1-3.9
	c-1.6-0.6-1.5-2.1-1.9-3.2c-2.3-5.7-3.2-11.6-3.1-17.7c0-0.5,0-0.9,0-1.8c-1.7,1.5-3.1,2.8-4.6,4.1c-1.5,1.3-3.2,2.1-5.2,2.5
	c-3.4,0.7-6.8,1.6-10.1-0.5c-0.1,0-0.1,0-0.2-0.1c-1-0.5-2.2-0.9-3.1-1.6c-1.9-1.3-3.8-2.8-5.8-4.3c0.1,1.4,0.3,2.6,0.3,3.7
	c0,1.3-0.3,2.7-0.3,4c0,2.8-0.3,5.6-1,8.4c-1.1,4.5-3.6,7.9-7,10.8C261.9,200.9,261.1,201.5,260,202.2z M279.6,686.1
	c-0.2,0.8-0.4,1.5-0.5,2.1c-1.1,6.8-2,13.5-3.2,20.3c-0.5,2.8-0.6,5.4-0.2,8.2c0.4,2.9,0.6,5.8,0.5,8.7c-0.2,3.4-1,6.8-1.3,10.2
	c-0.5,4-0.9,8-1.1,12c-0.2,3.8,1.6,6,5.4,6.6c1.5,0.3,3.1,0.4,4.6,0.7c1.5,0.3,2.9,0.2,4.4-0.3c1.8-0.6,3.5-1.1,5.3-1.7
	c1.8-0.5,3.6-0.9,5.4-1.5c0.7-0.2,1.5-0.6,1.8-1.1c0.8-1.5,1.4-3.1,1-4.9c-1.1-5.7-2.1-11.4-3.4-17.1c-1.1-4.9-1.4-10-4.1-14.5
	c-0.5-0.8-0.4-1.7,0.1-2.5c0.4-0.6,0.8-1.3,1.2-1.9c1.3-1.6,1.9-3.3,1.9-5.3c0-1.5,0-3-0.1-4.5c-0.2-3-0.4-6,0.4-9
	c0.1-0.4,0-0.9,0-1.4c-3.4-0.2-6.7-0.4-10-0.6C284.9,688.4,282.1,688.2,279.6,686.1z M260.4,569.9c-0.5,1.2-0.9,2.1-1.3,3
	c-2.3,5-2.5,10-0.5,15.2c3.2,8.3,6.2,16.6,9.3,24.9c0.6,1.7,1.3,3.4,1.9,5.2c1.1,3.8,2.1,7.6,3.2,11.6c1.9,0,3.4-0.9,4.5-2.4
	c1.5-2.1,2.7-4.3,4-6.4c0.3-0.5,0.4-1.1,0.4-1.7c0.8-6.5,2-12.9,3.8-19.3c1.4-4.7,2.1-9.6,2-14.6c-0.1-2-0.2-4-0.3-6
	c-0.3-4.9-0.7-9.8-1-14.7c-0.1-0.7-0.3-1.5-0.5-2c-1.7,0.5-3.1,0.9-4.5,1.3c-0.8-1.7-1.6-3.3-2.5-5.1c-1.9-0.3-4,0.1-6.1,0.9
	c-4,1.6-8.1,2.1-12.3,1.1c-0.3-0.1-0.7-0.1-1.3-0.1c-0.1,4.4,3,7.8,3.5,12C261,572.3,261.2,571,260.4,569.9z M256.7,214.8
	c-0.5,1-0.7,1.6-1.1,2.1c-2,2.4-4.2,4.7-6.2,7.1c-2.3,2.8-4.5,5.6-6.6,8.4c-1.9,2.6-3.2,5.4-4.2,8.4c13.3,2.8,23,10.3,29.8,21.9
	c0.4-0.6,0.8-1.1,1.1-1.7c1.9-3.2,3.6-6.5,5.6-9.7c1-1.6,1.8-3.2,0.7-5.1c-0.1-0.2-0.1-0.4-0.1-0.7c-0.4-3.3-1.4-6.4-3-9.3
	c-2.1-4-4.3-7.9-6.2-11.9c-2.1-4.4-4.4-8.8-6-13.4c-2.6-7.5-3.2-15.1,0.4-22.6c0,0,0-0.1-0.2-0.4c-1,0.9-1.9,1.7-2.8,2.5
	c-1.2,1.2-2.3,2.5-3.5,3.8c-5.2,5.8-11.1,10.8-18.6,13.5c-1.5,0.5-2.5,1.5-3,3c-1.3,3.9-2.6,7.8-5.1,11.5c2.9-0.4,5.1-1.5,7.4-2.2
	c2.3-0.7,4.6-1.3,6.9-1.9c2.4-0.6,4.7-1.3,7.1-1.8C251.3,215.8,253.6,214.7,256.7,214.8z M344.7,405.9c0.1,0.7,0.2,1.5,0.3,2.3
	c0.7,4.6,1.4,9.3,2.2,13.9c0.8,4.6,1.4,9.3,2.5,13.8c2.9,11.4,6.1,22.7,9.2,34c0.1,0.4,0.3,0.7,0.4,1.1c1.2-0.2,1.8-0.8,2.2-2
	c1.2-3.3,1.7-6.8,2-10.3c0.2-2.4,0.7-5,0.3-7.3c-2.1-11.4-3.1-23-4.3-34.5c-0.5-4.8-0.9-9.6-1.4-14.4c-0.1-1.4-0.4-2.7-0.6-4.1
	c-2.2,1.5-4.1,2.9-6.1,4.1C349.4,403.8,347.2,404.7,344.7,405.9z M227.4,357.2c-1.5,6.2-2.9,12.1-4.4,18.1
	c8.3,1.6,16.4,2.7,24.9,1.7c1.7-6.4,2.1-13.1,3-19.8C243.1,357.2,235.3,357.2,227.4,357.2z M264,400.8c2.8-0.5,5-1.1,7.3-1.2
	c5.8-0.4,11.6-0.6,17.4-0.8c8.9-0.2,17.9-0.3,26.8-0.6c8.6-0.3,17.2-1.3,25.5-3.7c6.1-1.8,12-4.2,18.8-4.5c-0.7-1.1-0.8-2.4-2.3-2.3
	c-4.7,0.3-9.4,0.5-14,1c-4.8,0.5-9.6,1.4-14.4,2c-5.2,0.7-10.5,1.3-15.7,2c-9.4,1.3-18.8,1.9-28.2,2.3c-6.4,0.3-12.8,0.1-19.2,0.2
	c-0.6,0-1.2,0.1-1.9,0.1c0,1,0,1.9,0,2.7C264,399,264,399.8,264,400.8z M279.2,329.4c0.2-6.6-0.8-12.9-1.5-19.4
	c-1.8,0.1-3.4,0-4.9,0.3c-4.8,0.9-9.6,0.8-14.5,0.5c-0.8,0-1.3,0.1-1.7,0.7c-2.2,3.1-4.5,6.1-6.8,9.2c2.3,3.8,4.7,7.4,7.5,10.7
	C264.5,328.4,271.7,329.1,279.2,329.4z M218.1,460.3c0.3-1.1,0.5-1.7,0.6-2.3c3.3-14.7,6.7-29.4,10-44.1c0.1-0.6,0.4-1.2,0.3-1.7
	c-0.6-2.2,0.1-4.3,0.1-6.4c0-0.8,0-1.6,0-2.6c-3.7-1.1-7.4-2.1-11.3-3.2c-0.1,0.6-0.1,1.1-0.1,1.5c0.4,6.3,1,12.6,1.3,18.9
	c0.2,3.8,0.6,7.7-0.6,11.5c-1.5,4.7-2.5,9.5-3.9,14.2c-0.8,2.8-0.8,5.4,0.4,8c0.4,1,0.7,2,1.2,2.9
	C216.6,458,217.2,458.9,218.1,460.3z M272,632c0.1,0.7,0.1,1.3,0.2,1.8c1.1,7.2,1.6,14.5,1,21.8c-0.5,6.4,0.7,12.4,3.8,18
	c1.2,2.3,2.2,4.7,3.3,7.1c0.2,0.4,0.4,0.7,0.7,1.2c1.1-1.3,1.1-2.8,1.2-4.1c0.1-5.7,0.2-11.5,0.1-17.2c-0.1-3.5-0.5-7-0.8-10.5
	c-0.5-6.1-1.2-12.1-0.8-18.3c0-0.3-0.1-0.6-0.2-1.1C277.7,632.1,275.3,634.3,272,632z M335.1,339.3c-1.2-14.9-2.4-29.2-3.5-43.5
	c-0.2,0-0.3,0-0.5,0c0,1.1,0.1,2.2,0,3.2c-0.2,3.7-0.1,7.4-1.4,11c-1.6,4.6-2.8,9.2-4.1,13.9c-0.2,0.6-0.3,1.2-0.2,1.7
	c0.6,2.9,1.2,5.6,3.7,7.6c1.6,1.2,2.8,2.9,4.2,4.3C333.8,338,334.3,338.4,335.1,339.3z M238.9,287.1c-0.2,0-0.4,0-0.6,0
	c0.6,15.7,1.2,31.5-0.1,47.2c4.1-5,6.5-10.5,6.1-17c-0.3-5.6-1.3-11.1-2.4-16.5C240.9,296.2,239.9,291.7,238.9,287.1z M262.6,392.9
	c0.7-20.7,1.5-41.1,2.2-61.6c-2,0-2,0-2.1,1.7c-0.1,3.1-0.1,6.1-0.3,9.2c-0.5,8.2-1,16.5-1.6,24.7c-0.3,4.7-0.8,9.3-1.2,14
	c-0.2,3.1-0.4,6.2-0.6,9.4c-0.1,1.7,0.3,2.1,1.9,2.5C261.5,392.8,261.9,392.8,262.6,392.9z M352.2,243.1c-0.5,0.1-0.8,0.2-1.1,0.3
	c-3.2,1.1-6.5,2.2-9.7,3.2c-1.3,0.4-2,1.1-2.4,2.5c-1.4,5.4-3,10.7-4.3,16.1c-0.9,3.5-1.5,7.1-2.2,10.7c0.5-0.2,0.7-0.5,0.8-0.9
	c1.8-4,3.3-8.1,5.4-12c3.6-6.9,7.3-13.6,13-19.1C351.8,243.8,352,243.5,352.2,243.1z M257.4,393c-0.7,0-1.3-0.1-1.9,0
	c-3,0.5-5.9,0.3-8.9-0.1c-4-0.5-8-1-12-1.4c-6.1-0.6-12.3-1.1-18.4-1.8c-2.5-0.3-5-0.7-7.6-0.4c-0.2,0.7-0.3,1.3-0.5,2
	c2.2,0.1,4.2,0.1,6.2,0.3c4.7,0.6,9.3,1.3,13.9,1.9c9.3,1.2,18.7,2,28.1,1.9c0.8,0,1.6-0.1,2.5-0.1
	C258.2,394.4,257.8,393.7,257.4,393z M360.3,391.9c-5.9-0.9-10.9,1.9-16.5,3.1c0.5,3.1,0,6.2,0.7,9.3
	C351.2,401.6,356.9,398.3,360.3,391.9z M208.1,393.1c3.2,2.7,6.6,4.3,10.2,5.5c4.4,1.4,8.8,2.3,13.3,3.5c0.7-2,1.3-3.9,2-5.9
	C230.5,395,211,392.6,208.1,393.1z M260.7,271.2c1.8,0.1,1.8,0.1,2.4-0.8c1.1-1.6,2.2-3.2,3.4-4.7c0.6-0.8,0.7-1.4,0.2-2.2
	c-1.6-2.6-3.1-5.3-5-7.6c-1.8-2.2-4-4.1-6.8-5.9C256.9,257.2,258.8,264.1,260.7,271.2z M302.8,753.7c-3.6,2.6-7.4,4.1-11.4,5.1
	c-6.5,1.8-12.2,0.2-17-4.6c-0.4-0.4-0.9-0.8-1.6-1.5c0,1.6-0.1,2.7,0,3.9c0,0.4,0.4,1,0.7,1.2c2.4,1.7,4.8,3.3,7.1,5
	c2,1.4,4.1,1.7,6.3,0.8c2.9-1.1,5.9-2.1,8.8-3.3c1.6-0.7,3.2-1.6,4.7-2.6C301.8,757,302.8,755.9,302.8,753.7z M320.3,247.1
	c-0.1-0.3-0.3-0.6-0.4-0.9c-17.6,6.4-35.3,12.5-51.1,23.1c0.4-0.1,0.8-0.2,1.2-0.4c5.9-2.6,11.8-5.3,17.8-7.7
	c10.4-4.2,20.8-8.1,30.8-13.2C319.1,247.8,319.7,247.4,320.3,247.1z M310.8,152.8c0.1,0,0.2,0,0.4,0c1.3-1.4,2.5-2.9,3.9-4.2
	c1.8-1.6,3-3.5,3.6-5.8c0.6-2.3,1-4.6,1.4-7c0.1-0.8-0.1-1.8-0.2-2.6c-0.2-0.8-0.7-1.2-1.6-1.2c-1.8,0.1-2.8,0.9-3.3,2.7
	c-0.7,2.6-1.5,5.1-2.1,7.7C312.1,146,311.5,149.4,310.8,152.8z M260,200.4c6.2-2.8,9.8-11.1,9-17.1
	C262.4,185.9,259.4,191.6,260,200.4z M359.4,371.8c-2.7-0.9-5.3-1.7-8.3-0.7c2.1,3.5,3.7,7,7.3,9.4
	C358.7,377.5,359.1,374.8,359.4,371.8z M279.3,755.9c-0.1,0.1-0.1,0.3-0.2,0.4c2,1.3,4.3,1.9,6.7,2c4.5,0.2,8.6-1.5,12.6-3.4
	c1.4-0.7,2.7-1.6,3.9-2.5c1.2-0.9,1.1-0.9,0.1-2.6c-0.4,2.1-2,2.4-3.6,2.9c-3.8,1.2-7.6,2.5-11.4,3.8c-1.7,0.6-3.4,0.9-5.2,0.3
	C281.3,756.5,280.3,756.2,279.3,755.9z M260.6,288.3c0.8,7.3,1.5,14.2,2.2,21.3c0.6,0,1.2,0,2.1,0c-1-7.2-1.9-14.3-2.8-21.5
	C261.4,288.1,261,288.2,260.6,288.3z M253.5,355.2c0-1.3-0.6-1.5-1.7-1.5c-6.2,0.1-12.3,0.2-18.5,0.3c-1.5,0-3,0.1-4.4,0.3
	c-1.1,0.1-1.6,0.6-1.2,1.8c2.7-0.2,5.3-0.4,7.8-0.5c4.6-0.1,9.2-0.1,13.8-0.1c1,0,1.9,0,2.2-1.2
	C252.2,354.7,252.3,355.8,253.5,355.2z M358.8,239.6c-0.3-0.3-0.5-0.7-0.7-0.7c-0.3-0.1-0.7,0-1.1,0.1c-5.3,1.6-10.6,3.3-15.9,5
	c-1,0.3-1.1,1-1,2C346.3,243.7,352.3,241.2,358.8,239.6z M259.3,271.6c-1.7-7.9-3.7-15.6-6.7-23.1c-0.1,0.3-0.1,0.6,0,0.9
	c1.3,5.3,2.7,10.5,4,15.8c0.5,1.9,0.9,3.9,1.4,5.9C258.2,271.5,258.3,272.1,259.3,271.6z M303.7,187.1c-0.3-1.9-0.2-3.8-2.3-5.2
	c0.7,4.1,1.9,7.6,3.5,11c0.7-2,0.3-4,0-6C304.3,187,304.1,187.1,303.7,187.1z M217.1,369.5c-2.5,0.9-4.4,1.8-5.7,4
	c1.4,0.3,2.6,0.5,3.7,0.7C215.8,372.7,216.3,371.3,217.1,369.5z M262,276c-0.1-1.1-0.2-2.2-0.3-3.1c-1.1,0-2,0-2.9,0
	c0,1.1,0,2.1,0,3.1C259.9,276,260.9,276,262,276z M258.7,277.5c0.1,1.2,0.2,2.4,0.4,3.5c0.9-0.1,1.7-0.2,2.6-0.3
	c0.1-1.1,0.2-2.1,0.3-3.2C260.8,277.5,259.9,277.5,258.7,277.5z M274.5,631.6c2.6,0.2,4.2-2,6.4-2.8c0-0.9,0-1.7,0-2.7
	C278.8,628.3,277,630.4,274.5,631.6z M280.8,685c2.5,2.7,5.9,1.9,9,2.4C286.8,686.9,284,685.2,280.8,685z M261.5,284.6
	c-0.9-0.2-1.5-0.3-2.3-0.4c0,0.9,0,1.5,0,2.2c0.7,0.2,1.3,0.3,2,0.5C261.3,286.1,261.4,285.5,261.5,284.6z M360.1,375.2
	c0.2,0.1,0.3,0.2,0.5,0.2c0.5-0.8,1-1.5,1.6-2.4c-0.7-0.3-1.2-0.5-1.9-0.9C360.3,373.4,360.2,374.3,360.1,375.2z M271.7,131.4
	c-0.2,1.2,0.3,1.6,1.3,1.6c1-0.1,1.3-0.7,1.1-1.7C273.2,131.3,272.4,131.3,271.7,131.4z M262,283.1c-1-1.3-1.9-1.1-2.9-1
	C259.5,283.8,260.6,283.1,262,283.1z M224.9,356.1c2-0.2,2.1-0.4,1.2-1.9C225.7,354.8,225.4,355.3,224.9,356.1z M231.2,403.5
	c-0.2,0-0.5,0-0.7,0c0,0.7,0,1.4,0,2.1c0.1,0,0.2,0,0.3,0C230.9,404.9,231.1,404.2,231.2,403.5z M279.5,310.1c-0.2,0-0.3,0-0.5,0
	c0.1,0.5,0.2,1,0.3,1.5c0.1,0,0.1,0,0.2,0C279.5,311.1,279.5,310.6,279.5,310.1z M298.1,687.5c0-0.1,0-0.3,0-0.4
	c-0.7,0-1.5,0.1-2.2,0.1c0.6,0.3,1.1,0.4,1.7,0.5C297.7,687.7,297.9,687.6,298.1,687.5z M263.1,273.3c0.6-0.5,0.9-0.7,1.4-1.1
	C263.6,272,263,271.8,263.1,273.3z"/>
<path class="st0" d="M300.6,453.6c0,2-0.1,4,0,6c0.5,8.5,1.4,17.1,1.6,25.6c0.4,11.9,0.8,23.8,0.4,35.7c-0.4,11.7-1.6,23.5-2.6,35.2
	c-0.1,1.8-0.5,3.7-0.8,5.8c-0.9-0.3-1.7-0.5-2.4-0.8c-5.4-2.2-6.3-2.3-11.8-1c0.3-4.3,0.5-8.6,0.9-12.9c0.5-5.6,1.1-11.3,1.6-16.9
	c1-9.3,2.1-18.5,3-27.8c0.6-6.3,1.1-12.6,1.5-18.9c0.4-7.2,0.7-14.4,0.8-21.7c0.2-7.6,0.1-15.2,0.1-22.8c0-4.5,0.2-9.1,0.3-13.6
	c0.1-6,0.1-12.1,0.2-18.1c0-1.5,0.1-3.1,0.2-4.6c-0.2,0-0.3-0.1-0.5-0.1c-0.1,0.4-0.3,0.8-0.4,1.2c-0.3,9.5-0.6,18.9-0.9,28.4
	c-0.4,13.5-0.7,27-1.2,40.4c-0.2,6.5-0.6,13.1-1.1,19.6c-0.5,6.7-1.3,13.3-1.9,20c-0.8,8.1-1.7,16.3-2.5,24.4
	c-0.6,5.7-1.1,11.4-1.5,17.1c-0.2,2.5,0,5,0,7.7c-0.5,0-1.1,0-1.5,0c-0.1-0.3-0.3-0.4-0.3-0.5c0.4-5-0.1-10-0.7-14.9
	c-1-7.7-1.9-15.4-3-23c-1.1-7.7-2.6-15.3-3.8-22.9c-0.9-6.1-1.8-12.2-2.5-18.4c-1-9.1-1.8-18.2-2.6-27.3c-0.4-4.3-0.5-8.6-0.7-12.9
	c-0.3-7.4-0.6-14.7-0.9-22.1c-0.2-5.3-0.7-10.5,0.4-15.9c-1.2,0.5-1.1,1.4-1.2,2.2c-0.7,6.3-0.5,12.6-0.3,19
	c0.2,6,0.5,12.1,0.8,18.1c0.5,7.7,1,15.3,1.6,22.9c0.5,6.1,1,12.2,1.9,18.2c1.3,9.5,2.8,19,4.3,28.5c1.1,7.5,2.4,15,3.3,22.5
	c0.8,6.6,1.3,13.3,1.9,20c0.1,0.7,0,1.3,0,2.1c-3.7-0.3-7.2,0.5-10.6,1.9c-3,1.2-6,0.9-9,0.6c-2.4-0.3-4-1.8-5.5-3.5
	c-0.3-0.4-0.3-1.1-0.3-1.7c0.6-7.3,1.1-14.7,1.8-22c0.9-11.4,0.9-22.8,0.7-34.2c-0.2-8-0.7-16.1-1.3-24.1
	c-0.6-8.2-1.5-16.5-2.4-24.7c-1.1-10-2.3-20-3.4-30c-0.6-5.6-0.9-11.3-1.4-16.9c-0.1-1,0-2.1,0-3.3c-1,1-0.9,2.1-0.8,3.2
	c0.2,4.8,0.2,9.5,0.7,14.3c0.6,6.5,1.4,13,2.1,19.5c1,9.4,2.1,18.8,3,28.2c0.8,8.8,1.5,17.7,1.9,26.5c0.4,9.8,0.5,19.7,0.4,29.5
	c-0.1,6.2-0.7,12.3-1.1,18.5c-0.3,4.5-0.7,9.1-1.1,13.6c-0.2,1.7-0.5,3.4-0.7,5.1c-0.2,2.1-1.7,3.2-3.4,3.7
	c-3.1,0.9-6.3,0.9-9.5,0.3c-0.9-0.2-1.7-0.6-1.8-1.7c0-0.3-0.1-0.7-0.3-0.8c-1.7-1.2-1.1-2.9-0.9-4.5c0.6-5.5,1.3-10.9,1.9-16.4
	c1.2-9.9,1.7-19.9,1.9-29.9c0.1-10.3,0-20.6,0.2-30.8c0.2-7.5,0.8-15,1.2-22.5c0.1-2.6,0.2-5.2,0.2-7.8c0-4.5,0-9.1,0-13.6
	c0.1-10.9,0.2-21.8,0.4-32.6c0-1,0-2-0.2-3c-0.9,0.8-0.8,1.8-0.9,2.8c-0.1,3.9-0.3,7.9-0.3,11.8c-0.1,8.2-0.1,16.4-0.2,24.6
	c-0.1,6.4-0.1,12.8-0.4,19.2c-0.2,6.2-0.9,12.3-1.1,18.5c-0.2,10.1-0.2,20.1-0.1,30.2c0.1,8.2-0.4,16.4-1.2,24.5
	c-1,9.3-2.1,18.6-3.1,28c-0.1,1-0.5,1.6-1.3,2.1c-2,1.4-4.3,1.8-6.6,1.3c-2.5-0.5-5-1.4-7.6-2.2c0.1-2.1,0.1-3.9,0.3-5.8
	c0.5-6,1.2-12,1.7-18c1.5-18.6,3-37.1,6.5-55.4c1.8-9.4,3.6-18.7,5.4-28.1c0.1-0.5,0-1-0.2-1.5c-0.2,0.5-0.4,0.9-0.5,1.4
	c-1.9,8.8-3.9,17.6-5.6,26.4c-1.5,8.4-2.9,16.9-3.9,25.4c-1.2,9.9-1.8,19.9-2.8,29.8c-0.7,7.1-1.4,14.2-2.1,21.3
	c-0.1,0.7-0.2,1.3-0.4,2.3c-1.2-1.1-2-0.7-2.9,0.1c-1.6,1.4-3.5,2.1-5.7,2.1c-3.6,0-7.3,0-11.3,0c0.3-1.3,0.4-2.2,0.7-3.1
	c4.6-13,7.7-26.4,10.5-39.9c1.7-8.5,3.2-17.1,4.8-25.7c0.4-2,0.5-4,0.3-6.1c-0.2,0.4-0.5,0.7-0.5,1.1c-2.1,10.6-4.1,21.2-6.3,31.8
	c-1.8,8.5-3.8,17-5.9,25.5c-1,4-2.4,8-3.7,12.1c-2.2-1-4.1-1.9-6.1-2.8c0.2-0.8,0.4-1.4,0.6-2c7.6-21.2,14.4-42.6,20.6-64.2
	c2.4-8.6,4-17.4,6-26.1c3.1-14,6.1-27.9,9.3-41.9c1.5-6.7,3.5-13.2,5.2-19.9c0.1-0.4,0.3-0.8,0.6-1.5c2.2,0.2,4.3,0.4,6.5,0.5
	c4.8,0.2,9.5,0.4,14.3,0.5c1.7,0,3.6,0,4.8-1.8c0.2-0.4,1.1-0.3,2-0.6c0,2.8,0,5.2,0,7.8c1.6-0.3,2.8-0.7,4.1-0.9c2-0.3,4-0.6,6-0.7
	c14-0.5,28-0.9,42-1.3c1,0,2.1,0,3.3,0c0.6,2.6,1.2,5.2,1.7,7.7c3.7,17.1,7.2,34.2,11.2,51.3c3.3,14.1,7.1,28.2,10.9,42.2
	c3.4,12.4,6.7,24.7,8.5,37.4c0.6,4,0.8,8,1.2,12c0.1,0.8,0.1,1.6,0.2,2.6c-0.3,0-0.7,0.2-1,0.2c-5.8-0.2-11.4,1.1-16.9,2.8
	c-1.5,0.4-2.9,1-4.1,2.2c-1,0.9-2.5,1.1-4,0.9c0.6-5.3-0.3-10.5-0.7-15.6c-0.4-5.4-0.9-10.8-1.6-16.2c-1-8.2-2.2-16.4-3.4-24.6
	c-1.5-10.3-3.1-20.6-4.7-30.9c-1.4-8.9-2.9-17.8-4.2-26.7c-1.2-8.1-2.5-16.2-2.6-24.4c-0.1-5.2-0.2-10.4-0.2-15.6
	c0-1.2,0.3-2.4,0.5-3.8c-1,0.3-1,1-1.1,1.6c-0.3,3.7-0.7,7.4-0.7,11.1c0,4.8,0.2,9.7,0.7,14.5c0.9,9,2,18,3.3,27
	c2.1,14.2,4.4,28.4,6.5,42.6c1.3,8.6,2.6,17.2,3.7,25.9c0.6,4.6,1,9.2,1.5,13.8c0.5,4.7,0.9,9.5,1.3,14.2c0.2,2.3,0,4.6,0,7.2
	c-1.4-0.1-2.8-0.2-4.1-0.4c-5.8-0.8-11.4-0.2-16.7,2.6c-0.6,0.3-1.3,0.5-2.1,0.8c0-0.9-0.1-1.4,0-2c0.5-5.1,1.2-10.2,1.6-15.3
	c0.5-6.4,0.9-12.8,1.3-19.2c0.6-9.3,0.3-18.6-0.3-27.9c-0.4-5.9-0.3-11.9-0.7-17.9c-0.3-5.4-1-10.8-1.5-16.2
	c-0.2-2.8-0.4-5.6-0.6-8.5c0-0.5-0.1-1-0.2-1.5C300.8,453.6,300.7,453.6,300.6,453.6z"/>
<path class="st0" d="M335.5,231c0.2-1.1,0.6-1.9,0.5-2.6c-0.3-2.3-0.6-4.7-1.3-7c-1.1-4-2.6-7.9-3.8-11.9c-0.2-0.7-0.3-1.4-0.6-2.5
	c1.5,0.7,2.7,1.2,3.8,1.8c4,2.2,7.9,4.4,11.9,6.7c1.8,1,3.2,2.5,4.2,4.3c2.7,5,5.5,10.1,7.3,15.5c0.2,0.5,0.3,1.1,0.5,1.6
	c-5.7,2-11.3,4-17.1,6c1.4-5,2.9-9.8,4.7-14.6c-0.3,0.2-0.8,0.2-1,0.5c-1.1,1.5-2.3,2.9-3.3,4.5c-4.9,8.1-9.1,16.6-12.7,25.3
	c-0.7,1.8-1.8,2.9-3.5,3.8c-3,1.7-5.8,3.6-8.7,5.5c-1.4,0.9-2.4,2.1-3.3,3.4c0.1,0.1,0.2,0.3,0.3,0.4c1.3-0.7,2.6-1.3,3.8-2.1
	c3.4-2.2,6.8-4.3,10.1-6.6c0.9-0.6,1.7-1.6,2.2-2.7c1.2-2.5,2.1-5.1,3.3-7.6c2.5-5.3,5.2-10.6,7.8-15.8c0.4-0.7,0.8-1.4,1.5-2.4
	c-1.9,6.6-3.7,12.8-5.4,19c-1.8,6.2-3.5,12.5-5.3,18.8c-2-1.8-2.9-4.8-5.4-6.2c0.7,2.4,2.5,4.3,3.5,6.7c-3.8,2.9-6.6,6.8-9,11
	c3.3-3.4,6.3-7.2,10.8-9.9c-0.2,1.9-0.4,3.3-0.5,4.8c-0.2,5.4-0.3,10.9-0.5,16.3c-0.1,3.6-0.3,7.1-0.7,10.7c-0.3,2-1.1,4-1.7,6
	c-1.1,3.8-2.4,7.5-3.1,11.4c-0.8,4,0,7.7,3.1,10.7c2.4,2.3,4.6,4.7,6.8,7.1c0.5,0.6,0.9,1.3,1.3,2c0.3,0.4,0.5,1,0.9,1.2
	c2.5,1.4,3.8,3.8,5,6.1c2.4,4.6,4.2,9.4,5.4,14.4c1.7,6.7,5,12.5,10.1,17.2c1.3,1.2,2.2,2.6,2.3,4.4c-5.2-0.2-10.3,0.5-15.4,1.1
	c-8.4,1.1-16.8,2.3-25.2,3.4c-5.5,0.7-11.1,1.4-16.6,1.9c-3.2,0.3-6.4,0.6-9.6,0.7c-8.9,0.3-17.7,0.4-26.6,0.6
	c-0.6,0-1.2-0.1-2.1-0.1c-0.2-6.9,0.4-13.8,0.5-20.7c0.1-7,0.5-14,0.7-21c0.2-6.9,0.5-13.8,0.8-21c4.1-0.9,8.5,0.1,12.9-0.7
	c0.3,0.5,0.7,1,1,1.6c1.1-1.5,1.5-3,1.5-4.8c-0.1-5.2,0-10.4-0.9-15.6c0-0.3,0-0.6,0.1-1.1c2.8,2.2,5.8,3.2,9.2,4
	c-0.2-0.4-0.2-0.6-0.3-0.7c-3-1.5-5.9-3.1-8.9-4.5c-0.6-0.3-1.4-0.6-2-0.6c-2.9,0.2-5.8,0.5-8.7,0.7c-1.3,0.1-2.6,0.2-4.1,0.2
	c-0.3-2.3-0.5-4.3-0.8-6.4c-0.7-4.8-1.3-9.6-2-14.4c-0.2-1.2-0.4-2.5-0.3-3.8c0.2-3.2,0.5-6.4,0.7-9.6c0.1-1.1,0.6-1.7,1.5-2.3
	c4.6-3.1,9.6-5.4,14.7-7.5c9-3.7,18-7.1,27-10.8c4.5-1.9,9-3.9,13.5-6c2-0.9,2.1-1.2,1.7-3.4c2.4-1.6,3-4.3,1.1-6.6
	c-3.8-4.6-8.2-8.7-12.8-12.5c-1.5-1.3-3-2.6-4.5-4C315.9,223.9,325.8,226.5,335.5,231z M337.4,383.1c1-1.1,2-2.1,0.6-3.6
	c-0.2-0.3,0-0.9,0-1.3c0-4-0.1-8-0.1-12.1c0-3,0-6.1,0-9.1c0.5-0.2,1-0.4,1.4-0.6c0.1-0.7,0.2-1.3,0.2-1.8c0.1-2.1-0.6-2.7-2.7-2.6
	c-2.2,0.1-4.3,0.3-6.5,0.3c-8.2,0-16.3,0-24.5,0c-0.9,0-1.8,0.2-1.8,1.2c0,1.3,0.1,2.6,0.2,4c1.5,0.1,2.9,0.2,4.1,0.3
	c-0.4,6.3-0.8,12.3-1.1,18.3c-0.1,2.3,0.3,2.6,2.4,3.3c8.2,2.7,16.6,4.2,25.3,3.6C335.7,382.9,336.5,383,337.4,383.1z M272.5,294.2
	c3.3-2.8,7.2-4,10.5-6.2c-0.7-0.1-1.5,0-2.1,0.2c-1.8,0.7-3.6,1.5-5.3,2.4c-1.9,1-3.7,2.2-5.5,3.4c-0.7,0.5-1.3,1-0.6,2.2
	c7.4-0.4,14.7,0.9,22.1,2.2c-1.9,0.8-3.8,1.2-5.7,1.7c-1.9,0.6-4,0.5-5.8,1.5c0.3,0.2,0.6,0.2,0.9,0.2c3.6-0.5,7.2-1,10.8-1.6
	c1.5-0.2,2.9-0.5,4.4-0.9c0.4-0.1,0.8-0.7,0.9-1.1c0.1-0.2-0.5-0.6-0.8-0.9c-0.2-0.1-0.4-0.2-0.6-0.2c-2.8-0.5-5.6-1.1-8.4-1.4
	C282.5,295.2,277.7,294.8,272.5,294.2z M273.6,288.7c0.1,0.2,0.2,0.3,0.3,0.5c0.3-0.1,0.7-0.1,1-0.2c4.9-2.2,9.8-4.6,14.8-6.7
	c3.1-1.3,6-2.9,8.3-5.5c0.8-1,1.6-1.2,2.9-0.8c1,0.3,2.2,0.2,3.3,0c2.5-0.5,5.1-1.2,7.6-1.9c1.1-0.3,2.2-0.2,3.3,0.1
	c2.1,0.7,4.3,1.4,6.4,1.9c2.1,0.5,4.1-0.8,4.7-3c-2,2.1-4.1,2.1-6.5,1.3c-1.4-0.5-2.9-0.8-4.3-1.3c-1.3-0.5-2.6-0.4-3.9,0.1
	c-2.1,0.7-4.2,1.4-6.4,1.9c-1.2,0.3-2.6,0.3-3.7-0.1c-2-0.7-3.4-0.2-4.7,1.3c-2.1,2.3-4.7,3.8-7.6,4.9c-2.3,0.9-4.5,1.8-6.8,2.8
	c-0.3,0.1-0.8,0.5-1,0.4c-1.5-0.9-2.3,0.3-3.2,1c-1.1,0.7-2.2,1.5-3.3,2.3C274.3,287.8,274,288.3,273.6,288.7z M283.7,304
	c1,1.8,2.6,2.3,4.3,2.5c2.1,0.2,4.3,0.1,6.4,0.1c0.4,0,0.7-0.2,1.1-0.3c0-0.2,0-0.3,0-0.5C291.5,305.8,287.5,305.6,283.7,304z"/>
<path class="st0" d="M217.7,368.1c-2.4-0.2-4.2,1.4-6.1,2.5c-0.7-1.8-2.6-22-2.5-26.4c2-1.5,4.1-1.9,6.7-0.8
	c-0.5,0.4-0.8,0.8-1.2,1.1c-0.3,0.3-0.7,0.5-0.9,1.1c0.9-0.3,1.9-0.5,2.8-0.9c1.3-0.6,1.4-1.5,0.3-2.3c-2-1.3-4.2-1.4-6.4-0.5
	c-1.4,0.6-2.6,1.4-4,2.1c-0.6,0.3-1.2,0.6-2.1,1c0-1.1-0.1-2,0-2.8c0.9-5.7,2.1-11.4,2.9-17.2c1-6.6,1.9-13.3,2.5-19.9
	c1.2-12.4,2.2-24.8,3.3-37.1c1-10.4,2-20.8,3.1-31.1c0.6-5.8,2.6-11.1,4.8-16.5c0.2-0.5,0.4-1,0.7-1.4c2.8-2.9,5.7-5.6,8.9-8
	c-1.1,4-2.3,8-5.2,11.1c-0.3,0.4-0.4,1-0.6,1.5c0.5,0.2,1.1,0.6,1.6,0.5c1.9-0.4,3.8-0.8,5.6-1.3c6.8-1.8,13.5-3.6,20.3-5.4
	c0.1,0,0.3,0,0.7,0.1c-0.5,0.7-1,1.2-1.4,1.8c-3.3,4.1-6.7,8-9.8,12.2c-1.9,2.6-3.2,5.7-4.6,8.7c-0.8,1.7-0.4,2.5,1.6,2.7
	c3.8,0.4,7.3,1.6,10.6,3.4c1,0.6,1.6,1.2,1.9,2.5c1.9,8,4.1,16,5.9,24.1c0.7,2.9,0.5,6.1,0.7,9.1c0.1,1.2,0,2.4,0,3.6
	c0,1.9,0,1.9,1.7,3.1c0.7,6.9,1.4,13.9,2.2,21.3c-1.5,0-2.7,0-3.9,0c-0.8,0-1.4,0.2-1.9,0.9c-2.2,2.9-4.5,5.7-6.8,8.6
	c-0.8,1-0.8,1.9-0.1,3c2.3,3.3,4.6,6.6,6.9,9.9c1,1.4,1.2,1.4,2.8,0.8c0.8-0.3,1.5-0.6,2.3-0.9c0.1,0,0.3,0,0.6,0
	c-0.1,2.3-0.1,4.6-0.3,6.9c-0.6,10.7-1.2,21.4-1.9,32.1c-0.5,6.8-1.2,13.6-1.8,20.6c-2.6,0.5-5.3,0.5-8,0.2
	c-4.4-0.4-8.7-1.1-13.1-1.5c-5.5-0.5-11-0.8-16.5-1.3c-3.5-0.3-6.9-0.8-10.6-1.2c0.4-0.9,0.7-1.7,1.1-2.5c0.4-0.8,0.7-1.7,1.3-2.4
	c5.1-6.4,7.7-14.1,10.9-21.4c0.4-0.9,0.8-1.8,1.2-2.7c0.4-1,1.1-1.3,2.4-1c-1.5,5.7-3,11.4-4.6,17.3c-0.3,0.1-0.9,0.2-1.5,0.3
	c0,0.2,0,0.3,0,0.5c1.1,0.3,2.2,0.6,3.3,0.9c5.7,1.2,11.4,2.4,17.2,2.6c1.8,0.1,3.6,0.6,5.2-0.4c0.2-0.1,0.4-0.1,0.7-0.1
	c0.8-0.1,1.9,0.1,2.3-0.4c0.7-0.9,1.3-2,1.5-3.1c0.4-2.7,0.6-5.5,0.9-8.2c0.4-3.2,0.8-6.5,1.2-9.9c1,0,2,0.1,2.9,0
	c0.5-0.1,1.1-0.4,1.3-0.9c0.3-0.5,0.2-1.3-0.6-1.4c-0.9-0.1-0.8-0.8-1-1.3c-0.4-1-1.1-1.5-2.3-1.4c-0.1,0-0.3,0-0.4,0
	c-7,0.2-14,0.3-21,0.6c-1.4,0-2.7,0.2-4.7,0.4c1.3-1.8,2.3-3.2,3.3-4.5c3.4-4.6,6.9-9.1,10.2-13.8c1.4-2,2.5-4.2,3.6-6.4
	c1.8-3.7,2.4-7.7,2-11.8c-0.6-5.2-1.2-10.5-2.3-15.7c-2.5-11.8-5.3-23.5-8-35.3c-1.7-7.5-3.5-15.1-5.3-22.6c-1-4-1.9-8-3-11.9
	c-0.8-2.8-1.5-5.6-3.5-7.8c-0.3-0.4-0.6-0.9-1-1.1c-0.2-0.1-0.8-0.1-1,0.1c-0.2,0.2-0.2,0.6-0.2,1c0,0.1,0.1,0.3,0.2,0.4
	c2.5,2.3,3.2,5.5,4.1,8.6c3.7,12.6,6.8,25.3,9.4,38.1c0.1,0.6,0.2,1.2,0.4,1.7c1.9,5.9,1.7,12.1,1.9,18.1
	c0.3,10.3,0.4,20.7,0.6,31.1c0.1,5.3-0.3,10.6-1.6,15.7c-0.2,0.9-0.7,1.8-1.2,2.6c-1.4,1.9-2.9,3.8-4.5,5.6
	c-4.1,4.7-7.4,9.9-9.7,15.7C219.8,363.3,218.7,365.7,217.7,368.1z"/>
<path class="st0" d="M286.7,561.5c2.4-0.9,4.9-0.7,7.4,0.2c1,0.4,1.9,0.8,2.9,1.3c2.6,1.1,5.1,1.1,7.5-0.3c3.1-1.8,6.5-2.5,10-2.8
	c0.9-0.1,1.9,0.1,2.9,0.2c0,0.7,0,1.1,0,1.5c-0.4,4.9-1,9.8-1,14.7c-0.1,7.3,0.1,14.6,0.4,21.9c0.3,6.8-0.4,13.5-1.8,20.2
	c-2.9,13.6-5.5,27.3-8.6,40.9c-1.9,8.3-4.4,16.5-6.6,24.8c-0.2,0.6-0.4,1.1-0.6,1.5c-5.7,1.6-11,0.4-16.4-1.4
	c0.2-1.6,0.4-3.1,0.5-4.7c0.9-10.8,0.9-21.6-0.3-32.3c-0.8-6.9-0.9-13.8-0.4-20.8c0.5-7.8,1.4-15.6,3.5-23.1
	c1.2-4.5,2.4-8.9,2.7-13.6c0.1-1.8,0.2-3.6,0.1-5.4c-0.2-4.3-0.3-8.6-0.7-12.9C287.8,568.1,287.2,564.9,286.7,561.5z"/>
<path class="st0" d="M279.9,82.9c-0.8,0.8-1.6,1.4-2.3,2.3c-3.9,4.7-7.3,9.8-10.5,15c-5.2,8.5-10,17.1-13.2,26.6
	c-0.7,2-1.4,4.1-2.2,6.4c0-2.3,0-4.2,0-6.2c0-1.8,0.1-3.6,0.3-5.4c0.1-0.9,0.4-1.9,0.8-2.7c3-4.8,5.2-9.8,7.4-15
	c0.1-0.2,0.1-0.6-0.1-0.9c-3.3,6.7-6.8,13.3-12.2,18.8c0.1-0.4,0.1-0.7,0.2-1.1c1.9-4.4,2.8-8.9,2.9-13.7c0.1-7.8,1.2-15.4,4.7-22.6
	c2-4.1,4.3-8,7.4-11.4c1.8-2,4-3.6,6.4-4.9c10.8-5.7,22-6,33.3-2c3.6,1.3,6.3,3.8,8.5,7c1.3,1.9,1.6,4,0.9,6.2
	c-0.1,0.4-0.2,0.8-0.3,1.3c2.6,0.2,4.2,1.9,5.7,3.6c3.4,4,5.4,8.6,5,13.9c-0.3,4.2-0.7,8.5-1.1,12.7c-0.3,2.9-0.5,5.8-0.8,9
	c-0.4-0.6-0.7-0.9-1-1.3c-2.2-4-3.4-8.2-3.4-12.8c0-0.1,0-0.2,0-0.2c-1.4-3.7-0.6-7.6-0.6-11.4c0-0.4-0.1-0.7-0.4-1.1
	c-0.9,5-1,10.1-2.4,15c-0.2-2.7-0.4-5.3-0.6-8c-0.1-0.7-0.2-1.3-0.3-2c-0.4-1.9-0.8-3.8-1.2-6c-1.3,3.3-2.3,6.6-3.9,9.7
	c-1.6,3.2-3.5,6.2-5.6,9.1c-2,2.8-4.4,5.3-6.9,8.3c1.6-7.1,3.8-13.5,4.9-20.2c-0.1,0-0.3-0.1-0.4-0.1c-0.2,0.4-0.4,0.9-0.6,1.3
	c-0.9,2.9-1.7,5.7-2.5,8.6c-0.3,1-0.5,2-1.8,2.4c-0.2,0.1-0.5,0.4-0.6,0.6c-4.3,6.3-10.3,10.5-16.7,14.2c-3.5,2.1-7.2,3.9-11.2,6
	c2.4-5.1,4.8-9.7,6.9-14.4c2.1-4.7,3.9-9.4,5.2-14.4c-0.2,0.4-0.5,0.8-0.7,1.2c-3.4,7.1-6.6,14.3-10.1,21.4
	c-1.3,2.6-3.1,5.1-4.8,7.5c-0.9,1.3-2.3,2.2-3.6,3.4c0.6,0,1.2,0,1.9,0c-2.7,6.7-5.1,13.2-8.8,19.6c-1-9.1,0.4-17.6,3-26
	c3.3-10.8,8.3-20.7,14.3-30.2c3.7-5.8,7-11.7,11.8-16.8C280.2,83.1,280,83,279.9,82.9z M310.6,79.6c0.4-1.8-0.5-2.8-1.2-3.8
	c-2.8-4-6.5-6.7-11.1-8.2c-1.5-0.5-3.2-0.7-4.8-0.6c-4.4,0.3-8.6,1.6-12.5,3.8c-0.3,0.2-0.6,0.5-0.9,0.7c0.4,0.2,0.7,0.1,0.9,0
	c2.4-0.8,4.7-1.9,7.2-2.4c3.7-0.7,7.4-1,11.1,0.7c3.9,1.8,7,4.5,9.6,7.8C309.4,78.3,309.9,78.8,310.6,79.6z"/>
<path class="st0" d="M319.4,399.6c7.9-0.7,15.6-1.8,23.1-4.2c0.2,1.4,0.4,2.6,0.4,3.7c0,5,1.1,9.9,1.9,14.8c0.7,4,1.1,8.1,1.6,12.2
	c0.9,7.3,2.9,14.3,4.9,21.3c2,7.2,4,14.4,5.8,21.6c2.7,10.4,5.5,20.7,7.9,31.1c1.6,7.1,2.6,14.4,3.5,21.6c0.7,5.8,0.9,11.7,1.3,17.6
	c0.1,1.9,0.4,3.8,0.5,5.8c-1.4,1.1-2.7,2.1-4.1,3.1c-1.5,1.1-3.3,1.6-5.1,2c-1.2,0.3-2.4,1.1-3.5,1.8c-1.2,0.8-2.4,1.7-4.1,1.4
	c-0.2-2.5-0.3-5-0.6-7.4c-1-11.5-3.1-22.9-6.4-34c-7.8-26.2-14.5-52.7-20.1-79.4c-2.2-10.6-4.6-21.1-7-31.6
	C319.5,400.6,319.5,400.2,319.4,399.6z"/>
<path class="st0" d="M351.1,247.4c-1.1,3.2-2.1,6.4-3.3,9.9c2.3-2.3,6.5-12.5,6.3-14.7c1.7-0.5,3.3-1,5.3-1.5
	c0.2,1.4,0.6,2.7,0.6,4.1c0,9.3,1,18.6,2.1,27.8c0.8,6.7,1.8,13.3,2.3,20c0.4,4.4,0.2,8.8,0.1,13.2c-0.1,6.2-0.1,12.4-0.4,18.5
	c-0.3,5.4-0.9,10.8-1.3,16.2c-0.5,6.2-0.9,12.5-1.3,18.7c-0.2,3.5-0.3,7.1-0.4,10.9c-3.5-0.9-7-1.3-10.8-0.5c-0.8-1-1.3-2.3-1.5-3.6
	c-1-5.1-2.7-10.1-4.8-14.8c-1.4-3.1-3.2-5.9-5.5-8.4c-0.9-1-1.4-2-1.5-3.4c-0.6-6.5-1.3-13-1.9-19.6c-0.7-7.9-1.5-15.9-2.1-23.8
	c-0.4-4.7-0.5-9.5-0.7-14.3c0-0.4,0.1-0.9,0.2-1.3c3-6.7,5.8-13.5,9.1-20.1c2.1-4.1,4.9-7.8,7.4-11.7c0.5-0.7,1.1-1.3,1.7-1.9
	C350.9,247.2,351,247.3,351.1,247.4z"/>
<path class="st0" d="M269.5,132c1.1,0.7,0.5,2,1.8,2.4c2.2,0.7,4.4,0,5.5-2.2c1-1.8,1-1.8,2.9-2.8c-1.5-0.2-2.7-0.4-3.8-0.6
	c0.2-0.9,1-1.1,1.7-1.1c2,0,3.7-0.7,5.7-1.7c-0.4-0.4-0.7-0.9-1.1-1.3c0-0.1,0.1-0.2,0.2-0.3c3.6-2.8,7.1-5.7,9.9-9.3
	c0.5-0.6,1.2-1,2-1.7c-0.6,3.9-2.3,6.9-3.6,10.1c0.2,0.1,0.3,0.2,0.5,0.3c2-1.9,4-3.7,5.9-5.7c1.9-2.1,3.8-4.2,5.5-6.5
	c1.7-2.3,3.1-4.7,4.4-7.2c1.3-2.5,2.3-5.1,3.6-7.6c0.9,7.1,1.6,14.1,0,21.1c1.1-1,2.1-2.7,2.8-5.1c0.5-1.9,0.9-3.8,1.6-5.8
	c0.1,0.3,0.3,0.6,0.3,0.9c0,4,1.2,7.8,3,11.3c0.6,1.2,0.7,2.4,0.4,3.6c-0.4,1.4-0.8,2.8-1.4,4.3c-1.2-4.2-1.7-8.5-3.7-12.4
	c-0.2,0-0.4,0.1-0.5,0.1c0.3,1.3,0.5,2.5,0.8,3.8c0.4,1.9,0.9,3.8,1.3,5.7c0.7,3.5,0.5,6.8-0.9,10.2c-2.7,6.4-3.8,13.3-5,20.1
	c-0.9,5.2-2.7,9.9-6.7,13.5c-2.5,2.4-5,4.9-7.6,7.2c-4.5,3.9-9.9,4.5-15.1,2.3c-4.3-1.9-8.1-5-10.9-9c-1.6-2.3-3-4.8-4.5-7.2
	c-1.9-2.9-2.6-6.1-3.2-9.5c-0.4-2.6-0.9-5.1-1.4-7.7c-0.3-1.6-0.1-3.1,0.3-4.8c0.7-3,2.1-4.9,5.2-5.7
	C266.8,133.6,268.1,132.6,269.5,132z M308.5,131.8c0-0.2,0.1-0.4,0.1-0.5c-3.8-3.7-13.3-1.9-14.9,3.1c1.6-1.1,3-2.1,4.6-3.3
	c0.2,2.2,1.4,3.3,3.1,3.4c2,0.2,2.4-1.9,3.2-3C306,131.5,307.3,131.6,308.5,131.8z M293.4,128.7c0.1,0,0.1,0.1,0.2,0.1
	c0.2,0,0.4-0.1,0.6-0.2c3.9-2.3,8.1-3.6,12.8-3.4c0.5,0,1-0.3,1.6-0.6C305,122.3,295,125.1,293.4,128.7z M280.5,160.9
	c1-0.3,1.7-0.6,2.3-0.6c2.2,0,4.5,0.2,6.7,0.3c0.9,0,1.8-0.2,3-0.3c-1.6-1.3-1.6-1.3-3.1-1.3c-3.8-0.1-7.6-0.3-11.3,1.1
	C279,160.3,279.9,160.6,280.5,160.9z M289.8,149.9c-2.2-1.5-7.1-1.6-9.5-0.1C283.6,149.9,286.5,150.8,289.8,149.9z M288.5,164.2
	c-2-0.8-5.5-0.5-7.4,0.5C283.3,165.5,286.4,165.3,288.5,164.2z M283,156.6c0.2,1.1,0.9,1.2,1.6,1c0.7-0.2,1.8-0.3,1.7-1.7
	C285.2,156.2,284.2,156.4,283,156.6z"/>
<path class="st0" d="M305.6,183.6c1.7,1.6,3.4,3.1,5,4.8c2.2,2.3,4.2,4.6,6.3,7c2.8,3.2,6.1,5.7,9.7,7.8c1.2,0.7,1.7,1.6,2.1,2.9
	c1.4,4.8,2.9,9.5,4.3,14.3c0.7,2.3,1.2,4.6,1.7,6.9c0.1,0.5,0,1.1,0,1.9c-2.6-1-4.9-1.8-7.2-2.8c-6.9-3-14.2-4.5-21.5-5.7
	c-1.6-0.3-3.2-0.8-4.7-1.2c-0.6-0.2-1.2-0.3-1.5,0.4c-0.4,0.7,0,1.5,0.9,1.6c1.5,0.2,2.4,1.2,3.4,2c3.7,3.2,7.5,6.4,11.1,9.8
	c2.3,2.2,4.5,4.6,6.6,7c1.7,2,1.1,3.4-1.3,4.3c-6.5,2.4-13,4.8-19.5,7.3c-5.5,2.1-11.1,4.1-16.4,6.6c-5.6,2.6-10.9,5.9-16.3,8.9
	c-0.4,0.2-0.9,0.5-1.5,0.8c0.2-0.5,0.2-0.7,0.3-0.9c4-5.9,11.5-19.3,14.3-25.6c2.1-5,5.2-9.4,8.7-13.5c7.5-8.6,12-18.7,15.4-29.5
	c1.4-4.7,1.7-9.4,0.1-14.1c-0.1-0.2-0.1-0.4-0.1-0.6C305.4,184,305.4,183.9,305.6,183.6z"/>
<path class="st0" d="M260,202.2c1.1-0.8,1.9-1.3,2.7-1.9c3.5-2.9,5.9-6.3,7-10.8c0.7-2.8,0.9-5.6,1-8.4c0-1.3,0.3-2.7,0.3-4
	c0-1.2-0.2-2.3-0.3-3.7c2,1.5,3.8,3,5.8,4.3c0.9,0.7,2.1,1.1,3.1,1.6c0.1,0,0.2,0,0.2,0.1c3.3,2,6.7,1.2,10.1,0.5
	c2-0.4,3.7-1.3,5.2-2.5c1.5-1.2,2.9-2.5,4.6-4.1c0,0.8,0,1.3,0,1.8c-0.1,6.1,0.8,12,3.1,17.7c0.4,1.1,0.3,2.6,1.9,3.2
	c-0.4,1.3-0.6,2.6-1.1,3.9c-3.4,10.2-8,19.9-15.2,28.1c-3.8,4.3-6.9,9.2-9,14.6c-0.5,1.2-1.2,2.4-1.9,3.8c-0.2-0.6-0.4-0.9-0.4-1.2
	c-0.6-5.2-3.1-9.7-5.5-14.3c-3-5.9-6.1-11.8-9-17.7C261,209.6,260.3,205.9,260,202.2z"/>
<path class="st0" d="M279.6,686.1c2.5,2.1,5.3,2.3,8.2,2.5c3.3,0.2,6.7,0.4,10,0.6c0,0.5,0.1,1,0,1.4c-0.8,3-0.7,6-0.4,9
	c0.1,1.5,0.1,3,0.1,4.5c0.1,2-0.6,3.8-1.9,5.3c-0.5,0.6-0.8,1.2-1.2,1.9c-0.5,0.8-0.6,1.7-0.1,2.5c2.6,4.5,3,9.6,4.1,14.5
	c1.2,5.7,2.2,11.4,3.4,17.1c0.4,1.8-0.2,3.4-1,4.9c-0.3,0.5-1.2,0.9-1.8,1.1c-1.8,0.6-3.6,1-5.4,1.5c-1.8,0.5-3.6,1-5.3,1.7
	c-1.4,0.5-2.9,0.7-4.4,0.3c-1.5-0.3-3.1-0.4-4.6-0.7c-3.8-0.7-5.6-2.8-5.4-6.6c0.2-4,0.7-8,1.1-12c0.4-3.4,1.2-6.8,1.3-10.2
	c0.2-2.9-0.1-5.8-0.5-8.7c-0.4-2.8-0.3-5.4,0.2-8.2c1.2-6.7,2.1-13.5,3.2-20.3C279.2,687.6,279.4,686.9,279.6,686.1z"/>
<path class="st0" d="M260.4,569.9c0.8,1.1,0.6,2.4,2.2,2.8c-0.5-4.3-3.6-7.6-3.5-12c0.6,0.1,1,0.1,1.3,0.1c4.2,1,8.3,0.5,12.3-1.1
	c2-0.8,4.1-1.2,6.1-0.9c0.9,1.8,1.7,3.4,2.5,5.1c1.4-0.4,2.8-0.8,4.5-1.3c0.1,0.6,0.4,1.3,0.5,2c0.4,4.9,0.7,9.8,1,14.7
	c0.1,2,0.2,4,0.3,6c0.2,5-0.6,9.8-2,14.6c-1.8,6.3-3,12.7-3.8,19.3c-0.1,0.6-0.1,1.2-0.4,1.7c-1.3,2.2-2.6,4.4-4,6.4
	c-1,1.5-2.5,2.4-4.5,2.4c-1.1-4-2.1-7.8-3.2-11.6c-0.5-1.8-1.2-3.5-1.9-5.2c-3.1-8.3-6.1-16.7-9.3-24.9c-2-5.2-1.8-10.2,0.5-15.2
	C259.5,572,259.9,571.1,260.4,569.9z M284.9,574c-0.1-0.1-0.2-0.3-0.2-0.4c-0.4,0.2-0.9,0.4-1.3,0.6c-2.5,1.3-5.1,2.5-7.5,3.9
	c-1.6,0.8-3.1,0.9-4.7,0.1c-1.3-0.6-2.5-1.3-3.8-1.9c-0.5-0.3-1.1-0.8-1.9-0.3c1.7,1.6,3.5,2.9,5.5,3.8c1.3,0.6,2.7,0.8,4.1,0.3
	C279,579.1,281.8,576.4,284.9,574z"/>
<path class="st0" d="M256.7,214.8c-3.1-0.1-5.4,1-7.7,1.5c-2.4,0.5-4.8,1.2-7.1,1.8c-2.3,0.6-4.6,1.2-6.9,1.9
	c-2.3,0.7-4.5,1.8-7.4,2.2c2.5-3.7,3.8-7.6,5.1-11.5c0.5-1.5,1.5-2.5,3-3c7.5-2.7,13.4-7.6,18.6-13.5c1.1-1.3,2.3-2.6,3.5-3.8
	c0.9-0.9,1.8-1.7,2.8-2.5c0.1,0.3,0.2,0.4,0.2,0.4c-3.6,7.5-2.9,15.1-0.4,22.6c1.6,4.6,3.9,9,6,13.4c2,4,4.2,7.9,6.2,11.9
	c1.5,2.9,2.6,6,3,9.3c0,0.2,0,0.5,0.1,0.7c1.1,1.9,0.3,3.5-0.7,5.1c-1.9,3.2-3.7,6.5-5.6,9.7c-0.3,0.6-0.7,1.1-1.1,1.7
	c-6.8-11.6-16.4-19.1-29.8-21.9c1-3,2.4-5.9,4.2-8.4c2.1-2.9,4.3-5.7,6.6-8.4c2-2.4,4.1-4.7,6.2-7.1
	C256,216.4,256.2,215.7,256.7,214.8z"/>
<path class="st0" d="M344.7,405.9c2.4-1.2,4.7-2.2,6.8-3.4c2-1.2,3.9-2.6,6.1-4.1c0.2,1.5,0.4,2.8,0.6,4.1c0.5,4.8,0.9,9.6,1.4,14.4
	c1.2,11.5,2.2,23.1,4.3,34.5c0.4,2.3-0.1,4.9-0.3,7.3c-0.3,3.5-0.9,6.9-2,10.3c-0.4,1.1-1,1.8-2.2,2c-0.1-0.4-0.3-0.7-0.4-1.1
	c-3.1-11.3-6.3-22.7-9.2-34c-1.2-4.5-1.8-9.2-2.5-13.8c-0.8-4.6-1.5-9.2-2.2-13.9C344.9,407.5,344.8,406.6,344.7,405.9z"/>
<path class="st0" d="M227.4,357.2c8,0,15.7,0,23.5,0c-0.9,6.7-1.3,13.4-3,19.8c-8.5,1-16.6-0.1-24.9-1.7
	C224.4,369.3,225.9,363.4,227.4,357.2z"/>
<path class="st0" d="M264,400.8c0-1,0-1.9,0-2.7c0-0.9,0-1.8,0-2.7c0.8-0.1,1.4-0.1,1.9-0.1c6.4-0.1,12.8,0.1,19.2-0.2
	c9.4-0.4,18.9-1,28.2-2.3c5.2-0.7,10.5-1.3,15.7-2c4.8-0.6,9.6-1.5,14.4-2c4.7-0.5,9.3-0.7,14-1c1.5-0.1,1.6,1.2,2.3,2.3
	c-6.7,0.3-12.7,2.7-18.8,4.5c-8.4,2.5-16.9,3.4-25.5,3.7c-8.9,0.3-17.9,0.3-26.8,0.6c-5.8,0.2-11.6,0.4-17.4,0.8
	C269,399.7,266.7,400.3,264,400.8z"/>
<path class="st0" d="M279.2,329.4c-7.5-0.3-14.8-1-21.8,2.1c-2.8-3.3-5.2-7-7.5-10.7c2.3-3.1,4.6-6.2,6.8-9.2c0.4-0.6,1-0.8,1.7-0.7
	c4.8,0.3,9.7,0.3,14.5-0.5c1.5-0.3,3.1-0.2,4.9-0.3C278.4,316.5,279.4,322.8,279.2,329.4z M258.4,323.9c1.9,0,3.6-1.6,3.6-3.5
	c0-1.4-1.7-3.4-3-3.5c-1.6,0-3.6,2.1-3.7,3.9C255.3,322.6,256.6,323.8,258.4,323.9z"/>
<path class="st0" d="M218.1,460.3c-0.8-1.4-1.5-2.3-2-3.4c-0.5-0.9-0.7-1.9-1.2-2.9c-1.2-2.6-1.2-5.3-0.4-8
	c1.4-4.7,2.4-9.5,3.9-14.2c1.2-3.8,0.8-7.7,0.6-11.5c-0.3-6.3-0.9-12.6-1.3-18.9c0-0.4,0.1-0.8,0.1-1.5c3.8,1.1,7.5,2.2,11.3,3.2
	c0,0.9,0,1.7,0,2.6c0.1,2.1-0.7,4.3-0.1,6.4c0.2,0.5-0.2,1.2-0.3,1.7c-3.3,14.7-6.7,29.4-10,44.1
	C218.6,458.6,218.4,459.2,218.1,460.3z"/>
<path class="st0" d="M272,632c3.3,2.3,5.8,0.2,8.5-1.3c0.1,0.5,0.2,0.8,0.2,1.1c-0.4,6.1,0.3,12.2,0.8,18.3c0.3,3.5,0.7,7,0.8,10.5
	c0.1,5.7,0,11.5-0.1,17.2c0,1.4-0.1,2.8-1.2,4.1c-0.3-0.5-0.6-0.8-0.7-1.2c-1.1-2.4-2-4.8-3.3-7.1c-3.1-5.6-4.3-11.6-3.8-18
	c0.6-7.3,0.1-14.6-1-21.8C272.1,633.2,272.1,632.7,272,632z"/>
<path class="st0" d="M335.1,339.3c-0.9-0.8-1.3-1.2-1.8-1.7c-1.4-1.4-2.6-3.1-4.2-4.3c-2.5-2-3.2-4.8-3.7-7.6
	c-0.1-0.6,0-1.2,0.2-1.7c1.3-4.6,2.5-9.3,4.1-13.9c1.3-3.6,1.2-7.3,1.4-11c0.1-1.1,0-2.2,0-3.2c0.2,0,0.3,0,0.5,0
	C332.7,310.1,333.9,324.4,335.1,339.3z"/>
<path class="st0" d="M238.9,287.1c1,4.6,2.1,9.1,3,13.7c1.1,5.5,2,10.9,2.4,16.5c0.4,6.6-2,12-6.1,17c1.4-15.7,0.7-31.5,0.1-47.2
	C238.5,287.1,238.7,287.1,238.9,287.1z"/>
<path class="st0" d="M262.6,392.9c-0.7-0.1-1.2-0.1-1.6-0.2c-1.6-0.4-2-0.8-1.9-2.5c0.1-3.1,0.3-6.2,0.6-9.4c0.4-4.7,0.9-9.3,1.2-14
	c0.6-8.2,1.1-16.5,1.6-24.7c0.2-3,0.2-6.1,0.3-9.2c0.1-1.7,0.1-1.7,2.1-1.7C264.1,351.8,263.4,372.3,262.6,392.9z"/>
<path class="st0" d="M352.2,243.1c-0.3,0.5-0.4,0.7-0.6,0.9c-5.7,5.4-9.5,12.2-13,19.1c-2,3.9-3.6,8-5.4,12
	c-0.1,0.3-0.3,0.6-0.8,0.9c0.7-3.6,1.4-7.2,2.2-10.7c1.4-5.4,2.9-10.7,4.3-16.1c0.4-1.4,1.1-2.1,2.4-2.5c3.3-1,6.5-2.1,9.7-3.2
	C351.4,243.3,351.7,243.2,352.2,243.1z"/>
<path class="st0" d="M257.4,393c0.4,0.8,0.8,1.4,1.3,2.4c-0.9,0.1-1.7,0.1-2.5,0.1c-9.4,0.1-18.7-0.7-28.1-1.9
	c-4.7-0.6-9.3-1.3-13.9-1.9c-2-0.2-4-0.2-6.2-0.3c0.2-0.7,0.3-1.4,0.5-2c2.6-0.3,5.1,0.1,7.6,0.4c6.1,0.7,12.3,1.2,18.4,1.8
	c4,0.4,8,0.9,12,1.4c3,0.4,5.9,0.6,8.9,0.1C256.1,392.9,256.7,393,257.4,393z"/>
<path class="st0" d="M360.3,391.9c-3.4,6.4-9.1,9.8-15.7,12.4c-0.8-3.1-0.3-6.2-0.7-9.3C349.4,393.8,354.4,391,360.3,391.9z"/>
<path class="st0" d="M208.1,393.1c3-0.5,22.5,1.9,25.6,3.1c-0.7,2-1.3,3.9-2,5.9c-4.5-1.2-9-2.1-13.3-3.5
	C214.7,397.4,211.2,395.8,208.1,393.1z"/>
<path class="st0" d="M260.7,271.2c-1.9-7-3.8-13.9-5.8-21.2c2.8,1.8,5,3.6,6.8,5.9c1.9,2.4,3.3,5.1,5,7.6c0.5,0.8,0.4,1.5-0.2,2.2
	c-1.2,1.5-2.3,3.1-3.4,4.7C262.4,271.3,262.4,271.3,260.7,271.2z"/>
<path class="st0" d="M302.8,753.7c0,2.1-1,3.3-2.2,4.1c-1.5,1-3,1.9-4.7,2.6c-2.9,1.2-5.9,2.2-8.8,3.3c-2.3,0.9-4.4,0.6-6.3-0.8
	c-2.4-1.7-4.8-3.3-7.1-5c-0.4-0.3-0.7-0.8-0.7-1.2c-0.1-1.2,0-2.3,0-3.9c0.7,0.7,1.2,1.1,1.6,1.5c4.8,4.8,10.4,6.4,17,4.6
	C295.4,757.8,299.2,756.3,302.8,753.7z"/>
<path class="st0" d="M320.3,247.1c-0.6,0.3-1.1,0.6-1.7,0.9c-10,5-20.4,9-30.8,13.2c-6,2.4-11.9,5.1-17.8,7.7
	c-0.4,0.2-0.8,0.3-1.2,0.4c15.8-10.6,33.5-16.7,51.1-23.1C320,246.5,320.1,246.8,320.3,247.1z"/>
<path class="st0" d="M310.8,152.8c0.7-3.4,1.3-6.8,2.1-10.2c0.6-2.6,1.3-5.2,2.1-7.7c0.5-1.8,1.6-2.6,3.3-2.7
	c0.9-0.1,1.5,0.3,1.6,1.2c0.2,0.9,0.4,1.8,0.2,2.6c-0.4,2.3-0.9,4.7-1.4,7c-0.6,2.3-1.8,4.2-3.6,5.8c-1.4,1.3-2.6,2.8-3.9,4.2
	C311,152.8,310.9,152.8,310.8,152.8z"/>
<path class="st0" d="M260,200.4c-0.6-8.8,2.4-14.6,9-17.1C269.9,189.3,266.2,197.7,260,200.4z"/>
<path class="st0" d="M359.4,371.8c-0.3,3-0.7,5.7-1,8.7c-3.6-2.3-5.2-5.9-7.3-9.4C354.1,370.2,356.7,371,359.4,371.8z"/>
<path class="st0" d="M279.3,755.9c1,0.3,2,0.6,2.9,0.9c1.8,0.6,3.5,0.3,5.2-0.3c3.8-1.3,7.6-2.6,11.4-3.8c1.6-0.5,3.2-0.9,3.6-2.9
	c1,1.6,1.1,1.7-0.1,2.6c-1.2,0.9-2.5,1.8-3.9,2.5c-4,1.9-8,3.5-12.6,3.4c-2.4-0.1-4.7-0.6-6.7-2
	C279.2,756.2,279.2,756.1,279.3,755.9z"/>
<path class="st0" d="M260.6,288.3c0.4-0.1,0.8-0.1,1.5-0.2c0.9,7.2,1.9,14.2,2.8,21.5c-0.9,0-1.5,0-2.1,0
	C262.1,302.5,261.4,295.5,260.6,288.3z"/>
<path class="st0" d="M253.5,355.2c-1.2,0.6-1.3-0.4-1.9-1c-0.4,1.2-1.3,1.2-2.2,1.2c-4.6,0-9.2,0-13.8,0.1c-2.6,0.1-5.2,0.3-7.8,0.5
	c-0.4-1.2,0.1-1.7,1.2-1.8c1.5-0.1,3-0.2,4.4-0.3c6.2-0.1,12.3-0.1,18.5-0.3C252.9,353.6,253.5,353.9,253.5,355.2z"/>
<path class="st0" d="M358.8,239.6c-6.5,1.6-12.5,4-18.7,6.4c-0.1-1,0-1.7,1-2c5.3-1.7,10.6-3.3,15.9-5c0.3-0.1,0.8-0.2,1.1-0.1
	C358.3,239,358.5,239.3,358.8,239.6z"/>
<path class="st0" d="M259.3,271.6c-1,0.5-1.1-0.1-1.2-0.6c-0.5-1.9-0.9-3.9-1.4-5.9c-1.3-5.3-2.7-10.5-4-15.8
	c-0.1-0.3-0.1-0.5,0-0.9C255.5,256,257.6,263.7,259.3,271.6z"/>
<path class="st0" d="M303.7,187.1c0.4-0.1,0.7-0.1,1.2-0.2c0.3,2,0.8,4,0,6c-1.6-3.4-2.8-6.9-3.5-11
	C303.5,183.3,303.4,185.2,303.7,187.1z"/>
<path class="st0" d="M217.1,369.5c-0.8,1.8-1.3,3.2-2,4.7c-1.2-0.2-2.3-0.4-3.7-0.7C212.7,371.3,214.6,370.4,217.1,369.5z"/>
<path class="st0" d="M262,276c-1.1,0-2.1,0-3.3,0c0-1.1,0-2.1,0-3.1c0.9,0,1.9,0,2.9,0C261.8,273.8,261.9,274.8,262,276z"/>
<path class="st0" d="M258.7,277.5c1.1,0,2.1,0,3.2,0c-0.1,1.2-0.2,2.2-0.3,3.2c-0.9,0.1-1.6,0.2-2.6,0.3
	C259,279.8,258.8,278.7,258.7,277.5z"/>
<path class="st0" d="M274.5,631.6c2.6-1.2,4.4-3.3,6.4-5.5c0,1.1,0,1.8,0,2.7C278.7,629.6,277.1,631.8,274.5,631.6z"/>
<path class="st0" d="M280.8,685c3.2,0.2,6,1.9,9,2.4C286.7,686.9,283.3,687.7,280.8,685z"/>
<path class="st0" d="M261.5,284.6c-0.1,0.9-0.2,1.5-0.3,2.2c-0.7-0.2-1.3-0.3-2-0.5c0-0.7,0-1.3,0-2.2
	C260,284.3,260.7,284.4,261.5,284.6z"/>
<path class="st0" d="M360.1,375.2c0.1-0.9,0.1-1.9,0.2-3.1c0.7,0.3,1.2,0.5,1.9,0.9c-0.6,0.9-1.1,1.7-1.6,2.4
	C360.5,375.4,360.3,375.3,360.1,375.2z"/>
<path class="st0" d="M271.7,131.4c0.8-0.1,1.5-0.1,2.4-0.2c0.2,1.1-0.2,1.7-1.1,1.7C272,133,271.5,132.5,271.7,131.4z"/>
<path class="st0" d="M262,283.1c-1.4,0-2.5,0.7-2.9-1C260.1,282,261,281.7,262,283.1z"/>
<path class="st0" d="M224.9,356.1c0.5-0.8,0.8-1.3,1.2-1.9C227,355.7,226.9,355.9,224.9,356.1z"/>
<path class="st0" d="M231.2,403.5c-0.2,0.7-0.3,1.4-0.5,2.1c-0.1,0-0.2,0-0.3,0c0-0.7,0-1.4,0-2.1
	C230.8,403.5,231,403.5,231.2,403.5z"/>
<path class="st0" d="M279.5,310.1c0,0.5,0,1,0,1.5c-0.1,0-0.1,0-0.2,0c-0.1-0.5-0.2-1-0.3-1.5C279.2,310.1,279.3,310.1,279.5,310.1z
	"/>
<path class="st0" d="M298.1,687.5c-0.2,0.1-0.4,0.2-0.6,0.2c-0.6,0-1.1-0.1-1.7-0.5c0.7,0,1.5-0.1,2.2-0.1
	C298.1,687.2,298.1,687.4,298.1,687.5z"/>
<path class="st0" d="M263.1,273.3c0-1.5,0.6-1.3,1.4-1.1C264,272.5,263.6,272.8,263.1,273.3z"/>
<path d="M337.4,383.1c-0.9,0-1.7-0.2-2.4-0.1c-8.7,0.6-17.1-0.9-25.3-3.6c-2.2-0.7-2.5-1.1-2.4-3.3c0.3-6,0.7-12,1.1-18.3
	c-1.2-0.1-2.6-0.2-4.1-0.3c-0.1-1.4-0.3-2.7-0.2-4c0-1,0.9-1.2,1.8-1.2c8.2,0,16.3,0,24.5,0c2.2,0,4.3-0.2,6.5-0.3
	c2.1-0.1,2.7,0.5,2.7,2.6c0,0.6-0.1,1.2-0.2,1.8c-0.4,0.2-0.9,0.4-1.4,0.6c0,3.1,0,6.1,0,9.1c0,4,0.1,8,0.1,12.1
	c0,0.4-0.2,1.1,0,1.3C339.4,381,338.4,382,337.4,383.1z M336.3,381.1c0.5-8.1,0.7-15.9,0.2-23.8c-9,0.2-18,0.3-27,0.5
	c-0.1,6.7-1.3,13.2-0.8,19.9C317.6,380.6,326.7,382,336.3,381.1z M337.9,353.6c-10.7,0.6-21.2,0.3-31.6-0.4c-0.3,0-0.6,0.1-1,0.2
	c0.1,1.1,0.2,2,0.3,3.1c2.1,0,4-0.2,5.9-0.2c5.4,0.1,10.7-0.2,16.1-0.4c2.6-0.1,5.2-0.2,7.8-0.3
	C336.5,355.5,337.4,355.2,337.9,353.6z"/>
<path d="M272.5,294.2c5.2,0.5,10,1,14.7,1.6c2.8,0.3,5.6,0.9,8.4,1.4c0.2,0,0.5,0.1,0.6,0.2c0.3,0.3,0.9,0.7,0.8,0.9
	c-0.1,0.4-0.5,1-0.9,1.1c-1.4,0.4-2.9,0.7-4.4,0.9c-3.6,0.6-7.2,1.1-10.8,1.6c-0.3,0-0.6,0-0.9-0.2c1.8-1,3.9-1,5.8-1.5
	c1.9-0.6,3.8-1,5.7-1.7c-7.4-1.3-14.7-2.6-22.1-2.2c-0.8-1.1-0.1-1.7,0.6-2.2c1.8-1.2,3.6-2.4,5.5-3.4c1.7-0.9,3.5-1.7,5.3-2.4
	c0.6-0.3,1.3-0.3,2.1-0.2C279.7,290.3,275.9,291.5,272.5,294.2z"/>
<path d="M273.6,288.7c0.4-0.4,0.7-0.9,1.1-1.2c1.1-0.8,2.1-1.6,3.3-2.3c1-0.6,1.8-1.9,3.2-1c0.2,0.1,0.7-0.2,1-0.4
	c2.3-0.9,4.5-1.9,6.8-2.8c2.9-1.1,5.5-2.6,7.6-4.9c1.3-1.5,2.7-2.1,4.7-1.3c1.1,0.4,2.5,0.3,3.7,0.1c2.2-0.5,4.3-1.2,6.4-1.9
	c1.3-0.5,2.6-0.5,3.9-0.1c1.4,0.5,2.9,0.8,4.3,1.3c2.3,0.8,4.5,0.8,6.5-1.3c-0.6,2.2-2.5,3.5-4.7,3c-2.2-0.5-4.3-1.2-6.4-1.9
	c-1.1-0.3-2.1-0.5-3.3-0.1c-2.5,0.7-5,1.4-7.6,1.9c-1.1,0.2-2.3,0.3-3.3,0c-1.3-0.3-2-0.1-2.9,0.8c-2.2,2.6-5.1,4.2-8.3,5.5
	c-5,2.1-9.9,4.5-14.8,6.7c-0.3,0.1-0.7,0.2-1,0.2C273.8,289.1,273.7,288.9,273.6,288.7z"/>
<path d="M283.7,304c3.8,1.5,7.8,1.8,11.9,1.8c0,0.2,0,0.3,0,0.5c-0.4,0.1-0.7,0.3-1.1,0.3c-2.1,0-4.3,0.1-6.4-0.1
	C286.3,306.3,284.6,305.8,283.7,304z"/>
<path d="M310.6,79.6c-0.7-0.8-1.2-1.3-1.6-1.9c-2.6-3.3-5.7-6-9.6-7.8c-3.7-1.7-7.4-1.4-11.1-0.7c-2.4,0.5-4.8,1.5-7.2,2.4
	c-0.3,0.1-0.5,0.1-0.9,0c0.3-0.2,0.5-0.5,0.9-0.7c3.9-2.2,8-3.5,12.5-3.8c1.6-0.1,3.3,0.1,4.8,0.6c4.6,1.4,8.3,4.2,11.1,8.2
	C310.1,76.8,311,77.8,310.6,79.6z"/>
<path d="M308.5,131.8c-1.3-0.1-2.5-0.2-4-0.4c-0.9,1.1-1.2,3.2-3.2,3c-1.6-0.1-2.8-1.2-3.1-3.4c-1.6,1.2-3,2.2-4.6,3.3
	c1.6-5,11.1-6.8,14.9-3.1C308.6,131.4,308.6,131.6,308.5,131.8z M299.9,131.2c1.6,1.8,2.2,1.8,3-0.4
	C301.9,131,301,131.1,299.9,131.2z"/>
<path d="M293.4,128.7c1.6-3.6,11.6-6.4,15.2-4c-0.6,0.2-1.1,0.6-1.6,0.6c-4.6-0.2-8.8,1-12.8,3.4c-0.2,0.1-0.4,0.1-0.6,0.2
	C293.6,128.8,293.5,128.7,293.4,128.7z"/>
<path d="M280.5,160.9c-0.6-0.2-1.5-0.6-2.3-0.9c3.7-1.3,7.5-1.2,11.3-1.1c1.5,0.1,1.5,0.1,3.1,1.3c-1.2,0.1-2.1,0.3-3,0.3
	c-2.2-0.1-4.5-0.2-6.7-0.3C282.2,160.3,281.5,160.6,280.5,160.9z"/>
<path d="M289.8,149.9c-3.3,0.9-6.2,0-9.5-0.1C282.7,148.3,287.5,148.4,289.8,149.9z"/>
<path d="M288.5,164.2c-2.1,1.1-5.2,1.2-7.4,0.5C283,163.8,286.5,163.5,288.5,164.2z"/>
<path d="M283,156.6c1.2-0.3,2.2-0.5,3.3-0.7c0.1,1.4-0.9,1.5-1.7,1.7C283.9,157.9,283.2,157.7,283,156.6z"/>
<path d="M284.9,574c-3.1,2.4-5.9,5-9.7,6.2c-1.4,0.4-2.8,0.3-4.1-0.3c-2-0.9-3.8-2.2-5.5-3.8c0.8-0.5,1.4,0,1.9,0.3
	c1.3,0.6,2.5,1.3,3.8,1.9c1.6,0.8,3.1,0.7,4.7-0.1c2.5-1.3,5-2.6,7.5-3.9c0.4-0.2,0.9-0.4,1.3-0.6
	C284.7,573.7,284.8,573.9,284.9,574z"/>
<path d="M258.4,323.9c-1.8,0-3.1-1.3-3-3.1c0-1.7,2.1-3.9,3.7-3.9c1.3,0,3,2,3,3.5C262,322.3,260.4,323.9,258.4,323.9z M260.6,320.4
	c0-0.8-1.1-1.8-1.9-1.8c-1.2,0-2.1,1-2,2.2c0.1,0.8,0.9,1.7,1.7,1.7C259.3,322.6,260.6,321.3,260.6,320.4z"/>
<path class="st0" d="M336.3,381.1c-9.6,0.9-18.7-0.5-27.6-3.4c-0.5-6.8,0.8-13.2,0.8-19.9c9-0.2,18-0.3,27-0.5
	C337,365.2,336.8,373,336.3,381.1z"/>
<path class="st0" d="M337.9,353.6c-0.5,1.6-1.4,2-2.5,2c-2.6,0.1-5.2,0.2-7.8,0.3c-5.4,0.2-10.7,0.4-16.1,0.4
	c-1.9,0-3.8,0.2-5.9,0.2c-0.1-1-0.2-2-0.3-3.1c0.4-0.1,0.7-0.2,1-0.2C316.8,353.9,327.2,354.2,337.9,353.6z"/>
<path class="st0" d="M299.9,131.2c1.1-0.1,2-0.2,3-0.4C302.2,132.9,301.6,133,299.9,131.2z"/>
<path class="st0" d="M260.6,320.4c0,0.9-1.3,2.1-2.2,2.1c-0.8,0-1.7-0.9-1.7-1.7c-0.1-1.1,0.9-2.1,2-2.2
	C259.6,318.6,260.6,319.6,260.6,320.4z"/>
</svg>
