<?xml version="1.0" encoding="utf-8"?>
<!-- Generator: Adobe Illustrator 19.0.0, SVG Export Plug-In . SVG Version: 6.00 Build 0)  -->
<svg version="1.1" id="图层_1" xmlns="http://www.w3.org/2000/svg" xmlns:xlink="http://www.w3.org/1999/xlink" x="0px" y="0px"
	 viewBox="0 0 595.3 841.9" style="enable-background:new 0 0 595.3 841.9;" xml:space="preserve">
<style type="text/css">
	.st0{fill:#FFFFFF;}
</style>
<path class="st0" d="M1.1,805.9c0-256.3,0-512.6,0-768.9c198.1,0,396.2,0,594.2,0c0,256.3,0,512.5,0,768.9
	C397.2,805.9,199.1,805.9,1.1,805.9z M327.6,114.5c-1.6-1.6-3-2.9-4.2-4.2c-0.4-0.5-0.7-1.3-0.6-1.9c0.4-4.2,1-8.5,1.5-12.7
	c0.4-4.3,1-8.7,1-13c0-6-2.7-10.9-7-14.9c-1.1-1-2.5-1.8-3.9-2.7c0.9-2.9,0.4-5.7-1.3-8.2c-2.4-3.4-5.5-6.2-9.6-7.4
	c-3.2-1-6.4-1.7-9.7-2.2c-10.3-1.6-19.7,0.7-28.5,6.2c-1.4,0.9-2.7,1.9-3.8,3c-6.3,6.3-10,14.1-12.4,22.6
	c-1.5,5.4-1.5,10.9-1.7,16.4c-0.2,4.9-1.6,9.4-3.8,13.8c-0.9,1.8-1.6,3.6-2.5,5.4c0.2,0.1,0.3,0.2,0.5,0.3c2.4-1.9,4.9-3.8,7.5-5.9
	c-0.3,2.3-0.6,4.4-0.7,6.6c-0.2,3.2-0.4,6.3-0.5,9.5c0,1.6,0.4,3.3,0.2,4.8c-0.5,4.1-0.6,8.2-0.4,12.3c0.1,1.9,0.5,3.7,0.9,5.8
	c0.6-0.9,0.9-1.4,1.3-1.8c2.3-2.6,4.1-5.4,5.3-8.7c0.4-1.2,0.9-2.3,1.3-3.5c0.2-0.5,0.5-1,0.9-1.9c0.2,1.7,0.4,2.9,0.6,4.1
	c0.6,6.9,2.3,13.4,6.3,19.2c1.1,1.6,2.1,3.3,2.8,5c1.1,2.6,0.7,5.5,1.1,8.2c0.1,0.9,0,1.8,0,2.8c-0.8,0.4-1.5,0.8-2.2,1.1
	c-2.2,1.1-4.6,2-6.6,3.5c-2.6,2-5.1,4.3-7.3,6.7c-5.5,6-11.5,11.4-19.3,14.2c-0.7,0.3-1.4,0.6-2,1.1c-4,3.2-7.9,6.5-11.8,9.8
	c-1.4,1.1-2.2,2.6-2.9,4.2c-3,7.3-4.9,14.9-5.5,22.8c-0.9,10.5-1.8,21-2.7,31.6c-0.9,11-1.9,22-2.9,32.9c-1,10.7-2.3,21.3-4.5,31.8
	c-0.7,3.6-1.4,7.2-1.2,10.8c0.1,1.4,0.6,1.8,2,1.3c1-0.4,1.9-0.9,2.9-1.4c0.4,4.9,0.7,9.5,1.2,14.1c0.4,4.6,1,9.2,1.5,13.9
	c0.1,1,0,2.2,0.5,2.8c0.7,0.7,2,0.8,3,1.1c0.1,0,0.2,0.2,0.4,0.4c-0.6,0.8-1.1,1.7-1.7,2.5c-2.9,4-5.1,8.3-6.5,13.1
	c-0.4,1.2-0.2,2.2,0.7,2.9c1,0.9,2.1,1.8,3.3,2.6c2.2,1.3,4.4,2.5,6.5,3.6c0.4,5.2,0.9,10.3,1.3,15.4c0.3,3.5,0.7,7,0.8,10.4
	c0.1,1.8-0.1,3.7-0.6,5.5c-1.3,5.1-2.9,10.1-4.3,15.2c-0.5,1.9-1.4,3.9-1.3,5.9c0.2,4,1.6,7.7,4,10.9c1,1.3,1.6,2.5,1.2,4.2
	c-2.4,10.3-4.7,20.6-7.8,30.7c-5.9,19.1-11.8,38.3-18.6,57.1c-1.2,3.4-0.9,4.3,2.5,5.7c0.5,0.2,1,0.3,1.5,0.6
	c0.8,0.4,1.6,0.9,2.3,1.4c-0.1,0.4-0.1,0.6-0.2,0.8c-0.6,2.6-0.2,3.4,2.6,3.6c2,0.2,4,0.2,6.1,0.2c4,0,8,0.2,10.8-2.4
	c1.9,1,3.4,1.9,5,2.6c1.1,0.5,2.2,0.7,3.3,1.1c4.4,1.6,8.5,1.5,12.3-1.5c0.1-0.1,0.3-0.1,0.5-0.1c0.5,2.2,2.1,3,4.2,3.4
	c3.2,0.5,6.4,0.4,9.5-0.5c2.4-0.7,4.6-2,4.9-5c0-0.3,0.2-0.5,0.4-0.8c0.8,0.8,1.5,1.6,2.3,2.1c0.7,0.5,0.9,1,0.8,1.8
	c-0.2,2,0.4,3.9,1.3,5.6c0.8,1.5,0.6,2.8-0.2,4.1c-0.3,0.5-0.6,1.1-0.9,1.6c-2.7,5-3.2,10.1-1.3,15.5c2,5.7,4,11.4,6,17.1
	c2.8,7.9,5.7,15.7,7.3,24c1.9,10.3,3,20.6,2.4,31c-0.3,4.9,0.4,9.6,2.1,14.2c0.8,2.2,2,4.2,2.9,6.3c1.3,3,3.1,5.7,1.5,9.3
	c-0.8,1.7-0.7,3.8-0.9,5.7c-0.6,4.7-0.9,9.5-2,14c-1.3,5.5-1.5,10.9-0.9,16.4c0.6,5.1,0.3,10.2-0.6,15.3c-0.8,4.5-1,9.1-1.4,13.7
	c-0.1,1.1,0.2,2.3-0.9,3.2c-0.3,0.2-0.3,1-0.3,1.5c0,1.6,0.1,3.3,0.1,4.9c0,1.2,0.5,2,1.5,2.6c2,1.2,3.9,2.6,5.8,3.9
	c0.8,0.6,1.7,1.1,2.5,1.7c1.8,1.1,3.8,1.4,5.8,0.7c3.5-1.2,6.9-2.3,10.3-3.6c1.6-0.6,3.1-1.5,4.5-2.4c4-2.6,5.2-7.4,2.9-11.6
	c-0.2-0.4-0.5-0.8-0.6-1.2c-0.4-2-0.8-4.1-1.2-6.1c-1.1-6-2-11.9-3.3-17.9c-0.8-3.7-1.1-7.5-3.1-10.9c-0.5-0.9-0.3-1.8,0.3-2.6
	c2.9-3.6,3-7.8,2.5-12.2c-0.2-1.8-0.1-3.6,0.2-5.3c0.3-2.1,0.8-4.2,1.6-6.2c0.9-2.2,1.1-4.8,1.7-7.1c2-7.9,4.3-15.7,6.1-23.7
	c3-13.4,5.6-26.9,8.5-40.3c1.4-6.7,2.7-13.4,2.4-20.3c-0.1-2.6-0.4-5.1-0.4-7.7c0.1-10.6,0.3-21.3,0.4-31.9c0-0.9,0.3-1.7,0.5-2.7
	c1.1,0.2,1.8,0.3,2.6,0.4c2.9,0.3,5.9,0.6,8.8-0.4c1.2-0.4,2.2-1.2,3.3-1.6c6.6-2.4,13.3-4.3,20.5-3.5c2.7,0.3,5-0.3,7.2-2
	c0.9-0.7,2.1-1.3,3.3-1.5c3.3-0.7,6-2.2,8.4-4.5c0.3,0.2,0.6,0.3,0.8,0.5c1.2-1.1,1.1-2.3,1-3.6c-0.4-5.1-0.9-10.2-1.2-15.3
	c-0.5-9.9-2.1-19.6-4.2-29.2c-1.7-7.7-4-15.3-5.9-23c-0.6-2.3-1.1-4.6-1.6-6.5c1.3-1.3,2.5-2.2,3.1-3.3c1.2-2.3,2-4.7,2-7.4
	c0-1.4,0.3-2.8,0.3-4.2c0.1-2.9,0.8-5.8,0.2-8.8c-2.5-13.1-3.6-26.3-4.8-39.5c-0.4-4.2-0.8-8.5-1.5-12.7c-0.4-2.1-0.3-3.7,1.2-5.5
	c2.1-2.4,3.1-5.3,1.6-8.6c-0.5-1-0.7-2.2-1.1-3.3c-0.8-2.5-1.1-5.1-0.6-7.7c4.1-1.8,4.6-3,2.4-5.7c0.1-1.1,0.2-2.1,0.2-3
	c0-1.9-0.2-3.7-0.1-5.6c0.3-4.4,0.8-8.8,1.1-13.2c0.3-4.6,0.3-9.2,0.7-13.7c0.8-8.6,1.4-17.2,1.3-25.8c0-1.9-0.1-3.9,0.1-5.8
	c0.5-6.6,0.2-13.2-0.5-19.8c-0.8-7.7-1.7-15.4-2.5-23.1c-0.5-4.9-0.9-9.9-1.3-14.8c-0.2-2.5-0.4-5-0.2-7.4c0.1-2.4,0.4-4.6-1.4-6.6
	c-0.2-0.3-0.3-0.7-0.5-1.1c-1.8-5.5-4.4-10.6-7-15.7c-2-4-4.9-7.2-8.8-9.4c-1.9-1.1-3.9-2.2-5.9-3.2c-2.6-1.3-5.2-2.4-7.8-3.6
	c-0.6-0.3-1.3-0.8-1.4-1.3c-0.2-1.4-1.2-2.1-2.3-2.7c-4.6-2.8-8.5-6.2-12-10.2c-3-3.4-6.5-6.5-9.8-9.7c-0.6-0.6-1.4-1.1-2.2-1.3
	c-3-0.9-3.9-1.9-3.9-5c0-0.9,0-1.9,0-2.8c-0.1-1.7,0.4-3,1.7-4.3c4.1-4.1,7.1-8.8,7.8-14.7c0.1-0.5,0.3-1,0.3-1.3
	c1.1-0.9,2.1-1.6,3-2.5c1-0.9,1.8-1.9,2.8-2.8c4.7-4.3,5.8-9.9,5.9-15.9c0-2.7-1.1-3.6-3.8-3.9c-0.1,0-0.2-0.2-0.2-0.2
	c0.8-2.8,1.5-5.6,2.3-8.6C322.6,112,324.7,113.5,327.6,114.5z"/>
<path d="M327.6,114.5c-3-1-5-2.5-6.8-4.7c-0.8,2.9-1.5,5.7-2.3,8.6c0,0,0.1,0.2,0.2,0.2c2.8,0.3,3.8,1.1,3.8,3.9
	c0,6-1.2,11.6-5.9,15.9c-1,0.9-1.8,1.9-2.8,2.8c-0.9,0.8-1.9,1.5-3,2.5c-0.1,0.2-0.3,0.7-0.3,1.3c-0.7,5.9-3.8,10.6-7.8,14.7
	c-1.3,1.3-1.8,2.6-1.7,4.3c0.1,0.9,0,1.9,0,2.8c0,3.1,0.8,4.1,3.9,5c0.8,0.2,1.6,0.7,2.2,1.3c3.3,3.2,6.8,6.2,9.8,9.7
	c3.5,4,7.4,7.5,12,10.2c1.1,0.7,2.1,1.3,2.3,2.7c0.1,0.5,0.9,1,1.4,1.3c2.6,1.3,5.2,2.4,7.8,3.6c2,1,4,2.1,5.9,3.2
	c3.9,2.2,6.7,5.3,8.8,9.4c2.6,5.1,5.2,10.3,7,15.7c0.1,0.4,0.2,0.8,0.5,1.1c1.8,1.9,1.5,4.2,1.4,6.6c-0.1,2.5,0,5,0.2,7.4
	c0.4,5,0.8,9.9,1.3,14.8c0.8,7.7,1.7,15.4,2.5,23.1c0.7,6.6,1,13.2,0.5,19.8c-0.1,1.9-0.1,3.9-0.1,5.8c0.1,8.6-0.5,17.2-1.3,25.8
	c-0.4,4.6-0.4,9.2-0.7,13.7c-0.3,4.4-0.8,8.8-1.1,13.2c-0.1,1.8,0.1,3.7,0.1,5.6c0,1-0.1,2-0.2,3c2.2,2.7,1.7,3.9-2.4,5.7
	c-0.5,2.6-0.2,5.1,0.6,7.7c0.3,1.1,0.6,2.3,1.1,3.3c1.5,3.3,0.5,6.1-1.6,8.6c-1.5,1.8-1.5,3.4-1.2,5.5c0.7,4.2,1.1,8.5,1.5,12.7
	c1.3,13.2,2.4,26.4,4.8,39.5c0.6,3-0.1,5.9-0.2,8.8c-0.1,1.4-0.3,2.8-0.3,4.2c0,2.6-0.8,5.1-2,7.4c-0.6,1.2-1.8,2-3.1,3.3
	c0.5,1.9,1,4.2,1.6,6.5c2,7.7,4.3,15.3,5.9,23c2.1,9.6,3.7,19.4,4.2,29.2c0.3,5.1,0.8,10.2,1.2,15.3c0.1,1.3,0.1,2.5-1,3.6
	c-0.2-0.1-0.5-0.3-0.8-0.5c-2.4,2.3-5.1,3.9-8.4,4.5c-1.2,0.2-2.4,0.8-3.3,1.5c-2.1,1.7-4.5,2.4-7.2,2c-7.2-0.8-13.9,1.1-20.5,3.5
	c-1.2,0.4-2.2,1.2-3.3,1.6c-2.9,1-5.8,0.8-8.8,0.4c-0.8-0.1-1.5-0.2-2.6-0.4c-0.2,1-0.4,1.8-0.5,2.7c-0.2,10.6-0.3,21.3-0.4,31.9
	c0,2.6,0.3,5.1,0.4,7.7c0.4,6.9-1,13.6-2.4,20.3c-2.8,13.4-5.5,26.9-8.5,40.3c-1.8,7.9-4.1,15.8-6.1,23.7c-0.6,2.4-0.7,4.9-1.7,7.1
	c-0.9,2-1.3,4.1-1.6,6.2c-0.3,1.7-0.3,3.6-0.2,5.3c0.4,4.3,0.4,8.5-2.5,12.2c-0.6,0.8-0.9,1.7-0.3,2.6c2,3.4,2.3,7.2,3.1,10.9
	c1.2,5.9,2.2,11.9,3.3,17.9c0.4,2.1,0.8,4.1,1.2,6.1c0.1,0.4,0.4,0.8,0.6,1.2c2.2,4.3,1.1,9-2.9,11.6c-1.4,0.9-2.9,1.8-4.5,2.4
	c-3.4,1.3-6.9,2.4-10.3,3.6c-2,0.7-4,0.5-5.8-0.7c-0.9-0.5-1.7-1.1-2.5-1.7c-1.9-1.3-3.8-2.7-5.8-3.9c-1-0.6-1.5-1.4-1.5-2.6
	c0-1.6-0.1-3.3-0.1-4.9c0-0.5,0-1.3,0.3-1.5c1.1-0.9,0.8-2.1,0.9-3.2c0.4-4.6,0.7-9.1,1.4-13.7c0.9-5.1,1.1-10.2,0.6-15.3
	c-0.6-5.5-0.4-10.9,0.9-16.4c1.1-4.6,1.4-9.4,2-14c0.3-1.9,0.2-4,0.9-5.7c1.6-3.6-0.2-6.4-1.5-9.3c-0.9-2.1-2.1-4.2-2.9-6.3
	c-1.7-4.6-2.3-9.3-2.1-14.2c0.6-10.4-0.5-20.7-2.4-31c-1.5-8.3-4.5-16.1-7.3-24c-2-5.7-4-11.4-6-17.1c-1.9-5.4-1.3-10.5,1.3-15.5
	c0.3-0.5,0.6-1.1,0.9-1.6c0.8-1.3,1-2.6,0.2-4.1c-0.9-1.7-1.5-3.6-1.3-5.6c0.1-0.7-0.1-1.3-0.8-1.8c-0.8-0.6-1.5-1.4-2.3-2.1
	c-0.1,0.3-0.3,0.5-0.4,0.8c-0.3,3-2.5,4.3-4.9,5c-3.1,0.9-6.3,0.9-9.5,0.5c-2.1-0.3-3.7-1.1-4.2-3.4c-0.2,0-0.4,0-0.5,0.1
	c-3.8,2.9-8,3.1-12.3,1.5c-1.1-0.4-2.3-0.6-3.3-1.1c-1.6-0.7-3.1-1.6-5-2.6c-2.9,2.6-6.9,2.5-10.8,2.4c-2,0-4,0-6.1-0.2
	c-2.8-0.3-3.2-1-2.6-3.6c0.1-0.2,0.1-0.4,0.2-0.8c-0.8-0.5-1.5-1-2.3-1.4c-0.5-0.3-1-0.4-1.5-0.6c-3.3-1.5-3.7-2.3-2.5-5.7
	c6.8-18.8,12.7-38,18.6-57.1c3.1-10.1,5.4-20.4,7.8-30.7c0.4-1.7-0.2-3-1.2-4.2c-2.5-3.2-3.8-6.9-4-10.9c-0.1-1.9,0.7-3.9,1.3-5.9
	c1.4-5.1,3-10.1,4.3-15.2c0.5-1.8,0.7-3.7,0.6-5.5c-0.1-3.5-0.5-7-0.8-10.4c-0.4-5.1-0.9-10.2-1.3-15.4c-2-1.1-4.3-2.3-6.5-3.6
	c-1.2-0.7-2.3-1.6-3.3-2.6c-0.9-0.8-1-1.7-0.7-2.9c1.4-4.7,3.5-9.1,6.5-13.1c0.6-0.8,1.1-1.6,1.7-2.5c-0.2-0.2-0.3-0.3-0.4-0.4
	c-1-0.3-2.3-0.4-3-1.1c-0.6-0.6-0.4-1.8-0.5-2.8c-0.5-4.6-1.1-9.2-1.5-13.9c-0.4-4.6-0.8-9.2-1.2-14.1c-1,0.5-1.9,1-2.9,1.4
	c-1.3,0.5-1.9,0.2-2-1.3c-0.3-3.7,0.4-7.3,1.2-10.8c2.2-10.5,3.5-21.1,4.5-31.8c1-11,1.9-21.9,2.9-32.9c0.9-10.5,1.8-21,2.7-31.6
	c0.6-7.9,2.5-15.5,5.5-22.8c0.7-1.6,1.5-3.1,2.9-4.2c3.9-3.3,7.9-6.5,11.8-9.8c0.6-0.5,1.3-0.9,2-1.1c7.9-2.8,13.8-8.1,19.3-14.2
	c2.2-2.4,4.7-4.8,7.3-6.7c2-1.5,4.4-2.3,6.6-3.5c0.7-0.4,1.4-0.7,2.2-1.1c0-0.9,0.1-1.9,0-2.8c-0.4-2.7,0-5.6-1.1-8.2
	c-0.8-1.8-1.7-3.5-2.8-5c-4-5.8-5.7-12.3-6.3-19.2c-0.1-1.2-0.3-2.4-0.6-4.1c-0.4,0.9-0.7,1.3-0.9,1.9c-0.5,1.2-0.9,2.3-1.3,3.5
	c-1.2,3.3-3,6.1-5.3,8.7c-0.4,0.4-0.7,1-1.3,1.8c-0.4-2.1-0.8-3.9-0.9-5.8c-0.2-4.1-0.2-8.2,0.4-12.3c0.2-1.6-0.2-3.2-0.2-4.8
	c0.1-3.2,0.3-6.3,0.5-9.5c0.2-2.1,0.5-4.3,0.7-6.6c-2.6,2-5,4-7.5,5.9c-0.2-0.1-0.3-0.2-0.5-0.3c0.8-1.8,1.5-3.7,2.5-5.4
	c2.3-4.3,3.6-8.9,3.8-13.8c0.3-5.5,0.2-11,1.7-16.4c2.4-8.5,6.1-16.3,12.4-22.6c1.1-1.1,2.4-2.2,3.8-3c8.8-5.4,18.2-7.7,28.5-6.2
	c3.3,0.5,6.5,1.3,9.7,2.2c4.1,1.2,7.2,4,9.6,7.4c1.8,2.4,2.3,5.2,1.3,8.2c1.4,0.9,2.8,1.7,3.9,2.7c4.3,4,7,9,7,14.9
	c0,4.3-0.6,8.7-1,13c-0.4,4.2-1,8.5-1.5,12.7c-0.1,0.6,0.2,1.4,0.6,1.9C324.7,111.6,326,112.9,327.6,114.5z M300.7,455
	c0.1,0,0.2,0,0.4,0c0.1,0.5,0.1,1,0.2,1.5c0.2,2.9,0.4,5.9,0.6,8.8c0.5,5.6,1.2,11.3,1.5,16.9c0.4,6.2,0.3,12.4,0.7,18.6
	c0.6,9.7,0.9,19.4,0.3,29.1c-0.4,6.7-0.8,13.3-1.4,20c-0.4,5.3-1.1,10.6-1.6,16c-0.1,0.6,0,1.2,0,2.1c0.8-0.3,1.6-0.5,2.2-0.9
	c5.5-3,11.3-3.6,17.4-2.7c1.4,0.2,2.9,0.3,4.3,0.4c0-2.7,0.1-5.1,0-7.5c-0.3-5-0.8-9.9-1.3-14.8c-0.5-4.8-0.9-9.6-1.5-14.4
	c-1.2-9-2.5-18-3.9-26.9c-2.3-14.8-4.7-29.6-6.8-44.4c-1.4-9.4-2.5-18.8-3.5-28.2c-0.5-5-0.7-10.1-0.7-15.1c0-3.9,0.4-7.7,0.7-11.6
	c0-0.6,0-1.4,1.1-1.7c-0.2,1.4-0.5,2.7-0.5,3.9c0,5.4,0.1,10.9,0.2,16.3c0.1,8.6,1.4,17,2.7,25.4c1.4,9.3,3,18.5,4.4,27.8
	c1.7,10.7,3.3,21.5,4.9,32.2c1.3,8.5,2.4,17.1,3.5,25.6c0.7,5.6,1.2,11.3,1.7,16.9c0.4,5.4,1.4,10.7,0.7,16.3
	c1.6,0.2,3.1,0.1,4.2-0.9c1.3-1.2,2.7-1.8,4.3-2.2c5.7-1.7,11.5-3.1,17.6-2.9c0.4,0,0.7-0.1,1-0.2c-0.1-1-0.1-1.8-0.2-2.7
	c-0.4-4.2-0.6-8.4-1.2-12.5c-1.9-13.2-5.3-26.1-8.9-39c-4-14.6-7.9-29.2-11.4-43.9c-4.2-17.7-7.8-35.6-11.7-53.4
	c-0.6-2.7-1.2-5.4-1.8-8.1c-1.3,0-2.4,0-3.5,0c-14.6,0.4-29.2,0.9-43.8,1.4c-2.1,0.1-4.2,0.4-6.2,0.7c-1.3,0.2-2.7,0.6-4.3,0.9
	c0-2.7,0-5.2,0-8.1c-1,0.2-1.9,0.2-2.1,0.6c-1.2,1.9-3.2,1.9-5,1.9c-5-0.1-9.9-0.3-14.9-0.5c-2.3-0.1-4.6-0.4-6.8-0.5
	c-0.3,0.7-0.5,1.1-0.6,1.5c-1.8,6.9-3.8,13.8-5.4,20.7c-3.3,14.5-6.5,29.1-9.7,43.6c-2,9.1-3.7,18.3-6.2,27.2
	C204,510.6,196.9,533,189,555c-0.2,0.6-0.3,1.2-0.6,2c2,0.9,4,1.9,6.3,3c1.3-4.4,2.8-8.5,3.8-12.7c2.2-8.8,4.2-17.7,6.1-26.5
	c2.3-11,4.4-22.1,6.6-33.1c0.1-0.4,0.4-0.8,0.6-1.2c0.2,2.2,0.1,4.3-0.3,6.4c-1.6,8.9-3.2,17.9-5,26.8c-2.9,14.1-6.2,28-10.9,41.6
	c-0.3,0.9-0.5,1.9-0.8,3.2c4.2,0,7.9,0,11.7,0c2.3,0,4.3-0.7,6-2.2c1-0.8,1.9-1.3,3.1-0.1c0.2-1,0.3-1.7,0.4-2.4
	c0.7-7.4,1.5-14.8,2.2-22.2c1-10.3,1.7-20.7,2.9-31c1-8.9,2.4-17.7,4-26.5c1.7-9.2,3.8-18.4,5.8-27.5c0.1-0.5,0.3-1,0.5-1.4
	c0.3,0.6,0.4,1.1,0.3,1.6c-1.9,9.8-3.7,19.5-5.6,29.3c-3.7,19.1-5.3,38.4-6.8,57.7c-0.5,6.3-1.2,12.5-1.8,18.8
	c-0.2,1.9-0.2,3.9-0.3,6c2.7,0.8,5.3,1.8,7.9,2.3c2.4,0.5,4.8,0.1,6.9-1.4c0.8-0.6,1.2-1.1,1.4-2.2c1-9.7,2.2-19.4,3.2-29.1
	c0.9-8.5,1.3-17,1.3-25.6c-0.1-10.5-0.1-21,0.2-31.5c0.1-6.4,0.9-12.9,1.1-19.3c0.3-6.7,0.3-13.4,0.4-20c0.1-8.5,0.1-17.1,0.2-25.6
	c0-4.1,0.2-8.2,0.3-12.3c0-1,0-2.1,0.9-2.9c0.2,1.1,0.2,2.1,0.2,3.2c-0.1,11.3-0.3,22.7-0.4,34c0,4.7,0,9.5,0,14.2
	c0,2.7-0.1,5.4-0.2,8.1c-0.4,7.8-1.1,15.6-1.3,23.5c-0.3,10.7-0.1,21.4-0.3,32.1c-0.1,10.4-0.7,20.8-1.9,31.1
	c-0.7,5.7-1.4,11.4-2,17.1c-0.2,1.6-0.8,3.4,0.9,4.7c0.2,0.1,0.2,0.6,0.3,0.9c0.1,1.1,0.9,1.6,1.9,1.8c3.3,0.6,6.7,0.6,9.9-0.3
	c1.8-0.5,3.3-1.7,3.5-3.9c0.2-1.8,0.6-3.5,0.7-5.3c0.4-4.7,0.8-9.4,1.1-14.1c0.4-6.4,1.1-12.9,1.1-19.3c0.1-10.2,0-20.5-0.4-30.7
	c-0.4-9.2-1.1-18.4-2-27.6c-0.9-9.8-2-19.6-3.1-29.4c-0.7-6.8-1.6-13.6-2.1-20.4c-0.4-4.9-0.5-9.9-0.7-14.9c0-1.1-0.2-2.3,0.9-3.3
	c0,1.3-0.1,2.3,0,3.4c0.4,5.9,0.8,11.8,1.4,17.6c1.1,10.4,2.4,20.8,3.5,31.2c0.9,8.6,1.8,17.1,2.5,25.7c0.6,8.4,1.2,16.7,1.3,25.1
	c0.2,11.9,0.3,23.8-0.7,35.6c-0.6,7.7-1.2,15.3-1.8,23c0,0.6,0,1.3,0.3,1.7c1.5,1.8,3.3,3.4,5.7,3.7c3.2,0.4,6.4,0.6,9.4-0.6
	c3.5-1.4,7.2-2.3,11.1-2c0-0.8,0.1-1.5,0-2.2c-0.6-7-1.1-13.9-2-20.8c-1-7.8-2.3-15.7-3.5-23.5c-1.5-9.9-3.1-19.8-4.4-29.7
	c-0.9-6.3-1.4-12.6-1.9-19c-0.7-8-1.2-15.9-1.7-23.9c-0.4-6.3-0.7-12.6-0.9-18.8c-0.2-6.6-0.4-13.2,0.3-19.8c0.1-0.8,0-1.7,1.2-2.3
	c-1.1,5.7-0.6,11.1-0.4,16.6c0.3,7.7,0.6,15.4,1,23c0.2,4.5,0.3,9,0.7,13.5c0.8,9.5,1.7,19,2.7,28.5c0.7,6.4,1.6,12.8,2.6,19.1
	c1.2,8,2.7,15.9,3.9,23.9c1.2,8,2.1,16,3.1,24c0.7,5.2,1.2,10.3,0.7,15.6c0,0.1,0.1,0.3,0.3,0.6c0.5,0,1,0,1.6,0c0-2.8-0.2-5.4,0-8
	c0.4-6,1-11.9,1.6-17.9c0.9-8.5,1.8-17,2.7-25.5c0.7-6.9,1.5-13.9,2-20.9c0.5-6.8,0.9-13.6,1.1-20.5c0.5-14,0.8-28.1,1.2-42.1
	c0.3-9.9,0.6-19.7,0.9-29.6c0-0.4,0.2-0.9,0.4-1.3c0.2,0,0.3,0.1,0.5,0.1c-0.1,1.6-0.2,3.2-0.2,4.8c-0.1,6.3-0.1,12.6-0.2,18.9
	c-0.1,4.7-0.3,9.5-0.3,14.2c-0.1,7.9,0,15.8-0.2,23.8c-0.2,7.5-0.4,15.1-0.9,22.6c-0.4,6.6-0.9,13.2-1.6,19.7
	c-1,9.7-2.1,19.3-3.1,28.9c-0.6,5.9-1.2,11.7-1.7,17.6c-0.4,4.5-0.6,8.9-0.9,13.5c5.7-1.4,6.7-1.3,12.3,1c0.7,0.3,1.5,0.5,2.5,0.8
	c0.3-2.2,0.7-4.1,0.9-6c1-12.2,2.3-24.4,2.7-36.7c0.4-12.4,0-24.8-0.4-37.3c-0.3-8.9-1.2-17.8-1.7-26.7
	C300.6,459.1,300.7,457,300.7,455z M337,223c-10.1-4.7-20.4-7.5-31.1-8.8c1.5,1.5,3.1,2.9,4.7,4.2c4.8,4,9.3,8.2,13.3,13
	c2,2.4,1.4,5.2-1.1,6.9c0.4,2.3,0.3,2.6-1.8,3.6c-4.7,2.1-9.3,4.3-14.1,6.2c-9.3,3.8-18.8,7.4-28.1,11.2c-5.3,2.2-10.5,4.6-15.3,7.8
	c-0.9,0.6-1.5,1.2-1.5,2.4c-0.2,3.3-0.5,6.6-0.7,10c-0.1,1.3,0.2,2.6,0.3,3.9c0.7,5,1.4,10,2.1,15c0.3,2.1,0.5,4.3,0.8,6.6
	c1.5-0.1,2.9-0.1,4.2-0.2c3-0.2,6-0.6,9-0.7c0.7,0,1.5,0.3,2.1,0.6c3.1,1.5,6.2,3.1,9.3,4.7c0.1,0.1,0.1,0.3,0.3,0.7
	c-3.5-0.9-6.7-2-9.6-4.2c0,0.6-0.1,0.9-0.1,1.2c0.9,5.4,0.8,10.8,0.9,16.3c0,1.8-0.3,3.5-1.5,5c-0.4-0.6-0.7-1.1-1-1.6
	c-4.6,0.8-9.1-0.3-13.4,0.7c-0.3,7.5-0.5,14.7-0.8,21.9c-0.3,7.3-0.7,14.6-0.8,21.9c-0.1,7.2-0.7,14.3-0.5,21.6
	c0.9,0.1,1.6,0.1,2.2,0.1c9.2-0.2,18.5-0.4,27.7-0.7c3.3-0.1,6.7-0.4,10-0.7c5.8-0.6,11.6-1.3,17.3-2c8.8-1.1,17.5-2.4,26.3-3.5
	c5.3-0.7,10.6-1.3,16-1.2c-0.1-1.9-1-3.3-2.4-4.5c-5.4-4.9-8.8-11-10.6-18c-1.3-5.2-3.1-10.2-5.6-15c-1.3-2.4-2.6-4.9-5.2-6.4
	c-0.4-0.2-0.7-0.8-1-1.3c-0.5-0.7-0.8-1.5-1.4-2.1c-2.3-2.5-4.7-5-7.1-7.4c-3.2-3.1-4-7-3.2-11.1c0.8-4,2.2-7.9,3.3-11.9
	c0.6-2.1,1.5-4.1,1.7-6.2c0.5-3.7,0.6-7.4,0.8-11.1c0.2-5.7,0.3-11.3,0.5-17c0.1-1.5,0.3-3,0.5-5c-4.7,2.8-7.7,6.8-11.2,10.3
	c2.6-4.3,5.4-8.4,9.4-11.4c-1.1-2.5-2.9-4.5-3.7-7c2.6,1.5,3.5,4.6,5.7,6.5c1.9-6.6,3.7-13.1,5.5-19.6c1.8-6.4,3.7-12.9,5.7-19.8
	c-0.7,1.1-1.1,1.8-1.5,2.5c-2.7,5.5-5.5,11-8.1,16.5c-1.2,2.6-2.1,5.3-3.4,7.9c-0.5,1.1-1.4,2.1-2.3,2.8c-3.4,2.4-7,4.7-10.5,6.9
	c-1.3,0.8-2.6,1.5-4,2.2c-0.1-0.1-0.2-0.3-0.3-0.4c1-1.3,2.1-2.6,3.5-3.5c3-2,5.9-4,9-5.7c1.7-1,2.8-2.2,3.6-4
	c3.8-9.1,8.1-18,13.2-26.4c1-1.6,2.3-3.1,3.4-4.7c0.2-0.3,0.7-0.4,1.1-0.5c-1.9,5-3.4,10-4.9,15.2c6.1-2.1,11.9-4.2,17.8-6.3
	c-0.2-0.5-0.3-1.1-0.5-1.7c-2-5.7-4.8-10.9-7.6-16.2c-1-1.9-2.5-3.4-4.3-4.5c-4.1-2.4-8.2-4.7-12.4-7c-1.1-0.6-2.3-1.1-3.9-1.9
	c0.3,1.2,0.4,1.9,0.6,2.6c1.3,4.1,2.8,8.2,4,12.4c0.7,2.4,1,4.8,1.3,7.3C337.7,221.1,337.3,221.9,337,223z M214.3,365.9
	c1.1-2.6,2.2-5,3.2-7.5c2.4-6,5.9-11.5,10.1-16.4c1.6-1.9,3.2-3.8,4.6-5.8c0.6-0.8,1-1.7,1.3-2.7c1.3-5.4,1.8-10.9,1.7-16.4
	c-0.1-10.8-0.2-21.6-0.6-32.4c-0.2-6.3,0-12.7-2-18.9c-0.2-0.6-0.3-1.2-0.4-1.8c-2.8-13.4-6-26.6-9.8-39.7c-0.9-3.2-1.7-6.5-4.2-8.9
	c-0.1-0.1-0.3-0.3-0.3-0.4c0-0.4,0-0.8,0.2-1c0.2-0.2,0.8-0.3,1-0.1c0.4,0.3,0.7,0.8,1.1,1.2c2,2.3,2.8,5.3,3.7,8.2
	c1.2,4.1,2.2,8.3,3.1,12.4c1.9,7.8,3.7,15.7,5.6,23.6c2.8,12.2,5.7,24.5,8.3,36.8c1.1,5.4,1.8,10.9,2.4,16.3
	c0.5,4.2-0.2,8.4-2.1,12.2c-1.1,2.3-2.3,4.6-3.7,6.7c-3.4,4.9-7.1,9.6-10.7,14.4c-1,1.4-2,2.8-3.4,4.7c2-0.2,3.4-0.4,4.9-0.4
	c7.3-0.2,14.6-0.4,21.9-0.6c0.2,0,0.3,0,0.5,0c1.2-0.1,1.9,0.4,2.4,1.5c0.2,0.5,0.1,1.2,1,1.3c0.8,0.1,0.9,0.9,0.6,1.4
	c-0.2,0.4-0.9,0.8-1.4,0.9c-1,0.1-2,0-3,0c-0.4,3.6-0.9,7-1.3,10.3c-0.3,2.8-0.5,5.7-1,8.5c-0.2,1.2-0.8,2.4-1.6,3.3
	c-0.4,0.5-1.5,0.3-2.4,0.4c-0.2,0-0.5,0-0.7,0.1c-1.8,1-3.6,0.5-5.5,0.4c-6.1-0.3-12-1.5-17.9-2.7c-1.2-0.2-2.3-0.6-3.5-0.9
	c0-0.2,0-0.3,0-0.5c0.6-0.1,1.3-0.3,1.6-0.4c1.6-6.1,3.2-12,4.8-18c-1.3-0.3-2,0-2.5,1.1c-0.4,0.9-0.8,1.8-1.2,2.8
	c-3.3,7.7-6,15.7-11.3,22.3c-0.6,0.7-0.9,1.6-1.3,2.5c-0.4,0.8-0.7,1.7-1.1,2.6c3.9,0.4,7.5,0.9,11.1,1.2c5.7,0.5,11.4,0.8,17.2,1.4
	c4.6,0.4,9.1,1.1,13.7,1.5c2.8,0.3,5.7,0.3,8.4-0.2c0.7-7.3,1.4-14.4,1.9-21.5c0.8-11.1,1.4-22.3,2-33.5c0.1-2.4,0.2-4.7,0.3-7.1
	c-0.3,0-0.5,0-0.6,0c-0.8,0.3-1.6,0.6-2.4,0.9c-1.7,0.6-1.9,0.6-2.9-0.8c-2.4-3.4-4.7-6.9-7.2-10.3c-0.8-1.1-0.8-2,0.1-3.1
	c2.4-2.9,4.8-5.9,7.1-8.9c0.5-0.7,1.2-0.9,2-0.9c1.2,0,2.4,0,4,0c-0.8-7.7-1.5-15-2.3-22.2c-1.7-1.3-1.8-1.3-1.8-3.3
	c0-1.2,0-2.5,0-3.7c-0.2-3.2-0.1-6.4-0.8-9.5c-1.9-8.4-4.2-16.7-6.2-25.1c-0.3-1.3-0.9-2-2-2.6c-3.4-1.9-7.1-3.1-11-3.5
	c-2-0.2-2.5-1-1.7-2.8c1.5-3.1,2.8-6.3,4.8-9c3.2-4.4,6.8-8.5,10.2-12.7c0.5-0.6,0.9-1.2,1.5-1.8c-0.4-0.1-0.6-0.2-0.7-0.1
	c-7,1.9-14.1,3.8-21.1,5.7c-1.9,0.5-3.9,1-5.9,1.4c-0.5,0.1-1.1-0.3-1.7-0.5c0.2-0.5,0.3-1.2,0.7-1.5c3.1-3.3,4.3-7.4,5.4-11.6
	c-3.4,2.5-6.4,5.3-9.3,8.4c-0.4,0.4-0.6,0.9-0.8,1.4c-2.2,5.5-4.3,11.2-5,17.2c-1.1,10.8-2.2,21.6-3.2,32.4
	c-1.2,12.9-2.2,25.8-3.5,38.7c-0.7,6.9-1.6,13.9-2.6,20.8c-0.9,6-2,11.9-3,17.9c-0.1,0.9,0,1.8,0,2.9c1-0.5,1.6-0.8,2.2-1.1
	c1.4-0.7,2.7-1.5,4.1-2.1c2.3-1,4.6-0.9,6.7,0.5c1.2,0.8,1.1,1.8-0.3,2.4c-0.9,0.4-2,0.6-2.9,0.9c0.2-0.6,0.6-0.8,1-1.1
	c0.4-0.3,0.7-0.7,1.2-1.1c-2.7-1.1-4.9-0.7-6.9,0.9c-0.1,4.6,1.9,25.7,2.6,27.5C209.9,367.3,211.7,365.7,214.3,365.9z M286.2,567.4
	c0.5,3.5,1.2,6.9,1.5,10.2c0.4,4.5,0.6,9,0.8,13.5c0.1,1.9,0,3.7-0.2,5.6c-0.3,4.8-1.5,9.5-2.8,14.1c-2.2,7.9-3.1,16-3.7,24.1
	c-0.5,7.2-0.4,14.4,0.4,21.6c1.3,11.2,1.3,22.5,0.3,33.7c-0.1,1.6-0.3,3.2-0.5,4.9c5.6,1.9,11.2,3.1,17.1,1.4c0.2-0.4,0.4-1,0.6-1.6
	c2.3-8.6,4.9-17.2,6.9-25.9c3.2-14.1,5.9-28.4,9-42.6c1.5-6.9,2.2-13.9,1.9-21c-0.3-7.6-0.5-15.2-0.4-22.8
	c0.1-5.1,0.7-10.2,1.1-15.3c0-0.4,0-0.9,0-1.6c-1.1-0.1-2.1-0.3-3-0.2c-3.6,0.4-7.2,1-10.4,2.9c-2.5,1.5-5.2,1.5-7.8,0.3
	c-1-0.4-2-0.9-3-1.3C291.4,566.7,288.7,566.5,286.2,567.4z M279.1,68.6c0.2,0.1,0.3,0.3,0.5,0.4c-5,5.2-8.5,11.5-12.3,17.5
	c-6.3,9.9-11.4,20.3-14.9,31.5c-2.7,8.7-4.1,17.6-3.1,27.1c3.8-6.6,6.4-13.4,9.2-20.4c-0.7,0-1.3,0-2,0c1.3-1.2,2.8-2.2,3.7-3.5
	c1.8-2.5,3.7-5.1,5-7.8c3.7-7.4,7.1-14.9,10.6-22.3c0.2-0.4,0.5-0.8,0.7-1.2c-1.3,5.2-3.2,10.2-5.4,15c-2.2,4.9-4.6,9.7-7.2,15
	c4.2-2.2,8-4.1,11.7-6.2c6.7-3.9,12.9-8.3,17.4-14.8c0.2-0.2,0.4-0.5,0.7-0.6c1.3-0.3,1.5-1.4,1.8-2.5c0.8-3,1.7-6,2.6-8.9
	c0.1-0.5,0.4-0.9,0.6-1.4c0.1,0,0.3,0.1,0.4,0.1c-1.1,7-3.5,13.7-5.1,21c2.6-3.1,5.1-5.8,7.2-8.7c2.2-3,4.2-6.2,5.8-9.5
	c1.6-3.2,2.7-6.6,4-10.1c0.5,2.3,0.9,4.3,1.3,6.2c0.1,0.7,0.3,1.4,0.4,2.1c0.2,2.8,0.4,5.5,0.6,8.3c1.5-5.1,1.6-10.4,2.5-15.6
	c0.3,0.4,0.4,0.8,0.4,1.1c0.1,4-0.8,8,0.7,11.9c0,0.1,0,0.2,0,0.2c0,4.8,1.3,9.2,3.6,13.4c0.2,0.4,0.5,0.7,1,1.4
	c0.3-3.4,0.6-6.4,0.8-9.4c0.4-4.4,0.8-8.8,1.1-13.2C324,79,322,74.1,318.4,70c-1.5-1.8-3.2-3.5-5.9-3.7c0.1-0.5,0.2-0.9,0.3-1.4
	c0.8-2.3,0.5-4.4-0.9-6.4c-2.2-3.3-5.1-6-8.8-7.3c-11.8-4.1-23.5-3.8-34.7,2.1c-2.5,1.3-4.7,3-6.6,5.1c-3.2,3.5-5.7,7.6-7.7,11.9
	c-3.6,7.4-4.7,15.4-4.9,23.5c-0.1,5-1,9.7-3,14.2c-0.1,0.3-0.2,0.7-0.3,1.1c5.6-5.7,9.2-12.6,12.7-19.6c0.1,0.4,0.2,0.7,0.1,0.9
	c-2.2,5.4-4.6,10.7-7.7,15.6c-0.5,0.8-0.8,1.8-0.9,2.8c-0.2,1.8-0.3,3.7-0.3,5.6c0,2,0,4,0,6.4c0.8-2.5,1.5-4.6,2.3-6.7
	c3.4-9.8,8.3-18.9,13.8-27.7c3.3-5.4,6.9-10.7,11-15.6C277.4,70.1,278.3,69.4,279.1,68.6z M320.3,398.7c0.1,0.7,0.1,1.1,0.2,1.5
	c2.4,11,5,21.9,7.3,33c5.8,27.9,12.8,55.5,20.9,82.8c3.4,11.6,5.6,23.4,6.7,35.4c0.2,2.5,0.4,5.1,0.6,7.7c1.8,0.3,3-0.6,4.3-1.5
	c1.1-0.8,2.4-1.6,3.7-1.9c1.9-0.4,3.7-1,5.4-2.1c1.4-1,2.8-2.1,4.3-3.2c-0.2-2-0.4-4-0.6-6c-0.5-6.1-0.6-12.3-1.4-18.3
	c-0.9-7.5-2-15.1-3.7-22.5c-2.4-10.9-5.4-21.7-8.2-32.4c-2-7.5-4-15-6.1-22.5c-2-7.3-4.2-14.6-5.1-22.2c-0.5-4.2-0.9-8.5-1.6-12.7
	c-0.9-5.1-2-10.2-2-15.4c0-1.2-0.2-2.4-0.4-3.9C336.5,396.7,328.6,398,320.3,398.7z M353.3,240c-0.1-0.1-0.2-0.2-0.4-0.2
	c-0.6,0.7-1.3,1.3-1.7,2c-2.6,4-5.5,7.9-7.7,12.2c-3.4,6.8-6.4,14-9.5,21c-0.2,0.4-0.3,0.9-0.3,1.4c0.2,5,0.3,9.9,0.7,14.9
	c0.6,8.3,1.4,16.5,2.2,24.8c0.6,6.8,1.3,13.6,1.9,20.4c0.1,1.4,0.7,2.5,1.6,3.5c2.4,2.6,4.3,5.5,5.7,8.7c2.3,5,4,10.1,5,15.4
	c0.3,1.4,0.8,2.6,1.6,3.7c3.9-0.9,7.6-0.4,11.2,0.5c0.1-3.9,0.2-7.6,0.4-11.3c0.4-6.5,0.9-13,1.4-19.5c0.4-5.6,1.1-11.3,1.3-16.9
	c0.3-6.4,0.4-12.9,0.4-19.3c0.1-4.6,0.3-9.2-0.1-13.7c-0.6-7-1.6-13.9-2.4-20.8c-1.1-9.6-2.1-19.3-2.2-29c0-1.4-0.4-2.8-0.7-4.3
	c-2.1,0.6-3.8,1.1-5.6,1.6c0.3,2.3-4.2,12.9-6.5,15.3C351.1,246.7,352.2,243.4,353.3,240z M268.3,119.8c-1.4,0.7-2.8,1.6-4.4,2.1
	c-3.1,0.9-4.6,2.8-5.4,5.9c-0.4,1.7-0.6,3.3-0.3,5c0.5,2.7,0.9,5.3,1.4,8c0.6,3.5,1.4,6.8,3.3,9.9c1.6,2.5,3.1,5,4.7,7.5
	c2.9,4.2,6.8,7.5,11.3,9.4c5.4,2.3,11,1.7,15.7-2.4c2.8-2.4,5.3-5,7.9-7.5c4.1-3.8,6-8.6,6.9-14.1c1.2-7.1,2.3-14.3,5.2-21
	c1.5-3.5,1.7-7,1-10.6c-0.4-2-0.9-3.9-1.3-5.9c-0.3-1.3-0.6-2.6-0.8-4c0.2,0,0.4-0.1,0.6-0.1c2.1,4,2.6,8.6,3.9,12.9
	c0.6-1.5,1.1-3,1.5-4.5c0.4-1.3,0.2-2.5-0.4-3.8c-1.8-3.7-3-7.6-3.1-11.8c0-0.3-0.2-0.6-0.3-1c-0.8,2-1.2,4.1-1.7,6
	c-0.7,2.5-1.8,4.3-2.9,5.4c1.6-7.3,0.9-14.6,0-22c-1.4,2.6-2.4,5.3-3.8,7.9c-1.4,2.6-2.9,5.1-4.6,7.5c-1.7,2.4-3.7,4.6-5.7,6.7
	c-2,2.1-4.1,4-6.2,5.9c-0.2-0.1-0.3-0.2-0.5-0.3c1.4-3.3,3.2-6.5,3.8-10.5c-0.9,0.7-1.7,1.1-2.1,1.8c-2.9,3.8-6.5,6.8-10.3,9.7
	c-0.1,0.1-0.2,0.3-0.2,0.3c0.4,0.5,0.7,0.9,1.1,1.4c-2,1-3.8,1.8-5.9,1.7c-0.8,0-1.5,0.2-1.8,1.1c1.2,0.2,2.4,0.4,4,0.6
	c-2,1-2,1-3,2.9c-1.2,2.3-3.5,3-5.7,2.3C268.8,121.8,269.4,120.5,268.3,119.8z M305.9,173.6c-0.2,0.3-0.2,0.4-0.2,0.5
	c0,0.2,0.1,0.5,0.1,0.7c1.7,4.9,1.4,9.8-0.1,14.7c-3.5,11.2-8.2,21.8-16,30.8c-3.7,4.2-6.8,8.8-9.1,14c-2.8,6.6-10.7,20.6-14.9,26.7
	c-0.1,0.2-0.1,0.4-0.3,0.9c0.7-0.4,1.2-0.6,1.6-0.8c5.6-3.1,11.2-6.5,17-9.2c5.5-2.6,11.3-4.7,17-6.9c6.7-2.6,13.5-5.1,20.3-7.6
	c2.5-0.9,3.1-2.5,1.4-4.5c-2.2-2.5-4.4-5-6.8-7.3c-3.7-3.5-7.7-6.8-11.5-10.2c-1-0.9-2-1.9-3.5-2.1c-1-0.1-1.3-1-1-1.7
	c0.4-0.7,1-0.6,1.6-0.4c1.6,0.4,3.3,1,4.9,1.2c7.7,1.3,15.2,2.9,22.4,6c2.4,1,4.9,1.9,7.5,2.9c0-0.9,0.1-1.5,0-2
	c-0.6-2.4-1.1-4.8-1.8-7.2c-1.5-5-3.1-9.9-4.5-14.9c-0.4-1.4-0.9-2.3-2.2-3c-3.8-2.2-7.2-4.8-10.1-8.2c-2.1-2.5-4.3-4.9-6.5-7.3
	C309.5,176.8,307.7,175.2,305.9,173.6z M258.4,193c0.3,3.8,1.1,7.7,2.8,11.3c3,6.2,6.2,12.3,9.4,18.5c2.5,4.8,5.1,9.5,5.7,14.9
	c0,0.3,0.2,0.6,0.4,1.2c0.8-1.5,1.5-2.7,2-4c2.2-5.6,5.4-10.7,9.4-15.2c7.6-8.5,12.3-18.6,15.9-29.3c0.4-1.3,0.7-2.7,1.1-4
	c-1.7-0.6-1.5-2.1-2-3.3c-2.4-5.9-3.3-12.1-3.2-18.4c0-0.5,0-1,0-1.8c-1.8,1.6-3.3,2.9-4.8,4.2c-1.6,1.3-3.3,2.2-5.4,2.6
	c-3.6,0.7-7.1,1.6-10.6-0.5c-0.1,0-0.2,0-0.2-0.1c-1.1-0.5-2.2-1-3.2-1.7c-2-1.4-3.9-2.9-6-4.5c0.1,1.5,0.3,2.7,0.3,3.9
	c0,1.4-0.3,2.8-0.3,4.2c0,2.9-0.3,5.8-1,8.7c-1.2,4.7-3.7,8.3-7.3,11.3C260.4,191.6,259.5,192.2,258.4,193z M278.8,697.3
	c-0.2,0.9-0.4,1.5-0.5,2.2c-1.1,7-2.1,14.1-3.3,21.1c-0.5,2.9-0.6,5.6-0.2,8.5c0.4,3,0.7,6,0.5,9c-0.2,3.5-1,7.1-1.4,10.6
	c-0.5,4.2-0.9,8.3-1.2,12.5c-0.2,4,1.7,6.2,5.7,6.9c1.6,0.3,3.2,0.4,4.8,0.7c1.6,0.3,3,0.2,4.6-0.3c1.8-0.6,3.7-1.2,5.5-1.7
	c1.9-0.5,3.8-1,5.6-1.6c0.7-0.2,1.6-0.6,1.9-1.1c0.9-1.5,1.4-3.2,1.1-5.1c-1.2-5.9-2.2-11.9-3.5-17.8c-1.1-5.1-1.5-10.5-4.2-15.1
	c-0.5-0.9-0.4-1.8,0.1-2.7c0.4-0.7,0.8-1.3,1.3-1.9c1.4-1.6,2-3.5,2-5.6c0-1.6,0-3.1-0.1-4.7c-0.3-3.2-0.4-6.3,0.4-9.4
	c0.1-0.4,0-0.9,0-1.4c-3.5-0.2-7-0.4-10.5-0.6C284.4,699.7,281.4,699.4,278.8,697.3z M258.8,576.2c-0.5,1.2-1,2.2-1.4,3.2
	c-2.4,5.2-2.6,10.4-0.5,15.8c3.3,8.6,6.4,17.3,9.6,26c0.7,1.8,1.4,3.6,1.9,5.4c1.1,3.9,2.2,7.9,3.3,12c2,0,3.6-1,4.6-2.5
	c1.5-2.1,2.8-4.4,4.2-6.7c0.3-0.5,0.4-1.2,0.5-1.8c0.8-6.8,2.1-13.5,4-20.1c1.4-4.9,2.2-10,2.1-15.2c-0.1-2.1-0.2-4.2-0.3-6.3
	c-0.3-5.1-0.7-10.2-1.1-15.3c-0.1-0.8-0.4-1.5-0.5-2.1c-1.8,0.5-3.2,0.9-4.7,1.4c-0.8-1.7-1.7-3.4-2.6-5.3c-2-0.3-4.2,0.1-6.3,0.9
	c-4.2,1.6-8.4,2.1-12.8,1.1c-0.4-0.1-0.7-0.1-1.4-0.2c-0.1,4.6,3.1,8.1,3.6,12.5C259.4,578.7,259.7,577.3,258.8,576.2z M254.9,206
	c-0.5,1-0.7,1.7-1.2,2.2c-2.1,2.5-4.4,4.9-6.4,7.4c-2.4,2.9-4.7,5.8-6.9,8.8c-2,2.7-3.4,5.7-4.4,8.8c13.9,2.9,23.9,10.7,31,22.8
	c0.4-0.6,0.8-1.2,1.1-1.8c1.9-3.4,3.8-6.8,5.8-10.1c1-1.7,1.9-3.3,0.7-5.3c-0.1-0.2-0.1-0.5-0.1-0.7c-0.4-3.4-1.5-6.7-3.1-9.7
	c-2.1-4.1-4.5-8.2-6.5-12.4c-2.2-4.6-4.6-9.2-6.3-14c-2.7-7.8-3.4-15.8,0.4-23.6c0,0,0-0.1-0.2-0.5c-1,0.9-2,1.7-2.9,2.6
	c-1.2,1.3-2.4,2.6-3.6,4c-5.5,6.1-11.6,11.2-19.4,14c-1.6,0.6-2.6,1.6-3.2,3.2c-1.4,4-2.7,8.1-5.3,12c3-0.4,5.3-1.5,7.7-2.2
	c2.4-0.7,4.8-1.3,7.2-1.9c2.5-0.6,4.9-1.3,7.4-1.9C249.3,207.1,251.7,205.9,254.9,206z M346.7,405.3c0.1,0.7,0.2,1.6,0.3,2.4
	c0.7,4.8,1.5,9.7,2.3,14.5c0.8,4.8,1.4,9.7,2.7,14.4c3,11.9,6.4,23.7,9.6,35.5c0.1,0.4,0.3,0.7,0.4,1.1c1.3-0.2,1.9-0.9,2.3-2
	c1.2-3.5,1.8-7.1,2.1-10.7c0.2-2.5,0.8-5.2,0.3-7.6c-2.1-11.9-3.3-24-4.5-36c-0.5-5-0.9-10-1.4-15c-0.1-1.4-0.4-2.8-0.6-4.3
	c-2.3,1.5-4.3,3-6.4,4.3C351.6,403,349.3,404,346.7,405.3z M224.4,354.5c-1.6,6.4-3,12.6-4.6,18.9c8.7,1.7,17.1,2.8,26,1.8
	c1.8-6.7,2.1-13.6,3.1-20.6C240.7,354.5,232.7,354.5,224.4,354.5z M262.5,400c2.9-0.5,5.2-1.1,7.6-1.3c6-0.4,12.1-0.7,18.1-0.8
	c9.3-0.3,18.6-0.3,27.9-0.6c9-0.3,17.9-1.3,26.6-3.9c6.3-1.9,12.5-4.4,19.6-4.7c-0.7-1.1-0.8-2.5-2.4-2.4c-4.9,0.3-9.8,0.5-14.6,1.1
	c-5,0.5-10,1.4-15,2.1c-5.5,0.7-10.9,1.3-16.4,2.1c-9.8,1.3-19.6,2-29.4,2.4c-6.7,0.3-13.3,0.1-20,0.2c-0.6,0-1.2,0.1-2,0.1
	c0,1,0,1.9,0,2.9C262.5,398,262.5,398.9,262.5,400z M278.4,325.5c0.2-6.9-0.9-13.4-1.5-20.2c-1.9,0.1-3.5,0-5.1,0.3
	c-5,0.9-10,0.9-15.1,0.6c-0.8,0-1.3,0.1-1.8,0.7c-2.3,3.2-4.7,6.4-7.1,9.6c2.4,3.9,4.9,7.7,7.8,11.2
	C263,324.4,270.6,325.2,278.4,325.5z M214.7,461.9c0.3-1.1,0.5-1.8,0.7-2.4c3.5-15.3,7-30.7,10.4-46c0.1-0.6,0.5-1.3,0.3-1.8
	c-0.7-2.3,0.1-4.5,0.1-6.7c0-0.8,0-1.7,0-2.7c-3.9-1.1-7.7-2.2-11.7-3.4c-0.1,0.7-0.1,1.1-0.1,1.5c0.5,6.6,1,13.1,1.4,19.7
	c0.2,4,0.6,8-0.6,12c-1.5,4.9-2.6,9.9-4,14.8c-0.8,2.9-0.8,5.6,0.4,8.4c0.4,1,0.7,2.1,1.2,3C213.1,459.5,213.8,460.5,214.7,461.9z
	 M270.9,640.9c0.1,0.8,0.1,1.3,0.2,1.8c1.2,7.5,1.7,15.1,1.1,22.7c-0.5,6.7,0.8,12.9,4,18.8c1.3,2.4,2.3,4.9,3.4,7.4
	c0.2,0.4,0.4,0.7,0.8,1.2c1.1-1.4,1.2-2.9,1.2-4.3c0.1-6,0.2-11.9,0.1-17.9c-0.1-3.6-0.5-7.3-0.8-10.9c-0.6-6.3-1.3-12.7-0.9-19
	c0-0.3-0.1-0.7-0.2-1.2C276.9,641,274.3,643.3,270.9,640.9z M336.7,335.8c-1.3-15.5-2.5-30.4-3.7-45.3c-0.2,0-0.3,0-0.5,0
	c0,1.1,0.1,2.3,0,3.4c-0.2,3.8-0.1,7.7-1.5,11.5c-1.6,4.7-2.9,9.6-4.3,14.5c-0.2,0.6-0.3,1.2-0.2,1.8c0.6,3,1.2,5.9,3.9,7.9
	c1.6,1.3,2.9,3,4.4,4.5C335.3,334.5,335.8,334.9,336.7,335.8z M236.4,281.5c-0.2,0-0.4,0-0.6,0c0.6,16.4,1.3,32.8-0.1,49.2
	c4.3-5.2,6.8-10.9,6.3-17.7c-0.4-5.8-1.3-11.5-2.5-17.2C238.5,291,237.4,286.2,236.4,281.5z M261.1,391.7
	c0.8-21.5,1.5-42.8,2.3-64.2c-2.1,0-2.1,0-2.2,1.7c-0.1,3.2-0.1,6.4-0.3,9.5c-0.5,8.6-1,17.2-1.6,25.8c-0.3,4.9-0.9,9.7-1.2,14.6
	c-0.3,3.2-0.5,6.5-0.6,9.8c-0.1,1.7,0.3,2.2,2,2.6C259.9,391.6,260.4,391.6,261.1,391.7z M354.5,235.6c-0.6,0.1-0.9,0.2-1.1,0.3
	c-3.4,1.1-6.7,2.3-10.1,3.3c-1.4,0.4-2.1,1.2-2.5,2.6c-1.4,5.6-3.1,11.2-4.5,16.8c-0.9,3.7-1.6,7.4-2.3,11.1
	c0.5-0.2,0.7-0.6,0.9-0.9c1.8-4.2,3.5-8.5,5.6-12.5c3.7-7.1,7.6-14.2,13.6-19.9C354.1,236.3,354.2,236,354.5,235.6z M255.7,391.8
	c-0.8,0-1.4-0.1-2,0c-3.1,0.6-6.2,0.3-9.3-0.1c-4.2-0.5-8.3-1-12.5-1.5c-6.4-0.7-12.8-1.2-19.2-1.9c-2.6-0.3-5.2-0.7-7.9-0.4
	c-0.2,0.7-0.3,1.4-0.5,2.1c2.3,0.1,4.4,0.1,6.4,0.4c4.9,0.6,9.7,1.3,14.5,1.9c9.7,1.2,19.4,2.1,29.2,2c0.8,0,1.6-0.1,2.6-0.1
	C256.5,393.3,256.1,392.6,255.7,391.8z M362.9,390.6c-6.1-0.9-11.3,2-17.2,3.2c0.5,3.3,0,6.4,0.8,9.7
	C353.4,400.8,359.4,397.3,362.9,390.6z M204.3,391.9c3.3,2.9,6.9,4.5,10.7,5.7c4.5,1.4,9.2,2.4,13.9,3.7c0.7-2.1,1.4-4.1,2.1-6.1
	C227.7,393.9,207.4,391.3,204.3,391.9z M259.1,264.8c1.8,0.2,1.8,0.2,2.5-0.8c1.2-1.6,2.3-3.3,3.5-4.9c0.6-0.8,0.7-1.5,0.2-2.3
	c-1.7-2.7-3.2-5.5-5.2-8c-1.9-2.3-4.2-4.3-7.1-6.1C255.1,250.3,257.1,257.5,259.1,264.8z M303,767.7c-3.8,2.7-7.7,4.2-11.9,5.4
	c-6.8,1.9-12.7,0.2-17.7-4.8c-0.5-0.5-0.9-0.9-1.7-1.6c0,1.6-0.1,2.9,0,4.1c0,0.5,0.4,1,0.8,1.3c2.5,1.8,5,3.4,7.4,5.2
	c2.1,1.5,4.3,1.7,6.6,0.8c3-1.2,6.1-2.2,9.1-3.4c1.7-0.7,3.3-1.7,4.9-2.7C302,771.1,303,770,303,767.7z M321.2,239.8
	c-0.1-0.3-0.3-0.6-0.4-1c-18.3,6.7-36.8,13-53.2,24.1c0.5-0.1,0.9-0.2,1.3-0.4c6.2-2.7,12.3-5.5,18.6-8.1
	c10.8-4.3,21.7-8.5,32.1-13.7C320,240.4,320.6,240.1,321.2,239.8z M311.3,141.5c0.1,0,0.3,0,0.4,0c1.4-1.5,2.6-3,4.1-4.3
	c1.8-1.7,3.1-3.6,3.7-6c0.6-2.4,1.1-4.8,1.5-7.3c0.1-0.9-0.1-1.9-0.2-2.8c-0.2-0.9-0.7-1.3-1.7-1.2c-1.9,0.1-2.9,0.9-3.5,2.8
	c-0.7,2.7-1.5,5.4-2.1,8.1C312.7,134.4,312,137.9,311.3,141.5z M258.4,191.1c6.5-2.9,10.3-11.6,9.3-17.8
	C260.9,175.9,257.7,181.9,258.4,191.1z M362,369.7c-2.8-0.9-5.5-1.7-8.7-0.7c2.2,3.6,3.8,7.3,7.6,9.7
	C361.3,375.7,361.6,372.9,362,369.7z M278.5,770c-0.1,0.2-0.1,0.3-0.2,0.5c2.1,1.4,4.5,1.9,7,2c4.7,0.2,8.9-1.6,13.1-3.5
	c1.5-0.7,2.8-1.6,4.1-2.6c1.2-0.9,1.2-1,0.1-2.7c-0.4,2.2-2.1,2.5-3.7,3.1c-4,1.3-7.9,2.6-11.9,3.9c-1.8,0.6-3.6,0.9-5.4,0.3
	C280.5,770.6,279.5,770.4,278.5,770z M259.1,282.6c0.8,7.6,1.5,14.8,2.3,22.2c0.7,0,1.2,0,2.2,0c-1-7.5-2-14.9-2.9-22.4
	C259.9,282.5,259.4,282.6,259.1,282.6z M251.6,352.4c0-1.3-0.6-1.6-1.8-1.6c-6.4,0.1-12.9,0.2-19.3,0.3c-1.5,0-3.1,0.1-4.6,0.3
	c-1.1,0.1-1.6,0.7-1.3,1.9c2.8-0.2,5.5-0.5,8.2-0.5c4.8-0.1,9.6-0.1,14.4-0.2c1,0,2,0,2.3-1.2C250.2,351.9,250.4,353,251.6,352.4z
	 M361.4,232c-0.3-0.3-0.5-0.7-0.8-0.8c-0.3-0.1-0.8,0-1.1,0.2c-5.5,1.7-11.1,3.4-16.6,5.2c-1,0.3-1.1,1.1-1,2.1
	C348.3,236.2,354.6,233.6,361.4,232z M257.6,265.3c-1.8-8.2-3.9-16.3-7-24.1c-0.1,0.3-0.1,0.6,0,0.9c1.4,5.5,2.8,10.9,4.2,16.4
	c0.5,2,1,4.1,1.5,6.1C256.5,265.2,256.6,265.8,257.6,265.3z M303.9,177.2c-0.3-2-0.2-4-2.4-5.5c0.8,4.3,2,7.9,3.7,11.5
	c0.8-2.1,0.3-4.2,0-6.2C304.6,177.1,304.3,177.2,303.9,177.2z M213.7,367.3c-2.6,1-4.6,1.8-5.9,4.2c1.5,0.3,2.7,0.5,3.9,0.7
	C212.3,370.6,212.9,369.2,213.7,367.3z M260.5,269.8c-0.1-1.2-0.2-2.2-0.4-3.3c-1.1,0-2,0-3,0c0,1.1,0,2.1,0,3.3
	C258.3,269.8,259.3,269.8,260.5,269.8z M257.1,271.4c0.1,1.3,0.3,2.5,0.4,3.7c1-0.1,1.8-0.2,2.7-0.3c0.1-1.1,0.2-2.2,0.3-3.4
	C259.3,271.4,258.2,271.4,257.1,271.4z M273.5,640.4c2.7,0.2,4.4-2.1,6.6-2.9c0-0.9,0-1.7,0-2.8C278,637,276.2,639.2,273.5,640.4z
	 M280.1,696.1c2.6,2.9,6.2,2,9.4,2.5C286.3,698.1,283.4,696.3,280.1,696.1z M260,278.8c-0.9-0.2-1.6-0.3-2.4-0.5c0,0.9,0,1.6,0,2.3
	c0.7,0.2,1.3,0.3,2.1,0.5C259.8,280.4,259.9,279.8,260,278.8z M362.8,373.3c0.2,0.1,0.3,0.2,0.5,0.2c0.5-0.8,1-1.6,1.7-2.5
	c-0.7-0.3-1.2-0.6-2-0.9C362.9,371.3,362.8,372.3,362.8,373.3z M270.6,119.1c-0.2,1.2,0.3,1.7,1.3,1.6c1-0.1,1.4-0.7,1.2-1.8
	C272.2,119,271.4,119.1,270.6,119.1z M260.4,277.2c-1.1-1.4-2-1.1-3.1-1.1C257.9,278,259,277.2,260.4,277.2z M221.8,353.3
	c2.1-0.2,2.2-0.4,1.2-2C222.6,352,222.3,352.5,221.8,353.3z M228.4,402.8c-0.2,0-0.5,0-0.7,0c0,0.7,0,1.5,0,2.2c0.1,0,0.2,0,0.3,0
	C228.1,404.2,228.2,403.5,228.4,402.8z M278.7,305.4c-0.2,0-0.3,0-0.5,0c0.1,0.5,0.2,1,0.3,1.6c0.1,0,0.1,0,0.2,0
	C278.7,306.4,278.7,305.9,278.7,305.4z M298.1,698.7c0-0.1,0-0.3,0-0.4c-0.8,0.1-1.6,0.1-2.3,0.2c0.6,0.4,1.2,0.5,1.8,0.5
	C297.7,699,297.9,698.8,298.1,698.7z M261.6,267c0.6-0.5,0.9-0.8,1.4-1.2C262.2,265.7,261.5,265.5,261.6,267z"/>
<path class="st0" d="M300.7,455c0,2.1-0.1,4.1,0,6.2c0.5,8.9,1.4,17.8,1.7,26.7c0.4,12.4,0.8,24.9,0.4,37.3
	c-0.4,12.2-1.7,24.5-2.7,36.7c-0.2,1.9-0.5,3.8-0.9,6c-1-0.3-1.8-0.5-2.5-0.8c-5.6-2.3-6.5-2.4-12.3-1c0.3-4.5,0.5-9,0.9-13.5
	c0.5-5.9,1.1-11.7,1.7-17.6c1-9.6,2.2-19.3,3.1-28.9c0.6-6.6,1.2-13.1,1.6-19.7c0.4-7.5,0.7-15,0.9-22.6c0.2-7.9,0.1-15.8,0.2-23.8
	c0-4.7,0.2-9.5,0.3-14.2c0.1-6.3,0.1-12.6,0.2-18.9c0-1.6,0.2-3.2,0.2-4.8c-0.2,0-0.3-0.1-0.5-0.1c-0.1,0.4-0.4,0.9-0.4,1.3
	c-0.3,9.9-0.7,19.7-0.9,29.6c-0.4,14-0.7,28.1-1.2,42.1c-0.2,6.8-0.6,13.7-1.1,20.5c-0.5,7-1.3,13.9-2,20.9
	c-0.9,8.5-1.8,17-2.7,25.5c-0.6,5.9-1.2,11.9-1.6,17.9c-0.2,2.6,0,5.2,0,8c-0.5,0-1.1,0-1.6,0c-0.2-0.3-0.3-0.4-0.3-0.6
	c0.4-5.2-0.1-10.4-0.7-15.6c-1-8-1.9-16-3.1-24c-1.2-8-2.7-15.9-3.9-23.9c-1-6.4-1.9-12.7-2.6-19.1c-1-9.5-1.9-19-2.7-28.5
	c-0.4-4.5-0.5-9-0.7-13.5c-0.3-7.7-0.7-15.4-1-23c-0.2-5.5-0.7-11,0.4-16.6c-1.2,0.5-1.2,1.5-1.2,2.3c-0.7,6.6-0.5,13.2-0.3,19.8
	c0.2,6.3,0.5,12.6,0.9,18.8c0.5,8,1,16,1.7,23.9c0.5,6.3,1.1,12.7,1.9,19c1.3,9.9,3,19.8,4.4,29.7c1.2,7.8,2.5,15.6,3.5,23.5
	c0.9,6.9,1.3,13.9,2,20.8c0.1,0.7,0,1.4,0,2.2c-3.9-0.3-7.5,0.6-11.1,2c-3.1,1.2-6.3,1-9.4,0.6c-2.5-0.3-4.2-1.9-5.7-3.7
	c-0.3-0.4-0.3-1.1-0.3-1.7c0.6-7.7,1.2-15.3,1.8-23c1-11.9,0.9-23.7,0.7-35.6c-0.2-8.4-0.7-16.8-1.3-25.1
	c-0.7-8.6-1.6-17.2-2.5-25.7c-1.1-10.4-2.4-20.8-3.5-31.2c-0.6-5.9-1-11.7-1.4-17.6c-0.1-1.1,0-2.2,0-3.4c-1,1-0.9,2.2-0.9,3.3
	c0.2,5,0.3,9.9,0.7,14.9c0.6,6.8,1.4,13.6,2.1,20.4c1,9.8,2.2,19.6,3.1,29.4c0.8,9.2,1.6,18.4,2,27.6c0.4,10.2,0.5,20.5,0.4,30.7
	c-0.1,6.4-0.7,12.9-1.1,19.3c-0.3,4.7-0.7,9.4-1.1,14.1c-0.2,1.8-0.5,3.5-0.7,5.3c-0.2,2.2-1.7,3.4-3.5,3.9
	c-3.2,0.9-6.6,0.9-9.9,0.3c-1-0.2-1.7-0.7-1.9-1.8c0-0.3-0.1-0.7-0.3-0.9c-1.7-1.3-1.1-3-0.9-4.7c0.7-5.7,1.3-11.4,2-17.1
	c1.2-10.3,1.8-20.7,1.9-31.1c0.1-10.7,0-21.4,0.3-32.1c0.2-7.8,0.8-15.7,1.3-23.5c0.1-2.7,0.2-5.4,0.2-8.1c0-4.7,0-9.5,0-14.2
	c0.1-11.3,0.3-22.7,0.4-34c0-1,0-2.1-0.2-3.2c-1,0.8-0.9,1.9-0.9,2.9c-0.1,4.1-0.3,8.2-0.3,12.3c-0.1,8.5-0.1,17.1-0.2,25.6
	c-0.1,6.7-0.1,13.4-0.4,20c-0.3,6.4-1,12.9-1.1,19.3c-0.2,10.5-0.2,21-0.2,31.5c0.1,8.6-0.4,17.1-1.3,25.6c-1,9.7-2.2,19.4-3.2,29.1
	c-0.1,1.1-0.5,1.7-1.4,2.2c-2.1,1.5-4.5,1.8-6.9,1.4c-2.6-0.5-5.2-1.5-7.9-2.3c0.1-2.2,0.1-4.1,0.3-6c0.6-6.3,1.3-12.5,1.8-18.8
	c1.5-19.3,3.1-38.7,6.8-57.7c1.9-9.8,3.7-19.5,5.6-29.3c0.1-0.5,0-1-0.3-1.6c-0.2,0.5-0.4,0.9-0.5,1.4c-2,9.2-4.1,18.3-5.8,27.5
	c-1.6,8.8-3,17.6-4,26.5c-1.2,10.3-1.9,20.7-2.9,31c-0.7,7.4-1.4,14.8-2.2,22.2c-0.1,0.7-0.2,1.4-0.4,2.4c-1.2-1.2-2.1-0.8-3.1,0.1
	c-1.7,1.5-3.7,2.2-6,2.2c-3.8,0-7.6,0-11.7,0c0.3-1.4,0.5-2.3,0.8-3.2c4.7-13.6,8-27.6,10.9-41.6c1.8-8.9,3.4-17.8,5-26.8
	c0.4-2,0.5-4.1,0.3-6.4c-0.2,0.4-0.5,0.8-0.6,1.2c-2.2,11-4.3,22.1-6.6,33.1c-1.9,8.9-3.9,17.7-6.1,26.5c-1,4.2-2.5,8.3-3.8,12.7
	c-2.3-1.1-4.3-2-6.3-3c0.2-0.9,0.4-1.5,0.6-2c7.9-22.1,15-44.4,21.4-66.9c2.5-8.9,4.2-18.1,6.2-27.2c3.2-14.5,6.4-29.1,9.7-43.6
	c1.6-6.9,3.6-13.8,5.4-20.7c0.1-0.4,0.3-0.9,0.6-1.5c2.2,0.2,4.5,0.4,6.8,0.5c5,0.2,9.9,0.5,14.9,0.5c1.8,0,3.8,0,5-1.9
	c0.2-0.4,1.1-0.3,2.1-0.6c0,2.9,0,5.4,0,8.1c1.7-0.4,3-0.7,4.3-0.9c2.1-0.3,4.1-0.6,6.2-0.7c14.6-0.5,29.2-0.9,43.8-1.4
	c1.1,0,2.2,0,3.5,0c0.6,2.7,1.2,5.4,1.8,8.1c3.9,17.8,7.5,35.7,11.7,53.4c3.5,14.7,7.4,29.3,11.4,43.9c3.5,12.9,7,25.8,8.9,39
	c0.6,4.1,0.8,8.3,1.2,12.5c0.1,0.8,0.1,1.7,0.2,2.7c-0.3,0.1-0.7,0.2-1,0.2c-6.1-0.2-11.9,1.2-17.6,2.9c-1.5,0.5-3,1.1-4.3,2.2
	c-1.1,1-2.6,1.1-4.2,0.9c0.6-5.6-0.3-10.9-0.7-16.3c-0.5-5.6-1-11.3-1.7-16.9c-1.1-8.5-2.3-17.1-3.5-25.6
	c-1.6-10.7-3.3-21.5-4.9-32.2c-1.4-9.3-3-18.5-4.4-27.8c-1.3-8.4-2.6-16.9-2.7-25.4c-0.1-5.4-0.2-10.9-0.2-16.3
	c0-1.3,0.3-2.5,0.5-3.9c-1.1,0.3-1.1,1.1-1.1,1.7c-0.3,3.9-0.7,7.7-0.7,11.6c0,5,0.2,10.1,0.7,15.1c1,9.4,2.1,18.8,3.5,28.2
	c2.2,14.8,4.6,29.6,6.8,44.4c1.4,9,2.7,18,3.9,26.9c0.6,4.8,1.1,9.6,1.5,14.4c0.5,4.9,1,9.9,1.3,14.8c0.2,2.4,0,4.8,0,7.5
	c-1.4-0.1-2.9-0.2-4.3-0.4c-6.1-0.9-11.9-0.2-17.4,2.7c-0.6,0.4-1.4,0.5-2.2,0.9c0-0.9-0.1-1.5,0-2.1c0.5-5.3,1.2-10.6,1.6-16
	c0.6-6.7,1-13.3,1.4-20c0.6-9.7,0.3-19.4-0.3-29.1c-0.4-6.2-0.3-12.4-0.7-18.6c-0.3-5.6-1-11.3-1.5-16.9c-0.3-2.9-0.4-5.9-0.6-8.8
	c0-0.5-0.1-1-0.2-1.5C300.9,454.9,300.8,454.9,300.7,455z"/>
<path class="st0" d="M337,223c0.3-1.1,0.7-2,0.6-2.7c-0.3-2.4-0.6-4.9-1.3-7.3c-1.2-4.2-2.7-8.3-4-12.4c-0.2-0.7-0.3-1.5-0.6-2.6
	c1.6,0.7,2.8,1.2,3.9,1.9c4.1,2.3,8.3,4.6,12.4,7c1.8,1.1,3.3,2.6,4.3,4.5c2.9,5.3,5.7,10.5,7.6,16.2c0.2,0.6,0.3,1.2,0.5,1.7
	c-5.9,2.1-11.7,4.1-17.8,6.3c1.4-5.2,3-10.2,4.9-15.2c-0.4,0.2-0.8,0.3-1.1,0.5c-1.2,1.5-2.4,3-3.4,4.7c-5.1,8.5-9.5,17.3-13.2,26.4
	c-0.8,1.8-1.9,3-3.6,4c-3.1,1.7-6,3.8-9,5.7c-1.4,0.9-2.5,2.2-3.5,3.5c0.1,0.1,0.2,0.3,0.3,0.4c1.3-0.7,2.7-1.4,4-2.2
	c3.5-2.3,7.1-4.5,10.5-6.9c1-0.7,1.8-1.7,2.3-2.8c1.2-2.6,2.2-5.3,3.4-7.9c2.6-5.5,5.4-11,8.1-16.5c0.4-0.8,0.9-1.4,1.5-2.5
	c-2,6.9-3.8,13.3-5.7,19.8c-1.8,6.5-3.6,13-5.5,19.6c-2.1-1.9-3-5-5.7-6.5c0.7,2.5,2.6,4.5,3.7,7c-4,3.1-6.8,7.1-9.4,11.4
	c3.5-3.5,6.5-7.5,11.2-10.3c-0.2,2-0.4,3.5-0.5,5c-0.2,5.7-0.3,11.3-0.5,17c-0.2,3.7-0.3,7.5-0.8,11.1c-0.3,2.1-1.1,4.2-1.7,6.2
	c-1.1,4-2.5,7.9-3.3,11.9c-0.8,4.1,0,8,3.2,11.1c2.5,2.4,4.8,4.9,7.1,7.4c0.6,0.6,0.9,1.4,1.4,2.1c0.3,0.4,0.5,1,1,1.3
	c2.6,1.4,3.9,3.9,5.2,6.4c2.5,4.7,4.3,9.8,5.6,15c1.8,7,5.2,13.1,10.6,18c1.4,1.3,2.3,2.7,2.4,4.5c-5.4-0.2-10.7,0.5-16,1.2
	c-8.8,1.1-17.5,2.4-26.3,3.5c-5.8,0.7-11.5,1.4-17.3,2c-3.3,0.3-6.6,0.6-10,0.7c-9.2,0.3-18.5,0.4-27.7,0.7c-0.6,0-1.2-0.1-2.2-0.1
	c-0.2-7.2,0.4-14.4,0.5-21.6c0.1-7.3,0.5-14.6,0.8-21.9c0.3-7.2,0.5-14.4,0.8-21.9c4.3-1,8.8,0.2,13.4-0.7c0.3,0.5,0.7,1.1,1,1.6
	c1.2-1.5,1.6-3.2,1.5-5c-0.1-5.4,0-10.9-0.9-16.3c0-0.3,0-0.6,0.1-1.2c2.9,2.3,6.1,3.3,9.6,4.2c-0.2-0.4-0.2-0.7-0.3-0.7
	c-3.1-1.6-6.2-3.2-9.3-4.7c-0.6-0.3-1.4-0.6-2.1-0.6c-3,0.2-6,0.5-9,0.7c-1.4,0.1-2.7,0.2-4.2,0.2c-0.3-2.4-0.5-4.5-0.8-6.6
	c-0.7-5-1.4-10-2.1-15c-0.2-1.3-0.4-2.6-0.3-3.9c0.2-3.3,0.5-6.6,0.7-10c0.1-1.2,0.7-1.8,1.5-2.4c4.8-3.2,10-5.6,15.3-7.8
	c9.3-3.8,18.8-7.4,28.1-11.2c4.7-1.9,9.4-4.1,14.1-6.2c2.1-1,2.2-1.2,1.8-3.6c2.5-1.7,3.1-4.5,1.1-6.9c-4-4.8-8.5-9-13.3-13
	c-1.6-1.3-3.2-2.7-4.7-4.2C316.6,215.5,326.9,218.3,337,223z M339.1,381.5c1-1.2,2.1-2.2,0.7-3.8c-0.2-0.3,0-0.9,0-1.4
	c0-4.2-0.1-8.4-0.1-12.6c0-3.2,0-6.3,0-9.5c0.5-0.2,1-0.4,1.5-0.6c0.1-0.7,0.2-1.3,0.2-1.9c0.1-2.2-0.6-2.8-2.8-2.7
	c-2.2,0.1-4.5,0.3-6.7,0.3c-8.5,0-17,0-25.5,0c-0.9,0-1.8,0.2-1.9,1.3c0,1.4,0.1,2.7,0.2,4.2c1.6,0.1,3,0.2,4.3,0.3
	c-0.4,6.5-0.8,12.8-1.1,19c-0.1,2.4,0.3,2.7,2.5,3.5c8.5,2.8,17.3,4.4,26.3,3.8C337.3,381.3,338.1,381.4,339.1,381.5z M271.5,288.9
	c3.5-2.9,7.5-4.1,11-6.4c-0.8-0.1-1.5,0-2.2,0.2c-1.9,0.8-3.7,1.6-5.5,2.5c-2,1.1-3.8,2.3-5.7,3.5c-0.7,0.5-1.4,1.1-0.6,2.2
	c7.7-0.4,15.3,1,23,2.3c-2,0.8-4,1.2-6,1.8c-2,0.6-4.2,0.5-6,1.6c0.3,0.2,0.6,0.2,0.9,0.2c3.8-0.5,7.5-1.1,11.3-1.6
	c1.5-0.2,3.1-0.5,4.5-1c0.4-0.1,0.8-0.7,0.9-1.1c0.1-0.2-0.5-0.6-0.9-0.9c-0.2-0.1-0.4-0.2-0.7-0.2c-2.9-0.5-5.8-1.1-8.7-1.5
	C281.8,289.9,276.8,289.4,271.5,288.9z M272.6,283.1c0.1,0.2,0.2,0.3,0.3,0.5c0.3-0.1,0.7-0.1,1-0.2c5.1-2.3,10.2-4.8,15.4-7
	c3.3-1.4,6.3-3,8.6-5.7c0.9-1,1.7-1.2,3-0.9c1.1,0.3,2.3,0.2,3.4-0.1c2.6-0.6,5.3-1.3,7.9-2c1.2-0.3,2.3-0.2,3.4,0.1
	c2.2,0.7,4.4,1.4,6.7,1.9c2.2,0.5,4.3-0.8,4.9-3.1c-2.1,2.2-4.3,2.2-6.8,1.4c-1.5-0.5-3-0.9-4.4-1.4c-1.4-0.5-2.7-0.4-4.1,0.1
	c-2.2,0.7-4.4,1.5-6.7,2c-1.2,0.3-2.7,0.3-3.8-0.1c-2.1-0.8-3.5-0.2-4.9,1.4c-2.1,2.4-4.9,4-7.9,5.1c-2.4,0.9-4.7,1.9-7.1,2.9
	c-0.4,0.1-0.9,0.5-1.1,0.4c-1.6-1-2.4,0.4-3.4,1c-1.2,0.8-2.3,1.6-3.4,2.4C273.3,282.2,273,282.7,272.6,283.1z M283.1,299.1
	c1,1.8,2.7,2.4,4.5,2.6c2.2,0.2,4.5,0.1,6.7,0.1c0.4,0,0.8-0.2,1.1-0.3c0-0.2,0-0.3,0-0.5C291.2,300.9,287.1,300.7,283.1,299.1z"/>
<path class="st0" d="M214.3,365.9c-2.5-0.2-4.3,1.4-6.3,2.6c-0.7-1.9-2.7-22.9-2.6-27.5c2-1.6,4.3-2,6.9-0.9
	c-0.5,0.4-0.8,0.8-1.2,1.1c-0.3,0.3-0.7,0.5-1,1.1c1-0.3,2-0.5,2.9-0.9c1.3-0.6,1.5-1.6,0.3-2.4c-2.1-1.4-4.4-1.5-6.7-0.5
	c-1.4,0.6-2.8,1.4-4.1,2.1c-0.6,0.3-1.2,0.6-2.2,1.1c0-1.2-0.2-2.1,0-2.9c1-6,2.1-11.9,3-17.9c1-6.9,1.9-13.8,2.6-20.8
	c1.3-12.9,2.3-25.8,3.5-38.7c1-10.8,2-21.6,3.2-32.4c0.6-6,2.7-11.6,5-17.2c0.2-0.5,0.4-1,0.8-1.4c2.9-3,5.9-5.8,9.3-8.4
	c-1.1,4.2-2.4,8.3-5.4,11.6c-0.4,0.4-0.5,1-0.7,1.5c0.6,0.2,1.2,0.6,1.7,0.5c2-0.4,3.9-0.9,5.9-1.4c7-1.9,14.1-3.8,21.1-5.7
	c0.1,0,0.3,0,0.7,0.1c-0.6,0.7-1,1.3-1.5,1.8c-3.4,4.2-7,8.3-10.2,12.7c-2,2.7-3.3,6-4.8,9c-0.9,1.8-0.4,2.6,1.7,2.8
	c3.9,0.4,7.6,1.6,11,3.5c1.1,0.6,1.7,1.3,2,2.6c2,8.4,4.3,16.7,6.2,25.1c0.7,3.1,0.6,6.3,0.8,9.5c0.1,1.2,0,2.5,0,3.7
	c0,2,0,2,1.8,3.3c0.7,7.2,1.5,14.5,2.3,22.2c-1.6,0-2.8,0-4,0c-0.8,0-1.5,0.2-2,0.9c-2.3,3-4.7,6-7.1,8.9c-0.9,1.1-0.9,2-0.1,3.1
	c2.4,3.4,4.7,6.9,7.2,10.3c1,1.4,1.3,1.4,2.9,0.8c0.8-0.3,1.6-0.6,2.4-0.9c0.1,0,0.3,0,0.6,0c-0.1,2.4-0.1,4.8-0.3,7.1
	c-0.6,11.2-1.2,22.3-2,33.5c-0.5,7.1-1.2,14.2-1.9,21.5c-2.7,0.5-5.6,0.5-8.4,0.2c-4.6-0.4-9.1-1.1-13.7-1.5
	c-5.7-0.5-11.4-0.9-17.2-1.4c-3.6-0.3-7.2-0.8-11.1-1.2c0.4-0.9,0.7-1.8,1.1-2.6c0.4-0.8,0.7-1.8,1.3-2.5c5.3-6.7,8-14.7,11.3-22.3
	c0.4-0.9,0.9-1.8,1.2-2.8c0.4-1.1,1.1-1.4,2.5-1.1c-1.6,6-3.2,11.9-4.8,18c-0.3,0.1-1,0.2-1.6,0.4c0,0.2,0,0.3,0,0.5
	c1.2,0.3,2.3,0.7,3.5,0.9c5.9,1.2,11.9,2.5,17.9,2.7c1.8,0.1,3.7,0.6,5.5-0.4c0.2-0.1,0.5-0.1,0.7-0.1c0.8-0.1,2,0.1,2.4-0.4
	c0.8-0.9,1.4-2.1,1.6-3.3c0.5-2.8,0.6-5.7,1-8.5c0.4-3.4,0.8-6.8,1.3-10.3c1.1,0,2,0.1,3,0c0.5-0.1,1.2-0.5,1.4-0.9
	c0.3-0.5,0.2-1.4-0.6-1.4c-0.9-0.1-0.8-0.8-1-1.3c-0.5-1.1-1.2-1.6-2.4-1.5c-0.2,0-0.3,0-0.5,0c-7.3,0.2-14.6,0.4-21.9,0.6
	c-1.4,0-2.9,0.3-4.9,0.4c1.3-1.9,2.3-3.3,3.4-4.7c3.6-4.8,7.2-9.5,10.7-14.4c1.5-2.1,2.6-4.4,3.7-6.7c1.9-3.9,2.5-8,2.1-12.2
	c-0.6-5.5-1.3-10.9-2.4-16.3c-2.6-12.3-5.5-24.5-8.3-36.8c-1.8-7.9-3.7-15.7-5.6-23.6c-1-4.1-2-8.3-3.1-12.4
	c-0.8-2.9-1.6-5.8-3.7-8.2c-0.4-0.4-0.7-0.9-1.1-1.2c-0.2-0.2-0.8-0.1-1,0.1c-0.2,0.2-0.2,0.7-0.2,1c0,0.1,0.1,0.3,0.3,0.4
	c2.6,2.4,3.3,5.7,4.2,8.9c3.8,13.1,7.1,26.4,9.8,39.7c0.1,0.6,0.2,1.2,0.4,1.8c1.9,6.2,1.8,12.6,2,18.9c0.3,10.8,0.4,21.6,0.6,32.4
	c0.1,5.5-0.4,11-1.7,16.4c-0.2,0.9-0.7,1.9-1.3,2.7c-1.5,2-3,3.9-4.6,5.8c-4.3,4.9-7.7,10.3-10.1,16.4
	C216.5,360.9,215.4,363.3,214.3,365.9z"/>
<path class="st0" d="M286.2,567.4c2.5-0.9,5.1-0.8,7.7,0.2c1,0.4,2,0.9,3,1.3c2.7,1.2,5.3,1.1,7.8-0.3c3.2-1.9,6.8-2.6,10.4-2.9
	c1-0.1,2,0.1,3,0.2c0,0.7,0,1.1,0,1.6c-0.4,5.1-1,10.2-1.1,15.3c-0.1,7.6,0.1,15.2,0.4,22.8c0.3,7.1-0.4,14.1-1.9,21
	c-3,14.2-5.8,28.4-9,42.6c-2,8.7-4.6,17.2-6.9,25.9c-0.2,0.6-0.4,1.1-0.6,1.6c-6,1.7-11.5,0.4-17.1-1.4c0.2-1.7,0.4-3.3,0.5-4.9
	c0.9-11.2,1-22.5-0.3-33.7c-0.8-7.2-0.9-14.4-0.4-21.6c0.5-8.1,1.5-16.2,3.7-24.1c1.3-4.7,2.5-9.3,2.8-14.1c0.1-1.9,0.2-3.7,0.2-5.6
	c-0.2-4.5-0.4-9-0.8-13.5C287.4,574.3,286.7,570.9,286.2,567.4z"/>
<path class="st0" d="M279.1,68.6c-0.8,0.8-1.7,1.5-2.4,2.4c-4.1,4.9-7.6,10.2-11,15.6c-5.4,8.8-10.4,17.8-13.8,27.7
	c-0.7,2.1-1.4,4.2-2.3,6.7c0-2.4,0-4.4,0-6.4c0-1.9,0.1-3.7,0.3-5.6c0.1-1,0.4-2,0.9-2.8c3.1-5,5.5-10.3,7.7-15.6
	c0.1-0.3,0.1-0.6-0.1-0.9c-3.5,7-7.1,13.9-12.7,19.6c0.1-0.4,0.1-0.8,0.3-1.1c2-4.5,2.9-9.3,3-14.2c0.1-8.1,1.3-16.1,4.9-23.5
	c2.1-4.3,4.5-8.3,7.7-11.9c1.9-2.1,4.1-3.8,6.6-5.1c11.3-5.9,22.9-6.2,34.7-2.1c3.8,1.3,6.6,4,8.8,7.3c1.3,2,1.7,4.1,0.9,6.4
	c-0.1,0.4-0.2,0.9-0.3,1.4c2.7,0.2,4.4,2,5.9,3.7c3.6,4.1,5.6,8.9,5.2,14.5c-0.3,4.4-0.7,8.8-1.1,13.2c-0.3,3-0.5,6-0.8,9.4
	c-0.5-0.6-0.8-1-1-1.4c-2.3-4.2-3.5-8.6-3.6-13.4c0-0.1,0-0.2,0-0.2c-1.5-3.9-0.6-7.9-0.7-11.9c0-0.4-0.1-0.7-0.4-1.1
	c-0.9,5.2-1,10.5-2.5,15.6c-0.2-2.8-0.4-5.5-0.6-8.3c-0.1-0.7-0.2-1.4-0.4-2.1c-0.4-2-0.8-4-1.3-6.2c-1.4,3.5-2.4,6.9-4,10.1
	c-1.7,3.3-3.7,6.5-5.8,9.5c-2.1,2.9-4.6,5.6-7.2,8.7c1.7-7.4,4-14,5.1-21c-0.1,0-0.3-0.1-0.4-0.1c-0.2,0.5-0.4,0.9-0.6,1.4
	c-0.9,3-1.8,5.9-2.6,8.9c-0.3,1.1-0.5,2.1-1.8,2.5c-0.3,0.1-0.5,0.4-0.7,0.6c-4.4,6.5-10.7,10.9-17.4,14.8c-3.7,2.2-7.5,4-11.7,6.2
	c2.5-5.3,5-10.1,7.2-15c2.2-4.9,4.1-9.8,5.4-15c-0.2,0.4-0.5,0.8-0.7,1.2c-3.5,7.4-6.9,14.9-10.6,22.3c-1.4,2.8-3.2,5.3-5,7.8
	c-1,1.3-2.4,2.3-3.7,3.5c0.7,0,1.3,0,2,0c-2.8,6.9-5.4,13.8-9.2,20.4c-1-9.5,0.4-18.3,3.1-27.1c3.4-11.2,8.6-21.6,14.9-31.5
	c3.8-6,7.3-12.2,12.3-17.5C279.4,68.9,279.3,68.7,279.1,68.6z M311.1,65.2c0.4-1.9-0.5-2.9-1.2-3.9c-2.9-4.1-6.8-7-11.6-8.5
	c-1.6-0.5-3.4-0.7-5-0.6c-4.6,0.3-9,1.6-13,3.9c-0.3,0.2-0.6,0.5-0.9,0.7c0.4,0.2,0.7,0.1,1,0c2.5-0.8,4.9-2,7.5-2.4
	c3.9-0.8,7.8-1.1,11.6,0.7c4,1.9,7.3,4.7,10,8.1C309.9,63.8,310.4,64.3,311.1,65.2z"/>
<path class="st0" d="M320.3,398.7c8.3-0.7,16.2-1.9,24.1-4.4c0.2,1.5,0.4,2.7,0.4,3.9c0,5.2,1.1,10.3,2,15.4
	c0.7,4.2,1.1,8.5,1.6,12.7c0.9,7.6,3.1,14.9,5.1,22.2c2.1,7.5,4.1,15,6.1,22.5c2.8,10.8,5.8,21.6,8.2,32.4c1.7,7.4,2.7,15,3.7,22.5
	c0.8,6.1,0.9,12.2,1.4,18.3c0.2,2,0.4,4,0.6,6c-1.5,1.1-2.8,2.2-4.3,3.2c-1.6,1.1-3.4,1.7-5.4,2.1c-1.3,0.3-2.5,1.1-3.7,1.9
	c-1.3,0.9-2.5,1.8-4.3,1.5c-0.2-2.6-0.4-5.2-0.6-7.7c-1.1-12-3.2-23.8-6.7-35.4c-8.1-27.3-15.1-54.9-20.9-82.8
	c-2.3-11-4.8-22-7.3-33C320.4,399.7,320.4,399.4,320.3,398.7z"/>
<path class="st0" d="M353.3,240c-1.1,3.3-2.2,6.7-3.5,10.3c2.4-2.4,6.8-13,6.5-15.3c1.7-0.5,3.5-1,5.6-1.6c0.2,1.4,0.7,2.8,0.7,4.3
	c0,9.7,1,19.4,2.2,29c0.8,6.9,1.8,13.8,2.4,20.8c0.4,4.6,0.2,9.2,0.1,13.7c-0.1,6.4-0.1,12.9-0.4,19.3c-0.3,5.7-0.9,11.3-1.3,16.9
	c-0.5,6.5-1,13-1.4,19.5c-0.2,3.7-0.3,7.4-0.4,11.3c-3.6-0.9-7.3-1.4-11.2-0.5c-0.8-1.1-1.3-2.3-1.6-3.7c-1.1-5.4-2.8-10.5-5-15.4
	c-1.5-3.2-3.3-6.2-5.7-8.7c-1-1-1.5-2.1-1.6-3.5c-0.6-6.8-1.3-13.6-1.9-20.4c-0.8-8.3-1.5-16.5-2.2-24.8c-0.4-4.9-0.5-9.9-0.7-14.9
	c0-0.4,0.1-0.9,0.3-1.4c3.1-7,6.1-14.1,9.5-21c2.2-4.3,5.1-8.2,7.7-12.2c0.5-0.7,1.2-1.3,1.7-2C353.1,239.9,353.2,239.9,353.3,240z"
	/>
<path class="st0" d="M268.3,119.8c1.1,0.7,0.5,2.1,1.9,2.5c2.3,0.7,4.5,0,5.7-2.3c1-1.9,1-1.9,3-2.9c-1.6-0.2-2.8-0.4-4-0.6
	c0.2-0.9,1-1.1,1.8-1.1c2.1,0,3.9-0.8,5.9-1.7c-0.4-0.5-0.7-0.9-1.1-1.4c0-0.1,0.1-0.2,0.2-0.3c3.8-2.9,7.4-5.9,10.3-9.7
	c0.5-0.6,1.2-1,2.1-1.8c-0.6,4-2.4,7.2-3.8,10.5c0.2,0.1,0.3,0.2,0.5,0.3c2.1-2,4.2-3.9,6.2-5.9c2-2.1,4-4.4,5.7-6.7
	c1.7-2.4,3.2-4.9,4.6-7.5c1.4-2.6,2.4-5.3,3.8-7.9c0.9,7.4,1.7,14.7,0,22c1.2-1,2.2-2.8,2.9-5.4c0.6-2,0.9-4,1.7-6
	c0.1,0.3,0.3,0.6,0.3,1c0,4.2,1.3,8.1,3.1,11.8c0.6,1.3,0.8,2.5,0.4,3.8c-0.4,1.5-0.9,3-1.5,4.5c-1.2-4.3-1.8-8.9-3.9-12.9
	c-0.2,0-0.4,0.1-0.6,0.1c0.3,1.3,0.5,2.6,0.8,4c0.4,2,0.9,3.9,1.3,5.9c0.7,3.6,0.5,7.1-1,10.6c-2.8,6.7-3.9,13.9-5.2,21
	c-0.9,5.5-2.9,10.3-6.9,14.1c-2.7,2.5-5.2,5.1-7.9,7.5c-4.7,4.1-10.3,4.7-15.7,2.4c-4.5-1.9-8.5-5.2-11.3-9.4
	c-1.7-2.4-3.1-5-4.7-7.5c-1.9-3-2.7-6.4-3.3-9.9c-0.5-2.7-0.9-5.3-1.4-8c-0.3-1.7-0.1-3.3,0.3-5c0.7-3.1,2.2-5.1,5.4-5.9
	C265.5,121.4,266.9,120.5,268.3,119.8z M309,119.5c0-0.2,0.1-0.4,0.1-0.6c-4-3.9-13.8-2-15.5,3.3c1.6-1.2,3.1-2.2,4.8-3.5
	c0.2,2.3,1.5,3.4,3.2,3.5c2.1,0.2,2.5-2,3.4-3.2C306.3,119.3,307.6,119.4,309,119.5z M293.2,116.3c0.1,0,0.1,0.1,0.2,0.1
	c0.2-0.1,0.5-0.1,0.6-0.2c4.1-2.4,8.5-3.7,13.3-3.5c0.5,0,1-0.4,1.7-0.6C305.3,109.7,294.9,112.6,293.2,116.3z M279.7,149.9
	c1.1-0.3,1.7-0.6,2.4-0.6c2.3,0,4.6,0.2,7,0.3c0.9,0,1.9-0.2,3.2-0.3c-1.7-1.3-1.7-1.3-3.2-1.4c-4-0.1-7.9-0.3-11.8,1.1
	C278.2,149.3,279.1,149.6,279.7,149.9z M289.4,138.5c-2.3-1.6-7.4-1.6-9.9-0.1C283,138.4,286,139.4,289.4,138.5z M288.1,153.4
	c-2.1-0.8-5.8-0.5-7.8,0.5C282.7,154.7,285.9,154.5,288.1,153.4z M282.4,145.5c0.2,1.1,0.9,1.3,1.7,1.1c0.8-0.2,1.8-0.3,1.7-1.8
	C284.6,145,283.6,145.2,282.4,145.5z"/>
<path class="st0" d="M305.9,173.6c1.8,1.7,3.6,3.2,5.2,5c2.2,2.4,4.4,4.8,6.5,7.3c2.9,3.3,6.3,5.9,10.1,8.2c1.2,0.7,1.8,1.7,2.2,3
	c1.4,5,3,9.9,4.5,14.9c0.7,2.4,1.3,4.8,1.8,7.2c0.1,0.6,0,1.2,0,2c-2.7-1-5.1-1.9-7.5-2.9c-7.2-3.1-14.8-4.7-22.4-6
	c-1.7-0.3-3.3-0.8-4.9-1.2c-0.6-0.2-1.2-0.3-1.6,0.4c-0.4,0.7,0,1.6,1,1.7c1.5,0.2,2.5,1.2,3.5,2.1c3.8,3.4,7.8,6.7,11.5,10.2
	c2.4,2.3,4.7,4.8,6.8,7.3c1.7,2,1.1,3.6-1.4,4.5c-6.8,2.5-13.5,5-20.3,7.6c-5.7,2.2-11.5,4.2-17,6.9c-5.8,2.8-11.3,6.1-17,9.2
	c-0.4,0.2-0.9,0.5-1.6,0.8c0.2-0.5,0.2-0.7,0.3-0.9c4.2-6.1,12-20.1,14.9-26.7c2.2-5.2,5.4-9.8,9.1-14c7.8-9,12.5-19.5,16-30.8
	c1.5-4.9,1.8-9.8,0.1-14.7c-0.1-0.2-0.1-0.4-0.1-0.7C305.7,174,305.7,173.9,305.9,173.6z"/>
<path class="st0" d="M258.4,193c1.1-0.8,2-1.4,2.8-2c3.6-3,6.2-6.6,7.3-11.3c0.7-2.9,1-5.8,1-8.7c0-1.4,0.3-2.8,0.3-4.2
	c0-1.2-0.2-2.4-0.3-3.9c2.1,1.6,4,3.1,6,4.5c1,0.7,2.1,1.1,3.2,1.7c0.1,0,0.2,0,0.2,0.1c3.4,2.1,7,1.2,10.6,0.5
	c2-0.4,3.8-1.3,5.4-2.6c1.5-1.3,3-2.6,4.8-4.2c0,0.8,0,1.3,0,1.8c-0.1,6.3,0.9,12.5,3.2,18.4c0.5,1.2,0.3,2.7,2,3.3
	c-0.4,1.4-0.7,2.7-1.1,4c-3.6,10.7-8.3,20.7-15.9,29.3c-4,4.5-7.1,9.6-9.4,15.2c-0.5,1.3-1.2,2.5-2,4c-0.2-0.7-0.4-0.9-0.4-1.2
	c-0.7-5.4-3.3-10.1-5.7-14.9c-3.2-6.1-6.4-12.3-9.4-18.5C259.5,200.7,258.7,196.8,258.4,193z"/>
<path class="st0" d="M278.8,697.3c2.6,2.1,5.6,2.4,8.5,2.6c3.5,0.2,6.9,0.4,10.5,0.6c0,0.5,0.1,1,0,1.4c-0.9,3.1-0.7,6.2-0.4,9.4
	c0.1,1.5,0.1,3.1,0.1,4.7c0.1,2.1-0.6,4-2,5.6c-0.5,0.6-0.9,1.3-1.3,1.9c-0.5,0.9-0.6,1.8-0.1,2.7c2.7,4.7,3.1,10,4.2,15.1
	c1.3,5.9,2.3,11.9,3.5,17.8c0.4,1.9-0.2,3.6-1.1,5.1c-0.3,0.6-1.2,0.9-1.9,1.1c-1.8,0.6-3.7,1-5.6,1.6c-1.9,0.5-3.7,1.1-5.5,1.7
	c-1.5,0.5-3,0.7-4.6,0.3c-1.6-0.3-3.2-0.4-4.8-0.7c-3.9-0.7-5.9-2.9-5.7-6.9c0.2-4.2,0.7-8.3,1.2-12.5c0.4-3.5,1.2-7,1.4-10.6
	c0.2-3-0.1-6.1-0.5-9c-0.4-2.9-0.3-5.7,0.2-8.5c1.2-7,2.2-14.1,3.3-21.1C278.4,698.8,278.6,698.1,278.8,697.3z"/>
<path class="st0" d="M258.8,576.2c0.9,1.1,0.6,2.5,2.3,2.9c-0.5-4.4-3.7-8-3.6-12.5c0.6,0.1,1,0.1,1.4,0.2c4.4,1,8.6,0.5,12.8-1.1
	c2.1-0.8,4.3-1.2,6.3-0.9c0.9,1.9,1.7,3.6,2.6,5.3c1.5-0.4,2.9-0.8,4.7-1.4c0.1,0.6,0.4,1.3,0.5,2.1c0.4,5.1,0.8,10.2,1.1,15.3
	c0.1,2.1,0.2,4.2,0.3,6.3c0.2,5.2-0.6,10.2-2.1,15.2c-1.9,6.6-3.1,13.3-4,20.1c-0.1,0.6-0.2,1.3-0.5,1.8c-1.3,2.3-2.7,4.6-4.2,6.7
	c-1.1,1.5-2.7,2.5-4.6,2.5c-1.1-4.1-2.2-8.1-3.3-12c-0.5-1.8-1.3-3.6-1.9-5.4c-3.2-8.7-6.3-17.4-9.6-26c-2.1-5.4-1.9-10.6,0.5-15.8
	C257.8,578.4,258.3,577.4,258.8,576.2z M284.3,580.4c-0.1-0.1-0.2-0.3-0.2-0.4c-0.4,0.2-0.9,0.4-1.3,0.7c-2.6,1.3-5.3,2.6-7.9,4
	c-1.6,0.9-3.2,1-4.9,0.1c-1.3-0.7-2.6-1.4-3.9-2c-0.6-0.3-1.1-0.8-2-0.3c1.8,1.7,3.7,3,5.8,4c1.4,0.6,2.9,0.8,4.3,0.3
	C278.2,585.7,281.1,582.9,284.3,580.4z"/>
<path class="st0" d="M254.9,206c-3.3-0.1-5.6,1.1-8,1.6c-2.5,0.6-5,1.2-7.4,1.9c-2.4,0.6-4.8,1.3-7.2,1.9c-2.4,0.7-4.7,1.9-7.7,2.2
	c2.6-3.9,4-7.9,5.3-12c0.5-1.6,1.6-2.6,3.2-3.2c7.8-2.8,14-8,19.4-14c1.2-1.3,2.4-2.7,3.6-4c0.9-0.9,1.9-1.7,2.9-2.6
	c0.1,0.3,0.2,0.4,0.2,0.5c-3.8,7.8-3.1,15.8-0.4,23.6c1.6,4.8,4,9.4,6.3,14c2,4.2,4.3,8.2,6.5,12.4c1.6,3.1,2.7,6.3,3.1,9.7
	c0,0.2,0,0.5,0.1,0.7c1.2,2,0.3,3.6-0.7,5.3c-2,3.3-3.9,6.7-5.8,10.1c-0.3,0.6-0.7,1.2-1.1,1.8c-7.1-12.1-17.1-19.9-31-22.8
	c1.1-3.1,2.5-6.1,4.4-8.8c2.2-3,4.5-5.9,6.9-8.8c2.1-2.5,4.3-4.9,6.4-7.4C254.2,207.7,254.4,207.1,254.9,206z"/>
<path class="st0" d="M346.7,405.3c2.5-1.3,4.9-2.3,7.1-3.5c2.1-1.2,4.1-2.7,6.4-4.3c0.2,1.5,0.5,2.9,0.6,4.3c0.5,5,0.9,10,1.4,15
	c1.2,12,2.3,24.1,4.5,36c0.4,2.4-0.1,5.1-0.3,7.6c-0.3,3.6-0.9,7.2-2.1,10.7c-0.4,1.2-1,1.8-2.3,2c-0.1-0.4-0.3-0.7-0.4-1.1
	c-3.2-11.8-6.5-23.6-9.6-35.5c-1.2-4.7-1.8-9.6-2.7-14.4c-0.8-4.8-1.5-9.6-2.3-14.5C346.9,406.9,346.8,406,346.7,405.3z"/>
<path class="st0" d="M224.4,354.5c8.3,0,16.4,0,24.5,0c-0.9,7-1.3,14-3.1,20.6c-8.9,1.1-17.3-0.1-26-1.8
	C221.3,367.1,222.8,360.9,224.4,354.5z"/>
<path class="st0" d="M262.5,400c0-1,0-2,0-2.9c0-0.9,0-1.8,0-2.9c0.8-0.1,1.4-0.1,2-0.1c6.7-0.1,13.4,0.1,20-0.2
	c9.8-0.4,19.7-1.1,29.4-2.4c5.5-0.7,10.9-1.3,16.4-2.1c5-0.7,10-1.5,15-2.1c4.9-0.5,9.7-0.7,14.6-1.1c1.6-0.1,1.7,1.3,2.4,2.4
	c-7,0.3-13.2,2.8-19.6,4.7c-8.7,2.6-17.6,3.6-26.6,3.9c-9.3,0.3-18.6,0.4-27.9,0.6c-6,0.2-12.1,0.4-18.1,0.8
	C267.8,398.8,265.4,399.5,262.5,400z"/>
<path class="st0" d="M278.4,325.5c-7.8-0.3-15.4-1.1-22.7,2.2c-3-3.5-5.5-7.3-7.8-11.2c2.4-3.3,4.7-6.4,7.1-9.6
	c0.5-0.6,1-0.8,1.8-0.7c5,0.3,10.1,0.3,15.1-0.6c1.6-0.3,3.2-0.2,5.1-0.3C277.6,312.1,278.6,318.6,278.4,325.5z M256.7,319.7
	c2,0,3.7-1.6,3.7-3.6c0-1.5-1.8-3.6-3.1-3.6c-1.6,0-3.8,2.2-3.8,4C253.5,318.4,254.8,319.7,256.7,319.7z"/>
<path class="st0" d="M214.7,461.9c-0.9-1.4-1.5-2.4-2.1-3.5c-0.5-1-0.8-2-1.2-3c-1.2-2.8-1.2-5.5-0.4-8.4c1.4-4.9,2.5-9.9,4-14.8
	c1.2-4,0.8-8,0.6-12c-0.4-6.6-0.9-13.1-1.4-19.7c0-0.4,0.1-0.9,0.1-1.5c4,1.1,7.8,2.2,11.7,3.4c0,1,0,1.8,0,2.7
	c0.1,2.2-0.7,4.4-0.1,6.7c0.2,0.5-0.2,1.2-0.3,1.8c-3.5,15.3-7,30.7-10.4,46C215.2,460.2,215,460.8,214.7,461.9z"/>
<path class="st0" d="M270.9,640.9c3.5,2.4,6,0.2,8.9-1.4c0.1,0.5,0.3,0.8,0.2,1.2c-0.4,6.4,0.3,12.7,0.9,19
	c0.3,3.6,0.7,7.3,0.8,10.9c0.1,6,0,11.9-0.1,17.9c0,1.4-0.1,2.9-1.2,4.3c-0.3-0.5-0.6-0.8-0.8-1.2c-1.1-2.5-2.1-5-3.4-7.4
	c-3.2-5.9-4.5-12.1-4-18.8c0.6-7.6,0.1-15.2-1.1-22.7C271,642.2,271,641.6,270.9,640.9z"/>
<path class="st0" d="M336.7,335.8c-0.9-0.8-1.4-1.3-1.9-1.8c-1.5-1.5-2.7-3.2-4.4-4.5c-2.6-2.1-3.3-5-3.9-7.9
	c-0.1-0.6,0-1.2,0.2-1.8c1.4-4.8,2.6-9.7,4.3-14.5c1.3-3.8,1.2-7.6,1.5-11.5c0.1-1.1,0-2.3,0-3.4c0.2,0,0.3,0,0.5,0
	C334.2,305.4,335.4,320.3,336.7,335.8z"/>
<path class="st0" d="M236.4,281.5c1,4.7,2.1,9.5,3.1,14.3c1.2,5.7,2.1,11.4,2.5,17.2c0.4,6.8-2.1,12.5-6.3,17.7
	c1.4-16.4,0.8-32.8,0.1-49.2C236,281.5,236.2,281.5,236.4,281.5z"/>
<path class="st0" d="M261.1,391.7c-0.7-0.1-1.2-0.1-1.6-0.2c-1.7-0.4-2.1-0.8-2-2.6c0.1-3.3,0.3-6.5,0.6-9.8
	c0.4-4.9,0.9-9.7,1.2-14.6c0.6-8.6,1.1-17.2,1.6-25.8c0.2-3.2,0.2-6.4,0.3-9.5c0.1-1.8,0.1-1.7,2.2-1.7
	C262.6,348.9,261.9,370.2,261.1,391.7z"/>
<path class="st0" d="M354.5,235.6c-0.3,0.5-0.4,0.7-0.6,0.9c-6,5.6-9.8,12.7-13.6,19.9c-2.1,4-3.7,8.3-5.6,12.5
	c-0.2,0.3-0.3,0.7-0.9,0.9c0.8-3.7,1.4-7.5,2.3-11.1c1.4-5.6,3.1-11.2,4.5-16.8c0.4-1.5,1.1-2.2,2.5-2.6c3.4-1,6.8-2.2,10.1-3.3
	C353.7,235.8,354,235.7,354.5,235.6z"/>
<path class="st0" d="M255.7,391.8c0.4,0.8,0.8,1.5,1.4,2.5c-1,0.1-1.8,0.1-2.6,0.1c-9.8,0.1-19.5-0.8-29.2-2
	c-4.8-0.6-9.7-1.4-14.5-1.9c-2.1-0.2-4.2-0.2-6.4-0.4c0.2-0.8,0.3-1.4,0.5-2.1c2.7-0.3,5.3,0.1,7.9,0.4c6.4,0.7,12.8,1.2,19.2,1.9
	c4.2,0.4,8.3,0.9,12.5,1.5c3.1,0.4,6.2,0.6,9.3,0.1C254.3,391.7,254.9,391.8,255.7,391.8z"/>
<path class="st0" d="M362.9,390.6c-3.6,6.7-9.5,10.2-16.4,12.9c-0.8-3.3-0.3-6.4-0.8-9.7C351.6,392.6,356.8,389.7,362.9,390.6z"/>
<path class="st0" d="M204.3,391.9c3.1-0.5,23.4,2,26.6,3.2c-0.7,2-1.4,4.1-2.1,6.1c-4.7-1.2-9.3-2.2-13.9-3.7
	C211.2,396.4,207.6,394.7,204.3,391.9z"/>
<path class="st0" d="M259.1,264.8c-2-7.3-3.9-14.5-6-22.1c2.9,1.8,5.2,3.8,7.1,6.1c2,2.5,3.5,5.3,5.2,8c0.5,0.8,0.4,1.5-0.2,2.3
	c-1.2,1.6-2.4,3.3-3.5,4.9C260.9,265,260.9,265,259.1,264.8z"/>
<path class="st0" d="M303,767.7c0,2.2-1,3.4-2.3,4.3c-1.5,1-3.2,2-4.9,2.7c-3,1.3-6.1,2.3-9.1,3.4c-2.4,0.9-4.5,0.6-6.6-0.8
	c-2.5-1.7-5-3.4-7.4-5.2c-0.4-0.3-0.7-0.8-0.8-1.3c-0.1-1.2,0-2.4,0-4.1c0.7,0.7,1.2,1.1,1.7,1.6c5,5,10.9,6.6,17.7,4.8
	C295.3,772,299.2,770.4,303,767.7z"/>
<path class="st0" d="M321.2,239.8c-0.6,0.3-1.2,0.7-1.8,1c-10.4,5.2-21.3,9.4-32.1,13.7c-6.3,2.5-12.4,5.4-18.6,8.1
	c-0.4,0.2-0.8,0.4-1.3,0.4c16.4-11.1,34.9-17.4,53.2-24.1C320.9,239.1,321,239.4,321.2,239.8z"/>
<path class="st0" d="M311.3,141.5c0.7-3.5,1.4-7.1,2.2-10.6c0.6-2.7,1.4-5.4,2.1-8.1c0.5-1.9,1.6-2.7,3.5-2.8
	c0.9-0.1,1.5,0.3,1.7,1.2c0.2,0.9,0.4,1.9,0.2,2.8c-0.4,2.4-0.9,4.9-1.5,7.3c-0.6,2.4-1.9,4.3-3.7,6c-1.5,1.3-2.7,2.9-4.1,4.3
	C311.5,141.5,311.4,141.5,311.3,141.5z"/>
<path class="st0" d="M258.4,191.1c-0.6-9.2,2.5-15.2,9.3-17.8C268.7,179.5,264.9,188.2,258.4,191.1z"/>
<path class="st0" d="M362,369.7c-0.4,3.2-0.7,6-1,9c-3.8-2.4-5.5-6.1-7.6-9.7C356.5,368,359.2,368.8,362,369.7z"/>
<path class="st0" d="M278.5,770c1,0.3,2.1,0.6,3.1,0.9c1.9,0.7,3.6,0.3,5.4-0.3c4-1.3,7.9-2.7,11.9-3.9c1.7-0.5,3.3-0.9,3.7-3.1
	c1.1,1.7,1.1,1.8-0.1,2.7c-1.3,1-2.6,1.9-4.1,2.6c-4.1,2-8.4,3.7-13.1,3.5c-2.5-0.1-4.9-0.7-7-2C278.4,770.3,278.4,770.2,278.5,770z
	"/>
<path class="st0" d="M259.1,282.6c0.4-0.1,0.8-0.1,1.5-0.2c1,7.5,2,14.8,2.9,22.4c-0.9,0-1.5,0-2.2,0
	C260.6,297.5,259.8,290.2,259.1,282.6z"/>
<path class="st0" d="M251.6,352.4c-1.2,0.6-1.4-0.4-2-1.1c-0.4,1.3-1.3,1.2-2.3,1.2c-4.8,0-9.6,0-14.4,0.2c-2.7,0.1-5.4,0.3-8.2,0.5
	c-0.4-1.2,0.1-1.8,1.3-1.9c1.5-0.1,3.1-0.3,4.6-0.3c6.4-0.1,12.9-0.1,19.3-0.3C251,350.8,251.7,351,251.6,352.4z"/>
<path class="st0" d="M361.4,232c-6.8,1.7-13,4.2-19.5,6.7c-0.1-1,0-1.8,1-2.1c5.5-1.7,11.1-3.5,16.6-5.2c0.4-0.1,0.8-0.2,1.1-0.2
	C360.9,231.3,361.1,231.6,361.4,232z"/>
<path class="st0" d="M257.6,265.3c-1,0.5-1.2-0.1-1.3-0.6c-0.5-2-1-4.1-1.5-6.1c-1.4-5.5-2.8-10.9-4.2-16.4c-0.1-0.3-0.1-0.6,0-0.9
	C253.7,249,255.9,257.1,257.6,265.3z"/>
<path class="st0" d="M303.9,177.2c0.4-0.1,0.7-0.1,1.2-0.2c0.3,2.1,0.8,4.1,0,6.2c-1.6-3.6-2.9-7.2-3.7-11.5
	C303.7,173.3,303.6,175.2,303.9,177.2z"/>
<path class="st0" d="M213.7,367.3c-0.8,1.9-1.4,3.3-2,4.9c-1.2-0.2-2.4-0.4-3.9-0.7C209.1,369.1,211.1,368.3,213.7,367.3z"/>
<path class="st0" d="M260.5,269.8c-1.2,0-2.2,0-3.4,0c0-1.1,0-2.2,0-3.3c1,0,1.9,0,3,0C260.2,267.6,260.3,268.6,260.5,269.8z"/>
<path class="st0" d="M257.1,271.4c1.2,0,2.2,0,3.4,0c-0.1,1.2-0.2,2.3-0.3,3.4c-0.9,0.1-1.7,0.2-2.7,0.3
	C257.3,273.8,257.2,272.7,257.1,271.4z"/>
<path class="st0" d="M273.5,640.4c2.7-1.3,4.5-3.4,6.6-5.8c0,1.1,0,1.9,0,2.8C277.8,638.3,276.2,640.6,273.5,640.4z"/>
<path class="st0" d="M280.1,696.1c3.3,0.2,6.2,1.9,9.4,2.5C286.3,698.1,282.7,699,280.1,696.1z"/>
<path class="st0" d="M260,278.8c-0.1,0.9-0.2,1.5-0.4,2.3c-0.7-0.2-1.3-0.3-2.1-0.5c0-0.7,0-1.4,0-2.3
	C258.4,278.5,259.1,278.7,260,278.8z"/>
<path class="st0" d="M362.8,373.3c0.1-1,0.1-1.9,0.2-3.2c0.7,0.3,1.2,0.6,2,0.9c-0.6,1-1.1,1.8-1.7,2.5
	C363.1,373.5,362.9,373.4,362.8,373.3z"/>
<path class="st0" d="M270.6,119.1c0.8-0.1,1.6-0.1,2.5-0.2c0.2,1.1-0.2,1.8-1.2,1.8C270.9,120.8,270.3,120.3,270.6,119.1z"/>
<path class="st0" d="M260.4,277.2c-1.4,0-2.6,0.7-3.1-1.1C258.5,276.1,259.4,275.9,260.4,277.2z"/>
<path class="st0" d="M221.8,353.3c0.5-0.8,0.8-1.4,1.2-2C224,353,223.9,353.2,221.8,353.3z"/>
<path class="st0" d="M228.4,402.8c-0.2,0.7-0.3,1.5-0.5,2.2c-0.1,0-0.2,0-0.3,0c0-0.7,0-1.5,0-2.2
	C227.9,402.7,228.2,402.8,228.4,402.8z"/>
<path class="st0" d="M278.7,305.4c0,0.5,0,1,0,1.5c-0.1,0-0.1,0-0.2,0c-0.1-0.5-0.2-1-0.3-1.6C278.3,305.4,278.5,305.4,278.7,305.4z
	"/>
<path class="st0" d="M298.1,698.7c-0.2,0.1-0.4,0.2-0.6,0.2c-0.6,0-1.2-0.1-1.8-0.5c0.8-0.1,1.6-0.1,2.3-0.2
	C298.1,698.5,298.1,698.6,298.1,698.7z"/>
<path class="st0" d="M261.6,267c0-1.5,0.6-1.3,1.4-1.2C262.5,266.2,262.2,266.5,261.6,267z"/>
<path d="M339.1,381.5c-1,0-1.8-0.2-2.5-0.1c-9,0.6-17.8-0.9-26.3-3.8c-2.3-0.8-2.7-1.1-2.5-3.5c0.3-6.3,0.7-12.5,1.1-19
	c-1.3-0.1-2.7-0.2-4.3-0.3c-0.1-1.5-0.3-2.8-0.2-4.2c0-1.1,0.9-1.3,1.9-1.3c8.5,0,17,0,25.5,0c2.2,0,4.5-0.2,6.7-0.3
	c2.2-0.1,2.8,0.5,2.8,2.7c0,0.6-0.1,1.2-0.2,1.9c-0.5,0.2-0.9,0.4-1.5,0.6c0,3.2,0,6.4,0,9.5c0,4.2,0.1,8.4,0.1,12.6
	c0,0.5-0.2,1.1,0,1.4C341.1,379.2,340.1,380.3,339.1,381.5z M337.9,379.4c0.5-8.4,0.7-16.6,0.2-24.8c-9.4,0.2-18.7,0.3-28.1,0.5
	c-0.1,7-1.4,13.7-0.9,20.8C318.4,378.9,327.9,380.3,337.9,379.4z M339.6,350.7c-11.2,0.6-22,0.4-32.9-0.4c-0.3,0-0.6,0.1-1,0.2
	c0.1,1.1,0.2,2.1,0.3,3.2c2.2,0,4.1-0.2,6.1-0.2c5.6,0.1,11.2-0.2,16.8-0.4c2.7-0.1,5.4-0.2,8.1-0.3
	C338.1,352.7,339.1,352.4,339.6,350.7z"/>
<path d="M271.5,288.9c5.4,0.6,10.4,1,15.4,1.6c2.9,0.4,5.8,1,8.7,1.5c0.2,0,0.5,0.1,0.7,0.2c0.3,0.3,0.9,0.7,0.9,0.9
	c-0.1,0.4-0.5,1-0.9,1.1c-1.5,0.4-3,0.7-4.5,1c-3.7,0.6-7.5,1.1-11.3,1.6c-0.3,0-0.6,0-0.9-0.2c1.9-1.1,4.1-1,6-1.6c2-0.6,4-1,6-1.8
	c-7.7-1.3-15.3-2.7-23-2.3c-0.8-1.2-0.1-1.8,0.6-2.2c1.9-1.2,3.8-2.5,5.7-3.5c1.8-1,3.6-1.7,5.5-2.5c0.7-0.3,1.4-0.3,2.2-0.2
	C278.9,284.7,274.9,286,271.5,288.9z"/>
<path d="M272.6,283.1c0.4-0.4,0.7-0.9,1.2-1.3c1.1-0.9,2.2-1.7,3.4-2.4c1-0.7,1.8-2,3.4-1c0.2,0.1,0.7-0.3,1.1-0.4
	c2.4-1,4.7-2,7.1-2.9c3-1.1,5.8-2.7,7.9-5.1c1.4-1.6,2.8-2.1,4.9-1.4c1.2,0.4,2.6,0.4,3.8,0.1c2.3-0.5,4.5-1.2,6.7-2
	c1.4-0.5,2.7-0.6,4.1-0.1c1.5,0.5,3,0.9,4.4,1.4c2.4,0.9,4.7,0.8,6.8-1.4c-0.6,2.3-2.6,3.7-4.9,3.1c-2.3-0.5-4.5-1.2-6.7-1.9
	c-1.1-0.4-2.2-0.5-3.4-0.1c-2.6,0.7-5.2,1.4-7.9,2c-1.1,0.2-2.4,0.3-3.4,0.1c-1.3-0.3-2.1-0.2-3,0.9c-2.3,2.7-5.3,4.3-8.6,5.7
	c-5.2,2.2-10.3,4.7-15.4,7c-0.3,0.1-0.7,0.2-1,0.2C272.8,283.5,272.7,283.3,272.6,283.1z"/>
<path d="M283.1,299.1c4,1.6,8.2,1.9,12.4,1.9c0,0.2,0,0.3,0,0.5c-0.4,0.1-0.8,0.3-1.1,0.3c-2.2,0-4.5,0.1-6.7-0.1
	C285.8,301.5,284.1,300.9,283.1,299.1z"/>
<path d="M311.1,65.2c-0.7-0.8-1.2-1.4-1.7-2c-2.7-3.5-6-6.2-10-8.1c-3.8-1.8-7.7-1.5-11.6-0.7c-2.5,0.5-5,1.6-7.5,2.4
	c-0.3,0.1-0.6,0.2-1,0c0.3-0.2,0.6-0.5,0.9-0.7c4-2.3,8.4-3.6,13-3.9c1.7-0.1,3.4,0.1,5,0.6c4.8,1.5,8.7,4.4,11.6,8.5
	C310.6,62.3,311.5,63.3,311.1,65.2z"/>
<path d="M309,119.5c-1.3-0.1-2.6-0.3-4.1-0.4c-0.9,1.2-1.3,3.4-3.4,3.2c-1.7-0.2-2.9-1.3-3.2-3.5c-1.7,1.2-3.1,2.3-4.8,3.5
	c1.7-5.2,11.6-7.1,15.5-3.3C309,119.2,309,119.3,309,119.5z M300,119c1.7,1.9,2.3,1.8,3.1-0.4C302.1,118.7,301.1,118.8,300,119z"/>
<path d="M293.2,116.3c1.7-3.7,12.1-6.6,15.8-4.2c-0.7,0.2-1.2,0.6-1.7,0.6c-4.8-0.2-9.2,1.1-13.3,3.5c-0.2,0.1-0.4,0.2-0.6,0.2
	C293.4,116.4,293.3,116.3,293.2,116.3z"/>
<path d="M279.7,149.9c-0.7-0.2-1.5-0.6-2.4-0.9c3.9-1.4,7.8-1.2,11.8-1.1c1.5,0.1,1.5,0.1,3.2,1.4c-1.3,0.1-2.2,0.3-3.2,0.3
	c-2.3-0.1-4.6-0.3-7-0.3C281.5,149.3,280.8,149.6,279.7,149.9z"/>
<path d="M289.4,138.5c-3.5,1-6.4,0-9.9-0.1C282,136.8,287.1,136.9,289.4,138.5z"/>
<path d="M288.1,153.4c-2.2,1.1-5.4,1.3-7.8,0.5C282.3,152.9,286,152.6,288.1,153.4z"/>
<path d="M282.4,145.5c1.2-0.3,2.3-0.5,3.4-0.7c0.1,1.5-1,1.6-1.7,1.8C283.3,146.7,282.5,146.6,282.4,145.5z"/>
<path d="M284.3,580.4c-3.2,2.5-6.2,5.3-10.2,6.5c-1.5,0.5-2.9,0.3-4.3-0.3c-2.1-1-4-2.3-5.8-4c0.9-0.6,1.4,0,2,0.3
	c1.3,0.6,2.6,1.3,3.9,2c1.7,0.9,3.3,0.7,4.9-0.1c2.6-1.4,5.2-2.7,7.9-4c0.4-0.2,0.9-0.4,1.3-0.7
	C284.2,580.2,284.3,580.3,284.3,580.4z"/>
<path d="M256.7,319.7c-1.9,0-3.2-1.3-3.2-3.2c0-1.8,2.2-4.1,3.8-4c1.3,0,3.1,2.1,3.1,3.6C260.5,318.1,258.8,319.8,256.7,319.7z
	 M259.1,316.2c0-0.9-1.1-1.9-2-1.8c-1.2,0-2.2,1.1-2.1,2.3c0.1,0.9,0.9,1.8,1.8,1.8C257.7,318.4,259.1,317.1,259.1,316.2z"/>
<path class="st0" d="M337.9,379.4c-10,0.9-19.5-0.6-28.8-3.5c-0.5-7,0.8-13.8,0.9-20.8c9.4-0.2,18.7-0.3,28.1-0.5
	C338.6,362.9,338.4,371,337.9,379.4z"/>
<path class="st0" d="M339.6,350.7c-0.5,1.7-1.5,2-2.6,2.1c-2.7,0.1-5.4,0.2-8.1,0.3c-5.6,0.2-11.2,0.4-16.8,0.4
	c-2,0-3.9,0.2-6.1,0.2c-0.1-1.1-0.2-2.1-0.3-3.2c0.4-0.1,0.7-0.2,1-0.2C317.5,351.1,328.4,351.3,339.6,350.7z"/>
<path class="st0" d="M300,119c1.1-0.1,2.1-0.3,3.1-0.4C302.3,120.8,301.7,120.9,300,119z"/>
<path class="st0" d="M259.1,316.2c0,0.9-1.4,2.2-2.3,2.2c-0.9,0-1.7-0.9-1.8-1.8c-0.1-1.2,0.9-2.2,2.1-2.3
	C258,314.3,259,315.3,259.1,316.2z"/>
</svg>
