<?xml version="1.0" encoding="utf-8"?>
<!-- Generator: Adobe Illustrator 19.0.0, SVG Export Plug-In . SVG Version: 6.00 Build 0)  -->
<svg version="1.1" id="图层_1" xmlns="http://www.w3.org/2000/svg" xmlns:xlink="http://www.w3.org/1999/xlink" x="0px" y="0px"
	 viewBox="0 0 595.3 841.9" style="enable-background:new 0 0 595.3 841.9;" xml:space="preserve">
<style type="text/css">
	.st0{fill:#FFFFFF;}
</style>
<path class="st0" d="M574.6,812.5c-184.2,0-368.4,0-552.5,0c0-260.5,0-521,0-781.6c184.2,0,368.4,0,552.5,0
	C574.6,291.5,574.6,552,574.6,812.5z M317.2,411c-0.9-0.6-0.7-1.3-0.4-2.2c0.6-1.6,1.1-3.2,1.7-4.8c1.8-4.8,0.5-9.4-0.6-14
	c1.4,8.1,0.2,15.7-3.7,22.9c-0.1-0.9,0-1.7,0.1-2.6c0.1-2,0.2-4,0.2-6c0-1.1-0.4-2.2,0.9-3c0.4-0.2,0.4-1.1,0.4-1.6
	c-0.2-3.9-1.2-7.6-2.7-11.2c0,0.8,0.1,1.6,0.3,2.4c0.4,2.7,0.9,5.4,1.3,8.1c0.1,0.8,0.3,1.7-1,2c-1.6-3.1-3.3-6.2-5-9.3
	c-1.1-2-1.2-4-0.4-6.2c1.4-4.2,2.8-8.5,3.9-12.8c1.5-5.9,1.5-11.9,1.7-17.9c0.2-5.9-0.1-11.9-0.3-17.8c-0.4-12.3-0.9-24.6-1.3-36.9
	c-0.1-3.8-0.3-7.6,0.1-11.3c0.6-5.5,0.7-11,0.6-16.5c-0.1-5.3-0.2-10.7-0.3-16c-0.1-5.9-0.1-11.9-0.1-17.8c0-0.7-0.1-1.4,0.1-2
	c0.5-1.2,0.2-2.3-0.2-3.4c-0.5-1.5-1.1-2.9-1.7-4.3c-1-2.6-0.8-5.2-0.9-7.9c-0.2-2.5,1.1-4.2,2.7-5.8c0.5-0.5,1.1-1,1.7-1.4
	c4.8-3.2,9.5-6.3,14.3-9.5c0.3-0.2,0.6-0.2,1.1-0.4c0,0.5,0,0.8,0,1c-0.3,4.6-0.6,9.2-0.9,13.8c-0.6,9.7-0.5,19.4-1.8,29.1
	c-1,8.3-1.9,16.7-2.5,25c-0.3,4.4-0.2,8.9,0,13.3c0.2,4.6,0.9,9.2,1,13.8c0.1,7.9-0.9,15.7-1.8,23.5c-1.2,10.4-2.6,20.8-3.7,31.2
	c-0.5,5.1-0.6,10.2,0.1,15.3c0.8,5.1,1.8,10.2,2.5,15.4c0.3,2.3,0.2,4.7,0.1,7.1c-0.1,1.5-0.4,2.9-0.6,4.4c1.8-3.2,2.5-6.6,1.9-10.2
	c-0.5-2.9-1.1-5.8-1.5-8.3c0.8-1.8,1.7-3.2,2.1-4.7c1.6-6,3.2-12.1,4.7-18.1c0.1-0.6,0-1.3-0.3-1.8c-0.7-1.3-1.5-2.5-2.2-3.6
	c0.5-1.2,0.9-2.1,1.3-3c1.3-3.4,2.7-6.7,4-10.1c0.3-0.8,0.7-1.6,1.1-2.4c0.6-1.2,0.4-2.2-0.5-3.3c-2.3-2.7-4.5-5.5-6.8-8.3
	c-0.6-0.7-0.9-1.5-0.8-2.4c0.4-3.3,0.7-6.6,1-10c0.6-6.7,0.7-13.5,0-20.2c-0.6-5.9-1.4-11.8-0.6-17.7c0.9-6.2,1.5-12.5,2.1-18.8
	c0.7-7.3,1.4-14.6,2-21.9c0.3-3.2,0.2-6.4,0.3-9.6c0.2-5.2,0.5-10.4,0.4-15.6c0-2.4,0-4.2,2.6-5.1c1-0.4,1.2-1.3,0.7-2.2
	c-1.1-2.1-2.3-4.1-3.4-6.2c-0.6-1.1-1.5-1.3-2.4-0.8c-0.8-1.3-1.5-2.5-2.3-3.5c-1.2-1.3-2.3-1.2-3.4,0.3c-0.2,0.3-0.4,0.6-0.5,0.6
	c-2.1-0.7-4-1.7-6-1.9c-4.5-0.6-8.8-2.1-13-3.9c-2-0.9-4-2-5.7-3.4c-8.4-6.3-13-14.8-14.4-25.2c-0.1-0.6,0-1.4,0.3-1.9
	c1.7-2.8,2.9-5.8,3.8-9c0.1-0.3,0.2-0.5,0.4-0.8c0.3,2.5,0.3,4.9,0.3,7.4c0,0.4,0.3,0.8,0.5,1.1c0.2,0,0.4-0.1,0.5-0.1
	c0.2-1.6,0.4-3.2,0.6-4.7c0.4-2.9,0.7-5.9,2.2-8.6c2.2-3.9,2.8-8.2,3.1-12.6c0.4-4.8-0.5-9.5-1-14.2c-0.3-3.2-1.3-6.3-3.2-8.9
	c-3-4.2-7.2-6.1-12.3-5.7c-0.5,0-1-0.1-1.9-0.1c7.5-6.5,13.4-13.6,17.4-22.1c-5.8,7.2-10.7,15-17.9,20.6c-1.7-0.8-3.1-1.4-4.5-2
	c2.4-4.5,4.7-8.9,7.1-13.2c1.4-2.5,2.4-5.1,2.7-8c0.2-1.7,0-3.3,0-5c-0.3,0.4-0.4,0.9-0.4,1.3c-0.4,3.1-1,6.2-2.4,9
	c-2.5,5-5.2,9.9-7.7,14.8c-0.6,1.3-1.6,1.8-2.9,2.1c-3.2,0.5-6.2,1.7-8.9,3.4c-2,1.3-4,2.6-5.9,4c-3.8,2.6-5,6.3-4.4,10.7
	c0.1,0.5,0.2,1,0.3,1.5c-0.4,0.3-0.7,0.6-1.1,0.8c-5,2.6-9.9,5.5-15,7.7c-7.9,3.5-16.1,5.6-24.8,5.4c-2.4-0.1-4.8-0.1-7.2-0.2
	c4.2,1.5,10.2,1.6,15.6,0.8c9.6-1.6,18.4-5.2,26.8-9.8c2-1.1,4-2.3,6-3.4c0.9,0.9,0.8,1.7,0.2,2.6c-2,3.1-4,6.3-6,9.4
	c-5.2,7.6-8.8,16-10.8,25c-0.6,2.8-1.2,5.6-1.7,8.3c2.5-6.9,4.8-13.9,7.5-20.8c1.8-4.8,9.6-17.7,11.2-19.1c0,0.4,0,0.8-0.1,1.2
	c-1.1,4.7,0.6,8.7,2.5,12.8c1.2,2.6,2.4,5.2,3.3,8c0.7,2.4,0.9,4.9,1.3,7.4c0.2,1.1,0.6,2,1.6,3.1c-0.4-2.9-0.7-5.3-1.1-7.8
	c-0.4-2.4-0.9-4.7-1.4-7.1c1.1,2.3,1.9,4.7,3,7c1.1,2.3,2.5,4.6,3.7,6.9c0.7,1.3,1.4,2.6,1.8,4c1.1,3.7,2,7.5,2.9,11.2
	c0.1,0.6,0.4,1.2,0.3,1.7c-0.3,3.6-0.7,7.1-2.1,10.4c-1.1,2.6-2.8,4.4-5.4,5.7c-3.2,1.5-6.5,2.6-9.9,3.4c-1.8,0.4-3.5,0.9-5.3,1.4
	c0-0.2-0.1-0.6-0.2-1.3c-2.7,1.4-5.3,2.8-7.8,4.1c-0.3,0.2-0.6,0.5-0.7,0.8c-0.7,1.5-2,2.3-3.3,3.2c-0.7,0.5-1.5,1-2.2,1.5
	c-1.9,1.3-3.1,3.1-3.6,5.4c-0.2,0.8-0.6,1.7-1.1,2.4c-2.3,3.2-4.7,6.3-7.1,9.4c-6.2,8.1-12.4,16.1-18.5,24.2c-3,4-5.7,8.3-8.6,12.4
	c-1.4,2.1-1.3,4,0.2,5.9c1.1,1.3,2.2,2.6,3.4,3.8c4.6,4.4,9.6,8.2,15.3,11c7.9,3.8,13.8,10.1,20,16.1c-0.2,0.3-0.4,0.6-0.5,0.8
	c-5.2,7.3-10.5,14.6-14.5,22.7c-2.1,4.2-4.8,8-8,11.4c-0.9,1-1.8,2-2.7,3c-0.6,0.7-1.1,1.4-1.5,2.2c-1.2,2.4-0.8,4.7,1.2,6.4
	c1,0.9,2.1,1.6,3.3,2.3c2,1.1,4.2,1.9,6.2,3c0.6,0.3,1.4,0.8,1.6,1.4c0.9,2.1,1.6,4.2,1.3,6.5c-0.3,2,0.5,3.5,1.8,4.8
	c1.6,1.5,3.2,3.1,4.8,4.7c0.5,0.5,0.8,1.2,0.9,1.9c0.3,2,0.3,4,0.6,6c1.1,9.3,2.1,18.6,3.5,27.8c1,6.5,1.2,13-0.3,19.4
	c-1.9,8.1-4,16.1-5.8,24.2c-3.8,16.5-8.7,32.7-15.4,48.3c-8.4,19.6-16.7,39.2-25,58.8c-5.4,12.7-10.4,25.6-16,38.2
	c-11,24.9-24.2,48.8-37.9,72.3c-3.6,6.1-8,11.8-12,17.7c-0.9,1.3-2,2.3-3.7,2.7c-3.9,0.9-7.8,1.9-11.6,2.9c-2.4,0.6-4.8,1-7.1,1.9
	c-2.1,0.8-2.2,2.3-0.5,3.7c0.4,0.4,1,0.7,1.5,1c2.7,1.5,5.4,3,8.2,4.5c3.5,1.9,7.2,2.9,11.1,2.6c5.9-0.5,11.8-1,17.7-1.8
	c6.5-0.9,13-2.1,19.6-3.1c2.7-0.4,5.4-0.6,8.1-0.9c0.1,0.2,0.2,0.3,0.2,0.5c-1.3,1.9-2.6,3.9-3.9,5.8c0.3,0.3,0.7,0.5,0.7,0.7
	c0.2,2.3,1.9,3.4,3.7,4.4c3,1.8,5.7,4.1,8,6.6c1.6,1.7,3.2,3.6,4.9,5.1c4.2,3.8,8.5,7.5,13.8,9.6c5.1,2.1,10.5,3.3,16,3.9
	c12.3,1.2,24.5,0.5,36.6-2c3-0.6,6.1-1.1,9.1-1.7c0.5,0.7,0.8,1.3,1.2,1.8c0.7,0.9,1.3,2.2,2.3,2.6c1,0.4,1.7,1.1,2.4,1.7
	c2.8,2.7,6.2,4.4,10,5.1c4,0.7,8,1.5,12.1,2.1c0.9,0.1,2,0.1,2.8-0.2c1.3-0.5,2.6-1.1,3.8-1.9c4.2-2.9,8.4-5.9,12.5-9
	c1.7-1.3,3.4-2.6,5-4.1c4.3-4.1,7.2-9,8.3-14.6c4.2,0.2,8.3,0.4,12.4,0.8c2.5,0.2,5,0.5,7.5,1.1c2.1,0.5,2.1,0.7,2,2.9
	c-0.1,1.8,0.5,2.4,2.2,2.6c0.4,0,0.9-0.1,1.3-0.1c0.5,0,1.1,0,1.5,0.3c4.2,2.6,8.8,4,13.4,5.3c11.5,3,23,5.9,34.5,8.8
	c6.6,1.6,13,1.2,19-2.1c5.2-2.8,10.6-3.7,16.3-2.4c3.4,0.8,6.9,0.7,10.4-0.1c5.1-1.2,10.1-2.6,15.2-3.6c6.1-1.2,12.3-2,18.4-3
	c11.3-1.8,22.6-3.2,34.1-2.9c8.3,0.2,16.4-1.4,24.4-3.6c6.2-1.8,10.3-6.2,13.8-11.4c1-1.6,0.6-2.8-1.3-3.5c-1.2-0.5-2.5-0.8-3.9-1
	c-7.6-1-15.1-2.5-22.6-4c-11.8-2.4-23.1-6-33.6-12c-5.5-3.2-11.3-5.9-17-8.7c-4.1-2-8-4.2-11.5-7.2c-7.1-6.2-15.5-10-24.2-13.4
	c-5.6-2.2-11.3-4.2-16.8-6.4c-6-2.5-11.8-5.2-17.7-7.8c-2.8-1.3-5.1-3.3-6.8-5.9c-1.6-2.5-3.4-4.9-5-7.3
	c-9-13.1-17.5-26.5-24.4-40.9c-4.4-9.2-8.6-18.6-13.2-27.8c-6.7-13.3-13.7-26.5-20.4-39.8c-9-18.1-17.8-36.2-26.7-54.4
	c-1.7-3.4-3.2-6.9-4.4-10.5c-1.9-5.6-3.3-11.2-5.1-16.8c-0.4-1.4-0.4-2.5,0-3.9c2.4-6.8,4.7-13.6,6.9-20.4c0.8-2.3,1.6-4.4,4-5.4
	c0.7-0.3,1.2-0.8,1.8-1.3c3.3-2.6,6.6-5.2,9.9-7.9c1-0.8,2.1-1.3,3.4-1.1c0.7,3.7,2.8,7.8,5.2,10.7c1.5,1.9,2.9,3.9,2.3,6.6
	c-0.4,2-0.6,4.1-0.8,6.2c-0.1,0.8-0.2,1.6-0.1,2.4c0,0.4,0.5,1.2,0.7,1.2c0.5-0.1,1.1-0.4,1.4-0.8c0.4-0.6,0.6-1.4,0.7-2.1
	C315.9,411.2,316.4,410.9,317.2,411c0.4-0.9,0.8-1.7,1.2-2.5c2.3-4.6,3.7-9.3,2.3-14.5c-0.3,2.4-0.4,4.8-0.8,7
	c-0.5,2.4-1.4,4.6-2.1,7C317.5,408.9,317.4,410,317.2,411z"/>
<path d="M317.2,411c-0.9-0.1-1.4,0.3-1.6,1.2c-0.2,0.7-0.4,1.5-0.7,2.1c-0.3,0.4-0.9,0.8-1.4,0.8c-0.2,0-0.7-0.7-0.7-1.2
	c-0.1-0.8,0-1.6,0.1-2.4c0.2-2.1,0.4-4.1,0.8-6.2c0.6-2.7-0.8-4.7-2.3-6.6c-2.4-3-4.5-7.1-5.2-10.7c-1.3-0.2-2.4,0.2-3.4,1.1
	c-3.3,2.6-6.6,5.3-9.9,7.9c-0.6,0.5-1.1,1-1.8,1.3c-2.4,1-3.3,3.1-4,5.4c-2.2,6.9-4.6,13.7-6.9,20.4c-0.5,1.3-0.5,2.5,0,3.9
	c1.7,5.6,3.2,11.3,5.1,16.8c1.2,3.6,2.7,7.1,4.4,10.5c8.8,18.1,17.7,36.3,26.7,54.4c6.7,13.3,13.7,26.5,20.4,39.8
	c4.6,9.2,8.7,18.5,13.2,27.8c6.9,14.4,15.3,27.8,24.4,40.9c1.7,2.4,3.4,4.9,5,7.3c1.7,2.6,4,4.6,6.8,5.9c5.9,2.7,11.7,5.4,17.7,7.8
	c5.5,2.3,11.2,4.3,16.8,6.4c8.7,3.4,17.1,7.2,24.2,13.4c3.4,3,7.4,5.2,11.5,7.2c5.7,2.8,11.5,5.6,17,8.7c10.5,6,21.8,9.6,33.6,12
	c7.5,1.5,15,3,22.6,4c1.3,0.2,2.6,0.5,3.9,1c1.8,0.7,2.3,1.9,1.3,3.5c-3.4,5.2-7.5,9.6-13.8,11.4c-8,2.3-16,3.8-24.4,3.6
	c-11.5-0.3-22.8,1.1-34.1,2.9c-6.2,1-12.3,1.8-18.4,3c-5.1,1-10.1,2.4-15.2,3.6c-3.4,0.8-7,0.8-10.4,0.1c-5.8-1.3-11.2-0.4-16.3,2.4
	c-6,3.3-12.5,3.7-19,2.1c-11.5-2.9-23-5.8-34.5-8.8c-4.7-1.2-9.3-2.7-13.4-5.3c-0.4-0.2-1-0.2-1.5-0.3c-0.4,0-0.9,0.1-1.3,0.1
	c-1.7-0.2-2.3-0.8-2.2-2.6c0.1-2.2,0.1-2.4-2-2.9c-2.4-0.5-5-0.8-7.5-1.1c-4.1-0.3-8.3-0.5-12.4-0.8c-1.1,5.6-4,10.5-8.3,14.6
	c-1.5,1.5-3.2,2.8-5,4.1c-4.1,3-8.3,6-12.5,9c-1.1,0.8-2.4,1.4-3.8,1.9c-0.9,0.3-1.9,0.4-2.8,0.2c-4-0.6-8-1.4-12.1-2.1
	c-3.8-0.7-7.2-2.3-10-5.1c-0.7-0.7-1.4-1.3-2.4-1.7c-1-0.4-1.5-1.7-2.3-2.6c-0.4-0.5-0.7-1.1-1.2-1.8c-3,0.5-6.1,1-9.1,1.7
	c-12.1,2.5-24.3,3.2-36.6,2c-5.5-0.5-10.8-1.8-16-3.9c-5.3-2.2-9.6-5.9-13.8-9.6c-1.8-1.6-3.3-3.4-4.9-5.1c-2.4-2.6-5-4.9-8-6.6
	c-1.7-1-3.5-2.1-3.7-4.4c0-0.2-0.4-0.4-0.7-0.7c1.3-1.9,2.6-3.9,3.9-5.8c-0.1-0.2-0.2-0.3-0.2-0.5c-2.7,0.3-5.4,0.5-8.1,0.9
	c-6.5,1-13,2.2-19.6,3.1c-5.9,0.8-11.8,1.3-17.7,1.8c-4,0.3-7.7-0.7-11.1-2.6c-2.7-1.5-5.5-3-8.2-4.5c-0.5-0.3-1-0.6-1.5-1
	c-1.7-1.4-1.6-2.9,0.5-3.7c2.3-0.8,4.7-1.3,7.1-1.9c3.9-1,7.8-1.9,11.6-2.9c1.6-0.4,2.8-1.4,3.7-2.7c4-5.9,8.4-11.6,12-17.7
	c13.8-23.5,26.9-47.4,37.9-72.3c5.6-12.6,10.7-25.5,16-38.2c8.3-19.6,16.6-39.2,25-58.8c6.7-15.6,11.7-31.7,15.4-48.3
	c1.8-8.1,3.8-16.2,5.8-24.2c1.6-6.5,1.3-12.9,0.3-19.4c-1.4-9.2-2.3-18.5-3.5-27.8c-0.2-2-0.3-4-0.6-6c-0.1-0.7-0.5-1.4-0.9-1.9
	c-1.5-1.6-3.2-3.1-4.8-4.7c-1.4-1.3-2.1-2.8-1.8-4.8c0.3-2.3-0.5-4.4-1.3-6.5c-0.2-0.6-1-1.1-1.6-1.4c-2.1-1-4.2-1.9-6.2-3
	c-1.2-0.6-2.3-1.4-3.3-2.3c-2-1.8-2.4-4-1.2-6.4c0.4-0.8,0.9-1.5,1.5-2.2c0.8-1,1.7-2,2.7-3c3.2-3.4,5.9-7.2,8-11.4
	c4-8.1,9.3-15.3,14.5-22.7c0.2-0.2,0.3-0.5,0.5-0.8c-6.1-6.1-12.1-12.3-20-16.1c-5.7-2.8-10.7-6.7-15.3-11c-1.2-1.2-2.4-2.5-3.4-3.8
	c-1.5-1.9-1.7-3.8-0.2-5.9c2.9-4.1,5.6-8.4,8.6-12.4c6.1-8.1,12.4-16.2,18.5-24.2c2.4-3.1,4.8-6.2,7.1-9.4c0.5-0.7,0.9-1.5,1.1-2.4
	c0.4-2.3,1.7-4.1,3.6-5.4c0.7-0.5,1.5-1,2.2-1.5c1.3-0.9,2.6-1.7,3.3-3.2c0.1-0.3,0.4-0.6,0.7-0.8c2.5-1.4,5.1-2.7,7.8-4.1
	c0.1,0.7,0.2,1.1,0.2,1.3c1.8-0.5,3.5-1,5.3-1.4c3.4-0.8,6.7-1.8,9.9-3.4c2.5-1.2,4.3-3.1,5.4-5.7c1.4-3.3,1.8-6.9,2.1-10.4
	c0-0.6-0.2-1.2-0.3-1.7c-1-3.7-1.9-7.5-2.9-11.2c-0.4-1.4-1.1-2.7-1.8-4c-1.2-2.3-2.6-4.5-3.7-6.9c-1.1-2.3-1.9-4.6-3-7
	c0.5,2.4,1,4.7,1.4,7.1c0.4,2.4,0.7,4.8,1.1,7.8c-1-1.1-1.4-2-1.6-3.1c-0.4-2.5-0.6-5-1.3-7.4c-0.8-2.7-2.1-5.4-3.3-8
	c-1.9-4.1-3.6-8.2-2.5-12.8c0.1-0.3,0-0.7,0.1-1.2c-1.6,1.4-9.4,14.3-11.2,19.1c-2.6,6.9-5,13.9-7.5,20.8c0.6-2.7,1.1-5.5,1.7-8.3
	c2-9,5.6-17.3,10.8-25c2.1-3.1,4-6.3,6-9.4c0.6-1,0.7-1.7-0.2-2.6c-2,1.1-4,2.3-6,3.4c-8.4,4.7-17.2,8.3-26.8,9.8
	c-5.4,0.9-11.4,0.7-15.6-0.8c2.4,0.1,4.8,0.1,7.2,0.2c8.7,0.2,16.9-1.9,24.8-5.4c5.1-2.3,10-5.1,15-7.7c0.4-0.2,0.7-0.5,1.1-0.8
	c-0.1-0.5-0.2-1-0.3-1.5c-0.5-4.4,0.6-8.1,4.4-10.7c2-1.3,3.9-2.7,5.9-4c2.7-1.7,5.7-2.9,8.9-3.4c1.4-0.2,2.3-0.8,2.9-2.1
	c2.5-5,5.2-9.9,7.7-14.8c1.4-2.8,2-5.9,2.4-9c0.1-0.4,0.1-0.9,0.4-1.3c0,1.7,0.2,3.4,0,5c-0.3,2.8-1.3,5.5-2.7,8
	c-2.4,4.4-4.7,8.8-7.1,13.2c1.4,0.6,2.8,1.2,4.5,2c7.2-5.6,12.2-13.4,17.9-20.6c-4.1,8.5-10,15.6-17.4,22.1c0.9,0.1,1.4,0.2,1.9,0.1
	c5.2-0.4,9.3,1.5,12.3,5.7c1.9,2.6,2.9,5.7,3.2,8.9c0.5,4.7,1.4,9.4,1,14.2c-0.3,4.4-0.9,8.7-3.1,12.6c-1.5,2.6-1.8,5.6-2.2,8.6
	c-0.2,1.6-0.4,3.2-0.6,4.7c-0.2,0-0.4,0.1-0.5,0.1c-0.2-0.4-0.5-0.8-0.5-1.1c0-2.4,0-4.9-0.3-7.4c-0.1,0.3-0.3,0.5-0.4,0.8
	c-1,3.1-2.2,6.2-3.8,9c-0.3,0.5-0.4,1.3-0.3,1.9c1.3,10.4,6,18.9,14.4,25.2c1.8,1.3,3.7,2.5,5.7,3.4c4.2,1.8,8.4,3.2,13,3.9
	c2,0.3,3.9,1.2,6,1.9c0,0,0.2-0.3,0.5-0.6c1.1-1.5,2.2-1.6,3.4-0.3c0.9,1,1.5,2.2,2.3,3.5c0.9-0.4,1.8-0.3,2.4,0.8
	c1.1,2.1,2.3,4.2,3.4,6.2c0.5,1,0.3,1.9-0.7,2.2c-2.6,0.9-2.6,2.7-2.6,5.1c0.1,5.2-0.2,10.4-0.4,15.6c-0.1,3.2,0,6.4-0.3,9.6
	c-0.6,7.3-1.3,14.6-2,21.9c-0.6,6.3-1.2,12.6-2.1,18.8c-0.8,6,0,11.8,0.6,17.7c0.7,6.7,0.6,13.5,0,20.2c-0.3,3.3-0.6,6.6-1,10
	c-0.1,1,0.2,1.7,0.8,2.4c2.3,2.7,4.5,5.5,6.8,8.3c0.9,1,1.1,2,0.5,3.3c-0.4,0.8-0.7,1.6-1.1,2.4c-1.3,3.4-2.7,6.7-4,10.1
	c-0.4,0.9-0.8,1.9-1.3,3c0.6,1.1,1.5,2.3,2.2,3.6c0.3,0.5,0.4,1.3,0.3,1.8c-1.5,6-3,12.1-4.7,18.1c-0.4,1.5-1.3,2.9-2.1,4.7
	c0.4,2.5,1,5.4,1.5,8.3c0.6,3.6,0,7-1.9,10.2c0.2-1.5,0.5-2.9,0.6-4.4c0.1-2.4,0.2-4.8-0.1-7.1c-0.7-5.1-1.7-10.2-2.5-15.4
	c-0.8-5.1-0.7-10.2-0.1-15.3c1.1-10.4,2.5-20.8,3.7-31.2c0.9-7.8,1.9-15.6,1.8-23.5c-0.1-4.6-0.8-9.2-1-13.8
	c-0.2-4.4-0.4-8.9,0-13.3c0.6-8.4,1.4-16.7,2.5-25c1.2-9.7,1.2-19.4,1.8-29.1c0.3-4.6,0.6-9.2,0.9-13.8c0-0.3,0-0.6,0-1
	c-0.5,0.2-0.8,0.2-1.1,0.4c-4.8,3.1-9.5,6.3-14.3,9.5c-0.6,0.4-1.2,0.9-1.7,1.4c-1.6,1.6-2.8,3.3-2.7,5.8c0.2,2.7-0.1,5.3,0.9,7.9
	c0.6,1.4,1.2,2.9,1.7,4.3c0.4,1.1,0.7,2.2,0.2,3.4c-0.3,0.6-0.1,1.3-0.1,2c0,5.9,0.1,11.9,0.1,17.8c0.1,5.3,0.2,10.7,0.3,16
	c0.1,5.5-0.1,11-0.6,16.5c-0.4,3.7-0.2,7.6-0.1,11.3c0.4,12.3,0.9,24.6,1.3,36.9c0.2,5.9,0.5,11.9,0.3,17.8
	c-0.2,6-0.3,12.1-1.7,17.9c-1.1,4.3-2.4,8.6-3.9,12.8c-0.8,2.2-0.7,4.2,0.4,6.2c1.7,3.1,3.3,6.2,5,9.3c1.3-0.4,1.2-1.2,1-2
	c-0.4-2.7-0.9-5.4-1.3-8.1c-0.1-0.8-0.3-1.6-0.3-2.4c1.5,3.6,2.5,7.3,2.7,11.2c0,0.6-0.1,1.4-0.4,1.6c-1.2,0.8-0.9,1.9-0.9,3
	c0,2-0.1,4-0.2,6c-0.1,0.9-0.2,1.7-0.1,2.6c3.9-7.2,5.1-14.8,3.7-22.9c1.1,4.6,2.4,9.3,0.6,14c-0.6,1.6-1.1,3.2-1.7,4.8
	C316.5,409.6,316.3,410.4,317.2,411L317.2,411z M301.4,241.3C301.4,241.3,301.4,241.3,301.4,241.3c-0.4,0.4-0.8,0.9-1.2,1.2
	c-3.4,2.2-6.7,4.4-10.1,6.5c-2.4,1.5-4.9,2.9-7.6,4.5c6.3,1.2,11.9,3.3,17.4,6.1c-0.5-1.9-0.1-3.6,0.6-5.1c1.7-3.7,3.4-7.4,5.4-11
	c1.2-2.1,2.6-4.1,4.1-6c1.2-1.6,1.7-3.6,0.6-5.3c-1.6-2.6-2.2-5.5-2.1-8.5c0-0.9,0-1.8,0-2.7c-0.2,0-0.3-0.1-0.5-0.1
	c-3.6,5.5-5.6,11.9-9.9,16.9c2.7-6.6,5.9-12.9,9.5-19.1c-0.8,0.6-1.6,1.2-2.4,1.8c7.4-8.9,17.4-14.3,26.7-20.5
	c-1.3-3.8-2-5.3-3.4-6.7c-1.9,1-3.7,2.2-5.6,3.1c-4.9,2.4-9.4,5.3-13.4,9.1c-1.5,1.5-3.4,2.7-5,4.1c5.9-7.5,13.7-12.4,22.2-16.4
	c-1.1-1.9-1.7-3.8-3.6-4.9c-0.2,0.4-0.4,0.6-0.4,0.9c-0.9,2.8-2.6,5-4.9,6.7c-1.8,1.3-3.7,2.4-5.6,3.6c-2.1,1.4-4.3,2.7-6.3,4.1
	c-4.6,3.3-8.3,7.5-12.1,11.8c-6.1,6.9-11.5,14.4-17.2,21.6c-3.1,3.9-4.7,8.6-6,13.3c2.7-5.2,6.2-9.8,10-14.2
	c-3.2,5.2-6.4,10.3-9.8,15.9c10.2-9.7,18.9-20.1,27.6-30.5c-3.4,5.8-7.3,11.1-11.8,16c-4.5,4.9-9.2,9.5-13.9,14.3
	c2.5,0.4,4.7,0.8,7,1c0.7,0.1,1.5,0,2.1-0.4c2.2-1.2,4.4-2.5,6.5-3.8c3-1.8,5.9-3.7,8.9-5.5C298.5,242.4,300,241.9,301.4,241.3z
	 M236.4,297.5C236.4,297.5,236.4,297.4,236.4,297.5c-1.1,1.5-2,3-3.1,4.5c-1.4,1.9-2.8,3.8-4,5.4c1.6,1.6,3.2,2.8,4.5,4.3
	c1,1.2,1.8,2.7,2.6,4.1c1.1,1.8,2.1,3.6,3.3,5.3c1.7,2.3,3.5,2.7,6,1.2c1.1-0.6,2-1.5,3-2.3c1.5-1.1,3-2.2,4.5-3.2
	c0.7-0.4,1.7-0.7,2.5-0.7c0.6,0,1.6,0.4,1.8,0.9c0.3,0.5,0.1,1.4-0.3,2c-0.4,0.7-1.1,1.2-1.7,1.7c-0.3,0.3-0.6,0.6-1,1.1
	c1.8,0,3.4,0,5.1,0c-0.2-3,0.7-5.6,2.2-7.9c3.2-5.2,6.1-10.7,8.6-16.3c3.6-8.1,7.1-16.3,10.6-24.4c-3.1-1.5-3.6-1.4-5.5,0.8
	c-0.1,0.2-0.3,0.4-0.4,0.5c-1.7,2.4-3.4,4.7-5.3,7.2c0.3-2.1,0.9-3.9,2.1-5.5c1.2-1.5,2.5-3,3.9-4.5c-1.3-0.2-2.3-0.5-3.3-0.6
	c-5.7-0.2-11.4,0-17.1,1.4c-0.6,0.2-1.3,0.3-1.9,0.7c-4.5,2.8-9,5.4-13.4,8.4c-3.1,2.1-6.5,4-8,7.8c-0.1,0.2-0.5,0.3-0.7,0.5
	c-0.7,0.7-1.6,1.3-2.2,2.1c-4.7,6.9-9.7,13.7-13.4,21.2c-2.2,4.4-5,8.2-8.3,11.8c-0.9,0.9-1.7,1.9-2.5,2.8c-0.6,0.8-1.1,1.6-1.6,2.4
	c-0.8,1.4-0.5,2.8,0.6,3.8c1,0.9,2,1.8,3.2,2.4c3.5,1.8,7.1,3.5,11,5.4c-0.5-0.6-0.8-1.2-1.2-1.5c-1-0.8-2.1-1.5-3.1-2.2
	c-1.8-1.3-3.7-2.4-5.5-3.8c-1.6-1.3-1.7-3.1-0.1-4.6c0.7-0.7,1.7-1.3,2.6-1.6c1.7-0.5,3.5-0.8,5.2-1c4-0.5,8.1-0.8,12.2-1.4
	c3-0.4,3.5-1.4,2.4-4.2c-1.4-3.6-2.5-7.3-3.1-11.1c-0.3-1.7-0.1-3.3,1-4.6c1.9-2.3,3.7-4.6,5.6-6.9C235,298.5,235.7,298,236.4,297.5
	z M295.8,591.4c-0.3-0.5-0.7-0.9-0.9-1.4c-2.9-7.2-5.8-14.5-8.5-21.8c-4.6-12.4-9-24.8-13.5-37.2c-2.6-7-5.3-14-7.6-21.1
	c-3.1-9.6-5.1-19.4-4.6-29.5c0-0.4-0.1-0.7-0.2-1.1c-0.1,0-0.2,0-0.4,0c-1.4,4.8-2.8,9.7-4.2,14.5c-0.2-0.3-0.2-0.5-0.2-0.7
	c2-10.1,4.5-20.1,8.1-29.8c6.6-17.5,13.6-34.8,19.3-52.7c1.4-4.3,3.3-8.5,4.4-12.8c1.7-6.4,2.8-12.9,4.3-19.3c0.3-1.1,0.1-2-0.6-2.9
	c-4.2-5.5-8.9-10.5-14.6-14.6c-1.7-1.2-3.2-2.6-4.7-4c-2.9-2.7-4.6-6.1-5.1-10.1c-0.5-4.4-1.1-8.8-1.8-13.2
	c-0.5-2.9-1.6-5.7-3.1-8.3c-0.9-1.5-2-2.3-3.8-2.1c-1.4,0.1-2.8,0.1-4.2,0.1c-1.5-0.1-1.7-0.4-1.4-1.8c0.2-1,0.6-1.9,1.1-3.3
	c-1.1,0.8-2,1.3-2.8,2c-1.3,1-2.5,2.1-3.8,3.1c-3.3,2.3-6.1,1.7-8.5-1.5c-0.5-0.6-0.9-1.3-1.5-2.1c-0.4,0.7-0.7,1.2-1.1,1.6
	c-1.8,2.3-3.2,5-6.3,6c-0.4,0.1-0.8,0.8-1,1.4c-1.9,6-3,12.2-3.2,18.6c-0.2,7.1,0.1,14.2,0.9,21.3c0.6,5.5,1.2,10.9,1.8,16.4
	c1.4,11.3,3.1,22.6,4.3,34c1.1,10,2.3,20,3.8,30c0.6,4,0.4,8.1-0.4,11.9c-0.4-4.3-0.8-8.7-1.3-13.1c-1.1-9.1-2.3-18.3-3.4-27.4
	c-0.4-3.5-0.9-6.9-1.4-10.4c-0.9,3.1-1.3,6.1-2,9.2c-1.3,5.9-2.9,11.8-4.1,17.8c-4.3,19.9-11.1,38.9-19.2,57.5
	c-8.8,20.3-17.6,40.6-25.8,61.1c-14,35.1-31.3,68.6-50.4,101.1c-3.8,6.5-8.3,12.7-13,18.6c-2.7,3.5-6.2,5.9-10.5,7
	c2.6-1.4,4.9-3.1,6.8-5.4c-1.4,0.2-2.6,0.6-3.9,1c-4.1,1-8.2,2-12.3,3.1c-0.8,0.2-1.6,0.6-2.7,1c0.9,0.7,1.4,1.1,2,1.4
	c2.7,1.5,5.3,2.9,8,4.4c3.5,1.9,7.2,2.9,11.1,2.5c6.1-0.6,12.3-1.1,18.4-2c9.3-1.4,18.5-3.4,28-3.8c0.4-0.7,0.8-1.4,1.2-2.2
	c2.5-5.8,5.3-11.4,7.5-17.4c8.6-23.6,17-47.4,25.4-71c0.3-0.8,0.6-1.6,0.9-2.4c0.2,0.3,0.2,0.5,0.2,0.7c-1.9,5.9-3.8,11.9-5.8,17.8
	c-5.5,16-11.1,32-16.7,47.9c-3.1,8.8-6.1,17.7-10.6,25.9c-0.3,0.6-0.3,1.5-0.4,2.2c-0.5,0.4-1.1,0.7-1.5,1.2c-1,1.4-2,2.8-2.9,4.2
	c-0.9,1.3-0.8,2.3,0.3,3.4c0.5,0.5,1.2,0.9,1.8,1.3c1.2,0.7,2.4,1.4,3.6,2.2c3,1.9,5.2,4.6,7.6,7.2c7.2,7.7,15.5,13.4,26.1,15
	c4.5,0.7,9.1,1,13.7,1.3c6.2,0.4,12.3,0,18.4-0.9c5.8-0.8,11.6-1.9,17.3-3c0.3-0.1,0.6-0.3,1-0.4c-0.5-1.7-1-3.2-1.4-4.8
	c-2.8-9.7-3.5-19.7-3.9-29.7c-0.5-12.5-0.7-25.1-1.1-37.6c-0.5-15.1-0.9-30.3-2.2-45.4c-0.8-8.9-1.7-17.9-2.5-26.8
	c0-0.4,0-0.9,0-1.3c0.4,1,0.6,2,0.7,3c0.5,4.3,1.1,8.5,1.5,12.8c0.8,7.7,1.6,15.4,2.1,23c0.5,6.3,0.7,12.6,1,18.9
	c0.4,7.9,0.8,15.9,1.1,23.8c0.5,13,0.9,26,1.5,38.9c0.4,7.3,1.7,14.4,3.6,21.5c1.2,4.6,3.6,8.1,7.4,11c3.1,2.3,6.3,3.8,10.1,4.3
	c3.2,0.5,6.3,0.9,9.4,1.6c2,0.4,3.9,0.3,5.5-0.9c5.8-4.2,11.6-8.3,17.2-12.7c3.4-2.6,6-6,7.8-10.1c1.3-3.1,1-5.6-0.9-8.3
	c-3.7-5.3-6.1-11.2-7.6-17.5c-1.4-5.5-2.5-11-3.9-16.5c-3.6-14.6-6.5-29.4-8.8-44.3c-1.4-9.2-3.4-18.4-5.2-27.6
	c-0.1-0.7-0.3-1.4-0.4-2.1c0.3,0.3,0.5,0.6,0.6,1c1.6,6.9,3.3,13.7,4.7,20.6c1.9,9.5,3.2,19,5.2,28.5c2.8,13.1,6,26.2,9.1,39.2
	c1.8,7.7,5.3,14.8,9.7,21.5c3.2,0.1,6.3,0.2,9.5,0.3c4.7,0.1,9.4-0.3,14.2,2.2c-0.6-2.5-1-4.6-1.6-6.6c-1.6-5.2-3.5-10.3-5.1-15.4
	c-3-9.6-5.9-19.3-8.8-28.9c-0.4-1.2-0.7-2.4-1.1-3.6c0,0,0,0,0,0c0.3,0.6,0.8,1.2,1,1.8c1.3,3.9,2.6,7.9,3.9,11.8
	c3.3,9.9,6.6,19.8,10,29.8c1.5,4.4,2.8,8.8,2.7,13.5c0,0.8,0.1,1.6,0.2,2.3c1.6,0.6,3,1.1,4.4,1.5c3.2,1.1,6.4,2.5,9.7,3.3
	c12.2,3.2,24.4,6.2,36.7,9.3c6.2,1.6,12.2,1.1,17.9-2c5.4-2.9,11-3.8,17-2.6c3.7,0.8,7.4,0.7,11-0.2c5-1.3,10.1-2.6,15.1-3.6
	c6.2-1.2,12.5-2,18.7-3c10.9-1.8,21.9-3,33-2.8c7.8,0.1,15.3-1.2,22.9-3.1c6.1-1.5,10.5-5.3,14-10.3c0.3-0.5,0.5-1,0.7-1.6
	c-1.4-1.2-3.1-1.4-4.7-1.6c-8.3-1-16.4-2.8-24.5-4.4c-11.5-2.4-22.5-6-32.7-12c-4.9-2.8-10-5.3-15-7.7c-5.1-2.4-9.9-5.4-14.3-9
	c-2.2-1.8-4.6-3.5-7.1-5c-5.1-3-10.5-5.5-16.1-7.5c-11.6-4.1-23-8.7-34-14.3c-0.3-0.1-0.6-0.2-1.1-0.3c2.5,4.1,4.8,8.1,7.2,12
	c1.5,2.5,3.1,5.1,4.8,7.5c9.5,14.2,21.4,25.8,36.3,34.2c6.8,3.8,13.9,6.9,20.9,10.3c3.2,1.6,6.4,3.1,9.6,4.6c-0.5,0.1-0.9,0-1.3-0.1
	c-5.4-2.2-10.7-4.3-16.1-6.5c-20.5-8.5-37.1-21.8-49.8-40.1c-6.2-9-10.9-18.9-17.8-27.5c-2.2-2.7-3.8-5.8-5.8-8.7
	c-10.5-15.2-19.8-31-27.5-47.8c-6.9-15.2-14.2-30.2-22-45c-5.7-10.9-11.3-21.9-16.8-32.9c-5.3-10.6-10.2-21.3-15.6-31.8
	c-3.9-7.7-7.3-15.6-9-24.1c-0.5-2.7-1.5-5.3-2.4-8.4c-0.5,1.2-0.7,1.9-1,2.5c-1.3,3.5-2.6,7-3.9,10.4c-3.8,10.3-7.7,20.5-11.5,30.9
	c-0.8,2.2-1.2,4.6-1.2,7c-0.3,11.3,2,22.2,5.6,32.8c2.5,7.4,5.6,14.7,8.3,22.1c6.3,17.5,12.5,35.1,18.7,52.6
	C294.5,588,295.1,589.7,295.8,591.4L295.8,591.4z M264.2,219.4c8.1-1,15.7-1.2,23.3,0.1c0.8,0.1,1.4-0.1,1.9-0.7c1-1.2,2-2.4,3-3.6
	c5.9-7.2,12.6-13.4,20.8-17.8c1.2-0.7,2.5-1.4,3.6-2.3c1.4-1.1,2.6-2.4,3.9-3.5c-0.7-1.3-1.4-2-2.7-2.1c-1.5-0.1-2.9-0.4-4.4-0.7
	c-5.7-1-11.4-2.5-16.2-6c-9-6.6-14.9-15.2-15.7-26.7c0-0.3-0.2-0.5-0.3-0.8c-1.1,0.8-2.1,1.7-3.1,2.3c-4.4,2.8-7.7,2.7-11.9-0.4
	c-0.4-0.3-0.9-0.6-1.4-0.9c0,0.4-0.1,0.5,0,0.7c1.6,5.6,3.3,11.2,4.9,16.9c0.9,3.1,1.1,6.2,0.8,9.4c-1-3.5-1.5-7.1-3-10.9
	c-0.2,1.1-0.4,1.6-0.5,2.2c-0.5,1.9-0.9,3.9-1.5,5.8c-1,3.2-3.2,5.3-6.3,6.4c-3.3,1.2-6.6,2.1-10,3.2c-1.9,0.6-3.8,1.1-5.7,1.6
	c-0.7,3,2.4,6.3,7.2,9.8c0.2-0.3,0.4-0.6,0.6-0.9c2.3-3,6.1-2.7,7.9,0.6c2,3.8,3.4,7.9,3.8,12.2
	C263.4,215.1,263.9,217.2,264.2,219.4z M280.6,278c2.2,12.3,7.3,23.7,11.7,35.4c-1.7-3.1-3.3-6.3-4.8-9.5c-1.5-3.3-3-6.6-4.2-10.1
	c-1.2-3.3-2-6.6-3-9.9c-0.2,0.6-0.2,1.1-0.1,1.6c0.9,6.6,1.6,13.3,2.6,19.9c2.1,14.5,6.8,28.2,12.9,41.5c2.1,4.7,4.4,9.4,5.8,14.4
	c1.2,4.4,2.4,8.9,3.4,13.4c0.8,3.7,1.8,7.3,1,11.2c0,0.1,0.2,0.2,0.5,0.3c0.2-0.2,0.5-0.4,0.6-0.7c2.9-7.7,5.3-15.5,5.6-23.7
	c0.2-6.3,0.2-12.6,0-18.9c-0.2-7.6-0.6-15.3-0.9-22.9c-0.2-4.5-0.3-9.1-0.5-13.6c0-0.8-0.2-1.6-0.7-2.2c-1-1.5-2.4-2.8-3.4-4.4
	c-3.6-5.9-8.1-10.9-13.8-14.8c-0.9-0.6-1.7-1.2-2.6-1.8c-3.4-2.4-7.2-4.4-9.2-8.5c-0.5,1.4-0.4,1.4,0.2,2.4
	c3.5,5.8,7.9,10.9,12.9,15.5c4.4,4,8.2,8.4,11.1,13.6c1.2,2.2,2.4,4.4,3.6,6.6c-6.1-8.7-10.3-14.4-17.3-20.6
	c-1.3-1.2-2.5-2.5-3.6-3.9C285.6,284.8,283.1,281.4,280.6,278z M254.6,255.7c0.1,0,0.2-0.1,0.3-0.1c-0.1-1-0.1-1.9-0.2-2.9
	c-0.3-2.8-0.5-5.6-1-8.4c-0.4-2.3-1.4-4.4-3.5-6c-2.6-1.9-4.1-4.6-5.4-7.5c-0.4-1-0.8-1.9-1.2-2.9c-0.8-1.8-2.1-3.1-3.8-3.9
	c-2.1-0.9-4.4-1.7-6.4-2.4c-7.8,10.7-15.7,21.1-24.4,30.7c0.1,0.2,0.2,0.4,0.3,0.5c6.4,6,11.8,12.9,17.1,19.8
	c2.6,3.3,5.8,5.9,9.1,8.4c0.9,0.7,1.7,0.8,2.8,0c2.1-1.5,4.2-2.7,6.4-4c3-1.8,6-3.5,8.9-5.1c0-4.7,0-9.3,0-13.9
	C253.7,257.4,254.3,256.6,254.6,255.7z M277.5,286.6c-0.2,0-0.3,0-0.5,0c-0.3,0.7-0.7,1.3-0.9,2c-4,9.1-8,18.2-13.3,26.7
	c-0.7,1.2-1.1,2.6-1.5,3.9c-0.3,1.5-0.2,2.9,0.8,4.2c2.1,2.8,3.3,5.9,4.1,9.3c1,4.2,1.6,8.4,1.8,12.8c0.1,2.4,0.7,4.7,1.8,6.8
	c1.6,2.9,4,5,6.6,6.8c7.2,5,13,11.3,17.9,18.4c0.9,1.3,2,2.6,3.1,3.8c1.9,1.9,4.3,2.5,7.2,2.1c0-0.8,0.2-1.7,0.1-2.4
	c-0.6-3.2-1.2-6.4-2-9.6c-1.8-7.4-3.6-14.7-7.2-21.5c-3.2-6.1-5.5-12.5-7.8-18.9c-5-14.4-7.5-29.1-8.3-44.3
	c-0.1-1.3-0.2-2.5-0.3-3.8c-0.4,0.3-0.5,0.5-0.5,0.8c-1.1,5.2-2,10.5-3.3,15.7c-2.2,9.1-2.3,18,0.3,27c0.3,1.1,0.8,2.1,1,3.2
	c0.5,2.8,1,5.5,1.3,8.3c0.1,0.8,0.1,1.8-1.1,2.1c-1.3-0.8-1.4-2.1-1.5-3.3c-0.9-6.8-1.9-13.7-2.5-20.5c-0.5-6-0.1-12,1.8-17.8
	c0.9-2.7,1.6-5.6,2.4-8.3C277.1,289,277.3,287.8,277.5,286.6z M226.8,205.7c-1.4,2.1-2.6,4.1-4,6c-6.8,8.9-13.5,17.8-20.4,26.7
	c-3.6,4.6-7.1,9.3-10.1,14.4c-1.3,2.2-1.3,2.8,0.3,4.8c0.9,1.1,1.8,2.1,2.9,3.1c4.6,4.4,9.6,8.2,15.3,11c3.9,1.9,7.5,4.3,10.6,7.2
	c3.1,3,6.2,5.9,9.2,8.7c1.5-1.5,3.1-3.1,4.7-4.7c-0.4-0.3-0.9-0.6-1.4-1.1c-2.8-2.5-5.9-4.8-8.2-7.7c-6.3-7.9-12.5-15.8-20-22.6
	c-0.7-0.6-1.2-1.4-1.8-2.1c0.1-0.1,0.3-0.3,0.4-0.4c1.2,0.9,2.4,1.8,3.6,2.7c0.5-0.4,0.9-0.6,1.2-0.9c1.2-1.4,2.2-2.9,3.4-4.4
	c5.6-7,11.3-14,16.9-21c1.3-1.6,2.7-3.2,3.7-5c1.2-2.2,1.9-4.6,2.9-7.1C233,210.8,230.7,207.4,226.8,205.7z M257.1,130.9
	c-1.7,2-1.7,4.1-1,6.4c1.3,4.5,3.2,8.8,5.7,12.8c1.8,2.9,4.1,5.3,6.9,7.1c1.4,0.9,2.9,1.5,4.6,1.2c3.2-0.7,5.9-2.3,7.7-5
	c1.5-2.2,2.6-4.8,3.7-7.3c1.2-2.9,2.2-6,3.2-9c0.8-2.5,1.4-5,1.1-7.6c-0.4-2.6-0.7-5.1-0.8-7.7c-0.1-2.5-0.9-4.5-2.6-6.4
	c-1.9-2.2-4.1-3.1-6.8-3c-4.2,0.2-4.2,0.1-6.8,3.5c-3.2,4-7,6.3-12.3,5.4c-1.2-0.2-1.6,0.5-1.9,1.4c-0.6,2.3-0.2,4.5-0.4,6.8
	c4,0.2,8-0.6,10.9,2.8c-1.1-0.4-2.2-0.7-3.3-1.1c-0.6,0.8-1.1,1.5-1.6,2.2c0.2,0.1,0.4,0.3,0.7,0.5
	C261.1,134.3,260.1,133.9,257.1,130.9z M269.9,248.3c-5.2-4.4-11.4-7.1-15.4-12.5c4.1,2.9,8.1,6,13,8.6c-1.6-3.3-3.2-6-5.5-8.3
	c-6.6-6.6-12.3-13.8-17.9-21.3c-0.3-0.4-0.5-0.8-0.7-1.1c1.8,1.3,3.3,2.7,4.5,4.3c3.8,5.1,8,9.7,12.4,14.3c1.7,1.8,3.4,3.8,5,5.7
	c0.8,0.9,1.4,2,2,3c0.1,0,0.2-0.1,0.3-0.1c-1.4-4.3-2.8-8.6-4.3-13.2c-0.4,0.7-0.5,1-0.7,1.3c-1.3-3.9-1.3-3.9-0.2-5.2
	c0.4,0.6,0.9,1.2,1.2,1.8c0.5,1,0.9,2.1,1.2,3.1c1.9,5.7,3.8,11.4,5.7,17.3c1.4-2.8,2.7-5.5,4.1-8.3c-2.2-2.8-4.4-5.6-6.6-8.3
	c-2.2-2.8-3.6-6-4.6-9.3c-0.9-3-1.2-6.3-1.5-9.4c-0.4-3.6-1.6-6.9-3.6-9.9c-0.4-0.5-0.8-1.1-1.4-1.3c-1.7-0.6-3.9,0.3-4.7,2
	c-2,4-5.4,6.8-9.3,8.6c-4.1,1.8-6.3,5-8.3,8.6c-0.8,1.5-0.4,2.3,1.2,2.8c0.3,0.1,0.7,0.2,1.1,0.3c4.4,0.9,7.5,3.3,8.9,7.7
	c0.1,0.4,0.3,0.8,0.5,1.2c1.4,3.1,3.3,5.8,6.1,7.8c1.4,1,2.7,2,4.2,3c3.4,2.2,6.7,4.7,9.3,7.9c0.7,0.9,1.6,1.7,2.5,2.6
	C268.9,250.6,269.4,249.5,269.9,248.3z M311.2,238.7c-0.1-0.1-0.3-0.1-0.4-0.2c-0.8,1-1.6,2-2.2,3.1c-2.2,4.3-4.3,8.6-6.5,12.9
	c-0.9,1.7-1.1,3.3-0.6,5.1c0.2,0.6,0.5,1.1,0.6,1.6c0.1,0.4,0.3,0.8,0.2,1.2c-0.5,4.7-1.2,9.4-1.6,14.1c-0.2,3-0.2,6,1,8.9
	c0.7,1.7,1,3.6,1.6,5.3c0.2,0.8,0.5,1.5,1,2.2c1.6,2.4,3.2,4.8,4.8,7.2c0.4,0.6,0.9,1.2,1.4,1.8c0.3-1.1,0.3-1.9,0.3-2.8
	c0.1-3.7,0.1-7.4,0.4-11.1c0.6-6.6,0.8-13.1,0.2-19.7c-0.5-4.9-0.3-9.9-0.3-14.9c0-4.5,0.1-9,0.1-13.6
	C311.3,239.5,311.2,239.1,311.2,238.7z M227.4,204.9c4.1,1.5,6.2,5.2,9,7.5c2.1-1.2,4-2.3,5.8-3.3c2.7-1.5,5.1-3.3,7.1-5.6
	c0.4-0.4,0.6-1,0.9-1.5c-4.4-2.5-8.1-5.3-8-11.1c-1.8,1-3.4,1.7-5,2.7c-1.7,1.1-2,2.9-0.8,4.6c0.4,0.6,1,1.1,1.4,1.7
	c0.7,0.9,1.4,1.7,2.1,2.6c-2.6-1.1-4.2-3.2-5.8-5.2c1.3,4.3,5.4,6.2,8.1,9.3c-4-2.2-7.6-4.7-9.3-9.3
	C230.6,199.4,227.3,200.7,227.4,204.9z M222.2,336.9c0.8-0.7,1.5-1.3,2.1-1.9c-0.7,2.4-1.3,3.2-3.3,4.1c-0.2-0.4-0.5-0.7-0.6-1.1
	c-0.3-1.8,0-3.5,1.3-4.9c1.5-1.6,2.9-3.4,4.7-5.5c-4.8,0.4-9,0.8-13.2,1.3c-1.1,0.1-2.1,0.6-3.2,1c-2.1,0.9-2.4,2.5-0.7,3.9
	c1.4,1.1,2.9,2,4.4,3c1.6,1.1,3.3,2.1,4.7,3.3c0.7,0.6,1.3,1.8,1.3,2.7c-0.1,1.8-0.2,3.7-1.4,5.2c-1,1.3-1,2.4,0,3.6
	c1.5,1.6,3.1,3.1,4.7,4.6c0.2-0.1,0.3-0.1,0.5-0.2c0-1.6,0-3.2,0-4.8c0.1-1.6,0.2-3.3,0.3-4.9c0.1-1.6,0.3-3.1,0.5-4.6
	c0.2-1.6,0.5-3.2,0.8-4.8c0.3-1.6,0.8-3.2,1.1-4.8c0.3-1.5,1.6-2.7,1.5-4.4c-0.3,0.1-0.5,0.1-0.6,0.2c-1.6,2.2-3.3,4.4-4.9,6.6
	C221.9,335.2,221.5,335.9,222.2,336.9z M275.4,237c4.1-5.5,8.2-11,12.3-16.5c-5.2-0.7-20.5-0.3-22.8,0.5c0.9,3.2,2.5,6,4.6,8.6
	C271.4,231.9,273.3,234.3,275.4,237z M322.4,344c-1.8,5.7-2.3,28.9-0.6,32c0.4-1,0.8-1.7,1.1-2.5c1.4-5.1,2.6-10.3,4.1-15.4
	c0.6-2.2,0.6-3.9-0.7-6C324.7,349.6,323.7,346.8,322.4,344z M325.7,347.8c2-4.8,3.9-9.2,5.8-13.6c0.5-1.1,0.2-1.9-0.5-2.8
	c-1.9-2.3-3.6-4.6-5.4-7c-0.2-0.2-0.1-0.6-0.2-0.9c-0.2,0.1-0.4,0.3-0.7,0.4c-0.7,5.5-1.4,10.9-2.1,16.4c0,0.3,0,0.6,0.1,0.9
	C323.7,343.4,324.7,345.5,325.7,347.8z M304.1,385.2c-5.3,0-8.4-2.9-11-6.9c-1.4,6.6-2.6,12.8-3.9,19c1.8-0.8,11.5-8.1,14-10.6
	C303.5,386.4,303.6,386,304.1,385.2z M282.7,273.3c-0.1,0.1-0.3,0.3-0.4,0.4c0.7,0.9,1.3,2,2.1,2.8c1.2,1.1,2.5,2.1,3.8,3
	c4,3,8,6.1,12.1,9.1c0.1,0.1,0.4,0.1,0.7,0.2c-0.7-3.1-1.3-6-2-8.9c-0.1-0.5-0.7-0.9-1.2-1.2c-2.2-1-4.4-2-6.6-2.8
	C288.4,275,285.5,274.2,282.7,273.3z M282.4,255c-0.3,5.6-0.5,10.9-0.8,16.3c1.5,0.4,2.9,0.8,4.3,1.2c0.7-5.5,1.4-10.7,2.1-16.2
	C286.2,256,284.4,255.5,282.4,255z M279.9,270.9c0.6-5.5,1.1-10.7,1.6-16c-1.9-0.3-3.6-0.6-5.3-1c-0.2,5.5-0.4,10.7-0.5,16.1
	C277,270.3,278.3,270.6,279.9,270.9z M256.4,254.9c3.5-1,6.8-1.9,10.3-2.9c-3.7-4.1-7.5-7.7-12.7-10.4
	C255.8,246.2,256.5,250.4,256.4,254.9z M269.7,253.9c0.2,5.2,0.4,10.3,0.5,15.5c1.3,0.1,2.3,0.2,3.6,0.4c0.9-5.3,1.1-10.5,1.5-15.8
	C273.3,253.9,271.6,253.9,269.7,253.9z M288.8,256.6c-0.4,5.8-0.8,11.1-1.2,16.6c1.3,0.4,2.4,0.7,3.5,1.1c1-5.2,2-10.4,3.1-15.6
	C292.5,258,290.9,257.4,288.8,256.6z M263.5,254.4c0.5,5.3,1,10.2,1.5,15.3c1.3-0.1,2.4-0.3,3.8-0.4c0-5.3,0-10.3,0-15.5
	C267,254.1,265.3,254.2,263.5,254.4z M258.4,255.9c0.3,5.1,0.6,9.7,0.9,14.5c1.5-0.2,2.8-0.4,4.2-0.6c-0.3-5.1-0.6-10-0.9-15.2
	C261.1,255.1,259.7,255.5,258.4,255.9z M298.6,260.6c-1.3-0.6-2.2-1-3.5-1.6c-0.8,5.5-1.5,10.6-2.3,15.8c1.1,0.4,1.9,0.7,2.9,1.1
	C296.6,270.7,297.6,265.8,298.6,260.6z M236,318.3c-2.8-5.7-4.4-7.7-6.9-8.5c0.6,4.6,1.9,8.9,3.9,13.4
	C234.2,321.4,235.1,319.9,236,318.3z M257.8,256.2c-1.3,0.5-2.2,0.8-3.1,1.2c0.2,4.8,0.4,9.4,0.6,14.2c1-0.3,1.8-0.6,2.5-0.8
	C257.8,265.9,257.8,261.3,257.8,256.2z M298.7,277.3c0.8-4.8,1.5-9.4,2.2-14c0.2-1.4-0.7-1.7-1.8-2c-0.7,4.9-1.4,9.6-2,14.4
	C297,276.9,297.8,277.2,298.7,277.3z M256.8,317.7c-2.5-0.2-2.5-0.1-2.5,2.3C255.1,319.3,255.8,318.7,256.8,317.7z M258.7,130.8
	c-0.1,0.1-0.1,0.3-0.2,0.4c1,0.5,1.9,1.1,3.3,1.8c-0.6-1-1-1.6-1.3-2.2C259.9,130.8,259.3,130.8,258.7,130.8z M276,331.9
	c-0.2,0-0.3,0.1-0.5,0.1c0.3,1.8,0.7,3.6,1,5.4c0.2,0,0.3-0.1,0.5-0.1C276.6,335.4,276.3,333.7,276,331.9z M216.7,343.6
	c0.2,0.6,0.4,1.3,0.7,2.1C218.3,344.5,217.7,343.9,216.7,343.6z"/>
<path d="M317.2,411c0.2-1,0.3-2,0.5-3c0.7-2.3,1.6-4.6,2.1-7c0.5-2.3,0.6-4.6,0.8-7c1.4,5.2,0.1,9.9-2.3,14.5
	C318,409.3,317.6,410.1,317.2,411C317.2,411,317.2,411,317.2,411z"/>
<path class="st0" d="M314.7,649.5c0.4,1.2,0.7,2.4,1.1,3.6c2.9,9.7,5.8,19.3,8.8,28.9c1.6,5.2,3.4,10.3,5.1,15.4
	c0.6,2,1,4.1,1.6,6.6c-4.8-2.4-9.5-2.1-14.2-2.2c-3.2-0.1-6.4-0.2-9.5-0.3c-4.4-6.8-7.9-13.8-9.7-21.5c-3.1-13.1-6.3-26.1-9.1-39.2
	c-2-9.4-3.4-19-5.2-28.5c-1.4-6.9-3.1-13.7-4.7-20.6c-0.1-0.4-0.3-0.7-0.6-1c0.1,0.7,0.3,1.4,0.4,2.1c1.7,9.2,3.8,18.3,5.2,27.6
	c2.3,14.9,5.3,29.7,8.8,44.3c1.3,5.5,2.5,11,3.9,16.5c1.6,6.2,4,12.2,7.6,17.5c1.9,2.7,2.2,5.2,0.9,8.3c-1.7,4.1-4.3,7.5-7.8,10.1
	c-5.6,4.3-11.4,8.5-17.2,12.7c-1.7,1.2-3.5,1.4-5.5,0.9c-3.1-0.6-6.3-1.1-9.4-1.6c-3.8-0.6-7-2-10.1-4.3c-3.8-2.8-6.2-6.4-7.4-11
	c-1.9-7.1-3.2-14.2-3.6-21.5c-0.6-13-1-26-1.5-38.9c-0.3-7.9-0.7-15.9-1.1-23.8c-0.3-6.3-0.5-12.6-1-18.9c-0.6-7.7-1.4-15.4-2.1-23
	c-0.4-4.3-1-8.6-1.5-12.8c-0.1-1-0.3-2-0.7-3c0,0.4,0,0.9,0,1.3c0.8,8.9,1.7,17.9,2.5,26.8c1.3,15.1,1.7,30.2,2.2,45.4
	c0.4,12.5,0.6,25.1,1.1,37.6c0.4,10,1.1,20,3.9,29.7c0.4,1.6,0.9,3.1,1.4,4.8c-0.4,0.2-0.7,0.4-1,0.4c-5.8,1-11.5,2.1-17.3,3
	c-6.1,0.9-12.3,1.3-18.4,0.9c-4.6-0.3-9.2-0.6-13.7-1.3c-10.6-1.6-19-7.3-26.1-15c-2.4-2.6-4.6-5.3-7.6-7.2
	c-1.2-0.8-2.4-1.4-3.6-2.2c-0.6-0.4-1.3-0.8-1.8-1.3c-1.1-1.1-1.2-2.1-0.3-3.4c0.9-1.4,1.9-2.9,2.9-4.2c0.4-0.5,1-0.8,1.5-1.2
	c0.1-0.7,0.1-1.6,0.4-2.2c4.5-8.3,7.5-17.1,10.6-25.9c5.6-16,11.2-31.9,16.7-47.9c2-5.9,3.9-11.8,5.8-17.8c0.1-0.2,0-0.4-0.2-0.7
	c-0.3,0.8-0.6,1.6-0.9,2.4c-8.5,23.7-16.8,47.4-25.4,71c-2.1,5.9-5,11.6-7.5,17.4c-0.3,0.7-0.8,1.4-1.2,2.2
	c-9.5,0.4-18.7,2.4-28,3.8c-6.1,0.9-12.2,1.4-18.4,2c-4,0.4-7.7-0.6-11.1-2.5c-2.7-1.5-5.3-2.9-8-4.4c-0.6-0.3-1.1-0.7-2-1.4
	c1.2-0.4,1.9-0.8,2.7-1c4.1-1,8.2-2,12.3-3.1c1.3-0.3,2.5-0.8,3.9-1c-1.9,2.3-4.2,4-6.8,5.4c4.3-1.1,7.8-3.5,10.5-7
	c4.7-5.9,9.1-12.1,13-18.6c19.1-32.6,36.4-66,50.4-101.1c8.2-20.5,16.9-40.8,25.8-61.1c8.1-18.6,14.9-37.7,19.2-57.5
	c1.3-5.9,2.8-11.8,4.1-17.8c0.7-3,1.1-6.1,2-9.2c0.5,3.5,1,6.9,1.4,10.4c1.2,9.1,2.3,18.2,3.4,27.4c0.5,4.4,0.9,8.8,1.3,13.1
	c0.8-3.8,1-7.9,0.4-11.9c-1.5-10-2.7-20-3.8-30c-1.3-11.4-2.9-22.7-4.3-34c-0.7-5.4-1.2-10.9-1.8-16.4c-0.8-7.1-1.2-14.2-0.9-21.3
	c0.2-6.3,1.3-12.5,3.2-18.6c0.2-0.5,0.6-1.2,1-1.4c3.1-1,4.5-3.7,6.3-6c0.4-0.4,0.6-1,1.1-1.6c0.6,0.8,1,1.4,1.5,2.1
	c2.4,3.2,5.2,3.7,8.5,1.5c1.3-0.9,2.5-2.1,3.8-3.1c0.8-0.6,1.6-1.2,2.8-2c-0.5,1.4-0.9,2.3-1.1,3.3c-0.4,1.4-0.1,1.7,1.4,1.8
	c1.4,0.1,2.8,0,4.2-0.1c1.8-0.1,2.9,0.6,3.8,2.1c1.5,2.6,2.7,5.3,3.1,8.3c0.7,4.4,1.3,8.8,1.8,13.2c0.5,4,2.2,7.4,5.1,10.1
	c1.5,1.4,3.1,2.8,4.7,4c5.7,4.1,10.4,9,14.6,14.6c0.7,0.9,0.9,1.7,0.6,2.9c-1.5,6.4-2.6,12.9-4.3,19.3c-1.1,4.4-3.1,8.5-4.4,12.8
	c-5.7,17.8-12.7,35.2-19.3,52.7c-3.6,9.7-6.1,19.7-8.1,29.8c0,0.2,0,0.4,0.2,0.7c1.4-4.8,2.8-9.7,4.2-14.5c0.1,0,0.2,0,0.4,0
	c0.1,0.4,0.2,0.7,0.2,1.1c-0.5,10.2,1.5,20,4.6,29.5c2.3,7.1,5.1,14.1,7.6,21.1c4.5,12.4,8.9,24.9,13.5,37.2
	c2.7,7.3,5.6,14.5,8.5,21.8c0.2,0.5,0.6,0.9,0.9,1.4c0.1,0.6,0.2,1.2,0.3,1.8c0.1,0,0.3-0.1,0.4-0.1c-0.3-0.6-0.5-1.1-0.8-1.7
	c-0.6-1.7-1.2-3.5-1.8-5.2c-6.2-17.5-12.4-35.1-18.7-52.6c-2.7-7.4-5.8-14.6-8.3-22.1c-3.6-10.6-5.9-21.5-5.6-32.8
	c0.1-2.3,0.4-4.8,1.2-7c3.7-10.3,7.6-20.6,11.5-30.9c1.3-3.5,2.6-7,3.9-10.4c0.3-0.7,0.5-1.3,1-2.5c0.9,3.1,1.9,5.7,2.4,8.4
	c1.6,8.6,5.1,16.4,9,24.1c5.3,10.5,10.3,21.2,15.6,31.8c5.5,11,11,22,16.8,32.9c7.8,14.8,15.1,29.8,22,45
	c7.7,16.8,17,32.6,27.5,47.8c2,2.9,3.6,6,5.8,8.7c6.9,8.6,11.6,18.5,17.8,27.5c12.7,18.3,29.3,31.6,49.8,40.1
	c5.3,2.2,10.7,4.4,16.1,6.5c0.4,0.2,0.8,0.3,1.3,0.1c-3.2-1.5-6.4-3-9.6-4.6c-7-3.4-14.2-6.6-20.9-10.3c-14.9-8.3-26.8-20-36.3-34.2
	c-1.7-2.5-3.2-5-4.8-7.5c-2.4-3.9-4.7-7.9-7.2-12c0.5,0.1,0.8,0.2,1.1,0.3c11,5.6,22.4,10.2,34,14.3c5.6,2,11,4.5,16.1,7.5
	c2.5,1.4,4.9,3.1,7.1,5c4.4,3.6,9.2,6.5,14.3,9c5.1,2.4,10.2,4.9,15,7.7c10.2,5.9,21.2,9.6,32.7,12c8.1,1.7,16.3,3.4,24.5,4.4
	c1.6,0.2,3.2,0.5,4.7,1.6c-0.2,0.5-0.4,1.1-0.7,1.6c-3.5,5-7.9,8.8-14,10.3c-7.5,1.9-15.1,3.2-22.9,3.1c-11.1-0.2-22.1,0.9-33,2.8
	c-6.2,1-12.5,1.8-18.7,3c-5.1,1-10.1,2.4-15.1,3.6c-3.7,0.9-7.4,0.9-11,0.2c-6-1.3-11.6-0.3-17,2.6c-5.7,3.1-11.7,3.5-17.9,2
	c-12.2-3.1-24.5-6.1-36.7-9.3c-3.3-0.9-6.4-2.2-9.7-3.3c-1.4-0.5-2.8-1-4.4-1.5c-0.1-0.7-0.2-1.5-0.2-2.3c0.1-4.7-1.2-9.1-2.7-13.5
	c-3.3-9.9-6.7-19.8-10-29.8c-1.3-3.9-2.6-7.9-3.9-11.8C315.5,650.8,315,650.2,314.7,649.5c0.2-1.2-0.4-2.1-1.2-3
	C313.9,647.6,314.3,648.6,314.7,649.5z M229.7,467c-5.3,17.6-10.7,35.1-14.5,53c0.2-0.2,0.3-0.5,0.4-0.8
	c3.9-13.7,7.9-27.5,11.7-41.2C228.4,474.4,228.9,470.7,229.7,467z M259.9,373.3c-3.7,11.3-4.9,23.1-7,34.8
	C255.2,396.5,257.5,384.9,259.9,373.3z"/>
<path class="st0" d="M264.2,219.4c-0.4-2.1-0.9-4.2-1-6.4c-0.4-4.4-1.8-8.4-3.8-12.2c-1.7-3.3-5.6-3.6-7.9-0.6
	c-0.2,0.3-0.4,0.6-0.6,0.9c-4.8-3.5-7.9-6.7-7.2-9.8c1.8-0.5,3.8-1,5.7-1.6c3.3-1,6.7-2,10-3.2c3.1-1.1,5.3-3.2,6.3-6.4
	c0.6-1.9,1-3.9,1.5-5.8c0.1-0.6,0.3-1.1,0.5-2.2c1.5,3.8,2,7.5,3,10.9c0.3-3.2,0.1-6.3-0.8-9.4c-1.7-5.6-3.3-11.2-4.9-16.9
	c0-0.1,0-0.3,0-0.7c0.5,0.3,1,0.6,1.4,0.9c4.2,3.1,7.5,3.2,11.9,0.4c1-0.7,2-1.5,3.1-2.3c0.1,0.3,0.3,0.6,0.3,0.8
	c0.8,11.5,6.6,20.1,15.7,26.7c4.8,3.5,10.4,4.9,16.2,6c1.5,0.3,2.9,0.5,4.4,0.7c1.3,0.1,2,0.8,2.7,2.1c-1.3,1.2-2.5,2.4-3.9,3.5
	c-1.1,0.9-2.3,1.6-3.6,2.3c-8.3,4.4-15,10.6-20.8,17.8c-1,1.2-2,2.4-3,3.6c-0.5,0.6-1.1,0.9-1.9,0.7
	C279.9,218.2,272.3,218.4,264.2,219.4z M281.6,187.8c0.5,0.3,0.6,0.4,0.6,0.4c0.2,0,0.4-0.1,0.6-0.1c2.6-1.3,5.3-1.4,8.2-0.8
	c2.2,0.5,4.4,0.6,6.6,0.9C292.4,186.1,287.2,183.9,281.6,187.8z M258.7,190.6c0,0.2,0.1,0.3,0.1,0.5c0.8-0.1,1.6-0.1,2.4-0.2
	c2.6-0.5,5.2-1,7.8-1.5c1.6-0.4,3.1-0.4,4.4,0.7c0.3,0.2,0.7,0.3,1.5,0.5c-1.2-2-2.7-3-4.6-2.6C266.4,188.7,262.5,189.7,258.7,190.6
	z M278,183.8c-0.1,0-0.3,0-0.4-0.1c-0.7,1.4-1.3,2.9-2,4.3c-0.6-0.2-1-0.3-1.5-0.4c0,0-0.1,0.1-0.1,0.2c1.2,1.7,2.2,1.7,2.9-0.1
	C277.5,186.6,277.6,185.2,278,183.8z"/>
<path class="st0" d="M236.4,297.5c-0.7,0.5-1.4,1-2,1.7c-1.9,2.3-3.8,4.6-5.6,6.9c-1.1,1.4-1.3,2.9-1,4.6c0.6,3.8,1.7,7.5,3.1,11.1
	c1.1,2.8,0.6,3.8-2.4,4.2c-4,0.5-8.1,0.9-12.2,1.4c-1.8,0.2-3.5,0.5-5.2,1c-1,0.3-1.9,0.9-2.6,1.6c-1.5,1.5-1.5,3.3,0.1,4.6
	c1.7,1.4,3.6,2.6,5.5,3.8c1,0.7,2.1,1.4,3.1,2.2c0.4,0.3,0.7,0.8,1.2,1.5c-3.9-1.9-7.5-3.6-11-5.4c-1.2-0.6-2.2-1.5-3.2-2.4
	c-1.2-1.1-1.4-2.4-0.6-3.8c0.5-0.8,1-1.7,1.6-2.4c0.8-1,1.6-1.9,2.5-2.8c3.3-3.6,6.2-7.4,8.3-11.8c3.7-7.5,8.7-14.3,13.4-21.2
	c0.6-0.8,1.4-1.4,2.2-2.1c0.2-0.2,0.6-0.3,0.7-0.5c1.5-3.7,4.9-5.6,8-7.8c4.3-3,8.9-5.6,13.4-8.4c0.6-0.3,1.2-0.5,1.9-0.7
	c5.6-1.4,11.3-1.7,17.1-1.4c1,0,2,0.3,3.3,0.6c-1.4,1.6-2.7,3-3.9,4.5c-1.2,1.5-1.9,3.3-2.1,5.5c1.8-2.5,3.6-4.9,5.3-7.2
	c0.1-0.2,0.3-0.4,0.4-0.5c1.9-2.2,2.3-2.3,5.5-0.8c-3.5,8.1-7.1,16.3-10.6,24.4c-2.5,5.6-5.3,11.1-8.6,16.3
	c-1.5,2.4-2.3,4.9-2.2,7.9c-1.6,0-3.2,0-5.1,0c0.4-0.4,0.7-0.7,1-1.1c0.6-0.6,1.3-1,1.7-1.7c0.3-0.6,0.5-1.5,0.3-2
	c-0.3-0.5-1.2-0.9-1.8-0.9c-0.8,0-1.8,0.3-2.5,0.7c-1.6,1-3.1,2.1-4.5,3.2c-1,0.7-1.9,1.6-3,2.3c-2.5,1.5-4.3,1.1-6-1.2
	c-1.2-1.7-2.2-3.5-3.3-5.3c-0.9-1.4-1.6-2.9-2.6-4.1c-1.3-1.5-2.8-2.8-4.5-4.3c1.2-1.6,2.7-3.5,4-5.4
	C234.4,300.5,235.3,299,236.4,297.5c0.5-0.6,1-1.1,1.5-1.6c-0.1-0.1-0.3-0.2-0.4-0.3C237.2,296.2,236.8,296.8,236.4,297.5z
	 M265.7,272c-0.1-0.1-0.3-0.2-0.4-0.3c-12.8,9.8-19.2,23.3-21.6,38.9c0.8-2,1.5-4.1,2.2-6.2c3.8-11,8.5-21.6,17.4-29.6
	C264.2,274,264.9,273,265.7,272z M246.5,314.5c0.1,0.1,0.3,0.2,0.4,0.3c1.9-3.6,2.7-7.6,4.1-11.3c-0.1,0-0.3-0.1-0.4-0.1
	C249.3,307,247.9,310.8,246.5,314.5z"/>
<path class="st0" d="M280.6,278c2.5,3.4,5,6.8,7.6,10.1c1.1,1.4,2.3,2.7,3.6,3.9c7,6.2,11.2,11.9,17.3,20.6
	c-1.2-2.2-2.3-4.4-3.6-6.6c-2.9-5.2-6.8-9.6-11.1-13.6c-5-4.6-9.4-9.7-12.9-15.5c-0.6-1-0.6-1-0.2-2.4c2.1,4.1,5.8,6.1,9.2,8.5
	c0.9,0.6,1.7,1.2,2.6,1.8c5.7,3.9,10.2,9,13.8,14.8c1,1.6,2.3,2.9,3.4,4.4c0.4,0.6,0.6,1.5,0.7,2.2c0.2,4.5,0.3,9.1,0.5,13.6
	c0.3,7.6,0.7,15.3,0.9,22.9c0.2,6.3,0.2,12.6,0,18.9c-0.3,8.2-2.7,16.1-5.6,23.7c-0.1,0.3-0.4,0.5-0.6,0.7c-0.3-0.2-0.5-0.3-0.5-0.3
	c0.7-3.8-0.2-7.5-1-11.2c-1-4.5-2.2-8.9-3.4-13.4c-1.3-5-3.6-9.7-5.8-14.4c-6-13.3-10.8-27-12.9-41.5c-1-6.6-1.7-13.2-2.6-19.9
	c-0.1-0.5-0.1-1,0.1-1.6c1,3.3,1.8,6.7,3,9.9c1.2,3.4,2.7,6.7,4.2,10.1c1.5,3.2,3.1,6.4,4.8,9.5C287.9,301.8,282.8,290.3,280.6,278z
	 M306.4,333.5c1.8,4.1,2.7,8.6,5.4,12.4C310.8,341.4,309.4,337.1,306.4,333.5z"/>
<path class="st0" d="M254.6,255.7c-0.3,0.8-0.9,1.7-0.9,2.5c-0.1,4.6,0,9.2,0,13.9c-2.9,1.7-5.9,3.4-8.9,5.1c-2.2,1.3-4.3,2.6-6.4,4
	c-1.1,0.8-1.9,0.7-2.8,0c-3.3-2.5-6.6-5.1-9.1-8.4c-5.3-7-10.8-13.8-17.1-19.8c-0.1-0.1-0.1-0.3-0.3-0.5c8.7-9.7,16.6-20,24.4-30.7
	c2,0.8,4.3,1.5,6.4,2.4c1.7,0.8,3,2.1,3.8,3.9c0.4,1,0.8,1.9,1.2,2.9c1.2,2.9,2.8,5.6,5.4,7.5c2.1,1.5,3,3.7,3.5,6
	c0.5,2.8,0.7,5.6,1,8.4c0.1,1,0.1,1.9,0.2,2.9C254.8,255.7,254.7,255.7,254.6,255.7z"/>
<path class="st0" d="M277.5,286.6c-0.2,1.1-0.4,2.3-0.7,3.4c-0.7,2.8-1.5,5.6-2.4,8.3c-1.9,5.8-2.3,11.8-1.8,17.8
	c0.6,6.9,1.6,13.7,2.5,20.5c0.2,1.2,0.3,2.5,1.5,3.3c1.2-0.3,1.2-1.3,1.1-2.1c-0.4-2.8-0.8-5.6-1.3-8.3c-0.2-1.1-0.6-2.1-1-3.2
	c-2.6-9-2.5-18-0.3-27c1.3-5.2,2.2-10.4,3.3-15.7c0.1-0.3,0.1-0.5,0.5-0.8c0.1,1.3,0.2,2.5,0.3,3.8c0.9,15.1,3.4,29.9,8.3,44.3
	c2.2,6.5,4.6,12.9,7.8,18.9c3.5,6.8,5.4,14.1,7.2,21.5c0.8,3.2,1.4,6.4,2,9.6c0.1,0.7,0,1.6-0.1,2.4c-2.9,0.3-5.3-0.2-7.2-2.1
	c-1.2-1.1-2.2-2.4-3.1-3.8c-5-7.1-10.8-13.4-17.9-18.4c-2.6-1.8-5-3.9-6.6-6.8c-1.2-2.1-1.8-4.4-1.8-6.8c-0.1-4.3-0.7-8.6-1.8-12.8
	c-0.8-3.3-2-6.5-4.1-9.3c-1-1.3-1.1-2.8-0.8-4.2c0.3-1.4,0.7-2.8,1.5-3.9c5.2-8.5,9.3-17.6,13.3-26.7c0.3-0.7,0.6-1.3,0.9-2
	C277.2,286.6,277.3,286.6,277.5,286.6z"/>
<path class="st0" d="M301.4,241.3c-1.4,0.6-2.9,1.1-4.2,1.9c-3,1.8-5.9,3.7-8.9,5.5c-2.2,1.3-4.3,2.6-6.5,3.8
	c-0.6,0.3-1.4,0.4-2.1,0.4c-2.3-0.3-4.5-0.6-7-1c4.7-4.8,9.4-9.4,13.9-14.3c4.5-4.9,8.4-10.3,11.8-16c-8.6,10.5-17.4,20.8-27.6,30.5
	c3.4-5.6,6.6-10.7,9.8-15.9c-3.9,4.4-7.3,9.1-10,14.2c1.3-4.8,2.9-9.4,6-13.3c5.7-7.2,11.1-14.7,17.2-21.6
	c3.7-4.2,7.5-8.4,12.1-11.8c2-1.5,4.2-2.8,6.3-4.1c1.9-1.2,3.8-2.3,5.6-3.6c2.3-1.7,4.1-3.9,4.9-6.7c0.1-0.3,0.2-0.5,0.4-0.9
	c1.9,1.1,2.5,2.9,3.6,4.9c-8.5,4-16.4,8.8-22.2,16.4c1.7-1.3,3.5-2.6,5-4.1c3.9-3.8,8.5-6.7,13.4-9.1c1.9-1,3.7-2.1,5.6-3.1
	c1.3,1.4,2.1,3,3.4,6.7c-9.4,6.2-19.4,11.6-26.7,20.5c0.8-0.6,1.6-1.2,2.4-1.8c-3.6,6.2-6.8,12.5-9.5,19.1c4.3-5,6.4-11.4,9.9-16.9
	c0.2,0,0.3,0.1,0.5,0.1c0,0.9,0,1.8,0,2.7c-0.1,3,0.5,5.9,2.1,8.5c1,1.7,0.6,3.7-0.6,5.3c-1.5,1.9-3,3.9-4.1,6
	c-1.9,3.6-3.7,7.3-5.4,11c-0.7,1.5-1.1,3.2-0.6,5.1c-5.5-2.8-11.2-4.9-17.4-6.1c2.8-1.6,5.2-3,7.6-4.5c3.4-2.1,6.8-4.3,10.1-6.5
	C300.7,242.2,301,241.7,301.4,241.3c0.6-0.3,1.3-0.6,1.9-0.8c-0.1-0.2-0.2-0.3-0.3-0.5C302.5,240.4,302,240.9,301.4,241.3z"/>
<path class="st0" d="M226.8,205.7c3.9,1.8,6.2,5.2,9,7.8c-1,2.4-1.7,4.9-2.9,7.1c-1,1.8-2.4,3.4-3.7,5c-5.6,7-11.3,14-16.9,21
	c-1.2,1.4-2.2,2.9-3.4,4.4c-0.3,0.3-0.7,0.5-1.2,0.9c-1.2-0.9-2.4-1.8-3.6-2.7c-0.1,0.1-0.3,0.3-0.4,0.4c0.6,0.7,1.1,1.5,1.8,2.1
	c7.5,6.8,13.7,14.7,20,22.6c2.3,2.9,5.5,5.2,8.2,7.7c0.5,0.4,1,0.8,1.4,1.1c-1.6,1.6-3.2,3.2-4.7,4.7c-3-2.8-6.1-5.7-9.2-8.7
	c-3.2-3-6.8-5.3-10.6-7.2c-5.7-2.9-10.7-6.6-15.3-11c-1-1-2-2-2.9-3.1c-1.6-2-1.5-2.6-0.3-4.8c3-5.1,6.5-9.7,10.1-14.4
	c6.8-8.9,13.6-17.8,20.4-26.7C224.2,209.8,225.5,207.8,226.8,205.7z"/>
<path class="st0" d="M257.1,130.9c3,3,4,3.4,6.9,2.8c-0.3-0.2-0.5-0.3-0.7-0.5c0.5-0.7,1-1.4,1.6-2.2c1.1,0.4,2.2,0.8,3.3,1.1
	c-2.9-3.5-6.8-2.7-10.9-2.8c0.2-2.2-0.2-4.5,0.4-6.8c0.3-1,0.7-1.6,1.9-1.4c5.3,0.9,9.2-1.4,12.3-5.4c2.6-3.3,2.7-3.3,6.8-3.5
	c2.8-0.1,4.9,0.8,6.8,3c1.7,1.9,2.5,3.9,2.6,6.4c0.1,2.6,0.4,5.2,0.8,7.7c0.4,2.7-0.2,5.2-1.1,7.6c-1,3-2,6.1-3.2,9
	c-1,2.5-2.2,5-3.7,7.3c-1.8,2.7-4.5,4.3-7.7,5c-1.7,0.4-3.2-0.3-4.6-1.2c-2.9-1.8-5.2-4.3-6.9-7.1c-2.5-4-4.4-8.2-5.7-12.8
	C255.4,135,255.4,132.9,257.1,130.9z M279.8,130.6c0.4,0.6,0.6,1,0.8,1.3c0.2,0.3,0.5,0.6,0.7,0.9c-0.3,0.2-0.5,0.3-0.9,0.6
	c3.7,0.4,4.8-0.2,7.5-3.7c-2.1-1-6.5-1-9.3,0.1c-1.4,0.6-1.4,0.6-1.9,2C277.7,131.4,278.7,131,279.8,130.6z M286.6,125.1
	c-0.5-0.1-1-0.3-1.4-0.2c-2.8,0.6-5.6,1.3-8.4,2.1c-0.9,0.3-1.7,1-2.2,2.4C278.6,127,282.7,126.7,286.6,125.1z M260.7,126.5
	c0,0.2-0.1,0.3-0.1,0.5c2.4,0.5,4.8,1,7.7,1.6C265.8,126.1,263.1,126.9,260.7,126.5z M277.7,149.3c-3.2-0.9-6.4-0.3-9.5,0.3
	C271.4,150.4,274.5,149.1,277.7,149.3z M272.1,151.6c1.2,0.7,1.2,0.7,2.4-0.3C273.6,150.7,272.8,150.9,272.1,151.6z"/>
<path class="st0" d="M269.9,248.3c-0.5,1.2-1,2.3-1.6,3.6c-0.9-0.9-1.8-1.7-2.5-2.6c-2.6-3.2-5.9-5.6-9.3-7.9c-1.4-0.9-2.8-2-4.2-3
	c-2.8-2-4.8-4.7-6.1-7.8c-0.2-0.4-0.4-0.8-0.5-1.2c-1.4-4.4-4.5-6.8-8.9-7.7c-0.4-0.1-0.7-0.2-1.1-0.3c-1.7-0.6-2-1.3-1.2-2.8
	c2-3.6,4.2-6.8,8.3-8.6c3.9-1.7,7.3-4.5,9.3-8.6c0.8-1.7,3-2.6,4.7-2c0.6,0.2,1.1,0.8,1.4,1.3c2,3,3.2,6.3,3.6,9.9
	c0.4,3.2,0.7,6.4,1.5,9.4c0.9,3.3,2.4,6.5,4.6,9.3c2.2,2.8,4.4,5.6,6.6,8.3c-1.4,2.8-2.7,5.5-4.1,8.3c-1.9-5.9-3.8-11.6-5.7-17.3
	c-0.3-1.1-0.7-2.1-1.2-3.1c-0.3-0.6-0.8-1.2-1.2-1.8c-1.1,1.3-1.1,1.3,0.2,5.2c0.2-0.3,0.3-0.6,0.7-1.3c1.5,4.6,2.9,8.9,4.3,13.2
	c-0.1,0-0.2,0.1-0.3,0.1c-0.7-1-1.3-2.1-2-3c-1.6-1.9-3.2-3.9-5-5.7c-4.4-4.6-8.6-9.2-12.4-14.3c-1.2-1.6-2.8-3-4.5-4.3
	c0.2,0.4,0.4,0.8,0.7,1.1c5.5,7.4,11.3,14.7,17.9,21.3c2.3,2.3,3.9,5,5.5,8.3c-4.9-2.6-8.9-5.7-13-8.6
	C258.5,241.2,264.6,243.9,269.9,248.3z"/>
<path class="st0" d="M311.2,238.7c0,0.4,0.1,0.8,0.1,1.2c0,4.5-0.2,9-0.1,13.6c0,5-0.2,10,0.3,14.9c0.6,6.6,0.4,13.1-0.2,19.7
	c-0.4,3.7-0.3,7.4-0.4,11.1c0,0.9,0,1.7-0.3,2.8c-0.5-0.6-0.9-1.2-1.4-1.8c-1.6-2.4-3.3-4.8-4.8-7.2c-0.4-0.7-0.7-1.4-1-2.2
	c-0.5-1.8-0.8-3.6-1.6-5.3c-1.2-2.9-1.3-5.9-1-8.9c0.4-4.7,1.1-9.4,1.6-14.1c0-0.4-0.1-0.8-0.2-1.2c-0.2-0.6-0.5-1.1-0.6-1.6
	c-0.5-1.8-0.3-3.4,0.6-5.1c2.2-4.3,4.3-8.6,6.5-12.9c0.6-1.1,1.5-2.1,2.2-3.1C310.9,238.6,311,238.6,311.2,238.7z"/>
<path class="st0" d="M227.4,204.9c-0.1-4.2,3.2-5.5,5.6-7.6c1.7,4.5,5.3,7.1,9.3,9.3c-2.7-3.1-6.8-4.9-8.1-9.3c1.6,2,3.2,4,5.8,5.2
	c-0.7-0.9-1.4-1.7-2.1-2.6c-0.5-0.6-1-1.1-1.4-1.7c-1.2-1.7-1-3.5,0.8-4.6c1.5-1,3.2-1.7,5-2.7c0,5.8,3.6,8.6,8,11.1
	c-0.3,0.5-0.6,1.1-0.9,1.5c-2.1,2.2-4.5,4.1-7.1,5.6c-1.9,1-3.7,2.1-5.8,3.3C233.6,210.1,231.5,206.4,227.4,204.9z"/>
<path class="st0" d="M222.2,336.9c-0.7-1-0.3-1.7,0.2-2.4c1.6-2.2,3.3-4.4,4.9-6.6c0.1-0.1,0.3-0.1,0.6-0.2c0.1,1.7-1.2,2.9-1.5,4.4
	c-0.3,1.6-0.8,3.2-1.1,4.8c-0.3,1.6-0.6,3.2-0.8,4.8c-0.2,1.5-0.4,3.1-0.5,4.6c-0.1,1.6-0.3,3.3-0.3,4.9c-0.1,1.6,0,3.2,0,4.8
	c-0.2,0.1-0.3,0.1-0.5,0.2c-1.6-1.5-3.2-3-4.7-4.6c-1.1-1.2-1.1-2.3,0-3.6c1.3-1.6,1.4-3.4,1.4-5.2c0-0.9-0.6-2-1.3-2.7
	c-1.4-1.3-3.1-2.3-4.7-3.3c-1.5-1-3-1.9-4.4-3c-1.7-1.4-1.4-3,0.7-3.9c1-0.4,2.1-0.9,3.2-1c4.2-0.5,8.4-0.8,13.2-1.3
	c-1.8,2.1-3.2,3.8-4.7,5.5c-1.4,1.4-1.6,3.1-1.3,4.9c0.1,0.4,0.4,0.7,0.6,1.1c2-0.8,2.6-1.7,3.3-4.1
	C223.6,335.7,222.9,336.3,222.2,336.9z"/>
<path class="st0" d="M275.4,237c-2.1-2.6-4-5-5.9-7.4c-2.1-2.6-3.6-5.4-4.6-8.6c2.3-0.9,17.5-1.2,22.8-0.5
	C283.6,226,279.5,231.5,275.4,237z"/>
<path class="st0" d="M322.4,344c1.3,2.8,2.3,5.6,3.9,8.1c1.3,2,1.3,3.8,0.7,6c-1.5,5.1-2.7,10.3-4.1,15.4c-0.2,0.8-0.6,1.5-1.1,2.5
	C320.1,372.9,320.6,349.7,322.4,344z"/>
<path class="st0" d="M325.7,347.8c-1-2.2-2-4.4-3-6.5c-0.1-0.3-0.1-0.6-0.1-0.9c0.7-5.5,1.4-10.9,2.1-16.4c0.2-0.1,0.4-0.3,0.7-0.4
	c0.1,0.3,0,0.7,0.2,0.9c1.8,2.4,3.5,4.7,5.4,7c0.8,0.9,1,1.7,0.5,2.8C329.6,338.6,327.8,343,325.7,347.8z"/>
<path class="st0" d="M304.1,385.2c-0.5,0.8-0.6,1.2-0.9,1.5c-2.5,2.4-12.2,9.8-14,10.6c1.3-6.2,2.5-12.4,3.9-19
	C295.7,382.3,298.8,385.2,304.1,385.2z"/>
<path class="st0" d="M282.7,273.3c2.8,0.9,5.6,1.7,8.4,2.7c2.3,0.8,4.4,1.8,6.6,2.8c0.5,0.2,1.1,0.7,1.2,1.2c0.7,2.9,1.4,5.9,2,8.9
	c-0.3-0.1-0.5-0.1-0.7-0.2c-4-3-8.1-6.1-12.1-9.1c-1.3-1-2.6-1.9-3.8-3c-0.8-0.8-1.4-1.9-2.1-2.8
	C282.5,273.6,282.6,273.5,282.7,273.3z"/>
<path class="st0" d="M282.4,255c2.1,0.5,3.8,0.9,5.6,1.4c-0.7,5.4-1.4,10.7-2.1,16.2c-1.4-0.4-2.8-0.8-4.3-1.2
	C281.8,265.9,282.1,260.6,282.4,255z"/>
<path class="st0" d="M279.9,270.9c-1.6-0.3-2.9-0.6-4.2-0.9c0.2-5.4,0.4-10.6,0.5-16.1c1.8,0.3,3.4,0.6,5.3,1
	C280.9,260.2,280.4,265.4,279.9,270.9z"/>
<path class="st0" d="M256.4,254.9c0-4.5-0.7-8.8-2.4-13.3c5.2,2.7,9,6.3,12.7,10.4C263.2,253,260,254,256.4,254.9z"/>
<path class="st0" d="M269.7,253.9c1.9,0,3.6,0,5.6,0c-0.4,5.3-0.6,10.5-1.5,15.8c-1.2-0.1-2.3-0.2-3.6-0.4
	C270.1,264.2,269.9,259.1,269.7,253.9z"/>
<path class="st0" d="M288.8,256.6c2.1,0.8,3.7,1.4,5.4,2c-1,5.3-2,10.4-3.1,15.6c-1.2-0.4-2.2-0.7-3.5-1.1
	C288,267.7,288.4,262.4,288.8,256.6z"/>
<path class="st0" d="M263.5,254.4c1.8-0.2,3.5-0.4,5.3-0.6c0,5.1,0,10.2,0,15.5c-1.3,0.1-2.4,0.3-3.8,0.4
	C264.5,264.6,264,259.8,263.5,254.4z"/>
<path class="st0" d="M258.4,255.9c1.3-0.4,2.6-0.8,4.2-1.3c0.3,5.2,0.6,10.1,0.9,15.2c-1.5,0.2-2.7,0.4-4.2,0.6
	C259,265.7,258.7,261,258.4,255.9z"/>
<path class="st0" d="M298.6,260.6c-1,5.2-1.9,10.1-2.9,15.3c-1-0.4-1.8-0.7-2.9-1.1c0.7-5.2,1.5-10.3,2.3-15.8
	C296.3,259.6,297.3,260,298.6,260.6z"/>
<path class="st0" d="M236,318.3c-1,1.6-1.9,3.1-3,4.9c-2.1-4.5-3.4-8.8-3.9-13.4C231.6,310.6,233.3,312.7,236,318.3z"/>
<path class="st0" d="M257.8,256.2c0,5.1,0,9.7,0,14.6c-0.7,0.2-1.5,0.5-2.5,0.8c-0.2-4.8-0.4-9.4-0.6-14.2
	C255.6,257,256.5,256.7,257.8,256.2z"/>
<path class="st0" d="M298.7,277.3c-0.9-0.2-1.8-0.4-1.6-1.6c0.7-4.7,1.3-9.5,2-14.4c1.1,0.3,2,0.6,1.8,2
	C300.2,267.9,299.5,272.5,298.7,277.3z"/>
<path class="st0" d="M256.8,317.7c-1,0.9-1.7,1.5-2.5,2.3C254.3,317.6,254.3,317.6,256.8,317.7z"/>
<path class="st0" d="M258.7,130.8c0.6,0,1.2,0,1.8,0c0.3,0.6,0.7,1.2,1.3,2.2c-1.4-0.7-2.3-1.3-3.3-1.8
	C258.6,131.1,258.7,130.9,258.7,130.8z"/>
<path class="st0" d="M276,331.9c0.3,1.8,0.6,3.6,0.9,5.4c-0.2,0-0.3,0.1-0.5,0.1c-0.3-1.8-0.7-3.6-1-5.4
	C275.6,331.9,275.8,331.9,276,331.9z"/>
<path class="st0" d="M216.7,343.6c0.9,0.3,1.6,0.8,0.7,2.1C217.2,344.9,216.9,344.3,216.7,343.6z"/>
<path d="M229.7,467c-0.8,3.7-1.4,7.4-2.4,11c-3.8,13.8-7.8,27.5-11.7,41.2c-0.1,0.3-0.2,0.5-0.4,0.8
	C219,502.1,224.5,484.6,229.7,467z"/>
<path d="M259.9,373.3c-2.3,11.6-4.7,23.2-7,34.8C254.9,396.4,256.2,384.6,259.9,373.3z"/>
<path d="M314.7,649.5c-0.4-1-0.8-2-1.2-3C314.3,647.5,315,648.4,314.7,649.5C314.7,649.6,314.7,649.5,314.7,649.5z"/>
<path d="M295.7,591.4c0.3,0.6,0.5,1.1,0.8,1.7c-0.1,0-0.3,0.1-0.4,0.1C296,592.6,295.9,592,295.7,591.4
	C295.8,591.4,295.7,591.4,295.7,591.4z"/>
<path d="M281.6,187.8c5.6-3.9,10.8-1.7,16,0.3c-2.2-0.3-4.4-0.4-6.6-0.9c-2.9-0.6-5.6-0.5-8.2,0.8c-0.2,0.1-0.4,0.1-0.6,0.1
	C282.1,188.2,282.1,188.1,281.6,187.8z"/>
<path d="M258.7,190.6c3.8-0.9,7.7-1.8,11.6-2.6c1.9-0.4,3.4,0.5,4.6,2.6c-0.8-0.2-1.2-0.3-1.5-0.5c-1.3-1.1-2.8-1.1-4.4-0.7
	c-2.6,0.6-5.2,1.1-7.8,1.5c-0.8,0.1-1.6,0.2-2.4,0.2C258.7,190.9,258.7,190.7,258.7,190.6z"/>
<path d="M278,183.8c-0.3,1.3-0.5,2.7-1,4c-0.7,1.8-1.8,1.8-2.9,0.1c0-0.1,0.1-0.2,0.1-0.2c0.4,0.1,0.8,0.2,1.5,0.4
	c0.7-1.4,1.3-2.9,2-4.3C277.7,183.8,277.8,183.8,278,183.8z"/>
<path d="M265.7,272c-0.8,0.9-1.5,2-2.4,2.8c-9,8-13.6,18.5-17.4,29.6c-0.7,2.1-1.4,4.2-2.2,6.2c2.4-15.6,8.8-29,21.6-38.9
	C265.4,271.8,265.5,271.9,265.7,272z"/>
<path d="M246.5,314.5c1.4-3.7,2.7-7.5,4.1-11.2c0.1,0,0.3,0.1,0.4,0.1c-1.5,3.8-2.2,7.8-4.1,11.3
	C246.8,314.7,246.7,314.6,246.5,314.5z"/>
<path d="M236.4,297.5c0.4-0.6,0.8-1.3,1.1-1.9c0.1,0.1,0.3,0.2,0.4,0.3C237.4,296.4,236.9,296.9,236.4,297.5
	C236.4,297.4,236.4,297.5,236.4,297.5z"/>
<path d="M306.4,333.5c3,3.6,4.4,7.9,5.4,12.4C309.1,342.1,308.2,337.6,306.4,333.5z"/>
<path d="M301.4,241.3c0.6-0.4,1.1-0.9,1.7-1.3c0.1,0.2,0.2,0.3,0.3,0.5C302.7,240.7,302,241,301.4,241.3
	C301.4,241.3,301.4,241.3,301.4,241.3z"/>
<path d="M279.8,130.6c-1.1,0.4-2.1,0.8-3.1,1.2c0.5-1.4,0.6-1.5,1.9-2c2.7-1.1,7.2-1.1,9.3-0.1c-2.7,3.5-3.8,4.1-7.5,3.7
	c0.4-0.2,0.5-0.4,0.9-0.6c-0.2-0.3-0.5-0.6-0.7-0.9C280.4,131.5,280.2,131.2,279.8,130.6z M283.3,132.2c1.2-0.3,2-0.8,2.8-1.7
	C284.6,129.9,283.8,130.5,283.3,132.2z"/>
<path d="M286.6,125.1c-3.8,1.5-8,1.9-11.9,4.3c0.5-1.4,1.3-2.2,2.2-2.4c2.8-0.8,5.6-1.4,8.4-2.1
	C285.6,124.9,286.1,125.1,286.6,125.1z"/>
<path d="M260.7,126.5c2.4,0.4,5.2-0.4,7.6,2.1c-2.9-0.6-5.3-1.1-7.7-1.6C260.6,126.8,260.6,126.7,260.7,126.5z"/>
<path d="M277.7,149.3c-3.2-0.2-6.3,1-9.5,0.3C271.3,149.1,274.5,148.4,277.7,149.3z"/>
<path d="M272.1,151.6c0.7-0.6,1.5-0.9,2.4-0.3C273.3,152.3,273.3,152.3,272.1,151.6z"/>
<path class="st0" d="M283.3,132.2c0.5-1.7,1.3-2.2,2.8-1.7C285.3,131.4,284.5,131.9,283.3,132.2z"/>
</svg>
