<?xml version="1.0" encoding="utf-8"?>
<!-- Generator: Adobe Illustrator 19.0.0, SVG Export Plug-In . SVG Version: 6.00 Build 0)  -->
<svg version="1.1" id="图层_1" xmlns="http://www.w3.org/2000/svg" xmlns:xlink="http://www.w3.org/1999/xlink" x="0px" y="0px"
	 viewBox="0 0 595.3 841.9" style="enable-background:new 0 0 595.3 841.9;" xml:space="preserve">
<style type="text/css">
	.st0{fill:#FFFFFF;}
</style>
<path class="st0" d="M1.4,841.8c0-280,0-560,0-840c197.9,0,395.9,0,593.8,0c0,280,0,560,0,840C397.3,841.8,199.3,841.8,1.4,841.8z
	 M328.9,344.5c0.5-1.2,1-2.3,1.4-3.4c1.4-3.5,2.8-7.1,4.2-10.7c0.4-1,0.8-1.9,1.3-2.8c0.6-1.3,0.3-2.4-0.7-3.5
	c-2.5-2.9-4.8-5.9-7.3-8.9c-0.7-0.8-0.9-1.6-0.7-2.6c0.2-1.7,0.4-3.3,0.6-5c1.1-10.5,1.4-21,0-31.5c-0.4-3.1-0.8-6.4-0.6-9.5
	c0.9-9.9,2-19.7,3.1-29.5c0.8-7.1,1.8-14.3,1.8-21.5c0-2.8,0.1-5.6,0.2-8.4c0.2-5.5,0.6-11,0.5-16.5c-0.1-2.7-0.1-4.8,2.8-5.9
	c0.9-0.4,1.2-1.2,0.7-2.2c-1.3-2.3-2.5-4.6-3.8-6.9c-0.6-1-1.4-1.5-2.5-0.7c-1.4-2.1-2-4.9-5.1-4.8c-0.6,0.8-1.2,1.5-1.7,2.3
	c-1-0.6-1.9-1.2-2.8-1.6c-1-0.4-2.1-0.7-3.2-0.8c-4.2-0.4-8.1-1.8-12-3.2c-4.4-1.5-8.1-4.1-11.5-7.2c-7.2-6.6-11-15-12.3-24.5
	c-0.1-0.7,0.2-1.5,0.6-2.2c0.9-2.1,2-4.2,2.9-6.3c0.6-1.3,0.9-2.7,1.4-4.3c0.2,1.9,0.4,3.5,0.6,5c0.1,1.5-0.9,3,0.5,4.7
	c0.2-0.7,0.5-1.1,0.5-1.5c0.2-1.4,0.3-2.9,0.5-4.3c0.5-3.1,0.8-6.2,2.4-9c2.3-4.1,2.9-8.5,3.3-13.1c0.5-5.3-0.5-10.5-1.1-15.7
	c-0.3-3.4-1.4-6.6-3.4-9.3c-3.3-4.5-7.7-6.7-13.4-6.2c-0.5,0-1-0.1-1.9-0.1c8-7,14.4-14.6,18.7-23.8c-6.1,7.7-11.5,16.1-19.3,22.2
	c-1.7-0.8-3.2-1.4-4.8-2.1c0.1-0.2,0.1-0.5,0.2-0.7c2.5-4.7,5.1-9.4,7.6-14.1c2.3-4.2,3.2-8.7,2.6-13.5c-0.2,0.5-0.3,1-0.4,1.5
	c-0.7,2.9-1,5.9-2.2,8.5c-2.7,5.9-5.9,11.6-8.9,17.5c-0.5,0.9-1.2,1.4-2.2,1.6c-6.8,1.1-12.2,4.8-17.5,8.9c-2.5,1.9-3.7,4.6-3.8,7.7
	c-0.1,1.6,0.1,3.1,0.2,4.8c-6.2,3.9-12.6,7.4-19.5,10c-7.9,3-15.9,5.1-24.5,4.9c-2.5-0.1-5.1-0.1-7.5-0.2c0,0,0.1,0.2,0.2,0.2
	c4.2,0.7,8.3,1.7,12.6,1.1c4.2-0.7,8.5-1.4,12.7-2.5c8.6-2.3,16.5-6.3,24.1-10.9c0.8-0.5,1.6-1,2.4-1.4c0.8,1.8,0.8,1.8,0.2,2.7
	c-2.4,3.8-4.8,7.5-7.2,11.3c-4.4,6.9-8.1,14.1-9.9,22.2c-0.8,3.7-1.7,7.3-2.6,10.9c-0.1,0.5-0.2,1.1-0.3,1.6
	c1.7-4.8,3.1-9.6,4.8-14.3c1.2-3.5,2.4-7,4.1-10.2c3-5.7,6.4-11.2,9.6-16.8c0.3-0.5,0.7-1.1,1.1-1.6c0,0,0.1,0,0.2,0
	c0.1,0,0.1,0.1,0.2,0.1c0,0.3,0,0.6-0.1,0.9c-1.2,4.8,0.3,9.2,2.4,13.3c2.5,4.8,4.4,9.7,4.8,15.1c0.1,1.8,0.4,3.6,2.1,4.9
	c-0.9-5.2-1.7-10.4-2.6-15.6c0.3,0.2,0.5,0.5,0.6,0.8c1.2,5.2,3.9,9.7,6.6,14.3c0.7,1.3,1.4,2.7,1.8,4.1c1.2,4.1,2.2,8.2,3.2,12.3
	c0.2,0.6,0.4,1.3,0.3,1.9c-0.3,3.5-0.7,7-1.9,10.3c-1.2,3.1-3.1,5.5-6.2,6.9c-3.6,1.7-7.3,2.8-11.1,3.7c-1.6,0.4-3.2,1-4.7,1.6
	c-0.1,0-0.3,0-0.4,0c0-0.4-0.1-0.7-0.1-1.5c-2.8,1.4-5.4,2.7-8,4.2c-0.8,0.5-1.3,1.6-2,2.2c-0.9,0.8-1.9,1.5-2.8,2.2
	c-0.7,0.5-1.5,1-2.2,1.4c-2.2,1.5-3.7,3.4-4.2,6.2c-0.1,0.8-0.5,1.7-1,2.3c-2.6,3.5-5.2,6.9-7.8,10.3c-6.6,8.6-13.3,17.2-19.8,25.9
	c-3.3,4.4-6.2,9.1-9.4,13.6c-1.5,2.1-1.3,4.2,0.2,6.2c1.3,1.5,2.6,3,4,4.4c5.1,4.9,10.8,9,17.1,12.2c4,2,7.7,4.6,11,7.6
	c3.2,3,6.4,6,9.6,9.1c-0.3,0.4-0.5,0.7-0.7,1c-5.6,8-11.4,16-15.8,24.8c-2.1,4.1-4.7,7.8-7.8,11.1c-1.1,1.2-2.2,2.4-3.2,3.6
	c-0.7,0.8-1.3,1.6-1.8,2.5c-1.4,2.7-0.9,5.2,1.3,7.1c1.1,0.9,2.3,1.7,3.6,2.4c2.2,1.1,4.5,2.1,6.7,3.2c0.7,0.3,1.4,0.9,1.7,1.5
	c0.9,2.2,1.7,4.5,1.4,7c-0.3,2.1,0.5,3.6,1.9,4.9c1.7,1.7,3.5,3.3,5.1,5c0.6,0.6,1,1.5,1.1,2.2c0.4,3.6,0.6,7.1,1.1,10.7
	c1,8.5,1.9,17,3.2,25.4c1.1,7,1.4,13.9-0.3,20.9c-2.1,8.8-4.3,17.5-6.3,26.3c-4,17.7-9.3,35-16.5,51.6c-9.1,21-17.9,42.1-26.9,63.2
	c-5.8,13.7-11.2,27.5-17.2,41c-11.9,26.8-26.1,52.4-40.7,77.8c-3.9,6.8-8.5,13.1-13.2,19.4c-1,1.3-2.1,2.2-3.6,2.6
	c-2.6,0.7-5.2,1.5-7.8,2.2c-3.2,0.8-6.4,1.3-9.6,2.1c-1,0.2-2,0.5-2.9,1c-2.1,1-2.2,2.4-0.6,3.9c0.5,0.5,1.1,0.9,1.8,1.2
	c2.8,1.6,5.6,3.1,8.4,4.6c3.7,2.1,7.7,3.3,11.9,2.9c7.5-0.7,15.1-1.5,22.6-2.4c7.3-1,14.5-2.2,21.7-3.3c1.6-0.2,3.2-0.4,5.2-0.2
	c-1.6,2.4-2.9,4.4-4.3,6.5c0.3,0.4,0.8,0.6,0.8,0.9c0.1,2.3,1.9,3.5,3.6,4.5c3.8,2.2,7,5,9.8,8.3c3.8,4.4,8.3,8.1,13.1,11.5
	c2.6,1.9,5.5,3.3,8.5,4.3c7.3,2.5,14.9,3.5,22.6,3.8c11.6,0.5,22.9-0.9,34.2-3.2c2.4-0.5,4.8-0.8,7.1-1.2c1,1.5,1.9,2.7,2.8,4
	c0.3,0.4,0.6,0.7,1,1c0.7,0.5,1.7,0.9,2.3,1.5c3.2,3.1,7,5,11.3,5.7c3.5,0.6,7.1,1,10.6,1.8c3.2,0.8,6,0.3,8.6-1.5
	c5.6-4,11.2-7.9,16.6-12.1c6-4.7,10.1-10.7,11.5-18c4.3,0.3,8.5,0.5,12.7,0.8c2.8,0.2,5.7,0.5,8.5,1.1c2.4,0.5,2.4,0.7,2.3,3.3
	c-0.1,1.8,0.5,2.4,2.3,2.7c0.5,0.1,1-0.1,1.4,0c0.6,0.1,1.3,0,1.8,0.3c4.5,2.7,9.4,4.3,14.4,5.6c12.2,3.2,24.5,6.3,36.8,9.4
	c4.7,1.2,9.5,1.4,14.2,0.2c2.6-0.7,5.1-1.8,7.5-3c4.6-2.1,9.3-3.4,14.4-2.3c6.5,1.4,12.8,0.7,19.1-1.1c3.6-1,7.2-2,10.9-2.7
	c6.4-1.2,12.9-2.1,19.4-3.2c12-1.9,24-3.4,36.2-3.1c9,0.2,17.8-1.4,26.4-3.9c6.7-1.9,11.1-6.6,14.8-12.2c1.2-1.8,0.7-3.1-1.4-3.9
	c-1.3-0.5-2.7-0.9-4.2-1.1c-8.1-1.1-16-2.7-24-4.3c-13.4-2.7-26.1-7-38-13.9c-5.2-3-10.6-5.5-16-8.2c-4.6-2.2-9.1-4.7-13-8
	c-7.6-6.6-16.6-10.7-25.8-14.3c-6-2.4-12.1-4.5-18.1-6.9c-6.3-2.6-12.6-5.5-18.8-8.3c-3.3-1.5-5.9-3.7-7.8-6.8
	c-1.7-2.6-3.5-5.1-5.3-7.7c-11.7-16.8-22.1-34.3-30.5-53c-3.5-7.7-7-15.4-10.8-22.9c-6.9-13.6-14.1-27-20.9-40.6
	c-10.1-20.3-20.1-40.8-30-61.2c-1.3-2.7-2.4-5.6-3.3-8.4c-1.9-6-3.5-12.1-5.4-18.1c-0.5-1.5-0.4-2.7,0.1-4.2
	c2.6-7.5,5.2-15.1,7.7-22.7c0.7-2.1,1.5-3.8,3.6-4.7c0.9-0.4,1.7-1.2,2.5-1.8c3.6-2.8,7.1-5.6,10.7-8.5c1.1-0.9,2.3-1.3,3.4-1.1
	c0.7,1.9,1.1,3.6,1.9,5.1c1,2.1,2.2,4.1,3.5,6c1.9,2.7,3.5,5.5,2.8,9c-0.2,1-0.3,2.1-0.4,3.1c-0.2,1.3-0.4,2.7-0.5,4
	c-0.1,0.8-0.1,1.8,0.9,2c1.1,0.3,1.5-0.7,1.8-1.5c0.2-0.5,0.3-1.1,0.5-1.6c0.1-0.3,0.2-0.7,0.4-0.8c2.3-0.8,2.8-3,3.4-4.9
	c1.7-5,3.6-9.8,4.8-15c0.5-2.3,0.6-4.6,0.2-6.9c-0.5-2.7-1.1-5.5-1.6-8.2c-0.1-0.6-0.1-1.4,0.2-1.7c1.3-1.2,1.7-2.9,2.1-4.5
	c1.7-6.4,3.3-12.8,4.9-19.2c0.1-0.6-0.1-1.4-0.4-2C330.5,346.9,329.6,345.7,328.9,344.5z"/>
<path d="M328.9,344.5c0.7,1.1,1.6,2.4,2.3,3.7c0.3,0.6,0.5,1.4,0.4,2c-1.6,6.4-3.2,12.8-4.9,19.2c-0.4,1.6-0.8,3.2-2.1,4.5
	c-0.3,0.3-0.3,1.2-0.2,1.7c0.5,2.7,1.1,5.5,1.6,8.2c0.4,2.3,0.3,4.6-0.2,6.9c-1.1,5.1-3.1,10-4.8,15c-0.6,1.9-1.1,4.1-3.4,4.9
	c-0.2,0.1-0.3,0.5-0.4,0.8c-0.2,0.5-0.3,1.1-0.5,1.6c-0.3,0.8-0.7,1.8-1.8,1.5c-1-0.2-0.9-1.2-0.9-2c0.1-1.3,0.3-2.7,0.5-4
	c0.1-1,0.2-2.1,0.4-3.1c0.7-3.5-0.9-6.3-2.8-9c-1.3-1.9-2.5-3.9-3.5-6c-0.8-1.5-1.2-3.3-1.9-5.1c-1.1-0.3-2.3,0.2-3.4,1.1
	c-3.5,2.8-7.1,5.7-10.7,8.5c-0.8,0.6-1.6,1.4-2.5,1.8c-2.1,0.9-2.9,2.7-3.6,4.7c-2.5,7.6-5.1,15.1-7.7,22.7
	c-0.5,1.4-0.6,2.7-0.1,4.2c1.9,6,3.5,12.1,5.4,18.1c0.9,2.9,2,5.7,3.3,8.4c10,20.4,19.9,40.9,30,61.2c6.8,13.6,14,27,20.9,40.6
	c3.8,7.5,7.4,15.2,10.8,22.9c8.4,18.7,18.8,36.2,30.5,53c1.8,2.6,3.6,5.1,5.3,7.7c1.9,3.1,4.5,5.3,7.8,6.8
	c6.3,2.8,12.5,5.7,18.8,8.3c6,2.5,12.1,4.6,18.1,6.9c9.2,3.6,18.2,7.7,25.8,14.3c3.9,3.4,8.4,5.8,13,8c5.4,2.6,10.8,5.2,16,8.2
	c11.9,6.9,24.6,11.2,38,13.9c8,1.6,16,3.1,24,4.3c1.4,0.2,2.8,0.6,4.2,1.1c2.1,0.8,2.6,2.1,1.4,3.9c-3.7,5.5-8.1,10.3-14.8,12.2
	c-8.6,2.4-17.4,4.1-26.4,3.9c-12.2-0.3-24.2,1.2-36.2,3.1c-6.5,1-12.9,2-19.4,3.2c-3.7,0.7-7.3,1.7-10.9,2.7
	c-6.3,1.8-12.7,2.5-19.1,1.1c-5.1-1.1-9.8,0.1-14.4,2.3c-2.4,1.1-4.9,2.3-7.5,3c-4.7,1.2-9.5,1-14.2-0.2
	c-12.3-3.1-24.6-6.2-36.8-9.4c-5-1.3-9.9-2.9-14.4-5.6c-0.5-0.3-1.2-0.3-1.8-0.3c-0.5,0-1,0.1-1.4,0c-1.8-0.2-2.3-0.9-2.3-2.7
	c0.1-2.5,0.1-2.8-2.3-3.3c-2.8-0.6-5.7-0.9-8.5-1.1c-4.2-0.4-8.4-0.6-12.7-0.8c-1.4,7.3-5.6,13.3-11.5,18
	c-5.4,4.2-11.1,8.1-16.6,12.1c-2.6,1.9-5.4,2.3-8.6,1.5c-3.5-0.9-7.1-1.2-10.6-1.8c-4.4-0.7-8.2-2.6-11.3-5.7
	c-0.6-0.6-1.5-1-2.3-1.5c-0.4-0.3-0.7-0.6-1-1c-0.9-1.2-1.8-2.5-2.8-4c-2.2,0.4-4.7,0.7-7.1,1.2c-11.3,2.3-22.7,3.7-34.2,3.2
	c-7.7-0.3-15.2-1.3-22.6-3.8c-3-1-5.9-2.4-8.5-4.3c-4.8-3.4-9.3-7.1-13.1-11.5c-2.8-3.3-6-6.1-9.8-8.3c-1.7-1-3.4-2.1-3.6-4.5
	c0-0.3-0.5-0.6-0.8-0.9c1.4-2.1,2.7-4.1,4.3-6.5c-2-0.1-3.6,0-5.2,0.2c-7.3,1.1-14.5,2.4-21.7,3.3c-7.5,1-15,1.8-22.6,2.4
	c-4.2,0.4-8.2-0.9-11.9-2.9c-2.8-1.6-5.6-3.1-8.4-4.6c-0.6-0.3-1.2-0.7-1.8-1.2c-1.7-1.5-1.5-2.9,0.6-3.9c0.9-0.4,1.9-0.7,2.9-1
	c3.2-0.7,6.4-1.3,9.6-2.1c2.6-0.6,5.2-1.5,7.8-2.2c1.6-0.4,2.7-1.3,3.6-2.6c4.7-6.2,9.3-12.6,13.2-19.4c14.6-25.4,28.9-51,40.7-77.8
	c6-13.6,11.4-27.4,17.2-41c8.9-21.1,17.8-42.2,26.9-63.2c7.2-16.7,12.5-33.9,16.5-51.6c2-8.8,4.2-17.5,6.3-26.3
	c1.7-6.9,1.4-13.9,0.3-20.9c-1.3-8.4-2.2-16.9-3.2-25.4c-0.4-3.6-0.6-7.1-1.1-10.7c-0.1-0.8-0.6-1.7-1.1-2.2c-1.6-1.7-3.4-3.4-5.1-5
	c-1.4-1.3-2.2-2.8-1.9-4.9c0.4-2.4-0.4-4.8-1.4-7c-0.3-0.6-1-1.2-1.7-1.5c-2.2-1.1-4.5-2-6.7-3.2c-1.3-0.7-2.5-1.5-3.6-2.4
	c-2.3-1.9-2.7-4.4-1.3-7.1c0.5-0.9,1.1-1.7,1.8-2.5c1-1.2,2.1-2.4,3.2-3.6c3.1-3.4,5.8-7,7.8-11.1c4.4-8.8,10.1-16.8,15.8-24.8
	c0.2-0.3,0.4-0.6,0.7-1c-3.3-3.1-6.4-6.1-9.6-9.1c-3.3-3.1-6.9-5.6-11-7.6c-6.3-3.2-12-7.2-17.1-12.2c-1.4-1.4-2.8-2.9-4-4.4
	c-1.6-1.9-1.7-4-0.2-6.2c3.1-4.5,6.1-9.2,9.4-13.6c6.5-8.7,13.2-17.2,19.8-25.9c2.6-3.4,5.2-6.8,7.8-10.3c0.5-0.7,0.9-1.5,1-2.3
	c0.5-2.7,1.9-4.7,4.2-6.2c0.7-0.5,1.5-0.9,2.2-1.4c1-0.7,1.9-1.4,2.8-2.2c0.7-0.7,1.2-1.8,2-2.2c2.5-1.5,5.2-2.7,8-4.2
	c0.1,0.8,0.1,1.1,0.1,1.5c0.1,0,0.3,0,0.4,0c1.6-0.5,3.1-1.2,4.7-1.6c3.8-0.9,7.5-2,11.1-3.7c3.1-1.5,5-3.8,6.2-6.9
	c1.2-3.3,1.6-6.8,1.9-10.3c0.1-0.6-0.2-1.3-0.3-1.9c-1-4.1-2-8.2-3.2-12.3c-0.4-1.4-1.1-2.8-1.8-4.1c-2.6-4.6-5.4-9.1-6.6-14.3
	c-0.1-0.3-0.2-0.6-0.6-0.8c0.9,5.2,1.7,10.4,2.6,15.6c-1.8-1.3-2-3.1-2.1-4.9c-0.4-5.4-2.4-10.3-4.8-15.1c-2.1-4.1-3.6-8.5-2.4-13.3
	c0.1-0.3,0-0.6,0.1-0.9c-0.1-0.1-0.2-0.1-0.2-0.1c-0.1,0-0.2,0-0.2,0c-0.4,0.5-0.8,1-1.1,1.6c-3.2,5.6-6.6,11.1-9.6,16.8
	c-1.7,3.2-2.9,6.7-4.1,10.2c-1.6,4.7-3.1,9.5-4.8,14.3c0.1-0.5,0.1-1.1,0.3-1.6c0.8-3.6,1.7-7.3,2.6-10.9c1.8-8.1,5.5-15.3,9.9-22.2
	c2.4-3.8,4.8-7.5,7.2-11.3c0.6-1,0.6-1-0.2-2.7c-0.8,0.5-1.6,1-2.4,1.4c-7.6,4.5-15.5,8.6-24.1,10.9c-4.1,1.1-8.4,1.8-12.7,2.5
	c-4.2,0.7-8.4-0.3-12.6-1.1c-0.1,0-0.2-0.2-0.2-0.2c2.5,0.1,5,0.1,7.5,0.2c8.5,0.3,16.6-1.8,24.5-4.9c6.9-2.7,13.3-6.1,19.5-10
	c-0.1-1.7-0.3-3.3-0.2-4.8c0.1-3.1,1.3-5.8,3.8-7.7c5.3-4.1,10.7-7.8,17.5-8.9c1-0.2,1.8-0.6,2.2-1.6c3-5.8,6.2-11.5,8.9-17.5
	c1.2-2.6,1.5-5.7,2.2-8.5c0.1-0.5,0.2-1,0.4-1.5c0.6,4.8-0.3,9.2-2.6,13.5c-2.5,4.7-5.1,9.4-7.6,14.1c-0.1,0.2-0.2,0.4-0.2,0.7
	c1.5,0.7,3,1.3,4.8,2.1c7.8-6.1,13.1-14.4,19.3-22.2c-4.4,9.2-10.8,16.8-18.7,23.8c0.9,0.1,1.4,0.2,1.9,0.1
	c5.7-0.5,10.1,1.6,13.4,6.2c2,2.8,3,6,3.4,9.3c0.5,5.2,1.5,10.4,1.1,15.7c-0.4,4.5-1,9-3.3,13.1c-1.6,2.8-1.9,5.9-2.4,9
	c-0.2,1.4-0.3,2.9-0.5,4.3c-0.1,0.4-0.3,0.8-0.5,1.5c-1.5-1.6-0.4-3.2-0.5-4.7c-0.1-1.6-0.3-3.1-0.6-5c-0.5,1.6-0.9,3-1.4,4.3
	c-0.9,2.1-2,4.2-2.9,6.3c-0.3,0.7-0.6,1.5-0.6,2.2c1.3,9.5,5,17.9,12.3,24.5c3.4,3.1,7.1,5.7,11.5,7.2c3.9,1.4,7.8,2.8,12,3.2
	c1.1,0.1,2.2,0.4,3.2,0.8c1,0.4,1.8,1,2.8,1.6c0.6-0.7,1.1-1.4,1.7-2.3c3.2,0,3.7,2.7,5.1,4.8c1.1-0.8,1.9-0.3,2.5,0.7
	c1.3,2.3,2.6,4.6,3.8,6.9c0.5,1,0.3,1.8-0.7,2.2c-3,1.1-2.9,3.3-2.8,5.9c0.1,5.5-0.3,11-0.5,16.5c-0.1,2.8-0.2,5.6-0.2,8.4
	c0,7.2-1,14.3-1.8,21.5c-1.1,9.8-2.2,19.7-3.1,29.5c-0.3,3.1,0.1,6.4,0.6,9.5c1.4,10.5,1.1,21,0,31.5c-0.2,1.7-0.3,3.3-0.6,5
	c-0.1,1,0.1,1.8,0.7,2.6c2.4,2.9,4.8,6,7.3,8.9c0.9,1.1,1.3,2.1,0.7,3.5c-0.4,0.9-0.9,1.9-1.3,2.8c-1.4,3.5-2.8,7.1-4.2,10.7
	C329.9,342.2,329.4,343.3,328.9,344.5z M301.7,227.8C301.7,227.8,301.6,227.8,301.7,227.8c-0.5,0.4-0.8,0.9-1.3,1.2
	c-3.6,2.3-7.2,4.7-10.9,7c-2.6,1.6-5.2,3.1-8.3,4.9c6.8,1.2,12.8,3.5,18.8,6.6c-0.5-2.1-0.1-3.9,0.7-5.5c1.8-4,3.7-8,5.8-11.8
	c1.2-2.3,2.8-4.4,4.4-6.5c1.3-1.7,1.8-3.8,0.7-5.7c-1.7-2.8-2.3-5.9-2.3-9.2c0-1,0-2,0-2.9c-4.3,5.8-6.5,12.7-11.2,18.1
	c1.5-3.5,3.1-6.9,4.8-10.3c1.8-3.4,3.8-6.7,5.7-10c-0.1-0.1-0.1-0.1-0.2-0.2c-0.9,0.7-1.7,1.3-2.6,2c7.9-9.5,18.7-15.3,28.7-22
	c-1.3-4-2.2-5.7-3.6-7.2c-2,1.1-4,2.3-6,3.4c-5.2,2.6-10.1,5.7-14.4,9.8c-1.7,1.6-3.6,2.9-5.4,4.4c6.3-8.1,14.7-13.3,24-17.6
	c-1.3-2-1.9-4-3.8-5c-0.2,0.1-0.3,0.1-0.4,0.2c-0.1,0.2-0.2,0.4-0.3,0.6c-0.9,3-2.8,5.4-5.3,7.2c-2,1.4-4.2,2.7-6.2,4
	c-2.2,1.4-4.5,2.8-6.6,4.3c-4.9,3.5-8.9,8-12.8,12.5c-6.6,7.5-12.4,15.6-18.6,23.4c-3.3,4.2-5.1,9.2-6.5,14.3
	c3-5.5,6.6-10.6,10.8-15.3c-3.4,5.6-6.9,11.1-10.6,17.1c10.9-10.5,20.4-21.6,29.7-32.8c-3.6,6.2-7.9,12-12.7,17.2
	c-4.8,5.2-9.9,10.2-14.9,15.4c2.6,0.4,5.1,0.8,7.5,1.1c0.7,0.1,1.6,0,2.2-0.4c2.4-1.3,4.8-2.8,7.2-4.3c3.2-2,6.3-4,9.6-5.9
	C298.7,229,300.2,228.5,301.7,227.8z M231.8,288.2L231.8,288.2c-1.1,1.6-2.2,3.3-3.3,4.9c-1.5,2.1-3,4.1-4.6,6.2
	c2.5,1.2,4.2,2.8,5.5,4.8c0.8,1.3,1.6,2.6,2.4,3.9c1.2,1.9,2.2,3.9,3.5,5.7c1.8,2.5,3.8,2.9,6.4,1.3c1.2-0.7,2.1-1.7,3.2-2.4
	c1.7-1.2,3.3-2.5,5.1-3.5c0.8-0.5,1.8-0.7,2.7-0.7c1.8,0,2.6,1.5,1.6,3c-0.5,0.8-1.3,1.4-2,2c-0.3,0.3-0.7,0.7-1.1,1.1
	c2,0,3.7,0,5.5,0c-0.2-3.2,0.7-6,2.3-8.5c3.5-5.6,6.6-11.5,9.2-17.6c3.8-8.7,7.6-17.5,11.4-26.2c-3.4-1.6-3.8-1.5-5.9,0.9
	c-0.2,0.2-0.3,0.4-0.4,0.6c-1.8,2.5-3.7,5.1-5.7,7.9c0.4-2.4,1.1-4.3,2.4-6c1.3-1.6,2.7-3.2,4.2-4.9c-1.4-0.2-2.5-0.6-3.6-0.6
	c-6.2-0.3-12.3,0-18.3,1.5c-0.7,0.2-1.4,0.4-2,0.7c-4.8,3-9.7,5.8-14.4,9c-3.3,2.3-6.9,4.3-8.6,8.3c-0.1,0.2-0.5,0.4-0.7,0.6
	c-0.8,0.7-1.7,1.4-2.3,2.3c-5.1,7.4-10.4,14.7-14.4,22.8c-2.4,4.8-5.5,9-9.1,12.8c-0.9,0.9-1.7,1.9-2.5,2.9
	c-0.6,0.8-1.2,1.7-1.7,2.6c-0.8,1.5-0.6,3,0.7,4.1c1.1,1,2.2,1.9,3.4,2.6c3.8,2,7.6,3.8,11.8,5.8c-0.5-0.7-0.8-1.2-1.3-1.6
	c-1.1-0.8-2.2-1.6-3.3-2.3c-2-1.4-4-2.6-5.9-4.1c-1.8-1.4-1.8-3.4-0.2-5c0.8-0.8,1.8-1.4,2.8-1.7c1.8-0.5,3.7-0.8,5.6-1.1
	c4.4-0.5,8.7-0.9,13.1-1.5c3.2-0.4,3.8-1.5,2.6-4.5c-1.5-3.9-2.7-7.8-3.3-12c-0.3-1.8-0.1-3.5,1.1-5c2-2.5,4-5,6-7.4
	C230.2,289.3,231.1,288.8,231.8,288.2z M319.3,405.4c0.2-0.3,0.6-0.5,0.7-0.8c0.6-2.2,1.3-4.4,1.8-6.7c0.2-1,0.3-2.1,0.4-3.1
	c0.1-0.9,0-1.9,0-2.8c0.1,0,0.2,0,0.3,0c0.2,1,0.3,1.9,0.5,2.9c0.5-0.3,0.7-0.5,0.7-0.8c0.8-3.6,1.4-7.2,0.8-10.9
	c-0.4-2.8-0.9-5.5-1.5-8.2c-1.8-8.3-2.4-16.8-1.6-25.2c1.4-13.9,3.3-27.7,4.8-41.6c0.8-7.4,1.5-14.8,0.9-22.2
	c-0.3-4.1-0.8-8.1-1.1-12.1c-0.6-9.2,0.7-18.3,1.6-27.4c0.8-8.7,1.8-17.3,2.4-26c0.6-9.4,0.9-18.8,1.3-28.2c0.1-1.6,0.2-3.1,0.4-5
	c-0.8,0.4-1.4,0.6-1.9,0.9c-4,2.5-7.9,5.1-11.8,7.7c-1.6,1.1-3.1,2.2-4.6,3.5c-1.9,1.7-3.4,3.6-3,6.4c0.1,0.9,0,1.8,0,2.6
	c0,2.5,0.4,4.9,1.6,7.2c0.7,1.4,1.1,3,1.6,4.5c0.2,0.5,0.1,1.1,0.1,1.6c-0.1,1.3-0.3,2.5-0.3,3.8c0,5.2,0.1,10.4,0.2,15.6
	c0.1,4.8,0.3,9.6,0.3,14.3c0,6.1,0.1,12.1-0.3,18.2c-0.5,6.5-0.9,12.9-0.4,19.4c0.2,2.1,0.2,4.1,0.3,6.2c0.4,10.8,0.6,21.7,1.1,32.5
	c0.5,9.3,0.5,18.7-0.4,28c-0.2,2-0.1,4-0.6,5.9c-1.5,5.9-3.1,11.7-4.9,17.5c-0.6,2.1-0.7,4,0.4,6c1.3,2.5,2.5,5,3.9,7.4
	c0.5,1,1.3,1.8,2,2.7c1.1-0.6,0.8-1.4,0.7-2.1c-0.3-2-0.7-4.1-1-6.1c-0.3-1.7-0.5-3.3-0.8-5c0.7,1,1.1,2,1.3,3.1
	c0.6,2.7,1.2,5.4,1.6,8.2c0.1,0.7,0.2,1.6-0.1,2.1c-1,1.3-0.7,2.7-0.8,4.1c-0.2,2.1-0.5,4.3-0.7,6.4c-0.1,0.5-0.1,0.9-0.1,1.4
	c1.4-2.5,2.4-5,3.3-7.6c0.9-2.6,1.5-5.2,1.3-8c-0.2-2.7-0.4-5.3-0.5-8c1.5,5.6,2.6,11.2,0.2,16.9
	C319.3,404.7,319.4,405.1,319.3,405.4c-0.2,0.7-0.5,1.2-0.8,1.8c0.2,0,0.4,0.1,0.5,0.1C319.1,406.7,319.2,406,319.3,405.4z
	 M295.6,604.1c-0.3-0.5-0.8-1-1-1.5c-3.1-7.9-6.3-15.7-9.2-23.6c-4.9-13.2-9.7-26.5-14.5-39.8c-2.7-7.6-5.7-15.1-8.2-22.7
	c-3.3-10.3-5.5-20.8-4.9-31.8c0-0.4-0.1-0.8-0.2-1.2c-0.1,0-0.3,0-0.4,0c-1.5,5.2-3,10.4-4.5,15.6c-0.2-0.3-0.2-0.5-0.2-0.7
	c2.1-10.9,4.8-21.6,8.7-32c7-18.8,14.6-37.4,20.7-56.6c3.7-11.5,7.7-22.8,9.5-34.8c0.2-1.1,0-1.8-0.6-2.6
	c-4.4-5.8-9.4-11.1-15.3-15.4c-2.1-1.6-4.1-3.3-6-5.1c-2.9-2.8-4.6-6.2-5.1-10.3c-0.5-4-0.9-8.1-1.5-12.1c-0.6-4-1.8-7.9-4-11.4
	c-0.9-1.4-2-2.2-3.7-2.1c-1.7,0.1-3.4,0.1-5,0.1c-1.3-0.1-1.6-0.5-1.3-1.7c0.3-1.1,0.7-2.2,1.3-3.8c-1.7,1.2-2.9,2.2-4.2,3.1
	c-1.1,0.8-2.1,1.8-3.2,2.5c-3.4,2.2-6.3,1.7-8.8-1.6c-0.6-0.7-1.1-1.5-1.8-2.4c-0.4,0.7-0.7,1.2-1,1.6c-2,2.5-3.5,5.5-6.9,6.6
	c-0.5,0.2-0.9,1.1-1.1,1.7c-0.7,2.5-1.5,5.1-2,7.6c-1.7,8.9-2,18-1.1,26.9c1.6,16.1,3.7,32.2,5.6,48.2c0.7,5.8,1.5,11.6,2.2,17.3
	c1.1,8.5,2,16.9,3.2,25.4c0.8,5.5,1,11,0,16.4c-0.5-4.6-0.9-9.4-1.5-14.1c-1.2-9.7-2.4-19.5-3.7-29.2c-0.5-3.8-1-7.6-1.5-11.4
	c-0.9,3.3-1.4,6.6-2.2,9.9c-1.4,6.4-3,12.7-4.5,19.1c-3.1,13-6.2,26.1-11.2,38.6c-4.8,12.1-10.1,24-15.1,36
	c-9.5,22.8-18.9,45.7-28.5,68.5c-13.9,33.3-31,64.9-49.4,95.8c-3.6,6.1-8.1,11.7-12.3,17.4c-2.8,3.8-6.6,6.3-11.2,7.5
	c2.7-1.6,5.3-3.3,7.3-5.8c-1.5,0.2-2.8,0.7-4.2,1c-4.4,1.1-8.8,2.2-13.2,3.3c-0.9,0.2-1.7,0.6-3,1.1c1.2,0.8,1.9,1.3,2.6,1.7
	c2.4,1.4,4.9,2.6,7.3,4c4,2.4,8.4,3.6,13,3.1c6.4-0.6,12.9-1.1,19.3-2.1c10.1-1.5,20.1-3.7,30.4-4.2c0.4-0.8,0.9-1.5,1.3-2.3
	c2.7-6.2,5.7-12.3,8-18.7c9.2-25.4,18.2-50.9,27.3-76.4c0.3-0.9,0.6-1.7,1-2.6c0.2,0.3,0.2,0.5,0.2,0.7c-2.1,6.4-4,12.8-6.2,19.1
	c-5.9,17.2-11.9,34.3-17.9,51.5c-3.3,9.5-6.6,19-11.4,27.9c-0.4,0.7-0.3,1.6-0.5,2.4c-0.5,0.4-1.2,0.7-1.6,1.3
	c-1.1,1.5-2.1,3-3.1,4.5c-0.9,1.4-0.8,2.4,0.3,3.7c0.5,0.6,1.3,1,1.9,1.4c1.3,0.8,2.6,1.5,3.9,2.3c3.2,2,5.6,4.9,8.2,7.7
	c7.7,8.3,16.6,14.4,28.1,16.1c4.9,0.7,9.8,1,14.7,1.4c6.6,0.5,13.2,0,19.8-1c6.2-0.9,12.4-2.1,18.6-3.2c0.4-0.1,0.7-0.3,1.1-0.5
	c-0.5-1.8-1-3.5-1.5-5.2c-3-10.4-3.8-21.2-4.2-32c-0.5-13.5-0.8-27-1.2-40.4c-0.5-16.3-1-32.5-2.4-48.8c-0.8-9.6-1.8-19.2-2.7-28.8
	c0-0.5,0-0.9,0-1.4c0.4,1.1,0.6,2.2,0.7,3.3c0.6,4.6,1.1,9.2,1.6,13.8c0.8,8.2,1.7,16.3,2.3,24.5c0.5,6.8,0.7,13.7,1.1,20.6
	c0.4,8.5,0.9,17.1,1.2,25.6c0.6,14,1,27.9,1.6,41.9c0.4,7.8,1.8,15.5,3.9,23.1c1.3,4.9,3.9,8.7,8,11.8c3.3,2.5,6.8,4.1,10.8,4.7
	c3.2,0.5,6.4,0.7,9.4,1.5c2.9,0.7,5.3,0.2,7.6-1.5c5.2-3.8,10.5-7.5,15.7-11.4c4.8-3.7,8.9-8,10.7-14c0.6-2,0.7-3.7-0.5-5.4
	c-0.3-0.5-0.6-1.1-1-1.6c-3.9-6-6.7-12.5-8.4-19.5c-1.4-5.7-2.7-11.5-4-17.2c-3.8-15.7-7-31.6-9.5-47.6c-1.5-9.8-3.7-19.6-5.5-29.4
	c-0.2-0.8-0.3-1.7-0.5-2.5c0.2,0,0.3-0.1,0.5-0.1c1.6,6.9,3.3,13.8,4.7,20.7c2.1,11,3.7,22,6.1,32.9c3,14.2,6.5,28.3,9.8,42.4
	c2,8.3,5.7,15.9,10.4,23.1c3.4,0.1,6.8,0.2,10.2,0.3c5,0.1,10.1-0.3,15.2,2.3c-0.6-2.7-1-5-1.7-7.1c-1.8-5.5-3.7-11-5.4-16.6
	c-3.2-10.4-6.3-20.7-9.5-31.1c-0.4-1.3-0.8-2.6-1.1-3.9l0,0c0.4,0.7,0.9,1.3,1.1,2c1.4,4.2,2.8,8.5,4.2,12.7
	c3.6,10.7,7.1,21.3,10.7,32c1.6,4.7,3,9.4,2.9,14.5c0,0.9,0.1,1.7,0.2,2.4c1.7,0.6,3.2,1.1,4.7,1.7c3.5,1.2,6.8,2.7,10.4,3.6
	c13.1,3.4,26.3,6.7,39.4,10c6.6,1.7,13,1.3,19-2c5.9-3.2,12.1-4.2,18.7-2.8c4,0.9,7.9,0.7,11.9-0.3c5.3-1.3,10.6-2.8,16-3.8
	c6.7-1.3,13.4-2.1,20.1-3.2c11.8-1.9,23.6-3.2,35.5-3c8.4,0.2,16.5-1.3,24.6-3.3c6.6-1.6,11.3-5.7,15.1-11.1
	c0.4-0.5,0.5-1.1,0.8-1.7c-1.6-1.3-3.3-1.5-5-1.8c-8.9-1.1-17.6-3-26.4-4.8c-12.3-2.6-24-6.4-34.9-12.7c-5.4-3.1-11-5.8-16.6-8.5
	c-5.4-2.6-10.3-5.6-15-9.4c-2.5-2-5.1-3.9-7.8-5.5c-5.5-3.2-11.3-5.9-17.3-8c-12.5-4.4-24.8-9.4-36.6-15.4c-0.3-0.2-0.7-0.2-1.1-0.3
	c2.7,4.4,5.2,8.7,7.8,12.9c1.7,2.7,3.3,5.4,5.1,8.1c10.2,15.3,23.1,27.9,39.2,36.8c7.3,4.1,15,7.4,22.5,11.1
	c3.4,1.6,6.7,3.2,10.1,4.9c-0.6,0.1-1.1,0-1.6-0.2c-5.6-2.3-11.2-4.5-16.8-6.8c-21.9-9.1-39.8-23.3-53.4-42.8
	c-6.8-9.7-11.9-20.6-19.4-29.9c-2.4-3-4.2-6.4-6.4-9.5c-11.2-16.2-21.2-33.2-29.4-51.2c-6.2-13.3-12.6-26.5-19.1-39.6
	c-4.9-9.8-10.3-19.4-15.2-29.3c-8.1-16.3-15.9-32.7-24-49c-4.2-8.3-7.9-16.7-9.6-25.9c-0.6-2.9-1.6-5.7-2.6-9
	c-0.5,1.3-0.8,2-1.1,2.7c-1.9,5-3.8,10-5.7,15c-3.6,9.8-7.3,19.6-10.8,29.4c-0.8,2.4-1.3,5-1.3,7.5c-0.3,12.1,2.1,23.8,6,35.2
	c2.7,8,6.1,15.8,8.9,23.7c6.7,18.8,13.4,37.6,20,56.3C294.2,600.2,294.8,602.2,295.6,604.1L295.6,604.1z M268.5,165.3
	c-0.9-3.8-1.8-7.5-2.7-11.3c-0.6,0.6-0.8,1.2-0.9,1.7c-0.6,2.2-1.1,4.5-1.8,6.7c-1,3.2-3.3,5.3-6.3,6.4c-3.5,1.3-7.1,2.4-10.7,3.4
	c-2.2,0.7-4.4,1.2-6.7,1.8c0.4,5.4,4.7,7.4,7.8,10.7c0.4-0.6,0.6-1,0.9-1.3c2.4-3.1,6.5-2.8,8.4,0.6c2.2,4.1,3.7,8.4,4.2,13.1
	c0.2,2.3,0.4,4.7,1.4,7c5.4-1,10.9-1,16.3-0.8c2.8,0.1,5.5,0.5,8.3,0.8c1,0.1,1.7-0.1,2.3-0.9c1.1-1.4,2.2-2.7,3.4-4.1
	c6.2-7.6,13.3-14.2,22.1-18.8c1.5-0.8,2.9-1.7,4.2-2.7c1.4-1.1,2.6-2.5,3.9-3.6c-0.7-1.5-1.6-2.1-3-2.2c-1.5-0.1-3-0.4-4.5-0.7
	c-5.9-1-11.6-2.5-16.6-5.8c-9-6.1-15.2-14.2-17.2-25.2c-0.3-1.6-0.5-3.3-0.7-4.9c-8.7,6.1-10.7,5.8-17.9,1c0.1,0.4,0.1,0.7,0.2,1
	c1.7,5.9,3.4,11.8,5.2,17.7C268.8,158.4,268.9,161.8,268.5,165.3z M309.8,304.6c-5.4-8.7-12-16.4-19.5-23.4
	c-3.6-3.4-6.7-7.3-9.2-11.6c-0.5-0.9-1.1-1.7-1.6-2.5c0.6,6.9,2.9,13.2,5.2,19.4c2.3,6.3,4.8,12.6,7.2,18.9
	c-2.8-5-5.2-10.2-7.6-15.4c-2.5-5.2-3.8-10.8-5.5-16.3c-0.1,0.4-0.1,0.8-0.1,1.2c0.9,7.4,1.8,14.7,2.9,22.1
	c2.3,15.4,7.3,30,13.7,44.2c2.6,5.7,5.2,11.3,6.8,17.3c1.1,4.2,2.3,8.5,3.2,12.8c0.9,3.9,2,7.9,1.1,12c0,0.1,0.2,0.2,0.4,0.5
	c0.3-0.4,0.7-0.6,0.8-1c3-8.1,5.6-16.3,5.9-25c0.3-6.6,0.2-13.2,0.1-19.9c-0.2-8.4-0.7-16.7-1-25.1c-0.2-5-0.3-10-0.6-15.1
	c0-0.7-0.2-1.6-0.7-2.2c-1.2-1.7-2.8-3.3-3.9-5.1c-3.8-6.1-8.5-11.3-14.4-15.4c-1.4-1-2.7-1.9-4.1-2.9c-3.3-2.3-6.8-4.4-8.7-8.3
	c-0.9,0.8-0.6,1.5-0.1,2.2c2.2,3,4.1,6.1,6.5,8.9c2.8,3.3,5.8,6.4,9,9.3C301.8,289.9,306.3,296.9,309.8,304.6z M228.6,206.8
	c-8.3,11.5-16.9,22.6-26.2,33.2c6.7,6.5,12.6,13.6,18.2,21c2.8,3.8,6.4,6.6,10,9.5c0.6,0.4,1.2,0.7,1.7,1c6.1-3.6,12.2-7.2,18-10.6
	c0-4.9,0-9.5,0-14.2c0-1.4,0.3-2.6,1.4-3.3c-0.1-1.2-0.1-2.1-0.2-3.1c-0.3-3-0.5-6-1.1-9c-0.3-1.8-0.7-3.9-2.3-5.1
	c-3.9-3.1-6.4-7-8.1-11.6c-1.2-3.2-3.5-5.1-6.6-6.1C231.9,208,230.3,207.4,228.6,206.8z M276.1,276.3c-0.5,0.3-0.7,0.3-0.8,0.4
	c-0.3,0.6-0.6,1.1-0.9,1.7c-4.3,9.9-8.7,19.7-14.4,28.9c-0.8,1.3-1.2,2.8-1.5,4.2c-0.4,1.6-0.2,3.1,0.9,4.5c2.2,2.9,3.5,6.2,4.4,9.8
	c1.1,4.6,1.8,9.2,1.9,14c0.1,2.6,0.7,5,2,7.3c1.7,3.2,4.5,5.4,7.3,7.4c7.5,5.2,13.6,11.8,18.8,19.3c0.8,1.2,1.7,2.3,2.6,3.4
	c2.2,2.6,4.9,3.6,8.2,3.3c0.7-0.9,0.8-1.7,0.6-2.7c-0.6-2.6-1-5.3-1.7-8c-2.2-9.2-4.6-18.4-8.9-26.9c-2.6-5.1-4.6-10.5-6.6-15.9
	c-6-16.3-9.1-33.2-10-50.5c-0.1-1.3-0.2-2.7-0.3-4c-0.4,0.2-0.5,0.5-0.5,0.7c-1.2,5.7-2.2,11.4-3.6,17.1c-2.4,9.7-2.5,19.4,0.3,29
	c0.3,1.1,0.8,2.3,1,3.4c0.5,2.9,1,5.8,1.4,8.7c0.1,0.9,0.1,2-1,2.4c-1.4-1-1.6-1-1.9-3.6c-1-7.3-2-14.5-2.7-21.8
	c-0.5-6.2-0.3-12.4,1.7-18.5c0.8-2.4,1.5-4.9,2.1-7.3C275.1,280.7,275.5,278.6,276.1,276.3z M230.7,272.6c-0.5-0.4-1.1-0.7-1.6-1.2
	c-3-2.7-6.4-5.2-8.9-8.3c-6.8-8.5-13.4-17-21.5-24.3c-0.7-0.7-1.4-1.4-1.4-2.6c1.3,1,2.6,1.9,4.1,3.1c0.8-1.1,1.5-2.1,2.2-3
	c6.8-8.4,13.6-16.7,20.4-25.1c1.5-1.8,3.1-3.5,4.2-5.5c1.3-2.4,2.1-5.1,3.1-7.5c-2.1-2.2-4-4.4-6.1-6.4c-0.9-0.9-2.2-1.6-3.4-2.4
	c-1.5,2.3-2.9,4.6-4.5,6.6c-7.3,9.6-14.6,19.2-21.9,28.7c-3.9,5.1-7.7,10.1-11,15.6c-1,1.7-1.1,3.1,0.2,4.6c1.1,1.3,2.2,2.6,3.4,3.7
	c4.9,4.7,10.3,8.8,16.4,11.9c4,2,7.8,4.4,11.1,7.5c3.5,3.3,7,6.5,10.3,9.7C227.2,276.1,228.9,274.5,230.7,272.6z M260.7,111.7
	c0.3,0.2,0.5,0.3,1,0.6c-3.5,0.8-5.7-0.9-7.5-3.1c-2,2.1-1.8,4.5-1.1,7c1.4,4.8,3.4,9.3,6,13.5c1.9,3.1,4.4,5.8,7.6,7.8
	c1.5,0.9,3.2,1.6,5,1.2c3.3-0.8,6.2-2.4,8.1-5.2c1.7-2.5,2.9-5.2,4.1-8c1.3-3.1,2.3-6.3,3.3-9.5c0.9-2.7,1.6-5.3,1.2-8.2
	c-0.4-2.8-0.8-5.5-0.9-8.3c-0.1-2.9-1.1-5.2-3.1-7.3c-1.7-1.8-3.6-2.8-6-2.9c-3.5-0.2-6.4,0.4-8.6,3.8c-3,4.5-7.4,6.7-12.9,5.8
	c-1.2-0.2-1.9,0.3-2,1.4c-0.3,2.4-0.4,4.8-0.6,7.4c1.8,0,3.2-0.1,4.6,0c1.3,0.1,2.7,0.2,4,0.6c1.3,0.3,2.7,0.8,3.4,2.5
	c-1.5-0.5-2.6-0.9-3.7-1.3C261.7,110.3,261.2,111,260.7,111.7z M260,214.6c-0.4-1.7-2-3.4-0.7-5.8c0.7,1,1.3,1.6,1.7,2.3
	c0.6,1.2,1,2.5,1.4,3.8c2,5.9,3.9,11.9,6,18c1.5-3,2.9-5.9,4.4-8.9c-2.2-2.8-4.6-5.8-7-8.8c-2.7-3.4-4.4-7.4-5.3-11.6
	c-0.6-2.9-1-5.8-1.4-8.7c-0.4-3.7-1.6-7.2-3.6-10.3c-1.7-2.7-5.3-2.6-6.7,0.2c-2.3,4.4-5.9,7.5-10.2,9.4c-4.4,1.9-6.7,5.4-8.8,9.3
	c-0.9,1.6-0.4,2.4,1.4,3c0.6,0.2,1.2,0.3,1.8,0.5c4.1,1.1,7.1,3.4,8.6,7.5c1.7,5,4.9,8.9,9.3,11.8c1.2,0.8,2.4,1.6,3.6,2.4
	c3.2,2.1,6.2,4.5,8.7,7.4c0.9,1.1,1.9,2,3,3.1c0.6-1.4,1.2-2.7,1.7-3.9c-5.5-4.7-12.2-7.6-16.6-13.4c4.4,3.2,8.7,6.5,13.8,9.2
	c-1.8-4.4-4.4-7.7-7.4-10.7c-6-6-11.2-12.6-16.3-19.4c-0.7-0.9-1.4-1.8-2.1-2.8c2.1,1.2,3.7,3,5.2,4.8c4,4.8,8.1,9.6,12.3,14.3
	c2.9,3.2,5.9,6.3,8.1,10c0,0.1,0.2,0.1,0.5,0.1c-1.7-4.7-2.8-9.4-4.8-14.2C260.2,214,260.1,214.3,260,214.6z M312.1,225
	c-0.1-0.1-0.3-0.1-0.4-0.2c-0.8,1.1-1.8,2.2-2.4,3.4c-2.4,4.6-4.6,9.3-7,13.8c-0.9,1.8-1.1,3.6-0.6,5.5c0.2,0.6,0.5,1.2,0.7,1.7
	c0.1,0.4,0.3,0.9,0.2,1.3c-0.6,5.1-1.4,10.3-1.8,15.4c-0.2,3.1-0.2,6.3,1.1,9.3c0.8,1.8,1.1,3.8,1.7,5.7c0.3,0.8,0.6,1.7,1,2.4
	c1.7,2.6,3.5,5.2,5.2,7.7c0.5,0.7,1,1.3,1.8,2.4c0-1.6,0-2.5,0-3.5c0.1-4,0.1-8,0.5-11.9c0.7-7.1,0.9-14.1,0.2-21.2
	c-0.5-5.3-0.3-10.7-0.3-16c0-4.9,0.1-9.7,0.2-14.6C312.2,225.9,312.2,225.4,312.1,225z M246.9,185.7c-4.9-2.7-8.9-5.9-8.8-12
	c-1.8,0.9-3.4,1.7-4.9,2.6c-2.4,1.4-2.7,3.4-1,5.6c0.4,0.6,1,1.1,1.4,1.6c0.7,0.9,1.4,1.8,2.1,2.7c-2.8-1.2-4.5-3.4-6.3-5.6
	c1.4,4.6,5.8,6.7,8.8,9.9c-4.3-2.3-8.2-5.1-10.1-9.9c-2.6,2.3-6.3,3.6-6,8.2c4.3,1.5,6.6,5.6,9.7,8c2.3-1.3,4.3-2.5,6.4-3.7
	C241.5,191.2,244.5,189,246.9,185.7z M220.7,321.1c-0.1-0.2-0.2-0.3-0.3-0.5c-4.5,0.4-9,0.8-13.5,1.3c-1.2,0.1-2.3,0.6-3.4,1.1
	c-2.2,1-2.6,2.7-0.7,4.2c1.5,1.2,3.2,2.1,4.7,3.2c1.7,1.2,3.5,2.2,5,3.6c0.8,0.7,1.4,1.9,1.4,2.9c-0.1,1.9-0.2,4-1.6,5.6
	c-1.1,1.3-1.1,2.6,0.1,3.9c1.6,1.7,3.3,3.3,5.4,5.3c0.1-10.9,0.6-21.2,5-31.1c-0.6,0.2-0.9,0.2-1,0.3c-1.8,2.4-3.6,4.8-5.4,7.3
	c-0.5,0.6-0.7,1.4,0,2.3c0.8-0.7,1.5-1.3,2.3-2c-0.6,1.9-1.3,3.7-3.5,4.5c-0.3-0.4-0.6-0.7-0.7-1c-0.3-1.9-0.2-3.8,1.2-5.4
	C217.5,324.9,219.1,323,220.7,321.1z M262.4,206c1,3.1,2.3,5.9,4.3,8.4c2.3,2.9,4.5,5.7,7,8.8c4.4-5.9,8.8-11.8,13.4-17.8
	C279.7,204.8,265.3,205.1,262.4,206z M324.2,338.2c-1.9,6-2.5,31-0.7,34.4c0.5-1.1,0.9-1.8,1.2-2.7c1.5-5.5,2.8-11.1,4.4-16.6
	c0.7-2.3,0.6-4.2-0.7-6.4C326.7,344.2,325.6,341.2,324.2,338.2z M327.8,342.2c2.2-5.1,4.2-9.9,6.2-14.6c0.5-1.2,0.2-2-0.6-3
	c-2-2.4-3.9-5-5.8-7.5c-0.2-0.2-0.4-0.4-0.9-0.9c-0.8,6.3-1.5,12.2-2.3,18.1c0,0.3,0,0.7,0.1,0.9
	C325.6,337.6,326.7,339.8,327.8,342.2z M288.5,395.4c0.4-0.2,0.9-0.2,1.3-0.5c4.5-3.5,9-7.1,13.5-10.6c0.4-0.3,0.6-0.9,1-1.5
	c-1.9-0.5-3.5-0.7-4.9-1.3c-1.3-0.6-2.6-1.6-3.7-2.6c-1.1-1-2-2.3-3.1-3.5C291.2,382.1,289.9,388.7,288.5,395.4z M281.1,262.1
	c0.5,1,0.8,1.5,1.1,2.1c1.3,2.2,3.5,3.4,5.5,4.9c4.2,3.2,8.4,6.3,12.6,9.5c0.3,0.2,0.6,0.3,1,0.5c-0.8-3.4-1.4-6.5-2.2-9.5
	c-0.1-0.5-0.7-1.1-1.2-1.3c-2.4-1.1-4.8-2.2-7.4-3.1C287.6,264,284.5,263.2,281.1,262.1z M284.9,261.5c0.8-6,1.5-11.6,2.3-17.5
	c-1.9-0.5-3.9-0.9-6-1.4c-0.3,6.1-0.6,11.7-0.9,17.5C281.9,260.6,283.3,261,284.9,261.5z M274.5,241.4c-0.2,6-0.4,11.6-0.6,17.3
	c1.6,0.3,3,0.6,4.5,0.9c0.6-5.8,1.2-11.4,1.7-17.1C278.2,242.1,276.4,241.7,274.5,241.4z M264.4,239.3c-3.9-4.4-8.1-8.3-13.6-11.2
	c1.7,4.9,2.6,9.5,2.5,14.3C257,241.4,260.5,240.5,264.4,239.3z M272.2,258.4c0.5-5.8,1-11.3,1.5-17c-2.2,0-4.1,0-6.1,0
	c0.2,5.6,0.4,11.1,0.6,16.6C269.5,258.1,270.6,258.2,272.2,258.4z M288.2,244.3c-0.7,6.2-1.2,11.9-1.3,17.8c1.3,0.4,2.4,0.7,3.6,1.1
	c1.1-5.7,2.2-11.2,3.3-16.8C292,245.7,290.3,245.1,288.2,244.3z M260.9,241.9c0.6,5.7,1.1,11,1.7,16.5c1.5-0.2,2.6-0.3,4-0.4
	c0-5.7,0-11.1,0-16.6C264.7,241.5,262.9,241.7,260.9,241.9z M261,258.5c-0.4-5.6-0.7-10.9-1-16.2c-1.8,0.5-3.4,0.5-4.5,1.5
	c0.3,5.2,0.6,10.2,1,15.4C258,258.9,259.3,258.7,261,258.5z M295.4,265.1c1.1-5.7,2.1-11.1,3.1-16.5c-1.4-0.6-2.4-1.1-3.6-1.6
	c-1.2,5.8-2,11.3-2.5,16.9C293.4,264.2,294.2,264.6,295.4,265.1z M231.4,310.6c-1.9-3.5-3.5-7.2-7.2-9.5c-0.2,3.4,1.9,10.7,4.1,14.6
	C229.3,314,230.3,312.4,231.4,310.6z M251.4,245.1c0.2,5.2,0.4,10.1,0.7,15.3c1.1-0.3,1.9-0.6,2.5-0.8c0-5.3,0-10.4,0-15.7
	C253.4,244.3,252.5,244.7,251.4,245.1z M298.9,266.5c0.1-0.4,0.2-0.6,0.2-0.8c0.7-4.6,1.3-9.3,2-13.9c0.2-1.6,0.2-1.6-1.7-2.4
	c-0.1,0.1-0.2,0.2-0.2,0.4c-0.7,4.9-1.3,9.7-2,14.6C296.9,265.8,297.5,266.4,298.9,266.5z M274.8,331.1c0.2,0,0.3-0.1,0.5-0.1
	c-0.4-2-0.7-3.9-1.1-5.9c-0.2,0-0.3,0.1-0.5,0.1C274.1,327.2,274.5,329.1,274.8,331.1z M259.1,111.5c-0.7-1.2-1-1.8-1.5-2.6
	c-0.7,0.1-1.3,0.1-2.5,0.3C256.6,110.1,257.6,110.6,259.1,111.5z M251.1,312.3c0.9-0.8,1.9-1.1,2.1-2.5
	C250.9,309.9,250.9,309.9,251.1,312.3z M211.3,339.9c0.7-1.1,0.7-1.1-0.7-2.5C210.9,338.4,211.1,339.1,211.3,339.9z"/>
<path class="st0" d="M316,666.6c0.4,1.3,0.7,2.6,1.1,3.9c3.2,10.4,6.3,20.8,9.5,31.1c1.7,5.6,3.7,11,5.4,16.6
	c0.7,2.2,1.1,4.4,1.7,7.1c-5.2-2.6-10.2-2.2-15.2-2.3c-3.4-0.1-6.8-0.2-10.2-0.3c-4.7-7.3-8.4-14.8-10.4-23.1
	c-3.3-14.1-6.8-28.2-9.8-42.4c-2.3-10.9-3.9-22-6.1-32.9c-1.4-6.9-3.1-13.8-4.7-20.7c-0.2,0-0.3,0.1-0.5,0.1
	c0.2,0.8,0.3,1.7,0.5,2.5c1.9,9.8,4,19.5,5.5,29.4c2.5,16,5.6,31.9,9.5,47.6c1.4,5.7,2.6,11.5,4,17.2c1.7,6.9,4.5,13.5,8.4,19.5
	c0.4,0.5,0.6,1.1,1,1.6c1.1,1.7,1.1,3.4,0.5,5.4c-1.9,6-5.9,10.3-10.7,14c-5.1,3.9-10.4,7.6-15.7,11.4c-2.3,1.7-4.7,2.2-7.6,1.5
	c-3.1-0.8-6.3-1.1-9.4-1.5c-4-0.6-7.5-2.2-10.8-4.7c-4.1-3.1-6.7-6.8-8-11.8c-2-7.6-3.5-15.3-3.9-23.1c-0.7-13.9-1.1-27.9-1.6-41.9
	c-0.3-8.5-0.8-17.1-1.2-25.6c-0.3-6.9-0.6-13.7-1.1-20.6c-0.6-8.2-1.5-16.4-2.3-24.5c-0.5-4.6-1-9.2-1.6-13.8
	c-0.1-1.1-0.4-2.2-0.7-3.3c0,0.5,0,0.9,0,1.4c0.9,9.6,1.8,19.2,2.7,28.8c1.4,16.2,1.9,32.5,2.4,48.8c0.4,13.5,0.7,27,1.2,40.4
	c0.4,10.8,1.2,21.5,4.2,32c0.5,1.7,1,3.3,1.5,5.2c-0.4,0.2-0.7,0.4-1.1,0.5c-6.2,1.1-12.4,2.3-18.6,3.2c-6.6,1-13.2,1.4-19.8,1
	c-4.9-0.4-9.9-0.7-14.7-1.4c-11.4-1.7-20.4-7.8-28.1-16.1c-2.6-2.7-4.9-5.7-8.2-7.7c-1.3-0.8-2.6-1.5-3.9-2.3
	c-0.7-0.4-1.4-0.8-1.9-1.4c-1.2-1.2-1.2-2.2-0.3-3.7c1-1.5,2-3.1,3.1-4.5c0.4-0.5,1.1-0.8,1.6-1.3c0.1-0.7,0.1-1.7,0.5-2.4
	c4.8-8.9,8.1-18.4,11.4-27.9c6-17.2,12-34.3,17.9-51.5c2.2-6.3,4.2-12.7,6.2-19.1c0.1-0.2,0.1-0.4-0.2-0.7c-0.3,0.9-0.6,1.7-1,2.6
	c-9.1,25.5-18.1,50.9-27.3,76.4c-2.3,6.4-5.3,12.5-8,18.7c-0.3,0.8-0.8,1.5-1.3,2.3c-10.3,0.5-20.3,2.6-30.4,4.2
	c-6.4,1-12.8,1.5-19.3,2.1c-4.7,0.5-9-0.8-13-3.1c-2.4-1.4-4.9-2.7-7.3-4c-0.7-0.4-1.4-0.9-2.6-1.7c1.3-0.5,2.1-0.9,3-1.1
	c4.4-1.1,8.8-2.2,13.2-3.3c1.4-0.3,2.7-0.8,4.2-1c-2,2.5-4.6,4.2-7.3,5.8c4.6-1.2,8.4-3.7,11.2-7.5c4.2-5.7,8.7-11.3,12.3-17.4
	c18.4-30.9,35.5-62.6,49.4-95.8c9.5-22.8,19-45.7,28.5-68.5c5-12,10.2-23.9,15.1-36c5-12.5,8.1-25.5,11.2-38.6
	c1.5-6.4,3.1-12.7,4.5-19.1c0.7-3.3,1.2-6.6,2.2-9.9c0.5,3.8,1,7.6,1.5,11.4c1.2,9.7,2.5,19.5,3.7,29.2c0.6,4.7,1,9.5,1.5,14.1
	c1-5.4,0.7-10.9,0-16.4c-1.2-8.5-2.1-16.9-3.2-25.4c-0.7-5.8-1.5-11.5-2.2-17.3c-1.9-16.1-4-32.1-5.6-48.2c-0.9-9-0.6-18,1.1-26.9
	c0.5-2.6,1.3-5.1,2-7.6c0.2-0.6,0.6-1.5,1.1-1.7c3.4-1.1,5-4.1,6.9-6.6c0.3-0.4,0.6-0.9,1-1.6c0.7,0.9,1.2,1.7,1.8,2.4
	c2.5,3.2,5.3,3.8,8.8,1.6c1.1-0.7,2.1-1.7,3.2-2.5c1.2-1,2.5-1.9,4.2-3.1c-0.6,1.6-1,2.7-1.3,3.8c-0.3,1.2,0,1.6,1.3,1.7
	c1.7,0.1,3.4,0,5-0.1c1.7-0.1,2.8,0.6,3.7,2.1c2.2,3.5,3.4,7.4,4,11.4c0.6,4,1,8.1,1.5,12.1c0.5,4,2.2,7.5,5.1,10.3
	c1.9,1.8,3.9,3.6,6,5.1c5.9,4.3,10.9,9.6,15.3,15.4c0.6,0.8,0.8,1.6,0.6,2.6c-1.8,12-5.8,23.3-9.5,34.8
	c-6.1,19.2-13.7,37.8-20.7,56.6c-3.9,10.4-6.6,21.1-8.7,32c0,0.2,0,0.5,0.2,0.7c1.5-5.2,3-10.4,4.5-15.6c0.1,0,0.3,0,0.4,0
	c0.1,0.4,0.2,0.8,0.2,1.2c-0.5,10.9,1.6,21.5,4.9,31.8c2.5,7.7,5.4,15.2,8.2,22.7c4.8,13.3,9.6,26.6,14.5,39.8
	c2.9,7.9,6.1,15.8,9.2,23.6c0.2,0.5,0.7,1,1,1.5c0.1,0.6,0.2,1.3,0.3,1.9c0.1,0,0.3-0.1,0.4-0.1c-0.3-0.6-0.5-1.2-0.8-1.8
	c-0.7-2-1.4-3.9-2.1-5.9c-6.7-18.8-13.3-37.6-20-56.3c-2.9-8-6.2-15.7-8.9-23.7c-3.9-11.4-6.3-23.1-6-35.2c0.1-2.5,0.5-5.1,1.3-7.5
	c3.5-9.8,7.2-19.6,10.8-29.4c1.9-5,3.8-10,5.7-15c0.3-0.7,0.6-1.5,1.1-2.7c1,3.4,2.1,6.2,2.6,9c1.8,9.2,5.5,17.6,9.6,25.9
	c8.1,16.3,15.9,32.7,24,49c4.9,9.8,10.3,19.4,15.2,29.3c6.5,13.1,13,26.3,19.1,39.6c8.3,18,18.2,34.9,29.4,51.2
	c2.2,3.1,4,6.5,6.4,9.5c7.5,9.3,12.6,20.2,19.4,29.9c13.6,19.5,31.5,33.7,53.4,42.8c5.6,2.3,11.2,4.6,16.8,6.8
	c0.5,0.2,1,0.3,1.6,0.2c-3.4-1.6-6.7-3.2-10.1-4.9c-7.5-3.7-15.2-7-22.5-11.1c-16.1-9-29-21.5-39.2-36.8c-1.8-2.6-3.5-5.4-5.1-8.1
	c-2.6-4.2-5.1-8.5-7.8-12.9c0.5,0.1,0.8,0.2,1.1,0.3c11.8,6,24.1,10.9,36.6,15.4c6,2.1,11.8,4.8,17.3,8c2.7,1.6,5.3,3.5,7.8,5.5
	c4.6,3.8,9.6,6.8,15,9.4c5.6,2.7,11.2,5.4,16.6,8.5c10.9,6.3,22.6,10.2,34.9,12.7c8.7,1.8,17.5,3.7,26.4,4.8c1.7,0.2,3.5,0.5,5,1.8
	c-0.3,0.6-0.4,1.2-0.8,1.7c-3.8,5.3-8.5,9.4-15.1,11.1c-8.1,2-16.2,3.5-24.6,3.3c-11.9-0.2-23.7,1-35.5,3c-6.7,1.1-13.4,2-20.1,3.2
	c-5.4,1-10.7,2.5-16,3.8c-3.9,1-7.9,1.1-11.9,0.3c-6.6-1.4-12.8-0.4-18.7,2.8c-6.1,3.3-12.5,3.7-19,2c-13.1-3.3-26.3-6.5-39.4-10
	c-3.5-0.9-6.9-2.4-10.4-3.6c-1.5-0.5-3-1.1-4.7-1.7c-0.1-0.7-0.2-1.6-0.2-2.4c0.1-5-1.3-9.8-2.9-14.5c-3.6-10.7-7.2-21.3-10.7-32
	c-1.4-4.2-2.8-8.5-4.2-12.7C316.8,667.9,316.3,667.3,316,666.6c0.2-1.3-0.5-2.2-1.3-3.2C315.1,664.4,315.5,665.5,316,666.6z
	 M224.7,470.4c-0.2,0-0.3,0-0.5,0c-0.1,0.1-0.2,0.3-0.2,0.4c-2.2,7.8-4.5,15.6-6.6,23.4c-2.8,10.4-5.4,20.8-8.1,31.2
	c-0.2,0.6-0.3,1.3-0.4,2c0.4-0.3,0.5-0.7,0.7-1c4-14,8.1-28,12-42C222.7,479.8,223.6,475.1,224.7,470.4z M249.5,406.9
	c2.5-12.4,5-24.9,7.5-37.3C253.1,381.8,251.7,394.4,249.5,406.9z"/>
<path class="st0" d="M319.3,405.4c0-0.3,0-0.7,0.1-0.9c2.4-5.6,1.3-11.2-0.2-16.9c0.2,2.7,0.4,5.3,0.5,8c0.2,2.8-0.4,5.4-1.3,8
	c-0.9,2.6-1.9,5.2-3.3,7.6c0-0.5,0.1-0.9,0.1-1.4c0.2-2.1,0.5-4.3,0.7-6.4c0.1-1.4-0.2-2.8,0.8-4.1c0.4-0.4,0.3-1.4,0.1-2.1
	c-0.5-2.7-1-5.5-1.6-8.2c-0.2-1.1-0.7-2.1-1.3-3.1c0.3,1.7,0.5,3.3,0.8,5c0.3,2,0.7,4.1,1,6.1c0.1,0.7,0.4,1.4-0.7,2.1
	c-0.7-0.9-1.4-1.7-2-2.7c-1.4-2.4-2.6-4.9-3.9-7.4c-1-2-1-3.9-0.4-6c1.8-5.8,3.4-11.6,4.9-17.5c0.5-1.9,0.4-4,0.6-5.9
	c0.9-9.3,0.8-18.6,0.4-28c-0.5-10.8-0.8-21.7-1.1-32.5c-0.1-2.1-0.1-4.1-0.3-6.2c-0.5-6.5-0.1-12.9,0.4-19.4
	c0.4-6,0.3-12.1,0.3-18.2c0-4.8-0.2-9.6-0.3-14.3c-0.1-5.2-0.1-10.4-0.2-15.6c0-1.3,0.2-2.5,0.3-3.8c0-0.5,0.1-1.1-0.1-1.6
	c-0.5-1.5-0.8-3.1-1.6-4.5c-1.2-2.3-1.6-4.6-1.6-7.2c0-0.9,0.1-1.8,0-2.6c-0.4-2.8,1.1-4.7,3-6.4c1.4-1.3,3-2.4,4.6-3.5
	c3.9-2.6,7.9-5.1,11.8-7.7c0.5-0.3,1.1-0.6,1.9-0.9c-0.1,1.8-0.3,3.4-0.4,5c-0.4,9.4-0.7,18.8-1.3,28.2c-0.6,8.7-1.7,17.3-2.4,26
	c-0.8,9.1-2.2,18.2-1.6,27.4c0.3,4.1,0.8,8.1,1.1,12.1c0.6,7.4-0.1,14.8-0.9,22.2c-1.5,13.9-3.4,27.7-4.8,41.6
	c-0.9,8.5-0.2,16.9,1.6,25.2c0.6,2.7,1.1,5.5,1.5,8.2c0.5,3.7,0,7.3-0.8,10.9c-0.1,0.3-0.2,0.5-0.7,0.8c-0.2-1-0.3-1.9-0.5-2.9
	c-0.1,0-0.2,0-0.3,0c0,0.9,0,1.9,0,2.8c-0.1,1-0.1,2.1-0.4,3.1c-0.5,2.2-1.2,4.5-1.8,6.7C319.9,404.9,319.5,405.1,319.3,405.4
	L319.3,405.4z"/>
<path class="st0" d="M268.5,165.3c0.4-3.5,0.3-6.9-0.7-10.2c-1.8-5.9-3.5-11.8-5.2-17.7c-0.1-0.3-0.1-0.6-0.2-1
	c7.1,4.8,9.2,5.1,17.9-1c0.2,1.7,0.4,3.3,0.7,4.9c2,10.9,8.3,19.1,17.2,25.2c4.9,3.3,10.7,4.8,16.6,5.8c1.5,0.3,3,0.5,4.5,0.7
	c1.3,0.1,2.2,0.8,3,2.2c-1.2,1.2-2.5,2.5-3.9,3.6c-1.3,1-2.7,1.9-4.2,2.7c-8.7,4.7-15.8,11.2-22.1,18.8c-1.1,1.4-2.3,2.7-3.4,4.1
	c-0.6,0.8-1.3,1-2.3,0.9c-2.8-0.4-5.5-0.7-8.3-0.8c-5.4-0.2-10.8-0.2-16.3,0.8c-1-2.3-1.2-4.7-1.4-7c-0.4-4.7-2-9-4.2-13.1
	c-1.8-3.4-6-3.7-8.4-0.6c-0.3,0.4-0.5,0.8-0.9,1.3c-3.1-3.2-7.4-5.3-7.8-10.7c2.3-0.6,4.5-1.2,6.7-1.8c3.6-1.1,7.2-2.1,10.7-3.4
	c3-1.1,5.3-3.2,6.3-6.4c0.7-2.2,1.2-4.4,1.8-6.7c0.2-0.6,0.3-1.1,0.9-1.7C266.7,157.8,267.6,161.6,268.5,165.3z M280.5,170.6
	c0.4,0.1,0.5,0.2,0.6,0.2c0.2,0,0.5-0.1,0.7-0.2c2.8-1.3,5.6-1.5,8.6-0.8c2.4,0.5,4.8,0.7,7.3,1c-3.8-1.7-7.6-3.2-11.8-2.6
	C283.9,168.3,281.9,168.6,280.5,170.6z M255.8,173.3c0.1,0.2,0.1,0.4,0.2,0.7c3.3-0.6,6.7-1.1,10-1.9c2.1-0.5,4-0.7,5.8,0.8
	c0.2,0.2,0.5,0.2,0.9,0.3c-1.1-2.3-2.7-3.1-5-2.6C263.7,171.4,259.8,172.3,255.8,173.3z M272.3,170.2c-0.1,0.2-0.2,0.3-0.3,0.5
	c0.6,0.4,1.2,1,1.8,1c0.5,0,1.2-0.7,1.5-1.3c0.7-1.4,1-2.9,0.8-4.7c-0.8,1.8-1.6,3.4-2.3,5C273.2,170.4,272.8,170.3,272.3,170.2z"/>
<path class="st0" d="M231.8,288.2c-0.7,0.6-1.5,1.1-2.1,1.8c-2.1,2.4-4,4.9-6,7.4c-1.2,1.5-1.4,3.2-1.1,5c0.6,4.1,1.8,8.1,3.3,12
	c1.2,3,0.6,4.1-2.6,4.5c-4.3,0.6-8.7,0.9-13.1,1.5c-1.9,0.2-3.8,0.5-5.6,1.1c-1,0.3-2,0.9-2.8,1.7c-1.6,1.6-1.6,3.6,0.2,5
	c1.9,1.5,3.9,2.7,5.9,4.1c1.1,0.8,2.3,1.5,3.3,2.3c0.4,0.3,0.7,0.9,1.3,1.6c-4.2-2-8-3.8-11.8-5.8c-1.3-0.7-2.4-1.6-3.4-2.6
	c-1.3-1.1-1.5-2.6-0.7-4.1c0.5-0.9,1.1-1.8,1.7-2.6c0.8-1,1.7-1.9,2.5-2.9c3.6-3.9,6.8-8.1,9.1-12.8c4-8.1,9.3-15.4,14.4-22.8
	c0.6-0.9,1.5-1.5,2.3-2.3c0.2-0.2,0.6-0.3,0.7-0.6c1.7-4,5.3-6.1,8.6-8.3c4.7-3.2,9.6-6.1,14.4-9c0.6-0.4,1.3-0.6,2-0.7
	c6-1.5,12.2-1.8,18.3-1.5c1.1,0,2.2,0.4,3.6,0.6c-1.5,1.7-2.9,3.2-4.2,4.9c-1.3,1.6-1.9,3.6-2.4,6c2-2.8,3.9-5.3,5.7-7.9
	c0.1-0.2,0.3-0.4,0.4-0.6c2-2.4,2.5-2.5,5.9-0.9c-3.8,8.7-7.6,17.5-11.4,26.2c-2.7,6.1-5.7,11.9-9.2,17.6c-1.6,2.6-2.5,5.3-2.3,8.5
	c-1.8,0-3.5,0-5.5,0c0.4-0.4,0.8-0.8,1.1-1.1c0.7-0.7,1.5-1.3,2-2c1-1.5,0.2-3-1.6-3c-0.9,0-2,0.2-2.7,0.7c-1.8,1.1-3.4,2.3-5.1,3.5
	c-1.1,0.8-2.1,1.8-3.2,2.4c-2.7,1.6-4.7,1.2-6.4-1.3c-1.3-1.8-2.3-3.8-3.5-5.7c-0.8-1.3-1.5-2.6-2.4-3.9c-1.3-2-3.1-3.6-5.5-4.8
	c1.6-2.1,3.1-4.1,4.6-6.2C229.6,291.5,230.6,289.8,231.8,288.2c0.5-0.6,1.1-1.2,1.7-1.7c-0.2-0.1-0.3-0.2-0.5-0.4
	C232.6,286.8,232.2,287.5,231.8,288.2z M263.2,260.9c-0.1-0.1-0.3-0.2-0.4-0.3c-13.8,10.6-20.6,25-23.2,41.8c0.3-0.3,0.4-0.6,0.6-1
	c1.9-5.2,3.6-10.4,5.6-15.5c3.2-8.3,8-15.6,14.6-21.6C261.4,263.2,262.2,262,263.2,260.9z M243,306.8c2.2-3.8,3-8.1,4.3-12.2
	C245.8,298.6,243.7,302.4,243,306.8z"/>
<path class="st0" d="M309.8,304.6c-3.5-7.7-7.9-14.7-14.2-20.5c-3.2-2.9-6.2-6-9-9.3c-2.4-2.8-4.3-5.9-6.5-8.9
	c-0.5-0.7-0.8-1.3,0.1-2.2c1.9,3.9,5.4,6,8.7,8.3c1.4,0.9,2.8,1.9,4.1,2.9c5.9,4.1,10.6,9.3,14.4,15.4c1.1,1.8,2.7,3.3,3.9,5.1
	c0.4,0.6,0.6,1.4,0.7,2.2c0.2,5,0.4,10,0.6,15.1c0.3,8.4,0.8,16.7,1,25.1c0.2,6.6,0.2,13.2-0.1,19.9c-0.4,8.7-2.9,16.9-5.9,25
	c-0.1,0.4-0.5,0.6-0.8,1c-0.2-0.3-0.4-0.4-0.4-0.5c0.8-4.1-0.2-8.1-1.1-12c-1-4.3-2.1-8.5-3.2-12.8c-1.6-6.1-4.2-11.7-6.8-17.3
	c-6.4-14.1-11.4-28.7-13.7-44.2c-1.1-7.3-1.9-14.7-2.9-22.1c0-0.4,0-0.8,0.1-1.2c1.7,5.5,3.1,11.1,5.5,16.3
	c2.4,5.2,4.8,10.4,7.6,15.4c-2.4-6.3-4.9-12.5-7.2-18.9c-2.3-6.3-4.7-12.6-5.2-19.4c0.5,0.8,1.1,1.6,1.6,2.5
	c2.5,4.3,5.6,8.2,9.2,11.6C297.8,288.2,304.3,295.9,309.8,304.6z M312.4,339.4c-0.3-4.1-3.3-10.6-5.8-12.8
	C308.9,331.1,309.8,335.6,312.4,339.4z"/>
<path class="st0" d="M228.6,206.8c1.7,0.6,3.3,1.2,4.8,1.7c3.2,1,5.4,2.9,6.6,6.1c1.7,4.6,4.3,8.5,8.1,11.6c1.5,1.2,1.9,3.3,2.3,5.1
	c0.5,3,0.7,6,1.1,9c0.1,0.9,0.1,1.9,0.2,3.1c-1.1,0.7-1.4,1.8-1.4,3.3c0.1,4.7,0,9.4,0,14.2c-5.8,3.5-11.8,7-18,10.6
	c-0.5-0.3-1.2-0.6-1.7-1c-3.6-2.8-7.2-5.7-10-9.5c-5.5-7.4-11.5-14.5-18.2-21C211.7,229.4,220.3,218.3,228.6,206.8z"/>
<path class="st0" d="M276.1,276.3c-0.5,2.3-0.9,4.4-1.5,6.5c-0.7,2.5-1.4,4.9-2.1,7.3c-1.9,6-2.2,12.3-1.7,18.5
	c0.6,7.3,1.7,14.6,2.7,21.8c0.3,2.5,0.5,2.6,1.9,3.6c1.1-0.5,1.1-1.6,1-2.4c-0.4-2.9-0.9-5.8-1.4-8.7c-0.2-1.2-0.7-2.3-1-3.4
	c-2.8-9.6-2.7-19.3-0.3-29c1.4-5.6,2.4-11.4,3.6-17.1c0-0.2,0.1-0.4,0.5-0.7c0.1,1.3,0.3,2.7,0.3,4c0.9,17.3,4,34.2,10,50.5
	c2,5.4,4,10.8,6.6,15.9c4.3,8.6,6.8,17.7,8.9,26.9c0.6,2.6,1.1,5.3,1.7,8c0.2,1,0.2,1.9-0.6,2.7c-3.3,0.3-6.1-0.8-8.2-3.3
	c-0.9-1.1-1.8-2.2-2.6-3.4c-5.2-7.4-11.3-14-18.8-19.3c-2.9-2-5.6-4.3-7.3-7.4c-1.3-2.3-1.9-4.7-2-7.3c-0.1-4.7-0.8-9.4-1.9-14
	c-0.9-3.5-2.1-6.9-4.4-9.8c-1.1-1.4-1.3-3-0.9-4.5c0.3-1.5,0.8-3,1.5-4.2c5.7-9.2,10.1-19,14.4-28.9c0.3-0.6,0.5-1.2,0.9-1.7
	C275.4,276.6,275.6,276.6,276.1,276.3z"/>
<path class="st0" d="M301.7,227.8c-1.4,0.6-3,1.1-4.3,1.9c-3.2,1.9-6.4,3.9-9.6,5.9c-2.4,1.5-4.8,2.9-7.2,4.3
	c-0.6,0.3-1.5,0.5-2.2,0.4c-2.4-0.3-4.9-0.7-7.5-1.1c5-5.2,10.1-10.2,14.9-15.4c4.8-5.3,9-11,12.7-17.2
	c-9.3,11.2-18.7,22.4-29.7,32.8c3.7-6,7.1-11.5,10.6-17.1c-4.2,4.7-7.8,9.7-10.8,15.3c1.4-5.1,3.2-10.1,6.5-14.3
	c6.2-7.8,12-15.9,18.6-23.4c4-4.5,8-8.9,12.8-12.5c2.1-1.5,4.4-2.9,6.6-4.3c2.1-1.3,4.2-2.6,6.2-4c2.5-1.8,4.4-4.2,5.3-7.2
	c0.1-0.2,0.2-0.4,0.3-0.6c0-0.1,0.1-0.1,0.4-0.2c1.9,1,2.5,3.1,3.8,5c-9.3,4.3-17.7,9.5-24,17.6c1.8-1.4,3.8-2.8,5.4-4.4
	c4.2-4.1,9.1-7.2,14.4-9.8c2.1-1,4-2.2,6-3.4c1.4,1.5,2.3,3.2,3.6,7.2c-10,6.7-20.8,12.5-28.7,22c0.9-0.7,1.7-1.3,2.6-2
	c0.1,0.1,0.1,0.1,0.2,0.2c-1.9,3.3-3.9,6.6-5.7,10c-1.8,3.3-3.3,6.8-4.8,10.3c4.7-5.4,6.9-12.3,11.2-18.1c0,1,0,2,0,2.9
	c-0.1,3.3,0.5,6.3,2.3,9.2c1.1,1.9,0.7,4-0.7,5.7c-1.6,2.1-3.2,4.2-4.4,6.5c-2.1,3.9-3.9,7.8-5.8,11.8c-0.8,1.6-1.2,3.4-0.7,5.5
	c-5.9-3-12-5.3-18.8-6.6c3-1.8,5.7-3.3,8.3-4.9c3.7-2.3,7.3-4.6,10.9-7C300.8,228.7,301.2,228.2,301.7,227.8
	c0.7-0.3,1.4-0.6,2.1-0.9c-0.1-0.2-0.2-0.3-0.3-0.5C302.9,226.9,302.3,227.4,301.7,227.8z"/>
<path class="st0" d="M230.7,272.6c-1.8,1.8-3.5,3.5-5.1,5.1c-3.4-3.2-6.9-6.4-10.3-9.7c-3.3-3.1-7.1-5.5-11.1-7.5
	c-6.1-3.1-11.5-7.1-16.4-11.9c-1.2-1.2-2.3-2.4-3.4-3.7c-1.2-1.5-1.2-2.9-0.2-4.6c3.3-5.5,7.1-10.6,11-15.6
	c7.3-9.5,14.6-19.1,21.9-28.7c1.6-2.1,2.9-4.3,4.5-6.6c1.2,0.8,2.4,1.4,3.4,2.4c2.1,2.1,4.1,4.3,6.1,6.4c-1,2.4-1.8,5.1-3.1,7.5
	c-1.1,2-2.7,3.7-4.2,5.5c-6.8,8.4-13.6,16.7-20.4,25.1c-0.7,0.9-1.4,1.9-2.2,3c-1.5-1.2-2.8-2.1-4.1-3.1c0,1.2,0.7,2,1.4,2.6
	c8.1,7.3,14.8,15.8,21.5,24.3c2.5,3.1,5.9,5.6,8.9,8.3C229.6,271.9,230.2,272.3,230.7,272.6z"/>
<path class="st0" d="M260.7,111.7c0.6-0.7,1.1-1.4,1.7-2.3c1.1,0.4,2.3,0.8,3.7,1.3c-0.7-1.8-2.1-2.2-3.4-2.5
	c-1.3-0.3-2.7-0.5-4-0.6c-1.4-0.1-2.8,0-4.6,0c0.2-2.5,0.3-5,0.6-7.4c0.1-1.1,0.8-1.6,2-1.4c5.6,0.9,10-1.3,12.9-5.8
	c2.2-3.3,5.1-3.9,8.6-3.8c2.5,0.1,4.3,1.1,6,2.9c2,2.1,3,4.4,3.1,7.3c0.1,2.8,0.5,5.6,0.9,8.3c0.4,2.9-0.3,5.5-1.2,8.2
	c-1,3.2-2,6.4-3.3,9.5c-1.1,2.8-2.4,5.5-4.1,8c-1.9,2.8-4.8,4.4-8.1,5.2c-1.8,0.4-3.5-0.2-5-1.2c-3.2-2-5.7-4.7-7.6-7.8
	c-2.6-4.2-4.7-8.7-6-13.5c-0.7-2.5-0.9-4.8,1.1-7c1.9,2.2,4,3.9,7.5,3.1C261.2,112,261,111.9,260.7,111.7z M279,111.8
	c4.1,0.7,6.4-1.2,8.3-4.1c-3.5-1.1-6.8-0.7-10.1,0.3c-1.5,0.5-1.6,0.6-2.1,2.1c1.1-0.4,2.2-0.8,3.3-1.2c0.6,0.9,1.1,1.7,1.6,2.4
	C279.7,111.4,279.5,111.5,279,111.8z M285.7,103c-0.5-0.1-1.1-0.3-1.5-0.2c-3,0.7-6,1.4-9,2.2c-1,0.3-1.8,1.1-2.3,2.6
	C277.1,105,281.6,104.6,285.7,103z M276.2,129c-2.9-0.9-7.1-0.7-10.2,0.7C269.4,129.5,272.8,129.3,276.2,129z M257.9,104.4
	c0,0.2-0.1,0.4-0.1,0.5c2.6,0.5,5.2,1.1,7.7,1.6C263.4,104,260.5,104.8,257.9,104.4z M272.7,131.6c0-0.2-0.1-0.4-0.1-0.6
	c-0.9-0.5-1.8-0.4-2.3,1C271.1,131.9,271.9,131.7,272.7,131.6z"/>
<path class="st0" d="M260,214.6c0.1-0.3,0.2-0.6,0.4-1.3c2,4.8,3.1,9.5,4.8,14.2c-0.3-0.1-0.5-0.1-0.5-0.1c-2.2-3.8-5.2-6.8-8.1-10
	c-4.2-4.7-8.3-9.5-12.3-14.3c-1.5-1.8-3.1-3.6-5.2-4.8c0.7,0.9,1.4,1.8,2.1,2.8c5,6.8,10.2,13.4,16.3,19.4c3,3,5.6,6.3,7.4,10.7
	c-5.1-2.7-9.4-6-13.8-9.2c4.3,5.8,11.1,8.7,16.6,13.4c-0.5,1.2-1.1,2.4-1.7,3.9c-1.1-1.1-2.1-2.1-3-3.1c-2.5-3-5.5-5.3-8.7-7.4
	c-1.2-0.8-2.4-1.6-3.6-2.4c-4.4-2.9-7.6-6.8-9.3-11.8c-1.4-4.2-4.4-6.5-8.6-7.5c-0.6-0.2-1.2-0.3-1.8-0.5c-1.8-0.6-2.3-1.4-1.4-3
	c2.1-3.9,4.4-7.3,8.8-9.3c4.3-1.9,7.9-5,10.2-9.4c1.4-2.8,5-2.9,6.7-0.2c2,3.1,3.2,6.6,3.6,10.3c0.3,2.9,0.7,5.9,1.4,8.7
	c0.9,4.2,2.6,8.2,5.3,11.6c2.4,3,4.7,6,7,8.8c-1.5,3-2.9,5.9-4.4,8.9c-2-6.1-4-12.1-6-18c-0.4-1.3-0.9-2.6-1.4-3.8
	c-0.3-0.7-0.9-1.3-1.7-2.3C258,211.2,259.6,212.8,260,214.6z"/>
<path class="st0" d="M312.1,225c0,0.4,0.1,0.9,0.1,1.3c0,4.9-0.2,9.7-0.2,14.6c0,5.3-0.2,10.7,0.3,16c0.7,7.1,0.5,14.1-0.2,21.2
	c-0.4,3.9-0.3,7.9-0.5,11.9c0,0.9,0,1.9,0,3.5c-0.8-1.1-1.3-1.7-1.8-2.4c-1.8-2.6-3.5-5.1-5.2-7.7c-0.5-0.7-0.8-1.6-1-2.4
	c-0.6-1.9-0.9-3.9-1.7-5.7c-1.3-3-1.4-6.2-1.1-9.3c0.4-5.2,1.2-10.3,1.8-15.4c0-0.4-0.1-0.9-0.2-1.3c-0.2-0.6-0.5-1.1-0.7-1.7
	c-0.5-1.9-0.4-3.7,0.6-5.5c2.4-4.6,4.6-9.3,7-13.8c0.6-1.2,1.6-2.3,2.4-3.4C311.8,224.9,312,224.9,312.1,225z"/>
<path class="st0" d="M246.9,185.7c-2.4,3.3-5.4,5.5-8.7,7.4c-2,1.2-4.1,2.4-6.4,3.7c-3.1-2.5-5.4-6.5-9.7-8c-0.3-4.6,3.4-5.9,6-8.2
	c1.9,4.9,5.7,7.7,10.1,9.9c-3-3.2-7.4-5.3-8.8-9.9c1.8,2.2,3.5,4.4,6.3,5.6c-0.7-0.9-1.4-1.8-2.1-2.7c-0.5-0.6-1-1-1.4-1.6
	c-1.7-2.2-1.4-4.2,1-5.6c1.5-0.9,3.1-1.6,4.9-2.6C238.1,179.8,242,182.9,246.9,185.7z"/>
<path class="st0" d="M220.7,321.1c-1.6,1.8-3.1,3.7-4.8,5.5c-1.5,1.6-1.6,3.4-1.2,5.4c0.1,0.3,0.4,0.6,0.7,1
	c2.1-0.8,2.8-2.6,3.5-4.5c-0.7,0.6-1.5,1.3-2.3,2c-0.7-0.9-0.5-1.7,0-2.3c1.8-2.4,3.6-4.9,5.4-7.3c0.1-0.1,0.4-0.1,1-0.3
	c-4.3,9.9-4.9,20.2-5,31.1c-2.1-2-3.8-3.6-5.4-5.3c-1.2-1.3-1.2-2.5-0.1-3.9c1.4-1.7,1.5-3.7,1.6-5.6c0-1-0.6-2.2-1.4-2.9
	c-1.5-1.4-3.3-2.4-5-3.6c-1.6-1.1-3.3-2-4.7-3.2c-1.9-1.5-1.6-3.2,0.7-4.2c1.1-0.5,2.2-0.9,3.4-1.1c4.5-0.5,9-0.9,13.5-1.3
	C220.5,320.8,220.6,321,220.7,321.1z"/>
<path class="st0" d="M262.4,206c2.9-0.8,17.3-1.2,24.6-0.6c-4.5,6-8.9,11.9-13.4,17.8c-2.5-3.1-4.7-6-7-8.8
	C264.7,211.9,263.4,209.1,262.4,206z"/>
<path class="st0" d="M324.2,338.2c1.4,3,2.5,6,4.1,8.7c1.4,2.2,1.4,4.1,0.7,6.4c-1.6,5.5-2.9,11.1-4.4,16.6
	c-0.2,0.9-0.7,1.7-1.2,2.7C321.7,369.2,322.3,344.1,324.2,338.2z"/>
<path class="st0" d="M327.8,342.2c-1.1-2.4-2.2-4.7-3.2-7c-0.1-0.3-0.1-0.6-0.1-0.9c0.7-5.9,1.5-11.8,2.3-18.1
	c0.5,0.5,0.7,0.7,0.9,0.9c1.9,2.5,3.8,5.1,5.8,7.5c0.8,1,1.1,1.8,0.6,3C332,332.4,330,337.1,327.8,342.2z"/>
<path class="st0" d="M288.5,395.4c1.4-6.7,2.7-13.3,4.1-20.1c1.1,1.3,2,2.5,3.1,3.5c1.1,1,2.3,2,3.7,2.6c1.4,0.6,3,0.8,4.9,1.3
	c-0.4,0.6-0.6,1.2-1,1.5c-4.5,3.6-9,7.1-13.5,10.6C289.4,395.1,288.9,395.2,288.5,395.4z"/>
<path class="st0" d="M281.1,262.1c3.5,1.1,6.5,1.9,9.5,3c2.5,0.9,4.9,2,7.4,3.1c0.5,0.2,1.1,0.8,1.2,1.3c0.8,3.1,1.4,6.2,2.2,9.5
	c-0.5-0.2-0.8-0.3-1-0.5c-4.2-3.2-8.4-6.3-12.6-9.5c-2-1.5-4.1-2.7-5.5-4.9C281.8,263.6,281.6,263.1,281.1,262.1z"/>
<path class="st0" d="M284.9,261.5c-1.6-0.5-3-0.9-4.6-1.4c0.3-5.8,0.6-11.5,0.9-17.5c2.1,0.5,4.1,1,6,1.4
	C286.4,249.9,285.7,255.5,284.9,261.5z"/>
<path class="st0" d="M274.5,241.4c1.9,0.4,3.7,0.7,5.7,1.1c-0.6,5.8-1.1,11.4-1.7,17.1c-1.5-0.3-2.9-0.6-4.5-0.9
	C274.1,253,274.3,247.4,274.5,241.4z"/>
<path class="st0" d="M264.4,239.3c-3.9,1.1-7.4,2.1-11.1,3.1c0-4.8-0.8-9.4-2.5-14.3C256.3,231.1,260.5,235,264.4,239.3z"/>
<path class="st0" d="M272.2,258.4c-1.6-0.2-2.7-0.3-4-0.4c-0.2-5.5-0.4-11-0.6-16.6c2,0,4,0,6.1,0
	C273.2,247.1,272.7,252.6,272.2,258.4z"/>
<path class="st0" d="M288.2,244.3c2.1,0.8,3.8,1.4,5.6,2.1c-1.1,5.6-2.2,11.1-3.3,16.8c-1.2-0.4-2.3-0.7-3.6-1.1
	C287,256.2,287.5,250.5,288.2,244.3z"/>
<path class="st0" d="M260.9,241.9c2-0.2,3.8-0.4,5.7-0.6c0,5.5,0,11,0,16.6c-1.4,0.2-2.5,0.3-4,0.4C262,253,261.4,247.6,260.9,241.9
	z"/>
<path class="st0" d="M261,258.5c-1.6,0.2-3,0.4-4.6,0.7c-0.3-5.2-0.6-10.2-1-15.4c1.1-1,2.7-1,4.5-1.5
	C260.3,247.6,260.6,252.9,261,258.5z"/>
<path class="st0" d="M295.4,265.1c-1.2-0.5-2-0.8-2.9-1.2c0.5-5.6,1.3-11.1,2.5-16.9c1.2,0.5,2.3,1,3.6,1.6
	C297.5,254,296.5,259.4,295.4,265.1z"/>
<path class="st0" d="M231.4,310.6c-1.1,1.8-2.1,3.4-3.2,5.1c-2.2-3.9-4.2-11.1-4.1-14.6C227.9,303.4,229.5,307,231.4,310.6z"/>
<path class="st0" d="M251.4,245.1c1.1-0.4,2-0.7,3.2-1.2c0,5.3,0,10.4,0,15.7c-0.6,0.2-1.5,0.5-2.5,0.8
	C251.9,255.2,251.7,250.2,251.4,245.1z"/>
<path class="st0" d="M298.9,266.5c-1.5-0.1-2-0.7-1.8-2c0.7-4.9,1.3-9.7,2-14.6c0-0.1,0.2-0.3,0.2-0.4c2,0.8,2,0.8,1.7,2.4
	c-0.7,4.6-1.3,9.3-2,13.9C299.1,266,299,266.2,298.9,266.5z"/>
<path class="st0" d="M274.8,331.1c-0.3-2-0.7-3.9-1-5.9c0.2,0,0.3-0.1,0.5-0.1c0.4,2,0.7,3.9,1.1,5.9C275.2,331,275,331,274.8,331.1
	z"/>
<path class="st0" d="M259.1,111.5c-1.5-0.9-2.5-1.4-4-2.3c1.2-0.1,1.8-0.2,2.5-0.3C258.1,109.7,258.5,110.3,259.1,111.5z"/>
<path class="st0" d="M251.1,312.3c-0.2-2.5-0.2-2.5,2.1-2.5C253,311.2,252,311.6,251.1,312.3z"/>
<path class="st0" d="M211.3,339.9c-0.2-0.8-0.4-1.5-0.7-2.5C212,338.7,212,338.7,211.3,339.9z"/>
<path class="st0" d="M319.3,405.4c-0.1,0.7-0.1,1.3-0.2,2c-0.2,0-0.4-0.1-0.5-0.1C318.8,406.6,319.1,406,319.3,405.4
	C319.3,405.4,319.3,405.4,319.3,405.4z"/>
<path d="M224.7,470.4c-1,4.6-1.9,9.3-3.2,13.9c-3.9,14-8,28-12,42c-0.1,0.4-0.3,0.7-0.7,1c0.1-0.7,0.2-1.3,0.4-2
	c2.7-10.4,5.3-20.8,8.1-31.2c2.1-7.8,4.4-15.6,6.6-23.4c0-0.1,0.1-0.3,0.2-0.4C224.3,470.4,224.5,470.4,224.7,470.4z"/>
<path d="M249.5,406.9c2.2-12.5,3.6-25.2,7.5-37.3C254.5,382,252,394.5,249.5,406.9z"/>
<path d="M316,666.6c-0.4-1.1-0.8-2.1-1.3-3.2C315.5,664.3,316.2,665.3,316,666.6C315.9,666.6,316,666.6,316,666.6z"/>
<path d="M295.5,604.1c0.3,0.6,0.5,1.2,0.8,1.8c-0.1,0-0.3,0.1-0.4,0.1C295.8,605.4,295.7,604.7,295.5,604.1
	C295.6,604.1,295.5,604.1,295.5,604.1z"/>
<path d="M280.5,170.6c1.3-2,3.4-2.3,5.3-2.5c4.2-0.6,8,0.9,11.8,2.6c-2.4-0.3-4.9-0.5-7.3-1c-3-0.6-5.8-0.5-8.6,0.8
	c-0.2,0.1-0.5,0.1-0.7,0.2C281,170.8,280.9,170.7,280.5,170.6z"/>
<path d="M255.8,173.3c4-0.9,8-1.9,12-2.8c2.3-0.5,3.9,0.3,5,2.6c-0.4-0.1-0.7-0.1-0.9-0.3c-1.8-1.5-3.7-1.3-5.8-0.8
	c-3.3,0.8-6.7,1.3-10,1.9C255.9,173.7,255.8,173.5,255.8,173.3z"/>
<path d="M272.3,170.2c0.4,0.1,0.9,0.3,1.6,0.5c0.7-1.6,1.4-3.1,2.3-5c0.1,1.8-0.1,3.3-0.8,4.7c-0.3,0.6-1,1.3-1.5,1.3
	c-0.6,0-1.2-0.6-1.8-1C272.1,170.5,272.2,170.3,272.3,170.2z"/>
<path d="M263.2,260.9c-1,1.1-1.9,2.3-2.9,3.3c-6.6,6.1-11.3,13.4-14.6,21.6c-2,5.1-3.8,10.3-5.6,15.5c-0.1,0.4-0.3,0.7-0.6,1
	c2.6-16.8,9.5-31.2,23.2-41.8C262.9,260.6,263.1,260.7,263.2,260.9z"/>
<path d="M243,306.8c0.7-4.3,2.9-8.2,4.3-12.2C246,298.6,245.2,302.9,243,306.8z"/>
<path d="M231.8,288.2c0.4-0.7,0.8-1.4,1.2-2.1c0.2,0.1,0.3,0.2,0.5,0.4C232.9,287,232.3,287.6,231.8,288.2
	C231.7,288.2,231.8,288.2,231.8,288.2z"/>
<path d="M312.4,339.4c-2.6-3.8-3.5-8.3-5.8-12.8C309.1,328.8,312.1,335.3,312.4,339.4z"/>
<path d="M301.7,227.8c0.6-0.5,1.2-0.9,1.8-1.4c0.1,0.2,0.2,0.3,0.3,0.5C303,227.2,302.3,227.5,301.7,227.8
	C301.6,227.8,301.7,227.8,301.7,227.8z"/>
<path d="M279,111.8c0.5-0.3,0.7-0.4,1.1-0.6c-0.5-0.7-1-1.5-1.6-2.4c-1.1,0.4-2.2,0.8-3.3,1.2c0.5-1.5,0.6-1.6,2.1-2.1
	c3.3-1,6.6-1.4,10.1-0.3C285.4,110.6,283.1,112.5,279,111.8z M285.6,108.7c-2.6-0.2-2.6-0.2-3.4,2.1
	C283.4,110.1,284.3,109.5,285.6,108.7z"/>
<path d="M285.7,103c-4.1,1.7-8.6,2-12.8,4.6c0.5-1.5,1.3-2.3,2.3-2.6c3-0.9,6-1.5,9-2.2C284.6,102.7,285.2,102.9,285.7,103z"/>
<path d="M276.2,129c-3.5,0.2-6.8,0.5-10.2,0.7C269.2,128.3,273.3,128.1,276.2,129z"/>
<path d="M257.9,104.4c2.6,0.4,5.5-0.5,7.6,2.2c-2.6-0.5-5.2-1.1-7.7-1.6C257.8,104.8,257.8,104.6,257.9,104.4z"/>
<path d="M272.7,131.6c-0.8,0.2-1.6,0.3-2.5,0.5c0.6-1.4,1.4-1.5,2.3-1C272.7,131.2,272.7,131.4,272.7,131.6z"/>
<path class="st0" d="M285.6,108.7c-1.4,0.8-2.2,1.4-3.4,2.1C283.1,108.5,283.1,108.5,285.6,108.7z"/>
</svg>
