<?xml version="1.0" encoding="utf-8"?>
<!-- Generator: Adobe Illustrator 19.0.0, SVG Export Plug-In . SVG Version: 6.00 Build 0)  -->
<svg version="1.1" id="图层_1" xmlns="http://www.w3.org/2000/svg" xmlns:xlink="http://www.w3.org/1999/xlink" x="0px" y="0px"
	 viewBox="0 0 595.3 841.9" style="enable-background:new 0 0 595.3 841.9;" xml:space="preserve">
<style type="text/css">
	.st0{fill:#FFFFFF;}
</style>
<path class="st0" d="M595.3,841.8c-198,0-396,0-593.9,0c0-280,0-560.1,0-840.1c198,0,396,0,593.9,0
	C595.3,281.7,595.3,561.8,595.3,841.8z M190,394c-0.2,0.5-0.3,0.8-0.4,1.2c-1.4,4-2.9,7.9-4.1,12c-1.4,4.8-2.2,9.8-1.8,14.9
	c0.9,10.2,2.7,20.2,5.7,30c2.7,9.1,5.8,18.1,7.7,27.4c2.1,10.3,4,20.6,3.3,31.3c-0.9,13-3.2,25.6-7.7,37.8
	c-4.6,12.4-10.6,24.1-16.7,35.8c-12.8,24.8-26.1,49.3-38.3,74.5c-8.6,17.7-15.4,36.1-19.7,55.3c-3,13.5-5.1,27.1-6.1,40.9
	c-0.7,9.8-0.8,19.6,3.7,28.7c0.8,1.6,1.7,2.8,3.3,3.5c3.8,1.7,7.9,2.6,12.1,2.7c5,0.2,9.9-0.6,14.7-1.7c7.1-1.6,14.2-3.7,21.3-5.4
	c11.4-2.7,22.8-5.3,34.3-7.9c13.7-3.1,27.4-6.3,41.3-8.1c2.1-0.3,3.6,0,5.2,1.4c2.9,2.5,5,2.5,7.9,0.2c0.9-0.7,1.8-0.9,2.9-0.8
	c2.1,0.2,4.3,0.4,6.4,0.3c14.5-0.2,29-0.5,43.6-0.8c2.9-0.1,5.9-0.3,8.8-0.5c0.4,0,0.7,0.1,1.1,0.1c0,0.5,0.1,0.8,0.1,1.1
	c0.3,2.3,1.2,3.1,3.4,3.2c2.2,0.1,3.1-0.6,3.6-2.9c0.2-0.8,0.3-1.5,0.4-2.5c2,0,3.9,0,5.8,0c1.8,0,1.9,0.1,2,1.9
	c0.1,1.8,0.9,3,2.4,3.8c3.2,1.6,6.4,3.2,9.7,4.6c3.5,1.5,4.3,1.2,6.9-1.6c1.5-1.6,3-3.2,4.3-4.5c6.9,2.7,13.4,5.4,19.9,7.8
	c7.1,2.6,14.5,3.1,22,2.3c13.7-1.6,27.3-4.2,40.4-8.8c5.8-2,11.7-2.9,17.7-3.6c4.3-0.5,8.5-1.4,12.7-2.5c5-1.3,7.7-5.9,7-11
	c-0.6-4.2-2.4-7.9-4.3-11.6c-4.6-9-9.9-17.7-15.7-26c-11.4-16.4-22-33.3-30.8-51.2c-5.7-11.6-11.4-23.2-17.2-34.7
	c-5.1-10-10.3-20-15.6-29.9c-4.7-8.7-9.5-17.4-14.3-26c-11.4-20.5-18-42.7-22-65.7c-1.5-8.3-2.6-16.7-4-25
	c-3.4-20.5-9.2-40.4-15.6-60.1c-4.2-12.8-9.1-25.4-13.7-38.1c-4.3-12-7.5-24.2-9.5-36.8c-0.7-4-1.1-8.1-1.6-12.1
	c-0.9-5.9-1.6-11.9-2.7-17.7c-0.7-3.6,0-6.8,1.6-10.1c3.2-6.4,5.9-13.1,7.7-20.1c1-3.8,2.1-7.5,3.3-11.2c0.7-2.1,1.6-4.1,2.4-6.2
	c2.1,1.1,2.1,1.3,1.8,3c-0.4,1.9-0.9,3.9-1.1,5.9c-1.1,8.4-1.4,16.8,0,25.3c2.7,16.6,5.8,33.2,7.4,49.9c0.3,3.3,0.5,6.7,0.5,10
	c0,2.9-0.1,5.7-0.3,8.6c-0.2,3.6,0.8,6.6,3.4,9.1c2.5,2.5,3.4,5.7,3.6,9.1c0.1,0.8,0.2,1.6,0.3,2.4c0.1,1.8,1.4,2.6,2.8,3.3
	c0.9,0.4,2-0.1,2.2-1.1c0.1-0.5,0-1,0-1.4c0.1-3.5,0.1-7,0.2-10.4c0.2,0,0.4-0.1,0.5-0.1c0.3,0.6,0.8,1.1,1,1.8
	c0.9,3.6,1.8,7.3,2.6,10.9c0.3,1.5,0.4,3,0.8,4.5c0.5,1.9,1.2,3.8,1.9,5.7c0.6,1.7,1.1,3.3,1.8,4.9c0.9,2,2.7,3.1,4.4,2.8
	c-0.3-1.6-0.7-3.3-1-4.9c-1.5-7.5-2.1-15.1-1-22.8c0.2-1.7,0.1-3.6-0.4-5.2c-0.7-2.4-1.6-4.9-2.9-7.1c-3.1-5-4.5-10.7-6.8-16.1
	c-0.2-0.5-0.2-1.1-0.3-1.6c-0.6-6.2-1.2-12.4-1.8-18.6c-1-12-0.6-24.1,0.5-36.1c0.7-7.6,1.1-15.3,1-22.9c-0.1-8.8-0.2-17.6-0.3-26.3
	c-0.1-9.2-0.3-18.3-0.4-27.5c0-0.9,0-1.9,0-2.8c2.9-0.6,3.8-1.4,4.2-4.2c0.3-1.8,0.4-3.7,0.2-5.5c-1-6.1-1.2-12.2-1.3-18.4
	c-0.1-7.3,1.4-14.2,3.7-21.1c1.4-4.1,2.5-8.2,3.5-12.4c1.2-5.1,0.5-9.9-2.8-14.3c-2.1-2.8-4.5-4.4-8-4.3c-1.8,0.1-3.6,0-5.7,0
	c-0.7-1.9-1.4-3.8-2-5.7c-1-3.4-3.2-5.3-6.7-5.5c-1.8-0.1-3.7,0-5.5,0c-5.1,0.2-10.2,0.4-15.3,0.6c-0.5,0-1-0.2-2-0.4
	c0.8-0.9,1.3-1.5,1.9-2.1c2.6-2.4,5.3-4.8,8-7.2c0.9-0.9,1.8-1.9,2.6-2.8c0.8-1,1.6-2.1,2.4-3.2c2.1,0.9,4.1,2,6.7,0.9
	c-3.2-1.2-4.6-3.7-5.7-6.4c-0.4-1-0.8-2.1-1-3.2c-0.5-3.8-1.2-7.6-1.4-11.4c-0.3-6.9-0.4-13.7-1.6-20.5c-0.9-5.5-2.4-10.7-5.3-15.5
	c-2.7-4.5-6.5-7.6-11.6-9.1c-3.4-1-6.9-1.5-10.4-1.4c-4,0-7.8,1.1-10.8,3.9c-1.3,1.2-2.6,1.7-4.2,2c-7.1,1-12.4,4.6-15.7,11.2
	c-4.2,8.4-5.5,17.3-4,26.5c0.9,5.7,2,11.5,3.3,17.1c2.3,10.1,1,19.6-4.4,28.6c-2.5,4.1-5.3,8-8.6,11.5c-4.9,5.1-8,11.2-9.2,18.1
	c-0.8,4.4-1.5,8.8-2,13.2c-0.9,7.8-2.2,15.5-5.6,22.7c-1,2.1-1.8,4.3-2.4,6.5c-0.4,1.7-1.3,2.7-2.7,3.6c-3.6,2.4-7,5-10.4,7.6
	c-3.2,2.5-5.4,5.8-6.8,9.7c-1.7,4.8-0.8,9.1,2,13.2c-0.3-1.5-0.7-3.1-1.1-4.6c-0.8-3.2-0.6-6.3,0.8-9.4c1.3-2.8,2.9-5.4,5.3-7.3
	c3.4-2.7,7-5.3,10.5-7.9c0.5-0.3,1.1-0.5,1.8-0.8c0.6,4.4,2.6,7.9,4.9,11.3c1.3,1.8,2.4,3.8,3.5,5.7c0.7,1.2,1.2,2.4,1.6,3.7
	c1.1,3.5,0.2,6.5-2.4,9c-0.9,0.8-1.8,1.5-2.8,2.2c-0.9,0.7-1.8,1.3-2.8,1.9c4.3-0.8,7.4-3.2,9.5-7.3c0.8,2.9,1.4,5.3,2.1,7.9
	c-0.9,0.9-1.7,1.9-2.6,2.8c-6.2,6.1-12.3,12.3-18.7,18.2c-5.1,4.7-9,10.1-11.7,16.4c-2.5,5.9-5,11.9-7.5,17.9
	c-2.2,5.3-5,10.2-8.8,14.4c-3.3,3.7-6.6,7.4-9.8,11.1c-4.5,5.3-9,10.6-14.2,15.2c-1.1,1-1.8,2.4-2.4,3.8c-0.3,0.8-0.3,2,0.1,2.7
	c1.5,2.9,2.9,5.9,4.8,8.5c2.5,3.4,5.3,6.6,8.1,9.7c0.8,0.9,1.2,1.8,1.3,2.9c0.1,3,0.2,5.9,0.3,8.8c0.2,4.8,3.3,9.1,7.9,10.7
	C188.8,393.6,189.4,393.8,190,394z"/>
<path d="M190,394c-0.6-0.2-1.1-0.4-1.6-0.6c-4.6-1.6-7.7-5.9-7.9-10.7c-0.1-2.9-0.2-5.9-0.3-8.8c0-1.2-0.5-2-1.3-2.9
	c-2.8-3.1-5.6-6.3-8.1-9.7c-1.9-2.6-3.3-5.6-4.8-8.5c-0.4-0.8-0.4-2-0.1-2.7c0.6-1.4,1.3-2.8,2.4-3.8c5.2-4.7,9.7-9.9,14.2-15.2
	c3.2-3.8,6.5-7.5,9.8-11.1c3.8-4.3,6.6-9.2,8.8-14.4c2.5-6,4.9-11.9,7.5-17.9c2.7-6.3,6.6-11.7,11.7-16.4
	c6.4-5.9,12.5-12.1,18.7-18.2c0.9-0.9,1.7-1.9,2.6-2.8c-0.7-2.5-1.3-4.9-2.1-7.9c-2.2,4.1-5.3,6.5-9.5,7.3c0.9-0.6,1.9-1.2,2.8-1.9
	c1-0.7,1.9-1.4,2.8-2.2c2.6-2.5,3.5-5.5,2.4-9c-0.4-1.3-0.9-2.6-1.6-3.7c-1.1-1.9-2.3-3.8-3.5-5.7c-2.3-3.4-4.3-6.9-4.9-11.3
	c-0.7,0.3-1.3,0.5-1.8,0.8c-3.5,2.6-7.1,5.2-10.5,7.9c-2.4,1.9-4,4.5-5.3,7.3c-1.4,3-1.6,6.1-0.8,9.4c0.4,1.5,0.8,3.1,1.1,4.6
	c-2.9-4-3.7-8.4-2-13.2c1.4-3.9,3.6-7.1,6.8-9.7c3.4-2.7,6.9-5.2,10.4-7.6c1.4-0.9,2.3-1.9,2.7-3.6c0.5-2.2,1.4-4.4,2.4-6.5
	c3.4-7.2,4.7-14.9,5.6-22.7c0.5-4.4,1.2-8.9,2-13.2c1.3-6.9,4.4-12.9,9.2-18.1c3.3-3.5,6.1-7.3,8.6-11.5c5.4-9,6.6-18.4,4.4-28.6
	c-1.3-5.7-2.4-11.4-3.3-17.1c-1.5-9.2-0.2-18.1,4-26.5c3.2-6.5,8.5-10.1,15.7-11.2c1.6-0.2,2.9-0.8,4.2-2c2.9-2.8,6.7-3.9,10.8-3.9
	c3.5,0,7,0.4,10.4,1.4c5.1,1.5,8.8,4.6,11.6,9.1c2.9,4.8,4.4,10.1,5.3,15.5c1.2,6.8,1.2,13.7,1.6,20.5c0.2,3.8,0.8,7.6,1.4,11.4
	c0.2,1.1,0.5,2.2,1,3.2c1.1,2.7,2.5,5.2,5.7,6.4c-2.6,1.2-4.5,0-6.7-0.9c-0.8,1.1-1.5,2.2-2.4,3.2c-0.8,1-1.6,2-2.6,2.8
	c-2.6,2.4-5.3,4.8-8,7.2c-0.6,0.5-1.1,1.2-1.9,2.1c1,0.2,1.5,0.4,2,0.4c5.1-0.2,10.2-0.4,15.3-0.6c1.8-0.1,3.7-0.1,5.5,0
	c3.5,0.2,5.7,2.2,6.7,5.5c0.6,1.9,1.3,3.7,2,5.7c2,0,3.8,0.1,5.7,0c3.5-0.1,5.9,1.5,8,4.3c3.3,4.4,4.1,9.1,2.8,14.3
	c-1,4.2-2.1,8.3-3.5,12.4c-2.3,6.9-3.8,13.8-3.7,21.1c0.1,6.2,0.3,12.3,1.3,18.4c0.3,1.8,0.1,3.7-0.2,5.5c-0.4,2.8-1.3,3.6-4.2,4.2
	c0,0.9,0,1.9,0,2.8c0.1,9.2,0.3,18.3,0.4,27.5c0.1,8.8,0.2,17.6,0.3,26.3c0.1,7.7-0.3,15.3-1,22.9c-1.2,12-1.6,24-0.5,36.1
	c0.5,6.2,1.2,12.4,1.8,18.6c0.1,0.6,0.1,1.1,0.3,1.6c2.3,5.4,3.7,11,6.8,16.1c1.3,2.1,2.2,4.6,2.9,7.1c0.5,1.6,0.6,3.5,0.4,5.2
	c-1.1,7.7-0.5,15.3,1,22.8c0.3,1.6,0.7,3.3,1,4.9c-1.7,0.2-3.5-0.9-4.4-2.8c-0.7-1.6-1.3-3.3-1.8-4.9c-0.7-1.9-1.4-3.8-1.9-5.7
	c-0.4-1.4-0.5-3-0.8-4.5c-0.8-3.6-1.7-7.3-2.6-10.9c-0.2-0.6-0.6-1.2-1-1.8c-0.2,0-0.4,0.1-0.5,0.1c-0.1,3.5-0.1,7-0.2,10.4
	c0,0.5,0.1,1,0,1.4c-0.2,1-1.3,1.6-2.2,1.1c-1.4-0.7-2.7-1.5-2.8-3.3c-0.1-0.8-0.2-1.6-0.3-2.4c-0.3-3.4-1.1-6.6-3.6-9.1
	c-2.6-2.5-3.6-5.5-3.4-9.1c0.2-2.9,0.4-5.7,0.3-8.6c0-3.3-0.2-6.7-0.5-10c-1.6-16.8-4.7-33.3-7.4-49.9c-1.4-8.4-1.1-16.9,0-25.3
	c0.3-2,0.7-3.9,1.1-5.9c0.4-1.7,0.3-1.8-1.8-3c-0.8,2.1-1.7,4.1-2.4,6.2c-1.2,3.7-2.3,7.5-3.3,11.2c-1.9,7-4.5,13.6-7.7,20.1
	c-1.6,3.3-2.3,6.5-1.6,10.1c1.1,5.9,1.8,11.8,2.7,17.7c0.6,4,1,8.1,1.6,12.1c2,12.5,5.3,24.8,9.5,36.8c4.5,12.7,9.5,25.2,13.7,38.1
	c6.4,19.7,12.2,39.6,15.6,60.1c1.4,8.3,2.5,16.7,4,25c4.1,23,10.6,45.2,22,65.7c4.8,8.6,9.6,17.3,14.3,26
	c5.3,9.9,10.5,19.9,15.6,29.9c5.8,11.5,11.5,23.2,17.2,34.7c8.9,17.9,19.4,34.8,30.8,51.2c5.8,8.3,11.1,17,15.7,26
	c1.9,3.7,3.7,7.4,4.3,11.6c0.7,5.1-2,9.7-7,11c-4.1,1.1-8.4,2-12.7,2.5c-6,0.7-11.9,1.6-17.7,3.6c-13.1,4.6-26.6,7.1-40.4,8.8
	c-7.5,0.9-14.9,0.3-22-2.3c-6.6-2.4-13.1-5.1-19.9-7.8c-1.3,1.3-2.8,2.9-4.3,4.5c-2.5,2.8-3.3,3.1-6.9,1.6c-3.3-1.4-6.5-3.1-9.7-4.6
	c-1.6-0.8-2.4-2-2.4-3.8c-0.1-1.8-0.2-1.9-2-1.9c-1.9-0.1-3.8,0-5.8,0c-0.2,0.9-0.3,1.7-0.4,2.5c-0.5,2.3-1.4,3-3.6,2.9
	c-2.2-0.1-3.1-0.9-3.4-3.2c0-0.3-0.1-0.6-0.1-1.1c-0.4,0-0.7-0.1-1.1-0.1c-2.9,0.2-5.9,0.4-8.8,0.5c-14.5,0.3-29,0.6-43.6,0.8
	c-2.1,0-4.3-0.1-6.4-0.3c-1.1-0.1-2,0-2.9,0.8c-2.9,2.3-5,2.3-7.9-0.2c-1.6-1.4-3.2-1.6-5.2-1.4c-13.9,1.9-27.6,5.1-41.3,8.1
	c-11.4,2.6-22.9,5.2-34.3,7.9c-7.1,1.7-14.2,3.8-21.3,5.4c-4.8,1.1-9.7,1.9-14.7,1.7c-4.2-0.1-8.2-1-12.1-2.7
	c-1.6-0.7-2.5-1.9-3.3-3.5c-4.5-9.2-4.4-18.9-3.7-28.7c1-13.8,3.1-27.4,6.1-40.9c4.2-19.3,11.1-37.6,19.7-55.3
	c12.1-25.2,25.5-49.7,38.3-74.5c6-11.7,12-23.4,16.7-35.8c4.6-12.2,6.9-24.8,7.7-37.8c0.7-10.7-1.2-21-3.3-31.3
	c-1.9-9.3-5-18.3-7.7-27.4c-2.9-9.8-4.8-19.8-5.7-30c-0.4-5.1,0.4-10,1.8-14.9c1.2-4.1,2.7-8,4.1-12
	C189.7,394.8,189.8,394.5,190,394z M341.7,148.1c1.2-0.5,2.3-1.6,3.9-0.7c-0.9,1.6-2.4,1.7-3.7,2.1c-4.7,1.6-9.4,3-14.1,4.5
	c-4.4,1.4-7.9,4.1-11.1,7.3c-0.4,0.4-0.6,1.2-0.5,1.7c0.6,2.3,1,4.6,0.3,7.3c3.2-0.5,6.1-0.8,9,0.1c2.9,0.9,5.5,2.3,7.9,4.4
	c-0.6,0-1.2-0.1-1.8-0.3c-1.7-0.6-3.4-1.3-5.1-2c-2.8-1-5.7-1.3-8.7-1.1c-1.1,0.1-1.6,0.6-2.1,1.6c-1.2,2.4-2.7,4.7-4.1,7
	c-0.3,0.4-0.5,0.9-1,1.6c6.1-0.3,11.2,1.7,16,4.7c-0.6,0-1.3,0-1.9-0.2c-2-0.6-4-1.2-6-1.7c-2.4-0.6-4.8-1.1-7.2-1.5
	c-1-0.2-2.1-0.1-2.8,0.9c-1.7,2.5-3.5,4.9-5.2,7.4c1.6,3.7,4.3,5.7,7.7,7c3.7,1.3,7.4,2.3,11.2,3.4c3.4,1,6.9,1.8,10.4,2.9
	c3.2,1,5.9,2.8,8.1,5.4c2.6,3.1,4.7,6.4,4.2,10.9c0.6,0.2,1.2,0.5,2,0.8c0.3-0.8,0.7-1.4,0.9-2c0.7-2.4,0.5-4.9,0.1-7.4
	c-1.9-12.8-1.9-25.4,2.4-37.8c1.6-4.6,2.6-9.4,3.7-14.1c1.3-5.5-1-9.8-4.6-13.6c-0.6-0.7-1.6-1.2-2.4-1.4c-2.2-0.3-4.3-0.3-6.9-0.5
	C340.7,146.2,341.2,147.1,341.7,148.1c-2.6-1.8-4.3-4.2-5.4-7.1c-0.3-1-0.6-2-0.9-3c-1-3.1-2.4-4.2-5.6-4.2c-3,0-6.1,0.3-9.1,0.4
	c-3.7,0.1-7.3,0.1-11,0.2c-0.6,0-1.2-0.1-1.9-0.1c-1,8.5-0.4,16.5,4.2,24.3c4-4.3,7.9-8.3,11.7-12.4c0.1,0.1,0.2,0.2,0.4,0.3
	c-3,5-6.7,9.5-11.9,13.1c1.4,0.7,2.3,1.2,3.2,1.7c2.8-3.5,6-6.4,9.9-7.9C330.7,151.3,336.3,149.8,341.7,148.1z M115.6,780.9
	c0.8-0.8,1.2-1.2,1.6-1.7c6.2-8.2,13.6-14.8,23.3-18.5c1.9-0.7,3.9-1.5,5.8-2.2c6.4-2.2,12.7-4.7,18.6-8.1
	c8.1-4.6,16.4-8.9,24.5-13.5c6.3-3.6,12.5-7.3,18.5-11.5c7.7-5.4,13.5-12.6,17.3-21.3c1.6-3.8,2.2-7.7,1.6-11.7
	c-1.4-9.8-5.3-18.3-12.8-25.1c-4.2-3.8-8.3-7.7-12.5-11.5c-2.7-2.5-5.3-5.1-7.3-8.2c-3.2-5.2-3.7-10.6-1.3-16.2c0.4-1,0.8-1.9,1-2.9
	c1.5-6.4,2.8-12.9,4.5-19.3c5-18.9,10-37.8,15.1-56.6c0.4-1.6,1.1-3.2,1.6-4.8c0.1,1.6-0.1,3.1-0.5,4.5c-2.8,11.6-5.7,23.2-8.6,34.8
	c-2.7,10.8-5.4,21.5-8.1,32.2c-0.5,1.9-0.8,3.9-1.2,5.9c6.6-5.8,14.4-9.1,21.9-12.9c5.1-2.5,10.2-5,15.2-7.6c5.8-3,11.3-6.4,15.9-11
	c3.2-3.1,6.2-6.4,8.9-10c4-5.3,3.9-10.5,0.2-16c-1.2-1.8-2.5-3.5-4.1-4.9c-3.4-2.9-6.9-5.7-10.4-8.4c-3.5-2.7-7.2-5.3-10.7-8.1
	c-2.9-2.3-5.1-5.3-6.4-8.8c-2.2-6-2.8-12.2-0.9-18.3c1.5-5,2.3-10.1,3.2-15.2c1-5.7,1.5-11.6,2.7-17.2c4-19.5,8.1-38.9,12.2-58.3
	c0.3-1.2,0.7-2.5,1-3.7c0.4,0.6,0.4,1.1,0.3,1.5c-1.2,6.6-2.2,13.2-3.5,19.8c-2.8,14.2-5.8,28.3-8.5,42.5
	c-1.3,6.8-2.2,13.7-3.2,20.6c0,0.2,0.1,0.5,0.1,0.8c2.5-2.6,4.6-5.2,7.1-7.4c5.3-4.5,10.6-9,16.1-13.2c11.3-8.4,22.4-17.2,33.2-26.3
	c3.5-2.9,6.9-6,9.6-9.7c4.6-6.3,4.3-9.7-1-15.4c-1.8-2-3.8-4-5.1-6.3c-4.8-8.1-3.5-12.6,1.3-18.4c1.8-2.2,4.3-3.8,6.4-5.8
	c1.6-1.4,3.4-2.7,4.7-4.4c1.7-2.3,2.7-4.8,0.9-7.8c-2.6-4.3-3.8-9.3-4.8-14.2c-1.1-5.4-1.5-10.7-0.6-16.2c0.2-1.3,0.3-2.6,0.5-4
	c-4.8,1.9-9.4,3.6-14,5.5c-1,0.4-1.9,1.2-2.6,2.1c-1.4,1.7-1.2,3.4,0.2,4.9c0.7,0.7,1.4,1.3,2.1,2c4.4,4.1,2.1,9.1-1.4,11
	c-1.6,0.8-3.4,1.4-5.1,1.8c-10.1,2.3-20.4,2.5-30.7,2.4c-1.2,0-2.3-0.2-3.6-0.3c-0.3,1.3-0.5,2.5-0.9,3.6c-0.9,2.6-1.5,5.4-2.8,7.9
	c-3.5,6.9-12.2,10.4-19.7,5.3c-4.5-3-8.3-6.7-11.7-10.9c-2.5-3.1-4.8-6.3-7.3-9.5c-0.4-0.5-0.8-0.9-1.3-1.5c-2.3,3.4-4.9,6.1-8,8.4
	c-0.5,0.3-0.8,1-1,1.6c-1.3,4.3-2.7,8.5-3.9,12.8c-1.4,4.8-1.7,9.8-1.2,14.7c0.8,9.1,2.4,18,4.9,26.8c2.8,9.8,6,19.5,8.2,29.5
	c2.7,12.3,3.9,24.7,2.7,37.3c-1.1,11.5-3.5,22.7-7.6,33.5c-4.5,12-10.4,23.5-16.2,34.9c-12.9,25.1-26.4,49.9-38.7,75.3
	c-9.8,20.3-17.1,41.4-21.3,63.6c-2,10.6-3.5,21.2-4.3,32c-0.4,5.7-0.6,11.5,0.3,17.2C114.3,775.3,115,777.9,115.6,780.9z
	 M318.3,764.4c0.4-4.1,1.1-7.7,3.1-10.9c1.4-2.1,1.3-4-0.5-5.8c-0.2-0.2-0.3-0.4-0.4-0.6c-2.2-2.7-2.6-5.6-0.9-8.7
	c0.9-1.7,1.9-3.3,2.8-5c1.3-2.1,1.6-4.3,0.9-6.7c-0.7-2.4-1.4-4.7-2.1-7.1c-1.5-4.9-1.2-9.6,0.8-14.3c0.9-2,1.9-3.9,2.8-5.8
	c0.2-0.5,0.8-1.1,0.6-1.5c-0.5-1.9,0.3-3.6,0.2-5.4c-0.1-2.9-0.4-5.9-0.6-8.8c-0.3-4.1-1.1-8.3-1-12.4c0.1-8.7,0.5-17.4,1.1-26.1
	c0.9-13.9,0.4-27.7-2.4-41.4c-2.3-11.3-3.7-22.7-3.9-34.2c-0.2-7.4,0.1-14.8,0.5-22.2c0.3-5.3,0.8-10.7,1.7-15.9
	c1.2-7.3,2.6-14.6,4.1-21.9c1.1-5.6,0.7-11-2-16c-2.2-4.2-4.5-8.3-6.8-12.4c-5.5-9.6-10.4-19.4-15-29.4c-0.2-0.5-0.6-1-1-1.7
	c-2.9,5.7-7.3,9.8-11.9,13.7c-6.9,5.7-13.8,11.3-20.8,16.9c-1.3,1-2,2.1-2.1,3.8c-0.8,9.2-1.7,18.4-2.5,27.6
	c-0.8,9.9-0.5,19.8-0.1,29.7c0.3,7.5,1.7,14.9,0.7,22.4c-0.8,5.9,0.8,12-1.4,17.8c-0.1,0.3-0.1,0.6-0.1,1
	c-0.1,6.6-0.5,13.2-0.4,19.9c0.1,11.6,0.4,23.1,0.9,34.7c0.3,8.8-0.1,17.5-0.6,26.3c-0.4,6.7-1.4,13.4-1.1,20.2
	c0.3,7.3,0.9,14.5,1.8,21.7c1.3,10,2.2,20.1,2,30.3c-0.1,2.2-0.2,4.4,0.9,6.5c0.2,0.5,0.4,1.1,0.4,1.6c0,3.3,0.1,6.7,0,10
	c-0.1,2.3-1,4.3-2.6,6c-1.4,1.5-2.7,2.9-4.1,4.4c-0.4,0.4-0.7,0.9-1.2,1.5c1.7,0,3.1,0.1,4.5,0c5-0.3,10-0.9,15-0.9
	c11.1-0.2,22.2-0.1,33.3-0.3C313.6,765,315.9,764.6,318.3,764.4z M291.7,286.5c-0.2,0-0.4,0-0.5,0c-0.6,1.7-1.4,3.4-1.9,5.1
	c-3.2,10-4.4,20.1-2.4,30.5c0.9,4.7,2.5,9.2,3.9,13.8c1.1,3.5,2.8,6.8,5,9.8c1.8,2.4,3.7,4.8,5.4,7.3c0.8,1.2,1.5,2.6,1.9,4.1
	c0.5,1.6,0.2,2-1.6,2.4c-1.1,0.2-1.6,0.8-1.7,1.9c-0.1,1.5-0.4,3-0.5,4.5c-0.4,10.3,1.3,20.2,6.2,29.4c1.1,2.1,1.3,4.3,0.2,6.4
	c-0.5,1-0.6,2-0.3,3c1.7,6.6,3.3,13.3,5.9,19.7c2.2,5.5,4.5,11.1,6.1,16.8c2.7,9.2,6.1,18.1,10.4,26.7c2.5,4.8,5,9.6,7.3,14.5
	c2.4,5.2,4.5,10.6,5.1,16.4c1.2,10.4,0.2,20.7-3,30.7c-1.4,4.5-2.7,9-3.8,13.6c-1.8,7.7,0.4,14,7.3,18.1c4.3,2.6,8.9,4.8,13.7,7.4
	c-2.3-18.5-6-36.5-4.7-55c0.6,1.1,0.5,2.2,0.6,3.4c0.6,7.3,0.9,14.7,1.7,22c1.3,11,2.8,22,4.4,33c0.5,3.8-0.6,6.8-3.4,9.2
	c-2,1.7-4.1,3.3-6.2,4.9c-2.4,1.9-4.9,3.6-7.1,5.7c-4.6,4.5-4.5,8.6-1.3,14c1.1,1.9,2.9,3.4,4.5,5c1.5,1.4,3.2,2.7,4.7,4
	c4.7,4,7.9,8.9,10.2,14.6c0.2,0.5,0.4,0.9,0.9,1.7c0.4-1.8,1-3,1.1-4.4c0.2-3.7,0.5-7.5,0.2-11.2c-0.6-9-1.3-18-1.2-27
	c0.1-4.5-0.2-9.1,0.7-13.6c0.3,1.7,0.5,3.5,0.5,5.2c0.5,11.8,0.4,23.6,1.9,35.4c0.8,6.5,0.4,12.8-2.7,18.7c-1.3,2.4-3,4.7-4.7,6.9
	c-1.9,2.5-3.5,5.1-4.4,8.1c-0.8,2.5-0.7,4.9,0.2,7.3c1.7,4.5,3.9,8.5,7.2,12.1c7.3,8,16,14.2,26.1,18.1c6,2.3,12.1,4.4,18.2,6.7
	c3.7,1.4,7.1,3.3,10.1,5.8c0.4,0.3,0.8,0.6,1.5,1.1c-0.6-3.9-2-7.2-3.7-10.4c-1.6-3.1-3.4-6.2-4.9-9.3
	c-5.6-11.5-10.5-23.2-14.1-35.5c-3.5-11.8-7-23.5-9-35.6c0.7,1.7,1.4,3.4,1.9,5.1c2.2,7.3,4.2,14.7,6.4,22.1
	c5.4,18,12.2,35.4,21.4,51.9c1.1,1.9,2,4,2.7,6.1c1.3,3.4,2,6.9,1.6,10.6c-0.2,1.9-0.9,3.3-2.7,4.1c-2,0.9-3.9,1.9-5.8,2.8
	c-1.4,0.7-2.6,1.6-3.3,3c-0.7,1.5-0.6,2.2,1,2.8c2.8,1.2,5.6,2.5,8.4,3.4c12.1,3.8,23,9.7,33.6,16.4c5.5,3.5,11.1,6.9,16.6,10.4
	c1.1,0.7,2.3,1.4,3.4,2.2c2.7,1.8,4.8,4.2,6.1,7.2c0.2,0.4,0.4,0.7,0.7,1.2c1-1.8,1.1-3.5,0.5-5.1c-1.2-3.4-2.3-6.8-3.9-10
	c-4.6-9.2-10.1-17.9-16-26.4c-10.7-15.4-20.7-31.3-29.2-48c-6.2-12.4-12.3-24.9-18.3-37.4c-5.1-10.5-10.4-20.8-16.1-31
	c-5.3-9.3-10.3-18.7-15.5-28.1c-11.5-21.1-17.5-43.9-21.5-67.4c-1.6-9.3-2.7-18.6-4.6-27.9c-4.2-21-10.1-41.5-17.3-61.7
	c-4.3-12-8.7-24-12.9-36.1c-3.6-10.3-5.9-21-7.7-31.8c-1-6-1.8-12-2.7-18c-0.5-3.9-0.9-7.8-1.3-11.6c-0.3-2.6-0.8-5.1-1.2-7.6
	c-0.1-0.5-0.3-0.9-0.5-1.3c-1.7-3.6-3.7-7-6.3-10.1C296.6,295.4,293.1,291.7,291.7,286.5z M228.5,384.2c1.7,0,3.1-0.1,4.5,0
	c2.7,0.2,5.1,1.1,7.5,2.4c2.2,1.1,4.4,1.7,6.9,1.7c4.3,0,8.6-0.1,12.9-0.1c6.2-0.1,12.2-1,18.2-2.4c1.6-0.4,3.3-1.2,4.6-2.3
	c2-1.6,2.1-3.9,0.6-6c-0.6-0.8-1.3-1.4-2-2.1c-1.7-1.4-2.9-2.9-2.7-5.3c0.1-0.5-0.3-1.1-0.4-1.6c-0.3-1.6-0.8-3.1-1-4.7
	c-1.3-9.8-2.5-19.6-3.7-29.4c-0.5-4.3-1.3-8.5-0.9-12.8c1.3,7.5,2.7,15,3.8,22.6c1.1,7.6,2,15.3,3,22.9c0.2,0.1,0.3,0.1,0.5,0.2
	c2.1-2.8,5.3-3.6,8.4-4.8c4.2-1.6,8.4-3.4,12.8-5.2c-0.5-1-0.8-1.9-1.3-2.6c-1-1.5-2.1-3-3.3-4.4c-3.7-4.7-6.8-9.9-8.5-15.7
	c-1.5-5.3-3.5-10.5-3.9-16c-0.9-11.8,0.8-23.1,6.3-33.7c0.3-0.7,0.5-1.5,0.4-2.3c-1-9.7-5.1-17.5-13.4-22.9c-3-1.9-5.7-4.1-6.9-7.7
	c-2.4,0.3-4.1-1.2-5.7-2.6c-0.5,0.7-0.8,1.1-1.1,1.6c-1.9,2.5-4.4,2.3-5.8-0.5c-0.6-1.3-0.8-2.7-1.1-4.1c-0.2-1-0.3-2-1.3-2.7
	c-1.9-1.2-2.4-3.1-2.4-5.2c0-1,0-2,0-3.4c-0.5,1-0.9,1.6-1.2,2.2c-3,5.6-6.3,10.9-10.9,15.4c-6.6,6.5-13.1,13.1-19.9,19.4
	c-4.9,4.5-8.7,9.7-11.3,15.8c-2.6,6-5.1,12.1-7.6,18.1c-2.2,5.3-5.1,10.3-8.9,14.6c-5.1,5.8-10.1,11.7-15.3,17.5
	c-2.6,3-5.5,5.8-8.3,8.8c3,0.6,5.2,2.3,6.9,4.8c1.5,2.3,2.5,4.8,3,7.5c1.2,7.1,2.2,14.2,2.1,21.4c0,1.3,0.1,2.6,0.3,3.8
	c0.6,3.6,3.8,7,7.2,7.6c1.1,0.2,2.1,0.2,2.8-0.8c0.7-0.9,0.8-1.9,0.3-2.9c-0.3-0.6-0.7-1.2-1-1.9c-0.8-1.6-1.6-3.3-2.4-5
	c-1.3-3-0.6-5.8,1.3-8.3c1.5-1.9,3.1-3.7,4.7-5.4c7.7-8.2,13.4-17.4,15.9-28.5c0.1-0.5,0.3-1.1,0.5-1.6c3.3-11.2,6.3-22.6,10.3-33.6
	c0.6-1.6,1.4-3.2,2.1-4.8c0.3,0.6,0.2,1.1,0,1.5c-1.2,3.7-2.5,7.4-3.6,11.2c-2.9,10-5.7,20.1-8.4,30.2c-2.6,9.5-7.3,17.6-14,24.7
	c-1.9,2-3.8,4.1-5.6,6.2c-0.4,0.4-0.6,1-1,1.6c2.5,0.3,4.1,1.6,5.4,3.3c2.7,3.4,5.4,6.9,8.1,10.4c3.8,5,7.6,10.1,12.4,14.2
	c2,1.7,4.1,3.1,6.4,4.1c2.9,1.2,5.6,0.9,8.4-0.2c2.2-0.9,2.7-2.6,1.5-4.7c-0.6-1.1-1.4-2.2-2.2-3.1c-3.2-3.9-4.8-8.1-4.3-13.4
	c0.6-5.4,1.4-10.6,3-15.7c4-12.9,7.9-25.8,10.4-39c1.3-6.8,2.4-13.7,3.6-20.5c0.3-1.5,0.7-2.9,1.1-4.4c0.4,0.6,0.4,1,0.3,1.5
	c-0.8,5.8-1.6,11.7-2.5,17.5c-2.6,16.4-7.1,32.4-12.2,48.2C229.6,376.4,228.6,380.2,228.5,384.2z M357.7,768.4
	c1.9,0.6,3.5,1.2,5.2,1.7c5.9,2.1,11.7,4.2,17.6,6.1c5.1,1.6,10.5,2,15.9,1.6c10.3-0.9,20.5-2.8,30.6-5.4c6.1-1.6,12-3.8,18.1-5.4
	c3.1-0.9,6.5-1.8,9.6-1.6c5.1,0.3,9.8-1,14.6-2.2c2.8-0.7,3.7-3,2.4-5.6c-0.6-1.2-1.3-2.5-2.3-3.3c-1.8-1.6-3.8-3.1-5.9-4.5
	c-4.8-3.1-9.9-5.9-14.6-9.1c-8-5.5-16.6-9.9-25.3-14c-2.4-1.1-4.9-1.9-7.4-2.8c-3.4-1.3-6.9-2.5-10.3-3.8c-0.9-0.3-1.7-0.9-2.4-1.5
	c-1.1-0.9-1.4-2-1-3.4c0.8-2.4,2.4-3.9,4.5-5c1.6-0.8,3.4-1.5,5-2.4c2.2-1.2,2.7-3.2,1.1-5.1c-1.3-1.5-2.9-3.1-4.6-4.1
	c-3.6-2-7.4-3.8-11.2-5.3c-4.7-1.9-9.6-3.5-14.4-5.3c-8-2.9-14.9-7.5-21.2-13.2c-4.8-4.3-9-9-11.6-15c-0.1-0.3-0.3-0.6-0.5-0.8
	c-2.1-2.4-2.8-5.3-3.4-8.3c-0.1-0.7-0.3-1.5-0.5-2.2c-0.4,1.2-0.5,2.4-0.6,3.6c-1.1,8.7-2.2,17.4-3.2,26.1
	c-0.5,4.4-0.6,8.9-1.9,13.2c-0.1,0.5,0,1.1,0.1,1.6c0.2,1.1,0.4,2.2,0.5,3.2c0.1,1.3-0.1,2.5-0.1,3.8c0.1,3.3,0.4,6.5,0.4,9.8
	c0,7.3,0.6,14.5,2.6,21.5c1.4,4.9,3.6,9.4,6,13.8c1.3,2.5,3,4.8,3.8,7.4c0.7,2.1,1.7,3.7,2.9,5.4c0.7,1.1,1.5,2.1,2.3,3.1
	c1.5,1.8,1.2,3.7,0.2,5.6C358.3,767.2,358,767.8,357.7,768.4z M242.6,764.8c-0.2-0.4-0.3-0.6-0.5-0.8c-2.3-1.9-3-4.3-2.8-7.3
	c0.3-4.5,0.5-9.1,0.7-13.6c0-0.6,0.1-1.3,0.3-1.9c0.8-2.2,1.7-4.3,2.4-6.4c1.9-5.6,3.1-11.4,3.8-17.3c0.7-6,1.6-12,2.2-18
	c0.3-2.4,0.9-4.6,0.2-7.2c-0.6-2.6,0.2-5.5,0.5-8.3c0.1-0.8,0.5-1.7,0.3-2.5c-0.7-4.8-1.3-9.6-2.2-14.4c-1.8-9-3.2-18.1-3.7-27.2
	c-0.1-2-0.2-3.9-0.3-5.9c-0.5,0.5-0.7,1-0.8,1.5c-2.7,10.8-5.3,21.7-8.1,32.5c-2.6,10.1-5.2,20.2-6.1,30.7c-0.1,1.2-0.5,2.3-0.8,3.5
	c-1.2,3.8-3,7.2-5.2,10.5c-4.9,7.5-11.4,13.3-18.9,18c-14,8.6-28.6,16.3-43,24c-3.7,2-7.7,3.4-11.7,4.7c-4.6,1.5-9.2,3.2-13.5,5.5
	c-7.3,3.7-12.8,9.5-17.5,16c-1.5,2.1-1.1,3.5,1.2,4.8c0.6,0.3,1.2,0.5,1.8,0.7c4.1,1.4,8.3,1.7,12.5,1.5c5.8-0.3,11.6-1.4,17.2-2.8
	c8-2,16-4.5,24-6.4c13-3.1,26-5.9,39-8.7c8.1-1.7,16.2-3.7,24.5-4.5C239.7,765.4,241.1,765.1,242.6,764.8z M338.6,692.4
	c0.2-1.9,0.2-3.6,0.4-5.3c1.1-9.6,2.1-19.2,3.4-28.7c0.7-4.9,0.9-10,3.2-14.6c0.1-0.3,0.1-0.6,0.1-0.9c0.3-8.4,0.6-16.7,0.9-25.1
	c0-1.1-0.3-1.8-1.1-2.5c-1.8-1.5-3.6-3.1-5.4-4.7c-1.9-1.7-3.6-3.8-4.4-6.2c-1.1-3.2-1.8-6.4-2.6-9.7c-0.2-1-0.3-2.1-0.2-3.1
	c0.7-5.5,1.5-11.1,2.4-16.6c0.6-3.9,1.4-7.8,2.2-11.8c0.3-1.2,0-2.1-1-2.9c-3-2.5-4.8-5.8-5.2-9.7c-0.2-2.3-0.3-4.7,0.2-6.9
	c1.1-4.8,2.3-9.6,3.8-14.3c2.3-7.1,3.5-14.4,3.6-21.9c0.1-6.6-0.7-13.1-3.4-19.2c-1.8-4.2-3.7-8.3-5.8-12.4
	c-4.9-9.6-9.9-19.1-12.8-29.6c-1.9-6.9-4.2-13.7-6.9-20.4c-2.7-6.6-4.6-13.4-5.7-20.5c0-0.3-0.3-0.5-0.4-0.7
	c-2.9,2.3-5.7,4.6-8.4,6.9c-2.2,1.9-4,4.1-5.4,6.7c-1.2,2.2-1.4,4.5-0.7,6.9c0.8,2.8,2.1,5.4,4,7.6c1.5,1.8,3.1,3.4,4.6,5.2
	c1.9,2.1,3.3,4.6,3.2,7.5c-0.1,1.6,0.4,3,1,4.3c5,11,10.6,21.6,16.7,32c2.5,4.3,5,8.7,7.1,13.3c2,4.2,2.4,8.7,1.4,13.3
	c-1.1,5.1-2.4,10.1-3.3,15.2c-2.8,15.3-4.2,30.8-3.4,46.4c0.3,6.9,0.9,13.8,1.8,20.7c1.2,8.9,2.9,17.8,4.1,26.7
	c1.1,8,1,16.1,0.6,24.1c-0.4,8.5-1,17-1.3,25.6c-0.1,4.3,0.2,8.6,0.6,12.9c0.3,4.1,1.2,8.2,0.5,12.4c0,0.1,0.2,0.3,0.3,0.5
	C331.1,692.9,334.8,692.7,338.6,692.4z M302.1,246c0.1-0.1,0.3-0.3,0.4-0.4c0.3,0.2,0.7,0.3,1,0.6c4.1,4,9.1,6.7,14.3,9
	c2.3,1,4.5,2.1,6.6,3.3c3.5,1.9,5.2,4.8,5,8.8c-0.1,1.6,0,3.2,0,4.8c0,0.8,0.3,1.5,1,1.6c0.5,0.1,1.1-0.4,1.5-0.8
	c0.3-0.3,0.6-0.8,0.8-1.2c1-3,2.5-6,2.9-9.1c0.6-4.7,0.6-9.5,0.6-14.3c0-5.4-1.3-10.6-2.2-15.9c-1-5.8-1.5-11.6,0.8-17.2
	c0.8-2,1.9-3.8,3-5.9c-1.3-0.7-2.5-1.7-3.9-2.2c-2.9-1.1-5.9-2-8.9-2.9c-4.1-1.2-8.2-2-12.2-3.4c-3.3-1.1-6.5-2.7-8.8-5.5
	c-0.7-0.9-1.7-1.6-2.5-2.4c-1.5,0.8-2.9,1.4-4.1,2.2c-1.8,1.2-3.7,2.5-5.3,4c-0.8,0.7-1.5,1.9-1.4,2.9c0.1,2-0.1,3.8-1.5,5.4
	c2.1,1.9,2.8,4.2,2.8,6.8c4.6,2.2,8.4,5.3,11.6,9.2c3.4,4,6.7,8.1,10,12.2c0.6,0.7,1,1.5,1.5,2.3c-0.7,0-1-0.2-1.2-0.5
	c-3.6-4-7.2-7.9-10.7-11.9c-2.8-3.2-5.8-6.2-9.1-8.7c-0.7-0.5-1.4-0.9-2.1-1.4c-0.8,1.9-1.5,3.6-2.4,5.2c-0.5,1.1-0.5,2.1-0.2,3.2
	c1.4,4.6,0.3,7.8-3.6,10.6c-0.6,0.4-1.1,0.8-1.3,1c-0.2,2.4-0.5,4.5-0.7,6.6c5.6,6.9,10.4,14.5,13.3,23.2c-0.7-0.6-1.2-1.3-1.6-2
	c-3.5-5.6-6.9-11.3-10.4-16.9c-0.7-1.2-1.7-2.2-2.6-3.5c-2,1.9-4.2,2-6.6,1.9c-0.6,2.6-1.2,5.2-3.9,6.8c0.7,1,1.1,2,1.8,2.7
	c1.9,1.7,3.8,3.4,5.9,4.9c6.2,4.5,10.3,10.4,12.2,17.7c0.6,2.2,0.9,4.5,1.2,6.8c0.4,3.5,1.7,6.6,3.9,9.4c1,1.2,2,2.5,3,3.7
	c3.3,3.7,5.9,7.7,8,12.2c0.2,0.5,0.5,0.9,1,1.5c0.4-0.7,0.7-1,0.8-1.5c3.3-7.6,6.3-15.4,8.3-23.4c0.9-3.5,2.1-7,3.3-10.5
	c0.8-2.3,1.9-4.5,3.7-6.6c0.9,0.9,1.6,1.6,2.6,2.7c0-1.8,0-3.2,0-4.5c0.1-2.8-1.2-4.8-3.5-6.1c-2.2-1.3-4.5-2.3-6.8-3.5
	c-3.2-1.7-6.5-3.4-9.6-5.4C305.5,250.2,303.6,248.2,302.1,246z M289.6,200.4c2.5-3.5,6.1-5.5,9.8-7.5c1.2-0.7,2.4-1.7,3.2-2.8
	c3.3-4.6,6.5-9.3,9.6-14c1.3-2,2.3-4.2,2.6-6.8c-3.4-0.2-6.4,1.1-9.6,1.7c2.8-2.4,6-3.1,9.8-2.7c0-1.4,0-2.6,0-3.9
	c0-1-0.4-1.8-1.3-2.4c-4-2.7-5.7-6.8-6.8-11.2c-1.9-7.7-1.3-15.4,0.1-23c0.1-0.7,0.2-1.5,0.4-2.7c-1.4,1.4-2.3,2.3-3.3,3.3
	c-1.7,1.6-3.6,2.8-6,3.2c-4.9,0.9-9.1-0.6-13-3.4c-0.6-0.4-1.2-0.9-2.1-1.6c0,1,0,1.5,0,2.1c0.1,4-0.5,7.9-1.1,11.9
	c-0.8,5.8-3.3,10.6-7.5,14.6c-2.6,2.5-5.6,4.5-8.9,6c-1.7,0.8-3.4,1.7-5.2,2.3c-2.1,0.8-3.2,2.2-3.6,4.3c-0.2,1.2-0.5,2.4-0.6,3.5
	c-0.5,4.4-0.9,8.7-1.3,13.1c-0.3,2.7-0.9,5.3-2.1,7.8c-0.3,0.6-0.5,1.2-0.8,1.9c0.1,0.1,0.2,0.2,0.4,0.3c2.2-1.6,4.5-3.1,6.7-4.9
	c2.6-2,5.3-3.8,8.3-5.1c2.2-1,4.4-1.1,6.4,0.2c3.2,2,6.4,4,9.3,6.3c2.1,1.6,3.8,3.8,4,6.6C287.3,199,288,199.8,289.6,200.4z
	 M259.3,161.7c0.1,0.1,0.3,0.2,0.4,0.4c1.1-0.5,2.2-0.9,3.2-1.5c2.5-1.4,5.2-2.6,7.5-4.2c5.4-3.8,9-9,9.8-15.7
	c0.5-4.4,1.2-8.8,1.9-13.2c0.2-1.1,0.1-1.9-0.7-2.8c-4-4.3-6.3-9.5-8.2-15c-0.3-0.9-0.6-1.7-1-2.5c-0.1,0-0.2,0.1-0.3,0.1
	c-0.1,1.1-0.1,2.2-0.2,3.3c-0.6-1.2-0.9-2.5-1.2-3.8c-0.5-2.9-0.1-5.7,0.6-8.5c2-8.1,4-16.3,6.3-24.3c0.9-3.1,0.8-6,0.1-8.9
	c-0.4-1.7-0.2-3.1,0.3-4.6c0.3-0.9,0.6-1.9,1-3.1c-1.4,0.4-2.4,0.8-3.4,1c-5.9,1.5-10,5-12.7,10.4c-4.2,8.4-5.4,17.3-3.7,26.5
	c1.1,5.7,2.2,11.4,3.4,17.1c1.9,9.4,0.7,18.4-4.1,26.8c-2.8,5-6.2,9.6-10.2,13.9c-4.3,4.6-7,10.1-8.1,16.3
	c-0.9,4.9-1.7,9.9-2.3,14.9c-0.9,7.6-2.3,15-5.8,21.9c-0.7,1.4-1.2,2.8-1.7,4.2c-0.3,0.7-0.4,1.5-0.7,2.4c0.5-0.1,0.8-0.1,0.9-0.2
	c6.9-4.2,13-9.2,17.9-15.7c2.7-3.6,4.4-7.7,4.8-12.3c0.4-4.3,0.9-8.6,1.3-12.9c0.4-4.2,1.6-8,4.3-11.2c2.6-3.2,5.4-6.1,8.1-9.2
	c0.3-0.3,0.8-0.6,1.1-0.8c0.1,0.1,0.1,0.2,0.2,0.3C265.4,154.2,262.4,157.9,259.3,161.7z M228.3,688.4c0.2-0.8,0.4-1.3,0.5-1.8
	c1.1-4.8,2-9.7,3.2-14.5c2.2-8.9,4.6-17.7,6.7-26.7c2.1-9.2,4-18.5,5.7-27.9c1.1-6.2,1.7-12.5,3.6-18.5c0.1-0.2,0-0.4-0.1-0.7
	c-0.3,0.1-0.5,0.1-0.7,0.3c-7.1,5.6-15.1,9.5-23.2,13.4c-5.7,2.8-11.4,5.7-17.1,8.6c-3.3,1.7-6.3,4-9,6.7
	c-5.5,5.8-6.3,13.4-1.7,19.9c1.7,2.5,3.9,4.7,6,6.8c3.8,3.7,7.7,7.2,11.6,10.7c7,6.3,12,13.8,13.9,23.2
	C228,687.9,228,688,228.3,688.4z M356.7,413.5c0-0.6,0.1-0.9,0-1.1c-1.3-4-1.6-8.1-1.5-12.3c0-0.6-0.2-1.3-0.2-1.9
	c0-2.9-0.4-6,0.1-8.8c0.7-4.3,0.1-8.2-1.9-12c-1.4-2.7-2.8-5.4-4.1-8.1c-0.9-2-1.5-4-2.4-6c-1.2-2.7-2.1-5.5-2-8.5
	c0-1.2-0.1-2.4-0.2-3.6c-0.4-3.4-1-6.8-1.2-10.2c-0.4-6.8-0.8-13.5-0.9-20.3c-0.1-5.4,0.3-10.8,0.6-16.3c0.3-6.5,0.9-13,1.1-19.6
	c0.1-4.2-0.3-8.5-0.2-12.7c0.1-14.8,0.2-29.5,0.3-44.3c0-1.7,0-3.5,0-5.1c-2.9-1.3-5.7-2.4-8.6-3.7c-0.1,0.5-0.4,1.1-0.4,1.6
	c0,2.5-0.2,5.1,0.2,7.6c0.5,4.2,1.5,8.3,2.1,12.5c0.9,6.2,0.7,12.4,0.4,18.6c-0.2,4.9-1.6,9.6-4,13.9c-1.5,2.8-2.8,3-5.3,1.2
	c-0.2-0.1-0.4-0.1-0.8-0.2c-0.3,2.9-0.6,5.6-1,8.4c-1,7.4-0.7,14.8,0.4,22.2c2.5,16.4,5.7,32.7,6.9,49.2c0.3,3.4,0.3,6.8,0.3,10.3
	c0,4-0.2,8-0.2,12c0,1.8,0.4,3.4,1.9,4.8c3.1,2.9,4.5,6.5,4.7,10.6c0.1,1,0.2,2.1,0.5,3.1c0.4,1.4,1.3,2.1,2.8,2
	c0.3-6-0.2-12,1.1-17.9c0.2,0.8,0.2,1.6,0.4,2.3c0.1,0.7,0.4,1.4,0.8,1.9c1.4,1.5,2.2,3.4,2.5,5.3c0.6,3.2,1,6.4,1.6,9.7
	c0.2,1.1,0.4,2.2,0.7,3.3c1,2.9,2.1,5.9,3.1,8.8C354.8,411.4,355.3,412.5,356.7,413.5z M261.8,567.8c0.5-5.4,0.9-10.7,0.2-15.9
	c-0.5-3.6-0.9-7.3-1.1-10.9c-0.7-12.4-0.6-24.9,0.6-37.3c0.5-5.6,1.4-11.2,2.2-16.8c0.1-0.8,0.1-1.5,0.2-2.6c-0.9,0.6-1.5,0.9-2,1.3
	c-2.6,1.9-5.2,3.7-7.7,5.7c-5.2,4.2-10.5,8.3-15.5,12.8c-2.7,2.4-5,5.3-7.2,8.2c-1.2,1.5-1.9,3.5-2.6,5.3c-0.7,1.9-1,3.9-1.4,5.8
	c-0.3,1.3-0.5,2.7-0.5,4c0.2,7.6,2.8,14,9.1,18.6c3.3,2.4,6.6,4.8,9.9,7.1c5.8,4.1,11.3,8.4,15.2,14.4
	C261.3,567.6,261.5,567.6,261.8,567.8z M279.2,71.6c-0.2,0.6-0.4,0.8-0.4,1.1c-1,4.1-2,8.2-2.9,12.3c-1.2,5.2-2.5,10.4-3.7,15.6
	c-0.2,1-0.2,2.3,0.2,3.3c2.8,7.5,5.8,14.9,11.4,20.8c2,2.2,4.3,3.8,7,4.8c4.9,1.7,9.5,1,13.3-2.7c1.7-1.6,3.3-3.5,4.7-5.4
	c4-5.7,5.8-12.3,7.3-19.1c0.4-2-0.1-3.6-1.4-5c-1-1.1-2.1-2.3-3.4-3c-3.2-1.7-6.4-3.1-9.7-4.6c-3.1-1.4-6.2-2.4-9.2-3.9
	c-4.5-2.3-8.2-5.5-10.7-10C280.9,74.5,280.1,73.2,279.2,71.6z M260.8,584.6c-0.4,0.5-0.7,0.8-0.9,1.1c-2.4,2.7-4.7,5.7-7.4,8.2
	c-2.1,1.9-3.2,4-3.6,6.7c-0.9,6.2-1.8,12.5-2.9,18.7c-1,5.4-1.6,10.9-0.9,16.4c0.9,7.3,1.6,14.6,2.7,21.8c1.1,8,3.4,15.8,4,23.8
	c0.1,1.6,1.2,2.6,2.9,2.5c1.5,0,3-0.4,4.3-0.6c0.2-0.4,0.3-0.5,0.3-0.7c0.5-7.8,1.1-15.6,1.5-23.4c0.3-5.5,0.6-11,0.5-16.5
	c-0.4-13.3-1.1-26.6-0.9-40C260.5,596.8,260.6,590.9,260.8,584.6z M317.3,97.1c-0.1,0.2,0.1-0.1,0.1-0.4c0.2-4.5,0.7-9.1,0.6-13.6
	c-0.1-6.9-1.3-13.6-4.4-19.9c-2.2-4.5-5.5-8-10.3-9.8c-3.7-1.3-7.6-2.1-11.5-1.8c-5.5,0.3-10,2.3-12.3,7.9c-1.2,3-1.4,5.7-0.1,8.9
	c3,7.5,7.7,13.4,15.1,16.7c3.1,1.4,6.2,2.5,9.3,3.7c3.4,1.3,6.7,3,9.6,5.2C314.8,95.1,316.1,96.1,317.3,97.1z M254.6,237.7
	c0,1.7-0.2,3.6,1.5,4.8c1.3,0.9,1.8,2.1,2,3.6c0.2,1.5,0.7,3.1,1.5,4.5c0.8,1.4,2,1.4,3.1,0.2c0.3-0.3,0.5-0.6,0.7-1
	c1.4-2,1.5-2.1,3.4-0.4c0.2,0.2,0.4,0.3,0.5,0.5c1.9,1.5,4.1,1.3,5.4-0.7c0.6-1,1.1-2.1,1.4-3.3c0.7-2.3,0.6-2.3,3-2.3
	c3.7,0,6.2-2.4,5.8-6c-0.2-2,0.2-3.4,2-4.3c0.5-0.2,0.9-0.7,1.3-1.1c2-2,3.2-4.3,2.1-7.1c-0.9-2.3-0.7-4.3,0.6-6.4
	c0.3-0.5,0.5-1,0.7-1.5c1.2-3.1,1.6-6-1.3-8.5c-0.7-0.6-0.7-1.4-0.2-2.1c0.3-0.4,0.6-0.8,0.8-1.2c0.8-1.5,0.7-2.4-0.4-3.7
	c-0.3-0.3-0.7-0.6-1.1-0.9c-0.7-0.5-1.6-0.9-0.9-2.1c0.2-0.2-0.1-0.8-0.2-1.1c-0.8-2-1.8-3.9-3.5-5.3c-3-2.5-6.4-4.5-9.9-6.3
	c-1.6-0.8-3.2-0.8-4.8-0.1c-1.7,0.8-3.5,1.6-5.1,2.7c-3.3,2.1-6.4,4.4-9.6,6.7c-1.5,1-2.4,2.5-2.2,4.3c0.1,1.6,0.5,3.2,1.1,4.6
	c1.1,2.7,1.4,5.3,0.2,8.1c-0.8,1.7-0.7,3.4,0.9,4.8c1.4,1.3,1.4,2.7,0.6,4.3c-0.7,1.3-1.3,2.7-1.9,4.1c-0.6,1.4-0.5,2.9,0.6,3.8
	c2.4,1.8,2.5,4,1.9,6.6C254.6,236.5,254.7,237,254.6,237.7z M253.7,232.2c-0.1-0.2-0.1-0.3-0.2-0.4c-0.3-0.3-0.5-0.6-0.8-0.9
	c-2.2-1.9-2.4-4.2-1.3-6.7c0.5-1.1,1-2.2,1.6-3.2c0.6-1.2,0.6-2.3-0.5-3.2c-1.9-1.7-2.2-3.7-1.2-5.8c1.2-2.5,0.8-4.8-0.2-7.1
	c-0.9-2.1-1.4-4.2-1.2-6.5c0-0.2-0.2-0.3-0.3-0.5c-2,2.1-3.9,4.3-6,6.2c-1.4,1.3-2.2,2.7-2.4,4.5c-0.3,3.6-0.9,7.1-0.9,10.7
	c-0.1,5.7,0.3,11.5,0.2,17.2c0,4.2,1.5,8,2,12.2C245.1,246.5,249.4,240,253.7,232.2z M330.4,701.8c0.4,1.2,0.6,1.9,0.9,2.7
	c1.8,5.2,2.2,10.6,0.4,15.8c-2,5.9-1.6,4.4-0.3,10.4c0.4,1.9,0.9,3.9,1.7,5.7c1.6,3.2,3.4,6.3,5.2,9.4c1,1.7,2.3,3.3,3.7,4.6
	c2.4,2.3,5.4,3.3,8.9,2.1c-0.2-0.5-0.4-1-0.6-1.4c-1.6-3.1-3.3-6.2-4.9-9.3c-2.1-4.1-4-8.4-4.8-13c-1.4-8-2-16.1-1.2-24.3
	c0.1-0.9,0-1.9,0-2.8C336.3,701.8,333.5,701.8,330.4,701.8z M241.9,743.6c-0.2,5.2-0.4,9.7-0.7,14.2c-0.1,2,0.7,3.5,2.2,4.8
	c1.7,1.3,3.4,2.7,5.1,4c2.6,2.1,4.1,2.1,6.5-0.2c2.4-2.3,4.9-4.6,7-7.1c0.9-1.1,1.7-2.6,1.8-4c0.4-2.8,0.3-5.7,0.4-8.6
	c0-0.5-0.2-1-0.3-1.9C256.4,749.5,249.1,750.3,241.9,743.6z M339.2,562.8c-0.1,0.2-0.2,0.4-0.2,0.6c-1.2,7.9-2.5,15.9-3.7,23.8
	c-0.3,2.3-0.3,4.6-0.4,6.9c0,0.4,0.3,0.7,0.6,1.5c1.8-4.1,4.8-6.6,7.9-8.9c2.4-1.8,4.8-3.4,7.1-5.3c1.4-1.2,2.7-2.5,3.7-4
	c1.5-2.2,1.3-4.6-0.6-6.6c-0.9-0.9-1.9-1.8-3-2.4C346.7,566.5,342.9,564.7,339.2,562.8z M256.4,694.4c0,0.8,0,1.3,0,1.9
	c0.5,13.1,0.2,26.1-2.4,39c-0.7,3.5-0.7,7.2-1,11c4,0,7.1-1.6,9.9-3.4c0.8-16.7-1-32.9-3.3-49.3
	C258.4,693.8,257.5,694.1,256.4,694.4z M250.8,694.5c-0.8,8.3-1.5,16.3-2.4,24.3c-0.9,8.1-3.4,15.8-5.9,23.6
	c2.8,1.9,5.4,3.6,8.7,4.1c0.1-1.1,0.1-1.9,0.2-2.7c0.4-3.9,0.8-7.8,1.3-11.6c1.1-7.3,2.2-14.7,2-22.1c-0.1-4.5,0.3-9.1,0.4-13.6
	c0-0.6,0-1.2,0-2C253.7,694.5,252.3,694.5,250.8,694.5z M335.2,755.6c0,2.6,0,5.2,0,7.8c0,1.4,0.1,2.9,0.4,4.3
	c0.1,0.7,0.6,1.6,1.2,1.9c3.6,1.8,7.3,3.5,11,5.1c1,0.5,2,0.2,2.8-0.7c1.5-1.7,3.1-3.4,4.7-5.1c0.3-0.3,0.4-0.8,0.8-1.5
	c-4.4,0-8.4-0.9-11.6-3.5C341.2,761.3,338.3,758.4,335.2,755.6z M347.6,650.1c0.2,0,0.4,0.1,0.6,0.1c0.2-0.6,0.5-1.3,0.7-1.9
	c0.9-3,2.4-5.7,4.4-8.1c0.7-0.8,1.3-1.6,2-2.4c1.9-2.3,2.3-4.8,1.2-7.6c-1.6-4.1-4-7.8-6.9-11.1c-0.3-0.4-0.8-0.7-1.5-1.3
	C348.3,628.8,347.4,639.5,347.6,650.1z M323.2,768.9c0.2-0.6,0.4-1.2,0.4-1.7c0.1-3.9,1.3-7.4,2.9-11c1.5-3.4,1.6-7-0.1-10.4
	c-1-2-1.4-4-1.4-6.2c0-2.3,0.5-4.4,1.4-6.5c1.1-2.6,1.5-5.2,0.6-7.9c-0.6-1.7-0.9-3.5-1.5-5.3c-0.8-2.6-1.7-5.2-2.6-7.8
	c-0.8,2.3-0.6,4.4,0,6.5c0.6,2.1,1.3,4.3,2,6.4c1.2,3.8,0.8,7.3-1.5,10.7c-1,1.5-1.8,3.2-2.6,4.9c-0.7,1.6-0.4,3.1,0.5,4.6
	c0.4,0.6,0.8,1.2,1.3,1.7c2.1,2.3,2.3,4.7,0.6,7.4c-2.4,3.9-3.1,8.1-2.9,12.6C320.5,769.1,320.6,769.2,323.2,768.9z M334.1,742.1
	c-0.2,0-0.3,0-0.5,0.1c0.4,2.9,0.5,5.9,1.1,8.7c0.5,1.9,1.3,3.9,3.2,5.1c0.7,0.4,1.2,1.1,1.8,1.6c2.5,2.2,4.9,4.5,8,5.9
	c2.9,1.3,6,1.9,9.2,1.5c0.4-1.9,0.4-2-0.3-2.9c-1.7-2.4-3.5-4.9-5.3-7.3c-5,0.8-8-0.2-11.2-3.6c-1.1-1.2-2.1-2.6-3-4
	C336,745.6,335.1,743.8,334.1,742.1z M239.1,234.3c0-3.6,0-6.6,0-9.6c0.1-2.9,0.1-5.9,0.4-8.8c0.2-2.9,0.7-5.8,1.1-8.7
	c-3.4,2.3-6.7,4.5-10.1,6.7c-0.9,0.6-1.2,1.3-0.9,2.2c0.5,1.9,0.9,3.9,1.9,5.6C233.7,225.9,236.3,229.9,239.1,234.3z M308.4,129.2
	c4.6-4.4,9.3-8.1,12.7-12.9c-0.7-0.9-1.3-1.7-1.9-2.4c1.7,0.1,2.5,1.6,4.3,1.6c-1.8-2.6-2.7-5.4-3.2-8.2c-0.5-2.8-0.8-5.6-1.2-8.5
	c-0.1,0-0.1,0-0.2,0c-0.4,2.5-0.7,4.9-1.1,7.5c-0.4-0.4-0.6-0.5-0.8-0.7c-0.2,0.2-0.4,0.3-0.4,0.5c-1.4,5.4-3.7,10.5-6.5,15.4
	C309,123.6,308.6,126.2,308.4,129.2z M329.2,730.7c-0.6,1.8-1.5,3.5-1.9,5.3c-0.7,3-0.9,5.9,0.7,8.8c1.2,2.1,1.3,4.4,1.2,6.7
	c-0.1,2.8-0.8,5.5-2.2,8c-0.7,1.3-1.4,2.7-0.9,4.5c2.4-0.2,4.7-0.3,7.2-0.5C333.1,752.3,331.9,741.4,329.2,730.7z M242.3,389.9
	c-1.7-0.8-3.2-1.7-4.9-2.2c-1.8-0.6-3.7-1.1-5.5-1.3c-2.7-0.3-3.1,0.3-2.7,2.9c0.4,2.5,1.3,4.7,2.8,6.8c1.7,2.3,3.3,4.7,5,7.1
	C239,401,241.6,394.8,242.3,389.9z M179.4,368.6c-0.3-4.3-0.5-8.7-2.1-12.7c-0.7-1.9-2-3.6-3.2-5.3c-0.7-0.9-1.8-1.5-2.9-2.1
	c-0.9-0.5-2.1-0.7-2.9,0.1c-0.9,0.9-1.2,2.1-0.8,3.3c0.1,0.4,0.4,0.7,0.5,1.1c0.7,1.3,1.3,2.5,2,3.8
	C172.4,361.3,175.3,365.4,179.4,368.6z M326.5,700.1c-0.9,2-1.9,4.1-2.7,6.3c-0.2,0.5,0,1.3,0.2,1.8c1.3,4.5,2.7,9,4,13.5
	c0.1,0.5,0.4,0.9,0.8,1.5c2.3-5.6,2.8-10.9,1.4-16.4C329.5,704.3,329.8,701.3,326.5,700.1z M251.6,684.5c-1,2.3-1.1,4.3-1.1,6.2
	c0,1.7,0.3,2,2,1.9c2.3-0.1,4.6-0.4,7-0.5c0.2-2.4,0.1-4.7,0-7.2C256.6,685.4,254.1,686.2,251.6,684.5z M199.3,383.7
	c-1.8-2-3.3-3.9-5-5.7c-0.9-0.9-1.9-1.9-3.3-1.1c-1.4,0.8-0.8,2.2-0.3,3.2c1.3,3.1,2.7,6.2,4.3,9.7
	C196.6,387.5,197.9,385.7,199.3,383.7z M327.1,694.8c0.2,3.3,1.1,4.7,3.6,5c2.5,0.3,5,0.1,7.7,0.1c0.3-2,0.7-3.7,0-5.6
	C334.5,694.5,330.9,694.6,327.1,694.8z M343.2,220.3c-0.6-4.6-2-7.4-4.6-9.7c-1.2,2-2.1,4.1-2.6,6.6
	C338.3,218.2,340.6,219.1,343.2,220.3z"/>
<path class="st0" d="M115.6,780.9c-0.6-3-1.3-5.6-1.7-8.1c-1-5.7-0.8-11.5-0.3-17.2c0.8-10.7,2.3-21.4,4.3-32
	c4.1-22.2,11.4-43.3,21.3-63.6c12.3-25.4,25.8-50.2,38.7-75.3c5.9-11.4,11.7-22.9,16.2-34.9c4.1-10.8,6.5-22,7.6-33.5
	c1.2-12.6,0-25-2.7-37.3c-2.2-10-5.3-19.7-8.2-29.5c-2.5-8.8-4.1-17.7-4.9-26.8c-0.5-4.9-0.2-9.9,1.2-14.7c1.2-4.3,2.6-8.6,3.9-12.8
	c0.2-0.6,0.5-1.2,1-1.6c3.1-2.3,5.8-5,8-8.4c0.5,0.6,0.9,1,1.3,1.5c2.4,3.2,4.8,6.4,7.3,9.5c3.3,4.2,7.2,7.9,11.7,10.9
	c7.5,5.1,16.2,1.6,19.7-5.3c1.3-2.4,1.9-5.2,2.8-7.9c0.4-1.1,0.6-2.3,0.9-3.6c1.3,0.1,2.5,0.3,3.6,0.3c10.3,0.1,20.6,0,30.7-2.4
	c1.8-0.4,3.5-1,5.1-1.8c3.6-1.9,5.8-6.8,1.4-11c-0.7-0.7-1.4-1.3-2.1-2c-1.5-1.6-1.6-3.3-0.2-4.9c0.7-0.8,1.6-1.7,2.6-2.1
	c4.6-1.9,9.2-3.6,14-5.5c-0.2,1.4-0.2,2.7-0.5,4c-0.9,5.4-0.5,10.8,0.6,16.2c1,4.9,2.1,9.9,4.8,14.2c1.8,3,0.8,5.5-0.9,7.8
	c-1.3,1.7-3.1,3-4.7,4.4c-2.1,1.9-4.5,3.6-6.4,5.8c-4.9,5.7-6.1,10.2-1.3,18.4c1.4,2.3,3.3,4.3,5.1,6.3c5.3,5.7,5.6,9.1,1,15.4
	c-2.7,3.7-6.1,6.7-9.6,9.7c-10.8,9.1-21.9,17.9-33.2,26.3c-5.6,4.1-10.9,8.6-16.1,13.2c-2.5,2.2-4.6,4.8-7.1,7.4
	c0-0.3-0.1-0.6-0.1-0.8c1.1-6.9,1.9-13.7,3.2-20.6c2.7-14.2,5.7-28.3,8.5-42.5c1.3-6.6,2.4-13.2,3.5-19.8c0.1-0.5,0.1-0.9-0.3-1.5
	c-0.3,1.2-0.7,2.4-1,3.7c-4.1,19.4-8.2,38.9-12.2,58.3c-1.2,5.7-1.7,11.5-2.7,17.2c-0.9,5.1-1.6,10.2-3.2,15.2
	c-1.9,6.2-1.3,12.3,0.9,18.3c1.3,3.5,3.5,6.5,6.4,8.8c3.5,2.8,7.2,5.3,10.7,8.1c3.5,2.7,7.1,5.5,10.4,8.4c1.6,1.4,2.9,3.2,4.1,4.9
	c3.7,5.4,3.8,10.7-0.2,16c-2.7,3.6-5.7,6.9-8.9,10c-4.6,4.6-10.1,8-15.9,11c-5,2.6-10.1,5.1-15.2,7.6c-7.6,3.8-15.3,7.2-21.9,12.9
	c0.4-2,0.7-3.9,1.2-5.9c2.7-10.8,5.4-21.5,8.1-32.2c2.9-11.6,5.8-23.2,8.6-34.8c0.4-1.5,0.5-3,0.5-4.5c-0.5,1.6-1.2,3.2-1.6,4.8
	c-5.1,18.9-10.1,37.7-15.1,56.6c-1.7,6.4-3,12.9-4.5,19.3c-0.2,1-0.6,2-1,2.9c-2.4,5.7-1.9,11.1,1.3,16.2c2,3.1,4.6,5.7,7.3,8.2
	c4.2,3.9,8.3,7.7,12.5,11.5c7.4,6.7,11.4,15.3,12.8,25.1c0.6,4,0,7.9-1.6,11.7c-3.8,8.7-9.5,15.9-17.3,21.3
	c-5.9,4.1-12.2,7.9-18.5,11.5c-8.1,4.7-16.4,9-24.5,13.5c-5.9,3.3-12.2,5.9-18.6,8.1c-2,0.7-3.9,1.4-5.8,2.2
	c-9.7,3.7-17.1,10.3-23.3,18.5C116.8,779.7,116.4,780.1,115.6,780.9z"/>
<path class="st0" d="M318.3,764.4c-2.4,0.2-4.7,0.6-7,0.6c-11.1,0.1-22.2,0.1-33.3,0.3c-5,0.1-10,0.6-15,0.9c-1.4,0.1-2.9,0-4.5,0
	c0.4-0.6,0.8-1,1.2-1.5c1.3-1.5,2.7-2.9,4.1-4.4c1.6-1.7,2.5-3.7,2.6-6c0.1-3.3,0-6.7,0-10c0-0.5-0.1-1.1-0.4-1.6
	c-1.1-2.1-1-4.3-0.9-6.5c0.2-10.2-0.6-20.3-2-30.3c-1-7.2-1.6-14.4-1.8-21.7c-0.3-6.8,0.7-13.5,1.1-20.2c0.6-8.8,0.9-17.5,0.6-26.3
	c-0.4-11.6-0.7-23.1-0.9-34.7c-0.1-6.6,0.2-13.2,0.4-19.9c0-0.3,0-0.7,0.1-1c2.2-5.8,0.6-11.9,1.4-17.8c1-7.5-0.4-15-0.7-22.4
	c-0.4-9.9-0.7-19.8,0.1-29.7c0.7-9.2,1.7-18.4,2.5-27.6c0.1-1.7,0.8-2.7,2.1-3.8c7-5.6,13.9-11.2,20.8-16.9c4.6-3.8,9-7.9,11.9-13.7
	c0.4,0.7,0.7,1.2,1,1.7c4.6,10,9.6,19.8,15,29.4c2.3,4.1,4.6,8.2,6.8,12.4c2.7,5.1,3.2,10.4,2,16c-1.5,7.3-2.9,14.5-4.1,21.9
	c-0.8,5.3-1.4,10.6-1.7,15.9c-0.4,7.4-0.6,14.8-0.5,22.2c0.2,11.5,1.7,22.9,3.9,34.2c2.7,13.7,3.2,27.5,2.4,41.4
	c-0.5,8.7-0.9,17.4-1.1,26.1c-0.1,4.1,0.7,8.3,1,12.4c0.2,2.9,0.6,5.9,0.6,8.8c0,1.8-0.8,3.5-0.2,5.4c0.1,0.4-0.4,1-0.6,1.5
	c-0.9,1.9-2,3.8-2.8,5.8c-2,4.6-2.3,9.4-0.8,14.3c0.7,2.4,1.4,4.7,2.1,7.1c0.7,2.4,0.3,4.6-0.9,6.7c-1,1.6-1.9,3.3-2.8,5
	c-1.7,3.1-1.3,6,0.9,8.7c0.2,0.2,0.3,0.4,0.4,0.6c1.8,1.8,1.9,3.7,0.5,5.8C319.4,756.7,318.7,760.3,318.3,764.4z"/>
<path class="st0" d="M291.7,286.5c1.4,5.1,4.9,8.9,8.2,12.7c2.6,3.1,4.6,6.5,6.3,10.1c0.2,0.4,0.4,0.9,0.5,1.3
	c0.4,2.5,0.9,5.1,1.2,7.6c0.5,3.9,0.8,7.8,1.3,11.6c0.8,6,1.7,12,2.7,18c1.7,10.8,4.1,21.5,7.7,31.8c4.2,12,8.6,24,12.9,36.1
	c7.2,20.2,13,40.7,17.3,61.7c1.8,9.2,3,18.6,4.6,27.9c4,23.5,10,46.3,21.5,67.4c5.1,9.4,10.2,18.8,15.5,28.1
	c5.7,10.1,11.1,20.5,16.1,31c6,12.5,12.1,25,18.3,37.4c8.4,16.8,18.4,32.6,29.2,48c5.9,8.5,11.4,17.2,16,26.4
	c1.6,3.2,2.7,6.6,3.9,10c0.5,1.6,0.5,3.3-0.5,5.1c-0.3-0.5-0.6-0.9-0.7-1.2c-1.3-3-3.4-5.4-6.1-7.2c-1.1-0.8-2.3-1.4-3.4-2.2
	c-5.5-3.5-11.1-6.9-16.6-10.4c-10.6-6.7-21.6-12.7-33.6-16.4c-2.9-0.9-5.7-2.1-8.4-3.4c-1.6-0.7-1.7-1.3-1-2.8
	c0.7-1.4,1.8-2.4,3.3-3c2-0.9,3.9-1.9,5.8-2.8c1.8-0.8,2.6-2.3,2.7-4.1c0.4-3.7-0.4-7.2-1.6-10.6c-0.8-2.1-1.7-4.2-2.7-6.1
	c-9.2-16.4-16-33.9-21.4-51.9c-2.2-7.3-4.2-14.7-6.4-22.1c-0.5-1.7-1.2-3.4-1.9-5.1c1.9,12.2,5.5,23.9,9,35.6
	c3.7,12.3,8.5,24.1,14.1,35.5c1.5,3.1,3.3,6.2,4.9,9.3c1.7,3.2,3,6.5,3.7,10.4c-0.7-0.5-1.1-0.7-1.5-1.1c-3-2.6-6.5-4.4-10.1-5.8
	c-6-2.3-12.1-4.4-18.2-6.7c-10.2-3.9-18.8-10.1-26.1-18.1c-3.2-3.5-5.5-7.6-7.2-12.1c-0.9-2.4-1-4.8-0.2-7.3c0.9-3,2.5-5.7,4.4-8.1
	c1.7-2.2,3.4-4.4,4.7-6.9c3.1-5.9,3.5-12.2,2.7-18.7c-1.5-11.7-1.4-23.6-1.9-35.4c-0.1-1.7-0.3-3.5-0.5-5.2c-1,4.5-0.7,9-0.7,13.6
	c-0.2,9,0.5,18,1.2,27c0.3,3.7,0,7.5-0.2,11.2c-0.1,1.3-0.6,2.6-1.1,4.4c-0.4-0.8-0.7-1.3-0.9-1.7c-2.3-5.6-5.5-10.6-10.2-14.6
	c-1.6-1.3-3.3-2.6-4.7-4c-1.6-1.5-3.4-3.1-4.5-5c-3.1-5.4-3.3-9.4,1.3-14c2.1-2.1,4.7-3.8,7.1-5.7c2.1-1.6,4.2-3.2,6.2-4.9
	c2.7-2.4,3.9-5.4,3.4-9.2c-1.6-11-3.1-21.9-4.4-33c-0.8-7.3-1.1-14.6-1.7-22c-0.1-1.1,0-2.3-0.6-3.4c-1.4,18.4,2.4,36.5,4.7,55
	c-4.8-2.6-9.4-4.8-13.7-7.4c-6.9-4.1-9.1-10.4-7.3-18.1c1.1-4.6,2.4-9.1,3.8-13.6c3.2-10,4.2-20.3,3-30.7
	c-0.6-5.8-2.7-11.2-5.1-16.4c-2.3-4.9-4.8-9.7-7.3-14.5c-4.4-8.5-7.8-17.5-10.4-26.7c-1.7-5.7-3.9-11.3-6.1-16.8
	c-2.6-6.4-4.1-13.1-5.9-19.7c-0.3-1-0.2-2,0.3-3c1.1-2.1,0.9-4.3-0.2-6.4c-4.9-9.2-6.7-19-6.2-29.4c0.1-1.5,0.3-3,0.5-4.5
	c0.1-1.1,0.6-1.7,1.7-1.9c1.8-0.4,2.1-0.8,1.6-2.4c-0.4-1.4-1.1-2.8-1.9-4.1c-1.7-2.5-3.6-4.9-5.4-7.3c-2.2-3-3.9-6.2-5-9.8
	c-1.4-4.6-3-9.1-3.9-13.8c-2-10.3-0.8-20.5,2.4-30.5c0.6-1.7,1.3-3.4,1.9-5.1C291.4,286.6,291.6,286.6,291.7,286.5z"/>
<path class="st0" d="M228.5,384.2c0.1-4.1,1.1-7.8,2.3-11.5c5.2-15.8,9.7-31.7,12.2-48.2c0.9-5.8,1.7-11.7,2.5-17.5
	c0.1-0.5,0.1-0.9-0.3-1.5c-0.4,1.5-0.8,2.9-1.1,4.4c-1.2,6.8-2.3,13.7-3.6,20.5c-2.5,13.3-6.5,26.2-10.4,39
	c-1.6,5.1-2.4,10.3-3,15.7c-0.6,5.3,1,9.5,4.3,13.4c0.8,1,1.6,2,2.2,3.1c1.2,2.1,0.7,3.8-1.5,4.7c-2.7,1.1-5.5,1.4-8.4,0.2
	c-2.4-1-4.5-2.4-6.4-4.1c-4.9-4.1-8.6-9.2-12.4-14.2c-2.7-3.5-5.3-7-8.1-10.4c-1.3-1.6-2.9-3-5.4-3.3c0.4-0.6,0.6-1.2,1-1.6
	c1.8-2.1,3.7-4.2,5.6-6.2c6.7-7.1,11.4-15.3,14-24.7c2.7-10.1,5.6-20.1,8.4-30.2c1.1-3.8,2.4-7.4,3.6-11.2c0.1-0.4,0.3-0.9,0-1.5
	c-0.7,1.6-1.5,3.2-2.1,4.8c-4.1,11-7,22.4-10.3,33.6c-0.2,0.5-0.3,1.1-0.5,1.6c-2.5,11.1-8.1,20.4-15.9,28.5
	c-1.6,1.7-3.2,3.5-4.7,5.4c-2,2.5-2.6,5.3-1.3,8.3c0.7,1.7,1.5,3.3,2.4,5c0.3,0.6,0.7,1.2,1,1.9c0.5,1,0.4,2-0.3,2.9
	c-0.7,1-1.8,1-2.8,0.8c-3.3-0.6-6.6-4-7.2-7.6c-0.2-1.3-0.3-2.5-0.3-3.8c0.1-7.2-0.9-14.3-2.1-21.4c-0.5-2.7-1.4-5.2-3-7.5
	c-1.7-2.5-3.9-4.2-6.9-4.8c2.8-3,5.7-5.8,8.3-8.8c5.1-5.8,10.2-11.7,15.3-17.5c3.8-4.4,6.7-9.3,8.9-14.6c2.5-6,5-12.1,7.6-18.1
	c2.6-6.1,6.5-11.3,11.3-15.8c6.8-6.3,13.2-13,19.9-19.4c4.6-4.5,7.9-9.8,10.9-15.4c0.3-0.6,0.7-1.2,1.2-2.2c0,1.4,0,2.4,0,3.4
	c0,2.1,0.5,4,2.4,5.2c1,0.6,1.1,1.7,1.3,2.7c0.3,1.4,0.5,2.9,1.1,4.1c1.4,2.9,3.9,3.1,5.8,0.5c0.3-0.4,0.6-0.9,1.1-1.6
	c1.7,1.5,3.3,2.9,5.7,2.6c1.3,3.6,4,5.8,6.9,7.7c8.3,5.4,12.4,13.3,13.4,22.9c0.1,0.7-0.1,1.6-0.4,2.3c-5.5,10.6-7.2,21.9-6.3,33.7
	c0.4,5.5,2.4,10.7,3.9,16c1.7,5.8,4.7,10.9,8.5,15.7c1.1,1.4,2.2,2.9,3.3,4.4c0.5,0.8,0.8,1.6,1.3,2.6c-4.4,1.8-8.6,3.6-12.8,5.2
	c-3,1.2-6.2,1.9-8.4,4.8c-0.2-0.1-0.3-0.1-0.5-0.2c-1-7.6-1.9-15.3-3-22.9c-1.1-7.6-2.4-15.1-3.8-22.6c-0.3,4.3,0.4,8.6,0.9,12.8
	c1.2,9.8,2.4,19.6,3.7,29.4c0.2,1.6,0.6,3.1,1,4.7c0.1,0.5,0.4,1.1,0.4,1.6c-0.2,2.4,1,3.9,2.7,5.3c0.7,0.6,1.4,1.3,2,2.1
	c1.5,2,1.5,4.4-0.6,6c-1.3,1-3,1.9-4.6,2.3c-6,1.4-12.1,2.4-18.2,2.4c-4.3,0-8.6,0.1-12.9,0.1c-2.4,0-4.7-0.6-6.9-1.7
	c-2.3-1.2-4.8-2.2-7.5-2.4C231.6,384.2,230.2,384.2,228.5,384.2z"/>
<path class="st0" d="M357.7,768.4c0.3-0.7,0.6-1.2,0.9-1.7c1-1.9,1.3-3.7-0.2-5.6c-0.8-1-1.6-2-2.3-3.1c-1.2-1.7-2.2-3.3-2.9-5.4
	c-0.8-2.6-2.5-5-3.8-7.4c-2.4-4.4-4.6-8.9-6-13.8c-2-7-2.6-14.3-2.6-21.5c0-3.3-0.3-6.5-0.4-9.8c0-1.3,0.1-2.5,0.1-3.8
	c-0.1-1.1-0.3-2.2-0.5-3.2c-0.1-0.5-0.2-1.1-0.1-1.6c1.3-4.3,1.4-8.8,1.9-13.2c1-8.7,2.1-17.4,3.2-26.1c0.1-1.2,0.3-2.4,0.6-3.6
	c0.2,0.7,0.4,1.5,0.5,2.2c0.6,3,1.3,5.9,3.4,8.3c0.2,0.2,0.3,0.5,0.5,0.8c2.6,6,6.8,10.7,11.6,15c6.3,5.6,13.2,10.2,21.2,13.2
	c4.8,1.8,9.6,3.3,14.4,5.3c3.8,1.6,7.6,3.3,11.2,5.3c1.8,1,3.3,2.5,4.6,4.1c1.7,1.9,1.2,3.9-1.1,5.1c-1.6,0.9-3.3,1.5-5,2.4
	c-2.1,1.1-3.7,2.6-4.5,5c-0.5,1.4-0.2,2.5,1,3.4c0.7,0.6,1.5,1.2,2.4,1.5c3.4,1.3,6.9,2.5,10.3,3.8c2.5,0.9,5,1.7,7.4,2.8
	c8.7,4.1,17.3,8.5,25.3,14c4.7,3.2,9.8,6,14.6,9.1c2.1,1.3,4,2.8,5.9,4.5c1,0.9,1.7,2.1,2.3,3.3c1.3,2.6,0.5,4.9-2.4,5.6
	c-4.8,1.2-9.5,2.5-14.6,2.2c-3.2-0.2-6.5,0.7-9.6,1.6c-6.1,1.7-12,3.8-18.1,5.4c-10,2.6-20.2,4.5-30.6,5.4
	c-5.4,0.5-10.7,0.1-15.9-1.6c-5.9-1.9-11.7-4.1-17.6-6.1C361.2,769.6,359.6,769.1,357.7,768.4z"/>
<path class="st0" d="M242.6,764.8c-1.5,0.2-2.9,0.6-4.3,0.7c-8.3,0.7-16.4,2.7-24.5,4.5c-13,2.8-26,5.6-39,8.7
	c-8.1,1.9-16,4.4-24,6.4c-5.6,1.4-11.4,2.5-17.2,2.8c-4.2,0.2-8.4-0.2-12.5-1.5c-0.6-0.2-1.2-0.4-1.8-0.7c-2.4-1.2-2.8-2.6-1.2-4.8
	c4.7-6.5,10.2-12.2,17.5-16c4.3-2.2,8.9-3.9,13.5-5.5c4-1.3,8-2.7,11.7-4.7c14.5-7.8,29.1-15.4,43-24c7.6-4.7,14-10.5,18.9-18
	c2.1-3.3,4-6.7,5.2-10.5c0.3-1.1,0.7-2.3,0.8-3.5c0.8-10.5,3.5-20.6,6.1-30.7c2.8-10.8,5.4-21.7,8.1-32.5c0.1-0.5,0.3-1,0.8-1.5
	c0.1,2,0.2,3.9,0.3,5.9c0.5,9.2,1.9,18.2,3.7,27.2c0.9,4.8,1.5,9.6,2.2,14.4c0.1,0.8-0.3,1.7-0.3,2.5c-0.2,2.8-1.1,5.7-0.5,8.3
	c0.6,2.6,0,4.8-0.2,7.2c-0.7,6-1.5,12-2.2,18c-0.7,5.9-1.9,11.6-3.8,17.3c-0.7,2.2-1.7,4.3-2.4,6.4c-0.2,0.6-0.3,1.2-0.3,1.9
	c-0.2,4.5-0.4,9.1-0.7,13.6c-0.2,2.9,0.4,5.4,2.8,7.3C242.4,764.2,242.4,764.4,242.6,764.8z"/>
<path class="st0" d="M338.6,692.4c-3.8,0.3-7.6,0.5-11.2,0.8c-0.1-0.2-0.3-0.4-0.3-0.5c0.7-4.2-0.1-8.2-0.5-12.4
	c-0.4-4.3-0.7-8.6-0.6-12.9c0.3-8.5,0.9-17,1.3-25.6c0.4-8.1,0.4-16.1-0.6-24.1c-1.2-8.9-2.9-17.8-4.1-26.7
	c-0.9-6.9-1.5-13.8-1.8-20.7c-0.7-15.6,0.6-31.1,3.4-46.4c0.9-5.1,2.2-10.1,3.3-15.2c1-4.6,0.7-9.1-1.4-13.3
	c-2.2-4.5-4.6-8.9-7.1-13.3c-6.1-10.4-11.7-21.1-16.7-32c-0.6-1.4-1-2.7-1-4.3c0.1-2.9-1.3-5.4-3.2-7.5c-1.5-1.7-3.1-3.4-4.6-5.2
	c-1.9-2.2-3.2-4.7-4-7.6c-0.7-2.4-0.5-4.7,0.7-6.9c1.4-2.6,3.1-4.8,5.4-6.7c2.8-2.3,5.6-4.5,8.4-6.9c0.1,0.2,0.3,0.4,0.4,0.7
	c1.1,7,3,13.9,5.7,20.5c2.8,6.6,5,13.4,6.9,20.4c2.9,10.5,7.9,20,12.8,29.6c2.1,4,3.9,8.2,5.8,12.4c2.7,6.1,3.5,12.6,3.4,19.2
	c-0.1,7.5-1.3,14.7-3.6,21.9c-1.5,4.7-2.8,9.5-3.8,14.3c-0.5,2.2-0.4,4.6-0.2,6.9c0.4,3.9,2.1,7.2,5.2,9.7c1,0.8,1.3,1.7,1,2.9
	c-0.8,3.9-1.6,7.8-2.2,11.8c-0.9,5.5-1.7,11-2.4,16.6c-0.1,1-0.1,2.1,0.2,3.1c0.8,3.2,1.5,6.5,2.6,9.7c0.8,2.4,2.5,4.5,4.4,6.2
	c1.8,1.6,3.6,3.2,5.4,4.7c0.8,0.7,1.2,1.4,1.1,2.5c-0.3,8.4-0.6,16.7-0.9,25.1c0,0.3,0,0.7-0.1,0.9c-2.3,4.6-2.6,9.6-3.2,14.6
	c-1.3,9.6-2.3,19.2-3.4,28.7C338.9,688.8,338.8,690.5,338.6,692.4z"/>
<path class="st0" d="M302.1,246c1.6,2.2,3.4,4.2,5.7,5.6c3.1,1.9,6.4,3.6,9.6,5.4c2.2,1.2,4.6,2.3,6.8,3.5c2.3,1.3,3.6,3.4,3.5,6.1
	c0,1.3,0,2.7,0,4.5c-1-1.1-1.7-1.8-2.6-2.7c-1.7,2.1-2.9,4.3-3.7,6.6c-1.2,3.5-2.4,6.9-3.3,10.5c-2.1,8.1-5,15.8-8.3,23.4
	c-0.2,0.4-0.5,0.8-0.8,1.5c-0.4-0.6-0.7-1-1-1.5c-2.1-4.5-4.7-8.5-8-12.2c-1.1-1.2-2-2.5-3-3.7c-2.2-2.7-3.5-5.9-3.9-9.4
	c-0.2-2.3-0.6-4.6-1.2-6.8c-1.9-7.4-6-13.3-12.2-17.7c-2.1-1.5-4-3.2-5.9-4.9c-0.7-0.7-1.2-1.7-1.8-2.7c2.7-1.6,3.3-4.2,3.9-6.8
	c2.4,0.1,4.6,0,6.6-1.9c0.9,1.2,1.9,2.3,2.6,3.5c3.5,5.6,6.9,11.3,10.4,16.9c0.4,0.7,1,1.4,1.6,2c-3-8.7-7.7-16.3-13.3-23.2
	c0.2-2.2,0.4-4.2,0.7-6.6c0.2-0.1,0.7-0.6,1.3-1c3.9-2.8,5-6.1,3.6-10.6c-0.4-1.1-0.4-2.1,0.2-3.2c0.8-1.6,1.5-3.3,2.4-5.2
	c0.7,0.5,1.5,0.8,2.1,1.4c3.4,2.6,6.4,5.5,9.1,8.7c3.5,4.1,7.1,8,10.7,11.9c0.2,0.3,0.6,0.5,1.2,0.5c-0.5-0.8-0.9-1.6-1.5-2.3
	c-3.3-4.1-6.7-8.1-10-12.2c-3.2-3.9-7-6.9-11.6-9.2c0.1-2.6-0.6-4.9-2.8-6.8c1.4-1.6,1.7-3.3,1.5-5.4c-0.1-0.9,0.7-2.2,1.4-2.9
	c1.6-1.5,3.5-2.8,5.3-4c1.3-0.8,2.7-1.4,4.1-2.2c0.8,0.7,1.8,1.5,2.5,2.4c2.3,2.8,5.5,4.4,8.8,5.5c4,1.3,8.2,2.2,12.2,3.4
	c3,0.9,6,1.8,8.9,2.9c1.4,0.5,2.6,1.5,3.9,2.2c-1.1,2.1-2.3,3.9-3,5.9c-2.2,5.6-1.8,11.5-0.8,17.2c0.9,5.3,2.3,10.5,2.2,15.9
	c0,4.8,0,9.6-0.6,14.3c-0.4,3.1-1.9,6.1-2.9,9.1c-0.2,0.4-0.4,0.9-0.8,1.2c-0.4,0.4-1.1,0.8-1.5,0.8c-0.8-0.1-1-0.8-1-1.6
	c0-1.6-0.1-3.2,0-4.8c0.2-4-1.5-6.9-5-8.8c-2.2-1.2-4.4-2.3-6.6-3.3c-5.2-2.3-10.2-5-14.3-9c-0.3-0.3-0.6-0.4-1-0.6
	C302.3,245.7,302.2,245.8,302.1,246z"/>
<path class="st0" d="M289.6,200.4c-1.6-0.6-2.3-1.4-2.5-2.9c-0.3-2.8-1.9-5-4-6.6c-3-2.3-6.1-4.3-9.3-6.3c-2-1.3-4.2-1.1-6.4-0.2
	c-3,1.3-5.7,3.1-8.3,5.1c-2.2,1.7-4.5,3.2-6.7,4.9c-0.1-0.1-0.2-0.2-0.4-0.3c0.3-0.6,0.5-1.3,0.8-1.9c1.1-2.5,1.8-5.1,2.1-7.8
	c0.4-4.4,0.8-8.7,1.3-13.1c0.1-1.2,0.4-2.4,0.6-3.5c0.3-2.2,1.5-3.6,3.6-4.3c1.8-0.6,3.5-1.5,5.2-2.3c3.3-1.6,6.2-3.5,8.9-6
	c4.2-4,6.7-8.8,7.5-14.6c0.5-4,1.2-7.9,1.1-11.9c0-0.5,0-1.1,0-2.1c0.9,0.7,1.5,1.1,2.1,1.6c3.9,2.8,8.1,4.4,13,3.4
	c2.4-0.4,4.3-1.6,6-3.2c1-0.9,1.9-1.9,3.3-3.3c-0.2,1.3-0.3,2-0.4,2.7c-1.5,7.7-2,15.4-0.1,23c1.1,4.4,2.8,8.5,6.8,11.2
	c0.9,0.6,1.3,1.4,1.3,2.4c0,1.3,0,2.5,0,3.9c-3.8-0.5-7,0.3-9.8,2.7c3.2-0.6,6.2-1.9,9.6-1.7c-0.3,2.6-1.3,4.8-2.6,6.8
	c-3.1,4.7-6.3,9.4-9.6,14c-0.8,1.1-2,2.1-3.2,2.8C295.7,194.9,292.1,196.9,289.6,200.4z M264.1,165c4.4,1.7,8.9,3.5,13.3,5.2
	C275.2,167.5,268.5,164.9,264.1,165z"/>
<path class="st0" d="M259.3,161.7c3-3.8,6.1-7.5,9.1-11.3c-0.1-0.1-0.1-0.2-0.2-0.3c-0.4,0.3-0.8,0.5-1.1,0.8c-2.7,3-5.5,6-8.1,9.2
	c-2.6,3.2-3.9,7.1-4.3,11.2c-0.4,4.3-0.9,8.6-1.3,12.9c-0.4,4.6-2.1,8.7-4.8,12.3c-4.8,6.5-11,11.5-17.9,15.7
	c-0.2,0.1-0.4,0.1-0.9,0.2c0.2-0.9,0.4-1.6,0.7-2.4c0.5-1.4,1.1-2.8,1.7-4.2c3.4-6.9,4.9-14.3,5.8-21.9c0.6-5,1.4-9.9,2.3-14.9
	c1.1-6.2,3.8-11.6,8.1-16.3c3.9-4.2,7.3-8.8,10.2-13.9c4.8-8.5,5.9-17.4,4.1-26.8c-1.1-5.7-2.3-11.4-3.4-17.1
	c-1.7-9.2-0.5-18.1,3.7-26.5c2.7-5.4,6.8-8.9,12.7-10.4c1-0.3,2-0.6,3.4-1c-0.4,1.3-0.7,2.2-1,3.1c-0.5,1.5-0.7,3-0.3,4.6
	c0.7,2.9,0.8,5.8-0.1,8.9c-2.4,8-4.3,16.2-6.3,24.3c-0.7,2.8-1.1,5.6-0.6,8.5c0.2,1.3,0.6,2.6,1.2,3.8c0.1-1.1,0.1-2.2,0.2-3.3
	c0.1,0,0.2-0.1,0.3-0.1c0.3,0.8,0.7,1.7,1,2.5c1.9,5.5,4.2,10.7,8.2,15c0.8,0.8,0.9,1.7,0.7,2.8c-0.7,4.4-1.3,8.8-1.9,13.2
	c-0.8,6.8-4.4,11.9-9.8,15.7c-2.3,1.6-5,2.8-7.5,4.2c-1,0.6-2.1,1-3.2,1.5C259.6,161.9,259.5,161.8,259.3,161.7z"/>
<path class="st0" d="M228.3,688.4c-0.3-0.4-0.3-0.5-0.3-0.5c-1.9-9.4-7-16.8-13.9-23.2c-3.9-3.5-7.8-7.1-11.6-10.7
	c-2.2-2.1-4.3-4.3-6-6.8c-4.6-6.5-3.8-14.1,1.7-19.9c2.6-2.7,5.6-5,9-6.7c5.6-3,11.3-5.9,17.1-8.6c8.1-3.9,16.1-7.8,23.2-13.4
	c0.2-0.1,0.4-0.2,0.7-0.3c0,0.3,0.1,0.5,0.1,0.7c-1.9,6-2.5,12.3-3.6,18.5c-1.7,9.3-3.6,18.6-5.7,27.9c-2,8.9-4.5,17.8-6.7,26.7
	c-1.2,4.8-2.1,9.7-3.2,14.5C228.7,687.1,228.5,687.6,228.3,688.4z"/>
<path class="st0" d="M356.7,413.5c-1.5-0.9-1.9-2.1-2.4-3.3c-1-2.9-2.1-5.8-3.1-8.8c-0.4-1-0.6-2.2-0.7-3.3
	c-0.5-3.2-0.9-6.5-1.6-9.7c-0.4-2-1.1-3.8-2.5-5.3c-0.4-0.5-0.7-1.2-0.8-1.9c-0.2-0.8-0.1-1.6-0.4-2.3c-1.3,5.9-0.7,11.8-1.1,17.9
	c-1.5,0.1-2.5-0.6-2.8-2c-0.3-1-0.5-2-0.5-3.1c-0.2-4.2-1.6-7.8-4.7-10.6c-1.4-1.3-1.9-3-1.9-4.8c0-4,0.2-8,0.2-12
	c0-3.4-0.1-6.9-0.3-10.3c-1.2-16.6-4.4-32.9-6.9-49.2c-1.1-7.4-1.4-14.8-0.4-22.2c0.4-2.7,0.6-5.5,1-8.4c0.4,0.1,0.7,0.1,0.8,0.2
	c2.5,1.8,3.8,1.5,5.3-1.2c2.4-4.3,3.7-9,4-13.9c0.3-6.2,0.6-12.5-0.4-18.6c-0.6-4.2-1.6-8.3-2.1-12.5c-0.3-2.5-0.2-5.1-0.2-7.6
	c0-0.5,0.3-1,0.4-1.6c2.9,1.2,5.6,2.4,8.6,3.7c0,1.7,0,3.4,0,5.1c-0.1,14.8-0.2,29.5-0.3,44.3c0,4.2,0.4,8.5,0.2,12.7
	c-0.2,6.5-0.8,13.1-1.1,19.6c-0.3,5.4-0.6,10.8-0.6,16.3c0.1,6.8,0.4,13.5,0.9,20.3c0.2,3.4,0.8,6.8,1.2,10.2
	c0.1,1.2,0.3,2.4,0.2,3.6c-0.1,3,0.7,5.8,2,8.5c0.9,2,1.5,4.1,2.4,6c1.3,2.8,2.7,5.4,4.1,8.1c2,3.8,2.7,7.7,1.9,12
	c-0.5,2.9-0.1,5.9-0.1,8.8c0,0.6,0.2,1.3,0.2,1.9c-0.2,4.2,0.2,8.3,1.5,12.3C356.8,412.6,356.7,412.9,356.7,413.5z"/>
<path class="st0" d="M341.7,148.1c-0.5-1-1-2-1.7-3.4c2.5,0.1,4.7,0.2,6.9,0.5c0.9,0.1,1.8,0.7,2.4,1.4c3.7,3.8,6,8.1,4.6,13.6
	c-1.2,4.7-2.2,9.5-3.7,14.1c-4.3,12.4-4.3,25-2.4,37.8c0.4,2.5,0.6,4.9-0.1,7.4c-0.2,0.7-0.5,1.3-0.9,2c-0.8-0.3-1.4-0.6-2-0.8
	c0.5-4.5-1.6-7.8-4.2-10.9c-2.1-2.6-4.9-4.4-8.1-5.4c-3.4-1.1-6.9-1.9-10.4-2.9c-3.7-1.1-7.5-2.1-11.2-3.4c-3.4-1.2-6.2-3.3-7.7-7
	c1.7-2.4,3.5-4.9,5.2-7.4c0.7-1,1.8-1.1,2.8-0.9c2.4,0.4,4.9,0.9,7.2,1.5c2,0.5,4,1.2,6,1.7c0.6,0.2,1.2,0.3,1.9,0.2
	c-4.8-3-9.9-5-16-4.7c0.4-0.7,0.7-1.2,1-1.6c1.4-2.3,2.8-4.6,4.1-7c0.5-1,1.1-1.5,2.1-1.6c3-0.2,5.9,0.1,8.7,1.1
	c1.7,0.6,3.4,1.3,5.1,2c0.6,0.2,1.2,0.3,1.8,0.3c-2.3-2-5-3.4-7.9-4.4c-2.9-0.9-5.8-0.6-9-0.1c0.7-2.7,0.3-5-0.3-7.3
	c-0.1-0.5,0.1-1.3,0.5-1.7c3.2-3.2,6.7-5.9,11.1-7.3c4.7-1.5,9.4-2.9,14.1-4.5c1.3-0.4,2.9-0.5,3.7-2.1
	C344,146.5,342.9,147.6,341.7,148.1L341.7,148.1z"/>
<path class="st0" d="M261.8,567.8c-0.3-0.2-0.5-0.2-0.6-0.3c-3.9-6-9.5-10.3-15.2-14.4c-3.3-2.3-6.6-4.7-9.9-7.1
	c-6.3-4.6-9-11-9.1-18.6c0-1.3,0.2-2.7,0.5-4c0.4-2,0.7-3.9,1.4-5.8c0.6-1.9,1.4-3.8,2.6-5.3c2.2-2.9,4.5-5.8,7.2-8.2
	c5-4.5,10.3-8.6,15.5-12.8c2.5-2,5.1-3.8,7.7-5.7c0.6-0.4,1.2-0.8,2-1.3c-0.1,1.1-0.1,1.9-0.2,2.6c-0.7,5.6-1.7,11.2-2.2,16.8
	c-1.1,12.4-1.3,24.9-0.6,37.3c0.2,3.7,0.7,7.3,1.1,10.9C262.7,557.1,262.3,562.4,261.8,567.8z"/>
<path class="st0" d="M279.2,71.6c0.9,1.6,1.6,3,2.4,4.3c2.5,4.5,6.2,7.7,10.7,10c3,1.5,6.2,2.6,9.2,3.9c3.3,1.4,6.6,2.9,9.7,4.6
	c1.3,0.7,2.4,1.9,3.4,3c1.3,1.4,1.9,3,1.4,5c-1.5,6.7-3.3,13.3-7.3,19.1c-1.4,1.9-2.9,3.8-4.7,5.4c-3.8,3.6-8.4,4.4-13.3,2.7
	c-2.8-0.9-5-2.6-7-4.8c-5.6-6-8.6-13.4-11.4-20.8c-0.4-1-0.4-2.2-0.2-3.3c1.1-5.2,2.4-10.4,3.7-15.6c1-4.1,2-8.2,2.9-12.3
	C278.9,72.4,279,72.1,279.2,71.6z"/>
<path class="st0" d="M260.8,584.6c-0.1,6.3-0.3,12.2-0.4,18.1c-0.3,13.3,0.5,26.6,0.9,40c0.2,5.5-0.2,11-0.5,16.5
	c-0.4,7.8-1,15.6-1.5,23.4c0,0.1-0.1,0.3-0.3,0.7c-1.3,0.2-2.8,0.5-4.3,0.6c-1.7,0.1-2.7-0.9-2.9-2.5c-0.6-8.1-2.8-15.9-4-23.8
	c-1-7.3-1.7-14.6-2.7-21.8c-0.7-5.5-0.1-10.9,0.9-16.4c1.1-6.2,2-12.4,2.9-18.7c0.4-2.7,1.6-4.8,3.6-6.7c2.7-2.5,4.9-5.4,7.4-8.2
	C260.1,585.4,260.4,585.1,260.8,584.6z"/>
<path class="st0" d="M317.3,97.1c-1.2-0.9-2.5-1.9-3.8-3c-2.9-2.3-6.2-3.9-9.6-5.2c-3.1-1.2-6.3-2.3-9.3-3.7
	c-7.5-3.3-12.1-9.2-15.1-16.7c-1.3-3.2-1.1-5.9,0.1-8.9c2.3-5.6,6.8-7.6,12.3-7.9c3.9-0.2,7.8,0.5,11.5,1.8
	c4.8,1.8,8.1,5.2,10.3,9.8c3.1,6.3,4.3,13,4.4,19.9c0,4.5-0.4,9.1-0.6,13.6C317.4,97,317.2,97.3,317.3,97.1z"/>
<path class="st0" d="M254.6,237.7c0-0.7,0-1.3,0.1-1.8c0.6-2.6,0.4-4.8-1.9-6.6c-1.2-0.9-1.2-2.4-0.6-3.8c0.6-1.4,1.2-2.8,1.9-4.1
	c0.8-1.6,0.8-3.1-0.6-4.3c-1.6-1.4-1.7-3.1-0.9-4.8c1.2-2.8,0.9-5.4-0.2-8.1c-0.6-1.5-0.9-3.1-1.1-4.6c-0.2-1.8,0.7-3.2,2.2-4.3
	c3.2-2.3,6.4-4.5,9.6-6.7c1.6-1,3.3-1.8,5.1-2.7c1.6-0.8,3.2-0.7,4.8,0.1c3.5,1.8,6.9,3.7,9.9,6.3c1.7,1.4,2.7,3.3,3.5,5.3
	c0.1,0.4,0.4,0.9,0.2,1.1c-0.7,1.2,0.2,1.5,0.9,2.1c0.4,0.3,0.8,0.6,1.1,0.9c1.2,1.2,1.3,2.2,0.4,3.7c-0.2,0.4-0.5,0.8-0.8,1.2
	c-0.6,0.8-0.5,1.5,0.2,2.1c2.8,2.5,2.5,5.4,1.3,8.5c-0.2,0.5-0.4,1.1-0.7,1.5c-1.3,2-1.5,4-0.6,6.4c1.1,2.8-0.2,5.1-2.1,7.1
	c-0.4,0.4-0.8,0.8-1.3,1.1c-1.9,0.9-2.3,2.3-2,4.3c0.4,3.6-2.1,6.1-5.8,6c-2.3,0-2.3,0-3,2.3c-0.3,1.1-0.8,2.3-1.4,3.3
	c-1.3,2-3.5,2.2-5.4,0.7c-0.2-0.1-0.4-0.3-0.5-0.5c-1.9-1.6-2-1.6-3.4,0.4c-0.2,0.3-0.4,0.7-0.7,1c-1.1,1.2-2.3,1.2-3.1-0.2
	c-0.7-1.4-1.2-2.9-1.5-4.5c-0.2-1.5-0.7-2.7-2-3.6C254.4,241.4,254.6,239.4,254.6,237.7z M279.3,202.4c0.1-2.6,0.4-4.5,0.1-6.3
	c-0.4-2.6-2.4-3.6-5-2.8c-0.3,0.1-0.6,0.2-0.9,0.3c-1.5-1.8-3.1-3.3-5.5-2.6c-2.3,0.7-3.2,2.5-3.3,4.2c-1.3,1.3-2.5,2.2-3.3,3.3
	c-1.1,1.5,0.2,2.8,0.8,4c-1,1.2-2.1,2.2-2.9,3.4c-1,1.5-0.3,2.9,0.5,3.8c-1,1.6-2,2.8-2.7,4.2c-0.9,1.8,0.3,3.1,1.4,4.3
	c-3,4.1-3,5.8-0.2,8.7c-1,3-0.6,5.6,2.6,7c-0.2,1.2-0.3,2.2-0.4,3.3c-0.1,1.4,0.2,2.8,1.7,3.4c1.5,0.6,2.6,0,3.6-1.1
	c0.4-0.4,0.7-0.8,1.1-1.1c5.5,1.1,10.8-1.8,10.9-7.1c4.1-2.3,5.9-6.1,2.4-9.7c0.8-1.8,1.8-3.5,2.2-5.3c0.5-2.1-0.7-3.8-2.2-5.3
	C281.7,207.6,281.3,204.6,279.3,202.4z"/>
<path class="st0" d="M341.7,148.1c-5.5,1.7-11,3.1-16.3,5.2c-3.9,1.5-7.1,4.5-9.9,7.9c-0.9-0.5-1.9-1-3.2-1.7
	c5.2-3.6,8.9-8.1,11.9-13.1c-0.1-0.1-0.2-0.2-0.4-0.3c-3.8,4.1-7.7,8.1-11.7,12.4c-4.6-7.8-5.1-15.8-4.2-24.3
	c0.7,0.1,1.3,0.1,1.9,0.1c3.7,0,7.3-0.1,11-0.2c3-0.1,6.1-0.3,9.1-0.4c3.2,0,4.6,1.1,5.6,4.2c0.3,1,0.6,2,0.9,3
	C337.4,143.9,339.1,146.3,341.7,148.1C341.7,148.1,341.7,148.1,341.7,148.1z"/>
<path class="st0" d="M253.7,232.2c-4.2,7.8-8.5,14.3-11,16.5c-0.5-4.2-2-8.1-2-12.2c0-5.7-0.3-11.5-0.2-17.2
	c0.1-3.6,0.6-7.1,0.9-10.7c0.2-1.8,1-3.2,2.4-4.5c2.1-1.9,4-4.1,6-6.2c0.1,0.1,0.3,0.3,0.3,0.5c-0.3,2.3,0.3,4.4,1.2,6.5
	c1,2.4,1.4,4.7,0.2,7.1c-1,2.1-0.7,4.2,1.2,5.8c1.1,0.9,1.1,2,0.5,3.2c-0.5,1.1-1.1,2.1-1.6,3.2c-1.1,2.5-0.9,4.8,1.3,6.7
	c0.3,0.3,0.5,0.6,0.8,0.9C253.5,231.9,253.6,232,253.7,232.2z"/>
<path class="st0" d="M330.4,701.8c3.1,0,6,0,9,0c0,0.9,0.1,1.8,0,2.8c-0.8,8.2-0.3,16.2,1.2,24.3c0.8,4.6,2.7,8.8,4.8,13
	c1.6,3.1,3.3,6.2,4.9,9.3c0.2,0.4,0.4,0.8,0.6,1.4c-3.5,1.2-6.4,0.2-8.9-2.1c-1.4-1.3-2.7-3-3.7-4.6c-1.9-3-3.7-6.2-5.2-9.4
	c-0.9-1.8-1.4-3.7-1.7-5.7c-1.2-6-1.7-4.5,0.3-10.4c1.7-5.2,1.4-10.5-0.4-15.8C331,703.8,330.7,703,330.4,701.8z"/>
<path class="st0" d="M241.9,743.6c7.2,6.7,14.5,5.9,22,1.2c0.2,0.9,0.3,1.4,0.3,1.9c-0.1,2.9,0,5.7-0.4,8.6c-0.2,1.4-0.9,3-1.8,4
	c-2.2,2.5-4.6,4.8-7,7.1c-2.4,2.3-3.9,2.2-6.5,0.2c-1.7-1.3-3.4-2.6-5.1-4c-1.5-1.2-2.3-2.7-2.2-4.8
	C241.5,753.3,241.6,748.7,241.9,743.6z"/>
<path class="st0" d="M339.2,562.8c3.8,1.9,7.6,3.7,11.3,5.7c1.1,0.6,2.1,1.4,3,2.4c1.9,2,2.1,4.3,0.6,6.6c-1,1.5-2.3,2.9-3.7,4
	c-2.3,1.9-4.7,3.6-7.1,5.3c-3.1,2.3-6.1,4.8-7.9,8.9c-0.3-0.7-0.6-1.1-0.6-1.5c0.1-2.3,0.1-4.6,0.4-6.9c1.2-8,2.4-15.9,3.7-23.8
	C338.9,563.2,339.1,563,339.2,562.8z"/>
<path class="st0" d="M256.4,694.4c1.1-0.3,2-0.5,3.1-0.8c2.4,16.4,4.1,32.6,3.3,49.3c-2.9,1.9-5.9,3.4-9.9,3.4c0.3-3.7,0.3-7.4,1-11
	c2.6-12.9,2.9-25.9,2.4-39C256.3,695.7,256.4,695.1,256.4,694.4z"/>
<path class="st0" d="M250.8,694.5c1.6,0,2.9,0,4.4,0c0,0.7,0,1.4,0,2c-0.2,4.5-0.5,9.1-0.4,13.6c0.1,7.5-1,14.8-2,22.1
	c-0.6,3.9-0.9,7.8-1.3,11.6c-0.1,0.8-0.1,1.6-0.2,2.7c-3.4-0.5-5.9-2.3-8.7-4.1c2.5-7.7,5-15.5,5.9-23.6
	C249.3,710.8,249.9,702.8,250.8,694.5z"/>
<path class="st0" d="M335.2,755.6c3.1,2.8,6.1,5.7,9.2,8.3c3.2,2.7,7.2,3.5,11.6,3.5c-0.4,0.7-0.5,1.2-0.8,1.5
	c-1.5,1.7-3.2,3.4-4.7,5.1c-0.8,0.9-1.8,1.2-2.8,0.7c-3.7-1.7-7.4-3.3-11-5.1c-0.6-0.3-1.1-1.2-1.2-1.9c-0.3-1.4-0.3-2.8-0.4-4.3
	C335.1,760.8,335.2,758.2,335.2,755.6z"/>
<path class="st0" d="M347.6,650.1c-0.2-10.6,0.6-21.3,0.4-32.4c0.8,0.6,1.2,0.9,1.5,1.3c2.9,3.3,5.2,7,6.9,11.1
	c1.1,2.8,0.7,5.3-1.2,7.6c-0.7,0.8-1.3,1.6-2,2.4c-2,2.4-3.5,5.1-4.4,8.1c-0.2,0.7-0.4,1.3-0.7,1.9
	C348.1,650.2,347.9,650.1,347.6,650.1z"/>
<path class="st0" d="M323.2,768.9c-2.6,0.3-2.7,0.2-2.8-2c-0.2-4.5,0.5-8.8,2.9-12.6c1.7-2.7,1.5-5.1-0.6-7.4
	c-0.5-0.5-0.9-1.1-1.3-1.7c-0.9-1.4-1.2-3-0.5-4.6c0.8-1.7,1.5-3.4,2.6-4.9c2.3-3.4,2.8-6.9,1.5-10.7c-0.7-2.1-1.3-4.3-2-6.4
	c-0.6-2.1-0.8-4.3,0-6.5c0.9,2.6,1.8,5.2,2.6,7.8c0.5,1.7,0.9,3.6,1.5,5.3c0.9,2.7,0.5,5.4-0.6,7.9c-0.9,2.1-1.4,4.2-1.4,6.5
	c0,2.2,0.4,4.2,1.4,6.2c1.7,3.4,1.6,7.1,0.1,10.4c-1.6,3.5-2.8,7.1-2.9,11C323.6,767.7,323.4,768.3,323.2,768.9z"/>
<path class="st0" d="M334.1,742.1c1,1.7,1.9,3.4,3,5.1c0.9,1.4,1.9,2.8,3,4c3.3,3.5,6.3,4.4,11.2,3.6c1.8,2.4,3.6,4.8,5.3,7.3
	c0.7,0.9,0.6,1,0.3,2.9c-3.2,0.4-6.2-0.2-9.2-1.5c-3.1-1.4-5.5-3.7-8-5.9c-0.6-0.5-1.1-1.2-1.8-1.6c-1.9-1.2-2.7-3.2-3.2-5.1
	c-0.7-2.8-0.8-5.8-1.1-8.7C333.8,742.2,333.9,742.2,334.1,742.1z"/>
<path class="st0" d="M239.1,234.3c-2.8-4.4-5.4-8.4-7.7-12.5c-1-1.7-1.3-3.7-1.9-5.6c-0.3-0.9,0.1-1.6,0.9-2.2
	c3.4-2.2,6.7-4.5,10.1-6.7c-0.4,2.9-0.8,5.8-1.1,8.7c-0.2,2.9-0.3,5.9-0.4,8.8C239,227.8,239.1,230.8,239.1,234.3z"/>
<path class="st0" d="M308.4,129.2c0.2-3,0.6-5.6,1.8-7.8c2.8-4.9,5.1-9.9,6.5-15.4c0-0.1,0.2-0.2,0.4-0.5c0.2,0.2,0.4,0.4,0.8,0.7
	c0.4-2.6,0.7-5,1.1-7.5c0.1,0,0.1,0,0.2,0c0.4,2.8,0.8,5.7,1.2,8.5c0.5,2.8,1.4,5.6,3.2,8.2c-1.8,0-2.6-1.5-4.3-1.6
	c0.6,0.8,1.2,1.5,1.9,2.4C317.7,121.1,313,124.8,308.4,129.2z"/>
<path class="st0" d="M329.2,730.7c2.6,10.7,3.9,21.6,4.1,32.7c-2.5,0.2-4.8,0.4-7.2,0.5c-0.5-1.8,0.2-3.2,0.9-4.5
	c1.4-2.5,2-5.2,2.2-8c0.1-2.3-0.1-4.7-1.2-6.7c-1.6-2.9-1.4-5.8-0.7-8.8C327.8,734.2,328.6,732.5,329.2,730.7z"/>
<path class="st0" d="M242.3,389.9c-0.8,5-3.3,11.1-5.3,13.2c-1.6-2.3-3.3-4.7-5-7.1c-1.5-2-2.4-4.3-2.8-6.8c-0.4-2.6,0-3.2,2.7-2.9
	c1.9,0.2,3.7,0.7,5.5,1.3C239.1,388.2,240.6,389.1,242.3,389.9z"/>
<path class="st0" d="M179.4,368.6c-4.1-3.2-7-7.3-9.4-11.7c-0.7-1.3-1.3-2.5-2-3.8c-0.2-0.4-0.4-0.7-0.5-1.1
	c-0.3-1.2-0.1-2.4,0.8-3.3c0.8-0.9,2-0.6,2.9-0.1c1,0.6,2.2,1.2,2.9,2.1c1.2,1.6,2.5,3.4,3.2,5.3C178.9,360,179.1,364.3,179.4,368.6
	z"/>
<path class="st0" d="M326.5,700.1c3.3,1.3,3,4.3,3.6,6.8c1.4,5.5,1,10.9-1.4,16.4c-0.3-0.7-0.6-1.1-0.8-1.5c-1.4-4.5-2.7-9-4-13.5
	c-0.2-0.6-0.4-1.3-0.2-1.8C324.6,704.2,325.6,702,326.5,700.1z"/>
<path class="st0" d="M251.6,684.5c2.5,1.7,5,0.9,7.9,0.4c0.1,2.5,0.2,4.8,0,7.2c-2.4,0.2-4.7,0.4-7,0.5c-1.6,0.1-2-0.2-2-1.9
	C250.5,688.8,250.6,686.8,251.6,684.5z"/>
<path class="st0" d="M199.3,383.7c-1.4,2-2.7,3.8-4.3,6.1c-1.6-3.5-3.1-6.6-4.3-9.7c-0.4-1-1-2.4,0.3-3.2c1.4-0.8,2.5,0.2,3.3,1.1
	C196,379.8,197.5,381.7,199.3,383.7z"/>
<path class="st0" d="M327.1,694.8c3.8-0.2,7.5-0.4,11.2-0.6c0.7,1.9,0.3,3.6,0,5.6c-2.6,0-5.2,0.2-7.7-0.1
	C328.1,699.5,327.3,698.1,327.1,694.8z"/>
<path class="st0" d="M343.2,220.3c-2.7-1.1-4.9-2.1-7.3-3.1c0.5-2.6,1.4-4.6,2.6-6.6C341.2,212.9,342.6,215.7,343.2,220.3z"/>
<path d="M264.1,165c4.4,0,11.2,2.5,13.3,5.2C272.9,168.5,268.5,166.7,264.1,165z"/>
<path d="M279.3,202.4c2,2.3,2.4,5.2,0.8,8.5c1.5,1.5,2.7,3.2,2.2,5.3c-0.4,1.8-1.4,3.5-2.2,5.3c3.5,3.5,1.7,7.4-2.4,9.7
	c0,5.3-5.4,8.2-10.9,7.1c-0.3,0.3-0.7,0.7-1.1,1.1c-1,1.1-2.2,1.7-3.6,1.1c-1.5-0.6-1.8-2-1.7-3.4c0.1-1,0.2-2,0.4-3.3
	c-3.2-1.3-3.6-3.9-2.6-7c-2.8-3-2.8-4.6,0.2-8.7c-1.1-1.2-2.3-2.6-1.4-4.3c0.7-1.4,1.7-2.6,2.7-4.2c-0.8-1-1.5-2.3-0.5-3.8
	c0.8-1.2,1.8-2.2,2.9-3.4c-0.6-1.1-1.9-2.5-0.8-4c0.8-1.1,2-2,3.3-3.3c0.1-1.7,1-3.5,3.3-4.2c2.5-0.7,4.1,0.8,5.5,2.6
	c0.3-0.1,0.6-0.2,0.9-0.3c2.5-0.8,4.6,0.2,5,2.8C279.7,197.9,279.4,199.8,279.3,202.4z M276.7,221c0.9-0.5,1.6-0.7,2-1.2
	c0.8-1,1.6-2.1,1.9-3.2c0.7-2.3-0.2-3.6-2.6-4.5c-0.3-0.1-0.5-0.4-0.7-0.6c2.7-3.4,2.8-5.4,0.6-8.1c-0.3,0.1-0.6,0.3-0.9,0.2
	c-0.5-0.1-1-0.4-1.3-0.7c-0.1-0.2,0.2-1,0.5-1.1c2.2-1.2,1.7-3.2,1.6-5c-0.1-1.1-0.5-2.1-1.8-2.2c-1.2-0.1-1.7,0.6-1.8,1.7
	c0,0.3-0.5,0.7-0.8,0.7c-0.3,0-0.7-0.3-0.9-0.6c-0.2-0.2,0-0.7-0.2-0.9c-0.6-0.9-1.2-1.9-2-2.6c-0.8-0.8-1.9-0.7-2.9,0
	c-0.9,0.7-1.5,1.4-0.7,2.6c0.2,0.3,0,0.8-0.1,1.2c-0.9,0-1.8-0.2-2.4,0c-2.3,1.1-2.6,2.7-1.1,4.7c0.8,1.1,0.8,1.4-0.3,2.4
	c-0.8,0.7-1.6,1.3-2.2,2.1c-0.9,1.2-0.8,1.8,0.5,2.7c0.4,0.3,0.8,0.7,1.3,1.2c-0.7,0.5-1.3,0.8-1.7,1.2c-0.8,0.8-1.7,1.5-2.3,2.4
	c-0.9,1.4-0.6,2.2,0.7,3.3c0.4,0.3,0.8,0.7,1.4,1.1c-0.5,0.6-1,1-1.3,1.5c-0.6,0.8-1.2,1.5-1.6,2.4c-0.7,1.8-0.3,2.7,1.6,3.4
	c0.3,0.1,0.5,0.4,0.7,0.6c-0.4,1-0.9,1.8-1.1,2.7c-0.6,2.3,0.6,3.6,2.9,3.6c0.2,0,0.4,0.1,0.8,0.3c-0.2,0.6-0.5,1.2-0.6,1.8
	c-0.2,1.2-0.6,2.3-0.6,3.5c0,0.6,0.5,1.5,1,1.6c0.5,0.2,1.4-0.2,1.9-0.6c0.6-0.5,1.1-1.3,1.6-2c0.4,0.1,0.6,0.1,0.9,0.1
	c2.6,1.1,4.9,0.2,7-1.2c1.9-1.2,2.5-3,1.7-5.2c2-0.8,3.8-1.7,4.4-3.9C280.8,223.9,278.9,222.7,276.7,221z"/>
<path class="st0" d="M276.7,221c2.3,1.7,4.1,2.9,3.5,5.4c-0.6,2.2-2.3,3.1-4.4,3.9c0.8,2.2,0.2,4-1.7,5.2c-2.1,1.4-4.4,2.3-7,1.2
	c-0.2-0.1-0.5-0.1-0.9-0.1c-0.5,0.6-0.9,1.4-1.6,2c-0.5,0.4-1.4,0.8-1.9,0.6c-0.5-0.2-1-1-1-1.6c0-1.2,0.3-2.3,0.6-3.5
	c0.1-0.6,0.4-1.1,0.6-1.8c-0.4-0.1-0.6-0.3-0.8-0.3c-2.3,0-3.5-1.3-2.9-3.6c0.2-0.9,0.7-1.8,1.1-2.7c-0.3-0.2-0.5-0.4-0.7-0.6
	c-1.9-0.8-2.3-1.6-1.6-3.4c0.3-0.9,1-1.6,1.6-2.4c0.4-0.5,0.8-0.9,1.3-1.5c-0.6-0.5-0.9-0.8-1.4-1.1c-1.3-1-1.6-1.9-0.7-3.3
	c0.6-0.9,1.5-1.7,2.3-2.4c0.4-0.4,1-0.7,1.7-1.2c-0.6-0.5-0.9-0.9-1.3-1.2c-1.3-0.9-1.5-1.5-0.5-2.7c0.6-0.8,1.5-1.4,2.2-2.1
	c1.1-1,1.1-1.2,0.3-2.4c-1.5-2-1.2-3.6,1.1-4.7c0.6-0.3,1.5,0,2.4,0c0-0.4,0.3-0.9,0.1-1.2c-0.8-1.2-0.2-2,0.7-2.6
	c0.9-0.7,2-0.8,2.9,0c0.8,0.7,1.4,1.7,2,2.6c0.2,0.2,0,0.7,0.2,0.9c0.2,0.3,0.6,0.6,0.9,0.6c0.3,0,0.8-0.4,0.8-0.7
	c0.1-1.1,0.5-1.8,1.8-1.7c1.3,0.1,1.7,1.1,1.8,2.2c0.1,1.9,0.6,3.9-1.6,5c-0.3,0.2-0.6,1-0.5,1.1c0.3,0.4,0.8,0.6,1.3,0.7
	c0.3,0.1,0.6-0.2,0.9-0.2c2.2,2.7,2,4.7-0.6,8.1c0.2,0.2,0.4,0.5,0.7,0.6c2.4,0.9,3.2,2.2,2.6,4.5c-0.3,1.2-1.1,2.2-1.9,3.2
	C278.3,220.3,277.5,220.5,276.7,221z M268.9,220.7c0.8,1.4,1.8,2.4,3.5,2.1c1.6-0.3,2.6-1.4,3.2-2.9c0.1-0.3,0.3-0.6,0.3-0.9
	c0-2,0.4-4,0.5-6.1c0.3-3-1.6-4.8-4.5-4.6c-0.8-0.8-1.3-2-2.8-1.8c-2,0.3-3.6,2.3-3.2,4.3c0.1,0.6,0.4,1.2,0.4,1.4
	c-0.8,1.5-1.7,2.7-2.2,4c-0.9,2.5,0.4,4.3,3,4.5C267.6,220.8,268.1,220.7,268.9,220.7z"/>
<path d="M268.9,220.7c-0.7,0-1.3,0-1.8,0c-2.6-0.2-3.9-2-3-4.5c0.5-1.3,1.3-2.5,2.2-4c-0.1-0.3-0.3-0.8-0.4-1.4
	c-0.4-2,1.2-4,3.2-4.3c1.5-0.2,2,1,2.8,1.8c2.9-0.2,4.8,1.6,4.5,4.6c-0.2,2-0.5,4-0.5,6.1c0,0.3-0.1,0.6-0.3,0.9
	c-0.5,1.5-1.5,2.6-3.2,2.9C270.7,223.2,269.7,222.1,268.9,220.7z M269.8,207.6c-2.4,0.9-3,1.7-2.1,3.5c0.7,1.4,0.4,2.2-0.6,3.1
	c-0.6,0.5-1,1.2-1.3,2c-0.7,1.9,0.2,3,2.2,2.7c1.3-0.2,2.2-0.2,2.8,1.3c0.4,1.1,1.6,1.3,2.2,0.3c0.6-0.9,1.2-2.2,1.1-3.2
	c-0.1-1.2,0-2.1,0.4-3.2c0.8-2.1-0.2-4.2-2.2-4.4C270.7,209.7,270.3,208.9,269.8,207.6z"/>
<path class="st0" d="M269.8,207.6c0.5,1.3,0.9,2.1,2.5,2.2c2,0.1,3,2.2,2.2,4.4c-0.4,1.1-0.5,2-0.4,3.2c0.1,1-0.5,2.3-1.1,3.2
	c-0.6,1-1.8,0.8-2.2-0.3c-0.5-1.6-1.4-1.5-2.8-1.3c-2,0.3-2.9-0.8-2.2-2.7c0.3-0.7,0.7-1.4,1.3-2c1-0.9,1.3-1.8,0.6-3.1
	C266.8,209.3,267.4,208.5,269.8,207.6z"/>
</svg>
