<?xml version="1.0" encoding="utf-8"?>
<!-- Generator: Adobe Illustrator 19.0.0, SVG Export Plug-In . SVG Version: 6.00 Build 0)  -->
<svg version="1.1" id="图层_1" xmlns="http://www.w3.org/2000/svg" xmlns:xlink="http://www.w3.org/1999/xlink" x="0px" y="0px"
	 viewBox="0 0 595.3 841.9" style="enable-background:new 0 0 595.3 841.9;" xml:space="preserve">
<style type="text/css">
	.st0{fill:#FFFFFF;}
</style>
<path class="st0" d="M579.2,819.1c-187.3,0-374.6,0-562,0c0-264.9,0-529.9,0-794.9c187.3,0,374.6,0,562,0
	C579.2,289.1,579.2,554.1,579.2,819.1z M341.5,233.2c0,2.7,0,5.3,0,7.8c-0.1,11-0.2,22.1-0.2,33.1c0,2.9,0.2,5.7,0.2,8.6
	c0,5.1,0.2,10.1,0,15.2c-0.3,6.7-1.1,13.4-1.3,20.1c-0.2,6,0.1,12.1,0.4,18.1c0.3,6.1,0.8,12.2,1.2,18.2c0.2,0,0.4,0,0.6,0
	c-0.3-4.2-0.7-8.4-1-12.6c-0.2-2.5-0.3-5-0.4-7.4c0-1.4,0.1-2.9,0.2-4.3c0.4-6.9,0.8-13.9,1.2-20.8c0.4-7.2,0.8-14.5,0.9-21.7
	c0.1-8.1-0.2-16.2-0.2-24.2c0-7,0.1-14.1,0-21.1c0-2.7-0.3-5.4-0.5-8.2c2.9,0,3.9-1.9,4.2-4.2c0.2-1.6,0.3-3.3,0.1-4.9
	c-0.8-5.5-1.1-10.9-1.2-16.5c-0.1-7.3,1.2-14.2,3.6-21.1c1.3-3.7,2.2-7.5,3.2-11.3c1.3-5.1,0.4-9.8-3-14.1c-1.8-2.2-3.8-3.6-6.7-3.5
	c-1.9,0-3.8,0-5.9,0c-0.7-1.8-1.3-3.7-1.9-5.5c-0.9-3-2.8-4.8-6-5c-1.7-0.1-3.5-0.1-5.2,0c-3.3,0.2-6.6,0.5-9.9,0.7
	c-2.1,0.1-4.2,0.1-6.3-0.3c0.3-1.4,0.3-1.4,1.2-2.2c3.4-2.7,6.6-5.5,9.4-8.8c1-1.2,1.9-2.5,2.9-3.8c1.9,0.9,3.8,1.9,6.3,0.8
	c-3.6-1.5-4.9-4.4-5.9-7.5c-0.2-0.6-0.4-1.2-0.5-1.7c-0.5-3.5-1.1-7-1.3-10.5c-0.3-6.5-0.4-13-1.5-19.4c-0.9-5.2-2.3-10.2-5-14.7
	c-2.6-4.3-6.2-7.5-11.1-8.7c-3.1-0.8-6.4-1.2-9.6-1.3c-3.8-0.2-7.4,1-10.2,3.6c-1.2,1.1-2.4,1.7-3.9,1.9c-6.8,1-11.9,4.4-15,10.7
	c-3.9,7.9-5.1,16.2-3.7,24.9c0.9,5.5,2,11,3.2,16.4c2.1,9.5,0.9,18.4-4.2,26.8c-2.3,3.9-5,7.6-8.1,10.9c-4.6,4.8-7.6,10.5-8.8,17.1
	c-0.8,4.2-1.4,8.3-1.9,12.5c-0.8,7.4-2.1,14.6-5.3,21.4c-1,2.2-1.8,4.5-2.4,6.8c-0.3,1.1-0.9,1.8-1.8,2.4c-3.5,2.5-7,5-10.4,7.6
	c-2.8,2.2-4.9,5.1-6.2,8.5c-1.9,4.7-1.2,9.1,1.7,13.2c-0.3-1.5-0.7-2.9-1.1-4.3c-0.8-3.1-0.6-6.1,0.8-9.1c1.3-2.7,2.9-5.2,5.3-7
	c3.1-2.4,6.2-4.8,9.4-7.1c0.5-0.4,1.1-0.6,1.9-1c0.6,4.4,2.7,7.9,5,11.3c1.1,1.6,2.1,3.2,3,4.8c0.7,1.3,1.2,2.6,1.6,4
	c0.9,3,0.1,5.7-2.2,7.9c-0.9,0.8-1.8,1.6-2.8,2.3c-0.9,0.6-1.8,1.2-2.7,1.8c4-0.7,7-2.9,9-6.9c0.7,2.8,1.4,5.1,2,7.5
	c-0.8,0.8-1.6,1.8-2.4,2.6c-5.9,5.8-11.8,11.7-17.9,17.4c-4.6,4.3-8.3,9.2-10.8,15c-2.5,5.7-4.9,11.5-7.3,17.3
	c-2.1,5-4.7,9.6-8.3,13.7c-3.1,3.5-6.3,7-9.3,10.5c-4.3,5-8.5,10-13.4,14.4c-1,0.9-1.7,2.3-2.3,3.6c-0.3,0.7-0.3,1.9,0,2.6
	c1.4,2.8,2.8,5.7,4.6,8.3c2.3,3.2,5,6.2,7.7,9.2c0.7,0.7,1,1.4,1.1,2.4c0.1,2.7,0.2,5.4,0.3,8.1c0.1,5.2,3,9.1,7.9,10.7
	c0.3,0.1,0.7,0.3,1.1,0.4c-0.2,0.4-0.3,0.8-0.4,1.1c-1.3,3.7-2.7,7.4-3.8,11.1c-1.3,4.7-2.2,9.4-1.7,14.3c0.8,9.7,2.6,19.1,5.3,28.4
	c2.5,8.6,5.5,17.1,7.3,25.9c2,9.8,3.8,19.5,3.1,29.6c-0.9,13.1-3.3,25.7-8.1,37.9c-4.5,11.5-10.2,22.5-15.9,33.5
	c-12.2,23.5-24.8,46.8-36.3,70.7c-7.7,16.1-13.8,32.8-17.6,50.3c-2.8,12.8-4.8,25.6-5.8,38.7c-0.7,9.3-0.8,18.5,3.5,27.2
	c0.8,1.5,1.6,2.7,3.1,3.3c3.6,1.7,7.4,2.5,11.4,2.5c6.9,0.1,13.5-1.3,20.1-3c7-1.7,13.9-3.9,21-5.6c11.5-2.7,23.1-5.2,34.7-7.8
	c9.4-2.1,18.9-4,28.5-5.5c2.7-0.4,5-0.6,7,1.7c0.4,0.4,1,0.7,1.6,0.8c1.3,0.4,2.7,0.6,3.7-0.3c2-1.8,4.1-1.8,6.5-1.4
	c1.2,0.2,2.4,0.1,3.6,0c8-0.2,16-0.4,24-0.7c8.9-0.3,17.8,0.4,26.8-0.5c0.1,0.6,0.1,1.1,0.2,1.6c0.3,1.7,1.3,2.5,3.2,2.6
	c1.9,0.1,2.7-0.4,3.2-2.1c0.3-0.9,0.4-1.9,0.6-3c1.9,0,3.7,0,5.5,0c1.7,0,1.8,0.1,1.9,1.8c0.1,1.7,0.9,2.9,2.3,3.6
	c3.1,1.5,6.2,3.1,9.4,4.5c3.1,1.3,3.9,1,6.1-1.5c1.5-1.6,3-3.1,4.2-4.4c6.6,2.6,12.8,5.1,19.1,7.4c6.6,2.4,13.6,2.9,20.6,2.1
	c13-1.5,25.8-4,38.2-8.3c5.5-1.9,11.1-2.8,16.8-3.4c4-0.5,8.1-1.3,12-2.3c4.7-1.3,7.3-5.6,6.6-10.4c-0.5-3.9-2.2-7.4-3.9-10.8
	c-4.4-8.6-9.5-16.8-15-24.8c-10.8-15.5-20.8-31.5-29.2-48.5c-5.4-11-10.8-22-16.3-32.9c-4.8-9.4-9.6-18.8-14.6-28.1
	c-4.4-8.3-9-16.4-13.5-24.6c-10.8-19.5-17.1-40.6-21-62.4c-1.4-7.9-2.4-15.8-3.8-23.7c-3.3-19.6-8.8-38.5-14.9-57.4
	c-3.9-12-8.6-23.7-12.8-35.6c-4.1-11.3-7.1-22.9-9-34.8c-1-5.9-1.8-11.8-2.6-17.7c-0.6-4.4-1.2-8.8-1.8-13.2
	c-0.2-1.5,0.1-2.9,0.7-4.4c3.2-6.7,6.2-13.4,8.2-20.6c1.1-3.8,2.2-7.7,3.4-11.5c0.6-2,1.5-3.9,2.3-5.9c2,1.2,2,1.3,1.6,2.9
	c-0.4,1.8-0.8,3.7-1.1,5.5c-0.9,6.8-1.5,13.7-0.5,20.5c1.5,9.8,3.1,19.5,4.6,29.3c0.8,5.3,1.5,10.6,2.1,15.9
	c0.6,5.1,0.9,10.3,1.4,15.5c0.2,0,0.3,0,0.5,0c0-4.3,0-8.6,0-12.9c0-5.6-1-11.1-1.9-16.6c-1.3-8-2.3-16-3.7-23.9
	c-1.7-9.2-2.2-18.4-0.9-27.7c0.3-1.9,0.5-3.8,0.8-5.8c0.4,0.2,0.6,0.2,0.7,0.3c2.4,1.6,3.6,1.5,4.9-0.9c1.8-3.2,3.2-6.7,3.5-10.4
	c0.9-8.8,1-17.6-1.1-26.4c-0.9-4-1.5-8.2-1.2-12.4c0.1-0.8,0.3-1.7,0.4-2.4C336.4,231,339,232.1,341.5,233.2z"/>
<path d="M341.5,233.2c-2.5-1-5.1-2.2-8-3.4c-0.1,0.8-0.4,1.6-0.4,2.4c-0.3,4.2,0.2,8.3,1.2,12.4c2,8.7,1.9,17.5,1.1,26.4
	c-0.4,3.7-1.7,7.2-3.5,10.4c-1.4,2.4-2.6,2.6-4.9,0.9c-0.1-0.1-0.3-0.1-0.7-0.3c-0.3,2-0.5,3.9-0.8,5.8c-1.3,9.3-0.8,18.5,0.9,27.7
	c1.4,7.9,2.4,16,3.7,23.9c0.9,5.5,1.9,11,1.9,16.6c0,4.3,0,8.6,0,12.9c-0.2,0-0.3,0-0.5,0c-0.4-5.2-0.8-10.3-1.4-15.5
	c-0.6-5.3-1.3-10.6-2.1-15.9c-1.5-9.8-3.1-19.5-4.6-29.3c-1-6.9-0.4-13.7,0.5-20.5c0.2-1.9,0.7-3.7,1.1-5.5c0.3-1.6,0.3-1.7-1.6-2.9
	c-0.8,2-1.7,3.9-2.3,5.9c-1.2,3.8-2.3,7.7-3.4,11.5c-2,7.2-5,13.9-8.2,20.6c-0.7,1.4-0.9,2.8-0.7,4.4c0.6,4.4,1.1,8.8,1.8,13.2
	c0.8,5.9,1.6,11.8,2.6,17.7c1.9,11.9,5,23.5,9,34.8c4.2,11.9,8.9,23.6,12.8,35.6c6.1,18.8,11.7,37.8,14.9,57.4
	c1.3,7.9,2.4,15.8,3.8,23.7c3.9,21.8,10.1,42.9,21,62.4c4.5,8.2,9.1,16.3,13.5,24.6c5,9.3,9.9,18.7,14.6,28.1
	c5.5,10.9,10.8,21.9,16.3,32.9c8.4,16.9,18.4,33,29.2,48.5c5.5,7.9,10.6,16.2,15,24.8c1.8,3.4,3.4,6.9,3.9,10.8
	c0.6,4.9-1.9,9.2-6.6,10.4c-3.9,1.1-7.9,1.9-12,2.3c-5.7,0.7-11.3,1.5-16.8,3.4c-12.4,4.3-25.2,6.8-38.2,8.3
	c-7,0.8-13.9,0.3-20.6-2.1c-6.3-2.3-12.5-4.8-19.1-7.4c-1.2,1.3-2.7,2.8-4.2,4.4c-2.2,2.5-3,2.8-6.1,1.5c-3.2-1.4-6.3-2.9-9.4-4.5
	c-1.5-0.7-2.3-1.8-2.3-3.6c-0.1-1.7-0.2-1.8-1.9-1.8c-1.8,0-3.6,0-5.5,0c-0.2,1.1-0.3,2.1-0.6,3c-0.5,1.7-1.3,2.2-3.2,2.1
	c-1.9-0.1-2.9-0.8-3.2-2.6c-0.1-0.5-0.1-1-0.2-1.6c-9,0.9-17.9,0.2-26.8,0.5c-8,0.3-16,0.5-24,0.7c-1.2,0-2.5,0.2-3.6,0
	c-2.4-0.5-4.5-0.4-6.5,1.4c-1,0.9-2.4,0.7-3.7,0.3c-0.6-0.2-1.2-0.4-1.6-0.8c-2-2.3-4.3-2.1-7-1.7c-9.6,1.4-19,3.4-28.5,5.5
	c-11.6,2.6-23.2,5-34.7,7.8c-7,1.7-14,3.9-21,5.6c-6.6,1.6-13.3,3.1-20.1,3c-4-0.1-7.8-0.9-11.4-2.5c-1.5-0.7-2.4-1.8-3.1-3.3
	c-4.3-8.7-4.1-17.9-3.5-27.2c0.9-13.1,3-25.9,5.8-38.7c3.8-17.5,9.9-34.2,17.6-50.3c11.4-23.9,24.1-47.2,36.3-70.7
	c5.7-11,11.4-22,15.9-33.5c4.8-12.2,7.3-24.8,8.1-37.9c0.7-10.1-1.1-19.8-3.1-29.6c-1.8-8.8-4.7-17.3-7.3-25.9
	c-2.8-9.3-4.5-18.8-5.3-28.4c-0.4-4.9,0.4-9.7,1.7-14.3c1.1-3.8,2.5-7.4,3.8-11.1c0.1-0.3,0.2-0.7,0.4-1.1c-0.5-0.2-0.8-0.3-1.1-0.4
	c-4.9-1.6-7.7-5.6-7.9-10.7c-0.1-2.7-0.2-5.4-0.3-8.1c0-0.9-0.4-1.6-1.1-2.4c-2.7-3-5.4-6-7.7-9.2c-1.8-2.6-3.2-5.4-4.6-8.3
	c-0.4-0.7-0.4-1.9,0-2.6c0.5-1.3,1.3-2.7,2.3-3.6c4.9-4.4,9.2-9.4,13.4-14.4c3-3.6,6.2-7.1,9.3-10.5c3.6-4,6.2-8.7,8.3-13.7
	c2.4-5.8,4.8-11.6,7.3-17.3c2.5-5.8,6.1-10.7,10.8-15c6.1-5.6,11.9-11.6,17.9-17.4c0.9-0.8,1.7-1.8,2.4-2.6c-0.6-2.4-1.3-4.7-2-7.5
	c-2,4-5,6.2-9,6.9c0.9-0.6,1.8-1.2,2.7-1.8c1-0.7,1.9-1.5,2.8-2.3c2.2-2.2,3-4.8,2.2-7.9c-0.4-1.4-0.9-2.7-1.6-4
	c-0.9-1.7-1.9-3.3-3-4.8c-2.3-3.4-4.5-6.8-5-11.3c-0.8,0.4-1.4,0.6-1.9,1c-3.2,2.3-6.3,4.6-9.4,7.1c-2.3,1.9-4,4.3-5.3,7
	c-1.4,2.9-1.6,5.9-0.8,9.1c0.4,1.4,0.8,2.9,1.1,4.3c-2.9-4.1-3.6-8.5-1.7-13.2c1.3-3.4,3.4-6.3,6.2-8.5c3.4-2.6,6.9-5.1,10.4-7.6
	c0.9-0.6,1.5-1.3,1.8-2.4c0.7-2.3,1.4-4.6,2.4-6.8c3.2-6.8,4.4-14.1,5.3-21.4c0.5-4.2,1.1-8.4,1.9-12.5c1.2-6.5,4.2-12.2,8.8-17.1
	c3.1-3.3,5.8-7,8.1-10.9c5.1-8.4,6.2-17.3,4.2-26.8c-1.2-5.5-2.3-10.9-3.2-16.4c-1.4-8.7-0.2-17,3.7-24.9c3.1-6.3,8.1-9.7,15-10.7
	c1.5-0.2,2.7-0.8,3.9-1.9c2.8-2.6,6.4-3.8,10.2-3.6c3.2,0.1,6.5,0.6,9.6,1.3c4.9,1.2,8.5,4.4,11.1,8.7c2.7,4.5,4.1,9.5,5,14.7
	c1.1,6.4,1.1,12.9,1.5,19.4c0.2,3.5,0.8,7,1.3,10.5c0.1,0.6,0.3,1.2,0.5,1.7c1,3.1,2.3,6,5.9,7.5c-2.5,1-4.3,0-6.3-0.8
	c-1,1.3-1.9,2.6-2.9,3.8c-2.8,3.3-6,6.2-9.4,8.8c-0.9,0.7-0.9,0.7-1.2,2.2c2.1,0.3,4.2,0.4,6.3,0.3c3.3-0.2,6.6-0.5,9.9-0.7
	c1.7-0.1,3.5-0.1,5.2,0c3.2,0.2,5,2.1,6,5c0.6,1.9,1.3,3.7,1.9,5.5c2.1,0,4,0,5.9,0c2.9,0,4.9,1.3,6.7,3.5c3.4,4.2,4.3,8.9,3,14.1
	c-0.9,3.8-1.9,7.6-3.2,11.3c-2.4,6.8-3.7,13.8-3.6,21.1c0.1,5.5,0.4,11,1.2,16.5c0.2,1.6,0.1,3.3-0.1,4.9c-0.3,2.4-1.3,4.2-4.2,4.2
	c0.2,2.8,0.5,5.5,0.5,8.2c0.1,7,0,14.1,0,21.1c0,8.1,0.3,16.2,0.2,24.2c-0.1,7.2-0.6,14.5-0.9,21.7c-0.3,6.9-0.8,13.9-1.2,20.8
	c-0.1,1.4-0.2,2.9-0.2,4.3c0.1,2.5,0.2,5,0.4,7.4c0.3,4.2,0.6,8.4,1,12.6c-0.2,0-0.4,0-0.6,0c-0.4-6.1-0.9-12.1-1.2-18.2
	c-0.3-6-0.5-12.1-0.4-18.1c0.2-6.7,1-13.4,1.3-20.1c0.2-5,0.1-10.1,0-15.2c0-2.9-0.2-5.7-0.2-8.6c0-11,0.1-22.1,0.2-33.1
	C341.5,238.4,341.5,235.9,341.5,233.2z M339.3,162.7c1.1-0.5,2.2-1.5,3.7-0.6c-0.8,1.5-2.3,1.6-3.5,2c-4.4,1.5-8.9,2.8-13.4,4.2
	c-4.1,1.3-7.5,3.9-10.5,6.9c-0.3,0.4-0.6,1.1-0.5,1.6c0.6,2.2,0.9,4.4,0.3,7c6.2-1.5,11.3,0.4,15.9,4.2c-5.3-1.7-10.4-4.4-15.8-3
	c-2,3.3-3.7,6.3-5.6,9.4c5.6-0.3,10.4,1.6,15,4.4c-0.6,0-1.2,0-1.7-0.2c-1.9-0.5-3.7-1.2-5.6-1.6c-2.3-0.6-4.6-1-6.9-1.4
	c-1-0.2-2-0.1-2.7,0.8c-1.7,2.3-3.3,4.7-5,7c1.5,3.5,4.1,5.4,7.3,6.6c2.8,1.1,5.7,1.9,8.6,2.7c3.9,1.1,7.9,2,11.8,3.2
	c3,0.9,5.6,2.7,7.6,5.1c2.4,2.9,4.4,6.1,4,10.4c0.6,0.2,1.2,0.5,1.9,0.8c0.3-0.7,0.6-1.3,0.8-1.9c0.6-2.3,0.4-4.6,0.1-7
	c-1.8-12.1-1.8-24,2.3-35.8c1.5-4.3,2.4-8.9,3.5-13.3c1.3-5.2-0.9-9.3-4.4-12.9c-0.6-0.6-1.5-1.2-2.3-1.3c-2-0.3-4.1-0.3-6.5-0.4
	C338.4,160.8,338.8,161.7,339.3,162.7c-2.4-1.7-4.1-4-5.1-6.7c-0.3-0.9-0.6-1.9-0.9-2.8c-1-2.9-2.2-4-5.3-4c-2.9,0-5.7,0.3-8.6,0.3
	c-3.5,0.1-6.9,0.1-10.4,0.2c-0.6,0-1.1-0.1-1.8-0.1c-1,8-0.4,15.6,3.9,23c3.8-4.1,7.5-7.9,11.1-11.8c0.1,0.1,0.2,0.2,0.4,0.3
	c-2.8,4.8-6.3,9-11.2,12.4c1.3,0.7,2.2,1.1,3.1,1.6c2.6-3.3,5.6-6.1,9.4-7.5C328.9,165.6,334.1,164.3,339.3,162.7z M205.2,386.9
	c-2.2,3.4-4.7,5.9-7.7,8.1c-0.4,0.3-0.7,0.9-0.9,1.5c-1.3,4-2.5,8.1-3.7,12.1c-1.3,4.6-1.6,9.2-1.2,13.9c0.8,8.6,2.3,17.1,4.7,25.3
	c2.7,9.3,5.7,18.5,7.7,27.9c2.5,11.7,3.7,23.4,2.6,35.3c-1.1,10.9-3.3,21.5-7.2,31.7c-4.3,11.4-9.8,22.2-15.4,33
	c-12.2,23.8-25,47.2-36.6,71.3c-9.3,19.2-16.2,39.2-20.1,60.1c-1.9,10-3.3,20.1-4.1,30.3c-0.4,5.5-0.6,11,0.4,16.5
	c0.4,2.3,1,4.7,1.6,7.4c0.7-0.8,1.2-1.1,1.5-1.6c5.8-7.7,12.9-14,22.1-17.5c1.8-0.7,3.7-1.4,5.5-2.1c6.1-2,12-4.5,17.6-7.6
	c7.7-4.3,15.5-8.4,23.2-12.8c5.9-3.4,11.9-7,17.5-10.9c7.3-5.1,12.8-11.9,16.3-20.2c1.5-3.6,2.1-7.2,1.5-11.1
	c-1.3-9.3-5-17.3-12.1-23.7c-4-3.6-7.9-7.3-11.8-10.9c-2.6-2.4-5-4.8-6.9-7.8c-3.1-4.9-3.5-10-1.3-15.4c0.4-0.9,0.7-1.8,1-2.8
	c1.4-6.1,2.7-12.2,4.2-18.3c4.7-17.9,9.5-35.7,14.3-53.6c0.4-1.5,1-3,1.5-4.5c0.1,1.5-0.1,2.9-0.4,4.3c-2.7,11-5.4,22-8.1,33
	c-2.5,10.2-5.1,20.3-7.7,30.5c-0.5,1.8-0.8,3.7-1.1,5.5c3.4-2.3,6.7-4.6,10.1-6.7c3.5-2.1,7.2-3.8,10.9-5.6
	c4.7-2.4,9.5-4.7,14.2-7.1c5.4-2.8,10.6-6.2,15-10.4c3.4-3.2,6.6-6.5,9-10.4c2.8-4.4,2.8-8.9,0.1-13.2c-1.2-1.9-2.5-3.8-4.2-5.3
	c-3.2-2.9-6.6-5.5-10-8.1c-3.4-2.6-6.9-5.1-10.3-7.8c-2.8-2.2-4.9-5-6.1-8.3c-2.1-5.7-2.7-11.5-0.9-17.3c1.4-4.7,2.2-9.6,3-14.4
	c0.9-5.4,1.5-10.9,2.6-16.3c3.7-18.4,7.7-36.8,11.5-55.2c0.2-1.2,0.6-2.3,1-3.5c0.4,0.5,0.4,1,0.3,1.4c-1.1,6.2-2.1,12.5-3.3,18.7
	c-2.6,13.4-5.5,26.8-8,40.2c-1.2,6.4-2.1,13-3.1,19.5c0,0.2,0,0.5,0.1,0.8c2.3-2.4,4.3-4.9,6.7-7c5-4.3,10.1-8.6,15.4-12.6
	c10.7-8,21.2-16.3,31.4-24.9c3.2-2.7,6.4-5.5,8.9-9c4.3-5.9,4.1-9.2-0.9-14.6c-1.7-1.9-3.6-3.8-4.9-5.9c-4.5-7.7-3.3-11.9,1.3-17.4
	c1.7-2.1,4-3.6,6-5.4c1.5-1.4,3.2-2.6,4.4-4.2c1.6-2.2,2.6-4.5,0.9-7.4c-2.5-4.1-3.6-8.8-4.5-13.5c-1-5.1-1.4-10.2-0.5-15.3
	c0.2-1.2,0.3-2.5,0.4-3.8c-4.6,1.8-8.9,3.4-13.2,5.2c-0.9,0.4-1.8,1.2-2.4,2c-1.3,1.6-1.2,3.2,0.2,4.7c0.6,0.7,1.3,1.2,2,1.9
	c4.2,3.9,2,8.6-1.3,10.4c-1.5,0.8-3.2,1.4-4.9,1.7c-9.6,2.2-19.3,2.4-29.1,2.2c-1.1,0-2.2-0.2-3.4-0.3c-0.4,1.9-0.8,3.7-1.3,5.4
	c-0.9,3.7-2.5,6.9-5.3,9.5c-3.6,3.3-9.1,4.2-13.5,2c-2-1-3.9-2.3-5.6-3.7c-3.8-3-6.9-6.8-9.8-10.6
	C209.1,391.9,207.3,389.5,205.2,386.9z M300.3,448.6c-2.9,5.9-7.5,9.9-12.2,13.8c-6.2,5.1-12.4,10.1-18.7,15.1c-1.3,1-2.1,2-2.1,3.7
	c0,1.7-0.3,3.5-0.5,5.2c-1,8.6-2,17.3-2.2,25.9c-0.2,10-0.2,19.9,0.7,29.9c0.4,4.3,0.7,8.7,0.3,13.1c-0.3,3.8-0.8,7.7-0.3,11.5
	c0.2,1.2-0.3,2.5-0.4,3.8c-0.3,1.9-0.6,3.7-0.8,5.6c-0.1,1.6,0,3.2-0.1,4.8c-0.6,12.5-0.4,24.9,0.2,37.4c0.5,10.3,0.6,20.7-0.1,31
	c-0.5,6.9-1.5,13.7-1.2,20.7c0.3,6.9,0.8,13.7,1.7,20.5c1.3,9.9,2.2,19.8,1.8,29.8c0,1.5-0.1,3,0.7,4.4c0.4,0.7,0.5,1.6,0.5,2.4
	c0.1,2.8,0.1,5.6,0,8.4c0,2.7-0.9,5-2.8,6.9c-1.6,1.6-3,3.3-4.9,5.3c3.4-0.1,6.4-0.2,9.4-0.4c3.7-0.2,7.4-0.7,11.1-0.7
	c10-0.1,20.1-0.1,30.1-0.2c2.1,0,4.3,0,6.4-0.9c0.3-3.2,0.7-6.4,2.4-9c1.8-2.7,1.7-4.9-0.5-7.3c-2.1-2.3-2.2-5-0.8-7.8
	c0.8-1.6,1.7-3.2,2.7-4.7c1.2-2,1.6-4.2,1-6.5c-0.7-2.2-1.3-4.5-2-6.7c-1.4-4.5-1.1-9,0.7-13.3c0.8-1.9,1.8-3.8,2.8-5.7
	c0.2-0.5,0.7-1,0.6-1.4c-0.5-1.7,0.2-3.3,0.2-4.9c0-2.6-0.2-5.3-0.5-7.9c-0.6-5.3-1.3-10.6-1-16c0.5-7.7,0.8-15.4,1.2-23.1
	c0.6-13.3-0.2-26.4-2.8-39.4c-3.1-16-4.1-32.1-3.1-48.4c0.8-12.5,2.6-24.7,5.3-36.9c0.6-2.7,0.8-5.5,0.8-8.3c0-4.2-1.9-7.9-3.9-11.4
	c-5.9-10.2-11.5-20.5-16.7-31.1C302.5,453.4,301.5,451.1,300.3,448.6z M292,293.7c-0.2,0-0.3-0.1-0.5-0.1c-0.6,1.6-1.3,3.2-1.8,4.8
	c-3.1,9.5-4.2,19.2-2.3,29c0.9,4.4,2.4,8.7,3.7,13c1,3.3,2.6,6.3,4.6,9c1.7,2.4,3.6,4.7,5.2,7.1c0.8,1.2,1.4,2.5,1.8,3.9
	c0.4,1.4,0.1,1.9-1.4,2.2c-1.2,0.2-1.7,0.8-1.7,2c-0.1,1.5-0.4,3-0.4,4.5c-0.4,9.7,1.4,18.9,6,27.5c1,1.9,1.2,3.9,0.2,5.9
	c-0.5,1-0.6,2-0.3,3.1c1.7,6.3,3.2,12.7,5.7,18.8c2.1,5.2,4.2,10.5,5.8,16c2.5,8.5,5.6,16.7,9.6,24.6c2.4,4.7,4.8,9.4,7.1,14.2
	c4,8.3,5.7,17.1,5.2,26.4c-0.4,7.1-1.8,13.9-4.1,20.6c-1.5,4.5-3,9.1-3.3,13.8c-0.3,4.6,1.1,8.5,4.6,11.5c1.4,1.2,2.8,2.3,4.4,3.2
	c3.6,2,7.3,3.8,11.2,5.7c-0.1-1.2-0.2-2.3-0.3-3.4c-0.9-6.7-1.9-13.4-2.9-20.2c-1.2-8.5-1.3-17.2-1.4-25.8c0-0.8,0.1-1.7,0.2-2.5
	c0.4,0.3,0.5,0.6,0.5,0.9c0.4,4.6,0.7,9.2,1.1,13.8c0.3,4,0.5,8,1,12c1.2,9.5,2.5,19,3.9,28.5c0.5,3.7-0.6,6.6-3.3,8.9
	c-1.8,1.6-3.8,3-5.7,4.5c-2.3,1.8-4.8,3.5-6.8,5.6c-4.3,4.2-4,8-1.2,13.1c0.9,1.6,2.4,2.9,3.7,4.2c1.6,1.6,3.4,2.9,5.2,4.4
	c4.3,3.7,7.2,8.3,9.4,13.4c0.2,0.5,0.5,1,0.9,2c0.4-1.7,1-2.9,1-4.2c0.2-3.5,0.5-7.1,0.2-10.6c-0.6-8.4-1.3-16.9-1.1-25.3
	c0.1-4.4-0.2-8.8,0.6-13.6c0.2,1.3,0.4,2.2,0.5,3.1c0.1,0.6,0.1,1.2,0.1,1.8c0.5,11.4,0.4,22.8,1.8,34.1c0.7,6,0.3,12-2.6,17.4
	c-1.2,2.3-2.8,4.5-4.4,6.5c-1.8,2.4-3.3,4.8-4.2,7.7c-0.7,2.3-0.7,4.6,0.1,6.9c1.4,3.8,3.3,7.5,6,10.6c6.1,6.9,13.1,12.5,21.5,16.2
	c5.3,2.3,10.8,4.2,16.3,6.2c4.1,1.5,8.2,3.2,11.9,5.6c1.3,0.8,2.5,1.8,3.9,2.9c-0.6-3.9-1.9-7.1-3.7-10.2
	c-7.7-13.9-13.8-28.3-18.3-43.5c-3.1-10.6-6.3-21.2-8-32.2c0.7,1.6,1.3,3.2,1.8,4.8c2,7,4,13.9,6,20.9c5.1,17,11.6,33.5,20.2,49.1
	c1.3,2.3,2.2,4.8,3.1,7.3c1,2.7,1.3,5.6,1.1,8.5c-0.2,1.8-0.9,3.2-2.6,3.9c-1.9,0.8-3.7,1.8-5.5,2.6c-1.4,0.6-2.4,1.5-3.1,2.8
	c-0.7,1.4-0.6,2.1,0.9,2.7c2.6,1.1,5.2,2.3,8,3.2c10.1,3.1,19.4,8,28.4,13.4c7.1,4.2,14.1,8.8,21.1,13.2c3.4,2.1,6,4.8,7.4,8.6
	c0,0.1,0.2,0.1,0.4,0.2c0.9-1.8,1.1-2.7,0.5-4.7c-1-3.1-2.1-6.3-3.6-9.3c-4.4-8.8-9.6-17.1-15.2-25.2
	c-12.5-17.9-23.6-36.5-32.9-56.2c-6.5-13.9-13.3-27.6-20.4-41.2c-6.1-11.6-12.6-23.1-19.1-34.5c-12.1-21.4-18.9-44.5-22.8-68.6
	c-1.4-8.8-2.6-17.6-4.3-26.4c-4-19.8-9.5-39.1-16.3-58.2c-4-11.4-8.2-22.7-12.2-34.1c-3.4-9.9-5.6-20-7.3-30.3
	c-0.6-3.6-0.9-7.2-1.5-10.8c-0.5-3.6-1-7.2-1.7-10.7c-0.7-3.6-0.4-7.3-1.3-10.9c-0.5-2-0.9-3.9-1.8-5.8c-1.7-3.3-3.8-6.3-6.3-9.1
	C295.9,301.2,293.1,298,292,293.7z M176.6,350.8c4.5,0.9,6.8,3.9,8.4,7.6c0.5,1.2,0.9,2.6,1.2,3.9c1.1,6.6,2.1,13.3,2,20
	c0,1.4,0,2.7,0.3,4.1c0.7,3.5,2.9,5.8,6.2,6.9c1.1,0.4,2.2,0.5,3.1-0.5c0.9-1.1,0.8-2.2,0.2-3.4c-0.5-0.9-1-1.7-1.5-2.5
	c-3.2-6.4-2.8-8.5,1.3-13.3c2.2-2.6,4.6-5.1,6.7-7.7c4.5-5.4,8-11.4,9.9-18.2c1-3.6,2-7.1,3.1-10.7c2.7-8.9,5.5-17.7,8.2-26.6
	c0.5-1.7,1.2-3.3,2.4-4.7c-1.1,3.9-2.4,7.6-3.5,11.5c-2.7,9.6-5.5,19.2-8.1,28.8c-2.4,9-6.9,16.8-13.3,23.6
	c-1.7,1.8-3.3,3.6-4.9,5.4c-0.5,0.5-0.9,1.2-1.3,1.8c2.8,0.9,3.5,1.3,5.4,3.7c2.5,3.1,4.9,6.3,7.3,9.5c3.6,4.7,7.2,9.5,11.8,13.4
	c1.9,1.6,4,3,6.3,3.9c2.7,1.1,5.4,0.7,7.9-0.5c1.7-0.8,2.2-2.2,1.3-3.9c-0.4-0.7-0.9-1.4-1.3-2.1c-1-1.3-2.1-2.6-2.9-4
	c-1.5-2.5-2.5-5.2-2.2-8.2c0.1-1,0.2-2.1,0.3-3.1c0.4-2.8,0.7-5.7,1.4-8.5c1.2-4.6,2.6-9.2,4-13.7c3.5-11.5,6.5-23.1,8.5-35
	c0.9-5.1,1.8-10.3,2.7-15.4c0.1-0.5,0.3-0.9,0.5-1.4c0.3,0.5,0.3,0.8,0.2,1.2c-0.8,5.5-1.5,11.1-2.4,16.6c-2,11.9-4.6,23.5-8.3,35
	c-1.7,5.4-3.3,10.8-4.8,16.3c-0.5,1.8-0.7,3.6-0.7,5.4c1.6,0,3-0.1,4.3,0c2.5,0.2,4.7,1.1,6.9,2.1c1.6,0.7,3.4,1.5,5.1,1.6
	c6,0.1,12.1,0.2,18.1-0.2c4.3-0.3,8.7-1.2,13-2c1.4-0.3,2.9-1,4.1-1.9c2.2-1.6,2.4-4,0.6-6.1c-0.7-0.8-1.5-1.5-2.3-2.2
	c-1.2-1.1-2.1-2.4-2-4.1c0-0.7-0.2-1.3-0.4-2c-0.3-1.3-0.7-2.6-0.9-4c-1.3-10.5-2.7-21-3.9-31.5c-0.4-2.9-0.5-5.9-0.7-8.8
	c1.6,7.1,2.6,14.3,3.9,21.4c1.3,7.2,1.4,14.5,2.9,22.2c2.1-2.8,4.8-3.6,7.4-4.6c4.3-1.6,8.5-3.4,13-5.2c-0.5-1-0.9-2-1.4-2.7
	c-1-1.4-2-2.8-3.1-4.2c-3.1-4-5.8-8.3-7.4-13.2c-1.1-3.5-2.2-6.9-3.1-10.4c-0.6-2.3-1-4.7-1.2-7.1c-0.7-10.8,0.9-21.2,6-30.9
	c0.3-0.6,0.4-1.3,0.4-1.9c-0.9-9-4.6-16.5-12.4-21.6c-2.9-1.9-5.7-4-6.8-7.3c-1.2-0.3-2.2-0.4-3.1-0.9c-0.9-0.4-1.7-1.2-2.5-1.8
	c-0.4,0.5-0.6,0.9-0.9,1.3c-1.4,2.4-4.3,2.5-5.6-0.4c-0.6-1.2-0.8-2.6-1.1-3.9c-0.2-1-0.3-1.9-1.3-2.5c-1.7-1.1-2.2-2.8-2.2-4.7
	c0-1,0-2,0-3.4c-0.5,0.9-0.8,1.4-1.1,1.9c-2.9,5.3-6,10.5-10.4,14.7c-6.2,6.1-12.3,12.3-18.6,18.2c-4.7,4.4-8.4,9.3-10.9,15.1
	c-2.4,5.6-4.7,11.3-7.1,16.9c-2.2,5.3-5,10.1-8.9,14.4c-2.3,2.5-4.6,5-6.8,7.6C187.2,339.7,182.5,345.5,176.6,350.8z M354.5,749.7
	c1.9,0.6,3.4,1.1,5,1.7c5.5,1.9,11.1,4,16.7,5.8c4.8,1.5,9.8,1.9,14.8,1.4c9.7-0.9,19.3-2.6,28.7-5.1c5.8-1.5,11.5-3.6,17.3-5.2
	c3-0.8,6.1-1.7,9.1-1.5c4.8,0.3,9.3-0.9,13.8-2c2.7-0.7,3.5-2.8,2.3-5.3c-0.6-1.1-1.2-2.3-2.1-3.2c-1.7-1.6-3.6-3-5.5-4.2
	c-4.6-2.9-9.3-5.6-13.8-8.6c-7.5-5.1-15.5-9.3-23.7-13.2c-2.3-1.1-4.8-1.9-7.2-2.8c-3.2-1.2-6.5-2.3-9.8-3.6c-0.9-0.3-1.7-1-2.5-1.6
	c-1-0.8-1.2-1.8-0.8-3.1c0.7-2.2,2.2-3.7,4.2-4.8c1.5-0.7,3-1.3,4.5-2.1c2.5-1.3,2.9-3.2,1-5.3c-1.2-1.3-2.6-2.5-4.1-3.5
	c-3.3-2.3-7-3.8-10.8-5.1c-4.5-1.6-8.9-3.2-13.4-4.9c-7.5-2.7-14-7-19.9-12.3c-4.6-4.1-8.7-8.6-11.2-14.4c-0.1-0.3-0.2-0.6-0.4-0.8
	c-2.1-2.3-2.7-5.1-3.2-8.1c-0.1-0.6-0.3-1.3-0.5-1.9c-0.4,1.4-0.6,2.7-0.7,4c-1,8-2,16-2.9,24c-0.5,4.2-0.6,8.4-1.8,12.5
	c-0.1,0.5,0,1,0,1.5c0.1,1.1,0.4,2.2,0.5,3.3c0.1,1.1-0.1,2.3-0.1,3.4c0.1,3.2,0.3,6.3,0.4,9.5c0,5.2,0.3,10.4,1.3,15.5
	c1.1,5.9,3.4,11.4,6.3,16.7c1.4,2.5,3.1,4.9,4,7.6c0.9,2.8,2.6,5,4.3,7.3c0.4,0.5,0.7,1,1,1.5c0.7,1.1,1,2.2,0.5,3.4
	C355.4,747.5,355,748.6,354.5,749.7z M246.6,622.5c-0.1,0-0.3,0-0.4,0c-0.1,0.4-0.2,0.8-0.3,1.2c-2.4,9.4-4.7,18.9-7.1,28.3
	c-2.7,10.5-5.6,21-6.4,31.9c-0.1,1-0.5,2.1-0.8,3.1c-1.1,3.5-2.8,6.7-4.8,9.7c-4.8,7.4-11.2,13.3-18.8,17.7
	c-12.5,7.2-25.1,14.3-37.7,21.1c-4.2,2.3-8.6,4-13.1,5.5c-4.4,1.5-8.8,3.1-13,5.2c-6.9,3.5-12.1,9-16.5,15.1c-1.4,2-1,3.2,1,4.4
	c0.6,0.3,1.2,0.6,1.9,0.8c3.8,1.3,7.7,1.6,11.6,1.5c5.6-0.2,11.1-1.3,16.5-2.7c7.6-1.9,15.1-4.2,22.7-6c10.9-2.6,21.8-4.9,32.7-7.3
	c9.1-2,18.1-4.2,27.3-5.1c1.3-0.1,2.6-0.4,4.1-0.7c-0.3-0.4-0.3-0.6-0.5-0.8c-2.1-1.7-2.8-4-2.6-6.6c0.3-3.6,0.4-7.2,0.6-10.9
	c0.1-1.9,0.4-3.6,1.1-5.4c2.2-5.6,3.8-11.5,4.7-17.5c1-7.1,1.8-14.2,2.7-21.3c0.3-2,0.6-3.9,0.1-6.1c-0.5-2.5,0.3-5.2,0.5-7.8
	c0.1-0.8,0.4-1.6,0.3-2.4c-0.6-4.6-1.2-9.1-2.1-13.6c-1.7-8.5-3-17.1-3.5-25.8C246.8,626.2,246.7,624.3,246.6,622.5z M303.8,405.6
	c-3.2,2.6-6.3,5-9.2,7.7c-1.6,1.5-2.8,3.5-4,5.4c-1.2,1.9-1.3,4.1-0.7,6.3c0.7,2.7,1.9,5.1,3.7,7.2c1.5,1.7,3,3.4,4.5,5.1
	c1.7,2,3.1,4.2,3,6.9c-0.1,1.7,0.4,3.1,1.1,4.5c4.7,10.4,10.1,20.5,15.8,30.3c2.4,4,4.6,8.1,6.6,12.4c1.9,3.9,2.2,8.1,1.3,12.4
	c-0.4,1.8-0.7,3.6-1.2,5.3c-3.1,12.3-4.5,24.8-5.2,37.4c-0.5,8.6-0.1,17.2,0.6,25.8c0.3,4.1,0.9,8.3,1.5,12.4c1.5,9.5,3.7,19,4,28.7
	c0.1,5.6,0.2,11.2,0.1,16.8c-0.3,8.2-0.9,16.4-1.2,24.7c-0.1,3.9,0.2,7.8,0.6,11.7c0.3,3.8,1.1,7.6,0.4,11.5c0,0.2,0.2,0.4,0.3,0.6
	c3.6-0.3,7.1-0.5,10.6-0.8c0.1-1.8,0.2-3.4,0.4-4.9c1.1-9.1,2-18.3,3.3-27.4c0.6-4.7,0.9-9.4,3.1-13.8c0.1-0.2,0.1-0.6,0.1-0.9
	c0.3-7.8,0.5-15.7,0.8-23.5c0-1.1-0.3-1.8-1.1-2.5c-1.7-1.4-3.3-2.8-4.9-4.3c-1.8-1.6-3.4-3.6-4.2-5.9c-1-3-1.7-6.1-2.5-9.1
	c-0.2-0.9-0.3-2-0.2-2.9c0.7-5.2,1.4-10.5,2.3-15.7c0.6-3.7,1.3-7.4,2.1-11.1c0.3-1.3-0.1-2.1-1.1-2.9c-2.9-2.4-4.5-5.5-4.8-9.2
	c-0.2-2.2-0.2-4.4,0.2-6.5c1-4.5,2.2-8.9,3.6-13.3c2.1-6.7,3.3-13.5,3.4-20.5c0.1-6-0.5-11.9-2.9-17.5c-1.9-4.4-3.9-8.8-6.1-13.1
	c-4.5-9-9.2-17.9-11.9-27.6c-1.8-6.5-3.9-12.8-6.5-19.1c-1.9-4.7-3.5-9.5-4.5-14.5C304.6,409.6,304.2,407.7,303.8,405.6z
	 M325.5,278.8c0.1-0.1,0.2-0.1,0.4-0.2c0-1.4,0-2.8,0-4.3c0-2.1-0.9-3.7-2.6-4.8c-1.6-1-3.2-2-4.9-2.8c-2-1-4.1-1.9-6.2-2.9
	c-3.6-1.8-6.8-4.1-9.5-7.2c-0.4-0.5-0.8-1.1-1.2-1.7c0.1-0.1,0.3-0.2,0.4-0.3c0.8,0.7,1.7,1.4,2.5,2.2c3.8,3.3,8.3,5.5,12.8,7.6
	c2.3,1,4.5,2.2,6.6,3.5c2.5,1.5,3.6,3.8,3.7,6.6c0,1.7,0.1,3.3,0.1,5c0,1-0.1,1.9,1.1,2.2c1,0.2,1.3-0.8,1.8-1.5
	c0.1-0.1,0.2-0.3,0.2-0.4c1.7-3.5,3-7.1,3.2-11c0.5-8,0.4-16-1.5-23.9c-0.6-2.3-0.8-4.8-1-7.2c-0.5-6,0.3-11.8,4.4-16.8
	c-1.3-0.8-2.5-1.7-3.8-2.2c-2.8-1.1-5.7-1.9-8.6-2.8c-3.8-1.1-7.7-2-11.5-3.2c-2.7-0.9-5.3-2.2-7.4-4.3c-1.1-1-2.1-2.1-3.1-3.2
	c-1.5,0.8-3,1.5-4.3,2.3c-1.7,1.1-3.3,2.3-4.8,3.7c-0.7,0.6-1.4,1.7-1.3,2.5c0.2,2-0.2,3.7-1.4,5.3c2.1,1.7,2.5,4,2.6,6.3
	c7.6,2.8,20.2,18.8,21.4,22.6c-3.7-4-7.3-8-10.9-12.1c-3.1-3.6-6.5-6.9-10.6-9.5c-0.8,1.7-1.4,3.3-2.2,4.8c-0.6,1.1-0.6,2.1-0.2,3.3
	c1.3,4.1,0.3,7.2-3.1,9.7c-0.6,0.5-1.3,1-1.5,1.1c-0.3,2.4-0.5,4.3-0.7,6.3c5.4,6.5,9.8,13.7,12.6,21.9c-4.9-6.7-8.6-14.3-13.4-20.6
	c-2.4,0.6-4.5,1.2-6.8,1.8c-0.4,2.1-1.1,4.5-3.6,6c0.7,1,1.1,1.9,1.8,2.5c1.8,1.6,3.6,3.2,5.6,4.6c5.9,4.2,9.7,9.8,11.5,16.8
	c0.5,2.1,0.9,4.3,1.1,6.5c0.4,3.3,1.5,6.1,3.5,8.7c0.9,1.1,1.8,2.3,2.7,3.3c3.2,3.6,5.8,7.5,7.8,11.9c0.2,0.4,0.5,0.8,0.9,1.3
	c0.3-0.6,0.5-0.9,0.7-1.2c3.2-7.2,5.9-14.5,7.9-22.1c0.9-3.6,2.1-7.1,3.3-10.6c0.7-2,1.7-4,3.4-5.8
	C324.3,277.4,324.9,278.1,325.5,278.8z M290,212.1c2.4-3.4,6.1-5.3,9.7-7.4c1.2-0.7,2.2-1.9,3-3c1.4-1.8,2.7-3.7,3.9-5.5
	c1.5-2.2,3.1-4.5,4.5-6.8c1.3-2,2.4-4.1,2.6-6.8c-3.3-0.2-6.1,1-9.1,1.6c2.7-2.3,5.8-3,9.4-2.5c0-0.9,0-1.7,0-2.4
	c0.1-1.8-0.5-3.2-2.1-4.2c-1.5-1-2.6-2.5-3.4-4.1c-2-3.8-2.8-7.8-3.1-12c-0.4-5.3,0.1-10.6,1.1-15.8c0.1-0.7,0.2-1.3,0.3-2.4
	c-1.4,1.3-2.3,2.3-3.3,3.2c-3,2.8-6.5,3.6-10.5,2.9c-2.9-0.5-5.4-1.8-7.7-3.6c-0.4-0.3-0.9-0.6-1.3-0.8c-0.5,4.4-0.9,8.6-1.4,12.7
	c-0.6,5.7-3.3,10.4-7.5,14.3c-2.4,2.2-5.1,4-8.1,5.4c-1.7,0.8-3.4,1.6-5.2,2.3c-1.7,0.7-2.7,1.8-3,3.6c-0.1,0.5-0.3,1-0.3,1.6
	c-0.5,4-1,7.9-1.3,11.9c-0.3,4-1,7.8-2.8,11.3c-0.1,0.1,0,0.4,0,0.9c2.3-1.6,4.4-3.1,6.4-4.7c2.4-1.9,5-3.6,7.9-4.9
	c2.1-1,4.3-1.1,6.3,0.1c2.9,1.8,5.9,3.7,8.6,5.8c2,1.5,3.6,3.6,3.9,6.2C287.8,210.8,288.4,211.6,290,212.1z M273.1,127.1
	c-0.1-0.2-0.2-0.3-0.3-0.4c-1.4-3.7-1.2-7.4-0.2-11.1c1.9-7.8,3.8-15.5,6-23.2c0.9-2.9,0.7-5.7,0.1-8.4c-0.4-1.6-0.2-3,0.3-4.4
	c0.3-0.9,0.6-1.8,1-2.9c-1.4,0.4-2.3,0.7-3.2,1c-5.5,1.4-9.5,4.7-12,9.8c-4,8-5.1,16.4-3.5,25.1c1,5.4,2.1,10.8,3.2,16.2
	c1.8,8.9,0.7,17.4-3.8,25.4c-2.7,4.8-6,9.2-9.8,13.3c-3.9,4.3-6.4,9.3-7.5,15c-0.9,4.7-1.7,9.5-2.2,14.3c-0.8,7.2-2.2,14.2-5.5,20.7
	c-0.6,1.3-1.1,2.6-1.6,4c-0.3,0.7-0.4,1.4-0.6,2.2c0.5-0.1,0.7-0.1,0.9-0.2c6.5-4,12.3-8.7,16.9-14.8c2.6-3.4,4.2-7.3,4.5-11.7
	c0.4-4.1,0.8-8.1,1.2-12.2c0.4-3.9,1.6-7.6,4-10.6c2.4-3,5.1-5.8,7.6-8.7c0.3-0.3,0.7-0.5,1.1-0.8c-1.3,2.1-2.7,3.9-4.2,5.7
	c-1.4,1.8-3.1,3.3-4.3,5.8c1.4-0.7,2.5-1.1,3.5-1.6c2.4-1.3,4.9-2.4,7.1-4c5.1-3.6,8.5-8.5,9.3-14.9c0.6-4.4,1.3-8.8,1.9-13.2
	c0.1-0.6-0.2-1.3-0.6-1.8c-4-4.3-6.2-9.6-8.1-15c-0.2-0.6-0.5-1.2-0.7-1.7c-0.1,0-0.2,0.1-0.3,0.1
	C273.2,124.9,273.2,126,273.1,127.1z M250.5,588.5c-0.4,0.2-0.7,0.4-0.9,0.6c-4.7,3.7-9.9,6.7-15.2,9.3c-6.4,3.2-12.9,6.2-19.3,9.5
	c-3.4,1.8-6.6,4-9.7,6.3c-1.5,1.1-2.9,2.7-4,4.3c-3.5,5-3.3,11,0.2,16.4c2.2,3.3,5.2,5.9,8,8.6c3.8,3.5,7.6,7.1,11.4,10.7
	c5.1,5,8.6,10.9,10.2,17.8c0.1,0.6,0.3,1.1,0.6,2c0.3-0.7,0.5-1.2,0.6-1.7c1.1-4.7,2-9.4,3.2-14.1c2-8.4,4.3-16.6,6.2-25
	c2-8.7,3.8-17.4,5.4-26.2c1.1-5.9,1.7-12,3.5-17.7C250.6,589.1,250.6,589,250.5,588.5z M265.6,480.7c-0.6,0.4-1,0.5-1.4,0.8
	c-2.1,1.5-4.1,3.1-6.2,4.6c-6.1,4.5-12.1,9-17.4,14.4c-2.4,2.4-4.4,5.1-6.4,7.9c-0.8,1.1-1.3,2.5-1.7,3.9c-0.5,1.7-0.9,3.5-1.2,5.3
	c-0.3,1.5-0.6,3-0.5,4.5c0.2,7,2.8,12.9,8.6,17.2c3.1,2.3,6.2,4.5,9.4,6.7c5.5,3.8,10.7,7.9,14.4,13.6c0.1,0.1,0.4,0.2,0.6,0.3
	c0.4-5.1,0.8-10,0.2-15c-0.6-5.8-1.1-11.6-1.4-17.4c-0.4-9.4-0.1-18.7,0.8-28.1c0.5-5.4,1.4-10.8,2.1-16.1
	C265.5,482.5,265.5,481.7,265.6,480.7z M319.8,132.6c-0.5-1.1-1.8-1.4-1.6-2.7c1.2,0.7,2.3,1.4,3.4,2.1c-2.7-5.1-3.2-10.6-3.9-16.1
	c-0.3,2.3-0.7,4.7-1,7c-0.5-1-0.9-1.9-0.9-2.9c-0.2-3.9-2.2-6.6-5.4-8.4c-2.9-1.7-6.1-2.9-9.2-4.3c-2.2-1-4.5-1.7-6.7-2.7
	c-6.1-2.7-10.7-6.9-13.5-13.1c-0.2-0.4-0.5-0.8-0.8-1.3c-0.2,0.4-0.3,0.6-0.4,0.8c-0.9,4-1.9,7.9-2.8,11.9
	c-1.1,4.8-2.3,9.7-3.4,14.5c-0.2,1-0.2,2.2,0.1,3.1c2.7,7.2,5.7,14.3,11,20.1c5.6,6.2,14,6.7,20,0.9c3.7-3.6,6-8.1,8.1-12.7
	c0.5-1.1,1-2.3,1.5-3.4c-0.1,1.4-0.3,2.7-0.9,3.9c-1.1,2.3-2.3,4.6-3.4,6.9c-1.3,2.5-1.9,5.2-2.2,8.4
	C312.1,140.7,316.4,137.1,319.8,132.6z M262.9,576c-0.1,0-0.2-0.1-0.4-0.1c-0.3,0.3-0.5,0.6-0.8,1c-2.3,2.5-4.4,5.2-6.8,7.5
	c-1.9,1.8-3.1,3.8-3.5,6.3c-0.8,5.9-1.6,11.8-2.7,17.7c-1,5.2-1.4,10.4-0.8,15.7c0.8,6.9,1.6,13.8,2.6,20.7
	c1.1,7.5,3.2,14.8,3.7,22.3c0.1,1.5,1.1,2.5,2.7,2.4c1.5-0.1,2.9-0.4,4.3-0.6c0.2-3.8,0.4-7.2,0.6-10.7c0.5-8.7,1.2-17.5,1.4-26.2
	c0.1-6.9-0.6-13.9-0.7-20.8c-0.1-10.4,0-20.8,0.1-31.3C262.6,578.7,262.8,577.3,262.9,576z M315.9,115.1c0.2-0.6,0.3-0.8,0.3-1
	c0.2-4.3,0.6-8.6,0.6-12.9c0-6.1-1.1-12-3.5-17.6c-2.8-6.5-7.5-10.6-14.6-11.7c-3.7-0.6-7.5-1.1-11.2,0.2c-3.1,1.1-5.5,3-6.8,6.2
	c-1.3,2.9-2.2,5.8-0.3,8.8c0,0.1,0,0.1,0.1,0.2c2.5,6.9,6.8,12.2,13.5,15.4c2.7,1.3,5.6,2.3,8.4,3.4
	C307.4,108.1,312.3,110.3,315.9,115.1z M256.9,246.8c-0.1,2.2-0.3,4,1.3,5.1c1.4,1,1.8,2.2,2.1,3.8c0.2,1.4,0.7,2.8,1.4,4
	c0.8,1.3,1.9,1.3,3,0.1c0.3-0.3,0.5-0.7,0.8-1.1c1.1-1.6,1.4-1.7,3-0.3c0.1,0.1,0.2,0.2,0.3,0.3c2.2,1.9,4.4,1.5,5.8-1
	c0.6-1,0.8-2.3,1.1-3.4c0.3-0.9,0.7-1.5,1.8-1.3c0.4,0,0.8,0.1,1.1,0.1c3.1,0,5.3-2.2,5.3-5.3c0-0.5-0.1-1.1-0.1-1.6
	c-0.1-1,0.2-1.8,1.1-2.3c0.5-0.3,0.9-0.6,1.3-0.9c2.9-2.3,3.7-4.9,2.5-8.4c-0.5-1.5-0.3-2.8,0.3-4.1c0.7-1.6,1.4-3.3,1.9-5.1
	c0.5-1.8-0.1-3.4-1.3-4.8c-1.4-1.6-1.4-1.6-0.3-3.4c1-1.7,1-2.5-0.1-3.7c-0.6-0.6-1.5-0.9-1.9-1.6c-0.4-0.7-0.1-1.7-0.3-2.5
	c-0.8-2-1.7-3.9-3.5-5.2c-2.9-2-5.9-3.9-8.9-5.7c-1.5-0.9-3.2-1-4.8-0.1c-2.2,1.2-4.4,2.4-6.4,3.7c-2.3,1.5-4.4,3.1-6.7,4.6
	c-2.4,1.6-3.3,3.5-2.7,6.4c0.3,1.1,0.7,2.2,1.1,3.2c0.9,2.2,1.1,4.4,0.1,6.6c-0.8,1.9-0.8,3.6,0.9,5.1c1.1,1,1.2,2.2,0.6,3.5
	c-0.5,0.9-1,1.9-1.4,2.8c-1.3,2.9-1.2,3.8,1,6c1,0.9,1.3,2,1.1,3.3C257.1,245,256.9,246.2,256.9,246.8z M256,242.2
	c-0.4-0.4-0.6-0.8-1-1.1c-2.2-1.9-2.3-4.1-1.2-6.5c0.4-1,0.9-1.9,1.4-2.8c0.6-1.1,0.6-2.2-0.4-3.1c-2-1.7-2-3.8-1-6
	c1-2,0.6-3.9-0.1-5.9c-0.6-1.6-1-3.3-1.3-5c-0.1-0.7,0-1.4,0-2.4c-2.1,2.2-3.9,4.3-5.9,6.1c-1.4,1.3-2.1,2.7-2.3,4.5
	c-0.3,3.7-0.8,7.4-0.9,11c-0.1,4.7,0.4,9.4,0.2,14c-0.1,4.4,1.3,8.4,2.1,12.7C249.6,252.9,252.9,247.6,256,242.2z M348,734.6
	c-0.3-0.6-0.5-1-0.7-1.5c-1.6-3-3.2-6-4.8-9c-1.9-3.8-3.6-7.7-4.3-11.9c-1.4-7.6-1.9-15.3-1.1-23c0.1-0.9,0-1.8,0-2.7
	c-1.6,0-2.9-0.1-4.2,0c-1.4,0.1-2.8-0.4-4.2,0.4c0.3,0.8,0.5,1.5,0.7,2.2c1.7,4.9,2,10,0.4,14.9c-1.9,5.6-1.5,4.1-0.3,9.8
	c0.4,1.8,0.8,3.7,1.7,5.4c1.5,3,3.2,6,5,8.9c1,1.6,2.2,3.1,3.5,4.4C341.9,734.8,344.7,735.7,348,734.6z M244.8,726.1
	c-0.2,4.9-0.4,9.1-0.6,13.3c-0.1,2.1,0.7,3.6,2.3,4.9c1.5,1.2,3.1,2.4,4.6,3.6c2.5,1.9,3.8,1.9,6.1-0.2c2.3-2.2,4.6-4.4,6.7-6.7
	c0.9-1,1.6-2.5,1.7-3.8c0.3-2.7,0.3-5.4,0.4-8.1c0-0.5-0.2-1-0.3-1.7C258.5,731.7,251.6,732.5,244.8,726.1z M336.8,555
	c-0.1,0.2-0.2,0.4-0.2,0.7c-1.3,8.4-2.6,16.8-3.9,25.3c-0.2,1.6-0.3,3.2,0.4,4.9c2.4-4.8,6.8-7.4,10.8-10.4c1.3-0.9,2.6-1.9,3.8-2.9
	c1-0.9,2-1.8,2.8-2.9c2.1-2.7,1.8-5.3-0.8-7.6c-0.5-0.5-1-0.9-1.6-1.2C344.4,558.8,340.6,556.9,336.8,555z M258.6,679.5
	c0,3.1,0,6,0,8.8c0.1,9.3-0.2,18.5-2.1,27.7c-0.8,4.1-1.1,8.3-1.1,12.5c3.4,0,6.4-1,9.2-3.3c0.7-15.6-0.9-31-3.2-46.5
	C260.4,679.1,259.6,679.3,258.6,679.5z M253.6,728.9c0.1-1,0.1-1.8,0.1-2.5c0.4-3.7,0.7-7.4,1.2-11c1-7,2.1-14,1.9-21.2
	c-0.1-4.2,0.3-8.4,0.4-12.7c0-0.6,0-1.3,0-1.8c-1.6,0-2.8,0-4.2,0c-0.2,1.3-0.3,2.4-0.4,3.5c-0.6,6.3-1.1,12.6-1.8,18.9
	c-0.7,6.2-2.1,12.2-4.2,18c-0.6,1.6-1.3,3.2-1.1,5C248.1,726.8,250.4,728.4,253.6,728.9z M352.9,748.9c-0.9-0.1-1.4-0.2-2-0.3
	c-3.3-0.2-6.3-1.3-9-3.2c-2.8-1.9-5.1-4.4-7.4-6.9c-0.4-0.4-0.8-0.8-1.2-1.1c-0.1,0.1-0.3,0.1-0.4,0.2c0.2,3.9,0.4,7.7,0.7,11.6
	c0.1,1,0.7,1.5,1.5,1.8c3.3,1.5,6.5,3,9.8,4.5c1.3,0.6,2.3,0.2,3.2-0.9c1.2-1.4,2.6-2.8,3.8-4.1
	C352.1,750.1,352.4,749.6,352.9,748.9z M345.4,638.1c0.3-0.8,0.5-1.3,0.6-1.8c0.9-3.1,2.4-5.8,4.5-8.3c0.6-0.7,1.1-1.4,1.7-2.1
	c1.7-2.1,2.1-4.4,1.1-7c-1.6-4.1-4-7.8-6.9-11c-0.2-0.2-0.4-0.3-0.7-0.5C344.9,611.6,344.7,635.5,345.4,638.1z M321.7,696.3
	c-0.2,0-0.4,0.1-0.6,0.1c-0.3,2.1-0.1,4.1,0.5,6.2c0.6,2,1.1,3.9,1.8,5.8c1.2,3.7,0.8,7.1-1.4,10.3c-0.8,1.1-1.4,2.4-2,3.6
	c-1.2,2.2-0.9,4.2,0.6,6.1c0.4,0.5,0.8,1.1,1.2,1.6c1.4,1.7,1.4,3.6,0.4,5.5c-0.4,0.7-0.8,1.3-1.1,2c-1.9,4-2.5,8.2-1.8,12.7
	c0.8,0,1.6,0,2.4,0c0.2-0.6,0.4-1.2,0.4-1.7c0.1-3.6,1.2-6.9,2.7-10.2c1.5-3.5,1.5-7.2-0.3-10.7c-0.6-1.2-0.8-2.6-1-3.9
	c-0.3-2.7,0.2-5.2,1.4-7.7c1-2.3,1.3-4.6,0.5-7.1C324.2,704.7,323,700.5,321.7,696.3z M348.3,736.8c-4.5,1.2-8.2-0.4-11-3.9
	c-1.7-2.1-3.1-4.6-4.6-7c-0.3-0.4-0.5-0.8-0.7-1.2c0,2.9,0.1,5.7,0.7,8.4c0.4,1.8,1.2,3.7,3,4.9c0.6,0.4,1.1,1,1.7,1.5
	c2.4,2.1,4.6,4.3,7.6,5.6c2.8,1.3,5.7,1.8,8.7,1.4c0.4-1.9,0.4-2-0.6-3.3C351.5,741.1,350,739.1,348.3,736.8z M241.9,243.8
	c0.2,0,0.3,0,0.5-0.1c-0.2-8.4-0.7-16.9,1.4-25.3c-3.4,2.3-6.7,4.5-9.9,6.6c-0.9,0.6-1,1.4-0.7,2.2c0.7,2.1,1.2,4.2,2.3,6.1
	C237.4,236.9,239.7,240.3,241.9,243.8z M324.5,745.5c2.3-0.2,4.5-0.3,6.9-0.5c-0.3-10.5-1.4-20.8-3.7-31.4c-0.7,1.8-1.3,3.1-1.7,4.4
	c-1,3.2-1.3,6.3,0.4,9.4c0.5,0.9,0.8,2,0.9,3c0.6,3.6,0.1,7-1.6,10.3C325,742.1,324.2,743.5,324.5,745.5z M245.4,391.5
	c-1.8-0.9-3.3-1.7-4.8-2.2c-1.8-0.6-3.8-1-5.7-1.2c-2-0.2-2.5,0.5-2.2,2.4c0.4,2.5,1.2,4.8,2.8,6.8c1.6,2.2,3.2,4.5,4.8,6.8
	C243.1,400.5,243.9,396,245.4,391.5z M185.8,371.8c0-0.9,0.1-1.3,0-1.7c-0.4-2.8-0.8-5.7-1.4-8.5c-0.5-2.6-1.7-5-3.5-7
	c-0.8-0.9-1.9-1.7-3-2.2c-2-0.9-3.4,0-3.5,2.3c0,0.6,0.3,1.3,0.5,1.9c0.4,0.9,1,1.7,1.4,2.6c1.5,3.6,3.9,6.6,6.4,9.6
	C183.5,369.7,184.5,370.6,185.8,371.8z M326.8,707.2c2.1-4.5,2.7-8.7,2-12.9c-0.6-3.2-0.2-7-3.4-9.3c-0.1-0.1-0.2,0-0.5-0.1
	c-0.8,1.9-1.7,3.8-2.5,5.8c-0.2,0.4-0.2,0.9-0.1,1.3C323.2,697.1,325.1,701.8,326.8,707.2z M253.9,670.2c-0.9,2.3-1,4.4-1,6.5
	c0,0.9,0.6,1.3,1.5,1.3c2.3-0.2,4.6-0.3,6.9-0.5c0-2.3,0-4.4,0-6.8C258.8,671,256.4,672,253.9,670.2z M204.6,385.6
	c-2-2.1-3.7-4.1-5.5-6c-0.6-0.6-1.5-1.1-2.5-0.4c-0.8,0.6-0.6,1.4-0.4,2.3c0.5,3.6,2.9,6.3,4.4,9.8
	C201.9,389.2,203.1,387.5,204.6,385.6z M325.4,680c0.2,3.1,1,4.4,3.4,4.7c2.4,0.3,4.8,0.1,7.3,0.1c0.3-1.8,0.6-3.5,0-5.3
	C332.5,679.7,329,679.9,325.4,680z M333.7,227.8c2.3,1.4,4.4,2.4,6.8,2.9c-0.2-3.5-1.7-6.7-4.3-8.9
	C335.4,223.8,334.6,225.7,333.7,227.8z"/>
<path class="st0" d="M205.2,386.9c2,2.7,3.8,5.1,5.6,7.5c2.9,3.9,6,7.6,9.8,10.6c1.8,1.4,3.6,2.7,5.6,3.7c4.3,2.3,9.9,1.3,13.5-2
	c2.8-2.6,4.4-5.9,5.3-9.5c0.4-1.7,0.8-3.5,1.3-5.4c1.2,0.1,2.3,0.3,3.4,0.3c9.8,0.1,19.5,0,29.1-2.2c1.7-0.4,3.4-0.9,4.9-1.7
	c3.4-1.7,5.5-6.4,1.3-10.4c-0.7-0.6-1.4-1.2-2-1.9c-1.4-1.5-1.5-3.1-0.2-4.7c0.7-0.8,1.5-1.6,2.4-2c4.3-1.8,8.7-3.4,13.2-5.2
	c-0.1,1.3-0.2,2.6-0.4,3.8c-0.8,5.1-0.5,10.2,0.5,15.3c0.9,4.7,2,9.3,4.5,13.5c1.7,2.8,0.8,5.2-0.9,7.4c-1.2,1.6-2.9,2.8-4.4,4.2
	c-2,1.8-4.3,3.4-6,5.4c-4.6,5.4-5.8,9.7-1.3,17.4c1.3,2.2,3.1,4.1,4.9,5.9c5,5.4,5.3,8.7,0.9,14.6c-2.5,3.5-5.7,6.3-8.9,9
	c-10.3,8.6-20.7,16.9-31.4,24.9c-5.3,4-10.4,8.3-15.4,12.6c-2.4,2.1-4.4,4.5-6.7,7c0-0.3-0.1-0.5-0.1-0.8c1-6.5,1.8-13,3.1-19.5
	c2.6-13.4,5.4-26.8,8-40.2c1.2-6.2,2.2-12.5,3.3-18.7c0.1-0.4,0.1-0.9-0.3-1.4c-0.3,1.2-0.7,2.3-1,3.5c-3.9,18.4-7.8,36.8-11.5,55.2
	c-1.1,5.4-1.6,10.9-2.6,16.3c-0.8,4.8-1.5,9.7-3,14.4c-1.8,5.8-1.2,11.7,0.9,17.3c1.2,3.3,3.3,6.1,6.1,8.3c3.4,2.7,6.9,5.1,10.3,7.8
	c3.4,2.6,6.8,5.3,10,8.1c1.7,1.5,3,3.4,4.2,5.3c2.7,4.4,2.7,8.9-0.1,13.2c-2.5,3.9-5.7,7.2-9,10.4c-4.5,4.2-9.6,7.6-15,10.4
	c-4.7,2.4-9.4,4.7-14.2,7.1c-3.6,1.8-7.4,3.5-10.9,5.6c-3.4,2-6.7,4.4-10.1,6.7c0.4-1.8,0.7-3.7,1.1-5.5c2.5-10.2,5.1-20.3,7.7-30.5
	c2.7-11,5.4-22,8.1-33c0.3-1.4,0.5-2.8,0.4-4.3c-0.5,1.5-1.1,3-1.5,4.5c-4.8,17.9-9.6,35.7-14.3,53.6c-1.6,6.1-2.8,12.2-4.2,18.3
	c-0.2,0.9-0.6,1.9-1,2.8c-2.3,5.3-1.8,10.5,1.3,15.4c1.9,3,4.3,5.4,6.9,7.8c3.9,3.6,7.8,7.3,11.8,10.9c7,6.4,10.8,14.4,12.1,23.7
	c0.5,3.8,0,7.5-1.5,11.1c-3.6,8.2-9,15.1-16.3,20.2c-5.6,3.9-11.5,7.4-17.5,10.9c-7.6,4.4-15.5,8.5-23.2,12.8
	c-5.6,3.2-11.5,5.6-17.6,7.6c-1.9,0.6-3.7,1.4-5.5,2.1c-9.2,3.5-16.2,9.7-22.1,17.5c-0.3,0.4-0.8,0.8-1.5,1.6
	c-0.6-2.8-1.2-5.1-1.6-7.4c-1-5.5-0.8-11-0.4-16.5c0.7-10.2,2.2-20.3,4.1-30.3c3.9-21,10.8-40.9,20.1-60.1
	c11.7-24.1,24.4-47.5,36.6-71.3c5.6-10.8,11.1-21.6,15.4-33c3.8-10.2,6.1-20.8,7.2-31.7c1.2-11.9,0-23.6-2.6-35.3
	c-2.1-9.5-5.1-18.6-7.7-27.9c-2.4-8.3-3.9-16.8-4.7-25.3c-0.4-4.7-0.1-9.4,1.2-13.9c1.2-4.1,2.4-8.1,3.7-12.1
	c0.2-0.5,0.5-1.2,0.9-1.5C200.5,392.8,203,390.2,205.2,386.9z"/>
<path class="st0" d="M300.3,448.6c1.2,2.6,2.2,4.8,3.3,7c5.1,10.6,10.8,20.9,16.7,31.1c2,3.5,3.9,7.2,3.9,11.4
	c0,2.8-0.2,5.6-0.8,8.3c-2.7,12.2-4.6,24.5-5.3,36.9c-1,16.3,0,32.4,3.1,48.4c2.6,13,3.4,26.2,2.8,39.4c-0.4,7.7-0.8,15.4-1.2,23.1
	c-0.3,5.4,0.4,10.7,1,16c0.3,2.6,0.5,5.3,0.5,7.9c0,1.6-0.8,3.2-0.2,4.9c0.1,0.4-0.4,1-0.6,1.4c-0.9,1.9-1.9,3.8-2.8,5.7
	c-1.8,4.3-2.1,8.8-0.7,13.3c0.7,2.2,1.3,4.5,2,6.7c0.7,2.3,0.3,4.5-1,6.5c-0.9,1.5-1.8,3.1-2.7,4.7c-1.5,2.8-1.3,5.5,0.8,7.8
	c2.2,2.4,2.3,4.5,0.5,7.3c-1.7,2.6-2.2,5.8-2.4,9c-2,0.9-4.2,0.9-6.4,0.9c-10,0.1-20.1,0.1-30.1,0.2c-3.7,0.1-7.4,0.5-11.1,0.7
	c-3,0.2-6,0.2-9.4,0.4c1.8-2,3.3-3.7,4.9-5.3c1.9-1.9,2.8-4.3,2.8-6.9c0-2.8,0-5.6,0-8.4c0-0.8-0.2-1.7-0.5-2.4
	c-0.8-1.4-0.7-2.9-0.7-4.4c0.3-10-0.5-19.9-1.8-29.8c-0.9-6.8-1.5-13.6-1.7-20.5c-0.3-7,0.7-13.8,1.2-20.7c0.7-10.3,0.6-20.7,0.1-31
	c-0.6-12.4-0.8-24.9-0.2-37.4c0.1-1.6-0.1-3.2,0.1-4.8c0.2-1.9,0.5-3.7,0.8-5.6c0.2-1.3,0.6-2.6,0.4-3.8c-0.6-3.9-0.1-7.7,0.3-11.5
	c0.4-4.4,0.1-8.8-0.3-13.1c-1-9.9-1-19.9-0.7-29.9c0.2-8.7,1.1-17.3,2.2-25.9c0.2-1.7,0.4-3.5,0.5-5.2c0-1.7,0.8-2.7,2.1-3.7
	c6.3-5,12.5-10,18.7-15.1C292.8,458.5,297.3,454.4,300.3,448.6z"/>
<path class="st0" d="M292,293.7c1.1,4.3,3.9,7.5,6.6,10.7c2.4,2.8,4.6,5.8,6.3,9.1c0.9,1.8,1.3,3.8,1.8,5.8
	c0.9,3.6,0.6,7.3,1.3,10.9c0.7,3.6,1.2,7.1,1.7,10.7c0.5,3.6,0.9,7.2,1.5,10.8c1.7,10.3,3.9,20.5,7.3,30.3
	c4,11.4,8.1,22.7,12.2,34.1c6.7,19,12.3,38.4,16.3,58.2c1.7,8.7,2.9,17.6,4.3,26.4c3.9,24.1,10.7,47.2,22.8,68.6
	c6.5,11.4,13,22.8,19.1,34.5c7.1,13.6,13.9,27.3,20.4,41.2c9.3,19.7,20.4,38.4,32.9,56.2c5.6,8.1,10.8,16.4,15.2,25.2
	c1.5,2.9,2.5,6.1,3.6,9.3c0.7,2,0.4,3-0.5,4.7c-0.1-0.1-0.3-0.1-0.4-0.2c-1.4-3.8-4-6.5-7.4-8.6c-7-4.4-14-9-21.1-13.2
	c-9-5.4-18.3-10.3-28.4-13.4c-2.7-0.8-5.4-2-8-3.2c-1.5-0.6-1.6-1.3-0.9-2.7c0.6-1.4,1.7-2.2,3.1-2.8c1.9-0.8,3.7-1.8,5.5-2.6
	c1.7-0.8,2.4-2.1,2.6-3.9c0.3-2.9-0.1-5.8-1.1-8.5c-0.9-2.5-1.8-5-3.1-7.3c-8.7-15.6-15.2-32-20.2-49.1c-2.1-6.9-4-13.9-6-20.9
	c-0.5-1.6-1.1-3.2-1.8-4.8c1.8,11,4.9,21.6,8,32.2c4.5,15.2,10.6,29.7,18.3,43.5c1.7,3.1,3.1,6.4,3.7,10.2c-1.5-1.1-2.7-2.1-3.9-2.9
	c-3.7-2.4-7.7-4-11.9-5.6c-5.5-2-11-3.9-16.3-6.2c-8.4-3.7-15.5-9.3-21.5-16.2c-2.7-3.1-4.6-6.7-6-10.6c-0.9-2.3-0.9-4.6-0.1-6.9
	c0.9-2.8,2.4-5.3,4.2-7.7c1.6-2.1,3.2-4.2,4.4-6.5c2.9-5.5,3.3-11.4,2.6-17.4c-1.4-11.3-1.3-22.8-1.8-34.1c0-0.6,0-1.2-0.1-1.8
	c-0.1-0.9-0.3-1.7-0.5-3.1c-0.8,4.8-0.6,9.2-0.6,13.6c-0.2,8.5,0.6,16.9,1.1,25.3c0.2,3.5,0,7.1-0.2,10.6c-0.1,1.2-0.6,2.5-1,4.2
	c-0.4-1-0.6-1.5-0.9-2c-2.2-5.1-5.1-9.7-9.4-13.4c-1.7-1.5-3.5-2.9-5.2-4.4c-1.4-1.3-2.8-2.6-3.7-4.2c-2.9-5-3.1-8.8,1.2-13.1
	c2.1-2.1,4.5-3.7,6.8-5.6c1.9-1.5,3.9-2.9,5.7-4.5c2.7-2.4,3.8-5.2,3.3-8.9c-1.4-9.5-2.7-19-3.9-28.5c-0.5-4-0.7-8-1-12
	c-0.4-4.6-0.7-9.2-1.1-13.8c0-0.3-0.1-0.6-0.5-0.9c-0.1,0.8-0.2,1.7-0.2,2.5c0.2,8.6,0.2,17.2,1.4,25.8c0.9,6.7,1.9,13.4,2.9,20.2
	c0.2,1.1,0.2,2.2,0.3,3.4c-3.9-2-7.6-3.8-11.2-5.7c-1.6-0.9-3-2-4.4-3.2c-3.6-3-4.9-6.9-4.6-11.5c0.3-4.8,1.7-9.3,3.3-13.8
	c2.3-6.7,3.7-13.5,4.1-20.6c0.5-9.2-1.1-18-5.2-26.4c-2.3-4.8-4.7-9.5-7.1-14.2c-4-7.9-7.2-16.1-9.6-24.6c-1.6-5.4-3.7-10.7-5.8-16
	c-2.5-6.1-4-12.5-5.7-18.8c-0.3-1.1-0.3-2,0.3-3.1c1-1.9,0.9-3.9-0.2-5.9c-4.6-8.6-6.4-17.9-6-27.5c0.1-1.5,0.3-3,0.4-4.5
	c0.1-1.1,0.5-1.7,1.7-2c1.5-0.3,1.8-0.7,1.4-2.2c-0.4-1.3-1-2.7-1.8-3.9c-1.6-2.4-3.5-4.8-5.2-7.1c-2-2.8-3.6-5.8-4.6-9
	c-1.3-4.3-2.9-8.6-3.7-13c-1.9-9.8-0.8-19.5,2.3-29c0.5-1.6,1.2-3.2,1.8-4.8C291.7,293.7,291.9,293.7,292,293.7z"/>
<path class="st0" d="M176.6,350.8c5.9-5.3,10.6-11.1,15.4-16.8c2.2-2.6,4.5-5.1,6.8-7.6c3.9-4.2,6.7-9.1,8.9-14.4
	c2.3-5.6,4.7-11.3,7.1-16.9c2.5-5.9,6.2-10.8,10.9-15.1c6.4-5.9,12.4-12.2,18.6-18.2c4.4-4.3,7.5-9.4,10.4-14.7
	c0.3-0.5,0.6-1,1.1-1.9c0,1.4,0,2.4,0,3.4c0,1.9,0.5,3.6,2.2,4.7c1,0.6,1.1,1.5,1.3,2.5c0.3,1.3,0.5,2.7,1.1,3.9
	c1.3,3,4.2,2.8,5.6,0.4c0.2-0.4,0.5-0.7,0.9-1.3c0.9,0.6,1.6,1.4,2.5,1.8c0.9,0.4,1.9,0.5,3.1,0.9c1.1,3.2,3.9,5.3,6.8,7.3
	c7.7,5.1,11.5,12.6,12.4,21.6c0.1,0.6-0.1,1.4-0.4,1.9c-5.1,9.7-6.8,20.1-6,30.9c0.2,2.4,0.6,4.8,1.2,7.1c0.9,3.5,2,7,3.1,10.4
	c1.5,4.9,4.3,9.1,7.4,13.2c1.1,1.4,2.1,2.8,3.1,4.2c0.5,0.8,0.9,1.7,1.4,2.7c-4.5,1.8-8.7,3.5-13,5.2c-2.6,1-5.3,1.8-7.4,4.6
	c-1.5-7.7-1.6-15-2.9-22.2c-1.3-7.1-2.4-14.3-3.9-21.4c0.2,2.9,0.4,5.9,0.7,8.8c1.3,10.5,2.6,21,3.9,31.5c0.2,1.3,0.6,2.6,0.9,4
	c0.1,0.7,0.4,1.3,0.4,2c-0.1,1.8,0.7,3,2,4.1c0.8,0.7,1.6,1.4,2.3,2.2c1.8,2.1,1.6,4.5-0.6,6.1c-1.2,0.9-2.6,1.6-4.1,1.9
	c-4.3,0.8-8.6,1.8-13,2c-6,0.4-12.1,0.3-18.1,0.2c-1.7,0-3.5-0.9-5.1-1.6c-2.2-1-4.4-2-6.9-2.1c-1.3-0.1-2.7,0-4.3,0
	c0-1.8,0.2-3.6,0.7-5.4c1.6-5.4,3.1-10.9,4.8-16.3c3.7-11.5,6.3-23.2,8.3-35c0.9-5.5,1.6-11.1,2.4-16.6c0.1-0.4,0.1-0.7-0.2-1.2
	c-0.2,0.5-0.4,0.9-0.5,1.4c-0.9,5.1-1.9,10.2-2.7,15.4c-2,11.9-5,23.5-8.5,35c-1.4,4.5-2.8,9.1-4,13.7c-0.7,2.8-0.9,5.6-1.4,8.5
	c-0.2,1-0.2,2.1-0.3,3.1c-0.3,3,0.7,5.7,2.2,8.2c0.9,1.4,2,2.7,2.9,4c0.5,0.7,1,1.4,1.3,2.1c0.9,1.7,0.4,3.2-1.3,3.9
	c-2.6,1.2-5.2,1.5-7.9,0.5c-2.3-0.9-4.4-2.3-6.3-3.9c-4.6-3.9-8.2-8.7-11.8-13.4c-2.4-3.2-4.8-6.4-7.3-9.5c-1.9-2.4-2.6-2.7-5.4-3.7
	c0.5-0.6,0.9-1.3,1.3-1.8c1.6-1.8,3.2-3.6,4.9-5.4c6.4-6.8,10.9-14.6,13.3-23.6c2.6-9.6,5.3-19.2,8.1-28.8c1.1-3.8,2.4-7.6,3.5-11.5
	c-1.2,1.4-1.9,3-2.4,4.7c-2.8,8.9-5.5,17.7-8.2,26.6c-1.1,3.5-2.1,7.1-3.1,10.7c-1.9,6.8-5.4,12.8-9.9,18.2
	c-2.2,2.6-4.5,5.1-6.7,7.7c-4.1,4.8-4.6,6.9-1.3,13.3c0.4,0.9,1,1.7,1.5,2.5c0.6,1.2,0.7,2.3-0.2,3.4c-0.9,1-2.1,0.9-3.1,0.5
	c-3.3-1.2-5.4-3.5-6.2-6.9c-0.3-1.3-0.3-2.7-0.3-4.1c0.1-6.8-0.9-13.4-2-20c-0.2-1.3-0.6-2.6-1.2-3.9
	C183.4,354.7,181.2,351.7,176.6,350.8z"/>
<path class="st0" d="M354.5,749.7c0.5-1.2,0.9-2.2,1.3-3.2c0.5-1.2,0.2-2.4-0.5-3.4c-0.3-0.5-0.7-1-1-1.5c-1.7-2.3-3.4-4.5-4.3-7.3
	c-0.9-2.7-2.6-5.1-4-7.6c-2.9-5.3-5.2-10.7-6.3-16.7c-1-5.1-1.3-10.3-1.3-15.5c0-3.2-0.3-6.3-0.4-9.5c0-1.1,0.1-2.3,0.1-3.4
	c-0.1-1.1-0.3-2.2-0.5-3.3c-0.1-0.5-0.2-1,0-1.5c1.2-4.1,1.3-8.3,1.8-12.5c1-8,1.9-16,2.9-24c0.2-1.3,0.3-2.7,0.7-4
	c0.2,0.6,0.3,1.3,0.5,1.9c0.5,2.9,1.2,5.8,3.2,8.1c0.2,0.2,0.3,0.5,0.4,0.8c2.5,5.8,6.6,10.3,11.2,14.4c5.9,5.3,12.4,9.6,19.9,12.3
	c4.5,1.6,8.9,3.2,13.4,4.9c3.8,1.4,7.5,2.9,10.8,5.1c1.5,1,2.9,2.2,4.1,3.5c1.9,2.1,1.5,4-1,5.3c-1.5,0.8-3,1.4-4.5,2.1
	c-2,1-3.5,2.5-4.2,4.8c-0.4,1.2-0.2,2.3,0.8,3.1c0.8,0.6,1.6,1.2,2.5,1.6c3.2,1.3,6.5,2.4,9.8,3.6c2.4,0.9,4.9,1.7,7.2,2.8
	c8.2,3.9,16.2,8,23.7,13.2c4.5,3.1,9.3,5.7,13.8,8.6c2,1.3,3.8,2.7,5.5,4.2c0.9,0.8,1.6,2,2.1,3.2c1.2,2.4,0.4,4.6-2.3,5.3
	c-4.5,1.1-9,2.4-13.8,2c-3-0.2-6.1,0.7-9.1,1.5c-5.8,1.6-11.5,3.6-17.3,5.2c-9.4,2.5-19,4.2-28.7,5.1c-5,0.4-10,0.1-14.8-1.4
	c-5.6-1.8-11.1-3.9-16.7-5.8C357.9,750.9,356.3,750.3,354.5,749.7z"/>
<path class="st0" d="M246.6,622.5c0.1,1.9,0.2,3.7,0.3,5.6c0.5,8.7,1.8,17.3,3.5,25.8c0.9,4.5,1.5,9.1,2.1,13.6
	c0.1,0.8-0.2,1.6-0.3,2.4c-0.2,2.6-1,5.4-0.5,7.8c0.5,2.2,0.2,4.1-0.1,6.1c-0.9,7.1-1.7,14.2-2.7,21.3c-0.8,6-2.5,11.8-4.7,17.5
	c-0.7,1.8-1,3.6-1.1,5.4c-0.2,3.6-0.3,7.2-0.6,10.9c-0.2,2.7,0.5,4.9,2.6,6.6c0.2,0.1,0.2,0.4,0.5,0.8c-1.4,0.2-2.8,0.5-4.1,0.7
	c-9.3,0.9-18.3,3.2-27.3,5.1c-10.9,2.4-21.8,4.7-32.7,7.3c-7.6,1.8-15.1,4.1-22.7,6c-5.4,1.4-10.9,2.4-16.5,2.7
	c-3.9,0.2-7.8-0.2-11.6-1.5c-0.6-0.2-1.3-0.4-1.9-0.8c-2.1-1.2-2.5-2.4-1-4.4c4.5-6.2,9.7-11.6,16.5-15.1c4.2-2.1,8.6-3.7,13-5.2
	c4.5-1.6,9-3.3,13.1-5.5c12.7-6.9,25.2-14,37.7-21.1c7.6-4.4,14-10.2,18.8-17.7c2-3.1,3.7-6.2,4.8-9.7c0.3-1,0.7-2,0.8-3.1
	c0.8-10.9,3.7-21.4,6.4-31.9c2.4-9.4,4.7-18.9,7.1-28.3c0.1-0.4,0.2-0.8,0.3-1.2C246.4,622.4,246.5,622.5,246.6,622.5z"/>
<path class="st0" d="M303.8,405.6c0.4,2.1,0.8,4,1.2,5.8c1,5,2.5,9.8,4.5,14.5c2.6,6.2,4.7,12.6,6.5,19.1
	c2.7,9.7,7.4,18.6,11.9,27.6c2.2,4.3,4.2,8.7,6.1,13.1c2.4,5.6,3,11.5,2.9,17.5c-0.1,7-1.3,13.8-3.4,20.5c-1.4,4.4-2.6,8.8-3.6,13.3
	c-0.5,2.1-0.4,4.4-0.2,6.5c0.3,3.7,2,6.8,4.8,9.2c1,0.8,1.3,1.7,1.1,2.9c-0.8,3.7-1.5,7.4-2.1,11.1c-0.8,5.2-1.6,10.4-2.3,15.7
	c-0.1,1,0,2,0.2,2.9c0.7,3.1,1.5,6.1,2.5,9.1c0.8,2.3,2.4,4.2,4.2,5.9c1.6,1.5,3.3,2.9,4.9,4.3c0.8,0.7,1.2,1.4,1.1,2.5
	c-0.3,7.8-0.6,15.7-0.8,23.5c0,0.3,0,0.6-0.1,0.9c-2.2,4.3-2.5,9.1-3.1,13.8c-1.2,9.1-2.2,18.3-3.3,27.4c-0.2,1.6-0.3,3.2-0.4,4.9
	c-3.6,0.3-7.1,0.5-10.6,0.8c-0.1-0.2-0.3-0.4-0.3-0.6c0.7-3.9-0.1-7.7-0.4-11.5c-0.3-3.9-0.7-7.8-0.6-11.7
	c0.2-8.2,0.9-16.4,1.2-24.7c0.2-5.6,0.1-11.2-0.1-16.8c-0.2-9.7-2.5-19.1-4-28.7c-0.6-4.1-1.2-8.2-1.5-12.4
	c-0.7-8.6-1.1-17.2-0.6-25.8c0.7-12.6,2.1-25.1,5.2-37.4c0.4-1.8,0.8-3.5,1.2-5.3c0.9-4.3,0.6-8.5-1.3-12.4c-2-4.2-4.3-8.3-6.6-12.4
	c-5.7-9.9-11.1-19.9-15.8-30.3c-0.7-1.4-1.2-2.8-1.1-4.5c0.1-2.7-1.2-4.9-3-6.9c-1.5-1.7-3.1-3.3-4.5-5.1c-1.8-2.1-3-4.5-3.7-7.2
	c-0.6-2.2-0.5-4.4,0.7-6.3c1.2-1.9,2.4-3.9,4-5.4C297.5,410.6,300.6,408.2,303.8,405.6z"/>
<path class="st0" d="M325.5,278.8c-0.6-0.7-1.2-1.4-2-2.3c-1.6,1.8-2.6,3.8-3.4,5.8c-1.2,3.5-2.4,7-3.3,10.6
	c-2,7.6-4.8,14.9-7.9,22.1c-0.1,0.3-0.4,0.6-0.7,1.2c-0.4-0.5-0.7-0.9-0.9-1.3c-2-4.4-4.6-8.3-7.8-11.9c-1-1.1-1.8-2.2-2.7-3.3
	c-2-2.5-3.2-5.4-3.5-8.7c-0.2-2.2-0.6-4.4-1.1-6.5c-1.8-7-5.6-12.6-11.5-16.8c-2-1.4-3.8-3-5.6-4.6c-0.7-0.6-1.1-1.6-1.8-2.5
	c2.5-1.5,3.2-3.9,3.6-6c2.3-0.6,4.4-1.1,6.8-1.8c4.8,6.3,8.5,13.9,13.4,20.6c-2.8-8.2-7.2-15.4-12.6-21.9c0.2-2,0.4-3.9,0.7-6.3
	c0.2-0.2,0.9-0.7,1.5-1.1c3.4-2.6,4.5-5.7,3.1-9.7c-0.4-1.2-0.4-2.2,0.2-3.3c0.8-1.5,1.4-3.1,2.2-4.8c4.1,2.6,7.5,5.9,10.6,9.5
	c3.5,4.1,7.2,8.1,10.9,12.1c-1.2-3.7-13.8-19.7-21.4-22.6c-0.1-2.3-0.5-4.6-2.6-6.3c1.2-1.7,1.6-3.4,1.4-5.3
	c-0.1-0.8,0.6-1.9,1.3-2.5c1.5-1.4,3.1-2.6,4.8-3.7c1.3-0.9,2.8-1.5,4.3-2.3c1,1.1,2.1,2.2,3.1,3.2c2.1,2.1,4.6,3.4,7.4,4.3
	c3.8,1.2,7.7,2.1,11.5,3.2c2.9,0.8,5.8,1.7,8.6,2.8c1.3,0.5,2.4,1.4,3.8,2.2c-4.2,5.1-4.9,10.8-4.4,16.8c0.2,2.4,0.5,4.8,1,7.2
	c1.9,7.9,2,15.9,1.5,23.9c-0.2,3.9-1.5,7.5-3.2,11c-0.1,0.1-0.1,0.3-0.2,0.4c-0.5,0.7-0.8,1.7-1.8,1.5c-1.1-0.2-1.1-1.2-1.1-2.2
	c0-1.7,0-3.3-0.1-5c-0.1-2.9-1.2-5.2-3.7-6.6c-2.1-1.3-4.3-2.4-6.6-3.5c-4.5-2.1-9-4.2-12.8-7.6c-0.8-0.7-1.7-1.4-2.5-2.2
	c-0.1,0.1-0.3,0.2-0.4,0.3c0.4,0.6,0.7,1.2,1.2,1.7c2.6,3.1,5.9,5.4,9.5,7.2c2,1,4.1,1.8,6.2,2.9c1.7,0.9,3.3,1.8,4.9,2.8
	c1.7,1.1,2.6,2.7,2.6,4.8c0,1.4,0,2.8,0,4.3C325.7,278.6,325.6,278.7,325.5,278.8z"/>
<path class="st0" d="M290,212.1c-1.6-0.5-2.2-1.4-2.4-2.9c-0.3-2.6-1.9-4.7-3.9-6.2c-2.7-2.1-5.7-4-8.6-5.8c-2-1.3-4.1-1.1-6.3-0.1
	c-2.8,1.3-5.4,3-7.9,4.9c-2,1.6-4.1,3-6.4,4.7c0-0.5-0.1-0.8,0-0.9c1.9-3.6,2.5-7.4,2.8-11.3c0.3-4,0.9-8,1.3-11.9
	c0.1-0.5,0.2-1,0.3-1.6c0.3-1.8,1.3-3,3-3.6c1.8-0.7,3.5-1.5,5.2-2.3c3-1.4,5.7-3.2,8.1-5.4c4.2-3.9,6.9-8.6,7.5-14.3
	c0.5-4.2,0.9-8.4,1.4-12.7c0.4,0.2,0.8,0.5,1.3,0.8c2.3,1.8,4.8,3,7.7,3.6c4,0.7,7.5-0.1,10.5-2.9c1-0.9,1.9-1.9,3.3-3.2
	c-0.1,1.1-0.2,1.8-0.3,2.4c-1,5.2-1.6,10.5-1.1,15.8c0.3,4.2,1.2,8.2,3.1,12c0.9,1.6,1.9,3.1,3.4,4.1c1.6,1,2.2,2.3,2.1,4.2
	c-0.1,0.7,0,1.5,0,2.4c-3.6-0.4-6.7,0.3-9.4,2.5c3-0.6,5.8-1.8,9.1-1.6c-0.2,2.6-1.3,4.7-2.6,6.8c-1.4,2.3-3,4.5-4.5,6.8
	c-1.3,1.9-2.5,3.8-3.9,5.5c-0.9,1.1-1.8,2.3-3,3C296.1,206.8,292.4,208.7,290,212.1z M278.3,183.6c0.1-0.2,0.2-0.4,0.3-0.6
	c-3.8-2.8-8.2-3.8-12.6-4.7c-0.1,0.1-0.1,0.3-0.2,0.4C270,180.3,274.2,181.9,278.3,183.6z"/>
<path class="st0" d="M273.1,127.1c0.1-1.1,0.1-2.1,0.2-3.2c0.1,0,0.2-0.1,0.3-0.1c0.2,0.6,0.5,1.2,0.7,1.7c1.9,5.5,4.1,10.7,8.1,15
	c0.4,0.4,0.7,1.2,0.6,1.8c-0.6,4.4-1.3,8.8-1.9,13.2c-0.8,6.4-4.2,11.3-9.3,14.9c-2.2,1.6-4.7,2.7-7.1,4c-1,0.5-2,0.9-3.5,1.6
	c1.1-2.5,2.9-4,4.3-5.8c1.5-1.8,2.9-3.6,4.2-5.7c-0.4,0.3-0.8,0.5-1.1,0.8c-2.6,2.9-5.2,5.7-7.6,8.7c-2.5,3.1-3.7,6.7-4,10.6
	c-0.4,4.1-0.8,8.1-1.2,12.2c-0.4,4.3-2,8.2-4.5,11.7c-4.6,6.1-10.4,10.9-16.9,14.8c-0.2,0.1-0.4,0.1-0.9,0.2
	c0.2-0.8,0.4-1.6,0.6-2.2c0.5-1.3,1-2.7,1.6-4c3.2-6.5,4.6-13.5,5.5-20.7c0.6-4.8,1.3-9.6,2.2-14.3c1.1-5.7,3.5-10.7,7.5-15
	c3.8-4.1,7-8.4,9.8-13.3c4.5-8,5.6-16.5,3.8-25.4c-1.1-5.4-2.2-10.8-3.2-16.2c-1.6-8.7-0.5-17.1,3.5-25.1c2.5-5.1,6.5-8.4,12-9.8
	c0.9-0.2,1.9-0.6,3.2-1c-0.4,1.2-0.7,2.1-1,2.9c-0.5,1.4-0.7,2.8-0.3,4.4c0.7,2.7,0.8,5.5-0.1,8.4c-2.2,7.7-4.1,15.4-6,23.2
	c-0.9,3.7-1.2,7.5,0.2,11.1C272.9,126.8,273,126.9,273.1,127.1z"/>
<path class="st0" d="M250.5,588.5c0.1,0.4,0.1,0.6,0.1,0.7c-1.8,5.8-2.4,11.8-3.5,17.7c-1.6,8.8-3.4,17.5-5.4,26.2
	c-1.9,8.4-4.2,16.7-6.2,25c-1.1,4.7-2.1,9.4-3.2,14.1c-0.1,0.5-0.3,0.9-0.6,1.7c-0.3-0.9-0.5-1.4-0.6-2c-1.6-7-5.1-12.9-10.2-17.8
	c-3.7-3.6-7.6-7.2-11.4-10.7c-2.9-2.7-5.9-5.2-8-8.6c-3.5-5.3-3.6-11.3-0.2-16.4c1.1-1.6,2.4-3.2,4-4.3c3.1-2.3,6.3-4.5,9.7-6.3
	c6.3-3.3,12.9-6.3,19.3-9.5c5.4-2.6,10.5-5.6,15.2-9.3C249.8,588.9,250.1,588.8,250.5,588.5z"/>
<path class="st0" d="M339.3,162.7c-0.5-0.9-0.9-1.9-1.6-3.2c2.4,0.1,4.4,0.1,6.5,0.4c0.8,0.1,1.7,0.7,2.3,1.3
	c3.5,3.6,5.7,7.7,4.4,12.9c-1.1,4.5-2,9-3.5,13.3c-4.1,11.8-4.1,23.7-2.3,35.8c0.3,2.3,0.6,4.7-0.1,7c-0.2,0.6-0.5,1.2-0.8,1.9
	c-0.8-0.3-1.4-0.6-1.9-0.8c0.5-4.3-1.5-7.4-4-10.4c-2-2.4-4.6-4.2-7.6-5.1c-3.9-1.2-7.9-2.1-11.8-3.2c-2.9-0.8-5.8-1.7-8.6-2.7
	c-3.2-1.2-5.8-3.1-7.3-6.6c1.6-2.3,3.3-4.6,5-7c0.7-1,1.7-1,2.7-0.8c2.3,0.4,4.6,0.9,6.9,1.4c1.9,0.5,3.8,1.1,5.6,1.6
	c0.6,0.2,1.1,0.2,1.7,0.2c-4.5-2.8-9.4-4.7-15-4.4c1.9-3.1,3.6-6.1,5.6-9.4c5.4-1.4,10.5,1.3,15.8,3c-4.6-3.8-9.7-5.7-15.9-4.2
	c0.6-2.6,0.3-4.8-0.3-7c-0.1-0.5,0.1-1.2,0.5-1.6c3-3,6.3-5.6,10.5-6.9c4.5-1.4,8.9-2.8,13.4-4.2c1.2-0.4,2.7-0.5,3.5-2
	C341.5,161.2,340.4,162.2,339.3,162.7L339.3,162.7z"/>
<path class="st0" d="M265.6,480.7c-0.1,1-0.1,1.7-0.2,2.5c-0.7,5.4-1.6,10.7-2.1,16.1c-0.9,9.3-1.1,18.7-0.8,28.1
	c0.2,5.8,0.7,11.6,1.4,17.4c0.5,5,0.2,9.9-0.2,15c-0.2-0.1-0.5-0.1-0.6-0.3c-3.7-5.7-9-9.7-14.4-13.6c-3.1-2.2-6.3-4.5-9.4-6.7
	c-5.8-4.2-8.4-10.2-8.6-17.2c-0.1-1.5,0.3-3,0.5-4.5c0.3-1.8,0.7-3.6,1.2-5.3c0.4-1.4,0.9-2.8,1.7-3.9c2-2.7,4.1-5.4,6.4-7.9
	c5.3-5.4,11.4-9.9,17.4-14.4c2.1-1.5,4.1-3.1,6.2-4.6C264.6,481.3,265,481.1,265.6,480.7z"/>
<path class="st0" d="M319.8,132.6c-3.4,4.5-7.7,8-12.1,12.1c0.3-3.3,0.9-6,2.2-8.4c1.2-2.3,2.4-4.5,3.4-6.9c0.5-1.2,0.8-2.5,0.9-3.9
	c-0.5,1.1-1,2.3-1.5,3.4c-2.1,4.6-4.4,9.1-8.1,12.7c-6,5.8-14.4,5.3-20-0.9c-5.3-5.8-8.3-12.9-11-20.1c-0.3-0.9-0.3-2.1-0.1-3.1
	c1.1-4.9,2.3-9.7,3.4-14.5c0.9-4,1.9-7.9,2.8-11.9c0-0.2,0.2-0.4,0.4-0.8c0.3,0.5,0.6,0.9,0.8,1.3c2.8,6.1,7.4,10.4,13.5,13.1
	c2.2,1,4.5,1.7,6.7,2.7c3.1,1.4,6.3,2.7,9.2,4.3c3.2,1.8,5.2,4.5,5.4,8.4c0,1,0.4,1.9,0.9,2.9c0.3-2.3,0.7-4.7,1-7
	c0.7,5.5,1.2,10.9,3.9,16.1c-1.1-0.7-2.2-1.4-3.4-2.1C318.1,131.2,319.3,131.6,319.8,132.6z"/>
<path class="st0" d="M262.9,576c-0.1,1.3-0.3,2.6-0.3,3.9c-0.1,10.4-0.2,20.8-0.1,31.3c0.1,6.9,0.8,13.9,0.7,20.8
	c-0.2,8.7-0.9,17.5-1.4,26.2c-0.2,3.5-0.4,6.9-0.6,10.7c-1.4,0.2-2.8,0.5-4.3,0.6c-1.5,0.1-2.6-0.9-2.7-2.4
	c-0.5-7.6-2.7-14.9-3.7-22.3c-1-6.9-1.7-13.8-2.6-20.7c-0.7-5.3-0.2-10.5,0.8-15.7c1.1-5.9,1.9-11.8,2.7-17.7
	c0.4-2.6,1.5-4.5,3.5-6.3c2.5-2.3,4.6-5,6.8-7.5c0.3-0.3,0.5-0.6,0.8-1C262.7,575.9,262.8,576,262.9,576z"/>
<path class="st0" d="M315.9,115.1c-3.6-4.8-8.5-7-13.6-9c-2.8-1.1-5.7-2.1-8.4-3.4c-6.7-3.2-11-8.5-13.5-15.4c0-0.1,0-0.2-0.1-0.2
	c-1.9-3-1-5.9,0.3-8.8c1.4-3.2,3.7-5,6.8-6.2c3.7-1.4,7.4-0.8,11.2-0.2c7.1,1.1,11.8,5.2,14.6,11.7c2.4,5.6,3.5,11.6,3.5,17.6
	c0,4.3-0.4,8.6-0.6,12.9C316.2,114.3,316.1,114.5,315.9,115.1z"/>
<path class="st0" d="M256.9,246.8c0.1-0.6,0.2-1.8,0.4-3c0.2-1.3-0.2-2.3-1.1-3.3c-2.2-2.2-2.4-3.1-1-6c0.4-1,0.9-1.9,1.4-2.8
	c0.7-1.3,0.5-2.5-0.6-3.5c-1.7-1.5-1.7-3.2-0.9-5.1c1-2.2,0.8-4.4-0.1-6.6c-0.4-1.1-0.9-2.1-1.1-3.2c-0.7-2.8,0.2-4.8,2.7-6.4
	c2.3-1.5,4.4-3.2,6.7-4.6c2.1-1.3,4.3-2.6,6.4-3.7c1.6-0.8,3.2-0.8,4.8,0.1c3,1.9,6,3.7,8.9,5.7c1.8,1.2,2.8,3.2,3.5,5.2
	c0.3,0.8,0,1.8,0.3,2.5c0.4,0.7,1.3,1,1.9,1.6c1.1,1.2,1.1,2,0.1,3.7c-1.1,1.8-1.1,1.8,0.3,3.4c1.2,1.4,1.8,3,1.3,4.8
	c-0.5,1.7-1.2,3.4-1.9,5.1c-0.6,1.4-0.8,2.7-0.3,4.1c1.2,3.5,0.4,6-2.5,8.4c-0.4,0.3-0.8,0.6-1.3,0.9c-0.9,0.5-1.2,1.3-1.1,2.3
	c0.1,0.5,0.1,1.1,0.1,1.6c0,3-2.2,5.3-5.3,5.3c-0.4,0-0.8,0-1.1-0.1c-1-0.1-1.5,0.4-1.8,1.3c-0.3,1.2-0.6,2.4-1.1,3.4
	c-1.3,2.6-3.6,2.9-5.8,1c-0.1-0.1-0.2-0.2-0.3-0.3c-1.6-1.4-1.8-1.3-3,0.3c-0.3,0.4-0.5,0.8-0.8,1.1c-1,1.2-2.2,1.2-3-0.1
	c-0.7-1.2-1.2-2.6-1.4-4c-0.2-1.6-0.7-2.8-2.1-3.8C256.6,250.9,256.8,249.1,256.9,246.8z M261.8,220.9c-1,1.4-1.9,2.6-2.6,3.9
	c-0.9,1.7,0.3,3,1.3,4.1c-2.8,4-2.8,5.5-0.1,8.2c-0.9,2.9-0.6,5.3,2.4,6.6c-0.1,1.4-0.3,2.6-0.3,3.8c0,1.1,0.5,2.1,1.6,2.5
	c1.2,0.5,2.2,0.1,3.1-0.7c0.5-0.4,0.9-1,1.3-1.4c4.9,1,10.3-1.5,10.3-6.8c1.8-0.8,3.2-2.2,3.8-4.2c0.7-2.2-0.5-3.7-1.8-5.2
	c3.1-4.2,3.2-6.2,0.3-9.9c1.6-3,1-5.9-1.1-8.3c0.2-1.2,0.5-2.3,0.6-3.3c0.2-4.2-1.8-5.9-5.9-4.7c-1.4-1.6-3-3.1-5.4-2.3
	c-2,0.7-2.9,2.3-2.9,4.3c-3.8,2.2-4.1,3.1-2.4,6.6C260.1,217.7,260.3,219.1,261.8,220.9z"/>
<path class="st0" d="M339.3,162.7c-5.2,1.6-10.4,3-15.5,4.9c-3.7,1.5-6.7,4.2-9.4,7.5c-0.9-0.5-1.8-0.9-3.1-1.6
	c4.9-3.4,8.4-7.6,11.2-12.4c-0.1-0.1-0.2-0.2-0.4-0.3c-3.6,3.8-7.3,7.7-11.1,11.8c-4.3-7.4-4.9-14.9-3.9-23c0.7,0,1.2,0.1,1.8,0.1
	c3.5,0,6.9-0.1,10.4-0.2c2.9-0.1,5.7-0.3,8.6-0.3c3,0,4.3,1,5.3,4c0.3,0.9,0.6,1.9,0.9,2.8C335.2,158.7,336.8,161,339.3,162.7
	C339.3,162.7,339.3,162.7,339.3,162.7z"/>
<path class="st0" d="M256,242.2c-3.1,5.4-6.4,10.7-10.3,15.6c-0.8-4.3-2.3-8.3-2.1-12.7c0.1-4.7-0.3-9.3-0.2-14
	c0.1-3.7,0.5-7.4,0.9-11c0.2-1.8,0.9-3.2,2.3-4.5c2-1.8,3.8-3.9,5.9-6.1c0,1-0.1,1.7,0,2.4c0.4,1.7,0.8,3.4,1.3,5
	c0.7,2,1.1,3.9,0.1,5.9c-1,2.1-1,4.2,1,6c1,0.9,1,1.9,0.4,3.1c-0.5,0.9-1,1.9-1.4,2.8c-1.1,2.4-1,4.7,1.2,6.5
	C255.4,241.4,255.7,241.7,256,242.2z"/>
<path class="st0" d="M348,734.6c-3.3,1.1-6.1,0.2-8.4-2c-1.4-1.3-2.5-2.8-3.5-4.4c-1.8-2.9-3.5-5.8-5-8.9c-0.8-1.7-1.3-3.5-1.7-5.4
	c-1.2-5.8-1.6-4.3,0.3-9.8c1.6-4.9,1.3-10-0.4-14.9c-0.2-0.7-0.5-1.4-0.7-2.2c1.4-0.8,2.8-0.3,4.2-0.4c1.3-0.1,2.7,0,4.2,0
	c0,1,0.1,1.9,0,2.7c-0.8,7.7-0.2,15.4,1.1,23c0.8,4.2,2.4,8.1,4.3,11.9c1.6,3,3.2,6,4.8,9C347.5,733.6,347.8,734,348,734.6z"/>
<path class="st0" d="M244.8,726.1c6.8,6.4,13.7,5.6,20.8,1.2c0.2,0.7,0.3,1.2,0.3,1.7c-0.1,2.7,0,5.4-0.4,8.1
	c-0.2,1.3-0.8,2.8-1.7,3.8c-2.1,2.4-4.4,4.6-6.7,6.7c-2.3,2.2-3.7,2.1-6.1,0.2c-1.5-1.2-3.1-2.4-4.6-3.6c-1.6-1.2-2.4-2.8-2.3-4.9
	C244.4,735.2,244.6,731,244.8,726.1z"/>
<path class="st0" d="M336.8,555c3.8,1.9,7.5,3.8,11.3,5.7c0.6,0.3,1.1,0.8,1.6,1.2c2.5,2.3,2.8,4.9,0.8,7.6c-0.8,1.1-1.8,2-2.8,2.9
	c-1.2,1-2.5,2-3.8,2.9c-4,3-8.4,5.6-10.8,10.4c-0.6-1.7-0.6-3.3-0.4-4.9c1.2-8.4,2.6-16.8,3.9-25.3
	C336.6,555.5,336.8,555.3,336.8,555z"/>
<path class="st0" d="M258.6,679.5c0.9-0.2,1.8-0.5,2.8-0.7c2.2,15.5,3.9,30.9,3.2,46.5c-2.8,2.3-5.8,3.3-9.2,3.3
	c0-4.2,0.3-8.4,1.1-12.5c1.8-9.1,2.2-18.4,2.1-27.7C258.6,685.5,258.6,682.6,258.6,679.5z"/>
<path class="st0" d="M253.6,728.9c-3.2-0.6-5.5-2.2-7.9-3.7c-0.2-1.8,0.5-3.4,1.1-5c2.1-5.9,3.4-11.9,4.2-18
	c0.7-6.3,1.2-12.6,1.8-18.9c0.1-1.1,0.3-2.2,0.4-3.5c1.3,0,2.6,0,4.2,0c0,0.6,0,1.2,0,1.8c-0.1,4.2-0.5,8.4-0.4,12.7
	c0.1,7.1-0.9,14.1-1.9,21.2c-0.5,3.7-0.8,7.3-1.2,11C253.7,727.2,253.7,727.9,253.6,728.9z"/>
<path class="st0" d="M352.9,748.9c-0.5,0.7-0.8,1.2-1.1,1.6c-1.3,1.4-2.6,2.7-3.8,4.1c-0.9,1.1-1.9,1.5-3.2,0.9
	c-3.3-1.5-6.6-3-9.8-4.5c-0.8-0.4-1.4-0.8-1.5-1.8c-0.2-3.9-0.4-7.7-0.7-11.6c0.1-0.1,0.3-0.1,0.4-0.2c0.4,0.4,0.8,0.7,1.2,1.1
	c2.3,2.5,4.5,5,7.4,6.9c2.8,1.9,5.7,3,9,3.2C351.4,748.7,352,748.8,352.9,748.9z"/>
<path class="st0" d="M345.4,638.1c-0.7-2.5-0.4-26.5,0.3-30.7c0.3,0.2,0.5,0.3,0.7,0.5c3,3.3,5.3,6.9,6.9,11c1,2.6,0.7,4.9-1.1,7
	c-0.6,0.7-1.1,1.4-1.7,2.1c-2.1,2.4-3.6,5.2-4.5,8.3C345.9,636.8,345.6,637.3,345.4,638.1z"/>
<path class="st0" d="M321.7,696.3c1.2,4.2,2.4,8.4,3.7,12.5c0.8,2.4,0.5,4.8-0.5,7.1c-1.1,2.5-1.6,5-1.4,7.7c0.1,1.3,0.4,2.7,1,3.9
	c1.8,3.6,1.8,7.2,0.3,10.7c-1.5,3.3-2.6,6.6-2.7,10.2c0,0.6-0.3,1.1-0.4,1.7c-0.8,0-1.5,0-2.4,0c-0.7-4.5-0.2-8.7,1.8-12.7
	c0.3-0.7,0.7-1.3,1.1-2c1.1-1.9,1-3.7-0.4-5.5c-0.4-0.5-0.8-1.1-1.2-1.6c-1.5-1.9-1.8-3.9-0.6-6.1c0.6-1.2,1.2-2.4,2-3.6
	c2.3-3.2,2.7-6.6,1.4-10.3c-0.6-1.9-1.2-3.9-1.8-5.8c-0.6-2-0.8-4.1-0.5-6.2C321.3,696.4,321.5,696.4,321.7,696.3z"/>
<path class="st0" d="M348.3,736.8c1.7,2.3,3.2,4.3,4.7,6.4c1,1.4,1,1.4,0.6,3.3c-3,0.4-5.9-0.2-8.7-1.4c-2.9-1.3-5.2-3.5-7.6-5.6
	c-0.6-0.5-1.1-1.1-1.7-1.5c-1.8-1.2-2.6-3-3-4.9c-0.6-2.7-0.7-5.5-0.7-8.4c0.2,0.4,0.5,0.8,0.7,1.2c1.5,2.3,2.8,4.8,4.6,7
	C340.1,736.4,343.8,737.9,348.3,736.8z"/>
<path class="st0" d="M241.9,243.8c-2.2-3.5-4.5-6.9-6.5-10.5c-1.1-1.9-1.6-4-2.3-6.1c-0.3-0.8-0.1-1.6,0.7-2.2
	c3.3-2.1,6.5-4.3,9.9-6.6c-2,8.4-1.6,16.9-1.4,25.3C242.2,243.8,242.1,243.8,241.9,243.8z"/>
<path class="st0" d="M324.5,745.5c-0.4-2,0.4-3.4,1.2-4.8c1.7-3.3,2.1-6.7,1.6-10.3c-0.2-1-0.4-2.1-0.9-3c-1.7-3.1-1.3-6.3-0.4-9.4
	c0.4-1.4,1-2.7,1.7-4.4c2.4,10.6,3.4,20.9,3.7,31.4C329,745.1,326.8,745.3,324.5,745.5z"/>
<path class="st0" d="M245.4,391.5c-1.5,4.4-2.3,9-5.2,12.6c-1.6-2.3-3.2-4.6-4.8-6.8c-1.5-2.1-2.4-4.3-2.8-6.8
	c-0.3-1.9,0.2-2.6,2.2-2.4c1.9,0.2,3.8,0.6,5.7,1.2C242.1,389.8,243.6,390.7,245.4,391.5z"/>
<path class="st0" d="M185.8,371.8c-1.3-1.2-2.3-2.1-3.1-3.1c-2.5-3-4.8-6-6.4-9.6c-0.4-0.9-1-1.7-1.4-2.6c-0.3-0.6-0.6-1.3-0.5-1.9
	c0.1-2.3,1.4-3.2,3.5-2.3c1.1,0.5,2.2,1.3,3,2.2c1.8,2,3,4.3,3.5,7c0.5,2.8,0.9,5.7,1.4,8.5C185.8,370.5,185.8,370.9,185.8,371.8z"
	/>
<path class="st0" d="M326.8,707.2c-1.7-5.4-3.6-10.1-4.6-15.2c-0.1-0.4,0-0.9,0.1-1.3c0.8-1.9,1.7-3.9,2.5-5.8c0.2,0,0.4,0,0.5,0.1
	c3.3,2.3,2.9,6.1,3.4,9.3C329.5,698.5,328.9,702.8,326.8,707.2z"/>
<path class="st0" d="M253.9,670.2c2.4,1.8,4.9,0.8,7.4,0.5c0,2.4,0,4.5,0,6.8c-2.3,0.2-4.6,0.4-6.9,0.5c-0.9,0.1-1.5-0.3-1.5-1.3
	C252.9,674.6,253.1,672.5,253.9,670.2z"/>
<path class="st0" d="M204.6,385.6c-1.4,2-2.6,3.7-4,5.7c-1.5-3.5-3.9-6.2-4.4-9.8c-0.1-0.8-0.4-1.7,0.4-2.3c0.9-0.6,1.8-0.2,2.5,0.4
	C200.9,381.4,202.6,383.4,204.6,385.6z"/>
<path class="st0" d="M325.4,680c3.6-0.2,7.1-0.3,10.6-0.5c0.7,1.8,0.3,3.4,0,5.3c-2.5,0-4.9,0.2-7.3-0.1
	C326.4,684.5,325.6,683.1,325.4,680z"/>
<path class="st0" d="M333.7,227.8c0.8-2,1.6-4,2.5-6c2.6,2.2,4.2,5.4,4.3,8.9C338.1,230.2,336,229.1,333.7,227.8z"/>
<path d="M278.3,183.6c-4.2-1.6-8.3-3.3-12.5-4.9c0.1-0.1,0.1-0.3,0.2-0.4c4.4,0.9,8.8,2,12.6,4.7
	C278.5,183.2,278.4,183.4,278.3,183.6z"/>
<path d="M261.8,220.9c-1.4-1.8-1.7-3.1,2.2-6.7c-1.8-3.5-1.4-4.4,2.4-6.6c0-2,0.9-3.6,2.9-4.3c2.4-0.8,4,0.7,5.4,2.3
	c4-1.1,6.1,0.6,5.9,4.7c-0.1,1-0.4,2.1-0.6,3.3c2.1,2.4,2.7,5.3,1.1,8.3c2.9,3.7,2.8,5.7-0.3,9.9c1.2,1.5,2.5,3,1.8,5.2
	c-0.6,2-2,3.4-3.8,4.2c0,5.4-5.4,7.8-10.3,6.8c-0.4,0.4-0.8,0.9-1.3,1.4c-0.9,0.8-2,1.2-3.1,0.7c-1.1-0.5-1.6-1.4-1.6-2.5
	c0-1.2,0.2-2.4,0.3-3.8c-3-1.3-3.3-3.7-2.4-6.6c-2.7-2.7-2.7-4.2,0.1-8.2c-1-1.2-2.1-2.4-1.3-4.1
	C259.9,223.5,260.8,222.3,261.8,220.9z M268.5,208.8c-2-0.4-3.2,0.1-4.1,1.5c-0.9,1.3,0,2.1,0.8,2.9c0.7,0.8,0.6,1.5-0.3,2.1
	c-0.7,0.6-1.4,1.1-2,1.8c-1.1,1.3-1,1.9,0.4,2.9c0.3,0.2,0.6,0.6,1.1,1c-0.6,0.4-1.1,0.7-1.5,1.1c-0.8,0.8-1.7,1.5-2.3,2.5
	c-0.8,1.2-0.5,2,0.7,2.9c0.4,0.3,0.9,0.7,1.4,1.1c-0.9,1-1.7,1.8-2.3,2.7c-1.3,2-0.8,3.4,1.4,4.3c0.1,0.1,0.2,0.2,0.4,0.4
	c-0.3,0.7-0.7,1.4-0.9,2.2c-0.7,2.3,0.4,3.7,2.8,3.7c0.2,0,0.4,0.2,0.7,0.3c-0.2,0.5-0.3,0.9-0.4,1.3c-0.2,0.9-0.5,1.7-0.6,2.6
	c-0.1,1-0.3,2.1,0.9,2.6c1.1,0.4,1.8-0.4,2.4-1.2c0.3-0.5,0.7-0.9,1.1-1.4c2,1.1,3.8,0.7,5.6,0c2.8-1.1,3.7-2.6,3.3-5.5
	c0-0.1,0.1-0.3,0.2-0.5c1.8-0.6,3.3-1.5,3.9-3.6c0.6-2.4-1.5-3.3-2.8-4.8c0.6-0.6,1.1-1,1.6-1.5c1-1.1,1.7-2.3,1.6-3.9
	c0-1.7-0.6-2.5-2.3-3.2c-0.4-0.1-0.7-0.5-1-0.7c2.5-2.7,2.7-4.8,0.8-7.5c-0.1,0-0.3-0.1-0.4,0c-0.7,0.3-1.4,0.4-1.7-0.4
	c-0.1-0.4,0.4-1,0.7-1.4c1.4-1.2,1.9-4.5,0.7-5.9c-0.3-0.4-1.1-0.7-1.5-0.6c-0.4,0.1-0.9,0.6-1.2,1.1c-0.3,0.4-0.4,0.9-0.6,1.3
	c-1.1-0.1-1.2-0.8-1.3-1.5c-0.2-1.3-1.1-2.1-2.2-2.7c-1-0.5-1.9-0.3-2.7,0.4c-0.7,0.6-1,1.3-0.4,2.2
	C268.6,207.7,268.5,208.2,268.5,208.8z"/>
<path class="st0" d="M268.5,208.8c0-0.6,0.2-1.1,0-1.4c-0.6-0.9-0.2-1.6,0.4-2.2c0.8-0.7,1.7-1,2.7-0.4c1.1,0.6,1.9,1.5,2.2,2.7
	c0.1,0.7,0.2,1.4,1.3,1.5c0.2-0.4,0.3-0.9,0.6-1.3c0.3-0.4,0.7-1,1.2-1.1c0.5-0.1,1.2,0.2,1.5,0.6c1.2,1.4,0.7,4.7-0.7,5.9
	c-0.4,0.3-0.8,1-0.7,1.4c0.2,0.9,1,0.7,1.7,0.4c0.1,0,0.3,0,0.4,0c2,2.7,1.8,4.8-0.8,7.5c0.3,0.3,0.6,0.6,1,0.7
	c1.7,0.7,2.3,1.5,2.3,3.2c0,1.5-0.6,2.8-1.6,3.9c-0.5,0.5-1,0.9-1.6,1.5c1.3,1.5,3.4,2.4,2.8,4.8c-0.6,2.1-2.1,3-3.9,3.6
	c-0.1,0.2-0.2,0.4-0.2,0.5c0.4,3-0.5,4.4-3.3,5.5c-1.8,0.7-3.6,1.1-5.6,0c-0.4,0.5-0.8,0.9-1.1,1.4c-0.6,0.8-1.3,1.7-2.4,1.2
	c-1.1-0.4-1-1.6-0.9-2.6c0.1-0.9,0.4-1.8,0.6-2.6c0.1-0.4,0.3-0.8,0.4-1.3c-0.3-0.1-0.5-0.3-0.7-0.3c-2.4,0-3.5-1.4-2.8-3.7
	c0.2-0.8,0.6-1.5,0.9-2.2c-0.2-0.2-0.2-0.4-0.4-0.4c-2.2-0.9-2.7-2.3-1.4-4.3c0.6-0.9,1.4-1.7,2.3-2.7c-0.5-0.4-0.9-0.8-1.4-1.1
	c-1.2-0.9-1.4-1.7-0.7-2.9c0.6-0.9,1.5-1.7,2.3-2.5c0.4-0.4,0.9-0.7,1.5-1.1c-0.5-0.4-0.8-0.8-1.1-1c-1.4-1-1.5-1.6-0.4-2.9
	c0.6-0.7,1.3-1.3,2-1.8c0.8-0.6,1-1.3,0.3-2.1c-0.8-0.8-1.7-1.6-0.8-2.9C265.3,208.9,266.5,208.4,268.5,208.8z M270.3,231.4
	c2.1,2.8,4.7,2.7,6.2-0.2c0.2-0.4,0.4-0.9,0.4-1.3c-0.1-2,0.4-4,0.6-6c0.1-0.6-0.1-1.3-0.4-2c-0.8-1.9-1.7-2.5-3.8-2.3
	c-1.7-1.9-2.5-2.1-4-1.3c-1.7,0.9-2.2,2.6-1.4,5.3c-0.6,0.8-1.2,1.6-1.7,2.4c-1.6,2.9-0.4,5.7,3.2,5.4
	C269.6,231.4,269.9,231.4,270.3,231.4z"/>
<path d="M270.3,231.4c-0.4,0-0.6,0-0.8,0c-3.6,0.3-4.7-2.5-3.2-5.4c0.5-0.8,1.1-1.6,1.7-2.4c-0.8-2.7-0.3-4.4,1.4-5.3
	c1.5-0.8,2.3-0.5,4,1.3c2.1-0.2,3,0.3,3.8,2.3c0.2,0.6,0.4,1.3,0.4,2c-0.2,2-0.7,3.9-0.6,6c0,0.4-0.2,0.9-0.4,1.3
	C275,234.1,272.4,234.2,270.3,231.4z M271.2,219c-2.2,0.6-2.8,1.5-2,3.2c0.7,1.4,0.3,2.2-0.6,3.1c-0.6,0.6-1,1.3-1.2,2.1
	c-0.4,1.5,0.3,2.3,1.9,2.3c0.7,0,1.5-0.2,2.1-0.3c0.3,0.4,0.4,0.5,0.5,0.7c0.3,0.7,0.4,1.5,1.4,1.5c1,0,1.4-0.8,1.8-1.5
	c0.2-0.6,0.6-1.4,0.4-1.9c-0.5-1.2,0-2.1,0.4-3.2c0.7-1.8-0.2-3.8-1.8-3.9C272.3,221,271.6,220.3,271.2,219z"/>
<path class="st0" d="M271.2,219c0.4,1.2,1.1,2,2.7,2.1c1.6,0.1,2.5,2.1,1.8,3.9c-0.4,1.1-0.9,2-0.4,3.2c0.2,0.5-0.1,1.3-0.4,1.9
	c-0.3,0.8-0.8,1.5-1.8,1.5c-1,0-1.1-0.8-1.4-1.5c-0.1-0.2-0.3-0.4-0.5-0.7c-0.6,0.1-1.4,0.2-2.1,0.3c-1.6,0.1-2.3-0.7-1.9-2.3
	c0.2-0.8,0.6-1.6,1.2-2.1c1-1,1.3-1.8,0.6-3.1C268.4,220.6,269,219.7,271.2,219z"/>
</svg>
