<?xml version="1.0" encoding="utf-8"?>
<!-- Generator: Adobe Illustrator 19.0.0, SVG Export Plug-In . SVG Version: 6.00 Build 0)  -->
<svg version="1.1" id="图层_1" xmlns="http://www.w3.org/2000/svg" xmlns:xlink="http://www.w3.org/1999/xlink" x="0px" y="0px"
	 viewBox="0 0 595.3 841.9" style="enable-background:new 0 0 595.3 841.9;" xml:space="preserve">
<style type="text/css">
	.st0{fill:#FFFFFF;}
</style>
<path class="st0" d="M1.4,841.7c0-280,0-560,0-840c198,0,395.9,0,593.9,0c0,280,0,559.9,0,840C397.3,841.7,199.3,841.7,1.4,841.7z
	 M460.7,481.1c2.9,1,5.4,1.8,7.8,2.6c1.4,0.5,2.8,1.1,4.2,1.7c0.8,0.3,1.6,0.7,2.5,0.9c2.3,0.6,3.9-0.1,4.9-2.3
	c0.5-1.2,1-2.5,1.2-3.9c2.1-11.1,5.7-21.7,10.4-32c1.4-3.1,2.6-6.4,3.8-9.6c1-2.6,0.9-5.1-0.3-7.6c-6-13.1-11.9-26.3-17.9-39.4
	c-5.7-12.5-11.7-24.8-17.2-37.4c-6.2-14.1-12.9-27.9-20-41.6c-3.2-6.2-6.3-12.4-9.3-18.6c-5.6-11.7-9.7-24-13.7-36.2
	c-3.9-12-8.4-23.8-13.5-35.3c-1.8-4-3.2-8.2-4.3-12.4c-1.8-6.9-3.6-13.7-6.3-20.3c-2.1-5.2-3.6-10.5-4.8-16
	c-0.5-2.5-1.3-4.9-2.1-7.3c-1.7-5.1-5.2-8.7-10.1-10.9c-2.3-1-4.6-2.2-6.9-3.3c-4.1-1.9-8.3-3.8-12.4-5.5c-3.3-1.4-6.7-2-10.3-2.2
	c-2.3-0.1-4.7,0.2-6.8-0.3c-2.3-0.6-4.3-2-6.5-3.1c-1.9-0.9-3.7-1.8-5.5-2.8c-1.3-0.7-2.7-1.5-3.8-2.4c-2.2-1.9-4.5-3.9-5.4-6.8
	c-0.5-1.4-0.9-2.7-1.2-4.1c-0.1-0.6-0.1-1.5,0.2-2c1.2-1.9,2.7-3.6,4.8-4.6c1.3-0.7,2.6-0.8,4.1-0.1c1.3,0.6,2.7,0.9,4.1,1
	c6.4,0.3,11.8-3.2,13.7-9.5c1.3-4.2,1.7-8.6,2.4-12.9c0.1-0.4,0-0.8-0.1-1.2c-0.8-3.7-1.2-7.4-3-10.8c-1.6-3-2.8-6.1-2.4-9.6
	c0.2-1.9-1-3.2-2.1-4.7c-1.8-2.3-3.4-4.6-5-7c-0.3-0.5-0.6-1.2-0.6-1.8c-0.4-2.8-0.7-5.7-1.1-8.5c-0.6-4.5-1.4-9-2.8-13.3
	c-1.1-3.6-3.3-6.2-6.6-7.8c-3.5-1.7-7-3.4-10.9-3.7c-3.9-6.2-9.1-9.5-16.5-9.5c-7.4,0-14.3,1.7-21.2,4.5c-5,2-8.6,5.5-11,10.1
	c-0.9,1.7-1.7,3.4-2.5,5.2c-1.5,3.2-3.6,6-6.5,8.2c-0.9,0.7-1.8,1.3-2.6,2.1c-1.4,1.5-3,1.7-4.8,1.1c-3.6-1.1-7.1-0.5-10.6,0.6
	c-3.5,1.1-5.8,3.6-6.7,7.2c-0.6,2.1-0.7,4.1,1.9,5.4c-0.5,1.2-0.9,2.3-1.3,3.4c-1.3,3.3-2.6,6.7-3.9,10c-1.1,2.9-0.8,5.5,1.7,7.6
	c0.1,0.1,0.1,0.3,0.1,0.5c-0.5,0.7-1,1.4-1.4,2.1c-0.4,0.8-0.7,1.6-0.9,2.4c-2.6,9.9,4.3,19,11.6,21.6c3,1.1,5.5,2.7,8,4.6
	c2.1,1.6,4.5,3.1,6.9,4.3c5.3,2.6,11.1,3.5,17,3.3c3.2-0.1,6.4,0.1,9.5,1.1c2.1,0.7,2.2,1,2,3.1c-0.1,0.8-0.2,1.6-0.3,2.4
	c-0.6,6.3-3.4,11.4-8.9,14.8c-3.5,2.1-7,4.1-10.5,6.2c-1.7,1.1-3.4,2-5.6,1.4c-0.6-0.2-1.4,0.1-2.1,0.3c-2.7,0.9-5.5,1.8-8.1,2.8
	c-2.5,1-4.9,2.4-7.4,3.5c-8,3.3-15.2,7.8-21.3,13.9c-1.5,1.5-3.2,3.1-4.1,4.9c-2.4,5.2-4.4,10.6-6.7,15.9c-0.8,1.8-1.7,3.6-2.7,5.3
	c-1.7,2.9-3.6,5.7-5.3,8.6c-10,17-18.6,34.7-25.7,53.2c-11.1,28.7-25.1,56-41,82.4c-7,11.6-14.1,23.2-20.9,34.9
	c-2,3.4-3.6,7-4.8,10.7c-2.9,8.5-2.7,16.9,1.6,25.1c1.1,2.1,2.2,4.2,3.3,6.4c0.3,0.7,0.7,1.5,0.7,2.2c-0.2,4.8,0.6,9.6,1.5,14.3
	c2.4,13.3,3.9,26.7,4.7,40.2c0.2,3.6,0.8,7.1,1.2,10.7c0.4,3.2,2.4,5.3,5.3,6.6c1.4,0.6,2.9,1.1,4.3,1.3c3.6,0.4,7.1,0.8,10.7,0.9
	c5,0.1,10.1,0.1,15.1-0.1c2.9-0.1,4.6,1,6.4,3.1c5.1,6.1,10.8,11.5,18,15.2c3.5,1.8,6.7,4,10,6.1c3.8,2.3,7,5.3,9.8,8.7
	c3.8,4.6,7.6,9.2,11.3,14c3.8,5,8.3,9.2,13.7,12.6c1.6,1,2.9,2.2,4.5,3.2c1.2,0.8,1.3,1.8,1.1,3.1c-3.8,20-7.5,40-10.2,60.1
	c-1.3,9.6-2.6,19.1-3.5,28.7c-0.8,7.4-1.1,14.8-1.5,22.2c-0.8,15.2-1.6,30.4-2.3,45.7c-0.3,6.4-0.5,12.8-0.9,19.1
	c-0.4,6.4-1,12.7-1.5,19.1c-0.6,8.4-1.2,16.7-1.8,25.1c-0.4,5.7-0.7,11.5-1.1,17.2c-0.1,1.5,0,3,1.1,4.2c0.4-0.2,0.8-0.4,1.2-0.4
	c5.6,0.1,11.2,0.2,16.7,0.3c3.2,0,3.9-1,3.6-4.1c-0.1-1.4-0.3-2.8-0.5-4.5c1.4,0.1,2.6,0.1,3.6,0.3c10.6,2,21.3,2.8,32,4
	c8.6,1,17.1,1.9,25.7,2.8c1.9,0.2,3.8,0.3,5.7,0c3.2-0.4,4.7-2.5,4.3-5.7c-0.1-0.4,0-0.9,0-1.5c8.1,2,16,1.9,24,0.6
	c5.8-1,11.6-1.9,17.5-2.9c13.3-2.2,26.6-4.3,39.9-6.5c8-1.3,16.1-2.5,24.2-2.6c6-0.1,12-0.3,18-0.4c2.4-0.1,4.8-0.5,6.9-1.6
	c2-1,2.1-1.2,1.6-3.4c-0.9-3.6-1.9-7.3-3-10.8c-3-9.5-6.7-18.8-9.2-28.4c-4.5-17.6-8.5-35.4-12.5-53.1c-3.7-16.6-7-33.2-10.9-49.8
	c-3.2-13.4-6.7-26.8-10.5-40c-5-17.2-10.1-34.4-14.2-51.9c-0.2-0.8-0.4-1.6-0.6-2.6c0.9,0,1.5,0,2.2,0c2.6,0,5.3,0.2,7.9-0.1
	c9.9-1,19.3-4.2,28.4-8.1c12.6-5.3,24.2-12.5,36.1-19.2c0.8-0.5,1.6-1.1,2.4-1.6c2.5-1.6,4.3-3.8,5.2-6.6c1.6-4.7,3.2-9.4,4.7-14.1
	C458.4,487.9,459.5,484.6,460.7,481.1z"/>
<path d="M460.7,481.1c-1.2,3.5-2.3,6.9-3.4,10.2c-1.6,4.7-3.1,9.4-4.7,14.1c-1,2.8-2.8,5-5.2,6.6c-0.8,0.5-1.6,1.1-2.4,1.6
	c-11.9,6.7-23.5,13.9-36.1,19.2c-9.2,3.8-18.5,7.1-28.4,8.1c-2.6,0.3-5.3,0-7.9,0.1c-0.6,0-1.2,0-2.2,0c0.2,0.9,0.4,1.8,0.6,2.6
	c4.1,17.5,9.2,34.7,14.2,51.9c3.8,13.2,7.4,26.6,10.5,40c3.9,16.5,7.2,33.2,10.9,49.8c4,17.7,8,35.5,12.5,53.1
	c2.5,9.6,6.2,19,9.2,28.4c1.1,3.6,2.1,7.2,3,10.8c0.6,2.1,0.4,2.4-1.6,3.4c-2.2,1.1-4.5,1.6-6.9,1.6c-6,0.1-12,0.3-18,0.4
	c-8.2,0.1-16.2,1.3-24.2,2.6c-13.3,2.2-26.6,4.4-39.9,6.5c-5.8,1-11.6,1.9-17.5,2.9c-7.9,1.3-15.9,1.5-24-0.6c0,0.6,0,1.1,0,1.5
	c0.4,3.1-1.1,5.2-4.3,5.7c-1.9,0.3-3.8,0.2-5.7,0c-8.6-0.9-17.1-1.8-25.7-2.8c-10.7-1.2-21.4-2-32-4c-1.1-0.2-2.2-0.2-3.6-0.3
	c0.2,1.7,0.4,3.1,0.5,4.5c0.3,3.2-0.4,4.2-3.6,4.1c-5.6,0-11.2-0.2-16.7-0.3c-0.4,0-0.7,0.2-1.2,0.4c-1.1-1.1-1.2-2.6-1.1-4.2
	c0.4-5.7,0.7-11.5,1.1-17.2c0.6-8.4,1.2-16.7,1.8-25.1c0.5-6.4,1.1-12.7,1.5-19.1c0.4-6.4,0.6-12.8,0.9-19.1
	c0.8-15.2,1.5-30.4,2.3-45.7c0.4-7.4,0.8-14.8,1.5-22.2c1-9.6,2.2-19.2,3.5-28.7c2.7-20.2,6.4-40.2,10.2-60.1
	c0.3-1.3,0.1-2.3-1.1-3.1c-1.5-1-2.9-2.3-4.5-3.2c-5.4-3.3-9.8-7.6-13.7-12.6c-3.6-4.7-7.5-9.3-11.3-14c-2.8-3.4-6-6.4-9.8-8.7
	c-3.3-2.1-6.6-4.3-10-6.1c-7.2-3.7-12.9-9.1-18-15.2c-1.8-2.1-3.5-3.3-6.4-3.1c-5,0.2-10.1,0.2-15.1,0.1c-3.6-0.1-7.2-0.4-10.7-0.9
	c-1.5-0.2-3-0.7-4.3-1.3c-2.9-1.2-4.9-3.3-5.3-6.6c-0.5-3.6-1-7.1-1.2-10.7c-0.8-13.5-2.3-26.9-4.7-40.2c-0.8-4.7-1.7-9.4-1.5-14.3
	c0-0.7-0.4-1.5-0.7-2.2c-1.1-2.1-2.2-4.3-3.3-6.4c-4.3-8.1-4.5-16.5-1.6-25.1c1.2-3.7,2.8-7.3,4.8-10.7
	c6.8-11.7,13.9-23.3,20.9-34.9c16-26.3,29.9-53.6,41-82.4c7.1-18.4,15.6-36.2,25.7-53.2c1.7-2.9,3.6-5.7,5.3-8.6
	c1-1.7,1.9-3.5,2.7-5.3c2.2-5.3,4.2-10.7,6.7-15.9c0.9-1.9,2.6-3.4,4.1-4.9c6.2-6.1,13.4-10.5,21.3-13.9c2.5-1.1,4.9-2.4,7.4-3.5
	c2.6-1.1,5.4-1.9,8.1-2.8c0.7-0.2,1.5-0.4,2.1-0.3c2.2,0.5,3.8-0.4,5.6-1.4c3.5-2.1,7-4.1,10.5-6.2c5.6-3.4,8.3-8.4,8.9-14.8
	c0.1-0.8,0.2-1.6,0.3-2.4c0.3-2.1,0.1-2.4-2-3.1c-3.1-1-6.3-1.2-9.5-1.1c-5.9,0.2-11.6-0.7-17-3.3c-2.4-1.2-4.8-2.6-6.9-4.3
	c-2.5-1.9-5-3.6-8-4.6c-7.3-2.6-14.3-11.7-11.6-21.6c0.2-0.8,0.5-1.7,0.9-2.4c0.4-0.8,1-1.5,1.4-2.1c0-0.2,0-0.4-0.1-0.5
	c-2.5-2.1-2.8-4.7-1.7-7.6c1.2-3.4,2.6-6.7,3.9-10c0.4-1.1,0.9-2.2,1.3-3.4c-2.6-1.2-2.4-3.3-1.9-5.4c0.9-3.6,3.2-6.1,6.7-7.2
	c3.5-1.1,7-1.7,10.6-0.6c1.8,0.5,3.4,0.4,4.8-1.1c0.7-0.8,1.7-1.5,2.6-2.1c2.9-2.2,5-4.9,6.5-8.2c0.8-1.7,1.6-3.5,2.5-5.2
	c2.4-4.7,6-8.1,11-10.1c6.8-2.8,13.8-4.4,21.2-4.5c7.4,0,12.6,3.3,16.5,9.5c3.9,0.3,7.4,2,10.9,3.7c3.3,1.6,5.5,4.2,6.6,7.8
	c1.4,4.4,2.2,8.8,2.8,13.3c0.3,2.9,0.7,5.7,1.1,8.5c0.1,0.6,0.3,1.3,0.6,1.8c1.6,2.4,3.2,4.7,5,7c1.1,1.4,2.3,2.8,2.1,4.7
	c-0.4,3.5,0.8,6.7,2.4,9.6c1.8,3.4,2.2,7.1,3,10.8c0.1,0.4,0.1,0.8,0.1,1.2c-0.8,4.3-1.2,8.7-2.4,12.9c-1.9,6.2-7.3,9.7-13.7,9.5
	c-1.4-0.1-2.9-0.4-4.1-1c-1.5-0.7-2.8-0.5-4.1,0.1c-2.1,1-3.6,2.7-4.8,4.6c-0.3,0.5-0.4,1.4-0.2,2c0.3,1.4,0.7,2.8,1.2,4.1
	c1,2.9,3.2,4.9,5.4,6.8c1.1,1,2.5,1.7,3.8,2.4c1.8,1,3.7,1.9,5.5,2.8c2.1,1.1,4.2,2.5,6.5,3.1c2.2,0.6,4.5,0.2,6.8,0.3
	c3.5,0.2,7,0.8,10.3,2.2c4.2,1.7,8.3,3.7,12.4,5.5c2.3,1.1,4.6,2.2,6.9,3.3c4.9,2.2,8.4,5.8,10.1,10.9c0.8,2.4,1.6,4.9,2.1,7.3
	c1.2,5.5,2.7,10.8,4.8,16c2.7,6.6,4.5,13.4,6.3,20.3c1.1,4.2,2.5,8.4,4.3,12.4c5.1,11.5,9.6,23.3,13.5,35.3
	c4,12.3,8.1,24.6,13.7,36.2c3,6.3,6.1,12.5,9.3,18.6c7,13.7,13.8,27.5,20,41.6c5.5,12.6,11.5,24.9,17.2,37.4
	c6,13.1,11.9,26.3,17.9,39.4c1.2,2.6,1.3,5.1,0.3,7.6c-1.3,3.2-2.4,6.4-3.8,9.6c-4.7,10.3-8.3,20.9-10.4,32
	c-0.2,1.3-0.7,2.6-1.2,3.9c-1,2.2-2.6,2.9-4.9,2.3c-0.8-0.2-1.6-0.6-2.5-0.9c-1.4-0.6-2.8-1.2-4.2-1.7
	C466,482.8,463.5,482,460.7,481.1z M196.9,465.9L196.9,465.9c3.1-2.9,5.1-5.7,4.9-7.1c-1.7,1.8-2.3,4.4-4.9,5.2
	c-0.6-1-1.6-0.7-2.5-0.4c-4.6,1.2-8.9,2.9-13.2,4.9c-3.4,1.6-6.9,3.1-10.4,4.2c-6.6,2.1-12.8,0.8-18.2-3.6c-2.4-1.9-4.6-3.9-7.1-5.7
	c-6.7-4.8-13.5-9.4-20.2-14.1c-1.2-0.8-2.2-1.8-3.4-2.7c-3.6-2.9-5.5-6.5-5.4-11.2c0.1-3.5-1.1-6.7-2.6-9.9
	c-0.2-0.4-0.5-0.8-1.1-1.7c0,0.9,0,1.2,0.1,1.5c1,6.1,1.9,12.3,3,18.4c1.9,10.6,3.1,21.3,3.5,32.1c0.2,3.8,0.8,7.6,1.3,11.4
	c0.3,2.1,1.5,3.5,3.3,4.4c1,0.5,2.1,0.8,3.1,1.1c4,0.9,8.1,1,12.1,1c6.5,0,12.9,0,19.4,0.1c4.2,0.1,8.1-0.8,11.7-3
	c3.5-2.2,6.9-4.6,10.2-7.1c6.1-4.6,10.6-10.8,15.8-16.3C196.5,467,196.7,466.4,196.9,465.9z M429.2,778.4c-0.1-0.6,0-1.1-0.2-1.6
	c-1-3.8-1.9-7.6-3.1-11.3c-3.1-9.8-6.7-19.5-9.3-29.4c-3.7-14.3-6.8-28.7-10.1-43.1c-2.5-11-4.8-22.1-7.3-33.2
	c-4.7-21.1-9.8-42.1-15.9-62.9c-5.5-18.8-10.9-37.5-15.4-56.5c-2.3-9.8-4.6-19.6-5.4-29.6c-1.5-16.7-0.5-33.3,1.2-50
	c0.6-5.6,1.6-11.2,2-16.9c1.1-14.1,2-28.2,2.8-42.3c0.5-8.8,0.5-17.7-0.5-26.5c-0.1-1.2-0.6-2.1-1.2-3c-1.9-2.6-3.8-5.1-5.5-7.8
	c-6.6-9.9-11.4-20.5-14.2-32.2c-2.4-9.7-6-19.2-9.1-28.7c-0.1-0.2-0.3-0.2-0.6-0.4c-0.3,0.4-0.7,0.8-0.9,1.2
	c-4.7,6.5-10.7,11.6-16.6,16.8c-1.2,1.1-2.7,2-4.1,2.9c-1.9,1.2-3.2,1.1-4.7-0.5c-4.8-5-10.7-8.6-16.4-12.4c-3.4-2.3-7.1-4.1-11-6.3
	c-0.4,1.5-0.7,2.7-1.1,3.8c-3.5,12.8-7.1,25.7-12.8,37.8c-6.6,13.9-14.6,27.1-23.5,39.7c-3.2,4.6-6.3,9.2-9.2,14
	c-2.9,4.8-5.3,9.9-5.5,15.6c-0.3,7.3-0.6,14.5-0.6,21.8c0,9.5,0.9,19,2.6,28.3c2.6,13.8,3.9,27.8,4,41.9c0,5.3-0.6,10.5-0.9,15.8
	c-0.5,9.5-1.8,18.9-3.6,28.2c-3.1,15.7-6,31.5-8.8,47.3c-1.8,10.7-3.4,21.4-4.8,32.2c-1.2,9.5-2.2,19-3.1,28.5
	c-0.6,6.3-0.7,12.6-1.1,18.9c-0.6,10.3-1.1,20.6-1.7,30.8c-0.5,10.6-0.9,21.2-1.6,31.8c-1.3,18.9-2.8,37.7-4.1,56.6
	c-0.1,1.1,0,2.2,0,3.4c3.1,0.9,6.2,0.1,9.3,0c3.1-0.1,6.2,0.1,9.3-0.4c-0.1-0.6-0.1-0.9-0.1-1.2c-0.6-3.5-1.4-6.9-1.6-10.4
	c-0.4-5.6-0.5-11.2-0.4-16.7c0.1-11.2,0.3-22.3,0.5-33.5c0.1-6.7,0.2-13.4,0.5-20.1c0.5-14.4,1.1-28.7,1.8-43.1
	c0.7-15.6,1.6-31.2,2.4-46.9c0.1-1.7,0.4-3.3,0.5-4.9c0.3,2.4,0.4,4.7,0.3,7.1c-0.2,6.1-0.4,12.1-0.7,18.2
	c-0.5,14.8-1.1,29.5-1.6,44.3c-0.4,11-1,22-1.3,33c-0.4,14.4-0.5,28.7-0.7,43.1c-0.1,5.8,0,11.7,0.1,17.5c0,1.9,0.4,3.7,0.5,5.6
	c1.4-0.1,2.4-0.2,3.4-0.2c1,0,2.1,0.2,3.1,0.3c11.5,2.2,23.3,3,34.9,4.2c5.9,0.6,11.7,1.2,17.6,1.8c2.5,0.3,5.1,0.7,7.6,0.8
	c1.2,0,2.4-0.6,3.5-1.3c1.2-0.7,0.2-1.9,0.2-2.9c-0.8-8.7-1.5-17.5-2.5-26.2c-1.7-16.3-2.6-32.6-2.2-49c0.3-13.3,1.3-26.6,2.7-39.9
	c1.5-14.9,3-29.8,4.5-44.8c1.5-15.5,3.2-31,4.5-46.5c1.1-14,1.9-28,2.6-42c0.6-12.8,1.4-25.5,0.8-38.3c0-0.9,0.1-1.8,0.1-2.7
	c0.5,1.2,0.8,2.3,0.8,3.5c0.2,8.1,0.5,16.1,0.3,24.2c-0.2,10.8-0.7,21.5-1.3,32.3c-0.5,8.8-1.2,17.5-1.9,26.3
	c-0.5,6.1-1,12.3-1.6,18.4c-1.2,11.8-2.4,23.7-3.6,35.5c-1.2,12.4-2.6,24.8-3.5,37.2c-1,12-1.8,24-2.3,36.1
	c-0.5,14-0.1,28.1,1.3,42.1c0.9,8.5,1.7,17,2.6,25.5c0.2,2,0.4,4.1,0.7,6c1.2,0.1,2.3,0.2,3.3,0.3c5.7,0.6,11.5,0.8,17.2-0.1
	c6.4-1,12.8-2,19.1-3.1c12.3-2,24.6-3.9,36.8-6c11.6-2,23.2-3.7,34.9-3.6c3.4,0,6.9,0,10.3-0.1C423.6,780.2,426.5,780.3,429.2,778.4
	z M295.5,203.6c-7.1-1.9-12.6-6.1-17.9-10.6c-5.3-4.5-12.3-13.2-13.1-15.4c2.4,2.3,5.2,4.9,7.9,7.6c4.2,4.2,8.5,8.5,13.5,11.8
	c2.8,1.8,5.8,3.4,8.7,4.9c1.6,0.8,2.5,0,2.6-1.7c0.1-2.6-0.5-5.1-1.8-7.3c-2.4-4.3-4.9-8.4-8.2-12.1c-4.5-4.9-9.1-9.9-13.8-14.7
	c-4-4.1-8.5-7.5-13.4-10.3c-2.5-1.4-5.1-1.8-7.8-0.8c-2.3,0.9-4.7,1.7-6.9,2.7c-3.5,1.6-6.9,3.3-10.4,4.9c-6.8,3-12.7,7.4-18,12.5
	c-1.1,1.1-2.1,2.4-2.9,3.8c-1.1,1.9-2,4-2.9,6.1c-1.9,4.9-3.9,9.8-5.6,14.7c-2.4,6.8-5,13.6-7,20.6c-5.7,19.5-12,38.7-20,57.4
	c-8,18.8-16.5,37.4-24.8,56c-2,4.5-4.2,8.9-6.3,13.4c-4.7,10.3-9.4,20.6-14.2,30.9c-2.1,4.5-2.9,9.3-2.3,14.2
	c0.6,5.3,1.4,10.6,2.6,15.8c1.3,5.7,3.1,11.2,4.8,16.8c0.5,1.6,1.3,3.3,2.5,4.6c2.3,2.5,4.9,4.8,7.4,7.1c7.2,6.5,14.5,13,21.6,19.6
	c2.6,2.5,5.1,2.9,8.2,1.3c0.4-0.2,0.7-0.3,1.1-0.5c5.5-2.7,11-5.4,16.5-8.1c0.6-0.3,1.2-0.7,1.8-1.1c-0.3-1.8-0.7-3.4-0.9-5.1
	c-0.1-1.9-1.1-3.1-2.7-3.9c-3-1.4-6-2.9-9.1-4.2c-9.1-3.7-18.5-6.5-28.4-7.3c-3.1-0.3-6.2-0.8-9.3-1.2c-0.8-0.1-1.7,0-2.4-1.3
	c5.1,0.4,9.9,0.6,14.6,1.1c12.8,1.3,24.8,5.5,36.5,11.4c0.1-0.6,0.1-1,0.1-1.3c0.1-3,0-6.1,0.2-9.1c0.6-7.6,1.4-15.1,2.2-22.6
	c0.4-3.9,0.7-7.8,0.2-11.7c-0.5-4.1-0.7-8.3-1-12.4c-0.4-5.1-0.6-10.2-1.1-15.3c-1.3-12.7-2.1-25.4-2.6-38.2
	c-0.4-11.7,0.2-23.5,0.9-35.2c0.1-1.7,0.4-3.3,0.6-5c0.3,0.7,0.3,1.3,0.3,1.9c0,12.2-0.2,24.4,0,36.6c0.1,7.7,0.7,15.5,1.2,23.2
	c0.8,12.4,1.8,24.8,2.7,37.2c0,0.4,0.1,0.8,0.2,1.2c0.5-0.8,0.6-1.6,0.7-2.4c1.2-9.7,2.4-19.3,3.6-29c1.5-11.8,3-23.6,4.5-35.4
	c0.7-5.9,1.3-11.7,2.2-17.6c1.5-9.6,3.9-19.1,6.7-28.4c0.6-2,0.7-3.8,0-5.8c-0.4-1.2-0.6-2.5-0.8-3.7c-0.9-5.4-0.3-10.8-0.2-16.2
	c0.1-6.2,0.2-12.4,0.1-18.7c-0.2-9.2-0.6-18.3-0.8-27.5c0-2,0.4-4,0.6-6.2c0.5,8.4,0.9,16.5,1.3,24.6c0.3,6.9,0.7,13.7,0.8,20.6
	c0.1,4.7-0.3,9.4-0.4,14.1c0,2.9-0.1,5.8,0.3,8.6c0.4,2.8,1.3,5.5,2.1,8.2c2,6.1,4.1,12.1,6.2,18.1c0.2,0.6,0.5,1.1,0.9,2.2
	c3.4-15.4,5.1-30.5,9.5-45c-0.2,2.5-0.6,4.9-1,7.3c-0.5,2.8-1.2,5.6-1.6,8.5c-1.7,12.2-4.3,24.3-6.6,36.5c-0.7,3.8-1.4,7.5-1.8,11.3
	c-1,8.6,0.1,16.8,4.2,24.6c3.4,6.6,6.5,13.3,9.7,20c0.6,1.2,1,2.4,1.4,3.6c-0.2,0.1-0.3,0.1-0.5,0.2c-5.4-10.2-11.5-20.1-15.9-30.9
	c-0.2,5-0.1,9.9,0.1,14.9c0.4,8.3,1.4,16.6-0.7,24.8c-0.4,1.5-0.7,3-1,4.4c-2.4,10.5-3.5,21.2-4.6,32c-0.7,6.6,1,12.6,5,18
	c0.8,1,1.5,2.1,2.3,3.4c0.2-0.4,0.2-0.6,0.3-0.7c0.2-0.8,0.3-1.6,0.5-2.3c2.2-10.5,5.7-20.4,12-29.2c5.4-7.6,10.6-15.4,15.6-23.3
	c6.7-10.7,12.8-21.7,17.2-33.6c5.8-15.8,10.4-32,13.3-48.6c2.6-14.4,5.3-28.9,7.9-43.3c1.1-6.1,2.3-12.2,4.8-18
	c0.3-0.6,0-1.5-0.3-2.2c-1.8-4.1-2.5-8.4-2.6-12.8c0-0.4-0.1-0.8-0.2-1.3c-6.4,2.5-12.7,4.8-18.9,7.3c-2.9,1.2-5.7,2.5-8.5,3.9
	c-8.5,4.2-14.5,10.9-18.6,19.2c-1.4,2.7-2.1,5.7-2.5,8.7c-0.1,0.5,0.1,0.9,0.1,1.4c3-4.3,6.5-7.8,10.3-11.1
	c5.3-4.6,10.1-8.1,12.5-8.9c-1.3,1.1-2.3,2-3.3,2.9c-6.2,5.7-12.8,11.1-17.5,18.3c-0.6,0.9-1.4,1.8-2.2,2.5c-1.1,0.9-2.1,0.5-2.4-1
	c-0.1-0.4-0.1-0.8,0-1.2c0.2-3.9,0.8-7.8,2.5-11.4c4.6-9.9,11.6-17.6,21.7-22c6-2.6,12.1-4.8,18.3-7.2c2.9-1.1,5.8-2.1,8.6-3.1
	C295,206.7,295.2,205.3,295.5,203.6z M317.2,204.2c-1.4,3.3-1.7,6.3-0.9,9.4c0.8,3.2,1.8,6.4,2.5,9.7c1,5.1,1.6,10.2,2.8,15.3
	c1.3,5.8,3.1,11.4,4.5,17.1c4.7,19,10.6,37.6,16.9,56.1c2.5,7.2,5,14.3,6.4,21.8c1.3,7.1,3.9,13.6,7.4,19.9
	c3.6,6.4,7.5,12.6,12.1,18.4c4,5.1,7.8,10.3,12.4,14.9c5.8,5.7,10.7,12,15.2,18.8c0.4,0.6,0.8,1.1,1.2,1.7c0.1-1.1-0.1-2.1-0.4-3.1
	c-0.9-2.7-2-5.4-2.7-8.2c-2.3-8.8-3.1-17.8-3.1-26.8c0-14.6,0.1-29.2,0.3-43.8c0.1-7.1,0.6-14.2,0.8-21.3c0.1-4.1,0.2-8.3-0.1-12.4
	c-0.5-7.2-1.1-14.3-1.8-21.5c-0.4-4.3-0.9-8.6-1.8-12.8c-1.1-5.4-2.5-10.7-4-16c-2.3-7.9-3.6-15.9-3.9-24c0-0.9,0.1-1.8,0.2-2.7
	c0.2,0,0.3,0,0.5,0c1.1,10.7,3.1,21.1,6.6,31.3c0.4-0.8,0.6-1.5,0.7-2.3c0.2-4.2,0.2-8.4,0.4-12.7c0.4-7.2,0.9-14.5,1.4-21.7
	c0.3-4,0.8-7.9,1.2-11.9c0.3-3.1-0.2-6.1-1.2-9.1c-1.5-4.2-2.5-8.5-3.8-12.8c-0.8-2.7-1.4-5.4-2.3-8c-1.5-4.8-4.8-8.2-9.4-10.3
	c-3.5-1.6-7-3.5-10.5-5.1c-5.9-2.7-11.8-5.2-18.4-5.8c-3.6-0.3-6.7,0.5-9.3,3.2c-5.4,5.6-10.6,11.3-14.8,17.8
	c-1.5,2.3-2.8,4.7-3.7,7.2c-2.2,6.6-2.6,13.4-2.3,20.3c0.1,1.5,0.4,3,1.5,4.1c8.7-0.2,17.1-5.1,23.2-10.7c2.3-2.2,4.9-4.1,7.4-6
	c1.5-1.1,3.1-2,4.7-3c0.1,0.2,0.3,0.4,0.4,0.5c-7.2,5.3-12.5,12.9-20.6,17.1c0.4,0.2,0.7,0.2,0.9,0.2c7.2-1,14.5-0.9,21.7-0.2
	c6.5,0.6,13,1.2,19.5,1.8c4.7,0.4,9-0.6,13.2-2.7c0.5-0.2,0.9-0.4,1.5-0.7c0,0.3,0,0.4,0,0.5c-0.1,0.2-0.3,0.4-0.4,0.6
	c-2.8,3.1-6.4,4.3-10.5,4.4c-6.7,0.2-13.2-0.8-19.8-1.7c-6.8-1-13.7-1.5-20.5-0.9c-6.8,0.6-13.6,1.5-20.4,2.2
	c-0.2,1.1-0.3,2.1-0.4,2.9c2.6,1.1,5.1,1.8,7.4,3.1c4.6,2.6,9.2,5.5,13.6,8.4c4.4,2.9,8.8,5.8,12.8,9.2c7.2,6.3,13.4,13.6,17.9,22.2
	c1.3,2.5,2.9,4.8,4.4,7.1c1,1.5,2.4,2.6,4.2,2.9c1.1,0.2,2.3,0.2,3.1-0.8c0.7-0.9,0.2-1.9-0.3-2.7c-1.8-3.5-3.6-6.9-5.4-10.4
	c-0.4-0.8-0.9-1.5-1.3-2.3c0.2-0.1,0.4-0.3,0.6-0.4c0.3,0.5,0.6,0.9,0.9,1.4c1.9,2.8,3.8,5.5,5.6,8.4c0.8,1.2,1.5,2.5,2,3.8
	c0.9,2.4-0.1,4.3-2.6,5c-1.9,0.5-3.7,0.4-5.3-0.7c-1.4-1-2.8-2.2-3.8-3.6c-1.9-2.7-3.5-5.5-5.1-8.4c-4.5-8-10.2-15.1-17.3-20.9
	c-7.9-6.5-16.6-11.9-25.3-17.2C321.8,206,319.5,205.2,317.2,204.2z M402.7,224.4c1.3,9.9,2.8,19.7,5.4,29.3
	c1.6,5.8,3.3,11.7,4.7,17.6c2.3,10.1,4.1,20.3,6.5,30.4c4.2,17.8,8.7,35.7,13.2,53.4c2.8,10.8,4.6,21.8,6.2,32.9
	c1.2,8.8,1.7,17.6,0.4,26.5c-0.4,2.6-0.8,5.2-1.5,7.7c-0.5,1.8-1.4,3.6-2.5,5.1c-1.4,1.7-2.1,3.3-1.8,5.4c0.3,1.9-0.2,3.6-1.2,5.2
	c-0.3,0.5-0.7,1.1-1,1.6c-2.7,4.6-5.8,9-7.5,14.1c-0.2,0.7-0.7,1.4-1.2,2.1c-1,1.5-3.9,1.8-4.6-0.5c-0.1-0.4-0.4-0.8-0.6-1.3
	c-3.9,0.8-7.7,1.5-11.7,2.3c0.3,0.5,0.4,0.8,0.6,1c2.3,2.2,4.5,4.4,7,6.4c3.7,3.1,8,3.6,12.6,2.7c2.9-0.6,5.4-2,7.7-3.7
	c3.8-2.8,6.5-6.6,8.9-10.6c3.2-5.5,7.2-10.3,11.5-15c0.6-0.7,1.3-1.2,2-1.8c-0.9,1.9-2.1,3.5-3.2,5.1c-3.4,5.1-6.7,10.3-10.1,15.4
	c-2.2,3.3-4.7,6.3-7.9,8.6c-4.3,3.2-9,5.1-14.5,4.3c-0.3,0-0.6,0-0.9,0c0,0.2-0.1,0.3-0.1,0.5c2,0.5,3.9,1,5.9,1.4
	c11.1,2.1,22.2,4.4,33.1,7.7c0.8,0.2,1.7,0.2,2.5,0.5c1.6,0.6,3,1.3,4.6,1.9c2.9,1,5.9,2,8.8,3c0.4,0.1,0.7,0.3,1.1,0.4
	c1.9,0.5,2.6,0.2,3.3-1.6c0.4-1,0.7-2.1,0.9-3.2c2.1-11.6,6.2-22.6,11.1-33.3c1.3-2.8,2.3-5.8,3.5-8.7c0.7-1.7,0.5-3.4-0.2-5.1
	c-5-11-10-22.1-15.1-33.1c-6.8-14.8-13.9-29.4-20.5-44.3c-6.2-14-12.7-27.9-19.9-41.4c-8.7-16.5-15.9-33.6-21.5-51.3
	c-3.8-11.9-7.8-23.8-12.8-35.3C403.4,226,403.1,225.2,402.7,224.4z M369.1,433.3c-0.1,0-0.2,0-0.3,0c-0.1,0.5-0.1,1.1-0.2,1.6
	c-0.4,4.4-0.7,8.9-1.2,13.3c-0.7,6.3-1.6,12.7-2.1,19c-0.5,6.5-0.7,13.1-1.1,19.6c-0.7,12.9,0.2,25.7,2.7,38.3c0.9,4.6,2,9.2,3,13.8
	c4.1,0.3,8-0.1,11.8-0.6c9.3-1.3,18.1-4.3,26.7-8c12.4-5.3,23.8-12.3,35.4-18.9c3.6-2,6.2-4.8,7.5-8.9c2.3-7.3,4.7-14.6,7-21.8
	c0-0.1-0.1-0.3-0.2-0.6c-1-0.3-2-0.7-3.1-1c-10.2-2.8-20.5-5.4-31-7.2c-4.2-0.7-8-2.1-11.2-4.9c-0.1-0.1-0.2,0-0.6,0
	c3.4,4.9,7.2,9.3,11,13.6c3.8,4.4,7.6,8.8,11.5,13.2c-0.7,0.1-1.1-0.1-1.4-0.4c-3.7-3.6-7.6-7.1-11.2-10.8
	c-6.8-7.2-12.1-15.6-17.6-23.9c-0.5-0.8-1-1.5-1.6-2.3c-0.8,0.1-1.3,0.2-1.9,0.3c-2.8,0.4-5.5,0.9-8.3,1.2c-2.6,0.3-4.5-0.9-5.4-3.4
	c-0.8-2.2-1.6-4.3-2.4-6.5c-1.3-3.6-2.7-7.1-4-10.7c-2.4,0.5-4.5,0.9-6.6,1.3c-2.7,0.5-3.6,0-4.5-2.6
	C369.6,435.2,369.4,434.3,369.1,433.3z M276.5,90c0.2,0,0.4,0,0.6,0c0.2,1.3,0.6,2.6,0.7,3.9c0.4,5.6,2.1,10.6,5.4,15.1
	c0.1,0.2,0.3,0.4,0.4,0.6c0.2,0.7,0.5,1.3,0.4,2c-0.5,5.6-1,11.3-1.6,16.9c-0.2,2.3-0.5,4.6-1,6.9c-0.8,3.5-2.9,6.3-5.6,8.7
	c-4.1,3.5-8.9,5.9-13.5,8.5c-0.5,0.3-1,0.6-1.4,0.9c3.3,2.4,6.5,4.7,9.6,7c0.8,0.6,1.6,0.8,2.7,0.7c4-0.2,8-0.3,12-0.3
	c3.2,0,6.4,0.2,9.4,1.3c1.1,0.4,2.2,0.8,3.2,2.1c-4.4-0.6-8.4-1.5-12.4-1.7c-4.1-0.2-8.1-0.8-12.6-0.4c4.3,4.4,8.3,8.6,12.3,12.6
	c3.9,4,7.5,8.3,10.3,13.1c2,3.5,4,6.9,3.6,11.2c0,0.1,0.1,0.1,0.1,0.2c0.1,0,0.2,0.1,0.2,0.1c0.2,0,0.5-0.1,0.7-0.2
	c4.1-1.9,8.3-3.3,12.9-2.9c0.6,0.1,1.2-0.3,1.9-0.5c-0.6-6.3-0.5-12.4,0.7-18.5c1.3-6.3,4.8-11.4,8.7-16.9
	c-6.8,1.2-12.9,2.3-19.1,3.4c1.7-1.8,3.9-2.3,6-2.7c4.5-0.9,8.9-1.6,13.4-2.5c0.7-0.1,1.5-0.5,2-1.1c3.5-3.6,7-7.2,10.5-10.8
	c0.4-0.4,0.7-0.8,1.1-1.3c-1.9-0.9-3.6-1.7-5.4-2.6c-4.2-2-8.2-4.2-11.8-7.2c-2.6-2.2-4-4.9-4.7-8.1c-0.2-0.7-0.3-1.5-0.5-2.5
	c-0.5,0.4-0.8,0.6-1,0.9c-2.6,3-6,4.3-9.9,4.6c-1.8,0.1-3.6-0.3-4.8-1.7c-1.6-1.7-3.2-3.6-4.5-5.5c-1-1.3-0.1-2.7,1.6-2.7
	c0.8,0,1.6,0,2.4,0.1c4.3,0.5,7.6-1.3,10.3-4.5c1.9-2.2,3.8-4.3,5.7-6.4c1.8-2,2.9-4.4,3.5-7c1-4.7,1.2-9.5,1.1-14.3
	c0-0.9-0.3-1.7-0.5-2.6c-0.8-3.9-1.7-7.8-2.5-11.7c-0.1-0.3-0.3-0.7-0.6-1.3c-0.6,0.9-1.3,1.5-1.5,2.2c-0.4,1.2-1.2,1.6-2.4,1.6
	c-1.3,0-2.1-0.7-2.4-1.9c0-0.2-0.3-0.3-0.5-0.6c-0.6,0.3-1.2,0.6-2,1c-0.1-1.4,0.7-2,1.5-2.4c1-0.4,2.1-0.7,3.2-0.9
	c1.3-0.3,2.7-0.4,4.2-0.6c0-1.1-0.1-2.1-0.2-3.4c-3.5,1-6.7,1.9-9.9,2.8c2.6-3.1,6.3-3.8,9.9-5c-0.2-2.6-0.3-5-0.5-7.5
	c-0.4-4.8-2.2-8.9-5.9-12.2c-3.5-3.1-5.2-3.2-8.3,0.4c-0.9,1-1.5,2.2-2.1,3.5c-0.5,1.1-0.8,2.3-1,3.4c-1.2,5.5-2.7,10.8-5.3,15.8
	c-0.1,0.1,0,0.3,0,0.4c0.7,0.9,2.3,1.3,1.8,3c-3.7-0.8-3.7-0.8-4.4,1.4c0.6,0.4,1.3,0.8,2.1,1.3c-0.3,0.2-0.5,0.3-0.7,0.4
	c-2.5,1.3-5,2.3-6.7,4.9c-3.1,4.5-7.5,7.6-12.8,9.1c-0.4,0.1-0.7,0.3-1.1,0.5c1.4,1.8,1.6,1.8,4.9,1.3C276.5,91,276.5,90.5,276.5,90
	z M200.1,208.1c-0.1,0-0.2-0.1-0.4-0.1c-0.4,0.7-0.8,1.4-1.2,2c-9.1,15.7-17,32-23.4,49c-10.1,26.7-23,52.1-37.4,76.7
	c-7.8,13.4-16.1,26.7-24.1,40c-2.6,4.2-4.7,8.7-6.2,13.4c-2.5,8-2.3,15.9,1.7,23.4c1.4,2.7,2.8,5.5,4.4,8.1
	c3.3,5.1,5.1,10.6,5.2,16.7c0,2.2,0.8,4.1,2.5,5.5c2,1.7,4,3.5,6.1,5c5.3,3.8,10.8,7.4,16.1,11.2c3.7,2.7,7.2,5.5,10.8,8.3
	c4.2,3.3,9,4.5,14.2,3.5c2.6-0.5,5.2-1.6,7.7-2.5c0.5-0.2,1-0.6,1.5-0.9c-0.6-0.2-1-0.1-1.5,0c-4.2,1-8.2,0.9-12.2-0.9
	c-6.5-2.9-11.9-7.1-15.8-13.1c-4.4-6.8-8.5-13.9-13.6-20.3c-3.9-4.8-7.7-9.6-13-13c-0.5-0.3-1-0.6-1.7-0.9c-0.4,1.8-0.7,3.4-1,5
	c-0.2,0-0.3,0-0.5,0c0-1.7-0.1-3.4,0-5.1c0.2-1.5,1.3-1.9,2.7-1.2c0.5,0.3,0.9,0.6,1.4,0.9c4.6,3.1,8.5,7,12,11.3
	c3.1,3.9,5.9,7.9,8.8,12c2.7,3.8,5.1,7.7,7.8,11.5c3.7,5.3,8.8,8.9,14.8,11.3c3,1.2,6.1,1.6,9.4,0.9c1.4-0.3,2.8-0.6,4.2-0.5
	c1.8,0.1,3.5-0.2,5.1-0.9c3.8-1.7,7.7-3,11.9-3.7c2.3-0.4,3-2.4,4.3-3.9c0.2-0.2,0.1-0.6,0-0.9c-0.9-2.5-1.8-5-2.8-7.7
	c-1.4,1.2-2.5,2.3-3.8,3.3c-5.2,3.8-11.1,6.1-17.1,8.4c-2.6,1-5,0.5-7.1-1.5c-0.6-0.6-1.4-1.1-2-1.7c-5.7-5.2-11.5-10.4-17.1-15.7
	c-2.8-2.6-5.3-5.5-7.9-8.3c-0.8-0.8-1.4-1.8-2.4-2.4c-2-1.2-2.8-3-3.5-5c-3.6-10-6.1-20.3-7.4-30.9c-0.6-5.3-0.5-10.6,1.7-15.5
	c3.7-8.5,7.4-16.9,11.3-25.3c3-6.4,6.3-12.7,9.3-19.2c3.2-6.9,6.2-13.8,9.2-20.8c5.7-13.1,11.5-26.2,17-39.3c5-11.8,9.2-24,13-36.3
	c3-9.8,6-19.5,8.9-29.3C200,208.7,200,208.4,200.1,208.1z M432.9,426.4c2.2-1.8,3.4-4.1,3.7-6.8c0.5-4.5,1.1-9,1.4-13.5
	c0.4-6.5-0.5-12.9-1.4-19.3c-1.3-10-3.1-20-5.6-29.8c-5.2-20.5-10.3-41-15.2-61.5c-2.3-9.4-3.8-18.9-6.2-28.3
	c-3.3-13.1-6.6-26.1-8.7-39.4c-1.5-9.7-3.7-19.3-6.5-28.7c-0.3-0.9-0.6-1.7-0.9-2.6c-0.4,1.7-0.5,3.3-0.6,5
	c-0.6,8.8-1.2,17.7-1.8,26.5c-0.4,6.1-0.7,12.3-1.2,18.4c-0.3,3.1-0.2,6.2,0.5,9.3c0.3,1.2,0.6,2.5,0.8,3.7
	c1.7,10.4,2.3,20.9,2.9,31.4c0.1,2.5,0,5.1,0.5,7.6c1.6,8.9,2.9,17.8,5.3,26.5c4.2,15.3,7.2,30.7,9.1,46.4
	c1.2,9.6,3.7,18.8,7.5,27.6c1.9,4.4,4.2,8.4,7.8,11.6c0.7,0.6,1.3,1.4,1.9,2.1c3.3,3.5,5.2,7.8,6.2,12.5
	C432.6,425.5,432.8,426,432.9,426.4z M203.2,462.3c-3.9,4.6-7.7,9-11.5,13.4c-5.2,6.1-11.3,11.3-18,15.6c-2.8,1.8-5.7,3.2-8.9,4
	c-1.4,0.3-2.9,0.5-4.7,0.9c1.8,1.8,3.4,3.5,4.9,5.1c3.7,3.9,7.9,7.2,12.6,9.8c2.6,1.4,5.1,2.9,7.7,4.4c5.7,3.3,11,7.1,15.1,12.3
	c2.9,3.6,5.8,7.2,8.7,10.8c3.2,3.9,6,8.1,10.1,11.2c2.9,2.2,6,4.3,9,6.4c0.4,0.3,0.9,0.5,1.4,0.7c0.1-0.4,0.2-0.6,0.3-0.9
	c3.2-13.5,4.5-27.2,5.2-41c0.9-16.3-0.8-32.4-3.6-48.3c-1.2-6.8-2.3-13.7-2.4-20.7c-0.1-7.2,0.2-14.4,0.3-21.5c0-0.8,0-1.5,0-2.3
	c-1.1,3.4-1.7,6.9-1.8,10.5c-0.1,3.8-0.3,7.6-0.3,11.5c0,3.4,0,6.8,0,10.3c0,2.4,0.2,4.8,0.2,7.2c0,0.8-0.2,1.6-0.5,2.3
	c-0.7,1.6-1.9,1.9-3.2,0.6c-0.7-0.7-1.2-1.7-1.7-2.6c-2-3.7-3.1-7.8-4.1-11.9c-0.1,3.7,0.1,7.3,0.2,11c0,1.6,0.7,2.6,2.1,3.4
	c3.2,1.8,5.7,4.4,7.4,7.6c0.5,0.8,0.8,1.7,1.1,2.6c0.5,1.8-1.2,5.1-2.9,5.8c-0.5,0.2-1.2,0.1-1.6-0.1c-0.9-0.6-1.9-1.2-2.6-2
	c-0.9-0.9-1.6-2-2.3-3c-1.1-1.5-2.6-2.5-4.5-3.1c-3,14.4-7.7,28.1-12.5,41.8c-0.2-0.6-0.3-1.1-0.2-1.6c0.8-3.7,1.4-7.5,2.5-11.2
	c2.1-7,4.5-14,6.6-21c0.8-2.7,1.3-5.5,1.9-8.3C208.2,470.1,205.6,466.3,203.2,462.3z M225.1,463.9c1.2-1.9,1.4-3.4,1.2-5
	c-0.7-5.1-1.2-10.1-0.4-15.3c0.6-4,0.5-8.1,0.1-12.2c-0.3-3.1-1.3-6-3.3-8.6c-3.2-4.1-5.1-8.8-5.3-14.1c-0.1-3.2,0.2-6.4,0.5-9.5
	c0.9-8.8,1.7-17.6,3.7-26.3c1.8-7.7,2.5-15.4,1.9-23.3c-0.2-2.5-0.3-4.9-0.4-7.4c-0.3-9.7,0.2-19.3,1-28.9c0.4-4.4,1.1-8.9,1.8-13.2
	c0.3-2,0.6-3.9,0.1-5.9c-0.4-1.6-0.8-3.2-1.4-4.8c-1.5-4.5-3.1-8.9-4.6-13.3c-0.2-0.5-0.4-1-0.7-1.8c-1.1,2-1.3,4-1.8,5.9
	c-3.3,12.4-5.6,25-7,37.8c-1.3,12-3.1,24-4.7,36.1c-1.5,11.5-3.1,23.1-4.5,34.6c-1,8.3-1.9,16.6-2.7,25c-0.6,7.1-1,14.3-1.4,21.5
	c-0.1,1.8,0,3.5,0.9,4.5c0,1.8-0.2,3.1,0,4.3c0.7,3.1,1.6,6.2,2.5,9.2c0.1,0.3,0.2,0.6,0.3,0.9c1.1,1.8,2.2,3.5,3.3,5.3
	c0.7,1.1,1.4,2.1,2,3.2c0-2.4-1.5-4.3-1.2-6.6c1.2,2,2.1,4.1,3.2,6.1c1.1,2.1,2.2,4.1,4.3,5.5c-1.2-2.8-2.5-5.4-3.4-8.2
	c-1-2.8-2.6-5.5-2.7-8.6c1.5,2.8,3,5.6,4,8.6c2.6,7.2,8,12.4,12.5,18.3c0.5,0.6,1.2,1.3,2.3,1c-0.1-0.4,0-0.7-0.2-1
	c-1.8-3.9-3.9-7.7-6.7-11c-0.9-1.1-1.8-2.3-1.9-3.8c-0.6-6.1-0.6-12.3,0.6-18.4c0.1-0.5,0.4-1,0.7-1.5c0.2,0,0.4,0,0.6,0.1
	c0.2,1.1,0.5,2.3,0.7,3.4c0.8,4.9,1.7,9.7,4,14.2C223.7,461.7,224.3,462.6,225.1,463.9z M284,303.1c0.9,0.4,1.8,0.9,2.6,1.2
	c8.9,3.6,16.5,9.3,23.8,15.4c3.5,2.9,3.4,3.1,7,0.3c0.3-0.2,0.6-0.5,0.9-0.8c3.5-3.2,7.2-6.3,10.5-9.7c2.5-2.5,4.5-5.4,6.7-8.1
	c1-1.1,1.1-2.3,0.5-3.7c-6-16.9-10.4-34.3-15-51.7c-0.9-3.5-1.7-7.1-2.4-10.7c-0.6-3.2-1.1-6.5-1.6-9.9c-5.8,3-11.8,1.4-17.9,1.3
	c-0.2,0.5-0.4,1-0.6,1.5c-2,6.4-3.1,13-4.3,19.6c-3,16.5-6.1,32.9-9.2,49.4C285,299.1,284.4,301,284,303.1z M394.4,307.7
	c-0.1-0.1-0.1-0.1-0.2-0.2c-0.1,0.4-0.2,0.8-0.2,1.2c-0.3,6.9-0.7,13.9-0.8,20.8c-0.1,12.8-0.1,25.5-0.1,38.3c0,7.5,0.4,15,1.9,22.4
	c1.2,5.7,1.8,11.6,4.4,17.1c2.1,4.4,4.7,8.3,8.1,11.7c3.8,3.8,6.4,8.3,7.7,13.5c0.5,2.2,1.1,4.3,1.9,6.4c0.5,1.5,1.4,2.8,2.1,4.1
	c1.7-0.2,2.4-1.2,2.5-2.5c0.1-1.7,0.2-3.4-0.1-5c-0.6-3.3-1.6-6.5-2.2-9.8c-0.6-3.1-0.9-6.3-1.3-9.5c-0.1-0.8,0.2-1.6,0.3-2.3
	c0.9,4.5,1.9,8.9,3.3,13.7c1.1-1.8,0.7-3.7,2.2-4.8c-0.7,5.2-0.6,10.3,0.1,15.5c0.5,3.3-0.8,5.6-4,6.7c-0.1,0-0.3,0.2-0.5,0.4
	c-0.3,3.2-1.4,6.5,0.6,10.2c0.8-1.1,1.4-1.8,1.8-2.6c0.6-1.1,1-2.4,1.6-3.5c2.1-3.9,4.4-7.8,6.5-11.7c0.6-1.2,1.5-2.4,1.5-3.7
	c0.1-3.7-0.3-7.3-1.3-10.9c-1.3-5-4.4-8.8-8-12.3c-3.1-3.1-5.4-6.6-7.2-10.6c-4.1-9.1-6.7-18.6-8-28.5c-0.9-7.1-1.8-14.3-3.2-21.3
	c-1.6-8.3-3.8-16.5-5.6-24.7C396.9,319.9,395.7,313.8,394.4,307.7z M369.9,376.6c0.1,2.4,0.3,4.5,0.4,6.6
	c0.6,11.6,0.5,23.3-0.5,34.9c-0.4,4.7-0.9,9.4,0.9,13.9c0.4,1,0.6,2,1,2.9c0.2,0.6,0.5,1.1,0.9,1.8c13.2-2.2,26.1-4.9,39-8.8
	c-0.8-1.4-1.3-2.5-2-3.4c-2.6-3.4-5.4-6.7-8.1-10.1c-0.3,0.8-0.4,2.1-0.8,2.2c-1.2,0.1-1.3,1.1-1.7,1.7c-2.5,3.8-8.4,4.7-11.7,1.5
	c-1.1-1-2.1-2.2-2.9-3.5c-3.8-5.5-6.3-11.6-7.9-18.1c-1.6-6.2-3-12.4-4.4-18.6C371.8,378.4,371.1,377.5,369.9,376.6z M416,442.8
	c-1.3-4.4-2.6-8.5-3.7-12.4c-10,2.4-19.8,4.8-29.6,7.1c1.1,2.7,2.2,5.3,3.3,7.9c1.1,2.7,2.2,5.4,3.3,8.2c0.7,1.8,1.9,2.5,3.7,2.3
	c1.4-0.1,2.9-0.3,4.3-0.6c1.8-0.4,3.5-0.9,5.3-1.2c4.1-0.7,8.3-1.2,12.9-1.8c-3.3-1.3-3.8-2.5-2.4-5.2c0.4-0.7,0.8-1.4,1.3-2
	C414.9,444.3,415.5,443.5,416,442.8z M315.1,198c-4.8,0.3-9.4,0.9-13.8,2.8c-0.5,0.2-1,0.5-1.5,0.7c-2,1-3,2.6-3,4.8
	c0,2.9,0,5.7,0.4,8.6c0.3,2.5,1.1,5,1.7,7.4c0.4,1.5,1.4,2.4,3.1,2.4c3.3,0,6.7,0.2,10,0.1c1.1,0,2.3-0.6,3.4-1.1
	c1-0.5,1.4-1.4,1-2.6c-0.7-2.2-1.3-4.4-1.9-6.6c-0.9-2.9-0.8-5.8,0-8.7c0.3-1.1,0.7-2.1,1-3.2C315.8,201.1,316.1,199.6,315.1,198z
	 M375.8,383.6c1.5,8,2.7,15.8,6,23.2c1.6,3.7,3.5,7.3,6,10.6c2.3,3,6.5,3.3,9.3,0.9c2-1.7,2.4-3.5,1.4-5.9c-0.3-0.7-0.7-1.4-1.1-2.1
	c-5.2-8.6-11.4-16.6-18.6-23.6C377.7,385.6,376.7,384.6,375.8,383.6z M270,55c-0.7,1.1-1.1,2.7-2.1,3.3c-1,0.5-2.5-0.1-4-0.2
	c-2.6,3-5.3,6.1-9.2,8c1,1.2,2,0.5,2.9,0.3c1.2-0.3,2.4-1.1,3.6-0.1c1.3,1,2.4,0.4,3.5-0.3C268.5,63.2,270.1,59.5,270,55z
	 M317.6,54.8c0.7,8.7,0,17.6,2,26.5C321.4,76.2,320.3,59.9,317.6,54.8z M334,76.4c0.2,0,0.4,0,0.6,0c0.5-1.1,0.9-2.4,1.6-3.4
	c0.7-1,0.7-1.9,0.4-2.9c-0.5-1.6-1.4-2.9-2.4-4.2c-0.2,0.1-0.3,0.1-0.5,0.2C333.8,69.5,333.9,72.9,334,76.4z M271.9,64.9
	c1.3,0.1,2.4-0.1,3.3,0.2c0.9,0.3,1.6,1,2.5,1.7c0-1.8,0-3.6,0-5.4c-1.8,0.3-3.4,0.6-5.1,0.9C272.4,63,272.2,63.7,271.9,64.9z
	 M417,450c0.5-1.9,0.9-3.7,1.4-5.6c-0.5-0.2-1-0.5-1.6-0.8c-1.5,2-2.5,4-3.2,6.4C415,450,415.9,450,417,450z M247.4,55.4
	c0.6,0.3,1.2,0.9,1.8,0.9c2.4-0.2,5.3-3.1,5.7-5.5C252.6,52.2,250.2,53.7,247.4,55.4z M226.5,476.7c0.6-0.2,1.2-0.5,0.6-1.6
	c-0.9-1.5-1.6-3.1-2.6-4.5c-0.8-1.2-1.6-2.5-3.1-3.3C223.2,470.6,224.8,473.6,226.5,476.7z M250.8,69.2c-4.2,0.4-8.3,0.9-12.7,1.3
	C242.7,71.8,246.8,71,250.8,69.2z M282.4,71c3.2-1.6,4.9-4.3,4.7-7.2C285.6,66.1,284,68.6,282.4,71z M257.5,60
	c2.6,0.4,3.1,0,4.8-3.4C260.6,57.7,259.3,58.7,257.5,60z M249.2,94.8c-3.8,2.5-3.8,2.6-3.9,4.2C247.1,98,248,96.3,249.2,94.8z
	 M210.6,468.9c0.1-0.1,0.3-0.2,0.4-0.3c-1.2-1.4-2.4-2.8-3.5-4.2c-0.1,0.1-0.3,0.2-0.4,0.4C208.3,466.1,209.4,467.5,210.6,468.9z
	 M295.1,48.2c0.8-1,1.6-2.1,2.4-3.1C295.9,45.5,295.2,46.5,295.1,48.2z"/>
<path class="st0" d="M429.2,778.4c-2.7,1.9-5.6,1.8-8.4,1.9c-3.4,0.1-6.9,0.2-10.3,0.1c-11.8-0.1-23.4,1.6-34.9,3.6
	c-12.3,2.1-24.6,4-36.8,6c-6.4,1-12.7,2.1-19.1,3.1c-5.7,0.9-11.5,0.7-17.2,0.1c-1-0.1-2.1-0.2-3.3-0.3c-0.2-2-0.4-4-0.7-6
	c-0.9-8.5-1.8-17-2.6-25.5c-1.4-14-1.9-28-1.3-42.1c0.4-12,1.3-24.1,2.3-36.1c1-12.4,2.3-24.8,3.5-37.2c1.2-11.8,2.5-23.7,3.6-35.5
	c0.6-6.1,1.1-12.2,1.6-18.4c0.7-8.7,1.4-17.5,1.9-26.3c0.6-10.8,1.1-21.5,1.3-32.3c0.2-8.1-0.2-16.1-0.3-24.2c0-1.2-0.3-2.3-0.8-3.5
	c0,0.9-0.2,1.8-0.1,2.7c0.5,12.8-0.2,25.5-0.8,38.3c-0.7,14-1.5,28-2.6,42c-1.3,15.5-3,31-4.5,46.5c-1.5,14.9-3,29.9-4.5,44.8
	c-1.4,13.3-2.3,26.5-2.7,39.9c-0.4,16.4,0.4,32.7,2.2,49c0.9,8.7,1.7,17.5,2.5,26.2c0.1,1,1,2.1-0.2,2.9c-1,0.6-2.3,1.3-3.5,1.3
	c-2.5,0-5.1-0.5-7.6-0.8c-5.9-0.6-11.7-1.2-17.6-1.8c-11.7-1.2-23.4-2.1-34.9-4.2c-1-0.2-2.1-0.3-3.1-0.3c-1,0-2.1,0.1-3.4,0.2
	c-0.2-1.8-0.5-3.7-0.5-5.6c-0.1-5.8-0.2-11.7-0.1-17.5c0.2-14.4,0.3-28.7,0.7-43.1c0.3-11,0.9-22,1.3-33c0.6-14.8,1.1-29.5,1.6-44.3
	c0.2-6.1,0.5-12.1,0.7-18.2c0.1-2.4,0-4.7-0.3-7.1c-0.2,1.6-0.5,3.3-0.5,4.9c-0.8,15.6-1.7,31.2-2.4,46.9
	c-0.7,14.3-1.2,28.7-1.8,43.1c-0.3,6.7-0.3,13.4-0.5,20.1c-0.2,11.2-0.4,22.3-0.5,33.5c0,5.6,0.1,11.2,0.4,16.7
	c0.2,3.5,1.1,6.9,1.6,10.4c0,0.3,0.1,0.6,0.1,1.2c-3.1,0.6-6.2,0.4-9.3,0.4c-3.1,0.1-6.2,0.9-9.3,0c0-1.2-0.1-2.3,0-3.4
	c1.4-18.9,2.9-37.7,4.1-56.6c0.7-10.6,1.1-21.2,1.6-31.8c0.5-10.3,1.1-20.6,1.7-30.8c0.3-6.3,0.5-12.6,1.1-18.9
	c0.9-9.5,1.9-19.1,3.1-28.5c1.4-10.8,2.9-21.5,4.8-32.2c2.7-15.8,5.7-31.5,8.8-47.3c1.8-9.3,3.1-18.7,3.6-28.2
	c0.3-5.3,0.9-10.5,0.9-15.8c0-14.1-1.4-28-4-41.9c-1.7-9.4-2.6-18.8-2.6-28.3c0-7.3,0.3-14.5,0.6-21.8c0.2-5.8,2.6-10.8,5.5-15.6
	c2.9-4.8,6-9.4,9.2-14c8.9-12.6,16.9-25.7,23.5-39.7c5.8-12.1,9.3-24.9,12.8-37.8c0.3-1.1,0.6-2.3,1.1-3.8c3.8,2.2,7.5,4,11,6.3
	c5.7,3.8,11.5,7.5,16.4,12.4c1.6,1.6,2.8,1.7,4.7,0.5c1.4-0.9,2.9-1.8,4.1-2.9c5.9-5.2,12-10.3,16.6-16.8c0.3-0.4,0.6-0.7,0.9-1.2
	c0.2,0.2,0.5,0.3,0.6,0.4c3.1,9.6,6.8,19,9.1,28.7c2.8,11.7,7.6,22.3,14.2,32.2c1.8,2.7,3.7,5.2,5.5,7.8c0.7,0.9,1.1,1.8,1.2,3
	c1,8.8,1,17.7,0.5,26.5c-0.7,14.1-1.7,28.2-2.8,42.3c-0.4,5.6-1.4,11.2-2,16.9c-1.7,16.6-2.7,33.3-1.2,50c0.9,10,3.1,19.8,5.4,29.6
	c4.5,19,10,37.8,15.4,56.5c6.1,20.7,11.2,41.8,15.9,62.9c2.5,11.1,4.8,22.1,7.3,33.2c3.3,14.4,6.4,28.8,10.1,43.1
	c2.6,9.9,6.2,19.6,9.3,29.4c1.2,3.7,2.1,7.5,3.1,11.3C429.1,777.3,429.1,777.8,429.2,778.4z"/>
<path class="st0" d="M295.5,203.6c-0.3,1.6-0.5,3.1-0.8,4.9c-2.8,1-5.7,2-8.6,3.1c-6.1,2.3-12.3,4.5-18.3,7.2
	c-10.1,4.5-17,12.2-21.7,22c-1.7,3.6-2.3,7.5-2.5,11.4c0,0.4,0,0.8,0,1.2c0.3,1.4,1.3,1.9,2.4,1c0.8-0.7,1.6-1.6,2.2-2.5
	c4.6-7.2,11.2-12.6,17.5-18.3c1-0.9,2-1.8,3.3-2.9c-2.4,0.7-7.2,4.3-12.5,8.9c-3.8,3.3-7.3,6.9-10.3,11.1c0-0.5-0.2-1-0.1-1.4
	c0.4-3,1.1-6,2.5-8.7c4.2-8.4,10.1-15.1,18.6-19.2c2.8-1.4,5.6-2.7,8.5-3.9c6.2-2.5,12.5-4.8,18.9-7.3c0.1,0.4,0.2,0.9,0.2,1.3
	c0.1,4.4,0.8,8.7,2.6,12.8c0.3,0.7,0.6,1.6,0.3,2.2c-2.5,5.8-3.7,11.9-4.8,18c-2.6,14.4-5.3,28.9-7.9,43.3
	c-3,16.6-7.5,32.8-13.3,48.6c-4.4,11.9-10.5,22.9-17.2,33.6c-5,7.9-10.2,15.7-15.6,23.3c-6.3,8.9-9.8,18.8-12,29.2
	c-0.2,0.8-0.3,1.6-0.5,2.3c0,0.2-0.1,0.3-0.3,0.7c-0.8-1.2-1.5-2.3-2.3-3.4c-4-5.4-5.7-11.4-5-18c1.1-10.7,2.2-21.4,4.6-32
	c0.3-1.5,0.6-3,1-4.4c2.2-8.2,1.1-16.5,0.7-24.8c-0.2-4.9-0.3-9.9-0.1-14.9c4.4,10.8,10.5,20.7,15.9,30.9c0.2-0.1,0.3-0.1,0.5-0.2
	c-0.5-1.2-0.9-2.4-1.4-3.6c-3.2-6.7-6.3-13.4-9.7-20c-4-7.8-5.2-16-4.2-24.6c0.5-3.8,1.1-7.6,1.8-11.3c2.3-12.1,4.9-24.2,6.6-36.5
	c0.4-2.8,1.1-5.6,1.6-8.5c0.4-2.4,0.8-4.9,1-7.3c-4.5,14.5-6.2,29.7-9.5,45c-0.5-1.1-0.7-1.6-0.9-2.2c-2.1-6-4.2-12.1-6.2-18.1
	c-0.9-2.7-1.7-5.4-2.1-8.2c-0.4-2.8-0.3-5.7-0.3-8.6c0.1-4.7,0.5-9.4,0.4-14.1c-0.1-6.9-0.5-13.7-0.8-20.6
	c-0.4-8.1-0.9-16.2-1.3-24.6c-0.2,2.2-0.6,4.2-0.6,6.2c0.2,9.2,0.6,18.3,0.8,27.5c0.1,6.2,0,12.4-0.1,18.7
	c-0.1,5.4-0.7,10.8,0.2,16.2c0.2,1.3,0.4,2.6,0.8,3.7c0.7,2,0.6,3.8,0,5.8c-2.7,9.3-5.2,18.8-6.7,28.4c-0.9,5.8-1.4,11.7-2.2,17.6
	c-1.5,11.8-3,23.6-4.5,35.4c-1.2,9.7-2.4,19.3-3.6,29c-0.1,0.8-0.2,1.5-0.7,2.4c-0.1-0.4-0.2-0.8-0.2-1.2
	c-0.9-12.4-1.9-24.8-2.7-37.2c-0.5-7.7-1.1-15.4-1.2-23.2c-0.2-12.2,0-24.4,0-36.6c0-0.6,0-1.3-0.3-1.9c-0.2,1.7-0.5,3.3-0.6,5
	c-0.7,11.7-1.3,23.4-0.9,35.2c0.5,12.8,1.2,25.5,2.6,38.2c0.5,5.1,0.7,10.2,1.1,15.3c0.3,4.1,0.6,8.3,1,12.4
	c0.4,3.9,0.2,7.8-0.2,11.7c-0.8,7.5-1.5,15.1-2.2,22.6c-0.3,3-0.2,6.1-0.2,9.1c0,0.4-0.1,0.8-0.1,1.3c-11.7-5.9-23.6-10.1-36.5-11.4
	c-4.7-0.5-9.5-0.7-14.6-1.1c0.8,1.2,1.7,1.2,2.4,1.3c3.1,0.4,6.2,0.9,9.3,1.2c9.9,0.9,19.3,3.7,28.4,7.3c3.1,1.2,6.1,2.7,9.1,4.2
	c1.6,0.8,2.5,2,2.7,3.9c0.1,1.7,0.6,3.3,0.9,5.1c-0.6,0.4-1.2,0.8-1.8,1.1c-5.5,2.7-11,5.4-16.5,8.1c-0.4,0.2-0.7,0.3-1.1,0.5
	c-3.1,1.5-5.6,1.1-8.2-1.3c-7.1-6.7-14.4-13.1-21.6-19.6c-2.5-2.3-5.1-4.6-7.4-7.1c-1.1-1.2-2-2.9-2.5-4.6
	c-1.7-5.6-3.5-11.1-4.8-16.8c-1.2-5.2-2-10.5-2.6-15.8c-0.6-4.9,0.3-9.7,2.3-14.2c4.7-10.3,9.4-20.6,14.2-30.9
	c2.1-4.5,4.3-8.9,6.3-13.4c8.3-18.7,16.8-37.2,24.8-56c8-18.6,14.3-37.9,20-57.4c2-7,4.6-13.8,7-20.6c1.8-5,3.7-9.9,5.6-14.7
	c0.8-2.1,1.8-4.1,2.9-6.1c0.8-1.4,1.8-2.7,2.9-3.8c5.3-5.1,11.2-9.5,18-12.5c3.5-1.6,6.9-3.3,10.4-4.9c2.3-1,4.6-1.8,6.9-2.7
	c2.7-1,5.3-0.6,7.8,0.8c4.9,2.9,9.5,6.3,13.4,10.3c4.7,4.8,9.2,9.7,13.8,14.7c3.3,3.6,5.8,7.8,8.2,12.1c1.3,2.3,1.9,4.7,1.8,7.3
	c-0.1,1.8-1,2.5-2.6,1.7c-3-1.5-6-3-8.7-4.9c-5-3.3-9.2-7.6-13.5-11.8c-2.7-2.7-5.5-5.3-7.9-7.6c0.8,2.3,7.8,10.9,13.1,15.4
	C282.9,197.5,288.4,201.8,295.5,203.6z M241.7,279.2c2.9-5,5.5-10.2,8.6-15.1c3.1-4.9,6.4-9.7,9.9-14.3c3.5-4.6,7.6-8.7,10.9-13.4
	C258.1,248.4,247.1,261.9,241.7,279.2z M233.2,210.8c15.2-2.9,30.6-4.1,46.3-4.3C263.6,204.6,248.3,206.7,233.2,210.8z"/>
<path class="st0" d="M317.2,204.2c2.3,1,4.6,1.8,6.6,3c8.8,5.3,17.4,10.7,25.3,17.2c7.1,5.8,12.8,12.9,17.3,20.9
	c1.6,2.8,3.2,5.7,5.1,8.4c1,1.4,2.4,2.6,3.8,3.6c1.6,1.1,3.4,1.3,5.3,0.7c2.4-0.7,3.5-2.6,2.6-5c-0.5-1.3-1.2-2.6-2-3.8
	c-1.8-2.8-3.7-5.6-5.6-8.4c-0.3-0.5-0.6-0.9-0.9-1.4c-0.2,0.1-0.4,0.3-0.6,0.4c0.4,0.8,0.9,1.5,1.3,2.3c1.8,3.5,3.7,6.9,5.4,10.4
	c0.4,0.8,1,1.8,0.3,2.7c-0.8,1-2,1-3.1,0.8c-1.8-0.4-3.2-1.4-4.2-2.9c-1.6-2.3-3.2-4.6-4.4-7.1c-4.5-8.6-10.7-15.9-17.9-22.2
	c-3.9-3.4-8.4-6.3-12.8-9.2c-4.4-3-9-5.8-13.6-8.4c-2.2-1.3-4.8-2-7.4-3.1c0.1-0.8,0.3-1.8,0.4-2.9c6.8-0.8,13.6-1.6,20.4-2.2
	c6.9-0.6,13.7-0.1,20.5,0.9c6.6,1,13.1,1.9,19.8,1.7c4.1-0.1,7.7-1.3,10.5-4.4c0.2-0.2,0.3-0.4,0.4-0.6c0-0.1,0-0.2,0-0.5
	c-0.5,0.2-1,0.4-1.5,0.7c-4.2,2.1-8.5,3.1-13.2,2.7c-6.5-0.6-13-1.2-19.5-1.8c-7.3-0.7-14.5-0.7-21.7,0.2c-0.3,0-0.6,0-0.9-0.2
	c8.2-4.2,13.4-11.8,20.6-17.1c-0.1-0.2-0.3-0.4-0.4-0.5c-1.6,1-3.2,1.9-4.7,3c-2.5,1.9-5.1,3.9-7.4,6c-6.1,5.6-14.5,10.5-23.2,10.7
	c-1-1.2-1.4-2.6-1.5-4.1c-0.3-6.9,0.1-13.7,2.3-20.3c0.8-2.5,2.2-5,3.7-7.2c4.2-6.5,9.4-12.3,14.8-17.8c2.6-2.7,5.7-3.5,9.3-3.2
	c6.6,0.5,12.5,3.1,18.4,5.8c3.5,1.6,7,3.5,10.5,5.1c4.6,2.1,7.8,5.5,9.4,10.3c0.8,2.7,1.5,5.4,2.3,8c1.2,4.3,2.3,8.6,3.8,12.8
	c1.1,3,1.5,6,1.2,9.1c-0.4,4-0.9,7.9-1.2,11.9c-0.5,7.2-1,14.5-1.4,21.7c-0.2,4.2-0.2,8.4-0.4,12.7c0,0.8-0.3,1.5-0.7,2.3
	c-3.5-10.2-5.5-20.6-6.6-31.3c-0.2,0-0.3,0-0.5,0c-0.1,0.9-0.2,1.8-0.2,2.7c0.3,8.2,1.6,16.2,3.9,24c1.5,5.3,2.9,10.6,4,16
	c0.9,4.2,1.4,8.5,1.8,12.8c0.7,7.1,1.4,14.3,1.8,21.5c0.3,4.1,0.2,8.3,0.1,12.4c-0.2,7.1-0.7,14.2-0.8,21.3
	c-0.2,14.6-0.3,29.2-0.3,43.8c0,9,0.9,18,3.1,26.8c0.7,2.8,1.8,5.4,2.7,8.2c0.3,0.9,0.5,1.9,0.4,3.1c-0.4-0.6-0.8-1.1-1.2-1.7
	c-4.5-6.7-9.4-13.1-15.2-18.8c-4.6-4.6-8.4-9.8-12.4-14.9c-4.5-5.8-8.5-11.9-12.1-18.4c-3.5-6.3-6-12.8-7.4-19.9
	c-1.4-7.5-3.9-14.6-6.4-21.8c-6.4-18.5-12.3-37.1-16.9-56.1c-1.4-5.7-3.2-11.4-4.5-17.1c-1.1-5-1.8-10.2-2.8-15.3
	c-0.7-3.3-1.6-6.5-2.5-9.7C315.5,210.5,315.9,207.4,317.2,204.2z M361.1,287c0.1,0,0.3,0,0.4-0.1c-1-3.4-2-6.8-3.2-10.2
	c-2.1-6-4.2-11.9-6.4-17.8c-4.4-12-9.4-23.7-16.8-34.3c-0.3-0.4-0.7-0.8-0.9-1.1c3.5,6.9,7.4,13.7,10.6,20.8c3.5,7.9,6.5,16,9.5,24
	C356.7,274.5,358.9,280.8,361.1,287z"/>
<path class="st0" d="M402.7,224.4c0.4,0.8,0.7,1.6,1.1,2.3c5.1,11.5,9,23.4,12.8,35.3c5.6,17.8,12.8,34.9,21.5,51.3
	c7.2,13.5,13.7,27.4,19.9,41.4c6.6,14.9,13.7,29.5,20.5,44.3c5.1,11,10.1,22.1,15.1,33.1c0.8,1.7,0.9,3.4,0.2,5.1
	c-1.1,2.9-2.2,5.8-3.5,8.7c-4.9,10.7-9,21.6-11.1,33.3c-0.2,1.1-0.5,2.2-0.9,3.2c-0.7,1.8-1.5,2.2-3.3,1.6c-0.4-0.1-0.7-0.3-1.1-0.4
	c-2.9-1-5.9-1.9-8.8-3c-1.6-0.6-3-1.3-4.6-1.9c-0.8-0.3-1.7-0.2-2.5-0.5c-10.9-3.3-21.9-5.6-33.1-7.7c-2-0.4-3.9-0.9-5.9-1.4
	c0-0.2,0.1-0.3,0.1-0.5c0.3,0,0.6,0,0.9,0c5.5,0.8,10.2-1.1,14.5-4.3c3.2-2.3,5.7-5.3,7.9-8.6c3.4-5.1,6.7-10.3,10.1-15.4
	c1.1-1.7,2.3-3.2,3.2-5.1c-0.7,0.6-1.4,1.1-2,1.8c-4.2,4.7-8.2,9.5-11.5,15c-2.4,4-5.1,7.7-8.9,10.6c-2.3,1.7-4.8,3.1-7.7,3.7
	c-4.6,1-8.9,0.4-12.6-2.7c-2.4-2-4.7-4.3-7-6.4c-0.2-0.2-0.3-0.5-0.6-1c4-0.8,7.8-1.6,11.7-2.3c0.2,0.4,0.4,0.8,0.6,1.3
	c0.7,2.3,3.6,2,4.6,0.5c0.4-0.7,0.9-1.3,1.2-2.1c1.7-5.1,4.9-9.5,7.5-14.1c0.3-0.6,0.6-1.1,1-1.6c1-1.6,1.5-3.3,1.2-5.2
	c-0.4-2.1,0.4-3.8,1.8-5.4c1.2-1.4,2-3.3,2.5-5.1c0.7-2.5,1.1-5.1,1.5-7.7c1.3-8.8,0.8-17.6-0.4-26.5c-1.6-11.1-3.4-22.1-6.2-32.9
	c-4.6-17.8-9-35.6-13.2-53.4c-2.4-10.1-4.2-20.3-6.5-30.4c-1.3-5.9-3.1-11.7-4.7-17.6C405.5,244.1,404.1,234.3,402.7,224.4z"/>
<path class="st0" d="M369.1,433.3c0.3,1,0.5,1.9,0.8,2.9c0.9,2.6,1.8,3.1,4.5,2.6c2.1-0.4,4.2-0.8,6.6-1.3c1.3,3.6,2.7,7.2,4,10.7
	c0.8,2.2,1.6,4.3,2.4,6.5c0.9,2.5,2.8,3.7,5.4,3.4c2.8-0.3,5.5-0.8,8.3-1.2c0.5-0.1,1.1-0.2,1.9-0.3c0.5,0.7,1,1.5,1.6,2.3
	c5.4,8.3,10.7,16.6,17.6,23.9c3.6,3.8,7.4,7.2,11.2,10.8c0.3,0.3,0.7,0.5,1.4,0.4c-3.8-4.4-7.6-8.9-11.5-13.2
	c-3.8-4.4-7.6-8.7-11-13.6c0.4,0,0.6-0.1,0.6,0c3.2,2.9,7.1,4.2,11.2,4.9c10.5,1.8,20.7,4.4,31,7.2c1.1,0.3,2.1,0.7,3.1,1
	c0.1,0.3,0.2,0.5,0.2,0.6c-2.3,7.3-4.8,14.5-7,21.8c-1.3,4.1-3.8,6.9-7.5,8.9c-11.7,6.6-23.1,13.6-35.4,18.9
	c-8.6,3.7-17.4,6.7-26.7,8c-3.9,0.5-7.7,0.9-11.8,0.6c-1-4.7-2-9.2-3-13.8c-2.5-12.7-3.4-25.4-2.7-38.3c0.4-6.5,0.6-13.1,1.1-19.6
	c0.5-6.4,1.5-12.7,2.1-19c0.5-4.4,0.8-8.9,1.2-13.3c0-0.5,0.1-1.1,0.2-1.6C368.9,433.3,369,433.3,369.1,433.3z"/>
<path class="st0" d="M276.5,90c0,0.5,0,1,0,1.5c-3.4,0.6-3.5,0.5-4.9-1.3c0.4-0.2,0.7-0.4,1.1-0.5c5.4-1.5,9.7-4.5,12.8-9.1
	c1.7-2.5,4.3-3.6,6.7-4.9c0.2-0.1,0.3-0.2,0.7-0.4c-0.8-0.5-1.5-0.9-2.1-1.3c0.8-2.2,0.8-2.2,4.4-1.4c0.5-1.7-1.2-2-1.8-3
	c0-0.1-0.1-0.3,0-0.4c2.6-5,4.2-10.3,5.3-15.8c0.2-1.2,0.5-2.3,1-3.4c0.6-1.2,1.2-2.5,2.1-3.5c3.1-3.6,4.9-3.5,8.3-0.4
	c3.6,3.3,5.4,7.4,5.9,12.2c0.2,2.5,0.3,4.9,0.5,7.5c-3.6,1.2-7.4,1.9-9.9,5c3.2-0.9,6.4-1.8,9.9-2.8c0.1,1.3,0.1,2.3,0.2,3.4
	c-1.5,0.2-2.9,0.3-4.2,0.6c-1.1,0.2-2.2,0.5-3.2,0.9c-0.9,0.4-1.6,1-1.5,2.4c0.8-0.4,1.4-0.7,2-1c0.2,0.2,0.5,0.4,0.5,0.6
	c0.3,1.3,1,1.9,2.4,1.9c1.2,0,1.9-0.4,2.4-1.6c0.2-0.7,0.9-1.3,1.5-2.2c0.3,0.6,0.5,1,0.6,1.3c0.9,3.9,1.7,7.8,2.5,11.7
	c0.2,0.9,0.5,1.7,0.5,2.6c0.1,4.8-0.1,9.6-1.1,14.3c-0.6,2.6-1.7,5-3.5,7c-1.9,2.1-3.8,4.3-5.7,6.4c-2.7,3.2-6,5-10.3,4.5
	c-0.8-0.1-1.6-0.1-2.4-0.1c-1.7,0.1-2.6,1.4-1.6,2.7c1.4,1.9,2.9,3.8,4.5,5.5c1.3,1.3,3,1.8,4.8,1.7c3.9-0.3,7.3-1.6,9.9-4.6
	c0.2-0.2,0.5-0.4,1-0.9c0.2,1,0.4,1.7,0.5,2.5c0.7,3.2,2.1,5.9,4.7,8.1c3.6,3,7.6,5.2,11.8,7.2c1.7,0.8,3.4,1.6,5.4,2.6
	c-0.4,0.5-0.7,0.9-1.1,1.3c-3.5,3.6-7,7.2-10.5,10.8c-0.5,0.5-1.3,0.9-2,1.1c-4.5,0.9-8.9,1.6-13.4,2.5c-2.1,0.4-4.3,1-6,2.7
	c6.2-1.1,12.4-2.2,19.1-3.4c-3.9,5.5-7.4,10.6-8.7,16.9c-1.2,6.1-1.3,12.2-0.7,18.5c-0.7,0.2-1.3,0.5-1.9,0.5
	c-4.6-0.5-8.8,1-12.9,2.9c-0.2,0.1-0.4,0.1-0.7,0.2c-0.1,0-0.1-0.1-0.2-0.1c0-0.1-0.1-0.1-0.1-0.2c0.5-4.3-1.6-7.7-3.6-11.2
	c-2.8-4.9-6.4-9.1-10.3-13.1c-4-4.1-8-8.2-12.3-12.6c4.5-0.4,8.5,0.1,12.6,0.4c4,0.2,7.9,1.1,12.4,1.7c-1.1-1.3-2.2-1.7-3.2-2.1
	c-3-1.2-6.2-1.3-9.4-1.3c-4,0-8,0.1-12,0.3c-1,0-1.8-0.1-2.7-0.7c-3.1-2.4-6.3-4.6-9.6-7c0.4-0.3,0.9-0.6,1.4-0.9
	c4.7-2.6,9.4-5,13.5-8.5c2.7-2.4,4.8-5.2,5.6-8.7c0.5-2.2,0.8-4.6,1-6.9c0.6-5.6,1.1-11.3,1.6-16.9c0.1-0.6-0.2-1.3-0.4-2
	c-0.1-0.2-0.2-0.4-0.4-0.6c-3.3-4.5-5.1-9.5-5.4-15.1c-0.1-1.3-0.5-2.6-0.7-3.9C276.9,90,276.7,90,276.5,90z M300.4,93.8
	c1.9,1.1,2.3,1.1,3.3-0.5C302.5,93.4,301.6,93.6,300.4,93.8z M294.5,104c1.1,0.8,2.2,0.3,3.3-0.2C296.7,103.8,295.6,103.9,294.5,104
	z M299.8,108.5c0,0.2,0,0.3,0.1,0.5c0.8-0.1,1.6,0.2,2.4-0.3c0-0.2,0-0.3-0.1-0.5C301.4,108.3,300.6,108.4,299.8,108.5z
	 M305.8,103.8c0-0.1,0-0.2,0-0.3c-0.7,0-1.3,0-2,0c0,0.1,0,0.1,0,0.2C304.5,103.7,305.2,103.7,305.8,103.8z"/>
<path class="st0" d="M200.1,208.1c-0.1,0.3-0.1,0.6-0.2,0.9c-3,9.8-5.9,19.5-8.9,29.3c-3.8,12.3-8,24.4-13,36.3
	c-5.5,13.2-11.3,26.2-17,39.3c-3,7-6,13.9-9.2,20.8c-3,6.4-6.3,12.7-9.3,19.2c-3.9,8.4-7.7,16.8-11.3,25.3c-2.1,5-2.3,10.3-1.7,15.5
	c1.3,10.6,3.8,20.9,7.4,30.9c0.7,2,1.5,3.8,3.5,5c0.9,0.5,1.6,1.6,2.4,2.4c2.6,2.8,5.1,5.7,7.9,8.3c5.6,5.3,11.4,10.5,17.1,15.7
	c0.6,0.6,1.4,1.1,2,1.7c2.1,1.9,4.4,2.5,7.1,1.5c6-2.2,11.9-4.6,17.1-8.4c1.3-0.9,2.4-2.1,3.8-3.3c1,2.7,1.9,5.2,2.8,7.7
	c0.1,0.3,0.2,0.7,0,0.9c-1.3,1.5-2,3.5-4.3,3.9c-4.1,0.7-8,2-11.9,3.7c-1.6,0.7-3.3,1-5.1,0.9c-1.4-0.1-2.9,0.2-4.2,0.5
	c-3.2,0.7-6.3,0.3-9.4-0.9c-6-2.4-11.1-5.9-14.8-11.3c-2.7-3.8-5.1-7.7-7.8-11.5c-2.8-4-5.7-8.1-8.8-12c-3.4-4.3-7.4-8.2-12-11.3
	c-0.5-0.3-0.9-0.7-1.4-0.9c-1.4-0.7-2.5-0.3-2.7,1.2c-0.2,1.7,0,3.4,0,5.1c0.2,0,0.3,0,0.5,0c0.3-1.6,0.7-3.2,1-5
	c0.7,0.4,1.2,0.6,1.7,0.9c5.3,3.4,9.1,8.2,13,13c5.1,6.4,9.2,13.4,13.6,20.3c3.9,6,9.3,10.2,15.8,13.1c4,1.8,8,1.9,12.2,0.9
	c0.4-0.1,0.9-0.2,1.5,0c-0.5,0.3-1,0.7-1.5,0.9c-2.6,0.9-5.1,2-7.7,2.5c-5.2,1.1-10-0.2-14.2-3.5c-3.6-2.8-7.1-5.7-10.8-8.3
	c-5.3-3.8-10.8-7.4-16.1-11.2c-2.1-1.5-4.1-3.3-6.1-5c-1.7-1.4-2.5-3.4-2.5-5.5c-0.1-6.1-1.9-11.6-5.2-16.7c-1.7-2.6-3-5.4-4.4-8.1
	c-4-7.6-4.2-15.4-1.7-23.4c1.5-4.8,3.6-9.2,6.2-13.4c8-13.3,16.2-26.5,24.1-40c14.4-24.6,27.3-50,37.4-76.7
	c6.4-17,14.2-33.3,23.4-49c0.4-0.7,0.8-1.4,1.2-2C199.8,208.1,200,208.1,200.1,208.1z"/>
<path class="st0" d="M432.9,426.4c-0.2-0.5-0.4-0.9-0.5-1.4c-1-4.7-2.9-8.9-6.2-12.5c-0.7-0.7-1.2-1.5-1.9-2.1
	c-3.6-3.2-5.9-7.3-7.8-11.6c-3.8-8.9-6.3-18.1-7.5-27.6c-1.9-15.7-4.9-31.2-9.1-46.4c-2.4-8.7-3.7-17.6-5.3-26.5
	c-0.5-2.5-0.4-5.1-0.5-7.6c-0.6-10.5-1.2-21-2.9-31.4c-0.2-1.3-0.6-2.5-0.8-3.7c-0.7-3.1-0.8-6.1-0.5-9.3c0.5-6.1,0.8-12.2,1.2-18.4
	c0.6-8.8,1.2-17.7,1.8-26.5c0.1-1.6,0.1-3.3,0.6-5c0.3,0.9,0.7,1.7,0.9,2.6c2.8,9.4,5,19,6.5,28.7c2.1,13.3,5.4,26.4,8.7,39.4
	c2.4,9.3,3.9,18.9,6.2,28.3c5,20.5,10,41,15.2,61.5c2.5,9.8,4.2,19.8,5.6,29.8c0.9,6.4,1.8,12.8,1.4,19.3c-0.3,4.5-0.9,9-1.4,13.5
	C436.3,422.3,435.2,424.6,432.9,426.4z"/>
<path class="st0" d="M203.2,462.3c2.4,4,5,7.8,9.9,9.6c-0.6,2.8-1.1,5.6-1.9,8.3c-2.1,7-4.5,14-6.6,21c-1.1,3.7-1.7,7.5-2.5,11.2
	c-0.1,0.5,0,1.1,0.2,1.6c4.8-13.7,9.4-27.5,12.5-41.8c1.8,0.6,3.3,1.6,4.5,3.1c0.8,1,1.5,2.1,2.3,3c0.8,0.8,1.7,1.4,2.6,2
	c0.4,0.2,1.1,0.3,1.6,0.1c1.7-0.6,3.3-4,2.9-5.8c-0.2-0.9-0.6-1.8-1.1-2.6c-1.8-3.2-4.3-5.8-7.4-7.6c-1.4-0.8-2.1-1.8-2.1-3.4
	c0-3.7-0.2-7.3-0.2-11c1,4.1,2.1,8.2,4.1,11.9c0.5,0.9,1,1.8,1.7,2.6c1.2,1.3,2.5,1,3.2-0.6c0.3-0.7,0.5-1.5,0.5-2.3
	c0-2.4-0.2-4.8-0.2-7.2c-0.1-3.4-0.1-6.8,0-10.3c0.1-3.8,0.2-7.6,0.3-11.5c0.1-3.6,0.7-7.1,1.8-10.5c0,0.8,0,1.5,0,2.3
	c-0.1,7.2-0.3,14.4-0.3,21.5c0.1,7,1.2,13.8,2.4,20.7c2.8,16,4.5,32.1,3.6,48.3c-0.8,13.8-2,27.5-5.2,41c-0.1,0.2-0.1,0.5-0.3,0.9
	c-0.5-0.3-1-0.4-1.4-0.7c-3-2.1-6-4.2-9-6.4c-4.1-3.1-6.9-7.3-10.1-11.2c-2.9-3.6-5.9-7.2-8.7-10.8c-4.1-5.2-9.4-9-15.1-12.3
	c-2.6-1.5-5.1-2.9-7.7-4.4c-4.7-2.6-8.9-5.9-12.6-9.8c-1.6-1.7-3.2-3.3-4.9-5.1c1.8-0.3,3.3-0.5,4.7-0.9c3.2-0.8,6.1-2.2,8.9-4
	c6.7-4.3,12.8-9.5,18-15.6C195.5,471.3,199.3,466.9,203.2,462.3z"/>
<path class="st0" d="M225.1,463.9c-0.8-1.3-1.4-2.1-1.9-3.1c-2.3-4.5-3.2-9.3-4-14.2c-0.2-1.1-0.4-2.3-0.7-3.4c-0.2,0-0.4,0-0.6-0.1
	c-0.2,0.5-0.6,1-0.7,1.5c-1.2,6.1-1.2,12.2-0.6,18.4c0.2,1.5,1,2.7,1.9,3.8c2.8,3.3,4.9,7.1,6.7,11c0.1,0.3,0.1,0.6,0.2,1
	c-1.2,0.3-1.8-0.4-2.3-1c-4.5-5.9-9.8-11.1-12.5-18.3c-1.1-3-2.6-5.8-4-8.6c0.1,3.1,1.7,5.8,2.7,8.6c0.9,2.7,2.2,5.4,3.4,8.2
	c-2.1-1.4-3.2-3.4-4.3-5.5c-1.1-2-2.1-4.1-3.2-6.1c-0.3,2.3,1.2,4.2,1.2,6.6c-0.7-1.1-1.4-2.1-2-3.2c-1.1-1.7-2.2-3.5-3.3-5.3
	c-0.2-0.3-0.2-0.6-0.3-0.9c-0.8-3.1-1.8-6.1-2.5-9.2c-0.3-1.2,0-2.6,0-4.3c-1-1-1-2.8-0.9-4.5c0.4-7.2,0.8-14.3,1.4-21.5
	c0.7-8.3,1.7-16.7,2.7-25c1.4-11.6,3-23.1,4.5-34.6c1.6-12,3.4-24,4.7-36.1c1.4-12.8,3.7-25.4,7-37.8c0.5-1.9,0.7-3.9,1.8-5.9
	c0.3,0.8,0.5,1.3,0.7,1.8c1.6,4.4,3.1,8.9,4.6,13.3c0.5,1.6,0.9,3.2,1.4,4.8c0.5,2,0.3,3.9-0.1,5.9c-0.8,4.4-1.4,8.8-1.8,13.2
	c-0.8,9.6-1.3,19.3-1,28.9c0.1,2.5,0.2,4.9,0.4,7.4c0.5,7.9-0.1,15.6-1.9,23.3c-2,8.6-2.8,17.5-3.7,26.3c-0.3,3.2-0.6,6.4-0.5,9.5
	c0.1,5.3,2,10,5.3,14.1c2,2.6,3,5.4,3.3,8.6c0.4,4.1,0.5,8.1-0.1,12.2c-0.8,5.1-0.3,10.2,0.4,15.3
	C226.5,460.5,226.3,462,225.1,463.9z"/>
<path class="st0" d="M284,303.1c0.5-2.1,1-4,1.4-5.9c3.1-16.5,6.1-32.9,9.2-49.4c1.2-6.6,2.3-13.2,4.3-19.6c0.2-0.5,0.4-1,0.6-1.5
	c6,0.1,12,1.6,17.9-1.3c0.6,3.4,1,6.7,1.6,9.9c0.7,3.6,1.4,7.2,2.4,10.7c4.6,17.3,9,34.7,15,51.7c0.5,1.4,0.4,2.6-0.5,3.7
	c-2.2,2.7-4.3,5.6-6.7,8.1c-3.4,3.4-7,6.5-10.5,9.7c-0.3,0.3-0.6,0.5-0.9,0.8c-3.6,2.8-3.5,2.7-7-0.3c-7.3-6.1-14.9-11.8-23.8-15.4
	C285.7,304,284.9,303.5,284,303.1z"/>
<path class="st0" d="M196.9,465.9c-0.2,0.5-0.4,1.1-0.7,1.5c-5.1,5.6-9.7,11.7-15.8,16.3c-3.3,2.5-6.7,4.9-10.2,7.1
	c-3.5,2.2-7.5,3-11.7,3c-6.5-0.1-12.9-0.1-19.4-0.1c-4.1,0-8.1-0.1-12.1-1c-1.1-0.3-2.2-0.6-3.1-1.1c-1.8-0.9-3-2.3-3.3-4.4
	c-0.5-3.8-1.1-7.6-1.3-11.4c-0.4-10.8-1.6-21.5-3.5-32.1c-1.1-6.1-2-12.3-3-18.4c0-0.3,0-0.6-0.1-1.5c0.6,0.8,0.9,1.2,1.1,1.7
	c1.5,3.1,2.6,6.4,2.6,9.9c-0.1,4.7,1.9,8.3,5.4,11.2c1.1,0.9,2.2,1.9,3.4,2.7c6.7,4.7,13.5,9.3,20.2,14.1c2.5,1.8,4.7,3.8,7.1,5.7
	c5.4,4.4,11.6,5.7,18.2,3.6c3.6-1.1,7-2.6,10.4-4.2c4.3-2,8.6-3.7,13.2-4.9c0.9-0.2,1.8-0.5,2.5,0.4c2.6-0.8,3.2-3.4,4.9-5.2
	C202,460.3,200,463,196.9,465.9c-1.2,0.4-2.5,0.7-3.6,1.2c-4,1.7-7.9,3.5-11.8,5.2c-9.6,4.2-19.3,8-29.4,10.6
	c-7.5,1.9-15.1,2.4-22.7,0.9c-0.2,0-0.3,0.1-1,0.4c1.2,0.5,1.9,1,2.7,1.1c2.5,0.4,5,0.9,7.6,1c6.2,0.2,12.2-1.1,18.2-2.6
	c9.5-2.5,18.6-6.2,27.3-10.7C188.4,470.7,192.6,468.3,196.9,465.9z"/>
<path class="st0" d="M394.4,307.7c1.3,6.1,2.5,12.2,3.8,18.2c1.8,8.3,4,16.4,5.6,24.7c1.4,7,2.2,14.2,3.2,21.3
	c1.3,9.9,3.9,19.4,8,28.5c1.8,4,4.1,7.6,7.2,10.6c3.6,3.5,6.7,7.3,8,12.3c1,3.6,1.4,7.2,1.3,10.9c0,1.2-0.9,2.5-1.5,3.7
	c-2.1,3.9-4.4,7.8-6.5,11.7c-0.6,1.1-1,2.3-1.6,3.5c-0.4,0.8-1,1.5-1.8,2.6c-2-3.7-0.9-7-0.6-10.2c0.3-0.2,0.4-0.4,0.5-0.4
	c3.2-1.1,4.5-3.4,4-6.7c-0.7-5.1-0.8-10.3-0.1-15.5c-1.5,1.1-1.1,3-2.2,4.8c-1.4-4.8-2.4-9.2-3.3-13.7c-0.1,0.8-0.4,1.6-0.3,2.3
	c0.4,3.2,0.7,6.3,1.3,9.5c0.6,3.3,1.6,6.5,2.2,9.8c0.3,1.6,0.2,3.3,0.1,5c-0.1,1.3-0.7,2.2-2.5,2.5c-0.7-1.3-1.5-2.7-2.1-4.1
	c-0.8-2.1-1.4-4.3-1.9-6.4c-1.2-5.3-3.8-9.7-7.7-13.5c-3.4-3.4-6-7.4-8.1-11.7c-2.6-5.4-3.2-11.3-4.4-17.1
	c-1.5-7.4-1.9-14.9-1.9-22.4c0-12.8-0.1-25.5,0.1-38.3c0.1-6.9,0.5-13.9,0.8-20.8c0-0.4,0.1-0.8,0.2-1.2
	C394.3,307.6,394.3,307.6,394.4,307.7z"/>
<path class="st0" d="M369.9,376.6c1.1,0.9,1.8,1.8,2.1,3.2c1.4,6.2,2.9,12.4,4.4,18.6c1.6,6.5,4.2,12.6,7.9,18.1
	c0.8,1.2,1.8,2.4,2.9,3.5c3.3,3.1,9.2,2.3,11.7-1.5c0.4-0.7,0.5-1.6,1.7-1.7c0.3,0,0.5-1.3,0.8-2.2c2.7,3.4,5.5,6.7,8.1,10.1
	c0.7,0.9,1.2,2,2,3.4c-12.9,3.9-25.9,6.6-39,8.8c-0.3-0.7-0.7-1.2-0.9-1.8c-0.4-1-0.6-2-1-2.9c-1.8-4.5-1.3-9.2-0.9-13.9
	c1-11.6,1.1-23.3,0.5-34.9C370.2,381.1,370.1,379,369.9,376.6z"/>
<path class="st0" d="M416,442.8c-0.5,0.7-1.2,1.5-1.8,2.3c-0.5,0.6-0.9,1.3-1.3,2c-1.4,2.7-0.9,4,2.4,5.2c-4.6,0.6-8.7,1.2-12.9,1.8
	c-1.8,0.3-3.5,0.9-5.3,1.2c-1.4,0.3-2.8,0.5-4.3,0.6c-1.8,0.1-3-0.6-3.7-2.3c-1-2.8-2.1-5.5-3.3-8.2c-1.1-2.6-2.2-5.3-3.3-7.9
	c9.8-2.4,19.6-4.7,29.6-7.1C413.5,434.3,414.7,438.4,416,442.8z"/>
<path class="st0" d="M315.1,198c1,1.6,0.7,3.1,0.3,4.6c-0.3,1.1-0.7,2.1-1,3.2c-0.8,2.9-0.9,5.8,0,8.7c0.7,2.2,1.2,4.4,1.9,6.6
	c0.4,1.2,0,2.1-1,2.6c-1.1,0.5-2.2,1-3.4,1.1c-3.3,0.1-6.7-0.1-10-0.1c-1.7,0-2.7-0.9-3.1-2.4c-0.6-2.5-1.4-4.9-1.7-7.4
	c-0.4-2.8-0.3-5.7-0.4-8.6c0-2.2,1-3.8,3-4.8c0.5-0.2,1-0.5,1.5-0.7C305.7,198.9,310.3,198.3,315.1,198z"/>
<path class="st0" d="M375.8,383.6c1,1,1.9,2.1,2.9,3c7.2,7.1,13.4,15,18.6,23.6c0.4,0.7,0.8,1.4,1.1,2.1c1,2.4,0.6,4.2-1.4,5.9
	c-2.8,2.5-7,2.1-9.3-0.9c-2.5-3.2-4.4-6.8-6-10.6C378.5,399.4,377.2,391.5,375.8,383.6z"/>
<path d="M196.9,465.9c-4.3,2.4-8.5,4.8-12.8,7c-8.7,4.5-17.8,8.2-27.3,10.7c-6,1.5-12,2.9-18.2,2.6c-2.5-0.1-5.1-0.6-7.6-1
	c-0.8-0.1-1.6-0.6-2.7-1.1c0.6-0.2,0.8-0.4,1-0.4c7.7,1.5,15.2,1,22.7-0.9c10.2-2.6,19.9-6.4,29.4-10.6c3.9-1.7,7.9-3.5,11.8-5.2
	C194.4,466.6,195.7,466.4,196.9,465.9C196.9,466,196.9,465.9,196.9,465.9z"/>
<path class="st0" d="M270,55c0.1,4.5-1.5,8.2-5.2,10.9c-1.1,0.8-2.1,1.3-3.5,0.3c-1.2-0.9-2.4-0.2-3.6,0.1c-0.9,0.3-1.9,0.9-2.9-0.3
	c3.9-1.8,6.6-5,9.2-8c1.5,0.1,3,0.7,4,0.2C268.9,57.7,269.3,56.1,270,55z"/>
<path class="st0" d="M317.6,54.8c2.7,5.2,3.8,21.4,2,26.5C317.6,72.4,318.3,63.5,317.6,54.8z"/>
<path class="st0" d="M334,76.4c-0.1-3.4-0.3-6.9-0.4-10.3c0.2-0.1,0.3-0.1,0.5-0.2c1,1.3,1.9,2.6,2.4,4.2c0.3,1,0.3,1.9-0.4,2.9
	c-0.7,1-1.1,2.3-1.6,3.4C334.5,76.4,334.2,76.4,334,76.4z"/>
<path class="st0" d="M271.9,64.9c0.3-1.1,0.5-1.9,0.7-2.6c1.7-0.3,3.3-0.6,5.1-0.9c0,1.8,0,3.6,0,5.4c-0.9-0.6-1.6-1.4-2.5-1.7
	C274.3,64.8,273.3,64.9,271.9,64.9z"/>
<path class="st0" d="M417,450c-1.1,0-2,0-3.4,0c0.7-2.5,1.7-4.4,3.2-6.4c0.6,0.3,1.1,0.5,1.6,0.8C417.9,446.3,417.5,448,417,450z"/>
<path class="st0" d="M247.4,55.4c2.8-1.7,5.2-3.2,7.4-4.6c-0.4,2.3-3.2,5.3-5.7,5.5C248.6,56.3,248,55.7,247.4,55.4z"/>
<path class="st0" d="M226.5,476.7c-1.7-3.1-3.4-6.2-5.1-9.4c1.6,0.8,2.3,2.1,3.1,3.3c1,1.4,1.8,3,2.6,4.5
	C227.7,476.2,227.1,476.6,226.5,476.7z"/>
<path class="st0" d="M250.8,69.2c-4,1.8-8.1,2.6-12.7,1.3C242.5,70.1,246.6,69.7,250.8,69.2z"/>
<path class="st0" d="M282.4,71c1.6-2.5,3.2-4.9,4.7-7.2C287.3,66.7,285.6,69.4,282.4,71z"/>
<path class="st0" d="M257.5,60c1.8-1.3,3.1-2.2,4.8-3.4C260.6,60,260.1,60.4,257.5,60z"/>
<path class="st0" d="M249.2,94.8c-1.2,1.4-2.1,3.2-3.9,4.2C245.4,97.4,245.4,97.4,249.2,94.8z"/>
<path class="st0" d="M210.6,468.9c-1.2-1.4-2.4-2.8-3.6-4.2c0.1-0.1,0.3-0.2,0.4-0.4c1.2,1.4,2.4,2.8,3.5,4.2
	C210.9,468.6,210.8,468.8,210.6,468.9z"/>
<path class="st0" d="M295.1,48.2c0.1-1.6,0.8-2.7,2.4-3.1C296.7,46.1,295.9,47.1,295.1,48.2z"/>
<path d="M241.7,279.2c5.4-17.3,16.4-30.8,29.4-42.9c-3.3,4.7-7.4,8.8-10.9,13.4c-3.5,4.6-6.8,9.4-9.9,14.3
	C247.2,269,244.5,274.1,241.7,279.2z"/>
<path d="M233.2,210.8c15.1-4.1,30.4-6.2,46.3-4.3C263.8,206.7,248.4,207.9,233.2,210.8z"/>
<path d="M361.1,287c-2.2-6.2-4.4-12.5-6.8-18.6c-3.1-8-6-16.2-9.5-24c-3.2-7.1-7-13.9-10.6-20.8c0.2,0.3,0.6,0.7,0.9,1.1
	c7.5,10.5,12.4,22.3,16.8,34.3c2.2,5.9,4.3,11.8,6.4,17.8c1.2,3.4,2.1,6.8,3.2,10.2C361.4,287,361.3,287,361.1,287z"/>
<path d="M300.4,93.8c1.2-0.2,2.1-0.3,3.3-0.5C302.7,94.8,302.4,94.9,300.4,93.8z"/>
<path d="M294.5,104c1.1-0.1,2.2-0.2,3.3-0.2C296.7,104.2,295.6,104.8,294.5,104z"/>
<path d="M299.8,108.5c0.8-0.1,1.6-0.2,2.3-0.3c0,0.2,0,0.3,0.1,0.5c-0.7,0.5-1.6,0.2-2.4,0.3C299.9,108.8,299.9,108.7,299.8,108.5z"
	/>
<path d="M305.8,103.8c-0.7-0.1-1.3-0.1-2-0.2c0-0.1,0-0.1,0-0.2c0.7,0,1.3,0,2,0C305.9,103.6,305.9,103.7,305.8,103.8z"/>
</svg>
