<?xml version="1.0" encoding="utf-8"?>
<!-- Generator: Adobe Illustrator 19.0.0, SVG Export Plug-In . SVG Version: 6.00 Build 0)  -->
<svg version="1.1" id="图层_1" xmlns="http://www.w3.org/2000/svg" xmlns:xlink="http://www.w3.org/1999/xlink" x="0px" y="0px"
	 viewBox="0 0 595.3 841.9" style="enable-background:new 0 0 595.3 841.9;" xml:space="preserve">
<style type="text/css">
	.st0{fill:#FFFFFF;}
</style>
<path class="st0" d="M11.6,827.3c0-270.4,0-540.8,0-811.1c191.2,0,382.3,0,573.5,0c0,270.4,0,540.7,0,811.1
	C393.9,827.3,202.7,827.3,11.6,827.3z M455.1,479c2.8,0.9,5.2,1.7,7.6,2.5c1.4,0.5,2.7,1.1,4.1,1.7c0.8,0.3,1.6,0.7,2.4,0.9
	c2.2,0.6,3.8-0.1,4.7-2.2c0.5-1.2,0.9-2.5,1.2-3.7c2-10.7,5.5-21,10-30.9c1.4-3,2.5-6.1,3.7-9.2c1-2.5,0.8-4.9-0.3-7.4
	c-5.8-12.7-11.5-25.4-17.3-38.1c-5.5-12-11.3-24-16.6-36.1c-6-13.6-12.5-27-19.3-40.2c-3.1-6-6.1-11.9-9-18
	c-5.4-11.3-9.3-23.1-13.2-35c-3.8-11.6-8.1-22.9-13-34.1c-1.7-3.9-3.1-7.9-4.1-12c-1.7-6.6-3.5-13.3-6.1-19.6
	c-2-5-3.5-10.2-4.6-15.5c-0.5-2.4-1.3-4.8-2.1-7.1c-1.7-5-5-8.4-9.7-10.5c-2.2-1-4.4-2.2-6.7-3.2c-4-1.8-8-3.7-12-5.3
	c-3.1-1.3-6.5-1.9-9.9-2.1c-2.2-0.1-4.5,0.2-6.6-0.3c-2.2-0.6-4.2-1.9-6.2-3c-1.8-0.9-3.6-1.8-5.4-2.7c-1.3-0.7-2.6-1.4-3.7-2.3
	c-2.2-1.8-4.3-3.7-5.3-6.5c-0.4-1.3-0.8-2.6-1.1-4c-0.1-0.6-0.1-1.5,0.2-2c1.2-1.8,2.6-3.4,4.6-4.4c1.3-0.6,2.5-0.8,4-0.1
	c1.2,0.5,2.6,0.9,4,0.9c6.2,0.3,11.4-3.1,13.2-9.1c1.2-4,1.6-8.3,2.4-12.5c0.1-0.4,0-0.8-0.1-1.2c-0.8-3.5-1.2-7.1-2.9-10.4
	c-1.5-2.9-2.7-5.9-2.3-9.3c0.2-1.8-1-3.1-2-4.5c-1.7-2.2-3.3-4.5-4.8-6.7c-0.3-0.5-0.5-1.1-0.6-1.7c-0.4-2.7-0.7-5.5-1-8.3
	c-0.5-4.4-1.3-8.7-2.7-12.9c-1.1-3.4-3.2-5.9-6.4-7.5c-3.4-1.7-6.8-3.3-10.5-3.6c-3.7-6-8.8-9.2-15.9-9.2c-7.1,0-13.9,1.7-20.4,4.3
	c-4.8,2-8.3,5.3-10.6,9.8c-0.9,1.6-1.6,3.3-2.4,5c-1.4,3.1-3.5,5.8-6.2,7.9c-0.9,0.6-1.8,1.3-2.5,2.1c-1.3,1.5-2.9,1.6-4.7,1.1
	c-3.5-1.1-6.9-0.5-10.2,0.6c-3.4,1.1-5.6,3.5-6.5,6.9c-0.5,2-0.7,4,1.8,5.2c-0.5,1.2-0.9,2.2-1.3,3.3c-1.3,3.2-2.5,6.4-3.7,9.7
	c-1,2.8-0.7,5.3,1.7,7.3c0.1,0.1,0.1,0.3,0.1,0.5c-0.5,0.7-1,1.3-1.4,2.1c-0.4,0.7-0.7,1.5-0.9,2.4c-2.5,9.6,4.1,18.3,11.2,20.9
	c2.9,1,5.3,2.6,7.7,4.5c2,1.6,4.3,3,6.6,4.1c5.2,2.5,10.7,3.4,16.4,3.2c3.1-0.1,6.2,0.1,9.1,1c2,0.7,2.2,1,1.9,3
	c-0.1,0.8-0.2,1.5-0.3,2.3c-0.6,6.1-3.2,11-8.6,14.3c-3.4,2-6.8,4-10.1,6c-1.7,1-3.3,1.9-5.4,1.4c-0.6-0.2-1.4,0.1-2,0.3
	c-2.6,0.9-5.3,1.7-7.8,2.7c-2.4,1-4.7,2.3-7.1,3.3c-7.7,3.2-14.6,7.5-20.6,13.4c-1.5,1.4-3.1,3-3.9,4.8c-2.3,5-4.3,10.2-6.4,15.3
	c-0.7,1.8-1.6,3.5-2.6,5.1c-1.6,2.8-3.4,5.5-5.1,8.3c-9.7,16.4-17.9,33.5-24.8,51.3c-10.7,27.7-24.2,54.1-39.6,79.5
	c-6.8,11.2-13.6,22.4-20.2,33.7c-1.9,3.2-3.4,6.7-4.6,10.3c-2.8,8.2-2.6,16.4,1.6,24.2c1.1,2,2.2,4.1,3.2,6.2
	c0.3,0.7,0.7,1.4,0.7,2.1c-0.2,4.7,0.6,9.2,1.4,13.8c2.3,12.8,3.7,25.8,4.5,38.8c0.2,3.5,0.7,6.9,1.2,10.3c0.4,3.1,2.3,5.2,5.1,6.3
	c1.3,0.6,2.8,1.1,4.2,1.2c3.4,0.4,6.9,0.8,10.4,0.8c4.9,0.1,9.7,0.1,14.6-0.1c2.8-0.1,4.4,1,6.2,3c4.9,5.9,10.4,11.1,17.4,14.6
	c3.3,1.7,6.5,3.9,9.7,5.9c3.6,2.3,6.8,5.1,9.5,8.4c3.6,4.5,7.4,8.9,10.9,13.5c3.7,4.8,8,8.9,13.2,12.1c1.5,0.9,2.8,2.1,4.3,3.1
	c1.1,0.8,1.3,1.7,1,3c-3.7,19.3-7.2,38.6-9.9,58.1c-1.3,9.2-2.5,18.5-3.4,27.8c-0.7,7.1-1.1,14.3-1.5,21.4
	c-0.8,14.7-1.5,29.4-2.2,44.1c-0.3,6.2-0.5,12.3-0.8,18.5c-0.4,6.2-1,12.3-1.4,18.4c-0.6,8.1-1.2,16.1-1.7,24.2
	c-0.4,5.5-0.7,11.1-1.1,16.6c-0.1,1.5,0,2.9,1.1,4c0.4-0.1,0.8-0.4,1.1-0.4c5.4,0.1,10.8,0.2,16.2,0.3c3.1,0,3.8-0.9,3.5-4
	c-0.1-1.3-0.3-2.7-0.5-4.3c1.4,0.1,2.5,0.1,3.5,0.3c10.2,1.9,20.6,2.7,30.9,3.9c8.3,0.9,16.5,1.8,24.8,2.7c1.8,0.2,3.7,0.3,5.5,0
	c3.1-0.4,4.5-2.4,4.2-5.5c0-0.4,0-0.9,0-1.4c7.8,2,15.5,1.8,23.1,0.5c5.6-0.9,11.2-1.9,16.9-2.8c12.8-2.1,25.7-4.2,38.5-6.3
	c7.8-1.3,15.5-2.4,23.4-2.5c5.8-0.1,11.6-0.3,17.3-0.4c2.3,0,4.6-0.5,6.7-1.6c1.9-1,2.1-1.2,1.5-3.2c-0.9-3.5-1.8-7-2.9-10.5
	c-2.9-9.2-6.5-18.2-8.9-27.5c-4.4-17-8.2-34.1-12.1-51.3c-3.6-16-6.8-32.1-10.5-48.1c-3.1-13-6.5-25.9-10.2-38.6
	c-4.8-16.6-9.7-33.3-13.7-50.1c-0.2-0.8-0.3-1.6-0.5-2.5c0.9,0,1.5,0,2.1,0c2.5,0,5.1,0.2,7.6-0.1c9.6-0.9,18.6-4.1,27.4-7.8
	c12.2-5.1,23.4-12.1,34.9-18.5c0.8-0.5,1.5-1,2.3-1.5c2.4-1.6,4.1-3.7,5.1-6.4c1.5-4.5,3-9,4.6-13.6
	C452.9,485.7,454,482.4,455.1,479z"/>
<path d="M455.1,479c-1.1,3.4-2.2,6.6-3.2,9.8c-1.5,4.5-3,9-4.6,13.6c-0.9,2.7-2.7,4.8-5.1,6.4c-0.8,0.5-1.5,1.1-2.3,1.5
	c-11.5,6.4-22.7,13.4-34.9,18.5c-8.8,3.7-17.8,6.9-27.4,7.8c-2.5,0.2-5.1,0-7.6,0.1c-0.6,0-1.2,0-2.1,0c0.2,0.9,0.4,1.7,0.5,2.5
	c4,16.9,8.9,33.5,13.7,50.1c3.7,12.8,7.1,25.7,10.2,38.6c3.8,16,6.9,32.1,10.5,48.1c3.9,17.1,7.7,34.3,12.1,51.3
	c2.4,9.3,5.9,18.3,8.9,27.5c1.1,3.4,2,7,2.9,10.5c0.5,2.1,0.4,2.3-1.5,3.2c-2.1,1.1-4.3,1.5-6.7,1.6c-5.8,0.1-11.6,0.3-17.3,0.4
	c-7.9,0.1-15.7,1.2-23.4,2.5c-12.8,2.1-25.7,4.2-38.5,6.3c-5.6,0.9-11.2,1.8-16.9,2.8c-7.7,1.3-15.3,1.4-23.1-0.5c0,0.6,0,1,0,1.4
	c0.4,3-1.1,5-4.2,5.5c-1.8,0.2-3.7,0.2-5.5,0c-8.3-0.8-16.5-1.8-24.8-2.7c-10.3-1.2-20.7-1.9-30.9-3.9c-1-0.2-2.1-0.2-3.5-0.3
	c0.2,1.7,0.4,3,0.5,4.3c0.3,3.1-0.4,4-3.5,4c-5.4,0-10.8-0.2-16.2-0.3c-0.3,0-0.7,0.2-1.1,0.4c-1.1-1.1-1.2-2.5-1.1-4
	c0.4-5.5,0.7-11.1,1.1-16.6c0.6-8.1,1.1-16.1,1.7-24.2c0.5-6.1,1.1-12.3,1.4-18.4c0.4-6.2,0.5-12.3,0.8-18.5
	c0.7-14.7,1.4-29.4,2.2-44.1c0.4-7.2,0.8-14.3,1.5-21.4c0.9-9.3,2.2-18.5,3.4-27.8c2.6-19.5,6.2-38.8,9.9-58.1c0.2-1.3,0.1-2.2-1-3
	c-1.5-1-2.8-2.2-4.3-3.1c-5.2-3.2-9.5-7.3-13.2-12.1c-3.5-4.6-7.2-9-10.9-13.5c-2.7-3.3-5.8-6.2-9.5-8.4c-3.2-2-6.3-4.1-9.7-5.9
	c-6.9-3.6-12.5-8.8-17.4-14.6c-1.7-2.1-3.4-3.1-6.2-3c-4.8,0.2-9.7,0.2-14.6,0.1c-3.5-0.1-6.9-0.4-10.4-0.8
	c-1.4-0.2-2.9-0.7-4.2-1.2c-2.8-1.2-4.7-3.2-5.1-6.3c-0.5-3.4-1-6.9-1.2-10.3c-0.8-13-2.2-25.9-4.5-38.8c-0.8-4.5-1.6-9.1-1.4-13.8
	c0-0.7-0.4-1.5-0.7-2.1c-1-2.1-2.1-4.1-3.2-6.2c-4.1-7.8-4.3-16-1.6-24.2c1.2-3.6,2.7-7.1,4.6-10.3c6.6-11.3,13.4-22.5,20.2-33.7
	c15.4-25.4,28.9-51.8,39.6-79.5c6.9-17.8,15.1-34.9,24.8-51.3c1.6-2.8,3.4-5.5,5.1-8.3c1-1.7,1.8-3.4,2.6-5.1
	c2.2-5.1,4.1-10.3,6.4-15.3c0.8-1.8,2.5-3.3,3.9-4.8c5.9-5.9,12.9-10.2,20.6-13.4c2.4-1,4.7-2.3,7.1-3.3c2.6-1,5.2-1.9,7.8-2.7
	c0.6-0.2,1.4-0.4,2-0.3c2.1,0.5,3.7-0.4,5.4-1.4c3.4-2,6.8-4,10.1-6c5.4-3.2,8-8.2,8.6-14.3c0.1-0.8,0.2-1.5,0.3-2.3
	c0.3-2,0.1-2.3-1.9-3c-3-1-6.1-1.1-9.1-1c-5.7,0.2-11.2-0.7-16.4-3.2c-2.3-1.1-4.6-2.5-6.6-4.1c-2.4-1.9-4.9-3.4-7.7-4.5
	c-7.1-2.5-13.8-11.3-11.2-20.9c0.2-0.8,0.5-1.6,0.9-2.4c0.4-0.7,0.9-1.4,1.4-2.1c0-0.2,0-0.4-0.1-0.5c-2.4-2-2.7-4.6-1.7-7.3
	c1.2-3.2,2.5-6.5,3.7-9.7c0.4-1.1,0.8-2.1,1.3-3.3c-2.5-1.2-2.4-3.1-1.8-5.2c0.9-3.5,3.1-5.9,6.5-6.9c3.3-1.1,6.7-1.6,10.2-0.6
	c1.7,0.5,3.3,0.4,4.7-1.1c0.7-0.8,1.6-1.4,2.5-2.1c2.8-2.1,4.8-4.8,6.2-7.9c0.8-1.7,1.5-3.4,2.4-5c2.4-4.5,5.8-7.8,10.6-9.8
	c6.6-2.7,13.3-4.3,20.4-4.3c7.1,0,12.2,3.2,15.9,9.2c3.7,0.3,7.1,1.9,10.5,3.6c3.2,1.6,5.3,4.1,6.4,7.5c1.4,4.2,2.1,8.5,2.7,12.9
	c0.3,2.8,0.6,5.5,1,8.3c0.1,0.6,0.3,1.2,0.6,1.7c1.6,2.3,3.1,4.6,4.8,6.7c1.1,1.4,2.2,2.7,2,4.5c-0.3,3.4,0.8,6.4,2.3,9.3
	c1.8,3.3,2.2,6.9,2.9,10.4c0.1,0.4,0.1,0.8,0.1,1.2c-0.7,4.2-1.1,8.4-2.4,12.5c-1.8,6-7,9.4-13.2,9.1c-1.4-0.1-2.8-0.4-4-0.9
	c-1.4-0.6-2.7-0.5-4,0.1c-2,1-3.4,2.6-4.6,4.4c-0.3,0.5-0.4,1.3-0.2,2c0.3,1.4,0.7,2.7,1.1,4c0.9,2.8,3.1,4.7,5.3,6.5
	c1.1,0.9,2.4,1.6,3.7,2.3c1.8,1,3.6,1.8,5.4,2.7c2.1,1,4,2.4,6.2,3c2.1,0.5,4.4,0.2,6.6,0.3c3.4,0.2,6.8,0.8,9.9,2.1
	c4,1.7,8,3.5,12,5.3c2.2,1,4.4,2.2,6.7,3.2c4.8,2.1,8.1,5.6,9.7,10.5c0.8,2.3,1.6,4.7,2.1,7.1c1.1,5.3,2.6,10.5,4.6,15.5
	c2.6,6.4,4.3,13,6.1,19.6c1.1,4.1,2.5,8.1,4.1,12c4.9,11.2,9.2,22.5,13,34.1c3.9,11.9,7.8,23.7,13.2,35c2.9,6,5.9,12,9,18
	c6.8,13.2,13.3,26.6,19.3,40.2c5.3,12.1,11.1,24.1,16.6,36.1c5.8,12.7,11.5,25.4,17.3,38.1c1.1,2.5,1.3,4.9,0.3,7.4
	c-1.2,3.1-2.3,6.2-3.7,9.2c-4.5,9.9-8,20.2-10,30.9c-0.2,1.3-0.6,2.5-1.2,3.7c-1,2.1-2.5,2.8-4.7,2.2c-0.8-0.2-1.6-0.6-2.4-0.9
	c-1.4-0.5-2.7-1.2-4.1-1.7C460.3,480.7,457.9,480,455.1,479z M200.4,464.4L200.4,464.4c3-2.8,4.9-5.5,4.7-6.9
	c-1.6,1.7-2.3,4.2-4.8,5c-0.6-0.9-1.5-0.6-2.4-0.4c-4.4,1.1-8.6,2.8-12.8,4.7c-3.3,1.5-6.6,3-10.1,4c-6.4,2-12.3,0.7-17.6-3.5
	c-2.3-1.8-4.5-3.8-6.9-5.5c-6.5-4.6-13-9.1-19.5-13.6c-1.1-0.8-2.2-1.7-3.2-2.6c-3.5-2.8-5.3-6.3-5.2-10.8c0.1-3.4-1-6.5-2.5-9.5
	c-0.2-0.4-0.5-0.8-1.1-1.6c0,0.8,0,1.1,0.1,1.4c1,5.9,1.8,11.9,2.9,17.8c1.8,10.3,2.9,20.6,3.4,31c0.1,3.7,0.8,7.3,1.2,11
	c0.2,2,1.4,3.4,3.2,4.3c1,0.5,2,0.8,3,1c3.9,0.9,7.8,1,11.7,1c6.2,0,12.5,0,18.7,0.1c4,0.1,7.9-0.7,11.3-2.9
	c3.4-2.1,6.7-4.4,9.9-6.8c5.9-4.4,10.3-10.4,15.2-15.8C200,465.5,200.2,464.9,200.4,464.4z M424.7,766.1c-0.1-0.6,0-1.1-0.2-1.5
	c-1-3.6-1.8-7.3-3-10.9c-3-9.5-6.4-18.8-8.9-28.4c-3.6-13.8-6.6-27.7-9.8-41.6c-2.4-10.7-4.6-21.4-7-32
	c-4.5-20.4-9.5-40.7-15.3-60.7c-5.3-18.1-10.6-36.2-14.9-54.6c-2.2-9.4-4.4-18.9-5.3-28.6c-1.4-16.1-0.4-32.2,1.2-48.2
	c0.5-5.4,1.5-10.8,1.9-16.3c1-13.6,2-27.2,2.7-40.8c0.4-8.5,0.5-17.1-0.5-25.6c-0.1-1.1-0.5-2-1.2-2.9c-1.8-2.5-3.7-5-5.4-7.5
	c-6.3-9.6-11-19.8-13.7-31.1c-2.3-9.4-5.8-18.5-8.8-27.7c-0.1-0.2-0.3-0.2-0.6-0.4c-0.3,0.4-0.6,0.8-0.9,1.1
	c-4.5,6.3-10.3,11.2-16.1,16.2c-1.2,1.1-2.6,1.9-4,2.8c-1.9,1.1-3.1,1.1-4.6-0.5c-4.7-4.8-10.3-8.3-15.8-12c-3.3-2.2-6.9-4-10.6-6.1
	c-0.4,1.5-0.7,2.6-1,3.7c-3.4,12.4-6.8,24.8-12.4,36.5c-6.4,13.5-14.1,26.2-22.7,38.3c-3.1,4.4-6.1,8.9-8.9,13.5
	c-2.8,4.6-5.1,9.5-5.3,15.1c-0.2,7-0.5,14-0.5,21c0,9.2,0.9,18.3,2.5,27.3c2.5,13.4,3.8,26.9,3.8,40.4c0,5.1-0.6,10.1-0.8,15.2
	c-0.5,9.2-1.7,18.2-3.5,27.3c-3,15.2-5.8,30.4-8.5,45.7c-1.8,10.3-3.2,20.7-4.6,31.1c-1.2,9.2-2.2,18.4-3,27.6
	c-0.6,6.1-0.7,12.2-1,18.2c-0.5,9.9-1.1,19.9-1.6,29.8c-0.5,10.2-0.9,20.5-1.6,30.7c-1.2,18.2-2.7,36.4-4,54.6c-0.1,1.1,0,2.1,0,3.3
	c3,0.9,6,0.1,9,0c3-0.1,6,0.1,8.9-0.4c-0.1-0.6-0.1-0.9-0.1-1.2c-0.5-3.3-1.3-6.7-1.6-10c-0.4-5.4-0.5-10.8-0.4-16.2
	c0.1-10.8,0.3-21.6,0.4-32.4c0.1-6.5,0.2-12.9,0.4-19.4c0.5-13.9,1.1-27.7,1.7-41.6c0.7-15.1,1.5-30.2,2.3-45.2
	c0.1-1.6,0.3-3.2,0.5-4.8c0.3,2.3,0.4,4.6,0.3,6.9c-0.2,5.9-0.4,11.7-0.6,17.6c-0.5,14.2-1,28.5-1.6,42.7c-0.4,10.6-1,21.2-1.2,31.9
	c-0.3,13.9-0.5,27.7-0.7,41.6c-0.1,5.6,0,11.3,0.1,16.9c0,1.8,0.3,3.6,0.5,5.4c1.3-0.1,2.3-0.2,3.3-0.2c1,0,2,0.1,3,0.3
	c11.1,2.1,22.5,2.9,33.7,4.1c5.7,0.6,11.3,1.2,17,1.8c2.4,0.3,4.9,0.7,7.3,0.8c1.1,0,2.4-0.6,3.4-1.2c1.1-0.7,0.2-1.9,0.2-2.8
	c-0.7-8.4-1.5-16.9-2.4-25.3c-1.7-15.7-2.5-31.5-2.1-47.3c0.3-12.9,1.3-25.7,2.6-38.5c1.5-14.4,2.9-28.8,4.4-43.2
	c1.5-15,3.1-29.9,4.3-44.9c1.1-13.5,1.8-27.1,2.5-40.6c0.6-12.3,1.3-24.6,0.8-37c0-0.9,0.1-1.7,0.1-2.6c0.5,1.1,0.8,2.2,0.8,3.4
	c0.2,7.8,0.5,15.6,0.3,23.3c-0.2,10.4-0.7,20.8-1.3,31.2c-0.5,8.5-1.2,16.9-1.8,25.4c-0.5,5.9-0.9,11.8-1.5,17.7
	c-1.1,11.4-2.4,22.8-3.5,34.3c-1.2,12-2.5,23.9-3.4,35.9c-0.9,11.6-1.8,23.2-2.2,34.8c-0.5,13.6-0.1,27.1,1.3,40.6
	c0.8,8.2,1.7,16.4,2.5,24.6c0.2,2,0.4,3.9,0.6,5.8c1.2,0.1,2.2,0.2,3.2,0.3c5.5,0.6,11.1,0.8,16.6-0.1c6.2-0.9,12.3-2,18.5-3
	c11.9-1.9,23.7-3.8,35.6-5.8c11.2-1.9,22.4-3.5,33.7-3.5c3.3,0,6.6,0,9.9-0.1C419.3,767.9,422.1,768,424.7,766.1z M295.6,211.1
	c-6.9-1.8-12.2-5.9-17.3-10.3c-5.1-4.3-11.9-12.7-12.6-14.9c2.3,2.2,5.1,4.7,7.7,7.3c4.1,4.1,8.2,8.2,13,11.4
	c2.7,1.8,5.6,3.3,8.4,4.7c1.6,0.8,2.4,0,2.5-1.7c0.1-2.5-0.5-4.9-1.7-7.1c-2.3-4.1-4.7-8.2-7.9-11.6c-4.4-4.8-8.8-9.5-13.3-14.1
	c-3.8-3.9-8.2-7.2-13-10c-2.4-1.4-4.9-1.8-7.5-0.8c-2.2,0.8-4.5,1.6-6.7,2.6c-3.4,1.5-6.7,3.2-10,4.7c-6.6,2.9-12.2,7.1-17.4,12.1
	c-1.1,1.1-2.1,2.3-2.8,3.6c-1.1,1.9-2,3.8-2.8,5.8c-1.9,4.7-3.7,9.4-5.5,14.2c-2.4,6.6-4.8,13.2-6.8,19.9
	c-5.5,18.8-11.6,37.4-19.3,55.4c-7.7,18.1-15.9,36.1-24,54.1c-1.9,4.4-4.1,8.6-6.1,13c-4.6,9.9-9.1,19.9-13.7,29.8
	c-2,4.4-2.8,9-2.3,13.7c0.6,5.1,1.4,10.2,2.5,15.2c1.3,5.5,3,10.8,4.6,16.2c0.5,1.6,1.3,3.2,2.4,4.4c2.2,2.4,4.7,4.6,7.2,6.9
	c7,6.3,14,12.5,20.9,18.9c2.5,2.4,5,2.8,7.9,1.3c0.3-0.2,0.7-0.3,1.1-0.4c5.3-2.6,10.7-5.2,16-7.8c0.6-0.3,1.1-0.7,1.7-1.1
	c-0.3-1.7-0.7-3.3-0.8-4.9c-0.1-1.8-1-3-2.6-3.8c-2.9-1.4-5.8-2.8-8.8-4c-8.8-3.5-17.9-6.2-27.4-7.1c-3-0.3-6-0.7-8.9-1.2
	c-0.7-0.1-1.6,0-2.4-1.2c4.9,0.3,9.6,0.6,14.1,1c12.4,1.3,23.9,5.3,35.2,11c0.1-0.6,0.1-0.9,0.1-1.3c0.1-2.9,0-5.9,0.2-8.8
	c0.6-7.3,1.3-14.6,2.1-21.9c0.4-3.8,0.7-7.5,0.2-11.3c-0.5-4-0.7-8-1-12c-0.4-4.9-0.6-9.9-1.1-14.8c-1.3-12.3-2-24.6-2.5-36.9
	c-0.4-11.3,0.2-22.6,0.8-34c0.1-1.6,0.4-3.2,0.6-4.8c0.3,0.6,0.3,1.3,0.3,1.9c0,11.8-0.2,23.6,0,35.4c0.1,7.5,0.7,14.9,1.2,22.4
	c0.8,12,1.7,24,2.6,36c0,0.4,0.1,0.7,0.2,1.1c0.5-0.8,0.6-1.5,0.7-2.3c1.2-9.3,2.3-18.7,3.5-28c1.4-11.4,2.9-22.8,4.4-34.2
	c0.7-5.7,1.2-11.3,2.1-17c1.4-9.3,3.8-18.4,6.4-27.4c0.6-1.9,0.7-3.7,0-5.6c-0.4-1.1-0.6-2.4-0.8-3.6c-0.8-5.2-0.3-10.5-0.2-15.7
	c0.1-6,0.2-12,0.1-18c-0.2-8.9-0.6-17.7-0.8-26.6c0-1.9,0.3-3.9,0.6-6c0.4,8.1,0.9,15.9,1.3,23.8c0.3,6.6,0.7,13.2,0.8,19.9
	c0.1,4.5-0.3,9.1-0.4,13.6c0,2.8-0.1,5.6,0.3,8.3c0.4,2.7,1.2,5.3,2.1,7.9c1.9,5.9,4,11.7,6,17.5c0.2,0.5,0.4,1.1,0.9,2.1
	c3.3-14.8,4.9-29.5,9.2-43.5c-0.2,2.4-0.6,4.7-1,7.1c-0.5,2.7-1.2,5.4-1.6,8.2c-1.7,11.8-4.1,23.5-6.4,35.2
	c-0.7,3.6-1.3,7.3-1.8,10.9c-1,8.3,0.1,16.2,4,23.8c3.3,6.4,6.3,12.9,9.4,19.3c0.5,1.1,0.9,2.3,1.4,3.4c-0.1,0.1-0.3,0.1-0.4,0.2
	c-5.2-9.9-11.1-19.4-15.3-29.8c-0.1,4.8-0.1,9.6,0.1,14.3c0.3,8,1.4,16-0.7,23.9c-0.4,1.4-0.6,2.9-1,4.3
	c-2.3,10.2-3.4,20.5-4.5,30.9c-0.7,6.4,1,12.2,4.8,17.4c0.7,1,1.4,2.1,2.2,3.2c0.2-0.4,0.2-0.6,0.3-0.7c0.2-0.8,0.3-1.5,0.5-2.3
	c2.1-10.1,5.5-19.7,11.6-28.2c5.2-7.3,10.2-14.9,15-22.5c6.5-10.3,12.4-21,16.6-32.5c5.6-15.3,10-30.9,12.9-46.9
	c2.5-13.9,5.1-27.9,7.6-41.8c1.1-5.9,2.2-11.8,4.6-17.4c0.2-0.6,0-1.5-0.3-2.1c-1.7-4-2.4-8.1-2.5-12.4c0-0.4-0.1-0.8-0.2-1.2
	c-6.2,2.4-12.2,4.6-18.2,7c-2.8,1.1-5.5,2.5-8.2,3.8c-8.2,4-14,10.5-18,18.6c-1.3,2.6-2,5.5-2.4,8.4c-0.1,0.4,0.1,0.9,0.1,1.4
	c2.9-4.1,6.3-7.6,10-10.8c5.1-4.4,9.8-7.9,12.1-8.6c-1.2,1.1-2.2,1.9-3.1,2.8c-6,5.5-12.4,10.7-16.9,17.7c-0.6,0.9-1.3,1.7-2.1,2.4
	c-1,0.9-2.1,0.5-2.3-0.9c-0.1-0.4,0-0.8,0-1.2c0.2-3.8,0.8-7.5,2.4-11c4.5-9.5,11.2-17,20.9-21.3c5.8-2.5,11.7-4.7,17.6-6.9
	c2.8-1.1,5.6-2,8.3-3C295.1,214.1,295.3,212.7,295.6,211.1z M316.6,211.7c-1.3,3.1-1.6,6-0.8,9.1c0.8,3.1,1.8,6.2,2.4,9.4
	c1,4.9,1.6,9.9,2.7,14.7c1.3,5.6,3,11,4.3,16.5c4.5,18.3,10.2,36.3,16.4,54.1c2.4,6.9,4.8,13.8,6.2,21c1.3,6.8,3.8,13.2,7.1,19.2
	c3.4,6.2,7.3,12.1,11.7,17.7c3.8,4.9,7.5,10,12,14.4c5.6,5.5,10.3,11.6,14.7,18.1c0.4,0.6,0.8,1.1,1.2,1.6c0.1-1.1-0.1-2-0.4-2.9
	c-0.9-2.6-1.9-5.2-2.6-7.9c-2.2-8.5-3-17.1-3-25.9c0-14.1,0.1-28.2,0.3-42.3c0.1-6.9,0.6-13.7,0.8-20.6c0.1-4,0.2-8-0.1-12
	c-0.4-6.9-1.1-13.8-1.8-20.7c-0.4-4.1-0.9-8.3-1.7-12.3c-1.1-5.2-2.4-10.3-3.9-15.5c-2.2-7.6-3.4-15.3-3.7-23.2
	c0-0.9,0.1-1.7,0.2-2.6c0.2,0,0.3,0,0.5,0c1,10.3,3,20.4,6.4,30.2c0.4-0.7,0.6-1.5,0.6-2.2c0.2-4.1,0.2-8.2,0.4-12.2
	c0.4-7,0.8-14,1.3-21c0.3-3.8,0.8-7.7,1.2-11.5c0.3-3-0.1-5.9-1.2-8.8c-1.5-4-2.5-8.3-3.6-12.4c-0.7-2.6-1.4-5.2-2.2-7.8
	c-1.5-4.7-4.6-7.9-9-10c-3.4-1.6-6.7-3.4-10.2-5c-5.7-2.6-11.4-5-17.8-5.6c-3.5-0.3-6.4,0.4-9,3.1c-5.2,5.4-10.2,10.9-14.3,17.2
	c-1.4,2.2-2.7,4.5-3.5,7c-2.1,6.4-2.5,13-2.2,19.6c0.1,1.5,0.4,2.9,1.4,4c8.4-0.2,16.5-4.9,22.4-10.4c2.3-2.1,4.7-4,7.2-5.8
	c1.4-1.1,3-1.9,4.6-2.9c0.1,0.2,0.3,0.4,0.4,0.5c-6.9,5.1-12,12.4-19.9,16.5c0.4,0.2,0.6,0.2,0.9,0.2c7-1,14-0.9,21-0.2
	c6.3,0.6,12.6,1.1,18.9,1.7c4.5,0.4,8.7-0.6,12.7-2.6c0.4-0.2,0.9-0.4,1.4-0.6c0,0.3,0,0.4,0,0.5c-0.1,0.2-0.3,0.4-0.4,0.6
	c-2.7,3-6.2,4.2-10.1,4.3c-6.4,0.2-12.8-0.7-19.1-1.7c-6.6-1-13.2-1.4-19.8-0.9c-6.6,0.6-13.1,1.4-19.7,2.1c-0.2,1-0.3,2-0.4,2.8
	c2.5,1,5,1.7,7.1,3c4.5,2.6,8.9,5.3,13.2,8.1c4.2,2.8,8.5,5.6,12.3,8.9c7,6.1,12.9,13.2,17.3,21.5c1.2,2.4,2.8,4.6,4.3,6.8
	c1,1.4,2.3,2.5,4.1,2.8c1.1,0.2,2.2,0.2,3-0.7c0.7-0.8,0.1-1.8-0.3-2.6c-1.7-3.4-3.5-6.7-5.2-10c-0.4-0.8-0.8-1.5-1.2-2.2
	c0.2-0.1,0.4-0.3,0.6-0.4c0.3,0.4,0.6,0.9,0.9,1.3c1.8,2.7,3.6,5.3,5.4,8.1c0.7,1.2,1.4,2.4,1.9,3.7c0.9,2.3-0.1,4.1-2.5,4.8
	c-1.8,0.5-3.6,0.4-5.1-0.7c-1.4-1-2.7-2.1-3.6-3.5c-1.8-2.6-3.4-5.3-4.9-8.1c-4.4-7.7-9.9-14.6-16.7-20.2
	c-7.6-6.2-16-11.5-24.5-16.6C321,213.4,318.8,212.7,316.6,211.7z M399.1,231.2c1.3,9.6,2.7,19,5.2,28.2c1.5,5.6,3.2,11.3,4.5,17
	c2.2,9.8,4,19.6,6.3,29.4c4.1,17.2,8.4,34.4,12.8,51.6c2.7,10.5,4.4,21.1,5.9,31.8c1.2,8.5,1.6,17,0.4,25.6c-0.4,2.5-0.7,5-1.4,7.5
	c-0.5,1.7-1.3,3.5-2.4,4.9c-1.3,1.6-2.1,3.2-1.7,5.2c0.3,1.8-0.2,3.5-1.2,5.1c-0.3,0.5-0.6,1-1,1.6c-2.6,4.5-5.6,8.7-7.3,13.6
	c-0.2,0.7-0.7,1.4-1.1,2c-1,1.5-3.8,1.7-4.5-0.5c-0.1-0.4-0.4-0.8-0.5-1.2c-3.8,0.8-7.4,1.5-11.3,2.3c0.3,0.5,0.4,0.8,0.6,0.9
	c2.2,2.1,4.4,4.2,6.7,6.2c3.6,3,7.8,3.5,12.2,2.6c2.8-0.6,5.2-1.9,7.4-3.6c3.7-2.7,6.3-6.3,8.6-10.2c3.1-5.3,7-10,11.1-14.5
	c0.6-0.6,1.3-1.2,1.9-1.7c-0.9,1.8-2.1,3.3-3.1,4.9c-3.3,4.9-6.5,9.9-9.7,14.9c-2.1,3.2-4.5,6-7.6,8.3c-4.2,3.1-8.7,4.9-14,4.2
	c-0.3,0-0.5,0-0.8,0c0,0.1-0.1,0.3-0.1,0.4c1.9,0.5,3.8,1,5.7,1.4c10.7,2,21.4,4.3,31.9,7.5c0.8,0.2,1.6,0.2,2.4,0.5
	c1.5,0.5,2.9,1.3,4.4,1.8c2.8,1,5.7,1.9,8.5,2.9c0.4,0.1,0.7,0.3,1.1,0.4c1.8,0.5,2.5,0.2,3.2-1.6c0.4-1,0.7-2.1,0.9-3.1
	c2-11.2,6-21.8,10.7-32.1c1.2-2.7,2.3-5.6,3.3-8.4c0.7-1.7,0.5-3.3-0.2-4.9c-4.9-10.6-9.7-21.3-14.6-31.9
	c-6.6-14.3-13.4-28.4-19.8-42.8c-6-13.5-12.3-26.9-19.2-40c-8.4-15.9-15.4-32.4-20.8-49.6c-3.7-11.5-7.5-23-12.4-34.1
	C399.8,232.7,399.5,232,399.1,231.2z M366.7,432.9c-0.1,0-0.2,0-0.3,0c-0.1,0.5-0.1,1-0.2,1.5c-0.4,4.3-0.7,8.6-1.1,12.9
	c-0.6,6.1-1.5,12.2-2.1,18.4c-0.5,6.3-0.7,12.6-1.1,18.9c-0.7,12.4,0.1,24.8,2.6,37c0.9,4.4,1.9,8.9,2.9,13.4
	c4,0.3,7.7-0.1,11.4-0.6c9-1.2,17.5-4.2,25.8-7.7c11.9-5.1,23-11.9,34.2-18.2c3.5-2,6-4.7,7.2-8.6c2.2-7.1,4.5-14.1,6.8-21.1
	c0-0.1-0.1-0.3-0.2-0.6c-0.9-0.3-1.9-0.7-3-1c-9.9-2.7-19.8-5.2-29.9-6.9c-4-0.7-7.7-2-10.9-4.7c-0.1-0.1-0.2,0-0.6,0
	c3.3,4.8,7,9,10.7,13.2c3.7,4.2,7.4,8.5,11.1,12.8c-0.7,0.1-1.1-0.1-1.4-0.4c-3.6-3.5-7.3-6.8-10.8-10.4c-6.6-7-11.7-15.1-17-23
	c-0.5-0.8-1-1.5-1.5-2.2c-0.7,0.1-1.3,0.2-1.8,0.3c-2.7,0.4-5.3,0.9-8,1.1c-2.5,0.3-4.3-0.9-5.2-3.3c-0.8-2.1-1.5-4.2-2.3-6.3
	c-1.3-3.4-2.6-6.9-3.9-10.4c-2.3,0.4-4.4,0.8-6.4,1.2c-2.6,0.5-3.5,0-4.3-2.5C367.2,434.8,366.9,433.8,366.7,432.9z M277.3,101.4
	c0.2,0,0.4,0,0.5,0c0.2,1.3,0.6,2.5,0.7,3.8c0.3,5.4,2,10.2,5.3,14.6c0.1,0.2,0.3,0.4,0.4,0.6c0.2,0.6,0.4,1.3,0.4,1.9
	c-0.5,5.4-1,10.9-1.5,16.3c-0.2,2.2-0.5,4.5-1,6.6c-0.8,3.4-2.8,6.1-5.4,8.4c-4,3.4-8.6,5.7-13.1,8.2c-0.5,0.3-0.9,0.6-1.4,0.8
	c3.2,2.3,6.2,4.5,9.2,6.8c0.8,0.6,1.6,0.7,2.6,0.7c3.8-0.2,7.7-0.3,11.5-0.3c3.1,0,6.2,0.2,9.1,1.3c1,0.4,2.1,0.7,3.1,2
	c-4.3-0.6-8.1-1.4-12-1.6c-3.9-0.2-7.9-0.7-12.2-0.4c4.1,4.3,8,8.3,11.9,12.2c3.8,3.9,7.2,8,10,12.7c1.9,3.3,3.9,6.7,3.5,10.8
	c0,0.1,0.1,0.1,0.1,0.2c0.1,0,0.2,0.1,0.2,0.1c0.2,0,0.4-0.1,0.6-0.2c3.9-1.8,8-3.2,12.4-2.8c0.5,0.1,1.1-0.3,1.8-0.4
	c-0.5-6.1-0.5-12,0.7-17.9c1.2-6.1,4.6-11,8.4-16.3c-6.5,1.2-12.5,2.2-18.5,3.3c1.7-1.7,3.7-2.2,5.8-2.6c4.3-0.9,8.6-1.6,12.9-2.4
	c0.7-0.1,1.4-0.5,1.9-1c3.4-3.4,6.8-6.9,10.1-10.4c0.3-0.4,0.6-0.8,1.1-1.3c-1.9-0.9-3.5-1.7-5.2-2.5c-4-1.9-7.9-4.1-11.4-6.9
	c-2.5-2.1-3.9-4.7-4.5-7.8c-0.1-0.7-0.3-1.4-0.5-2.4c-0.5,0.4-0.7,0.6-0.9,0.8c-2.5,2.9-5.8,4.2-9.6,4.5c-1.8,0.1-3.4-0.3-4.7-1.6
	c-1.6-1.7-3-3.5-4.4-5.3c-0.9-1.3-0.1-2.6,1.6-2.6c0.8,0,1.5,0,2.3,0.1c4.2,0.5,7.3-1.3,9.9-4.3c1.8-2.1,3.7-4.2,5.5-6.2
	c1.7-1.9,2.8-4.2,3.4-6.7c1-4.6,1.1-9.2,1.1-13.8c0-0.8-0.3-1.7-0.5-2.5c-0.8-3.8-1.6-7.5-2.4-11.3c-0.1-0.3-0.3-0.6-0.5-1.3
	c-0.6,0.9-1.2,1.4-1.4,2.1c-0.4,1.2-1.2,1.5-2.3,1.5c-1.3,0-2-0.6-2.3-1.9c0-0.2-0.3-0.3-0.5-0.6c-0.6,0.3-1.1,0.6-1.9,1
	c-0.1-1.3,0.7-1.9,1.5-2.3c1-0.4,2-0.7,3.1-0.9c1.3-0.3,2.6-0.4,4-0.6c0-1-0.1-2-0.1-3.3c-3.4,1-6.5,1.8-9.6,2.7
	c2.5-3,6.1-3.6,9.6-4.8c-0.2-2.5-0.2-4.9-0.4-7.2c-0.4-4.6-2.1-8.6-5.7-11.8c-3.4-3-5-3.1-8,0.4c-0.8,1-1.5,2.2-2,3.3
	c-0.5,1-0.8,2.2-1,3.3c-1.1,5.3-2.6,10.5-5.1,15.3c-0.1,0.1,0,0.3,0,0.4c0.6,0.9,2.3,1.2,1.8,2.9c-3.6-0.8-3.6-0.8-4.3,1.4
	c0.6,0.4,1.2,0.8,2,1.3c-0.3,0.2-0.5,0.3-0.7,0.4c-2.4,1.3-4.8,2.2-6.5,4.7c-3,4.4-7.2,7.3-12.4,8.8c-0.3,0.1-0.7,0.3-1,0.4
	c1.4,1.7,1.5,1.8,4.8,1.2C277.3,102.4,277.3,101.9,277.3,101.4z M203.5,215.5c-0.1,0-0.2-0.1-0.3-0.1c-0.4,0.7-0.8,1.3-1.2,2
	c-8.8,15.1-16.4,30.9-22.6,47.3c-9.7,25.8-22.2,50.3-36.1,74.1c-7.6,13-15.5,25.7-23.3,38.6c-2.5,4.1-4.6,8.4-6,13
	c-2.4,7.8-2.3,15.3,1.6,22.6c1.4,2.6,2.7,5.3,4.3,7.8c3.2,4.9,4.9,10.2,5,16.1c0,2.1,0.8,3.9,2.4,5.3c1.9,1.7,3.8,3.4,5.9,4.8
	c5.1,3.7,10.4,7.2,15.5,10.9c3.6,2.6,7,5.3,10.4,8c4.1,3.2,8.7,4.4,13.7,3.3c2.5-0.5,5-1.6,7.5-2.4c0.5-0.2,1-0.6,1.5-0.8
	c-0.6-0.2-1-0.1-1.4,0c-4,1-7.9,0.9-11.8-0.8c-6.3-2.8-11.5-6.8-15.3-12.6c-4.3-6.6-8.2-13.4-13.1-19.6c-3.7-4.6-7.4-9.3-12.5-12.5
	c-0.5-0.3-1-0.5-1.6-0.9c-0.4,1.8-0.7,3.3-1,4.8c-0.2,0-0.3,0-0.5,0c0-1.6-0.1-3.3,0-4.9c0.2-1.4,1.3-1.8,2.6-1.2
	c0.5,0.2,0.9,0.6,1.3,0.9c4.4,3,8.2,6.7,11.6,10.9c3,3.7,5.7,7.6,8.5,11.6c2.6,3.7,4.9,7.5,7.5,11.1c3.6,5.1,8.5,8.6,14.3,10.9
	c2.9,1.1,5.9,1.6,9.1,0.9c1.3-0.3,2.7-0.6,4.1-0.5c1.7,0.1,3.4-0.1,4.9-0.8c3.7-1.6,7.5-2.9,11.4-3.5c2.2-0.4,2.9-2.3,4.1-3.7
	c0.1-0.2,0.1-0.6,0-0.9c-0.9-2.4-1.8-4.8-2.7-7.4c-1.3,1.2-2.4,2.2-3.7,3.1c-5,3.7-10.8,5.9-16.5,8.1c-2.6,1-4.8,0.5-6.8-1.4
	c-0.6-0.6-1.3-1.1-1.9-1.7c-5.5-5-11.1-10-16.5-15.1c-2.7-2.5-5.1-5.3-7.6-8c-0.7-0.8-1.4-1.8-2.3-2.3c-1.9-1.1-2.7-2.9-3.4-4.8
	c-3.5-9.7-5.9-19.6-7.2-29.8c-0.6-5.1-0.4-10.2,1.6-15c3.5-8.2,7.2-16.4,10.9-24.5c2.9-6.2,6.1-12.3,9-18.5c3.1-6.6,6-13.4,8.9-20.1
	c5.5-12.6,11.1-25.3,16.4-38c4.8-11.4,8.9-23.1,12.5-35c2.9-9.4,5.8-18.9,8.6-28.3C203.4,216,203.4,215.7,203.5,215.5z M428.3,426.3
	c2.1-1.8,3.3-4,3.6-6.6c0.5-4.4,1.1-8.7,1.4-13.1c0.4-6.3-0.5-12.4-1.3-18.6c-1.3-9.7-3-19.3-5.4-28.8c-5-19.8-9.9-39.6-14.7-59.4
	c-2.2-9.1-3.7-18.3-6-27.3c-3.2-12.6-6.4-25.2-8.4-38.1c-1.5-9.4-3.6-18.6-6.3-27.7c-0.3-0.9-0.6-1.7-0.9-2.5
	c-0.4,1.6-0.5,3.2-0.6,4.8c-0.6,8.5-1.2,17-1.8,25.6c-0.4,5.9-0.7,11.8-1.2,17.7c-0.3,3-0.2,6,0.5,9c0.3,1.2,0.6,2.4,0.8,3.6
	c1.6,10.1,2.3,20.2,2.8,30.4c0.1,2.5,0,5,0.5,7.4c1.6,8.6,2.8,17.2,5.1,25.6c4,14.8,6.9,29.7,8.8,44.8c1.1,9.2,3.6,18.1,7.2,26.7
	c1.8,4.2,4.1,8.1,7.5,11.2c0.7,0.6,1.2,1.4,1.9,2c3.2,3.4,5,7.5,6,12C428,425.4,428.2,425.8,428.3,426.3z M206.5,460.9
	c-3.8,4.4-7.5,8.7-11.1,12.9c-5,5.9-10.9,10.9-17.4,15.1c-2.7,1.7-5.5,3.1-8.6,3.9c-1.4,0.3-2.8,0.5-4.5,0.8
	c1.7,1.8,3.2,3.3,4.8,4.9c3.6,3.8,7.6,7,12.1,9.5c2.5,1.4,5,2.8,7.4,4.2c5.5,3.2,10.6,6.9,14.6,11.9c2.8,3.5,5.6,6.9,8.4,10.4
	c3.1,3.8,5.8,7.8,9.7,10.8c2.8,2.1,5.8,4.1,8.7,6.1c0.4,0.3,0.9,0.5,1.4,0.7c0.1-0.4,0.2-0.6,0.2-0.8c3.1-13,4.3-26.3,5-39.6
	c0.9-15.7-0.7-31.2-3.5-46.7c-1.2-6.6-2.2-13.2-2.3-19.9c-0.1-6.9,0.2-13.9,0.2-20.8c0-0.7,0-1.5,0-2.2c-1,3.3-1.7,6.7-1.8,10.1
	c-0.1,3.7-0.2,7.4-0.3,11.1c0,3.3,0,6.6,0,9.9c0,2.3,0.2,4.6,0.2,6.9c0,0.7-0.2,1.5-0.5,2.2c-0.7,1.6-1.9,1.8-3.1,0.6
	c-0.7-0.7-1.2-1.6-1.7-2.5c-2-3.6-3-7.5-4-11.5c-0.1,3.5,0.1,7.1,0.2,10.6c0,1.6,0.6,2.5,2,3.3c3.1,1.8,5.5,4.3,7.2,7.4
	c0.4,0.8,0.8,1.7,1,2.6c0.4,1.7-1.2,4.9-2.8,5.6c-0.4,0.2-1.1,0.1-1.5-0.1c-0.9-0.5-1.8-1.2-2.5-1.9c-0.8-0.9-1.5-1.9-2.3-2.9
	c-1.1-1.5-2.5-2.4-4.3-3c-2.9,13.9-7.4,27.1-12,40.4c-0.2-0.6-0.3-1.1-0.2-1.6c0.8-3.6,1.3-7.3,2.4-10.8c2-6.8,4.3-13.5,6.4-20.3
	c0.8-2.6,1.2-5.3,1.9-8C211.3,468.4,208.8,464.8,206.5,460.9z M227.6,462.4c1.2-1.8,1.4-3.2,1.1-4.9c-0.7-4.9-1.1-9.8-0.4-14.7
	c0.6-3.9,0.5-7.8,0.1-11.8c-0.3-3-1.2-5.8-3.2-8.3c-3.1-4-5-8.5-5.1-13.6c-0.1-3.1,0.2-6.2,0.5-9.2c0.9-8.5,1.6-17,3.6-25.4
	c1.8-7.4,2.4-14.9,1.9-22.5c-0.2-2.4-0.3-4.8-0.4-7.2c-0.3-9.3,0.2-18.6,1-27.9c0.4-4.3,1-8.6,1.8-12.8c0.3-1.9,0.6-3.8,0.1-5.7
	c-0.4-1.6-0.8-3.1-1.3-4.7c-1.5-4.3-3-8.6-4.5-12.9c-0.2-0.5-0.4-1-0.7-1.7c-1.1,2-1.2,3.9-1.7,5.7c-3.2,12-5.4,24.2-6.7,36.5
	c-1.3,11.6-3,23.2-4.5,34.8c-1.5,11.1-3,22.3-4.3,33.5c-1,8-1.9,16.1-2.6,24.1c-0.6,6.9-1,13.8-1.4,20.7c-0.1,1.7,0,3.4,0.9,4.3
	c0,1.7-0.2,3,0,4.2c0.7,3,1.6,6,2.4,8.9c0.1,0.3,0.2,0.6,0.3,0.9c1,1.7,2.1,3.4,3.1,5.1c0.7,1,1.3,2.1,2,3.1c0-2.3-1.5-4.1-1.2-6.4
	c1.1,1.9,2.1,3.9,3.1,5.9c1,2,2.1,4,4.1,5.3c-1.2-2.7-2.4-5.3-3.3-7.9c-0.9-2.7-2.5-5.3-2.6-8.3c1.4,2.7,2.9,5.4,3.9,8.3
	c2.5,6.9,7.7,12,12,17.7c0.5,0.6,1.1,1.3,2.2,1c-0.1-0.4,0-0.7-0.2-0.9c-1.7-3.8-3.7-7.4-6.5-10.6c-0.9-1.1-1.7-2.2-1.8-3.7
	c-0.6-5.9-0.5-11.8,0.6-17.7c0.1-0.5,0.4-1,0.7-1.5c0.2,0,0.4,0,0.6,0.1c0.2,1.1,0.5,2.2,0.6,3.3c0.8,4.7,1.7,9.4,3.9,13.7
	C226.3,460.3,226.9,461.2,227.6,462.4z M284.4,307.1c0.9,0.4,1.7,0.9,2.5,1.2c8.6,3.5,15.9,9,22.9,14.9c3.4,2.8,3.3,3,6.8,0.2
	c0.3-0.2,0.6-0.5,0.9-0.7c3.4-3.1,6.9-6.1,10.2-9.4c2.4-2.4,4.3-5.2,6.5-7.8c0.9-1.1,1-2.2,0.5-3.6c-5.8-16.3-10-33.1-14.4-49.9
	c-0.9-3.4-1.6-6.9-2.3-10.4c-0.6-3.1-1-6.3-1.6-9.6c-5.6,2.9-11.4,1.3-17.2,1.3c-0.2,0.4-0.4,0.9-0.6,1.4c-1.9,6.2-3,12.6-4.1,18.9
	c-2.9,15.9-5.9,31.8-8.8,47.7C285.4,303.3,284.9,305.1,284.4,307.1z M391.1,311.6c-0.1-0.1-0.1-0.1-0.2-0.2
	c-0.1,0.4-0.1,0.7-0.2,1.1c-0.3,6.7-0.7,13.4-0.8,20.1c-0.1,12.3-0.1,24.7-0.1,37c0,7.3,0.4,14.5,1.9,21.6
	c1.1,5.5,1.8,11.2,4.3,16.5c2,4.2,4.5,8.1,7.8,11.3c3.7,3.7,6.2,8,7.4,13.1c0.5,2.1,1.1,4.2,1.8,6.2c0.5,1.4,1.3,2.7,2,4
	c1.7-0.2,2.3-1.2,2.4-2.4c0.1-1.6,0.2-3.3-0.1-4.8c-0.6-3.2-1.5-6.3-2.1-9.5c-0.6-3-0.9-6.1-1.3-9.1c-0.1-0.7,0.2-1.5,0.3-2.3
	c0.9,4.4,1.8,8.6,3.2,13.2c1.1-1.7,0.7-3.6,2.1-4.6c-0.6,5-0.6,10,0.1,14.9c0.5,3.2-0.8,5.4-3.9,6.4c-0.1,0-0.2,0.2-0.5,0.4
	c-0.3,3.1-1.4,6.3,0.6,9.9c0.8-1.1,1.3-1.7,1.7-2.5c0.6-1.1,1-2.3,1.6-3.4c2.1-3.8,4.2-7.5,6.3-11.3c0.6-1.1,1.4-2.4,1.5-3.6
	c0.1-3.5-0.3-7.1-1.2-10.5c-1.3-4.8-4.3-8.5-7.7-11.9c-3-3-5.3-6.4-7-10.3c-3.9-8.8-6.5-17.9-7.7-27.5c-0.9-6.9-1.7-13.8-3.1-20.6
	c-1.6-8-3.6-15.9-5.4-23.9C393.5,323.4,392.3,317.5,391.1,311.6z M367.5,378.2c0.1,2.3,0.3,4.3,0.4,6.4c0.6,11.2,0.5,22.5-0.5,33.7
	c-0.4,4.5-0.9,9,0.9,13.4c0.4,0.9,0.6,1.9,1,2.8c0.2,0.6,0.5,1.1,0.8,1.7c12.7-2.1,25.2-4.7,37.7-8.5c-0.8-1.3-1.2-2.4-2-3.3
	c-2.6-3.3-5.2-6.5-7.8-9.7c-0.3,0.8-0.4,2.1-0.7,2.1c-1.1,0.1-1.2,1.1-1.6,1.7c-2.4,3.7-8.1,4.5-11.3,1.5c-1.1-1-2-2.2-2.8-3.4
	c-3.6-5.3-6.1-11.2-7.6-17.5c-1.5-6-2.9-12-4.3-18C369.2,379.9,368.6,379,367.5,378.2z M412,442.1c-1.3-4.3-2.5-8.2-3.6-12
	c-9.7,2.3-19.1,4.6-28.6,6.9c1.1,2.6,2.2,5.1,3.2,7.7c1.1,2.6,2.2,5.3,3.2,7.9c0.6,1.7,1.9,2.4,3.6,2.3c1.4-0.1,2.8-0.3,4.1-0.6
	c1.7-0.3,3.4-0.9,5.1-1.2c4-0.6,8-1.2,12.4-1.8c-3.2-1.2-3.6-2.4-2.3-5c0.4-0.7,0.8-1.3,1.3-1.9C410.9,443.6,411.5,442.8,412,442.1z
	 M314.5,205.7c-4.6,0.3-9.1,0.9-13.3,2.7c-0.5,0.2-1,0.5-1.5,0.7c-1.9,0.9-2.9,2.5-2.9,4.6c0,2.8,0,5.5,0.3,8.3
	c0.3,2.4,1,4.8,1.6,7.2c0.4,1.5,1.3,2.3,3,2.4c3.2,0,6.5,0.2,9.7,0.1c1.1,0,2.2-0.5,3.3-1c1-0.5,1.3-1.4,1-2.5
	c-0.7-2.1-1.2-4.3-1.9-6.4c-0.9-2.8-0.7-5.6,0-8.4c0.3-1,0.7-2,1-3.1C315.2,208.7,315.5,207.3,314.5,205.7z M373.1,384.9
	c1.4,7.7,2.6,15.3,5.8,22.4c1.6,3.6,3.4,7.1,5.8,10.2c2.3,2.9,6.3,3.2,9,0.8c1.9-1.7,2.3-3.4,1.3-5.7c-0.3-0.7-0.7-1.4-1.1-2
	c-5.1-8.3-11-16-18-22.8C374.9,386.9,374,385.9,373.1,384.9z M271,67.6c-0.7,1.1-1.1,2.6-2,3.2c-0.9,0.5-2.4-0.1-3.9-0.2
	c-2.5,2.9-5.1,5.9-8.9,7.7c1,1.2,1.9,0.5,2.8,0.3c1.2-0.3,2.4-1,3.5-0.1c1.3,1,2.3,0.4,3.3-0.3C269.5,75.5,271.1,71.9,271,67.6z
	 M317,67.4c0.7,8.4,0,17,1.9,25.6C320.6,88.1,319.5,72.4,317,67.4z M332.8,88.3c0.2,0,0.4,0,0.6,0c0.5-1.1,0.8-2.3,1.5-3.3
	c0.7-1,0.7-1.8,0.3-2.8c-0.5-1.5-1.4-2.8-2.4-4c-0.2,0.1-0.3,0.1-0.5,0.2C332.5,81.6,332.7,84.9,332.8,88.3z M272.8,77.1
	c1.3,0.1,2.3-0.1,3.2,0.2c0.8,0.3,1.5,1,2.4,1.6c0-1.7,0-3.5,0-5.2c-1.7,0.3-3.3,0.6-4.9,0.8C273.3,75.3,273.1,76,272.8,77.1z
	 M412.9,449c0.5-1.9,0.9-3.6,1.4-5.4c-0.5-0.2-0.9-0.5-1.5-0.8c-1.5,1.9-2.4,3.8-3.1,6.2C411,449,411.9,449,412.9,449z M249.1,68
	c0.6,0.3,1.2,0.9,1.7,0.8c2.4-0.2,5.1-3,5.5-5.3C254.2,64.9,251.8,66.3,249.1,68z M229,474.8c0.6-0.2,1.2-0.5,0.6-1.5
	c-0.8-1.5-1.6-3-2.5-4.4c-0.8-1.1-1.5-2.4-3-3.2C225.8,468.9,227.4,471.8,229,474.8z M252.4,81.3c-4,0.4-8,0.8-12.3,1.3
	C244.6,83.9,248.5,83,252.4,81.3z M283,83.1c3.1-1.6,4.8-4.2,4.5-6.9C286.1,78.4,284.5,80.7,283,83.1z M258.9,72.4
	c2.5,0.4,3,0,4.6-3.3C261.9,70.2,260.6,71.2,258.9,72.4z M250.9,106.1c-3.6,2.4-3.7,2.5-3.7,4.1
	C248.9,109.2,249.7,107.5,250.9,106.1z M213.6,467.3c0.1-0.1,0.3-0.2,0.4-0.3c-1.1-1.4-2.3-2.7-3.4-4.1c-0.1,0.1-0.3,0.2-0.4,0.4
	C211.4,464.6,212.5,465.9,213.6,467.3z M295.2,61c0.8-1,1.6-2,2.4-3C296,58.4,295.3,59.4,295.2,61z"/>
<path class="st0" d="M424.7,766.1c-2.6,1.8-5.4,1.7-8.2,1.8c-3.3,0.1-6.6,0.2-9.9,0.1c-11.4-0.1-22.6,1.5-33.7,3.5
	c-11.8,2-23.7,3.9-35.6,5.8c-6.2,1-12.3,2-18.5,3c-5.5,0.8-11.1,0.7-16.6,0.1c-1-0.1-2-0.2-3.2-0.3c-0.2-1.9-0.4-3.9-0.6-5.8
	c-0.8-8.2-1.7-16.4-2.5-24.6c-1.4-13.5-1.8-27.1-1.3-40.6c0.4-11.6,1.3-23.2,2.2-34.8c1-12,2.2-23.9,3.4-35.9
	c1.1-11.4,2.4-22.8,3.5-34.3c0.6-5.9,1-11.8,1.5-17.7c0.7-8.4,1.4-16.9,1.8-25.4c0.6-10.4,1.1-20.8,1.3-31.2
	c0.2-7.8-0.2-15.6-0.3-23.3c0-1.1-0.3-2.2-0.8-3.4c0,0.9-0.1,1.7-0.1,2.6c0.5,12.3-0.2,24.7-0.8,37c-0.7,13.5-1.4,27.1-2.5,40.6
	c-1.2,15-2.9,29.9-4.3,44.9c-1.4,14.4-2.9,28.8-4.4,43.2c-1.3,12.8-2.3,25.6-2.6,38.5c-0.4,15.8,0.4,31.6,2.1,47.3
	c0.9,8.4,1.6,16.9,2.4,25.3c0.1,0.9,1,2.1-0.2,2.8c-1,0.6-2.2,1.2-3.4,1.2c-2.4,0-4.9-0.5-7.3-0.8c-5.7-0.6-11.3-1.2-17-1.8
	c-11.3-1.2-22.6-2-33.7-4.1c-1-0.2-2-0.3-3-0.3c-1,0-2,0.1-3.3,0.2c-0.2-1.8-0.5-3.6-0.5-5.4c-0.1-5.6-0.2-11.3-0.1-16.9
	c0.2-13.9,0.3-27.7,0.7-41.6c0.3-10.6,0.8-21.3,1.2-31.9c0.5-14.2,1.1-28.5,1.6-42.7c0.2-5.9,0.5-11.7,0.6-17.6
	c0.1-2.3,0-4.6-0.3-6.9c-0.2,1.6-0.4,3.2-0.5,4.8c-0.8,15.1-1.6,30.2-2.3,45.2c-0.6,13.9-1.2,27.7-1.7,41.6
	c-0.2,6.5-0.3,12.9-0.4,19.4c-0.2,10.8-0.4,21.6-0.4,32.4c0,5.4,0.1,10.8,0.4,16.2c0.2,3.4,1,6.7,1.6,10c0,0.3,0.1,0.6,0.1,1.2
	c-3,0.6-6,0.3-8.9,0.4c-3,0.1-5.9,0.8-9,0c0-1.1-0.1-2.2,0-3.3c1.3-18.2,2.8-36.4,4-54.6c0.7-10.2,1-20.5,1.6-30.7
	c0.5-9.9,1.1-19.9,1.6-29.8c0.3-6.1,0.5-12.2,1-18.2c0.8-9.2,1.8-18.4,3-27.6c1.4-10.4,2.8-20.8,4.6-31.1
	c2.6-15.3,5.5-30.5,8.5-45.7c1.8-9,3-18.1,3.5-27.3c0.3-5.1,0.9-10.2,0.8-15.2c0-13.6-1.3-27.1-3.8-40.4c-1.7-9-2.5-18.2-2.5-27.3
	c0-7,0.3-14,0.5-21c0.2-5.6,2.5-10.5,5.3-15.1c2.8-4.6,5.8-9.1,8.9-13.5c8.6-12.2,16.3-24.9,22.7-38.3c5.6-11.7,9-24.1,12.4-36.5
	c0.3-1.1,0.6-2.2,1-3.7c3.7,2.1,7.3,3.8,10.6,6.1c5.5,3.7,11.1,7.2,15.8,12c1.5,1.5,2.7,1.6,4.6,0.5c1.4-0.8,2.8-1.7,4-2.8
	c5.7-5,11.6-10,16.1-16.2c0.3-0.4,0.6-0.7,0.9-1.1c0.2,0.2,0.5,0.2,0.6,0.4c3,9.2,6.5,18.3,8.8,27.7c2.7,11.3,7.4,21.5,13.7,31.1
	c1.7,2.6,3.5,5,5.4,7.5c0.6,0.9,1.1,1.8,1.2,2.9c1,8.5,1,17.1,0.5,25.6c-0.7,13.6-1.7,27.2-2.7,40.8c-0.4,5.4-1.4,10.9-1.9,16.3
	c-1.6,16-2.6,32.1-1.2,48.2c0.8,9.7,3,19.2,5.3,28.6c4.4,18.4,9.6,36.5,14.9,54.6c5.8,20,10.8,40.3,15.3,60.7
	c2.4,10.7,4.6,21.4,7,32c3.2,13.9,6.2,27.8,9.8,41.6c2.5,9.6,6,18.9,8.9,28.4c1.1,3.6,2,7.3,3,10.9
	C424.6,765.1,424.6,765.5,424.7,766.1z"/>
<path class="st0" d="M295.6,211.1c-0.2,1.6-0.5,3-0.7,4.7c-2.7,1-5.5,1.9-8.3,3c-5.9,2.3-11.9,4.4-17.6,6.9
	c-9.7,4.3-16.5,11.7-20.9,21.3c-1.6,3.5-2.2,7.2-2.4,11c0,0.4,0,0.8,0,1.2c0.2,1.4,1.3,1.8,2.3,0.9c0.8-0.7,1.6-1.5,2.1-2.4
	c4.5-7,10.8-12.2,16.9-17.7c1-0.9,1.9-1.7,3.1-2.8c-2.3,0.7-6.9,4.2-12.1,8.6c-3.7,3.2-7,6.6-10,10.8c0-0.5-0.2-0.9-0.1-1.4
	c0.3-2.9,1.1-5.8,2.4-8.4c4-8.1,9.8-14.6,18-18.6c2.7-1.3,5.4-2.7,8.2-3.8c6-2.4,12-4.7,18.2-7c0.1,0.4,0.2,0.8,0.2,1.2
	c0.1,4.3,0.8,8.4,2.5,12.4c0.3,0.6,0.5,1.6,0.3,2.1c-2.4,5.6-3.5,11.5-4.6,17.4c-2.5,13.9-5.1,27.9-7.6,41.8
	c-2.9,16-7.3,31.7-12.9,46.9c-4.2,11.5-10.1,22.1-16.6,32.5c-4.8,7.6-9.8,15.1-15,22.5c-6.1,8.5-9.4,18.1-11.6,28.2
	c-0.2,0.8-0.3,1.5-0.5,2.3c0,0.1-0.1,0.3-0.3,0.7c-0.8-1.2-1.5-2.2-2.2-3.2c-3.8-5.2-5.5-11-4.8-17.4c1.1-10.3,2.2-20.7,4.5-30.9
	c0.3-1.4,0.6-2.9,1-4.3c2.1-7.9,1-15.9,0.7-23.9c-0.2-4.8-0.3-9.5-0.1-14.3c4.2,10.5,10.1,20,15.3,29.8c0.1-0.1,0.3-0.1,0.4-0.2
	c-0.5-1.1-0.9-2.3-1.4-3.4c-3.1-6.5-6.1-13-9.4-19.3c-3.9-7.5-5-15.5-4-23.8c0.4-3.7,1.1-7.3,1.8-10.9c2.3-11.7,4.7-23.4,6.4-35.2
	c0.4-2.7,1.1-5.4,1.6-8.2c0.4-2.3,0.8-4.7,1-7.1c-4.3,14-5.9,28.6-9.2,43.5c-0.4-1-0.7-1.6-0.9-2.1c-2-5.8-4-11.6-6-17.5
	c-0.8-2.6-1.7-5.2-2.1-7.9c-0.4-2.7-0.3-5.5-0.3-8.3c0.1-4.5,0.5-9.1,0.4-13.6c-0.1-6.6-0.5-13.2-0.8-19.9
	c-0.4-7.8-0.8-15.7-1.3-23.8c-0.2,2.2-0.6,4.1-0.6,6c0.2,8.9,0.6,17.7,0.8,26.6c0.1,6,0,12-0.1,18c-0.1,5.2-0.6,10.5,0.2,15.7
	c0.2,1.2,0.3,2.5,0.8,3.6c0.7,1.9,0.6,3.7,0,5.6c-2.7,9-5,18.1-6.4,27.4c-0.9,5.6-1.4,11.3-2.1,17c-1.4,11.4-2.9,22.8-4.4,34.2
	c-1.2,9.3-2.3,18.7-3.5,28c-0.1,0.7-0.2,1.5-0.7,2.3c-0.1-0.4-0.2-0.7-0.2-1.1c-0.9-12-1.8-24-2.6-36c-0.5-7.5-1.1-14.9-1.2-22.4
	c-0.2-11.8,0-23.6,0-35.4c0-0.6,0-1.2-0.3-1.9c-0.2,1.6-0.5,3.2-0.6,4.8c-0.6,11.3-1.3,22.6-0.8,34c0.5,12.3,1.2,24.6,2.5,36.9
	c0.5,4.9,0.7,9.8,1.1,14.8c0.3,4,0.5,8,1,12c0.4,3.8,0.2,7.5-0.2,11.3c-0.8,7.3-1.5,14.6-2.1,21.9c-0.2,2.9-0.1,5.9-0.2,8.8
	c0,0.4-0.1,0.7-0.1,1.3c-11.3-5.7-22.8-9.8-35.2-11c-4.6-0.5-9.2-0.7-14.1-1c0.7,1.2,1.6,1.1,2.4,1.2c3,0.4,5.9,0.9,8.9,1.2
	c9.5,0.8,18.6,3.5,27.4,7.1c3,1.2,5.9,2.6,8.8,4c1.6,0.7,2.5,1.9,2.6,3.8c0.1,1.6,0.5,3.2,0.8,4.9c-0.6,0.4-1.1,0.8-1.7,1.1
	c-5.3,2.6-10.6,5.2-16,7.8c-0.3,0.2-0.7,0.3-1.1,0.4c-3,1.5-5.4,1.1-7.9-1.3c-6.9-6.4-13.9-12.6-20.9-18.9c-2.4-2.2-4.9-4.4-7.2-6.9
	c-1.1-1.2-1.9-2.8-2.4-4.4c-1.7-5.4-3.4-10.7-4.6-16.2c-1.2-5-1.9-10.1-2.5-15.2c-0.6-4.7,0.3-9.4,2.3-13.7
	c4.6-9.9,9.1-19.9,13.7-29.8c2-4.3,4.1-8.6,6.1-13c8-18,16.2-36,24-54.1c7.7-18,13.8-36.6,19.3-55.4c2-6.7,4.4-13.3,6.8-19.9
	c1.7-4.8,3.6-9.5,5.5-14.2c0.8-2,1.7-4,2.8-5.8c0.7-1.3,1.7-2.6,2.8-3.6c5.1-5,10.8-9.2,17.4-12.1c3.4-1.5,6.7-3.2,10-4.7
	c2.2-1,4.4-1.7,6.7-2.6c2.6-1,5.1-0.6,7.5,0.8c4.8,2.8,9.1,6.1,13,10c4.5,4.6,8.9,9.4,13.3,14.1c3.2,3.5,5.6,7.5,7.9,11.6
	c1.2,2.2,1.8,4.6,1.7,7.1c-0.1,1.7-0.9,2.5-2.5,1.7c-2.9-1.4-5.8-2.9-8.4-4.7c-4.8-3.2-8.9-7.3-13-11.4c-2.6-2.6-5.3-5.1-7.7-7.3
	c0.8,2.2,7.5,10.6,12.6,14.9C283.4,205.2,288.7,209.3,295.6,211.1z M243.6,284.1c2.8-4.9,5.3-9.8,8.3-14.6c3-4.7,6.2-9.4,9.6-13.8
	c3.4-4.4,7.3-8.4,10.5-13C259.5,254.4,248.9,267.4,243.6,284.1z M235.4,218c14.7-2.8,29.6-4,44.7-4.2
	C264.8,212.1,250,214.1,235.4,218z"/>
<path class="st0" d="M316.6,211.7c2.2,1,4.4,1.7,6.4,2.9c8.5,5.1,16.8,10.3,24.5,16.6c6.8,5.6,12.4,12.4,16.7,20.2
	c1.5,2.8,3.1,5.5,4.9,8.1c0.9,1.4,2.3,2.5,3.6,3.5c1.5,1.1,3.3,1.2,5.1,0.7c2.4-0.7,3.4-2.5,2.5-4.8c-0.5-1.3-1.2-2.5-1.9-3.7
	c-1.7-2.7-3.6-5.4-5.4-8.1c-0.3-0.4-0.6-0.9-0.9-1.3c-0.2,0.1-0.4,0.3-0.6,0.4c0.4,0.7,0.8,1.5,1.2,2.2c1.8,3.3,3.5,6.7,5.2,10
	c0.4,0.8,1,1.8,0.3,2.6c-0.8,0.9-1.9,0.9-3,0.7c-1.7-0.4-3.1-1.4-4.1-2.8c-1.5-2.2-3-4.5-4.3-6.8c-4.4-8.3-10.3-15.4-17.3-21.5
	c-3.8-3.3-8.1-6.1-12.3-8.9c-4.3-2.9-8.7-5.6-13.2-8.1c-2.2-1.2-4.6-2-7.1-3c0.1-0.8,0.3-1.7,0.4-2.8c6.6-0.7,13.1-1.6,19.7-2.1
	c6.6-0.6,13.2-0.1,19.8,0.9c6.3,0.9,12.7,1.8,19.1,1.7c3.9-0.1,7.4-1.3,10.1-4.3c0.2-0.2,0.3-0.4,0.4-0.6c0-0.1,0-0.2,0-0.5
	c-0.5,0.2-1,0.4-1.4,0.6c-4,2-8.2,3-12.7,2.6c-6.3-0.6-12.6-1.1-18.9-1.7c-7-0.7-14-0.7-21,0.2c-0.3,0-0.5,0-0.9-0.2
	c7.9-4.1,13-11.4,19.9-16.5c-0.1-0.2-0.3-0.4-0.4-0.5c-1.5,1-3.1,1.8-4.6,2.9c-2.5,1.9-4.9,3.7-7.2,5.8c-5.9,5.4-14,10.2-22.4,10.4
	c-1-1.1-1.3-2.5-1.4-4c-0.3-6.7,0.1-13.3,2.2-19.6c0.8-2.5,2.1-4.8,3.5-7c4.1-6.3,9.1-11.8,14.3-17.2c2.6-2.6,5.5-3.4,9-3.1
	c6.4,0.5,12.1,3,17.8,5.6c3.4,1.6,6.7,3.4,10.2,5c4.4,2.1,7.5,5.3,9,10c0.8,2.6,1.5,5.2,2.2,7.8c1.2,4.1,2.2,8.3,3.6,12.4
	c1,2.9,1.5,5.8,1.2,8.8c-0.3,3.8-0.9,7.7-1.2,11.5c-0.5,7-1,14-1.3,21c-0.2,4.1-0.2,8.1-0.4,12.2c0,0.7-0.3,1.5-0.6,2.2
	c-3.4-9.8-5.4-19.9-6.4-30.2c-0.2,0-0.3,0-0.5,0c-0.1,0.9-0.2,1.7-0.2,2.6c0.3,7.9,1.6,15.6,3.7,23.2c1.5,5.1,2.8,10.3,3.9,15.5
	c0.8,4.1,1.3,8.2,1.7,12.3c0.7,6.9,1.3,13.8,1.8,20.7c0.3,4,0.2,8,0.1,12c-0.2,6.9-0.7,13.7-0.8,20.6c-0.2,14.1-0.3,28.2-0.3,42.3
	c0,8.7,0.9,17.4,3,25.9c0.7,2.7,1.8,5.3,2.6,7.9c0.3,0.9,0.5,1.9,0.4,2.9c-0.4-0.5-0.8-1.1-1.2-1.6c-4.3-6.5-9.1-12.6-14.7-18.1
	c-4.4-4.4-8.1-9.4-12-14.4c-4.4-5.6-8.2-11.5-11.7-17.7c-3.3-6-5.8-12.4-7.1-19.2c-1.3-7.2-3.8-14.1-6.2-21
	c-6.2-17.8-11.9-35.8-16.4-54.1c-1.4-5.5-3.1-11-4.3-16.5c-1.1-4.9-1.7-9.9-2.7-14.7c-0.6-3.2-1.6-6.3-2.4-9.4
	C314.9,217.7,315.3,214.8,316.6,211.7z M359,291.6c0.1,0,0.3,0,0.4-0.1c-1-3.3-1.9-6.6-3.1-9.9c-2-5.8-4-11.5-6.1-17.2
	c-4.3-11.6-9-22.9-16.2-33.1c-0.3-0.4-0.7-0.8-0.9-1.1c3.4,6.6,7.1,13.2,10.2,20.1c3.4,7.6,6.2,15.4,9.2,23.2
	C354.7,279.6,356.8,285.6,359,291.6z"/>
<path class="st0" d="M399.1,231.2c0.3,0.8,0.7,1.5,1,2.3c4.9,11.1,8.7,22.5,12.4,34.1c5.4,17.2,12.4,33.7,20.8,49.6
	c6.9,13.1,13.2,26.4,19.2,40c6.3,14.4,13.2,28.5,19.8,42.8c4.9,10.6,9.7,21.3,14.6,31.9c0.7,1.6,0.9,3.3,0.2,4.9
	c-1.1,2.8-2.1,5.6-3.3,8.4c-4.7,10.3-8.7,20.9-10.7,32.1c-0.2,1.1-0.5,2.1-0.9,3.1c-0.7,1.8-1.4,2.1-3.2,1.6
	c-0.4-0.1-0.7-0.3-1.1-0.4c-2.8-1-5.7-1.9-8.5-2.9c-1.5-0.5-2.9-1.3-4.4-1.8c-0.8-0.3-1.6-0.2-2.4-0.5c-10.5-3.2-21.2-5.4-31.9-7.5
	c-1.9-0.4-3.8-0.9-5.7-1.4c0-0.1,0.1-0.3,0.1-0.4c0.3,0,0.6,0,0.8,0c5.3,0.7,9.9-1.1,14-4.2c3.1-2.3,5.5-5.1,7.6-8.3
	c3.3-5,6.5-9.9,9.7-14.9c1.1-1.6,2.2-3.1,3.1-4.9c-0.6,0.6-1.3,1.1-1.9,1.7c-4.1,4.5-8,9.2-11.1,14.5c-2.3,3.9-4.9,7.5-8.6,10.2
	c-2.2,1.7-4.7,3-7.4,3.6c-4.4,0.9-8.6,0.4-12.2-2.6c-2.3-1.9-4.5-4.1-6.7-6.2c-0.2-0.2-0.3-0.5-0.6-0.9c3.8-0.8,7.5-1.5,11.3-2.3
	c0.2,0.4,0.4,0.8,0.5,1.2c0.7,2.2,3.5,1.9,4.5,0.5c0.4-0.6,0.9-1.3,1.1-2c1.7-5,4.7-9.2,7.3-13.6c0.3-0.5,0.6-1.1,1-1.6
	c1-1.6,1.5-3.2,1.2-5.1c-0.3-2.1,0.4-3.6,1.7-5.2c1.1-1.4,1.9-3.2,2.4-4.9c0.7-2.4,1.1-5,1.4-7.5c1.2-8.5,0.8-17-0.4-25.6
	c-1.5-10.7-3.2-21.3-5.9-31.8c-4.4-17.2-8.7-34.3-12.8-51.6c-2.3-9.7-4.1-19.6-6.3-29.4c-1.3-5.7-3-11.3-4.5-17
	C401.8,250.2,400.4,240.8,399.1,231.2z"/>
<path class="st0" d="M366.7,432.9c0.3,0.9,0.5,1.9,0.8,2.8c0.9,2.5,1.7,3,4.3,2.5c2-0.4,4.1-0.8,6.4-1.2c1.3,3.5,2.6,6.9,3.9,10.4
	c0.8,2.1,1.5,4.2,2.3,6.3c0.9,2.4,2.7,3.5,5.2,3.3c2.7-0.3,5.3-0.7,8-1.1c0.5-0.1,1.1-0.2,1.8-0.3c0.5,0.7,1,1.5,1.5,2.2
	c5.3,8,10.4,16.1,17,23c3.4,3.6,7.2,7,10.8,10.4c0.3,0.3,0.7,0.4,1.4,0.4c-3.7-4.3-7.4-8.5-11.1-12.8c-3.7-4.2-7.4-8.4-10.7-13.2
	c0.4,0,0.6-0.1,0.6,0c3.1,2.8,6.8,4,10.9,4.7c10.1,1.8,20,4.2,29.9,6.9c1,0.3,2,0.7,3,1c0.1,0.3,0.2,0.4,0.2,0.6
	c-2.3,7-4.6,14-6.8,21.1c-1.2,3.9-3.7,6.6-7.2,8.6c-11.3,6.3-22.3,13.1-34.2,18.2c-8.3,3.5-16.8,6.5-25.8,7.7
	c-3.7,0.5-7.5,0.9-11.4,0.6c-1-4.5-2-8.9-2.9-13.4c-2.4-12.2-3.3-24.6-2.6-37c0.4-6.3,0.5-12.6,1.1-18.9c0.5-6.1,1.4-12.2,2.1-18.4
	c0.5-4.3,0.8-8.6,1.1-12.9c0-0.5,0.1-1,0.2-1.5C366.5,432.9,366.6,432.9,366.7,432.9z"/>
<path class="st0" d="M277.3,101.4c0,0.5,0,1,0,1.5c-3.3,0.5-3.4,0.5-4.8-1.2c0.4-0.2,0.7-0.4,1-0.4c5.2-1.4,9.4-4.4,12.4-8.8
	c1.7-2.5,4.1-3.4,6.5-4.7c0.2-0.1,0.3-0.2,0.7-0.4c-0.8-0.5-1.4-0.9-2-1.3c0.7-2.2,0.7-2.2,4.3-1.4c0.5-1.6-1.1-2-1.8-2.9
	c0-0.1-0.1-0.3,0-0.4c2.6-4.8,4-10,5.1-15.3c0.2-1.1,0.5-2.3,1-3.3c0.5-1.2,1.2-2.4,2-3.3c3-3.4,4.7-3.4,8-0.4
	c3.5,3.2,5.3,7.1,5.7,11.8c0.2,2.4,0.3,4.7,0.4,7.2c-3.5,1.2-7.1,1.8-9.6,4.8c3.1-0.9,6.2-1.8,9.6-2.7c0.1,1.3,0.1,2.3,0.1,3.3
	c-1.5,0.2-2.8,0.3-4,0.6c-1,0.2-2.1,0.5-3.1,0.9c-0.8,0.4-1.6,0.9-1.5,2.3c0.7-0.4,1.3-0.7,1.9-1c0.2,0.2,0.5,0.4,0.5,0.6
	c0.3,1.2,1,1.9,2.3,1.9c1.1,0,1.9-0.3,2.3-1.5c0.2-0.7,0.8-1.2,1.4-2.1c0.3,0.6,0.5,0.9,0.5,1.3c0.8,3.8,1.6,7.5,2.4,11.3
	c0.2,0.8,0.5,1.7,0.5,2.5c0.1,4.6-0.1,9.2-1.1,13.8c-0.5,2.5-1.6,4.8-3.4,6.7c-1.9,2.1-3.7,4.1-5.5,6.2c-2.6,3.1-5.8,4.8-9.9,4.3
	c-0.8-0.1-1.5-0.1-2.3-0.1c-1.7,0.1-2.5,1.3-1.6,2.6c1.3,1.9,2.8,3.7,4.4,5.3c1.2,1.3,2.9,1.7,4.7,1.6c3.8-0.3,7-1.5,9.6-4.5
	c0.2-0.2,0.4-0.4,0.9-0.8c0.2,1,0.4,1.7,0.5,2.4c0.6,3.1,2,5.7,4.5,7.8c3.5,2.9,7.4,5,11.4,6.9c1.7,0.8,3.3,1.6,5.2,2.5
	c-0.4,0.5-0.7,0.9-1.1,1.3c-3.4,3.5-6.7,7-10.1,10.4c-0.5,0.5-1.2,0.9-1.9,1c-4.3,0.9-8.6,1.6-12.9,2.4c-2.1,0.4-4.2,0.9-5.8,2.6
	c6-1.1,11.9-2.1,18.5-3.3c-3.8,5.3-7.2,10.2-8.4,16.3c-1.2,5.9-1.2,11.8-0.7,17.9c-0.7,0.2-1.3,0.5-1.8,0.4
	c-4.5-0.5-8.5,0.9-12.4,2.8c-0.2,0.1-0.4,0.1-0.6,0.2c-0.1,0-0.1-0.1-0.2-0.1c0-0.1-0.1-0.1-0.1-0.2c0.4-4.1-1.5-7.5-3.5-10.8
	c-2.7-4.7-6.2-8.8-10-12.7c-3.9-3.9-7.7-7.9-11.9-12.2c4.3-0.4,8.3,0.1,12.2,0.4c3.9,0.2,7.7,1,12,1.6c-1-1.3-2.1-1.6-3.1-2
	c-2.9-1.1-6-1.3-9.1-1.3c-3.8,0-7.7,0.1-11.5,0.3c-1,0-1.8-0.1-2.6-0.7c-3-2.3-6.1-4.5-9.2-6.8c0.4-0.3,0.9-0.6,1.4-0.8
	c4.5-2.5,9.1-4.8,13.1-8.2c2.7-2.3,4.6-5,5.4-8.4c0.5-2.2,0.8-4.4,1-6.6c0.6-5.4,1.1-10.9,1.5-16.3c0.1-0.6-0.2-1.3-0.4-1.9
	c-0.1-0.2-0.2-0.4-0.4-0.6c-3.2-4.3-4.9-9.2-5.3-14.6c-0.1-1.3-0.4-2.5-0.7-3.8C277.6,101.4,277.4,101.4,277.3,101.4z M300.3,105
	c1.9,1.1,2.2,1.1,3.2-0.5C302.4,104.7,301.5,104.9,300.3,105z M294.7,114.9c1.1,0.8,2.1,0.3,3.2-0.2
	C296.8,114.7,295.7,114.8,294.7,114.9z M299.8,119.3c0,0.2,0,0.3,0.1,0.5c0.8-0.1,1.6,0.2,2.3-0.3c0-0.2,0-0.3-0.1-0.5
	C301.3,119,300.5,119.1,299.8,119.3z M305.6,114.7c0-0.1,0-0.2,0-0.3c-0.6,0-1.3,0-1.9,0c0,0,0,0.1,0,0.1
	C304.3,114.6,304.9,114.7,305.6,114.7z"/>
<path class="st0" d="M203.5,215.5c-0.1,0.3-0.1,0.6-0.2,0.9c-2.9,9.4-5.7,18.9-8.6,28.3c-3.6,11.9-7.7,23.6-12.5,35
	c-5.3,12.7-10.9,25.3-16.4,38c-2.9,6.7-5.8,13.4-8.9,20.1c-2.9,6.2-6.1,12.3-9,18.5c-3.8,8.1-7.4,16.3-10.9,24.5
	c-2.1,4.8-2.3,9.9-1.6,15c1.3,10.2,3.7,20.1,7.2,29.8c0.7,1.9,1.5,3.7,3.4,4.8c0.9,0.5,1.5,1.5,2.3,2.3c2.5,2.7,5,5.5,7.6,8
	c5.4,5.1,11,10.1,16.5,15.1c0.6,0.6,1.3,1.1,1.9,1.7c2,1.9,4.3,2.4,6.8,1.4c5.8-2.2,11.5-4.4,16.5-8.1c1.2-0.9,2.3-2,3.7-3.1
	c1,2.6,1.9,5,2.7,7.4c0.1,0.3,0.1,0.7,0,0.9c-1.2,1.4-1.9,3.4-4.1,3.7c-4,0.7-7.8,1.9-11.4,3.5c-1.6,0.7-3.2,0.9-4.9,0.8
	c-1.4-0.1-2.8,0.2-4.1,0.5c-3.1,0.7-6.1,0.3-9.1-0.9c-5.8-2.3-10.7-5.7-14.3-10.9c-2.6-3.7-4.9-7.5-7.5-11.1
	c-2.7-3.9-5.5-7.8-8.5-11.6c-3.3-4.2-7.1-7.9-11.6-10.9c-0.4-0.3-0.9-0.7-1.3-0.9c-1.3-0.7-2.4-0.2-2.6,1.2c-0.2,1.6,0,3.3,0,4.9
	c0.2,0,0.3,0,0.5,0c0.3-1.5,0.6-3.1,1-4.8c0.6,0.3,1.2,0.6,1.6,0.9c5.1,3.3,8.8,7.9,12.5,12.5c5,6.1,8.9,13,13.1,19.6
	c3.8,5.8,9,9.8,15.3,12.6c3.8,1.7,7.7,1.8,11.8,0.8c0.4-0.1,0.9-0.2,1.4,0c-0.5,0.3-0.9,0.7-1.5,0.8c-2.5,0.9-4.9,1.9-7.5,2.4
	c-5,1-9.6-0.2-13.7-3.3c-3.5-2.7-6.9-5.5-10.4-8c-5.1-3.7-10.4-7.2-15.5-10.9c-2.1-1.5-4-3.2-5.9-4.8c-1.6-1.4-2.4-3.2-2.4-5.3
	c-0.1-5.9-1.8-11.2-5-16.1c-1.6-2.5-2.9-5.2-4.3-7.8c-3.9-7.3-4-14.9-1.6-22.6c1.4-4.6,3.5-8.9,6-13c7.8-12.9,15.7-25.6,23.3-38.6
	c13.9-23.8,26.4-48.3,36.1-74.1c6.2-16.4,13.7-32.1,22.6-47.3c0.4-0.7,0.8-1.3,1.2-2C203.2,215.4,203.3,215.4,203.5,215.5z"/>
<path class="st0" d="M428.3,426.3c-0.2-0.5-0.3-0.9-0.4-1.3c-1-4.5-2.8-8.6-6-12c-0.6-0.7-1.2-1.4-1.9-2c-3.5-3.1-5.7-7-7.5-11.2
	c-3.7-8.6-6.1-17.4-7.2-26.7c-1.8-15.2-4.7-30.1-8.8-44.8c-2.3-8.4-3.5-17-5.1-25.6c-0.4-2.4-0.4-4.9-0.5-7.4
	c-0.5-10.2-1.2-20.3-2.8-30.4c-0.2-1.2-0.6-2.4-0.8-3.6c-0.7-3-0.7-5.9-0.5-9c0.5-5.9,0.8-11.8,1.2-17.7c0.6-8.5,1.2-17,1.8-25.6
	c0.1-1.6,0.1-3.1,0.6-4.8c0.3,0.8,0.6,1.7,0.9,2.5c2.7,9.1,4.8,18.3,6.3,27.7c2,12.9,5.2,25.5,8.4,38.1c2.3,9,3.8,18.2,6,27.3
	c4.8,19.8,9.7,39.6,14.7,59.4c2.4,9.5,4.1,19.1,5.4,28.8c0.8,6.2,1.7,12.4,1.3,18.6c-0.3,4.4-0.9,8.7-1.4,13.1
	C431.6,422.3,430.5,424.5,428.3,426.3z"/>
<path class="st0" d="M206.5,460.9c2.3,3.9,4.8,7.5,9.6,9.2c-0.6,2.7-1.1,5.4-1.9,8c-2.1,6.8-4.4,13.5-6.4,20.3
	c-1,3.5-1.6,7.2-2.4,10.8c-0.1,0.5,0,1,0.2,1.6c4.6-13.3,9.1-26.5,12-40.4c1.8,0.6,3.2,1.5,4.3,3c0.7,1,1.4,2,2.3,2.9
	c0.7,0.8,1.6,1.4,2.5,1.9c0.4,0.2,1.1,0.3,1.5,0.1c1.6-0.6,3.2-3.9,2.8-5.6c-0.2-0.9-0.6-1.8-1-2.6c-1.7-3.1-4.1-5.6-7.2-7.4
	c-1.4-0.8-2-1.7-2-3.3c0-3.5-0.2-7.1-0.2-10.6c1,4,2,7.9,4,11.5c0.5,0.9,1,1.8,1.7,2.5c1.2,1.2,2.4,1,3.1-0.6
	c0.3-0.7,0.5-1.5,0.5-2.2c0-2.3-0.2-4.6-0.2-6.9c0-3.3-0.1-6.6,0-9.9c0.1-3.7,0.2-7.4,0.3-11.1c0.1-3.5,0.7-6.8,1.8-10.1
	c0,0.7,0,1.5,0,2.2c-0.1,6.9-0.3,13.9-0.2,20.8c0.1,6.7,1.2,13.3,2.3,19.9c2.7,15.4,4.3,31,3.5,46.7c-0.7,13.3-1.9,26.6-5,39.6
	c-0.1,0.2-0.1,0.4-0.2,0.8c-0.5-0.3-1-0.4-1.4-0.7c-2.9-2-5.8-4-8.7-6.1c-3.9-3-6.7-7-9.7-10.8c-2.8-3.5-5.7-6.9-8.4-10.4
	c-4-5-9.1-8.7-14.6-11.9c-2.5-1.4-4.9-2.8-7.4-4.2c-4.5-2.5-8.6-5.7-12.1-9.5c-1.5-1.6-3.1-3.2-4.8-4.9c1.7-0.3,3.1-0.5,4.5-0.8
	c3.1-0.7,5.9-2.1,8.6-3.9c6.5-4.2,12.4-9.2,17.4-15.1C199,469.6,202.7,465.3,206.5,460.9z"/>
<path class="st0" d="M227.6,462.4c-0.8-1.2-1.4-2.1-1.8-3c-2.2-4.3-3.1-9-3.9-13.7c-0.2-1.1-0.4-2.2-0.6-3.3c-0.2,0-0.4,0-0.6-0.1
	c-0.2,0.5-0.6,1-0.7,1.5c-1.1,5.9-1.2,11.8-0.6,17.7c0.1,1.5,0.9,2.6,1.8,3.7c2.7,3.2,4.7,6.8,6.5,10.6c0.1,0.2,0.1,0.6,0.2,0.9
	c-1.1,0.3-1.8-0.4-2.2-1c-4.3-5.7-9.5-10.7-12-17.7c-1-2.9-2.5-5.6-3.9-8.3c0.1,3,1.7,5.6,2.6,8.3c0.9,2.7,2.2,5.2,3.3,7.9
	c-2-1.3-3.1-3.3-4.1-5.3c-1-2-2-4-3.1-5.9c-0.3,2.3,1.2,4.1,1.2,6.4c-0.7-1-1.3-2.1-2-3.1c-1.1-1.7-2.1-3.4-3.1-5.1
	c-0.2-0.3-0.2-0.6-0.3-0.9c-0.8-3-1.7-5.9-2.4-8.9c-0.3-1.2,0-2.5,0-4.2c-0.9-0.9-1-2.7-0.9-4.3c0.4-6.9,0.7-13.8,1.4-20.7
	c0.7-8.1,1.6-16.1,2.6-24.1c1.4-11.2,2.9-22.3,4.3-33.5c1.5-11.6,3.3-23.2,4.5-34.8c1.3-12.4,3.5-24.5,6.7-36.5
	c0.5-1.8,0.7-3.7,1.7-5.7c0.3,0.8,0.5,1.2,0.7,1.7c1.5,4.3,3,8.6,4.5,12.9c0.5,1.5,0.9,3.1,1.3,4.7c0.5,1.9,0.3,3.8-0.1,5.7
	c-0.7,4.2-1.4,8.5-1.8,12.8c-0.8,9.3-1.3,18.6-1,27.9c0.1,2.4,0.2,4.8,0.4,7.2c0.5,7.6-0.1,15.1-1.9,22.5c-2,8.3-2.7,16.9-3.6,25.4
	c-0.3,3.1-0.6,6.1-0.5,9.2c0.1,5.1,2,9.7,5.1,13.6c2,2.5,2.9,5.2,3.2,8.3c0.4,3.9,0.5,7.8-0.1,11.8c-0.7,4.9-0.2,9.8,0.4,14.7
	C229,459.2,228.8,460.6,227.6,462.4z"/>
<path class="st0" d="M284.4,307.1c0.5-2,1-3.9,1.3-5.7c3-15.9,5.9-31.8,8.8-47.7c1.2-6.4,2.2-12.7,4.1-18.9c0.2-0.5,0.4-1,0.6-1.4
	c5.8,0.1,11.6,1.6,17.2-1.3c0.5,3.3,1,6.5,1.6,9.6c0.7,3.5,1.4,7,2.3,10.4c4.4,16.7,8.7,33.5,14.4,49.9c0.5,1.4,0.4,2.5-0.5,3.6
	c-2.2,2.6-4.1,5.4-6.5,7.8c-3.2,3.3-6.8,6.3-10.2,9.4c-0.3,0.3-0.6,0.5-0.9,0.7c-3.5,2.7-3.4,2.6-6.8-0.2
	c-7-5.9-14.3-11.4-22.9-14.9C286.2,308,285.4,307.6,284.4,307.1z"/>
<path class="st0" d="M200.4,464.4c-0.2,0.5-0.3,1.1-0.7,1.4c-5,5.4-9.3,11.3-15.2,15.8c-3.2,2.4-6.5,4.7-9.9,6.8
	c-3.4,2.1-7.2,2.9-11.3,2.9c-6.2-0.1-12.5-0.1-18.7-0.1c-3.9,0-7.9-0.1-11.7-1c-1-0.2-2.1-0.6-3-1c-1.8-0.9-2.9-2.3-3.2-4.3
	c-0.4-3.7-1.1-7.3-1.2-11c-0.4-10.4-1.5-20.7-3.4-31c-1-5.9-1.9-11.9-2.9-17.8c0-0.3,0-0.6-0.1-1.4c0.5,0.8,0.9,1.2,1.1,1.6
	c1.4,3,2.5,6.2,2.5,9.5c-0.1,4.5,1.8,8,5.2,10.8c1.1,0.9,2.1,1.8,3.2,2.6c6.5,4.6,13.1,9,19.5,13.6c2.4,1.7,4.6,3.6,6.9,5.5
	c5.2,4.2,11.2,5.5,17.6,3.5c3.4-1.1,6.8-2.5,10.1-4c4.1-2,8.3-3.6,12.8-4.7c0.9-0.2,1.8-0.5,2.4,0.4c2.5-0.8,3.1-3.3,4.8-5
	C205.3,458.9,203.4,461.6,200.4,464.4c-1.2,0.4-2.4,0.7-3.5,1.1c-3.8,1.6-7.6,3.4-11.4,5c-9.2,4-18.6,7.8-28.4,10.2
	c-7.3,1.8-14.6,2.3-22,0.9c-0.1,0-0.3,0.1-0.9,0.3c1.1,0.5,1.9,0.9,2.7,1.1c2.4,0.4,4.9,0.9,7.3,1c6,0.2,11.8-1,17.5-2.5
	c9.2-2.4,18-5.9,26.4-10.3C192.2,469.1,196.3,466.7,200.4,464.4z"/>
<path class="st0" d="M391.1,311.6c1.2,5.9,2.4,11.8,3.7,17.6c1.8,8,3.9,15.9,5.4,23.9c1.3,6.8,2.1,13.7,3.1,20.6
	c1.3,9.5,3.8,18.7,7.7,27.5c1.7,3.8,3.9,7.3,7,10.3c3.5,3.4,6.4,7,7.7,11.9c0.9,3.5,1.3,7,1.2,10.5c0,1.2-0.8,2.4-1.5,3.6
	c-2.1,3.8-4.2,7.5-6.3,11.3c-0.6,1.1-1,2.3-1.6,3.4c-0.4,0.8-1,1.4-1.7,2.5c-1.9-3.6-0.8-6.8-0.6-9.9c0.3-0.2,0.4-0.3,0.5-0.4
	c3.1-1.1,4.3-3.2,3.9-6.4c-0.7-5-0.7-9.9-0.1-14.9c-1.4,1-1,2.9-2.1,4.6c-1.3-4.6-2.3-8.8-3.2-13.2c-0.1,0.8-0.4,1.5-0.3,2.3
	c0.3,3.1,0.7,6.1,1.3,9.1c0.6,3.2,1.5,6.3,2.1,9.5c0.3,1.6,0.2,3.2,0.1,4.8c-0.1,1.2-0.7,2.2-2.4,2.4c-0.7-1.3-1.5-2.6-2-4
	c-0.7-2-1.3-4.1-1.8-6.2c-1.2-5.1-3.7-9.4-7.4-13.1c-3.3-3.3-5.8-7.1-7.8-11.3c-2.5-5.2-3.1-10.9-4.3-16.5
	c-1.5-7.1-1.8-14.4-1.9-21.6c0-12.3-0.1-24.7,0.1-37c0.1-6.7,0.5-13.4,0.8-20.1c0-0.4,0.1-0.7,0.2-1.1
	C391,311.5,391,311.5,391.1,311.6z"/>
<path class="st0" d="M367.5,378.2c1.1,0.9,1.8,1.8,2.1,3.1c1.4,6,2.8,12,4.3,18c1.6,6.2,4,12.1,7.6,17.5c0.8,1.2,1.8,2.4,2.8,3.4
	c3.2,3,8.9,2.2,11.3-1.5c0.4-0.6,0.5-1.6,1.6-1.7c0.3,0,0.5-1.3,0.7-2.1c2.6,3.3,5.3,6.5,7.8,9.7c0.7,0.9,1.2,2,2,3.3
	c-12.5,3.8-25,6.4-37.7,8.5c-0.3-0.6-0.6-1.2-0.8-1.7c-0.4-0.9-0.6-1.9-1-2.8c-1.7-4.4-1.2-8.9-0.9-13.4c1-11.2,1.1-22.5,0.5-33.7
	C367.7,382.5,367.6,380.4,367.5,378.2z"/>
<path class="st0" d="M412,442.1c-0.5,0.7-1.1,1.4-1.7,2.2c-0.4,0.6-0.9,1.3-1.3,1.9c-1.4,2.6-0.9,3.8,2.3,5
	c-4.4,0.6-8.4,1.1-12.4,1.8c-1.7,0.3-3.4,0.8-5.1,1.2c-1.4,0.3-2.7,0.5-4.1,0.6c-1.7,0.1-2.9-0.5-3.6-2.3c-1-2.7-2.1-5.3-3.2-7.9
	c-1-2.5-2.1-5.1-3.2-7.7c9.5-2.3,18.9-4.6,28.6-6.9C409.5,433.9,410.7,437.8,412,442.1z"/>
<path class="st0" d="M314.5,205.7c1,1.6,0.6,3,0.3,4.4c-0.3,1-0.7,2-1,3.1c-0.8,2.8-0.9,5.6,0,8.4c0.7,2.1,1.2,4.3,1.9,6.4
	c0.4,1.2,0,2-1,2.5c-1,0.5-2.2,1-3.3,1c-3.2,0.1-6.5-0.1-9.7-0.1c-1.6,0-2.6-0.9-3-2.4c-0.6-2.4-1.3-4.8-1.6-7.2
	c-0.3-2.7-0.3-5.5-0.3-8.3c0-2.1,1-3.7,2.9-4.6c0.5-0.2,1-0.5,1.5-0.7C305.4,206.6,309.9,206,314.5,205.7z"/>
<path class="st0" d="M373.1,384.9c0.9,1,1.8,2,2.8,2.9c7,6.8,12.9,14.5,18,22.8c0.4,0.7,0.8,1.3,1.1,2c1,2.3,0.6,4-1.3,5.7
	c-2.7,2.4-6.7,2-9-0.8c-2.5-3.1-4.2-6.6-5.8-10.2C375.7,400.2,374.5,392.6,373.1,384.9z"/>
<path d="M200.4,464.4c-4.1,2.3-8.2,4.6-12.3,6.8c-8.4,4.4-17.2,8-26.4,10.3c-5.8,1.5-11.6,2.8-17.5,2.5c-2.4-0.1-4.9-0.6-7.3-1
	c-0.8-0.1-1.5-0.6-2.7-1.1c0.6-0.2,0.8-0.4,0.9-0.3c7.4,1.4,14.7,1,22-0.9c9.8-2.5,19.2-6.2,28.4-10.2c3.8-1.7,7.6-3.4,11.4-5
	C198,465.1,199.2,464.8,200.4,464.4C200.4,464.5,200.4,464.4,200.4,464.4z"/>
<path class="st0" d="M271,67.6c0.1,4.4-1.4,7.9-5,10.5c-1.1,0.7-2.1,1.3-3.3,0.3c-1.2-0.9-2.3-0.2-3.5,0.1c-0.9,0.3-1.9,0.9-2.8-0.3
	c3.8-1.8,6.4-4.8,8.9-7.7c1.4,0.1,2.9,0.7,3.9,0.2C269.9,70.2,270.3,68.7,271,67.6z"/>
<path class="st0" d="M317,67.4c2.6,5,3.7,20.7,1.9,25.6C316.9,84.4,317.6,75.8,317,67.4z"/>
<path class="st0" d="M332.8,88.3c-0.1-3.3-0.3-6.7-0.4-10c0.2-0.1,0.3-0.1,0.5-0.2c1,1.2,1.9,2.5,2.4,4c0.3,1,0.3,1.9-0.3,2.8
	c-0.7,1-1,2.2-1.5,3.3C333.2,88.2,333,88.2,332.8,88.3z"/>
<path class="st0" d="M272.8,77.1c0.3-1.1,0.5-1.8,0.7-2.5c1.6-0.3,3.2-0.5,4.9-0.8c0,1.7,0,3.5,0,5.2c-0.9-0.6-1.5-1.3-2.4-1.6
	C275.2,77,274.1,77.2,272.8,77.1z"/>
<path class="st0" d="M412.9,449c-1.1,0-2,0-3.2,0c0.7-2.4,1.6-4.3,3.1-6.2c0.6,0.3,1.1,0.5,1.5,0.8
	C413.8,445.4,413.4,447.1,412.9,449z"/>
<path class="st0" d="M249.1,68c2.7-1.7,5-3.1,7.2-4.5c-0.4,2.2-3.1,5.1-5.5,5.3C250.3,68.8,249.8,68.3,249.1,68z"/>
<path class="st0" d="M229,474.8c-1.6-3-3.2-5.9-4.9-9.1c1.5,0.7,2.2,2,3,3.2c1,1.4,1.7,2.9,2.5,4.4
	C230.2,474.3,229.6,474.7,229,474.8z"/>
<path class="st0" d="M252.4,81.3c-3.9,1.7-7.8,2.5-12.3,1.3C244.4,82.2,248.4,81.8,252.4,81.3z"/>
<path class="st0" d="M283,83.1c1.6-2.4,3.1-4.7,4.5-6.9C287.7,78.9,286.1,81.5,283,83.1z"/>
<path class="st0" d="M258.9,72.4c1.7-1.2,3-2.2,4.6-3.3C261.9,72.4,261.4,72.8,258.9,72.4z"/>
<path class="st0" d="M250.9,106.1c-1.2,1.4-2,3.1-3.7,4.1C247.2,108.5,247.2,108.5,250.9,106.1z"/>
<path class="st0" d="M213.6,467.3c-1.1-1.3-2.3-2.7-3.4-4c0.1-0.1,0.3-0.2,0.4-0.4c1.1,1.4,2.3,2.7,3.4,4.1
	C213.9,467,213.8,467.1,213.6,467.3z"/>
<path class="st0" d="M295.2,61c0.1-1.5,0.8-2.6,2.4-3C296.8,59,296,60,295.2,61z"/>
<path d="M243.6,284.1c5.2-16.7,15.9-29.7,28.4-41.4c-3.2,4.6-7.1,8.5-10.5,13c-3.4,4.5-6.6,9.1-9.6,13.8
	C249,274.2,246.4,279.2,243.6,284.1z"/>
<path d="M235.4,218c14.6-3.9,29.4-6,44.7-4.2C265,214.1,250.2,215.3,235.4,218z"/>
<path d="M359,291.6c-2.2-6-4.3-12-6.5-18c-3-7.8-5.8-15.6-9.2-23.2c-3.1-6.9-6.8-13.4-10.2-20.1c0.2,0.3,0.6,0.7,0.9,1.1
	c7.2,10.1,12,21.5,16.2,33.1c2.1,5.7,4.2,11.4,6.1,17.2c1.1,3.3,2,6.6,3.1,9.9C359.2,291.6,359.1,291.6,359,291.6z"/>
<path d="M300.3,105c1.1-0.2,2-0.3,3.2-0.5C302.5,106.1,302.2,106.1,300.3,105z"/>
<path d="M294.7,114.9c1.1-0.1,2.1-0.2,3.2-0.2C296.8,115.1,295.7,115.7,294.7,114.9z"/>
<path d="M299.8,119.3c0.8-0.1,1.5-0.2,2.3-0.3c0,0.2,0,0.3,0.1,0.5c-0.7,0.5-1.5,0.2-2.3,0.3C299.8,119.6,299.8,119.4,299.8,119.3z"
	/>
<path d="M305.6,114.7c-0.6-0.1-1.3-0.1-1.9-0.2c0,0,0-0.1,0-0.1c0.6,0,1.3,0,1.9,0C305.6,114.5,305.6,114.6,305.6,114.7z"/>
</svg>
