<?xml version="1.0" encoding="utf-8"?>
<!-- Generator: Adobe Illustrator 19.0.0, SVG Export Plug-In . SVG Version: 6.00 Build 0)  -->
<svg version="1.1" id="图层_1" xmlns="http://www.w3.org/2000/svg" xmlns:xlink="http://www.w3.org/1999/xlink" x="0px" y="0px"
	 viewBox="0 0 595.3 841.9" style="enable-background:new 0 0 595.3 841.9;" xml:space="preserve">
<style type="text/css">
	.st0{fill:#FFFFFF;}
</style>
<path class="st0" d="M1.4,841.7c0-280,0-560,0-840c198,0,395.9,0,593.9,0c0,280,0,559.9,0,840C397.3,841.7,199.3,841.7,1.4,841.7z
	 M231.6,766c0,0.4,0.1,1,0.2,1.5c0.3,3.7,0.6,7.3,1,11c0.5,4,1.6,7.8,4.6,10.8c2.8,2.7,5.5,3.2,9,1.6c1.6-0.7,3.1-1.6,4.7-2.4
	c3.3-1.7,6.8-2.2,10.5-1.2c2.4,0.6,4.7,1.4,7.1,2.1c5.5,1.7,10.9,1.3,16.1-1.2c1.1-0.5,2.2-1,3.2-1.6c4.4-2.6,8.8-2.9,13.4-0.5
	c0.8,0.4,1.6,0.7,2.4,1c3.9,1.5,7.9,2.3,12.1,2.8c5.1,0.7,11-4,9.3-9.2c-0.5-1.4,0-2.1,1.5-2.5c1.6-0.4,3.3-0.8,4.9-0.7
	c4.3,0,8.6,0.3,12.9,0.4c3.3,0,6.7-0.1,10-0.4c4.5-0.5,8.6-2.4,12.6-4.3c2.7-1.3,5.4-2.5,8.1-3.6c2.8-1.1,5.3-0.6,7.2,1.9
	c0.5,0.6,1,1.2,1.6,1.8c3,2.8,6.4,3.5,10.2,1.9c1.9-0.8,3.4-2.1,4.6-3.7c1.3-1.6,1.5-1.5,3.2-0.7c1.3,0.6,2.6,1.1,4,1.5
	c2.6,0.9,5.3,1.4,7.4,3.5c1.6,1.6,3.5,2.8,5.3,4.1c2.8,2.1,5.9,3.4,9.4,3.9c4.8,0.7,9.4,1.9,13.8,3.6c4.7,1.8,9.6,2.6,14.6,2.1
	c5.3-0.6,10.5-1.8,15.4-4.1c3.9-1.8,8-3.1,12.3-3.9c2.8-0.5,5.7-1,8.5-1.6c5.6-1.1,11.1-2.2,16.2-4.9c3.9-2.1,7.7-4.3,9.6-8.6
	c2.3-5.2,5.6-9.9,9.4-14.1c4.6-5.1,7.8-11.1,10.7-17.2c1.3-2.8,1.8-5.7,1.1-8.6c-0.8-3.3-1.5-6.7-2.7-9.9
	c-2.2-5.8-6.2-10.4-11.7-13.5c-2-1.1-3.4-2.5-4.7-4.3c-3.9-5.6-7.2-11.5-10-17.7c-4.2-9.5-11.3-15.8-21.2-18.6
	c-5.7-1.6-11.4-3.1-17.2-4.3c-8.9-1.8-16.6-5.6-22.7-12.4c-1.1-1.2-1.3-2.3-1.1-3.9c1.2-7.6,2.5-15.3,3.4-22.9
	c0.6-5.5,0.6-11-0.1-16.5c-0.7-6.3-2.9-12.2-5.1-18.1c-4-10.6-9.1-20.7-13.9-31c-2.8-6-5-12.2-7.5-18.4c-0.5-1.1-0.5-2.1,0.7-2.9
	c0.5-0.3,0.8-1.2,0.8-1.8c0.1-1.1-0.1-2.2-0.3-3.3c-2.1-8.7-4.2-17.4-6.4-26c-1.8-7-3.7-14-5.6-21c-0.2-0.7-0.2-1.4-0.3-1.9
	c3.3-2.4,5.8-5.2,6.9-8.9c0.5-1.5,0.6-3.1,0.5-4.7c-0.1-2.1-0.6-4.1-1-6.1c-1-5.2-3.5-9.7-6.8-13.8c-6.4-7.9-12.6-15.9-19.8-23.1
	c-0.3-0.3-0.5-0.8-1.1-1.6c1.3,0.4,2.1,0.7,3,0.9c1.9,0.5,3.8,1.1,5.8,1.5c4,0.6,7.2-0.8,9.8-3.8c0.4-0.4,0.6-1.1,1-1.3
	c1.2-0.4,1.4-1.3,1.3-2.3c0-1-0.1-2.1-0.4-3c-0.4-1.4-1.1-2.6-1.7-3.9c-1-2.1-2-4.2-3.3-6.1c-2.7-3.6-5.6-6.9-8.5-10.3
	c-2.4-2.8-4.9-5.5-7.1-8.4c-5.9-7.6-11.7-15.4-17.6-23c-0.8-1-0.9-2-0.8-3.1c0.4-9.7-0.7-19.3-2-28.9c-1.3-9-3.2-17.9-3.9-27
	c-0.6-7.2-1.6-14.3-1.8-21.5c-0.2-5.7,0.5-11.5,0.6-17.2c0.3-15.2,0.4-30.3,0.6-45.5c0.1-4.5-0.7-8.9-1.6-13.3
	c-1.4-6.5-5.8-10-11.9-11.8c-4.3-1.2-8.7-0.9-13.1-0.4c-0.8,0.1-1.8,0.2-2.6-0.2c-1.9-0.9-3.9-1.8-5.6-3.1c-3.7-2.8-7-6-9.9-9.7
	c-1.8-2.3-3.3-4.7-4-7.6c-0.2-0.8-0.2-1.4,0.3-2.2c0.9-1.8,1.8-3.5,3.7-4.4c0.3-0.2,0.6-0.6,0.8-0.9c2.8-3.8,3.6-7.9,2.1-12.4
	c-0.3-0.8-0.4-1.5-0.1-2.3c1.1-3.8,1.7-7.6,0.5-11.5c-0.1-0.4-0.1-0.9-0.1-1.4c0.3-5.8-1.4-11.2-3.6-16.5
	c-2.3-5.4-6.1-9.7-11.4-12.5c-2.8-1.5-5.7-1.9-8.6-0.2c-0.3,0.2-0.6,0.2-0.8,0.3c-3.9-2.9-8.1-3.1-12.4-1.6
	c-6.8,2.4-12.3,6.5-15.9,12.8c-1.6,2.8-2.6,6-3.7,9c-1.4,4.1-1.1,8.1,1.1,11.8c1.6,2.6,1.9,5.4,2.1,8.2c0.1,1,0.1,1.9,0.1,2.9
	c0.3,3.3,0.5,6.7,1.9,9.8c2.8,5.8,5.6,11.6,8.6,17.4c1.7,3.3,3.8,6.5,7.8,7.8c-0.8,2.6-2.4,4.4-4.5,5.8c-2.3,1.5-4.6,3.1-7,4.6
	c-1.3,0.8-2.6,1.6-4,2c-2.8,0.8-5.7,1.5-8.6,2.1c-5,1.1-9.5,3.3-13.8,5.9c-2.2,1.3-3.6,3.3-4.4,5.8c-1.5,4.6-1.8,9.2-0.8,13.9
	c0.8,3.7,1.2,7.4,2.1,11c0.8,2.8-0.3,4.4-2.2,6.1c-2.8,2.5-4.7,5.6-5.3,9.4c-0.7,4.5,0,10.6,6.2,13.2c0.5,0.2,1,0.5,1.4,0.9
	c1.4,1.1,2.4,2.5,2.4,4.5c0,0.6,0.1,1.1,0.2,1.7c0.5,3.6,1.2,7.3,1.5,10.9c0.9,10.9,1.1,21.8,0.9,32.8c-0.1,4.3-0.7,8.4-2.5,12.4
	c-0.2,0.5-0.5,1.1-0.5,1.6c0,1.4-0.8,2.2-1.7,3c-2.3,1.8-4.5,3.6-6.8,5.3c-5.6,4.1-11.4,8-16.3,12.9c-6.9,6.8-12.9,14.3-18.6,22.1
	c-5.2,7.2-10.5,14.2-15.8,21.4c-2.5,3.4-5,6.8-7.4,10.3c-1.6,2.3-2.8,4.9-2.4,7.9c0.6,4.4,1.4,8.8,2.2,13.2c0.3,1.3,0.4,2.4-0.2,3.6
	c-4.2,9-7.5,18.3-10.1,27.9c-1.1,3.8-2.2,7.7-3.4,11.5c-5.4,18.1-11.5,36-18.5,53.6c-5.4,13.5-11,26.9-15.5,40.7
	c-2.6,8-5.8,15.7-9.2,23.4c-3.4,7.8-6.6,15.7-9.9,23.6c-1.3,3.2-2.7,6.5-4,9.8c-2.6,6.5-5.1,13.1-7.7,19.6c-0.4,1-1.1,1.9-1.9,2.7
	c-4,4.3-8,8.7-12.1,12.9c-5.7,5.9-10.3,12.6-14.4,19.7c-0.8,1.4-1.7,2.7-2.4,4.2c-1.9,4-3.7,8.2-5.7,12.1
	c-5.1,9.8-11.1,19-18.6,27.2c-2.4,2.6-4.6,5.3-7,7.9c-1.9,2.1-2.5,4.6-2,7.4c0.3,1.9,0.8,3.8,1.1,5.6c0,0.1,0,0.2,0.1,0.2
	c1.1,4.1,3.4,7.2,7.4,9.1c6.1,3,10.3,7.6,11.6,14.6c0.1,0.6,0.3,1.3,0.6,1.8c0.8,1.5,2.3,2.4,3.9,2.1c3.5-0.8,6.2-2.5,7.2-6.2
	c0.9-3.1,0.7-6.2,0.1-9.2c-1-5-0.6-9.9,1.5-14.5c1.8-4,3.7-4.4,6.9-1.6c1.6,1.4,3.1,3,4.3,4.8c2.2,3,4.2,6.2,6.2,9.4
	c4.5,7.4,9.6,14.3,16.4,19.8c2.8,2.2,5.6,4.4,9.3,4.6c7.1,0.5,13.3-1.3,17.7-7.3c1.1-1.5,2.2-3.1,3.2-4.8c1.7-2.7,2.4-5.7,2.2-8.9
	c-0.2-3.6-1.2-7.1-2.7-10.4c-1.8-4-4.3-7.6-6.9-11.2c-0.7-0.9-1.3-1.8-2-2.7c2-1.3,4.2-1.7,6.3-2.1c6.4-1.4,12.6-1.1,18.4,2.2
	c4.4,2.5,9,5,12.9,8.2c7,5.8,14.6,10.6,22.6,14.8c9,4.8,18.1,9.1,28.2,11.1C223.7,763.7,227.5,765,231.6,766z"/>
<path d="M231.6,766c-4.1-1.1-7.9-2.3-11.9-3.1c-10.1-2.1-19.2-6.3-28.2-11.1c-8-4.2-15.5-9.1-22.6-14.8c-3.9-3.2-8.5-5.7-12.9-8.2
	c-5.8-3.3-12-3.6-18.4-2.2c-2.1,0.4-4.2,0.8-6.3,2.1c0.7,1,1.4,1.9,2,2.7c2.6,3.5,5.1,7.1,6.9,11.2c1.5,3.3,2.5,6.7,2.7,10.4
	c0.2,3.2-0.5,6.2-2.2,8.9c-1,1.6-2.1,3.2-3.2,4.8c-4.4,6-10.7,7.8-17.7,7.3c-3.7-0.3-6.5-2.4-9.3-4.6c-6.8-5.5-11.9-12.4-16.4-19.8
	c-1.9-3.2-4-6.4-6.2-9.4c-1.2-1.7-2.7-3.4-4.3-4.8c-3.3-2.8-5.1-2.4-6.9,1.6c-2.1,4.7-2.5,9.5-1.5,14.5c0.6,3.1,0.8,6.2-0.1,9.2
	c-1.1,3.7-3.8,5.4-7.2,6.2c-1.6,0.4-3.1-0.5-3.9-2.1c-0.3-0.6-0.5-1.2-0.6-1.8c-1.3-6.9-5.5-11.6-11.6-14.6c-4-1.9-6.3-5-7.4-9.1
	c0-0.1,0-0.2-0.1-0.2c-0.4-1.9-0.8-3.7-1.1-5.6c-0.5-2.8,0.1-5.2,2-7.4c2.3-2.6,4.6-5.3,7-7.9c7.5-8.2,13.5-17.4,18.6-27.2
	c2.1-4,3.8-8.1,5.7-12.1c0.7-1.4,1.6-2.8,2.4-4.2c4.1-7,8.7-13.7,14.4-19.7c4.1-4.3,8.1-8.6,12.1-12.9c0.7-0.8,1.5-1.7,1.9-2.7
	c2.6-6.5,5.2-13,7.7-19.6c1.3-3.3,2.6-6.5,4-9.8c3.3-7.9,6.5-15.8,9.9-23.6c3.4-7.7,6.6-15.4,9.2-23.4c4.5-13.8,10.1-27.2,15.5-40.7
	c7-17.6,13.1-35.4,18.5-53.6c1.1-3.8,2.3-7.6,3.4-11.5c2.6-9.5,6-18.9,10.1-27.9c0.6-1.3,0.5-2.3,0.2-3.6c-0.9-4.4-1.6-8.8-2.2-13.2
	c-0.4-2.9,0.8-5.5,2.4-7.9c2.4-3.5,4.9-6.9,7.4-10.3c5.2-7.1,10.6-14.2,15.8-21.4c5.7-7.8,11.7-15.3,18.6-22.1
	c5-4.9,10.8-8.8,16.3-12.9c2.3-1.7,4.5-3.5,6.8-5.3c1-0.8,1.8-1.6,1.7-3c0-0.5,0.3-1.1,0.5-1.6c1.8-3.9,2.4-8.1,2.5-12.4
	c0.2-10.9,0-21.9-0.9-32.8c-0.3-3.7-1-7.3-1.5-10.9c-0.1-0.6-0.2-1.1-0.2-1.7c0-1.9-1-3.3-2.4-4.5c-0.4-0.3-0.9-0.7-1.4-0.9
	c-6.2-2.6-6.8-8.6-6.2-13.2c0.5-3.8,2.4-7,5.3-9.4c1.9-1.7,3-3.3,2.2-6.1c-1-3.6-1.4-7.4-2.1-11c-1-4.7-0.7-9.3,0.8-13.9
	c0.8-2.5,2.2-4.4,4.4-5.8c4.3-2.6,8.8-4.8,13.8-5.9c2.9-0.6,5.8-1.2,8.6-2.1c1.4-0.4,2.7-1.2,4-2c2.4-1.5,4.7-3,7-4.6
	c2.1-1.4,3.7-3.2,4.5-5.8c-4.1-1.3-6.1-4.4-7.8-7.8c-3-5.7-5.8-11.5-8.6-17.4c-1.5-3.1-1.6-6.5-1.9-9.8c-0.1-1-0.1-1.9-0.1-2.9
	c-0.2-2.9-0.5-5.6-2.1-8.2c-2.3-3.6-2.6-7.7-1.1-11.8c1.1-3.1,2.1-6.2,3.7-9c3.6-6.3,9.1-10.4,15.9-12.8c4.3-1.5,8.5-1.3,12.4,1.6
	c0.3-0.1,0.6-0.2,0.8-0.3c2.9-1.8,5.8-1.3,8.6,0.2c5.3,2.8,9.1,7.1,11.4,12.5c2.2,5.2,3.9,10.6,3.6,16.5c0,0.5,0,1,0.1,1.4
	c1.2,3.9,0.6,7.7-0.5,11.5c-0.2,0.8-0.2,1.4,0.1,2.3c1.6,4.5,0.7,8.6-2.1,12.4c-0.2,0.3-0.5,0.7-0.8,0.9c-1.9,0.9-2.8,2.6-3.7,4.4
	c-0.4,0.8-0.5,1.5-0.3,2.2c0.7,2.8,2.2,5.3,4,7.6c2.9,3.7,6.2,6.9,9.9,9.7c1.7,1.3,3.7,2.2,5.6,3.1c0.7,0.3,1.7,0.3,2.6,0.2
	c4.4-0.6,8.7-0.9,13.1,0.4c6.1,1.7,10.5,5.2,11.9,11.8c1,4.4,1.7,8.8,1.6,13.3c-0.2,15.2-0.3,30.3-0.6,45.5
	c-0.1,5.7-0.8,11.5-0.6,17.2c0.3,7.2,1.3,14.3,1.8,21.5c0.7,9.1,2.6,18,3.9,27c1.3,9.6,2.4,19.2,2,28.9c0,1.1,0,2.1,0.8,3.1
	c5.9,7.6,11.7,15.4,17.6,23c2.2,2.9,4.8,5.6,7.1,8.4c2.9,3.4,5.8,6.8,8.5,10.3c1.4,1.8,2.3,4,3.3,6.1c0.6,1.3,1.3,2.6,1.7,3.9
	c0.3,0.9,0.3,2,0.4,3c0,1-0.2,1.8-1.3,2.3c-0.4,0.2-0.7,0.9-1,1.3c-2.6,3-5.8,4.4-9.8,3.8c-2-0.3-3.9-0.9-5.8-1.5
	c-0.8-0.2-1.6-0.5-3-0.9c0.5,0.8,0.8,1.2,1.1,1.6c7.2,7.2,13.4,15.2,19.8,23.1c3.3,4.1,5.8,8.6,6.8,13.8c0.4,2,0.9,4.1,1,6.1
	c0.1,1.6-0.1,3.2-0.5,4.7c-1.2,3.7-3.6,6.5-6.9,8.9c0.1,0.5,0.1,1.2,0.3,1.9c1.8,7,3.8,14,5.6,21c2.2,8.7,4.3,17.3,6.4,26
	c0.3,1.1,0.4,2.2,0.3,3.3c0,0.6-0.3,1.5-0.8,1.8c-1.2,0.8-1.1,1.8-0.7,2.9c2.5,6.1,4.8,12.4,7.5,18.4c4.7,10.3,9.9,20.4,13.9,31
	c2.2,5.9,4.4,11.8,5.1,18.1c0.6,5.5,0.7,11,0.1,16.5c-0.9,7.7-2.2,15.3-3.4,22.9c-0.2,1.5,0,2.6,1.1,3.9
	c6.1,6.8,13.8,10.6,22.7,12.4c5.8,1.2,11.5,2.7,17.2,4.3c10,2.8,17,9.1,21.2,18.6c2.8,6.2,6.1,12.1,10,17.7c1.2,1.8,2.7,3.2,4.7,4.3
	c5.5,3.1,9.4,7.6,11.7,13.5c1.2,3.2,2,6.6,2.7,9.9c0.7,3,0.2,5.9-1.1,8.6c-3,6.1-6.1,12.1-10.7,17.2c-3.8,4.2-7.1,8.9-9.4,14.1
	c-1.9,4.3-5.7,6.5-9.6,8.6c-5.1,2.7-10.6,3.8-16.2,4.9c-2.8,0.5-5.6,1-8.5,1.6c-4.3,0.8-8.3,2.1-12.3,3.9
	c-4.9,2.3-10.1,3.5-15.4,4.1c-5,0.5-9.9-0.3-14.6-2.1c-4.5-1.8-9.1-3-13.8-3.6c-3.5-0.5-6.6-1.9-9.4-3.9c-1.8-1.3-3.7-2.6-5.3-4.1
	c-2.1-2.1-4.8-2.6-7.4-3.5c-1.3-0.5-2.7-0.9-4-1.5c-1.7-0.8-2-0.9-3.2,0.7c-1.3,1.6-2.7,2.9-4.6,3.7c-3.8,1.6-7.2,0.9-10.2-1.9
	c-0.6-0.5-1.1-1.1-1.6-1.8c-1.9-2.5-4.4-3.1-7.2-1.9c-2.7,1.1-5.4,2.3-8.1,3.6c-4.1,1.9-8.1,3.8-12.6,4.3c-3.3,0.4-6.7,0.4-10,0.4
	c-4.3,0-8.6-0.3-12.9-0.4c-1.6,0-3.3,0.3-4.9,0.7c-1.5,0.4-2,1.1-1.5,2.5c1.7,5.2-4.2,9.9-9.3,9.2c-4.1-0.5-8.2-1.3-12.1-2.8
	c-0.8-0.3-1.7-0.6-2.4-1c-4.6-2.4-9-2.1-13.4,0.5c-1,0.6-2.1,1.1-3.2,1.6c-5.2,2.5-10.6,2.9-16.1,1.2c-2.4-0.7-4.7-1.5-7.1-2.1
	c-3.6-1-7.1-0.4-10.5,1.2c-1.6,0.8-3.1,1.7-4.7,2.4c-3.5,1.6-6.2,1.1-9-1.6c-3-2.9-4.2-6.7-4.6-10.8c-0.4-3.6-0.7-7.3-1-11
	C231.7,767,231.6,766.4,231.6,766z M321.1,546.9c-1.1,0.5-1.9,0.9-2.7,1.3c-5.8,2.7-10.2,6.8-13.3,12.3c-2.7,4.9-5.4,9.8-7.9,14.8
	c-2.7,5.4-6.2,9.9-11.3,13c-5,3-8.1,7.2-10.3,12.7c-3.7,9.4-10.4,16.1-20.1,19.6c-1.4,0.5-2.7,1-4,1.5c-4.7,1.9-8.8,4.7-12.4,8.4
	c-3.6,3.8-7.5,7.4-11.5,10.8c-4.6,3.9-7.8,8.4-8.8,14.4c-0.6,3.7-2.1,7-3.8,10.3c-2.7,5.1-5.9,9.8-10.2,13.8
	c-2.9,2.6-4.9,5.9-6.1,9.6c-0.7,2-1.4,3.9-2.2,5.8c-1.1,2.6-2.8,4.6-5.1,6.2c-3.9,2.7-8.2,4.3-13,4c-2.9-0.2-5.9-0.7-8.7-1.2
	c-2-0.4-3.9-0.7-5.9-0.2c-2.3,0.7-6.4,3.8-7.9,6c4.2,0.5,7.5,2.7,10.3,5.6c1.5,1.6,3.3,3.1,5,4.5c5.9,4.7,12.5,6.5,20,5.1
	c2.5-0.5,5-1,7.5-1.4c6.5-1,12.2,0.5,16.7,5.6c1.8,2.1,3.6,4.3,5.5,6.3c1.4,1.5,2.9,3,4.5,4.3c1.5,1.2,3.2,1.9,5.3,1.9
	c-0.2-13-0.3-25.8-0.5-38.6c1.4,9.6,1.8,19.3,2,28.9c0.3,0.1,0.4,0.2,0.4,0.2c0.3-0.1,0.6-0.2,0.9-0.4c8.7-4.1,17.4-4.3,25.9,0.5
	c2.4,1.4,4.9,2.6,7.4,4c9.1,5.1,27.2,6.2,38.2-2.5c1.1-0.9,2.3-1.7,3.5-2.5c1.5-1,3.1-2,4.7-2.9c3.2-1.7,6.4-1.5,9.6,0.4
	c1.4,0.9,2.9,1.7,4.3,2.5c7.9,4.2,16.1,5.8,24.9,2.9c3.3-1.1,6.7-1.9,10.1-3c5.4-1.7,10.8-1.9,16.3-0.6c0.8,0.2,1.6,0.3,2.7,0.4
	c-1-2-1.9-3.7-2.8-5.3c0.2-0.1,0.3-0.2,0.5-0.3c2.3,3.4,4.7,6.8,6.9,10.3c0.6,1,1.3,1.4,2.5,1.4c5.3,0,10.4,1.2,15.4,3.2
	c6,2.4,12,4.7,18.1,6.9c4.8,1.7,9.9,2.8,15,2.2c3-0.3,6-0.9,8.9-1.7c6.4-1.6,12.8-2.4,19.4-0.3c1.7,0.5,3.5,0.5,5.3,0.7
	c0-0.2,0.1-0.4,0.1-0.6c-1.7-0.4-3.4-0.6-5-1.2c-5-1.8-10-3.6-15-5.7c-5.5-2.3-11.1-4.5-16.9-5.8c-3.4-0.8-6.9-1.4-10.3-2.3
	c-7.3-1.9-13.4-6-18.7-11.2c-5.2-5.1-10.3-10.2-15.3-15.5c-8.9-9.5-18.4-18.4-29.2-25.8c-4.5-3.1-8.6-6.6-12.6-10.3
	c-8.7-7.9-14.6-17.7-18.3-28.8c-0.3-0.8-0.4-1.6-0.7-2.4c0.9,1.1,1.6,2.2,2.1,3.5c5.5,13.8,14.6,24.9,26.8,33.3
	c12.7,8.7,24.3,18.6,34.6,30c4.8,5.3,10.2,10.1,15.4,15.1c5.7,5.5,12.4,9.1,20.3,10.5c8.7,1.5,17,4.3,25,7.9c2.3,1,4.8,1.9,7.1,2.9
	c7.1,3.1,14.4,3.9,22,2.7c0.8-0.1,1.7-0.5,2.4-1c2.3-1.9,4.7-3.7,6.4-6.3c2.1-3.1,3.7-6.3,4.5-9.9c0.5-2.3,1.1-4.7,1.8-6.9
	c1.2-3.7,3.5-6.5,7.1-8.3c1.8-0.9,3.5-1.9,5.2-3c2.7-1.8,4.7-4.2,6.1-7.3c-0.8-0.2-1.3-0.5-2-0.6c-8.1-1.9-15.9-4.7-23.5-8.1
	c-4.1-1.9-8.1-4.2-12.1-6.3c-0.8-0.4-1.6-0.9-2.1-2.3c14.3,7.8,29.1,12.6,44.6,16.1c-0.4-0.5-0.7-0.9-1-1.2
	c-4.1-4.6-7.6-9.6-10-15.4c-0.6-1.4-1.3-2.8-2-4.1c-3.6-7.1-9.1-12.1-16.7-14.6c-5.8-1.9-11.6-3.4-17.5-4.8
	c-6.8-1.6-13.2-3.6-18.7-8.1c-0.3-0.3-0.7-0.5-1-0.6c-2.2-1-4.2-2.2-5.8-4.7c-0.2,1.2-0.4,2-0.4,2.7c-0.2,6.1-0.4,12.1-0.4,18.2
	c0,3.2,0.2,6.4,0.9,9.5c1.4,6.1,3.3,12.1,4.8,18.3c0.4,1.5,1,2.3,2.4,2.6c1.5,0.3,2.9,0.8,4.4,0.9c2.7,0.1,5.4,0.2,8.1-0.2
	c5.7-0.7,11.3,0.1,16.8,1.4c0.3,0.1,0.6,0.3,1.2,0.7c-0.7,0.1-1,0.1-1.3,0.1c-5.7,0.1-11.5,0.2-17.2,0.3c-2.7,0-5.4,0.3-8.1,0.1
	c-5.5-0.4-10.6-2.7-12.6-9.6c-1.1-3.8-2.3-7.5-3.4-11.2c-0.8-2.8-2.6-4.5-5.4-5.2c-1.5-0.4-3.1-0.8-4.6-1.2
	c-7.6-2.1-14.1-5.9-18.5-12.8c-0.8-1.2-1.7-2.3-2.6-3.4c-2.1-2.6-4.9-4.1-8.3-4c-2.2,0-4.5,0-6.7,0c-5.4,0-10.2-1.6-14.4-5
	c-2.4-2-4.7-4.1-6.8-6.4c-3.4-3.5-7.3-5.9-12.1-6.9c-3.5-0.7-6.7-2.2-9.5-4.3c-3.1-2.3-5.8-5-7.9-8.2c-2.1-3.1-4-6.3-5.9-9.6
	c-1.8-3.1-4.2-5.1-7.5-6.3c-3.4-1.1-6.3-3-8.5-5.9c-0.3-0.4-0.6-0.8-1-1c-1.7-0.5-2.5-1.9-3.1-3.4c-0.7-2-1.4-3.9-1.8-5.9
	c-1-5.3-0.2-10.7,0.4-16c0.7-7.3,1.6-14.6,2.3-21.9C321.3,551.6,321.1,549.4,321.1,546.9z M119.6,741.3c1.8-1,2.6-2.3,2.3-3.9
	c-0.5-2.7-1.1-5.5-1.9-8.1c-0.8-2.9-1.9-5.7-2.9-8.6c-2.8-8.3-1.8-16.5,1.2-24.6c0.5-1.3,1.2-2.6,2-3.8c1.3-1.8,3.2-2.3,5.3-1.5
	c1,0.4,2.1,0.8,3.1,1.2c3.7,1.5,6.1,0.9,8.8-2c0.7-0.8,1.3-1.6,1.9-2.5c1.4-2.1,2.8-4.3,4.1-6.5c2.4-4.2,5.7-7,10.3-8.9
	c6.2-2.5,10.5-6.8,11.9-13.7c0.4-2.1,1.1-4.2,1.7-6.2c2-6.7,6.2-11.2,12.8-13.6c2.8-1,5.4-2.3,8.1-3.5c3-1.4,5.2-3.7,6.8-6.6
	c0.9-1.6,1.7-3.2,2.6-4.9c2.6-4.7,6.2-8.5,11.1-10.9c0.9-0.5,1.7-1.1,2.6-1.7c0.7-0.5,0.8-1,0.6-1.9c-0.8-4.9-1.7-9.7-2.4-14.6
	c-0.8-5.9-1.2-11.9-0.3-17.9c1.1-7,3.3-13.6,5.5-20.3c0.2-0.6,0.6-1.2,0.9-1.8c-0.1,1.7-0.5,3.2-0.8,4.8c-1.3,5.9-2.7,11.8-3.9,17.7
	c-0.2,1.1-0.5,2.2,0.1,3.6c0.5-0.8,0.8-1.2,1.1-1.7c2.3-4.2,5.6-7.5,9.4-10.4c0.4-0.3,0.9-0.7,1.4-1c1.6-0.9,2.9-0.6,3.9,0.9
	c0.5,0.8,0.9,1.7,1.2,2.6c0.6,1.6,1.2,3.1,1.7,4.7c1.8,5.3,5.8,8.3,10.9,9.9c4.7,1.5,8.1,0.3,10.6-4c1.2-2,1.9-4.2,2.8-6.3
	c0.8-1.9,1.4-3.9,2.1-5.8c1.5-3.7,4.2-5.6,8.3-5.7c1.9,0,3.8-0.4,5.6-1c4.7-1.7,7.3-5.3,8.3-10.1c0.6-3,1-6.1,1.5-9.2
	c0.8-5.3,4.3-8.5,9.7-8.9c1.6-0.1,3.2,0,4.8-0.1c5.7-0.2,10.9-1.7,15.2-5.5c3.2-2.8,6.3-5.8,9.6-8.8c-0.7-7.3-1.4-14.8-2.1-22.3
	c-0.7-7.5-0.6-15.1-1.7-22.7c-1.2,0-2.1,0-3.1,0c-5.6-0.3-10.8-1.5-15.5-5c-3.7-2.7-7.7-5.2-11.5-7.8c-0.7-0.5-1.4-1-2-1.5
	c0.5-1.2,0.9-2.3,1.3-3.3c1.5-3.9,2.2-8,2.4-12.1c0-0.9,0.2-1.8-0.7-2.4c-2.8-1.8-3.3-4.6-3.2-7.5c0.2-5.9-0.7-11.6-1.5-17.4
	c-1.1-7.4-1.6-14.8-0.8-22.2c0.5-4.5,0.9-9,1.3-13.6c0.1-1.6,0-3.1,0-4.9c-1,0.3-1.9,0.5-2.7,0.8c-4.8,1.5-9.7,2.1-14.6,1.1
	c-2.7-0.5-5.4-1.3-8.1-2.2c-4.2-1.3-5.7-0.8-8.4,2.7c-2,2.5-4.2,5-6.6,7.2c-5,4.4-10.6,7.9-16.9,10.1c-3.1,1.1-6.1,0.9-9-0.6
	c-0.6-0.3-1.3-0.6-1.9-1c-3.5-2.3-7-2.2-10.6-0.2c-1.1,0.7-1.8,1.4-2.1,2.7c-0.5,2.1-1.1,4.2-2,6.1c-3.3,7.6-6.6,15.2-10,22.8
	c-5.2,11.4-9.1,23.3-12.7,35.3c-5.6,19.2-11.8,38.2-19.3,56.9c-5.3,13.3-10.5,26.7-15.4,40.2c-3,8.2-5.6,16.5-9.3,24.3
	c-7.4,15.7-13,32.1-19.9,47.9c-0.3,0.6-0.4,1.3-0.7,2.5c2.8-1.7,5.3-1.4,7.9-1.2c3.4,0.3,6.4-0.9,8.3-3.8c1.3-1.8,2.2-3.9,3.2-5.9
	c0.9-1.8,1.5-3.7,2.3-5.5c2.1-4.3,5.7-5.9,10.3-4.9c1,0.2,2,0.6,3,0.8c2.5,0.7,3.4,0.3,4.2-2c0.3-0.8,0.5-1.7,0.8-2.5
	c1.2-3.8,3.7-6.4,7.6-7.1c3.6-0.6,5.7-2.6,6.3-6.1c0.1-0.3,0.2-0.6,0.3-0.9c1.3-6,4.6-10,10.8-11.5c2.6-0.7,4.7-2.3,6.2-4.6
	c0.5-0.8,1-1.6,1.5-2.4c1.6-2.7,3.7-4.3,7.1-3.7c1.6,0.3,2.7-0.5,3.6-1.8c0.8-1.1,1.5-2.3,2.5-3.2c1.2-1.1,1.9-2.5,2.4-4
	c3.9-12.4,8.4-24.6,13.6-36.6c5.2-11.8,10.5-23.6,15.7-35.4c6.8-15.3,13.6-30.6,18.8-46.6c0.5-1.6,1.2-3.1,1.8-4.6
	c0.2,0.3,0.2,0.6,0.1,0.8c-2.6,8-4.7,16.1-7.8,23.9c-7,17.4-14.4,34.6-22,51.8c-6.8,15.3-13.1,30.8-18.1,46.8
	c-2.2,6.9-3.9,14-2.7,21.4c0.7,4.2-0.2,8.2-2,11.9c-2.8,5.7-6.8,9.8-13.8,9.7c-1.5,0-2.6,0.7-3.5,1.7c-1.5,1.7-1.9,3.6-1.8,5.8
	c0.2,3.5-1.5,5.9-4.6,7.1c-2.1,0.8-4.4,1.3-6.7,1.5c-2.7,0.2-4.3,1.6-5,4c-0.4,1.3-0.5,2.7-0.9,4c-0.4,1.5-0.8,2.9-1.4,4.3
	c-1.1,2.4-3.1,3.6-5.7,3.6c-1.1,0-2.2,0.1-3.4,0c-2.4-0.1-4.5,0.7-6,2.5c-1.5,1.7-2.9,3.6-4.1,5.6c-2.9,5-7.2,7.3-12.9,6.7
	c-1.2-0.1-2.4-0.3-3.6-0.4c-3.5-0.3-6.7,0.7-9.3,3c-1.4,1.2-2.7,2.5-3.8,3.9c-2.5,3.2-2.4,4.4,0.1,7.6c0.2,0.3,0.5,0.6,0.7,0.9
	c1.1,1.3,1.6,2.8,1.7,4.4c0.1,2.9-0.3,5.7-1.4,8.4c-1,2.4-2.7,3.8-5.3,4.5c-2.2,0.5-4.3,0.1-6.4-0.3c-2.8-0.5-4,0-4.9,2.7
	c-0.8,2.4-1.3,4.9-2,7.4c-0.2,0.6-0.3,1.2-0.5,1.8c-0.4-1.7-0.5-3.3-0.4-4.9c0.1-1.3,0.2-2.7,0.6-4c1-3.7,4.8-6.2,8.2-5.2
	c1.1,0.3,2.4,0.3,3.6,0.3c2.6,0,4.5-1.3,5.2-3.8c0.6-1.9,0.8-3.9,1-5.9c0.2-1.8-0.2-3.5-1.6-4.6c-2.3-1.7-2.8-4.1-3.2-6.7
	c-0.7-5-1.4-9.9-0.9-15c0.1-1.1,0.3-2.3,0.4-3.4c-1.2,0.6-1.9,1.4-2.7,2.2c-2.7,2.9-5.3,5.8-8,8.6c-5.9,6.2-10.8,13.2-15,20.6
	c-2,3.5-3.3,7.1-3.5,11.3c-0.3,6.8-0.1,13.4,3.3,19.6c2,3.7,4.7,6.1,8.9,6.9c1.7,0.3,2.7-0.1,3.8-1.1c3.4-3,6.8-6,10.3-9
	c0.7-0.6,1.5-1.2,2.3-1.7c0.1,0.1,0.2,0.2,0.2,0.3c-1,1.1-1.9,2.2-3,3.4c3.4,0.5,5.5,2.1,6.9,4.8c0.7,1.4,1.4,2.9,1.9,4.4
	c0.8,2.6,1.6,5.2,2.3,7.8c0.8,3.1,1.4,6.2,2,9.3c0.4,2.2,0.7,4.4,2,6.3C118,739.7,118.8,740.5,119.6,741.3z M319.4,523.6
	c-0.2-0.1-0.4-0.2-0.6-0.2c-0.8,0.7-1.7,1.3-2.5,2.1c-1.6,1.5-3.1,3-4.7,4.5c-2.9,2.8-6.4,4.7-10.3,5.8c-3.3,1-6.8,1-10.2,1.1
	c-6.4,0-9,2.5-9.6,8.8c-0.3,3.6-0.9,7.1-2.2,10.5c-1.9,5-5.5,8.1-10.7,9.4c-1.6,0.4-3.3,0.6-5,0.6c-2.9,0.1-4.6,1.5-5.6,4.1
	c-0.8,2.2-1.5,4.4-2.3,6.5c-1,2.4-2,4.9-3.4,7.1c-2.1,3.5-5.4,5.2-9.5,4.6c-6.4-0.9-11.4-3.9-14.3-9.9c-1-2.1-1.7-4.3-2.5-6.5
	c-0.4-1-0.9-2-1.5-3.1c-0.9,0.5-1.6,0.7-2.1,1.1c-4.2,3.2-8.1,6.6-10.4,11.6c-1.1,2.5-1.6,4.9-1.2,7.6c1.5,10.5,3,21,4.4,31.5
	c0.6,4,1.1,8,1.6,12.1c-1.1-3.3-1.8-6.8-2.5-10.2c-0.7-3.5-1.4-7-2.1-10.7c-2.9,1.6-5.6,3.1-7.8,5.3c-3.1,2.9-5,6.6-6.8,10.3
	c-2.5,5.4-6.6,9.1-12.1,11.3c-2.2,0.9-4.5,1.8-6.6,2.7c-3.4,1.5-6.1,3.9-7.7,7.2c-0.9,1.8-1.5,3.7-2.1,5.6c-0.8,2.6-1.5,5.2-2.3,7.8
	c-1.1,3.4-3,6.2-5.9,8.2c-2.4,1.6-5,3.2-7.6,4.4c-2.9,1.3-5.1,3.1-6.8,5.8c-1.4,2.2-2.6,4.4-4.1,6.5c-1.3,1.8-2.5,3.7-4.1,5.3
	c-2.6,2.6-5.8,3.2-9.3,2c-1-0.4-1.9-0.8-2.9-1.2c-2.6-1-3.8-0.7-5,1.9c-2.8,6.3-4.2,12.9-3.1,19.8c0.8,4.6,2,9,3.9,13.3
	c1.4,3,2,6.2,2.2,9.5c0.1,1.9-0.7,3.4-2,4.7c-1.2,1.1-2.6,1.3-3.9,0.3c-1-0.8-2.1-1.8-2.6-3c-0.9-2-1.8-4.2-2-6.3
	c-0.7-6.6-3.1-12.7-4.8-19c-0.3-1.1-0.9-2.3-1.6-3.2c-0.8-1-1.7-1.9-2.8-2.5c-1.9-1.1-3.8-0.8-5.4,0.8c-2.1,2.2-4,4.6-6.2,6.5
	c-5,4.3-9.7,8.9-13.4,14.5c-0.2,0.3-0.3,0.8-0.6,1.3c2.8-0.4,4.8,0.6,6.5,2.2c1.1,1,2.3,2,3.1,3.3c2.4,3.4,4.7,6.8,7,10.2
	c2.8,4,5.4,8.1,8.3,12c3.1,4,6.8,7.3,11.1,10.1c2.6,1.7,5.5,2.4,8.6,2.3c9.5-0.6,14.8-8,17.3-15.3c0.2-0.7,0.2-1.4,0.2-2.1
	c0.2-3.3-0.7-6.3-1.8-9.3c-1.7-4.4-4.4-8.3-7.2-12.1c-1.3-1.8-2.7-3.6-3.8-5.5c-1.6-2.8-2.4-5.9-2.2-9.2c0.4-5.4,4.2-9.1,9.1-8.9
	c4.9,0.2,9.9,0.2,14.8,0.2c2.2,0,4.2-0.7,5.9-2.2c1.2-1.1,2.4-2.1,3.7-3.1c2.3-1.8,4.9-2.7,7.8-2.4c2,0.2,4,0.5,5.9,0.8
	c3.1,0.4,6.2,0.9,9.3,0.2c6.1-1.3,10.8-4.3,12.9-10.4c0.6-1.7,1.3-3.4,1.9-5.2c1.1-3.1,2.9-5.9,5.2-8.2c1.2-1.2,2.4-2.3,3.5-3.6
	c5.2-5.9,9.2-12.5,10.8-20.2c1.3-6.3,4.4-11.3,9.3-15.4c3.8-3.2,7.5-6.5,10.8-10.1c4.3-4.7,9.4-8.1,15.4-10.2
	c1.3-0.4,2.5-0.9,3.8-1.4c4.9-1.9,9-5,12.4-9.1c2.6-3.2,4.7-6.7,6-10.5c1.5-4.5,4.3-8,8.3-10.5c1.5-0.9,2.9-2,4.3-3.1
	c2.8-2.1,5.1-4.6,6.7-7.7c0.9-1.8,1.8-3.6,2.8-5.3c2.1-4,4.2-8.1,6.5-12c3.5-6,8.3-10.7,15-13.2c1.1-0.4,2.1-1,3.4-1.6
	C320.7,537.9,320.1,530.7,319.4,523.6z M423.8,533.6c-1.8,0-3.4,0.2-4.9-0.1c-2.2-0.4-3.9,0.3-5.2,2c-1.4,1.9-2.7,3.9-4.3,5.8
	c-1.8,2.2-3.7,4.4-5.9,6.2c-3,2.6-6.7,3.4-10.6,2.4c-1.5-0.4-3-1.2-4.4-1.8c-2.5-1.2-3.6-1-5.3,1.3c-0.9,1.2-1.6,2.6-2.4,3.9
	c-2.6,4.1-6.1,6.9-10.9,8.1c-2.9,0.7-5.9,0.4-8.8,0.1c-3.5-0.4-4.7,0.2-6.3,3.4c-0.8,1.5-1.4,3.1-2,4.6c-1.1,2.6-2.5,5-4.7,6.9
	c-4.8,4-10.1,4.3-15.8,2.3c-1.1-0.4-2.2-1-3.3-1.3c-1.7-0.5-2.5-0.1-3.3,1.5c-0.4,0.8-0.7,1.8-1,2.7c-1.4,5.2-0.9,10.6-0.9,16
	c0,0.4,0.2,0.9,0.5,1.3c2.3,3.2,4.7,6.2,8.8,7.3c4.6,1.2,7.7,4.3,9.9,8.4c0.6,1.1,1.2,2.2,2,3.3c1.6,2.4,3.1,4.9,4.9,7.1
	c3.7,4.6,8.4,7.8,14.3,9.1c5.4,1.2,9.9,3.9,13.6,7.9c1.5,1.6,3.1,3.2,4.8,4.7c4.2,3.7,9.1,5.8,14.8,5.6c1.9-0.1,3.8,0,5.7-0.1
	c4.4,0,8.1,1.6,10.8,5.1c0.9,1.1,1.8,2.3,2.6,3.5c3.6,5.4,8.6,8.9,14.7,11c1.7,0.6,3.5,1.2,5.3,1.5c5.5,0.8,8.4,4,9.4,9.4
	c0.4,2.2,1.3,4.3,2,6.5c0.4-0.5,0.4-0.9,0.3-1.3c-1-6.5-1.9-12.9-2.9-19.4c-1.2-7.6-0.7-15.1,0.4-22.6c1.2-8.3,2.7-16.5,3.7-24.8
	c0.9-6.6,1-13.2-0.1-19.8c-0.9-5.4-2.5-10.6-4.6-15.6c-4.2-9.9-8.5-19.8-12.9-29.6C428.6,548.7,425.7,541.4,423.8,533.6z M337,192.6
	c-0.7-0.5-1-0.7-1.3-0.8c-6.3-3.2-10.9-8.2-15-13.8c-2.3-3.2-3.5-6.8-3.2-10.8c0.2-2.9,0.4-5.9,0.6-8.8c0-0.4,0.3-0.9,0.5-1.3
	c0.6-0.7,1.2-1.4,1.9-2c4.1-4.1,4.6-9.3,4.6-14.6c0-1-0.1-2.1-1.1-2.9c-2.3,1.4-4,3.1-5.1,5.6c-1,2.3-2.1,4.7-3.1,7
	c-0.3,0.7-0.9,1.4-1.3,2.1c-0.2,0-0.4-0.1-0.6-0.1c-0.3-1.8-0.5-3.6-0.9-5.4c-0.4-1.9-0.7-4-1.6-5.7c-1.4-2.9-2.9-5.7-4.7-8.3
	c-2.1-3.1-4.6-5.9-8.7-6.6c-0.8-0.1-1.5-0.5-2.2-0.9c-3.1-1.7-6.4-1.9-9.7-0.6c-4.3,1.6-8,4.2-11.2,7.5c-2.1,2.2-2.6,4.6-1.8,7.5
	c0.6,2.4,0.9,4.8,1.2,7.3c0.2,1.8,0.1,3.7,0.5,5.5c0.5,2.7,0.9,5.6,1.9,8.1c2.4,5.6,5.1,11,7.7,16.5c0.6,1.3,1.5,2.4,2.4,3.6
	c2.4,3.1,5.2,4,9.1,3c4.2-1.1,7.6-3.6,11-6.1c0.4-0.3,0.9-0.6,1.4-0.8c0.1,0.2,0.2,0.3,0.4,0.5c-1.5,1.4-2.8,3.1-4.4,4.3
	c-3.5,2.7-7.5,4.1-11.9,4.3c-1.3,6.4-6.5,8.4-11.6,10.7c2.5,0,4.8-0.2,7.1,0.1c2.2,0.2,4.6,0.4,6.8,1.9c-0.5,0.2-0.6,0.2-0.8,0.2
	c-0.2,0-0.5,0-0.7-0.1c-5.4-1.1-10.8-0.8-16.1,0.6c-1.3,0.4-2.6,0.6-4,0.8c-6.4,1.1-12.5,3-18.2,6.4c-2.2,1.3-3.6,3.1-4.4,5.5
	c-1.6,4.8-1.7,9.7-0.5,14.6c0.8,3.4,1.2,6.9,1.8,10.3c0.1,0.4,0.3,0.8,0.5,1.5c0.7-0.8,1.3-1.3,1.8-1.9c2.1-2.4,4-5,6.2-7.3
	c5.9-6.3,17.9-6.6,23.5,0.3c1.6,1.9,3.2,3.7,4.9,5.7c0.9-0.4,1.7-0.6,2.5-1c3.1-1.5,6.2-2.9,9.2-4.5c3.8-2.1,7.9-3.4,12.1-4.4
	c8.5-2.1,16.2-0.7,22.7,5.3c3.2,2.9,5.9,6.3,8.8,9.5c0.5,0.5,0.9,1,1.6,1.9c0-1,0-1.4,0-1.9c0.2-6,0.3-12,0.5-17.9
	c0-0.8,0.3-1.5,0.4-2.3c0.5,0.4,0.7,0.8,0.7,1.2c0.1,6.9,0.3,13.9,0.2,20.8c-0.1,4.9,0.1,9.9-0.8,14.8c-0.6,3.1-0.4,6.2,0.9,9.2
	c2.3,5.5,1.8,10.7-1.8,15.6c-0.4,0.5-0.5,1.3-0.4,1.9c0.2,2.9,0.7,5.9,0.8,8.8c0.5,13.7,2.7,27.1,6.5,40.3c0.5,1.7,1.3,3.2,2.4,4.6
	c5.4,6.2,10.7,12.5,16,18.8c0.3,0.4,0.7,0.7,1.3,1.3c0.1-1.3,0.2-2.2,0.2-3.2c-0.3-4.9-0.5-9.9-1-14.8c-0.8-7.1-2.1-14.2-3-21.3
	c-1.1-8.5-1.9-17.1-2.9-25.7c-0.8-7.1-0.8-14.2-0.3-21.3c0.7-8.4,0.8-16.9,0.6-25.4c-0.1-7.5-0.3-15-0.2-22.5
	c0.1-6.5-0.7-12.9-2.3-19.2c-1.2-4.9-4.4-7.9-9-9.4c-2-0.6-4-0.9-6.1-1.1c-4.1-0.3-8.1,0.4-12.1,1.1c-2.3,0.4-4.6,0.5-6.9,0.7
	c-3.8,0.2-7.6,0.4-11.5,0.6c-1.3,0.1-2.6,0.3-3.9,0.4c0.3-0.4,0.6-0.6,1-0.7c3.7-1.1,7.5-1.3,11.4-1.5
	C330,193.7,333.3,193.5,337,192.6z M420.9,512.6c-0.1-0.3-0.1-0.7-0.2-1.1c-1.6-5.6-3.2-11.2-4.7-16.8c-1.5-5.9-3-11.9-4.2-17.9
	c-1.2-6.2-2.1-12.4-4-18.4c-1.4-4.3-2.4-8.8-3.7-13.1c-0.2-0.7-0.7-1.4-1.3-1.8c-7.2-4.9-15.4-3.5-20.6,1c-2.6,2.3-5.7,3.9-9.1,4.6
	c-7.3,1.6-14.6,1.8-21.2-2.6c-0.8-0.6-1.6-0.6-2.4,0.1c-0.4,0.3-0.8,0.6-1.2,0.8c-5.2,3.4-10.8,4.1-16.7,2c-1.6-0.6-3-1.4-4.5-2.2
	c-1.3-0.7-2.6-0.8-3.9-0.2c-3.5,1.6-6.9,3.7-11,4.1c0.7,2.2,1.4,3.9,1.8,5.8c2,8.7,3,17.6,4,26.5c0.2,1.7,0.2,3.3,0.3,5
	c0.1,1.8,0.1,3.5,0.3,5.3c0.1,1.7,0.3,3.3,0.4,5c0.1,1.7,0.3,3.3,0.4,5c0.2,1.7,0.3,3.5,0.5,5.2c0.2,1.7,0.3,3.3,0.5,5
	c0.2,1.7,0,3.7,0.6,5.2c0.7,1.6,0.1,3.1,0.4,4.7c0,0.1,0,0.2,0,0.2c0.5,4.4,0.9,8.9,1.4,13.3c0.3,2.7,0.4,5.3,0.6,8.3
	c0.8-0.5,1.4-0.8,2-1.2c1.8-1.3,3.7-1.8,5.9-1.1c2.5,0.9,4.8,0.3,6.8-1.3c1.8-1.4,3.4-3.1,5-4.7c1.4-1.4,2.5-3.1,3.9-4.5
	c2.1-2.1,4.5-2.9,7.4-1.7c1.8,0.7,3.6,1.2,5.4,2c3.7,1.5,6.9,0.8,9.7-1.8c1.1-1,2.1-2,3.1-3c1-1,2.1-2,3.2-2.9
	c2.7-2.4,5.6-3.1,9.1-1.8c1.6,0.6,3.2,1,4.8,1.4c4.7,1.2,8.9,0.2,12.5-3c2-1.8,3.9-3.8,5.6-5.9c1.8-2.3,3.9-3.5,6.7-3.5
	C416.5,512.6,418.6,512.6,420.9,512.6z M382.6,733.7c-2.1-0.3-3.9-0.4-5.7-0.8c-4.4-1.1-8.7-0.8-13,0.4c-4.5,1.3-9,2.6-13.6,3.8
	c-6.2,1.7-12.4,1.4-18.3-1.1c-3.6-1.5-7.1-3.3-10.5-5.2c-2.6-1.4-5.1-1.6-7.6,0.1c-2.2,1.5-4.4,3-6.5,4.5c-3.9,2.7-7.9,5.2-12.5,6.3
	c-11.8,2.7-23,1.5-33.3-5.3c-2.1-1.3-4.2-2.6-6.5-3.6c-7.7-3.2-15.2-2.7-22.7,1.4c0.2,5.3,0.3,10.5,0.5,15.8
	c0.2,4.1,0.5,8.3,0.8,12.4c0.4,5.7,0.8,11.5,1.4,17.2c0.3,2.9,1.5,5.5,3.6,7.7c2.3,2.4,4.1,2.8,7.1,1.3c1.4-0.6,2.7-1.4,4-2.1
	c4.2-2.1,8.5-2.7,13-1.4c1.9,0.5,3.8,1.1,5.7,1.8c5.6,2,11,1.5,16.2-1.3c1.6-0.9,3.3-1.7,4.9-2.4c3.3-1.5,6.6-1.6,10-0.3
	c1.4,0.5,2.8,1.1,4.2,1.7c3.8,1.6,7.8,2.4,11.8,3c0.4,0.1,0.8,0.1,1.2,0.1c3.6,0,6.6-2.6,6.6-6.2c0.1-2.9,0.8-4.1,4.5-5.3
	c1.6-0.5,3.3-0.5,5-0.5c4.4,0,8.8-0.1,13.2,0.1c5.9,0.2,11.6-0.9,17-3.4c2.3-1.1,4.6-2.2,6.9-3.3c1.8-0.8,3.7-1.5,5.6-2.1
	c3.2-1,6-0.1,8.2,2.5c0.7,0.8,1.3,1.6,2.1,2.3c2.2,1.9,4.6,2.4,7.3,1.2c1.6-0.7,2.8-1.8,3.9-3.1c1.9-2.3,3.5-2.5,6-1
	c0.6,0.4,1.2,0.8,1.8,1.2c0.8,0.4,1.7,0.7,2.5,1C397.8,759.3,390.2,746.4,382.6,733.7z M294.2,326.6c-0.5,1.3-0.8,2.1-1.1,2.9
	c-1,2.7-2.4,5-4.4,7.1c-2.6,2.6-5.4,5-8.6,6.8c-7.1,4.1-14.6,7.2-22.5,9.3c-8.9,2.3-17.8,2.4-26.5-1.3c-0.1-0.1-0.3,0-0.8,0
	c-1.3,1.3-2.7,2.6-4.1,4.1c-6.1,6.6-11.6,13.5-16.9,20.8c-5.6,7.8-11.5,15.5-17.3,23.2c-0.7,0.9-1.3,1.9-2,2.8
	c0.1,0.1,0.3,0.2,0.4,0.4c0.7-0.6,1.3-1.2,2-1.8c3.5-3.1,7.1-5.9,11.4-7.8c3-1.3,5.9-1.3,8.8,0.2c0.6,0.3,1.3,0.6,1.9,1
	c3.7,2.4,7.5,2.3,11.4,0.5c4.8-2.2,9.2-5,13.3-8.4c2.8-2.4,5.4-5,7.6-8c2.6-3.5,5.2-4.3,9.4-3c0.8,0.2,1.7,0.6,2.5,0.8
	c6.4,2.2,12.8,2.5,19.3,0.3c4-1.3,8-2.8,11.8-4.5c3.5-1.5,6.6-1.2,9.6,1.2c3.7,3.1,8.2,4.2,13,4.1c1.7,0,3.5-0.3,5.2-0.6
	c4-0.7,7,0.7,9.3,4c1.3,1.8,2.5,3.5,3.8,5.3c1.6,2.1,3.6,3.6,6,4.7c3.7,1.6,7.6,2.4,11.7,1.8c2.1-0.3,4.3-0.6,6.4-1
	c6-0.9,11.8-1.3,17.6,1.3c3.7,1.7,7.9,2.2,11.9,1.1c4-1.1,7.2,0,9.9,3.1c1.6,1.9,3.3,3.7,5,5.5c2.8,3,6.5,4.4,10.2,5.9
	c-0.6-1.5-1.2-2.9-2-4.1c-1.9-2.6-3.7-5.2-5.9-7.5c-7.5-7.8-14-16.4-20.3-25.1c-2.4-3.3-5-6.4-7.6-9.5c-0.3-0.4-0.6-0.8-1-0.9
	c-4-0.9-8.1-1.8-12.1-2.6c-1.7-0.3-3.5-0.4-5.2-0.9c-5.3-1.4-10-4.2-14.1-7.8c-2.9-2.5-6.2-3.9-9.9-4.3c-7-0.9-13.9-2.2-20.6-4.3
	C303,339,296.7,335.3,294.2,326.6z M517.7,702.7c-0.3,0.5-0.6,0.9-0.8,1.3c-1.6,3-3.8,5.5-6.7,7.4c-1.7,1.1-3.4,2.1-5.2,3
	c-2.4,1.3-4.4,3-5.4,5.6c-0.9,2.2-1.6,4.5-2.1,6.8c-1.1,5.3-3.4,9.9-7.4,13.7c-0.9,0.8-1.5,1.9-2.2,2.8c0.1,0.1,0.2,0.3,0.3,0.4
	c5.2-1.3,10.5-2.6,15.7-3.8c-0.6,0.6-1.2,1.1-2,1.3c-5.6,1.8-11.2,3.6-16.9,5.3c-1.8,0.6-3.8,0.8-5.5,1.6
	c-5.1,2.3-10.3,3.4-15.8,1.8c-4.9-1.4-9.8-1.3-14.7-0.2c-1.9,0.5-3.9,0.8-5.8,1.3c-6.1,1.5-12.1,1.5-18.2-0.1
	c-6.2-1.6-12.1-4.1-17.9-6.7c-4.8-2.1-9.7-4.2-14.9-5.2c-1.5-0.3-3-0.7-4.7-0.2c0.2,0.5,0.4,0.8,0.5,1c4.5,6.8,8.9,13.6,13.5,20.3
	c4.9,7.2,11.1,13.1,18.3,18c2.5,1.7,5.1,2.9,8.1,3.3c4.7,0.7,9.4,1.8,13.9,3.6c3,1.2,6,2,9.3,2.1c6.4,0.3,12.6-0.9,18.4-3.5
	c5.8-2.6,11.9-4.1,18.1-5.2c6.1-1.1,12.2-2.2,18-4.8c4.7-2.2,9-4.8,11.1-9.9c2.2-5,5.4-9.4,9.1-13.4c4.5-4.9,7.4-10.7,10.3-16.6
	c1-2.1,1.3-4.3,0.9-6.5c-1.1-6.8-3.3-13.1-8.3-18.2C525.8,705.9,522.2,703.8,517.7,702.7z M333.6,300.9c0.9-4,1.7-7.7,2.5-11.3
	c0.2-0.7,0.3-1.4,0.7-2c1.2-2.2,2.4-4.3,3.7-6.4c1.3-2.1,1.4-4.2,0.3-6.3c-0.2-0.4-0.3-0.7-0.5-1.1c-1.8-4-1.6-7.9,0.3-11.8
	c0.7-1.5,1.5-3,2.3-4.4c1.1-2.1,1-4.1,0-6.2c-1-2.1-2.7-3.4-4.9-3.9c-3.1-0.6-6.3-1.2-9.4-1.4c-7-0.4-13.8-1.6-19.9-5.4
	c-1.7-1.1-3.6-1.4-5.5-1.1c-4.5,0.6-9,1.2-13.5,2c-3.7,0.7-7.3,1-10.8-0.3c-2.2-0.8-4.4-0.5-6.6,0.2c-3.2,1.1-6.5,2.3-9.7,3.3
	c-2.3,0.7-4.6,1.3-7,2c0,1-0.1,2,0,2.9c0.5,7.4,2.7,14.3,6,21c2.6,5.4,4.8,11,5.8,16.9c0.1,0.5,0.2,1,0.4,2c2.7-2.6,4.8-5.2,6.7-7.9
	c1.9-2.8,4-5.4,5.9-8.2c1.9-2.8,3.8-5.5,5.4-8.4c1.6-2.9,2.8-6,4.2-8.9c0.2,0,0.4,0,0.6,0c0.3,0.7,0.6,1.3,0.8,2
	c0.5,1.8,0.8,3.6,1.5,5.3c4.1,9.4,10.4,17.1,17.9,24c3.9,3.6,8.9,5.5,13.7,7.6C327.9,296.4,331.1,297.8,333.6,300.9z M286.4,458
	c0.1,0.1,0.3,0.2,0.4,0.4c1-1.1,2.1-2.1,3.1-3.3c2-2.6,4-5.2,5.9-7.8c1.4-1.9,2.6-2.2,4.7-1.1c0.4,0.2,0.7,0.4,1,0.6
	c4.4,2.7,9,3,13.8,1.5c2-0.6,3.8-1.6,5.7-2.5c2.7-1.5,5.2-1.5,7.9,0.1c6.5,3.7,13,3.5,19.1-1c1.8-1.3,3.4-1.5,5.2-0.1
	c2.2,1.6,4.6,2.5,7.3,2.8c2.3,0.2,4.6,0.3,6.9,0.2c4.7-0.1,8.9-1.6,12.6-4.5c0.8-0.6,1.6-1.3,2.5-1.9c5.9-3.7,12.1-4.4,18.4-1.4
	c5.3,2.5,9.9,5.8,13.3,10.7c0.3,0.4,0.7,0.8,1.1,1.2c0.1-0.1,0.3-0.2,0.4-0.3c-1.1-1.6-2-3.2-3.2-4.7c-4.9-6.1-9.9-12.1-14.9-18.1
	c-2.6-3.2-5.2-6.4-7.8-9.7c-0.9-1.1-1.8-1.4-3.3-0.7c-4.1,1.9-8.3,2.7-12.8,1.1c-0.4-0.2-0.9-0.2-1.4-0.3c-3.2-0.6-6.5-1-9.7,0.1
	c-1.3,0.4-2.5,0.9-3.8,1.4c-2.7,1-5.5,1-8.2,0.1c-2.9-1-6-1.8-8.8-3.1c-2.8-1.2-5.3-1.3-8.1-0.1c-3.1,1.4-6.4,1.6-9.9,1.1
	c-3.6-0.5-7-1.5-10.3-2.9c-4.7-2.1-9-1.1-12.6,2.3c-3.6,3.4-7.3,6.5-11.5,8.9c-2.2,1.2-3,3.2-2.6,5.7c0.4,2.4,0.8,4.9,1.1,7.3
	c0.6,5.1,0.6,10.2-0.8,15.2C287,456.1,286.6,457,286.4,458z M322.3,596.7c-0.1-1.5-0.2-3-0.2-4.5c-0.1-4.4-0.3-8.8,1.2-13
	c1.4-4,3.8-5,7.7-3.5c1.2,0.5,2.3,1.1,3.6,1.4c6.9,1.7,12.5-0.5,15.5-6.9c0.5-1.2,1-2.4,1.5-3.5c0.7-1.4,1.3-2.9,2.2-4.2
	c1.5-2.3,3.6-3.6,6.5-3.2c0.9,0.1,1.7,0.2,2.6,0.3c6.7,0.9,12.1-1.3,15.9-7c0.6-0.9,1.1-1.9,1.8-2.8c0.6-0.9,1.2-1.9,2-2.7
	c1.8-1.9,3.7-2.2,6.1-1.2c1,0.4,2,1,3,1.5c3.3,1.5,6.6,1.4,9.5-0.7c1.8-1.3,3.5-2.8,4.9-4.5c1.9-2.2,3.5-4.7,5.3-7.1
	c1.9-2.7,4.3-4.1,7.8-3.5c1.8,0.3,3.6,0.2,5.4-0.7c0-0.5,0.1-0.9,0-1.2c-0.6-3.4-1.2-6.7-1.9-10.1c-0.8-3.9-1.1-4-5-4.5
	c-0.3,0-0.6-0.1-1-0.1c-3.1-0.1-5.6,0.8-7.6,3.5c-1.7,2.3-4,4.4-6.2,6.2c-3,2.5-6.6,3.5-10.5,3.1c-2.4-0.3-4.9-0.8-7.2-1.7
	c-3.4-1.3-6.2-0.8-8.7,1.8c-0.4,0.5-0.9,0.9-1.4,1.3c-1.4,1.3-2.8,2.7-4.2,3.9c-3.4,3.1-7.3,3.8-11.6,2.1c-1.9-0.7-3.7-1.4-5.6-2.2
	c-1.8-0.8-3.5-0.5-4.9,0.9c-1.2,1.2-2.3,2.6-3.5,3.9c-1.9,2-3.8,4.1-6,5.8c-2.3,1.8-5,2.6-7.9,1.7c-2.3-0.7-4.2-0.2-6.2,0.8
	c-1.3,0.7-2,1.5-2,3.1c0,3.1-0.1,6.2-0.4,9.3c-0.8,7.7-1.8,15.4-2.6,23.1c-0.4,3.6-0.6,7.2,0.1,10.7
	C320.7,593.8,321,595.4,322.3,596.7z M369.8,357.6c-0.2-0.3-0.5-0.7-0.8-1.1c-5.5-6.5-11-13-16.6-19.5c-4-4.7-8.2-9.4-12.1-14.2
	c-1.7-2.1-3-4.6-4.5-7c-0.4,0.4-0.9,0.7-1.3,1c-4.1,3.4-8.7,4.5-13.9,3.7c-3.7-0.6-7.2-1.6-10.3-3.6c-1.9-1.2-3.6-1.1-5.5,0.3
	c-5.6,4.2-11.9,4.3-17.8,0.4c-0.5-0.3-1.1-0.7-1.6-1.1c-2.4-1.8-4.9-2-7.6-0.5c-1.1,0.6-2.3,1.1-3.5,1.6c-2.8,1.1-5.5,1.1-7.8-1.1
	c-0.1-0.1-0.3,0-0.5,0c-0.2,0.3-0.4,0.6-0.6,1c-5.3,9-12.1,16.6-20.7,22.6c-3.7,2.6-7.3,5.4-10.9,8.1c-0.7,0.6-1.4,1.2-2.2,1.9
	c0.4,0.3,0.6,0.5,0.8,0.5c3.9,0.6,7.7,1.4,11.6,1.6c5.2,0.2,10.3-0.8,15.3-2.3c9.3-2.9,18.1-6.5,25.8-12.7c2.3-1.9,4.4-4,5.6-6.7
	c0.9-1.9,1.6-3.8,2.4-5.7c0.2-0.5,0.6-0.9,1.3-1.9c0.5,1.3,0.7,2,1,2.7c1.1,3.5,2.9,6.5,5.8,8.9c3.3,2.7,7,4.4,11.1,5.3
	c5.8,1.3,11.7,2.5,17.6,3.4c5.1,0.8,9.6,2.5,13.6,5.8c4.1,3.4,8.8,6.1,14.2,7C361.7,356.6,365.8,357.1,369.8,357.6z M285,430
	c0.5-0.8,0.7-1.3,1-1.6c1-1.1,1.8-2.5,3.1-3.3c4-2.3,7.4-5.3,10.7-8.4c4.1-3.8,8.9-4.8,14.2-2.9c0.8,0.3,1.6,0.7,2.5,0.9
	c6.2,2,12.4,3.2,18.6,0.3c2-0.9,4.1-0.5,6.1,0.1c2.8,0.9,5.6,1.8,8.4,2.8c3.8,1.5,7.4,1.4,11.1-0.4c2.1-1,4.4-1.5,6.7-1.3
	c2.5,0.2,5,0.3,7.3,1c4.9,1.5,9.2,0,13.5-2.4c-3-6.3-7.1-11.8-9-18.4c-3.9-0.4-7.4-1.5-10.8-2.8c-1.4-0.6-3.1-0.9-4.6-0.8
	c-3.9,0.3-7.8,0.7-11.6,1.3c-4.9,0.7-9.7,0.7-14.4-0.8c-0.9-0.3-2.1-0.4-3-0.2c-2.7,0.5-5.4,1.3-8.1,2c-2.5,0.7-5,0.9-7.6,0.2
	c-3.5-0.9-7.1-1.8-10.7-2.7c-2.5-0.6-4.9-0.6-7.2,0.6c-2.7,1.4-5.4,2.8-7.9,4.4c-3.3,2.1-6.5,4.1-10.8,3.8
	C281.8,411.1,284,420.2,285,430z M108.1,660.4c0.2-0.1,0.3-0.1,0.4-0.1c0.5-0.5,0.9-1.1,1.4-1.7c3.9-4.6,8.6-7.6,14.9-7
	c0.9,0.1,1.8,0,2.6,0.1c5.4,0.7,9-1.5,11.5-6.3c0.9-1.8,2.3-3.4,3.6-5c2.2-2.6,5.1-3.7,8.5-3.6c1,0,2.1,0,3.1,0
	c1.4,0,2.5-0.6,3.1-1.9c0.6-1.2,1.1-2.5,1.5-3.8c0.4-1.3,0.4-2.7,0.8-4c1.1-4,3.4-5.9,7.5-6.2c0.9-0.1,1.8-0.1,2.6-0.3
	c5.3-1.2,6.7-3.2,6.4-7.3c-0.3-4.1,3.5-8.9,8.6-8.7c3,0.2,5.4-1.2,7.4-3.3c4.2-4.6,5.7-10,5-16.1c-0.4-3.4-0.5-6.8,0.1-10.2
	c0.2-1.3,0.4-2.5,0.6-4.2c-3.2,4-3.2,3.9-8,4.1c-0.9,0-1.8,0.5-2.5,1.1c-0.7,0.5-1.2,1.3-1.6,2.1c-2.2,4.3-5.7,7-10.4,8.2
	c-0.4,0.1-0.8,0.3-1.1,0.4c-2.5,1-4.3,2.7-5.2,5.3c-0.5,1.4-1.1,2.8-1.4,4.3c-1,4.4-3.3,7.2-8.1,7.9c-3.2,0.5-5.1,2.7-6.1,5.8
	c-0.3,1.1-0.6,2.2-1,3.2c-1.2,2.8-3,3.7-5.9,2.9c-1.2-0.3-2.4-0.8-3.7-1c-3.8-0.7-6.1,0.5-7.8,3.9c-0.5,1.1-0.9,2.2-1.4,3.3
	c-0.9,2-1.7,4.1-2.8,6.1c-2.9,5.2-7.2,7.1-13,6.2c-0.9-0.2-1.9-0.3-2.8-0.3c-3,0-4.3,1.1-5,4c-0.1,0.5-0.2,1.1-0.4,1.6
	c-1.7,4.5-2.3,9.3-2.3,14.1C107.2,656.2,107.3,658.4,108.1,660.4z M266.8,315.4c0.5,0.3,1.2,0.8,2,1.1c1.7,0.6,3.3,0.2,4.9-0.5
	c1.1-0.5,2.1-1.1,3.2-1.7c3.1-1.8,6.2-1.7,9.2,0.3c0.8,0.5,1.6,1.1,2.4,1.6c5,3.2,11.4,2.4,14.8-0.6c2.5-2.2,5.3-2.3,8.2-0.6
	c2.6,1.6,5.5,2.6,8.5,3.1c5.1,0.9,9.7,0.1,13.6-3.5c0.9-0.8,1.3-1.6,1-2.9c-0.4-2-0.6-4.1-0.9-6.1c-0.1-0.6-0.1-1.3-0.4-1.8
	c-1.5-2.2-3.2-4.2-5.7-5.3c-1.7-0.7-3.3-1.5-5-2.2c-5.7-2.3-11.1-5-15.3-9.6c-3.5-3.9-6.9-7.9-10.1-12.1c-2.8-3.7-5-7.8-6.3-12.3
	c-0.1-0.5-0.4-0.9-0.6-1.3c-1.9,3.4-3.6,6.8-5.7,9.9c-2.7,4.1-5.5,8-8.5,11.8c-1.9,2.4-4.1,4.7-6.4,6.8c-1.3,1.1-1.6,2.1-1.5,3.6
	c0.3,4.1,0.6,8.1,0.4,12.2C268.4,308.5,267.5,311.8,266.8,315.4z M230.8,744.3c-4.5-0.8-7.8-3-10.5-6.2c-1.2-1.5-2.4-3-3.7-4.4
	c-1.3-1.5-2.7-3-4.1-4.4c-2.1-2.1-4.7-3.2-7.6-3.6c-3.4-0.5-6.7,0.3-10,0.9c-3.6,0.7-7.2,1.5-10.9,1c-7.1-1.1-12.8-4.6-17.7-9.7
	c-1.5-1.5-3-3.1-4.7-4.5c-2.9-2.3-6.2-3.1-9.9-2.2c-1.5,0.4-3.2,0.5-4.7,0.5c-3.7-0.1-7.5-0.4-11.2-0.5c-4,0-6.7,1.9-7.4,5.4
	c-0.8,3.8,0.1,7.2,2.1,10.4c0.3,0,0.5,0,0.6-0.1c8.5-3.8,17.1-4.2,25.7-0.1c5,2.4,9.8,5.1,14,8.7c6.4,5.4,13.5,9.8,20.9,13.8
	c9,4.9,18.2,9.2,28.3,11.4c3.3,0.7,6.6,1.8,9.9,2.6c0.5,0.1,1,0.2,1.7,0.3C231.4,757.2,231.1,750.9,230.8,744.3z M75.1,687.9
	c-0.2,0-0.3-0.1-0.5-0.1c-0.4,0.7-0.7,1.4-1.1,2.1c-5.2,10.2-11.2,19.8-18.9,28.4c-2.5,2.7-4.8,5.5-7.3,8.2c-1.7,1.9-2.6,4-2,6.6
	c0.4,1.9,0.7,3.8,1.1,5.6c0.9,3.7,2.9,6.3,6.4,8.1c6.6,3.3,11.3,8.5,12.7,16.1c0.4,1.9,1.2,2.4,3.1,1.8c2.8-0.8,4.4-2.7,5-5.5
	c0.5-2.3,0.4-4.6-0.1-6.9c-1.5-6.4,0.1-12.3,2.2-18.2c1.7-4.7,4.7-8.7,8-12.4c1.6-1.7,3.2-3.3,4.9-5.1c-0.6-0.2-1-0.5-1.5-0.6
	c-3.9-0.9-6.6-3.2-8.5-6.7c-3.1-5.7-4.2-11.8-3.8-18.2C74.9,689.9,75,688.9,75.1,687.9z M345.3,250.3c0-0.3,0.1-0.7,0.1-1
	c-0.2-3.1-1.1-6-3.1-8.4c-2.2-2.7-4.4-5.3-6.8-7.7c-3.6-3.6-7.9-5.9-13-6.6c-3.6-0.5-7.1,0.2-10.7,1c-5.5,1.2-10.4,3.9-15.5,6.2
	c-3.1,1.4-6.4,2.4-9.6,3.5c-0.2,0.1-0.4-0.1-0.8-0.1c0.4-0.5,0.7-0.9,1.1-1.4c-1.6-1.7-3.2-3.5-4.9-5.2c-3.4-3.4-7.6-4.5-12.3-3.9
	c-3.6,0.4-6.7,2-9,4.9c-3.6,4.5-7.4,8.8-11.5,12.8c-1.5,1.5-2.5,3.5-3.6,5.3c-0.3,0.4-0.3,1-0.4,1.6c2.3-4.2,5.9-6,10.4-6.6
	c0.2,0,0.5-0.1,0.7-0.2c5-1.4,10-2.9,14.9-4.4c2.7-0.8,5.4-1.5,8.2-0.5c3.3,1.2,6.6,0.9,9.9,0.3c3.8-0.7,7.7-1.3,11.6-1.9
	c3.7-0.6,7.3-0.2,10.6,2c0.5,0.4,1.1,0.6,1.7,0.9c3.5,1.8,7.1,2.8,11,2.9c3.4,0.1,6.8,0.5,10.2,0.9c4.2,0.5,8.2,1.7,10.5,5.7
	C344.9,250.3,345.1,250.3,345.3,250.3z M333.6,391.5c-3.7-2.4-5.8-5.6-7.9-8.8c-2.2-3.3-4.9-4.7-8.9-3.8c-7.1,1.5-13.6,0-19.4-4.5
	c-0.4-0.3-0.9-0.8-1.4-0.9c-0.9-0.2-2-0.6-2.7-0.3c-3.5,1.2-6.8,2.5-10.3,3.9c1.4,7.8-0.6,15.3-0.4,22.8c2.5,0.2,4.5-0.6,6.4-1.7
	c1.3-0.8,2.4-1.8,3.7-2.6c2.4-1.4,4.8-2.8,7.3-4c2.5-1.2,5.2-1.4,7.9-0.7c3.1,0.8,6.2,1.5,9.3,2.4c3.3,0.9,6.6,1.1,9.9,0
	C329,392.6,331.1,392.2,333.6,391.5z M315,474.3c-0.8-7.8-2-15.3-3.7-22.8c-0.6-0.1-1-0.1-1.3-0.2c-3.4-0.1-6.6-1-9.4-3
	c-0.3-0.2-0.5-0.3-0.8-0.5c-1-0.5-1.8-0.3-2.5,0.6c-3.3,4.5-6.5,9.1-11.2,12.1c4.5,3.1,8.8,6.2,13.2,9.1c1.7,1.1,3.7,2,5.6,2.5
	C308.1,473,311.4,473.6,315,474.3z M254.7,328.8c0.2-0.1,0.4-0.2,0.6-0.4c2.6-3.1,5.2-6.2,7.8-9.4c0.4-0.5,0.6-1.3,0.9-1.9
	c4.2-12,3.2-24-0.2-36c-0.5-1.9-1.2-3.5-3.6-3.8c-1.1-0.1-2.1-1-3.2-1.5c-0.5-0.3-1-0.6-1.4-0.8c0.5,5.8,1.3,11.5,1.5,17.2
	c0.3,7,0.1,14,0.2,21.1C257.2,318.5,257,323.8,254.7,328.8z M380.5,396.7c0.2,0.6,0.3,0.9,0.5,1.2c3.5,6.1,7.1,12.3,10.7,18.4
	c0.3,0.6,1,1.1,1.6,1.3c2.6,0.9,5.3,1.9,8,2.5c3.3,0.8,6.4-0.1,8.8-2.5c2.3-2.2,1.8-4.9-0.9-6.5c-1-0.6-2.1-1.2-3.2-1.7
	c-4.5-1.9-8.2-4.9-11.3-8.6c-1.2-1.4-2.4-2.8-3.9-3.9c-0.9-0.7-2.3-1.3-3.5-1.3C385.1,395.7,382.9,396.3,380.5,396.7z M344.5,283.3
	c-2,2-3.7,3.6-5.4,5.3c-0.3,0.3-0.5,0.8-0.7,1.3c-2,6.3-3.3,12.7-2.2,19.3c0.7,3.8,1.6,7.6,4.1,10.6c3.1,3.9,6.6,7.6,10,11.3
	c0.3,0.3,0.7,0.6,1.5,1.2c-0.9-3.2-1.7-6-2.4-8.7c-2.1-7.7-3.6-15.5-4-23.5c-0.2-4.5-0.3-8.9-0.4-13.4
	C344.8,285.7,344.6,284.7,344.5,283.3z M254.6,247c-2.2,0.2-4.1,0.7-5.6,2.4c-1.8,2.1-2.9,4.5-3.3,7.3c-0.4,3.3,0.2,4.8,3.2,6.2
	c3.2,1.6,5.4,3.9,6.2,7.4c0.1,0.5,0.3,0.9,0.5,1.3c1.3,2.3,3.2,3.5,6.1,4.2c-0.4-1.2-0.7-1.9-1-2.6c-0.8-1.8-1.7-3.6-2.5-5.5
	c-2.5-6.3-4.4-12.8-3.6-19.8C254.7,247.7,254.6,247.4,254.6,247z M413.6,475.6c0.2,0,0.4,0,0.6,0c0.9-1,1.8-2,2.6-3.1
	c3-3.9,3.4-8,1-12.5c-2.3-4.2-5.2-8-8.3-11.6c-0.9-1-2.1-1.9-3.1-2.8c-0.2,0.1-0.3,0.2-0.5,0.3C409.1,455.7,412.7,465.3,413.6,475.6
	z M199.3,397.9c-0.4,0.2-0.8,0.4-1.2,0.7c-3.9,3.4-7.8,6.8-11.6,10.3c-0.6,0.6-0.9,1.7-0.9,2.6c-0.1,4.2,1,8.2,2,12.4
	C190.8,414.9,196.1,406.9,199.3,397.9z M344.6,279.7c2.4-3.2,2.7-6.8,2-10.5c-0.6-3-1.7-5.9-2.6-8.9c-2.3,3.7-3.5,7.5-2,11.7
	C342.8,274.5,343.7,276.9,344.6,279.7z M286.4,440.7c-0.1-1.1-0.2-2.2-0.3-3.3c-0.1-1-0.2-2-0.4-3.5
	C284.7,436.6,284.8,438.7,286.4,440.7z"/>
<path class="st0" d="M321.1,546.9c0,2.5,0.2,4.7,0,6.9c-0.7,7.3-1.6,14.6-2.3,21.9c-0.5,5.3-1.4,10.6-0.4,16c0.4,2,1.1,4,1.8,5.9
	c0.5,1.5,1.4,2.9,3.1,3.4c0.4,0.1,0.7,0.6,1,1c2.2,2.9,5.1,4.8,8.5,5.9c3.3,1.1,5.8,3.2,7.5,6.3c1.9,3.2,3.9,6.4,5.9,9.6
	c2.1,3.2,4.8,5.9,7.9,8.2c2.9,2.1,6,3.6,9.5,4.3c4.8,1,8.7,3.4,12.1,6.9c2.1,2.2,4.4,4.4,6.8,6.4c4.2,3.4,9,5.1,14.4,5
	c2.2,0,4.5,0,6.7,0c3.4-0.1,6.2,1.4,8.3,4c0.9,1.1,1.8,2.2,2.6,3.4c4.4,6.8,10.8,10.7,18.5,12.8c1.5,0.4,3.1,0.8,4.6,1.2
	c2.8,0.7,4.5,2.5,5.4,5.2c1.1,3.8,2.3,7.5,3.4,11.2c1.9,6.9,7.1,9.2,12.6,9.6c2.7,0.2,5.4,0,8.1-0.1c5.7-0.1,11.5-0.2,17.2-0.3
	c0.3,0,0.6-0.1,1.3-0.1c-0.6-0.4-0.8-0.7-1.2-0.7c-5.5-1.3-11.1-2.1-16.8-1.4c-2.7,0.3-5.4,0.3-8.1,0.2c-1.5-0.1-3-0.5-4.4-0.9
	c-1.4-0.3-2-1.1-2.4-2.6c-1.5-6.1-3.4-12.1-4.8-18.3c-0.7-3.1-0.9-6.3-0.9-9.5c0-6.1,0.2-12.1,0.4-18.2c0-0.8,0.2-1.5,0.4-2.7
	c1.6,2.5,3.7,3.7,5.8,4.7c0.4,0.2,0.7,0.4,1,0.6c5.4,4.5,11.9,6.6,18.7,8.1c5.9,1.4,11.8,2.9,17.5,4.8c7.6,2.4,13.1,7.5,16.7,14.6
	c0.7,1.3,1.4,2.7,2,4.1c2.4,5.7,5.9,10.7,10,15.4c0.3,0.4,0.6,0.7,1,1.2c-15.5-3.6-30.4-8.3-44.6-16.1c0.5,1.4,1.3,1.8,2.1,2.3
	c4,2.1,7.9,4.4,12.1,6.3c7.5,3.5,15.4,6.2,23.5,8.1c0.6,0.1,1.2,0.4,2,0.6c-1.4,3.1-3.4,5.5-6.1,7.3c-1.6,1.1-3.4,2.1-5.2,3
	c-3.6,1.8-5.9,4.6-7.1,8.3c-0.7,2.3-1.3,4.6-1.8,6.9c-0.8,3.6-2.4,6.8-4.5,9.9c-1.7,2.6-4.1,4.4-6.4,6.3c-0.6,0.5-1.5,0.8-2.4,1
	c-7.6,1.1-14.9,0.4-22-2.7c-2.3-1-4.8-1.9-7.1-2.9c-8-3.6-16.3-6.5-25-7.9c-7.9-1.3-14.6-5-20.3-10.5c-5.2-5-10.5-9.8-15.4-15.1
	c-10.4-11.4-22-21.3-34.6-30c-12.2-8.4-21.3-19.4-26.8-33.3c-0.5-1.2-1.2-2.4-2.1-3.5c0.2,0.8,0.4,1.6,0.7,2.4
	c3.7,11.1,9.6,20.9,18.3,28.8c4,3.7,8.2,7.2,12.6,10.3c10.8,7.4,20.3,16.2,29.2,25.8c5,5.3,10.1,10.4,15.3,15.5
	c5.3,5.2,11.4,9.3,18.7,11.2c3.4,0.9,6.9,1.5,10.3,2.3c5.8,1.4,11.4,3.5,16.9,5.8c4.9,2.1,9.9,3.9,15,5.7c1.6,0.6,3.3,0.8,5,1.2
	c0,0.2-0.1,0.4-0.1,0.6c-1.8-0.2-3.6-0.2-5.3-0.7c-6.5-2-12.9-1.3-19.4,0.3c-2.9,0.7-5.9,1.3-8.9,1.7c-5.2,0.6-10.2-0.5-15-2.2
	c-6.1-2.2-12.1-4.5-18.1-6.9c-4.9-1.9-10-3.2-15.4-3.2c-1.2,0-1.9-0.5-2.5-1.4c-2.3-3.5-4.6-6.9-6.9-10.3c-0.2,0.1-0.3,0.2-0.5,0.3
	c0.9,1.7,1.7,3.3,2.8,5.3c-1.1-0.2-1.9-0.2-2.7-0.4c-5.5-1.3-10.9-1.1-16.3,0.6c-3.4,1-6.8,1.9-10.1,3c-8.8,2.9-17,1.3-24.9-2.9
	c-1.5-0.8-2.9-1.7-4.3-2.5c-3.1-1.9-6.3-2.1-9.6-0.4c-1.6,0.8-3.2,1.9-4.7,2.9c-1.2,0.8-2.4,1.6-3.5,2.5c-11,8.7-29.2,7.6-38.2,2.5
	c-2.4-1.4-4.9-2.6-7.4-4c-8.5-4.8-17.2-4.7-25.9-0.5c-0.3,0.1-0.6,0.3-0.9,0.4c-0.1,0-0.1-0.1-0.4-0.2c-0.2-9.6-0.6-19.3-2-28.9
	c0.2,12.8,0.3,25.6,0.5,38.6c-2.1,0-3.8-0.7-5.3-1.9c-1.6-1.3-3.1-2.8-4.5-4.3c-1.9-2.1-3.6-4.2-5.5-6.3c-4.5-5.1-10.2-6.6-16.7-5.6
	c-2.5,0.4-5,0.9-7.5,1.4c-7.4,1.4-14.1-0.4-20-5.1c-1.7-1.4-3.4-2.9-5-4.5c-2.9-3-6.1-5.1-10.3-5.6c1.5-2.3,5.6-5.4,7.9-6
	c2-0.6,3.9-0.2,5.9,0.2c2.9,0.5,5.8,1,8.7,1.2c4.8,0.4,9.1-1.2,13-4c2.3-1.6,4-3.7,5.1-6.2c0.8-1.9,1.5-3.9,2.2-5.8
	c1.2-3.7,3.2-6.9,6.1-9.6c4.3-3.9,7.5-8.6,10.2-13.8c1.7-3.3,3.1-6.6,3.8-10.3c1-5.9,4.2-10.5,8.8-14.4c4-3.4,7.8-7,11.5-10.8
	c3.6-3.7,7.6-6.5,12.4-8.4c1.3-0.5,2.7-1,4-1.5c9.7-3.4,16.4-10.2,20.1-19.6c2.2-5.5,5.3-9.6,10.3-12.7c5.1-3.1,8.7-7.7,11.3-13
	c2.5-5,5.2-9.9,7.9-14.8c3.1-5.5,7.5-9.7,13.3-12.3C319.2,547.8,320,547.4,321.1,546.9z"/>
<path class="st0" d="M119.6,741.3c-0.7-0.8-1.6-1.6-2.3-2.6c-1.3-1.9-1.6-4.1-2-6.3c-0.6-3.1-1.2-6.3-2-9.3
	c-0.6-2.6-1.4-5.2-2.3-7.8c-0.5-1.5-1.1-3-1.9-4.4c-1.4-2.6-3.5-4.3-6.9-4.8c1.1-1.2,2.1-2.3,3-3.4c-0.1-0.1-0.2-0.2-0.2-0.3
	c-0.8,0.6-1.6,1.1-2.3,1.7c-3.5,3-6.9,5.9-10.3,9c-1.1,1-2.1,1.4-3.8,1.1c-4.2-0.8-6.9-3.2-8.9-6.9c-3.3-6.2-3.5-12.8-3.3-19.6
	c0.2-4.1,1.5-7.8,3.5-11.3c4.3-7.4,9.1-14.4,15-20.6c2.7-2.8,5.3-5.7,8-8.6c0.7-0.8,1.5-1.6,2.7-2.2c-0.1,1.1-0.3,2.3-0.4,3.4
	c-0.5,5,0.2,10,0.9,15c0.4,2.6,0.8,5,3.2,6.7c1.4,1,1.8,2.8,1.6,4.6c-0.3,2-0.5,4-1,5.9c-0.7,2.5-2.6,3.8-5.2,3.8
	c-1.2,0-2.4,0-3.6-0.3c-3.4-1-7.2,1.5-8.2,5.2c-0.3,1.3-0.5,2.7-0.6,4c-0.1,1.6,0,3.2,0.4,4.9c0.2-0.6,0.4-1.2,0.5-1.8
	c0.7-2.5,1.2-5,2-7.4c1-2.7,2.1-3.2,4.9-2.7c2.1,0.4,4.2,0.8,6.4,0.3c2.5-0.6,4.3-2.1,5.3-4.5c1.1-2.7,1.4-5.6,1.4-8.4
	c0-1.6-0.6-3.1-1.7-4.4c-0.3-0.3-0.5-0.6-0.7-0.9c-2.5-3.2-2.5-4.4-0.1-7.6c1.1-1.4,2.4-2.8,3.8-3.9c2.7-2.3,5.8-3.3,9.3-3
	c1.2,0.1,2.4,0.3,3.6,0.4c5.7,0.6,10-1.7,12.9-6.7c1.1-2,2.6-3.8,4.1-5.6c1.5-1.8,3.6-2.6,6-2.5c1.1,0.1,2.2,0,3.4,0
	c2.7,0,4.6-1.3,5.7-3.6c0.6-1.4,1-2.8,1.4-4.3c0.4-1.3,0.5-2.7,0.9-4c0.8-2.4,2.3-3.8,5-4c2.3-0.2,4.6-0.7,6.7-1.5
	c3.1-1.2,4.8-3.6,4.6-7.1c-0.1-2.1,0.3-4.1,1.8-5.8c1-1,2.1-1.8,3.5-1.7c7,0.1,11-4,13.8-9.7c1.8-3.7,2.7-7.7,2-11.9
	c-1.3-7.4,0.5-14.5,2.7-21.4c5-16,11.3-31.5,18.1-46.8c7.6-17.1,14.9-34.4,22-51.8c3.1-7.7,5.2-15.9,7.8-23.9
	c0.1-0.2,0.1-0.5-0.1-0.8c-0.6,1.5-1.3,3.1-1.8,4.6c-5.2,16-12,31.3-18.8,46.6c-5.2,11.8-10.6,23.6-15.7,35.4
	c-5.2,11.9-9.6,24.2-13.6,36.6c-0.5,1.6-1.2,2.9-2.4,4c-1,0.9-1.8,2-2.5,3.2c-0.9,1.3-2,2.1-3.6,1.8c-3.3-0.6-5.5,1-7.1,3.7
	c-0.5,0.8-1,1.6-1.5,2.4c-1.5,2.3-3.5,4-6.2,4.6c-6.1,1.5-9.5,5.5-10.8,11.5c-0.1,0.3-0.2,0.6-0.3,0.9c-0.6,3.6-2.7,5.5-6.3,6.1
	c-4,0.7-6.4,3.3-7.6,7.1c-0.3,0.8-0.5,1.7-0.8,2.5c-0.9,2.4-1.7,2.8-4.2,2c-1-0.3-2-0.6-3-0.8c-4.6-1.1-8.2,0.6-10.3,4.9
	c-0.9,1.8-1.5,3.7-2.3,5.5c-1,2-1.9,4.1-3.2,5.9c-2,2.9-4.9,4-8.3,3.8c-2.6-0.2-5.1-0.5-7.9,1.2c0.4-1.2,0.5-1.9,0.7-2.5
	c7-15.8,12.6-32.3,19.9-47.9c3.7-7.9,6.3-16.2,9.3-24.3c5-13.5,10.1-26.9,15.4-40.2c7.4-18.6,13.6-37.6,19.3-56.9
	c3.5-12,7.5-23.9,12.7-35.3c3.4-7.6,6.7-15.2,10-22.8c0.8-2,1.5-4,2-6.1c0.3-1.3,0.9-2,2.1-2.7c3.6-2.1,7.1-2.1,10.6,0.2
	c0.6,0.4,1.3,0.7,1.9,1c2.9,1.5,5.9,1.7,9,0.6c6.3-2.3,12-5.7,16.9-10.1c2.4-2.2,4.6-4.6,6.6-7.2c2.8-3.5,4.2-4,8.4-2.7
	c2.7,0.8,5.3,1.6,8.1,2.2c5,1,9.8,0.4,14.6-1.1c0.8-0.3,1.6-0.5,2.7-0.8c0,1.8,0.1,3.4,0,4.9c-0.4,4.5-0.8,9.1-1.3,13.6
	c-0.8,7.4-0.3,14.8,0.8,22.2c0.9,5.8,1.7,11.5,1.5,17.4c-0.1,3,0.4,5.8,3.2,7.5c0.9,0.6,0.8,1.5,0.7,2.4c-0.2,4.2-0.9,8.2-2.4,12.1
	c-0.4,1-0.8,2.1-1.3,3.3c0.7,0.5,1.3,1.1,2,1.5c3.8,2.6,7.8,5,11.5,7.8c4.6,3.4,9.9,4.7,15.5,5c0.9,0.1,1.9,0,3.1,0
	c1.1,7.6,0.9,15.2,1.7,22.7c0.7,7.5,1.4,14.9,2.1,22.3c-3.2,3-6.4,5.9-9.6,8.8c-4.3,3.8-9.6,5.3-15.2,5.5c-1.6,0.1-3.2,0-4.8,0.1
	c-5.4,0.3-8.9,3.5-9.7,8.9c-0.5,3.1-0.8,6.2-1.5,9.2c-1,4.7-3.6,8.4-8.3,10.1c-1.8,0.6-3.7,1-5.6,1c-4.1,0.1-6.8,1.9-8.3,5.7
	c-0.8,1.9-1.4,3.9-2.1,5.8c-0.9,2.1-1.6,4.4-2.8,6.3c-2.5,4.3-5.8,5.5-10.6,4c-5.1-1.6-9.1-4.6-10.9-9.9c-0.5-1.6-1.1-3.2-1.7-4.7
	c-0.3-0.9-0.7-1.8-1.2-2.6c-1-1.6-2.3-1.8-3.9-0.9c-0.5,0.3-0.9,0.6-1.4,1c-3.8,2.9-7.1,6.2-9.4,10.4c-0.3,0.5-0.6,0.9-1.1,1.7
	c-0.5-1.4-0.3-2.6-0.1-3.6c1.3-5.9,2.6-11.8,3.9-17.7c0.3-1.5,0.8-3.1,0.8-4.8c-0.3,0.6-0.7,1.2-0.9,1.8c-2.2,6.7-4.4,13.3-5.5,20.3
	c-0.9,6-0.6,11.9,0.3,17.9c0.7,4.9,1.5,9.8,2.4,14.6c0.1,0.8,0,1.4-0.6,1.9c-0.8,0.6-1.6,1.3-2.6,1.7c-4.9,2.4-8.5,6.2-11.1,10.9
	c-0.9,1.6-1.7,3.2-2.6,4.9c-1.6,2.9-3.8,5.1-6.8,6.6c-2.7,1.3-5.3,2.5-8.1,3.5c-6.6,2.4-10.8,6.9-12.8,13.6
	c-0.6,2.1-1.3,4.1-1.7,6.2c-1.4,6.8-5.7,11.2-11.9,13.7c-4.5,1.8-7.9,4.7-10.3,8.9c-1.3,2.2-2.7,4.3-4.1,6.5
	c-0.6,0.9-1.2,1.7-1.9,2.5c-2.7,2.9-5.1,3.5-8.8,2c-1-0.4-2.1-0.9-3.1-1.2c-2.1-0.8-4-0.2-5.3,1.5c-0.9,1.1-1.5,2.4-2,3.8
	c-3,8.1-4,16.3-1.2,24.6c1,2.9,2.1,5.7,2.9,8.6c0.8,2.7,1.4,5.4,1.9,8.1C122.2,739,121.4,740.3,119.6,741.3z"/>
<path class="st0" d="M319.4,523.6c0.6,7.1,1.3,14.3,1.9,21.5c-1.3,0.6-2.3,1.2-3.4,1.6c-6.7,2.5-11.5,7.1-15,13.2
	c-2.3,3.9-4.3,8-6.5,12c-0.9,1.8-1.8,3.6-2.8,5.3c-1.6,3.1-3.9,5.6-6.7,7.7c-1.4,1.1-2.8,2.1-4.3,3.1c-4,2.5-6.7,6-8.3,10.5
	c-1.3,3.9-3.4,7.4-6,10.5c-3.3,4.1-7.4,7.2-12.4,9.1c-1.3,0.5-2.5,1-3.8,1.4c-6,2.1-11,5.5-15.4,10.2c-3.3,3.6-7.1,6.9-10.8,10.1
	c-4.9,4.1-8,9.1-9.3,15.4c-1.6,7.8-5.6,14.3-10.8,20.2c-1.1,1.3-2.4,2.4-3.5,3.6c-2.3,2.4-4.1,5.1-5.2,8.2c-0.6,1.7-1.3,3.4-1.9,5.2
	c-2.2,6.1-6.9,9.1-12.9,10.4c-3.1,0.7-6.2,0.2-9.3-0.2c-2-0.3-3.9-0.6-5.9-0.8c-2.9-0.3-5.5,0.6-7.8,2.4c-1.3,1-2.5,2-3.7,3.1
	c-1.7,1.5-3.7,2.2-5.9,2.2c-4.9,0-9.9,0-14.8-0.2c-4.8-0.2-8.7,3.5-9.1,8.9c-0.2,3.3,0.6,6.4,2.2,9.2c1.1,1.9,2.4,3.7,3.8,5.5
	c2.8,3.8,5.5,7.7,7.2,12.1c1.1,3,2,6.1,1.8,9.3c0,0.7,0,1.5-0.2,2.1c-2.5,7.3-7.8,14.8-17.3,15.3c-3.2,0.2-6-0.5-8.6-2.3
	c-4.2-2.8-8-6.1-11.1-10.1c-2.9-3.9-5.6-8-8.3-12c-2.3-3.4-4.6-6.9-7-10.2c-0.9-1.2-2-2.3-3.1-3.3c-1.8-1.6-3.8-2.7-6.5-2.2
	c0.3-0.6,0.4-1,0.6-1.3c3.7-5.6,8.4-10.2,13.4-14.5c2.3-1.9,4.1-4.3,6.2-6.5c1.5-1.6,3.5-2,5.4-0.8c1.1,0.6,2,1.5,2.8,2.5
	c0.7,0.9,1.3,2.1,1.6,3.2c1.8,6.3,4.1,12.4,4.8,19c0.2,2.2,1.1,4.3,2,6.3c0.5,1.2,1.6,2.2,2.6,3c1.3,1,2.7,0.8,3.9-0.3
	c1.3-1.3,2.1-2.8,2-4.7c-0.2-3.3-0.8-6.5-2.2-9.5c-1.9-4.3-3.1-8.7-3.9-13.3c-1.1-6.9,0.3-13.5,3.1-19.8c1.1-2.6,2.4-2.9,5-1.9
	c1,0.4,1.9,0.8,2.9,1.2c3.5,1.3,6.7,0.6,9.3-2c1.6-1.6,2.8-3.4,4.1-5.3c1.4-2.1,2.7-4.3,4.1-6.5c1.7-2.6,3.9-4.5,6.8-5.8
	c2.7-1.2,5.2-2.8,7.6-4.4c2.9-2,4.8-4.8,5.9-8.2c0.8-2.6,1.5-5.2,2.3-7.8c0.6-1.9,1.2-3.8,2.1-5.6c1.7-3.3,4.3-5.7,7.7-7.2
	c2.2-1,4.4-1.8,6.6-2.7c5.5-2.2,9.6-5.8,12.1-11.3c1.8-3.8,3.7-7.4,6.8-10.3c2.3-2.2,4.9-3.7,7.8-5.3c0.7,3.7,1.4,7.2,2.1,10.7
	c0.7,3.4,1.4,6.9,2.5,10.2c-0.5-4-1-8-1.6-12.1c-1.5-10.5-2.9-21-4.4-31.5c-0.4-2.7,0.1-5.1,1.2-7.6c2.2-5,6.2-8.4,10.4-11.6
	c0.5-0.4,1.2-0.7,2.1-1.1c0.5,1.2,1.1,2.1,1.5,3.1c0.9,2.1,1.5,4.4,2.5,6.5c2.9,5.9,7.9,9,14.3,9.9c4.1,0.5,7.4-1.2,9.5-4.6
	c1.4-2.2,2.4-4.7,3.4-7.1c0.9-2.1,1.5-4.4,2.3-6.5c1-2.5,2.8-4,5.6-4.1c1.7,0,3.4-0.2,5-0.6c5.1-1.3,8.8-4.4,10.7-9.4
	c1.3-3.4,1.8-6.9,2.2-10.5c0.6-6.3,3.2-8.7,9.6-8.8c3.4,0,6.9-0.1,10.2-1.1c3.9-1.2,7.4-3,10.3-5.8c1.6-1.5,3.1-3,4.7-4.5
	c0.8-0.7,1.7-1.4,2.5-2.1C319,523.5,319.2,523.5,319.4,523.6z"/>
<path class="st0" d="M423.8,533.6c1.9,7.7,4.8,15.1,8,22.3c4.4,9.8,8.7,19.7,12.9,29.6c2.1,5,3.7,10.2,4.6,15.6
	c1.1,6.6,1,13.2,0.1,19.8c-1.1,8.3-2.6,16.5-3.7,24.8c-1.1,7.5-1.6,15.1-0.4,22.6c1,6.5,2,12.9,2.9,19.4c0.1,0.4,0.1,0.8-0.3,1.3
	c-0.7-2.2-1.6-4.3-2-6.5c-1-5.3-4-8.5-9.4-9.4c-1.8-0.3-3.6-0.9-5.3-1.5c-6.1-2-11.1-5.5-14.7-11c-0.8-1.2-1.7-2.3-2.6-3.5
	c-2.7-3.5-6.4-5.2-10.8-5.1c-1.9,0-3.8,0-5.7,0.1c-5.8,0.2-10.6-1.9-14.8-5.6c-1.7-1.5-3.3-3-4.8-4.7c-3.7-4-8.2-6.8-13.6-7.9
	c-5.8-1.3-10.5-4.5-14.3-9.1c-1.8-2.2-3.3-4.7-4.9-7.1c-0.7-1.1-1.4-2.2-2-3.3c-2.2-4.1-5.3-7.3-9.9-8.4c-4.1-1.1-6.5-4.1-8.8-7.3
	c-0.3-0.4-0.5-0.9-0.5-1.3c0-5.3-0.5-10.7,0.9-16c0.2-0.9,0.6-1.8,1-2.7c0.8-1.6,1.6-2,3.3-1.5c1.1,0.3,2.2,0.9,3.3,1.3
	c5.6,1.9,11,1.7,15.8-2.3c2.2-1.9,3.6-4.2,4.7-6.9c0.6-1.5,1.2-3.1,2-4.6c1.6-3.1,2.9-3.7,6.3-3.4c2.9,0.3,5.9,0.6,8.8-0.1
	c4.8-1.2,8.3-4,10.9-8.1c0.8-1.3,1.5-2.6,2.4-3.9c1.6-2.3,2.7-2.5,5.3-1.3c1.4,0.7,2.9,1.5,4.4,1.8c3.9,1,7.5,0.2,10.6-2.4
	c2.2-1.8,4-4.1,5.9-6.2c1.5-1.8,2.8-3.9,4.3-5.8c1.3-1.7,3-2.4,5.2-2C420.4,533.9,422,533.6,423.8,533.6z"/>
<path class="st0" d="M337,192.6c-3.7,0.8-7,1-10.4,1.2c-3.8,0.2-7.7,0.4-11.4,1.5c-0.4,0.1-0.7,0.3-1,0.7c1.3-0.1,2.6-0.3,3.9-0.4
	c3.8-0.2,7.6-0.4,11.5-0.6c2.3-0.1,4.6-0.3,6.9-0.7c4-0.7,8-1.3,12.1-1.1c2.1,0.1,4.1,0.4,6.1,1.1c4.6,1.5,7.8,4.5,9,9.4
	c1.5,6.3,2.3,12.7,2.3,19.2c-0.1,7.5,0,15,0.2,22.5c0.2,8.5,0.1,16.9-0.6,25.4c-0.6,7.1-0.5,14.2,0.3,21.3c1,8.6,1.8,17.1,2.9,25.7
	c0.9,7.1,2.2,14.2,3,21.3c0.6,4.9,0.7,9.9,1,14.8c0.1,0.9-0.1,1.9-0.2,3.2c-0.6-0.6-1-0.9-1.3-1.3c-5.3-6.3-10.6-12.5-16-18.8
	c-1.2-1.4-2-2.9-2.4-4.6c-3.8-13.2-6-26.6-6.5-40.3c-0.1-2.9-0.6-5.9-0.8-8.8c0-0.6,0.1-1.4,0.4-1.9c3.6-4.9,4.1-10.1,1.8-15.6
	c-1.2-3-1.5-6.1-0.9-9.2c0.9-4.9,0.8-9.8,0.8-14.8c0.1-6.9-0.1-13.9-0.2-20.8c0-0.4-0.2-0.8-0.7-1.2c-0.2,0.8-0.4,1.5-0.4,2.3
	c-0.2,6-0.4,12-0.5,17.9c0,0.4,0,0.9,0,1.9c-0.7-0.9-1.1-1.4-1.6-1.9c-2.9-3.2-5.6-6.6-8.8-9.5c-6.5-6-14.3-7.4-22.7-5.3
	c-4.2,1-8.3,2.3-12.1,4.4c-3,1.6-6.1,3-9.2,4.5c-0.8,0.4-1.6,0.6-2.5,1c-1.7-1.9-3.3-3.8-4.9-5.7c-5.7-6.9-17.6-6.7-23.5-0.3
	c-2.2,2.3-4.1,4.9-6.2,7.3c-0.5,0.6-1.1,1.1-1.8,1.9c-0.2-0.6-0.4-1-0.5-1.5c-0.6-3.4-1-6.9-1.8-10.3c-1.1-5-1.1-9.8,0.5-14.6
	c0.8-2.4,2.2-4.2,4.4-5.5c5.6-3.4,11.8-5.3,18.2-6.4c1.3-0.2,2.7-0.5,4-0.8c5.3-1.5,10.7-1.7,16.1-0.6c0.2,0,0.5,0.1,0.7,0.1
	c0.1,0,0.3-0.1,0.8-0.2c-2.2-1.5-4.5-1.7-6.8-1.9c-2.2-0.2-4.5-0.1-7.1-0.1c5.1-2.4,10.3-4.3,11.6-10.7c4.4-0.2,8.5-1.6,11.9-4.3
	c1.6-1.2,2.9-2.9,4.4-4.3c-0.1-0.2-0.2-0.3-0.4-0.5c-0.5,0.3-1,0.5-1.4,0.8c-3.4,2.5-6.8,5-11,6.1c-3.9,1-6.7,0.2-9.1-3
	c-0.9-1.1-1.8-2.3-2.4-3.6c-2.7-5.5-5.4-10.9-7.7-16.5c-1.1-2.5-1.4-5.4-1.9-8.1c-0.3-1.8-0.2-3.7-0.5-5.5c-0.3-2.4-0.6-4.9-1.2-7.3
	c-0.7-2.9-0.3-5.3,1.8-7.5c3.2-3.3,6.9-5.9,11.2-7.5c3.3-1.3,6.6-1.1,9.7,0.6c0.7,0.4,1.4,0.8,2.2,0.9c4.1,0.7,6.6,3.5,8.7,6.6
	c1.8,2.6,3.3,5.5,4.7,8.3c0.8,1.8,1.1,3.8,1.6,5.7c0.4,1.8,0.6,3.6,0.9,5.4c0.2,0,0.4,0.1,0.6,0.1c0.4-0.7,0.9-1.3,1.3-2.1
	c1.1-2.3,2.1-4.7,3.1-7c1.1-2.4,2.8-4.2,5.1-5.6c1,0.8,1.1,1.9,1.1,2.9c-0.1,5.3-0.5,10.6-4.6,14.6c-0.7,0.6-1.3,1.3-1.9,2
	c-0.3,0.3-0.5,0.8-0.5,1.3c-0.2,2.9-0.4,5.9-0.6,8.8c-0.3,4,0.9,7.6,3.2,10.8c4.1,5.6,8.8,10.5,15,13.8
	C336.1,191.9,336.3,192.1,337,192.6z M297.3,150.3c1.2,0.2,2.2,0.7,2.9,0.5c0.7-0.2,1.2-1.2,2-2c1.3-0.3,2.9-0.4,4.4-1.7
	c-2.4-0.5-4.4-0.1-6.4,0.3c-2.1,0.4-3.8,1.6-5.2,3.1c-0.3,0.3-0.3,0.9-0.7,1.7C295.7,151.3,296.5,150.8,297.3,150.3z M292,149.1
	c2.1-1.3,4.1-2.6,6.2-3.8c2.1-1.1,4.5-1.5,6.7-3.1C298.6,142.1,292.7,145.3,292,149.1z M276.4,145.7c2.4,1.2,4.7,2.2,6.7,3.6
	c2.4,1.6,2.4,4.5,3.5,7C287.2,150.3,283.6,145.4,276.4,145.7z M284,153.3c-1.3-3.7-5-5.4-7.9-3.3c1,0.2,1.9,0.3,2.9,0.4
	c0.3,0.9,0.7,1.7,1.4,2C281.5,152.9,282.7,153.1,284,153.3z M305.4,149.5c-2.8,0.9-5.3,1.7-7.8,2.5c-0.3,0.1-0.7,0.2-1.2,0.4
	C299.2,154.3,303.3,153,305.4,149.5z M297.1,173c-1.8-0.7-7.8-0.2-9.5,0.6C290.9,175.6,294,174,297.1,173z M294.1,166.3
	c-2.5-0.3-4.6-0.6-6.8-0.9C288.6,168.4,291.4,168.9,294.1,166.3z M282.1,154.9c-1.9-1.1-3.7-2.2-5.5-3.2
	C277.2,154.7,279.3,155.9,282.1,154.9z M292.1,177.6c1,0.4,2,0.7,3-0.4C293.9,176.9,292.9,176.7,292.1,177.6z"/>
<path class="st0" d="M420.9,512.6c-2.3,0-4.4,0-6.4,0c-2.8,0.1-4.9,1.3-6.7,3.5c-1.7,2.1-3.5,4.1-5.6,5.9c-3.6,3.2-7.8,4.1-12.5,3
	c-1.6-0.4-3.3-0.8-4.8-1.4c-3.4-1.3-6.4-0.6-9.1,1.8c-1.1,1-2.1,2-3.2,2.9c-1,1-2.1,2-3.1,3c-2.9,2.6-6.1,3.3-9.7,1.8
	c-1.8-0.7-3.6-1.2-5.4-2c-2.9-1.2-5.3-0.4-7.4,1.7c-1.4,1.4-2.5,3.1-3.9,4.5c-1.6,1.7-3.2,3.3-5,4.7c-2,1.5-4.3,2.1-6.8,1.3
	c-2.1-0.7-4.1-0.2-5.9,1.1c-0.6,0.4-1.2,0.7-2,1.2c-0.2-2.9-0.4-5.6-0.6-8.3c-0.4-4.4-0.9-8.9-1.4-13.3c0-0.1,0-0.2,0-0.2
	c-0.3-1.5,0.3-3-0.4-4.7c-0.7-1.5-0.5-3.4-0.6-5.2c-0.2-1.7-0.3-3.3-0.5-5c-0.2-1.7-0.3-3.5-0.5-5.2c-0.2-1.7-0.3-3.3-0.4-5
	c-0.1-1.7-0.3-3.3-0.4-5c-0.1-1.8-0.2-3.5-0.3-5.3c-0.1-1.7-0.1-3.4-0.3-5c-1-8.9-2-17.8-4-26.5c-0.4-1.8-1.1-3.6-1.8-5.8
	c4.1-0.4,7.4-2.5,11-4.1c1.3-0.6,2.6-0.5,3.9,0.2c1.5,0.8,3,1.6,4.5,2.2c5.9,2.1,11.4,1.4,16.7-2c0.4-0.3,0.8-0.5,1.2-0.8
	c0.8-0.7,1.6-0.6,2.4-0.1c6.6,4.4,13.9,4.1,21.2,2.6c3.4-0.7,6.5-2.3,9.1-4.6c5.2-4.6,13.5-5.9,20.6-1c0.6,0.4,1.1,1.1,1.3,1.8
	c1.3,4.4,2.3,8.8,3.7,13.1c2,6,2.8,12.3,4,18.4c1.2,6,2.7,12,4.2,17.9c1.4,5.6,3.1,11.2,4.7,16.8
	C420.8,511.9,420.8,512.3,420.9,512.6z"/>
<path class="st0" d="M382.6,733.7c7.5,12.6,15.1,25.5,24.7,37.4c-0.8-0.3-1.7-0.6-2.5-1c-0.6-0.3-1.2-0.8-1.8-1.2
	c-2.6-1.5-4.2-1.3-6,1c-1.1,1.3-2.3,2.4-3.9,3.1c-2.7,1.2-5.2,0.7-7.3-1.2c-0.8-0.7-1.4-1.5-2.1-2.3c-2.2-2.6-4.9-3.5-8.2-2.5
	c-1.9,0.6-3.8,1.3-5.6,2.1c-2.3,1-4.6,2.2-6.9,3.3c-5.4,2.4-11,3.6-17,3.4c-4.4-0.2-8.8-0.1-13.2-0.1c-1.7,0-3.4,0-5,0.5
	c-3.7,1.2-4.4,2.4-4.5,5.3c-0.1,3.6-3.1,6.2-6.6,6.2c-0.4,0-0.8,0-1.2-0.1c-4-0.6-8-1.4-11.8-3c-1.4-0.6-2.8-1.2-4.2-1.7
	c-3.4-1.3-6.7-1.2-10,0.3c-1.7,0.7-3.3,1.6-4.9,2.4c-5.2,2.7-10.6,3.3-16.2,1.3c-1.9-0.7-3.8-1.2-5.7-1.8c-4.5-1.3-8.8-0.8-13,1.4
	c-1.3,0.7-2.7,1.5-4,2.1c-3,1.4-4.7,1.1-7.1-1.3c-2.1-2.1-3.3-4.8-3.6-7.7c-0.6-5.7-1-11.4-1.4-17.2c-0.3-4.1-0.6-8.3-0.8-12.4
	c-0.2-5.2-0.4-10.5-0.5-15.8c7.5-4.1,15-4.6,22.7-1.4c2.3,0.9,4.4,2.2,6.5,3.6c10.3,6.8,21.5,8,33.3,5.3c4.7-1.1,8.7-3.6,12.5-6.3
	c2.2-1.5,4.3-3,6.5-4.5c2.5-1.7,5-1.5,7.6-0.1c3.4,1.9,6.9,3.7,10.5,5.2c5.9,2.5,12.1,2.8,18.3,1.1c4.5-1.2,9.1-2.5,13.6-3.8
	c4.3-1.2,8.6-1.5,13-0.4C378.7,733.4,380.6,733.5,382.6,733.7z"/>
<path class="st0" d="M294.2,326.6c2.5,8.7,8.9,12.4,16.3,14.7c6.7,2.1,13.6,3.4,20.6,4.3c3.7,0.5,7,1.8,9.9,4.3
	c4.1,3.6,8.8,6.4,14.1,7.8c1.7,0.4,3.5,0.5,5.2,0.9c4.1,0.8,8.1,1.7,12.1,2.6c0.4,0.1,0.7,0.6,1,0.9c2.6,3.2,5.2,6.2,7.6,9.5
	c6.3,8.7,12.8,17.3,20.3,25.1c2.2,2.3,4,5,5.9,7.5c0.9,1.2,1.5,2.6,2,4.1c-3.7-1.5-7.4-2.9-10.2-5.9c-1.7-1.8-3.4-3.6-5-5.5
	c-2.7-3.1-5.9-4.2-9.9-3.1c-4.1,1.1-8.2,0.6-11.9-1.1c-5.8-2.7-11.6-2.3-17.6-1.3c-2.1,0.3-4.3,0.6-6.4,1c-4.1,0.6-7.9-0.1-11.7-1.8
	c-2.4-1-4.4-2.6-6-4.7c-1.3-1.7-2.5-3.5-3.8-5.3c-2.3-3.2-5.4-4.6-9.3-4c-1.7,0.3-3.5,0.6-5.2,0.6c-4.8,0.1-9.2-1-13-4.1
	c-3-2.4-6-2.7-9.6-1.2c-3.9,1.7-7.8,3.1-11.8,4.5c-6.4,2.2-12.9,1.9-19.3-0.3c-0.8-0.3-1.7-0.6-2.5-0.8c-4.2-1.3-6.9-0.5-9.4,3
	c-2.2,3-4.7,5.6-7.6,8c-4,3.4-8.5,6.2-13.3,8.4c-3.9,1.8-7.7,1.9-11.4-0.5c-0.6-0.4-1.3-0.7-1.9-1c-2.9-1.5-5.8-1.5-8.8-0.2
	c-4.3,1.9-7.9,4.7-11.4,7.8c-0.7,0.6-1.3,1.2-2,1.8c-0.1-0.1-0.3-0.2-0.4-0.4c0.7-0.9,1.3-1.9,2-2.8c5.8-7.7,11.6-15.4,17.3-23.2
	c5.2-7.3,10.8-14.3,16.9-20.8c1.4-1.5,2.8-2.8,4.1-4.1c0.4,0,0.6-0.1,0.8,0c8.7,3.8,17.5,3.7,26.5,1.3c7.9-2.1,15.4-5.2,22.5-9.3
	c3.2-1.8,6-4.2,8.6-6.8c2-2,3.4-4.4,4.4-7.1C293.3,328.7,293.6,327.9,294.2,326.6z"/>
<path class="st0" d="M517.7,702.7c4.4,1,8.1,3.1,11.3,6.3c5,5.1,7.2,11.4,8.3,18.2c0.4,2.2,0.1,4.4-0.9,6.5
	c-2.9,5.9-5.8,11.7-10.3,16.6c-3.7,4-6.9,8.4-9.1,13.4c-2.2,5.1-6.4,7.7-11.1,9.9c-5.7,2.6-11.8,3.7-18,4.8
	c-6.2,1.1-12.3,2.6-18.1,5.2c-5.8,2.6-12,3.8-18.4,3.5c-3.2-0.2-6.3-0.9-9.3-2.1c-4.5-1.8-9.1-2.9-13.9-3.6c-3-0.5-5.6-1.6-8.1-3.3
	c-7.2-4.9-13.5-10.7-18.3-18c-4.5-6.7-9-13.6-13.5-20.3c-0.2-0.3-0.3-0.6-0.5-1c1.7-0.4,3.2-0.1,4.7,0.2c5.2,1,10,3.1,14.9,5.2
	c5.8,2.6,11.7,5.1,17.9,6.7c6.1,1.6,12.1,1.6,18.2,0.1c1.9-0.5,3.9-0.9,5.8-1.3c4.9-1.2,9.8-1.2,14.7,0.2c5.5,1.6,10.7,0.5,15.8-1.8
	c1.7-0.8,3.7-1,5.5-1.6c5.6-1.7,11.2-3.5,16.9-5.3c0.7-0.2,1.4-0.7,2-1.3c-5.2,1.3-10.5,2.6-15.7,3.8c-0.1-0.1-0.2-0.3-0.3-0.4
	c0.7-0.9,1.3-2,2.2-2.8c4-3.8,6.2-8.4,7.4-13.7c0.5-2.3,1.2-4.6,2.1-6.8c1-2.5,2.9-4.3,5.4-5.6c1.8-0.9,3.5-1.9,5.2-3
	c2.9-1.9,5.1-4.3,6.7-7.4C517.1,703.7,517.4,703.3,517.7,702.7z"/>
<path class="st0" d="M333.6,300.9c-2.5-3.1-5.7-4.5-8.9-5.9c-4.8-2-9.8-3.9-13.7-7.6c-7.4-6.9-13.8-14.6-17.9-24
	c-0.7-1.7-1-3.5-1.5-5.3c-0.2-0.7-0.5-1.3-0.8-2c-0.2,0-0.4,0-0.6,0c-1.4,3-2.6,6.1-4.2,8.9c-1.6,2.9-3.5,5.7-5.4,8.4
	c-1.9,2.8-4,5.4-5.9,8.2c-1.9,2.7-4,5.3-6.7,7.9c-0.2-1-0.3-1.5-0.4-2c-1-6-3.1-11.5-5.8-16.9c-3.3-6.7-5.5-13.6-6-21
	c-0.1-0.9,0-1.9,0-2.9c2.4-0.7,4.7-1.2,7-2c3.3-1,6.5-2.2,9.7-3.3c2.2-0.7,4.3-1,6.6-0.2c3.6,1.3,7.2,0.9,10.8,0.3
	c4.5-0.8,9-1.4,13.5-2c1.9-0.3,3.8,0.1,5.5,1.1c6.1,3.8,12.9,4.9,19.9,5.4c3.2,0.2,6.3,0.8,9.4,1.4c2.2,0.4,3.9,1.8,4.9,3.9
	c1,2.1,1.1,4.1,0,6.2c-0.8,1.5-1.6,2.9-2.3,4.4c-1.9,3.9-2.1,7.8-0.3,11.8c0.2,0.4,0.3,0.7,0.5,1.1c1,2.2,1,4.2-0.3,6.3
	c-1.3,2.1-2.5,4.2-3.7,6.4c-0.3,0.6-0.5,1.3-0.7,2C335.3,293.2,334.5,296.8,333.6,300.9z"/>
<path class="st0" d="M286.4,458c0.3-1,0.6-2,0.9-2.9c1.4-5,1.4-10.1,0.8-15.2c-0.3-2.5-0.7-4.9-1.1-7.3c-0.4-2.5,0.4-4.4,2.6-5.7
	c4.3-2.4,8-5.5,11.5-8.9c3.6-3.4,7.9-4.4,12.6-2.3c3.3,1.4,6.7,2.4,10.3,2.9c3.4,0.5,6.7,0.3,9.9-1.1c2.8-1.2,5.3-1.1,8.1,0.1
	c2.8,1.2,5.9,2.1,8.8,3.1c2.7,0.9,5.5,0.9,8.2-0.1c1.3-0.5,2.5-1,3.8-1.4c3.2-1.1,6.5-0.6,9.7-0.1c0.5,0.1,1,0.2,1.4,0.3
	c4.4,1.6,8.6,0.9,12.8-1.1c1.5-0.7,2.4-0.4,3.3,0.7c2.6,3.2,5.2,6.5,7.8,9.7c5,6,10,12.1,14.9,18.1c1.2,1.5,2.1,3.1,3.2,4.7
	c-0.1,0.1-0.3,0.2-0.4,0.3c-0.4-0.4-0.8-0.8-1.1-1.2c-3.4-4.9-8-8.2-13.3-10.7c-6.4-3-12.5-2.3-18.4,1.4c-0.9,0.6-1.7,1.2-2.5,1.9
	c-3.7,2.9-8,4.3-12.6,4.5c-2.3,0.1-4.6,0-6.9-0.2c-2.7-0.2-5.1-1.2-7.3-2.8c-1.8-1.3-3.4-1.2-5.2,0.1c-6.1,4.4-12.6,4.7-19.1,1
	c-2.7-1.6-5.2-1.5-7.9-0.1c-1.8,1-3.7,1.9-5.7,2.5c-4.8,1.5-9.4,1.2-13.8-1.5c-0.3-0.2-0.7-0.4-1-0.6c-2.1-1.1-3.3-0.8-4.7,1.1
	c-2,2.6-3.9,5.2-5.9,7.8c-0.9,1.2-2,2.2-3.1,3.3C286.6,458.3,286.5,458.1,286.4,458z"/>
<path class="st0" d="M322.3,596.7c-1.3-1.3-1.6-2.9-1.9-4.5c-0.7-3.6-0.5-7.2-0.1-10.7c0.8-7.7,1.8-15.4,2.6-23.1
	c0.3-3.1,0.5-6.2,0.4-9.3c0-1.6,0.6-2.5,2-3.1c2-1,3.9-1.6,6.2-0.8c2.9,0.9,5.6,0.1,7.9-1.7c2.2-1.7,4-3.8,6-5.8
	c1.2-1.3,2.3-2.6,3.5-3.9c1.4-1.3,3-1.6,4.9-0.9c1.8,0.8,3.7,1.5,5.6,2.2c4.3,1.7,8.1,0.9,11.6-2.1c1.4-1.3,2.8-2.6,4.2-3.9
	c0.5-0.4,0.9-0.9,1.4-1.3c2.5-2.6,5.3-3.1,8.7-1.8c2.3,0.9,4.8,1.4,7.2,1.7c3.9,0.5,7.5-0.6,10.5-3.1c2.3-1.9,4.5-3.9,6.2-6.2
	c2-2.7,4.5-3.6,7.6-3.5c0.3,0,0.6,0,1,0.1c3.9,0.5,4.1,0.7,5,4.5c0.7,3.3,1.3,6.7,1.9,10.1c0.1,0.4,0,0.8,0,1.2
	c-1.8,0.9-3.6,1-5.4,0.7c-3.5-0.6-5.9,0.8-7.8,3.5c-1.7,2.4-3.3,4.9-5.3,7.1c-1.4,1.7-3.1,3.2-4.9,4.5c-3,2.1-6.2,2.2-9.5,0.7
	c-1-0.5-2-1-3-1.5c-2.4-1-4.3-0.7-6.1,1.2c-0.8,0.8-1.4,1.8-2,2.7c-0.6,0.9-1.2,1.9-1.8,2.8c-3.8,5.7-9.1,7.9-15.9,7
	c-0.9-0.1-1.7-0.2-2.6-0.3c-2.9-0.3-5,0.9-6.5,3.2c-0.9,1.3-1.5,2.8-2.2,4.2c-0.5,1.2-1,2.4-1.5,3.5c-3.1,6.4-8.6,8.6-15.5,6.9
	c-1.2-0.3-2.4-0.9-3.6-1.4c-3.9-1.5-6.3-0.5-7.7,3.5c-1.5,4.2-1.4,8.6-1.2,13C322.1,593.7,322.2,595.2,322.3,596.7z"/>
<path class="st0" d="M369.8,357.6c-4-0.5-8.1-1-12.2-1.6c-5.4-0.9-10.1-3.6-14.2-7c-4-3.4-8.5-5.1-13.6-5.8
	c-5.9-0.9-11.8-2.1-17.6-3.4c-4.1-0.9-7.8-2.6-11.1-5.3c-2.9-2.4-4.7-5.4-5.8-8.9c-0.2-0.7-0.5-1.4-1-2.7c-0.6,1-1,1.4-1.3,1.9
	c-0.8,1.9-1.5,3.8-2.4,5.7c-1.3,2.7-3.3,4.8-5.6,6.7c-7.6,6.2-16.5,9.8-25.8,12.7c-5,1.6-10.1,2.6-15.3,2.3c-3.9-0.2-7.7-1-11.6-1.6
	c-0.2,0-0.4-0.3-0.8-0.5c0.8-0.7,1.4-1.3,2.2-1.9c3.6-2.7,7.2-5.5,10.9-8.1c8.6-6,15.4-13.6,20.7-22.6c0.2-0.3,0.4-0.7,0.6-1
	c0.2,0,0.4-0.1,0.5,0c2.3,2.2,5,2.2,7.8,1.1c1.2-0.4,2.4-1,3.5-1.6c2.7-1.4,5.2-1.3,7.6,0.5c0.5,0.4,1,0.7,1.6,1.1
	c5.9,3.8,12.2,3.7,17.8-0.4c1.9-1.4,3.6-1.5,5.5-0.3c3.2,2,6.7,3,10.3,3.6c5.2,0.8,9.8-0.3,13.9-3.7c0.4-0.4,0.9-0.7,1.3-1
	c1.5,2.4,2.8,4.9,4.5,7c3.9,4.8,8,9.5,12.1,14.2c5.5,6.5,11,13,16.6,19.5C369.3,356.9,369.6,357.4,369.8,357.6z"/>
<path class="st0" d="M285,430c-1-9.8-3.2-18.9-2.6-28.4c4.3,0.4,7.5-1.7,10.8-3.8c2.5-1.6,5.2-3,7.9-4.4c2.3-1.2,4.8-1.2,7.2-0.6
	c3.6,0.8,7.1,1.8,10.7,2.7c2.6,0.7,5.1,0.4,7.6-0.2c2.7-0.7,5.4-1.4,8.1-2c1-0.2,2.1-0.1,3,0.2c4.8,1.5,9.5,1.6,14.4,0.8
	c3.9-0.6,7.7-1,11.6-1.3c1.5-0.1,3.2,0.2,4.6,0.8c3.4,1.3,6.9,2.3,10.8,2.8c1.9,6.6,6,12.2,9,18.4c-4.3,2.4-8.6,3.9-13.5,2.4
	c-2.3-0.7-4.9-0.8-7.3-1c-2.3-0.2-4.6,0.3-6.7,1.3c-3.7,1.8-7.3,1.9-11.1,0.4c-2.7-1.1-5.6-1.9-8.4-2.8c-2-0.7-4.1-1.1-6.1-0.1
	c-6.3,3-12.5,1.8-18.6-0.3c-0.8-0.3-1.6-0.6-2.5-0.9c-5.3-2-10.1-0.9-14.2,2.9c-3.3,3.1-6.7,6.1-10.7,8.4c-1.2,0.7-2.1,2.1-3.1,3.3
	C285.7,428.7,285.5,429.1,285,430z"/>
<path class="st0" d="M108.1,660.4c-0.9-2-0.9-4.2-0.9-6.3c0-4.8,0.5-9.5,2.3-14.1c0.2-0.5,0.2-1.1,0.4-1.6c0.7-2.9,2-4,5-4
	c1,0,1.9,0.2,2.8,0.3c5.9,1,10.1-1,13-6.2c1.1-1.9,1.9-4,2.8-6.1c0.5-1.1,0.9-2.2,1.4-3.3c1.7-3.4,4-4.6,7.8-3.9
	c1.2,0.2,2.5,0.7,3.7,1c2.9,0.8,4.8-0.1,5.9-2.9c0.4-1,0.7-2.1,1-3.2c1-3.1,2.9-5.3,6.1-5.8c4.7-0.7,7.1-3.6,8.1-7.9
	c0.3-1.5,0.9-2.9,1.4-4.3c0.9-2.5,2.7-4.3,5.2-5.3c0.4-0.1,0.7-0.3,1.1-0.4c4.6-1.2,8.1-3.9,10.4-8.2c0.4-0.8,0.9-1.6,1.6-2.1
	c0.7-0.5,1.6-1.1,2.5-1.1c4.8-0.2,4.8-0.2,8-4.1c-0.2,1.7-0.4,2.9-0.6,4.2c-0.6,3.4-0.5,6.8-0.1,10.2c0.7,6.1-0.8,11.6-5,16.1
	c-2,2.1-4.4,3.5-7.4,3.3c-5.1-0.3-8.9,4.6-8.6,8.7c0.3,4.2-1.1,6.1-6.4,7.3c-0.8,0.2-1.7,0.2-2.6,0.3c-4.1,0.3-6.4,2.3-7.5,6.2
	c-0.3,1.3-0.4,2.7-0.8,4c-0.4,1.3-0.9,2.6-1.5,3.8c-0.6,1.2-1.7,1.9-3.1,1.9c-1,0-2.1,0.1-3.1,0c-3.4-0.1-6.3,1-8.5,3.6
	c-1.3,1.6-2.7,3.2-3.6,5c-2.5,4.7-6.1,7-11.5,6.3c-0.9-0.1-1.8,0-2.6-0.1c-6.4-0.7-11,2.3-14.9,7c-0.5,0.5-0.9,1.1-1.4,1.7
	C108.4,660.3,108.3,660.3,108.1,660.4z"/>
<path class="st0" d="M266.8,315.4c0.6-3.6,1.6-6.9,1.7-10.2c0.2-4-0.1-8.1-0.4-12.2c-0.1-1.6,0.2-2.5,1.5-3.6c2.3-2,4.5-4.3,6.4-6.8
	c3-3.8,5.9-7.8,8.5-11.8c2.1-3.1,3.7-6.5,5.7-9.9c0.2,0.4,0.5,0.8,0.6,1.3c1.4,4.5,3.5,8.6,6.3,12.3c3.2,4.2,6.6,8.2,10.1,12.1
	c4.2,4.6,9.6,7.3,15.3,9.6c1.7,0.7,3.4,1.5,5,2.2c2.5,1.1,4.2,3.1,5.7,5.3c0.3,0.5,0.3,1.2,0.4,1.8c0.3,2.1,0.4,4.1,0.9,6.1
	c0.3,1.3-0.1,2.1-1,2.9c-3.9,3.6-8.5,4.4-13.6,3.5c-3-0.5-5.9-1.5-8.5-3.1c-2.8-1.7-5.6-1.7-8.2,0.6c-3.4,3-9.8,3.7-14.8,0.6
	c-0.8-0.5-1.6-1.1-2.4-1.6c-3-2-6.1-2.1-9.2-0.3c-1,0.6-2.1,1.2-3.2,1.7c-1.6,0.7-3.2,1.1-4.9,0.5
	C268.1,316.1,267.4,315.6,266.8,315.4z"/>
<path class="st0" d="M230.8,744.3c0.3,6.5,0.5,12.9,0.8,19.5c-0.7-0.1-1.2-0.2-1.7-0.3c-3.3-0.9-6.6-1.9-9.9-2.6
	c-10.1-2.1-19.3-6.5-28.3-11.4c-7.4-4-14.5-8.4-20.9-13.8c-4.2-3.6-9-6.3-14-8.7c-8.6-4.1-17.1-3.7-25.7,0.1c-0.1,0.1-0.3,0-0.6,0.1
	c-2-3.2-2.9-6.6-2.1-10.4c0.7-3.5,3.4-5.5,7.4-5.4c3.7,0,7.5,0.4,11.2,0.5c1.6,0,3.2-0.1,4.7-0.5c3.7-1,7-0.1,9.9,2.2
	c1.7,1.4,3.2,2.9,4.7,4.5c4.9,5.1,10.6,8.6,17.7,9.7c3.7,0.5,7.3-0.3,10.9-1c3.3-0.6,6.6-1.3,10-0.9c3,0.4,5.5,1.5,7.6,3.6
	c1.4,1.4,2.8,2.9,4.1,4.4c1.3,1.4,2.5,2.9,3.7,4.4C223,741.3,226.3,743.6,230.8,744.3z"/>
<path class="st0" d="M75.1,687.9c-0.1,1-0.2,2.1-0.3,3.1c-0.4,6.4,0.6,12.5,3.8,18.2c1.9,3.5,4.6,5.8,8.5,6.7
	c0.4,0.1,0.9,0.3,1.5,0.6c-1.7,1.8-3.3,3.4-4.9,5.1c-3.4,3.7-6.3,7.6-8,12.4c-2.2,5.9-3.7,11.8-2.2,18.2c0.5,2.2,0.6,4.6,0.1,6.9
	c-0.6,2.8-2.2,4.7-5,5.5c-1.9,0.6-2.7,0.1-3.1-1.8c-1.4-7.6-6.1-12.7-12.7-16.1c-3.6-1.8-5.5-4.4-6.4-8.1c-0.5-1.9-0.7-3.8-1.1-5.6
	c-0.6-2.6,0.3-4.7,2-6.6c2.5-2.7,4.9-5.5,7.3-8.2c7.7-8.5,13.8-18.2,18.9-28.4c0.4-0.7,0.7-1.4,1.1-2.1
	C74.8,687.8,74.9,687.8,75.1,687.9z"/>
<path class="st0" d="M345.3,250.3c-0.2,0-0.4,0.1-0.4,0c-2.4-4-6.3-5.2-10.5-5.7c-3.4-0.4-6.8-0.7-10.2-0.9c-3.9-0.2-7.5-1.2-11-2.9
	c-0.6-0.3-1.2-0.5-1.7-0.9c-3.2-2.2-6.8-2.6-10.6-2c-3.9,0.6-7.7,1.1-11.6,1.9c-3.3,0.6-6.6,0.9-9.9-0.3c-2.8-1-5.5-0.4-8.2,0.5
	c-5,1.5-9.9,2.9-14.9,4.4c-0.2,0.1-0.5,0.1-0.7,0.2c-4.5,0.5-8.1,2.4-10.4,6.6c0.1-0.5,0.1-1.1,0.4-1.6c1.1-1.8,2.1-3.8,3.6-5.3
	c4.1-4,7.9-8.3,11.5-12.8c2.3-2.9,5.4-4.5,9-4.9c4.7-0.5,8.9,0.5,12.3,3.9c1.7,1.7,3.3,3.5,4.9,5.2c-0.4,0.5-0.7,0.9-1.1,1.4
	c0.4,0.1,0.7,0.2,0.8,0.1c3.2-1.1,6.5-2.2,9.6-3.5c5.1-2.2,10-4.9,15.5-6.2c3.5-0.8,7-1.5,10.7-1c5.1,0.7,9.4,3,13,6.6
	c2.4,2.4,4.6,5,6.8,7.7c2,2.4,2.9,5.3,3.1,8.4C345.4,249.6,345.3,249.9,345.3,250.3z"/>
<path class="st0" d="M333.6,391.5c-2.5,0.6-4.5,1.1-6.6,1.7c-3.3,1.1-6.6,0.9-9.9,0c-3.1-0.9-6.2-1.6-9.3-2.4
	c-2.7-0.7-5.4-0.6-7.9,0.7c-2.5,1.2-4.9,2.6-7.3,4c-1.3,0.8-2.4,1.8-3.7,2.6c-1.9,1.1-3.8,2-6.4,1.7c-0.2-7.5,1.8-15,0.4-22.8
	c3.5-1.3,6.9-2.7,10.3-3.9c0.8-0.3,1.8,0.1,2.7,0.3c0.5,0.1,1,0.5,1.4,0.9c5.8,4.5,12.3,6,19.4,4.5c4-0.9,6.8,0.5,8.9,3.8
	C327.8,386,329.9,389.2,333.6,391.5z"/>
<path class="st0" d="M315,474.3c-3.6-0.7-6.9-1.2-10.1-2.1c-2-0.5-3.9-1.4-5.6-2.5c-4.4-2.9-8.7-6-13.2-9.1c4.7-3,7.9-7.6,11.2-12.1
	c0.7-1,1.4-1.1,2.5-0.6c0.3,0.1,0.6,0.3,0.8,0.5c2.8,2,6,2.9,9.4,3c0.4,0,0.8,0.1,1.3,0.2C313,458.9,314.1,466.4,315,474.3z"/>
<path class="st0" d="M254.7,328.8c2.2-5.1,2.5-10.3,2.5-15.6c0-7,0.1-14-0.2-21.1c-0.2-5.7-1-11.4-1.5-17.2c0.4,0.2,0.9,0.6,1.4,0.8
	c1.1,0.5,2.1,1.4,3.2,1.5c2.4,0.3,3.1,1.8,3.6,3.8c3.3,12,4.4,24,0.2,36c-0.2,0.7-0.4,1.4-0.9,1.9c-2.6,3.2-5.2,6.3-7.8,9.4
	C255.1,328.6,254.9,328.7,254.7,328.8z"/>
<path class="st0" d="M380.5,396.7c2.4-0.4,4.6-0.9,6.8-1c1.2,0,2.5,0.6,3.5,1.3c1.4,1.1,2.7,2.5,3.9,3.9c3.1,3.8,6.7,6.7,11.3,8.6
	c1.1,0.5,2.1,1.1,3.2,1.7c2.8,1.5,3.2,4.3,0.9,6.5c-2.5,2.4-5.5,3.3-8.8,2.5c-2.7-0.7-5.3-1.6-8-2.5c-0.6-0.2-1.2-0.7-1.6-1.3
	c-3.6-6.1-7.1-12.3-10.7-18.4C380.8,397.6,380.7,397.3,380.5,396.7z"/>
<path class="st0" d="M344.5,283.3c0.1,1.4,0.3,2.4,0.3,3.4c0.2,4.5,0.2,8.9,0.4,13.4c0.4,8,1.9,15.8,4,23.5c0.8,2.7,1.5,5.5,2.4,8.7
	c-0.8-0.6-1.2-0.9-1.5-1.2c-3.3-3.7-6.8-7.4-10-11.3c-2.4-3-3.4-6.8-4.1-10.6c-1.1-6.6,0.2-13,2.2-19.3c0.1-0.4,0.3-0.9,0.7-1.3
	C340.7,286.9,342.4,285.3,344.5,283.3z"/>
<path class="st0" d="M254.6,247c0,0.4,0.1,0.7,0.1,1c-0.7,7,1.1,13.4,3.6,19.8c0.7,1.8,1.6,3.6,2.5,5.5c0.3,0.7,0.5,1.5,1,2.6
	c-2.9-0.7-4.8-1.9-6.1-4.2c-0.2-0.4-0.4-0.9-0.5-1.3c-0.8-3.5-2.9-5.9-6.2-7.4c-3-1.4-3.6-2.9-3.2-6.2c0.3-2.8,1.4-5.2,3.3-7.3
	C250.4,247.7,252.4,247.2,254.6,247z"/>
<path class="st0" d="M413.6,475.6c-1-10.3-4.6-19.9-7.7-29.6c0.2-0.1,0.3-0.2,0.5-0.3c1,0.9,2.2,1.8,3.1,2.8c3.2,3.6,6,7.4,8.3,11.6
	c2.4,4.4,2,8.5-1,12.5c-0.8,1.1-1.7,2.1-2.6,3.1C414,475.6,413.8,475.6,413.6,475.6z"/>
<path class="st0" d="M199.3,397.9c-3.2,9-8.5,16.9-11.7,25.9c-1-4.2-2.1-8.2-2-12.4c0-0.9,0.3-2,0.9-2.6c3.8-3.5,7.7-6.9,11.6-10.3
	C198.5,398.3,199,398.2,199.3,397.9z"/>
<path class="st0" d="M344.6,279.7c-0.9-2.7-1.8-5.2-2.6-7.7c-1.5-4.3-0.3-8.1,2-11.7c0.9,3.1,2,5.9,2.6,8.9
	C347.3,272.8,347,276.4,344.6,279.7z"/>
<path class="st0" d="M286.4,440.7c-1.6-2-1.7-4.1-0.6-6.8c0.2,1.5,0.3,2.5,0.4,3.5C286.2,438.5,286.3,439.6,286.4,440.7z"/>
<path d="M297.3,150.3c-0.8,0.5-1.7,1-3,1.8c0.3-0.9,0.4-1.4,0.7-1.7c1.4-1.6,3.1-2.7,5.2-3.1c2-0.4,4-0.8,6.4-0.3
	c-1.5,1.3-3.1,1.5-4.4,1.7c-0.8,0.8-1.3,1.8-2,2C299.5,151.1,298.5,150.6,297.3,150.3z"/>
<path d="M292,149.1c0.7-3.8,6.6-7,13-6.9c-2.2,1.6-4.7,2-6.7,3.1C296.1,146.5,294.1,147.8,292,149.1z"/>
<path d="M276.4,145.7c7.2-0.3,10.8,4.6,10.2,10.5c-1.1-2.4-1.1-5.4-3.5-7C281.1,147.9,278.7,146.9,276.4,145.7z"/>
<path d="M284,153.3c-1.3-0.3-2.5-0.4-3.6-0.8c-0.7-0.3-1.1-1.1-1.4-2c-0.9-0.1-1.8-0.3-2.9-0.4C279,148,282.7,149.6,284,153.3z"/>
<path d="M305.4,149.5c-2.1,3.4-6.2,4.8-8.9,3c0.5-0.2,0.8-0.3,1.2-0.4C300.1,151.3,302.6,150.4,305.4,149.5z"/>
<path d="M297.1,173c-3.1,1-6.1,2.6-9.5,0.6C289.2,172.8,295.3,172.3,297.1,173z"/>
<path d="M294.1,166.3c-2.7,2.5-5.5,2.1-6.8-0.9C289.5,165.7,291.6,166,294.1,166.3z"/>
<path d="M282.1,154.9c-2.8,1-4.8-0.2-5.5-3.2C278.4,152.7,280.1,153.8,282.1,154.9z"/>
<path d="M292.1,177.6c0.8-0.9,1.8-0.7,3-0.4C294.1,178.3,293.1,178,292.1,177.6z"/>
</svg>
