<?xml version="1.0" encoding="utf-8"?>
<!-- Generator: Adobe Illustrator 19.0.0, SVG Export Plug-In . SVG Version: 6.00 Build 0)  -->
<svg version="1.1" id="图层_1" xmlns="http://www.w3.org/2000/svg" xmlns:xlink="http://www.w3.org/1999/xlink" x="0px" y="0px"
	 viewBox="0 0 595.3 841.9" style="enable-background:new 0 0 595.3 841.9;" xml:space="preserve">
<style type="text/css">
	.st0{fill:#FFFFFF;}
</style>
<path class="st0" d="M12.4,825.9c0-269.5,0-539,0-808.5c190.6,0,381.1,0,571.6,0c0,269.5,0,538.9,0,808.5
	C393.5,825.9,202.9,825.9,12.4,825.9z M234,753c0,0.4,0.1,0.9,0.2,1.4c0.3,3.5,0.5,7,0.9,10.6c0.4,3.9,1.5,7.5,4.5,10.4
	c2.7,2.6,5.3,3,8.6,1.5c1.5-0.7,3-1.6,4.5-2.3c3.2-1.6,6.6-2.1,10.1-1.2c2.3,0.6,4.6,1.4,6.8,2.1c5.3,1.6,10.5,1.3,15.5-1.1
	c1-0.5,2.1-1,3.1-1.6c4.2-2.5,8.5-2.8,12.9-0.5c0.7,0.4,1.5,0.7,2.3,1c3.8,1.4,7.7,2.2,11.6,2.7c4.9,0.6,10.6-3.9,8.9-8.9
	c-0.4-1.4,0-2,1.4-2.4c1.5-0.4,3.2-0.7,4.8-0.7c4.1,0,8.3,0.3,12.4,0.4c3.2,0,6.5-0.1,9.6-0.4c4.3-0.5,8.3-2.3,12.2-4.1
	c2.6-1.2,5.2-2.4,7.8-3.4c2.7-1.1,5.1-0.6,7,1.9c0.5,0.6,1,1.2,1.5,1.7c2.9,2.7,6.1,3.3,9.8,1.8c1.8-0.8,3.2-2,4.5-3.5
	c1.2-1.5,1.5-1.5,3.1-0.7c1.2,0.6,2.5,1,3.8,1.5c2.5,0.8,5.1,1.3,7.1,3.4c1.5,1.5,3.3,2.7,5.1,4c2.7,2,5.7,3.3,9,3.8
	c4.6,0.6,9,1.8,13.3,3.5c4.5,1.8,9.2,2.5,14,2c5.1-0.6,10.1-1.7,14.9-3.9c3.8-1.8,7.7-3,11.8-3.7c2.7-0.5,5.4-1,8.2-1.5
	c5.4-1,10.7-2.1,15.6-4.7c3.7-2,7.4-4.1,9.3-8.3c2.2-5,5.4-9.5,9-13.6c4.4-4.9,7.5-10.7,10.3-16.5c1.3-2.7,1.7-5.4,1.1-8.3
	c-0.7-3.2-1.5-6.5-2.6-9.5c-2.2-5.6-6-10-11.2-13c-1.9-1.1-3.3-2.4-4.5-4.1c-3.7-5.4-7-11-9.6-17c-4-9.1-10.8-15.2-20.4-17.9
	c-5.5-1.5-11-3-16.5-4.1c-8.5-1.8-15.9-5.4-21.8-11.9c-1.1-1.2-1.3-2.3-1-3.7c1.2-7.4,2.4-14.7,3.3-22.1c0.6-5.3,0.6-10.6-0.1-15.9
	c-0.7-6.1-2.8-11.8-4.9-17.5c-3.8-10.2-8.8-19.9-13.4-29.8c-2.7-5.8-4.8-11.8-7.2-17.7c-0.4-1.1-0.5-2,0.7-2.8
	c0.5-0.3,0.8-1.2,0.8-1.8c0.1-1.1-0.1-2.2-0.3-3.2c-2-8.4-4-16.7-6.1-25c-1.7-6.8-3.6-13.5-5.4-20.2c-0.2-0.7-0.2-1.3-0.3-1.8
	c3.2-2.3,5.5-5,6.7-8.5c0.5-1.4,0.6-3,0.5-4.5c-0.1-2-0.5-3.9-0.9-5.9c-1-5-3.4-9.4-6.6-13.3c-6.2-7.6-12.1-15.3-19-22.2
	c-0.3-0.3-0.5-0.8-1-1.5c1.3,0.4,2,0.7,2.8,0.9c1.9,0.5,3.7,1.1,5.6,1.4c3.8,0.6,6.9-0.8,9.4-3.7c0.3-0.4,0.6-1.1,1-1.2
	c1.1-0.4,1.3-1.2,1.3-2.2c0-1-0.1-2-0.4-2.9c-0.4-1.3-1-2.5-1.7-3.8c-1-2-1.9-4.1-3.2-5.8c-2.6-3.4-5.4-6.7-8.2-9.9
	c-2.3-2.7-4.7-5.3-6.9-8.1c-5.7-7.3-11.3-14.8-16.9-22.1c-0.7-1-0.8-1.9-0.8-3c0.4-9.3-0.7-18.6-2-27.8c-1.2-8.7-3.1-17.2-3.7-26
	c-0.5-6.9-1.5-13.8-1.8-20.7c-0.2-5.5,0.5-11,0.6-16.6c0.2-14.6,0.4-29.2,0.6-43.8c0-4.3-0.7-8.6-1.6-12.8
	c-1.4-6.3-5.6-9.6-11.5-11.3c-4.2-1.2-8.4-0.9-12.6-0.4c-0.8,0.1-1.8,0.2-2.5-0.2c-1.9-0.9-3.8-1.8-5.4-3c-3.6-2.7-6.8-5.8-9.5-9.3
	c-1.7-2.2-3.1-4.5-3.8-7.3c-0.2-0.8-0.2-1.4,0.2-2.2c0.9-1.7,1.7-3.3,3.5-4.2c0.3-0.2,0.5-0.5,0.8-0.8c2.7-3.7,3.5-7.6,2-12
	c-0.3-0.8-0.3-1.4-0.1-2.2c1.1-3.7,1.6-7.3,0.5-11.1c-0.1-0.4-0.1-0.9-0.1-1.4c0.3-5.6-1.3-10.8-3.4-15.8c-2.2-5.2-5.9-9.3-11-12
	c-2.7-1.5-5.5-1.9-8.3-0.2c-0.2,0.1-0.5,0.2-0.8,0.3c-3.7-2.8-7.8-3-11.9-1.5c-6.5,2.3-11.8,6.3-15.3,12.3c-1.6,2.7-2.5,5.7-3.6,8.7
	c-1.4,3.9-1.1,7.8,1.1,11.3c1.6,2.5,1.8,5.2,2,7.9c0.1,0.9,0.1,1.8,0.1,2.8c0.3,3.2,0.5,6.5,1.9,9.4c2.7,5.6,5.4,11.2,8.2,16.7
	c1.7,3.2,3.6,6.3,7.5,7.5c-0.8,2.5-2.3,4.3-4.3,5.6c-2.2,1.5-4.5,3-6.8,4.4c-1.2,0.8-2.5,1.5-3.8,1.9c-2.7,0.8-5.5,1.4-8.3,2
	c-4.8,1-9.1,3.1-13.3,5.7c-2.1,1.3-3.5,3.2-4.2,5.6c-1.4,4.4-1.8,8.8-0.8,13.4c0.8,3.5,1.1,7.1,2.1,10.6c0.7,2.7-0.3,4.2-2.1,5.9
	c-2.7,2.4-4.5,5.4-5.1,9.1c-0.6,4.4,0,10.2,6,12.7c0.5,0.2,1,0.5,1.4,0.8c1.4,1.1,2.3,2.4,2.3,4.3c0,0.5,0.1,1.1,0.2,1.6
	c0.5,3.5,1.1,7,1.4,10.5c0.9,10.5,1.1,21,0.9,31.5c-0.1,4.1-0.7,8.1-2.4,11.9c-0.2,0.5-0.5,1-0.5,1.5c0,1.3-0.7,2.1-1.7,2.8
	c-2.2,1.7-4.3,3.4-6.6,5.1c-5.4,4-10.9,7.7-15.7,12.4c-6.6,6.5-12.5,13.8-17.9,21.3c-5,6.9-10.1,13.7-15.2,20.6
	c-2.4,3.3-4.8,6.6-7.1,9.9c-1.5,2.3-2.7,4.8-2.3,7.6c0.6,4.3,1.3,8.5,2.2,12.7c0.2,1.3,0.3,2.3-0.2,3.5c-4,8.7-7.2,17.6-9.7,26.8
	c-1,3.7-2.1,7.4-3.2,11c-5.2,17.4-11.1,34.6-17.8,51.6c-5.2,13-10.6,25.9-14.9,39.2c-2.5,7.7-5.6,15.1-8.9,22.5
	c-3.3,7.5-6.4,15.1-9.5,22.7c-1.3,3.1-2.6,6.3-3.8,9.4c-2.5,6.3-4.9,12.6-7.4,18.8c-0.4,1-1.1,1.9-1.8,2.6
	c-3.8,4.2-7.7,8.4-11.6,12.5c-5.4,5.7-9.9,12.1-13.8,18.9c-0.8,1.3-1.6,2.6-2.3,4c-1.9,3.9-3.5,7.8-5.5,11.7
	c-4.9,9.4-10.7,18.3-17.9,26.2c-2.3,2.5-4.5,5.1-6.7,7.6c-1.8,2-2.4,4.4-1.9,7.1c0.3,1.8,0.7,3.6,1.1,5.4c0,0.1,0,0.2,0,0.2
	c1.1,4,3.3,6.9,7.1,8.8c5.9,2.9,10,7.4,11.2,14c0.1,0.6,0.3,1.2,0.6,1.7c0.8,1.5,2.3,2.4,3.8,2c3.3-0.8,5.9-2.5,7-6
	c0.9-3,0.6-5.9,0.1-8.9c-0.9-4.8-0.5-9.5,1.5-14c1.7-3.8,3.5-4.3,6.7-1.5c1.5,1.4,3,2.9,4.2,4.6c2.1,2.9,4.1,6,5.9,9.1
	c4.3,7.2,9.3,13.7,15.8,19c2.7,2.2,5.4,4.2,8.9,4.4c6.8,0.5,12.8-1.2,17.1-7c1.1-1.5,2.1-3,3.1-4.6c1.6-2.6,2.3-5.5,2.1-8.6
	c-0.2-3.5-1.2-6.8-2.6-10c-1.7-3.9-4.1-7.4-6.7-10.7c-0.6-0.8-1.3-1.7-1.9-2.6c2-1.3,4-1.6,6-2c6.1-1.3,12.1-1.1,17.7,2.1
	c4.3,2.4,8.6,4.8,12.4,7.9c6.8,5.5,14,10.2,21.7,14.3c8.6,4.6,17.4,8.7,27.1,10.7C226.3,750.8,230.1,752,234,753z"/>
<path d="M234,753c-3.9-1-7.6-2.2-11.5-3c-9.7-2-18.5-6.1-27.1-10.7c-7.7-4.1-15-8.7-21.7-14.3c-3.8-3.1-8.2-5.5-12.4-7.9
	c-5.5-3.2-11.5-3.4-17.7-2.1c-2,0.4-4.1,0.7-6,2c0.7,0.9,1.3,1.8,1.9,2.6c2.5,3.4,4.9,6.8,6.7,10.7c1.4,3.2,2.4,6.5,2.6,10
	c0.2,3.1-0.5,6-2.1,8.6c-1,1.6-2,3.1-3.1,4.6c-4.3,5.8-10.3,7.5-17.1,7c-3.5-0.3-6.3-2.3-8.9-4.4c-6.5-5.3-11.5-11.9-15.8-19
	c-1.9-3.1-3.8-6.1-5.9-9.1c-1.2-1.7-2.6-3.2-4.2-4.6c-3.1-2.7-4.9-2.3-6.7,1.5c-2,4.5-2.4,9.2-1.5,14c0.6,3,0.8,5.9-0.1,8.9
	c-1,3.5-3.6,5.2-7,6c-1.5,0.3-3-0.5-3.8-2c-0.3-0.5-0.5-1.1-0.6-1.7c-1.2-6.7-5.3-11.2-11.2-14c-3.9-1.9-6-4.8-7.1-8.8
	c0-0.1,0-0.1,0-0.2c-0.4-1.8-0.8-3.6-1.1-5.4c-0.5-2.7,0.1-5,1.9-7.1c2.2-2.5,4.4-5.1,6.7-7.6c7.2-7.9,13-16.7,17.9-26.2
	c2-3.8,3.6-7.8,5.5-11.7c0.7-1.4,1.5-2.7,2.3-4c4-6.8,8.4-13.2,13.8-18.9c3.9-4.1,7.8-8.3,11.6-12.5c0.7-0.8,1.4-1.7,1.8-2.6
	c2.5-6.3,5-12.6,7.4-18.8c1.2-3.1,2.5-6.3,3.8-9.4c3.1-7.6,6.2-15.2,9.5-22.7c3.2-7.4,6.4-14.8,8.9-22.5
	c4.3-13.3,9.7-26.2,14.9-39.2c6.8-16.9,12.6-34.1,17.8-51.6c1.1-3.7,2.2-7.3,3.2-11c2.5-9.2,5.7-18.2,9.7-26.8
	c0.6-1.2,0.5-2.3,0.2-3.5c-0.8-4.2-1.6-8.4-2.2-12.7c-0.4-2.8,0.8-5.3,2.3-7.6c2.3-3.4,4.7-6.7,7.1-9.9c5-6.9,10.2-13.7,15.2-20.6
	c5.5-7.5,11.3-14.8,17.9-21.3c4.8-4.7,10.4-8.4,15.7-12.4c2.2-1.6,4.4-3.4,6.6-5.1c0.9-0.7,1.7-1.5,1.7-2.8c0-0.5,0.3-1,0.5-1.5
	c1.7-3.8,2.3-7.8,2.4-11.9c0.2-10.5,0-21-0.9-31.5c-0.3-3.5-0.9-7-1.4-10.5c-0.1-0.5-0.2-1.1-0.2-1.6c0-1.9-1-3.2-2.3-4.3
	c-0.4-0.3-0.9-0.6-1.4-0.8c-6-2.5-6.6-8.3-6-12.7c0.5-3.7,2.3-6.7,5.1-9.1c1.9-1.6,2.9-3.2,2.1-5.9c-0.9-3.5-1.3-7.1-2.1-10.6
	c-1-4.6-0.6-9,0.8-13.4c0.8-2.4,2.1-4.3,4.2-5.6c4.2-2.5,8.5-4.6,13.3-5.7c2.8-0.6,5.6-1.2,8.3-2c1.4-0.4,2.6-1.2,3.8-1.9
	c2.3-1.4,4.5-2.9,6.8-4.4c2-1.3,3.5-3.1,4.3-5.6c-3.9-1.2-5.9-4.3-7.5-7.5c-2.8-5.5-5.6-11.1-8.2-16.7c-1.4-3-1.6-6.2-1.9-9.4
	c-0.1-0.9-0.1-1.8-0.1-2.8c-0.2-2.7-0.4-5.4-2-7.9c-2.2-3.5-2.5-7.4-1.1-11.3c1-3,2-6,3.6-8.7c3.5-6,8.8-10,15.3-12.3
	c4.1-1.4,8.2-1.3,11.9,1.5c0.3-0.1,0.6-0.2,0.8-0.3c2.8-1.7,5.6-1.3,8.3,0.2c5.1,2.7,8.8,6.8,11,12c2.1,5,3.8,10.2,3.4,15.8
	c0,0.5,0,0.9,0.1,1.4c1.2,3.8,0.6,7.4-0.5,11.1c-0.2,0.8-0.2,1.4,0.1,2.2c1.5,4.3,0.7,8.3-2,12c-0.2,0.3-0.4,0.7-0.8,0.8
	c-1.8,0.9-2.7,2.5-3.5,4.2c-0.4,0.8-0.4,1.4-0.2,2.2c0.7,2.7,2.1,5.1,3.8,7.3c2.8,3.5,5.9,6.7,9.5,9.3c1.6,1.2,3.6,2.1,5.4,3
	c0.7,0.3,1.7,0.3,2.5,0.2c4.2-0.6,8.4-0.8,12.6,0.4c5.9,1.7,10.1,5,11.5,11.3c0.9,4.2,1.6,8.5,1.6,12.8c-0.2,14.6-0.3,29.2-0.6,43.8
	c-0.1,5.5-0.8,11.1-0.6,16.6c0.3,6.9,1.2,13.8,1.8,20.7c0.7,8.7,2.5,17.3,3.7,26c1.3,9.2,2.3,18.4,2,27.8c0,1.1,0,2,0.8,3
	c5.7,7.4,11.2,14.8,16.9,22.1c2.2,2.8,4.6,5.4,6.9,8.1c2.8,3.3,5.6,6.5,8.2,9.9c1.3,1.7,2.2,3.9,3.2,5.8c0.6,1.2,1.2,2.5,1.7,3.8
	c0.3,0.9,0.3,1.9,0.4,2.9c0,1-0.2,1.8-1.3,2.2c-0.4,0.2-0.6,0.8-1,1.2c-2.5,2.9-5.6,4.3-9.4,3.7c-1.9-0.3-3.7-0.9-5.6-1.4
	c-0.8-0.2-1.6-0.5-2.8-0.9c0.5,0.8,0.7,1.2,1,1.5c6.9,6.9,12.9,14.6,19,22.2c3.2,3.9,5.6,8.3,6.6,13.3c0.4,2,0.8,3.9,0.9,5.9
	c0.1,1.5-0.1,3.1-0.5,4.5c-1.1,3.5-3.5,6.2-6.7,8.5c0.1,0.5,0.1,1.2,0.3,1.8c1.8,6.8,3.6,13.5,5.4,20.2c2.1,8.3,4.1,16.7,6.1,25
	c0.2,1,0.3,2.1,0.3,3.2c0,0.6-0.3,1.4-0.8,1.8c-1.2,0.8-1.1,1.7-0.7,2.8c2.4,5.9,4.6,11.9,7.2,17.7c4.6,9.9,9.5,19.6,13.4,29.8
	c2.1,5.7,4.2,11.4,4.9,17.5c0.6,5.3,0.7,10.6,0.1,15.9c-0.9,7.4-2.1,14.7-3.3,22.1c-0.2,1.5,0,2.5,1,3.7
	c5.9,6.6,13.3,10.2,21.8,11.9c5.6,1.1,11.1,2.6,16.5,4.1c9.6,2.7,16.4,8.8,20.4,17.9c2.7,6,5.9,11.6,9.6,17c1.2,1.7,2.6,3.1,4.5,4.1
	c5.2,3,9.1,7.3,11.2,13c1.2,3.1,1.9,6.3,2.6,9.5c0.7,2.9,0.2,5.6-1.1,8.3c-2.8,5.9-5.9,11.6-10.3,16.5c-3.7,4.1-6.8,8.5-9,13.6
	c-1.8,4.1-5.5,6.3-9.3,8.3c-4.9,2.6-10.2,3.7-15.6,4.7c-2.7,0.5-5.4,1-8.2,1.5c-4.1,0.8-8,2-11.8,3.7c-4.7,2.2-9.7,3.3-14.9,3.9
	c-4.8,0.5-9.5-0.2-14-2c-4.3-1.7-8.7-2.9-13.3-3.5c-3.3-0.5-6.3-1.8-9-3.8c-1.7-1.3-3.6-2.5-5.1-4c-2-2-4.6-2.5-7.1-3.4
	c-1.3-0.4-2.6-0.9-3.8-1.5c-1.6-0.8-1.9-0.8-3.1,0.7c-1.2,1.5-2.6,2.8-4.5,3.5c-3.6,1.5-6.9,0.9-9.8-1.8c-0.6-0.5-1.1-1.1-1.5-1.7
	c-1.8-2.4-4.2-2.9-7-1.9c-2.6,1.1-5.2,2.2-7.8,3.4c-3.9,1.8-7.8,3.6-12.2,4.1c-3.2,0.3-6.4,0.4-9.6,0.4c-4.1,0-8.3-0.3-12.4-0.4
	c-1.6,0-3.2,0.3-4.8,0.7c-1.4,0.4-1.9,1-1.4,2.4c1.6,5-4,9.5-8.9,8.9c-4-0.5-7.9-1.3-11.6-2.7c-0.8-0.3-1.6-0.6-2.3-1
	c-4.4-2.3-8.7-2-12.9,0.5c-1,0.6-2,1.1-3.1,1.6c-5,2.4-10.2,2.7-15.5,1.1c-2.3-0.7-4.5-1.4-6.8-2.1c-3.5-0.9-6.9-0.4-10.1,1.2
	c-1.5,0.8-3,1.6-4.5,2.3c-3.4,1.5-6,1-8.6-1.5c-2.9-2.8-4-6.5-4.5-10.4c-0.4-3.5-0.6-7-0.9-10.6C234.1,753.9,234,753.4,234,753z
	 M320.2,542.1c-1.1,0.5-1.8,0.9-2.6,1.2c-5.6,2.6-9.8,6.5-12.8,11.9c-2.6,4.7-5.2,9.4-7.6,14.2c-2.6,5.2-6,9.5-10.9,12.5
	c-4.8,2.9-7.8,7-9.9,12.2c-3.6,9-10,15.5-19.4,18.8c-1.3,0.5-2.6,1-3.9,1.5c-4.6,1.8-8.5,4.5-11.9,8.1c-3.5,3.6-7.2,7.1-11.1,10.4
	c-4.4,3.7-7.5,8.1-8.4,13.8c-0.6,3.5-2,6.7-3.6,9.9c-2.6,4.9-5.7,9.5-9.8,13.2c-2.8,2.5-4.7,5.7-5.9,9.2c-0.6,1.9-1.3,3.8-2.1,5.6
	c-1,2.5-2.7,4.5-4.9,6c-3.8,2.6-7.9,4.2-12.5,3.8c-2.8-0.2-5.6-0.7-8.4-1.2c-1.9-0.4-3.8-0.7-5.7-0.2c-2.2,0.6-6.1,3.6-7.6,5.8
	c4,0.5,7.2,2.6,9.9,5.4c1.5,1.5,3.1,3,4.8,4.3c5.7,4.5,12.1,6.2,19.2,4.9c2.4-0.5,4.8-0.9,7.3-1.3c6.3-1,11.7,0.5,16,5.4
	c1.8,2,3.4,4.1,5.3,6.1c1.3,1.5,2.8,2.9,4.3,4.1c1.4,1.1,3.1,1.8,5.1,1.8c-0.2-12.5-0.3-24.8-0.5-37.1c1.3,9.3,1.8,18.6,1.9,27.8
	c0.3,0.1,0.4,0.2,0.4,0.2c0.3-0.1,0.6-0.2,0.8-0.4c8.4-4,16.7-4.1,24.9,0.5c2.3,1.3,4.7,2.5,7.1,3.9c8.7,4.9,26.1,5.9,36.8-2.5
	c1.1-0.9,2.2-1.6,3.4-2.4c1.5-1,3-1.9,4.5-2.7c3.1-1.6,6.2-1.5,9.2,0.4c1.4,0.8,2.8,1.7,4.2,2.4c7.6,4.1,15.5,5.6,24,2.8
	c3.2-1,6.5-1.8,9.7-2.8c5.2-1.6,10.4-1.8,15.7-0.6c0.8,0.2,1.6,0.3,2.6,0.4c-1-1.9-1.8-3.5-2.7-5.1c0.2-0.1,0.3-0.2,0.5-0.3
	c2.2,3.3,4.5,6.6,6.7,9.9c0.6,0.9,1.2,1.4,2.4,1.4c5.1,0,10,1.2,14.8,3.1c5.8,2.3,11.6,4.5,17.4,6.6c4.7,1.7,9.5,2.7,14.5,2.2
	c2.9-0.3,5.8-0.9,8.6-1.6c6.2-1.5,12.4-2.3,18.6-0.3c1.6,0.5,3.4,0.5,5.1,0.7c0-0.2,0.1-0.4,0.1-0.5c-1.6-0.4-3.3-0.6-4.8-1.2
	c-4.8-1.7-9.7-3.5-14.4-5.5c-5.3-2.2-10.7-4.3-16.3-5.6c-3.3-0.8-6.6-1.3-9.9-2.2c-7-1.8-12.8-5.8-18-10.8c-5-4.9-9.9-9.8-14.7-14.9
	c-8.6-9.2-17.7-17.7-28.1-24.8c-4.3-2.9-8.3-6.4-12.1-9.9c-8.3-7.6-14-17-17.6-27.7c-0.3-0.8-0.4-1.6-0.6-2.3c0.9,1,1.6,2.2,2,3.4
	c5.3,13.3,14,23.9,25.8,32c12.2,8.4,23.4,17.9,33.3,28.9c4.6,5.1,9.8,9.8,14.8,14.5c5.5,5.3,12,8.8,19.6,10.1
	c8.4,1.4,16.3,4.2,24.1,7.6c2.2,1,4.6,1.8,6.8,2.8c6.8,3,13.9,3.7,21.2,2.6c0.8-0.1,1.7-0.4,2.3-0.9c2.2-1.8,4.5-3.5,6.2-6.1
	c2-3,3.5-6.1,4.3-9.6c0.5-2.2,1-4.5,1.7-6.7c1.1-3.6,3.4-6.3,6.8-8c1.7-0.9,3.4-1.8,5-2.9c2.6-1.8,4.5-4,5.9-7.1
	c-0.7-0.2-1.3-0.5-1.9-0.6c-7.8-1.9-15.3-4.5-22.6-7.8c-4-1.8-7.8-4-11.6-6.1c-0.7-0.4-1.5-0.9-2-2.2c13.7,7.5,28,12.1,43,15.5
	c-0.4-0.5-0.6-0.9-0.9-1.2c-3.9-4.4-7.3-9.3-9.7-14.8c-0.6-1.3-1.2-2.6-1.9-3.9c-3.5-6.8-8.8-11.7-16.1-14
	c-5.5-1.8-11.2-3.3-16.9-4.6c-6.5-1.5-12.7-3.4-18-7.8c-0.3-0.2-0.6-0.5-1-0.6c-2.1-1-4.1-2.1-5.6-4.5c-0.2,1.2-0.4,1.9-0.4,2.6
	c-0.2,5.8-0.4,11.7-0.4,17.5c0,3.1,0.2,6.2,0.9,9.1c1.4,5.9,3.2,11.7,4.7,17.6c0.4,1.4,1,2.2,2.3,2.5c1.4,0.3,2.8,0.8,4.3,0.9
	c2.6,0.1,5.2,0.1,7.8-0.2c5.5-0.7,10.9,0.1,16.2,1.3c0.3,0.1,0.5,0.3,1.1,0.7c-0.7,0.1-1,0.1-1.3,0.1c-5.5,0.1-11,0.2-16.6,0.3
	c-2.6,0-5.2,0.2-7.8,0.1c-5.3-0.4-10.2-2.6-12.1-9.2c-1-3.6-2.2-7.2-3.3-10.8c-0.8-2.7-2.5-4.4-5.2-5c-1.5-0.4-3-0.8-4.4-1.2
	c-7.4-2-13.5-5.7-17.8-12.3c-0.7-1.2-1.6-2.2-2.5-3.3c-2.1-2.5-4.7-3.9-8-3.8c-2.2,0-4.3,0-6.5,0c-5.2,0-9.9-1.6-13.9-4.8
	c-2.3-1.9-4.5-4-6.6-6.1c-3.2-3.4-7-5.7-11.6-6.6c-3.4-0.7-6.4-2.1-9.2-4.2c-3-2.2-5.6-4.8-7.6-7.9c-2-3-3.9-6.1-5.7-9.2
	c-1.7-2.9-4-4.9-7.3-6c-3.3-1.1-6.1-2.9-8.2-5.7c-0.3-0.4-0.6-0.8-1-0.9c-1.7-0.5-2.5-1.8-3-3.3c-0.6-1.9-1.3-3.8-1.7-5.7
	c-1-5.1-0.2-10.3,0.4-15.4c0.7-7,1.6-14,2.3-21.1C320.3,546.7,320.2,544.5,320.2,542.1z M126.2,729.2c1.7-1,2.5-2.2,2.2-3.8
	c-0.5-2.6-1.1-5.3-1.8-7.8c-0.8-2.8-1.9-5.5-2.8-8.3c-2.7-8-1.7-15.9,1.1-23.7c0.5-1.3,1.1-2.5,2-3.6c1.3-1.7,3.1-2.2,5.1-1.5
	c1,0.4,2,0.8,3,1.2c3.6,1.4,5.9,0.9,8.5-1.9c0.7-0.7,1.2-1.6,1.8-2.4c1.3-2.1,2.7-4.1,3.9-6.2c2.3-4,5.5-6.8,9.9-8.5
	c5.9-2.4,10.1-6.6,11.4-13.2c0.4-2,1.1-4,1.7-6c1.9-6.4,6-10.7,12.3-13c2.7-1,5.2-2.2,7.8-3.4c2.8-1.4,5-3.6,6.5-6.3
	c0.9-1.5,1.6-3.1,2.5-4.7c2.5-4.6,5.9-8.2,10.7-10.5c0.9-0.4,1.6-1.1,2.5-1.7c0.6-0.4,0.7-1,0.6-1.8c-0.8-4.7-1.6-9.4-2.3-14.1
	c-0.8-5.7-1.2-11.5-0.3-17.2c1-6.7,3.2-13.1,5.3-19.5c0.2-0.6,0.6-1.2,0.9-1.8c-0.1,1.6-0.5,3.1-0.8,4.6c-1.3,5.7-2.6,11.4-3.8,17.1
	c-0.2,1-0.4,2.1,0.1,3.5c0.5-0.7,0.8-1.2,1-1.6c2.2-4,5.4-7.3,9-10c0.4-0.3,0.9-0.7,1.3-0.9c1.6-0.9,2.8-0.6,3.8,0.9
	c0.5,0.8,0.9,1.6,1.2,2.5c0.6,1.5,1.1,3,1.6,4.6c1.8,5.1,5.5,8,10.5,9.6c4.6,1.4,7.8,0.3,10.2-3.9c1.1-1.9,1.9-4,2.7-6.1
	c0.7-1.8,1.3-3.8,2.1-5.6c1.4-3.6,4-5.4,8-5.5c1.8,0,3.7-0.4,5.4-1c4.5-1.6,7-5.1,8-9.7c0.6-2.9,1-5.9,1.4-8.9
	c0.8-5.1,4.1-8.2,9.3-8.5c1.5-0.1,3.1,0,4.6-0.1c5.4-0.2,10.5-1.7,14.6-5.3c3.1-2.7,6.1-5.6,9.2-8.4c-0.7-7.1-1.3-14.2-2-21.4
	c-0.7-7.2-0.6-14.5-1.6-21.9c-1.1,0-2,0-2.9,0c-5.4-0.3-10.4-1.5-14.9-4.8c-3.6-2.6-7.4-5-11.1-7.5c-0.7-0.5-1.3-1-2-1.5
	c0.5-1.2,0.9-2.2,1.2-3.2c1.5-3.8,2.2-7.7,2.4-11.7c0-0.8,0.2-1.7-0.7-2.3c-2.7-1.7-3.2-4.4-3.1-7.3c0.2-5.6-0.7-11.2-1.5-16.7
	c-1.1-7.1-1.5-14.2-0.8-21.4c0.5-4.3,0.9-8.7,1.2-13.1c0.1-1.5,0-3,0-4.7c-1,0.3-1.8,0.5-2.6,0.8c-4.6,1.5-9.3,2.1-14.1,1.1
	c-2.6-0.5-5.2-1.3-7.8-2.1c-4.1-1.2-5.5-0.7-8.1,2.6c-2,2.4-4.1,4.8-6.4,6.9c-4.8,4.3-10.2,7.6-16.3,9.8c-3,1.1-5.9,0.8-8.7-0.6
	c-0.6-0.3-1.3-0.6-1.8-1c-3.4-2.2-6.7-2.1-10.2-0.2c-1.1,0.6-1.7,1.3-2,2.6c-0.5,2-1.1,4-1.9,5.9c-3.2,7.3-6.4,14.6-9.6,21.9
	c-5,11-8.8,22.4-12.2,34c-5.4,18.5-11.4,36.8-18.5,54.7c-5.1,12.8-10.1,25.7-14.9,38.7c-2.9,7.9-5.4,15.8-9,23.4
	c-7.1,15.1-12.5,30.9-19.2,46.1c-0.3,0.6-0.4,1.2-0.7,2.4c2.7-1.7,5.1-1.3,7.6-1.1c3.3,0.3,6.1-0.9,8-3.6c1.2-1.8,2.1-3.7,3-5.7
	c0.8-1.7,1.4-3.6,2.2-5.3c2-4.1,5.5-5.7,9.9-4.7c1,0.2,1.9,0.5,2.9,0.8c2.4,0.7,3.2,0.3,4.1-2c0.3-0.8,0.5-1.6,0.7-2.4
	c1.2-3.6,3.5-6.2,7.4-6.9c3.5-0.6,5.5-2.5,6.1-5.9c0.1-0.3,0.2-0.6,0.3-0.9c1.2-5.8,4.5-9.6,10.4-11.1c2.5-0.6,4.5-2.2,5.9-4.5
	c0.5-0.8,1-1.6,1.5-2.3c1.5-2.6,3.6-4.2,6.8-3.5c1.6,0.3,2.6-0.4,3.5-1.7c0.7-1.1,1.5-2.2,2.4-3c1.2-1.1,1.8-2.4,2.3-3.9
	c3.8-11.9,8-23.7,13-35.2c5-11.4,10.1-22.7,15.1-34.1c6.5-14.7,13.1-29.5,18.1-44.8c0.5-1.5,1.2-3,1.7-4.4c0.2,0.3,0.2,0.6,0.1,0.8
	c-2.5,7.7-4.5,15.5-7.5,23c-6.8,16.7-13.8,33.3-21.1,49.8c-6.5,14.8-12.6,29.7-17.4,45.1c-2.1,6.7-3.8,13.5-2.6,20.6
	c0.7,4-0.2,7.9-1.9,11.4c-2.7,5.5-6.6,9.5-13.3,9.3c-1.4,0-2.5,0.7-3.4,1.7c-1.4,1.6-1.8,3.5-1.7,5.6c0.2,3.3-1.4,5.7-4.4,6.8
	c-2,0.8-4.3,1.3-6.5,1.5c-2.6,0.2-4.1,1.5-4.8,3.9c-0.4,1.2-0.5,2.6-0.8,3.8c-0.4,1.4-0.8,2.8-1.4,4.1c-1.1,2.3-2.9,3.5-5.5,3.5
	c-1.1,0-2.2,0.1-3.2,0c-2.3-0.1-4.3,0.7-5.7,2.4c-1.4,1.7-2.8,3.5-3.9,5.4c-2.8,4.8-6.9,7.1-12.4,6.5c-1.1-0.1-2.3-0.3-3.4-0.4
	c-3.4-0.3-6.4,0.7-9,2.9c-1.3,1.1-2.6,2.4-3.7,3.8c-2.4,3.1-2.3,4.3,0.1,7.3c0.2,0.3,0.5,0.6,0.7,0.9c1,1.2,1.6,2.7,1.6,4.2
	c0.1,2.8-0.3,5.5-1.3,8.1c-0.9,2.3-2.6,3.7-5.1,4.3c-2.1,0.5-4.1,0.1-6.2-0.2c-2.7-0.5-3.8,0-4.7,2.6c-0.8,2.3-1.3,4.7-1.9,7.1
	c-0.2,0.6-0.3,1.2-0.5,1.8c-0.4-1.6-0.5-3.2-0.4-4.7c0.1-1.3,0.2-2.6,0.6-3.9c1-3.6,4.7-5.9,7.9-5c1.1,0.3,2.3,0.3,3.4,0.3
	c2.5,0,4.3-1.3,5-3.6c0.5-1.8,0.7-3.7,1-5.6c0.2-1.7-0.2-3.4-1.5-4.4c-2.2-1.7-2.7-3.9-3-6.5c-0.7-4.8-1.4-9.6-0.8-14.4
	c0.1-1.1,0.3-2.2,0.4-3.3c-1.1,0.6-1.9,1.3-2.6,2.1c-2.6,2.8-5.1,5.5-7.7,8.3c-5.7,6-10.4,12.7-14.5,19.9c-1.9,3.4-3.2,6.8-3.3,10.8
	c-0.3,6.5-0.1,12.9,3.1,18.8c1.9,3.5,4.5,5.9,8.6,6.6c1.6,0.3,2.6-0.1,3.7-1.1c3.3-2.9,6.6-5.8,9.9-8.6c0.7-0.6,1.5-1.1,2.2-1.7
	c0.1,0.1,0.1,0.2,0.2,0.3c-0.9,1-1.9,2.1-2.9,3.3c3.2,0.4,5.3,2.1,6.6,4.6c0.7,1.3,1.3,2.8,1.8,4.2c0.8,2.5,1.6,5,2.2,7.5
	c0.7,3,1.3,6,1.9,9c0.4,2.1,0.7,4.3,1.9,6.1C124.6,727.7,125.5,728.4,126.2,729.2z M318.5,519.7c-0.2-0.1-0.4-0.2-0.6-0.2
	c-0.8,0.7-1.7,1.3-2.4,2c-1.5,1.4-3,2.9-4.5,4.3c-2.8,2.7-6.2,4.5-9.9,5.6c-3.2,1-6.5,1-9.8,1c-6.1,0-8.7,2.4-9.3,8.4
	c-0.3,3.4-0.9,6.8-2.1,10.1c-1.8,4.9-5.3,7.8-10.3,9.1c-1.5,0.4-3.2,0.6-4.8,0.6c-2.7,0.1-4.5,1.5-5.4,3.9c-0.8,2.1-1.4,4.2-2.2,6.3
	c-1,2.3-1.9,4.7-3.2,6.8c-2.1,3.4-5.2,5-9.2,4.5c-6.2-0.8-11-3.8-13.8-9.5c-1-2-1.6-4.1-2.4-6.2c-0.4-1-0.9-1.9-1.4-3
	c-0.8,0.4-1.5,0.7-2,1.1c-4,3.1-7.8,6.3-10,11.2c-1.1,2.4-1.5,4.7-1.2,7.3c1.5,10.1,2.9,20.2,4.3,30.3c0.5,3.9,1,7.7,1.5,11.6
	c-1.1-3.2-1.8-6.5-2.4-9.8c-0.7-3.4-1.3-6.7-2-10.3c-2.8,1.5-5.4,3-7.5,5.1c-2.9,2.8-4.8,6.3-6.5,10c-2.5,5.2-6.4,8.7-11.7,10.8
	c-2.1,0.8-4.3,1.7-6.4,2.6c-3.3,1.4-5.8,3.7-7.4,6.9c-0.9,1.7-1.5,3.5-2,5.4c-0.8,2.5-1.4,5-2.2,7.5c-1,3.3-2.8,6-5.7,7.9
	c-2.3,1.6-4.8,3.1-7.3,4.2c-2.8,1.3-5,3-6.6,5.6c-1.3,2.1-2.5,4.2-3.9,6.2c-1.2,1.8-2.4,3.6-3.9,5.1c-2.5,2.5-5.6,3.1-8.9,1.9
	c-0.9-0.3-1.8-0.8-2.8-1.1c-2.5-1-3.7-0.7-4.8,1.8c-2.7,6.1-4,12.4-2.9,19.1c0.7,4.4,1.9,8.7,3.7,12.8c1.3,2.9,1.9,6,2.1,9.2
	c0.1,1.8-0.7,3.3-1.9,4.5c-1.2,1.1-2.5,1.3-3.8,0.3c-1-0.8-2-1.8-2.5-2.9c-0.9-1.9-1.7-4-1.9-6.1c-0.7-6.3-2.9-12.2-4.7-18.3
	c-0.3-1.1-0.8-2.2-1.5-3.1c-0.7-0.9-1.7-1.8-2.7-2.4c-1.8-1.1-3.7-0.7-5.2,0.8c-2,2.1-3.8,4.4-6,6.3c-4.9,4.2-9.4,8.6-12.9,14
	c-0.2,0.3-0.3,0.7-0.6,1.3c2.7-0.4,4.6,0.6,6.3,2.2c1.1,1,2.2,2,3,3.1c2.3,3.2,4.5,6.6,6.8,9.9c2.7,3.9,5.2,7.8,8,11.5
	c2.9,3.9,6.6,7.1,10.7,9.8c2.5,1.7,5.3,2.3,8.3,2.2c9.2-0.5,14.3-7.7,16.6-14.8c0.2-0.6,0.2-1.4,0.2-2.1c0.2-3.1-0.6-6.1-1.7-9
	c-1.6-4.3-4.2-8-6.9-11.6c-1.3-1.7-2.6-3.5-3.6-5.3c-1.6-2.7-2.4-5.7-2.1-8.8c0.4-5.2,4.1-8.7,8.7-8.6c4.8,0.1,9.5,0.2,14.3,0.2
	c2.1,0,4.1-0.7,5.7-2.1c1.1-1,2.3-2,3.5-2.9c2.2-1.7,4.7-2.6,7.5-2.3c1.9,0.2,3.8,0.5,5.7,0.7c3,0.4,5.9,0.9,8.9,0.2
	c5.8-1.3,10.4-4.1,12.5-10.1c0.6-1.7,1.2-3.3,1.8-5c1.1-3,2.7-5.6,5-7.9c1.1-1.1,2.3-2.2,3.4-3.4c5-5.7,8.9-12,10.4-19.5
	c1.2-6.1,4.2-10.9,8.9-14.9c3.6-3.1,7.2-6.3,10.4-9.7c4.2-4.5,9-7.8,14.8-9.8c1.2-0.4,2.4-0.9,3.7-1.4c4.8-1.9,8.7-4.8,11.9-8.8
	c2.5-3.1,4.5-6.4,5.8-10.1c1.5-4.3,4.1-7.7,8-10.1c1.4-0.9,2.8-1.9,4.1-2.9c2.7-2,4.9-4.4,6.5-7.4c0.9-1.7,1.7-3.4,2.7-5.1
	c2.1-3.9,4-7.8,6.2-11.5c3.4-5.8,8-10.3,14.4-12.7c1.1-0.4,2.1-1,3.3-1.5C319.8,533.4,319.1,526.5,318.5,519.7z M419,529.3
	c-1.7,0-3.3,0.2-4.7,0c-2.2-0.4-3.8,0.3-5,2c-1.4,1.8-2.6,3.8-4.1,5.5c-1.8,2.1-3.6,4.2-5.7,6c-2.9,2.5-6.4,3.2-10.2,2.3
	c-1.5-0.4-2.8-1.1-4.2-1.8c-2.4-1.2-3.5-1-5.1,1.3c-0.8,1.2-1.5,2.5-2.3,3.7c-2.5,3.9-5.9,6.6-10.4,7.8c-2.8,0.7-5.6,0.4-8.5,0.1
	c-3.3-0.4-4.6,0.2-6.1,3.2c-0.7,1.4-1.3,2.9-1.9,4.4c-1,2.5-2.4,4.8-4.5,6.6c-4.6,3.9-9.7,4.1-15.2,2.2c-1.1-0.4-2.1-0.9-3.2-1.2
	c-1.7-0.4-2.4-0.1-3.2,1.5c-0.4,0.8-0.7,1.7-1,2.6c-1.4,5.1-0.9,10.2-0.9,15.4c0,0.4,0.2,0.9,0.5,1.3c2.2,3.1,4.5,6,8.5,7
	c4.4,1.1,7.4,4.2,9.5,8.1c0.6,1.1,1.2,2.1,1.9,3.2c1.5,2.3,3,4.7,4.7,6.8c3.6,4.4,8.1,7.5,13.7,8.7c5.2,1.1,9.5,3.7,13.1,7.6
	c1.5,1.6,3,3.1,4.6,4.5c4.1,3.6,8.7,5.6,14.3,5.4c1.8-0.1,3.7,0,5.5-0.1c4.3,0,7.8,1.5,10.4,4.9c0.8,1.1,1.7,2.2,2.5,3.3
	c3.4,5.2,8.3,8.6,14.1,10.5c1.7,0.6,3.4,1.1,5.1,1.4c5.3,0.8,8.1,3.9,9.1,9c0.4,2.1,1.3,4.2,1.9,6.2c0.3-0.5,0.3-0.8,0.3-1.2
	c-0.9-6.2-1.8-12.4-2.8-18.7c-1.1-7.3-0.6-14.6,0.4-21.8c1.1-8,2.6-15.9,3.6-23.9c0.8-6.3,1-12.7-0.1-19.1c-0.9-5.2-2.4-10.2-4.4-15
	c-4-9.5-8.2-19-12.4-28.5C423.6,543.8,420.8,536.8,419,529.3z M335.5,201.1c-0.7-0.5-1-0.7-1.2-0.8c-6-3.1-10.5-7.9-14.5-13.3
	c-2.3-3.1-3.4-6.5-3.1-10.4c0.2-2.8,0.4-5.7,0.6-8.5c0-0.4,0.2-0.9,0.5-1.2c0.5-0.7,1.2-1.4,1.8-2c4-3.9,4.4-8.9,4.5-14.1
	c0-1-0.1-2-1.1-2.8c-2.2,1.3-3.9,3-4.9,5.4c-1,2.2-2,4.5-3,6.7c-0.3,0.7-0.8,1.3-1.2,2c-0.2,0-0.4-0.1-0.5-0.1
	c-0.3-1.7-0.5-3.5-0.8-5.2c-0.4-1.9-0.7-3.8-1.5-5.5c-1.3-2.8-2.8-5.5-4.5-8c-2-3-4.4-5.7-8.4-6.4c-0.7-0.1-1.4-0.5-2.1-0.9
	c-3-1.7-6.1-1.8-9.3-0.6c-4.2,1.6-7.7,4.1-10.8,7.2c-2,2.1-2.5,4.4-1.8,7.2c0.6,2.3,0.9,4.7,1.2,7c0.2,1.7,0.1,3.5,0.5,5.3
	c0.5,2.6,0.8,5.4,1.9,7.8c2.3,5.4,4.9,10.6,7.4,15.8c0.6,1.2,1.5,2.4,2.3,3.4c2.3,3,5,3.8,8.8,2.9c4.1-1,7.3-3.5,10.6-5.8
	c0.4-0.3,0.9-0.5,1.4-0.8c0.1,0.2,0.2,0.3,0.3,0.5c-1.4,1.4-2.7,3-4.2,4.2c-3.4,2.6-7.2,3.9-11.5,4.1c-1.3,6.1-6.3,8.1-11.2,10.3
	c2.4,0,4.6-0.2,6.8,0.1c2.2,0.2,4.4,0.4,6.5,1.9c-0.5,0.2-0.6,0.2-0.8,0.2c-0.2,0-0.5,0-0.7-0.1c-5.2-1-10.4-0.8-15.5,0.6
	c-1.3,0.3-2.5,0.6-3.8,0.8c-6.2,1.1-12.1,2.9-17.5,6.2c-2.1,1.2-3.4,3-4.2,5.3c-1.5,4.7-1.6,9.3-0.5,14.1c0.7,3.3,1.2,6.6,1.7,10
	c0.1,0.4,0.3,0.8,0.5,1.4c0.7-0.7,1.2-1.3,1.7-1.8c2-2.3,3.9-4.8,6-7c5.7-6.1,17.2-6.3,22.7,0.3c1.5,1.8,3.1,3.6,4.7,5.5
	c0.9-0.3,1.6-0.6,2.4-1c3-1.4,6-2.8,8.9-4.3c3.7-2,7.6-3.3,11.6-4.3c8.2-2,15.6-0.7,21.9,5.1c3,2.8,5.6,6.1,8.4,9.1
	c0.4,0.5,0.8,1,1.5,1.9c0-1,0-1.4,0-1.8c0.2-5.8,0.3-11.5,0.5-17.3c0-0.7,0.3-1.5,0.4-2.2c0.5,0.4,0.6,0.8,0.7,1.1
	c0.1,6.7,0.3,13.4,0.2,20c-0.1,4.7,0.1,9.5-0.8,14.2c-0.5,3-0.3,6,0.9,8.8c2.2,5.3,1.8,10.3-1.7,15c-0.4,0.5-0.5,1.3-0.4,1.9
	c0.2,2.8,0.7,5.6,0.8,8.5c0.5,13.2,2.6,26.1,6.3,38.8c0.5,1.7,1.2,3.1,2.4,4.4c5.2,6,10.3,12,15.4,18.1c0.3,0.4,0.7,0.7,1.3,1.2
	c0.1-1.2,0.2-2.2,0.2-3.1c-0.3-4.8-0.4-9.5-1-14.2c-0.8-6.9-2-13.7-2.9-20.5c-1-8.2-1.8-16.5-2.7-24.7c-0.8-6.8-0.8-13.7-0.3-20.5
	c0.7-8.1,0.7-16.3,0.6-24.4c-0.1-7.2-0.2-14.4-0.2-21.7c0.1-6.3-0.7-12.4-2.2-18.5c-1.1-4.7-4.2-7.6-8.7-9c-1.9-0.6-3.9-0.9-5.9-1
	c-3.9-0.3-7.8,0.3-11.7,1c-2.2,0.4-4.4,0.5-6.6,0.7c-3.7,0.2-7.4,0.4-11,0.6c-1.3,0.1-2.5,0.3-3.8,0.4c0.3-0.4,0.6-0.6,0.9-0.7
	c3.6-1.1,7.3-1.2,10.9-1.5C328.7,202.1,331.9,201.9,335.5,201.1z M416.2,509.1c-0.1-0.3-0.1-0.7-0.2-1.1c-1.5-5.4-3.1-10.8-4.5-16.2
	c-1.5-5.7-2.9-11.5-4-17.2c-1.2-5.9-2-11.9-3.9-17.8c-1.3-4.2-2.3-8.4-3.5-12.6c-0.2-0.7-0.7-1.4-1.3-1.7c-6.9-4.7-14.8-3.4-19.9,1
	c-2.5,2.2-5.5,3.7-8.8,4.4c-7.1,1.5-14,1.7-20.4-2.5c-0.8-0.5-1.6-0.5-2.3,0.1c-0.4,0.3-0.8,0.5-1.1,0.8c-5,3.3-10.4,3.9-16.1,1.9
	c-1.5-0.5-2.9-1.3-4.4-2.1c-1.2-0.6-2.5-0.8-3.8-0.2c-3.4,1.6-6.6,3.5-10.6,3.9c0.6,2.1,1.3,3.8,1.7,5.6c1.9,8.4,2.9,16.9,3.8,25.5
	c0.2,1.6,0.2,3.2,0.3,4.8c0.1,1.7,0.1,3.4,0.3,5.1c0.1,1.6,0.3,3.2,0.4,4.8c0.1,1.6,0.3,3.2,0.4,4.8c0.2,1.7,0.3,3.4,0.5,5
	c0.2,1.6,0.3,3.2,0.5,4.8c0.2,1.7,0,3.5,0.6,5c0.7,1.6,0.1,3,0.4,4.5c0,0.1,0,0.2,0,0.2c0.4,4.3,0.9,8.5,1.3,12.8
	c0.2,2.6,0.4,5.1,0.6,8c0.8-0.5,1.3-0.8,1.9-1.2c1.7-1.2,3.6-1.7,5.7-1c2.4,0.8,4.6,0.2,6.5-1.2c1.7-1.4,3.3-3,4.8-4.5
	c1.3-1.4,2.4-3,3.8-4.4c2-2,4.4-2.8,7.1-1.6c1.7,0.7,3.5,1.2,5.2,1.9c3.5,1.4,6.6,0.8,9.4-1.8c1-0.9,2-1.9,3-2.8c1-0.9,2-1.9,3-2.8
	c2.6-2.3,5.4-3,8.7-1.7c1.5,0.6,3.1,1,4.6,1.4c4.5,1.1,8.6,0.2,12-2.9c1.9-1.7,3.8-3.6,5.4-5.7c1.7-2.2,3.7-3.4,6.5-3.4
	C412,509.1,414,509.1,416.2,509.1z M379.4,721.9c-2-0.3-3.8-0.4-5.5-0.8c-4.2-1-8.4-0.7-12.5,0.4c-4.4,1.2-8.7,2.5-13.1,3.6
	c-6,1.6-11.9,1.4-17.6-1.1c-3.4-1.5-6.8-3.2-10.1-5c-2.5-1.4-4.9-1.5-7.4,0.1c-2.1,1.4-4.2,2.8-6.3,4.3c-3.7,2.6-7.6,5-12.1,6.1
	c-11.3,2.6-22.1,1.4-32-5.1c-2-1.3-4.1-2.5-6.3-3.4c-7.4-3.1-14.7-2.6-21.9,1.4c0.2,5.1,0.3,10.1,0.5,15.2c0.2,4,0.5,8,0.8,12
	c0.4,5.5,0.8,11,1.3,16.5c0.3,2.8,1.4,5.3,3.4,7.4c2.3,2.3,3.9,2.7,6.8,1.3c1.3-0.6,2.6-1.4,3.9-2c4-2,8.2-2.6,12.5-1.3
	c1.8,0.5,3.7,1.1,5.5,1.7c5.4,1.9,10.6,1.4,15.6-1.2c1.6-0.8,3.1-1.6,4.7-2.3c3.2-1.4,6.4-1.5,9.6-0.3c1.4,0.5,2.7,1.1,4.1,1.6
	c3.6,1.5,7.5,2.3,11.4,2.8c0.4,0.1,0.8,0.1,1.1,0.1c3.4,0,6.3-2.5,6.4-6c0-2.8,0.8-3.9,4.3-5.1c1.5-0.5,3.2-0.5,4.8-0.5
	c4.2,0,8.5-0.1,12.7,0.1c5.7,0.2,11.1-0.9,16.3-3.2c2.2-1,4.4-2.2,6.7-3.1c1.8-0.8,3.5-1.5,5.4-2c3.1-0.9,5.7-0.1,7.8,2.4
	c0.6,0.8,1.3,1.5,2,2.2c2.1,1.8,4.4,2.3,7,1.2c1.5-0.7,2.7-1.7,3.7-3c1.8-2.2,3.3-2.4,5.8-1c0.6,0.4,1.1,0.8,1.7,1.1
	c0.8,0.4,1.6,0.7,2.4,1C394,746.5,386.6,734.1,379.4,721.9z M294.2,330c-0.5,1.3-0.8,2-1.1,2.8c-0.9,2.6-2.3,4.8-4.2,6.8
	c-2.5,2.5-5.2,4.8-8.3,6.6c-6.8,3.9-14,7-21.6,8.9c-8.6,2.2-17.2,2.3-25.5-1.3c-0.1-0.1-0.3,0-0.7,0c-1.2,1.2-2.6,2.5-3.9,3.9
	c-5.9,6.3-11.2,13-16.2,20c-5.4,7.6-11.1,14.9-16.6,22.4c-0.7,0.9-1.3,1.8-1.9,2.7c0.1,0.1,0.3,0.2,0.4,0.3c0.6-0.6,1.3-1.2,1.9-1.8
	c3.3-3,6.8-5.7,11-7.5c2.9-1.3,5.7-1.2,8.4,0.2c0.6,0.3,1.3,0.6,1.8,1c3.6,2.3,7.2,2.2,10.9,0.5c4.6-2.1,8.9-4.8,12.8-8.1
	c2.7-2.3,5.2-4.8,7.3-7.7c2.5-3.4,5-4.1,9.1-2.9c0.8,0.2,1.6,0.5,2.4,0.8c6.1,2.1,12.3,2.4,18.5,0.3c3.9-1.3,7.7-2.7,11.4-4.3
	c3.4-1.5,6.3-1.2,9.2,1.2c3.6,2.9,7.9,4.1,12.5,3.9c1.7,0,3.4-0.3,5-0.6c3.8-0.6,6.8,0.7,9,3.8c1.2,1.7,2.4,3.4,3.6,5.1
	c1.5,2,3.5,3.5,5.7,4.5c3.6,1.6,7.3,2.3,11.2,1.7c2-0.3,4.1-0.6,6.1-0.9c5.7-0.9,11.4-1.3,16.9,1.3c3.6,1.6,7.6,2.1,11.5,1.1
	c3.9-1,6.9,0,9.5,3c1.6,1.8,3.2,3.5,4.8,5.3c2.7,2.9,6.2,4.2,9.8,5.7c-0.5-1.4-1.1-2.8-2-3.9c-1.8-2.5-3.6-5-5.7-7.2
	c-7.2-7.5-13.5-15.7-19.6-24.2c-2.3-3.2-4.9-6.1-7.3-9.2c-0.3-0.3-0.6-0.8-1-0.9c-3.9-0.9-7.8-1.7-11.7-2.5c-1.7-0.3-3.4-0.4-5-0.8
	c-5.1-1.4-9.6-4.1-13.6-7.5c-2.8-2.4-5.9-3.7-9.5-4.2c-6.7-0.9-13.4-2.1-19.8-4.1C302.7,341.9,296.6,338.4,294.2,330z M509.4,692.1
	c-0.3,0.5-0.5,0.9-0.7,1.3c-1.5,2.9-3.7,5.3-6.4,7.1c-1.6,1-3.3,2-5,2.9c-2.3,1.2-4.2,2.9-5.2,5.3c-0.8,2.1-1.5,4.3-2,6.6
	c-1.1,5.1-3.3,9.5-7.1,13.2c-0.8,0.8-1.4,1.8-2.1,2.7c0.1,0.1,0.2,0.3,0.3,0.4c5-1.2,10.1-2.5,15.1-3.7c-0.6,0.6-1.2,1-1.9,1.3
	c-5.4,1.7-10.8,3.4-16.2,5.1c-1.8,0.5-3.6,0.8-5.3,1.5c-4.9,2.2-9.9,3.2-15.2,1.7c-4.7-1.3-9.4-1.3-14.1-0.2
	c-1.9,0.4-3.8,0.8-5.6,1.3c-5.9,1.5-11.7,1.4-17.5-0.1c-6-1.5-11.6-3.9-17.2-6.4c-4.6-2.1-9.3-4-14.3-5c-1.4-0.3-2.9-0.6-4.5-0.2
	c0.2,0.5,0.3,0.8,0.5,1c4.3,6.5,8.6,13.1,13,19.6c4.7,7,10.7,12.6,17.7,17.3c2.4,1.6,4.9,2.7,7.8,3.2c4.6,0.7,9,1.7,13.3,3.5
	c2.8,1.2,5.8,1.9,8.9,2.1c6.2,0.3,12.1-0.9,17.7-3.4c5.6-2.5,11.4-4,17.4-5c5.9-1,11.8-2.1,17.3-4.6c4.6-2.1,8.6-4.6,10.7-9.5
	c2.1-4.8,5.2-9.1,8.7-12.9c4.3-4.7,7.1-10.3,9.9-16c1-2,1.2-4.1,0.9-6.3c-1.1-6.5-3.2-12.6-8-17.5
	C517.2,695.1,513.7,693.1,509.4,692.1z M332.2,305.3c0.9-3.9,1.6-7.4,2.4-10.9c0.2-0.7,0.3-1.4,0.6-1.9c1.1-2.1,2.3-4.1,3.6-6.1
	c1.3-2,1.3-4,0.3-6.1c-0.2-0.3-0.3-0.7-0.4-1.1c-1.7-3.8-1.5-7.6,0.3-11.3c0.7-1.5,1.5-2.9,2.2-4.3c1.1-2,1-4,0-6
	c-1-2-2.6-3.3-4.7-3.7c-3-0.6-6-1.2-9.1-1.4c-6.7-0.4-13.3-1.5-19.1-5.2c-1.6-1-3.4-1.4-5.3-1.1c-4.3,0.6-8.7,1.1-13,1.9
	c-3.5,0.6-7,1-10.4-0.3c-2.1-0.8-4.2-0.5-6.3,0.2c-3.1,1.1-6.2,2.2-9.4,3.2c-2.2,0.7-4.4,1.2-6.7,1.9c0,1-0.1,1.9,0,2.8
	c0.5,7.1,2.6,13.8,5.8,20.2c2.5,5.2,4.6,10.5,5.5,16.3c0.1,0.5,0.2,1,0.4,2c2.6-2.5,4.6-5,6.4-7.6c1.8-2.7,3.8-5.2,5.7-7.8
	c1.8-2.7,3.7-5.3,5.2-8.1c1.5-2.8,2.7-5.7,4.1-8.6c0.2,0,0.4,0,0.5,0c0.3,0.6,0.6,1.3,0.8,1.9c0.5,1.7,0.8,3.5,1.5,5.1
	c3.9,9.1,10,16.5,17.2,23.1c3.8,3.5,8.6,5.3,13.2,7.3C326.7,300.9,329.8,302.3,332.2,305.3z M286.7,456.5c0.1,0.1,0.3,0.2,0.4,0.3
	c1-1.1,2.1-2,2.9-3.2c2-2.5,3.8-5,5.7-7.5c1.4-1.8,2.5-2.1,4.6-1.1c0.3,0.2,0.7,0.4,1,0.6c4.2,2.6,8.7,2.9,13.3,1.4
	c1.9-0.6,3.7-1.5,5.5-2.4c2.6-1.4,5-1.4,7.6,0.1c6.3,3.6,12.5,3.4,18.4-0.9c1.7-1.3,3.3-1.4,5-0.1c2.1,1.5,4.5,2.4,7,2.7
	c2.2,0.2,4.4,0.3,6.7,0.2c4.5-0.1,8.6-1.5,12.2-4.3c0.8-0.6,1.6-1.3,2.4-1.8c5.7-3.6,11.6-4.3,17.7-1.4c5.1,2.4,9.5,5.6,12.8,10.3
	c0.3,0.4,0.7,0.8,1.1,1.2c0.1-0.1,0.3-0.2,0.4-0.3c-1-1.5-1.9-3.1-3.1-4.5c-4.7-5.8-9.6-11.6-14.3-17.4c-2.5-3.1-5-6.2-7.5-9.3
	c-0.9-1.1-1.7-1.4-3.2-0.7c-4,1.9-8,2.6-12.3,1c-0.4-0.2-0.9-0.2-1.3-0.3c-3.1-0.5-6.2-1-9.3,0.1c-1.2,0.4-2.4,0.9-3.7,1.3
	c-2.6,1-5.3,1-7.9,0.1c-2.8-1-5.7-1.8-8.5-3c-2.7-1.1-5.1-1.2-7.8-0.1c-3,1.3-6.2,1.5-9.5,1c-3.4-0.5-6.8-1.4-9.9-2.8
	c-4.6-2-8.7-1-12.1,2.2c-3.4,3.2-7,6.2-11.1,8.6c-2.1,1.2-2.9,3-2.5,5.5c0.4,2.3,0.8,4.7,1,7.1c0.6,4.9,0.6,9.8-0.7,14.6
	C287.3,454.7,287,455.6,286.7,456.5z M321.3,590c-0.1-1.4-0.2-2.9-0.2-4.3c-0.1-4.2-0.3-8.5,1.2-12.5c1.4-3.8,3.6-4.8,7.4-3.3
	c1.1,0.4,2.3,1,3.4,1.3c6.7,1.6,12-0.5,14.9-6.7c0.5-1.1,0.9-2.3,1.4-3.4c0.7-1.4,1.3-2.8,2.1-4.1c1.4-2.2,3.5-3.4,6.2-3.1
	c0.8,0.1,1.7,0.2,2.5,0.3c6.5,0.9,11.6-1.3,15.3-6.7c0.6-0.9,1.1-1.8,1.7-2.7c0.6-0.9,1.2-1.8,1.9-2.6c1.7-1.8,3.6-2.2,5.9-1.2
	c1,0.4,1.9,1,2.9,1.4c3.2,1.5,6.3,1.3,9.2-0.7c1.7-1.2,3.3-2.7,4.7-4.3c1.8-2.2,3.4-4.6,5.1-6.9c1.9-2.6,4.2-3.9,7.5-3.4
	c1.7,0.3,3.5,0.2,5.2-0.7c0-0.5,0.1-0.8,0-1.2c-0.6-3.2-1.2-6.5-1.8-9.7c-0.8-3.7-1-3.9-4.8-4.4c-0.3,0-0.6-0.1-0.9-0.1
	c-3-0.1-5.4,0.7-7.3,3.4c-1.7,2.3-3.8,4.2-6,6c-2.9,2.4-6.4,3.4-10.1,3c-2.3-0.3-4.7-0.8-6.9-1.6c-3.3-1.2-6-0.7-8.4,1.8
	c-0.4,0.4-0.9,0.9-1.3,1.3c-1.3,1.3-2.6,2.6-4,3.8c-3.3,3-7,3.6-11.1,2c-1.8-0.7-3.6-1.4-5.4-2.1c-1.8-0.7-3.3-0.5-4.7,0.8
	c-1.2,1.2-2.2,2.5-3.4,3.7c-1.9,1.9-3.7,3.9-5.7,5.6c-2.2,1.7-4.8,2.5-7.6,1.6c-2.2-0.7-4-0.2-6,0.8c-1.3,0.6-1.9,1.4-1.9,3
	c0,3-0.1,6-0.4,9c-0.8,7.4-1.7,14.8-2.5,22.2c-0.4,3.4-0.5,6.9,0.1,10.3C319.7,587.2,320,588.8,321.3,590z M367,359.9
	c-0.2-0.2-0.5-0.7-0.8-1.1c-5.3-6.3-10.6-12.5-15.9-18.8c-3.9-4.6-7.9-9-11.6-13.7c-1.7-2-2.9-4.4-4.4-6.7c-0.4,0.3-0.8,0.7-1.2,1
	c-3.9,3.2-8.4,4.3-13.4,3.5c-3.5-0.6-6.9-1.5-9.9-3.4c-1.9-1.2-3.5-1-5.3,0.3c-5.4,4-11.5,4.1-17.1,0.4c-0.5-0.3-1-0.7-1.5-1
	c-2.3-1.7-4.8-1.9-7.3-0.5c-1.1,0.6-2.2,1.1-3.3,1.5c-2.7,1-5.3,1.1-7.5-1.1c-0.1-0.1-0.3,0-0.5,0c-0.2,0.3-0.4,0.6-0.6,0.9
	c-5.1,8.7-11.6,16-19.9,21.7c-3.6,2.5-7,5.2-10.5,7.8c-0.7,0.5-1.4,1.2-2.1,1.8c0.4,0.3,0.5,0.5,0.7,0.5c3.7,0.5,7.4,1.4,11.1,1.5
	c5,0.2,9.9-0.8,14.7-2.2c8.9-2.8,17.5-6.3,24.8-12.2c2.2-1.8,4.2-3.8,5.4-6.5c0.8-1.8,1.5-3.7,2.3-5.5c0.2-0.5,0.6-0.9,1.2-1.8
	c0.4,1.2,0.7,1.9,0.9,2.6c1.1,3.4,2.8,6.3,5.5,8.6c3.2,2.6,6.8,4.3,10.7,5.1c5.6,1.2,11.3,2.4,16.9,3.2c4.9,0.7,9.2,2.4,13.1,5.6
	c4,3.3,8.5,5.9,13.7,6.7C359.2,359,363.2,359.4,367,359.9z M285.4,429.6c0.5-0.8,0.7-1.2,1-1.5c1-1.1,1.8-2.5,2.9-3.2
	c3.8-2.2,7.1-5.1,10.3-8.1c3.9-3.7,8.5-4.7,13.7-2.7c0.8,0.3,1.6,0.6,2.4,0.9c5.9,2,11.9,3.1,17.9,0.3c1.9-0.9,3.9-0.5,5.8,0.1
	c2.7,0.9,5.4,1.7,8.1,2.7c3.7,1.5,7.2,1.3,10.7-0.4c2-1,4.2-1.4,6.5-1.2c2.4,0.2,4.8,0.3,7,1c4.8,1.4,8.9,0,13-2.3
	c-2.9-6-6.8-11.4-8.6-17.8c-3.7-0.4-7.1-1.4-10.4-2.7c-1.4-0.5-3-0.8-4.5-0.7c-3.7,0.3-7.5,0.7-11.2,1.3c-4.7,0.7-9.3,0.6-13.9-0.8
	c-0.9-0.3-2-0.3-2.9-0.2c-2.6,0.5-5.2,1.2-7.8,1.9c-2.4,0.6-4.8,0.9-7.3,0.2c-3.4-0.9-6.8-1.8-10.3-2.6c-2.4-0.6-4.8-0.5-7,0.6
	c-2.6,1.3-5.2,2.7-7.6,4.2c-3.1,2-6.2,4-10.4,3.6C282.3,411.4,284.4,420.1,285.4,429.6z M115.2,651.3c0.2-0.1,0.3-0.1,0.3-0.1
	c0.4-0.5,0.9-1.1,1.3-1.6c3.8-4.5,8.2-7.3,14.4-6.7c0.8,0.1,1.7,0,2.5,0.1c5.2,0.7,8.7-1.5,11.1-6c0.9-1.7,2.2-3.3,3.5-4.8
	c2.1-2.5,4.9-3.6,8.2-3.5c1,0,2,0,3,0c1.4,0,2.4-0.6,3-1.8c0.6-1.2,1.1-2.4,1.4-3.6c0.4-1.3,0.4-2.6,0.7-3.8c1-3.8,3.3-5.7,7.2-6
	c0.8-0.1,1.7-0.1,2.5-0.3c5.1-1.2,6.4-3.1,6.2-7.1c-0.2-3.9,3.4-8.6,8.3-8.3c2.9,0.2,5.2-1.1,7.1-3.2c4.1-4.4,5.5-9.7,4.8-15.5
	c-0.4-3.3-0.5-6.6,0.1-9.9c0.2-1.2,0.4-2.4,0.6-4c-3.1,3.8-3.1,3.8-7.7,4c-0.8,0-1.7,0.5-2.4,1.1c-0.6,0.5-1.1,1.3-1.5,2
	c-2.1,4.1-5.5,6.7-10,7.9c-0.4,0.1-0.7,0.3-1.1,0.4c-2.4,1-4.1,2.6-5,5.1c-0.5,1.4-1,2.7-1.4,4.2c-1,4.2-3.2,7-7.8,7.6
	c-3.1,0.5-4.9,2.6-5.9,5.6c-0.3,1-0.6,2.1-1,3.1c-1.1,2.7-2.9,3.5-5.7,2.8c-1.2-0.3-2.3-0.8-3.5-1c-3.6-0.7-5.9,0.5-7.5,3.8
	c-0.5,1-0.9,2.1-1.4,3.2c-0.9,2-1.6,4-2.7,5.8c-2.8,5-6.9,6.9-12.6,5.9c-0.9-0.1-1.8-0.3-2.7-0.3c-2.9,0-4.2,1-4.8,3.9
	c-0.1,0.5-0.2,1.1-0.3,1.6c-1.7,4.4-2.2,8.9-2.2,13.6C114.3,647.3,114.3,649.4,115.2,651.3z M267.9,319.2c0.5,0.3,1.2,0.8,1.9,1
	c1.6,0.6,3.2,0.2,4.7-0.5c1-0.5,2-1.1,3-1.6c3-1.7,6-1.7,8.9,0.3c0.8,0.5,1.5,1,2.3,1.5c4.8,3,11,2.4,14.2-0.5
	c2.4-2.2,5.1-2.2,7.9-0.5c2.5,1.5,5.3,2.5,8.2,3c4.9,0.9,9.3,0.1,13.1-3.4c0.9-0.8,1.3-1.5,1-2.8c-0.4-1.9-0.5-3.9-0.8-5.9
	c-0.1-0.6-0.1-1.3-0.4-1.7c-1.4-2.1-3.1-4-5.5-5.1c-1.6-0.7-3.2-1.5-4.8-2.1c-5.4-2.2-10.7-4.8-14.7-9.3c-3.4-3.7-6.6-7.7-9.7-11.7
	c-2.7-3.5-4.8-7.5-6.1-11.8c-0.1-0.4-0.4-0.8-0.6-1.2c-1.9,3.3-3.5,6.5-5.4,9.5c-2.6,3.9-5.3,7.7-8.2,11.4c-1.8,2.3-3.9,4.5-6.1,6.5
	c-1.2,1.1-1.5,2-1.4,3.5c0.2,3.9,0.6,7.8,0.3,11.7C269.4,312.6,268.5,315.8,267.9,319.2z M233.2,732.1c-4.3-0.7-7.5-2.9-10.1-6
	c-1.2-1.4-2.3-2.8-3.6-4.2c-1.3-1.4-2.6-2.9-3.9-4.2c-2-2-4.5-3.1-7.4-3.5c-3.3-0.5-6.4,0.3-9.6,0.8c-3.5,0.6-6.9,1.5-10.5,0.9
	c-6.8-1-12.3-4.4-17.1-9.3c-1.4-1.5-2.9-3-4.5-4.3c-2.8-2.3-5.9-3-9.5-2.1c-1.5,0.4-3,0.5-4.6,0.5c-3.6-0.1-7.2-0.4-10.8-0.5
	c-3.9,0-6.4,1.9-7.1,5.2c-0.8,3.6,0.1,7,2,10c0.3,0,0.4,0,0.6-0.1c8.2-3.6,16.5-4,24.7-0.1c4.8,2.3,9.4,4.9,13.5,8.4
	c6.2,5.2,13,9.5,20.1,13.3c8.7,4.7,17.5,8.9,27.3,10.9c3.2,0.7,6.4,1.7,9.6,2.5c0.5,0.1,1,0.2,1.6,0.3
	C233.8,744.5,233.5,738.4,233.2,732.1z M83.4,677.8c-0.2,0-0.3-0.1-0.5-0.1c-0.3,0.7-0.7,1.3-1,2c-5,9.8-10.8,19.1-18.2,27.3
	c-2.4,2.6-4.7,5.3-7,7.9c-1.7,1.8-2.5,3.8-1.9,6.3c0.4,1.8,0.6,3.6,1.1,5.4c0.9,3.5,2.8,6,6.2,7.8c6.4,3.2,10.9,8.2,12.2,15.5
	c0.3,1.8,1.2,2.3,3,1.8c2.7-0.8,4.2-2.6,4.8-5.3c0.5-2.2,0.4-4.5-0.1-6.6c-1.4-6.1,0-11.9,2.1-17.5c1.7-4.5,4.5-8.4,7.7-11.9
	c1.5-1.6,3-3.2,4.7-4.9c-0.6-0.2-1-0.5-1.4-0.5c-3.8-0.8-6.4-3.1-8.2-6.5c-3-5.5-4-11.4-3.6-17.6C83.2,679.8,83.3,678.8,83.4,677.8z
	 M343.4,256.6c0-0.3,0.1-0.7,0.1-1c-0.2-3-1.1-5.8-3-8.1c-2.1-2.6-4.2-5.1-6.5-7.4c-3.5-3.4-7.6-5.7-12.5-6.3
	c-3.5-0.5-6.9,0.2-10.3,0.9c-5.3,1.2-10,3.8-14.9,5.9c-3,1.3-6.2,2.3-9.3,3.4c-0.2,0.1-0.4-0.1-0.8-0.1c0.4-0.5,0.7-0.9,1.1-1.3
	c-1.6-1.7-3.1-3.4-4.7-5c-3.3-3.3-7.3-4.3-11.8-3.8c-3.5,0.4-6.4,1.9-8.7,4.7c-3.5,4.3-7.1,8.4-11.1,12.3c-1.4,1.4-2.4,3.3-3.5,5.1
	c-0.3,0.4-0.3,1-0.4,1.5c2.2-4,5.7-5.8,10-6.3c0.2,0,0.4-0.1,0.7-0.2c4.8-1.4,9.6-2.7,14.3-4.2c2.6-0.8,5.2-1.4,7.9-0.4
	c3.2,1.1,6.3,0.9,9.5,0.3c3.7-0.7,7.4-1.2,11.1-1.8c3.6-0.5,7-0.2,10.2,1.9c0.5,0.3,1.1,0.6,1.6,0.8c3.3,1.7,6.8,2.6,10.6,2.8
	c3.3,0.1,6.6,0.4,9.9,0.9c4.1,0.5,7.8,1.6,10.1,5.5C343.1,256.6,343.2,256.6,343.4,256.6z M332.2,392.6c-3.6-2.3-5.6-5.4-7.6-8.4
	c-2.1-3.2-4.7-4.5-8.6-3.6c-6.8,1.5-13.1,0-18.7-4.3c-0.4-0.3-0.9-0.7-1.4-0.9c-0.9-0.2-1.9-0.6-2.6-0.3c-3.3,1.1-6.6,2.4-9.9,3.7
	c1.3,7.5-0.6,14.7-0.4,22c2.4,0.2,4.3-0.6,6.1-1.7c1.2-0.7,2.3-1.7,3.6-2.5c2.3-1.4,4.6-2.7,7-3.9c2.4-1.2,5-1.3,7.6-0.7
	c3,0.7,6,1.4,8.9,2.3c3.2,0.9,6.3,1,9.5,0C327.8,393.6,329.8,393.2,332.2,392.6z M314.2,472.2c-0.8-7.5-1.9-14.8-3.6-22
	c-0.6-0.1-0.9-0.1-1.3-0.1c-3.3-0.1-6.4-0.9-9.1-2.9c-0.2-0.2-0.5-0.3-0.8-0.5c-1-0.5-1.7-0.3-2.4,0.6c-3.1,4.3-6.2,8.7-10.8,11.6
	c4.3,3,8.4,6,12.7,8.8c1.6,1.1,3.5,1.9,5.4,2.4C307.6,471,310.8,471.5,314.2,472.2z M256.3,332.2c0.2-0.1,0.4-0.2,0.5-0.4
	c2.5-3,5-6,7.5-9c0.4-0.5,0.6-1.2,0.8-1.9c4-11.6,3-23.1-0.2-34.7c-0.5-1.8-1.2-3.4-3.5-3.6c-1.1-0.1-2.1-0.9-3.1-1.5
	c-0.5-0.3-1-0.6-1.4-0.8c0.5,5.6,1.2,11.1,1.5,16.6c0.3,6.7,0.1,13.5,0.2,20.3C258.6,322.3,258.4,327.3,256.3,332.2z M377.3,397.5
	c0.2,0.6,0.3,0.9,0.4,1.2c3.4,5.9,6.8,11.8,10.3,17.7c0.3,0.5,0.9,1,1.5,1.3c2.5,0.9,5.1,1.8,7.7,2.4c3.2,0.8,6.1-0.1,8.5-2.4
	c2.2-2.1,1.8-4.8-0.9-6.2c-1-0.6-2-1.2-3.1-1.6c-4.4-1.8-7.9-4.7-10.8-8.3c-1.1-1.4-2.3-2.7-3.7-3.7c-0.9-0.7-2.2-1.3-3.3-1.2
	C381.7,396.6,379.6,397.1,377.3,397.5z M342.6,288.4c-1.9,1.9-3.6,3.5-5.2,5.1c-0.3,0.3-0.5,0.8-0.6,1.2c-1.9,6.1-3.2,12.2-2.1,18.6
	c0.6,3.6,1.6,7.3,3.9,10.2c3,3.8,6.4,7.3,9.6,10.9c0.3,0.3,0.7,0.6,1.4,1.2c-0.9-3.1-1.6-5.8-2.3-8.4c-2.1-7.4-3.5-14.9-3.9-22.6
	c-0.2-4.3-0.3-8.6-0.4-12.9C342.9,290.6,342.8,289.7,342.6,288.4z M256.1,253.4c-2.1,0.2-4,0.7-5.4,2.3c-1.8,2-2.8,4.4-3.1,7
	c-0.4,3.2,0.2,4.6,3.1,6c3.1,1.5,5.2,3.7,5.9,7.2c0.1,0.4,0.3,0.9,0.5,1.3c1.2,2.2,3.1,3.4,5.9,4.1c-0.4-1.1-0.6-1.9-0.9-2.5
	c-0.8-1.8-1.6-3.5-2.4-5.3c-2.4-6.1-4.2-12.3-3.5-19C256.2,254.1,256.1,253.8,256.1,253.4z M409.2,473.5c0.2,0,0.4,0,0.6,0
	c0.8-1,1.7-1.9,2.5-3c2.9-3.8,3.3-7.7,1-12c-2.2-4.1-5-7.7-8-11.2c-0.9-1-2-1.8-3-2.7c-0.1,0.1-0.3,0.2-0.4,0.3
	C404.8,454.3,408.3,463.6,409.2,473.5z M203,398.7c-0.4,0.2-0.8,0.4-1.1,0.7c-3.7,3.3-7.5,6.5-11.2,9.9c-0.6,0.5-0.9,1.6-0.9,2.5
	c-0.1,4,1,7.9,1.9,12C194.8,415,199.9,407.4,203,398.7z M342.8,284.9c2.3-3.1,2.6-6.6,1.9-10.1c-0.6-2.9-1.6-5.6-2.5-8.6
	c-2.2,3.5-3.4,7.2-1.9,11.3C341.1,279.9,341.9,282.2,342.8,284.9z M286.7,439.9c-0.1-1.1-0.2-2.1-0.3-3.2c-0.1-1-0.2-1.9-0.4-3.4
	C285.1,436,285.2,438,286.7,439.9z"/>
<path class="st0" d="M320.2,542.1c0,2.4,0.2,4.6,0,6.7c-0.7,7-1.6,14-2.3,21.1c-0.5,5.1-1.3,10.2-0.4,15.4c0.4,1.9,1.1,3.8,1.7,5.7
	c0.5,1.5,1.3,2.8,3,3.3c0.4,0.1,0.7,0.6,1,0.9c2.1,2.7,4.9,4.6,8.2,5.7c3.2,1.1,5.6,3.1,7.3,6c1.8,3.1,3.7,6.2,5.7,9.2
	c2,3.1,4.7,5.7,7.6,7.9c2.8,2,5.8,3.5,9.2,4.2c4.6,0.9,8.4,3.2,11.6,6.6c2.1,2.2,4.3,4.2,6.6,6.1c4,3.3,8.7,4.9,13.9,4.8
	c2.2,0,4.3,0,6.5,0c3.3-0.1,5.9,1.3,8,3.8c0.9,1.1,1.7,2.2,2.5,3.3c4.2,6.6,10.4,10.3,17.8,12.3c1.5,0.4,3,0.8,4.4,1.2
	c2.7,0.7,4.4,2.4,5.2,5c1.1,3.6,2.2,7.2,3.3,10.8c1.9,6.6,6.8,8.8,12.1,9.2c2.6,0.2,5.2,0,7.8-0.1c5.5-0.1,11-0.2,16.6-0.3
	c0.3,0,0.6-0.1,1.3-0.1c-0.6-0.4-0.8-0.6-1.1-0.7c-5.3-1.2-10.7-2-16.2-1.3c-2.6,0.3-5.2,0.3-7.8,0.2c-1.4-0.1-2.9-0.5-4.3-0.9
	c-1.3-0.3-2-1.1-2.3-2.5c-1.5-5.9-3.3-11.7-4.7-17.6c-0.7-3-0.8-6.1-0.9-9.1c0-5.8,0.2-11.7,0.4-17.5c0-0.7,0.2-1.5,0.4-2.6
	c1.6,2.4,3.5,3.5,5.6,4.5c0.3,0.2,0.7,0.4,1,0.6c5.2,4.4,11.5,6.3,18,7.8c5.7,1.3,11.3,2.8,16.9,4.6c7.3,2.4,12.6,7.2,16.1,14
	c0.7,1.3,1.3,2.6,1.9,3.9c2.3,5.5,5.7,10.3,9.7,14.8c0.3,0.3,0.6,0.7,0.9,1.2c-14.9-3.4-29.2-8-43-15.5c0.5,1.3,1.2,1.8,2,2.2
	c3.9,2.1,7.6,4.3,11.6,6.1c7.3,3.4,14.8,6,22.6,7.8c0.6,0.1,1.1,0.4,1.9,0.6c-1.3,3-3.3,5.3-5.9,7.1c-1.6,1.1-3.3,2-5,2.9
	c-3.4,1.7-5.7,4.4-6.8,8c-0.7,2.2-1.2,4.4-1.7,6.7c-0.8,3.5-2.4,6.6-4.3,9.6c-1.7,2.5-3.9,4.2-6.2,6.1c-0.6,0.5-1.5,0.8-2.3,0.9
	c-7.3,1.1-14.4,0.4-21.2-2.6c-2.2-1-4.6-1.8-6.8-2.8c-7.7-3.5-15.7-6.2-24.1-7.6c-7.6-1.3-14.1-4.8-19.6-10.1
	c-5-4.8-10.1-9.4-14.8-14.5c-10-11-21.2-20.5-33.3-28.9c-11.7-8.1-20.5-18.7-25.8-32c-0.5-1.2-1.1-2.3-2-3.4
	c0.2,0.8,0.4,1.6,0.6,2.3c3.6,10.7,9.3,20.1,17.6,27.7c3.8,3.5,7.9,6.9,12.1,9.9c10.4,7.1,19.5,15.6,28.1,24.8
	c4.8,5.1,9.7,10,14.7,14.9c5.1,5,10.9,9,18,10.8c3.3,0.9,6.6,1.4,9.9,2.2c5.6,1.3,11,3.4,16.3,5.6c4.7,2,9.6,3.7,14.4,5.5
	c1.5,0.6,3.2,0.8,4.8,1.2c0,0.2-0.1,0.4-0.1,0.5c-1.7-0.2-3.5-0.2-5.1-0.7c-6.3-2-12.4-1.2-18.6,0.3c-2.8,0.7-5.7,1.3-8.6,1.6
	c-5,0.5-9.8-0.5-14.5-2.2c-5.9-2.1-11.6-4.3-17.4-6.6c-4.8-1.9-9.6-3.1-14.8-3.1c-1.1,0-1.8-0.4-2.4-1.4c-2.2-3.3-4.4-6.6-6.7-9.9
	c-0.2,0.1-0.3,0.2-0.5,0.3c0.8,1.6,1.7,3.2,2.7,5.1c-1-0.2-1.8-0.2-2.6-0.4c-5.3-1.3-10.5-1.1-15.7,0.6c-3.2,1-6.5,1.8-9.7,2.8
	c-8.4,2.8-16.4,1.2-24-2.8c-1.4-0.8-2.8-1.6-4.2-2.4c-3-1.8-6.1-2-9.2-0.4c-1.6,0.8-3,1.8-4.5,2.7c-1.2,0.8-2.3,1.5-3.4,2.4
	c-10.6,8.4-28.1,7.3-36.8,2.5c-2.3-1.3-4.7-2.5-7.1-3.9c-8.2-4.7-16.5-4.5-24.9-0.5c-0.3,0.1-0.6,0.3-0.8,0.4c-0.1,0-0.1,0-0.4-0.2
	c-0.2-9.2-0.6-18.6-1.9-27.8c0.2,12.3,0.3,24.6,0.5,37.1c-2,0-3.7-0.7-5.1-1.8c-1.6-1.2-3-2.7-4.3-4.1c-1.8-2-3.5-4.1-5.3-6.1
	c-4.3-4.9-9.8-6.4-16-5.4c-2.4,0.4-4.8,0.9-7.3,1.3c-7.2,1.3-13.6-0.4-19.2-4.9c-1.7-1.3-3.3-2.8-4.8-4.3c-2.7-2.8-5.9-4.9-9.9-5.4
	c1.5-2.2,5.4-5.2,7.6-5.8c1.9-0.6,3.8-0.2,5.7,0.2c2.8,0.5,5.6,1,8.4,1.2c4.6,0.3,8.8-1.2,12.5-3.8c2.2-1.5,3.8-3.5,4.9-6
	c0.8-1.8,1.5-3.7,2.1-5.6c1.2-3.6,3.1-6.7,5.9-9.2c4.1-3.8,7.2-8.3,9.8-13.2c1.7-3.2,3-6.4,3.6-9.9c1-5.7,4-10.1,8.4-13.8
	c3.9-3.3,7.5-6.8,11.1-10.4c3.4-3.6,7.3-6.3,11.9-8.1c1.3-0.5,2.6-1,3.9-1.5c9.4-3.3,15.8-9.8,19.4-18.8c2.1-5.3,5.1-9.3,9.9-12.2
	c4.9-3,8.3-7.4,10.9-12.5c2.4-4.8,5-9.5,7.6-14.2c3-5.3,7.2-9.3,12.8-11.9C318.4,543,319.1,542.6,320.2,542.1z"/>
<path class="st0" d="M126.2,729.2c-0.7-0.8-1.6-1.5-2.2-2.5c-1.2-1.8-1.5-4-1.9-6.1c-0.5-3-1.2-6-1.9-9c-0.6-2.5-1.4-5-2.2-7.5
	c-0.5-1.4-1.1-2.9-1.8-4.2c-1.3-2.5-3.4-4.1-6.6-4.6c1.1-1.2,2-2.2,2.9-3.3c-0.1-0.1-0.1-0.2-0.2-0.3c-0.7,0.6-1.5,1.1-2.2,1.7
	c-3.3,2.9-6.7,5.7-9.9,8.6c-1.1,1-2.1,1.4-3.7,1.1c-4.1-0.8-6.7-3.1-8.6-6.6c-3.2-5.9-3.4-12.3-3.1-18.8c0.2-4,1.4-7.5,3.3-10.8
	c4.1-7.2,8.8-13.9,14.5-19.9c2.6-2.7,5.1-5.5,7.7-8.3c0.7-0.8,1.5-1.5,2.6-2.1c-0.1,1.1-0.3,2.2-0.4,3.3c-0.5,4.9,0.2,9.6,0.8,14.4
	c0.4,2.5,0.8,4.8,3,6.5c1.3,1,1.8,2.7,1.5,4.4c-0.3,1.9-0.5,3.8-1,5.6c-0.7,2.4-2.5,3.6-5,3.6c-1.1,0-2.3,0-3.4-0.3
	c-3.3-1-7,1.4-7.9,5c-0.3,1.3-0.5,2.6-0.6,3.9c-0.1,1.5,0,3.1,0.4,4.7c0.2-0.6,0.3-1.2,0.5-1.8c0.6-2.4,1.1-4.8,1.9-7.1
	c0.9-2.6,2.1-3.1,4.7-2.6c2,0.3,4.1,0.8,6.2,0.2c2.4-0.6,4.1-2,5.1-4.3c1.1-2.6,1.4-5.3,1.3-8.1c0-1.6-0.6-3-1.6-4.2
	c-0.2-0.3-0.5-0.6-0.7-0.9c-2.4-3.1-2.4-4.2-0.1-7.3c1.1-1.4,2.3-2.7,3.7-3.8c2.6-2.2,5.6-3.2,9-2.9c1.1,0.1,2.3,0.3,3.4,0.4
	c5.5,0.6,9.7-1.7,12.4-6.5c1.1-1.9,2.5-3.7,3.9-5.4c1.5-1.7,3.4-2.5,5.7-2.4c1.1,0.1,2.2,0,3.2,0c2.6,0,4.4-1.2,5.5-3.5
	c0.6-1.3,1-2.7,1.4-4.1c0.3-1.3,0.5-2.6,0.8-3.8c0.7-2.3,2.2-3.6,4.8-3.9c2.2-0.2,4.4-0.7,6.5-1.5c3-1.2,4.6-3.5,4.4-6.8
	c-0.1-2.1,0.2-4,1.7-5.6c0.9-1,2-1.7,3.4-1.7c6.7,0.1,10.6-3.8,13.3-9.3c1.7-3.6,2.6-7.4,1.9-11.4c-1.2-7.1,0.5-13.9,2.6-20.6
	c4.8-15.4,10.9-30.3,17.4-45.1c7.3-16.5,14.4-33.1,21.1-49.8c3-7.4,5-15.3,7.5-23c0.1-0.2,0.1-0.5-0.1-0.8c-0.6,1.5-1.2,2.9-1.7,4.4
	c-5,15.4-11.6,30.1-18.1,44.8c-5,11.4-10.2,22.7-15.1,34.1c-5,11.5-9.2,23.3-13,35.2c-0.5,1.5-1.1,2.8-2.3,3.9c-0.9,0.9-1.7,2-2.4,3
	c-0.9,1.3-1.9,2-3.5,1.7c-3.2-0.6-5.3,0.9-6.8,3.5c-0.5,0.8-1,1.6-1.5,2.3c-1.4,2.2-3.4,3.8-5.9,4.5c-5.9,1.5-9.1,5.3-10.4,11.1
	c-0.1,0.3-0.2,0.6-0.3,0.9c-0.6,3.4-2.6,5.3-6.1,5.9c-3.8,0.7-6.2,3.2-7.4,6.9c-0.3,0.8-0.4,1.6-0.7,2.4c-0.8,2.3-1.6,2.7-4.1,2
	c-1-0.3-1.9-0.6-2.9-0.8c-4.4-1-7.9,0.6-9.9,4.7c-0.8,1.7-1.4,3.6-2.2,5.3c-0.9,1.9-1.8,3.9-3,5.7c-1.9,2.7-4.8,3.9-8,3.6
	c-2.5-0.2-4.9-0.5-7.6,1.1c0.3-1.2,0.5-1.8,0.7-2.4c6.7-15.2,12.1-31,19.2-46.1c3.6-7.6,6.1-15.6,9-23.4c4.8-13,9.7-25.9,14.9-38.7
	c7.1-17.9,13.1-36.2,18.5-54.7c3.4-11.6,7.2-23,12.2-34c3.3-7.3,6.5-14.6,9.6-21.9c0.8-1.9,1.4-3.9,1.9-5.9c0.3-1.2,0.9-1.9,2-2.6
	c3.5-2,6.8-2,10.2,0.2c0.6,0.4,1.2,0.7,1.8,1c2.8,1.4,5.7,1.7,8.7,0.6c6.1-2.2,11.5-5.5,16.3-9.8c2.3-2.1,4.4-4.5,6.4-6.9
	c2.7-3.3,4.1-3.9,8.1-2.6c2.6,0.8,5.1,1.6,7.8,2.1c4.8,1,9.5,0.4,14.1-1.1c0.8-0.2,1.6-0.5,2.6-0.8c0,1.7,0.1,3.2,0,4.7
	c-0.4,4.4-0.8,8.7-1.2,13.1c-0.8,7.2-0.3,14.3,0.8,21.4c0.8,5.5,1.7,11.1,1.5,16.7c-0.1,2.9,0.4,5.5,3.1,7.3
	c0.9,0.6,0.7,1.5,0.7,2.3c-0.2,4-0.9,7.9-2.4,11.7c-0.4,1-0.8,2-1.2,3.2c0.7,0.5,1.3,1,2,1.5c3.7,2.5,7.5,4.8,11.1,7.5
	c4.5,3.3,9.5,4.5,14.9,4.8c0.9,0,1.8,0,2.9,0c1,7.3,0.9,14.6,1.6,21.9c0.7,7.2,1.4,14.4,2,21.4c-3.1,2.9-6.1,5.7-9.2,8.4
	c-4.2,3.6-9.2,5.1-14.6,5.3c-1.5,0.1-3.1,0-4.6,0.1c-5.2,0.3-8.5,3.4-9.3,8.5c-0.4,3-0.8,5.9-1.4,8.9c-1,4.6-3.4,8.1-8,9.7
	c-1.7,0.6-3.6,1-5.4,1c-3.9,0.1-6.6,1.9-8,5.5c-0.7,1.9-1.3,3.8-2.1,5.6c-0.8,2.1-1.6,4.2-2.7,6.1c-2.4,4.1-5.6,5.3-10.2,3.9
	c-4.9-1.6-8.7-4.5-10.5-9.6c-0.5-1.5-1.1-3-1.6-4.6c-0.3-0.9-0.7-1.7-1.2-2.5c-1-1.5-2.2-1.8-3.8-0.9c-0.5,0.3-0.9,0.6-1.3,0.9
	c-3.6,2.8-6.8,6-9,10c-0.3,0.5-0.6,0.9-1,1.6c-0.5-1.4-0.3-2.5-0.1-3.5c1.2-5.7,2.5-11.4,3.8-17.1c0.3-1.5,0.7-3,0.8-4.6
	c-0.3,0.6-0.7,1.2-0.9,1.8c-2.1,6.4-4.3,12.8-5.3,19.5c-0.9,5.8-0.5,11.5,0.3,17.2c0.7,4.7,1.5,9.4,2.3,14.1c0.1,0.8,0,1.3-0.6,1.8
	c-0.8,0.6-1.6,1.2-2.5,1.7c-4.7,2.3-8.2,5.9-10.7,10.5c-0.8,1.5-1.6,3.1-2.5,4.7c-1.5,2.8-3.7,4.9-6.5,6.3c-2.6,1.2-5.1,2.4-7.8,3.4
	c-6.3,2.3-10.4,6.6-12.3,13c-0.6,2-1.3,4-1.7,6c-1.3,6.6-5.5,10.8-11.4,13.2c-4.4,1.8-7.6,4.5-9.9,8.5c-1.2,2.1-2.6,4.2-3.9,6.2
	c-0.5,0.8-1.1,1.7-1.8,2.4c-2.6,2.8-4.9,3.3-8.5,1.9c-1-0.4-2-0.8-3-1.2c-2.1-0.7-3.9-0.2-5.1,1.5c-0.8,1.1-1.5,2.3-2,3.6
	c-2.8,7.8-3.8,15.6-1.1,23.7c0.9,2.8,2,5.5,2.8,8.3c0.7,2.6,1.3,5.2,1.8,7.8C128.7,727,127.9,728.2,126.2,729.2z"/>
<path class="st0" d="M318.5,519.7c0.6,6.9,1.2,13.7,1.8,20.7c-1.2,0.6-2.2,1.1-3.3,1.5c-6.4,2.4-11,6.9-14.4,12.7
	c-2.2,3.8-4.2,7.7-6.2,11.5c-0.9,1.7-1.7,3.4-2.7,5.1c-1.6,3-3.8,5.4-6.5,7.4c-1.4,1-2.7,2-4.1,2.9c-3.8,2.4-6.5,5.8-8,10.1
	c-1.3,3.7-3.3,7.1-5.8,10.1c-3.2,4-7.2,6.9-11.9,8.8c-1.2,0.5-2.4,0.9-3.7,1.4c-5.8,2-10.6,5.3-14.8,9.8c-3.2,3.5-6.8,6.7-10.4,9.7
	c-4.7,4-7.7,8.8-8.9,14.9c-1.5,7.5-5.4,13.8-10.4,19.5c-1.1,1.2-2.3,2.3-3.4,3.4c-2.2,2.3-3.9,4.9-5,7.9c-0.6,1.7-1.2,3.3-1.8,5
	c-2.1,5.9-6.6,8.8-12.5,10.1c-3,0.6-6,0.2-8.9-0.2c-1.9-0.3-3.8-0.5-5.7-0.7c-2.8-0.3-5.3,0.6-7.5,2.3c-1.2,0.9-2.4,1.9-3.5,2.9
	c-1.6,1.5-3.5,2.1-5.7,2.1c-4.8,0-9.5,0-14.3-0.2c-4.6-0.1-8.3,3.4-8.7,8.6c-0.2,3.2,0.6,6.1,2.1,8.8c1.1,1.9,2.3,3.6,3.6,5.3
	c2.7,3.7,5.3,7.4,6.9,11.6c1.1,2.9,1.9,5.8,1.7,9c0,0.7,0,1.4-0.2,2.1c-2.4,7.1-7.5,14.2-16.6,14.8c-3,0.2-5.8-0.5-8.3-2.2
	c-4.1-2.7-7.7-5.9-10.7-9.8c-2.8-3.7-5.4-7.7-8-11.5c-2.3-3.3-4.4-6.6-6.8-9.9c-0.8-1.2-2-2.2-3-3.1c-1.7-1.5-3.6-2.6-6.3-2.2
	c0.2-0.6,0.4-1,0.6-1.3c3.5-5.4,8.1-9.8,12.9-14c2.2-1.9,4-4.2,6-6.3c1.5-1.5,3.3-1.9,5.2-0.8c1,0.6,2,1.5,2.7,2.4
	c0.7,0.9,1.2,2,1.5,3.1c1.7,6,4,11.9,4.7,18.3c0.2,2.1,1,4.2,1.9,6.1c0.5,1.1,1.5,2.1,2.5,2.9c1.3,1,2.6,0.8,3.8-0.3
	c1.3-1.2,2-2.7,1.9-4.5c-0.2-3.2-0.8-6.3-2.1-9.2c-1.8-4.1-3-8.4-3.7-12.8c-1.1-6.6,0.3-13,2.9-19.1c1.1-2.5,2.3-2.8,4.8-1.8
	c0.9,0.4,1.8,0.8,2.8,1.1c3.4,1.2,6.4,0.6,8.9-1.9c1.5-1.5,2.7-3.3,3.9-5.1c1.4-2,2.6-4.2,3.9-6.2c1.6-2.5,3.8-4.3,6.6-5.6
	c2.6-1.2,5-2.7,7.3-4.2c2.8-1.9,4.6-4.7,5.7-7.9c0.8-2.5,1.4-5,2.2-7.5c0.6-1.8,1.2-3.7,2-5.4c1.6-3.2,4.1-5.5,7.4-6.9
	c2.1-0.9,4.3-1.8,6.4-2.6c5.3-2.1,9.2-5.6,11.7-10.8c1.7-3.6,3.6-7.1,6.5-10c2.2-2.1,4.7-3.6,7.5-5.1c0.7,3.6,1.3,6.9,2,10.3
	c0.7,3.3,1.3,6.6,2.4,9.8c-0.5-3.9-1-7.7-1.5-11.6c-1.4-10.1-2.8-20.2-4.3-30.3c-0.4-2.6,0.1-4.9,1.2-7.3c2.2-4.9,6-8.1,10-11.2
	c0.5-0.4,1.2-0.6,2-1.1c0.5,1.1,1,2.1,1.4,3c0.8,2.1,1.4,4.2,2.4,6.2c2.8,5.7,7.6,8.7,13.8,9.5c4,0.5,7.1-1.1,9.2-4.5
	c1.3-2.1,2.3-4.5,3.2-6.8c0.9-2.1,1.4-4.2,2.2-6.3c0.9-2.4,2.7-3.8,5.4-3.9c1.6,0,3.2-0.2,4.8-0.6c4.9-1.3,8.4-4.2,10.3-9.1
	c1.2-3.3,1.8-6.7,2.1-10.1c0.6-6,3.1-8.4,9.3-8.4c3.3,0,6.6-0.1,9.8-1c3.7-1.1,7.1-2.9,9.9-5.6c1.5-1.4,3-2.9,4.5-4.3
	c0.8-0.7,1.6-1.3,2.4-2C318.1,519.5,318.3,519.6,318.5,519.7z"/>
<path class="st0" d="M419,529.3c1.8,7.5,4.6,14.5,7.7,21.5c4.2,9.5,8.4,19,12.4,28.5c2,4.8,3.5,9.8,4.4,15
	c1.1,6.4,0.9,12.7,0.1,19.1c-1,8-2.5,15.9-3.6,23.9c-1,7.2-1.6,14.5-0.4,21.8c1,6.2,1.9,12.4,2.8,18.7c0.1,0.4,0,0.7-0.3,1.2
	c-0.6-2.1-1.5-4.1-1.9-6.2c-1-5.1-3.8-8.2-9.1-9c-1.7-0.3-3.4-0.8-5.1-1.4c-5.9-2-10.7-5.3-14.1-10.5c-0.8-1.2-1.6-2.2-2.5-3.3
	c-2.6-3.4-6.1-5-10.4-4.9c-1.8,0-3.7,0-5.5,0.1c-5.5,0.2-10.2-1.8-14.3-5.4c-1.6-1.4-3.2-2.9-4.6-4.5c-3.6-3.9-7.9-6.5-13.1-7.6
	c-5.6-1.2-10.1-4.3-13.7-8.7c-1.7-2.1-3.2-4.5-4.7-6.8c-0.7-1-1.3-2.1-1.9-3.2c-2.1-4-5.1-7-9.5-8.1c-4-1-6.3-4-8.5-7
	c-0.3-0.4-0.5-0.8-0.5-1.3c0-5.1-0.5-10.3,0.9-15.4c0.2-0.9,0.5-1.8,1-2.6c0.8-1.5,1.5-1.9,3.2-1.5c1.1,0.3,2.1,0.9,3.2,1.2
	c5.4,1.9,10.6,1.6,15.2-2.2c2.1-1.8,3.4-4.1,4.5-6.6c0.6-1.5,1.2-3,1.9-4.4c1.6-3,2.8-3.6,6.1-3.2c2.8,0.3,5.7,0.6,8.5-0.1
	c4.6-1.1,8-3.8,10.4-7.8c0.8-1.2,1.5-2.5,2.3-3.7c1.6-2.2,2.6-2.4,5.1-1.3c1.4,0.7,2.8,1.4,4.2,1.8c3.7,0.9,7.3,0.2,10.2-2.3
	c2.1-1.8,3.9-3.9,5.7-6c1.5-1.8,2.7-3.7,4.1-5.5c1.3-1.7,2.9-2.3,5-2C415.7,529.5,417.2,529.3,419,529.3z"/>
<path class="st0" d="M335.5,201.1c-3.6,0.8-6.8,1-10,1.1c-3.7,0.2-7.4,0.3-10.9,1.5c-0.3,0.1-0.7,0.3-0.9,0.7
	c1.3-0.1,2.5-0.3,3.8-0.4c3.7-0.2,7.4-0.4,11-0.6c2.2-0.1,4.4-0.3,6.6-0.7c3.9-0.7,7.7-1.3,11.7-1c2,0.1,4,0.4,5.9,1
	c4.5,1.4,7.5,4.3,8.7,9c1.5,6.1,2.2,12.2,2.2,18.5c-0.1,7.2,0,14.4,0.2,21.7c0.2,8.1,0.1,16.3-0.6,24.4c-0.6,6.8-0.5,13.7,0.3,20.5
	c0.9,8.2,1.7,16.5,2.7,24.7c0.9,6.9,2.1,13.7,2.9,20.5c0.6,4.7,0.7,9.5,1,14.2c0.1,0.9-0.1,1.8-0.2,3.1c-0.6-0.5-1-0.8-1.3-1.2
	c-5.1-6-10.2-12.1-15.4-18.1c-1.1-1.3-1.9-2.8-2.4-4.4c-3.7-12.7-5.8-25.6-6.3-38.8c-0.1-2.8-0.6-5.6-0.8-8.5c0-0.6,0.1-1.4,0.4-1.9
	c3.5-4.7,3.9-9.7,1.7-15c-1.2-2.9-1.4-5.9-0.9-8.8c0.9-4.7,0.7-9.5,0.8-14.2c0.1-6.7-0.1-13.4-0.2-20c0-0.4-0.2-0.7-0.7-1.1
	c-0.1,0.7-0.4,1.5-0.4,2.2c-0.2,5.8-0.4,11.5-0.5,17.3c0,0.4,0,0.9,0,1.8c-0.7-0.9-1.1-1.4-1.5-1.9c-2.8-3.1-5.4-6.3-8.4-9.1
	c-6.3-5.8-13.7-7.1-21.9-5.1c-4,1-8,2.3-11.6,4.3c-2.9,1.6-5.9,2.9-8.9,4.3c-0.7,0.4-1.5,0.6-2.4,1c-1.6-1.9-3.2-3.6-4.7-5.5
	c-5.4-6.6-16.9-6.4-22.7-0.3c-2.1,2.2-4,4.7-6,7c-0.5,0.6-1,1.1-1.7,1.8c-0.2-0.6-0.4-1-0.5-1.4c-0.6-3.3-1-6.7-1.7-10
	c-1.1-4.8-1-9.4,0.5-14.1c0.8-2.3,2.1-4,4.2-5.3c5.4-3.2,11.3-5.1,17.5-6.2c1.3-0.2,2.6-0.5,3.8-0.8c5.1-1.4,10.3-1.6,15.5-0.6
	c0.2,0,0.5,0.1,0.7,0.1c0.1,0,0.3-0.1,0.8-0.2c-2.1-1.5-4.4-1.6-6.5-1.9c-2.2-0.2-4.4-0.1-6.8-0.1c4.9-2.3,9.9-4.2,11.2-10.3
	c4.2-0.2,8.1-1.5,11.5-4.1c1.6-1.2,2.8-2.8,4.2-4.2c-0.1-0.2-0.2-0.3-0.3-0.5c-0.5,0.3-0.9,0.5-1.4,0.8c-3.3,2.4-6.6,4.8-10.6,5.8
	c-3.7,0.9-6.4,0.2-8.8-2.9c-0.8-1.1-1.7-2.2-2.3-3.4c-2.6-5.2-5.2-10.5-7.4-15.8c-1-2.4-1.4-5.2-1.9-7.8c-0.3-1.7-0.2-3.5-0.5-5.3
	c-0.3-2.3-0.6-4.7-1.2-7c-0.7-2.8-0.2-5.1,1.8-7.2c3.1-3.2,6.7-5.7,10.8-7.2c3.2-1.2,6.3-1.1,9.3,0.6c0.7,0.4,1.4,0.8,2.1,0.9
	c3.9,0.7,6.3,3.3,8.4,6.4c1.7,2.5,3.2,5.2,4.5,8c0.8,1.7,1.1,3.6,1.5,5.5c0.4,1.7,0.6,3.4,0.8,5.2c0.2,0,0.4,0.1,0.5,0.1
	c0.4-0.7,0.9-1.3,1.2-2c1-2.2,2-4.5,3-6.7c1-2.3,2.7-4,4.9-5.4c1,0.8,1.1,1.8,1.1,2.8c-0.1,5.1-0.5,10.2-4.5,14.1
	c-0.6,0.6-1.2,1.3-1.8,2c-0.3,0.3-0.5,0.8-0.5,1.2c-0.2,2.8-0.4,5.7-0.6,8.5c-0.3,3.9,0.9,7.3,3.1,10.4c3.9,5.4,8.4,10.2,14.5,13.3
	C334.5,200.4,334.8,200.6,335.5,201.1z M297.3,160.4c1.1,0.2,2.1,0.7,2.8,0.5c0.7-0.2,1.2-1.2,1.9-2c1.2-0.3,2.8-0.4,4.2-1.7
	c-2.3-0.5-4.2-0.1-6.1,0.3c-2,0.4-3.7,1.5-5,3c-0.3,0.3-0.3,0.8-0.6,1.7C295.7,161.4,296.5,160.9,297.3,160.4z M292.2,159.2
	c2-1.2,4-2.5,6-3.6c2-1.1,4.4-1.4,6.5-3C298.5,152.5,292.8,155.6,292.2,159.2z M277.1,155.9c2.3,1.2,4.5,2.2,6.5,3.5
	c2.3,1.5,2.3,4.4,3.3,6.7C287.5,160.4,284,155.6,277.1,155.9z M284.5,163.3c-1.2-3.6-4.8-5.2-7.6-3.1c1,0.2,1.9,0.3,2.7,0.4
	c0.3,0.9,0.7,1.6,1.3,1.9C282,162.9,283.2,163,284.5,163.3z M305,159.6c-2.7,0.9-5.1,1.7-7.5,2.4c-0.3,0.1-0.7,0.2-1.1,0.4
	C299.1,164.2,303,162.9,305,159.6z M297,182.2c-1.8-0.7-7.5-0.2-9.1,0.6C291.1,184.7,294.1,183.2,297,182.2z M294.1,175.8
	c-2.4-0.3-4.4-0.6-6.6-0.9C288.8,177.8,291.5,178.2,294.1,175.8z M282.6,164.8c-1.8-1.1-3.6-2.1-5.3-3.1
	C277.9,164.6,279.9,165.8,282.6,164.8z M292.2,186.6c1,0.3,1.9,0.7,2.9-0.4C293.9,186,293,185.8,292.2,186.6z"/>
<path class="st0" d="M416.2,509.1c-2.2,0-4.2,0-6.2,0c-2.7,0.1-4.8,1.2-6.5,3.4c-1.6,2-3.4,4-5.4,5.7c-3.5,3-7.5,4-12,2.9
	c-1.6-0.4-3.1-0.8-4.6-1.4c-3.3-1.3-6.2-0.6-8.7,1.7c-1,0.9-2,1.9-3,2.8c-1,0.9-2,1.9-3,2.8c-2.8,2.5-5.9,3.2-9.4,1.8
	c-1.7-0.7-3.5-1.2-5.2-1.9c-2.8-1.1-5.1-0.4-7.1,1.6c-1.3,1.4-2.4,3-3.8,4.4c-1.5,1.6-3.1,3.2-4.8,4.5c-1.9,1.5-4.1,2-6.5,1.2
	c-2.1-0.7-3.9-0.2-5.7,1c-0.5,0.4-1.1,0.7-1.9,1.2c-0.2-2.8-0.4-5.4-0.6-8c-0.4-4.3-0.9-8.6-1.3-12.8c0-0.1,0-0.2,0-0.2
	c-0.3-1.5,0.3-2.9-0.4-4.5c-0.6-1.5-0.4-3.3-0.6-5c-0.2-1.6-0.3-3.2-0.5-4.8c-0.2-1.7-0.3-3.4-0.5-5c-0.1-1.6-0.3-3.2-0.4-4.8
	c-0.1-1.6-0.3-3.2-0.4-4.8c-0.1-1.7-0.2-3.4-0.3-5.1c-0.1-1.6-0.1-3.2-0.3-4.8c-1-8.5-1.9-17.1-3.8-25.5c-0.4-1.8-1.1-3.5-1.7-5.6
	c4-0.4,7.2-2.4,10.6-3.9c1.3-0.6,2.5-0.5,3.8,0.2c1.4,0.7,2.9,1.5,4.4,2.1c5.6,2,11,1.3,16.1-1.9c0.4-0.2,0.8-0.5,1.1-0.8
	c0.8-0.6,1.5-0.6,2.3-0.1c6.4,4.2,13.4,4,20.4,2.5c3.3-0.7,6.2-2.2,8.8-4.4c5-4.4,13-5.7,19.9-1c0.6,0.4,1.1,1.1,1.3,1.7
	c1.2,4.2,2.2,8.5,3.5,12.6c1.9,5.8,2.7,11.8,3.9,17.8c1.1,5.8,2.6,11.5,4,17.2c1.4,5.4,3,10.8,4.5,16.2
	C416.1,508.4,416.1,508.8,416.2,509.1z"/>
<path class="st0" d="M379.4,721.9c7.2,12.2,14.6,24.6,23.8,36c-0.8-0.3-1.6-0.6-2.4-1c-0.6-0.3-1.1-0.8-1.7-1.1
	c-2.5-1.5-4-1.3-5.8,1c-1,1.3-2.2,2.3-3.7,3c-2.6,1.1-5,0.6-7-1.2c-0.8-0.6-1.4-1.4-2-2.2c-2.1-2.5-4.7-3.3-7.8-2.4
	c-1.8,0.6-3.6,1.3-5.4,2c-2.2,1-4.4,2.1-6.7,3.1c-5.2,2.4-10.6,3.5-16.3,3.2c-4.2-0.2-8.4-0.1-12.7-0.1c-1.6,0-3.3,0-4.8,0.5
	c-3.6,1.1-4.3,2.3-4.3,5.1c-0.1,3.4-2.9,5.9-6.4,6c-0.4,0-0.8,0-1.1-0.1c-3.9-0.5-7.7-1.3-11.4-2.8c-1.3-0.6-2.7-1.1-4.1-1.6
	c-3.2-1.2-6.5-1.1-9.6,0.3c-1.6,0.7-3.2,1.5-4.7,2.3c-5,2.6-10.2,3.2-15.6,1.2c-1.8-0.6-3.7-1.2-5.5-1.7c-4.3-1.2-8.5-0.7-12.5,1.3
	c-1.3,0.7-2.6,1.4-3.9,2c-2.9,1.4-4.5,1-6.8-1.3c-2-2.1-3.2-4.6-3.4-7.4c-0.5-5.5-0.9-11-1.3-16.5c-0.3-4-0.6-8-0.8-12
	c-0.2-5-0.3-10.1-0.5-15.2c7.2-3.9,14.5-4.4,21.9-1.4c2.2,0.9,4.3,2.1,6.3,3.4c9.9,6.5,20.7,7.7,32,5.1c4.5-1,8.3-3.5,12.1-6.1
	c2.1-1.4,4.2-2.9,6.3-4.3c2.4-1.6,4.8-1.5,7.4-0.1c3.3,1.8,6.6,3.5,10.1,5c5.7,2.4,11.6,2.7,17.6,1.1c4.4-1.2,8.7-2.4,13.1-3.6
	c4.1-1.2,8.3-1.4,12.5-0.4C375.6,721.6,377.4,721.7,379.4,721.9z"/>
<path class="st0" d="M294.2,330c2.4,8.4,8.5,11.9,15.7,14.1c6.5,2,13.1,3.3,19.8,4.1c3.6,0.5,6.7,1.8,9.5,4.2
	c4,3.4,8.4,6.2,13.6,7.5c1.6,0.4,3.3,0.5,5,0.8c3.9,0.8,7.8,1.6,11.7,2.5c0.4,0.1,0.7,0.5,1,0.9c2.5,3,5,6,7.3,9.2
	c6.1,8.4,12.4,16.6,19.6,24.2c2.1,2.2,3.9,4.8,5.7,7.2c0.8,1.2,1.4,2.5,2,3.9c-3.6-1.5-7.1-2.8-9.8-5.7c-1.6-1.8-3.2-3.5-4.8-5.3
	c-2.6-3-5.6-4-9.5-3c-3.9,1.1-7.9,0.6-11.5-1.1c-5.6-2.6-11.2-2.2-16.9-1.3c-2,0.3-4.1,0.6-6.1,0.9c-3.9,0.6-7.6-0.1-11.2-1.7
	c-2.3-1-4.2-2.5-5.7-4.5c-1.2-1.7-2.4-3.4-3.6-5.1c-2.2-3.1-5.2-4.4-9-3.8c-1.7,0.3-3.3,0.5-5,0.6c-4.6,0.1-8.9-1-12.5-3.9
	c-2.9-2.3-5.8-2.6-9.2-1.2c-3.7,1.6-7.6,3-11.4,4.3c-6.2,2.1-12.4,1.8-18.5-0.3c-0.8-0.3-1.6-0.6-2.4-0.8c-4.1-1.2-6.6-0.5-9.1,2.9
	c-2.1,2.9-4.6,5.4-7.3,7.7c-3.9,3.3-8.2,6-12.8,8.1c-3.8,1.7-7.4,1.8-10.9-0.5c-0.6-0.4-1.2-0.6-1.8-1c-2.8-1.4-5.6-1.5-8.4-0.2
	c-4.1,1.8-7.6,4.5-11,7.5c-0.6,0.6-1.3,1.2-1.9,1.8c-0.1-0.1-0.3-0.2-0.4-0.3c0.6-0.9,1.3-1.8,1.9-2.7c5.5-7.5,11.2-14.8,16.6-22.4
	c5-7,10.4-13.7,16.2-20c1.3-1.4,2.7-2.7,3.9-3.9c0.4,0,0.6,0,0.7,0c8.3,3.6,16.9,3.5,25.5,1.3c7.6-2,14.8-5,21.6-8.9
	c3.1-1.8,5.8-4,8.3-6.6c1.9-1.9,3.3-4.2,4.2-6.8C293.4,332,293.7,331.3,294.2,330z"/>
<path class="st0" d="M509.4,692.1c4.3,1,7.8,3,10.9,6.1c4.8,4.9,6.9,11,8,17.5c0.4,2.2,0.1,4.3-0.9,6.3c-2.7,5.7-5.6,11.3-9.9,16
	c-3.5,3.9-6.6,8.1-8.7,12.9c-2.1,4.9-6.2,7.5-10.7,9.5c-5.5,2.5-11.4,3.6-17.3,4.6c-6,1-11.8,2.5-17.4,5c-5.6,2.5-11.5,3.7-17.7,3.4
	c-3.1-0.2-6.1-0.9-8.9-2.1c-4.3-1.7-8.8-2.8-13.3-3.5c-2.9-0.4-5.4-1.6-7.8-3.2c-7-4.7-13-10.3-17.7-17.3c-4.4-6.5-8.7-13-13-19.6
	c-0.2-0.2-0.3-0.5-0.5-1c1.6-0.4,3.1-0.1,4.5,0.2c5,1,9.7,3,14.3,5c5.6,2.5,11.2,4.9,17.2,6.4c5.9,1.5,11.7,1.5,17.5,0.1
	c1.9-0.5,3.7-0.8,5.6-1.3c4.7-1.1,9.4-1.2,14.1,0.2c5.3,1.5,10.3,0.5,15.2-1.7c1.6-0.8,3.5-1,5.3-1.5c5.4-1.7,10.8-3.4,16.2-5.1
	c0.7-0.2,1.3-0.7,1.9-1.3c-5,1.2-10.1,2.5-15.1,3.7c-0.1-0.1-0.2-0.3-0.3-0.4c0.7-0.9,1.3-1.9,2.1-2.7c3.8-3.6,6-8.1,7.1-13.2
	c0.5-2.2,1.2-4.4,2-6.6c1-2.4,2.8-4.1,5.2-5.3c1.7-0.9,3.4-1.8,5-2.9c2.7-1.8,4.9-4.2,6.4-7.1C508.8,693,509.1,692.6,509.4,692.1z"
	/>
<path class="st0" d="M332.2,305.3c-2.4-2.9-5.5-4.3-8.6-5.6c-4.7-2-9.4-3.8-13.2-7.3c-7.2-6.6-13.3-14-17.2-23.1
	c-0.7-1.6-1-3.4-1.5-5.1c-0.2-0.7-0.5-1.3-0.8-1.9c-0.2,0-0.4,0-0.5,0c-1.3,2.9-2.5,5.8-4.1,8.6c-1.6,2.8-3.4,5.5-5.2,8.1
	c-1.8,2.7-3.8,5.2-5.7,7.8c-1.8,2.6-3.9,5.1-6.4,7.6c-0.2-1-0.3-1.5-0.4-2c-0.9-5.7-3-11.1-5.5-16.3c-3.1-6.4-5.3-13.1-5.8-20.2
	c-0.1-0.9,0-1.8,0-2.8c2.3-0.6,4.5-1.2,6.7-1.9c3.1-1,6.2-2.1,9.4-3.2c2.1-0.7,4.2-1,6.3-0.2c3.4,1.3,6.9,0.9,10.4,0.3
	c4.3-0.8,8.6-1.3,13-1.9c1.9-0.3,3.7,0.1,5.3,1.1c5.9,3.7,12.4,4.7,19.1,5.2c3,0.2,6.1,0.8,9.1,1.4c2.1,0.4,3.7,1.7,4.7,3.7
	c1,2,1.1,4,0,6c-0.8,1.4-1.6,2.8-2.2,4.3c-1.8,3.7-2,7.5-0.3,11.3c0.2,0.4,0.3,0.7,0.4,1.1c1,2.1,1,4.1-0.3,6.1
	c-1.3,2-2.4,4.1-3.6,6.1c-0.3,0.6-0.5,1.3-0.6,1.9C333.8,297.9,333,301.4,332.2,305.3z"/>
<path class="st0" d="M286.7,456.5c0.3-0.9,0.6-1.9,0.8-2.8c1.3-4.8,1.3-9.7,0.7-14.6c-0.3-2.4-0.6-4.7-1-7.1
	c-0.4-2.4,0.4-4.3,2.5-5.5c4.1-2.3,7.7-5.3,11.1-8.6c3.4-3.3,7.6-4.2,12.1-2.2c3.2,1.4,6.5,2.3,9.9,2.8c3.3,0.5,6.5,0.3,9.5-1
	c2.7-1.1,5.1-1,7.8,0.1c2.7,1.2,5.6,2,8.5,3c2.6,0.9,5.3,0.8,7.9-0.1c1.2-0.4,2.4-0.9,3.7-1.3c3.1-1,6.2-0.6,9.3-0.1
	c0.5,0.1,0.9,0.2,1.3,0.3c4.3,1.5,8.3,0.8,12.3-1c1.4-0.7,2.3-0.4,3.2,0.7c2.5,3.1,5,6.2,7.5,9.3c4.8,5.8,9.6,11.6,14.3,17.4
	c1.1,1.4,2.1,3,3.1,4.5c-0.1,0.1-0.3,0.2-0.4,0.3c-0.4-0.4-0.8-0.7-1.1-1.2c-3.2-4.7-7.7-7.9-12.8-10.3c-6.1-2.9-12.1-2.2-17.7,1.4
	c-0.8,0.5-1.6,1.2-2.4,1.8c-3.6,2.8-7.7,4.2-12.2,4.3c-2.2,0.1-4.5,0-6.7-0.2c-2.6-0.2-4.9-1.1-7-2.7c-1.8-1.3-3.3-1.1-5,0.1
	c-5.9,4.3-12.1,4.5-18.4,0.9c-2.6-1.5-5-1.5-7.6-0.1c-1.7,0.9-3.6,1.8-5.5,2.4c-4.6,1.5-9.1,1.2-13.3-1.4c-0.3-0.2-0.7-0.4-1-0.6
	c-2-1-3.2-0.8-4.6,1.1c-1.9,2.5-3.8,5-5.7,7.5c-0.9,1.1-2,2.1-2.9,3.2C287,456.8,286.8,456.7,286.7,456.5z"/>
<path class="st0" d="M321.3,590c-1.2-1.3-1.6-2.8-1.9-4.4c-0.7-3.4-0.5-6.9-0.1-10.3c0.8-7.4,1.8-14.8,2.5-22.2c0.3-3,0.4-6,0.4-9
	c0-1.6,0.6-2.4,1.9-3c1.9-1,3.8-1.5,6-0.8c2.7,0.9,5.4,0.1,7.6-1.6c2.1-1.7,3.9-3.7,5.7-5.6c1.2-1.2,2.2-2.5,3.4-3.7
	c1.3-1.3,2.9-1.6,4.7-0.8c1.8,0.7,3.6,1.4,5.4,2.1c4.1,1.6,7.8,0.9,11.1-2c1.4-1.2,2.7-2.5,4-3.8c0.4-0.4,0.9-0.8,1.3-1.3
	c2.4-2.5,5.1-3,8.4-1.8c2.2,0.8,4.6,1.4,6.9,1.6c3.7,0.4,7.2-0.6,10.1-3c2.2-1.8,4.3-3.7,6-6c1.9-2.6,4.4-3.4,7.3-3.4
	c0.3,0,0.6,0,0.9,0.1c3.8,0.5,4,0.6,4.8,4.4c0.7,3.2,1.2,6.5,1.8,9.7c0.1,0.4,0,0.7,0,1.2c-1.7,0.9-3.5,1-5.2,0.7
	c-3.3-0.6-5.6,0.8-7.5,3.4c-1.7,2.3-3.2,4.7-5.1,6.9c-1.4,1.6-3,3.1-4.7,4.3c-2.9,2-6,2.2-9.2,0.7c-1-0.5-1.9-1-2.9-1.4
	c-2.3-1-4.2-0.6-5.9,1.2c-0.7,0.8-1.3,1.7-1.9,2.6c-0.6,0.9-1.1,1.8-1.7,2.7c-3.7,5.5-8.8,7.6-15.3,6.7c-0.8-0.1-1.7-0.2-2.5-0.3
	c-2.7-0.3-4.8,0.9-6.2,3.1c-0.8,1.3-1.4,2.7-2.1,4.1c-0.5,1.1-0.9,2.3-1.4,3.4c-2.9,6.2-8.2,8.3-14.9,6.7c-1.2-0.3-2.3-0.9-3.4-1.3
	c-3.7-1.5-6-0.5-7.4,3.3c-1.5,4.1-1.3,8.3-1.2,12.5C321.1,587.2,321.2,588.6,321.3,590z"/>
<path class="st0" d="M367,359.9c-3.8-0.5-7.8-0.9-11.7-1.6c-5.2-0.8-9.7-3.4-13.7-6.7c-3.9-3.2-8.2-4.9-13.1-5.6
	c-5.7-0.8-11.3-2-16.9-3.2c-3.9-0.9-7.5-2.5-10.7-5.1c-2.8-2.3-4.5-5.2-5.5-8.6c-0.2-0.7-0.5-1.4-0.9-2.6c-0.6,0.9-1,1.4-1.2,1.8
	c-0.8,1.8-1.5,3.7-2.3,5.5c-1.2,2.6-3.2,4.7-5.4,6.5c-7.4,6-15.9,9.5-24.8,12.2c-4.8,1.5-9.7,2.5-14.7,2.2c-3.7-0.2-7.4-1-11.1-1.5
	c-0.2,0-0.4-0.2-0.7-0.5c0.7-0.6,1.4-1.3,2.1-1.8c3.5-2.6,6.9-5.3,10.5-7.8c8.3-5.8,14.8-13.1,19.9-21.7c0.2-0.3,0.4-0.6,0.6-0.9
	c0.2,0,0.4-0.1,0.5,0c2.2,2.2,4.8,2.1,7.5,1.1c1.1-0.4,2.3-0.9,3.3-1.5c2.6-1.4,5-1.2,7.3,0.5c0.5,0.4,1,0.7,1.5,1
	c5.7,3.7,11.8,3.6,17.1-0.4c1.8-1.3,3.4-1.5,5.3-0.3c3,1.9,6.4,2.9,9.9,3.4c5,0.8,9.4-0.3,13.4-3.5c0.4-0.3,0.8-0.7,1.2-1
	c1.5,2.3,2.7,4.7,4.4,6.7c3.8,4.7,7.7,9.1,11.6,13.7c5.3,6.3,10.6,12.5,15.9,18.8C366.5,359.2,366.8,359.6,367,359.9z"/>
<path class="st0" d="M285.4,429.6c-1-9.4-3.1-18.2-2.5-27.3c4.1,0.4,7.2-1.6,10.4-3.6c2.4-1.6,5-2.9,7.6-4.2c2.2-1.1,4.6-1.2,7-0.6
	c3.4,0.8,6.9,1.7,10.3,2.6c2.5,0.6,4.9,0.4,7.3-0.2c2.6-0.7,5.2-1.4,7.8-1.9c0.9-0.2,2-0.1,2.9,0.2c4.6,1.4,9.2,1.5,13.9,0.8
	c3.7-0.6,7.5-1,11.2-1.3c1.5-0.1,3.1,0.2,4.5,0.7c3.3,1.3,6.7,2.3,10.4,2.7c1.8,6.4,5.7,11.7,8.6,17.8c-4.2,2.3-8.3,3.7-13,2.3
	c-2.2-0.7-4.7-0.7-7-1c-2.3-0.2-4.5,0.3-6.5,1.2c-3.5,1.7-7,1.8-10.7,0.4c-2.6-1-5.4-1.8-8.1-2.7c-1.9-0.6-3.9-1-5.8-0.1
	c-6,2.9-12,1.7-17.9-0.3c-0.8-0.3-1.6-0.6-2.4-0.9c-5.1-1.9-9.7-0.9-13.7,2.7c-3.2,3-6.5,5.8-10.3,8.1c-1.2,0.7-2,2.1-2.9,3.2
	C286,428.3,285.9,428.7,285.4,429.6z"/>
<path class="st0" d="M115.2,651.3c-0.8-1.9-0.9-4-0.9-6c0-4.6,0.5-9.2,2.2-13.6c0.2-0.5,0.2-1,0.3-1.6c0.6-2.8,1.9-3.9,4.8-3.9
	c0.9,0,1.8,0.1,2.7,0.3c5.7,0.9,9.7-0.9,12.6-5.9c1-1.9,1.8-3.9,2.7-5.8c0.5-1.1,0.9-2.1,1.4-3.2c1.6-3.3,3.9-4.5,7.5-3.8
	c1.2,0.2,2.4,0.7,3.5,1c2.8,0.8,4.6-0.1,5.7-2.8c0.4-1,0.7-2,1-3.1c0.9-2.9,2.8-5.1,5.9-5.6c4.6-0.7,6.8-3.4,7.8-7.6
	c0.3-1.4,0.9-2.8,1.4-4.2c0.9-2.5,2.6-4.1,5-5.1c0.4-0.1,0.7-0.3,1.1-0.4c4.5-1.2,7.8-3.8,10-7.9c0.4-0.7,0.9-1.5,1.5-2
	c0.7-0.5,1.6-1,2.4-1.1c4.6-0.2,4.6-0.2,7.7-4c-0.2,1.6-0.4,2.8-0.6,4c-0.6,3.3-0.5,6.6-0.1,9.9c0.7,5.9-0.8,11.1-4.8,15.5
	c-1.9,2.1-4.2,3.4-7.1,3.2c-4.9-0.3-8.5,4.4-8.3,8.3c0.2,4-1,5.9-6.2,7.1c-0.8,0.2-1.7,0.2-2.5,0.3c-3.9,0.3-6.2,2.2-7.2,6
	c-0.3,1.3-0.4,2.6-0.7,3.8c-0.4,1.2-0.8,2.5-1.4,3.6c-0.6,1.2-1.6,1.8-3,1.8c-1,0-2,0.1-3,0c-3.3-0.1-6.1,1-8.2,3.5
	c-1.3,1.5-2.6,3.1-3.5,4.8c-2.4,4.5-5.9,6.7-11.1,6c-0.8-0.1-1.7,0-2.5-0.1c-6.1-0.6-10.6,2.3-14.4,6.7c-0.4,0.5-0.9,1.1-1.3,1.6
	C115.5,651.3,115.4,651.3,115.2,651.3z"/>
<path class="st0" d="M267.9,319.2c0.6-3.5,1.5-6.6,1.7-9.8c0.2-3.9-0.1-7.8-0.3-11.7c-0.1-1.5,0.2-2.4,1.4-3.5
	c2.2-1.9,4.3-4.2,6.1-6.5c2.9-3.7,5.6-7.5,8.2-11.4c2-3,3.6-6.2,5.4-9.5c0.2,0.4,0.5,0.8,0.6,1.2c1.3,4.3,3.4,8.3,6.1,11.8
	c3.1,4,6.3,7.9,9.7,11.7c4,4.4,9.2,7,14.7,9.3c1.6,0.7,3.2,1.4,4.8,2.1c2.4,1.1,4.1,3,5.5,5.1c0.3,0.5,0.3,1.1,0.4,1.7
	c0.3,2,0.4,4,0.8,5.9c0.3,1.3-0.1,2-1,2.8c-3.8,3.5-8.2,4.2-13.1,3.4c-2.9-0.5-5.6-1.5-8.2-3c-2.7-1.7-5.4-1.6-7.9,0.5
	c-3.3,2.9-9.5,3.6-14.2,0.5c-0.8-0.5-1.5-1-2.3-1.5c-2.9-2-5.9-2-8.9-0.3c-1,0.6-2,1.2-3,1.6c-1.5,0.7-3.1,1.1-4.7,0.5
	C269.1,320,268.4,319.5,267.9,319.2z"/>
<path class="st0" d="M233.2,732.1c0.3,6.3,0.5,12.4,0.8,18.7c-0.7-0.1-1.1-0.2-1.6-0.3c-3.2-0.8-6.3-1.9-9.6-2.5
	c-9.7-2.1-18.6-6.3-27.3-10.9c-7.1-3.8-13.9-8.1-20.1-13.3c-4-3.4-8.7-6.1-13.5-8.4c-8.2-3.9-16.5-3.6-24.7,0.1
	c-0.1,0.1-0.3,0-0.6,0.1c-2-3-2.8-6.4-2-10c0.7-3.4,3.3-5.3,7.1-5.2c3.6,0,7.2,0.4,10.8,0.5c1.5,0,3.1-0.1,4.6-0.5
	c3.6-0.9,6.7-0.1,9.5,2.1c1.6,1.3,3.1,2.8,4.5,4.3c4.7,4.9,10.2,8.3,17.1,9.3c3.6,0.5,7-0.3,10.5-0.9c3.2-0.6,6.3-1.3,9.6-0.8
	c2.8,0.4,5.3,1.5,7.4,3.5c1.4,1.3,2.6,2.8,3.9,4.2c1.2,1.4,2.4,2.8,3.6,4.2C225.7,729.2,228.9,731.4,233.2,732.1z"/>
<path class="st0" d="M83.4,677.8c-0.1,1-0.2,2-0.2,3c-0.4,6.2,0.6,12.1,3.6,17.6c1.8,3.3,4.4,5.6,8.2,6.5c0.4,0.1,0.8,0.3,1.4,0.5
	c-1.6,1.7-3.2,3.3-4.7,4.9c-3.2,3.5-6.1,7.3-7.7,11.9c-2.1,5.7-3.5,11.4-2.1,17.5c0.5,2.2,0.6,4.4,0.1,6.6c-0.6,2.7-2.1,4.5-4.8,5.3
	c-1.8,0.5-2.6,0.1-3-1.8c-1.4-7.3-5.9-12.3-12.2-15.5c-3.4-1.7-5.3-4.2-6.2-7.8c-0.4-1.8-0.7-3.6-1.1-5.4c-0.6-2.5,0.3-4.5,1.9-6.3
	c2.4-2.6,4.7-5.3,7-7.9c7.4-8.2,13.2-17.5,18.2-27.3c0.3-0.7,0.7-1.3,1-2C83.1,677.7,83.2,677.7,83.4,677.8z"/>
<path class="st0" d="M343.4,256.6c-0.2,0-0.4,0.1-0.4,0c-2.3-3.9-6.1-5-10.1-5.5c-3.3-0.4-6.6-0.7-9.9-0.9
	c-3.8-0.2-7.3-1.1-10.6-2.8c-0.5-0.3-1.1-0.5-1.6-0.8c-3.1-2.1-6.6-2.5-10.2-1.9c-3.7,0.6-7.4,1.1-11.1,1.8
	c-3.2,0.6-6.4,0.8-9.5-0.3c-2.7-1-5.3-0.3-7.9,0.4c-4.8,1.5-9.6,2.8-14.3,4.2c-0.2,0.1-0.4,0.1-0.7,0.2c-4.3,0.5-7.8,2.3-10,6.3
	c0.1-0.5,0.1-1.1,0.4-1.5c1.1-1.7,2-3.7,3.5-5.1c4-3.9,7.6-8,11.1-12.3c2.2-2.8,5.2-4.3,8.7-4.7c4.5-0.5,8.6,0.5,11.8,3.8
	c1.6,1.6,3.1,3.3,4.7,5c-0.4,0.4-0.7,0.8-1.1,1.3c0.4,0.1,0.6,0.2,0.8,0.1c3.1-1.1,6.3-2.1,9.3-3.4c4.9-2.1,9.6-4.7,14.9-5.9
	c3.4-0.8,6.8-1.4,10.3-0.9c4.9,0.7,9.1,2.9,12.5,6.3c2.3,2.3,4.5,4.9,6.5,7.4c1.9,2.3,2.8,5.1,3,8.1
	C343.6,255.9,343.5,256.3,343.4,256.6z"/>
<path class="st0" d="M332.2,392.6c-2.4,0.6-4.4,1-6.3,1.7c-3.2,1-6.3,0.9-9.5,0c-3-0.8-5.9-1.5-8.9-2.3c-2.6-0.6-5.2-0.5-7.6,0.7
	c-2.4,1.2-4.7,2.5-7,3.9c-1.3,0.7-2.3,1.7-3.6,2.5c-1.8,1.1-3.7,1.9-6.1,1.7c-0.2-7.3,1.7-14.5,0.4-22c3.3-1.3,6.6-2.6,9.9-3.7
	c0.8-0.3,1.8,0.1,2.6,0.3c0.5,0.1,0.9,0.5,1.4,0.9c5.6,4.3,11.8,5.8,18.7,4.3c3.9-0.8,6.5,0.5,8.6,3.6
	C326.6,387.2,328.6,390.3,332.2,392.6z"/>
<path class="st0" d="M314.2,472.2c-3.5-0.7-6.6-1.2-9.7-2c-1.9-0.5-3.8-1.3-5.4-2.4c-4.3-2.8-8.4-5.8-12.7-8.8
	c4.5-2.9,7.6-7.3,10.8-11.6c0.7-0.9,1.4-1.1,2.4-0.6c0.3,0.1,0.5,0.3,0.8,0.5c2.7,2,5.8,2.8,9.1,2.9c0.4,0,0.7,0.1,1.3,0.1
	C312.3,457.4,313.4,464.6,314.2,472.2z"/>
<path class="st0" d="M256.3,332.2c2.2-4.9,2.4-9.9,2.4-15c0-6.8,0.1-13.5-0.2-20.3c-0.2-5.5-1-11-1.5-16.6c0.4,0.2,0.9,0.5,1.4,0.8
	c1,0.5,2,1.4,3.1,1.5c2.3,0.2,3,1.8,3.5,3.6c3.2,11.5,4.2,23.1,0.2,34.7c-0.2,0.6-0.4,1.4-0.8,1.9c-2.5,3-5,6-7.5,9
	C256.6,332,256.4,332.1,256.3,332.2z"/>
<path class="st0" d="M377.3,397.5c2.4-0.4,4.4-0.9,6.5-1c1.1,0,2.4,0.5,3.3,1.2c1.4,1.1,2.6,2.4,3.7,3.7c3,3.6,6.5,6.5,10.8,8.3
	c1.1,0.4,2.1,1,3.1,1.6c2.6,1.5,3.1,4.1,0.9,6.2c-2.4,2.3-5.3,3.2-8.5,2.4c-2.6-0.6-5.1-1.6-7.7-2.4c-0.6-0.2-1.2-0.7-1.5-1.3
	c-3.5-5.9-6.9-11.8-10.3-17.7C377.6,398.4,377.5,398.1,377.3,397.5z"/>
<path class="st0" d="M342.6,288.4c0.1,1.3,0.3,2.3,0.3,3.2c0.1,4.3,0.2,8.6,0.4,12.9c0.4,7.7,1.8,15.2,3.9,22.6
	c0.7,2.6,1.5,5.3,2.3,8.4c-0.7-0.6-1.1-0.8-1.4-1.2c-3.2-3.6-6.6-7.1-9.6-10.9c-2.3-2.9-3.3-6.6-3.9-10.2
	c-1.1-6.4,0.2-12.5,2.1-18.6c0.1-0.4,0.3-0.9,0.6-1.2C339,291.9,340.7,290.3,342.6,288.4z"/>
<path class="st0" d="M256.1,253.4c0,0.4,0.1,0.7,0.1,1c-0.7,6.7,1.1,12.9,3.5,19c0.7,1.8,1.6,3.5,2.4,5.3c0.3,0.7,0.5,1.4,0.9,2.5
	c-2.8-0.7-4.7-1.9-5.9-4.1c-0.2-0.4-0.4-0.8-0.5-1.3c-0.7-3.4-2.8-5.6-5.9-7.2c-2.8-1.4-3.4-2.8-3.1-6c0.3-2.7,1.4-5,3.1-7
	C252.1,254.1,254,253.6,256.1,253.4z"/>
<path class="st0" d="M409.2,473.5c-0.9-9.9-4.4-19.2-7.4-28.5c0.1-0.1,0.3-0.2,0.4-0.3c1,0.9,2.1,1.7,3,2.7c3,3.5,5.8,7.1,8,11.2
	c2.3,4.3,1.9,8.2-1,12c-0.8,1-1.7,2-2.5,3C409.6,473.5,409.4,473.5,409.2,473.5z"/>
<path class="st0" d="M203,398.7c-3.1,8.6-8.2,16.3-11.3,25c-0.9-4-2-7.9-1.9-12c0-0.8,0.3-1.9,0.9-2.5c3.7-3.4,7.4-6.6,11.2-9.9
	C202.1,399.1,202.6,398.9,203,398.7z"/>
<path class="st0" d="M342.8,284.9c-0.9-2.6-1.7-5-2.5-7.4c-1.4-4.1-0.3-7.8,1.9-11.3c0.9,2.9,2,5.7,2.5,8.6
	C345.4,278.3,345,281.7,342.8,284.9z"/>
<path class="st0" d="M286.7,439.9c-1.5-1.9-1.6-3.9-0.6-6.6c0.2,1.5,0.3,2.4,0.4,3.4C286.6,437.8,286.7,438.9,286.7,439.9z"/>
<path d="M297.3,160.4c-0.7,0.5-1.6,1-2.9,1.7c0.3-0.8,0.4-1.4,0.6-1.7c1.4-1.5,3-2.6,5-3c1.9-0.3,3.9-0.7,6.1-0.3
	c-1.4,1.3-3,1.4-4.2,1.7c-0.7,0.8-1.2,1.8-1.9,2C299.3,161.1,298.4,160.6,297.3,160.4z"/>
<path d="M292.2,159.2c0.7-3.6,6.3-6.7,12.5-6.6c-2.1,1.6-4.5,1.9-6.5,3C296.1,156.7,294.2,158,292.2,159.2z"/>
<path d="M277.1,155.9c6.9-0.3,10.4,4.4,9.8,10.2c-1.1-2.3-1-5.2-3.3-6.7C281.6,158.1,279.4,157.1,277.1,155.9z"/>
<path d="M284.5,163.3c-1.2-0.3-2.4-0.4-3.5-0.8c-0.6-0.3-1.1-1.1-1.3-1.9c-0.9-0.1-1.8-0.3-2.7-0.4
	C279.7,158.1,283.2,159.7,284.5,163.3z"/>
<path d="M305,159.6c-2,3.3-5.9,4.6-8.6,2.8c0.5-0.2,0.8-0.3,1.1-0.4C300,161.3,302.4,160.5,305,159.6z"/>
<path d="M297,182.2c-3,1-5.9,2.5-9.1,0.6C289.5,182,295.3,181.5,297,182.2z"/>
<path d="M294.1,175.8c-2.6,2.4-5.3,2-6.6-0.9C289.7,175.2,291.7,175.5,294.1,175.8z"/>
<path d="M282.6,164.8c-2.7,1-4.6-0.2-5.3-3.1C279,162.7,280.7,163.7,282.6,164.8z"/>
<path d="M292.2,186.6c0.8-0.9,1.7-0.6,2.9-0.4C294.1,187.3,293.2,187,292.2,186.6z"/>
</svg>
