<?xml version="1.0" encoding="utf-8"?>
<!-- Generator: Adobe Illustrator 19.0.0, SVG Export Plug-In . SVG Version: 6.00 Build 0)  -->
<svg version="1.1" id="图层_1" xmlns="http://www.w3.org/2000/svg" xmlns:xlink="http://www.w3.org/1999/xlink" x="0px" y="0px"
	 viewBox="0 0 595.3 841.9" style="enable-background:new 0 0 595.3 841.9;" xml:space="preserve">
<style type="text/css">
	.st0{fill:#FFFFFF;}
</style>
<path class="st0" d="M595.3,841.8c-198,0-396,0-593.9,0c0-280,0-560.1,0-840.1c198,0,396,0,593.9,0
	C595.3,281.7,595.3,561.8,595.3,841.8z M471.8,727.8l-0.1,0.1c2.5-0.5,4.5-1.8,6.4-3.3c0.2-0.2,0.2-0.5,0.3-0.8
	c0.7-0.7,1.4-1.4,2.1-2.1c1.4-0.6,2-1.7,2.2-3.2c0.5-0.9,0.9-1.8,1.4-2.6c1.4-2.5,1.4-5,0.4-7.6c-0.4-1-0.7-1.9-1-2.9
	c-2.3-6.9-4.3-13.9-6.9-20.6c-8.1-21.5-17.9-42.3-28.2-62.8c-9.6-19.1-20.2-37.7-29.2-57.1c-5.4-11.7-11.4-23-15.8-35.1
	c-6.3-16.8-13.9-33-22-49.1c-0.4-0.8-0.7-1.6-1.1-2.4c1-0.8,2-1.5,3-2.2c2.6-2,2.8-2.9,1-5.6c-2.1-3-4.3-6-6.5-8.8
	c-2.5-3.1-5.2-6.1-7.6-9.2c-6.7-8.7-13.9-17.1-19.3-26.8c-1.5-2.6-3.6-4.8-5.5-7.1l0.1,0.1c-0.1-0.7-0.6-1.7-0.3-2.2
	c1-2,0.2-3.5-1.1-5c-3.9-4.6-6.9-9.8-9.5-15.2c-0.7-1.4-0.9-2.4,0.1-3.7c1.2-1.5,1.2-3.2,0.4-5c-0.7-1.4-1.3-3-2.2-4.2
	c-2-2.6-2.6-5.4-2.1-8.7c0.5-3.2,0.3-6.5,0.5-9.8c0.5-6,1.2-12.1,1.5-18.1c0.4-6.9,1.6-13.6,2.7-20.4c1.6-9.1,3.4-18.2,3.6-27.5
	c0.1-4.1,0.3-8.1-1.1-12.1c-2.5-7.6-3.2-15.4-3.2-23.4c0.1-9.3,0.2-18.5,0.3-27.8c0.1-10.7,0.5-21.4,1.5-32
	c0.4-4.3,0.5-8.6,0.5-12.9c0-5.7-1.5-11-4.3-16c-1.3-2.4-3.3-4-5.8-5.1c-5.4-2.3-11-3.3-16.8-3.5c-3.5-0.1-7-0.1-10.5-0.2
	c-5.3-0.1-10.5-0.7-15.6-2.2c-3.2-0.9-5.5-2.8-6.7-5.9c-0.5-1.2-0.7-2.4-1.1-3.7c-0.4-1.4-0.9-2.9-1.3-4.3l0.1,0.1
	c0.1-2.9,2.3-4.4,4.3-5.9c1.2-0.9,2.5-0.9,4-0.2c4.5,2.1,10.1,0.3,12.9-3.8c1.7-2.5,3.9-11.2,3.4-14.2c-0.4-2.8-0.8-5.7-2.1-8.3
	c-0.9-1.9-1.7-3.8-1.4-6c0.3-2.2-0.5-3.8-1.9-5.4c-2.3-2.6-4-5.6-4-9.2c0-1.1-0.1-2.2-0.2-3.3c-0.6-3.9-1.1-7.7-1.9-11.5
	c-0.6-2.8-2.3-4.9-4.8-6.2c-2.7-1.5-5.5-2.9-8.5-3.3c-3.5-5.8-6.9-7.7-13.6-8c-6.2-0.2-12.1,1.2-17.7,3.6c-1.6,0.7-3.2,1.8-4.4,3.2
	c-1.6,1.8-3,3.8-4,5.9c-1.9,3.9-4.5,6.9-7.9,9.4c-1.7,1.2-3.1,1.6-5.1,0.9c-3-1-6-0.3-8.9,0.8c-1.7,0.6-3,1.9-3.7,3.6
	c-1,2.1-1.7,4.2,0.8,5.9c-0.8,1.6-1.6,3.1-2.3,4.6c-0.9,2.1-1.7,4.3-2.5,6.5c-0.6,1.7-0.4,3.3,0.9,4.6c0.2,0.2,0.3,0.5,0.4,0.6
	c-0.7,1.4-1.5,2.6-1.9,3.9c-2.1,6.7,1.7,14.5,8.5,17.3c2.3,1,4.3,2.3,6.2,3.9c1.8,1.5,3.7,2.7,5.8,3.8c3.8,2,7.9,2.8,12.2,2.9
	c2.1,0.1,4.3,0.3,6.4,0.7c3.3,0.7,3.6,1.4,3.2,4.6c-0.4,3.1-2.1,5.5-4.2,7.6c-3.2,3.1-6.5,6.2-9.8,9.2c-3.5,3.2-7.4,5.5-11.8,7.2
	c-2.4,0.9-4.7,2-7,3c-4.4,1.9-8.8,3.7-13.1,5.8c-7,3.4-11.3,9-12.5,16.8c-0.7,4.4,0,8.7,1.4,13c1.2,3.6,2.3,7.3,3.5,10.9
	c0.9,2.6,1.8,5.1,2.7,7.7c2.5,6.4,5.2,12.7,7.6,19.1c2.7,7.2,4.8,14.5,5.3,22.3c0.4,7.2,0.8,14.5,1.3,21.7c0.3,4.4,0.7,8.8,1.4,13.1
	c0.9,5.6,2.5,11,4.6,16.3l0-0.1c0.4,1.6,0.6,3.1,1.1,4.6c0.6,2,0.5,3.9-0.1,5.8c-0.8,2.8-1.5,5.6-1.8,8.4c-0.7,7.5-1,15.1-1.6,22.7
	c-0.1,0.8-0.3,1.7-0.5,2.5c-0.3,0.8-0.9,1.5-1.1,2.3c-1.9,6.9-3.7,13.9-5.7,20.8c-3.9,13.6-8.2,27.2-11.8,40.9
	c-5.2,19.8-11.5,39.2-21.2,57.3c-1.6,3.1-1.9,6.4-1.5,9.8c0.6,5,1.3,9.9,2.1,14.9c0.2,1,0,1.8-0.4,2.7c-1,2.2-2,4.3-2.9,6.6
	c-4.9,12.1-9.6,24.2-14.6,36.2c-8,19.4-14.6,39.3-20,59.6c-2.7,10.3-4.8,20.7-7.8,30.8c-4.3,14.7-9.3,29.2-13.9,43.8
	c-2.6,8.1-5.1,16.1-7.6,24.2c-0.5,1.6-0.7,3.3-0.9,4.9c-0.2,2,0.7,3,2.7,3.2c1.3,0.1,2.5,0.1,3.8,0.1c0.7,0,1.4,0,2.2,0
	c-0.4,2.8-1.4,5.2-2.5,7.5c-1.7,3.5-3.4,7-5.1,10.6c-1.1,2.4-0.7,4.3,1.4,5.9c1.1,0.8,2.5,1.5,3.8,1.9c4.7,1.6,9.6,1.6,14.4,0.8
	c4.9-0.8,9.7-1.6,14.6-2.4c4.7-0.7,9.2-1.2,13.9,0.6c3.2,1.2,6.8,0.9,10.2,0.2c0.9-0.2,2.1-0.4,2.1-1.6c0-0.6-0.9-1.4-1.6-1.8
	c-2.1-1.5-4.3-2.8-6.3-4.3c-0.7-0.5-1.3-1.3-1.9-2c1.7-1.4,2.6-1.8,5-1.8c3.2,0,6.4,0.3,9.6,0.3c2.9,0,5.3,0.9,7.5,2.7
	c1.5,1.3,3.1,2.5,4.6,3.9c1.2,1,2.6,1.7,4.1,1.7c3.2,0,5.8,1.2,8.1,3.5c2.4,2.3,5.3,3.9,8.6,4.5c3.7,0.7,7.4,1.1,11.1,1.3
	c3.5,0.2,6.8-0.9,9.6-3.2c2.1-1.7,2.2-3.2,0.1-4.9c-1.4-1.1-3-1.8-4.5-2.6c-1.7-1-3.6-1.8-5.2-3c-1.7-1.2-1.7-2.3,0.1-3.6
	c2.9-2.2,6.2-3,9.7-1.7c2.6,1,5.2,2,7.6,3.4c3.6,2.1,7.4,3.4,11.3,4.5c3.4,1,6.7,1.1,10.1-0.1c2.9-1,5.9-1.5,9-1
	c3.1,0.5,6.1,1.1,9.1,2.1c3.1,1,6.3,1.8,9.6,1.7c1.6-0.1,3.2,0.1,4.8,0.2c2.3,0.1,4.2,0.9,6,2.6c2.7,2.7,6.3,3.3,10,3
	c0.5,0,1.1-0.2,1.6-0.5c1.7-0.9,1.8-2.3,0.2-3.3c-1.2-0.8-2.6-1.3-3.9-1.8c-1.4-0.6-2.9-1-4.3-1.6c-2.6-1.1-4.5-3-5.8-5.5
	c-0.9-1.7-0.3-2.4,1.6-2.6c4.1-0.4,8.3-0.8,12.4-1.3c9.1-1.1,17.4,0.8,25.1,5.9c2.4,1.6,2.5,2.1,1.7,4.8c-0.7,2.2-0.2,3,2.1,3.1
	c2.5,0.1,4.9,0,7.4-0.1c8.5-0.2,17.1-0.5,25.5-1.9c7.6-1.3,14.7-3.7,20.4-9.1c2-1.9,4.3-3.6,6.4-5.4c1.6-1.3,3.4-2.3,5.4-3.1
	c2-0.8,3.8-1.9,5.7-3c1.2-0.7,2.2-1.6,3.5-2.1c2.6-1.2,5.4-0.6,7,1.7c1.3,1.9,3.1,2.9,5.3,3.5c5.7,1.4,11.4,2.2,17.2,2.5
	c2.9,0.2,5.7,0.2,8.6,0.6c6.8,0.9,12.8-1,18-5.3c0.7-0.3,1.3-0.7,2-1C468.5,729.3,470.1,728.5,471.8,727.8z"/>
<path d="M345.3,418.4c1.8,2.4,4,4.6,5.5,7.1c5.4,9.7,12.6,18.1,19.3,26.8c2.4,3.2,5.2,6.1,7.6,9.2c2.3,2.9,4.5,5.8,6.5,8.8
	c1.8,2.6,1.6,3.6-1,5.6c-0.9,0.7-1.9,1.4-3,2.2c0.4,0.9,0.7,1.7,1.1,2.4c8.1,16,15.7,32.2,22,49.1c4.5,12.1,10.5,23.4,15.8,35.1
	c9,19.4,19.6,38,29.2,57.1c10.3,20.5,20.1,41.3,28.2,62.8c2.6,6.8,4.6,13.7,6.9,20.6c0.3,1,0.7,2,1,2.9c0.9,2.6,1,5.1-0.4,7.6
	c0-1.7,0.1-3.4,0-5.1c0-0.9-0.1-1.9-1.4-2c0.1-0.6,0.4-1.2,0.3-1.7c-0.6-2.5-1.1-5-1.9-7.4c-4.8-14.8-10.7-29.2-17.2-43.3
	c-7.1-15.5-14.3-31-22.4-46.1c-7.3-13.7-14.4-27.6-21.3-41.5c-6.9-14-13.6-28.1-19.2-42.8c-3.3-8.5-7-16.8-10.6-25.1
	c-1.8-4.1-3.7-8.1-5.6-12.1c-1.7-3.3-3.5-6.5-5.4-10c-0.8,0.5-1.4,0.9-2.1,1.4c0.4,1.7,0.6,3.3,1.1,4.7c1.1,3-0.2,5.1-2.5,6.8
	c-0.5,0.4-1,0.9-1.5,1.2c-3.9,2.2-7.2,5.3-10.7,8.1c-1.6,1.2-1.7,2.7-1.6,4.4c0,0.4,0.2,0.8,0.3,1.2c0.7,4-0.4,5.8-4.1,7.6
	c-3.4,1.7-6.7,3.6-10.1,5.4c-1.2,0.6-1.6,1.4-1.3,2.7c0.2,1.3,0.3,2.7,0.3,4.1c0.1,3.5,0.7,7,1.8,10.3c0.5,1.5,1,3,1.3,4.6
	c0.2,1,0.3,2.1,0.2,3.1c-0.3,3.1-1.7,5.7-4,7.9c-7,6.6-12.8,14.3-18.5,21.9c-0.6,0.8-0.9,1.6-0.9,2.6c0.1,6.4-0.7,12.7-1.5,19.1
	c-0.4,3.1-1,6.1-3,8.7c-0.8,1-1.4,2.1-1.8,3.3c-2.2,5.5-5,10.6-8.7,15.1c-6.6,8-13.3,15.9-19.9,23.9c-5.9,7.2-13.1,12.3-21.7,15.6
	c-10.7,4.2-21,9.2-31.1,14.7c-15,8.2-31.2,13.3-47.3,18.7c-9,3.1-18.4,4.4-27.8,5.7c-3.6,0.5-7.1,1.4-10.5,2.6
	c0.1,1.1,0.2,1.9,0.2,2.8c0.1,2.8-0.3,5.5-2.3,7.6c-1.3,1.3-2.9,2.5-4.6,3.4c-6.9,3.5-14.3,5.3-21.7,7.1c-2.9,0.7-5.9,1.2-8.8,1.7
	c-0.7,2-1.3,4-2.2,5.9c-1.9,4.2-4,8.3-5.9,12.5c-1,2.1-0.6,3.6,1.2,5.1c0.9,0.7,1.9,1.2,2.9,1.6c4.4,1.6,8.9,1.9,13.4,1.2
	c6.9-1,13.9-2.1,20.8-3.2c2.6-0.4,5.1-0.1,7.5,0.8c3.6,1.3,7.4,1.2,11.1,0.8c0.8-0.1,1.5-0.6,2.7-1.1c-1.1-0.7-1.7-1.2-2.4-1.6
	c-2.2-1.5-4.4-2.9-6.5-4.5c-1.9-1.5-1.9-2.5-0.7-4.5c1.8-2.9,3.5-5.7,5.2-8.6c0.8-1.3,1.5-2.6,2.2-3.9c-1.6,4.7-4.2,8.8-6.9,13.2
	c1.5-0.2,2.8-0.5,4-0.5c3.6,0,7.2,0,10.8,0.2c2.4,0.1,4.5,0.8,6.4,2.3c1.5,1.2,3,2.4,4.4,3.7c1.5,1.4,3.2,2.4,5.3,2.4
	c3,0,5.4,1.2,7.5,3.3c1.9,1.9,4.2,3.3,6.7,4.1c4.5,1.5,9.2,2.2,13.9,1.9c3.2-0.2,6.1-1.2,8.5-3.4c1.3-1.2,1.4-2.1,0-3.2
	c-1.2-1-2.6-1.8-4.1-2.5c-2.4-1.1-4.8-2.2-6.8-4c-0.4-0.3-1-0.4-1.2-0.5c0.9-7.1,1.9-14,2.8-20.9c0.1,0,0.3,0,0.4,0
	c-0.6,5.8-1.2,11.7-1.8,17.6c0.7-0.4,1.3-0.8,1.9-1.1c2.9-1.6,6-2.3,9.2-1c2.7,1.1,5.5,2.2,8.1,3.6c3.1,1.7,6.4,2.9,9.7,4
	c3.9,1.2,7.6,1.3,11.5,0.1c2-0.6,4.2-0.8,6.4-0.9c3.9-0.1,7.6,0.6,11.2,2.1c3.4,1.4,6.9,1.8,10.5,1.8c1.3,0,2.6,0.1,3.8,0.1
	c2.4,0,4.5,0.7,6.2,2.5c2.3,2.4,5.3,3.1,8.5,3.1c1.3,0,2.6-0.2,3.4-1.8c-0.8-0.6-1.6-1.2-2.5-1.6c-1.9-0.8-3.9-1.5-5.8-2.2
	c-3-1.1-5.1-3.2-6.7-5.9c-1.5-2.4-0.6-3.9,2.2-4.1c3.6-0.3,7.2-0.5,10.7-0.9c4.9-0.6,9.8-0.8,14.7,0.5c4.7,1.2,9.1,3,13,5.8
	c2.1,1.6,2.4,2.5,1.5,4.9c-0.2,0.5-0.3,1-0.5,1.6c1.1,0.9,2.3,0.9,3.5,0.9c3.5-0.1,7-0.2,10.5-0.3c7.2-0.3,14.4-0.6,21.4-2
	c7.1-1.3,13.9-3.7,19.3-8.9c2.1-2,4.3-3.8,6.6-5.5c1.3-1,2.8-1.8,4.3-2.6c2.2-1.2,4.5-2.3,6.8-3.5c1.1-0.6,2-1.3,3-1.9
	c2.9-1.5,6.2-0.8,8.1,1.9c1.3,1.7,2.9,2.7,4.9,3.2c1.2,0.3,2.5,0.6,3.7,0.8c4.7,0.8,9.4,1.6,14.2,1.7c7.8,0.1,20-7.4,21.1-15.9
	c0.1-0.8,0.9-1.6,1.4-2.4c-0.3,1-0.7,1.9-0.9,2.9c-0.8,4-3.1,7.1-6.2,9.7c-2.8,2.3-5.8,4.1-9.3,5.4c0.3,0.2,0.4,0.3,0.6,0.4
	c5.7,0.9,11.1,0.6,16.1-2.6c0.9-0.6,2-1,2.9-1.5c-5.3,4.3-11.2,6.2-18,5.3c-2.8-0.4-5.7-0.4-8.6-0.6c-5.8-0.3-11.6-1.2-17.2-2.5
	c-2.1-0.5-3.9-1.6-5.3-3.5c-1.6-2.3-4.4-2.9-7-1.7c-1.2,0.6-2.3,1.5-3.5,2.1c-1.9,1.1-3.7,2.2-5.7,3c-2,0.8-3.8,1.7-5.4,3.1
	c-2.1,1.8-4.4,3.5-6.4,5.4c-5.8,5.4-12.9,7.9-20.4,9.1c-8.4,1.4-17,1.7-25.5,1.9c-2.5,0.1-4.9,0.2-7.4,0.1c-2.3-0.1-2.8-1-2.1-3.1
	c0.8-2.6,0.7-3.2-1.7-4.8c-7.6-5.1-16-7-25.1-5.9c-4.1,0.5-8.2,0.9-12.4,1.3c-1.9,0.2-2.5,0.9-1.6,2.6c1.3,2.4,3.2,4.4,5.8,5.5
	c1.4,0.6,2.9,1,4.3,1.6c1.3,0.5,2.7,1.1,3.9,1.8c1.6,1,1.4,2.4-0.2,3.3c-0.5,0.3-1,0.4-1.6,0.5c-3.7,0.3-7.2-0.3-10-3
	c-1.7-1.7-3.6-2.5-6-2.6c-1.6-0.1-3.2-0.2-4.8-0.2c-3.3,0.1-6.4-0.6-9.6-1.7c-2.9-1-6-1.6-9.1-2.1c-3-0.5-6.1,0-9,1
	c-3.4,1.1-6.7,1-10.1,0.1c-3.9-1.1-7.7-2.4-11.3-4.5c-2.4-1.4-5-2.4-7.6-3.4c-3.5-1.3-6.8-0.5-9.7,1.7c-1.7,1.3-1.8,2.3-0.1,3.6
	c1.6,1.1,3.4,2,5.2,3c1.5,0.9,3.2,1.6,4.5,2.6c2.1,1.6,2.1,3.1-0.1,4.9c-2.8,2.3-6.1,3.4-9.6,3.2c-3.7-0.2-7.5-0.6-11.1-1.3
	c-3.2-0.6-6.2-2.2-8.6-4.5c-2.3-2.3-4.9-3.5-8.1-3.5c-1.6,0-2.9-0.7-4.1-1.7c-1.5-1.3-3-2.6-4.6-3.9c-2.2-1.8-4.6-2.7-7.5-2.7
	c-3.2,0-6.4-0.2-9.6-0.3c-2.5,0-3.4,0.3-5,1.8c0.6,0.7,1.2,1.4,1.9,2c2.1,1.5,4.3,2.8,6.3,4.3c0.7,0.5,1.6,1.2,1.6,1.8
	c0.1,1.1-1.1,1.4-2.1,1.6c-3.4,0.7-7,1-10.2-0.2c-4.7-1.7-9.2-1.3-13.9-0.6c-4.9,0.8-9.8,1.6-14.6,2.4c-4.9,0.8-9.7,0.8-14.4-0.8
	c-1.3-0.5-2.7-1.1-3.8-1.9c-2.1-1.6-2.5-3.5-1.4-5.9c1.6-3.5,3.4-7,5.1-10.6c1.1-2.3,2.1-4.6,2.5-7.5c-0.8,0-1.5,0-2.2,0
	c-1.3,0-2.6,0.1-3.8-0.1c-2-0.2-2.9-1.2-2.7-3.2c0.1-1.7,0.4-3.3,0.9-4.9c2.5-8.1,5.1-16.1,7.6-24.2c4.7-14.6,9.6-29.1,13.9-43.8
	c3-10.2,5.1-20.6,7.8-30.8c5.4-20.3,12-40.2,20-59.6c5-12,9.7-24.1,14.6-36.2c0.9-2.2,1.9-4.4,2.9-6.6c0.4-0.9,0.6-1.7,0.4-2.7
	c-0.8-5-1.5-9.9-2.1-14.9c-0.4-3.4-0.1-6.7,1.5-9.8c9.7-18.1,16-37.5,21.2-57.3c3.6-13.7,7.9-27.3,11.8-40.9
	c2-6.9,3.8-13.8,5.7-20.8c0.2-0.8,0.8-1.5,1.1-2.3c0.3-0.8,0.5-1.6,0.5-2.5c0.5-7.6,0.9-15.1,1.6-22.7c0.2-2.8,1-5.6,1.8-8.4
	c0.6-2,0.7-3.9,0.1-5.8c-0.5-1.5-0.7-3.1-1.1-4.6c0.7,1.8,1.4,3.6,2.2,5.7c1.3-2.3,2.4-4.3,3.5-6.2c6.2-10.1,9.2-21.1,9.3-32.9
	c0.1-8.2-1.1-16.4-2.6-24.5c-1.2-6.7-3.8-12.8-8.4-18c-3.9-4.3-6.3-9.4-7.5-15c-0.8-3.8-2.2-7.5-3.7-11.1c-0.2-0.4-0.3-0.9-0.4-1.3
	c0.1,0,0.2-0.1,0.4-0.1c0.8,1.6,1.5,3.3,2.3,5c2-1.9,3.9-3.7,5.6-5.2c-3.5-13.2-6.8-26.1-7-40c-2.9,1.2-5.5,2.2-8,3.4
	c-10,4.8-14.8,14.2-12.3,25.1c0.9,4.2,2.4,8.3,3.8,12.3c1.3,4,2.7,8,4.2,11.9c2.5,6.6,5.2,13,7.6,19.6c2.4,6.4,4.1,12.9,4.5,19.7
	c0.5,7.3,1,14.6,1.4,22c0.3,7.8,1.4,15.5,3.8,23.1c0.7,2.2,1,4.5,1.5,6.7c-2.1-5.3-3.7-10.7-4.6-16.3c-0.7-4.3-1.1-8.7-1.4-13.1
	c-0.5-7.2-0.9-14.5-1.3-21.7c-0.4-7.7-2.6-15.1-5.3-22.3c-2.4-6.4-5.1-12.7-7.6-19.1c-1-2.5-1.9-5.1-2.7-7.7
	c-1.2-3.6-2.3-7.3-3.5-10.9c-1.4-4.2-2.1-8.5-1.4-13c1.2-7.8,5.5-13.3,12.5-16.8c4.3-2.1,8.7-3.9,13.1-5.8c2.3-1,4.7-2.1,7-3
	c4.3-1.7,8.3-4.1,11.8-7.2c3.3-3,6.6-6,9.8-9.2c2.1-2.1,3.8-4.5,4.2-7.6c0.4-3.2,0-4-3.2-4.6c-2.1-0.4-4.3-0.7-6.4-0.7
	c-4.3-0.1-8.4-0.9-12.2-2.9c-2-1.1-4-2.3-5.8-3.8c-1.9-1.6-3.9-3-6.2-3.9c-6.8-2.8-10.6-10.6-8.5-17.3c0.4-1.3,1.2-2.5,1.9-3.9
	c-0.1-0.1-0.2-0.4-0.4-0.6c-1.4-1.3-1.6-2.9-0.9-4.6c0.8-2.2,1.6-4.3,2.5-6.5c0.7-1.5,1.5-3,2.3-4.6c-2.4-1.7-1.7-3.9-0.8-5.9
	c0.8-1.6,2-2.9,3.7-3.6c2.9-1.1,5.9-1.7,8.9-0.8c1.9,0.6,3.4,0.3,5.1-0.9c3.5-2.5,6.1-5.5,7.9-9.4c1-2.1,2.4-4.1,4-5.9
	c1.2-1.3,2.8-2.4,4.4-3.2c5.6-2.5,11.5-3.9,17.7-3.6c6.6,0.2,10.1,2.2,13.6,8c3.1,0.4,5.8,1.9,8.5,3.3c2.5,1.4,4.3,3.4,4.8,6.2
	c0.8,3.8,1.3,7.7,1.9,11.5c0.2,1.1,0.2,2.2,0.2,3.3c0,3.6,1.7,6.6,4,9.2c1.4,1.6,2.2,3.3,1.9,5.4c-0.3,2.2,0.5,4.1,1.4,6
	c1.3,2.6,1.7,5.5,2.1,8.3c0.4,3-1.7,11.7-3.4,14.2c-2.8,4.1-8.4,5.9-12.9,3.8c-1.5-0.7-2.8-0.6-4,0.2c-2.1,1.5-4.2,2.9-4.3,5.9
	c-0.8-0.6-1.3,0-1.9,0.5c-1.8,1.6-4,2.3-6.3,2.6c-1.7,0.2-3.4,0-4.7-1.3c-1.3-1.4-2.4-2.9-3.5-4.5c-0.8-1.2-0.1-2.1,1.4-2.2
	c0.9,0,1.8,0,2.6,0.1c2.8,0.3,5-0.8,6.9-2.7c1.2-1.2,2.3-2.5,3.5-3.6c3.2-2.9,4.9-6.4,5.4-10.6c0.3-3,0.7-6.1,0.5-9
	c-0.3-3.6-1.2-7.1-1.9-10.6c0-0.1-0.2-0.2-0.4-0.3c-0.8,0.8-1.5,1.8-2.5,2.4c-0.9,0.5-1.8-0.2-2.8-1.9c-0.2,0.1-0.4,0.1-0.6,0.2
	c-0.2,0.1-0.5,0.2-0.7,0.3c1.5-3,4.6-1.9,7.1-2.9c-0.1-0.7-0.1-1.4-0.2-2.4c-2.7,0.6-5.2,1.2-7.6,1.8c2.1-2.4,5-2.6,8-3.7
	c-0.2-2.8-0.3-5.7-0.7-8.5c-0.5-3.5-2.6-6.1-5.2-8.3c-1-0.9-1.9-0.9-3-0.3c-2.6,1.3-3.9,3.5-4.6,6.1c-1.3,4.6-2.5,9.2-5.1,13.2
	c0.4,1,1.9,1.3,1.4,2.6c-2.6-0.8-2.6-0.8-3.5,0.9c0.4,0.4,0.9,0.8,1.3,1.2c-0.6,0.4-1.1,0.7-1.6,0.9c-2.1,0.5-3.4,2.2-4.7,3.7
	c-2.5,2.9-5.6,4.9-9.4,5.9c-0.4,0.1-0.9,0.3-1.4,0.5c1,1.8,2.4,1.3,3.7,1.2c0.1-0.5,0.2-0.8,0.3-1.1c0.5,1,0.7,2,0.8,3
	c0.3,2.9,0.4,5.9,1.9,8.6c0.9,1.5,2.1,3,2.4,4.6c0.3,1.6-0.3,3.4-0.6,5.2c-0.5,3.2-1.2,6.4-1.6,9.6c-0.5,4.1-2.9,7-5.7,9.7
	c-1.2,1.2-2.4,2.3-3.6,3.5c-5.6,5.5-11.7,10.1-19.2,12.7c-2.1,0.7-4,1.8-6,2.7c0.3,6.9,0.1,13.7,1.9,20.2c1.8,6.4,3.7,12.8,5.5,19.2
	c18.9-3.7,34.3,2.3,47,16.1c9.7-13.2,23.2-18.2,39.2-18.1c0-0.6,0.1-1.1,0.1-1.7c-0.1-9.2,1-18.3,2.6-27.3
	c1.1-5.7,1.9-11.5,2.8-17.2c0.2-1.2,0.5-2.5-0.5-3.9c-1.1,0-2.3,0-3.5,0c-4.8-0.1-9.6-0.2-14.4-0.4c-4-0.2-7.9-1-11.7-2.4
	c-2.6-1-4.4-2.8-5.6-5.3c-1.3-2.9-1.8-5.9-2.1-9c0.4,1.4,0.9,2.8,1.3,4.3c0.4,1.2,0.6,2.5,1.1,3.7c1.2,3.1,3.5,5,6.7,5.9
	c5.1,1.4,10.3,2.1,15.6,2.2c3.5,0.1,7,0.1,10.5,0.2c5.8,0.2,11.4,1.2,16.8,3.5c2.5,1.1,4.5,2.7,5.8,5.1c2.8,5,4.3,10.3,4.3,16
	c0,4.3-0.1,8.6-0.5,12.9c-1,10.7-1.4,21.3-1.5,32c-0.1,9.3-0.2,18.5-0.3,27.8c0,7.9,0.7,15.8,3.2,23.4c1.3,3.9,1.1,8,1.1,12.1
	c-0.2,9.3-2,18.4-3.6,27.5c-1.2,6.8-2.3,13.5-2.7,20.4c-0.3,6.1-1.1,12.1-1.5,18.1c-0.2,3.3,0,6.6-0.5,9.8c-0.5,3.3,0.1,6,2.1,8.7
	c0.9,1.2,1.5,2.8,2.2,4.2c0.9,1.7,0.8,3.5-0.4,5c-1,1.3-0.8,2.3-0.1,3.7c2.6,5.4,5.6,10.6,9.5,15.2c1.3,1.5,2.1,3,1.1,5
	C344.8,416.8,345.2,417.8,345.3,418.4c-0.3-0.1-0.7-0.3-1.2-0.4c-1.9,2.9-4.4,5.2-7,7.3c-10.7,8.5-22.1,15.9-34.5,21.8
	c-8.3,4-16.8,7.6-25.3,11.4c-1.9,0.8-3.9,1.5-5.8,2.2c0,0,0,0.1,0,0.1c0.5-0.3,0.9-0.8,1.4-1c5.4-2.4,10.8-4.8,16.1-7.3
	c10.7-4.9,21.3-9.8,31.1-16.4c5.8-3.9,11.4-8.2,17-12.4c2.4-1.8,4.6-4,6.1-6.7c1.4-2.5,1.4-2.9-0.4-5.1c-3.8-4.5-6.4-9.7-8.8-15
	c-0.3-0.6-0.6-1.2-1-2c-0.4,0.3-0.7,0.5-0.9,0.7c-7.9,7.4-15.9,14.5-24.5,21c-9.1,6.8-18.2,13.6-26.7,21
	c-9.8,8.5-20.7,15.4-32.5,20.9c-6.4,3-12.8,5.7-19.2,8.6c-10.7,4.7-21.5,9.4-32.2,14.1c-2.6,1.2-5.2,2.5-7.7,3.9
	c-3.7,2.1-6.5,5.1-8.2,9.1c-2.1,5-3.2,10.3-4,15.7c0,0.3,0,0.6,0.1,0.9c1.8-2.5,3.3-5.1,4.6-7.7c1.3-2.7,2.5-5.5,3.9-8.6
	c-0.5,3.4-1.8,6.1-3.1,8.7c-3.1,6.4-6.6,12.6-9.4,19.1c-3.9,8.8-7.1,18-10.9,26.8c-10.5,24.2-19.2,49-25.7,74.6
	c-3.9,15.2-7.4,30.5-12.3,45.5c-4.7,14.1-9.4,28.3-14,42.5c-1.2,3.6-2.1,7.2-2.9,10.9c-0.6,2.7,0.1,3.4,3,3.5c1.6,0,3.2-0.1,4.8-0.2
	c8-0.9,15.7-2.7,23.3-5.1c4-1.3,7.7-3,11.1-5.5c3-2.2,4.3-6.6,2.9-10.1c-0.7,0.1-1.4,0.2-2.1,0.3c-2.3,0.2-2.8-0.2-2.5-2.5
	c0.3-2.4,0.6-4.8,1.1-7.1c2.5-12.1,5-24.2,7.7-36.3c5.9-26.2,11.9-52.4,17.8-78.6c4.2-18.7,8.4-37.3,12.6-56c3-13.1,6.7-26,8.2-39.3
	c0-0.3,0.2-0.5,0.3-0.8c-0.1,2.7-0.3,5.4-0.8,8.1c-1.5,7.7-3.1,15.3-4.8,22.9c-3.8,16.8-7.9,33.5-11.7,50.3
	c-5.1,22.7-10,45.5-15,68.2c-4.2,19.1-8.6,38.1-12.9,57.2c-0.9,4-1.5,8.1-2.3,12.6c2.2-0.5,4-0.9,5.7-1.2c4.4-0.9,8.7-1.9,13.1-2.8
	c5.8-1.1,11.6-2,17.4-3.2c7.5-1.6,14.6-4.5,21.9-7c9.9-3.4,19.7-6.9,29-11.8c11.8-6.4,23.8-12.4,36.3-17.3
	c7.4-2.9,13.5-7.5,18.6-13.5c6.6-7.8,13.2-15.6,19.8-23.4c2.2-2.6,4.2-5.4,6-8.4c2.7-4.5,4.7-9.3,5.7-14.4c0.6-2.7-0.3-3.5-3-3.4
	c-1.4,0.1-2.9,0.3-4.3,0.2c-2-0.2-2.5-1.2-1.8-3c0.7-1.5,1.5-3,2.4-4.4c9.2-13.3,18.3-26.7,29.8-38.3c1.2-1.2,2.3-2.6,3.3-4.1
	c1.1-1.5,0.9-2.5-0.8-3.3c-1.6-0.8-3.4-1.4-5.2-1.7c-2.3-0.4-4.6-0.3-6.9-0.5c-2.1-0.3-4.2-0.7-6.3-1.1c-1.8-0.4-2.6-1.5-2.9-3.3
	c-1.1-5.9-1-11.7-0.7-17.7c0.3-5.3,0.8-10.5,1.1-15.8c0.8-14,0.5-27.9-0.4-41.9c-0.4-6.8-1.2-13.7-1.8-20.5
	c-0.1-0.8-0.1-1.6-0.1-2.4c1.4,5.5,2,11.1,2.3,16.7c0.5,10.1,0.9,20.2,1.1,30.4c0.2,8.6-0.2,17.2-0.9,25.8
	c-0.5,6.7-0.5,13.4-0.6,20.1c0,1.3,0.3,2.5,0.6,4.2c3.3-5.5,7.5-9.4,12.2-12.7c6.1-4.3,12.1-8.7,19-11.5c0.9-0.4,2-0.7,2.2-2.2
	c-0.8-0.1-1.5-0.3-2.3-0.4c-1.3-0.2-2.6-0.3-3.8-0.6c-0.7-0.2-1.5-0.8-1.8-1.4c-1.1-2.2-2.1-4.5-2.9-6.8c-1-3.2-2-6.4-2.7-9.7
	c-3-14.3-6.6-28.4-10.9-42.4c-0.8-2.7-1.5-5.5-2.2-8.2c0.8,1.3,1.2,2.8,1.7,4.2c4.4,14.2,8.3,28.5,11.6,42.9
	c1.1,4.9,2.6,9.7,3.9,14.5c0.4,1.3,1.1,2.6,1.8,4.2c3-2,5.7-3.6,8.2-5.5c4.7-3.5,9.3-7,13.9-10.6c0.5-0.4,1-0.8,1.4-1.3
	c1.6-1.7,1.6-2.5-0.5-3.7c-1.5-0.9-2.3-2-2.6-3.7c-0.4-2-0.9-3.9-1.4-5.8c-2.1-8.1-5.6-15.6-9.4-23c-0.3-0.5-0.5-1.1-0.8-1.6
	c3,4.5,5.6,9.2,7.4,14.2c1.9,5,3.4,10.2,5.1,15c1.9-1.4,3.9-2.7,5.8-4.1c1.1-0.8,2.2-1.6,3.2-2.5c1.4-1.2,1.4-1.6,0.4-3
	c-1.7-2.5-3.5-5-5.3-7.4c-6.3-8-12.9-15.9-19.1-24c-3-4-5.6-8.4-8.3-12.6c-1.5-2.3-3-4.7-4.4-7.1
	C345.9,419.8,345.6,419.1,345.3,418.4z M300.2,261.8c-0.8,0.5-1.7,0.9-2.5,1.4c-6.5,4.4-13.4,8-20.4,11.5c-4.4,2.1-8.7,4.2-13.1,6.4
	c0.4,0.6,0.7,1,1.1,1.4c-1.5-0.9-2.9-0.5-4.4,0.3c-8.5,4.2-17.1,8.2-26.4,10.3c-0.6,0.1-1.2,0.4-1.8,0.7c-0.1,1.2-0.2,2.4-0.4,3.6
	c-0.5,3.1-0.9,6.3-1.6,9.4c-1.5,6.1-3.9,12-7.2,17.4c-1.2,1.9-2.2,3.8-3.3,5.8c4.3,3.6,8.6,6.8,13.7,9.1
	c20.8,9.1,42.4,15.4,64.9,18.6c7.5,1.1,14.9,2.6,21.8,6.1c0.1,0,0.3-0.1,0.6-0.2c-0.5-2.9-1-5.7-1.5-8.6c-2-11-4.9-21.6-10.9-31.2
	c-1.9-2.9-3.2-6.2-4.8-9.4c-2.2-4.5-2.8-9.3-3.3-14.1c-0.1-1.4-0.7-2-1.9-2.3c-2-0.4-3.9-0.9-5.8-1.3c-6.2-1.2-11.5-4.2-16.7-7.6
	c-2-1.3-4.1-2.4-5.7-3.4c-3.9,1.6-7.2,3-10.7,4.3c-4.3,1.6-8.8,3-13.1,4.4c-2.6,0.9-5.1,1.8-7.7,2.5c-1.2,0.3-2.6,0.3-3.8,0.4
	c6.8-1.5,31.1-10.1,33.8-12.2c-1.2-0.9-2.3-1.8-3.5-2.7c0.2,0,0.3-0.1,0.5,0c4.1,2.2,8.3,4.1,12.1,6.8c6.7,4.7,14.5,6.3,22.4,8.3
	c0.2-2.5,0.3-4.8,0.5-7.2c0.2-2.5,0.4-4.9,0.7-7.4c0.3-2,0.8-3.9,1.2-5.9c1.4-6.7,3-13.4,5.5-19.8c0.1-0.4,0.1-0.8,0.2-1.5
	C305.4,257.9,302.8,259.9,300.2,261.8C300.2,261.8,300.2,261.8,300.2,261.8z M175.5,514.2c0.2,0,0.3,0.1,0.5,0.1
	c0.2-1.6,0.5-3.2,0.7-4.8c0.4-5.2,1.6-10.2,3.6-15.1c1.7-4.2,4.5-7.6,8.4-9.8c3.5-2,7.3-3.7,10.9-5.4c2-0.9,4.1-1.6,6.2-2.6
	c12-5.3,24-10.8,36.1-16c15.1-6.6,28.9-15.2,41.3-26c4.2-3.7,8.6-7.1,13-10.6c4.5-3.5,9.1-6.7,13.5-10.3
	c6.2-5.1,12.3-10.4,18.4-15.7c1.8-1.6,3.5-3.5,5.1-5.4c1.4-1.6,1.7-3.4,0.7-5.3c-0.5-1-0.9-2.1-1.5-3c-3.2-5.2-6.2-10.4-8.6-16
	c-0.5-1.1-1.5-2.1-2.4-2.8c-1-0.8-2.3-1.4-3.5-2c-5.1-2.6-10.6-3.7-16.2-4.6c-9-1.5-17.9-3.3-26.8-4.9c-4-2-7.4-0.8-10.9,1.5
	c-6.5,4.2-13.6,7-21,9.1c-4.6,1.3-9.1,2.8-13.8,4c-3.5,0.9-7,1.5-10.5,2.1c-1.7,0.3-3.5,0.4-4.7-1.1c-2.1,7.6-4.2,15.2-6.4,22.8
	c-3.7,13-7.9,25.9-11.3,39.1c-5.1,19.7-11.1,39.1-20.9,57.1c-2.2,4-2.6,8.2-2,12.5C174,505.6,174.8,509.9,175.5,514.2z M317,215.2
	c0.1,0,0.3,0,0.4,0c0.1,2.8,0.3,5.6,0.4,8.5c0,2.6,0.2,5.4-0.4,7.9c-1,4.2-0.7,8.3-0.5,12.5c0.6,12.7,1.5,25.3,3.2,37.9
	c0.3,2.3,0.1,4.6-0.1,6.9c-0.3,5.4-0.9,10.8-1.1,16.2c-0.4,9.2-0.6,18.5-0.8,27.7c-0.1,5.6-0.7,11.1,0.9,16.6
	c0.9,3.1,1.3,6.2,1.9,9.4c0.5,2.7,0.6,5.6,2.8,7.7c0.3,0.3,0.4,0.9,0.6,1.3c1.3,2.6,2.5,5.2,3.8,7.7c0.3,0.6,0.8,1.1,1.2,1.7
	c0.5-0.9,0.7-1.6,0.7-2.4c0.3-6.3,0.5-12.6,1-18.9c0.7-7.9,1.6-15.7,2.7-23.5c1.7-11.9,4.5-23.7,4.8-35.8c0.1-3.1,0.1-6.1-0.9-9
	c-3-8.8-3.5-17.8-3.6-26.9c0-7.5,0.1-15,0.2-22.5c0.1-10.2,0.2-20.4,1.1-30.6c0.5-5.3,0.7-10.7,0.8-16c0.1-5.6-1.1-10.9-3.8-15.9
	c-0.9-1.7-2.1-3.2-3.7-4.3c-4.7-3-10-3.5-15.1-4.3c-0.4,3.5-0.5,6.7-1,9.9c-1.2,7.8-2.8,15.5-3.8,23.4c-0.6,5.1-0.5,10.3-0.8,15.5
	c-0.1,1.2,0.3,2,2,1.7c0-1.6,0-3.1,0-4.7c-0.2-4.6,0-9.3,0.8-13.8c1.2-6.7,2.5-13.5,3.7-20.2c0.6-3.1,0.9-6.3,1.4-9.4
	c0.2,1.4,0.2,2.7,0,4.1c-0.8,5-1.7,9.9-2.5,14.9c-0.9,5.7-2,11.3-2.6,17c-0.4,3.6,0,7.3-0.2,11c0,1.4,0.4,2.1,1.6,2.9
	c1.2,0.8,2.2,2,3.3,3.1c0.5,0.5,0.8,1.1,1.2,1.6c0.1,0,0.3-0.1,0.4-0.1C317,221,317,218.1,317,215.2z M229.9,265
	c1.4,9.2,2.7,18.4,2.8,28c3.3-1,6.5-1.8,9.4-3c6.7-2.8,13.3-5.8,19.9-8.9c4.5-2.1,8.8-4.5,13.3-6.6c9.6-4.5,18.7-9.8,27.4-15.6
	c1.8-1.2,3.5-2.5,5.1-3.9c0.9-0.8,1.7-1.9,2.2-3.1c2-5.5,4-11.1,5.8-16.7c0.8-2.6,1-5.3,1.4-8c0.1-0.7,0-1.5-0.3-2.1
	c-2.8-4.4-6.6-7.1-12.1-7.3c-9-0.2-17.1,2.3-24.8,6.8c-3.8,2.2-7,5.1-9.6,8.6c-2.4,3.2-5.1,6.1-8.2,8.6
	C251.8,250.3,241.5,258.5,229.9,265z M265.6,237.8c0.5-0.6,0.9-1.1,1.3-1.6c-4.3-5.8-9.7-9.9-16.1-12.8c-6.6-3-13.3-5.4-20.7-4.7
	c-2.9,0.3-6,0.4-8.7,1.3c-4,1.2-6.9,4.1-9.2,7.5c0.6,2.2,1.2,4.4,1.8,6.5c1.4,5.1,3.4,9.8,6.9,13.8c3.7,4.2,6.4,9,7.9,14.3
	c0.2,0.6,0.5,1.1,0.7,1.6c2.7-0.7,6.2-2.7,7.9-4.6c-1.7-1.3-3.8-1.6-6.3-2c3.1-0.6,5.2,0.6,7.5,1.6c1.6-1.1,3.1-2.3,4.9-3.6
	c-4-3.2-8.4-3.6-12.8-3.4c5-1.3,9.5-0.1,13.6,2.9c2-1.5,3.9-2.9,6-4.4c-2.5-2.1-5.2-2.9-8-3.4c-2.9-0.5-5.8-0.9-8.8-1
	c-2.7-0.1-5.5,0.1-8.3,0.2c9-1.6,17.7-1.1,26,3.5c1-0.8,2.1-1.7,3.4-2.7c-8.3-7.8-18.1-9.1-28.5-7.9c10.8-2,20.7-0.4,29.1,7.5
	c1.7-1.5,3.4-2.9,5.2-4.3c-5.3-6.4-12.2-9.6-19.9-10.9c-7.7-1.3-15.2-0.6-22.6,2c3.8-2.4,9.7-3.5,17.7-3.2
	c10,0.4,18.8,3.8,25.5,11.6c0.8-0.6,1.5-1.1,2.1-1.6c0.6-0.5,1.1-1.1,1.9-1.8c-1.3-1.2-2.3-2.3-3.5-3.2c-9.4-7.2-20-10.7-31.9-10.3
	c-3.5,0.1-6.8,0.7-10,2.1c-0.3,0.2-0.7,0.2-1.1,0.3c1.4-1,2.9-1.8,4.5-2.2c7.3-1.8,14.6-1.3,21.8,0.7
	C252.8,227.8,259.9,231.5,265.6,237.8z M315.5,240.8c-0.2,0-0.3,0-0.5,0c-1,2.8-2,5.7-3,8.5c-1.9,5.4-4.1,10.8-5.6,16.3
	c-2.7,9.4-5.1,19-5.3,28.8c-0.1,7.7,1,15.3,4.6,22.2c1.8,3.4,3.6,6.7,5.3,10.2c1.7,3.4,3.3,6.9,4.9,10.4c0.2,0.4,0.4,0.8,0.6,1.2
	c0.2-0.3,0.3-0.4,0.4-0.5c0.2-6.9,0.5-13.7,0.7-20.6c0.2-6.9,0.4-13.9,0.7-20.8c0.2-6.2,1.1-12.3,0.2-18.6
	c-1.4-10.1-1.7-20.3-2.5-30.5C315.8,245.2,315.7,243,315.5,240.8z M268.3,352.4c-1.5-0.4-2.4-0.7-3.4-1c-10.8-3-21.4-6.8-31.7-11.4
	c-3.7-1.7-7.3-3.6-10.1-6.6c-0.9-0.9-2-1.7-3.2-2.6c-1.7,5.1-3.2,9.8-3.3,15.2c1.4,0.2,2.7,0.7,4,0.6c4.2-0.3,8.4-0.6,12.5-2.1
	c0.4-0.1,0.8-0.3,1.1-0.4c0.3-0.1,0.6-0.1,0.9-0.1c-5.9,2.9-11.9,4.4-18.7,2.7c-0.2,3.4-0.5,6.7-0.7,10c1.2,0.8,2.3,0.6,3.4,0.4
	c6.5-1.4,13.1-2.8,19.6-4.2c4.3-0.9,8.7-1.7,13.1-2.6c-5.7,2.2-11.8,3.1-17.8,4.5c-6,1.4-12,3-18.2,3.2c-0.7,3.7-0.9,10-0.4,12.3
	c2.8,0.4,5.5,0,8.2-0.7c8.1-2.3,16.3-4.6,24.3-7.2c4.4-1.4,8.6-3.5,12.7-5.4C263.1,355.5,265.4,354,268.3,352.4z M349.4,544.6
	c0.5-2.1-0.1-3.7-0.7-5.2c-1.8-4.9-2.8-9.9-2.5-15.2c0.1-1-0.1-2-0.2-3.3c-6.7,4.1-12.7,8.5-17.1,14.5c-0.3,0.4-0.5,0.8-0.7,1.2
	c-1,2.1-0.5,3.4,1.8,3.9c2.3,0.5,4.7,0.8,7.1,0.9C341.3,541.6,345.5,541.9,349.4,544.6z M326.2,576.5c-0.8,1-1.3,1.5-1.8,2.2
	c-2.4,3.4-4.8,6.7-7.2,10.2c-1.1,1.6-2.1,3.4-3.1,5.1c-0.4,0.7-0.5,1.5-0.9,2.6c1.3,0.1,2.1,0.1,3,0.1c1.1,0,2.2-0.2,3.3-0.2
	c2.3,0,3.2,0.9,3.2,3.2c0,0.9-0.2,1.9-0.3,3C324.7,599.5,326.6,585.9,326.2,576.5z M220.2,219.4c-0.9-3-1.7-6-2.7-9
	c-2.9-9.1-5.2-18.2-4.6-27.9c0-0.8-0.2-1.5-0.3-2.6c-0.8,0.4-1.4,0.7-1.7,0.9c0.4,13.7,3.4,26.7,7.1,39.8
	C218.9,220.1,219.4,219.8,220.2,219.4z M228.4,100.9c0.9-0.1,1.6,0,2.2-0.2c1.2-0.3,2.3-0.5,3.4,0.2c0.4,0.2,1.1,0.2,1.5,0
	c3-1.2,5.3-5,5.1-8.3c-0.6,0.7-1,1.8-1.8,2.1c-0.8,0.3-1.9-0.2-2.7-0.3C233.6,96.5,231.2,98.5,228.4,100.9z M361.5,509.9
	c0.5-2.2,0.1-4.4-0.4-6.8c-2.6,1.6-5,3.1-7.4,4.7c1,1.5,2.4,1.2,3.6,1.4C358.6,509.3,359.9,509.6,361.5,509.9z M279.2,113.9
	c1.4-9.2,0.9-17.7-1.1-20.3C278.5,100.5,277.7,107.2,279.2,113.9z M290.7,110.7c0.2,0,0.4,0.1,0.5,0.1c0.6-1.3,1.5-2.6,1.7-4
	c0.2-1.5-0.9-2.8-2.2-4.3C290.7,105.6,290.7,108.2,290.7,110.7z M246.5,97.4c-1.3,0.1-2.5,0.3-3.9,0.4c-0.2,0.6-0.3,1.2-0.5,2
	c1.6,0.5,3.5-0.2,4.4,1.7C246.5,100.2,246.5,98.8,246.5,97.4z M223.1,91.6c1,1,1,1,2,0.7c2-0.7,3.3-2.1,3.5-3.6
	C226.8,89.6,225,90.5,223.1,91.6z M376.8,480.8c-1.2,0.7-2.1,1.4-1.8,2.7c0.2,1.2,1.3,1.6,2.7,2
	C377.3,483.8,377.1,482.4,376.8,480.8z M224.4,102.9c-3.1,0.2-5.9,0.3-9.1,0.4C218.6,104.4,221.3,104.1,224.4,102.9z M250.3,104.9
	c2.3-1.1,3.6-2.9,3.9-5.6C252.8,101.3,251.5,103.1,250.3,104.9z M234.1,94.1c-0.1-0.1-0.2-0.3-0.3-0.4c-0.9,0.6-1.8,1.2-3,2.1
	C233,96.3,233.3,94.9,234.1,94.1z M219.7,125.8c0.1,0.1,0.3,0.2,0.4,0.3c0.8-0.9,1.7-1.8,2.5-2.6C221.5,124,220.1,124.3,219.7,125.8
	z M262.6,85.3c-0.1-0.1-0.2-0.2-0.4-0.3c-0.5,0.5-0.9,1-1.4,1.5c0.1,0.1,0.3,0.2,0.4,0.3C261.7,86.3,262.1,85.8,262.6,85.3z"/>
<path class="st0" d="M482.7,708.7c1.3,0,1.4,1.1,1.4,2c0.1,1.7,0,3.4,0,5.1c-0.5,0.9-0.9,1.8-1.4,2.6c-0.7,1.1-1.5,2.1-2.2,3.2
	c-0.7,0.7-1.4,1.4-2.1,2.1c-2.3,1.4-4.5,2.8-6.8,4.1c0,0,0.1-0.1,0.1-0.1c-1.8,0.4-3.6,0.6-4.9,2.2c-0.7,0.3-1.3,0.7-2,1
	c-1,0.5-2,0.9-2.9,1.5c-5,3.2-10.4,3.6-16.1,2.6c-0.1,0-0.3-0.2-0.6-0.4c3.5-1.3,6.5-3.1,9.3-5.4c3.1-2.6,5.4-5.6,6.2-9.7
	c0.2-1,0.6-2,0.9-2.9c0,0-0.1,0.1-0.1,0.1c0.7-0.7,1.3-1.3,2-2c0,0-0.1,0.1-0.1,0.1c1.2-0.2,2.4-0.3,3.6-0.5
	c0.1,0.1,0.2,0.1,0.2,0.2c0.1,1.1,1,1.4,1.8,1.6c1.2,0.3,2.3-0.1,3.3-0.8c0.2-0.1,0.4-0.1,0.7-0.2c0.8-0.6,1.6-1.2,2.5-1.7l-0.1,0.1
	c0.7-0.5,1.4-1,2.2-1.5c0.4-0.2,0.8-0.4,1.2-0.7c1.3-0.9,2.6-1.8,3.9-2.7C482.8,708.6,482.7,708.7,482.7,708.7z"/>
<path d="M471.6,727.9c2.3-1.4,4.5-2.8,6.8-4.1c-0.1,0.3-0.1,0.7-0.3,0.8C476.1,726.1,474.1,727.4,471.6,727.9z"/>
<path d="M466.9,730c1.2-1.6,3.1-1.8,4.9-2.2C470.1,728.5,468.5,729.3,466.9,730z"/>
<path d="M480.5,721.6c0.7-1.1,1.5-2.1,2.2-3.2C482.6,719.9,481.9,721,480.5,721.6z"/>
<path class="st0" d="M345.3,418.4c0.3,0.7,0.7,1.4,1.1,2.1c1.5,2.4,2.9,4.8,4.4,7.1c2.7,4.2,5.2,8.6,8.3,12.6
	c6.2,8.1,12.8,16,19.1,24c1.9,2.4,3.6,4.9,5.3,7.4c1,1.4,0.9,1.9-0.4,3c-1,0.9-2.1,1.7-3.2,2.5c-1.9,1.4-3.9,2.7-5.8,4.1
	c-1.6-4.9-3.2-10-5.1-15c-1.8-5-4.4-9.7-7.4-14.2c0.3,0.5,0.5,1.1,0.8,1.6c3.8,7.4,7.3,14.9,9.4,23c0.5,1.9,1,3.9,1.4,5.8
	c0.3,1.7,1.1,2.9,2.6,3.7c2,1.1,2.1,2,0.5,3.7c-0.4,0.5-0.9,0.9-1.4,1.3c-4.6,3.5-9.2,7.1-13.9,10.6c-2.5,1.9-5.3,3.5-8.2,5.5
	c-0.7-1.6-1.4-2.9-1.8-4.2c-1.4-4.8-2.8-9.6-3.9-14.5c-3.3-14.5-7.2-28.8-11.6-42.9c-0.4-1.4-0.9-2.9-1.7-4.2
	c0.7,2.7,1.4,5.5,2.2,8.2c4.2,14,7.9,28.1,10.9,42.4c0.7,3.3,1.6,6.5,2.7,9.7c0.8,2.3,1.8,4.6,2.9,6.8c0.3,0.6,1.1,1.2,1.8,1.4
	c1.2,0.4,2.5,0.4,3.8,0.6c0.7,0.1,1.5,0.3,2.3,0.4c-0.2,1.6-1.4,1.9-2.2,2.2c-6.9,2.9-12.9,7.2-19,11.5c-4.7,3.3-8.9,7.3-12.2,12.7
	c-0.2-1.7-0.6-3-0.6-4.2c0.1-6.7,0.1-13.4,0.6-20.1c0.6-8.6,1.1-17.2,0.9-25.8c-0.2-10.1-0.6-20.3-1.1-30.4
	c-0.3-5.6-0.8-11.2-2.3-16.7c0,0.8,0.1,1.6,0.1,2.4c0.6,6.8,1.4,13.6,1.8,20.5c0.8,13.9,1.1,27.9,0.4,41.9
	c-0.3,5.3-0.7,10.5-1.1,15.8c-0.4,5.9-0.4,11.8,0.7,17.7c0.3,1.8,1.1,2.9,2.9,3.3c2.1,0.4,4.2,0.9,6.3,1.1c2.3,0.3,4.6,0.2,6.9,0.5
	c1.8,0.3,3.6,0.9,5.2,1.7c1.7,0.8,1.8,1.8,0.8,3.3c-1,1.4-2.1,2.8-3.3,4.1c-11.5,11.6-20.6,24.9-29.8,38.3c-0.9,1.4-1.8,2.9-2.4,4.4
	c-0.8,1.8-0.2,2.8,1.8,3c1.4,0.1,2.9-0.1,4.3-0.2c2.7-0.1,3.5,0.7,3,3.4c-1,5.1-3,9.9-5.7,14.4c-1.8,2.9-3.8,5.7-6,8.4
	c-6.5,7.9-13.2,15.6-19.8,23.4c-5.1,6-11.2,10.6-18.6,13.5c-12.5,4.9-24.5,10.9-36.3,17.3c-9.2,5-19.1,8.5-29,11.8
	c-7.2,2.5-14.3,5.4-21.9,7c-5.8,1.2-11.6,2.1-17.4,3.2c-4.4,0.8-8.7,1.8-13.1,2.8c-1.8,0.4-3.5,0.8-5.7,1.2
	c0.8-4.5,1.4-8.5,2.3-12.6c4.3-19.1,8.7-38.1,12.9-57.2c5.1-22.7,9.9-45.5,15-68.2c3.8-16.8,7.8-33.5,11.7-50.3
	c1.7-7.6,3.3-15.3,4.8-22.9c0.5-2.6,0.7-5.3,0.8-8.1c-0.1,0.3-0.3,0.5-0.3,0.8c-1.5,13.4-5.2,26.3-8.2,39.3
	c-4.3,18.7-8.4,37.3-12.6,56c-5.9,26.2-11.9,52.4-17.8,78.6c-2.7,12.1-5.2,24.2-7.7,36.3c-0.5,2.3-0.8,4.7-1.1,7.1
	c-0.3,2.3,0.2,2.7,2.5,2.5c0.7-0.1,1.4-0.2,2.1-0.3c1.4,3.5,0.1,7.9-2.9,10.1c-3.4,2.5-7.1,4.2-11.1,5.5c-7.6,2.4-15.4,4.3-23.3,5.1
	c-1.6,0.2-3.2,0.3-4.8,0.2c-2.8-0.1-3.5-0.8-3-3.5c0.8-3.7,1.7-7.3,2.9-10.9c4.6-14.2,9.3-28.4,14-42.5c5-14.9,8.5-30.3,12.3-45.5
	c6.5-25.6,15.2-50.4,25.7-74.6c3.8-8.9,7.1-18,10.9-26.8c2.8-6.5,6.3-12.7,9.4-19.1c1.3-2.6,2.6-5.3,3.1-8.7c-1.4,3.2-2.6,6-3.9,8.6
	c-1.3,2.7-2.8,5.3-4.6,7.7c0-0.3-0.1-0.6-0.1-0.9c0.8-5.4,1.9-10.7,4-15.7c1.7-4,4.5-7,8.2-9.1c2.5-1.4,5.1-2.7,7.7-3.9
	c10.7-4.7,21.5-9.4,32.2-14.1c6.4-2.8,12.9-5.6,19.2-8.6c11.8-5.5,22.7-12.4,32.5-20.9c8.6-7.4,17.7-14.2,26.7-21
	c8.6-6.5,16.7-13.6,24.5-21c0.2-0.2,0.5-0.4,0.9-0.7c0.4,0.7,0.7,1.3,1,2c2.3,5.4,5,10.5,8.8,15c1.9,2.2,1.8,2.6,0.4,5.1
	c-1.5,2.7-3.7,4.8-6.1,6.7c-5.6,4.2-11.2,8.5-17,12.4c-9.8,6.6-20.4,11.5-31.1,16.4c-5.4,2.5-10.8,4.8-16.1,7.3
	c-0.5,0.2-0.9,0.7-1.4,1c-0.9-0.3-1.4,0-1.8,0.8c0.6-0.3,1.2-0.6,1.8-0.9c1.9-0.7,3.9-1.4,5.8-2.2c8.4-3.8,16.9-7.4,25.3-11.4
	c12.4-5.9,23.8-13.2,34.5-21.8c2.6-2.1,5.1-4.3,7-7.3C344.6,418.2,345,418.3,345.3,418.4C345.4,418.5,345.3,418.4,345.3,418.4z
	 M309.3,590.4c0.1,0,0.3,0,0.4,0c0-1,0-2.1,0-3.1c-0.1-2.6-0.4-5.1-0.3-7.6c0.4-9.2,1-18.5,1.6-27.7c0.2-4,0.6-8,1-11.9
	c0.8-7.7,1.8-15.4,2.6-23.1c1-10.2,1.9-20.3,2.5-30.5c0.9-13.4,1.7-26.8,0.8-40.2c-0.1-1.3-0.3-2.5-0.4-3.8c-0.2,1-0.2,1.9-0.2,2.9
	c0.1,5.1,0.4,10.2,0.2,15.3c-0.3,9.9-0.9,19.8-1.5,29.6c-0.4,6.8-1,13.5-1.7,20.3c-0.8,8.4-1.8,16.8-2.6,25.2
	c-0.6,6.1-1.1,12.2-1.6,18.3c-0.9,9.9-1.5,19.9-1.2,29.9C309,586.2,309.2,588.3,309.3,590.4z M304.8,448.5
	c-0.7,10.1-3.8,19.8-3.9,30C302,468.4,305,458.6,304.8,448.5z M352,455.6c0.1-0.1,0.3-0.1,0.4-0.2c-2.8-5.6-5.5-11.3-8.3-16.9
	c-0.1,0.1-0.3,0.1-0.4,0.2C346.5,444.3,348.9,450.1,352,455.6z"/>
<path class="st0" d="M473.1,715.2c-0.2,0.1-0.4,0.1-0.7,0.2c-1.7-0.1-3.6,0.8-5.1-0.7c-0.1-0.1-0.2-0.1-0.2-0.2
	c-1.3-0.8-2.6-0.9-3.6,0.5l0.1-0.1c-1.1,0.3-1.8,0.9-2,2c0,0,0.1-0.1,0.1-0.1c-0.5,0.8-1.3,1.5-1.4,2.4c-1.2,8.5-13.3,16-21.1,15.9
	c-4.8-0.1-9.5-0.9-14.2-1.7c-1.3-0.2-2.5-0.5-3.7-0.8c-2-0.5-3.6-1.5-4.9-3.2c-1.9-2.6-5.2-3.3-8.1-1.9c-1.1,0.5-2,1.3-3,1.9
	c-2.2,1.2-4.5,2.3-6.8,3.5c-1.5,0.8-3,1.6-4.3,2.6c-2.3,1.7-4.5,3.5-6.6,5.5c-5.4,5.2-12.1,7.6-19.3,8.9c-7.1,1.3-14.3,1.7-21.4,2
	c-3.5,0.1-7,0.3-10.5,0.3c-1.2,0-2.4,0-3.5-0.9c0.2-0.6,0.3-1.1,0.5-1.6c0.8-2.4,0.6-3.4-1.5-4.9c-3.9-2.9-8.3-4.7-13-5.8
	c-4.9-1.2-9.8-1-14.7-0.5c-3.6,0.4-7.1,0.7-10.7,0.9c-2.8,0.2-3.6,1.7-2.2,4.1c1.6,2.6,3.7,4.8,6.7,5.9c1.9,0.7,3.9,1.4,5.8,2.2
	c0.9,0.4,1.7,1,2.5,1.6c-0.9,1.7-2.2,1.8-3.4,1.8c-3.2,0-6.2-0.7-8.5-3.1c-1.7-1.8-3.8-2.6-6.2-2.5c-1.3,0-2.6-0.1-3.8-0.1
	c-3.6-0.1-7.1-0.5-10.5-1.8c-3.6-1.4-7.4-2.2-11.2-2.1c-2.1,0.1-4.3,0.3-6.4,0.9c-3.9,1.2-7.7,1.1-11.5-0.1c-3.4-1.1-6.6-2.2-9.7-4
	c-2.6-1.4-5.3-2.5-8.1-3.6c-3.2-1.3-6.3-0.6-9.2,1c-0.6,0.3-1.2,0.7-1.9,1.1c0.6-6,1.2-11.8,1.8-17.6c-0.1,0-0.3,0-0.4,0
	c-0.9,6.9-1.8,13.8-2.8,20.9c0.2,0.1,0.8,0.2,1.2,0.5c2,1.8,4.4,2.9,6.8,4c1.4,0.6,2.8,1.5,4.1,2.5c1.4,1.1,1.3,2,0,3.2
	c-2.4,2.2-5.3,3.2-8.5,3.4c-4.7,0.3-9.4-0.4-13.9-1.9c-2.5-0.8-4.8-2.2-6.7-4.1c-2.1-2-4.5-3.3-7.5-3.3c-2.1,0-3.8-0.9-5.3-2.4
	c-1.4-1.3-2.9-2.5-4.4-3.7c-1.9-1.5-4.1-2.2-6.4-2.3c-3.6-0.1-7.2-0.2-10.8-0.2c-1.2,0-2.5,0.3-4,0.5c2.7-4.4,5.3-8.5,6.9-13.2
	c-0.7,1.3-1.5,2.6-2.2,3.9c-1.7,2.9-3.4,5.8-5.2,8.6c-1.2,2-1.2,3,0.7,4.5c2.1,1.6,4.3,3,6.5,4.5c0.6,0.4,1.3,0.9,2.4,1.6
	c-1.2,0.5-1.9,1-2.7,1.1c-3.7,0.5-7.5,0.5-11.1-0.8c-2.4-0.9-4.9-1.2-7.5-0.8c-6.9,1.2-13.9,2.2-20.8,3.2c-4.6,0.7-9.1,0.4-13.4-1.2
	c-1-0.4-2.1-0.9-2.9-1.6c-1.8-1.4-2.2-3-1.2-5.1c1.9-4.2,4-8.3,5.9-12.5c0.8-1.9,1.4-3.9,2.2-5.9c2.9-0.6,5.9-1,8.8-1.7
	c7.4-1.9,14.9-3.6,21.7-7.1c1.7-0.9,3.3-2,4.6-3.4c2-2,2.4-4.8,2.3-7.6c0-0.9-0.1-1.7-0.2-2.8c3.4-1.1,6.9-2.1,10.5-2.6
	c9.4-1.3,18.8-2.6,27.8-5.7c16.1-5.5,32.3-10.5,47.3-18.7c10.1-5.5,20.4-10.5,31.1-14.7c8.6-3.3,15.9-8.4,21.7-15.6
	c6.6-8,13.4-15.9,19.9-23.9c3.7-4.5,6.5-9.7,8.7-15.1c0.5-1.2,1.1-2.3,1.8-3.3c2-2.6,2.6-5.6,3-8.7c0.8-6.3,1.7-12.7,1.5-19.1
	c0-1,0.3-1.8,0.9-2.6c5.7-7.7,11.5-15.3,18.5-21.9c2.3-2.2,3.7-4.8,4-7.9c0.1-1,0-2.1-0.2-3.1c-0.3-1.6-0.8-3.1-1.3-4.6
	c-1.2-3.3-1.7-6.8-1.8-10.3c0-1.4-0.1-2.7-0.3-4.1c-0.2-1.3,0.2-2.1,1.3-2.7c3.4-1.8,6.7-3.7,10.1-5.4c3.7-1.8,4.8-3.5,4.1-7.6
	c-0.1-0.4-0.2-0.8-0.3-1.2c-0.1-1.7,0-3.1,1.6-4.4c3.5-2.8,6.7-5.9,10.7-8.1c0.6-0.3,1-0.8,1.5-1.2c2.2-1.8,3.6-3.8,2.5-6.8
	c-0.5-1.5-0.7-3.1-1.1-4.7c0.7-0.5,1.3-0.9,2.1-1.4c1.9,3.4,3.7,6.6,5.4,10c2,4,3.9,8.1,5.6,12.1c3.6,8.3,7.4,16.6,10.6,25.1
	c5.6,14.6,12.3,28.7,19.2,42.8c6.9,14,14,27.8,21.3,41.5c8,15.1,15.2,30.6,22.4,46.1c6.5,14.1,12.3,28.5,17.2,43.3
	c0.8,2.4,1.4,4.9,1.9,7.4c0.1,0.5-0.2,1.2-0.3,1.7c0,0,0.1-0.1,0.1-0.1c-1.6,0.5-3.1,1-3.9,2.7c-0.4,0.2-0.8,0.4-1.2,0.7
	c-0.7,0.5-1.4,1-2.2,1.5c0,0,0.1-0.1,0.1-0.1C474.5,713.7,473.5,714,473.1,715.2z M423.9,603.7c0.3,0.8,0.6,1.7,0.9,2.5
	c0.2,0.8,0.3,1.5,0.6,2.3c1.6,4.1,3.1,8.2,4.7,12.2c6.6,16.5,13.3,33.1,19.9,49.6c0.3,0.7,0.8,1.3,1.2,1.9c0.1,1.3,0.3,2.5,1.5,3.3
	c-0.1,1.3,0.3,2.5,1.4,3.3c-0.3,1.2,0.5,2,1.2,2.8c-0.4-0.9-0.9-1.8-1.3-2.7c-0.5-1.1-1-2.2-1.4-3.3c-0.5-1.1-1-2.2-1.5-3.3
	c-0.2-0.8-0.4-1.5-0.7-2.3c-1.5-3.8-3.2-7.5-4.6-11.3c-6.6-16.6-13.1-33.2-19.7-49.8c-0.4-0.9-0.9-1.8-1.4-2.7
	C424.4,605.4,424.1,604.6,423.9,603.7c-0.4-0.8-0.7-1.6-1-2.4c-0.3-0.8-0.6-1.6-1-2.4c-0.3-0.8-0.6-1.6-0.9-2.4
	c-0.3-0.9-0.5-1.7-0.8-2.6c-0.3-0.5-0.6-1.1-1-1.6c-0.1,0.1-0.2,0.2-0.3,0.3c0.4,0.4,0.9,0.8,1.3,1.3c-0.5,1.1-0.1,1.9,0.8,2.5
	c-0.2,1,0.1,1.8,0.9,2.4c-0.2,1,0.1,1.8,1,2.4C422.8,602.3,423,603.1,423.9,603.7z M417.7,588.4c0.2,0.7,0.3,1.3,0.5,2
	c0.2-0.1,0.3-0.1,0.5-0.2C418.3,589.5,417.9,589,417.7,588.4c-0.4-0.9-0.7-1.9-1.1-2.9c-0.2,0.1-0.3,0.2-0.5,0.2
	C416.6,586.6,417.1,587.5,417.7,588.4z M406.3,663.4c-0.5,1.4,0,2.6,0.8,3.7C406.8,665.9,406.5,664.7,406.3,663.4
	c-1.6-7.6-3.1-15.2-4.6-22.9c-0.3,0.4-0.3,0.7-0.2,1c1.3,6.7,2.6,13.4,4,20.1C405.5,662.3,406,662.8,406.3,663.4z M366.2,506.7
	c-0.1-0.6-0.3-1.2-0.4-1.8c-0.1,0-0.3,0.1-0.4,0.1C365.7,505.6,366,506.1,366.2,506.7c1.2,3.4,2.5,6.9,3.4,10.4
	c2.3,8.4,4.5,16.9,6.8,25.4c0.2,0.8,0.7,1.5,1,2.2c-0.3,1.1,0,1.9,0.8,2.7c-0.3-0.9-0.6-1.8-0.8-2.7c-0.1-0.6-0.2-1.3-0.4-1.9
	c-1.6-6.1-3-12.2-4.7-18.2c-1.5-5.3-3.1-10.5-4.8-15.7C367.3,508.1,366.7,507.4,366.2,506.7z M354.1,618.7c0,1,0,2,0,3
	c0.1,0,0.1,0,0.2,0C354.2,620.8,354.1,619.7,354.1,618.7c-0.3-2.3-0.6-4.5-0.8-6.8c-1.3-12.1-2.5-24.2-3.8-36.4
	c-0.2-1.7-0.4-3.4-0.6-5.1c-0.2,1.1-0.2,2.3-0.2,3.4c0.5,5.4,0.9,10.8,1.5,16.2c1,9,2.1,18,3.2,27
	C353.5,617.6,353.9,618.2,354.1,618.7z M332.7,740c-0.7-12.3-3.5-24.4-4.7-36.7c-1.2-12.4-2.5-24.7-3.6-36.1
	C323.7,674.3,328.8,720.9,332.7,740z M291.3,738.1c0.2,0,0.4,0,0.6-0.1c0.3-11.6-0.2-23.2-0.6-34.9
	C291.3,714.9,291.3,726.5,291.3,738.1z M375.7,497c0.3,3.9,6.4,23.6,8.3,26.8C381.3,514.9,378.5,506,375.7,497z M407.9,671.1
	c-0.1,0-0.3,0.1-0.4,0.1c0.4,1.6,0.8,3.2,1.1,4.7c0.1,0,0.2,0,0.3-0.1C408.6,674.2,408.2,672.6,407.9,671.1z M291.4,700.1
	C291.4,700.1,291.4,700.1,291.4,700.1c0-0.3,0-0.7,0-1c0,0,0,0,0,0C291.4,699.4,291.4,699.7,291.4,700.1z M354.7,624.3
	c0,0-0.1,0-0.1,0.1c0,0.3,0,0.7,0,1c0,0,0.1,0,0.1,0C354.7,625,354.7,624.7,354.7,624.3z"/>
<path class="st0" d="M175.5,514.2c-0.7-4.3-1.5-8.6-2.1-13c-0.6-4.3-0.2-8.5,2-12.5c9.7-18,15.7-37.4,20.9-57.1
	c3.4-13.1,7.5-26,11.3-39.1c2.2-7.6,4.2-15.2,6.4-22.8c1.2,1.5,3,1.3,4.7,1.1c3.5-0.5,7.1-1.2,10.5-2.1c4.6-1.2,9.2-2.7,13.8-4
	c7.4-2.2,14.5-4.9,21-9.1c3.5-2.3,6.9-3.5,10.9-1.5c8.9,1.6,17.9,3.4,26.8,4.9c5.6,1,11.1,2.1,16.2,4.6c1.2,0.6,2.5,1.2,3.5,2
	c1,0.8,2,1.7,2.4,2.8c2.4,5.6,5.4,10.8,8.6,16c0.6,0.9,1,2,1.5,3c1,1.9,0.7,3.8-0.7,5.3c-1.6,1.9-3.2,3.8-5.1,5.4
	c-6.1,5.3-12.1,10.6-18.4,15.7c-4.4,3.6-9.1,6.8-13.5,10.3c-4.4,3.4-8.8,6.9-13,10.6c-12.4,10.8-26.2,19.4-41.3,26
	c-12.1,5.3-24,10.7-36.1,16c-2,0.9-4.2,1.6-6.2,2.6c-3.7,1.7-7.4,3.4-10.9,5.4c-4,2.2-6.7,5.6-8.4,9.8c-2,4.8-3.1,9.9-3.6,15.1
	c-0.1,1.6-0.4,3.2-0.7,4.8C175.8,514.3,175.6,514.2,175.5,514.2z M298.3,393.5c0.4-0.2,0.8-0.3,1-0.5c3-2.5,6-5,8.8-7.7
	c5.1-5,8.4-11.2,11.1-17.7c0-0.1,0-0.3-0.1-0.7c-0.4,0.8-0.8,1.5-1.1,2.1c-3.9,8.3-9.3,15.5-16.5,21.3c-0.9,0.7-1.7,1.4-2.5,2.2
	C298.7,392.9,298.6,393.2,298.3,393.5c-0.5,0.4-1.1,0.7-1.6,1c0.1,0.1,0.2,0.3,0.3,0.4C297.4,394.5,297.9,394,298.3,393.5z
	 M310,361.8c-2.9,4.1-6.9,6.9-10.9,9.8c-4,2.9-8.3,5.6-12.3,8.2C293.1,378.6,307.8,367.3,310,361.8z M294.4,396.4
	c0.1,0.1,0.2,0.2,0.3,0.3c0.3-0.3,0.7-0.6,1-0.9c-0.1-0.1-0.1-0.2-0.2-0.2C295.1,395.8,294.8,396.1,294.4,396.4z"/>
<path class="st0" d="M274.9,149.8c0.2,3.1,0.8,6.2,2.1,9c1.1,2.5,2.9,4.3,5.6,5.3c3.8,1.4,7.7,2.2,11.7,2.4
	c4.8,0.3,9.6,0.3,14.4,0.4c1.2,0,2.4,0,3.5,0c0.9,1.4,0.6,2.7,0.5,3.9c-0.9,5.8-1.7,11.5-2.8,17.2c-1.7,9-2.8,18.1-2.6,27.3
	c0,0.5-0.1,1.1-0.1,1.7c-16-0.1-29.5,4.9-39.2,18.1c-12.8-13.8-28.1-19.8-47-16.1c-1.9-6.4-3.7-12.8-5.5-19.2
	c-1.8-6.5-1.6-13.3-1.9-20.2c1.9-0.9,3.9-1.9,6-2.7c7.5-2.6,13.6-7.2,19.2-12.7c1.2-1.2,2.4-2.3,3.6-3.5c2.8-2.7,5.2-5.6,5.7-9.7
	c0.4-3.2,1.1-6.4,1.6-9.6c0.3-1.7,0.9-3.5,0.6-5.2c-0.3-1.6-1.6-3.1-2.4-4.6c-1.5-2.7-1.6-5.6-1.9-8.6c-0.1-1-0.3-2-0.8-3
	c-0.1,0.3-0.2,0.7-0.3,1.1c-1.3,0.1-2.7,0.5-3.7-1.2c0.5-0.2,0.9-0.4,1.4-0.5c3.7-1,6.9-3,9.4-5.9c1.3-1.5,2.6-3.2,4.7-3.7
	c0.5-0.1,1-0.5,1.6-0.9c-0.5-0.4-0.9-0.8-1.3-1.2c0.9-1.6,0.9-1.6,3.5-0.9c0.5-1.4-1-1.6-1.4-2.6c2.5-4,3.8-8.6,5.1-13.2
	c0.7-2.6,2-4.8,4.6-6.1c1.2-0.6,2-0.6,3,0.3c2.6,2.3,4.8,4.8,5.2,8.3c0.4,2.8,0.5,5.7,0.7,8.5c-2.9,1.1-5.9,1.3-8,3.7
	c2.5-0.6,4.9-1.2,7.6-1.8c0.1,1,0.2,1.7,0.2,2.4c-2.4,1-5.6-0.1-7.1,2.9c0.2-0.1,0.5-0.2,0.7-0.3c0.2-0.1,0.4-0.1,0.6-0.2
	c1,1.7,1.9,2.4,2.8,1.9c1-0.6,1.7-1.6,2.5-2.4c0.1,0.1,0.3,0.2,0.4,0.3c0.7,3.5,1.6,7,1.9,10.6c0.2,3-0.2,6-0.5,9
	c-0.4,4.2-2.2,7.8-5.4,10.6c-1.2,1.1-2.4,2.4-3.5,3.6c-1.9,1.9-4.1,3-6.9,2.7c-0.9-0.1-1.8-0.1-2.6-0.1c-1.5,0-2.2,1-1.4,2.2
	c1,1.6,2.2,3.1,3.5,4.5c1.2,1.3,2.9,1.6,4.7,1.3c2.3-0.3,4.5-1.1,6.3-2.6C273.6,149.8,274.2,149.3,274.9,149.8
	C275,149.8,274.9,149.8,274.9,149.8z M265.9,124.1c-0.7-0.9-1.3-0.8-2.1,0C264.6,124.1,265.3,124.1,265.9,124.1z M263,135.3
	c0,0.1,0,0.3,0,0.4c0.5,0,0.9-0.1,1.4-0.1c0-0.1,0-0.3,0-0.4C263.8,135.2,263.4,135.2,263,135.3z M260.2,131.9c0-0.1,0-0.2,0-0.3
	c-0.5,0-1,0.1-1.5,0.1c0,0.1,0,0.1,0,0.2C259.1,131.9,259.6,131.9,260.2,131.9z"/>
<path class="st0" d="M265.2,282.4c1.2,0.9,2.3,1.8,3.5,2.7c-2.7,2.1-27,10.7-33.8,12.2c1.3-0.1,2.6-0.1,3.8-0.4
	c2.6-0.7,5.2-1.7,7.7-2.5c4.4-1.5,8.8-2.9,13.1-4.4c3.4-1.2,6.8-2.7,10.7-4.3c1.6,0.9,3.7,2.1,5.7,3.4c5.2,3.4,10.5,6.4,16.7,7.6
	c2,0.4,3.9,0.9,5.8,1.3c1.3,0.3,1.8,0.9,1.9,2.3c0.5,4.8,1.1,9.7,3.3,14.1c1.5,3.2,2.9,6.4,4.8,9.4c6.1,9.6,8.9,20.2,10.9,31.2
	c0.5,2.9,1,5.8,1.5,8.6c-0.3,0.1-0.5,0.2-0.6,0.2c-6.8-3.5-14.2-5.1-21.8-6.1c-22.5-3.2-44.1-9.4-64.9-18.6c-5-2.2-9.3-5.4-13.7-9.1
	c1.1-1.9,2.1-3.9,3.3-5.8c3.4-5.4,5.7-11.2,7.2-17.4c0.8-3.1,1.1-6.3,1.6-9.4c0.2-1.2,0.3-2.4,0.4-3.6c0.7-0.2,1.2-0.5,1.8-0.7
	c9.3-2.1,17.9-6.2,26.4-10.3C262.4,282,263.8,281.6,265.2,282.4C265.3,282.5,265.2,282.4,265.2,282.4z M237.5,330.3
	c-2.3-2-4.9-3.2-7.8-3.9C232.3,327.7,234.9,329,237.5,330.3c0.1,0.3,0.3,0.6,0.6,0.8c6.2,3.8,12.4,7.6,19.2,10.3
	c12.7,5,26,7.6,39.7,7.8c4.7,0.1,9.4,0,14,0c0-0.2,0-0.3,0-0.5c-0.7,0-1.4,0-2.1,0c-6-0.2-12-0.2-17.9-0.5
	c-10.2-0.6-20-2.8-29.7-6.1c-7.6-2.6-14.5-6.6-21.4-10.6C239.1,330.9,238.3,330.6,237.5,330.3z M237.6,310.7
	c-0.1,0.2-0.2,0.4-0.3,0.5c3.3,1.3,6.7,2.6,10,3.8c10.3,3.4,21,5.5,31.8,6.7c6.3,0.7,12.6,0.8,18.9,0c3-0.4,4.4-0.8,5.4-1.5
	c-3.2,0.3-6.8,0.8-10.4,1c-7.9,0.5-15.8-0.6-23.6-1.9c-9.1-1.5-18.2-3.4-26.8-6.8C240.9,311.8,239.3,311.3,237.6,310.7z M235,320.1
	c0.4,0.2,0.8,0.5,1.2,0.7c7.4,3.9,15.2,7,23.2,9.5c11.2,3.4,22.8,5.4,34.4,6.6c4.9,0.5,9.8,0.7,14.8-0.2
	c-12.8,0.7-25.2-1.7-37.6-4.1C258.4,330,246.7,325.2,235,320.1z M297,303.8c-19.5,4.5-39.4,5.9-59.4,2.2c0.4,0.3,0.7,0.4,1.1,0.5
	c5.1,1.2,10.2,2.1,15.4,2.2c9.8,0.3,19.6-0.2,29.4-1.5C288.2,306.6,292.9,305.8,297,303.8z M279.1,293.5c0-0.1,0-0.3,0-0.4
	c-0.2,0-0.5,0-0.7,0c-5.7,1.5-11.4,2.9-17.1,4.4c-7,1.8-14,3-21.3,2.2c-0.7-0.1-1.4-0.1-2.1,0c-0.4,0-0.8,0.2-1.1,0.3
	c4.9,0.4,9.8,1,14.6,0.1c5.2-1,10.4-2.2,15.6-3.4C271,295.8,275,294.6,279.1,293.5z"/>
<path class="st0" d="M317,215.2c0,2.9,0,5.8,0,8.7c-0.1,0-0.3,0.1-0.4,0.1c-0.4-0.6-0.7-1.2-1.2-1.6c-1-1.1-2-2.3-3.3-3.1
	c-1.2-0.7-1.6-1.5-1.6-2.9c0.1-3.7-0.2-7.4,0.2-11c0.6-5.7,1.7-11.3,2.6-17c0.8-5,1.7-9.9,2.5-14.9c0.2-1.3,0.2-2.7,0-4.1
	c-0.5,3.1-0.8,6.3-1.4,9.4c-1.2,6.7-2.5,13.5-3.7,20.2c-0.8,4.6-1,9.2-0.8,13.8c0.1,1.6,0,3.2,0,4.7c-1.7,0.3-2.1-0.4-2-1.7
	c0.2-5.2,0.1-10.4,0.8-15.5c1-7.8,2.6-15.6,3.8-23.4c0.5-3.2,0.7-6.5,1-9.9c5.2,0.8,10.5,1.3,15.1,4.3c1.7,1.1,2.8,2.6,3.7,4.3
	c2.7,5,3.9,10.3,3.8,15.9c-0.1,5.3-0.4,10.7-0.8,16c-0.9,10.2-1,20.4-1.1,30.6c-0.1,7.5-0.2,15-0.2,22.5c0,9.1,0.6,18.2,3.6,26.9
	c1,2.9,1,5.9,0.9,9c-0.3,12.1-3,23.9-4.8,35.8c-1.1,7.8-2,15.7-2.7,23.5c-0.6,6.3-0.7,12.6-1,18.9c0,0.8-0.2,1.5-0.7,2.4
	c-0.4-0.6-0.9-1.1-1.2-1.7c-1.3-2.6-2.6-5.1-3.8-7.7c-0.2-0.4-0.2-1-0.6-1.3c-2.2-2.1-2.3-5-2.8-7.7c-0.6-3.1-1-6.3-1.9-9.4
	c-1.6-5.5-1-11.1-0.9-16.6c0.2-9.3,0.4-18.5,0.8-27.7c0.2-5.4,0.8-10.8,1.1-16.2c0.1-2.3,0.4-4.6,0.1-6.9
	c-1.7-12.6-2.6-25.2-3.2-37.9c-0.2-4.2-0.5-8.3,0.5-12.5c0.6-2.5,0.4-5.2,0.4-7.9c0-2.8-0.2-5.6-0.4-8.5
	C317.3,215.2,317.1,215.2,317,215.2z"/>
<path class="st0" d="M229.9,265c11.7-6.6,22-14.8,32.2-23c3.1-2.5,5.8-5.4,8.2-8.6c2.6-3.5,5.8-6.4,9.6-8.6c7.7-4.5,15.8-7,24.8-6.8
	c5.5,0.1,9.3,2.9,12.1,7.3c0.4,0.5,0.4,1.4,0.3,2.1c-0.4,2.7-0.6,5.4-1.4,8c-1.7,5.6-3.7,11.2-5.8,16.7c-0.4,1.1-1.3,2.2-2.2,3.1
	c-1.6,1.4-3.3,2.8-5.1,3.9c-8.8,5.9-17.9,11.1-27.4,15.6c-4.5,2.1-8.8,4.5-13.3,6.6c-6.6,3.1-13.2,6.1-19.9,8.9
	c-2.9,1.2-6,1.9-9.4,3C232.6,283.4,231.3,274.2,229.9,265z M238.9,270.9c1-0.5,2.2-1,3.1-1.7c11.8-8.1,23.1-16.7,34.1-25.9
	c6.1-5,11.9-10.4,18.7-14.5c0.1-0.1,0.2-0.2,0.3-0.4c-1.9,0.7-3.7,1.7-5.2,2.9c-4.2,3.3-8.4,6.6-12.5,10.1
	c-11.9,9.9-24.2,19.3-36.9,28.1C240,270,239.5,270.5,238.9,270.9c-1.1,0.5-2.2,1-3.4,1.5c0.1,0.2,0.2,0.3,0.3,0.5
	C236.9,272.2,237.9,271.5,238.9,270.9z M304.5,247.9c-1.9,1.3-3.8,2.5-5.7,3.8c-18.1,12.1-37.6,21.5-57.5,30.2
	c-0.8,0.3-1.6,0.7-2.4,1c0.8,0.1,1.5-0.1,2.1-0.4c13.8-6,27.7-12,40.6-19.7c6.6-3.9,13-8,19.5-12.1
	C302.4,250,303.4,248.9,304.5,247.9c1.8-0.7,2.8-2.1,3.7-3.7C307,245.4,305.8,246.7,304.5,247.9z M238,277.1
	c0.9-0.3,1.8-0.5,2.7-0.9c2.8-1.3,5.6-2.6,8.5-3.9c11.4-5.2,22.1-11.3,31.9-19.1c4.1-3.3,8.4-6.4,12.5-9.6c4.5-3.5,8.9-7,13.4-10.5
	c0.6-0.5,1.1-1.1,1.7-1.6c-2.1,1.1-3.8,2.5-5.5,3.9c-7.6,5.9-15.3,11.8-23,17.6c-8,6.1-16.4,11.6-25.6,15.9
	c-5.2,2.4-10.3,5-15.5,7.5C238.7,276.5,238.4,276.9,238,277.1c-0.6,0.2-1.3,0.3-1.9,0.5c0.1,0.2,0.1,0.3,0.2,0.5
	C236.8,277.8,237.4,277.5,238,277.1z M291.1,222.1c-2.8,1.5-5.1,3.3-7.2,5.4c-3.4,3.2-6.7,6.6-10.3,9.6
	c-8.5,7.1-17.1,14.1-25.7,21.1c-5,4-10.1,7.8-15.6,11.2c1.7-0.7,3.3-1.4,4.8-2.4c3.1-2.1,6.2-4.2,9.2-6.5c4-3.2,7.9-6.5,11.8-9.7
	c4.6-3.7,9.3-7.3,13.8-11.1C278.3,233.9,284.6,228,291.1,222.1z"/>
<path class="st0" d="M216.8,324.8c-0.5-2.2-0.8-4.5-1.5-6.7c-2.4-7.5-3.4-15.2-3.8-23.1c-0.3-7.3-0.9-14.6-1.4-22
	c-0.5-6.8-2.2-13.4-4.5-19.7c-2.4-6.6-5.1-13.1-7.6-19.6c-1.5-3.9-2.9-7.9-4.2-11.9c-1.3-4.1-2.8-8.2-3.8-12.3
	c-2.5-10.8,2.3-20.3,12.3-25.1c2.5-1.2,5.1-2.2,8-3.4c0.2,13.9,3.5,26.9,7,40c-1.7,1.6-3.6,3.4-5.6,5.2c-0.8-1.7-1.6-3.3-2.3-5
	c-0.1,0-0.2,0.1-0.4,0.1c0.1,0.4,0.3,0.9,0.4,1.3c1.5,3.6,2.8,7.3,3.7,11.1c1.2,5.6,3.6,10.7,7.5,15c4.7,5.1,7.2,11.3,8.4,18
	c1.5,8.1,2.7,16.2,2.6,24.5c-0.1,11.8-3.1,22.8-9.3,32.9c-1.2,1.9-2.2,3.9-3.5,6.2C218.1,328.3,217.4,326.5,216.8,324.8
	C216.7,324.7,216.8,324.8,216.8,324.8z"/>
<path class="st0" d="M265.6,237.8c-5.8-6.3-12.9-9.9-20.7-12.1c-7.2-2-14.5-2.5-21.8-0.7c-1.6,0.4-3.1,1.2-4.5,2.2
	c0.4-0.1,0.8-0.1,1.1-0.3c3.2-1.5,6.5-2,10-2.1c11.9-0.3,22.5,3.2,31.9,10.3c1.2,0.9,2.2,2,3.5,3.2c-0.8,0.7-1.3,1.3-1.9,1.8
	c-0.6,0.5-1.3,1-2.1,1.6c-6.7-7.7-15.5-11.2-25.5-11.6c-7.9-0.3-13.8,0.8-17.7,3.2c7.4-2.6,14.9-3.3,22.6-2
	c7.8,1.4,14.6,4.5,19.9,10.9c-1.7,1.5-3.4,2.9-5.2,4.3c-8.4-7.9-18.3-9.4-29.1-7.5c10.4-1.2,20.2,0.1,28.5,7.9
	c-1.3,1-2.4,1.9-3.4,2.7c-8.3-4.7-17-5.1-26-3.5c2.8-0.1,5.5-0.3,8.3-0.2c2.9,0.1,5.9,0.5,8.8,1c2.8,0.5,5.5,1.3,8,3.4
	c-2.1,1.5-4,2.9-6,4.4c-4.1-3-8.6-4.1-13.6-2.9c4.5-0.2,8.8,0.2,12.8,3.4c-1.8,1.3-3.3,2.4-4.9,3.6c-2.3-1.1-4.5-2.2-7.5-1.6
	c2.6,0.4,4.6,0.7,6.3,2c-1.7,1.9-5.2,3.9-7.9,4.6c-0.2-0.5-0.5-1-0.7-1.6c-1.6-5.4-4.3-10.1-7.9-14.3c-3.5-4-5.5-8.8-6.9-13.8
	c-0.6-2.2-1.2-4.3-1.8-6.5c2.2-3.5,5.2-6.3,9.2-7.5c2.8-0.9,5.8-1,8.7-1.3c7.4-0.7,14.1,1.7,20.7,4.7c6.4,2.9,11.7,7,16.1,12.8
	C266.5,236.7,266.1,237.2,265.6,237.8z"/>
<path class="st0" d="M315.5,240.8c0.2,2.2,0.3,4.4,0.5,6.6c0.8,10.2,1.1,20.4,2.5,30.5c0.9,6.3,0,12.4-0.2,18.6
	c-0.3,6.9-0.5,13.9-0.7,20.8c-0.2,6.9-0.5,13.7-0.7,20.6c0,0.1-0.1,0.2-0.4,0.5c-0.2-0.5-0.4-0.9-0.6-1.2c-1.6-3.5-3.2-6.9-4.9-10.4
	c-1.7-3.4-3.6-6.8-5.3-10.2c-3.7-7-4.8-14.5-4.6-22.2c0.2-9.9,2.6-19.4,5.3-28.8c1.6-5.5,3.7-10.8,5.6-16.3c1-2.8,2-5.7,3-8.5
	C315.2,240.8,315.3,240.8,315.5,240.8z"/>
<path class="st0" d="M268.3,352.4c-2.9,1.6-5.2,3.2-7.7,4.3c-4.2,1.9-8.4,4-12.7,5.4c-8,2.6-16.2,4.9-24.3,7.2
	c-2.7,0.8-5.4,1.2-8.2,0.7c-0.5-2.4-0.3-8.7,0.4-12.3c6.2-0.2,12.2-1.8,18.2-3.2c5.9-1.4,12-2.3,17.8-4.5c-4.4,0.9-8.7,1.7-13.1,2.6
	c-6.6,1.4-13.1,2.8-19.6,4.2c-1.1,0.2-2.2,0.4-3.4-0.4c0.2-3.3,0.5-6.6,0.7-10c6.7,1.7,12.8,0.3,18.7-2.7c-0.3,0-0.6,0-0.9,0.1
	c-0.4,0.1-0.8,0.2-1.1,0.4c-4,1.5-8.2,1.8-12.5,2.1c-1.3,0.1-2.6-0.4-4-0.6c0.1-5.4,1.7-10.1,3.3-15.2c1.2,1,2.3,1.7,3.2,2.6
	c2.9,3,6.4,5,10.1,6.6c10.3,4.6,20.8,8.4,31.7,11.4C265.8,351.6,266.8,351.9,268.3,352.4z M224.5,336.6c-1.7,0.2-3.5,0.4-5.7,0.6
	C221.1,337.9,222.8,337.7,224.5,336.6z"/>
<path class="st0" d="M300.2,261.8c2.6-1.9,5.2-3.9,8.1-6c-0.1,0.7,0,1.2-0.2,1.5c-2.5,6.4-4.1,13-5.5,19.8c-0.4,2-0.9,3.9-1.2,5.9
	c-0.3,2.4-0.5,4.9-0.7,7.4c-0.2,2.4-0.3,4.7-0.5,7.2c-7.9-2-15.7-3.7-22.4-8.3c-3.8-2.6-8-4.5-12.1-6.8c-0.1-0.1-0.3,0-0.5,0
	c0,0,0.1,0.1,0.1,0.1c-0.3-0.4-0.6-0.8-1.1-1.4c4.4-2.2,8.8-4.3,13.1-6.4c7-3.4,13.9-7.1,20.4-11.5
	C298.5,262.7,299.4,262.2,300.2,261.8c1,1.2,2.2,1.7,4.1,1.3C302.7,262.6,301.4,262.2,300.2,261.8z M280.5,274.4
	c3.1,3,13.1,6.1,16.8,5.3C291.6,277.9,285.7,277.2,280.5,274.4z M275.6,280.7c6.3,3.3,12.2,7.4,19.5,8.2
	C288.3,286.9,282.1,283.5,275.6,280.7z M290.2,271.4c2.9,1.5,6.1,2.1,9.4,1.8C296.4,272.6,293.3,272,290.2,271.4z M295,266.7
	c2.3,1.4,4.4,1.4,6.6,0.9C299.6,267.3,297.5,267.1,295,266.7z"/>
<path class="st0" d="M349.4,544.6c-3.9-2.7-8.1-2.9-12.3-3.1c-2.4-0.1-4.8-0.4-7.1-0.9c-2.3-0.5-2.7-1.8-1.8-3.9
	c0.2-0.4,0.4-0.9,0.7-1.2c4.5-6.1,10.4-10.4,17.1-14.5c0.1,1.3,0.2,2.3,0.2,3.3c-0.3,5.3,0.7,10.3,2.5,15.2
	C349.3,540.9,349.9,542.5,349.4,544.6z"/>
<path class="st0" d="M326.2,576.5c0.5,9.4-1.5,23-3.8,26.2c0.1-1.1,0.3-2,0.3-3c0-2.3-0.9-3.2-3.2-3.2c-1.1,0-2.2,0.2-3.3,0.2
	c-0.9,0-1.7-0.1-3-0.1c0.4-1.1,0.5-1.9,0.9-2.6c1-1.7,2-3.5,3.1-5.1c2.3-3.4,4.8-6.8,7.2-10.2C324.9,578.1,325.4,577.5,326.2,576.5z
	"/>
<path class="st0" d="M220.2,219.4c-0.8,0.4-1.4,0.8-2.3,1.3c-3.6-13.1-6.6-26.1-7.1-39.8c0.3-0.2,0.9-0.5,1.7-0.9
	c0.2,1.1,0.4,1.9,0.3,2.6c-0.6,9.6,1.7,18.8,4.6,27.9C218.5,213.4,219.3,216.3,220.2,219.4z"/>
<path class="st0" d="M228.4,100.9c2.8-2.4,5.2-4.4,7.8-6.5c0.7,0.1,1.8,0.6,2.7,0.3c0.7-0.2,1.2-1.3,1.8-2.1
	c0.2,3.3-2.1,7.1-5.1,8.3c-0.5,0.2-1.2,0.3-1.5,0c-1.1-0.8-2.2-0.6-3.4-0.2C230,100.8,229.3,100.8,228.4,100.9z"/>
<path class="st0" d="M361.5,509.9c-1.7-0.3-3-0.5-4.3-0.8c-1.2-0.2-2.6,0.1-3.6-1.4c2.4-1.5,4.8-3,7.4-4.7
	C361.6,505.5,362.1,507.7,361.5,509.9z"/>
<path class="st0" d="M279.2,113.9c-1.5-6.6-0.6-13.4-1.1-20.3C280.1,96.1,280.6,104.7,279.2,113.9z"/>
<path class="st0" d="M290.7,110.7c0-2.6,0-5.2,0-8.2c1.3,1.5,2.4,2.8,2.2,4.3c-0.1,1.4-1.1,2.7-1.7,4
	C291,110.8,290.8,110.8,290.7,110.7z"/>
<path class="st0" d="M246.5,97.4c0,1.4,0,2.8,0,4.1c-0.9-2-2.8-1.3-4.4-1.7c0.2-0.7,0.4-1.4,0.5-2C244,97.7,245.3,97.6,246.5,97.4z"
	/>
<path class="st0" d="M223.1,91.6c1.9-1,3.7-2,5.4-2.9c-0.2,1.5-1.4,2.9-3.5,3.6C224.1,92.5,224.1,92.5,223.1,91.6z"/>
<path class="st0" d="M376.8,480.8c0.3,1.6,0.6,3,0.9,4.7c-1.4-0.5-2.5-0.8-2.7-2C374.7,482.2,375.5,481.5,376.8,480.8z"/>
<path class="st0" d="M224.4,102.9c-3.1,1.2-5.8,1.5-9.1,0.4C218.5,103.2,221.2,103.1,224.4,102.9z"/>
<path class="st0" d="M250.3,104.9c1.3-1.8,2.5-3.6,3.9-5.6C253.9,102,252.6,103.8,250.3,104.9z"/>
<path class="st0" d="M234.1,94.1c-0.7,0.8-1.1,2.2-3.3,1.6c1.2-0.8,2.1-1.5,3-2.1C233.9,93.8,234,93.9,234.1,94.1z"/>
<path class="st0" d="M219.7,125.8c0.3-1.4,1.7-1.7,2.9-2.3c-0.8,0.9-1.7,1.8-2.5,2.6C220,126,219.9,125.9,219.7,125.8z"/>
<path class="st0" d="M262.6,85.3c-0.5,0.5-0.9,1-1.4,1.6c-0.1-0.1-0.3-0.2-0.4-0.3c0.5-0.5,0.9-1,1.4-1.5
	C262.4,85.1,262.5,85.2,262.6,85.3z"/>
<path d="M467.4,714.6c1.5,1.6,3.4,0.7,5.1,0.7c-1,0.8-2.1,1.1-3.3,0.8C468.4,716,467.5,715.7,467.4,714.6z"/>
<path d="M478.9,711.3c0.8-1.7,2.3-2.2,3.9-2.7C481.5,709.5,480.2,710.4,478.9,711.3z"/>
<path d="M463.5,714.9c1-1.4,2.3-1.3,3.6-0.5C465.9,714.6,464.7,714.8,463.5,714.9z"/>
<path d="M461.6,716.9c0.2-1.1,0.9-1.7,2-2C462.9,715.5,462.3,716.2,461.6,716.9z"/>
<path d="M473.1,715.2c0.4-1.2,1.4-1.5,2.5-1.7C474.8,714,473.9,714.6,473.1,715.2z"/>
<path d="M475.5,713.5c0.7-0.5,1.4-1,2.2-1.5C476.9,712.5,476.2,713,475.5,713.5z"/>
<path d="M309.3,590.4c-0.1-2.1-0.4-4.3-0.4-6.4c-0.4-10,0.3-19.9,1.2-29.9c0.5-6.1,1-12.2,1.6-18.3c0.8-8.4,1.8-16.8,2.6-25.2
	c0.7-6.7,1.3-13.5,1.7-20.3c0.6-9.9,1.1-19.7,1.5-29.6c0.2-5.1-0.1-10.2-0.2-15.3c0-1,0-1.9,0.2-2.9c0.1,1.3,0.3,2.5,0.4,3.8
	c1,13.4,0.1,26.8-0.8,40.2c-0.7,10.2-1.6,20.4-2.5,30.5c-0.7,7.7-1.7,15.4-2.6,23.1c-0.4,4-0.8,7.9-1,11.9
	c-0.6,9.2-1.1,18.5-1.6,27.7c-0.1,2.5,0.2,5.1,0.3,7.6c0,1,0,2.1,0,3.1C309.6,590.4,309.4,590.4,309.3,590.4z"/>
<path d="M304.8,448.5c0.1,10.2-2.9,20-3.9,30C301.1,468.3,304.2,458.5,304.8,448.5z"/>
<path d="M352,455.6c-3.1-5.4-5.5-11.3-8.2-16.9c0.1-0.1,0.3-0.1,0.4-0.2c2.8,5.6,5.5,11.3,8.3,16.9
	C352.3,455.4,352.2,455.5,352,455.6z"/>
<path d="M271.6,460.6c-0.6,0.3-1.2,0.6-1.8,0.9C270.2,460.7,270.8,460.4,271.6,460.6C271.6,460.7,271.6,460.6,271.6,460.6z"/>
<path d="M332.7,740c-3.8-19.1-9-65.7-8.3-72.8c1.1,11.4,2.4,23.8,3.6,36.1C329.1,715.5,332,727.6,332.7,740z"/>
<path d="M424.7,606.2c0.5,0.9,1,1.7,1.4,2.7c6.6,16.6,13.1,33.2,19.7,49.8c1.5,3.8,3.1,7.5,4.6,11.3c0.3,0.7,0.5,1.5,0.7,2.3
	c0,0,0,0,0,0c-0.4-0.6-0.9-1.2-1.2-1.9c-6.7-16.5-13.3-33.1-19.9-49.6c-1.6-4.1-3.2-8.1-4.7-12.2C425.1,607.7,424.9,607,424.7,606.2
	L424.7,606.2z"/>
<path d="M354.1,618.7c-0.2-0.6-0.5-1.1-0.6-1.7c-1.1-9-2.2-18-3.2-27c-0.6-5.4-1-10.8-1.5-16.2c-0.1-1.1,0-2.2,0.2-3.4
	c0.2,1.7,0.4,3.4,0.6,5.1c1.3,12.1,2.5,24.2,3.8,36.4C353.5,614.2,353.8,616.5,354.1,618.7L354.1,618.7z"/>
<path d="M377.5,544.7c-0.4-0.7-0.8-1.5-1-2.2c-2.3-8.5-4.5-17-6.8-25.4c-1-3.5-2.3-7-3.4-10.4l-0.1,0c0.5,0.8,1.1,1.5,1.4,2.3
	c1.7,5.2,3.3,10.4,4.8,15.7c1.7,6,3.1,12.1,4.7,18.2C377.2,543.5,377.3,544.1,377.5,544.7L377.5,544.7z"/>
<path d="M291.3,738.1c0-11.6,0-23.3,0-34.9c0.4,11.6,0.9,23.2,0.6,34.9C291.7,738.1,291.5,738.1,291.3,738.1z"/>
<path d="M375.7,497c2.8,8.9,5.6,17.9,8.3,26.8C382.1,520.7,376,500.9,375.7,497z"/>
<path d="M406.3,663.4c-0.3-0.6-0.8-1.1-0.9-1.7c-1.4-6.7-2.7-13.4-4-20.1c-0.1-0.3,0-0.6,0.2-1C403.2,648.2,404.7,655.8,406.3,663.4
	L406.3,663.4z"/>
<path d="M407.9,671.1c0.3,1.6,0.7,3.2,1,4.8c-0.1,0-0.2,0-0.3,0.1c-0.4-1.6-0.8-3.2-1.1-4.7C407.6,671.1,407.8,671.1,407.9,671.1z"
	/>
<path d="M406.3,663.5c0.3,1.2,0.5,2.5,0.8,3.7C406.3,666,405.8,664.8,406.3,663.5C406.3,663.4,406.3,663.5,406.3,663.5z"/>
<path d="M452.7,675.5c-1.2-0.8-1.5-2-1.5-3.3c0,0,0,0,0,0C451.6,673.3,452.1,674.4,452.7,675.5L452.7,675.5z"/>
<path d="M417.7,588.4c-0.5-0.9-1.1-1.7-1.6-2.6c0.2-0.1,0.3-0.2,0.5-0.2C416.9,586.5,417.3,587.4,417.7,588.4L417.7,588.4z"/>
<path d="M452.6,675.5c0.5,1.1,1,2.2,1.4,3.3c0,0,0.1-0.1,0.1-0.1C453,678,452.6,676.8,452.6,675.5
	C452.7,675.5,452.6,675.5,452.6,675.5z"/>
<path d="M454.1,678.9c0.4,0.9,0.9,1.8,1.3,2.7C454.6,680.8,453.8,680,454.1,678.9C454.1,678.8,454.1,678.9,454.1,678.9z"/>
<path d="M377.5,544.7c0.3,0.9,0.6,1.8,0.8,2.7C377.5,546.6,377.2,545.7,377.5,544.7C377.5,544.7,377.5,544.7,377.5,544.7z"/>
<path d="M354.1,618.7c0.1,1,0.1,2,0.2,3c-0.1,0-0.1,0-0.2,0C354.1,620.8,354.1,619.7,354.1,618.7
	C354.1,618.7,354.1,618.7,354.1,618.7z"/>
<path d="M417.6,588.4c0.3,0.6,0.7,1.1,1,1.7c-0.2,0.1-0.3,0.1-0.5,0.2C418,589.7,417.8,589,417.6,588.4
	C417.7,588.4,417.6,588.4,417.6,588.4z"/>
<path d="M291.4,700.1c0-0.3,0-0.7,0-1c0,0,0,0,0,0C291.4,699.4,291.4,699.7,291.4,700.1C291.4,700.1,291.4,700.1,291.4,700.1z"/>
<path d="M420.3,593.9c-0.4-0.4-0.9-0.8-1.3-1.3c0.1-0.1,0.2-0.2,0.3-0.3C419.6,592.9,419.9,593.4,420.3,593.9
	C420.2,593.9,420.3,593.9,420.3,593.9z"/>
<path d="M421.1,596.5c-0.9-0.6-1.3-1.4-0.8-2.5c0,0,0,0,0,0C420.5,594.8,420.8,595.6,421.1,596.5C421,596.5,421.1,596.5,421.1,596.5
	z"/>
<path d="M422,598.9c-0.9-0.6-1.1-1.4-0.9-2.4c0,0,0,0,0,0C421.3,597.3,421.6,598.1,422,598.9L422,598.9z"/>
<path d="M366.3,506.6c-0.3-0.5-0.6-1.1-0.9-1.6c0.1,0,0.3-0.1,0.4-0.1C365.9,505.5,366.1,506.1,366.3,506.6
	C366.2,506.7,366.3,506.6,366.3,506.6z"/>
<path d="M421.9,598.9c0.3,0.8,0.6,1.6,1,2.4c0,0,0,0,0,0C422.1,600.7,421.8,599.9,421.9,598.9C422,598.9,421.9,598.9,421.9,598.9z"
	/>
<path d="M423.9,603.7c-0.9-0.6-1.1-1.4-0.9-2.4c0,0,0,0,0,0C423.2,602.1,423.5,602.9,423.9,603.7
	C423.8,603.7,423.9,603.7,423.9,603.7z"/>
<path d="M424.8,606.2c-0.3-0.8-0.6-1.7-0.9-2.5c0,0,0,0,0,0C424.1,604.6,424.4,605.4,424.8,606.2
	C424.7,606.2,424.8,606.2,424.8,606.2z"/>
<path d="M354.7,624.3c0,0.4,0,0.7,0,1.1c0,0-0.1,0-0.1,0c0-0.3,0-0.7,0-1C354.6,624.4,354.6,624.3,354.7,624.3z"/>
<path d="M310,361.8c-2.2,5.5-16.9,16.8-23.1,18c4-2.6,8.2-5.3,12.3-8.2C303,368.7,307,365.9,310,361.8z"/>
<path d="M298.4,393.5c0.2-0.3,0.3-0.7,0.6-0.9c0.8-0.8,1.7-1.5,2.5-2.2c7.2-5.8,12.6-13,16.5-21.3c0.3-0.7,0.7-1.3,1.1-2.1
	c0.1,0.4,0.1,0.5,0.1,0.7c-2.7,6.5-6,12.7-11.1,17.7c-2.8,2.7-5.8,5.1-8.8,7.7C299.1,393.2,298.7,393.3,298.4,393.5L298.4,393.5z"/>
<path d="M298.3,393.5c-0.4,0.5-0.9,1-1.3,1.4c-0.1-0.1-0.2-0.3-0.3-0.4C297.2,394.2,297.8,393.9,298.3,393.5
	C298.4,393.5,298.3,393.5,298.3,393.5z"/>
<path d="M294.4,396.4c0.4-0.3,0.7-0.6,1.1-0.9c0.1,0.1,0.1,0.2,0.2,0.2c-0.3,0.3-0.7,0.6-1,0.9C294.6,396.5,294.5,396.5,294.4,396.4
	z"/>
<path d="M265.9,124.1c-0.6,0-1.2,0-2.1,0C264.5,123.3,265.2,123.2,265.9,124.1z"/>
<path d="M263,135.3c0.4,0,0.9,0,1.3-0.1c0,0.1,0,0.3,0,0.4c-0.5,0-0.9,0.1-1.4,0.1C262.9,135.5,263,135.4,263,135.3z"/>
<path d="M260.2,131.9c-0.5,0-1,0-1.5,0c0-0.1,0-0.1,0-0.2c0.5,0,1-0.1,1.5-0.1C260.2,131.7,260.2,131.8,260.2,131.9z"/>
<path d="M237.6,310.7c1.6,0.6,3.3,1.2,4.9,1.8c8.7,3.4,17.7,5.3,26.8,6.8c7.8,1.3,15.6,2.4,23.6,1.9c3.6-0.2,7.3-0.7,10.4-1
	c-1,0.7-2.4,1.1-5.4,1.5c-6.3,0.8-12.6,0.7-18.9,0c-10.8-1.2-21.4-3.3-31.8-6.7c-3.4-1.1-6.7-2.5-10-3.8
	C237.4,311,237.5,310.8,237.6,310.7z"/>
<path d="M237.5,330.3c0.8,0.4,1.6,0.7,2.3,1.1c6.9,4,13.8,8.1,21.4,10.6c9.6,3.3,19.5,5.5,29.7,6.1c6,0.4,12,0.4,17.9,0.5
	c0.7,0,1.4,0,2.1,0c0,0.2,0,0.3,0,0.5c-4.7,0-9.4,0.1-14,0c-13.7-0.2-26.9-2.8-39.7-7.8c-6.8-2.6-13-6.5-19.2-10.3
	C237.8,330.9,237.7,330.5,237.5,330.3L237.5,330.3z"/>
<path d="M235,320.1c11.7,5.1,23.4,9.9,35.9,12.4c12.4,2.5,24.8,4.8,37.6,4.1c-4.9,0.9-9.9,0.8-14.8,0.2c-11.7-1.2-23.2-3.2-34.4-6.6
	c-8-2.5-15.7-5.6-23.2-9.5C235.8,320.6,235.4,320.3,235,320.1z"/>
<path d="M297,303.8c-4.2,2-8.8,2.8-13.6,3.4c-9.8,1.3-19.5,1.7-29.4,1.5c-5.2-0.1-10.3-1-15.4-2.2c-0.4-0.1-0.7-0.2-1.1-0.5
	C257.7,309.7,277.5,308.3,297,303.8z"/>
<path d="M279.1,293.5c-4.1,1.1-8.1,2.4-12.2,3.3c-5.2,1.3-10.4,2.4-15.6,3.4c-4.8,0.9-9.7,0.2-14.6-0.1c0.4-0.1,0.7-0.3,1.1-0.3
	c0.7-0.1,1.4-0.1,2.1,0c7.2,0.8,14.3-0.5,21.3-2.2c5.7-1.5,11.4-2.9,17.1-4.4c0.2-0.1,0.5,0,0.7,0
	C279.1,293.2,279.1,293.3,279.1,293.5z"/>
<path d="M237.5,330.3c-2.6-1.3-5.2-2.6-7.8-3.9C232.6,327,235.3,328.3,237.5,330.3C237.5,330.3,237.5,330.3,237.5,330.3z"/>
<path d="M291.1,222.1c-6.5,5.9-12.8,11.8-19.3,17.4c-4.4,3.9-9.2,7.4-13.8,11.1c-4,3.2-7.8,6.6-11.8,9.7c-2.9,2.3-6,4.4-9.2,6.5
	c-1.5,1-3.1,1.7-4.8,2.4c5.5-3.4,10.6-7.2,15.6-11.2c8.6-7,17.2-14,25.7-21.1c3.6-3,6.9-6.4,10.3-9.6
	C286,225.4,288.3,223.6,291.1,222.1z"/>
<path d="M238,277.2c0.3-0.3,0.6-0.6,1-0.8c5.2-2.5,10.3-5.1,15.5-7.5c9.2-4.3,17.5-9.8,25.6-15.9c7.7-5.8,15.3-11.7,23-17.6
	c1.8-1.4,3.5-2.8,5.5-3.9c-0.5,0.5-1.1,1.1-1.7,1.6c-4.5,3.5-8.9,7-13.4,10.5c-4.2,3.2-8.4,6.4-12.5,9.6
	c-9.8,7.8-20.6,13.9-31.9,19.1c-2.8,1.3-5.6,2.6-8.5,3.9C239.8,276.6,238.9,276.8,238,277.2L238,277.2z"/>
<path d="M304.5,247.9c-1.1,1-2.1,2.2-3.3,2.9c-6.5,4.1-12.9,8.2-19.5,12.1c-13,7.8-26.8,13.7-40.6,19.7c-0.6,0.3-1.3,0.5-2.1,0.4
	c0.8-0.3,1.6-0.7,2.4-1c19.9-8.7,39.4-18.2,57.5-30.2C300.7,250.5,302.6,249.2,304.5,247.9L304.5,247.9z"/>
<path d="M239,270.9c0.5-0.5,1-1,1.5-1.4c12.7-8.8,25-18.2,36.9-28.1c4.1-3.4,8.3-6.8,12.5-10.1c1.5-1.2,3.3-2.2,5.2-2.9
	c-0.1,0.1-0.2,0.3-0.3,0.4c-6.8,4.1-12.6,9.5-18.7,14.5c-11,9.1-22.3,17.8-34.1,25.9C241.1,269.9,240,270.3,239,270.9
	C238.9,270.9,239,270.9,239,270.9z"/>
<path d="M304.5,247.9c1.2-1.2,2.5-2.5,3.7-3.7C307.4,245.8,306.3,247.2,304.5,247.9C304.5,247.9,304.5,247.9,304.5,247.9z"/>
<path d="M238.9,270.9c-1,0.7-2.1,1.3-3.1,2c-0.1-0.2-0.2-0.3-0.3-0.5C236.7,271.9,237.8,271.4,238.9,270.9
	C239,270.9,238.9,270.9,238.9,270.9z"/>
<path d="M238,277.1c-0.6,0.3-1.2,0.6-1.7,1c-0.1-0.2-0.1-0.3-0.2-0.5C236.7,277.5,237.4,277.3,238,277.1
	C238,277.2,238,277.1,238,277.1z"/>
<path d="M224.5,336.6c-1.7,1.1-3.4,1.3-5.7,0.6C221,336.9,222.7,336.8,224.5,336.6z"/>
<path d="M280.5,274.4c5.2,2.8,11.1,3.5,16.8,5.3C293.6,280.5,283.5,277.4,280.5,274.4z"/>
<path d="M275.6,280.7c6.5,2.8,12.7,6.2,19.5,8.2C287.8,288.1,281.9,284,275.6,280.7z"/>
<path d="M290.2,271.4c3.1,0.6,6.2,1.2,9.4,1.8C296.3,273.6,293.1,272.9,290.2,271.4z"/>
<path d="M295,266.7c2.5,0.3,4.6,0.6,6.6,0.9C299.4,268.2,297.3,268.2,295,266.7z"/>
<path d="M300.2,261.8c1.2,0.4,2.5,0.8,4.1,1.3C302.3,263.5,301.2,263,300.2,261.8C300.2,261.8,300.2,261.8,300.2,261.8z"/>
</svg>
