<?xml version="1.0" encoding="utf-8"?>
<!-- Generator: Adobe Illustrator 19.0.0, SVG Export Plug-In . SVG Version: 6.00 Build 0)  -->
<svg version="1.1" id="图层_1" xmlns="http://www.w3.org/2000/svg" xmlns:xlink="http://www.w3.org/1999/xlink" x="0px" y="0px"
	 viewBox="0 0 595.3 841.9" style="enable-background:new 0 0 595.3 841.9;" xml:space="preserve">
<style type="text/css">
	.st0{fill:#FFFFFF;}
</style>
<path class="st0" d="M588.8,832.6c-193.7,0-387.4,0-581.1,0c0-273.9,0-547.9,0-821.9c193.7,0,387.4,0,581.1,0
	C588.8,284.6,588.8,558.6,588.8,832.6z M421.1,599.7c0.3,0.8,0.6,1.6,0.8,2.5c0.2,0.7,0.3,1.5,0.6,2.2c1.5,4,3,8,4.6,12
	c6.5,16.2,13,32.3,19.5,48.5c0.3,0.7,0.8,1.3,1.2,1.9c0.4,1.1,0.9,2.3,1.3,3.4c0.2,1.2,0.5,2.4,1.6,3.1c-0.3,1.2,0.5,1.9,1.2,2.7
	c-0.4-0.9-0.8-1.8-1.3-2.7c-0.5-1-1.1-2.1-1.6-3.1c-0.4-1.1-0.9-2.3-1.3-3.4c-0.1-0.5-0.2-1.1-0.4-1.6c-1.6-3.9-3.2-7.8-4.8-11.7
	c-6.4-16.2-12.8-32.5-19.3-48.8c-0.4-0.9-0.9-1.7-1.4-2.6C421.6,601.3,421.3,600.5,421.1,599.7c-0.3-0.8-0.6-1.5-0.9-2.3
	c-0.3-0.8-0.6-1.6-0.9-2.3c-0.3-0.8-0.6-1.6-1-2.3c-0.2-0.9-0.5-1.7-0.7-2.6c-0.3-0.5-0.6-1-0.9-1.5c-0.1,0.1-0.2,0.2-0.3,0.3
	c0.4,0.4,0.9,0.8,1.3,1.3c-0.5,1.1-0.1,1.8,0.8,2.5c-0.2,1,0.1,1.8,1,2.3c-0.2,1,0.1,1.8,0.9,2.4C420,598.3,420.3,599.1,421.1,599.7
	z M471.6,707.1L471.6,707.1c-0.9,0.2-1.9,0.5-2.3,1.6c-0.2,0.1-0.4,0.1-0.6,0.2c-1.7-0.1-3.5,0.8-5-0.7c-0.1-0.1-0.1-0.1-0.2-0.2
	c-1.3-0.8-2.5-0.9-3.6,0.5l0.1-0.1c-1,0.3-1.8,0.9-2,2l0.1-0.1c-0.5,0.9-1,1.8-1.5,2.8c-0.9,2-1.5,4.2-2.8,5.8
	c-4.8,5.6-10.8,9.2-18.4,9.2c-5.6,0-11-1.1-16.4-2.2c-2.2-0.5-4.1-1.5-5.4-3.4c-1-1.5-2.4-2.1-4.2-2.3c-1.9-0.2-3.5,0.5-5.1,1.5
	c-2.1,1.3-4.2,2.9-6.5,3.7c-3,1.1-5.6,2.8-7.9,4.8c-1.5,1.3-3.1,2.4-4.5,3.8c-5.3,5.2-12,7.6-19.1,8.7c-5.7,0.9-11.5,1.3-17.2,1.7
	c-4.6,0.3-9.2,0.4-13.8,0.5c-1.2,0-2.5,0.1-3.4-1.2c0.1-0.4,0.2-0.7,0.4-1.1c0.9-2.7,0.8-3.6-1.7-5.1c-2.5-1.6-5.1-3.1-7.8-4.1
	c-5.4-2.1-11-2.9-16.8-2.1c-4.3,0.6-8.7,0.9-13.1,1.1c-2.5,0.1-2.8,1.9-2.1,3.5c0.2,0.4,0.5,0.8,0.7,1.2c1.7,2.5,3.9,4.4,6.9,5.4
	c1.8,0.6,3.5,1.2,5.3,2c0.8,0.3,1.4,1,2.1,1.5c-0.9,1.5-2,1.7-3.2,1.7c-3.1,0-6.1-0.6-8.4-2.9c-1.8-1.8-3.8-2.6-6.3-2.6
	c-1,0-2-0.1-3-0.1c-3.8,0-7.6-0.5-11.2-1.9c-5.9-2.2-12-2.7-18.1-0.8c-1.5,0.5-3.2,0.8-4.8,0.6c-4.5-0.4-8.7-1.8-12.7-3.8
	c-2.9-1.4-5.9-2.9-8.8-4.3c-3.6-1.7-7-1.2-10.3,0.8c-0.5,0.3-1,0.6-1.6,0.9c0.6-5.8,1.2-11.5,1.8-17.2c-0.1,0-0.2,0-0.4,0
	c-0.9,6.9-1.8,13.7-2.8,20.5c0.1,0,0.3-0.1,0.5-0.1c0.2,0,0.4,0.2,0.6,0.4c1.9,1.9,4.4,3,6.8,4c1.3,0.6,2.6,1.4,3.8,2.3
	c1.4,1.2,1.4,2,0,3.3c-1.6,1.5-3.7,2.3-5.8,2.9c-3.5,0.9-7,0.4-10.5-0.1c-4.8-0.6-9.1-2.3-12.6-5.7c-1.8-1.8-3.9-2.8-6.5-2.8
	c-2.2,0-4.1-0.8-5.7-2.4c-1-1-2.3-1.9-3.4-2.9c-2.4-2-5.2-3.1-8.4-2.9c-4.3,0.2-8.7-0.6-13.1,0.4c0-0.4,0-0.6,0-0.9
	c3-3.5,4.9-7.8,6.9-11.9c-0.3,0.1-0.5,0.2-0.6,0.4c-2,3.5-4,7-6,10.5c-0.2,0.3-0.2,0.7-0.2,1.1c-1.8,1.7-2,3-0.2,4.3
	c2.1,1.7,4.5,3.1,6.7,4.7c0.6,0.4,1.2,0.8,2.3,1.6c-1.4,0.4-2.2,0.9-3.1,1c-3.8,0.5-7.6,0.3-11.3-1c-1.4-0.5-2.9-0.9-4.3-0.7
	c-5.1,0.5-10.2,1.3-15.3,2.1c-4.2,0.7-8.4,1.8-12.7,1.6c-3.2-0.1-6.4-0.8-9.3-2.2c-2.9-1.4-3.5-3.4-2.2-6.3c1.4-3,2.8-5.9,4.1-8.9
	c0.5-1,0.8-2.2,1.1-3.3c0.3-0.5,0.7-1,1-1.6c-0.1-0.1-0.3-0.1-0.4-0.2c-0.2,0.6-0.3,1.2-0.5,1.8c-2.2,4.3-4.3,8.6-6.4,12.9
	c-0.7,1.5-0.3,2.9,0.6,4.2c1.1,1.5,2.8,2.3,4.5,2.8c4.7,1.6,9.5,1.6,14.3,0.9c5.7-0.9,11.4-1.7,17.1-2.7c3.5-0.6,6.8-0.4,10.1,0.7
	c3.5,1.2,7.2,1,10.9,0.3c0.8-0.2,1.9-0.4,1.9-1.4c0-0.6-0.8-1.2-1.3-1.7c-0.2-0.2-0.5-0.3-0.8-0.5c-1.9-1.3-3.9-2.6-5.8-3.9
	c-0.7-0.5-1.2-1.2-2-2c1.1-0.5,1.8-1,2.6-1.2c1.4-0.2,2.8-0.3,4.2-0.3c2.7,0,5.3,0.2,8,0.2c2.6,0,4.9,0.8,6.9,2.4
	c1.6,1.3,3.1,2.6,4.7,3.9c1.2,1.1,2.6,1.7,4.2,1.7c3,0,5.4,1.1,7.5,3.2c2.4,2.4,5.4,4,8.8,4.7c3.5,0.7,7.1,1.1,10.7,1.2
	c3.6,0.1,7-0.9,9.7-3.4c1.7-1.5,1.8-2.9,0-4.3c-1.4-1.1-3-1.9-4.6-2.7c-1.6-0.9-3.4-1.7-4.9-2.7c-2-1.4-2-2.5,0.1-3.9
	c2.9-2,6-2.6,9.3-1.4c2.6,1,5.3,2.1,7.7,3.5c3.6,2.2,7.5,3.4,11.5,4.4c3,0.8,6,0.8,9-0.3c4-1.4,8-1.4,12-0.6c2,0.4,3.9,1,5.8,1.7
	c2.9,1,5.8,1.7,8.9,1.6c1.9,0,3.7,0.2,5.6,0.2c2,0.1,3.6,0.8,5,2.3c2.7,2.7,6.2,3.5,9.9,3.1c1.6-0.1,2.8-1,2.9-2
	c0.1-1.5-1.1-2-2.1-2.4c-1.8-0.8-3.6-1.5-5.5-2.1c-2.8-0.9-4.9-2.7-6.6-5.1c-1.7-2.4-1.2-3.4,1.7-3.7c3.7-0.3,7.3-0.5,11-1
	c5.9-0.8,11.7-0.2,17.3,1.8c3,1.1,5.9,2.5,8.4,4.5c1.1,0.8,1.6,1.8,1.2,3.2c-0.9,3.4-0.6,3.8,3,4c0.2,0,0.5,0,0.7,0
	c10.1-0.2,20.2-0.4,30.1-2c7.4-1.2,14.4-3.6,20-8.9c2-1.9,4.1-3.6,6.3-5.3c1.4-1.1,3-1.9,4.6-2.7c2-1.1,4.2-2.1,6.2-3.2
	c1.2-0.6,2.2-1.5,3.4-2.1c2.5-1.2,5.3-0.6,6.9,1.6c1.4,1.9,3.2,3,5.4,3.5c5.8,1.3,11.6,2.3,17.6,2.4c2.7,0.1,5.5,0.2,8.2,0.5
	c6.4,0.7,12-1.1,17-5.1c0.6-0.3,1.3-0.7,1.9-1c1.6-0.7,3.2-1.4,4.8-2.2l-0.1,0.1c2.4-0.5,4.4-1.8,6.3-3.2c0.2-0.2,0.2-0.5,0.3-0.8
	c0.7-0.7,1.4-1.4,2.1-2.1c1.4-0.6,2-1.7,2.2-3.1c0.5-0.9,0.9-1.8,1.4-2.7c1.2-2.6,1.3-5.2,0.1-7.9c-0.6-1.2-0.8-2.7-1.2-4
	c-0.3-0.7-0.5-1.5-0.8-2.2c-1.8-5.5-3.4-11-5.5-16.4c-8-21-17.5-41.4-27.6-61.5c-9.4-18.7-19.8-36.9-28.5-55.9
	c-4.9-10.6-10.5-21-14.5-31.9c-5.6-15.1-12.4-29.6-19.3-44.2c-0.5-1-1.1-2-1.6-3c0.8,2.8,2,5.5,3.2,8.1c2.6,5.5,5.4,10.9,7.7,16.5
	c3.9,9.3,7.4,18.9,11.5,28.2c8.1,18.6,16.8,37,26.4,54.8c11.9,22.1,23.1,44.5,33.3,67.4c5.5,12.4,10.3,25.1,14.6,38
	c0.3,0.7,0.2,1.7,1.2,2.1c0.1,0.9,0,1.8,0.2,2.7c0.2,0.9,0.1,1.7-0.5,2.3l0.1-0.1c-1.5,0.5-3.1,1-3.8,2.6c-0.4,0.2-0.8,0.4-1.2,0.6
	C473,706.1,472.3,706.6,471.6,707.1z M415,584.7c0.1,0.7,0.3,1.3,0.4,2c0.2-0.1,0.3-0.1,0.5-0.2C415.6,585.9,415.3,585.3,415,584.7
	c-0.4-1.1-0.3-2.4-1.7-3c-0.1-0.6-0.2-1.2-0.3-1.8c-0.1,0-0.2,0-0.3,0.1c0.2,0.5,0.4,1.1,0.6,1.6C413.9,582.6,414.4,583.6,415,584.7
	z M403.9,658.1c-0.5,1.3,0,2.5,0.8,3.6C404.4,660.5,404.1,659.3,403.9,658.1c-1.5-7.4-3-14.9-4.5-22.4c-0.2,0.3-0.3,0.7-0.2,1
	c1.3,6.6,2.6,13.1,3.9,19.7C403.1,657,403.6,657.5,403.9,658.1z M364.7,504.7c-0.1-0.6-0.3-1.2-0.4-1.7c-0.1,0-0.3,0.1-0.4,0.1
	C364.2,503.6,364.4,504.2,364.7,504.7c1.2,3.4,2.4,6.7,3.4,10.2c2.3,8.3,4.4,16.6,6.6,24.9c0.2,0.8,0.7,1.5,1,2.2
	c-0.3,1,0,1.9,0.8,2.7c-0.3-0.9-0.6-1.7-0.8-2.6c-0.1-0.7-0.3-1.4-0.4-2c-1.5-5.9-2.9-11.8-4.5-17.6c-1.4-5.2-3.1-10.3-4.7-15.4
	C365.7,506.2,365.1,505.5,364.7,504.7z M352.8,614.4c0,1,0,2,0,3c0.1,0,0.1,0,0.2,0C352.9,616.4,352.8,615.4,352.8,614.4
	c-0.3-2.2-0.6-4.4-0.8-6.7c-1.2-11.9-2.5-23.9-3.7-35.8c-0.2-1.6-0.4-3.2-0.6-4.8c-0.2,1.1-0.2,2.2-0.1,3.3
	c0.5,5.3,0.9,10.6,1.4,15.8c1,8.8,2.1,17.6,3.2,26.4C352.2,613.3,352.6,613.8,352.8,614.4z M344.2,418.4L344.2,418.4
	c0-0.7-0.5-1.5-0.2-2.1c1-2,0.2-3.4-1.1-4.9c-3.9-4.5-6.8-9.7-9.4-15c-0.6-1.1-0.8-2.1,0.1-3.2c1.3-1.6,1.3-3.5,0.4-5.3
	c-1-1.9-2-3.7-3-5.6c-2.3-4.1-4.6-8.2-6.9-12.2c-0.5-0.9-0.7-2.2-1.4-2.9c-1.3-1.4-1.7-2.9-2-4.6c-0.9-4.8-2-9.6-2.9-14.5
	c-1.4-7.6-4.3-14.6-8.3-21.3c-1.3-2.3-2.5-4.7-3.7-7c-4.7-8.8-5.7-18.3-4.7-28c0.9-8.2,2.7-16.3,5.2-24.2c2.6-8.2,5.5-16.3,8.5-24.3
	c2.9-7.8,2.4-15.8,1.5-23.8c0,2.9,0,5.7,0,8.8c-1.3-1.5-2.2-3.1-3.5-3.9c-2.6-1.4-3-3.4-2.7-6c0.1-0.8,0-1.7,0-2.6
	c-0.1-4.4,0.1-8.7,0.9-13.1c1.3-6.7,2.5-13.5,3.7-20.3c0.4-2.6,0.6-5.2,0.9-7.8c-1.2,5.7-2.1,11.5-3.2,17.2
	c-1.8,9.1-3.6,18.2-2.9,27.6c0.1,0.8-0.1,1.6-0.1,2.4c-2,0.2-1.9-1-1.9-2.1c-0.3-9.2,0.9-18.2,2.6-27.2c1.2-6.5,2.8-13,2.7-19.7
	c0-0.1,0.2-0.2,0.4-0.5c4.1,0.6,8.3,1.2,12.2,2.8c2.4,1,4.5,2.5,5.8,4.9c1.9,3.5,3.2,7.3,3.7,11.3c0.8,6.1,0.1,12.2-0.2,18.2
	c-0.4,6.7-0.9,13.4-1.2,20.1c-0.2,5.7-0.3,11.4-0.3,17.1c0,9.1,0.1,18.3,0.3,27.4c0.1,4.2,0.9,8.4,2.1,12.4c0.6,2.2,1.3,4.5,1.7,6.8
	c0.8,4.7,0.3,9.4-0.3,14c-1.1,9-2.8,17.9-4.2,26.8c-0.6,3.4-1.3,6.9-1.1,10.4c1-5.6,2-11.2,2.9-16.8c1.4-8.9,3.3-17.7,3.4-26.7
	c0.1-4,0.3-8-1-11.8c-2.5-7.4-3.2-15.1-3.1-22.9c0.1-8.9,0.2-17.8,0.3-26.7c0.1-10.6,0.5-21.2,1.4-31.8c0.4-4.2,0.5-8.4,0.5-12.6
	c0-5.7-1.5-10.9-4.4-15.8c-1.3-2.2-3-3.7-5.3-4.7c-5.3-2.3-10.9-3.3-16.6-3.6c-3.4-0.1-6.9-0.1-10.3-0.2c-5.2-0.1-10.3-0.7-15.3-2.1
	c-3.2-0.9-5.4-2.8-6.6-5.8c-0.5-1.2-0.7-2.4-1.1-3.6c-0.4-1.4-0.9-2.8-1.3-4.2l0.1,0.1c0.1-2.9,2.2-4.3,4.2-5.7
	c1.2-0.9,2.5-0.9,4-0.2c4.4,2,9.9,0.3,12.6-3.7c1.7-2.5,3.8-11,3.4-13.9c-0.4-2.8-0.8-5.5-2.1-8.1c-0.9-1.8-1.7-3.7-1.4-5.8
	c0.3-2.1-0.5-3.7-1.9-5.3c-2.3-2.6-3.9-5.4-3.9-9c0-1.1-0.1-2.2-0.2-3.3c-0.6-3.8-1.1-7.6-1.9-11.3c-0.4-2-1.5-3.8-3.2-5
	c-2.6-1.8-5.4-3.2-8.4-4c-1.1-0.3-1.7-0.7-2.3-1.6c-2.7-4-6.3-6.3-11.3-6.5c-6.4-0.3-12.4,0.9-18.2,3.4c-1.7,0.8-3.4,2-4.7,3.4
	c-1.5,1.6-2.8,3.6-3.8,5.6c-1.8,3.8-4.4,6.7-7.8,9.2c-1.6,1.2-3.1,1.5-5,0.9c-3-0.9-5.9-0.3-8.7,0.7c-1.6,0.6-2.9,1.9-3.6,3.5
	c-1,2-1.6,4.1,0.8,5.8c-0.8,1.7-1.7,3.2-2.3,4.7c-0.9,2.2-1.7,4.4-2.5,6.6c-0.5,1.4-0.2,2.8,0.9,3.9c0.2,0.3,0.5,0.6,0.6,0.8
	c-0.7,1.4-1.5,2.6-1.9,3.9c-2.1,6.7,1.7,14.3,8.5,17c2.1,0.8,3.9,1.9,5.5,3.5c2.1,2,4.6,3.5,7.3,4.6c3.4,1.4,6.8,2.1,10.5,2.2
	c2.3,0.1,4.5,0.3,6.7,0.8c2.9,0.6,3.3,1.3,3,4.2c-0.4,3.1-2,5.6-4.1,7.7c-3.1,3.1-6.3,6-9.6,9c-3.4,3.1-7.2,5.4-11.5,7.1
	c-2.3,0.9-4.6,1.9-6.9,2.9c-4.3,1.9-8.7,3.6-12.9,5.6c-6.8,3.3-11,8.8-12.2,16.4c-0.6,4.3,0,8.4,1.3,12.5c1.4,4.2,2.7,8.5,4.1,12.7
	c0.5,1.6,1.1,3.1,1.7,4.6c1.7,4.1,3.4,8.2,5.1,12.3c5.6,13,8.6,26.5,8.7,40.7c0.1,6.6,0.7,13.3,1.4,19.8c0.7,6.4,2.6,12.6,5,18.7
	c0,0,0-0.1,0-0.1c0.3,1.5,0.6,3.1,1.1,4.5c0.6,1.9,0.5,3.8-0.1,5.7c-0.7,2.7-1.5,5.5-1.7,8.2c-0.7,7.4-1,14.8-1.5,22.2
	c-0.1,0.8-0.2,1.6-0.5,2.4c-0.3,0.8-0.9,1.4-1.1,2.2c-1.9,6.8-3.7,13.6-5.6,20.3c-3.8,13.3-8,26.6-11.5,40
	c-5.1,19.4-11.2,38.3-20.8,56c-1.7,3.2-1.9,6.6-1.4,10c0.6,4.7,1.3,9.4,2.1,14.1c0.2,1,0,1.8-0.4,2.7c-1,2.1-2,4.2-2.9,6.4
	c-4.8,11.8-9.4,23.6-14.3,35.4c-7.8,19-14.3,38.5-19.6,58.3c-2.7,10-4.7,20.2-7.6,30.2c-4.2,14.4-9.1,28.6-13.6,42.8
	c-2.5,7.9-5,15.8-7.5,23.7c-0.5,1.6-0.7,3.2-0.9,4.8c-0.2,2,0.6,2.9,2.6,3.2c0.8,0.1,1.6,0.1,2.3,0.1c3.5,0,7-0.4,10.4-1.3
	c6.3-1.6,12.6-3.4,18.9-5.3c3-0.9,5.8-2.3,8.3-4.2c2.2-1.7,3.5-3.9,3.6-6.8c0.1-1.5,0-3.1,0-5c3.3-0.7,6.6-1.7,10.1-2.2
	c7.9-1.2,15.8-2.2,23.4-4.5c6.5-2,12.9-4.2,19.3-6.4c9.4-3.3,18.6-6.8,27.5-11.3c7.4-3.8,14.8-7.7,22.3-11.3
	c4.8-2.3,9.9-4.2,14.8-6.4c5.6-2.4,10.6-5.7,14.7-10.3c2.2-2.4,4.4-4.8,6.5-7.3c4.9-5.8,9.6-11.7,14.5-17.5
	c4.4-5.3,7.9-11,10.3-17.4c0.3-0.8,0.7-1.6,1.2-2.2c1.6-1.9,2.5-4.1,2.9-6.6c1-6.8,1.9-13.6,1.9-20.5c0-1.4,0.4-2.5,1.2-3.6
	c5.6-7.4,11.3-14.7,18-21.3c3.5-3.4,4.7-7.6,3-12.4c-0.3-0.9-0.5-1.8-0.8-2.7c-1.1-3.1-1.6-6.3-1.7-9.6c0-1.5-0.1-3-0.3-4.4
	c-0.2-1.2,0.2-1.9,1.2-2.5c2.7-1.5,5.4-3.1,8.2-4.5c1-0.5,2-0.9,3-1.3c2.1-1,3.2-2.7,3-5.1c-0.1-0.9-0.3-1.8-0.4-2.8
	c-0.1-1.3-0.4-2.8,0.8-3.7c3.5-2.8,7.1-5.5,10.7-8.3c1.2-1,2.5-1.9,3.6-3c1.1-1.1,1.5-2.5,1.1-4.1c-0.4-1.5-0.8-3-1.1-4.5
	c-0.3-1.6,1-2.5,2.7-2c0.5,1,1,2.1,1.5,3.1c0.2-0.1,0.4-0.2,0.5-0.3c-0.7-0.9-1.4-1.8-2.1-2.8c-0.1-0.9,0.5-1.4,1.1-1.9
	c0.8-0.6,1.7-1.2,2.4-1.8c1.9-1.6,2.2-2.6,0.8-4.6c-2.1-3.1-4.4-6.2-6.8-9.2c-2.3-2.9-4.8-5.6-7-8.4c-6.7-8.7-13.8-17-19.3-26.7
	C348.1,422.8,346,420.7,344.2,418.4z M331.7,732.9c0.2,0,0.3,0,0.5,0c-1.6-12-3.4-23.9-4.9-35.9c-1.4-12-2.5-24.1-3.7-36.1
	C324.6,685.1,327.8,709,331.7,732.9z M291.4,731.2c0.9-2.7,0.7-28,0-34.6C291.4,708.4,291.4,719.8,291.4,731.2z M382.1,521.5
	c-2.7-8.7-5.4-17.5-8.1-26.2C375.6,504.4,378.9,513,382.1,521.5z M405.4,665.5c-0.1,0-0.2,0.1-0.3,0.1c0.4,1.5,0.7,3.1,1.1,4.6
	c0.1,0,0.2,0,0.3-0.1C406.1,668.6,405.7,667,405.4,665.5z M291.4,693.9C291.4,693.9,291.5,693.9,291.4,693.9c0.1-0.2,0-0.4,0-0.7
	C291.4,693.4,291.4,693.6,291.4,693.9z M353.2,620.9c0.1,0,0.2,0,0.3,0c0-0.3-0.1-0.7-0.1-1c-0.1,0-0.1,0-0.2,0
	C353.2,620.1,353.2,620.5,353.2,620.9z"/>
<path d="M218.4,326.8c-2.3-6-4.2-12.2-5-18.7c-0.7-6.6-1.4-13.2-1.4-19.8c-0.1-14.2-3.2-27.7-8.7-40.7c-1.7-4.1-3.5-8.2-5.1-12.3
	c-0.6-1.5-1.2-3.1-1.7-4.6c-1.4-4.2-2.7-8.5-4.1-12.7c-1.3-4.1-1.9-8.2-1.3-12.5c1.2-7.6,5.4-13,12.2-16.4c4.2-2.1,8.6-3.8,12.9-5.6
	c2.3-1,4.6-2,6.9-2.9c4.3-1.7,8.1-4,11.5-7.1c3.2-2.9,6.5-5.9,9.6-9c2.1-2.1,3.8-4.6,4.1-7.7c0.3-2.9,0-3.6-3-4.2
	c-2.2-0.5-4.5-0.7-6.7-0.8c-3.6-0.1-7.1-0.8-10.5-2.2c-2.7-1.1-5.2-2.5-7.3-4.6c-1.6-1.5-3.4-2.6-5.5-3.5c-6.8-2.8-10.6-10.4-8.5-17
	c0.4-1.3,1.2-2.5,1.9-3.9c-0.1-0.2-0.3-0.5-0.6-0.8c-1-1.1-1.4-2.5-0.9-3.9c0.8-2.2,1.6-4.4,2.5-6.6c0.7-1.6,1.5-3.1,2.3-4.7
	c-2.4-1.7-1.7-3.8-0.8-5.8c0.8-1.6,2-2.9,3.6-3.5c2.8-1.1,5.7-1.7,8.7-0.7c1.9,0.6,3.3,0.3,5-0.9c3.4-2.4,6-5.4,7.8-9.2
	c1-2,2.3-4,3.8-5.6c1.3-1.4,3-2.6,4.7-3.4c5.8-2.6,11.8-3.8,18.2-3.4c5,0.3,8.6,2.5,11.3,6.5c0.6,0.9,1.2,1.3,2.3,1.6
	c3,0.8,5.9,2.1,8.4,4c1.7,1.2,2.8,3,3.2,5c0.7,3.7,1.3,7.5,1.9,11.3c0.2,1.1,0.2,2.2,0.2,3.3c0,3.6,1.7,6.4,3.9,9
	c1.4,1.6,2.2,3.2,1.9,5.3c-0.3,2.1,0.5,4,1.4,5.8c1.2,2.6,1.7,5.3,2.1,8.1c0.4,2.9-1.7,11.4-3.4,13.9c-2.7,4-8.2,5.7-12.6,3.7
	c-1.5-0.7-2.8-0.6-4,0.2c-2,1.4-4.1,2.9-4.2,5.7c-0.8-0.6-1.3,0-1.8,0.5c-1.8,1.5-3.9,2.3-6.2,2.6c-1.7,0.2-3.4,0-4.6-1.3
	c-1.3-1.4-2.4-2.9-3.4-4.4c-0.7-1.2-0.1-2.1,1.4-2.1c0.9,0,1.7,0,2.6,0.1c2.7,0.3,4.9-0.8,6.7-2.6c1.2-1.2,2.2-2.4,3.5-3.5
	c3-2.7,4.8-6.1,5.2-10.2c0.3-3,0.7-6.1,0.5-9.1c-0.3-3.5-1.2-6.9-1.8-10.3c0-0.1-0.2-0.2-0.3-0.3c-0.8,0.8-1.5,1.8-2.4,2.3
	c-0.9,0.5-1.8-0.2-2.8-1.8c-0.5,0.1-0.9,0.3-1.4,0.4c1.5-2.9,4.6-1.8,6.9-2.8c-0.1-0.7-0.1-1.4-0.2-2.3c-2.6,0.6-5,1.2-7.5,1.8
	c2-2.3,4.9-2.5,7.8-3.6c-0.2-2.8-0.3-5.6-0.6-8.3c-0.5-3.4-2.6-5.9-5.1-8.1c-1-0.8-1.8-0.8-3-0.3c-2.6,1.3-3.9,3.6-4.6,6.2
	c-1.2,4.5-2.5,8.9-4.9,12.8c1.3,1.3,1.3,1.3,1.3,2.5c-2.4-0.7-2.4-0.7-3.3,0.9c0.4,0.4,0.8,0.8,1.3,1.2c-2.2,1.2-4.4,2-5.9,4.1
	c-2.4,3.2-5.7,5.3-9.7,6.2c-0.4,0.1-0.7,0.3-1.1,0.4c1,1.7,2.3,1.3,3.6,1.2c0.1-0.5,0.2-0.8,0.3-1.1c0.5,1,0.6,2,0.7,2.9
	c0.3,2.9,0.4,5.8,1.9,8.4c0.8,1.5,2.1,2.9,2.4,4.5c0.3,1.6-0.3,3.4-0.6,5.1c-0.5,3.1-1.1,6.3-1.5,9.4c-0.5,4-2.8,6.8-5.6,9.5
	c-1.1,1.1-2.3,2.2-3.4,3.3c-5.5,5.4-11.5,10-19,12.6c-2,0.7-4,1.8-5.8,2.6c0.3,6.8,0.1,13.4,1.9,19.8c1.8,6.3,3.6,12.5,5.4,18.9
	c8.7-1.7,16.9-1.8,25.1,1.4c8,3.2,15.4,7.1,20.6,14.5c9.7-13.2,22.9-18.2,38.4-18c0.1-0.2,0.2-0.3,0.2-0.5c0-0.5,0.1-0.9,0.1-1.4
	c-0.1-8.9,0.9-17.6,2.5-26.3c1-5.7,1.9-11.4,2.8-17.1c0.2-1.2,0.5-2.5-0.5-3.8c-1.1,0-2.2,0-3.4,0c-4.6-0.1-9.2-0.2-13.8-0.4
	c-4-0.2-7.9-1-11.7-2.4c-2.6-0.9-4.3-2.7-5.5-5.2c-1.3-2.8-1.8-5.8-2-8.8c0.4,1.4,0.9,2.8,1.3,4.2c0.4,1.2,0.6,2.4,1.1,3.6
	c1.2,3,3.4,4.9,6.6,5.8c5,1.4,10.1,2,15.3,2.1c3.4,0.1,6.9,0,10.3,0.2c5.7,0.2,11.3,1.2,16.6,3.6c2.3,1,4.1,2.6,5.3,4.7
	c2.8,4.9,4.4,10.2,4.4,15.8c0,4.2-0.1,8.4-0.5,12.6c-1,10.6-1.4,21.2-1.4,31.8c-0.1,8.9-0.2,17.8-0.3,26.7c0,7.8,0.7,15.4,3.1,22.9
	c1.3,3.9,1.1,7.8,1,11.8c-0.2,9-2,17.8-3.4,26.7c-0.9,5.6-1.9,11.2-2.9,16.8c-0.2-3.5,0.5-6.9,1.1-10.4c1.4-8.9,3.1-17.8,4.2-26.8
	c0.6-4.6,1-9.3,0.3-14c-0.4-2.3-1.1-4.6-1.7-6.8c-1.1-4.1-2-8.2-2.1-12.4c-0.2-9.1-0.3-18.3-0.3-27.4c0-5.7,0.1-11.4,0.3-17.1
	c0.3-6.7,0.8-13.4,1.2-20.1c0.4-6.1,1-12.1,0.2-18.2c-0.5-4-1.8-7.7-3.7-11.3c-1.3-2.4-3.4-3.9-5.8-4.9c-3.9-1.7-8.1-2.2-12.2-2.8
	c-0.2,0.2-0.4,0.3-0.4,0.5c0.2,6.7-1.5,13.2-2.7,19.7c-1.7,9-2.8,18-2.6,27.2c0,1.1-0.1,2.3,1.9,2.1c0-0.8,0.2-1.6,0.1-2.4
	c-0.7-9.4,1.1-18.5,2.9-27.6c1.1-5.7,2-11.5,3.2-17.2c-0.3,2.6-0.5,5.2-0.9,7.8c-1.2,6.8-2.4,13.5-3.7,20.3c-0.8,4.3-1,8.7-0.9,13.1
	c0,0.9,0.1,1.7,0,2.6c-0.3,2.5,0.1,4.6,2.7,6c1.3,0.7,2.2,2.4,3.5,3.9c0-3.1,0-6,0-8.8c0.9,8,1.4,16-1.5,23.8
	c-3,8-5.9,16.1-8.5,24.3c-2.6,7.9-4.3,16-5.2,24.2c-1.1,9.7-0.1,19.2,4.7,28c1.3,2.3,2.4,4.8,3.7,7c3.9,6.6,6.9,13.6,8.3,21.3
	c0.9,4.8,1.9,9.6,2.9,14.5c0.3,1.7,0.7,3.3,2,4.6c0.7,0.8,0.9,2,1.4,2.9c2.3,4.1,4.6,8.2,6.9,12.2c1,1.8,2,3.7,3,5.6
	c1,1.8,0.9,3.7-0.4,5.3c-0.9,1.1-0.7,2.1-0.1,3.2c2.6,5.3,5.5,10.5,9.4,15c1.3,1.5,2,2.9,1.1,4.9c-0.3,0.5,0.2,1.4,0.3,2.2
	c-0.4-0.2-0.8-0.3-1.2-0.5c-1.9,2.9-4.3,5.1-6.9,7.1c-10.4,8.4-21.6,15.6-33.7,21.3c-8.2,3.9-16.5,7.5-24.7,11.1
	c-1.8,0.8-3.8,1.4-5.7,2.2c0,0,0,0.1,0,0.1c0.4-0.3,0.8-0.8,1.3-1c5.3-2.4,10.5-4.7,15.8-7.1c10.4-4.8,20.9-9.6,30.4-16
	c5.7-3.8,11.2-8,16.6-12.1c2.4-1.8,4.5-3.9,6-6.5c1.4-2.5,1.4-2.9-0.4-5c-3.7-4.4-6.3-9.5-8.6-14.7c-0.3-0.6-0.6-1.2-1-1.9
	c-0.4,0.3-0.6,0.5-0.9,0.7c-7.7,7.3-15.7,14.3-24.2,20.7c-7.6,5.8-15.4,11.5-22.7,17.7c-9.5,8.1-19.5,15.4-30.7,20.9
	c-6.9,3.5-14,6.5-21.1,9.6c-11,4.9-22,9.6-33,14.5c-2.6,1.1-5.1,2.4-7.5,3.8c-4.6,2.5-7.9,6.2-9.4,11.2c-1.3,4.3-2.2,8.6-3.2,12.9
	c-0.1,0.5,0,1,0.1,1.5c3.1-5.2,6.4-10.1,8.1-15.8c0.1,0.5,0.1,1,0,1.4c-0.9,2.4-1.8,4.8-2.9,7.1c-4.4,9.1-9.2,18.1-12.9,27.5
	c-3.3,8.6-6.9,17.1-10.3,25.6c-3.1,7.8-6.3,15.7-9.1,23.6c-5.7,15.7-10.5,31.7-14.3,48c-3.6,15.8-8.3,31.2-13.4,46.6
	c-3.6,10.8-7.2,21.6-10.7,32.5c-1.2,3.6-2.1,7.4-2.9,11.1c-0.4,2,0.3,2.8,2.4,2.9c1.7,0.1,3.4,0,5.1-0.2c8.3-0.9,16.4-2.9,24.4-5.5
	c3.5-1.1,6.6-2.9,9.5-5c2.9-2.1,4.2-6.6,2.7-9.8c-0.7,0.1-1.4,0.2-2,0.3c-2.2,0.2-2.7-0.2-2.4-2.5c0.3-2.4,0.7-4.8,1.2-7.2
	c2.3-11.1,4.6-22.2,7-33.2c5.6-25.1,11.4-50.2,17.1-75.3c4.8-21.3,9.7-42.6,14.5-63.9c2.5-11,5.4-22,6.7-33.2c0-0.2,0.2-0.3,0.6-0.7
	c-0.4,3-0.6,5.6-1.1,8.2c-1.5,7.5-3,15-4.7,22.4c-3.7,16.4-7.7,32.7-11.4,49c-5.2,23.1-10.2,46.3-15.4,69.5
	c-4.1,18.7-8.4,37.3-12.5,55.9c-0.7,3.1-1.1,6.2-1.6,9.7c2.1-0.5,3.8-0.9,5.6-1.2c4.8-1,9.6-2,14.4-3c5.6-1.1,11.3-1.8,16.7-3.3
	c7.4-2,14.6-4.6,21.8-7c9.2-3.2,18.4-6.5,27-11.2c11.4-6.2,23-12,35.1-16.7c7.1-2.8,13.1-7.2,18-13c6.8-8.1,13.7-16.2,20.5-24.3
	c0.9-1,1.7-2.1,2.4-3.2c3.6-5.2,6.3-10.9,7.8-17.2c0.8-3.5,0.1-4.2-3.5-3.9c-1.2,0.1-2.5,0.2-3.7,0.1c-1.6-0.2-2.2-1.1-1.5-2.7
	c0.6-1.4,1.3-2.8,2.2-4.1c9-13.2,18-26.3,29.3-37.7c1.2-1.2,2.3-2.6,3.3-3.9c1.2-1.7,1-2.7-0.9-3.6c-1.5-0.7-3.2-1.3-4.9-1.5
	c-2.2-0.3-4.5-0.3-6.8-0.5c-2.1-0.2-4.1-0.7-6.2-1.1c-1.7-0.3-2.5-1.5-2.8-3.3c-1.1-5.7-1-11.5-0.6-17.3c0.3-5.1,0.9-10.3,1-15.4
	c0.2-9.4,0.3-18.9,0.2-28.3c-0.1-10.4-0.8-20.7-2-31.1c-0.2-1.3-0.3-2.6-0.5-3.9c1.5,5.4,2,10.9,2.3,16.4c0.5,9.9,0.9,19.8,1.1,29.7
	c0.2,8.4-0.2,16.9-0.9,25.3c-0.5,6.5-0.5,13.1-0.6,19.7c0,1.2,0.3,2.5,0.6,4.1c3.2-5.2,7.1-9,11.6-12.2c6.1-4.3,12.2-8.7,19.2-11.6
	c0.8-0.3,1.8-0.6,1.9-2.1c-0.8-0.1-1.5-0.3-2.2-0.4c-1.2-0.2-2.5-0.3-3.7-0.6c-0.7-0.2-1.5-0.8-1.7-1.4c-1.1-2.4-2.2-4.8-3-7.3
	c-1-2.9-1.8-5.8-2.4-8.8c-2.9-14-6.5-27.8-10.6-41.5c-0.8-2.6-1.4-5.3-2.2-8c0.8,1.3,1.2,2.7,1.6,4.1c4.3,13.8,8.1,27.7,11.3,41.8
	c1.1,4.9,2.5,9.7,3.9,14.5c0.4,1.3,1.1,2.5,1.8,4.1c2.8-1.9,5.4-3.5,7.9-5.2c4.6-3.4,9.2-7,13.8-10.5c0.5-0.4,1-0.8,1.4-1.2
	c1.6-1.7,1.5-2.5-0.5-3.6c-1.5-0.8-2.2-2-2.6-3.6c-0.5-2.5-1.2-5-1.9-7.5c-2.1-7.2-5.3-14-8.7-20.7c-0.3-0.5-0.5-1.1-0.8-1.6
	c3,4.4,5.4,9,7.2,13.9c1.8,4.9,3.4,9.9,5,14.7c1.9-1.3,3.8-2.7,5.7-4c1.1-0.8,2.1-1.6,3.2-2.4c1.3-1.1,1.4-1.6,0.4-3
	c-2-2.9-4.1-5.7-6.3-8.5c-6.3-8-12.7-15.9-18.9-23.9c-2-2.5-3.6-5.3-5.3-8c-2.2-3.5-4.3-7-6.5-10.6c-0.2-0.3-0.2-0.7-0.4-1.1
	c1.8,2.3,3.9,4.4,5.4,7c5.4,9.6,12.5,18,19.3,26.7c2.2,2.9,4.8,5.6,7,8.4c2.4,3,4.6,6.1,6.8,9.2c1.4,2,1.1,3-0.8,4.6
	c-0.8,0.7-1.6,1.2-2.4,1.8c-0.7,0.5-1.2,0.9-1.1,1.9l0.1-0.1c-1.7-0.6-3,0.4-2.7,1.9c0.3,1.5,0.7,3.1,1.1,4.5c0.5,1.6,0.1,3-1.1,4.1
	c-1.1,1.1-2.3,2-3.6,3c-3.6,2.8-7.2,5.5-10.7,8.3c-1.2,0.9-0.8,2.4-0.8,3.7c0,0.9,0.3,1.8,0.4,2.8c0.1,2.4-0.9,4.1-3,5.1
	c-1,0.5-2,0.8-3,1.3c-2.7,1.5-5.4,3-8.2,4.5c-1,0.6-1.4,1.3-1.2,2.5c0.2,1.5,0.3,3,0.3,4.4c0.1,3.3,0.6,6.5,1.7,9.6
	c0.3,0.9,0.5,1.8,0.8,2.7c1.7,4.8,0.6,9-3,12.4c-6.7,6.5-12.4,13.8-18,21.3c-0.8,1.1-1.3,2.2-1.2,3.6c0.1,6.9-0.8,13.7-1.9,20.5
	c-0.4,2.4-1.3,4.6-2.9,6.6c-0.5,0.6-0.9,1.4-1.2,2.2c-2.4,6.4-5.9,12.2-10.3,17.4c-4.9,5.8-9.6,11.7-14.5,17.5
	c-2.1,2.5-4.3,4.9-6.5,7.3c-4.1,4.5-9.1,7.8-14.7,10.3c-4.9,2.2-10,4-14.8,6.4c-7.5,3.6-14.9,7.5-22.3,11.3
	c-8.9,4.5-18.1,8-27.5,11.3c-6.4,2.2-12.8,4.4-19.3,6.4c-7.6,2.3-15.6,3.3-23.4,4.5c-3.4,0.5-6.8,1.5-10.1,2.2c0,1.9,0,3.4,0,5
	c-0.1,2.8-1.4,5.1-3.6,6.8c-2.5,1.9-5.3,3.3-8.3,4.2c-6.3,1.9-12.6,3.6-18.9,5.3c-3.4,0.9-6.9,1.3-10.4,1.3c-0.8,0-1.6,0-2.3-0.1
	c-2-0.3-2.8-1.2-2.6-3.2c0.1-1.6,0.4-3.3,0.9-4.8c2.4-7.9,5-15.8,7.5-23.7c4.6-14.3,9.4-28.5,13.6-42.8c2.9-9.9,5-20.2,7.6-30.2
	c5.3-19.9,11.7-39.3,19.6-58.3c4.9-11.8,9.5-23.6,14.3-35.4c0.9-2.2,1.8-4.3,2.9-6.4c0.4-0.9,0.6-1.7,0.4-2.7
	c-0.8-4.7-1.4-9.4-2.1-14.1c-0.4-3.5-0.3-6.9,1.4-10c9.5-17.7,15.7-36.7,20.8-56c3.5-13.4,7.7-26.7,11.5-40
	c1.9-6.7,3.7-13.5,5.6-20.3c0.2-0.8,0.8-1.5,1.1-2.2c0.3-0.8,0.5-1.6,0.5-2.4c0.5-7.4,0.9-14.8,1.5-22.2c0.2-2.8,1-5.5,1.7-8.2
	c0.5-1.9,0.7-3.8,0.1-5.7C219,329.8,218.7,328.2,218.4,326.8c0.6,1.7,1.3,3.4,2.1,5.5c1.3-2.3,2.3-4.2,3.5-6
	c6.1-9.9,9-20.7,9.1-32.2c0.1-8.1-1.1-16-2.6-23.9c-1.2-6.6-3.8-12.7-8.4-17.8c-3.7-4.1-6-9-7.1-14.3c-0.9-3.8-2.2-7.5-3.7-11.1
	c-0.2-0.4-0.3-0.9-0.4-1.3c0.1,0,0.2-0.1,0.4-0.1c0.8,1.6,1.5,3.2,2.3,4.9c1.9-1.8,3.8-3.6,5.4-5.1c-3.4-12.9-6.7-25.6-6.9-39.1
	c-4.1,1.5-7.9,2.9-11.3,5.2c-4.5,3.1-7.5,7.2-8.7,12.6c-1,4.6-0.5,9,0.9,13.4c1.1,3.3,2.1,6.7,3.2,10c1.1,3.2,2.2,6.3,3.4,9.5
	c2.4,6.3,5,12.4,7.4,18.7c2.5,6.7,4.4,13.5,4.9,20.6c0.5,7.2,1,14.3,1.3,21.5c0.3,7.7,1.4,15.2,3.7,22.6
	C217.6,322.3,218,324.6,218.4,326.8z M300.1,265.1c-0.8,0.5-1.6,0.9-2.4,1.4c-2.4,1.5-4.8,3.2-7.3,4.5c-4.6,2.5-9.2,4.9-13.9,7.2
	c-3.8,1.9-7.6,3.8-11.5,5.7c0.4,0.6,0.7,1,1,1.4c-1.5-0.9-2.9-0.6-4.3,0.3c-1.5,0.9-3.2,1.7-4.8,2.4c-6.9,3-13.8,6.2-21.3,7.8
	c-0.5,0.1-1,0.4-1.6,0.6c-0.1,1.2-0.2,2.4-0.4,3.5c-0.5,3.1-0.9,6.2-1.6,9.2c-1.5,6-3.8,11.7-7.1,17c-1.1,1.8-2.1,3.8-3.2,5.7
	c4.2,3.6,8.5,6.7,13.4,8.9c20.3,8.9,41.5,15.1,63.5,18.2c7.4,1,14.6,2.5,21.3,6c0.1,0,0.3-0.1,0.6-0.2c-0.5-2.8-1-5.6-1.5-8.4
	c-2-10.7-4.8-21.1-10.7-30.5c-1.8-2.9-3.2-6.1-4.7-9.2c-2.1-4.4-2.7-9.1-3.2-13.8c-0.1-1.3-0.7-2-1.9-2.2c-1.9-0.4-3.8-0.9-5.7-1.3
	c-6.1-1.2-11.4-4.2-16.5-7.5c-1.9-1.2-3.9-2.3-5.4-3.2c-3.3,1.4-6.1,2.7-9.1,3.7c-4.7,1.7-9.4,3.2-14.2,4.8c-2.5,0.8-5,1.7-7.6,2.5
	c-1.2,0.3-2.5,0.3-3.8,0.4c2.4-0.8,4.8-1.4,7.2-2.1c1.6-0.5,3.2-1.1,4.9-1.7c5.5-1.9,10.9-3.7,16.4-5.7c1.7-0.6,3.2-1.4,5-2.2
	c-1.4-1.1-2.6-2-3.7-2.9c0.2,0,0.3-0.1,0.5,0c4,2.2,8.1,4,11.8,6.6c6.6,4.6,14.2,6.2,22,8.2c0.2-2.4,0.3-4.7,0.5-7
	c0.2-2.4,0.3-4.8,0.7-7.2c0.3-1.9,0.8-3.8,1.2-5.7c1.4-6.6,2.9-13.1,5.4-19.3c0.1-0.4,0.1-0.8,0.2-1.5
	C305.2,261.4,302.6,263.3,300.1,265.1C300.1,265.1,300.1,265.1,300.1,265.1z M215.7,370.5c-2.2,7.8-4.2,15.2-6.3,22.6
	c-3.7,12.7-7.7,25.4-11,38.2c-5.1,19.8-11.3,39.1-21,57.2c-1.1,2.1-1.7,4.4-1.5,6.8c0.3,3.3,0.8,6.7,1.2,10c0.3,2.3,0.7,4.7,1,7
	c0.6-0.6,0.7-1.2,0.8-1.9c0.7-5.1,1.2-10.2,2.9-15.1c2-5.8,5.5-10.1,11-13.1c4.7-2.6,9.7-4.3,14.5-6.4c12.3-5.5,24.7-11,37-16.4
	c13.7-6.1,26.3-13.9,37.7-23.7c4.9-4.2,10-8.2,15.1-12.3c4.1-3.2,8.5-6.2,12.5-9.5c6-4.9,11.9-10.1,17.8-15.2c1.8-1.6,3.4-3.5,5-5.3
	c1.4-1.5,1.6-3.3,0.7-5.2c-0.5-1-0.9-2-1.5-2.9c-3.1-5-6.1-10.2-8.4-15.6c-0.5-1.1-1.4-2-2.4-2.8c-1.1-0.9-2.4-1.5-3.6-2.1
	c-4.9-2.4-10.3-3.6-15.7-4.4c-10-1.4-20-3.1-29.8-5.8c-1.3-0.3-2.2-0.1-3.3,0.5c-4.3,2.4-8.6,4.9-13,6.9c-9.3,4.1-19.2,6.5-29,9.1
	c-2.5,0.7-5.2,0.7-7.9,0.9C217.3,371.9,216.2,371.8,215.7,370.5z M234,295.7c3.2-1,6.2-1.6,8.9-2.8c6.3-2.6,12.4-5.4,18.6-8.3
	c4.7-2.2,9.2-4.7,13.9-6.8c9.5-4.4,18.5-9.7,27.2-15.5c1.7-1.1,3.3-2.4,4.8-3.7c0.9-0.8,1.7-1.9,2.1-3c2-5.5,4-11,5.7-16.6
	c0.8-2.5,0.9-5.2,1.3-7.8c0.1-0.6-0.1-1.4-0.4-2c-2.9-4.6-7-7-12.6-7c-7.7,0-14.8,2.1-21.5,5.6c-4.6,2.4-8.5,5.8-11.6,10
	c-1.5,2-3.1,4-4.9,5.6c-9.4,8.2-19.4,15.7-29.9,22.5c-1.4,0.9-2.9,1.5-4.3,2.2C232.6,277.3,233.9,286.3,234,295.7z M261.2,246
	c-5.2-6.3-11.8-9.4-19.4-10.7c-7.6-1.3-15-0.6-22.3,1.9c5.9-3.1,12.2-3.5,18.7-3.1c9.3,0.7,17.4,4,23.7,11.3c1.3-1.1,2.5-2.1,4-3.3
	c-6.2-6.1-13.3-9.9-21.4-11.8c-8.1-1.9-16.3-2.5-24.3,0.8c7.9-4.3,16.2-3.5,24.3-1.7c8.3,1.9,15.8,5.7,21.8,12.2
	c0.5-0.6,0.9-1,1.3-1.5c-4.1-5.4-9.2-9.5-15.2-12.3c-6.7-3.1-13.4-5.6-20.9-4.9c-2.9,0.3-5.8,0.5-8.5,1.3c-3.8,1.2-6.6,4-8.9,7.3
	c0.7,2.4,1.3,4.8,2,7.2c1.5,5.2,3.9,9.9,7.4,13.9c2.7,3.1,4.7,6.6,6,10.5c0.4,1.3,0.9,2.6,1.5,4.1c3.1-0.9,5.4-2.7,8.1-4.5
	c-2-1.4-4-1.8-6.6-2c3.1-0.8,5.2,0.6,7.5,1.5c1.5-1.1,3-2.2,4.8-3.4c-3.9-3.1-8.2-3.5-12.6-3.4c4.8-1.2,9.2-0.2,13.3,2.9
	c1.8-1.6,4.1-2.6,5.9-4.6c-7.9-4.4-16.2-4.3-24.6-3.9c8.8-1.5,17.3-1,25.5,3.6c1-0.8,2.1-1.6,3.3-2.5c-1.9-2.2-4-3.7-6.4-4.9
	c-5.9-2.8-12-3.8-18.5-3.1c-0.9,0.1-1.9,0.2-2.8,0.3c10.6-2.1,20.3-0.6,28.4,7.1C257.8,248.8,259.4,247.5,261.2,246z M217.3,357.9
	c2.2,0.9,4.1,0.2,6-0.2c7.3-1.5,14.5-3.1,21.7-4.6c2.5-0.5,5-1,7.6-1.5c-5.6,2.2-11.6,3-17.4,4.4c-5.9,1.4-11.8,2.9-17.9,3.1
	c-0.1,4.1-0.8,8.1-0.3,12.3c2.1-0.2,4-0.1,5.8-0.5c4.5-1.1,8.9-2.3,13.3-3.6c10.5-3,21-6,30.3-12c0.7-0.4,1.4-0.8,2.6-1.5
	c-1.6-0.4-2.5-0.7-3.5-1c-10.5-2.9-20.7-6.5-30.6-10.9c-3.8-1.7-7.4-3.7-10.3-6.7c-0.8-0.9-1.9-1.6-2.9-2.4
	c-1.5,3.1-3.9,11.8-3.2,14.8c6.1,1.2,12-0.4,17.9-2c-1.7,1.4-3.7,2-5.8,2.4c-2.1,0.4-4.2,0.8-6.2,0.9c-2,0.1-4.1-0.3-6.3-0.5
	C217.8,351.4,217.5,354.6,217.3,357.9z M345.1,519c-0.2-0.1-0.4-0.1-0.6-0.2c-4.5,2.9-9,5.8-12.7,9.8c-1.4,1.5-2.8,3-3.9,4.7
	c-1.4,2.1-1.6,4,1.8,4.8c0.6,0.1,1.2,0.3,1.8,0.4c2.3,0.2,4.7,0.3,7,0.5c3.1,0.2,6.2,0.7,8.9,2.5c0.2,0.1,0.5,0.1,1,0.2
	c-0.1-1-0.1-1.9-0.3-2.7c-0.3-1.2-0.7-2.4-1.1-3.6c-1.3-3.8-2.2-7.6-2-11.7C345.2,522.1,345.1,520.5,345.1,519z M325,573.3
	c-3.3,4.8-6.7,9.6-10,14.4c-0.7,1-1.2,2-1.7,3.1c-0.2,0.5-0.2,1.1-0.3,1.8c0.5,0.1,0.8,0.2,1.1,0.2c1.6,0,3.3-0.2,4.9-0.2
	c2.1,0,3,0.9,3,3c0,1-0.1,1.9-0.2,3.1C324.1,595.3,326.1,580.5,325,573.3z M221.8,223.6c-0.9-2.9-1.6-5.8-2.5-8.6
	c-2.9-8.9-5.2-18-4.6-27.5c0-0.7-0.2-1.5-0.3-2.5c-0.8,0.4-1.4,0.7-1.7,0.9c0.5,13.5,3.4,26.1,6.9,38.9
	C220.5,224.4,221.1,224,221.8,223.6z M230,107.5c0.5,0,1.1,0.2,1.5,0.1c1.4-0.4,2.7-0.8,4,0.2c0.3,0.2,0.9,0.1,1.3-0.1
	c2.9-1.2,5.1-4.8,5-8.2c-0.6,0.7-1,1.8-1.7,2c-0.8,0.3-1.9-0.2-2.6-0.2C234.9,103.4,232.6,105.3,230,107.5z M352.2,505.9
	c2.5,1.9,5.5,0.5,7.8,2.4c0.6-2.6,0.2-4.7-0.3-7.1C357.1,502.8,354.8,504.2,352.2,505.9z M278.7,100.6c0.1,6.6-0.6,13.2,0.8,19.8
	C280.2,113.8,281.2,107.1,278.7,100.6z M290.7,117.3c0.2,0,0.3,0.1,0.5,0.1c0.6-1.3,1.5-2.6,1.6-3.9c0.2-1.5-0.9-2.8-2.2-4.2
	C290.7,112.3,290.7,114.8,290.7,117.3z M247.6,104.3c-1.3,0.1-2.5,0.3-3.8,0.4c-0.2,0.6-0.3,1.2-0.5,2c1.6,0.4,3.4-0.2,4.3,1.7
	C247.6,107,247.6,105.7,247.6,104.3z M224.7,98.5c0.3,0.9,0.8,1.1,1.6,0.7c1.8-0.7,3.3-1.7,4-3.8C228.3,96.6,226.5,97.5,224.7,98.5z
	 M375.9,484c-0.3-1.7-0.6-3-0.9-4.6c-1.2,0.7-2,1.4-1.8,2.6C373.4,483.2,374.5,483.5,375.9,484z M225.9,109.7
	c-3.1,0.2-5.8,0.3-8.9,0.4C220.2,111.1,222.9,110.8,225.9,109.7z M254.9,106.3c-1.3,1.9-2.5,3.6-3.8,5.5
	C253.7,110.3,254.5,109.2,254.9,106.3z M232.5,102.3c0.1,0.2,0.2,0.3,0.3,0.5c1.7-0.2,2-0.4,2.3-2.2
	C234.2,101.2,233.3,101.7,232.5,102.3z M221.3,132c0.1,0.1,0.3,0.2,0.4,0.3c0.8-0.9,1.6-1.7,2.4-2.6
	C223,130.3,221.7,130.6,221.3,132z M263.3,92.4c-0.1-0.1-0.2-0.2-0.4-0.3c-0.4,0.5-0.9,1-1.3,1.5c0.1,0.1,0.2,0.2,0.4,0.3
	C262.4,93.4,262.8,92.9,263.3,92.4z"/>
<path d="M461.2,724.3c-5,4-10.6,5.8-17,5.1c-2.7-0.3-5.4-0.4-8.2-0.5c-6-0.2-11.8-1.1-17.6-2.4c-2.2-0.5-4-1.6-5.4-3.5
	c-1.6-2.2-4.3-2.9-6.9-1.6c-1.2,0.6-2.2,1.5-3.4,2.1c-2,1.1-4.2,2.1-6.2,3.2c-1.6,0.8-3.2,1.7-4.6,2.7c-2.2,1.6-4.3,3.4-6.3,5.3
	c-5.6,5.3-12.6,7.7-20,8.9c-10,1.6-20,1.8-30.1,2c-0.2,0-0.5,0-0.7,0c-3.6-0.1-4-0.5-3-4c0.4-1.4-0.2-2.4-1.2-3.2
	c-2.6-2-5.4-3.4-8.4-4.5c-5.6-2-11.4-2.6-17.3-1.8c-3.6,0.5-7.3,0.6-11,1c-2.9,0.3-3.4,1.3-1.7,3.7c1.6,2.4,3.8,4.1,6.6,5.1
	c1.8,0.6,3.7,1.3,5.5,2.1c1,0.5,2.2,1,2.1,2.4c-0.1,1-1.3,1.8-2.9,2c-3.7,0.3-7.2-0.4-9.9-3.1c-1.4-1.4-3-2.2-5-2.3
	c-1.9-0.1-3.7-0.3-5.6-0.2c-3.1,0.1-6-0.6-8.9-1.6c-1.9-0.7-3.9-1.2-5.8-1.7c-4-0.8-8.1-0.8-12,0.6c-3,1-6,1.1-9,0.3
	c-4-1.1-7.9-2.3-11.5-4.4c-2.4-1.4-5-2.5-7.7-3.5c-3.3-1.3-6.5-0.6-9.3,1.4c-2.1,1.4-2.2,2.5-0.1,3.9c1.5,1.1,3.3,1.8,4.9,2.7
	c1.6,0.9,3.2,1.6,4.6,2.7c1.8,1.4,1.7,2.8,0,4.3c-2.8,2.5-6.1,3.5-9.7,3.4c-3.6-0.1-7.2-0.6-10.7-1.2c-3.3-0.6-6.3-2.2-8.8-4.7
	c-2.1-2.1-4.6-3.2-7.5-3.2c-1.6,0-3-0.6-4.2-1.7c-1.5-1.3-3.1-2.6-4.7-3.9c-2-1.6-4.3-2.4-6.9-2.4c-2.7,0-5.3-0.2-8-0.2
	c-1.4,0-2.8,0.1-4.2,0.3c-0.8,0.1-1.5,0.7-2.6,1.2c0.8,0.9,1.3,1.6,2,2c1.9,1.4,3.9,2.6,5.8,3.9c0.3,0.2,0.6,0.3,0.8,0.5
	c0.5,0.5,1.3,1.1,1.3,1.7c0,1-1,1.3-1.9,1.4c-3.6,0.8-7.3,0.9-10.9-0.3c-3.4-1.1-6.7-1.3-10.1-0.7c-5.7,1-11.4,1.8-17.1,2.7
	c-4.8,0.8-9.6,0.8-14.3-0.9c-1.7-0.6-3.3-1.3-4.5-2.8c-1-1.3-1.3-2.7-0.6-4.2c2.1-4.3,4.3-8.6,6.4-12.9c0,0-0.1,0-0.1,0
	c-0.4,1.1-0.7,2.2-1.1,3.3c-1.3,3-2.8,5.9-4.1,8.9c-1.3,2.9-0.6,4.9,2.2,6.3c2.9,1.4,6,2.1,9.3,2.2c4.3,0.2,8.5-0.9,12.7-1.6
	c5.1-0.8,10.2-1.5,15.3-2.1c1.4-0.2,3,0.3,4.3,0.7c3.7,1.3,7.5,1.5,11.3,1c0.9-0.1,1.7-0.5,3.1-1c-1.1-0.7-1.7-1.2-2.3-1.6
	c-2.2-1.6-4.6-3-6.7-4.7c-1.7-1.4-1.6-2.6,0.2-4.3l-0.1-0.1c0,0.2,0,0.5,0,0.8c4.4-1,8.7-0.2,13.1-0.4c3.2-0.1,6,0.9,8.4,2.9
	c1.1,1,2.3,1.8,3.4,2.9c1.6,1.6,3.5,2.4,5.7,2.4c2.6,0,4.7,1,6.5,2.8c3.5,3.4,7.8,5.1,12.6,5.7c3.5,0.5,7,1,10.5,0.1
	c2.1-0.6,4.2-1.4,5.8-2.9c1.3-1.2,1.4-2.1,0-3.3c-1.1-0.9-2.4-1.7-3.8-2.3c-2.4-1.1-4.9-2.1-6.8-4c-0.2-0.2-0.4-0.3-0.6-0.4
	c-0.2,0-0.4,0-0.5,0.1c0.9-6.8,1.8-13.7,2.8-20.5c0.1,0,0.2,0,0.4,0c-0.6,5.7-1.2,11.4-1.8,17.2c0.6-0.3,1.1-0.6,1.6-0.9
	c3.3-1.9,6.7-2.4,10.3-0.8c3,1.4,5.9,2.8,8.8,4.3c4,2,8.2,3.4,12.7,3.8c1.6,0.1,3.3-0.2,4.8-0.6c6.2-2,12.2-1.4,18.1,0.8
	c3.7,1.4,7.4,1.9,11.2,1.9c1,0,2,0.1,3,0.1c2.5-0.1,4.5,0.8,6.3,2.6c2.3,2.3,5.2,3,8.4,2.9c1.2,0,2.3-0.2,3.2-1.7
	c-0.7-0.5-1.3-1.2-2.1-1.5c-1.7-0.7-3.5-1.4-5.3-2c-2.9-1-5.2-2.9-6.9-5.4c-0.3-0.4-0.5-0.8-0.7-1.2c-0.7-1.6-0.4-3.4,2.1-3.5
	c4.4-0.2,8.7-0.5,13.1-1.1c5.8-0.8,11.4,0,16.8,2.1c2.7,1.1,5.3,2.6,7.8,4.1c2.4,1.5,2.6,2.4,1.7,5.1c-0.1,0.4-0.2,0.7-0.4,1.1
	c0.9,1.3,2.2,1.2,3.4,1.2c4.6-0.1,9.2-0.2,13.8-0.5c5.8-0.4,11.5-0.8,17.2-1.7c7.1-1.1,13.7-3.5,19.1-8.7c1.4-1.4,3-2.5,4.5-3.8
	c2.4-2.1,4.9-3.7,7.9-4.8c2.3-0.9,4.3-2.4,6.5-3.7c1.6-1,3.1-1.7,5.1-1.5c1.7,0.2,3.2,0.8,4.2,2.3c1.3,2,3.1,3,5.4,3.4
	c5.4,1.1,10.9,2.2,16.4,2.2c7.7,0,13.6-3.6,18.4-9.2c1.4-1.6,1.9-3.9,2.8-5.8c0.5-0.9,1-1.8,1.5-2.8c-0.4,1.3-0.8,2.5-1.1,3.8
	c-0.7,2.7-2.1,5-4.1,6.9c-3.1,2.9-6.4,5.4-10.5,6.7c-0.3,0.1-0.6,0.3-1,0.5c0.1,0.2,0.1,0.3,0.2,0.3c1,0.1,2,0.1,3,0.3
	c5.4,0.8,10.1-0.7,14.6-3.6C459.8,724.8,460.5,724.6,461.2,724.3z"/>
<path class="st0" d="M461.2,724.3c-0.7,0.3-1.5,0.5-2.1,0.9c-4.4,2.9-9.2,4.4-14.6,3.6c-1-0.1-2-0.2-3-0.3c0,0-0.1-0.1-0.2-0.3
	c0.3-0.2,0.6-0.4,1-0.5c4.1-1.3,7.5-3.8,10.5-6.7c2-1.9,3.4-4.3,4.1-6.9c0.3-1.3,0.8-2.5,1.1-3.8c0,0-0.1,0.1-0.1,0.1
	c0.7-0.7,1.3-1.3,2-2l-0.1,0.1c1.2-0.2,2.4-0.3,3.6-0.5c0.1,0.1,0.1,0.1,0.2,0.2c0.1,1,1,1.3,1.8,1.5c1.2,0.3,2.3-0.1,3.2-0.8
	c0.2-0.1,0.4-0.1,0.6-0.2c0.8-0.6,1.6-1.1,2.4-1.7c0,0-0.1,0.1-0.1,0.1c0.7-0.5,1.4-1,2.1-1.5c0.4-0.2,0.8-0.4,1.2-0.6
	c1.3-0.9,2.5-1.8,3.8-2.6c0,0-0.1,0.1-0.1,0.1c1.6,0.7,2.2,2,1.9,4.1c-0.1,0.9-0.3,1.8-0.4,2.7c-0.5,0.9-0.9,1.8-1.4,2.7
	c-0.7,1-1.4,2.1-2.2,3.1c-0.7,0.7-1.4,1.4-2.1,2.1c-2.2,1.3-4.4,2.7-6.6,4l0.1-0.1c-1.7,0.4-3.6,0.6-4.8,2.2
	C462.5,723.6,461.9,723.9,461.2,724.3z"/>
<path d="M478.9,697.3c-1-0.3-0.9-1.3-1.2-2.1c-4.3-12.9-9.1-25.6-14.6-38c-10.2-22.9-21.4-45.3-33.3-67.4
	c-9.6-17.9-18.3-36.2-26.4-54.8c-4.1-9.3-7.5-18.8-11.5-28.2c-2.4-5.6-5.2-11-7.7-16.5c-1.2-2.6-2.3-5.3-3.2-8.1c0.5,1,1.1,2,1.6,3
	c6.9,14.5,13.7,29.1,19.3,44.2c4.1,11,9.6,21.3,14.5,31.9c8.8,19,19.1,37.2,28.5,55.9c10.1,20.1,19.6,40.4,27.6,61.5
	c2,5.4,3.7,10.9,5.5,16.4C478.4,695.9,478.6,696.6,478.9,697.3C478.9,697.4,478.9,697.3,478.9,697.3z"/>
<path d="M331.7,732.9c-3.8-23.9-7.1-47.8-8.1-72c1.2,12,2.3,24.1,3.7,36.1c1.4,12,3.2,23.9,4.9,35.9
	C332,732.9,331.8,732.9,331.7,732.9z"/>
<path d="M421.9,602.1c0.5,0.9,1,1.7,1.4,2.6c6.4,16.2,12.8,32.5,19.3,48.8c1.6,3.9,3.2,7.8,4.8,11.7c0.2,0.5,0.3,1,0.4,1.6
	c0,0,0,0,0,0c-0.4-0.6-0.9-1.2-1.2-1.9c-6.5-16.2-13-32.3-19.5-48.5c-1.6-4-3.1-8-4.6-12C422.2,603.6,422.1,602.9,421.9,602.1
	C421.9,602.1,421.9,602.1,421.9,602.1z"/>
<path d="M352.8,614.4c-0.2-0.6-0.5-1.1-0.6-1.7c-1.1-8.8-2.2-17.6-3.2-26.4c-0.6-5.3-1-10.5-1.4-15.8c-0.1-1.1,0-2.2,0.1-3.3
	c0.2,1.6,0.4,3.2,0.6,4.8c1.2,11.9,2.5,23.9,3.7,35.8C352.2,609.9,352.5,612.1,352.8,614.4L352.8,614.4z"/>
<path d="M375.7,541.9c-0.3-0.7-0.8-1.4-1-2.2c-2.2-8.3-4.4-16.6-6.6-24.9c-1-3.4-2.2-6.8-3.3-10.2l-0.1,0c0.5,0.8,1.1,1.4,1.3,2.3
	c1.6,5.1,3.3,10.2,4.7,15.4c1.6,5.8,3,11.7,4.5,17.6C375.4,540.6,375.5,541.3,375.7,541.9C375.7,542,375.7,541.9,375.7,541.9z"/>
<path d="M291.4,731.2c0-11.4,0-22.7,0-34.6C292,703.2,292.2,728.5,291.4,731.2z"/>
<path d="M382.1,521.5c-3.2-8.6-6.5-17.1-8.1-26.2C376.7,504.1,379.4,512.8,382.1,521.5z"/>
<path d="M403.9,658.1c-0.3-0.6-0.8-1.1-0.9-1.7c-1.3-6.6-2.6-13.1-3.9-19.7c-0.1-0.3,0-0.6,0.2-1
	C400.8,643.2,402.3,650.7,403.9,658.1L403.9,658.1z"/>
<path d="M161.9,732.5c0.1-0.4,0.1-0.8,0.2-1.1c2-3.5,4-7,6-10.5c0.1-0.2,0.3-0.3,0.6-0.4C166.7,724.7,164.9,728.9,161.9,732.5
	C161.9,732.4,161.9,732.5,161.9,732.5z"/>
<path d="M480,709.2c0.1-0.9,0.3-1.8,0.4-2.7c0.3-2.1-0.3-3.4-1.9-4.1c0.6-0.7,0.7-1.4,0.5-2.3c-0.2-0.9-0.1-1.8-0.2-2.7c0,0,0,0,0,0
	c0.4,1.3,0.6,2.7,1.2,4C481.4,704,481.3,706.6,480,709.2z"/>
<path d="M467.8,721.2c2.2-1.3,4.4-2.7,6.6-4c-0.1,0.3-0.1,0.7-0.3,0.8C472.2,719.4,470.2,720.7,467.8,721.2z"/>
<path d="M405.4,665.5c0.4,1.5,0.7,3.1,1.1,4.6c-0.1,0-0.2,0-0.3,0.1c-0.4-1.5-0.7-3.1-1.1-4.6C405.2,665.6,405.3,665.5,405.4,665.5z
	"/>
<path d="M468.6,708.9c-1,0.7-2,1.1-3.2,0.8c-0.8-0.2-1.7-0.5-1.8-1.5C465.1,709.7,466.9,708.9,468.6,708.9z"/>
<path d="M463.2,723.3c1.2-1.6,3-1.8,4.8-2.2C466.3,721.8,464.8,722.5,463.2,723.3z"/>
<path d="M478.7,702.3c-1.3,0.9-2.5,1.8-3.8,2.6C475.6,703.3,477.2,702.8,478.7,702.3z"/>
<path d="M378.3,477.9c0.7,0.9,1.4,1.8,2.1,2.8c-0.2,0.1-0.4,0.2-0.5,0.3C379.3,480,378.8,478.9,378.3,477.9
	C378.3,477.9,378.3,477.9,378.3,477.9z"/>
<path d="M403.8,658.1c0.3,1.2,0.5,2.4,0.8,3.6C403.9,660.6,403.4,659.4,403.8,658.1C403.9,658.1,403.8,658.1,403.8,658.1z"/>
<path d="M413.3,581.7c1.4,0.6,1.3,1.9,1.6,3l0.1,0C414.4,583.6,413.9,582.6,413.3,581.7L413.3,581.7z"/>
<path d="M476.5,715c0.7-1,1.4-2.1,2.2-3.1C478.5,713.4,477.9,714.5,476.5,715z"/>
<path d="M449.1,670.1c0.5,1,1.1,2.1,1.6,3.1l0.1-0.1C449.6,672.4,449.3,671.3,449.1,670.1L449.1,670.1z"/>
<path d="M450.6,673.2c0.4,0.9,0.8,1.8,1.3,2.7C451.2,675.1,450.4,674.3,450.6,673.2C450.7,673.2,450.6,673.2,450.6,673.2z"/>
<path d="M449.1,670.1c-0.4-1.1-0.9-2.3-1.3-3.4c0,0,0,0,0,0C448.2,667.9,448.6,669,449.1,670.1C449.1,670.1,449.1,670.1,449.1,670.1
	z"/>
<path d="M375.7,542c0.3,0.9,0.6,1.7,0.8,2.6C375.7,543.8,375.4,543,375.7,542C375.7,541.9,375.7,542,375.7,542z"/>
<path d="M463.4,708c-1.2,0.2-2.4,0.3-3.6,0.5C460.9,707.2,462.1,707.2,463.4,708z"/>
<path d="M352.8,614.4c0.1,1,0.1,2,0.2,3c-0.1,0-0.1,0-0.2,0C352.8,616.4,352.8,615.4,352.8,614.4
	C352.8,614.4,352.8,614.4,352.8,614.4z"/>
<path d="M460,708.4c-0.7,0.7-1.3,1.3-2,2C458.2,709.3,458.9,708.7,460,708.4z"/>
<path d="M471.7,707c-0.8,0.6-1.6,1.1-2.4,1.7C469.7,707.6,470.6,707.3,471.7,707z"/>
<path d="M413.4,581.6c-0.2-0.5-0.4-1.1-0.6-1.6c0.1,0,0.2,0,0.3-0.1C413.1,580.5,413.2,581.1,413.4,581.6
	C413.3,581.7,413.4,581.6,413.4,581.6z"/>
<path d="M291.4,693.9c0-0.2,0-0.5,0-0.7C291.4,693.4,291.5,693.7,291.4,693.9C291.5,693.9,291.4,693.9,291.4,693.9z"/>
<path d="M414.9,584.7c0.3,0.6,0.6,1.2,1,1.8c-0.2,0.1-0.3,0.1-0.5,0.2C415.3,586,415.1,585.3,414.9,584.7
	C415,584.7,414.9,584.7,414.9,584.7z"/>
<path d="M417.5,590.1c-0.4-0.4-0.9-0.8-1.3-1.2c0.1-0.1,0.2-0.2,0.3-0.3C416.9,589.1,417.2,589.6,417.5,590.1
	C417.5,590.1,417.5,590.1,417.5,590.1z"/>
<path d="M418.3,592.6c-0.9-0.6-1.3-1.4-0.8-2.5c0,0,0,0,0,0C417.8,590.9,418,591.8,418.3,592.6C418.2,592.6,418.3,592.6,418.3,592.6
	z"/>
<path d="M418.2,592.6c0.3,0.8,0.6,1.6,1,2.3l0.1,0C418.4,594.4,418.1,593.6,418.2,592.6C418.3,592.6,418.2,592.6,418.2,592.6z"/>
<path d="M419.2,595c0.3,0.8,0.6,1.6,0.9,2.4c0,0,0,0,0,0C419.3,596.7,419.1,595.9,419.2,595C419.3,594.9,419.2,595,419.2,595z"/>
<path d="M473.7,705.6c-0.7,0.5-1.4,1-2.1,1.5C472.3,706.6,473,706.1,473.7,705.6z"/>
<path d="M364.7,504.7c-0.3-0.5-0.6-1-0.8-1.5c0.1,0,0.3-0.1,0.4-0.1C364.4,503.6,364.5,504.1,364.7,504.7
	C364.7,504.7,364.7,504.7,364.7,504.7z"/>
<path d="M421.1,599.7c-0.8-0.6-1.1-1.4-0.9-2.4c0,0,0,0,0,0C420.4,598.1,420.7,598.9,421.1,599.7L421.1,599.7z"/>
<path d="M421,599.7c0.3,0.8,0.6,1.6,0.8,2.5c0,0,0,0,0,0C421.6,601.3,421.4,600.5,421,599.7C421.1,599.7,421,599.7,421,599.7z"/>
<path d="M353.2,620.9c0-0.4,0-0.7,0-1.1c0.1,0,0.1,0,0.2,0c0,0.3,0.1,0.7,0.1,1C353.4,620.8,353.3,620.8,353.2,620.9z"/>
<path d="M117.8,725.4c0.2-0.6,0.3-1.2,0.5-1.8c0.1,0.1,0.3,0.1,0.4,0.2C118.4,724.3,118.1,724.8,117.8,725.4
	C117.8,725.3,117.8,725.4,117.8,725.4z"/>
<path class="st0" d="M344.2,418.4c0.1,0.4,0.2,0.7,0.4,1.1c2.1,3.5,4.3,7.1,6.5,10.6c1.7,2.7,3.4,5.5,5.3,8
	c6.2,8,12.6,15.9,18.9,23.9c2.2,2.8,4.2,5.6,6.3,8.5c1,1.4,0.9,1.8-0.4,3c-1,0.9-2.1,1.7-3.2,2.4c-1.9,1.4-3.8,2.7-5.7,4
	c-1.6-4.7-3.1-9.8-5-14.7c-1.8-4.9-4.3-9.5-7.2-13.9c0.3,0.5,0.5,1.1,0.8,1.6c3.4,6.7,6.6,13.4,8.7,20.7c0.7,2.5,1.3,5,1.9,7.5
	c0.3,1.6,1.1,2.8,2.6,3.6c2,1.1,2,1.9,0.5,3.6c-0.4,0.5-0.9,0.9-1.4,1.2c-4.6,3.5-9.1,7-13.8,10.5c-2.4,1.8-5,3.4-7.9,5.2
	c-0.7-1.6-1.4-2.8-1.8-4.1c-1.4-4.8-2.8-9.6-3.9-14.5c-3.2-14.1-7-28-11.3-41.8c-0.4-1.4-0.8-2.8-1.6-4.1c0.7,2.7,1.4,5.4,2.2,8
	c4.2,13.7,7.7,27.5,10.6,41.5c0.6,3,1.4,5.9,2.4,8.8c0.8,2.5,1.9,4.9,3,7.3c0.3,0.6,1.1,1.2,1.7,1.4c1.2,0.4,2.4,0.4,3.7,0.6
	c0.7,0.1,1.4,0.3,2.2,0.4c-0.1,1.5-1.1,1.8-1.9,2.1c-7,2.9-13.1,7.3-19.2,11.6c-4.5,3.2-8.4,7-11.6,12.2c-0.2-1.6-0.6-2.9-0.6-4.1
	c0.1-6.6,0.1-13.1,0.6-19.7c0.6-8.4,1-16.8,0.9-25.3c-0.2-9.9-0.6-19.8-1.1-29.7c-0.3-5.5-0.8-11-2.3-16.4c0.2,1.3,0.3,2.6,0.5,3.9
	c1.2,10.3,1.9,20.7,2,31.1c0.1,9.4,0,18.9-0.2,28.3c-0.1,5.1-0.7,10.3-1,15.4c-0.4,5.8-0.4,11.5,0.6,17.3c0.3,1.7,1,2.9,2.8,3.3
	c2.1,0.4,4.1,0.8,6.2,1.1c2.2,0.3,4.5,0.2,6.8,0.5c1.7,0.3,3.4,0.8,4.9,1.5c1.8,0.9,2,1.9,0.9,3.6c-1,1.4-2.1,2.7-3.3,3.9
	c-11.3,11.4-20.3,24.5-29.3,37.7c-0.9,1.3-1.6,2.7-2.2,4.1c-0.6,1.5-0.1,2.4,1.5,2.7c1.2,0.2,2.5,0,3.7-0.1c3.6-0.3,4.3,0.4,3.5,3.9
	c-1.5,6.2-4.2,11.9-7.8,17.2c-0.8,1.1-1.6,2.2-2.4,3.2c-6.8,8.1-13.7,16.2-20.5,24.3c-4.9,5.9-10.9,10.3-18,13
	C260,660,248.4,665.8,237,672c-8.6,4.7-17.8,8-27,11.2c-7.2,2.5-14.5,5-21.8,7c-5.5,1.5-11.2,2.2-16.7,3.3c-4.8,1-9.6,2-14.4,3
	c-1.7,0.4-3.4,0.8-5.6,1.2c0.6-3.5,1-6.6,1.6-9.7c4.1-18.7,8.4-37.3,12.5-55.9c5.1-23.2,10.2-46.3,15.4-69.5
	c3.7-16.4,7.6-32.7,11.4-49c1.7-7.4,3.2-14.9,4.7-22.4c0.5-2.6,0.7-5.2,1.1-8.2c-0.4,0.4-0.6,0.6-0.6,0.7
	c-1.3,11.3-4.2,22.2-6.7,33.2c-4.9,21.3-9.7,42.6-14.5,63.9c-5.7,25.1-11.5,50.2-17.1,75.3c-2.5,11-4.7,22.1-7,33.2
	c-0.5,2.4-0.8,4.8-1.2,7.2c-0.3,2.3,0.2,2.7,2.4,2.5c0.7-0.1,1.4-0.2,2-0.3c1.4,3.2,0.2,7.7-2.7,9.8c-2.9,2.1-6,3.8-9.5,5
	c-8,2.6-16,4.6-24.4,5.5c-1.7,0.2-3.4,0.2-5.1,0.2c-2.1-0.1-2.8-0.9-2.4-2.9c0.8-3.7,1.7-7.5,2.9-11.1c3.5-10.9,7.1-21.7,10.7-32.5
	c5.1-15.3,9.7-30.8,13.4-46.6c3.8-16.3,8.6-32.3,14.3-48c2.9-7.9,6-15.7,9.1-23.6c3.4-8.6,7-17,10.3-25.6
	c3.7-9.5,8.5-18.4,12.9-27.5c1.1-2.3,2-4.8,2.9-7.1c0.2-0.4,0.1-0.9,0-1.4c-1.7,5.7-5.1,10.7-8.1,15.8c0-0.5-0.2-1-0.1-1.5
	c1-4.3,1.9-8.7,3.2-12.9c1.5-5,4.8-8.7,9.4-11.2c2.5-1.3,5-2.6,7.5-3.8c11-4.9,22-9.6,33-14.5c7.1-3.1,14.2-6.1,21.1-9.6
	c11.2-5.6,21.1-12.9,30.7-20.9c7.3-6.2,15.1-11.9,22.7-17.7c8.5-6.5,16.4-13.4,24.2-20.7c0.2-0.2,0.5-0.4,0.9-0.7
	c0.4,0.7,0.7,1.3,1,1.9c2.3,5.2,4.9,10.3,8.6,14.7c1.8,2.1,1.8,2.5,0.4,5c-1.5,2.6-3.6,4.7-6,6.5c-5.5,4.1-11,8.3-16.6,12.1
	c-9.5,6.4-20,11.2-30.4,16c-5.2,2.4-10.5,4.7-15.8,7.1c-0.5,0.2-0.9,0.7-1.3,1c-0.8-0.3-1.4,0-1.8,0.8c0.6-0.3,1.2-0.6,1.8-0.9
	c1.9-0.7,3.8-1.3,5.7-2.2c8.3-3.7,16.6-7.3,24.7-11.1c12.1-5.7,23.3-12.9,33.7-21.3c2.6-2.1,5-4.2,6.9-7.1
	C343.5,418.1,343.9,418.3,344.2,418.4C344.3,418.5,344.2,418.4,344.2,418.4z M308.9,586.7c0.1,0,0.3,0,0.4,0c0-1.2,0-2.3,0-3.5
	c0-4.8-0.3-9.5-0.1-14.3c0.4-8.3,1-16.5,1.7-24.8c0.4-5.4,1-10.7,1.6-16.1c0.8-7.4,1.9-14.7,2.5-22.1c0.9-10.9,1.6-21.8,2.2-32.7
	c0.4-6.6,0.4-13.3,0.4-19.9c0-3.8-0.4-7.6-0.6-11.5c-0.3,0.9-0.3,1.7-0.3,2.6c0.1,5.1,0.4,10.2,0.2,15.2c-0.3,9.7-0.8,19.3-1.4,29
	c-0.4,6.5-1,13.1-1.6,19.6c-0.8,8.2-1.8,16.5-2.6,24.7c-0.6,6.1-1.1,12.3-1.6,18.4c-0.8,9.4-1.5,18.8-1.1,28.3
	C308.6,582,308.8,584.3,308.9,586.7z M300.8,477c1-9.8,3.9-19.3,3.8-29.2C303.9,457.6,301,467.1,300.8,477z M343.1,438
	c-0.1,0.1-0.3,0.1-0.4,0.2c2.6,5.5,5,11.2,8.1,16.5c0.1-0.1,0.3-0.1,0.4-0.2C348.5,449,345.8,443.5,343.1,438z"/>
<path class="st0" d="M215.7,370.5c0.5,1.3,1.6,1.4,2.6,1.3c2.6-0.2,5.3-0.3,7.9-0.9c9.8-2.6,19.7-5,29-9.1c4.5-2,8.7-4.5,13-6.9
	c1.1-0.6,2.1-0.8,3.3-0.5c9.8,2.7,19.8,4.4,29.8,5.8c5.4,0.8,10.7,2,15.7,4.4c1.3,0.6,2.5,1.2,3.6,2.1c0.9,0.7,1.9,1.7,2.4,2.8
	c2.4,5.5,5.3,10.6,8.4,15.6c0.6,0.9,1,2,1.5,2.9c0.9,1.9,0.7,3.7-0.7,5.2c-1.6,1.8-3.2,3.7-5,5.3c-5.9,5.1-11.8,10.3-17.8,15.2
	c-4,3.3-8.4,6.3-12.5,9.5c-5.1,4-10.2,8-15.1,12.3c-11.4,9.8-24,17.6-37.7,23.7c-12.3,5.5-24.7,11-37,16.4
	c-4.8,2.2-9.9,3.9-14.5,6.4c-5.4,3-9,7.3-11,13.1c-1.7,4.9-2.2,10-2.9,15.1c-0.1,0.6-0.3,1.3-0.8,1.9c-0.4-2.3-0.7-4.6-1-7
	c-0.4-3.3-0.9-6.6-1.2-10c-0.2-2.4,0.4-4.7,1.5-6.8c9.7-18.1,15.9-37.4,21-57.2c3.3-12.8,7.4-25.5,11-38.2
	C211.5,385.7,213.5,378.2,215.7,370.5z M298.2,394c0.4-0.2,0.9-0.4,1.2-0.6c2.6-2.2,5.2-4.3,7.6-6.5c5.4-5,8.8-11.4,11.7-18.1
	c0-0.1,0-0.3-0.1-0.6c-0.4,0.8-0.8,1.4-1.1,2.1c-3.8,8.1-9.1,15.2-16.2,20.8c-0.9,0.7-1.7,1.4-2.5,2.1
	C298.6,393.4,298.5,393.7,298.2,394c-0.5,0.4-1.1,0.7-1.6,1c0.1,0.1,0.2,0.3,0.3,0.4C297.4,394.9,297.8,394.5,298.2,394z
	 M286.3,380.8c0.8-0.1,1-0.1,1.2-0.1c7.7-3.4,14.3-8.2,20.1-14.3c0.9-1,1.6-2.1,2.4-3.2C303.2,370.4,295.1,375.6,286.3,380.8z
	 M294.4,396.8c0.1,0.1,0.2,0.2,0.2,0.3c0.4-0.3,0.7-0.6,1.1-0.9c-0.1-0.1-0.1-0.2-0.2-0.2C295.1,396.2,294.7,396.5,294.4,396.8z"/>
<path class="st0" d="M275.3,155.5c0.2,3,0.8,6,2,8.8c1.1,2.5,2.9,4.2,5.5,5.2c3.8,1.4,7.7,2.1,11.7,2.4c4.6,0.2,9.2,0.3,13.8,0.4
	c1.2,0,2.3,0,3.4,0c0.9,1.4,0.6,2.7,0.5,3.8c-0.9,5.7-1.7,11.4-2.8,17.1c-1.6,8.7-2.7,17.4-2.5,26.3c0,0.5,0,0.9-0.1,1.4
	c0,0.1-0.1,0.3-0.2,0.5c-15.5-0.2-28.7,4.8-38.4,18c-5.2-7.4-12.6-11.3-20.6-14.5c-8.2-3.3-16.4-3.2-25.1-1.4
	c-1.8-6.4-3.7-12.6-5.4-18.9c-1.8-6.4-1.6-13-1.9-19.8c1.9-0.9,3.8-1.9,5.8-2.6c7.4-2.6,13.5-7.2,19-12.6c1.1-1.1,2.2-2.2,3.4-3.3
	c2.7-2.6,5.1-5.5,5.6-9.5c0.4-3.2,1-6.3,1.5-9.4c0.3-1.7,0.9-3.5,0.6-5.1c-0.3-1.6-1.5-3-2.4-4.5c-1.5-2.6-1.5-5.5-1.9-8.4
	c-0.1-1-0.3-2-0.7-2.9c-0.1,0.3-0.2,0.6-0.3,1.1c-1.3,0.1-2.6,0.5-3.6-1.2c0.4-0.2,0.8-0.4,1.1-0.4c3.9-1,7.3-3,9.7-6.2
	c1.5-2.1,3.7-2.8,5.9-4.1c-0.5-0.5-0.9-0.8-1.3-1.2c0.9-1.6,0.9-1.6,3.3-0.9c-0.1-1.2-0.1-1.2-1.3-2.5c2.4-3.9,3.7-8.3,4.9-12.8
	c0.7-2.6,1.9-4.9,4.6-6.2c1.1-0.6,2-0.6,3,0.3c2.5,2.2,4.7,4.7,5.1,8.1c0.4,2.8,0.4,5.6,0.6,8.3c-2.9,1.1-5.8,1.3-7.8,3.6
	c2.4-0.6,4.8-1.1,7.5-1.8c0.1,1,0.2,1.6,0.2,2.3c-2.4,1-5.4-0.1-6.9,2.8c0.5-0.1,0.9-0.3,1.4-0.4c1,1.7,1.8,2.4,2.8,1.8
	c0.9-0.5,1.6-1.5,2.4-2.3c0.1,0.1,0.3,0.2,0.3,0.3c0.7,3.4,1.6,6.9,1.8,10.3c0.2,3-0.2,6.1-0.5,9.1c-0.4,4.1-2.2,7.4-5.2,10.2
	c-1.2,1.1-2.3,2.3-3.5,3.5c-1.9,1.8-4,3-6.7,2.6c-0.8-0.1-1.7-0.1-2.6-0.1c-1.4,0-2.1,1-1.4,2.1c1,1.6,2.1,3.1,3.4,4.4
	c1.2,1.3,2.9,1.5,4.6,1.3c2.3-0.3,4.4-1,6.2-2.6C274.1,155.6,274.6,155,275.3,155.5C275.4,155.6,275.3,155.5,275.3,155.5z
	 M264.7,129.9c0,0.2,0,0.3,0,0.5c0.7,0.2,1.4,0.5,2.1-0.7C265.9,129.8,265.3,129.8,264.7,129.9z M263.6,141.4c0,0.1,0,0.2,0.1,0.3
	c0.5-0.1,0.9-0.1,1.4-0.2c0-0.1-0.1-0.3-0.1-0.4C264.4,141.2,264,141.3,263.6,141.4z M259.4,137.8c0,0.1,0,0.2,0,0.3
	c0.5,0,1-0.1,1.5-0.1c0,0,0-0.1,0-0.1C260.4,137.8,259.9,137.8,259.4,137.8z"/>
<path class="st0" d="M265.9,285.3c1.1,0.9,2.3,1.8,3.7,2.9c-1.8,0.8-3.3,1.6-5,2.2c-5.4,1.9-10.9,3.8-16.4,5.7
	c-1.6,0.6-3.2,1.2-4.9,1.7c-2.4,0.7-4.8,1.3-7.2,2.1c1.3-0.1,2.6-0.1,3.8-0.4c2.5-0.7,5-1.6,7.6-2.5c4.7-1.6,9.5-3.1,14.2-4.8
	c2.9-1.1,5.8-2.4,9.1-3.7c1.5,0.9,3.5,2,5.4,3.2c5.1,3.4,10.4,6.4,16.5,7.5c1.9,0.4,3.8,0.9,5.7,1.3c1.2,0.3,1.8,0.9,1.9,2.2
	c0.5,4.7,1.1,9.5,3.2,13.8c1.5,3.1,2.8,6.3,4.7,9.2c5.9,9.4,8.7,19.8,10.7,30.5c0.5,2.8,1,5.7,1.5,8.4c-0.3,0.1-0.5,0.2-0.6,0.2
	c-6.7-3.4-13.9-4.9-21.3-6c-22-3.1-43.1-9.2-63.5-18.2c-4.9-2.2-9.1-5.3-13.4-8.9c1.1-1.9,2.1-3.8,3.2-5.7c3.3-5.3,5.6-11,7.1-17
	c0.7-3,1.1-6.1,1.6-9.2c0.2-1.1,0.3-2.3,0.4-3.5c0.6-0.2,1.1-0.5,1.6-0.6c7.5-1.6,14.3-4.8,21.3-7.8c1.6-0.7,3.3-1.5,4.8-2.4
	C263.1,284.8,264.4,284.5,265.9,285.3C266,285.4,265.9,285.3,265.9,285.3z M238.7,332.1c-2.2-2-4.8-3.2-7.5-4.2
	c-0.1,0.1-0.1,0.3-0.2,0.4C233.6,329.6,236.1,330.9,238.7,332.1c0.1,0.3,0.3,0.6,0.5,0.7c6.1,3.7,12.1,7.5,18.8,10
	c12.5,4.9,25.4,7.4,38.8,7.6c4.6,0.1,9.2,0,13.7,0c0-0.2,0-0.3,0-0.5c-0.7,0-1.4,0-2.1,0c-5.8-0.1-11.7-0.1-17.5-0.5
	c-9.9-0.6-19.6-2.8-29-5.9c-7.4-2.5-14.2-6.5-20.9-10.4C240.3,332.8,239.5,332.5,238.7,332.1z M303.7,321.9
	c-0.4,0.1-0.7,0.1-1.1,0.2c-3.3,0.8-6.6,1.1-10,1.2c-6.6,0.2-13.1-0.4-19.6-1.4c-10.6-1.7-21.1-3.7-31-7.8c-1.1-0.4-2.2-0.7-3.2-1.1
	c-0.1,0.1-0.1,0.3-0.2,0.4c2.7,1.1,5.4,2.2,8.1,3.2c10.6,3.7,21.5,5.9,32.6,7.1c6.2,0.7,12.5,0.8,18.7,0
	C300,323.4,302,323.1,303.7,321.9z M308.5,338.4c-0.6-0.1-0.7-0.2-0.9-0.2c-14.7,0.6-29-2.2-43.2-5.7c-8.3-2-16.1-5.3-23.9-8.9
	c-1.4-0.6-2.7-1.3-4.1-1.9C255.2,333.5,291.8,340.7,308.5,338.4z M238.9,308.4c5.2,1.5,10.5,2.4,15.9,2.6
	c10.8,0.4,21.5-0.3,32.2-1.9c3.5-0.5,6.9-1.5,10-2.9C277.9,310.6,258.5,312,238.9,308.4z M279.5,296c-0.1-0.1-0.2-0.3-0.3-0.4
	c-3.9,1-7.8,2.1-11.7,3.1c-9.1,2.4-18.1,4.6-27.7,3.6c-0.6-0.1-1.3,0.1-1.9,0.2c0,0.2,0,0.3,0,0.5c4.6,0,9.1,0.4,13.7-0.1
	c6-0.7,11.8-2.3,17.5-3.9C272.6,298.1,276.1,297,279.5,296z"/>
<path class="st0" d="M234,295.7c-0.1-9.5-1.4-18.5-2.8-27.6c1.4-0.7,2.9-1.4,4.3-2.2c10.5-6.8,20.5-14.3,29.9-22.5
	c1.9-1.6,3.5-3.6,4.9-5.6c3.1-4.2,7-7.5,11.6-10c6.7-3.5,13.8-5.6,21.5-5.6c5.6,0,9.7,2.3,12.6,7c0.3,0.5,0.5,1.3,0.4,2
	c-0.3,2.6-0.5,5.3-1.3,7.8c-1.7,5.6-3.7,11.1-5.7,16.6c-0.4,1.1-1.2,2.2-2.1,3c-1.5,1.4-3.1,2.6-4.8,3.7
	c-8.7,5.8-17.7,11.1-27.2,15.5c-4.7,2.2-9.2,4.7-13.9,6.8c-6.2,2.9-12.3,5.7-18.6,8.3C240.2,294.1,237.2,294.7,234,295.7z
	 M240.1,274c1-0.5,2.1-1,3.1-1.6c11.5-7.9,22.6-16.4,33.4-25.3c5.9-4.9,11.6-10.2,18.3-14.2c0.1-0.1,0.2-0.2,0.3-0.4
	c-1.9,0.7-3.6,1.7-5.1,2.8c-4,3.1-8,6.3-11.9,9.5c-11.8,9.9-24,19.2-36.7,27.9C241,273.2,240.6,273.7,240.1,274
	c-1.1,0.5-2.2,1-3.3,1.4c0.1,0.2,0.2,0.3,0.3,0.5C238.1,275.3,239.1,274.7,240.1,274z M304.3,251.5c-1.9,1.2-3.7,2.5-5.6,3.7
	c-17.7,11.8-36.8,21.1-56.3,29.6c-0.8,0.3-1.5,0.7-2.3,1c0.8,0.1,1.4-0.1,2.1-0.4c13.5-5.9,27.1-11.7,39.7-19.3
	c6.4-3.8,12.8-7.8,19.1-11.8C302.2,253.6,303.2,252.5,304.3,251.5c1.7-0.7,2.8-2.1,3.6-3.7C306.7,249.1,305.5,250.3,304.3,251.5z
	 M239.2,280.1c0.9-0.3,1.8-0.5,2.6-0.9c3.3-1.5,6.5-3.1,9.7-4.6c10.7-4.9,20.7-10.9,30-18.1c3.9-3.1,7.9-6.1,11.9-9.1
	c4.4-3.4,8.9-6.9,13.3-10.4c0.6-0.5,1.1-1,1.6-1.6c-2,1.1-3.7,2.5-5.4,3.8c-7.1,5.4-14.1,10.8-21.2,16.2
	c-8.1,6.2-16.4,11.9-25.7,16.2c-5.3,2.5-10.5,5.1-15.8,7.6C239.9,279.6,239.6,279.9,239.2,280.1c-0.6,0.2-1.2,0.3-1.9,0.5
	c0.1,0.2,0.1,0.3,0.2,0.5C238.1,280.8,238.6,280.5,239.2,280.1z M291.1,226.6c-2.7,1.2-4.9,3-7,5c-3.3,3.2-6.6,6.5-10.1,9.4
	c-8.2,6.9-16.6,13.7-25,20.5c-4.9,4-10,7.8-15.5,11c2-0.3,3.6-1.4,5.1-2.5c5.9-4.1,11.8-8.2,17-13.1c1.2-1.1,2.6-2,3.8-3.1
	c6.3-5.2,12.6-10.2,18.7-15.6C282.6,234.4,286.4,230,291.1,226.6z"/>
<path class="st0" d="M218.4,326.8c-0.5-2.2-0.8-4.4-1.5-6.6c-2.3-7.4-3.4-14.9-3.7-22.6c-0.3-7.2-0.8-14.3-1.3-21.5
	c-0.5-7.2-2.4-14-4.9-20.6c-2.3-6.3-5-12.5-7.4-18.7c-1.2-3.1-2.3-6.3-3.4-9.5c-1.1-3.3-2.2-6.7-3.2-10c-1.4-4.4-1.9-8.8-0.9-13.4
	c1.2-5.4,4.2-9.5,8.7-12.6c3.4-2.3,7.2-3.6,11.3-5.2c0.2,13.5,3.4,26.2,6.9,39.1c-1.7,1.6-3.5,3.3-5.4,5.1c-0.8-1.7-1.5-3.3-2.3-4.9
	c-0.1,0-0.2,0.1-0.4,0.1c0.1,0.4,0.3,0.9,0.4,1.3c1.5,3.6,2.8,7.3,3.7,11.1c1.2,5.3,3.4,10.2,7.1,14.3c4.6,5.1,7.2,11.2,8.4,17.8
	c1.5,7.9,2.6,15.9,2.6,23.9c-0.1,11.5-3,22.3-9.1,32.2c-1.1,1.9-2.2,3.8-3.5,6C219.7,330.2,219.1,328.4,218.4,326.8
	C218.4,326.7,218.4,326.8,218.4,326.8z"/>
<path class="st0" d="M261.2,246c-1.8,1.5-3.4,2.8-5.1,4.2c-8.1-7.6-17.9-9.2-28.4-7.1c0.9-0.1,1.9-0.2,2.8-0.3
	c6.4-0.7,12.6,0.3,18.5,3.1c2.4,1.1,4.6,2.6,6.4,4.9c-1.2,0.9-2.3,1.7-3.3,2.5c-8.2-4.6-16.7-5-25.5-3.6c8.4-0.4,16.7-0.5,24.6,3.9
	c-1.8,2.1-4.1,3-5.9,4.6c-4.1-3-8.5-4.1-13.3-2.9c4.4-0.1,8.7,0.3,12.6,3.4c-1.7,1.3-3.3,2.4-4.8,3.4c-2.3-0.9-4.4-2.2-7.5-1.5
	c2.6,0.2,4.6,0.6,6.6,2c-2.7,1.8-5,3.6-8.1,4.5c-0.5-1.5-1.1-2.7-1.5-4.1c-1.3-3.9-3.3-7.4-6-10.5c-3.6-4.1-6-8.8-7.4-13.9
	c-0.7-2.4-1.3-4.8-2-7.2c2.2-3.3,5.1-6.1,8.9-7.3c2.7-0.8,5.7-1,8.5-1.3c7.5-0.7,14.3,1.8,20.9,4.9c6.1,2.8,11.1,6.8,15.2,12.3
	c-0.4,0.5-0.8,0.9-1.3,1.5c-6-6.4-13.5-10.3-21.8-12.2c-8.2-1.8-16.5-2.6-24.3,1.7c8-3.3,16.1-2.8,24.3-0.8
	c8.1,1.9,15.2,5.8,21.4,11.8c-1.5,1.2-2.6,2.2-4,3.3c-6.3-7.3-14.4-10.6-23.7-11.3c-6.4-0.5-12.8-0.1-18.7,3.1
	c7.3-2.5,14.7-3.2,22.3-1.9C249.4,236.6,256,239.7,261.2,246z"/>
<path class="st0" d="M217.3,357.9c0.2-3.3,0.5-6.5,0.7-9.6c2.2,0.2,4.3,0.6,6.3,0.5c2.1-0.1,4.2-0.5,6.2-0.9c2.1-0.4,4.1-1,5.8-2.4
	c-5.9,1.6-11.8,3.2-17.9,2c-0.8-3,1.6-11.7,3.2-14.8c1,0.8,2,1.5,2.9,2.4c2.9,3.1,6.5,5,10.3,6.7c9.9,4.4,20.1,8,30.6,10.9
	c1,0.3,1.9,0.5,3.5,1c-1.2,0.7-1.9,1-2.6,1.5c-9.3,6-19.8,9-30.3,12c-4.4,1.3-8.8,2.5-13.3,3.6c-1.8,0.4-3.7,0.3-5.8,0.5
	c-0.5-4.2,0.2-8.1,0.3-12.3c6.2-0.3,12.1-1.7,17.9-3.1c5.8-1.4,11.8-2.2,17.4-4.4c-2.5,0.5-5,1-7.6,1.5c-7.2,1.5-14.5,3.2-21.7,4.6
	C221.4,358.1,219.5,358.8,217.3,357.9z M221.1,338.8c1.6,0.8,3.3,0.5,4.8-0.5C224.3,338.5,222.7,338.6,221.1,338.8z"/>
<path class="st0" d="M300.1,265.1c2.6-1.9,5.1-3.8,7.9-5.9c-0.1,0.7,0,1.1-0.2,1.5c-2.5,6.3-4,12.8-5.4,19.3
	c-0.4,1.9-0.9,3.8-1.2,5.7c-0.3,2.4-0.5,4.8-0.7,7.2c-0.2,2.3-0.3,4.6-0.5,7c-7.8-2-15.3-3.6-22-8.2c-3.7-2.6-7.9-4.4-11.8-6.6
	c-0.1-0.1-0.3,0-0.5,0c0,0,0.1,0.1,0.1,0.1c-0.3-0.4-0.6-0.8-1-1.4c3.9-1.9,7.7-3.8,11.5-5.7c4.6-2.4,9.3-4.7,13.9-7.2
	c2.5-1.4,4.9-3,7.3-4.5C298.5,266,299.3,265.6,300.1,265.1c0.9,1.2,2.1,1.7,4.1,1.2C302.5,265.9,301.3,265.5,300.1,265.1z
	 M280.7,277.6c4.9,3.5,10.5,4.9,16.5,5.3C291.7,280.9,285.9,280.3,280.7,277.6z M276,283.6c6.1,3.3,11.9,7.3,19.1,8.1
	C288.4,289.7,282.4,286.4,276,283.6z M289.3,274.3c3.2,1.5,6.5,2.4,10.1,2.1C296,275.6,292.7,275,289.3,274.3z M295,269.9
	c2.3,1.4,4.4,1.4,6.5,0.9C299.4,270.6,297.4,270.3,295,269.9z"/>
<path class="st0" d="M345.1,519c0,1.5,0.1,3.1,0,4.6c-0.2,4.1,0.6,7.9,2,11.7c0.4,1.2,0.8,2.4,1.1,3.6c0.2,0.8,0.2,1.7,0.3,2.7
	c-0.5-0.1-0.8-0.1-1-0.2c-2.7-1.8-5.8-2.3-8.9-2.5c-2.3-0.2-4.7-0.3-7-0.5c-0.6,0-1.2-0.2-1.8-0.4c-3.4-0.8-3.2-2.7-1.8-4.8
	c1.1-1.7,2.5-3.2,3.9-4.7c3.7-4,8.2-6.9,12.7-9.8C344.7,518.9,344.9,518.9,345.1,519z"/>
<path class="st0" d="M325,573.3c1.1,7.2-0.9,21.9-3.1,25.4c0.1-1.2,0.2-2.1,0.2-3.1c0-2.1-0.9-3-3-3c-1.6,0-3.3,0.1-4.9,0.2
	c-0.3,0-0.6-0.1-1.1-0.2c0.1-0.6,0.1-1.3,0.3-1.8c0.5-1.1,1-2.1,1.7-3.1C318.3,582.9,321.7,578.1,325,573.3z"/>
<path class="st0" d="M221.8,223.6c-0.7,0.4-1.3,0.7-2.2,1.3c-3.6-12.8-6.5-25.5-6.9-38.9c0.3-0.2,0.9-0.5,1.7-0.9
	c0.2,1.1,0.4,1.8,0.3,2.5c-0.6,9.5,1.7,18.5,4.6,27.5C220.2,217.9,220.9,220.7,221.8,223.6z"/>
<path class="st0" d="M230,107.5c2.6-2.2,5-4.1,7.4-6.2c0.7,0.1,1.8,0.5,2.6,0.2c0.7-0.2,1.2-1.3,1.7-2c0.1,3.4-2.1,7-5,8.2
	c-0.4,0.2-1,0.3-1.3,0.1c-1.3-1-2.6-0.6-4-0.2C231.1,107.7,230.5,107.5,230,107.5z"/>
<path class="st0" d="M352.2,505.9c2.6-1.6,4.9-3.1,7.5-4.7c0.5,2.4,0.9,4.6,0.3,7.1C357.7,506.4,354.7,507.8,352.2,505.9z"/>
<path class="st0" d="M278.7,100.6c2.4,6.5,1.5,13.2,0.8,19.8C278.1,113.8,278.8,107.2,278.7,100.6z"/>
<path class="st0" d="M290.7,117.3c0-2.5,0-5,0-8c1.3,1.4,2.3,2.7,2.2,4.2c-0.1,1.4-1.1,2.6-1.6,3.9
	C291.1,117.4,290.9,117.4,290.7,117.3z"/>
<path class="st0" d="M247.6,104.3c0,1.4,0,2.7,0,4.1c-0.9-1.9-2.8-1.2-4.3-1.7c0.2-0.7,0.3-1.4,0.5-2
	C245.1,104.6,246.3,104.4,247.6,104.3z"/>
<path class="st0" d="M224.7,98.5c1.9-1,3.6-2,5.6-3c-0.7,2.1-2.2,3.1-4,3.8C225.4,99.6,224.9,99.4,224.7,98.5z"/>
<path class="st0" d="M375.9,484c-1.4-0.5-2.5-0.8-2.7-2c-0.2-1.2,0.6-1.9,1.8-2.6C375.3,481,375.5,482.3,375.9,484z"/>
<path class="st0" d="M225.9,109.7c-3,1.1-5.7,1.5-8.9,0.4C220.1,109.9,222.8,109.8,225.9,109.7z"/>
<path class="st0" d="M254.9,106.3c-0.4,2.9-1.2,4.1-3.8,5.5C252.4,109.9,253.6,108.1,254.9,106.3z"/>
<path class="st0" d="M232.5,102.3c0.8-0.6,1.7-1.1,2.6-1.7c-0.3,1.7-0.6,2-2.3,2.2C232.7,102.6,232.6,102.4,232.5,102.3z"/>
<path class="st0" d="M221.3,132c0.3-1.4,1.7-1.7,2.9-2.2c-0.8,0.9-1.6,1.7-2.4,2.6C221.6,132.2,221.5,132.1,221.3,132z"/>
<path class="st0" d="M263.3,92.4c-0.4,0.5-0.9,1-1.3,1.5c-0.1-0.1-0.2-0.2-0.4-0.3c0.4-0.5,0.9-1,1.3-1.5
	C263,92.2,263.2,92.3,263.3,92.4z"/>
<path d="M308.9,586.7c-0.1-2.3-0.3-4.6-0.4-7c-0.3-9.5,0.3-18.9,1.1-28.3c0.5-6.1,1-12.3,1.6-18.4c0.8-8.2,1.8-16.4,2.6-24.7
	c0.6-6.5,1.2-13.1,1.6-19.6c0.6-9.7,1.1-19.3,1.4-29c0.2-5.1-0.1-10.1-0.2-15.2c0-0.9,0-1.7,0.3-2.6c0.2,3.8,0.6,7.6,0.6,11.5
	c0,6.6-0.1,13.3-0.4,19.9c-0.6,10.9-1.3,21.8-2.2,32.7c-0.6,7.4-1.7,14.7-2.5,22.1c-0.6,5.4-1.1,10.7-1.6,16.1
	c-0.6,8.2-1.3,16.5-1.7,24.8c-0.2,4.7,0,9.5,0.1,14.3c0,1.2,0,2.3,0,3.5C309.2,586.7,309.1,586.7,308.9,586.7z"/>
<path d="M300.8,477c0.2-9.9,3.1-19.4,3.8-29.2C304.7,457.7,301.8,467.2,300.8,477z"/>
<path d="M343.1,438c2.7,5.5,5.4,11,8,16.5c-0.1,0.1-0.3,0.1-0.4,0.2c-3.1-5.3-5.4-11-8.1-16.5C342.9,438.1,343,438.1,343.1,438z"/>
<path d="M272,459.7c-0.6,0.3-1.2,0.6-1.8,0.9C270.7,459.8,271.3,459.4,272,459.7C272.1,459.7,272,459.7,272,459.7z"/>
<path d="M286.3,380.8c8.8-5.2,17-10.4,23.7-17.6c-0.8,1.1-1.5,2.3-2.4,3.2c-5.8,6-12.4,10.9-20.1,14.3
	C287.2,380.8,287,380.7,286.3,380.8z"/>
<path d="M298.3,394c0.2-0.3,0.3-0.7,0.6-0.9c0.8-0.7,1.6-1.5,2.5-2.1c7.1-5.6,12.3-12.7,16.2-20.8c0.3-0.7,0.7-1.3,1.1-2.1
	c0.1,0.4,0.1,0.5,0.1,0.6c-2.8,6.7-6.3,13.1-11.7,18.1c-2.4,2.3-5.1,4.4-7.6,6.5C299.1,393.6,298.6,393.8,298.3,394L298.3,394z"/>
<path d="M298.2,394c-0.4,0.5-0.9,0.9-1.3,1.4c-0.1-0.1-0.2-0.3-0.3-0.4C297.2,394.7,297.7,394.4,298.2,394
	C298.3,394,298.2,394,298.2,394z"/>
<path d="M294.4,396.8c0.4-0.3,0.7-0.6,1.1-0.8c0.1,0.1,0.1,0.2,0.2,0.2c-0.4,0.3-0.7,0.6-1.1,0.9C294.5,397,294.5,396.9,294.4,396.8
	z"/>
<path d="M264.7,129.9c0.6,0,1.2-0.1,2.1-0.2c-0.7,1.2-1.4,0.8-2.1,0.7C264.7,130.2,264.7,130.1,264.7,129.9z"/>
<path d="M263.6,141.4c0.4-0.1,0.9-0.2,1.3-0.3c0,0.1,0.1,0.3,0.1,0.4c-0.5,0.1-0.9,0.1-1.4,0.2C263.6,141.6,263.6,141.5,263.6,141.4
	z"/>
<path d="M259.4,137.8c0.5,0,1,0,1.5,0c0,0,0,0.1,0,0.1c-0.5,0-1,0.1-1.5,0.1C259.4,138,259.4,137.9,259.4,137.8z"/>
<path d="M303.7,321.9c-1.7,1.2-3.7,1.6-5.6,1.8c-6.2,0.8-12.5,0.7-18.7,0c-11.1-1.3-22-3.5-32.6-7.1c-2.8-1-5.4-2.1-8.1-3.2
	c0.1-0.1,0.1-0.3,0.2-0.4c1.1,0.4,2.2,0.7,3.2,1.1c10,4.1,20.4,6.1,31,7.8c6.5,1,13,1.7,19.6,1.4c3.4-0.1,6.7-0.4,10-1.2
	C302.9,322,303.3,321.9,303.7,321.9z"/>
<path d="M238.7,332.1c0.8,0.4,1.6,0.7,2.3,1.1c6.7,3.9,13.5,7.9,20.9,10.4c9.4,3.2,19.1,5.4,29,5.9c5.8,0.3,11.7,0.3,17.5,0.5
	c0.7,0,1.4,0,2.1,0c0,0.2,0,0.3,0,0.5c-4.6,0-9.2,0.1-13.7,0c-13.4-0.2-26.4-2.7-38.8-7.6c-6.6-2.6-12.7-6.3-18.8-10
	C239,332.7,238.9,332.4,238.7,332.1L238.7,332.1z"/>
<path d="M308.5,338.4c-16.7,2.3-53.3-4.9-72.1-16.6c1.4,0.6,2.7,1.2,4.1,1.9c7.7,3.6,15.6,6.8,23.9,8.9c14.2,3.5,28.5,6.3,43.2,5.7
	C307.8,338.2,307.9,338.3,308.5,338.4z"/>
<path d="M238.9,308.4c19.6,3.6,39,2.3,58.1-2.2c-3.1,1.4-6.5,2.4-10,2.9c-10.7,1.6-21.4,2.3-32.2,1.9
	C249.4,310.8,244.1,309.9,238.9,308.4z"/>
<path d="M279.5,296c-3.4,1-6.9,2-10.3,2.9c-5.8,1.5-11.6,3.2-17.5,3.9c-4.6,0.5-9.1,0.1-13.7,0.1c0-0.2,0-0.3,0-0.5
	c0.6-0.1,1.3-0.3,1.9-0.2c9.5,1,18.6-1.2,27.7-3.6c3.9-1,7.8-2.1,11.7-3.1C279.3,295.8,279.4,295.9,279.5,296z"/>
<path d="M238.7,332.2c-2.5-1.3-5.1-2.6-7.6-3.8c0.1-0.1,0.1-0.3,0.2-0.4C233.9,329,236.5,330.2,238.7,332.2
	C238.7,332.1,238.7,332.2,238.7,332.2z"/>
<path d="M291.1,226.6c-4.7,3.4-8.5,7.8-12.8,11.6c-6.1,5.4-12.5,10.4-18.7,15.6c-1.3,1-2.6,2-3.8,3.1c-5.3,4.9-11.1,9.1-17,13.1
	c-1.6,1.1-3.2,2.2-5.1,2.5c5.5-3.2,10.6-7,15.5-11c8.4-6.8,16.7-13.6,25-20.5c3.5-3,6.8-6.2,10.1-9.4
	C286.2,229.5,288.4,227.7,291.1,226.6z"/>
<path d="M239.2,280.2c0.3-0.3,0.6-0.6,1-0.8c5.3-2.6,10.5-5.2,15.8-7.6c9.2-4.3,17.6-10,25.7-16.2c7.1-5.4,14.1-10.8,21.2-16.2
	c1.7-1.3,3.4-2.7,5.4-3.8c-0.5,0.5-1,1.1-1.6,1.6c-4.4,3.5-8.8,6.9-13.3,10.4c-3.9,3.1-8,6-11.9,9.1c-9.2,7.3-19.3,13.3-30,18.1
	c-3.3,1.5-6.5,3.1-9.7,4.6C241,279.6,240.1,279.8,239.2,280.2L239.2,280.2z"/>
<path d="M304.3,251.5c-1.1,1-2,2.1-3.2,2.9c-6.3,4-12.7,8-19.1,11.8c-12.7,7.6-26.2,13.4-39.7,19.3c-0.6,0.3-1.3,0.5-2.1,0.4
	c0.8-0.3,1.5-0.7,2.3-1c19.5-8.5,38.5-17.8,56.3-29.6C300.6,254,302.4,252.8,304.3,251.5L304.3,251.5z"/>
<path d="M240.2,274.1c0.4-0.4,0.8-0.9,1.3-1.2c12.7-8.7,24.9-18,36.7-27.9c3.9-3.3,7.9-6.4,11.9-9.5c1.5-1.2,3.2-2.1,5.1-2.8
	c-0.1,0.1-0.2,0.3-0.3,0.4c-6.6,4.1-12.3,9.3-18.3,14.2c-10.7,8.9-21.8,17.4-33.4,25.3C242.2,273.1,241.1,273.5,240.2,274.1
	L240.2,274.1z"/>
<path d="M304.3,251.5c1.2-1.2,2.4-2.4,3.6-3.7C307.1,249.5,306,250.9,304.3,251.5C304.3,251.5,304.3,251.5,304.3,251.5z"/>
<path d="M240.1,274c-1,0.6-2,1.3-3,1.9c-0.1-0.2-0.2-0.3-0.3-0.5C237.9,275,239.1,274.5,240.1,274C240.2,274.1,240.1,274,240.1,274z
	"/>
<path d="M239.2,280.1c-0.6,0.3-1.1,0.6-1.7,0.9c-0.1-0.2-0.1-0.3-0.2-0.5C238,280.5,238.6,280.3,239.2,280.1
	C239.2,280.2,239.2,280.1,239.2,280.1z"/>
<path d="M221.1,338.8c1.6-0.2,3.2-0.3,4.8-0.5C224.3,339.3,222.6,339.6,221.1,338.8z"/>
<path d="M280.7,277.6c5.2,2.7,11,3.3,16.5,5.3C291.2,282.5,285.6,281.1,280.7,277.6z"/>
<path d="M276,283.6c6.3,2.8,12.4,6.1,19.1,8.1C287.9,290.9,282.1,286.9,276,283.6z"/>
<path d="M289.3,274.3c3.4,0.7,6.7,1.4,10.1,2.1C295.8,276.6,292.5,275.8,289.3,274.3z"/>
<path d="M295,269.9c2.5,0.3,4.5,0.6,6.5,0.9C299.3,271.4,297.3,271.4,295,269.9z"/>
<path d="M300.1,265.1c1.2,0.4,2.4,0.7,4.1,1.2C302.2,266.8,301,266.3,300.1,265.1C300.1,265.1,300.1,265.1,300.1,265.1z"/>
</svg>
