<?xml version="1.0" encoding="utf-8"?>
<!-- Generator: Adobe Illustrator 19.0.0, SVG Export Plug-In . SVG Version: 6.00 Build 0)  -->
<svg version="1.1" id="图层_1" xmlns="http://www.w3.org/2000/svg" xmlns:xlink="http://www.w3.org/1999/xlink" x="0px" y="0px"
	 viewBox="0 0 595.3 841.9" style="enable-background:new 0 0 595.3 841.9;" xml:space="preserve">
<style type="text/css">
	.st0{fill:#FFFFFF;}
</style>
<path class="st0" d="M595.3,841.8c-197.9,0-395.9,0-593.9,0c0-280,0-560,0-840c197.9,0,395.9,0,593.9,0
	C595.3,281.8,595.3,561.8,595.3,841.8z M234.8,582.5c-0.1,1.1-0.1,2.2-0.2,3.3c-1.6,11.5-1.1,23.1-0.1,34.6
	c0.4,5.3,1.6,10.6,2.5,15.8c2,11.6,4.6,23,8.5,34.1c2.5,7.3,4.7,14.8,5.7,22.5c0.7,5.8,1.3,11.7,1.9,17.8c-1.7,0.2-2.2,1.7-2.6,3.2
	c-0.7,2.7-1.6,5.4-1.9,8.1c-0.6,5.8-2.4,11.2-5.3,16.3c-1.3,2.3-2.5,4.6-3.6,7c-1.9,4-2.4,8.3-1.3,12.6c0.6,2.3,1.8,4.2,3.9,5.2
	c1.3,0.7,2.1,1.5,2.5,2.9c0.5,1.9,1.3,2.2,3.3,2c0.4,0,0.8-0.1,1.2-0.2c3.4-0.6,6.8-0.8,10.2-0.4c2.5,0.3,5.1,0.3,7.6,0.1
	c5.1-0.5,9.1-3.1,12.2-7.2c0.3-0.4,0.6-0.8,1.1-1.5c1.3,4,4.3,5.5,7.8,6.3c1,0.2,2,0.5,3.1,0.5c5.5,0.4,11,0.7,16.5,1
	c0.2,0,0.3,0,0.5,0c6.4-0.2,12.1-5.5,12.5-11.9c0.1-1.8,0-3.7-0.1-5.5c-0.3-5.5-1.6-10.8-4.9-15.3c-2.3-3.1-3.5-6.5-3.7-10.4
	c-0.2-3.7-0.2-7.6-3.3-10.4c2-2.5,2.6-5.2,3-8c1.2-9.1,3.9-17.7,6.8-26.4c1.7-5.1,3.5-10.3,4.9-15.5c5-18,9.3-36.2,9.3-55
	c0-5.3-0.3-10.5-0.4-15.8c0-0.6,0-1.2,0-2.2c1.2,0,2.4,0.1,3.4,0c2-0.3,4.1-0.4,6.1-1c4.1-1.2,5.2-3,4.6-7.3
	c-0.9-6.2-2-12.3-2.5-18.5c-0.7-8.7-1.1-17.4-1.4-26.1c-0.3-7.4-0.4-14.8-0.6-22.3c0-1.2,0-2.5,0-3.8c3.7-0.5,7.4,0.6,10.7-1
	c-0.1-2.2-0.3-4.3-0.3-6.3c-0.2-7.7-0.3-15.5-0.5-23.2c0-2.1-0.2-4.3,0-6.4c0.5-6.1,2.7-11.8,4.8-17.5c0.2-0.6,0.5-1.1,0.8-1.7
	c1.1,0.6,2.1,1,3,1.5c0.2,3.4-0.6,6.5-1.4,9.6c-1.1,4.1-2.1,8.2-3,12.3c-0.5,2.3,0.1,4.5,1.5,6.4c1.4,2,3.8,2.1,5.3,0.2
	c0.7-0.9,1.1-1.9,1.6-2.9c1.2-2.4,2.3-4.7,3.4-7.1c0.7-1.4,1.4-2.9,2.1-4.3c0.2-0.4,0.5-0.9,0.9-1.6c0.2,0.8,0.3,1.2,0.3,1.6
	c0.3,4,0.6,7.9,0.8,11.9c0,0.8-0.1,1.6-0.4,2.3c-0.8,2.2-1.8,4.3-2.7,6.4c-0.8,1.7-0.8,1.7-3.1,1.3c-0.2-1.7,0.1-3.3,1.4-4.6
	c0.8-0.9,1.7-1.7,2.5-2.6c0.9-1,1-1.2,1.3-2.6c-1.3,1.1-2.4,2.1-3.6,2.9c-1.9,1.3-2.9,3.1-3.3,5.3c-0.7,3.2-0.5,3.6,2.7,4.1
	c-0.1,0.4-0.2,0.8-0.3,1.1c-0.3,1.1-0.7,2.2-0.7,3.3c-0.1,1.6,1,2.3,2.5,1.8c0.6-0.2,1.1-0.6,1.7-0.9c2.7-1.7,4.7-4,6.6-6.5
	c1.8-2.4,3.8-4.7,5.8-7c1.6-1.8,3-3.7,3.6-6.1c0.9-3.8,1.9-7.6,2.6-11.4c0.4-2.3,0.9-4.6,0.2-7c-1.8,6.8-2.8,13.9-6,20.3
	c0.5-2.1,1-4.2,1.5-6.2c-1.6,1.2-2.1,2.9-2.6,4.5c-0.7,2-1.1,4.2-2.2,6c-1.7,2.8-3.7,5.4-5.8,7.9c-1.2,1.4-2.8,2.6-4.3,3.8
	c-0.4,0.3-0.9,0.4-1.4,0.6c-0.1-0.1-0.3-0.2-0.4-0.3c0.6-1.4,1.2-2.9,1.8-4.3c1.3-2.9,2.8-5.7,4.1-8.7c0.5-1.2,0.9-2.6,0.8-3.9
	c-0.2-3.2-0.8-6.3-1.1-9.5c-0.4-3.1-2.6-5.8-2-9.2c0-0.1-0.2-0.2-0.6-0.4c-0.4,1.1-0.9,2.2-1.3,3.3c-0.7,1.9-1.3,3.9-2.2,5.8
	c-1.6,3.4-3.3,6.7-4.9,10.1c-0.4,0.9-0.8,1.9-2.4,2.1c-0.4-0.8-1.2-1.7-1.3-2.6c-0.2-1.5-0.3-3,0-4.5c0.5-2.7,1.3-5.3,2-7.9
	c0.8-3.2,1.7-6.3,1.6-9.6c0-0.9,0-1.9,0-2.9c1.2,0.1,2.3,0.2,3.4,0.3c7.5,0.8,15.1,1.4,22.4,3.6c2.6,0.8,4.7-0.1,6.5-1.9
	c1.1-1.1,1.1-1.8,0.5-3.2c-0.3-0.7-0.5-1.5-0.5-2.2c0.1-2.1,0.6-4.3,0.6-6.4c0.2-5.7,0.5-11.3,1.9-16.9c0.9-3.8-0.3-7.2-3-10.1
	c0.4-5.5,0.8-11.2,1.3-16.8c0.4-5.5,1.2-10.9,3.4-16.1c0.5-1.2,0.8-2.4,0.9-3.7c0.3-4,0.8-8.1,0.7-12.2c-0.2-8.4-0.7-16.7-1.1-25.1
	c-0.5-8.4-1.5-16.7-4.8-24.5c-3.8-8.9-7.6-17.8-11.9-26.4c-5.4-10.6-9.2-21.7-12-33.2c-2.9-11.8-7-23.1-12.8-33.7
	c-4.1-7.4-9.8-13-17.8-15.9c-0.3-0.1-0.5-0.3-0.7-0.5c0-0.3,0-0.4,0-0.6c1.9-12.2,3.3-24.5,3.8-36.9c0.2-5.9,0.9-11.8,2.1-17.6
	c0.5-2.6,0.9-5.2,1.1-7.8c0.6-6.2-0.1-12.4-0.9-18.6c-0.6-5.2-1.9-10.2-4-15c-2.3-5.2-5.7-9.6-10-13.2c-1.9-1.6-4-1.9-6.4-1.4
	c0.1,0.2,0.1,0.3,0.1,0.4c0.2,0.1,0.4,0.3,0.7,0.3c2.6,0,4.5,1.5,6.2,3.2c3.7,3.7,6.6,8,8.6,12.9c2,5.1,3.1,10.4,3.7,15.8
	c0.8,7.8,0.9,15.6-0.6,23.4c-0.9,4.4-1.7,9-1.9,13.5c-0.7,14.4-1.9,28.7-4.4,42.8c-2.9,16.3-9.3,30.8-22.2,41.9
	c-1.6,1.4-3.1,2.8-4.5,4.3c-2.7,2.7-5.5,5.4-7.9,8.4c-3.7,4.4-6.3,9.4-6.9,15.3c0,0.1-0.2,0.1-0.5,0.3c-0.6-1.9-0.9-3.7-0.6-5.6
	c0.6-5.2,1.4-10.3,3.3-15.1c1.4-3.3,2.7-6.7,4-10c0.2-0.6,0.4-1.2,0.6-1.7c-0.1-0.1-0.3-0.1-0.4-0.2c-1.3,2.6-2.6,5.2-3.9,7.9
	c-0.5-0.6-0.7-1.1-0.8-1.6c-0.4-4.1-1.2-8.1-2.9-11.8c-1.6-3.6-3.2-7.3-5-10.9c-2.4-4.7-3.2-9.6-2.4-14.9c0.7-5.1,2.5-9.9,4.8-14.5
	c0.7-1.4,1.5-2,3-2.2c5.3-0.6,9.7-3.2,13.3-7c6.8-7.1,12.9-14.8,17-23.9c0.6-1.5,1-3.1,2.9-3.7c0.4-0.1,0.7-0.7,0.9-1.1
	c2.2-4.1,4.3-8.2,4.8-12.9c1-9.4,0.8-18.8-0.8-28.1c-0.3-1.8-0.7-3.5-1-5.3c-0.4,0.7-0.5,1.3-0.4,1.9c1.1,8.1,1.4,16.2,1.2,24.4
	c-0.2,5.5-0.8,10.8-3.4,15.8c-0.2,0.5-0.6,0.9-1,1.5c-1.2-3.5-2.9-6.5-5.9-8.2c-3.9-2.2-7.9-4.1-11.9-6.1c-1.8-0.9-3.7-1.6-5.4-2.5
	c-2.4-1.2-2.4-1.3-1.6-3.9c0.3-1.2,1-2.3,0.2-3.7c-2.3,0.7-2.9,3.2-4.9,4.2c-0.9-0.7-1.8-1.6-2.8-2.1c-7-3.6-14.4-6.5-21.8-9.2
	c-1.4-0.5-2.6-0.4-3.9,0.4c-1.2,0.8-2.4,1.5-3.6,2.2c0.8-2.9,1.8-5.5,3-8c1.3-2.6,2.6-5.1,4.2-7.5c1.5-2.3,3.4-4.5,5.1-6.7
	c-0.5,0-0.8,0.1-1,0.3c-3.6,3.6-7,7.5-8.7,12.4c-1.5,4.4-3.7,8.4-6.7,12.1c-2.9,3.6-4.8,7.7-6.1,12.1c-3.3,11.4-4.4,23.2-4.5,35
	c0,4.8,1.1,9.4,3,13.7c2.9,6.6,3.4,13.6,2.9,20.6c-0.4,5.2-2.9,9.6-6.1,13.7c1.3-4,3.2-7.8,3.4-12.1c0.2-4.2,0.6-8.4-1.5-12.3
	c1,3.9,1,7.9,0.3,11.9c-0.7,4-1.7,7.8-4,11.7c-1.2-1.6-2.2-2.8-3.1-4.1c-0.5-0.8-0.5-1.6-0.1-2.5c2.9-5.9,4.6-12.2,6-18.6
	c0.3-1.6,0.2-3.3-0.2-5c-0.3,0.3-0.4,0.5-0.5,0.8c-0.7,2.9-1.3,5.9-2.1,8.8c-3.4,11.8-9.3,22.2-17.5,31.3c-2.7,3-5.1,6.3-7,10
	c-3.8,7.4-7.7,14.9-11.4,22.4c-1.9,4-3.7,8.2-5.1,12.4c-1.8,5.3-2.7,10.8-1.8,16.5c0.1,0.4,0,0.7,0,1.2c-2.4-1.1-3.8-2.3-5.7-4.5
	c-4-4.6-6.2-10.2-8.3-15.8c-4.3-11.8-3.1-23.2,3-34.1c3.3-5.8,7.5-10.9,12.6-15.2c4.8-4,9.3-8.2,13.4-13
	c7.8-9.2,13.2-19.5,16.2-31.2c0.3-1.3,0.6-2.6,0.9-3.9c0.4,0.7,0.5,1.4,0.5,2.1c-0.5,4.9-0.8,9.9-1.5,14.7c-0.8,5.4-3.5,10.1-6,14.8
	c-2.9,5.4-5.7,10.9-8.5,16.3c-0.3,0.5-0.4,1.1-0.5,1.6c0.4-0.2,0.7-0.4,0.8-0.6c4-7,8.1-13.9,12-21c1.8-3.2,3.3-6.6,3.8-10.3
	c0.7-5.2,1.6-10.5,1.5-15.7c-0.1-9.4,0.6-18.8,1.6-28.2c0.5-4.6,1.1-9.2,2.9-13.5c4.6-11.1,9.5-22,16.7-31.7
	c5-6.8,11.1-12.3,18.8-15.9c3-1.4,6.1-2.7,9.2-4c7.3-3.2,14.9-4.1,22.7-2.9c2.6,0.4,5.2,0.8,7.4,2.5c1.4,1.1,2.5,2.3,3.9,3.6
	c0.2-1.3-0.4-2.2-1.1-3c-1.6-1.9-3.5-3.3-5.9-3.9c-6.5-1.5-13.1-1.9-19.7-0.4c-5,1.1-9.6,3.4-14.3,5.3c-9.9,4-17.4,10.7-23.5,19.3
	c-6,8.5-10.2,17.9-14.4,27.2c-2.3,5.1-3.7,10.4-4.2,15.9c-0.6,6-1,11.9-1.8,17.9c-1.4,10.7-4.4,20.9-9.7,30.4
	c-0.7,1.2-1.6,2.4-2.8,3.2c-3.7,2.5-7.5,5-11.4,7c-6.2,3.1-11.7,7.1-16.6,12c-8.9,8.9-16.5,18.8-22.9,29.7c-3.5,5.9-5.8,12.2-7.1,19
	c-3.2,16.5-2.9,33-1.6,49.6c0.5,6.5,1.6,13,2,19.5c0.8,13,1.4,26,2.1,39c0.2,3.2,0.9,6.3,1.3,9.5c0.1,0.8,0.3,1.6,0.3,2.4
	c-0.4,7.4,1,14.5,3.5,21.3c0.5,1.3,0.6,2.6,0.3,4c-1.2,5.5-0.7,10.9,1.4,16.2c2.5,6.4,4.8,12.9,6,19.6c0.4,2.1,1.3,3.9,3.8,4.3
	c-0.2,2.3-0.5,4.6-0.7,6.8c-0.6,6.7,0.8,12.8,5,18.2c0.8,1,1.5,2.1,1.9,3.3c2,5.6,5.5,10.1,10.4,13.3c3.5,2.4,7.1,4.9,11.9,4.3
	c-0.4,3.4-0.8,6.6-1.2,9.8c-1.1,8.1-2,16.3-3.4,24.4c-1.1,6.4-2.9,12.6-4.3,18.9c-0.6,2.6-0.1,3.5,2.4,4.3c4.4,1.3,8.9,2.4,13.4,3.7
	C224.2,578,229.6,580,234.8,582.5z"/>
<path d="M234.8,582.5c-5.1-2.5-10.6-4.5-11.3-11.1c-4.5-1.2-9-2.4-13.4-3.7c-2.5-0.8-3-1.7-2.4-4.3c1.4-6.3,3.2-12.5,4.3-18.9
	c1.4-8.1,2.3-16.3,3.4-24.4c0.4-3.2,0.8-6.5,1.2-9.8c-4.8,0.6-8.4-2-11.9-4.3c-4.9-3.3-8.4-7.7-10.4-13.3c-0.4-1.2-1.2-2.3-1.9-3.3
	c-4.2-5.4-5.6-11.5-5-18.2c0.2-2.2,0.4-4.4,0.7-6.8c-2.5-0.4-3.4-2.2-3.8-4.3c-1.2-6.8-3.5-13.2-6-19.6c-2-5.3-2.5-10.7-1.4-16.2
	c0.3-1.4,0.2-2.6-0.3-4c-2.5-6.9-3.9-14-3.5-21.3c0-0.8-0.2-1.6-0.3-2.4c-0.4-3.2-1.1-6.3-1.3-9.5c-0.8-13-1.3-26-2.1-39
	c-0.4-6.5-1.5-13-2-19.5c-1.3-16.6-1.6-33.2,1.6-49.6c1.3-6.7,3.5-13,7.1-19c6.4-10.8,14.1-20.7,22.9-29.7c4.9-4.9,10.4-8.9,16.6-12
	c4-2,7.7-4.5,11.4-7c1.1-0.8,2.1-2,2.8-3.2c5.3-9.4,8.3-19.7,9.7-30.4c0.8-5.9,1.2-11.9,1.8-17.9c0.5-5.5,1.9-10.8,4.2-15.9
	c4.3-9.4,8.4-18.8,14.4-27.2c6.1-8.6,13.6-15.3,23.5-19.3c4.7-1.9,9.3-4.2,14.3-5.3c6.6-1.5,13.2-1.1,19.7,0.4
	c2.4,0.6,4.3,2,5.9,3.9c0.7,0.8,1.3,1.8,1.1,3c-1.4-1.3-2.5-2.6-3.9-3.6c-2.1-1.7-4.8-2.1-7.4-2.5c-7.8-1.2-15.4-0.3-22.7,2.9
	c-3.1,1.4-6.2,2.6-9.2,4c-7.7,3.6-13.8,9.1-18.8,15.9c-7.2,9.7-12.1,20.6-16.7,31.7c-1.8,4.3-2.5,8.9-2.9,13.5
	c-1,9.4-1.6,18.7-1.6,28.2c0,5.2-0.8,10.5-1.5,15.7c-0.5,3.7-2,7.1-3.8,10.3c-3.9,7-8,14-12,21c-0.2,0.3-0.4,0.5-0.8,0.6
	c0.2-0.5,0.3-1.1,0.5-1.6c2.8-5.5,5.6-10.9,8.5-16.3c2.5-4.7,5.2-9.4,6-14.8c0.7-4.9,1-9.8,1.5-14.7c0.1-0.7-0.1-1.4-0.5-2.1
	c-0.3,1.3-0.6,2.6-0.9,3.9c-2.9,11.7-8.4,22-16.2,31.2c-4.1,4.8-8.6,9-13.4,13c-5.1,4.3-9.4,9.4-12.6,15.2
	c-6.1,10.9-7.3,22.3-3,34.1c2.1,5.6,4.3,11.2,8.3,15.8c1.9,2.1,3.3,3.4,5.7,4.5c0-0.4,0.1-0.8,0-1.2c-0.9-5.7,0-11.2,1.8-16.5
	c1.5-4.2,3.2-8.4,5.1-12.4c3.7-7.5,7.6-15,11.4-22.4c1.9-3.6,4.2-6.9,7-10c8.2-9.1,14.1-19.5,17.5-31.3c0.8-2.9,1.4-5.9,2.1-8.8
	c0.1-0.3,0.2-0.6,0.5-0.8c0.4,1.7,0.6,3.3,0.2,5c-1.3,6.4-3.1,12.7-6,18.6c-0.4,0.9-0.4,1.7,0.1,2.5c0.9,1.3,1.9,2.5,3.1,4.1
	c2.3-3.8,3.3-7.7,4-11.7c0.6-4,0.7-7.9-0.3-11.9c2,3.9,1.7,8.1,1.5,12.3c-0.2,4.3-2.1,8.1-3.4,12.1c3.2-4.1,5.7-8.5,6.1-13.7
	c0.5-7.1,0-14-2.9-20.6c-1.9-4.3-3-8.9-3-13.7c0-11.9,1.1-23.6,4.5-35c1.3-4.4,3.2-8.5,6.1-12.1c3-3.6,5.1-7.7,6.7-12.1
	c1.7-5,5.1-8.8,8.7-12.4c0.2-0.2,0.5-0.4,1-0.3c-1.7,2.2-3.5,4.4-5.1,6.7c-1.6,2.4-2.9,4.9-4.2,7.5c-1.3,2.5-2.3,5.2-3,8
	c1.2-0.7,2.4-1.5,3.6-2.2c1.2-0.8,2.5-0.9,3.9-0.4c7.4,2.7,14.8,5.6,21.8,9.2c1,0.5,1.9,1.4,2.8,2.1c2-1,2.6-3.5,4.9-4.2
	c0.8,1.4,0.1,2.6-0.2,3.7c-0.7,2.6-0.8,2.7,1.6,3.9c1.8,0.9,3.6,1.6,5.4,2.5c4,2,8,3.9,11.9,6.1c3,1.7,4.6,4.7,5.9,8.2
	c0.4-0.7,0.7-1.1,1-1.5c2.6-4.9,3.2-10.3,3.4-15.8c0.2-8.1-0.1-16.3-1.2-24.4c-0.1-0.6,0-1.2,0.4-1.9c0.3,1.8,0.7,3.5,1,5.3
	c1.6,9.3,1.8,18.7,0.8,28.1c-0.5,4.7-2.6,8.8-4.8,12.9c-0.2,0.4-0.5,1-0.9,1.1c-1.8,0.6-2.3,2.3-2.9,3.7c-4,9.1-10.2,16.7-17,23.9
	c-3.6,3.8-8,6.4-13.3,7c-1.5,0.2-2.3,0.9-3,2.2c-2.3,4.6-4.1,9.3-4.8,14.5c-0.7,5.3,0.1,10.1,2.4,14.9c1.8,3.6,3.4,7.2,5,10.9
	c1.6,3.8,2.5,7.7,2.9,11.8c0,0.5,0.2,1,0.8,1.6c1.3-2.6,2.6-5.2,3.9-7.9c0.1,0.1,0.3,0.1,0.4,0.2c-0.2,0.6-0.4,1.2-0.6,1.7
	c-1.3,3.3-2.7,6.7-4,10c-2,4.9-2.8,10-3.3,15.1c-0.2,1.9,0.1,3.8,0.6,5.6c0.3-0.1,0.5-0.2,0.5-0.3c0.6-5.9,3.2-10.8,6.9-15.3
	c2.4-2.9,5.2-5.6,7.9-8.4c1.4-1.5,3-2.9,4.5-4.3c12.8-11.1,19.3-25.5,22.2-41.9c2.5-14.2,3.7-28.5,4.4-42.8c0.2-4.5,1-9,1.9-13.5
	c1.6-7.8,1.5-15.5,0.6-23.4c-0.6-5.4-1.6-10.7-3.7-15.8c-2-4.9-4.9-9.1-8.6-12.9c-1.7-1.7-3.6-3.2-6.2-3.2c-0.2,0-0.4-0.2-0.7-0.3
	c0,0,0-0.1-0.1-0.4c2.4-0.5,4.5-0.2,6.4,1.4c4.3,3.7,7.8,8,10,13.2c2.1,4.8,3.4,9.8,4,15c0.7,6.2,1.5,12.4,0.9,18.6
	c-0.2,2.6-0.6,5.2-1.1,7.8c-1.2,5.8-1.9,11.7-2.1,17.6c-0.5,12.4-1.8,24.7-3.8,36.9c0,0.2,0,0.3,0,0.6c0.2,0.1,0.4,0.4,0.7,0.5
	c8.1,2.9,13.7,8.5,17.8,15.9c5.9,10.6,10,21.9,12.8,33.7c2.8,11.5,6.6,22.6,12,33.2c4.4,8.6,8.1,17.5,11.9,26.4
	c3.4,7.8,4.4,16.1,4.8,24.5c0.5,8.4,0.9,16.7,1.1,25.1c0.1,4-0.3,8.1-0.7,12.2c-0.1,1.3-0.4,2.5-0.9,3.7c-2.2,5.1-3,10.6-3.4,16.1
	c-0.4,5.6-0.8,11.3-1.3,16.8c2.7,2.9,3.9,6.3,3,10.1c-1.4,5.5-1.6,11.2-1.9,16.9c-0.1,2.1-0.5,4.3-0.6,6.4c0,0.7,0.2,1.5,0.5,2.2
	c0.6,1.4,0.6,2.2-0.5,3.2c-1.8,1.8-3.9,2.6-6.5,1.9c-7.3-2.2-14.9-2.7-22.4-3.6c-1.1-0.1-2.2-0.2-3.4-0.3c0,1,0,2,0,2.9
	c0.1,3.3-0.8,6.5-1.6,9.6c-0.7,2.6-1.5,5.2-2,7.9c-0.3,1.5-0.2,3,0,4.5c0.1,0.9,0.9,1.8,1.3,2.6c1.6-0.2,1.9-1.2,2.4-2.1
	c1.6-3.4,3.3-6.7,4.9-10.1c0.9-1.9,1.5-3.9,2.2-5.8c0.4-1.1,0.9-2.2,1.3-3.3c0.4,0.3,0.6,0.4,0.6,0.4c-0.5,3.3,1.6,6,2,9.2
	c0.4,3.2,0.9,6.3,1.1,9.5c0.1,1.3-0.3,2.7-0.8,3.9c-1.2,2.9-2.7,5.8-4.1,8.7c-0.7,1.4-1.2,2.9-1.8,4.3c0.1,0.1,0.3,0.2,0.4,0.3
	c0.5-0.2,1-0.3,1.4-0.6c1.5-1.2,3.1-2.3,4.3-3.8c2.1-2.5,4.1-5.1,5.8-7.9c1.1-1.8,1.6-4,2.2-6c0.5-1.7,1-3.3,2.6-4.5
	c-0.5,2.1-1,4.2-1.5,6.2c3.2-6.4,4.2-13.5,6-20.3c0.8,2.4,0.2,4.7-0.2,7c-0.7,3.8-1.7,7.6-2.6,11.4c-0.6,2.4-2,4.3-3.6,6.1
	c-2,2.3-4,4.5-5.8,7c-1.9,2.5-3.9,4.9-6.6,6.5c-0.5,0.3-1.1,0.7-1.7,0.9c-1.5,0.5-2.6-0.2-2.5-1.8c0.1-1.1,0.5-2.2,0.7-3.3
	c0.1-0.4,0.2-0.8,0.3-1.1c-3.2-0.5-3.4-0.9-2.7-4.1c0.5-2.2,1.5-4,3.3-5.3c1.2-0.9,2.3-1.9,3.6-2.9c-0.4,1.4-0.4,1.6-1.3,2.6
	c-0.8,0.9-1.6,1.7-2.5,2.6c-1.3,1.3-1.6,2.8-1.4,4.6c2.2,0.4,2.3,0.4,3.1-1.3c1-2.1,1.9-4.2,2.7-6.4c0.3-0.7,0.4-1.6,0.4-2.3
	c-0.2-4-0.5-7.9-0.8-11.9c0-0.4-0.2-0.8-0.3-1.6c-0.4,0.7-0.7,1.2-0.9,1.6c-0.7,1.4-1.4,2.8-2.1,4.3c-1.1,2.4-2.3,4.7-3.4,7.1
	c-0.5,1-0.9,2.1-1.6,2.9c-1.5,1.9-3.9,1.8-5.3-0.2c-1.4-1.9-2-4.1-1.5-6.4c0.9-4.1,1.9-8.2,3-12.3c0.8-3.1,1.5-6.2,1.4-9.6
	c-0.9-0.5-1.9-0.9-3-1.5c-0.3,0.6-0.6,1.1-0.8,1.7c-2.1,5.7-4.3,11.4-4.8,17.5c-0.2,2.1,0,4.3,0,6.4c0.1,7.7,0.3,15.5,0.5,23.2
	c0,2.1,0.2,4.1,0.3,6.3c-3.3,1.6-7,0.5-10.7,1c0,1.3,0,2.6,0,3.8c0.2,7.4,0.3,14.8,0.6,22.3c0.4,8.7,0.7,17.4,1.4,26.1
	c0.5,6.2,1.6,12.3,2.5,18.5c0.6,4.3-0.5,6.1-4.6,7.3c-2,0.6-4.1,0.8-6.1,1c-1.1,0.1-2.2,0-3.4,0c0,0.9,0,1.5,0,2.2
	c0.2,5.3,0.4,10.5,0.4,15.8c0,18.9-4.3,37-9.3,55c-1.5,5.2-3.2,10.4-4.9,15.5c-2.9,8.6-5.6,17.3-6.8,26.4c-0.4,2.8-1,5.5-3,8
	c3.2,2.8,3.1,6.7,3.3,10.4c0.2,3.9,1.4,7.3,3.7,10.4c3.4,4.5,4.6,9.8,4.9,15.3c0.1,1.8,0.2,3.7,0.1,5.5c-0.5,6.4-6.2,11.7-12.5,11.9
	c-0.2,0-0.3,0-0.5,0c-5.5-0.3-11-0.6-16.5-1c-1-0.1-2-0.3-3.1-0.5c-3.5-0.8-6.5-2.3-7.8-6.3c-0.5,0.7-0.8,1.1-1.1,1.5
	c-3,4.1-7.1,6.7-12.2,7.2c-2.5,0.3-5.1,0.2-7.6-0.1c-3.5-0.4-6.8-0.2-10.2,0.4c-0.4,0.1-0.8,0.1-1.2,0.2c-2,0.2-2.7-0.2-3.3-2
	c-0.4-1.4-1.2-2.3-2.5-2.9c-2.1-1.1-3.3-3-3.9-5.2c-1.1-4.4-0.6-8.6,1.3-12.6c1.1-2.4,2.3-4.7,3.6-7c2.9-5.1,4.6-10.4,5.3-16.3
	c0.3-2.7,1.1-5.4,1.9-8.1c0.4-1.4,0.9-2.9,2.6-3.2c-0.7-6.1-1.2-12-1.9-17.8c-1-7.7-3.1-15.2-5.7-22.5c-3.9-11.1-6.5-22.5-8.5-34.1
	c-0.9-5.3-2.1-10.5-2.5-15.8c-1-11.5-1.5-23.1,0.1-34.6C234.7,584.7,234.7,583.6,234.8,582.5z M214.6,507.1c-1.1-1-2.2-2.1-3.3-3.1
	c-1.5-1.3-3-2.6-4.5-3.9c-1.1-0.9-1.4-2-1.5-3.4c-0.1-2.2-0.3-4.4-0.5-6.7c-0.2-2.5-0.5-4.9-0.6-7.4c-0.1-3.1,1-6.2-0.2-9.3
	c0.9,0.7,1.7,1.4,2.1,2.3c1.1,1.9,2.1,4,3,6c1.2,2.8,2.2,5.7,3.6,8.3c1.1,2,2.6,3.8,4.1,5.5c1,1.2,2.3,1.6,4.1,1.2
	c0-1.6,0.2-3.1,0-4.5c-0.7-3.3-1.7-6.5-2.4-9.7c-0.7-3-2-5.9-0.9-9.1c0.1-0.3-0.1-0.8-0.2-1.2c-0.6-2.3-1.2-4.6-1.7-7
	c-1.3-5.7-3.7-7.5-9.6-7c-0.3,0-0.6,0.1-0.9,0.1c-5.8,0.3-10.6,3.2-15.6,5.6c0,3.8,0,7.5,0,11.3c0.1,3.3,1,6.4,2.5,9.4
	c1.5,2.9,3,5.8,4.4,8.7c2.6,5.5,7,9.2,12,12.3c1.3,0.8,2.7,1.4,4.1,2C213.3,508.1,214.2,508.3,214.6,507.1c1.1-0.8,2.2-1.5,3.3-2.3
	c1.3-1,1.3-1.8,0.2-3c-0.6-0.7-1.4-1.3-2.1-1.9c-2.2-2.1-4.5-4.1-4.4-7.5c0-0.4-0.3-0.9-0.5-1.3c-1.1-2.7-2.1-5.3-3.2-8
	c-0.6-1.6-1.3-3.2-1.9-4.8c-0.2,2.9-0.4,5.7,0.1,8.4c0.7,3.4,1.3,6.7,1.4,10.1c0,0.6,0.3,1.4,0.8,1.9c1.2,1.2,2.4,2.4,3.7,3.3
	C213.8,503.3,215,504.8,214.6,507.1z M279.6,711.6c0.4-0.6,0.9-1.1,1.1-1.7c1.4-4.2,2.6-8.5,4.1-12.7c3.1-8.6,5.6-17.4,6-26.5
	c0.4-7.4,0.4-14.8,0.1-22.2c-0.6-15.4-1.2-30.8,0.8-46.1c0.2-1.5,0.4-3,0.6-4.4c-0.3-0.3-0.5-0.5-0.7-0.6c-2.9-1.3-3.8-3.6-3.5-6.6
	c0.2-2.4,0-4.9,0-7.3c-2.2-0.9-4.2-2-6.4-0.2c1.3,2.1,0.6,3.9-0.9,5.5c-1.7,1.8-3.7,3.5-5.6,5.1c-1,0.8-1.4,1.5-1.4,2.8
	c0,4.9-0.1,9.9-0.3,14.8c-0.3,6.7-0.8,13.4-1,20.1c-0.2,10.4-0.2,20.9,0,31.3c0.1,8.1,1,16.2,2.8,24.2
	C277.1,695.1,278.6,703.4,279.6,711.6c-1.1-0.3-2.1-1-2.6-2.2c-0.9-2.5-2.8-3-5.2-2.7c-2.4,0.2-4.2,1.7-4.5,4.1c-0.4,3-0.8,6-1.2,9
	c-0.4,3.1-0.7,6.2-1,9.3c-0.1,0-0.2,0-0.3,0c0-5.1,0-10.3,0-15.4c-1.3,0.1-2.6,0.2-4,0.3c1.3,6.3,2,12.5,2.3,18.8
	c-0.3-0.2-0.5-0.3-0.6-0.5c-1.2-5.1-2.5-10.2-3.7-15.3c-0.3-1.2-0.6-2.3-1.1-3.4c-0.7-1.5-2.1-1.4-3.5-1.5c-1.4-0.1-1.8,0.9-2,1.9
	c-0.5,2.2-1.3,4.5-1.5,6.8c-0.6,7.3-2.9,14-6.7,20.3c-1,1.7-1.9,3.5-2.7,5.3c-1.6,3.5-2.1,7.2-1.1,11c0.8,3.4,4.7,6.3,8.2,6
	c6.4-0.6,12.9-1.2,19.3-2c1.6-0.2,3.3-0.9,4.7-1.7c6-3.7,8-9.5,8-16.2c-0.1-7-0.6-14-0.8-21C279.5,718.8,279.6,715.2,279.6,711.6z
	 M319.1,514.4c0.1,0,0.2,0.1,0.3,0.1c0.2,1.7,0.4,3.3,0.5,5c0.9,11,2,21.9,2.8,32.9c0.6,8.7,1,17.4,1.5,26c0.2,3.3,0.7,6.6,1,9.9
	c2.2,0,4.1-0.1,6,0c2.7,0.2,5.4-0.2,8.1-0.8c4.5-1,5.1-1.9,4.4-6.4c-0.6-3.7-1.4-7.4-1.7-11.1c-0.5-5.6-0.7-11.1-1.1-16.7
	c-0.8-12.4-1.3-24.7-0.4-37.1c0.1-1.6,0-3.2,0-4.9c-1-0.2-2.1-0.3-3.1-0.5c-1.6-0.3-3.1-0.6-4.7-0.9c-5.1-1.1-8-4.3-9.1-9.3
	c-0.4-1.8-0.7-3.6-1.1-5.4c-2.5-10.5-4.9-21-6.2-31.7c-0.8-6.9-1.8-13.8-2.4-20.7c-0.4-5.2-0.3-10.4-0.5-15.5
	c-0.3-7.8-0.8-15.6-1.2-23.4c-0.4-7.9-0.8-15.8-2.4-23.6c-1.4-6.8-2.6-13.6-5.1-20.2c-0.8-2-0.8-2-2.9-2c-6.6-0.1-13.2-0.2-19.9-0.3
	c-0.5,0-1.1,0.1-1.7,0.2c-0.3,2.5-1.7,4.2-4,4.7c-2.1,0.4-4.4,0.3-6.5,0.4c-1.4,1.6-2.7,3.6-4.4,5.1c-2.5,2.2-4.5,4.7-5.5,8
	c-0.4,1.3-1.1,2.5-1.9,3.5c-1,1.3-2.5,1.1-3.2-0.4c-0.4-0.8-0.5-1.8-0.8-2.7c-0.2,0.1-0.3,0.2-0.4,0.4c-0.2,0.4-0.3,0.7-0.4,1.1
	c-3,10.9-4.4,22.1-3.9,33.4c0.5,11.2,1,22.5,1.3,33.7c0.1,5.1-0.2,10.2-0.2,15.3c0,0.7,0,1.4,0,2.2c2.8,0,5.5,0,8.3,0
	c0.2-0.7,0.4-1.3,0.5-1.9c1.5-8.6,2.9-17.1,4.4-25.7c2.5-14,4.2-28.1,4.7-42.3c0.3-7.9,1-15.8,2.3-23.6c0.3-1.7,0.7-3.3,1.1-5
	c0.2,0,0.3,0.1,0.5,0.1c0,0.5,0,1,0,1.6c-0.6,8.1-1.1,16.2-1.7,24.4c-0.3,3.8-0.3,7.7-0.7,11.5c-1.3,12.5-3.1,25-5.5,37.4
	c-2.3,11.7-4.4,23.5-6.7,35.3c-1.1,5.8-2.6,11.5-6.2,16.4c-0.7,0.9-0.7,1.9-0.6,3c0.4,3.7,0.9,7.4,1.1,11.2
	c0.3,6.8,0.5,13.6,0.7,20.3c0.3,8.8,0.6,17.5,0.6,26.3c0,9-0.7,18-0.4,27c0.2,4.9-0.2,9.9-0.3,14.8c0,1.4,0,2.8,0,4.1
	c0.3,0.2,0.5,0.3,0.6,0.3c1.3,0,2.6,0.1,3.8,0c8.2-0.4,15.2-3.8,21.2-9.4c2.1-1.9,2.7-4.2,2-6.9c-0.5-2.2-0.8-4.5-1-6.8
	c-0.3-3.4-0.5-6.8-0.6-10.3c-0.2-10.2-0.4-20.4-0.5-30.6c0-5.8,0.4-11.6,0.5-17.5c0.6-30,0.9-60-0.3-90c-0.4-11.2-0.5-22.5-0.7-33.7
	c0-1.7,0-3.3,0-5c0.5,1.2,0.7,2.4,0.7,3.6c0.3,6.7,0.5,13.4,0.8,20.1c0.2,4.1,0.4,8.1,0.6,12.2c0.4,8.7,1.1,17.4,1.3,26.1
	c0.3,24.7,0.4,49.3-0.5,74c-0.5,13.3-0.6,26.5,0.1,39.7c0.3,5.3,0.4,10.7,0.6,16c0,0.5,0.1,1.1,0.2,1.7c1.2-0.3,2.2-0.7,3.3-0.8
	c1-0.1,2.1,0.2,3.2,0.3c0-6.1,0-12,0-17.9c0.5,3.1,0.8,6.2,1,9.3c0.4,6.4,1,12.7,1.2,19.1c0.1,2.3,0.9,3.5,2.9,4.4
	c3.5,1.7,7.2,2.5,11.1,2.6c4.3,0.1,8.6-0.1,12.7-1.6c5.1-1.9,6.5-4.4,5.9-9.8c0-0.3-0.1-0.6-0.1-0.9c-0.2-2.9-0.6-5.9-0.7-8.8
	c-0.3-5.6-0.5-11.2-0.7-16.7c-0.6-12.4-1.3-24.9-1.9-37.3C319,520.2,319.1,517.3,319.1,514.4z M224.1,461.5c0.1-0.7,0.2-1.4,0.2-2
	c0.6-9.3,2.1-18.5,3.4-27.8c2.1-13.8,5-27.5,8-41.1c2.4-10.7,5.5-21.2,10.7-30.9c0.3-0.5,0.4-1.1,0.7-1.8c-0.4-0.1-0.6-0.3-0.8-0.3
	c-3.1-0.1-6.2-0.2-9.3-0.4c-1-0.1-1.4,0.4-1.8,1.2c-2.8,5.3-5.6,10.6-8.4,15.9c-0.3,0.5-0.6,0.9-0.9,1.4c-0.1-0.1-0.3-0.2-0.4-0.3
	c2.8-6.1,5.3-12.4,9.2-18.2c-3.8-0.7-7.4-1-10.2-4c-3.6,6.3-5.8,12.9-9.2,19c0.9-7.5,3.8-14.8,3.3-22.6c-0.3,0.2-0.5,0.3-0.5,0.4
	c-1.2,4.5-3.8,8.2-6.4,11.9c-1.1,1.5-1.9,3.1-2.5,4.8c-1.1,2.6-2.4,5.1-4.5,7c-8.8,8.3-18.5,15.1-30.9,17.6c0,5.6,3.6,10.2,4.8,15.5
	c-1.3-1.9-2.6-3.7-4.1-6c0.2,4.6,0.8,8.7,2.2,12.6c1.4,3.9,2.7,7.8,4.2,12.1c-0.9-0.7-1.6-1.1-2.5-1.8c-0.1,3.8-0.6,7.2,0.6,10.5
	c10-6.7,21-6.6,32.2-5.8c1.5-2.8,1-16.4-0.9-20.8c-0.5,1-1,1.9-1.5,2.8c-0.3-0.6-0.2-1.1-0.1-1.5c1.6-7.1,2.8-14.2,3.1-21.5
	c0.2-3.7,0.6-7.3,1-11c0.2-1.8,0.7-3.7,1.7-5.3c0.1,0.8,0.1,1.6,0,2.3c-0.5,6.1-0.9,12.2-1.4,18.4c-0.2,2.6-0.3,5.3-0.8,7.8
	c-0.7,3.2-0.3,6.1,0.3,9.2c1.4,6.6,2.1,13.2,1.1,20c-0.3,1.9-0.1,3.9,0.1,5.9c0.2,1.7,0.7,3.4,1.2,5.1c1.3,4.2,1.7,8.4,1.7,12.8
	c0,2.4-0.1,4.8-1.9,6.7C216.2,460.8,220,461.6,224.1,461.5z M392.4,400.9c0-0.6-0.1-0.7-0.1-0.9c0.1-0.4,0.3-0.7,0.4-1.1
	c3.5-8.6,5.7-17.4,5.2-26.8c-0.4-8.2-0.6-16.4-1.1-24.6c-0.3-4.7-0.8-9.4-1.6-14c-1.4-8.4-5.2-15.9-8.7-23.5
	c-0.1-0.2-0.3-0.4-0.6-0.7c-0.2,0.9-0.4,1.7-0.6,2.4c-1.1,3.8-1.7,7.9-3.5,11.4c-4.6,8.9-10.3,17.1-18.5,23.2
	c-5,3.7-9.8,7.6-14.6,11.4c1.2,3,2.7,6,3.7,9.2c1.4,5,2.6,10,3.7,15.1c1.3,6,2.7,12,3.5,18.1c0.9,6.6,1.1,13.4,1.6,20
	c0.1,0.9,0.1,1.8,0.2,2.7c9.9-4.1,19.9-5.2,30.3-3c0.2-1.1,0.4-2,0.5-2.9c0.7-5.7,1.3-11.4,2-17.1c0-0.1-0.1-0.2-0.3-0.5
	C393.3,399.7,393,400.2,392.4,400.9z M281.9,710.9c0.1,0.1,0.3,0.3,0.4,0.4c2.6-1.6,5.4-2.7,8.4-3.2c2.8-0.5,4,0.2,4.9,2.8
	c0.2,0.5,0.4,1,0.6,1.5c1,0.1,2,0.2,3,0.2c0.2-0.8,0.4-1.5,0.5-2.2c0.4-2.1,1.2-2.8,3.2-2.2c1,0.3,1.8,0.9,2.7,1.4
	c0.6,0.4,1,0.9,1.8,1.7c0.5-1.7,1.1-3.1,1.4-4.6c0.6-3.1,0.9-6.3,1.7-9.4c2-7.2,3.9-14.5,6.3-21.6c9.1-27,14.2-54.6,14.5-83.1
	c0-0.8-0.1-1.5-0.2-2.4c-2.2,0.1-4.1-0.3-5.9,0.7c-0.4,2.5-1.9,4.2-3.8,5.7c-1.7,1.4-3.7,2.3-5.8,2.7c-7,1.5-13.9,1.5-20.8-0.7
	c-0.5-0.2-1.1-0.2-2-0.5c0,1.9,0,3.5,0,5.1c-0.2,6.2-0.7,12.4-0.6,18.6c0.1,10.8,0.7,21.7,0.8,32.5c0.1,6.1,0.1,12.3-0.5,18.4
	c-0.8,8.8-3.1,17.2-6.2,25.5C284.9,702.6,283.4,706.8,281.9,710.9z M302.1,143.3c-0.1-0.1-0.3-0.1-0.4-0.2c-0.5,0.6-1,1.2-1.6,1.7
	c-1.4,1.3-1.9,1.2-3.4-0.1c-1-0.8-2-1.6-3.1-2.1c-6.1-2.6-12.3-5-18.3-7.6c-2.3-1-4.3-0.9-6.3,0.5c-1.4,1-2.6,2.3-4.1,2.8
	c-2.1,0.6-2.8,2.2-3.7,3.7c-1.9,3.2-3,6.7-4,10.2c-1.7,5.8-2.2,11.9-3.1,17.9c-0.6,4,0.4,7.6,1.9,10.9c2.8,5.9,6.9,11.1,12.2,15.1
	c4,3,8.4,4.8,13.5,4.9c2.5,0.1,4.9,0.1,7.4,0.3c7.1,0.5,13-1.9,17.9-7c7.7-8,14-17,18.9-26.9c0.3-0.7,0.5-1.5,0.4-2.3
	c-0.3-3.8-2.3-6.6-5.4-8.6c-3.9-2.6-7.9-4.7-12.2-6.5c-1.9-0.8-3.7-1.9-5.5-2.9c-1.2-0.7-1.8-1.6-1.2-3
	C302.1,143.9,302.1,143.6,302.1,143.3z M276.4,704.9c-0.1-1.2-0.1-2-0.2-2.7c-0.6-3.2-1.3-6.4-2-9.6c-1.7-7.2-3.4-14.5-3.7-21.9
	c-0.3-8.4-0.8-16.9-0.5-25.3c0.5-15.5,1.6-30.9,2.5-46.4c0.1-1,0.1-2,0.2-3.3c-7.3,3.8-14.7,5.5-22.6,3.4c0.2-3.4,0.4-6.6,0.6-9.9
	c0.1-1.4-0.3-1.6-1.6-1.7c-1.1-0.1-2.2-0.3-3.2-0.7c-2.8-1.1-5.5-2.4-8.3-3.6c-0.5-0.2-1.2-0.3-1.9-0.5c0,2.9-0.1,5.6,0,8.4
	c0.2,7.4,0.2,14.8,0.6,22.2c0.5,8.4,2.1,16.6,3.7,24.8c1.8,9.6,3.9,19,7,28.3c2.6,7.9,4.9,16,6.2,24.3c0.9,6.2,2.1,12.4,1.1,18.8
	c0,0.1,0.1,0.2,0.3,0.5c2.3-0.4,4.3,0.2,5.6,1.9c2,0,3.7,0,5.6,0c0.6-2.3,0.7-4.9,3.4-6.2C271.3,704.8,273.6,704.2,276.4,704.9z
	 M254.1,255.8c-0.1,0.1-0.2,0.3-0.3,0.4c0.5,1.1,1,2.1,1.4,3.2c3,8.4,6.2,16.8,8.9,25.3c4.8,15,7.7,30.3,8,46
	c0.1,5.3,0.2,10.7,0.3,16c0,0.7,0,1.7,0.4,2c1.1,0.9,2.2,1.8,3.8,1.8c7.5-0.1,15-0.1,22.5-0.2c1.5,0,3-0.2,4.3-0.3
	c-0.4-2.8-0.9-5.3-1.1-7.8c-0.2-2.5-0.2-5.1-0.1-7.7c0.3-9.5-0.3-19-1.4-28.4c-0.1-1.1-0.6-2.1-0.9-3.2c-1.1-3.6-2.3-7.1-3.5-10.7
	c-0.4-1.2-0.7-2.4-1.3-3.6c-2.2-4.5-3.2-9.2-2.2-14.2c0.7-3.7,1.7-7.3,2.6-10.9c0.3-1.1,0.7-2.1-0.1-3.3c-6.9,2-14,2.2-21.1,1.9
	C267,261.9,260.4,259.4,254.1,255.8z M225.9,515.8c0.1,0,0.2,0,0.4,0c0.1,0.4,0.2,0.9,0.3,1.3c0.4,5.6,0.8,11.1,1,16.7
	c0.2,6.9,0.4,13.7,0.2,20.6c-0.2,5.3-0.8,10.7-1.4,16c-0.3,2.5,0.4,4.5,2.4,5.8c1.9,1.3,3.9,2.5,6,3.4c4.4,2,8.9,3.8,13.4,5.7
	c0.8,0.3,1.7,0.5,2.7,0.8c0-1.2,0-2.1,0-3c-0.5-8.5-0.4-17.1,0-25.6c0.5-8.8,0.1-17.5-0.2-26.3c-0.4-11.6-0.5-23.3-0.7-34.9
	c0-0.8-0.1-1.5-0.2-2.8c-1.4,1.5-2.4,2.6-3.4,3.6c-2.2,2.5-5,3.9-8.3,4.3c-5,0.6-9.9,0.4-14.8-0.3c-1.3-0.2-2.5-1-3.7-1.6
	c-0.7-0.3-1.3-0.7-1.9-1.1c0.2,0.7,0.6,1.1,0.9,1.4c0.5,0.4,1,0.8,1.4,1.3c1.2,1.5,1.4,3.3-0.1,4.5c-1.5,1.2-1.9,2.6-1.7,4.4
	c0.1,0.8,0,1.6-0.1,2.4c-0.5,5.6-0.9,11.3-1.5,16.9c-0.4,4-0.7,8.1-1.5,12.1c-1.4,7-3.1,13.8-4.7,20.8c-0.2,0.9-0.4,1.8-0.7,3
	c4.8,1.3,9.4,2.5,14.1,3.7c0.2-0.5,0.3-0.8,0.3-1.1c1-7.7,1.9-15.4,1.7-23.1c-0.2-9.3-0.1-18.5-0.1-27.8
	C225.7,516.6,225.8,516.2,225.9,515.8z M359.9,241.4c-0.1,0.5-0.2,1-0.4,1.5c-1.7,4.3-3.3,8.6-5.1,12.9c-1.2,2.9-2.7,5.8-4.8,8.2
	c-0.8,0.9-1,1.9-0.8,3.1c1.6,10.6,2.1,21.3,2,32c0,0.3,0.1,0.6,0.2,1c1.9-2.9,3.6-5.7,5.3-8.4c4.4-7,9.6-13.6,12.7-21.3
	c0.4-0.9,0.5-1.6,0.3-2.5c-0.6-2.5-1.2-5-1.8-7.4c-1.9-7.1-4-14.1-7.3-20.7c-1.8-3.7-3.4-7.6-5.4-11.2c-2.8-5.1-6.7-9.1-11.5-12.3
	c-1.5-1-3.1-1.9-4.9-2.6c-0.2,0.8-0.3,1.4-0.5,2.1c-1,4.9-2.2,9.8-4.3,14.4c-3.1,6.6-5.8,13.3-6.9,20.5c-1.3,8.6-1.6,17.1,0.1,25.7
	c2.2,11.3,6.8,21.7,12.2,31.8c0.2,0.3,0.5,0.5,0.7,0.8c0.4-1.1,0.5-2.2,0.4-3.2c-0.2-6.2-0.5-12.4-0.6-18.7
	c-0.2-12.8-2.2-25.4-4.1-38c-0.9-5.8-1-11.6-0.6-17.4c0.2,1.3,0.4,2.5,0.4,3.8c0.1,5,0.6,9.9,1.5,14.8c1.8,10,3.5,20,3.8,30.1
	c0.3,9.2,0.6,18.3,1,27.5c-1,3.4,0.6,6,2.8,8.4c0.7,0.8,1.4,1.6,2.1,2.3c0.4,0.4,0.8,0.6,1.4,1c0.1-0.6,0.2-1,0.3-1.4
	c0.8-5.2,1.1-10.4,1.1-15.7c-0.1-13.3-0.5-26.6-2.4-39.8c-0.4-2.7-0.6-5.5-1-8.2c0.1,0,0.3,0,0.4-0.1c0.6,3.1,1.3,6.1,1.9,9.2
	C352.6,256.3,355.9,248.7,359.9,241.4z M347.9,356.2c6.2-5.1,12.4-10,18.5-15c0.7-0.6,1.4-1.3,2-2.1c3.1-4.1,6.3-8.2,9.2-12.5
	c1.7-2.6,3.1-5.4,4.3-8.2c1.3-3.2,2.1-6.7,3.1-10c0.2-0.7,0.1-1.6-0.2-2.3c-1.4-3.3-2.7-6.7-4.5-9.8c-3.9-7.2-6.7-14.8-9.2-22.5
	c-0.3-1-0.7-1.9-1.1-3.2c-0.3,0.7-0.4,1-0.5,1.3c-1.1,2.5-1.9,5.1-3.2,7.4c-3.9,6.6-8,13-12.1,19.5c-0.5,0.8-1.1,1.6-1.9,2.1
	c-1.2,0.9-1.7,2-1.7,3.5c-0.2,4.9-0.5,9.9-0.9,14.8c-0.2,2,0.2,3.4,2.3,4.1c0.7,0.2,1.3,0.7,0.8,1.8c-1.1,0.1-2.2,0.1-3.7,0.2
	c-0.8,6.9-1.2,13.8-4.1,20.5c3,1.8,2.5,4.6,2,7.1C346.7,354.3,347.2,355.1,347.9,356.2z M305.7,358.2c0.1,0.6,0.1,0.8,0.2,1
	c3.9,8.2,5.6,17,6.8,25.8c0.9,6.5,1.2,13,1.6,19.5c0.7,13.3,1,26.6,1.9,39.9c0.5,7.8,1.8,15.5,2.7,23.4c5,0.7,9.7,1.3,14.5,2
	c0.2-0.9,0.4-1.5,0.4-2.2c0.4-6.5,0.9-13,1.2-19.6c0.6-12.8-0.6-25.5-3.8-37.9c-2.9-11.2-5.8-22.4-8.6-33.6
	c-1.5-6.1-2.9-12.2-4.4-18.4C314.2,358.2,310.1,358.2,305.7,358.2z M234.1,244c-1,1.1-1.6,1.8-2.1,2.5c-2.8,3.4-4.8,7.3-6.8,11.2
	c-1.4,2.6-2.1,5.2-2.1,8.2c0.1,9.3-0.3,18.7,1.1,28c1.8,12.6,5.6,24.5,13.3,35c3.2,4.4,5.8,9.4,8.4,14.2c1.2,2.1,1.9,4.5,2.8,6.9
	c2.8,0.3,5.6,0.6,8.8,0.9c0-3,0.2-5.8,0-8.7c-0.4-8.3-2.4-16.4-4.4-24.4c-2.7-10.9-6.4-21.5-10.6-32c-5.1-12.6-8.2-25.7-8-39.4
	C234.3,245.6,234.2,245.1,234.1,244z M347.4,322.6c-0.9-0.9-1.5-1.5-2-2.1c-2.6-2.4-4.9-5-6.6-8.1c-5-8.8-9.3-17.8-12-27.5
	c-2.8-10-4-20.2-2.5-30.5c0.4-3,1.1-5.9,1.7-9c-0.3,0.3-0.6,0.5-0.8,0.7c-2.5,3.6-5.7,6.6-8.9,9.6c-3.7,3.4-7.3,7-10.8,10.5
	c-2.9,3-5.2,6.4-6.8,10.3c-1.4,3.4-2.1,6.9-1.3,10.5c0.6,3,1.3,6.1,2.1,9.1c2.3,8.5,7.3,14.5,15.5,17.9c5.8,2.4,11.7,4.6,17.7,6.6
	C337.1,322.2,342,322.4,347.4,322.6z M248,357.5c-0.5,1.4-0.8,2.4-1.1,3.4c-1.4,3.9-3,7.7-4.2,11.7c-5.6,19-10.2,38.2-13.3,57.7
	c-1.5,9.6-3.1,19.2-3.6,28.9c0,0.8,0,1.7,0,2.7c7.7,0.4,15.2,0.7,22.8,1.1c0.2-1.3,0.4-2.2,0.5-3.1c0.1-4.6,0.3-9.2,0.2-13.9
	c-0.1-6-0.6-11.9-0.8-17.9c-0.2-4.5-0.3-8.9-0.6-13.4c-1-15.2,1.3-29.9,6-44.3c1.2-3.7,2.3-7.5,3.5-11.2c0.1-0.5,0.1-1,0.2-1.7
	c-1-0.1-1.8-0.1-2.5-0.1C252.7,357.5,250.4,357.5,248,357.5z M226.4,213.5c-4,2.5-7.5,4.7-11.1,6.7c-7.6,4.1-13.9,9.5-19.6,15.9
	c-6.9,7.7-12.7,16.2-18,25c-2.5,4.1-4.3,8.6-5.5,13.2c-3.8,14.8-4,29.8-3.3,44.9c0,0.5,0.4,1.2,0.9,1.5c1.2,1.1,2.6,1.5,4.2,0.9
	c0.8-0.3,1.6-0.6,2.5-0.9c8.5-3.4,14.6-9.6,19.7-16.8c0.7-1,1.1-2.3,1.7-3.4c0.4-0.8,0.2-1.5-0.3-2.2c-2.8-4.2-4.7-8.9-6.3-13.7
	c-4.3-12.6-3.3-24.8,3.9-36.3c3.9-6.2,8.8-11.5,14.4-16.2c5.8-4.8,10.9-10.3,15.4-16.4C225.4,215.1,225.8,214.5,226.4,213.5z
	 M240.2,236.4c-1.5,1.9-2.8,3.6-4.2,5.2c-0.8,0.9-1.1,1.9-1,3.1c0.8,5.9,1.3,11.9,2.2,17.8c1.2,7.5,3.9,14.7,6.6,21.7
	c5.2,13.2,9.8,26.6,12.4,40.7c1.5,8.1,3.1,16.1,2.6,24.4c0,0.7,0.1,1.3,0.2,2.1c5.5-3.7,6.4-4.8,11.2-4c0-0.8,0-1.6,0-2.3
	c0-2.6-0.1-5.1-0.1-7.7c-0.2-8.6-0.5-17.2-1.8-25.8c-1.7-10.5-4.3-20.8-7.6-30.9c-2.8-8.3-5.7-16.6-8.6-24.9
	c-0.3-0.8-0.7-1.7-1.4-2.2c-4.5-3.2-7.1-7.6-8.7-12.7C241.6,239.5,240.9,238.1,240.2,236.4z M173.6,390.3c2.5-0.1,4.5-0.9,6.4-1.7
	c7.2-3.2,13.7-7.5,19.8-12.5c2.7-2.2,5.2-4.8,7-7.8c1.2-1.9,2.3-4,3.4-6c2.9-5,5.7-10,7.3-15.5c1-3.3,0.7-6.3-1.2-9.4
	c-2.1-3.5-3.7-7.4-5.5-11.1c-0.2-0.5-0.4-0.9-0.8-1.7c-0.6,1.2-0.9,2-1.4,2.9c-1.5,2.7-2.8,5.6-4.6,8.1
	c-5.3,7.4-12.3,12.4-21.2,14.5c-3.3,0.8-6.5,0.7-9.6-0.5c-0.5-0.2-1-0.4-1.5-0.6C172.3,362.8,172.9,376.4,173.6,390.3z M319.3,358.1
	c0.3,1,0.4,1.7,0.6,2.3c1.2,4.1,2.5,8.1,3.6,12.2c2.8,10.5,5.3,21,8.1,31.5c3,11.1,5.2,22.2,5.4,33.7c0.2,9.4-0.1,18.8-1,28.2
	c-0.1,1.3-0.3,2.5-0.5,4c4.4,0.3,8.7,0.6,13.3,1c0-1.4,0-2.6,0-3.8c0-2.6,0-5.1,0.1-7.7c0.1-5.8,0.4-11.6,0.4-17.5
	c0-14.4-1.7-28.7-4.4-42.8c-2.8-14.2-6.8-28-11.6-41.7c-0.1-0.4-0.4-0.7-0.6-1C328.3,357.1,324,357.6,319.3,358.1z M299,735.7
	c-0.2,0-0.4,0-0.6,0.1c-0.4-1.4-0.9-2.7-1.2-4.1c-0.6-3-1.2-6.1-1.7-9.2c-0.6-3.5-1-6.9-1.6-10.4c-0.4-2-1-2.4-3.1-1.9
	c-3.1,0.7-5.9,1.9-8.6,3.5c-1,0.6-1.3,1.3-1.2,2.4c0.1,1.6,0.1,3.2,0.2,4.8c0.5,11,1.9,21.9,0.2,32.9c-0.2,1.2,0.3,1.8,1.4,2.1
	c2.4,0.7,4.7,1.6,7.1,2.1c6.3,1.3,12.8,1.5,19.3,1.7c1.7,0,3.5-0.4,5.1-0.9c3-0.9,4.5-3.1,4.5-6.3c-0.1-5.7-0.8-11.1-3.7-16.1
	c-0.3-0.5-0.7-0.9-1.2-1.8c0.1,1.9,0.2,3.3,0.3,4.7c-2.5-5.7-4.2-11.5-4.5-17.6c-0.2-4.8-2.8-8-5.8-11.2c-0.8-0.8-1.7-1.4-3.1-0.9
	c0.2,5.7-0.2,11.4-1.4,17.1c0-4.2,0-8.4,0-12.8c-1,0.1-1.7,0.1-2.6,0.2C297.4,721.5,298.2,728.6,299,735.7z M253.7,179.6
	c-0.8,6-0.1,11.7,2,17.2c1.4,3.7,2.5,7.4,3.1,11.3c1.3,9.2,0,17.8-5.7,25.5c-0.2,0.2-0.2,0.5-0.4,0.9c6.4,3.2,12.7,6.2,19.6,7.7
	c4.6,1,9.2,1.8,14,1c1.5-0.2,2.9-0.7,4.1-1.9c-0.5-1.1-1-2.1-1.5-3c-0.9-1.8-1.9-3.5-2.7-5.3c-1.4-3.2-2.2-6.5-2-10
	c0.3-6.6,2-12.7,5.7-18.3c0.3-0.5,0.5-1,0.8-1.8c-3.6-0.2-6.8-0.3-10.1-0.5c-4.3-0.3-8.4-1.3-11.9-3.9c-4.6-3.4-8.6-7.6-11.5-12.6
	C255.9,183.8,254.9,181.7,253.7,179.6z M246.3,349.8c-0.1-2.3-1-4.1-1.9-5.9c-2.9-6-6.6-11.5-10.4-16.9c-3.5-5.1-6.2-10.6-8-16.5
	c-4.2-13.9-5.3-28.2-3.9-42.6c0.1-1.1,0.1-2.2,0.2-3.3c-0.8,0.5-1.1,1-1.4,1.5c-2.1,4.2-4.3,8.4-6.3,12.6
	c-4.1,8.4-6.6,17.1-5.9,26.5c0.2,2.4-0.1,4.8,0.5,7.1c1,4.2,2.3,8.3,3.6,12.4c2.5,7.7,6.9,14.4,12.2,20.4c3.4,3.8,7.6,5.2,13,4.1
	c-2.8-2.5-5.3-4.9-7.4-7.7c3,2.2,5.8,4.5,8.6,6.9c0.5,0.4,1,1,1.5,1.1C242.4,349.7,244.3,349.7,246.3,349.8z M198.8,300.5
	c-0.9,1.7-1.5,3.5-2.6,5.1c-4.7,7.1-10.6,13-18.6,16.3c-2.7,1.1-5.4,2.4-8.6,0.6c0.1,1.1,0.1,1.9,0.2,2.7c0.2,2.8,0.5,5.6,0.8,8.3
	c0.4,4.4,0.9,8.7,1.3,13.1c0.1,1.2,0.5,1.8,1.8,2.1c2,0.5,4,0.7,6.2,0.5c5.5-0.6,10.3-2.8,14.7-5.9c7.8-5.3,12.2-13.1,15.2-21.8
	c0.2-0.6,0.1-1.4,0-2.1c-1-4-2.1-8-3.2-12c-0.2-0.7-0.7-1.5-1.2-2C202.8,303.9,200.8,302.3,198.8,300.5z M357.7,454.3
	c1.4,0.2,2.6,0.5,3.8,0.6c6.8,0.5,13.7,0.6,20.5,1.9c2.3,0.4,4.5,1.1,6.8,1.6c2.4,0.4,3.4-0.6,3.4-2.9c0-3.6,0-7.2,0.1-10.8
	c0.2-5.4,0.5-10.8,2.4-16c0.2-0.6,0.3-1.2,0.3-1.9c0.1-2.8-0.1-3-2.9-3.6c-0.2,0-0.5,0-0.7-0.1c-2.5-1.7-5.4-1.7-8.3-1.7
	c-4,0-8,0.2-11.9,0.6c-2.6,0.3-5.1,1.1-7.7,1.8c-1.6,0.4-2.4,1.4-2.2,3.2c0.2,2.3,0.1,4.6,0.4,6.9c0.5,3.7,0.1,7.3-1.1,10.9
	C359.7,447.7,358.8,450.8,357.7,454.3z M333.9,356.6c0.6,1.3,1.2,2.5,1.7,3.7c5.3,11.7,8.3,24.2,10.9,36.6
	c1.9,8.9,2.9,18.1,3.8,27.2c0.9,9,1.3,18,0.7,27c-0.4,4.9-0.4,9.7-0.6,14.6c0,0.5,0.1,0.9,0.2,1.4c1.3-3.2,2.4-6.4,3.5-9.5
	c1.6-5.2,3.3-10.3,4.8-15.5c0.5-1.8,0.7-3.8,0.6-5.7c-0.2-5.7-0.5-11.3-0.8-17c-0.3-7.3-0.6-14.7-1.9-21.9
	c-0.9-5.3-2.4-10.4-3.1-15.7c-1.1-7.7-3.1-15.1-6.2-22.3c-0.8-1.8-1.3-3.7-1.9-5.6c-3.5,0.7-7.2,1.5-10.8,2.3
	C334.5,356.3,334.4,356.4,333.9,356.6z M213.8,457.1c0.2-0.3,0.4-0.6,0.5-0.9c0.1-0.5,0.2-0.9,0.3-1.4c0.3-4.4,0-8.7-1.1-13
	c-0.8-3-1.4-6-2.1-9.1c-0.1-0.5-0.2-1.1-0.4-1.7c-1.4-0.2-2.7-0.6-4-0.6c-5.6-0.3-11.2,0-16.6,1.1c-3.3,0.7-6.6,1.4-9.4,3.4
	c-1.6,1.1-1.7,1.3-1.1,3.2c0.8,2.3,1.7,4.6,2.4,7c1.1,3.6,2.2,7.3,3.2,11c0.4,1.5,0.6,3,1.1,4.4c0.5,1.7,0.9,2,2.6,1.4
	c1.9-0.7,3.8-1.6,5.7-2.5c4.5-2.1,9.1-3.3,14.1-3C210.4,456.4,212.1,456.8,213.8,457.1z M295.4,258.2c-0.2-5.4-1.8-10.1-4-14.5
	c-1.6,0.5-2.9,1-4.3,1.3c-4.6,1-9.2,0.4-13.8-0.2c-5.6-0.8-10.7-3.2-15.7-5.7c-2.1-1-4-2.3-6.1-3.5c-2.2,2-4.6,4.2-6.9,6.3
	c1.6,4.4,3.5,7.2,6.8,9.6c4.8,3.4,10,6,15.7,7.5c7.3,1.9,14.7,1.5,22.1,0.6C291.2,259.3,293.2,258.7,295.4,258.2z M331.3,346.2
	c1.4-7.3,4.2-14,6.8-20.7c-0.2,6.9-3.4,13.2-4.4,20.3c1.7-0.2,3.2-0.3,4.7-0.5c1.6-0.1,3.1-0.2,4.6-0.3c2.1-4.7,4.2-16.5,3.6-20.1
	c-1.3-0.1-2.7-0.3-4-0.4c-5.4-0.5-10.7-1.4-15.6-4c-1.2-0.6-2.4-1-3.8-1.5c-1,10.3-4.3,19.8-6.1,30
	C321.9,348,326.5,347.1,331.3,346.2z M306,349.9c2.6-0.2,5.1-0.3,7.5-0.5c2-0.2,2.3-0.6,2.4-2.5c0.1-1.7,0.2-3.3,0.6-4.9
	c1.2-4.7,2.5-9.4,3.8-14.1c0.7-2.9,1.7-5.8,1.6-9c-1.7-0.6-3.5-1.2-5.1-1.9c-1.7-0.7-3.4-1.4-5-2.3c-1.7-0.9-3.3-1.9-4.9-3
	c-1.4-1-2.6-2.3-4.2-3.7c0.1,0.8,0,1.2,0.1,1.6c1.4,8.9,2,17.7,1.4,26.7C303.9,340.7,304.1,345.3,306,349.9z M237.2,499.9
	c4.4,0.1,7.4-1.7,9.7-4.6c0.3-0.3,0.3-1,0.2-1.5c-0.2-2.1-0.6-4.1-0.5-6.2c0.3-6.5,0.9-13,1.4-19.5c0.1-0.9,0.2-1.8,0.3-3
	c-3.8,0-7.2,0-10.7,0c-0.9,2.2-0.9,4.5-0.8,6.9c0.1,4.6,0.1,9.2,0,13.8c0,2.9-0.2,5.9-0.2,8.8C236.6,496.3,236.9,498,237.2,499.9z
	 M344.9,352c0.5-3.7,0.2-4.2-2.8-4.6c-0.5-0.1-1-0.2-1.4-0.1c-3,0.3-6.1,0.5-9,1.1c-9.2,1.7-18.3,3.6-27.7,3.9
	c-8,0.2-15.9,0.7-23.9-0.1c-0.8-0.1-1.7-0.3-2.5,0.2c1,1.6,1.9,3.1,2.8,4.5c0.2,0,0.4,0.1,0.5,0.1c7.9-0.3,15.8-0.7,23.7-0.8
	c8.7-0.1,17.4-0.1,26-1.5C335.4,353.9,340.1,352.9,344.9,352z M319.3,469.6c0.5,2.7,0.8,5.2,1.3,7.6c1.4,6.6,2.9,13.2,4.4,19.8
	c0.5,2,0.9,4.1,1.6,6c1.1,2.8,3.3,4.3,6.4,4.7c-0.5-6-1.4-11.8-1.4-17.7c0-5.9,0.7-11.9,1.1-17.9c-0.2,0-0.5-0.2-0.8-0.2
	c-3.6-0.4-7.1-1.1-10.5-2.3C320.9,469.4,320.2,469.6,319.3,469.6z M341.9,473c-2.4-0.2-4.5-0.4-6.5-0.6c-2.4,8.6-2.1,29.2,0.3,36.1
	c3.2,0.1,6.5,0.3,10.3,0.5c-0.9-4.3-1.7-8.1-2.5-12c-0.8-3.9-1.7-7.8-1.6-11.8C341.9,481.1,341.9,477.1,341.9,473z M225.5,463.8
	c0.7,12.3,1.5,24.3,2.2,36.4c2.6,0.2,5.1,0.3,7.3,0.1c-0.1-3.2-0.2-6.2-0.2-9.1c0-2.1,0.4-4.1,0.4-6.2c0.2-5.2,0.3-10.3,0.4-15.5
	c0-1.5,0.3-3,0.4-4.7C232.6,464.4,229.3,464.1,225.5,463.8z M224,463.6c-2.6-0.6-5.1-1.2-7.8-1.8c0.2,0.7,0.3,1.2,0.5,1.6
	c0.9,3.3,1.8,6.6,1.7,10.1c0,1.6,0.2,3.3,0.6,4.9c0.6,2.4,1.5,4.7,2.1,7.1c0.7,2.4,1.3,4.8,1.9,7.2c0.3,1.4,0.2,2.8-0.8,4
	c-0.5,0.6-0.7,1.3-1.1,2c2.3,1.2,2.7,1.3,5.2,0.9C226.2,487.6,224.5,475.7,224,463.6z M350.6,508.9c-0.4-11.9-0.7-23.6-1.1-35.4
	c-2.3-0.2-4.4-0.3-6.3-0.4c-0.1,12.3,1.9,24,4.8,35.6c0.4,0.1,0.7,0.1,1.1,0.2C349.4,508.9,349.8,508.9,350.6,508.9z M248.6,492.8
	c7.3-7.9,7.9-17.9,9.8-27.7c-3,0-5.7,0-8.3,0C248.4,469.9,247.3,489.2,248.6,492.8z M273.4,360.9c0.4,0,0.9,0,1.4-0.1
	c2.9-0.5,3.8-2.3,2.5-4.9c-0.2-0.5-0.6-0.9-0.9-1.4c-1.9-2.4-4.4-3.9-7.3-4.8c-2-0.7-4-0.2-5.8,0.7c-1.5,0.8-2,2.2-1.1,3.6
	C265,357.8,268.4,360.6,273.4,360.9z M224.4,347.9c0,2.8,1.4,4.8,4,5.7c1.4,0.5,2.9,0.9,4.4,1.1c6.2,0.8,12.4,1,18.6,0.8
	c2.2,0,4.4,0.1,6.7,0.1c0.8,0,1.7,0.3,2.7-0.4c-0.6-0.7-1-1.6-1.6-1.7c-2.3-0.6-4.7-1-7.1-1.3c-1.7-0.2-3.5-0.2-5.2-0.3
	c-4.4-0.2-8.7-0.7-13.1-0.6c-2.8,0-5.1-0.7-7.4-2.2C225.7,348.7,225.1,348.3,224.4,347.9z M315.3,760.9c-2.8,1-5.7,1-8.6,0.8
	c-2.9-0.1-5.7-0.2-8.6-0.5c-2.9-0.3-5.7-0.5-8.5-1.2c-2.7-0.7-5.3-1.9-8-2.9c0.7,2.7,2.4,4.4,4.8,5.1c2.2,0.7,4.5,1.2,6.7,1.4
	c4.6,0.4,9.2,0.6,13.8,0.8C310.2,764.7,313.1,763.5,315.3,760.9z M267.7,362.3c-2.9-2.4-3.2-2.4-5.6-0.1c-3.7,3.6-5.8,7.9-5.9,13.2
	c0,0.8-0.2,1.7,0.8,2.5c0.6-1.4,1.1-2.5,1.5-3.7c0.8-2.3,2.1-4.3,3.9-5.9c1-0.9,2.1-1.8,3-2.8C266.3,364.5,267,363.3,267.7,362.3z
	 M246.4,765c0,1.2,0.7,1.5,1.9,1.3c4.6-0.9,9.2-0.8,13.8-0.2c1.2,0.2,2.6,0.1,3.8,0c5.2-0.5,9.4-2.8,12.4-7.2
	c0.5-0.8,0.8-1.7,1.2-2.6c-0.7,0.2-1,0.5-1.3,0.9c-3.2,4-7.4,6.1-12.5,6.5C259.3,764.1,253,764.6,246.4,765z M245.1,228.6
	c-0.8,1.3-1.5,2.4-2.1,3.4c-0.7,1.1-1.4,2.3-2.1,3.3c1,1.8,2,3.5,3.1,5.4c1.8-2.3,3.5-4.5,5.2-6.6c-0.8-1-1.5-1.8-2.1-2.6
	C246.4,230.7,245.9,229.8,245.1,228.6z M220.3,356.1c0.1,0,0.3,0.1,0.4,0.1c1-1.4,2.5-2.6,2.9-4.1c0.4-1.6,0.2-3.6-0.4-5.3
	c-0.4-1.3-1.7-2.3-2.9-3.7C220.3,347.7,220.3,351.9,220.3,356.1z M257.5,362.9c0.1,0.1,0.3,0.1,0.4,0.2c1.6-1.5,3.3-3,5.3-4.9
	c-1.9-0.1-3.2-0.2-4.7-0.3C258.1,359.7,257.8,361.3,257.5,362.9z"/>
<path class="st0" d="M319.1,514.4c0,2.9-0.1,5.7,0,8.6c0.6,12.4,1.3,24.9,1.9,37.3c0.3,5.6,0.5,11.2,0.7,16.7
	c0.2,2.9,0.5,5.9,0.7,8.8c0,0.3,0.1,0.6,0.1,0.9c0.6,5.4-0.8,7.8-5.9,9.8c-4.1,1.6-8.4,1.7-12.7,1.6c-3.9-0.1-7.6-0.9-11.1-2.6
	c-1.9-0.9-2.8-2.2-2.9-4.4c-0.2-6.4-0.8-12.7-1.2-19.1c-0.2-3.1-0.5-6.2-1-9.3c0,5.9,0,11.8,0,17.9c-1.1-0.1-2.2-0.4-3.2-0.3
	c-1.1,0.1-2.1,0.5-3.3,0.8c-0.1-0.7-0.2-1.2-0.2-1.7c-0.2-5.3-0.3-10.7-0.6-16c-0.7-13.2-0.6-26.5-0.1-39.7
	c0.9-24.7,0.9-49.3,0.5-74c-0.1-8.7-0.8-17.4-1.3-26.1c-0.2-4.1-0.4-8.1-0.6-12.2c-0.3-6.7-0.5-13.4-0.8-20.1c0-1.2-0.2-2.4-0.7-3.6
	c0,1.7,0,3.3,0,5c0.2,11.2,0.2,22.5,0.7,33.7c1.2,30,1,60,0.3,90c-0.1,5.8-0.6,11.6-0.5,17.5c0,10.2,0.2,20.4,0.5,30.6
	c0.1,3.4,0.3,6.9,0.6,10.3c0.2,2.3,0.5,4.6,1,6.8c0.7,2.8,0,5-2,6.9c-6,5.6-13,8.9-21.2,9.4c-1.3,0.1-2.5,0-3.8,0
	c-0.1,0-0.3-0.1-0.6-0.3c0-1.3,0-2.7,0-4.1c0.1-4.9,0.5-9.9,0.3-14.8c-0.4-9,0.3-18,0.4-27c0-8.8-0.4-17.5-0.6-26.3
	c-0.2-6.8-0.4-13.6-0.7-20.3c-0.2-3.7-0.7-7.5-1.1-11.2c-0.1-1.1-0.1-2,0.6-3c3.7-4.9,5.1-10.6,6.2-16.4c2.3-11.7,4.4-23.5,6.7-35.3
	c2.4-12.4,4.2-24.9,5.5-37.4c0.4-3.8,0.4-7.6,0.7-11.5c0.5-8.1,1.1-16.2,1.7-24.4c0-0.5,0-1,0-1.6c-0.2,0-0.3-0.1-0.5-0.1
	c-0.4,1.7-0.8,3.3-1.1,5c-1.3,7.8-2,15.7-2.3,23.6c-0.5,14.2-2.2,28.3-4.7,42.3c-1.5,8.6-2.9,17.1-4.4,25.7
	c-0.1,0.6-0.3,1.2-0.5,1.9c-2.8,0-5.5,0-8.3,0c0-0.8,0-1.5,0-2.2c0.1-5.1,0.4-10.2,0.2-15.3c-0.3-11.2-0.8-22.5-1.3-33.7
	c-0.5-11.3,0.9-22.5,3.9-33.4c0.1-0.4,0.2-0.8,0.4-1.1c0.1-0.1,0.2-0.2,0.4-0.4c0.3,0.9,0.4,1.8,0.8,2.7c0.7,1.5,2.2,1.8,3.2,0.4
	c0.8-1,1.5-2.3,1.9-3.5c1-3.3,3-5.7,5.5-8c1.7-1.5,3-3.4,4.4-5.1c2.1-0.1,4.4,0,6.5-0.4c2.3-0.5,3.7-2.1,4-4.7
	c0.6-0.1,1.1-0.2,1.7-0.2c6.6,0.1,13.2,0.2,19.9,0.3c2.2,0,2.1,0,2.9,2c2.5,6.5,3.7,13.4,5.1,20.2c1.6,7.8,2,15.7,2.4,23.6
	c0.3,7.8,0.8,15.6,1.2,23.4c0.2,5.2,0.1,10.4,0.5,15.5c0.6,6.9,1.6,13.8,2.4,20.7c1.3,10.7,3.7,21.2,6.2,31.7
	c0.4,1.8,0.8,3.6,1.1,5.4c1,5,4,8.2,9.1,9.3c1.6,0.3,3.1,0.6,4.7,0.9c1,0.2,2,0.3,3.1,0.5c0,1.7,0.1,3.3,0,4.9
	c-0.9,12.4-0.3,24.7,0.4,37.1c0.3,5.6,0.6,11.2,1.1,16.7c0.4,3.7,1.1,7.4,1.7,11.1c0.7,4.5,0.1,5.4-4.4,6.4c-2.7,0.6-5.3,1-8.1,0.8
	c-1.9-0.1-3.8,0-6,0c-0.4-3.3-0.8-6.6-1-9.9c-0.6-8.7-0.9-17.4-1.5-26c-0.8-11-1.8-21.9-2.8-32.9c-0.1-1.7-0.3-3.3-0.5-5
	C319.3,514.5,319.2,514.4,319.1,514.4z"/>
<path class="st0" d="M224.1,461.5c-4.1,0.2-7.9-0.7-9.3-2.1c1.8-1.9,1.9-4.3,1.9-6.7c0-4.3-0.4-8.6-1.7-12.8c-0.5-1.7-1-3.4-1.2-5.1
	c-0.2-1.9-0.4-4-0.1-5.9c0.9-6.7,0.3-13.4-1.1-20c-0.7-3.1-1-6-0.3-9.2c0.6-2.6,0.6-5.2,0.8-7.8c0.5-6.1,0.9-12.2,1.4-18.4
	c0.1-0.8,0.1-1.5,0-2.3c-1.1,1.6-1.5,3.4-1.7,5.3c-0.4,3.6-0.8,7.3-1,11c-0.3,7.3-1.6,14.4-3.1,21.5c-0.1,0.5-0.1,0.9,0.1,1.5
	c0.5-0.9,1-1.8,1.5-2.8c1.9,4.3,2.4,18,0.9,20.8c-11.2-0.9-22.2-1-32.2,5.8c-1.2-3.3-0.7-6.8-0.6-10.5c0.9,0.6,1.5,1.1,2.5,1.8
	c-1.5-4.2-2.8-8.1-4.2-12.1c-1.4-3.9-2-8-2.2-12.6c1.5,2.2,2.8,4.1,4.1,6c-1.3-5.3-4.8-9.9-4.8-15.5c12.4-2.5,22-9.3,30.9-17.6
	c2.1-1.9,3.4-4.4,4.5-7c0.7-1.7,1.5-3.4,2.5-4.8c2.7-3.7,5.3-7.4,6.4-11.9c0-0.1,0.2-0.2,0.5-0.4c0.5,7.8-2.4,15.1-3.3,22.6
	c3.4-6.1,5.6-12.7,9.2-19c2.8,3,6.5,3.3,10.2,4c-3.9,5.8-6.3,12.1-9.2,18.2c0.1,0.1,0.3,0.2,0.4,0.3c0.3-0.5,0.7-0.9,0.9-1.4
	c2.8-5.3,5.6-10.6,8.4-15.9c0.4-0.8,0.9-1.2,1.8-1.2c3.1,0.2,6.2,0.2,9.3,0.4c0.2,0,0.4,0.1,0.8,0.3c-0.2,0.6-0.4,1.2-0.7,1.8
	c-5.2,9.7-8.3,20.2-10.7,30.9c-3,13.6-6,27.3-8,41.1c-1.4,9.2-2.9,18.5-3.4,27.8C224.3,460.1,224.2,460.7,224.1,461.5z"/>
<path class="st0" d="M392.4,400.9c0.6-0.7,0.9-1.2,1.3-1.7c0.1,0.2,0.3,0.4,0.3,0.5c-0.6,5.7-1.3,11.4-2,17.1
	c-0.1,0.9-0.3,1.9-0.5,2.9c-10.4-2.2-20.3-1.1-30.3,3c-0.1-0.9-0.1-1.8-0.2-2.7c-0.5-6.7-0.7-13.4-1.6-20
	c-0.8-6.1-2.2-12.1-3.5-18.1c-1.1-5.1-2.2-10.1-3.7-15.1c-0.9-3.2-2.5-6.2-3.7-9.2c4.9-3.8,9.7-7.7,14.6-11.4
	c8.2-6.1,13.9-14.3,18.5-23.2c1.8-3.5,2.4-7.6,3.5-11.4c0.2-0.7,0.4-1.5,0.6-2.4c0.3,0.4,0.5,0.5,0.6,0.7c3.5,7.6,7.3,15.1,8.7,23.5
	c0.8,4.6,1.3,9.3,1.6,14c0.5,8.2,0.7,16.4,1.1,24.6c0.5,9.4-1.7,18.2-5.2,26.8c-0.1,0.4-0.3,0.7-0.4,1.1
	C392.3,400.2,392.4,400.4,392.4,400.9z"/>
<path class="st0" d="M281.9,710.9c1.5-4.2,3-8.3,4.6-12.5c3.1-8.2,5.5-16.7,6.2-25.5c0.5-6.1,0.5-12.3,0.5-18.4
	c-0.2-10.8-0.7-21.7-0.8-32.5c-0.1-6.2,0.4-12.4,0.6-18.6c0.1-1.6,0-3.3,0-5.1c0.9,0.2,1.4,0.3,2,0.5c6.9,2.2,13.8,2.2,20.8,0.7
	c2.1-0.5,4.1-1.4,5.8-2.7c1.9-1.5,3.4-3.1,3.8-5.7c1.8-1,3.7-0.6,5.9-0.7c0.1,0.9,0.2,1.6,0.2,2.4c-0.3,28.5-5.3,56.1-14.5,83.1
	c-2.4,7.1-4.3,14.3-6.3,21.6c-0.8,3.1-1.1,6.3-1.7,9.4c-0.3,1.5-0.9,2.9-1.4,4.6c-0.8-0.7-1.2-1.3-1.8-1.7c-0.8-0.6-1.7-1.2-2.7-1.4
	c-2-0.5-2.9,0.1-3.2,2.2c-0.1,0.7-0.3,1.4-0.5,2.2c-1-0.1-2-0.2-3-0.2c-0.2-0.5-0.4-1-0.6-1.5c-1-2.6-2.1-3.3-4.9-2.8
	c-3,0.5-5.8,1.6-8.4,3.2C282.2,711.2,282,711.1,281.9,710.9z"/>
<path class="st0" d="M302.1,143.3c0,0.3,0,0.6-0.1,0.9c-0.6,1.4,0,2.3,1.2,3c1.8,1,3.6,2.1,5.5,2.9c4.3,1.8,8.4,3.9,12.2,6.5
	c3.1,2,5.1,4.8,5.4,8.6c0.1,0.7-0.1,1.6-0.4,2.3c-4.9,9.9-11.2,18.9-18.9,26.9c-4.9,5.1-10.8,7.5-17.9,7c-2.5-0.2-4.9-0.2-7.4-0.3
	c-5.1-0.1-9.5-1.9-13.5-4.9c-5.3-4-9.4-9.2-12.2-15.1c-1.6-3.3-2.6-6.9-1.9-10.9c1-6,1.4-12,3.1-17.9c1-3.5,2.2-7,4-10.2
	c0.9-1.6,1.6-3.1,3.7-3.7c1.5-0.4,2.8-1.8,4.1-2.8c2-1.4,4-1.5,6.3-0.5c6.1,2.6,12.2,5,18.3,7.6c1.1,0.5,2.2,1.3,3.1,2.1
	c1.5,1.3,2,1.4,3.4,0.1c0.6-0.5,1.1-1.1,1.6-1.7C301.9,143.2,302,143.2,302.1,143.3z M311.3,161c-1.3,2.7-2.8,2.9-4.5,0.9
	c-0.5-0.6-0.9-1.1-1.6-1.9c-0.4,2.4,1.1,3.1,2.5,3.9c2.1,1.3,3.5,0.1,4.7-1.4c1.2,0.8,1.3,2.5,2.9,2.9c-0.3-5.7-8.3-9.6-13.2-6.4
	C305.2,159.5,308.6,158.6,311.3,161z M284.8,148c-1.2-4.4-6.7-6.9-10.8-4.8c1.1,0.1,2.1,0.1,3.2,0.2c-0.1,0.4-0.1,0.7-0.2,1
	c-0.6,2.8,0.1,3.8,2.9,4.3c1.2,0.2,2.2,0.1,3.2-0.6C283.4,148,284.1,148.1,284.8,148z M276.4,179.6c-2.2-1.5-4-2.2-5.6-2
	C272.1,180,274.6,179,276.4,179.6z M289.5,171.7c0.1-0.2,0.3-0.4,0.4-0.6c-0.5-0.7-1.1-1.3-2.7-0.7
	C288.2,171,288.8,171.4,289.5,171.7z M287.8,187.7c-0.1-1.6-0.1-1.6-2.4-1.8C286.2,186.5,286.9,186.9,287.8,187.7z"/>
<path class="st0" d="M276.4,704.9c-2.8-0.7-5.1-0.1-7.4,1c-2.6,1.3-2.8,3.9-3.4,6.2c-1.9,0-3.6,0-5.6,0c-1.3-1.7-3.4-2.3-5.6-1.9
	c-0.2-0.3-0.3-0.4-0.3-0.5c1-6.3-0.1-12.6-1.1-18.8c-1.3-8.3-3.5-16.4-6.2-24.3c-3.1-9.3-5.2-18.7-7-28.3
	c-1.6-8.2-3.2-16.5-3.7-24.8c-0.4-7.4-0.5-14.8-0.6-22.2c-0.1-2.7,0-5.4,0-8.4c0.8,0.2,1.4,0.2,1.9,0.5c2.8,1.2,5.5,2.5,8.3,3.6
	c1,0.4,2.1,0.6,3.2,0.7c1.3,0.1,1.7,0.3,1.6,1.7c-0.2,3.2-0.4,6.5-0.6,9.9c7.9,2.1,15.3,0.4,22.6-3.4c-0.1,1.3-0.2,2.3-0.2,3.3
	c-0.8,15.4-1.9,30.9-2.5,46.4c-0.3,8.4,0.2,16.9,0.5,25.3c0.3,7.4,2,14.7,3.7,21.9c0.8,3.2,1.4,6.4,2,9.6
	C276.3,703,276.3,703.8,276.4,704.9z"/>
<path class="st0" d="M254.1,255.8c6.3,3.6,13,6.1,20.3,6.4c7.1,0.3,14.2,0.1,21.1-1.9c0.8,1.2,0.4,2.2,0.1,3.3
	c-0.9,3.6-1.9,7.2-2.6,10.9c-1,5,0,9.7,2.2,14.2c0.5,1.1,0.9,2.4,1.3,3.6c1.2,3.6,2.3,7.1,3.5,10.7c0.3,1.1,0.8,2.1,0.9,3.2
	c1.1,9.4,1.7,18.9,1.4,28.4c-0.1,2.5-0.1,5.1,0.1,7.7c0.2,2.5,0.7,5,1.1,7.8c-1.4,0.1-2.8,0.3-4.3,0.3c-7.5,0.1-15,0.1-22.5,0.2
	c-1.6,0-2.7-0.9-3.8-1.8c-0.4-0.3-0.4-1.3-0.4-2c-0.1-5.3-0.2-10.7-0.3-16c-0.2-15.8-3.2-31.1-8-46c-2.7-8.5-5.9-16.9-8.9-25.3
	c-0.4-1.1-0.9-2.1-1.4-3.2C253.9,256,254,255.9,254.1,255.8z"/>
<path class="st0" d="M225.9,515.8c-0.1,0.4-0.2,0.8-0.2,1.3c0,9.3-0.1,18.5,0.1,27.8c0.1,7.8-0.7,15.5-1.7,23.1
	c0,0.3-0.2,0.6-0.3,1.1c-4.6-1.2-9.2-2.4-14.1-3.7c0.3-1.2,0.5-2.1,0.7-3c1.6-6.9,3.3-13.8,4.7-20.8c0.8-4,1.1-8.1,1.5-12.1
	c0.6-5.6,1-11.3,1.5-16.9c0.1-0.8,0.2-1.6,0.1-2.4c-0.2-1.8,0.1-3.1,1.7-4.4c1.4-1.2,1.3-3,0.1-4.5c-0.4-0.5-0.9-0.9-1.4-1.3
	c-0.4-0.4-0.8-0.7-0.9-1.4c0.6,0.4,1.3,0.7,1.9,1.1c1.2,0.6,2.4,1.4,3.7,1.6c4.9,0.7,9.8,0.9,14.8,0.3c3.3-0.4,6.1-1.8,8.3-4.3
	c1-1.1,2-2.2,3.4-3.6c0.1,1.3,0.2,2.1,0.2,2.8c0.2,11.6,0.2,23.3,0.7,34.9c0.3,8.8,0.7,17.6,0.2,26.3c-0.5,8.5-0.5,17.1,0,25.6
	c0,0.9,0,1.7,0,3c-1-0.3-1.9-0.5-2.7-0.8c-4.5-1.9-9-3.7-13.4-5.7c-2.1-0.9-4.1-2.1-6-3.4c-2-1.4-2.7-3.4-2.4-5.8
	c0.6-5.3,1.3-10.6,1.4-16c0.2-6.9,0-13.7-0.2-20.6c-0.2-5.6-0.7-11.1-1-16.7c0-0.4-0.2-0.9-0.3-1.3
	C226.1,515.8,226,515.8,225.9,515.8z"/>
<path class="st0" d="M359.9,241.4c-4,7.3-7.3,14.9-11.7,22.1c-0.6-3.1-1.3-6.1-1.9-9.2c-0.1,0-0.3,0-0.4,0.1c0.3,2.7,0.6,5.5,1,8.2
	c1.8,13.2,2.3,26.5,2.4,39.8c0,5.3-0.3,10.5-1.1,15.7c-0.1,0.4-0.1,0.7-0.3,1.4c-0.6-0.4-1.1-0.6-1.4-1c-0.7-0.7-1.4-1.5-2.1-2.3
	c-2.2-2.4-3.8-5-2.8-8.4c-0.3-9.2-0.7-18.3-1-27.5c-0.4-10.2-2-20.2-3.8-30.1c-0.9-4.9-1.4-9.8-1.5-14.8c0-1.3-0.2-2.5-0.4-3.8
	c-0.5,5.8-0.3,11.6,0.6,17.4c1.9,12.6,3.9,25.2,4.1,38c0.1,6.2,0.4,12.4,0.6,18.7c0,1,0,2-0.4,3.2c-0.2-0.3-0.6-0.5-0.7-0.8
	c-5.5-10.1-10-20.5-12.2-31.8c-1.7-8.6-1.4-17.1-0.1-25.7c1.1-7.3,3.8-14,6.9-20.5c2.2-4.6,3.3-9.5,4.3-14.4
	c0.1-0.6,0.3-1.2,0.5-2.1c1.9,0.7,3.5,1.6,4.9,2.6c4.7,3.2,8.7,7.3,11.5,12.3c2,3.6,3.6,7.5,5.4,11.2c3.3,6.6,5.3,13.6,7.3,20.7
	c0.7,2.5,1.2,5,1.8,7.4c0.2,0.9,0.1,1.6-0.3,2.5c-3.2,7.8-8.3,14.3-12.7,21.3c-1.7,2.8-3.5,5.5-5.3,8.4c-0.1-0.4-0.2-0.7-0.2-1
	c0.2-10.7-0.4-21.4-2-32c-0.2-1.2,0-2.2,0.8-3.1c2.1-2.4,3.6-5.3,4.8-8.2c1.8-4.3,3.4-8.6,5.1-12.9
	C359.7,242.5,359.8,241.9,359.9,241.4z"/>
<path class="st0" d="M279.7,711.6c-1.1-8.3-2.6-16.5-4.4-24.7c-1.8-8-2.7-16.1-2.8-24.2c-0.1-10.4-0.1-20.9,0-31.3
	c0.1-6.7,0.7-13.4,1-20.1c0.2-4.9,0.3-9.9,0.3-14.8c0-1.3,0.5-2,1.4-2.8c2-1.6,3.9-3.3,5.6-5.1c1.4-1.5,2.1-3.4,0.9-5.5
	c2.2-1.8,4.2-0.7,6.4,0.2c0,2.4,0.2,4.9,0,7.3c-0.3,3.1,0.6,5.3,3.5,6.6c0.2,0.1,0.3,0.3,0.7,0.6c-0.2,1.4-0.4,2.9-0.6,4.4
	c-2,15.3-1.3,30.7-0.8,46.1c0.3,7.4,0.3,14.8-0.1,22.2c-0.5,9.1-3,17.9-6,26.5c-1.5,4.2-2.7,8.5-4.1,12.7
	C280.5,710.5,280,711,279.7,711.6L279.7,711.6z"/>
<path class="st0" d="M347.9,356.2c-0.7-1.1-1.2-1.9-1-3.4c0.4-2.5,1-5.3-2-7.1c2.9-6.6,3.2-13.6,4.1-20.5c1.4-0.1,2.6-0.2,3.7-0.2
	c0.5-1.1-0.1-1.6-0.8-1.8c-2.1-0.7-2.5-2-2.3-4.1c0.4-4.9,0.7-9.9,0.9-14.8c0.1-1.5,0.5-2.6,1.7-3.5c0.7-0.6,1.4-1.3,1.9-2.1
	c4.1-6.5,8.2-12.9,12.1-19.5c1.4-2.3,2.2-4.9,3.2-7.4c0.1-0.3,0.3-0.7,0.5-1.3c0.4,1.3,0.8,2.3,1.1,3.2c2.5,7.8,5.3,15.4,9.2,22.5
	c1.7,3.1,3,6.5,4.5,9.8c0.3,0.7,0.4,1.6,0.2,2.3c-0.9,3.4-1.8,6.8-3.1,10c-1.1,2.9-2.5,5.7-4.3,8.2c-2.9,4.3-6.1,8.4-9.2,12.5
	c-0.6,0.8-1.2,1.5-2,2.1C360.3,346.2,354.2,351.1,347.9,356.2z"/>
<path class="st0" d="M305.7,358.2c4.4,0,8.5,0,12.5,0c1.5,6.2,2.8,12.3,4.4,18.4c2.8,11.2,5.7,22.4,8.6,33.6
	c3.2,12.5,4.4,25.1,3.8,37.9c-0.3,6.5-0.8,13.1-1.2,19.6c0,0.6-0.2,1.2-0.4,2.2c-4.8-0.7-9.5-1.3-14.5-2c-0.9-7.9-2.2-15.6-2.7-23.4
	c-0.9-13.3-1.2-26.6-1.9-39.9c-0.3-6.5-0.7-13.1-1.6-19.5c-1.2-8.8-2.9-17.6-6.8-25.8C305.8,359.1,305.8,358.8,305.7,358.2z"/>
<path class="st0" d="M234.1,244c0.1,1.1,0.2,1.7,0.2,2.2c-0.1,13.7,3,26.7,8,39.4c4.2,10.5,7.9,21,10.6,32c2,8.1,4,16.1,4.4,24.4
	c0.1,2.8,0,5.7,0,8.7c-3.1-0.3-6-0.6-8.8-0.9c-0.9-2.3-1.6-4.7-2.8-6.9c-2.7-4.8-5.2-9.8-8.4-14.2c-7.7-10.5-11.4-22.3-13.3-35
	c-1.3-9.3-1-18.6-1.1-28c0-3,0.8-5.6,2.1-8.2c2-3.9,4-7.8,6.8-11.2C232.5,245.7,233.1,245.1,234.1,244z"/>
<path class="st0" d="M347.4,322.6c-5.4-0.2-10.2-0.4-14.9-1.9c-6-2-11.9-4.2-17.7-6.6c-8.2-3.4-13.2-9.5-15.5-17.9
	c-0.8-3-1.5-6-2.1-9.1c-0.7-3.6-0.1-7.1,1.3-10.5c1.6-3.9,3.9-7.3,6.8-10.3c3.5-3.6,7.1-7.1,10.8-10.5c3.2-3,6.4-6,8.9-9.6
	c0.2-0.2,0.4-0.4,0.8-0.7c-0.6,3.1-1.3,6.1-1.7,9c-1.5,10.4-0.3,20.5,2.5,30.5c2.7,9.8,7.1,18.8,12,27.5c1.7,3.1,4,5.7,6.6,8.1
	C345.9,321,346.4,321.6,347.4,322.6z"/>
<path class="st0" d="M248,357.5c2.4,0,4.7,0,7,0c0.8,0,1.6,0.1,2.5,0.1c-0.1,0.6-0.1,1.2-0.2,1.7c-1.1,3.7-2.3,7.5-3.5,11.2
	c-4.7,14.4-7,29.1-6,44.3c0.3,4.5,0.4,8.9,0.6,13.4c0.3,6,0.7,11.9,0.8,17.9c0.1,4.6-0.1,9.2-0.2,13.9c0,0.9-0.3,1.9-0.5,3.1
	c-7.6-0.4-15.1-0.7-22.8-1.1c0-1.1,0-1.9,0-2.7c0.5-9.7,2.1-19.3,3.6-28.9c3.1-19.6,7.8-38.8,13.3-57.7c1.2-4,2.8-7.8,4.2-11.7
	C247.2,360,247.5,359,248,357.5z"/>
<path class="st0" d="M279.6,711.6c0,3.6-0.1,7.2,0,10.8c0.2,7,0.7,14,0.8,21c0.1,6.6-2,12.5-8,16.2c-1.4,0.9-3.1,1.5-4.7,1.7
	c-6.4,0.8-12.8,1.4-19.3,2c-3.4,0.3-7.3-2.7-8.2-6c-0.9-3.8-0.5-7.5,1.1-11c0.8-1.8,1.7-3.6,2.7-5.3c3.8-6.3,6.1-13,6.7-20.3
	c0.2-2.3,0.9-4.5,1.5-6.8c0.3-1,0.7-2,2-1.9c1.4,0.1,2.8,0,3.5,1.5c0.5,1.1,0.8,2.3,1.1,3.4c1.3,5.1,2.5,10.2,3.7,15.3
	c0.1,0.2,0.2,0.4,0.6,0.5c-0.3-6.3-1.1-12.5-2.3-18.8c1.4-0.1,2.7-0.2,4-0.3c0,5.2,0,10.3,0,15.4c0.1,0,0.2,0,0.3,0
	c0.3-3.1,0.6-6.2,1-9.3c0.4-3,0.7-6,1.2-9c0.4-2.4,2.2-3.8,4.5-4.1c2.4-0.2,4.2,0.3,5.2,2.7C277.5,710.6,278.5,711.3,279.6,711.6
	C279.7,711.6,279.6,711.6,279.6,711.6z"/>
<path class="st0" d="M226.4,213.5c-0.7,1-1.1,1.7-1.5,2.3c-4.5,6.1-9.5,11.6-15.4,16.4c-5.6,4.7-10.5,10-14.4,16.2
	c-7.1,11.5-8.2,23.6-3.9,36.3c1.6,4.7,3.5,9.4,6.3,13.7c0.5,0.7,0.7,1.4,0.3,2.2c-0.6,1.1-0.9,2.4-1.7,3.4
	c-5.2,7.2-11.3,13.4-19.7,16.8c-0.8,0.3-1.6,0.6-2.5,0.9c-1.6,0.6-3,0.2-4.2-0.9c-0.4-0.4-0.8-1-0.9-1.5
	c-0.6-15.1-0.5-30.1,3.3-44.9c1.2-4.7,3-9.1,5.5-13.2c5.3-8.8,11.1-17.3,18-25c5.7-6.4,12-11.8,19.6-15.9
	C218.9,218.2,222.4,215.9,226.4,213.5z"/>
<path class="st0" d="M240.2,236.4c0.7,1.7,1.4,3.1,1.9,4.6c1.6,5.1,4.2,9.6,8.7,12.7c0.6,0.5,1.1,1.4,1.4,2.2
	c2.9,8.3,5.8,16.6,8.6,24.9c3.4,10.1,6,20.4,7.6,30.9c1.4,8.5,1.6,17.1,1.8,25.8c0.1,2.6,0.1,5.1,0.1,7.7c0,0.8,0,1.5,0,2.3
	c-4.8-0.8-5.6,0.3-11.2,4c-0.1-0.8-0.2-1.5-0.2-2.1c0.5-8.3-1.1-16.3-2.6-24.4c-2.6-14-7.2-27.4-12.4-40.7c-2.8-7-5.4-14.2-6.6-21.7
	c-1-5.9-1.5-11.9-2.2-17.8c-0.2-1.2,0.2-2.1,1-3.1C237.4,240,238.7,238.3,240.2,236.4z"/>
<path class="st0" d="M173.6,390.3c-0.6-13.8-1.2-27.4-1.9-41.2c0.5,0.2,1,0.4,1.5,0.6c3.2,1.1,6.4,1.3,9.6,0.5
	c8.9-2.1,16-7.1,21.2-14.5c1.8-2.5,3.1-5.4,4.6-8.1c0.5-0.8,0.8-1.7,1.4-2.9c0.4,0.7,0.6,1.2,0.8,1.7c1.8,3.7,3.4,7.6,5.5,11.1
	c1.8,3.1,2.1,6.1,1.2,9.4c-1.7,5.6-4.5,10.6-7.3,15.5c-1.2,2-2.2,4.1-3.4,6c-1.9,3-4.3,5.5-7,7.8c-6.1,5-12.6,9.3-19.8,12.5
	C178,389.4,176,390.2,173.6,390.3z"/>
<path class="st0" d="M319.3,358.1c4.6-0.5,8.9-1,13.4-1.5c0.2,0.4,0.5,0.7,0.6,1c4.9,13.6,8.8,27.5,11.6,41.7
	c2.8,14.1,4.4,28.4,4.4,42.8c0,5.8-0.2,11.6-0.4,17.5c-0.1,2.6-0.1,5.1-0.1,7.7c0,1.2,0,2.4,0,3.8c-4.6-0.3-8.9-0.6-13.3-1
	c0.2-1.5,0.4-2.7,0.5-4c0.9-9.4,1.2-18.8,1-28.2c-0.2-11.5-2.4-22.6-5.4-33.7c-2.8-10.5-5.4-21-8.1-31.5c-1.1-4.1-2.4-8.1-3.6-12.2
	C319.8,359.8,319.6,359.1,319.3,358.1z"/>
<path class="st0" d="M299,735.7c-0.8-7.1-1.5-14.2-2.3-21.5c0.8,0,1.6-0.1,2.6-0.2c0,4.4,0,8.6,0,12.8c1.2-5.6,1.6-11.3,1.4-17.1
	c1.4-0.5,2.4,0.1,3.1,0.9c3,3.2,5.5,6.4,5.8,11.2c0.3,6.1,2.1,11.9,4.5,17.6c-0.1-1.4-0.2-2.8-0.3-4.7c0.6,0.8,1,1.3,1.2,1.8
	c2.9,5,3.6,10.5,3.7,16.1c0,3.2-1.5,5.4-4.5,6.3c-1.7,0.5-3.4,0.9-5.1,0.9c-6.5-0.2-12.9-0.4-19.3-1.7c-2.4-0.5-4.7-1.4-7.1-2.1
	c-1.1-0.3-1.6-1-1.4-2.1c1.8-11,0.3-22-0.2-32.9c-0.1-1.6-0.1-3.2-0.2-4.8c-0.1-1.1,0.2-1.8,1.2-2.4c2.7-1.6,5.6-2.8,8.6-3.5
	c2-0.5,2.7-0.1,3.1,1.9c0.7,3.4,1.1,6.9,1.6,10.4c0.5,3.1,1.1,6.1,1.7,9.2c0.3,1.4,0.8,2.7,1.2,4.1
	C298.5,735.7,298.8,735.7,299,735.7z"/>
<path class="st0" d="M253.7,179.6c1.1,2.1,2.2,4.2,3.4,6.3c2.9,5,6.9,9.2,11.5,12.6c3.5,2.6,7.6,3.6,11.9,3.9
	c3.3,0.2,6.5,0.3,10.1,0.5c-0.3,0.7-0.5,1.3-0.8,1.8c-3.6,5.6-5.4,11.7-5.7,18.3c-0.2,3.5,0.6,6.8,2,10c0.8,1.8,1.8,3.6,2.7,5.3
	c0.5,1,1,2,1.5,3c-1.3,1.2-2.6,1.7-4.1,1.9c-4.8,0.8-9.4,0-14-1c-6.9-1.5-13.2-4.5-19.6-7.7c0.2-0.4,0.2-0.7,0.4-0.9
	c5.7-7.6,7-16.2,5.7-25.5c-0.5-3.9-1.7-7.6-3.1-11.3C253.7,191.3,252.9,185.5,253.7,179.6z"/>
<path class="st0" d="M246.3,349.8c-2-0.1-3.9-0.1-5.8-0.4c-0.5-0.1-1-0.7-1.5-1.1c-2.8-2.3-5.6-4.7-8.6-6.9c2.1,2.8,4.6,5.2,7.4,7.7
	c-5.4,1.1-9.6-0.3-13-4.1c-5.3-6-9.7-12.6-12.2-20.4c-1.3-4.1-2.6-8.2-3.6-12.4c-0.5-2.3-0.3-4.7-0.5-7.1
	c-0.7-9.4,1.8-18.2,5.9-26.5c2.1-4.2,4.2-8.4,6.3-12.6c0.3-0.5,0.6-1.1,1.4-1.5c-0.1,1.1-0.1,2.2-0.2,3.3
	c-1.4,14.5-0.3,28.7,3.9,42.6c1.8,5.9,4.5,11.4,8,16.5c3.8,5.4,7.5,10.9,10.4,16.9C245.3,345.7,246.1,347.5,246.3,349.8z"/>
<path class="st0" d="M198.8,300.5c2,1.7,4,3.4,5.9,5.1c0.6,0.5,1,1.2,1.2,2c1.1,4,2.2,8,3.2,12c0.2,0.7,0.3,1.5,0,2.1
	c-2.9,8.7-7.4,16.4-15.2,21.8c-4.5,3.1-9.3,5.3-14.7,5.9c-2.1,0.2-4.1,0-6.2-0.5c-1.3-0.3-1.7-0.9-1.8-2.1
	c-0.4-4.4-0.9-8.7-1.3-13.1c-0.3-2.8-0.5-5.6-0.8-8.3c-0.1-0.8-0.1-1.6-0.2-2.7c3.2,1.8,5.9,0.5,8.6-0.6c8-3.4,13.9-9.2,18.6-16.3
	C197.2,304.1,197.9,302.3,198.8,300.5z"/>
<path class="st0" d="M357.7,454.3c1-3.4,1.9-6.6,3-9.6c1.2-3.6,1.5-7.1,1.1-10.9c-0.3-2.3-0.2-4.6-0.4-6.9c-0.1-1.7,0.6-2.8,2.2-3.2
	c2.5-0.7,5.1-1.5,7.7-1.8c4-0.4,8-0.6,11.9-0.6c2.8,0,5.7,0.1,8.3,1.7c0.2,0.1,0.5,0.1,0.7,0.1c2.8,0.6,3,0.8,2.9,3.6
	c0,0.6-0.1,1.3-0.3,1.9c-1.9,5.2-2.2,10.6-2.4,16c-0.2,3.6-0.1,7.2-0.1,10.8c0,2.3-1.1,3.3-3.4,2.9c-2.3-0.4-4.5-1.1-6.8-1.6
	c-6.8-1.3-13.6-1.4-20.5-1.9C360.3,454.8,359.1,454.5,357.7,454.3z"/>
<path class="st0" d="M333.9,356.6c0.5-0.3,0.6-0.4,0.8-0.4c3.7-0.8,7.3-1.6,10.8-2.3c0.6,1.9,1.2,3.8,1.9,5.6
	c3.1,7.2,5.1,14.6,6.2,22.3c0.8,5.3,2.2,10.5,3.1,15.7c1.3,7.2,1.6,14.6,1.9,21.9c0.2,5.7,0.6,11.3,0.8,17c0.1,1.9-0.1,3.9-0.6,5.7
	c-1.5,5.2-3.1,10.4-4.8,15.5c-1,3.2-2.1,6.3-3.5,9.5c-0.1-0.5-0.2-0.9-0.2-1.4c0.2-4.9,0.3-9.7,0.6-14.6c0.7-9,0.3-18.1-0.7-27
	c-0.9-9.1-1.9-18.3-3.8-27.2c-2.7-12.5-5.7-24.9-10.9-36.6C335.1,359.1,334.5,357.9,333.9,356.6z"/>
<path class="st0" d="M214.5,507.1c-0.3,1.3-1.3,1.1-2.1,0.7c-1.4-0.6-2.8-1.2-4.1-2c-5-3.1-9.5-6.8-12-12.3c-1.4-3-3-5.8-4.4-8.7
	c-1.5-3-2.4-6.1-2.5-9.4c-0.1-3.7,0-7.5,0-11.3c5-2.4,9.8-5.3,15.6-5.6c0.3,0,0.6-0.1,0.9-0.1c5.9-0.6,8.3,1.2,9.6,7
	c0.5,2.3,1.1,4.6,1.7,7c0.1,0.4,0.3,0.8,0.2,1.2c-1.1,3.2,0.3,6.1,0.9,9.1c0.7,3.3,1.7,6.5,2.4,9.7c0.3,1.4,0,3,0,4.5
	c-1.8,0.4-3.1,0-4.1-1.2c-1.5-1.8-3-3.5-4.1-5.5c-1.4-2.7-2.4-5.6-3.6-8.3c-0.9-2-1.9-4-3-6c-0.5-0.9-1.3-1.6-2.1-2.3
	c1.2,3.1,0.1,6.3,0.2,9.3c0.1,2.5,0.4,4.9,0.6,7.4c0.2,2.2,0.4,4.4,0.5,6.7c0.1,1.4,0.4,2.5,1.5,3.4c1.5,1.3,3.1,2.5,4.5,3.9
	C212.4,505,213.5,506.1,214.5,507.1L214.5,507.1z"/>
<path class="st0" d="M213.8,457.1c-1.7-0.3-3.3-0.7-4.9-0.8c-5-0.3-9.6,0.8-14.1,3c-1.9,0.9-3.7,1.8-5.7,2.5c-1.7,0.6-2,0.4-2.6-1.4
	c-0.5-1.4-0.7-2.9-1.1-4.4c-1-3.7-2.1-7.3-3.2-11c-0.7-2.4-1.6-4.7-2.4-7c-0.6-1.8-0.5-2,1.1-3.2c2.8-2,6.1-2.7,9.4-3.4
	c5.5-1.1,11.1-1.4,16.6-1.1c1.3,0.1,2.6,0.4,4,0.6c0.2,0.7,0.3,1.2,0.4,1.7c0.7,3,1.3,6.1,2.1,9.1c1.1,4.3,1.3,8.6,1.1,13
	c0,0.5-0.1,0.9-0.3,1.4C214.1,456.5,213.9,456.8,213.8,457.1z"/>
<path class="st0" d="M295.4,258.2c-2.2,0.5-4.2,1.1-6.2,1.3c-7.4,0.9-14.8,1.3-22.1-0.6c-5.7-1.5-10.9-4-15.7-7.5
	c-3.3-2.4-5.2-5.2-6.8-9.6c2.3-2.1,4.7-4.3,6.9-6.3c2.2,1.3,4.1,2.5,6.1,3.5c5,2.4,10,4.9,15.7,5.7c4.6,0.6,9.2,1.2,13.8,0.2
	c1.4-0.3,2.7-0.8,4.3-1.3C293.5,248.1,295.2,252.8,295.4,258.2z"/>
<path class="st0" d="M331.3,346.2c-4.8,0.9-9.4,1.9-14.3,2.8c1.8-10.1,5.1-19.6,6.1-30c1.4,0.5,2.7,0.9,3.8,1.5
	c4.9,2.6,10.2,3.5,15.6,4c1.3,0.1,2.7,0.2,4,0.4c0.6,3.5-1.5,15.3-3.6,20.1c-1.5,0.1-3,0.2-4.6,0.3c-1.5,0.1-3,0.3-4.7,0.5
	c1-7.1,4.2-13.4,4.4-20.3C335.5,332.2,332.7,338.9,331.3,346.2z"/>
<path class="st0" d="M306,349.9c-1.8-4.7-2.1-9.2-1.8-13.7c0.5-9,0-17.9-1.4-26.7c-0.1-0.4-0.1-0.8-0.1-1.6c1.6,1.4,2.8,2.7,4.2,3.7
	c1.5,1.1,3.2,2.1,4.9,3c1.6,0.9,3.3,1.6,5,2.3c1.7,0.7,3.4,1.3,5.1,1.9c0.1,3.2-0.9,6.1-1.6,9c-1.2,4.7-2.6,9.4-3.8,14.1
	c-0.4,1.6-0.5,3.3-0.6,4.9c-0.1,1.9-0.4,2.3-2.4,2.5C311,349.6,308.5,349.8,306,349.9z"/>
<path class="st0" d="M237.2,499.9c-0.2-1.9-0.6-3.6-0.6-5.3c0-2.9,0.2-5.9,0.2-8.8c0-4.6,0.1-9.2,0-13.8c0-2.3,0-4.6,0.8-6.9
	c3.5,0,6.9,0,10.7,0c-0.1,1.2-0.2,2.1-0.3,3c-0.5,6.5-1,13-1.4,19.5c-0.1,2,0.4,4.1,0.5,6.2c0,0.5,0,1.2-0.2,1.5
	C244.5,498.2,241.6,499.9,237.2,499.9z"/>
<path class="st0" d="M344.9,352c-4.8,0.9-9.5,1.9-14.3,2.7c-8.6,1.4-17.3,1.4-26,1.5c-7.9,0.1-15.8,0.5-23.7,0.8
	c-0.2,0-0.3-0.1-0.5-0.1c-0.9-1.4-1.8-2.9-2.8-4.5c0.8-0.5,1.7-0.3,2.5-0.2c8,0.8,15.9,0.3,23.9,0.1c9.4-0.2,18.5-2.1,27.7-3.9
	c3-0.6,6-0.7,9-1.1c0.5,0,0.9,0.1,1.4,0.1C345.1,347.8,345.4,348.3,344.9,352z"/>
<path class="st0" d="M319.3,469.6c0.9,0,1.6-0.2,2.2,0c3.4,1.2,6.9,1.9,10.5,2.3c0.3,0,0.6,0.2,0.8,0.2c-0.4,6-1.2,12-1.1,17.9
	c0,5.9,0.9,11.7,1.4,17.7c-3.1-0.4-5.3-1.9-6.4-4.7c-0.7-1.9-1.2-4-1.6-6c-1.5-6.6-3-13.2-4.4-19.8
	C320.1,474.8,319.7,472.3,319.3,469.6z"/>
<path class="st0" d="M341.9,473c0,4.1,0,8.1,0,12.1c0,4,0.8,7.9,1.6,11.8c0.8,3.9,1.6,7.7,2.5,12c-3.7-0.2-7.1-0.3-10.3-0.5
	c-2.5-6.9-2.7-27.5-0.3-36.1C337.3,472.6,339.4,472.8,341.9,473z"/>
<path class="st0" d="M225.5,463.8c3.8,0.4,7.1,0.7,10.5,1c-0.2,1.7-0.4,3.2-0.4,4.7c-0.2,5.2-0.3,10.3-0.4,15.5
	c-0.1,2.1-0.4,4.1-0.4,6.2c0,2.9,0.1,5.9,0.2,9.1c-2.2,0.2-4.7,0.1-7.3-0.1C226.9,488,226.2,476.1,225.5,463.8z"/>
<path class="st0" d="M224,463.6c0.4,12.2,2.2,24.1,2.1,36.1c-2.5,0.4-2.8,0.3-5.2-0.9c0.4-0.7,0.6-1.4,1.1-2c1.1-1.2,1.2-2.6,0.8-4
	c-0.5-2.4-1.2-4.8-1.9-7.2c-0.7-2.4-1.6-4.7-2.1-7.1c-0.4-1.6-0.6-3.3-0.6-4.9c0.1-3.5-0.8-6.8-1.7-10.1c-0.1-0.5-0.3-0.9-0.5-1.6
	C218.9,462.4,221.4,463,224,463.6z"/>
<path class="st0" d="M350.6,508.9c-0.8,0-1.2,0-1.6,0c-0.3,0-0.6-0.1-1.1-0.2c-2.9-11.6-4.9-23.3-4.8-35.6c1.9,0.1,4,0.3,6.3,0.4
	C349.9,485.3,350.3,497,350.6,508.9z"/>
<path class="st0" d="M248.6,492.8c-1.3-3.6-0.3-23,1.5-27.7c2.6,0,5.3,0,8.3,0C256.6,474.9,255.9,484.9,248.6,492.8z"/>
<path class="st0" d="M273.4,360.9c-5-0.3-8.5-3.1-11.1-7c-1-1.4-0.5-2.8,1.1-3.6c1.8-0.9,3.8-1.4,5.8-0.7c2.8,1,5.3,2.5,7.3,4.8
	c0.3,0.4,0.7,0.9,0.9,1.4c1.3,2.6,0.4,4.4-2.5,4.9C274.4,360.9,273.9,360.9,273.4,360.9z"/>
<path class="st0" d="M224.4,347.9c0.7,0.4,1.3,0.8,1.8,1.2c2.2,1.5,4.6,2.3,7.4,2.2c4.4-0.1,8.7,0.4,13.1,0.6
	c1.7,0.1,3.5,0.1,5.2,0.3c2.4,0.3,4.8,0.7,7.1,1.3c0.6,0.1,1,1,1.6,1.7c-1,0.7-1.9,0.4-2.7,0.4c-2.2,0-4.4-0.1-6.7-0.1
	c-6.2,0.1-12.4,0-18.6-0.8c-1.5-0.2-3-0.6-4.4-1.1C225.8,352.7,224.4,350.6,224.4,347.9z"/>
<path class="st0" d="M214.6,507.1c0.4-2.4-0.7-3.9-2.7-5.1c-1.4-0.9-2.6-2.1-3.7-3.3c-0.4-0.5-0.8-1.3-0.8-1.9
	c-0.1-3.4-0.7-6.8-1.4-10.1c-0.5-2.7-0.4-5.5-0.1-8.4c0.6,1.6,1.3,3.2,1.9,4.8c1.1,2.7,2.1,5.3,3.2,8c0.2,0.4,0.5,0.9,0.5,1.3
	c-0.1,3.5,2.2,5.5,4.4,7.5c0.7,0.6,1.5,1.2,2.1,1.9c1.1,1.2,1.1,2-0.2,3C216.8,505.6,215.6,506.3,214.6,507.1
	C214.5,507.1,214.6,507.1,214.6,507.1z"/>
<path class="st0" d="M315.3,760.9c-2.2,2.6-5,3.8-8.4,3.6c-4.6-0.2-9.2-0.4-13.8-0.8c-2.3-0.2-4.6-0.7-6.7-1.4
	c-2.4-0.8-4.1-2.4-4.8-5.1c2.8,1,5.3,2.2,8,2.9c2.8,0.7,5.7,0.9,8.5,1.2c2.9,0.3,5.7,0.4,8.6,0.5C309.6,761.9,312.4,762,315.3,760.9
	z"/>
<path class="st0" d="M267.7,362.3c-0.7,1.1-1.4,2.2-2.3,3.2c-0.9,1-2,1.9-3,2.8c-1.8,1.6-3.1,3.6-3.9,5.9c-0.4,1.2-0.9,2.3-1.5,3.7
	c-1-0.8-0.8-1.7-0.8-2.5c0-5.2,2.1-9.6,5.9-13.2C264.4,359.9,264.8,359.9,267.7,362.3z"/>
<path class="st0" d="M246.4,765c6.5-0.5,12.9-0.9,19.2-1.3c5.2-0.3,9.3-2.4,12.5-6.5c0.3-0.4,0.6-0.7,1.3-0.9
	c-0.4,0.9-0.7,1.8-1.2,2.6c-2.9,4.4-7.1,6.7-12.4,7.2c-1.3,0.1-2.6,0.2-3.8,0c-4.6-0.7-9.2-0.7-13.8,0.2
	C247.1,766.5,246.5,766.2,246.4,765z"/>
<path class="st0" d="M245.1,228.6c0.8,1.3,1.3,2.2,1.9,3c0.6,0.8,1.3,1.6,2.1,2.6c-1.7,2.1-3.4,4.3-5.2,6.6c-1.1-1.9-2-3.6-3.1-5.4
	c0.7-1.1,1.4-2.2,2.1-3.3C243.6,230.9,244.2,229.9,245.1,228.6z"/>
<path class="st0" d="M220.3,356.1c0-4.2,0-8.4,0-13.1c1.2,1.4,2.5,2.4,2.9,3.7c0.5,1.7,0.8,3.7,0.4,5.3c-0.4,1.5-1.9,2.8-2.9,4.1
	C220.5,356.1,220.4,356.1,220.3,356.1z"/>
<path class="st0" d="M257.5,362.9c0.3-1.6,0.7-3.2,1-5c1.5,0.1,2.9,0.2,4.7,0.3c-2.1,1.9-3.7,3.4-5.3,4.9
	C257.8,363,257.6,363,257.5,362.9z"/>
<path d="M311.3,161c-2.7-2.4-6.1-1.5-9.3-2c5-3.2,12.9,0.7,13.2,6.4c-1.5-0.4-1.6-2.1-2.9-2.9c-1.2,1.5-2.5,2.7-4.7,1.4
	c-1.4-0.8-2.8-1.5-2.5-3.9c0.6,0.8,1.1,1.4,1.6,1.9C308.6,163.9,310,163.7,311.3,161z"/>
<path d="M284.8,148c-0.7,0.1-1.4-0.1-1.8,0.2c-1,0.7-2,0.8-3.2,0.6c-2.8-0.5-3.4-1.5-2.9-4.3c0.1-0.3,0.1-0.6,0.2-1
	c-1.1-0.1-2.1-0.1-3.2-0.2C278.1,141.1,283.6,143.7,284.8,148z M283,146.3c-1.3-1.6-2.8-2.4-4.7-2.5c-0.7,1.9-0.7,3.3,0.1,3.9
	C279.4,148.4,281.6,147.8,283,146.3z"/>
<path d="M276.4,179.6c-1.8-0.6-4.2,0.4-5.6-2C272.4,177.4,274.2,178,276.4,179.6z"/>
<path d="M289.5,171.7c-0.7-0.4-1.3-0.7-2.3-1.3c1.6-0.6,2.2,0,2.7,0.7C289.8,171.3,289.6,171.5,289.5,171.7z"/>
<path d="M287.8,187.7c-1-0.7-1.6-1.2-2.4-1.8C287.7,186.1,287.7,186.1,287.8,187.7z"/>
<path class="st0" d="M283,146.3c-1.4,1.5-3.5,2.1-4.6,1.4c-0.8-0.6-0.9-2-0.1-3.9C280.2,143.9,281.7,144.7,283,146.3z"/>
</svg>
