<?xml version="1.0" encoding="utf-8"?>
<!-- Generator: Adobe Illustrator 19.0.0, SVG Export Plug-In . SVG Version: 6.00 Build 0)  -->
<svg version="1.1" id="图层_1" xmlns="http://www.w3.org/2000/svg" xmlns:xlink="http://www.w3.org/1999/xlink" x="0px" y="0px"
	 viewBox="0 0 595.3 841.9" style="enable-background:new 0 0 595.3 841.9;" xml:space="preserve">
<style type="text/css">
	.st0{fill:#FFFFFF;}
</style>
<path class="st0" d="M595.3,841.8c-198,0-396,0-593.9,0c0-280,0-560.1,0-840.1c198,0,396,0,593.9,0
	C595.3,281.7,595.3,561.8,595.3,841.8z M332.2,590.4c1.5,0,2.8,0.2,4.1,0c2.3-0.4,4.7-0.8,7-1.5c2.5-0.9,3.5-2.8,3.3-5.5
	c0-0.5-0.1-1-0.2-1.4c-1.7-9.3-2.7-18.6-3-28.1c-0.4-12.4-0.9-24.7-1.4-37.1c-0.1-1.7,0-3.5,0-5.3c3.6-0.5,7.4,0.6,10.6-0.9
	c-0.1-2.9-0.2-5.7-0.3-8.5c-0.2-7.1-0.3-14.2-0.5-21.3c0-2.1-0.2-4.2,0-6.2c0.4-5.5,2.3-10.7,4.2-15.9c0.4-1.1,0.9-2.2,1.3-3.4
	c1.2,0.5,2.1,1,3.1,1.5c0.2,3.3-0.5,6.4-1.3,9.5c-1,4.1-2.1,8.2-3,12.3c-0.5,2.3,0.1,4.5,1.4,6.4c1.4,2.1,3.9,2.2,5.4,0.2
	c0.7-0.9,1.1-1.9,1.6-2.9c1.1-2.2,2.1-4.4,3.2-6.7c0.8-1.6,1.6-3.1,2.3-4.7c0.2-0.4,0.4-0.8,0.8-1.5c0.2,0.8,0.3,1.1,0.4,1.5
	c0.3,4.1,0.6,8.1,0.9,12.2c0,0.7-0.1,1.4-0.4,2.1c-0.9,2.2-1.8,4.4-2.8,6.6c-0.8,1.7-0.9,1.7-3,1.1c-0.2-1.9,0.4-3.5,1.8-4.9
	c1.4-1.3,2.8-2.6,3.5-4.6c-1.2,0.8-2.3,1.7-3.4,2.5c-2.2,1.5-3.3,3.6-3.7,6.2c-0.4,2.7-0.2,3,2.5,3.3c0.1,0,0.2,0.2,0.4,0.3
	c-0.2,0.7-0.5,1.5-0.7,2.2c-0.2,0.7-0.3,1.4-0.3,2.1c0,1.5,1,2.2,2.4,1.7c0.6-0.2,1.2-0.6,1.7-0.9c2.7-1.7,4.8-3.9,6.6-6.5
	c1.5-2.1,3-4.3,4.9-6.2c2.5-2.4,4.1-5.2,5-8.5c1.5-6,3-11.9,2.8-18.3c2-0.2,3.6-0.9,5-2.2c0.9-0.9,1.4-1.9,0.6-3
	c-0.8-1.1-0.7-2.1-0.4-3.4c0.3-1.4,0.4-2.8,0.5-4.3c0.2-6.1,0.4-12.3,1.9-18.3c0.9-3.7-0.3-7-3-9.9c0.4-5.6,0.8-11.3,1.3-17
	c0.4-5.4,1.2-10.8,3.4-15.8c0.5-1.2,0.8-2.4,0.9-3.7c0.3-4.1,0.8-8.3,0.7-12.4c-0.2-8.3-0.7-16.6-1.1-24.9
	c-0.5-8.3-1.4-16.6-4.7-24.3c-4-9.1-7.9-18.3-12.3-27.2c-4.4-8.7-7.8-17.7-10.3-27c-2-7.6-3.7-15.2-6.7-22.5
	c-2.3-5.6-4.7-11.2-7.5-16.5c-4-7.6-9.9-13.3-18.1-16.2c-0.2-0.1-0.4-0.3-0.5-0.4c0-0.3,0-0.5,0-0.8c1.9-12.1,3.2-24.4,3.8-36.7
	c0.2-5.4,0.6-10.8,1.9-16.2c2.7-11.5,1.7-23-0.7-34.4c-1.3-6.1-3.7-11.9-7.9-16.7c-2.8-3.2-5.4-6.9-10.4-6.8c-0.1,0-0.3-0.2-0.1-0.1
	c-0.6-1.5-0.9-2.9-1.7-3.9c-1.5-2-3.5-3.5-6-4.1c-6.5-1.5-13.1-1.9-19.7-0.4c-5,1.1-9.6,3.4-14.3,5.3c-10,4-17.5,10.8-23.7,19.5
	c-6.4,9.1-10.9,19.1-15.2,29.3c-1.4,3.4-2.3,7-2.9,10.6c-0.9,5.7-1.3,11.4-1.8,17.1c-1.1,12.1-4.2,23.5-10.1,34.2
	c-0.7,1.2-1.6,2.5-2.8,3.2c-3.7,2.5-7.4,5-11.4,7c-6.3,3.2-12,7.3-17,12.3c-8.7,8.9-16.2,18.6-22.6,29.3c-3.5,5.9-5.8,12.2-7.1,19
	c-3.2,16.5-2.9,33-1.6,49.6c0.5,6.6,1.6,13.2,2,19.8c0.8,13,1.4,26,2.1,39c0.2,3.1,0.8,6.1,1.3,9.2c0.1,0.8,0.3,1.6,0.3,2.3
	c-0.4,7.5,1.1,14.6,3.5,21.6c0.4,1.1,0.4,2.5,0.3,3.7c-0.1,1.9-0.5,3.8-0.7,5.7c-0.2,3.1,0.6,6,1.5,8.9c1.6,4.7,3.3,9.3,4.8,14
	c0.7,2.3,1.2,4.8,1.7,7.2c0.5,2.1,1.3,4,3.8,4.3c-0.2,2.3-0.4,4.5-0.6,6.8c-0.6,6.8,0.8,13,5.1,18.4c0.7,0.9,1.3,2,1.8,3.1
	c1.3,2.8,2.3,5.8,4.5,8.1c3.2,3.5,6.9,6.4,11.3,8.4c2,0.9,4.1,1.7,6.6,1c-0.1,1.2-0.1,2.1-0.2,3.1c-0.6,5.1-1.3,10.1-1.9,15.2
	c-1.1,9-2.4,18-4.8,26.8c-0.8,2.8-1.4,5.7-2,8.6c-0.4,2.1,0,2.9,2,3.7c0.7,0.3,1.5,0.5,2.3,0.7c3.9,1,7.8,2.1,11.8,3.1
	c-0.1,3,1.5,5.2,3.7,6.9c1.7,1.2,3.5,2.2,5.3,3.2c0.7,0.4,1.4,0.7,2.1,1c0,0.7,0,1.2,0,1.6c0,0.6-0.1,1.1-0.1,1.7
	c-1.6,11.6-1.1,23.3-0.1,34.9c0.5,5.3,1.6,10.6,2.5,15.8c2,11.5,4.6,22.8,8.5,33.9c2.9,8.4,5.2,16.9,6.1,25.8
	c0.5,4.7,0.9,9.5,1.4,14.4c-1.6,0.5-2.3,2-2.7,3.6c-0.7,2.6-1.4,5.2-1.7,7.9c-0.6,5.5-2.2,10.6-4.9,15.4c-1.4,2.5-2.8,5-4,7.6
	c-1.9,4-2.4,8.2-1.3,12.6c0.6,2.4,1.8,4.3,4,5.4c1.2,0.6,1.9,1.4,2.3,2.8c0.5,1.9,1.3,2.2,3.2,2.1c0.6,0,1.1-0.2,1.7-0.3
	c3.2-0.5,6.5-0.7,9.8-0.3c2.4,0.3,4.9,0.3,7.4,0.1c4.7-0.3,8.5-2.6,11.6-6c0.7-0.8,1.2-1.6,1.8-2.5c2.5,4.3,3.8,5.2,8.6,6.2
	c0.9,0.2,1.9,0.4,2.8,0.5c5.3,0.3,10.7,0.6,16,0.9c0.2,0,0.5,0,0.7,0c5.8-0.2,11.7-5.1,12.2-10.8c0.7-7.3,0.1-14.5-4.2-20.7
	c-2.9-4.1-4.4-8.4-4.5-13.3c-0.1-3.2-0.5-6.2-3.1-8.5c1.9-2.6,2.7-5.4,3-8.2c1.1-8.3,3.4-16.2,6.1-24.1c4.7-13.6,8.6-27.4,11.5-41.5
	c3.2-15.6,4.4-31.3,3-47.1C332.2,591.8,332.2,591.3,332.2,590.4z"/>
<path d="M332.2,590.4c0,0.9,0,1.5,0,2c1.4,15.9,0.2,31.5-3,47.1c-2.9,14.1-6.7,27.9-11.5,41.5c-2.7,7.9-5,15.8-6.1,24.1
	c-0.4,2.8-1.1,5.6-3,8.2c2.6,2.2,3.1,5.3,3.1,8.5c0.1,4.9,1.7,9.2,4.5,13.3c4.3,6.2,4.9,13.4,4.2,20.7c-0.6,5.8-6.4,10.6-12.2,10.8
	c-0.2,0-0.5,0-0.7,0c-5.3-0.3-10.7-0.6-16-0.9c-0.9-0.1-1.9-0.3-2.8-0.5c-4.8-1-6.1-1.9-8.6-6.2c-0.6,0.9-1.2,1.7-1.8,2.5
	c-3.1,3.5-6.9,5.7-11.6,6c-2.5,0.2-5,0.2-7.4-0.1c-3.3-0.4-6.5-0.2-9.8,0.3c-0.6,0.1-1.1,0.2-1.7,0.3c-1.9,0.2-2.7-0.2-3.2-2.1
	c-0.4-1.4-1.1-2.1-2.3-2.8c-2.2-1.1-3.4-3.1-4-5.4c-1.1-4.4-0.6-8.6,1.3-12.6c1.2-2.6,2.6-5.1,4-7.6c2.7-4.8,4.3-9.9,4.9-15.4
	c0.3-2.7,1.1-5.3,1.7-7.9c0.4-1.6,1.1-3.1,2.7-3.6c-0.5-5-0.9-9.7-1.4-14.4c-1-8.9-3.2-17.4-6.1-25.8c-3.9-11-6.5-22.4-8.5-33.9
	c-0.9-5.3-2.1-10.5-2.5-15.8c-1-11.6-1.5-23.3,0.1-34.9c0.1-0.6,0.1-1.1,0.1-1.7c0-0.5,0-0.9,0-1.6c-0.7-0.3-1.4-0.6-2.1-1
	c-1.8-1-3.7-2-5.3-3.2c-2.3-1.7-3.8-3.9-3.7-6.9c-4-1-7.9-2.1-11.8-3.1c-0.8-0.2-1.5-0.4-2.3-0.7c-2-0.8-2.4-1.6-2-3.7
	c0.6-2.9,1.2-5.8,2-8.6c2.4-8.8,3.7-17.8,4.8-26.8c0.6-5.1,1.3-10.1,1.9-15.2c0.1-0.9,0.2-1.9,0.2-3.1c-2.5,0.7-4.5-0.1-6.6-1
	c-4.3-2-8-4.9-11.3-8.4c-2.2-2.3-3.2-5.3-4.5-8.1c-0.5-1.1-1.1-2.1-1.8-3.1c-4.3-5.5-5.7-11.7-5.1-18.4c0.2-2.2,0.4-4.4,0.6-6.8
	c-2.5-0.4-3.3-2.2-3.8-4.3c-0.6-2.4-1-4.9-1.7-7.2c-1.5-4.7-3.2-9.4-4.8-14c-1-2.9-1.8-5.8-1.5-8.9c0.2-1.9,0.6-3.8,0.7-5.7
	c0.1-1.2,0.1-2.6-0.3-3.7c-2.4-7-3.9-14.1-3.5-21.6c0-0.8-0.2-1.6-0.3-2.3c-0.4-3.1-1.1-6.1-1.3-9.2c-0.8-13-1.3-26-2.1-39
	c-0.4-6.6-1.5-13.2-2-19.8c-1.3-16.6-1.5-33.2,1.6-49.6c1.3-6.7,3.6-13,7.1-19c6.4-10.7,13.9-20.5,22.6-29.3c5-5,10.6-9.1,17-12.3
	c4-2,7.7-4.5,11.4-7c1.1-0.8,2.1-2,2.8-3.2c5.9-10.6,9-22.1,10.1-34.2c0.5-5.7,1-11.5,1.8-17.1c0.6-3.6,1.5-7.2,2.9-10.6
	c4.2-10.2,8.8-20.2,15.2-29.3c6.1-8.7,13.7-15.5,23.7-19.5c4.7-1.9,9.3-4.2,14.3-5.3c6.6-1.5,13.2-1.1,19.7,0.4
	c2.5,0.6,4.5,2.1,6,4.1c0.8,1,1.1,2.4,1.7,3.9c-0.1-0.1,0,0.1,0.1,0.1c5-0.1,7.6,3.7,10.4,6.8c4.2,4.8,6.6,10.6,7.9,16.7
	c2.4,11.4,3.3,22.9,0.7,34.4c-1.2,5.3-1.6,10.7-1.9,16.2c-0.5,12.3-1.8,24.5-3.8,36.7c0,0.2,0,0.5,0,0.8c0.2,0.1,0.3,0.4,0.5,0.4
	c8.2,2.9,14.1,8.6,18.1,16.2c2.8,5.4,5.2,10.9,7.5,16.5c3,7.2,4.6,14.9,6.7,22.5c2.5,9.3,5.9,18.3,10.3,27
	c4.5,8.9,8.4,18.1,12.3,27.2c3.3,7.7,4.3,16,4.7,24.3c0.5,8.3,0.9,16.6,1.1,24.9c0.1,4.1-0.3,8.3-0.7,12.4c-0.1,1.3-0.4,2.5-0.9,3.7
	c-2.2,5.1-3,10.4-3.4,15.8c-0.4,5.7-0.8,11.4-1.3,17c2.7,2.9,3.9,6.2,3,9.9c-1.5,6-1.7,12.1-1.9,18.3c0,1.4-0.1,2.9-0.5,4.3
	c-0.3,1.2-0.4,2.2,0.4,3.4c0.8,1.1,0.3,2.1-0.6,3c-1.3,1.3-3,2-5,2.2c0.2,6.4-1.4,12.3-2.8,18.3c-0.8,3.4-2.5,6.1-5,8.5
	c-1.9,1.8-3.4,4-4.9,6.2c-1.8,2.6-3.9,4.8-6.6,6.5c-0.5,0.3-1.1,0.7-1.7,0.9c-1.4,0.5-2.4-0.2-2.4-1.7c0-0.7,0.2-1.4,0.3-2.1
	c0.2-0.8,0.5-1.5,0.7-2.2c-0.2-0.2-0.3-0.3-0.4-0.3c-2.7-0.3-2.9-0.6-2.5-3.3c0.4-2.6,1.5-4.7,3.7-6.2c1.2-0.8,2.2-1.8,3.4-2.5
	c-0.6,2-2.1,3.3-3.5,4.6c-1.4,1.4-2,3-1.8,4.9c2.2,0.6,2.2,0.6,3-1.1c1-2.2,1.9-4.4,2.8-6.6c0.3-0.6,0.4-1.4,0.4-2.1
	c-0.2-4.1-0.6-8.1-0.9-12.2c0-0.4-0.2-0.7-0.4-1.5c-0.4,0.7-0.6,1.1-0.8,1.5c-0.8,1.6-1.6,3.1-2.3,4.7c-1.1,2.2-2.1,4.5-3.2,6.7
	c-0.5,1-0.9,2.1-1.6,2.9c-1.6,2-4,1.9-5.4-0.2c-1.3-1.9-1.9-4.1-1.4-6.4c0.9-4.1,1.9-8.2,3-12.3c0.8-3.1,1.6-6.2,1.3-9.5
	c-1-0.5-2-0.9-3.1-1.5c-0.5,1.2-1,2.3-1.3,3.4c-1.8,5.2-3.7,10.4-4.2,15.9c-0.2,2.1,0,4.1,0,6.2c0.1,7.1,0.3,14.2,0.5,21.3
	c0.1,2.8,0.2,5.5,0.3,8.5c-3.2,1.5-7,0.4-10.6,0.9c0,1.9-0.1,3.6,0,5.3c0.5,12.4,1,24.7,1.4,37.1c0.3,9.4,1.3,18.8,3,28.1
	c0.1,0.5,0.2,0.9,0.2,1.4c0.2,2.7-0.7,4.6-3.3,5.5c-2.2,0.8-4.6,1.2-7,1.5C335.1,590.5,333.8,590.4,332.2,590.4z M214.6,507.1
	c-1.1-1-2.2-2.1-3.3-3.1c-1.5-1.3-3-2.6-4.5-3.9c-1.1-0.9-1.4-2-1.5-3.4c-0.1-2.2-0.3-4.4-0.5-6.7c-0.2-2.5-0.5-4.9-0.6-7.4
	c-0.1-3.1,1-6.2-0.2-9.3c0.9,0.7,1.7,1.4,2.1,2.3c1.1,2,2.1,4.1,3.1,6.2c1.2,2.7,2.2,5.5,3.6,8.1c1.1,2,2.6,3.8,4.1,5.5
	c1,1.2,2.3,1.6,4.1,1.2c0-1.6,0.2-3.1,0-4.5c-0.7-3.3-1.7-6.5-2.4-9.7c-0.7-3-2-5.9-0.9-9.1c0.1-0.3-0.1-0.8-0.2-1.2
	c-0.6-2.3-1.2-4.6-1.7-7c-1.3-5.7-3.7-7.5-9.6-7c-0.3,0-0.6,0.1-0.9,0.1c-5.8,0.3-10.6,3.2-15.6,5.6c0,3.8,0,7.6,0,11.3
	c0.1,3.3,1,6.4,2.5,9.4c1.5,2.9,3,5.8,4.4,8.7c2.6,5.6,7.2,9.3,12.2,12.4c1.3,0.8,2.7,1.4,4.1,2
	C213.5,508.2,214.3,508.2,214.6,507.1c1.1-0.8,2.2-1.5,3.3-2.3c1.3-1,1.3-1.8,0.2-3c-0.6-0.7-1.4-1.3-2.1-1.9
	c-2.2-2.1-4.5-4.1-4.4-7.5c0-0.4-0.3-0.9-0.5-1.3c-1.1-2.7-2.1-5.3-3.2-8c-0.6-1.6-1.3-3.2-1.9-4.8c-0.2,2.9-0.4,5.7,0.1,8.4
	c0.7,3.4,1.3,6.7,1.4,10.1c0,0.6,0.3,1.4,0.8,1.9c1.2,1.2,2.4,2.4,3.7,3.3C213.8,503.3,215,504.7,214.6,507.1z M279.6,711.6
	c0.4-0.6,0.9-1.1,1.1-1.7c1.4-4.2,2.6-8.5,4.1-12.7c3.1-8.7,5.6-17.5,6.1-26.7c0.4-7.4,0.3-14.8,0-22.2c-0.6-15.3-1.2-30.6,0.8-45.9
	c0.2-1.5,0.4-3,0.6-4.4c-0.3-0.3-0.5-0.5-0.7-0.6c-2.9-1.3-3.8-3.6-3.5-6.6c0.2-2.4,0-4.9,0-7.3c-2.2-0.9-4.2-2-6.5-0.2
	c1.5,2.1,0.6,3.9-0.8,5.4c-1.7,1.9-3.7,3.5-5.6,5.1c-1,0.8-1.4,1.5-1.4,2.8c0,4.9-0.1,9.9-0.3,14.8c-0.3,6.9-0.9,13.7-1,20.6
	c-0.2,10.4-0.2,20.7,0,31.1c0.1,8.1,1,16.1,2.8,24C277.1,695.1,278.6,703.4,279.6,711.6c-1.1-0.3-2.1-1-2.6-2.2
	c-0.9-2.5-2.8-3-5.2-2.8c-2.4,0.2-4.2,1.7-4.6,4.1c-0.4,3-0.8,6-1.2,9c-0.4,3.1-0.7,6.2-1,9.3c-0.1,0-0.2,0-0.3,0
	c0-5.1,0-10.1,0-15.4c-1.2,0.1-2.5,0.2-4.1,0.3c1.4,6.3,2,12.6,2.4,18.8c-0.3-0.2-0.5-0.3-0.6-0.5c-1.2-5.1-2.5-10.2-3.7-15.3
	c-0.3-1.1-0.6-2.2-0.9-3.2c-0.6-1.7-2.2-1.7-3.6-1.7c-1.4-0.1-1.8,0.9-2,1.9c-0.5,2.2-1.3,4.5-1.5,6.8c-0.7,6.9-2.6,13.4-6.2,19.4
	c-1.2,2-2.2,4.1-3.2,6.2c-1.6,3.5-2.1,7.2-1.1,11c0.8,3.4,4.7,6.3,8.2,6c6.4-0.6,12.9-1.2,19.3-2c1.6-0.2,3.3-0.9,4.7-1.7
	c6-3.7,8-9.5,8-16.2c-0.1-7-0.6-14-0.8-21C279.5,718.8,279.6,715.2,279.6,711.6z M277.7,387.9c0.1,0,0.3-0.1,0.4-0.1
	c0.1,1.2,0.2,2.4,0.3,3.6c0.3,6.7,0.5,13.4,0.8,20.1c0.2,4.1,0.4,8.1,0.6,12.2c0.4,8.6,1.1,17.2,1.3,25.8c0.3,24.7,0.3,49.3-0.5,74
	c-0.4,12.6-0.6,25.2,0,37.8c0.3,6.1,0.4,12.1,0.7,18.2c0,0.5,0.2,1,0.3,1.8c2.2-1,4.2-1.4,6.5-0.4c0-6.2,0-12.1,0-18
	c0.5,3.5,0.9,7,1.1,10.5c0.4,5.5,0.9,11,1.1,16.5c0.2,4.5,0.2,4.8,4.4,6.5c0.8,0.3,1.6,0.6,2.5,0.9c4.9,1.4,9.8,1.4,14.7,0.6
	c2.1-0.3,4.3-0.8,6.2-1.7c4.2-2,5.2-3.9,4.8-8.5c-0.4-5.4-0.7-10.8-1.1-16.2c-0.2-3.4-0.3-6.9-0.5-10.3c-0.7-12.6-1.4-25.2-2-37.8
	c-0.1-2.9,0-5.9,0-8.8c0.5,1.6,0.7,3.2,0.8,4.9c1,11.2,2,22.4,2.8,33.6c0.6,8.5,0.9,17,1.5,25.6c0.2,3.3,0.7,6.6,1,9.9
	c3.2,0,6.2,0.2,9.1-0.1c2.4-0.2,4.7-0.7,7-1.4c2.3-0.7,2.7-1.5,2.5-3.9c-0.1-0.8-0.2-1.6-0.3-2.4c-0.7-5.4-1.7-10.7-2.1-16.1
	c-0.6-8-1.1-16.1-1.3-24.1c-0.2-7.7,0.1-15.5,0.2-23.2c0-1.9,0-3.8,0-5.7c-2.8-0.5-5.5-1-8.2-1.6c-4.6-1.1-7.3-4-8.4-8.5
	c-0.5-1.9-0.8-3.9-1.2-5.9c-2.5-10.6-4.7-21.2-6.3-31.9c-1.5-10.2-2.7-20.4-2.6-30.7c0-1.8-0.1-3.5-0.2-5.3
	c-0.4-7.9-0.9-15.8-1.2-23.7c-0.4-7.9-0.8-15.8-2.4-23.6c-1.4-6.7-2.6-13.5-5-19.9c-0.8-2.2-0.8-2.2-3-2.2
	c-4.2-0.1-8.5-0.1-12.7-0.2c-2.9,0-5.7,0-8.7,0c-0.3,2.5-1.7,4.3-4.1,4.8c-2.1,0.4-4.4,0.3-6.4,0.4c-1.5,1.7-2.8,3.6-4.5,5.1
	c-2.5,2.2-4.4,4.7-5.4,8c-0.4,1.2-1,2.4-1.8,3.4c-1.2,1.5-2.7,1.2-3.5-0.6c-0.3-0.8-0.4-1.6-0.8-2.7c-0.3,0.8-0.5,1.2-0.6,1.6
	c-2.9,10.9-4.4,22-3.9,33.4c0.4,11.2,1,22.5,1.3,33.7c0.1,5.2-0.2,10.4-0.2,15.5c0,0.7,0,1.4,0,2.1c2.9,0,5.5,0,8.3,0
	c0.2-0.7,0.4-1.3,0.5-1.9c2.3-13.8,4.7-27.5,6.7-41.3c1.2-8.2,1.8-16.5,2.3-24.8c0.5-8.5,1-17,2.4-25.5c0.3-1.7,0.7-3.3,1.1-4.9
	c0.2,0,0.3,0.1,0.5,0.1c0,0.5,0,0.9,0,1.4c-0.6,9.5-1.3,18.9-1.9,28.4c-0.2,2.5-0.2,5-0.5,7.4c-1.4,12.6-3.1,25.2-5.6,37.6
	c-2.3,11.7-4.4,23.5-6.7,35.3c-1.1,5.8-2.6,11.5-6.3,16.4c-0.7,0.9-0.6,1.9-0.5,3c0.4,3.7,0.9,7.4,1.1,11.2
	c0.3,6.8,0.5,13.6,0.7,20.3c0.3,9.8,1.1,19.6,0.6,29.4c-0.5,8.5-0.6,17.1-0.3,25.6c0.1,4.4-0.2,8.8-0.4,13.1c0,1.4,0,2.8,0,4.4
	c1.7,0,3.2,0.1,4.7,0c8.2-0.6,15.2-3.9,21.1-9.6c1.9-1.8,2.5-4,1.9-6.5c-0.4-1.8-0.8-3.6-0.9-5.4c-0.5-12.3-1.1-24.6-1.3-36.8
	c-0.1-9.2,0.5-18.3,0.7-27.5c0.5-24.2,0.8-48.4,0-72.5c-0.4-11.6-0.9-23.3-1.2-34.9C277.4,399.1,277.6,393.5,277.7,387.9z
	 M207.1,305.4c-0.1-0.9-0.1-1.3-0.1-1.8c-0.6-3.4-0.3-6.7,0.3-10c0.9-5.2,2.6-10.2,5-14.9c4.5-9,9-18,13.7-26.9
	c1.7-3.1,3.9-6.1,6.2-8.8c9.7-10.9,16.2-23.4,19.2-37.7c0.3-1.2,0.6-2.4,0.9-3.6c0.5,1.7,0.7,3.4,0.4,5c-1.3,6.4-3.1,12.7-5.9,18.6
	c-0.3,0.5-0.5,1.3-0.3,1.8c0.7,1.8,1.9,3.4,3.7,4.6c1.9-3.7,3.1-7.5,3.7-11.5c0.6-3.9,0.5-7.8-0.3-11.7c1.3,2.1,1.6,4.4,1.6,6.7
	c0.2,5.4-0.6,10.7-3,15.6c-0.3,0.6-0.5,1.3-0.8,2c3-3,5.8-8.6,6.2-12.8c0.6-7.1,0.3-14.2-2.6-20.9c-2-4.6-3.1-9.4-3.2-14.4
	c-0.1-8.8,0.9-17.5,2.3-26.2c1.5-8.8,4.5-16.9,10.4-23.8c1.3-1.5,2.1-3.5,3-5.4c0.7-1.5,1.3-3.1,1.9-4.6c1.8-4.6,5-8.1,8.4-11.5
	c0.2-0.2,0.5-0.3,0.7-0.4c-5.7,6.6-9.4,14.2-12.2,22.3c1.2-0.5,2.2-1.1,3.1-1.8c1.6-1.1,3.2-1.3,5-0.6c8.3,3.3,16.8,6,24.3,11
	c1.8-1,2.4-3.5,4.9-4.1c0.4,1.8-0.3,3.3-0.8,4.8c-0.3,1-0.1,1.7,0.8,2.2c1.8,1,3.7,1.9,5.6,2.8c3.8,1.8,7.6,3.6,11.4,5.5
	c3.2,1.6,5.3,4.3,6.8,7.5c0.2,0.5,0.5,0.9,0.9,1.5c2.1-3.8,3.3-7.5,3.7-11.6c0.8-8.5,0.5-17.1-0.3-25.6c-0.2-2-0.4-4-0.6-6.1
	c0.5,0.5,0.7,1.1,0.9,1.7c2,9.4,2.2,18.8,1.8,28.4c-0.3,5.8-2.3,11.1-5.1,16.1c-0.3,0.5-0.6,1.1-1,1.3c-1.6,0.8-2.2,2.4-2.9,3.9
	c-2.6,5-5.1,10.1-8.8,14.5c-2.5,2.9-4.9,5.9-7.5,8.7c-3.2,3.5-6.9,6.4-11.7,7c-3.6,0.5-5.5,2.2-6.5,5.4c0,0.1-0.1,0.1-0.1,0.2
	c-4.2,9.6-5.4,19,0.2,28.7c3.8,6.5,6.4,13.6,6.9,21.2c0,0.3,0.3,0.5,0.6,1c0.8-1.6,1.5-2.9,2.2-4.3c0.7-1.2,1-2.7,2.2-3.6
	c-0.9,2.7-1.9,5.2-3,7.8c-2.5,5.9-4.1,12.1-4.7,18.5c-0.2,2.1-0.1,4.2,0.9,6.7c0.4-1.8,0.5-3.1,0.9-4.4c1.5-5.5,4.5-10.2,8.4-14.3
	c4-4.1,8.3-8,12.3-12c2.1-2.1,4.3-4.1,6-6.5c6.7-9.1,11.3-19.2,13.4-30.4c2.4-12.6,3.7-25.2,4.5-38c0.3-5.3,0.8-10.7,1.4-16
	c0.4-3.6,1.4-7.1,1.8-10.6c1.1-8.9,0.3-17.7-1.5-26.4c-1.6-7.5-4.9-14.1-10.3-19.7c-1.9-2-3.8-3.6-6.8-3.2c-1.1,0.1-1.7-0.4-1.6-1.5
	c0.1-2.2-1.2-3.6-2.8-4.7c-1.2-0.8-2.6-1.6-4.1-1.9c-6-1.4-12-1.7-18-0.5c-5.3,1.1-10.1,3.5-15,5.6c-9.4,3.8-16.6,10.3-22.4,18.5
	c-6.4,9-10.8,19-15.1,29c-1.2,2.8-2,5.9-2.5,9c-1.6,9.8-2.4,19.6-2.4,29.6c0,4.2-0.2,8.5-0.5,12.7c-0.5,7.2-2.5,14-6.1,20.2
	c-3.1,5.3-6.2,10.6-9.3,15.9c-0.7,1.1-1.4,2.2-2.1,3.3c-0.1-0.8,0.1-1.5,0.5-2.1c2.9-5.6,5.6-11.3,8.8-16.7c5.4-9.1,6.9-18.9,7-29.2
	c0-0.6-0.1-1.1-0.2-1.7c-0.5,1-0.8,2-1,3c-2.5,10.2-6.8,19.5-13.2,27.9c-4.6,6.1-9.9,11.5-15.8,16.3c-5.6,4.6-10.2,10.1-13.7,16.4
	c-4.9,8.7-6.2,18-4.4,27.8c0.8,4.6,2.9,8.8,4.7,13c1.4,3.4,3.5,6.4,5.9,9.2C203.2,302.9,204.8,304.2,207.1,305.4z M226,375.7
	c-0.2-0.1-0.3-0.2-0.5-0.2c2.8-6.1,5.3-12.4,9.1-18.2c-3.7-0.8-7.4-1-10.3-4.1c-0.9,1.8-1.7,3.3-2.4,4.9c-0.8,1.6-1.5,3.2-2.3,4.8
	c-0.7,1.7-1.4,3.4-2.2,5.1c-0.7,1.5-1,3.2-2.5,4.3c1.1-7.5,3.9-14.7,3.4-22.5c-0.3,0.2-0.5,0.2-0.5,0.3c-1.2,4.6-3.8,8.4-6.6,12.1
	c-0.9,1.2-1.7,2.5-2.2,3.9c-1,3.2-2.8,5.9-5.1,8.2c-4.6,4.5-9.8,8.2-15.3,11.4c-4.2,2.4-8.5,4.7-13.5,5.3c-0.5,0.1-1,0.2-1.6,0.3
	c0,2.9,0.9,5.5,2,8c1.1,2.5,2.2,4.9,3.3,7.4c-0.1,0.1-0.3,0.1-0.4,0.2c-1.3-1.9-2.6-3.8-4.1-6c0.2,4.6,0.8,8.6,2.2,12.6
	c1.4,3.9,2.7,7.9,4.2,12.1c-0.9-0.7-1.6-1.1-2.5-1.8c-0.1,3.8-0.6,7.2,0.6,10.6c10-6.8,21-6.6,32.2-5.8c1.6-2.8,1.1-15.6-0.9-20.8
	c-0.6,1-1.1,1.9-1.6,2.8c-0.2-0.7-0.2-1.2-0.1-1.7c1.5-7,2.7-14.1,3.1-21.3c0.2-3.7,0.6-7.3,1-11c0.2-1.9,0.7-3.7,1.7-5.3
	c0.2,0.9,0.1,1.7,0,2.5c-0.4,6-0.9,12.1-1.3,18.1c-0.2,2.6-0.3,5.3-0.8,7.8c-0.7,3.1-0.4,6.1,0.3,9.2c1.4,6.1,2,12.3,1.3,18.5
	c-0.4,3.9-0.3,7.7,0.9,11.5c0.3,1.1,0.7,2.1,0.9,3.2c0.9,5.9,2.4,11.7-0.8,17.7c3,1.3,6.1,1.4,9.3,1.7c0.1-1.2,0.2-2,0.3-2.9
	c0.3-3.4,0.5-6.9,1-10.2c1.8-12.1,3.7-24.1,5.8-36.2c0.9-5.4,2.4-10.7,3.5-16.1c2.5-12.6,5.8-25,11.8-36.5c0.3-0.6,0.5-1.2,0.7-2
	c-3.6-0.2-6.9-0.3-10.1-0.5c-1-0.1-1.5,0.3-1.9,1.1c-1.3,2.6-2.6,5.1-3.9,7.7C229.5,369.3,227.7,372.5,226,375.7z M392.6,400.7
	c-0.1,0-0.2-0.1-0.3-0.1c0.2-0.6,0.3-1.2,0.6-1.7c3.5-8.6,5.7-17.4,5.2-26.8c-0.4-8.2-0.6-16.4-1.1-24.6c-0.4-5.5-1-11-2.1-16.4
	c-1.5-7.5-5-14.3-8.2-21.1c-0.1-0.2-0.3-0.3-0.6-0.6c-0.4,1.5-0.7,2.9-1,4.3c-1.3,6-3.5,11.6-7.2,16.5c-1.8,2.4-3.4,4.9-5.2,7.1
	c-1.9,2.3-4,4.6-6.3,6.5c-5.7,4.7-11.6,9.2-17.6,13.9c0.1,0.1,0.2,0.6,0.4,1c2.2,4.2,3.8,8.6,4.9,13.2c1.3,5.5,2.4,11.1,3.5,16.6
	c1.1,5.6,2.1,11.3,2.8,17c0.6,4.9,0.6,9.9,0.9,14.8c0.1,0.8-0.3,1.8,0.4,2.3c9.8-4.1,19.6-5.1,30-3c0.8-6.8,1.6-13.6,2.3-20.4
	c-0.1-0.1-0.3-0.3-0.4-0.4c-0.1,0.3-0.1,0.7-0.3,0.9C393,400.1,392.8,400.4,392.6,400.7z M299.3,712.7c0.2-0.9,0.4-1.6,0.5-2.3
	c0.4-2.1,1.2-2.8,3.3-2.2c1,0.3,1.9,1,2.9,1.6c0.5,0.3,0.9,0.8,1.6,1.5c0.5-1.7,1.1-3.1,1.4-4.6c0.6-3.1,0.9-6.3,1.7-9.4
	c2.1-7.7,4.3-15.4,6.7-22.9c5-15.3,8.9-30.8,11.3-46.7c1.8-11.8,2.2-23.7,2.7-35.5c0-0.6-0.2-1.2-0.3-1.8c-2.1,0-4-0.4-5.8,0.6
	c-0.3,2.4-1.7,4.2-3.6,5.4c-1.7,1.1-3.6,2.2-5.5,2.7c-6.9,1.8-13.9,1.7-20.8-0.4c-0.7-0.2-1.3-0.4-2.4-0.7c0,1.9,0,3.6,0,5.3
	c-0.2,6.2-0.7,12.4-0.6,18.7c0.1,10.9,0.5,21.9,0.9,32.8c0.3,9.5-0.1,19-2.2,28.3c-1.6,7-3.9,13.8-6.6,20.5c-1,2.5-1.6,5-2.4,7.8
	c3-1.9,6-3,9.2-3.5c2.3-0.3,3.5,0.4,4.3,2.5c0.3,0.6,0.5,1.3,0.7,1.9C297.3,712.5,298.2,712.6,299.3,712.7z M302,143
	c-0.4,0.3-0.7,0.6-0.9,0.9c-0.3,0.3-0.6,0.7-1,1c-1.3,1.2-1.9,1.1-3.3,0c-1-0.9-2.1-1.7-3.3-2.2c-5.7-2.5-11.5-4.8-17.2-7.2
	c-4.4-1.8-4.6-1.7-8.6,0.9c-1,0.7-1.8,1.8-2.9,2.1c-2,0.4-2.6,1.9-3.4,3.3c-2,3.3-3.2,7-4.2,10.6c-1.7,5.9-2.1,11.9-3.1,17.9
	c-0.6,4,0.4,7.6,2,10.9c2.8,5.7,6.7,10.7,11.7,14.6c4.1,3.2,8.6,5.1,13.9,5.2c2.6,0.1,5.1,0.1,7.7,0.3c7.1,0.5,13-2.1,17.8-7.1
	c7.7-8.1,14.1-17.1,18.6-27.4c0.4-1,0.6-2.2,0.4-3.2c-0.6-3.2-2.5-5.4-5.2-7.1c-3.9-2.5-7.9-4.8-12.3-6.5c-1.3-0.5-2.6-1.2-3.8-2
	C301.7,146.1,301.6,147,302,143z M235.7,582.6c-0.1,1-0.1,1.6-0.1,2.3c0,2.3,0,4.6,0,6.9c-0.1,10.9,0.2,21.7,1.9,32.5
	c1.2,7.6,2.8,15.1,4.1,22.6c1.4,7.8,4.1,15.2,6.3,22.8c3.9,13.2,7.4,26.4,6.4,40.3c3.7,0.3,3.7,0.3,5.9,2.1c2,0,3.7,0,5.4,0
	c1.2-6.9,5.3-7.7,10.8-7.4c0-0.8,0-1.6-0.2-2.3c-0.5-2.8-1.2-5.6-1.7-8.4c-1.1-5.7-2.6-11.4-3.4-17.1c-1.4-10.3-1.7-20.7-1.2-31
	c0.7-15.9,1.7-31.9,2.6-47.8c0-0.7,0-1.3,0-2.1c-10.3,5.2-18.7,4.7-22.3,3.1c0-1.3,0-2.4,0-3.6c0.1-1.9,0.3-3.8,0.4-5.7
	c0.1-1.9-0.1-2-1.9-2c-0.8,0-1.6-0.2-2.3-0.5c-1-0.4-1.8-0.9-2.8-1.3C241,584.8,238.5,583.7,235.7,582.6z M254.1,255.8
	c-0.1,0.1-0.2,0.3-0.3,0.4c0.5,1.1,1,2.1,1.4,3.2c3,8.4,6.2,16.8,8.9,25.3c4.8,15,7.7,30.3,8,46c0.1,5.3,0.2,10.7,0.3,16
	c0,0.7,0,1.7,0.4,2c1.1,0.9,2.2,1.8,3.8,1.8c7.6-0.1,15.2-0.1,22.7-0.2c1.4,0,2.8-0.2,4.4-0.3c-1.8-5.2-1.7-10.3-1.5-15.4
	c0.3-9.5-0.3-19-1.4-28.4c-0.1-1.1-0.6-2.1-0.9-3.2c-1.1-3.6-2.3-7.1-3.5-10.7c-0.4-1.2-0.7-2.4-1.3-3.6c-2.2-4.5-3.2-9.2-2.2-14.2
	c0.7-3.7,1.7-7.3,2.6-10.9c0.3-1.1,0.8-2.1-0.1-3.2c-7,1.9-14,2.2-21.1,1.9C267,261.9,260.4,259.4,254.1,255.8z M250,494.1
	c-0.2-0.1-0.4-0.2-0.6-0.2c-1,1.1-2,2.2-3,3.3c-2.2,2.4-4.9,3.8-8.1,4.2c-4.9,0.7-9.9,0.5-14.8-0.3c-1.4-0.2-2.6-1-3.9-1.6
	c-0.7-0.3-1.3-0.7-1.9-1c0.7,1.2,1.6,1.9,2.4,2.8c1.2,1.4,1.3,3.3,0,4.3c-1.8,1.4-2,3.1-1.8,5.1c0.1,0.6,0,1.1-0.1,1.7
	c-0.5,5.6-0.9,11.3-1.5,16.9c-0.4,4-0.7,8.1-1.5,12.1c-1.4,7-3.2,14-4.8,21c-0.2,0.9-0.4,1.8-0.7,3c4.9,1.3,9.4,2.5,14,3.7
	c0.2-0.4,0.3-0.7,0.3-0.9c0.9-7,1.8-14.1,1.8-21.2c-0.1-9.9-0.1-19.8-0.1-29.7c0-0.5,0.1-1,0.2-1.5c0.4,0.5,0.6,0.9,0.6,1.4
	c0.4,5.6,0.8,11.1,1,16.7c0.2,7.2,0.3,14.4,0.1,21.5c-0.1,5.1-0.8,10.2-1.3,15.3c-0.2,2.2,0.5,3.9,2.1,5.3c2,1.8,4.4,2.9,6.8,3.9
	c4.3,1.7,8.5,3.6,12.8,5.4c0.9,0.4,1.8,0.6,2.8,1c0-2.1,0-3.9,0-5.7c0-5.9-0.2-11.8-0.1-17.7c0-8.7,0.2-17.4,0.2-26.1
	c0-4-0.3-8-0.4-12c-0.2-8.8-0.3-17.6-0.5-26.3C250,496.9,250,495.5,250,494.1z M339.7,309c0.2-0.1,0.4-0.1,0.6-0.2
	c0-0.9,0-1.9,0-2.8c-0.5-10.8-0.9-21.5-1.4-32.3c-0.1-1.7-0.3-3.3-0.5-5c-1.1-7.6-2.3-15.1-3.2-22.7c-0.6-4.7-0.7-9.4-0.1-14.1
	c0.2,1.1,0.4,2.2,0.4,3.3c0.1,6,1,11.9,2,17.8c1.1,6.2,2,12.5,2.6,18.7c0.7,6.8,1.1,13.7,1.3,20.5c0.2,6.1,0.1,12.3,0.1,18.4
	c0,0.8,0.1,1.7,0.5,2.2c1.5,2,3.2,4,4.8,5.9c0.3,0.3,0.7,0.4,1.4,0.7c0.4-4,1.1-7.7,1.1-11.4c0.1-15.2-0.1-30.5-2.3-45.6
	c-0.4-2.7-0.7-5.5-1-8.2c0.1,0,0.3-0.1,0.4-0.1c0.7,3.1,1.3,6.2,2,9.4c0.2,0,0.4,0,0.6,0.1c3.6-7.4,7.1-14.9,10.7-22.3
	c0.3,0.6,0.2,1.1,0,1.5c-1.9,4.7-3.7,9.5-5.8,14.2c-1.1,2.4-2.7,4.7-4.2,7c-0.7,1.1-1.1,2-0.8,3.3c0.5,3.2,1,6.3,1.2,9.5
	c0.4,7.5,0.5,15,0.8,22.5c0,0.3,0.1,0.5,0.2,1.2c0.8-1.4,1.3-2.4,1.9-3.4c3.1-4.8,6.3-9.6,9.4-14.5c2.5-3.9,5.1-7.7,6.7-12.1
	c0.4-1.1,0.5-1.9,0.3-2.9c-2.3-9.5-4.7-19-9.1-27.9c-1.8-3.8-3.4-7.7-5.5-11.4c-3.5-6.1-8.4-10.8-14.7-14c-0.5-0.2-1-0.3-1.6-0.5
	c-0.2,0.7-0.3,1.3-0.4,1.8c-1,5-2.2,10-4.4,14.6c-3.1,6.6-5.8,13.3-6.9,20.6c-1.3,8.6-1.6,17.1,0.1,25.7
	c2.2,11.3,6.7,21.6,12.1,31.6C339.2,308.4,339.4,308.7,339.7,309z M370.1,270.8c-1.3,2.9-2.4,5.7-3.9,8.3c-3.9,6.6-8,13-12.1,19.5
	c-0.5,0.9-1.2,1.7-2.1,2.3c-1.1,0.9-1.5,1.9-1.6,3.3c-0.3,5.1-0.5,10.2-0.9,15.3c-0.1,1.8,0.3,2.9,2,3.5c0.7,0.3,1.5,0.6,1.2,1.9
	c-1.2,0.1-2.4,0.2-3.7,0.4c-0.4,3.5-0.7,6.9-1.3,10.3c-0.6,3.4-1.6,6.6-2.4,10.1c2,2.6,2.6,4,1.7,7.1c-0.4,1.6,0.1,2.3,0.8,3.3
	c0.2-0.1,0.4-0.1,0.5-0.1c5.3-4.3,10.7-8.6,16-13c1.6-1.4,3.3-2.8,4.6-4.5c3-3.9,5.9-7.9,8.8-11.9c2.1-2.9,3.5-6.1,4.6-9.4
	c0.9-2.8,1.8-5.6,2.5-8.5c0.2-0.9,0.2-1.9-0.2-2.7c-1.5-3.6-3.1-7.2-4.9-10.6c-2.7-5.1-4.9-10.4-6.8-15.8
	C372,276.5,371,273.7,370.1,270.8z M333.4,469.8c0.1-0.8,0.3-1.4,0.4-2c0.4-6.4,0.9-12.9,1.2-19.3c0.6-12.9-0.6-25.6-3.9-38.2
	c-3.4-13-6.6-26.1-9.9-39.2c-1.1-4.2-2-8.5-3-12.8c-2.8-0.3-11-0.1-12.4,0.4c0,0.2,0,0.3,0,0.5c4,8.3,5.7,17.3,6.9,26.3
	c0.9,6.5,1.2,13.2,1.6,19.8c0.6,10.8,1.1,21.5,1.5,32.3c0.2,6.6,0.5,13.2,1.6,19.8c0.6,3.5,1.1,7.1,1.6,10.7
	C323.9,468.6,328.6,469.6,333.4,469.8z M257.4,350.6c0-3.1,0.1-5.9,0-8.8c-0.4-8.3-2.4-16.2-4.4-24.2c-2.7-11.1-6.5-21.8-10.8-32.4
	c-5-12.6-8.1-25.5-7.9-39.2c0-0.5-0.1-1-0.2-1.9c-0.7,0.8-1.2,1.3-1.7,1.8c-3,3.5-5,7.6-7.2,11.6c-1.5,2.7-2.3,5.5-2.2,8.6
	c0.3,7.2,0,14.4,0.5,21.5c1.1,15.2,5.2,29.4,14.4,42c4.4,6,8.3,12.5,10.4,19.8c0,0.1,0.2,0.2,0.3,0.3
	C251.4,350,254.2,350.3,257.4,350.6z M346.9,322.5c0.1-0.2,0.1-0.3,0.2-0.5c-0.9-0.9-1.9-1.7-2.8-2.6c-1.3-1.3-2.8-2.5-3.7-4
	c-5.4-8.8-10-17.9-13.1-27.9c-3.7-11.9-5.2-24-2.8-36.4c0.4-1.9,0.8-3.8,1.3-5.7c-0.1-0.1-0.3-0.2-0.4-0.3c-0.2,0.3-0.3,0.6-0.5,0.8
	c-2.4,3.5-5.5,6.4-8.6,9.3c-3.8,3.5-7.5,7.2-11.1,10.9c-2.9,3-5.2,6.5-6.8,10.3c-1.2,2.9-2,6-1.5,9.1c0.7,4.1,1.7,8.3,2.9,12.3
	c2.2,7.5,7.1,12.6,14.3,15.8c6.3,2.7,12.7,5.1,19.3,7.1C337.8,322.3,342.3,322.4,346.9,322.5z M248,357.5c-0.4,1.3-0.7,2.3-1.1,3.3
	c-1.4,4-3.1,7.9-4.3,11.9c-5.5,19-10.2,38.2-13.3,57.7c-1.5,9.5-3.1,19.1-3.6,28.7c0,0.8,0,1.7,0,2.7c7.7,0.6,15.2,1.1,22.8,1.1
	c0.2-1.2,0.4-2,0.4-2.9c0.1-4.6,0.3-9.2,0.2-13.9c-0.2-6.8-0.7-13.5-0.9-20.3c-0.3-9-1.1-18-0.3-27c0.9-10,3-19.7,6.1-29.2
	c1.2-3.6,2.2-7.2,3.3-10.7c0.1-0.4,0.1-0.8,0.1-1.2c-0.6-0.1-1-0.2-1.5-0.2C253.4,357.5,250.8,357.5,248,357.5z M226.2,213.9
	c-0.1,0-0.2-0.1-0.3-0.1c-3.7,2.3-7.4,4.6-11.3,6.8c-6.4,3.5-12,8.1-17,13.4c-7.7,8.2-14.1,17.3-19.8,26.9
	c-2.5,4.2-4.3,8.7-5.6,13.4c-2.5,9.2-3.4,18.7-3.5,28.2c-0.1,5.4,0.1,10.8,0.2,16.3c0,0.6,0.2,1.5,0.7,1.9c1.1,1.1,2.5,1.7,4.1,1.1
	c1-0.4,2-0.7,2.9-1.1c8.4-3.4,14.4-9.6,19.5-16.7c0.7-1,1.1-2.3,1.7-3.4c0.4-0.8,0.3-1.5-0.2-2.2c-2.8-4.2-4.7-8.9-6.3-13.7
	c-4.3-12.6-3.3-24.8,3.8-36.3c3.8-6.2,8.6-11.5,14.2-16c5.3-4.3,9.9-9.2,14.1-14.6C224.4,216.5,225.3,215.2,226.2,213.9z
	 M240.3,236.2c-0.8,1.1-1.2,1.8-1.8,2.3c-3.4,3-3.7,6.6-3,10.8c1,6.1,1.2,12.4,3,18.4c2.1,6.8,4.3,13.5,6.9,20.1
	c5.8,14.6,9.8,29.7,12.6,45.1c0.9,5.3,1.2,10.6,1,16c0,0.8-0.4,1.7,0.3,2.2c1.9-1.1,3.7-1.9,5.2-3c1.8-1.4,3.7-0.9,5.6-0.6
	c0.1-0.5,0.2-0.7,0.2-0.9c0-2.7-0.1-5.4-0.1-8.1c-0.1-14.1-1.3-28.1-4.9-41.7c-3.5-13.5-8-26.7-12.8-39.9c-0.7-1.8-1.6-3.2-3.2-4.3
	c-3.5-2.5-5.2-6.4-6.9-10.1C241.6,240.6,241.1,238.6,240.3,236.2z M173.6,390.2c2.3,0.2,4.3-0.7,6.2-1.6c7.4-3.3,14.1-7.7,20.3-12.9
	c2.6-2.2,4.9-4.6,6.7-7.5c1.2-1.9,2.2-3.9,3.3-5.8c2.9-5,5.8-10.1,7.5-15.7c1-3.2,0.9-6.2-1.1-9.1c-2.4-3.5-4.2-7.3-5.6-11.3
	c-0.2-0.5-0.4-0.9-0.8-1.6c-1,2.1-1.8,3.9-2.7,5.7c-4.3,8.4-10.7,14.7-19.5,18.2c-3.9,1.6-7.9,2.7-12.1,1.8c-1.4-0.3-2.7-0.8-4-1.2
	C172.3,362.9,172.9,376.5,173.6,390.2z M319.3,358.1c0.3,1,0.4,1.7,0.6,2.3c1.2,4.1,2.6,8.2,3.6,12.4c2.7,10.3,5.2,20.7,8,31
	c3,11.1,5.2,22.4,5.4,33.9c0.2,9.4-0.1,18.8-1,28.2c-0.1,1.3-0.3,2.5-0.5,4c4.4,0.3,8.7,0.6,13.3,1c0-1.4,0-2.6,0-3.8
	c0.1-7,0.3-14,0.4-21c0-1.8,0.1-3.7,0.1-5.5c-0.3-8.9-0.7-17.9-2.2-26.7c-0.9-5.7-1.4-11.6-2.8-17.2c-3.1-13.1-6.4-26.2-11-38.9
	c-0.2-0.4-0.4-0.8-0.7-1.2C328.3,357.1,323.9,357.6,319.3,358.1z M299,736.1c-0.6-0.5-0.7-0.6-0.8-0.7c-0.9-4.4-1.9-8.7-2.8-13.1
	c-0.6-3.4-1-6.8-1.6-10.2c-0.4-2.1-1-2.4-3-2c-3.1,0.7-6.1,1.9-8.8,3.6c-0.8,0.5-1.1,1-1.1,1.9c0.1,1.8,0.1,3.7,0.2,5.5
	c0.4,10.8,1.9,21.6,0.1,32.5c-0.2,1.1,0.2,1.8,1.3,2.2c2.4,0.7,4.7,1.7,7.1,2.2c6.3,1.3,12.8,1.5,19.3,1.7c1.6,0,3.3-0.3,4.9-0.8
	c3.6-1.2,4.9-2.9,4.8-6.8c-0.1-2.7-0.3-5.4-0.8-8.1c-0.6-3.3-1.9-6.3-4.1-9.5c0.1,2,0.2,3.4,0.3,4.9c-2.2-4.2-4.3-12-4.5-17.5
	c-0.2-4.8-2.8-8-5.7-11.2c-0.8-0.8-1.7-1.5-3.2-1c0.2,5.7-0.2,11.4-1,17.1c-0.2,0-0.3,0-0.5,0c0-4.2,0-8.4,0-12.8
	c-1,0.1-1.7,0.1-2.5,0.2C297.4,721.4,298.2,728.5,299,736.1z M253.8,179.5c-0.9,6-0.2,11.6,1.9,17.1c1.3,3.7,2.6,7.4,3.1,11.3
	c1.3,9.3,0.1,18-5.7,25.7c-0.2,0.2-0.2,0.5-0.4,0.9c6.5,3.1,12.9,6.3,19.9,7.7c4.5,0.9,9.1,1.7,13.8,0.9c1.5-0.2,2.9-0.8,4.1-1.9
	c-3.3-6.1-6.8-11.9-6.3-19.1c0.5-6.9,2.6-13.2,6.7-19.1c-0.9-0.1-1.5-0.2-2-0.2c-2.8-0.1-5.6-0.2-8.4-0.4c-4.3-0.3-8.4-1.3-11.9-3.9
	c-5.8-4.4-10.5-9.8-13.6-16.4C254.6,181.2,254.2,180.3,253.8,179.5z M222.3,264.6c-0.2,0-0.3-0.1-0.5-0.1c-0.3,0.5-0.7,1-1,1.6
	c-2.1,4.2-4.3,8.4-6.3,12.6c-4.1,8.4-6.6,17.1-5.9,26.5c0.2,2.4-0.1,4.8,0.5,7.1c1,4.2,2.2,8.3,3.6,12.4c2.5,7.7,6.9,14.4,12.2,20.4
	c3.4,3.8,7.6,5.2,12.9,4.1c-2.6-2.6-5.2-4.9-7.3-7.7c3,2.2,5.8,4.5,8.6,6.9c0.5,0.4,1,1,1.5,1.1c1.9,0.2,3.8,0.3,5.8,0.4
	c-0.2-2.4-1-4.3-2-6.1c-3.3-5.5-6.6-11.1-10.2-16.5c-4.1-6.1-7.2-12.6-9-19.7c-3.4-13.2-4.4-26.6-3-40.1
	C222.2,266.5,222.2,265.6,222.3,264.6z M198.8,300.5c-0.8,1.7-1.5,3.4-2.5,4.9c-4.6,7-10.3,12.8-18.1,16.2c-2.9,1.3-5.8,2.8-9.3,0.9
	c0.9,8.9,1.7,17.3,2.6,25.7c2.9,1.1,5.5,1.4,8.3,1c5.2-0.7,9.8-2.8,14.1-5.7c7.9-5.4,12.4-13.1,15.3-21.9c0.2-0.6,0.1-1.4-0.1-2.1
	c-1-4-2.1-8-3.2-12c-0.2-0.7-0.6-1.3-1.1-1.8C202.8,304,200.8,302.3,198.8,300.5z M357.7,454.2c1.1,0.3,1.9,0.6,2.8,0.6
	c2.5,0.2,5.1,0.4,7.6,0.5c6.5,0.3,13,0.9,19.4,2.8c0.5,0.2,1.1,0.3,1.6,0.3c2.1,0.2,3.1-0.8,3.1-2.9c0-3.6,0-7.2,0.1-10.8
	c0.2-5.4,0.5-10.8,2.4-16c0.2-0.5,0.3-1.1,0.3-1.6c0.2-3.1,0.1-3.3-3-4c-0.2,0-0.3,0-0.5-0.1c-3.3-2-7-1.8-10.7-1.8
	c-3.1,0.1-6.2,0.2-9.3,0.6c-2.7,0.4-5.4,1.2-8.1,1.9c-1.5,0.4-2.2,1.4-2.1,3c0.2,2.5,0.1,5,0.4,7.4c0.4,3.5,0.1,6.8-1,10.2
	C359.8,447.4,358.8,450.6,357.7,454.2z M350.6,467.2c0.1,0,0.1,0.1,0.2,0.1c0.2-0.6,0.5-1.3,0.7-1.9c0.9-2.6,1.7-5.1,2.6-7.7
	c1.6-5.2,3.3-10.3,4.8-15.6c0.5-1.8,0.7-3.8,0.6-5.7c-0.2-5.7-0.5-11.3-0.8-17c-0.3-7.3-0.6-14.7-1.9-21.9
	c-0.9-5.3-2.4-10.4-3.1-15.7c-1.1-7.9-3.3-15.4-6.4-22.7c-0.7-1.7-1.2-3.4-1.8-5.2c-3.8,0.8-7.6,1.7-11.7,2.6
	c0.7,1.4,1.2,2.6,1.8,3.9c5.3,11.6,8.2,24,10.9,36.4c2.5,11.1,3.6,22.5,4.4,33.9c0.6,9.1,0.5,18.2-0.3,27.3
	C350.4,461,350.6,464.1,350.6,467.2z M213.9,457.1c0.2-0.5,0.4-0.8,0.5-1.2c0.1-1,0.2-2.1,0.3-3.1c0.5-7.5-2.7-14.3-3.5-21.7
	c-1.3-0.3-2.4-0.6-3.6-0.7c-7.5-0.4-15,0.1-22.2,2.4c-1.6,0.5-3.1,1.3-4.5,2.1c-1.6,1-1.6,1.2-1,2.9c0.8,2.4,1.8,4.8,2.5,7.2
	c1.1,3.6,2.1,7.2,3.1,10.8c0.4,1.5,0.7,3.1,1.2,4.6c0.5,1.6,0.9,1.8,2.4,1.3c1.9-0.7,3.7-1.5,5.5-2.4c4.3-2.1,8.8-3.3,13.6-3.2
	C209.9,456.3,211.7,456.7,213.9,457.1z M291.4,243.6c-3.1,1.4-5.5,1.9-9,1.9c-11.4,0.2-21.5-3.8-30.9-10c-2.3,2.1-4.6,4.3-7,6.4
	c1.4,3.8,3.5,7.1,6.8,9.5c4.8,3.4,10,6,15.7,7.5c7.4,1.9,14.9,1.5,22.3,0.6c2-0.3,4-0.9,6-1.3C295.3,252.8,293.5,248.2,291.4,243.6z
	 M360.1,484.4c1.6-0.5,1.9-1.8,2.4-3c0.9-2,1.7-4.1,2.8-6.1c1.7-3,3.2-6,4.1-9.4c0.3-1,0.9-1.9,1.3-2.9c0.2,0.1,0.3,0.1,0.5,0.2
	c0.1,1.5,0,3,0.3,4.4c0.3,1.5,1.2,2.8,1.5,4.2c0.5,2.7,0.6,5.6,1.1,8.3c0.5,2.4,0.1,4.6-0.9,6.7c-1.4,2.9-2.8,5.7-4.2,8.6
	c-0.6,1.2-1.2,2.4-1.2,4.1c2.9-1.5,5-3.4,6.8-5.8c3.2-4.3,6.6-8.6,7.5-14.2c0.2-1.1,1-2.2,1.6-3.3c0.2,0.1,0.3,0.1,0.5,0.2
	c-0.5,2.1-1,4.1-1.5,6.2c3.2-7,5-14.2,4.5-22.2c-8.4-2.2-16.9-2.9-25.6-3.7c0.6,4,0,7.6-1,11.1c-0.6,2.4-1.3,4.8-1.9,7.2
	c-0.4,1.6-0.6,3.3-0.7,5C358.1,481.8,358.6,483.3,360.1,484.4z M317,349c4.9-1,9.7-1.9,14.3-2.8c1.5-7.4,4.2-14,6.8-20.7
	c-0.2,6.9-3.4,13.2-4.4,20.3c3.3-0.3,6.3-0.5,9.2-0.7c2.1-4.1,4.2-15.2,3.8-20c-0.9-0.1-1.8-0.2-2.8-0.3c-2.3-0.3-4.6-0.4-6.9-0.8
	c-3.6-0.6-7.1-1.7-10.4-3.5c-1.1-0.6-2.2-1.3-3.6-1C322.1,329.4,318.8,338.9,317,349z M303.1,308.1c-0.4,1.1-0.4,1.1-0.3,2.1
	c1.2,8.4,1.8,16.8,1.3,25.3c-0.2,3.1,0.1,6.2,0.4,9.3c0.2,1.7,0.8,3.3,1.3,5.1c2.8-0.2,5.2-0.3,7.7-0.5c2-0.2,2.2-0.6,2.4-2.6
	c0.1-1.6,0.2-3.2,0.6-4.7c1.2-4.8,2.6-9.5,3.8-14.3c0.7-2.9,1.7-5.8,1.6-8.9C314.9,316.4,308.1,313.9,303.1,308.1z M237.6,499.9
	c3.6,0,6.3-1.4,8.6-3.8c0.8-0.9,1.2-1.6,0.8-2.9c-0.4-1.3-0.5-2.7-0.4-4c0.2-5.5,0.5-11,0.8-16.5c0.2-2.4,0.5-4.9,0.9-7.6
	c-3.7,0-7.2,0-10.7,0c-0.9,2.1-0.9,4.4-0.9,6.7c0.1,4.7,0.1,9.4,0,14.1c0,2.9-0.2,5.9-0.2,8.8C236.5,496.4,236.7,498.2,237.6,499.9z
	 M280.2,356.7c7.5-0.2,14.8-0.4,22-0.5c3.4-0.1,6.7,0,10.1,0c8.9-0.1,17.7-1,26.4-2.8c2.2-0.5,4.3-1.1,6.4-1.6c0-1,0.1-1.7,0-2.4
	c-0.2-1-0.7-1.7-1.9-1.8c-0.9,0-1.9-0.3-2.8-0.2c-3.9,0.5-7.8,0.9-11.6,1.6c-4.7,0.8-9.4,2-14.1,2.5c-11.7,1.1-23.4,1.8-35.1,0.7
	c-0.6-0.1-1.2,0-2,0.1C278.5,353.8,279.4,355.3,280.2,356.7z M319.5,469.6c0,0.7-0.1,1.1,0,1.6c2,9.8,4.1,19.6,6.2,29.4
	c0.3,1.4,1,2.9,1.9,4.1c1.2,1.8,3.1,2.8,5.6,2.9c-1.6-11.9-2.7-23.6,0.1-35.4c-0.7-0.2-1.1-0.3-1.4-0.4c-3.4-0.8-6.8-1.5-10.2-2.3
	C320.9,469.5,320.2,469.6,319.5,469.6z M345.6,508.9c0.1-0.7,0.2-0.9,0.1-1.1c-0.2-1.1-0.4-2.2-0.6-3.3c-2-8.8-3.9-17.6-3.1-26.7
	c0.1-0.9,0-1.8,0-2.6c0-0.7-0.2-1.4-0.3-2.2c-2.2-0.2-4.2-0.4-6.2-0.7c-3,12.2-1.7,24,0,36.1C338.8,508.6,342.1,508.8,345.6,508.9z
	 M234.9,500.1c-0.5-11.8,1-23.5,0.8-35.4c-3.2-0.3-6.5-0.6-10-0.9c-0.1,0.9-0.2,1.6-0.1,2.3c0.7,11.3,1.4,22.5,2.1,34
	C230.1,500.1,232.6,500.1,234.9,500.1z M216.2,461.7c0.2,0.8,0.4,1.2,0.5,1.7c0.9,3.3,1.8,6.6,1.7,10.1c0,1.6,0.2,3.3,0.6,4.9
	c0.6,2.4,1.5,4.7,2.1,7.1c0.7,2.4,1.3,4.8,1.9,7.2c0.3,1.4,0.2,2.8-0.9,4c-0.5,0.6-0.7,1.3-1.1,2c1.6,0.9,3.2,1.3,5.2,1
	c0-12.2-1.7-24.2-2.2-36.2C221.4,463,219,462.4,216.2,461.7z M349.5,473.5c-2.3-0.2-4.4-0.3-6.4-0.4c0,12.3,1.9,24,4.9,35.7
	c0.8,0,1.6,0,2.6,0C350.3,497.1,349.9,485.5,349.5,473.5z M248.6,492.7c2.8-3.1,4.4-5,6.1-10.3c1.8-5.6,2.8-11.4,3.6-17.2
	c-3,0-5.6,0-8.2,0C248.2,470.5,247.3,489.5,248.6,492.7z M273.7,360.9c0.4-0.1,1.3-0.1,2-0.4c2.1-0.7,2.7-1.8,1.9-3.9
	c-0.3-0.8-0.8-1.6-1.3-2.2c-1.9-2.3-4.3-3.7-7.1-4.7c-2-0.7-4-0.2-5.8,0.7c-1.6,0.8-2.1,2.3-1,3.8
	C265.1,357.8,268.4,360.6,273.7,360.9z M260.7,355.5c-0.6-0.8-1-1.8-1.6-2c-2.3-0.6-4.6-1.1-6.9-1.3c-5.6-0.4-11.3-0.9-16.9-0.9
	c-4,0-7.5-0.9-10.6-3.3c0,0-0.2,0-0.2,0c-0.1,2.5,1.4,4.8,4.1,5.6c2.4,0.7,4.8,1.3,7.2,1.4c7.9,0.4,15.9,0.5,23.8,0.7
	C259.9,355.7,260.1,355.6,260.7,355.5z M281.8,757.2c0.4,2.8,2.1,4.4,4.5,5.1c2.5,0.7,5.1,1.2,7.7,1.5c4.1,0.4,8.3,0.6,12.4,0.7
	c1.3,0.1,2.7-0.1,4-0.3c2.1-0.4,3.9-1.8,4.9-3.4c-5.7,1.8-11.3,0.8-16.9,0.5C292.6,760.9,286.9,760.3,281.8,757.2z M256.9,378
	c0.6-1.3,1.1-2.3,1.5-3.3c0.9-2.9,2.6-5.3,4.9-7.2c0.9-0.7,1.7-1.5,2.4-2.3c0.8-0.9,1.4-2,2.1-3.1c-0.7-0.5-1.2-0.8-1.6-1.1
	c-0.9-0.7-1.7-0.7-2.6,0c-5.1,4.1-7.6,9.3-7.2,15.9C256.3,377.1,256.6,377.4,256.9,378z M246.4,765c0,1.2,0.7,1.5,1.9,1.3
	c4.5-0.8,9-0.8,13.6-0.2c1.3,0.2,2.7,0.1,4.1,0c5.2-0.5,9.4-2.8,12.4-7.2c0.5-0.8,0.8-1.7,1.2-2.6c-0.7,0.2-1,0.5-1.3,0.9
	c-3.2,4.1-7.4,6.1-12.6,6.5C259.3,764.1,253,764.6,246.4,765z M245,228.7c-1.4,2.3-2.8,4.5-4.1,6.6c1.1,1.9,2,3.5,3.2,5.5
	c1.7-2.6,4-4.3,4.9-6.8C247.6,232.2,246.3,230.5,245,228.7z M220.3,343.2c0,4.5,0,8.7,0,13.3c1.2-1.5,2.1-2.6,2.9-3.8
	c0.2-0.3,0.4-0.7,0.4-1.1c-0.1-1.6-0.2-3.1-0.3-4.7c0-0.3-0.2-0.6-0.4-0.8C222.1,345.2,221.3,344.3,220.3,343.2z M258.5,357.9
	c-0.4,1.9-0.6,3.5-0.9,5.1c1.2-0.6,1.9-1.3,2.8-2.1c0.8-0.8,1.7-1.5,3-2.7C261.4,358.1,260.1,358,258.5,357.9z"/>
<path class="st0" d="M277.7,387.9c0,5.6-0.3,11.2-0.1,16.7c0.3,11.6,0.8,23.3,1.2,34.9c0.8,24.2,0.5,48.4,0,72.5
	c-0.2,9.2-0.8,18.4-0.7,27.5c0.1,12.3,0.8,24.6,1.3,36.8c0.1,1.8,0.5,3.6,0.9,5.4c0.6,2.6,0.1,4.7-1.9,6.5c-5.9,5.7-12.9,9-21.1,9.6
	c-1.5,0.1-3,0-4.7,0c0-1.6,0-3,0-4.4c0.1-4.4,0.5-8.8,0.4-13.1c-0.3-8.5-0.2-17.1,0.3-25.6c0.6-9.8-0.3-19.6-0.6-29.4
	c-0.2-6.8-0.4-13.6-0.7-20.3c-0.2-3.7-0.7-7.5-1.1-11.2c-0.1-1.1-0.2-2,0.5-3c3.7-4.9,5.1-10.6,6.3-16.4c2.3-11.7,4.4-23.5,6.7-35.3
	c2.4-12.5,4.2-25,5.6-37.6c0.3-2.5,0.3-4.9,0.5-7.4c0.6-9.5,1.3-18.9,1.9-28.4c0-0.5,0-0.9,0-1.4c-0.2,0-0.3-0.1-0.5-0.1
	c-0.4,1.6-0.8,3.3-1.1,4.9c-1.4,8.4-1.9,17-2.4,25.5c-0.5,8.3-1.1,16.6-2.3,24.8c-2,13.8-4.4,27.6-6.7,41.3
	c-0.1,0.6-0.3,1.2-0.5,1.9c-2.8,0-5.5,0-8.3,0c0-0.8,0-1.5,0-2.1c0.1-5.2,0.4-10.4,0.2-15.5c-0.3-11.2-0.8-22.5-1.3-33.7
	c-0.5-11.3,1-22.5,3.9-33.4c0.1-0.4,0.3-0.9,0.6-1.6c0.3,1.1,0.5,2,0.8,2.7c0.7,1.8,2.3,2.1,3.5,0.6c0.8-1,1.4-2.2,1.8-3.4
	c1-3.3,2.9-5.8,5.4-8c1.7-1.5,3-3.4,4.5-5.1c2-0.1,4.3,0,6.4-0.4c2.4-0.5,3.7-2.3,4.1-4.8c3,0,5.8,0,8.7,0c4.2,0,8.5,0.1,12.7,0.2
	c2.2,0,2.2,0,3,2.2c2.5,6.4,3.7,13.2,5,19.9c1.6,7.8,2,15.7,2.4,23.6c0.4,7.9,0.8,15.8,1.2,23.7c0.1,1.8,0.2,3.5,0.2,5.3
	c-0.1,10.3,1.1,20.5,2.6,30.7c1.6,10.8,3.8,21.4,6.3,31.9c0.5,1.9,0.8,3.9,1.2,5.9c1.1,4.5,3.8,7.5,8.4,8.5c2.7,0.6,5.5,1.1,8.2,1.6
	c0,1.9,0,3.8,0,5.7c-0.1,7.7-0.4,15.5-0.2,23.2c0.2,8.1,0.6,16.1,1.3,24.1c0.4,5.4,1.4,10.8,2.1,16.1c0.1,0.8,0.3,1.6,0.3,2.4
	c0.2,2.4-0.2,3.3-2.5,3.9c-2.3,0.7-4.7,1.2-7,1.4c-2.9,0.2-5.9,0.1-9.1,0.1c-0.4-3.3-0.8-6.6-1-9.9c-0.5-8.5-0.9-17.1-1.5-25.6
	c-0.8-11.2-1.9-22.4-2.8-33.6c-0.1-1.6-0.3-3.3-0.8-4.9c0,2.9-0.1,5.9,0,8.8c0.6,12.6,1.3,25.2,2,37.8c0.2,3.4,0.3,6.9,0.5,10.3
	c0.3,5.4,0.7,10.8,1.1,16.2c0.3,4.6-0.6,6.6-4.8,8.5c-1.9,0.9-4.1,1.4-6.2,1.7c-4.9,0.8-9.9,0.8-14.7-0.6c-0.8-0.2-1.7-0.5-2.5-0.9
	c-4.2-1.7-4.2-2-4.4-6.5c-0.2-5.5-0.7-11-1.1-16.5c-0.3-3.5-0.6-7-1.1-10.5c0,5.9,0,11.9,0,18c-2.3-1-4.3-0.6-6.5,0.4
	c-0.1-0.8-0.3-1.3-0.3-1.8c-0.2-6.1-0.4-12.1-0.7-18.2c-0.6-12.6-0.4-25.2,0-37.8c0.9-24.7,0.9-49.3,0.5-74
	c-0.1-8.6-0.8-17.2-1.3-25.8c-0.2-4.1-0.4-8.1-0.6-12.2c-0.3-6.7-0.5-13.4-0.8-20.1c0-1.2-0.2-2.4-0.3-3.6
	C277.9,387.8,277.8,387.9,277.7,387.9z"/>
<path class="st0" d="M207.1,305.4c-2.2-1.2-3.8-2.5-5.2-4.1c-2.4-2.8-4.5-5.8-5.9-9.2c-1.8-4.3-3.8-8.4-4.7-13
	c-1.8-9.8-0.5-19.1,4.4-27.8c3.5-6.3,8.1-11.8,13.7-16.4c5.9-4.8,11.2-10.2,15.8-16.3c6.4-8.4,10.7-17.7,13.2-27.9c0.2-1,0.5-2,1-3
	c0.1,0.6,0.2,1.1,0.2,1.7c-0.1,10.3-1.6,20.1-7,29.2c-3.2,5.4-5.9,11.1-8.8,16.7c-0.3,0.6-0.5,1.3-0.5,2.1c0.7-1.1,1.4-2.2,2.1-3.3
	c3.1-5.3,6.1-10.6,9.3-15.9c3.7-6.2,5.7-13,6.1-20.2c0.3-4.2,0.5-8.4,0.5-12.7c0-9.9,0.9-19.8,2.4-29.6c0.5-3,1.3-6.1,2.5-9
	c4.3-10.1,8.8-20,15.1-29c5.8-8.2,13-14.7,22.4-18.5c4.9-2,9.7-4.5,15-5.6c6-1.3,12.1-0.9,18,0.5c1.4,0.3,2.8,1.1,4.1,1.9
	c1.6,1.1,2.9,2.5,2.8,4.7c-0.1,1.1,0.5,1.7,1.6,1.5c3-0.4,4.9,1.3,6.8,3.2c5.4,5.6,8.7,12.2,10.3,19.7c1.8,8.7,2.6,17.5,1.5,26.4
	c-0.4,3.6-1.4,7.1-1.8,10.6c-0.6,5.3-1,10.6-1.4,16c-0.8,12.8-2.1,25.4-4.5,38c-2.1,11.2-6.8,21.3-13.4,30.4c-1.7,2.4-3.9,4.4-6,6.5
	c-4.1,4-8.3,7.9-12.3,12c-4,4-6.9,8.8-8.4,14.3c-0.4,1.3-0.5,2.6-0.9,4.4c-1-2.5-1.1-4.6-0.9-6.7c0.6-6.4,2.3-12.5,4.7-18.5
	c1.1-2.6,2.1-5.1,3-7.8c-1.2,0.9-1.6,2.4-2.2,3.6c-0.7,1.3-1.4,2.7-2.2,4.3c-0.3-0.5-0.5-0.8-0.6-1c-0.5-7.7-3.1-14.7-6.9-21.2
	c-5.6-9.6-4.4-19.1-0.2-28.7c0-0.1,0.1-0.1,0.1-0.2c1-3.2,2.9-4.9,6.5-5.4c4.7-0.6,8.5-3.6,11.7-7c2.6-2.8,5.1-5.8,7.5-8.7
	c3.7-4.4,6.2-9.5,8.8-14.5c0.8-1.4,1.3-3,2.9-3.9c0.4-0.2,0.8-0.8,1-1.3c2.8-5,4.8-10.3,5.1-16.1c0.4-9.5,0.2-19-1.8-28.4
	c-0.1-0.6-0.3-1.2-0.9-1.7c0.2,2,0.4,4,0.6,6.1c0.8,8.5,1.1,17,0.3,25.6c-0.4,4-1.6,7.8-3.7,11.6c-0.4-0.6-0.7-1-0.9-1.5
	c-1.4-3.2-3.5-5.9-6.8-7.5c-3.8-1.9-7.6-3.7-11.4-5.5c-1.9-0.9-3.7-1.8-5.6-2.8c-0.9-0.5-1.1-1.2-0.8-2.2c0.5-1.5,1.2-2.9,0.8-4.8
	c-2.5,0.6-3.1,3.1-4.9,4.1c-7.5-5-16-7.7-24.3-11c-1.8-0.7-3.4-0.5-5,0.6c-1,0.7-2,1.3-3.1,1.8c2.9-8.1,6.5-15.7,12.2-22.3
	c-0.2,0.1-0.5,0.2-0.7,0.4c-3.4,3.4-6.6,7-8.4,11.5c-0.6,1.6-1.2,3.1-1.9,4.6c-0.9,1.9-1.7,3.9-3,5.4c-5.9,6.9-9,15-10.4,23.8
	c-1.4,8.7-2.5,17.4-2.3,26.2c0.1,5,1.2,9.8,3.2,14.4c2.9,6.7,3.2,13.8,2.6,20.9c-0.4,4.2-3.2,9.8-6.2,12.8c0.3-0.7,0.5-1.3,0.8-2
	c2.4-4.9,3.2-10.2,3-15.6c-0.1-2.3-0.3-4.6-1.6-6.7c0.8,3.9,0.9,7.7,0.3,11.7c-0.6,4-1.8,7.7-3.7,11.5c-1.8-1.1-3-2.7-3.7-4.6
	c-0.2-0.5,0-1.3,0.3-1.8c2.9-5.9,4.6-12.2,5.9-18.6c0.3-1.6,0-3.3-0.4-5c-0.3,1.2-0.6,2.4-0.9,3.6c-3,14.3-9.6,26.8-19.2,37.7
	c-2.4,2.7-4.5,5.6-6.2,8.8c-4.7,8.9-9.2,17.9-13.7,26.9c-2.3,4.7-4.1,9.7-5,14.9c-0.6,3.3-0.9,6.6-0.3,10
	C207,304,207,304.5,207.1,305.4z"/>
<path class="st0" d="M226,375.7c1.8-3.2,3.5-6.4,5.2-9.6c1.4-2.5,2.7-5.1,3.9-7.7c0.4-0.8,0.9-1.2,1.9-1.1c3.3,0.2,6.5,0.3,10.1,0.5
	c-0.3,0.7-0.4,1.4-0.7,2c-6,11.5-9.3,23.9-11.8,36.5c-1.1,5.4-2.5,10.7-3.5,16.1c-2.1,12-3.9,24.1-5.8,36.2c-0.5,3.4-0.7,6.8-1,10.2
	c-0.1,0.9-0.2,1.7-0.3,2.9c-3.2-0.3-6.3-0.5-9.3-1.7c3.2-5.9,1.7-11.8,0.8-17.7c-0.2-1.1-0.5-2.2-0.9-3.2c-1.2-3.8-1.3-7.5-0.9-11.5
	c0.7-6.2,0.1-12.4-1.3-18.5c-0.7-3.1-1-6-0.3-9.2c0.6-2.6,0.6-5.2,0.8-7.8c0.5-6,0.9-12.1,1.3-18.1c0.1-0.8,0.2-1.7,0-2.5
	c-1,1.6-1.5,3.5-1.7,5.3c-0.4,3.6-0.8,7.3-1,11c-0.3,7.2-1.6,14.3-3.1,21.3c-0.1,0.5-0.2,1.1,0.1,1.7c0.5-0.9,1-1.8,1.6-2.8
	c2,5.2,2.5,18,0.9,20.8c-11.2-0.9-22.2-1-32.2,5.8c-1.1-3.3-0.7-6.8-0.6-10.6c0.9,0.6,1.5,1.1,2.5,1.8c-1.5-4.2-2.8-8.2-4.2-12.1
	c-1.4-3.9-2-8-2.2-12.6c1.5,2.2,2.8,4.1,4.1,6c0.1-0.1,0.3-0.1,0.4-0.2c-1.1-2.5-2.2-4.9-3.3-7.4c-1.1-2.5-2-5-2-8
	c0.5-0.1,1.1-0.3,1.6-0.3c5-0.6,9.3-2.9,13.5-5.3c5.6-3.2,10.7-6.9,15.3-11.4c2.4-2.3,4.1-5,5.1-8.2c0.5-1.4,1.3-2.7,2.2-3.9
	c2.8-3.7,5.4-7.5,6.6-12.1c0-0.1,0.2-0.2,0.5-0.3c0.5,7.8-2.3,15-3.4,22.5c1.5-1.1,1.8-2.8,2.5-4.3c0.8-1.7,1.4-3.4,2.2-5.1
	c0.7-1.6,1.5-3.2,2.3-4.8c0.8-1.5,1.5-3.1,2.4-4.9c2.9,3.1,6.5,3.3,10.3,4.1c-3.9,5.8-6.4,12.1-9.1,18.2
	C225.7,375.5,225.8,375.6,226,375.7z"/>
<path class="st0" d="M392.6,400.7c0.2-0.3,0.5-0.6,0.7-0.9c0.1-0.3,0.2-0.6,0.3-0.9c0.1,0.1,0.3,0.3,0.4,0.4
	c-0.8,6.8-1.5,13.6-2.3,20.4c-10.4-2.1-20.3-1.1-30,3c-0.7-0.5-0.3-1.5-0.4-2.3c-0.3-4.9-0.4-9.9-0.9-14.8c-0.7-5.7-1.8-11.3-2.8-17
	c-1.1-5.6-2.2-11.1-3.5-16.6c-1-4.6-2.6-9-4.9-13.2c-0.2-0.4-0.3-0.9-0.4-1c6-4.7,11.9-9.2,17.6-13.9c2.3-1.9,4.3-4.2,6.3-6.5
	c1.9-2.3,3.5-4.8,5.2-7.1c3.7-5,5.9-10.5,7.2-16.5c0.3-1.4,0.7-2.8,1-4.3c0.3,0.3,0.6,0.4,0.6,0.6c3.2,6.9,6.7,13.7,8.2,21.1
	c1.1,5.4,1.7,10.9,2.1,16.4c0.6,8.2,0.7,16.4,1.1,24.6c0.5,9.4-1.7,18.2-5.2,26.8c-0.2,0.6-0.4,1.2-0.6,1.7
	C392.4,400.6,392.5,400.7,392.6,400.7z"/>
<path class="st0" d="M299.3,712.7c-1.1-0.1-2-0.2-3-0.3c-0.2-0.6-0.5-1.3-0.7-1.9c-0.8-2.1-2-2.8-4.3-2.5c-3.2,0.5-6.2,1.6-9.2,3.5
	c0.8-2.8,1.4-5.4,2.4-7.8c2.8-6.6,5-13.4,6.6-20.5c2.1-9.3,2.5-18.8,2.2-28.3c-0.4-10.9-0.8-21.8-0.9-32.8
	c-0.1-6.2,0.4-12.4,0.6-18.7c0.1-1.7,0-3.3,0-5.3c1,0.3,1.7,0.5,2.4,0.7c6.9,2,13.9,2.2,20.8,0.4c1.9-0.5,3.8-1.6,5.5-2.7
	c1.9-1.2,3.3-3,3.6-5.4c1.8-1,3.7-0.7,5.8-0.6c0.1,0.6,0.3,1.2,0.3,1.8c-0.5,11.9-0.9,23.8-2.7,35.5c-2.4,15.9-6.4,31.4-11.3,46.7
	c-2.5,7.6-4.6,15.3-6.7,22.9c-0.8,3.1-1.1,6.3-1.7,9.4c-0.3,1.5-0.9,2.9-1.4,4.6c-0.7-0.7-1.1-1.1-1.6-1.5c-0.9-0.6-1.8-1.3-2.9-1.6
	c-2-0.6-2.9,0.1-3.3,2.2C299.7,711.1,299.5,711.8,299.3,712.7z"/>
<path class="st0" d="M302,143c-0.3,4-0.3,3.1,2.7,5.1c1.2,0.8,2.5,1.4,3.8,2c4.3,1.7,8.4,3.9,12.3,6.5c2.6,1.7,4.6,4,5.2,7.1
	c0.2,1,0,2.2-0.4,3.2c-4.4,10.3-10.8,19.3-18.6,27.4c-4.9,5.1-10.7,7.6-17.8,7.1c-2.5-0.2-5.1-0.2-7.7-0.3c-5.2-0.1-9.8-2-13.9-5.2
	c-5.1-4-9-8.9-11.7-14.6c-1.6-3.3-2.6-6.9-2-10.9c0.9-6,1.4-12,3.1-17.9c1.1-3.7,2.3-7.3,4.2-10.6c0.8-1.4,1.4-2.9,3.4-3.3
	c1.1-0.2,1.9-1.4,2.9-2.1c4-2.6,4.2-2.7,8.6-0.9c5.8,2.3,11.5,4.7,17.2,7.2c1.2,0.5,2.3,1.4,3.3,2.2c1.4,1.1,1.9,1.2,3.3,0
	c0.4-0.3,0.7-0.7,1-1C301.3,143.6,301.6,143.3,302,143z M315,165.6c0.3-2.1-1.4-4.9-3.4-6.3c-2.9-1.9-7-2.1-9.5-0.4
	c3.2,0.5,6.6-0.4,9.2,1.9c-1,2.6-2.6,3-4.3,1.1c-0.5-0.6-1-1.2-1.7-2c0.1,2.5,0.8,3.2,3.2,4.2c2,0.8,2.9-0.6,4-1.9
	C313.3,163.4,314.1,164.4,315,165.6z M284.7,147.9c-0.7-4.1-7.1-7.1-10.6-4.6c1,0.1,2,0.1,3,0.2c-0.2,1-0.4,1.8-0.4,2.6
	c-0.1,1,0.3,1.8,1.2,2.2c1.5,0.7,3.1,1.2,4.8,0.2C283.3,148.1,284,148.1,284.7,147.9z M276.4,179.6c-1.8-1.3-3.7-2.1-5.4-2.1
	C271.7,179,271.7,179,276.4,179.6z M287.1,170.4c1.1,0.6,1.8,0.9,2.9,1.5C289.1,170.1,289.1,170.1,287.1,170.4z M286,185.6
	c1.2,1.8,1.2,1.8,2.2,0.9C287.4,186.1,286.7,185.9,286,185.6z"/>
<path class="st0" d="M235.7,582.6c2.8,1.2,5.3,2.2,7.9,3.3c1,0.4,1.8,1,2.8,1.3c0.7,0.3,1.5,0.5,2.3,0.5c1.8,0,2,0.1,1.9,2
	c-0.1,1.9-0.3,3.8-0.4,5.7c-0.1,1.2,0,2.3,0,3.6c3.6,1.6,12,2.1,22.3-3.1c0,0.7,0,1.4,0,2.1c-0.9,15.9-1.8,31.9-2.6,47.8
	c-0.5,10.4-0.2,20.8,1.2,31c0.8,5.8,2.2,11.4,3.4,17.1c0.6,2.8,1.2,5.6,1.7,8.4c0.1,0.8,0.1,1.6,0.2,2.3c-5.5-0.3-9.6,0.5-10.8,7.4
	c-1.7,0-3.4,0-5.4,0c-2.3-1.8-2.3-1.8-5.9-2.1c0.9-13.9-2.6-27.2-6.4-40.3c-2.2-7.6-4.9-15-6.3-22.8c-1.3-7.5-2.9-15-4.1-22.6
	c-1.7-10.7-2-21.6-1.9-32.5c0-2.3,0-4.6,0-6.9C235.6,584.2,235.6,583.6,235.7,582.6z"/>
<path class="st0" d="M254.1,255.8c6.3,3.6,13,6.1,20.3,6.4c7.1,0.3,14.2,0.1,21.1-1.9c0.8,1.2,0.3,2.2,0.1,3.2
	c-0.9,3.6-1.9,7.2-2.6,10.9c-1,5,0,9.7,2.2,14.2c0.6,1.1,0.9,2.4,1.3,3.6c1.2,3.6,2.3,7.1,3.5,10.7c0.3,1.1,0.8,2.1,0.9,3.2
	c1.1,9.4,1.7,18.9,1.4,28.4c-0.2,5.1-0.3,10.2,1.5,15.4c-1.6,0.1-3,0.3-4.4,0.3c-7.6,0.1-15.2,0.1-22.7,0.2c-1.6,0-2.7-0.9-3.8-1.8
	c-0.4-0.3-0.4-1.3-0.4-2c-0.1-5.3-0.2-10.7-0.3-16c-0.2-15.8-3.2-31.1-8-46c-2.7-8.5-5.9-16.9-8.9-25.3c-0.4-1.1-0.9-2.1-1.4-3.2
	C253.9,256,254,255.9,254.1,255.8z"/>
<path class="st0" d="M250,494.1c0,1.4,0,2.8,0,4.3c0.1,8.8,0.3,17.6,0.5,26.3c0.1,4,0.4,8,0.4,12c0,8.7-0.2,17.4-0.2,26.1
	c0,5.9,0.1,11.8,0.1,17.7c0,1.8,0,3.6,0,5.7c-1-0.4-2-0.6-2.8-1c-4.3-1.8-8.5-3.6-12.8-5.4c-2.5-1-4.8-2.1-6.8-3.9
	c-1.6-1.4-2.3-3.1-2.1-5.3c0.5-5.1,1.2-10.2,1.3-15.3c0.2-7.2,0.1-14.4-0.1-21.5c-0.2-5.6-0.6-11.1-1-16.7c0-0.4-0.2-0.9-0.6-1.4
	c-0.1,0.5-0.2,1-0.2,1.5c0,9.9,0,19.8,0.1,29.7c0.1,7.1-0.9,14.2-1.8,21.2c0,0.2-0.2,0.4-0.3,0.9c-4.6-1.2-9.2-2.4-14-3.7
	c0.3-1.2,0.5-2.1,0.7-3c1.6-7,3.4-14,4.8-21c0.8-4,1.1-8.1,1.5-12.1c0.6-5.6,1-11.3,1.5-16.9c0-0.6,0.1-1.1,0.1-1.7
	c-0.2-2,0-3.6,1.8-5.1c1.3-1,1.2-2.9,0-4.3c-0.8-0.9-1.7-1.6-2.4-2.8c0.6,0.3,1.3,0.7,1.9,1c1.3,0.6,2.6,1.4,3.9,1.6
	c4.9,0.7,9.8,0.9,14.8,0.3c3.2-0.4,5.9-1.8,8.1-4.2c1-1.1,2-2.2,3-3.3C249.6,493.9,249.8,494,250,494.1z"/>
<path class="st0" d="M339.7,309c-0.2-0.3-0.5-0.6-0.6-0.9c-5.4-10-9.9-20.3-12.1-31.6c-1.7-8.6-1.5-17.1-0.1-25.7
	c1.1-7.3,3.8-14,6.9-20.6c2.2-4.6,3.4-9.6,4.4-14.6c0.1-0.5,0.2-1.1,0.4-1.8c0.6,0.2,1.1,0.3,1.6,0.5c6.3,3.2,11.2,7.9,14.7,14
	c2.1,3.6,3.7,7.6,5.5,11.4c4.3,8.9,6.8,18.4,9.1,27.9c0.2,1,0.2,1.9-0.3,2.9c-1.7,4.4-4.3,8.2-6.7,12.1c-3.1,4.8-6.3,9.6-9.4,14.5
	c-0.6,1-1.2,2-1.9,3.4c-0.1-0.7-0.2-0.9-0.2-1.2c-0.3-7.5-0.4-15-0.8-22.5c-0.2-3.2-0.7-6.3-1.2-9.5c-0.2-1.3,0.2-2.3,0.8-3.3
	c1.5-2.3,3.1-4.5,4.2-7c2.1-4.7,3.9-9.4,5.8-14.2c0.2-0.4,0.3-0.9,0-1.5c-3.6,7.4-7.1,14.9-10.7,22.3c-0.2,0-0.4,0-0.6-0.1
	c-0.7-3.1-1.3-6.2-2-9.4c-0.1,0-0.3,0.1-0.4,0.1c0.3,2.7,0.6,5.5,1,8.2c2.2,15.1,2.4,30.4,2.3,45.6c0,3.7-0.7,7.4-1.1,11.4
	c-0.6-0.3-1.1-0.4-1.4-0.7c-1.6-1.9-3.3-3.9-4.8-5.9c-0.4-0.6-0.5-1.5-0.5-2.2c-0.1-6.1,0.1-12.3-0.1-18.4
	c-0.2-6.9-0.6-13.7-1.3-20.5c-0.6-6.3-1.5-12.5-2.6-18.7c-1.1-5.9-1.9-11.8-2-17.8c0-1.1-0.2-2.2-0.4-3.3c-0.5,4.7-0.5,9.5,0.1,14.1
	c1,7.6,2.2,15.2,3.2,22.7c0.2,1.7,0.4,3.3,0.5,5c0.5,10.8,1,21.5,1.4,32.3c0,0.9,0,1.9,0,2.8C340,308.9,339.9,309,339.7,309z"/>
<path class="st0" d="M279.7,711.6c-1.1-8.3-2.6-16.5-4.4-24.7c-1.8-7.9-2.7-15.9-2.8-24c-0.1-10.4-0.2-20.7,0-31.1
	c0.1-6.9,0.7-13.7,1-20.6c0.2-4.9,0.3-9.9,0.3-14.8c0-1.3,0.5-2,1.4-2.8c2-1.6,3.9-3.3,5.6-5.1c1.4-1.5,2.3-3.3,0.8-5.4
	c2.3-1.9,4.3-0.8,6.5,0.2c0,2.4,0.2,4.9,0,7.3c-0.3,3.1,0.6,5.3,3.5,6.6c0.2,0.1,0.3,0.3,0.7,0.6c-0.2,1.4-0.4,2.9-0.6,4.4
	c-2,15.3-1.3,30.6-0.8,45.9c0.3,7.4,0.3,14.8,0,22.2c-0.5,9.2-3,18.1-6.1,26.7c-1.5,4.2-2.7,8.5-4.1,12.7
	C280.5,710.5,280,711,279.7,711.6L279.7,711.6z"/>
<path class="st0" d="M370.1,270.8c1,2.9,1.9,5.7,2.9,8.6c1.8,5.5,4.1,10.7,6.8,15.8c1.8,3.5,3.4,7.1,4.9,10.6
	c0.3,0.8,0.4,1.9,0.2,2.7c-0.7,2.9-1.6,5.7-2.5,8.5c-1.1,3.4-2.5,6.5-4.6,9.4c-2.9,4-5.7,8-8.8,11.9c-1.3,1.7-2.9,3.1-4.6,4.5
	c-5.3,4.4-10.6,8.7-16,13c-0.1,0.1-0.3,0.1-0.5,0.1c-0.7-1-1.3-1.8-0.8-3.3c0.9-3.1,0.3-4.5-1.7-7.1c0.8-3.4,1.8-6.7,2.4-10.1
	c0.6-3.4,0.9-6.8,1.3-10.3c1.3-0.1,2.6-0.2,3.7-0.4c0.4-1.3-0.4-1.6-1.2-1.9c-1.7-0.6-2.2-1.8-2-3.5c0.4-5.1,0.7-10.2,0.9-15.3
	c0.1-1.4,0.5-2.4,1.6-3.3c0.8-0.6,1.5-1.4,2.1-2.3c4.1-6.5,8.2-12.9,12.1-19.5C367.7,276.5,368.7,273.7,370.1,270.8z"/>
<path class="st0" d="M333.4,469.8c-4.9-0.2-9.5-1.2-14.3-1.9c-0.6-3.6-1-7.2-1.6-10.7c-1.1-6.5-1.4-13.1-1.6-19.8
	c-0.4-10.8-0.9-21.5-1.5-32.3c-0.4-6.6-0.7-13.2-1.6-19.8c-1.2-9-2.9-17.9-6.9-26.3c-0.1-0.1,0-0.3,0-0.5c1.4-0.5,9.7-0.7,12.4-0.4
	c1,4.3,1.9,8.5,3,12.8c3.3,13.1,6.5,26.1,9.9,39.2c3.2,12.5,4.4,25.3,3.9,38.2c-0.3,6.5-0.8,12.9-1.2,19.3
	C333.7,468.3,333.6,469,333.4,469.8z"/>
<path class="st0" d="M257.4,350.6c-3.2-0.3-6-0.6-8.7-0.9c-0.1-0.1-0.3-0.2-0.3-0.3c-2.1-7.3-6-13.8-10.4-19.8
	c-9.2-12.5-13.4-26.7-14.4-42c-0.5-7.2-0.2-14.4-0.5-21.5c-0.1-3.2,0.7-5.9,2.2-8.6c2.1-4,4.2-8.1,7.2-11.6c0.4-0.5,0.9-1,1.7-1.8
	c0.1,0.9,0.3,1.4,0.2,1.9c-0.1,13.6,2.9,26.6,7.9,39.2c4.2,10.6,8.1,21.3,10.8,32.4c2,8,4,16,4.4,24.2
	C257.5,344.7,257.4,347.6,257.4,350.6z"/>
<path class="st0" d="M346.9,322.5c-4.5-0.2-9-0.3-13.4-1.7c-6.5-2-13-4.4-19.3-7.1c-7.2-3.1-12-8.3-14.3-15.8
	c-1.2-4-2.1-8.2-2.9-12.3c-0.6-3.1,0.2-6.2,1.5-9.1c1.6-3.9,3.9-7.3,6.8-10.3c3.6-3.7,7.3-7.3,11.1-10.9c3.1-2.9,6.2-5.8,8.6-9.3
	c0.2-0.3,0.3-0.6,0.5-0.8c0.1,0.1,0.3,0.2,0.4,0.3c-0.4,1.9-0.9,3.8-1.3,5.7c-2.4,12.4-0.9,24.4,2.8,36.4c3.1,9.9,7.7,19,13.1,27.9
	c0.9,1.5,2.4,2.7,3.7,4c0.9,0.9,1.8,1.8,2.8,2.6C347,322.2,346.9,322.4,346.9,322.5z"/>
<path class="st0" d="M248,357.5c2.8,0,5.4,0,8,0c0.5,0,0.9,0.1,1.5,0.2c0,0.5,0,0.9-0.1,1.2c-1.1,3.6-2.1,7.2-3.3,10.7
	c-3.2,9.5-5.3,19.2-6.1,29.2c-0.8,9,0.1,18,0.3,27c0.2,6.8,0.7,13.5,0.9,20.3c0.1,4.6-0.1,9.2-0.2,13.9c0,0.9-0.2,1.7-0.4,2.9
	c-7.6,0-15.1-0.5-22.8-1.1c0-1,0-1.9,0-2.7c0.5-9.7,2.1-19.2,3.6-28.7c3.1-19.6,7.7-38.8,13.3-57.7c1.2-4,2.8-8,4.3-11.9
	C247.3,359.8,247.6,358.9,248,357.5z"/>
<path class="st0" d="M279.6,711.6c0,3.6-0.1,7.2,0,10.8c0.2,7,0.7,14,0.8,21c0.1,6.6-2,12.5-8,16.2c-1.4,0.9-3.1,1.5-4.7,1.7
	c-6.4,0.8-12.8,1.4-19.3,2c-3.4,0.3-7.3-2.7-8.2-6c-0.9-3.8-0.5-7.5,1.1-11c1-2.1,2-4.2,3.2-6.2c3.6-6,5.6-12.5,6.2-19.4
	c0.2-2.3,0.9-4.5,1.5-6.8c0.3-1,0.7-2,2-1.9c1.4,0.1,3,0,3.6,1.7c0.4,1,0.7,2.1,0.9,3.2c1.2,5.1,2.5,10.2,3.7,15.3
	c0.1,0.2,0.2,0.4,0.6,0.5c-0.4-6.3-1-12.5-2.4-18.8c1.6-0.1,2.9-0.2,4.1-0.3c0,5.2,0,10.3,0,15.4c0.1,0,0.2,0,0.3,0
	c0.3-3.1,0.6-6.2,1-9.3c0.4-3,0.7-6,1.2-9c0.4-2.4,2.2-3.8,4.6-4.1c2.4-0.2,4.2,0.3,5.2,2.8C277.5,710.6,278.5,711.3,279.6,711.6
	C279.7,711.6,279.6,711.6,279.6,711.6z"/>
<path class="st0" d="M226.2,213.9c-0.9,1.3-1.8,2.6-2.8,3.8c-4.2,5.4-8.9,10.3-14.1,14.6c-5.6,4.6-10.4,9.9-14.2,16
	c-7.1,11.5-8.1,23.6-3.8,36.3c1.6,4.7,3.5,9.4,6.3,13.7c0.5,0.7,0.6,1.4,0.2,2.2c-0.6,1.1-0.9,2.4-1.7,3.4
	c-5.1,7.2-11.2,13.3-19.5,16.7c-1,0.4-1.9,0.7-2.9,1.1c-1.6,0.6-3-0.1-4.1-1.1c-0.4-0.4-0.6-1.2-0.7-1.9c-0.1-5.4-0.3-10.8-0.2-16.3
	c0.2-9.5,1.1-18.9,3.5-28.2c1.3-4.7,3.1-9.2,5.6-13.4c5.7-9.6,12.2-18.7,19.8-26.9c5-5.3,10.6-9.9,17-13.4c3.8-2.1,7.5-4.5,11.3-6.8
	C226,213.8,226.1,213.8,226.2,213.9z"/>
<path class="st0" d="M240.3,236.2c0.8,2.4,1.3,4.4,2.2,6.2c1.7,3.8,3.4,7.6,6.9,10.1c1.6,1.1,2.5,2.5,3.2,4.3
	c4.8,13.1,9.3,26.3,12.8,39.9c3.5,13.7,4.8,27.6,4.9,41.7c0,2.7,0.1,5.4,0.1,8.1c0,0.2-0.1,0.5-0.2,0.9c-1.9-0.3-3.8-0.8-5.6,0.6
	c-1.5,1.2-3.3,2-5.2,3c-0.7-0.4-0.3-1.4-0.3-2.2c0.2-5.4-0.1-10.7-1-16c-2.7-15.4-6.7-30.5-12.6-45.1c-2.6-6.6-4.8-13.4-6.9-20.1
	c-1.9-6-2-12.3-3-18.4c-0.7-4.2-0.3-7.8,3-10.8C239,238.1,239.4,237.3,240.3,236.2z"/>
<path class="st0" d="M173.6,390.2c-0.6-13.7-1.2-27.3-1.8-41c1.3,0.4,2.7,0.9,4,1.2c4.2,0.9,8.3-0.2,12.1-1.8
	c8.8-3.6,15.2-9.8,19.5-18.2c0.9-1.8,1.7-3.6,2.7-5.7c0.4,0.7,0.6,1.1,0.8,1.6c1.4,4,3.2,7.8,5.6,11.3c2,2.9,2.1,5.9,1.1,9.1
	c-1.7,5.6-4.5,10.7-7.5,15.7c-1.1,1.9-2.1,3.9-3.3,5.8c-1.8,2.8-4.1,5.3-6.7,7.5c-6.2,5.2-12.9,9.6-20.3,12.9
	C177.9,389.4,175.9,390.4,173.6,390.2z"/>
<path class="st0" d="M319.3,358.1c4.6-0.5,8.9-1,13.4-1.5c0.2,0.4,0.5,0.8,0.7,1.2c4.6,12.7,8,25.7,11,38.9
	c1.3,5.7,1.8,11.5,2.8,17.2c1.4,8.8,1.9,17.8,2.2,26.7c0.1,1.8,0,3.7-0.1,5.5c-0.1,7-0.3,14-0.4,21c0,1.2,0,2.4,0,3.8
	c-4.6-0.3-8.9-0.6-13.3-1c0.2-1.5,0.4-2.7,0.5-4c0.9-9.4,1.2-18.8,1-28.2c-0.2-11.6-2.4-22.8-5.4-33.9c-2.8-10.3-5.3-20.7-8-31
	c-1.1-4.2-2.4-8.3-3.6-12.4C319.8,359.8,319.6,359.1,319.3,358.1z"/>
<path class="st0" d="M299,736.1c-0.8-7.6-1.6-14.7-2.3-21.9c0.8-0.1,1.5-0.1,2.5-0.2c0,4.4,0,8.6,0,12.8c0.2,0,0.3,0,0.5,0
	c0.8-5.7,1.2-11.4,1-17.1c1.5-0.5,2.4,0.2,3.2,1c3,3.2,5.5,6.4,5.7,11.2c0.2,5.5,2.3,13.3,4.5,17.5c-0.1-1.4-0.2-2.9-0.3-4.9
	c2.2,3.2,3.6,6.3,4.1,9.5c0.5,2.7,0.7,5.4,0.8,8.1c0.1,3.8-1.1,5.6-4.8,6.8c-1.6,0.5-3.3,0.9-4.9,0.8c-6.5-0.2-12.9-0.4-19.3-1.7
	c-2.4-0.5-4.7-1.5-7.1-2.2c-1.1-0.3-1.5-1.1-1.3-2.2c1.8-10.8,0.3-21.6-0.1-32.5c-0.1-1.8-0.1-3.7-0.2-5.5c-0.1-0.9,0.3-1.5,1.1-1.9
	c2.7-1.7,5.7-2.9,8.8-3.6c2-0.4,2.6-0.1,3,2c0.7,3.4,1,6.8,1.6,10.2c0.8,4.4,1.8,8.7,2.8,13.1C298.3,735.5,298.4,735.6,299,736.1z"
	/>
<path class="st0" d="M253.8,179.5c0.4,0.8,0.8,1.7,1.2,2.5c3.1,6.7,7.8,12,13.6,16.4c3.4,2.6,7.6,3.6,11.9,3.9
	c2.8,0.2,5.6,0.2,8.4,0.4c0.5,0,1.1,0.1,2,0.2c-4,5.9-6.2,12.2-6.7,19.1c-0.5,7.2,3,13,6.3,19.1c-1.3,1.2-2.6,1.7-4.1,1.9
	c-4.7,0.8-9.2,0-13.8-0.9c-7-1.4-13.4-4.6-19.9-7.7c0.2-0.4,0.2-0.7,0.4-0.9c5.8-7.7,7-16.4,5.7-25.7c-0.6-3.9-1.8-7.6-3.1-11.3
	C253.7,191.1,252.9,185.5,253.8,179.5z"/>
<path class="st0" d="M222.3,264.6c-0.1,0.9-0.1,1.9-0.2,2.8c-1.5,13.5-0.5,26.9,3,40.1c1.8,7.1,4.9,13.6,9,19.7
	c3.6,5.3,6.9,10.9,10.2,16.5c1,1.8,1.9,3.7,2,6.1c-2-0.1-3.9-0.1-5.8-0.4c-0.5-0.1-1-0.7-1.5-1.1c-2.8-2.3-5.6-4.7-8.6-6.9
	c2.1,2.8,4.7,5.1,7.3,7.7c-5.3,1.1-9.5-0.4-12.9-4.1c-5.3-6-9.7-12.6-12.2-20.4c-1.3-4.1-2.6-8.2-3.6-12.4c-0.5-2.3-0.3-4.7-0.5-7.1
	c-0.7-9.4,1.8-18.2,5.9-26.5c2.1-4.2,4.2-8.4,6.3-12.6c0.3-0.5,0.6-1,1-1.6C222,264.5,222.1,264.6,222.3,264.6z"/>
<path class="st0" d="M198.8,300.5c2.1,1.8,4.1,3.4,6,5.2c0.5,0.5,0.9,1.1,1.1,1.8c1.1,4,2.2,8,3.2,12c0.2,0.7,0.3,1.5,0.1,2.1
	c-3,8.8-7.5,16.6-15.3,21.9c-4.3,2.9-8.9,5-14.1,5.7c-2.8,0.4-5.4,0.1-8.3-1c-0.8-8.3-1.7-16.8-2.6-25.7c3.6,1.9,6.4,0.4,9.3-0.9
	c7.8-3.4,13.5-9.2,18.1-16.2C197.3,303.9,197.9,302.2,198.8,300.5z"/>
<path class="st0" d="M357.7,454.2c1.1-3.5,2.1-6.7,3.1-9.9c1.1-3.3,1.4-6.7,1-10.2c-0.3-2.5-0.2-4.9-0.4-7.4c-0.1-1.7,0.6-2.6,2.1-3
	c2.7-0.7,5.4-1.5,8.1-1.9c3.1-0.4,6.2-0.5,9.3-0.6c3.6-0.1,7.3-0.2,10.7,1.8c0.1,0.1,0.3,0,0.5,0.1c3,0.7,3.2,0.9,3,4
	c0,0.6-0.1,1.1-0.3,1.6c-1.9,5.2-2.1,10.6-2.4,16c-0.2,3.6-0.1,7.2-0.1,10.8c0,2.1-1,3-3.1,2.9c-0.6-0.1-1.1-0.2-1.6-0.3
	c-6.3-1.9-12.8-2.4-19.4-2.8c-2.6-0.1-5.1-0.3-7.6-0.5C359.6,454.7,358.8,454.4,357.7,454.2z"/>
<path class="st0" d="M350.6,467.2c0-3.1-0.2-6.2,0-9.3c0.8-9.1,0.9-18.2,0.3-27.3c-0.8-11.4-1.9-22.8-4.4-33.9
	c-2.7-12.4-5.7-24.7-10.9-36.4c-0.5-1.2-1.1-2.4-1.8-3.9c4.1-0.9,7.9-1.8,11.7-2.6c0.6,1.8,1.1,3.5,1.8,5.2
	c3.1,7.3,5.3,14.8,6.4,22.7c0.7,5.3,2.2,10.5,3.1,15.7c1.3,7.2,1.6,14.6,1.9,21.9c0.2,5.7,0.6,11.3,0.8,17c0.1,1.9-0.1,3.9-0.6,5.7
	c-1.5,5.2-3.1,10.4-4.8,15.6c-0.8,2.6-1.7,5.2-2.6,7.7c-0.2,0.6-0.5,1.3-0.7,1.9C350.7,467.2,350.7,467.2,350.6,467.2z"/>
<path class="st0" d="M214.5,507.1c-0.3,1.1-1.1,1.1-1.9,0.8c-1.4-0.6-2.8-1.2-4.1-2c-5.1-3.1-9.6-6.8-12.2-12.4
	c-1.4-3-3-5.8-4.4-8.7c-1.5-3-2.4-6.1-2.5-9.4c-0.1-3.7,0-7.5,0-11.3c5-2.4,9.8-5.3,15.6-5.6c0.3,0,0.6-0.1,0.9-0.1
	c5.9-0.6,8.3,1.2,9.6,7c0.5,2.3,1.1,4.6,1.7,7c0.1,0.4,0.3,0.8,0.2,1.2c-1.1,3.2,0.3,6.1,0.9,9.1c0.7,3.3,1.7,6.5,2.4,9.7
	c0.3,1.4,0,3,0,4.5c-1.8,0.4-3.1,0-4.1-1.2c-1.5-1.8-3-3.5-4.1-5.5c-1.4-2.6-2.3-5.4-3.6-8.1c-1-2.1-1.9-4.2-3.1-6.2
	c-0.5-0.9-1.3-1.6-2.1-2.3c1.2,3.1,0.1,6.3,0.2,9.3c0.1,2.5,0.4,4.9,0.6,7.4c0.2,2.2,0.4,4.4,0.5,6.7c0.1,1.4,0.4,2.5,1.5,3.4
	c1.5,1.3,3.1,2.5,4.5,3.9C212.4,505,213.5,506.1,214.5,507.1L214.5,507.1z"/>
<path class="st0" d="M213.9,457.1c-2.1-0.3-4-0.8-5.9-0.8c-4.8-0.1-9.3,1-13.6,3.2c-1.8,0.9-3.6,1.7-5.5,2.4
	c-1.6,0.6-1.9,0.3-2.4-1.3c-0.5-1.5-0.7-3.1-1.2-4.6c-1-3.6-2-7.2-3.1-10.8c-0.8-2.4-1.7-4.8-2.5-7.2c-0.6-1.7-0.5-2,1-2.9
	c1.4-0.9,2.9-1.6,4.5-2.1c7.2-2.4,14.7-2.8,22.2-2.4c1.2,0.1,2.3,0.4,3.6,0.7c0.9,7.4,4.1,14.2,3.5,21.7c-0.1,1-0.1,2.1-0.3,3.1
	C214.3,456.2,214,456.6,213.9,457.1z"/>
<path class="st0" d="M291.4,243.6c2.1,4.6,3.8,9.2,3.9,14.6c-2,0.5-4,1.1-6,1.3c-7.5,0.9-15,1.3-22.3-0.6
	c-5.7-1.5-10.9-4.1-15.7-7.5c-3.3-2.4-5.3-5.6-6.8-9.5c2.4-2.2,4.7-4.3,7-6.4c9.4,6.2,19.5,10.2,30.9,10
	C286,245.5,288.3,245,291.4,243.6z"/>
<path class="st0" d="M360.1,484.4c-1.5-1.1-2-2.6-1.9-4.3c0.1-1.7,0.3-3.3,0.7-5c0.5-2.4,1.2-4.8,1.9-7.2c1-3.6,1.5-7.2,1-11.1
	c8.7,0.8,17.2,1.5,25.6,3.7c0.4,7.9-1.3,15.2-4.5,22.2c0.5-2.1,1-4.1,1.5-6.2c-0.2-0.1-0.3-0.1-0.5-0.2c-0.5,1.1-1.4,2.1-1.6,3.3
	c-0.9,5.6-4.3,9.9-7.5,14.2c-1.8,2.4-4,4.3-6.8,5.8c-0.1-1.7,0.6-2.9,1.2-4.1c1.4-2.9,2.8-5.7,4.2-8.6c1-2.1,1.3-4.3,0.9-6.7
	c-0.5-2.7-0.6-5.5-1.1-8.3c-0.3-1.5-1.2-2.8-1.5-4.2c-0.3-1.4-0.2-2.9-0.3-4.4c-0.2-0.1-0.3-0.1-0.5-0.2c-0.4,1-1,1.9-1.3,2.9
	c-0.8,3.4-2.4,6.4-4.1,9.4c-1.1,1.9-1.9,4-2.8,6.1C362,482.6,361.7,483.9,360.1,484.4z"/>
<path class="st0" d="M317,349c1.8-10.1,5.1-19.6,6-29.6c1.4-0.3,2.5,0.4,3.6,1c3.3,1.7,6.7,2.9,10.4,3.5c2.3,0.4,4.6,0.6,6.9,0.8
	c0.9,0.1,1.9,0.2,2.8,0.3c0.4,4.9-1.7,15.9-3.8,20c-2.9,0.2-5.9,0.5-9.2,0.7c1-7,4.1-13.3,4.4-20.3c-2.6,6.7-5.3,13.3-6.8,20.7
	C326.6,347.1,321.9,348,317,349z"/>
<path class="st0" d="M303.1,308.1c5,5.8,11.8,8.3,18.7,10.8c0.1,3.1-0.8,6-1.6,8.9c-1.2,4.8-2.6,9.5-3.8,14.3
	c-0.4,1.5-0.5,3.1-0.6,4.7c-0.1,2-0.4,2.4-2.4,2.6c-2.5,0.2-4.9,0.4-7.7,0.5c-0.4-1.8-1.1-3.4-1.3-5.1c-0.3-3.1-0.6-6.2-0.4-9.3
	c0.5-8.5-0.1-16.9-1.3-25.3C302.7,309.2,302.7,309.2,303.1,308.1z"/>
<path class="st0" d="M237.6,499.9c-0.9-1.7-1.1-3.5-1-5.2c0-2.9,0.2-5.9,0.2-8.8c0-4.7,0.1-9.4,0-14.1c0-2.3,0-4.6,0.9-6.7
	c3.6,0,7,0,10.7,0c-0.3,2.7-0.7,5.1-0.9,7.6c-0.3,5.5-0.6,11-0.8,16.5c0,1.3,0,2.8,0.4,4c0.4,1.3,0,2.1-0.8,2.9
	C243.9,498.5,241.2,499.9,237.6,499.9z"/>
<path class="st0" d="M280.2,356.7c-0.8-1.4-1.7-2.9-2.7-4.6c0.8,0,1.4-0.1,2-0.1c11.7,1,23.5,0.4,35.1-0.7c4.7-0.5,9.4-1.7,14.1-2.5
	c3.9-0.6,7.7-1.1,11.6-1.6c0.9-0.1,1.9,0.2,2.8,0.2c1.2,0,1.7,0.8,1.9,1.8c0.1,0.7,0,1.4,0,2.4c-2.1,0.5-4.3,1.1-6.4,1.6
	c-8.7,1.9-17.5,2.8-26.4,2.8c-3.4,0-6.7,0-10.1,0C295,356.3,287.8,356.5,280.2,356.7z"/>
<path class="st0" d="M319.5,469.6c0.7,0,1.4-0.1,2.1,0c3.4,0.7,6.8,1.5,10.2,2.3c0.4,0.1,0.7,0.2,1.4,0.4
	c-2.8,11.8-1.7,23.5-0.1,35.4c-2.5-0.2-4.3-1.1-5.6-2.9c-0.8-1.2-1.6-2.7-1.9-4.1c-2.1-9.8-4.2-19.6-6.2-29.4
	C319.4,470.7,319.5,470.2,319.5,469.6z"/>
<path class="st0" d="M345.6,508.9c-3.5-0.2-6.8-0.3-10.2-0.5c-1.7-12.1-3-23.9,0-36.1c2,0.2,4.1,0.4,6.2,0.7
	c0.1,0.8,0.3,1.5,0.3,2.2c0.1,0.9,0.1,1.8,0,2.6c-0.7,9.1,1.1,17.9,3.1,26.7c0.3,1.1,0.5,2.2,0.6,3.3
	C345.7,508,345.6,508.3,345.6,508.9z"/>
<path class="st0" d="M234.9,500.1c-2.3,0-4.7,0-7.2,0c-0.7-11.5-1.4-22.8-2.1-34c0-0.7,0.1-1.4,0.1-2.3c3.5,0.3,6.8,0.6,10,0.9
	C235.9,476.6,234.4,488.3,234.9,500.1z"/>
<path class="st0" d="M216.2,461.7c2.8,0.7,5.2,1.2,7.8,1.8c0.5,12,2.2,24,2.2,36.2c-2,0.3-3.6-0.1-5.2-1c0.4-0.7,0.6-1.5,1.1-2
	c1.1-1.2,1.2-2.6,0.9-4c-0.6-2.4-1.2-4.8-1.9-7.2c-0.7-2.4-1.6-4.7-2.1-7.1c-0.4-1.6-0.6-3.3-0.6-4.9c0.1-3.5-0.8-6.8-1.7-10.1
	C216.5,463,216.4,462.5,216.2,461.7z"/>
<path class="st0" d="M349.5,473.5c0.4,11.9,0.7,23.5,1.1,35.3c-1,0-1.8,0-2.6,0c-3-11.7-4.9-23.4-4.9-35.7
	C345.1,473.2,347.2,473.4,349.5,473.5z"/>
<path class="st0" d="M248.6,492.7c-1.3-3.2-0.4-22.2,1.4-27.5c2.6,0,5.3,0,8.2,0c-0.8,5.9-1.8,11.6-3.6,17.2
	C253,487.7,251.4,489.6,248.6,492.7z"/>
<path class="st0" d="M273.7,360.9c-5.2-0.3-8.6-3-11.3-6.8c-1.1-1.5-0.6-3,1-3.8c1.8-0.9,3.8-1.4,5.8-0.7c2.7,1,5.2,2.4,7.1,4.7
	c0.5,0.7,1,1.4,1.3,2.2c0.8,2.1,0.2,3.2-1.9,3.9C274.9,360.8,274.1,360.8,273.7,360.9z"/>
<path class="st0" d="M260.7,355.5c-0.6,0.1-0.9,0.2-1.1,0.2c-7.9-0.2-15.9-0.3-23.8-0.7c-2.4-0.1-4.9-0.7-7.2-1.4
	c-2.7-0.8-4.2-3-4.1-5.6c0.1,0,0.2-0.1,0.2,0c3.1,2.4,6.6,3.3,10.6,3.3c5.6,0,11.3,0.5,16.9,0.9c2.3,0.2,4.6,0.7,6.9,1.3
	C259.7,353.7,260.1,354.7,260.7,355.5z"/>
<path class="st0" d="M214.6,507.1c0.4-2.4-0.7-3.9-2.7-5.1c-1.4-0.9-2.6-2.1-3.7-3.3c-0.4-0.5-0.8-1.3-0.8-1.9
	c-0.1-3.4-0.7-6.8-1.4-10.1c-0.5-2.7-0.4-5.5-0.1-8.4c0.6,1.6,1.3,3.2,1.9,4.8c1.1,2.7,2.1,5.3,3.2,8c0.2,0.4,0.5,0.9,0.5,1.3
	c-0.1,3.5,2.2,5.5,4.4,7.5c0.7,0.6,1.5,1.2,2.1,1.9c1.1,1.2,1.1,2-0.2,3C216.8,505.6,215.6,506.3,214.6,507.1
	C214.5,507.1,214.6,507.1,214.6,507.1z"/>
<path class="st0" d="M281.8,757.2c5.1,3.1,10.9,3.7,16.6,4.1c5.6,0.4,11.3,1.4,16.9-0.5c-1,1.6-2.8,2.9-4.9,3.4
	c-1.3,0.3-2.7,0.4-4,0.3c-4.1-0.2-8.3-0.3-12.4-0.7c-2.6-0.3-5.2-0.7-7.7-1.5C283.9,761.6,282.2,760,281.8,757.2z"/>
<path class="st0" d="M256.9,378c-0.3-0.7-0.5-0.9-0.5-1.2c-0.4-6.6,2.1-11.8,7.2-15.9c0.9-0.7,1.7-0.7,2.6,0
	c0.4,0.4,0.9,0.6,1.6,1.1c-0.7,1.1-1.3,2.2-2.1,3.1c-0.7,0.9-1.6,1.6-2.4,2.3c-2.3,2-4,4.3-4.9,7.2C258,375.8,257.5,376.7,256.9,378
	z"/>
<path class="st0" d="M246.4,765c6.5-0.5,12.9-0.9,19.2-1.3c5.2-0.3,9.3-2.4,12.6-6.5c0.3-0.4,0.6-0.7,1.3-0.9
	c-0.4,0.9-0.7,1.8-1.2,2.6c-2.9,4.4-7.1,6.7-12.4,7.2c-1.3,0.1-2.7,0.2-4.1,0c-4.5-0.7-9.1-0.7-13.6,0.2
	C247.1,766.5,246.5,766.2,246.4,765z"/>
<path class="st0" d="M245,228.7c1.4,1.8,2.6,3.5,3.9,5.3c-0.9,2.5-3.2,4.2-4.9,6.8c-1.1-1.9-2.1-3.6-3.2-5.5
	C242.2,233.2,243.5,231,245,228.7z"/>
<path class="st0" d="M220.3,343.2c1,1.1,1.8,2,2.6,3c0.2,0.2,0.4,0.5,0.4,0.8c0.1,1.6,0.3,3.1,0.3,4.7c0,0.3-0.2,0.8-0.4,1.1
	c-0.8,1.1-1.7,2.2-2.9,3.8C220.3,351.9,220.3,347.7,220.3,343.2z"/>
<path class="st0" d="M258.5,357.9c1.6,0.1,2.9,0.2,4.8,0.3c-1.3,1.2-2.2,1.9-3,2.7c-0.8,0.7-1.6,1.5-2.8,2.1
	C257.8,361.4,258.1,359.8,258.5,357.9z"/>
<path d="M315,165.6c-0.9-1.2-1.7-2.2-2.6-3.4c-1.1,1.3-2,2.7-4,1.9c-2.4-0.9-3.1-1.7-3.2-4.2c0.7,0.8,1.2,1.4,1.7,2
	c1.7,1.9,3.3,1.6,4.3-1.1c-2.6-2.3-6-1.5-9.2-1.9c2.5-1.7,6.6-1.5,9.5,0.4C313.6,160.7,315.3,163.6,315,165.6z"/>
<path d="M284.7,147.9c-0.7,0.2-1.4,0.2-2,0.5c-1.7,0.9-3.2,0.4-4.8-0.2c-0.9-0.4-1.3-1.2-1.2-2.2c0.1-0.8,0.3-1.6,0.4-2.6
	c-1-0.1-2-0.1-3-0.2C277.6,140.8,283.9,143.8,284.7,147.9z M278.3,143.8c-0.8,2.2-0.7,3.6,0.3,4c1.4,0.6,3.2-0.1,4.3-1.7
	C281.7,144.7,280.3,143.9,278.3,143.8z"/>
<path d="M276.4,179.6c-4.7-0.6-4.7-0.6-5.4-2.1C272.7,177.5,274.6,178.2,276.4,179.6z"/>
<path d="M287.1,170.4c2-0.3,2-0.3,2.9,1.5C288.9,171.3,288.2,171,287.1,170.4z"/>
<path d="M286,185.6c0.7,0.3,1.4,0.6,2.2,0.9C287.2,187.4,287.2,187.4,286,185.6z"/>
<path class="st0" d="M278.3,143.8c2,0.2,3.4,1,4.6,2.3c-1.1,1.6-2.9,2.3-4.3,1.7C277.6,147.3,277.5,145.9,278.3,143.8z"/>
</svg>
