<?xml version="1.0" encoding="utf-8"?>
<!-- Generator: Adobe Illustrator 19.0.0, SVG Export Plug-In . SVG Version: 6.00 Build 0)  -->
<svg version="1.1" id="图层_1" xmlns="http://www.w3.org/2000/svg" xmlns:xlink="http://www.w3.org/1999/xlink" x="0px" y="0px"
	 viewBox="0 0 595.3 841.9" style="enable-background:new 0 0 595.3 841.9;" xml:space="preserve">
<style type="text/css">
	.st0{fill:#FFFFFF;}
</style>
<path class="st0" d="M0.4,36.2c198.5,0,396.9,0,595.4,0c0,256.8,0,513.7,0,770.5c-198.5,0-396.9,0-595.4,0
	C0.4,549.8,0.4,293,0.4,36.2z M214.8,411.5c0.3,0.5,0.6,0.8,0.7,1.1c1,4,2.1,8,2.9,12c0.3,1.3,0.1,2.8-0.3,4.1
	c-1.7,5.2-3.6,10.4-5.4,15.6c-1.6,4.5-1.8,8.9-0.6,13.5c0.5,1.8,0.8,3.7,0.6,5.5c-0.7,6.4-1.4,12.8-2.5,19.2
	c-1.2,7.6-1.8,15.3-1.5,23c0.3,7.5,1.8,14.6,6.2,21c1.8,2.6,3.4,5.4,5.2,8c0.8,1.2,1.1,2.5,1.2,3.9c0.2,6.3-0.1,12.6-0.8,18.9
	c-0.5,5-0.4,10.1,0.7,15.1c1.2,5.3,2.2,10.7,3.1,16c0.5,2.7,1,5.3,0.7,8c-2,0.4-2.7,0.7-3.4,2.6c-1.2,3.2-2.2,6.6-3.2,9.9
	c-0.6,1.8,0,3.2,1.6,4.2c3.8,2.5,7.6,5.3,13,3.8c-0.6,2.3,1.3,4.5-0.5,6.6c-0.2,0.2-0.1,0.8-0.1,1.1c0.1,1.9,0,3.7,0.2,5.6
	c1.1,8.7-0.1,17-2.8,25.3c-0.6,2-1.5,3.6-3.2,4.6c-2.3,1.3-2.3,3.3-2,5.5c0.2,1.2,0.7,1.6,2,1.3c0.7-0.1,1.4-0.3,2.3-0.6
	c-1,2.5-1.4,4.7-1.6,7.1c-0.3,3.4-1.1,6.7-2,10.1c-1.1,4.6-2.8,9.1-3.4,13.8c-0.2,1.9-0.9,3.8-1.4,5.6c-1.4,5.2-0.4,7.7,3.5,10.3
	c6.6,4.6,13.9,6.4,21.8,6.3c5.1-0.1,10-1.3,14.9-2.4c2.6-0.6,5-1.8,7.1-3.3c2.3-1.7,3.7-3.8,3.9-6.8c0.3-4.2,0.1-8.2-1.7-12
	c-0.4-0.9-0.6-1.9-0.8-2.9c-1.1-4.8-1.1-9.7-0.9-14.6c0.1-2,0-4.1,1.5-5.7c0.3-0.3,0.3-0.9,0.5-1.3c0.8-1.3,0.4-2.3-0.4-3.4
	c-0.8-1-1.6-1.9-2.3-2.9c-0.8-1-1.1-2.1-0.9-3.4c1.3-8.7,1-17.3-1.5-25.9c-0.7-2.5-1.1-5.2-1.5-7.8c-0.3-1.7-0.5-3.3-0.7-5.1
	c0.3-0.1,0.8-0.2,1.2-0.2c2.6,0,4.4-1.3,5.8-3.4c1.4-2.1,2.9-4.2,4.4-6.3c0.5-0.7,0.6-1.3,0.1-2.1c-1.3-2-1.2-2.7,0.4-4.4
	c0.6-0.7,1.3-1,2-0.5c1.2,0.8,2.7,1.4,3.6,2.5c1.5,1.8,2.6,3.8,3.7,5.5c-0.3,1.6-0.4,3-0.7,4.4c-0.3,1.7-0.5,3.4-1.1,5
	c-1.7,4.2-3.6,8.3-5.3,12.4c-0.5,1.3-1,2.6-1.2,4c-0.7,6.3-0.7,12.7-0.8,19c0,2.4,0.9,4.2,2.9,5.5c2.5,1.7,5.2,3,8.2,3.9
	c1.8,0.6,3.5,1.2,5.3,1.9c2,0.8,3.3,2.4,3.9,4.4c0.4,1.3,0.4,2.8,0.4,4.1c0,2.2-0.2,4.4-0.1,6.5c0,3.5,1.4,6.3,4.1,8.5
	c3,2.5,6.4,4.1,10.2,4.9c4.7,1,9.5,1.4,14.3,1.5c5.3,0.1,10.4-0.2,15.4-1.8c2.1-0.7,4.1-1.4,5.6-3.2c2.9-3.5,2.4-7.6,1.4-11.3
	c-0.8-2.7-2.9-5.1-4.6-7.4c-1.3-1.8-3.2-3.2-4.5-5c-2.2-3.2-4.9-5.8-7.9-8.2c-2.2-1.8-4.2-3.9-6.5-5.6c-1.6-1.2-2.6-2.5-3.4-4.3
	c-0.7-1.8-1.8-3.4-2.6-5.2c-0.5-1.1-1.5-2-1.4-3.7c1.5,2,2.9,3.8,4.5,5.9c0.2-1.3,0.5-2.2,0.5-3c0-4,0-7.9,0-11.9
	c0-2.8-0.3-3.2-3-4.2c-1.5-0.5-3-1.1-4.5-1.6c2-5.4,2.7-10.5,0.5-15.8c2.8-1.4,6-2.4,9.2-2.7c2.8-0.3,4.2-1.8,5.2-4.3
	c2-4.7,2.8-9.7,3.2-14.8c0.1-1,0.4-2.2-0.8-2.7c-1.2-0.5-1.8,0.6-2.5,1.3c-1.2,1.2-2.6,2.3-4.6,3.2c0.4-0.7,0.6-1,0.8-1.2
	c3.8-4.2,5.7-9.3,6.9-14.8c1.5-7.5,3.3-15,5-22.5c1.4-6.4,3.2-12.7,4.3-19.1c1.1-5.9,1.6-11.9,2.4-17.8c1.6-11.4,2.5-22.9,3-34.4
	c0.2-5.3,0.4-10.6,0.7-15.9c0.4-8.2,1-16.3,1.3-24.4c0.2-3.9,0.6-7.9-0.1-11.8c-0.8-5.1-1.4-10.2-3.8-14.4c0.5-1.4,0.9-2.5,1.2-3.4
	c1.1-1,2.1-1.7,2.9-2.6c2.1-2.3,3.6-4.9,4.7-7.7c0.8-2.1,1.3-4.3,0.7-6.6c-0.6-2.4-1.2-4.8-1.7-7.3c-0.4-1.7-0.8-3.5-0.7-5.3
	c0.2-3.6-0.2-7.1-1-10.6c-1.6-7-2.3-14.1-1.3-21.3c0.5-3.8,1.2-7.6,1.9-11.5c0.5,0.2,0.8,0.2,0.9,0.4c3.1,2.8,7,3.9,10.7,5.6
	c4.5,2.1,9.4,2,14.2,1.3c1.7-0.2,3.4-0.9,5-0.9c1.5,0,2.6-0.4,3.4-1.5c1.5-1.9,2.9-3.8,4.3-5.8c3.3-4.9,4.7-10.3,4-16.1
	c-0.2-1.5-0.4-2.9-0.6-4.5c3.5-1.4,7-2.8,10.4-4.1c0-0.2,0.1-0.4,0.1-0.5c-0.3-1.9-1.2-3.5-2.6-4.8c-4.9-4.4-9.7-8.7-14.6-13.1
	c-1.6-1.4-3.1-2.8-4.7-4.1c-3.5-2.9-7.4-4.9-11.9-5.4c-1.6-0.2-2.7-0.8-3.6-2.1c-2.7-4.1-5.4-8.2-8.3-12.1c-1.2-1.6-2.6-3-4-4.6
	c-0.5-0.5-1-1-1.3-1.6c-2-3.7-4.5-6.9-7.7-9.6c-0.4-0.3-0.6-0.7-1-1.2c0.4-0.1,0.5-0.1,0.7-0.1c1.2,0.1,2.3,0.2,3.5,0.3
	c6.5,0.3,12.3-1,17.2-5.7c3.5-3.4,6.6-7.2,9.4-11.2c5.3-7.6,8-15.9,7.5-25.2c-0.4-7.5-3.2-13.7-9.3-18.3c-2.8-2.1-5.9-3.7-9.3-4.8
	c-6.3-1.9-11.3-6-16.7-8.9c-0.4-2.6-0.5-4.9-1-7.2c-0.9-4-2.7-7.8-5.1-11.1c-3.3-4.7-7.9-7.3-13.6-8.1c-1.3-3.1-4-5.2-7.3-6.1
	c-4-1.1-8.1-2-12.3-2.8c-2.1-0.4-4.3-0.5-6.5-0.3c-7.2,0.5-14.1,2.1-20.9,4.5c-5.1,1.8-10.2,3.6-15.4,5.4c-0.2-0.4-0.3-0.6-0.4-0.9
	c-1.8-3.2-3.7-3.7-7.1-2.2c-0.6,0.3-1.4,0.3-2,0.3c-2.5,0.1-5,0.1-7.4,0.3c-1.9,0.1-3.9-0.1-5.5,0.7c-2.4,1.2-5.1,1.3-7.4,2.6
	c-1.6,0.9-2.9,2-3.5,3.6c-0.5,1.3-1.5,2.1-2.6,2.8c-0.8,0.5-1.6,1-2.4,1.4c-4,2.1-6.9,5.3-9.1,9.2c-1.1,2-2.3,3.9-3.3,5.9
	c-2.1,4.1-4.1,8.2-5.1,12.7c-1.5,6.5-0.4,12.4,3.9,17.5c2.1,2.5,4.8,4.7,7.2,7c2.7,2.6,5.5,5,8.2,7.6c1.2,1.2,2.2,2.6,3.4,3.9
	c2,2.1,3.4,2.3,5.1,0.3c0,0,0.2,0,0.5,0.1c-1,2.5-2,5-2.9,7.4c-1.5,3.9-3.9,7-7.1,9.7c-2,1.7-4,3.5-6.1,5.1
	c-4.7,3.6-7.9,8.3-10.2,13.7c-0.3,0.8-0.9,1.3-1.6,1.8c-2.9,2.1-5.9,4.1-8.5,6.5c-3.6,3.2-6.9,6.8-10.4,10c-2.5,2.3-3.6,5.1-3.6,8.5
	c-0.1,4.7-0.2,9.5-0.6,14.2c-0.2,3-0.8,6-1.3,9c-1.7,10.2-3.2,20.4-5.1,30.6c-1.4,7.5-3.4,14.8-4.8,22.3c-1.6,8.5-2.8,17-4.1,25.6
	c-0.2,1-0.5,1.6-1.5,2.2c-2.5,1.4-4.6,3.4-5.4,6.2c-1.2,3.8-1.1,7.7,0.7,11.4c1.4,3,2.8,3.6,5.9,2.6c0,0.4,0.1,0.8,0.1,1.1
	c-0.3,5.1,0.3,10.1,0.9,15.1c0.6,4.7,0.4,9.3-1,13.8c-1,3.1-1.7,6.3-2.4,9.5c-1.1,5.2-1.2,10.3,0.1,15.5c0.1,0.4,0.1,1.1,0.4,1.3
	c2,1.1,2.1,3.3,2.8,5.1c1.1,2.9,2.9,5.1,5.6,6.6c1.3,0.7,2.7,1.3,3.8,2.3c3.5,3.4,7.6,2.1,11.5,2.1c0.6-1.5,0.2-2.5-0.5-3.5
	c-1.1-1.5-2.2-2.8-3.9-3.6c-2.1-0.9-3.1-2.5-3.3-4.7c-0.2-2.4-0.1-4.8-0.3-7.2c-0.3-3.6,1.4-5.9,4.6-7.4c2,3.6,4.8,6.7,6.2,10.7
	c0.6,1.9,2.3,2.7,4.1,3.1c1.3,0.3,2.1-0.2,2.4-1.6c0.5-2.1,0.7-4.1-0.3-6.1c-1.9-3.9-3.1-8-3.4-12.3c-0.4-5.6-2-10.8-4.7-15.7
	c-0.9-1.6-1.6-3.6-1.7-5.5c-0.1-2.5,0.4-5.1,0.7-7.6c0-0.4,0.3-1,0.6-1.2c1.2-0.8,1.5-2,1.8-3.2c0.5-1.9,0.8-3.8,1.2-5.7
	c0.2-1.2,0.5-2.4,0.7-3.5c3.7,0.7,7.1,1.4,10.5,2c2.6,0.5,4.9-0.1,6.9-1.9C213.5,412.3,214.1,411.9,214.8,411.5z"/>
<path d="M214.8,411.5c-0.7,0.5-1.2,0.8-1.7,1.3c-2,1.8-4.3,2.4-6.9,1.9c-3.4-0.6-6.8-1.3-10.5-2c-0.2,1.2-0.5,2.4-0.7,3.5
	c-0.4,1.9-0.7,3.8-1.2,5.7c-0.3,1.2-0.6,2.4-1.8,3.2c-0.3,0.2-0.5,0.8-0.6,1.2c-0.3,2.5-0.8,5.1-0.7,7.6c0.1,1.9,0.7,3.9,1.7,5.5
	c2.8,4.9,4.3,10.1,4.7,15.7c0.3,4.3,1.6,8.4,3.4,12.3c1,2.1,0.8,4.1,0.3,6.1c-0.3,1.3-1.1,1.9-2.4,1.6c-1.8-0.4-3.5-1.2-4.1-3.1
	c-1.4-4-4.2-7.1-6.2-10.7c-3.2,1.6-4.9,3.8-4.6,7.4c0.2,2.4,0.2,4.8,0.3,7.2c0.2,2.2,1.2,3.8,3.3,4.7c1.7,0.7,2.9,2.1,3.9,3.6
	c0.7,1,1.1,2.1,0.5,3.5c-3.9,0-8,1.3-11.5-2.1c-1-1-2.5-1.6-3.8-2.3c-2.7-1.5-4.5-3.7-5.6-6.6c-0.7-1.8-0.8-4-2.8-5.1
	c-0.3-0.2-0.3-0.9-0.4-1.3c-1.3-5.2-1.2-10.3-0.1-15.5c0.7-3.2,1.5-6.4,2.4-9.5c1.4-4.6,1.6-9.2,1-13.8c-0.7-5-1.2-10-0.9-15.1
	c0-0.4-0.1-0.7-0.1-1.1c-3.1,1-4.5,0.4-5.9-2.6c-1.8-3.7-1.9-7.5-0.7-11.4c0.9-2.8,2.9-4.7,5.4-6.2c0.9-0.5,1.3-1.1,1.5-2.2
	c1.3-8.5,2.5-17.1,4.1-25.6c1.4-7.5,3.4-14.8,4.8-22.3c1.9-10.2,3.4-20.4,5.1-30.6c0.5-3,1.1-6,1.3-9c0.3-4.7,0.5-9.5,0.6-14.2
	c0.1-3.4,1.1-6.2,3.6-8.5c3.5-3.3,6.8-6.8,10.4-10c2.7-2.4,5.6-4.4,8.5-6.5c0.7-0.5,1.3-1,1.6-1.8c2.3-5.4,5.5-10.1,10.2-13.7
	c2.1-1.6,4.1-3.4,6.1-5.1c3.2-2.7,5.6-5.8,7.1-9.7c1-2.4,1.9-4.9,2.9-7.4c-0.3,0-0.5-0.1-0.5-0.1c-1.6,2-3,1.8-5.1-0.3
	c-1.2-1.2-2.2-2.7-3.4-3.9c-2.7-2.6-5.5-5.1-8.2-7.6c-2.4-2.3-5-4.4-7.2-7c-4.3-5.1-5.4-11-3.9-17.5c1-4.5,3-8.7,5.1-12.7
	c1-2,2.2-3.9,3.3-5.9c2.2-3.9,5.1-7,9.1-9.2c0.8-0.4,1.6-1,2.4-1.4c1.2-0.7,2.1-1.5,2.6-2.8c0.7-1.6,2-2.7,3.5-3.6
	c2.3-1.3,5-1.4,7.4-2.6c1.6-0.8,3.7-0.5,5.5-0.7c2.5-0.1,5-0.2,7.4-0.3c0.7,0,1.4,0,2-0.3c3.4-1.5,5.3-0.9,7.1,2.2
	c0.1,0.3,0.3,0.5,0.4,0.9c5.2-1.8,10.3-3.6,15.4-5.4c6.8-2.4,13.7-4,20.9-4.5c2.2-0.2,4.4-0.1,6.5,0.3c4.1,0.8,8.2,1.7,12.3,2.8
	c3.3,0.9,6,3,7.3,6.1c5.8,0.8,10.3,3.4,13.6,8.1c2.4,3.4,4.2,7.1,5.1,11.1c0.5,2.2,0.7,4.6,1,7.2c5.4,2.8,10.4,7,16.7,8.9
	c3.4,1,6.5,2.6,9.3,4.8c6,4.6,8.9,10.8,9.3,18.3c0.5,9.3-2.2,17.6-7.5,25.2c-2.8,4-5.9,7.8-9.4,11.2c-4.8,4.7-10.7,6-17.2,5.7
	c-1.2-0.1-2.3-0.2-3.5-0.3c-0.1,0-0.3,0-0.7,0.1c0.4,0.5,0.7,0.9,1,1.2c3.1,2.8,5.7,6,7.7,9.6c0.3,0.6,0.9,1.1,1.3,1.6
	c1.3,1.5,2.8,2.9,4,4.6c2.9,4,5.6,8,8.3,12.1c0.9,1.4,2,2,3.6,2.1c4.5,0.5,8.5,2.5,11.9,5.4c1.6,1.3,3.2,2.7,4.7,4.1
	c4.9,4.3,9.8,8.7,14.6,13.1c1.4,1.3,2.4,2.9,2.6,4.8c0,0.1,0,0.3-0.1,0.5c-3.4,1.3-6.8,2.7-10.4,4.1c0.2,1.6,0.4,3.1,0.6,4.5
	c0.7,5.9-0.7,11.3-4,16.1c-1.3,2-2.8,3.9-4.3,5.8c-0.8,1.1-1.9,1.6-3.4,1.5c-1.7-0.1-3.3,0.6-5,0.9c-4.8,0.7-9.7,0.8-14.2-1.3
	c-3.6-1.7-7.6-2.9-10.7-5.6c-0.2-0.1-0.4-0.2-0.9-0.4c-0.6,3.9-1.3,7.7-1.9,11.5c-1,7.2-0.3,14.3,1.3,21.3c0.8,3.5,1.2,7,1,10.6
	c-0.1,1.7,0.4,3.5,0.7,5.3c0.5,2.4,1.1,4.9,1.7,7.3c0.6,2.3,0.1,4.5-0.7,6.6c-1.1,2.8-2.6,5.5-4.7,7.7c-0.8,0.9-1.8,1.7-2.9,2.6
	c-0.3,0.8-0.7,2-1.2,3.4c2.4,4.2,3,9.4,3.8,14.4c0.7,4,0.3,7.9,0.1,11.8c-0.4,8.2-0.9,16.3-1.3,24.4c-0.3,5.3-0.4,10.6-0.7,15.9
	c-0.5,11.5-1.5,23-3,34.4c-0.8,5.9-1.3,11.9-2.4,17.8c-1.2,6.4-2.9,12.7-4.3,19.1c-1.7,7.5-3.5,15-5,22.5c-1.1,5.5-3,10.6-6.9,14.8
	c-0.2,0.2-0.3,0.5-0.8,1.2c2.1-0.8,3.4-1.9,4.6-3.2c0.7-0.7,1.3-1.8,2.5-1.3c1.2,0.5,0.9,1.7,0.8,2.7c-0.3,5.1-1.2,10-3.2,14.8
	c-1,2.4-2.4,4-5.2,4.3c-3.3,0.3-6.4,1.3-9.2,2.7c2.2,5.3,1.5,10.5-0.5,15.8c1.5,0.5,3,1,4.5,1.6c2.7,1,3,1.4,3,4.2c0,4,0,7.9,0,11.9
	c0,0.8-0.3,1.6-0.5,3c-1.7-2.2-3-3.9-4.5-5.9c0,1.6,0.9,2.6,1.4,3.7c0.8,1.8,1.8,3.4,2.6,5.2c0.7,1.8,1.8,3.1,3.4,4.3
	c2.3,1.6,4.3,3.8,6.5,5.6c3,2.4,5.7,5,7.9,8.2c1.3,1.8,3.2,3.2,4.5,5c1.7,2.4,3.8,4.7,4.6,7.4c1,3.7,1.5,7.8-1.4,11.3
	c-1.5,1.8-3.5,2.5-5.6,3.2c-5,1.6-10.2,1.9-15.4,1.8c-4.8-0.1-9.6-0.5-14.3-1.5c-3.8-0.8-7.2-2.4-10.2-4.9c-2.7-2.3-4.1-5.1-4.1-8.5
	c0-2.2,0.2-4.4,0.1-6.5c0-1.4,0-2.8-0.4-4.1c-0.6-2-1.9-3.6-3.9-4.4c-1.7-0.7-3.5-1.3-5.3-1.9c-2.9-0.9-5.6-2.3-8.2-3.9
	c-2-1.3-3-3-2.9-5.5c0.1-6.4,0.1-12.7,0.8-19c0.1-1.4,0.7-2.7,1.2-4c1.7-4.2,3.6-8.3,5.3-12.4c0.6-1.6,0.8-3.3,1.1-5
	c0.3-1.4,0.4-2.8,0.7-4.4c-1.1-1.7-2.2-3.8-3.7-5.5c-0.9-1.1-2.3-1.7-3.6-2.5c-0.8-0.5-1.4-0.2-2,0.5c-1.5,1.7-1.7,2.4-0.4,4.4
	c0.5,0.8,0.4,1.4-0.1,2.1c-1.5,2.1-2.9,4.2-4.4,6.3c-1.4,2.1-3.2,3.4-5.8,3.4c-0.4,0-0.9,0.2-1.2,0.2c0.2,1.8,0.4,3.5,0.7,5.1
	c0.5,2.6,0.8,5.2,1.5,7.8c2.5,8.5,2.8,17.1,1.5,25.9c-0.2,1.4,0.1,2.4,0.9,3.4c0.8,1,1.5,2,2.3,2.9c0.9,1,1.2,2.1,0.4,3.4
	c-0.2,0.4-0.2,1-0.5,1.3c-1.5,1.6-1.5,3.7-1.5,5.7c-0.2,4.9-0.1,9.8,0.9,14.6c0.2,1,0.4,2,0.8,2.9c1.8,3.9,2,7.9,1.7,12
	c-0.2,3-1.6,5.1-3.9,6.8c-2.2,1.6-4.5,2.8-7.1,3.3c-4.9,1.1-9.9,2.3-14.9,2.4c-7.9,0.2-15.2-1.7-21.8-6.3c-3.8-2.7-4.8-5.1-3.5-10.3
	c0.5-1.9,1.2-3.7,1.4-5.6c0.6-4.7,2.3-9.2,3.4-13.8c0.8-3.3,1.7-6.7,2-10.1c0.2-2.4,0.6-4.6,1.6-7.1c-0.9,0.2-1.6,0.4-2.3,0.6
	c-1.3,0.2-1.8-0.1-2-1.3c-0.3-2.2-0.3-4.2,2-5.5c1.8-1,2.6-2.6,3.2-4.6c2.6-8.3,3.9-16.6,2.8-25.3c-0.2-1.8-0.2-3.7-0.2-5.6
	c0-0.4-0.1-0.9,0.1-1.1c1.8-2.1-0.1-4.3,0.5-6.6c-5.4,1.5-9.2-1.3-13-3.8c-1.5-1-2.1-2.4-1.6-4.2c1-3.3,2-6.7,3.2-9.9
	c0.7-1.9,1.4-2.1,3.4-2.6c0.3-2.7-0.2-5.4-0.7-8c-0.9-5.4-1.9-10.7-3.1-16c-1.1-5-1.3-10-0.7-15.1c0.7-6.3,1-12.5,0.8-18.9
	c0-1.5-0.4-2.7-1.2-3.9c-1.7-2.7-3.4-5.4-5.2-8c-4.3-6.3-5.9-13.5-6.2-21c-0.3-7.7,0.3-15.4,1.5-23c1-6.4,1.8-12.8,2.5-19.2
	c0.2-1.8-0.1-3.7-0.6-5.5c-1.2-4.6-1-9.1,0.6-13.5c1.8-5.2,3.7-10.4,5.4-15.6c0.4-1.3,0.6-2.8,0.3-4.1c-0.8-4-1.9-8-2.9-12
	C215.4,412.3,215.1,412,214.8,411.5z M317.4,651.6c-0.4-0.9-0.8-1.9-1.3-2.7c-0.3-0.4-0.9-0.9-1.4-0.9c-2-0.1-4,0-6.3,0
	c0.3,1.2,0.5,2.1,0.7,3.2C312,650.9,314.8,650.5,317.4,651.6c-0.9,0.8-2,0.9-3.2,0.7c-1.6-0.3-3.2-0.3-4.9,0.3
	c0.1,0.8,0.2,1.5,0.2,2.4c2-0.3,3.7-0.6,5.6,0.1c1.1,0.4,2.7,0,4.5-0.1C318.8,653.6,318.1,652.6,317.4,651.6z M284.6,274.5
	c0.2-1.3,0.1-2.5-1.1-3.4C283.9,272.2,284.3,273.3,284.6,274.5c0.6,6.4,2.4,12.5,4.7,18.7c1.1-0.3,1.9-0.6,2.8-0.8
	c-0.2-0.5-0.3-0.8-0.4-1c-2.8-4.9-4.8-10.1-6.4-15.5C285.2,275.3,284.9,274.9,284.6,274.5z M243.3,245.1c-0.2,0.2-0.5,0.4-0.7,0.5
	c-1.9,0.5-2.8,1.8-3.5,3.6c-1.3,3.4-3,6.6-4.6,9.9c-1.1,2.1-2.3,4.2-3.5,6.3c-0.2,0.4-0.3,0.9-0.5,1.8c1.1-0.5,1.9-0.7,2.4-1.2
	c2-1.5,4.1-3.1,6-4.7c1.3-1,2.4-2.3,3.6-3.3c3.7-2.8,7.7-4.3,12.3-1.9c0.2,0.1,0.5,0.2,1.1,0.4c-0.5-1.7-1.7-2.3-2.8-2.9
	c-1.8-1-3.6-1.8-5.4-2.7c-1.7-0.8-3-1.9-3.5-3.8C244.1,246.4,243.6,245.8,243.3,245.1c0.6,0.3,1.4,0.6,1.6,1.1
	c1.3,2.5,3.8,3,6.3,4.4c-0.5-2.7,1.2-4,2.5-5.3c-0.4-1-0.9-1.3-2-1.4C248.9,243.9,246.1,244.4,243.3,245.1z M264.1,293.7
	c-1.4-0.1-2.9-0.2-4.2-0.2c0.1,1.5,0.5,2.9,0.2,4.1c-1,4.3-6.4,5.9-10.2,3c-2.7-2-2.7-4.7-0.2-6.9c0.5-0.4,1-0.8,1.7-1.4
	c-3.9-0.4-7.5-0.3-10.9,0c-0.2,2.5-0.4,4.8-0.7,7c-1,8.4-2.1,16.8-3.2,25.2c-1,7.5-1.8,15-3.2,22.4c-2,10.7-3.5,21.5-3.9,32.4
	c-0.2,5.6-0.6,11.2-0.8,16.8c-0.1,2.3,0,4.6,0,7.1c4.1,0.2,7.7-0.8,11.5-1.1c0.5-2.9,0.9-5.6,1.3-8.2c1.8-10.6,4.7-20.9,7.4-31.3
	c4-15.1,8.2-30.1,10.8-45.6C261.1,309.1,262.6,301.4,264.1,293.7c0.2-3.6,1-7,0.9-10.7c-1.5,0.2-2.9,0.3-4.2,0.4
	c-7.3,1-14.6,1.9-22,1.5c-4.8-0.3-9.4,0.5-14.1,1.6c-3,0.7-3.3,1.1-3.6,4.5c3.4-1.3,6.8-1.3,10.3-1.2c4.3,0.1,8.7,0.5,13,0.4
	c5.2-0.1,10.2,0.6,15.3,1.5C261.3,292,263,292.3,264.1,293.7z M243.4,586.5c-0.1-0.2-0.2-0.3-0.2-0.5c1.5-0.8,2.9-1.7,4.5-2.3
	c4.4-1.8,8-4.6,10.8-8.3c7-9.1,13.1-18.7,17.1-29.6c1.4-3.9,2.9-7.7,4.3-11.6c1.7-4.4,3.2-8.8,3.7-13.5c0.4-3.3,0.8-6.6,1.1-10
	c0.1-0.7,0-1.5,0-2.2c-0.1,0-0.3,0-0.4-0.1c-3.1,5.3-6.2,10.6-9.3,15.9c-0.3-0.4-0.3-0.7-0.2-0.9c2.3-4.8,4.6-9.7,7-14.5
	c1.9-4,3.8-8,5.7-12c0.2-0.4,0.3-1,0.4-1.5c-1.4-0.2-2.6-0.2-3.9-0.4c-4.1-0.7-6.9-3.7-6.9-7.9c0-5.1,1.9-9.4,5.8-12.7
	c2.4-2,5.1-2.7,8-1.1c0.3,0.2,0.6,0.2,1.2,0.4c-0.3-4.4-0.7-8.6-1-12.8c0-0.6-0.1-1.3,0.1-1.8c0.6-1.6,1.4-3.1,2.1-4.6
	c2.3-5.2,4.3-10.5,5.4-16.1c0.4-2.1,1-4.2,0.4-6.4c-0.4,0.1-0.7,0.1-1,0.2c-2.6,0.6-5.3,1.6-7.9,1.7c-5.1,0.1-10.3-0.2-15.4-0.7
	c-6.3-0.5-12.6-1-18.9-0.4c-2,0.2-4.1,0.2-6.1-0.1c-7.4-0.8-14.8-1.8-22.1-2.6c-2.8-0.3-5.7-0.4-8.7-0.7c-1.2,3.6-2.4,7.3-3.7,11
	c2.3,0.7,3.8,2,5,3.6c2.5,3.5,2.7,11.8-0.9,15.3c-1.5,1.5-3,2.9-4.7,4.5c0.6,3.1,1.3,6.5,2,9.8c-0.1,0-0.3,0.1-0.4,0.1
	c-0.8-1.9-1.6-3.8-2.4-5.7c-0.9,6.7-2.6,13.2-3.2,20.2c3.7-1.4,5.8,0.3,7.3,2.9c1.1,1.9,2.1,3.8,2.8,5.9c1.1,3.1,0.5,6.2-1.5,8.8
	c-1.9,2.5-4.8,3-7.5,1.4c-0.5-0.3-1-0.6-1.8-1.2c0.3,6,1.1,11.5,4.1,16.4c2.2,3.7,4.6,7.2,6.8,10.9c1.1,1.9,2.2,3.9,2.8,6.1
	c1.6,5.6,2.7,11.3,3.3,17.2c0.1,1.4,0.4,2.8,0.5,4.3c0.4-0.1,0.7-0.2,0.9-0.3c4.1-1.7,6.5-1.1,9.2,2.4c0.8,1.1,1.6,2.3,2.1,3.6
	c1.2,3.1,0.2,6.1-2.7,7.6c-1.3,0.7-2.8,1-4.2,1.2c-1.2,0.1-2.4-0.2-3.8-0.4c1,4.9,2.2,9.7,3,14.6c0.8,5,0.9,10-0.1,14.9
	c4,3.5,8.8,3.7,13.2,4.4c2.2-1.8,4.2-3.5,6.2-5.2c-0.1-0.1-0.1-0.2-0.2-0.3c-0.5-0.2-1-0.4-1.5-0.6c-3.3-1.5-5.2-3.8-5.3-7.5
	c-0.1-3.7,1.7-6,4.9-7.5c3.2-1.5,6.5-2.1,10-1.3c2.9,0.6,5,2.4,6.5,5c0.6-0.6,1.1-1.1,1.5-1.6c5.4-6.1,9.4-13.2,13.3-20.2
	c0.7-1.3,1.2-2.7,1.4-4.2c1-6.6,1.9-13.2,1-20c-0.2-1.5-0.4-2.9-0.5-4.4c-0.2-2.7-0.4-5.3-0.6-8c-0.1,0.1-0.3,0.2-0.3,0.3
	c-0.3,0.7-0.6,1.4-0.9,2.2c-3.6,10.5-7.8,20.6-13.8,30c-2.8,4.3-5.5,8.7-9,12.5C254.2,582.8,249.4,585.8,243.4,586.5z M341.9,514
	c-1.1,0.4-1.9,0.7-2.8,0.9c-4.3,0.8-8.8-2.7-9.5-7.3c-0.5-3.2,0-6.2,1.6-9c2.4-4.2,7.2-5.8,11.7-3.9c0.3,0.1,0.5,0.2,0.8,0.3
	c0.8-5.4,1.8-30.1,1.3-32c-2.8,2.8-4.1,3.3-7.3,2.9c-5.3-0.7-8-6.2-5.6-10.9c2.2-4.3,8.6-7.1,14-3.6c0.5-11.5,0.8-23.1-3.6-34.4
	c-2,1.7-3.9,3.1-5.6,4.7c-4.9,4.6-10.8,7.1-17.2,8.3c-4.4,0.8-8.9,1-13.4,1.5c-1.7,0.2-3.3,0.3-4.8,0.5c-0.2,2.3-0.2,4.4-0.6,6.3
	c-1.4,6.8-4.2,13.2-7.3,19.3c-0.6,1.3-0.9,2.4-0.8,3.7c0.4,4.4,0.9,8.8,1.2,13.2c0.2,2.5,0.4,5,0.1,7.4c-0.4,4.2-1.3,8.3-3.2,12.1
	c-0.7,1.5-1.2,3.1-1.9,4.5c-2.3,4.3-2.5,9-2.8,13.8c-0.3,5.6-0.9,11.1-1.7,16.7c-0.6,4.4-1,8.7,0,13c1.3,5.8,1.1,11.6,0.6,17.4
	c-0.4,4.1-1.1,8.2-1.1,12.3c-0.1,5.9-0.7,11.8-1.7,17.6c-0.3,1.6-0.5,3.2-0.7,4.9c4,2.3,8.1,3.9,12.7,3.9c5,0,10-0.2,14.9-0.6
	c3.9-0.3,7.7-1,10.8-2.3c1-1.5,1.5-2.7,2.4-3.6c3.5-3.8,5.8-8.2,6.8-13.3c1.4-7.2,3.1-14.3,4.6-21.4c0-0.1-0.1-0.2-0.2-0.4
	c-0.6,0.1-1.2,0.3-1.8,0.4c-4.6,1-8-1.9-8.1-6.5c0-2.3,0.5-4.4,1.6-6.2c2-3.1,4.6-5.5,8.6-5.6c1.4,0,2.9,0,4.5,0
	C339.9,530.4,341.2,522.3,341.9,514z M379.7,215.9c0.1-10.2-4.3-17.6-13.6-21.9c-1.8-0.8-3.7-1.6-5.6-2.2c-3.1-1-6-2.6-8.7-4.3
	c-1.9-1.3-4-2.5-6-3.6c-2.1-1.1-3.3-0.5-3.6,1.8c-0.1,1.1-0.6,1.9-1.3,2.6c-3.4,4-7.1,7.5-11.6,10.4c-3.9,2.5-7,6-8.9,10.3
	c-2,4.7-4,9.5-6.5,13.9c-0.8,1.4-0.9,3-0.5,4.5c0.4,1.7,0.9,3.3,1.1,5c0.4,2.8,1.7,5.1,3.2,7.4c0.6,0.9,1.3,1.3,2.3,1.3
	c2.6,0,4.9,0.8,7,2.3c2.4,1.6,4.7,3.3,6.9,5.2c2.8,2.5,5.8,4.5,9.6,5c2.5,0.3,5,0.5,7.4,0.5c4.6-0.1,8.6-1.6,12.1-4.8
	c4-3.7,7.3-7.9,10.3-12.3C377.5,230.7,379.7,223.6,379.7,215.9z M262.8,187.4c-1,0.8-2,1.8-3.3,2.6c-1.5,0.9-2.1,2.1-2.4,3.7
	c-1.2,6.8-3.7,13.2-7.4,19c-1,1.6-1.7,3.3-1.9,5.2c-0.1,0.7-0.3,1.4-0.3,2.1c-0.2,2.9-0.9,5.8-0.4,8.6c1.1,5.8,3.6,11,7.7,15.5
	c1.6,1.8,2.8,3.9,4.3,5.8c0.4,0.5,0.9,1,1.5,1.3c1.5,0.7,3,1.3,4.5,1.8c2.4,0.8,4.8,1.8,7.3,2.2c3.4,0.5,7,0.6,10.5,0.6
	c2,0.1,4-0.2,5.8-1.4c0.5-0.3,1.2-0.3,1.8-0.4c1.7-0.3,3.5-0.6,5.2-0.9c0.2-0.8,0.2-1.3,0.4-1.8c1.6-4.1,4.6-6.8,9.7-4.9
	c0.8,0.3,1.6,0.7,2.3,1c0.5,0.2,0.9,0.5,1.3,0.7c0.1-0.2,0.2-0.3,0.2-0.3c0-0.7,0.2-2-0.2-2.1c-1.8-1-2.2-3.5-4.4-3.8
	c-1.2-0.2-2.3,0-3.5,0.7c-2.9,1.7-5.2,0.3-5.3-3.1c0-2.4,1.8-5.3,4.2-6.2c3.9-1.4,7.9-2.1,12.2-0.1c-0.4-1.9-0.7-3.7-1.2-5.4
	c-0.5-1.8-0.2-3.6,0.6-5.2c0.5-1,1-1.9,1.5-2.9c2.1-4.4,4.1-8.8,6.3-13.5c-3.5,0-5-3.1-7.6-4.3c-1.2,1.6-2.6,1.9-4.2,0.9
	c-2.3-1.4-4.6-2.6-7.4-2.4c-0.4,0-0.8-0.1-1.1-0.4c-1.5-1.6-3.8-1.5-5.6-2.6c-0.2-0.1-0.5-0.3-0.7-0.2c-2,1.4-3.3-0.4-4.8-1
	c-0.5-0.2-1.1-0.7-1.3-1.2c-0.2-0.6-0.1-1.3-0.1-2c-2.1,0.9-3.5-0.2-4.8-1.6c-2.4,1.2-2.3,1.1-4-0.8c-0.7-0.7-1.8-1.1-2.8-1.4
	c-0.8-0.3-1.8-0.2-2.7-0.3c0-0.6-0.1-0.9-0.1-0.9C269.5,187.8,266.4,187.6,262.8,187.4z M187.7,290.7c-0.1,0-0.3,0.1-0.4,0.1
	c0,0.6,0,1.2,0,1.7c-0.2,5-0.2,10-0.7,14.9c-0.3,3.7-1.1,7.4-1.8,11.1c-1.5,9-2.7,18-4.6,26.9c-3.1,14.3-5.7,28.7-7.8,43.1
	c-0.2,1.7-0.4,3.4-0.6,5.2c0.5-0.1,0.8-0.1,1.1-0.1c4.9-1.2,9.8-1.5,14.8-1.4c3.7,0.1,7.5,0.3,11.2,0.3c3.3,0,6.6-0.3,10.2-0.5
	c0-0.1,0.3-0.5,0.3-0.9c0.8-4.3,1.9-8.7,2.5-13c0.9-6.9,1.5-13.8,3.4-20.4c0.8-2.7,1.1-5.4,0.8-8.3c-0.3-3-0.4-6-0.6-9.1
	c-0.3-3.6-0.5-7.1-0.9-10.7c-0.1-0.7-0.5-1.5-1.1-1.9c-3-2.6-5.7-5.4-8.3-8.5c-6.8-8.1-12.1-17.1-16.7-26.6
	C188.3,291.8,188,291.2,187.7,290.7z M320.5,204.6c0.1,0.1,0.3,0.2,0.4,0.2c0.5-0.5,1-1,1.5-1.6c1.8-2.3,3.8-4.3,6.3-5.9
	c4.7-3,8.9-6.6,11.5-11.6c1.1-2.1,2.1-4.2,0.6-6.6c-2.6-4.2-4.9-8.7-7.5-12.9c-1-1.6-2.2-3.1-3.6-4.3c-5.1-4.4-10.8-7.9-17.5-9.4
	c-7.2-1.5-14.5-1.7-21.8-0.9c-5.6,0.6-11.1,1.6-16.6,2.6c-3,0.6-6.1,1.2-8.9,2.9c1.3,2.7,1.2,5.5,0.5,8.3c-0.5,2-1.1,4-1.7,6
	c0,0.1,0.2,0.2,0.3,0.3c0.4-0.2,0.7-0.5,1.4-0.9c-1.5,3.3-3,6.1-4.3,9.1c-1.3,2.9-2,6-2.8,9.5c3.9-3.4,6.8-7.2,9.3-11.2
	c1.4-2.3,3.1-4.3,5.6-5.5c0.5-0.2,1.1-0.2,1.6-0.3c-4.6,4-7.6,7.7-8.7,11.7c1.5-0.7,2.8-1.3,4-2.1c1.2-0.8,2.3-1.7,3.4-2.6
	c-1.2,3.6-4.6,4.7-7.2,6.8c1.2,0.2,2.4,0.3,3.5,0.2c2.1-0.3,4.3-0.4,5.9-1.8c1.5-1.3,2.8-2.9,4.1-4.4c0.5-0.5,0.9-1.1,1.4-1.7
	c-0.9,3.8-3.8,6.4-6.2,9.5c1.9,0.3,2.8-0.6,3.6-1.4c2.3-2.1,4.6-4.2,6.9-6.3c1.4-1.2,2.9-2.4,4.3-3.6c0.1,0.1,0.3,0.3,0.4,0.4
	c-3.3,4.1-7.6,7.3-11.1,11.3c0.5,0.8,0.9,1.4,1.4,2.2c1.5-1.2,2.6-1.1,3.9,0.5c1.2,1.5,3,1,4.2-0.7c0.2-0.3,0.4-0.7,0.5-1
	c1.5-3.1,3.1-6.3,4.6-9.4c0.2-0.4,0.5-0.7,0.7-1.1c0.1,0.1,0.3,0.1,0.4,0.2c-1.6,5.2-4.8,9.9-6,15.4c1.1,0.5,2,1,3.1,1.5
	c0.7-1.6,1.2-3,1.9-4.4c0.6-1.3,0.6-3,2.5-4c-0.1,3.1-1.4,5.5-1.8,8.3c1.9,0.7,3.6,1.3,5.6,2c0.5-2.4,0.7-4.7,1.4-6.9
	c1.3-4.1,1.9-4.7,3.5-5.8c-0.6,1.2-1.1,2.2-1.5,3.3c-1,2.5-1.6,5-1.6,7.7c0,0.9,0.2,1.7,1,2.2c1.4,0.8,2.8,1.6,4.5,1.8
	c0.5-7.2,2.1-12.5,4.1-14.2c0,0.3,0,0.5,0,0.7c-0.8,2.8-1.7,5.7-2.3,8.5c-0.3,1.6-0.1,3.2-0.1,4.9c0,0.9,0.5,1.4,1.5,1
	c1.2-3.9,1.8-8,3.6-11.6c0.2,0.1,0.4,0.1,0.6,0.2c-0.8,3.5-1.6,7-2.4,10.3c2,1.4,3.8,2.7,5.6,4c0.9-2.6,2.1-4.9,2.1-7.8
	c0-2.6,0.4-5.1,0.7-7.7c0.8,2.7,0.8,5.3,0.6,8C321.3,199.4,320.8,202,320.5,204.6z M233.4,228.2c0.4-0.3,0.7-0.4,0.8-0.6
	c1.8-2.5,3.5-4.9,6.4-6.4c0.3-0.1,0.4-0.4,0.6-0.7c1.5-1.7,2.9-3.5,4.4-5.1c4.6-5,7.3-11,8.8-17.5c2.2-9.6,4.9-19.1,8-28.5
	c0.7-2,1.2-4,1.6-6.1c0.2-1,0.5-2.4,0-2.9c-1.1-1.3-1.2-2.9-1.8-4.4c-0.8-2.1-2.6-3-4.7-2.5c-1.4,0.3-2.9,0.6-4.4,0.6
	c-5.7,0-11.2,1.2-16.6,2.9c-0.6,0.2-1.2,0.4-1.7,0.7c-1.6,0.7-2.8,1.8-3.5,3.5c-0.4,1-1.4,1.8-2.3,2.6c-0.8,0.6-1.7,1.1-2.6,1.6
	c-3.9,2.1-6.8,5.1-8.9,9c-0.7,1.3-1.5,2.5-2.2,3.9c-2.2,4.3-4.5,8.6-5.5,13.3c-1,4.7-1.2,9.4,1.2,13.8c1.9,3.6,4.6,6.4,7.8,8.9
	c4.7,3.6,8.8,7.7,12.5,12.1C232,227.1,232.8,227.7,233.4,228.2z M321.5,245.4c-2.3-0.9-5.5-4.2-6.4-5.9c-1-1.7-2.1-3.4-3.5-4.8
	c-0.7-0.8-2-1.3-3.1-1.3c-2.1,0-4.2,0.1-6.2,0.7c-3.3,0.9-5,4.3-4.1,7.5c0.8,0,1.6,0,2.5,0c0-0.4,0-0.6,0-0.8c0-0.2,0.1-0.4,0.1-0.7
	c1.9,0.1,3.7,0.3,5.9,0.5c0.6,0.8,1.6,1.8,2.5,2.9c0.9,1.1,1.8,2.2,2.6,3.2c-0.3,0.7-0.8,1.8-1.3,3.1c-0.9-0.3-1.9-0.6-2.8-0.9
	c-1.1-0.4-2.1-1-3.2-1.4c-3.4-1.1-7.6,2.6-7,6.1c0,0.2,0.1,0.5,0.2,0.6c0.8,1.1,1.6,2.2,2.4,3.3c1.1-0.2,2-0.4,3-0.6
	c-0.8-1.3-2.7-1.2-3-3.2c3,1.3,5.8,2.2,8.5,4.2c-2.1,0.2-3.7,0.3-5.3,0.4c-2.4,0.2-4.1,1.3-5,3.6c-0.5,1.4-0.4,2,1,2.5
	c2.7,1,5.4,2.2,8.5,1.4c0.5-0.1,1.2,0.1,1.7,0.4c2.6,1.5,5.2,2.9,7.6,4.6c4,2.9,8.1,5.5,12.6,7.5c1.2,0.5,2.3,1.3,3.4,2
	c0.3,0.2,0.7,0.4,0.9,0.7c0.8,1.8,1.4,3.7,2.2,5.5c2.2,5,4.4,9.9,6.7,14.9c2.5,5.3,5.8,10.1,10.2,14.1c1.5,1.4,3,2,5,1.8
	c2.6-0.3,5.3-0.4,7.9-0.6c2.4-0.1,4.7-0.1,6.6,2.2c1.5-4.6,2.6-8.9,2.4-13.5c-0.1-1.7-0.4-3.2-1.3-4.6c-5.5-8.3-10.9-16.6-16.5-24.9
	c-3-4.4-6.1-8.6-9.3-12.8c-2.7-3.5-6.1-6.4-9.8-8.9c-2.4-1.6-4.7-3.3-7-5c-3-2.2-6.1-4.4-9.7-5.6c-0.2-0.1-0.4,0-0.8-0.1
	C321,244.1,321.2,244.6,321.5,245.4z M339.3,400.6c-0.9,0.9-1.5,1.5-2.3,2.1c-1.5,1.3-3.1,2.6-4.7,3.8c-2,1.4-4,1.7-6.3,0.5
	c-3.2-1.7-6.6-2.6-10.2-3.2c-2.4-0.4-4.9-0.8-7.4,0.1c-8.7,3.2-17.6,6.1-25.9,10.5c-1.4,0.7-2.8,1.3-4.3,1.9c-2.1,0.9-4.2,1-6.4,0.7
	c-2.4-0.3-4.8-0.6-7.2-0.7c-4-0.1-7.9,0-11.9-0.2c-4.1-0.2-8.5,0.2-12.4-2.6c-0.7,5.4-1.3,10.6-2,15.9c1.4,0.2,2.8,0.4,4.2,0.6
	c4.6,0.8,9.2,1.3,13.9,1.1c1.9-0.1,3.7-0.4,5.6-0.3c7.6,0.4,15.2,0.9,22.8,1.5c3.5,0.3,6.8,0.1,10.1-1c2.4-0.7,4.8-1.2,7.3-1.5
	c2.8-0.4,5.6-0.3,8.4-0.6c3.2-0.3,6.4-0.6,9.4-1.3c6.7-1.6,12.7-4.6,17.7-9.5c1.3-1.3,2.9-2.3,4.5-3.2c0.9-0.6,1.1-1.3,0.9-2.1
	C342.2,408.9,341.2,404.8,339.3,400.6z M340.9,395c1.7-1.5,3.3-2.9,4.9-4.2c0.7-0.6,0.8-1.3,0.7-2.1c-0.2-1.6-0.4-3.2-0.6-4.9
	c-0.5-5.8-1.5-11.4-4.3-16.6c-1.4-2.6-1.8-5.4-2.2-8.3c-0.6-5.6-1.2-11.1-2-16.7c-0.9-6.4-3.3-12.3-6.3-18
	c-2.9-5.5-5.3-11.3-7.2-17.2c-1.4-4.4-2.6-8.8-4.2-13.1c-0.9-2.4-2.5-4.6-3.9-6.9c-0.3-0.5-1.1-0.9-1.7-1c-3.8-0.1-7.6-0.2-11.4-0.1
	c-3.6,0.1-7.2,1-10.7,2.5c2.8,5,5.4,10,8.2,14.8c6.4,11.1,12.9,22.2,18.8,33.6c8.8,17.3,15.8,35.3,20.6,54.1
	C340.1,392.4,340.5,393.6,340.9,395z M276.3,297.8c-1.1,0.3-2.1,0.6-3.1,0.9c-3,0.9-5.9,1.9-8.5,3.7c-1.2,0.9-1.3,1.7-0.5,2.9
	c0.8,1.2,1.8,2.4,2.4,3.7c2.4,5.5,5,11,6,16.9c1.6,9.3,3,18.6,4.2,27.9c1.2,9.5,2.8,18.9,5.8,28c2.3,7.1,4.4,14.3,5.3,21.7
	c0.2,1.9,0.4,3.8,0.7,5.8c0.7-0.2,1.1-0.4,1.5-0.5c4-1.5,8-3,12-4.4c2.2-0.8,2.7-1.1,2.6-3.4c-0.1-2.6-0.2-5.1-0.6-7.7
	c-1.4-7.8-3.9-15.4-7.5-22.5c-5.2-10.3-8.6-20.9-8.3-32.7c0.1-5-0.7-10-2.4-14.7C282.9,314.9,279.6,306.4,276.3,297.8z M263.9,306.7
	c-0.2,0-0.4,0-0.6,0.1c-0.1,0.4-0.3,0.9-0.4,1.3c-2.1,10.3-4.1,20.6-6.2,30.9c-0.2,0.9-0.1,2,0.1,2.9c0.4,2.2,1.1,4.4,1.6,6.6
	c1.6,6.7,3.6,13.2,4.2,20.1c0.7,8.3,2.6,16.4,4.8,24.4c1.7,6.2,2.7,12.5,2.3,18.9c-0.1,1,0,2,0,3c3,0.9,5.8,0.8,8.6-0.5
	c2-1,4-2,6.1-2.8c1.7-0.7,2.3-1.8,2.2-3.6c-0.3-4.9-0.7-9.8-2.1-14.5c-1.8-5.9-3.5-11.8-5.3-17.6c-2.7-8.7-3.5-17.7-4.7-26.6
	c-1.4-11-2.6-22.1-6.7-32.6C266.5,313.3,265.2,310,263.9,306.7z M306.9,402.5c3.1-1.1,6.2-2.1,9.3-3.2c0.4-0.1,0.8-0.6,0.9-1
	c0.4-2.3,1.1-4.5,0.8-6.9c-0.5-3.4-1.2-6.8-2.6-9.9c-1.8-3.7-3.6-7.4-5.6-11c-3.2-5.4-5.6-11.1-6.6-17.3c-1.1-6.8-2.2-13.7-3.2-20.5
	c-1.7-11-4.4-21.7-9.2-31.9c-3.3-7-5.8-14.3-6.9-21.9c-0.4-2.3-1-4.6-1.3-6.9c-0.4-3.3-2.3-5.3-5.1-6.6c-0.6-0.3-1.2-0.7-1.9-0.9
	c-0.8-0.2-1.6-0.3-2.4-0.4c-0.6,2.9-1.1,5.6-1.8,8.2c-0.4,1.5-0.3,2.9,0.2,4.3c2.6,7.6,5.2,15.3,7.8,23c1.6,4.7,3.4,9.4,5.1,14
	c1,2.7,2.1,5.4,3,8.1c2.3,6.7,2.8,13.7,3.2,20.7c0.2,2.9,0.4,5.7,0.8,8.6c1.1,6.7,3.9,12.8,6.9,18.8c3.4,6.8,5.9,13.9,7.4,21.3
	C306.2,394.7,306.4,398.5,306.9,402.5z M283.1,626.1c-0.2,0-0.3,0-0.5,0c-1.4,2.9-2.7,5.7-4,8.6c-1,2.3-1.7,4.7-1.7,7.2
	c0,5.4,0,10.7-0.1,16.1c0,1.7,0.7,2.8,2,3.7c2.4,1.7,5,3,7.9,3.9c2,0.6,4,1.3,5.9,2.2c2.7,1.2,4.4,3.4,4.3,6.4
	c-0.1,2.1,0.8,3.6,1.8,5.3c2.1,3.8,5.3,6.5,9.4,7.9c1.7,0.6,3.4,1.1,5.1,1.5c6.2,1.4,12.5,1.6,18.8,0.9c3.8-0.4,7.4-1.6,10.7-3.7
	c2-1.2,2.4-2.1,1.5-4.3c-0.6-1.5-1.4-3-2.5-4.2c-4.1-4.9-8.2-9.8-13.2-13.8c-0.7-0.5-1.3-1.1-1.9-1.7c-1-1.1-2.2-1.6-3.7-1.7
	c-1.9-0.1-3.7-0.3-5.6-0.5c-2.6-0.3-5,0.4-7.5,1.5c0.5,2.9-1.1,4.3-3.3,5.3c-1.7,0.8-3.3,1.8-4.8,2.8c-2,1.3-2.4,1.3-3.7-0.7
	c-2.2-3.5-5.4-5.6-9.2-6.8c-2-0.6-3-1.7-3.5-3.6c-2-7.7-3.8-15.5-2.4-23.6C283.5,632.1,283.1,629,283.1,626.1z M171.2,416.2
	c0,1.4-0.1,2.4,0,3.5c0.4,4.8,1,9.6,1.2,14.4c0.1,2.9-0.1,5.9-0.7,8.8c-1,4.8-2.5,9.4-3.5,14.2c-0.6,2.9-0.9,6-0.3,9
	c0.1,0.4,0.3,1.1,0.5,1.1c0.9,0.1,0.8,0.7,1,1.3c1.1,3.1,2.2,6.3,3.5,9.3c0.9,2,2.5,3.4,5,4.4c-0.6-1.2-0.9-2.1-1.3-2.9
	c-1.7-3.6-3.5-7.1-4.2-11.1c-0.1-0.3,0.1-0.7,0.2-1.1c2.2,4.9,4.5,9.7,6.5,14.5c0.9,2,2.5,3.1,4,4.4c0.5,0.4,1.4,0.6,2.2,0.6
	c1.6,0,3.2-0.2,5-0.4c-1-2-2.2-3.6-4-4.4c-2.6-1.2-3.7-3.3-3.9-5.9c-0.3-3.2-0.1-6.4-0.2-9.5c0-2.1,1-3.5,2.6-4.7
	c0.8-0.6,1.5-1.2,2.2-1.8c-0.4-1.5-0.8-2.8-1.2-4c-0.1-0.3,0.1-0.7,0.3-1.6c2,6.1,5.9,10.6,8.6,15.5c1.5-0.8,2.8-1.4,4.1-2.1
	c-0.1-0.2-0.1-0.5-0.2-0.8c-1.9-4.5-3-9.3-3.4-14.2c-0.1-1.2-0.2-2.5-0.7-3.6c-1.3-3.1-2.7-6.1-4.1-9.1c-1.1-2.3-1.9-4.6-1.7-7.2
	c0.3-2.7,0.7-5.3,1-8.2c0,0-0.3-0.2-0.5-0.3c-4.3-1.3-8.2-3.3-11.8-5.9C175.8,417,173.7,416.6,171.2,416.2z M245.1,711.2
	c5.1-0.1,10.1-0.3,14.9-2.1c4.4-1.6,7.8-4.5,9.4-9.1c0.3-0.7,0.3-1.7,0.1-2.4c-0.6-2.5-1.3-4.9-2-7.4c-0.1-0.4-0.2-1-0.5-1.2
	c-1.9-1.4-3.7-3-6.3-3.2c-4.8-0.5-5.3-1.7-5.7-5.3c-0.1-1.2-0.7-1.8-1.8-2.1c-2.2-0.7-4.5-1.2-6.9-1.1c-2.1,0.1-3.9,0.2-4.3,2.8
	c0,0.3-0.3,0.5-0.4,0.8c-1,2-2.5,3.1-4.9,3.5c-3.1,0.5-6,1.4-9,2.2c-1.2,0.3-2.1,0.9-2.4,2.2c-0.8,3.2-1.5,6.5-2.4,9.7
	c-0.4,1.6,0.1,2.8,0.9,4.1c3,4.5,7.1,7.3,12.5,8C239.4,710.8,242.2,711,245.1,711.2z M229.4,291.6c0,1.9,0,3.6,0,5.3
	c-0.2,9.2-0.5,18.3-0.6,27.5c0,5.4-1.1,10.6-3,15.7c-1.5,4.1-3.8,7.4-7.6,9.6c-0.1,0.1-0.2,0.2-0.3,0.5c0.1,0.8,0.2,1.7,0.3,2.6
	c1.2,7.4,1.3,14.7-0.7,21.9c-0.3,1-0.4,2-0.6,3c-1.1,7.7,0.4,15.4,0.6,23c0,1,0.6,1.7,1.5,1.8c2.5,0.2,5.1,0.4,7.6,0.6
	c0.1-0.5,0.2-0.8,0.2-1.1c0.4-9.2,0.9-18.5,1.3-27.7c0.3-6.8,1.1-13.4,2.2-20.1c1.8-11,3.3-22.1,4.9-33.2c0.8-5.5,1.2-11,1.9-16.4
	c0.5-4.1,1.1-8.1,1.7-12.3C235.7,292,232.7,291.8,229.4,291.6z M318.6,398.2c2.9-0.7,7.1-3.1,8.3-5.1c1.1-1.8,2.2-3.7,1.4-6.1
	c-0.4-1.3-0.3-2.9-0.2-4.4c0.7-6.4-0.9-12.2-4-17.7c-2.6-4.5-5.5-8.8-8.4-13.1c-2.9-4.3-5.2-8.8-6.4-13.9
	c-1.8-7.9-3.7-15.7-6.3-23.4c-1.4-4.1-2.6-8.3-5-12c-1.4-2.2-2.6-4.6-3.9-6.9c-0.3-0.5-0.7-1-1-1.5c-1.1,0.2-2.1,0.3-3.4,0.5
	c0.9,2.2,1.6,4.4,2.6,6.3c4.7,9.5,7.2,19.7,8.8,30.1c1,6.2,1.8,12.4,2.8,18.7c1.2,7.8,3.7,15.1,8,21.7c0.8,1.2,1.4,2.4,2.1,3.6
	c2.4,4.6,4.3,9.3,5.1,14.4C319.6,392.4,319.5,395.3,318.6,398.2z M167.2,414c0.3-0.1,0.6-0.1,0.7-0.2c4.6-2.5,9.3-3.2,14.4-2
	c1.4,0.3,3.2,0.3,4.6-0.2c3.7-1.3,7.4-1.7,11.2-0.9c0.6,0.1,1.2,0.2,1.9,0.2c2.1,0.1,4-0.5,5.4-2.3c0.6-0.8,1.3-1.6,2-2.4
	c-0.1,2.7-1.5,4.5-3.7,5.9c4.3,1,6.3,0.8,9.7-1c0.8-0.4,1.1-0.9,1.3-1.8c0.3-1.7,0.8-3.3,1.1-5c0.1-0.7,0.2-1.4,0.2-2
	c-0.1-2.7-1.7-4.6-3.3-6.4c-1.2-1.4-2.8-2.3-4.9-2.2c-2.9,0.2-5.9,0.1-8.8,0.1c-5.4,0-10.7-0.1-16.1,0c-4.2,0.1-8.4,0.6-12.3,2.2
	c-3.7,1.5-6.3,3.7-6.2,8c0,1.2-0.1,2.5,0,3.7C164.5,410.3,165.1,412.5,167.2,414z M244.2,219.7c-1.4,1.2-2.6,2.5-4,3.5
	c-0.9,0.7-1.4,1.5-1.8,2.6c-1.5,4.2-3,8.3-4.7,12.4c-1.4,3.4-3.6,6.3-6.6,8.7c-2.8,2.3-5.5,4.6-8.1,7c-0.9,0.8-1.8,1.8-2.5,2.7
	c-2.6,3.4-4.4,7.3-6,11.3c-1.9,4.7-2.7,9.6-1.9,14.6c0.6,3.4,0.9,6.8,2.5,9.9c1.8,3.5,3.3,7.2,4.1,11.1c0.1,0.6,0.4,1.1,0.5,1.7
	c0.4-0.8,0.5-1.7,0.7-2.5c0.3-1.8,0.5-3.7,0.8-5.5c2-9.4,5.4-18.3,9.5-27c0.2-0.4,0.3-0.9,0.3-0.8c-1.7,1.5-3.7,3.4-5.8,5.1
	c-2,1.7-3.6,3.9-5.9,5.2c3.3-4.1,6.8-7.9,10-12c3.6-4.6,7.7-8.9,10.3-14.3c2.6-5.4,4.5-10.9,4.8-16.9c0.1-2.9,0.6-5.9,1.2-8.8
	C242.4,225.1,243.3,222.5,244.2,219.7z M255.6,344c-0.2,0.7-0.4,1-0.5,1.4c-2.5,9.5-5,19.1-7.5,28.6c-0.6,2.1-0.6,4,0.1,6.3
	c2.9,9,4.4,18.2,4.5,27.7c0,2.1,0.1,4.2,1.1,6.2c4.8,0.1,9.6,0.2,14.5,0.4c0.1-0.8,0.1-1.4,0.2-2.1c0.5-7.6-1.1-14.8-2.9-22.1
	c-1.3-5.3-2.6-10.6-3.4-15.9c-0.8-5.9-1.5-11.9-3-17.7C257.6,352.7,256.7,348.5,255.6,344z M208.6,267.9
	c-6.3,4.2-19.4,16.6-20.8,19.8c7.2,15.6,22.1,36.2,26.2,38.6c0.3-2.7,0.5-5.5,0.8-8.2c0.5-4.2,0.8-8.2-0.3-12.4
	c-0.9-3.2-2.3-6.1-3.6-9.1c-2.4-5.5-4.1-11.2-4.2-17.3C206.6,275.4,207.3,271.8,208.6,267.9z M222.5,285.7c3-0.8,5.6-1.7,8.2-2
	c4.5-0.4,9-0.6,13.5-0.5c7,0.1,13.9-1.5,20.9-2c0.3-3.1,0.4-6-0.7-8.8c-1.2-3.3-2.7-6.6-4.1-9.9c-0.2-0.6-0.6-1.2-1.1-1.5
	c-1.6-1.1-3.2-2.2-4.9-3.1c-3.1-1.7-6.3-1.6-9.2,0.6c-1.1,0.8-2.2,1.7-3.3,2.6c-2.1,1.8-4.1,3.6-6.2,5.3c-1.8,1.4-3.9,2.6-6.4,2.2
	C226.9,274.1,224.4,279.6,222.5,285.7z M285.1,613.9c-0.2,2.7-0.6,5.1-0.7,7.6c-0.1,5.2-0.1,10.4-0.2,15.6c0,2.2-0.2,4.4,0.1,6.7
	c0.6,4.7,1.3,9.4,2.7,14c0.4,1.4,1.2,2.2,2.5,2.7c4,1.5,7.5,3.7,9.9,7.4c0.2,0.3,0.5,0.5,0.6,0.6c2.4-1.2,4.6-2.4,6.8-3.4
	c1.4-0.6,1.9-1.6,1.8-3.1c-0.3-2.5-0.4-5-0.7-7.4c-0.4-4.1-1.4-8.1-3.3-11.8c-1.2-2.4-1.8-5.1-2.7-7.7c-0.2-0.5-0.4-0.9-0.7-1.6
	c-0.3,0.8-0.6,1.3-0.8,1.8c-1.4,4-2.7,8.1-4.2,12.1c-0.7,1.9-1.6,3.9-2.7,5.6c-0.9,1.4-1.9,1.4-2.8,0.1c-2-3-3.8-6-5.6-9.2
	c-0.6-1.1-0.6-2.5,0.4-3.5c3.4-3.3,6.3-7.1,10.4-9.6c1.2-0.8,2.4-1.6,3.8-2.5c-1.7-1.7-1.8-3.6-1.8-5.7c0-1.6-0.4-3-1.5-4.3
	c-0.7-0.9-6.8-4.4-7.9-4.4C287.6,613.8,286.5,613.9,285.1,613.9z M276.7,603.7c3.7,1.4,6.1,3.7,7.7,7c0.7,1.4,2,1.6,3.4,1.5
	c1.4-0.1,2.8-0.2,4.2-0.4c5.3-0.8,10.7-1,16,0.1c1.5,0.3,3.2,0.2,4.6-0.3c3.7-1.3,7.3-2.6,11.2-3.1c1.2-0.2,2-0.8,2.4-1.9
	c0.8-2.4,1.8-4.8,2.5-7.3c0.7-2.6,1-5.3,0.9-8.1c-0.4,0.2-0.6,0.2-0.8,0.4c-3.9,3.7-8.7,5.7-13.9,6.7c-6.7,1.3-13.5,1.9-20.4,1.6
	c-3.9-0.2-7.5-1.1-11-2.7c-0.8-0.4-1.5-0.7-2.5-1.1C280,598.9,279.1,601.6,276.7,603.7z M323.8,285c-2.2,0.3-4.3,0.6-6.3,0.9
	c1.4,2.7,2.9,5.2,4,7.8c1.3,3.2,2.4,6.6,3.3,9.9c1.8,7,4.6,13.7,7.9,20.1c2.5,4.8,4.7,9.7,5.7,15c1.1,6,1.8,12,2.4,18
	c0.4,3.7,0.9,7.3,2.6,10.6c2.5,4.8,3.6,9.9,4,15.2c0.1,1.6,0.4,3.3,0.6,4.9c0.2,0,0.4,0,0.6,0c0.2-0.9,0.5-1.9,0.6-2.8
	c0.6-4.2-0.3-8.2-1.1-12.2c-1.2-6-2-12-1.3-18.1c0.5-4.2,1.1-8.3,2-12.4c0.4-1.9,0.1-3-1.6-4c-2.2-1.4-4.3-3.1-6.3-4.8
	c-3.5-3.2-6-6.9-6.5-11.8c0-0.5-0.2-0.9-0.2-1.4c-0.1-1.4-0.3-2.8-0.1-4.1c0.2-1.5,0.8-3,1.1-4.1C329,303.7,325.9,294.7,323.8,285z
	 M227.9,291.7c-2.1-0.3-4.1,0.4-6.1,0.8c-1.1,0.2-1.7,0.7-1.9,1.8c-0.5,2.5-1.1,5-1.5,7.5c-0.4,2.4-0.4,4.8-0.7,7.2
	c-0.5,4-1.4,7.9-1.7,11.9c-0.3,2.8-0.2,5.6,0.2,8.3c0.4,2.8,0.8,5.5,0.8,8.3c0,3.3,0.4,6.6,0.7,10c2.5-1.3,3.9-2.3,4.6-4.2
	c1.5-3.7,3.1-7.5,4-11.4c0.8-3.4,0.8-6.9,0.9-10.4C227.5,311.6,227.7,301.8,227.9,291.7z M304.7,314.3c-0.1,0-0.2,0.1-0.3,0.1
	c0.1,0.4,0.2,0.7,0.3,1c2.4,6.2,4.2,12.5,5.5,19c1.4,6.8,4.2,12.9,8.3,18.6c2.7,3.7,5.2,7.6,7.3,11.6c3.1,5.8,5,11.9,3.8,18.6
	c-0.2,0.9,0,1.9,0,2.8c0.2,0.1,0.4,0.1,0.5,0.2c0.2-0.5,0.4-0.9,0.5-1.4c0.2,0.2,0.4,0.3,0.6,0.5c-0.5,2-1,4.1-1.6,6
	c-0.5,1.4-0.6,2.8-0.2,4.3c0.4,1.4,0.7,2.9,0.8,4.3c0.1,2.2-0.7,4-2.6,5.5c1.7,0.6,2.9,0,3.9-0.8c2.4-2,4.6-4.2,6.9-6.2
	c0.9-0.8,0.9-1.7,0.6-2.7c-2.5-9.6-5.2-19-8.6-28.3c-6.6-17.9-15.3-34.9-24.8-51.3C305.5,315.4,305.1,314.8,304.7,314.3z M259.3,613
	c-1.8,2.3-4,2.7-6.4,1.7c-0.9-0.4-1.8-0.9-2.7-1.3c-3-1.5-6.2-2.6-9.5-2.9c-3.2-0.3-6.1-1.4-8.6-3.3c-1.7-1.2-3.1-2.8-4.6-4.3
	c-1.3-1.4-2.5-2.9-3.9-4.4c-0.5,0.8-1,1.3-1.2,1.9c-0.8,3.1-1.6,6.3-2.4,9.5c-0.2,0.9,0.2,1.7,1,2.1c1.7,1,3.4,1.9,5.1,2.9
	c1.9,1,3.8,1.1,5.9,0.6c2.4-0.5,4.9-0.8,7.4-1.1c0.7-0.1,1.4,0.1,2,0.3c4.3,1.5,8.5,3,12.7,4.5c3.6,1.2,7.3,1.3,11,0.8
	c1.3-0.2,2.4-0.8,3.1-1.9c1.6-2.4,3.1-4.8,4.7-7.2c-0.5-0.8-0.9-1.5-1.4-2.2c-1-1.4-2.3-2.3-4-2.5c-2.8-0.2-5.6-0.3-8.3,0.6
	c-3.2,1.1-6.3,2.4-9.6,3.7C252.5,612.9,255.7,614,259.3,613z M296,254.5c-1.6,0.4-3.3,0.7-4.9,1.1c-1.3,0.3-2.4,0.9-3.3,2
	c-2.5,2.9-2.6,6.4-2.3,9.9c0.1,1.8,0.4,3.5,0.7,5.3c0.3,2,1,3.8,2,5.7c2.3-0.3,4.4-0.8,6.5-0.8c4.6,0,9.2,0.4,13.7,0.3
	c4.9-0.1,9.7-0.4,14.6-0.7c0-0.4,0-0.5-0.1-0.5c-4.3-3-8.7-6-13-9c-0.5-0.3-1.2-0.6-1.7-0.5c-3.5,1.1-6.5-0.7-9.7-1.6
	c-1.6-0.4-2.2-1.7-1.7-3.3c0.5-1.7,1.3-3.2,2-4.9C298,256.7,296.9,255.6,296,254.5z M358.2,327.5c1.2,0.9,2.1,1.7,3.1,2.5
	c1,0.8,2,1.7,3,2.5c1.5,1.2,1.7,1.4,2.3,2.7c-3-2-5.8-4-8.8-5.9c-0.3,0.6-0.5,1-0.7,1.4c-0.4-0.1-0.7-0.2-1.1-0.3
	c-2,3.5-2,4.5,0.2,7.7c0.9,1.3,1.9,2.5,2.4,4c0.8,2.2,2.5,2.9,4.5,3.4c6,1.5,12,1.3,17.9-0.5c-0.1-3-1.5-5.5-3.1-7.9
	c-2.1-3.2-3.6-6.5-4.7-10.1c-0.5-1.6-0.8-3.3-1.2-5.1C367,322.2,362.1,323.4,358.2,327.5z M217.7,403.7c-1.3,3.8-1,5.8-0.3,8.9
	c1.1,4.8,2.2,9.7,3.4,14.5c0.1,0.3,0.2,0.5,0.3,0.8c0.7,0.1,1.3,0.4,1.9,0.4c3.9,0,7.8,0,11.6,0c0.3,0,0.6-0.1,0.9-0.2
	c1.1-0.2,1.5-0.8,1.6-1.9c0.7-5.8,1.5-11.5,2.3-17.3c0.2-1.7,0.4-3.3,0.6-5.3C232.4,405.1,225.1,405.5,217.7,403.7z M271.8,606.6
	c1.1-1.2,1.9-2.4,3-3.3c2.7-2.1,4.2-4.8,4.8-8c1-5.9,1.9-11.8,2.8-17.7c0.3-1.9,0-3.9,0-6c-0.3,0.3-0.5,0.3-0.5,0.4
	c-0.3,0.5-0.6,1.1-0.9,1.6c-4,6.6-7.8,13.2-13.1,18.9c-5,5.4-10.6,10.1-16.5,14.4c-0.8,0.6-1.6,1.2-2.4,1.8c0.1,0.2,0.2,0.3,0.3,0.5
	c1.1-0.5,2.3-0.9,3.4-1.4c2.8-1.3,5.6-2.8,8.7-3.1C265,604.3,268.7,603.8,271.8,606.6z M348,335.8c-1.8-8.1,2.6-12.7,8.8-16.5
	c-3.1-0.7-6.1-0.4-8.8-1.8c0-0.2,0.1-0.4,0.1-0.6c1.6,0.1,3.2,0.2,4.8,0.3c-4.4-4.4-7.8-9.3-11-14.4c-1.4,2.7-2.7,5.1-3.8,7.5
	c-0.9,2-1.7,4.2-2.3,6.3c-0.5,2,0.1,2.9,2.1,3.5c2.8,0.8,5.6,1.1,8.5,0.7c0.4-0.1,0.8,0,1.5,0c-2.4,1.3-6.4,1.6-11.9,0.9
	C337.4,328.7,342.7,332.2,348,335.8z M237.6,629.4c2.4,2.2,1.9,5.1,1.9,7.8c0,3.3,1.1,6.3,2.5,9.1c1.2,2.4,3.2,3.4,5.9,3.1
	c1.8-0.2,3.5-0.6,5.3-0.8c1.8-0.2,2.7-1.3,3.3-2.8c1-2.6,1.4-5.3,1.3-8c-0.1-2.4,0.5-4.6,2-6.6c1.2-1.6,1.6-3.4,1.4-5.4
	c-0.5,0.8-0.9,1.6-1.5,2.1c-1.1,1-2.2,2.2-3.6,2.9c-2.8,1.4-5.8,1.7-8.9,1.4C243.9,631.9,240.8,630.9,237.6,629.4z M385.7,301.7
	c-0.2,0.1-0.3,0.2-0.5,0.3c-1.5-3.6-3.2-7.1-6.5-9.4c-3.2-2.2-6.7-3.6-11-4.5c0.8,1.4,1.4,2.3,1.9,3.2c1.4,2.4,2.8,4.8,4.2,7.2
	c0.5,0.8,0.7,1.8,1.3,2.5c1.1,1.2,1.6,2.7,1.6,4.3c0,2.4-0.2,4.8-0.3,7.2c0,0.5,0,1,0,1.4c2-0.2,3.8-0.4,5.6-0.7
	c0.8-0.1,1.7-0.2,2.5-0.5c3.7-1.6,7.3-3.3,11.2-5c-3.6-3.2-7.1-6.4-10.6-9.5c-0.1,0.1-0.2,0.2-0.3,0.3
	C385.2,299.5,385.5,300.6,385.7,301.7z M345.2,687.1c-0.5,0.3-0.9,0.6-1.4,0.7c-2.7,1.1-5.2,2.5-8,3.1c-9.9,1.9-19.7,1.5-29.1-2.3
	c-3.5-1.4-6.4-3.5-8.3-6.8c-0.2-0.3-0.5-0.5-0.8-0.9c-0.7,5.8,0.6,8.6,5.1,11.8c2.3,1.6,4.8,2.6,7.4,3.2c6.8,1.6,13.7,1.6,20.7,1.5
	c3.8-0.1,7.4-0.7,10.7-2.6C344.2,693.4,345.8,690.3,345.2,687.1z M382.4,345.6c7.1-4.8,11.4-17.2,8.4-25.8c-0.1,3.2-0.5,6.4-1.3,9.5
	c-0.2-1.5-0.1-3-0.2-4.4c0-1.6-0.1-3.2-0.1-4.8c-3.3,0.2-6.3,0.2-9.4,0.5c-2.2,0.2-4.3,0.7-5.9,2.5c1.4,4.5,3.1,8.8,5.5,12.8
	C381.1,338.8,382.8,341.7,382.4,345.6z M234,616.9c0.1,1.3,0.2,2.4,0.4,3.4c0.1,0.7,0.3,1.4,0.4,2.1c0.4,2.5,1.3,4.7,4.2,5.5
	c0.4,0.1,0.8,0.4,1.2,0.6c3.3,1.6,6.7,2.3,10.4,2.1c5.9-0.4,9.1-3,10.6-8.4c-4.5,0-8.7-1.6-12.8-3.1c-1.5-0.6-3.1-1.1-4.6-1.7
	C240.5,616.3,237.3,616.2,234,616.9z M243.8,657.7c-4.2,4.2-8,8.2-12.1,11.9c-2,1.9-3.3,3.9-3.6,6.7c-0.3,3-1,6-1.5,9.1
	c3.5-1,6.8-2,10.1-2.7c1.8-0.4,3-1.3,3.7-2.8c0.4-1,0.9-2,1.1-3.1c0.5-3.4,0.9-6.8,1.3-10.2C243.1,663.8,243.4,660.9,243.8,657.7z
	 M222.7,541.1c-0.1,0.2-0.1,0.4-0.1,0.6c-0.2,5.1-0.1,10.3-0.5,15.4c-0.4,5.5-0.1,10.8,1,16.2c1.4,6.5,2.4,13.1,3.6,19.7
	c0.3,2,0.6,4-0.7,5.9c1.5,1.6,2.9,3.1,4.4,4.7c0.3-0.4,0.5-0.6,0.5-0.8c0.1-0.7,0.3-1.4,0.3-2.1c0.2-5-0.1-9.9-1.2-14.8
	c-0.9-4.2-1.9-8.4-2.4-12.6c-0.7-5.9-1-11.9-1.6-17.9C225.4,550.6,224.4,545.8,222.7,541.1z M222.4,702.5c-1.5,3.5-0.8,6.5,1.8,8.6
	c5.6,4.4,12,6.5,19,6.7c6.2,0.2,12.2-1.1,18.2-2.7c2.6-0.7,4.9-2.1,6.8-4c1.9-2,2.4-4.6,1.3-6.7c-2.9,3.7-6.6,6.1-11.2,7.1
	c-7.5,1.7-15,1.7-22.5,0.6c-5.5-0.8-9.7-3.6-12.5-8.5C223.1,703.3,222.8,703.1,222.4,702.5z M254.5,658c0,2-0.1,3.6,0,5.2
	c0.3,3.1,0.9,6.1,1.3,9.2c0.4,2.9,0.7,5.9,1.1,8.8c0.3,2.1,0.6,2.4,2.6,2.7c2.6,0.4,5.2,0.8,7.3,2.8c0.1-0.5,0.2-0.7,0.2-0.9
	c0.1-3.6,0.1-7.1,0.1-10.7c0-0.3,0-0.6-0.1-0.9c-1.4-3.2-2.6-6.5-5-9.2c-2-2.2-4.1-4.3-6.2-6.4C255.7,658.3,255.2,658.3,254.5,658z
	 M250.9,414.3c-0.6-11.5-1.3-22.8-4.7-34.1c-0.2,0.7-0.3,1.1-0.4,1.5c-2.3,9.5-3.6,19.2-5,28.9c-0.2,1.4,0.4,2.1,1.5,2.5
	C245.2,414.1,248.1,414.4,250.9,414.3z M292.7,480.4c-0.1-1.1,0-2.2-0.2-3.2c-0.1-0.6-0.4-1.2-0.8-1.5c-1.9-1.6-4.7-1.6-6.7-0.2
	c-3.3,2.5-5.2,5.9-5.9,10c-1,6,3.9,9,8.9,8.2c0.5-0.1,1.2-0.5,1.4-1C291.2,488.7,293,484.8,292.7,480.4z M291.3,286.9
	c0.5,0,0.7,0,0.8-0.1c5-2.2,10.3-2.9,15.7-2.6c3.9,0.2,7.7,0.1,11.6-0.4c3.1-0.4,6.2-0.5,9.3-0.6c1.5,0,3,0.3,4.9,0.5
	c-0.6-1-0.8-2.2-1.4-2.6c-1.9-0.9-3.8-1.9-5.8-2c-3.3-0.2-6.7,0-10,0.3c-3.6,0.4-7.1,0.5-10.7,0.2c-5.6-0.5-11.3-0.5-17.1,0.6
	C289.4,282.4,290.3,284.6,291.3,286.9z M335.6,310c0.2,0,0.5,0,0.7-0.1c1.4-2.7,2.8-5.3,4.1-8c0.4-0.8,0.3-1.6-0.1-2.4
	c-1.8-3.9-3.6-7.9-5.4-11.9c-0.3-0.6-0.7-1.2-1.3-1.5c-2.4-1.3-5-1.5-7.9-1.2c0.1,1,0.2,1.8,0.4,2.6c1.5,6.7,4,13,7.1,19.2
	C333.9,307.8,334.8,308.9,335.6,310z M265.2,593.4c-1.3-2.5-1.8-3.1-3.7-3.9c-4.3-1.9-8.4-1.2-12.2,1.2c-3.8,2.4-3.8,7.4-0.1,10
	c1,0.7,2.3,1,3.3,1.6c1,0.6,1.7,0.4,2.5-0.3c2.1-1.7,4.3-3.4,6.4-5.1C262.7,595.7,264,594.5,265.2,593.4z M343.5,500.1
	c0.2-3.8-0.6-4.8-3.1-4.8c-3.5,0-6.2,1.3-7.7,4.6c-0.7,1.5-1.3,3.2-1.5,4.9c-0.5,3.2,2,7.1,5,8.2c2.6,1,6-0.9,6.4-3.6
	C342.9,506,343.3,502.6,343.5,500.1z M262.2,630.9c-2.1,2-2.9,4.4-2.7,7.1c0,0.6,0.1,1.3,0,1.9c-0.5,4-0.8,8.1-5,10.7
	c4.4,2.2,7.5,5.6,10.5,9.4C266.5,650,265.6,640.4,262.2,630.9z M243.5,650.7c-0.9-1-1.9-1.8-2.5-2.8c-2.3-3.8-3.6-8-3.2-12.4
	c0.2-2-0.4-3.5-1.4-5c-0.7-1-1.3-2.1-1.9-3.2c-0.2-0.4-0.5-0.8-0.8-1.2c1.3,10.4,0.7,20.6-2.6,30.6c0.1,0.1,0.3,0.1,0.4,0.2
	C235.6,654.8,239.6,652.8,243.5,650.7z M345.2,411.2c3-2.5,4.4-5.4,5.8-8.5c2.1-4.8-0.1-9.2-0.9-13.6c-3,2.5-5.9,5-8.9,7.5
	C342.5,401.2,343.8,405.9,345.2,411.2z M345.8,456.8c0.9-2.3-0.7-3.7-1.8-5.2c-0.3-0.4-1-0.7-1.6-0.8c-3.9-0.4-8,2.3-9.2,6.1
	c-0.5,1.7-0.3,3.2,0.7,4.7c2,2.9,7.1,4.1,10.1,0.5C345.2,460.5,346.3,459,345.8,456.8z M269.9,277.7c-0.8,0.7-1.8,1.4-2.6,2.1
	c-0.9,6.7-1.7,13.4-2.6,20c3.8-1.3,7.4-2.6,11.2-3.9C273.9,289.9,271.9,283.8,269.9,277.7z M329.8,555c2.8,0,4.7-1.4,5.3-4.1
	c0.7-2.7,1.4-5.4,2-8.1c0.5-2.3-0.2-3.2-2.5-3.2c-0.5,0-0.9,0.1-1.4,0.2c-5.6,1-7.8,6.2-8.2,9.9C324.8,552.5,327.2,555,329.8,555z
	 M210.2,497.9C210.2,497.9,210.2,497.9,210.2,497.9c-0.1,1.9-0.1,3.7,0,5.6c0,0.5,0.3,1.2,0.7,1.5c0.8,0.6,1.7,1.1,2.6,1.5
	c1.9,0.8,3.7,0.3,4.9-1.4c1.2-1.8,1.7-3.9,1.3-6c-0.7-3.2-2.1-6-4.2-8.4c-0.8-0.9-1.7-1.6-3-1.2c-1.4,0.4-1.8,1.5-1.9,2.9
	C210.4,494.1,210.3,496,210.2,497.9z M355.8,341.5c0.1-0.1,0.2-0.2,0.3-0.3c-0.4-0.6-0.7-1.3-1.2-1.9c-2.5-3.2-2.3-6.3-0.3-9.7
	c3.2-5.3,8-8.1,14-9c0.9-0.1,1.8-0.3,3.3-0.6c-1-0.6-1.5-1.1-2.1-1.2c-3.1-0.8-6.3-0.6-9.2,0.4c-3.4,1.2-6.5,3.3-9,6.1
	c-2.6,2.9-3.4,8.4-1.8,11.8c0.1,0.3,0.3,0.6,0.5,0.7C352.2,339,354,340.2,355.8,341.5z M172.3,414c0.5,0.4,0.7,0.8,0.9,0.8
	c3.1,0.5,5.5,2.4,8,4c3.1,2,6.5,3.5,10.4,4.5c0.9-3.8,1.7-7.4,2.6-11c-1.6-0.6-3.2-0.2-4.6,0.3c-3.2,1.3-6.4,1.4-9.8,0.6
	C177.5,412.6,175,413.1,172.3,414z M374.5,320.3c3.4-1.6,6.6-1.8,9.8-1.7c2.8,0.1,5.4-0.5,7.9-1.5c2.5-1,5-2,7.6-3.1
	c0.5-0.2,0.9-0.4,1.6-0.7c-1.2-1.2-2.2-2.3-3.2-3.3c-0.6-0.7-1.3-0.8-2.1-0.6c-1.6,0.6-3.3,1-4.7,1.9c-3.4,2-6.9,3.9-11.1,3.8
	c-1,0-2,0.3-3,0.6c-1,0.3-1.8,0.9-2,2C375.1,318.3,374.8,319.1,374.5,320.3z M284.7,257.6c-2.9-0.2-5.8-0.4-8.7-0.5
	c-3.9-0.1-7.5-1-11-2.7c-1.5-0.7-2.9-1.5-4.5-1.9c-1.3-0.4-2.2-1-2.7-2.2c-0.6-1.3-1.4-2.5-2.2-3.7c-1.5,0.5-2.3,1.4-2.8,2.6
	c-0.5,1.2-0.2,2,0.8,2.8c1.4,1.1,2.7,2.3,4.1,3.4c0.5,0.4,1,0.7,1.5,0.9c3.7,1.3,7.5,2.1,11.4,2c1.9,0,2.2,0.2,2.6,2.1
	c0.1,0.3,0.2,0.6,0.3,1C277.6,261.2,281.3,260.1,284.7,257.6z M246.3,219.4c-0.5,0.9-0.9,1.4-1.1,2c-1.6,3.5-2.5,7.2-2.9,11
	c-0.3,3-0.6,6-0.9,9c-0.1,1.1-0.4,2.2-0.6,3.3c3.6-0.9,7-1.8,10.2-2.6c-1.4-3.4-2.9-6.7-4.2-10.1c-1-2.6-1.4-5.2-0.9-8
	C246.1,222.6,246.1,221.2,246.3,219.4z M214.9,462c0.5-0.5,1-1,1.6-1.4c4.5-3.9,5-8.7,3.4-14c-0.7-2.2-2-4-4.3-4.7
	C212,448.5,212.8,455.2,214.9,462z M229.4,573.9c1.2,0.1,2.4,0.2,3.7,0.2c2.5,0,5-1.7,5.5-3.6c1-3.9-3.3-9.2-7.3-8.9
	c-1.7,0.1-3.1,1.3-3,2.9c0.1,2.9,0.4,5.7,0.7,8.5C229,573.3,229.2,573.6,229.4,573.9z M267.4,277.3c2.5-5.4,3.3-11.3,4.3-17
	c-3.9-0.6-7.7-1.2-11.4-1.7C263.2,264.5,266.4,270.4,267.4,277.3z M296.3,632.9c-3.4,2.6-6.3,5.2-9,8.1c-0.6,0.7-0.8,1.3-0.3,2.1
	c1.7,2.9,3.3,5.9,5.2,9c1.4-1.6,1.9-3.2,2.4-4.8c1.6-4.7,3.2-9.4,4.9-14.1c0.2-0.6,0.4-1.2,0.5-1.8c-3.2,3.3-5.8,7-7.7,11.1
	c-0.6,1.3-1.6,2.5-0.5,4.2c-2-0.8-2.1-0.9-1.7-2.3c0.2-0.7,0.5-1.5,0.9-2.1C292.7,639.3,294.4,636.3,296.3,632.9z M343.6,181.1
	c0.2-0.1,0.4-0.1,0.7-0.2c-0.1-1.7,0-3.4-0.5-5c-1-3.7-2.4-7.1-4.4-10.5c-2.4-4.1-6.1-6.1-10-8c-0.8-0.4-1.3-0.1-1.6,0.9
	C335.6,164,339,172.9,343.6,181.1z M298.6,617.9c0.3,1.8,0.6,3.2,0.9,4.6c0.3,1.5,0,3.1,0.8,4.2c2.4,0,4.5,0,6.8,0
	c1.9-3.1,2.5-6.5,3.4-10.4C306.5,618.6,302.6,619.1,298.6,617.9z M215.5,395.5c0-0.5,0-0.8,0-1.2c-0.2-3.6-0.6-7.3-0.6-10.9
	c0-2.9,0.5-5.9,0.9-8.8c0.4-3,1.1-5.9,1.6-8.9c0.4-2.8,0.1-5.8-0.9-8.1c-0.8,5.7-1.6,10.9-2.4,16.1c-0.8,5-1.5,10-2.4,14.9
	c-0.2,1.3-0.6,2.5-0.9,3.7C212.4,393.5,213.9,394.5,215.5,395.5z M245.4,651.7c-3.7,1.7-6.9,3.2-10,4.7c-2.8,1.4-5.5,2.8-7.9,4.8
	c-1.5,1.3-1.8,2.5-1.3,4.4c2.3-0.8,4.4-1.9,6.5-3.2c3.4-2.1,6.8-4.1,10.1-6.2c1-0.6,1.8-1.4,2.5-2.3
	C245.5,653.6,245.3,652.8,245.4,651.7z M311.5,634.5c2.8,3.1,4.2,7.2,7.4,10.5c0-4.3,0-8.3,0-12.3c-3.9-1.3-7.8-2.6-11.7-3.9
	c0.4,0.8,1,1.1,1.5,1.6c2.5,2.1,5,4.1,7.5,6.2c0.3,0.3,0.4,0.8,0.5,1.2c-0.1,0.1-0.3,0.2-0.4,0.3
	C314.7,636.8,313.1,635.7,311.5,634.5z M288.2,150c0.6,0,1.2,0,1.8,0c4.1-0.1,8.2-0.4,12.3-0.3c7.5,0.2,14.7,1.6,21,5.8
	c0.3,0.2,0.7,0.3,1.5,0.5c-1.3-2.8-3.3-4.2-5.7-5c-2.6-0.8-5.2-1.5-7.9-2.1C303.5,146.9,295.8,147.9,288.2,150z M328.4,394.8
	c-2.4,1.6-4.4,2.9-6.4,4.2c-2,1.2-4.4,1.5-6.5,2.8c2.9,0.8,5.4,1.4,8,2.1c3.3,0.9,5.1-0.4,5.2-3.9
	C328.7,398.4,328.5,396.7,328.4,394.8z M253.3,651.8c-0.2,0.1-0.3,0.3-0.5,0.4c0.4,0.6,0.6,1.4,1.1,1.9c1.8,1.9,3.6,3.8,5.6,5.6
	c3.4,3.2,6.2,6.7,8.1,11c0.1,0.2,0.3,0.3,0.7,0.6c0.4-0.9,0.7-1.6,1.1-2.4c-2-2.7-3.9-5.4-5.8-8c-1-1.3-1.9-2.7-3-3.9
	C258.4,654.8,256,653,253.3,651.8z M292.9,613.5c4.6,3.7,13.9,4.7,17.5,0.4C304.7,613,298.9,612.3,292.9,613.5z M255.1,293.9
	c-0.1,0-0.4,0-0.6,0.1c-1,0.3-2.1,0.6-3.1,0.9c-2,0.7-2.4,2.3-0.9,3.9c1.6,1.7,4.5,2,6.4,0.7c1.3-0.9,2.1-2.6,1.6-3.8
	C258.2,294.7,256.7,293.9,255.1,293.9z M308.2,646.9c2.1-0.2,4.1-0.5,6.2-0.7c-0.6-1.9-1.2-3.5-1.8-5.4c-2.3,0.2-4.5,0.4-6.9,0.6
	C306.6,643.4,307.4,645.1,308.2,646.9z M253.4,661.9c-3-0.8-5.6-0.3-8.4,0.4c-0.1,1.2-0.3,2.3-0.4,3.2c3.1,0.2,5.9,0.4,8.8,0.5
	C253.4,664.7,253.4,663.4,253.4,661.9z M310.4,636.6c-1.1-1.6-2.1-2.9-3-4.4c-0.7-1.1-1.6-1.4-2.8-1.1c-0.8,0.2-1.6,0.5-2.5,0.7
	c0.8,2.1,1.5,3.9,2.3,5.7C306.4,637.3,308.2,637,310.4,636.6z M311.3,628.4c1.9-3.7,2.4-7.4,1.8-11.9c-0.1-0.4-0.4-0.8-0.7-1.6
	c-1.3,4.5-2.4,8.6-3.6,12.9C309.6,628,310.4,628.2,311.3,628.4z M243.6,673.5c3.7,0,7.1,0,10.6,0c-0.1-0.9-0.2-1.8-0.3-2.6
	c-3.3-0.9-6.4-0.8-9.8-0.3C244,671.5,243.8,672.4,243.6,673.5z M320.3,655.3c-0.4,1.5-1.1,1.4-2,1.2c-0.9-0.2-1.8-0.1-2.8,0
	c-1.8,0.1-3.7,0.3-5.7,0.5c0.1,1,0.1,2,0.2,3c3.9-1.2,7.6-2.2,11.4-0.8c0.5,0.2,1.1-0.2,1.9-0.3
	C322.2,657.7,321.5,656.8,320.3,655.3z M284.2,268.1c0-2.5,0-4.9,0-7.3c-2.7,0.8-5.4,1.6-8.1,2.4
	C278.7,264.8,281.4,266.4,284.2,268.1z M228.8,670.1c0.1,0.1,0.2,0.1,0.2,0.2c3.1-3.3,6.3-6.5,9.3-9.6c0.2,0,0-0.1-0.1,0
	c-2.5,1.5-5.1,3-7.5,4.6c-0.4,0.3-0.8,0.8-0.9,1.3C229.4,667.8,229.1,669,228.8,670.1z M252.9,659.9c0-0.9,0.3-1.9-0.9-2.1
	c-2.1-0.2-4.2-0.3-6.5-0.4c-0.2,1.3-0.3,2.4-0.4,3.4C247.9,660.5,250.4,660.2,252.9,659.9z M253.6,669.2c0.5-0.9,0-1.2-0.7-1.3
	c-2.1-0.4-4.2-0.8-6.4-1c-2.3-0.2-2.6,0.2-2.1,2.4C247.6,669.2,250.6,669.2,253.6,669.2z M254.5,676.4c-0.2-0.3-0.3-0.5-0.4-0.6
	c-3.1-1.5-6.5-1.3-9.8-1.2c-0.8,0-0.9,0.6-0.8,1.2C247.1,676,250.7,676.2,254.5,676.4z M195.3,472.2c0.7,0.5,1.2,0.9,1.8,1.3
	c1.4,0.9,2.4,0.4,2.6-1.2c0.1-0.9,0-1.8,0-2.7C197.8,469.6,197.8,469.6,195.3,472.2z M312.3,639.2c-1.2-1.1-2.5-1.3-6.3-1
	c-0.4,0-0.8,0.3-1.5,0.5c0.4,0.7,0.6,1.3,0.9,1.7C307.9,640,310,639.6,312.3,639.2z M250.6,651.3c-1.3,0-2.3,0-3.4,0c0,1,0,1.9,0,3
	c1.1-0.2,2-0.4,2.9-0.6C250.2,652.9,250.4,652.2,250.6,651.3z M252.2,654.9c-2.3,0.4-4.4,0.8-6.4,1.2c0,0.1,0.1,0.3,0.1,0.3
	c2.1,0,4.1-0.1,6.2-0.1c0.1,0,0.3-0.1,0.5-0.2c0-0.3,0-0.6-0.1-0.9C252.4,655,252.2,654.9,252.2,654.9z M302.2,630.1
	c3-0.3,3-0.3,2.9-2C302.6,627.8,302.5,627.8,302.2,630.1z"/>
<path class="st0" d="M243.4,586.5c6-0.6,10.8-3.7,14.8-7.9c3.5-3.8,6.2-8.1,9-12.5c6-9.4,10.2-19.6,13.8-30c0.3-0.7,0.6-1.5,0.9-2.2
	c0-0.1,0.2-0.2,0.3-0.3c0.2,2.7,0.4,5.3,0.6,8c0.1,1.5,0.3,2.9,0.5,4.4c0.9,6.7-0.1,13.3-1,20c-0.2,1.4-0.7,2.9-1.4,4.2
	c-3.9,7.1-7.9,14.1-13.3,20.2c-0.4,0.5-0.9,1-1.5,1.6c-1.5-2.6-3.7-4.4-6.5-5c-3.5-0.8-6.8-0.1-10,1.3c-3.2,1.5-5,3.9-4.9,7.5
	c0.1,3.7,2,6.1,5.3,7.5c0.5,0.2,1,0.4,1.5,0.6c0.1,0,0.1,0.1,0.2,0.3c-2,1.7-4,3.3-6.2,5.2c-4.4-0.7-9.2-0.9-13.2-4.4
	c1-4.9,0.9-9.9,0.1-14.9c-0.8-4.9-2-9.7-3-14.6c1.4,0.2,2.6,0.5,3.8,0.4c1.4-0.2,2.9-0.5,4.2-1.2c2.8-1.5,3.9-4.5,2.7-7.6
	c-0.5-1.3-1.2-2.5-2.1-3.6c-2.7-3.5-5.1-4.1-9.2-2.4c-0.2,0.1-0.4,0.1-0.9,0.3c-0.2-1.5-0.4-2.9-0.5-4.3c-0.5-5.8-1.7-11.5-3.3-17.2
	c-0.6-2.1-1.7-4.2-2.8-6.1c-2.2-3.7-4.6-7.2-6.8-10.9c-3-4.9-3.8-10.4-4.1-16.4c0.8,0.5,1.3,0.8,1.8,1.2c2.7,1.6,5.6,1.1,7.5-1.4
	c2-2.7,2.6-5.7,1.5-8.8c-0.7-2-1.7-4-2.8-5.9c-1.5-2.7-3.6-4.3-7.3-2.9c0.7-7,2.3-13.5,3.2-20.2c0.8,1.9,1.6,3.8,2.4,5.7
	c0.1,0,0.3-0.1,0.4-0.1c-0.7-3.3-1.4-6.6-2-9.8c1.7-1.6,3.2-3,4.7-4.5c3.6-3.6,3.4-11.8,0.9-15.3c-1.2-1.7-2.7-3-5-3.6
	c1.3-3.7,2.5-7.4,3.7-11c3,0.2,5.9,0.3,8.7,0.7c7.4,0.8,14.8,1.8,22.1,2.6c2,0.2,4.1,0.2,6.1,0.1c6.3-0.5,12.6-0.1,18.9,0.4
	c5.1,0.4,10.2,0.8,15.4,0.7c2.7,0,5.3-1.1,7.9-1.7c0.3-0.1,0.6-0.1,1-0.2c0.6,2.3,0,4.4-0.4,6.4c-1.2,5.6-3.1,10.9-5.4,16.1
	c-0.7,1.6-1.5,3.1-2.1,4.6c-0.2,0.5-0.2,1.2-0.1,1.8c0.3,4.2,0.6,8.4,1,12.8c-0.6-0.2-0.9-0.2-1.2-0.4c-2.9-1.6-5.6-0.9-8,1.1
	c-3.9,3.3-5.8,7.7-5.8,12.7c0,4.1,2.8,7.2,6.9,7.9c1.2,0.2,2.4,0.3,3.9,0.4c-0.1,0.5-0.2,1-0.4,1.5c-1.9,4-3.8,8-5.7,12
	c-2.3,4.8-4.6,9.7-7,14.5c-0.1,0.2-0.1,0.5,0.2,0.9c3.1-5.3,6.2-10.6,9.3-15.9c0.1,0,0.3,0,0.4,0.1c0,0.7,0.1,1.5,0,2.2
	c-0.4,3.3-0.8,6.6-1.1,10c-0.5,4.7-2.1,9.1-3.7,13.5c-1.5,3.9-2.9,7.7-4.3,11.6c-4,10.8-10.1,20.5-17.1,29.6
	c-2.8,3.7-6.4,6.5-10.8,8.3c-1.5,0.6-3,1.5-4.5,2.3C243.3,586.2,243.3,586.3,243.4,586.5z M243.5,484.3c-0.5-1.9-0.8-3.8-1.4-5.6
	c-0.9-2.4-2.6-4.2-5-4.9c-2.1-0.6-4.2-0.9-6.4-1c-1.2-0.1-2.6,0.2-3.5,0.9c-2.1,1.5-3.6,3.5-4.1,6.3c-0.9,5.2,1.5,10.3,6.1,12.8
	C235.9,496.4,243.7,491,243.5,484.3z M256.4,520.6c3.5,0,6.5-1.2,9.1-3.6c1.4-1.2,2.1-2.8,2.3-4.7c0.2-2.5-0.3-4.8-1.3-7
	c-1.6-3.4-7.1-6.8-11.6-4.6c-2.6,1.3-5,3.1-6.7,5.6c-3.8,5.5-1.3,12.3,5.2,13.9C254.4,520.5,255.4,520.5,256.4,520.6z M260.6,467.3
	c0.5,0,0.8,0,1.1-0.1c4.4-0.4,10.2-5.9,10.9-10.3c0.3-2,0-3.8-1.6-5.3c-3.7-3.4-10-4.1-14.2-1.2c-1.4,1-2.6,2.2-3.7,3.5
	c-1.8,2.3-2.6,5-1.1,7.8C253.9,465.2,256.8,467.1,260.6,467.3z M246.8,553.1c0,1.9,0.6,3.3,2,4.6c3.6,3.3,9.9,4.7,14.8,1.1
	c1.7-1.2,2.9-2.8,3.4-4.8c0.7-2.8,0-4.9-2.5-6.4c-2.6-1.6-5.5-2.3-8.6-2.4c-2.5-0.1-4.5,0.8-6.4,2.3
	C247.7,548.8,246.9,550.8,246.8,553.1z M241.3,528.8c0-2.2-0.7-4.1-2-5.6c-2.2-2.4-4.8-4.1-8.1-4.7c-2.7-0.5-4.7,0.7-5.7,3.2
	c-0.6,1.7-0.5,3.4-0.1,5c0.8,3.4,2.5,6.2,5.6,7.9C235.1,536.9,241.4,535.6,241.3,528.8z"/>
<path class="st0" d="M341.9,514c-0.7,8.3-2,16.4-3.8,24.4c-1.6,0-3,0-4.5,0c-4,0.1-6.6,2.5-8.6,5.6c-1.2,1.9-1.7,4-1.6,6.2
	c0.1,4.6,3.6,7.5,8.1,6.5c0.6-0.1,1.2-0.3,1.8-0.4c0.1,0.2,0.3,0.3,0.2,0.4c-1.5,7.1-3.1,14.3-4.6,21.4c-1,5.1-3.4,9.5-6.8,13.3
	c-0.9,0.9-1.4,2.1-2.4,3.6c-3.1,1.3-7,2-10.8,2.3c-5,0.4-9.9,0.6-14.9,0.6c-4.5,0-8.7-1.6-12.7-3.9c0.3-1.7,0.5-3.3,0.7-4.9
	c1-5.8,1.6-11.7,1.7-17.6c0.1-4.1,0.7-8.2,1.1-12.3c0.6-5.8,0.7-11.6-0.6-17.4c-1-4.3-0.6-8.6,0-13c0.8-5.5,1.4-11.1,1.7-16.7
	c0.3-4.8,0.5-9.5,2.8-13.8c0.8-1.4,1.2-3,1.9-4.5c1.9-3.8,2.9-7.9,3.2-12.1c0.2-2.5,0-5-0.1-7.4c-0.3-4.4-0.8-8.8-1.2-13.2
	c-0.1-1.3,0.2-2.5,0.8-3.7c3.1-6.2,6-12.5,7.3-19.3c0.4-2,0.4-4,0.6-6.3c1.5-0.2,3.1-0.3,4.8-0.5c4.5-0.5,9-0.7,13.4-1.5
	c6.4-1.2,12.3-3.7,17.2-8.3c1.7-1.6,3.6-3,5.6-4.7c4.5,11.3,4.1,22.8,3.6,34.4c-5.4-3.5-11.8-0.6-14,3.6c-2.4,4.7,0.3,10.2,5.6,10.9
	c3.3,0.4,4.6-0.1,7.3-2.9c0.5,1.9-0.5,26.6-1.3,32c-0.3-0.1-0.6-0.2-0.8-0.3c-4.4-1.9-9.2-0.3-11.7,3.9c-1.6,2.8-2.1,5.8-1.6,9
	c0.7,4.7,5.2,8.1,9.5,7.3C340,514.7,340.8,514.3,341.9,514z M313.9,494.2c3.8,0,7-2.1,8.4-5.6c1.5-3.6,0.7-7.5-2.1-10
	c-1.1-1-2.3-2.1-3.7-2.8c-2.1-1.1-4.2-1.9-6.7-1.3c-3.5,0.9-5.1,3.5-6.3,6.5C301.6,485.6,306.2,494.4,313.9,494.2z M305.9,553.2
	c-0.3,0-0.6,0-0.9,0c-4.7,0.5-6.4,2.3-7.3,6.1c-1,4.4,3.2,10.7,6.6,11.7c1.9,0.6,3.7,0.5,5.4-0.4c3.9-1.9,6.2-6.5,5.2-10.7
	C314,555.9,310.4,553.2,305.9,553.2z M314.7,514.8c-1.2,0.2-2.5,0.2-3.7,0.5c-3.1,0.6-5.4,3.7-5.2,6.6c0.4,4.9,4.8,8.9,9.8,8.9
	c2.5,0,4.3-1.1,5.5-3.2c1.8-3,1.4-7.4-1-10C318.8,515.8,317.1,514.7,314.7,514.8z M306.3,540.6c1.6,1.1,2.7,0.5,3.7,0.2
	c8.5-2.4,15.9-6.7,21.6-13.6C324,533,315.9,537.8,306.3,540.6z"/>
<path class="st0" d="M379.7,215.9c-0.1,7.7-2.2,14.7-6.5,21.1c-3,4.5-6.3,8.7-10.3,12.3c-3.5,3.2-7.5,4.6-12.1,4.8
	c-2.5,0.1-5-0.1-7.4-0.5c-3.8-0.5-6.8-2.5-9.6-5c-2.2-1.9-4.5-3.5-6.9-5.2c-2.1-1.4-4.4-2.3-7-2.3c-1,0-1.7-0.4-2.3-1.3
	c-1.5-2.3-2.8-4.6-3.2-7.4c-0.3-1.7-0.7-3.3-1.1-5c-0.4-1.6-0.3-3.1,0.5-4.5c2.6-4.5,4.5-9.2,6.5-13.9c1.8-4.3,5-7.7,8.9-10.3
	c4.4-2.9,8.2-6.4,11.6-10.4c0.7-0.8,1.1-1.5,1.3-2.6c0.3-2.4,1.4-2.9,3.6-1.8c2.1,1.1,4.1,2.3,6,3.6c2.7,1.8,5.6,3.3,8.7,4.3
	c1.9,0.6,3.8,1.4,5.6,2.2C375.5,198.3,379.8,205.8,379.7,215.9z"/>
<path class="st0" d="M262.8,187.4c3.5,0.2,6.7,0.4,10,0.6c0,0,0,0.3,0.1,0.9c0.9,0.1,1.8,0.1,2.7,0.3c1,0.3,2.1,0.6,2.8,1.4
	c1.7,1.9,1.6,1.9,4,0.8c1.3,1.3,2.7,2.5,4.8,1.6c0,0.8-0.2,1.5,0.1,2c0.2,0.5,0.8,1,1.3,1.2c1.5,0.7,2.9,2.4,4.8,1
	c0.1-0.1,0.5,0.1,0.7,0.2c1.8,1.1,4.1,1,5.6,2.6c0.2,0.2,0.7,0.4,1.1,0.4c2.8-0.2,5.1,1,7.4,2.4c1.6,1,3,0.7,4.2-0.9
	c2.6,1.2,4.2,4.3,7.6,4.3c-2.2,4.6-4.2,9-6.3,13.5c-0.5,1-1,1.9-1.5,2.9c-0.8,1.7-1,3.4-0.6,5.2c0.4,1.7,0.7,3.5,1.2,5.4
	c-4.3-2-8.3-1.3-12.2,0.1c-2.4,0.9-4.3,3.8-4.2,6.2c0.1,3.4,2.4,4.8,5.3,3.1c1.2-0.7,2.3-0.9,3.5-0.7c2.2,0.3,2.6,2.9,4.4,3.8
	c0.3,0.2,0.1,1.4,0.2,2.1c0,0.1-0.1,0.1-0.2,0.3c-0.4-0.2-0.9-0.5-1.3-0.7c-0.8-0.4-1.5-0.7-2.3-1c-5.1-1.9-8.1,0.8-9.7,4.9
	c-0.2,0.5-0.2,1-0.4,1.8c-1.7,0.3-3.4,0.6-5.2,0.9c-0.6,0.1-1.3,0.1-1.8,0.4c-1.8,1.1-3.8,1.4-5.8,1.4c-3.5-0.1-7-0.1-10.5-0.6
	c-2.5-0.4-4.9-1.4-7.3-2.2c-1.5-0.5-3.1-1.1-4.5-1.8c-0.6-0.3-1.1-0.8-1.5-1.3c-1.5-1.9-2.7-4-4.3-5.8c-4-4.5-6.6-9.7-7.7-15.5
	c-0.5-2.7,0.2-5.7,0.4-8.6c0-0.7,0.2-1.4,0.3-2.1c0.2-1.9,0.8-3.5,1.9-5.2c3.7-5.8,6.2-12.2,7.4-19c0.3-1.6,0.9-2.8,2.4-3.7
	C260.8,189.2,261.9,188.2,262.8,187.4z M276.3,209.3c1.4-1.1,0.6-2,0.5-3c-0.3-3.4-2.1-5.5-5.6-6c-1.4-0.2-2.8-0.9-4.1-0.7
	c-2.1,0.4-4.1,1.3-6.2,2.1c0,0.2,0.1,0.4,0.1,0.7c0.7-0.1,1.4-0.2,2.1-0.3c0.7-0.1,1.4-0.3,2.2-0.5c0.2,3.1,0.8,4.3,2.5,4.5
	c0.9,0.1,1.9,0,2.7-0.3c1.6-0.5,1.7-2.2,2.2-3.5c2.1,0.1,2.1,1.8,2.5,3C275.7,206.7,275.9,208,276.3,209.3z M310.4,219.8
	c-1.1-1.5-2.3-3-3.3-4.5c-0.8-1.3-2-1.9-3.4-2.1c-1.7-0.2-3.4-0.3-5.1-0.7c-2.8-0.8-4.3,0.9-5.9,2.8c1.5,0.8,2.1-0.8,3.2-0.9
	c0,1.7,0.9,2.7,2.4,2.9c0.8,0.1,1.7,0.1,2.5,0c1.5-0.1,0.9-2.1,2.1-2.5c1.4-0.1,2.3,0.6,3,1.8c0.8,1.2,1.7,2.2,2.6,3.3
	C309.1,220.4,309.6,220.8,310.4,219.8z M271.4,223.1c-2.3,1.6-2.3,3.8-0.1,5.3c1.3,0.9,2.6,1.7,3.9,2.6c0.4,0.3,0.8,0.6,1.2,0.6
	c2.1,0.1,3.9,1,5.7,1.8c1.3,0.6,2.6,0.4,3.7-0.7c1.3-1.4,1.2-4.4-0.4-6.2c0.1,0.9,0.2,1.7,0.4,2.4c0.3,1.2,0.1,2.1-0.9,2.9
	c-1,0.8-2,0.6-3.1,0.1c-0.7-0.3-1.4-0.9-2.1-1c-2.2-0.3-4-1.2-5.8-2.5C270.9,226.3,270.8,226.4,271.4,223.1z M262.4,193.2
	c0,0.2,0,0.4,0,0.7c0.9,0,1.8,0,2.8,0c1.7-0.1,3.1,0.3,4.6,1.3c2.5,1.8,5.3,3.3,7.9,4.9c0.3,0.2,0.8,0.5,1,0.5
	c0.6-0.2,1.3-0.5,1.6-1c0.4-0.7-0.2-1.1-0.8-1.4c-0.7-0.3-1.5-0.5-2.2-0.8c-2.3-1.1-4.9-1.8-6.9-3.3
	C267.7,191.9,265.1,193.2,262.4,193.2z M313.6,212.5c0.4-1.5-0.5-1.8-1.4-2.1c-4-1.1-7.9-2.2-11.9-3.2c-1.5-0.4-3.1-0.2-4.6,1.2
	c0.5,0.2,0.8,0.4,1.1,0.3c2.4-0.5,4.6,0,6.7,1c0.8,0.4,1.8,0.6,2.6,0.9C308.6,211.2,311.1,211.9,313.6,212.5z M261,234
	c0.8,1.7,2,2.2,3.2,2.7c5.2,2.1,10.3,4.2,15.5,6.3c1.1,0.4,2.3,0.7,3.6,0.3c-1.8-1.3-7.6-3.8-10.1-4.4c-2-0.6-4-1.3-5.9-2
	C265.4,236.1,263.4,235.1,261,234z M267.4,241.9c1.4,1.1,3.1,1.3,4.8,1.4C270.8,242.4,269.2,241.7,267.4,241.9z"/>
<path class="st0" d="M187.7,290.7c0.3,0.6,0.6,1.2,0.9,1.7c4.6,9.5,9.9,18.5,16.7,26.6c2.5,3.1,5.2,5.9,8.3,8.5
	c0.5,0.4,1,1.2,1.1,1.9c0.4,3.5,0.6,7.1,0.9,10.7c0.2,3,0.3,6.1,0.6,9.1c0.3,2.8-0.1,5.6-0.8,8.3c-1.9,6.7-2.5,13.6-3.4,20.4
	c-0.5,4.4-1.6,8.7-2.5,13c-0.1,0.4-0.3,0.8-0.3,0.9c-3.6,0.2-6.9,0.4-10.2,0.5c-3.7,0-7.5-0.2-11.2-0.3c-5-0.1-9.9,0.2-14.8,1.4
	c-0.3,0.1-0.6,0.1-1.1,0.1c0.2-1.9,0.4-3.5,0.6-5.2c2.1-14.5,4.7-28.8,7.8-43.1c1.9-8.9,3.1-17.9,4.6-26.9c0.6-3.7,1.4-7.3,1.8-11.1
	c0.4-4.9,0.5-9.9,0.7-14.9c0-0.6,0-1.2,0-1.7C187.4,290.7,187.5,290.7,187.7,290.7z"/>
<path class="st0" d="M320.5,204.6c0.4-2.6,0.9-5.3,1-7.9c0.2-2.6,0.2-5.3-0.6-8c-0.2,2.6-0.6,5.1-0.7,7.7c0,2.8-1.2,5.2-2.1,7.8
	c-1.9-1.3-3.6-2.6-5.6-4c0.8-3.3,1.6-6.8,2.4-10.3c-0.2-0.1-0.4-0.1-0.6-0.2c-1.9,3.6-2.4,7.7-3.6,11.6c-1,0.4-1.5-0.1-1.5-1
	c0-1.6-0.2-3.3,0.1-4.9c0.6-2.9,1.5-5.7,2.3-8.5c0.1-0.2,0-0.4,0-0.7c-2.1,1.7-3.6,7-4.1,14.2c-1.7-0.2-3.1-1-4.5-1.8
	c-0.9-0.5-1-1.3-1-2.2c-0.1-2.7,0.5-5.2,1.6-7.7c0.4-1.1,1-2.1,1.5-3.3c-1.6,1-2.1,1.7-3.5,5.8c-0.7,2.2-0.9,4.5-1.4,6.9
	c-1.9-0.7-3.7-1.3-5.6-2c0.5-2.8,1.7-5.3,1.8-8.3c-1.9,1-1.9,2.7-2.5,4c-0.7,1.4-1.2,2.8-1.9,4.4c-1.1-0.5-2-1-3.1-1.5
	c1.2-5.6,4.4-10.2,6-15.4c-0.1-0.1-0.3-0.1-0.4-0.2c-0.2,0.3-0.5,0.7-0.7,1.1c-1.6,3.1-3.1,6.3-4.6,9.4c-0.2,0.3-0.3,0.7-0.5,1
	c-1.2,1.7-3.1,2.2-4.2,0.7c-1.3-1.6-2.4-1.7-3.9-0.5c-0.5-0.8-0.9-1.4-1.4-2.2c3.5-4,7.8-7.2,11.1-11.3c-0.1-0.1-0.3-0.3-0.4-0.4
	c-1.4,1.2-2.9,2.3-4.3,3.6c-2.3,2.1-4.6,4.2-6.9,6.3c-0.9,0.8-1.8,1.7-3.6,1.4c2.5-3.2,5.3-5.7,6.2-9.5c-0.4,0.6-0.9,1.2-1.4,1.7
	c-1.4,1.5-2.6,3.1-4.1,4.4c-1.6,1.4-3.9,1.5-5.9,1.8c-1.1,0.1-2.3,0-3.5-0.2c2.6-2,6-3.2,7.2-6.8c-1.1,0.9-2.2,1.8-3.4,2.6
	c-1.2,0.8-2.6,1.4-4,2.1c1.2-4,4.1-7.7,8.7-11.7c-0.5,0.1-1.1,0.1-1.6,0.3c-2.5,1.1-4.2,3.2-5.6,5.5c-2.5,4.1-5.4,7.8-9.3,11.2
	c0.8-3.4,1.6-6.5,2.8-9.5c1.3-2.9,2.7-5.8,4.3-9.1c-0.7,0.4-1,0.7-1.4,0.9c-0.1-0.1-0.3-0.2-0.3-0.3c0.6-2,1.2-4,1.7-6
	c0.7-2.8,0.8-5.5-0.5-8.3c2.8-1.8,5.9-2.4,8.9-2.9c5.5-1,11-2,16.6-2.6c7.3-0.8,14.6-0.7,21.8,0.9c6.7,1.4,12.4,4.9,17.5,9.4
	c1.4,1.2,2.6,2.7,3.6,4.3c2.6,4.3,4.9,8.7,7.5,12.9c1.5,2.5,0.5,4.6-0.6,6.6c-2.6,5-6.8,8.6-11.5,11.6c-2.5,1.6-4.5,3.6-6.3,5.9
	c-0.4,0.6-1,1.1-1.5,1.6C320.7,204.8,320.6,204.7,320.5,204.6z"/>
<path class="st0" d="M233.4,228.2c-0.6-0.6-1.4-1.1-2-1.7c-3.8-4.5-7.9-8.6-12.5-12.1c-3.2-2.4-5.9-5.3-7.8-8.9
	c-2.4-4.5-2.2-9.1-1.2-13.8c1-4.8,3.3-9,5.5-13.3c0.7-1.3,1.4-2.6,2.2-3.9c2.1-3.8,5-6.9,8.9-9c0.9-0.5,1.8-0.9,2.6-1.6
	c0.9-0.7,1.9-1.6,2.3-2.6c0.7-1.7,1.9-2.8,3.5-3.5c0.6-0.3,1.1-0.5,1.7-0.7c5.4-1.7,10.9-2.9,16.6-2.9c1.5,0,2.9-0.3,4.4-0.6
	c2.2-0.5,4,0.5,4.7,2.5c0.5,1.5,0.7,3.1,1.8,4.4c0.5,0.6,0.2,2,0,2.9c-0.4,2-1,4.1-1.6,6.1c-3.1,9.4-5.8,18.8-8,28.5
	c-1.5,6.5-4.1,12.5-8.8,17.5c-1.5,1.7-2.9,3.4-4.4,5.1c-0.2,0.2-0.4,0.5-0.6,0.7c-2.8,1.4-4.6,3.9-6.4,6.4
	C234,227.8,233.8,227.9,233.4,228.2z"/>
<path class="st0" d="M321.5,245.4c-0.3-0.8-0.5-1.3-0.7-1.8c0.3,0,0.6,0,0.8,0.1c3.6,1.2,6.6,3.4,9.7,5.6c2.3,1.7,4.6,3.4,7,5
	c3.7,2.5,7.1,5.4,9.8,8.9c3.2,4.2,6.4,8.4,9.3,12.8c5.6,8.2,11,16.6,16.5,24.9c0.9,1.4,1.2,2.9,1.3,4.6c0.2,4.6-0.8,8.9-2.4,13.5
	c-1.9-2.2-4.2-2.3-6.6-2.2c-2.6,0.2-5.3,0.3-7.9,0.6c-2,0.2-3.5-0.4-5-1.8c-4.3-4-7.7-8.8-10.2-14.1c-2.3-4.9-4.5-9.9-6.7-14.9
	c-0.8-1.8-1.5-3.7-2.2-5.5c-0.1-0.3-0.5-0.6-0.9-0.7c-1.1-0.7-2.2-1.4-3.4-2c-4.5-2-8.6-4.6-12.6-7.5c-2.4-1.7-5-3.1-7.6-4.6
	c-0.5-0.3-1.2-0.5-1.7-0.4c-3.1,0.8-5.8-0.4-8.5-1.4c-1.5-0.6-1.6-1.1-1-2.5c0.9-2.3,2.6-3.4,5-3.6c1.6-0.1,3.2-0.2,5.3-0.4
	c-2.7-2.1-5.6-2.9-8.5-4.2c0.3,2,2.1,1.9,3,3.2c-1,0.2-1.9,0.4-3,0.6c-0.8-1.1-1.6-2.2-2.4-3.3c-0.1-0.2-0.2-0.4-0.2-0.6
	c-0.6-3.6,3.6-7.3,7-6.1c1.1,0.4,2.1,1,3.2,1.4c0.9,0.4,1.9,0.6,2.8,0.9c0.5-1.3,1-2.3,1.3-3.1c-0.9-1-1.7-2.1-2.6-3.2
	c-0.9-1.1-1.8-2.1-2.5-2.9c-2.2-0.2-4-0.3-5.9-0.5c0,0.3-0.1,0.5-0.1,0.7c0,0.2,0,0.4,0,0.8c-0.9,0-1.7,0-2.5,0
	c-0.9-3.3,0.8-6.7,4.1-7.5c2-0.5,4.1-0.7,6.2-0.7c1.1,0,2.4,0.5,3.1,1.3c1.4,1.4,2.5,3.1,3.5,4.8C316,241.2,319.2,244.5,321.5,245.4
	z"/>
<path class="st0" d="M339.3,400.6c2,4.1,2.9,8.3,3.8,12.5c0.2,0.9,0,1.6-0.9,2.1c-1.6,0.9-3.2,1.9-4.5,3.2c-5,4.9-11,7.9-17.7,9.5
	c-3.1,0.7-6.3,1-9.4,1.3c-2.8,0.3-5.6,0.3-8.4,0.6c-2.5,0.3-4.9,0.8-7.3,1.5c-3.3,1-6.7,1.2-10.1,1c-7.6-0.6-15.2-1.1-22.8-1.5
	c-1.8-0.1-3.7,0.2-5.6,0.3c-4.7,0.3-9.3-0.3-13.9-1.1c-1.4-0.2-2.8-0.4-4.2-0.6c0.7-5.3,1.3-10.5,2-15.9c3.9,2.8,8.2,2.3,12.4,2.6
	c4,0.2,7.9,0.1,11.9,0.2c2.4,0.1,4.8,0.4,7.2,0.7c2.2,0.2,4.3,0.1,6.4-0.7c1.4-0.6,2.9-1.1,4.3-1.9c8.3-4.4,17.2-7.2,25.9-10.5
	c2.4-0.9,4.9-0.5,7.4-0.1c3.5,0.5,7,1.4,10.2,3.2c2.3,1.3,4.4,0.9,6.3-0.5c1.6-1.2,3.2-2.5,4.7-3.8
	C337.7,402.2,338.4,401.5,339.3,400.6z"/>
<path class="st0" d="M264,293.7c-1.4,7.7-2.9,15.4-4.2,23.1c-2.6,15.4-6.7,30.5-10.8,45.6c-2.8,10.4-5.7,20.7-7.4,31.3
	c-0.4,2.7-0.9,5.4-1.3,8.2c-3.8,0.3-7.4,1.3-11.5,1.1c0-2.5-0.1-4.8,0-7.1c0.2-5.6,0.6-11.2,0.8-16.8c0.4-10.9,1.9-21.6,3.9-32.4
	c1.3-7.4,2.2-14.9,3.2-22.4c1.1-8.4,2.1-16.8,3.2-25.2c0.3-2.2,0.4-4.5,0.7-7c3.5-0.3,7-0.4,10.9,0c-0.7,0.6-1.2,1-1.7,1.4
	c-2.5,2.2-2.5,4.9,0.2,6.9c3.8,2.9,9.1,1.3,10.2-3c0.3-1.2-0.1-2.5-0.2-4.1C261.2,293.5,262.7,293.6,264,293.7L264,293.7z
	 M253.5,332.1c0-2.5-1.8-4.5-4.1-4.5c-3.3,0-6.2,2.5-6.1,5.3c0.1,2.8,2.2,4.6,5.2,4.5C251.4,337.4,253.5,335.1,253.5,332.1z
	 M238.1,369.5c-2.2-0.1-3.9,1.7-4,4c0,2.2,2,4.4,4,4.4c2.1,0,4.1-1.8,4.1-4C242.4,371.6,240.5,369.6,238.1,369.5z"/>
<path class="st0" d="M340.9,395c-0.4-1.4-0.8-2.6-1.1-3.9c-4.8-18.8-11.8-36.8-20.6-54.1c-5.8-11.4-12.4-22.5-18.8-33.6
	c-2.8-4.8-5.4-9.8-8.2-14.8c3.5-1.5,7-2.4,10.7-2.5c3.8-0.1,7.6,0,11.4,0.1c0.6,0,1.4,0.5,1.7,1c1.4,2.2,2.9,4.4,3.9,6.9
	c1.6,4.3,2.8,8.7,4.2,13.1c1.9,6,4.3,11.7,7.2,17.2c3,5.7,5.3,11.6,6.3,18c0.8,5.5,1.4,11.1,2,16.7c0.3,2.9,0.8,5.7,2.2,8.3
	c2.8,5.2,3.8,10.8,4.3,16.6c0.2,1.6,0.4,3.2,0.6,4.9c0.1,0.8,0,1.5-0.7,2.1C344.2,392.1,342.6,393.5,340.9,395z"/>
<path class="st0" d="M276.3,297.8c3.3,8.7,6.5,17.1,9.6,25.7c1.7,4.7,2.5,9.7,2.4,14.7c-0.3,11.7,3,22.4,8.3,32.7
	c3.6,7.1,6.1,14.6,7.5,22.5c0.5,2.5,0.6,5.1,0.6,7.7c0.1,2.4-0.4,2.6-2.6,3.4c-4,1.4-8,3-12,4.4c-0.4,0.2-0.9,0.3-1.5,0.5
	c-0.2-2-0.4-3.9-0.7-5.8c-0.9-7.5-3-14.6-5.3-21.7c-3-9.1-4.6-18.5-5.8-28c-1.2-9.3-2.5-18.6-4.2-27.9c-1-5.9-3.6-11.4-6-16.9
	c-0.6-1.3-1.6-2.5-2.4-3.7c-0.8-1.2-0.7-2.1,0.5-2.9c2.6-1.8,5.5-2.8,8.5-3.7C274.2,298.3,275.3,298.1,276.3,297.8z"/>
<path class="st0" d="M263.9,306.7c1.3,3.3,2.6,6.6,3.9,9.9c4.1,10.5,5.3,21.5,6.7,32.6c1.1,8.9,1.9,17.9,4.7,26.6
	c1.8,5.9,3.6,11.7,5.3,17.6c1.4,4.7,1.8,9.6,2.1,14.5c0.1,1.8-0.4,2.9-2.2,3.6c-2.1,0.8-4.1,1.9-6.1,2.8c-2.7,1.3-5.5,1.3-8.6,0.5
	c0-1,0-2,0-3c0.4-6.4-0.6-12.7-2.3-18.9c-2.2-8-4.1-16.1-4.8-24.4c-0.6-6.8-2.7-13.4-4.2-20.1c-0.5-2.2-1.1-4.4-1.6-6.6
	c-0.2-0.9-0.2-2-0.1-2.9c2-10.3,4.1-20.6,6.2-30.9c0.1-0.4,0.3-0.9,0.4-1.3C263.5,306.8,263.7,306.7,263.9,306.7z"/>
<path class="st0" d="M306.9,402.5c-0.5-4-0.7-7.8-1.4-11.4c-1.5-7.4-4-14.5-7.4-21.3c-3-6-5.7-12.1-6.9-18.8
	c-0.5-2.8-0.7-5.7-0.8-8.6c-0.4-7-0.9-14-3.2-20.7c-0.9-2.7-2-5.4-3-8.1c-1.7-4.7-3.5-9.3-5.1-14c-2.6-7.6-5.2-15.3-7.8-23
	c-0.5-1.5-0.6-2.8-0.2-4.3c0.7-2.6,1.2-5.3,1.8-8.2c0.8,0.1,1.6,0.2,2.4,0.4c0.7,0.2,1.3,0.6,1.9,0.9c2.8,1.4,4.8,3.3,5.1,6.6
	c0.3,2.3,0.9,4.6,1.3,6.9c1.2,7.7,3.7,15,6.9,21.9c4.8,10.2,7.5,20.9,9.2,31.9c1.1,6.8,2.1,13.7,3.2,20.5c1,6.2,3.4,11.9,6.6,17.3
	c2.1,3.5,3.9,7.3,5.6,11c1.5,3.1,2.1,6.5,2.6,9.9c0.4,2.4-0.3,4.6-0.8,6.9c-0.1,0.4-0.5,0.8-0.9,1
	C313.1,400.4,310,401.5,306.9,402.5z"/>
<path class="st0" d="M283.1,626.1c0,2.9,0.4,6-0.1,8.8c-1.4,8.1,0.4,15.9,2.4,23.6c0.5,1.9,1.5,2.9,3.5,3.6c3.7,1.2,7,3.3,9.2,6.8
	c1.3,2.1,1.7,2,3.7,0.7c1.6-1,3.2-2,4.8-2.8c2.2-1.1,3.8-2.5,3.3-5.3c2.4-1,4.8-1.8,7.5-1.5c1.9,0.2,3.7,0.4,5.6,0.5
	c1.5,0.1,2.7,0.5,3.7,1.7c0.6,0.6,1.2,1.2,1.9,1.7c5,4,9.1,8.9,13.2,13.8c1,1.2,1.9,2.7,2.5,4.2c0.9,2.2,0.6,3-1.5,4.3
	c-3.3,2-6.9,3.2-10.7,3.7c-6.3,0.7-12.6,0.5-18.8-0.9c-1.7-0.4-3.4-1-5.1-1.5c-4.2-1.4-7.3-4-9.4-7.9c-0.9-1.7-1.8-3.2-1.8-5.3
	c0.1-3-1.7-5.1-4.3-6.4c-1.9-0.9-3.9-1.5-5.9-2.2c-2.9-0.9-5.5-2.2-7.9-3.9c-1.3-0.9-2-2.1-2-3.7c0.1-5.4,0.1-10.7,0.1-16.1
	c0-2.5,0.6-4.9,1.7-7.2c1.3-2.9,2.7-5.8,4-8.6C282.7,626.1,282.9,626.1,283.1,626.1z"/>
<path class="st0" d="M171.2,416.2c2.5,0.4,4.6,0.9,6.4,2.2c3.6,2.7,7.6,4.6,11.8,5.9c0.3,0.1,0.5,0.3,0.5,0.3
	c-0.4,2.9-0.8,5.5-1,8.2c-0.3,2.6,0.6,4.9,1.7,7.2c1.5,3,2.9,6,4.1,9.1c0.5,1.1,0.6,2.4,0.7,3.6c0.3,4.9,1.4,9.7,3.4,14.2
	c0.1,0.3,0.2,0.6,0.2,0.8c-1.4,0.7-2.6,1.3-4.1,2.1c-2.7-4.9-6.6-9.3-8.6-15.5c-0.2,0.9-0.4,1.3-0.3,1.6c0.3,1.3,0.7,2.5,1.2,4
	c-0.7,0.6-1.5,1.2-2.2,1.8c-1.6,1.2-2.6,2.7-2.6,4.7c0.1,3.2-0.1,6.4,0.2,9.5c0.2,2.6,1.3,4.7,3.9,5.9c1.8,0.8,3,2.3,4,4.4
	c-1.8,0.2-3.4,0.4-5,0.4c-0.7,0-1.6-0.2-2.2-0.6c-1.5-1.3-3.2-2.4-4-4.4c-2.1-4.8-4.3-9.6-6.5-14.5c-0.1,0.4-0.2,0.8-0.2,1.1
	c0.7,3.9,2.5,7.5,4.2,11.1c0.4,0.8,0.8,1.6,1.3,2.9c-2.5-1-4.2-2.3-5-4.4c-1.3-3.1-2.4-6.2-3.5-9.3c-0.2-0.6,0-1.2-1-1.3
	c-0.2,0-0.4-0.7-0.5-1.1c-0.6-3-0.4-6.1,0.3-9c1-4.8,2.5-9.4,3.5-14.2c0.6-2.9,0.8-5.9,0.7-8.8c-0.2-4.8-0.8-9.6-1.2-14.4
	C171.1,418.6,171.2,417.5,171.2,416.2z"/>
<path class="st0" d="M245.1,711.2c-2.9-0.2-5.7-0.4-8.6-0.7c-5.4-0.7-9.5-3.5-12.5-8c-0.9-1.3-1.4-2.5-0.9-4.1
	c0.9-3.2,1.6-6.5,2.4-9.7c0.3-1.3,1.2-1.9,2.4-2.2c3-0.7,6-1.7,9-2.2c2.3-0.4,3.8-1.5,4.9-3.5c0.1-0.3,0.4-0.5,0.4-0.8
	c0.4-2.6,2.3-2.7,4.3-2.8c2.4-0.1,4.6,0.4,6.9,1.1c1.1,0.4,1.7,0.9,1.8,2.1c0.4,3.6,0.9,4.8,5.7,5.3c2.6,0.2,4.4,1.8,6.3,3.2
	c0.3,0.2,0.4,0.8,0.5,1.2c0.7,2.5,1.4,4.9,2,7.4c0.2,0.8,0.2,1.7-0.1,2.4c-1.7,4.5-5,7.4-9.4,9.1
	C255.2,710.9,250.2,711.1,245.1,711.2z"/>
<path class="st0" d="M229.4,291.6c3.2,0.2,6.2,0.5,9.5,0.7c-0.6,4.2-1.2,8.3-1.7,12.3c-0.7,5.5-1.2,11-1.9,16.4
	c-1.5,11.1-3.1,22.2-4.9,33.2c-1.1,6.7-1.9,13.4-2.2,20.1c-0.4,9.2-0.8,18.5-1.3,27.7c0,0.3-0.1,0.6-0.2,1.1
	c-2.6-0.2-5.1-0.4-7.6-0.6c-1-0.1-1.5-0.8-1.5-1.8c-0.2-7.7-1.6-15.3-0.6-23c0.1-1,0.3-2,0.6-3c2-7.3,1.9-14.6,0.7-21.9
	c-0.2-0.9-0.2-1.8-0.3-2.6c0.2-0.3,0.2-0.4,0.3-0.5c3.8-2.2,6.1-5.5,7.6-9.6c1.8-5.1,2.9-10.3,3-15.7c0.1-9.2,0.4-18.3,0.6-27.5
	C229.5,295.1,229.4,293.5,229.4,291.6z"/>
<path class="st0" d="M318.6,398.2c0.9-2.9,1-5.8,0.5-8.8c-0.8-5.1-2.7-9.9-5.1-14.4c-0.7-1.2-1.3-2.5-2.1-3.6
	c-4.4-6.6-6.8-13.9-8-21.7c-1-6.2-1.8-12.4-2.8-18.7c-1.6-10.4-4.1-20.6-8.8-30.1c-1-2-1.7-4.1-2.6-6.3c1.3-0.2,2.3-0.3,3.4-0.5
	c0.3,0.4,0.7,0.9,1,1.5c1.3,2.3,2.5,4.7,3.9,6.9c2.4,3.7,3.5,7.9,5,12c2.7,7.6,4.5,15.5,6.3,23.4c1.2,5.1,3.5,9.6,6.4,13.9
	c2.9,4.3,5.8,8.6,8.4,13.1c3.1,5.4,4.7,11.3,4,17.7c-0.2,1.5-0.3,3.1,0.2,4.4c0.8,2.4-0.3,4.3-1.4,6.1
	C325.7,395.1,321.5,397.5,318.6,398.2z"/>
<path class="st0" d="M167.2,414c-2.1-1.5-2.6-3.7-2.9-6.1c-0.1-1.2,0-2.5,0-3.7c-0.1-4.3,2.5-6.6,6.2-8c4-1.6,8.1-2.1,12.3-2.2
	c5.4-0.1,10.7,0,16.1,0c2.9,0,5.9,0.1,8.8-0.1c2.1-0.1,3.7,0.8,4.9,2.2c1.6,1.8,3.2,3.8,3.3,6.4c0,0.7,0,1.4-0.2,2
	c-0.4,1.7-0.9,3.3-1.1,5c-0.1,0.9-0.5,1.4-1.3,1.8c-3.4,1.7-5.3,2-9.7,1c2.2-1.4,3.6-3.2,3.7-5.9c-0.7,0.8-1.4,1.5-2,2.4
	c-1.4,1.8-3.2,2.3-5.4,2.3c-0.6,0-1.2-0.1-1.9-0.2c-3.8-0.8-7.5-0.4-11.2,0.9c-1.4,0.5-3.1,0.6-4.6,0.2c-5.1-1.2-9.9-0.5-14.4,2
	C167.7,413.9,167.5,413.9,167.2,414z"/>
<path class="st0" d="M244.2,219.7c-0.8,2.8-1.8,5.4-2.4,8.1c-0.6,2.9-1.1,5.8-1.2,8.8c-0.3,6-2.2,11.5-4.8,16.9
	c-2.6,5.4-6.7,9.7-10.3,14.3c-3.2,4.1-6.7,7.9-10,12c2.4-1.3,3.9-3.5,5.9-5.2c2.1-1.8,4.1-3.6,5.8-5.1c0-0.1-0.1,0.4-0.3,0.8
	c-4.2,8.7-7.5,17.6-9.5,27c-0.4,1.8-0.6,3.7-0.8,5.5c-0.1,0.8-0.3,1.7-0.7,2.5c-0.2-0.6-0.4-1.1-0.5-1.7c-0.8-3.9-2.3-7.6-4.1-11.1
	c-1.6-3.1-2-6.5-2.5-9.9c-0.8-5.1,0-9.9,1.9-14.6c1.6-4,3.4-7.9,6-11.3c0.7-1,1.6-1.9,2.5-2.7c2.7-2.4,5.4-4.7,8.1-7
	c2.9-2.4,5.1-5.2,6.6-8.7c1.7-4.1,3.2-8.2,4.7-12.4c0.4-1.1,0.9-1.9,1.8-2.6C241.6,222.2,242.8,221,244.2,219.7z"/>
<path class="st0" d="M255.6,344c1.1,4.5,2,8.6,3,12.8c1.5,5.8,2.1,11.8,3,17.7c0.8,5.4,2.1,10.7,3.4,15.9c1.9,7.3,3.4,14.5,2.9,22.1
	c0,0.7-0.1,1.4-0.2,2.1c-4.9-0.1-9.7-0.2-14.5-0.4c-1.1-2-1.1-4.1-1.1-6.2c-0.1-9.5-1.6-18.7-4.5-27.7c-0.7-2.3-0.7-4.2-0.1-6.3
	c2.5-9.5,5-19.1,7.5-28.6C255.2,345.1,255.4,344.7,255.6,344z"/>
<path class="st0" d="M208.6,267.9c-1.4,3.9-2.1,7.6-2,11.3c0.2,6.1,1.8,11.8,4.2,17.3c1.3,3,2.7,5.9,3.6,9.1
	c1.2,4.2,0.8,8.3,0.3,12.4c-0.3,2.8-0.6,5.5-0.8,8.2c-4-2.5-18.9-23.1-26.2-38.6C189.3,284.5,202.3,272.1,208.6,267.9z"/>
<path class="st0" d="M222.5,285.7c1.9-6.1,4.5-11.5,6.8-17.2c2.5,0.4,4.6-0.7,6.4-2.2c2.1-1.7,4.1-3.5,6.2-5.3
	c1.1-0.9,2.1-1.8,3.3-2.6c2.9-2.2,6-2.3,9.2-0.6c1.7,0.9,3.3,2,4.9,3.1c0.5,0.3,0.8,0.9,1.1,1.5c1.4,3.3,2.8,6.6,4.1,9.9
	c1,2.8,1,5.8,0.7,8.8c-7.1,0.5-13.9,2.1-20.9,2c-4.5-0.1-9,0.1-13.5,0.5C228,283.9,225.5,284.9,222.5,285.7z M251,269.3
	c0.1,0.4,0.2,1.2,0.6,1.8c1.1,2,3.9,2.7,5.8,1.5c2.2-1.4,3.4-4.8,2.2-6.7c-0.2-0.3-0.5-0.6-0.8-0.9c-1.4-1.2-3.1-1.6-4.8-0.8
	C252.2,265.2,251.1,266.8,251,269.3z"/>
<path class="st0" d="M285.1,613.9c1.4,0,2.6,0,3.7,0c1.1,0,7.2,3.5,7.9,4.4c1,1.3,1.5,2.7,1.5,4.3c-0.1,2.1,0,4,1.8,5.7
	c-1.4,0.9-2.6,1.7-3.8,2.5c-4.1,2.5-7.1,6.3-10.4,9.6c-1,1-1,2.4-0.4,3.5c1.7,3.1,3.6,6.2,5.6,9.2c0.9,1.4,1.9,1.3,2.8-0.1
	c1.1-1.7,2-3.7,2.7-5.6c1.5-4,2.8-8.1,4.2-12.1c0.2-0.5,0.4-1,0.8-1.8c0.3,0.7,0.5,1.2,0.7,1.6c0.9,2.6,1.5,5.3,2.7,7.7
	c1.9,3.8,2.9,7.7,3.3,11.8c0.2,2.5,0.4,5,0.7,7.4c0.2,1.5-0.3,2.5-1.8,3.1c-2.3,1-4.4,2.2-6.8,3.4c-0.1-0.1-0.5-0.4-0.6-0.6
	c-2.3-3.7-5.9-5.9-9.9-7.4c-1.4-0.5-2.1-1.3-2.5-2.7c-1.3-4.6-2.1-9.2-2.7-14c-0.3-2.3-0.1-4.5-0.1-6.7c0.1-5.2,0-10.4,0.2-15.6
	C284.4,619,284.8,616.5,285.1,613.9z"/>
<path class="st0" d="M276.7,603.7c2.5-2.1,3.4-4.8,4.2-7.7c1,0.4,1.8,0.7,2.5,1.1c3.5,1.7,7.1,2.6,11,2.7c6.9,0.3,13.7-0.3,20.4-1.6
	c5.2-1,10-3,13.9-6.7c0.1-0.1,0.4-0.2,0.8-0.4c0.1,2.8-0.3,5.5-0.9,8.1c-0.6,2.5-1.6,4.9-2.5,7.3c-0.4,1.1-1.2,1.7-2.4,1.9
	c-3.9,0.5-7.5,1.8-11.2,3.1c-1.4,0.5-3.1,0.6-4.6,0.3c-5.3-1-10.7-0.8-16-0.1c-1.4,0.2-2.8,0.4-4.2,0.4c-1.3,0.1-2.7-0.1-3.4-1.5
	C282.8,607.4,280.3,605.1,276.7,603.7z"/>
<path class="st0" d="M323.8,285c2,9.8,5.1,18.7,11.3,26.7c-0.3,1.2-0.9,2.6-1.1,4.1c-0.2,1.3,0,2.7,0.1,4.1c0,0.5,0.2,0.9,0.2,1.4
	c0.5,4.9,3,8.6,6.5,11.8c2,1.8,4.1,3.4,6.3,4.8c1.6,1.1,2,2.2,1.6,4c-0.8,4.1-1.5,8.3-2,12.4c-0.8,6.1,0,12.1,1.3,18.1
	c0.8,4,1.7,8.1,1.1,12.2c-0.1,1-0.4,1.9-0.6,2.8c-0.2,0-0.4,0-0.6,0c-0.2-1.6-0.5-3.3-0.6-4.9c-0.4-5.3-1.5-10.4-4-15.2
	c-1.7-3.3-2.2-6.9-2.6-10.6c-0.7-6-1.4-12-2.4-18c-0.9-5.3-3.2-10.2-5.7-15c-3.3-6.4-6.1-13.1-7.9-20.1c-0.9-3.4-2-6.7-3.3-9.9
	c-1.1-2.6-2.6-5.1-4-7.8C319.5,285.6,321.6,285.3,323.8,285z"/>
<path class="st0" d="M227.9,291.7c-0.2,10.1-0.4,20-0.7,29.9c-0.1,3.5-0.1,7.1-0.9,10.4c-0.9,3.9-2.5,7.7-4,11.4
	c-0.8,1.9-2.2,2.9-4.6,4.2c-0.3-3.4-0.7-6.7-0.7-10c0-2.8-0.4-5.5-0.8-8.3c-0.4-2.7-0.5-5.6-0.2-8.3c0.4-4,1.2-8,1.7-11.9
	c0.3-2.4,0.4-4.8,0.7-7.2c0.4-2.5,1-5,1.5-7.5c0.2-1,0.8-1.6,1.9-1.8C223.8,292.1,225.8,291.4,227.9,291.7z"/>
<path class="st0" d="M304.7,314.3c0.4,0.6,0.8,1.1,1.1,1.7c9.6,16.5,18.3,33.4,24.8,51.3c3.4,9.3,6.1,18.8,8.6,28.3
	c0.3,1.1,0.3,1.9-0.6,2.7c-2.3,2.1-4.6,4.2-6.9,6.2c-1,0.8-2.2,1.4-3.9,0.8c1.9-1.4,2.8-3.3,2.6-5.5c-0.1-1.5-0.4-2.9-0.8-4.3
	c-0.5-1.5-0.3-2.8,0.2-4.3c0.6-2,1.1-4,1.6-6c-0.2-0.2-0.4-0.3-0.6-0.5c-0.2,0.5-0.4,0.9-0.5,1.4c-0.2-0.1-0.4-0.1-0.5-0.2
	c0-0.9-0.2-1.9,0-2.8c1.2-6.7-0.7-12.8-3.8-18.6c-2.2-4-4.6-7.9-7.3-11.6c-4.1-5.6-6.9-11.7-8.3-18.6c-1.3-6.5-3.1-12.8-5.5-19
	c-0.1-0.3-0.2-0.7-0.3-1C304.5,314.3,304.6,314.3,304.7,314.3z"/>
<path class="st0" d="M259.3,613c-3.7,1.1-6.8,0-9.8-2.3c3.3-1.3,6.4-2.6,9.6-3.7c2.7-1,5.5-0.8,8.3-0.6c1.8,0.1,3,1.1,4,2.5
	c0.5,0.7,0.9,1.4,1.4,2.2c-1.6,2.4-3.1,4.8-4.7,7.2c-0.7,1.1-1.8,1.7-3.1,1.9c-3.8,0.6-7.4,0.5-11-0.8c-4.3-1.5-8.5-3-12.7-4.5
	c-0.6-0.2-1.4-0.4-2-0.3c-2.5,0.3-4.9,0.6-7.4,1.1c-2.1,0.4-4,0.4-5.9-0.6c-1.7-0.9-3.4-1.9-5.1-2.9c-0.8-0.5-1.3-1.2-1-2.1
	c0.7-3.2,1.5-6.3,2.4-9.5c0.2-0.6,0.7-1.2,1.2-1.9c1.4,1.6,2.6,3.1,3.9,4.4c1.5,1.5,2.9,3,4.6,4.3c2.5,1.9,5.5,3,8.6,3.3
	c3.4,0.3,6.5,1.4,9.5,2.9c0.9,0.4,1.8,0.9,2.7,1.3C255.4,615.6,257.5,615.2,259.3,613z"/>
<path class="st0" d="M296,254.5c1,1.1,2,2.2,2.9,3.1c-0.7,1.7-1.5,3.3-2,4.9c-0.5,1.6,0.1,2.8,1.7,3.3c3.2,0.9,6.2,2.7,9.7,1.6
	c0.5-0.2,1.2,0.1,1.7,0.5c4.4,3,8.7,6,13,9c0,0,0,0.1,0.1,0.5c-4.9,0.2-9.7,0.6-14.6,0.7c-4.6,0.1-9.2-0.3-13.7-0.3
	c-2.1,0-4.3,0.5-6.5,0.8c-1-1.8-1.7-3.7-2-5.7c-0.3-1.8-0.6-3.5-0.7-5.3c-0.3-3.5-0.2-7,2.3-9.9c0.9-1.1,2-1.7,3.3-2
	C292.7,255.2,294.4,254.9,296,254.5z"/>
<path class="st0" d="M358.2,327.5c3.9-4.1,8.8-5.4,14.2-5.7c0.4,1.8,0.8,3.4,1.2,5.1c1,3.6,2.6,7,4.7,10.1c1.6,2.4,2.9,5,3.1,7.9
	c-5.9,1.8-11.9,2-17.9,0.5c-2-0.5-3.7-1.2-4.5-3.4c-0.5-1.4-1.5-2.7-2.4-4c-2.2-3.2-2.2-4.2-0.2-7.7c0.3,0.1,0.6,0.2,1.1,0.3
	c0.2-0.4,0.4-0.8,0.7-1.4c2.9,2,5.8,3.9,8.8,5.9c-0.7-1.3-0.8-1.5-2.3-2.7c-1-0.8-2-1.7-3-2.5C360.4,329.2,359.4,328.5,358.2,327.5z
	"/>
<path class="st0" d="M217.7,403.7c7.4,1.8,14.7,1.5,22.4,0c-0.2,2-0.4,3.6-0.6,5.3c-0.8,5.8-1.6,11.5-2.3,17.3
	c-0.1,1.1-0.5,1.7-1.6,1.9c-0.3,0.1-0.6,0.2-0.9,0.2c-3.9,0-7.8,0-11.6,0c-0.6,0-1.2-0.2-1.9-0.4c-0.1-0.3-0.3-0.5-0.3-0.8
	c-1.1-4.8-2.3-9.7-3.4-14.5C216.6,409.4,216.4,407.4,217.7,403.7z M236.8,414.1c-0.1-0.7-0.1-1.4-0.2-2.1c-0.6-2.8-3-3.6-5.3-1.8
	c-2.6,2-2.7,6.3-0.2,8.4c1.5,1.3,3.2,1.1,4.5-0.4C236.5,417.1,236.8,415.6,236.8,414.1z"/>
<path class="st0" d="M271.8,606.6c-3.1-2.8-6.8-2.3-10.4-1.9c-3.1,0.4-5.9,1.8-8.7,3.1c-1.1,0.5-2.2,1-3.4,1.4
	c-0.1-0.2-0.2-0.3-0.3-0.5c0.8-0.6,1.6-1.3,2.4-1.8c5.9-4.3,11.5-9,16.5-14.4c5.2-5.7,9.1-12.4,13.1-18.9c0.3-0.5,0.6-1.1,0.9-1.6
	c0.1-0.1,0.2-0.2,0.5-0.4c0,2.1,0.2,4.1,0,6c-0.8,5.9-1.7,11.8-2.8,17.7c-0.6,3.2-2.1,6-4.8,8C273.7,604.2,272.9,605.4,271.8,606.6z
	"/>
<path class="st0" d="M348,335.8c-5.3-3.6-10.6-7.1-12.1-14c5.5,0.6,9.5,0.4,11.9-0.9c-0.7,0-1.1,0-1.5,0c-2.9,0.4-5.7,0.1-8.5-0.7
	c-2-0.6-2.6-1.4-2.1-3.5c0.6-2.2,1.4-4.3,2.3-6.3c1.1-2.5,2.4-4.8,3.8-7.5c3.2,5.1,6.6,10.1,11,14.4c-1.6-0.1-3.2-0.2-4.8-0.3
	c0,0.2-0.1,0.4-0.1,0.6c2.7,1.4,5.7,1.1,8.8,1.8C350.6,323.1,346.2,327.7,348,335.8z"/>
<path class="st0" d="M237.6,629.4c3.2,1.5,6.3,2.4,9.5,2.8c3.1,0.4,6.1,0,8.9-1.4c1.3-0.7,2.5-1.8,3.6-2.9c0.6-0.6,1-1.4,1.5-2.1
	c0.2,2-0.2,3.8-1.4,5.4c-1.5,2-2,4.1-2,6.6c0.1,2.7-0.3,5.4-1.3,8c-0.6,1.6-1.5,2.7-3.3,2.8c-1.8,0.2-3.5,0.6-5.3,0.8
	c-2.7,0.3-4.7-0.7-5.9-3.1c-1.4-2.9-2.5-5.9-2.5-9.1C239.5,634.5,240.1,631.7,237.6,629.4z"/>
<path class="st0" d="M385.7,301.7c-0.3-1.1-0.5-2.2-0.8-3.3c0.1-0.1,0.2-0.2,0.3-0.3c3.5,3.2,7,6.3,10.6,9.5
	c-3.8,1.7-7.5,3.4-11.2,5c-0.8,0.3-1.7,0.4-2.5,0.5c-1.8,0.2-3.7,0.4-5.6,0.7c0-0.4,0-0.9,0-1.4c0.1-2.4,0.3-4.8,0.3-7.2
	c0-1.6-0.4-3-1.6-4.3c-0.6-0.7-0.8-1.7-1.3-2.5c-1.4-2.4-2.8-4.8-4.2-7.2c-0.5-0.9-1.1-1.9-1.9-3.2c4.3,0.9,7.8,2.2,11,4.5
	c3.3,2.3,5,5.8,6.5,9.4C385.4,301.9,385.6,301.8,385.7,301.7z"/>
<path class="st0" d="M345.2,687.1c0.7,3.2-1,6.3-3.8,7.9c-3.4,1.9-7,2.5-10.7,2.6c-6.9,0.1-13.8,0.1-20.7-1.5
	c-2.7-0.6-5.2-1.6-7.4-3.2c-4.5-3.2-5.8-6-5.1-11.8c0.3,0.4,0.6,0.6,0.8,0.9c1.9,3.3,4.9,5.4,8.3,6.8c9.5,3.7,19.2,4.2,29.1,2.3
	c2.8-0.5,5.3-2,8-3.1C344.2,687.6,344.7,687.3,345.2,687.1z"/>
<path class="st0" d="M382.4,345.6c0.5-3.9-1.3-6.8-3-9.6c-2.4-4-4-8.4-5.5-12.8c1.6-1.8,3.7-2.3,5.9-2.5c3-0.2,6-0.3,9.4-0.5
	c0.1,1.6,0.1,3.2,0.1,4.8c0,1.5,0,2.9,0.2,4.4c0.8-3.1,1.2-6.3,1.3-9.5C393.8,328.4,389.5,340.8,382.4,345.6z"/>
<path class="st0" d="M234,616.9c3.3-0.6,6.5-0.6,9.7,0.5c1.5,0.5,3.1,1.1,4.6,1.7c4.2,1.5,8.3,3.1,12.8,3.1c-1.5,5.5-4.7,8-10.6,8.4
	c-3.7,0.3-7.1-0.5-10.4-2.1c-0.4-0.2-0.8-0.5-1.2-0.6c-2.9-0.7-3.7-2.9-4.2-5.5c-0.1-0.7-0.3-1.4-0.4-2.1
	C234.2,619.2,234.1,618.2,234,616.9z"/>
<path class="st0" d="M264.1,293.7c-1.1-1.3-2.8-1.7-4.3-2c-5-0.9-10.1-1.6-15.3-1.5c-4.3,0.1-8.7-0.3-13-0.4
	c-3.5-0.1-7-0.1-10.3,1.2c0.3-3.4,0.6-3.8,3.6-4.5c4.6-1.1,9.3-1.9,14.1-1.6c7.4,0.4,14.7-0.5,22-1.5c1.3-0.2,2.6-0.3,4.2-0.4
	C265.1,286.6,264.3,290.1,264.1,293.7C264,293.7,264.1,293.7,264.1,293.7z"/>
<path class="st0" d="M243.8,657.7c-0.4,3.2-0.7,6-1.1,8.9c-0.4,3.4-0.8,6.8-1.3,10.2c-0.2,1.1-0.6,2.1-1.1,3.1
	c-0.7,1.6-1.8,2.5-3.7,2.8c-3.3,0.7-6.6,1.7-10.1,2.7c0.5-3,1.2-6,1.5-9.1c0.3-2.8,1.6-4.8,3.6-6.7
	C235.7,665.9,239.5,661.9,243.8,657.7z"/>
<path class="st0" d="M222.7,541.1c1.7,4.7,2.7,9.5,3.2,14.4c0.6,6,0.9,11.9,1.6,17.9c0.5,4.2,1.5,8.4,2.4,12.6
	c1.1,4.9,1.4,9.8,1.2,14.8c0,0.7-0.2,1.4-0.3,2.1c0,0.2-0.2,0.4-0.5,0.8c-1.5-1.6-2.9-3.1-4.4-4.7c1.3-1.9,1-3.9,0.7-5.9
	c-1.1-6.6-2.2-13.2-3.6-19.7c-1.1-5.4-1.4-10.7-1-16.2c0.4-5.1,0.3-10.2,0.5-15.4C222.6,541.5,222.7,541.3,222.7,541.1z"/>
<path class="st0" d="M222.4,702.5c0.4,0.5,0.7,0.8,0.9,1.1c2.8,4.9,7,7.7,12.5,8.5c7.5,1.1,15,1.1,22.5-0.6c4.6-1,8.3-3.5,11.2-7.1
	c1.1,2.1,0.7,4.8-1.3,6.7c-1.9,1.9-4.2,3.3-6.8,4c-5.9,1.6-11.9,2.9-18.2,2.7c-7-0.3-13.4-2.4-19-6.7
	C221.5,709.1,220.9,706,222.4,702.5z"/>
<path class="st0" d="M254.5,658c0.7,0.3,1.2,0.3,1.5,0.6c2.1,2.1,4.2,4.2,6.2,6.4c2.4,2.6,3.6,6,5,9.2c0.1,0.3,0.1,0.6,0.1,0.9
	c0,3.6-0.1,7.1-0.1,10.7c0,0.2-0.1,0.4-0.2,0.9c-2.1-2.1-4.7-2.5-7.3-2.8c-2-0.3-2.3-0.6-2.6-2.7c-0.4-2.9-0.7-5.9-1.1-8.8
	c-0.4-3.1-1-6.1-1.3-9.2C254.3,661.6,254.5,659.9,254.5,658z"/>
<path class="st0" d="M250.9,414.3c-2.9,0.1-5.8-0.2-8.6-1.3c-1.1-0.4-1.7-1.1-1.5-2.5c1.4-9.7,2.6-19.4,5-28.9
	c0.1-0.4,0.2-0.7,0.4-1.5C249.6,391.5,250.4,402.8,250.9,414.3z"/>
<path class="st0" d="M292.7,480.4c0.2,4.4-1.6,8.3-3.3,12.2c-0.2,0.5-0.9,0.9-1.4,1c-5,0.8-9.9-2.2-8.9-8.2c0.7-4,2.5-7.5,5.9-10
	c2-1.5,4.8-1.5,6.7,0.2c0.4,0.4,0.7,1,0.8,1.5C292.7,478.2,292.7,479.3,292.7,480.4z"/>
<path class="st0" d="M291.3,286.9c-0.9-2.3-1.8-4.5-2.8-6.7c5.8-1.1,11.5-1.1,17.1-0.6c3.6,0.3,7.1,0.2,10.7-0.2
	c3.3-0.3,6.7-0.6,10-0.3c2,0.1,4,1.1,5.8,2c0.7,0.3,0.9,1.5,1.4,2.6c-1.9-0.2-3.4-0.6-4.9-0.5c-3.1,0.1-6.2,0.2-9.3,0.6
	c-3.9,0.5-7.7,0.6-11.6,0.4c-5.4-0.3-10.7,0.4-15.7,2.6C292,286.9,291.8,286.9,291.3,286.9z"/>
<path class="st0" d="M335.6,310c-0.8-1.1-1.8-2.2-2.4-3.4c-3.1-6.1-5.6-12.5-7.1-19.2c-0.2-0.8-0.2-1.6-0.4-2.6
	c2.9-0.3,5.5,0,7.9,1.2c0.5,0.3,1,0.9,1.3,1.5c1.8,3.9,3.6,7.9,5.4,11.9c0.4,0.8,0.6,1.6,0.1,2.4c-1.4,2.7-2.8,5.3-4.1,8
	C336.1,310,335.9,310,335.6,310z"/>
<path class="st0" d="M265.2,593.4c-1.2,1.1-2.5,2.3-3.9,3.4c-2.1,1.7-4.3,3.4-6.4,5.1c-0.8,0.7-1.5,0.9-2.5,0.3
	c-1.1-0.6-2.3-0.9-3.3-1.6c-3.7-2.6-3.7-7.6,0.1-10c3.8-2.4,7.9-3.1,12.2-1.2C263.4,590.3,263.9,590.9,265.2,593.4z"/>
<path class="st0" d="M343.5,500.1c-0.3,2.4-0.6,5.8-1,9.2c-0.3,2.7-3.8,4.6-6.4,3.6c-3-1.1-5.5-5-5-8.2c0.2-1.7,0.8-3.3,1.5-4.9
	c1.5-3.2,4.3-4.6,7.7-4.6C343,495.3,343.8,496.3,343.5,500.1z"/>
<path class="st0" d="M243.3,245.1c0.3,0.7,0.8,1.3,1,2.1c0.5,1.9,1.8,3,3.5,3.8c1.8,0.9,3.7,1.7,5.4,2.7c1.1,0.6,2.3,1.1,2.8,2.9
	c-0.6-0.2-0.8-0.3-1.1-0.4c-4.6-2.4-8.6-1-12.3,1.9c-1.3,1-2.4,2.2-3.6,3.3c-2,1.6-4,3.2-6,4.7c-0.6,0.4-1.4,0.7-2.4,1.2
	c0.2-0.9,0.3-1.4,0.5-1.8c1.1-2.1,2.4-4.1,3.5-6.3c1.6-3.3,3.3-6.5,4.6-9.9c0.7-1.8,1.7-3.1,3.5-3.6
	C242.8,245.5,243,245.3,243.3,245.1L243.3,245.1z"/>
<path class="st0" d="M262.2,630.9c3.4,9.5,4.3,19.1,2.7,29c-2.9-3.8-6-7.2-10.5-9.4c4.1-2.5,4.5-6.6,5-10.7c0.1-0.6,0-1.2,0-1.9
	C259.3,635.2,260.1,632.9,262.2,630.9z"/>
<path class="st0" d="M243.5,650.7c-3.9,2-7.9,4.1-11.9,6.1c-0.1-0.1-0.3-0.1-0.4-0.2c3.3-10,3.9-20.2,2.6-30.6
	c0.3,0.4,0.5,0.8,0.8,1.2c0.6,1.1,1.2,2.1,1.9,3.2c1,1.5,1.6,3,1.4,5c-0.4,4.5,0.9,8.6,3.2,12.4
	C241.6,648.9,242.5,649.7,243.5,650.7z"/>
<path class="st0" d="M345.2,411.2c-1.5-5.3-2.8-10-4-14.6c3-2.6,5.9-5,8.9-7.5c0.9,4.4,3,8.8,0.9,13.6
	C349.7,405.8,348.2,408.7,345.2,411.2z"/>
<path class="st0" d="M345.8,456.8c0.6,2.1-0.6,3.7-1.9,5.2c-3,3.7-8.1,2.4-10.1-0.5c-1-1.4-1.2-3-0.7-4.7c1.2-3.8,5.3-6.6,9.2-6.1
	c0.6,0.1,1.3,0.4,1.6,0.8C345,453.2,346.7,454.5,345.8,456.8z"/>
<path class="st0" d="M269.9,277.7c2,6.1,4,12.3,5.9,18.2c-3.7,1.3-7.4,2.6-11.2,3.9c0.9-6.6,1.7-13.3,2.6-20
	C268.1,279.1,269.1,278.3,269.9,277.7z"/>
<path class="st0" d="M329.8,555c-2.6,0-5-2.6-4.7-5.3c0.4-3.7,2.6-8.9,8.2-9.9c0.5-0.1,0.9-0.2,1.4-0.2c2.3,0,3,0.9,2.5,3.2
	c-0.6,2.7-1.3,5.4-2,8.1C334.5,553.6,332.6,555.1,329.8,555z"/>
<path class="st0" d="M210.2,497.9c0.1-1.9,0.2-3.7,0.3-5.6c0.1-1.3,0.5-2.4,1.9-2.9c1.3-0.4,2.3,0.3,3,1.2c2.1,2.5,3.5,5.3,4.2,8.4
	c0.4,2.1-0.1,4.2-1.3,6c-1.2,1.7-3,2.3-4.9,1.4c-0.9-0.4-1.8-0.9-2.6-1.5c-0.4-0.3-0.7-1-0.7-1.5
	C210.1,501.6,210.1,499.7,210.2,497.9C210.2,497.9,210.2,497.9,210.2,497.9z"/>
<path class="st0" d="M355.8,341.5c-1.8-1.2-3.6-2.5-5.4-3.7c-0.2-0.2-0.4-0.5-0.5-0.7c-1.6-3.5-0.8-8.9,1.8-11.8
	c2.5-2.8,5.6-4.9,9-6.1c2.9-1,6.1-1.2,9.2-0.4c0.6,0.1,1,0.6,2.1,1.2c-1.4,0.3-2.3,0.5-3.3,0.6c-6,1-10.8,3.7-14,9
	c-2,3.3-2.2,6.5,0.3,9.7c0.5,0.6,0.8,1.2,1.2,1.9C356,341.3,355.9,341.4,355.8,341.5z"/>
<path class="st0" d="M172.3,414c2.7-0.9,5.2-1.3,7.7-0.7c3.4,0.8,6.6,0.7,9.8-0.6c1.4-0.6,3-0.9,4.6-0.3c-0.9,3.6-1.7,7.2-2.6,11
	c-3.9-1.1-7.3-2.5-10.4-4.5c-2.5-1.6-5-3.5-8-4C173,414.7,172.8,414.4,172.3,414z"/>
<path class="st0" d="M374.5,320.3c0.4-1.3,0.6-2,0.8-2.7c0.2-1.1,1-1.7,2-2c1-0.3,2-0.6,3-0.6c4.2,0.1,7.6-1.8,11.1-3.8
	c1.4-0.8,3.1-1.3,4.7-1.9c0.8-0.3,1.5-0.1,2.1,0.6c1,1.1,2,2.1,3.2,3.3c-0.7,0.3-1.1,0.6-1.6,0.7c-2.5,1-5,2-7.6,3.1
	c-2.5,1-5.2,1.6-7.9,1.5C381.1,318.6,377.9,318.7,374.5,320.3z"/>
<path class="st0" d="M284.7,257.6c-3.4,2.5-7.1,3.6-11.2,3.8c-0.1-0.4-0.2-0.7-0.3-1c-0.4-1.9-0.8-2.2-2.6-2.1
	c-3.9,0.1-7.7-0.7-11.4-2c-0.6-0.2-1.1-0.6-1.5-0.9c-1.4-1.1-2.7-2.3-4.1-3.4c-1-0.8-1.3-1.6-0.8-2.8c0.5-1.2,1.3-2.1,2.8-2.6
	c0.7,1.2,1.6,2.4,2.2,3.7c0.6,1.3,1.4,1.8,2.7,2.2c1.5,0.5,3,1.2,4.5,1.9c3.5,1.7,7.1,2.6,11,2.7
	C278.9,257.2,281.8,257.5,284.7,257.6z"/>
<path class="st0" d="M246.3,219.4c-0.2,1.9-0.2,3.2-0.4,4.6c-0.5,2.8-0.1,5.4,0.9,8c1.3,3.4,2.8,6.7,4.2,10.1
	c-3.3,0.8-6.7,1.7-10.2,2.6c0.2-1.1,0.5-2.2,0.6-3.3c0.3-3,0.6-6,0.9-9c0.4-3.8,1.3-7.5,2.9-11C245.4,220.8,245.8,220.3,246.3,219.4
	z"/>
<path class="st0" d="M214.9,462c-2.1-6.8-3-13.5,0.7-20.1c2.3,0.8,3.6,2.5,4.3,4.7c1.6,5.3,1.1,10.1-3.4,14
	C216,461,215.5,461.5,214.9,462z"/>
<path class="st0" d="M229.4,573.9c-0.2-0.4-0.4-0.6-0.5-0.9c-0.3-2.8-0.6-5.7-0.7-8.5c-0.1-1.6,1.3-2.8,3-2.9c4-0.3,8.3,5,7.3,8.9
	c-0.5,1.9-3,3.6-5.5,3.6C231.8,574.2,230.6,574,229.4,573.9z"/>
<path class="st0" d="M267.4,277.3c-1-6.9-4.1-12.8-7.1-18.7c3.8,0.6,7.5,1.1,11.4,1.7C270.7,266,269.9,271.9,267.4,277.3z"/>
<path class="st0" d="M296.3,632.9c-1.9,3.4-3.6,6.4-5.3,9.5c-0.4,0.7-0.7,1.4-0.9,2.1c-0.4,1.3-0.3,1.5,1.7,2.3
	c-1.1-1.7-0.1-2.9,0.5-4.2c1.9-4.1,4.4-7.8,7.7-11.1c-0.2,0.6-0.3,1.2-0.5,1.8c-1.6,4.7-3.2,9.4-4.9,14.1c-0.5,1.6-1,3.2-2.4,4.8
	c-1.8-3.2-3.5-6.1-5.2-9c-0.4-0.8-0.3-1.5,0.3-2.1C290,638.1,292.9,635.5,296.3,632.9z"/>
<path class="st0" d="M343.6,181.1c-4.5-8.1-8-17-15.7-22.9c0.3-1,0.8-1.3,1.6-0.9c3.9,2,7.6,4,10,8c2,3.3,3.3,6.8,4.4,10.5
	c0.4,1.6,0.3,3.3,0.5,5C344,180.9,343.8,181,343.6,181.1z"/>
<path class="st0" d="M298.6,617.9c4,1.1,7.8,0.7,11.9-1.6c-1,3.9-1.5,7.3-3.4,10.4c-2.2,0-4.4,0-6.8,0c-0.8-1.1-0.5-2.7-0.8-4.2
	C299.3,621.1,299,619.7,298.6,617.9z"/>
<path class="st0" d="M215.5,395.5c-1.6-1.1-3.1-2-4.7-3.1c0.3-1.2,0.7-2.4,0.9-3.7c0.8-5,1.6-9.9,2.4-14.9
	c0.8-5.2,1.5-10.4,2.4-16.1c1,2.3,1.3,5.2,0.9,8.1c-0.5,3-1.1,5.9-1.6,8.9c-0.4,2.9-0.9,5.9-0.9,8.8c0,3.6,0.4,7.3,0.6,10.9
	C215.5,394.7,215.5,395.1,215.5,395.5z"/>
<path class="st0" d="M245.4,651.7c-0.1,1.1,0.1,1.9-0.2,2.2c-0.7,0.9-1.6,1.7-2.5,2.3c-3.3,2.1-6.7,4.2-10.1,6.2
	c-2,1.2-4.1,2.4-6.5,3.2c-0.5-1.9-0.2-3.2,1.3-4.4c2.4-2,5.2-3.4,7.9-4.8C238.5,654.9,241.7,653.5,245.4,651.7z"/>
<path class="st0" d="M311.5,634.5c1.6,1.2,3.2,2.3,4.8,3.5c0.1-0.1,0.3-0.2,0.4-0.3c-0.2-0.4-0.2-0.9-0.5-1.2
	c-2.5-2.1-5-4.2-7.5-6.2c-0.5-0.4-1.1-0.8-1.5-1.6c3.9,1.3,7.7,2.6,11.7,3.9c0,4.1,0,8,0,12.3C315.6,641.7,314.2,637.6,311.5,634.5z
	"/>
<path class="st0" d="M288.2,150c7.6-2.1,15.3-3.1,23.1-1.1c2.6,0.7,5.3,1.3,7.9,2.1c2.4,0.8,4.4,2.2,5.7,5c-0.7-0.3-1.2-0.3-1.5-0.5
	c-6.4-4.2-13.6-5.6-21-5.8c-4.1-0.1-8.2,0.2-12.3,0.3C289.4,150.1,288.8,150,288.2,150z"/>
<path class="st0" d="M328.4,394.8c0.1,1.9,0.2,3.5,0.2,5.2c-0.1,3.4-1.9,4.7-5.2,3.9c-2.5-0.7-5.1-1.3-8-2.1
	c2.2-1.3,4.6-1.6,6.5-2.8C324,397.8,326,396.4,328.4,394.8z"/>
<path class="st0" d="M253.3,651.8c2.8,1.3,5.2,3,7.2,5.3c1.1,1.2,2,2.5,3,3.9c1.9,2.6,3.8,5.3,5.8,8c-0.4,0.8-0.7,1.5-1.1,2.4
	c-0.4-0.3-0.6-0.4-0.7-0.6c-1.9-4.3-4.7-7.8-8.1-11c-1.9-1.8-3.8-3.7-5.6-5.6c-0.5-0.5-0.7-1.2-1.1-1.9
	C252.9,652,253.1,651.9,253.3,651.8z"/>
<path class="st0" d="M292.9,613.5c6-1.3,11.8-0.5,17.5,0.4C306.9,618.2,297.6,617.2,292.9,613.5z"/>
<path class="st0" d="M255.1,293.9c1.6,0,3.1,0.8,3.4,1.7c0.4,1.2-0.3,2.9-1.6,3.8c-1.9,1.3-4.8,0.9-6.4-0.7
	c-1.5-1.5-1.1-3.2,0.9-3.9c1-0.3,2.1-0.6,3.1-0.9C254.7,293.9,255,293.9,255.1,293.9z"/>
<path class="st0" d="M308.2,646.9c-0.8-1.8-1.6-3.5-2.5-5.5c2.4-0.2,4.5-0.4,6.9-0.6c0.6,1.8,1.2,3.5,1.8,5.4
	C312.3,646.4,310.3,646.6,308.2,646.9z"/>
<path class="st0" d="M243.3,245.1c2.8-0.7,5.6-1.2,8.5-1.2c1,0,1.6,0.3,2,1.4c-1.3,1.3-3,2.5-2.5,5.3c-2.5-1.4-5-1.9-6.3-4.4
	C244.7,245.6,243.8,245.4,243.3,245.1C243.3,245.1,243.3,245.1,243.3,245.1z"/>
<path class="st0" d="M253.4,661.9c0,1.5,0,2.8,0,4.1c-2.9-0.2-5.7-0.3-8.8-0.5c0.1-0.9,0.2-2,0.4-3.2
	C247.8,661.6,250.4,661.1,253.4,661.9z"/>
<path class="st0" d="M310.4,636.6c-2.2,0.4-4,0.7-6,1c-0.7-1.8-1.4-3.6-2.3-5.7c0.9-0.3,1.7-0.5,2.5-0.7c1.2-0.3,2.1,0,2.8,1.1
	C308.2,633.7,309.2,635,310.4,636.6z"/>
<path class="st0" d="M284.6,274.5c0.2,0.4,0.6,0.9,0.7,1.3c1.6,5.4,3.6,10.6,6.4,15.5c0.2,0.3,0.2,0.6,0.4,1
	c-0.9,0.3-1.8,0.5-2.8,0.8C287.1,287,285.2,280.9,284.6,274.5L284.6,274.5z"/>
<path class="st0" d="M311.3,628.4c-0.9-0.2-1.7-0.5-2.5-0.7c1.2-4.2,2.3-8.3,3.6-12.9c0.4,0.8,0.7,1.2,0.7,1.6
	C313.7,621,313.2,624.7,311.3,628.4z"/>
<path class="st0" d="M243.6,673.5c0.2-1.1,0.3-2,0.5-2.9c3.3-0.5,6.5-0.6,9.8,0.3c0.1,0.8,0.2,1.7,0.3,2.6
	C250.7,673.5,247.4,673.5,243.6,673.5z"/>
<path class="st0" d="M320.3,655.3c1.2,1.5,1.9,2.4,2.9,3.6c-0.8,0.1-1.4,0.5-1.9,0.3c-3.8-1.4-7.5-0.4-11.4,0.8c-0.1-1-0.1-2-0.2-3
	c2.1-0.2,3.9-0.4,5.7-0.5c0.9-0.1,1.9-0.2,2.8,0C319.2,656.8,319.9,656.8,320.3,655.3z"/>
<path class="st0" d="M284.2,268.1c-2.8-1.7-5.4-3.3-8.1-4.9c2.7-0.8,5.3-1.6,8.1-2.4C284.2,263.2,284.2,265.6,284.2,268.1z"/>
<path class="st0" d="M317.4,651.6c0.7,1,1.3,2,2.3,3.4c-1.9,0.1-3.4,0.6-4.5,0.1c-1.9-0.7-3.6-0.4-5.6-0.1c-0.1-0.8-0.2-1.6-0.2-2.4
	c1.7-0.7,3.3-0.6,4.9-0.3C315.5,652.5,316.5,652.5,317.4,651.6L317.4,651.6z"/>
<path class="st0" d="M317.5,651.6c-2.7-1.1-5.4-0.7-8.3-0.5c-0.2-1.1-0.4-2-0.7-3.2c2.3,0,4.3-0.1,6.3,0c0.5,0,1.1,0.5,1.4,0.9
	C316.7,649.8,317,650.7,317.5,651.6C317.4,651.6,317.5,651.6,317.5,651.6z"/>
<path class="st0" d="M228.8,670.1c0.3-1.2,0.6-2.4,1-3.6c0.2-0.5,0.5-1,0.9-1.3c2.5-1.6,5-3.1,7.5-4.6c0.1-0.1,0.3,0,0.1,0
	c-3,3.1-6.1,6.4-9.3,9.6C229,670.3,228.9,670.2,228.8,670.1z"/>
<path class="st0" d="M252.9,659.9c-2.5,0.3-5,0.6-7.8,0.9c0.1-1.1,0.3-2.1,0.4-3.4c2.2,0.1,4.4,0.2,6.5,0.4
	C253.2,658,253,659,252.9,659.9z"/>
<path class="st0" d="M253.6,669.2c-3,0-6.1,0-9.2,0c-0.5-2.2-0.2-2.6,2.1-2.4c2.1,0.2,4.3,0.7,6.4,1
	C253.6,668,254.1,668.3,253.6,669.2z"/>
<path class="st0" d="M254.5,676.4c-3.8-0.2-7.4-0.4-11-0.6c-0.1-0.5,0-1.1,0.8-1.2c3.3-0.1,6.6-0.3,9.8,1.2
	C254.2,675.9,254.3,676.1,254.5,676.4z"/>
<path class="st0" d="M195.3,472.2c2.5-2.5,2.5-2.5,4.4-2.7c0,0.9,0.1,1.8,0,2.7c-0.2,1.6-1.2,2.1-2.6,1.2
	C196.5,473.1,196,472.7,195.3,472.2z"/>
<path class="st0" d="M312.3,639.2c-2.4,0.4-4.5,0.8-6.9,1.2c-0.2-0.5-0.5-1-0.9-1.7c0.6-0.2,1-0.4,1.5-0.5
	C309.8,637.9,311.1,638.1,312.3,639.2z"/>
<path class="st0" d="M250.6,651.3c-0.2,0.9-0.3,1.6-0.5,2.3c-0.9,0.2-1.8,0.4-2.9,0.6c0-1.1,0-1.9,0-3
	C248.3,651.3,249.3,651.3,250.6,651.3z"/>
<path class="st0" d="M252.2,654.9c0,0,0.2,0.2,0.2,0.4c0.1,0.3,0.1,0.6,0.1,0.9c-0.2,0.1-0.3,0.2-0.5,0.2c-2.1,0-4.1,0.1-6.2,0.1
	c0,0-0.1-0.3-0.1-0.3C247.8,655.7,249.8,655.3,252.2,654.9z"/>
<path class="st0" d="M302.2,630.1c0.4-2.3,0.4-2.3,2.9-2C305.2,629.8,305.2,629.8,302.2,630.1z"/>
<path class="st0" d="M284.7,274.4c-0.4-1.1-0.8-2.2-1.2-3.3C284.7,272,284.8,273.2,284.7,274.4C284.6,274.5,284.7,274.4,284.7,274.4
	z"/>
<path d="M243.5,484.3c0.1,6.7-7.6,12.1-14.4,8.4c-4.6-2.5-7-7.6-6.1-12.8c0.5-2.7,2-4.7,4.1-6.3c0.9-0.7,2.4-1,3.5-0.9
	c2.1,0.1,4.3,0.4,6.4,1c2.4,0.7,4.1,2.5,5,4.9C242.8,480.5,243.1,482.5,243.5,484.3z M241.4,484.4c0-5.8-3.1-9.2-8.8-9.7
	c-0.6-0.1-1.3,0-1.9-0.2c-1.8-0.6-3.1,0.3-4.1,1.5c-0.7,0.8-1.3,1.9-1.7,3c-1.6,4.9,0.9,10.1,5.5,12.5
	C235.8,494.2,242.1,488.8,241.4,484.4z"/>
<path d="M256.4,520.6c-1-0.1-2-0.1-3-0.4c-6.5-1.6-9-8.3-5.2-13.9c1.7-2.5,4.1-4.3,6.7-5.6c4.5-2.3,10.1,1.1,11.6,4.6
	c1,2.2,1.5,4.6,1.3,7c-0.2,1.9-0.9,3.4-2.3,4.7C263,519.4,260,520.7,256.4,520.6z M256.9,501.6c-0.8,0.2-1.8,0.2-2.4,0.7
	c-1.8,1.5-3.8,3-5.2,4.9c-2.9,4.1-1.2,10.3,4.6,11.4c4.1,0.8,7.5-0.4,10.5-3.1c1.2-1.1,1.7-2.5,1.7-4.2
	C266.2,505.8,262.6,502.1,256.9,501.6z"/>
<path d="M260.6,467.3c-3.8-0.2-6.8-2.1-8.6-5.6c-1.5-2.8-0.7-5.5,1.1-7.8c1-1.3,2.3-2.6,3.7-3.5c4.2-2.9,10.4-2.2,14.2,1.2
	c1.6,1.5,1.9,3.3,1.6,5.3c-0.7,4.4-6.5,9.9-10.9,10.3C261.4,467.2,261.1,467.2,260.6,467.3z M261.4,465.5c0.7-0.3,2-0.5,2.9-1.1
	c1.7-1.2,3.4-2.5,4.6-4.2c3.4-4.3,2.4-7.3-2.7-9.3c-7.1-2.8-11.8,1.8-13,6.3c-0.5,1.8-0.2,3.4,0.9,4.8
	C255.9,464.1,258.1,465.3,261.4,465.5z"/>
<path d="M246.8,553.1c0-2.3,0.9-4.2,2.7-5.7c1.9-1.5,3.9-2.4,6.4-2.3c3.1,0.1,6,0.8,8.6,2.4c2.5,1.5,3.2,3.6,2.5,6.4
	c-0.5,2.1-1.8,3.6-3.4,4.8c-4.9,3.6-11.2,2.2-14.8-1.1C247.4,556.4,246.9,554.9,246.8,553.1z M256.4,559.2c3.4-0.2,5.6-1.1,7.3-3.1
	c2.9-3.3,2.4-6-1.5-7.7c-1.6-0.7-3.4-0.9-5.1-1.6c-2.2-0.9-4.2-0.2-5.9,1c-3.4,2.4-4,7.7,0.6,9.8
	C253.4,558.5,255.3,558.8,256.4,559.2z"/>
<path d="M241.3,528.8c0.1,6.8-6.2,8.1-10.3,5.9c-3.1-1.7-4.8-4.5-5.6-7.9c-0.4-1.7-0.5-3.4,0.1-5c1-2.5,3-3.7,5.7-3.2
	c3.3,0.6,5.9,2.2,8.1,4.7C240.7,524.7,241.3,526.6,241.3,528.8z M231,519.8c-2.6,0-3.8,1-4,3.1c-0.4,3.3,0.5,6.4,2.9,8.8
	c0.9,1,2.3,1.7,3.5,2c3.3,0.9,6-1.3,6.2-4.7c0.1-1.9-0.7-3.5-1.8-4.9C235.8,521.8,233.3,520.4,231,519.8z"/>
<path d="M313.9,494.2c-7.7,0.2-12.3-8.6-10.4-13.2c1.2-3,2.8-5.7,6.3-6.5c2.4-0.6,4.6,0.2,6.7,1.3c1.3,0.7,2.6,1.8,3.7,2.8
	c2.8,2.6,3.5,6.4,2.1,10C320.8,492.1,317.7,494.2,313.9,494.2z M321.1,484.6c-0.1-0.3-0.1-1-0.3-1.6c-1.5-3.6-4.5-5.6-7.7-7.4
	c-0.2-0.1-0.6,0-0.9-0.1c-4.9-0.5-8.6,6.5-7.1,10.1c1.2,2.9,3.1,5.2,6.1,6.3C316,493.7,321.1,490.1,321.1,484.6z"/>
<path d="M305.9,553.2c4.5,0,8.1,2.7,9.1,6.9c1,4.2-1.3,8.8-5.2,10.7c-1.8,0.8-3.6,0.9-5.4,0.4c-3.4-1.1-7.7-7.3-6.6-11.7
	c0.9-3.8,2.6-5.7,7.3-6.1C305.3,553.1,305.6,553.2,305.9,553.2z M299.1,560.1c0.1,3.9,1.9,6.7,5,8.8c1.3,0.9,2.8,1,4.2,0.4
	c3.2-1.1,5.5-4.9,5-8.2c-0.5-3.5-3.7-6.2-7.4-6.2c-1.2,0-2.3,0.4-3.5,0.4c-1.5,0-2.3,0.9-2.8,2.1
	C299.4,558.2,299.3,559.2,299.1,560.1z"/>
<path d="M314.7,514.8c2.3-0.1,4.1,1,5.5,2.6c2.3,2.6,2.7,7,1,10c-1.2,2.1-3.1,3.2-5.5,3.2c-5,0-9.3-4-9.8-8.9
	c-0.3-2.9,2.1-5.9,5.2-6.6C312.3,515,313.5,514.9,314.7,514.8z M315.5,528.9c2.6,0,4-1,4.8-3.5c1.3-4.4-0.5-7.6-5-8.9
	c-0.3-0.1-0.6-0.2-0.9-0.3c-2.2-0.8-4-0.1-5.5,1.4c-1.5,1.5-2.1,3.4-1.4,5.6C308.7,526.6,311.8,528.9,315.5,528.9z"/>
<path d="M306.3,540.6c9.6-2.8,17.7-7.6,25.3-13.4c-5.7,6.9-13.1,11.1-21.6,13.6C308.9,541.1,307.8,541.6,306.3,540.6z"/>
<path d="M276.3,209.3c-0.3-1.3-0.6-2.6-1-3.9c-0.4-1.3-0.4-2.9-2.5-3c-0.6,1.2-0.6,3-2.2,3.5c-0.9,0.3-1.8,0.4-2.7,0.3
	c-1.7-0.2-2.3-1.4-2.5-4.5c-0.7,0.2-1.5,0.4-2.2,0.5c-0.7,0.1-1.4,0.2-2.1,0.3c0-0.2-0.1-0.4-0.1-0.7c2.1-0.7,4.1-1.7,6.2-2.1
	c1.3-0.2,2.7,0.5,4.1,0.7c3.5,0.5,5.3,2.6,5.6,6C276.9,207.3,277.6,208.2,276.3,209.3z M269.1,201.8c-0.9-0.1-1.6-0.3-3-0.5
	c0.6,0.9,0.8,1.5,1.2,1.7C268.2,203.4,268.8,203,269.1,201.8z"/>
<path d="M310.4,219.8c-0.9,1-1.4,0.5-1.8,0c-0.9-1.1-1.8-2.1-2.6-3.3c-0.7-1.1-1.6-1.8-3-1.8c-1.2,0.4-0.6,2.3-2.1,2.5
	c-0.8,0.1-1.7,0.1-2.5,0c-1.6-0.3-2.4-1.3-2.4-2.9c-1.1,0.1-1.8,1.7-3.2,0.9c1.6-1.8,3-3.5,5.9-2.8c1.6,0.4,3.4,0.5,5.1,0.7
	c1.4,0.2,2.6,0.9,3.4,2.1C308.1,216.9,309.3,218.3,310.4,219.8z M299.9,214.3c-1.5-0.4-1.5-0.4-2.5-0.1
	C298.7,214.9,298.7,214.9,299.9,214.3z"/>
<path d="M271.4,223.1c-0.7,3.3-0.6,3.1,2.5,5.3c1.8,1.3,3.6,2.3,5.8,2.5c0.7,0.1,1.4,0.6,2.1,1c1,0.5,2.1,0.7,3.1-0.1
	c1-0.8,1.2-1.7,0.9-2.9c-0.2-0.7-0.2-1.5-0.4-2.4c1.6,1.7,1.7,4.8,0.4,6.2c-1,1.1-2.3,1.3-3.7,0.7c-1.9-0.8-3.7-1.6-5.7-1.8
	c-0.4,0-0.9-0.4-1.2-0.6c-1.3-0.8-2.6-1.7-3.9-2.6C269.1,227,269.2,224.7,271.4,223.1z"/>
<path d="M262.4,193.2c2.7-0.1,5.3-1.3,8,0.8c2,1.5,4.5,2.3,6.9,3.3c0.7,0.3,1.5,0.5,2.2,0.8c0.6,0.3,1.2,0.7,0.8,1.4
	c-0.3,0.5-1,0.8-1.6,1c-0.3,0.1-0.7-0.3-1-0.5c-2.6-1.6-5.4-3.1-7.9-4.9c-1.4-1-2.9-1.4-4.6-1.3c-0.9,0-1.8,0-2.8,0
	C262.4,193.7,262.4,193.4,262.4,193.2z"/>
<path d="M313.6,212.5c-2.5-0.6-5-1.3-7.4-1.9c-0.9-0.2-1.8-0.5-2.6-0.9c-2.2-1-4.3-1.5-6.7-1c-0.2,0.1-0.5-0.2-1.1-0.3
	c1.4-1.5,3-1.6,4.6-1.2c4,1,7.9,2.1,11.9,3.2C313.1,210.6,314,211,313.6,212.5z"/>
<path d="M261,234c2.4,1.1,4.4,2.1,6.4,2.9c1.9,0.8,3.9,1.5,5.9,2c2.4,0.7,8.2,3.1,10.1,4.4c-1.4,0.4-2.5,0.1-3.6-0.3
	c-5.2-2.1-10.4-4.1-15.5-6.3C263,236.3,261.8,235.7,261,234z"/>
<path d="M267.4,241.9c1.8-0.2,3.3,0.5,4.8,1.4C270.5,243.3,268.9,243,267.4,241.9z"/>
<path d="M253.5,332.1c0,3-2.1,5.3-5,5.3c-3,0.1-5.1-1.8-5.2-4.5c-0.1-2.7,2.8-5.2,6.1-5.3C251.7,327.6,253.5,329.6,253.5,332.1z
	 M248.4,329.3c-1.7,0-3.3,1.7-3.3,3.5c0,1.5,1.7,2.9,3.3,2.9c1.7,0,3.3-1.8,3.3-3.6C251.6,330.5,250.2,329.3,248.4,329.3z"/>
<path d="M238.1,369.5c2.4,0.1,4.2,2,4.1,4.4c-0.1,2.1-2,4-4.1,4c-2,0-4-2.2-4-4.4C234.2,371.2,235.9,369.5,238.1,369.5z
	 M235.6,373.1c0,1.5,1.2,2.9,2.4,2.9c1.1,0,2.4-1.4,2.4-2.4c0-1.3-1.7-2.7-3.1-2.6C236.3,371.1,235.6,372,235.6,373.1z"/>
<path d="M251,269.3c0.1-2.5,1.2-4.1,3.1-4.9c1.7-0.8,3.3-0.4,4.8,0.8c0.3,0.2,0.6,0.5,0.8,0.9c1.2,1.8,0,5.3-2.2,6.7
	c-1.9,1.2-4.7,0.5-5.8-1.5C251.2,270.5,251.1,269.7,251,269.3z M255.4,271.4c1.4,0,2.6-1.3,2.9-3.4c0.2-1.2-0.1-1.6-1.7-2.3
	c-1.4-0.5-3,0.3-3.7,1.9C252.2,269.5,253.5,271.4,255.4,271.4z"/>
<path d="M236.8,414.1c0,1.5-0.2,3-1.2,4.2c-1.3,1.5-3,1.6-4.5,0.4c-2.5-2.1-2.4-6.5,0.2-8.4c2.3-1.7,4.7-0.9,5.3,1.8
	C236.7,412.7,236.7,413.4,236.8,414.1z M234.2,411.1c-1,0.3-1.9,0.6-2.8,0.9c-0.5,1.6-0.6,3.1,0.2,4.6c0.8,1.4,2.1,1.4,2.8,0
	C235.3,414.9,235.2,413.2,234.2,411.1z"/>
<path class="st0" d="M241.4,484.4c0.6,4.5-5.6,9.8-11,7c-4.6-2.4-7.1-7.5-5.5-12.5c0.4-1.1,1-2.1,1.7-3c1-1.2,2.3-2.1,4.1-1.5
	c0.6,0.2,1.2,0.1,1.9,0.2C238.4,475.2,241.4,478.6,241.4,484.4z"/>
<path class="st0" d="M256.9,501.6c5.7,0.5,9.3,4.3,9.3,9.8c0,1.6-0.5,3.1-1.7,4.2c-3,2.7-6.4,3.9-10.5,3.1
	c-5.7-1.2-7.4-7.4-4.6-11.4c1.3-1.9,3.3-3.4,5.2-4.9C255.1,501.8,256.1,501.8,256.9,501.6z"/>
<path class="st0" d="M261.4,465.5c-3.2-0.2-5.5-1.4-7.2-3.4c-1.2-1.4-1.4-3.1-0.9-4.8c1.3-4.5,6-9.1,13-6.3c5.1,2,6,5,2.7,9.3
	c-1.3,1.6-3,2.9-4.6,4.2C263.4,465,262.1,465.2,261.4,465.5z"/>
<path class="st0" d="M256.4,559.2c-1.1-0.3-2.9-0.7-4.6-1.4c-4.6-2.1-4.1-7.5-0.6-9.8c1.7-1.2,3.7-1.9,5.9-1
	c1.7,0.6,3.5,0.9,5.1,1.6c3.9,1.7,4.4,4.4,1.5,7.7C262,558.1,259.7,559,256.4,559.2z"/>
<path class="st0" d="M231,519.8c2.3,0.5,4.8,1.9,6.8,4.3c1.1,1.4,1.9,3,1.8,4.9c-0.1,3.4-2.9,5.6-6.2,4.7c-1.3-0.4-2.6-1.1-3.5-2
	c-2.3-2.4-3.2-5.4-2.9-8.8C227.2,520.9,228.4,519.9,231,519.8z"/>
<path class="st0" d="M321.1,484.6c0,5.5-5.1,9.1-9.9,7.3c-3-1.1-4.9-3.4-6.1-6.3c-1.5-3.6,2.2-10.6,7.1-10.1c0.3,0,0.7-0.1,0.9,0.1
	c3.2,1.9,6.2,3.8,7.7,7.4C321.1,483.6,321.1,484.3,321.1,484.6z"/>
<path class="st0" d="M299.1,560.1c0.2-0.9,0.3-1.8,0.7-2.7c0.5-1.2,1.3-2.1,2.8-2.1c1.2,0,2.3-0.4,3.5-0.4c3.7,0,6.8,2.7,7.4,6.2
	c0.5,3.2-1.8,7-5,8.2c-1.5,0.5-2.9,0.4-4.2-0.4C300.9,566.8,299.2,563.9,299.1,560.1z"/>
<path class="st0" d="M315.5,528.9c-3.6,0-6.8-2.4-7.9-5.8c-0.7-2.2-0.1-4,1.4-5.6c1.5-1.5,3.3-2.2,5.5-1.4c0.3,0.1,0.6,0.2,0.9,0.3
	c4.4,1.4,6.2,4.6,5,8.9C319.5,527.9,318.1,528.9,315.5,528.9z"/>
<path class="st0" d="M269.1,201.8c-0.3,1.3-1,1.6-1.8,1.2c-0.4-0.2-0.6-0.8-1.2-1.7C267.5,201.5,268.2,201.6,269.1,201.8z"/>
<path class="st0" d="M299.9,214.3c-1.2,0.7-1.2,0.7-2.5-0.1C298.4,213.9,298.4,213.9,299.9,214.3z"/>
<path class="st0" d="M248.4,329.3c1.8,0,3.2,1.2,3.3,2.9c0.1,1.8-1.5,3.5-3.3,3.6c-1.6,0-3.3-1.4-3.3-2.9
	C245.1,331,246.7,329.3,248.4,329.3z"/>
<path class="st0" d="M235.6,373.1c0-1.2,0.7-2,1.7-2.1c1.4-0.1,3.1,1.3,3.1,2.6c0,1-1.3,2.4-2.4,2.4
	C236.8,376.1,235.7,374.6,235.6,373.1z"/>
<path class="st0" d="M255.4,271.4c-1.9,0-3.2-2-2.4-3.8c0.7-1.6,2.2-2.4,3.7-1.9c1.7,0.6,2,1,1.7,2.3
	C258,270.2,256.9,271.4,255.4,271.4z"/>
<path class="st0" d="M234.2,411.1c1,2.1,1.1,3.8,0.2,5.5c-0.8,1.4-2,1.4-2.8,0c-0.8-1.4-0.7-3-0.2-4.6
	C232.2,411.8,233.2,411.5,234.2,411.1z"/>
</svg>
