<?xml version="1.0" encoding="utf-8"?>
<!-- Generator: Adobe Illustrator 19.0.0, SVG Export Plug-In . SVG Version: 6.00 Build 0)  -->
<svg version="1.1" id="图层_1" xmlns="http://www.w3.org/2000/svg" xmlns:xlink="http://www.w3.org/1999/xlink" x="0px" y="0px"
	 viewBox="0 0 595.3 841.9" style="enable-background:new 0 0 595.3 841.9;" xml:space="preserve">
<style type="text/css">
	.st0{fill:#FFFFFF;}
</style>
<path class="st0" d="M0.7,842.5c0-280.6,0-561.2,0-841.8c198.4,0,396.8,0,595.2,0c0,280.6,0,561.1,0,841.8
	C397.4,842.5,199,842.5,0.7,842.5z M156.3,597.3c-2.3-0.3-2.4-0.2-3,1.9c-0.3,1.3-0.6,2.6-0.9,3.8c-0.7,0.2-1.1,0.3-1.6,0.5
	c-3.2,0.9-6.3,1.9-8.5,4.7c-0.3,0.4-1.1,0.6-1.7,0.7c-2.3,0.2-4.1,1.3-5.4,3.1c-1.2,1.5-2.1,3.2-3.4,4.6c-2.3,2.6-2.5,5.2-0.8,8.1
	c0.2,0.3,0.3,0.7,0.5,1.1c3.4,6.4,5.8,13.2,7.3,20.2c1.3,6.2,2.4,12.4,3.4,18.6c0.9,6,3.1,11.4,6.6,16.3
	c5.4,7.4,11.7,13.9,19.1,19.5c5.2,3.9,11.1,6,17.3,7.1c3.1,0.6,6.2,0.5,9.3,0.1c2-0.3,3.4-1.3,4.3-3.1c0.7-1.5,1.3-3.1,1.9-4.7
	c1.1-3.1,1.7-6.3,3.3-9.2c2.1-3.9,2.5-8,1.2-12.3c-0.9-2.9-0.9-5.8-0.2-8.8c0.3-1.5,0.7-3,0.9-4.5c0.4-3.6-1.8-5.5-5.3-4.5
	c-0.9,0.3-1.8,0.6-2.7,1c0-2.5,2.6-14.2,3.9-17.9c2.8,1.8,5.1,4.4,8.9,4.1c1.5-4.8,2.9-9.6,4.4-14.4c0.9-2.9,1.8-5.8,1.4-8.9
	c-0.2-1.5,1-2.6,2.5-2.5c4,0.2,7.7-1.2,11.3-2.6c4.7-1.9,7-5.4,7.3-10.3c0.1-1.3,0.7-1.8,1.6-2.3c2.6-1.4,5.2-2.9,7.7-4.3
	c3.3-1.8,6.6-3.6,9.4-5.1c3.1,1.4,5.7,2.6,8.4,3.8c2,0.8,4,1,6.1,0.5c6.5-1.4,12-4.4,15.9-9.9c0.6-0.9,1.3-1.8,2-2.7
	c7.6-9.8,12-21,15.3-32.8c0.3-1.1,0.5-2.3,0.8-3.5c1.5,0.2,2.8,0.3,4.1,0.4c0,2,0,3.8,0,5.5c0,3.2,1.2,5.9,3.7,7.9
	c0.9,0.7,1.8,1.6,2.9,2.2c1.5,0.9,2.3,2.2,2.5,3.9c0.1,1.1,0.4,2.2,0.3,3.3c-0.2,2.7-0.5,5.4-1.1,8c-1.9,8.1-2.5,16.1-0.2,24.2
	c0.3,1.1,0,1.9-0.6,2.6c-1.8,2.4-3.6,4.9-5.5,7.3c-1.9,2.4-2.8,5.2-2.7,8.3c0.1,4.1,0.3,8.1,0.4,12.2c0,0.5-0.1,0.9-0.3,1.4
	c-1.2,3.8-2.6,7.6-3.5,11.4c-1.2,5.1-2.2,10.3-3.1,15.5c-0.5,3,0.7,4.6,3.6,5.7c0.7,0.3,1.5,0.4,2.3,0.6c1.2,0.3,2.4,0.6,3.8,1
	c-0.7,4.1-1.4,8-2,11.9c-3.1,0.3-4,1-4.5,4c-0.3,1.7-0.4,3.5-0.7,5.2c-0.3,2.4,0.6,4.1,2.8,5c1.8,0.8,3.5,1.5,5.3,2.1
	c7,2.6,14.2,5,21.1,7.8c6.2,2.5,12.5,3.4,19,2.4c5.3-0.8,10.6-1.7,15.8-2.8c5.3-1,10.6-1.7,16-0.8c0.8,0.1,1.6,0.3,2.4,0.1
	c0.6-0.1,1.6-1,1.5-1.1c-0.6-1.5,0.5-2.6,0.8-3.8c0.7-2.7-0.1-5.5-2.5-7.2c-0.9-0.6-1.3-1.2-1.4-2.3c-0.4-3.7-2.1-6.9-4.7-9.5
	c-2.1-2-4.1-4-6.2-6c-1-1-2.1-2.2-3.3-2.7c-2.2-1-3-2.8-4-4.7c2-1.4,2.8-2.5,3-4.8c0.4-4.5,0.7-9.1,1-13.6c0.1-2.6-0.7-5-2.2-7.2
	c-1.1-1.5-2-3.2-3.1-5c0.8-0.2,1.4-0.4,2-0.6c1.5-0.5,2.7-1.4,3.5-2.8c1.1-2.2,2-4.6,1.9-7.1c-0.2-3.4-0.7-6.6-4.4-8
	c0.1-1.2,0.2-2.3,0.3-3.5c1.2-11.5,2.5-23.1,3.7-34.6c0.2-1.5,0.5-2.9,1.3-4.2c3.1-5.5,3.6-11.2,1.2-17.1c-0.4-0.9-0.6-1.8-1.1-2.7
	c-0.5-0.9-0.3-1.6,0-2.5c1-2.4,1.8-4.9,2.8-7.6c2.9-0.8,5.8-2.3,9.4-1.7c0-0.9,0.1-1.7,0-2.4c-0.8-4-1.7-8-2.6-11.9
	c-3-12.6-5.1-25.4-9.1-37.7c-0.4-1.2-0.6-2.5-0.9-3.7c-0.1-0.6-0.1-1.2-0.2-1.9c0.6,0,1.1-0.2,1.6-0.1c6.3,1.2,9.9,3.7,12,9.5
	c0.4,1.1,1,2.2,1.4,3.3c0.4,1,0.7,1.9,0.9,2.9c0.8,3.4,1.5,6.9,2.5,10.2c0.6,2.1,1.8,2.6,3.9,2.1c1.6-0.4,3.3-0.9,4.8-1.6
	c4.9-2.4,9.6-5,14.4-7.5c3.9-2.1,7.3-4.9,10-8.5c3.3-4.3,7.2-8.2,9.6-13.2c6.4,0.4,12.3-1.4,17.8-4.3c2.5-1.3,4.7-1.4,7.3-0.8
	c2.5,0.6,4.3,1.9,5.6,4.2c1.4,2.4,2.9,4.6,4.4,6.9c1.9,2.7,4.4,4.6,7.7,5.4c3.6,0.9,6.6-1.5,6.2-5.1c-0.2-1.9-0.8-3.8-1.7-5.4
	c-1.5-3-3.3-5.8-5-8.8c-0.6-1.1-1-2.2-1.6-3.4c0.5-0.1,0.7-0.2,0.8-0.2c6.9,1.5,13.6,3.5,19.6,7.5c1.2,0.8,2.5,1.5,3.8,1.9
	c0.9,0.2,2.1,0,3-0.3c1.3-0.5,1.5-1.4,1-2.8c-0.7-1.9-1.7-3.6-3.2-5c-3.2-3-6.9-5.2-11.2-6.1c-0.5-0.1-1-0.3-1.5-0.4
	c1.5-0.3,2.9-0.3,4.3-0.2c4,0.5,7.9,1.1,11.9,1.7c0.4,0.1,0.8,0.1,1.2,0.1c2.7,0,4.1-1.8,3.3-4.4c-0.7-2.2-2-3.8-4.2-4.7
	c-2-0.8-4.1-1.4-6.2-2c-6-1.7-12.2-1.8-18.3-2.4c-1.1-0.1-2.3-0.4-3.6-0.7c0.5-1.1,0.8-2,1.1-2.7c1.5-3.1,1.3-6-0.5-8.9
	c-0.3-0.5-0.6-1.1-1-1.7c-2.5-4.3-5.2-8.5-7.4-12.9c-4.3-8.6-9.9-16-17.2-22.2c-2.5-2.1-4.7-4.6-8.2-5.3c0.6-0.9,1.3-1.7,1.7-2.5
	c1-2,2-4,2.7-6.1c0.8-2.3,0.5-4.7-0.6-7c-2.1-4.5-5-8.4-8.2-12c-2.5-2.8-5.3-5.1-9.5-4.6c0-0.5,0-0.8,0-1.1
	c0.8-6.4,1.8-12.8,3.3-19.1c0.8-3,1.4-6.1-0.1-8.9c0.5-0.9,1-1.5,1.3-2.2c2.6-6.2,2.4-12.5,0.6-18.8c-0.3-1-0.3-1.7,0.1-2.7
	c1.4-3.3,2.8-6.6,4-10c0.9-2.6,1.7-5.2,1.9-7.9c0.4-8.2-0.7-16.3-3.6-24c-0.7-1.8-1.7-3.6-3-4.8c-3.5-3.3-7.1-6.5-11.7-8.2
	c-0.6-0.2-1.2-0.6-2.1-1c4.1-1.2,6.3-3.5,7.2-7.2c0.5-1.8,1.4-3.4,2-5.1c0.7-2.1,1.9-3.5,3.9-4.6c2.5-1.4,3.3-3.9,3.2-6.6
	c-0.3,0.3-0.6,0.8-0.6,1.2c-0.6,3.1-2.5,5-5.4,6.2c-1.3,0.5-2.5,1.4-3.7,2.2c-0.3,0.2-0.4,0.7-0.7,1.3c1.3-0.3,1.7-1.9,3.1-1.3
	c-0.1,0.3-0.1,0.6-0.2,0.8c-1.2,2.6-2.4,5.2-3.6,7.8c-0.7,1.5-1.9,2.3-3.3,3c-1.2,0.6-2.4,1.1-3.9,1.8c-2.9-1.4-5.9-3.1-9-4.4
	c-2.2-0.9-2.8-2.5-3.2-4.6c-0.3-1.9-0.8-3.8-1.6-5.5c-0.9-1.9-2-3.6-3.2-5.3c-2.9-4.2-5.9-8.3-8.9-12.5c-0.7-1-1.4-2.1-2.1-3.2
	c-0.7-1-1.4-2-2.2-3.1c1-0.1,1.8-0.2,2.5-0.3c5.4-0.7,10.7-1.8,16.2-2.1c10.6-0.6,20.1-4.2,28.8-10.1c2.4-1.7,4.9-3.3,7.4-5
	c1.2-0.8,2.6-1.5,3.9-2.2c0.1,0.1,0.3,0.2,0.4,0.3c-0.3,0.9-0.7,1.7-1,2.6c-1.3,3.4-2.7,6.8-3.9,10.3c-0.9,2.5-0.8,5,0.3,7.5
	c0.6,1.5,1.4,2.9,2,4.3c0.4,0.9,0.8,1.9-0.1,2.7c-2.2,2-4.1,4.5-7.6,4.5c0,0.5,0.1,0.9,0.1,1.6c2.7-1.5,5.6-2.1,7.7-4.2
	c2-2,2.3-3,1-5.5c-0.3-0.6-0.6-1.1-0.9-1.7c-1.8-3.3-2.2-6.6-0.8-10.2c1.5-3.9,2.8-7.8,4.2-11.7c0.3-1,1-1.6,2-1.9
	c2.4-0.9,4.8-1.7,7.2-2.7c0.8-0.3,1.9-0.9,2.3-1.6c1.4-2.4,2.5-5,2-8c-0.3-2-0.8-3.9-1.1-5.9c-1.1-7.2-3.3-14.2-5.7-21
	c-0.6-1.7-1.6-3.3-3.5-3.6c-1.1-0.2-1.7-0.8-2.2-1.5c-1.8-2.6-3.5-5.2-5.4-7.7c-4-5.4-8.5-10.2-14.4-13.6c-3.9-2.2-7.8-4.4-11.8-6.5
	c-3.3-1.8-6.4-3.9-9.1-6.5c-1.1-1-2-2.2-2.8-3.5c-1.8-3-4.4-5-7.4-6.7c-0.6-0.3-1.4-0.4-2.1-0.5c-3.3-0.1-6.1,0.8-8.2,3.5
	c-4.6-1.6-9.3-2.3-14-2.1c-3.1,0.1-6.2,0.4-9.3,0.6c-1,0.1-1.8,0-2.6-0.8c-2-2.2-4.7-3.3-7.5-4c-4.2-1.1-8.4-0.5-12.6,0.3
	c-4,0.8-7.1,2.8-9.5,6c-1.6,2.2-3,4.5-4.4,6.9c-1.3,2.2-1.4,4.4,0,6.6c1.1,1.8,2.2,3.5,3.5,5.1c3,3.6,6.6,6.5,10.6,8.9
	c0.6,0.4,1.1,0.8,1.7,1.2c-0.6,0.9-1,1.5-1.5,2.2c-4.2,5.8-6.5,12.3-7,19.4c-0.4,5.5-0.7,11-0.8,16.5c-0.1,3.7,0.4,7.3,0.6,11
	c0.1,1,0.3,2,0.5,3.2c-0.6,0.1-0.9,0.1-1.3,0.1c-6,0.5-12.1,0.8-18.1,1.6c-8.3,1.1-16.4,3.3-24.5,5.6c-7.9,2.2-15.9,4.2-23.6,7.3
	c-3.7,1.5-7.1,3.3-10.2,5.7c-2.6,2.1-5.3,4.1-6.8,7.3c-0.2,0.5-1.1,0.9-1.7,1.1c-8.3,2-15.6,6.1-22.4,11.2
	c-3.9,2.9-7.9,5.5-12.3,7.5c-0.9,0.4-1.9,0.9-2.7,1.6c-1.7,1.4-1.6,3,0.2,4.3c0.3,0.2,0.6,0.5,0.7,0.5c0.8,2.3-0.3,3.6-1.5,5
	c-8.6,10-15.5,20.9-20,33.4c-2.2,6.2-5,12.1-7.5,18.3c-3.2-0.3-6,0.5-8.9,1.5c-2.3,0.8-3.7,2.1-3.9,4.8c-0.1,0.8,0,1.7,0,2.8
	c-3.8-2.3-7.3-1.8-10.6,0c-2.7,1.5-5.4,3.1-7.8,5c-2.7,2.1-4.7,4.9-5.3,8.3c-0.4,2.3-0.5,4.8-0.4,7.2c0.2,6.3,7.5,12.3,13.8,11.6
	c0.4,0,0.8-0.1,1.2-0.2c0.5-0.1,1-0.2,1.6-0.4c0.1,0.4,0.2,0.6,0.2,0.8c-0.2,11.6-1.5,23.1-4.6,34.4c-1.9,6.8-3.8,13.5-5.7,20.3
	c-2.5,9.2-2,18.4,0.5,27.5c0.5,1.9,1.5,3.7,2.5,5.4c1.1,1.8,3,2.6,5,2c1.7-0.4,3.3-1.1,4.8-2.1c3.8-2.6,6.5-6.1,8.5-10.2
	c0.8-1.7,1.6-3.5,2.4-5.2c0.2-0.5,0.4-1.2,0.8-1.4c1.4-0.5,1.4-1.5,1.4-2.7c0-0.2,0.3-0.4,0.4-0.7c0,3.9,1.3,7.3,3.2,10.5
	c1,1.6,2.1,3.1,3.3,4.4c4.1,4.3,7.1,9.2,10.1,14.3c1.4,2.4,2.9,4.8,4.4,7.1c1.5,2.3,3.3,4.1,6.4,4.3c0.8,5.1,1.6,10.2,2.3,15.3
	c1.1,8.2-0.8,15.7-5.6,22.5c-1.7,2.3-3.5,4.6-5.2,6.9c-1.5,2.2-3,4.5-4.3,6.9c-0.8,1.5-1.2,3.1-1.5,4.8c-0.4,2.1,0.3,4,2.1,5.3
	c1,0.7,2,1.4,3,2c12.4,7.5,25.5,13.3,39.3,17.6c1.6,0.5,3.1,1,4.6,1.5c-0.6,2.7-1.2,5.3-1.7,7.8c-0.4,0.1-1,0.3-1.5,0.5
	c-2.2,0.7-4.4,1.5-5.1,4.2c-0.1,0.4-0.6,0.7-1,0.9c-7.6,3.4-14.8,7.5-21.8,12c-3.2,2-6.3,4.4-9.1,7c-4.2,3.9-8.7,7.3-14.4,8.5
	c-2.6-2.8-4.6-3-7-0.3c-3.5,4-7.8,6.9-11.9,10c-1.6,1.2-3.4,2.1-5.2,3C160.4,595.6,158.3,596.4,156.3,597.3L156.3,597.3z
	 M438.3,214.1c-2.4-0.3-3.8,1.2-5.6,2.8c1-0.1,1.5-0.1,2.1-0.2c0.2,1.2-0.8,2.3,0,3.5C435.6,218,436,215.5,438.3,214.1z"/>
<path d="M156.3,597.3c2-0.9,4.1-1.7,6.1-2.7c1.8-0.9,3.6-1.8,5.2-3c4.1-3.1,8.4-6.1,11.9-10c2.4-2.7,4.4-2.5,7,0.3
	c5.7-1.3,10.2-4.6,14.4-8.5c2.8-2.6,5.9-5,9.1-7c7-4.4,14.2-8.6,21.8-12c0.4-0.2,1-0.5,1-0.9c0.7-2.7,2.8-3.5,5.1-4.2
	c0.5-0.2,1.1-0.3,1.5-0.5c0.6-2.6,1.1-5.1,1.7-7.8c-1.5-0.5-3.1-1-4.6-1.5c-13.8-4.3-26.9-10.1-39.3-17.6c-1-0.6-2-1.3-3-2
	c-1.8-1.3-2.5-3.2-2.1-5.3c0.3-1.6,0.7-3.3,1.5-4.8c1.3-2.4,2.7-4.7,4.3-6.9c1.6-2.4,3.5-4.6,5.2-6.9c4.8-6.7,6.7-14.2,5.6-22.5
	c-0.7-5.1-1.5-10.1-2.3-15.3c-3-0.2-4.9-2-6.4-4.3c-1.5-2.3-3-4.7-4.4-7.1c-3-5-6-10-10.1-14.3c-1.3-1.3-2.4-2.8-3.3-4.4
	c-2-3.2-3.3-6.5-3.2-10.5c-0.1,0.2-0.4,0.4-0.4,0.7c0,1.2,0,2.2-1.4,2.7c-0.4,0.2-0.6,0.9-0.8,1.4c-0.8,1.7-1.6,3.5-2.4,5.2
	c-2,4.1-4.6,7.7-8.5,10.2c-1.4,1-3.1,1.7-4.8,2.1c-2,0.5-3.9-0.2-5-2c-1-1.7-2-3.5-2.5-5.4c-2.5-9.1-3-18.3-0.5-27.5
	c1.8-6.8,3.8-13.5,5.7-20.3c3.1-11.3,4.3-22.8,4.6-34.4c0-0.2-0.1-0.5-0.2-0.8c-0.6,0.1-1.1,0.3-1.6,0.4c-0.4,0.1-0.8,0.1-1.2,0.2
	c-6.3,0.7-13.5-5.3-13.8-11.6c-0.1-2.4,0-4.8,0.4-7.2c0.6-3.4,2.6-6.2,5.3-8.3c2.4-1.9,5.1-3.5,7.8-5c3.3-1.8,6.8-2.3,10.6,0
	c0-1.2,0-2,0-2.8c0.2-2.7,1.5-4.1,3.9-4.8c2.9-0.9,5.8-1.8,8.9-1.5c2.6-6.2,5.3-12.2,7.5-18.3c4.5-12.5,11.4-23.4,20-33.4
	c1.2-1.4,2.3-2.7,1.5-5c-0.1-0.1-0.4-0.3-0.7-0.5c-1.7-1.3-1.9-2.9-0.2-4.3c0.8-0.7,1.7-1.1,2.7-1.6c4.4-2,8.4-4.5,12.3-7.5
	c6.8-5.1,14.1-9.1,22.4-11.2c0.6-0.2,1.4-0.6,1.7-1.1c1.5-3.2,4.2-5.2,6.8-7.3c3.1-2.4,6.6-4.3,10.2-5.7c7.7-3.1,15.7-5,23.6-7.3
	c8.1-2.3,16.2-4.5,24.5-5.6c6-0.8,12.1-1.1,18.1-1.6c0.4,0,0.8-0.1,1.3-0.1c-0.2-1.2-0.4-2.2-0.5-3.2c-0.3-3.7-0.7-7.3-0.6-11
	c0.1-5.5,0.4-11,0.8-16.5c0.5-7.1,2.9-13.6,7-19.4c0.5-0.6,0.9-1.3,1.5-2.2c-0.6-0.4-1.1-0.9-1.7-1.2c-4-2.4-7.6-5.3-10.6-8.9
	c-1.3-1.6-2.4-3.4-3.5-5.1c-1.3-2.2-1.3-4.5,0-6.6c1.4-2.3,2.8-4.7,4.4-6.9c2.3-3.2,5.5-5.3,9.5-6c4.2-0.8,8.4-1.4,12.6-0.3
	c2.8,0.7,5.5,1.9,7.5,4c0.8,0.8,1.6,0.9,2.6,0.8c3.1-0.3,6.2-0.5,9.3-0.6c4.8-0.2,9.4,0.5,14,2.1c2.1-2.7,4.9-3.6,8.2-3.5
	c0.7,0,1.5,0.1,2.1,0.5c2.9,1.7,5.6,3.7,7.4,6.7c0.8,1.3,1.7,2.5,2.8,3.5c2.7,2.6,5.8,4.8,9.1,6.5c3.9,2.1,7.9,4.2,11.8,6.5
	c5.8,3.4,10.4,8.2,14.4,13.6c1.9,2.5,3.6,5.1,5.4,7.7c0.5,0.8,1.1,1.4,2.2,1.5c1.9,0.3,2.9,1.9,3.5,3.6c2.4,6.9,4.6,13.8,5.7,21
	c0.3,2,0.7,3.9,1.1,5.9c0.5,2.9-0.6,5.5-2,8c-0.4,0.7-1.4,1.2-2.3,1.6c-2.4,1-4.8,1.8-7.2,2.7c-1,0.3-1.6,0.9-2,1.9
	c-1.4,3.9-2.7,7.9-4.2,11.7c-1.4,3.6-1,6.9,0.8,10.2c0.3,0.6,0.6,1.1,0.9,1.7c1.3,2.5,1,3.5-1,5.5c-2.1,2.1-5,2.7-7.7,4.2
	c0-0.7-0.1-1.1-0.1-1.6c3.5,0.1,5.4-2.5,7.6-4.5c0.9-0.8,0.5-1.8,0.1-2.7c-0.7-1.4-1.4-2.9-2-4.3c-1.1-2.4-1.2-5-0.3-7.5
	c1.3-3.4,2.6-6.9,3.9-10.3c0.3-0.9,0.7-1.7,1-2.6c-0.1-0.1-0.3-0.2-0.4-0.3c-1.3,0.7-2.6,1.4-3.9,2.2c-2.5,1.6-4.9,3.3-7.4,5
	c-8.7,6-18.2,9.5-28.8,10.1c-5.4,0.3-10.8,1.4-16.2,2.1c-0.7,0.1-1.4,0.2-2.5,0.3c0.8,1.1,1.5,2.1,2.2,3.1c0.7,1.1,1.4,2.2,2.1,3.2
	c3,4.2,6,8.3,8.9,12.5c1.2,1.7,2.4,3.4,3.2,5.3c0.8,1.7,1.3,3.6,1.6,5.5c0.4,2.1,1,3.7,3.2,4.6c3.2,1.3,6.2,3,9,4.4
	c1.5-0.7,2.7-1.3,3.9-1.8c1.4-0.7,2.6-1.5,3.3-3c1.2-2.6,2.4-5.2,3.6-7.8c0.1-0.2,0.1-0.5,0.2-0.8c-1.4-0.6-1.8,1-3.1,1.3
	c0.3-0.6,0.4-1.1,0.7-1.3c1.2-0.8,2.4-1.7,3.7-2.2c2.9-1.2,4.8-3.1,5.4-6.2c0.1-0.4,0.3-0.9,0.6-1.2c0.1,2.8-0.7,5.2-3.2,6.6
	c-2,1.1-3.2,2.5-3.9,4.6c-0.6,1.7-1.5,3.4-2,5.1c-1,3.6-3.2,6-7.2,7.2c0.9,0.5,1.5,0.8,2.1,1c4.6,1.7,8.3,4.9,11.7,8.2
	c1.3,1.3,2.3,3.1,3,4.8c2.9,7.7,4.1,15.8,3.6,24c-0.1,2.7-1,5.3-1.9,7.9c-1.1,3.4-2.6,6.7-4,10c-0.4,1-0.3,1.7-0.1,2.7
	c1.8,6.3,2,12.6-0.6,18.8c-0.3,0.7-0.8,1.4-1.3,2.2c1.5,2.8,0.9,5.9,0.1,8.9c-1.6,6.3-2.5,12.7-3.3,19.1c0,0.3,0,0.6,0,1.1
	c4.2-0.5,6.9,1.8,9.5,4.6c3.3,3.6,6.2,7.5,8.2,12c1.1,2.3,1.4,4.6,0.6,7c-0.7,2.1-1.8,4.1-2.7,6.1c-0.4,0.8-1.1,1.6-1.7,2.5
	c3.5,0.8,5.7,3.3,8.2,5.3c7.4,6.2,13,13.6,17.2,22.2c2.2,4.4,4.9,8.6,7.4,12.9c0.3,0.6,0.6,1.1,1,1.7c1.8,2.9,2,5.8,0.5,8.9
	c-0.4,0.8-0.7,1.6-1.1,2.7c1.3,0.3,2.5,0.6,3.6,0.7c6.1,0.6,12.3,0.7,18.3,2.4c2.1,0.6,4.2,1.2,6.2,2c2.1,0.8,3.5,2.5,4.2,4.7
	c0.8,2.6-0.6,4.5-3.3,4.4c-0.4,0-0.8,0-1.2-0.1c-4-0.6-7.9-1.2-11.9-1.7c-1.4-0.2-2.8-0.2-4.3,0.2c0.5,0.1,1,0.3,1.5,0.4
	c4.4,0.9,8,3.1,11.2,6.1c1.5,1.4,2.5,3.1,3.2,5c0.5,1.3,0.3,2.3-1,2.8c-0.9,0.4-2.1,0.6-3,0.3c-1.4-0.4-2.7-1.1-3.8-1.9
	c-6-4-12.7-6-19.6-7.5c-0.1,0-0.3,0.1-0.8,0.2c0.5,1.2,1,2.3,1.6,3.4c1.6,2.9,3.5,5.8,5,8.8c0.8,1.7,1.5,3.6,1.7,5.4
	c0.4,3.7-2.5,6-6.2,5.1c-3.3-0.8-5.8-2.7-7.7-5.4c-1.5-2.2-3-4.5-4.4-6.9c-1.3-2.2-3.1-3.5-5.6-4.2c-2.6-0.6-4.8-0.5-7.3,0.8
	c-5.5,2.9-11.3,4.8-17.8,4.3c-2.4,5-6.3,8.9-9.6,13.2c-2.7,3.5-6,6.4-10,8.5c-4.8,2.5-9.6,5.1-14.4,7.5c-1.5,0.7-3.1,1.2-4.8,1.6
	c-2.1,0.5-3.3,0-3.9-2.1c-1-3.4-1.6-6.8-2.5-10.2c-0.2-1-0.6-2-0.9-2.9c-0.4-1.1-1-2.2-1.4-3.3c-2.1-5.8-5.7-8.3-12-9.5
	c-0.4-0.1-0.9,0.1-1.6,0.1c0.1,0.7,0.1,1.3,0.2,1.9c0.3,1.3,0.5,2.5,0.9,3.7c4,12.3,6.2,25.1,9.1,37.7c0.9,4,1.8,8,2.6,11.9
	c0.1,0.7,0,1.5,0,2.4c-3.6-0.6-6.5,0.9-9.4,1.7c-1,2.7-1.8,5.2-2.8,7.6c-0.3,0.9-0.5,1.6,0,2.5c0.4,0.8,0.7,1.8,1.1,2.7
	c2.4,5.9,1.9,11.6-1.2,17.1c-0.8,1.4-1.1,2.7-1.3,4.2c-1.2,11.5-2.5,23.1-3.7,34.6c-0.1,1.1-0.2,2.2-0.3,3.5c3.8,1.4,4.3,4.7,4.4,8
	c0.1,2.5-0.7,4.9-1.9,7.1c-0.7,1.4-1.9,2.3-3.5,2.8c-0.6,0.2-1.2,0.3-2,0.6c1.1,1.8,2,3.5,3.1,5c1.5,2.2,2.4,4.5,2.2,7.2
	c-0.3,4.5-0.5,9.1-1,13.6c-0.2,2.2-1.1,3.4-3,4.8c1,1.8,1.7,3.7,4,4.7c1.3,0.5,2.3,1.7,3.3,2.7c2.1,2,4.2,4,6.2,6
	c2.7,2.6,4.4,5.7,4.7,9.5c0.1,1.1,0.5,1.7,1.4,2.3c2.4,1.7,3.2,4.5,2.5,7.2c-0.3,1.2-1.4,2.3-0.8,3.8c0.1,0.2-0.9,1-1.5,1.1
	c-0.7,0.2-1.6,0-2.4-0.1c-5.4-0.8-10.7-0.2-16,0.8c-5.3,1-10.5,2-15.8,2.8c-6.5,1-12.8,0.1-19-2.4c-7-2.8-14.1-5.2-21.1-7.8
	c-1.8-0.7-3.6-1.4-5.3-2.1c-2.2-0.9-3.1-2.6-2.8-5c0.2-1.7,0.3-3.5,0.7-5.2c0.5-3,1.4-3.7,4.5-4c0.7-3.9,1.3-7.8,2-11.9
	c-1.4-0.3-2.6-0.6-3.8-1c-0.8-0.2-1.6-0.4-2.3-0.6c-2.9-1-4.1-2.7-3.6-5.7c0.9-5.2,1.9-10.4,3.1-15.5c0.9-3.9,2.3-7.6,3.5-11.4
	c0.1-0.4,0.3-0.9,0.3-1.4c-0.1-4.1-0.3-8.1-0.4-12.2c-0.1-3.1,0.8-5.8,2.7-8.3c1.9-2.4,3.7-4.8,5.5-7.3c0.6-0.8,0.9-1.6,0.6-2.6
	c-2.3-8.1-1.6-16.1,0.2-24.2c0.6-2.6,0.8-5.4,1.1-8c0.1-1.1-0.2-2.2-0.3-3.3c-0.2-1.7-1-3-2.5-3.9c-1-0.6-1.9-1.4-2.9-2.2
	c-2.5-2-3.7-4.7-3.7-7.9c0-1.7,0-3.5,0-5.5c-1.2-0.1-2.6-0.3-4.1-0.4c-0.3,1.3-0.5,2.4-0.8,3.5c-3.2,11.8-7.7,23-15.3,32.8
	c-0.7,0.9-1.3,1.8-2,2.7c-3.9,5.5-9.4,8.6-15.9,9.9c-2.1,0.4-4.2,0.3-6.1-0.5c-2.7-1.2-5.4-2.4-8.4-3.8c-2.9,1.6-6.2,3.3-9.4,5.1
	c-2.6,1.4-5.1,2.9-7.7,4.3c-1,0.5-1.6,1-1.6,2.3c-0.3,4.9-2.5,8.4-7.3,10.3c-3.7,1.4-7.3,2.8-11.3,2.6c-1.5-0.1-2.7,1-2.5,2.5
	c0.4,3.1-0.5,6-1.4,8.9c-1.5,4.8-2.9,9.6-4.4,14.4c-3.8,0.3-6.1-2.4-8.9-4.1c-1.3,3.7-3.9,15.5-3.9,17.9c0.9-0.3,1.8-0.7,2.7-1
	c3.5-1,5.7,0.9,5.3,4.5c-0.2,1.5-0.5,3-0.9,4.5c-0.7,3-0.7,5.9,0.2,8.8c1.3,4.3,0.9,8.4-1.2,12.3c-1.6,2.9-2.2,6.2-3.3,9.2
	c-0.6,1.6-1.2,3.1-1.9,4.7c-0.8,1.8-2.3,2.8-4.3,3.1c-3.1,0.4-6.2,0.5-9.3-0.1c-6.3-1.1-12.1-3.2-17.3-7.1
	c-7.4-5.5-13.7-12-19.1-19.5c-3.5-4.9-5.7-10.3-6.6-16.3c-1-6.2-2.1-12.5-3.4-18.6c-1.5-7.1-3.9-13.9-7.3-20.2
	c-0.2-0.4-0.3-0.7-0.5-1.1c-1.7-2.9-1.6-5.5,0.8-8.1c1.3-1.4,2.2-3.1,3.4-4.6c1.4-1.8,3.1-2.9,5.4-3.1c0.6,0,1.3-0.2,1.7-0.7
	c2.2-2.7,5.3-3.8,8.5-4.7c0.5-0.1,0.9-0.3,1.6-0.5c0.3-1.2,0.6-2.5,0.9-3.8C153.9,597,154.1,596.9,156.3,597.3
	c-1,0.6-1.5,1.5-1.5,2.7c0,2-0.1,4,0,6c0,0.8,0.4,1.6,0.7,2.6c3.7-3.1,7.7-4.6,11.6-6.4c0.1,0.2,0.2,0.3,0.3,0.5
	c-3.9,2.3-7.7,4.6-11.5,6.9c1,3.9,2.4,6.3,4.2,7.9c1.3-1.3,2.6-2.5,4-3.7c1.3-1.2,2.8-2.2,4.2-3.4c-2.5,2.9-4.9,5.8-7.3,8.7
	c1.9,3.2,4,6.8,6.2,10.4c0.8-0.9,1.6-1.9,2.5-2.8c0.8-0.9,1.6-1.8,2.4-2.6c1.6-1.8,1.6-1.8,2.9-2.2c-2.2,2.8-4.3,5.5-6.5,8.1
	c-0.7,0.8-1,1.6-0.6,2.6c0.7,2,1.3,4.1,2.1,6.1c0.5,1.2,1.2,2.4,1.9,3.8c1.9-3.2,2.7-6.5,4.7-9.2c-0.1,0.9-0.4,1.7-0.7,2.5
	c-0.9,2.1-1.8,4.2-2.7,6.4c-0.2,0.6-0.5,1.4-0.3,1.8c0.9,1.7,1.8,3.5,3.4,5c1.7-4.4,3-8.7,5.2-12.7c-1.2,4.1-2.6,8-4,12
	c-0.2,0.6-0.6,1.6-0.4,2c0.8,1.3,1.6,2.8,3.5,3.5c1-1.3,2.1-2.5,3-3.9c4.8-7,8.1-14.6,10.9-22.6c0.9-2.5,2-4.9,3-7.4
	c-4.8-6.2-9.1-12.9-12.2-20.3c-1.8-4.2-2.3-8.4-1.3-12.9c0.3-1.2,0.6-2.3,1-3.4c-1.8-1.8-2.6-1.9-4.1-0.2c-3.1,3.8-7,6.5-10.7,9.6
	C166.1,596,161.5,597.6,156.3,597.3z M294.8,245.9c0.8,0.8,1.7,1.5,2.4,2.3c4.2,5,9,9.4,13.8,13.7c2.1,1.9,2.2,1.9,4.5,0.5
	c0.3-0.2,0.5-0.4,0.8-0.5c3.5-2.3,7.3-4,11.4-4.9c1.8-0.4,3.7-0.8,5.6-1.2c-1-2.8-3.7-4.7-3.8-8c-5.3,1.1-8.6-1.7-11.2-5.4
	c-1.9,0.2-3.4,0.5-5,0.6c-2.7,0.2-5.5,0.2-8.1,0.6C301.7,244.2,298.3,245.2,294.8,245.9c-0.5,0.1-1,0.1-1.6,0.2
	c-3.7,0.8-7.3,1.6-11,2.5c-0.3,0.1-0.7,0.3-1.1,0.5c2.1,2.8,4.1,5.4,6,8c0.3,0.4,0.6,0.8,1,1c3.8,2.9,6.8,6.6,9.6,10.3
	c1.5,2,3.3,3.4,5.4,4.6c2.8,1.6,5.4,3.3,8.2,5c0.8,0.5,1.7,0.9,2.6,1.2c1.4,0.3,2.1-0.2,2.1-1.5c0.2-3.6,0.1-7.2-2.7-10.1
	c-1.5-1.6-3.1-3.2-4.7-4.8c-3.3-3.4-6.7-6.7-9.8-10.2C297.2,250.6,295.4,248.6,294.8,245.9z M198.2,441.2c2.7-0.8,5-1.8,7.4-2.3
	c5.8-1.1,11.6-0.7,17.4,0.6c11.2,2.5,21.2,7,28.6,16.3c1.6,2,3.6,3.6,5.5,5.4c0.6,0.6,1.3,1,2,1.4c-1.3-5.1-2.2-10.1-2.9-15.1
	c0.4,0.4,0.6,0.9,0.7,1.4c1.4,4.5,2.8,9,4,13.6c0.4,1.6,1.3,2.7,2.8,3.4c1.5,0.7,3,1.6,4.5,2.2c3,1.1,6,2.2,9,3.2
	c4.4,1.5,8.7,3.3,12.6,5.9c4.4,2.9,7.8,6.6,9.9,11.4c0.3,0.6,0.6,1.2,1,1.9c2.4-1.2,4.1-2.8,5.6-4.7c4-5.3,7.8-10.8,10.6-16.8
	c3.6-7.7,7.1-15.4,11.2-22.8c2.4-4.4,3.2-9.2,3.2-14.1c0-1-0.2-1.9-1-2.5c-1.8-1.4-3.4-2.9-5.3-4.1c-1.4-0.9-3-1.6-4.6-1.9
	c-2.7-0.5-5.5-0.6-8.3-0.8c0.1,0.7,0.2,1.4,0.4,2c0.8,4,1.5,8,1.2,12.1c-0.1,1-0.3,2.1-0.5,3.1c-0.3,1-0.9,1.9-2.1,2.1
	c-1.3,0.2-1.9-0.7-2.4-1.6c-0.8-1.5-1.5-3-2.2-4.5c-0.3-0.8-0.7-1.4-1.8-1.2c-0.3,0.9-0.6,1.8-1,2.7c-0.4,0.9-0.8,1.8-1.3,2.5
	c-1.6,2.3-4.1,2.5-6.2,0.7c-0.6-0.5-1.1-1-1.7-1.5c-2.9,2.8-3,2.8-7.8-0.7c-0.2,1.1-0.3,2.1-0.5,3.1c-0.6,2.1-2.2,2.6-3.7,1
	c-0.5-0.5-0.9-1.1-1.3-1.7c-2.6-3.8-4.2-8.1-5.3-12.5c-0.6-2.2-1.1-4.5-1.5-6.2c-1.9-0.9-3.6-1.5-5.1-2.4c-1.8-1-3.7-1.9-5.9-1.9
	c-1.9,0-3.1-1-3.9-2.7c-0.6-1.2-1.1-2.5-1.8-3.7c-1-1.7-1.3-3.6-1.2-5.5c0.1-1.1,0-2.2,0-3.4c-3.1-0.2-4.4-2.2-5.2-4.8
	c-1.8-6.3-4.7-12.2-7.9-18c-0.3-0.5-0.6-0.9-0.9-1.2c-4.4,0.5-8.5,1.7-12.5-0.1c-6.2,4.1-12.2,8.1-18.2,12.1
	c4.8-5.2,9.9-9.9,16.6-12.7c-1.4-1.3-2.8-1.5-4.3-1.2c-2.9,0.7-5.7,1.5-8.6,2.1c-0.6,0.2-1.7,0.3-2-0.1c-0.9-1.1-2-0.9-3-0.9
	c-3.5,0-6.6,1.3-9.1,3.6c-2.3,2.1-4.2,4.6-5.6,7.5c-1.5,3.2-3.2,6.3-5,9.3c-2.7,4.6-5.7,9.1-8.4,13.7c-2.2,3.6-2.8,7.6-1,11.4
	c1.3,2.7,3.1,5.2,4.9,7.6c3.1,4.2,6.4,8.2,9.6,12.3c0.3,0.4,0.7,0.8,1,1.1c0.2-0.1,0.3-0.1,0.5-0.2c-0.4-1.7-1-3.4-1.2-5.2
	c-0.2-1.9-0.1-3.8,0-5.7c0.1-1.7,0.3-3.5,0.5-5.2c0.2,0,0.3,0,0.5,0C197.3,432.2,197.3,436.8,198.2,441.2z M240.5,550.2
	c-0.9,0.4-1.5,0.7-2,0.9c-3.5,1.7-3.7,2-3.4,5.9c0,0.2,0.1,0.5,0.1,0.7c0.5,5.4,2.9,10.1,5.2,14.8c0.6,1.3,1.3,2.5,2,3.7
	c-5.8-5.5-9.6-12-9.8-20.3c-0.7,0.3-1.2,0.3-1.6,0.6c-6.2,3.7-12.3,7.4-18.5,11.2c-4.3,2.6-8.2,5.7-11.9,9.3
	c-3.2,3.1-6.9,5.7-11.4,6.8c-1.4,0.3-2.2,1.2-2.5,2.6c-0.8,3.6-1.1,7,0.3,10.6c2.2,5.7,5.3,10.9,8.5,16.1c2,3.3,4.7,5.8,7.7,8.1
	c1.2,0.9,2.5,1.4,4,1.5c3,0.1,5.8-0.4,8.4-1.8c-2.8-2.8-5.7-5.4-8.4-8.3c-2.6-2.8-5.5-5.4-7.2-8.9c3.9,3.2,7.6,6.7,11.3,10
	c1.7,1.5,3.4,2.9,5.2,4.3c0.8,0.6,1.9,1,2.8,1c3.3,0.2,6.4-0.8,9.5-2c3.3-1.3,5.5-3.4,6-7.1c0.2-1.6,1-2.9,2.3-3.8
	c5.2-3.4,10.3-6.7,15.5-10c0.5-0.3,1-0.6,1.6-1c-1.5-1.3-2.9-2.5-4.3-3.7c0.6-0.2,1.1,0,1.4,0.2c4.4,2.2,8.7,4.4,13.1,6.4
	c1.5,0.7,3.3,1.1,4.8,0.9c5.6-0.7,10.5-2.9,14.1-7.4c4.1-5.1,7.9-10.5,10.8-16.4c3.3-6.7,5.9-13.8,8.2-21c0.2-0.6,0.3-1.2,0.5-1.8
	c-20.4-2.4-40.4-6.2-60.3-11c-1.4,3.2-1.5,6.3,0.3,9.3c0.8,1.3,1.5,2.7,2.6,3.8c3.3,3.6,6.7,7.1,10.1,10.5c1.2,1.2,2.5,2.3,3.8,3.5
	c-0.1,0.1-0.2,0.2-0.3,0.3C251.7,564.1,244.3,559.1,240.5,550.2z M213.9,252.4c-0.2,0.4-0.2,0.4-0.2,0.5c1,8.9,0.2,17.7-0.8,26.6
	c-0.3,2.4-0.4,4.8-0.7,7.2c-0.8,7.2,0.6,13.9,3.7,20.5c2.5,5.4,4.8,11,7,16.6c1.1,3,1.8,6.1,2.4,9.3c0.8,3.8,1.4,7.7,2.1,11.6
	c0.2,1.2,0.8,1.9,1.9,2.2c0.6,0.2,1.3,0.3,2.3,0.6c-2.3-3.1-2.6-6.2-1.9-9.5c1.6-8.1,3-16.2,4.6-24.3c0.9-4.7,1.9-9.4,3.1-14
	c1-4,2.9-7.6,6.1-10.4c2.6-2.3,5.5-4.1,8.9-5.5c-0.6-1-1.2-1.8-1.8-2.7c-0.9-1.3-1.2-2.6-0.7-4.1c0.7-2.5,1.5-5.1,2.3-7.6
	c0.7-2.2,2.2-3.6,4.2-4.7c3.4-1.7,7-2.2,10.7-1.8c2.7,0.2,5.4,0.3,8.1,0.5c3.5,0.2,7,0.4,10.5,0.6c0.7,0,1.3,0.2,2,0.3
	c0,0.2,0,0.4,0.1,0.6c-0.9,0.2-1.8,0.6-2.6,0.6c-6.2-0.1-12.5-0.2-18.7-0.5c-3.1-0.2-6,0.2-8.9,1.5c-1.8,0.8-3,2.1-3.6,3.9
	c-0.7,2.4-1.5,4.7-2.1,7.1c-0.2,0.6,0,1.5,0.3,2c0.7,1.3,1.7,2.5,2.5,3.7c5.3-0.8,10.1,0.2,14.7,2.8c4.7,2.6,9.4,5.2,14,7.9
	c6.9,4,12.5,9.4,17,15.9c2.5,3.5,4.1,7.4,4.6,11.7c0.1,1.2,0.3,2.3,0.5,3.8c1.8-1.6,3.3-2.9,4.8-4.3c1.6-1.4,3.4-2.7,5-4.1
	c2.8-2.5,4.4-5.6,5.1-9.3c1.1-6.3,0.7-12.6-0.4-18.8c-0.5-2.8-1.3-5.6-2.8-8.2c-2.7,1.5-5,0.5-7.3-1c-2.4-1.6-4.8-3.1-7.4-4.5
	c-2.8-1.5-5.1-3.5-7-6c-2.5-3.4-5.2-6.7-8.6-9.3c-0.9-0.7-1.6-1.6-2.2-2.5c-1.9-2.6-3.8-5.3-5.7-8c-0.4,0.1-0.8,0.1-1.2,0.2
	c-8.8,1.9-17.5,3.7-26.5,4c-9,0.3-17.9,0.8-26.8,1.1c-3.1,0.1-6.1-0.4-8.9-1.7C215.1,252.7,214.5,252.6,213.9,252.4z M300.9,493.1
	c4.5,4.9,9,9.2,14.4,12.5c0.7,0.4,1.4,0.7,2.2,1c2.5,1.2,4.7,0.8,6.6-1c2.8-2.7,5.5-5.4,7-9.1c1-2.4,2-4.9,2.8-7.4
	c4.9-16.1,10.8-32,16.6-47.8c5.9-16,11.8-32.1,16.2-48.7c4.7-17.7,7.7-35.6,8.9-53.9c0.5-7.4,0.8-14.9-0.9-22.2
	c-1.4-5.9-3.1-11.8-5-17.5c-5.1-14.5-11.2-28.6-17.1-42.7c-1.5-3.5-2.6-7-3.9-10.6c-0.3-1-0.5-2-0.7-3c-6,0.6-11.6,1.8-16,6.3
	c0.4,0.7,0.8,1.3,1.1,1.9c1.9,3.3,3.8,6.6,5.6,10c3.1,6,6.2,11.9,10.2,17.4c4.3,6,7.9,12.5,10.4,19.4c2.6,7.1,4.9,14.4,7.2,21.6
	c1.4,4.5,1.6,9.2,1.8,13.9c-1.4-3.6-1.8-7.6-3.5-11.1c-0.3,0.8-0.4,1.6-0.5,2.4c-0.4,3.4-0.8,6.8-1.4,10.1c-1.5,8-3.1,16-4.7,24
	c-1.2,5.7-2.2,11.5-3.9,17.1c-3.5,11.7-8.7,22.8-14.3,33.7c-1.6,3.1-3.2,6.2-4.8,9.4c-1.4,2.8-1.9,5.8-1.6,8.9
	c0.2,1.7,0.1,3.4,0,5.2c-0.2,6.1-2,11.6-4.8,16.9c-2.7,5.1-5.3,10.2-7.6,15.5c-3.3,7.4-7.5,14.1-12.2,20.6c-1.7,2.3-3.7,4.4-6.2,5.9
	C302,492.1,301.6,492.5,300.9,493.1z M364.7,589.6c-0.1-0.1-0.1-0.2-0.2-0.4c2.3-3.2,4.6-6.3,6.8-9.5c4-6,3.9-12.4,1.9-19.1
	c-1.5,2.4-2.9,4.6-4.2,6.9c0.3-6.2,3.9-11,6.4-16.7c-1.1,0.2-1.8,0.3-2.4,0.5c-7.6,2.3-15.5,3.4-23.4,3.2c-12.2-0.4-24.4-1-36.7-1.5
	c-0.7,0-1.4,0-2,0c-0.8,5.8,0.6,10.2,5.6,13.4c4.6,3,8.8,6.6,13.3,9.9c3.8,2.8,7.7,5.5,11.5,8.2c0.4,0.3,0.7,0.6,1.1,0.9
	c-8.3-3.2-15.5-7.8-22.3-13.8c0,0.9-0.1,1.3,0,1.6c0.8,2.8,0.6,5.7,0.1,8.6c-0.8,5.1-1.8,10.2-1.7,15.5c0,6.3,1.5,12,5.2,17.1
	c0.3,0.4,0.5,0.9,0.9,1.6c-3-0.9-4.7-2.7-6.2-5c-1.7,2.6-3.3,5-5,7.3c-1.1,1.5-2,3.2-2,5c-0.1,4.3,0,8.6,0.1,12.9
	c0,0.1,0.2,0.2,0.6,0.5c2-0.5,4.3-1.1,6.5-1.7c10.6-2.8,21.1-3.2,31.5,1c0.3,0.1,0.6,0.2,0.9,0.3c4.7,1.5,9.5,1.9,14.5,1.6
	c2.4-0.1,3.8-1.2,4.6-3.5c0.7-2.1,1-4.2,0.6-6.4c-0.3-1.6-1.1-2.7-2.6-3.4c-1.7-0.8-3.4-1.7-4.9-2.9c-2.7-2.2-5.1-4.6-7.7-6.9
	c-0.7-0.7-1.4-1.4-2.1-2.2c0.1-0.1,0.2-0.2,0.2-0.3c4.2,2.8,8.4,5.6,12.8,8.5c1.6-12.4,3.2-24.4,4.7-36.5
	C368.7,586.3,366.7,588,364.7,589.6z M378.3,519.9c-1.4,0.9-2.5,1.9-3.7,2.3c-5.8,2-11.6,4.1-17.5,5.8c-3.5,1-7.2,1.6-10.7,2.3
	c-6.8,1.5-13.6,2.8-20.6,3.1c-12.4,0.5-24.4-1.8-36.1-5.6c-9-2.9-17.7-6.4-26.7-9.2c-8.6-2.6-17.4-4.7-26.2-6.9
	c-7.1-1.7-14.3-3.2-21.5-4.9c-3.7-0.9-7.1-2.4-10.2-4.6c-0.8-0.6-1.7-1.1-2.7-1.6c-2.8,3.5-5.5,6.8-7.1,10.7
	c-1.8,4.3-1.4,5.5,2.5,7.9c0.4,0.3,0.8,0.5,1.2,0.7c7.1,4.4,14.7,7.8,22.4,11c5.7,2.3,11.5,4.4,17.4,6.2c11.2,3.4,22.6,5.8,34.1,7.7
	c9,1.5,18,3.2,27,4.2c14.5,1.6,29,2.2,43.6,2.7c7.8,0.3,15.5,0.2,23.1-1.6c5.7-1.4,11.2-3.1,16.8-4.7c0.1,0,0.2-0.2,0.5-0.6
	C382.1,536.9,380.2,528.5,378.3,519.9z M366,451c1.7-4.7,5.9-7.3,10.3-9.7c1.6-0.8,3.1-2.1,4.3-3.4c3.7-3.8,6.3-8.3,7.3-13.5
	c0.8-3.7,1.2-7.6,1.5-11.4c0.4-4.7,0.6-9.4,1-14.1c0.2-2.4,0.6-4.7,0.9-7.1c-0.1-0.1-0.3-0.1-0.4-0.2c-0.8,1.6-1.7,3.3-2.5,4.9
	c0-3.6,0.7-7,2.7-10c2.7-4,5.5-8,8.1-12.2c0.8-1.2,1.5-2.7,1.6-4.2c0.5-6.7,1.8-13.2,3.6-19.5c1.5-5,2-10,1.8-15.2
	c-0.2-5.3-0.1-10.5-0.1-15.8c0-1.1,0.1-2.2,0.2-3.4c-1-0.4-2-0.8-3-1.1c-10.5-3.1-18.8-9.3-26-17.3c-3.5-3.9-6.4-8.2-8.6-13
	c-0.8-1.7-1.8-3.1-4.1-3.6c0.3,0.7,0.4,1.3,0.7,1.9c1.9,5.1,4,10.1,5.7,15.3c1.9,5.7,3.7,11.4,5,17.3c2,8.7,1.5,17.7,0.8,26.5
	c-0.9,12.1-2.9,24.1-5.5,36c-2.2,10.1-4.7,20.1-8,29.8c-4.7,13.4-9.6,26.8-14.4,40.2c-0.2,0.5-0.2,1-0.4,1.7c0.8,0.2,1.4,0.5,2,0.5
	c3,0.2,6.1,0.4,9.1,0.5C361.8,451.1,363.7,451,366,451z M340.3,199.9c1.1,0.5,1.7,0.8,2.4,1c5,1.9,10,3.9,15,5.6
	c9.5,3.3,18.1,8.1,25.7,14.6c0.4,0.4,0.9,0.8,1.4,0.8c1.8,0.1,3.7,0.1,5.5-0.1c3.1-0.3,6.2-0.9,9.2-1.3c4.8-0.6,9.6-0.8,14.3-1.7
	c7.3-1.3,13.8-4.6,19.8-8.9c6.3-4.5,12.9-8.3,20.3-10.6c0.6-0.2,1.2-0.5,1.8-0.8c0.4-0.2,0.9-0.5,1.1-0.9c1-2.1,2-4.1,1.6-6.6
	c-1.4-8.9-3.2-17.6-6.4-26c-0.3-0.7-0.6-1.4-1-2.2c-1,0.5-1.7,1.3-2.8,0.7c-0.4-0.2-1.2,0.2-1.8,0.4c-4.5,2.1-9,4.2-13.5,6.3
	c-2.3,1.1-4.6,2.2-6.9,3.3c-8.6,3.7-17.5,6.6-26.4,9.4c-11.8,3.7-23.7,7.2-35.9,9.7c-7,1.4-13.9,3.2-20.4,6
	C342.4,198.9,341.6,199.3,340.3,199.9z M310.9,377.7c2.1-3.3,3.2-6.6,1.8-10.2c-1.1-2.8-2.3-5.6-3.8-8.2c-3.8-6.3-5.7-13-5.8-20.2
	c0-1.6-0.5-2.9-1.6-4.1c-7-7.2-15.4-11.3-25.5-11.8c-4.2-0.2-8.5,0.2-12.7,0.6c-7.3,0.6-14.5,2.3-21.6,4.4c-2.5,0.7-4.1,2.3-4.7,4.9
	c-1.2,4.6-2.6,9.2-3.9,13.8c-0.1,0.4,0,0.9,0.1,1.4c1.3,6.2,2.8,12.3,5.8,17.9c1.6,3,3,6,4.6,8.9c4,7.1,7.7,14.4,10,22.2
	c0.2,0.6,0.3,1.4,1.3,1.6c0.5-1.3,1-2.6,1.4-3.9c1.4-5.1,1.4-10.1-1.7-14.8c5.2-0.6,9.9-2.7,14.3-5.3c5.4-3.2,10.4-7.1,15.6-10.7
	c1.1-0.8,2.2-1.4,3.8-2.4c-0.4,2,0.7,2,1.6,2.1c3.3,0.4,6.5,0.8,9.8,1c3.5,0.3,6,1.6,7.4,5.1C308.1,372.6,309.6,375,310.9,377.7z
	 M412.7,291c0.1-0.2,0.1-0.4,0.2-0.5c-4.4-4.7-9-9.2-13.2-14c-4.3-4.9-8.7-9.7-12.3-15.1c0.5,0.1,0.8,0.4,1.2,0.7
	c9.5,9.7,19.1,19.4,28.5,29.2c1.9,2,3.5,4.4,4.8,6.8c2,3.9,2.7,8.2,1.9,12.2c2.9,2.8,5.5,5.4,8.4,8.2c1.7-4.6,3.4-9,5-13.5
	c0.4-1,0.5-2.2,0.5-3.3c0.3-7.6-0.7-15-3.1-22.2c-0.8-2.5-2.1-4.7-4.2-6.3c-3.7-3-7.4-5.8-12.1-7.2c-2.2-0.7-4.3-1.8-6.3-2.8
	c-4.7-2.3-9.3-4.6-14-6.9c-7.5-3.7-14.6-7.9-21-13.3c-4.2-3.5-8.7-6.5-13.4-9.2c-2.9-1.6-5.7-3.3-8.6-4.8c-2.1-1.1-4.3-2.3-6.7-3
	c0,0.5,0,0.8,0,1.2c0.5,4.3,1,8.6,1.4,12.9c0.3,3.3,0.8,6.5,2.1,9.6c3.8,9.2,7.6,18.3,11.3,27.5c0.4,1,1.1,1.7,2.1,2.1
	c8.4,4.1,17.1,7.1,26.3,8.7c6,1.1,11.9,2.2,17.9,3.2C410.4,291.3,411.6,291,412.7,291z M435,485.3c1.2,0,2.1,0.1,2.9,0
	c6.8-0.7,13.1-3.1,18.5-7.3c7.7-5.9,13.8-13,17.8-21.9c1.5-3.4,1.4-6.3-0.6-9.5c-3-4.9-5.7-10-8.6-14.9c-1.7-3-3.5-5.9-5.4-8.8
	c-3.9-5.7-9.3-10-14.3-14.8c-0.5-0.5-1.2-0.7-1.9-1c-1.3-0.6-2.3-0.3-3.3,0.8c-2.8,3.1-5.8,5.9-8.8,8.9c-0.7,0.7-1.5,1.6-2.4,1.9
	c-2,0.6-2.4,2-2.6,3.7c-0.3,3.7-0.8,7.4-1.2,11.3c2.1,1.1,3.4,3.1,4.2,5.2c1.5,4,3,8.1,4.3,12.2c1.4,4.4,2,9,2,13.7
	C435.6,471.6,436.2,478.3,435,485.3z M432.7,143.6c-4.6,2.8-9.2,5.5-13.7,8.4c-4.5,2.9-9.1,5.4-14.1,7.1c-10.1,3.6-20.2,7-30.3,10.6
	c-9.5,3.3-19.2,4.6-29.3,3.5c-3-0.3-6-0.6-9.1-0.9c-0.7,9-1.2,17.8,0.8,26.8c0.7-0.2,1.2-0.2,1.5-0.5c5.5-3.1,11.4-5.1,17.4-6.5
	c4.5-1.1,9-2,13.6-3c13-3,25.7-7,38.4-11.1c9.5-3.1,18.8-6.7,27.6-11.6c2.4-1.4,5.1-2.3,7.7-3.4c1.2-0.5,2.5-1,3.9-1.6
	C442.7,155.1,438.9,148.8,432.7,143.6z M403.1,256c0.1-0.4,0.2-0.7,0.1-0.9c-1-3.6-2.2-7-4.4-10c-3.7-5.2-7.2-10.6-10.9-15.8
	c-1.2-1.7-2.5-3.4-4-4.8c-6.5-6.1-13.9-11-22.3-14.2c-7.5-2.9-14.9-5.7-22.4-8.4c-1.9-0.7-4.1-1-6.1-1c-6.9,0.1-13.7,0.8-20.5,2.1
	c-13.2,2.5-26,6.5-39,10.1c-7.2,2-13.6,5.5-19.2,10.4c-0.9,0.8-1.7,1.6-2.6,2.6c0.4,0.1,0.6,0.3,0.7,0.2c5.1-0.7,10.3-1.3,15.4-2.1
	c10.6-1.7,21.2-3.9,32-4.3c2.6-0.1,5.2-0.3,7.5-2c1-0.7,2.4-0.9,3.6-1.2c5.6-1.3,11.2-1.9,16.9-1.6c3.7,0.2,7.5,0.6,11.2,1.1
	c3.4,0.5,6.1,2.3,7.5,5.7c0.2,0.5,0.6,1,1,1.2c2.6,1.4,5.2,2.7,7.9,4c9,4.3,17.4,9.5,25.2,15.7C387.6,248.3,395.2,252.2,403.1,256z
	 M312.6,321.8c-1.1,0.9-1.9,1.5-2.6,2.1c-1.5,1.4-3.3,2.7-4.3,4.4c-0.8,1.3-0.6,3.3-0.8,4.9c-0.1,0.8-0.1,1.6,0,2.3
	c0.1,1.3,0.5,2.5,0.6,3.8c0.3,6.7,2,12.9,5.2,18.8c0.8,1.4,1.8,2.4,3.4,2.6c3.9,0.6,7.7,1.3,11.6,1.9c6.9,1.2,13.5,3.4,19.3,7.4
	c2.5,1.7,4.6,3.8,6.6,6.5c0.4-1.2,0.7-2,0.9-2.8c1.4-6.3,2.7-12.6,4.1-19c1.6-7.7,3.2-15.5,4.8-23.2c0.4-2.1,0.4-2.3-1.5-3.2
	c-2.1-1-4.3-2.1-6.6-2.7c-7.2-1.9-14.5-2.4-21.9-1.9c-3,0.2-6,0.8-8.9,1.2c-0.5,1.5-0.9,2.7-1.3,4c-0.1,0-0.2-0.1-0.3-0.1
	c0.2-1.2,0.3-2.3,0.5-3.8C318,325.4,314.7,325.4,312.6,321.8z M314,264.6c3.7,5.1,4.1,6.2,4.3,10.7c0.1,1.6-0.5,3.2-0.2,4.7
	c0.3,1.5,1.6,2.8,2.1,4.3c2.5,7.4,3.4,14.9,2.3,22.7c-0.7,5.2-3.1,9.4-7.2,12.6c-0.5,0.4-1,0.9-1.6,1.4c1.5,1.9,3.4,2.3,5.5,2.1
	c1.7-0.1,3.4-0.3,5-0.5c6.4-1.1,12.9-1.4,19.3-0.7c6.2,0.7,12.4,1.7,17.9,4.9c0.1,0.1,0.3,0,0.7,0c0.3-2.5,0.5-5,0.9-7.5
	c0.3-1.7,0.1-3.3-0.5-4.9c-1.6-4.6-3.2-9.2-4.8-13.8c-2.8-7.8-6.7-15-11.4-21.8c-2-2.9-3.9-5.9-5.6-8.9c-2.1-3.7-3.9-7.5-5.9-11.3
	c-0.8-1.6-0.9-1.6-2.6-1.1c-2.7,0.8-5.4,1.6-8,2.6C320.9,261.3,317.6,263,314,264.6z M403.1,512.8c0.5-0.1,0.7-0.1,0.9-0.2
	c4.1-2.2,8.3-4.2,12.1-6.8c6.5-4.4,10.8-11,15.3-17.4c0.4-0.6,0.3-1.6,0.5-2.5c0.1-0.4-0.1-1,0.1-1.1c1.3-0.8,1.1-2.1,1.1-3.2
	c0.2-4.1,0.2-8.1,0.4-12.2c0.5-10-1.9-19.3-5.7-28.4c-0.6-1.4-1.3-2.7-2.2-4c-1.2-1.7-2.4-2-4.1-0.9c-1.6,0.9-3.1,2-4.4,3.3
	c-2.3,2-4.8,3.6-7.8,4.6c-2.1,0.7-4.1,1.7-6.2,2.5c-1,0.4-1.4,1.1-1.7,2.1c-2.5,7.5-3.5,15.3-3.2,23.2c0.1,3.2,0.4,6.4,1.2,9.5
	c1.4,5.9,2.3,11.9,2.7,18C402.2,503.7,402.7,508.1,403.1,512.8z M232.3,344.2c0.3-1,0.5-1.7,0.6-2.3c0.7-3.1,1.4-6.2,2.1-9.4
	c0.7-3.3,2.7-5.4,5.9-6.3c0.7-0.2,1.4-0.4,2.1-0.6c8.8-2.7,17.9-4,27.1-4.6c12-0.8,22.5,2.9,31.6,10.7c0.3,0.3,0.7,0.4,1.2,0.7
	c1-4.1,0.5-8-0.1-11.9c-0.5-3.2-1.7-6.1-3.6-8.8c-4-5.7-8.5-10.8-14.5-14.5c-5.7-3.4-11.4-6.7-17.2-10c-1.5-0.9-3.2-1.5-4.9-2
	c-4.9-1.4-9.5-1.4-13.8,2c-4.7,3.6-8.4,7.8-9.7,13.8c-0.6,2.7-1.3,5.3-1.9,7.9c-1.3,7.1-2.6,14.1-3.9,21.2c-0.5,3-1.2,6-1.8,8.9
	C231.3,340.8,231.2,342.4,232.3,344.2z M331.3,426.6c-0.3-4.4,1.3-8,3.1-11.6c0.4-0.8,0.8-1.6,1.2-2.3c5.2-9,9.2-18.6,13.2-28.2
	c0.8-1.9,1.5-3.9,2.1-5.6c-1.1-1.1-2-1.9-2.8-2.9c-2-2.4-4.2-4.4-7-5.8c-2.9-1.4-5.8-2.9-8.8-3.7c-4.8-1.4-9.8-2.3-14.7-3.4
	c-1.5-0.3-2.9-0.7-4.7-1.1c0.5,1.3,0.9,2.4,1.3,3.4c1.6,3.8,1.5,7.6-0.3,11.4c-1.5,3-3.8,5.5-5.6,8.3c-1.6,2.5-2.8,5-0.9,8
	c1.2,1.9,2.1,4,3.2,5.9c1,1.7,1.7,3.7,1.1,5.5c-0.5,1.7,0.1,2.8,0.9,3.9c2,2.8,4.4,5.3,7.2,7.3c1.2,0.8,2.4,1.6,3.5,2.6
	c1.3,1.1,1.4,2.1,0.6,3.6c-0.2,0.3-0.4,0.6-0.5,0.7C326.1,423.8,328.6,425.1,331.3,426.6z M406.9,126.7c0.2,1.5,0.3,2.4,0.4,3.3
	c0.8,5.9,0.4,11.8-1.1,17.6c-0.5,1.8-1.4,3.6-2.4,5.2c-1.3,2.1-3.4,2.8-5.9,2.3c-2.5-0.4-4.8-1.4-6.7-3c-1.9-1.6-3.7-3.2-5.5-4.7
	c-13.6,4.5-27.1,4.4-40.7-0.4c-5.6,6.9-8.7,14.7-8.8,23.7c0.7,0.2,1.3,0.4,1.9,0.4c10.2,1.1,20.4,1,30.5-1.5
	c11.8-3,23.2-7.1,34.6-11.3c3.5-1.3,6.9-2.9,10.2-4.8c5.8-3.3,11.5-6.9,17.3-10.4c0.2-0.1,0.3-0.3,0.5-0.6c-0.7-0.5-1.4-1.1-2.2-1.6
	c-4.2-2.4-8.5-4.7-12.7-7.2c-2.7-1.7-5.2-3.6-7.8-5.5C408.2,127.8,407.8,127.4,406.9,126.7z M330.1,230.6c-1.4-0.8-2.3-1.5-3.2-1.9
	c-6.5-2.7-13.1-5-20-6.6c-0.8-0.2-1.7-0.3-2.6-0.3c-4.3,0.2-8.6,0.3-12.9,0.9c-11.9,1.6-23.9,3.5-35.8,5.3
	c-10.3,1.5-19.4,5.6-27.7,11.8c-3.7,2.7-7.3,5.4-11.5,7.3c-0.2,0.1-0.4,0.2-1,0.6c1.7,0,2.9,0,4,0c9.1,0.3,18-0.9,26.8-3.3
	c7.9-2.1,15.8-3.8,24-4.6c11.1-1.1,22-2.8,32.9-5.1c8.4-1.8,16.8-3.1,25.4-3.6C328.8,231,329.1,230.8,330.1,230.6z M272.9,418.8
	c0.2-1.2,0.3-1.9,0.4-2.7c0.1-1,0.2-2.1,0.3-3.1c0.1-1.6,0.9-2.7,2.4-3.2c0.7-0.3,1.5-0.5,2.3-0.8c4.4-1.5,8.7-3.1,13.1-4.6
	c3.4-1.2,6.8-2.4,10.2-3.3c2.2-0.6,4.5-0.7,7.1-1.1c-2-3.9-4-7.7-4.2-12.3c-1.2-0.4-2.3-0.8-3.5-1c-3.6-0.9-7.1-0.6-10.7,0.4
	c-6.6,1.9-12.5,4.8-17,10.1c-1.7,2-3.3,4-5,6.1c-0.1-0.2-0.2-0.4-0.1-0.5c2.1-4.8,4.8-9.3,9.1-12.4c5-3.7,10.8-5.5,16.9-6.2
	c3.8-0.4,7.5,0,10.8,2.2c1.5-2.6,4-4.1,5.1-6.7c-1.5-0.9-2.9-1.7-4.2-2.6c-2.7-1.8-5.7-2.4-8.9-1.8c-1.3,0.3-2.7,0.5-4,0.7
	c-7,1.4-13.8,3.1-20.3,6.4c-3.9,2-7,4.7-9.3,8.4c-1.9,3.1-3.9,6.2-5.8,9.1c0.3,2.1,0.5,4,0.9,6c0.3,1.4,0.7,2.8,1.2,4.1
	c0.4,1.1,1.1,2.1,1.5,3.3c0.5,1.3,1.4,2.1,2.9,2.1c2.1,0,3.9,0.7,5.6,1.8C270.6,417.7,271.6,418.1,272.9,418.8z M152.2,604.4
	c-2.3,1.2-4.5,2.2-6.5,3.5c-1.7,1.1-2.6,2.8-3,4.7c-0.5,2.5-0.5,4.9,0.2,7.4c1.7,5.8,3.5,11.6,5.3,17.4c1.1,3.7,2.5,7.3,3.3,11
	c1.2,5.2,2.1,10.5,3.2,15.7c1.1,5,3.3,9.5,7.1,13.4c0.8-0.8,1.6-1.4,2.1-2.3c1.1-1.9,1.9-3.9,2.9-5.7c0.8-1.4,1.5-2.8,2.5-4
	c1.8-2.2,4.2-3.4,7.1-3.5c0.3-1.8,0.4-3.5,1-5.1c0.5-1.4,0-2.2-0.9-3.2c-5-6.1-9.1-12.7-11.2-20.4c-1-3.8-2.8-7.3-5.1-10.5
	c-2.8-3.9-5.3-8-6.6-12.7C153.1,608.4,152.7,606.6,152.2,604.4z M341.1,528.7c-0.3-0.7-0.4-1.1-0.6-1.5c-2.7-6.2-5.6-12.4-8.2-18.6
	c-0.7-1.8-1.8-2.6-3.6-3c-1.7-0.4-2.8,0-4,1.3c-1.8,2-4.2,2.7-6.8,1.6c-2-0.9-4.1-1.9-5.9-3.1c-1.7-1.1-3.2-2.2-5.4-2.3
	c-0.9,0-1.8-0.5-2.7-0.9c-2-0.7-2-0.8-3.4,0.9c-5.4,6.8-11.7,12.7-18.5,18c-0.3,0.2-0.5,0.5-0.9,1c0.9,0.4,1.6,0.7,2.3,1
	c6.2,2.3,12.6,4.1,19.1,5.5c10.1,2.2,20.3,3.2,30.7,1.6C335.8,529.7,338.4,529.2,341.1,528.7z M327.1,661.3c0.2,0,0.3,0.1,0.5,0.1
	c-0.7,4.7-1.4,9.4-2,14.1c2.7,1.9,8,4.5,9.7,4.7c0-5.7-0.3-11.4,1.5-16.8c1.8-5.4,3.9-10.6,6-16.1c-0.5-0.3-1.2-0.6-1.9-1
	c-3.2-1.5-6.4-3-9.5-4.7c-2.5-1.4-4.8-3.1-7.2-4.6c-0.7-0.3-1.6-0.2-2.4,0c-2.3,0.6-4.6,1.3-7,1.8c-1.8,0.4-3.6,0.5-5.6,0.8
	c-0.1,0.3-0.4,1-0.5,1.7c-1.3,6.7-2.7,13.3-4,20c-0.4,1.9-0.6,3.8-0.7,5.7c-0.1,1.4,0.6,2.5,2,2.9c0.9,0.3,1.8,0.4,2.8,0.7
	c0.3-2,0.4-3.8,0.7-5.5c0.3-1.7,0.5-3.5,1.5-5c0.1,2.1-0.1,4.2-0.2,6.2c-0.2,5.2-1.2,4.6,4.7,5.7c0.1,0,0.1-0.1,0.3-0.2
	c1.1-3.6,1.6-7.6,3.1-11.2c0.2,0,0.3,0.1,0.5,0.1c-0.9,3.8-1.8,7.7-2.7,11.6c2.9,1,5.5,1.9,8.1,2.9
	C325.5,670.3,326.1,665.8,327.1,661.3z M207.8,450.3c0.2,0,0.4,0.1,0.6,0.1c0,0.5,0,1.1,0,1.6c0,1.8-0.3,3.6-0.1,5.4
	c0.3,2.5,0.8,5.1,1.3,7.6c0.1,0.5,0.5,1,0.9,1.3c4.8,3.2,9.5,6.4,15.3,7.8c7.9,1.8,15.9,2.5,24,3.2c9.8,0.9,19.5,2.2,29.1,4.4
	c2.3,0.5,4.6,1.2,6.8,1.8c-1.8-1.5-3.8-2.8-5.8-3.8c-7.6-3.8-15.1-7.6-22.7-11.3c-6.1-3-12-6.4-17.2-10.8c-3.5-2.9-7.5-4.8-11.9-5.9
	c-5.8-1.5-11.6-2.2-17.6-2.2c-1.1,0-2.3,0.1-3.3,0.5c-1.6,0.5-1.7,1.6-0.4,3C207.1,452,207.4,451.2,207.8,450.3z M389.3,498.2
	c0.2,0,0.4-0.1,0.6-0.1c0.3-3.5,0.9-6.9,1-10.4c0.2-5.5,0-11,0-16.5c0-5.5,0.5-10.9,1.9-16.1c1.3-4.7,1.9-9.5,1.9-14.4
	c0-4.3,0.4-8.6,1.5-12.8c2.8-10.9,4.8-21.9,5.7-33c0.3-3.7,0.3-7.5,0.2-11.2c-0.1-2.7-0.5-5.3-0.8-8.4c-2.6,3.9-5,7.4-7.3,10.9
	c-0.5,0.8-0.7,1.8-0.8,2.7c-0.2,1.5-0.4,3-0.5,4.5c-0.3,7-0.6,14-0.9,21.1c-0.3,6.6-1.3,13.1-4.8,18.9c-1.4,2.4-2.4,4.8-3.1,7.5
	c-1.5,5.3-2.8,10.6-3.2,16.2c-0.5,7.6,0.1,15.2,1.1,22.7C382.7,486.4,385.4,492.6,389.3,498.2z M311.7,420.4
	c3.5-0.1,6.9,1.4,10.3-0.2c-2.9-2.6-5.8-4.9-8.4-7.5c-2.6-2.7-4-6.1-4.4-10c-0.9-0.1-1.7-0.2-2.5-0.2c-1.7,0.2-3.4,0.3-5,0.7
	c-3.1,0.9-6.1,1.9-9.1,2.9c-4.8,1.6-9.5,3.4-14.2,5c-2.7,0.9-2.7,0.9-2.9,3.6c-0.1,1.5-0.5,3-0.6,4.5c-0.1,0.7-0.1,1.6,0.2,2.3
	c0.9,2.7,2,5.4,2.8,8.1c1.2,3.6,2.9,6.9,5,10c0.3,0.4,0.4,0.8,0.6,1.2c0.2-0.1,0.4-0.3,0.6-0.4c0.1-0.8,0.3-1.5,0.2-2.3
	c-0.2-3.3-0.4-6.5-0.6-9.8c-0.1-1-0.5-2,0.2-3c1,0.4,1.1,1.2,1.2,2c0.3,2,0.8,3.9,0.9,5.9c0.1,2.4,1.5,3.8,3.2,5
	c1.6,1.1,2.5,0.8,3.4-1c0.9-2.1,1.4-4.3,1-6.5c-0.3-1.6-0.8-3.3-1.1-4.9c-0.1-0.8,0-1.6,0-2.4c0.2-0.1,0.4-0.1,0.6-0.2
	c0.4,0.5,1,0.9,1.2,1.5c1.2,3.4,1.8,7,1,10.6c-0.5,2.2-0.1,3,1.9,4c1.3,0.7,2.1,0.6,2.9-0.6c0.7-1,1.2-2.1,1.6-3.2
	c1.4-4.2,1-8.5,0.1-12.8c-0.2-1.1-0.7-2.1,0.1-3.2c1.3,0.5,1.7,1.6,1.9,2.7c0.4,2.6,0.6,5.2,1,7.8c0.1,0.8,0.2,1.7,0.7,2.4
	c1.1,1.9,2.4,3.6,3.6,5.4c0.4,0.6,0.8,1.1,1.4,1.9c0.3-0.7,0.6-1,0.6-1.3c0.1-2.4,0.5-4.8,0.2-7.1c-0.5-3.8-1.4-7.5-2.1-11.3
	c-0.2-1.2-0.7-2.4,0.6-3.9c0.2,0.4,0.4,0.7,0.5,1C310.9,418.3,311.3,419.3,311.7,420.4z M162.5,678.6c6.4,7.8,13.3,14.5,22.5,18.4
	c2.4,1,4.9,1.6,7.5,1.2c3.6-0.6,6.6-1.9,7.9-5.7c0.3-0.9,0.8-1.8,1.2-2.6c1.9-3.6,2.4-7.4,1.2-11.4c-1-3.4-0.9-6.8-0.1-10.2
	c0.2-0.9,0.5-1.9,0.6-2.8c0.1-0.9,0-1.8-0.1-2.7c-2-0.2-3.4,0.7-4.8,1.4c-2.1,1-4.1,2.1-6.2,3c-2.5,1.1-5.1,1.3-7.8,0.9
	c-2.7-0.4-4.9-1.7-7.2-2.9c-0.9-0.5-1.8-0.8-2.7-0.3c-1.1,0.6-2.3,1.2-3.1,2.1c-1.2,1.5-2.3,3.1-3.1,4.8
	C166.9,674.5,165.4,677,162.5,678.6z M409.7,308.4c-0.2,1.3-0.4,2.3-0.4,3.3c-0.3,5-0.8,10-0.9,15.1c-0.1,3.5,0.4,7,0.5,10.5
	c0.2,3.8-0.2,7.5-1.2,11.2c-1,3.7-1.9,7.4-2.8,11.2c-1.4,5.9-1.8,11.8-1,17.9c0.9,7.1,1.2,14.2-0.1,21.3c-1.5,8.3-2.7,16.6-4.5,24.8
	c-1.2,5.8-2.4,11.6-2.5,17.5c0,3.8-0.1,7.7-1.2,11.4c-2.4,8-2.7,16.2-2.4,24.5c0.3,7.4,0.3,14.9-1.2,22.2c-0.8,3.9-0.5,7.8,0.6,11.6
	c0.4,1.5,0.7,2.9,1.1,4.4c0.1,0.5,0.4,1,0.7,1.7c2.4-0.6,4.4-1.6,6.5-2.7c0-1.2,0.1-2.3,0-3.4c-0.2-3.3-0.6-6.7-0.8-10
	c-0.5-6.2-1.1-12.4-2.6-18.5c-2.1-8.6-1.9-17.4-0.1-26c1.3-6.6,3.4-13,5.4-19.4c1.7-5.2,3-10.4,3.7-15.8c1.4-10.4,1.8-20.9,1-31.4
	c-0.8-10.1-0.2-20.1,2.4-30c0.5-2.1,1-4.2,1.3-6.3c0.7-5.4,0.3-10.9-0.8-16.2c-1.1-5.4-1.3-10.8-0.4-16.2c0.7-3.9,1.3-7.9,1.9-11.9
	C411.4,308.9,410.7,308.7,409.7,308.4z M409.1,384.4c0.1,1.2,0.1,2.2,0.2,3.1c1.3,17.5,0.3,34.8-5.4,51.6c-0.6,1.9-1.1,3.8-1.7,5.9
	c5.1-1.3,9.1-3.7,12.7-6.7c2.5-2,4.8-4.2,7.9-5c0.1-0.4,0.2-0.6,0.2-0.9c-0.2-4.6,0.5-9.1,1.3-13.6c1.1-5.8,1.4-11.6,0.7-17.4
	c-0.5-4.2-1.2-8.4-1.9-12.5c-0.2-1.5-0.4-3.1-0.7-4.5C418.1,384.4,413.8,384.4,409.1,384.4z M304.6,499.7c0-0.2,0-0.4-0.1-0.4
	c-3-3.1-6-6.2-9-9.3c-1.2-1.3-2.8-2.1-4.4-2.1c-1.9,0-3.4-0.6-5-1.3c-1.3-0.5-2.7-1-4.1-1.4c-8.2-2.2-16.6-3.5-25-4.4
	c-8.6-1-17.2-1.8-25.7-2.9c-7.4-1-14.3-3.5-19.9-8.6c-0.2-0.2-0.5-0.3-1.1-0.6c0.2,2.4,0.7,4.6,0.6,6.6c-0.2,3.5,1.7,5.5,4.3,7
	c1.2,0.7,2.4,1.3,3.6,1.8c4.7,1.8,9.5,2.7,14.4,3.4c6.6,0.9,13.3,1.6,20,2.5c5.2,0.6,10.3,1.5,15.4,1.9c9.1,0.8,18.1,2.2,26.8,4.9
	C298.5,497.6,301.5,498.7,304.6,499.7z M212.3,257.5c-1,1.3-1.6,2-2.2,2.8c-6.5,8.8-12.5,17.8-16.4,28.1c-2.5,6.5-5.1,12.9-7.7,19.4
	c-0.2,0.4-0.2,0.9-0.4,1.6c3.3,0.3,6.5,0.8,9.7,1c7.4,0.4,14.6,1.3,21.3,4.9c0.1,0.1,0.3,0,0.6-0.1c-0.3-0.8-0.6-1.5-0.9-2.2
	c-1.1-2.5-2.2-5-3.3-7.4c-2.9-6.4-3.5-13-2.8-19.9c0.8-8.3,1.5-16.7,2.1-25.1C212.4,259.7,212.3,258.9,212.3,257.5z M141,610.7
	c-1.8,0.3-2.8,0.9-3.6,2c-1.3,2-2.7,4-4.1,5.9c-0.9,1.2-1,2.5-0.4,3.8c0.3,0.6,0.6,1.1,0.9,1.7c3.6,6.5,6,13.4,7.6,20.6
	c1.4,6.6,2.6,13.2,3.6,19.8c0.9,5.7,3.1,10.9,6.6,15.5c5.3,7.1,11.4,13.4,18.6,18.5c6.9,4.9,14.5,6.9,22.8,6.3
	c3.2-0.2,5-2.5,4.8-5.9c-0.7,0.2-1.3,0.5-2,0.7c-3.3,1-6.6,1.3-9.9-0.1c-5.2-2.2-10.2-4.6-14.3-8.6c-3.8-3.6-7.4-7.5-10.9-11.4
	c-1.5-1.6-2.8-3.5-4.1-5.3c-3.1-4.4-4.3-9.6-5.2-14.8c-1.3-8.1-3.2-16-6.2-23.6c-1.3-3.3-2.3-6.8-3.2-10.3
	C140.7,620.9,139.4,616.1,141,610.7z M258.6,493.2c-0.8-0.2-1.3-0.4-1.7-0.4c-7.2-1-14.4-1.9-21.6-2.9c-1-0.1-1.6,0.2-2.4,0.8
	c-5.4,4-10.8,7.9-16.3,11.8c-0.7,0.5-1.6,0.9-2.4,1.4c0,0.2,0,0.3,0,0.5c3.8,0.9,7.5,2,11.4,2.8c9.5,1.8,19,3.7,28.3,6.3
	c2.7,0.8,5.3,1.5,8.4,2.3C261.1,508.1,259.9,500.7,258.6,493.2z M412.1,335.2c0.2,1.4,0.2,2.2,0.4,3.1c1.4,7.8,1.3,15.6-1,23.3
	c-1.8,6-2.5,12.2-2.5,18.5c0,0.7,0.1,1.4,0.1,2.1c3.4,0,6.6,0.2,9.8,0c5.5-0.4,6.2-1.3,7-6.8c1-7,2.2-14,3.4-21.1
	c0.4-2.1,0.8-4.2,1.2-6.4c0.3-1.8-0.3-3.2-1.8-4.3c-3.5-2.7-7.4-4.8-11.4-6.6C415.8,336.2,414.2,335.9,412.1,335.2z M259.4,493.3
	c0.7,2.3,1.3,4.3,1.8,6.4c1.1,4.8,2,9.7,2.9,14.6c0.3,1.6,1,2.4,2.6,2.9c3.4,1,6.8,2.2,10.2,3.4c3.1,1.1,3.1,1.1,5.2-1.2
	c0.4-0.4,0.8-0.8,1.2-1.2c5.3-5.1,10.5-10.3,15.1-16c0.4-0.5,0.7-1,1.1-1.6c-0.6-0.3-1-0.5-1.5-0.6c-5.9-2-11.9-3.6-18.1-4.5
	c-5.8-0.8-11.6-1.3-17.4-1.9C261.6,493.5,260.6,493.4,259.4,493.3z M347,678.8c-1.5,2.1-2.6,3.6-3.6,5.1c-0.9,1.4-2,2.8-2.4,4.3
	c-1.2,3.9-0.4,7.9-0.5,12.1c14.3-1.2,28-5,42.2-4.9c-0.1-3.5-1.4-6.1-3.6-8.3c-2.2-2.2-4.6-4.3-6.7-6.5c-2.3-2.5-4.9-3.1-8.2-2.8
	c-4.5,0.5-9.1,0.5-13.6,0.7C349.3,678.5,347.9,678.7,347,678.8z M385.4,705.9c0.4-0.8,0.7-1.5,1-2.2c1.1-3-0.5-5.4-3.6-5.8
	c-0.5,0-1-0.1-1.4-0.1c-4.3,0.3-8.6,0.5-12.9,1.1c-7.3,1-14.5,2.2-21.8,3.4c-4.5,0.7-8.6,0.3-12.7-1.9c-8-4.2-16.2-7.9-24-12.5
	c-1.2-0.7-2-0.5-2.5,0.8c-1,2.5-1.2,5.3-0.5,7.8c0.5,1.9,3,1.8,4.6,2.6c0.4,0.2,0.7,0.3,1.1,0.4c8,2.9,16.1,5.8,24.1,8.7
	c4,1.5,8.2,2.2,12.5,1.7c5.3-0.6,10.6-1.4,15.9-2.5c6.5-1.4,12.9-2.2,19.5-1.5C384.9,706,385,705.9,385.4,705.9z M162.4,378.9
	c11.8-3.6,23.3-3.6,34.3,2.9c0.2-0.4,0.5-0.9,0.7-1.4c1.3-3.8,2.6-7.5,3.9-11.3c0.7-2,0.7-2.7-1.1-3.9c-1.7-1.2-3.6-2.1-5.5-2.8
	c-7.4-2.7-15.1-3.2-22.9-2.9c-2.3,0.1-4.6,0.5-6.7,0.7C164.2,366.6,163.3,372.7,162.4,378.9z M329.9,233.3c0-0.1,0-0.2,0-0.3
	c-1.3,0.1-2.7,0.1-4,0.2c-8.4,0.8-16.6,2.3-24.9,3.8c-7,1.3-14,2.8-21,3.5c-11.4,1.3-22.7,2.7-33.8,5.7c-8.9,2.4-17.8,3.6-27,2.7
	c-1.8-0.2-3.7-0.1-5.5,0c-0.4,0-0.9,0.4-1.5,0.6c1.3,0.8,2.3,1.6,3.5,2.1c1.2,0.5,2.4,0.9,3.7,1c2.5,0.2,5.1,0.4,7.7,0.3
	c7-0.3,14-0.8,21.1-1.3c4.5-0.3,9.1-0.4,13.6-1.2c11.5-2.2,22.8-4.6,34.2-7.1c5.3-1.1,10.6-2.4,16.1-2.3c2.6,0.1,4.9-0.5,7.1-1.7
	C322.8,237.4,326.3,235.4,329.9,233.3z M347.7,241.3c-0.2-5.7-0.7-11.2-2.2-16.6c-1.1-3.9-3.6-6-7.5-6.7c-7.1-1.2-14.2-1.2-21.3-0.5
	c-2.7,0.3-5.3,1-8,1.5c-0.5,0.1-0.9,0.4-1.7,0.8c1.1,0.3,1.9,0.6,2.7,0.7c5.9,1.4,11.6,3.6,17.2,5.8c1.9,0.7,3.7,1.6,5,3.2
	c1.6,2,1.3,4.8-1.1,5.6c-3.7,1.3-6.6,3.9-10.1,5.5c-0.5,0.3-1,0.6-1.6,1c2.6,2.8,5.5,4.4,9.2,4.1c0.6,0,1.1,0,1.7,0.1
	c1.1,0.2,2-0.2,2.9-0.8c2.7-2.1,5.9-3.1,9.3-3.5C344,241.5,345.8,241.4,347.7,241.3z M174.1,353.3c5.5-0.4,12.6-4.5,15.3-9.1
	c1.7-2.8,1.6-5.7,0.2-8.5c-2.3-4.4-5.5-7.8-9.9-10.1c-1.7-0.9-3.6-1.2-5.5-1.4c-2.6-0.4-4.1,0.7-5.2,2.8c-2.5,4.6-4.5,9.3-5.9,14.3
	c-0.3,0.9-0.3,1.9-0.3,2.8c0,0.5,0.2,1.2,0.5,1.6c1.8,2.3,3.7,4.6,6.4,6C171.1,352.4,172.7,352.8,174.1,353.3z M190,314.2
	c0.3,0,0.5-0.1,0.8-0.1c0.8,6.8,1.6,13.7,2.4,20.5c2.3,0.6,4.6,1.1,6.6,1.6c4.5-6.7,8.9-13.1,13.4-19.6c-3.3-1.6-6.7-2.5-10.2-2.9
	c-6.6-0.7-13.2-1.1-19.6-2.7c-2.6-0.7-5.4-0.2-8,0.6c-2.3,0.7-2.9,1.4-2.9,3.8c0,2.2,0.4,4.4,0.6,6.8c1.4,0.1,2.8,0.4,4.2,0.4
	c1.5,0,2.8,0.3,4.1,1c3.5,1.9,6.1,4.6,8.5,7.7c0.5,0.6,1,1.2,1.3,1.7C190.8,326.7,190.4,320.5,190,314.2z M369.5,480.1
	c-10.5,1.3-20.8,0-31.2-0.6c-1.6,5-3.1,9.7-4.7,14.8c3.2-0.6,5.8,0.6,8.3,1.5c5.7,2.1,11.5,2.7,17.4,2.2c3.7-0.3,7.2-0.9,10.4-3.2
	c1.3-1,1.7-1.9,1.3-3.4c-0.2-0.8-0.3-1.6-0.4-2.4C370.3,486.1,369.9,483.3,369.5,480.1z M296.9,488.3c0.1-0.1,0.3-0.3,0.4-0.4
	c-1-1.4-1.9-2.9-3-4.2c-2.4-2.9-5.3-5.1-8.7-6.7c-3.9-1.8-7.9-3.5-12-4.8c-9.8-3.1-18.3-8.3-24.9-16.4c-5.3-6.4-12.2-10.2-19.9-12.7
	c-8.3-2.7-16.7-3.8-25.3-1.9c-1.1,0.2-2.2,0.6-3.1,1.2c-1.8,1.1-2.7,3.4-1.8,4.9c1.4,2.3,3,4.6,4.5,6.8c0.5,0.7,1.2,1.5,2.5,1.1
	c-0.4-0.6-0.7-1-0.9-1.5c-1.4-2.4-0.7-4.7,2-5.4c1.7-0.5,3.6-0.5,5.4-0.4c2.7,0.1,5.4,0.5,8.1,0.9c8.6,1.1,16.4,3.9,23.1,9.7
	c2.9,2.5,6.4,4.5,9.8,6.4c5.3,2.8,10.7,5.5,16.1,8c8.9,4.2,17.6,8.7,25.7,14.4C295.5,487.6,296.2,487.9,296.9,488.3z M344.1,144.5
	c6.5-7.7,12.1-15.6,15.3-25c-0.4-0.1-0.7-0.2-1-0.3c-6.3-1.8-12.6-1.5-19-0.8c-3.8,0.4-7,2.1-9.5,5.1c-2.5,2.9-2.7,4.8-0.6,8
	C332.9,137.2,338.2,141.1,344.1,144.5z M406.9,292.7c-12.8-1.3-25.4-3.3-37.1-8.8c1.9,3.2,3.9,6.4,6.1,9.2
	c6.1,7.8,13.8,13.7,22.7,18c2.6,1.3,5.3,2.2,8.4,2.5c0.5-2.5,1.6-4.9,1.5-7.2C408.2,301.8,407.4,297.3,406.9,292.7z M427.3,416.5
	c0.5-0.2,0.8-0.2,0.9-0.4c5.3-4.9,10.4-9.9,14.3-16c1-1.6,1.7-3.4,2.3-5.2c0.5-1.3,0.3-2.7-0.3-4c-2.6-5.7-6.2-10.6-10.7-14.9
	c-1.4-1.3-3.1-1.9-5.2-1.8c-0.4,1.8-0.4,3.7-1.1,5.4c-0.7,1.6-2,3-3.3,4.8C426.3,394.6,429.4,405.2,427.3,416.5z M457.9,480.3
	c0.7,0.2,0.9,0.3,1.1,0.3c3.9,0.4,6.8,2.2,8.7,5.8c1.3,2.4,3,4.5,4.6,6.7c1.3,1.7,3,2.9,5.1,3.4c2.6,0.6,3.8-0.4,3.3-3
	c-0.4-1.8-1.2-3.6-2.1-5.3c-1.5-2.9-3.2-5.7-4.8-8.6c-1.6-3-0.4-6.6,2.4-7.7c2.7-1,5.4-1.9,8.2-2.7c1.6-0.5,3.3-0.8,4.9-0.8
	c4.1,0.2,8.1,0.7,12.2,1.1c1.3,0.1,2.6,0.4,4.2,0.6c-0.1-0.8-0.1-1.4-0.3-1.9c-0.6-1.7-2.1-2.4-3.6-2.9c-5-1.7-10.2-2.8-15.4-3.5
	c-3.7-0.5-7.5-0.5-11-2.5C471.4,467.8,465.1,474.3,457.9,480.3z M412.5,309.4c-0.3,8-2.2,15.9-0.8,23.9c7,1.2,13.1,4.3,18.6,8.5
	c2-4.2,2.6-6.9,2.4-11c-0.4-8.3-0.7-7.6-5.1-12.9c-2.1-2.6-4.5-4.9-7.8-6.1C417.6,310.8,415.4,309.5,412.5,309.4z M222.9,331.8
	c-3.6,4.3-7.6,7.4-12.2,10.2c0.2,5.4-1.3,10.6-3,15.7c-2,6.1-4.2,12.2-6.3,18.3c-0.2,0.7-0.4,1.5-0.7,2.3c2.1-0.8,4.1-1.9,6.1-2.3
	c2.1-0.4,4.4-0.1,6.9-0.1c0.6-3.3,1.3-6.7,1.9-10.2c1.3-7.5,4.3-14,10.3-18.9c0.2-0.2,0.4-0.5,0.5-0.7
	C223.7,341.9,224.2,336.9,222.9,331.8z M165.4,358.8c3.5-0.5,6.8-1.1,10-1.3c5.4-0.4,10.7,0.4,15.9,1.4c3.6,0.7,7.1,1.9,10.1,4.2
	c0.4,0.3,0.9,0.6,1.5,1c2.4-7,5-13.6,6.1-20.7c-5.1-3.3-10.4-5.7-16-7.3c-0.1,0.4-0.1,0.5-0.1,0.5c0.1,0.4,0.1,0.8,0.2,1.2
	c0.7,3.7-0.3,7-2.8,9.8c-3.4,3.8-7.5,6.5-12.5,7.6c-3.7,0.9-7.1,0.6-10.3-1.8c-0.6-0.5-1.3-0.8-2.2-1.4
	C165.2,354.4,164.7,356.6,165.4,358.8z M405.6,137.8c-0.1-6.5-0.4-11.5-3.1-16c-1.5-2.6-3.7-4.4-6.3-5.7c-2.6-1.3-3.2-0.9-4,1.9
	c-1.7,6.4-2.3,12.9-1.7,19.5c0.4,4,0.9,7.9,2.5,11.7c1.2,2.7,3.3,3.7,6,3.9c1.3,0.1,2.5-0.3,3.1-1.5c0.9-1.5,1.8-3.1,2.2-4.7
	C404.9,143.4,405.3,139.9,405.6,137.8z M338.3,670c-1.2,2.8-1.3,4.3-1,6.4c0.2,1.4,0.4,2.9,0.3,4.3c-0.2,2-1.7,2.9-3.6,2.2
	c-1-0.4-2-0.9-3-1.5c-4.8-2.6-9.6-5.1-14.9-6.5c-1.1-0.3-2.3-0.6-3.6-1c-0.3,4.6-0.5,8.9-0.8,13.2c8.7,4,17.3,8,26.2,12
	c-0.1-1.6-0.1-2.9-0.2-4.1c-0.3-5.5,0.9-10.5,5.5-14.1c0.8-0.7,1.3-1.7,1.8-2.4C342.7,675.6,340.6,672.9,338.3,670z M383.6,134
	c-9.6,2.5-18.9,3.2-28.1-1.2c-3.2,4.3-6.4,8.6-9.8,13.1c0.9,0.3,1.4,0.5,1.9,0.6c9.9,2.3,19.8,2.4,29.8,0.9c2.5-0.4,5-1,7.1-2.6
	C383.2,141.4,384,137.9,383.6,134z M160.7,385.3c-0.9,3-2,6-2.8,9.1c-1.5,5.5-3,10.9-4.3,16.4c-0.6,2.7,0.6,4,3.3,3.7
	c3.9-0.4,7.7-1.1,11.5-1.7c0.7-9.5,4.5-18.3,6.9-27.5C170.3,384.5,165.6,384.2,160.7,385.3z M227.4,347.8c-0.5,0.4-0.9,0.8-1.3,1.2
	c-3.9,4.4-6.8,9.2-7.7,15.2c-0.6,3.9-1.4,7.8-2.1,12c1-0.3,1.9-0.5,2.7-0.7c1.4-0.4,2.8-0.8,4.2-1.1c1.9-0.4,3.8-0.5,5.6,0.6
	c2.8,1.7,5.8,2.2,9,1.7c1.2-0.2,2.5-0.2,4-0.3c-2.2-4.4-4.3-8.6-6.3-12.9c-2.1-4.4-2.9-9.2-3.5-13.8
	C230.3,348.8,228.9,348.3,227.4,347.8z M343.8,528.2c3.8-0.9,7.4-1.9,11.1-2.7c1.5-0.3,2.1-1.1,2.5-2.4c1.5-4.1,3.1-8.2,4.7-12.3
	c0.6-1.5,1.4-3,2.3-4.7c-10.6,1.5-21,3-31.8,0.5C336.4,513.9,340,520.9,343.8,528.2z M383.7,131.6c0.9-4.4,1.7-8.5,2.5-12.7
	c-0.1,0-0.3-0.2-0.5-0.3c-0.3-0.1-0.6-0.2-0.9-0.3c-7.1-1.4-14.1-1.2-21.2-0.3c-1.2,0.2-1.7,1-2.2,1.9c-1.2,2.8-2.5,5.5-3.8,8.3
	c-0.5,1-1,2-1.4,3C360.7,134.2,375.4,135,383.7,131.6z M381.8,490.8c-4.7-16.8-5.7-33.5,0.2-50.1c-3.1,1.8-6.1,3.7-9,5.5
	c-1.8,1.1-3.1,2.7-4.1,4.6c-0.3,0.6-0.5,1.2-0.9,1.7c-0.8,0.9-0.7,1.7-0.4,2.8c0.8,3.2,1.6,6.5,2.1,9.8c0.7,4.7,1.2,9.5,1.9,14.2
	c0.4,2.8,0.8,5.7,1.2,8.6C376.3,487.7,379.1,489.5,381.8,490.8z M161.7,348.2c-2.5-3.8-1.3-7.4,0.1-10.9c1-2.7,2.2-5.3,3.4-7.9
	c1.2-2.7,2.7-5.3,5-7.2c-1.4-2.7-3.5-3.8-6.3-2.9c-2.6,0.8-5,2.1-7.3,3.4c-5.8,3.4-8.4,8.5-8,15.2c0.2,2.7,1,5,3.2,6.7
	c0.7,0.5,1.3,1.2,2,1.7C156,347.7,158.4,348.7,161.7,348.2z M177.1,416.1c4.6-7.4,9.2-14.8,13.8-22.1c-3.6-5.1-8.7-6.7-14.1-8
	c-0.6,2.6-1.1,4.9-1.6,7.2c-1.3,5.4-2.6,10.7-3.8,16.1c-0.3,1.3-0.3,2.6-0.4,3.6C173.2,414.1,175.1,415,177.1,416.1z M256.2,398.3
	c0.1,0,0.2,0.1,0.3,0.1c0.6-1,1.2-2.1,1.8-3.1c2-3.2,4-6.3,6.2-9.4c0.9-1.3,2.2-2.4,3.5-3.2c4.7-2.7,9.6-5.2,14.9-6.6
	c4.3-1.1,8.7-2,13.1-2.9c3.2-0.6,6.4-0.6,9.4,0.9c0.2,0.1,0.5,0.1,1,0.2c-0.6-1.4-1.2-2.5-1.7-3.7c-0.6-1.9-1.9-2.8-3.8-3.1
	c-4.6-0.8-9.1-1.6-13.7-2.4c-9,7.2-18.3,13.9-30.2,16.4c1.1,2.9,2.1,5.6,1.6,8.5C258,392.9,257,395.6,256.2,398.3z M354.9,647.7
	c-0.5,0-0.8-0.1-1.2-0.1c-2.4,0.2-4.7,0.4-7.1,0.7c-0.5,0.1-1.2,0.5-1.4,1c-2.8,5.4-5.1,11-6.4,17c-0.4,1.9,0.4,2.6,2.4,2.1
	c3.2-0.9,6.4-1.9,9.6-2.8c3.6-1.1,7.1-2.1,11-3.3C360.5,656.8,357,652.6,354.9,647.7z M231.3,489.3c-2.7-0.6-5.1-1-7.4-1.6
	c-2.4-0.7-4.8-1.3-7-2.4c-2.1-1-3.9-2.6-5.7-3.8c-0.9,3.1-1.4,6.3-2.6,9.2c-1.2,2.9-3,5.6-4.5,8.4c2.8,2.1,5.8,3.5,9,4.6
	C219.1,498.9,225,494.3,231.3,489.3z M369.1,477.5c-0.3-2.8-0.5-5.3-0.8-7.8c-0.5-4.5-1-9-2.5-13.4c-0.2-0.6-0.5-1.2-0.9-1.9
	c-6.4,7.7-11.5,16-18.6,23.3C354.2,477.9,361.6,478.4,369.1,477.5z M214.1,316.9c-4.1,6.8-8,13.4-12,20c2.5,1.3,4.9,2.4,7.2,3.6
	c1.3-0.9,2.6-1.8,3.9-2.8c2.8-2.2,5.5-4.4,8.2-6.6c1.1-0.9,1.3-1.9,0.8-3.2c-0.6-1.6-1.2-3.1-1.7-4.7
	C219.5,319.9,216.6,318.6,214.1,316.9z M371.9,495.9c-0.8,0.5-1.3,0.8-1.8,1.1c-1.9,0.9-3.8,2.1-5.9,2.6c-4.3,1-8.7,1.1-13.1,0.5
	c-4.1-0.5-8.1-1.7-12-3.2c-2-0.8-4-1.7-6.2-0.9c-0.7,1.2-1.3,2.5-2.1,3.8c-0.8,1.3-1.7,2.5-2.6,3.7c16,3.9,36,0.9,45-2.7
	C372.8,499.3,372.4,497.7,371.9,495.9z M199.4,621.1c-1,2.7-1.9,5-2.7,7.3c-0.9,2.4-1.8,4.8-2.7,7.2c-0.9,2.3-2,4.5-3.1,6.8
	c-1.1,2.2-2.4,4.4-3.9,7c3.3,0.1,6.1,0.3,8.8,0.4c1.3,0.1,2-0.5,2.2-1.9c0.4-2.5,0.9-5,1.3-7.5c0.5-2.5,1.3-4.8,3.1-6.6
	c2.6-2.8,5.3-5.6,8.5-7.7c0.4-0.3,0.7-0.7,1-1C207.1,626.1,203.1,624.7,199.4,621.1z M374.3,503.6c-2.7,0.7-4.9,1.3-7.2,1.8
	c-1.2,0.2-1.8,0.9-2.1,2c-1.5,4.5-3,8.9-4.5,13.4c-0.3,1-0.5,2-0.8,3.3c4.7-0.9,9-2.4,13.2-4c1.7-0.7,3.1-1.9,4.7-3
	C376.6,512.5,375.5,508.2,374.3,503.6z M348.2,451.3c-0.9,2.6-1.8,5-2.7,7.4c-0.6,1.6-1.2,3-0.3,4.9c0.7,1.3,0.4,3.1,0.6,4.7
	c0.2,1.9,0.3,3.9,0.6,6.4c3.1-4,5.8-7.5,8.7-10.9c2.9-3.5,5.9-6.8,9.1-10.5C358.5,453.2,353.3,453.5,348.2,451.3z M186,650.7
	c-2,2.2-3.1,5.7-7.3,5.4c0,1.9,0.1,3.5,0,5.2c-0.1,1.2,0.4,1.9,1.4,2.5c3.9,2.6,10.4,2.5,14.8-0.9c0.7-3.6,1.3-6.9,1.9-10.1
	C193.2,652.1,189.7,651.5,186,650.7z M326.1,636.2c0,0.2-0.1,0.3-0.1,0.5c1.5,0.8,2.9,1.6,4.4,2.3c4.2,1.8,8.4,3.6,12.5,5.4
	c0.8,0.3,1.7,0.7,2.2,1.4c0.8,1.2,1.8,1.1,2.9,0.8c2.6-0.6,5.1-1.2,7.7-1.8c2.2-0.4,3.5-2,5-3.7c-0.5-0.2-0.8-0.3-1.1-0.3
	c-5.1-0.3-9.8-1.9-14.6-3.5C338.9,635.2,332.5,635.4,326.1,636.2z M340.8,670.3c1.8,2.5,3.8,4.6,6,6.3c0.4,0.3,1.2,0.3,1.8,0.3
	c3.1-0.3,6.2-0.6,9.3-0.9c2.6-0.3,5.3-0.7,7.8-1.1c-1.4-3.3-2.7-6.4-4-9.7C354.9,666.9,348,668.6,340.8,670.3z M153.5,425
	c6.7-2.1,12.7-1.9,18.5,1.7c0.9-2,1.7-3.8,2.6-5.6c1.2-2.5,1-3.3-1.5-4.4c-0.7-0.3-1.5-0.6-2.3-0.7c-3-0.7-6-0.4-9,0.2
	c-2.8,0.5-5.7,1-8.3-0.7C153.5,418.5,153.5,421.6,153.5,425z M195.1,384.1c-1.5-0.9-3-2.1-4.7-2.6c-2.9-1-6-1.8-9-2.2
	c-5.8-0.9-11.6-0.7-17.4,0.8c-2.4,0.6-2.4,0.8-2.5,3.6c11.2-2,21.7-0.5,30.6,7.2C193,388.7,194,386.6,195.1,384.1z M357.6,647.9
	c0.6,1.2,1.3,2.6,2,3.9c0.7,1.3,1.4,2.7,2.2,4c0.7,1.3,1.4,2.5,2,3.8c0.6,1.4,1.1,2.8,1.7,4.2c0.6,1.3,0.3,2.9,1.6,3.9
	c0.2-0.2,0.3-0.2,0.3-0.2c0.1-0.2,0.2-0.4,0.2-0.7c0.4-2.7,1-5.5-1.4-7.8c0,0,0.1-0.2,0.2-0.3c0.5,0.4,1.1,0.8,2,1.4
	c0.1-2.5-0.1-4.7,0.2-6.8c0.3-1.9,0-3.6-0.9-5.3c-1.1-2.3-2.2-4.6-3.3-7c-0.6,0-1.3,0-1.5,0C361.1,643.4,359.5,645.5,357.6,647.9z
	 M421.3,309.1c0.5-4.9-1-10-4.1-13.9c-2.2-2.8-5.2-3.6-8.7-2.3c0.6,4.6,2.3,9.1,1.7,13.8C413.9,307.5,417.6,308.3,421.3,309.1z
	 M170.7,428.9c-5.3-3.3-10.8-4.2-16.9-3.1c0.4,3.5,1.1,6.7,2.7,9.7c1.4,2.7,3.2,3.3,5.9,1.8C166,435.4,168.7,432.6,170.7,428.9z
	 M201.8,641.7c1,0.6,2.1,1.1,3.2,1.7c0.6-1.5,1-2.8,1.5-4.1c0.1,0,0.3,0.1,0.4,0.1c-0.3,1.4-0.6,2.9-1,4.5c1.3,0.7,2.5,1.4,3.6,1.9
	c0.9-3.9,1.8-7.5,2.7-11.2c0.5-1.8,1.2-3.6,1.7-5.5c0.3-0.9,0.3-2,0.4-3.1c-0.5,0.1-0.8,0.1-0.9,0.3c-2.8,2.5-5.6,4.9-8.3,7.6
	C203.3,635.9,202,638.3,201.8,641.7z M476.2,474.5c0,0.1,0.1,0.3,0.1,0.4c1.2,0.2,2.3,0.4,3.5,0.6c5.7,0.9,11.2,2.5,16.1,5.6
	c1,0.6,2,1.2,3.1,1.8c0.8,0.4,1.6,0.6,2.3-0.2c-2.4-3.5-5.3-6.3-9-8.2c-2.1-1-4.3-1.7-6.3-2.8c-0.8-0.5-1.4-0.4-2.2-0.2
	c-2.2,0.7-4.4,1.5-6.5,2.3C476.9,474,476.6,474.3,476.2,474.5z M359.9,118.3c1-1,0.2-1.6-0.4-2.2c-1.9-2-4.3-2.9-6.9-3.5
	c-5.2-1.1-10.2,0-15,1.7c-2,0.7-3.9,2.6-4.5,4.1C341.8,115,350.8,115.2,359.9,118.3z M390.1,148c-2.4-10.7-2.4-21.2,1.6-31.9
	c-2.4,0.9-2.9,2.6-3.5,4.2c-2.1,6.8-2.5,13.8-2.3,20.9c0,1.2-0.1,2.7,1.6,3.1c0.2,0,0.4,0.4,0.3,0.5
	C387.4,146.7,389,147.2,390.1,148z M344.2,477.7c-0.1-4.6-0.3-8.8-0.4-13.1c-2,4.2-3.6,8.6-4.8,13.1
	C340.8,477.7,342.4,477.7,344.2,477.7z M365.2,666.9c-0.2,0.1-0.4,0.1-0.5,0.2c0.3,0.7,0.5,1.4,0.8,2.2c0.2-0.1,0.4-0.1,0.6-0.2
	C365.8,668.3,365.5,667.6,365.2,666.9z"/>
<path d="M438.3,214.1c-2.3,1.4-2.7,3.8-3.5,6.1c-0.8-1.2,0.2-2.2,0-3.5c-0.6,0-1.1,0.1-2.1,0.2C434.5,215.3,435.9,213.8,438.3,214.1
	z"/>
<path class="st0" d="M198.2,441.2c-0.9-4.4-0.8-9-1-13.6c-0.2,0-0.3,0-0.5,0c-0.2,1.7-0.4,3.5-0.5,5.2c-0.1,1.9-0.2,3.9,0,5.7
	c0.2,1.7,0.8,3.4,1.2,5.2c-0.2,0.1-0.3,0.1-0.5,0.2c-0.3-0.4-0.7-0.7-1-1.1c-3.2-4.1-6.5-8.1-9.6-12.3c-1.8-2.4-3.6-4.9-4.9-7.6
	c-1.9-3.9-1.2-7.8,1-11.4c2.8-4.6,5.7-9.1,8.4-13.7c1.8-3,3.5-6.1,5-9.3c1.4-2.9,3.3-5.3,5.6-7.5c2.6-2.4,5.6-3.6,9.1-3.6
	c1.1,0,2.2-0.2,3,0.9c0.3,0.3,1.3,0.2,2,0.1c2.9-0.7,5.7-1.4,8.6-2.1c1.5-0.4,2.9-0.1,4.3,1.2c-6.7,2.8-11.9,7.5-16.6,12.7
	c6-4,12-8,18.2-12.1c4,1.8,8.2,0.6,12.5,0.1c0.2,0.3,0.6,0.7,0.9,1.2c3.2,5.8,6,11.6,7.9,18c0.8,2.7,2.1,4.6,5.2,4.8
	c0,1.2,0.1,2.3,0,3.4c-0.1,2,0.2,3.8,1.2,5.5c0.7,1.2,1.2,2.4,1.8,3.7c0.8,1.7,2,2.7,3.9,2.7c2.2,0,4,0.9,5.9,1.9
	c1.5,0.9,3.1,1.5,5.1,2.4c0.4,1.8,0.9,4,1.5,6.2c1.1,4.4,2.7,8.7,5.3,12.5c0.4,0.6,0.8,1.2,1.3,1.7c1.5,1.6,3.1,1.2,3.7-1
	c0.3-1,0.3-2,0.5-3.1c4.8,3.4,4.9,3.5,7.8,0.7c0.6,0.5,1.1,1,1.7,1.5c2.1,1.9,4.6,1.6,6.2-0.7c0.5-0.8,0.9-1.7,1.3-2.5
	c0.4-0.9,0.7-1.8,1-2.7c1.1-0.2,1.4,0.4,1.8,1.2c0.7,1.5,1.4,3,2.2,4.5c0.5,0.9,1.2,1.8,2.4,1.6c1.2-0.2,1.8-1.1,2.1-2.1
	c0.3-1,0.5-2,0.5-3.1c0.3-4.1-0.3-8.1-1.2-12.1c-0.1-0.7-0.2-1.4-0.4-2c2.9,0.3,5.6,0.3,8.3,0.8c1.6,0.3,3.2,1,4.6,1.9
	c1.9,1.2,3.5,2.8,5.3,4.1c0.8,0.7,1.1,1.5,1,2.5c-0.1,4.9-0.8,9.8-3.2,14.1c-4.1,7.4-7.6,15.1-11.2,22.8c-2.8,6-6.6,11.5-10.6,16.8
	c-1.5,1.9-3.2,3.6-5.6,4.7c-0.3-0.7-0.7-1.3-1-1.9c-2.1-4.8-5.5-8.6-9.9-11.4c-3.9-2.6-8.1-4.4-12.6-5.9c-3-1-6-2.1-9-3.2
	c-1.6-0.6-3-1.4-4.5-2.2c-1.4-0.7-2.3-1.7-2.8-3.4c-1.2-4.5-2.7-9-4-13.6c-0.2-0.5-0.4-1-0.7-1.4c0.7,5,1.6,10,2.9,15.1
	c-0.7-0.5-1.4-0.9-2-1.4c-1.9-1.7-3.9-3.4-5.5-5.4c-7.3-9.3-17.4-13.8-28.6-16.3c-5.8-1.3-11.6-1.6-17.4-0.6
	C203.2,439.4,200.9,440.3,198.2,441.2z"/>
<path class="st0" d="M240.5,550.2c3.8,8.9,11.2,13.9,18.7,18.7c0.1-0.1,0.2-0.2,0.3-0.3c-1.3-1.2-2.6-2.3-3.8-3.5
	c-3.4-3.5-6.8-7-10.1-10.5c-1-1.1-1.8-2.5-2.6-3.8c-1.8-3-1.7-6-0.3-9.3c19.9,4.8,39.8,8.6,60.3,11c-0.2,0.6-0.3,1.2-0.5,1.8
	c-2.3,7.2-4.8,14.2-8.2,21c-2.9,5.9-6.7,11.3-10.8,16.4c-3.6,4.5-8.5,6.7-14.1,7.4c-1.6,0.2-3.4-0.3-4.8-0.9
	c-4.4-2-8.8-4.3-13.1-6.4c-0.4-0.2-0.8-0.4-1.4-0.2c1.4,1.2,2.7,2.4,4.3,3.7c-0.6,0.4-1.1,0.7-1.6,1c-5.2,3.3-10.4,6.6-15.5,10
	c-1.3,0.9-2.1,2.2-2.3,3.8c-0.5,3.7-2.8,5.7-6,7.1c-3.1,1.2-6.2,2.2-9.5,2c-1-0.1-2-0.5-2.8-1c-1.8-1.3-3.5-2.8-5.2-4.3
	c-3.7-3.4-7.4-6.8-11.3-10c1.8,3.5,4.6,6.1,7.2,8.9c2.7,2.9,5.5,5.5,8.4,8.3c-2.6,1.3-5.4,1.9-8.4,1.8c-1.5-0.1-2.8-0.6-4-1.5
	c-3.1-2.2-5.7-4.8-7.7-8.1c-3.2-5.2-6.4-10.3-8.5-16.1c-1.3-3.6-1-7-0.3-10.6c0.3-1.4,1.1-2.3,2.5-2.6c4.5-1.1,8.2-3.7,11.4-6.8
	c3.6-3.5,7.6-6.6,11.9-9.3c6.1-3.8,12.3-7.5,18.5-11.2c0.4-0.2,0.9-0.3,1.6-0.6c0.2,8.3,4,14.8,9.8,20.3c-0.7-1.2-1.4-2.4-2-3.7
	c-2.4-4.7-4.8-9.4-5.2-14.8c0-0.2-0.1-0.5-0.1-0.7c-0.3-3.9-0.1-4.2,3.4-5.9C239,550.8,239.6,550.6,240.5,550.2z"/>
<path class="st0" d="M213.9,252.4c0.6,0.2,1.1,0.3,1.6,0.5c2.8,1.3,5.8,1.8,8.9,1.7c9-0.3,17.9-0.8,26.8-1.1c9-0.3,17.8-2.1,26.5-4
	c0.4-0.1,0.8-0.1,1.2-0.2c1.9,2.7,3.8,5.4,5.7,8c0.7,0.9,1.4,1.8,2.2,2.5c3.4,2.6,6.1,5.9,8.6,9.3c1.9,2.6,4.2,4.5,7,6
	c2.5,1.4,4.9,2.9,7.4,4.5c2.2,1.5,4.5,2.5,7.3,1c1.4,2.6,2.2,5.4,2.8,8.2c1.1,6.3,1.6,12.5,0.4,18.8c-0.6,3.7-2.2,6.8-5.1,9.3
	c-1.6,1.4-3.4,2.7-5,4.1c-1.6,1.3-3.1,2.7-4.8,4.3c-0.2-1.5-0.4-2.6-0.5-3.8c-0.5-4.3-2.1-8.2-4.6-11.7c-4.6-6.5-10.1-11.9-17-15.9
	c-4.6-2.7-9.3-5.3-14-7.9c-4.5-2.5-9.4-3.6-14.7-2.8c-0.8-1.2-1.8-2.4-2.5-3.7c-0.3-0.6-0.5-1.4-0.3-2c0.6-2.4,1.4-4.8,2.1-7.1
	c0.6-1.9,1.8-3.1,3.6-3.9c2.8-1.3,5.7-1.7,8.9-1.5c6.2,0.3,12.5,0.4,18.7,0.5c0.9,0,1.7-0.4,2.6-0.6c0-0.2,0-0.4-0.1-0.6
	c-0.7-0.1-1.3-0.3-2-0.3c-3.5-0.2-7-0.4-10.5-0.6c-2.7-0.2-5.4-0.2-8.1-0.5c-3.8-0.3-7.3,0.1-10.7,1.8c-2,1-3.5,2.5-4.2,4.7
	c-0.8,2.5-1.6,5-2.3,7.6c-0.4,1.5-0.1,2.8,0.7,4.1c0.6,0.8,1.2,1.7,1.8,2.7c-3.4,1.4-6.3,3.2-8.9,5.5c-3.2,2.8-5.1,6.3-6.1,10.4
	c-1.2,4.6-2.2,9.3-3.1,14c-1.6,8.1-3,16.2-4.6,24.3c-0.6,3.3-0.4,6.4,1.9,9.5c-1-0.3-1.7-0.5-2.3-0.6c-1.1-0.3-1.7-0.9-1.9-2.2
	c-0.6-3.9-1.3-7.7-2.1-11.6c-0.7-3.1-1.3-6.3-2.4-9.3c-2.1-5.6-4.4-11.2-7-16.6c-3.1-6.5-4.5-13.3-3.7-20.5c0.3-2.4,0.4-4.8,0.7-7.2
	c1-8.8,1.8-17.7,0.8-26.6C213.7,252.8,213.8,252.8,213.9,252.4z"/>
<path class="st0" d="M300.9,493.1c0.7-0.6,1.1-1,1.7-1.3c2.5-1.5,4.5-3.6,6.2-5.9c4.7-6.5,8.9-13.2,12.2-20.6
	c2.3-5.3,4.9-10.4,7.6-15.5c2.9-5.3,4.7-10.8,4.8-16.9c0-1.7,0.2-3.4,0-5.2c-0.4-3.1,0.2-6.1,1.6-8.9c1.6-3.2,3.2-6.3,4.8-9.4
	c5.6-10.9,10.7-22,14.3-33.7c1.7-5.6,2.7-11.3,3.9-17.1c1.7-8,3.3-16,4.7-24c0.6-3.4,0.9-6.8,1.4-10.1c0.1-0.8,0.2-1.5,0.5-2.4
	c1.7,3.6,2,7.5,3.5,11.1c-0.2-4.7-0.4-9.4-1.8-13.9c-2.3-7.2-4.6-14.5-7.2-21.6c-2.5-6.9-6-13.4-10.4-19.4
	c-3.9-5.5-7.1-11.4-10.2-17.4c-1.8-3.4-3.7-6.7-5.6-10c-0.3-0.6-0.7-1.2-1.1-1.9c4.4-4.6,10-5.7,16-6.3c0.2,1.1,0.4,2.1,0.7,3
	c1.2,3.5,2.4,7.1,3.9,10.6c6,14.1,12.1,28.2,17.1,42.7c2,5.7,3.7,11.6,5,17.5c1.7,7.3,1.4,14.8,0.9,22.2
	c-1.1,18.3-4.2,36.2-8.9,53.9c-4.4,16.6-10.2,32.6-16.2,48.7c-5.8,15.8-11.7,31.6-16.6,47.8c-0.8,2.5-1.8,5-2.8,7.4
	c-1.5,3.6-4.2,6.4-7,9.1c-1.9,1.8-4.2,2.2-6.6,1c-0.7-0.3-1.5-0.6-2.2-1C309.9,502.3,305.4,498,300.9,493.1z"/>
<path class="st0" d="M364.7,589.6c2-1.6,4-3.2,6.1-4.9c-1.6,12.1-3.1,24.1-4.7,36.5c-4.4-2.9-8.6-5.7-12.8-8.5
	c-0.1,0.1-0.2,0.2-0.2,0.3c0.7,0.7,1.3,1.5,2.1,2.2c2.5,2.3,5,4.7,7.7,6.9c1.5,1.2,3.2,2.1,4.9,2.9c1.5,0.7,2.3,1.8,2.6,3.4
	c0.4,2.2,0.1,4.3-0.6,6.4c-0.7,2.3-2.2,3.4-4.6,3.5c-4.9,0.3-9.7-0.2-14.5-1.6c-0.3-0.1-0.6-0.2-0.9-0.3c-10.4-4.2-20.9-3.8-31.5-1
	c-2.2,0.6-4.5,1.1-6.5,1.7c-0.3-0.3-0.6-0.4-0.6-0.5c0-4.3-0.1-8.6-0.1-12.9c0-1.9,0.9-3.5,2-5c1.7-2.3,3.2-4.7,5-7.3
	c1.4,2.3,3.1,4.1,6.2,5c-0.4-0.7-0.6-1.2-0.9-1.6c-3.7-5.1-5.1-10.9-5.2-17.1c0-5.2,0.9-10.3,1.7-15.5c0.5-2.9,0.7-5.7-0.1-8.6
	c-0.1-0.4,0-0.8,0-1.6c6.8,6,14.1,10.7,22.3,13.8c-0.4-0.3-0.7-0.7-1.1-0.9c-3.8-2.7-7.7-5.4-11.5-8.2c-4.4-3.3-8.7-6.9-13.3-9.9
	c-5-3.3-6.4-7.7-5.6-13.4c0.6,0,1.3,0,2,0c12.2,0.5,24.4,1.2,36.7,1.5c8,0.2,15.8-0.9,23.4-3.2c0.7-0.2,1.3-0.3,2.4-0.5
	c-2.4,5.7-6,10.5-6.4,16.7c1.4-2.3,2.8-4.5,4.2-6.9c2,6.7,2.1,13.1-1.9,19.1c-2.2,3.2-4.5,6.4-6.8,9.5
	C364.5,589.3,364.6,589.5,364.7,589.6z"/>
<path class="st0" d="M378.3,519.9c1.9,8.6,3.8,16.9,5.7,25.1c-0.3,0.3-0.4,0.5-0.5,0.6c-5.6,1.6-11.2,3.3-16.8,4.7
	c-7.6,1.9-15.4,1.9-23.1,1.6c-14.5-0.5-29.1-1.1-43.6-2.7c-9-1-18-2.7-27-4.2c-11.5-1.9-22.9-4.3-34.1-7.7
	c-5.9-1.8-11.7-3.9-17.4-6.2c-7.7-3.1-15.3-6.5-22.4-11c-0.4-0.3-0.8-0.5-1.2-0.7c-3.9-2.4-4.3-3.6-2.5-7.9c1.6-4,4.3-7.3,7.1-10.7
	c0.9,0.6,1.8,1,2.7,1.6c3.1,2.2,6.5,3.7,10.2,4.6c7.1,1.7,14.4,3.1,21.5,4.9c8.8,2.1,17.6,4.2,26.2,6.9c9,2.7,17.7,6.3,26.7,9.2
	c11.7,3.7,23.7,6.1,36.1,5.6c7-0.3,13.8-1.6,20.6-3.1c3.6-0.8,7.2-1.3,10.7-2.3c5.9-1.8,11.7-3.8,17.5-5.8
	C375.8,521.8,376.9,520.8,378.3,519.9z"/>
<path class="st0" d="M366,451c-2.2,0-4.1,0.1-6,0c-3-0.1-6.1-0.3-9.1-0.5c-0.6,0-1.2-0.3-2-0.5c0.1-0.7,0.2-1.2,0.4-1.7
	c4.8-13.4,9.7-26.7,14.4-40.2c3.4-9.7,5.8-19.8,8-29.8c2.6-11.9,4.6-23.9,5.5-36c0.7-8.9,1.2-17.8-0.8-26.5
	c-1.3-5.8-3.1-11.6-5-17.3c-1.7-5.2-3.8-10.2-5.7-15.3c-0.2-0.6-0.4-1.2-0.7-1.9c2.2,0.4,3.3,1.9,4.1,3.6c2.2,4.7,5.1,9.1,8.6,13
	c7.2,8,15.5,14.2,26,17.3c1,0.3,1.9,0.7,3,1.1c-0.1,1.2-0.2,2.3-0.2,3.4c0,5.3-0.2,10.6,0.1,15.8c0.2,5.2-0.4,10.2-1.8,15.2
	c-1.9,6.4-3.1,12.9-3.6,19.5c-0.1,1.4-0.8,2.9-1.6,4.2c-2.6,4.1-5.4,8.1-8.1,12.2c-2,3-2.7,6.4-2.7,10c0.8-1.6,1.7-3.3,2.5-4.9
	c0.1,0.1,0.3,0.1,0.4,0.2c-0.3,2.4-0.7,4.7-0.9,7.1c-0.4,4.7-0.5,9.4-1,14.1c-0.3,3.8-0.7,7.6-1.5,11.4c-1.1,5.2-3.7,9.7-7.3,13.5
	c-1.3,1.3-2.7,2.5-4.3,3.4C371.8,443.7,367.7,446.3,366,451z"/>
<path class="st0" d="M340.3,199.9c1.3-0.6,2.1-1,2.9-1.4c6.6-2.8,13.5-4.6,20.4-6c12.1-2.5,24-5.9,35.9-9.7
	c8.9-2.8,17.8-5.7,26.4-9.4c2.3-1,4.6-2.2,6.9-3.3c4.5-2.1,9-4.2,13.5-6.3c0.6-0.3,1.4-0.7,1.8-0.4c1.1,0.6,1.8-0.2,2.8-0.7
	c0.4,0.8,0.7,1.5,1,2.2c3.2,8.4,5,17.2,6.4,26c0.4,2.5-0.6,4.5-1.6,6.6c-0.2,0.4-0.7,0.7-1.1,0.9c-0.6,0.3-1.1,0.6-1.8,0.8
	c-7.4,2.3-14,6.1-20.3,10.6c-6,4.3-12.5,7.5-19.8,8.9c-4.7,0.9-9.5,1.1-14.3,1.7c-3.1,0.4-6.2,1-9.2,1.3c-1.8,0.2-3.7,0.2-5.5,0.1
	c-0.5,0-1-0.5-1.4-0.8c-7.6-6.5-16.2-11.4-25.7-14.6c-5.1-1.7-10-3.7-15-5.6C342.1,200.7,341.4,200.4,340.3,199.9z"/>
<path class="st0" d="M310.9,377.7c-1.4-2.7-2.9-5.1-3.9-7.7c-1.3-3.5-3.9-4.8-7.4-5.1c-3.3-0.3-6.5-0.7-9.8-1
	c-0.9-0.1-2.1-0.1-1.6-2.1c-1.5,1-2.7,1.7-3.8,2.4c-5.2,3.6-10.2,7.4-15.6,10.7c-4.3,2.6-9.1,4.6-14.3,5.3c3.1,4.7,3.1,9.7,1.7,14.8
	c-0.3,1.3-0.9,2.5-1.4,3.9c-1-0.2-1.1-1-1.3-1.6c-2.3-7.9-6-15.1-10-22.2c-1.6-2.9-3.1-6-4.6-8.9c-3-5.6-4.6-11.7-5.8-17.9
	c-0.1-0.5-0.2-1-0.1-1.4c1.3-4.6,2.7-9.2,3.9-13.8c0.7-2.6,2.2-4.1,4.7-4.9c7.1-2.1,14.2-3.7,21.6-4.4c4.2-0.4,8.5-0.8,12.7-0.6
	c10,0.5,18.5,4.6,25.5,11.8c1.1,1.2,1.6,2.5,1.6,4.1c0.2,7.3,2,14,5.8,20.2c1.6,2.6,2.8,5.4,3.8,8.2
	C314.1,371.1,313,374.4,310.9,377.7z"/>
<path class="st0" d="M412.7,291c-1.2,0-2.3,0.3-3.5,0.1c-6-1-11.9-2.2-17.9-3.2c-9.2-1.7-17.9-4.7-26.3-8.7c-1-0.5-1.7-1.1-2.1-2.1
	c-3.7-9.2-7.5-18.3-11.3-27.5c-1.3-3.1-1.8-6.3-2.1-9.6c-0.4-4.3-1-8.6-1.4-12.9c0-0.3,0-0.6,0-1.2c2.5,0.7,4.6,1.8,6.7,3
	c2.9,1.5,5.7,3.2,8.6,4.8c4.8,2.7,9.3,5.7,13.4,9.2c6.4,5.4,13.6,9.6,21,13.3c4.7,2.3,9.3,4.6,14,6.9c2.1,1,4.1,2.1,6.3,2.8
	c4.6,1.4,8.4,4.3,12.1,7.2c2.1,1.7,3.4,3.8,4.2,6.3c2.4,7.2,3.4,14.6,3.1,22.2c0,1.1-0.1,2.3-0.5,3.3c-1.6,4.5-3.3,8.9-5,13.5
	c-2.9-2.8-5.6-5.4-8.4-8.2c0.8-4.1,0.2-8.3-1.9-12.2c-1.3-2.4-2.9-4.8-4.8-6.8c-9.4-9.8-19-19.5-28.5-29.2c-0.3-0.3-0.7-0.6-1.2-0.7
	c3.6,5.4,8.1,10.2,12.3,15.1c4.2,4.8,8.8,9.4,13.2,14C412.8,290.6,412.8,290.8,412.7,291z"/>
<path class="st0" d="M435,485.3c1.1-7,0.6-13.7,0.6-20.4c0-4.7-0.6-9.3-2-13.7c-1.3-4.1-2.7-8.2-4.3-12.2c-0.8-2.2-2.1-4.2-4.2-5.2
	c0.4-3.8,0.8-7.5,1.2-11.3c0.2-1.8,0.6-3.2,2.6-3.7c0.9-0.3,1.7-1.2,2.4-1.9c3-2.9,5.9-5.8,8.8-8.9c1.1-1.2,2-1.4,3.3-0.8
	c0.6,0.3,1.4,0.5,1.9,1c5,4.8,10.4,9.1,14.3,14.8c1.9,2.8,3.7,5.8,5.4,8.8c2.9,5,5.6,10.1,8.6,14.9c2,3.2,2.1,6,0.6,9.5
	c-4,8.9-10.1,16.1-17.8,21.9c-5.4,4.1-11.7,6.6-18.5,7.3C437.1,485.4,436.2,485.3,435,485.3z"/>
<path class="st0" d="M432.7,143.6c6.2,5.1,10.1,11.5,14.4,17.8c-1.4,0.6-2.6,1.1-3.9,1.6c-2.6,1.1-5.2,2-7.7,3.4
	c-8.8,4.9-18.1,8.5-27.6,11.6c-12.7,4.1-25.4,8.1-38.4,11.1c-4.5,1-9.1,2-13.6,3c-6.1,1.5-12,3.4-17.4,6.5c-0.4,0.2-0.9,0.3-1.5,0.5
	c-1.9-9-1.5-17.9-0.8-26.8c3.1,0.3,6.1,0.6,9.1,0.9c10,1.1,19.8-0.2,29.3-3.5c10.1-3.5,20.2-7,30.3-10.6c5-1.8,9.6-4.3,14.1-7.1
	C423.4,149.1,428.1,146.4,432.7,143.6z"/>
<path class="st0" d="M403.1,256c-7.9-3.8-15.6-7.7-22.4-13.1c-7.8-6.2-16.2-11.4-25.2-15.7c-2.7-1.3-5.3-2.6-7.9-4
	c-0.4-0.2-0.8-0.8-1-1.2c-1.4-3.4-4.1-5.2-7.5-5.7c-3.7-0.6-7.4-0.9-11.2-1.1c-5.7-0.3-11.3,0.2-16.9,1.6c-1.2,0.3-2.6,0.5-3.6,1.2
	c-2.3,1.7-4.9,1.9-7.5,2c-10.8,0.4-21.4,2.6-32,4.3c-5.1,0.8-10.3,1.4-15.4,2.1c-0.1,0-0.3-0.1-0.7-0.2c0.9-0.9,1.7-1.8,2.6-2.6
	c5.6-4.9,12.1-8.4,19.2-10.4c12.9-3.6,25.7-7.6,39-10.1c6.8-1.3,13.6-2,20.5-2.1c2,0,4.2,0.3,6.1,1c7.5,2.7,15,5.5,22.4,8.4
	c8.4,3.2,15.7,8.1,22.3,14.2c1.5,1.4,2.8,3.1,4,4.8c3.7,5.2,7.1,10.6,10.9,15.8c2.2,3.1,3.5,6.5,4.4,10
	C403.3,255.3,403.2,255.6,403.1,256z"/>
<path class="st0" d="M312.6,321.8c2.1,3.6,5.4,3.6,8.9,3.3c-0.2,1.4-0.4,2.6-0.5,3.8c0.1,0,0.2,0.1,0.3,0.1c0.4-1.3,0.8-2.5,1.3-4
	c2.9-0.4,5.8-1,8.9-1.2c7.4-0.5,14.7,0,21.9,1.9c2.3,0.6,4.5,1.6,6.6,2.7c1.9,0.9,1.9,1.1,1.5,3.2c-1.6,7.7-3.2,15.5-4.8,23.2
	c-1.3,6.3-2.7,12.7-4.1,19c-0.2,0.8-0.5,1.6-0.9,2.8c-2-2.7-4.1-4.8-6.6-6.5c-5.9-4-12.4-6.2-19.3-7.4c-3.9-0.7-7.7-1.3-11.6-1.9
	c-1.7-0.3-2.6-1.2-3.4-2.6c-3.2-5.9-4.9-12.1-5.2-18.8c-0.1-1.3-0.4-2.5-0.6-3.8c-0.1-0.8-0.1-1.6,0-2.3c0.2-1.7,0-3.6,0.8-4.9
	c1-1.7,2.8-3,4.3-4.4C310.7,323.2,311.5,322.7,312.6,321.8z"/>
<path class="st0" d="M314,264.6c3.6-1.6,6.9-3.2,10.4-4.6c2.6-1,5.3-1.8,8-2.6c1.7-0.5,1.8-0.5,2.6,1.1c2,3.8,3.8,7.6,5.9,11.3
	c1.7,3.1,3.6,6.1,5.6,8.9c4.8,6.8,8.7,14,11.4,21.8c1.6,4.6,3.2,9.2,4.8,13.8c0.6,1.6,0.8,3.2,0.5,4.9c-0.4,2.5-0.6,5-0.9,7.5
	c-0.4,0-0.6,0.1-0.7,0c-5.5-3.2-11.7-4.2-17.9-4.9c-6.5-0.7-12.9-0.4-19.3,0.7c-1.6,0.3-3.3,0.4-5,0.5c-2.1,0.2-4-0.2-5.5-2.1
	c0.5-0.5,1-1,1.6-1.4c4.1-3.2,6.5-7.4,7.2-12.6c1.1-7.8,0.2-15.3-2.3-22.7c-0.5-1.5-1.8-2.8-2.1-4.3c-0.3-1.5,0.2-3.1,0.2-4.7
	C318.1,270.8,317.6,269.7,314,264.6z"/>
<path class="st0" d="M403.1,512.8c-0.4-4.7-0.9-9.1-1.2-13.6c-0.4-6.1-1.2-12.1-2.7-18c-0.7-3.1-1.1-6.3-1.2-9.5
	c-0.3-7.9,0.7-15.6,3.2-23.2c0.3-1,0.8-1.7,1.7-2.1c2.1-0.8,4.1-1.8,6.2-2.5c2.9-1,5.5-2.6,7.8-4.6c1.4-1.2,2.9-2.3,4.4-3.3
	c1.8-1.1,2.9-0.8,4.1,0.9c0.9,1.2,1.6,2.6,2.2,4c3.8,9.1,6.1,18.5,5.7,28.4c-0.2,4.1-0.2,8.1-0.4,12.2c0,1.1,0.1,2.4-1.1,3.2
	c-0.2,0.1-0.1,0.7-0.1,1.1c-0.1,0.8,0,1.8-0.5,2.5c-4.5,6.3-8.7,12.9-15.3,17.4c-3.8,2.6-8.1,4.6-12.1,6.8
	C403.8,512.7,403.6,512.7,403.1,512.8z"/>
<path class="st0" d="M232.3,344.2c-1.1-1.8-1-3.5-0.7-5.1c0.5-3,1.2-6,1.8-8.9c1.3-7.1,2.5-14.2,3.9-21.2c0.5-2.7,1.3-5.3,1.9-7.9
	c1.3-6,5-10.2,9.7-13.8c4.3-3.3,8.9-3.4,13.8-2c1.7,0.5,3.4,1.1,4.9,2c5.8,3.3,11.5,6.6,17.2,10c6,3.6,10.5,8.8,14.5,14.5
	c1.9,2.7,3.1,5.6,3.6,8.8c0.6,3.9,1.1,7.7,0.1,11.9c-0.4-0.2-0.9-0.4-1.2-0.7c-9.1-7.8-19.6-11.5-31.6-10.7
	c-9.2,0.6-18.3,2-27.1,4.6c-0.7,0.2-1.4,0.4-2.1,0.6c-3.2,0.9-5.2,3-5.9,6.3c-0.7,3.1-1.4,6.2-2.1,9.4
	C232.8,342.6,232.6,343.2,232.3,344.2z"/>
<path class="st0" d="M331.3,426.6c-2.7-1.5-5.2-2.8-7.8-4.2c0.1-0.2,0.3-0.4,0.5-0.7c0.8-1.5,0.7-2.4-0.6-3.6
	c-1.1-0.9-2.3-1.7-3.5-2.6c-2.8-2-5.2-4.5-7.2-7.3c-0.8-1.1-1.4-2.2-0.9-3.9c0.5-1.8-0.1-3.8-1.1-5.5c-1.1-1.9-2-4-3.2-5.9
	c-1.8-3-0.7-5.4,0.9-8c1.8-2.8,4.1-5.2,5.6-8.3c1.8-3.8,1.9-7.5,0.3-11.4c-0.4-1-0.8-2-1.3-3.4c1.8,0.4,3.2,0.8,4.7,1.1
	c4.9,1.1,9.9,2,14.7,3.4c3,0.9,5.9,2.3,8.8,3.7c2.7,1.4,5,3.4,7,5.8c0.8,1,1.7,1.8,2.8,2.9c-0.6,1.7-1.3,3.7-2.1,5.6
	c-4,9.6-8,19.2-13.2,28.2c-0.4,0.8-0.8,1.6-1.2,2.3C332.6,418.6,331,422.2,331.3,426.6z"/>
<path class="st0" d="M156.3,597.3c5.3,0.3,9.8-1.3,13.9-4.7c3.7-3.1,7.6-5.8,10.7-9.6c1.5-1.8,2.3-1.6,4.1,0.2
	c-0.3,1.1-0.7,2.3-1,3.4c-1.1,4.4-0.5,8.7,1.3,12.9c3.1,7.4,7.4,14.1,12.2,20.3c-1,2.5-2.1,4.9-3,7.4c-2.8,7.9-6.1,15.6-10.9,22.6
	c-0.9,1.4-2,2.6-3,3.9c-1.9-0.7-2.7-2.2-3.5-3.5c-0.3-0.4,0.1-1.3,0.4-2c1.4-4,2.8-8,4-12c-2.2,4-3.5,8.3-5.2,12.7
	c-1.7-1.4-2.5-3.2-3.4-5c-0.2-0.4,0.1-1.2,0.3-1.8c0.9-2.1,1.8-4.3,2.7-6.4c0.3-0.8,0.6-1.6,0.7-2.5c-2,2.7-2.9,6-4.7,9.2
	c-0.7-1.4-1.4-2.5-1.9-3.8c-0.8-2-1.4-4.1-2.1-6.1c-0.4-1-0.1-1.8,0.6-2.6c2.2-2.6,4.3-5.3,6.5-8.1c-1.2,0.4-1.2,0.4-2.9,2.2
	c-0.8,0.9-1.6,1.8-2.4,2.6c-0.8,0.9-1.7,1.9-2.5,2.8c-2.2-3.7-4.3-7.2-6.2-10.4c2.4-2.9,4.9-5.7,7.3-8.7c-1.4,1.1-2.9,2.2-4.2,3.4
	c-1.4,1.2-2.7,2.5-4,3.7c-1.8-1.6-3.1-4-4.2-7.9c3.8-2.3,7.7-4.6,11.5-6.9c-0.1-0.2-0.2-0.3-0.3-0.5c-3.9,1.8-8,3.3-11.6,6.4
	c-0.3-1-0.6-1.8-0.7-2.6c-0.1-2-0.1-4,0-6C154.7,598.8,155.2,597.9,156.3,597.3C156.3,597.3,156.3,597.3,156.3,597.3z"/>
<path class="st0" d="M406.9,126.7c0.9,0.8,1.2,1.1,1.7,1.4c2.6,1.8,5.1,3.8,7.8,5.5c4.2,2.5,8.5,4.8,12.7,7.2c0.7,0.4,1.4,1,2.2,1.6
	c-0.2,0.3-0.3,0.5-0.5,0.6c-5.7,3.5-11.4,7.1-17.3,10.4c-3.2,1.8-6.7,3.5-10.2,4.8c-11.4,4.2-22.8,8.3-34.6,11.3
	c-10.1,2.6-20.2,2.7-30.5,1.5c-0.6-0.1-1.2-0.3-1.9-0.4c0.1-9,3.1-16.8,8.8-23.7c13.5,4.8,27,4.9,40.7,0.4c1.7,1.5,3.6,3.1,5.5,4.7
	c1.9,1.6,4.2,2.6,6.7,3c2.4,0.4,4.5-0.2,5.9-2.3c1-1.6,1.9-3.4,2.4-5.2c1.5-5.8,1.9-11.7,1.1-17.6
	C407.2,129.1,407.1,128.1,406.9,126.7z"/>
<path class="st0" d="M330.1,230.6c-1,0.2-1.3,0.4-1.7,0.4c-8.6,0.4-17,1.8-25.4,3.6c-10.9,2.3-21.8,4-32.9,5.1
	c-8.1,0.8-16.1,2.4-24,4.6c-8.8,2.4-17.7,3.6-26.8,3.3c-1.2,0-2.3,0-4,0c0.6-0.3,0.8-0.5,1-0.6c4.2-1.8,7.9-4.5,11.5-7.3
	c8.3-6.1,17.4-10.3,27.7-11.8c11.9-1.7,23.8-3.6,35.8-5.3c4.3-0.6,8.6-0.6,12.9-0.9c0.9,0,1.8,0.1,2.6,0.3c6.9,1.6,13.5,3.9,20,6.6
	C327.9,229.1,328.7,229.8,330.1,230.6z"/>
<path class="st0" d="M272.9,418.8c-1.3-0.7-2.2-1.2-3.1-1.7c-1.7-1-3.6-1.8-5.6-1.8c-1.5,0-2.4-0.7-2.9-2.1
	c-0.4-1.1-1.1-2.1-1.5-3.3c-0.5-1.3-0.9-2.7-1.2-4.1c-0.4-1.9-0.6-3.9-0.9-6c1.8-2.9,3.8-6,5.8-9.1c2.3-3.7,5.3-6.4,9.3-8.4
	c6.4-3.3,13.3-5,20.3-6.4c1.3-0.3,2.7-0.5,4-0.7c3.2-0.6,6.2-0.1,8.9,1.8c1.3,0.9,2.7,1.7,4.2,2.6c-1.1,2.6-3.6,4.1-5.1,6.7
	c-3.4-2.2-7-2.6-10.8-2.2c-6.1,0.7-11.9,2.6-16.9,6.2c-4.3,3.1-7,7.6-9.1,12.4c0,0.1,0.1,0.3,0.1,0.5c1.7-2,3.3-4.1,5-6.1
	c4.5-5.3,10.5-8.2,17-10.1c3.5-1,7.1-1.3,10.7-0.4c1.2,0.3,2.3,0.7,3.5,1c0.3,4.5,2.3,8.3,4.2,12.3c-2.6,0.4-4.9,0.5-7.1,1.1
	c-3.5,0.9-6.8,2.2-10.2,3.3c-4.4,1.5-8.7,3.1-13.1,4.6c-0.8,0.3-1.5,0.5-2.3,0.8c-1.5,0.5-2.3,1.6-2.4,3.2c0,1-0.1,2.1-0.3,3.1
	C273.2,416.9,273.1,417.7,272.9,418.8z"/>
<path class="st0" d="M152.2,604.4c0.6,2.2,0.9,4,1.4,5.6c1.3,4.7,3.8,8.8,6.6,12.7c2.3,3.2,4.1,6.7,5.1,10.5
	c2.1,7.7,6.2,14.3,11.2,20.4c0.8,1,1.3,1.8,0.9,3.2c-0.5,1.6-0.6,3.3-1,5.1c-2.9,0.1-5.3,1.3-7.1,3.5c-1,1.2-1.7,2.6-2.5,4
	c-1,1.9-1.9,3.9-2.9,5.7c-0.5,0.9-1.3,1.5-2.1,2.3c-3.8-3.9-6-8.4-7.1-13.4c-1.1-5.2-2-10.5-3.2-15.7c-0.9-3.7-2.2-7.3-3.3-11
	c-1.8-5.8-3.5-11.6-5.3-17.4c-0.7-2.4-0.8-4.9-0.2-7.4c0.4-2,1.3-3.7,3-4.7C147.7,606.6,149.9,605.6,152.2,604.4z"/>
<path class="st0" d="M341.1,528.7c-2.7,0.5-5.3,1-7.9,1.4c-10.3,1.6-20.5,0.6-30.7-1.6c-6.5-1.4-12.9-3.1-19.1-5.5
	c-0.7-0.3-1.4-0.6-2.3-1c0.4-0.5,0.6-0.8,0.9-1c6.9-5.3,13.1-11.2,18.5-18c1.3-1.7,1.4-1.6,3.4-0.9c0.9,0.3,1.8,0.8,2.7,0.9
	c2.2,0,3.7,1.2,5.4,2.3c1.8,1.2,3.9,2.2,5.9,3.1c2.6,1.1,4.9,0.4,6.8-1.6c1.2-1.2,2.3-1.7,4-1.3c1.8,0.4,2.9,1.2,3.6,3
	c2.6,6.3,5.4,12.4,8.2,18.6C340.7,527.6,340.8,528.1,341.1,528.7z"/>
<path class="st0" d="M327.1,661.3c-1,4.5-1.7,9-2.3,13.9c-2.7-1-5.3-1.9-8.1-2.9c0.9-3.9,1.8-7.7,2.7-11.6c-0.2,0-0.3-0.1-0.5-0.1
	c-1.4,3.6-1.9,7.6-3.1,11.2c-0.2,0.1-0.3,0.2-0.3,0.2c-5.9-1.1-4.9-0.5-4.7-5.7c0.1-2.1,0.3-4.1,0.2-6.2c-1,1.5-1.1,3.3-1.5,5
	c-0.3,1.7-0.5,3.5-0.7,5.5c-1-0.2-1.9-0.4-2.8-0.7c-1.4-0.4-2.1-1.4-2-2.9c0.2-1.9,0.4-3.8,0.7-5.7c1.3-6.7,2.6-13.3,4-20
	c0.1-0.7,0.4-1.4,0.5-1.7c2-0.3,3.8-0.4,5.6-0.8c2.3-0.5,4.6-1.2,7-1.8c0.8-0.2,1.7-0.2,2.4,0c2.4,1.6,4.7,3.3,7.2,4.6
	c3.1,1.7,6.3,3.1,9.5,4.7c0.7,0.3,1.4,0.7,1.9,1c-2,5.5-4.2,10.7-6,16.1c-1.8,5.4-1.5,11.2-1.5,16.8c-1.8-0.2-7-2.7-9.7-4.7
	c0.7-4.7,1.4-9.4,2-14.1C327.5,661.4,327.3,661.3,327.1,661.3z"/>
<path class="st0" d="M207.8,450.3c-0.4,0.8-0.7,1.7-1.1,2.6c-1.3-1.5-1.2-2.5,0.4-3c1-0.3,2.2-0.5,3.3-0.5c5.9,0,11.8,0.8,17.6,2.2
	c4.4,1.1,8.5,3,11.9,5.9c5.2,4.4,11.1,7.8,17.2,10.8c7.6,3.7,15.2,7.5,22.7,11.3c2.1,1,4,2.3,5.8,3.8c-2.3-0.6-4.5-1.3-6.8-1.8
	c-9.6-2.2-19.3-3.5-29.1-4.4c-8-0.7-16.1-1.3-24-3.2c-5.8-1.3-10.5-4.6-15.3-7.8c-0.4-0.3-0.8-0.8-0.9-1.3c-0.5-2.5-1-5-1.3-7.6
	c-0.2-1.8,0.1-3.6,0.1-5.4c0-0.5,0-1.1,0-1.6C208.2,450.4,208,450.4,207.8,450.3z"/>
<path class="st0" d="M389.3,498.2c-3.9-5.6-6.6-11.8-7.5-18.7c-1-7.5-1.6-15.1-1.1-22.7c0.4-5.5,1.7-10.9,3.2-16.2
	c0.7-2.6,1.7-5.1,3.1-7.5c3.5-5.8,4.5-12.2,4.8-18.9c0.3-7,0.6-14,0.9-21.1c0.1-1.5,0.3-3,0.5-4.5c0.2-0.9,0.3-1.9,0.8-2.7
	c2.3-3.5,4.7-7,7.3-10.9c0.3,3.1,0.7,5.7,0.8,8.4c0.1,3.7,0.1,7.5-0.2,11.2c-0.9,11.2-2.9,22.2-5.7,33c-1.1,4.2-1.5,8.5-1.5,12.8
	c0,4.9-0.6,9.7-1.9,14.4c-1.4,5.3-1.9,10.7-1.9,16.1c0,5.5,0.1,11,0,16.5c-0.1,3.5-0.6,7-1,10.4
	C389.7,498.2,389.5,498.2,389.3,498.2z"/>
<path class="st0" d="M311.7,420.4c-0.4-1.1-0.8-2.1-1.2-3.1c-0.1-0.3-0.3-0.6-0.5-1c-1.4,1.4-0.8,2.7-0.6,3.9
	c0.7,3.8,1.6,7.5,2.1,11.3c0.3,2.3-0.1,4.8-0.2,7.1c0,0.3-0.3,0.7-0.6,1.3c-0.6-0.8-1-1.3-1.4-1.9c-1.2-1.8-2.5-3.5-3.6-5.4
	c-0.4-0.7-0.5-1.6-0.7-2.4c-0.4-2.6-0.6-5.2-1-7.8c-0.2-1.1-0.6-2.1-1.9-2.7c-0.8,1.1-0.3,2.2-0.1,3.2c1,4.3,1.3,8.5-0.1,12.8
	c-0.4,1.1-0.9,2.2-1.6,3.2c-0.8,1.2-1.6,1.2-2.9,0.6c-2-1-2.4-1.9-1.9-4c0.8-3.6,0.1-7.2-1-10.6c-0.2-0.6-0.8-1-1.2-1.5
	c-0.2,0.1-0.4,0.1-0.6,0.2c0,0.8-0.1,1.6,0,2.4c0.3,1.7,0.7,3.3,1.1,4.9c0.4,2.3,0,4.5-1,6.5c-0.8,1.9-1.8,2.1-3.4,1
	c-1.8-1.2-3.1-2.7-3.2-5c-0.1-2-0.6-3.9-0.9-5.9c-0.1-0.8-0.2-1.6-1.2-2c-0.7,1-0.3,2-0.2,3c0.2,3.3,0.4,6.5,0.6,9.8
	c0,0.8-0.1,1.5-0.2,2.3c-0.2,0.1-0.4,0.3-0.6,0.4c-0.2-0.4-0.4-0.9-0.6-1.2c-2.1-3.1-3.8-6.4-5-10c-0.9-2.7-1.9-5.4-2.8-8.1
	c-0.2-0.7-0.2-1.5-0.2-2.3c0.1-1.5,0.5-3,0.6-4.5c0.2-2.7,0.2-2.7,2.9-3.6c4.8-1.6,9.5-3.3,14.2-5c3-1,6-2.1,9.1-2.9
	c1.6-0.5,3.3-0.6,5-0.7c0.8-0.1,1.5,0.1,2.5,0.2c0.4,4,1.8,7.4,4.4,10c2.6,2.6,5.4,4.9,8.4,7.5C318.6,421.7,315.2,420.2,311.7,420.4
	z"/>
<path class="st0" d="M162.5,678.6c2.9-1.6,4.4-4.2,5.7-6.9c0.8-1.7,1.9-3.4,3.1-4.8c0.8-0.9,2-1.5,3.1-2.1c0.9-0.5,1.8-0.2,2.7,0.3
	c2.3,1.3,4.6,2.5,7.2,2.9c2.7,0.4,5.3,0.2,7.8-0.9c2.1-0.9,4.1-2.1,6.2-3c1.4-0.7,2.8-1.6,4.8-1.4c0,0.9,0.2,1.8,0.1,2.7
	c-0.1,0.9-0.4,1.9-0.6,2.8c-0.8,3.4-0.9,6.8,0.1,10.2c1.2,4,0.7,7.7-1.2,11.4c-0.4,0.9-0.9,1.7-1.2,2.6c-1.3,3.7-4.3,5.1-7.9,5.7
	c-2.6,0.4-5.1-0.2-7.5-1.2C175.8,693.1,168.9,686.4,162.5,678.6z"/>
<path class="st0" d="M409.7,308.4c1,0.3,1.7,0.5,2.2,0.6c-0.7,4.1-1.3,8-1.9,11.9c-1,5.4-0.7,10.8,0.4,16.2
	c1.1,5.4,1.5,10.8,0.8,16.2c-0.3,2.1-0.7,4.3-1.3,6.3c-2.6,9.9-3.2,19.8-2.4,30c0.8,10.5,0.4,20.9-1,31.4
	c-0.7,5.4-2.1,10.6-3.7,15.8c-2.1,6.4-4.1,12.8-5.4,19.4c-1.8,8.6-2,17.3,0.1,26c1.5,6.1,2.1,12.3,2.6,18.5c0.3,3.3,0.6,6.7,0.8,10
	c0.1,1.1,0,2.2,0,3.4c-2.1,1-4.1,2.1-6.5,2.7c-0.3-0.7-0.6-1.1-0.7-1.7c-0.4-1.5-0.7-2.9-1.1-4.4c-1-3.8-1.4-7.7-0.6-11.6
	c1.6-7.4,1.5-14.8,1.2-22.2c-0.3-8.3,0-16.5,2.4-24.5c1.1-3.7,1.2-7.6,1.2-11.4c0-6,1.3-11.7,2.5-17.5c1.7-8.2,3-16.5,4.5-24.8
	c1.3-7.1,1-14.2,0.1-21.3c-0.8-6-0.3-12,1-17.9c0.9-3.7,1.8-7.5,2.8-11.2c1-3.7,1.4-7.4,1.2-11.2c-0.2-3.5-0.6-7-0.5-10.5
	c0.1-5,0.5-10,0.9-15.1C409.3,310.7,409.5,309.7,409.7,308.4z"/>
<path class="st0" d="M409.1,384.4c4.7,0,9,0,13.5,0c0.2,1.4,0.4,3,0.7,4.5c0.6,4.2,1.3,8.3,1.9,12.5c0.8,5.8,0.4,11.6-0.7,17.4
	c-0.8,4.5-1.5,9-1.3,13.6c0,0.2-0.1,0.5-0.2,0.9c-3.1,0.8-5.5,3-7.9,5c-3.7,3-7.6,5.5-12.7,6.7c0.6-2.2,1-4.1,1.7-5.9
	c5.7-16.8,6.7-34.1,5.4-51.6C409.2,386.6,409.2,385.7,409.1,384.4z"/>
<path class="st0" d="M304.6,499.7c-3.1-1-6.1-2.1-9.1-3.1c-8.7-2.7-17.7-4.1-26.8-4.9c-5.2-0.4-10.3-1.3-15.4-1.9
	c-6.7-0.8-13.3-1.5-20-2.5c-4.9-0.7-9.8-1.6-14.4-3.4c-1.3-0.5-2.5-1.1-3.6-1.8c-2.6-1.6-4.5-3.5-4.3-7c0.1-2.1-0.4-4.2-0.6-6.6
	c0.6,0.3,0.9,0.4,1.1,0.6c5.6,5.2,12.5,7.7,19.9,8.6c8.6,1.1,17.1,1.9,25.7,2.9c8.4,0.9,16.8,2.2,25,4.4c1.4,0.4,2.7,0.9,4.1,1.4
	c1.6,0.7,3.2,1.3,5,1.3c1.6,0,3.2,0.9,4.4,2.1c3,3.1,6,6.2,9,9.3C304.6,499.3,304.6,499.5,304.6,499.7z"/>
<path class="st0" d="M212.3,257.5c0,1.4,0.1,2.3,0,3.1c-0.7,8.4-1.3,16.7-2.1,25.1c-0.7,6.9,0,13.6,2.8,19.9c1.1,2.5,2.2,5,3.3,7.4
	c0.3,0.7,0.6,1.4,0.9,2.2c-0.3,0-0.5,0.1-0.6,0.1c-6.6-3.6-13.9-4.5-21.3-4.9c-3.2-0.2-6.3-0.6-9.7-1c0.2-0.8,0.2-1.2,0.4-1.6
	c2.6-6.5,5.3-12.9,7.7-19.4c3.9-10.3,9.9-19.3,16.4-28.1C210.7,259.5,211.4,258.7,212.3,257.5z"/>
<path class="st0" d="M141,610.7c-1.6,5.3-0.2,10.1,1,14.9c0.9,3.5,1.9,7,3.2,10.3c3,7.6,4.9,15.5,6.2,23.6
	c0.9,5.2,2.1,10.4,5.2,14.8c1.3,1.8,2.6,3.7,4.1,5.3c3.6,3.9,7.1,7.8,10.9,11.4c4.1,3.9,9.2,6.4,14.3,8.6c3.2,1.4,6.6,1.1,9.9,0.1
	c0.7-0.2,1.3-0.5,2-0.7c0.2,3.4-1.6,5.7-4.8,5.9c-8.3,0.5-15.9-1.4-22.8-6.3c-7.2-5.2-13.3-11.4-18.6-18.5
	c-3.4-4.6-5.7-9.7-6.6-15.5c-1.1-6.6-2.2-13.2-3.6-19.8c-1.6-7.2-4-14.1-7.6-20.6c-0.3-0.6-0.6-1.1-0.9-1.7
	c-0.6-1.3-0.5-2.6,0.4-3.8c1.5-1.9,2.8-3.9,4.1-5.9C138.2,611.6,139.2,611,141,610.7z"/>
<path class="st0" d="M258.6,493.2c1.2,7.5,2.5,14.9,3.7,22.5c-3.1-0.8-5.7-1.6-8.4-2.3c-9.3-2.6-18.8-4.5-28.3-6.3
	c-3.8-0.7-7.6-1.8-11.4-2.8c0-0.2,0-0.3,0-0.5c0.8-0.5,1.6-0.9,2.4-1.4c5.4-3.9,10.9-7.8,16.3-11.8c0.8-0.6,1.4-0.9,2.4-0.8
	c7.2,1,14.4,1.9,21.6,2.9C257.4,492.8,257.8,493,258.6,493.2z"/>
<path class="st0" d="M412.1,335.2c2,0.6,3.7,1,5.2,1.7c4,1.8,7.9,3.9,11.4,6.6c1.5,1.2,2.1,2.5,1.8,4.3c-0.4,2.1-0.8,4.2-1.2,6.4
	c-1.2,7-2.4,14-3.4,21.1c-0.8,5.5-1.5,6.4-7,6.8c-3.2,0.2-6.4,0-9.8,0c-0.1-0.7-0.2-1.4-0.1-2.1c0-6.3,0.7-12.5,2.5-18.5
	c2.3-7.7,2.4-15.4,1-23.3C412.4,337.5,412.3,336.6,412.1,335.2z"/>
<path class="st0" d="M259.4,493.3c1.3,0.1,2.3,0.2,3.3,0.4c5.8,0.6,11.6,1.1,17.4,1.9c6.2,0.9,12.2,2.4,18.1,4.5
	c0.4,0.2,0.9,0.4,1.5,0.6c-0.4,0.6-0.7,1.1-1.1,1.6c-4.6,5.7-9.8,10.9-15.1,16c-0.4,0.4-0.8,0.8-1.2,1.2c-2.2,2.3-2.2,2.3-5.2,1.2
	c-3.4-1.2-6.8-2.4-10.2-3.4c-1.6-0.5-2.3-1.3-2.6-2.9c-0.9-4.9-1.9-9.7-2.9-14.6C260.7,497.6,260,495.6,259.4,493.3z"/>
<path class="st0" d="M347,678.8c0.9-0.1,2.3-0.3,3.7-0.4c4.5-0.2,9.1-0.2,13.6-0.7c3.3-0.3,5.9,0.3,8.2,2.8c2.1,2.3,4.5,4.3,6.7,6.5
	c2.2,2.2,3.5,4.9,3.6,8.3c-14.2-0.1-27.9,3.7-42.2,4.9c0.1-4.2-0.7-8.2,0.5-12.1c0.5-1.5,1.5-2.9,2.4-4.3
	C344.4,682.3,345.5,680.9,347,678.8z"/>
<path class="st0" d="M385.4,705.9c-0.4,0.1-0.6,0.1-0.7,0.1c-6.6-0.7-13.1,0.1-19.5,1.5c-5.2,1.1-10.5,1.9-15.9,2.5
	c-4.2,0.5-8.5-0.2-12.5-1.7c-8-2.9-16.1-5.8-24.1-8.7c-0.4-0.1-0.8-0.2-1.1-0.4c-1.6-0.8-4.1-0.8-4.6-2.6c-0.7-2.5-0.5-5.3,0.5-7.8
	c0.5-1.3,1.3-1.5,2.5-0.8c7.7,4.6,16,8.3,24,12.5c4.2,2.2,8.3,2.6,12.7,1.9c7.3-1.2,14.5-2.4,21.8-3.4c4.3-0.6,8.6-0.7,12.9-1.1
	c0.5,0,1,0,1.4,0.1c3.2,0.3,4.7,2.7,3.6,5.8C386.2,704.4,385.8,705.1,385.4,705.9z"/>
<path class="st0" d="M162.4,378.9c0.9-6.2,1.8-12.3,2.7-18.7c2.1-0.2,4.4-0.6,6.7-0.7c7.8-0.3,15.5,0.2,22.9,2.9
	c1.9,0.7,3.8,1.7,5.5,2.8c1.8,1.2,1.8,1.8,1.1,3.9c-1.3,3.8-2.6,7.5-3.9,11.3c-0.2,0.5-0.4,1-0.7,1.4
	C185.7,375.2,174.3,375.3,162.4,378.9z"/>
<path class="st0" d="M329.9,233.3c-3.6,2-7.2,4.1-10.7,6.1c-2.2,1.2-4.6,1.8-7.1,1.7c-5.5-0.1-10.8,1.1-16.1,2.3
	c-11.4,2.4-22.8,4.9-34.2,7.1c-4.5,0.8-9.1,0.9-13.6,1.2c-7,0.5-14,1-21.1,1.3c-2.5,0.1-5.1-0.1-7.7-0.3c-1.2-0.1-2.5-0.5-3.7-1
	c-1.1-0.5-2.2-1.3-3.5-2.1c0.6-0.3,1-0.6,1.5-0.6c1.8-0.1,3.7-0.2,5.5,0c9.2,1,18.2-0.3,27-2.7c11.1-3,22.4-4.4,33.8-5.7
	c7.1-0.8,14-2.2,21-3.5c8.2-1.6,16.5-3,24.9-3.8c1.3-0.1,2.7-0.1,4-0.2C329.9,233.1,329.9,233.2,329.9,233.3z"/>
<path class="st0" d="M347.7,241.3c-1.9,0.1-3.7,0.2-5.4,0.3c-3.4,0.4-6.6,1.3-9.3,3.5c-0.9,0.7-1.8,1-2.9,0.8
	c-0.5-0.1-1.1-0.1-1.7-0.1c-3.7,0.3-6.6-1.3-9.2-4.1c0.6-0.4,1.1-0.8,1.6-1c3.5-1.6,6.4-4.2,10.1-5.5c2.4-0.8,2.7-3.6,1.1-5.6
	c-1.3-1.6-3.1-2.5-5-3.2c-5.7-2.2-11.3-4.4-17.2-5.8c-0.8-0.2-1.5-0.4-2.7-0.7c0.8-0.4,1.2-0.7,1.7-0.8c2.6-0.6,5.3-1.3,8-1.5
	c7.1-0.7,14.2-0.7,21.3,0.5c4,0.7,6.5,2.7,7.5,6.7C347,230.1,347.5,235.6,347.7,241.3z"/>
<path class="st0" d="M174.1,353.3c-1.5-0.5-3-1-4.4-1.6c-2.7-1.3-4.6-3.6-6.4-6c-0.3-0.4-0.5-1-0.5-1.6c0-0.9,0-1.9,0.3-2.8
	c1.4-5,3.4-9.8,5.9-14.3c1.2-2.1,2.7-3.1,5.2-2.8c1.9,0.3,3.8,0.5,5.5,1.4c4.3,2.3,7.6,5.8,9.9,10.1c1.4,2.8,1.5,5.7-0.2,8.5
	C186.7,348.8,179.6,353,174.1,353.3z"/>
<path class="st0" d="M190,314.2c0.4,6.3,0.8,12.5,1.3,18.8c-0.4-0.5-0.9-1.1-1.3-1.7c-2.4-3-5-5.8-8.5-7.7c-1.3-0.7-2.6-1.1-4.1-1
	c-1.4,0-2.8-0.3-4.2-0.4c-0.2-2.4-0.6-4.6-0.6-6.8c-0.1-2.4,0.6-3.1,2.9-3.8c2.6-0.8,5.4-1.3,8-0.6c6.5,1.6,13.1,2,19.6,2.7
	c3.5,0.4,6.9,1.3,10.2,2.9c-4.5,6.6-8.8,13-13.4,19.6c-2-0.5-4.3-1-6.6-1.6c-0.8-6.9-1.6-13.7-2.4-20.5
	C190.6,314.1,190.3,314.2,190,314.2z"/>
<path class="st0" d="M369.5,480.1c0.4,3.1,0.8,6,1.2,8.8c0.1,0.8,0.2,1.6,0.4,2.4c0.4,1.5,0,2.5-1.3,3.4c-3.1,2.3-6.7,2.9-10.4,3.2
	c-6,0.5-11.8-0.1-17.4-2.2c-2.5-0.9-5.1-2-8.3-1.5c1.6-5.1,3.1-9.8,4.7-14.8C348.7,480.2,359,481.4,369.5,480.1z"/>
<path class="st0" d="M296.9,488.3c-0.7-0.4-1.4-0.7-2-1.2c-8-5.7-16.8-10.2-25.7-14.4c-5.4-2.6-10.8-5.2-16.1-8
	c-3.4-1.9-6.9-3.8-9.8-6.4c-6.7-5.8-14.5-8.6-23.1-9.7c-2.7-0.4-5.4-0.7-8.1-0.9c-1.8-0.1-3.7,0-5.4,0.4c-2.7,0.7-3.4,3-2,5.4
	c0.3,0.5,0.6,0.9,0.9,1.5c-1.3,0.4-2-0.4-2.5-1.1c-1.6-2.2-3.1-4.4-4.5-6.8c-0.9-1.5,0-3.8,1.8-4.9c0.9-0.6,2-0.9,3.1-1.2
	c8.6-1.9,17-0.9,25.3,1.9c7.7,2.5,14.7,6.3,19.9,12.7c6.6,8,15,13.2,24.9,16.4c4.1,1.3,8.1,3,12,4.8c3.4,1.5,6.3,3.8,8.7,6.7
	c1.1,1.3,2,2.8,3,4.2C297.1,488,297,488.1,296.9,488.3z"/>
<path class="st0" d="M344.1,144.5c-6-3.4-11.2-7.4-14.9-13.1c-2-3.2-1.8-5.1,0.6-8c2.5-2.9,5.7-4.6,9.5-5.1c6.4-0.7,12.7-1,19,0.8
	c0.3,0.1,0.6,0.2,1,0.3C356.2,129,350.7,136.9,344.1,144.5z"/>
<path class="st0" d="M406.9,292.7c0.6,4.7,1.4,9.2,1.5,13.7c0.1,2.4-1,4.8-1.5,7.2c-3.1-0.3-5.8-1.2-8.4-2.5
	c-8.9-4.3-16.5-10.3-22.7-18c-2.3-2.9-4.2-6-6.1-9.2C381.5,289.4,394,291.3,406.9,292.7z"/>
<path class="st0" d="M427.3,416.5c2.1-11.3-1-21.9-3-32.1c1.3-1.8,2.6-3.2,3.3-4.8c0.7-1.6,0.8-3.5,1.1-5.4c2.1-0.2,3.8,0.5,5.2,1.8
	c4.5,4.3,8.1,9.2,10.7,14.9c0.6,1.3,0.8,2.7,0.3,4c-0.7,1.8-1.3,3.6-2.3,5.2c-3.9,6.1-9,11.2-14.3,16
	C428.1,416.3,427.8,416.3,427.3,416.5z"/>
<path class="st0" d="M457.9,480.3c7.2-6.1,13.5-12.5,17.5-20.9c3.5,1.9,7.3,2,11,2.5c5.2,0.7,10.4,1.7,15.4,3.5
	c1.5,0.5,3,1.2,3.6,2.9c0.2,0.5,0.2,1,0.3,1.9c-1.6-0.2-2.9-0.4-4.2-0.6c-4.1-0.4-8.1-0.9-12.2-1.1c-1.6-0.1-3.3,0.3-4.9,0.8
	c-2.8,0.8-5.5,1.7-8.2,2.7c-2.8,1-4,4.7-2.4,7.7c1.5,2.9,3.3,5.7,4.8,8.6c0.9,1.7,1.7,3.5,2.1,5.3c0.5,2.6-0.7,3.6-3.3,3
	c-2.1-0.5-3.8-1.7-5.1-3.4c-1.6-2.2-3.3-4.3-4.6-6.7c-1.9-3.6-4.8-5.4-8.7-5.8C458.8,480.6,458.6,480.5,457.9,480.3z"/>
<path class="st0" d="M412.5,309.4c2.9,0.1,5,1.4,7.3,2.2c3.2,1.2,5.6,3.6,7.8,6.1c4.4,5.3,4.7,4.6,5.1,12.9c0.2,4.1-0.4,6.8-2.4,11
	c-5.6-4.2-11.6-7.3-18.6-8.5C410.3,325.2,412.2,317.4,412.5,309.4z"/>
<path class="st0" d="M222.9,331.8c1.2,5.1,0.8,10.1,3.7,14.3c-0.2,0.2-0.3,0.5-0.5,0.7c-6,4.9-9.1,11.4-10.3,18.9
	c-0.6,3.4-1.3,6.9-1.9,10.2c-2.5,0-4.8-0.3-6.9,0.1c-2,0.4-4,1.5-6.1,2.3c0.2-0.8,0.4-1.5,0.7-2.3c2.1-6.1,4.3-12.2,6.3-18.3
	c1.7-5.1,3.2-10.4,3-15.7C215.3,339.2,219.4,336.1,222.9,331.8z"/>
<path class="st0" d="M165.4,358.8c-0.8-2.2-0.2-4.3-0.1-6.8c0.9,0.6,1.6,0.9,2.2,1.4c3.1,2.3,6.6,2.7,10.3,1.8
	c5-1.2,9.1-3.8,12.5-7.6c2.5-2.8,3.5-6,2.8-9.8c-0.1-0.4-0.1-0.8-0.2-1.2c0-0.1,0-0.1,0.1-0.5c5.6,1.6,10.9,4,16,7.3
	c-1,7.1-3.7,13.7-6.1,20.7c-0.6-0.4-1-0.6-1.5-1c-3-2.3-6.5-3.4-10.1-4.2c-5.3-1.1-10.6-1.9-15.9-1.4
	C172.2,357.7,169,358.3,165.4,358.8z"/>
<path class="st0" d="M405.6,137.8c-0.3,2-0.7,5.6-1.4,9c-0.4,1.7-1.3,3.2-2.2,4.7c-0.6,1.1-1.8,1.5-3.1,1.5c-2.8-0.1-4.8-1.1-6-3.9
	c-1.6-3.7-2.1-7.7-2.5-11.7c-0.6-6.6,0-13.1,1.7-19.5c0.8-2.8,1.4-3.2,4-1.9c2.6,1.3,4.8,3.1,6.3,5.7
	C405.2,126.3,405.5,131.3,405.6,137.8z"/>
<path class="st0" d="M338.3,670c2.3,2.9,4.3,5.6,6.7,8.6c-0.5,0.7-1,1.7-1.8,2.4c-4.6,3.7-5.8,8.6-5.5,14.1c0.1,1.3,0.1,2.5,0.2,4.1
	c-8.8-4.1-17.4-8-26.2-12c0.3-4.3,0.5-8.6,0.8-13.2c1.4,0.4,2.5,0.6,3.6,1c5.3,1.5,10.1,4,14.9,6.5c1,0.5,2,1.1,3,1.5
	c1.9,0.7,3.4-0.2,3.6-2.2c0.1-1.4,0-2.9-0.3-4.3C337,674.2,337.1,672.8,338.3,670z"/>
<path class="st0" d="M294.9,246c3.4-0.8,6.8-1.7,10.2-2.3c2.7-0.4,5.4-0.4,8.1-0.6c1.6-0.1,3.2-0.4,5-0.6c2.6,3.7,5.9,6.4,11.2,5.4
	c0.1,3.3,2.8,5.2,3.8,8c-2,0.4-3.8,0.8-5.6,1.2c-4.1,0.9-7.9,2.6-11.4,4.9c-0.3,0.2-0.5,0.4-0.8,0.5c-2.3,1.4-2.4,1.4-4.5-0.5
	c-4.8-4.3-9.6-8.7-13.8-13.7C296.5,247.4,295.6,246.6,294.9,246C294.8,245.9,294.9,246,294.9,246z"/>
<path class="st0" d="M294.8,245.9c0.6,2.7,2.4,4.7,4.2,6.6c3.1,3.5,6.5,6.8,9.8,10.2c1.6,1.6,3.2,3.2,4.7,4.8
	c2.7,2.9,2.9,6.5,2.7,10.1c-0.1,1.4-0.8,1.8-2.1,1.5c-0.9-0.2-1.8-0.7-2.6-1.2c-2.7-1.6-5.4-3.4-8.2-5c-2.1-1.2-4-2.7-5.4-4.6
	c-2.8-3.8-5.8-7.5-9.6-10.3c-0.4-0.3-0.7-0.7-1-1c-2-2.6-4-5.2-6-8c0.5-0.2,0.8-0.4,1.1-0.5c3.7-0.8,7.3-1.7,11-2.5
	C293.7,246,294.3,246,294.8,245.9C294.9,246,294.8,245.9,294.8,245.9z"/>
<path class="st0" d="M383.6,134c0.3,3.9-0.5,7.4,0.9,10.9c-2.1,1.6-4.6,2.2-7.1,2.6c-10,1.5-19.9,1.4-29.8-0.9
	c-0.5-0.1-1-0.3-1.9-0.6c3.3-4.5,6.5-8.8,9.8-13.1C364.7,137.2,374,136.5,383.6,134z"/>
<path class="st0" d="M160.7,385.3c4.9-1.1,9.6-0.8,14.7,0.2c-2.4,9.2-6.2,17.9-6.9,27.5c-3.8,0.6-7.7,1.2-11.5,1.7
	c-2.7,0.3-4-1.1-3.3-3.7c1.3-5.5,2.8-11,4.3-16.4C158.7,391.4,159.8,388.3,160.7,385.3z"/>
<path class="st0" d="M227.4,347.8c1.5,0.6,2.9,1.1,4.5,1.7c0.6,4.6,1.4,9.4,3.5,13.8c2,4.3,4.2,8.5,6.3,12.9c-1.5,0.1-2.7,0.2-4,0.3
	c-3.2,0.5-6.2,0-9-1.7c-1.7-1.1-3.7-1-5.6-0.6c-1.4,0.3-2.8,0.8-4.2,1.1c-0.8,0.2-1.6,0.4-2.7,0.7c0.8-4.2,1.6-8.1,2.1-12
	c0.9-5.9,3.8-10.8,7.7-15.2C226.5,348.5,226.9,348.2,227.4,347.8z"/>
<path class="st0" d="M343.8,528.2c-3.8-7.3-7.4-14.3-11.1-21.6c10.7,2.5,21.1,1.1,31.8-0.5c-0.8,1.7-1.7,3.2-2.3,4.7
	c-1.6,4.1-3.2,8.1-4.7,12.3c-0.5,1.3-1.1,2.1-2.5,2.4C351.2,526.4,347.6,527.3,343.8,528.2z"/>
<path class="st0" d="M383.7,131.6c-8.4,3.3-23.1,2.6-27.4-0.4c0.5-1,1-2,1.4-3c1.3-2.8,2.5-5.5,3.8-8.3c0.4-1,0.9-1.8,2.2-1.9
	c7.1-0.9,14.2-1.1,21.2,0.3c0.3,0.1,0.6,0.2,0.9,0.3c0.2,0.1,0.4,0.2,0.5,0.3C385.4,123.1,384.6,127.3,383.7,131.6z"/>
<path class="st0" d="M381.8,490.8c-2.8-1.3-5.5-3.1-8.9-2.8c-0.4-3-0.9-5.8-1.2-8.6c-0.6-4.7-1.1-9.5-1.9-14.2
	c-0.5-3.3-1.3-6.6-2.1-9.8c-0.3-1.1-0.4-1.9,0.4-2.8c0.4-0.5,0.6-1.1,0.9-1.7c1-1.8,2.3-3.5,4.1-4.6c3-1.8,6-3.6,9-5.5
	C376.1,457.3,377.2,474,381.8,490.8z"/>
<path class="st0" d="M161.7,348.2c-3.2,0.6-5.7-0.4-8-2c-0.7-0.5-1.3-1.1-2-1.7c-2.2-1.7-3-4-3.2-6.7c-0.5-6.7,2.2-11.8,8-15.2
	c2.3-1.4,4.8-2.6,7.3-3.4c2.9-0.9,4.9,0.2,6.3,2.9c-2.3,1.9-3.8,4.5-5,7.2c-1.2,2.6-2.3,5.3-3.4,7.9
	C160.4,340.8,159.2,344.4,161.7,348.2z"/>
<path class="st0" d="M177.1,416.1c-2.1-1.1-4-2.1-6.2-3.2c0.1-1,0.1-2.4,0.4-3.6c1.2-5.4,2.5-10.7,3.8-16.1c0.5-2.3,1.1-4.6,1.6-7.2
	c5.5,1.3,10.5,3,14.1,8C186.4,401.3,181.7,408.7,177.1,416.1z"/>
<path class="st0" d="M256.2,398.3c0.8-2.7,1.8-5.4,2.3-8.2c0.6-2.9-0.5-5.7-1.6-8.5c11.9-2.5,21.2-9.2,30.2-16.4
	c4.6,0.8,9.1,1.7,13.7,2.4c1.9,0.3,3.2,1.3,3.8,3.1c0.4,1.2,1,2.3,1.7,3.7c-0.5-0.1-0.8-0.1-1-0.2c-3-1.5-6.2-1.5-9.4-0.9
	c-4.4,0.8-8.8,1.8-13.1,2.9c-5.3,1.3-10.2,3.8-14.9,6.6c-1.3,0.8-2.6,2-3.5,3.2c-2.2,3-4.2,6.2-6.2,9.4c-0.6,1-1.2,2.1-1.8,3.1
	C256.4,398.4,256.3,398.4,256.2,398.3z"/>
<path class="st0" d="M354.9,647.7c2.2,4.8,5.7,9.1,7,14.6c-3.9,1.2-7.5,2.2-11,3.3c-3.2,1-6.4,1.9-9.6,2.8c-2,0.5-2.8-0.2-2.4-2.1
	c1.3-6,3.6-11.6,6.4-17c0.2-0.5,0.9-0.9,1.4-1c2.4-0.3,4.7-0.5,7.1-0.7C354,647.7,354.3,647.7,354.9,647.7z"/>
<path class="st0" d="M231.3,489.3c-6.3,5-12.2,9.6-18.2,14.4c-3.1-1.1-6.2-2.5-9-4.6c1.6-2.8,3.3-5.5,4.5-8.4
	c1.2-2.9,1.8-6.1,2.6-9.2c1.8,1.2,3.6,2.8,5.7,3.8c2.2,1.1,4.6,1.7,7,2.4C226.2,488.4,228.5,488.8,231.3,489.3z"/>
<path class="st0" d="M369.1,477.5c-7.5,0.9-14.9,0.5-22.7,0.2c7-7.4,12.2-15.6,18.6-23.3c0.3,0.7,0.7,1.3,0.9,1.9
	c1.5,4.3,2,8.9,2.5,13.4C368.6,472.2,368.8,474.7,369.1,477.5z"/>
<path class="st0" d="M214.1,316.9c2.5,1.7,5.4,3,6.4,6.3c0.5,1.6,1.1,3.2,1.7,4.7c0.5,1.3,0.3,2.4-0.8,3.2c-2.7,2.2-5.4,4.4-8.2,6.6
	c-1.2,1-2.6,1.8-3.9,2.8c-2.3-1.2-4.7-2.3-7.2-3.6C206.1,330.3,210,323.7,214.1,316.9z"/>
<path class="st0" d="M371.9,495.9c0.5,1.8,0.9,3.4,1.3,5c-9,3.6-29,6.6-45,2.7c0.9-1.3,1.8-2.5,2.6-3.7c0.8-1.2,1.4-2.5,2.1-3.8
	c2.2-0.8,4.2,0.1,6.2,0.9c3.9,1.5,7.9,2.6,12,3.2c4.4,0.6,8.8,0.5,13.1-0.5c2-0.5,3.9-1.7,5.9-2.6
	C370.7,496.7,371.2,496.3,371.9,495.9z"/>
<path class="st0" d="M199.4,621.1c3.7,3.5,7.8,5,12.7,3.9c-0.3,0.3-0.7,0.7-1,1c-3.2,2.1-5.9,4.9-8.5,7.7c-1.8,1.9-2.6,4.2-3.1,6.6
	c-0.5,2.5-1,5-1.3,7.5c-0.2,1.4-0.9,1.9-2.2,1.9c-2.8-0.1-5.5-0.2-8.8-0.4c1.5-2.7,2.7-4.8,3.9-7c1.1-2.2,2.1-4.5,3.1-6.8
	c1-2.4,1.8-4.8,2.7-7.2C197.5,626.1,198.4,623.8,199.4,621.1z"/>
<path class="st0" d="M374.3,503.6c1.1,4.6,2.2,8.9,3.3,13.4c-1.6,1.1-3.1,2.3-4.7,3c-4.2,1.6-8.5,3.1-13.2,4
	c0.3-1.3,0.5-2.3,0.8-3.3c1.5-4.5,3-8.9,4.5-13.4c0.4-1.1,0.9-1.7,2.1-2C369.4,504.9,371.6,504.3,374.3,503.6z"/>
<path class="st0" d="M348.2,451.3c5.1,2.1,10.3,1.9,16,1.9c-3.3,3.8-6.2,7.1-9.1,10.5c-2.8,3.4-5.6,7-8.7,10.9
	c-0.2-2.5-0.4-4.4-0.6-6.4c-0.1-1.6,0.1-3.4-0.6-4.7c-0.9-1.9-0.3-3.3,0.3-4.9C346.4,456.3,347.3,453.9,348.2,451.3z"/>
<path class="st0" d="M186,650.7c3.8,0.7,7.2,1.4,10.7,2c-0.6,3.2-1.2,6.5-1.9,10.1c-4.3,3.5-10.9,3.6-14.8,0.9
	c-1-0.7-1.4-1.3-1.4-2.5c0.1-1.7,0-3.3,0-5.2C182.9,656.4,184,652.9,186,650.7z"/>
<path class="st0" d="M326.1,636.2c6.4-0.8,12.7-1,18.9,1.1c4.8,1.7,9.5,3.2,14.6,3.5c0.3,0,0.6,0.2,1.1,0.3c-1.5,1.7-2.7,3.3-5,3.7
	c-2.6,0.5-5.1,1.1-7.7,1.8c-1.2,0.3-2.1,0.3-2.9-0.8c-0.5-0.6-1.4-1-2.2-1.4c-4.2-1.8-8.4-3.6-12.5-5.4c-1.5-0.7-2.9-1.5-4.4-2.3
	C326,636.6,326.1,636.4,326.1,636.2z"/>
<path class="st0" d="M340.8,670.3c7.2-1.8,14.1-3.5,20.9-5.1c1.4,3.3,2.7,6.4,4,9.7c-2.5,0.4-5.2,0.8-7.8,1.1
	c-3.1,0.4-6.2,0.6-9.3,0.9c-0.6,0.1-1.4,0-1.8-0.3C344.5,674.9,342.6,672.8,340.8,670.3z"/>
<path class="st0" d="M153.5,425c0-3.4,0-6.5,0-9.7c2.6,1.8,5.4,1.3,8.3,0.7c3-0.6,6-0.9,9-0.2c0.8,0.2,1.6,0.4,2.3,0.7
	c2.5,1.2,2.7,1.9,1.5,4.4c-0.8,1.8-1.7,3.6-2.6,5.6C166.2,423,160.1,422.9,153.5,425z"/>
<path class="st0" d="M195.1,384.1c-1.1,2.5-2.1,4.6-3,6.7c-9-7.7-19.4-9.2-30.6-7.2c0.1-2.8,0.1-2.9,2.5-3.6
	c5.7-1.5,11.5-1.7,17.4-0.8c3.1,0.5,6.1,1.3,9,2.2C192.1,382,193.5,383.2,195.1,384.1z"/>
<path class="st0" d="M357.6,647.9c1.9-2.4,3.5-4.5,5.4-6.9c0.2,0,0.9,0,1.5,0c1.1,2.4,2.2,4.7,3.3,7c0.8,1.7,1.1,3.4,0.9,5.3
	c-0.3,2.1-0.2,4.2-0.2,6.8c-0.9-0.7-1.5-1-2-1.4c-0.1,0.1-0.2,0.3-0.2,0.3c2.4,2.2,1.7,5,1.4,7.8c0,0.2-0.1,0.5-0.2,0.7
	c0,0.1-0.1,0.1-0.3,0.2c-1.3-1-1-2.6-1.6-3.9c-0.6-1.4-1.1-2.8-1.7-4.2c-0.6-1.3-1.3-2.5-2-3.8c-0.7-1.3-1.4-2.7-2.2-4
	C359,650.5,358.3,649.1,357.6,647.9z"/>
<path class="st0" d="M421.3,309.1c-3.7-0.8-7.4-1.6-11.1-2.5c0.5-4.7-1.1-9.2-1.7-13.8c3.6-1.3,6.5-0.4,8.7,2.3
	C420.4,299.2,421.8,304.2,421.3,309.1z"/>
<path class="st0" d="M170.7,428.9c-1.9,3.7-4.7,6.5-8.3,8.4c-2.7,1.5-4.5,0.9-5.9-1.8c-1.6-3-2.3-6.2-2.7-9.7
	C159.9,424.6,165.4,425.6,170.7,428.9z"/>
<path class="st0" d="M201.8,641.7c0.1-3.3,1.4-5.7,3.4-7.6c2.6-2.6,5.5-5.1,8.3-7.6c0.1-0.1,0.4-0.1,0.9-0.3
	c-0.2,1.1-0.2,2.2-0.4,3.1c-0.5,1.8-1.2,3.6-1.7,5.5c-0.9,3.6-1.8,7.2-2.7,11.2c-1.1-0.6-2.3-1.2-3.6-1.9c0.3-1.6,0.7-3,1-4.5
	c-0.1,0-0.3-0.1-0.4-0.1c-0.5,1.3-0.9,2.5-1.5,4.1C204,642.8,202.9,642.2,201.8,641.7z"/>
<path class="st0" d="M476.2,474.5c0.4-0.2,0.7-0.5,1.2-0.6c2.2-0.8,4.4-1.5,6.5-2.3c0.8-0.3,1.4-0.3,2.2,0.2c2,1.1,4.3,1.8,6.3,2.8
	c3.7,1.8,6.6,4.7,9,8.2c-0.7,0.8-1.6,0.5-2.3,0.2c-1.1-0.5-2.1-1.1-3.1-1.8c-4.9-3.1-10.4-4.8-16.1-5.6c-1.2-0.2-2.3-0.4-3.5-0.6
	C476.3,474.8,476.2,474.6,476.2,474.5z"/>
<path class="st0" d="M359.9,118.3c-9.1-3.1-18.1-3.3-26.9,0c0.7-1.5,2.5-3.4,4.5-4.1c4.9-1.7,9.8-2.8,15-1.7
	c2.6,0.6,5.1,1.5,6.9,3.5C360.1,116.7,360.9,117.3,359.9,118.3z"/>
<path class="st0" d="M390.1,148c-1.1-0.8-2.6-1.3-2.2-3.2c0-0.1-0.2-0.5-0.3-0.5c-1.7-0.4-1.6-1.9-1.6-3.1
	c-0.2-7.1,0.2-14.1,2.3-20.9c0.5-1.7,1.1-3.3,3.5-4.2C387.6,126.8,387.7,137.3,390.1,148z"/>
<path class="st0" d="M344.2,477.7c-1.8,0-3.4,0-5.2,0c1.3-4.5,2.9-8.8,4.8-13.1C343.9,468.9,344.1,473.1,344.2,477.7z"/>
<path class="st0" d="M365.2,666.9c0.3,0.7,0.6,1.4,0.9,2.1c-0.2,0.1-0.4,0.1-0.6,0.2c-0.3-0.7-0.5-1.4-0.8-2.2
	C364.9,667,365,666.9,365.2,666.9z"/>
</svg>
