<?xml version="1.0" encoding="utf-8"?>
<!-- Generator: Adobe Illustrator 19.0.0, SVG Export Plug-In . SVG Version: 6.00 Build 0)  -->
<svg version="1.1" id="图层_1" xmlns="http://www.w3.org/2000/svg" xmlns:xlink="http://www.w3.org/1999/xlink" x="0px" y="0px"
	 viewBox="0 0 595.3 841.9" style="enable-background:new 0 0 595.3 841.9;" xml:space="preserve">
<style type="text/css">
	.st0{fill:#FFFFFF;}
</style>
<path class="st0" d="M595.3,841.8c-197.9,0-395.9,0-593.9,0c0-280,0-560,0-840c197.9,0,395.9,0,593.9,0
	C595.3,281.8,595.3,561.8,595.3,841.8z M156.7,597c-2.2-0.3-2.4-0.2-3,1.9c-0.3,1.3-0.6,2.6-0.9,3.8c-0.7,0.2-1.3,0.4-1.8,0.5
	c-3.1,0.8-6.1,1.9-8.2,4.6c-0.3,0.4-1.1,0.6-1.7,0.7c-2.3,0.2-4.1,1.3-5.4,3.1c-1.2,1.5-2.1,3.2-3.4,4.6c-2.3,2.6-2.5,5.2-0.8,8.1
	c0.3,0.5,0.5,1,0.7,1.5c1.3,2.8,2.6,5.6,3.7,8.5c3.7,9.5,5.3,19.5,6.7,29.6c0.8,6.1,3,11.6,6.6,16.5c5.4,7.4,11.7,13.9,19,19.4
	c5.2,3.9,11,6,17.3,7.1c3.1,0.6,6.2,0.5,9.3,0.1c2-0.3,3.4-1.3,4.3-3.1c0.7-1.6,1.4-3.2,2-4.9c1.1-3,1.7-6.1,3.2-9
	c2.1-3.9,2.5-8,1.2-12.3c-0.9-2.9-0.9-5.8-0.2-8.8c0.3-1.5,0.7-3,0.9-4.5c0.4-3.6-1.8-5.5-5.3-4.5c-0.9,0.2-1.8,0.6-3,1
	c0.8-6.3,3-11.9,3.8-18.2c3,1.9,5.4,4.6,9.2,4.3c1.5-4.8,2.9-9.6,4.4-14.3c0.9-2.9,1.8-5.8,1.5-8.9c-0.2-1.5,0.9-2.6,2.5-2.5
	c4,0.2,7.7-1.2,11.3-2.6c4.7-1.9,7-5.4,7.3-10.3c0.1-1.3,0.6-1.8,1.6-2.3c2.1-1.1,4.2-2.3,6.3-3.4c3.7-2.1,7.5-4.2,10.8-6.1
	c3.1,1.4,5.7,2.8,8.4,3.8c1.6,0.6,3.5,0.9,5.1,0.7c6.4-1,11.8-3.7,15.9-8.8c8.9-11,14.7-23.5,18.2-37.1c0.3-1,0.4-2,0.7-3.1
	c1.5,0.2,2.8,0.3,4.1,0.4c0,2,0,3.7,0,5.5c0,3.2,1.2,5.9,3.7,7.9c1.2,0.9,2.5,1.8,3.6,2.8c0.6,0.6,1.2,1.3,1.5,2.1
	c0.4,1.4,0.8,2.8,0.7,4.2c-0.2,2.8-0.5,5.7-1.1,8.5c-1.8,8-2.5,15.9-0.2,23.9c0.3,1.1,0.1,1.8-0.6,2.6c-1.8,2.4-3.7,4.8-5.5,7.2
	c-1.7,2.2-2.8,4.7-2.7,7.5c0.1,4.3,0.3,8.6,0.4,12.9c0,0.5-0.1,1.1-0.3,1.6c-2.1,5.2-3.4,10.6-4.7,16.1c-0.8,3.4-1.3,6.9-1.9,10.4
	c-0.5,3.3,0.6,4.9,3.7,6c1.3,0.4,2.6,0.7,3.9,1c0.7,0.2,1.3,0.4,2,0.6c-0.7,4.1-1.3,7.9-2,11.7c-3.2,0.3-4,1.1-4.5,4.2
	c-0.3,1.7-0.4,3.5-0.6,5.2c-0.3,2.3,0.7,3.9,2.8,4.8c1.8,0.8,3.5,1.5,5.3,2.1c7,2.6,14,4.9,20.9,7.7c6.3,2.6,12.8,3.5,19.4,2.5
	c5.3-0.8,10.5-1.8,15.8-2.8c5.2-1,10.4-1.6,15.7-0.8c0.9,0.1,1.8,0.2,2.6,0.2c0.9-0.1,1.7-0.7,1.3-1.6c-0.5-1.1,0.2-1.7,0.5-2.4
	c1.2-3.1,0.5-6.2-2.1-8.1c-1-0.7-1.3-1.4-1.4-2.5c-0.4-3.5-2-6.5-4.5-9c-2-2-4.1-4-6.2-6c-1.1-1-2.2-2.3-3.5-2.9
	c-2.2-1-3-2.8-4.1-4.8c2.1-0.9,2.9-2.6,3.1-4.6c0.4-4.3,0.7-8.6,1-12.9c0.2-3-0.6-5.8-2.5-8.3c-1.1-1.4-1.8-3-2.9-4.9
	c4.3-0.2,5.9-2.8,6.8-6.2c0.2-0.6,0.4-1.2,0.5-1.9c0.8-4.3-0.7-8-4-10.1c-0.1-0.1-0.2-0.3-0.3-0.4c0.2-2.6,0.5-5.2,0.8-7.8
	c1.1-10.2,2.3-20.3,3.3-30.5c0.1-1.2,0.4-2.1,1-3.1c3.1-5.5,3.9-11.2,1.5-17.2c-0.4-1-0.7-2-1.1-2.9c-0.4-0.9-0.4-1.6,0-2.5
	c1-2.4,1.8-4.9,2.8-7.7c2.8-0.7,5.7-2.4,9.4-1.6c0-0.9,0.1-1.7,0-2.4c-0.7-3.4-1.3-6.7-2.1-10.1c-3.2-13.5-5.5-27.2-9.8-40.5
	c-0.5-1.5-0.6-3.1-1-4.8c0.7-0.1,1.2-0.2,1.6-0.1c6.2,1.1,9.9,3.6,12.1,9.4c0.4,1.2,1,2.3,1.5,3.5c0.3,0.9,0.6,1.8,0.9,2.7
	c0.8,3.4,1.5,6.9,2.4,10.2c0.6,2.1,1.7,2.7,3.8,2.2c1.6-0.4,3.3-0.9,4.7-1.6c5.3-2.7,10.7-5.4,15.8-8.4c2.4-1.4,4.8-3.3,6.7-5.4
	c4.2-4.8,8.4-9.6,11.6-15.2c1.8-0.1,3.6-0.1,5.4-0.4c4.8-0.7,9.2-2.5,13.5-4.7c0.6-0.3,1.3-0.9,2-0.8c3.9,0.3,7.6,0.7,9.7,4.8
	c1.2,2.4,2.9,4.6,4.4,6.8c1.9,2.7,4.4,4.6,7.7,5.3c3.5,0.8,6.4-1.5,6-5.1c-0.2-1.9-0.9-3.9-1.8-5.6c-1.4-2.9-3.2-5.7-4.8-8.5
	c-0.6-1.1-1.1-2.2-1.7-3.5c0.6-0.1,0.8-0.2,1-0.1c6.9,1.6,13.6,3.5,19.5,7.6c1.1,0.7,2.4,1.3,3.6,1.8c1.1,0.5,2.2,0.2,3.2-0.4
	c1.1-0.7,1.4-1.5,0.8-2.6c-0.7-1.5-1.4-3.1-2.5-4.3c-3-3.3-6.7-5.6-11.1-6.7c-0.7-0.2-1.5-0.4-2.2-0.6c0.3-0.3,0.6-0.4,0.9-0.4
	c2.6,0.2,5.2,0.4,7.9,0.7c2.8,0.3,5.5,1,8.3,1.2c3.1,0.3,4.6-1.8,3.5-4.7c-0.7-2.1-2.1-3.6-4.2-4.3c-1.9-0.7-3.9-1.3-5.9-1.9
	c-6-1.6-12.1-1.8-18.2-2.4c-1.2-0.1-2.3-0.4-3.7-0.6c0.6-1.5,1-2.6,1.5-3.8c0.9-2.3,0.8-4.5-0.3-6.7c-0.4-0.8-0.8-1.6-1.3-2.3
	c-3.2-5.6-6.3-11.3-9.6-16.9c-1.3-2.3-2.7-4.5-4.2-6.7c-3.3-4.9-7.7-8.9-12.1-12.8c-2.1-1.9-4.1-3.8-7.1-4.3
	c1.1-1.9,2.3-3.6,3.2-5.4c1.9-3.8,2.1-7.5,0-11.4c-2.3-4.2-5-7.9-8.3-11.4c-2.4-2.5-5-4.5-8.9-4c0-0.6,0-1.1,0.1-1.5
	c0.7-6.3,1.7-12.5,3.2-18.6c0.7-3,1.4-6.1-0.1-9c0.5-0.9,1-1.6,1.3-2.4c2.6-6.2,2.3-12.5,0.5-18.7c-0.3-0.9-0.3-1.6,0.1-2.5
	c1.4-3.3,2.8-6.6,4-10c0.8-2.5,1.7-5,1.9-7.6c0.5-8.4-0.7-16.6-3.6-24.4c-0.9-2.4-2.4-4.5-4.4-6.2c-3.5-2.8-6.9-5.8-11.3-7.1
	c-0.3-0.1-0.5-0.3-0.9-0.6c0.5-0.2,0.7-0.3,1-0.4c2.5-0.9,4.4-2.5,5.4-5c1.1-2.8,2.3-5.6,3.5-8.4c0.3-0.7,0.9-1.3,1.5-1.7
	c2.8-1.4,4.6-3.6,4.8-6.6c0.2-2.6,1.6-3.7,3.8-4.6c1.3-0.5,2.6-1.3,3.6-2.2c2.4-2,2.5-3.1,1.1-5.8c-0.3-0.6-0.6-1.1-0.9-1.7
	c-1.7-3.2-2.1-6.5-0.7-9.9c1.7-4.1,3.3-8.3,5-12.4c0.2-0.6,0.9-1.1,1.5-1.3c2.3-0.9,4.7-1.7,6.9-2.6c0.9-0.4,1.9-1,2.4-1.8
	c1.7-2.9,2.4-6.1,1.6-9.4c-0.5-2.2-1-4.4-1.3-6.6c-0.9-6.5-3.2-12.5-5.3-18.6c-0.6-1.8-1.7-3.4-4-3.6c-0.6-0.1-1.2-0.7-1.6-1.3
	c-1.9-2.6-3.6-5.3-5.5-7.8c-3.9-5.3-8.4-10.1-14.2-13.4c-3.6-2.1-7.4-4.2-11.1-6.1c-3.8-2-7.3-4.3-10.3-7.3
	c-0.8-0.8-1.7-1.8-2.2-2.8c-1.7-3.2-4.4-5.2-7.4-7c-0.6-0.4-1.5-0.5-2.3-0.5c-3.3-0.1-6.1,0.8-8.1,3.4c-4.3-1.5-8.5-2.2-12.8-2.1
	c-3.5,0.1-7,0.4-10.5,0.6c-0.9,0.1-1.7,0-2.4-0.7c-2.2-2.3-5-3.6-8.1-4.3c-4.1-0.9-8.1-0.3-12.1,0.5c-3.9,0.8-6.9,2.8-9.3,5.9
	c-1.3,1.8-2.4,3.8-3.7,5.6c-2.2,3.1-2.2,6.1-0.1,9.3c2.8,4.4,6.5,7.9,10.7,10.8c1.4,1,2.9,1.9,4.4,3c-0.9,1.3-1.7,2.5-2.5,3.7
	c-3.3,4.9-5.3,10.4-5.9,16.3c-0.4,4-0.6,8-0.8,11.9c-0.3,6.5-0.4,12.9,0.9,19.3c0.1,0.3,0,0.6,0,1c-0.4,0-0.7,0.1-1,0.1
	c-6.1,0-12.1,0.6-18.1,1.5c-8,1.2-15.8,3.2-23.5,5.4c-8.1,2.3-16.4,4.3-24.3,7.4c-3.7,1.5-7.3,3.3-10.4,5.8c-2.7,2.1-5.4,4.2-7,7.4
	c-0.2,0.5-1.1,0.9-1.7,1.1c-8.7,2.2-16.3,6.5-23.3,11.9c-2.9,2.2-6,4.2-9.3,5.8c-1,0.5-2,0.9-3,1.5c-3.5,1.9-3.6,3.7-0.6,5.9
	c0.7,2.1-0.3,3.5-1.6,4.9c-8.6,9.9-15.5,20.9-19.9,33.3c-2.2,6.1-5,12.1-7.5,18.2c-3.2-0.4-6,0.6-8.9,1.5c-2.6,0.8-3.6,2.4-3.8,4.8
	c-0.1,0.8,0,1.6,0,2.8c-2.8-1.8-5.5-2-8.2-1c-4.4,1.5-8.4,3.9-11.6,7.3c-2.8,3-4.4,6.4-4.3,10.6c0,1.2,0,2.4,0,3.6
	c0.3,6.3,7.6,12.3,13.8,11.5c0.4,0,0.8-0.1,1.2-0.2c0.5-0.1,1-0.2,1.6-0.3c0,0.5,0.1,0.8,0.1,1.1c-0.3,9.4-0.9,18.8-3.2,28
	c-2,8.1-4.2,16.2-6.5,24.3c-2.6,9-2.7,17.9-0.7,27c0.5,2.5,1.5,4.9,2.7,7.1c1.4,2.7,3.5,3.5,6.5,2.6c1.1-0.3,2.2-0.8,3.2-1.5
	c2.9-1.9,5.4-4.3,7.1-7.3c1.2-2.1,2.3-4.4,3.4-6.6c0.5-1,0.7-2.3,1.5-2.9c1.2-1,1.7-2.1,1.9-3.5c0,0,0.2-0.1,0.2,0
	c0.4,2.2,0.7,4.4,1.4,6.4c1,3.1,2.8,5.7,5,8.1c4.2,4.3,7.3,9.4,10.4,14.6c1.4,2.4,2.9,4.8,4.5,7.1c1.5,2.2,3.3,3.9,6.2,4.1
	c0.8,5.1,1.6,10.2,2.3,15.2c1.1,8.2-0.8,15.7-5.6,22.4c-1.7,2.4-3.7,4.6-5.3,7.1c-1.8,2.7-3.6,5.5-4.9,8.5c-1.9,4.7-0.9,6.9,3.3,9.6
	c0.2,0.1,0.4,0.3,0.6,0.4c12.4,7.5,25.6,13.4,39.4,17.7c1.6,0.5,3.3,1.1,4.9,1.6c-0.6,2.7-1.2,5.2-1.7,7.8c-0.4,0.1-1,0.3-1.5,0.5
	c-2.2,0.7-4.4,1.5-5.1,4.2c-0.1,0.4-0.6,0.7-1,0.9c-7.6,3.4-14.8,7.5-21.8,12c-3.2,2-6.3,4.4-9.1,7c-4.2,3.9-8.6,7.3-14.4,8.5
	c-2.5-2.7-4.6-3-6.8-0.5c-3.4,3.9-7.6,6.8-11.7,9.9c-1.8,1.4-3.9,2.5-6,3.5C160.5,595.5,158.5,596.2,156.7,597L156.7,597z"/>
<path d="M156.6,597c1.9-0.8,3.8-1.6,5.7-2.5c2-1.1,4.1-2.1,6-3.5c4.1-3.1,8.2-6,11.7-9.9c2.2-2.5,4.3-2.3,6.8,0.5
	c5.7-1.3,10.2-4.6,14.4-8.5c2.8-2.6,5.9-4.9,9.1-7c7-4.4,14.2-8.6,21.8-12c0.4-0.2,1-0.5,1-0.9c0.7-2.7,2.8-3.5,5.1-4.2
	c0.5-0.2,1.1-0.3,1.5-0.5c0.6-2.6,1.1-5.1,1.7-7.8c-1.6-0.5-3.2-1-4.9-1.6c-13.8-4.4-27-10.2-39.4-17.7c-0.2-0.1-0.4-0.2-0.6-0.4
	c-4.3-2.7-5.2-5-3.3-9.6c1.2-3,3.1-5.7,4.9-8.5c1.6-2.5,3.6-4.7,5.3-7.1c4.8-6.7,6.7-14.2,5.6-22.4c-0.7-5.1-1.5-10.1-2.3-15.2
	c-2.9-0.2-4.7-1.9-6.2-4.1c-1.5-2.3-3.1-4.7-4.5-7.1c-3-5.2-6.2-10.3-10.4-14.6c-2.3-2.3-4-5-5-8.1c-0.7-2.1-0.9-4.3-1.4-6.4
	c0.1,0-0.2,0-0.2,0c-0.2,1.4-0.6,2.5-1.9,3.5c-0.8,0.6-1,2-1.5,2.9c-1.1,2.2-2.1,4.5-3.4,6.6c-1.7,3-4.2,5.4-7.1,7.3
	c-1,0.7-2.1,1.2-3.2,1.5c-2.9,0.8-5,0.1-6.5-2.6c-1.2-2.2-2.1-4.7-2.7-7.1c-2-9-2-18,0.7-27c2.4-8,4.5-16.1,6.5-24.3
	c2.3-9.2,2.9-18.6,3.2-28c0-0.3,0-0.6-0.1-1.1c-0.6,0.1-1.1,0.2-1.6,0.3c-0.4,0.1-0.8,0.2-1.2,0.2c-6.2,0.7-13.5-5.3-13.8-11.5
	c-0.1-1.2,0-2.4,0-3.6c-0.1-4.1,1.6-7.6,4.3-10.6c3.2-3.4,7.2-5.8,11.6-7.3c2.7-0.9,5.3-0.7,8.2,1c0-1.2,0-2,0-2.8
	c0.2-2.4,1.2-4,3.8-4.8c2.9-0.9,5.7-1.8,8.9-1.5c2.6-6.2,5.3-12.1,7.5-18.2c4.4-12.4,11.3-23.4,19.9-33.3c1.3-1.4,2.3-2.9,1.6-4.9
	c-3-2.2-2.9-4.1,0.6-5.9c1-0.5,2-1,3-1.5c3.3-1.5,6.4-3.5,9.3-5.8c7-5.4,14.6-9.7,23.3-11.9c0.6-0.2,1.5-0.5,1.7-1.1
	c1.5-3.2,4.3-5.3,7-7.4c3.2-2.5,6.7-4.3,10.4-5.8c7.9-3.1,16.1-5.1,24.3-7.4c7.8-2.2,15.6-4.1,23.5-5.4c6-0.9,12-1.5,18.1-1.5
	c0.3,0,0.6-0.1,1-0.1c0-0.4,0-0.7,0-1c-1.2-6.4-1.2-12.9-0.9-19.3c0.2-4,0.4-8,0.8-11.9c0.6-5.9,2.6-11.3,5.9-16.3
	c0.8-1.2,1.6-2.4,2.5-3.7c-1.5-1-3-2-4.4-3c-4.2-3-7.9-6.5-10.7-10.8c-2.1-3.2-2.1-6.2,0.1-9.3c1.3-1.8,2.3-3.8,3.7-5.6
	c2.3-3.1,5.4-5.1,9.3-5.9c4-0.8,8-1.4,12.1-0.5c3.1,0.7,5.9,1.9,8.1,4.3c0.7,0.8,1.5,0.8,2.4,0.7c3.5-0.2,7-0.5,10.5-0.6
	c4.3-0.1,8.6,0.6,12.8,2.1c2-2.6,4.9-3.6,8.1-3.4c0.8,0,1.7,0.1,2.3,0.5c2.9,1.8,5.7,3.8,7.4,7c0.5,1,1.4,2,2.2,2.8
	c3,3,6.5,5.3,10.3,7.3c3.7,2,7.5,4,11.1,6.1c5.8,3.4,10.2,8.1,14.2,13.4c1.9,2.6,3.6,5.2,5.5,7.8c0.4,0.5,1,1.2,1.6,1.3
	c2.3,0.3,3.4,1.8,4,3.6c2,6.1,4.4,12.2,5.3,18.6c0.3,2.2,0.8,4.4,1.3,6.6c0.8,3.4,0.1,6.5-1.6,9.4c-0.5,0.8-1.5,1.4-2.4,1.8
	c-2.3,1-4.6,1.7-6.9,2.6c-0.6,0.2-1.3,0.7-1.5,1.3c-1.7,4.1-3.3,8.3-5,12.4c-1.4,3.4-1,6.7,0.7,9.9c0.3,0.6,0.6,1.1,0.9,1.7
	c1.4,2.7,1.2,3.8-1.1,5.8c-1.1,0.9-2.3,1.7-3.6,2.2c-2.1,0.9-3.6,2-3.8,4.6c-0.2,3.1-2,5.3-4.8,6.6c-0.6,0.3-1.2,1-1.5,1.7
	c-1.2,2.8-2.4,5.6-3.5,8.4c-1,2.6-2.9,4.1-5.4,5c-0.3,0.1-0.5,0.2-1,0.4c0.4,0.3,0.6,0.5,0.9,0.6c4.4,1.3,7.7,4.4,11.3,7.1
	c2.1,1.6,3.5,3.7,4.4,6.2c2.9,7.9,4.1,16.1,3.6,24.4c-0.2,2.6-1,5.2-1.9,7.6c-1.2,3.4-2.6,6.7-4,10c-0.4,0.9-0.3,1.6-0.1,2.5
	c1.8,6.3,2.1,12.6-0.5,18.7c-0.3,0.8-0.8,1.5-1.3,2.4c1.5,2.9,0.9,6,0.1,9c-1.5,6.1-2.5,12.4-3.2,18.6c-0.1,0.5-0.1,0.9-0.1,1.5
	c3.9-0.5,6.5,1.4,8.9,4c3.2,3.5,6,7.2,8.3,11.4c2.2,3.9,1.9,7.6,0,11.4c-0.9,1.8-2.1,3.5-3.2,5.4c3,0.6,5,2.5,7.1,4.3
	c4.4,3.9,8.8,7.9,12.1,12.8c1.5,2.2,2.8,4.4,4.2,6.7c3.2,5.6,6.4,11.2,9.6,16.9c0.4,0.8,0.9,1.5,1.3,2.3c1.1,2.2,1.2,4.4,0.3,6.7
	c-0.5,1.2-0.9,2.3-1.5,3.8c1.4,0.2,2.5,0.5,3.7,0.6c6.1,0.6,12.3,0.8,18.2,2.4c2,0.6,4,1.1,5.9,1.9c2,0.8,3.4,2.3,4.2,4.3
	c1.1,3-0.4,5-3.5,4.7c-2.8-0.3-5.5-0.9-8.3-1.2c-2.6-0.3-5.2-0.5-7.9-0.7c-0.3,0-0.6,0.1-0.9,0.4c0.7,0.2,1.5,0.4,2.2,0.6
	c4.4,1.1,8.1,3.4,11.1,6.7c1.1,1.2,1.8,2.8,2.5,4.3c0.6,1.2,0.2,2-0.8,2.6c-1,0.6-2.1,0.8-3.2,0.4c-1.2-0.5-2.5-1.1-3.6-1.8
	c-5.9-4-12.6-6-19.5-7.6c-0.2,0-0.4,0-1,0.1c0.6,1.3,1.1,2.4,1.7,3.5c1.6,2.9,3.4,5.6,4.8,8.5c0.9,1.8,1.6,3.7,1.8,5.6
	c0.4,3.6-2.5,5.9-6,5.1c-3.3-0.7-5.8-2.6-7.7-5.3c-1.5-2.2-3.2-4.4-4.4-6.8c-2.1-4.1-5.9-4.5-9.7-4.8c-0.6-0.1-1.3,0.5-2,0.8
	c-4.3,2.2-8.7,4-13.5,4.7c-1.8,0.2-3.6,0.2-5.4,0.4c-3.2,5.6-7.4,10.4-11.6,15.2c-1.9,2.1-4.2,4-6.7,5.4c-5.2,3-10.5,5.7-15.8,8.4
	c-1.5,0.8-3.1,1.2-4.7,1.6c-2.1,0.5-3.3-0.1-3.8-2.2c-0.9-3.4-1.6-6.8-2.4-10.2c-0.2-0.9-0.5-1.8-0.9-2.7c-0.5-1.2-1.1-2.3-1.5-3.5
	c-2.1-5.8-5.8-8.3-12.1-9.4c-0.4-0.1-0.9,0.1-1.6,0.1c0.3,1.7,0.5,3.3,1,4.8c4.3,13.2,6.5,27,9.8,40.5c0.8,3.3,1.5,6.7,2.1,10.1
	c0.1,0.7,0,1.5,0,2.4c-3.7-0.7-6.6,1-9.4,1.6c-1,2.8-1.9,5.3-2.8,7.7c-0.4,0.9-0.4,1.6,0,2.5c0.5,0.9,0.7,1.9,1.1,2.9
	c2.4,6,1.6,11.7-1.5,17.2c-0.6,1-0.9,1.9-1,3.1c-1,10.2-2.2,20.3-3.3,30.5c-0.3,2.6-0.5,5.2-0.8,7.8c0.1,0.2,0.2,0.4,0.3,0.4
	c3.4,2.1,4.9,5.8,4,10.1c-0.1,0.6-0.3,1.2-0.5,1.9c-0.9,3.3-2.5,5.9-6.8,6.2c1.1,1.8,1.9,3.4,2.9,4.9c1.9,2.5,2.7,5.2,2.5,8.3
	c-0.3,4.3-0.6,8.6-1,12.9c-0.2,1.9-1,3.7-3.1,4.6c1,2,1.9,3.8,4.1,4.8c1.3,0.6,2.4,1.8,3.5,2.9c2.1,2,4.2,4,6.2,6
	c2.5,2.5,4.1,5.5,4.5,9c0.1,1.1,0.5,1.8,1.4,2.5c2.6,1.9,3.3,5,2.1,8.1c-0.3,0.8-1,1.4-0.5,2.4c0.4,0.9-0.4,1.5-1.3,1.6
	c-0.9,0.1-1.8,0-2.6-0.2c-5.3-0.8-10.5-0.2-15.7,0.8c-5.2,1-10.5,2-15.8,2.8c-6.7,1-13.1,0.1-19.4-2.5c-6.9-2.8-13.9-5.1-20.9-7.7
	c-1.8-0.7-3.6-1.4-5.3-2.1c-2.1-0.9-3.1-2.5-2.8-4.8c0.2-1.7,0.3-3.5,0.6-5.2c0.5-3.1,1.4-3.9,4.5-4.2c0.7-3.8,1.3-7.7,2-11.7
	c-0.7-0.2-1.3-0.5-2-0.6c-1.3-0.4-2.7-0.6-3.9-1c-3.2-1.1-4.2-2.7-3.7-6c0.5-3.5,1.1-6.9,1.9-10.4c1.2-5.4,2.5-10.9,4.7-16.1
	c0.2-0.5,0.3-1.1,0.3-1.6c-0.1-4.3-0.3-8.6-0.4-12.9c-0.1-2.8,1-5.3,2.7-7.5c1.8-2.4,3.7-4.8,5.5-7.2c0.6-0.8,0.9-1.6,0.6-2.6
	c-2.3-8-1.6-15.9,0.2-23.9c0.6-2.8,0.9-5.7,1.1-8.5c0.1-1.4-0.3-2.9-0.7-4.2c-0.2-0.8-0.8-1.5-1.5-2.1c-1.1-1-2.4-1.8-3.6-2.8
	c-2.5-2-3.7-4.7-3.7-7.9c0-1.7,0-3.5,0-5.5c-1.3-0.1-2.6-0.3-4.1-0.4c-0.2,1.1-0.4,2.1-0.7,3.1c-3.5,13.6-9.3,26.1-18.2,37.1
	c-4.1,5.1-9.6,7.9-15.9,8.8c-1.6,0.2-3.5-0.1-5.1-0.7c-2.8-1-5.4-2.4-8.4-3.8c-3.3,1.9-7.1,4-10.8,6.1c-2.1,1.2-4.2,2.3-6.3,3.4
	c-1,0.5-1.5,1-1.6,2.3c-0.3,4.9-2.6,8.4-7.3,10.3c-3.7,1.4-7.3,2.8-11.3,2.6c-1.5-0.1-2.7,1-2.5,2.5c0.4,3.1-0.5,6-1.5,8.9
	c-1.5,4.8-2.9,9.6-4.4,14.3c-3.8,0.3-6.1-2.4-9.2-4.3c-0.9,6.2-3,11.9-3.8,18.2c1.2-0.4,2.1-0.8,3-1c3.5-1,5.7,0.9,5.3,4.5
	c-0.2,1.5-0.5,3-0.9,4.5c-0.7,2.9-0.7,5.9,0.2,8.8c1.3,4.3,0.8,8.4-1.2,12.3c-1.5,2.9-2.1,6-3.2,9c-0.6,1.7-1.2,3.3-2,4.9
	c-0.8,1.8-2.3,2.8-4.3,3.1c-3.1,0.4-6.2,0.5-9.3-0.1c-6.3-1.1-12.1-3.2-17.3-7.1c-7.4-5.5-13.6-12-19-19.4
	c-3.6-4.9-5.8-10.4-6.6-16.5c-1.4-10-3-20-6.7-29.6c-1.1-2.9-2.5-5.7-3.7-8.5c-0.2-0.5-0.5-1-0.7-1.5c-1.7-2.9-1.6-5.5,0.8-8.1
	c1.3-1.4,2.2-3.1,3.4-4.6c1.4-1.8,3.1-2.9,5.4-3.1c0.6,0,1.3-0.2,1.7-0.7c2.1-2.6,5.1-3.7,8.2-4.6c0.5-0.1,1.1-0.3,1.8-0.5
	c0.3-1.2,0.6-2.5,0.9-3.8C154.3,596.8,154.5,596.7,156.6,597c-0.9,0.5-1.5,1.3-1.5,2.5c0,2.1,0,4.3,0,6.4c0,0.7,0.4,1.4,0.7,2.3
	c3.6-3.1,7.7-4.6,11.6-6.4c0.1,0.2,0.2,0.3,0.3,0.5c-3.9,2.3-7.7,4.6-11.6,6.9c1,3.1,2.1,5.8,4.1,8c1.5-1.4,2.7-2.7,4.1-3.8
	c1.3-1.2,2.8-2.2,4.2-3.4c-2.5,3-4.9,5.8-7.4,8.7c1.9,3.2,4,6.8,6.2,10.4c0.8-0.9,1.6-1.9,2.5-2.8c0.8-0.9,1.6-1.7,2.4-2.6
	c1.6-1.8,1.6-1.8,2.8-2.2c-2.2,2.8-4.3,5.5-6.5,8.1c-0.6,0.7-1,1.4-0.6,2.4c0.8,2.2,1.5,4.5,2.4,6.8c0.4,1.1,1.1,2.1,1.7,3.3
	c1.8-3.2,2.7-6.5,4.7-9.2c-0.1,0.9-0.4,1.7-0.7,2.5c-0.9,2.1-1.8,4.2-2.7,6.4c-0.2,0.6-0.5,1.4-0.3,1.8c0.9,1.7,1.8,3.5,3.4,5
	c1.7-4.4,3-8.7,5.2-12.7c-1.2,4.1-2.6,8-4,12c-0.2,0.6-0.6,1.5-0.4,2c0.8,1.3,1.6,2.7,3.2,3.4c1.7-0.9,2.5-2.5,3.5-4
	c4.8-7,8.1-14.6,10.8-22.6c0.8-2.4,2-4.8,3-7.3c-4.5-5.2-9.6-13.9-12.3-20.2c-1.8-4.2-2.3-8.4-1.3-12.8c0.3-1.2,0.6-2.3,1-3.4
	c-1.8-1.8-2.6-1.9-4.1-0.2c-3.1,3.7-7,6.5-10.7,9.5C166.5,595.8,161.9,597.4,156.6,597z M294.9,246.4c0.8,0.8,1.7,1.5,2.4,2.3
	c4.2,4.9,8.9,9.3,13.7,13.7c2.1,1.9,2.1,1.9,4.5,0.5c0.3-0.2,0.5-0.4,0.8-0.5c3.5-2.3,7.2-4,11.3-4.9c1.8-0.4,3.7-0.8,5.7-1.2
	c-1.1-2.7-3.7-4.7-3.9-8c-5.3,1.1-8.6-1.7-11.2-5.3c-1.9,0.2-3.4,0.5-5,0.6c-2.6,0.2-5.3,0.2-7.9,0.6
	C301.9,244.7,298.4,245.6,294.9,246.4c-0.5,0.1-1,0.1-1.6,0.2c-3.7,0.8-7.3,1.6-11,2.4c-0.3,0.1-0.7,0.3-1.1,0.5
	c2.1,2.7,4.1,5.4,6,7.9c0.3,0.4,0.6,0.7,1,1c3.7,2.8,6.7,6.4,9.4,10.1c1.5,2,3.4,3.5,5.6,4.8c2.8,1.6,5.4,3.3,8.2,5
	c0.8,0.5,1.7,0.9,2.6,1.1c1.3,0.3,2.1-0.2,2.1-1.5c0.2-3.6,0.1-7.2-2.6-10.1c-1.5-1.6-3.1-3.2-4.7-4.8c-3.3-3.4-6.6-6.7-9.8-10.2
	C297.3,251,295.5,249.1,294.9,246.4z M256.7,402.2c-2.9-0.2-4.3-2-5.1-4.6c-1.7-6-4.4-11.6-7.4-17.1c-0.4-0.8-0.9-1.5-1.3-2.2
	c-4.3,0.4-8.6,1.7-12.6-0.1c-6.2,4.1-12.2,8.1-18.2,12.1c4.8-5.1,9.8-9.9,16.6-12.6c-1.4-1.3-2.8-1.5-4.3-1.2
	c-2.6,0.6-5.3,1.3-7.9,2c-1.2,0.3-2.4,1-3.4-0.6c-0.1-0.2-0.7-0.3-1.1-0.2c-1.8,0.2-3.7,0.2-5.4,0.7c-4.8,1.5-7.7,5.2-10,9.4
	c-2,3.6-3.8,7.4-5.9,10.9c-2.5,4.3-5.3,8.5-7.9,12.8c-2.2,3.6-2.8,7.5-1,11.4c1.3,2.7,3.1,5.2,4.9,7.6c3.1,4.2,6.4,8.2,9.6,12.3
	c0.3,0.4,0.7,0.8,1,1.1c0.2-0.1,0.3-0.1,0.5-0.2c-0.4-1.7-1-3.4-1.2-5.2c-0.2-1.9-0.1-3.8,0-5.7c0.1-1.7,0.3-3.5,0.5-5.2
	c0.2,0,0.3,0,0.5,0c0.2,4.6,0.1,9.2,1.1,13.5c2.6-0.8,4.9-1.8,7.3-2.2c5.8-1.1,11.6-0.7,17.3,0.6c11.2,2.5,21.2,6.9,28.5,16.2
	c1.6,2,3.6,3.6,5.5,5.4c0.6,0.6,1.3,1,2,1.4c-1.2-5.1-2.2-10.1-2.9-15.1c0.4,0.4,0.6,0.9,0.7,1.4c1.4,4.5,2.8,9,4,13.5
	c0.4,1.5,1.2,2.6,2.6,3.2c1.6,0.8,3.1,1.7,4.7,2.3c3,1.2,6,2.2,9,3.2c4.3,1.4,8.5,3.2,12.3,5.7c4.5,2.9,7.9,6.6,10.1,11.6
	c0.3,0.6,0.6,1.2,1,1.9c2.3-1.2,4.1-2.9,5.5-4.8c4-5.3,7.8-10.7,10.6-16.8c3.6-7.7,7.1-15.3,11.2-22.8c2.4-4.4,3.2-9.2,3.2-14.1
	c0-0.7-0.2-1.6-0.7-2.1c-2.3-2.4-4.9-4.5-8.1-5.8c-0.7-0.3-1.4-0.5-2-0.6c-2.7-0.3-5.4-0.5-8.3-0.8c0.1,0.7,0.2,1.4,0.4,2
	c0.8,4,1.5,8,1.1,12.1c-0.1,1-0.3,2.1-0.6,3c-0.3,1-0.9,1.9-2.1,2.1c-1.3,0.2-1.9-0.7-2.4-1.6c-0.8-1.5-1.5-3-2.2-4.5
	c-0.3-0.8-0.7-1.4-1.6-1.2c-0.9,1.8-1.5,3.7-2.5,5.2c-1.5,2.3-4.1,2.5-6.2,0.6c-0.5-0.5-1-1-1.5-1.6c-3.3,2.7-3.3,2.7-8-0.6
	c-0.2,1.1-0.3,2.3-0.6,3.3c-0.6,1.9-2.1,2.2-3.5,0.9c-0.5-0.5-0.9-1.1-1.3-1.7c-2.7-3.8-4.3-8.2-5.4-12.7c-0.6-2.2-1.1-4.5-1.5-6.2
	c-2-0.9-3.6-1.5-5.1-2.4c-1.8-1-3.7-1.8-5.8-1.9c-1.9,0-3.2-1-3.9-2.7c-2.4-5.9-3.6-4.4-2.8-11.8
	C256.9,402.8,256.8,402.7,256.7,402.2z M303.1,552.5c-10.2-1.7-20.2-3.1-30.2-4.9c-10-1.8-20-4-30-6.1c-1.5,3.6-1.5,5.7,0.3,9
	c0.7,1.3,1.6,2.6,2.5,3.8c3.9,4.8,8.3,9,12.9,13.1c0.3,0.3,0.6,0.7,0.9,1.1c-7.9-4.6-15.2-9.7-18.9-18.4c-0.9,0.4-1.4,0.6-2,0.9
	c-3.5,1.7-3.7,2-3.4,5.8c0,0.2,0.1,0.5,0.1,0.7c0.5,5.4,2.8,10.1,5.2,14.8c0.6,1.3,1.3,2.5,2,3.7c-0.1,0.1-0.3,0.1-0.4,0.2
	c-5.4-5.7-9.2-12.2-9.4-20.5c-0.8,0.3-1.3,0.4-1.8,0.7c-5.5,3.3-11.1,6.6-16.6,10c-4.8,3-9.4,6.2-13.5,10.3
	c-3.2,3.1-6.9,5.7-11.4,6.8c-1.4,0.3-2.2,1.2-2.5,2.6c-0.8,3.5-1.1,7,0.3,10.6c2.2,5.7,5.3,10.9,8.5,16c2,3.2,4.7,5.8,7.7,8.1
	c1.3,0.9,2.7,1.5,4.2,1.5c2.9,0.1,5.7-0.5,8.2-1.8c-2.8-2.8-5.7-5.4-8.3-8.3c-2.6-2.8-5.5-5.4-7.3-8.9c3.9,3.2,7.5,6.7,11.3,10
	c1.7,1.5,3.4,2.9,5.2,4.2c0.8,0.6,1.9,1,2.8,1.1c3.4,0.2,6.6-0.8,9.7-2.1c3.2-1.3,5.3-3.4,5.8-6.9c0.2-1.6,1-2.9,2.3-3.8
	c5.1-3.3,10.3-6.7,15.5-10c0.5-0.3,1-0.6,1.6-1c-1.5-1.3-2.9-2.5-4.3-3.7c0.6-0.2,1,0,1.4,0.2c4.4,2.2,8.7,4.3,13.1,6.5
	c2,1,4.1,1.3,6.3,0.7c5.5-1.3,10.2-3.7,13.5-8.3c1-1.4,1.9-2.7,2.9-4.1C295.2,576.1,299.3,564.4,303.1,552.5z M255,283.6
	c5.3-0.8,10.3,0.3,14.9,3c4.6,2.6,9.3,5.2,14,7.9c6.4,3.8,11.7,8.8,16.1,14.8c2.8,3.9,4.7,8.1,5.2,12.9c0.1,1,0.3,2.1,0.5,3.2
	c3.1-2.6,6-5,8.9-7.3c3.3-2.8,5.4-6.2,6-10.5c1-6.1,0.6-12.1-0.5-18.1c-0.5-2.9-1.3-5.7-2.8-8.5c-2.8,1.7-5.1,0.4-7.4-1.1
	c-2.3-1.5-4.7-3-7.1-4.4c-2.8-1.5-5.1-3.4-7-6c-2.5-3.4-5.2-6.6-8.6-9.3c-0.9-0.7-1.6-1.6-2.2-2.5c-1.9-2.6-3.8-5.3-5.7-8
	c-0.4,0-0.8,0-1.2,0.1c-8.8,1.9-17.6,3.7-26.7,4c-8.9,0.3-17.9,0.8-26.8,1.1c-3,0.1-5.9-0.4-8.6-1.7c-0.5-0.2-1.1-0.3-1.7-0.5
	c-0.1,0.4-0.2,0.5-0.2,0.7c1,8.7,0.1,17.4-0.7,26c-0.4,4.1-0.7,8.3-0.9,12.4c-0.2,5.6,1.8,10.8,4,15.9c2.4,5.3,4.7,10.7,6.7,16.1
	c1.1,3,1.8,6.1,2.4,9.2c0.8,3.8,1.4,7.7,2.1,11.5c0.2,1.2,0.7,1.9,1.9,2.2c0.7,0.2,1.3,0.4,2.4,0.6c-2.4-3.1-2.6-6.3-1.9-9.6
	c1.6-8,2.9-16,4.5-24c0.9-4.7,1.9-9.4,3.1-14c1-4,2.9-7.6,6.1-10.3c2.6-2.3,5.5-4.1,8.9-5.5c-0.6-0.9-1.2-1.8-1.8-2.6
	c-0.9-1.2-1.2-2.6-0.8-4.1c0.7-2.5,1.5-5,2.3-7.6c0.7-2.3,2.3-3.7,4.4-4.8c3.3-1.6,6.8-2.1,10.5-1.7c2.9,0.3,5.9,0.3,8.8,0.5
	c3.3,0.2,6.7,0.4,10,0.6c0.6,0,1.2,0.2,1.9,0.4c-1.4,1-1.5,1.1-2.9,1.1c-2.3,0-4.6,0-6.9-0.1c-4.5-0.2-8.9-0.6-13.4-0.5
	c-6.9,0.2-10.4,2.2-11.5,8.4c0,0.2-0.1,0.3-0.1,0.5c-1.8,3.4-1.1,6.4,1.4,9.1C254.6,283.3,254.7,283.4,255,283.6z M364.8,322.4
	c-0.2,0-0.4,0-0.5,0c-0.1,0.8-0.2,1.7-0.3,2.5c-0.4,3.3-0.7,6.6-1.3,9.9c-1.4,7.3-2.8,14.6-4.3,21.8c-1.4,6.5-2.5,13-4.3,19.4
	c-3.4,11.4-8.4,22.2-13.8,32.8c-1.7,3.4-3.5,6.8-5.2,10.2c-1.3,2.7-1.9,5.6-1.5,8.6c0.2,1.8,0.1,3.6,0,5.4
	c-0.2,5.9-1.9,11.3-4.6,16.4c-2.5,4.6-4.9,9.2-6.9,13.9c-3.2,7.3-7.1,14.1-11.7,20.6c-2.2,3.1-4.5,6-7.8,8c-1.3,0.8-1.4,1.3-0.2,2.4
	c3.5,3.2,6.9,6.4,10.5,9.4c1.4,1.2,3.3,2,5,2.8c2.3,1.2,4.5,0.7,6.4-1c2.8-2.6,5.5-5.4,7-9c1-2.5,2.1-5,2.9-7.6
	c4.9-16,10.7-31.7,16.5-47.5c5.2-14.1,10.4-28.3,14.6-42.8c5.4-18.8,8.8-37.9,10.3-57.4c1-12.3,0.2-24.3-3.8-36.1
	c-5-15-11.3-29.5-17.3-44.1c-2.4-5.7-5.1-11.3-6.3-17.5c0-0.1-0.2-0.2-0.3-0.3c-8.5,0.8-12.6,2.8-15.4,6.2
	c2.9,5.4,5.6,10.8,8.6,16.1c2.7,4.7,5.5,9.3,8.5,13.9c4.1,6.2,7.6,12.6,10.1,19.5c1.7,4.6,3.3,9.3,4.9,14c1.6,4.9,3.1,9.9,3.5,15.1
	c0.2,1.8,0.3,3.6,0.4,5.5c-0.1,0-0.2,0-0.4,0C366.8,329.8,365.8,326.1,364.8,322.4z M311.1,636.7c2.8-0.7,5-1.2,7.2-1.8
	c10.6-2.8,21.1-3.2,31.5,1c0.2,0.1,0.5,0.2,0.7,0.2c4.8,1.6,9.7,2,14.6,1.7c2.4-0.1,3.8-1.2,4.6-3.5c0.7-2.1,1-4.1,0.6-6.3
	c-0.3-1.6-1-2.8-2.6-3.4c-2.6-1-4.7-2.6-6.8-4.5c-2.3-2.2-4.7-4.4-7-6.5c-0.3-0.3-0.5-0.7-0.8-1c4.4,2.5,8.4,5.6,13,8.1
	c1.6-12.2,3.1-24.2,4.7-36.4c-2.1,1.8-3.9,3.7-6.3,4.8c1.4-2.1,2.9-4,4.4-6c2.2-3,4-6.1,5.1-9.7c1.4-4.4,0-8.6-0.7-13.2
	c-1.6,2.6-3,4.9-4.4,7.2c0.3-6.2,3.9-11,6.2-16.3c-0.3-0.2-0.3-0.3-0.4-0.3c-0.6,0.1-1.3,0.2-1.9,0.4c-7.6,2.3-15.4,3.4-23.4,3.2
	c-12.2-0.4-24.4-1-36.6-1.5c-0.7,0-1.4,0-2,0c-0.8,5.8,0.6,10.2,5.6,13.4c4.6,3,8.8,6.6,13.2,9.9c3.8,2.8,7.7,5.5,11.5,8.2
	c0.4,0.3,0.7,0.6,1.1,0.9c-8.3-3.2-15.5-7.8-22.4-13.9c0,0.9,0,1.3,0.1,1.7c0.8,2.9,0.5,5.8,0.1,8.8c-0.8,5-1.7,9.9-1.7,15
	c0,6.3,1.4,12.2,5.2,17.3c0.3,0.4,0.5,0.9,0.9,1.6c-3-1-4.8-2.6-6.1-5.1c-1.7,2.5-3.2,4.9-4.9,7.2c-1.2,1.7-2.2,3.4-2.2,5.5
	C311,627.6,311.1,631.9,311.1,636.7z M378.2,519.9c-1.5,0.9-2.7,1.9-4.1,2.4c-5.6,2-11.3,4-17,5.7c-3.6,1.1-7.4,1.6-11.2,2.4
	c-6.6,1.4-13.3,2.7-20.1,3c-12.4,0.5-24.5-1.8-36.2-5.6c-8.9-2.8-17.5-6.4-26.4-9.1c-8.7-2.6-17.5-4.7-26.4-6.9
	c-7.1-1.7-14.3-3.2-21.4-4.9c-3.6-0.9-6.9-2.3-10-4.5c-0.8-0.6-1.7-1.1-2.7-1.7c-2.8,3.4-5.4,6.7-7.1,10.6c-1.8,4.4-1.4,5.6,2.6,8
	c11.8,7.1,24.3,12.7,37.4,16.8c11.4,3.6,23.1,6.2,34.9,8.2c9.8,1.6,19.5,3.5,29.3,4.6c14.6,1.7,29.3,2.2,43.9,2.7
	c6.8,0.2,13.6,0.3,20.3-1.2c5-1.1,9.9-2.6,14.8-3.9c1.6-0.4,3.2-0.9,5-1.4C382,536.7,380.1,528.4,378.2,519.9z M406.5,316.8
	c-0.5-0.3-0.7-0.4-0.9-0.5c-0.7-0.3-1.3-0.5-2-0.7c-10.9-3.2-19.5-9.7-26.8-18.1c-3.2-3.6-5.7-7.7-7.8-12c-1.3-2.6-1.6-2.9-4.1-3.5
	c0.2,0.7,0.5,1.2,0.7,1.8c1.9,5.1,3.8,10.2,5.8,15.2c5.4,13.9,7.2,28.2,5.8,43c-1.1,11.6-2.7,23.1-5.2,34.5
	c-2.3,10.6-4.8,21.2-8.3,31.4c-4.5,13.3-9.4,26.4-14.2,39.7c-0.3,0.7-0.5,1.5-0.8,2.4c5.7,1.9,11.4,0.6,17.1,1.3
	c1.7-4.7,5.4-7.3,9.6-9.5c1.9-1,3.6-2.4,5.1-3.9c3.7-3.8,6.2-8.3,7.3-13.5c0.8-3.7,1.1-7.6,1.5-11.4c0.6-6,1-12.1,1.5-18.1
	c0.1-1,0.2-1.9,0.3-2.9c-0.2,0-0.3-0.1-0.5-0.1c-0.8,1.6-1.6,3.2-2.4,4.8c0-3.8,0.8-7.2,2.9-10.3c2.7-3.9,5.4-7.9,8-11.9
	c1-1.6,1.7-3.2,1.6-5.1c0-0.8,0.1-1.6,0.2-2.4c1.2-5.9,2.3-11.7,3.7-17.5c0.8-3.4,1.6-6.9,1.4-10.4
	C406.1,331.7,405.6,324.3,406.5,316.8z M340.3,200.5c1.1,0.5,1.8,0.8,2.4,1c4.9,1.9,9.8,3.8,14.8,5.5c9.5,3.3,18.2,8.1,25.8,14.7
	c0.4,0.3,0.9,0.8,1.4,0.8c1.7,0.1,3.3,0.1,5,0c5.1-0.6,10.3-1.5,15.4-1.9c9.6-0.6,18.5-3.4,26.4-8.9c7.2-5,14.5-9.5,22.9-12.2
	c0.7-0.2,1.5-0.6,1.8-1.1c1.1-2,2.1-4.1,1.7-6.6c-1.4-8.9-3.1-17.7-6.4-26.2c-0.3-0.7-0.6-1.4-0.9-2.1c-0.9,0.3-1.6,0.8-2.1,0.6
	c-1-0.3-1.7,0-2.5,0.3c-4.5,2.1-9.1,4.3-13.6,6.4c-2.2,1.1-4.4,2.2-6.7,3.1c-8.6,3.7-17.4,6.6-26.4,9.4c-11.8,3.7-23.7,7.2-35.8,9.6
	c-7,1.4-13.8,3.2-20.4,6C342.4,199.5,341.6,199.9,340.3,200.5z M310.9,377.8c2.5-3.5,3.1-6.6,1.8-10.3c-0.9-2.6-2.1-5.2-3.5-7.6
	c-4-6.4-5.9-13.4-6.1-20.9c0-1.4-0.4-2.5-1.3-3.5c-6.6-7-14.7-11.1-24.3-12c-7.5-0.7-15,0.3-22.4,1.7c-4.3,0.8-8.5,2-12.8,3.1
	c-2.7,0.7-4.4,2.2-5.1,5.1c-1.2,4.6-2.6,9.2-3.8,13.8c-0.1,0.4,0,0.8,0.1,1.2c1.2,5.6,2.4,11.1,5,16.2c2,4,4,8,6.2,11.9
	c3.7,6.6,7.1,13.4,9.2,20.7c0.2,0.7,0.6,1.3,0.9,2c0.2,0,0.3-0.1,0.5-0.1c0.6-2,1.4-3.9,1.8-5.9c0.8-4.4,0.5-8.8-2.2-12.7
	c5.2-0.8,10.1-2.8,14.6-5.5c5.3-3.3,10.3-7,15.4-10.6c1-0.7,2.1-1.3,3.6-2.3c-0.5,2,0.7,1.9,1.6,2c3.2,0.4,6.5,0.8,9.8,1
	c3.5,0.3,6,1.5,7.4,5C308.1,372.8,309.6,375.2,310.9,377.8z M431.8,318.7c1.5-3.9,3.1-7.6,4.5-11.4c0.6-1.8,1-3.7,1.1-5.6
	c0.3-7.4-0.7-14.7-3.1-21.7c-0.6-1.8-1.6-3.8-2.9-5.1c-3.3-3.2-6.9-6.1-11.3-7.8c-3.1-1.1-6-2.5-9-3.9c-4.4-2.1-8.7-4.3-13.1-6.5
	c-7.4-3.7-14.4-7.8-20.8-13.1c-3.3-2.7-6.7-5.1-10.3-7.4c-4-2.5-8.1-4.8-12.2-7.1c-2-1.1-4.1-1.9-6.4-3c0,0.7,0,1.1,0,1.5
	c0.5,4.2,1,8.4,1.4,12.6c0.3,3.3,0.8,6.5,2,9.6c3.8,9.2,7.6,18.4,11.4,27.6c0.3,0.8,1.1,1.6,1.9,2c8.2,4.1,16.8,7,25.7,8.7
	c6.2,1.2,12.4,2.3,18.6,3.4c1.2,0.2,2.3,0.2,3.6-0.5c-4.5-4.8-9.1-9.3-13.4-14.2c-4.2-4.9-8.7-9.6-12.2-15c0.4,0.1,0.8,0.3,1,0.6
	c3.5,3.6,6.9,7.3,10.4,10.9c6,6.1,12.1,12.2,18.2,18.4c3.5,3.6,5.9,7.7,6.5,12.8c0.2,2.2,0,4.4,0,6.2
	C426.3,313.4,428.9,315.9,431.8,318.7z M434.8,485.1c0.6,0.1,0.9,0.2,1.2,0.2c0.6,0,1.1,0,1.7-0.1c6.7-0.7,12.9-3,18.3-7.1
	c7.9-6,14.1-13.3,18.1-22.5c1.3-3.1,1.2-5.7-0.5-8.6c-3.3-5.5-6.5-11.2-9.6-16.8c-2.9-5.2-6.3-10-10.5-14.1c-2.6-2.5-5.1-5-7.8-7.4
	c-0.8-0.7-1.9-1.1-2.9-1.6c-1.1-0.5-1.9-0.1-2.7,0.8c-2.6,2.8-5.3,5.5-8,8.2c-1,1-1.9,2.2-3.1,2.5c-2.3,0.7-2.7,2.4-2.9,4.4
	c-0.2,2.5-0.5,4.9-0.7,7.4c-0.1,1.1-0.3,2.2-0.4,3.4c2.1,1.1,3.4,3.1,4.2,5.2c1.5,4,3,8.1,4.3,12.2c1.3,4.4,1.9,9,2,13.7
	C435.4,471.6,435.9,478.3,434.8,485.1z M337,199.8c0.8-0.3,1.2-0.4,1.5-0.6c5.3-3.1,11-5,16.9-6.4c4.6-1.1,9.3-2.1,14-3.1
	c12.2-2.8,24.2-6.5,36.1-10.4c10.3-3.3,20.3-7,29.8-12.3c2.4-1.4,5.1-2.3,7.7-3.4c1.2-0.5,2.5-1,3.9-1.6
	c-4.4-6.3-8.3-12.7-14.4-17.7c-4.8,2.9-9.7,5.8-14.5,8.8c-3.8,2.4-7.7,4.4-11.9,6.1c-10.8,4.3-21.9,8-32.9,11.5
	c-9.2,3-18.5,4-28.1,3c-2.9-0.3-5.8-0.6-8.8-0.9C335.5,181.8,335.1,190.7,337,199.8z M252.1,226.5c0.1,0.1,0.2,0.2,0.2,0.3
	c4.4-0.6,8.8-1,13.2-1.7c12.7-2,25.3-4.5,38.2-5c0.6,0,1.2-0.3,1.8-0.6c1.9-1.2,4-1.9,6.2-2.4c4.7-1.1,9.4-1.5,14.2-1.5
	c4.4,0,8.8,0.1,13.1,1.1c3.5,0.8,6.2,2.3,7.7,5.8c0.2,0.5,0.6,1,1,1.2c2.6,1.4,5.2,2.7,7.9,4c8.7,4.1,16.9,9.1,24.4,15.1
	c5.7,4.6,12,8.1,18.5,11.4c1.5,0.7,3,1.4,4.6,2.2c0-0.4,0.1-0.7,0.1-0.9c-1-3.6-2.3-7.1-4.6-10.2c-3.7-5.1-7.1-10.4-10.7-15.6
	c-1.2-1.7-2.5-3.3-4-4.7c-6.5-6.1-13.9-11-22.3-14.2c-6.8-2.6-13.6-5-20.4-7.7c-3.6-1.4-7.2-1.9-11-1.6c-8.2,0.5-16.4,1.5-24.4,3.5
	c-11,2.8-21.9,5.8-32.8,8.9c-6.9,1.9-13.1,5.4-18.5,10.2C253.7,224.8,252.9,225.7,252.1,226.5z M351.6,376.8c0.5-1.6,1-3,1.3-4.5
	c1.4-6.5,2.8-13.1,4.1-19.7c1.4-6.9,2.9-13.9,4.3-20.9c0.4-2,0.4-2.2-1.4-3c-2.2-1.1-4.5-2.2-6.8-2.7c-8.8-2.2-17.8-2.8-26.8-1.2
	c-1.3,0.2-2.6,0.4-3.7,0.6c-0.5,1.5-0.9,2.8-1.2,4c-0.1,0-0.2,0-0.3-0.1c0.2-1.2,0.3-2.4,0.5-3.6c-1.8-0.1-3.5,0.1-4.9-0.4
	c-1.5-0.5-2.8-1.7-4.3-2.7c-0.9,0.8-2,1.8-3.1,2.7c-2.6,2-4.1,4.5-4,7.9c0,0.9-0.2,1.9-0.1,2.8c0.1,1.3,0.5,2.6,0.6,4
	c0.4,6.6,2.1,12.9,5.3,18.7c0.7,1.3,1.7,2.2,3.3,2.5c3.9,0.6,7.9,1.2,11.8,2C335.8,364.8,344.9,368.2,351.6,376.8z M362.1,327.4
	c0.3-2.8,0.6-5.3,1-7.8c0.3-1.8,0.1-3.5-0.5-5.2c-1.7-4.7-3.3-9.5-5-14.2c-2.7-7.5-6.5-14.4-11-20.9c-2.2-3.1-4.2-6.4-6.1-9.7
	c-1.9-3.3-3.5-6.8-5.3-10.2c-1.1-2.1-1.1-2.2-3.5-1.5c-2.1,0.6-4.3,1.2-6.4,2.1c-3.3,1.3-6.6,2.9-9.8,4.3c-0.5,0.2-0.9,0.5-1.4,0.8
	c0.3,0.4,0.4,0.7,0.6,0.9c2.7,2.6,3.5,6,3.6,9.6c0.1,1.6-0.5,3.2-0.2,4.7c0.4,1.6,1.6,2.9,2.2,4.5c2.1,6.1,2.9,12.4,2.7,18.8
	c-0.3,7-2.7,12.9-8.6,17.1c-0.2,0.2-0.3,0.5-0.5,0.7c1.5,1.8,3.4,2.1,5.5,2c1.7-0.2,3.5-0.3,5.2-0.6c8.4-1.5,16.8-1.2,25.2,0.3
	C354.1,323.8,358.1,325.1,362.1,327.4z M403,512.9c0.8-0.4,1.4-0.6,2-0.8c14-7.5,13.1-6.7,22-17.8c1.3-1.7,2.7-3.4,3.9-5.2
	c0.6-1,1.4-2,0.8-3.3c-0.1-0.3,0.1-0.9,0.3-1c1-0.6,0.9-1.7,0.9-2.6c0.2-4.2,0.2-8.4,0.4-12.7c0.5-9.9-1.9-19.3-5.6-28.4
	c-0.5-1.3-1.2-2.6-2-3.8c-1.3-1.9-2.5-2.2-4.5-1c-1.4,0.8-2.7,1.7-3.8,2.8c-2.8,2.7-6.1,4.3-9.7,5.5c-1.6,0.5-3.1,1.3-4.6,1.9
	c-1,0.4-1.4,1.1-1.8,2.1c-2.5,7.4-3.5,15.1-3.2,22.9c0.1,3.3,0.5,6.7,1.2,9.9c1.4,5.8,2.2,11.6,2.6,17.5
	C402.1,503.4,402.5,507.9,403,512.9z M232.6,344.5c0.2-1.2,0.4-2,0.6-2.8c0.7-3.2,1.5-6.4,2.2-9.5c0.6-2.7,2.3-4.5,4.9-5.4
	c0.8-0.3,1.7-0.5,2.5-0.8c8.9-2.7,18-4.1,27.3-4.7c12.1-0.8,22.6,3,31.7,10.8c0.3,0.2,0.6,0.3,1,0.5c1-4.3,0.5-8.3-0.2-12.3
	c-0.4-2.6-1.4-5.1-2.8-7.3c-3.7-5.6-7.8-10.8-13.5-14.3c-6.3-3.9-12.7-7.6-19.2-11.3c-1.4-0.8-2.9-1.4-4.4-1.8
	c-4.9-1.4-9.4-1.4-13.8,1.9c-4.8,3.7-8.5,7.9-9.7,14c-0.5,2.6-1.3,5.1-1.8,7.7c-1.2,6.2-2.2,12.4-3.3,18.6
	c-0.7,3.8-1.5,7.5-2.2,11.3C231.6,340.9,231.3,342.6,232.6,344.5z M331.4,426.7c-0.3-4.6,1.4-8.3,3.3-11.9c0.9-1.8,1.9-3.7,2.9-5.5
	c4.9-9.1,8.8-18.6,12.6-28.2c0.3-0.8,0.6-1.6,0.7-2.1c-1-1-1.8-1.6-2.4-2.4c-2-2.5-4.4-4.6-7.2-6.2c-3.7-2.1-7.6-3.6-11.8-4.6
	c-5.3-1.3-10.6-2.3-15.9-3.5c-0.1,0-0.2,0.2-0.4,0.3c0.3,0.8,0.7,1.7,1,2.6c1.7,4,1.8,8-0.4,11.8c-1.6,2.7-3.4,5.3-5.2,7.9
	c-1.9,2.6-3,5.2-1,8.3c1.1,1.8,2,3.8,3,5.7c1.1,2,1.7,4.1,0.9,6.4c-0.1,0.4,0,1,0.2,1.3c0.4,0.8,0.9,1.7,1.5,2.4
	c2.5,3.3,5.6,5.9,8.9,8.2c0.9,0.6,1.9,1.5,2.1,2.4c0.2,0.9-0.4,2-0.6,2.9C326.1,423.9,328.6,425.2,331.4,426.7z M417.3,263.5
	c1.5-0.7,2.5-1.3,3.6-1.7c1.6-0.7,2.9-1.6,3.6-3.3c0.9-2.3,1.8-4.6,2.7-6.9c0.1-0.4,0.2-0.8,0.3-1.7c-1.1,1-1.8,1.7-2.6,2.4
	c-0.4-1.4-0.5-1.8,0.6-2.5c1.3-0.8,2.6-1.5,4-2c3.1-1.1,4.7-3.3,5.2-6.5c0.2-1.6,0.4-3.2,0.7-4.7c0.1-0.7,0.4-1.4,0.5-2.1
	c0.2,0,0.3,0.1,0.5,0.1c0.1,0.8,0.2,1.5,0.3,2.4c1.7-0.9,3.2-1.6,4.6-2.4c2.5-1.5,2.8-2.6,1.5-5.1c-0.3-0.6-0.7-1.3-1-1.9
	c-1.7-3.3-2-6.7-0.6-10.2c1.2-3.2,2.5-6.4,3.7-9.6c0.3-0.7,0.6-1.4,0.8-2.1c-1.6,0.4-2.8,1-4,1.7c-2.8,1.8-5.5,3.8-8.3,5.6
	c-7.4,4.8-15.2,8.3-24.1,9.2c-7.4,0.7-14.9,1.2-22.1,2.9c0,0.2,0,0.3,0.1,0.4c4.4,6.2,8.8,12.3,13.1,18.5c2.3,3.3,4.4,6.8,4.7,11.1
	c0.1,1.2,0.4,2.6,1.7,3.2C410.4,260.1,413.9,261.9,417.3,263.5z M385.7,148c-13.6,4.5-27,4.4-40.4-0.3c-5.1,4.6-9.5,16.5-8.8,23.6
	c0.6,0.1,1.2,0.3,1.8,0.4c10.2,1.1,20.4,1,30.4-1.6c12.6-3.3,24.9-7.6,37-12.3c3-1.1,5.8-2.7,8.5-4.3c5.5-3.2,10.9-6.6,16.4-9.9
	c0.2-0.1,0.3-0.3,0.6-0.8c-2.9-1.7-5.6-3.4-8.4-5.1c-3.7-2.1-7.4-4.1-11-6.3c-1.7-1-3.1-2.4-4.6-3.7c-0.1,0.3-0.2,0.4-0.2,0.5
	c0.1,0.8,0.2,1.6,0.3,2.4c0.7,5.9,0.4,11.8-1.1,17.6c-0.5,1.9-1.5,3.7-2.5,5.3c-1.2,1.9-3.2,2.5-5.5,2.1c-2.5-0.4-4.8-1.3-6.7-2.9
	C389.4,151.3,387.5,149.6,385.7,148z M330.1,231.1c-1.4-0.8-2.3-1.5-3.2-1.9c-6.5-2.7-13.1-5-19.9-6.6c-0.8-0.2-1.7-0.3-2.6-0.3
	c-4.3,0.2-8.6,0.3-12.9,0.9c-11.9,1.6-23.8,3.5-35.7,5.3c-9.9,1.4-18.8,5.3-26.9,11.2c-4,2.9-7.9,5.9-12.5,7.9
	c-0.1,0-0.2,0.2-0.3,0.4c1.2,0,2.4,0,3.5,0c9.1,0.3,18-0.9,26.7-3.3c7.9-2.1,15.8-3.8,23.9-4.6c11-1.1,22-2.8,32.8-5.1
	c8.3-1.8,16.8-3.1,25.3-3.6C328.8,231.5,329.1,231.4,330.1,231.1z M304.6,387.9c-1.3-0.4-2.4-0.8-3.5-1c-3.6-0.9-7.1-0.6-10.6,0.4
	c-6.6,1.9-12.5,4.8-17,10.1c-1.7,2-3.3,4-5,6.1c-0.1-0.2-0.2-0.4-0.1-0.5c2.1-4.8,4.8-9.2,9.1-12.4c5-3.6,10.8-5.5,16.9-6.2
	c3.8-0.4,7.5,0,10.8,2.2c1.5-2.6,4-4.1,5.1-6.7c-1.6-1-3.1-1.9-4.6-2.8c-2.2-1.4-4.7-2.1-7.3-1.7c-8.6,1.5-17.2,3.1-25.2,7.2
	c-4.2,2.1-7.3,5-9.7,8.9c-1.8,3-3.7,5.9-5.5,8.7c0.3,2.1,0.5,4,0.9,6c0.3,1.4,0.7,2.8,1.2,4.1c0.4,1.1,1.1,2.1,1.5,3.2
	c0.5,1.3,1.4,2.1,2.9,2.1c2.2,0,4,0.8,5.8,1.9c0.9,0.5,1.8,0.9,2.9,1.5c0.2-1.1,0.3-1.9,0.4-2.7c0.1-1,0.2-2.1,0.3-3.1
	c0.1-1.6,0.9-2.7,2.4-3.2c0.7-0.3,1.5-0.5,2.3-0.8c4.4-1.5,8.7-3.1,13.1-4.6c3.4-1.2,6.8-2.4,10.2-3.3c2.2-0.6,4.5-0.7,7-1.1
	C306.9,396.2,304.8,392.5,304.6,387.9z M176.8,661.5c0.3-1.5,0.4-3.2,0.9-4.7c0.5-1.6,0-2.6-1-3.8c-4.1-5.1-8-10.5-9.9-16.8
	c-1.8-6-4.4-11.6-8.1-16.7c-3-4.1-4.7-8.7-5.6-13.6c-0.1-0.5-0.3-1-0.6-1.7c-2.2,1.1-4.2,2-6.1,3.1c-1.8,1.1-2.9,2.9-3.3,5.1
	c-0.5,2.3-0.5,4.6,0.2,6.9c1.6,5.5,3,11.1,4.9,16.5c2.5,6.9,4.2,13.9,5.6,21c0.7,3.9,1.7,7.8,2.8,11.6c1,3.3,3.1,6.1,5.6,8.7
	c0.8-0.9,1.6-1.6,2.1-2.4c1-1.8,2-3.6,2.8-5.5C168.9,664.9,171.8,662,176.8,661.5z M281.2,522c5.8,2.4,11.5,4,17.2,5.4
	c12.5,3.1,25.1,4.5,37.9,2.1c1.6-0.3,3.2-0.6,4.8-1c-3-6.9-6-13.5-8.8-20.2c-0.8-1.8-2-2.4-3.7-2.8c-1.7-0.5-2.7,0.2-3.7,1.3
	c-1.9,2-4.3,2.7-7,1.6c-1.8-0.8-3.6-1.6-5.3-2.7c-1.9-1.2-3.5-2.7-6-2.6c-0.7,0-1.5-0.5-2.3-0.7c-2.3-0.8-2.3-0.9-3.8,0.9
	c-5.4,6.7-11.5,12.5-18.3,17.7C281.9,521.2,281.6,521.5,281.2,522z M316.8,671.9c2.8,1,5.4,1.9,8.1,2.9c0.2-1.9,0.4-3.4,0.7-5
	c0.2-1.5,0.4-3,0.7-4.5c0.3-1.5,0.6-2.9,0.9-4.4c0.2,0,0.3,0.1,0.5,0.1c-0.7,4.7-1.4,9.4-2.1,14.3c3.1,1.6,6.2,3.2,9.6,5
	c0.1-1.4,0.1-2.3,0.1-3.3c0-4.6-0.1-9.3,1.4-13.7c1.6-4.7,3.5-9.2,5.3-13.8c0.3-0.8,0.7-1.5,1.1-2.4c-6.4-3.6-13.5-5.6-18.9-10.9
	c-2,0.5-4.1,1-6.1,1.5c-2.8,0.7-5.6,1.9-8.6,1.2c-0.2,0.7-0.4,1.3-0.6,2c-1.3,6.6-2.7,13.1-4,19.7c-0.4,2-0.6,3.9-0.8,5.9
	c-0.2,1.6,0.6,2.6,2.1,3c0.8,0.2,1.6,0.4,2.6,0.7c0.5-3.7,0.7-7.2,2.2-10.5c0.1,0.5,0.2,0.9,0.1,1.4c-0.2,2.6-0.3,5.3-0.5,7.9
	c0,0.8,0,1.7,1,1.9c1.4,0.3,2.7,0.6,4.1,0.9c0.5-2.1,1-4,1.4-5.8c0.5-1.9,1-3.8,1.5-5.7c0.2,0,0.4,0.1,0.6,0.1
	C318.6,664.1,317.7,667.9,316.8,671.9z M285.7,483.3c0.1-0.1,0.1-0.2,0.2-0.2c-2-1.1-3.9-2.4-5.9-3.4c-7.5-3.8-15.1-7.6-22.7-11.3
	c-6.1-3-12-6.3-17.2-10.8c-3.5-3-7.6-4.9-12.1-6c-5.7-1.4-11.4-2.2-17.3-2.2c-1.2,0-2.4,0.1-3.5,0.5c-1.6,0.5-1.6,1.7-0.2,2.9
	c0.4-0.8,0.8-1.6,1.2-2.5c0.4,0.4,0.5,0.8,0.5,1.1c0,2.1-0.3,4.1-0.1,6.1c0.2,2.5,0.7,4.9,1.2,7.3c0.1,0.6,0.6,1.2,1,1.5
	c5.2,3.8,10.8,6.9,17.3,8.2c7.1,1.4,14.4,2,21.6,2.7c7.9,0.8,15.7,1.6,23.5,3.2C277.4,481.4,281.5,482.4,285.7,483.3z M389.4,498.7
	c0.8-3.9,1.4-7.2,1.4-10.6c0-5.6,0-11.2,0-16.7c0-5.5,0.5-11,1.9-16.3c1.3-4.6,1.9-9.4,1.9-14.2c0-4.3,0.4-8.6,1.4-12.8
	c2.5-10,4.3-20.1,5.5-30.3c0.8-6.9,0.6-13.7-0.1-20.5c-0.1-0.5-0.2-1-0.3-1.6c-2.2,3.3-4.2,6.4-6.3,9.3c-1,1.5-1.6,3.1-1.8,4.9
	c-0.9,8.3-1.2,16.7-1.4,25.1c-0.1,6.4-1.3,12.7-4.6,18.4c-1.5,2.5-2.6,5.1-3.3,7.9c-1.4,5.2-2.7,10.3-3.1,15.7
	c-0.5,7.6,0.1,15.1,1.1,22.7c0.7,5.9,2.7,11.3,5.9,16.3C388.1,496.5,388.6,497.4,389.4,498.7z M310.7,439.9c0.3-0.6,0.6-1,0.6-1.5
	c0.1-2.3,0.4-4.6,0.2-6.9c-0.5-3.7-1.4-7.4-2-11c-0.2-1.2-0.8-2.6,0.3-3.8c1.6,0.9,1.3,2.7,2,3.8c3.5-0.2,6.8,1.4,10.5-0.4
	c-0.9-0.8-1.6-1.3-2.2-1.8c-1-0.8-2.1-1.5-3.1-2.3c-3.5-3-6.4-6.4-7.3-11.2c-0.4-2.2-0.4-2.3-2.7-2.2c-0.9,0-1.7,0.1-2.6,0.3
	c-4,0.6-7.7,1.9-11.4,3.4c-4.5,1.7-9,3.3-13.5,4.8c-3.3,1.1-3,1.1-3.8,4.4c-1,4,0.2,7.4,1.4,11c1.5,4.2,2.9,8.4,5.4,12.2
	c0.5,0.7,1,1.4,1.8,2.5c0.2-1.1,0.3-1.6,0.3-2.2c-0.1-3.3-0.3-6.7-0.5-10c-0.1-1.1-0.7-2.3,0.1-3.5c1,0.4,1.1,1.2,1.2,2
	c0.3,2,0.8,4.1,0.9,6.1c0.2,2.5,1.7,3.9,3.6,5c1.3,0.8,2,0.6,2.7-0.8c1.2-2.2,1.7-4.5,1.2-6.9c-0.3-1.6-0.7-3.3-1.1-4.9
	c-0.2-0.9-0.6-1.8,0.8-2.7c0.5,0.9,1,1.6,1.3,2.5c1,3.4,1.5,6.8,0.6,10.4c-0.4,1.5,0.6,2.8,2.5,3.5c1.2,0.5,2,0.2,2.9-1.3
	c0.5-0.9,0.9-1.9,1.2-2.8c1.3-4.2,0.9-8.4,0-12.5c-0.2-1.1-0.7-2.1,0.1-3.3c1.1,0.6,1.6,1.5,1.8,2.5c0.4,1.6,1,3.3,0.9,4.9
	c-0.3,3.6,1.1,6.5,3.2,9.1c0.5,0.7,0.9,1.5,1.4,2.2C309.8,438.9,310.2,439.3,310.7,439.9z M162.8,678.2c6.5,7.8,13.4,14.6,22.6,18.4
	c2.3,1,4.7,1.5,7.2,1.1c3.5-0.6,6.6-1.9,7.9-5.6c0.3-0.8,0.7-1.6,1.1-2.4c2-3.8,2.5-7.7,1.3-11.8c-1-3.1-0.9-6.3-0.2-9.5
	c0.2-1,0.5-2,0.7-3c0.1-1,0-2,0-3c-2-0.2-3.4,0.7-4.8,1.3c-2,1-4,2-6,3c-2.6,1.2-5.3,1.4-8.2,0.9c-2.6-0.4-4.8-1.6-7-2.9
	c-1-0.6-2-0.8-2.9-0.2c-1.3,0.8-2.7,1.8-3.7,2.9c-1,1.2-1.7,2.7-2.4,4.1C167.2,674.2,165.7,676.6,162.8,678.2z M400.7,514.2
	c0-1.3,0.1-2.3,0-3.3c-0.3-3.4-0.6-6.8-0.9-10.3c-0.5-6.4-1.2-12.7-2.7-18.9c-1.9-8.4-1.7-17,0.1-25.4c1.4-6.5,3.3-12.8,5.4-19.1
	c1.7-5.3,3.1-10.6,3.8-16c1.4-10.4,1.8-20.8,0.9-31.3c-0.8-10-0.3-19.9,2.4-29.7c1.8-6.7,2.1-13.4,0.8-20.2
	c-1.5-7.6-1.7-15.2-0.1-22.8c0.5-2.5,1-5.1,1.5-7.8c-0.8-0.1-1.5-0.2-2.4-0.4c-0.4,3.3-0.7,6.4-1,9.5c-0.6,5.3-0.2,10.5,0.2,15.8
	c0.5,6.1-0.3,12-2,18c-2.6,9-4.2,18.1-2.7,27.6c0.6,4.1,0.8,8.3,0.5,12.4c-1,10.4-2.5,20.8-5,30.9c-1.5,6.1-2.6,12.1-2.7,18.4
	c-0.1,3.6-0.3,7.4-1.2,10.9c-2.2,8.1-2.7,16.3-2.4,24.7c0.3,7.3,0.3,14.7-1.2,21.9c-0.6,2.7-0.7,5.5-0.2,8.3
	c0.6,3.1,1.4,6.2,2.2,9.3C396.6,516.4,398.5,515.1,400.7,514.2z M422.6,384.7c-4.8,0-9.1,0-13.7,0c0.1,1.3,0.2,2.3,0.2,3.3
	c1.3,14.1,0.2,28-2.7,41.8c-0.9,4.2-2.4,8.3-3.6,12.4c-0.3,0.9-0.4,1.8-0.7,2.9c4.8-1.2,8.6-3.5,12.1-6.3c2.7-2.1,5.1-4.6,8.6-5.4
	c-0.3-5.4,0.6-10.5,1.5-15.6c0.8-4.3,1.2-8.7,0.7-13.1C424.5,398,423.5,391.3,422.6,384.7z M304.8,499.4c-3.1-3.2-6.2-6.4-9.3-9.6
	c-1.2-1.3-2.8-2-4.5-2.1c-1.6,0-2.9-0.5-4.3-1.1c-1.5-0.6-3.1-1.2-4.7-1.6c-8.2-2.2-16.5-3.5-24.9-4.4c-8.4-0.9-16.8-1.8-25.2-2.8
	c-7.6-1-14.5-3.5-20.3-8.8c-0.2-0.2-0.5-0.2-1-0.3c0.2,2.3,0.8,4.5,0.6,6.6c-0.3,3.4,1.6,5.2,4,6.7c1.3,0.8,2.7,1.5,4.1,2
	c4.6,1.8,9.4,2.7,14.2,3.3c6.5,0.9,13,1.6,19.5,2.4c5.9,0.7,11.9,1.5,17.8,2.2c2.9,0.4,5.9,0.5,8.8,1
	C288.1,494.2,296.4,496.5,304.8,499.4z M212.6,258.6c-0.1,0-0.3-0.1-0.4-0.1c-0.7,0.9-1.4,1.7-2,2.6c-6.3,8.6-12.2,17.5-16.1,27.6
	c-2.5,6.5-5.1,12.9-7.7,19.3c-0.2,0.4-0.2,0.9-0.5,1.7c3.3,0.4,6.5,0.7,9.6,1c3.9,0.4,7.8,0.6,11.6,1.4c3.4,0.7,6.8,2.1,10.2,3.3
	c-0.2-0.6-0.4-1.3-0.8-2c-1.1-2.4-2.1-4.8-3.2-7.2c-3-6.5-3.7-13.3-3-20.3c0.8-8.3,1.4-16.5,2.1-24.8
	C212.7,260.3,212.6,259.4,212.6,258.6z M141.1,610.5c-1.5,0.2-2.5,0.8-3.3,1.9c-1.4,2-2.8,4.1-4.3,6.1c-0.8,1.1-0.9,2.2-0.4,3.4
	c0.3,0.7,0.7,1.4,1.1,2.1c3.5,6.4,5.9,13.2,7.5,20.4c1.4,6.6,2.6,13.3,3.7,20c0.9,5.6,3,10.5,6.4,15c5.3,7.2,11.5,13.4,18.7,18.7
	c5,3.7,10.6,5.4,16.6,6.2c2.3,0.3,4.8,0.1,7.1,0c0.8,0,1.8-0.4,2.3-1c1.1-1.3,1.7-2.9,2.1-4.9c-1,0.4-1.7,0.6-2.4,0.9
	c-3.3,1-6.6,1.3-9.8,0c-5.2-2.2-10.3-4.7-14.5-8.7c-3.6-3.4-6.9-7-10.3-10.7c-1.6-1.8-3-3.7-4.4-5.7c-3.2-4.5-4.5-9.7-5.3-15
	c-1.3-8.1-3.2-16.1-6.2-23.8c-1.3-3.3-2.2-6.7-3.1-10c-0.9-3.6-2.1-7.2-1.7-11.1C140.8,613.1,141,611.9,141.1,610.5z M258.8,493.2
	c-0.8-0.2-1.3-0.4-1.7-0.4c-7.2-1-14.4-2-21.6-2.9c-0.6-0.1-1.4,0.1-2,0.5c-2.1,1.5-4,3.2-6.1,4.7c-3.7,2.6-7.5,5.2-11.2,7.7
	c-0.5,0.4-1.1,0.7-1.7,1c0,0.2,0,0.3,0.1,0.5c3.8,0.9,7.5,2,11.3,2.7c9.5,1.8,18.9,3.7,28.2,6.3c2.7,0.8,5.3,1.5,8.4,2.3
	C261.3,508,260,500.6,258.8,493.2z M412,335.5c0.2,1.4,0.2,2.2,0.4,3.1c1.4,7.8,1.3,15.5-1,23.2c-1.8,6-2.5,12.2-2.5,18.4
	c0,0.7,0.1,1.4,0.2,2.1c0.6,0,1,0.1,1.3,0.1c2.8,0,5.6,0,8.4-0.2c5.5-0.4,6.2-1.3,7-6.8c1-7,2.2-14,3.4-21c0.3-2.1,0.8-4.2,1.2-6.3
	c0.3-1.8-0.3-3.2-1.8-4.3c-3.5-2.7-7.3-4.8-11.3-6.6C415.7,336.5,414,336.2,412,335.5z M259.7,493.3c0,0.5,0,0.8,0.1,1.1
	c0.5,1.8,1.2,3.6,1.6,5.5c1,4.7,2,9.5,2.9,14.3c0.3,1.6,0.9,2.5,2.6,2.9c3.4,1,6.6,2.2,10,3.4c3.7,1.3,2.9,1.8,5.8-1.4
	c0.3-0.3,0.6-0.6,0.9-0.8c5.3-5.1,10.5-10.3,15.1-16c0.4-0.5,0.7-1,1.2-1.7c-2.3-0.8-4.4-1.5-6.5-2.1c-8.5-2.5-17.1-3.7-25.9-4.3
	C264.8,493.9,262.3,493.6,259.7,493.3z M340.4,699.7c14.3-1.2,28-4.9,42.2-4.9c-0.1-1-0.1-1.7-0.3-2.3c-0.5-2.5-1.9-4.6-3.6-6.3
	c-2.1-2.1-4.3-4-6.3-6.2c-2.3-2.5-4.9-3.2-8.2-2.8c-4.5,0.5-9.1,0.5-13.6,0.7c-1.5,0.1-2.9,0.3-3.7,0.4c-1.4,2-2.4,3.6-3.6,5
	c-1.7,2-2.8,4.3-2.9,6.9C340.4,693.2,340.4,696.3,340.4,699.7z M385.3,705.6c0.5-1.3,1-2.3,1.2-3.3c0.5-2.5-0.8-4.5-3.3-4.8
	c-1.1-0.1-2.2-0.1-3.3-0.1c-6.8,0.2-13.5,1.3-20.2,2.3c-5.5,0.9-11,1.6-16.6,2.3c-2.1,0.3-4.1,0.1-6.1-0.8c-6.5-3.2-13-6.4-19.5-9.6
	c-2.5-1.3-4.9-2.8-7.4-4.2c-1.2-0.7-2-0.5-2.5,0.7c-1,2.5-1.2,5.3-0.5,7.8c0.5,1.9,3,1.8,4.6,2.7c0.2,0.1,0.5,0.2,0.7,0.2
	c8.2,3,16.5,6,24.7,9c4.3,1.5,8.7,2.1,13.2,1.5c4.3-0.6,8.7-1.1,13-2C370.5,705.9,377.6,704.5,385.3,705.6z M165.4,360.5
	c-0.4,3.3-0.7,6.4-1.1,9.5c-0.4,3.1-1,6.1-1.5,9.1c12-3.5,23.4-3.7,34.4,3c1.6-4.6,3.2-9.2,4.8-13.8c0.3-0.9-0.1-1.5-0.6-2.1
	c-1.5-1.7-3.4-2.6-5.5-3.3c-5.2-1.9-10.6-2.9-16.1-3.2C174.9,359.5,170.2,359.7,165.4,360.5z M329.9,233.8c0-0.1,0-0.2,0.1-0.3
	c-1.4,0.1-2.8,0.1-4.2,0.2c-8.3,0.8-16.6,2.3-24.8,3.8c-6.9,1.3-13.8,2.7-20.7,3.5c-11.4,1.3-22.8,2.8-33.9,5.7
	c-8.8,2.3-17.6,3.6-26.7,2.6c-1.7-0.2-3.3-0.1-5-0.1c-0.6,0-1.2,0.3-2.2,0.6c2.5,1.6,4.6,3.2,7.3,3.3c2.6,0.1,5.3,0.4,7.9,0.3
	c6.8-0.3,13.7-0.8,20.5-1.3c4.6-0.3,9.3-0.5,13.8-1.2c11.6-1.8,23-4.3,34.4-7.1c4.9-1.2,9.8-2.3,14.9-2.2c3.7,0.1,6.9-0.9,10-2.7
	C324,237.2,326.9,235.5,329.9,233.8z M307.6,220c0,0.2,0,0.3,0,0.5c0.8,0.2,1.5,0.5,2.3,0.6c5.9,1.4,11.6,3.6,17.2,5.8
	c1.7,0.7,3.4,1.8,4.8,3c2.1,2,1.5,5.1-1.3,6c-2.5,0.8-4.5,2.3-6.7,3.6c-1.5,0.9-3,1.7-4.6,2.6c2.6,2.7,5.4,4.3,9,4.1
	c0.6,0,1.3,0,1.9,0.1c1.1,0.2,2-0.1,2.9-0.8c2.7-2.1,5.9-3.1,9.3-3.5c1.7-0.2,3.5-0.2,5.2-0.3c0.5-3-1-13.4-1.9-16.6
	c-1.1-3.9-3.6-6-7.5-6.6c-8.8-1.4-17.6-1.3-26.4,0.2C310.2,219,308.9,219.6,307.6,220z M174.8,324.6c-3.3-0.2-3.7-0.1-5.3,2.6
	c-2.7,4.6-4.6,9.4-6,14.5c-0.2,0.8-0.3,1.7-0.2,2.6c0,0.6,0.2,1.4,0.6,1.8c1.8,2,3.4,4.2,5.7,5.6c2.2,1.3,4.4,1.9,6.8,1.4
	c4.9-0.9,8.9-3.3,12.2-7c2.7-3.1,3.2-6.6,1.4-10.2c-2.2-4.3-5.5-7.6-9.7-9.9C178.5,325.1,176.6,324.5,174.8,324.6z M192,333.7
	c-1.2-6.8-1.3-13-1.2-19.3c1.2,6.8,2.2,13.6,2.5,20.5c2.4,0.6,4.7,1.1,6.8,1.6c4.5-6.6,8.9-13,13.4-19.6c-0.8-0.3-1.6-0.7-2.4-1
	c-3.9-1.4-8-2.1-12.2-2.3c-4.1-0.2-8.1-0.5-12-1.7c-3.6-1.1-7.2-1.1-10.9,0c-2.7,0.8-3.3,1.6-3.2,4.5c0.1,2,0.4,3.9,0.7,6.2
	c1.3,0.2,2.7,0.5,4.1,0.4c1.6,0,3,0.3,4.3,1.1c2.7,1.5,4.9,3.5,6.9,5.8C189.8,331,190.7,332.2,192,333.7z M369.4,480.1
	c-10.6,1.3-20.8,0-31.1-0.6c-1.6,5-3.1,9.7-4.7,14.7c3.2-0.6,5.7,0.5,8.2,1.5c5.6,2.1,11.4,2.7,17.4,2.2c3.5-0.3,6.9-0.9,10-2.9
	c1.6-1.1,2.3-2.3,1.6-4.1c-0.2-0.6-0.2-1.3-0.3-1.9C370.2,486.1,369.8,483.3,369.4,480.1z M206,455.4c-0.5-0.8-0.7-1.2-1-1.7
	c-1.5-2.5-0.7-4.7,2.2-5.5c1.3-0.4,2.7-0.5,4-0.4c3,0.2,6,0.5,9,0.9c8.4,1.1,16.2,3.7,22.9,9.4c3,2.6,6.6,4.7,10.2,6.6
	c5.2,2.9,10.6,5.4,16,8c8.9,4.2,17.6,8.6,25.6,14.4c0.7,0.5,1.4,0.8,2.1,1.2c0.1-0.1,0.2-0.3,0.4-0.4c-1.2-1.6-2.2-3.3-3.5-4.7
	c-3.6-4.1-8.3-6.6-13.3-8.6c-2.8-1.1-5.7-2-8.6-3c-9-3-16.7-8-22.7-15.3c-5.5-6.7-12.8-10.7-20.9-13.3c-8-2.5-16.2-3.5-24.5-1.7
	c-0.9,0.2-1.9,0.5-2.7,0.9c-2.6,1.3-3.2,3.7-1.7,6.2c1.1,1.8,2.3,3.5,3.5,5.2C203.6,454.4,204.3,455.3,206,455.4z M359.3,120.3
	c-6.8-2.3-13.5-1.9-20.2-1.1c-3.1,0.4-5.8,1.6-8.1,3.8c-3.8,3.7-4.2,6.1-1.1,10.4c3.6,5,8.4,8.7,13.7,11.6c0.1,0.1,0.3,0,0.6,0
	C350.6,137.6,356.1,129.7,359.3,120.3z M369.7,284c0.1,0.5,0.1,0.7,0.1,0.8c5.9,10.3,14,18.5,24.3,24.4c2.9,1.7,6.2,2.8,9.4,4.1
	c1,0.4,2.1,0.5,3.2,0.7c0.5-2.3,1-4.2,1.4-6.1c0.1-0.5,0.2-1.1,0.1-1.6c-0.2-2.2-0.5-4.4-0.8-6.6c-0.2-2.2-0.5-4.4-0.7-6.6
	C394,291.7,381.5,289.8,369.7,284z M427.1,416.6c0.6-0.2,0.8-0.3,1-0.4c5.2-4.8,10.3-9.8,14.2-15.8c1.1-1.6,1.8-3.5,2.4-5.4
	c0.3-1.1,0.2-2.6-0.2-3.7c-2.4-5.8-6.2-10.8-10.7-15.1c-1.3-1.3-3.1-1.9-5.2-1.7c-0.7,3.5-0.4,7.4-4.5,9.3
	C426.1,394.7,429.2,405.3,427.1,416.6z M475.2,459.4c-4,8.4-10.4,14.8-17.4,20.9c0.5,0.2,0.7,0.3,0.9,0.3c4,0.4,7,2.2,8.9,5.9
	c1.2,2.4,3,4.5,4.6,6.7c1.4,1.8,3.3,3.1,5.6,3.4c2,0.3,3-0.6,2.7-2.6c-0.3-1.7-0.9-3.4-1.6-4.9c-1.6-3.2-3.5-6.3-5.2-9.4
	c-1.8-3.4-0.3-6.9,3.2-8c2-0.6,3.9-1.5,5.9-2c2.2-0.6,4.5-1.3,6.8-1.2c4.7,0.2,9.3,0.9,14,1.4c0.6,0.1,1.2,0,1.9,0
	c-0.1-0.6-0.1-1-0.2-1.4c-0.6-1.8-2-2.6-3.7-3.1c-5-1.7-10.1-2.8-15.4-3.5C482.5,461.5,478.7,461.4,475.2,459.4z M430.2,342
	c1.7-3.7,2.4-7.3,2.4-11.1c0-5-1.4-9.2-5-12.7c-2.5-2.5-4.8-5.1-8.2-6.3c-2.2-0.8-4.3-2.1-7-2.1c-0.3,8-2.3,15.8-0.8,23.8
	C418.6,334.7,424.5,337.8,430.2,342z M214,376.6c0.7-3.8,1.4-7.3,2-10.7c1.3-7.5,4.3-14,10.3-18.8c0.2-0.2,0.4-0.5,0.5-0.7
	c-3-4.2-2.3-9.4-3.7-14.2c-3.5,4.3-7.6,7.4-12.1,10.1c0.2,5.4-1.3,10.6-3,15.7c-2,6.1-4.2,12.2-6.3,18.3c-0.2,0.7-0.4,1.5-0.8,2.8
	C205.1,376.1,209.1,375.1,214,376.6z M165.6,352.1c0.2,2.7-0.7,4.9,0.4,7.1c0.8-0.2,1.5-0.3,2.2-0.5c6-1.3,12-1.4,18.1-0.5
	c6,0.9,12,1.8,16.8,6c2.5-4.7,6.3-17.7,6.1-20.7c-4.9-3.3-10.2-5.4-16-7.3c0.2,0.9,0.2,1.4,0.3,2c0.6,3.5-0.3,6.7-2.6,9.3
	c-3.5,4-7.8,6.8-13,8c-3.5,0.8-6.8,0.4-9.8-1.8C167.4,353.2,166.7,352.8,165.6,352.1z M405.4,138.6c0-6.7-0.4-11.8-3.2-16.3
	c-1.5-2.5-3.7-4.2-6.2-5.5c-2.6-1.3-3.2-0.9-4,1.9c-1.7,6.4-2.3,12.9-1.7,19.4c0.4,4,0.9,8.1,2.6,11.9c1.2,2.5,3.1,3.4,5.7,3.6
	c1.5,0.1,2.7-0.3,3.5-1.6c0.8-1.4,1.7-3,2-4.5C404.8,144.1,405.2,140.6,405.4,138.6z M337.7,698.6c0-2.3-0.1-4.4,0-6.4
	c0.1-4,1-7.8,4.3-10.5c0.7-0.6,1.3-1.2,1.8-1.9c0.5-0.7,0.8-1.4,1-1.8c-1.9-2.5-3.5-4.7-5.1-6.9c-0.4-0.5-0.6-1.4-1.7-1.1
	c-0.5,1.9-1.2,3.8-0.6,5.9c0.3,1.3,0.4,2.7,0.3,4c-0.1,2.3-1.7,3.2-3.8,2.4c-1.3-0.5-2.6-1.2-3.8-1.9c-5.1-2.8-10.3-5.1-15.9-6.6
	c-0.5-0.1-1-0.1-1.6-0.1c-0.3,4.5-0.5,8.7-0.8,13C320.5,690.7,329,694.6,337.7,698.6z M355.5,133.6c-1.6,2.2-3.2,4.4-4.8,6.6
	c-1.6,2.1-3.3,4.1-4.8,6.5c0.6,0.3,0.9,0.4,1.2,0.5c10.3,2.5,20.7,2.6,31.1,0.9c2.2-0.4,4.3-1,5.8-2.1c-0.2-3.9-0.4-7.5-0.6-11.2
	C374,137.2,364.7,137.9,355.5,133.6z M161,385.5c-1.7,5.8-3.5,11.5-5.1,17.3c-0.8,2.8-1.3,5.8-2,8.6c-0.6,2.1,1.2,3.5,2.9,3.4
	c1,0,1.9-0.2,2.9-0.3c2.6-0.4,5.2-0.8,7.8-1.2c0.5-0.1,1-0.2,1.4-0.3c0.7-9.6,4.5-18.2,6.9-27.4C170.8,384.6,166.1,384.5,161,385.5z
	 M227.6,348c-0.5,0.5-1.2,1.1-1.8,1.8c-3.7,4.3-6.4,9.1-7.2,14.8c-0.5,3.8-1.3,7.6-2.1,11.7c2.2-0.6,4.2-1.1,6.2-1.6
	c2.5-0.7,4.9-0.6,7.1,0.8c1.7,1,3.5,1.6,5.5,1.4c2.1-0.1,4.2-0.3,6.7-0.5c-4.5-8.7-9.4-17-9.9-26.7
	C230.5,349.1,229.1,348.6,227.6,348z M332.6,506.5c3.9,7.5,7.5,14.5,11.2,21.6c3.8-0.9,7.4-1.9,11.1-2.7c1.3-0.3,2-1,2.4-2.2
	c1.5-4.2,3.1-8.3,4.8-12.5c0.6-1.5,1.4-3,2.2-4.4c-5.2,0.5-10.4,1.1-15.5,1.5C343.5,508.2,338.2,508,332.6,506.5z M383.6,132.3
	c0.9-4.2,1.7-8.4,2.6-12.7c-0.5-0.2-1-0.4-1.5-0.5c-7-1.4-13.9-1.2-20.9-0.3c-1.2,0.2-1.8,0.8-2.2,1.8c-1.5,3.3-3,6.5-4.5,9.8
	c-0.3,0.6-0.5,1.1-0.7,1.7C361.9,135.1,376.1,135.5,383.6,132.3z M382,440.7c-3.4,2.1-6.8,4-9.9,6.2c-1.4,1-2.3,2.6-3.3,4
	c-0.4,0.6-0.6,1.3-1,1.9c-0.6,0.7-0.6,1.4-0.3,2.2c0.6,2.2,1.4,4.4,1.7,6.7c1.2,8.1,2.2,16.3,3.3,24.4c0.1,0.6,0.2,1.2,0.4,1.9
	c3.4-0.3,6.1,1.6,8.9,2.8C377.1,474,376,457.3,382,440.7z M170.5,322.4c-1.8-2.8-3.7-3.6-6.6-2.9c-2.8,0.7-5.1,2.1-7.5,3.6
	c-5.9,3.7-8.2,9.1-7.4,15.9c0.2,1.3,0.5,2.8,1.3,3.8c2,2.6,4.6,4.7,7.9,5.5c1.2,0.3,2.4,0.6,3.8-0.1c-2-3.2-1.5-6.3-0.3-9.3
	c1.2-3.2,2.6-6.4,3.9-9.5C166.7,326.8,168.2,324.3,170.5,322.4z M177.4,416.2c4.7-7.4,9.6-14.6,13.7-22.2c-3.5-4.9-8.5-6.4-13.8-7.9
	c-0.2,0.8-0.5,1.4-0.6,2c-0.4,1.9-0.8,3.7-1.3,5.6c-1.2,5.2-2.5,10.4-3.7,15.6c-0.3,1.3-0.3,2.8-0.4,3.8
	C173.6,414.2,175.4,415.1,177.4,416.2z M256.4,398.4c0.1,0.1,0.1,0.2,0.2,0.2c0.6-1,1.2-2.1,1.8-3.1c2-3.1,4-6.3,6.2-9.4
	c1-1.3,2.3-2.5,3.7-3.4c5.3-3.1,10.9-5.7,16.9-7c2.7-0.6,5.4-1.3,8.2-1.8c2.5-0.4,5.1-0.8,7.6-0.7c1.7,0,3.5,0.8,5.4,1.2
	c-0.5-1.2-1.1-2.2-1.5-3.3c-0.7-2.3-2.3-3.2-4.6-3.6c-4.3-0.7-8.6-1.5-13.1-2.3c-4,3.7-8.8,6.9-13.7,9.9c-5,3-10.3,5.4-15.8,6.4
	c0.4,3,1.2,5.8,1,8.6C258.4,393,257.2,395.7,256.4,398.4z M354.6,647.4c-2.9,0.2-5.6,0.3-8.2,0.6c-0.5,0.1-1.2,0.8-1.4,1.3
	c-1.2,2.4-2.3,4.7-3.2,7.2c-1.1,3-2,6-2.9,9.1c-0.6,2.2,0.2,2.9,2.5,2.3c3.1-0.8,6.1-1.8,9.2-2.7c3.6-1.1,7.3-2.2,10.9-3.3
	C361.5,659.3,359.4,654.8,354.6,647.4z M213.1,503.8c6.3-5,12.2-9.6,18.4-14.5c-2.2-0.5-4-0.8-5.8-1.2c-1.7-0.4-3.4-0.8-5.1-1.3
	c-1.7-0.6-3.4-1.3-5-2.2c-1.5-0.9-2.8-2.1-4.3-3.2c-0.5,2.4-0.9,4.5-1.5,6.5c-0.6,2-1.4,3.9-2.3,5.7c-1,1.9-2.2,3.6-3.5,5.7
	C207.2,500.9,210.2,502.4,213.1,503.8z M346.7,477.7c7.6,0.2,14.9,0.7,22.2-0.3c-0.2-9.5-2.1-19.8-4.2-22.9
	c-2.5,3.3-4.9,6.5-7.4,9.7c-3.4,4.3-6.2,9.1-10.4,12.7C346.8,477,346.8,477.2,346.7,477.7z M214.4,317.3c-4.1,6.8-8,13.3-12,19.9
	c2.5,1.2,4.8,2.4,7.2,3.6c1.8-1.3,3.5-2.5,5.3-3.8c1.6-1.2,3.3-2.3,4.7-3.6c4.1-3.8,3.4-3,2.1-7.5c-0.9-3.1-2.3-5.7-5.2-7.4
	C215.8,318.1,215.1,317.7,214.4,317.3z M371.8,495.8c-0.8,0.5-1.3,0.8-1.8,1.1c-1.9,0.9-3.8,2.1-5.9,2.6c-4.3,1-8.7,1.1-13.1,0.5
	c-4.1-0.5-8.1-1.7-12-3.2c-2-0.8-4-1.7-6-0.9c-1.6,2.6-3.2,5.1-4.7,7.6c15.2,3.3,30,1.8,44.9-2.5
	C372.8,499.2,372.3,497.6,371.8,495.8z M212.3,624.8c0-0.2-0.1-0.3-0.1-0.5c-4.8,1.3-8.8,0.1-12.6-3.7c-3.5,9.7-6.7,19-11.9,27.5
	c0,0.1,0,0.2,0,0.2c0,0.1,0.1,0.1,0.2,0.6c2.6,0.1,5.4,0.2,8.1,0.4c1.3,0.1,2-0.5,2.2-1.9c0.4-2.5,0.9-5,1.3-7.5
	c0.4-2.2,0.9-4.4,2.6-6.1c2.7-2.6,5.4-5.1,8.2-7.7C211,625.7,211.7,625.3,212.3,624.8z M377.5,516.7c-1.1-4.3-1.8-8.8-3.5-13.1
	c-2.5,0.6-4.6,1.2-6.8,1.7c-1.2,0.3-1.9,0.9-2.3,2.1c-1.4,4.4-3,8.8-4.4,13.2c-0.3,1-0.5,2.1-0.8,3.3c0.8-0.1,1.4-0.2,1.9-0.3
	c3.1-0.9,6.1-1.9,9.1-2.8C373.3,520,375.5,518.8,377.5,516.7z M363.9,453.3c-5.5,0-10.8,0.2-15.8-1.9c-1.1,2.9-2,5.6-3,8.2
	c-0.5,1.3-1,2.4,0,3.7c0.4,0.5,0.3,1.5,0.4,2.3c0.2,2.8,0.5,5.6,0.7,8.9C352.3,467.3,358,460.5,363.9,453.3z M186.3,650.4
	c-1.9,2.2-3.1,5.6-7.3,5.4c0,2,0,3.9,0,5.7c0,1,0.5,1.4,1.2,1.9c4,2.8,10.7,2.6,14.9-0.8c0.7-3.5,1.3-6.9,1.9-10
	C193.4,651.7,190,651.1,186.3,650.4z M326.1,635.9c0,0.2,0,0.4-0.1,0.5c1.5,0.8,2.9,1.6,4.4,2.3c4.2,1.8,8.3,3.6,12.5,5.4
	c0.8,0.3,1.7,0.7,2.2,1.4c0.8,1.1,1.6,1.1,2.7,0.9c2.6-0.6,5.3-1.3,7.9-1.8c2.2-0.4,3.5-2,4.9-3.6c-0.4-0.2-0.6-0.3-0.8-0.3
	c-5.3-0.3-10.3-2-15.3-3.7C338.5,634.8,332.3,635.1,326.1,635.9z M340.8,669.9c1.6,2.3,3.4,4,5.2,5.7c0.8,0.8,1.7,1,2.8,0.9
	c2.9-0.4,5.9-0.6,8.8-0.9c2.7-0.3,5.4-0.7,8.1-1.1c-1.4-3.3-2.7-6.5-4-9.7C354.8,666.5,347.9,668.2,340.8,669.9z M172.3,426.7
	c0.9-2,1.7-3.7,2.5-5.4c1.3-2.7,1-3.5-1.7-4.7c-0.6-0.3-1.4-0.5-2.1-0.6c-2.9-0.7-5.7-0.4-8.6,0.1c-3,0.6-5.9,1.2-8.9-0.8
	c0,3.5-0.2,6.6,0.5,9.7C160.5,423,166.5,423.1,172.3,426.7z M195.3,384.5c-1.2-1.3-2.9-2.2-4.6-2.9c-5-2-10.3-2.7-15.7-2.6
	c-3.6,0.1-7.1,0.7-10.6,1.3c-2.4,0.4-2.4,0.8-2.4,3.5c11.2-2,21.6-0.5,30.5,7.2C193.4,388.8,194.3,386.7,195.3,384.5z M368.3,659.8
	c0.2-1.7,0.3-3,0.4-4.3c0.2-3.3,0.2-6.6-1.8-9.6c-0.7-1.1-1.2-2.4-1.7-3.7c-0.7-1.6-0.7-1.6-2.2-1.4c-1.9,2.4-3.6,4.5-5.4,6.8
	c3.2,6.3,7.3,12.5,9.2,19.6c0,0,0.1,0.1,0.2,0.1c0.1,0,0.1,0,0.5,0c0.2-1.5,0.3-3.1,0.6-4.6c0.5-1.9-1.7-2.7-1.9-4.6
	C367,658.7,367.5,659.1,368.3,659.8z M421.2,309.5c0.2-5.1-0.9-9.8-4.2-13.9c-2.2-2.8-5.2-3.6-8.8-2.3c0.4,2.2,1,4.5,1.3,6.7
	c0.3,2.3,0.5,4.7,0.7,7C413.8,307.8,417.5,308.7,421.2,309.5z M154.2,426c0.4,3.3,1.1,6.4,2.5,9.3c1.5,3,3.4,3.7,6.4,1.9
	c2.6-1.5,4.9-3.6,6.6-6.1c0.5-0.7,0.9-1.4,1.4-2.2C164.2,425.5,159.3,424.7,154.2,426z M206.8,638.9c0.2,0.1,0.3,0.1,0.5,0.2
	c-0.3,1.4-0.7,2.9-1,4.5c1.3,0.7,2.5,1.3,3.6,1.9c0.9-3.9,1.8-7.5,2.7-11.1c0.5-1.8,1.2-3.6,1.7-5.5c0.3-0.9,0.3-1.9,0.4-3.3
	c-0.8,0.4-1.1,0.6-1.4,0.8c-1.8,1.5-3.5,2.9-5.2,4.5c-2.1,2-4.2,4-5.2,6.7c-1.2,3.4-1.6,3.7,2.5,5.2
	C205.9,641.6,206.3,640.3,206.8,638.9z M475.9,474.5c0.1,0.2,0.1,0.3,0.2,0.5c1.2,0.2,2.3,0.4,3.5,0.6c5.7,0.9,11.1,2.5,16.1,5.6
	c1,0.6,2,1.2,3.1,1.8c0.8,0.4,1.6,0.6,2.3-0.2c-2.4-3.5-5.3-6.3-9-8.2c-2-1-4.2-1.6-6.1-2.7c-1-0.6-1.7-0.5-2.6-0.2
	c-2,0.7-3.9,1.3-5.9,2C476.9,473.9,476.4,474.2,475.9,474.5z M359.9,119.1c0.9-0.8,0.3-1.5-0.3-2.2c-1.9-2.1-4.5-3-7.1-3.6
	c-5.1-1.1-10,0-14.8,1.6c-2.1,0.7-3.6,2.4-5.1,4.2C341.8,115.8,350.8,116,359.9,119.1z M391.5,117.1c-2,0.8-2.5,1.2-3.2,3.4
	c-2.3,7.1-2.8,14.4-2.5,21.8c0,1.1,0.1,2.3,1.5,2.7c0.2,0,0.4,0.5,0.4,0.7c-0.2,1.8,1,2.4,2.4,3.2
	C387.6,138.1,387.5,127.7,391.5,117.1z M344.2,477.5c-0.1-4.3-0.3-8.6-0.4-12.8c-1.9,4.3-3.6,8.5-4.8,13.1c1.7,0,3,0,4.3,0
	C343.6,477.7,343.8,477.6,344.2,477.5z M365.2,666.5c-0.2,0.1-0.4,0.1-0.6,0.2c0.3,0.7,0.6,1.4,0.9,2c0.2-0.1,0.4-0.2,0.6-0.2
	C365.7,667.8,365.4,667.2,365.2,666.5z"/>
<path class="st0" d="M256.7,402.2c0.1,0.5,0.1,0.6,0.1,0.8c-0.7,7.4,0.4,5.9,2.8,11.8c0.7,1.7,2,2.7,3.9,2.7c2.1,0,4,0.8,5.8,1.9
	c1.5,0.9,3.1,1.5,5.1,2.4c0.4,1.7,0.9,4,1.5,6.2c1.2,4.5,2.7,8.8,5.4,12.7c0.4,0.6,0.8,1.2,1.3,1.7c1.4,1.4,2.9,1,3.5-0.9
	c0.3-1,0.4-2.1,0.6-3.3c4.7,3.3,4.7,3.3,8,0.6c0.5,0.5,0.9,1.1,1.5,1.6c2.1,1.9,4.6,1.7,6.2-0.6c1-1.6,1.7-3.4,2.5-5.2
	c0.9-0.2,1.2,0.5,1.6,1.2c0.7,1.5,1.4,3,2.2,4.5c0.5,0.9,1.1,1.8,2.4,1.6c1.2-0.2,1.8-1.1,2.1-2.1c0.3-1,0.5-2,0.6-3
	c0.3-4.1-0.3-8.1-1.1-12.1c-0.1-0.7-0.2-1.4-0.4-2c2.9,0.3,5.6,0.5,8.3,0.8c0.7,0.1,1.4,0.3,2,0.6c3.2,1.3,5.8,3.4,8.1,5.8
	c0.5,0.5,0.7,1.4,0.7,2.1c0,4.9-0.8,9.7-3.2,14.1c-4.1,7.4-7.6,15.1-11.2,22.8c-2.8,6-6.6,11.5-10.6,16.8c-1.5,1.9-3.2,3.5-5.5,4.8
	c-0.4-0.7-0.7-1.3-1-1.9c-2.2-4.9-5.6-8.7-10.1-11.6c-3.8-2.5-8-4.3-12.3-5.7c-3-1-6-2.1-9-3.2c-1.6-0.6-3.2-1.5-4.7-2.3
	c-1.4-0.7-2.1-1.7-2.6-3.2c-1.3-4.5-2.7-9-4-13.5c-0.2-0.5-0.4-1-0.7-1.4c0.6,5,1.6,10,2.9,15.1c-0.7-0.5-1.4-0.9-2-1.4
	c-1.9-1.7-3.9-3.4-5.5-5.4c-7.3-9.3-17.3-13.8-28.5-16.2c-5.7-1.3-11.6-1.6-17.3-0.6c-2.4,0.4-4.7,1.4-7.3,2.2
	c-1-4.3-0.8-8.9-1.1-13.5c-0.2,0-0.3,0-0.5,0c-0.2,1.7-0.4,3.5-0.5,5.2c-0.1,1.9-0.2,3.8,0,5.7c0.2,1.7,0.8,3.4,1.2,5.2
	c-0.2,0.1-0.3,0.1-0.5,0.2c-0.3-0.4-0.7-0.7-1-1.1c-3.2-4.1-6.5-8.1-9.6-12.3c-1.8-2.4-3.6-4.9-4.9-7.6c-1.9-3.9-1.2-7.8,1-11.4
	c2.6-4.3,5.4-8.5,7.9-12.8c2.1-3.6,3.9-7.3,5.9-10.9c2.3-4.2,5.2-7.9,10-9.4c1.7-0.5,3.6-0.5,5.4-0.7c0.4,0,1,0,1.1,0.2
	c0.9,1.6,2.2,0.9,3.4,0.6c2.6-0.7,5.3-1.3,7.9-2c1.5-0.3,2.8-0.1,4.3,1.2c-6.8,2.7-11.8,7.5-16.6,12.6c6-4,12-8,18.2-12.1
	c4.1,1.8,8.3,0.5,12.6,0.1c0.4,0.7,0.9,1.5,1.3,2.2c2.9,5.5,5.6,11.1,7.4,17.1C252.4,400.2,253.8,402,256.7,402.2z"/>
<path class="st0" d="M303.1,552.5c-3.8,11.9-8,23.6-15.6,33.7c-1,1.3-2,2.7-2.9,4.1c-3.4,4.6-8.1,7.1-13.5,8.3
	c-2.2,0.5-4.3,0.2-6.3-0.7c-4.4-2.1-8.7-4.3-13.1-6.5c-0.4-0.2-0.8-0.4-1.4-0.2c1.4,1.2,2.7,2.4,4.3,3.7c-0.6,0.4-1.1,0.7-1.6,1
	c-5.2,3.3-10.3,6.6-15.5,10c-1.3,0.9-2.1,2.2-2.3,3.8c-0.5,3.6-2.6,5.6-5.8,6.9c-3.1,1.3-6.3,2.3-9.7,2.1c-1-0.1-2-0.5-2.8-1.1
	c-1.8-1.3-3.5-2.8-5.2-4.2c-3.7-3.4-7.4-6.8-11.3-10c1.8,3.5,4.7,6.1,7.3,8.9c2.7,2.8,5.5,5.5,8.3,8.3c-2.5,1.3-5.3,1.8-8.2,1.8
	c-1.5,0-2.9-0.6-4.2-1.5c-3.1-2.2-5.7-4.8-7.7-8.1c-3.2-5.1-6.4-10.3-8.5-16c-1.3-3.6-1-7-0.3-10.6c0.3-1.4,1.1-2.3,2.5-2.6
	c4.5-1.1,8.2-3.6,11.4-6.8c4.1-4,8.7-7.3,13.5-10.3c5.5-3.4,11.1-6.7,16.6-10c0.5-0.3,1-0.4,1.8-0.7c0.2,8.3,4,14.8,9.4,20.5
	c0.1-0.1,0.3-0.1,0.4-0.2c-0.7-1.2-1.4-2.4-2-3.7c-2.4-4.7-4.7-9.4-5.2-14.8c0-0.2-0.1-0.5-0.1-0.7c-0.3-3.8-0.1-4.1,3.4-5.8
	c0.6-0.3,1.1-0.5,2-0.9c3.7,8.7,11.1,13.8,18.9,18.4c-0.3-0.4-0.5-0.8-0.9-1.1c-4.6-4.1-9.1-8.3-12.9-13.1c-0.9-1.2-1.8-2.4-2.5-3.8
	c-1.8-3.3-1.8-5.4-0.3-9c10,2,20,4.2,30,6.1C282.9,549.4,292.9,550.9,303.1,552.5z"/>
<path class="st0" d="M255,283.6c-0.3-0.2-0.4-0.3-0.4-0.4c-2.5-2.7-3.2-5.7-1.4-9.1c0.1-0.1,0.1-0.3,0.1-0.5
	c1.1-6.2,4.6-8.2,11.5-8.4c4.5-0.1,8.9,0.3,13.4,0.5c2.3,0.1,4.6,0.1,6.9,0.1c1.4,0,1.5-0.1,2.9-1.1c-0.7-0.1-1.3-0.3-1.9-0.4
	c-3.3-0.2-6.7-0.4-10-0.6c-2.9-0.2-5.9-0.2-8.8-0.5c-3.7-0.3-7.1,0.1-10.5,1.7c-2.1,1-3.7,2.5-4.4,4.8c-0.8,2.5-1.6,5-2.3,7.6
	c-0.4,1.5-0.1,2.8,0.8,4.1c0.6,0.8,1.1,1.7,1.8,2.6c-3.4,1.4-6.3,3.2-8.9,5.5c-3.2,2.8-5.1,6.3-6.1,10.3c-1.2,4.6-2.2,9.3-3.1,14
	c-1.6,8-2.9,16-4.5,24c-0.7,3.4-0.5,6.5,1.9,9.6c-1.1-0.3-1.7-0.5-2.4-0.6c-1.2-0.3-1.7-1-1.9-2.2c-0.6-3.9-1.3-7.7-2.1-11.5
	c-0.7-3.1-1.3-6.3-2.4-9.2c-2.1-5.4-4.4-10.8-6.7-16.1c-2.2-5.1-4.2-10.2-4-15.9c0.1-4.1,0.5-8.3,0.9-12.4c0.8-8.7,1.7-17.3,0.7-26
	c0-0.1,0.1-0.3,0.2-0.7c0.6,0.2,1.2,0.2,1.7,0.5c2.7,1.2,5.6,1.8,8.6,1.7c8.9-0.3,17.9-0.8,26.8-1.1c9.1-0.3,17.9-2.1,26.7-4
	c0.4-0.1,0.8-0.1,1.2-0.1c1.9,2.7,3.8,5.4,5.7,8c0.7,0.9,1.4,1.8,2.2,2.5c3.4,2.6,6.1,5.8,8.6,9.3c1.9,2.6,4.2,4.5,7,6
	c2.4,1.3,4.8,2.9,7.1,4.4c2.3,1.5,4.6,2.7,7.4,1.1c1.5,2.8,2.3,5.6,2.8,8.5c1.1,6,1.4,12,0.5,18.1c-0.7,4.3-2.7,7.8-6,10.5
	c-2.9,2.4-5.8,4.8-8.9,7.3c-0.2-1.1-0.4-2.1-0.5-3.2c-0.5-4.8-2.4-9-5.2-12.9c-4.4-6-9.6-11.1-16.1-14.8c-4.6-2.7-9.3-5.2-14-7.9
	C265.2,284,260.3,282.8,255,283.6z"/>
<path class="st0" d="M364.8,322.4c1,3.7,1.9,7.4,2.9,11.2c0.1,0,0.2,0,0.4,0c-0.1-1.8-0.2-3.6-0.4-5.5c-0.5-5.2-1.9-10.2-3.5-15.1
	c-1.5-4.7-3.2-9.4-4.9-14c-2.5-6.9-6.1-13.3-10.1-19.5c-3-4.5-5.8-9.2-8.5-13.9c-3-5.3-5.7-10.7-8.6-16.1c2.8-3.4,6.9-5.4,15.4-6.2
	c0.1,0.1,0.3,0.2,0.3,0.3c1.2,6.2,3.9,11.8,6.3,17.5c6,14.6,12.3,29.1,17.3,44.1c4,11.8,4.8,23.8,3.8,36.1
	c-1.5,19.5-5,38.6-10.3,57.4c-4.2,14.5-9.3,28.7-14.6,42.8c-5.8,15.7-11.6,31.4-16.5,47.5c-0.8,2.6-1.8,5.1-2.9,7.6
	c-1.5,3.6-4.2,6.4-7,9c-1.9,1.7-4.1,2.2-6.4,1c-1.7-0.9-3.5-1.6-5-2.8c-3.6-3-7.1-6.2-10.5-9.4c-1.2-1.1-1.1-1.6,0.2-2.4
	c3.3-2,5.7-4.9,7.8-8c4.6-6.5,8.5-13.3,11.7-20.6c2.1-4.7,4.5-9.3,6.9-13.9c2.8-5.2,4.4-10.5,4.6-16.4c0.1-1.8,0.2-3.6,0-5.4
	c-0.3-3,0.2-5.9,1.5-8.6c1.7-3.4,3.5-6.8,5.2-10.2c5.4-10.6,10.4-21.4,13.8-32.8c1.9-6.3,3-12.9,4.3-19.4c1.5-7.3,3-14.5,4.3-21.8
	c0.6-3.3,0.9-6.6,1.3-9.9c0.1-0.8,0.2-1.7,0.3-2.5C364.5,322.4,364.6,322.4,364.8,322.4z"/>
<path class="st0" d="M311.1,636.7c0-4.8-0.1-9.1,0-13.4c0.1-2,1-3.8,2.2-5.5c1.7-2.3,3.2-4.7,4.9-7.2c1.3,2.5,3.1,4.2,6.1,5.1
	c-0.4-0.8-0.6-1.2-0.9-1.6c-3.7-5.2-5.1-11-5.2-17.3c0-5.1,0.9-10,1.7-15c0.5-2.9,0.7-5.9-0.1-8.8c-0.1-0.4,0-0.8-0.1-1.7
	c6.9,6.1,14.1,10.7,22.4,13.9c-0.4-0.3-0.7-0.7-1.1-0.9c-3.8-2.7-7.7-5.4-11.5-8.2c-4.4-3.3-8.6-6.9-13.2-9.9
	c-4.9-3.2-6.4-7.7-5.6-13.4c0.6,0,1.3,0,2,0c12.2,0.5,24.4,1.2,36.6,1.5c7.9,0.2,15.8-0.9,23.4-3.2c0.6-0.2,1.2-0.3,1.9-0.4
	c0.1,0,0.1,0.1,0.4,0.3c-2.2,5.3-5.8,10.1-6.2,16.3c1.4-2.3,2.8-4.5,4.4-7.2c0.7,4.6,2.1,8.8,0.7,13.2c-1.1,3.6-2.9,6.7-5.1,9.7
	c-1.5,2-3,3.9-4.4,6c2.4-1,4.2-3,6.3-4.8c-1.6,12.3-3.1,24.2-4.7,36.4c-4.5-2.5-8.5-5.6-13-8.1c0.3,0.3,0.5,0.7,0.8,1
	c2.3,2.2,4.6,4.4,7,6.5c2,1.8,4.2,3.5,6.8,4.5c1.6,0.6,2.3,1.8,2.6,3.4c0.4,2.2,0.1,4.3-0.6,6.3c-0.7,2.3-2.2,3.4-4.6,3.5
	c-5,0.3-9.9-0.1-14.6-1.7c-0.2-0.1-0.5-0.1-0.7-0.2c-10.4-4.2-20.9-3.8-31.5-1C316,635.4,313.8,636,311.1,636.7z"/>
<path class="st0" d="M378.2,519.9c1.9,8.5,3.8,16.8,5.7,25.3c-1.9,0.5-3.4,1-5,1.4c-4.9,1.3-9.8,2.9-14.8,3.9
	c-6.7,1.4-13.5,1.4-20.3,1.2c-14.7-0.5-29.4-1.1-43.9-2.7c-9.8-1.1-19.5-3-29.3-4.6c-11.8-1.9-23.5-4.6-34.9-8.2
	c-13.1-4.2-25.6-9.7-37.4-16.8c-4.1-2.4-4.5-3.6-2.6-8c1.7-3.9,4.3-7.2,7.1-10.6c1,0.6,1.9,1.1,2.7,1.7c3,2.2,6.4,3.7,10,4.5
	c7.1,1.7,14.3,3.1,21.4,4.9c8.8,2.2,17.7,4.3,26.4,6.9c8.9,2.7,17.5,6.2,26.4,9.1c11.8,3.8,23.8,6.1,36.2,5.6
	c6.8-0.3,13.5-1.6,20.1-3c3.7-0.8,7.5-1.3,11.2-2.4c5.7-1.7,11.4-3.7,17-5.7C375.5,521.8,376.7,520.8,378.2,519.9z"/>
<path class="st0" d="M406.5,316.8c-0.9,7.5-0.4,14.9-0.2,22.3c0.1,3.5-0.6,7-1.4,10.4c-1.4,5.8-2.5,11.7-3.7,17.5
	c-0.2,0.8-0.3,1.6-0.2,2.4c0.1,1.9-0.6,3.6-1.6,5.1c-2.7,4-5.3,8-8,11.9c-2.1,3.1-2.8,6.5-2.9,10.3c0.8-1.6,1.6-3.2,2.4-4.8
	c0.2,0,0.3,0.1,0.5,0.1c-0.1,1-0.3,1.9-0.3,2.9c-0.5,6-0.9,12.1-1.5,18.1c-0.4,3.8-0.7,7.6-1.5,11.4c-1,5.2-3.6,9.7-7.3,13.5
	c-1.5,1.5-3.2,2.9-5.1,3.9c-4.2,2.2-7.9,4.8-9.6,9.5c-5.7-0.7-11.4,0.6-17.1-1.3c0.3-0.9,0.5-1.6,0.8-2.4
	c4.7-13.2,9.6-26.4,14.2-39.7c3.5-10.3,6.1-20.8,8.3-31.4c2.4-11.4,4-22.9,5.2-34.5c1.4-14.8-0.4-29.1-5.8-43
	c-2-5.1-3.8-10.1-5.8-15.2c-0.2-0.6-0.4-1.2-0.7-1.8c2.5,0.6,2.8,0.9,4.1,3.5c2.1,4.3,4.7,8.4,7.8,12c7.3,8.4,15.9,14.9,26.8,18.1
	c0.7,0.2,1.4,0.5,2,0.7C405.8,316.4,406,316.5,406.5,316.8z"/>
<path class="st0" d="M340.3,200.5c1.3-0.6,2.1-1,2.9-1.4c6.6-2.8,13.4-4.6,20.4-6c12.1-2.5,24-5.9,35.8-9.6
	c8.9-2.8,17.8-5.6,26.4-9.4c2.3-1,4.5-2.1,6.7-3.1c4.5-2.1,9.1-4.3,13.6-6.4c0.8-0.4,1.5-0.7,2.5-0.3c0.5,0.2,1.3-0.4,2.1-0.6
	c0.3,0.6,0.7,1.3,0.9,2.1c3.3,8.5,5,17.3,6.4,26.2c0.4,2.5-0.7,4.5-1.7,6.6c-0.3,0.5-1.1,0.9-1.8,1.1c-8.4,2.6-15.7,7.2-22.9,12.2
	c-7.9,5.5-16.8,8.3-26.4,8.9c-5.2,0.3-10.3,1.3-15.4,1.9c-1.6,0.2-3.3,0.1-5,0c-0.5,0-1-0.4-1.4-0.8c-7.7-6.6-16.3-11.4-25.8-14.7
	c-5-1.7-9.9-3.7-14.8-5.5C342.1,201.3,341.4,201,340.3,200.5z"/>
<path class="st0" d="M310.9,377.8c-1.3-2.6-2.8-4.9-3.8-7.5c-1.3-3.5-3.9-4.8-7.4-5c-3.3-0.3-6.5-0.7-9.8-1c-0.9-0.1-2.1,0-1.6-2
	c-1.5,0.9-2.6,1.5-3.6,2.3c-5.1,3.5-10.1,7.3-15.4,10.6c-4.5,2.7-9.3,4.7-14.6,5.5c2.7,3.9,2.9,8.3,2.2,12.7c-0.4,2-1.2,3.9-1.8,5.9
	c-0.2,0-0.3,0.1-0.5,0.1c-0.3-0.7-0.7-1.3-0.9-2c-2.2-7.3-5.6-14.1-9.2-20.7c-2.2-3.9-4.2-7.9-6.2-11.9c-2.6-5.1-3.8-10.6-5-16.2
	c-0.1-0.4-0.2-0.8-0.1-1.2c1.3-4.6,2.7-9.2,3.8-13.8c0.7-2.8,2.4-4.4,5.1-5.1c4.3-1.1,8.5-2.3,12.8-3.1c7.4-1.4,14.9-2.4,22.4-1.7
	c9.6,0.9,17.7,5,24.3,12c0.9,1,1.3,2.1,1.3,3.5c0.1,7.5,2.1,14.5,6.1,20.9c1.5,2.3,2.6,5,3.5,7.6
	C314.1,371.2,313.4,374.3,310.9,377.8z"/>
<path class="st0" d="M431.8,318.7c-2.9-2.8-5.5-5.3-8.4-8.1c0-1.8,0.2-4,0-6.2c-0.6-5-3-9.2-6.5-12.8c-6-6.2-12.1-12.2-18.2-18.4
	c-3.5-3.6-7-7.2-10.4-10.9c-0.3-0.3-0.6-0.5-1-0.6c3.5,5.4,8,10.2,12.2,15c4.2,4.9,8.8,9.4,13.4,14.2c-1.3,0.7-2.5,0.7-3.6,0.5
	c-6.2-1.1-12.4-2.2-18.6-3.4c-9-1.7-17.6-4.6-25.7-8.7c-0.8-0.4-1.6-1.2-1.9-2c-3.9-9.2-7.6-18.4-11.4-27.6c-1.3-3.1-1.7-6.3-2-9.6
	c-0.4-4.2-0.9-8.4-1.4-12.6c0-0.4,0-0.8,0-1.5c2.3,1.1,4.4,1.9,6.4,3c4.1,2.3,8.3,4.5,12.2,7.1c3.6,2.3,7,4.7,10.3,7.4
	c6.4,5.2,13.5,9.4,20.8,13.1c4.4,2.2,8.7,4.4,13.1,6.5c2.9,1.4,5.9,2.8,9,3.9c4.4,1.7,8.1,4.6,11.3,7.8c1.4,1.3,2.3,3.3,2.9,5.1
	c2.4,7,3.4,14.3,3.1,21.7c-0.1,1.9-0.4,3.8-1.1,5.6C434.9,311.1,433.3,314.8,431.8,318.7z"/>
<path class="st0" d="M434.8,485.1c1.1-6.9,0.5-13.6,0.5-20.2c0-4.7-0.6-9.2-2-13.7c-1.2-4.1-2.7-8.1-4.3-12.2
	c-0.8-2.2-2.1-4.1-4.2-5.2c0.1-1.2,0.3-2.3,0.4-3.4c0.2-2.5,0.5-4.9,0.7-7.4c0.2-2,0.5-3.6,2.9-4.4c1.2-0.4,2.2-1.6,3.1-2.5
	c2.7-2.7,5.4-5.4,8-8.2c0.8-0.9,1.6-1.3,2.7-0.8c1,0.5,2.1,0.9,2.9,1.6c2.7,2.4,5.2,4.9,7.8,7.4c4.3,4.1,7.7,8.9,10.5,14.1
	c3.1,5.7,6.3,11.3,9.6,16.8c1.7,2.9,1.9,5.5,0.5,8.6c-4,9.2-10.2,16.5-18.1,22.5c-5.4,4.1-11.5,6.4-18.3,7.1
	c-0.6,0.1-1.1,0.1-1.7,0.1C435.8,485.3,435.5,485.2,434.8,485.1z"/>
<path class="st0" d="M337,199.8c-2-9.1-1.6-18-0.8-26.9c3,0.3,5.9,0.6,8.8,0.9c9.6,1,18.9-0.1,28.1-3c11.1-3.6,22.1-7.2,32.9-11.5
	c4.2-1.7,8.1-3.7,11.9-6.1c4.8-3,9.6-5.9,14.5-8.8c6.2,5,10,11.4,14.4,17.7c-1.4,0.6-2.7,1.1-3.9,1.6c-2.6,1.1-5.2,2-7.7,3.4
	c-9.5,5.3-19.5,9-29.8,12.3c-11.9,3.8-23.9,7.5-36.1,10.4c-4.7,1.1-9.4,2-14,3.1c-5.9,1.4-11.7,3.3-16.9,6.4
	C338.2,199.5,337.8,199.5,337,199.8z"/>
<path class="st0" d="M252.1,226.5c0.8-0.8,1.6-1.7,2.5-2.5c5.4-4.7,11.6-8.2,18.5-10.2c10.9-3,21.8-6.1,32.8-8.9
	c8-2,16.1-3,24.4-3.5c3.8-0.2,7.4,0.2,11,1.6c6.7,2.7,13.6,5.1,20.4,7.7c8.4,3.2,15.7,8.1,22.3,14.2c1.5,1.4,2.8,3.1,4,4.7
	c3.6,5.2,7,10.5,10.7,15.6c2.3,3.1,3.6,6.5,4.6,10.2c0.1,0.2,0,0.5-0.1,0.9c-1.6-0.8-3.1-1.5-4.6-2.2c-6.5-3.3-12.8-6.8-18.5-11.4
	c-7.5-6-15.7-10.9-24.4-15.1c-2.7-1.3-5.3-2.6-7.9-4c-0.4-0.2-0.8-0.7-1-1.2c-1.4-3.4-4.2-5-7.7-5.8c-4.3-1-8.7-1.1-13.1-1.1
	c-4.8,0-9.5,0.4-14.2,1.5c-2.2,0.5-4.3,1.2-6.2,2.4c-0.5,0.3-1.2,0.6-1.8,0.6c-12.9,0.4-25.5,2.9-38.2,5c-4.4,0.7-8.8,1.1-13.2,1.7
	C252.2,226.7,252.2,226.6,252.1,226.5z"/>
<path class="st0" d="M351.6,376.8c-6.7-8.6-15.8-12-25.7-13.8c-3.9-0.7-7.9-1.4-11.8-2c-1.6-0.2-2.5-1.1-3.3-2.5
	c-3.2-5.8-4.9-12.1-5.3-18.7c-0.1-1.3-0.5-2.6-0.6-4c-0.1-0.9,0.1-1.9,0.1-2.8c-0.1-3.4,1.5-5.9,4-7.9c1.1-0.9,2.2-1.9,3.1-2.7
	c1.6,1,2.8,2.2,4.3,2.7c1.4,0.5,3.1,0.3,4.9,0.4c-0.2,1.2-0.3,2.4-0.5,3.6c0.1,0,0.2,0,0.3,0.1c0.4-1.2,0.8-2.5,1.2-4
	c1.1-0.2,2.4-0.4,3.7-0.6c9-1.5,18-0.9,26.8,1.2c2.4,0.6,4.6,1.7,6.8,2.7c1.8,0.9,1.8,1.1,1.4,3c-1.4,7-2.9,13.9-4.3,20.9
	c-1.4,6.6-2.7,13.1-4.1,19.7C352.6,373.7,352.1,375.1,351.6,376.8z"/>
<path class="st0" d="M362.1,327.4c-4-2.4-8-3.6-12.2-4.4c-8.4-1.5-16.8-1.8-25.2-0.3c-1.7,0.3-3.5,0.5-5.2,0.6c-2.1,0.2-4-0.2-5.5-2
	c0.1-0.2,0.2-0.5,0.5-0.7c5.9-4.2,8.3-10.1,8.6-17.1c0.3-6.4-0.6-12.7-2.7-18.8c-0.5-1.6-1.8-2.9-2.2-4.5c-0.3-1.5,0.3-3.1,0.2-4.7
	c-0.2-3.6-0.9-7-3.6-9.6c-0.2-0.2-0.3-0.5-0.6-0.9c0.5-0.3,1-0.6,1.4-0.8c3.3-1.5,6.5-3,9.8-4.3c2.1-0.8,4.2-1.4,6.4-2.1
	c2.4-0.7,2.4-0.6,3.5,1.5c1.7,3.4,3.4,6.9,5.3,10.2c1.9,3.3,3.9,6.6,6.1,9.7c4.5,6.5,8.3,13.4,11,20.9c1.7,4.7,3.3,9.5,5,14.2
	c0.6,1.7,0.8,3.4,0.5,5.2C362.6,322.1,362.4,324.6,362.1,327.4z"/>
<path class="st0" d="M403,512.9c-0.4-4.9-0.9-9.4-1.2-14c-0.4-5.9-1.2-11.7-2.6-17.5c-0.8-3.2-1.1-6.6-1.2-9.9
	c-0.3-7.8,0.7-15.4,3.2-22.9c0.3-1,0.8-1.7,1.8-2.1c1.6-0.6,3.1-1.4,4.6-1.9c3.6-1.2,6.9-2.8,9.7-5.5c1.1-1.1,2.5-2,3.8-2.8
	c2-1.2,3.2-0.9,4.5,1c0.8,1.2,1.5,2.5,2,3.8c3.7,9.1,6.1,18.5,5.6,28.4c-0.2,4.2-0.2,8.4-0.4,12.7c0,0.9,0.1,1.9-0.9,2.6
	c-0.2,0.1-0.4,0.8-0.3,1c0.6,1.3-0.1,2.4-0.8,3.3c-1.2,1.8-2.5,3.5-3.9,5.2c-8.9,11.1-8,10.3-22,17.8
	C404.4,512.3,403.8,512.5,403,512.9z"/>
<path class="st0" d="M232.6,344.5c-1.3-1.9-1.1-3.7-0.7-5.4c0.7-3.8,1.5-7.5,2.2-11.3c1.1-6.2,2.2-12.4,3.3-18.6
	c0.5-2.6,1.3-5.1,1.8-7.7c1.3-6.1,4.9-10.3,9.7-14c4.4-3.3,8.9-3.3,13.8-1.9c1.5,0.4,3.1,1,4.4,1.8c6.4,3.7,12.9,7.3,19.2,11.3
	c5.7,3.6,9.9,8.8,13.5,14.3c1.5,2.2,2.4,4.7,2.8,7.3c0.7,4,1.2,8,0.2,12.3c-0.4-0.2-0.8-0.3-1-0.5c-9.1-7.9-19.6-11.6-31.7-10.8
	c-9.3,0.6-18.4,2-27.3,4.7c-0.8,0.3-1.7,0.5-2.5,0.8c-2.6,0.9-4.3,2.6-4.9,5.4c-0.7,3.2-1.5,6.4-2.2,9.5
	C233,342.6,232.9,343.4,232.6,344.5z"/>
<path class="st0" d="M331.4,426.7c-2.8-1.5-5.2-2.8-7.6-4.1c0.2-0.9,0.9-2,0.6-2.9c-0.3-0.9-1.3-1.8-2.1-2.4
	c-3.4-2.3-6.5-4.9-8.9-8.2c-0.6-0.8-1.1-1.6-1.5-2.4c-0.2-0.4-0.3-1-0.2-1.3c0.8-2.3,0.1-4.4-0.9-6.4c-1-1.9-1.9-3.9-3-5.7
	c-2-3.1-0.8-5.7,1-8.3c1.8-2.6,3.6-5.2,5.2-7.9c2.2-3.8,2.1-7.8,0.4-11.8c-0.4-0.9-0.7-1.8-1-2.6c0.2-0.2,0.3-0.4,0.4-0.3
	c5.3,1.1,10.6,2.2,15.9,3.5c4.1,1,8.1,2.5,11.8,4.6c2.8,1.6,5.2,3.7,7.2,6.2c0.6,0.8,1.4,1.4,2.4,2.4c-0.2,0.5-0.4,1.3-0.7,2.1
	c-3.8,9.6-7.7,19.1-12.6,28.2c-1,1.8-2,3.6-2.9,5.5C332.8,418.4,331,422.1,331.4,426.7z"/>
<path class="st0" d="M417.3,263.5c-3.3-1.7-6.8-3.4-10.3-5.1c-1.4-0.7-1.6-2-1.7-3.2c-0.3-4.3-2.4-7.7-4.7-11.1
	c-4.4-6.2-8.8-12.4-13.1-18.5c-0.1-0.1-0.1-0.3-0.1-0.4c7.3-1.8,14.7-2.2,22.1-2.9c8.9-0.9,16.8-4.3,24.1-9.2
	c2.8-1.8,5.5-3.8,8.3-5.6c1.2-0.8,2.5-1.4,4-1.7c-0.3,0.7-0.6,1.4-0.8,2.1c-1.2,3.2-2.4,6.4-3.7,9.6c-1.4,3.5-1.1,6.9,0.6,10.2
	c0.3,0.6,0.7,1.3,1,1.9c1.3,2.5,1,3.6-1.5,5.1c-1.4,0.8-2.9,1.6-4.6,2.4c-0.1-0.9-0.2-1.7-0.3-2.4c-0.2,0-0.3-0.1-0.5-0.1
	c-0.2,0.7-0.4,1.4-0.5,2.1c-0.3,1.6-0.4,3.2-0.7,4.7c-0.5,3.2-2.1,5.4-5.2,6.5c-1.4,0.5-2.8,1.2-4,2c-1.1,0.7-1,1-0.6,2.5
	c0.8-0.7,1.5-1.4,2.6-2.4c-0.2,0.9-0.2,1.3-0.3,1.7c-0.9,2.3-1.8,4.6-2.7,6.9c-0.7,1.7-2,2.6-3.6,3.3
	C419.8,262.3,418.7,262.8,417.3,263.5z M438.3,214.5c-2.9,0-6.8,2.3-8.2,4.9c1.4-0.7,2.5-1.3,3.8-1.9c0,1.7,0,3.1,0,4.7
	c1.1-0.5,1.4-1.3,1.5-2.2c0.2-1.8,0.6-3.4,2.2-4.5C437.8,215.3,437.9,215,438.3,214.5z"/>
<path class="st0" d="M156.6,597c5.3,0.3,9.8-1.3,13.9-4.7c3.7-3.1,7.6-5.8,10.7-9.5c1.5-1.8,2.3-1.6,4.1,0.2c-0.3,1.1-0.7,2.3-1,3.4
	c-1,4.4-0.5,8.6,1.3,12.8c2.7,6.3,7.8,14.9,12.3,20.2c-1,2.5-2.1,4.8-3,7.3c-2.8,7.9-6.1,15.6-10.8,22.6c-1,1.4-1.8,3-3.5,4
	c-1.6-0.6-2.4-2-3.2-3.4c-0.3-0.4,0.1-1.3,0.4-2c1.4-4,2.8-7.9,4-12c-2.2,4-3.5,8.3-5.2,12.7c-1.6-1.4-2.5-3.2-3.4-5
	c-0.2-0.4,0.1-1.2,0.3-1.8c0.9-2.1,1.8-4.3,2.7-6.4c0.3-0.8,0.6-1.6,0.7-2.5c-1.9,2.7-2.9,6-4.7,9.2c-0.7-1.3-1.3-2.2-1.7-3.3
	c-0.9-2.2-1.6-4.5-2.4-6.8c-0.4-1,0-1.6,0.6-2.4c2.2-2.6,4.3-5.3,6.5-8.1c-1.2,0.4-1.2,0.4-2.8,2.2c-0.8,0.9-1.6,1.8-2.4,2.6
	c-0.8,0.9-1.7,1.9-2.5,2.8c-2.2-3.6-4.3-7.2-6.2-10.4c2.4-2.9,4.9-5.7,7.4-8.7c-1.5,1.2-2.9,2.2-4.2,3.4c-1.4,1.2-2.7,2.5-4.1,3.8
	c-2.1-2.2-3.2-4.9-4.1-8c3.9-2.3,7.7-4.6,11.6-6.9c-0.1-0.2-0.2-0.3-0.3-0.5c-3.9,1.8-7.9,3.3-11.6,6.4c-0.3-0.9-0.6-1.6-0.7-2.3
	c-0.1-2.1-0.1-4.3,0-6.4C155.1,598.4,155.7,597.5,156.6,597C156.7,597,156.6,597,156.6,597z"/>
<path class="st0" d="M385.7,148c1.9,1.6,3.7,3.2,5.6,4.8c2,1.6,4.2,2.5,6.7,2.9c2.2,0.4,4.2-0.2,5.5-2.1c1.1-1.6,2-3.5,2.5-5.3
	c1.6-5.8,1.9-11.6,1.1-17.6c-0.1-0.8-0.2-1.6-0.3-2.4c0-0.1,0.1-0.3,0.2-0.5c1.5,1.3,3,2.7,4.6,3.7c3.6,2.2,7.3,4.2,11,6.3
	c2.8,1.6,5.6,3.4,8.4,5.1c-0.3,0.5-0.4,0.7-0.6,0.8c-5.5,3.3-10.9,6.7-16.4,9.9c-2.7,1.6-5.6,3.2-8.5,4.3c-12.1,4.7-24.4,9-37,12.3
	c-10,2.6-20.2,2.7-30.4,1.6c-0.6-0.1-1.2-0.3-1.8-0.4c-0.7-7.1,3.7-19,8.8-23.6C358.7,152.4,372.1,152.5,385.7,148z"/>
<path class="st0" d="M330.1,231.1c-1,0.2-1.3,0.4-1.7,0.4c-8.5,0.4-17,1.8-25.3,3.6c-10.9,2.3-21.8,4-32.8,5.1
	c-8.1,0.8-16.1,2.4-23.9,4.6c-8.8,2.4-17.6,3.6-26.7,3.3c-1.2,0-2.3,0-3.5,0c0.1-0.2,0.2-0.4,0.3-0.4c4.6-2,8.5-5,12.5-7.9
	c8.1-5.9,16.9-9.8,26.9-11.2c11.9-1.7,23.8-3.6,35.7-5.3c4.3-0.6,8.6-0.6,12.9-0.9c0.9,0,1.8,0.1,2.6,0.3c6.9,1.6,13.5,3.9,19.9,6.6
	C327.9,229.6,328.7,230.3,330.1,231.1z"/>
<path class="st0" d="M304.6,387.9c0.2,4.7,2.3,8.4,4.1,12.2c-2.5,0.4-4.8,0.5-7,1.1c-3.5,0.9-6.8,2.1-10.2,3.3
	c-4.4,1.5-8.7,3.1-13.1,4.6c-0.8,0.3-1.5,0.5-2.3,0.8c-1.5,0.5-2.3,1.6-2.4,3.2c0,1-0.1,2.1-0.3,3.1c-0.1,0.8-0.2,1.5-0.4,2.7
	c-1.1-0.6-2-1-2.9-1.5c-1.8-1.1-3.7-1.9-5.8-1.9c-1.5,0-2.3-0.7-2.9-2.1c-0.4-1.1-1.1-2.1-1.5-3.2c-0.5-1.3-0.9-2.7-1.2-4.1
	c-0.4-1.9-0.6-3.9-0.9-6c1.8-2.8,3.7-5.7,5.5-8.7c2.4-3.9,5.6-6.7,9.7-8.9c8-4.1,16.5-5.7,25.2-7.2c2.6-0.5,5.1,0.2,7.3,1.7
	c1.5,0.9,3,1.8,4.6,2.8c-1.1,2.6-3.6,4.1-5.1,6.7c-3.4-2.2-7-2.6-10.8-2.2c-6.1,0.7-11.9,2.6-16.9,6.2c-4.3,3.1-7,7.6-9.1,12.4
	c0,0.1,0.1,0.3,0.1,0.5c1.7-2,3.3-4.1,5-6.1c4.5-5.3,10.5-8.2,17-10.1c3.5-1,7.1-1.3,10.6-0.4C302.2,387.1,303.3,387.5,304.6,387.9z
	"/>
<path class="st0" d="M176.8,661.5c-4.9,0.5-7.8,3.3-9.6,7.6c-0.8,1.9-1.8,3.8-2.8,5.5c-0.5,0.9-1.3,1.5-2.1,2.4
	c-2.6-2.7-4.6-5.4-5.6-8.7c-1.2-3.8-2.1-7.7-2.8-11.6c-1.3-7.2-3.1-14.2-5.6-21c-2-5.4-3.3-11-4.9-16.5c-0.7-2.3-0.6-4.6-0.2-6.9
	c0.4-2.2,1.5-3.9,3.3-5.1c1.9-1.2,3.9-2,6.1-3.1c0.3,0.7,0.5,1.2,0.6,1.7c0.9,4.9,2.7,9.5,5.6,13.6c3.7,5.1,6.3,10.6,8.1,16.7
	c1.9,6.4,5.8,11.7,9.9,16.8c1,1.2,1.5,2.2,1,3.8C177.2,658.3,177,660,176.8,661.5z"/>
<path class="st0" d="M281.2,522c0.5-0.5,0.7-0.8,1-1.1c6.8-5.2,13-11,18.3-17.7c1.5-1.8,1.5-1.8,3.8-0.9c0.7,0.3,1.5,0.7,2.3,0.7
	c2.4-0.1,4.1,1.4,6,2.6c1.7,1.1,3.5,1.9,5.3,2.7c2.6,1.1,5,0.5,7-1.6c1.1-1.1,2.1-1.7,3.7-1.3c1.7,0.5,3,1,3.7,2.8
	c2.8,6.7,5.7,13.3,8.8,20.2c-1.6,0.3-3.2,0.7-4.8,1c-12.8,2.4-25.4,1-37.9-2.1C292.6,526,287,524.4,281.2,522z"/>
<path class="st0" d="M316.8,671.9c0.9-3.9,1.8-7.8,2.7-11.6c-0.2,0-0.4-0.1-0.6-0.1c-0.5,1.9-1.1,3.8-1.5,5.7
	c-0.5,1.8-0.9,3.7-1.4,5.8c-1.4-0.3-2.8-0.6-4.1-0.9c-1-0.2-1.1-1.1-1-1.9c0.2-2.6,0.3-5.3,0.5-7.9c0-0.5,0-0.9-0.1-1.4
	c-1.4,3.3-1.7,6.8-2.2,10.5c-1-0.2-1.8-0.4-2.6-0.7c-1.5-0.4-2.3-1.5-2.1-3c0.2-2,0.4-4,0.8-5.9c1.3-6.6,2.6-13.1,4-19.7
	c0.1-0.6,0.3-1.2,0.6-2c3.1,0.7,5.8-0.6,8.6-1.2c2.1-0.5,4.2-1,6.1-1.5c5.4,5.3,12.5,7.3,18.9,10.9c-0.4,0.8-0.8,1.6-1.1,2.4
	c-1.8,4.6-3.7,9.2-5.3,13.8c-1.5,4.4-1.5,9.1-1.4,13.7c0,0.9-0.1,1.8-0.1,3.3c-3.5-1.8-6.5-3.4-9.6-5c0.7-4.8,1.4-9.5,2.1-14.3
	c-0.2,0-0.3-0.1-0.5-0.1c-0.3,1.5-0.6,2.9-0.9,4.4c-0.3,1.5-0.5,3-0.7,4.5c-0.2,1.6-0.4,3.1-0.7,5
	C322.2,673.8,319.6,672.9,316.8,671.9z"/>
<path class="st0" d="M285.7,483.3c-4.2-0.9-8.3-1.9-12.5-2.8c-7.7-1.6-15.6-2.4-23.5-3.2c-7.2-0.7-14.4-1.3-21.6-2.7
	c-6.5-1.3-12.1-4.4-17.3-8.2c-0.5-0.3-0.9-1-1-1.5c-0.5-2.4-1-4.9-1.2-7.3c-0.2-2,0.1-4.1,0.1-6.1c0-0.4-0.1-0.7-0.5-1.1
	c-0.4,0.8-0.8,1.6-1.2,2.5c-1.4-1.1-1.4-2.3,0.2-2.9c1.1-0.4,2.3-0.5,3.5-0.5c5.9,0,11.6,0.8,17.3,2.2c4.5,1.1,8.6,3,12.1,6
	c5.2,4.4,11.1,7.8,17.2,10.8c7.6,3.7,15.1,7.5,22.7,11.3c2,1,3.9,2.2,5.9,3.4C285.8,483.2,285.8,483.3,285.7,483.3z"/>
<path class="st0" d="M389.4,498.7c-0.8-1.3-1.3-2.2-1.8-3c-3.2-5-5.1-10.4-5.9-16.3c-1-7.5-1.6-15.1-1.1-22.7
	c0.4-5.4,1.7-10.5,3.1-15.7c0.8-2.8,1.8-5.4,3.3-7.9c3.4-5.6,4.5-11.9,4.6-18.4c0.1-8.4,0.4-16.7,1.4-25.1c0.2-1.8,0.7-3.4,1.8-4.9
	c2.1-3,4.1-6,6.3-9.3c0.1,0.7,0.3,1.1,0.3,1.6c0.7,6.8,1,13.6,0.1,20.5c-1.2,10.2-3,20.3-5.5,30.3c-1,4.2-1.5,8.5-1.4,12.8
	c0,4.8-0.6,9.5-1.9,14.2c-1.5,5.3-1.9,10.8-1.9,16.3c0,5.6,0,11.2,0,16.7C390.8,491.5,390.2,494.8,389.4,498.7z"/>
<path class="st0" d="M310.7,439.9c-0.5-0.6-0.9-1-1.2-1.4c-0.5-0.7-0.9-1.5-1.4-2.2c-2.1-2.7-3.5-5.5-3.2-9.1
	c0.1-1.6-0.5-3.3-0.9-4.9c-0.2-1-0.7-1.9-1.8-2.5c-0.8,1.2-0.3,2.2-0.1,3.3c0.9,4.2,1.3,8.4,0,12.5c-0.3,1-0.7,2-1.2,2.8
	c-0.9,1.5-1.7,1.8-2.9,1.3c-1.8-0.7-2.9-2-2.5-3.5c0.9-3.5,0.4-7-0.6-10.4c-0.2-0.8-0.8-1.6-1.3-2.5c-1.4,0.9-1,1.8-0.8,2.7
	c0.3,1.6,0.8,3.3,1.1,4.9c0.4,2.4-0.1,4.8-1.2,6.9c-0.7,1.3-1.4,1.6-2.7,0.8c-1.9-1.2-3.4-2.6-3.6-5c-0.2-2.1-0.6-4.1-0.9-6.1
	c-0.1-0.8-0.2-1.6-1.2-2c-0.8,1.2-0.2,2.4-0.1,3.5c0.2,3.3,0.3,6.7,0.5,10c0,0.5-0.1,1-0.3,2.2c-0.8-1.2-1.3-1.8-1.8-2.5
	c-2.5-3.8-4-8-5.4-12.2c-1.2-3.6-2.4-7-1.4-11c0.8-3.3,0.5-3.3,3.8-4.4c4.5-1.5,9-3.1,13.5-4.8c3.7-1.4,7.5-2.7,11.4-3.4
	c0.9-0.1,1.7-0.2,2.6-0.3c2.3-0.1,2.3,0,2.7,2.2c0.9,4.7,3.8,8.2,7.3,11.2c1,0.8,2.1,1.5,3.1,2.3c0.7,0.5,1.3,1.1,2.2,1.8
	c-3.7,1.8-7,0.2-10.5,0.4c-0.7-1.1-0.4-2.9-2-3.8c-1.1,1.3-0.5,2.6-0.3,3.8c0.7,3.7,1.6,7.3,2,11c0.3,2.3-0.1,4.6-0.2,6.9
	C311.3,438.9,311,439.3,310.7,439.9z"/>
<path class="st0" d="M162.8,678.2c2.9-1.6,4.4-4,5.6-6.6c0.7-1.4,1.4-2.9,2.4-4.1c1-1.2,2.4-2.1,3.7-2.9c0.9-0.6,1.9-0.3,2.9,0.2
	c2.2,1.2,4.4,2.4,7,2.9c2.9,0.5,5.6,0.2,8.2-0.9c2-0.9,4-2,6-3c1.4-0.7,2.8-1.6,4.8-1.3c0,1,0.1,2,0,3c-0.1,1-0.4,2-0.7,3
	c-0.7,3.2-0.8,6.3,0.2,9.5c1.3,4.1,0.7,8-1.3,11.8c-0.4,0.8-0.8,1.6-1.1,2.4c-1.3,3.7-4.3,5.1-7.9,5.6c-2.5,0.4-4.9-0.1-7.2-1.1
	C176.2,692.8,169.3,686,162.8,678.2z"/>
<path class="st0" d="M400.7,514.2c-2.2,0.9-4.1,2.3-6.8,2.5c-0.8-3.2-1.7-6.2-2.2-9.3c-0.5-2.8-0.4-5.6,0.2-8.3
	c1.5-7.3,1.5-14.6,1.2-21.9c-0.3-8.3,0.2-16.5,2.4-24.7c0.9-3.5,1.2-7.3,1.2-10.9c0.1-6.3,1.2-12.4,2.7-18.4
	c2.5-10.2,4.1-20.5,5-30.9c0.4-4.1,0.2-8.3-0.5-12.4c-1.5-9.5,0.1-18.6,2.7-27.6c1.7-5.9,2.4-11.8,2-18c-0.4-5.2-0.8-10.5-0.2-15.8
	c0.3-3.1,0.7-6.2,1-9.5c0.8,0.1,1.6,0.3,2.4,0.4c-0.5,2.7-0.9,5.3-1.5,7.8c-1.5,7.6-1.4,15.2,0.1,22.8c1.3,6.7,1,13.5-0.8,20.2
	c-2.7,9.7-3.2,19.6-2.4,29.7c0.8,10.5,0.4,20.9-0.9,31.3c-0.7,5.5-2.1,10.8-3.8,16c-2,6.3-4,12.7-5.4,19.1c-1.8,8.4-2,17-0.1,25.4
	c1.4,6.3,2.2,12.6,2.7,18.9c0.3,3.4,0.6,6.8,0.9,10.3C400.8,511.9,400.7,512.9,400.7,514.2z"/>
<path class="st0" d="M422.6,384.7c0.9,6.6,1.9,13.3,2.6,20c0.5,4.4,0,8.7-0.7,13.1c-0.9,5.1-1.8,10.2-1.5,15.6
	c-3.6,0.8-6,3.3-8.6,5.4c-3.5,2.8-7.3,5.1-12.1,6.3c0.3-1.1,0.4-2,0.7-2.9c1.2-4.1,2.8-8.2,3.6-12.4c2.9-13.8,3.9-27.8,2.7-41.8
	c-0.1-1-0.2-2-0.2-3.3C413.5,384.7,417.8,384.7,422.6,384.7z"/>
<path class="st0" d="M304.8,499.4c-8.3-2.9-16.7-5.2-25.3-6.5c-2.9-0.4-5.9-0.6-8.8-1c-5.9-0.7-11.9-1.5-17.8-2.2
	c-6.5-0.8-13-1.5-19.5-2.4c-4.8-0.7-9.6-1.6-14.2-3.3c-1.4-0.5-2.8-1.2-4.1-2c-2.4-1.5-4.3-3.3-4-6.7c0.2-2.1-0.4-4.3-0.6-6.6
	c0.5,0.1,0.8,0.1,1,0.3c5.8,5.3,12.7,7.8,20.3,8.8c8.4,1.1,16.8,1.9,25.2,2.8c8.4,0.9,16.8,2.2,24.9,4.4c1.6,0.4,3.2,1,4.7,1.6
	c1.4,0.6,2.8,1,4.3,1.1c1.7,0,3.2,0.8,4.5,2.1C298.6,493,301.7,496.2,304.8,499.4z"/>
<path class="st0" d="M212.6,258.6c0,0.9,0.1,1.7,0,2.6c-0.7,8.3-1.3,16.5-2.1,24.8c-0.7,7,0,13.8,3,20.3c1.1,2.4,2.1,4.8,3.2,7.2
	c0.3,0.7,0.5,1.4,0.8,2c-3.5-1.2-6.8-2.6-10.2-3.3c-3.8-0.8-7.7-1-11.6-1.4c-3.1-0.4-6.3-0.7-9.6-1c0.2-0.8,0.3-1.3,0.5-1.7
	c2.6-6.4,5.3-12.8,7.7-19.3c3.8-10.1,9.7-19,16.1-27.6c0.7-0.9,1.3-1.8,2-2.6C212.3,258.5,212.5,258.5,212.6,258.6z"/>
<path class="st0" d="M141.1,610.5c-0.2,1.3-0.3,2.6-0.4,3.8c-0.3,3.8,0.8,7.4,1.7,11.1c0.9,3.4,1.8,6.8,3.1,10
	c3,7.7,4.9,15.7,6.2,23.8c0.9,5.3,2.1,10.5,5.3,15c1.4,1.9,2.8,3.9,4.4,5.7c3.3,3.6,6.7,7.3,10.3,10.7c4.1,4,9.3,6.5,14.5,8.7
	c3.2,1.4,6.6,1.1,9.8,0c0.7-0.2,1.3-0.5,2.4-0.9c-0.4,2-1,3.6-2.1,4.9c-0.5,0.6-1.5,1-2.3,1c-2.4,0.1-4.8,0.3-7.1,0
	c-6-0.8-11.6-2.5-16.6-6.2c-7.2-5.3-13.4-11.6-18.7-18.7c-3.3-4.5-5.5-9.5-6.4-15c-1.1-6.7-2.2-13.4-3.7-20
	c-1.5-7.1-4-13.9-7.5-20.4c-0.4-0.7-0.8-1.4-1.1-2.1c-0.5-1.2-0.4-2.3,0.4-3.4c1.5-2,2.9-4,4.3-6.1
	C138.6,611.3,139.7,610.7,141.1,610.5z"/>
<path class="st0" d="M258.8,493.2c1.2,7.5,2.5,14.8,3.7,22.5c-3.1-0.8-5.7-1.6-8.4-2.3c-9.3-2.6-18.7-4.5-28.2-6.3
	c-3.8-0.7-7.6-1.8-11.3-2.7c0-0.2,0-0.3-0.1-0.5c0.6-0.3,1.2-0.6,1.7-1c3.7-2.6,7.5-5.1,11.2-7.7c2.1-1.5,4-3.2,6.1-4.7
	c0.5-0.4,1.3-0.6,2-0.5c7.2,0.9,14.4,1.9,21.6,2.9C257.5,492.8,258,493,258.8,493.2z"/>
<path class="st0" d="M412,335.5c2,0.6,3.7,1,5.2,1.7c4,1.8,7.8,3.9,11.3,6.6c1.5,1.2,2.1,2.5,1.8,4.3c-0.3,2.1-0.8,4.2-1.2,6.3
	c-1.2,7-2.4,14-3.4,21c-0.8,5.5-1.5,6.4-7,6.8c-2.8,0.2-5.6,0.1-8.4,0.2c-0.4,0-0.8-0.1-1.3-0.1c-0.1-0.7-0.2-1.4-0.2-2.1
	c0-6.3,0.7-12.4,2.5-18.4c2.3-7.7,2.4-15.4,1-23.2C412.2,337.8,412.2,336.9,412,335.5z"/>
<path class="st0" d="M259.7,493.3c2.7,0.3,5.2,0.7,7.7,0.9c8.8,0.7,17.4,1.8,25.9,4.3c2.1,0.6,4.2,1.4,6.5,2.1
	c-0.5,0.7-0.8,1.2-1.2,1.7c-4.6,5.7-9.8,10.9-15.1,16c-0.3,0.3-0.6,0.5-0.9,0.8c-2.9,3.2-2.1,2.7-5.8,1.4c-3.3-1.1-6.6-2.4-10-3.4
	c-1.6-0.5-2.3-1.4-2.6-2.9c-0.9-4.8-1.9-9.5-2.9-14.3c-0.4-1.9-1.1-3.7-1.6-5.5C259.7,494.1,259.7,493.8,259.7,493.3z"/>
<path class="st0" d="M340.4,699.7c0-3.5-0.1-6.5,0-9.5c0.1-2.6,1.2-4.9,2.9-6.9c1.2-1.4,2.1-2.9,3.6-5c0.8-0.1,2.3-0.3,3.7-0.4
	c4.5-0.3,9.1-0.3,13.6-0.7c3.3-0.3,5.9,0.4,8.2,2.8c2,2.2,4.2,4.1,6.3,6.2c1.8,1.8,3.1,3.8,3.6,6.3c0.1,0.7,0.2,1.4,0.3,2.3
	C368.4,694.8,354.8,698.6,340.4,699.7z"/>
<path class="st0" d="M385.3,705.6c-7.7-1.1-14.9,0.3-22.1,1.7c-4.3,0.9-8.7,1.4-13,2c-4.5,0.6-8.9,0-13.2-1.5c-8.3-3-16.5-6-24.7-9
	c-0.2-0.1-0.5-0.1-0.7-0.2c-1.6-0.8-4.1-0.8-4.6-2.7c-0.7-2.5-0.5-5.2,0.5-7.8c0.5-1.2,1.2-1.4,2.5-0.7c2.5,1.4,4.9,3,7.4,4.2
	c6.5,3.3,13,6.4,19.5,9.6c1.9,1,4,1.1,6.1,0.8c5.5-0.7,11.1-1.5,16.6-2.3c6.7-1.1,13.4-2.2,20.2-2.3c1.1,0,2.2-0.1,3.3,0.1
	c2.5,0.3,3.9,2.3,3.3,4.8C386.3,703.3,385.8,704.3,385.3,705.6z"/>
<path class="st0" d="M165.4,360.5c4.8-0.8,9.6-1,14.4-0.8c5.5,0.3,10.9,1.2,16.1,3.2c2,0.8,4,1.6,5.5,3.3c0.5,0.6,1,1.2,0.6,2.1
	c-1.6,4.6-3.2,9.1-4.8,13.8c-11-6.7-22.4-6.5-34.4-3c0.5-3,1.1-6,1.5-9.1C164.7,366.9,165,363.8,165.4,360.5z"/>
<path class="st0" d="M329.9,233.8c-2.9,1.7-5.9,3.4-8.8,5.1c-3.1,1.8-6.3,2.8-10,2.7c-5.1-0.1-10,1-14.9,2.2
	c-11.4,2.8-22.8,5.3-34.4,7.1c-4.6,0.7-9.2,0.9-13.8,1.2c-6.8,0.5-13.7,0.9-20.5,1.3c-2.6,0.1-5.3-0.2-7.9-0.3
	c-2.7-0.1-4.7-1.7-7.3-3.3c1-0.3,1.6-0.5,2.2-0.6c1.7,0,3.4-0.1,5,0.1c9.1,1,18-0.3,26.7-2.6c11.1-3,22.5-4.5,33.9-5.7
	c7-0.8,13.9-2.2,20.7-3.5c8.2-1.6,16.5-3,24.8-3.8c1.4-0.1,2.8-0.2,4.2-0.2C329.9,233.6,329.9,233.7,329.9,233.8z"/>
<path class="st0" d="M307.6,220c1.4-0.4,2.7-1,4.1-1.2c8.8-1.5,17.6-1.7,26.4-0.2c4,0.6,6.4,2.7,7.5,6.6c0.9,3.2,2.4,13.6,1.9,16.6
	c-1.7,0.1-3.5,0.1-5.2,0.3c-3.4,0.4-6.6,1.4-9.3,3.5c-0.9,0.7-1.8,1-2.9,0.8c-0.6-0.1-1.3-0.1-1.9-0.1c-3.6,0.2-6.4-1.4-9-4.1
	c1.6-0.9,3.1-1.7,4.6-2.6c2.2-1.3,4.2-2.8,6.7-3.6c2.7-0.9,3.3-4,1.3-6c-1.3-1.3-3-2.3-4.8-3c-5.6-2.3-11.3-4.5-17.2-5.8
	c-0.8-0.2-1.5-0.4-2.3-0.6C307.5,220.4,307.6,220.2,307.6,220z"/>
<path class="st0" d="M174.8,324.6c1.8-0.1,3.7,0.5,5.4,1.4c4.2,2.3,7.5,5.7,9.7,9.9c1.9,3.6,1.4,7.1-1.4,10.2
	c-3.3,3.7-7.3,6.1-12.2,7c-2.5,0.4-4.7-0.1-6.8-1.4c-2.4-1.4-4-3.6-5.7-5.6c-0.4-0.4-0.5-1.2-0.6-1.8c0-0.9,0-1.8,0.2-2.6
	c1.4-5.1,3.4-10,6-14.5C171.1,324.6,171.5,324.4,174.8,324.6z"/>
<path class="st0" d="M192,333.7c-1.3-1.6-2.2-2.8-3.2-3.9c-2-2.3-4.2-4.4-6.9-5.8c-1.4-0.7-2.7-1.1-4.3-1.1c-1.4,0-2.8-0.3-4.1-0.4
	c-0.2-2.2-0.6-4.2-0.7-6.2c-0.1-2.9,0.5-3.7,3.2-4.5c3.6-1,7.3-1,10.9,0c3.9,1.2,8,1.4,12,1.7c4.2,0.2,8.2,0.9,12.2,2.3
	c0.8,0.3,1.6,0.6,2.4,1c-4.5,6.6-8.9,13-13.4,19.6c-2.1-0.5-4.4-1.1-6.8-1.6c-0.4-6.9-1.4-13.7-2.5-20.5
	C190.6,320.7,190.8,327,192,333.7z"/>
<path class="st0" d="M369.4,480.1c0.4,3.2,0.8,6,1.2,8.8c0.1,0.6,0.1,1.3,0.3,1.9c0.6,1.9,0,3-1.6,4.1c-3.1,2-6.5,2.6-10,2.9
	c-6,0.5-11.7-0.1-17.4-2.2c-2.5-0.9-5.1-2-8.2-1.5c1.6-5.1,3.1-9.8,4.7-14.7C348.6,480.1,358.8,481.4,369.4,480.1z"/>
<path class="st0" d="M206,455.4c-1.7-0.2-2.4-1.1-3.1-1.9c-1.2-1.7-2.4-3.4-3.5-5.2c-1.5-2.4-0.9-4.8,1.7-6.2
	c0.8-0.4,1.8-0.7,2.7-0.9c8.3-1.8,16.5-0.9,24.5,1.7c8.1,2.6,15.4,6.5,20.9,13.3c6,7.3,13.7,12.3,22.7,15.3c2.9,1,5.8,1.9,8.6,3
	c5,2,9.7,4.5,13.3,8.6c1.3,1.5,2.4,3.2,3.5,4.7c-0.1,0.1-0.2,0.3-0.4,0.4c-0.7-0.4-1.5-0.7-2.1-1.2c-8-5.7-16.7-10.2-25.6-14.4
	c-5.4-2.6-10.8-5.1-16-8c-3.6-1.9-7.1-4-10.2-6.6c-6.6-5.7-14.4-8.3-22.9-9.4c-3-0.4-6-0.7-9-0.9c-1.3-0.1-2.7,0.1-4,0.4
	c-2.8,0.8-3.6,3-2.2,5.5C205.2,454.2,205.5,454.7,206,455.4z"/>
<path class="st0" d="M359.3,120.3c-3.2,9.4-8.7,17.3-15,24.7c-0.3,0-0.4,0.1-0.6,0c-5.4-2.9-10.1-6.7-13.7-11.6
	c-3.1-4.3-2.8-6.7,1.1-10.4c2.3-2.2,5-3.4,8.1-3.8C345.8,118.4,352.5,118,359.3,120.3z"/>
<path class="st0" d="M369.7,284c11.8,5.9,24.3,7.7,37.1,9.1c0.2,2.2,0.5,4.4,0.7,6.6c0.3,2.2,0.5,4.4,0.8,6.6c0.1,0.5,0,1.1-0.1,1.6
	c-0.4,1.9-0.9,3.9-1.4,6.1c-1.1-0.2-2.2-0.3-3.2-0.7c-3.2-1.3-6.4-2.4-9.4-4.1c-10.3-5.9-18.4-14.1-24.3-24.4
	C369.7,284.7,369.8,284.5,369.7,284z"/>
<path class="st0" d="M427.1,416.6c2.1-11.3-1-22-3.1-32.8c4-1.9,3.8-5.9,4.5-9.3c2.1-0.2,3.9,0.4,5.2,1.7c4.5,4.3,8.3,9.3,10.7,15.1
	c0.5,1.1,0.6,2.6,0.2,3.7c-0.5,1.9-1.3,3.8-2.4,5.4c-3.9,6-8.9,11-14.2,15.8C427.9,416.4,427.7,416.4,427.1,416.6z"/>
<path class="st0" d="M475.2,459.4c3.6,2,7.3,2,11,2.5c5.2,0.7,10.4,1.8,15.4,3.5c1.6,0.6,3.1,1.3,3.7,3.1c0.1,0.4,0.1,0.8,0.2,1.4
	c-0.7,0-1.3,0.1-1.9,0c-4.7-0.5-9.3-1.2-14-1.4c-2.2-0.1-4.5,0.6-6.8,1.2c-2,0.5-3.9,1.3-5.9,2c-3.5,1.2-5,4.7-3.2,8
	c1.7,3.2,3.6,6.2,5.2,9.4c0.8,1.5,1.4,3.2,1.6,4.9c0.3,2-0.7,2.8-2.7,2.6c-2.3-0.3-4.2-1.5-5.6-3.4c-1.7-2.1-3.4-4.3-4.6-6.7
	c-1.9-3.7-4.8-5.6-8.9-5.9c-0.2,0-0.4-0.1-0.9-0.3C464.8,474.3,471.2,467.9,475.2,459.4z"/>
<path class="st0" d="M430.2,342c-5.6-4.3-11.6-7.3-18.6-8.5c-1.5-7.9,0.5-15.8,0.8-23.8c2.7,0,4.8,1.3,7,2.1
	c3.4,1.2,5.7,3.8,8.2,6.3c3.6,3.6,5,7.8,5,12.7C432.6,334.7,431.9,338.3,430.2,342z"/>
<path class="st0" d="M214,376.6c-4.9-1.6-8.9-0.5-13.1,2.4c0.4-1.3,0.6-2,0.8-2.8c2.1-6.1,4.2-12.2,6.3-18.3
	c1.7-5.1,3.2-10.3,3-15.7c4.5-2.7,8.6-5.9,12.1-10.1c1.4,4.9,0.7,10,3.7,14.2c-0.2,0.2-0.3,0.5-0.5,0.7c-6,4.9-9.1,11.4-10.3,18.8
	C215.4,369.4,214.7,372.8,214,376.6z"/>
<path class="st0" d="M165.6,352.1c1.1,0.7,1.8,1.1,2.4,1.6c3,2.2,6.3,2.6,9.8,1.8c5.2-1.2,9.5-3.9,13-8c2.3-2.7,3.3-5.8,2.6-9.3
	c-0.1-0.5-0.2-1.1-0.3-2c5.8,1.8,11.1,4,16,7.3c0.1,3-3.6,16.1-6.1,20.7c-4.8-4.2-10.8-5.1-16.8-6c-6-0.9-12.1-0.8-18.1,0.5
	c-0.7,0.2-1.4,0.3-2.2,0.5C164.9,356.9,165.8,354.7,165.6,352.1z"/>
<path class="st0" d="M405.4,138.6c-0.3,2-0.7,5.4-1.4,8.9c-0.3,1.6-1.2,3.1-2,4.5c-0.7,1.3-2,1.8-3.5,1.6c-2.5-0.2-4.5-1.1-5.7-3.6
	c-1.7-3.8-2.2-7.8-2.6-11.9c-0.6-6.6,0-13.1,1.7-19.4c0.8-2.8,1.4-3.2,4-1.9c2.5,1.3,4.7,3,6.2,5.5
	C405,126.9,405.4,131.9,405.4,138.6z"/>
<path class="st0" d="M337.7,698.6c-8.7-4-17.3-7.9-25.9-11.9c0.2-4.2,0.5-8.5,0.8-13c0.6,0,1.1,0,1.6,0.1c5.6,1.4,10.8,3.8,15.9,6.6
	c1.3,0.7,2.5,1.4,3.8,1.9c2.1,0.9,3.7-0.1,3.8-2.4c0.1-1.3,0-2.7-0.3-4c-0.6-2.2,0.1-4,0.6-5.9c1.1-0.2,1.3,0.6,1.7,1.1
	c1.6,2.2,3.2,4.3,5.1,6.9c-0.2,0.3-0.5,1.1-1,1.8c-0.5,0.7-1.2,1.3-1.8,1.9c-3.3,2.8-4.2,6.5-4.3,10.5
	C337.7,694.3,337.7,696.3,337.7,698.6z"/>
<path class="st0" d="M295,246.4c3.5-0.8,6.9-1.7,10.5-2.3c2.6-0.4,5.2-0.4,7.9-0.6c1.6-0.1,3.1-0.4,5-0.6c2.6,3.7,5.9,6.4,11.2,5.3
	c0.2,3.3,2.7,5.2,3.9,8c-2,0.4-3.8,0.8-5.7,1.2c-4.1,0.9-7.8,2.6-11.3,4.9c-0.3,0.2-0.5,0.4-0.8,0.5c-2.4,1.4-2.4,1.4-4.5-0.5
	c-4.8-4.3-9.5-8.7-13.7-13.7C296.6,247.8,295.7,247.1,295,246.4L295,246.4z"/>
<path class="st0" d="M294.9,246.4c0.6,2.7,2.4,4.7,4.2,6.6c3.1,3.5,6.5,6.8,9.8,10.2c1.6,1.6,3.2,3.2,4.7,4.8
	c2.7,2.9,2.8,6.5,2.6,10.1c-0.1,1.4-0.8,1.8-2.1,1.5c-0.9-0.2-1.8-0.7-2.6-1.1c-2.7-1.6-5.4-3.4-8.2-5c-2.2-1.3-4.1-2.8-5.6-4.8
	c-2.8-3.7-5.7-7.3-9.4-10.1c-0.4-0.3-0.7-0.7-1-1c-2-2.6-3.9-5.2-6-7.9c0.5-0.2,0.8-0.4,1.1-0.5c3.7-0.8,7.3-1.6,11-2.4
	C293.8,246.5,294.4,246.5,294.9,246.4C295,246.4,294.9,246.4,294.9,246.4z"/>
<path class="st0" d="M355.5,133.6c9.2,4.3,18.5,3.6,28,1.2c0.2,3.7,0.4,7.3,0.6,11.2c-1.5,1.1-3.7,1.7-5.8,2.1
	c-10.4,1.7-20.8,1.5-31.1-0.9c-0.3-0.1-0.6-0.2-1.2-0.5c1.5-2.4,3.2-4.4,4.8-6.5C352.3,138,353.9,135.8,355.5,133.6z"/>
<path class="st0" d="M161,385.5c5.1-1,9.8-0.8,14.7,0.2c-2.4,9.2-6.1,17.8-6.9,27.4c-0.4,0.1-0.9,0.2-1.4,0.3
	c-2.6,0.4-5.2,0.8-7.8,1.2c-0.9,0.1-1.9,0.3-2.9,0.3c-1.6,0.1-3.5-1.3-2.9-3.4c0.8-2.8,1.2-5.8,2-8.6
	C157.5,397,159.3,391.3,161,385.5z"/>
<path class="st0" d="M227.6,348c1.5,0.6,2.8,1.1,4.5,1.8c0.4,9.6,5.3,18,9.9,26.7c-2.4,0.2-4.5,0.4-6.7,0.5c-2,0.1-3.8-0.4-5.5-1.4
	c-2.3-1.4-4.6-1.5-7.1-0.8c-2,0.5-3.9,1.1-6.2,1.6c0.7-4.1,1.5-7.9,2.1-11.7c0.8-5.8,3.5-10.5,7.2-14.8
	C226.4,349.1,227.1,348.6,227.6,348z"/>
<path class="st0" d="M332.6,506.5c5.6,1.5,10.9,1.7,16.1,1.3c5.1-0.4,10.3-1,15.5-1.5c-0.7,1.5-1.5,2.9-2.2,4.4
	c-1.7,4.1-3.3,8.3-4.8,12.5c-0.5,1.3-1.1,1.9-2.4,2.2c-3.6,0.8-7.3,1.7-11.1,2.7C340.1,521,336.4,513.9,332.6,506.5z"/>
<path class="st0" d="M383.6,132.3c-7.5,3.2-21.8,2.8-27.3-0.2c0.2-0.6,0.5-1.1,0.7-1.7c1.5-3.3,3-6.5,4.5-9.8c0.5-1,1-1.7,2.2-1.8
	c7-0.9,14-1.1,20.9,0.3c0.5,0.1,1,0.3,1.5,0.5C385.3,123.9,384.5,128,383.6,132.3z"/>
<path class="st0" d="M382,440.7c-6,16.7-4.9,33.3-0.3,50c-2.8-1.2-5.4-3.1-8.9-2.8c-0.1-0.7-0.3-1.3-0.4-1.9
	c-1.1-8.1-2.1-16.3-3.3-24.4c-0.3-2.3-1.1-4.5-1.7-6.7c-0.2-0.8-0.3-1.5,0.3-2.2c0.4-0.5,0.6-1.3,1-1.9c1-1.4,1.9-3.1,3.3-4
	C375.3,444.6,378.7,442.7,382,440.7z"/>
<path class="st0" d="M170.5,322.4c-2.3,2-3.8,4.4-5,7.1c-1.4,3.1-2.7,6.3-3.9,9.5c-1.2,3.1-1.7,6.2,0.3,9.3
	c-1.4,0.7-2.6,0.4-3.8,0.1c-3.3-0.8-5.9-2.9-7.9-5.5c-0.8-1-1.1-2.5-1.3-3.8c-0.8-6.8,1.5-12.2,7.4-15.9c2.4-1.5,4.7-3,7.5-3.6
	C166.9,318.8,168.7,319.6,170.5,322.4z"/>
<path class="st0" d="M177.4,416.2c-2-1.1-3.8-2-6.1-3.2c0.1-1,0.1-2.4,0.4-3.8c1.2-5.2,2.5-10.4,3.7-15.6c0.4-1.9,0.8-3.7,1.3-5.6
	c0.1-0.6,0.4-1.2,0.6-2c5.3,1.4,10.4,3,13.8,7.9C187,401.6,182.1,408.8,177.4,416.2z"/>
<path class="st0" d="M256.4,398.4c0.8-2.7,2-5.4,2.3-8.2c0.2-2.8-0.6-5.6-1-8.6c5.6-1,10.9-3.4,15.8-6.4c4.9-3,9.7-6.2,13.7-9.9
	c4.5,0.8,8.8,1.6,13.1,2.3c2.3,0.3,3.9,1.3,4.6,3.6c0.3,1.1,0.9,2.2,1.5,3.3c-1.9-0.5-3.6-1.2-5.4-1.2c-2.5,0-5.1,0.3-7.6,0.7
	c-2.7,0.5-5.5,1.2-8.2,1.8c-6.1,1.3-11.6,4-16.9,7c-1.4,0.8-2.7,2-3.7,3.4c-2.2,3-4.1,6.2-6.2,9.4c-0.6,1-1.2,2-1.8,3.1
	C256.5,398.6,256.5,398.5,256.4,398.4z"/>
<path class="st0" d="M354.6,647.4c4.7,7.3,6.8,11.9,6.7,14.6c-3.6,1.1-7.3,2.2-10.9,3.3c-3,0.9-6.1,1.9-9.2,2.7
	c-2.3,0.6-3.1-0.1-2.5-2.3c0.8-3.1,1.8-6.1,2.9-9.1c0.9-2.5,2.1-4.8,3.2-7.2c0.3-0.6,0.9-1.3,1.4-1.3
	C349.1,647.7,351.8,647.6,354.6,647.4z"/>
<path class="st0" d="M213.1,503.8c-2.9-1.5-5.8-3-9-4.6c1.3-2.1,2.5-3.8,3.5-5.7c0.9-1.8,1.7-3.8,2.3-5.7c0.6-2,1-4.2,1.5-6.5
	c1.5,1.1,2.8,2.3,4.3,3.2c1.6,0.9,3.3,1.6,5,2.2c1.6,0.6,3.4,0.9,5.1,1.3c1.8,0.4,3.6,0.8,5.8,1.2
	C225.3,494.2,219.4,498.8,213.1,503.8z"/>
<path class="st0" d="M346.7,477.7c0.1-0.5,0.1-0.7,0.2-0.8c4.2-3.6,7-8.4,10.4-12.7c2.5-3.2,4.9-6.4,7.4-9.7
	c2.1,3.2,4,13.4,4.2,22.9C361.6,478.4,354.2,477.9,346.7,477.7z"/>
<path class="st0" d="M214.4,317.3c0.7,0.4,1.4,0.9,2.2,1.3c2.8,1.7,4.3,4.3,5.2,7.4c1.3,4.5,2,3.7-2.1,7.5c-1.4,1.4-3.1,2.4-4.7,3.6
	c-1.7,1.3-3.5,2.5-5.3,3.8c-2.4-1.2-4.8-2.4-7.2-3.6C206.4,330.6,210.3,324,214.4,317.3z"/>
<path class="st0" d="M371.8,495.8c0.5,1.8,0.9,3.4,1.4,5.2c-14.9,4.3-29.7,5.8-44.9,2.5c1.6-2.5,3.1-5,4.7-7.6
	c2.1-0.7,4.1,0.2,6,0.9c3.9,1.5,7.9,2.6,12,3.2c4.4,0.6,8.8,0.5,13.1-0.5c2-0.5,3.9-1.7,5.9-2.6
	C370.6,496.7,371.1,496.3,371.8,495.8z"/>
<path class="st0" d="M212.3,624.8c-0.6,0.5-1.3,0.9-1.8,1.4c-2.7,2.5-5.5,5-8.2,7.7c-1.7,1.6-2.2,3.9-2.6,6.1c-0.5,2.5-1,5-1.3,7.5
	c-0.2,1.4-0.9,1.9-2.2,1.9c-2.8-0.1-5.5-0.2-8.1-0.4c-0.2-0.4-0.2-0.5-0.2-0.6c0-0.1-0.1-0.2,0-0.2c5.2-8.4,8.4-17.8,11.9-27.5
	c3.7,3.7,7.8,5,12.6,3.7C212.2,624.5,212.3,624.7,212.3,624.8z"/>
<path class="st0" d="M377.5,516.7c-2,2.1-4.2,3.3-6.7,4.1c-3.1,0.9-6.1,1.9-9.1,2.8c-0.5,0.2-1.1,0.2-1.9,0.3
	c0.3-1.3,0.5-2.3,0.8-3.3c1.5-4.4,3-8.8,4.4-13.2c0.4-1.2,1.1-1.8,2.3-2.1c2.2-0.5,4.3-1.1,6.8-1.7
	C375.7,507.9,376.3,512.4,377.5,516.7z"/>
<path class="st0" d="M363.9,453.3c-6,7.2-11.7,14-17.6,21.2c-0.3-3.2-0.5-6-0.7-8.9c-0.1-0.8,0.1-1.8-0.4-2.3c-1-1.3-0.5-2.5,0-3.7
	c1-2.6,1.9-5.2,3-8.2C353.2,453.5,358.4,453.3,363.9,453.3z"/>
<path class="st0" d="M186.3,650.4c3.7,0.7,7.1,1.4,10.7,2.1c-0.6,3.2-1.2,6.5-1.9,10c-4.3,3.5-10.9,3.7-14.9,0.8
	c-0.7-0.5-1.2-0.9-1.2-1.9c0-1.8,0-3.6,0-5.7C183.2,656,184.3,652.6,186.3,650.4z"/>
<path class="st0" d="M326.1,635.9c6.2-0.8,12.4-1,18.4,1c5,1.7,10,3.4,15.3,3.7c0.2,0,0.4,0.2,0.8,0.3c-1.4,1.7-2.6,3.2-4.9,3.6
	c-2.7,0.5-5.3,1.2-7.9,1.8c-1.1,0.2-1.9,0.2-2.7-0.9c-0.5-0.6-1.4-1-2.2-1.4c-4.2-1.8-8.3-3.6-12.5-5.4c-1.5-0.7-2.9-1.5-4.4-2.3
	C326.1,636.2,326.1,636,326.1,635.9z"/>
<path class="st0" d="M340.8,669.9c7.1-1.7,14-3.4,20.8-5.1c1.3,3.2,2.6,6.4,4,9.7c-2.6,0.4-5.3,0.8-8.1,1.1
	c-2.9,0.3-5.9,0.5-8.8,0.9c-1.1,0.1-2-0.1-2.8-0.9C344.1,673.9,342.3,672.2,340.8,669.9z"/>
<path class="st0" d="M172.3,426.7c-5.8-3.6-11.8-3.8-18.2-1.8c-0.7-3.1-0.5-6.3-0.5-9.7c3,2,5.9,1.4,8.9,0.8
	c2.8-0.5,5.7-0.8,8.6-0.1c0.7,0.2,1.4,0.3,2.1,0.6c2.7,1.2,3,2,1.7,4.7C174,423,173.2,424.8,172.3,426.7z"/>
<path class="st0" d="M195.3,384.5c-1,2.2-1.9,4.3-2.9,6.5c-8.9-7.7-19.3-9.2-30.5-7.2c-0.1-2.7,0-3,2.4-3.5
	c3.5-0.7,7.1-1.2,10.6-1.3c5.4-0.2,10.7,0.5,15.7,2.6C192.4,382.2,194.1,383.2,195.3,384.5z"/>
<path class="st0" d="M368.3,659.8c-0.8-0.7-1.3-1.1-2.1-1.7c0.3,1.9,2.4,2.7,1.9,4.6c-0.4,1.5-0.4,3.1-0.6,4.6c-0.4,0-0.4,0-0.5,0
	c-0.1,0-0.2,0-0.2-0.1c-1.9-7.2-6-13.3-9.2-19.6c1.8-2.3,3.5-4.4,5.4-6.8c1.5-0.2,1.5-0.2,2.2,1.4c0.5,1.2,1,2.5,1.7,3.7
	c2,3,2,6.3,1.8,9.6C368.6,656.7,368.5,658.1,368.3,659.8z"/>
<path class="st0" d="M421.2,309.5c-3.8-0.8-7.5-1.7-10.9-2.4c-0.2-2.3-0.4-4.7-0.7-7c-0.3-2.3-0.9-4.5-1.3-6.7
	c3.6-1.3,6.6-0.5,8.8,2.3C420.3,299.7,421.5,304.4,421.2,309.5z"/>
<path class="st0" d="M154.2,426c5.1-1.4,10-0.5,16.9,2.9c-0.5,0.7-0.9,1.5-1.4,2.2c-1.8,2.5-4,4.6-6.6,6.1c-3,1.7-4.9,1.1-6.4-1.9
	C155.3,432.4,154.6,429.3,154.2,426z"/>
<path class="st0" d="M206.8,638.9c-0.5,1.3-0.9,2.6-1.4,3.9c-4.1-1.6-3.7-1.8-2.5-5.2c0.9-2.8,3.1-4.8,5.2-6.7
	c1.7-1.6,3.5-3,5.2-4.5c0.3-0.2,0.6-0.4,1.4-0.8c-0.2,1.4-0.2,2.4-0.4,3.3c-0.5,1.8-1.2,3.6-1.7,5.5c-0.9,3.6-1.8,7.2-2.7,11.1
	c-1.1-0.6-2.3-1.2-3.6-1.9c0.4-1.6,0.7-3,1-4.5C207.1,639.1,207,639,206.8,638.9z"/>
<path class="st0" d="M475.9,474.5c0.5-0.3,1-0.6,1.6-0.8c1.9-0.7,3.9-1.3,5.9-2c0.9-0.3,1.6-0.4,2.6,0.2c1.9,1.1,4.1,1.7,6.1,2.7
	c3.7,1.8,6.6,4.6,9,8.2c-0.7,0.8-1.5,0.5-2.3,0.2c-1.1-0.5-2.1-1.1-3.1-1.8c-4.9-3.1-10.4-4.8-16.1-5.6c-1.2-0.2-2.3-0.4-3.5-0.6
	C476,474.8,475.9,474.6,475.9,474.5z"/>
<path class="st0" d="M359.9,119.1c-9.1-3.1-18.1-3.3-27.3,0.1c1.4-1.9,3-3.5,5.1-4.2c4.8-1.6,9.7-2.7,14.8-1.6
	c2.7,0.6,5.2,1.5,7.1,3.6C360.2,117.6,360.8,118.3,359.9,119.1z"/>
<path class="st0" d="M391.5,117.1c-4.1,10.6-3.9,21-1.3,31.8c-1.4-0.9-2.6-1.5-2.4-3.2c0-0.2-0.2-0.7-0.4-0.7
	c-1.5-0.4-1.5-1.6-1.5-2.7c-0.3-7.4,0.2-14.7,2.5-21.8C389,118.4,389.5,117.9,391.5,117.1z"/>
<path class="st0" d="M344.2,477.5c-0.4,0.1-0.6,0.2-0.8,0.2c-1.3,0-2.7,0-4.3,0c1.2-4.6,2.8-8.8,4.8-13.1
	C343.9,468.9,344.1,473.2,344.2,477.5z"/>
<path class="st0" d="M365.2,666.5c0.3,0.7,0.6,1.3,0.9,2c-0.2,0.1-0.4,0.2-0.6,0.2c-0.3-0.7-0.6-1.4-0.9-2
	C364.8,666.7,365,666.6,365.2,666.5z"/>
<path d="M438.3,214.5c-0.3,0.5-0.5,0.8-0.7,1c-1.6,1.1-2,2.7-2.2,4.5c-0.1,0.9-0.4,1.7-1.5,2.2c0-1.6,0-2.9,0-4.7
	c-1.4,0.7-2.5,1.2-3.8,1.9C431.5,216.8,435.3,214.5,438.3,214.5z"/>
</svg>
