<?xml version="1.0" encoding="utf-8"?>
<!-- Generator: Adobe Illustrator 19.0.0, SVG Export Plug-In . SVG Version: 6.00 Build 0)  -->
<svg version="1.1" id="图层_1" xmlns="http://www.w3.org/2000/svg" xmlns:xlink="http://www.w3.org/1999/xlink" x="0px" y="0px"
	 viewBox="0 0 595.3 841.9" style="enable-background:new 0 0 595.3 841.9;" xml:space="preserve">
<style type="text/css">
	.st0{fill:#FFFFFF;}
</style>
<path class="st0" d="M0.7,842.5c0-280.6,0-561.1,0-841.7c198.4,0,396.7,0,595.1,0c0,280.6,0,561.1,0,841.7
	C397.4,842.5,199.1,842.5,0.7,842.5z M255.5,345.4L255.5,345.4c1.6-3.3,4.2-6.2,3.9-10.3c1.1,1.6,1.5,3.6,3.9,3.6
	c-0.3,1.5-0.1,2.9,1.2,3.6c1.1,0.6,2.5,0.7,3.8,1.1c-0.9,3.7-0.4,4.3,3.9,4.5c0,0.2,0.1,0.5,0.1,0.7c-0.9,5-2,9.9-4.1,14.5
	c-0.7,1.4-1.2,3-1.6,4.5c-1.7,7-2.4,14-0.5,21c-0.3,0.1-0.5,0.2-0.7,0.2c-6.8-0.1-13.5-0.8-20.2-2.4c-7.8-1.8-15.3-4.7-23.4-5
	c-1.1,0-1.8-0.7-1.9-1.8c-0.1-1.4-0.2-2.9-0.2-4.3c0-1.8,0.2-3.7,0.2-5.5c0-0.5-0.3-1.1-0.5-1.9c-0.4,0.6-0.7,0.7-0.7,0.9
	c-0.4,2.8-0.9,5.7-1.1,8.5c-0.2,2.8,0.2,5.5,3.7,6.4c-0.7,1.8-1.4,3.4-2,5c-3.7,9.6-7.3,19.3-11.1,28.9c-4.3,10.8-8.7,21.7-10,33.4
	c-0.7,6-1.5,12.1-2.2,18.1c-0.3,2.7,0.3,3.8,2.9,4.9c1.5,0.7,3.1,1.2,4.7,1.7c7.5,2.4,15.1,4.7,22.7,7c0.4,0.1,0.7,0.3,1,0.5
	c0.1,1.9,0.1,3.8,0.3,5.6c0.6,5.8,1.8,11.5,3.4,17.2c2.6,9.4,4.2,19,3.6,28.9c-0.1,2.3-0.3,4.6-0.5,6.9c-0.7,10.3-1.6,20.6-3.2,30.8
	c-2,12.6-3.1,25.4-3,38.2c0,1.8,0,3.7,0.3,5.5c1.2,5.8,2.4,11.6,3.8,17.3c1.4,5.6,3.3,11,3.6,17.1c-1.4,0.9-1.9,2.5-2.1,4.2
	c-0.2,1.5-0.2,3,0,4.5c0.4,3.3,1,6.5,1.4,9.7c0.6,4.9,1.1,9.9,4.4,13.8c-1.4,1.7-2.7,3.2-3.9,4.8c-0.4,0.5-0.7,1.3-0.8,1.9
	c-0.1,1.2,0.2,2.3,0.2,3.5c0.1,2.5,0.5,4.6,3.5,5.3c-0.3,1.6-0.4,3-0.7,4.4c-0.7,3.7-1.6,7.3-2.2,11c-0.8,5-1.4,10-2.2,14.9
	c-1,6-0.8,12,0.1,17.9c0.4,3.1,1.6,5.9,3.9,8c3.7,3.3,7.9,5.4,12.8,5.9c8.2,0.8,15.5-1.4,22-6.4c4.8-3.7,6.5-8.5,5.1-14.2
	c-0.6-2.4-0.8-4.7-1.1-7c-0.8-7-1.5-14-2.5-21c-0.7-4.7-1.6-9.4-2.5-14.2c-0.1-0.7-0.4-1.5-0.1-2.1c1.3-2.7,1-5.5,0.9-8.2
	c-0.1-2.9-0.4-3.2-3.3-3.3c-0.1,0-0.2-0.2-0.4-0.4c0.1-0.2,0.1-0.7,0.3-0.8c2.5-1.1,2.8-3.3,2.7-5.6c0-0.7,0.1-1.4,0.1-2.2
	c0-0.9,0.1-2-0.3-2.8c-0.3-0.7-1.2-1.1-2.1-1.9c0-4,0.2-8.1-0.1-12.3c-0.2-2.8-0.7-5.7-1.4-8.5c-0.5-2-1.7-3.6-4.3-3.3
	c0-1.9-0.1-3.8,0-5.6c0.3-7.4,0.2-14.9,0.9-22.3c1-10.5,2.5-20.9,3.7-31.4c1.1-9.5,3.1-18.8,5.2-28c1.1-5.2,2-10.4,1.9-15.7
	c-0.3-14.5,0.2-29.1-1-43.6c-0.1-1.6-0.2-3.2-0.4-4.7c0.2-0.2,0.4-0.3,0.5-0.3c0.4-0.1,0.8-0.2,1.2-0.2c2.8-0.1,4.6-1.6,5.6-4.1
	c0.4-1.1,0.9-2.2,1.2-3.4c0.3-1.2,0.9-1.6,2.1-1.5c2,0.2,3.9,0.3,5.8,0.5c2.3,8.6,4.5,17,6.7,25.4c0.9,3.5,1.5,7,1.3,10.7
	c-0.2,3.6-0.4,7.2-0.6,10.8c-0.5,7.3,0.9,14.2,4.7,20.5c1.4,2.3,3,4.5,4.6,6.7c1.9,2.6,3.4,5.4,4,8.6c0.5,2.7,1,5.4,1.2,8.1
	c0.4,9.6,0.8,19.2,1,28.8c0.1,6.6,0.7,13.1,1.7,19.6c0.2,1.3,0,2.2-1,2.9c-2.1,1.7-3.1,4-3.6,6.6c-1.1,5.7-2.1,11.5-3.2,17.3
	c-5,2.1-6.6,5.4-4.4,9.1c-2.8,6-2.7,7.6-0.7,10.1c-2.6,5.7-5.7,11.2-9.2,16.4c-3.9,5.7-8.4,10.9-13,16c-1.6,1.8-2.6,3.8-2.9,6.2
	c-0.6,4.4-0.4,8.7,0.8,13.1c0.5,1.9,1.5,3.1,3.3,3.7c4.6,1.6,9.3,2.4,14.1,2c7.1-0.7,13.6-3,19.4-7c7.3-5.1,14.6-10.4,18.8-18.8
	c0.2-0.4,0.4-0.7,0.7-1c3.2-3.9,6.7-7.3,12-8.1c1.7-0.2,2.8-1.4,3.6-2.9c1.6-3.2,2.4-6.6,1.8-10.2c-0.1-0.9-0.2-1.9-0.4-2.8
	c2.2-0.9,2.2-0.9,2.3-3.4c0-0.4,0.1-0.8,0.1-1.2c0-2.7-1.2-4.7-3.6-6c-0.6-0.3-1.3-0.6-2-0.9c-0.6-2.8-1.2-5.7-1.9-8.4
	c-0.2-0.9-0.5-2.1-1.1-2.5c-1.3-0.9-1.2-2.1-1.2-3.4c0.4-6,0.7-12,1-18c0.2-3.4,0.5-6.9-1.1-10.1c-0.3-0.5-0.1-1.3,0-1.9
	c0.7-4.2,1.3-8.4,2.1-12.5c1.4-7.5,2.8-14.9,2.5-22.6c-0.2-5-0.5-10.1-0.9-15.1c-0.7-9.3-2.1-18.4-4.4-27.4
	c-0.8-3.2-1.7-6.3-2.3-9.6c-1.5-8.9-1.5-17.8-1.2-26.8c0.2-6.8,0.4-13.6,0.6-20.4c0-0.5,0-1,0-1.9c1.9,1,3.4,1.7,5,2.6
	c1.1,0.6,2.2,0.7,3.1-0.3c1.7-2.1,4.3-2.4,6.5-3.3c0.5-0.2,1.5-0.1,1.9,0.3c2.8,2.4,6.2,3.3,9.5,4.4c3.1,1,4.2,0.7,5.8-2.1
	c1.5-2.6,2.9-5.4,3.8-8.2c2.3-6.7,3.9-13.5,3.3-20.7c0-0.5,0.4-1.2,0.7-1.7c0.9-1.2,1.3-2.6,1.2-4.1c-0.4-4.5-0.8-9.1-1.4-13.6
	c-0.9-6.7-4-12.1-9.5-16.1c-0.3-0.2-0.6-0.5-0.9-0.8c0-0.7,0.1-1.3,0.1-1.9c0.3-6.2,0.7-12.5,0.9-18.7c0.2-8.8-1.7-17.1-5.7-25
	c-1.9-3.7-3.4-7.5-5.3-11.5c1.2-0.2,2.4-0.3,3.6-0.5c1.7-0.3,3.5-0.5,5.1-1.1c1.1-0.4,2.3-1.2,3-2.2c1.1-1.5,2-3.3,2.8-5
	c2.2-5.2,3.5-10.6,3-16.3c-0.5-5.4-1.1-10.8-2.9-16c-2.6-7.5-4.5-15.2-6.3-22.9c-2.4-10.1-4.9-20.2-6.3-30.5
	c-0.7-4.8-1.7-9.4-3.5-13.9c-1.4-3.6-3.4-6.7-6.1-9.3c-2.3-2.2-4.6-4.6-7.8-5.5c-1.7-0.5-3.1-1.2-4.5-2.2c-0.8-0.6-1.5-0.8-2.4-0.6
	c-1.5,0.4-3.1,0.8-4.3,1.1c-2.7-2.5-5.3-4.8-7.9-7.1c-1.1-1-2.4-1.9-4.1-1.7c-0.3,0-0.8-0.1-1.1-0.4c-1.2-1-2.4-2-3.6-3
	c0.5-0.9,1-1.6,1.3-2.4c3-6.8,4.8-13.9,5-21.3c0.2-8.5-0.2-16.9-1.2-25.4c-0.1-0.9,0-1.9,0.2-2.8c0.7-2.6,0.7-5.2,0.4-7.9
	c-0.1-0.9,0-1.7,0.1-2.6c0.2-2.1,0.5-4.1,0.8-6.2c0.2-1.5,0-3.3,0.7-4.4c1.3-2.1,1.6-4.3,2.2-6.5c1.5-6.4,0.8-12.3-3.3-17.7
	c-1.4-1.8-2.3-4-3.1-6.2c-1-2.7-2.4-5.1-4.6-6.9c-1.6-1.3-3.3-2.5-5.1-3.5c-2.2-1.3-4-2.9-5.4-5c-1.1-1.6-2.3-3.1-3.6-4.5
	c-2-2.3-4.6-3.4-7.6-3.5c-1.5-0.1-3.1-0.1-4.6,0.1c-4.3,0.6-8.6,0.1-12.9-0.4c-3.3-0.4-6.7-0.6-10-0.6c-3.3,0-5,1.6-5.6,4.8
	c-0.3,1.5-0.5,3.1-0.8,4.6c-3,0.6-3,0.6-5.4-0.7c-1.3-0.7-2.8-1.3-4.2-1.6c-4.9-0.8-9.4,0.6-13.5,3.1c-2.1,1.3-3.3,3.3-3.2,5.8
	c0.1,1.4,0.2,2.7,0.2,4.1c0,1.2,0,2.4-0.3,3.5c-1.1,4.3-2.6,8.6-3.3,13c-0.6,4-2.5,6.8-5.4,9.3c-1.4,1.2-2.7,2.5-3.9,3.9
	c-2.1,2.2-2.9,4.7-2.5,7.7c0.5,4.2,0.8,8.4,1.3,12.6c0.6,5.2,1.3,10.5,1,15.8c-0.1,1.5,0.3,3.2,0.8,4.7c1.5,4.7,5,7.7,8.6,10.7
	c0.3,0.3,1,0.2,1.5,0.3c0.4-1.4-0.4-2-1.1-2.7c-1.4-1.4-3-2.7-4.3-4.2c-2.4-2.8-3.7-5.9-3.5-9.7c0.1-2.5,0.1-5-0.1-7.4
	c-0.6-6.6-1.3-13.2-2.1-19.8c-0.3-2.4,0.1-4.4,1.7-6.2c0.9-1,1.8-2,2.8-3c1.2-1.2,2.5-2.2,3.7-3.4c1.8-1.8,2.9-4,3.3-6.5
	c0.7-4.2,1.6-8.3,2.4-12.5c0.1-0.4,0.3-0.8,0.6-1.5c0.7,1.5,1.2,2.7,1.7,3.9c0.1-0.1,0.3-0.1,0.4-0.2c-0.1-0.9-0.2-1.9-0.3-2.8
	c-0.3-2.7-0.6-5.4-0.9-8.1c-0.3-2.5,0.6-4.3,2.8-5.6c5.1-3.2,10.5-3.7,16-1.1c0.8,0.4,1.6,1,2.4,0.9c1.8-0.1,3.6-0.6,5.1-0.9
	c0.1-1.5,0.1-2.8,0.3-4c0.5-3.3,1.6-4.3,5-4.3c2.8,0,5.6,0.3,8.4,0.7c4,0.5,7.9,1,11.9,0.3c1.6-0.3,3.3-0.3,5-0.4
	c3.1,0,5.8,1.1,7.8,3.6c0.9,1.1,1.8,2.3,2.6,3.4c1.6,2.4,3.7,4.4,6.3,5.8c0.6,0.3,1.3,0.7,1.9,1.1c3.4,2.1,5.8,4.9,7.1,8.7
	c0.7,2.2,2,4.2,3.1,6.2c0.9,1.6,1.8,3.2,2.7,4.8c1.5,2.6,1.1,9.8-0.4,12.3c-0.2-0.6-0.4-1.1-0.6-1.6c-3.2-10.6-8.6-19.8-17.9-26.2
	c-0.4-0.3-0.9-0.6-0.9-1c-1-4.1-4.2-5.7-7.6-6.9c-1.9-0.7-3.9-1-5.8-1.6c-3.9-1.2-7.7-1.1-11.6,0c-13.3,3.7-25.6,9.4-36.4,18.2
	c-4.7,3.8-7.7,8.5-9.5,14.1c-0.8,2.5-1.7,5-2.5,7.5c-0.3,0.9-0.7,1.8-0.9,2.7c-1.2,4.1-2.2,8.2-1.8,12.5c0.4,4.1,1.7,6.7,6,7.5
	c0.1,0,0.1,0.1,0.2,0.2c-0.1,5.4-0.3,10.8-0.4,16.3c-0.1,4.7-0.9,9.2-2.7,13.5c-2.4,5.7-4,11.6-4.7,17.8c-0.1,1.4-0.4,2.9-1.1,4.1
	c-1.7,3.2-3.6,6.4-5.7,9.4c-3.9,5.7-7.3,11.6-8.2,18.7c-0.1,0.5-0.3,1.3-0.7,1.4c-1.5,0.6-1.9,1.9-2.3,3.2c-0.9,2.5-1.6,5-2.3,7.6
	c-3,12.3-5.1,24.7-6.1,37.3c-0.5,6.3-1.6,12.5-2.4,18.8c-0.2,1.2-0.5,2.2-1.8,2.8c-1.4,0.7-2.4,2-2.7,3.5c-0.3,1.5-0.1,3-0.1,4.5
	c0,0.7,0,1.4-0.2,2.1c-0.4,1.6-0.9,3.2-1.4,4.8c-0.8,2.4-0.3,4.6,1.2,6.6c1.9,2.5,4,5,6.1,7.4c1.9,2.2,3.9,4.4,5.9,6.6
	c1.4,1.6,2.8,3.3,4.4,4.7c5.2,4.4,12.5,3.5,16.6-1.8c0.5,0,1.1,0,1.6,0c2.9,0.3,5.7,0.6,8.6,0.8c1.5,0.1,3.1,0.3,4.5,0.1
	c4.9-0.8,9.4-2.6,13.7-5c2.4-1.3,4-3.4,4-6.4c0-2.1,0.1-4.1,0-6.2C256.1,346.4,255.7,345.9,255.5,345.4z"/>
<path d="M255.5,345.4c0.2,0.5,0.6,1,0.6,1.5c0.1,2.1,0,4.1,0,6.2c0,2.9-1.6,5-4,6.4c-4.3,2.3-8.8,4.2-13.7,5c-1.5,0.2-3,0.1-4.5-0.1
	c-2.9-0.2-5.7-0.6-8.6-0.8c-0.6-0.1-1.1,0-1.6,0c-4.1,5.3-11.4,6.2-16.6,1.8c-1.6-1.4-3-3.1-4.4-4.7c-2-2.2-4-4.4-5.9-6.6
	c-2.1-2.4-4.1-4.9-6.1-7.4c-1.5-1.9-1.9-4.2-1.2-6.6c0.5-1.6,1-3.2,1.4-4.8c0.2-0.7,0.2-1.4,0.2-2.1c0-1.5-0.2-3.1,0.1-4.5
	c0.3-1.5,1.3-2.8,2.7-3.5c1.3-0.6,1.7-1.6,1.8-2.8c0.8-6.3,1.9-12.5,2.4-18.8c1-12.6,3.1-25.1,6.1-37.3c0.6-2.6,1.4-5.1,2.3-7.6
	c0.4-1.2,0.9-2.6,2.3-3.2c0.4-0.2,0.6-0.9,0.7-1.4c0.9-7,4.3-13,8.2-18.7c2.1-3,3.9-6.2,5.7-9.4c0.7-1.2,0.9-2.7,1.1-4.1
	c0.6-6.2,2.3-12.1,4.7-17.8c1.8-4.3,2.7-8.8,2.7-13.5c0.1-5.4,0.2-10.8,0.4-16.3c-0.1-0.1-0.1-0.1-0.2-0.2c-4.4-0.7-5.6-3.4-6-7.5
	c-0.4-4.3,0.5-8.4,1.8-12.5c0.3-0.9,0.6-1.8,0.9-2.7c0.8-2.5,1.7-5,2.5-7.5c1.8-5.6,4.8-10.3,9.5-14.1c10.8-8.8,23.1-14.4,36.4-18.2
	c3.9-1.1,7.7-1.2,11.6,0c1.9,0.6,3.9,0.9,5.8,1.6c3.5,1.2,6.7,2.8,7.6,6.9c0.1,0.4,0.6,0.8,0.9,1c9.4,6.4,14.7,15.6,17.9,26.2
	c0.2,0.5,0.3,1,0.6,1.6c1.5-2.5,1.9-9.6,0.4-12.3c-0.9-1.6-1.9-3.2-2.7-4.8c-1.1-2-2.4-4-3.1-6.2c-1.3-3.9-3.7-6.6-7.1-8.7
	c-0.6-0.4-1.2-0.7-1.9-1.1c-2.6-1.4-4.7-3.3-6.3-5.8c-0.8-1.2-1.7-2.3-2.6-3.4c-2-2.5-4.6-3.6-7.8-3.6c-1.7,0-3.4,0.1-5,0.4
	c-4,0.7-8,0.2-11.9-0.3c-2.8-0.3-5.6-0.6-8.4-0.7c-3.3-0.1-4.4,1-5,4.3c-0.2,1.2-0.2,2.5-0.3,4c-1.6,0.3-3.3,0.8-5.1,0.9
	c-0.8,0.1-1.6-0.6-2.4-0.9c-5.5-2.6-10.8-2-16,1.1c-2.1,1.3-3.1,3.1-2.8,5.6c0.3,2.7,0.6,5.4,0.9,8.1c0.1,0.9,0.2,1.9,0.3,2.8
	c-0.1,0.1-0.3,0.1-0.4,0.2c-0.5-1.2-1-2.4-1.7-3.9c-0.3,0.7-0.5,1.1-0.6,1.5c-0.8,4.2-1.7,8.3-2.4,12.5c-0.4,2.6-1.5,4.7-3.3,6.5
	c-1.2,1.2-2.5,2.3-3.7,3.4c-1,1-1.9,2-2.8,3c-1.6,1.8-2,3.8-1.7,6.2c0.8,6.6,1.5,13.2,2.1,19.8c0.2,2.5,0.2,5,0.1,7.4
	c-0.1,3.7,1.2,6.9,3.5,9.7c1.3,1.5,2.8,2.8,4.3,4.2c0.7,0.7,1.5,1.3,1.1,2.7c-0.5-0.1-1.1,0-1.5-0.3c-3.6-3-7.1-6-8.6-10.7
	c-0.5-1.5-0.9-3.1-0.8-4.7c0.3-5.3-0.5-10.5-1-15.8c-0.4-4.2-0.8-8.4-1.3-12.6c-0.3-3,0.5-5.5,2.5-7.7c1.3-1.3,2.5-2.7,3.9-3.9
	c2.9-2.5,4.8-5.3,5.4-9.3c0.7-4.4,2.2-8.7,3.3-13c0.3-1.1,0.3-2.3,0.3-3.5c0-1.4-0.1-2.7-0.2-4.1c-0.1-2.6,1-4.6,3.2-5.8
	c4.1-2.5,8.6-3.9,13.5-3.1c1.5,0.2,2.9,0.9,4.2,1.6c2.5,1.3,2.4,1.4,5.4,0.7c0.3-1.5,0.5-3.1,0.8-4.6c0.7-3.2,2.3-4.8,5.6-4.8
	c3.3,0,6.7,0.3,10,0.6c4.3,0.5,8.6,1,12.9,0.4c1.5-0.2,3-0.2,4.6-0.1c3,0.1,5.6,1.2,7.6,3.5c1.3,1.4,2.4,3,3.6,4.5
	c1.5,2.1,3.2,3.7,5.4,5c1.8,1,3.5,2.2,5.1,3.5c2.2,1.8,3.6,4.2,4.6,6.9c0.8,2.2,1.7,4.4,3.1,6.2c4.1,5.4,4.8,11.3,3.3,17.7
	c-0.5,2.2-0.9,4.5-2.2,6.5c-0.7,1.2-0.5,2.9-0.7,4.4c-0.3,2.1-0.6,4.1-0.8,6.2c-0.1,0.9-0.1,1.7-0.1,2.6c0.3,2.6,0.2,5.3-0.4,7.9
	c-0.2,0.9-0.3,1.9-0.2,2.8c1,8.4,1.4,16.9,1.2,25.4c-0.1,7.5-2,14.5-5,21.3c-0.4,0.8-0.9,1.5-1.3,2.4c1.2,1,2.4,2,3.6,3
	c0.3,0.2,0.7,0.4,1.1,0.4c1.7-0.2,2.9,0.7,4.1,1.7c2.6,2.3,5.2,4.7,7.9,7.1c1.2-0.3,2.8-0.7,4.3-1.1c0.9-0.2,1.7,0,2.4,0.6
	c1.3,1,2.8,1.7,4.5,2.2c3.1,0.9,5.4,3.3,7.8,5.5c2.8,2.6,4.8,5.8,6.1,9.3c1.8,4.5,2.8,9.1,3.5,13.9c1.4,10.3,3.9,20.4,6.3,30.5
	c1.8,7.7,3.7,15.4,6.3,22.9c1.8,5.2,2.4,10.6,2.9,16c0.5,5.7-0.8,11.1-3,16.3c-0.7,1.8-1.6,3.5-2.8,5c-0.7,1-1.9,1.8-3,2.2
	c-1.6,0.6-3.4,0.8-5.1,1.1c-1.2,0.2-2.3,0.3-3.6,0.5c1.8,4,3.4,7.9,5.3,11.5c4.1,7.9,6,16.2,5.7,25c-0.2,6.2-0.6,12.5-0.9,18.7
	c0,0.6-0.1,1.3-0.1,1.9c0.3,0.3,0.6,0.6,0.9,0.8c5.4,4,8.6,9.4,9.5,16.1c0.6,4.5,1,9.1,1.4,13.6c0.1,1.5-0.3,2.8-1.2,4.1
	c-0.3,0.5-0.8,1.1-0.7,1.7c0.6,7.2-1,14-3.3,20.7c-1,2.8-2.3,5.6-3.8,8.2c-1.6,2.8-2.7,3.1-5.8,2.1c-3.3-1.1-6.7-2-9.5-4.4
	c-0.4-0.4-1.4-0.5-1.9-0.3c-2.3,0.9-4.8,1.2-6.5,3.3c-0.8,1-1.9,0.9-3.1,0.3c-1.5-0.8-3.1-1.6-5-2.6c0,0.9,0,1.4,0,1.9
	c-0.2,6.8-0.4,13.6-0.6,20.4c-0.3,9-0.3,17.9,1.2,26.8c0.5,3.2,1.5,6.4,2.3,9.6c2.3,9,3.7,18.2,4.4,27.4c0.4,5,0.7,10,0.9,15.1
	c0.3,7.6-1.1,15.1-2.5,22.6c-0.8,4.2-1.4,8.4-2.1,12.5c-0.1,0.6-0.3,1.4,0,1.9c1.6,3.2,1.3,6.7,1.1,10.1c-0.3,6-0.7,12-1,18
	c-0.1,1.3-0.1,2.4,1.2,3.4c0.7,0.5,0.9,1.6,1.1,2.5c0.7,2.8,1.3,5.6,1.9,8.4c0.7,0.3,1.4,0.5,2,0.9c2.4,1.3,3.6,3.3,3.6,6
	c0,0.4-0.1,0.8-0.1,1.2c-0.1,2.5-0.1,2.5-2.3,3.4c0.1,0.9,0.2,1.8,0.4,2.8c0.6,3.6-0.2,7-1.8,10.2c-0.8,1.5-1.9,2.7-3.6,2.9
	c-5.3,0.7-8.8,4.2-12,8.1c-0.3,0.3-0.5,0.6-0.7,1c-4.2,8.4-11.5,13.7-18.8,18.8c-5.8,4-12.4,6.3-19.4,7c-4.8,0.5-9.5-0.4-14.1-2
	c-1.8-0.6-2.8-1.8-3.3-3.7c-1.2-4.3-1.4-8.7-0.8-13.1c0.3-2.4,1.3-4.4,2.9-6.2c4.6-5.1,9.1-10.3,13-16c3.6-5.2,6.6-10.8,9.2-16.4
	c-1.9-2.5-2.1-4.1,0.7-10.1c-2.3-3.7-0.6-7,4.4-9.1c1.1-5.8,2.2-11.5,3.2-17.3c0.5-2.6,1.4-4.9,3.6-6.6c1-0.8,1.2-1.6,1-2.9
	c-1.1-6.5-1.6-13-1.7-19.6c-0.1-9.6-0.5-19.2-1-28.8c-0.1-2.7-0.7-5.4-1.2-8.1c-0.6-3.2-2.1-6-4-8.6c-1.6-2.2-3.2-4.4-4.6-6.7
	c-3.8-6.3-5.2-13.2-4.7-20.5c0.2-3.6,0.4-7.2,0.6-10.8c0.2-3.6-0.4-7.2-1.3-10.7c-2.2-8.4-4.4-16.8-6.7-25.4
	c-1.8-0.1-3.8-0.3-5.8-0.5c-1.2-0.1-1.8,0.3-2.1,1.5c-0.3,1.2-0.7,2.3-1.2,3.4c-1,2.5-2.8,4-5.6,4.1c-0.4,0-0.8,0.1-1.2,0.2
	c-0.1,0-0.3,0.2-0.5,0.3c0.1,1.5,0.2,3.1,0.4,4.7c1.2,14.5,0.8,29.1,1,43.6c0.1,5.3-0.8,10.5-1.9,15.7c-2,9.3-4.1,18.6-5.2,28
	c-1.2,10.5-2.7,20.9-3.7,31.4c-0.7,7.4-0.6,14.9-0.9,22.3c-0.1,1.8,0,3.7,0,5.6c2.6-0.3,3.8,1.4,4.3,3.3c0.7,2.8,1.2,5.6,1.4,8.5
	c0.2,4.1,0.1,8.3,0.1,12.3c0.9,0.7,1.8,1.2,2.1,1.9c0.4,0.8,0.3,1.9,0.3,2.8c0,0.7-0.1,1.4-0.1,2.2c0.1,2.3-0.2,4.5-2.7,5.6
	c-0.2,0.1-0.2,0.5-0.3,0.8c0.2,0.2,0.3,0.4,0.4,0.4c2.9,0.1,3.3,0.4,3.3,3.3c0.1,2.8,0.4,5.6-0.9,8.2c-0.3,0.5,0,1.4,0.1,2.1
	c0.8,4.7,1.8,9.4,2.5,14.2c1,7,1.7,14,2.5,21c0.3,2.4,0.5,4.7,1.1,7c1.4,5.7-0.4,10.5-5.1,14.2c-6.5,5-13.8,7.2-22,6.4
	c-5-0.5-9.2-2.6-12.8-5.9c-2.4-2.2-3.5-5-3.9-8c-0.8-6-1.1-11.9-0.1-17.9c0.8-5,1.4-10,2.2-14.9c0.6-3.7,1.5-7.4,2.2-11
	c0.3-1.4,0.5-2.8,0.7-4.4c-2.9-0.6-3.4-2.8-3.5-5.3c0-1.2-0.3-2.3-0.2-3.5c0-0.7,0.3-1.4,0.8-1.9c1.2-1.6,2.5-3.1,3.9-4.8
	c-3.3-4-3.9-8.9-4.4-13.8c-0.4-3.3-1-6.5-1.4-9.7c-0.2-1.5-0.1-3,0-4.5c0.2-1.7,0.7-3.3,2.1-4.2c-0.3-6-2.1-11.5-3.6-17.1
	c-1.5-5.7-2.7-11.5-3.8-17.3c-0.4-1.8-0.3-3.7-0.3-5.5c-0.1-12.8,1-25.5,3-38.2c1.6-10.2,2.5-20.5,3.2-30.8c0.2-2.3,0.3-4.6,0.5-6.9
	c0.6-9.9-0.9-19.4-3.6-28.9c-1.6-5.6-2.7-11.3-3.4-17.2c-0.2-1.8-0.2-3.7-0.3-5.6c-0.3-0.1-0.7-0.4-1-0.5c-7.6-2.3-15.1-4.7-22.7-7
	c-1.6-0.5-3.2-1-4.7-1.7c-2.5-1.1-3.2-2.2-2.9-4.9c0.7-6,1.5-12.1,2.2-18.1c1.3-11.8,5.7-22.6,10-33.4c3.8-9.6,7.4-19.2,11.1-28.9
	c0.6-1.6,1.3-3.2,2-5c-3.4-0.9-3.8-3.6-3.7-6.4c0.2-2.9,0.7-5.7,1.1-8.5c0-0.2,0.3-0.4,0.7-0.9c0.2,0.8,0.5,1.3,0.5,1.9
	c0,1.8-0.2,3.7-0.2,5.5c0,1.4,0.1,2.9,0.2,4.3c0.1,1.1,0.7,1.7,1.9,1.8c8.1,0.4,15.6,3.2,23.4,5c6.7,1.6,13.4,2.3,20.2,2.4
	c0.2,0,0.5-0.1,0.7-0.2c-2-7.1-1.2-14.1,0.5-21c0.4-1.5,0.9-3.1,1.6-4.5c2.1-4.6,3.2-9.5,4.1-14.5c0-0.2,0-0.5-0.1-0.7
	c-4.3-0.1-4.8-0.7-3.9-4.5c-1.3-0.3-2.6-0.5-3.8-1.1c-1.3-0.6-1.5-2-1.2-3.6c-2.4,0-2.8-2-3.9-3.6
	C259.7,339.2,257.1,342.1,255.5,345.4c-0.5,0.2-1,0.3-1.5,0.5c-2.7,1-5.5,1.8-8.4,2.1c0.6-0.5,1.3-0.9,2-1.2
	c1.3-0.5,2.6-0.8,3.9-1.3c1.5-0.5,3.1-1.2,3.9-2.7c1.1-2.1,2-4.3,2.8-6.6c0.4-1,0.3-2-0.5-3.1c-2.8,3.2-6.2,5-10.4,5.1
	c0.6-0.4,1.2-0.7,1.8-1c2.7-1.2,5.4-2.5,7.3-4.9c0.9-1.1,1.5-2.4,2.1-3.7c0.2-0.5,0-1.6-0.4-1.9c-0.4-0.3-1.4-0.1-2,0.2
	c-1.2,0.8-2.3,1.7-3.4,2.6c-2.5,2.2-5.3,3.2-8.6,3.2c-1.4,0-2.9,0-4.3,0c-2.1-0.1-3.9,0.6-5.6,1.9c-0.8,0.6-1.5,1.1-2.3,1.7
	c-3.6,2.7-7.5,4.4-12.1,4.6c-0.8,0-1.6,0.2-2.3,0.6c-4.4,2.5-7.5,5.9-8.3,11.1c-0.6,3.5,0.3,5.6,3.6,6.9c3.3,1.4,6.5,2.6,10.3,2.3
	c3.9-0.3,7.8,0.3,11.7,0.6c1,0.1,1.9,0.2,2.9,0.1c4.6-0.7,9-2.1,13.2-4.2c3.1-1.6,4-4.3,4.2-7.7c-1.9,0.9-3.4,2.2-5.8,2.6
	c1.4-1.2,2.4-2.1,3.5-2.8C254.5,349.1,255.4,347.5,255.5,345.4z M319.4,713.9c-0.4,0.1-0.7,0.2-1.1,0.4c-3.6,1.7-7.1,3.8-10.8,5.1
	c-9.8,3.5-19.6,4-29.3-0.6c-0.1,0-0.3,0.1-0.5,0.1c0.2,0.6,0.4,1.2,0.6,1.7c0.8,3,2.9,4.3,5.7,4.6c3.2,0.3,6.4,0.9,9.5,0.7
	c9.9-0.6,18.3-5,25.7-11.5C319.2,714.4,319.2,714.1,319.4,713.9c0.2-0.1,0.6-0.2,0.8-0.3c3.7-3,7.3-6,9.3-10.4
	c0.3-0.7,0.8-1.4,1.2-2c3.5-4.8,7.6-8.8,13.8-10c0.7-0.1,1.5-0.6,2-1.2c1.9-2.3,2.4-7.2,1.1-10.5c-1.9,4.4-5.3,7.2-8.7,9.9
	c-1.7,1.4-3.3,2.8-5,4.1c-2.5,2.1-4.5,4.5-5.9,7.4c-0.7,1.5-1.4,3-2.2,4.5c-1.5,3-3.3,5.6-6,7.7
	C319.6,713.3,319.5,713.7,319.4,713.9z M332.2,479.2c0-2.2,0-4.3,0-6.3c0.1-4.2,0.4-8.3,0.3-12.5c-0.1-8-0.5-16-0.5-24
	c0-4.1,0.5-8.3,0.9-12.4c0.3-2.8,1-3.3,3.7-3.7c0.3,0,0.6-0.2,0.8-0.3c-0.3-1.4-0.7-2.6-0.9-3.8c-0.8-5.2-1.6-10.4-2.3-15.6
	c-0.6-4-1.5-8-2.8-11.8c-1.3-0.2-2.4-0.6-3.5-0.6c-8.6,0.1-17.3,0.5-25.8,1.6c-5.9,0.8-11.9,1.5-17.9,0.7c-3.6-0.5-7.1-1.2-10.6-1.8
	c-1.8-0.3-3.5-1-5.4-0.5c0,0.9,0,1.7,0,2.6c-0.6,0.1-1.1,0.3-1.7,0.3c-4.6-0.2-9.3,0-13.9-0.9c-8-1.5-15.9-3.6-23.8-5.6
	c-2.1-0.5-4.2-1-6.4-0.8c-0.1,0.3-0.3,0.6-0.4,0.9c-4.3,14.8-9.8,29.2-15.5,43.6c-2.3,5.7-4.1,11.4-5,17.5
	c-1.1,7.2-1.9,14.4-2.9,21.6c-0.5,3.3-1.2,3.5,3.2,5.1c1,0.4,2.1,0.7,3.2,1c5.5,1.7,11,3.5,16.5,5.1c5.3,1.6,10.6,3,16,4.5
	c0.1-0.6,0.2-1.2,0.3-1.9c0.4-4.3,0.8-8.6,1.2-12.9c0.6-6.6,1.3-13.2,1.6-19.8c0.4-10.4,0.3-20.8,0.6-31.2
	c0.1-5.6,0.5-11.2,0.8-16.8c0-0.5,0.3-0.9,0.4-1.4c0.4,1.4,0.4,2.8,0.4,4.1c0.1,12.9,0.2,25.7,0.4,38.6c0.1,11.7-1.4,23.3-2.4,34.9
	c-0.3,3.7-0.6,7.3-0.8,11c-0.1,1.8,0.3,2.3,2,2.8c1.1,0.3,2.2,0.5,3.3,0.6c6.5,0.4,12.9,0.9,19.4,1.2c3.2,0.1,6.4-0.2,9.6-0.3
	c2.2-0.1,3.6-1.1,4.3-3.2c0.3-1.1,0.8-2.1,1-3.2c0.7-3.5,1.4-7.1,1.8-10.6c1.6-14.5,1.5-29,1.9-43.6c0.1-3.9,0-7.8,0-11.7
	c0.2,0,0.3,0,0.5,0c2.7,21.6,2.1,43.1-0.9,64.5c4.1,0,7.9,0,11.7,0c-0.3-5.4-0.6-10.6-0.8-15.8c-0.2-5.2-1.1-10.3-0.5-15.5
	c0.3,0.5,0.4,1.1,0.5,1.6c1.3,8.2,2.2,16.5,2.6,24.8c0.1,1.4,0.3,2.9,0.5,4.3c0.2,1.2,0.9,2,2.2,2.2c5.2,0.7,10.3,1,15.3-1.1
	c2.1-0.9,4.1-1.8,6.2-2.5C324.3,481.1,328,479.6,332.2,479.2z M224,229.1c-0.6,0.5-0.8,0.6-0.9,0.8c-2,3.4-3.9,6.8-6,10.1
	c-5,7.9-6.7,16.5-5,25.7c1.4,7.7,3.1,15.4,4.8,23c1,4.3,1.4,8.5,1,12.9c-0.2,1.9-0.6,3.8-0.9,5.7c-0.2,0-0.5,0-0.7-0.1
	c0-2.5,0-4.9,0-7.4c-0.2,0-0.3,0-0.5,0c-0.2,0.4-0.3,0.8-0.5,1.3c-1,3.8-3.2,6.7-6.5,8.9c-1.3,0.9-2.6,1.6-3.8,2.4
	c-0.7,0.5-1.4,1.2-2.3,2c1.7,1.2,3.1,2.1,4.4,3.1c2.4,1.9,5.1,2.7,8,2.8c1.8,0.1,3.5,0,5.3,0.1c3,0.1,5.7-0.9,7.9-2.9
	c2.3-2.1,4.6-4.2,6.5-6.7c4.7-6.3,7.9-13.4,10.2-20.8c2-6.5,3.9-13,5.5-19.6c2.2-9.4,5.4-18.4,8.3-27.5c2.1-6.6,3.2-13.4,2.7-20.3
	c-0.4-5.2-0.7-10.4-1.2-15.5c-0.1-0.7-0.6-1.5-1.1-2c-4.2-4.1-6.9-8.9-8.4-14.6c-0.2-0.6-0.5-1.2-0.7-1.7c-0.2,0-0.4,0.1-0.6,0.1
	c0.3,18-2,35.7-4.6,53.4c0.1-4.2,0.2-8.5,0.5-12.7c0.5-8.1,1.3-16.3,1.6-24.4c0.4-9.1,0.4-18.2,0.6-27.3c0.1-5.4,0.8-10.8,2.3-16.1
	c0.8-2.8,1.9-5.5,3.8-7.8c-0.6,2.4-1.4,4.7-2,7.1c-1.9,7.6-2.1,15.3-2.1,23.1c0,0.9,0.2,1.8,0.5,2.6c1.2,2.9,2.5,5.9,3.9,8.7
	c2.2,4.5,5.5,8.2,9.6,11.1c4.6,3.3,9.7,5.6,15.2,6.8c2.5,0.5,4.9,1.1,7.4,1.7c-9.2,1.1-16.7-3-24.6-7.5c0.1,1.5,0.2,2.5,0.3,3.5
	c0.6,5.6,1.1,11.3,1.7,16.9c0,0.5,0.1,1,0.4,1.3c1.2,1.1,1.4,2.6,1.6,4.1c0.2,1.9,0.3,2.1,2.3,2.3c3.4,0.3,6.8,0.6,10.3,0.7
	c4.2,0.1,8.4,0,12.6,0c0.2-0.5,0.4-0.9,0.5-1.2c1.3-3,2.4-3.4,5.4-2.6c1.7,0.5,3.5,0.7,5.2,1c2-2.6,3.8-4.9,5.7-7.3
	c-0.3-0.2-0.6-0.5-0.8-0.6c-2.4-0.9-3.8-2.8-4.9-5c-1.2-2.5-1.8-5.1-1.7-7.9c0-0.6,0-1.2,0-2c-1.4,0.7-2.5,1.3-3.5,1.9
	c-0.1-0.5,0-0.7,0.1-0.9c5.2-4.5,8.6-10.3,11.6-16.3c2.5-5,3.5-10.2,3.2-15.8c-0.4-6.5-0.7-13.1-1.1-19.6c0-0.8-0.3-1.8-0.7-2.5
	c-3.1-4.9-6.3-9.6-10.1-14c-2-2.3-3.9-4.9-5.7-7.4c-1.3-1.8-2.3-3.8-3.6-6c-9.9,12.1-23.6,17.4-37.6,22.2c0.2-0.4,0.5-0.7,0.8-0.8
	c4.9-2.5,9.8-5,14.8-7.5c4.7-2.3,9.5-4.7,13.5-8.2c3.3-2.9,6.5-6.1,9.6-9.3c0.9-0.9,2-1.8,2.1-3.4c-2.3,0.1-4.5,0.2-6.6,0.3
	c-4.9,0.3-9.9,0.5-14.8,0.9c-2.9,0.2-5.8,0.5-7.8,3c-0.2,0.3-0.6,0.5-1,0.7c-5.2,3.6-10.4,7.1-15.5,10.8c-2.1,1.5-4.1,3.4-5.8,5.3
	c-3.5,3.9-5.2,8.7-6.1,13.6c-1,5.2-1.8,10.5-2.2,15.8c-0.3,3.8,0.4,7.6,0.5,11.5c0.3,7-0.3,13.9-3.2,20.4
	c-3.2,7.2-4.4,14.8-4.7,22.6c-0.3,9.1-0.4,18.2-0.7,27.3c-0.1,2.8-0.3,5.6-0.4,8.4C224.3,252.6,223.6,241.1,224,229.1z M291.6,486
	c1.1,3.5,2.1,6.5,3,9.6c1.7,5.8,3.4,11.7,4.9,17.5c1.4,5.7,1,11.6,0.4,17.4c-1,9.4,1,17.9,6.8,25.5c0.8,1.1,1.6,2.2,2.4,3.3
	c2.1,2.9,3.6,6.1,4.1,9.6c0.6,4.3,1.2,8.7,1.4,13.1c0.3,6.9,0.4,13.9,0.5,20.9c0,1.5,0.5,2.3,1.9,2.9c3.7,1.5,7.6,2.5,11.5,3.1
	c2.8,0.5,5.6,0.2,8.3-0.7c1.8-0.6,3.6-1.4,5.3-2.1c0.8-0.3,1.3-0.8,1.4-1.7c0.4-3.2,1.1-6.5,1.4-9.7c0.5-6.6,0-13.3-0.5-19.9
	c-0.8-10.9-2.2-21.6-5.2-32.1c-1.4-4.9-2.1-10-2.6-15.1c-1-10.7,0.1-21.4,0.8-32.1c0.2-3.4,0.5-6.8,0.7-9.8c-2.1-1.6-3.8-3-5.5-4.3
	c-0.7,0.2-1.5,0.5-2.3,0.8c-4.2,1.5-8.6,2.6-12.7,4.4c-5.9,2.6-11.9,2.9-18.1,2c-0.9-0.1-1.9-0.4-2.7-1
	C295.4,486.5,293.6,486.6,291.6,486z M228.5,483.5c0.1,1.4,0.1,2.5,0.4,3.6c1.4,6.5,2.8,13,4.4,19.4c1.9,7.7,3.7,15.4,3.6,23.4
	c-0.1,4.5-0.2,9-0.6,13.4c-0.8,9-1.7,18-2.7,27c-1,9.1-2.2,18.2-3.3,27.4c-0.2,1.3,0,2.7,0,4.1c3.7,1.7,7.4,2.2,11.3,1.7
	c3.2-0.4,6.5-0.8,9.7-1.4c4.5-0.8,8.9-1.9,13.2-3.4c0.1-0.5,0.2-0.9,0.2-1.3c0.7-11.7,2.8-23.2,5.2-34.6c1.7-8.2,2.9-16.3,2.8-24.7
	c-0.2-13.9-0.2-27.8-0.3-41.7c0-0.4-0.2-0.9-0.3-1.4c-0.7,0-1.2,0-1.8,0c-8.9,0.3-17.7-0.1-26.6-1.3c-1.2-0.2-2.4-0.5-3.5-0.9
	c-2-0.7-3-2.2-3-4.4c0-1.1,0-2.2,0-3.3C234.4,484.5,231.6,484,228.5,483.5z M327.9,361.6c0.6,0.1,0.9,0.2,1.2,0.2
	c3.1,0.2,6.2,0.2,9.3,0.6c6.6,0.7,13.1,0.6,19.6-0.1c2.4-0.2,4.8-0.5,7.1-0.9c2.2-0.3,3.9-1.8,4.8-3.7c1.7-3.9,3.3-8,3.7-12.4
	c0.5-7.4-0.7-14.5-3-21.5c-4.9-15-7.9-30.4-11.4-45.8c-1-4.4-1.6-8.8-2.4-13.2c-1.8-8.9-6.1-16.1-13.8-21c-1.8-1.2-4.1-0.9-5.3,0.9
	c-0.7,1-1.3,2.1-1.5,3.2c-0.6,3.2-1.5,6.5-1.4,9.7c0.2,9.1,0.7,18.2,1.1,27.3c0.4,7,0.5,14.1-0.1,21.1c-0.4,4.1-0.5,8.1-0.7,12.2
	c0,0.7-0.2,1.6,0.9,2.2c4.8-7.8,9.6-15.5,15.9-22.2c0.1,0.1,0.3,0.2,0.4,0.3c-5.2,8.2-10.4,16.4-15.6,24.7c0.5,0.7,1.2,1.5,1.7,2.4
	c1,1.7,2.3,2.1,4.2,1.7c5.1-1,10.2-1.1,15.3-0.2c1.8,0.3,3.6,0.8,5.3,1.5c3,1.3,4.3,4,4.9,7.1c-0.6-0.4-1-0.9-1.5-1.4
	c-1.7-1.8-3.3-3.7-5.9-4.4c-6.1-1.7-12.3-2-18.4,0c-1.4,0.5-2.9,0.8-4.4,1.1c-4.8,0.8-9.6,0.4-14.4,0.2c-0.6,0-1.2,0.1-2.2,0.1
	c1.1,1.6,1.9,2.9,2.8,4c1.8,2.2,3.1,4.6,3.9,7.4c0.6,2,0.4,4-0.6,5.8c-1,1.9-2.1,3.8-3.1,5.7c-1,1.9-2.4,3.5-4.3,4.7
	c-0.5,0.3-0.9,0.8-1.4,1.2c1.6,1.8,2.7,2.3,4.5,1.4c1.8-0.9,3.6-2.1,5.2-3.4c1.9-1.6,3.7-3.4,5.5-5.1
	C332.6,356.4,330.6,359.1,327.9,361.6z M324.2,328.5c0-1.2,0-2.3,0-3.3c0-5.8,0-11.7-0.1-17.5c-0.1-6.1-0.1-12.3-0.6-18.4
	c-0.6-8.3-1-16.6-0.4-24.9c0.5-6.6,1.2-13.2,4.5-19.2c0.8-1.4,1.7-2.8,2.6-4.2c-0.7-0.4-1.4-0.6-1.9-1.1c-1.1-1-2.2-1-3.5-0.6
	c-2.4,0.7-4.8,1.3-7.2,1.8c-3.6,0.8-7.2,1.6-10.8,2.2c-2.3,0.3-4.6,0.1-7,0.1c-0.2,2.1-0.2,4.1-0.5,6c-1.3,8.2-3.3,16.3-6.3,24.1
	c-4.6,12.1-7.4,24.8-10.6,37.3c-0.4,1.7-0.5,3.4-0.8,5.3c0.8,0,1.2,0.1,1.7,0.1c2.7-0.3,5,0.7,7.1,2.4c1.9,1.5,3.8,2.9,5.7,4.4
	c2.7,2.1,5.7,3.6,8.9,4.6c2,0.7,4,1.8,6.4,0.8c0.8-0.3,1.9,0,2.8,0.1c1.2,0.2,2.3,0.6,3.5,0.8c0.5,0.1,1.1,0.4,1.3,0.2
	C320.6,328.1,322.4,328.8,324.2,328.5z M326,363.4c-1.3,0.2-2.2,0.3-3,0.4c-2.2,0.5-4-0.2-5.4-1.7c-1.3-1.3-1.2-2.4-0.1-3.8
	c0.3-0.3,0.6-0.7,1.1-1.2c-2.9-1.1-5.6-2.1-8.2-3.2c-0.8-0.3-1.7-0.6-2.3-1.2c-0.6-0.5-0.7-1.5-1.2-2.3c-2,0.1-4,0.1-6,0.3
	c-5.2,0.5-10.2-0.1-14.8-2.9c-0.4-0.3-0.8-0.4-1.3-0.7c-3.7-1.8-7.4-1.4-11-0.4c-0.1,0.4-0.2,0.5-0.2,0.6c0,4.3-0.8,8.6-2.1,12.7
	c-0.3,0.8-0.1,1.7,0,2.5c0.8,3.4,1.4,6.9,1.1,10.4c-0.3,3.7-0.8,7.5-2.1,11c-0.2,0.5-0.2,1-0.3,1.6c2.4,0.3,4.6,0.6,6.8,1
	c6.2,1,12.5,1.6,18.8,0.8c5.8-0.7,11.6-1.3,17.4-1.7c5.6-0.4,11.3-1.1,16.9,0.1c0.1,0,0.3-0.1,0.6-0.3
	C329,378.6,325.5,371.7,326,363.4z M345.7,677c-1-0.2-1.8-0.3-2.7-0.5c-4.8-0.9-9.7-1.4-14.2-3.4c-2.8-1.3-5.6-1.9-8.7-1.9
	c-5.7,0.1-11.5,0-17.2,0c-0.3,0.7-0.5,1.1-0.6,1.6c-1.8,5.3-4.4,10.3-7.4,15c-4,6.3-8.8,12-13.8,17.4c-1.5,1.6-2.3,3.4-2.5,5.6
	c-0.1,1.1-0.1,2.2-0.2,3.3c-0.2,1.4,0.4,2.2,1.7,2.8c4,1.8,8.2,2.6,12.6,2.6c6.6-0.1,12.7-1.7,18.8-4.4c6.2-2.7,10.7-6.8,13.2-13.1
	c1.9-4.9,5.2-8.8,9.3-12c2.5-2,4.9-4.1,7.3-6.2C343.2,682,344.8,679.8,345.7,677z M268.3,697.3c-8.1-0.5-16-0.7-23.6-3.7
	c-1.8,1.3-3.7,2.7-5.7,4.1c0.8,4.4-0.1,8.7-0.8,12.9c-0.3,1.9-0.6,3.8-0.9,5.7c-0.6,4.4-1.1,8.9-1.9,13.3c-0.9,4.5-0.5,8.9,1.1,13.2
	c0.9,2.3,2.3,4,4.6,4.9c1.2,0.5,2.4,0.9,3.6,1.2c8.8,1.9,16.9-0.4,24.8-4.1c2.3-1.1,3.3-3.1,3.7-5.6c0.5-3.2,0.2-6.4-0.2-9.6
	c-0.6-4.9-1.3-9.8-1.7-14.8C270.8,709.1,269.7,703.2,268.3,697.3z M261.3,241.2c-2.3,7.6-4.7,15-6.8,22.6
	c-1.9,6.8-3.4,13.8-5.3,20.6c-2.3,8.2-5.2,16.3-9.6,23.7c-2.7,4.5-5.8,8.6-10.1,11.7c-2,1.5-4.2,2.5-6.8,2.7c-0.7,0-1.4,0.2-2,0.4
	c0.2,5.5,0.5,10.8,0.7,16.4c0.8-0.2,1.7-0.4,2.5-0.7c2-1,4.1-1.9,5.8-3.3c4-3.3,8.3-4.8,13.5-4.3c3.3,0.3,6.3-0.9,8.9-3
	c0.9-0.7,1.8-1.4,2.8-1.9c2.6-1.4,3.4-1.2,5.2,0.9c1.3-1.7,2.5-3.5,4.1-5c1.6-1.5,3.5-2.6,5.4-4c-0.3-0.5-0.7-1.2-0.9-1.8
	c-0.6-1.8-1.4-3.7-1.5-5.5c-0.1-3.9-0.9-7.6-2.2-11.2c-2.7-8-3.9-16.3-4.2-24.7c-0.3-10.1,0.6-20.1,2.1-30.1c0.2-1,0.2-2,0.3-3.2
	C262.6,241.3,262.1,241.2,261.3,241.2z M230,603.7c-0.3,4.8-0.6,9.4,0.3,13.9c1.2,6.2,2.7,12.3,4.2,18.4c1,4.3,2.5,8.5,2.3,12.9
	c-0.1,2.4,0.8,3.9,2.4,5.4c0.8,0.7,1.5,1.4,2.4,2c3,1.8,6.1,2.9,9.5,1.3c3-1.4,5.6-3.3,7.9-5.7c1.2-1.3,1.8-2.7,1.9-4.5
	c0.1-6.3,0.1-12.6,0.4-18.9c0.3-5.6,0.8-11.1,1.3-16.7c0.3-3.3,0.9-6.6,1.4-10.1c-0.7,0.1-1.2,0.2-1.6,0.3c-5,1.6-10,2.6-15.2,3.3
	C241.6,606.1,235.9,606.4,230,603.7z M271.6,316.4c0.6-5.7,1.4-11.3,3.2-16.7c3.1-9.4,5.2-19.1,7.4-28.7c2.4-10.3,5.1-20.6,7.6-30.9
	c0.2-0.6,0.2-1.3,0.4-2.1c-8.3,1.9-16.2,1.2-24.3-0.8c-0.2,2.2-0.4,4.1-0.6,5.9c-1.7,11.2-2.7,22.5-2.2,33.9
	c0.3,6.6,1.4,13,3.2,19.3c1.2,4.1,1.9,8.2,2.7,12.4C269.6,311.4,269.8,314.1,271.6,316.4z M209.3,257.9c-0.2,0-0.4-0.1-0.6-0.1
	c-0.4,1.2-0.8,2.4-1.1,3.6c-0.6,2.7-1.2,5.5-1.8,8.2c-2.2,9.5-4,19.1-4.9,28.8c-0.8,8.6-1.4,17.2-4.5,25.4c-0.3,0.9-0.6,1.5-1.4,2.1
	c-2.2,1.5-2.7,3.5-2,5.7c2.7-1,5.3-2.2,8-2.9c2.9-0.7,5.9,0,8.7,1.1c2.6,1,5,2.5,6.9,4.6c-2.3-0.8-4.4-1.8-6.6-2.8
	c-3.4-1.5-6.8-2.6-10.4-1.3c-1.9,0.7-3.6,2-5.4,3c-1.2,0.7-1.9,1.7-2.1,3c-0.1,0.9-0.4,1.7-0.6,2.6c-0.6,2.6-0.4,5.1,1.5,7.2
	c1.7,1.9,3.2,4,4.9,5.9c1.3,1.4,2.7,2.8,4,4.1c0.4,0.4,0.8,0.7,1.3,1.1c0.7-3,1.4-5.8,2.1-8.6c1-3.7,3.2-6.4,6.3-8.5
	c2-1.3,4.2-1.8,6.6-1.5c0.5,0.1,1,0.1,1.7,0.2c-1.3-5.5-0.3-10.8-0.1-16.1c-0.9-0.2-1.7-0.4-2.5-0.4c-5.1-0.5-9.7-2.7-14.1-5
	c-2.9-1.5-3-3.8-0.4-5.8c1.1-0.9,2.4-1.5,3.6-2.3c2.4-1.5,4.6-3.2,6-5.7c2.5-4.5,3.5-9.1,2.1-14.3c-2.3-8.4-4-16.9-4.8-25.7
	C209.6,261.7,209.5,259.8,209.3,257.9z M310.2,330.6c-1.1-0.2-2.2-0.2-3.2-0.4c-4.4-1.2-8.4-3-12-5.7c-2.1-1.6-4.2-3.2-6.3-4.8
	c-1.6-1.2-3.4-1.8-5.4-1.6c-1.6,0.2-3.2,0.3-4.8,0.4c-8.7,0.9-12.9,3.2-18.1,9.8c-1.3,1.7-1.3,3,0.2,4.1c1.1-1.8,2.2-3.7,3.4-5.5
	c1.1-1.7,2.6-2.8,4.6-3.2c2.2-0.4,4.4-0.9,6.6-1.3c1.6-0.2,3.2-0.2,4.8-0.2c-0.6,0.6-1.2,0.8-1.8,0.9c-2.9,0.7-5.8,1.4-8.6,2
	c-1.8,0.4-3.2,1.3-4.2,2.9c-0.9,1.4-1.8,2.8-2.6,4.3c-0.6,1.2-1.3,2.4-1.1,4.4c3.2-2.5,6.4-4,10.1-4.8c7.6-1.6,8.9-1.7,10.7-0.7
	c-0.5,1-1.4,1.1-2.4,1.3c-3.2,0.6-6.4,1.2-9.7,1.8c-2.2,0.5-4.2,1.6-5.9,3.1c-1.2,1-1.2,2.1-0.1,3c0.7,0.5,1.7,0.8,2.6,0.9
	c0.8,0.1,1.6-0.3,2.3-0.5c3.9-1.2,7.9-2,12-2.3c1.1-0.1,2.2-0.2,2.9,1c-0.8,1-1.9,0.9-2.9,1c-3.1,0.5-6.1,1-9.2,1.5
	c-0.5,0.1-0.9,0.2-1.4,0.4c-1,0.5-1.8,2.2-1.4,3c0.6,1.3,1.6,0.4,2.5,0.4c0.1,0,0.2,0,0.2-0.1c5.7-1.9,11.1-1.8,16.4,1.4
	c2.9,1.8,6.3,2.3,9.7,2.1c2.8-0.2,5.6-0.5,8.4-0.6c1.3-0.1,1.9-0.6,2.4-1.8C311,341.5,310.5,336.1,310.2,330.6z M350.6,418
	c0.5,2,0.7,3.8,1.3,5.5c1.8,4.5,2.2,9.2,1.8,13.9c-0.2,2.3-0.5,4.6-1,6.9c-0.5,2.4-2.1,3.1-4.3,2.3c-1-0.3-1.9-0.9-2.8-1.3
	c-3.1-1.5-4.4-4-4.3-7.4c0.1-2.2,0-4.5,0-6.7c0-0.5,0-1.1-0.3-1.3c-1.9-1.7-2.1-4-2.4-6.3c-0.1-0.9-0.2-1.7-1.2-1.7
	c-1-0.1-1.9,0.4-2.2,1.5c-0.2,0.8-0.4,1.6-0.4,2.4c-0.1,4.9-0.4,9.9-0.3,14.8c0.1,7.7,0.4,15.3,0.4,23c0,4-0.5,8-0.7,12
	c0,1.5,0.2,3,0.6,4.5c0.5,1.8,1.6,2.3,3.7,2.4c-2.9-2.4-2.9-2.5-2.8-6.3c0-0.8,0.1-1.6,0.1-2.4c0.4-6.6,0.7-13.2,1.1-19.9
	c0.1-1,0.2-2,0.4-3.4c1.1,8.7,0.7,16.9-0.1,25.1c-0.2,2.6,0.5,4.2,2.8,5.1c2.2,0.9,4.6,1.5,6.7,2.4c2.6,1.1,4.6,0.1,6.4-1
	c0-2.3-0.3-4.4,0-6.4c1-6.4,2.1-12.8,3.4-19.1c2.5-11.7,1.5-23.2-0.8-34.7C355.4,419.6,353.2,418,350.6,418z M357.2,416.4
	c0.2-11.4,1.4-22.6,0.4-33.9c-0.5-5.8-1.1-11.6-2.3-17.2c-4.4,0-8.5,0-12.9,0c0,0.7,0,1.3,0,1.8c-0.2,6.5-0.3,13.1-0.7,19.6
	c-0.1,1.7,0.1,3.3,0.6,4.9c0.9,2.7,1.7,5.5,2.5,8.3c1.4,5.4,3.2,10.7,5.5,15.9C352.6,416.1,354.8,416.2,357.2,416.4z M333.7,328.9
	c0-0.7,0.1-1.3,0-1.9c-0.8-6.8-0.5-13.6,0-20.3c0.5-6.2,0.7-12.4,0.2-18.7c-0.5-6-0.8-12-1-17.9c-0.2-5.4-0.4-10.9,0-16.3
	c0.3-4.7,1.1-9.4,5.6-12.8c-0.8-0.4-1.5-1.1-1.9-0.9c-2.2,0.7-4.4,1.6-5.7,3.7c-1.9,3.3-3.7,6.7-4.4,10.6
	c-1.7,9.9-1.9,19.9-1.2,29.9c0.5,7.3,1.3,14.5,1.1,21.8c-0.2,6.9-0.1,13.7-0.1,20.6c0,0.7,0.1,1.4,0.2,2.3
	C328.9,328.9,331.2,328.9,333.7,328.9z M342.2,629.8c-0.1,0-0.2-0.1-0.3-0.1c-0.6,1.2-1.2,2.5-1.9,3.7c-1.3-0.4-1.3-0.4-2.5,0.2
	c-5.4,2.8-10.9,4.9-17,5.6c-3.5,0.4-6.5-0.6-8.1-4.1c-0.1-0.2-0.4-0.2-0.6-0.3c-1.5,6.3-2.2,12.6-2.7,18.7c2.9,1.2,5.7,2.2,8.2,3.5
	c1.8,0.9,3.7,1.5,5.7,1.7c6.2,0.7,11.9-0.7,17.2-3.4C340.9,646.7,341.6,638.2,342.2,629.8z M357.3,422.3c0.4,1.9,0.8,3.9,1.3,5.8
	c2,8.2,2.1,16.5,0.7,24.7c-1.4,8.1-2.8,16.2-4.2,24.3c-0.5,3.2,0.4,5.4,3.2,6.8c2.7,1.3,5.6,2.2,8.5,3.3c0.8,0.3,1.4,0,1.9-0.6
	c0.4-0.5,0.7-1.1,1-1.6c4-7.5,5.8-15.5,6.3-23.9c0-0.3-0.1-0.6-0.2-0.8c-1.3-0.2-2.5-0.2-3.7-0.4c-4.5-0.9-6.1-2.7-6.3-7.3
	c-0.4-7.8-1.6-15.6-3.7-23.1C361.2,426.5,359.9,424,357.3,422.3z M263.9,648.3c-0.7,3.2-2.5,5.2-4.7,6.9c-2,1.6-4.1,3-6.3,4.4
	c-2.5,1.5-5.2,1.6-7.9,0.8c-2.8-0.9-5.2-2.3-7.1-4.7c-0.8-1-1.5-1.9-2.3-2.9c-0.2,0.1-0.4,0.2-0.7,0.2c0.3,9.9,2.3,19.5,4.8,28.9
	c2.1-0.8,4.1-1.7,6.2-2.3c4.3-1.3,8.6-2.4,12.9-3.7c2.3-0.7,4.5-1.7,6.7-2.6c0.8-0.3,1.3-0.9,1.3-1.8c0.2-6.5,0.1-12.9-1-19.3
	C265.7,650.9,265.4,649.5,263.9,648.3z M318.7,636.6c0.9,0,1.9,0.2,2.8,0c5.7-1.2,11.2-3.1,16.3-6.1c1.1-0.6,1.6-1.5,1.7-2.7
	c0.6-3.9,1.3-7.7,1.9-11.6c0.4-2.3,0.7-4.5,1.1-7.3c-9.7,4.9-18.5,2.6-27.3-1.9C314.7,617.2,316.5,626.8,318.7,636.6z M291.4,129.7
	c3,4.4,6,9,9.7,12.9c4.9,5.1,8.8,11,12.2,17.1c0.2,0.4,0.4,0.9,0.7,1.8c-1-0.5-1.7-0.8-2.5-1.2c0.2,1.9,0.4,3.4,0.5,5
	c0,0.2,0.1,0.4,0.3,0.8c1.3-0.5,2.5-1.3,3.8-1.5c1.2-0.1,2.5,0.4,3.9,0.6c0-1.6-0.1-3.2,0-4.8c0.3-3.1,0.1-6.2-0.6-9.3
	c-2.6-10.8-7.6-20.1-16.2-27.3c-1.8-1.5-3.6-2.4-5.9-1.3c-0.8,0.4-2,0.6-2.5,1.2C293.6,125.6,292.6,127.7,291.4,129.7z M313.3,227.2
	c0.4-0.9,0.8-1.7,1.1-2.5c2.6-6,4.5-12.2,4.6-18.7c0.1-8.1-0.1-16.1-0.3-24.2c0-0.1-0.2-0.2-0.4-0.4c-0.2,0.3-0.4,0.7-0.6,1
	c-1.2,1.9-2.3,3.8-3.5,5.6c-1,1.5-2.2,2.9-2.9,4.6c-2.2,5.4-5.1,10.3-8.4,15c-0.4,0.6-0.9,1.4-0.9,2.1c-0.4,6,1.2,11.2,5.5,15.5
	c0.2,0.2,0.5,0.6,0.7,0.6C310.2,225.2,311.5,226.7,313.3,227.2z M326.9,363.5c0.1,0.7,0,1,0.1,1.3c1.6,5.7,3.2,11.4,5,17
	c2,6.2,3.9,12.5,4.8,19c0.8,5.8,1.8,11.5,2.7,17.3c0.1,0.7,0.3,1.4,0.6,2.1c2.6-0.9,5.1-1.8,7.9-2.7c-0.3-0.9-0.5-1.9-0.8-2.9
	c-1.5-4.5-3.1-9.1-4.5-13.6c-1.2-3.6-2.2-7.2-3.3-10.7c-1.7-5.3-3.2-10.7-3.7-16.3c-0.2-3.1,0-6.2,0-9.4
	C332.8,364.2,330,363.9,326.9,363.5z M299.8,119.5c-1.1-2.1-3-3.3-5.1-4c-2.4-0.8-4.9-1.4-7.4-2.1c-2.7-0.8-5.4-0.8-8-0.1
	c-14.3,3.6-27.3,9.8-38.6,19.3c-1.7,1.5-3.1,3.4-4.6,5.2c-0.3,0.3-0.4,0.8-0.6,1.3c1.7-1.2,2.9-2.6,4.4-3.9c1.5-1.3,3.2-2.4,4.8-3.5
	c7.1-4.6,15.1-7,23.2-8.5c5.4-1,10.9-1.1,16.4-1.5c4.2-0.3,8.4-0.6,12.7-0.9C298.1,120.8,299.1,120.6,299.8,119.5z M358.2,419.4
	c1.5,1.9,3.2,3.8,4.4,5.9c0.9,1.5,1.4,3.4,2,5.1c2.5,7.3,3.2,15,3.6,22.6c0.1,2.5,1,3.6,3.5,4.1c0.7,0.2,1.4,0.3,2.1,0.3
	c0.5,0,1.1,0.1,1.4-0.2c1.2-1.2,2.6-2.4,2.5-4.4c-0.3-5.6-0.7-11.2-2.1-16.6c-0.9-3.5-2.4-6.6-5.2-9c-2.6-2.2-5.3-4.3-8.1-6.4
	C361.1,419.9,359.7,419.2,358.2,419.4z M321.2,355.4c1.1-1.8,2-3.6,3.1-5.2c2.5-3.7,2.1-7.4-0.3-10.9c-0.5-0.8-1.1-1.6-1.7-2.3
	c-0.7-0.9-1.6-1.7-2-2.7c-0.8-2.1-2.3-3.1-4.4-3.4c-1.1-0.2-2.2-0.6-3.2-0.8c-0.5-0.1-1,0-1.9,0c3,7.4,1.5,14.5-1,21.6
	C313.6,352.9,317.3,354.1,321.2,355.4z M357.8,369.7c0.1,0.6,0.1,1,0.2,1.5c0.4,2,0.9,4.1,1.1,6.1c1,8.2,1.8,16.5,1.1,24.8
	c-0.3,3.3-0.3,6.5-0.4,9.8c0,1.7,0.1,3.5,0.2,5.1c2.1,1,3.9,1.9,5.8,2.9c0.1-0.6,0.2-1,0.2-1.5c0.3-6.2,0.6-12.4,0.8-18.7
	c0.1-1.3-0.1-2.7-0.2-4.1c-0.6-9.2-4.8-17.3-8.3-25.6C358.3,370.1,358.1,370,357.8,369.7z M231.6,171.1c0.1-0.9,0.3-1.8,0.4-2.6
	c0.3-2.5,0.6-4.9,1-7.4c1.9-10.2,6.4-18.6,15.5-24.3c0.5-0.3,1-0.7,1.6-1.1c3.9-2.5,7.8-5,11.7-7.5c0.7-0.4,1.4-0.9,2.4-1.6
	c-0.7-0.1-1-0.1-1.2-0.1c-7.1,1.6-13.7,4.3-19.6,8.6c-3.9,2.8-7.3,6.3-9.6,10.5c-2.4,4.4-4.2,9-5,13.9c-0.4,2.5-0.5,5.1-0.4,7.6
	C228.4,169.1,229.4,170.5,231.6,171.1z M235.3,746.5c0.6,5,3.9,8.3,8.3,9.9c9.4,3.6,20.1,2,28.5-5.8c1.9-1.8,2.8-4.1,2.6-6.8
	c-2.7,3.3-6.4,4.5-10.1,5.7c-2.3,0.7-4.6,1.3-6.9,1.9c-4.3,1-8.6,0.9-12.8,0C241.2,750.7,237.9,749.4,235.3,746.5z M349.5,674.5
	c0.9-3,0-4.6-2.7-5.2c-1.2-0.3-2.5-0.4-3.8-0.5c-7.6-0.7-14.8-2.9-21.5-6.7c-2.8-1.6-5.7-3.3-8.6-4.7c-2.5-1.2-5.1-2.1-7.6-3.1
	c-1.4,1.3-1.6,2.7-1.6,4.2c0.2,0.1,0.4,0.3,0.6,0.4c6.9,2.2,13.3,5.4,19.6,8.9c5,2.8,10.3,4.7,16,5.5
	C343,673.6,346.2,674.1,349.5,674.5z M268.9,675.1c-1.2,0.3-2.3,0.6-3.4,0.9c-1.8,0.6-3.5,1.5-5.4,2c-4.6,1.3-9.2,2.5-13.9,3.7
	c-4.5,1.1-7.7,4-10.6,7.5c2.2,1.6,1,4.1,2.1,6.2c0.7-0.4,1.3-0.8,1.9-1.2c3.1-2.2,6-4.5,9.2-6.5c2.3-1.5,4.7-2.8,7.1-3.8
	c2.6-1.1,5.5-1.8,8.2-2.5C268.8,680.2,268.8,680.2,268.9,675.1z M320.3,232.3c-3.4,2.2-7.2,2.8-10.8,3.5c-3.5,0.7-7,0.4-10.3-1.1
	c-0.6-0.3-1.2-0.5-1.8-0.7c-2.7-0.7-3.6-0.1-4.4,2.5c-0.3,0.9-0.4,1.8-0.7,2.7c4.4,1.6,11.3,2.6,15,1.8c5.8-1.2,11.4-2.8,17.6-4.3
	C323.3,235.2,321.9,233.8,320.3,232.3z M285.6,265.4c-1.9,8.6-3.7,16.6-5.5,24.7c0.1,0.2,0.2,0.4,0.3,0.5c1.7-2.4,3.5-2.6,5.1-0.5
	c2.6-7.8,5.1-15.4,7.8-23.5C290.3,268.4,288,267.8,285.6,265.4z M294.9,261.7c2.1-6.2,3.1-12.4,4.4-18.5c-2.6-0.9-4.9-1.7-7.5-2.5
	c-1.2,6.1-3.3,11.8-4.6,18C290.5,258.2,292.9,259.2,294.9,261.7z M284.1,296.1c-2.7,1.6-3.9-0.1-5.2-2c-2.9,7.5-4.6,15-5.5,23
	c2.2-0.3,4.2-0.6,5.9-0.8C280.9,309.6,282.4,303.1,284.1,296.1z M247.2,692c4.6,1.6,16,3,19.6,2.5c0.9-0.9,1.6-1.6,2.6-2.6
	c0.2-1.5,0.9-3.4,0-5.4c-0.4,0-0.6,0-0.8,0.1c-5.3,1.4-10.6,2.6-16.1,2.3c-0.5,0-1.1,0.1-1.6,0.4C249.8,690,248.7,690.9,247.2,692z
	 M342.4,430.8c0.3,2.8,0.6,5.9,1.1,8.9c0.2,1,1,2,1.7,2.7c1.2,1.1,2.9,1.7,4.5,1.8c1.7-3.2,1.9-12.1,0.6-16.7
	C347.8,428.6,345.2,429.7,342.4,430.8z M220.9,363.5c-3.5,0.2-6.6-0.8-9.5-2.3c-3.4-1.7-4.8-4.4-4.2-8.1c0.7-4.7,3-8.5,7.1-11.2
	c0.7-0.5,1.4-0.9,2.1-1.4c-4.6,0.6-7.6,3.3-9,7.5c-1.1,3.3-1.8,6.8-2.5,10.2c-0.3,1.5,0.3,2.8,1.3,3.9c2.1,2.4,4.7,3.7,7.8,4.1
	C216.8,366.7,219,365.6,220.9,363.5z M312.9,187.9c0.1,0,0.2,0.1,0.4,0.1c0.5-0.9,1-1.9,1.5-2.8c1.7-3.5,3.3-7.1,3.8-11
	c0.3-2.1,0.2-4.3-0.1-6.4c-0.2-1.7-1.2-2-2.8-1.4c-1.8,0.7-3.1,2.9-3,4.9c0.2,4.1,0.4,8.3,0.6,12.4
	C313.2,185.1,313,186.5,312.9,187.9z M344.7,666c-0.7-3.1-1.3-5.9-2-8.8c-5.6,2.4-11.1,4.1-17,3.8
	C331.5,664.1,337.8,665.3,344.7,666z M302.2,668.6c2.7,0.5,15,0.2,16.4-0.3c-4-2.8-12.6-6.5-15.8-6.7
	C302.3,663.8,301.7,666,302.2,668.6z M339.8,382.7c0.5-5.8,1-11.6,1.5-17.5c-1.5-0.1-3-0.3-4.6-0.4C337,371,337.7,376.9,339.8,382.7
	z M339.9,421.8c0.4,1.3,0.7,2.4,1.1,3.4c0.9,2.4,1.6,2.7,3.9,1.9c0.7-0.2,1.5-0.6,2.2-1c1.9-1.2,2.6-3.2,2-5.1
	c-0.3-0.9-0.9-1.3-1.8-1.1C344.8,420.6,342.4,421.2,339.9,421.8z M270.3,364.2c-2.6,5-3.9,16-2.5,19.9
	C270.4,377.6,271.1,371,270.3,364.2z M304.8,233.8c3.5,0.4,8.3-0.6,11.2-2.3c-1.5-1.1-2.9-2.2-4.4-3.2c-1.6-1.2-2.4-1.1-3.6,0.6
	C306.9,230.4,305.9,232,304.8,233.8z M287.9,260c-1.2,0.8-1.6,1.9-1.2,3.1c0.4,1.4,1.5,2.2,2.9,2.5c1.2,0.2,2.3-0.6,2.7-1.8
	c0.4-1.3,0.1-2-1.3-2.6C290,260.7,289,260.4,287.9,260z M266.6,684.5c-0.1-0.3-0.2-0.6-0.2-1c-3.9,0.8-7.7,1.9-11.3,3.6
	C259,686.5,262.9,686,266.6,684.5z M282,294.8c1-0.7,1.3-1.8,1.3-2.9c0-0.5-0.5-1.2-1-1.4c-0.4-0.1-1.2,0.3-1.4,0.7
	C280.1,292.6,280.5,293.7,282,294.8z M314.9,630c-1.3,3.4-0.9,5,1.5,6C316.1,633.9,315.9,632,314.9,630z M263.5,239.4
	c0.7-3.9,0.7-5.6-0.1-7.2c-0.4,2.3-0.8,4.5-1.2,6.8C262.6,239.2,263,239.3,263.5,239.4z M335.6,329.1c0.7,0,1.4-0.1,2.3-0.1
	c-0.8-1.6-1.4-2.7-2.7-3.9C335.3,326.6,335.4,327.7,335.6,329.1z M343.6,484.5c1.3,1.4,1.3,1.4,2.9,1.1
	C345.3,485.1,344.4,484.8,343.6,484.5z"/>
<path class="st0" d="M332.2,479.2c-4.2,0.4-7.9,1.9-11.7,3.2c-2.1,0.7-4.1,1.7-6.2,2.5c-5,2.1-10.2,1.8-15.3,1.1
	c-1.3-0.2-2-1-2.2-2.2c-0.2-1.4-0.5-2.8-0.5-4.3c-0.5-8.3-1.3-16.6-2.6-24.8c-0.1-0.5-0.2-1.1-0.5-1.6c-0.6,5.2,0.3,10.3,0.5,15.5
	c0.2,5.2,0.5,10.4,0.8,15.8c-3.8,0-7.6,0-11.7,0c3.1-21.4,3.6-43,0.9-64.5c-0.2,0-0.3,0-0.5,0c0,3.9,0.1,7.8,0,11.7
	c-0.4,14.5-0.3,29.1-1.9,43.6c-0.4,3.6-1.2,7.1-1.8,10.6c-0.2,1.1-0.7,2.1-1,3.2c-0.7,2.1-2.1,3.1-4.3,3.2c-3.2,0.1-6.4,0.4-9.6,0.3
	c-6.5-0.3-12.9-0.7-19.4-1.2c-1.1-0.1-2.2-0.3-3.3-0.6c-1.7-0.5-2.1-1-2-2.8c0.2-3.7,0.5-7.3,0.8-11c1-11.6,2.5-23.2,2.4-34.9
	c-0.1-12.9-0.2-25.7-0.4-38.6c0-1.3,0-2.7-0.4-4.1c-0.1,0.5-0.4,0.9-0.4,1.4c-0.3,5.6-0.7,11.2-0.8,16.8
	c-0.3,10.4-0.2,20.8-0.6,31.2c-0.2,6.6-1,13.2-1.6,19.8c-0.4,4.3-0.8,8.6-1.2,12.9c-0.1,0.6-0.2,1.2-0.3,1.9
	c-5.4-1.5-10.7-2.9-16-4.5c-5.5-1.6-11-3.4-16.5-5.1c-1.1-0.3-2.1-0.6-3.2-1c-4.4-1.6-3.6-1.8-3.2-5.1c1-7.2,1.9-14.4,2.9-21.6
	c0.9-6,2.7-11.8,5-17.5c5.7-14.3,11.2-28.7,15.5-43.6c0.1-0.3,0.2-0.6,0.4-0.9c2.2-0.3,4.3,0.3,6.4,0.8c7.9,1.9,15.8,4.1,23.8,5.6
	c4.5,0.9,9.2,0.7,13.9,0.9c0.5,0,1.1-0.2,1.7-0.3c0-0.9,0-1.7,0-2.6c1.9-0.5,3.6,0.2,5.4,0.5c3.5,0.6,7.1,1.3,10.6,1.8
	c6,0.8,12,0.1,17.9-0.7c8.6-1.1,17.2-1.5,25.8-1.6c1.1,0,2.2,0.4,3.5,0.6c1.2,3.8,2.2,7.8,2.8,11.8c0.8,5.2,1.5,10.4,2.3,15.6
	c0.2,1.3,0.6,2.5,0.9,3.8c-0.3,0.1-0.6,0.2-0.8,0.3c-2.7,0.4-3.5,1-3.7,3.7c-0.4,4.1-0.9,8.3-0.9,12.4c0,8,0.4,16,0.5,24
	c0.1,4.1-0.2,8.3-0.3,12.5C332.2,474.9,332.2,477,332.2,479.2z"/>
<path class="st0" d="M224,229.1c-0.5,12,0.2,23.5,1.1,35c0.1-2.8,0.3-5.6,0.4-8.4c0.2-9.1,0.4-18.2,0.7-27.3
	c0.2-7.8,1.5-15.5,4.7-22.6c2.9-6.6,3.5-13.4,3.2-20.4c-0.1-3.8-0.8-7.7-0.5-11.5c0.4-5.3,1.2-10.6,2.2-15.8c1-5,2.7-9.8,6.1-13.6
	c1.8-1.9,3.7-3.8,5.8-5.3c5.1-3.7,10.4-7.2,15.5-10.8c0.3-0.2,0.7-0.4,1-0.7c2.1-2.5,5-2.7,7.8-3c4.9-0.4,9.9-0.6,14.8-0.9
	c2.1-0.1,4.3-0.2,6.6-0.3c-0.1,1.6-1.3,2.5-2.1,3.4c-3.1,3.2-6.2,6.4-9.6,9.3c-4,3.5-8.7,5.9-13.5,8.2c-4.9,2.4-9.8,5-14.8,7.5
	c-0.3,0.2-0.6,0.4-0.8,0.8c14-4.7,27.7-10.1,37.6-22.2c1.3,2.2,2.4,4.2,3.6,6c1.8,2.5,3.6,5.1,5.7,7.4c3.8,4.3,7,9.1,10.1,14
	c0.4,0.7,0.6,1.6,0.7,2.5c0.4,6.5,0.7,13.1,1.1,19.6c0.3,5.6-0.7,10.8-3.2,15.8c-3,6-6.4,11.8-11.6,16.3c-0.2,0.1-0.2,0.4-0.1,0.9
	c1.1-0.6,2.2-1.1,3.5-1.9c0,0.8,0,1.4,0,2c-0.1,2.8,0.4,5.4,1.7,7.9c1.1,2.2,2.5,4.1,4.9,5c0.3,0.1,0.5,0.3,0.8,0.6
	c-1.9,2.4-3.7,4.7-5.7,7.3c-1.6-0.3-3.4-0.5-5.2-1c-3-0.8-4.1-0.4-5.4,2.6c-0.2,0.4-0.3,0.7-0.5,1.2c-4.2,0-8.4,0.1-12.6,0
	c-3.4-0.1-6.9-0.4-10.3-0.7c-2-0.2-2.1-0.4-2.3-2.3c-0.2-1.5-0.4-3-1.6-4.1c-0.3-0.3-0.3-0.9-0.4-1.3c-0.6-5.6-1.2-11.3-1.7-16.9
	c-0.1-1-0.2-2-0.3-3.5c7.8,4.5,15.4,8.7,24.6,7.5c-2.5-0.6-4.9-1.1-7.4-1.7c-5.6-1.2-10.7-3.5-15.2-6.8c-4-2.9-7.3-6.6-9.6-11.1
	c-1.4-2.9-2.7-5.8-3.9-8.7c-0.3-0.8-0.5-1.7-0.5-2.6c0-7.8,0.2-15.5,2.1-23.1c0.6-2.4,1.4-4.7,2-7.1c-2,2.2-3.1,4.9-3.8,7.8
	c-1.5,5.3-2.1,10.7-2.3,16.1c-0.2,9.1-0.3,18.2-0.6,27.3c-0.3,8.1-1.1,16.3-1.6,24.4c-0.3,4.2-0.4,8.5-0.5,12.7
	c2.7-17.7,4.9-35.5,4.6-53.4c0.2,0,0.4-0.1,0.6-0.1c0.2,0.6,0.6,1.1,0.7,1.7c1.5,5.6,4.2,10.5,8.4,14.6c0.5,0.5,1,1.3,1.1,2
	c0.5,5.2,0.8,10.4,1.2,15.5c0.5,7-0.6,13.7-2.7,20.3c-2.9,9.1-6.1,18.2-8.3,27.5c-1.5,6.6-3.5,13.1-5.5,19.6
	c-2.3,7.4-5.5,14.5-10.2,20.8c-1.9,2.5-4.2,4.6-6.5,6.7c-2.2,2-4.9,3-7.9,2.9c-1.8-0.1-3.5,0-5.3-0.1c-2.9-0.2-5.6-1-8-2.8
	c-1.3-1-2.7-1.9-4.4-3.1c0.9-0.8,1.5-1.5,2.3-2c1.2-0.9,2.6-1.6,3.8-2.4c3.2-2.2,5.5-5.1,6.5-8.9c0.1-0.4,0.3-0.8,0.5-1.3
	c0.2,0,0.3,0,0.5,0c0,2.5,0,4.9,0,7.4c0.2,0,0.5,0,0.7,0.1c0.3-1.9,0.7-3.8,0.9-5.7c0.4-4.3,0-8.6-1-12.9c-1.7-7.6-3.4-15.3-4.8-23
	c-1.7-9.2,0-17.8,5-25.7c2.1-3.3,4-6.7,6-10.1C223.3,229.8,223.5,229.7,224,229.1z M261.9,165.6c0.1,0.1,0.2,0.3,0.3,0.4
	c0.8-0.5,1.6-1.1,2.5-1.3c1.3-0.3,2.6-0.4,3.9-0.5c0.3,0,0.8,0.6,0.8,0.9c0,0.5-0.4,1.1-0.7,1.4c-0.3,0.2-0.9,0.1-1.3-0.2
	c-0.5-0.3-0.8-0.8-1.2-1.4c-0.3,1.8-0.1,2.5,0.9,3c1,0.5,2,0.5,2.9-0.3c0.7-0.5,1.4-1.1,2.2-1.7c-0.4-1.8-1.9-2.7-3.7-3
	C265.9,162.5,263.8,163.8,261.9,165.6z M302.7,163.9c-1.7-2.7-3.9-3.6-6.5-3.1c-1.9,0.4-4,1-4.4,3.5c0.9-1,1.8-2,3.4-2.1
	c0.3,2.1,0.6,2.7,1.6,3.1c1.9,0.7,3.1-0.5,4.1-1.8C301.4,163.6,301.9,163.7,302.7,163.9z M293.5,196.3c-1.3-1.3-2.5-1.7-3.9-1.7
	c-1.7,0-3.3,0.1-5,0.1c-2.3,0-4.3,0.8-6.3,2c-0.2,0.1-0.3,0.3-0.5,0.5C282.9,194.8,288,195.2,293.5,196.3z M269,155.3
	c-2.3-1-4.5-1-6.7,0C264.5,155.3,266.8,155.3,269,155.3z M296.7,153c-3.3-0.7-5.1-0.1-6.1,1.7C292.5,154.2,294.4,153.7,296.7,153z
	 M284.3,199.9c2.4,0.8,2.7,0.7,4-0.7C286.9,198.8,285.6,198.5,284.3,199.9z M288.6,182.8c0-0.2,0-0.5,0-0.7c-0.4,0-0.9,0.1-1.3,0.1
	c0,0,0,0.4,0,0.6C287.8,182.8,288.2,182.8,288.6,182.8z"/>
<path class="st0" d="M291.6,486c2.1,0.6,3.8,0.6,5.3,1.7c0.7,0.5,1.7,0.8,2.7,1c6.2,0.9,12.2,0.6,18.1-2c4.1-1.8,8.4-3,12.7-4.4
	c0.8-0.3,1.6-0.6,2.3-0.8c1.7,1.3,3.4,2.7,5.5,4.3c-0.2,3-0.5,6.4-0.7,9.8c-0.6,10.7-1.8,21.3-0.8,32.1c0.5,5.1,1.2,10.2,2.6,15.1
	c3,10.5,4.4,21.3,5.2,32.1c0.5,6.6,1,13.2,0.5,19.9c-0.3,3.3-0.9,6.5-1.4,9.7c-0.1,0.9-0.5,1.4-1.4,1.7c-1.8,0.7-3.5,1.5-5.3,2.1
	c-2.7,0.9-5.4,1.2-8.3,0.7c-4-0.7-7.8-1.6-11.5-3.1c-1.4-0.6-1.9-1.4-1.9-2.9c-0.1-7-0.2-13.9-0.5-20.9c-0.2-4.4-0.8-8.7-1.4-13.1
	c-0.5-3.5-2-6.7-4.1-9.6c-0.8-1.1-1.6-2.2-2.4-3.3c-5.7-7.6-7.7-16.1-6.8-25.5c0.6-5.8,1-11.7-0.4-17.4c-1.5-5.9-3.2-11.7-4.9-17.5
	C293.7,492.5,292.7,489.5,291.6,486z"/>
<path class="st0" d="M228.5,483.5c3.1,0.5,6,1,8.9,1.5c0,1.1,0,2.2,0,3.3c0,2.2,1,3.7,3,4.4c1.1,0.4,2.3,0.7,3.5,0.9
	c8.8,1.2,17.7,1.6,26.6,1.3c0.6,0,1.1,0,1.8,0c0.1,0.5,0.3,0.9,0.3,1.4c0.1,13.9,0,27.8,0.3,41.7c0.1,8.4-1.1,16.6-2.8,24.7
	c-2.4,11.4-4.5,22.9-5.2,34.6c0,0.4-0.1,0.8-0.2,1.3c-4.3,1.5-8.7,2.6-13.2,3.4c-3.2,0.5-6.5,0.9-9.7,1.4c-3.9,0.5-7.6,0-11.3-1.7
	c0-1.4-0.1-2.7,0-4.1c1.1-9.1,2.3-18.2,3.3-27.4c1-9,1.9-18,2.7-27c0.4-4.5,0.5-8.9,0.6-13.4c0.1-8-1.8-15.7-3.6-23.4
	c-1.6-6.4-3-12.9-4.4-19.4C228.6,486,228.6,484.9,228.5,483.5z"/>
<path class="st0" d="M327.9,361.6c2.7-2.5,4.7-5.2,5.9-8.5c-1.8,1.7-3.6,3.5-5.5,5.1c-1.6,1.3-3.3,2.5-5.2,3.4
	c-1.7,0.9-2.9,0.4-4.5-1.4c0.4-0.4,0.9-0.9,1.4-1.2c1.9-1.2,3.3-2.8,4.3-4.7c1-1.9,2.1-3.8,3.1-5.7c1-1.8,1.2-3.8,0.6-5.8
	c-0.8-2.7-2.1-5.1-3.9-7.4c-0.9-1.2-1.7-2.4-2.8-4c1-0.1,1.6-0.1,2.2-0.1c4.8,0.2,9.6,0.6,14.4-0.2c1.5-0.3,3-0.6,4.4-1.1
	c6.1-2,12.3-1.7,18.4,0c2.5,0.7,4.2,2.5,5.9,4.4c0.5,0.5,0.9,1,1.5,1.4c-0.6-3.1-1.9-5.8-4.9-7.1c-1.7-0.7-3.5-1.2-5.3-1.5
	c-5.1-1-10.2-0.9-15.3,0.2c-2,0.4-3.2,0-4.2-1.7c-0.5-0.9-1.2-1.7-1.7-2.4c5.3-8.3,10.4-16.5,15.6-24.7c-0.1-0.1-0.3-0.2-0.4-0.3
	c-6.2,6.7-11.1,14.3-15.9,22.2c-1.2-0.6-1-1.4-0.9-2.2c0.2-4.1,0.3-8.1,0.7-12.2c0.6-7,0.4-14.1,0.1-21.1c-0.5-9.1-1-18.2-1.1-27.3
	c-0.1-3.2,0.8-6.5,1.4-9.7c0.2-1.1,0.8-2.3,1.5-3.2c1.2-1.7,3.5-2,5.3-0.9c7.7,5,12.1,12.2,13.8,21c0.9,4.4,1.4,8.8,2.4,13.2
	c3.5,15.3,6.5,30.8,11.4,45.8c2.3,6.9,3.5,14.1,3,21.5c-0.3,4.4-1.9,8.4-3.7,12.4c-0.8,1.9-2.5,3.3-4.8,3.7
	c-2.4,0.4-4.7,0.7-7.1,0.9c-6.5,0.7-13.1,0.8-19.6,0.1c-3.1-0.4-6.2-0.4-9.3-0.6C328.8,361.8,328.5,361.7,327.9,361.6z"/>
<path class="st0" d="M324.2,328.5c-1.9,0.3-3.7-0.4-5.1,0.9c-0.2,0.2-0.9-0.1-1.3-0.2c-1.2-0.3-2.3-0.6-3.5-0.8
	c-0.9-0.2-2-0.5-2.8-0.1c-2.3,1-4.3-0.2-6.4-0.8c-3.2-1-6.2-2.6-8.9-4.6c-1.9-1.5-3.8-2.9-5.7-4.4c-2.1-1.6-4.4-2.7-7.1-2.4
	c-0.5,0-0.9,0-1.7-0.1c0.3-1.9,0.4-3.6,0.8-5.3c3.2-12.5,6-25.2,10.6-37.3c2.9-7.8,5-15.8,6.3-24.1c0.3-2,0.3-4,0.5-6
	c2.4,0,4.7,0.3,7-0.1c3.6-0.5,7.2-1.4,10.8-2.2c2.4-0.5,4.8-1.1,7.2-1.8c1.3-0.4,2.5-0.4,3.5,0.6c0.5,0.5,1.2,0.7,1.9,1.1
	c-0.9,1.4-1.8,2.8-2.6,4.2c-3.4,6-4,12.5-4.5,19.2c-0.6,8.3-0.2,16.6,0.4,24.9c0.5,6.1,0.5,12.3,0.6,18.4c0.1,5.8,0.1,11.7,0.1,17.5
	C324.2,326.2,324.2,327.3,324.2,328.5z"/>
<path class="st0" d="M326,363.4c-0.5,8.2,3,15.2,4.7,22.5c-0.3,0.1-0.5,0.3-0.6,0.3c-5.6-1.2-11.3-0.5-16.9-0.1
	c-5.8,0.4-11.6,1-17.4,1.7c-6.3,0.8-12.6,0.2-18.8-0.8c-2.2-0.4-4.4-0.7-6.8-1c0.1-0.6,0.1-1.1,0.3-1.6c1.3-3.6,1.8-7.3,2.1-11
	c0.3-3.5-0.3-7-1.1-10.4c-0.2-0.8-0.3-1.8,0-2.5c1.4-4.1,2.1-8.4,2.1-12.7c0-0.1,0.1-0.3,0.2-0.6c3.7-1.1,7.4-1.4,11,0.4
	c0.4,0.2,0.9,0.4,1.3,0.7c4.6,2.8,9.6,3.4,14.8,2.9c2-0.2,4-0.2,6-0.3c0.4,0.9,0.6,1.8,1.2,2.3c0.6,0.6,1.5,0.8,2.3,1.2
	c2.6,1.1,5.3,2.1,8.2,3.2c-0.5,0.5-0.8,0.8-1.1,1.2c-1.2,1.4-1.2,2.5,0.1,3.8c1.5,1.5,3.3,2.2,5.4,1.7
	C323.9,363.7,324.7,363.6,326,363.4z"/>
<path class="st0" d="M345.7,677c-0.9,2.8-2.4,5.1-4.5,6.9c-2.4,2.1-4.8,4.2-7.3,6.2c-4.1,3.3-7.3,7.1-9.3,12
	c-2.5,6.3-7.1,10.4-13.2,13.1c-6,2.6-12.2,4.3-18.8,4.4c-4.4,0.1-8.6-0.8-12.6-2.6c-1.3-0.6-1.9-1.4-1.7-2.8
	c0.1-1.1,0.1-2.2,0.2-3.3c0.2-2.1,1-4,2.5-5.6c5-5.5,9.9-11.1,13.8-17.4c3-4.8,5.6-9.7,7.4-15c0.1-0.4,0.4-0.9,0.6-1.6
	c5.7,0,11.5,0.1,17.2,0c3.1-0.1,5.9,0.6,8.7,1.9c4.5,2,9.4,2.6,14.2,3.4C343.9,676.6,344.7,676.8,345.7,677z"/>
<path class="st0" d="M268.3,697.3c1.4,5.9,2.5,11.7,3,17.7c0.5,4.9,1.1,9.8,1.7,14.8c0.4,3.2,0.7,6.4,0.2,9.6
	c-0.4,2.4-1.4,4.5-3.7,5.6c-7.9,3.7-16,6-24.8,4.1c-1.2-0.3-2.5-0.7-3.6-1.2c-2.2-1-3.7-2.6-4.6-4.9c-1.6-4.3-2-8.6-1.1-13.2
	c0.8-4.4,1.3-8.9,1.9-13.3c0.3-1.9,0.6-3.8,0.9-5.7c0.7-4.3,1.6-8.5,0.8-12.9c1.9-1.4,3.8-2.7,5.7-4.1
	C252.3,696.6,260.2,696.8,268.3,697.3z"/>
<path class="st0" d="M261.3,241.2c0.7,0.1,1.2,0.1,2,0.2c-0.1,1.2-0.2,2.2-0.3,3.2c-1.5,10-2.4,20-2.1,30.1
	c0.3,8.4,1.4,16.7,4.2,24.7c1.2,3.6,2.1,7.3,2.2,11.2c0,1.8,0.9,3.7,1.5,5.5c0.2,0.7,0.6,1.3,0.9,1.8c-1.9,1.4-3.8,2.5-5.4,4
	c-1.5,1.5-2.7,3.3-4.1,5c-1.9-2.1-2.7-2.3-5.2-0.9c-1,0.5-1.9,1.2-2.8,1.9c-2.6,2.1-5.5,3.3-8.9,3c-5.2-0.5-9.5,1-13.5,4.3
	c-1.7,1.4-3.8,2.3-5.8,3.3c-0.7,0.4-1.6,0.5-2.5,0.7c-0.3-5.5-0.5-10.9-0.7-16.4c0.7-0.1,1.3-0.3,2-0.4c2.6-0.2,4.8-1.2,6.8-2.7
	c4.2-3.2,7.4-7.2,10.1-11.7c4.4-7.4,7.3-15.5,9.6-23.7c1.9-6.8,3.4-13.8,5.3-20.6C256.7,256.2,259,248.7,261.3,241.2z"/>
<path class="st0" d="M230,603.7c5.8,2.7,11.5,2.4,17.3,1.6c5.2-0.7,10.2-1.7,15.2-3.3c0.4-0.1,0.9-0.2,1.6-0.3
	c-0.5,3.5-1.1,6.8-1.4,10.1c-0.5,5.6-1,11.1-1.3,16.7c-0.3,6.3-0.4,12.6-0.4,18.9c0,1.8-0.7,3.2-1.9,4.5c-2.3,2.4-4.9,4.3-7.9,5.7
	c-3.4,1.6-6.6,0.4-9.5-1.3c-0.9-0.5-1.6-1.3-2.4-2c-1.6-1.4-2.5-2.9-2.4-5.4c0.2-4.4-1.2-8.7-2.3-12.9c-1.5-6.1-3-12.3-4.2-18.4
	C229.5,613.1,229.8,608.6,230,603.7z"/>
<path class="st0" d="M271.6,316.4c-1.8-2.3-2-5-2.6-7.7c-0.9-4.1-1.6-8.3-2.7-12.4c-1.8-6.3-2.9-12.8-3.2-19.3
	c-0.5-11.4,0.4-22.7,2.2-33.9c0.3-1.9,0.4-3.8,0.6-5.9c8.1,2,16,2.6,24.3,0.8c-0.1,0.8-0.2,1.4-0.4,2.1c-2.5,10.3-5.3,20.6-7.6,30.9
	c-2.2,9.7-4.3,19.3-7.4,28.7C273,305.1,272.2,310.7,271.6,316.4z"/>
<path class="st0" d="M209.3,257.9c0.1,1.9,0.2,3.8,0.4,5.6c0.7,8.7,2.5,17.2,4.8,25.7c1.4,5.1,0.4,9.8-2.1,14.3
	c-1.4,2.5-3.6,4.2-6,5.7c-1.2,0.8-2.5,1.5-3.6,2.3c-2.7,2-2.6,4.2,0.4,5.8c4.5,2.4,9,4.5,14.1,5c0.8,0.1,1.6,0.3,2.5,0.4
	c-0.2,5.4-1.2,10.7,0.1,16.1c-0.6-0.1-1.1-0.1-1.7-0.2c-2.4-0.3-4.6,0.2-6.6,1.5c-3.1,2.1-5.4,4.8-6.3,8.5c-0.7,2.8-1.4,5.6-2.1,8.6
	c-0.5-0.4-0.9-0.7-1.3-1.1c-1.4-1.4-2.7-2.7-4-4.1c-1.7-1.9-3.2-3.9-4.9-5.9c-1.9-2.1-2.1-4.6-1.5-7.2c0.2-0.9,0.4-1.7,0.6-2.6
	c0.2-1.4,0.9-2.4,2.1-3c1.8-1,3.5-2.3,5.4-3c3.6-1.3,7.1-0.2,10.4,1.3c2.2,1,4.3,2,6.6,2.8c-1.9-2.2-4.2-3.6-6.9-4.6
	c-2.8-1.1-5.8-1.8-8.7-1.1c-2.7,0.6-5.3,1.9-8,2.9c-0.7-2.2-0.2-4.2,2-5.7c0.8-0.6,1.1-1.2,1.4-2.1c3.1-8.2,3.7-16.8,4.5-25.4
	c0.9-9.7,2.7-19.3,4.9-28.8c0.6-2.7,1.2-5.5,1.8-8.2c0.3-1.2,0.7-2.4,1.1-3.6C208.9,257.9,209.1,257.9,209.3,257.9z"/>
<path class="st0" d="M255.5,345.4c-0.1,2.1-1.1,3.8-2.8,5c-1.1,0.8-2.1,1.7-3.5,2.8c2.4-0.4,3.9-1.7,5.8-2.6
	c-0.2,3.4-1.2,6.1-4.2,7.7c-4.2,2.2-8.6,3.5-13.2,4.2c-0.9,0.1-1.9,0-2.9-0.1c-3.9-0.2-7.8-0.9-11.7-0.6c-3.8,0.3-7.1-1-10.3-2.3
	c-3.3-1.4-4.1-3.4-3.6-6.9c0.9-5.2,3.9-8.6,8.3-11.1c0.7-0.4,1.5-0.6,2.3-0.6c4.6-0.2,8.5-1.9,12.1-4.6c0.8-0.6,1.5-1.1,2.3-1.7
	c1.6-1.3,3.5-1.9,5.6-1.9c1.4,0,2.9,0,4.3,0c3.2,0,6.1-1,8.6-3.2c1.1-0.9,2.2-1.9,3.4-2.6c0.5-0.3,1.5-0.5,2-0.2
	c0.4,0.3,0.6,1.4,0.4,1.9c-0.5,1.3-1.2,2.6-2.1,3.7c-1.9,2.4-4.6,3.6-7.3,4.9c-0.6,0.3-1.3,0.6-1.8,1c4.2-0.1,7.6-1.9,10.4-5.1
	c0.8,1.1,0.9,2.2,0.5,3.1c-0.9,2.2-1.8,4.4-2.8,6.6c-0.8,1.5-2.3,2.1-3.9,2.7c-1.3,0.5-2.6,0.8-3.9,1.3c-0.7,0.3-1.4,0.6-2,1.2
	c2.9-0.3,5.7-1.1,8.4-2.1C254.5,345.6,255.1,345.6,255.5,345.4C255.6,345.4,255.5,345.4,255.5,345.4z"/>
<path class="st0" d="M310.2,330.6c0.4,5.5,0.8,10.8-1.2,16.1c-0.5,1.2-1.1,1.8-2.4,1.8c-2.8,0.1-5.6,0.4-8.4,0.6
	c-3.4,0.2-6.8-0.2-9.7-2.1c-5.3-3.2-10.7-3.3-16.4-1.4c-0.1,0-0.2,0.1-0.2,0.1c-0.9,0-1.9,1-2.5-0.4c-0.4-0.9,0.4-2.6,1.4-3
	c0.4-0.2,0.9-0.4,1.4-0.4c3.1-0.5,6.1-1.1,9.2-1.5c1-0.2,2.1,0,2.9-1c-0.7-1.2-1.8-1.1-2.9-1c-4.1,0.3-8.1,1.1-12,2.3
	c-0.8,0.2-1.6,0.6-2.3,0.5c-0.9-0.1-1.9-0.4-2.6-0.9c-1.2-0.9-1.1-2,0.1-3c1.7-1.5,3.7-2.6,5.9-3.1c3.2-0.7,6.4-1.3,9.7-1.8
	c0.9-0.2,1.9-0.3,2.4-1.3c-1.9-1-3.1-0.9-10.7,0.7c-3.6,0.8-6.9,2.3-10.1,4.8c-0.2-2,0.4-3.2,1.1-4.4c0.8-1.5,1.7-2.9,2.6-4.3
	c1-1.6,2.4-2.5,4.2-2.9c2.9-0.6,5.8-1.3,8.6-2c0.6-0.1,1.2-0.3,1.8-0.9c-1.6,0.1-3.2,0-4.8,0.2c-2.2,0.3-4.4,0.8-6.6,1.3
	c-2,0.4-3.5,1.5-4.6,3.2c-1.1,1.8-2.3,3.7-3.4,5.5c-1.5-1.2-1.5-2.4-0.2-4.1c5.2-6.6,9.4-8.9,18.1-9.8c1.6-0.2,3.2-0.3,4.8-0.4
	c2-0.2,3.8,0.3,5.4,1.6c2.1,1.6,4.2,3.2,6.3,4.8c3.6,2.8,7.7,4.6,12,5.7C308,330.5,309,330.5,310.2,330.6z"/>
<path class="st0" d="M350.6,418c2.6,0,4.8,1.6,5.3,3.7c2.3,11.5,3.3,23.1,0.8,34.7c-1.4,6.3-2.4,12.7-3.4,19.1c-0.3,2,0,4.1,0,6.4
	c-1.8,1.1-3.8,2.1-6.4,1c-2.2-1-4.5-1.6-6.7-2.4c-2.3-0.9-3.1-2.6-2.8-5.1c0.8-8.2,1.2-16.4,0.1-25.1c-0.2,1.4-0.4,2.4-0.4,3.4
	c-0.4,6.6-0.7,13.2-1.1,19.9c0,0.8-0.1,1.6-0.1,2.4c-0.1,3.8-0.1,3.9,2.8,6.3c-2.1-0.1-3.1-0.7-3.7-2.4c-0.4-1.4-0.7-3-0.6-4.5
	c0.1-4,0.7-8,0.7-12c0-7.7-0.3-15.3-0.4-23c0-4.9,0.2-9.9,0.3-14.8c0-0.8,0.2-1.6,0.4-2.4c0.3-1.1,1.1-1.5,2.2-1.5
	c1,0.1,1.1,0.9,1.2,1.7c0.3,2.3,0.6,4.6,2.4,6.3c0.3,0.3,0.3,0.9,0.3,1.3c0,2.2,0.1,4.5,0,6.7c-0.1,3.4,1.2,5.9,4.3,7.4
	c0.9,0.5,1.8,1,2.8,1.3c2.3,0.8,3.8,0.1,4.3-2.3c0.5-2.2,0.8-4.6,1-6.9c0.3-4.7-0.1-9.4-1.8-13.9C351.3,421.8,351.1,420,350.6,418z"
	/>
<path class="st0" d="M357.2,416.4c-2.4-0.2-4.7-0.4-6.9-0.6c-2.3-5.2-4.1-10.5-5.5-15.9c-0.7-2.8-1.6-5.5-2.5-8.3
	c-0.5-1.6-0.7-3.2-0.6-4.9c0.3-6.5,0.5-13.1,0.7-19.6c0-0.5,0-1.1,0-1.8c4.4,0,8.5,0,12.9,0c1.2,5.7,1.8,11.4,2.3,17.2
	C358.6,393.8,357.4,405,357.2,416.4z"/>
<path class="st0" d="M333.7,328.9c-2.5,0-4.7,0-7.2,0c-0.1-0.9-0.2-1.6-0.2-2.3c0-6.9-0.1-13.7,0.1-20.6c0.2-7.3-0.6-14.5-1.1-21.8
	c-0.7-10-0.5-20,1.2-29.9c0.7-3.8,2.4-7.3,4.4-10.6c1.3-2.2,3.4-3,5.7-3.7c0.4-0.1,1.1,0.5,1.9,0.9c-4.5,3.4-5.3,8.1-5.6,12.8
	c-0.4,5.4-0.2,10.9,0,16.3c0.2,6,0.6,12,1,17.9c0.5,6.2,0.2,12.5-0.2,18.7c-0.5,6.8-0.8,13.6,0,20.3
	C333.7,327.6,333.7,328.2,333.7,328.9z"/>
<path class="st0" d="M342.2,629.8c-0.6,8.4-1.3,16.8-1.9,25.4c-5.4,2.8-11.1,4.2-17.2,3.4c-2-0.2-3.8-0.8-5.7-1.7
	c-2.5-1.3-5.3-2.3-8.2-3.5c0.5-6.1,1.2-12.5,2.7-18.7c0.2,0.1,0.5,0.2,0.6,0.3c1.6,3.5,4.6,4.5,8.1,4.1c6-0.7,11.6-2.8,17-5.6
	c1.2-0.6,1.2-0.6,2.5-0.2c0.6-1.2,1.2-2.4,1.9-3.7C342,629.8,342.1,629.8,342.2,629.8z"/>
<path class="st0" d="M357.3,422.3c2.6,1.8,3.9,4.3,4.7,7.1c2.2,7.6,3.3,15.3,3.7,23.1c0.3,4.6,1.8,6.4,6.3,7.3
	c1.2,0.2,2.4,0.3,3.7,0.4c0.1,0.2,0.2,0.5,0.2,0.8c-0.5,8.4-2.3,16.4-6.3,23.9c-0.3,0.6-0.6,1.1-1,1.6c-0.5,0.6-1.1,0.9-1.9,0.6
	c-2.8-1.1-5.8-2-8.5-3.3c-2.9-1.4-3.8-3.6-3.2-6.8c1.4-8.1,2.8-16.2,4.2-24.3c1.4-8.3,1.3-16.5-0.7-24.7
	C358.2,426.1,357.8,424.2,357.3,422.3z"/>
<path class="st0" d="M263.9,648.3c1.4,1.2,1.8,2.5,2,3.8c1.1,6.4,1.2,12.9,1,19.3c0,0.9-0.5,1.5-1.3,1.8c-2.2,0.9-4.4,1.9-6.7,2.6
	c-4.3,1.3-8.6,2.4-12.9,3.7c-2.1,0.6-4.1,1.5-6.2,2.3c-2.5-9.5-4.5-19.1-4.8-28.9c0.2-0.1,0.4-0.2,0.7-0.2c0.8,1,1.5,1.9,2.3,2.9
	c1.8,2.4,4.3,3.8,7.1,4.7c2.7,0.8,5.4,0.7,7.9-0.8c2.2-1.3,4.3-2.8,6.3-4.4C261.4,653.5,263.2,651.5,263.9,648.3z"/>
<path class="st0" d="M318.7,636.6c-2.2-9.8-4-19.5-3.5-29.6c8.8,4.5,17.6,6.8,27.3,1.9c-0.4,2.8-0.8,5-1.1,7.3
	c-0.6,3.9-1.3,7.7-1.9,11.6c-0.2,1.2-0.7,2-1.7,2.7c-5.1,3-10.6,4.9-16.3,6.1C320.6,636.8,319.6,636.6,318.7,636.6z"/>
<path class="st0" d="M291.4,129.7c1.2-2,2.2-4,3.4-5.8c0.5-0.7,1.6-0.8,2.5-1.2c2.3-1.1,4.1-0.2,5.9,1.3
	c8.6,7.2,13.6,16.5,16.2,27.3c0.7,3.1,0.9,6.1,0.6,9.3c-0.1,1.6,0,3.2,0,4.8c-1.4-0.2-2.7-0.8-3.9-0.6c-1.3,0.2-2.5,0.9-3.8,1.5
	c-0.1-0.3-0.2-0.5-0.3-0.8c-0.2-1.6-0.3-3.2-0.5-5c0.8,0.4,1.5,0.7,2.5,1.2c-0.3-0.8-0.5-1.3-0.7-1.8c-3.4-6.2-7.3-12-12.2-17.1
	C297.4,138.7,294.5,134.1,291.4,129.7z"/>
<path class="st0" d="M313.3,227.2c-1.8-0.5-3.2-2-5.1-1.5c-0.2,0-0.5-0.3-0.7-0.6c-4.3-4.3-5.9-9.6-5.5-15.5
	c0.1-0.7,0.5-1.5,0.9-2.1c3.3-4.7,6.2-9.7,8.4-15c0.7-1.6,1.9-3,2.9-4.6c1.2-1.9,2.4-3.8,3.5-5.6c0.2-0.3,0.4-0.6,0.6-1
	c0.2,0.2,0.4,0.3,0.4,0.4c0.1,8.1,0.3,16.1,0.3,24.2c-0.1,6.6-2,12.7-4.6,18.7C314.1,225.5,313.7,226.3,313.3,227.2z"/>
<path class="st0" d="M326.9,363.5c3.1,0.4,5.9,0.7,8.7,1c0,3.3-0.2,6.4,0,9.4c0.4,5.6,2,11,3.7,16.3c1.1,3.6,2.2,7.2,3.3,10.7
	c1.5,4.6,3,9.1,4.5,13.6c0.3,0.9,0.5,1.9,0.8,2.9c-2.8,1-5.2,1.8-7.9,2.7c-0.2-0.8-0.4-1.5-0.6-2.1c-0.9-5.8-1.8-11.5-2.7-17.3
	c-1-6.5-2.8-12.8-4.8-19c-1.8-5.6-3.3-11.3-5-17C326.9,364.5,326.9,364.2,326.9,363.5z"/>
<path class="st0" d="M299.8,119.5c-0.7,1.1-1.7,1.3-2.8,1.4c-4.2,0.3-8.4,0.5-12.7,0.9c-5.5,0.4-11,0.5-16.4,1.5
	c-8.2,1.5-16.2,3.9-23.2,8.5c-1.7,1.1-3.3,2.2-4.8,3.5c-1.4,1.2-2.7,2.7-4.4,3.9c0.2-0.4,0.3-0.9,0.6-1.3c1.5-1.8,2.8-3.7,4.6-5.2
	c11.3-9.5,24.3-15.7,38.6-19.3c2.7-0.7,5.4-0.7,8,0.1c2.5,0.7,5,1.3,7.4,2.1C296.8,116.3,298.7,117.4,299.8,119.5z"/>
<path class="st0" d="M358.2,419.4c1.5-0.1,2.9,0.5,4.1,1.4c2.7,2.1,5.4,4.2,8.1,6.4c2.8,2.3,4.3,5.5,5.2,9c1.4,5.5,1.8,11,2.1,16.6
	c0.1,2-1.2,3.2-2.5,4.4c-0.3,0.3-0.9,0.2-1.4,0.2c-0.7-0.1-1.4-0.2-2.1-0.3c-2.5-0.6-3.3-1.6-3.5-4.1c-0.4-7.7-1.1-15.3-3.6-22.6
	c-0.6-1.7-1.1-3.6-2-5.1C361.4,423.1,359.7,421.3,358.2,419.4z"/>
<path class="st0" d="M321.2,355.4c-3.9-1.3-7.6-2.5-11.5-3.8c2.5-7.2,4-14.2,1-21.6c0.9,0,1.4-0.1,1.9,0c1.1,0.2,2.1,0.7,3.2,0.8
	c2.1,0.3,3.6,1.3,4.4,3.4c0.4,1,1.3,1.8,2,2.7c0.6,0.8,1.2,1.5,1.7,2.3c2.4,3.6,2.8,7.2,0.3,10.9
	C323.2,351.8,322.3,353.6,321.2,355.4z"/>
<path class="st0" d="M357.8,369.7c0.3,0.3,0.5,0.3,0.5,0.5c3.5,8.3,7.7,16.3,8.3,25.6c0.1,1.4,0.3,2.7,0.2,4.1
	c-0.2,6.2-0.5,12.4-0.8,18.7c0,0.5-0.1,0.9-0.2,1.5c-1.9-1-3.8-1.9-5.8-2.9c-0.1-1.6-0.2-3.4-0.2-5.1c0.1-3.3,0.1-6.6,0.4-9.8
	c0.7-8.3-0.1-16.6-1.1-24.8c-0.2-2.1-0.7-4.1-1.1-6.1C358,370.8,357.9,370.3,357.8,369.7z"/>
<path class="st0" d="M231.6,171.1c-2.2-0.6-3.2-2-3.2-3.9c-0.1-2.5,0-5.1,0.4-7.6c0.8-4.9,2.6-9.6,5-13.9c2.3-4.3,5.7-7.7,9.6-10.5
	c5.9-4.2,12.5-7,19.6-8.6c0.2,0,0.5,0,1.2,0.1c-1,0.7-1.7,1.2-2.4,1.6c-3.9,2.5-7.8,5-11.7,7.5c-0.5,0.3-1,0.7-1.6,1.1
	c-9,5.6-13.6,14.1-15.5,24.3c-0.4,2.4-0.7,4.9-1,7.4C231.9,169.3,231.8,170.2,231.6,171.1z"/>
<path class="st0" d="M235.3,746.5c2.6,2.9,5.9,4.2,9.5,4.9c4.3,0.9,8.6,1,12.8,0c2.3-0.6,4.7-1.1,6.9-1.9c3.7-1.2,7.4-2.5,10.1-5.7
	c0.3,2.7-0.7,5-2.6,6.8c-8.4,7.7-19.1,9.4-28.5,5.8C239.2,754.8,235.9,751.5,235.3,746.5z"/>
<path class="st0" d="M349.5,674.5c-3.3-0.5-6.4-0.9-9.6-1.4c-5.7-0.8-11-2.7-16-5.5c-6.3-3.5-12.7-6.7-19.6-8.9
	c-0.2-0.1-0.4-0.2-0.6-0.4c0-1.5,0.2-2.8,1.6-4.2c2.5,1,5.1,1.9,7.6,3.1c2.9,1.4,5.8,3.1,8.6,4.7c6.7,3.9,13.9,6,21.5,6.7
	c1.3,0.1,2.5,0.3,3.8,0.5C349.5,669.9,350.3,671.6,349.5,674.5z"/>
<path class="st0" d="M268.9,675.1c-0.1,5.1-0.1,5-4.7,6.3c-2.8,0.8-5.6,1.4-8.2,2.5c-2.5,1-4.9,2.4-7.1,3.8c-3.1,2-6.1,4.3-9.2,6.5
	c-0.6,0.4-1.2,0.7-1.9,1.2c-1.1-2.1,0-4.6-2.1-6.2c2.9-3.5,6.1-6.4,10.6-7.5c4.6-1.2,9.3-2.4,13.9-3.7c1.8-0.5,3.6-1.4,5.4-2
	C266.6,675.7,267.7,675.5,268.9,675.1z"/>
<path class="st0" d="M320.3,232.3c1.5,1.5,2.9,2.9,4.6,4.5c-6.1,1.5-11.8,3.1-17.6,4.3c-3.8,0.8-10.7-0.2-15-1.8
	c0.2-0.9,0.4-1.8,0.7-2.7c0.8-2.6,1.7-3.2,4.4-2.5c0.6,0.1,1.2,0.4,1.8,0.7c3.3,1.5,6.8,1.8,10.3,1.1
	C313.2,235.1,316.9,234.5,320.3,232.3z"/>
<path class="st0" d="M285.6,265.4c2.4,2.4,4.7,3,7.7,1.2c-2.7,8.1-5.3,15.8-7.8,23.5c-1.6-2.1-3.4-1.9-5.1,0.5
	c-0.1-0.2-0.2-0.4-0.3-0.5C281.9,282,283.7,274,285.6,265.4z"/>
<path class="st0" d="M294.9,261.7c-2-2.5-4.4-3.5-7.7-3c1.3-6.2,3.4-11.9,4.6-18c2.6,0.9,4.9,1.6,7.5,2.5
	C298,249.3,297,255.5,294.9,261.7z"/>
<path class="st0" d="M319.3,713.9c-0.1,0.2-0.1,0.5-0.2,0.6c-7.3,6.6-15.7,10.9-25.7,11.5c-3.1,0.2-6.4-0.4-9.5-0.7
	c-2.9-0.3-5-1.6-5.7-4.6c-0.2-0.6-0.4-1.2-0.6-1.7c0.3-0.1,0.5-0.2,0.5-0.1c9.7,4.6,19.5,4,29.3,0.6c3.7-1.3,7.2-3.4,10.8-5.1
	C318.6,714.2,319,714.1,319.3,713.9C319.4,713.9,319.3,713.9,319.3,713.9z"/>
<path class="st0" d="M284.1,296.1c-1.6,7-3.2,13.5-4.7,20.2c-1.8,0.3-3.7,0.5-5.9,0.8c0.9-8,2.6-15.5,5.5-23
	C280.1,296,281.3,297.8,284.1,296.1z"/>
<path class="st0" d="M319.4,713.9c0.2-0.3,0.3-0.6,0.5-0.8c2.7-2,4.5-4.7,6-7.7c0.7-1.5,1.5-3,2.2-4.5c1.4-2.9,3.4-5.4,5.9-7.4
	c1.7-1.4,3.3-2.8,5-4.1c3.4-2.8,6.8-5.6,8.7-9.9c1.3,3.3,0.7,8.1-1.1,10.5c-0.5,0.6-1.2,1.1-2,1.2c-6.2,1.2-10.3,5.2-13.8,10
	c-0.5,0.6-0.9,1.3-1.2,2c-2,4.4-5.6,7.5-9.3,10.4C319.9,713.8,319.6,713.8,319.4,713.9C319.3,713.9,319.4,713.9,319.4,713.9z"/>
<path class="st0" d="M247.2,692c1.5-1.1,2.6-2,3.8-2.7c0.4-0.3,1.1-0.4,1.6-0.4c5.5,0.3,10.8-0.9,16.1-2.3c0.2-0.1,0.5,0,0.8-0.1
	c0.9,2,0.1,3.9,0,5.4c-1,1-1.7,1.7-2.6,2.6C263.2,694.9,251.8,693.6,247.2,692z"/>
<path class="st0" d="M342.4,430.8c2.8-1.1,5.4-2.2,8-3.2c1.3,4.6,1.1,13.5-0.6,16.7c-1.7-0.2-3.3-0.7-4.5-1.8
	c-0.8-0.7-1.6-1.7-1.7-2.7C343,436.7,342.7,433.6,342.4,430.8z"/>
<path class="st0" d="M220.9,363.5c-1.9,2.1-4,3.2-6.9,2.8c-3.2-0.4-5.8-1.7-7.8-4.1c-1-1.2-1.6-2.5-1.3-3.9
	c0.7-3.4,1.4-6.9,2.5-10.2c1.4-4.2,4.4-6.8,9-7.5c-0.7,0.5-1.4,0.9-2.1,1.4c-4.1,2.7-6.4,6.4-7.1,11.2c-0.6,3.7,0.8,6.4,4.2,8.1
	C214.3,362.6,217.4,363.7,220.9,363.5z"/>
<path class="st0" d="M312.9,187.9c0.1-1.4,0.2-2.8,0.2-4.2c-0.1-4.1-0.4-8.3-0.6-12.4c-0.1-2,1.3-4.2,3-4.9c1.6-0.6,2.6-0.3,2.8,1.4
	c0.3,2.1,0.4,4.3,0.1,6.4c-0.5,3.9-2.1,7.5-3.8,11c-0.5,1-1,1.9-1.5,2.8C313.1,188,313,187.9,312.9,187.9z"/>
<path class="st0" d="M344.7,666c-6.9-0.6-13.2-1.9-19-5c5.9,0.3,11.4-1.4,17-3.8C343.3,660.1,344,662.8,344.7,666z"/>
<path class="st0" d="M302.2,668.6c-0.5-2.5,0-4.8,0.7-7.1c3.2,0.2,11.7,3.9,15.8,6.7C317.3,668.8,304.9,669.1,302.2,668.6z"/>
<path class="st0" d="M339.8,382.7c-2.1-5.7-2.8-11.6-3.1-18c1.6,0.2,3.1,0.3,4.6,0.4C340.8,371.1,340.3,376.9,339.8,382.7z"/>
<path class="st0" d="M339.9,421.8c2.6-0.6,4.9-1.2,7.3-1.8c0.9-0.2,1.5,0.3,1.8,1.1c0.7,1.8-0.1,3.9-2,5.1c-0.7,0.4-1.4,0.7-2.2,1
	c-2.4,0.8-3,0.4-3.9-1.9C340.6,424.2,340.3,423.2,339.9,421.8z"/>
<path class="st0" d="M270.3,364.2c0.8,6.8,0.1,13.4-2.5,19.9C266.4,380.2,267.7,369.2,270.3,364.2z"/>
<path class="st0" d="M304.8,233.8c1.1-1.8,2.1-3.4,3.2-5c1.1-1.6,1.9-1.7,3.6-0.6c1.5,1.1,2.9,2.1,4.4,3.2
	C313,233.2,308.3,234.3,304.8,233.8z"/>
<path class="st0" d="M287.9,260c1,0.4,2.1,0.8,3.1,1.2c1.4,0.6,1.7,1.4,1.3,2.6c-0.4,1.2-1.6,2.1-2.7,1.8c-1.4-0.3-2.5-1.1-2.9-2.5
	C286.3,261.8,286.8,260.8,287.9,260z"/>
<path class="st0" d="M266.6,684.5c-3.7,1.5-7.6,2-11.5,2.7c3.6-1.7,7.4-2.9,11.3-3.6C266.4,683.9,266.5,684.2,266.6,684.5z"/>
<path class="st0" d="M282,294.8c-1.6-1-1.9-2.1-1.1-3.5c0.3-0.4,1.1-0.9,1.4-0.7c0.4,0.1,1,0.9,1,1.4C283.3,293,283,294.1,282,294.8
	z"/>
<path class="st0" d="M314.9,630c1,2,1.2,4,1.5,6C314.1,635,313.7,633.4,314.9,630z"/>
<path class="st0" d="M263.5,239.4c-0.5-0.1-0.9-0.2-1.4-0.3c0.4-2.3,0.8-4.6,1.2-6.8C264.2,233.8,264.2,235.6,263.5,239.4z"/>
<path class="st0" d="M335.6,329.1c-0.2-1.4-0.3-2.5-0.4-4c1.4,1.1,1.9,2.3,2.7,3.9C337,329,336.3,329,335.6,329.1z"/>
<path class="st0" d="M343.6,484.5c0.8,0.3,1.7,0.6,2.9,1.1C344.9,485.8,344.9,485.8,343.6,484.5z"/>
<path d="M261.9,165.6c1.8-1.8,3.9-3.1,6.6-2.6c1.8,0.3,3.3,1.2,3.7,3c-0.8,0.6-1.5,1.2-2.2,1.7c-0.9,0.7-1.9,0.8-2.9,0.3
	c-1.1-0.5-1.3-1.2-0.9-3c0.5,0.6,0.8,1.1,1.2,1.4c0.3,0.2,1,0.4,1.3,0.2c0.4-0.3,0.7-0.9,0.7-1.4c0-0.3-0.5-1-0.8-0.9
	c-1.3,0.1-2.7,0.1-3.9,0.5c-0.9,0.2-1.7,0.9-2.5,1.3C262.1,165.9,262,165.8,261.9,165.6z"/>
<path d="M302.7,163.9c-0.8-0.2-1.2-0.3-1.9-0.5c-1,1.3-2.2,2.5-4.1,1.8c-1-0.4-1.3-1-1.6-3.1c-1.5,0.1-2.4,1.1-3.4,2.1
	c0.3-2.5,2.5-3.2,4.4-3.5C298.7,160.3,300.9,161.2,302.7,163.9z M299.1,162.5c-1-0.6-1.9-1.3-3.2-0.5c0,1.1,0.5,1.7,1.5,1.8
	C298.3,164,298.9,163.5,299.1,162.5z"/>
<path d="M293.5,196.3c-5.5-1.2-10.6-1.6-15.6,0.8c0.2-0.2,0.3-0.4,0.5-0.5c1.9-1.1,4-1.9,6.3-2c1.7,0,3.3,0,5-0.1
	C291.1,194.6,292.3,195,293.5,196.3z"/>
<path d="M269,155.3c-2.2,0-4.5,0-6.7,0C264.5,154.3,266.8,154.2,269,155.3z"/>
<path d="M296.7,153c-2.3,0.6-4.2,1.1-6.1,1.7C291.6,152.9,293.4,152.4,296.7,153z"/>
<path d="M284.3,199.9c1.3-1.3,2.6-1,4-0.7C287,200.6,286.7,200.6,284.3,199.9z"/>
<path d="M288.6,182.8c-0.4,0-0.8,0-1.2,0.1c0-0.2,0-0.6,0-0.6c0.4-0.1,0.9-0.1,1.3-0.1C288.6,182.3,288.6,182.5,288.6,182.8z"/>
<path class="st0" d="M299.1,162.5c-0.2,1-0.9,1.5-1.7,1.4c-1-0.1-1.5-0.8-1.5-1.8C297.2,161.2,298.1,161.8,299.1,162.5z"/>
</svg>
