<?xml version="1.0" encoding="utf-8"?>
<!-- Generator: Adobe Illustrator 19.0.0, SVG Export Plug-In . SVG Version: 6.00 Build 0)  -->
<svg version="1.1" id="图层_1" xmlns="http://www.w3.org/2000/svg" xmlns:xlink="http://www.w3.org/1999/xlink" x="0px" y="0px"
	 viewBox="0 0 595.3 841.9" style="enable-background:new 0 0 595.3 841.9;" xml:space="preserve">
<style type="text/css">
	.st0{fill:#FFFFFF;}
</style>
<path class="st0" d="M1.3,841.8c0-280,0-560.1,0-840.1c198,0,396,0,593.9,0c0,280,0,560.1,0,840.1
	C397.3,841.8,199.3,841.8,1.3,841.8z M239.4,682.4c-1.4,1.8-2.7,3.3-3.9,4.9c-0.4,0.5-0.7,1.3-0.7,2c-0.1,1,0.1,2,0.2,3
	c0.1,2.6,0.3,5.1,3.5,5.7c-0.3,1.6-0.5,3.1-0.7,4.5c-0.7,3.4-1.5,6.9-2.1,10.3c-0.9,5.4-1.5,10.9-2.4,16.3
	c-0.9,5.7-0.6,11.3,0.1,16.9c0.4,3.1,1.5,6,4,8.2c3.6,3.3,7.9,5.4,12.8,5.9c8.1,0.8,15.3-1.4,21.8-6.3c4.8-3.6,6.6-8.3,5.3-14.1
	c-0.6-2.4-0.9-4.8-1.1-7.3c-0.7-6.9-1.5-13.8-2.4-20.7c-0.7-4.8-1.7-9.6-2.5-14.4c-0.1-0.7-0.3-1.5,0-2.1c1.4-3,1-6.1,0.8-9.2
	c-0.1-1.9-0.6-2.2-2.6-2.3c-0.3,0-0.7-0.1-1.5-0.2c0.6-0.6,0.9-1.1,1.3-1.3c1.5-0.9,2-2.1,2-3.8c0-1.4,0.2-2.7,0.2-4.1
	c0-2.4-0.1-2.6-2.4-3.9c0-4.1,0.2-8.3-0.1-12.5c-0.2-2.8-0.7-5.7-1.4-8.5c-0.5-2-1.8-3.5-4.1-3.3c0-5-0.1-9.8,0-14.7
	c0.2-7.3,0.5-14.5,1.7-21.7c0.8-4.9,1.6-9.8,1.9-14.7c0.8-11.9,3.2-23.5,5.7-35.2c1.2-5.6,2.2-11.1,2.1-16.8
	c-0.1-7.6-0.1-15.2-0.3-22.7c-0.2-7.4-0.6-14.8-0.9-22.2c0-1-0.2-2-0.3-2.9c0.3-0.2,0.3-0.3,0.4-0.3c0.4-0.1,0.8-0.2,1.2-0.2
	c3-0.1,4.9-1.7,5.9-4.4c0.4-1.1,0.8-2.3,1.1-3.4c0.2-0.8,0.7-1.2,1.6-1.2c2.1,0.2,4.3,0.3,6.2,0.5c2.1,8.2,4.2,16.1,6.3,24
	c1.1,4.2,1.9,8.4,1.6,12.8c-0.2,3.4-0.4,6.8-0.6,10.3c-0.4,6.7,0.8,13.1,4.1,18.9c1.5,2.7,3.3,5.3,5.1,7.8c1.9,2.7,3.5,5.5,4.1,8.8
	c0.5,2.6,1,5.2,1.1,7.8c0.4,9.6,0.8,19.3,1,29c0.1,6.3,0.6,12.6,1.6,18.8c0.3,1.7,0.1,2.9-1.3,4c-1.6,1.2-2.4,2.9-2.8,4.9
	c-0.4,1.9-0.9,3.9-1.2,5.9c-0.8,4.2-1.5,8.5-2.2,12.8c-1.9,0.5-3.7,1.2-4.6,3.3c-0.8,2-1.5,3.9,0.3,5.6c-2.7,5-2.8,7.1-0.9,10.2
	c-2.6,5.7-5.7,11.2-9.2,16.4c-3.9,5.7-8.4,10.9-13,16c-1.6,1.8-2.6,3.8-2.9,6.2c-0.6,4.1-0.4,8.2,0.6,12.3c0.6,2.5,1.9,3.9,4.3,4.6
	c6.2,1.9,12.5,2.5,18.9,0.8c12.7-3.4,25.4-12.9,32.2-24.1c0.2-0.4,0.5-0.8,0.8-1.2c3.2-4.1,6.7-7.7,12.2-8.6c1.8-0.3,3-1.4,3.8-3
	c1.6-3.2,2.3-6.6,1.8-10.2c-0.1-0.9-0.2-1.9-0.4-2.7c2.3-0.8,2.2-0.8,2.3-3.2c0-0.5,0.1-1,0.1-1.4c0-2.6-1.2-4.6-3.5-5.9
	c-0.7-0.4-1.4-0.6-2.1-0.9c-0.6-2.9-1.2-5.7-1.9-8.5c-0.2-1-0.6-2.1-1.3-2.7c-0.8-0.8-1-1.5-1-2.5c0.2-4.7,0.5-9.4,0.7-14.1
	c0.1-2.9,0.5-5.9,0.4-8.8c0-1.8-0.7-3.6-1-5.3c-0.1-0.7-0.3-1.4-0.2-2.1c0.5-3.2,1-6.5,1.6-9.7c0.9-5.3,1.9-10.5,2.6-15.8
	c0.8-6,0.5-12,0.1-17.9c-0.7-9-1.3-18-3.3-26.8c-1.1-4.7-2.4-9.4-3.4-14.2c-1.7-8.1-2-16.3-1.8-24.5c0.2-6.1,0.5-12.1,0.7-18.2
	c0.1-2.9,0-5.7,0-8.9c1.7,0.9,3.3,1.6,4.8,2.4c1.2,0.7,2.4,0.8,3.3-0.3c1.7-2.1,4.3-2.3,6.5-3.3c0.5-0.2,1.4-0.1,1.7,0.2
	c2.5,2.3,5.7,3.2,8.8,4.2c4,1.3,5.1,0.9,7.3-2.7c0.2-0.4,0.5-0.8,0.7-1.3c1.4-3.7,2.9-7.3,4-11c1.4-5.1,2.3-10.3,1.8-15.6
	c-0.1-0.5,0.3-1.2,0.6-1.7c0.9-1.3,1.4-2.7,1.2-4.3c-0.4-4.4-0.7-8.9-1.4-13.3c-0.7-5-2.3-9.6-6.2-13.2c-1.4-1.3-2.8-2.6-4.1-3.8
	c0.3-6.8,0.6-13.5,0.8-20.2c0.3-8.9-1.6-17.4-5.8-25.4c-1.9-3.7-3.4-7.5-5.2-11.4c1.3-0.2,2.5-0.3,3.6-0.5c1.7-0.3,3.5-0.5,5.1-1.1
	c1.1-0.4,2.3-1.2,3-2.2c1.1-1.5,2-3.3,2.8-5c2.2-5.2,3.5-10.6,3-16.3c-0.5-5.9-1.6-11.7-3.3-17.4c-1.8-5.9-3.5-11.8-5-17.7
	c-3-12.1-5.9-24.2-7.6-36.5c-0.6-4.8-1.9-9.6-4.2-13.9c-3.2-6-7.6-10.8-14.4-12.8c-0.5-0.2-1-0.5-1.4-0.8c-1.9-1.9-4.1-1.7-6.4-0.9
	c-0.7,0.2-1.3,0.4-1.9,0.6c-2.6-3.2-5.6-5.6-8.7-8c-0.7-0.5-1.7-0.6-2.6-0.9c-0.5-0.2-1.1-0.1-1.5-0.4c-1.2-0.9-2.3-1.9-3.5-2.9
	c0.5-0.9,1-1.7,1.4-2.5c2.9-6.7,4.8-13.7,4.9-21.1c0.1-7.1,0-14.2-0.8-21.3c-0.4-3.1-0.9-6.2,0.2-9.2c0.2-0.6,0.1-1.3,0.2-1.9
	c0.3-5,0.7-10,1-15c0.1-0.7,0-1.6,0.4-2.1c1.5-1.9,1.6-4.3,2.2-6.5c1.5-6.3,0.7-12.1-3.3-17.5c-1.4-1.8-2.3-4-3.1-6.2
	c-1-2.7-2.4-5-4.6-6.9c-1.3-1.1-2.6-2.1-4.1-2.9c-3-1.6-5.3-3.7-7.2-6.5c-0.8-1.3-1.8-2.4-2.8-3.5c-2.1-2.3-4.8-3.4-7.9-3.5
	c-1.4,0-2.9-0.1-4.3,0.1c-4.4,0.6-8.7,0.1-13.1-0.4c-3.2-0.4-6.4-0.6-9.5-0.6c-3.5,0-5.2,1.6-5.9,5c-0.3,1.5-0.5,3-0.7,4.4
	c-3,0.7-3,0.6-5.4-0.7c-1.3-0.7-2.8-1.3-4.2-1.6c-4.9-0.8-9.3,0.6-13.5,3.1c-2.1,1.3-3.3,3.2-3.2,5.8c0.1,1.4,0.2,2.7,0.2,4.1
	c0,1.1-0.1,2.2-0.3,3.3c-1.1,4.4-2.6,8.8-3.3,13.2c-0.6,4-2.5,6.8-5.4,9.2c-1.4,1.2-2.7,2.5-3.9,3.9c-2,2.1-2.9,4.7-2.5,7.7
	c0.5,4.2,0.9,8.4,1.3,12.6c0.4,4.8,0.8,9.7,1,14.6c0.1,2.5,0.4,4.9,1.4,7.2c1.2,2.7,3.1,4.8,5.2,6.8c1.1,1.1,2.1,2.4,3.2,3.5
	c1.1,1,1,1.9,0.5,3.2c-2.1,5.2-3.5,10.6-4,16.2c-0.2,2-0.7,3.9-1.8,5.6c-1.9,2.9-3.7,6-5.6,8.9c-3.4,5.1-6.4,10.5-7.4,16.7
	c-0.1,0.6-0.7,1.2-1,1.8c-0.7,1.3-1.7,2.5-2.2,3.9c-0.9,2.4-1.6,4.9-2.2,7.3c-2.8,11.2-4.7,22.6-5.9,34.2
	c-0.7,7.1-1.7,14.3-2.5,21.4c-0.2,1.4-0.6,2.6-2.1,3.4c-1.9,1-3,2.8-2.8,5c0.3,2.8-0.1,5.5-1.2,8.1c-0.2,0.6-0.3,1.2-0.4,1.9
	c-0.6,2-0.3,4,0.9,5.7c1.3,1.8,2.5,3.7,4,5.4c3.4,3.9,6.9,7.7,10.3,11.6c2.7,3.1,6,4.7,10,4.9c1.1,0.1,2.2,0,3.4,0
	c0,0.9,0,1.7,0,2.4c-0.1,2.1-0.4,4.3-0.4,6.4c-0.1,2.9,0.2,5.7,3.7,6.6c-0.6,1.5-1.2,2.8-1.7,4.1c-5.1,13.2-10.2,26.3-15.3,39.5
	c-2.5,6.4-4.5,13-5.5,19.8c-0.9,6.5-1.7,13-2.6,19.5c-0.7,5.5-0.2,6.5,5.1,8.2c8.1,2.6,16.3,5.1,24.4,7.7c0.5,0.2,1,0.4,1.5,0.6
	c0.1,2,0.1,3.8,0.3,5.6c0.6,5.8,1.8,11.5,3.4,17.1c2.6,9.4,4.2,19,3.5,28.8c-0.2,2.3-0.3,4.6-0.5,6.9c-0.7,10.2-1.5,20.4-3.1,30.5
	c-2,12.7-3.1,25.5-3.1,38.4c0,1.8,0.1,3.7,0.3,5.5c0.9,7.1,2.8,14.1,4.9,20.9c1.3,4.3,2.1,8.7,2.6,13.1c-1.6,1.8-1.7,1.8-2.1,4.2
	c-0.2,1.5-0.3,3.2-0.1,4.7c0.4,3.6,1.1,7.1,1.5,10.7C235.6,674.1,236.3,678.6,239.4,682.4z"/>
<path d="M239.4,682.4c-3.1-3.8-3.8-8.2-4.3-12.8c-0.4-3.6-1.1-7.1-1.5-10.7c-0.2-1.6-0.2-3.2,0.1-4.7c0.4-2.4,0.5-2.4,2.1-4.2
	c-0.5-4.4-1.2-8.8-2.6-13.1c-2.1-6.9-4-13.8-4.9-20.9c-0.2-1.8-0.3-3.7-0.3-5.5c-0.1-12.9,1-25.7,3.1-38.4
	c1.6-10.1,2.4-20.3,3.1-30.5c0.2-2.3,0.3-4.6,0.5-6.9c0.6-9.8-0.9-19.4-3.5-28.8c-1.6-5.6-2.7-11.3-3.4-17.1
	c-0.2-1.8-0.2-3.6-0.3-5.6c-0.4-0.2-0.9-0.4-1.5-0.6c-8.1-2.6-16.3-5-24.4-7.7c-5.3-1.7-5.8-2.7-5.1-8.2c0.8-6.5,1.7-13,2.6-19.5
	c0.9-6.8,3-13.4,5.5-19.8c5.1-13.2,10.2-26.3,15.3-39.5c0.5-1.3,1.1-2.6,1.7-4.1c-3.5-1-3.8-3.8-3.7-6.6c0.1-2.1,0.3-4.3,0.4-6.4
	c0-0.8,0-1.6,0-2.4c-1.2,0-2.3,0.1-3.4,0c-4-0.2-7.3-1.8-10-4.9c-3.4-3.9-6.9-7.7-10.3-11.6c-1.5-1.7-2.7-3.5-4-5.4
	c-1.2-1.7-1.4-3.7-0.9-5.7c0.2-0.6,0.2-1.3,0.4-1.9c1.1-2.6,1.5-5.3,1.2-8.1c-0.2-2.1,0.9-4,2.8-5c1.5-0.8,1.9-2,2.1-3.4
	c0.9-7.1,1.8-14.2,2.5-21.4c1.1-11.5,3.1-22.9,5.9-34.2c0.6-2.5,1.3-4.9,2.2-7.3c0.5-1.4,1.5-2.6,2.2-3.9c0.3-0.6,0.9-1.2,1-1.8
	c0.9-6.3,3.9-11.6,7.4-16.7c1.9-2.9,3.7-6,5.6-8.9c1.1-1.7,1.7-3.6,1.8-5.6c0.5-5.6,1.9-11,4-16.2c0.5-1.3,0.6-2.2-0.5-3.2
	c-1.2-1.1-2.1-2.4-3.2-3.5c-2.1-2-4-4.1-5.2-6.8c-1-2.3-1.3-4.7-1.4-7.2c-0.1-4.9-0.6-9.7-1-14.6c-0.4-4.2-0.8-8.4-1.3-12.6
	c-0.3-3,0.5-5.5,2.5-7.7c1.3-1.3,2.5-2.7,3.9-3.9c2.9-2.5,4.8-5.3,5.4-9.2c0.7-4.5,2.2-8.8,3.3-13.2c0.3-1.1,0.3-2.2,0.3-3.3
	c0-1.4-0.1-2.7-0.2-4.1c-0.1-2.6,1.1-4.5,3.2-5.8c4.1-2.5,8.6-3.9,13.5-3.1c1.5,0.2,2.9,0.9,4.2,1.6c2.5,1.3,2.4,1.4,5.4,0.7
	c0.2-1.4,0.4-2.9,0.7-4.4c0.7-3.4,2.4-5,5.9-5c3.2,0,6.4,0.2,9.5,0.6c4.4,0.5,8.7,1.1,13.1,0.4c1.4-0.2,2.9-0.2,4.3-0.1
	c3.1,0.1,5.8,1.2,7.9,3.5c1,1.1,2,2.3,2.8,3.5c1.8,2.8,4.2,5,7.2,6.5c1.5,0.8,2.8,1.8,4.1,2.9c2.2,1.9,3.6,4.2,4.6,6.9
	c0.8,2.1,1.7,4.4,3.1,6.2c4,5.3,4.8,11.2,3.3,17.5c-0.5,2.2-0.7,4.6-2.2,6.5c-0.4,0.5-0.4,1.4-0.4,2.1c-0.4,5-0.7,10-1,15
	c0,0.6,0.1,1.3-0.2,1.9c-1.1,3.1-0.6,6.1-0.2,9.2c0.8,7.1,0.9,14.2,0.8,21.3c-0.1,7.4-2,14.4-4.9,21.1c-0.4,0.9-0.9,1.7-1.4,2.5
	c1.2,1,2.3,2,3.5,2.9c0.4,0.3,1,0.3,1.5,0.4c0.9,0.3,1.9,0.4,2.6,0.9c3.1,2.4,6.1,4.9,8.7,8c0.6-0.2,1.3-0.4,1.9-0.6
	c2.3-0.9,4.5-1,6.4,0.9c0.4,0.4,0.9,0.7,1.4,0.8c6.8,2,11.2,6.9,14.4,12.8c2.3,4.3,3.6,9.1,4.2,13.9c1.7,12.4,4.6,24.5,7.6,36.5
	c1.5,6,3.2,11.9,5,17.7c1.8,5.7,2.8,11.5,3.3,17.4c0.5,5.7-0.8,11.1-3,16.3c-0.7,1.8-1.6,3.5-2.8,5c-0.7,1-1.9,1.8-3,2.2
	c-1.6,0.6-3.4,0.8-5.1,1.1c-1.2,0.2-2.4,0.3-3.6,0.5c1.8,3.9,3.3,7.8,5.2,11.4c4.1,8,6,16.5,5.8,25.4c-0.2,6.7-0.6,13.4-0.8,20.2
	c1.3,1.2,2.7,2.5,4.1,3.8c3.9,3.5,5.4,8.2,6.2,13.2c0.7,4.4,1,8.9,1.4,13.3c0.1,1.6-0.3,3-1.2,4.3c-0.3,0.5-0.7,1.1-0.6,1.7
	c0.5,5.3-0.4,10.5-1.8,15.6c-1.1,3.7-2.6,7.3-4,11c-0.2,0.4-0.4,0.8-0.7,1.3c-2.2,3.6-3.2,4-7.3,2.7c-3.1-1-6.2-1.9-8.8-4.2
	c-0.4-0.3-1.3-0.4-1.7-0.2c-2.3,0.9-4.8,1.2-6.5,3.3c-0.9,1.1-2.1,1-3.3,0.3c-1.5-0.8-3.1-1.6-4.8-2.4c0,3.2,0.1,6.1,0,8.9
	c-0.2,6.1-0.6,12.1-0.7,18.2c-0.2,8.2,0.1,16.5,1.8,24.5c1,4.8,2.3,9.4,3.4,14.2c2,8.8,2.6,17.8,3.3,26.8c0.4,6,0.7,12-0.1,17.9
	c-0.7,5.3-1.7,10.5-2.6,15.8c-0.5,3.2-1.1,6.5-1.6,9.7c-0.1,0.7,0,1.4,0.2,2.1c0.3,1.8,1,3.6,1,5.3c0.1,2.9-0.3,5.9-0.4,8.8
	c-0.2,4.7-0.5,9.4-0.7,14.1c-0.1,1,0.1,1.7,1,2.5c0.7,0.6,1.1,1.7,1.3,2.7c0.7,2.8,1.3,5.6,1.9,8.5c0.7,0.3,1.5,0.6,2.1,0.9
	c2.3,1.3,3.4,3.2,3.5,5.9c0,0.5-0.1,1-0.1,1.4c0,2.4,0,2.4-2.3,3.2c0.1,0.9,0.2,1.8,0.4,2.7c0.6,3.6-0.1,7-1.8,10.2
	c-0.8,1.6-2,2.7-3.8,3c-5.5,0.8-9,4.5-12.2,8.6c-0.3,0.4-0.5,0.8-0.8,1.2c-6.8,11.2-19.5,20.7-32.2,24.1c-6.4,1.7-12.6,1.1-18.9-0.8
	c-2.4-0.7-3.7-2.1-4.3-4.6c-0.9-4.1-1.2-8.2-0.6-12.3c0.3-2.4,1.3-4.4,2.9-6.2c4.6-5.1,9.1-10.3,13-16c3.5-5.2,6.6-10.7,9.2-16.4
	c-2-3.1-1.8-5.2,0.9-10.2c-1.8-1.7-1.1-3.6-0.3-5.6c0.9-2.1,2.7-2.8,4.6-3.3c0.8-4.3,1.5-8.6,2.2-12.8c0.4-2,0.8-3.9,1.2-5.9
	c0.4-1.9,1.3-3.6,2.8-4.9c1.4-1.1,1.6-2.3,1.3-4c-1-6.2-1.5-12.5-1.6-18.8c-0.1-9.7-0.5-19.3-1-29c-0.1-2.6-0.6-5.2-1.1-7.8
	c-0.6-3.3-2.2-6.1-4.1-8.8c-1.8-2.5-3.6-5.1-5.1-7.8c-3.3-5.9-4.5-12.2-4.1-18.9c0.2-3.4,0.4-6.8,0.6-10.3c0.2-4.4-0.5-8.6-1.6-12.8
	c-2.1-7.9-4.2-15.9-6.3-24c-1.9-0.1-4.1-0.3-6.2-0.5c-0.8-0.1-1.3,0.4-1.6,1.2c-0.3,1.1-0.7,2.3-1.1,3.4c-1,2.7-2.9,4.4-5.9,4.4
	c-0.4,0-0.8,0.1-1.2,0.2c-0.1,0-0.1,0.1-0.4,0.3c0.1,0.8,0.2,1.8,0.3,2.9c0.3,7.4,0.7,14.8,0.9,22.2c0.2,7.6,0.2,15.2,0.3,22.7
	c0,5.7-0.9,11.3-2.1,16.8c-2.5,11.6-4.9,23.3-5.7,35.2c-0.3,4.9-1.1,9.8-1.9,14.7c-1.2,7.2-1.5,14.4-1.7,21.7c-0.1,4.9,0,9.7,0,14.7
	c2.3-0.2,3.6,1.3,4.1,3.3c0.7,2.8,1.2,5.6,1.4,8.5c0.2,4.2,0.1,8.4,0.1,12.5c2.3,1.4,2.4,1.5,2.4,3.9c0,1.4-0.2,2.7-0.2,4.1
	c0,1.7-0.5,2.9-2,3.8c-0.4,0.2-0.7,0.7-1.3,1.3c0.8,0.1,1.1,0.2,1.5,0.2c2,0.1,2.5,0.4,2.6,2.3c0.1,3.1,0.6,6.2-0.8,9.2
	c-0.3,0.6-0.1,1.4,0,2.1c0.8,4.8,1.8,9.6,2.5,14.4c0.9,6.9,1.7,13.8,2.4,20.7c0.3,2.4,0.6,4.8,1.1,7.3c1.3,5.7-0.5,10.4-5.3,14.1
	c-6.5,4.9-13.7,7-21.8,6.3c-5-0.5-9.2-2.5-12.8-5.9c-2.4-2.2-3.6-5.1-4-8.2c-0.7-5.6-1.1-11.3-0.1-16.9c0.9-5.4,1.5-10.9,2.4-16.3
	c0.6-3.5,1.4-6.9,2.1-10.3c0.3-1.4,0.5-2.8,0.7-4.5c-3.2-0.6-3.4-3.1-3.5-5.7c0-1-0.3-2-0.2-3c0-0.7,0.3-1.4,0.7-2
	C236.6,685.6,237.9,684.1,239.4,682.4z M319.4,713.5c-0.4,0.1-0.7,0.2-1.1,0.4c-3.6,1.7-7,3.8-10.8,5.1c-9.8,3.5-19.6,4-29.3-0.6
	c-0.1,0-0.3,0.1-0.5,0.1c0.2,0.6,0.4,1.2,0.6,1.7c0.8,3,2.9,4.3,5.7,4.6c3.2,0.3,6.5,0.9,9.7,0.7c9.8-0.7,18.1-5,25.4-11.5
	C319.3,713.9,319.3,713.6,319.4,713.5c0.2-0.1,0.6-0.2,0.8-0.3c3.7-3,7.3-6,9.3-10.4c0.3-0.7,0.8-1.4,1.2-2c3.5-4.8,7.6-8.8,13.7-10
	c0.7-0.1,1.6-0.6,1.9-1.2c1.9-3.2,2.5-6.5,1.3-10.2c-1.6,3-3.8,5.5-6.4,7.6c-2.4,2-4.9,4.1-7.3,6.1c-2.5,2.1-4.5,4.5-5.9,7.4
	c-0.7,1.5-1.4,3-2.2,4.5c-1.5,2.9-3.3,5.6-6,7.7C319.7,712.9,319.6,713.2,319.4,713.5z M255.7,345.6c0.2,0.9,0.5,1.8,0.6,2.7
	c0.1,1.1-0.1,2.2,0,3.3c0.3,3.7-1.1,6.7-4.5,8.2c-3.5,1.6-7.2,3-10.9,4.3c-2.4,0.9-4.9,0.7-7.3,0.4c-3.2-0.4-6.5-0.6-9.4-0.8
	c-1.5,1.3-2.8,2.5-4.2,3.7c0,2.2,0,4.5,0,6.8c0,1.4-0.1,2.7,0,4.1c0.2,2.9,0.5,3,3.3,3.3c2.3,0.2,4.6,0.5,6.8,1
	c5.3,1.2,10.5,2.6,15.8,4c4.8,1.2,9.7,1.9,14.6,2.1c1.9,0.1,3.8,0,5.8,0c-0.2-0.6-0.4-1.1-0.5-1.7c-0.2-0.6-0.4-1.2-0.5-1.9
	c-0.7-7.2-0.2-14.4,2.5-21.2c1.5-3.7,2.8-7.4,3.6-11.4c0.3-1.5,0.6-3.1,0.9-4.6c-1.5-0.4-3.2,0.7-3.9-0.9c-0.5-1.1-0.3-2.5-0.5-3.6
	c-1.1-0.3-2.6-0.3-3.4-1.1c-0.9-0.8-1.2-2.2-1.9-3.6c-1.9,0-2.1-2.1-3.4-3.8c0.3,3.6-1.1,6.2-2.7,8.7
	C256.3,344.4,256.1,345,255.7,345.6c-0.5,0.2-1,0.3-1.5,0.5c-2.7,1-5.5,1.8-8.4,2.1c0.6-0.5,1.3-0.9,2-1.2c1.3-0.5,2.6-0.8,3.8-1.3
	c1.5-0.5,3.1-1.2,3.9-2.6c1.1-2.1,2-4.3,2.8-6.5c0.4-1,0.3-2-0.5-3.1c-2.8,3.2-6.2,5-10.4,5.1c0.6-0.4,1.2-0.7,1.8-1
	c2.6-1.2,5.3-2.4,7.1-4.7c0.9-1.2,1.6-2.5,2.2-3.9c0.2-0.5,0-1.6-0.4-1.9c-0.4-0.3-1.4-0.1-1.9,0.2c-1.2,0.8-2.3,1.7-3.4,2.6
	c-2.5,2.2-5.3,3.2-8.5,3.2c-1.4,0-2.9,0-4.3,0c-2.1-0.1-3.9,0.6-5.5,1.9c-0.8,0.6-1.7,1.2-2.5,1.9c-3.5,2.7-7.4,4.3-11.9,4.4
	c-0.8,0-1.6,0.2-2.3,0.6c-4.4,2.5-7.4,5.9-8.3,11.1c-0.6,3.5,0.3,5.5,3.5,6.9c3.3,1.4,6.5,2.6,10.3,2.3c3.9-0.3,7.8,0.3,11.7,0.6
	c1,0.1,1.9,0.2,2.9,0.1c4.6-0.7,9-2,13.1-4.2c3-1.6,4-4.3,4.2-7.6c-1.9,0.7-3.4,2.1-5.8,2.5c1.5-1.2,2.5-2.1,3.6-2.9
	C254.6,349.4,255.6,347.7,255.7,345.6z M222.7,384c-1,3.4-1.9,6.8-3.1,10.1c-4.1,11.3-8.3,22.6-12.4,33.9c-1.4,3.9-2.8,7.8-3.9,11.8
	c-2.5,9.7-3.2,19.7-4.5,29.5c-0.2,1.1,0.3,1.9,1.3,2.2c1.4,0.5,2.8,1.1,4.3,1.5c10.9,3.3,21.8,6.7,32.7,10c0.2,0.1,0.5,0,0.8,0
	c0.1-0.6,0.2-1.3,0.2-1.9c0.4-3.9,0.6-7.8,1.1-11.7c1.7-13.3,1.9-26.7,2.2-40.1c0.2-7.9,0.3-15.8,0.5-23.7c0.1-2.1,0.4-4.2,0.6-6.2
	c0.2,0,0.4,0,0.6,0c0.1,2.3,0.1,4.5,0.1,6.8c0.1,10.3,0.3,20.6,0.2,30.9c-0.1,8-0.3,16-0.8,23.9c-0.5,8.2-1.5,16.4-2.2,24.6
	c-0.4,4.7,0,5.1,4.7,5.6c0.1,0,0.2,0,0.2,0c8.7,1,17.5,1.4,26.3,1c5.6-0.3,6.1,0.3,8-6.3c1.5-5.2,1.9-10.5,2.4-15.8
	c1.1-13.9,1.1-27.9,1.4-41.9c0.1-2.7,0.1-5.5,0.2-8.2c3,21.5,2.5,43-0.6,64.3c2.2,0,4.1,0,6,0c1.9,0,3.8,0.2,5.7,0.2
	c-0.3-5.4-0.6-10.6-0.8-15.8c-0.2-5.2-1.1-10.4-0.5-15.6c0.3,0.6,0.5,1.1,0.6,1.7c1.3,8.2,2.2,16.4,2.6,24.7
	c0.1,1.4,0.3,2.9,0.6,4.3c0.2,1.2,1,2,2.2,2.1c5,0.7,10,1.1,14.9-1c5.9-2.5,11.9-4.8,18.2-6c0-2.1-0.1-4.1,0-6
	c0.1-3.5,0.5-7,0.4-10.5c-0.1-6.5-0.3-12.9-0.6-19.4c-0.2-5.9,0-11.8,0.7-17.7c0.5-4.2,0.7-4.5,4.8-5.4c-1.9-6.2-2.4-12.6-3.2-19
	c-0.5-4.1-1.5-8.1-2.8-12.2c-1.2-0.2-2.4-0.6-3.6-0.6c-8.7,0.1-17.4,0.5-26,1.7c-5.9,0.8-11.7,1.4-17.7,0.7
	c-3.5-0.5-6.9-1.1-10.4-1.8c-1.8-0.3-3.5-0.9-5.5-0.6c0,0.9,0,1.8,0,2.7c-0.7,0.1-1.2,0.2-1.8,0.2c-4.6-0.2-9.3-0.1-13.8-0.9
	c-8-1.5-15.8-3.7-23.7-5.6C227,384.2,224.9,383.6,222.7,384z M250.3,190.3c-0.2,0-0.5,0-0.7,0c0.2,17.7-2,35.1-4.7,52.5
	c0.2-7.4,0.6-14.8,1.1-22.2c0.9-11.8,1.6-23.6,1.6-35.4c0-4.1,0.1-8.3,0.5-12.4c0.6-6.5,1.8-12.8,5.3-18.5c0.1-0.1,0-0.4,0-0.6
	c-1.5,0.6-2.9,1.2-4.3,1.7c-0.1-0.2-0.1-0.3-0.2-0.5c0.7-0.4,1.5-0.9,2.2-1.3c6.7-3.4,13.4-6.7,20.1-10.1c7.9-3.9,14.6-9.4,20.3-16
	c0.9-1,1.6-2.1,2.6-3.4c-4.2,0.1-7.9,0.1-11.6,0.3c-4.5,0.3-8.9,0.8-13.3,1.3c-1.1,0.1-2.2,0.5-3.1,1.1c-3.1,2.1-6,4.4-9.1,6.6
	c-3.7,2.6-7.5,5.2-11.1,7.9c-3.7,2.8-6.2,6.6-7.9,10.9c-2.7,7-3.6,14.4-3.9,21.8c-0.2,4.1,0.2,8.3,0.3,12.4
	c0.2,6.8-0.5,13.5-3.3,19.9c-3.1,7.1-4.4,14.7-4.6,22.4c-0.2,7-0.3,14-0.5,21.1c-0.1,4.9-0.3,9.8-0.5,14.7c-0.7-5.7-1-11.5-1.1-17.2
	c-0.2-5.7-0.2-11.5-0.3-17.7c-2.3,3.9-4.4,7.4-6.5,10.8c-5.1,8-6.8,16.6-5.1,25.9c1.4,7.7,3,15.3,4.8,22.9
	c1.3,5.8,1.5,11.5,0.2,17.3c-0.1,0.4-0.3,0.8-0.4,1.2c-0.3-1.3-0.3-2.6-0.3-3.8c-0.1-1.2,0.1-2.4-0.4-4.1c-0.3,1-0.5,1.4-0.6,1.9
	c-1,3.6-3.1,6.5-6.1,8.6c-1.2,0.9-2.6,1.6-3.8,2.5c-0.8,0.6-1.6,1.2-2.6,2.1c1.4,1,2.6,1.8,3.7,2.7c3.3,2.8,7.2,3.5,11.4,3.5
	c0.7,0,1.4-0.1,2.2,0c3.5,0.2,6.4-1.2,9-3.3c3.2-2.6,5.7-5.8,7.9-9.2c4.3-6.9,7.2-14.4,9.5-22.2c1.7-5.9,3-11.9,4.7-17.8
	c2.5-8.7,5.2-17.4,7.9-26.1c1.8-5.9,2.8-12,2.3-18.2c-0.4-5.1-0.8-10.2-1.1-15.3c-0.1-1.5-0.5-2.5-1.5-3.5
	c-3.6-3.3-5.9-7.5-7.5-12.1C251,192.2,250.6,191.2,250.3,190.3z M290.4,131c-0.6,0.7-0.9,1.3-1.4,1.7c-4.5,5.1-9.8,9.2-15.8,12.2
	c-4.2,2.1-8.4,4.2-12.9,5.7c-3.9,1.4-6,4-7.4,7.5c-0.4,1-0.8,2.1-1.1,3.2c-1.9,7.6-2.2,15.3-2.1,23.1c0,1.1,0.5,2.2,0.9,3.2
	c0.7,1.9,1.7,3.6,2.3,5.5c2.3,6.7,6.7,11.7,12.6,15.4c4.7,3,9.9,5.1,15.5,6c1.8,0.3,3.5,0.8,5.2,1.2c-9.1,1.1-16.7-3-24.6-7.6
	c0.1,1.5,0.2,2.6,0.3,3.6c0.6,5.5,1.1,10.9,1.7,16.4c0.1,0.6,0.3,1.3,0.6,1.7c0.9,1,1.2,2.2,1.3,3.5c0.1,0.8,0.2,1.6,0.4,2.6
	c3,0.3,5.9,0.8,8.8,0.9c5.3,0.1,10.7,0,16,0c0.2-0.4,0.3-0.8,0.5-1.1c1.4-3.1,2.4-3.5,5.6-2.6c1.7,0.5,3.4,0.7,5.1,1
	c1.9-2.4,3.6-4.7,5.3-6.8c-1.5-1.5-3.1-2.6-4.3-4.2c-2.1-2.8-2.9-6.2-2.7-9.7c0-0.6-0.1-1.1-0.1-1.8c-1.3,0.7-2.4,1.2-3.5,1.8
	c-0.1-0.1-0.2-0.3-0.3-0.4c4.9-4,8.2-9.3,11.2-14.8c2.9-5.3,4.5-10.9,4.1-17c-0.4-6.7-0.8-13.4-1.2-20.1c-0.1-1.1-0.3-2.3-0.9-3.2
	c-2.9-4.2-5.7-8.5-8.9-12.4c-2.6-3.2-5.2-6.3-7.3-9.7C292.4,134.4,291.6,133,290.4,131z M291.8,485.6c0.1,1,0.1,1.3,0.2,1.6
	c2.2,7.5,4.5,15,6.7,22.4c1.3,4.2,1.8,8.6,1.7,13c-0.1,2.8-0.3,5.6-0.5,8.4c-0.8,8.5,0.8,16.4,5.8,23.4c1.1,1.6,2.2,3.1,3.3,4.7
	c2.2,2.9,3.7,6.2,4.2,9.8c0.6,4.1,1.1,8.2,1.3,12.3c0.3,7.1,0.5,14.2,0.5,21.3c0,1.8,0.7,2.6,2.2,3.2c3.6,1.5,7.3,2.3,11.1,3
	c3.2,0.6,6.2,0.1,9.2-0.9c1.5-0.5,2.9-1.2,4.4-1.8c0.9-0.3,1.3-0.9,1.5-1.9c0.9-5,1.7-10.1,1.5-15.2c-0.3-6.5-0.7-12.9-1.1-19.3
	c-0.5-8.3-1.8-16.5-4.1-24.5c-2.5-9-3.7-18.1-3.6-27.4c0.1-7.4,0.7-14.8,1.1-22.2c0.2-3.4,0.5-6.8,0.7-9.8c-2-1.6-3.7-2.9-5.5-4.2
	c-0.8,0.3-1.8,0.6-2.8,0.9c-4,1.4-8.1,2.5-11.9,4.2c-5.9,2.6-11.8,3-18,2.1c-0.9-0.1-1.7-0.5-2.5-0.8
	C295.6,487.2,293.9,486.5,291.8,485.6z M228.7,483.5c0.1,1.4,0.1,2.6,0.4,3.7c1.3,5.8,2.4,11.7,3.9,17.5c2.3,9,4.6,18,4.1,27.4
	c-0.5,10.2-1.3,20.4-2.3,30.5c-1,9.4-2.5,18.7-3.7,28c-0.4,3.5-0.6,7.1-0.9,10.5c2.9,1.7,6.4,2.4,10.4,2.1
	c6.2-0.5,12.4-1.5,18.4-3.1c1.9-0.5,3.8-1.1,5.7-1.6c0.5-4.7,0.7-9.2,1.4-13.6c1.1-7.2,2.4-14.3,3.8-21.4c1.7-8.5,3.1-16.9,2.9-25.6
	c-0.3-13.3-0.2-26.7-0.3-40c0-0.9,0-1.9,0-2.9c-0.6,0-1-0.1-1.4-0.1c-8.1,0.4-16.1-0.1-24.1-0.9c-2-0.2-4-0.5-5.9-1.1
	c-2.6-0.8-3.5-2.3-3.5-5c0-1,0-2,0-3C234.5,484.5,231.7,484,228.7,483.5z M336.7,323.5c0.6,0.8,1.3,1.8,2,2.9
	c0.9,1.3,1.9,1.7,3.5,1.3c4-0.9,8.1-1.1,12.1-0.7c2.8,0.3,5.7,0.9,8.4,1.8c3.3,1.1,4.7,4,5.3,7.2c-0.7-0.5-1.2-1.1-1.7-1.6
	c-1.6-1.8-3.3-3.5-5.7-4.2c-6.1-1.6-12.3-2-18.4,0.1c-1.4,0.5-2.9,0.8-4.4,1.1c-4.8,0.8-9.5,0.4-14.3,0.2c-0.6,0-1.1,0.1-2.2,0.1
	c1.1,1.6,1.9,2.9,2.9,4c1.7,2.2,3,4.5,3.8,7.1c0.6,2.1,0.5,4.1-0.5,6c-1.1,2-2.2,4-3.4,6.1c-0.9,1.6-2.1,3-3.7,4
	c-0.6,0.4-1.2,0.9-1.8,1.4c1.7,1.8,2.8,2.3,4.6,1.4c1.6-0.8,3.2-1.8,4.6-2.9c1.7-1.4,3.3-3.1,4.9-4.6c0.4-0.3,0.8-0.6,1.1-0.9
	c-1.3,3.3-3.3,6-6,8.5c0.8,0.1,1.3,0.1,1.7,0.2c3.1,0.2,6.2,0.2,9.3,0.6c6,0.7,11.9,0.5,17.9,0c2.4-0.2,4.8-0.5,7.1-0.8
	c2.7-0.3,4.9-1.6,5.9-4c1.7-3.9,3.3-8,3.6-12.3c0.5-6.9-0.5-13.7-2.6-20.3c-2.7-8.2-4.9-16.5-6.7-24.9c-2.1-9.4-4.2-18.8-6.2-28.3
	c-0.9-4-1.6-8-2.7-11.9c-2-7-6.6-12.1-12.6-16c-0.5-0.3-1.3-0.4-2-0.5c-2.2-0.1-3.3,1.3-4,3.1c-1.3,3.3-2,6.7-2,10.3
	c0.1,6.9,0.3,13.7,0.7,20.6c0.5,10,1.3,19.9,0.3,29.9c-0.4,3.6-0.4,7.2-0.6,10.7c0,0.7,0.1,1.5,0.2,2.2c0.2,0.1,0.4,0.1,0.6,0.2
	c1.6-2.6,3.2-5.2,4.9-7.8c1.7-2.5,3.5-5,5.2-7.4c1.8-2.4,3.7-4.8,5.7-7c0.2,0.1,0.3,0.2,0.5,0.4C347.2,307,342,315.1,336.7,323.5z
	 M330.5,241.4c-0.7-0.4-1.4-0.7-1.9-1.1c-1.1-1.1-2.3-1.1-3.7-0.7c-3.4,1-6.8,1.8-10.2,2.7c-4.3,1.1-8.6,1.8-13,1.3
	c-0.5,0-1,0-1.6,0.1c-0.1,2-0.1,3.8-0.4,5.6c-1.1,7-2.6,13.9-5,20.7c-2.7,7.5-5.3,15-7.2,22.8c-1.6,6.8-3.4,13.6-5.1,20.4
	c-0.2,1-0.2,2-0.3,3.1c0.7,0,1.1,0,1.5,0c2.7-0.3,5,0.7,7.1,2.3c1.9,1.5,3.8,2.9,5.7,4.4c2.9,2.2,6.1,3.8,9.5,4.9
	c1.8,0.6,3.6,1.7,5.6,0.6c0.4-0.2,1.1-0.1,1.7,0c1.6,0.3,3.1,0.7,4.7,1c0.5,0.1,1.1,0.4,1.3,0.2c1.5-1.4,3.4-0.6,5.2-1
	c0-1,0-2,0-2.9c0-5.9,0-11.8-0.1-17.7c-0.1-6.1-0.1-12.3-0.6-18.4c-0.6-8.3-1-16.6-0.4-24.9C323.8,256.5,325,248.3,330.5,241.4z
	 M318.6,357.4c-3-1.1-5.7-2.2-8.4-3.2c-1.5-0.6-3-1.2-2.8-3.4c-2.3,0.1-4.5,0.2-6.6,0.4c-5,0.4-9.9-0.1-14.3-2.8
	c-0.7-0.4-1.4-0.8-2.1-1.1c-3.5-1.4-7-1.1-10.5,0c-0.1,4.7-0.7,9.2-2.3,13.5c-0.2,0.6-0.2,1.3,0,1.9c2.1,7.3,1.4,14.5-0.8,21.6
	c-0.2,0.5-0.3,1-0.5,1.8c2.4,0.4,4.7,0.7,7,1.1c5.8,1,11.5,1.6,17.4,1c6.6-0.7,13.2-1.5,19.7-1.9c5.3-0.3,10.6-1,15.9,0.2
	c0.1,0,0.3-0.1,0.6-0.3c-1.1-3.6-2.4-7.2-3.3-10.9c-0.9-3.7-1.4-7.4-2.1-11.4c-0.7,0.1-1.5,0.3-2.2,0.3c-0.9,0.1-1.9,0.2-2.8,0
	C316.7,363.1,315.9,360.5,318.6,357.4z M345.7,676.7c-0.4-0.2-0.6-0.3-0.8-0.3c-0.5-0.1-1.1-0.2-1.6-0.3c-6.1-1-12.1-2-17.7-4.8
	c-0.6-0.3-1.4-0.4-2-0.4c-1.1-0.1-2.2,0-3.3,0c-5.7,0.1-11.4,0.1-17.2,0.2c-0.2,0.4-0.4,0.7-0.5,1c-2.2,6.5-5.4,12.4-9.2,18
	c-3.6,5.3-7.8,10.1-12.1,14.8c-1.4,1.6-2.2,3.3-2.4,5.3c-0.1,1.2-0.1,2.4-0.3,3.6c-0.2,1.5,0.5,2.2,1.8,2.7c4,1.8,8.2,2.6,12.6,2.6
	c7.9-0.1,15.2-2.4,22.1-6.1c3.4-1.9,6.2-4.4,8-7.9c0.6-1.2,1.3-2.4,1.8-3.6c2-4.6,5-8.3,8.8-11.4c2.4-1.9,4.8-4,7.1-6
	C342.9,682,344.6,679.7,345.7,676.7z M268.6,696.9c-8.1-0.5-16-0.7-23.6-3.6c-1.5,1.1-3.2,2.3-4.8,3.4c-0.7,0.5-0.8,1.1-0.8,1.8
	c0.1,2.1,0.2,4.2-0.1,6.2c-1,7.3-2,14.7-3.2,22c-0.9,5.3-1.5,10.6,0.8,15.7c0.9,2,2.1,3.6,4,4.5c1.4,0.6,2.8,1.2,4.3,1.5
	c8.7,1.9,16.8-0.4,24.6-4c2.2-1,3.4-2.9,3.7-5.3c0.2-2,0.4-4,0.2-6c-0.8-8.2-1.8-16.3-2.8-24.5C270.2,704.7,269.3,700.8,268.6,696.9
	z M220.9,323c0.3,5.6,0.6,10.9,0.8,16.5c0.9-0.3,1.7-0.3,2.4-0.7c2-1.1,4.2-2,6-3.4c3.8-3.1,8-4.7,13-4.2c3.6,0.3,6.7-1,9.5-3.3
	c0.8-0.7,1.7-1.2,2.6-1.7c2.4-1.3,3.3-1.1,5.2,1.2c2.4-3.8,5.1-7.2,9.6-8.8c-0.5-0.9-0.9-1.6-1.1-2.4c-0.5-1.7-1.4-3.5-1.4-5.3
	c-0.1-3.9-0.9-7.6-2.1-11.2c-2.8-8.1-4-16.4-4.2-24.9c-0.3-9,0.4-18,1.7-26.9c0.3-2,0.5-3.9,0.7-6.1c-0.8-0.1-1.4-0.1-2.1-0.2
	c-2.3,7.8-4.8,15.4-6.8,23.1c-2.4,9.2-4.4,18.5-7.5,27.4c-2.6,7.6-5.7,14.9-10.7,21.3C232.5,318.4,228.2,322.9,220.9,323z
	 M232.9,125.5c-0.3,0.9-0.4,1.3-0.5,1.8c-0.8,4.1-1.7,8.3-2.4,12.4c-0.4,2.3-1.3,4.3-2.9,5.9c-1.1,1.2-2.3,2.2-3.4,3.3
	c-1.3,1.3-2.6,2.6-3.8,4c-1.2,1.4-1.6,3.1-1.4,4.9c0.4,3.6,0.8,7.1,1.1,10.7c0.5,5.6,1.5,11.2,1.2,16.9c-0.3,4.1,1.2,7.5,3.9,10.4
	c1.8,1.9,3.8,3.6,6.1,5.6c2.6-9.1,0.9-18,2-26.7c-4.5-1.1-5.7-2.8-6.4-7.8c-0.1-0.8,0-1.6,0-2.4c0.2-5.3,1.7-10.2,3.7-15
	c0.6-1.4,0.9-2.9,1.4-4.3c1.6-5.3,4-10,8.3-13.7c11.3-9.7,24.4-15.8,38.8-19.5c7.1-1.8,13.5,0.7,19.8,3.5c0.8,0.4,1.5,1,2,1.6
	c0.7,0.8,1.4,1.6,1.6,2.6c0.3,1.3,1,1.9,1.9,2.5c6.4,4.7,11.4,10.7,14.4,18.1c1,2.6,1.9,5.2,2.9,7.8c0.2,0.4,0.3,0.8,0.5,1.2
	c1-2.9,1.5-5.7,1.2-8.7c-0.2-2.7-1.5-5-3-7.2c-1.8-2.6-3.3-5.3-4.2-8.3c-0.8-2.4-2.3-4.4-4.3-5.9c-1.2-1-2.4-1.8-3.8-2.5
	c-2.9-1.5-5.2-3.6-7-6.4c-0.7-1.1-1.6-2.2-2.5-3.2c-1.8-2.2-4.2-3.3-7.1-3.4c-1.1,0-2.2,0-3.3,0.2c-5.1,0.8-10.2,0.6-15.2-0.2
	c-2.6-0.4-5.2-0.5-7.9-0.5c-2.6,0-3.6,0.9-4.2,3.4c-0.3,1.5-0.4,3.1-0.5,4.7c-2.7,0.8-5.4,1.2-8.3-0.2c-5.3-2.6-10.6-1.5-15.5,1.6
	c-1.9,1.2-2.7,2.9-2.5,5.1c0.2,1.7,0.3,3.3,0.5,5c0.2,2.1,0.4,4.2,0.7,6.2c-0.1,0-0.3,0.1-0.4,0.1
	C234.1,128.2,233.6,127.1,232.9,125.5z M230.2,603.5c-0.2,5-0.6,9.6,0.4,14.2c1.3,6.1,2.7,12.1,4.2,18.2c1,4.2,2.4,8.3,2.2,12.7
	c-0.1,2.6,0.9,4.2,2.7,5.7c0.7,0.6,1.4,1.3,2.2,1.8c3,1.7,6.1,2.8,9.5,1.2c2.9-1.4,5.5-3.3,7.7-5.6c1.3-1.3,1.9-2.8,2-4.7
	c0-4.9,0.3-9.9,0.3-14.8c0-8.1,0.5-16.1,1.8-24.1c0.4-2.2,0.6-4.4,0.9-6.8c-0.8,0.2-1.2,0.3-1.7,0.4c-3.9,0.9-7.7,2-11.6,2.7
	C244.1,605.7,237.2,606.7,230.2,603.5z M271.8,317.1c0.1-0.9,0.2-1.3,0.2-1.8c0.5-6.1,1.7-12,3.6-17.8c1.1-3.3,2.2-6.5,2.9-9.9
	c3.7-16.1,7.2-32.4,11.6-48.3c0.1-0.3,0-0.6,0-1c-8.1,1.8-16.1,1.2-24.2-0.8c-0.2,2.1-0.3,4-0.6,5.9c-1.8,11.4-2.7,22.8-2.1,34.3
	c0.3,6.2,1.2,12.4,3,18.4c1.3,4.3,2.4,8.6,2.9,13C269.5,311.8,270,314.4,271.8,317.1z M219.3,323.3c-0.4-0.2-0.6-0.4-0.8-0.4
	c-0.7-0.1-1.4-0.3-2.1-0.4c-4.8-0.7-9.2-2.8-13.3-5.1c-2.4-1.4-2.5-3.4-0.4-5.2c1.1-0.9,2.3-1.7,3.6-2.4c7.3-3.8,10.6-13.2,8.5-20.5
	c-2.9-10-4.8-20.2-5.1-30.6c0-0.2-0.3-0.3-0.6-0.7c-0.5,1.4-0.9,2.6-1.2,3.8c-0.6,2.7-1.2,5.5-1.8,8.2c-2.2,9.5-3.9,19.1-4.9,28.8
	c-0.8,8.6-1.4,17.2-4.5,25.4c-0.3,0.9-0.6,1.5-1.4,2.1c-2.2,1.5-2.7,3.5-1.8,6.1c3.7-2.6,7.6-4,12.1-3.3c4.7,0.7,9.6,3.2,11.3,6
	c-0.5-0.2-0.8-0.4-1.2-0.5c-2.9-1.2-5.7-2.5-8.6-3.6c-2.5-0.9-5.1-1-7.5-0.1c-4,1.5-7.4,3.5-7.9,8.5c-0.2,2.6-0.4,4.9,1.4,7
	c1.7,2,3.3,4.1,5.1,6.1c1.3,1.4,2.7,2.8,4,4.1c0.3,0.4,0.8,0.6,1.3,1.1c0.3-1.1,0.4-2,0.6-2.8c0.6-2.4,1.1-4.8,1.9-7.2
	c2.2-6,7.3-9.1,13.6-8.4c0.1,0,0.1-0.1,0.4-0.2c-0.5-0.9-1-1.9-1.4-2.9c0.3-0.2,0.8-0.3,0.8-0.5
	C219.3,331.5,219.3,327.3,219.3,323.3z M310.3,331.3c-2.7-0.8-5.1-1.4-7.4-2.2c-4.6-1.6-8.4-4.5-12.1-7.6c-2.9-2.4-5.9-3.7-9.7-2.8
	c-0.6,0.1-1.3,0.1-1.9,0.2c-8.8,0.7-13,2.9-18.6,9.8c-1.3,1.6-1.3,2.9,0.1,4.3c1.1-1.8,2.2-3.7,3.4-5.5c1-1.5,2.3-2.8,4.1-3.2
	c2.8-0.6,5.6-1.1,8.5-1.5c1.1-0.2,2.3-0.1,3.4-0.2c-0.6,0.6-1.2,0.8-1.9,1c-1.8,0.4-3.6,0.8-5.4,1.2c-6.4,1.6-6.4,1.6-9.6,7.4
	c-0.2,0.3-0.3,0.5-0.4,0.8c-0.4,1.1-0.8,2.3-1.1,3.4c0.1,0.1,0.3,0.2,0.4,0.3c0.5-0.3,1-0.6,1.5-0.8c1.5-0.8,2.8-2,4.4-2.4
	c4.1-1.1,8.2-1.8,12.4-2.6c0.8-0.2,1.7-0.2,2.5,1c-1,0.3-1.8,0.7-2.7,0.9c-3.2,0.7-6.5,1-9.6,1.9c-2.1,0.6-4,1.9-5.9,3.1
	c-1.1,0.7-1.1,1.6-0.2,2.7c0.7,0.9,1.6,1.4,2.7,1.2c0.8-0.1,1.6-0.3,2.3-0.6c3.9-1.2,7.9-2,12-2.3c1.1-0.1,2.2-0.2,3.2,1.1
	c-0.7,0.3-1.2,0.7-1.7,0.8c-1.2,0.2-2.4,0-3.6,0.3c-2.7,0.5-5.3,1.1-7.9,1.7c-1.2,0.3-2.1,2-1.7,3c0.6,1.6,1.7,0.4,2.6,0.4
	c0.1,0,0.2-0.1,0.2-0.1c5.6-1.9,10.9-1.8,16.1,1.4c3,1.9,6.4,2.3,9.9,2.1c2.7-0.2,5.4-0.5,8.1-0.6c1.4-0.1,2.1-0.7,2.6-2
	C311,341.7,310.6,336.4,310.3,331.3z M350.6,418.1c0.5,1.9,0.7,3.8,1.3,5.5c1.7,4.5,2.2,9.1,1.8,13.9c-0.2,2.3-0.5,4.6-1,6.9
	c-0.5,2.4-2,3.1-4.3,2.3c-1-0.3-1.9-0.9-2.8-1.3c-3.1-1.5-4.4-4-4.3-7.4c0.1-2.2,0-4.5,0-6.7c0-0.5,0-1.1-0.3-1.3
	c-1.9-1.7-2.1-4-2.4-6.3c-0.1-0.8-0.2-1.7-1.2-1.8c-1-0.1-1.9,0.3-2.2,1.5c-0.2,0.8-0.4,1.6-0.4,2.3c-0.1,4.9-0.4,9.9-0.3,14.8
	c0.1,7.7,0.4,15.3,0.4,23c0,4-0.5,8-0.7,11.9c0,1.5,0.2,3,0.6,4.4c0.5,1.8,1.6,2.3,3.7,2.5c-2.9-2.4-3-2.5-2.8-6.3
	c0-1,0.1-1.9,0.2-2.9c0.3-6.3,0.7-12.6,1-18.9c0.1-1.2,0.2-2.3,0.3-3.5c1.2,8.3,0.8,16.6,0,24.9c-0.2,2.4,0.5,3.9,2.6,4.8
	c2.3,0.9,4.7,1.6,6.9,2.6c2.6,1.1,4.6,0.1,6.4-1c0-2.3-0.3-4.4,0-6.4c1-6.4,2.1-12.8,3.4-19.1c2.5-11.6,1.5-23.2-0.8-34.7
	C355.4,419.7,353.2,418.1,350.6,418.1z M357.1,416.6c0.8-17.2,2-34.2-2-51c-4.3,0-8.4,0-12.7,0c0,0.6-0.1,1-0.1,1.4
	c-0.3,7.2-0.5,14.3-0.8,21.5c0,0.8,0.2,1.6,0.4,2.3c1.1,3.7,2.2,7.3,3.3,11c1.3,4.8,3,9.6,5,14.3
	C352.5,416.2,354.7,416.4,357.1,416.6z M333.7,329.2c0-0.8,0.1-1.4,0-2c-0.8-6.7-0.5-13.4,0-20.1c0.5-6.2,0.7-12.4,0.2-18.6
	c-0.5-6-0.8-11.9-1-17.9c-0.2-5.4-0.4-10.9,0-16.3c0.3-4.7,1.1-9.4,5.3-12.5c-0.5-0.8-0.7-1.6-1.8-1.2c-2.1,0.8-4.2,1.6-5.4,3.7
	c-2,3.3-3.7,6.7-4.4,10.6c-1.7,9.9-1.9,19.8-1.2,29.8c0.5,7.2,1.3,14.4,1.1,21.7c-0.2,6.8-0.1,13.6-0.1,20.3c0,0.8,0.1,1.6,0.2,2.5
	C328.9,329.2,331.2,329.2,333.7,329.2z M309.1,653.1c3,1.3,5.8,2.3,8.4,3.6c1.7,0.9,3.5,1.4,5.4,1.7c6.2,0.8,12-0.6,17.4-3.4
	c0.6-8.6,1.3-16.9,1.9-25.3c-0.1,0-0.2,0-0.3-0.1c-0.6,1.2-1.2,2.4-1.6,3.2c-1.1,0.2-1.9,0.3-2.6,0.6c-1.6,0.7-3.2,1.5-4.8,2.2
	c-4,1.7-8.1,3.1-12.4,3.5c-3.5,0.3-6.5-0.7-8.1-4.2c-0.1-0.1-0.4-0.2-0.8-0.3C310.8,640.7,309.9,646.9,309.1,653.1z M357.3,422.4
	c0.4,1.9,0.8,3.9,1.3,5.8c2,8.1,2.1,16.3,0.7,24.5c-1.4,8.2-2.8,16.3-4.3,24.5c-0.5,3,0.5,5.3,3.1,6.6c2.8,1.4,5.8,2.3,8.6,3.4
	c0.8,0.3,1.4,0,1.9-0.7c0.4-0.5,0.7-1.1,1-1.6c2.7-4.9,4.3-10.3,5.3-15.8c0.6-2.9,1-5.8,0.9-8.8c-1.5-0.2-2.8-0.3-4.1-0.6
	c-4.3-1-5.8-2.7-6-7c-0.4-7.9-1.5-15.7-3.8-23.3C361.2,426.6,359.9,424.1,357.3,422.4z M240.1,681.8c3.9-2.5,8.5-3,12.8-4.4
	c3.8-1.2,7.5-2.5,11.3-3.8c2.1-0.7,3-1.9,2.9-4.2c-0.3-4.8-0.2-9.6-0.6-14.3c-0.1-1.9-0.8-3.9-1.4-5.8c-0.1-0.4-0.6-0.7-1.1-1.3
	c-0.7,3-2.4,5.1-4.5,6.7c-2,1.6-4.1,3-6.2,4.4c-2.3,1.5-5,1.7-7.6,1c-2.9-0.8-5.4-2.3-7.4-4.6c-0.8-1-1.6-2.1-2.5-3.2
	C234.7,656.7,236.1,666.2,240.1,681.8z M315.3,606.8c-0.5,10.2,1.3,19.8,3.4,29.5c0.3,0,0.7,0.1,1.1,0.1c0.6,0,1.1,0,1.7-0.1
	c5.7-1.2,11.2-3.2,16.3-6.1c1.1-0.6,1.6-1.5,1.7-2.7c0.6-3.9,1.3-7.9,1.9-11.8c0.4-2.2,0.7-4.4,1.1-7.1
	C332.9,613.6,324.1,611.3,315.3,606.8z M319.9,166c0.1-2.9,0.3-5.5,0.3-8.1c0-1.4-0.1-2.9-0.3-4.3c-0.9-4.7-2.6-9.2-4.5-13.6
	c-2.8-6.4-7.5-11.4-12.7-16c-1.4-1.3-3-1.7-4.9-1c-0.6,0.2-1.2,0.3-1.8,0.6c-0.4,0.2-0.9,0.4-1.1,0.8c-1.1,1.8-2.1,3.7-3.2,5.7
	c2.3,4,4.7,7.9,7.9,11.3c4.4,4.7,8.4,9.8,11.7,15.4c1,1.6,1.8,3.3,2.8,4.9c-0.1,0.1-0.2,0.2-0.3,0.3c-0.6-0.3-1.1-0.5-1.9-0.8
	c0.2,2,0.3,3.7,0.4,5.4C317.5,164.9,317.5,164.9,319.9,166z M318.9,182c-0.2,0-0.3-0.1-0.5-0.1c-0.2,0.3-0.4,0.6-0.6,1
	c-1.1,1.9-2.1,3.9-3.3,5.8c-1.1,1.8-2.6,3.4-3.5,5.4c-2.2,4.9-4.9,9.5-7.9,13.9c-0.4,0.6-0.9,1.2-1,1.9c-0.5,5.8,0.8,11.1,5.1,15.4
	c0.3,0.3,0.6,0.6,1,0.7c1.7,0.5,3.4,1,5.3,1.5c2.3-4.7,4.1-9.7,5-15C320.2,202.3,318.9,192.2,318.9,182z M347.9,417.6
	c-0.3-1-0.5-2-0.8-2.9c-1.5-4.6-3.1-9.2-4.6-13.8c-1-3.2-2-6.4-2.9-9.6c-1.3-4.8-2.7-9.7-3.7-14.6c-0.6-2.9-0.4-5.9-0.5-8.8
	c0-1,0.2-2,0.4-3.1c-3-0.3-5.9-0.6-8.9-1c0.1,0.6,0,1,0.1,1.4c1.5,5.4,2.9,10.7,4.7,16c2.5,7.7,4.7,15.4,5.5,23.4
	c0.5,4.7,1.5,9.4,2.3,14.1c0.1,0.5,0.4,1,0.6,1.5C342.6,419.4,345,418.5,347.9,417.6z M300.1,120.6c-1.3-2.5-3.1-3.7-5.2-4.3
	c-3.1-1-6.3-1.8-9.5-2.5c-1.1-0.3-2.4-0.3-3.6-0.1c-2.7,0.5-5.4,1.2-8.1,2c-11.2,3.4-21.4,8.6-30.7,15.8c-2.6,2-5,4.2-6.8,7
	c-0.3,0.4-0.5,0.9-0.7,1.4c0.2,0.2,0.4,0.3,0.6,0.5c0.3-0.5,0.6-1.1,1-1.5c2.5-2.8,5.4-4.9,8.6-6.8c6.9-4.2,14.6-6.5,22.4-7.9
	c5.3-1,10.8-1.1,16.2-1.5c4.3-0.3,8.6-0.5,12.9-0.9C298.1,121.4,298.9,121,300.1,120.6z M357.8,419.6c0.3,0.3,0.5,0.6,0.7,0.8
	c2.6,1.9,4.2,4.4,5.1,7.3c1,3,2.1,6.1,2.6,9.2c0.9,5.4,1.4,10.9,1.9,16.4c0.2,2.2,0.8,3.2,2.9,3.8c0.9,0.3,1.9,0.4,2.8,0.5
	c0.4,0,0.9,0,1.1-0.2c1.2-1.2,2.6-2.4,2.5-4.4c-0.3-5.8-0.7-11.6-2.2-17.3c-0.9-3.1-2.3-6-4.8-8.1c-2.7-2.3-5.4-4.5-8.2-6.6
	C361.1,420,359.7,419.3,357.8,419.6z M311.4,329.9c0.4,3.9,1.2,7.5,1,11c-0.2,3.6-1.4,7.1-2.3,11c3.5,1.2,7.3,2.4,11.2,3.7
	c1.1-1.8,1.9-3.5,3-5.1c2.7-3.9,2.1-7.6-0.4-11.3c-0.4-0.7-1-1.3-1.4-1.9c-1-1.4-1.9-2.9-2.9-4.3c-0.3-0.4-0.5-0.9-0.9-1
	C316.3,331.2,313.9,330.6,311.4,329.9z M366.1,420.2c0.3-6.9,0.6-13.5,0.7-20.1c0.1-6.3-1.2-12.4-3.5-18.2
	c-1.4-3.5-2.9-6.9-4.4-10.3c-0.2-0.5-0.5-1-0.8-1.5c0.2,2.5,0.8,4.9,1.1,7.4c1,8.2,1.8,16.5,1.1,24.8c-0.3,3.3-0.3,6.5-0.4,9.8
	c0,1.4,0,2.9,0.2,4.3c0.1,0.5,0.5,1.2,1,1.4C362.4,418.6,364,419.2,366.1,420.2z M263.9,127.7c-0.1-0.2-0.2-0.4-0.3-0.6
	c-2.3,0.7-4.7,1.3-7,2.1c-6,2.1-11.5,5-16.3,9.3c-6.8,6.1-9.9,14.1-11.5,22.8c-0.4,2.4-0.8,4.9-0.1,7.3c0.4,1.6,1.3,2.6,3.1,3.1
	c0.1-1.1,0.3-2,0.4-2.9c0.4-4.9,1.3-9.6,2.9-14.2c2.1-5.9,5.3-11,10.5-14.8c3.1-2.2,6.3-4.3,9.5-6.5
	C258,131.4,261,129.5,263.9,127.7z M274.7,743.4c-2.5,3.1-6,4.4-9.6,5.5c-2.5,0.8-5,1.6-7.6,2c-8,1.4-15.7,0.9-22.2-5.1
	c0.9,5.3,4.2,8.6,8.7,10.2c10.4,3.7,19.8,1.5,28.1-5.7C274,748.6,275,746.2,274.7,743.4z M349.4,674.2c0.9-2.9,0.1-4.6-2.6-5.2
	c-1.3-0.3-2.7-0.4-4-0.6c-7.5-0.8-14.7-2.9-21.3-6.7c-2.8-1.6-5.7-3.3-8.6-4.7c-2.5-1.2-5.1-2.1-7.6-3.2c-1.4,1.3-1.6,2.7-1.6,4.1
	c0.2,0.1,0.4,0.3,0.6,0.4c7,2.2,13.5,5.6,19.9,9.1c4.9,2.7,10,4.5,15.5,5.2C343,673.2,346.1,673.7,349.4,674.2z M237.9,695.1
	c0.9-0.6,1.5-0.9,2.1-1.3c3.1-2.2,6-4.4,9.2-6.5c2.2-1.4,4.5-2.7,6.9-3.7c2.7-1.1,5.6-1.8,8.4-2.6c4.4-1.2,4.4-1.2,4.6-5.7
	c0-0.2-0.1-0.3-0.1-0.5c-0.9,0.2-1.9,0.2-2.8,0.6c-5.9,2.6-12.2,4.3-18.5,5.5c-5,1-8.6,3.9-11.9,7.9
	C238.1,690.3,237,692.8,237.9,695.1z M292.3,239.8c5,1.3,9.8,2.6,14.7,1.7c5.9-1.1,11.7-2.7,18-4.3c-1.8-1.7-3.2-3.1-4.7-4.6
	c-2.9,2.2-6.2,2.5-9.4,3.3c-4.1,1-8,0.8-11.9-0.9c-0.9-0.4-2-0.6-3-0.7c-1.7-0.1-2,0.1-2.6,1.8C293,237.3,292.7,238.4,292.3,239.8z
	 M293.2,267.6c-1.3,0.2-2.7,0.6-3.9,0.4c-1.2-0.2-2.4-1.1-3.7-1.7c-1.8,8.1-3.6,16.1-5.5,24.6c1.1-0.7,1.9-1.6,2.7-1.6
	c1,0,2,0.7,2.8,1C288.1,282.8,290.7,275.2,293.2,267.6z M287.2,259.1c3.3-0.5,5.8,0.4,7.8,2.9c2.1-6.2,3.1-12.3,4.4-18.4
	c-2.6-0.9-4.9-1.6-7.4-2.5C290.4,247.1,288.9,252.9,287.2,259.1z M279.4,316.6c1.6-6.8,3.1-13.3,4.8-20.3c-2.9,2-3.9-0.2-5.2-1.7
	c-2.9,7.4-4.6,14.9-5.4,22.9C275.7,317.1,277.6,316.9,279.4,316.6z M269.5,686.1c-2.7,0.6-5.1,1.2-7.6,1.6c-2.5,0.4-5.1,0.9-7.6,0.7
	c-3-0.2-4.7,1.4-6.8,3.3c6.7,1.9,13.3,2.2,19.3,2.5c1-1,1.7-1.7,2.7-2.7C270.2,688.2,270.2,688.2,269.5,686.1z M350.1,444.7
	c1.2-6.1,1.5-11.6,0.4-17c-2.8,1.1-5.4,2.2-8.1,3.2c0.3,2.7,0.7,5.4,0.9,8.2c0.2,1.8,1,3.2,2.7,4C347.2,443.6,348.4,444,350.1,444.7
	z M216.9,340.5c-0.7,0-0.9-0.1-1.1,0c-4.2,1.1-7,3.8-8.3,7.9c-1.1,3.2-1.7,6.6-2.4,10c-0.3,1.5,0.3,2.8,1.3,3.9
	c2.3,2.8,5.3,4,8.8,4.2c2.5,0.1,4.5-0.9,6.3-3c-5.9-0.1-6.5-0.8-9.7-2.3c-3.5-1.6-4.9-4.4-4.2-8.2c0.8-4.7,3.1-8.5,7.2-11.1
	C215.3,341.6,215.9,341.2,216.9,340.5z M313.4,188.1c2.8-4.4,4.7-9.1,5.4-14.2c0.2-1.8,0.1-3.7-0.3-5.4c-0.3-1.8-1.3-2.1-3-1.4
	c-1.7,0.7-3,2.9-2.9,4.7C312.8,177.1,313.1,182.5,313.4,188.1z M342.7,656.8c-5.6,2.4-11.1,4.1-17,3.8c5.9,3.1,12.2,4.5,18.9,4.9
	C344,662.5,343.4,659.8,342.7,656.8z M319.2,668c-5.3-3-10.4-5.5-16.2-7.1c-0.6,2.6-1.3,4.8-0.7,7.2
	C304.4,668.7,315.2,668.6,319.2,668z M339.8,382.8c0.5-5.8,1-11.5,1.5-17.4c-1.5-0.1-2.9-0.3-4.6-0.5
	C337,371.2,337.7,377.1,339.8,382.8z M340.2,421.9c0,0.5-0.1,0.7-0.1,0.9c0.2,0.7,0.4,1.4,0.7,2c1.1,3.1,2,3.5,4.9,2.1
	c1-0.4,1.8-1.2,2.6-1.9c1.3-1,1-2.4,0.7-3.7c-0.2-0.9-0.8-1.4-1.7-1.2C344.9,420.7,342.5,421.3,340.2,421.9z M270.4,364.4
	c-2.6,6.4-3.4,13-2.6,19.9C270.6,377.9,271.3,371.2,270.4,364.4z M304.9,234.3c3.3,0.5,8.2-0.5,11.1-2.3c-1.5-1.1-2.9-2.2-4.4-3.2
	c-1.7-1.1-2.6-0.9-3.7,0.9C306.8,231.1,305.9,232.6,304.9,234.3z M288,260.3c-2,2.4-1.3,4.9,1.4,5.6c1.3,0.3,2.5-0.4,3-1.7
	c0.4-1.2,0.1-2-1.2-2.6C290.2,261.1,289.1,260.8,288,260.3z M255.3,687c2.2-0.5,4.3-0.9,6.5-1.4c1.4-0.3,2.8-0.7,4.1-1.1
	c0.3-0.1,0.6-0.5,1-0.9C264.9,683.3,257.9,685.2,255.3,687z M282.4,295.5c0.4-1.3,0.9-2.3,1-3.3c0.1-0.4-0.6-1.1-1.1-1.3
	c-0.3-0.1-1,0.3-1.3,0.7C280.2,292.8,280.5,293.9,282.4,295.5z M315.2,629.4c-1.5,3.7-1,5.5,1.5,6.2
	C316.2,633.6,315.7,631.7,315.2,629.4z M262.2,239.5c0.6,0.1,1,0.2,1.6,0.3c0.1-2.5,0.6-4.8-0.3-7.1
	C263.1,234.9,262.7,237,262.2,239.5z M335.8,325.6c-0.2,0-0.4,0.1-0.5,0.1c0.2,1.2,0.3,2.5,0.5,3.8c0.8-0.1,1.4-0.2,2.3-0.3
	C337.1,327.8,336.4,326.7,335.8,325.6z M343.6,484.4c1.3,1.4,1.3,1.4,2.9,1.1C345.2,485.1,344.4,484.7,343.6,484.4z"/>
<path class="st0" d="M222.7,384c2.3-0.4,4.3,0.2,6.4,0.7c7.9,1.9,15.8,4.1,23.7,5.6c4.5,0.9,9.2,0.7,13.8,0.9c0.5,0,1.1-0.1,1.8-0.2
	c0-0.9,0-1.8,0-2.7c2-0.3,3.7,0.3,5.5,0.6c3.4,0.6,6.9,1.3,10.4,1.8c5.9,0.8,11.8,0.1,17.7-0.7c8.6-1.2,17.3-1.5,26-1.7
	c1.2,0,2.3,0.4,3.6,0.6c1.2,4.1,2.2,8.1,2.8,12.2c0.8,6.4,1.4,12.8,3.2,19c-4.1,0.9-4.3,1.1-4.8,5.4c-0.7,5.9-0.9,11.8-0.7,17.7
	c0.3,6.5,0.5,12.9,0.6,19.4c0,3.5-0.3,7-0.4,10.5c-0.1,2,0,4,0,6c-6.3,1.2-12.3,3.5-18.2,6c-4.8,2-9.8,1.6-14.9,1
	c-1.3-0.2-2-0.9-2.2-2.1c-0.2-1.4-0.5-2.8-0.6-4.3c-0.5-8.3-1.3-16.5-2.6-24.7c-0.1-0.6-0.3-1.2-0.6-1.7c-0.6,5.2,0.4,10.4,0.5,15.6
	c0.2,5.2,0.5,10.3,0.8,15.8c-1.9-0.1-3.8-0.2-5.7-0.2c-1.9,0-3.8,0-6,0c3.1-21.3,3.6-42.8,0.6-64.3c-0.1,2.7-0.1,5.5-0.2,8.2
	c-0.3,14-0.2,27.9-1.4,41.9c-0.4,5.3-0.9,10.7-2.4,15.8c-1.9,6.6-2.5,6.1-8,6.3c-8.8,0.4-17.5,0-26.3-1c-0.1,0-0.2,0-0.2,0
	c-4.8-0.6-5.1-0.9-4.7-5.6c0.7-8.2,1.7-16.4,2.2-24.6c0.5-8,0.7-15.9,0.8-23.9c0.1-10.3-0.1-20.6-0.2-30.9c0-2.3-0.1-4.5-0.1-6.8
	c-0.2,0-0.4,0-0.6,0c-0.2,2.1-0.6,4.2-0.6,6.2c-0.2,7.9-0.3,15.8-0.5,23.7c-0.3,13.4-0.5,26.8-2.2,40.1c-0.5,3.9-0.7,7.8-1.1,11.7
	c-0.1,0.6-0.2,1.2-0.2,1.9c-0.3,0-0.6,0.1-0.8,0c-10.9-3.3-21.8-6.6-32.7-10c-1.4-0.4-2.9-1-4.3-1.5c-1-0.4-1.5-1.1-1.3-2.2
	c1.3-9.9,2-19.9,4.5-29.5c1-4,2.5-7.9,3.9-11.8c4.1-11.3,8.3-22.6,12.4-33.9C220.8,390.8,221.6,387.4,222.7,384z"/>
<path class="st0" d="M250.3,190.3c0.4,1,0.8,1.9,1.1,2.9c1.6,4.6,3.9,8.7,7.5,12.1c1.1,1,1.5,2.1,1.5,3.5c0.3,5.1,0.7,10.2,1.1,15.3
	c0.4,6.2-0.5,12.2-2.3,18.2c-2.7,8.7-5.3,17.4-7.9,26.1c-1.7,5.9-3,11.9-4.7,17.8c-2.3,7.8-5.2,15.3-9.5,22.2
	c-2.2,3.5-4.7,6.6-7.9,9.2c-2.6,2.1-5.5,3.5-9,3.3c-0.7,0-1.4,0-2.2,0c-4.2,0.1-8.1-0.6-11.4-3.5c-1.1-0.9-2.3-1.7-3.7-2.7
	c1.1-0.8,1.8-1.5,2.6-2.1c1.2-0.9,2.6-1.6,3.8-2.5c3.1-2.1,5.1-5,6.1-8.6c0.1-0.4,0.3-0.9,0.6-1.9c0.6,1.7,0.4,2.9,0.4,4.1
	c0.1,1.3,0,2.5,0.3,3.8c0.1-0.4,0.3-0.8,0.4-1.2c1.3-5.8,1.1-11.5-0.2-17.3c-1.7-7.6-3.3-15.3-4.8-22.9c-1.7-9.3,0-17.9,5.1-25.9
	c2.2-3.4,4.2-6.9,6.5-10.8c0.1,6.2,0.1,11.9,0.3,17.7c0.2,5.7,0.5,11.5,1.1,17.2c0.2-4.9,0.4-9.8,0.5-14.7c0.2-7,0.3-14,0.5-21.1
	c0.3-7.7,1.5-15.3,4.6-22.4c2.8-6.4,3.5-13.1,3.3-19.9c-0.1-4.1-0.5-8.3-0.3-12.4c0.3-7.4,1.1-14.8,3.9-21.8
	c1.7-4.3,4.1-8.1,7.9-10.9c3.6-2.7,7.4-5.2,11.1-7.9c3-2.2,6-4.5,9.1-6.6c0.9-0.6,2-1,3.1-1.1c4.4-0.5,8.9-1,13.3-1.3
	c3.7-0.2,7.4-0.2,11.6-0.3c-1,1.3-1.7,2.4-2.6,3.4c-5.7,6.7-12.4,12.1-20.3,16c-6.7,3.3-13.4,6.7-20.1,10.1
	c-0.8,0.4-1.5,0.9-2.2,1.3c0.1,0.2,0.1,0.3,0.2,0.5c1.4-0.6,2.8-1.1,4.3-1.7c0,0.3,0.1,0.5,0,0.6c-3.5,5.7-4.7,12-5.3,18.5
	c-0.4,4.1-0.5,8.3-0.5,12.4c0.1,11.8-0.7,23.6-1.6,35.4c-0.5,7.4-0.9,14.8-1.1,22.2c2.7-17.4,4.9-34.9,4.7-52.5
	C249.8,190.3,250,190.3,250.3,190.3z"/>
<path class="st0" d="M290.4,131c1.2,1.9,2,3.4,2.9,4.8c2.1,3.5,4.7,6.6,7.3,9.7c3.2,3.9,6.1,8.2,8.9,12.4c0.6,0.9,0.8,2.1,0.9,3.2
	c0.5,6.7,0.8,13.4,1.2,20.1c0.3,6.1-1.3,11.7-4.1,17c-3,5.5-6.2,10.8-11.2,14.8c0.1,0.1,0.2,0.3,0.3,0.4c1.1-0.5,2.2-1.1,3.5-1.8
	c0,0.7,0.1,1.2,0.1,1.8c-0.1,3.5,0.6,6.9,2.7,9.7c1.2,1.5,2.8,2.7,4.3,4.2c-1.7,2.1-3.4,4.4-5.3,6.8c-1.7-0.3-3.4-0.5-5.1-1
	c-3.2-0.9-4.2-0.4-5.6,2.6c-0.2,0.4-0.3,0.7-0.5,1.1c-5.4,0-10.7,0.1-16,0c-2.9-0.1-5.8-0.6-8.8-0.9c-0.1-1.1-0.3-1.8-0.4-2.6
	c-0.1-1.3-0.4-2.5-1.3-3.5c-0.4-0.4-0.6-1.1-0.6-1.7c-0.6-5.5-1.2-10.9-1.7-16.4c-0.1-1.1-0.2-2.1-0.3-3.6
	c7.9,4.6,15.4,8.7,24.6,7.6c-1.7-0.4-3.4-1-5.2-1.2c-5.6-0.9-10.8-3.1-15.5-6c-5.8-3.7-10.3-8.6-12.6-15.4c-0.6-1.9-1.6-3.7-2.3-5.5
	c-0.4-1-0.9-2.1-0.9-3.2c-0.1-7.7,0.2-15.5,2.1-23.1c0.3-1.1,0.6-2.2,1.1-3.2c1.5-3.5,3.6-6.2,7.4-7.5c4.4-1.5,8.6-3.7,12.9-5.7
	c6.1-3,11.4-7,15.8-12.2C289.5,132.3,289.8,131.8,290.4,131z M272.3,166.6c-0.6-1.9-2.1-3.1-4.2-3.2c-2.3-0.1-4.9,1.3-5.8,3.2
	c0.9-0.5,1.6-1,2.4-1.3c1.3-0.6,2.7-1.2,4.1-0.6c0.4,0.1,0.9,0.6,0.9,0.9c0,0.5-0.3,1.1-0.7,1.4c-0.3,0.2-0.9,0.1-1.3-0.1
	c-0.5-0.3-0.8-0.8-1.2-1.4c-0.4,1.7-0.3,2.2,0.7,2.8c0.9,0.7,2.2,0.6,3.1-0.1C270.9,167.8,271.5,167.2,272.3,166.6z M302.5,164.2
	c-1.5-2.3-3.7-3.3-6.3-2.8c-1.9,0.4-4,1-4.4,3.5c0.9-1,1.8-2,3.5-2.1c-0.1,1.3,0.1,2.6,1.4,3.1c1.5,0.5,2.8,0.1,3.5-1.2
	C301,163.6,301.8,164.7,302.5,164.2z M293.8,196.9c-1.4-1.3-2.5-1.8-3.8-1.8c-1.9,0-3.8,0-5.7,0.1c-2.3,0.1-4.4,1-6.2,2.6
	C283,195.4,288.1,195.6,293.8,196.9z M262.5,155.7c2.2,0.2,4.4,0.6,6.6-0.1C266.9,154.9,264.7,154.9,262.5,155.7z M290.7,155
	c1.9-0.3,3.9-0.5,5.5-1.6C294.2,153.4,292.1,153.1,290.7,155z M284.4,200.5c1.6,0.6,2.9,0.7,4.2-0.6
	C287,199.2,285.7,199.1,284.4,200.5z M288.9,183.1c-1.4-0.8-1.4-0.8-1.4,0.5C288,183.5,288.4,183.3,288.9,183.1z"/>
<path class="st0" d="M291.8,485.6c2.2,0.9,3.8,1.6,5.5,2.2c0.8,0.3,1.6,0.6,2.5,0.8c6.2,0.9,12.2,0.5,18-2.1c3.8-1.7,8-2.8,11.9-4.2
	c1-0.4,2.1-0.7,2.8-0.9c1.7,1.4,3.4,2.7,5.5,4.2c-0.2,3-0.5,6.4-0.7,9.8c-0.4,7.4-1,14.8-1.1,22.2c-0.1,9.3,1,18.4,3.6,27.4
	c2.2,8,3.5,16.2,4.1,24.5c0.4,6.4,0.8,12.9,1.1,19.3c0.2,5.1-0.6,10.2-1.5,15.2c-0.2,1-0.6,1.5-1.5,1.9c-1.5,0.6-2.9,1.2-4.4,1.8
	c-3,1.1-6,1.5-9.2,0.9c-3.8-0.7-7.5-1.5-11.1-3c-1.5-0.6-2.2-1.4-2.2-3.2c0-7.1-0.2-14.2-0.5-21.3c-0.2-4.1-0.8-8.3-1.3-12.3
	c-0.5-3.6-2.1-6.8-4.2-9.8c-1.1-1.5-2.2-3.1-3.3-4.7c-5-7.1-6.5-14.9-5.8-23.4c0.3-2.8,0.4-5.6,0.5-8.4c0.2-4.4-0.4-8.8-1.7-13
	c-2.2-7.5-4.5-15-6.7-22.4C291.9,486.9,291.9,486.6,291.8,485.6z"/>
<path class="st0" d="M228.7,483.5c3,0.5,5.8,1,8.8,1.5c0,1,0,2,0,3c0,2.7,0.9,4.2,3.5,5c1.9,0.6,3.9,0.9,5.9,1.1
	c8,0.8,16.1,1.3,24.1,0.9c0.4,0,0.8,0.1,1.4,0.1c0,1,0,1.9,0,2.9c0.1,13.3,0.1,26.7,0.3,40c0.2,8.7-1.2,17.2-2.9,25.6
	c-1.4,7.1-2.7,14.3-3.8,21.4c-0.7,4.4-0.9,8.9-1.4,13.6c-1.9,0.6-3.8,1.1-5.7,1.6c-6,1.7-12.2,2.7-18.4,3.1c-4,0.3-7.5-0.4-10.4-2.1
	c0.3-3.4,0.4-7,0.9-10.5c1.2-9.3,2.7-18.6,3.7-28c1-10.2,1.8-20.3,2.3-30.5c0.5-9.4-1.8-18.4-4.1-27.4c-1.5-5.8-2.6-11.7-3.9-17.5
	C228.8,486.1,228.8,484.9,228.7,483.5z"/>
<path class="st0" d="M336.7,323.5c5.3-8.4,10.4-16.5,15.6-24.6c-0.2-0.1-0.3-0.2-0.5-0.4c-2,2.2-3.9,4.6-5.7,7
	c-1.8,2.5-3.5,4.9-5.2,7.4c-1.7,2.5-3.3,5.2-4.9,7.8c-0.2-0.1-0.4-0.1-0.6-0.2c-0.1-0.7-0.3-1.5-0.2-2.2c0.2-3.6,0.2-7.2,0.6-10.7
	c1-10,0.2-19.9-0.3-29.9c-0.4-6.8-0.6-13.7-0.7-20.6c-0.1-3.5,0.7-7,2-10.3c0.7-1.8,1.8-3.2,4-3.1c0.7,0,1.4,0.1,2,0.5
	c6,3.9,10.6,9,12.6,16c1.1,3.9,1.8,7.9,2.7,11.9c2.1,9.4,4.1,18.8,6.2,28.3c1.9,8.4,4.1,16.7,6.7,24.9c2.1,6.5,3.1,13.4,2.6,20.3
	c-0.3,4.4-1.9,8.4-3.6,12.3c-1,2.3-3.3,3.7-5.9,4c-2.4,0.3-4.8,0.6-7.1,0.8c-6,0.5-11.9,0.7-17.9,0c-3.1-0.3-6.2-0.4-9.3-0.6
	c-0.5,0-0.9-0.1-1.7-0.2c2.7-2.6,4.7-5.2,6-8.5c-0.4,0.3-0.8,0.6-1.1,0.9c-1.6,1.5-3.2,3.2-4.9,4.6c-1.4,1.1-3,2.1-4.6,2.9
	c-1.7,0.8-2.9,0.4-4.6-1.4c0.6-0.5,1.2-1,1.8-1.4c1.6-1,2.8-2.4,3.7-4c1.1-2,2.3-4,3.4-6.1c1-1.9,1.2-3.9,0.5-6
	c-0.8-2.6-2.1-5-3.8-7.1c-0.9-1.2-1.7-2.4-2.9-4c1-0.1,1.6-0.1,2.2-0.1c4.8,0.2,9.6,0.6,14.3-0.2c1.5-0.3,3-0.6,4.4-1.1
	c6.1-2,12.3-1.7,18.4-0.1c2.4,0.7,4.1,2.4,5.7,4.2c0.5,0.6,1,1.2,1.7,1.6c-0.6-3.2-2-6.1-5.3-7.2c-2.7-0.9-5.5-1.5-8.4-1.8
	c-4.1-0.4-8.1-0.2-12.1,0.7c-1.6,0.4-2.6-0.1-3.5-1.3C338,325.3,337.3,324.3,336.7,323.5z"/>
<path class="st0" d="M330.5,241.4c-5.5,6.9-6.7,15-7.3,23.4c-0.6,8.3-0.2,16.6,0.4,24.9c0.5,6.1,0.5,12.3,0.6,18.4
	c0.1,5.9,0.1,11.8,0.1,17.7c0,0.9,0,1.9,0,2.9c-1.8,0.4-3.7-0.4-5.2,1c-0.2,0.2-0.9-0.2-1.3-0.2c-1.6-0.3-3.1-0.7-4.7-1
	c-0.5-0.1-1.2-0.2-1.7,0c-2,1.1-3.8,0-5.6-0.6c-3.5-1.1-6.7-2.7-9.5-4.9c-1.9-1.5-3.8-2.9-5.7-4.4c-2.1-1.6-4.4-2.6-7.1-2.3
	c-0.4,0-0.8,0-1.5,0c0.1-1.1,0.1-2.1,0.3-3.1c1.7-6.8,3.4-13.6,5.1-20.4c1.9-7.8,4.5-15.3,7.2-22.8c2.4-6.7,3.9-13.6,5-20.7
	c0.3-1.8,0.3-3.6,0.4-5.6c0.6,0,1.1-0.1,1.6-0.1c4.4,0.4,8.8-0.2,13-1.3c3.4-0.9,6.8-1.7,10.2-2.7c1.4-0.4,2.6-0.4,3.7,0.7
	C329,240.8,329.8,241,330.5,241.4z"/>
<path class="st0" d="M318.6,357.4c-2.8,3.1-2,5.6,1.8,6.6c0.9,0.2,1.9,0.1,2.8,0c0.8,0,1.5-0.2,2.2-0.3c0.7,3.9,1.2,7.7,2.1,11.4
	c0.9,3.7,2.2,7.3,3.3,10.9c-0.3,0.2-0.5,0.3-0.6,0.3c-5.3-1.2-10.6-0.6-15.9-0.2c-6.6,0.4-13.2,1.3-19.7,1.9c-5.8,0.6-11.6,0-17.4-1
	c-2.3-0.4-4.5-0.7-7-1.1c0.2-0.7,0.3-1.2,0.5-1.8c2.3-7.1,2.9-14.3,0.8-21.6c-0.2-0.6-0.2-1.3,0-1.9c1.5-4.3,2.2-8.8,2.3-13.5
	c3.5-1,7-1.4,10.5,0c0.7,0.3,1.5,0.6,2.1,1.1c4.4,2.7,9.3,3.2,14.3,2.8c2.1-0.2,4.3-0.2,6.6-0.4c-0.2,2.3,1.3,2.9,2.8,3.4
	C313,355.2,315.7,356.3,318.6,357.4z"/>
<path class="st0" d="M345.7,676.7c-1.1,2.9-2.7,5.2-4.9,7.2c-2.3,2-4.7,4.1-7.1,6c-3.9,3.1-6.9,6.8-8.8,11.4
	c-0.5,1.2-1.2,2.4-1.8,3.6c-1.8,3.5-4.6,6.1-8,7.9c-6.9,3.8-14.2,6.1-22.1,6.1c-4.4,0-8.5-0.8-12.6-2.6c-1.2-0.5-1.9-1.3-1.8-2.7
	c0.2-1.2,0.1-2.4,0.3-3.6c0.2-2,1-3.8,2.4-5.3c4.3-4.7,8.5-9.5,12.1-14.8c3.8-5.6,7-11.6,9.2-18c0.1-0.3,0.3-0.6,0.5-1
	c5.7-0.1,11.4-0.1,17.2-0.2c1.1,0,2.2-0.1,3.3,0c0.7,0,1.4,0.1,2,0.4c5.6,2.8,11.6,3.8,17.7,4.8c0.6,0.1,1.1,0.2,1.6,0.3
	C345,676.4,345.3,676.6,345.7,676.7z"/>
<path class="st0" d="M268.6,696.9c0.7,3.9,1.6,7.8,2.2,11.8c1.1,8.1,2,16.3,2.8,24.5c0.2,2,0,4-0.2,6c-0.3,2.3-1.5,4.3-3.7,5.3
	c-7.8,3.6-15.8,5.9-24.6,4c-1.5-0.3-2.9-0.8-4.3-1.5c-2-0.9-3.1-2.5-4-4.5c-2.2-5.2-1.7-10.4-0.8-15.7c1.2-7.3,2.3-14.7,3.2-22
	c0.3-2,0.1-4.1,0.1-6.2c0-0.8,0.1-1.4,0.8-1.8c1.6-1.1,3.3-2.3,4.8-3.4C252.6,696.2,260.5,696.4,268.6,696.9z"/>
<path class="st0" d="M220.9,323c7.2-0.1,11.6-4.6,15.5-9.5c4.9-6.4,8-13.7,10.7-21.3c3.1-9,5.1-18.3,7.5-27.4
	c2.1-7.7,4.5-15.3,6.8-23.1c0.7,0.1,1.3,0.1,2.1,0.2c-0.3,2.1-0.5,4.1-0.7,6.1c-1.3,8.9-2,17.9-1.7,26.9c0.2,8.5,1.4,16.8,4.2,24.9
	c1.2,3.6,2.1,7.3,2.1,11.2c0,1.8,0.9,3.5,1.4,5.3c0.2,0.7,0.7,1.4,1.1,2.4c-4.5,1.6-7.2,5-9.6,8.8c-1.9-2.3-2.7-2.5-5.2-1.2
	c-0.9,0.5-1.8,1.1-2.6,1.7c-2.8,2.3-5.9,3.6-9.5,3.3c-5-0.5-9.2,1.1-13,4.2c-1.8,1.4-4,2.4-6,3.4c-0.7,0.4-1.5,0.4-2.4,0.7
	C221.5,333.9,221.2,328.6,220.9,323z"/>
<path class="st0" d="M232.9,125.5c0.7,1.6,1.2,2.7,1.8,3.9c0.1,0,0.3-0.1,0.4-0.1c-0.2-2.1-0.4-4.2-0.7-6.2c-0.2-1.7-0.4-3.3-0.5-5
	c-0.2-2.2,0.6-3.9,2.5-5.1c4.9-3.1,10.1-4.2,15.5-1.6c3,1.4,5.6,1,8.3,0.2c0.2-1.7,0.2-3.2,0.5-4.7c0.5-2.5,1.6-3.4,4.2-3.4
	c2.6,0,5.3,0.1,7.9,0.5c5.1,0.8,10.1,1,15.2,0.2c1.1-0.2,2.2-0.2,3.3-0.2c2.9,0.1,5.3,1.2,7.1,3.4c0.9,1.1,1.7,2.1,2.5,3.2
	c1.8,2.7,4.1,4.8,7,6.4c1.3,0.7,2.6,1.6,3.8,2.5c1.9,1.6,3.5,3.5,4.3,5.9c0.9,3,2.4,5.7,4.2,8.3c1.5,2.2,2.7,4.5,3,7.2
	c0.3,2.9-0.3,5.8-1.2,8.7c-0.2-0.4-0.4-0.8-0.5-1.2c-1-2.6-1.9-5.3-2.9-7.8c-3-7.5-8-13.4-14.4-18.1c-0.9-0.7-1.7-1.3-1.9-2.5
	c-0.2-0.9-1-1.8-1.6-2.6c-0.6-0.6-1.3-1.3-2-1.6c-6.3-2.9-12.7-5.4-19.8-3.5c-14.3,3.7-27.5,9.8-38.8,19.5
	c-4.3,3.7-6.7,8.4-8.3,13.7c-0.4,1.4-0.8,2.9-1.4,4.3c-2,4.8-3.5,9.8-3.7,15c0,0.8-0.1,1.6,0,2.4c0.7,5,1.9,6.7,6.4,7.8
	c-1.1,8.7,0.5,17.6-2,26.7c-2.3-2.1-4.3-3.7-6.1-5.6c-2.7-2.9-4.2-6.3-3.9-10.4c0.3-5.7-0.7-11.3-1.2-16.9
	c-0.3-3.6-0.7-7.1-1.1-10.7c-0.2-1.8,0.2-3.5,1.4-4.9c1.2-1.4,2.5-2.7,3.8-4c1.1-1.1,2.4-2.2,3.4-3.3c1.5-1.7,2.5-3.6,2.9-5.9
	c0.7-4.2,1.6-8.3,2.4-12.4C232.4,126.7,232.6,126.3,232.9,125.5z"/>
<path class="st0" d="M230.2,603.5c7,3.2,13.9,2.2,20.7,1c3.9-0.7,7.8-1.8,11.6-2.7c0.4-0.1,0.9-0.2,1.7-0.4
	c-0.3,2.4-0.6,4.6-0.9,6.8c-1.4,8-1.8,16-1.8,24.1c0,4.9-0.3,9.9-0.3,14.8c0,1.9-0.7,3.4-2,4.7c-2.3,2.3-4.8,4.2-7.7,5.6
	c-3.4,1.6-6.5,0.5-9.5-1.2c-0.8-0.5-1.5-1.2-2.2-1.8c-1.8-1.5-2.8-3.1-2.7-5.7c0.2-4.3-1.2-8.5-2.2-12.7c-1.5-6-2.9-12.1-4.2-18.2
	C229.7,613.1,230,608.5,230.2,603.5z"/>
<path class="st0" d="M255.7,345.7c0.3-0.6,0.6-1.3,1-1.9c1.6-2.5,3-5.1,2.7-8.7c1.3,1.7,1.5,3.8,3.4,3.8c0.7,1.4,1,2.8,1.9,3.6
	c0.9,0.7,2.3,0.7,3.4,1.1c0.1,1.1,0,2.5,0.5,3.6c0.7,1.6,2.4,0.5,3.9,0.9c-0.3,1.6-0.6,3.1-0.9,4.6c-0.8,3.9-2.2,7.6-3.6,11.4
	c-2.7,6.8-3.2,13.9-2.5,21.2c0.1,0.6,0.3,1.2,0.5,1.9c0.1,0.5,0.3,1,0.5,1.7c-2.1,0-4,0.1-5.8,0c-4.9-0.2-9.8-0.9-14.6-2.1
	c-5.3-1.3-10.5-2.7-15.8-4c-2.2-0.5-4.5-0.8-6.8-1c-2.8-0.3-3.1-0.4-3.3-3.3c-0.1-1.3,0-2.7,0-4.1c0-2.3,0-4.6,0-6.8
	c1.3-1.2,2.6-2.3,4.2-3.7c2.9,0.3,6.2,0.5,9.4,0.8c2.5,0.3,5,0.5,7.3-0.4c3.7-1.3,7.4-2.6,10.9-4.3c3.4-1.6,4.8-4.5,4.5-8.2
	c-0.1-1.1,0.1-2.2,0-3.3C256.2,347.4,255.9,346.5,255.7,345.7L255.7,345.7z"/>
<path class="st0" d="M271.8,317.1c-1.8-2.7-2.3-5.3-2.6-7.9c-0.5-4.5-1.6-8.8-2.9-13c-1.8-6-2.7-12.1-3-18.4
	c-0.6-11.5,0.4-22.9,2.1-34.3c0.3-1.9,0.4-3.8,0.6-5.9c8.1,2,16,2.6,24.2,0.8c0,0.4,0.1,0.7,0,1c-4.5,16-7.9,32.2-11.6,48.3
	c-0.8,3.3-1.9,6.6-2.9,9.9c-1.9,5.8-3.2,11.7-3.6,17.8C272,315.8,271.9,316.2,271.8,317.1z"/>
<path class="st0" d="M219.3,323.3c0,4.1,0,8.2,0,12.3c0,0.2-0.5,0.3-0.8,0.5c0.5,1,1,1.9,1.4,2.9c-0.2,0.1-0.3,0.2-0.4,0.2
	c-6.3-0.7-11.4,2.4-13.6,8.4c-0.8,2.3-1.3,4.8-1.9,7.2c-0.2,0.8-0.4,1.7-0.6,2.8c-0.5-0.4-1-0.7-1.3-1.1c-1.4-1.4-2.7-2.7-4-4.1
	c-1.7-2-3.3-4.1-5.1-6.1c-1.8-2.1-1.7-4.4-1.4-7c0.5-5,3.9-7,7.9-8.5c2.5-0.9,5.1-0.9,7.5,0.1c2.9,1.1,5.7,2.4,8.6,3.6
	c0.4,0.1,0.7,0.3,1.2,0.5c-1.7-2.7-6.6-5.3-11.3-6c-4.5-0.7-8.5,0.8-12.1,3.3c-0.9-2.6-0.4-4.6,1.8-6.1c0.8-0.6,1.1-1.2,1.4-2.1
	c3-8.2,3.7-16.8,4.5-25.4c0.9-9.7,2.7-19.3,4.9-28.8c0.6-2.7,1.2-5.5,1.8-8.2c0.3-1.2,0.8-2.4,1.2-3.8c0.4,0.4,0.6,0.5,0.6,0.7
	c0.3,10.4,2.2,20.6,5.1,30.6c2.1,7.2-1.3,16.7-8.5,20.5c-1.3,0.7-2.5,1.5-3.6,2.4c-2.1,1.8-2,3.8,0.4,5.2c4.2,2.3,8.5,4.4,13.3,5.1
	c0.7,0.1,1.4,0.2,2.1,0.4C218.7,322.9,218.9,323.1,219.3,323.3z"/>
<path class="st0" d="M255.7,345.6c-0.1,2.1-1.1,3.8-2.8,5c-1.1,0.8-2.1,1.7-3.6,2.9c2.4-0.4,3.9-1.8,5.8-2.5
	c-0.2,3.3-1.2,6.1-4.2,7.6c-4.1,2.1-8.5,3.5-13.1,4.2c-0.9,0.1-1.9,0-2.9-0.1c-3.9-0.2-7.8-0.9-11.7-0.6c-3.8,0.3-7-1-10.3-2.3
	c-3.3-1.4-4.1-3.4-3.5-6.9c0.9-5.2,3.9-8.6,8.3-11.1c0.7-0.4,1.5-0.6,2.3-0.6c4.5-0.2,8.4-1.8,11.9-4.4c0.8-0.6,1.7-1.2,2.5-1.9
	c1.6-1.3,3.5-1.9,5.5-1.9c1.4,0,2.9,0,4.3,0c3.2,0,6.1-1,8.5-3.2c1.1-0.9,2.2-1.9,3.4-2.6c0.5-0.3,1.5-0.5,1.9-0.2
	c0.4,0.3,0.7,1.4,0.4,1.9c-0.6,1.4-1.3,2.7-2.2,3.9c-1.8,2.3-4.5,3.5-7.1,4.7c-0.6,0.3-1.3,0.6-1.8,1c4.2-0.1,7.6-1.9,10.4-5.1
	c0.8,1.1,0.9,2.2,0.5,3.1c-0.9,2.2-1.7,4.4-2.8,6.5c-0.8,1.5-2.3,2.1-3.9,2.6c-1.3,0.5-2.6,0.8-3.8,1.3c-0.7,0.3-1.4,0.6-2,1.2
	c2.9-0.3,5.7-1.1,8.4-2.1C254.7,345.9,255.2,345.8,255.7,345.6C255.7,345.7,255.7,345.6,255.7,345.6z"/>
<path class="st0" d="M310.3,331.3c0.3,5.1,0.7,10.4-1.2,15.6c-0.5,1.3-1.1,1.9-2.6,2c-2.7,0.1-5.4,0.4-8.1,0.6
	c-3.5,0.2-6.9-0.2-9.9-2.1c-5.2-3.2-10.5-3.3-16.1-1.4c-0.1,0-0.2,0.1-0.2,0.1c-0.9,0-2.1,1.2-2.6-0.4c-0.4-1,0.5-2.7,1.7-3
	c2.6-0.7,5.3-1.2,7.9-1.7c1.2-0.2,2.4-0.1,3.6-0.3c0.6-0.1,1.1-0.5,1.7-0.8c-0.9-1.3-2.1-1.2-3.2-1.1c-4.1,0.3-8.1,1.1-12,2.3
	c-0.8,0.2-1.5,0.5-2.3,0.6c-1.1,0.2-2-0.3-2.7-1.2c-0.8-1-0.9-2,0.2-2.7c1.9-1.2,3.8-2.5,5.9-3.1c3.1-0.9,6.4-1.3,9.6-1.9
	c0.9-0.2,1.7-0.6,2.7-0.9c-0.8-1.2-1.7-1.2-2.5-1c-4.1,0.8-8.3,1.6-12.4,2.6c-1.6,0.4-2.9,1.6-4.4,2.4c-0.5,0.3-1,0.6-1.5,0.8
	c-0.1-0.1-0.3-0.2-0.4-0.3c0.4-1.1,0.7-2.3,1.1-3.4c0.1-0.3,0.3-0.6,0.4-0.8c3.2-5.8,3.2-5.8,9.6-7.4c1.8-0.4,3.6-0.8,5.4-1.2
	c0.7-0.2,1.3-0.4,1.9-1c-1.1,0.1-2.3,0-3.4,0.2c-2.8,0.4-5.7,0.9-8.5,1.5c-1.8,0.4-3.1,1.6-4.1,3.2c-1.1,1.8-2.2,3.6-3.4,5.5
	c-1.4-1.4-1.4-2.7-0.1-4.3c5.6-6.8,9.8-9,18.6-9.8c0.6-0.1,1.3,0,1.9-0.2c3.8-0.9,6.8,0.4,9.7,2.8c3.7,3.1,7.5,6,12.1,7.6
	C305.2,329.9,307.5,330.5,310.3,331.3z"/>
<path class="st0" d="M350.6,418.1c2.6,0,4.8,1.6,5.2,3.7c2.3,11.5,3.3,23,0.8,34.7c-1.3,6.3-2.4,12.7-3.4,19.1c-0.3,2,0,4.1,0,6.4
	c-1.8,1.1-3.8,2.1-6.4,1c-2.2-1-4.6-1.6-6.9-2.6c-2.1-0.9-2.8-2.4-2.6-4.8c0.8-8.3,1.2-16.5,0-24.9c-0.1,1.2-0.2,2.3-0.3,3.5
	c-0.4,6.3-0.7,12.6-1,18.9c-0.1,1-0.1,1.9-0.2,2.9c-0.1,3.8-0.1,3.9,2.8,6.3c-2.1-0.1-3.1-0.7-3.7-2.5c-0.4-1.4-0.7-3-0.6-4.4
	c0.1-4,0.7-8,0.7-11.9c0-7.7-0.3-15.3-0.4-23c0-4.9,0.2-9.9,0.3-14.8c0-0.8,0.2-1.6,0.4-2.3c0.3-1.1,1.1-1.5,2.2-1.5
	c1,0.1,1.1,0.9,1.2,1.8c0.3,2.3,0.6,4.6,2.4,6.3c0.3,0.3,0.3,0.9,0.3,1.3c0,2.2,0.1,4.5,0,6.7c-0.1,3.4,1.2,5.9,4.3,7.4
	c0.9,0.5,1.8,1,2.8,1.3c2.3,0.8,3.8,0,4.3-2.3c0.5-2.2,0.8-4.6,1-6.9c0.4-4.7-0.1-9.4-1.8-13.9C351.3,421.9,351,420,350.6,418.1z"/>
<path class="st0" d="M357.1,416.6c-2.4-0.2-4.6-0.4-6.8-0.6c-2.1-4.7-3.7-9.4-5-14.3c-1-3.7-2.2-7.3-3.3-11
	c-0.2-0.7-0.4-1.5-0.4-2.3c0.2-7.2,0.5-14.3,0.8-21.5c0-0.4,0.1-0.8,0.1-1.4c4.2,0,8.4,0,12.7,0
	C359.1,382.3,357.9,399.3,357.1,416.6z"/>
<path class="st0" d="M333.7,329.2c-2.5,0-4.7,0-7.2,0c-0.1-1-0.2-1.8-0.2-2.5c0-6.8-0.1-13.6,0.1-20.3c0.2-7.3-0.6-14.5-1.1-21.7
	c-0.7-10-0.5-19.9,1.2-29.8c0.7-3.8,2.4-7.2,4.4-10.6c1.2-2.1,3.3-2.9,5.4-3.7c1.1-0.4,1.4,0.4,1.8,1.2c-4.2,3.1-4.9,7.9-5.3,12.5
	c-0.4,5.4-0.2,10.8,0,16.3c0.2,6,0.6,12,1,17.9c0.5,6.2,0.2,12.4-0.2,18.6c-0.5,6.7-0.8,13.4,0,20.1
	C333.7,327.8,333.7,328.4,333.7,329.2z"/>
<path class="st0" d="M309.1,653.1c0.9-6.1,1.7-12.3,2.6-18.7c0.5,0.2,0.8,0.2,0.8,0.3c1.6,3.5,4.6,4.5,8.1,4.2
	c4.3-0.4,8.4-1.8,12.4-3.5c1.6-0.7,3.2-1.5,4.8-2.2c0.7-0.3,1.5-0.3,2.6-0.6c0.4-0.8,1-2,1.6-3.2c0.1,0,0.2,0,0.3,0.1
	c-0.6,8.4-1.3,16.8-1.9,25.3c-5.4,2.8-11.2,4.2-17.4,3.4c-1.9-0.2-3.7-0.8-5.4-1.7C314.9,655.3,312.1,654.3,309.1,653.1z"/>
<path class="st0" d="M357.3,422.4c2.6,1.7,3.9,4.2,4.7,7c2.2,7.6,3.3,15.4,3.8,23.3c0.2,4.3,1.7,6.1,6,7c1.3,0.3,2.6,0.4,4.1,0.6
	c0.1,3-0.3,5.9-0.9,8.8c-1.1,5.5-2.6,10.9-5.3,15.8c-0.3,0.6-0.6,1.1-1,1.6c-0.5,0.6-1,1-1.9,0.7c-2.9-1.1-5.9-2-8.6-3.4
	c-2.6-1.3-3.6-3.6-3.1-6.6c1.4-8.2,2.9-16.3,4.3-24.5c1.4-8.2,1.3-16.4-0.7-24.5C358.1,426.3,357.7,424.3,357.3,422.4z"/>
<path class="st0" d="M240.1,681.8c-4-15.6-5.4-25.1-4.3-29.5c0.9,1.2,1.7,2.2,2.5,3.2c1.9,2.4,4.5,3.9,7.4,4.6
	c2.6,0.7,5.3,0.5,7.6-1c2.2-1.4,4.3-2.8,6.2-4.4c2.1-1.7,3.8-3.7,4.5-6.7c0.5,0.6,1,0.9,1.1,1.3c0.5,1.9,1.2,3.8,1.4,5.8
	c0.3,4.8,0.3,9.6,0.6,14.3c0.1,2.3-0.8,3.5-2.9,4.2c-3.8,1.2-7.5,2.5-11.3,3.8C248.6,678.8,244,679.3,240.1,681.8z"/>
<path class="st0" d="M315.3,606.8c8.8,4.5,17.6,6.8,27.2,1.9c-0.4,2.7-0.8,4.9-1.1,7.1c-0.6,3.9-1.3,7.9-1.9,11.8
	c-0.2,1.2-0.7,2-1.7,2.7c-5.1,3-10.5,4.9-16.3,6.1c-0.5,0.1-1.1,0.1-1.7,0.1c-0.4,0-0.8-0.1-1.1-0.1
	C316.6,626.6,314.8,617,315.3,606.8z"/>
<path class="st0" d="M319.9,166c-2.5-1.1-2.5-1.1-7.5,0.5c-0.1-1.7-0.3-3.4-0.4-5.4c0.7,0.3,1.3,0.6,1.9,0.8
	c0.1-0.1,0.2-0.2,0.3-0.3c-0.9-1.6-1.8-3.3-2.8-4.9c-3.4-5.5-7.3-10.6-11.7-15.4c-3.2-3.4-5.6-7.3-7.9-11.3c1.1-2,2.1-3.8,3.2-5.7
	c0.2-0.4,0.7-0.6,1.1-0.8c0.6-0.2,1.2-0.3,1.8-0.6c1.8-0.7,3.4-0.3,4.9,1c5.2,4.5,9.8,9.5,12.7,16c1.9,4.4,3.6,8.9,4.5,13.6
	c0.3,1.4,0.3,2.8,0.3,4.3C320.2,160.5,320,163.1,319.9,166z"/>
<path class="st0" d="M318.9,182c0,10.1,1.3,20.2-0.5,30.3c-0.9,5.3-2.7,10.3-5,15c-1.9-0.5-3.6-1-5.3-1.5c-0.4-0.1-0.7-0.4-1-0.7
	c-4.2-4.3-5.6-9.5-5.1-15.4c0.1-0.6,0.6-1.3,1-1.9c3.1-4.4,5.7-9,7.9-13.9c0.9-1.9,2.4-3.5,3.5-5.4c1.2-1.9,2.2-3.9,3.3-5.8
	c0.2-0.3,0.4-0.6,0.6-1C318.6,182,318.7,182,318.9,182z"/>
<path class="st0" d="M347.9,417.6c-2.8,1-5.2,1.8-7.7,2.7c-0.2-0.5-0.5-1-0.6-1.5c-0.8-4.7-1.8-9.4-2.3-14.1
	c-0.9-8.1-3.1-15.8-5.5-23.4c-1.7-5.3-3.1-10.7-4.7-16c-0.1-0.4-0.1-0.7-0.1-1.4c3,0.3,5.8,0.6,8.9,1c-0.1,1.1-0.4,2.1-0.4,3.1
	c0.1,2.9-0.1,5.9,0.5,8.8c1,4.9,2.4,9.7,3.7,14.6c0.9,3.2,1.9,6.4,2.9,9.6c1.5,4.6,3,9.2,4.6,13.8
	C347.3,415.6,347.6,416.6,347.9,417.6z"/>
<path class="st0" d="M300.1,120.6c-1.2,0.4-2,0.8-2.9,0.9c-4.3,0.4-8.6,0.6-12.9,0.9c-5.4,0.4-10.9,0.5-16.2,1.5
	c-7.8,1.4-15.5,3.7-22.4,7.9c-3.2,1.9-6.1,4-8.6,6.8c-0.4,0.5-0.7,1-1,1.5c-0.2-0.2-0.4-0.3-0.6-0.5c0.2-0.5,0.4-0.9,0.7-1.4
	c1.8-2.8,4.2-5,6.8-7c9.2-7.1,19.5-12.4,30.7-15.8c2.7-0.8,5.4-1.4,8.1-2c1.1-0.2,2.4-0.2,3.6,0.1c3.2,0.7,6.4,1.5,9.5,2.5
	C297,116.9,298.8,118.1,300.1,120.6z"/>
<path class="st0" d="M357.8,419.6c1.8-0.3,3.3,0.5,4.5,1.4c2.8,2.1,5.5,4.3,8.2,6.6c2.5,2.1,4,5,4.8,8.1c1.6,5.7,2,11.5,2.2,17.3
	c0.1,2-1.3,3.2-2.5,4.4c-0.2,0.2-0.8,0.2-1.1,0.2c-0.9-0.1-1.9-0.2-2.8-0.5c-2.1-0.6-2.7-1.6-2.9-3.8c-0.6-5.5-1.1-11-1.9-16.4
	c-0.5-3.1-1.7-6.1-2.6-9.2c-0.9-3-2.6-5.5-5.1-7.3C358.3,420.1,358.1,419.9,357.8,419.6z"/>
<path class="st0" d="M311.4,329.9c2.5,0.7,4.8,1.3,7.2,2c0.4,0.1,0.6,0.7,0.9,1c1,1.4,1.9,2.9,2.9,4.3c0.4,0.7,1,1.3,1.4,1.9
	c2.5,3.7,3.1,7.4,0.4,11.3c-1.1,1.6-1.9,3.3-3,5.1c-3.9-1.3-7.6-2.5-11.2-3.7c0.9-3.9,2.1-7.4,2.3-11
	C312.6,337.4,311.8,333.9,311.4,329.9z"/>
<path class="st0" d="M366.1,420.2c-2-0.9-3.6-1.6-5.1-2.5c-0.5-0.3-0.9-0.9-1-1.4c-0.2-1.4-0.2-2.9-0.2-4.3c0.1-3.3,0.1-6.5,0.4-9.8
	c0.7-8.3-0.1-16.6-1.1-24.8c-0.3-2.4-0.8-4.8-1.1-7.4c0.3,0.5,0.6,1,0.8,1.5c1.5,3.4,3,6.9,4.4,10.3c2.4,5.8,3.6,11.9,3.5,18.2
	C366.7,406.7,366.3,413.3,366.1,420.2z"/>
<path class="st0" d="M263.9,127.7c-2.9,1.9-5.9,3.7-8.8,5.6c-3.2,2.1-6.4,4.2-9.5,6.5c-5.2,3.7-8.4,8.8-10.5,14.8
	c-1.6,4.6-2.5,9.4-2.9,14.2c-0.1,0.9-0.3,1.9-0.4,2.9c-1.8-0.5-2.7-1.5-3.1-3.1c-0.7-2.5-0.3-4.9,0.1-7.3
	c1.6-8.7,4.7-16.7,11.5-22.8c4.7-4.3,10.3-7.2,16.3-9.3c2.3-0.8,4.7-1.4,7-2.1C263.7,127.3,263.8,127.5,263.9,127.7z"/>
<path class="st0" d="M274.7,743.4c0.2,2.9-0.7,5.2-2.7,6.9c-8.3,7.2-17.7,9.4-28.1,5.7c-4.5-1.6-7.8-4.9-8.7-10.2
	c6.6,6.1,14.2,6.6,22.2,5.1c2.6-0.5,5.1-1.2,7.6-2C268.7,747.8,272.2,746.5,274.7,743.4z"/>
<path class="st0" d="M349.4,674.2c-3.3-0.5-6.4-0.9-9.6-1.4c-5.5-0.8-10.7-2.6-15.5-5.2c-6.4-3.5-12.9-6.9-19.9-9.1
	c-0.2-0.1-0.4-0.3-0.6-0.4c0-1.5,0.2-2.8,1.6-4.1c2.5,1,5.1,1.9,7.6,3.2c2.9,1.4,5.8,3.1,8.6,4.7c6.6,3.8,13.7,5.9,21.3,6.7
	c1.3,0.1,2.7,0.3,4,0.6C349.5,669.6,350.3,671.3,349.4,674.2z"/>
<path class="st0" d="M237.9,695.1c-0.9-2.3,0.2-4.8-2-6.3c3.3-4,6.9-6.9,11.9-7.9c6.3-1.3,12.6-2.9,18.5-5.5
	c0.8-0.4,1.8-0.4,2.8-0.6c0,0.1,0.1,0.3,0.1,0.5c-0.2,4.6-0.2,4.5-4.6,5.7c-2.8,0.8-5.7,1.5-8.4,2.6c-2.4,1-4.7,2.3-6.9,3.7
	c-3.1,2-6.1,4.3-9.2,6.5C239.4,694.2,238.8,694.5,237.9,695.1z"/>
<path class="st0" d="M292.3,239.8c0.4-1.4,0.7-2.6,1.1-3.7c0.6-1.7,0.9-1.9,2.6-1.8c1,0.1,2.1,0.3,3,0.7c3.9,1.7,7.9,1.9,11.9,0.9
	c3.1-0.8,6.4-1.1,9.4-3.3c1.5,1.5,2.9,2.9,4.7,4.6c-6.3,1.5-12.1,3.2-18,4.3C302.2,242.4,297.4,241.1,292.3,239.8z"/>
<path class="st0" d="M293.2,267.6c-2.6,7.6-5.1,15.3-7.6,22.7c-0.9-0.3-1.8-1.1-2.8-1c-0.8,0-1.6,0.9-2.7,1.6
	c1.9-8.4,3.7-16.5,5.5-24.6c1.4,0.7,2.5,1.5,3.7,1.7C290.6,268.2,291.9,267.7,293.2,267.6z"/>
<path class="st0" d="M287.2,259.1c1.7-6.2,3.3-12,4.9-17.9c2.5,0.9,4.8,1.6,7.4,2.5c-1.4,6.1-2.3,12.2-4.4,18.4
	C293,259.5,290.5,258.6,287.2,259.1z"/>
<path class="st0" d="M319.4,713.4c-0.1,0.2-0.1,0.5-0.2,0.6c-7.3,6.5-15.6,10.8-25.4,11.5c-3.2,0.2-6.5-0.4-9.7-0.7
	c-2.9-0.3-5-1.6-5.7-4.6c-0.2-0.6-0.4-1.2-0.6-1.7c0.3-0.1,0.5-0.2,0.5-0.1c9.7,4.6,19.5,4,29.3,0.6c3.7-1.3,7.2-3.4,10.8-5.1
	C318.7,713.7,319,713.6,319.4,713.4L319.4,713.4z"/>
<path class="st0" d="M279.4,316.6c-1.9,0.3-3.7,0.5-5.9,0.8c0.9-7.9,2.6-15.4,5.4-22.9c1.4,1.5,2.4,3.7,5.2,1.7
	C282.6,303.3,281,309.8,279.4,316.6z"/>
<path class="st0" d="M319.4,713.5c0.2-0.3,0.3-0.6,0.5-0.8c2.6-2,4.5-4.7,6-7.7c0.7-1.5,1.4-3,2.2-4.5c1.4-2.9,3.4-5.4,5.9-7.4
	c2.5-2,4.9-4.1,7.3-6.1c2.6-2.1,4.8-4.6,6.4-7.6c1.2,3.7,0.6,7-1.3,10.2c-0.3,0.6-1.2,1.1-1.9,1.2c-6.2,1.2-10.3,5.2-13.7,10
	c-0.5,0.6-0.9,1.3-1.2,2c-2,4.4-5.6,7.5-9.3,10.4C320,713.3,319.6,713.3,319.4,713.5C319.4,713.4,319.4,713.5,319.4,713.5z"/>
<path class="st0" d="M269.5,686.1c0.7,2.1,0.7,2.1,0,5.5c-1,0.9-1.7,1.6-2.7,2.7c-6.1-0.3-12.7-0.6-19.3-2.5
	c2.1-1.9,3.8-3.5,6.8-3.3c2.5,0.2,5.1-0.3,7.6-0.7C264.4,687.3,266.8,686.7,269.5,686.1z"/>
<path class="st0" d="M350.1,444.7c-1.7-0.7-3-1.1-4.1-1.7c-1.6-0.8-2.5-2.2-2.7-4c-0.3-2.8-0.6-5.5-0.9-8.2c2.7-1.1,5.4-2.1,8.1-3.2
	C351.6,433.1,351.3,438.6,350.1,444.7z"/>
<path class="st0" d="M216.9,340.5c-0.9,0.6-1.6,1.1-2.2,1.5c-4.1,2.6-6.4,6.4-7.2,11.1c-0.7,3.8,0.7,6.6,4.2,8.2
	c3.2,1.5,3.8,2.1,9.7,2.3c-1.8,2-3.8,3.1-6.3,3c-3.5-0.2-6.5-1.5-8.8-4.2c-1-1.2-1.6-2.5-1.3-3.9c0.7-3.3,1.3-6.7,2.4-10
	c1.3-4,4.1-6.7,8.3-7.9C216,340.5,216.2,340.5,216.9,340.5z"/>
<path class="st0" d="M313.4,188.1c-0.3-5.6-0.5-11-0.8-16.4c-0.1-1.9,1.3-4,2.9-4.7c1.7-0.7,2.7-0.4,3,1.4c0.3,1.8,0.5,3.7,0.3,5.4
	C318.1,178.9,316.2,183.6,313.4,188.1z"/>
<path class="st0" d="M342.7,656.8c0.7,3,1.3,5.7,1.9,8.7c-6.8-0.4-13-1.8-18.9-4.9C331.6,660.9,337.1,659.2,342.7,656.8z"/>
<path class="st0" d="M319.2,668c-3.9,0.7-14.8,0.7-16.9,0.1c-0.6-2.4,0.1-4.6,0.7-7.2C308.7,662.4,313.9,664.9,319.2,668z"/>
<path class="st0" d="M339.8,382.8c-2.1-5.7-2.9-11.6-3.1-17.9c1.6,0.2,3.1,0.3,4.6,0.5C340.8,371.3,340.3,377,339.8,382.8z"/>
<path class="st0" d="M340.2,421.9c2.3-0.6,4.7-1.2,7.1-1.7c0.9-0.2,1.5,0.3,1.7,1.2c0.4,1.3,0.6,2.7-0.7,3.7
	c-0.8,0.7-1.7,1.5-2.6,1.9c-2.9,1.3-3.8,0.9-4.9-2.1c-0.2-0.7-0.5-1.3-0.7-2C340.1,422.6,340.1,422.3,340.2,421.9z"/>
<path class="st0" d="M270.4,364.4c0.9,6.9,0.2,13.5-2.6,19.9C267,377.4,267.8,370.8,270.4,364.4z"/>
<path class="st0" d="M304.9,234.3c1.1-1.7,2-3.2,2.9-4.6c1.2-1.8,2.1-2,3.7-0.9c1.5,1,2.9,2.1,4.4,3.2
	C313.1,233.7,308.2,234.7,304.9,234.3z"/>
<path class="st0" d="M288,260.3c1.1,0.4,2.2,0.8,3.2,1.3c1.4,0.6,1.7,1.4,1.2,2.6c-0.5,1.3-1.7,2-3,1.7
	C286.7,265.3,286,262.7,288,260.3z"/>
<path class="st0" d="M255.3,687c2.6-1.8,9.6-3.7,11.6-3.4c-0.4,0.4-0.6,0.8-1,0.9c-1.4,0.4-2.7,0.8-4.1,1.1
	C259.6,686.1,257.4,686.5,255.3,687z"/>
<path class="st0" d="M282.4,295.5c-1.9-1.5-2.2-2.7-1.3-3.9c0.3-0.4,1-0.8,1.3-0.7c0.5,0.2,1.1,0.9,1.1,1.3
	C283.3,293.2,282.9,294.2,282.4,295.5z"/>
<path class="st0" d="M315.2,629.4c0.6,2.3,1,4.2,1.5,6.2C314.2,634.9,313.7,633.1,315.2,629.4z"/>
<path class="st0" d="M262.2,239.5c0.5-2.5,0.9-4.7,1.3-6.8c0.9,2.3,0.4,4.6,0.3,7.1C263.2,239.7,262.8,239.6,262.2,239.5z"/>
<path class="st0" d="M335.8,325.6c0.7,1.1,1.4,2.2,2.2,3.6c-0.9,0.1-1.5,0.2-2.3,0.3c-0.2-1.3-0.3-2.6-0.5-3.8
	C335.4,325.6,335.6,325.6,335.8,325.6z"/>
<path class="st0" d="M343.6,484.4c0.8,0.3,1.7,0.6,2.9,1.1C344.9,485.8,344.9,485.8,343.6,484.4z"/>
<path d="M272.3,166.6c-0.7,0.6-1.4,1.1-2.1,1.7c-0.9,0.7-2.2,0.7-3.1,0.1c-0.9-0.6-1.1-1.1-0.7-2.8c0.5,0.5,0.8,1.1,1.2,1.4
	c0.3,0.2,1,0.3,1.3,0.1c0.4-0.3,0.7-0.9,0.7-1.4c0-0.3-0.5-0.8-0.9-0.9c-1.5-0.5-2.8,0.1-4.1,0.6c-0.8,0.3-1.5,0.8-2.4,1.3
	c0.9-1.9,3.5-3.3,5.8-3.2C270.2,163.6,271.7,164.8,272.3,166.6z"/>
<path d="M302.5,164.2c-0.7,0.6-1.6-0.6-2.2,0.5c-0.8,1.3-2.1,1.7-3.5,1.2c-1.4-0.5-1.5-1.7-1.4-3.1c-1.6,0.1-2.6,1.1-3.5,2.1
	c0.3-2.5,2.5-3.1,4.4-3.5C298.8,160.9,301,161.8,302.5,164.2z M296,162.6c0.1,1,0.5,1.7,1.5,1.8c0.9,0.1,1.5-0.4,1.7-1.5
	C298.2,162.5,297.3,161.7,296,162.6z"/>
<path d="M293.8,196.9c-5.7-1.3-10.8-1.5-15.8,0.9c1.8-1.6,3.9-2.4,6.2-2.6c1.9-0.1,3.8-0.1,5.7-0.1
	C291.3,195.2,292.4,195.6,293.8,196.9z"/>
<path d="M262.5,155.7c2.2-0.8,4.4-0.8,6.6-0.1C267,156.2,264.7,155.9,262.5,155.7z"/>
<path d="M290.7,155c1.4-1.9,3.5-1.6,5.5-1.6C294.5,154.5,292.6,154.7,290.7,155z"/>
<path d="M284.4,200.5c1.4-1.4,2.6-1.3,4.2-0.6C287.2,201.2,286,201,284.4,200.5z"/>
<path d="M288.9,183.1c-0.5,0.2-0.9,0.3-1.4,0.5C287.6,182.3,287.6,182.3,288.9,183.1z"/>
<path class="st0" d="M296,162.6c1.3-0.9,2.2-0.1,3.2,0.4c-0.3,1.1-0.9,1.6-1.7,1.5C296.5,164.3,296.1,163.6,296,162.6z"/>
</svg>
