<?xml version="1.0" encoding="utf-8"?>
<!-- Generator: Adobe Illustrator 19.0.0, SVG Export Plug-In . SVG Version: 6.00 Build 0)  -->
<svg version="1.1" id="图层_1" xmlns="http://www.w3.org/2000/svg" xmlns:xlink="http://www.w3.org/1999/xlink" x="0px" y="0px"
	 viewBox="0 0 595.3 841.9" style="enable-background:new 0 0 595.3 841.9;" xml:space="preserve">
<style type="text/css">
	.st0{fill:#FFFFFF;}
</style>
<path class="st0" d="M0.7,0.8c198.4,0,396.7,0,595.1,0c0,280.6,0,561.1,0,841.7c-198.4,0-396.7,0-595.1,0
	C0.7,561.9,0.7,281.4,0.7,0.8z M257.3,101.7c-3.3,4-6.7,7.8-9.8,11.9c-5.4,7-9.5,14.8-11.8,23.4c-1.4,5.4-1.7,10.8,0.9,16.2
	c0.8,1.6,0.9,3.6,0.8,5.4c-0.3,5.8,0.1,11.5,1.3,17.2c1.1,4.9,1.8,9.9,2,15c0.4,7,2,13.6,5.5,19.9c3.4,6,7.5,11.5,11.7,16.9
	c3.6,4.6,8.2,7.5,14,8.5c1.6,0.3,3.3,0.6,4.9,0.8c1.3,3,2.2,8,1.9,10.4c-1.7,0.4-3.5,0.9-5.2,1.4c-2.1,0.6-3.6,1.7-4.3,3.8
	c-0.9,2.6-2,5.1-2.4,7.7c-0.5,2.6-1.3,4.7-3.4,6.3c-1.8,1.5-3.1,3.4-3.3,5.9c-0.1,0.6-0.4,1.2-0.6,1.8c-1.2,2.8-2.5,5.5-3.7,8.3
	c-3.3,8.2-5.8,16.6-6.5,25.4c-0.7,9-0.4,18.1,0.2,27.1c0,0.6,0,1.2,0,1.9c-0.4,0.2-0.7,0.3-0.9,0.4c-3.3,1.1-6.7,1.3-10.2,1.1
	c-2.2-0.1-4.3-0.4-6.5-0.4c-3.2,0-4.5,1.7-3.9,4.8c0.2,1,0.5,2,0.8,2.9c-4.6,2.3-5.7,3.2-7.2,7c-2.1,5.2-3.1,10.8-3.9,16.3
	c-0.7,4.9,2.2,8.6,6.9,10c0.1,0,0.1,0.2,0.2,0.4c-0.1,0.2-0.2,0.4-0.4,0.5c-12,11.1-22.6,23.5-32.5,36.5
	c-9.9,13-21.2,24.5-32.4,36.3c-1.4,1.5-2.9,3-4.4,4.5c-1.6,1.6-1.8,3.5-0.8,5.5c0.4,0.8,1,1.6,1.6,2.4c0.9,1.2,1.8,2.2,2.6,3.4
	c2.8,3.9,5.5,7.9,8.3,11.7c3.9,5.3,7.8,10.6,11.9,15.7c4.4,5.5,8.9,10.9,13.6,16.2c4.7,5.3,10.1,9.9,17.1,12
	c0.3,0.1,0.5,0.3,0.8,0.5c0,0.5-0.1,0.9-0.1,1.2c-0.3,3.2,0.3,3.9,3.5,4.3c2.4,0.3,4.7,0.7,7.1,1.2c9.2,1.8,18,4.9,27,7.6
	c1.2,0.3,1.7,1.1,2,2.1c2.3,6,3.9,12.2,4.6,18.6c1,7.9,1.4,15.8,2.1,23.6c0.4,5.3,0.6,10.7,1.3,16c1,7.1,2.5,14.2,3.6,21.3
	c1.1,7.4,2,14.7,3.7,22c1.9,8.1,3.8,16.2,5.4,24.3c0.9,4.8,1.4,9.6,2,14.5c0.1,0.5-0.4,1.1-0.6,1.7c-1,1.9-2,3.8-1.1,5.5
	c-1.4,1.6-2.5,2.9-3.7,4.2c-5.3,6-11.2,11.4-17.2,16.7c-0.5,0.4-1,1-1.6,1c-1.8,0.3-2.8,1.5-3.7,2.8c-3.6,5.6-6.2,11.7-8.3,18
	c-1,3.2-0.2,6,2.1,8.4c4.9,5.3,10.9,7.9,18.3,7c1.7-0.2,3.5-0.4,5.4-0.6c0.4,2.5,2,4,3.8,5.4c0.4,0.4,0.8,0.8,1.2,1.2
	c2.7,2.5,5.8,4.2,9.4,4.9c5.4,1,10.8,1.1,16.2,1.1c8.1,0.1,15.3-2.7,21.6-7.5c5.1-3.9,9.9-8.3,14.8-12.5c3.3-2.9,6.6-5.8,9.8-8.8
	c1.5-1.4,2.8-2.8,4.1-4.4c1.5-1.8,1.9-4,1.3-6.3c-0.5-1.9-0.8-3.8-1.2-5.6c-0.4-1.9-0.5-3.9-1.3-5.6c-0.8-1.8-1.1-3.4-0.9-5.3
	c0.1-0.9,0.1-1.9,0.1-2.9c0.1-1.8-0.6-3.3-1.9-4.5c-1.5-1.4-3-2.8-4.6-4.3c0.1-1.1,0.2-2.2,0.5-3.3c2.2-10.3,4.7-20.6,6.2-31
	c1.2-8.7,3-17.3,3.2-26.2c0.2-10.2,0.3-20.3-1-30.4c-0.8-5.9-2.1-11.7-4.6-17.1c-1-2.2-1.5-4.3-1.6-6.7c-0.2-6.3,1-12.4,2.3-18.5
	c0.1-0.6,0.4-1.2,0.6-1.6c2.7-0.5,5.2-0.9,7.7-1.4c7.9-1.8,15-5.6,21.4-10.4c11.5-8.6,24-15.5,37.3-20.9c5.1-2.1,10.3-3.9,15.5-5.8
	c2.1,1.3,2.2,1.3,3.6-0.2c-0.3-0.7-0.7-1.4-0.9-2.1c-3.5-10.3-6.9-20.6-10.6-30.8c-4-11-8.6-21.9-12.4-33
	c-5.1-14.7-10.3-29.2-16.5-43.5c-7.2-16.5-15-32.7-25.2-47.6c-0.7-1-0.8-2-0.4-3.1c0.8-2.3,0.6-4.5-0.3-6.8c-1.9-5-3.7-10-5.6-15.1
	c-0.8-2.1-1.8-4.1-0.9-6.4c0.1-0.3,0-0.6,0-1c-0.1-2.5-0.1-5-0.2-7.4c-0.5-10.2-1-20.4-1.6-30.7c-0.4-7-0.8-14-2.2-21
	c-0.1-0.6-0.1-1.4,0.2-1.8c1.2-1.5,1.2-3,0.5-4.7c-0.3-0.7-0.5-1.5-0.6-2.3c-1.3-6-3.5-11.8-2.7-18.1c0.5-3.7-1.5-4.8-5.1-3.5
	c-1.2,0.4-2.2,0.9-3.6,0c0.6-3-0.7-5.8-1.7-8.7c-1.1-3.5-2.2-7-3-10.6c-1.6-7.2-0.8-14.5,0.2-21.7c0.2-1.3,0.8-2,1.9-2.5
	c4.8-2.6,7.7-6.6,9-11.8c0.4-1.6,0.7-3.3,1-4.9c0.6-3.6,0.8-7.1-1.5-10.4c2.2-1.1,2.8-2.9,3-5c0.1-1.1,0.2-2.2,0.2-3.3
	c0.1-5.2,0.1-10.4,0.1-15.6c0-7.5,0-15-0.9-22.5c-0.5-3.8-1.2-7.6-3.2-11c-0.2-0.3-0.2-0.6-0.3-0.9c0.2-0.1,0.3-0.2,0.5-0.2
	c6.3-0.7,11.8-7.4,9.8-15.2c-1.9-7.4-5.9-13.6-11.3-18.9c-4.5-4.5-9.3-4.9-14.8-1.6c-2.6,1.6-4.8,3.6-6.9,6.2
	c-5.8-4.5-11.9-4.7-17.7-1.8c-2.1-0.8-3.6-1.5-5.2-1.8c-1.9-0.4-3.2,0.9-4.5,2.2c-2.5-0.8-5-1.5-7.4-2.3c-2.2-0.8-4.3-0.7-6.5,0.2
	c-5.4,2.1-10.8,4-16.2,5.9c-2.6,0.9-4.6,2.5-5.4,5c-1,3.1-1.8,6.3-2.5,9.5c-0.4,1.9,0.4,3.4,2.2,4.4
	C256.6,101.2,257,101.5,257.3,101.7z"/>
<path d="M257.3,101.7c-0.3-0.2-0.7-0.4-1.1-0.7c-1.7-1-2.6-2.5-2.2-4.4c0.7-3.2,1.5-6.4,2.5-9.5c0.8-2.6,2.9-4.1,5.4-5
	c5.4-1.9,10.8-3.9,16.2-5.9c2.2-0.8,4.3-1,6.5-0.2c2.4,0.9,4.9,1.5,7.4,2.3c1.3-1.2,2.6-2.6,4.5-2.2c1.6,0.4,3.1,1.1,5.2,1.8
	c5.8-2.9,11.9-2.7,17.7,1.8c2.1-2.5,4.3-4.6,6.9-6.2c5.5-3.3,10.3-2.9,14.8,1.6c5.4,5.3,9.4,11.6,11.3,18.9c2,7.8-3.5,14.5-9.8,15.2
	c-0.1,0-0.3,0.1-0.5,0.2c0.1,0.3,0.2,0.6,0.3,0.9c2,3.4,2.7,7.1,3.2,11c0.9,7.5,0.9,15,0.9,22.5c0,5.2,0,10.4-0.1,15.6
	c0,1.1-0.1,2.2-0.2,3.3c-0.1,2.1-0.7,3.9-3,5c2.3,3.3,2.1,6.8,1.5,10.4c-0.3,1.6-0.6,3.3-1,4.9c-1.3,5.2-4.2,9.3-9,11.8
	c-1.1,0.6-1.7,1.3-1.9,2.5c-0.9,7.2-1.8,14.5-0.2,21.7c0.8,3.6,1.9,7.1,3,10.6c0.9,2.9,2.2,5.7,1.7,8.7c1.3,0.9,2.4,0.5,3.6,0
	c3.6-1.3,5.6-0.2,5.1,3.5c-0.8,6.4,1.3,12.2,2.7,18.1c0.2,0.8,0.3,1.6,0.6,2.3c0.6,1.7,0.7,3.2-0.5,4.7c-0.3,0.4-0.3,1.2-0.2,1.8
	c1.4,6.9,1.8,13.9,2.2,21c0.6,10.2,1.1,20.4,1.6,30.7c0.1,2.5,0.2,5,0.2,7.4c0,0.3,0.1,0.7,0,1c-1,2.3,0.1,4.3,0.9,6.4
	c1.9,5,3.6,10.1,5.6,15.1c0.9,2.3,1,4.5,0.3,6.8c-0.4,1.2-0.3,2.1,0.4,3.1c10.2,14.9,18,31.1,25.2,47.6
	c6.2,14.2,11.4,28.8,16.5,43.5c3.8,11.1,8.4,21.9,12.4,33c3.7,10.2,7.1,20.5,10.6,30.8c0.3,0.7,0.6,1.4,0.9,2.1
	c-1.4,1.6-1.5,1.6-3.6,0.2c-5.2,2-10.4,3.8-15.5,5.8c-13.3,5.4-25.8,12.3-37.3,20.9c-6.4,4.8-13.5,8.6-21.4,10.4
	c-2.5,0.6-5,0.9-7.7,1.4c-0.2,0.5-0.5,1-0.6,1.6c-1.3,6.1-2.5,12.2-2.3,18.5c0.1,2.3,0.5,4.5,1.6,6.7c2.6,5.4,3.8,11.2,4.6,17.1
	c1.4,10.1,1.2,20.3,1,30.4c-0.2,8.8-1.9,17.5-3.2,26.2c-1.5,10.5-4,20.7-6.2,31c-0.2,1.1-0.3,2.2-0.5,3.3c1.6,1.5,3.1,2.9,4.6,4.3
	c1.3,1.2,1.9,2.7,1.9,4.5c0,1,0,1.9-0.1,2.9c-0.2,1.9,0.1,3.5,0.9,5.3c0.8,1.7,0.9,3.7,1.3,5.6c0.4,1.9,0.7,3.8,1.2,5.6
	c0.6,2.4,0.2,4.5-1.3,6.3c-1.2,1.6-2.6,3-4.1,4.4c-3.2,3-6.5,6-9.8,8.8c-4.9,4.2-9.7,8.6-14.8,12.5c-6.3,4.8-13.4,7.6-21.6,7.5
	c-5.4-0.1-10.9-0.1-16.2-1.1c-3.6-0.7-6.8-2.4-9.4-4.9c-0.4-0.4-0.8-0.8-1.2-1.2c-1.7-1.4-3.3-3-3.8-5.4c-1.9,0.2-3.7,0.4-5.4,0.6
	c-7.3,1-13.3-1.6-18.3-7c-2.3-2.4-3.1-5.2-2.1-8.4c2.1-6.3,4.7-12.4,8.3-18c0.9-1.3,1.9-2.6,3.7-2.8c0.6-0.1,1.1-0.6,1.6-1
	c6-5.3,11.8-10.7,17.2-16.7c1.2-1.3,2.3-2.7,3.7-4.2c-0.8-1.7,0.2-3.6,1.1-5.5c0.3-0.5,0.7-1.1,0.6-1.7c-0.6-4.8-1-9.7-2-14.5
	c-1.6-8.1-3.5-16.2-5.4-24.3c-1.7-7.3-2.6-14.6-3.7-22c-1.1-7.1-2.6-14.2-3.6-21.3c-0.7-5.3-0.8-10.7-1.3-16
	c-0.6-7.9-1.1-15.8-2.1-23.6c-0.8-6.3-2.4-12.6-4.6-18.6c-0.4-1-0.9-1.7-2-2.1c-9-2.7-17.8-5.8-27-7.6c-2.4-0.5-4.7-0.9-7.1-1.2
	c-3.3-0.4-3.9-1.1-3.5-4.3c0-0.4,0.1-0.8,0.1-1.2c-0.3-0.2-0.5-0.4-0.8-0.5c-7-2.1-12.3-6.7-17.1-12c-4.7-5.2-9.2-10.7-13.6-16.2
	c-4.1-5.1-8-10.4-11.9-15.7c-2.9-3.9-5.6-7.8-8.3-11.7c-0.8-1.2-1.8-2.3-2.6-3.4c-0.6-0.8-1.1-1.6-1.6-2.4c-1-2-0.9-3.9,0.8-5.5
	c1.5-1.5,2.9-3,4.4-4.5c11.2-11.8,22.6-23.3,32.4-36.3c9.9-13,20.4-25.4,32.5-36.5c0.2-0.2,0.3-0.4,0.4-0.5
	c-0.1-0.2-0.1-0.4-0.2-0.4c-4.7-1.4-7.6-5.1-6.9-10c0.8-5.5,1.9-11,3.9-16.3c1.5-3.7,2.6-4.7,7.2-7c-0.3-1-0.6-1.9-0.8-2.9
	c-0.6-3.1,0.7-4.8,3.9-4.8c2.2,0,4.3,0.3,6.5,0.4c3.5,0.2,6.9-0.1,10.2-1.1c0.3-0.1,0.6-0.2,0.9-0.4c0-0.7,0-1.3,0-1.9
	c-0.6-9-1-18-0.2-27.1c0.7-8.9,3.3-17.3,6.5-25.4c1.1-2.8,2.4-5.6,3.7-8.3c0.3-0.6,0.6-1.2,0.6-1.8c0.2-2.5,1.5-4.4,3.3-5.9
	c2-1.7,2.9-3.8,3.4-6.3c0.5-2.6,1.5-5.2,2.4-7.7c0.7-2,2.3-3.2,4.3-3.8c1.8-0.5,3.5-0.9,5.2-1.4c0.4-2.4-0.5-7.4-1.9-10.4
	c-1.6-0.3-3.2-0.5-4.9-0.8c-5.8-1-10.4-3.9-14-8.5c-4.2-5.4-8.3-10.9-11.7-16.9c-3.5-6.2-5.2-12.9-5.5-19.9c-0.3-5-0.9-10-2-15
	c-1.2-5.7-1.6-11.4-1.3-17.2c0.1-1.8,0-3.8-0.8-5.4c-2.6-5.3-2.3-10.7-0.9-16.2c2.3-8.6,6.4-16.4,11.8-23.4
	C250.7,109.5,254,105.7,257.3,101.7z M254.6,367.9c-0.1-1.1-1.1-1-1.8-1.3c-2.4-0.9-4.8-1.8-6.8-3.8c-6.5,6.5-12.9,12.9-19.4,19.4
	c4.3,3.3,8.5,6.5,12.9,9.8c0.4-0.8,0.7-1.5,1.1-2.2c2.9-5.2,5.6-10.4,8.7-15.4C250.8,372,252.9,370,254.6,367.9
	c-0.1,0.4-0.3,1-0.6,1.4c-4.8,7.4-8.9,15.1-12.5,23.2c-0.7,1.6-1.3,3.2-2,4.9c0.6,0.1,1,0.2,1.4,0.3c6.2,1.2,12.4,2.3,18.5,3.7
	c7.8,1.8,15.4,4.1,23.4,5.2c3.1,0.4,6.1,0.9,9.1,1.4c4.5-8.3,15.1-33.1,15.3-35.8c-0.3,0-0.6-0.1-0.9-0.1
	c-8.5,0.3-16.9-0.2-25.3-1.4c-5.5-0.8-11.1-1.4-16.4-3.1c-1.8-0.6-3.5-1-5.4-0.4c-0.7,0.2-1.6,0-2.4,0.1
	C256,367.5,255.3,367.7,254.6,367.9z M278.2,476.5c1.6,0.2,3.1,0.5,4.7,0.7c9.7,1.4,19.4,2.3,29.1,2.4c7.6,0.1,15.2,0.4,22.8,0.8
	c6.8,0.4,13.3-0.5,19.5-3.6c11.1-5.5,22.6-9.6,34.5-13c2.3-0.7,4.6-1.5,6.8-2.3c1.8-0.7,3.6-1.6,5.6-2.5
	c-3.8-11.2-7.6-22.2-11.4-33.3c-8.3,4-16.4,7.5-24.9,10.2c-8.5,2.7-17.3,4.7-26.2,5.8c-8.9,1-17.7,0.2-26.5-0.4
	c-1.4,4.1-2.6,8-4,11.8c-2.1,6.2-5.4,11.8-9,17.2c-0.6,0.9-1.4,1.8-2.2,2.6c-1.4,1.4-3,2.3-5,2.6c-2.1,0.3-3.7-0.4-5.4-1.7
	C284.4,476.2,281.4,476.8,278.2,476.5c-1.5-1-3-2-4.5-3c-2.4,0.7-4.8,0.7-7.1-0.3c-1.4-0.6-2.5-1.5-2.9-3c-0.2-0.8-0.5-1.7,0.6-2.4
	c0.3,0.4,0.5,0.7,0.7,1c1.1,2.1,2.8,2.9,5.1,2.8c2.5-0.1,4.6-1.1,6.3-3c0.8-0.9,1.6-1.6,2.8-2.8c-0.2,3.2-1.6,5.1-3.5,6.8
	c4.5,2.3,7.2,1.8,10.2-1.8c0.4-0.5,0.7-1.1,1.2-1.5c0.6-0.5,1.3-1,2.1-1.5c0.7,2-0.6,3.1-1.1,4.6c1.6,1.1,3.2,1.2,5,0.3
	c2.1-1,3.4-2.8,4.7-4.7c5.2-7.5,8.4-15.9,11.2-24.6c0.4-1.2-0.5-1.7-0.7-2.5c1.8-1.8,3.5-3.6,5.3-5.3c8.9-8.5,15.7-18.6,21.5-29.3
	c6.5-11.9,12-24.2,17-36.8c1.6-4.1,3.2-8.2,4.8-12.3c0.8-2.2,0.7-4.3-0.2-6.5c-1.8-4.5-3.5-8.9-5-13.5c-3-8.8-7.1-17.1-12.1-24.9
	c-6.1-9.4-10.9-19.5-15.1-29.9c-0.5-1.1-0.8-2.3-1.2-3.5c0.2-0.1,0.4-0.2,0.6-0.2c2,3.6,4,7.1,6.1,10.9c0.2-0.5,0.3-0.7,0.4-0.9
	c1.2-4.2,1.6-8.6,1.9-13c0.3-3.4,0.3-6.9,0.5-10.3c0.1-1.5-0.3-2.7-1.7-3.7c-1.7-1.1-3.3-2.5-5-3.7c-5.1-3.9-10.5-7.3-16.4-9.9
	c-3.1-1.4-6.3-2.5-9.7-2.4c-6.3,0.2-12,2.4-17.6,5.1c-2.3,1.1-3.4,3.4-5.2,4.9c-0.3,0.3-0.6,0.6-0.8,0.9c-4.6,4.4-7,9.9-8.1,16
	c-1.6,8.7,0,17.2,3.3,25.3c1.1,2.7,3.1,4.7,5.4,6.2c0.4,0.3,0.9,0.3,1.6,0.6c-0.4-1.3-0.7-2.4-1-3.4c0.1-0.1,0.3-0.1,0.4-0.2
	c1,1.5,1.9,3,2.9,4.6c1.9,2.9,3.6,6.1,5.9,8.7c7.1,8.2,14.4,16.3,21.7,24.4c2.2,2.4,4.4,4.9,6.5,7.4c1,1.2,1.8,2.5,2.7,3.7
	c0.8,1.1,0.7,2.1,0.2,3.3c-2,4.5-3.8,9.1-5.8,13.7c-0.5,1.3-0.9,2.5-0.3,3.4c-0.8,1.3-1.7,2.3-2.2,3.4c-6.9,16.4-13.7,32.9-22,48.7
	c-0.7,1.3-1.5,1.9-2.7,2.3c-0.5,0.1-0.9,0.2-1.4,0.4c-5.9,1.7-11.8,3.6-17.2,6.6c-2,1.1-4.2,1.9-6.3,2.9c-1.2,0.6-2.5,1.1-3.7,1.8
	c-0.7,0.4-1.2,1.1-1.8,1.7c2.2,3.2,9.5,4.5,12.9,2.8c0.2,2.2-0.1,3.8-1.3,5.9c-1,1.8-2.3,3.4-3.3,5.3c-1.8,3.5-3.5,7-5.2,10.5
	c-0.4,0.9-0.5,1.9,0.3,2.7c0.8,0.8,1.8,0.9,2.7,0.5c1.3-0.7,2.7-1.4,3.8-2.3c1-0.9,1.8-2,2.7-3.1c0.6-0.6,1.1-1.4,2.3-1
	c0,0.5,0.1,1.1-0.1,1.4c-1.8,3.3-4,6.2-7.8,7.3c-2,0.6-3.8,0.4-5.3-1.2c-1.5-1.6-1.6-3.5-0.7-5.3c1.4-3,2.8-5.9,4.4-8.7
	c1.5-2.6,3.3-4.9,4.9-7.4c0.5-0.7,0.8-1.6,1.2-2.4c-3.1,1.8-5.9,0.9-8.8-0.2c-0.4-0.2-0.9-0.4-1.3-0.6c-0.4-0.2-0.9-0.4-1.3-0.4
	c-4.8-0.2-9.4-1.5-14.1-2.8c-3.5-1-6.7-2.6-9.7-4.7c-0.6-0.4-1.2-0.7-2.1-1.1c-2.2,11.7-4.6,23.2-6.5,35c0.7-0.1,1.1-0.2,1.4-0.3
	c3.7-0.7,7.4-0.8,11.2,0.1c5.1,1.2,10.3,2.3,15.5,3.3C259.7,473.1,268.9,474.8,278.2,476.5z M306.9,118.1c-0.7,1-1.4,1.9-2,2.9
	c-1.7,2.5-4.1,3.9-7,4c-4,0.1-8-0.5-11.7-2c-1-0.4-2.1-0.7-3.2-0.6c-1.9,0.1-3.8,0.3-5.7,0.7c-5.4,1.2-10.9,2.6-16.3,3.9
	c-0.8,0.2-1.7,0.5-2.4,1.1c-5.4,4.2-10.8,8.5-15.5,13.6c-2.1,2.3-3.4,4.9-4.1,8c-0.5,2.4-0.7,4.7-0.5,7.1c0.4,5.6,0.3,11.2,1.7,16.7
	c0.6,2.2,1.1,4.5,1.4,6.8c0.7,5.2,1.2,10.5,1.7,15.7c0.4,4,1.7,7.6,3.5,11.1c3.6,7.4,8.4,13.9,13.7,20.1c1.9,2.2,4,4,6.6,5
	c4.6,1.8,9.3,3.2,14.2,1.7c5.6-1.7,11.2-3.7,16.8-5.8c3.8-1.4,7.2-3.7,10.4-6.3c4-3.4,7.5-7.4,11-11.3c2.5-2.8,4.7-5.8,5.8-9.5
	c0.2-0.5,0.5-1,0.7-1.5c1.4-2.8,3.9-4.2,6.5-5.5c5.4-2.7,8.5-7.1,9.8-12.9c0.7-3.4,1.3-6.8,0.6-10.2c-0.5-2.4-1.6-3.2-4.1-3.1
	c-1.8,0.1-3.5,0.9-4.7,2.2c-2.2,2.4-4.4,4.9-6.4,7.4c-1.5,1.9-2.5,4.1-2.6,6.6c0,0.5-0.2,1-0.5,2.1c-0.9-1.8-1.5-3.1-2.1-4.5
	c-0.8-2.1-1.5-4.2-2.4-6.3c-2.3-4.9-4.6-9.8-7.1-14.7c-2.9-5.7-3.2-11.4-0.6-17.3c0.9-2,1.6-4,2.2-6.1c1.1-3.8,0.7-7.6-1-11.2
	C312.1,123,310.1,120.2,306.9,118.1z M414.9,494.9c-0.8,0.3-1.2,0.4-1.5,0.5c-10,3.8-20,7.7-30,11.3c-8,2.9-16,6.1-24.2,8.4
	c-15.5,4.2-31.5,5.5-47.5,4.8c-11.2-0.5-22.2-2.8-32.8-6.7c-6.4-2.4-13-4.4-19.6-6.5c-13.5-4.2-27.6-5.1-41.6-6.7
	c-0.1,0-0.3,0.1-0.7,0.3c-1.3,8.8-3.2,17.7-4.2,26.8c0.7,0.2,1.1,0.3,1.6,0.4c4.9,0.9,9.8,1.6,14.6,2.9c13.7,3.5,27.2,7.6,40.5,12.4
	c15,5.4,30.5,8.3,46.2,10.2c7.5,0.9,15,0.8,22.5,0.2c7.3-0.6,14.3-2.2,20.6-5.9c5.5-3.3,10.8-6.8,16.1-10.4
	c13.2-8.9,27.4-15.5,42.4-20.4c1.4-0.5,2.9-0.7,4.6-1.1C419.5,508.5,417.2,501.8,414.9,494.9z M217.3,498c1,0.2,1.6,0.5,2.2,0.5
	c3.4,0.2,6.9,0.4,10.3,0.6c6.6,0.4,13.2,1.1,19.7,2.5c10,2.2,19.8,5.2,29.4,8.6c11.3,4,22.9,6.4,34.9,6.6c8,0.2,16-0.2,23.9-1
	c10.6-1.1,21-3.2,31-6.9c11.9-4.4,23.8-8.7,35.8-13.2c3.1-1.1,6.1-2.4,9.3-3.7c-3.9-10.2-7.8-20.1-11.7-30.2
	c-0.5,0.1-0.9,0.2-1.3,0.4c-5,1.8-10,3.7-15.1,5.3c-10.4,3.3-20.5,7.1-30.3,11.9c-3.4,1.6-6.8,3.2-10.6,3.5
	c-2.6,0.2-5.3,0.3-7.9,0.3c-9.7-0.2-19.3-0.6-29-0.9c-8.2-0.2-16.4-1-24.6-2.2c-16.6-2.6-33-5.8-49.4-9.6c-3.9-0.9-7.9-1.2-12-0.1
	C220.4,479.4,218.9,488.6,217.3,498z M288.7,552c-0.1,1-0.2,2-0.2,2.9c-0.1,6.5,0.8,12.9,2.8,19.1c4.3,13.5,7.2,27.3,8.6,41.4
	c1.8,17.7,3.1,35.3,2.6,53.1c-0.1,4.1,0.1,8.3,0.3,12.5c0.2,4.4,0.3,8.7-1.1,12.9c11,1.7,21.8,3.9,31,10.9c0.4-1.6,0.9-3.1,1.2-4.7
	c0.4-1.7,0.4-3.4-0.7-5.1c-0.6-1-0.8-2.4-0.8-3.7c0-1.6,0.2-3.2,0.6-4.7c2.3-9.9,4.4-19.8,5.7-29.9c0.8-5.9,2.1-11.8,2.6-17.8
	c0.6-7.1,0.9-14.2,0.9-21.3c0.1-12.5-1.4-24.9-5.7-36.7c-0.8-2.4-1.4-5-1.4-7.4c0-3.5,0.6-7,1.2-10.4c0.4-2.2,1.2-4.3,1.8-6.7
	c-8.4,0.5-16.6,0.7-24.8-0.5C305.4,554.8,297.3,553.4,288.7,552z M251.9,540.3c0.3,0.9,0.5,1.3,0.6,1.8c1,3.2,2.2,6.4,3.1,9.6
	c1.6,5.4,2.1,11,2.6,16.6c0.6,7.4,1.1,14.8,1.7,22.2c0.3,3.9,0.6,7.8,1.2,11.7c1.1,7.1,2.3,14.2,3.5,21.3c1,5.9,1.9,11.8,3,17.7
	c0.9,4.5,2.1,9,3.2,13.5c2.3,8.9,3.3,18,4.1,27.2c9.8-1.2,18.5,1,26.1,8.2c0.1-2.4,0.2-4.2,0.2-6c0-7.6-0.2-15.2-0.2-22.8
	c0-12.5-0.7-24.9-2.1-37.3c-0.8-7.4-1.8-14.8-3-22.1c-1.7-10.2-4.6-20.1-7.5-30c-1.9-6.4-2.5-12.8-1.3-19.4c0.1-0.3,0-0.6,0-0.6
	C275.4,547.9,263.8,544.2,251.9,540.3z M307.9,116.9c1,1.1,2.2,2.4,3.3,3.6c4.9,5.2,6.9,11.2,4.7,18.3c-0.6,1.8-1.2,3.5-1.9,5.2
	c-2.5,5.5-2.3,10.8,0.5,16.1c0.6,1.1,1.1,2.1,1.6,3.2c2.6,5.4,5.1,10.8,7.7,16.3c0.1,0.2,0.4,0.4,0.7,0.8c2.4-4.7,5.7-8.4,9.6-11.7
	c1.5-1.3,3.2-2,5.2-2.2c4.5-0.4,5.1-1,5.1-5.4c0.1-5.1,0-10.2-0.1-15.4c-0.2-8.8,0-17.6-1.3-26.3c-0.8-5.4-3.1-9.9-7.7-13
	c-2.6-1.7-4.8-3.9-6.8-6.4c-0.7-0.9-1.4-1.7-2.5-3c-0.4,0.6-0.6,1.1-1,1.5c-1.8,2.1-3.7,4.2-5.5,6.3c-1.8,2-2.9,2.2-5.2,0.8
	c-0.9-0.6-1.8-1.1-2.7-1.7c-0.5,2.3-0.8,4.4-1.4,6.5C309.6,112.4,308.8,114.4,307.9,116.9z M376.8,395.6c-4.6,2.6-8.8,5-13.1,7.3
	c-4.3,2.2-8.9,3.8-13.7,4.1c-3.7,0.3-7.3,0.2-11,0.1c-1,0-1.7,0.2-2.1,1.1c-0.2,0.4-0.5,0.8-0.7,1.2c-6.2,10.6-13,20.7-22.1,29.1
	c-0.2,0.2-0.3,0.5-0.6,0.8c15.9,1,31.3-0.1,46.4-4.9c9.8-3.1,19.4-6.8,28.8-11.5C384.6,413.5,380.7,404.5,376.8,395.6z M340.1,710.7
	c-0.1,0.4-0.2,0.7-0.3,1c-0.2,1.3-0.3,2.5-0.5,3.8c-0.1,0.8-0.7,1.4-1.5,1.1c-0.5-0.2-0.9-0.8-1.1-1.3c-0.2-0.4,0-0.9,0-1.4
	c0.3-2.4,0.8-4.7,1.1-7.1c0.3-2.4,0.5-4.8,0.6-7.2c0.1-1.1-0.1-2.2-1.3-3c-0.5,1.9-1,3.8-1.6,5.6c-0.5,1.8-1.3,3.6-2.8,4.9
	c-1.5-0.7-3-1.4-4.4-2.1c-1.6-0.8-3.2-1.9-4.9-2.6c-7-3.1-14.4-4.9-21.8-6.5c-2.3-0.5-2.5-0.3-2.7,2.2c0,0.4-0.1,0.9-0.1,1.4
	c1.3,0.3,2.5,0.6,3.6,0.8c10,2,19.4,5.3,27.5,11.7c0.3,0.2,0.8,0.3,1.3,0.3c2.1,0,3,1,2.3,3c-0.5,1.4-1.4,2.7-2.3,3.9
	c-4.3,5.4-9.9,9.1-16.3,11.4c-9.5,3.4-19.4,3.8-29.3,2.5c-3.5-0.4-6.7-1.5-8.5-5.4c-2.9,3.3-5.7,6.2-8.3,9.4
	c-1.8,2.2-4.1,4.4-4.1,7.6c-1.2,1.5-0.3,2.7,0.8,3.7c1.3,1.3,2.6,2.6,4.1,3.7c2.5,1.9,5.3,3.3,8.5,3.5c4.5,0.3,8.9,0.6,13.4,0.9
	c8,0.5,14.9-2.5,21.1-7.2c5-3.8,9.6-8.1,14.4-12.3c3.5-3.1,7-6.3,10.4-9.5c1.3-1.2,2.5-2.5,3.5-3.9c0.5-0.8,0.9-2,0.8-2.9
	C341.4,717.4,340.7,714.2,340.1,710.7z M237,147.2c0.4-0.2,0.6-0.3,0.6-0.4c1.2-3.5,3.5-6.2,6.2-8.7c8.9-8.6,19-15.6,29.4-22.3
	c0.3-0.2,0.8-0.3,1.2-0.4c0,0.1,0.1,0.2,0.1,0.3c-3.7,2.9-7.5,5.8-11.6,9c0.7-0.1,1-0.1,1.2-0.1c5-2.2,10.4-3.1,15.8-3.6
	c2.2-0.2,4.5-0.5,6.4,1.1c0.3,0.3,0.9,0.2,1.4,0.2c1.1,0.1,2.2,0.2,3.3,0.3c2,0.2,4,0.5,6,0.6c3.1,0.2,5.5-1.1,7.1-3.6
	c1.9-3.1,3.7-6.4,5.2-9.7c0.7-1.6,0.7-3.6,0.9-5.4c0.1-1.4-0.5-2.4-1.6-3.3c-2-1.7-3.9-3.5-5.9-5.3c-2-1.8-4-3.7-6-5.5
	c-2.1-1.8-4-2-6.3-0.6c-1.1,0.7-2.1,1.4-3.2,2.1c-4.1,2.6-8.1,5.4-12.4,7.8c-4.3,2.4-9.1,3.1-14,2.3c-1.3-0.2-2.1,0.2-2.9,1.1
	c-4.6,5.3-8.7,10.9-12.4,16.8c-3.3,5.2-5.8,10.6-7.6,16.5C237,140,236.5,143.5,237,147.2z M178.3,437.1c-6,6.3-11.9,12.5-17.7,18.6
	c0.1,0.2,0.1,0.3,0.1,0.4c0.3,0.3,0.5,0.6,0.8,0.9c8.3,8.5,18,15,28.8,19.9c8,3.6,16.2,6.7,23.9,11c0.5,0.3,1.2,0.5,2,0.8
	c1.5-8.6,2.9-16.9,4.3-25.4c-8.1-2.5-14.6-7.7-21.7-11.8C191.6,447.3,184.4,443.1,178.3,437.1z M312.5,347.9
	c0.1-0.1,0.2-0.3,0.3-0.4c-0.5-0.7-1-1.3-1.6-2c-6.4-7.2-12.8-14.5-19.3-21.7c-3.8-4.2-7.8-8.3-10.3-13.5c-0.8-1.7-1.8-3.2-3.9-3.4
	c-0.3,0-0.6-0.2-0.9-0.4c-3.2-2.1-6-4.6-7.3-8.3c-0.9-2.5-1.7-5.1-2.5-7.8c-0.6-2.1-0.9-4.2-1.3-6.4c-1.7,0.7-2.5,1.9-3,3.5
	c-1.5,5-1.7,10.1-1.9,15.2c-0.1,3.4-0.2,6.9-0.7,10.3c-0.4,3-0.1,5.8,0.5,8.8c0.7,3.6,1.4,7.2,1.6,10.9c0.3,3.8,0.1,7.6,0.1,11.8
	C279.1,345.7,295.8,346.8,312.5,347.9z M290.7,411c-0.9-0.2-1.4-0.3-1.8-0.4c-6.2-1.2-12.4-2.3-18.6-3.7c-9.9-2.4-19.6-5.1-29.5-7.6
	c-0.6-0.2-1.2-0.2-1.9-0.3c-0.2,0.4-0.5,0.8-0.6,1.1c-3.9,9.3-6.4,19.1-8.7,28.9c-0.3,1.4,0.2,2.2,1.4,2.9c3.6,2,7.4,3.9,11.4,4.9
	c3.2,0.8,6.5,1.5,9.4,1.6c1.1-1.4,1.9-2.7,2.9-3.6c1.5-1.2,3.2-2,4.9-2.9c1.9-1,3.9-1.8,5.8-2.8c5.5-3,11.3-5.2,17.6-6.2
	c0.8-0.1,1.7-0.4,2-0.4C287.1,418.6,288.8,414.9,290.7,411z M226.5,431.8c-4.9-3.4-9.2-7-13-11c-3.8-4-7.6-8.1-11.4-12.2
	c-7.6,9.4-15.1,18.6-22.6,27.9c3.3,2.2,6.7,4.7,10.2,6.8c5.3,3.3,10.7,6.3,16.1,9.5c3.2,1.9,6.5,3.8,9.7,5.7c1.7,1,3.4,1.7,5.6,1.7
	C222.9,450.7,224.6,441.3,226.5,431.8z M158.7,456.6c-0.6,0.8-1.3,1.6-1.7,2.4c-0.3,0.6-0.6,1.4-0.4,2c0.8,1.9,1.5,3.9,2.8,5.5
	c7.1,9.3,14.2,18.5,21.4,27.7c7.7,9.9,15.9,19.4,26.1,26.9c1.1,0.8,2.1,1.6,3.5,2.6c1.8-10.9,3.5-21.4,5.3-32.1
	c-4.6-2.3-9-4.5-13.4-6.6c-5.9-2.8-12-5.2-17.9-8.1c-6.3-3.1-12.2-7-17.3-11.9C164.4,462.5,161.9,459.8,158.7,456.6z M296.6,701.7
	c-3.1,4-6.6,7.8-9.2,12.4c-2.2,4-4.6,7.8-7.7,11.2c-1.1,1.2-1,1.6,0,2.9c1.2,1.4,2.8,1.7,4.5,2.1c10.4,1.9,20.6,0.9,30.4-2.6
	c5.9-2.1,11.2-5.5,15-10.7c0.4-0.5,0.6-1,0.9-1.6c-1.1-0.6-2-1-2.8-1.6c-6.5-4.8-13.7-8.1-21.6-9.9C303,703.2,300,702.5,296.6,701.7
	z M264.4,346.7c0.8,0.6,1.4,1.1,2,1.6c3.5,3.1,4.3,7.2,2,11.3c-1,1.8-2.5,3.3-3.8,4.9c-0.3,0.4-0.7,0.8-1.1,1.3
	c0.6,0.1,0.9,0.2,1.2,0.2c5.5,0.7,11.1,1.4,16.6,2.2c8.5,1.1,17,1.3,25.6,0.9c1.5-0.1,2.2-0.6,2.8-2c1.9-4.3,3.9-8.6,5.9-12.8
	c0.4-0.8,0.8-1.5,1.1-2.2c-0.9-1.3-2-1.5-3.3-1.5c-1.6,0-3.2-0.1-4.8-0.2c-7.4-0.6-14.8-1.2-22.2-1.8c-3.5-0.3-7-0.5-10.5-0.8
	C272.2,347.5,268.4,347.1,264.4,346.7z M227.2,428.8c2.4-12.2,6.5-23.3,11.1-34.2c-4.5-3.9-8.8-7.6-13.3-11.4
	c-7.7,7.7-15.4,15.1-21.8,23.8C211,414.5,218.1,422.4,227.2,428.8z M247.7,712.5c-0.8,1.2-1.6,2.1-2,3.1c-2.3,5.2-4.5,10.4-6.7,15.6
	c-0.4,0.9-0.5,2-0.4,3.1c0.1,0.9,0.3,2,0.9,2.7c3.3,4,7.2,7.1,12.7,7.1c2.9,0,5.9-0.4,8.8-0.6c0.9-0.1,1.4-0.5,1.9-1.2
	c1.6-2.6,3.2-5.1,5.1-7.5c2.3-2.8,4.8-5.4,7.3-8c3.6-3.7,6.9-7.7,9.4-12.4c0.2-0.4,0.4-0.9,0.7-1.8c-1.1,0.6-1.8,1-2.4,1.4
	c-6.3,3.8-13.1,6-20.5,5.9C256.6,720,251.1,718.4,247.7,712.5z M375.1,391.9c-4.8-10.5-10.7-20.5-16.8-31
	c-3.2,7.7-6.2,15.1-9.4,22.4c-3.3,7.3-6.8,14.5-10.3,21.8C354.3,405.9,368.1,398.7,375.1,391.9z M278.1,236.9
	c2.3,3.1,2.6,6.6,3.5,10.2c0.6-0.5,0.9-0.7,1.2-1c4.5-3.9,9.2-7.4,14.4-10.4c2.8-1.6,5.7-2.5,8.9-2.1c3.2,0.4,6.3,0.8,9.5,1.3
	c6.5,1.1,12.9,2.3,19.4,3.4c0.4,0.1,0.9,0.1,1.3,0.1c-2.1-6.8-5.1-13.2-6.2-20.2c-1.1-7.1-0.2-14,1.5-21.2c-3,1.3-4.4,3.7-5.4,6.1
	c-1.1,3-2.4,5.7-4.5,8.1c-2.4,2.7-4.7,5.5-7.2,8c-5,5.1-10.6,9.2-17.4,11.7C290.9,233.2,284.9,235.4,278.1,236.9z M344,240.1
	c-1,0.1-1.7-0.1-2,0.2c-1.4,1.5-3.1,1-4.7,0.7c-9.2-1.6-18.4-3.3-27.6-4.9c-4.6-0.8-8.9-0.5-12.9,2.2c-3.5,2.4-7.1,4.7-10.6,7
	c-1,0.7-1.9,1.5-3.1,2.4c0.5,0.1,0.7,0.2,0.8,0.1c1.1-0.5,2.1-1.1,3.2-1.6c7.4-3.4,14.9-4.5,22.4-0.9c4.2,2,8.3,4.2,12.2,6.7
	c4,2.6,7.8,5.6,11.6,8.5c2.4,1.8,4.9,3.6,7.9,4.5c1.3,0.4,2.8,0.7,4.2,0.7c1.6,0.1,2-0.9,1.6-2.4c-1.1-4.1-2.2-8.2-3.2-12.3
	c-0.6-2.4-0.8-4.9-0.3-7.4C343.9,242.6,343.9,241.5,344,240.1z M251,712.2c1,1.8,2.3,2.6,3.6,3.2c3,1.4,6.3,1.8,9.6,1.6
	c7.4-0.5,14-3,20.1-7.2c1.7-1.2,3.1-2.8,5.3-3.1c0.3,0,0.5-0.3,0.7-0.6c1.9-2.4,3.8-4.9,5.9-7.5c-0.9-1-1.6-2.1-2.5-3
	c-3-3-6.7-4.6-10.8-5.2c-2.7-0.4-5.4-0.6-8.1-1c-1.7-0.3-2.8,0.2-3.8,1.6c-5.4,7.4-11.6,14-18.6,20C252,711.4,251.5,711.8,251,712.2
	z M350.3,325.4c-1.2-19.2-1.5-38.1-3-57c-5.2,0.5-9.3-1.9-13.6-4.3c0.2,2.3,0.5,4.3,0.5,6.3c-0.2,4.9-0.5,9.9-0.8,14.8
	c-0.1,2-0.6,4-1.7,5.7c-0.7,1-0.5,1.8,0,2.8c6,10.4,11.9,20.8,17.9,31.2C349.6,324.9,349.7,324.9,350.3,325.4z M321,80.4
	c2.3,1.3,4.4,2.3,6.4,3.5c4.1,2.4,4.7,4.6,2.2,8.6c-0.5,0.7-1,1.4-1.5,2.2c-0.3,0.5-0.7,1-1.2,1.7c3.6,3,7,6,10.6,8.8
	c2.5,1.9,5.3,2.1,8.1,0.6c2.4-1.3,4-3.4,4.6-6.1c0.6-2.8,0.1-5.4-0.8-8c-1.5-4-3.5-7.7-6.1-11.1c-1.5-1.9-3.3-3.7-5.1-5.3
	c-2-1.7-4.5-2.2-7-1.4C327.2,74.9,324,77.1,321,80.4z M231.1,351.1c-0.1-0.9-0.2-1.3-0.2-1.8c0-1.5-0.4-2-1.8-1.4
	c-1.1,0.5-2.4,1.1-3.2,2c-1,1.3-1.9,2.8-2.3,4.4c-1.3,4.4-2.5,8.9-3.7,13.4c-1.2,4.3,1.7,8.1,5.3,10c0.8,0.4,1.3,0.3,1.9-0.3
	c1.7-1.5,3.4-2.9,5-4.5c3.1-3,6-6.3,9.4-8.9c2.6-1.9,3.1-4.2,3.5-7.1c0.6-4.6,1.4-9.2,2.2-13.7c0.2-1.2,0.7-2.4,1.1-3.7
	c-3.1,0.4-6,1.1-8.9,1.2c-2.9,0.1-5.8-0.2-8.8-0.4c-0.4,2.1,0.3,3.6,1.3,5c1.3,1.7,3.3,2.5,5.2,3.2c1.2,0.5,2.4,0.9,3.7,1.3
	c-3.1,0.9-6,0.9-8.7-0.7C231.9,349.9,231.6,350.3,231.1,351.1z M291.4,80.3c-2.5-0.6-4.9-1.1-7.3-1.8c-1.9-0.6-3.7-0.4-5.6,0.3
	c-5.2,1.9-10.3,3.8-15.6,5.6c-2.2,0.8-3.8,2-4.6,4.2c-0.9,2.6-1.5,5.2-2.3,7.8c-0.3,1.2,0.2,2.1,1.2,2.6c0.7,0.3,1.5,0.6,2.3,0.7
	c5.6,0.9,11.1,0.2,15.9-2.8c5-3,9.7-6.4,14.7-9.6C289,84.5,290.9,82.6,291.4,80.3z M316.9,103.9c3.4-3.8,6.8-7.4,9.8-11.5
	c0.4-0.6,0.8-1.2,1.1-1.8c1.1-2.1,1-2.9-1.1-4.1c-3.8-2.3-7.6-4.4-11.3-6.6c-4.3-2.5-8.8-2-12.9-0.8c-0.7,1.9-1.1,3.5-1.9,5
	c-0.7,1.4-1.8,2.7-2.7,4.1C306.4,96.4,313.2,102.2,316.9,103.9z M269.1,263.9c-1.4,1.3-2.8,2.6-4.2,3.9c-1.4,1.3-2.4,2.8-3,4.6
	c-2.1,5.7-4.2,11.4-6.1,17.1c-2.3,6.8-4.2,13.8-4.1,21.1c0,9.6,0.3,19.2,0.5,28.8c0,0.4,0.3,1,0.6,1.2c2.2,1.1,4.5,2.2,7,3.4
	c0.3-7.3,0.2-14.2-1.6-21.1c-0.8-3-1.1-5.9-0.8-9c0.5-4.4,0.5-8.9,1-13.4c0.5-4.2,1.1-8.4,2-12.5c0.7-3,2.1-5.7,5.1-7
	C265.7,273.6,266.4,271.3,269.1,263.9z M249.9,340.9c-1.3,3.9-3.2,17.6-2.9,20.4c2.3,1,4.7,2.2,7.2,3c4.6,1.4,8,0.2,10.9-3.8
	c0.5-0.7,1-1.5,1.4-2.2c1.2-2.7,1.1-5.3-1.1-7.5c-1.3-1.3-2.8-2.4-4.3-3.4C257.4,345.1,253.7,343.1,249.9,340.9z M300,694.1
	c-4.4-8.5-19.4-11.6-26.6-10.1c-0.2,0.7-0.4,1.6-0.6,2.7c2.8,0.3,5.4,0.7,8,0.9c6.4,0.6,12.2,2.6,16.5,7.6c0.1,0.1,0.3,0.1,0.5,0.2
	C298.5,694.9,299.2,694.5,300,694.1z M268.8,260.7c0.1,0.1,0.3,0.1,0.4,0.2c3.4-3.4,6.7-6.7,10-10.1c0.2-0.3,0.2-0.8,0.2-1.3
	c-4.4-0.4-7.6,1.4-9,5.1c-0.5,1.2-0.9,2.4-1.2,3.6C269,259,268.9,259.9,268.8,260.7z M294.7,86.7c0.2-0.1,0.9-0.1,1.1-0.5
	c1.2-1.7,2.3-3.4,3.3-5.2c0.2-0.3-0.2-1.2-0.6-1.6c-1.1-1-2.4-0.9-3.7-0.3c-2.2,1-2.5,2.9-2.9,4.9C291.6,85.8,292.5,86.7,294.7,86.7
	z"/>
<path class="st0" d="M278.2,476.5c-9.3-1.7-18.5-3.4-27.8-5.2c-5.2-1-10.3-2.1-15.5-3.3c-3.7-0.9-7.5-0.8-11.2-0.1
	c-0.4,0.1-0.7,0.1-1.4,0.3c1.9-11.8,4.3-23.2,6.5-35c0.9,0.5,1.5,0.7,2.1,1.1c3,2.1,6.2,3.7,9.7,4.7c4.6,1.3,9.2,2.6,14.1,2.8
	c0.5,0,0.9,0.2,1.3,0.4c0.4,0.2,0.9,0.4,1.3,0.6c2.8,1.1,5.6,1.9,8.8,0.2c-0.4,0.8-0.7,1.7-1.2,2.4c-1.6,2.5-3.5,4.8-4.9,7.4
	c-1.6,2.8-3,5.8-4.4,8.7c-0.9,1.9-0.8,3.7,0.7,5.3c1.5,1.6,3.3,1.8,5.3,1.2c3.8-1.1,6-4,7.8-7.3c0.2-0.4,0.1-0.9,0.1-1.4
	c-1.2-0.3-1.7,0.4-2.3,1c-0.9,1-1.7,2.2-2.7,3.1c-1.1,0.9-2.5,1.7-3.8,2.3c-0.9,0.4-1.9,0.3-2.7-0.5c-0.8-0.8-0.7-1.8-0.3-2.7
	c1.7-3.5,3.4-7,5.2-10.5c1-1.8,2.3-3.5,3.3-5.3c1.2-2.2,1.5-3.7,1.3-5.9c-3.4,1.7-10.7,0.4-12.9-2.8c0.6-0.5,1.1-1.3,1.8-1.7
	c1.2-0.7,2.4-1.2,3.7-1.8c2.1-1,4.3-1.8,6.3-2.9c5.4-3,11.3-4.9,17.2-6.6c0.5-0.1,0.9-0.2,1.4-0.4c1.2-0.4,2-1,2.7-2.3
	c8.2-15.8,15.1-32.3,22-48.7c0.5-1.1,1.3-2.1,2.2-3.4c-0.6-0.9-0.3-2.1,0.3-3.4c1.9-4.6,3.8-9.2,5.8-13.7c0.5-1.2,0.6-2.3-0.2-3.3
	c-0.9-1.2-1.7-2.5-2.7-3.7c-2.1-2.5-4.3-5-6.5-7.4c-7.2-8.1-14.6-16.1-21.7-24.4c-2.3-2.6-3.9-5.8-5.9-8.7c-1-1.5-2-3-2.9-4.6
	c-0.1,0.1-0.3,0.1-0.4,0.2c0.3,1,0.6,2.1,1,3.4c-0.7-0.2-1.2-0.3-1.6-0.6c-2.4-1.6-4.4-3.6-5.4-6.2c-3.3-8.1-5-16.6-3.3-25.3
	c1.1-6,3.6-11.6,8.1-16c0.3-0.3,0.5-0.6,0.8-0.9c1.8-1.5,2.9-3.8,5.2-4.9c5.6-2.7,11.3-5,17.6-5.1c3.4-0.1,6.6,1,9.7,2.4
	c5.9,2.6,11.3,6,16.4,9.9c1.7,1.3,3.2,2.6,5,3.7c1.4,0.9,1.8,2.1,1.7,3.7c-0.2,3.4-0.3,6.9-0.5,10.3c-0.3,4.4-0.7,8.8-1.9,13
	c-0.1,0.2-0.2,0.4-0.4,0.9c-2.1-3.8-4.1-7.3-6.1-10.9c-0.2,0.1-0.4,0.2-0.6,0.2c0.4,1.2,0.7,2.4,1.2,3.5c4.2,10.4,9,20.5,15.1,29.9
	c5.1,7.8,9.2,16.1,12.1,24.9c1.5,4.5,3.2,9,5,13.5c0.9,2.2,1,4.4,0.2,6.5c-1.6,4.1-3.2,8.2-4.8,12.3c-5,12.6-10.5,24.9-17,36.8
	c-5.8,10.7-12.6,20.8-21.5,29.3c-1.8,1.7-3.5,3.5-5.3,5.3c0.1,0.8,1.1,1.3,0.7,2.5c-2.8,8.6-6,17-11.2,24.6
	c-1.3,1.9-2.6,3.7-4.7,4.7c-1.7,0.9-3.3,0.8-5-0.3c0.6-1.5,1.8-2.6,1.1-4.6c-0.8,0.6-1.5,1-2.1,1.5c-0.5,0.4-0.8,1-1.2,1.5
	c-2.9,3.6-5.6,4.2-10.2,1.8c1.9-1.7,3.3-3.6,3.5-6.8c-1.2,1.2-2.1,1.9-2.8,2.8c-1.7,1.9-3.7,2.9-6.3,3c-2.3,0.1-4-0.7-5.1-2.8
	c-0.2-0.3-0.4-0.6-0.7-1c-1.1,0.7-0.8,1.6-0.6,2.4c0.4,1.5,1.5,2.4,2.9,3c2.3,1,4.7,1,7.1,0.3C275.2,474.6,276.7,475.6,278.2,476.5
	L278.2,476.5z"/>
<path class="st0" d="M306.9,118.1c3.2,2.1,5.1,4.9,6.7,8c1.8,3.6,2.1,7.4,1,11.2c-0.6,2.1-1.3,4.1-2.2,6.1
	c-2.6,5.9-2.3,11.6,0.6,17.3c2.5,4.8,4.8,9.7,7.1,14.7c0.9,2,1.6,4.2,2.4,6.3c0.5,1.4,1.2,2.7,2.1,4.5c0.3-1.1,0.5-1.6,0.5-2.1
	c0.1-2.5,1.1-4.7,2.6-6.6c2-2.5,4.2-5,6.4-7.4c1.2-1.3,2.8-2.1,4.7-2.2c2.4-0.2,3.6,0.7,4.1,3.1c0.7,3.5,0.1,6.8-0.6,10.2
	c-1.2,5.8-4.4,10.2-9.8,12.9c-2.6,1.3-5.1,2.7-6.5,5.5c-0.2,0.5-0.6,1-0.7,1.5c-1.1,3.7-3.2,6.7-5.8,9.5c-3.5,3.9-7,7.9-11,11.3
	c-3.1,2.7-6.5,4.9-10.4,6.3c-5.5,2.1-11.1,4.1-16.8,5.8c-4.9,1.5-9.6,0-14.2-1.7c-2.7-1-4.8-2.8-6.6-5c-5.3-6.2-10.1-12.8-13.7-20.1
	c-1.7-3.5-3.1-7.2-3.5-11.1c-0.5-5.2-1-10.5-1.7-15.7c-0.3-2.3-0.8-4.6-1.4-6.8c-1.4-5.5-1.3-11.1-1.7-16.7c-0.2-2.4,0-4.7,0.5-7.1
	c0.6-3.1,2-5.7,4.1-8c4.7-5.1,10-9.4,15.5-13.6c0.7-0.5,1.6-0.8,2.4-1.1c5.4-1.4,10.8-2.7,16.3-3.9c1.9-0.4,3.8-0.6,5.7-0.7
	c1.1,0,2.2,0.2,3.2,0.6c3.8,1.5,7.7,2,11.7,2c2.9,0,5.4-1.4,7-4C305.6,120,306.2,119.1,306.9,118.1z M284,172.7
	c-0.7,3.7,0.4,6.3,3.1,7c0.9,0.2,2,0.1,2.8-0.2c1.8-0.8,2.6-2.4,2.7-4.5c1.8,0.7,2.9,2.2,4.7,2.2c-0.1-0.4-0.2-0.6-0.3-0.8
	c-2.5-4.1-11.4-7.2-17.3-3.9c-1.5,0.8-2.3,2.3-1.9,4.2c0.8-0.6,1.5-1.2,1.9-1.9C280.7,172.7,282.1,172.2,284,172.7z M249.8,174.3
	c0,1.3-0.1,2.2,0,3.2c0.3,1.6,1.8,2.8,3.6,3c1.3,0.2,3.4-0.9,3.9-1.9c0.6-1.3,0.1-3.1-1.2-4.3c-0.4-0.4-0.9-0.8-1.4-1
	c-3.4-1.2-6.5-0.6-9.5,1.4C246.7,174.5,248.1,174.4,249.8,174.3z M276,213.5c-3.3-1.3-13.8-2.3-16-1.5
	C265.5,212.9,270.5,215.2,276,213.5z M286,165.2c-4-1.5-8.6-1.4-10.5,0C279,165.2,282.5,165.2,286,165.2z M253.5,167.6
	c-2.3-2.5-5.2-2.7-8.3-2C248,166.2,250.8,166.9,253.5,167.6z M261.4,201.7c-0.5-0.4-0.9-0.9-1.5-1c-1.6-0.3-2.7-1.1-3.1-3.3
	C256.3,201,257.4,202,261.4,201.7z M265.3,200.5c1.3,0.3,2.4,0.8,3.6,0C267.4,199.2,267.2,199.2,265.3,200.5z"/>
<path class="st0" d="M414.9,494.9c2.3,6.9,4.6,13.6,7,20.5c-1.8,0.4-3.2,0.6-4.6,1.1c-15,5-29.2,11.6-42.4,20.4
	c-5.3,3.6-10.6,7.1-16.1,10.4c-6.3,3.7-13.3,5.3-20.6,5.9c-7.5,0.6-15,0.7-22.5-0.2c-15.7-1.9-31.2-4.8-46.2-10.2
	c-13.3-4.8-26.8-8.9-40.5-12.4c-4.8-1.2-9.7-1.9-14.6-2.9c-0.5-0.1-0.9-0.2-1.6-0.4c1-9.1,2.9-18,4.2-26.8c0.4-0.2,0.5-0.3,0.7-0.3
	c14,1.6,28.1,2.5,41.6,6.7c6.6,2,13.1,4.1,19.6,6.5c10.6,3.9,21.5,6.2,32.8,6.7c16.1,0.7,32-0.6,47.5-4.8c8.2-2.2,16.2-5.4,24.2-8.4
	c10.1-3.7,20-7.6,30-11.3C413.7,495.3,414.1,495.1,414.9,494.9z"/>
<path class="st0" d="M217.3,498c1.6-9.4,3.1-18.5,4.6-27.7c4.1-1.1,8.1-0.9,12,0.1c16.3,3.9,32.8,7.1,49.4,9.6
	c8.1,1.3,16.3,2,24.6,2.2c9.7,0.2,19.3,0.6,29,0.9c2.6,0.1,5.3,0,7.9-0.3c3.8-0.3,7.2-1.9,10.6-3.5c9.8-4.7,20-8.6,30.3-11.9
	c5.1-1.6,10.1-3.5,15.1-5.3c0.4-0.1,0.8-0.2,1.3-0.4c3.9,10,7.7,20,11.7,30.2c-3.2,1.3-6.2,2.6-9.3,3.7
	c-11.9,4.4-23.8,8.8-35.8,13.2c-10,3.7-20.4,5.8-31,6.9c-8,0.8-15.9,1.2-23.9,1c-12-0.3-23.6-2.6-34.9-6.6
	c-9.6-3.4-19.4-6.5-29.4-8.6c-6.5-1.4-13.1-2.1-19.7-2.5c-3.4-0.2-6.9-0.4-10.3-0.6C218.9,498.4,218.3,498.2,217.3,498z"/>
<path class="st0" d="M288.7,552c8.5,1.3,16.6,2.7,24.7,3.9c8.2,1.2,16.4,0.9,24.8,0.5c-0.7,2.5-1.5,4.6-1.8,6.7
	c-0.6,3.5-1.2,6.9-1.2,10.4c0,2.5,0.5,5.1,1.4,7.4c4.3,11.9,5.8,24.2,5.7,36.7c-0.1,7.1-0.3,14.2-0.9,21.3c-0.5,6-1.8,11.8-2.6,17.8
	c-1.4,10.1-3.5,20-5.7,29.9c-0.4,1.5-0.6,3.2-0.6,4.7c0,1.2,0.2,2.7,0.8,3.7c1,1.7,1,3.3,0.7,5.1c-0.3,1.6-0.8,3.1-1.2,4.7
	c-9.2-7-20-9.2-31-10.9c1.5-4.2,1.3-8.5,1.1-12.9c-0.2-4.1-0.4-8.3-0.3-12.5c0.5-17.8-0.9-35.5-2.6-53.1
	c-1.4-14.1-4.4-27.9-8.6-41.4c-2-6.3-2.9-12.6-2.8-19.1C288.5,554,288.7,553.1,288.7,552z"/>
<path class="st0" d="M251.9,540.3c12,3.9,23.5,7.7,35.3,11.5c0,0,0.1,0.3,0,0.6c-1.2,6.6-0.6,13.1,1.3,19.4c3,9.9,5.8,19.8,7.5,30
	c1.2,7.3,2.2,14.7,3,22.1c1.4,12.4,2.1,24.9,2.1,37.3c0,7.6,0.1,15.2,0.2,22.8c0,1.8-0.1,3.6-0.2,6c-7.7-7.2-16.4-9.4-26.1-8.2
	c-0.9-9.2-1.9-18.3-4.1-27.2c-1.1-4.5-2.3-9-3.2-13.5c-1.2-5.9-2-11.8-3-17.7c-1.2-7.1-2.4-14.2-3.5-21.3c-0.6-3.9-0.9-7.8-1.2-11.7
	c-0.6-7.4-1.2-14.8-1.7-22.2c-0.4-5.6-1-11.2-2.6-16.6c-0.9-3.2-2.1-6.4-3.1-9.6C252.3,541.6,252.2,541.2,251.9,540.3z"/>
<path class="st0" d="M278.2,476.5c3.2,0.2,6.2-0.3,8.6-2.9c1.7,1.3,3.3,2,5.4,1.7c2-0.3,3.6-1.2,5-2.6c0.8-0.8,1.5-1.6,2.2-2.6
	c3.6-5.4,6.9-11,9-17.2c1.3-3.9,2.6-7.7,4-11.8c8.8,0.7,17.6,1.5,26.5,0.4c8.9-1.1,17.6-3,26.2-5.8c8.4-2.7,16.6-6.2,24.9-10.2
	c3.8,11.1,7.5,22.1,11.4,33.3c-2,0.9-3.8,1.8-5.6,2.5c-2.2,0.9-4.5,1.7-6.8,2.3c-11.9,3.4-23.4,7.5-34.5,13
	c-6.3,3.1-12.7,4-19.5,3.6c-7.6-0.4-15.2-0.7-22.8-0.8c-9.8-0.1-19.5-1.1-29.1-2.4C281.3,477,279.8,476.8,278.2,476.5
	C278.2,476.5,278.2,476.5,278.2,476.5z"/>
<path class="st0" d="M307.9,116.9c0.9-2.5,1.6-4.5,2.2-6.6c0.6-2.1,0.9-4.2,1.4-6.5c0.9,0.6,1.8,1.1,2.7,1.7
	c2.3,1.4,3.5,1.2,5.2-0.8c1.8-2.1,3.7-4.2,5.5-6.3c0.4-0.4,0.6-0.9,1-1.5c1.1,1.3,1.8,2.1,2.5,3c1.9,2.5,4.2,4.7,6.8,6.4
	c4.7,3.1,6.9,7.5,7.7,13c1.3,8.7,1.1,17.5,1.3,26.3c0.1,5.1,0.1,10.2,0.1,15.4c-0.1,4.5-0.6,5-5.1,5.4c-2,0.2-3.7,0.9-5.2,2.2
	c-3.9,3.3-7.2,7-9.6,11.7c-0.3-0.4-0.5-0.6-0.7-0.8c-2.6-5.4-5.1-10.8-7.7-16.3c-0.5-1.1-1.1-2.2-1.6-3.2
	c-2.8-5.3-3.1-10.6-0.5-16.1c0.8-1.7,1.4-3.4,1.9-5.2c2.2-7,0.2-13-4.7-18.3C310.1,119.2,309,118,307.9,116.9z"/>
<path class="st0" d="M254.6,367.9c0.7-0.2,1.4-0.4,2-0.5c0.8-0.1,1.7,0.1,2.4-0.1c1.9-0.6,3.6-0.2,5.4,0.4
	c5.4,1.7,10.9,2.4,16.4,3.1c8.4,1.1,16.8,1.6,25.3,1.4c0.3,0,0.6,0.1,0.9,0.1c-0.2,2.7-10.8,27.5-15.3,35.8c-3-0.5-6-1-9.1-1.4
	c-7.9-1.1-15.6-3.3-23.4-5.2c-6.1-1.5-12.3-2.5-18.5-3.7c-0.4-0.1-0.7-0.2-1.4-0.3c0.7-1.7,1.3-3.3,2-4.9
	c3.5-8.1,7.6-15.8,12.5-23.2C254.3,368.8,254.5,368.3,254.6,367.9L254.6,367.9z"/>
<path class="st0" d="M376.8,395.6c3.9,8.9,7.8,18,11.9,27.3c-9.4,4.8-19,8.4-28.8,11.5c-15.1,4.8-30.5,5.9-46.4,4.9
	c0.2-0.3,0.4-0.6,0.6-0.8c9-8.4,15.9-18.5,22.1-29.1c0.2-0.4,0.5-0.8,0.7-1.2c0.4-0.9,1.1-1.1,2.1-1.1c3.7,0.1,7.4,0.2,11-0.1
	c4.8-0.4,9.4-1.9,13.7-4.1C368,400.6,372.2,398.1,376.8,395.6z"/>
<path class="st0" d="M340.1,710.7c0.6,3.4,1.3,6.7,1.7,10c0.1,0.9-0.3,2.1-0.8,2.9c-1,1.4-2.2,2.7-3.5,3.9
	c-3.4,3.2-6.9,6.4-10.4,9.5c-4.7,4.2-9.4,8.5-14.4,12.3c-6.2,4.7-13.1,7.7-21.1,7.2c-4.5-0.3-8.9-0.5-13.4-0.9
	c-3.2-0.2-6-1.6-8.5-3.5c-1.4-1.1-2.8-2.4-4.1-3.7c-1-1-2-2.2-0.8-3.7c0-3.3,2.3-5.4,4.1-7.6c2.5-3.2,5.3-6.1,8.3-9.4
	c1.8,3.9,5,5,8.5,5.4c10,1.3,19.8,0.9,29.3-2.5c6.4-2.3,12-5.9,16.3-11.4c0.9-1.2,1.8-2.5,2.3-3.9c0.7-1.9-0.2-3-2.3-3
	c-0.4,0-1-0.1-1.3-0.3c-8.1-6.4-17.5-9.7-27.5-11.7c-1.2-0.2-2.3-0.5-3.6-0.8c0-0.5,0.1-1,0.1-1.4c0.2-2.4,0.4-2.7,2.7-2.2
	c7.4,1.6,14.8,3.4,21.8,6.5c1.7,0.7,3.2,1.8,4.9,2.6c1.4,0.7,2.9,1.4,4.4,2.1c1.6-1.4,2.3-3.1,2.8-4.9c0.5-1.8,1-3.7,1.6-5.6
	c1.2,0.8,1.3,1.9,1.3,3c-0.2,2.4-0.4,4.8-0.6,7.2c-0.3,2.4-0.7,4.7-1.1,7.1c-0.1,0.5-0.2,1,0,1.4c0.2,0.5,0.6,1.2,1.1,1.3
	c0.8,0.3,1.4-0.4,1.5-1.1c0.2-1.3,0.4-2.5,0.5-3.8C339.9,711.5,340,711.2,340.1,710.7z"/>
<path class="st0" d="M237,147.2c-0.5-3.8,0-7.2,1-10.6c1.7-5.9,4.3-11.4,7.6-16.5c3.7-5.9,7.8-11.5,12.4-16.8
	c0.8-0.9,1.6-1.3,2.9-1.1c4.9,0.7,9.7,0,14-2.3c4.2-2.4,8.3-5.2,12.4-7.8c1.1-0.7,2.1-1.5,3.2-2.1c2.3-1.4,4.2-1.3,6.3,0.6
	c2.1,1.8,4,3.7,6,5.5c2,1.8,3.8,3.6,5.9,5.3c1.1,0.9,1.7,1.9,1.6,3.3c-0.2,1.8-0.2,3.8-0.9,5.4c-1.5,3.3-3.2,6.6-5.2,9.7
	c-1.6,2.5-4,3.9-7.1,3.6c-2-0.1-4-0.4-6-0.6c-1.1-0.1-2.2-0.2-3.3-0.3c-0.5,0-1.1,0-1.4-0.2c-1.9-1.6-4.2-1.3-6.4-1.1
	c-5.4,0.5-10.8,1.4-15.8,3.6c-0.2,0.1-0.4,0.1-1.2,0.1c4.1-3.2,7.8-6.1,11.6-9c0-0.1-0.1-0.2-0.1-0.3c-0.4,0.1-0.8,0.2-1.2,0.4
	c-10.4,6.7-20.5,13.7-29.4,22.3c-2.6,2.5-4.9,5.3-6.2,8.7C237.6,147,237.4,147,237,147.2z"/>
<path class="st0" d="M178.3,437.1c6.1,6,13.3,10.2,20.5,14.3c7.1,4.1,13.6,9.3,21.7,11.8c-1.4,8.4-2.9,16.8-4.3,25.4
	c-0.8-0.3-1.4-0.5-2-0.8c-7.7-4.3-15.9-7.3-23.9-11c-10.8-4.9-20.5-11.4-28.8-19.9c-0.3-0.3-0.5-0.6-0.8-0.9c0-0.1,0-0.1-0.1-0.4
	C166.4,449.6,172.2,443.4,178.3,437.1z"/>
<path class="st0" d="M312.5,347.9c-16.7-1.1-33.3-2.2-50.2-3.4c0-4.2,0.2-8-0.1-11.8c-0.3-3.6-0.9-7.3-1.6-10.9
	c-0.6-2.9-0.9-5.8-0.5-8.8c0.5-3.4,0.5-6.8,0.7-10.3c0.2-5.1,0.3-10.2,1.9-15.2c0.5-1.6,1.3-2.8,3-3.5c0.5,2.2,0.8,4.4,1.3,6.4
	c0.7,2.6,1.5,5.2,2.5,7.8c1.4,3.7,4.1,6.2,7.3,8.3c0.3,0.2,0.6,0.3,0.9,0.4c2.1,0.2,3,1.6,3.9,3.4c2.5,5.2,6.5,9.2,10.3,13.5
	c6.4,7.2,12.9,14.5,19.3,21.7c0.6,0.6,1,1.3,1.6,2C312.6,347.6,312.6,347.8,312.5,347.9z"/>
<path class="st0" d="M290.7,411c-1.9,3.9-3.6,7.6-5.5,11.6c-0.4,0.1-1.2,0.3-2,0.4c-6.2,1-12,3.2-17.6,6.2c-1.9,1-3.9,1.8-5.8,2.8
	c-1.7,0.9-3.4,1.8-4.9,2.9c-1.1,0.8-1.8,2.1-2.9,3.6c-2.9-0.1-6.1-0.8-9.4-1.6c-4.1-1-7.8-2.9-11.4-4.9c-1.2-0.7-1.7-1.5-1.4-2.9
	c2.3-9.8,4.7-19.6,8.7-28.9c0.2-0.4,0.4-0.7,0.6-1.1c0.7,0.1,1.3,0.1,1.9,0.3c9.8,2.5,19.6,5.2,29.5,7.6c6.1,1.5,12.4,2.5,18.6,3.7
	C289.3,410.7,289.8,410.8,290.7,411z"/>
<path class="st0" d="M226.5,431.8c-1.8,9.5-3.6,18.9-5.4,28.3c-2.2,0-4-0.8-5.6-1.7c-3.3-1.9-6.5-3.8-9.7-5.7
	c-5.4-3.1-10.8-6.2-16.1-9.5c-3.5-2.2-6.9-4.6-10.2-6.8c7.5-9.3,15-18.5,22.6-27.9c3.9,4.1,7.6,8.2,11.4,12.2
	C217.3,424.8,221.5,428.4,226.5,431.8z"/>
<path class="st0" d="M158.7,456.6c3.2,3.2,5.7,5.8,8.3,8.4c5.1,4.9,11,8.7,17.3,11.9c5.9,2.9,11.9,5.4,17.9,8.1
	c4.5,2.1,8.9,4.4,13.4,6.6c-1.8,10.7-3.5,21.2-5.3,32.1c-1.4-1-2.5-1.8-3.5-2.6c-10.2-7.5-18.3-17-26.1-26.9
	c-7.2-9.2-14.4-18.4-21.4-27.7c-1.2-1.6-2-3.6-2.8-5.5c-0.2-0.5,0.1-1.4,0.4-2C157.5,458.2,158.1,457.5,158.7,456.6z"/>
<path class="st0" d="M296.6,701.7c3.4,0.8,6.5,1.5,9.5,2.1c7.9,1.8,15.1,5.1,21.6,9.9c0.8,0.6,1.8,1,2.8,1.6
	c-0.3,0.5-0.6,1.1-0.9,1.6c-3.8,5.2-9,8.6-15,10.7c-9.9,3.5-20.1,4.5-30.4,2.6c-1.6-0.3-3.3-0.6-4.5-2.1c-1-1.3-1.1-1.7,0-2.9
	c3.1-3.4,5.5-7.3,7.7-11.2C289.9,709.5,293.4,705.7,296.6,701.7z"/>
<path class="st0" d="M264.4,346.7c4,0.4,7.7,0.8,11.5,1.1c3.5,0.3,7,0.5,10.5,0.8c7.4,0.6,14.8,1.2,22.2,1.8
	c1.6,0.1,3.2,0.2,4.8,0.2c1.3,0,2.4,0.3,3.3,1.5c-0.3,0.7-0.7,1.4-1.1,2.2c-2,4.3-4,8.5-5.9,12.8c-0.6,1.4-1.4,1.9-2.8,2
	c-8.6,0.5-17.1,0.3-25.6-0.9c-5.5-0.7-11.1-1.5-16.6-2.2c-0.3,0-0.6-0.1-1.2-0.2c0.4-0.5,0.8-0.9,1.1-1.3c1.3-1.6,2.8-3.1,3.8-4.9
	c2.3-4,1.5-8.2-2-11.3C265.8,347.8,265.2,347.4,264.4,346.7z"/>
<path class="st0" d="M227.2,428.8c-9.2-6.4-16.2-14.3-23.9-21.8c6.4-8.7,14.1-16.1,21.8-23.8c4.4,3.8,8.7,7.5,13.3,11.4
	C233.7,405.4,229.6,416.6,227.2,428.8z"/>
<path class="st0" d="M247.7,712.5c3.4,5.9,8.9,7.4,14.8,7.5c7.4,0.1,14.2-2.1,20.5-5.9c0.7-0.4,1.3-0.8,2.4-1.4
	c-0.3,0.9-0.5,1.4-0.7,1.8c-2.4,4.6-5.7,8.6-9.4,12.4c-2.5,2.6-5,5.2-7.3,8c-1.9,2.3-3.5,4.9-5.1,7.5c-0.5,0.8-1,1.2-1.9,1.2
	c-2.9,0.2-5.9,0.6-8.8,0.6c-5.5,0-9.4-3.2-12.7-7.1c-0.6-0.7-0.8-1.7-0.9-2.7c-0.1-1,0-2.1,0.4-3.1c2.2-5.2,4.4-10.4,6.7-15.6
	C246.1,714.6,246.9,713.7,247.7,712.5z"/>
<path class="st0" d="M375.1,391.9c-7,6.7-20.8,14-36.4,13.3c3.5-7.3,7-14.5,10.3-21.8c3.2-7.3,6.2-14.7,9.4-22.4
	C364.4,371.4,370.3,381.4,375.1,391.9z"/>
<path class="st0" d="M278.1,236.9c6.8-1.5,12.8-3.7,18.9-5.9c6.8-2.5,12.4-6.6,17.4-11.7c2.5-2.6,4.8-5.3,7.2-8
	c2.1-2.4,3.4-5.1,4.5-8.1c0.9-2.4,2.3-4.8,5.4-6.1c-1.7,7.2-2.6,14.1-1.5,21.2c1.1,7,4.1,13.4,6.2,20.2c-0.4,0-0.8,0-1.3-0.1
	c-6.5-1.1-12.9-2.3-19.4-3.4c-3.1-0.5-6.3-1-9.5-1.3c-3.2-0.4-6.2,0.5-8.9,2.1c-5.2,2.9-9.9,6.5-14.4,10.4c-0.3,0.3-0.6,0.5-1.2,1
	C280.7,243.5,280.4,240,278.1,236.9z"/>
<path class="st0" d="M344,240.1c-0.1,1.5-0.1,2.6-0.3,3.6c-0.5,2.5-0.3,5,0.3,7.4c1,4.1,2.1,8.2,3.2,12.3c0.4,1.5-0.1,2.4-1.6,2.4
	c-1.4,0-2.9-0.3-4.2-0.7c-2.9-0.9-5.4-2.7-7.9-4.5c-3.8-2.9-7.6-5.9-11.6-8.5c-3.9-2.5-8-4.7-12.2-6.7c-7.6-3.6-15.1-2.5-22.4,0.9
	c-1.1,0.5-2.1,1.1-3.2,1.6c-0.1,0.1-0.3,0-0.8-0.1c1.1-0.9,2.1-1.7,3.1-2.4c3.5-2.4,7.1-4.6,10.6-7c4-2.7,8.3-3,12.9-2.2
	c9.2,1.6,18.4,3.3,27.6,4.9c1.6,0.3,3.3,0.8,4.7-0.7C342.3,240,343,240.1,344,240.1z"/>
<path class="st0" d="M251,712.2c0.5-0.4,1-0.7,1.4-1.1c6.9-6,13.2-12.6,18.6-20c1-1.4,2.1-1.9,3.8-1.6c2.7,0.4,5.4,0.6,8.1,1
	c4.1,0.6,7.8,2.2,10.8,5.2c0.9,0.9,1.6,1.9,2.5,3c-2,2.6-3.9,5-5.9,7.5c-0.2,0.2-0.5,0.5-0.7,0.6c-2.2,0.4-3.6,2-5.3,3.1
	c-6,4.2-12.7,6.7-20.1,7.2c-3.3,0.2-6.5-0.2-9.6-1.6C253.3,714.8,252,714,251,712.2z"/>
<path class="st0" d="M350.3,325.4c-0.6-0.4-0.7-0.5-0.7-0.5c-5.9-10.4-11.9-20.8-17.9-31.2c-0.6-1-0.7-1.8,0-2.8
	c1.1-1.7,1.6-3.6,1.7-5.7c0.3-4.9,0.6-9.9,0.8-14.8c0.1-2-0.3-3.9-0.5-6.3c4.3,2.4,8.4,4.8,13.6,4.3
	C348.8,287.3,349.1,306.1,350.3,325.4z"/>
<path class="st0" d="M321,80.4c3-3.3,6.2-5.5,10-6.6c2.5-0.7,5-0.3,7,1.4c1.9,1.6,3.6,3.4,5.1,5.3c2.6,3.4,4.6,7.1,6.1,11.1
	c1,2.6,1.5,5.2,0.8,8c-0.6,2.7-2.1,4.8-4.6,6.1c-2.8,1.5-5.6,1.4-8.1-0.6c-3.6-2.8-7-5.8-10.6-8.8c0.5-0.7,0.8-1.2,1.2-1.7
	c0.5-0.7,1-1.4,1.5-2.2c2.5-4.1,2-6.3-2.2-8.6C325.4,82.7,323.3,81.7,321,80.4z"/>
<path class="st0" d="M231.1,351.1c0.5-0.8,0.8-1.2,1.1-1.7c2.7,1.6,5.7,1.6,8.7,0.7c-1.2-0.4-2.5-0.9-3.7-1.3
	c-1.9-0.7-3.9-1.5-5.2-3.2c-1.1-1.4-1.8-2.8-1.3-5c2.9,0.1,5.9,0.5,8.8,0.4c2.9-0.1,5.8-0.8,8.9-1.2c-0.4,1.3-0.9,2.5-1.1,3.7
	c-0.8,4.6-1.6,9.1-2.2,13.7c-0.4,2.8-0.9,5.1-3.5,7.1c-3.4,2.6-6.3,5.9-9.4,8.9c-1.6,1.5-3.3,3-5,4.5c-0.6,0.5-1.2,0.6-1.9,0.3
	c-3.6-1.8-6.5-5.6-5.3-10c1.2-4.5,2.3-9,3.7-13.4c0.5-1.6,1.3-3.1,2.3-4.4c0.8-0.9,2-1.5,3.2-2c1.3-0.6,1.8-0.2,1.8,1.4
	C230.9,349.8,231,350.2,231.1,351.1z M223.9,357.2c-0.2,0.1-0.4,0.3-0.6,0.4c0.2,0.5,0.2,1.2,0.5,1.4c1.9,1,3.5,2.8,5.7,3.3
	c2,0.5,2.5,1.2,2.5,3.1c0,2.1-0.5,2.8-2.6,3.4c-1.2,0.3-2.4,0.6-3.8,0.9c2.8,1.3,5.5,1.4,6.8,0.2c2.2-2,1.5-4.5,0.7-6.9
	c0.5-0.2,0.8-0.3,1.2-0.5c2.3-0.8,3.1-2.4,2-5.5c-0.6-1.7-4.5-4.9-6.6-5.5c0,1.4,1.1,2.1,1.8,2.9c1,1.1,1.9,2.1,2.8,3.3
	c0.6,0.8,0.6,1.9-0.5,2.2c-2.2,0.7-4.4,1.5-6.6-0.3C226.3,358.8,225.1,358.1,223.9,357.2z"/>
<path class="st0" d="M291.4,80.3c-0.5,2.3-2.4,4.2-1.1,6.9c-4.9,3.2-9.7,6.6-14.7,9.6c-4.9,3-10.3,3.8-15.9,2.8
	c-0.8-0.1-1.6-0.4-2.3-0.7c-1.1-0.5-1.6-1.4-1.2-2.6c0.7-2.6,1.4-5.2,2.3-7.8c0.7-2.2,2.4-3.5,4.6-4.2c5.2-1.8,10.4-3.6,15.6-5.6
	c1.9-0.7,3.7-0.9,5.6-0.3C286.5,79.2,288.9,79.7,291.4,80.3z"/>
<path class="st0" d="M316.9,103.9c-3.7-1.7-10.5-7.4-19-15.9c0.9-1.3,2-2.6,2.7-4.1c0.7-1.4,1.2-3,1.9-5c4.1-1.2,8.6-1.7,12.9,0.8
	c3.8,2.2,7.6,4.4,11.3,6.6c2,1.2,2.2,2,1.1,4.1c-0.3,0.6-0.7,1.2-1.1,1.8C323.8,96.5,320.3,100.1,316.9,103.9z"/>
<path class="st0" d="M269.1,263.9c-2.7,7.4-3.4,9.7-3.5,17c-3.1,1.3-4.4,4.1-5.1,7c-0.9,4.1-1.5,8.3-2,12.5c-0.5,4.4-0.6,8.9-1,13.4
	c-0.3,3.1,0,6,0.8,9c1.8,6.8,1.9,13.7,1.6,21.1c-2.5-1.2-4.8-2.2-7-3.4c-0.3-0.2-0.6-0.8-0.6-1.2c-0.2-9.6-0.5-19.2-0.5-28.8
	c0-7.3,1.8-14.3,4.1-21.1c2-5.7,4.1-11.4,6.1-17.1c0.6-1.8,1.6-3.3,3-4.6C266.3,266.5,267.7,265.2,269.1,263.9z"/>
<path class="st0" d="M254.7,367.8c-1.8,2.2-3.9,4.2-5.4,6.6c-3.1,5-5.8,10.3-8.7,15.4c-0.4,0.7-0.7,1.4-1.1,2.2
	c-4.4-3.3-8.6-6.5-12.9-9.8c6.5-6.5,12.9-12.9,19.4-19.4c2,2.1,4.4,3,6.8,3.8C253.5,366.8,254.5,366.8,254.7,367.8
	C254.6,367.9,254.7,367.8,254.7,367.8z"/>
<path class="st0" d="M249.9,340.9c3.8,2.2,7.5,4.3,11.1,6.5c1.5,1,3,2.1,4.3,3.4c2.1,2.2,2.3,4.8,1.1,7.5c-0.4,0.8-0.8,1.5-1.4,2.2
	c-2.8,3.9-6.2,5.2-10.9,3.8c-2.5-0.8-4.8-2-7.2-3C246.7,358.5,248.7,344.8,249.9,340.9z M264.3,354.2c-0.1-2.5-1.5-4.5-3.7-5.2
	c-1.7-0.6-4-0.1-4.7,1.4c-0.8,1.6-1.4,3.4-1.6,5.2c-0.2,2.4,1.6,4.4,3.8,4.9c2.1,0.4,4.2-0.8,5.2-3
	C263.8,356.4,264,355.3,264.3,354.2z"/>
<path class="st0" d="M300,694.1c-0.8,0.4-1.5,0.9-2.2,1.3c-0.2-0.1-0.4-0.1-0.5-0.2c-4.4-5-10.1-7-16.5-7.6c-2.6-0.2-5.2-0.6-8-0.9
	c0.2-1.1,0.4-1.9,0.6-2.7C280.6,682.5,295.6,685.6,300,694.1z"/>
<path class="st0" d="M268.8,260.7c0.2-0.8,0.3-1.6,0.5-2.4c0.4-1.2,0.7-2.4,1.2-3.6c1.5-3.7,4.6-5.6,9-5.1c-0.1,0.4,0,1-0.2,1.3
	c-3.3,3.4-6.7,6.8-10,10.1C269.1,260.8,268.9,260.7,268.8,260.7z"/>
<path class="st0" d="M294.7,86.7c-2.2,0-3.1-0.9-2.7-2.7c0.3-1.9,0.7-3.9,2.9-4.9c1.3-0.6,2.7-0.7,3.7,0.3c0.4,0.4,0.8,1.3,0.6,1.6
	c-1,1.8-2.1,3.5-3.3,5.2C295.6,86.6,294.9,86.6,294.7,86.7z"/>
<path d="M284,172.7c-2-0.5-3.4,0-4.2,2c-0.3,0.8-1.1,1.4-1.9,1.9c-0.3-1.9,0.4-3.4,1.9-4.2c5.9-3.2,14.8-0.2,17.3,3.9
	c0.1,0.2,0.1,0.4,0.3,0.8c-1.9,0-2.9-1.5-4.7-2.2c-0.1,2.1-0.9,3.7-2.7,4.5c-0.8,0.4-1.9,0.5-2.8,0.2
	C284.5,179,283.3,176.4,284,172.7z M290.6,175.1c0-1.3-0.2-1.6-1.6-2c-0.6-0.2-1.2-0.3-1.9-0.4c-1.7-0.3-2.7,0.6-2.2,2.3
	c0.3,0.9,0.9,1.7,1.5,2.3c0.7,0.7,1.7,0.9,2.6,0.4C290.1,177.1,290.7,176.3,290.6,175.1z"/>
<path d="M249.8,174.3c-1.6,0.1-3.1,0.3-4.6,0.4c3-2,6.1-2.6,9.5-1.4c0.5,0.2,1,0.6,1.4,1c1.3,1.2,1.8,3.1,1.2,4.3
	c-0.5,1.1-2.5,2.1-3.9,1.9c-1.8-0.2-3.3-1.4-3.6-3C249.6,176.5,249.8,175.6,249.8,174.3z M255.7,177.9c-0.8-2.9-1.8-3.7-4.4-3.4
	c-0.3,1.9-0.2,2.6,0.6,3.2C253.2,178.7,254.4,178.6,255.7,177.9z"/>
<path d="M276,213.5c-5.6,1.7-10.5-0.6-16-1.5C262.3,211.3,272.7,212.3,276,213.5z"/>
<path d="M286,165.2c-3.5,0-7,0-10.5,0C277.5,163.8,282,163.7,286,165.2z"/>
<path d="M253.5,167.6c-2.8-0.7-5.5-1.4-8.3-2C248.4,164.9,251.2,165.1,253.5,167.6z"/>
<path d="M261.4,201.7c-4,0.3-5-0.7-4.6-4.4c0.4,2.2,1.5,3.1,3.1,3.3C260.4,200.7,260.9,201.3,261.4,201.7z"/>
<path d="M265.3,200.5c1.9-1.3,2.1-1.3,3.6,0C267.7,201.3,266.6,200.7,265.3,200.5z"/>
<path d="M223.9,357.2c1.2,0.8,2.4,1.6,3.4,2.4c2.1,1.8,4.4,1,6.6,0.3c1.1-0.3,1.1-1.4,0.5-2.2c-0.8-1.1-1.8-2.2-2.8-3.3
	c-0.8-0.9-1.8-1.5-1.8-2.9c2.1,0.6,6,3.8,6.6,5.5c1.1,3,0.3,4.6-2,5.5c-0.4,0.1-0.7,0.3-1.2,0.5c0.8,2.5,1.5,4.9-0.7,6.9
	c-1.3,1.2-4,1-6.8-0.2c1.4-0.3,2.6-0.6,3.8-0.9c2.1-0.6,2.6-1.3,2.6-3.4c0-1.9-0.5-2.7-2.5-3.1c-2.3-0.5-3.8-2.3-5.7-3.3
	c-0.3-0.2-0.3-0.9-0.5-1.4C223.6,357.5,223.7,357.4,223.9,357.2z"/>
<path d="M264.3,354.2c-0.3,1.1-0.5,2.2-0.9,3.2c-1,2.2-3.1,3.4-5.2,3c-2.2-0.4-4-2.5-3.8-4.9c0.2-1.8,0.8-3.6,1.6-5.2
	c0.7-1.5,3-2,4.7-1.4C262.8,349.7,264.1,351.8,264.3,354.2z M259,351.4c-2.6,0-3.2,0.5-3.3,3.1c-0.1,2.3,1.2,3.8,3,3.8
	c1.7,0,3-1.5,3-3.6C261.9,352.6,260.9,351.4,259,351.4z"/>
<path class="st0" d="M290.6,175.1c0.1,1.2-0.5,2-1.4,2.5c-1,0.5-1.9,0.3-2.6-0.4c-0.6-0.6-1.3-1.5-1.5-2.3c-0.5-1.7,0.4-2.5,2.2-2.3
	c0.6,0.1,1.3,0.2,1.9,0.4C290.3,173.5,290.6,173.8,290.6,175.1z"/>
<path class="st0" d="M255.7,177.9c-1.3,0.6-2.6,0.7-3.8-0.2c-0.9-0.6-1-1.3-0.6-3.2C253.9,174.3,254.9,175,255.7,177.9z"/>
<path class="st0" d="M259,351.4c1.8,0,2.8,1.2,2.8,3.4c-0.1,2.1-1.3,3.6-3,3.6c-1.8,0-3-1.6-3-3.8
	C255.8,351.9,256.4,351.4,259,351.4z"/>
</svg>
