<?xml version="1.0" encoding="utf-8"?>
<!-- Generator: Adobe Illustrator 19.0.0, SVG Export Plug-In . SVG Version: 6.00 Build 0)  -->
<svg version="1.1" id="图层_1" xmlns="http://www.w3.org/2000/svg" xmlns:xlink="http://www.w3.org/1999/xlink" x="0px" y="0px"
	 viewBox="0 0 595.3 841.9" style="enable-background:new 0 0 595.3 841.9;" xml:space="preserve">
<style type="text/css">
	.st0{fill:#FFFFFF;}
</style>
<path class="st0" d="M1.3,1.7c198,0,396,0,593.9,0c0,280,0,560.1,0,840.1c-198,0-396,0-593.9,0C1.3,561.8,1.3,281.7,1.3,1.7z
	 M257.5,102.4c-3.3,4-6.7,7.8-9.8,11.9c-5.4,7-9.5,14.8-11.8,23.4c-1.4,5.4-1.7,10.8,0.9,16.1c0.8,1.6,0.9,3.6,0.8,5.4
	c-0.3,5.8,0.1,11.5,1.3,17.1c1.1,4.9,1.8,9.9,2,14.9c0.4,7,2,13.6,5.5,19.9c3.4,6,7.5,11.5,11.7,16.9c3.6,4.6,8.2,7.5,14,8.5
	c1.6,0.3,3.3,0.6,4.9,0.8c1.3,3,2.2,8,1.9,10.4c-1.7,0.4-3.5,0.9-5.2,1.4c-2.1,0.6-3.6,1.7-4.3,3.8c-0.9,2.6-2,5.1-2.4,7.7
	c-0.5,2.6-1.3,4.7-3.3,6.3c-1.8,1.5-3.1,3.4-3.3,5.9c-0.1,0.6-0.4,1.2-0.6,1.8c-1.2,2.8-2.5,5.5-3.7,8.3c-3.3,8.2-5.8,16.6-6.5,25.4
	c-0.7,9-0.4,18,0.2,27c0,0.6,0,1.2,0,1.9c-0.4,0.2-0.7,0.3-0.9,0.4c-3.3,1.1-6.7,1.3-10.2,1.1c-2.2-0.1-4.3-0.4-6.4-0.4
	c-3.2,0-4.5,1.7-3.9,4.8c0.2,1,0.5,2,0.8,2.9c-4.6,2.3-5.7,3.2-7.2,7c-2,5.2-3.1,10.7-3.9,16.2c-0.7,4.9,2.2,8.6,6.9,10
	c0.1,0,0.1,0.2,0.2,0.4c-0.1,0.2-0.2,0.4-0.4,0.5c-12,11.1-22.5,23.5-32.4,36.5c-9.8,12.9-21.2,24.5-32.3,36.2
	c-1.4,1.5-2.9,3-4.3,4.5c-1.6,1.6-1.8,3.5-0.8,5.5c0.4,0.8,1,1.6,1.6,2.4c0.9,1.2,1.8,2.2,2.6,3.4c2.8,3.9,5.5,7.9,8.3,11.7
	c3.9,5.3,7.8,10.5,11.9,15.6c4.4,5.5,8.9,10.9,13.5,16.1c4.7,5.3,10,9.8,17,11.9c0.3,0.1,0.5,0.3,0.8,0.5c0,0.5-0.1,0.9-0.1,1.2
	c-0.3,3.2,0.3,3.9,3.5,4.3c2.4,0.3,4.7,0.7,7.1,1.2c9.2,1.8,18,4.9,26.9,7.6c1.2,0.3,1.7,1.1,2,2.1c2.3,6,3.9,12.2,4.6,18.5
	c1,7.8,1.4,15.7,2.1,23.6c0.4,5.3,0.6,10.7,1.3,16c1,7.1,2.5,14.1,3.5,21.2c1.1,7.3,2,14.7,3.7,21.9c1.9,8.1,3.8,16.2,5.4,24.3
	c0.9,4.8,1.4,9.6,2,14.5c0.1,0.5-0.4,1.1-0.6,1.7c-1,1.9-2,3.8-1.1,5.5c-1.4,1.6-2.5,2.9-3.7,4.2c-5.3,6-11.1,11.4-17.1,16.7
	c-0.5,0.4-1,1-1.5,1c-1.8,0.3-2.8,1.5-3.7,2.8c-3.6,5.6-6.2,11.7-8.3,18c-1,3.2-0.2,6,2.1,8.4c4.9,5.3,10.9,7.9,18.2,6.9
	c1.7-0.2,3.5-0.4,5.4-0.6c0.4,2.5,2,4,3.7,5.4c0.4,0.4,0.8,0.8,1.2,1.1c2.7,2.5,5.8,4.2,9.4,4.9c5.4,1,10.8,1.1,16.2,1.1
	c8.1,0.1,15.2-2.7,21.5-7.5c5.1-3.9,9.9-8.3,14.8-12.5c3.3-2.9,6.6-5.8,9.8-8.8c1.5-1.4,2.8-2.8,4.1-4.4c1.5-1.8,1.9-4,1.3-6.3
	c-0.5-1.9-0.8-3.7-1.2-5.6c-0.4-1.9-0.5-3.9-1.3-5.6c-0.8-1.8-1.1-3.4-0.8-5.3c0.1-0.9,0.1-1.9,0.1-2.9c0.1-1.8-0.6-3.3-1.9-4.5
	c-1.5-1.4-3-2.8-4.6-4.3c0.1-1.1,0.2-2.2,0.5-3.3c2.2-10.3,4.7-20.5,6.2-31c1.2-8.7,3-17.3,3.1-26.1c0.2-10.1,0.3-20.3-1-30.4
	c-0.8-5.9-2.1-11.6-4.6-17c-1-2.2-1.5-4.3-1.6-6.7c-0.2-6.3,1-12.4,2.3-18.5c0.1-0.6,0.4-1.2,0.6-1.6c2.7-0.5,5.2-0.9,7.7-1.4
	c7.9-1.8,14.9-5.6,21.4-10.4c11.5-8.6,24-15.5,37.3-20.9c5.1-2.1,10.3-3.9,15.5-5.8c2.1,1.3,2.2,1.3,3.6-0.2
	c-0.3-0.7-0.7-1.4-0.9-2.1c-3.5-10.3-6.9-20.6-10.6-30.7c-4-11-8.5-21.8-12.4-32.9c-5.1-14.6-10.3-29.2-16.5-43.4
	c-7.2-16.5-14.9-32.6-25.1-47.5c-0.7-1-0.8-2-0.4-3.1c0.8-2.3,0.6-4.5-0.3-6.8c-1.9-5-3.7-10-5.6-15c-0.8-2.1-1.8-4.1-0.9-6.4
	c0.1-0.3,0-0.6,0-1c-0.1-2.5-0.1-4.9-0.2-7.4c-0.5-10.2-1-20.4-1.6-30.6c-0.4-7-0.8-14-2.2-20.9c-0.1-0.6-0.1-1.4,0.2-1.8
	c1.2-1.5,1.2-3,0.5-4.7c-0.3-0.7-0.5-1.5-0.6-2.3c-1.3-6-3.5-11.7-2.7-18.1c0.5-3.7-1.5-4.8-5.1-3.5c-1.2,0.4-2.2,0.9-3.6,0
	c0.6-3-0.7-5.8-1.7-8.7c-1.1-3.5-2.2-7-3-10.6c-1.6-7.2-0.8-14.4,0.2-21.7c0.2-1.3,0.8-1.9,1.9-2.5c4.8-2.6,7.7-6.6,9-11.8
	c0.4-1.6,0.7-3.3,1-4.9c0.6-3.6,0.8-7.1-1.5-10.4c2.2-1.1,2.8-2.9,2.9-5c0.1-1.1,0.2-2.2,0.2-3.3c0.1-5.2,0.1-10.4,0.1-15.6
	c0-7.5,0-15-0.9-22.5c-0.5-3.8-1.2-7.6-3.2-11c-0.2-0.3-0.2-0.6-0.3-0.9c0.2-0.1,0.3-0.2,0.5-0.2c6.2-0.6,11.8-7.4,9.7-15.2
	c-1.9-7.4-5.9-13.6-11.2-18.9c-4.5-4.5-9.3-4.9-14.8-1.6c-2.6,1.6-4.8,3.6-6.9,6.2c-5.8-4.5-11.9-4.7-17.6-1.8
	c-2.1-0.8-3.6-1.5-5.2-1.8c-1.9-0.4-3.2,0.9-4.5,2.2c-2.5-0.8-5-1.5-7.4-2.3c-2.2-0.8-4.3-0.7-6.5,0.2c-5.4,2.1-10.8,4-16.2,5.9
	c-2.5,0.9-4.6,2.4-5.4,5c-1,3.1-1.8,6.3-2.5,9.5c-0.4,1.9,0.4,3.4,2.2,4.4C256.8,101.9,257.2,102.2,257.5,102.4z"/>
<path d="M257.5,102.4c-0.3-0.2-0.7-0.4-1.1-0.7c-1.7-1-2.6-2.5-2.2-4.4c0.7-3.2,1.5-6.4,2.5-9.5c0.8-2.6,2.9-4.1,5.4-5
	c5.4-1.9,10.8-3.9,16.2-5.9c2.2-0.8,4.3-1,6.5-0.2c2.4,0.8,4.9,1.5,7.4,2.3c1.3-1.2,2.6-2.6,4.5-2.2c1.6,0.4,3.1,1.1,5.2,1.8
	c5.7-2.9,11.9-2.7,17.6,1.8c2.1-2.5,4.2-4.6,6.9-6.2c5.5-3.3,10.3-2.9,14.8,1.6c5.4,5.3,9.3,11.5,11.2,18.9c2,7.8-3.5,14.5-9.7,15.2
	c-0.1,0-0.3,0.1-0.5,0.2c0.1,0.3,0.2,0.6,0.3,0.9c2,3.4,2.7,7.1,3.2,11c0.9,7.5,0.9,15,0.9,22.5c0,5.2,0,10.4-0.1,15.6
	c0,1.1-0.1,2.2-0.2,3.3c-0.1,2.1-0.7,3.9-2.9,5c2.3,3.3,2.1,6.8,1.5,10.4c-0.3,1.6-0.6,3.3-1,4.9c-1.3,5.2-4.2,9.2-9,11.8
	c-1.1,0.6-1.7,1.3-1.9,2.5c-0.9,7.2-1.8,14.5-0.2,21.7c0.8,3.6,1.9,7.1,3,10.6c0.9,2.9,2.2,5.7,1.7,8.7c1.3,0.9,2.4,0.5,3.6,0
	c3.6-1.3,5.6-0.2,5.1,3.5c-0.8,6.4,1.3,12.1,2.7,18.1c0.2,0.8,0.3,1.6,0.6,2.3c0.6,1.7,0.7,3.2-0.5,4.7c-0.3,0.4-0.3,1.2-0.2,1.8
	c1.4,6.9,1.8,13.9,2.2,20.9c0.6,10.2,1.1,20.4,1.6,30.6c0.1,2.5,0.2,4.9,0.2,7.4c0,0.3,0.1,0.7,0,1c-0.9,2.3,0.1,4.3,0.9,6.4
	c1.9,5,3.6,10.1,5.6,15c0.9,2.3,1,4.5,0.3,6.8c-0.4,1.2-0.3,2.1,0.4,3.1c10.2,14.9,18,31,25.1,47.5c6.2,14.2,11.4,28.8,16.5,43.4
	c3.8,11.1,8.4,21.9,12.4,32.9c3.7,10.2,7.1,20.5,10.6,30.7c0.3,0.7,0.6,1.4,0.9,2.1c-1.4,1.6-1.5,1.6-3.6,0.2
	c-5.2,2-10.4,3.7-15.5,5.8c-13.3,5.4-25.8,12.3-37.3,20.9c-6.4,4.8-13.5,8.6-21.4,10.4c-2.5,0.6-5,0.9-7.7,1.4
	c-0.2,0.5-0.5,1-0.6,1.6c-1.3,6.1-2.5,12.2-2.3,18.5c0.1,2.3,0.5,4.5,1.6,6.7c2.6,5.4,3.8,11.1,4.6,17c1.3,10.1,1.2,20.2,1,30.4
	c-0.2,8.8-1.9,17.4-3.1,26.1c-1.5,10.4-4,20.7-6.2,31c-0.2,1.1-0.3,2.2-0.5,3.3c1.6,1.5,3.1,2.9,4.6,4.3c1.3,1.2,1.9,2.7,1.9,4.5
	c0,1,0,1.9-0.1,2.9c-0.2,1.9,0.1,3.5,0.8,5.3c0.8,1.7,0.9,3.7,1.3,5.6c0.4,1.9,0.7,3.8,1.2,5.6c0.6,2.3,0.2,4.5-1.3,6.3
	c-1.2,1.6-2.6,3-4.1,4.4c-3.2,3-6.5,5.9-9.8,8.8c-4.9,4.2-9.7,8.6-14.8,12.5c-6.3,4.8-13.4,7.6-21.5,7.5c-5.4-0.1-10.9-0.1-16.2-1.1
	c-3.6-0.7-6.7-2.4-9.4-4.9c-0.4-0.4-0.8-0.8-1.2-1.1c-1.7-1.4-3.3-3-3.7-5.4c-1.9,0.2-3.7,0.4-5.4,0.6c-7.3,1-13.3-1.6-18.2-6.9
	c-2.2-2.4-3.1-5.2-2.1-8.4c2.1-6.3,4.7-12.4,8.3-18c0.9-1.3,1.9-2.6,3.7-2.8c0.6-0.1,1.1-0.6,1.5-1c6-5.3,11.8-10.7,17.1-16.7
	c1.2-1.3,2.3-2.6,3.7-4.2c-0.8-1.7,0.2-3.6,1.1-5.5c0.3-0.5,0.7-1.1,0.6-1.7c-0.6-4.8-1-9.7-2-14.5c-1.6-8.1-3.5-16.2-5.4-24.3
	c-1.7-7.2-2.6-14.6-3.7-21.9c-1-7.1-2.6-14.1-3.5-21.2c-0.7-5.3-0.8-10.6-1.3-16c-0.6-7.9-1.1-15.8-2.1-23.6
	c-0.8-6.3-2.4-12.5-4.6-18.5c-0.4-1-0.9-1.7-2-2.1c-8.9-2.7-17.7-5.8-26.9-7.6c-2.3-0.5-4.7-0.9-7.1-1.2c-3.3-0.4-3.9-1.1-3.5-4.3
	c0-0.4,0.1-0.8,0.1-1.2c-0.3-0.2-0.5-0.4-0.8-0.5c-7-2.1-12.3-6.7-17-11.9c-4.7-5.2-9.2-10.7-13.5-16.1c-4.1-5.1-8-10.4-11.9-15.6
	c-2.8-3.8-5.5-7.8-8.3-11.7c-0.8-1.2-1.8-2.2-2.6-3.4c-0.6-0.8-1.1-1.6-1.6-2.4c-1-2-0.9-3.8,0.8-5.5c1.5-1.5,2.9-2.9,4.3-4.5
	c11.2-11.7,22.5-23.3,32.3-36.2c9.9-13,20.4-25.4,32.4-36.5c0.2-0.2,0.3-0.4,0.4-0.5c-0.1-0.2-0.1-0.4-0.2-0.4
	c-4.7-1.4-7.6-5.1-6.9-10c0.8-5.5,1.8-11,3.9-16.2c1.5-3.7,2.6-4.7,7.2-7c-0.3-1-0.6-1.9-0.8-2.9c-0.6-3.1,0.7-4.8,3.9-4.8
	c2.2,0,4.3,0.3,6.4,0.4c3.4,0.2,6.9-0.1,10.2-1.1c0.3-0.1,0.6-0.2,0.9-0.4c0-0.7,0-1.3,0-1.9c-0.6-9-1-18-0.2-27
	c0.7-8.8,3.3-17.2,6.5-25.4c1.1-2.8,2.4-5.5,3.7-8.3c0.3-0.6,0.6-1.2,0.6-1.8c0.2-2.5,1.5-4.4,3.3-5.9c2-1.7,2.9-3.7,3.3-6.3
	c0.5-2.6,1.5-5.2,2.4-7.7c0.7-2,2.3-3.2,4.3-3.8c1.8-0.5,3.5-0.9,5.2-1.4c0.4-2.4-0.5-7.4-1.9-10.4c-1.6-0.3-3.2-0.5-4.9-0.8
	c-5.8-1-10.3-3.9-14-8.5c-4.2-5.4-8.3-10.9-11.7-16.9c-3.5-6.2-5.2-12.8-5.5-19.9c-0.3-5-0.9-10-2-14.9c-1.2-5.6-1.6-11.3-1.3-17.1
	c0.1-1.8,0-3.8-0.8-5.4c-2.6-5.3-2.3-10.7-0.9-16.1c2.3-8.6,6.4-16.3,11.8-23.4C250.8,110.2,254.2,106.4,257.5,102.4z M254.8,368.1
	c-0.1-1.1-1.1-1-1.8-1.3c-2.4-0.8-4.8-1.8-6.8-3.8c-6.5,6.5-12.9,12.9-19.3,19.4c4.3,3.3,8.5,6.5,12.9,9.8c0.4-0.8,0.7-1.5,1.1-2.2
	c2.9-5.1,5.6-10.4,8.7-15.4C251,372.2,253,370.2,254.8,368.1c-0.1,0.4-0.3,1-0.6,1.4c-4.8,7.3-8.9,15.1-12.4,23.1
	c-0.7,1.6-1.3,3.2-2,4.9c0.6,0.1,1,0.2,1.4,0.3c6.2,1.2,12.4,2.3,18.5,3.7c7.7,1.8,15.4,4.1,23.3,5.2c3.1,0.4,6.1,0.9,9,1.4
	c4.5-8.2,15.1-33,15.2-35.7c-0.3,0-0.6-0.1-0.9-0.1c-8.5,0.3-16.9-0.2-25.3-1.4c-5.5-0.7-11.1-1.4-16.4-3.1c-1.8-0.6-3.5-1-5.4-0.4
	c-0.7,0.2-1.6,0-2.4,0.1C256.1,367.7,255.5,367.9,254.8,368.1z M278.3,476.5c1.6,0.2,3.1,0.5,4.7,0.7c9.6,1.4,19.3,2.3,29.1,2.4
	c7.6,0.1,15.2,0.4,22.7,0.8c6.8,0.4,13.3-0.5,19.5-3.6c11-5.4,22.6-9.6,34.4-13c2.3-0.7,4.6-1.5,6.8-2.3c1.8-0.7,3.6-1.6,5.6-2.5
	c-3.8-11.2-7.6-22.2-11.4-33.2c-8.3,4-16.4,7.5-24.8,10.2c-8.5,2.7-17.2,4.7-26.1,5.7c-8.8,1-17.7,0.2-26.5-0.4
	c-1.4,4.1-2.6,8-4,11.8c-2.1,6.2-5.4,11.7-9,17.1c-0.6,0.9-1.4,1.8-2.2,2.6c-1.4,1.4-3,2.3-5,2.6c-2,0.3-3.7-0.4-5.4-1.7
	C284.5,476.2,281.5,476.8,278.3,476.5c-1.5-1-3-2-4.5-3c-2.4,0.7-4.8,0.7-7.1-0.3c-1.4-0.6-2.5-1.5-2.9-3c-0.2-0.8-0.5-1.7,0.6-2.4
	c0.3,0.4,0.5,0.7,0.7,1c1.1,2.1,2.8,2.9,5.1,2.8c2.5-0.1,4.6-1.1,6.3-3c0.8-0.9,1.6-1.6,2.8-2.8c-0.2,3.2-1.6,5.1-3.5,6.8
	c4.5,2.3,7.2,1.8,10.1-1.8c0.4-0.5,0.7-1.1,1.2-1.5c0.6-0.5,1.3-1,2.1-1.5c0.7,2-0.6,3.1-1.1,4.6c1.6,1.1,3.2,1.2,5,0.3
	c2.1-1,3.4-2.8,4.7-4.7c5.2-7.5,8.4-15.9,11.2-24.5c0.4-1.2-0.5-1.7-0.7-2.5c1.8-1.8,3.5-3.6,5.3-5.3c8.9-8.5,15.6-18.5,21.5-29.2
	c6.4-11.8,12-24.2,17-36.7c1.6-4.1,3.2-8.2,4.8-12.3c0.8-2.2,0.7-4.3-0.2-6.5c-1.8-4.5-3.4-8.9-5-13.5c-3-8.8-7.1-17.1-12.1-24.9
	c-6.1-9.4-10.9-19.5-15.1-29.8c-0.5-1.1-0.8-2.3-1.2-3.5c0.2-0.1,0.4-0.2,0.6-0.2c2,3.5,4,7.1,6.1,10.9c0.2-0.5,0.3-0.7,0.4-0.9
	c1.2-4.2,1.6-8.6,1.9-13c0.3-3.4,0.3-6.9,0.5-10.3c0.1-1.5-0.3-2.7-1.7-3.6c-1.7-1.1-3.3-2.5-5-3.7c-5.1-3.9-10.5-7.3-16.3-9.9
	c-3.1-1.4-6.3-2.5-9.7-2.4c-6.3,0.2-12,2.4-17.5,5.1c-2.3,1.1-3.4,3.4-5.2,4.9c-0.3,0.3-0.6,0.6-0.8,0.9c-4.6,4.4-7,9.9-8.1,15.9
	c-1.6,8.7,0,17.2,3.3,25.3c1.1,2.7,3,4.7,5.4,6.2c0.4,0.3,0.9,0.3,1.6,0.6c-0.4-1.3-0.7-2.4-1-3.4c0.1-0.1,0.3-0.1,0.4-0.2
	c1,1.5,1.9,3,2.9,4.5c1.9,2.9,3.6,6.1,5.9,8.7c7.1,8.2,14.4,16.2,21.6,24.3c2.2,2.4,4.3,4.9,6.4,7.4c1,1.2,1.8,2.4,2.7,3.7
	c0.8,1.1,0.7,2.1,0.2,3.3c-2,4.5-3.8,9.1-5.8,13.7c-0.5,1.3-0.9,2.5-0.3,3.4c-0.8,1.3-1.7,2.3-2.2,3.4
	c-6.9,16.4-13.7,32.8-21.9,48.6c-0.7,1.3-1.5,1.9-2.7,2.3c-0.5,0.1-0.9,0.2-1.4,0.4c-5.9,1.7-11.7,3.6-17.2,6.6
	c-2,1.1-4.2,1.9-6.3,2.9c-1.2,0.6-2.5,1.1-3.6,1.8c-0.7,0.4-1.2,1.1-1.8,1.7c2.2,3.2,9.4,4.4,12.9,2.7c0.2,2.2-0.1,3.8-1.3,5.9
	c-1,1.8-2.3,3.4-3.3,5.3c-1.8,3.4-3.5,7-5.2,10.5c-0.4,0.9-0.5,1.9,0.3,2.7c0.8,0.8,1.8,0.9,2.6,0.5c1.3-0.7,2.7-1.4,3.8-2.3
	c1-0.9,1.8-2,2.7-3c0.6-0.6,1.1-1.4,2.3-1c0,0.5,0.1,1.1-0.1,1.4c-1.8,3.3-4,6.2-7.8,7.3c-2,0.6-3.8,0.4-5.3-1.2
	c-1.5-1.6-1.6-3.5-0.7-5.3c1.4-3,2.8-5.9,4.4-8.7c1.5-2.5,3.3-4.9,4.9-7.4c0.5-0.7,0.8-1.6,1.2-2.4c-3.1,1.8-5.9,0.9-8.7-0.2
	c-0.4-0.2-0.9-0.4-1.3-0.6c-0.4-0.2-0.9-0.4-1.3-0.4c-4.8-0.2-9.4-1.5-14-2.8c-3.5-1-6.7-2.6-9.7-4.7c-0.6-0.4-1.2-0.7-2.1-1.1
	c-2.2,11.7-4.6,23.1-6.5,34.9c0.7-0.1,1.1-0.2,1.4-0.3c3.7-0.7,7.4-0.7,11.2,0.1c5.1,1.2,10.3,2.3,15.4,3.3
	C259.8,473.1,269.1,474.8,278.3,476.5z M307,118.8c-0.7,1-1.4,1.9-2,2.9c-1.7,2.5-4.1,3.9-7,4c-4,0.1-7.9-0.5-11.7-1.9
	c-1-0.4-2.1-0.7-3.2-0.6c-1.9,0.1-3.8,0.3-5.7,0.7c-5.4,1.2-10.9,2.6-16.3,3.9c-0.8,0.2-1.7,0.5-2.4,1.1
	c-5.4,4.2-10.8,8.5-15.4,13.6c-2.1,2.3-3.4,4.9-4.1,8c-0.5,2.4-0.7,4.7-0.5,7.1c0.4,5.6,0.3,11.2,1.7,16.6c0.6,2.2,1.1,4.5,1.4,6.8
	c0.7,5.2,1.2,10.5,1.7,15.7c0.4,4,1.7,7.6,3.5,11.1c3.6,7.4,8.4,13.9,13.7,20.1c1.9,2.2,4,4,6.6,5c4.6,1.8,9.3,3.2,14.2,1.7
	c5.6-1.7,11.2-3.7,16.7-5.8c3.8-1.4,7.2-3.7,10.4-6.3c4-3.4,7.5-7.4,11-11.3c2.5-2.8,4.7-5.8,5.8-9.5c0.2-0.5,0.5-1,0.7-1.5
	c1.4-2.8,3.9-4.2,6.5-5.5c5.4-2.7,8.5-7,9.7-12.9c0.7-3.4,1.3-6.8,0.6-10.2c-0.5-2.4-1.6-3.2-4-3.1c-1.8,0.1-3.4,0.9-4.7,2.2
	c-2.2,2.4-4.4,4.9-6.4,7.4c-1.5,1.9-2.5,4.1-2.6,6.6c0,0.5-0.2,1-0.5,2.1c-0.9-1.8-1.5-3.1-2.1-4.5c-0.8-2.1-1.5-4.2-2.4-6.3
	c-2.3-4.9-4.6-9.8-7.1-14.6c-2.9-5.7-3.2-11.4-0.6-17.3c0.9-2,1.6-4,2.2-6.1c1.1-3.8,0.7-7.6-1-11.2
	C312.1,123.7,310.2,120.9,307,118.8z M414.7,494.8c-0.8,0.3-1.2,0.4-1.5,0.5c-10,3.8-20,7.6-30,11.3c-8,2.9-16,6.1-24.2,8.3
	c-15.5,4.2-31.4,5.5-47.5,4.8c-11.2-0.5-22.1-2.8-32.7-6.7c-6.4-2.4-13-4.4-19.5-6.5c-13.5-4.2-27.6-5.1-41.5-6.7
	c-0.1,0-0.3,0.1-0.7,0.3c-1.3,8.8-3.2,17.7-4.2,26.8c0.7,0.2,1.1,0.3,1.6,0.4c4.8,0.9,9.8,1.6,14.5,2.8c13.7,3.5,27.2,7.6,40.5,12.4
	c15,5.4,30.4,8.3,46.1,10.2c7.5,0.9,15,0.8,22.5,0.1c7.2-0.6,14.2-2.2,20.5-5.9c5.5-3.2,10.8-6.8,16.1-10.3
	c13.1-8.8,27.3-15.4,42.3-20.4c1.4-0.5,2.9-0.7,4.6-1.1C419.3,508.4,417.1,501.7,414.7,494.8z M217.5,497.9c1,0.2,1.6,0.5,2.2,0.5
	c3.4,0.2,6.8,0.4,10.3,0.6c6.6,0.4,13.2,1.1,19.7,2.5c10,2.2,19.7,5.2,29.4,8.6c11.3,4,22.9,6.3,34.9,6.6c8,0.2,15.9-0.2,23.9-1
	c10.6-1.1,21-3.2,31-6.9c11.9-4.4,23.8-8.7,35.7-13.1c3.1-1.1,6-2.4,9.2-3.7c-3.9-10.1-7.8-20.1-11.6-30.1c-0.5,0.1-0.9,0.2-1.3,0.4
	c-5,1.8-10,3.7-15.1,5.3c-10.4,3.3-20.5,7.1-30.3,11.8c-3.4,1.6-6.8,3.2-10.6,3.5c-2.6,0.2-5.3,0.3-7.9,0.3
	c-9.7-0.2-19.3-0.6-29-0.9c-8.2-0.2-16.4-1-24.5-2.2c-16.6-2.6-33-5.8-49.3-9.6c-3.9-0.9-7.9-1.2-12-0.1
	C220.6,479.4,219.1,488.5,217.5,497.9z M288.8,551.9c-0.1,1-0.2,2-0.2,2.9c-0.1,6.5,0.8,12.8,2.8,19.1c4.2,13.5,7.2,27.3,8.6,41.4
	c1.8,17.6,3.1,35.3,2.6,53c-0.1,4.1,0.1,8.3,0.3,12.4c0.2,4.4,0.3,8.7-1.1,12.9c11,1.7,21.7,3.9,30.9,10.9c0.4-1.6,0.9-3.1,1.2-4.7
	c0.4-1.7,0.4-3.4-0.7-5c-0.6-1-0.8-2.4-0.8-3.7c0-1.6,0.2-3.2,0.6-4.7c2.3-9.9,4.4-19.8,5.7-29.8c0.8-5.9,2.1-11.8,2.6-17.7
	c0.6-7.1,0.9-14.2,0.9-21.3c0.1-12.5-1.4-24.8-5.7-36.7c-0.8-2.3-1.4-4.9-1.4-7.4c0-3.5,0.6-7,1.2-10.4c0.4-2.2,1.1-4.3,1.8-6.7
	c-8.4,0.5-16.6,0.7-24.7-0.5C305.4,554.6,297.3,553.2,288.8,551.9z M252,540.2c0.3,0.9,0.5,1.3,0.6,1.8c1,3.2,2.2,6.3,3.1,9.6
	c1.6,5.4,2.1,10.9,2.6,16.5c0.6,7.4,1.1,14.8,1.7,22.2c0.3,3.9,0.6,7.8,1.2,11.7c1.1,7.1,2.3,14.2,3.5,21.3c1,5.9,1.9,11.8,3,17.7
	c0.9,4.5,2.1,9,3.2,13.5c2.3,8.9,3.3,18,4.1,27.2c9.7-1.2,18.4,1,26.1,8.2c0.1-2.4,0.2-4.2,0.2-6c0-7.6-0.2-15.2-0.2-22.7
	c0-12.5-0.7-24.9-2.1-37.3c-0.8-7.4-1.8-14.7-3-22c-1.7-10.2-4.6-20.1-7.5-29.9c-1.9-6.4-2.5-12.8-1.3-19.4c0.1-0.3,0-0.6,0-0.6
	C275.5,547.8,264,544,252,540.2z M308,117.6c1,1.1,2.2,2.3,3.3,3.6c4.9,5.2,6.9,11.2,4.7,18.2c-0.6,1.7-1.2,3.5-1.9,5.1
	c-2.5,5.5-2.3,10.8,0.5,16.1c0.6,1.1,1.1,2.1,1.6,3.2c2.6,5.4,5.1,10.8,7.6,16.2c0.1,0.2,0.4,0.4,0.7,0.8c2.4-4.7,5.7-8.4,9.6-11.7
	c1.5-1.3,3.2-2,5.2-2.2c4.5-0.4,5.1-1,5.1-5.4c0.1-5.1,0-10.2-0.1-15.3c-0.2-8.8,0-17.6-1.3-26.3c-0.8-5.4-3-9.8-7.7-12.9
	c-2.6-1.7-4.8-3.9-6.8-6.4c-0.7-0.9-1.4-1.7-2.5-3c-0.4,0.6-0.6,1.1-1,1.5c-1.8,2.1-3.7,4.2-5.5,6.3c-1.8,2-2.9,2.2-5.2,0.8
	c-0.9-0.6-1.8-1.1-2.7-1.7c-0.5,2.3-0.8,4.4-1.4,6.5C309.6,113.1,308.8,115.1,308,117.6z M376.7,395.7c-4.6,2.6-8.8,5-13.1,7.2
	c-4.3,2.2-8.8,3.8-13.7,4.1c-3.6,0.3-7.3,0.2-11,0.1c-1,0-1.7,0.2-2.1,1.1c-0.2,0.4-0.5,0.8-0.7,1.2c-6.2,10.6-13,20.7-22,29.1
	c-0.2,0.2-0.3,0.5-0.5,0.8c15.9,1,31.2-0.1,46.3-4.9c9.8-3.1,19.4-6.8,28.8-11.5C384.5,413.7,380.6,404.6,376.7,395.7z M340.1,710.3
	c-0.1,0.4-0.2,0.7-0.3,1c-0.2,1.3-0.3,2.5-0.5,3.8c-0.1,0.8-0.7,1.4-1.5,1.1c-0.5-0.2-0.9-0.8-1.1-1.3c-0.2-0.4,0-0.9,0-1.4
	c0.3-2.4,0.8-4.7,1.1-7.1c0.3-2.4,0.5-4.8,0.6-7.1c0.1-1.1-0.1-2.2-1.3-3c-0.5,1.9-1,3.8-1.6,5.6c-0.5,1.8-1.3,3.6-2.8,4.9
	c-1.5-0.7-2.9-1.4-4.4-2.1c-1.6-0.8-3.2-1.9-4.8-2.6c-7-3.1-14.3-4.9-21.7-6.5c-2.3-0.5-2.5-0.3-2.7,2.2c0,0.4-0.1,0.9-0.1,1.4
	c1.3,0.3,2.4,0.6,3.6,0.8c10,2,19.4,5.3,27.5,11.7c0.3,0.2,0.8,0.3,1.3,0.3c2.1,0,3,1,2.3,3c-0.5,1.4-1.4,2.7-2.3,3.9
	c-4.3,5.4-9.9,9.1-16.3,11.3c-9.5,3.4-19.4,3.8-29.3,2.5c-3.5-0.4-6.7-1.5-8.5-5.4c-2.9,3.3-5.7,6.2-8.2,9.4
	c-1.8,2.2-4.1,4.3-4.1,7.6c-1.2,1.5-0.3,2.7,0.8,3.7c1.3,1.3,2.6,2.6,4.1,3.7c2.5,1.9,5.3,3.3,8.5,3.5c4.5,0.3,8.9,0.6,13.4,0.9
	c8,0.5,14.9-2.5,21.1-7.2c5-3.8,9.6-8.1,14.4-12.3c3.5-3.1,7-6.3,10.4-9.5c1.3-1.2,2.5-2.5,3.5-3.9c0.5-0.8,0.9-2,0.8-2.9
	C341.4,717,340.8,713.7,340.1,710.3z M237.2,147.9c0.4-0.2,0.6-0.3,0.6-0.4c1.2-3.5,3.5-6.2,6.1-8.7c8.9-8.6,19-15.6,29.3-22.2
	c0.3-0.2,0.8-0.3,1.2-0.4c0,0.1,0.1,0.2,0.1,0.3c-3.7,2.9-7.4,5.8-11.5,9c0.7-0.1,1-0.1,1.2-0.1c5-2.2,10.4-3.1,15.8-3.6
	c2.2-0.2,4.4-0.5,6.4,1.1c0.3,0.3,0.9,0.2,1.4,0.2c1.1,0.1,2.2,0.2,3.3,0.3c2,0.2,4,0.5,5.9,0.6c3.1,0.2,5.5-1.1,7.1-3.6
	c1.9-3.1,3.7-6.3,5.2-9.7c0.7-1.6,0.7-3.6,0.9-5.4c0.1-1.4-0.5-2.4-1.6-3.3c-2-1.7-3.9-3.5-5.9-5.3c-2-1.8-4-3.7-6-5.5
	c-2.1-1.8-4-2-6.3-0.6c-1.1,0.7-2.1,1.4-3.2,2.1c-4.1,2.6-8.1,5.4-12.3,7.8c-4.3,2.4-9.1,3-13.9,2.3c-1.3-0.2-2.1,0.2-2.9,1.1
	c-4.6,5.2-8.7,10.9-12.4,16.7c-3.3,5.1-5.8,10.6-7.6,16.5C237.2,140.7,236.7,144.1,237.2,147.9z M178.6,437.2
	c-6,6.3-11.9,12.4-17.7,18.5c0.1,0.2,0.1,0.3,0.1,0.4c0.3,0.3,0.5,0.6,0.8,0.9c8.3,8.5,17.9,15,28.7,19.9c8,3.6,16.2,6.7,23.9,10.9
	c0.5,0.3,1.2,0.5,2,0.8c1.5-8.5,2.9-16.9,4.3-25.3c-8.1-2.5-14.6-7.7-21.7-11.7C191.8,447.4,184.7,443.1,178.6,437.2z M312.5,348.2
	c0.1-0.1,0.2-0.3,0.3-0.4c-0.5-0.7-1-1.3-1.6-2c-6.4-7.2-12.8-14.4-19.2-21.7c-3.8-4.2-7.8-8.3-10.3-13.5c-0.8-1.7-1.8-3.2-3.9-3.3
	c-0.3,0-0.6-0.2-0.9-0.4c-3.2-2.1-6-4.6-7.3-8.3c-0.9-2.5-1.7-5.1-2.4-7.7c-0.6-2-0.9-4.2-1.3-6.4c-1.7,0.7-2.5,1.9-3,3.5
	c-1.5,4.9-1.7,10-1.9,15.2c-0.1,3.4-0.2,6.9-0.7,10.3c-0.4,3-0.1,5.8,0.5,8.8c0.7,3.6,1.4,7.2,1.6,10.9c0.3,3.8,0.1,7.6,0.1,11.8
	C279.3,345.9,295.9,347.1,312.5,348.2z M290.8,411.1c-0.9-0.2-1.4-0.3-1.8-0.4c-6.2-1.2-12.4-2.3-18.5-3.7c-9.8-2.4-19.6-5-29.4-7.6
	c-0.6-0.2-1.2-0.2-1.9-0.3c-0.2,0.4-0.5,0.8-0.6,1.1c-3.9,9.3-6.4,19-8.6,28.8c-0.3,1.4,0.2,2.2,1.4,2.9c3.6,2,7.3,3.9,11.4,4.9
	c3.2,0.8,6.5,1.5,9.3,1.6c1.1-1.4,1.8-2.7,2.9-3.5c1.5-1.2,3.2-2,4.9-2.9c1.9-1,3.9-1.8,5.8-2.8c5.5-2.9,11.3-5.2,17.5-6.2
	c0.8-0.1,1.7-0.4,2-0.4C287.2,418.7,288.9,415,290.8,411.1z M226.7,431.9c-4.9-3.3-9.1-7-13-11c-3.8-4-7.6-8.1-11.4-12.2
	c-7.6,9.4-15.1,18.6-22.6,27.8c3.3,2.2,6.7,4.7,10.2,6.8c5.3,3.2,10.7,6.3,16.1,9.4c3.2,1.9,6.5,3.8,9.7,5.7c1.7,1,3.4,1.7,5.6,1.7
	C223.1,450.7,224.9,441.3,226.7,431.9z M159.1,456.7c-0.6,0.8-1.3,1.6-1.7,2.4c-0.3,0.6-0.6,1.4-0.4,2c0.8,1.9,1.5,3.9,2.8,5.5
	c7.1,9.3,14.2,18.4,21.4,27.6c7.7,9.9,15.8,19.4,26,26.9c1.1,0.8,2.1,1.6,3.5,2.6c1.8-10.9,3.5-21.4,5.3-32
	c-4.6-2.3-8.9-4.5-13.4-6.6c-5.9-2.8-12-5.2-17.8-8.1c-6.3-3.1-12.2-7-17.3-11.8C164.7,462.5,162.2,459.9,159.1,456.7z M296.6,701.3
	c-3.1,4-6.6,7.8-9.1,12.4c-2.2,4-4.6,7.8-7.7,11.2c-1.1,1.2-1,1.6,0,2.9c1.1,1.4,2.8,1.7,4.5,2c10.4,1.9,20.5,0.9,30.4-2.6
	c5.9-2.1,11.1-5.5,15-10.7c0.4-0.5,0.6-1,0.9-1.6c-1.1-0.6-2-1-2.8-1.6c-6.5-4.8-13.7-8.1-21.6-9.9
	C303.1,702.7,300.1,702,296.6,701.3z M264.6,347c0.8,0.6,1.4,1.1,2,1.6c3.4,3.1,4.3,7.2,2,11.3c-1,1.8-2.5,3.3-3.8,4.9
	c-0.3,0.4-0.7,0.8-1.1,1.3c0.6,0.1,0.9,0.2,1.2,0.2c5.5,0.7,11.1,1.4,16.6,2.2c8.5,1.1,17,1.3,25.6,0.9c1.5-0.1,2.2-0.6,2.8-2
	c1.9-4.3,3.9-8.6,5.9-12.8c0.4-0.8,0.7-1.5,1.1-2.2c-0.9-1.3-2-1.5-3.3-1.5c-1.6,0-3.2-0.1-4.8-0.2c-7.4-0.6-14.8-1.2-22.2-1.8
	c-3.5-0.3-7-0.5-10.5-0.8C272.3,347.7,268.6,347.3,264.6,347z M227.4,428.9c2.4-12.2,6.5-23.3,11.1-34.2c-4.5-3.9-8.8-7.6-13.2-11.3
	c-7.7,7.7-15.4,15-21.7,23.7C211.2,414.6,218.3,422.5,227.4,428.9z M247.9,712.1c-0.8,1.2-1.5,2.1-2,3.1c-2.3,5.2-4.5,10.4-6.6,15.6
	c-0.4,0.9-0.5,2-0.4,3c0.1,0.9,0.3,2,0.9,2.7c3.3,4,7.2,7.1,12.7,7.1c2.9,0,5.9-0.4,8.8-0.6c0.9-0.1,1.4-0.5,1.9-1.2
	c1.6-2.5,3.2-5.1,5.1-7.5c2.3-2.8,4.8-5.4,7.3-7.9c3.6-3.7,6.9-7.7,9.4-12.3c0.2-0.4,0.4-0.9,0.7-1.8c-1.1,0.6-1.8,1-2.4,1.4
	c-6.3,3.8-13.1,6-20.4,5.9C256.7,719.5,251.3,718,247.9,712.1z M375.1,392.1c-4.8-10.5-10.7-20.5-16.7-30.9
	c-3.2,7.7-6.2,15.1-9.4,22.4c-3.2,7.3-6.8,14.5-10.3,21.8C354.3,406,368,398.8,375.1,392.1z M278.2,237.4c2.3,3,2.5,6.6,3.5,10.2
	c0.6-0.5,0.9-0.7,1.2-1c4.4-3.9,9.2-7.4,14.3-10.4c2.8-1.6,5.7-2.5,8.9-2.1c3.2,0.4,6.3,0.8,9.5,1.3c6.4,1.1,12.9,2.2,19.3,3.4
	c0.4,0.1,0.9,0.1,1.3,0.1c-2.1-6.8-5.1-13.1-6.2-20.1c-1.1-7.1-0.2-14,1.5-21.1c-3,1.3-4.4,3.7-5.3,6.1c-1.1,3-2.4,5.7-4.5,8.1
	c-2.4,2.7-4.7,5.4-7.2,8c-5,5.1-10.6,9.2-17.3,11.6C291,233.6,285,235.9,278.2,237.4z M344,240.5c-0.9,0.1-1.7-0.1-2,0.2
	c-1.4,1.5-3.1,1-4.7,0.7c-9.2-1.6-18.4-3.3-27.5-4.9c-4.5-0.8-8.9-0.5-12.8,2.2c-3.5,2.4-7.1,4.7-10.6,7c-1,0.7-1.9,1.5-3.1,2.4
	c0.5,0.1,0.7,0.2,0.8,0.1c1.1-0.5,2.1-1.1,3.2-1.6c7.3-3.4,14.8-4.4,22.4-0.9c4.2,2,8.3,4.2,12.2,6.6c4,2.6,7.8,5.6,11.6,8.5
	c2.4,1.8,4.9,3.5,7.9,4.5c1.3,0.4,2.8,0.7,4.2,0.7c1.6,0.1,2-0.9,1.6-2.4c-1.1-4.1-2.2-8.1-3.2-12.2c-0.6-2.4-0.8-4.9-0.3-7.4
	C343.9,243.1,343.9,242,344,240.5z M251.2,711.7c1,1.8,2.3,2.6,3.6,3.2c3,1.4,6.3,1.8,9.6,1.6c7.4-0.5,14-3,20-7.2
	c1.7-1.2,3.1-2.8,5.3-3.1c0.3,0,0.5-0.3,0.7-0.6c1.9-2.4,3.8-4.9,5.9-7.5c-0.9-1-1.6-2.1-2.5-3c-3-3-6.7-4.6-10.8-5.2
	c-2.7-0.4-5.4-0.6-8.1-1c-1.7-0.3-2.8,0.2-3.8,1.6c-5.4,7.4-11.6,14-18.5,19.9C252.2,711,251.7,711.3,251.2,711.7z M350.3,325.6
	c-1.2-19.2-1.5-38-3-56.9c-5.2,0.5-9.3-1.9-13.6-4.3c0.2,2.3,0.5,4.3,0.5,6.3c-0.2,4.9-0.5,9.9-0.8,14.8c-0.1,2-0.6,4-1.7,5.7
	c-0.7,1-0.5,1.8,0,2.8c6,10.4,11.9,20.7,17.8,31.1C349.6,325.2,349.7,325.2,350.3,325.6z M321,81.2c2.3,1.3,4.4,2.3,6.4,3.5
	c4.1,2.4,4.6,4.6,2.1,8.6c-0.5,0.7-1,1.4-1.5,2.2c-0.3,0.5-0.7,1-1.2,1.7c3.6,3,7,6,10.6,8.8c2.5,1.9,5.3,2.1,8.1,0.6
	c2.4-1.3,4-3.4,4.6-6.1c0.6-2.7,0.1-5.4-0.8-8c-1.5-4-3.5-7.7-6.1-11c-1.5-1.9-3.3-3.7-5.1-5.3c-2-1.7-4.5-2.2-7-1.4
	C327.2,75.7,324,77.9,321,81.2z M231.3,351.3c-0.1-0.9-0.2-1.3-0.2-1.8c0-1.5-0.4-2-1.8-1.4c-1.1,0.5-2.4,1.1-3.2,2
	c-1,1.3-1.9,2.8-2.3,4.4c-1.3,4.4-2.5,8.9-3.7,13.3c-1.2,4.3,1.7,8.1,5.3,9.9c0.8,0.4,1.3,0.3,1.9-0.3c1.7-1.5,3.4-2.9,5-4.5
	c3.1-3,6-6.3,9.4-8.9c2.6-1.9,3.1-4.2,3.5-7c0.6-4.6,1.4-9.1,2.2-13.7c0.2-1.2,0.7-2.4,1.1-3.7c-3.1,0.4-6,1.1-8.9,1.2
	c-2.9,0.1-5.8-0.2-8.8-0.4c-0.4,2.1,0.3,3.6,1.3,5c1.3,1.7,3.3,2.4,5.2,3.2c1.2,0.5,2.4,0.9,3.7,1.3c-3.1,0.9-6,0.9-8.7-0.7
	C232.1,350.1,231.8,350.5,231.3,351.3z M291.5,81.1c-2.5-0.6-4.9-1.1-7.2-1.8c-1.9-0.6-3.7-0.4-5.6,0.3c-5.1,1.9-10.3,3.8-15.5,5.6
	c-2.2,0.8-3.8,2-4.6,4.2c-0.9,2.6-1.5,5.2-2.3,7.8c-0.3,1.2,0.2,2.1,1.2,2.5c0.7,0.3,1.5,0.6,2.3,0.7c5.6,0.9,11,0.2,15.9-2.8
	c4.9-3,9.7-6.3,14.6-9.6C289.1,85.3,291,83.3,291.5,81.1z M317,104.6c3.4-3.8,6.8-7.4,9.7-11.5c0.4-0.6,0.8-1.2,1.1-1.8
	c1.1-2.1,1-2.9-1.1-4.1c-3.7-2.3-7.5-4.4-11.3-6.6c-4.3-2.5-8.8-2-12.9-0.8c-0.7,1.9-1.1,3.5-1.9,5c-0.7,1.4-1.8,2.7-2.7,4
	C306.5,97.2,313.3,102.9,317,104.6z M269.2,264.3c-1.4,1.3-2.8,2.6-4.2,3.9c-1.4,1.3-2.4,2.8-3,4.5c-2,5.7-4.2,11.4-6.1,17.1
	c-2.3,6.8-4.2,13.8-4.1,21c0,9.6,0.3,19.1,0.5,28.7c0,0.4,0.3,1,0.6,1.2c2.2,1.1,4.5,2.2,7,3.4c0.3-7.3,0.2-14.2-1.6-21
	c-0.8-3-1.1-5.9-0.8-9c0.5-4.4,0.5-8.9,1-13.3c0.5-4.2,1.1-8.4,2-12.5c0.7-3,2.1-5.7,5.1-7C265.9,274,266.5,271.7,269.2,264.3z
	 M250.1,341.1c-1.3,3.9-3.2,17.6-2.9,20.3c2.3,1,4.7,2.2,7.2,3c4.6,1.4,8,0.2,10.8-3.7c0.5-0.7,1-1.5,1.4-2.2
	c1.2-2.7,1.1-5.3-1.1-7.5c-1.3-1.3-2.7-2.4-4.3-3.4C257.6,345.4,253.9,343.3,250.1,341.1z M300.1,693.7
	c-4.4-8.5-19.3-11.6-26.6-10.1c-0.2,0.7-0.4,1.6-0.6,2.7c2.8,0.3,5.4,0.7,8,0.9c6.4,0.6,12.1,2.6,16.5,7.6c0.1,0.1,0.3,0.1,0.5,0.2
	C298.6,694.5,299.3,694.1,300.1,693.7z M268.9,261.1c0.1,0.1,0.3,0.1,0.4,0.2c3.3-3.4,6.7-6.7,10-10.1c0.2-0.3,0.2-0.8,0.2-1.3
	c-4.4-0.4-7.5,1.4-9,5.1c-0.5,1.2-0.9,2.4-1.2,3.6C269.2,259.5,269.1,260.3,268.9,261.1z M294.8,87.5c0.2-0.1,0.9-0.1,1.1-0.5
	c1.2-1.7,2.3-3.4,3.3-5.2c0.2-0.3-0.2-1.2-0.6-1.6c-1.1-1-2.4-0.9-3.7-0.3c-2.1,1-2.5,2.9-2.9,4.9C291.7,86.5,292.6,87.4,294.8,87.5
	z"/>
<path class="st0" d="M278.3,476.5c-9.2-1.7-18.5-3.4-27.7-5.2c-5.2-1-10.3-2.1-15.4-3.3c-3.7-0.9-7.4-0.8-11.2-0.1
	c-0.4,0.1-0.7,0.1-1.4,0.3c1.9-11.8,4.3-23.2,6.5-34.9c0.9,0.5,1.5,0.7,2.1,1.1c3,2.1,6.2,3.7,9.7,4.7c4.6,1.3,9.2,2.6,14,2.8
	c0.5,0,0.9,0.2,1.3,0.4c0.4,0.2,0.9,0.4,1.3,0.6c2.8,1.1,5.6,1.9,8.7,0.2c-0.4,0.8-0.7,1.7-1.2,2.4c-1.6,2.5-3.5,4.8-4.9,7.4
	c-1.6,2.8-3,5.8-4.4,8.7c-0.9,1.9-0.8,3.7,0.7,5.3c1.5,1.6,3.3,1.8,5.3,1.2c3.8-1.1,6-4,7.8-7.3c0.2-0.4,0.1-0.9,0.1-1.4
	c-1.2-0.3-1.7,0.4-2.3,1c-0.9,1-1.7,2.2-2.7,3c-1.1,0.9-2.5,1.7-3.8,2.3c-0.9,0.4-1.9,0.3-2.6-0.5c-0.8-0.8-0.7-1.8-0.3-2.7
	c1.7-3.5,3.4-7,5.2-10.5c1-1.8,2.3-3.5,3.3-5.3c1.2-2.1,1.5-3.7,1.3-5.9c-3.4,1.7-10.7,0.4-12.9-2.7c0.6-0.5,1.1-1.3,1.8-1.7
	c1.2-0.7,2.4-1.2,3.6-1.8c2.1-1,4.3-1.8,6.3-2.9c5.4-3,11.3-4.9,17.2-6.6c0.5-0.1,0.9-0.2,1.4-0.4c1.2-0.4,2-1,2.7-2.3
	c8.2-15.8,15-32.2,21.9-48.6c0.5-1.1,1.3-2.1,2.2-3.4c-0.6-0.9-0.3-2.1,0.3-3.4c1.9-4.5,3.8-9.1,5.8-13.7c0.5-1.2,0.6-2.3-0.2-3.3
	c-0.9-1.2-1.7-2.5-2.7-3.7c-2.1-2.5-4.3-5-6.4-7.4c-7.2-8.1-14.5-16.1-21.6-24.3c-2.3-2.6-3.9-5.8-5.9-8.7c-1-1.5-2-3-2.9-4.5
	c-0.1,0.1-0.3,0.1-0.4,0.2c0.3,1,0.6,2.1,1,3.4c-0.7-0.2-1.2-0.3-1.6-0.6c-2.4-1.6-4.3-3.6-5.4-6.2c-3.3-8.1-5-16.6-3.3-25.3
	c1.1-6,3.6-11.6,8.1-15.9c0.3-0.3,0.5-0.6,0.8-0.9c1.8-1.5,2.9-3.7,5.2-4.9c5.6-2.7,11.2-5,17.5-5.1c3.4-0.1,6.6,1,9.7,2.4
	c5.8,2.6,11.2,6,16.3,9.9c1.7,1.3,3.2,2.6,5,3.7c1.4,0.9,1.8,2.1,1.7,3.6c-0.2,3.4-0.3,6.9-0.5,10.3c-0.3,4.4-0.7,8.8-1.9,13
	c-0.1,0.2-0.2,0.4-0.4,0.9c-2.1-3.8-4.1-7.3-6.1-10.9c-0.2,0.1-0.4,0.2-0.6,0.2c0.4,1.2,0.7,2.4,1.2,3.5c4.2,10.4,9,20.4,15.1,29.8
	c5,7.8,9.1,16.1,12.1,24.9c1.5,4.5,3.2,9,5,13.5c0.9,2.2,1,4.3,0.2,6.5c-1.6,4.1-3.2,8.2-4.8,12.3c-5,12.5-10.5,24.8-17,36.7
	c-5.8,10.7-12.6,20.8-21.5,29.2c-1.8,1.7-3.5,3.5-5.3,5.3c0.1,0.8,1.1,1.3,0.7,2.5c-2.8,8.6-6,17-11.2,24.5
	c-1.3,1.9-2.6,3.6-4.7,4.7c-1.7,0.9-3.3,0.8-5-0.3c0.6-1.5,1.8-2.6,1.1-4.6c-0.8,0.6-1.5,1-2.1,1.5c-0.5,0.4-0.8,1-1.2,1.5
	c-2.9,3.6-5.6,4.2-10.1,1.8c1.9-1.7,3.3-3.6,3.5-6.8c-1.2,1.2-2.1,1.9-2.8,2.8c-1.7,1.9-3.7,2.9-6.3,3c-2.3,0.1-4-0.7-5.1-2.8
	c-0.2-0.3-0.4-0.6-0.7-1c-1.1,0.7-0.8,1.6-0.6,2.4c0.4,1.5,1.5,2.4,2.9,3c2.3,1,4.6,1,7.1,0.3C275.3,474.6,276.8,475.6,278.3,476.5
	L278.3,476.5z"/>
<path class="st0" d="M307,118.8c3.2,2.1,5.1,4.9,6.6,8c1.8,3.6,2.1,7.3,1,11.2c-0.6,2.1-1.3,4.1-2.2,6.1c-2.6,5.9-2.3,11.6,0.6,17.3
	c2.5,4.8,4.8,9.7,7.1,14.6c0.9,2,1.6,4.2,2.4,6.3c0.5,1.4,1.2,2.7,2.1,4.5c0.3-1.1,0.5-1.6,0.5-2.1c0.1-2.5,1.1-4.7,2.6-6.6
	c2-2.5,4.2-5,6.4-7.4c1.2-1.3,2.8-2.1,4.7-2.2c2.4-0.2,3.6,0.7,4,3.1c0.7,3.4,0.1,6.8-0.6,10.2c-1.2,5.8-4.3,10.2-9.7,12.9
	c-2.6,1.3-5.1,2.7-6.5,5.5c-0.2,0.5-0.6,1-0.7,1.5c-1.1,3.7-3.2,6.7-5.8,9.5c-3.5,3.9-7,7.9-11,11.3c-3.1,2.7-6.5,4.9-10.4,6.3
	c-5.5,2.1-11.1,4-16.7,5.8c-4.9,1.5-9.6,0-14.2-1.7c-2.7-1-4.8-2.8-6.6-5c-5.3-6.2-10.1-12.8-13.7-20.1c-1.7-3.5-3.1-7.2-3.5-11.1
	c-0.5-5.2-1-10.5-1.7-15.7c-0.3-2.3-0.8-4.6-1.4-6.8c-1.4-5.5-1.3-11.1-1.7-16.6c-0.2-2.4,0-4.7,0.5-7.1c0.6-3.1,2-5.7,4.1-8
	c4.6-5.1,10-9.4,15.4-13.6c0.7-0.5,1.5-0.8,2.4-1.1c5.4-1.3,10.8-2.7,16.3-3.9c1.9-0.4,3.8-0.6,5.7-0.7c1.1,0,2.2,0.2,3.2,0.6
	c3.8,1.5,7.7,2,11.7,1.9c2.9,0,5.4-1.4,7-4C305.6,120.7,306.3,119.8,307,118.8z M284.2,173.3c-0.7,3.6,0.4,6.3,3.1,7
	c0.9,0.2,2,0.1,2.8-0.2c1.8-0.8,2.6-2.4,2.7-4.5c1.8,0.7,2.9,2.2,4.7,2.2c-0.1-0.4-0.2-0.6-0.3-0.8c-2.5-4.1-11.3-7.2-17.3-3.9
	c-1.5,0.8-2.3,2.3-1.9,4.2c0.8-0.6,1.5-1.2,1.9-1.9C280.8,173.3,282.2,172.8,284.2,173.3z M249.9,174.8c0,1.3-0.1,2.2,0,3.2
	c0.3,1.6,1.8,2.8,3.6,3c1.3,0.2,3.4-0.9,3.9-1.9c0.6-1.3,0.1-3.1-1.2-4.3c-0.4-0.4-0.9-0.8-1.4-1c-3.3-1.2-6.5-0.6-9.4,1.4
	C246.8,175.1,248.3,175,249.9,174.8z M276.2,214c-3.3-1.3-13.7-2.3-15.9-1.5C265.6,213.4,270.6,215.7,276.2,214z M286.1,165.8
	c-4-1.5-8.6-1.4-10.4,0C279.2,165.8,282.6,165.8,286.1,165.8z M253.7,168.2c-2.3-2.5-5.2-2.7-8.3-2
	C248.2,166.8,251,167.5,253.7,168.2z M261.5,202.2c-0.5-0.4-0.9-0.9-1.5-1c-1.6-0.3-2.7-1.1-3.1-3.3
	C256.5,201.5,257.6,202.5,261.5,202.2z M265.4,201c1.3,0.3,2.4,0.8,3.6,0C267.6,199.7,267.4,199.7,265.4,201z"/>
<path class="st0" d="M414.7,494.8c2.3,6.9,4.6,13.6,7,20.5c-1.7,0.4-3.2,0.6-4.6,1.1c-15,5-29.2,11.6-42.3,20.4
	c-5.3,3.6-10.6,7.1-16.1,10.3c-6.3,3.7-13.3,5.3-20.5,5.9c-7.5,0.6-15,0.7-22.5-0.1c-15.7-1.9-31.2-4.8-46.1-10.2
	c-13.3-4.8-26.8-8.9-40.5-12.4c-4.8-1.2-9.7-1.9-14.5-2.8c-0.5-0.1-0.9-0.2-1.6-0.4c1-9.1,2.9-18,4.2-26.8c0.4-0.2,0.5-0.3,0.7-0.3
	c13.9,1.6,28,2.5,41.5,6.7c6.5,2,13.1,4.1,19.5,6.5c10.6,3.9,21.5,6.2,32.7,6.7c16,0.7,31.9-0.6,47.5-4.8c8.2-2.2,16.2-5.4,24.2-8.3
	c10-3.7,20-7.5,30-11.3C413.6,495.2,413.9,495.1,414.7,494.8z"/>
<path class="st0" d="M217.5,497.9c1.6-9.4,3.1-18.5,4.6-27.6c4.1-1.1,8.1-0.9,12,0.1c16.3,3.9,32.7,7.1,49.3,9.6
	c8.1,1.3,16.3,2,24.5,2.2c9.7,0.2,19.3,0.6,29,0.9c2.6,0.1,5.3,0,7.9-0.3c3.8-0.3,7.2-1.9,10.6-3.5c9.8-4.7,19.9-8.5,30.3-11.8
	c5.1-1.6,10.1-3.5,15.1-5.3c0.4-0.1,0.7-0.2,1.3-0.4c3.9,10,7.7,20,11.6,30.1c-3.2,1.3-6.2,2.6-9.2,3.7
	c-11.9,4.4-23.8,8.8-35.7,13.1c-10,3.7-20.4,5.8-31,6.9c-7.9,0.8-15.9,1.2-23.9,1c-12-0.3-23.6-2.6-34.9-6.6
	c-9.6-3.4-19.4-6.5-29.4-8.6c-6.5-1.4-13.1-2.1-19.7-2.5c-3.4-0.2-6.8-0.4-10.3-0.6C219.1,498.4,218.5,498.2,217.5,497.9z"/>
<path class="st0" d="M288.8,551.9c8.5,1.3,16.6,2.7,24.7,3.9c8.1,1.1,16.3,0.9,24.7,0.5c-0.7,2.5-1.5,4.6-1.8,6.7
	c-0.6,3.4-1.2,6.9-1.2,10.4c0,2.5,0.5,5.1,1.4,7.4c4.3,11.9,5.8,24.2,5.7,36.7c-0.1,7.1-0.3,14.2-0.9,21.3
	c-0.5,5.9-1.8,11.8-2.6,17.7c-1.4,10-3.5,19.9-5.7,29.8c-0.4,1.5-0.6,3.2-0.6,4.7c0,1.2,0.2,2.7,0.8,3.7c1,1.7,1,3.3,0.7,5
	c-0.3,1.5-0.8,3.1-1.2,4.7c-9.2-7-19.9-9.2-30.9-10.9c1.5-4.2,1.3-8.5,1.1-12.9c-0.2-4.1-0.4-8.3-0.3-12.4c0.5-17.7-0.9-35.4-2.6-53
	c-1.4-14.1-4.4-27.9-8.6-41.4c-2-6.2-2.9-12.6-2.8-19.1C288.6,553.9,288.8,552.9,288.8,551.9z"/>
<path class="st0" d="M252,540.2c12,3.9,23.5,7.6,35.2,11.4c0,0,0.1,0.3,0,0.6c-1.2,6.6-0.6,13,1.3,19.4c3,9.9,5.8,19.8,7.5,29.9
	c1.2,7.3,2.2,14.7,3,22c1.4,12.4,2.1,24.8,2.1,37.3c0,7.6,0.1,15.2,0.2,22.7c0,1.8-0.1,3.6-0.2,6c-7.6-7.2-16.3-9.4-26.1-8.2
	c-0.9-9.2-1.9-18.3-4.1-27.2c-1.1-4.5-2.3-9-3.2-13.5c-1.1-5.9-2-11.8-3-17.7c-1.2-7.1-2.4-14.2-3.5-21.3c-0.6-3.9-0.9-7.8-1.2-11.7
	c-0.6-7.4-1.2-14.8-1.7-22.2c-0.4-5.6-1-11.1-2.6-16.5c-0.9-3.2-2-6.4-3.1-9.6C252.5,541.5,252.3,541,252,540.2z"/>
<path class="st0" d="M278.3,476.5c3.2,0.2,6.2-0.3,8.6-2.9c1.7,1.3,3.3,2,5.4,1.7c2-0.3,3.6-1.2,5-2.6c0.8-0.8,1.5-1.6,2.2-2.6
	c3.6-5.4,6.8-11,9-17.1c1.3-3.8,2.6-7.7,4-11.8c8.8,0.7,17.6,1.5,26.5,0.4c8.9-1.1,17.6-3,26.1-5.7c8.4-2.7,16.5-6.2,24.8-10.2
	c3.8,11,7.5,22,11.4,33.2c-2,0.9-3.8,1.8-5.6,2.5c-2.2,0.9-4.5,1.7-6.8,2.3c-11.8,3.4-23.4,7.5-34.4,13c-6.2,3.1-12.7,4-19.5,3.6
	c-7.6-0.4-15.1-0.7-22.7-0.8c-9.8-0.1-19.4-1.1-29.1-2.4C281.4,477,279.9,476.8,278.3,476.5C278.3,476.5,278.3,476.5,278.3,476.5z"
	/>
<path class="st0" d="M308,117.6c0.9-2.5,1.6-4.5,2.2-6.5c0.6-2.1,0.9-4.2,1.4-6.5c0.9,0.6,1.8,1.1,2.7,1.7c2.3,1.4,3.5,1.2,5.2-0.8
	c1.8-2.1,3.7-4.2,5.5-6.3c0.4-0.4,0.6-0.9,1-1.5c1,1.3,1.8,2.1,2.5,3c1.9,2.5,4.2,4.6,6.8,6.4c4.6,3.1,6.9,7.5,7.7,12.9
	c1.3,8.7,1.1,17.5,1.3,26.3c0.1,5.1,0.1,10.2,0.1,15.3c-0.1,4.4-0.6,5-5.1,5.4c-2,0.2-3.7,0.9-5.2,2.2c-3.8,3.3-7.2,7-9.6,11.7
	c-0.3-0.4-0.5-0.6-0.7-0.8c-2.6-5.4-5.1-10.8-7.6-16.2c-0.5-1.1-1.1-2.1-1.6-3.2c-2.8-5.3-3.1-10.6-0.5-16.1
	c0.8-1.7,1.4-3.4,1.9-5.1c2.2-7,0.2-13-4.7-18.2C310.1,119.9,309,118.7,308,117.6z"/>
<path class="st0" d="M254.8,368.1c0.7-0.2,1.4-0.4,2-0.5c0.8-0.1,1.7,0.1,2.4-0.1c1.9-0.6,3.6-0.2,5.4,0.4
	c5.3,1.7,10.9,2.4,16.4,3.1c8.4,1.1,16.8,1.6,25.3,1.4c0.3,0,0.6,0.1,0.9,0.1c-0.2,2.7-10.7,27.5-15.2,35.7c-2.9-0.5-6-1-9-1.4
	c-7.9-1.1-15.6-3.3-23.3-5.2c-6.1-1.5-12.3-2.5-18.5-3.7c-0.4-0.1-0.7-0.2-1.4-0.3c0.7-1.7,1.3-3.3,2-4.9
	c3.5-8.1,7.6-15.8,12.4-23.1C254.5,369.1,254.6,368.5,254.8,368.1L254.8,368.1z"/>
<path class="st0" d="M376.7,395.7c3.9,8.9,7.8,17.9,11.9,27.3c-9.4,4.7-18.9,8.4-28.8,11.5c-15,4.8-30.4,5.9-46.3,4.9
	c0.2-0.3,0.4-0.6,0.5-0.8c9-8.4,15.9-18.5,22-29.1c0.2-0.4,0.5-0.8,0.7-1.2c0.4-0.9,1.1-1.1,2.1-1.1c3.7,0.1,7.3,0.2,11-0.1
	c4.8-0.4,9.4-1.9,13.7-4.1C368,400.7,372.2,398.3,376.7,395.7z"/>
<path class="st0" d="M340.1,710.3c0.6,3.4,1.3,6.7,1.7,9.9c0.1,0.9-0.3,2.1-0.8,2.9c-1,1.4-2.2,2.7-3.5,3.9
	c-3.4,3.2-6.9,6.4-10.4,9.5c-4.7,4.2-9.4,8.5-14.4,12.3c-6.1,4.7-13.1,7.7-21.1,7.2c-4.5-0.3-8.9-0.5-13.4-0.9
	c-3.2-0.2-6-1.6-8.5-3.5c-1.4-1.1-2.8-2.4-4.1-3.7c-1-1-2-2.2-0.8-3.7c0-3.3,2.3-5.4,4.1-7.6c2.5-3.2,5.3-6.1,8.2-9.4
	c1.8,3.9,5,4.9,8.5,5.4c9.9,1.3,19.8,0.9,29.3-2.5c6.4-2.3,12-5.9,16.3-11.3c0.9-1.2,1.8-2.5,2.3-3.9c0.7-1.9-0.2-3-2.3-3
	c-0.4,0-1-0.1-1.3-0.3c-8.1-6.4-17.5-9.7-27.5-11.7c-1.2-0.2-2.3-0.5-3.6-0.8c0-0.5,0.1-1,0.1-1.4c0.2-2.4,0.4-2.7,2.7-2.2
	c7.4,1.6,14.8,3.3,21.7,6.5c1.7,0.7,3.2,1.8,4.8,2.6c1.4,0.7,2.9,1.4,4.4,2.1c1.6-1.4,2.3-3.1,2.8-4.9c0.5-1.8,1-3.7,1.6-5.6
	c1.2,0.8,1.3,1.9,1.3,3c-0.2,2.4-0.4,4.8-0.6,7.1c-0.3,2.4-0.7,4.7-1.1,7.1c-0.1,0.5-0.2,1,0,1.4c0.2,0.5,0.6,1.2,1.1,1.3
	c0.8,0.3,1.4-0.4,1.5-1.1c0.2-1.3,0.4-2.5,0.5-3.8C339.9,711,340,710.7,340.1,710.3z"/>
<path class="st0" d="M237.2,147.9c-0.5-3.8,0-7.2,1-10.6c1.7-5.9,4.3-11.3,7.6-16.5c3.7-5.9,7.8-11.5,12.4-16.7
	c0.8-0.9,1.6-1.3,2.9-1.1c4.9,0.7,9.6,0,13.9-2.3c4.2-2.4,8.2-5.2,12.3-7.8c1.1-0.7,2.1-1.5,3.2-2.1c2.3-1.4,4.2-1.2,6.3,0.6
	c2.1,1.8,4,3.6,6,5.5c1.9,1.8,3.8,3.6,5.9,5.3c1.1,0.9,1.7,1.9,1.6,3.3c-0.2,1.8-0.2,3.8-0.9,5.4c-1.5,3.3-3.2,6.6-5.2,9.7
	c-1.6,2.5-4,3.8-7.1,3.6c-2-0.1-4-0.4-5.9-0.6c-1.1-0.1-2.2-0.2-3.3-0.3c-0.5,0-1.1,0-1.4-0.2c-1.9-1.6-4.2-1.3-6.4-1.1
	c-5.4,0.5-10.8,1.4-15.8,3.6c-0.2,0.1-0.4,0.1-1.2,0.1c4.1-3.2,7.8-6.1,11.5-9c0-0.1-0.1-0.2-0.1-0.3c-0.4,0.1-0.8,0.2-1.2,0.4
	c-10.4,6.6-20.4,13.7-29.3,22.2c-2.6,2.5-4.9,5.2-6.1,8.7C237.8,147.6,237.6,147.6,237.2,147.9z"/>
<path class="st0" d="M178.6,437.2c6.1,6,13.2,10.2,20.4,14.3c7.1,4.1,13.6,9.2,21.7,11.7c-1.4,8.4-2.9,16.8-4.3,25.3
	c-0.8-0.3-1.4-0.5-2-0.8c-7.7-4.3-15.9-7.3-23.9-10.9c-10.8-4.9-20.5-11.4-28.7-19.9c-0.3-0.3-0.5-0.6-0.8-0.9c0-0.1,0-0.1-0.1-0.4
	C166.7,449.6,172.6,443.5,178.6,437.2z"/>
<path class="st0" d="M312.5,348.2c-16.6-1.1-33.3-2.2-50.1-3.4c0-4.1,0.2-8-0.1-11.8c-0.3-3.6-0.9-7.3-1.6-10.9
	c-0.6-2.9-0.9-5.8-0.5-8.8c0.5-3.4,0.5-6.8,0.7-10.3c0.2-5.1,0.3-10.2,1.9-15.2c0.5-1.6,1.3-2.8,3-3.5c0.5,2.2,0.8,4.3,1.3,6.4
	c0.7,2.6,1.5,5.2,2.4,7.7c1.4,3.7,4.1,6.2,7.3,8.3c0.3,0.2,0.6,0.3,0.9,0.4c2.1,0.2,3,1.6,3.9,3.3c2.5,5.2,6.5,9.2,10.3,13.5
	c6.4,7.2,12.8,14.4,19.2,21.7c0.6,0.6,1,1.3,1.6,2C312.7,347.9,312.6,348,312.5,348.2z"/>
<path class="st0" d="M290.8,411.1c-1.9,3.9-3.6,7.5-5.5,11.6c-0.4,0.1-1.2,0.3-2,0.4c-6.2,1-12,3.2-17.5,6.2c-1.9,1-3.9,1.8-5.8,2.8
	c-1.7,0.9-3.4,1.8-4.9,2.9c-1.1,0.8-1.8,2.1-2.9,3.5c-2.9-0.1-6.1-0.8-9.3-1.6c-4.1-1-7.8-2.9-11.4-4.9c-1.2-0.7-1.7-1.5-1.4-2.9
	c2.3-9.8,4.7-19.5,8.6-28.8c0.2-0.4,0.4-0.7,0.6-1.1c0.7,0.1,1.3,0.1,1.9,0.3c9.8,2.5,19.6,5.2,29.4,7.6c6.1,1.5,12.3,2.5,18.5,3.7
	C289.4,410.8,289.9,410.9,290.8,411.1z"/>
<path class="st0" d="M226.7,431.9c-1.8,9.5-3.6,18.8-5.4,28.3c-2.2,0-3.9-0.8-5.6-1.7c-3.2-1.9-6.5-3.8-9.7-5.7
	c-5.4-3.1-10.8-6.2-16.1-9.4c-3.5-2.2-6.9-4.6-10.2-6.8c7.5-9.3,15-18.5,22.6-27.8c3.8,4.1,7.6,8.2,11.4,12.2
	C217.5,424.9,221.8,428.5,226.7,431.9z"/>
<path class="st0" d="M159.1,456.7c3.1,3.2,5.7,5.8,8.3,8.4c5.1,4.9,11,8.7,17.3,11.8c5.8,2.9,11.9,5.4,17.8,8.1
	c4.5,2.1,8.8,4.3,13.4,6.6c-1.8,10.7-3.5,21.2-5.3,32c-1.4-1-2.5-1.8-3.5-2.6c-10.2-7.5-18.3-17-26-26.9
	c-7.2-9.2-14.3-18.3-21.4-27.6c-1.2-1.6-2-3.6-2.8-5.5c-0.2-0.5,0.1-1.4,0.4-2C157.8,458.2,158.5,457.5,159.1,456.7z"/>
<path class="st0" d="M296.6,701.3c3.4,0.8,6.4,1.5,9.5,2.1c7.9,1.8,15.1,5.1,21.6,9.9c0.8,0.6,1.8,1,2.8,1.6
	c-0.3,0.5-0.6,1.1-0.9,1.6c-3.8,5.2-9,8.6-15,10.7c-9.8,3.5-20,4.5-30.4,2.6c-1.6-0.3-3.3-0.6-4.5-2c-1-1.3-1.1-1.7,0-2.9
	c3.1-3.4,5.4-7.2,7.7-11.2C290,709.1,293.5,705.3,296.6,701.3z"/>
<path class="st0" d="M264.6,347c4,0.4,7.7,0.8,11.4,1.1c3.5,0.3,7,0.5,10.5,0.8c7.4,0.6,14.8,1.2,22.2,1.8c1.6,0.1,3.2,0.2,4.8,0.2
	c1.3,0,2.4,0.3,3.3,1.5c-0.3,0.7-0.7,1.4-1.1,2.2c-2,4.3-4,8.5-5.9,12.8c-0.6,1.4-1.4,1.9-2.8,2c-8.6,0.5-17.1,0.3-25.6-0.9
	c-5.5-0.7-11.1-1.4-16.6-2.2c-0.3,0-0.6-0.1-1.2-0.2c0.4-0.5,0.8-0.9,1.1-1.3c1.3-1.6,2.8-3.1,3.8-4.9c2.3-4,1.5-8.1-2-11.3
	C266,348.1,265.3,347.6,264.6,347z"/>
<path class="st0" d="M227.4,428.9c-9.1-6.4-16.2-14.3-23.9-21.8c6.3-8.7,14-16.1,21.7-23.7c4.4,3.8,8.7,7.5,13.2,11.3
	C233.9,405.6,229.8,416.7,227.4,428.9z"/>
<path class="st0" d="M247.9,712.1c3.4,5.9,8.9,7.4,14.8,7.5c7.3,0.1,14.1-2.1,20.4-5.9c0.7-0.4,1.3-0.8,2.4-1.4
	c-0.3,0.9-0.5,1.4-0.7,1.8c-2.4,4.6-5.7,8.6-9.4,12.3c-2.5,2.6-5,5.2-7.3,7.9c-1.9,2.3-3.5,4.9-5.1,7.5c-0.5,0.8-1,1.2-1.9,1.2
	c-2.9,0.2-5.9,0.6-8.8,0.6c-5.5,0-9.4-3.2-12.7-7.1c-0.6-0.7-0.8-1.7-0.9-2.7c-0.1-1,0-2.1,0.4-3c2.1-5.2,4.4-10.4,6.6-15.6
	C246.3,714.2,247.1,713.3,247.9,712.1z"/>
<path class="st0" d="M375.1,392.1c-7,6.7-20.7,14-36.4,13.2c3.5-7.3,7-14.5,10.3-21.8c3.2-7.3,6.2-14.7,9.4-22.4
	C364.3,371.6,370.2,381.6,375.1,392.1z"/>
<path class="st0" d="M278.2,237.4c6.7-1.5,12.8-3.7,18.9-5.9c6.8-2.5,12.4-6.6,17.3-11.6c2.5-2.6,4.8-5.3,7.2-8
	c2.1-2.4,3.4-5.1,4.5-8.1c0.9-2.4,2.3-4.8,5.3-6.1c-1.7,7.2-2.6,14.1-1.5,21.1c1.1,7,4.1,13.3,6.2,20.1c-0.4,0-0.8,0-1.3-0.1
	c-6.4-1.1-12.9-2.3-19.3-3.4c-3.1-0.5-6.3-1-9.5-1.3c-3.2-0.4-6.2,0.5-8.9,2.1c-5.1,2.9-9.9,6.4-14.3,10.4c-0.3,0.3-0.6,0.5-1.2,1
	C280.8,244,280.6,240.4,278.2,237.4z"/>
<path class="st0" d="M344,240.5c-0.1,1.5-0.1,2.6-0.3,3.6c-0.5,2.5-0.3,4.9,0.3,7.4c1,4.1,2.1,8.2,3.2,12.2c0.4,1.5-0.1,2.4-1.6,2.4
	c-1.4,0-2.9-0.3-4.2-0.7c-2.9-0.9-5.4-2.6-7.9-4.5c-3.8-2.9-7.6-5.9-11.6-8.5c-3.9-2.5-8-4.7-12.2-6.6c-7.6-3.6-15-2.5-22.4,0.9
	c-1.1,0.5-2.1,1.1-3.2,1.6c-0.1,0.1-0.3,0-0.8-0.1c1.1-0.9,2-1.7,3.1-2.4c3.5-2.4,7.1-4.6,10.6-7c4-2.7,8.3-3,12.8-2.2
	c9.2,1.6,18.4,3.3,27.5,4.9c1.6,0.3,3.3,0.8,4.7-0.7C342.3,240.4,343,240.6,344,240.5z"/>
<path class="st0" d="M251.2,711.7c0.5-0.4,1-0.7,1.4-1.1c6.9-6,13.2-12.5,18.5-19.9c1-1.4,2.1-1.9,3.8-1.6c2.7,0.4,5.4,0.6,8.1,1
	c4.1,0.6,7.8,2.2,10.8,5.2c0.9,0.9,1.6,1.9,2.5,3c-2,2.6-3.9,5-5.9,7.5c-0.2,0.2-0.5,0.5-0.7,0.6c-2.2,0.4-3.6,2-5.3,3.1
	c-6,4.2-12.7,6.7-20,7.2c-3.3,0.2-6.5-0.2-9.6-1.6C253.5,714.3,252.2,713.5,251.2,711.7z"/>
<path class="st0" d="M350.3,325.6c-0.6-0.4-0.7-0.5-0.7-0.5c-5.9-10.4-11.9-20.8-17.8-31.1c-0.6-1-0.7-1.8,0-2.8
	c1.1-1.7,1.6-3.6,1.7-5.7c0.3-4.9,0.6-9.9,0.8-14.8c0.1-2-0.3-3.9-0.5-6.3c4.3,2.4,8.4,4.8,13.6,4.3
	C348.7,287.7,349.1,306.5,350.3,325.6z"/>
<path class="st0" d="M321,81.2c3-3.3,6.2-5.5,10-6.6c2.5-0.7,5-0.3,7,1.4c1.8,1.6,3.6,3.4,5.1,5.3c2.6,3.4,4.6,7.1,6.1,11
	c1,2.6,1.5,5.2,0.8,8c-0.6,2.7-2.1,4.8-4.6,6.1c-2.8,1.5-5.6,1.4-8.1-0.6c-3.6-2.8-7-5.8-10.6-8.8c0.5-0.7,0.8-1.2,1.2-1.7
	c0.5-0.7,1-1.4,1.5-2.2c2.5-4.1,2-6.3-2.1-8.6C325.4,83.5,323.3,82.4,321,81.2z"/>
<path class="st0" d="M231.3,351.3c0.5-0.8,0.8-1.2,1.1-1.7c2.7,1.6,5.7,1.6,8.7,0.7c-1.2-0.4-2.5-0.9-3.7-1.3
	c-1.9-0.7-3.9-1.5-5.2-3.2c-1.1-1.4-1.8-2.8-1.3-5c2.9,0.1,5.8,0.5,8.8,0.4c2.9-0.1,5.8-0.8,8.9-1.2c-0.4,1.3-0.9,2.5-1.1,3.7
	c-0.8,4.6-1.6,9.1-2.2,13.7c-0.4,2.8-0.9,5.1-3.5,7c-3.4,2.6-6.3,5.9-9.4,8.9c-1.6,1.5-3.3,3-5,4.5c-0.6,0.5-1.2,0.6-1.9,0.3
	c-3.6-1.8-6.5-5.6-5.3-9.9c1.2-4.5,2.3-8.9,3.7-13.3c0.5-1.6,1.3-3.1,2.3-4.4c0.8-0.9,2-1.5,3.2-2c1.3-0.6,1.8-0.2,1.8,1.4
	C231.1,350,231.2,350.4,231.3,351.3z M224.2,357.5c-0.2,0.1-0.4,0.3-0.6,0.4c0.2,0.5,0.2,1.2,0.5,1.4c1.9,1,3.4,2.8,5.7,3.3
	c2,0.5,2.5,1.2,2.5,3.1c0,2.1-0.5,2.8-2.6,3.4c-1.2,0.3-2.4,0.6-3.8,0.9c2.8,1.3,5.5,1.4,6.8,0.2c2.2-2,1.5-4.4,0.7-6.9
	c0.5-0.2,0.8-0.3,1.2-0.5c2.3-0.8,3.1-2.4,2-5.4c-0.6-1.7-4.5-4.8-6.6-5.5c0,1.4,1.1,2.1,1.8,2.9c1,1.1,1.9,2.1,2.8,3.3
	c0.6,0.8,0.6,1.9-0.5,2.2c-2.2,0.7-4.4,1.5-6.6-0.3C226.5,359,225.3,358.3,224.2,357.5z"/>
<path class="st0" d="M291.5,81.1c-0.5,2.3-2.4,4.2-1.1,6.9c-4.9,3.2-9.7,6.5-14.6,9.6c-4.9,3-10.3,3.8-15.9,2.8
	c-0.8-0.1-1.6-0.4-2.3-0.7c-1.1-0.5-1.6-1.4-1.2-2.5c0.7-2.6,1.4-5.2,2.3-7.8c0.7-2.2,2.4-3.5,4.6-4.2c5.2-1.8,10.4-3.6,15.5-5.6
	c1.9-0.7,3.6-0.9,5.6-0.3C286.6,79.9,289,80.4,291.5,81.1z"/>
<path class="st0" d="M317,104.6c-3.7-1.7-10.5-7.4-19-15.9c0.9-1.3,2-2.6,2.7-4c0.7-1.4,1.2-3,1.9-5c4.1-1.2,8.5-1.7,12.9,0.8
	c3.8,2.2,7.6,4.4,11.3,6.6c2,1.2,2.2,2,1.1,4.1c-0.3,0.6-0.7,1.2-1.1,1.8C323.8,97.2,320.3,100.8,317,104.6z"/>
<path class="st0" d="M269.2,264.3c-2.7,7.3-3.4,9.7-3.5,17c-3,1.3-4.4,4-5.1,7c-0.9,4.1-1.5,8.3-2,12.5c-0.5,4.4-0.6,8.9-1,13.3
	c-0.3,3.1,0,6,0.8,9c1.8,6.8,1.9,13.7,1.6,21c-2.5-1.2-4.8-2.2-7-3.4c-0.3-0.2-0.6-0.8-0.6-1.2c-0.2-9.6-0.5-19.1-0.5-28.7
	c0-7.3,1.8-14.2,4.1-21c2-5.7,4.1-11.4,6.1-17.1c0.6-1.8,1.6-3.3,3-4.5C266.5,266.9,267.8,265.6,269.2,264.3z"/>
<path class="st0" d="M254.8,368c-1.8,2.2-3.9,4.2-5.3,6.6c-3.1,5-5.8,10.2-8.7,15.4c-0.4,0.7-0.7,1.4-1.1,2.2
	c-4.4-3.3-8.6-6.5-12.9-9.8c6.5-6.5,12.9-12.9,19.3-19.4c2,2.1,4.4,3,6.8,3.8C253.7,367.1,254.7,367,254.8,368
	C254.8,368.1,254.8,368,254.8,368z"/>
<path class="st0" d="M250.1,341.1c3.8,2.2,7.5,4.3,11.1,6.5c1.5,0.9,3,2.1,4.3,3.4c2.1,2.2,2.3,4.8,1.1,7.5
	c-0.4,0.8-0.8,1.5-1.4,2.2c-2.8,3.9-6.2,5.2-10.8,3.7c-2.5-0.8-4.8-2-7.2-3C246.9,358.7,248.9,345.1,250.1,341.1z M264.4,354.5
	c-0.1-2.5-1.5-4.5-3.7-5.2c-1.7-0.6-4-0.1-4.7,1.4c-0.8,1.6-1.4,3.4-1.6,5.2c-0.2,2.4,1.6,4.4,3.8,4.8c2.1,0.4,4.2-0.8,5.2-3
	C263.9,356.6,264.1,355.5,264.4,354.5z"/>
<path class="st0" d="M300.1,693.7c-0.7,0.4-1.5,0.9-2.2,1.3c-0.2-0.1-0.4-0.1-0.5-0.2c-4.4-5-10.1-7-16.5-7.6
	c-2.6-0.2-5.2-0.6-8-0.9c0.2-1.1,0.4-1.9,0.6-2.7C280.7,682.1,295.7,685.2,300.1,693.7z"/>
<path class="st0" d="M268.9,261.1c0.2-0.8,0.3-1.6,0.5-2.4c0.4-1.2,0.7-2.4,1.2-3.6c1.5-3.7,4.6-5.5,9-5.1c-0.1,0.4,0,1-0.2,1.3
	c-3.3,3.4-6.7,6.7-10,10.1C269.2,261.2,269.1,261.1,268.9,261.1z"/>
<path class="st0" d="M294.8,87.5c-2.2,0-3.1-0.9-2.7-2.7c0.3-1.9,0.7-3.9,2.9-4.9c1.3-0.6,2.7-0.7,3.7,0.3c0.4,0.4,0.8,1.3,0.6,1.6
	c-1,1.8-2.1,3.5-3.3,5.2C295.6,87.3,295,87.4,294.8,87.5z"/>
<path d="M284.2,173.3c-2-0.5-3.4,0-4.2,2c-0.3,0.8-1.1,1.4-1.9,1.9c-0.3-1.9,0.4-3.4,1.9-4.2c5.9-3.2,14.7-0.2,17.3,3.9
	c0.1,0.2,0.1,0.4,0.3,0.8c-1.9,0-2.9-1.5-4.7-2.2c-0.1,2.1-0.9,3.7-2.7,4.5c-0.8,0.4-1.9,0.5-2.8,0.2
	C284.6,179.6,283.5,176.9,284.2,173.3z M290.7,175.7c0-1.3-0.2-1.6-1.6-2c-0.6-0.2-1.2-0.3-1.9-0.4c-1.7-0.3-2.7,0.6-2.2,2.3
	c0.3,0.9,0.9,1.7,1.5,2.3c0.7,0.7,1.7,0.9,2.6,0.4C290.2,177.7,290.8,176.9,290.7,175.7z"/>
<path d="M249.9,174.8c-1.6,0.1-3.1,0.3-4.6,0.4c3-2,6.1-2.6,9.4-1.4c0.5,0.2,1,0.6,1.4,1c1.3,1.2,1.8,3,1.2,4.3
	c-0.5,1.1-2.5,2.1-3.9,1.9c-1.8-0.2-3.3-1.4-3.6-3C249.8,177.1,249.9,176.1,249.9,174.8z M255.9,178.5c-0.8-2.9-1.8-3.6-4.4-3.4
	c-0.3,1.9-0.2,2.6,0.6,3.2C253.3,179.2,254.6,179.1,255.9,178.5z"/>
<path d="M276.2,214c-5.6,1.7-10.5-0.6-15.9-1.5C262.4,211.8,272.8,212.8,276.2,214z"/>
<path d="M286.1,165.8c-3.5,0-7,0-10.4,0C277.6,164.4,282.1,164.3,286.1,165.8z"/>
<path d="M253.7,168.2c-2.8-0.7-5.5-1.4-8.3-2C248.5,165.4,251.4,165.7,253.7,168.2z"/>
<path d="M261.5,202.2c-4,0.3-5-0.7-4.6-4.4c0.4,2.2,1.5,3.1,3.1,3.3C260.6,201.3,261,201.8,261.5,202.2z"/>
<path d="M265.4,201c1.9-1.3,2.1-1.3,3.6,0C267.8,201.8,266.8,201.3,265.4,201z"/>
<path d="M224.2,357.5c1.2,0.8,2.4,1.5,3.4,2.4c2.1,1.8,4.4,1,6.6,0.3c1.1-0.3,1.1-1.4,0.5-2.2c-0.8-1.1-1.8-2.2-2.8-3.3
	c-0.8-0.9-1.8-1.5-1.8-2.9c2.1,0.6,6,3.8,6.6,5.5c1.1,3,0.3,4.6-2,5.4c-0.4,0.1-0.7,0.3-1.2,0.5c0.8,2.5,1.5,4.9-0.7,6.9
	c-1.3,1.2-4,1-6.8-0.2c1.4-0.3,2.6-0.6,3.8-0.9c2.1-0.6,2.6-1.3,2.6-3.4c0-1.9-0.5-2.7-2.5-3.1c-2.3-0.5-3.8-2.3-5.7-3.3
	c-0.3-0.2-0.3-0.9-0.5-1.4C223.8,357.7,224,357.6,224.2,357.5z"/>
<path d="M264.4,354.5c-0.3,1.1-0.5,2.2-0.9,3.2c-1,2.2-3.1,3.4-5.2,3c-2.2-0.4-4-2.5-3.8-4.8c0.2-1.8,0.8-3.6,1.6-5.2
	c0.7-1.5,3-1.9,4.7-1.4C262.9,350,264.3,352,264.4,354.5z M259.2,351.7c-2.6,0-3.2,0.5-3.3,3.1c-0.1,2.3,1.2,3.8,3,3.8
	c1.7,0,3-1.5,3-3.6C262,352.9,261,351.7,259.2,351.7z"/>
<path class="st0" d="M290.7,175.7c0.1,1.2-0.4,2-1.4,2.5c-1,0.5-1.9,0.3-2.6-0.4c-0.6-0.6-1.3-1.5-1.5-2.3c-0.5-1.7,0.4-2.5,2.2-2.3
	c0.6,0.1,1.2,0.2,1.9,0.4C290.4,174.1,290.7,174.4,290.7,175.7z"/>
<path class="st0" d="M255.9,178.5c-1.3,0.6-2.6,0.7-3.8-0.2c-0.9-0.6-1-1.3-0.6-3.2C254.1,174.9,255.1,175.6,255.9,178.5z"/>
<path class="st0" d="M259.2,351.7c1.8,0,2.8,1.2,2.8,3.4c-0.1,2.1-1.3,3.6-3,3.6c-1.8,0-3-1.6-3-3.8
	C256,352.2,256.5,351.6,259.2,351.7z"/>
</svg>
